<svg width="724" height="371" viewBox="0 0 724 371" fill="none" xmlns="http://www.w3.org/2000/svg"><g clip-path="url(#avlnvlf4a)"><path fill="#000" d="M0 0h724v371H0z"/><g clip-path="url(#bvlnvlf4a)"><path fill="#000" d="M0 0h724v371H0z"/><g clip-path="url(#cvlnvlf4a)"><rect x="58" y="20" width="606" height="401" rx="22" fill="url(#dvlnvlf4a)" fill-opacity=".5"/><g filter="url(#evlnvlf4a)" shape-rendering="crispEdges"><path d="M57.98 43.04a22.03 22.03 0 0 1 22-22.04h568.99a22 22 0 0 1 22 22v324a22 22 0 0 1-22 22H79.98c-12.15 0-22-9.89-22-22.04V43.04Z" fill="url(#fvlnvlf4a)" fill-opacity=".5"/><path d="M58.98 43.04c0-11.6 9.4-21.04 21-21.04h568.99a21 21 0 0 1 21 21v324a21 21 0 0 1-21 21H79.98c-11.6 0-21-9.44-21-21.04V43.04Z" stroke="url(#gvlnvlf4a)" stroke-opacity=".2" stroke-width="2"/></g><g clip-path="url(#hvlnvlf4a)" opacity=".3"><path stroke="#202126" d="M133 21v483"/><path stroke="#1E2025" d="M210 21v483"/><path stroke="#1F1F24" d="M287.49 21v483"/><path stroke="#1B1D20" d="M356.49 21v483"/><path stroke="#131417" d="M434.49 21v483"/><path stroke="#101113" d="M511.49 21v483"/><path stroke="#0F1011" d="M581.49 21v483"/><path stroke="url(#ivlnvlf4a)" d="M670.79 69.5H58.5"/><path stroke="url(#jvlnvlf4a)" d="M670.79 101.5H58.5"/><path stroke="url(#kvlnvlf4a)" d="M670.79 133.5H58.5"/><path stroke="url(#lvlnvlf4a)" d="M670.79 165.5H58.5"/><path stroke="url(#mvlnvlf4a)" d="M670.79 197.5H58.5"/><path stroke="url(#nvlnvlf4a)" d="M670.79 229.5H58.5"/><path stroke="url(#ovlnvlf4a)" d="M670.79 261.5H58.5"/><path stroke="url(#pvlnvlf4a)" d="M670.79 293.5H58.5"/><path stroke="url(#qvlnvlf4a)" d="M670.79 325.5H58.5"/><path stroke="url(#rvlnvlf4a)" d="M670.79 357.5H58.5"/></g><path d="M672.4 371H56.27v-82.3H672.4V371Z" fill="url(#svlnvlf4a)"/><mask id="tvlnvlf4a" style="mask-type:alpha" maskUnits="userSpaceOnUse" x="54" y="-7" width="603" height="386"><path fill="url(#uvlnvlf4a)" d="M54.5-6.44h602.03v384.51H54.5z"/></mask><g mask="url(#tvlnvlf4a)"><path fill="#24B29B" d="M80.2 304.44h4.83v22.72H80.2z"/><path fill="#24B29B" d="M82.13 304.06h.97v35.5h-.97zM111.02 309.11h4.83v8.59h-4.83z"/><path fill="#24B29B" d="M112.95 308.8h.97v28.52h-.97zM126.44 299.23h4.83v9.66h-4.83z"/><path fill="#24B29B" d="M128.37 284.86h.97v42.74h-.97zM141.85 268.62h4.83v55.27h-4.83z"/><path fill="#24B29B" d="M143.78 261.21h.97v78h-.97zM157.45 251.25h4.83v22.96h-4.83z"/><path fill="#24B29B" d="M159.38 243.85h.97v35.37h-.97zM165.25 215.43h4.83v26.83h-4.83z"/><path fill="#24B29B" d="M167.18 211.9h.97v31.95h-.97zM180.5 194.05h4.83v26.83h-4.83z"/><path fill="#24B29B" d="M182.43 190.52h.97v40.5h-.97zM211.58 213.4h4.83v46h-4.83z"/><path fill="#24B29B" d="M213.51 211.93h.97v54.33h-.97zM219.04 178.95h4.83v30.18h-4.83z"/><path fill="#24B29B" d="M220.97 164.33h.97v49.06h-.97zM226.83 180.91h4.83v11.65h-4.83z"/><path fill="#24B29B" d="M228.76 175.79h.97v23.66h-.97zM234.29 181.19h4.83v25.29h-4.83z"/><path fill="#24B29B" d="M236.22 178.95h.97v51.18h-.97zM242.49 148.86h4.83v17.66h-4.83z"/><path fill="#24B29B" d="M244.42 147.3h.97v35.73h-.97zM250.14 142.05h4.83v13.66h-4.83z"/><path fill="#24B29B" d="M252.07 124.19h.97v35.73h-.97zM281.09 62.86h4.83v15.96h-4.83z"/><path fill="#24B29B" d="M283.02 52.22h.97v37.82h-.97zM304.3 75.42h4.83v41.98h-4.83z"/><path fill="#24B29B" d="M306.23 65.12h.97v61.59h-.97zM327.08 127.15h4.83v16.69h-4.83z"/><path fill="#24B29B" d="M329.01 124.99h.97v24.49h-.97zM427.95 206.19h4.83v31.86h-4.83z"/><path fill="#24B29B" d="M429.88 199.11h.97v45.79h-.97zM505.03 221.22h4.83v60.21h-4.83z"/><path fill="#24B29B" d="M506.96 219.85h.97v71.34h-.97zM458.75 199.32h4.83v5.65h-4.83z"/><path fill="#24B29B" d="M460.69 192.89h.97v22.64h-.97zM481.69 296.71h4.83v16.72h-4.83z"/><path fill="#24B29B" d="M483.63 261.78h.97v68.91h-.97zM489.8 250.73h4.83v20.03h-4.83z"/><path fill="#24B29B" d="M491.74 238.21h.97v46.01h-.97zM497.42 271.63h4.83v10.85h-4.83z"/><path fill="#24B29B" d="M499.35 269.46h.97v39.9h-.97zM520.77 226.5h4.83v25.07h-4.83z"/><path fill="#24B29B" d="M522.7 225.06h.97v26.5h-.97zM528.45 190.99h4.83v20.29h-4.83z"/><path fill="#24B29B" d="M530.38 186.57h.97v29.48h-.97zM574.82 173.04h4.83v21.36h-4.83z"/><path fill="#24B29B" d="M576.75 169.02h.97v26.83h-.97zM597.88 103.42h4.83v16.32h-4.83z"/><path fill="#24B29B" d="M599.81 100.35h.97v20.49h-.97zM621.19 116.92h4.83v19.21h-4.83z"/><path fill="#24B29B" d="M623.12 113.85h.97v28.58h-.97zM628.7 114.14h4.83v16.95h-4.83z"/><path fill="#24B29B" d="M630.63 110.95h.97v29.69h-.97zM590.36 113.77h4.83v39.17h-4.83z"/><path fill="#24B29B" d="M592.29 112.65h.97v37.98h-.97zM582.36 154.33h4.83v5.06h-4.83z"/><path fill="#24B29B" d="M584.29 151.74h.97v17.28h-.97zM551.66 213.35h4.83v23.99h-4.83z"/><path fill="#24B29B" d="M553.59 212.24h.97v46.09h-.97zM435.54 160.69h4.83v34.94h-4.83z"/><path fill="#24B29B" d="M437.47 158.91h.97v40.64h-.97zM342.83 94.56h4.83v8h-4.83z"/><path fill="#24B29B" d="M344.76 78.82h.97v45.37h-.97zM366.01 136.08h4.83v2.17h-4.83z"/><path fill="#24B29B" d="M367.94 134.77h.97v23.27h-.97zM335.23 94.59h4.83v29.06h-4.83z"/><path fill="#24B29B" d="M337.16 91.48h.97v35.23h-.97zM350.42 84.77h4.83v22.69h-4.83z"/><path fill="#24B29B" d="M352.35 88.14h.97v27.5h-.97zM273.07 106.37h4.83v36.16h-4.83z"/><path fill="#24B29B" d="M275.01 86.03h.97v80.49h-.97zM265.43 138.48h4.83v39h-4.83z"/><path fill="#24B29B" d="M267.36 137h.97v35.73h-.97zM172.71 204.97h4.83v6.35h-4.83z"/><path fill="#24B29B" d="M174.64 194.42h.97v44.62h-.97zM103.31 302.13h4.83v31.88h-4.83z"/><path fill="#24B29B" d="M105.25 295.73h.97v38.23h-.97z"/><path fill="#F33" d="M87.9 305.89h4.83v13.76H87.9z"/><path fill="#F33" d="M89.83 304.06h.97v23.1h-.97zM149.65 257.12h4.83v13.76h-4.83z"/><path fill="#F33" d="M151.58 228.68h.97v43.67h-.97zM188.29 193.29h4.83v6.72h-4.83z"/><path fill="#F33" d="M190.23 182.05h.97V204h-.97zM203.66 256.55h4.83v10.28h-4.83z"/><path fill="#F33" d="M205.59 248.88h.97v26.45h-.97zM257.79 157.59h4.83v22.56h-4.83z"/><path fill="#F33" d="M259.72 147.3h.97v33.89h-.97zM289.11 94.08h4.83v1.84h-4.83z"/><path fill="#F33" d="M291.04 60.65h.97v42.71h-.97zM296.7 107.48h4.83v5.79h-4.83z"/><path fill="#F33" d="M298.63 102.46h.97v22.97h-.97zM381.6 191.7h4.83v8.96h-4.83z"/><path fill="#F33" d="M383.53 179.95h.97v30h-.97zM404.79 198.43h4.83v8.96h-4.83z"/><path fill="#F33" d="M406.72 179.95h.97v36.73h-.97zM412.51 208.44h4.83v6.21h-4.83z"/><path fill="#F33" d="M414.44 195.63h.97v25.45h-.97zM443.13 152.03h4.83v6.21h-4.83z"/><path fill="#F33" d="M445.06 139.22h.97v20.33h-.97zM420.23 219.86h4.83v11.04h-4.83z"/><path fill="#F33" d="M422.16 209.95h.97v25.45h-.97zM389.33 179.13h4.83v4.97h-4.83z"/><path fill="#F33" d="M391.26 172.62h.97v42.4h-.97zM397.07 211.95h4.83v3.26h-4.83z"/><path fill="#F33" d="M399 206.71h.97v27.84H399zM311.89 82.48h4.83v26.51h-4.83z"/><path fill="#F33" d="M313.82 79.61h.97v32.95h-.97zM358.42 109.89h4.83v17.81h-4.83z"/><path fill="#F33" d="M360.35 94.59h.97v32.81h-.97zM319.48 87.17h4.83v49.22h-4.83z"/><path fill="#F33" d="M321.41 81.84h.97v61.17h-.97zM373.61 154.01h4.83v37.11h-4.83z"/><path fill="#F33" d="M375.54 155.78h.97v37.3h-.97zM451.16 159.55h4.83v44.25h-4.83z"/><path fill="#F33" d="M453.09 157.45h.97v50.07h-.97zM466.35 195.63h4.83v56.2h-4.83z"/><path fill="#F33" d="M468.28 182.4h.97v75.93h-.97zM474.08 256.53h4.83v36.89h-4.83z"/><path fill="#F33" d="M476.01 240.73h.97v62.91h-.97zM512.64 223.01h4.83v30.37h-4.83z"/><path fill="#F33" d="M514.57 228.72h.97v35.68h-.97zM543.65 223.01h4.83v5.71h-4.83z"/><path fill="#F33" d="M545.58 187.44h.97v63.29h-.97zM559.25 203.2h4.83v7.08h-4.83z"/><path fill="#F33" d="M561.18 189.18h.97v24.95h-.97zM605.39 100.25h4.83v22.54h-4.83z"/><path fill="#F33" d="M607.32 95.89h.97v33.58h-.97zM613.39 125.06h4.83v3.22h-4.83z"/><path fill="#F33" d="M615.32 120.7h.97v21.02h-.97zM566.84 211.52h4.83v3.22h-4.83z"/><path fill="#F33" d="M568.77 199.43h.97v28.82h-.97zM536.04 191.49h4.83v45.84h-4.83z"/><path fill="#F33" d="M537.97 165.97h.97v66.92h-.97zM195.75 191.49h4.83v53.32h-4.83z"/><path fill="#F33" d="M197.69 182.05h.97v65.86h-.97zM118.73 299.09h4.83v21.49h-4.83z"/><path fill="#F33" d="M120.66 280.8h.97v59.95h-.97zM134.15 308.88h4.83v22.22h-4.83z"/><path fill="#F33" d="M136.08 307.55h.97v28.07h-.97zM95.61 315.65h4.83v33.81h-4.83z"/><path fill="#F33" d="M97.54 302.59h.97v48.91h-.97z"/><g style="mix-blend-mode:screen" filter="url(#vvlnvlf4a)"><path fill="#24B29B" d="M80.2 323.63h4.83v22.72H80.2z"/><path fill="#24B29B" d="M82.13 323.24h.97v35.5h-.97zM111.02 328.3h4.83v8.59h-4.83z"/><path fill="#24B29B" d="M112.96 327.99h.97v28.52h-.97zM126.44 318.41h4.83v9.66h-4.83z"/><path fill="#24B29B" d="M128.37 304.05h.97v42.74h-.97zM141.85 287.81h4.83v55.27h-4.83z"/><path fill="#24B29B" d="M143.78 280.4h.97v78h-.97zM157.45 270.44h4.83v22.96h-4.83z"/><path fill="#24B29B" d="M159.38 263.03h.97v35.37h-.97zM165.25 234.62h4.83v26.83h-4.83z"/><path fill="#24B29B" d="M167.18 231.08h.97v31.95h-.97zM180.5 213.24h4.83v26.83h-4.83z"/><path fill="#24B29B" d="M182.43 209.7h.97v40.5h-.97zM211.58 232.58h4.83v46h-4.83z"/><path fill="#24B29B" d="M213.51 231.12h.97v54.33h-.97zM219.04 198.14h4.83v30.18h-4.83z"/><path fill="#24B29B" d="M220.97 183.52h.97v49.06h-.97zM226.83 200.09h4.83v11.65h-4.83z"/><path fill="#24B29B" d="M228.76 194.97h.97v23.66h-.97zM234.29 200.37h4.83v25.29h-4.83z"/><path fill="#24B29B" d="M236.22 198.14h.97v51.18h-.97zM242.49 168.04h4.83v17.66h-4.83z"/><path fill="#24B29B" d="M244.42 166.48h.97v35.73h-.97zM250.14 161.23h4.83v13.66h-4.83z"/><path fill="#24B29B" d="M252.07 143.38h.97v35.73h-.97zM281.09 82.04h4.83V98h-4.83z"/><path fill="#24B29B" d="M283.02 71.4h.97v37.82h-.97zM304.3 94.6h4.83v41.98h-4.83z"/><path fill="#24B29B" d="M306.23 84.3h.97v61.59h-.97zM327.08 146.33h4.83v16.69h-4.83z"/><path fill="#24B29B" d="M329.01 144.17h.97v24.49h-.97zM427.95 225.37h4.83v31.86h-4.83z"/><path fill="#24B29B" d="M429.88 218.3h.97v45.79h-.97zM505.03 240.4h4.83v60.21h-4.83z"/><path fill="#24B29B" d="M506.96 239.04h.97v71.34h-.97zM458.75 218.5h4.83v5.65h-4.83z"/><path fill="#24B29B" d="M460.69 212.07h.97v22.64h-.97zM481.69 315.9h4.83v16.72h-4.83z"/><path fill="#24B29B" d="M483.63 280.97h.97v68.91h-.97zM489.8 269.91h4.83v20.03h-4.83z"/><path fill="#24B29B" d="M491.74 257.39h.97v46.01h-.97zM497.42 290.81h4.83v10.85h-4.83z"/><path fill="#24B29B" d="M499.35 288.65h.97v39.9h-.97zM520.77 245.69h4.83v25.07h-4.83z"/><path fill="#24B29B" d="M522.7 244.25h.97v26.5h-.97zM528.45 210.17h4.83v20.29h-4.83z"/><path fill="#24B29B" d="M530.38 205.76h.97v29.48h-.97zM574.82 192.22h4.83v21.36h-4.83z"/><path fill="#24B29B" d="M576.75 188.21h.97v26.83h-.97zM597.88 122.6h4.83v16.32h-4.83z"/><path fill="#24B29B" d="M599.81 119.53h.97v20.49h-.97zM621.19 136.1h4.83v19.21h-4.83z"/><path fill="#24B29B" d="M623.12 133.03h.97v28.58h-.97zM628.7 133.32h4.83v16.95h-4.83z"/><path fill="#24B29B" d="M630.63 130.13h.97v29.69h-.97zM590.36 132.95h4.83v39.17h-4.83z"/><path fill="#24B29B" d="M592.29 131.83h.97v37.98h-.97zM582.36 173.51h4.83v5.06h-4.83z"/><path fill="#24B29B" d="M584.29 170.93h.97v17.28h-.97zM551.66 232.53h4.83v23.99h-4.83z"/><path fill="#24B29B" d="M553.59 231.43h.97v46.09h-.97zM435.54 179.88h4.83v34.94h-4.83z"/><path fill="#24B29B" d="M437.47 178.09h.97v40.64h-.97zM342.83 113.75h4.83v8h-4.83z"/><path fill="#24B29B" d="M344.76 98h.97v45.37h-.97zM366.01 155.26h4.83v2.17h-4.83z"/><path fill="#24B29B" d="M367.94 153.95h.97v23.27h-.97zM335.23 113.77h4.83v29.06h-4.83z"/><path fill="#24B29B" d="M337.16 110.66h.97v35.23h-.97zM350.42 103.95h4.83v22.69h-4.83z"/><path fill="#24B29B" d="M352.35 107.32h.97v27.5h-.97zM273.07 125.55h4.83v36.16h-4.83z"/><path fill="#24B29B" d="M275.01 105.21h.97v80.49h-.97zM265.43 157.66h4.83v39h-4.83z"/><path fill="#24B29B" d="M267.37 156.18h.97v35.73h-.97zM172.71 224.15h4.83v6.35h-4.83z"/><path fill="#24B29B" d="M174.64 213.6h.97v44.62h-.97zM103.31 321.31h4.83v31.88h-4.83z"/><path fill="#24B29B" d="M105.25 314.91h.97v38.23h-.97z"/><path fill="#F33" d="M87.9 325.08h4.83v13.76H87.9z"/><path fill="#F33" d="M89.83 323.24h.97v23.1h-.97zM149.65 276.3h4.83v13.76h-4.83z"/><path fill="#F33" d="M151.58 247.86h.97v43.67h-.97zM188.3 212.47h4.83v6.72h-4.83z"/><path fill="#F33" d="M190.23 201.23h.97v21.95h-.97zM203.66 275.73h4.83v10.28h-4.83z"/><path fill="#F33" d="M205.59 268.06h.97v26.45h-.97zM257.79 176.78h4.83v22.56h-4.83z"/><path fill="#F33" d="M259.72 166.48h.97v33.89h-.97zM289.11 113.26h4.83v1.84h-4.83z"/><path fill="#F33" d="M291.04 79.83h.97v42.71h-.97zM296.7 126.67h4.83v5.79h-4.83z"/><path fill="#F33" d="M298.63 121.65h.97v22.97h-.97zM381.6 210.89h4.83v8.96h-4.83z"/><path fill="#F33" d="M383.53 199.14h.97v30h-.97zM404.79 217.62h4.83v8.96h-4.83z"/><path fill="#F33" d="M406.72 199.14h.97v36.73h-.97zM412.51 227.62h4.83v6.21h-4.83z"/><path fill="#F33" d="M414.44 214.82h.97v25.45h-.97zM443.13 171.21h4.83v6.21h-4.83z"/><path fill="#F33" d="M445.06 158.4h.97v20.33h-.97zM420.23 239.04h4.83v11.04h-4.83z"/><path fill="#F33" d="M422.16 229.13h.97v25.45h-.97zM389.33 198.31h4.83v4.97h-4.83z"/><path fill="#F33" d="M391.26 191.8h.97v42.4h-.97zM397.07 231.13h4.83v3.26h-4.83z"/><path fill="#F33" d="M399 225.89h.97v27.84H399zM311.89 101.67h4.83v26.51h-4.83z"/><path fill="#F33" d="M313.82 98.79h.97v32.95h-.97zM358.42 129.07h4.83v17.81h-4.83z"/><path fill="#F33" d="M360.35 113.78h.97v32.81h-.97zM319.48 106.36h4.83v49.22h-4.83z"/><path fill="#F33" d="M321.41 101.02h.97v61.17h-.97zM373.61 173.19h4.83v37.11h-4.83z"/><path fill="#F33" d="M375.54 174.96h.97v37.3h-.97zM451.16 178.74h4.83v44.25h-4.83z"/><path fill="#F33" d="M453.09 176.63h.97v50.07h-.97zM466.35 214.82h4.83v56.2h-4.83z"/><path fill="#F33" d="M468.28 201.58h.97v75.93h-.97zM474.08 275.71h4.83v36.89h-4.83z"/><path fill="#F33" d="M476.01 259.91h.97v62.91h-.97zM512.64 242.19h4.83v30.37h-4.83z"/><path fill="#F33" d="M514.57 247.9h.97v35.68h-.97zM543.65 242.19h4.83v5.71h-4.83z"/><path fill="#F33" d="M545.58 206.62h.97v63.29h-.97zM559.25 222.38h4.83v7.08h-4.83z"/><path fill="#F33" d="M561.18 208.36h.97v24.95h-.97zM605.39 119.44h4.83v22.54h-4.83z"/><path fill="#F33" d="M607.32 115.08h.97v33.58h-.97zM613.39 144.24h4.83v3.22h-4.83z"/><path fill="#F33" d="M615.33 139.88h.97v21.02h-.97zM566.84 230.7h4.83v3.22h-4.83z"/><path fill="#F33" d="M568.77 218.61h.97v28.82h-.97zM536.04 210.68h4.83v45.84h-4.83z"/><path fill="#F33" d="M537.97 185.15h.97v66.92h-.97zM195.75 210.68h4.83V264h-4.83z"/><path fill="#F33" d="M197.69 201.23h.97v65.86h-.97zM118.73 318.27h4.83v21.49h-4.83z"/><path fill="#F33" d="M120.66 299.98h.97v59.95h-.97zM134.15 328.06h4.83v22.22h-4.83z"/><path fill="#F33" d="M136.08 326.74h.97v28.07h-.97zM95.61 334.83h4.83v33.81h-4.83z"/><path fill="#F33" d="M97.54 321.77h.97v48.91h-.97z"/></g><path d="m77.32 256.02 13.67 9.32 8.38 7.92 22.36 8.54 7.92 1.09 6.84 5.28 11.96-3.1 4.97-.94 9-3.26 10.72-9.47L191 256.02l6.17-.81 9.04 1.35 9.12-5.91 10.64-8.11 12.08-8.78 15.8-15.2 5.56-2.62 15.97-16.13 7.68-11.83 7.6-9.2 7.86-6 9.96-9.97 6.84-4.8 13.43-3.56 25.3-16.65 13.94-.92 16.96 11.3 7.76 2.64 8.28 6.97 9.08 5 13.93 9.33 6.97 3.42 15.12-3.42 15.78 5.26 8.28 8.28 14.99 17.88 16.17 10.91h5.79l8.15 3.42h8.28l7.76-1.84 7.1 1.84 13.27 1.32 9.6-1.32h8.02l14.73-8.02 9.47-11.3 7.1-7.37 11.3-9.2 25.38-17.75" stroke="#FF9100" stroke-width=".97"/><path d="m78.53 179.53 42.3 9.21 56.95 15.7 47.74 13.97 61.73 9.55 13.2 2.73 31.19 2.31 39.03 1.39 10.73 1.55h93.88l22.3 1.32 63.74 4.9h15.8l60.64-10.53" stroke="#CC2929" stroke-width="2.9"/><path d="m636.8 187.7-56.31 6.69-41.46-1.33-50.1-1.67-21.7-3.69-38.2.65-13.2-1.13-29.65-.48-31.11.97-40.75 3.89-73.73 8.28H218.1l-63.13-2.16h-15.8L78.53 187.2" stroke="#F33" stroke-width=".97"/><path d="m76.74 278.07 13.57-5.78 18.6-4.02 19.21-5.91h17.22l23-4.05 15.46-3.16 14.94-6.85 15.1-4.39 15.99-6.67 18.61-1.59 4.22-2.1h9.49l29.68-9.66 38.3-8.26 34.95-4.74 6.5-1.76 22.83-2.63 28.28 1.05 11.6-3.51 14.22-6.33 17.4-3.69 25.81-2.98h10.54l7.38-3.34h6.15l15.8-3.86h42.7l10.18-2.46 17.39-6.32 35.48-3.87" stroke="#00C853" stroke-width="1.93"/><path d="m78.64 262.73 19.39 5.42 22.5 4.96 10.39.7 6.34 2.3 19.16-1.15 34.16-10.04 16.38-.8 30.81-9.93 19.39-9.81 4.27-.58 19.27-13.5 13.04-8.65 7.15-2.2 14.43-8.42 16.5-6.12 23.54-11.77 14.88-3.57 40.97 1.84 19.04 3.12 16.39-3.12 16.73.81 21.92 9.35 15.23 4.04h9.12l6.23 2.65h17.2l9.8 1.39h28.85l16.85-4.04 26.66-11.2 22.5-7.96" stroke="#4CAF50" stroke-width=".97"/><path d="m78.47 252.9 19.5 6.32 19.13 5.23 24 9.4 18.78 7.57 16.06 3.61 18.23 1.8 12.64 4.7h27.97l23.29-2.89 29.42-3.6h7.22l39.89-7.59 35.92-13.72 21.66-6.68 13.71-3.79 23.47-3.6L464 235.22l34.12-6.68 10.83-2.35 33.93-4.51 28.52-2.53 43.86-12.81 21.3-3.8" stroke="#2962FF" stroke-width="1.93"/><path d="m79.06 253.57 30.94 6.58 29.59 3.87h24.37l15.47-3.87 24.17-2.32 19.34-1.55 38.49-10.25 16.82-6 23.6-10.44 11.8-4.06 11.8-3.48 26.23-5.4 21.73-3.7 22.43-3.28 26.5 2.32 23.01-5.22h20.5L485 211.8l13.73 1.35 18.37 1.55h61.31l42.93-11.99 16.05-3.87" stroke="#2962FF" stroke-width=".97"/><g style="mix-blend-mode:screen" filter="url(#wvlnvlf4a)"><path d="m77.32 256.02 13.67 9.32 8.38 7.92 22.36 8.54 7.92 1.09 6.84 5.28 11.96-3.1 4.97-.94 9-3.26 10.72-9.47L191 256.02l6.17-.81 9.04 1.35 9.12-5.91 10.64-8.11 12.08-8.78 15.8-15.2 5.56-2.62 15.97-16.13 7.68-11.83 7.6-9.2 7.86-6 9.96-9.97 6.84-4.8 13.43-3.56 25.3-16.65 13.94-.92 16.96 11.3 7.76 2.64 8.28 6.97 9.08 5 13.93 9.33 6.97 3.42 15.12-3.42 15.78 5.26 8.28 8.28 14.99 17.88 16.17 10.91h5.79l8.15 3.42h8.28l7.76-1.84 7.1 1.84 13.27 1.32 9.6-1.32h8.02l14.73-8.02 9.47-11.3 7.1-7.37 11.3-9.2 25.38-17.75" stroke="#CC7014" stroke-width=".97"/><path d="m78.53 179.53 42.3 9.21 56.95 15.7 47.74 13.97 61.73 9.55 13.2 2.73 31.19 2.31 39.03 1.39 10.73 1.55h93.88l22.3 1.32 63.74 4.9h15.8l60.64-10.53" stroke="#801922" stroke-width="2.9"/><path d="m636.8 187.7-56.31 6.69-41.46-1.33-50.1-1.67-21.7-3.69-38.2.65-13.2-1.13-29.65-.48-31.11.97-40.75 3.89-73.73 8.28H218.1l-63.13-2.16h-15.8L78.53 187.2" stroke="#801922" stroke-width=".97"/><path d="m76.74 278.07 13.57-5.78 18.6-4.02 19.21-5.91h17.22l23-4.05 15.46-3.16 14.94-6.85 15.1-4.39 15.99-6.67 18.61-1.59 4.22-2.1h9.49l29.68-9.66 38.3-8.26 34.95-4.74 6.5-1.76 22.83-2.63 28.28 1.05 11.6-3.51 14.22-6.33 17.4-3.69 25.81-2.98h10.54l7.38-3.34h6.15l15.8-3.86h42.7l10.18-2.46 17.39-6.32 35.48-3.87" stroke="#1B5E20" stroke-width="1.93"/><path d="m78.64 262.73 19.39 5.42 22.5 4.96 10.39.7 6.34 2.3 19.16-1.15 34.16-10.04 16.38-.8 30.81-9.93 19.39-9.81 4.27-.58 19.27-13.5 13.04-8.65 7.15-2.2 14.43-8.42 16.5-6.12 23.54-11.77 14.88-3.57 40.97 1.84 19.04 3.12 16.39-3.12 16.73.81 21.92 9.35 15.23 4.04h9.12l6.23 2.65h17.2l9.8 1.39h28.85l16.85-4.04 26.66-11.2 22.5-7.96" stroke="#1B5E20" stroke-width=".97"/><path d="m78.47 252.9 19.5 6.32 19.13 5.23 24 9.4 18.78 7.57 16.06 3.61 18.23 1.8 12.64 4.7h27.97l23.29-2.89 29.42-3.6h7.22l39.89-7.59 35.92-13.72 21.66-6.68 13.71-3.79 23.47-3.6L464 235.22l34.12-6.68 10.83-2.35 33.93-4.51 28.52-2.53 43.86-12.81 21.3-3.8" stroke="#0C3299" stroke-width="1.93"/><path d="m79.06 253.57 30.94 6.58 29.59 3.87h24.37l15.47-3.87 24.17-2.32 19.34-1.55 38.49-10.25 16.82-6 23.6-10.44 11.8-4.06 11.8-3.48 24.56-8.9 23.4-4.06 22.43-2.32 26.5 2.32 23.01-2.32h20.5L485 211.8l13.73 1.35 18.37 1.55h61.31l42.93-11.99 16.05-3.87" stroke="#0C3299" stroke-width=".97"/></g><g style="mix-blend-mode:screen" filter="url(#xvlnvlf4a)"><path d="m77.32 256.02 13.67 9.32 8.38 7.92 22.36 8.54 7.92 1.09 6.84 5.28 11.96-3.1 4.97-.94 9-3.26 10.72-9.47L191 256.02l6.17-.81 9.04 1.35 9.12-5.91 10.64-8.11 12.08-8.78 15.8-15.2 5.56-2.62 15.97-16.13 7.68-11.83 7.6-9.2 7.86-6 9.96-9.97 6.84-4.8 13.43-3.56 25.3-16.65 13.94-.92 16.96 11.3 7.76 2.64 8.28 6.97 9.08 5 13.93 9.33 6.97 3.42 15.12-3.42 15.78 5.26 8.28 8.28 14.99 17.88 16.17 10.91h5.79l8.15 3.42h8.28l7.76-1.84 7.1 1.84 13.27 1.32 9.6-1.32h8.02l14.73-8.02 9.47-11.3 7.1-7.37 11.3-9.2 25.38-17.75" stroke="#CC7014" stroke-width=".97"/><path d="m78.53 179.53 42.3 9.21 56.95 15.7 47.74 13.97 61.73 9.55 13.2 2.73 31.19 2.31 39.03 1.39 10.73 1.55h93.88l22.3 1.32 63.74 4.9h15.8l60.64-10.53" stroke="#801922" stroke-width="2.9"/><path d="m636.8 187.7-56.31 6.69-41.46-1.33-50.1-1.67-21.7-3.69-38.2.65-13.2-1.13-29.65-.48-31.11.97-40.75 3.89-73.73 8.28H218.1l-63.13-2.16h-15.8L78.53 187.2" stroke="#801922" stroke-width=".97"/><path d="m76.74 278.07 13.57-5.78 18.6-4.02 19.21-5.91h17.22l23-4.05 15.46-3.16 14.94-6.85 15.1-4.39 15.99-6.67 18.61-1.59 4.22-2.1h9.49l29.68-9.66 38.3-8.26 34.95-4.74 6.5-1.76 22.83-2.63 28.28 1.05 11.6-3.51 14.22-6.33 17.4-3.69 25.81-2.98h10.54l7.38-3.34h6.15l15.8-3.86h42.7l10.18-2.46 17.39-6.32 35.48-3.87" stroke="#1B5E20" stroke-width="1.93"/><path d="m78.64 262.73 19.39 5.42 22.5 4.96 10.39.7 6.34 2.3 19.16-1.15 34.16-10.04 16.38-.8 30.81-9.93 19.39-9.81 4.27-.58 19.27-13.5 13.04-8.65 7.15-2.2 14.43-8.42 16.5-6.12 23.54-11.77 14.88-3.57 40.97 1.84 19.04 3.12 16.39-3.12 16.73.81 21.92 9.35 15.23 4.04h9.12l6.23 2.65h17.2l9.8 1.39h28.85l16.85-4.04 26.66-11.2 22.5-7.96" stroke="#1B5E20" stroke-width=".97"/><path d="m78.47 252.9 19.5 6.32 19.13 5.23 24 9.4 18.78 7.57 16.06 3.61 18.23 1.8 12.64 4.7h27.97l23.29-2.89 29.42-3.6h7.22l39.89-7.59 35.92-13.72 21.66-6.68 13.71-3.79 23.47-3.6L464 235.22l34.12-6.68 10.83-2.35 33.93-4.51 28.52-2.53 43.86-12.81 21.3-3.8" stroke="#0C3299" stroke-width="1.93"/><path d="m79.06 253.57 30.94 6.58 29.59 3.87h24.37l15.47-3.87 24.17-2.32 19.34-1.55 38.49-10.25 16.82-6 23.6-10.44 11.8-4.06 11.8-3.48 24.56-8.9 23.4-4.06 22.43-2.32 26.5 2.32 23.01-2.32h20.5L485 211.8l13.73 1.35 18.37 1.55h61.31l42.93-11.99 16.05-3.87" stroke="#0C3299" stroke-width=".97"/></g></g></g></g></g><defs><linearGradient id="dvlnvlf4a" x1="361" y1="20" x2="361" y2="421" gradientUnits="userSpaceOnUse"><stop stop-color="#191B1F"/><stop offset="1" stop-color="#0B0B0C"/></linearGradient><linearGradient id="fvlnvlf4a" x1="200.62" y1="-52.41" x2="456.56" y2="296.74" gradientUnits="userSpaceOnUse"><stop stop-color="#181A1E"/><stop offset=".6"/></linearGradient><linearGradient id="gvlnvlf4a" x1="89.33" y1="10.96" x2="420.57" y2="463.81" gradientUnits="userSpaceOnUse"><stop stop-color="#fff"/><stop offset="1" stop-opacity="0"/></linearGradient><linearGradient id="ivlnvlf4a" x1="808.53" y1="58.52" x2="211.75" y2="49.76" gradientUnits="userSpaceOnUse"><stop stop-color="#434651" stop-opacity="0"/><stop offset="1" stop-color="#434651"/></linearGradient><linearGradient id="jvlnvlf4a" x1="808.53" y1="90.52" x2="211.75" y2="81.76" gradientUnits="userSpaceOnUse"><stop stop-color="#434651" stop-opacity="0"/><stop offset="1" stop-color="#434651"/></linearGradient><linearGradient id="kvlnvlf4a" x1="808.53" y1="122.52" x2="211.75" y2="113.76" gradientUnits="userSpaceOnUse"><stop stop-color="#434651" stop-opacity="0"/><stop offset="1" stop-color="#434651"/></linearGradient><linearGradient id="lvlnvlf4a" x1="808.53" y1="154.52" x2="211.75" y2="145.76" gradientUnits="userSpaceOnUse"><stop stop-color="#434651" stop-opacity="0"/><stop offset="1" stop-color="#434651"/></linearGradient><linearGradient id="mvlnvlf4a" x1="808.53" y1="186.52" x2="211.75" y2="177.76" gradientUnits="userSpaceOnUse"><stop stop-color="#434651" stop-opacity="0"/><stop offset="1" stop-color="#434651"/></linearGradient><linearGradient id="nvlnvlf4a" x1="808.53" y1="218.52" x2="211.75" y2="209.76" gradientUnits="userSpaceOnUse"><stop stop-color="#434651" stop-opacity="0"/><stop offset="1" stop-color="#434651"/></linearGradient><linearGradient id="ovlnvlf4a" x1="808.53" y1="250.52" x2="211.75" y2="241.76" gradientUnits="userSpaceOnUse"><stop stop-color="#434651" stop-opacity="0"/><stop offset="1" stop-color="#434651"/></linearGradient><linearGradient id="pvlnvlf4a" x1="808.53" y1="282.52" x2="211.75" y2="273.76" gradientUnits="userSpaceOnUse"><stop stop-color="#434651" stop-opacity="0"/><stop offset="1" stop-color="#434651"/></linearGradient><linearGradient id="qvlnvlf4a" x1="808.53" y1="314.52" x2="211.75" y2="305.76" gradientUnits="userSpaceOnUse"><stop stop-color="#434651" stop-opacity="0"/><stop offset="1" stop-color="#434651"/></linearGradient><linearGradient id="rvlnvlf4a" x1="808.53" y1="346.52" x2="211.75" y2="337.76" gradientUnits="userSpaceOnUse"><stop stop-color="#434651" stop-opacity="0"/><stop offset="1" stop-color="#434651"/></linearGradient><linearGradient id="svlnvlf4a" x1="364.33" y1="371" x2="364.33" y2="288.71" gradientUnits="userSpaceOnUse"><stop/><stop offset="1" stop-opacity="0"/></linearGradient><linearGradient id="uvlnvlf4a" x1="651.92" y1="178.32" x2="71.39" y2="178.32" gradientUnits="userSpaceOnUse"><stop offset=".03" stop-color="#fff" stop-opacity="0"/><stop offset=".17" stop-color="#fff"/><stop offset=".82" stop-color="#fff"/><stop offset=".98" stop-color="#fff" stop-opacity="0"/></linearGradient><clipPath id="avlnvlf4a"><path fill="#fff" d="M0 0h724v371H0z"/></clipPath><clipPath id="bvlnvlf4a"><path fill="#fff" d="M0 0h724v371H0z"/></clipPath><clipPath id="cvlnvlf4a"><path fill="#fff" transform="translate(53 20)" d="M0 0h618v441H0z"/></clipPath><clipPath id="hvlnvlf4a"><rect x="57.99" y="21" width="614.9" height="350" rx="24" fill="#fff"/></clipPath><filter id="evlnvlf4a" x="-22.02" y="-89" width="772.99" height="528" filterUnits="userSpaceOnUse" color-interpolation-filters="sRGB"><feFlood flood-opacity="0" result="BackgroundImageFix"/><feGaussianBlur in="BackgroundImageFix" stdDeviation="22"/><feComposite in2="SourceAlpha" operator="in" result="effect1_backgroundBlur_575_361494"/><feColorMatrix in="SourceAlpha" values="0 0 0 0 0 0 0 0 0 0 0 0 0 0 0 0 0 0 127 0" result="hardAlpha"/><feOffset dy="-30"/><feGaussianBlur stdDeviation="40"/><feComposite in2="hardAlpha" operator="out"/><feColorMatrix values="0 0 0 0 0 0 0 0 0 0 0 0 0 0 0 0 0 0 1 0"/><feBlend in2="effect1_backgroundBlur_575_361494" result="effect2_dropShadow_575_361494"/><feBlend in="SourceGraphic" in2="effect2_dropShadow_575_361494" result="shape"/></filter><filter id="vvlnvlf4a" x="6.77" y="-2.02" width="700.18" height="446.12" filterUnits="userSpaceOnUse" color-interpolation-filters="sRGB"><feFlood flood-opacity="0" result="BackgroundImageFix"/><feBlend in="SourceGraphic" in2="BackgroundImageFix" result="shape"/><feGaussianBlur stdDeviation="36.71" result="effect1_foregroundBlur_575_361494"/></filter><filter id="wvlnvlf4a" x="40.62" y="100.65" width="633.13" height="227.59" filterUnits="userSpaceOnUse" color-interpolation-filters="sRGB"><feFlood flood-opacity="0" result="BackgroundImageFix"/><feBlend in="SourceGraphic" in2="BackgroundImageFix" result="shape"/><feGaussianBlur stdDeviation="17.87" result="effect1_foregroundBlur_575_361494"/></filter><filter id="xvlnvlf4a" x="40.62" y="100.65" width="633.13" height="227.59" filterUnits="userSpaceOnUse" color-interpolation-filters="sRGB"><feFlood flood-opacity="0" result="BackgroundImageFix"/><feBlend in="SourceGraphic" in2="BackgroundImageFix" result="shape"/><feGaussianBlur stdDeviation="17.87" result="effect1_foregroundBlur_575_361494"/></filter></defs></svg>