<svg width="684" height="340" viewBox="0 0 684 340" fill="none" xmlns="http://www.w3.org/2000/svg"><g clip-path="url(#aywnarsqp)"><path fill="#000" d="M0 0h684v340H0z"/><g clip-path="url(#bywnarsqp)"><path d="M187 12a12 12 0 0 1 12-12h473a12 12 0 0 1 12 12v328H187V12Z" fill="url(#cywnarsqp)"/><path d="M187 12a12 12 0 0 1 12-12h473a12 12 0 0 1 12 12v328H187V12Z" fill="url(#dywnarsqp)" fill-opacity=".4"/><path fill-rule="evenodd" clip-rule="evenodd" d="M607.5 31a1.5 1.5 0 1 0 0 3 1.5 1.5 0 0 0 0-3Zm-2.5 1.5a2.5 2.5 0 1 1 5 0 2.5 2.5 0 0 1-5 0Zm9.5-1.5a1.5 1.5 0 1 0 0 3 1.5 1.5 0 0 0 0-3Zm-2.5 1.5a2.5 2.5 0 1 1 5 0 2.5 2.5 0 0 1-5 0Zm9.5-1.5a1.5 1.5 0 1 0 0 3 1.5 1.5 0 0 0 0-3Zm-2.5 1.5a2.5 2.5 0 1 1 5 0 2.5 2.5 0 0 1-5 0ZM655.7 25.7l-.7-.7-6.65 6.65-6.64-6.65-.71.7 6.65 6.65L641 39l.7.7 6.65-6.64 6.65 6.65.7-.71-6.64-6.65 6.65-6.64Z" fill="#D1D4DC"/><rect opacity=".3" x="207.5" y="211.5" width="456" height="39" rx="7.5" stroke="#B2B5BE"/><path d="M208.87 196.48v-1.1h2.8c.7 0 1.25-.18 1.63-.54a2 2 0 0 0 .58-1.53 2 2 0 0 0-.58-1.53 2.3 2.3 0 0 0-1.64-.55h-2.79v-1.1h3.1c.63 0 1.17.14 1.65.4.47.27.84.64 1.11 1.11.28.47.41 1.02.41 1.65v.01c0 .63-.13 1.18-.4 1.66-.28.47-.65.85-1.12 1.12-.48.26-1.02.4-1.64.4h-3.1Zm-.61 3.52v-9.86h1.23V200h-1.23Zm8.79 0v-7.37h1.19v1.1h.1c.15-.4.38-.7.72-.9.34-.22.76-.33 1.25-.33a4.54 4.54 0 0 1 .6.05v1.15a3.36 3.36 0 0 0-.73-.06c-.38 0-.72.07-1 .22-.3.15-.53.36-.7.63-.16.27-.24.58-.24.94V200h-1.2Zm5.4 0v-7.37h1.18V200h-1.19Zm.6-8.8a.8.8 0 0 1-.59-.23.8.8 0 0 1-.24-.58.8.8 0 0 1 .24-.58.8.8 0 0 1 .58-.24c.23 0 .43.08.59.24.16.16.24.35.24.58a.8.8 0 0 1-.25.58.8.8 0 0 1-.58.24Zm5.88 8.93c-.7 0-1.29-.16-1.8-.47-.5-.32-.9-.76-1.17-1.34a4.61 4.61 0 0 1-.42-2.03c0-.77.14-1.44.41-2a3.1 3.1 0 0 1 2.97-1.79c.6 0 1.11.1 1.55.31a2.74 2.74 0 0 1 1.53 2.04l.01.04h-1.18l-.01-.02c-.1-.37-.3-.68-.62-.93a2 2 0 0 0-1.28-.39 1.96 1.96 0 0 0-1.9 1.29c-.17.4-.26.88-.26 1.44v.01c0 .57.09 1.06.27 1.48.17.42.43.74.75.97.32.22.7.34 1.14.34.5 0 .9-.11 1.22-.32.31-.22.54-.53.67-.94l.02-.04H232l-.01.07c-.1.44-.28.83-.53 1.18-.26.34-.6.61-1.02.8-.41.2-.92.3-1.51.3Zm7.86 0a3.08 3.08 0 0 1-2.97-1.78 4.67 4.67 0 0 1-.4-2v-.01c0-.77.13-1.43.4-2 .27-.58.66-1.03 1.15-1.35.5-.33 1.08-.49 1.75-.49a2.99 2.99 0 0 1 2.83 1.76c.26.56.39 1.2.39 1.93v.47h-5.91v-.95h5.3l-.59.86v-.47c0-.57-.09-1.05-.26-1.42a1.83 1.83 0 0 0-1.77-1.12c-.4 0-.75.1-1.07.3-.3.19-.55.47-.73.85a3.2 3.2 0 0 0-.28 1.4v.46c0 .53.1.98.27 1.35a1.98 1.98 0 0 0 1.92 1.15c.33 0 .62-.04.87-.14.24-.09.45-.2.6-.34.17-.15.28-.29.34-.44l.03-.06h1.19l-.02.06c-.06.25-.17.5-.34.73a2.75 2.75 0 0 1-1.53 1.09c-.35.1-.74.16-1.17.16ZM436.87 196.48v-1.1h2.8c.7 0 1.25-.18 1.63-.54a2 2 0 0 0 .58-1.53 2 2 0 0 0-.58-1.53 2.3 2.3 0 0 0-1.64-.55h-2.79v-1.1h3.1c.63 0 1.17.14 1.65.4.47.27.84.64 1.11 1.11.27.47.41 1.02.41 1.65v.01c0 .63-.13 1.18-.4 1.66-.28.47-.65.85-1.12 1.12-.48.26-1.02.4-1.64.4h-3.1Zm-.61 3.52v-9.86h1.23V200h-1.23Zm8.81 0v-7.37h1.2V200h-1.2Zm.6-8.8a.81.81 0 0 1-.82-.81.8.8 0 0 1 .24-.58.8.8 0 0 1 .59-.24.8.8 0 0 1 .58.24.8.8 0 0 1 .24.58.8.8 0 0 1-.24.58.8.8 0 0 1-.58.24Zm2.87 11.26v-9.83h1.2v1.18h.1a2.44 2.44 0 0 1 1.35-1.15c.29-.1.6-.16.95-.16.62 0 1.17.16 1.63.48.46.31.82.76 1.08 1.33.25.56.38 1.23.38 2v.01c0 .77-.13 1.44-.38 2.01a3.06 3.06 0 0 1-1.09 1.33c-.45.31-1 .47-1.62.47a2.73 2.73 0 0 1-1.75-.6c-.23-.2-.41-.43-.55-.7h-.1v3.63h-1.2Zm3.32-3.38a2 2 0 0 0 1.16-.33c.32-.22.56-.54.73-.95.18-.42.26-.9.26-1.48v-.01c0-.58-.08-1.07-.26-1.48a2.04 2.04 0 0 0-.73-.94c-.32-.22-.7-.34-1.15-.34-.45 0-.84.11-1.16.34-.32.22-.57.54-.75.95-.17.4-.25.9-.25 1.47v.01c0 .57.08 1.06.25 1.47.18.41.43.73.75.95.32.22.7.34 1.16.34Zm7.8 1.05c-.55 0-1.04-.08-1.46-.25-.41-.16-.75-.4-1-.7-.26-.3-.4-.65-.45-1.06h1.22c.1.3.3.55.58.74.3.18.68.28 1.14.28.34 0 .63-.05.88-.14.26-.1.46-.24.6-.4a.9.9 0 0 0 .22-.6v-.02c0-.25-.1-.46-.3-.63-.2-.18-.53-.32-.98-.43l-1.15-.28a4.2 4.2 0 0 1-1.13-.42c-.3-.18-.52-.4-.66-.65a1.89 1.89 0 0 1-.2-.92c0-.41.11-.78.35-1.1.24-.33.57-.58.98-.77.42-.19.88-.28 1.4-.28.52 0 .97.08 1.37.25.4.16.72.38.96.68.25.3.4.65.45 1.05h-1.16a1.2 1.2 0 0 0-.54-.71 1.94 1.94 0 0 0-1.08-.28 2 2 0 0 0-.78.15c-.23.09-.41.21-.54.38a.89.89 0 0 0-.2.57v.02c0 .16.04.3.13.43.08.13.22.24.4.34.18.1.42.18.7.25l1.14.28c.46.1.85.25 1.15.43.3.17.53.39.68.65.15.25.23.55.23.9v.02c0 .44-.13.82-.4 1.16-.25.33-.6.6-1.05.78-.44.19-.95.28-1.5.28Z" fill="#fff" fill-opacity=".5"/><path d="M222.7 236v-8.5h-.1l-2.51 1.82v-1.3l2.62-1.88h1.22V236h-1.23Zm6 0 4.58-8.67v-.1h-5.45v-1.1h6.7v1.15L230 236h-1.3Zm11.72 0v-8.5h-.11l-2.51 1.82v-1.3l2.62-1.88h1.23V236h-1.24Zm6.23.07a.87.87 0 0 1-.63-.26.87.87 0 0 1-.26-.63c0-.25.09-.46.26-.63a.87.87 0 0 1 .63-.26c.24 0 .45.09.63.26.17.17.25.38.25.63 0 .24-.08.45-.25.63a.86.86 0 0 1-.63.26Zm6.51.16c-.72 0-1.35-.2-1.87-.63a3.98 3.98 0 0 1-1.19-1.78 8.14 8.14 0 0 1-.41-2.75v-.01c0-1.06.13-1.97.41-2.74.28-.77.68-1.37 1.2-1.79a2.89 2.89 0 0 1 1.86-.63c.73 0 1.36.21 1.88.63.52.42.92 1.02 1.2 1.79.28.77.42 1.68.42 2.74v.01a8 8 0 0 1-.43 2.75 3.95 3.95 0 0 1-1.2 1.78 2.9 2.9 0 0 1-1.87.63Zm0-1.07c.48 0 .88-.17 1.22-.5.33-.33.59-.8.77-1.41.18-.62.27-1.34.27-2.18v-.01c0-.84-.09-1.56-.27-2.17a3.15 3.15 0 0 0-.78-1.4c-.33-.34-.73-.5-1.2-.5s-.88.16-1.21.5c-.34.32-.6.79-.77 1.4-.18.6-.27 1.33-.27 2.17v.01c0 .84.1 1.56.27 2.18.18.6.43 1.08.77 1.41.33.33.73.5 1.2.5Zm8.9 1.07c-.62 0-1.16-.12-1.64-.36a2.96 2.96 0 0 1-1.65-2.4v-.07h1.18v.05a1.88 1.88 0 0 0 1.09 1.47c.3.15.65.23 1.03.23.43 0 .81-.1 1.14-.3.33-.19.6-.46.77-.8.19-.34.28-.73.28-1.17v-.02c0-.44-.09-.82-.28-1.16-.18-.34-.44-.6-.77-.8-.32-.2-.7-.29-1.12-.29-.33 0-.63.05-.9.15a2.12 2.12 0 0 0-1.18 1.04h-1.06l.5-5.66h5.47v1.1h-4.5l-.32 3.33h.11c.15-.22.32-.4.53-.56a2.83 2.83 0 0 1 1.56-.47 3.08 3.08 0 0 1 2.76 1.6c.27.5.4 1.06.4 1.7v.01c0 .67-.14 1.25-.43 1.76-.3.5-.7.9-1.21 1.2-.51.28-1.1.42-1.76.42ZM450.47 236l3.64-9.86h.94v1.59h-.39l-2.9 8.27h-1.29Zm1.65-2.82.38-1.05h4.46l.38 1.05h-5.22Zm5.55 2.82-2.9-8.27v-1.6h.56l3.63 9.87h-1.29Zm6.3.23c-.73 0-1.36-.11-1.9-.35a3.21 3.21 0 0 1-1.27-.97c-.3-.41-.49-.89-.54-1.42v-.07h1.23v.07c.04.33.16.61.38.86.22.23.52.42.89.55a3.78 3.78 0 0 0 2.46-.01c.35-.15.63-.35.83-.6.2-.26.3-.55.3-.89 0-.41-.15-.76-.45-1.04-.3-.28-.8-.5-1.47-.65l-1.1-.24a5.46 5.46 0 0 1-1.61-.59 2.55 2.55 0 0 1-.92-.92c-.2-.37-.3-.79-.3-1.26 0-.55.16-1.04.45-1.46.3-.42.7-.74 1.22-.98a4.33 4.33 0 0 1 1.8-.36c.66 0 1.24.12 1.75.36.5.23.9.55 1.2.94.3.4.47.84.5 1.34v.1h-1.22l-.02-.1c-.04-.29-.16-.55-.35-.77-.2-.23-.45-.4-.77-.54-.32-.13-.69-.2-1.12-.2-.4 0-.78.07-1.1.2-.33.13-.6.31-.8.55-.18.24-.28.53-.28.88 0 .27.06.5.2.7.12.21.32.4.6.54.27.15.63.28 1.08.38l1.1.24a5.9 5.9 0 0 1 1.66.6c.42.23.72.53.91.88.2.35.3.76.3 1.23 0 .62-.15 1.15-.46 1.6-.3.45-.72.8-1.27 1.04-.54.24-1.18.36-1.92.36Zm6.82-3.52-.07-1.78h.31l4.33-4.8h1.54l-4.08 4.41-.57.56-1.46 1.6Zm-1.1 3.29v-9.86h1.24V236h-1.24Zm5.98 0-3.69-4.91.85-.86 4.43 5.77h-1.6Z" fill="#fff"/><path d="M207 78a12 12 0 0 1 12-12h216v62H219a12 12 0 0 1-12-12V78Z" fill="#DF484C"/><path d="M436 66h216a12 12 0 0 1 12 12v38a12 12 0 0 1-12 12H436V66Z" fill="#2D52DD"/><path d="M412 105a4 4 0 0 1 4-4h38a4 4 0 0 1 4 4v14a4 4 0 0 1-4 4h-38a4 4 0 0 1-4-4v-14Z" fill="#1B1B1B"/><path d="M208.41 38V26.73H210l6.22 8.8-1.2-.62h.89v-8.18h1.7V38h-1.58l-6.22-8.8 1.2.62h-.9V38h-1.7Zm10.85 0 4.07-11.27h1.41v1.97h-.53l-3.1 9.3h-1.85Zm1.96-3.05.5-1.4h5.12l.5 1.4h-6.12Zm6.23 3.05-3.1-9.3v-1.97h.88L229.29 38h-1.84Zm7.3.27c-.86 0-1.6-.13-2.23-.4a3.62 3.62 0 0 1-1.49-1.12 3.1 3.1 0 0 1-.62-1.66l-.01-.1h1.73v.08c.04.34.17.63.4.88.24.25.55.45.94.59a4.03 4.03 0 0 0 2.62-.02c.37-.15.66-.36.86-.62.22-.27.32-.57.32-.92 0-.44-.16-.8-.49-1.08a3.65 3.65 0 0 0-1.6-.67l-1.24-.26a6.2 6.2 0 0 1-1.87-.69c-.48-.29-.83-.65-1.06-1.07-.23-.42-.34-.9-.34-1.46 0-.66.17-1.23.52-1.73s.83-.88 1.44-1.15a5.12 5.12 0 0 1 2.12-.42c.8 0 1.5.14 2.09.42.6.27 1.07.64 1.41 1.1.35.48.54 1 .59 1.6v.1h-1.7l-.02-.1a1.6 1.6 0 0 0-.38-.83c-.2-.24-.48-.42-.83-.56a3 3 0 0 0-1.18-.2c-.44 0-.83.06-1.17.2a1.9 1.9 0 0 0-.82.57c-.2.25-.3.55-.3.9v.01c0 .28.07.53.2.75.15.21.37.4.67.56.3.16.7.29 1.18.39l1.23.27c.79.17 1.42.4 1.91.67.5.27.85.61 1.07 1.02.23.4.35.88.35 1.44 0 .72-.18 1.35-.53 1.87a3.4 3.4 0 0 1-1.5 1.21c-.64.29-1.4.43-2.28.43Zm6.28-.27V26.73h4.07a5.8 5.8 0 0 1 2.87.66c.8.44 1.4 1.08 1.81 1.91.42.84.63 1.85.63 3.03v.01c0 1.2-.2 2.21-.63 3.06a4.41 4.41 0 0 1-1.81 1.94c-.79.44-1.74.66-2.87.66h-4.07Zm1.75-1.52h2.13c.78 0 1.45-.16 2-.48.56-.32.98-.8 1.27-1.4.3-.62.44-1.36.44-2.23v-.02c0-.86-.15-1.6-.45-2.22a3.14 3.14 0 0 0-1.26-1.4 3.9 3.9 0 0 0-2-.49h-2.13v8.24Zm8.28 1.52 4.07-11.27h1.42v1.97h-.53L252.9 38h-1.85Zm1.97-3.05.49-1.4h5.13l.5 1.4h-6.12Zm6.22 3.05-3.1-9.3v-1.97h.88L261.1 38h-1.85Zm7.76.27a4.74 4.74 0 0 1-4.63-2.77 7.21 7.21 0 0 1-.64-3.13v-.02c0-1.21.22-2.26.64-3.14a4.75 4.75 0 0 1 1.82-2.04 5.3 5.3 0 0 1 2.8-.72c1.1 0 2.03.24 2.81.72a4.7 4.7 0 0 1 1.82 2.05c.42.88.64 1.92.64 3.13v.02c0 1.2-.21 2.24-.64 3.13a4.73 4.73 0 0 1-1.82 2.05c-.78.48-1.72.72-2.8.72Zm0-1.55a3.17 3.17 0 0 0 3.05-2.06c.28-.65.42-1.42.42-2.3 0-.9-.14-1.66-.42-2.31a3.4 3.4 0 0 0-1.2-1.51A3.2 3.2 0 0 0 267 28c-.7 0-1.32.17-1.84.53-.52.35-.92.86-1.2 1.5a5.68 5.68 0 0 0-.44 2.31v.02c0 .87.14 1.64.42 2.3.28.65.68 1.15 1.2 1.51a3.2 3.2 0 0 0 1.86.54Zm2.98 2.5-3.4-4.63h1.81l3.4 4.63H270Zm5.44-1.1c-.32 0-.6-.1-.82-.33-.22-.22-.33-.5-.33-.8a1.13 1.13 0 0 1 1.15-1.14 1.11 1.11 0 0 1 1.15 1.13c0 .32-.1.59-.33.8-.22.23-.49.34-.82.34Zm0-5.9c-.32 0-.6-.11-.82-.34-.22-.22-.33-.49-.33-.8a1.13 1.13 0 0 1 1.15-1.14 1.11 1.11 0 0 1 1.15 1.14c0 .31-.1.58-.33.8-.22.23-.49.34-.82.34Zm6.8 5.78 4.06-11.27h1.42v1.97h-.54l-3.1 9.3h-1.85Zm1.95-3.05.5-1.4h5.13l.49 1.4h-6.12Zm6.23 3.05-3.1-9.3v-1.97h.88L292.25 38h-1.84Zm2.62 0 4.07-11.27h1.41v1.97h-.53l-3.11 9.3h-1.84Zm1.96-3.05.49-1.4h5.13l.5 1.4h-6.12ZM301.2 38l-3.1-9.3v-1.97h.88L303.06 38h-1.85Zm4.36-3.85v-1.47h3.08c.76 0 1.35-.2 1.77-.59.42-.4.63-.94.63-1.64v-.01c0-.71-.21-1.26-.63-1.65-.42-.4-1-.59-1.77-.59h-3.08v-1.47h3.52c.74 0 1.39.15 1.94.47.57.3 1 .73 1.33 1.3.31.54.47 1.19.47 1.92v.02a3.9 3.9 0 0 1-.47 1.94c-.32.56-.76 1-1.33 1.3-.55.31-1.2.47-1.94.47h-3.52ZM304.7 38V26.73h1.75V38h-1.75Zm10.07 0V26.73h1.75v9.75h5.29V38h-7.04Zm8.44 2.93.68-4.6h1.82l-1.3 4.6h-1.2ZM335.33 38v-9.76h-3.55v-1.51h8.84v1.51h-3.55V38h-1.75Zm5.84 0v-8.48h1.7v1.28h.13c.15-.46.41-.8.8-1.06.38-.25.85-.37 1.42-.37a3.63 3.63 0 0 1 .74.08V31a4.55 4.55 0 0 0-.92-.1c-.43 0-.8.09-1.14.25-.32.17-.57.4-.76.7a2 2 0 0 0-.28 1.07V38h-1.7Zm8.37.14c-.54 0-1.02-.1-1.45-.3a2.41 2.41 0 0 1-1.37-2.22v-.02c0-.5.13-.94.37-1.3.25-.36.61-.64 1.08-.85.47-.2 1.05-.33 1.72-.37l3.13-.19v1.2l-2.9.18c-.58.04-1.01.16-1.29.38-.27.2-.41.5-.41.88v.02c0 .38.15.69.44.91.3.22.68.33 1.13.33.42 0 .8-.08 1.12-.25.34-.17.6-.4.79-.69.18-.29.28-.62.28-.98V32.2c0-.47-.15-.83-.44-1.08-.29-.25-.71-.37-1.28-.37-.48 0-.86.08-1.17.25-.3.17-.5.4-.59.7l-.01.03h-1.64l.01-.06c.07-.47.25-.87.55-1.22.31-.35.71-.62 1.2-.8.5-.2 1.08-.3 1.72-.3.71 0 1.32.12 1.81.35.5.22.88.54 1.13.97.26.42.4.93.4 1.53V38h-1.7v-1.2h-.12a2.67 2.67 0 0 1-1.48 1.18c-.31.1-.66.16-1.03.16Zm9.49 0c-.71 0-1.33-.18-1.86-.53a3.52 3.52 0 0 1-1.23-1.52 5.76 5.76 0 0 1-.43-2.32v-.02c0-.9.15-1.67.43-2.33a3.23 3.23 0 0 1 3.09-2.05 3.13 3.13 0 0 1 2 .7c.25.22.46.48.6.79h.13v-4.67h1.7V38h-1.7v-1.34h-.12c-.17.31-.38.58-.63.8-.26.22-.55.39-.89.5-.33.12-.7.18-1.1.18Zm.48-1.45c.47 0 .88-.12 1.22-.35.35-.24.6-.57.8-1.01.17-.44.26-.97.26-1.56v-.02c0-.6-.09-1.13-.28-1.56a2.2 2.2 0 0 0-.79-1.01 2.04 2.04 0 0 0-1.2-.36c-.48 0-.88.12-1.23.36-.33.23-.6.57-.78 1-.17.44-.26.96-.26 1.57v.02c0 .6.09 1.12.26 1.56.19.44.45.77.78 1 .35.24.75.36 1.22.36ZM365.7 38v-8.48h1.7V38h-1.7Zm.86-10c-.3 0-.55-.1-.75-.31-.21-.21-.32-.46-.32-.75 0-.3.1-.54.31-.74.21-.21.46-.32.75-.32.3 0 .55.1.75.32.21.2.32.45.32.74s-.1.54-.31.75c-.21.2-.46.31-.75.31Zm2.98 10v-8.48h1.7v1.28h.13c.2-.46.51-.81.92-1.07.4-.25.92-.38 1.54-.38.95 0 1.68.27 2.19.82.5.55.75 1.33.75 2.34V38h-1.7v-5.1c0-.7-.15-1.23-.44-1.57-.3-.35-.75-.53-1.38-.53-.41 0-.77.1-1.07.28-.3.18-.54.43-.7.76-.17.33-.25.73-.25 1.18V38h-1.7Zm12.86 3c-.72 0-1.34-.1-1.88-.3-.52-.2-.94-.48-1.25-.83-.3-.36-.5-.77-.56-1.24v-.01h1.73v.01c.08.3.28.53.62.72.34.19.8.28 1.36.28.7 0 1.24-.16 1.63-.47.4-.32.6-.77.6-1.34v-1.66h-.13c-.17.3-.38.56-.64.78-.26.21-.56.37-.9.48-.33.11-.69.17-1.08.17-.72 0-1.34-.18-1.88-.52a3.44 3.44 0 0 1-1.21-1.44 5.04 5.04 0 0 1-.43-2.11v-.02c0-.8.15-1.52.43-2.14a3.34 3.34 0 0 1 3.13-2c.4 0 .76.07 1.08.2a2.76 2.76 0 0 1 1.52 1.35h.1v-1.4h1.7v8.32a2.9 2.9 0 0 1-1.85 2.77c-.59.26-1.28.4-2.1.4Zm-.02-4.82c.48 0 .89-.11 1.23-.34.34-.23.6-.54.79-.94.19-.4.28-.87.28-1.4 0-.53-.1-1-.28-1.4a2.2 2.2 0 0 0-.79-.95 2.17 2.17 0 0 0-1.23-.35c-.48 0-.9.12-1.23.35a2.2 2.2 0 0 0-.77.95c-.17.4-.26.87-.26 1.4 0 .53.09 1 .26 1.4.18.4.44.71.77.94.34.23.75.34 1.23.34ZM223.23 91.27c-.85 0-1.6-.13-2.22-.4a3.62 3.62 0 0 1-1.5-1.12 3.1 3.1 0 0 1-.62-1.66v-.1h1.72v.08c.04.34.18.63.4.88.24.25.55.45.94.59a4.02 4.02 0 0 0 2.62-.02c.37-.15.66-.36.87-.62.21-.27.32-.57.32-.92 0-.44-.17-.8-.5-1.08a3.65 3.65 0 0 0-1.6-.67l-1.24-.26a6.2 6.2 0 0 1-1.86-.69c-.48-.29-.84-.65-1.07-1.07-.23-.42-.34-.9-.34-1.46 0-.66.18-1.23.52-1.73.35-.5.83-.88 1.45-1.15a5.12 5.12 0 0 1 2.11-.42c.8 0 1.5.14 2.09.42.6.27 1.07.64 1.41 1.1.35.48.55 1 .59 1.6v.1h-1.7l-.02-.1a1.6 1.6 0 0 0-.38-.83c-.2-.24-.48-.42-.82-.56-.34-.14-.74-.2-1.19-.2-.44 0-.83.06-1.17.2a1.9 1.9 0 0 0-.82.57c-.2.25-.3.55-.3.9v.01c0 .28.07.53.21.75.14.21.36.4.66.56.3.16.7.29 1.18.39l1.23.27c.79.17 1.43.4 1.92.67s.84.61 1.07 1.02c.23.4.34.88.34 1.44 0 .72-.18 1.35-.53 1.87a3.4 3.4 0 0 1-1.5 1.21c-.64.29-1.4.43-2.27.43Zm9.65-.1c-.82 0-1.54-.18-2.13-.54a3.59 3.59 0 0 1-1.38-1.52 5.3 5.3 0 0 1-.47-2.33c0-.9.16-1.67.47-2.33.33-.66.78-1.17 1.37-1.54a3.8 3.8 0 0 1 2.06-.56 3.48 3.48 0 0 1 3.36 2.02c.3.64.46 1.39.46 2.24v.6h-6.86v-1.22h6.01l-.8 1.13v-.68c0-.6-.1-1.1-.29-1.5-.18-.4-.44-.7-.76-.9-.32-.2-.7-.3-1.11-.3-.43 0-.8.1-1.14.31-.33.2-.59.51-.78.91-.19.4-.28.9-.28 1.48v.68c0 .55.1 1.03.28 1.43.19.4.45.7.8.9.35.21.76.32 1.23.32.37 0 .68-.05.94-.15.26-.1.48-.23.65-.39.17-.15.29-.3.35-.44l.03-.06h1.64l-.01.07a2.9 2.9 0 0 1-1.11 1.6c-.3.23-.66.41-1.08.55-.42.14-.9.21-1.45.21Zm5.51-.17V79.19h1.7V91h-1.7Zm3.98 0V79.19h1.7V91h-1.7ZM626.29 91v-1.43h3.4c.8 0 1.4-.16 1.8-.48.4-.31.61-.77.61-1.38v-.01c0-.41-.1-.75-.28-1.02a1.68 1.68 0 0 0-.84-.61 3.92 3.92 0 0 0-1.39-.21h-3.3v-1.34h2.95c.78 0 1.36-.14 1.76-.42.4-.28.6-.7.6-1.25v-.01c0-.54-.19-.95-.55-1.24-.35-.3-.86-.44-1.51-.44h-3.25v-1.43h3.66c.7 0 1.31.11 1.82.34.5.23.9.56 1.17.98.27.41.4.9.4 1.48v.02c0 .4-.09.76-.26 1.1-.18.34-.42.63-.71.87-.3.23-.64.38-1.01.44v.13c.51.06.96.2 1.34.45a2.6 2.6 0 0 1 1.2 2.26v.02c0 .66-.15 1.22-.46 1.7-.31.48-.75.84-1.32 1.1-.58.25-1.26.38-2.07.38h-3.76Zm-.88 0V79.73h1.75V91h-1.75Zm13.05.16c-.63 0-1.17-.12-1.6-.36-.44-.25-.77-.61-.99-1.08a4.15 4.15 0 0 1-.32-1.71v-5.5h1.7v5.1c0 .7.14 1.22.41 1.57.28.35.73.52 1.36.52.33 0 .63-.05.89-.15a1.77 1.77 0 0 0 1.04-1.14c.1-.27.14-.57.14-.92v-4.97h1.7V91h-1.7v-1.28h-.13c-.13.3-.32.56-.55.78-.24.21-.52.38-.85.5-.32.1-.69.16-1.1.16Zm7.27 2.82-.33-.01-.35-.02V92.6a3.9 3.9 0 0 0 .58.03c.4 0 .71-.1.96-.28.24-.18.43-.49.55-.91l.13-.44-3.08-8.5h1.83l2.4 7.65-.53-.87h.65l-.52.87 2.39-7.64h1.79l-3.16 8.8c-.24.68-.5 1.2-.8 1.6-.29.38-.63.66-1.04.82-.4.16-.89.24-1.47.24ZM222.38 114v-9.71h-.13l-2.87 2.08v-1.49l3-2.15h1.4V114h-1.4Zm6.5 0 5.22-9.9v-.12h-6.22v-1.25h7.65v1.3l-5.18 9.97h-1.47Zm13.02 0v-9.71h-.13l-2.87 2.08v-1.49l3-2.15h1.4V114h-1.4Zm6.76.08a1 1 0 0 1-.72-.3 1 1 0 0 1-.3-.72c0-.28.1-.52.3-.72a1 1 0 0 1 .72-.3c.28 0 .52.1.72.3.2.2.3.44.3.72a1 1 0 0 1-.3.72c-.2.2-.44.3-.72.3Zm7.09.19a3.3 3.3 0 0 1-2.14-.72 4.54 4.54 0 0 1-1.36-2.04 9.33 9.33 0 0 1-.48-3.14v-.02c0-1.2.16-2.25.48-3.13.32-.88.77-1.56 1.36-2.04a3.3 3.3 0 0 1 2.14-.72c.83 0 1.55.24 2.14.72a4.5 4.5 0 0 1 1.37 2.04c.32.88.48 1.92.48 3.13v.02c0 1.2-.16 2.25-.48 3.14a4.5 4.5 0 0 1-1.37 2.04c-.6.48-1.3.72-2.14.72Zm0-1.23c.54 0 1-.2 1.38-.57.39-.38.68-.92.88-1.62.21-.7.32-1.52.32-2.48v-.02c0-.96-.1-1.78-.32-2.47a3.6 3.6 0 0 0-.88-1.61 1.88 1.88 0 0 0-1.38-.58c-.54 0-1 .2-1.38.58-.38.37-.68.9-.88 1.6-.2.7-.3 1.52-.3 2.48v.02c0 .96.1 1.78.3 2.48.2.7.5 1.24.88 1.62.38.38.84.57 1.38.57Zm9.8 1.23c-.7 0-1.32-.14-1.87-.42a3.39 3.39 0 0 1-1.88-2.74v-.09h1.34l.01.07a2.13 2.13 0 0 0 1.24 1.68c.34.17.74.25 1.17.25.5 0 .93-.1 1.3-.33.39-.22.68-.53.9-.92.2-.39.31-.83.31-1.34v-.02c0-.5-.1-.94-.32-1.32-.21-.4-.5-.7-.88-.92-.37-.22-.8-.33-1.28-.33-.38 0-.72.06-1.03.18a2.42 2.42 0 0 0-1.35 1.18H262l.59-6.47h6.24v1.25h-5.13l-.38 3.82h.13a2.4 2.4 0 0 1 1.43-1.03 3.53 3.53 0 0 1 4.11 1.69c.31.56.47 1.2.47 1.93v.02c0 .75-.17 1.42-.5 2-.34.58-.8 1.03-1.39 1.36-.58.33-1.25.5-2.01.5ZM603.38 114v-9.71h-.13l-2.87 2.08v-1.49l3-2.15h1.4V114h-1.4Zm6.5 0 5.22-9.9v-.12h-6.22v-1.25h7.65v1.3l-5.17 9.97h-1.48Zm13.02 0v-9.71h-.13l-2.87 2.08v-1.49l3-2.15h1.4V114h-1.4Zm6.76.08a1 1 0 0 1-.72-.3 1 1 0 0 1-.3-.72c0-.28.1-.52.3-.72a1 1 0 0 1 .72-.3c.28 0 .52.1.72.3.2.2.3.44.3.72a1 1 0 0 1-.3.72c-.2.2-.44.3-.72.3Zm7.09.19a3.3 3.3 0 0 1-2.14-.72 4.54 4.54 0 0 1-1.36-2.04 9.33 9.33 0 0 1-.48-3.14v-.02c0-1.2.16-2.25.48-3.13.32-.88.77-1.56 1.36-2.04a3.3 3.3 0 0 1 2.14-.72c.83 0 1.54.24 2.14.72a4.5 4.5 0 0 1 1.37 2.04c.32.88.48 1.92.48 3.13v.02c0 1.2-.16 2.25-.48 3.14a4.5 4.5 0 0 1-1.37 2.04c-.6.48-1.3.72-2.14.72Zm0-1.23c.54 0 1-.2 1.38-.57.39-.38.68-.92.88-1.62.21-.7.32-1.52.32-2.48v-.02c0-.96-.1-1.78-.32-2.47a3.6 3.6 0 0 0-.88-1.61 1.88 1.88 0 0 0-1.38-.58c-.54 0-1 .2-1.38.58-.38.37-.68.9-.88 1.6-.2.7-.3 1.52-.3 2.48v.02c0 .96.1 1.78.3 2.48.2.7.5 1.24.88 1.62.38.38.84.57 1.38.57Zm9.92 1.23c-.51 0-1.02-.1-1.52-.3a3.7 3.7 0 0 1-1.35-.96 4.86 4.86 0 0 1-.98-1.75 8.71 8.71 0 0 1-.36-2.69v-.01c0-1.29.17-2.38.51-3.29.34-.9.83-1.6 1.47-2.08a3.76 3.76 0 0 1 2.32-.73c.63 0 1.19.12 1.69.35a3.38 3.38 0 0 1 1.95 2.42l.02.1h-1.41l-.03-.08a2.25 2.25 0 0 0-1.24-1.34c-.29-.13-.62-.2-1-.2-.67 0-1.22.2-1.64.61-.42.4-.73.93-.93 1.59a8.47 8.47 0 0 0-.36 2.37v.21l.33 1.88a2.7 2.7 0 0 0 1.24 2.3c.38.24.8.35 1.27.35s.9-.11 1.27-.34a2.6 2.6 0 0 0 1.24-2.27v-.01c0-.5-.1-.94-.32-1.33a2.42 2.42 0 0 0-2.16-1.25 2.44 2.44 0 0 0-2.53 2.54h-.47v-2.02h.28c.13-.31.33-.6.6-.86.28-.27.62-.48 1.01-.64.4-.17.85-.25 1.35-.25a3.57 3.57 0 0 1 3.18 1.84c.31.57.47 1.21.47 1.94v.01a3.73 3.73 0 0 1-3.9 3.88Z" fill="#fff"/><path opacity=".7" d="M423.4 117.23a2.9 2.9 0 0 1-1.87-.63 3.97 3.97 0 0 1-1.19-1.78 8.14 8.14 0 0 1-.42-2.75v-.01c0-1.06.14-1.97.42-2.74.28-.77.67-1.37 1.19-1.79a2.9 2.9 0 0 1 1.87-.63c.73 0 1.36.21 1.88.63.52.42.91 1.02 1.2 1.79.27.77.42 1.68.42 2.74v.01c0 1.06-.15 1.98-.43 2.75a3.95 3.95 0 0 1-1.2 1.78c-.51.42-1.14.63-1.87.63Zm0-1.07c.48 0 .88-.17 1.21-.5.34-.33.6-.8.77-1.41.19-.62.28-1.34.28-2.18v-.01c0-.84-.1-1.56-.28-2.17a3.15 3.15 0 0 0-.77-1.4c-.33-.34-.73-.5-1.2-.5-.48 0-.88.16-1.22.5-.33.32-.59.79-.76 1.4-.18.6-.27 1.33-.27 2.17v.01c0 .84.09 1.56.27 2.18.17.6.43 1.08.76 1.41.34.33.74.5 1.21.5Zm6.34.9a.87.87 0 0 1-.63-.25.87.87 0 0 1-.26-.63c0-.25.09-.46.26-.63a.87.87 0 0 1 .63-.26c.25 0 .46.09.63.26.18.17.26.38.26.63 0 .24-.08.45-.26.63a.86.86 0 0 1-.63.26Zm6.33.17c-.73 0-1.36-.2-1.87-.63a3.98 3.98 0 0 1-1.2-1.78 8.14 8.14 0 0 1-.41-2.75v-.01c0-1.06.14-1.97.42-2.74.27-.77.67-1.37 1.19-1.79a2.89 2.89 0 0 1 1.87-.63c.73 0 1.35.21 1.87.63.52.42.92 1.02 1.2 1.79.28.77.42 1.68.42 2.74v.01a8 8 0 0 1-.42 2.75 3.95 3.95 0 0 1-1.2 1.78 2.9 2.9 0 0 1-1.87.63Zm0-1.07c.47 0 .88-.17 1.2-.5.35-.33.6-.8.78-1.41.18-.62.27-1.34.27-2.18v-.01c0-.84-.09-1.56-.27-2.17a3.15 3.15 0 0 0-.77-1.4c-.33-.34-.74-.5-1.21-.5s-.87.16-1.21.5c-.33.32-.59.79-.77 1.4-.17.6-.26 1.33-.26 2.17v.01c0 .84.09 1.56.26 2.18.18.6.44 1.08.77 1.41.34.33.74.5 1.2.5Zm8.96.84v-8.5h-.1l-2.51 1.82v-1.3l2.62-1.88h1.22V117h-1.23Z" fill="#fff"/><rect opacity=".3" x="207" y="168" width="457" height="5" rx="2.5" fill="#B2B5BE"/><rect opacity=".3" x="381" y="168" width="109" height="5" rx="2.5" fill="#B2B5BE"/><path d="M307.26 161v-9.86h1.43l3.37 8.23h.11l3.38-8.23h1.43V161h-1.15v-7.53h-.6l1.38-2.06-3.97 9.59h-1.04l-3.97-9.6 1.38 2.07h-.6V161h-1.15Zm14.14.13c-.46 0-.88-.09-1.25-.27a2.16 2.16 0 0 1-.88-.76 2.08 2.08 0 0 1-.33-1.16v-.01c0-.44.1-.81.32-1.12.2-.32.51-.56.92-.74.4-.18.88-.28 1.45-.31l2.7-.17v.95l-2.56.17c-.56.03-.97.14-1.23.34-.25.2-.38.49-.38.85v.01c0 .38.14.67.42.88.29.2.64.3 1.07.3.4 0 .77-.07 1.08-.23.32-.17.56-.39.74-.67.18-.27.27-.59.27-.94v-2.3c0-.45-.14-.8-.41-1.03-.28-.25-.69-.37-1.24-.37-.44 0-.8.08-1.09.24-.28.16-.47.38-.57.67v.02h-1.2l.01-.04c.07-.4.23-.73.48-1.02.26-.29.6-.51 1-.67.42-.17.89-.25 1.41-.25.6 0 1.1.1 1.52.3.42.2.74.47.95.84.22.37.33.8.33 1.32V161h-1.19v-1.09h-.1a2.5 2.5 0 0 1-1.32 1.08c-.28.1-.58.14-.92.14Zm5.74-.13v-7.37h1.2v1.1h.1c.14-.4.38-.7.72-.9.34-.22.75-.33 1.25-.33a4.54 4.54 0 0 1 .6.05v1.15a3.36 3.36 0 0 0-.74-.06c-.37 0-.7.07-1 .22-.3.15-.52.36-.69.63-.16.27-.25.58-.25.94V161h-1.19Zm5.44 0v-10.3h1.2V161h-1.2Zm4.64 0-2.87-3.6.87-.77 3.5 4.37h-1.5Zm-3.6-2.65-.05-1.5h.31l3.19-3.22h1.44l-3.5 3.38-.29.28-1.1 1.06Zm9.2 2.78a3.07 3.07 0 0 1-2.97-1.78 4.67 4.67 0 0 1-.4-2v-.01c0-.77.13-1.43.4-2 .27-.58.65-1.03 1.15-1.35.5-.33 1.08-.49 1.74-.49a2.98 2.98 0 0 1 2.83 1.76c.26.56.4 1.2.4 1.93v.47h-5.91v-.95h5.3l-.6.86v-.47c0-.57-.08-1.05-.25-1.42a1.84 1.84 0 0 0-1.77-1.12c-.4 0-.75.1-1.07.3a2 2 0 0 0-.74.85 3.2 3.2 0 0 0-.27 1.4v.46c0 .53.09.98.27 1.35a1.97 1.97 0 0 0 1.92 1.15c.33 0 .62-.04.86-.14.25-.09.45-.2.61-.34.16-.15.27-.29.34-.44l.02-.06h1.2l-.02.06c-.06.25-.18.5-.34.73-.16.23-.37.44-.62.63-.26.2-.56.34-.91.46-.35.1-.74.16-1.17.16Zm7.64-.07c-.75 0-1.3-.16-1.64-.46-.34-.3-.5-.81-.5-1.51v-4.47h-1.17v-.99h1.16v-1.9h1.23v1.9h1.62v.99h-1.62v4.16c0 .44.08.75.25.94.16.19.44.28.82.28a4.04 4.04 0 0 0 .55-.03V161a6.7 6.7 0 0 1-.7.06ZM420.26 161v-9.86h1.23v8.75h4.76V161h-6Zm7.87 0v-7.37h1.19V161h-1.19Zm.6-8.8a.8.8 0 0 1-.58-.23.8.8 0 0 1-.24-.58.8.8 0 0 1 .24-.58.8.8 0 0 1 .58-.24c.23 0 .42.08.58.24.16.16.24.35.24.58a.8.8 0 0 1-.24.58.8.8 0 0 1-.58.24Zm2.87 8.8v-7.37h1.19v1.12h.1c.17-.4.42-.7.76-.92.34-.22.75-.33 1.24-.33.33 0 .63.06.9.16a2.2 2.2 0 0 1 1.14 1.13h.1a2.38 2.38 0 0 1 1.3-1.13c.3-.1.62-.16.96-.16.5 0 .92.1 1.27.28.35.19.62.46.8.82.18.36.27.8.27 1.3v5.1h-1.19v-4.82c0-.36-.05-.67-.17-.9a1.1 1.1 0 0 0-.5-.54 1.8 1.8 0 0 0-.86-.19c-.35 0-.64.08-.9.24-.25.15-.45.36-.6.62-.14.25-.2.54-.2.85V161H436v-5c0-.3-.06-.55-.19-.76-.12-.22-.3-.39-.53-.5-.23-.13-.5-.19-.8-.19-.32 0-.62.09-.87.26-.26.16-.46.4-.61.68-.15.28-.22.6-.22.94V161h-1.2Zm12.25 0v-7.37h1.19V161h-1.2Zm.6-8.8a.8.8 0 0 1-.58-.23.8.8 0 0 1-.24-.58.8.8 0 0 1 .24-.58.8.8 0 0 1 .58-.24c.23 0 .42.08.58.24.16.16.24.35.24.58a.8.8 0 0 1-.24.58.8.8 0 0 1-.58.24Zm5.48 8.86c-.75 0-1.3-.16-1.64-.46-.34-.3-.51-.81-.51-1.51v-4.47h-1.16v-.99h1.16v-1.9h1.23v1.9h1.61v.99h-1.6v4.16c0 .44.07.75.24.94.16.19.43.28.82.28a4.04 4.04 0 0 0 .54-.03V161a6.7 6.7 0 0 1-.69.06ZM561.5 161.23c-.73 0-1.36-.11-1.9-.35a3.2 3.2 0 0 1-1.27-.97 2.76 2.76 0 0 1-.54-1.42v-.07h1.23v.07c.03.33.16.61.38.86.22.23.52.42.89.55a3.78 3.78 0 0 0 2.46-.01 2 2 0 0 0 .83-.6c.2-.26.3-.55.3-.89 0-.41-.15-.76-.45-1.04-.3-.28-.8-.5-1.47-.65l-1.1-.24a5.46 5.46 0 0 1-1.61-.59 2.56 2.56 0 0 1-.92-.92c-.2-.37-.3-.79-.3-1.26 0-.55.15-1.04.45-1.46.3-.42.7-.74 1.22-.98a4.34 4.34 0 0 1 1.8-.36c.66 0 1.24.12 1.75.36.5.23.9.55 1.2.94.3.4.47.84.5 1.34v.1h-1.22l-.02-.1c-.04-.29-.16-.55-.35-.77-.2-.23-.45-.4-.77-.54-.32-.13-.7-.2-1.12-.2-.4 0-.78.07-1.1.2-.34.13-.6.31-.8.55-.18.24-.28.53-.28.88 0 .27.06.5.2.7.12.21.32.4.6.54.27.15.63.28 1.08.38l1.1.24a5.9 5.9 0 0 1 1.65.6c.42.23.73.53.92.88.2.35.3.76.3 1.23 0 .62-.16 1.15-.46 1.6-.3.45-.72.8-1.27 1.04-.54.24-1.18.36-1.92.36Zm8.2-.17c-.77 0-1.32-.16-1.66-.46-.33-.3-.5-.81-.5-1.51v-4.47h-1.16v-.99h1.16v-1.9h1.23v1.9h1.61v.99h-1.61v4.16c0 .44.08.75.24.94.17.19.44.28.83.28a4.03 4.03 0 0 0 .54-.03V161a6.7 6.7 0 0 1-.69.06Zm5.43.07a3.1 3.1 0 0 1-2.99-1.78 4.66 4.66 0 0 1-.4-2.03v-.01c0-.79.13-1.47.4-2.04.28-.57.67-1 1.18-1.31.5-.3 1.11-.46 1.8-.46.71 0 1.31.15 1.82.46.5.3.9.74 1.17 1.31.28.57.42 1.25.42 2.04v.01c0 .79-.14 1.46-.42 2.03a3.06 3.06 0 0 1-2.98 1.78Zm0-1.05c.46 0 .86-.11 1.18-.33.33-.22.57-.53.74-.94.17-.41.26-.9.26-1.49v-.01c0-.59-.09-1.08-.26-1.5a2 2 0 0 0-.74-.93 2.06 2.06 0 0 0-1.18-.33c-.47 0-.86.11-1.18.33-.33.22-.58.53-.75.94-.17.4-.25.9-.25 1.49v.01c0 .58.08 1.08.25 1.49.17.4.42.72.75.94.32.22.71.33 1.18.33Zm5.28 3.38v-9.83h1.19v1.18h.1a2.44 2.44 0 0 1 1.36-1.15c.29-.1.6-.16.95-.16.62 0 1.16.16 1.62.48.47.31.83.76 1.08 1.33.26.56.39 1.23.39 2v.01c0 .77-.13 1.44-.39 2.01a3.06 3.06 0 0 1-1.08 1.33c-.46.31-1 .47-1.62.47a2.72 2.72 0 0 1-1.75-.6c-.23-.2-.41-.43-.55-.7h-.11v3.63h-1.19Zm3.32-3.38a2 2 0 0 0 1.16-.33c.32-.22.56-.54.73-.95.17-.42.26-.9.26-1.48v-.01c0-.58-.09-1.07-.26-1.48a2.04 2.04 0 0 0-.73-.94c-.32-.22-.7-.34-1.16-.34-.44 0-.83.11-1.15.34-.33.22-.58.54-.75.95-.17.4-.26.9-.26 1.47v.01c0 .57.09 1.06.26 1.47a1.99 1.99 0 0 0 1.9 1.28Z" fill="#fff"/><path fill="#414245" d="M435 212h1v38h-1z"/><g clip-path="url(#eywnarsqp)"><path d="M124.02 44.96V33.9h3.8c1.1 0 2.03.22 2.81.66a4.33 4.33 0 0 1 1.8 1.88c.41.83.62 1.82.62 2.98v.02a6.6 6.6 0 0 1-.62 2.98 4.4 4.4 0 0 1-1.8 1.9c-.77.44-1.71.65-2.81.65h-3.8Zm1.38-1.24h2.33c.82 0 1.52-.17 2.1-.5a3.3 3.3 0 0 0 1.34-1.47c.31-.64.47-1.41.47-2.3v-.02c0-.9-.16-1.67-.47-2.31a3.28 3.28 0 0 0-1.34-1.48 4.08 4.08 0 0 0-2.1-.51h-2.33v8.59ZM117.62 45.22a5.3 5.3 0 0 1-2.12-.39 3.6 3.6 0 0 1-1.42-1.09 3.1 3.1 0 0 1-.6-1.6l-.02-.08h1.39v.09c.04.36.18.68.43.96.25.26.58.47 1 .62a4.26 4.26 0 0 0 2.76-.02c.4-.16.7-.39.92-.67.23-.29.34-.62.34-1 0-.46-.17-.85-.5-1.16a3.52 3.52 0 0 0-1.65-.73l-1.23-.27a6.14 6.14 0 0 1-1.81-.67 2.87 2.87 0 0 1-1.04-1.03c-.22-.41-.33-.88-.33-1.42 0-.62.17-1.16.5-1.63.33-.47.79-.84 1.37-1.1.6-.27 1.27-.4 2.03-.4.74 0 1.39.13 1.96.4.57.25 1.02.6 1.35 1.05.34.45.52.95.56 1.5v.1h-1.38l-.01-.1a1.71 1.71 0 0 0-.4-.86 2.2 2.2 0 0 0-.86-.6 3.18 3.18 0 0 0-1.26-.22c-.46 0-.87.07-1.24.21-.37.15-.67.35-.89.63-.21.26-.32.59-.32.98 0 .3.07.56.22.8.14.23.36.43.67.6.31.16.72.3 1.22.42l1.23.27c.77.17 1.4.4 1.87.66.47.28.81.6 1.03 1 .22.4.33.85.33 1.38v.01c0 .7-.17 1.29-.51 1.8-.34.5-.81.88-1.43 1.16a5.3 5.3 0 0 1-2.16.4ZM106.8 45.22c-.92 0-1.71-.17-2.37-.51a3.68 3.68 0 0 1-1.52-1.43 4.2 4.2 0 0 1-.52-2.12v-7.27h1.38v7.17c0 .57.11 1.07.35 1.5.24.44.59.78 1.04 1.02.45.25 1 .37 1.63.37.64 0 1.18-.12 1.63-.37.45-.24.8-.58 1.03-1.01.23-.44.35-.94.35-1.5v-7.18h1.38v7.27c0 .8-.17 1.5-.53 2.12-.34.61-.85 1.09-1.5 1.43-.66.34-1.44.51-2.36.51Z" fill="#D1D4DC"/><path d="m148.24 37.1 3.28 2.62 3.27-2.62" stroke="#D1D4DC" stroke-width="1.57"/><path fill-rule="evenodd" clip-rule="evenodd" d="M156.1 25.31H98.45a3.93 3.93 0 0 0-3.93 3.93V48.9a3.93 3.93 0 0 0 3.93 3.93h57.65a3.93 3.93 0 0 0 3.93-3.93V29.24a3.93 3.93 0 0 0-3.93-3.93ZM98.45 24a5.24 5.24 0 0 0-5.24 5.24V48.9c0 2.9 2.35 5.25 5.24 5.25h57.65c2.9 0 5.24-2.35 5.24-5.25V29.24c0-2.9-2.34-5.24-5.24-5.24H98.45Z" fill="#292A2D"/><path d="M154 83.22c-.83 0-1.53-.23-2.11-.7a4.46 4.46 0 0 1-1.34-2 9.15 9.15 0 0 1-.47-3.1v-.01c0-1.19.16-2.21.47-3.08.31-.86.76-1.53 1.34-2 .58-.47 1.28-.7 2.1-.7.82 0 1.52.23 2.1.7a4.44 4.44 0 0 1 1.35 2c.32.87.47 1.9.47 3.08v.02c0 1.18-.15 2.21-.47 3.08a4.44 4.44 0 0 1-1.34 2c-.59.48-1.29.71-2.1.71Zm0-1.2c.52 0 .98-.2 1.35-.56.38-.38.67-.9.87-1.6.2-.68.3-1.5.3-2.44v-.01c0-.94-.1-1.75-.3-2.43a3.54 3.54 0 0 0-.87-1.59 1.85 1.85 0 0 0-1.36-.56c-.53 0-.98.2-1.36.56-.37.37-.66.9-.86 1.59-.2.68-.3 1.49-.3 2.43v.02c0 .94.1 1.75.3 2.44.2.68.49 1.21.86 1.59.38.37.83.56 1.36.56ZM144.09 83.22c-.82 0-1.52-.23-2.1-.7a4.46 4.46 0 0 1-1.34-2 9.15 9.15 0 0 1-.47-3.1v-.01c0-1.19.16-2.21.47-3.08.31-.86.75-1.53 1.33-2 .59-.47 1.29-.7 2.1-.7.83 0 1.53.23 2.11.7a4.43 4.43 0 0 1 1.34 2c.32.87.48 1.9.48 3.08v.02a9 9 0 0 1-.48 3.08 4.43 4.43 0 0 1-1.34 2c-.58.48-1.28.71-2.1.71Zm0-1.2c.53 0 .98-.2 1.36-.56.38-.38.66-.9.86-1.6.2-.68.31-1.5.31-2.44v-.01c0-.94-.1-1.75-.3-2.43a3.54 3.54 0 0 0-.87-1.59 1.85 1.85 0 0 0-1.36-.56c-.53 0-.98.2-1.36.56-.38.37-.66.9-.86 1.59-.2.68-.3 1.49-.3 2.43v.02c0 .94.1 1.75.3 2.44.2.68.48 1.21.86 1.59.38.37.83.56 1.36.56ZM137.42 83.04c-.27 0-.5-.1-.7-.3a.98.98 0 0 1-.3-.7c0-.28.1-.51.3-.7.2-.2.43-.3.7-.3.28 0 .52.1.71.3.2.19.3.42.3.7 0 .27-.1.5-.3.7-.2.2-.43.3-.7.3ZM130.77 83.22c-.5 0-1.01-.1-1.5-.3-.5-.19-.95-.5-1.35-.93-.4-.44-.72-1.01-.96-1.72a8.4 8.4 0 0 1-.36-2.65v-.01c0-1.26.17-2.33.5-3.23a4.4 4.4 0 0 1 1.47-2.04c.63-.48 1.4-.72 2.29-.72.62 0 1.18.12 1.67.35a3.35 3.35 0 0 1 1.95 2.38l.02.1h-1.39l-.03-.09a2.25 2.25 0 0 0-2.24-1.5c-.66 0-1.21.2-1.63.59-.42.39-.73.9-.94 1.56a8.28 8.28 0 0 0-.35 2.33v.2l.33 1.85a2.62 2.62 0 0 0 1.24 2.26c.38.24.8.35 1.26.35a2.43 2.43 0 0 0 2.17-1.27c.22-.39.34-.82.34-1.3 0-.5-.11-.94-.33-1.31-.2-.39-.5-.69-.87-.9-.38-.22-.8-.33-1.28-.33s-.91.1-1.3.32a2.44 2.44 0 0 0-1.23 2.17v.01h-.45v-2h.27c.13-.3.34-.58.61-.84.27-.26.6-.47 1-.63.4-.16.84-.24 1.33-.24.7 0 1.32.16 1.87.49.55.32.98.76 1.29 1.32.32.55.48 1.19.48 1.9v.02c0 .73-.17 1.39-.51 1.96-.33.57-.8 1.03-1.38 1.36a4 4 0 0 1-2 .5ZM120.6 83.14c-.79 0-1.48-.13-2.08-.4a3.5 3.5 0 0 1-1.43-1.12 2.77 2.77 0 0 1-.52-1.65v-.02c0-.45.1-.88.3-1.27a3.16 3.16 0 0 1 2.08-1.57v-.02c-.6-.2-1.08-.5-1.44-.94a2.33 2.33 0 0 1-.54-1.53v-.01c0-.56.16-1.06.47-1.5.31-.43.74-.78 1.29-1.03a4.35 4.35 0 0 1 1.86-.38c.7 0 1.33.13 1.87.38.55.25.98.6 1.29 1.04.31.43.47.93.47 1.49v.01c0 .59-.18 1.1-.54 1.53-.35.44-.83.75-1.44.94v.03a3.1 3.1 0 0 1 2.08 1.56c.2.4.3.82.3 1.27v.02c0 .62-.17 1.17-.52 1.65-.34.47-.81.85-1.42 1.12-.6.27-1.3.4-2.09.4Zm0-1.2c.5 0 .96-.09 1.35-.26.39-.18.7-.42.92-.73.23-.31.34-.67.34-1.07v-.01c0-.4-.11-.77-.33-1.08a2.22 2.22 0 0 0-.93-.74c-.39-.17-.84-.26-1.36-.26-.5 0-.96.09-1.35.26-.4.18-.7.43-.93.74-.22.31-.33.67-.33 1.08v.01c0 .4.11.76.33 1.07.23.3.54.55.93.73.4.17.85.26 1.36.26Zm0-5.37c.44 0 .83-.07 1.17-.23.34-.16.6-.37.79-.65.19-.28.28-.6.28-.95v-.02c0-.36-.09-.67-.28-.95-.19-.28-.45-.5-.79-.64a2.74 2.74 0 0 0-1.17-.24c-.45 0-.84.08-1.18.24-.34.15-.6.36-.79.64-.19.28-.28.6-.28.95v.02c0 .36.09.67.28.95.19.28.45.5.79.65.34.16.73.23 1.17.23ZM112.23 82.96v-9.54h-.13l-2.81 2.04V74l2.94-2.12h1.38v11.08h-1.38ZM153.7 121.22c-.82 0-1.52-.24-2.1-.7a4.47 4.47 0 0 1-1.34-2.01 9.15 9.15 0 0 1-.47-3.09v-.01c0-1.2.16-2.22.47-3.08.31-.87.76-1.53 1.34-2 .58-.48 1.28-.71 2.1-.71.82 0 1.52.23 2.1.7a4.43 4.43 0 0 1 1.35 2c.31.87.47 1.9.47 3.09v.01c0 1.19-.16 2.22-.47 3.09a4.44 4.44 0 0 1-1.35 2c-.58.47-1.28.7-2.1.7Zm0-1.2c.53 0 .98-.2 1.36-.57.38-.37.66-.9.87-1.59.2-.68.3-1.5.3-2.44v-.01c0-.95-.1-1.76-.3-2.44a3.53 3.53 0 0 0-.87-1.58 1.85 1.85 0 0 0-1.36-.56c-.53 0-.98.19-1.36.56-.37.37-.66.9-.86 1.58-.2.68-.3 1.5-.3 2.44v.01c0 .94.1 1.76.3 2.44.2.69.49 1.22.86 1.6.38.37.83.55 1.36.55ZM143.8 121.22c-.82 0-1.52-.24-2.1-.7a4.46 4.46 0 0 1-1.34-2.01 9.15 9.15 0 0 1-.47-3.09v-.01c0-1.2.16-2.22.47-3.08.3-.87.75-1.53 1.33-2 .59-.48 1.29-.71 2.1-.71.83 0 1.53.23 2.11.7a4.43 4.43 0 0 1 1.34 2c.32.87.48 1.9.48 3.09v.01a9 9 0 0 1-.48 3.09 4.44 4.44 0 0 1-1.34 2c-.58.47-1.28.7-2.1.7Zm0-1.2c.53 0 .98-.2 1.35-.57.38-.37.67-.9.87-1.59.2-.68.31-1.5.31-2.44v-.01c0-.95-.1-1.76-.3-2.44a3.53 3.53 0 0 0-.88-1.58 1.85 1.85 0 0 0-1.35-.56c-.53 0-.98.19-1.36.56-.38.37-.66.9-.86 1.58-.2.68-.3 1.5-.3 2.44v.01c0 .94.1 1.76.3 2.44.2.69.48 1.22.86 1.6.38.37.83.55 1.36.55ZM137.13 121.03c-.27 0-.5-.1-.7-.29a.98.98 0 0 1-.3-.7c0-.28.1-.52.3-.71.2-.2.43-.3.7-.3.28 0 .52.1.7.3a.98.98 0 0 1 0 1.41c-.18.2-.42.3-.7.3ZM130.5 121.22c-.7 0-1.3-.14-1.84-.4a3.32 3.32 0 0 1-1.87-2.7v-.09h1.32v.06a2.1 2.1 0 0 0 1.23 1.65c.35.17.74.26 1.17.26.49 0 .92-.11 1.3-.33.37-.22.66-.52.87-.9.2-.38.31-.83.31-1.32v-.02c0-.49-.1-.92-.32-1.3-.2-.39-.5-.69-.87-.9-.36-.22-.79-.32-1.27-.32-.37 0-.7.05-1.02.17a2.39 2.39 0 0 0-1.33 1.16h-1.2l.59-6.36h6.16v1.23h-5.07l-.38 3.75h.12c.17-.25.37-.46.61-.63a3.25 3.25 0 0 1 1.76-.52 3.4 3.4 0 0 1 3.12 1.8c.3.55.45 1.18.45 1.9v.02c0 .74-.16 1.4-.5 1.97a3.51 3.51 0 0 1-1.35 1.33c-.58.33-1.25.49-2 .49ZM120.6 121.14c-.79 0-1.48-.14-2.08-.4a3.5 3.5 0 0 1-1.43-1.13 2.77 2.77 0 0 1-.52-1.65v-.01c0-.46.1-.88.3-1.27a3.18 3.18 0 0 1 2.08-1.57v-.03c-.6-.19-1.08-.5-1.44-.93a2.33 2.33 0 0 1-.54-1.53v-.02c0-.55.16-1.05.47-1.49.31-.44.74-.78 1.29-1.03a4.35 4.35 0 0 1 1.86-.39c.7 0 1.33.13 1.87.39.55.25.98.6 1.29 1.03.31.44.47.94.47 1.5 0 .6-.18 1.1-.54 1.54-.35.43-.83.74-1.44.93v.03a3.11 3.11 0 0 1 2.08 1.57c.2.39.3.81.3 1.27v.01c0 .62-.17 1.17-.52 1.65-.34.48-.81.85-1.42 1.12-.6.27-1.3.41-2.09.41Zm0-1.2c.5 0 .96-.1 1.35-.27.39-.17.7-.42.92-.73.23-.3.34-.66.34-1.06v-.02c0-.4-.11-.76-.33-1.07a2.22 2.22 0 0 0-.93-.74c-.39-.18-.84-.27-1.36-.27-.5 0-.96.1-1.35.27-.4.18-.7.43-.93.74-.22.31-.33.67-.33 1.07v.02c0 .4.11.75.33 1.06.23.31.54.56.93.73.4.18.85.27 1.36.27Zm0-5.37c.44 0 .83-.08 1.17-.23.34-.16.6-.38.79-.65.19-.28.28-.6.28-.96v-.01c0-.36-.09-.68-.28-.95-.19-.28-.45-.5-.79-.65a2.73 2.73 0 0 0-1.17-.24c-.45 0-.84.08-1.18.24-.34.16-.6.37-.79.65-.19.27-.28.6-.28.95v.01c0 .36.09.68.28.96.19.27.45.49.79.65.34.15.73.23 1.17.23ZM112.23 120.96v-9.55h-.13l-2.81 2.05V112l2.94-2.12h1.38v11.08h-1.38Z" fill="#fff"/><path d="M88.63 103.1h70.75a2.62 2.62 0 0 1 2.62 2.62v20.96a2.62 2.62 0 0 1-2.62 2.62H88.63v-26.2Z" fill="#1A2E5D"/><path d="M147.08 121.7c-.69 0-1.3-.14-1.84-.4a3.32 3.32 0 0 1-1.87-2.7v-.09h1.33v.06a2.1 2.1 0 0 0 1.23 1.66c.35.16.73.25 1.16.25a2.32 2.32 0 0 0 2.17-1.23c.22-.38.32-.82.32-1.32v-.02c0-.49-.1-.92-.32-1.3-.21-.38-.5-.68-.87-.9-.37-.21-.8-.32-1.27-.32-.37 0-.71.05-1.02.17a2.4 2.4 0 0 0-1.33 1.16h-1.2l.58-6.36h6.17v1.24h-5.08l-.37 3.74h.12c.16-.25.37-.46.6-.63a3.25 3.25 0 0 1 1.76-.52 3.4 3.4 0 0 1 3.12 1.8c.3.55.46 1.19.46 1.9v.02c0 .74-.16 1.4-.5 1.97a3.52 3.52 0 0 1-1.36 1.34c-.57.32-1.24.48-2 .48ZM137.25 121.7c-.82 0-1.53-.24-2.1-.7a4.46 4.46 0 0 1-1.34-2.01 9.15 9.15 0 0 1-.47-3.09v-.01c0-1.19.15-2.22.47-3.08.3-.87.75-1.53 1.33-2 .59-.48 1.29-.71 2.1-.71.82 0 1.53.23 2.1.7a4.44 4.44 0 0 1 1.35 2c.32.87.48 1.9.48 3.09v.01c0 1.19-.16 2.22-.48 3.09a4.44 4.44 0 0 1-1.34 2c-.58.47-1.29.7-2.1.7Zm0-1.2c.53 0 .98-.2 1.35-.57.38-.37.67-.9.87-1.59.2-.68.3-1.5.3-2.44v-.01c0-.94-.1-1.75-.3-2.44a3.53 3.53 0 0 0-.87-1.58 1.85 1.85 0 0 0-1.35-.56c-.53 0-.99.19-1.36.56-.38.37-.66.9-.86 1.58-.2.69-.3 1.5-.3 2.44v.01c0 .94.1 1.76.3 2.44.2.69.48 1.22.86 1.6.38.37.83.55 1.36.55ZM130.58 121.52c-.27 0-.5-.1-.7-.3a.98.98 0 0 1-.3-.7c0-.28.1-.52.3-.7.2-.2.43-.3.7-.3.28 0 .51.1.7.3.2.19.3.42.3.7 0 .27-.1.5-.3.7-.19.2-.42.3-.7.3ZM123.94 121.7c-.69 0-1.3-.14-1.83-.4a3.33 3.33 0 0 1-1.87-2.7v-.09h1.32v.06a2.1 2.1 0 0 0 1.23 1.66c.35.16.74.25 1.17.25a2.32 2.32 0 0 0 2.17-1.23c.2-.38.31-.82.31-1.32v-.02c0-.49-.1-.92-.32-1.3-.2-.38-.5-.68-.87-.9-.36-.21-.79-.32-1.27-.32-.37 0-.71.05-1.02.17a2.4 2.4 0 0 0-1.33 1.16h-1.2l.58-6.36h6.17v1.24h-5.07l-.38 3.74h.12c.17-.25.37-.46.6-.63a3.25 3.25 0 0 1 1.76-.52 3.52 3.52 0 0 1 3.12 1.8c.31.55.46 1.19.46 1.9v.02c0 .74-.16 1.4-.5 1.97a3.51 3.51 0 0 1-1.35 1.34c-.58.32-1.25.48-2 .48ZM114.04 121.62c-.78 0-1.47-.13-2.08-.4a3.5 3.5 0 0 1-1.42-1.13 2.77 2.77 0 0 1-.52-1.65v-.01c0-.46.1-.88.3-1.27a3.16 3.16 0 0 1 2.08-1.57v-.03c-.6-.18-1.08-.5-1.44-.93a2.33 2.33 0 0 1-.54-1.53v-.01c0-.56.16-1.06.47-1.5.31-.43.74-.78 1.29-1.03a4.35 4.35 0 0 1 1.86-.38c.7 0 1.33.12 1.87.38.55.25.98.6 1.29 1.04.31.43.47.93.47 1.49v.01c0 .58-.18 1.1-.54 1.53-.35.43-.83.75-1.44.94v.03a3.1 3.1 0 0 1 2.08 1.56c.2.4.3.81.3 1.27v.01c0 .62-.17 1.17-.52 1.66-.34.47-.82.84-1.42 1.12-.6.27-1.3.4-2.09.4Zm0-1.2c.52 0 .97-.09 1.35-.26.4-.18.7-.43.93-.73.23-.32.34-.67.34-1.07v-.02c0-.4-.11-.76-.34-1.07a2.21 2.21 0 0 0-.92-.74c-.4-.18-.84-.27-1.36-.27-.5 0-.96.1-1.36.27-.39.18-.7.43-.92.74-.22.31-.33.67-.33 1.07v.02c0 .4.1.75.33 1.07.23.3.54.55.93.73.4.17.85.26 1.35.26Zm0-5.37c.45 0 .84-.08 1.18-.23.34-.16.6-.38.79-.65.19-.28.28-.6.28-.95v-.02c0-.36-.1-.67-.28-.95-.19-.28-.45-.5-.8-.65a2.73 2.73 0 0 0-1.17-.23c-.44 0-.83.07-1.17.23-.34.16-.6.37-.8.65-.18.28-.27.6-.27.95v.02c0 .35.09.67.28.95.19.27.45.5.79.65.34.15.73.23 1.17.23ZM105.68 121.44v-9.54h-.13l-2.81 2.04v-1.46l2.94-2.12h1.38v11.08h-1.38Z" fill="#fff"/><path d="M37.53 105.72a2.62 2.62 0 0 1 2.62-2.63h47.17v26.21H40.15a2.62 2.62 0 0 1-2.62-2.62v-20.96Z" fill="#1A2E5D"/><path d="M71.85 121.44v-11.56h1.33v4.53h.12c.21-.44.52-.78.91-1.02.4-.25.9-.37 1.5-.37.62 0 1.15.12 1.58.36.43.23.76.58.98 1.03.23.46.34 1.01.34 1.67v5.36h-1.34v-5.04c0-.75-.16-1.3-.47-1.66-.31-.36-.8-.54-1.46-.54-.44 0-.82.1-1.15.28-.32.2-.57.46-.75.8-.17.36-.26.77-.26 1.26v4.9h-1.33ZM65.6 124.36c-.67 0-1.25-.1-1.75-.29-.5-.18-.89-.45-1.19-.79-.29-.34-.47-.73-.54-1.18h1.4c.08.31.29.57.65.77.36.2.83.3 1.43.3.74 0 1.32-.17 1.73-.5.42-.34.63-.8.63-1.42v-1.67h-.12a2.83 2.83 0 0 1-2.6 1.43c-.7 0-1.32-.17-1.85-.5a3.38 3.38 0 0 1-1.2-1.42 4.78 4.78 0 0 1-.42-2.06v-.01c0-.78.14-1.46.43-2.06.28-.6.69-1.08 1.2-1.42a3.28 3.28 0 0 1 1.87-.52c.4 0 .75.06 1.08.18a2.9 2.9 0 0 1 1.5 1.33h.1v-1.37h1.33v8.16c0 .62-.15 1.15-.45 1.6-.3.46-.72.81-1.28 1.06a4.7 4.7 0 0 1-1.95.38Zm-.06-4.53c.5 0 .94-.12 1.3-.36.38-.24.66-.57.85-.99.2-.42.3-.9.3-1.45v-.01c0-.55-.1-1.04-.3-1.46a2.3 2.3 0 0 0-.84-1c-.37-.24-.8-.36-1.31-.36-.52 0-.95.12-1.31.36-.35.24-.62.57-.81 1-.19.42-.28.9-.28 1.46v.01c0 .55.1 1.03.28 1.45.19.42.46.75.81 1 .36.23.8.35 1.3.35ZM58.33 121.44v-8.28h1.34v8.28h-1.34Zm.68-9.87a.9.9 0 0 1-.65-.27.9.9 0 0 1-.27-.66c0-.25.09-.47.27-.65a.9.9 0 0 1 .65-.27c.26 0 .47.1.65.27.18.18.27.4.27.65a.9.9 0 0 1-.27.66.89.89 0 0 1-.65.27ZM46.8 121.44v-11.08h1.38v4.8h6.08v-4.8h1.39v11.08h-1.39v-5.05h-6.08v5.05H46.8Z" fill="#fff"/><path d="M88.63 134.54h70.75a2.62 2.62 0 0 1 2.62 2.62v20.97a2.62 2.62 0 0 1-2.62 2.62H88.63v-26.2Z" fill="#E55E63"/><path d="M141.06 152.88v-.95l3.75-4.05c.47-.51.84-.94 1.1-1.27.27-.34.46-.64.56-.91.11-.27.16-.57.16-.9 0-.4-.08-.75-.25-1.05-.17-.3-.4-.55-.72-.73a2.22 2.22 0 0 0-1.12-.27c-.44 0-.83.1-1.16.28-.33.18-.6.43-.78.76-.18.32-.27.7-.27 1.13l-.01.02-1.32-.01h-.02a3.3 3.3 0 0 1 1.77-2.95c.55-.29 1.18-.44 1.88-.44.65 0 1.23.14 1.74.41.52.27.93.63 1.22 1.1.3.46.46 1 .46 1.6v.01c0 .42-.08.83-.23 1.22-.14.38-.4.82-.76 1.3-.37.46-.9 1.04-1.56 1.73l-2.87 2.96.35-.64v.64l-.34-.23h5.6v1.24h-7.18ZM131.57 152.88v-.95l3.75-4.05c.47-.51.84-.94 1.1-1.27.27-.34.46-.64.56-.91.11-.27.16-.57.16-.9 0-.4-.08-.75-.25-1.05-.17-.3-.4-.55-.72-.73a2.21 2.21 0 0 0-1.12-.27c-.44 0-.83.1-1.16.28-.33.18-.6.43-.78.76-.18.32-.27.7-.27 1.13l-.01.02-1.32-.01h-.02a3.3 3.3 0 0 1 1.77-2.95c.55-.29 1.17-.44 1.88-.44.65 0 1.23.14 1.74.41.52.27.93.63 1.22 1.1.3.46.46 1 .46 1.6v.01c0 .42-.08.83-.23 1.22-.14.38-.4.82-.76 1.3-.37.46-.9 1.04-1.56 1.73l-2.86 2.96.34-.64v.64l-.34-.23h5.6v1.24h-7.18ZM128.3 152.96c-.26 0-.5-.1-.7-.3a.98.98 0 0 1-.29-.7c0-.27.1-.5.3-.7.2-.2.43-.3.7-.3.28 0 .51.1.7.3a.98.98 0 0 1 0 1.41c-.19.2-.42.29-.7.29ZM123.01 152.88v-9.54h-.12l-2.82 2.04v-1.45l2.95-2.12h1.37v11.07h-1.38ZM114.04 153.07c-.78 0-1.47-.14-2.08-.4a3.5 3.5 0 0 1-1.42-1.13 2.77 2.77 0 0 1-.52-1.65v-.02a2.73 2.73 0 0 1 1.14-2.25c.36-.28.77-.47 1.24-.58v-.03c-.6-.19-1.08-.5-1.44-.94a2.33 2.33 0 0 1-.54-1.52v-.02c0-.56.16-1.05.47-1.49.31-.44.74-.78 1.29-1.03a4.35 4.35 0 0 1 1.86-.39c.7 0 1.33.13 1.87.38.55.26.98.6 1.29 1.04.31.44.47.93.47 1.5 0 .59-.18 1.1-.54 1.53-.35.44-.83.75-1.44.94v.03a3.1 3.1 0 0 1 2.08 1.57c.2.39.3.8.3 1.26v.02c0 .62-.17 1.17-.52 1.65-.34.48-.82.85-1.42 1.12-.6.27-1.3.4-2.09.4Zm0-1.2c.52 0 .97-.1 1.35-.27.4-.18.7-.42.93-.73.23-.31.34-.67.34-1.06v-.02c0-.4-.11-.76-.34-1.07a2.22 2.22 0 0 0-.92-.74c-.4-.18-.84-.27-1.36-.27-.5 0-.96.09-1.36.27-.39.18-.7.42-.92.74-.22.3-.33.66-.33 1.07v.02c0 .4.1.75.33 1.06.23.3.54.55.93.73.4.18.85.26 1.35.26Zm0-5.37c.45 0 .84-.08 1.18-.23.34-.16.6-.38.79-.66.19-.27.28-.59.28-.95v-.01c0-.36-.1-.68-.28-.96-.19-.27-.45-.49-.8-.64a2.74 2.74 0 0 0-1.17-.24c-.44 0-.83.08-1.17.24-.34.15-.6.37-.8.64-.18.28-.27.6-.27.96v.01c0 .36.09.68.28.95.19.28.45.5.79.66.34.15.73.23 1.17.23ZM105.68 152.88v-9.54h-.13l-2.81 2.04v-1.45l2.94-2.12h1.38v11.07h-1.38Z" fill="#fff"/><path d="M48.01 137.16a2.62 2.62 0 0 1 2.62-2.62h36.69v26.2H50.63a2.62 2.62 0 0 1-2.62-2.62v-20.96Z" fill="#E55E63"/><path d="M73.24 152.88v-11.56h1.34v11.56h-1.34Zm5.21 0-3.23-4.05.99-.85 3.93 4.9h-1.69Zm-4.04-2.97-.06-1.69h.35l3.58-3.61h1.62l-3.93 3.79-.32.31-1.24 1.2ZM67.78 153.03c-.62 0-1.16-.1-1.63-.28a2.85 2.85 0 0 1-1.14-.79 2.2 2.2 0 0 1-.5-1.19h1.37c.11.34.33.62.66.83.33.21.76.32 1.28.32.38 0 .7-.06.99-.16.28-.12.5-.27.67-.46a1 1 0 0 0 .25-.67v-.01a.9.9 0 0 0-.34-.72 2.6 2.6 0 0 0-1.1-.48l-1.29-.3a4.67 4.67 0 0 1-1.27-.48c-.34-.2-.58-.44-.74-.73-.16-.3-.24-.64-.24-1.03 0-.47.13-.88.4-1.24.27-.37.64-.65 1.1-.86.47-.21 1-.32 1.58-.32a4 4 0 0 1 1.54.28c.45.18.8.43 1.08.77.27.33.44.72.5 1.17h-1.3c-.1-.33-.3-.6-.6-.8-.32-.2-.73-.3-1.23-.3-.33 0-.62.05-.87.16-.26.1-.46.24-.6.43a1 1 0 0 0-.23.64v.02c0 .18.05.34.14.49.1.14.25.27.46.37.2.11.47.2.79.29l1.27.3c.52.13.95.29 1.3.49.33.2.6.44.76.73.17.28.25.63.25 1.02v.01c0 .5-.14.93-.43 1.31-.3.37-.7.66-1.2.88a4.3 4.3 0 0 1-1.68.31ZM53.78 152.88l4.09-11.07h1.05v1.78h-.43l-3.26 9.3h-1.45Zm1.85-3.17.43-1.17h5l.44 1.17h-5.87Zm6.24 3.17-3.26-9.29v-1.78h.62l4.09 11.07h-1.45Z" fill="#fff"/><path d="M88.63 165.99h70.75a2.62 2.62 0 0 1 2.62 2.62v20.96a2.62 2.62 0 0 1-2.62 2.62H88.63v-26.2Z" fill="#3860F6"/><path d="M141.06 184.33v-.95l3.75-4.06c.47-.5.84-.93 1.1-1.26.27-.34.45-.65.56-.92.1-.27.16-.56.16-.89v-.01c0-.4-.08-.74-.25-1.05-.17-.3-.41-.55-.72-.73a2.22 2.22 0 0 0-1.12-.27c-.44 0-.83.1-1.16.28-.34.18-.6.43-.78.76-.18.32-.27.7-.27 1.14l-.01.01H141l-.02-.01a3.24 3.24 0 0 1 1.77-2.94c.55-.3 1.17-.44 1.88-.44.64 0 1.22.14 1.74.4.52.27.93.64 1.22 1.1.3.47.45 1 .45 1.6v.02c0 .42-.07.82-.22 1.21-.14.39-.4.82-.76 1.3-.37.47-.9 1.05-1.56 1.74l-2.87 2.96.35-.64v.64l-.34-.23h5.59v1.24h-7.17ZM131.57 184.33v-.95l3.75-4.06c.47-.5.84-.93 1.1-1.26.27-.34.45-.65.56-.92.1-.27.16-.56.16-.89v-.01c0-.4-.08-.74-.25-1.05-.17-.3-.41-.55-.72-.73a2.22 2.22 0 0 0-1.12-.27c-.44 0-.83.1-1.16.28-.33.18-.6.43-.78.76-.18.32-.27.7-.27 1.14l-.01.01h-1.32l-.02-.01a3.23 3.23 0 0 1 1.77-2.94c.55-.3 1.17-.44 1.88-.44.64 0 1.23.14 1.74.4.52.27.93.64 1.22 1.1.3.47.46 1 .46 1.6v.02c0 .42-.08.82-.23 1.21-.14.39-.4.82-.77 1.3-.36.47-.88 1.05-1.55 1.74l-2.87 2.96.35-.64v.64l-.34-.23h5.59v1.24h-7.17ZM128.3 184.4c-.27 0-.5-.1-.7-.29a.98.98 0 0 1-.3-.7c0-.28.1-.51.3-.7.2-.2.44-.3.7-.3.28 0 .52.1.71.3.2.19.3.42.3.7 0 .27-.1.5-.3.7-.2.2-.43.3-.7.3ZM123 184.33v-9.54h-.11l-2.82 2.04v-1.46l2.95-2.12h1.37v11.08h-1.38ZM114.04 184.51c-.78 0-1.47-.13-2.08-.4a3.5 3.5 0 0 1-1.43-1.13 2.77 2.77 0 0 1-.51-1.64v-.02c0-.46.1-.88.3-1.27a3.16 3.16 0 0 1 2.08-1.57v-.02c-.6-.2-1.09-.5-1.44-.94a2.33 2.33 0 0 1-.54-1.53v-.01c0-.56.16-1.06.47-1.5.3-.43.74-.78 1.29-1.03a4.35 4.35 0 0 1 1.86-.38c.7 0 1.32.13 1.87.38s.98.6 1.29 1.04c.31.43.47.93.47 1.49v.01c0 .58-.18 1.1-.54 1.53-.35.43-.84.75-1.44.94v.03a3.1 3.1 0 0 1 2.08 1.56c.2.4.3.81.3 1.27v.02c0 .61-.18 1.16-.52 1.65-.34.47-.82.84-1.43 1.12-.6.27-1.3.4-2.08.4Zm0-1.2c.51 0 .96-.09 1.35-.26.4-.18.7-.43.93-.73.23-.31.34-.67.34-1.07v-.01c0-.4-.11-.77-.34-1.08a2.22 2.22 0 0 0-.92-.74c-.4-.18-.85-.26-1.36-.26-.5 0-.96.08-1.36.26-.4.18-.7.43-.93.74-.22.31-.33.67-.33 1.08v.01c0 .4.12.75.34 1.07.23.3.54.55.93.73.4.17.85.26 1.35.26Zm0-5.37c.45 0 .84-.07 1.18-.23.34-.16.6-.38.79-.65.19-.28.28-.6.28-.95v-.02c0-.36-.1-.67-.28-.95-.2-.28-.45-.5-.8-.64a2.73 2.73 0 0 0-1.17-.24c-.44 0-.83.08-1.17.24-.34.15-.6.36-.8.64-.18.28-.28.6-.28.95v.02c0 .35.1.67.29.95.19.28.45.5.79.65.34.16.73.23 1.17.23ZM105.67 184.33v-9.54h-.12l-2.82 2.04v-1.46l2.95-2.12h1.38v11.08h-1.39Z" fill="#fff"/><path d="M88.63 218.4h70.75A2.62 2.62 0 0 1 162 221v20.97a2.62 2.62 0 0 1-2.62 2.62H88.63v-26.2Z" fill="#3860F6"/><path d="M143.77 236.74v-9.55h-.12l-2.82 2.05v-1.46l2.95-2.12h1.37v11.08h-1.38ZM131.57 236.74v-.95l3.75-4.06c.47-.5.84-.93 1.1-1.26.27-.34.45-.65.56-.92.1-.27.16-.57.16-.89v-.01c0-.4-.08-.74-.25-1.05-.17-.3-.41-.55-.72-.73a2.22 2.22 0 0 0-1.12-.27c-.44 0-.83.1-1.16.28-.33.18-.6.43-.78.76-.18.32-.27.7-.27 1.14l-.01.01h-1.32l-.02-.01a3.23 3.23 0 0 1 1.77-2.94c.55-.3 1.17-.44 1.88-.44.64 0 1.23.13 1.74.4.52.27.93.64 1.22 1.1.3.47.46 1 .46 1.6v.02c0 .42-.08.82-.23 1.2-.14.4-.4.83-.77 1.3-.36.48-.88 1.06-1.55 1.75l-2.87 2.95.35-.63v.63l-.34-.23h5.59v1.25h-7.17ZM128.3 236.81c-.27 0-.5-.1-.7-.29a.98.98 0 0 1-.3-.7c0-.28.1-.51.3-.71.2-.2.44-.3.7-.3.28 0 .52.1.71.3a.98.98 0 0 1 0 1.41c-.2.2-.43.3-.7.3ZM123 236.74v-9.55h-.11l-2.82 2.05v-1.46l2.95-2.12h1.37v11.08h-1.38ZM114.04 236.92c-.78 0-1.47-.13-2.08-.4a3.5 3.5 0 0 1-1.43-1.13 2.77 2.77 0 0 1-.51-1.65v-.01c0-.46.1-.88.3-1.27a3.16 3.16 0 0 1 2.08-1.57v-.02c-.6-.2-1.09-.5-1.44-.94a2.33 2.33 0 0 1-.54-1.53v-.02c0-.55.16-1.05.47-1.48.3-.44.74-.79 1.29-1.04a4.37 4.37 0 0 1 1.86-.38c.7 0 1.32.12 1.87.38.55.25.98.6 1.29 1.04.31.43.47.93.47 1.48v.02c0 .58-.18 1.1-.54 1.53-.35.43-.84.75-1.44.94v.03a3.1 3.1 0 0 1 2.08 1.56c.2.4.3.81.3 1.27v.01c0 .62-.18 1.17-.52 1.65s-.82.85-1.43 1.13c-.6.27-1.3.4-2.08.4Zm0-1.2c.51 0 .96-.09 1.35-.26.4-.18.7-.43.93-.73.23-.32.34-.67.34-1.07v-.02c0-.4-.11-.76-.34-1.07a2.22 2.22 0 0 0-.92-.74c-.4-.18-.85-.27-1.36-.27-.5 0-.96.1-1.36.27-.4.18-.7.43-.93.74-.22.31-.33.67-.33 1.07v.02c0 .4.12.75.34 1.07.23.3.54.55.93.73.4.17.85.26 1.35.26Zm0-5.37c.45 0 .84-.08 1.18-.23.34-.16.6-.38.79-.65.19-.28.28-.6.28-.95v-.02c0-.36-.1-.68-.28-.95-.2-.28-.45-.5-.8-.65a2.73 2.73 0 0 0-1.17-.23c-.44 0-.83.08-1.17.23-.34.16-.6.37-.8.65-.18.27-.28.6-.28.95v.02c0 .35.1.67.29.95.19.27.45.5.79.65.34.15.73.23 1.17.23ZM105.67 236.74v-9.55h-.12l-2.82 2.05v-1.46l2.95-2.12h1.38v11.08h-1.39Z" fill="#fff"/><path d="M88.63 244.6h70.75a2.62 2.62 0 0 1 2.62 2.62v20.96a2.62 2.62 0 0 1-2.62 2.62H88.63v-26.2Z" fill="#3860F6"/><path d="M143.77 262.94v-2.3h-5.4v-1.25a312.38 312.38 0 0 1 3.8-6.1c.32-.49.63-.97.95-1.43h2v7.55h1.57v1.24h-1.57v2.3h-1.35Zm-3.99-3.52h4v-6.27h-.1a79.92 79.92 0 0 0-1.56 2.4 212.58 212.58 0 0 0-2.34 3.78v.09ZM134.13 262.94v-9.54H134l-2.81 2.04v-1.46l2.94-2.12h1.38v11.08h-1.38ZM128.3 263.02c-.27 0-.5-.1-.7-.3a.98.98 0 0 1-.3-.7c0-.27.1-.51.3-.7.2-.2.44-.3.7-.3.28 0 .52.1.71.3a.98.98 0 0 1 0 1.41c-.2.2-.43.29-.7.29ZM123 262.94v-9.54h-.11l-2.82 2.04v-1.46l2.95-2.12h1.37v11.08h-1.38ZM114.04 263.13c-.78 0-1.47-.14-2.08-.41a3.5 3.5 0 0 1-1.43-1.12 2.77 2.77 0 0 1-.51-1.65v-.02a2.73 2.73 0 0 1 1.14-2.25c.35-.28.77-.47 1.24-.58v-.03c-.6-.19-1.09-.5-1.44-.94a2.33 2.33 0 0 1-.54-1.53v-.01c0-.56.16-1.06.47-1.49.3-.44.74-.78 1.29-1.04a4.35 4.35 0 0 1 1.86-.38c.7 0 1.32.13 1.87.38s.98.6 1.29 1.04c.31.44.47.93.47 1.49v.01c0 .59-.18 1.1-.54 1.53-.35.44-.84.75-1.44.94v.03a3.1 3.1 0 0 1 2.08 1.57c.2.38.3.8.3 1.26v.02c0 .62-.18 1.17-.52 1.65-.34.47-.82.85-1.43 1.12-.6.27-1.3.4-2.08.4Zm0-1.2c.51 0 .96-.1 1.35-.27.4-.18.7-.42.93-.73.23-.31.34-.67.34-1.07v-.01c0-.4-.11-.76-.34-1.08a2.22 2.22 0 0 0-.92-.73c-.4-.18-.85-.27-1.36-.27-.5 0-.96.09-1.36.27-.4.18-.7.42-.93.73-.22.32-.33.67-.33 1.08v.01c0 .4.12.76.34 1.07.23.3.54.55.93.73.4.17.85.26 1.35.26Zm0-5.38c.45 0 .84-.07 1.18-.23.34-.15.6-.37.79-.65.19-.27.28-.6.28-.95v-.01c0-.36-.1-.68-.28-.96-.2-.27-.45-.49-.8-.64a2.73 2.73 0 0 0-1.17-.24c-.44 0-.83.08-1.17.24-.34.15-.6.37-.8.64-.18.28-.28.6-.28.96v.01c0 .36.1.68.29.95.19.28.45.5.79.66.34.15.73.23 1.17.23ZM105.67 262.94v-9.54h-.12l-2.82 2.04v-1.46l2.95-2.12h1.38v11.08h-1.39Z" fill="#fff"/><path d="M88.63 192.19h70.75a2.62 2.62 0 0 1 2.62 2.62v20.96a2.62 2.62 0 0 1-2.62 2.63H88.63v-26.21Z" fill="#3860F6"/><path opacity=".7" d="m137.9 210.53 4.97-9.73v-.1h-5.93v-1.24h7.34v1.28l-4.93 9.8h-1.45ZM131.35 210.72c-.77 0-1.43-.13-2-.4a3.07 3.07 0 0 1-1.92-2.63v-.09h1.32l.01.08c.03.36.16.68.38.96.23.27.53.5.9.65.38.15.81.23 1.3.23a3 3 0 0 0 1.28-.25c.37-.17.66-.4.86-.7.2-.3.3-.65.3-1.04v-.01c0-.68-.22-1.2-.68-1.57a2.83 2.83 0 0 0-1.84-.55h-1.39v-1.17h1.33c.44 0 .83-.08 1.17-.24a2 2 0 0 0 .79-.69c.19-.29.28-.62.28-.99v-.01c0-.4-.08-.72-.24-1-.17-.27-.4-.47-.72-.62-.32-.14-.7-.21-1.15-.21-.43 0-.82.07-1.17.22-.33.15-.6.35-.8.62-.21.28-.34.6-.38.97v.08h-1.33v-.08c.07-.6.25-1.13.57-1.58.32-.45.75-.8 1.28-1.05a4.27 4.27 0 0 1 1.83-.38c.7 0 1.32.12 1.84.37.53.24.94.58 1.23 1 .29.43.43.92.43 1.49v.01a2.43 2.43 0 0 1-1.13 2.1c-.35.23-.76.4-1.22.5v.03c.81.06 1.46.34 1.96.82.5.47.75 1.1.75 1.9v.01c0 .62-.16 1.16-.5 1.65-.33.49-.78.87-1.36 1.15-.58.28-1.24.42-1.98.42ZM124.08 208.96c-.27 0-.5-.1-.7-.3a.98.98 0 0 1-.3-.7c0-.28.1-.51.3-.7.2-.2.43-.3.7-.3.28 0 .52.1.71.3.2.19.3.43.3.7 0 .27-.1.5-.3.7-.2.2-.43.3-.7.3Zm0-5.94c-.27 0-.5-.1-.7-.3a.98.98 0 0 1-.3-.7c0-.28.1-.51.3-.7.2-.2.43-.3.7-.3.28 0 .52.1.71.3.2.19.3.42.3.7 0 .27-.1.5-.3.7-.2.2-.43.3-.7.3ZM117.93 210.53v-2.3h-5.4v-1.25a249.7 249.7 0 0 1 3.8-6.1c.32-.49.63-.96.95-1.42h2V207h1.57v1.24h-1.57v2.3h-1.35Zm-3.99-3.52h4v-6.27h-.1a79.92 79.92 0 0 0-1.56 2.4 279.94 279.94 0 0 0-2.34 3.78v.09ZM106.67 210.8c-.82 0-1.52-.24-2.1-.71a4.46 4.46 0 0 1-1.34-2 9.15 9.15 0 0 1-.46-3.1c0-1.2.15-2.22.46-3.09.32-.86.76-1.53 1.34-2 .58-.47 1.28-.7 2.1-.7.82 0 1.52.23 2.1.7a4.43 4.43 0 0 1 1.35 2c.32.87.48 1.9.48 3.08v.02a9 9 0 0 1-.48 3.08 4.44 4.44 0 0 1-1.34 2c-.59.48-1.29.71-2.1.71Zm0-1.21c.54 0 .99-.19 1.36-.56.38-.38.67-.9.87-1.59.2-.69.3-1.5.3-2.44v-.02c0-.94-.1-1.75-.3-2.43a3.53 3.53 0 0 0-.87-1.58 1.85 1.85 0 0 0-1.36-.56c-.52 0-.98.18-1.36.56-.37.37-.66.9-.86 1.58-.2.68-.3 1.5-.3 2.43v.02c0 .94.1 1.75.3 2.44.2.69.5 1.22.86 1.59.38.37.84.56 1.36.56Z" fill="#fff"/><path d="M36.22 168.6a2.62 2.62 0 0 1 2.62-2.61h48.48v26.2H38.84a2.62 2.62 0 0 1-2.62-2.62v-20.96Z" fill="#3860F6"/><path d="M75.37 184.33v-11.08h1.38v9.84h5.34v1.24h-6.72ZM66.06 180.38v-1.23h3.13c.8 0 1.41-.2 1.85-.62.43-.41.65-.98.65-1.7v-.03c0-.73-.22-1.3-.65-1.7a2.59 2.59 0 0 0-1.85-.62h-3.13v-1.23h3.49c.7 0 1.3.15 1.84.45.53.3.95.7 1.25 1.24.3.53.46 1.15.46 1.85v.02c0 .7-.15 1.32-.46 1.85-.3.54-.72.96-1.25 1.26-.53.3-1.15.46-1.84.46h-3.49Zm-.69 3.95v-11.08h1.38v11.08h-1.38ZM53.9 184.33l4.08-11.08h1.06v1.79h-.44l-3.26 9.29H53.9Zm1.84-3.17.43-1.18h5l.44 1.18h-5.87Zm6.24 3.17-3.26-9.29v-1.79h.62l4.09 11.08h-1.45ZM43.3 184.33l4.08-11.08h1.06v1.79H48l-3.25 9.29H43.3Zm1.85-3.17.43-1.18h5l.43 1.18h-5.86Zm6.23 3.17-3.25-9.29v-1.79h.62l4.08 11.08h-1.45Z" fill="#fff"/><path d="M48.01 221.01a2.62 2.62 0 0 1 2.62-2.61h36.69v26.2H50.63a2.62 2.62 0 0 1-2.62-2.62V221Z" fill="#3860F6"/><path d="M74.39 236.88a3.18 3.18 0 0 1-3.04-2.01 5.51 5.51 0 0 1-.43-2.26v-.02c0-.86.14-1.62.43-2.25.29-.64.69-1.14 1.2-1.5a3.2 3.2 0 0 1 1.84-.52 3.08 3.08 0 0 1 1.97.68c.26.21.46.47.6.77h.13v-4.6h1.34v11.57h-1.34v-1.32h-.12a2.83 2.83 0 0 1-1.51 1.29c-.33.11-.69.17-1.07.17Zm.3-1.18c.5 0 .94-.12 1.3-.38.37-.25.65-.6.84-1.06.2-.47.3-1.02.3-1.65v-.02c0-.64-.1-1.19-.3-1.65a2.23 2.23 0 0 0-2.13-1.44c-.5 0-.94.12-1.3.38-.36.24-.64.6-.83 1.05a4.35 4.35 0 0 0-.28 1.66v.02c0 .64.1 1.19.28 1.66.2.46.47.81.83 1.06s.8.37 1.3.37ZM67.48 236.74v-8.28h1.34v8.28h-1.34Zm.68-9.88a.9.9 0 0 1-.66-.26.9.9 0 0 1-.27-.66c0-.25.1-.47.27-.65a.9.9 0 0 1 .66-.27c.25 0 .47.1.65.27.18.18.27.4.27.65a.9.9 0 0 1-.27.66.89.89 0 0 1-.65.27ZM57.98 236.74v-1.22h3.42c.83 0 1.47-.17 1.9-.5.43-.33.64-.82.64-1.45v-.02c0-.42-.1-.78-.3-1.06-.2-.3-.5-.5-.9-.65-.4-.14-.88-.22-1.47-.22h-3.3v-1.19h2.9c.85 0 1.48-.14 1.9-.44.42-.3.63-.74.63-1.32v-.02c0-.56-.19-1-.57-1.3a2.45 2.45 0 0 0-1.6-.47h-3.25v-1.22h3.54c.68 0 1.27.11 1.75.34a2.55 2.55 0 0 1 1.53 2.42v.01a2.52 2.52 0 0 1-.94 1.94c-.29.23-.61.38-.97.44v.12c.5.06.94.22 1.31.46.37.24.65.55.85.93.2.38.31.81.31 1.3v.02a3 3 0 0 1-.45 1.66c-.3.46-.73.82-1.28 1.07-.56.25-1.23.37-2.02.37h-3.63Zm-.7 0v-11.08h1.39v11.08h-1.38Z" fill="#fff"/><path fill="url(#fywnarsqp)" d="M0 179h37v1H0z"/></g><path d="M0 294a12 12 0 0 1 12-12h550a12 12 0 0 1 12 12v46H0v-46Z" fill="url(#gywnarsqp)"/><path d="M493 320h20.08v1.43H493V320Z" fill="#B2B5BE"/><path opacity=".6" d="m20.58 318 5.2-14.1h1.34v2.25h-.54L22.42 318h-1.84Zm2.36-4.03.56-1.5h6.33l.56 1.5h-7.45Zm7.94 4.03-4.17-11.86v-2.23h.8L32.73 318h-1.84Zm7.74.19c-.98 0-1.83-.23-2.55-.67a4.52 4.52 0 0 1-1.67-1.88 6.6 6.6 0 0 1-.59-2.88v-.02c0-1.1.2-2.04.59-2.84.4-.8.95-1.42 1.67-1.86a4.73 4.73 0 0 1 2.54-.67c.85 0 1.58.16 2.2.46a3.9 3.9 0 0 1 2.16 2.9l.01.07H41.3l-.02-.04a2.37 2.37 0 0 0-.86-1.32 2.74 2.74 0 0 0-1.81-.56c-.63 0-1.17.16-1.62.48-.46.31-.81.76-1.07 1.33a5.2 5.2 0 0 0-.37 2.06c0 .81.13 1.51.38 2.1.26.58.61 1.03 1.07 1.35.46.32 1 .48 1.6.48.72 0 1.3-.16 1.74-.47.45-.32.76-.77.94-1.35l.02-.06 1.68-.01-.02.1a3.87 3.87 0 0 1-2.2 2.88c-.6.28-1.31.42-2.14.42Zm10.97 0c-.98 0-1.83-.23-2.55-.67a4.52 4.52 0 0 1-1.67-1.88 6.6 6.6 0 0 1-.58-2.88v-.02c0-1.1.2-2.04.58-2.84a4.48 4.48 0 0 1 4.21-2.52c.85 0 1.59.15 2.2.45a3.9 3.9 0 0 1 2.17 2.9v.07h-1.67l-.02-.04a2.38 2.38 0 0 0-.87-1.32 2.74 2.74 0 0 0-1.8-.56c-.63 0-1.17.16-1.63.48-.46.31-.81.76-1.06 1.33a5.2 5.2 0 0 0-.38 2.06c0 .81.13 1.51.38 2.1.26.58.61 1.03 1.07 1.35.46.32 1 .48 1.61.48.71 0 1.29-.16 1.73-.47.45-.32.76-.77.95-1.35l.02-.06 1.68-.01-.02.1c-.13.63-.38 1.2-.76 1.7-.37.5-.85.89-1.45 1.18-.6.28-1.31.42-2.14.42Zm11 0c-1 0-1.84-.22-2.57-.66a4.38 4.38 0 0 1-1.68-1.86c-.39-.81-.58-1.77-.58-2.88v-.02c0-1.12.2-2.08.58-2.88.4-.81.96-1.43 1.68-1.86a4.84 4.84 0 0 1 2.55-.65c1 0 1.84.21 2.56.65a4.25 4.25 0 0 1 1.67 1.86c.4.8.6 1.76.6 2.88v.02c0 1.1-.2 2.07-.6 2.88-.39.8-.95 1.43-1.67 1.86a4.8 4.8 0 0 1-2.55.66Zm0-1.5c.64 0 1.19-.16 1.64-.47.46-.31.82-.76 1.06-1.34.24-.57.37-1.27.37-2.1v-.01c0-.82-.13-1.52-.37-2.1a2.85 2.85 0 0 0-1.06-1.33c-.45-.3-1-.46-1.66-.46-.64 0-1.2.15-1.66.46-.45.3-.8.75-1.05 1.33a5.46 5.46 0 0 0-.36 2.1v.02c0 .81.12 1.51.36 2.1a3 3 0 0 0 1.05 1.33c.46.3 1.02.46 1.67.46Zm10.8 1.5c-.78 0-1.44-.15-1.98-.45-.54-.31-.94-.75-1.22-1.33a4.94 4.94 0 0 1-.4-2.08v-6.77h1.7v6.38c0 .92.19 1.6.56 2.06.37.45.97.68 1.8.68.45 0 .84-.07 1.19-.2a2.4 2.4 0 0 0 1.42-1.51c.12-.37.18-.78.18-1.24v-6.17h1.7V318h-1.7v-1.54h-.13a2.88 2.88 0 0 1-1.75 1.52c-.4.14-.86.2-1.37.2Zm7.94-.19v-10.44h1.7v1.55h.14c.27-.54.65-.96 1.15-1.27.5-.3 1.15-.46 1.92-.46 1.17 0 2.07.33 2.7 1.01.63.67.95 1.62.95 2.84V318h-1.7v-6.38c0-.92-.2-1.6-.6-2.06-.4-.45-1-.68-1.83-.68a2.5 2.5 0 0 0-2.4 1.39c-.22.43-.33.95-.33 1.56V318h-1.7Zm15.1.1c-1.04 0-1.8-.21-2.29-.65-.47-.44-.71-1.16-.71-2.14v-6.34H89.8v-1.4h1.62v-2.73h1.76v2.72h2.21v1.4H93.2v6.01c0 .6.11 1.03.35 1.28.23.25.61.37 1.14.37a5.5 5.5 0 0 0 .72-.04v1.44l-.47.06c-.16.02-.33.03-.5.03Zm8.95-.1v-14.1h2.03l4.85 11.8h.12l4.85-11.8h2.04V318h-1.64v-10.8h-.85l1.95-2.9-5.66 13.7h-1.49l-5.66-13.7 1.94 2.9h-.84V318h-1.64Zm19.94.19c-.67 0-1.26-.13-1.79-.38a3.06 3.06 0 0 1-1.24-1.08 3 3 0 0 1-.45-1.65v-.02c0-.62.15-1.14.44-1.58a3 3 0 0 1 1.3-1.05c.57-.25 1.25-.4 2.06-.45l3.84-.22v1.35l-3.64.22c-.77.05-1.34.21-1.71.5-.37.29-.55.69-.55 1.2v.02c0 .52.2.93.59 1.22.4.3.9.44 1.5.44.58 0 1.08-.11 1.52-.34.45-.23.8-.54 1.06-.94.25-.4.38-.84.38-1.34v-3.2c0-.65-.2-1.15-.59-1.5-.39-.34-.97-.51-1.74-.51-.63 0-1.15.12-1.56.36-.4.24-.67.56-.8.99v.04h-1.69l.01-.07c.08-.56.3-1.04.66-1.47.35-.42.83-.75 1.41-1a5.28 5.28 0 0 1 2.02-.36 5 5 0 0 1 2.15.43c.6.27 1.05.66 1.36 1.19.31.51.47 1.13.47 1.84V318h-1.7v-1.57h-.13a3.46 3.46 0 0 1-1.88 1.55 4 4 0 0 1-1.3.2Zm7.94-.19v-10.44h1.7v1.55h.14c.27-.54.65-.96 1.15-1.27.5-.3 1.15-.46 1.93-.46 1.16 0 2.06.33 2.69 1.01.63.67.95 1.62.95 2.84V318h-1.7v-6.38c0-.92-.2-1.6-.6-2.06-.4-.45-1-.68-1.83-.68a2.5 2.5 0 0 0-2.4 1.39c-.22.43-.33.95-.33 1.56V318h-1.7Zm14.37.19c-.66 0-1.26-.13-1.78-.38a3.06 3.06 0 0 1-1.24-1.08 2.99 2.99 0 0 1-.45-1.65v-.02c0-.62.14-1.14.44-1.58a3 3 0 0 1 1.3-1.05c.56-.25 1.25-.4 2.06-.45l3.83-.22v1.35l-3.63.22c-.77.05-1.35.21-1.72.5-.36.29-.54.69-.54 1.2v.02c0 .52.19.93.58 1.22.4.3.9.44 1.51.44.57 0 1.07-.11 1.52-.34.45-.23.8-.54 1.05-.94.26-.4.38-.84.38-1.34v-3.2c0-.65-.2-1.15-.58-1.5-.4-.34-.97-.51-1.74-.51-.64 0-1.16.12-1.56.36-.4.24-.67.56-.8.99l-.01.04h-1.68v-.07c.09-.56.3-1.04.66-1.47.36-.42.83-.75 1.42-1a5.28 5.28 0 0 1 2.02-.36 5 5 0 0 1 2.15.43c.6.27 1.05.66 1.35 1.19.32.51.47 1.13.47 1.84V318h-1.7v-1.57h-.12a3.46 3.46 0 0 1-1.88 1.55 4 4 0 0 1-1.3.2Zm12.27 3.5c-.84 0-1.57-.12-2.2-.36a3.67 3.67 0 0 1-1.5-1 2.93 2.93 0 0 1-.72-1.47l.02-.03h1.74l.02.03c.1.39.4.7.85.96.45.24 1.05.37 1.8.37a3.3 3.3 0 0 0 2.17-.66c.52-.43.78-1.04.78-1.81v-1.94h-.12a3.45 3.45 0 0 1-1.94 1.62c-.41.14-.86.2-1.34.2-.9 0-1.68-.2-2.34-.64a4.28 4.28 0 0 1-1.52-1.8 6.22 6.22 0 0 1-.54-2.66c0-1.01.18-1.9.55-2.66.36-.77.87-1.38 1.53-1.81a4.2 4.2 0 0 1 2.35-.65 3.76 3.76 0 0 1 2.45.9c.33.28.6.62.8 1.02h.11v-1.74h1.7v10.26c0 .79-.19 1.47-.56 2.05a3.71 3.71 0 0 1-1.62 1.34 5.9 5.9 0 0 1-2.47.48Zm-.07-5.58a2.86 2.86 0 0 0 2.7-1.73c.24-.54.36-1.17.36-1.88 0-.72-.12-1.34-.37-1.88-.25-.55-.6-.98-1.06-1.28-.46-.3-1-.46-1.63-.46-.65 0-1.2.15-1.65.46-.44.3-.79.73-1.03 1.27a4.71 4.71 0 0 0-.35 1.88v.01c0 .72.12 1.35.35 1.89.24.54.59.96 1.03 1.27.45.3 1 .44 1.65.44Zm12 2.08a4.34 4.34 0 0 1-4.22-2.52 6.58 6.58 0 0 1-.58-2.86c0-1.08.19-2.02.57-2.84a4.5 4.5 0 0 1 1.64-1.9c.7-.46 1.53-.7 2.48-.7a4.21 4.21 0 0 1 4.01 2.5c.36.79.55 1.7.55 2.74v.65h-8.38v-1.35h7.52l-.84 1.24v-.67c0-.82-.13-1.5-.37-2.02a2.65 2.65 0 0 0-1.02-1.18 2.8 2.8 0 0 0-1.48-.4 2.8 2.8 0 0 0-1.5.42c-.45.27-.8.68-1.06 1.21-.26.53-.38 1.2-.38 1.97v.67c0 .74.12 1.37.37 1.9.25.52.61.92 1.07 1.2.47.28 1.02.42 1.65.42.46 0 .87-.06 1.21-.2.36-.12.64-.29.87-.5.23-.2.39-.42.48-.65l.04-.08h1.69l-.02.07c-.09.38-.24.73-.48 1.08a4.02 4.02 0 0 1-2.19 1.56c-.5.16-1.04.24-1.64.24Zm6.92-.19v-10.44h1.7v1.6h.14c.19-.56.52-1 .98-1.3a2.98 2.98 0 0 1 1.72-.49 5.73 5.73 0 0 1 .81.07v1.65a4.65 4.65 0 0 0-1.02-.1c-.5 0-.96.11-1.36.32-.4.2-.7.5-.94.89a2.6 2.6 0 0 0-.33 1.34V318h-1.7Z" fill="#fff"/><g filter="url(#hywnarsqp)"><rect x="199" y="294" width="77" height="38" rx="8" fill="#313132"/><path d="M216.33 320v-12.51h-4.51v-1.58h10.8v1.58h-4.53V320h-1.76Zm6.97 0v-10.44h1.7v1.6h.14c.19-.56.51-1 .98-1.3a2.98 2.98 0 0 1 1.72-.49 5.73 5.73 0 0 1 .81.07v1.65a4.65 4.65 0 0 0-1.02-.1c-.5 0-.96.11-1.36.32-.4.2-.71.5-.94.89a2.6 2.6 0 0 0-.33 1.34V320h-1.7Zm10.21.19c-.66 0-1.26-.13-1.79-.38a3.06 3.06 0 0 1-1.24-1.08 3 3 0 0 1-.45-1.65v-.02c0-.62.15-1.14.44-1.58a3 3 0 0 1 1.3-1.05c.57-.25 1.25-.4 2.06-.45l3.84-.22v1.35l-3.63.22c-.78.05-1.35.21-1.72.5-.37.29-.55.69-.55 1.2v.02c0 .52.2.93.59 1.22.4.3.9.44 1.51.44.57 0 1.07-.11 1.51-.34.46-.23.8-.54 1.06-.94.25-.4.38-.84.38-1.34v-3.2c0-.65-.2-1.15-.58-1.5-.4-.34-.98-.51-1.74-.51-.64 0-1.16.12-1.57.36-.4.24-.67.56-.8.99v.04h-1.69l.01-.07c.08-.56.3-1.04.66-1.47.36-.42.83-.75 1.41-1a5.28 5.28 0 0 1 2.02-.36 5 5 0 0 1 2.15.43c.6.27 1.06.66 1.36 1.19.31.51.47 1.13.47 1.84V320h-1.7v-1.57h-.13a3.46 3.46 0 0 1-1.88 1.55c-.39.14-.82.2-1.3.2Zm11.82 0a4.05 4.05 0 0 1-3.85-2.55 6.93 6.93 0 0 1-.54-2.85v-.02c0-1.1.18-2.04.54-2.85.37-.8.88-1.43 1.54-1.87a3.99 3.99 0 0 1 2.3-.68 3.9 3.9 0 0 1 2.5.87c.32.28.59.6.77.99h.14v-5.8h1.7V320h-1.7v-1.69h-.14a3.49 3.49 0 0 1-1.91 1.65 3.9 3.9 0 0 1-1.35.23Zm.37-1.5a2.8 2.8 0 0 0 1.62-.48c.47-.32.82-.77 1.07-1.35a5.3 5.3 0 0 0 .37-2.07v-.02c0-.8-.13-1.48-.38-2.06a2.75 2.75 0 0 0-2.68-1.83 2.8 2.8 0 0 0-1.62.47c-.45.31-.8.76-1.04 1.34a5.4 5.4 0 0 0-.36 2.08v.02c0 .8.12 1.5.36 2.08.24.58.59 1.03 1.04 1.34.46.31 1 .47 1.62.47Zm12.1 1.5a4.34 4.34 0 0 1-4.22-2.52 6.58 6.58 0 0 1-.58-2.86c0-1.08.2-2.02.58-2.84a4.5 4.5 0 0 1 1.63-1.9c.71-.46 1.54-.7 2.48-.7s1.76.23 2.44.67c.69.44 1.21 1.05 1.57 1.83.37.79.55 1.7.55 2.74v.65h-8.38v-1.35h7.52l-.84 1.24v-.67c0-.82-.12-1.5-.37-2.02a2.65 2.65 0 0 0-1.01-1.18 2.8 2.8 0 0 0-1.49-.4 2.8 2.8 0 0 0-1.5.42c-.45.27-.8.68-1.06 1.21-.25.53-.38 1.2-.38 1.97v.67c0 .74.13 1.37.37 1.9.26.52.61.92 1.08 1.2.46.28 1.02.42 1.65.42.46 0 .86-.06 1.2-.2.36-.12.65-.29.88-.5.22-.2.38-.42.48-.65l.04-.08h1.68l-.01.07c-.09.38-.25.73-.48 1.08a4.02 4.02 0 0 1-2.2 1.56c-.49.16-1.03.24-1.63.24Z" fill="#fff"/></g><path fill-rule="evenodd" clip-rule="evenodd" d="M552.1 299.78h-15.25a3.85 3.85 0 0 0-3.85 3.84v3.33h1.44v-3.33a2.41 2.41 0 0 1 2.4-2.4l15.26-.01a2.41 2.41 0 0 1 2.41 2.41v3.33h1.44v-3.33a3.85 3.85 0 0 0-3.85-3.84Zm-17.67 19.1a2.41 2.41 0 0 0 2.42 2.41h15.25a2.41 2.41 0 0 0 2.41-2.41v-3.33h1.44v3.33a3.85 3.85 0 0 1-3.85 3.84h-15.25a3.85 3.85 0 0 1-3.85-3.84v-3.33h1.43v3.33Z" fill="#B2B5BE"/></g></g><defs><linearGradient id="cywnarsqp" x1="435.5" y1="0" x2="435.5" y2="340" gradientUnits="userSpaceOnUse"><stop stop-color="#141414"/><stop offset="1"/></linearGradient><linearGradient id="dywnarsqp" x1="435.5" y1="0" x2="435.5" y2="340" gradientUnits="userSpaceOnUse"><stop stop-color="#3F3F3F"/><stop offset="1" stop-color="#3F3F3F" stop-opacity="0"/></linearGradient><linearGradient id="fywnarsqp" x1="0" y1="179.5" x2="37" y2="179.5" gradientUnits="userSpaceOnUse"><stop offset="1" stop-color="#2962FF"/><stop stop-color="#193B99" stop-opacity="0"/></linearGradient><linearGradient id="gywnarsqp" x1="287" y1="282" x2="287" y2="340" gradientUnits="userSpaceOnUse"><stop stop-color="#1D1D1D"/><stop offset="1" stop-opacity="0"/></linearGradient><clipPath id="aywnarsqp"><path fill="#fff" d="M0 0h684v340H0z"/></clipPath><clipPath id="bywnarsqp"><path fill="#fff" d="M0 0h684v340H0z"/></clipPath><clipPath id="eywnarsqp"><path fill="#fff" transform="translate(0 24)" d="M0 0h162v247H0z"/></clipPath><filter id="hywnarsqp" x="171.25" y="266.25" width="132.51" height="93.51" filterUnits="userSpaceOnUse" color-interpolation-filters="sRGB"><feFlood flood-opacity="0" result="BackgroundImageFix"/><feGaussianBlur in="BackgroundImageFix" stdDeviation="13.88"/><feComposite in2="SourceAlpha" operator="in" result="effect1_backgroundBlur_1685_78304"/><feBlend in="SourceGraphic" in2="effect1_backgroundBlur_1685_78304" result="shape"/></filter></defs></svg>