<svg xmlns="http://www.w3.org/2000/svg" width="200" height="80" viewBox="0 0 200 80"><path fill="#5AB0CF" d="M121.82 14.1h-5.72l16.3 25.95L116 66h5.62l16.4-25.95z"/><path fill="#74777B" d="M156 14.1h-5.72l-11.66 18.02 2.92 4.33zm-17.38 33.87L150.38 66H156l-14.56-22.36zm-82.46 1.06h17.28l-1.9-4H57.97l9.44-23.35c0 .1 18.08 44.32 18.18 44.32 5.93 0 12.86.1 18.17-1.78 15.57-4.13 21.1-21.86 14.67-35.36C110.5 12.32 89.78 14 74.01 14.1l2.74 3c10.05.2 24.1.26 31.94 7.44 9.14 7.29 9.94 23.15 1.4 31.03C104.67 60.58 96.64 61.2 89 61L69.73 14.09H65.3C65.1 14.3 44 65.8 44 66h5.23z"/></svg>