<svg xmlns="http://www.w3.org/2000/svg" width="132" height="60" viewBox="0 0 132 60"><path fill="#FCD700" d="M24.87 45c3.95 0 7.73-1.59 10.52-4.4a15.06 15.06 0 0 0 0-21.2 14.8 14.8 0 0 0-21.03 0 15.06 15.06 0 0 0 0 21.2A14.8 14.8 0 0 0 24.87 45"/><path fill="#fff" d="M30.07 44.05c-2.65 1-5.52 1.22-8.29.62V29.5c-3.73.31-3.6-3.22-3.6-3.22q1.36-1.07 2.3-2.54c.88-1.39 3.27-1.85 3.27-1.85l-.57-1.76c1.22-.27 2.05 1.76 2.05 1.76v-2.35q1 .34 1.3.77l.18.33c.42.86.45 1.92.45 1.92a5.3 5.3 0 0 1 2.47 4.08c0 1.21.33 13.18.44 17.41m20.32-4.98c.45 0 .58-.23.75-.79L52.58 34h6.48l1.47 4.28c.17.57.35.8.8.8h.26c.6 0 1.5-.02 1.74-.1a.5.5 0 0 0 .3-.5q-.01-.37-.17-.79l-5.09-14.97c-.43-1.27-.68-1.83-2.04-1.83h-.63c-1.5 0-1.85.61-2.28 1.9l-5.18 14.96c-.1.25-.19.53-.19.76 0 .18.06.38.32.46.27.08 1.59.1 2.02.1m7.98-7.6h-5.05c1.56-4.79 2.1-6.37 2.56-7.98.47 1.61.93 3.14 2.5 7.98m11.36 7.65c.45 0 .65-.12.73-.48.05-.23.1-.77.1-1.15q0-.5-.48-.59c-.73-.12-1.24-.36-1.44-.7q-.3-.74-.25-1.54V20.6c0-.44-.1-.66-.56-.66H66.2c-.46 0-.61.25-.61.66v14.43c0 1.27.15 2.11.48 2.65.56.9 1.52 1.45 3.67 1.45m5.16 5.84c.45 0 .7-.15.7-.66v-5.38c.56.28 1.65.4 2.44.4 4.14 0 6.14-1.32 6.14-6.95 0-5-1.62-6.46-5.3-6.46-1.86 0-4.1.41-5.12.87-.38.18-.7.41-.83.74-.1.26-.13.66-.13 1.02V44.3c0 .53.18.66.58.66zm2.9-8.08a5 5 0 0 1-1.82-.28c-.27-.1-.37-.28-.37-.82v-6q-.02-.41.07-.66.09-.23.4-.38a7 7 0 0 1 2.49-.44c2.24 0 2.77 1.2 2.77 4.09 0 3.49-.68 4.48-3.53 4.48m13.33 2.45c1.75 0 3.92-.33 4.9-.74q.5-.17.82-.6c.22-.27.27-.68.27-1.14v-6.6c0-1.73-.2-2.73-.85-3.37-.71-.7-1.85-1-4.03-1-1.3 0-2.95.22-4.24.6-.31.1-.51.28-.51.66 0 .23.1.87.2 1.25q.11.39.48.4c.18 0 .7-.1 1.02-.15.88-.17 1.84-.28 2.65-.28 1.67 0 2.15.33 2.35.87.12.33.16.9.16 1.38v.84a25 25 0 0 0-2.46-.1c-1.67 0-3.18.25-3.99.76-1 .64-1.42 1.58-1.42 3.11 0 2.2.78 4.1 4.65 4.1zm.36-2.22c-1.9 0-2.33-.8-2.33-1.96 0-.72.18-1.1.56-1.33.45-.3 1.24-.44 2.5-.44.7 0 1.6.06 2.12.1v2q.01.51-.1.86-.08.28-.43.44c-.45.17-1.24.33-2.32.33m14.23 2.21c1.22 0 2.56-.12 3.67-.53q.45-.13.44-.61c0-.25-.16-.87-.26-1.25q-.12-.35-.44-.35c-.2 0-.52.07-.73.12a11 11 0 0 1-2.37.23c-2.46 0-3.06-1.45-3.06-4.34 0-2.6.45-4.25 3.26-4.25q1.17.02 1.92.18c.23.02.56.1.76.1q.34 0 .45-.38c.1-.39.25-1.2.25-1.46q.01-.4-.42-.56c-.79-.22-1.87-.33-2.98-.33-4.48 0-6.08 2.2-6.08 6.94 0 4.97 2.03 6.5 5.6 6.5zm10.3 0c1.74 0 3.91-.32 4.9-.73q.49-.17.8-.6c.24-.27.29-.68.29-1.14v-6.6c0-1.73-.2-2.73-.86-3.37-.71-.7-1.85-1-4.03-1-1.3 0-2.95.22-4.24.6-.31.1-.51.28-.51.66 0 .23.1.87.2 1.25q.11.39.49.4c.17 0 .68-.1 1-.15.9-.17 1.85-.28 2.66-.28 1.67 0 2.15.33 2.36.87.12.33.15.9.15 1.38v.84q-1.23-.11-2.45-.1c-1.68 0-3.2.25-4 .76-.99.64-1.42 1.58-1.42 3.11 0 2.2.79 4.1 4.65 4.1m.35-2.21c-1.9 0-2.33-.8-2.33-1.96 0-.72.18-1.1.56-1.33.45-.3 1.24-.44 2.5-.44.71 0 1.6.06 2.12.1v2q.01.51-.1.86-.07.28-.43.44c-.45.17-1.24.33-2.32.33"/><path fill="#D8D8D8" d="M25.98 20.76c0 .67-.33 1.2-.74 1.2s-.74-.53-.74-1.2c0-.68.33-1.22.74-1.22s.74.54.74 1.22m-7.74 5.67h-.03q-.05 0-.04-.1v-.03q0-.06.06-.08l.1-.07h.04v.15c0 .14-.07.13-.13.13m4.93-6.31c-.14.04-.11.48.06.98s.42.86.55.82.11-.5-.06-.99c-.16-.5-.41-.86-.55-.82zm-.44 5.47h-.9s.07-.56.5-.56h.97s-.13.57-.57.57"/></svg>