<svg xmlns="http://www.w3.org/2000/svg" width="200" height="60" viewBox="0 0 200 60"><path fill="#FCD700" d="M50.06 47.99c4.8 0 9.39-1.9 12.77-5.27a17.96 17.96 0 0 0 0-25.45 18.1 18.1 0 0 0-25.54 0 17.96 17.96 0 0 0 0 25.45 18 18 0 0 0 12.77 5.27"/><path fill="#fff" d="M56.37 46.87a18 18 0 0 1-10.07.73V29.4c-4.52.38-4.37-3.86-4.37-3.86q1.66-1.29 2.8-3.06c1.07-1.66 3.97-2.2 3.97-2.2l-.7-2.12c1.49-.33 2.5 2.11 2.5 2.11v-2.82q1.2.4 1.56.92l.23.4c.5 1.03.55 2.3.55 2.3a6.4 6.4 0 0 1 3 4.9c0 1.45.4 15.82.53 20.9m24.67-5.98c.55 0 .7-.28.92-.95l1.75-5.14h7.86l1.78 5.14c.21.68.43.95.99.95h.3c.73 0 1.83-.02 2.12-.12a.6.6 0 0 0 .36-.59q-.02-.44-.2-.95l-6.18-17.96c-.52-1.53-.84-2.2-2.49-2.2h-.76c-1.82 0-2.24.73-2.77 2.27l-6.29 17.95c-.12.3-.22.65-.22.93 0 .2.07.45.38.55.33.09 1.93.12 2.45.12m9.7-9.12H84.6c1.9-5.75 2.55-7.65 3.1-9.58.58 1.93 1.14 3.77 3.04 9.58m13.79 9.18c.55 0 .8-.15.9-.58.05-.28.11-.92.11-1.39q.01-.6-.58-.7-1.36-.22-1.75-.85a4 4 0 0 1-.3-1.83V18.7c0-.52-.13-.79-.69-.79h-1.99c-.55 0-.74.3-.74.8V36c0 1.54.19 2.55.58 3.2.68 1.07 1.85 1.73 4.46 1.73m6.26 7c.55 0 .86-.18.86-.8V40.7c.68.34 2 .49 2.95.49 5.03 0 7.46-1.59 7.46-8.35 0-6-1.96-7.74-6.44-7.74-2.25 0-4.98.49-6.21 1.04-.46.22-.86.49-1.01.89-.12.3-.15.8-.15 1.22v18.9c0 .65.2.8.7.8zm3.53-9.7q-1.14.03-2.2-.33c-.34-.13-.46-.34-.46-.98v-7.2c0-.33 0-.6.09-.8q.1-.27.48-.45c.77-.34 2-.53 3.02-.53 2.72 0 3.37 1.44 3.37 4.9 0 4.2-.83 5.38-4.3 5.38zm16.19 2.95c2.12 0 4.75-.4 5.95-.9q.6-.2.98-.7c.28-.34.34-.83.34-1.38v-7.9c0-2.08-.24-3.27-1.04-4.04-.86-.85-2.24-1.2-4.89-1.2-1.59 0-3.59.26-5.15.72-.38.12-.62.33-.62.79 0 .27.12 1.04.25 1.5q.13.46.58.48c.22 0 .84-.12 1.23-.18a18 18 0 0 1 3.22-.34c2.03 0 2.61.4 2.86 1.04.15.4.19 1.08.19 1.66v1q-1.5-.12-2.98-.11c-2.03 0-3.87.3-4.85.91-1.2.77-1.73 1.9-1.73 3.74 0 2.62.96 4.92 5.66 4.92m.43-2.67c-2.3 0-2.83-.95-2.83-2.35 0-.86.21-1.32.68-1.6.55-.37 1.5-.52 3.03-.52.87 0 1.94.06 2.58.12v2.39q.02.62-.12 1.04-.1.33-.52.52c-.55.21-1.5.4-2.82.4m17.28 2.66c1.48 0 3.1-.15 4.45-.64.38-.12.53-.33.53-.73 0-.3-.19-1.05-.3-1.5q-.16-.43-.54-.43c-.24 0-.63.1-.88.15-.89.18-1.72.27-2.88.27-2.99 0-3.72-1.73-3.72-5.2 0-3.12.55-5.1 3.96-5.1a12 12 0 0 1 2.33.21c.28.03.68.12.92.12q.42 0 .55-.45c.12-.47.3-1.44.3-1.75q.01-.47-.5-.67a14 14 0 0 0-3.63-.4c-5.44 0-7.37 2.63-7.37 8.32 0 5.96 2.45 7.8 6.79 7.8zm12.5 0c2.12 0 4.76-.4 5.95-.88q.6-.22.99-.71c.28-.34.34-.83.34-1.38V30.3c0-2.08-.25-3.27-1.05-4.04-.86-.85-2.24-1.2-4.88-1.2-1.6 0-3.6.26-5.15.72-.38.12-.62.33-.62.79 0 .27.12 1.04.24 1.5q.14.46.59.48c.21 0 .83-.12 1.23-.18a18 18 0 0 1 3.21-.34c2.04 0 2.62.4 2.87 1.04.15.4.18 1.08.18 1.66v1q-1.48-.12-2.98-.11c-2.03 0-3.87.3-4.84.91-1.21.77-1.73 1.9-1.73 3.74 0 2.62.95 4.92 5.65 4.92m.43-2.66c-2.3 0-2.83-.95-2.83-2.35 0-.86.22-1.32.69-1.6.54-.37 1.5-.52 3.03-.52.86 0 1.94.06 2.57.12v2.39q.01.62-.11 1.04-.1.33-.53.52c-.55.21-1.5.4-2.82.4"/><path fill="#D8D8D8" d="M51.41 18.9c0 .81-.4 1.46-.9 1.46s-.9-.65-.9-1.45c0-.81.4-1.46.9-1.46s.9.65.9 1.46m-9.4 6.82h-.04q-.06-.02-.05-.12v-.04c0-.06.02-.06.07-.1l.13-.08h.05v.18c0 .16-.1.16-.16.16m5.98-7.58c-.16.06-.13.59.08 1.18.2.6.5 1.04.67.98.16-.06.13-.59-.08-1.18-.2-.6-.5-1.04-.67-.98m-.53 6.57h-1.09s.08-.67.6-.67h1.17s-.15.68-.68.68"/></svg>