<svg width="201" height="80" viewBox="0 0 201 80" xmlns="http://www.w3.org/2000/svg"><path d="M96.87 52.23H88.3V45.1h8.56a3.53 3.53 0 0 1 3.53 3.53c0 1.95-1.58 3.6-3.53 3.6ZM88.3 32.2h7.8a3.52 3.52 0 1 1 0 7.06h-7.8v-7.06Zm16.82 9.23a9.35 9.35 0 0 0-7.44-15.08H80.5V58H99.2c5.19 0 9.4-4.2 9.4-9.38a9.27 9.27 0 0 0-3.46-7.2ZM133.97 20.63c0 1.13-.45 2.1-1.35 2.86a5.1 5.1 0 0 1-3.38 1.12c-1.28 0-2.4-.37-3.3-1.05a3.9 3.9 0 0 1-1.58-2.78h3.53c.3.68.75 1.05 1.42 1.05.45 0 .75-.07 1.05-.3.3-.22.38-.52.38-.9 0-.37-.15-.6-.38-.82-.3-.23-.6-.3-1.12-.3h-1.2v-2.48h1.12c.45 0 .83-.08 1.05-.3.23-.23.38-.45.38-.75 0-.38-.15-.68-.38-.9-.22-.23-.6-.3-.97-.3-.45 0-.75.15-1.06.45-.15.15-.3.37-.37.67h-3.3c.22-1.2.67-2.17 1.57-2.85a4.84 4.84 0 0 1 3.16-1.05c1.35 0 2.4.38 3.3 1.05a3.6 3.6 0 0 1 1.28 2.78c0 1.05-.45 1.8-1.28 2.33a2.67 2.67 0 0 1 1.43 2.47Z" fill="#fff"/><path d="M80.57 20.25v-3.9H68.63V68h11.94v-3.83h-8.03V20.25h8.03ZM108.36 64.17V68h11.94V16.35h-11.94v3.9h8.11v43.92h-8.11Z" fill="#fff"/></svg>