<svg width="1921" height="816" viewBox="0 0 1921 816" fill="none" xmlns="http://www.w3.org/2000/svg"><g clip-path="url(#awioq1lrp)"><g opacity=".3" filter="url(#bwioq1lrp)"><ellipse cx="960.5" cy="359.5" rx="960.5" ry="359.5" fill="url(#cwioq1lrp)"/></g><path fill="url(#dwioq1lrp)" d="M1 0h1920v817H1z"/><g opacity=".3"><g opacity=".3" filter="url(#ewioq1lrp)"><path d="M1015 106c.9 2.3 2.71 4.1 5 5-2.29.9-4.1 2.7-5 5a8.84 8.84 0 0 0-5-5c2.29-.9 4.1-2.7 5-5Z" fill="#fff"/></g><g opacity=".3" filter="url(#fwioq1lrp)"><path d="M1212 86c.9 2.3 2.71 4.1 5 5-2.29.9-4.1 2.7-5 5a8.84 8.84 0 0 0-5-5c2.29-.9 4.1-2.7 5-5Z" fill="#fff"/></g><g opacity=".3" filter="url(#gwioq1lrp)"><path d="M1378 75c.9 2.3 2.71 4.1 5 5-2.29.9-4.1 2.7-5 5a8.84 8.84 0 0 0-5-5c2.29-.9 4.1-2.7 5-5Z" fill="#fff"/></g><g opacity=".9" filter="url(#hwioq1lrp)"><path d="M1057.5 77a4.4 4.4 0 0 0 2.5 2.5 4.4 4.4 0 0 0-2.5 2.5 4.4 4.4 0 0 0-2.5-2.5 4.4 4.4 0 0 0 2.5-2.5Z" fill="#fff"/></g><g opacity=".9" filter="url(#iwioq1lrp)"><path d="M1262.5 68a4.4 4.4 0 0 0 2.5 2.5 4.4 4.4 0 0 0-2.5 2.5 4.4 4.4 0 0 0-2.5-2.5 4.4 4.4 0 0 0 2.5-2.5Z" fill="#fff"/></g><g opacity=".9" filter="url(#jwioq1lrp)"><path d="M1427.5 110a4.4 4.4 0 0 0 2.5 2.5 4.4 4.4 0 0 0-2.5 2.5 4.4 4.4 0 0 0-2.5-2.5 4.4 4.4 0 0 0 2.5-2.5Z" fill="#fff"/></g><g opacity=".4" filter="url(#kwioq1lrp)"><path d="M1087 111a3.52 3.52 0 0 0 2 2 3.52 3.52 0 0 0-2 2 3.52 3.52 0 0 0-2-2 3.52 3.52 0 0 0 2-2Z" fill="#fff"/></g><g opacity=".4" filter="url(#lwioq1lrp)"><path d="M1293 104a3.52 3.52 0 0 0 2 2 3.52 3.52 0 0 0-2 2 3.52 3.52 0 0 0-2-2 3.52 3.52 0 0 0 2-2Z" fill="#fff"/></g><g opacity=".4" filter="url(#mwioq1lrp)"><path d="M1478 82a3.52 3.52 0 0 0 2 2 3.52 3.52 0 0 0-2 2 3.52 3.52 0 0 0-2-2 3.52 3.52 0 0 0 2-2Z" fill="#fff"/></g><g opacity=".4" filter="url(#nwioq1lrp)"><path d="M1109 85c.18.46.54.82 1 1-.46.18-.82.54-1 1a1.76 1.76 0 0 0-1-1c.46-.18.82-.54 1-1Z" fill="#fff"/></g><g opacity=".4" filter="url(#owioq1lrp)"><path d="M1322 84c.18.46.54.82 1 1-.46.18-.82.54-1 1a1.76 1.76 0 0 0-1-1c.46-.18.82-.54 1-1Z" fill="#fff"/></g></g><g opacity=".3"><g opacity=".3" filter="url(#pwioq1lrp)"><path d="M906 61c-.9 2.3-2.7 4.1-5 5 2.3.9 4.1 2.7 5 5 .9-2.3 2.7-4.1 5-5-2.3-.9-4.1-2.7-5-5Z" fill="#fff"/></g><g opacity=".3" filter="url(#qwioq1lrp)"><path d="M715 60c-.9 2.3-2.7 4.1-5 5 2.3.9 4.1 2.7 5 5 .9-2.3 2.7-4.1 5-5-2.3-.9-4.1-2.7-5-5Z" fill="#fff"/></g><g opacity=".3" filter="url(#rwioq1lrp)"><path d="M526 21c-.9 2.3-2.7 4.1-5 5 2.3.9 4.1 2.7 5 5 .9-2.3 2.7-4.1 5-5-2.3-.9-4.1-2.7-5-5Z" fill="#fff"/></g><g opacity=".9" filter="url(#swioq1lrp)"><path d="M864.5 42a4.42 4.42 0 0 1-2.5 2.5 4.42 4.42 0 0 1 2.5 2.5 4.42 4.42 0 0 1 2.5-2.5 4.42 4.42 0 0 1-2.5-2.5Z" fill="#fff"/></g><g opacity=".9" filter="url(#twioq1lrp)"><path d="M679.5 40a4.42 4.42 0 0 1-2.5 2.5 4.42 4.42 0 0 1 2.5 2.5 4.42 4.42 0 0 1 2.5-2.5 4.42 4.42 0 0 1-2.5-2.5Z" fill="#fff"/></g><g opacity=".9" filter="url(#uwioq1lrp)"><path d="M477.5 64a4.42 4.42 0 0 1-2.5 2.5 4.42 4.42 0 0 1 2.5 2.5 4.42 4.42 0 0 1 2.5-2.5 4.42 4.42 0 0 1-2.5-2.5Z" fill="#fff"/></g><g opacity=".4" filter="url(#vwioq1lrp)"><path d="M829 66a3.53 3.53 0 0 1-2 2 3.53 3.53 0 0 1 2 2 3.53 3.53 0 0 1 2-2 3.53 3.53 0 0 1-2-2Z" fill="#fff"/></g><g opacity=".4" filter="url(#wwioq1lrp)"><path d="M650 69a3.53 3.53 0 0 1-2 2 3.53 3.53 0 0 1 2 2 3.53 3.53 0 0 1 2-2 3.53 3.53 0 0 1-2-2Z" fill="#fff"/></g><g opacity=".4" filter="url(#xwioq1lrp)"><path d="M411 45a3.53 3.53 0 0 1-2 2 3.53 3.53 0 0 1 2 2 3.53 3.53 0 0 1 2-2 3.53 3.53 0 0 1-2-2Z" fill="#fff"/></g><g opacity=".4" filter="url(#ywioq1lrp)"><path d="M813 44c-.18.46-.54.82-1 1 .46.18.82.54 1 1 .18-.46.54-.82 1-1a1.76 1.76 0 0 1-1-1Z" fill="#fff"/></g><g opacity=".4" filter="url(#zwioq1lrp)"><path d="M620 44c-.18.46-.54.82-1 1 .46.18.82.54 1 1 .18-.46.54-.82 1-1a1.76 1.76 0 0 1-1-1Z" fill="#fff"/></g></g><g opacity=".5" filter="url(#aawioq1lrp)"><path d="M1155 97a12.36 12.36 0 0 0 7 7 12.36 12.36 0 0 0-7 7 12.36 12.36 0 0 0-7-7 12.36 12.36 0 0 0 7-7Z" fill="#fff"/></g><g opacity=".6" filter="url(#abwioq1lrp)"><path d="M576 54c-.9 2.3-2.7 4.1-5 5 2.3.9 4.1 2.7 5 5 .9-2.3 2.7-4.1 5-5-2.3-.9-4.1-2.7-5-5Z" fill="#fff"/></g><g filter="url(#acwioq1lrp)"><path d="M771 47a12.36 12.36 0 0 1-7 7c3.2 1.26 5.74 3.8 7 7 1.26-3.2 3.8-5.74 7-7a12.36 12.36 0 0 1-7-7Z" fill="#fff"/></g></g><defs><filter id="bwioq1lrp" x="-10" y="-10" width="1941" height="739" filterUnits="userSpaceOnUse" color-interpolation-filters="sRGB"><feFlood flood-opacity="0" result="BackgroundImageFix"/><feBlend in="SourceGraphic" in2="BackgroundImageFix" result="shape"/><feGaussianBlur stdDeviation="5" result="effect1_foregroundBlur_12126_109794"/></filter><filter id="ewioq1lrp" x="998" y="94" width="34" height="34" filterUnits="userSpaceOnUse" color-interpolation-filters="sRGB"><feFlood flood-opacity="0" result="BackgroundImageFix"/><feColorMatrix in="SourceAlpha" values="0 0 0 0 0 0 0 0 0 0 0 0 0 0 0 0 0 0 127 0" result="hardAlpha"/><feOffset/><feGaussianBlur stdDeviation="6"/><feComposite in2="hardAlpha" operator="out"/><feColorMatrix values="0 0 0 0 0.509804 0 0 0 0 0.168627 0 0 0 0 0.701961 0 0 0 1 0"/><feBlend in2="BackgroundImageFix" result="effect1_dropShadow_12126_109794"/><feColorMatrix in="SourceAlpha" values="0 0 0 0 0 0 0 0 0 0 0 0 0 0 0 0 0 0 127 0" result="hardAlpha"/><feOffset/><feGaussianBlur stdDeviation="2"/><feComposite in2="hardAlpha" operator="out"/><feColorMatrix values="0 0 0 0 0.196078 0 0 0 0 0.0901961 0 0 0 0 0.52549 0 0 0 1 0"/><feBlend in2="effect1_dropShadow_12126_109794" result="effect2_dropShadow_12126_109794"/><feBlend in="SourceGraphic" in2="effect2_dropShadow_12126_109794" result="shape"/></filter><filter id="fwioq1lrp" x="1195" y="74" width="34" height="34" filterUnits="userSpaceOnUse" color-interpolation-filters="sRGB"><feFlood flood-opacity="0" result="BackgroundImageFix"/><feColorMatrix in="SourceAlpha" values="0 0 0 0 0 0 0 0 0 0 0 0 0 0 0 0 0 0 127 0" result="hardAlpha"/><feOffset/><feGaussianBlur stdDeviation="6"/><feComposite in2="hardAlpha" operator="out"/><feColorMatrix values="0 0 0 0 0.509804 0 0 0 0 0.168627 0 0 0 0 0.701961 0 0 0 1 0"/><feBlend in2="BackgroundImageFix" result="effect1_dropShadow_12126_109794"/><feColorMatrix in="SourceAlpha" values="0 0 0 0 0 0 0 0 0 0 0 0 0 0 0 0 0 0 127 0" result="hardAlpha"/><feOffset/><feGaussianBlur stdDeviation="2"/><feComposite in2="hardAlpha" operator="out"/><feColorMatrix values="0 0 0 0 0.196078 0 0 0 0 0.0901961 0 0 0 0 0.52549 0 0 0 1 0"/><feBlend in2="effect1_dropShadow_12126_109794" result="effect2_dropShadow_12126_109794"/><feBlend in="SourceGraphic" in2="effect2_dropShadow_12126_109794" result="shape"/></filter><filter id="gwioq1lrp" x="1361" y="63" width="34" height="34" filterUnits="userSpaceOnUse" color-interpolation-filters="sRGB"><feFlood flood-opacity="0" result="BackgroundImageFix"/><feColorMatrix in="SourceAlpha" values="0 0 0 0 0 0 0 0 0 0 0 0 0 0 0 0 0 0 127 0" result="hardAlpha"/><feOffset/><feGaussianBlur stdDeviation="6"/><feComposite in2="hardAlpha" operator="out"/><feColorMatrix values="0 0 0 0 0.509804 0 0 0 0 0.168627 0 0 0 0 0.701961 0 0 0 1 0"/><feBlend in2="BackgroundImageFix" result="effect1_dropShadow_12126_109794"/><feColorMatrix in="SourceAlpha" values="0 0 0 0 0 0 0 0 0 0 0 0 0 0 0 0 0 0 127 0" result="hardAlpha"/><feOffset/><feGaussianBlur stdDeviation="2"/><feComposite in2="hardAlpha" operator="out"/><feColorMatrix values="0 0 0 0 0.196078 0 0 0 0 0.0901961 0 0 0 0 0.52549 0 0 0 1 0"/><feBlend in2="effect1_dropShadow_12126_109794" result="effect2_dropShadow_12126_109794"/><feBlend in="SourceGraphic" in2="effect2_dropShadow_12126_109794" result="shape"/></filter><filter id="hwioq1lrp" x="1043" y="65" width="29" height="29" filterUnits="userSpaceOnUse" color-interpolation-filters="sRGB"><feFlood flood-opacity="0" result="BackgroundImageFix"/><feColorMatrix in="SourceAlpha" values="0 0 0 0 0 0 0 0 0 0 0 0 0 0 0 0 0 0 127 0" result="hardAlpha"/><feOffset/><feGaussianBlur stdDeviation="6"/><feComposite in2="hardAlpha" operator="out"/><feColorMatrix values="0 0 0 0 0.509804 0 0 0 0 0.168627 0 0 0 0 0.701961 0 0 0 1 0"/><feBlend in2="BackgroundImageFix" result="effect1_dropShadow_12126_109794"/><feColorMatrix in="SourceAlpha" values="0 0 0 0 0 0 0 0 0 0 0 0 0 0 0 0 0 0 127 0" result="hardAlpha"/><feOffset/><feGaussianBlur stdDeviation="2"/><feComposite in2="hardAlpha" operator="out"/><feColorMatrix values="0 0 0 0 0.196078 0 0 0 0 0.0901961 0 0 0 0 0.52549 0 0 0 1 0"/><feBlend in2="effect1_dropShadow_12126_109794" result="effect2_dropShadow_12126_109794"/><feBlend in="SourceGraphic" in2="effect2_dropShadow_12126_109794" result="shape"/></filter><filter id="iwioq1lrp" x="1248" y="56" width="29" height="29" filterUnits="userSpaceOnUse" color-interpolation-filters="sRGB"><feFlood flood-opacity="0" result="BackgroundImageFix"/><feColorMatrix in="SourceAlpha" values="0 0 0 0 0 0 0 0 0 0 0 0 0 0 0 0 0 0 127 0" result="hardAlpha"/><feOffset/><feGaussianBlur stdDeviation="6"/><feComposite in2="hardAlpha" operator="out"/><feColorMatrix values="0 0 0 0 0.509804 0 0 0 0 0.168627 0 0 0 0 0.701961 0 0 0 1 0"/><feBlend in2="BackgroundImageFix" result="effect1_dropShadow_12126_109794"/><feColorMatrix in="SourceAlpha" values="0 0 0 0 0 0 0 0 0 0 0 0 0 0 0 0 0 0 127 0" result="hardAlpha"/><feOffset/><feGaussianBlur stdDeviation="2"/><feComposite in2="hardAlpha" operator="out"/><feColorMatrix values="0 0 0 0 0.196078 0 0 0 0 0.0901961 0 0 0 0 0.52549 0 0 0 1 0"/><feBlend in2="effect1_dropShadow_12126_109794" result="effect2_dropShadow_12126_109794"/><feBlend in="SourceGraphic" in2="effect2_dropShadow_12126_109794" result="shape"/></filter><filter id="jwioq1lrp" x="1413" y="98" width="29" height="29" filterUnits="userSpaceOnUse" color-interpolation-filters="sRGB"><feFlood flood-opacity="0" result="BackgroundImageFix"/><feColorMatrix in="SourceAlpha" values="0 0 0 0 0 0 0 0 0 0 0 0 0 0 0 0 0 0 127 0" result="hardAlpha"/><feOffset/><feGaussianBlur stdDeviation="6"/><feComposite in2="hardAlpha" operator="out"/><feColorMatrix values="0 0 0 0 0.509804 0 0 0 0 0.168627 0 0 0 0 0.701961 0 0 0 1 0"/><feBlend in2="BackgroundImageFix" result="effect1_dropShadow_12126_109794"/><feColorMatrix in="SourceAlpha" values="0 0 0 0 0 0 0 0 0 0 0 0 0 0 0 0 0 0 127 0" result="hardAlpha"/><feOffset/><feGaussianBlur stdDeviation="2"/><feComposite in2="hardAlpha" operator="out"/><feColorMatrix values="0 0 0 0 0.196078 0 0 0 0 0.0901961 0 0 0 0 0.52549 0 0 0 1 0"/><feBlend in2="effect1_dropShadow_12126_109794" result="effect2_dropShadow_12126_109794"/><feBlend in="SourceGraphic" in2="effect2_dropShadow_12126_109794" result="shape"/></filter><filter id="kwioq1lrp" x="1073" y="99" width="28" height="28" filterUnits="userSpaceOnUse" color-interpolation-filters="sRGB"><feFlood flood-opacity="0" result="BackgroundImageFix"/><feColorMatrix in="SourceAlpha" values="0 0 0 0 0 0 0 0 0 0 0 0 0 0 0 0 0 0 127 0" result="hardAlpha"/><feOffset/><feGaussianBlur stdDeviation="6"/><feComposite in2="hardAlpha" operator="out"/><feColorMatrix values="0 0 0 0 0.509804 0 0 0 0 0.168627 0 0 0 0 0.701961 0 0 0 1 0"/><feBlend in2="BackgroundImageFix" result="effect1_dropShadow_12126_109794"/><feColorMatrix in="SourceAlpha" values="0 0 0 0 0 0 0 0 0 0 0 0 0 0 0 0 0 0 127 0" result="hardAlpha"/><feOffset/><feGaussianBlur stdDeviation="2"/><feComposite in2="hardAlpha" operator="out"/><feColorMatrix values="0 0 0 0 0.196078 0 0 0 0 0.0901961 0 0 0 0 0.52549 0 0 0 1 0"/><feBlend in2="effect1_dropShadow_12126_109794" result="effect2_dropShadow_12126_109794"/><feBlend in="SourceGraphic" in2="effect2_dropShadow_12126_109794" result="shape"/></filter><filter id="lwioq1lrp" x="1279" y="92" width="28" height="28" filterUnits="userSpaceOnUse" color-interpolation-filters="sRGB"><feFlood flood-opacity="0" result="BackgroundImageFix"/><feColorMatrix in="SourceAlpha" values="0 0 0 0 0 0 0 0 0 0 0 0 0 0 0 0 0 0 127 0" result="hardAlpha"/><feOffset/><feGaussianBlur stdDeviation="6"/><feComposite in2="hardAlpha" operator="out"/><feColorMatrix values="0 0 0 0 0.509804 0 0 0 0 0.168627 0 0 0 0 0.701961 0 0 0 1 0"/><feBlend in2="BackgroundImageFix" result="effect1_dropShadow_12126_109794"/><feColorMatrix in="SourceAlpha" values="0 0 0 0 0 0 0 0 0 0 0 0 0 0 0 0 0 0 127 0" result="hardAlpha"/><feOffset/><feGaussianBlur stdDeviation="2"/><feComposite in2="hardAlpha" operator="out"/><feColorMatrix values="0 0 0 0 0.196078 0 0 0 0 0.0901961 0 0 0 0 0.52549 0 0 0 1 0"/><feBlend in2="effect1_dropShadow_12126_109794" result="effect2_dropShadow_12126_109794"/><feBlend in="SourceGraphic" in2="effect2_dropShadow_12126_109794" result="shape"/></filter><filter id="mwioq1lrp" x="1464" y="70" width="28" height="28" filterUnits="userSpaceOnUse" color-interpolation-filters="sRGB"><feFlood flood-opacity="0" result="BackgroundImageFix"/><feColorMatrix in="SourceAlpha" values="0 0 0 0 0 0 0 0 0 0 0 0 0 0 0 0 0 0 127 0" result="hardAlpha"/><feOffset/><feGaussianBlur stdDeviation="6"/><feComposite in2="hardAlpha" operator="out"/><feColorMatrix values="0 0 0 0 0.509804 0 0 0 0 0.168627 0 0 0 0 0.701961 0 0 0 1 0"/><feBlend in2="BackgroundImageFix" result="effect1_dropShadow_12126_109794"/><feColorMatrix in="SourceAlpha" values="0 0 0 0 0 0 0 0 0 0 0 0 0 0 0 0 0 0 127 0" result="hardAlpha"/><feOffset/><feGaussianBlur stdDeviation="2"/><feComposite in2="hardAlpha" operator="out"/><feColorMatrix values="0 0 0 0 0.196078 0 0 0 0 0.0901961 0 0 0 0 0.52549 0 0 0 1 0"/><feBlend in2="effect1_dropShadow_12126_109794" result="effect2_dropShadow_12126_109794"/><feBlend in="SourceGraphic" in2="effect2_dropShadow_12126_109794" result="shape"/></filter><filter id="nwioq1lrp" x="1096" y="73" width="26" height="26" filterUnits="userSpaceOnUse" color-interpolation-filters="sRGB"><feFlood flood-opacity="0" result="BackgroundImageFix"/><feColorMatrix in="SourceAlpha" values="0 0 0 0 0 0 0 0 0 0 0 0 0 0 0 0 0 0 127 0" result="hardAlpha"/><feOffset/><feGaussianBlur stdDeviation="6"/><feComposite in2="hardAlpha" operator="out"/><feColorMatrix values="0 0 0 0 0.509804 0 0 0 0 0.168627 0 0 0 0 0.701961 0 0 0 1 0"/><feBlend in2="BackgroundImageFix" result="effect1_dropShadow_12126_109794"/><feColorMatrix in="SourceAlpha" values="0 0 0 0 0 0 0 0 0 0 0 0 0 0 0 0 0 0 127 0" result="hardAlpha"/><feOffset/><feGaussianBlur stdDeviation="2"/><feComposite in2="hardAlpha" operator="out"/><feColorMatrix values="0 0 0 0 0.196078 0 0 0 0 0.0901961 0 0 0 0 0.52549 0 0 0 1 0"/><feBlend in2="effect1_dropShadow_12126_109794" result="effect2_dropShadow_12126_109794"/><feBlend in="SourceGraphic" in2="effect2_dropShadow_12126_109794" result="shape"/></filter><filter id="owioq1lrp" x="1309" y="72" width="26" height="26" filterUnits="userSpaceOnUse" color-interpolation-filters="sRGB"><feFlood flood-opacity="0" result="BackgroundImageFix"/><feColorMatrix in="SourceAlpha" values="0 0 0 0 0 0 0 0 0 0 0 0 0 0 0 0 0 0 127 0" result="hardAlpha"/><feOffset/><feGaussianBlur stdDeviation="6"/><feComposite in2="hardAlpha" operator="out"/><feColorMatrix values="0 0 0 0 0.509804 0 0 0 0 0.168627 0 0 0 0 0.701961 0 0 0 1 0"/><feBlend in2="BackgroundImageFix" result="effect1_dropShadow_12126_109794"/><feColorMatrix in="SourceAlpha" values="0 0 0 0 0 0 0 0 0 0 0 0 0 0 0 0 0 0 127 0" result="hardAlpha"/><feOffset/><feGaussianBlur stdDeviation="2"/><feComposite in2="hardAlpha" operator="out"/><feColorMatrix values="0 0 0 0 0.196078 0 0 0 0 0.0901961 0 0 0 0 0.52549 0 0 0 1 0"/><feBlend in2="effect1_dropShadow_12126_109794" result="effect2_dropShadow_12126_109794"/><feBlend in="SourceGraphic" in2="effect2_dropShadow_12126_109794" result="shape"/></filter><filter id="pwioq1lrp" x="889" y="49" width="34" height="34" filterUnits="userSpaceOnUse" color-interpolation-filters="sRGB"><feFlood flood-opacity="0" result="BackgroundImageFix"/><feColorMatrix in="SourceAlpha" values="0 0 0 0 0 0 0 0 0 0 0 0 0 0 0 0 0 0 127 0" result="hardAlpha"/><feOffset/><feGaussianBlur stdDeviation="6"/><feComposite in2="hardAlpha" operator="out"/><feColorMatrix values="0 0 0 0 0.509804 0 0 0 0 0.168627 0 0 0 0 0.701961 0 0 0 1 0"/><feBlend in2="BackgroundImageFix" result="effect1_dropShadow_12126_109794"/><feColorMatrix in="SourceAlpha" values="0 0 0 0 0 0 0 0 0 0 0 0 0 0 0 0 0 0 127 0" result="hardAlpha"/><feOffset/><feGaussianBlur stdDeviation="2"/><feComposite in2="hardAlpha" operator="out"/><feColorMatrix values="0 0 0 0 0.196078 0 0 0 0 0.0901961 0 0 0 0 0.52549 0 0 0 1 0"/><feBlend in2="effect1_dropShadow_12126_109794" result="effect2_dropShadow_12126_109794"/><feBlend in="SourceGraphic" in2="effect2_dropShadow_12126_109794" result="shape"/></filter><filter id="qwioq1lrp" x="698" y="48" width="34" height="34" filterUnits="userSpaceOnUse" color-interpolation-filters="sRGB"><feFlood flood-opacity="0" result="BackgroundImageFix"/><feColorMatrix in="SourceAlpha" values="0 0 0 0 0 0 0 0 0 0 0 0 0 0 0 0 0 0 127 0" result="hardAlpha"/><feOffset/><feGaussianBlur stdDeviation="6"/><feComposite in2="hardAlpha" operator="out"/><feColorMatrix values="0 0 0 0 0.509804 0 0 0 0 0.168627 0 0 0 0 0.701961 0 0 0 1 0"/><feBlend in2="BackgroundImageFix" result="effect1_dropShadow_12126_109794"/><feColorMatrix in="SourceAlpha" values="0 0 0 0 0 0 0 0 0 0 0 0 0 0 0 0 0 0 127 0" result="hardAlpha"/><feOffset/><feGaussianBlur stdDeviation="2"/><feComposite in2="hardAlpha" operator="out"/><feColorMatrix values="0 0 0 0 0.196078 0 0 0 0 0.0901961 0 0 0 0 0.52549 0 0 0 1 0"/><feBlend in2="effect1_dropShadow_12126_109794" result="effect2_dropShadow_12126_109794"/><feBlend in="SourceGraphic" in2="effect2_dropShadow_12126_109794" result="shape"/></filter><filter id="rwioq1lrp" x="509" y="9" width="34" height="34" filterUnits="userSpaceOnUse" color-interpolation-filters="sRGB"><feFlood flood-opacity="0" result="BackgroundImageFix"/><feColorMatrix in="SourceAlpha" values="0 0 0 0 0 0 0 0 0 0 0 0 0 0 0 0 0 0 127 0" result="hardAlpha"/><feOffset/><feGaussianBlur stdDeviation="6"/><feComposite in2="hardAlpha" operator="out"/><feColorMatrix values="0 0 0 0 0.509804 0 0 0 0 0.168627 0 0 0 0 0.701961 0 0 0 1 0"/><feBlend in2="BackgroundImageFix" result="effect1_dropShadow_12126_109794"/><feColorMatrix in="SourceAlpha" values="0 0 0 0 0 0 0 0 0 0 0 0 0 0 0 0 0 0 127 0" result="hardAlpha"/><feOffset/><feGaussianBlur stdDeviation="2"/><feComposite in2="hardAlpha" operator="out"/><feColorMatrix values="0 0 0 0 0.196078 0 0 0 0 0.0901961 0 0 0 0 0.52549 0 0 0 1 0"/><feBlend in2="effect1_dropShadow_12126_109794" result="effect2_dropShadow_12126_109794"/><feBlend in="SourceGraphic" in2="effect2_dropShadow_12126_109794" result="shape"/></filter><filter id="swioq1lrp" x="850" y="30" width="29" height="29" filterUnits="userSpaceOnUse" color-interpolation-filters="sRGB"><feFlood flood-opacity="0" result="BackgroundImageFix"/><feColorMatrix in="SourceAlpha" values="0 0 0 0 0 0 0 0 0 0 0 0 0 0 0 0 0 0 127 0" result="hardAlpha"/><feOffset/><feGaussianBlur stdDeviation="6"/><feComposite in2="hardAlpha" operator="out"/><feColorMatrix values="0 0 0 0 0.509804 0 0 0 0 0.168627 0 0 0 0 0.701961 0 0 0 1 0"/><feBlend in2="BackgroundImageFix" result="effect1_dropShadow_12126_109794"/><feColorMatrix in="SourceAlpha" values="0 0 0 0 0 0 0 0 0 0 0 0 0 0 0 0 0 0 127 0" result="hardAlpha"/><feOffset/><feGaussianBlur stdDeviation="2"/><feComposite in2="hardAlpha" operator="out"/><feColorMatrix values="0 0 0 0 0.196078 0 0 0 0 0.0901961 0 0 0 0 0.52549 0 0 0 1 0"/><feBlend in2="effect1_dropShadow_12126_109794" result="effect2_dropShadow_12126_109794"/><feBlend in="SourceGraphic" in2="effect2_dropShadow_12126_109794" result="shape"/></filter><filter id="twioq1lrp" x="665" y="28" width="29" height="29" filterUnits="userSpaceOnUse" color-interpolation-filters="sRGB"><feFlood flood-opacity="0" result="BackgroundImageFix"/><feColorMatrix in="SourceAlpha" values="0 0 0 0 0 0 0 0 0 0 0 0 0 0 0 0 0 0 127 0" result="hardAlpha"/><feOffset/><feGaussianBlur stdDeviation="6"/><feComposite in2="hardAlpha" operator="out"/><feColorMatrix values="0 0 0 0 0.509804 0 0 0 0 0.168627 0 0 0 0 0.701961 0 0 0 1 0"/><feBlend in2="BackgroundImageFix" result="effect1_dropShadow_12126_109794"/><feColorMatrix in="SourceAlpha" values="0 0 0 0 0 0 0 0 0 0 0 0 0 0 0 0 0 0 127 0" result="hardAlpha"/><feOffset/><feGaussianBlur stdDeviation="2"/><feComposite in2="hardAlpha" operator="out"/><feColorMatrix values="0 0 0 0 0.196078 0 0 0 0 0.0901961 0 0 0 0 0.52549 0 0 0 1 0"/><feBlend in2="effect1_dropShadow_12126_109794" result="effect2_dropShadow_12126_109794"/><feBlend in="SourceGraphic" in2="effect2_dropShadow_12126_109794" result="shape"/></filter><filter id="uwioq1lrp" x="463" y="52" width="29" height="29" filterUnits="userSpaceOnUse" color-interpolation-filters="sRGB"><feFlood flood-opacity="0" result="BackgroundImageFix"/><feColorMatrix in="SourceAlpha" values="0 0 0 0 0 0 0 0 0 0 0 0 0 0 0 0 0 0 127 0" result="hardAlpha"/><feOffset/><feGaussianBlur stdDeviation="6"/><feComposite in2="hardAlpha" operator="out"/><feColorMatrix values="0 0 0 0 0.509804 0 0 0 0 0.168627 0 0 0 0 0.701961 0 0 0 1 0"/><feBlend in2="BackgroundImageFix" result="effect1_dropShadow_12126_109794"/><feColorMatrix in="SourceAlpha" values="0 0 0 0 0 0 0 0 0 0 0 0 0 0 0 0 0 0 127 0" result="hardAlpha"/><feOffset/><feGaussianBlur stdDeviation="2"/><feComposite in2="hardAlpha" operator="out"/><feColorMatrix values="0 0 0 0 0.196078 0 0 0 0 0.0901961 0 0 0 0 0.52549 0 0 0 1 0"/><feBlend in2="effect1_dropShadow_12126_109794" result="effect2_dropShadow_12126_109794"/><feBlend in="SourceGraphic" in2="effect2_dropShadow_12126_109794" result="shape"/></filter><filter id="vwioq1lrp" x="815" y="54" width="28" height="28" filterUnits="userSpaceOnUse" color-interpolation-filters="sRGB"><feFlood flood-opacity="0" result="BackgroundImageFix"/><feColorMatrix in="SourceAlpha" values="0 0 0 0 0 0 0 0 0 0 0 0 0 0 0 0 0 0 127 0" result="hardAlpha"/><feOffset/><feGaussianBlur stdDeviation="6"/><feComposite in2="hardAlpha" operator="out"/><feColorMatrix values="0 0 0 0 0.509804 0 0 0 0 0.168627 0 0 0 0 0.701961 0 0 0 1 0"/><feBlend in2="BackgroundImageFix" result="effect1_dropShadow_12126_109794"/><feColorMatrix in="SourceAlpha" values="0 0 0 0 0 0 0 0 0 0 0 0 0 0 0 0 0 0 127 0" result="hardAlpha"/><feOffset/><feGaussianBlur stdDeviation="2"/><feComposite in2="hardAlpha" operator="out"/><feColorMatrix values="0 0 0 0 0.196078 0 0 0 0 0.0901961 0 0 0 0 0.52549 0 0 0 1 0"/><feBlend in2="effect1_dropShadow_12126_109794" result="effect2_dropShadow_12126_109794"/><feBlend in="SourceGraphic" in2="effect2_dropShadow_12126_109794" result="shape"/></filter><filter id="wwioq1lrp" x="636" y="57" width="28" height="28" filterUnits="userSpaceOnUse" color-interpolation-filters="sRGB"><feFlood flood-opacity="0" result="BackgroundImageFix"/><feColorMatrix in="SourceAlpha" values="0 0 0 0 0 0 0 0 0 0 0 0 0 0 0 0 0 0 127 0" result="hardAlpha"/><feOffset/><feGaussianBlur stdDeviation="6"/><feComposite in2="hardAlpha" operator="out"/><feColorMatrix values="0 0 0 0 0.509804 0 0 0 0 0.168627 0 0 0 0 0.701961 0 0 0 1 0"/><feBlend in2="BackgroundImageFix" result="effect1_dropShadow_12126_109794"/><feColorMatrix in="SourceAlpha" values="0 0 0 0 0 0 0 0 0 0 0 0 0 0 0 0 0 0 127 0" result="hardAlpha"/><feOffset/><feGaussianBlur stdDeviation="2"/><feComposite in2="hardAlpha" operator="out"/><feColorMatrix values="0 0 0 0 0.196078 0 0 0 0 0.0901961 0 0 0 0 0.52549 0 0 0 1 0"/><feBlend in2="effect1_dropShadow_12126_109794" result="effect2_dropShadow_12126_109794"/><feBlend in="SourceGraphic" in2="effect2_dropShadow_12126_109794" result="shape"/></filter><filter id="xwioq1lrp" x="397" y="33" width="28" height="28" filterUnits="userSpaceOnUse" color-interpolation-filters="sRGB"><feFlood flood-opacity="0" result="BackgroundImageFix"/><feColorMatrix in="SourceAlpha" values="0 0 0 0 0 0 0 0 0 0 0 0 0 0 0 0 0 0 127 0" result="hardAlpha"/><feOffset/><feGaussianBlur stdDeviation="6"/><feComposite in2="hardAlpha" operator="out"/><feColorMatrix values="0 0 0 0 0.509804 0 0 0 0 0.168627 0 0 0 0 0.701961 0 0 0 1 0"/><feBlend in2="BackgroundImageFix" result="effect1_dropShadow_12126_109794"/><feColorMatrix in="SourceAlpha" values="0 0 0 0 0 0 0 0 0 0 0 0 0 0 0 0 0 0 127 0" result="hardAlpha"/><feOffset/><feGaussianBlur stdDeviation="2"/><feComposite in2="hardAlpha" operator="out"/><feColorMatrix values="0 0 0 0 0.196078 0 0 0 0 0.0901961 0 0 0 0 0.52549 0 0 0 1 0"/><feBlend in2="effect1_dropShadow_12126_109794" result="effect2_dropShadow_12126_109794"/><feBlend in="SourceGraphic" in2="effect2_dropShadow_12126_109794" result="shape"/></filter><filter id="ywioq1lrp" x="800" y="32" width="26" height="26" filterUnits="userSpaceOnUse" color-interpolation-filters="sRGB"><feFlood flood-opacity="0" result="BackgroundImageFix"/><feColorMatrix in="SourceAlpha" values="0 0 0 0 0 0 0 0 0 0 0 0 0 0 0 0 0 0 127 0" result="hardAlpha"/><feOffset/><feGaussianBlur stdDeviation="6"/><feComposite in2="hardAlpha" operator="out"/><feColorMatrix values="0 0 0 0 0.509804 0 0 0 0 0.168627 0 0 0 0 0.701961 0 0 0 1 0"/><feBlend in2="BackgroundImageFix" result="effect1_dropShadow_12126_109794"/><feColorMatrix in="SourceAlpha" values="0 0 0 0 0 0 0 0 0 0 0 0 0 0 0 0 0 0 127 0" result="hardAlpha"/><feOffset/><feGaussianBlur stdDeviation="2"/><feComposite in2="hardAlpha" operator="out"/><feColorMatrix values="0 0 0 0 0.196078 0 0 0 0 0.0901961 0 0 0 0 0.52549 0 0 0 1 0"/><feBlend in2="effect1_dropShadow_12126_109794" result="effect2_dropShadow_12126_109794"/><feBlend in="SourceGraphic" in2="effect2_dropShadow_12126_109794" result="shape"/></filter><filter id="zwioq1lrp" x="607" y="32" width="26" height="26" filterUnits="userSpaceOnUse" color-interpolation-filters="sRGB"><feFlood flood-opacity="0" result="BackgroundImageFix"/><feColorMatrix in="SourceAlpha" values="0 0 0 0 0 0 0 0 0 0 0 0 0 0 0 0 0 0 127 0" result="hardAlpha"/><feOffset/><feGaussianBlur stdDeviation="6"/><feComposite in2="hardAlpha" operator="out"/><feColorMatrix values="0 0 0 0 0.509804 0 0 0 0 0.168627 0 0 0 0 0.701961 0 0 0 1 0"/><feBlend in2="BackgroundImageFix" result="effect1_dropShadow_12126_109794"/><feColorMatrix in="SourceAlpha" values="0 0 0 0 0 0 0 0 0 0 0 0 0 0 0 0 0 0 127 0" result="hardAlpha"/><feOffset/><feGaussianBlur stdDeviation="2"/><feComposite in2="hardAlpha" operator="out"/><feColorMatrix values="0 0 0 0 0.196078 0 0 0 0 0.0901961 0 0 0 0 0.52549 0 0 0 1 0"/><feBlend in2="effect1_dropShadow_12126_109794" result="effect2_dropShadow_12126_109794"/><feBlend in="SourceGraphic" in2="effect2_dropShadow_12126_109794" result="shape"/></filter><filter id="aawioq1lrp" x="1136" y="85" width="38" height="38" filterUnits="userSpaceOnUse" color-interpolation-filters="sRGB"><feFlood flood-opacity="0" result="BackgroundImageFix"/><feColorMatrix in="SourceAlpha" values="0 0 0 0 0 0 0 0 0 0 0 0 0 0 0 0 0 0 127 0" result="hardAlpha"/><feOffset/><feGaussianBlur stdDeviation="6"/><feComposite in2="hardAlpha" operator="out"/><feColorMatrix values="0 0 0 0 0.509804 0 0 0 0 0.168627 0 0 0 0 0.701961 0 0 0 1 0"/><feBlend in2="BackgroundImageFix" result="effect1_dropShadow_12126_109794"/><feColorMatrix in="SourceAlpha" values="0 0 0 0 0 0 0 0 0 0 0 0 0 0 0 0 0 0 127 0" result="hardAlpha"/><feOffset/><feGaussianBlur stdDeviation="2"/><feComposite in2="hardAlpha" operator="out"/><feColorMatrix values="0 0 0 0 0.196078 0 0 0 0 0.0901961 0 0 0 0 0.52549 0 0 0 1 0"/><feBlend in2="effect1_dropShadow_12126_109794" result="effect2_dropShadow_12126_109794"/><feBlend in="SourceGraphic" in2="effect2_dropShadow_12126_109794" result="shape"/></filter><filter id="abwioq1lrp" x="559" y="42" width="34" height="34" filterUnits="userSpaceOnUse" color-interpolation-filters="sRGB"><feFlood flood-opacity="0" result="BackgroundImageFix"/><feColorMatrix in="SourceAlpha" values="0 0 0 0 0 0 0 0 0 0 0 0 0 0 0 0 0 0 127 0" result="hardAlpha"/><feOffset/><feGaussianBlur stdDeviation="6"/><feComposite in2="hardAlpha" operator="out"/><feColorMatrix values="0 0 0 0 0.509804 0 0 0 0 0.168627 0 0 0 0 0.701961 0 0 0 1 0"/><feBlend in2="BackgroundImageFix" result="effect1_dropShadow_12126_109794"/><feColorMatrix in="SourceAlpha" values="0 0 0 0 0 0 0 0 0 0 0 0 0 0 0 0 0 0 127 0" result="hardAlpha"/><feOffset/><feGaussianBlur stdDeviation="2"/><feComposite in2="hardAlpha" operator="out"/><feColorMatrix values="0 0 0 0 0.196078 0 0 0 0 0.0901961 0 0 0 0 0.52549 0 0 0 1 0"/><feBlend in2="effect1_dropShadow_12126_109794" result="effect2_dropShadow_12126_109794"/><feBlend in="SourceGraphic" in2="effect2_dropShadow_12126_109794" result="shape"/></filter><filter id="acwioq1lrp" x="752" y="35" width="38" height="38" filterUnits="userSpaceOnUse" color-interpolation-filters="sRGB"><feFlood flood-opacity="0" result="BackgroundImageFix"/><feColorMatrix in="SourceAlpha" values="0 0 0 0 0 0 0 0 0 0 0 0 0 0 0 0 0 0 127 0" result="hardAlpha"/><feOffset/><feGaussianBlur stdDeviation="6"/><feComposite in2="hardAlpha" operator="out"/><feColorMatrix values="0 0 0 0 0.509804 0 0 0 0 0.168627 0 0 0 0 0.701961 0 0 0 1 0"/><feBlend in2="BackgroundImageFix" result="effect1_dropShadow_12126_109794"/><feColorMatrix in="SourceAlpha" values="0 0 0 0 0 0 0 0 0 0 0 0 0 0 0 0 0 0 127 0" result="hardAlpha"/><feOffset/><feGaussianBlur stdDeviation="2"/><feComposite in2="hardAlpha" operator="out"/><feColorMatrix values="0 0 0 0 0.196078 0 0 0 0 0.0901961 0 0 0 0 0.52549 0 0 0 1 0"/><feBlend in2="effect1_dropShadow_12126_109794" result="effect2_dropShadow_12126_109794"/><feBlend in="SourceGraphic" in2="effect2_dropShadow_12126_109794" result="shape"/></filter><radialGradient id="dwioq1lrp" cx="0" cy="0" r="1" gradientUnits="userSpaceOnUse" gradientTransform="matrix(0 311.5 -820.999 0 961 260.5)"><stop stop-opacity="0"/><stop offset="1"/></radialGradient><linearGradient id="cwioq1lrp" x1="1920.93" y1="87.95" x2="1532.53" y2="1164.84" gradientUnits="userSpaceOnUse"><stop stop-color="#D500F9"/><stop offset=".5" stop-color="#2962FF"/><stop offset="1" stop-color="#00BCE6"/></linearGradient><clipPath id="awioq1lrp"><path fill="#fff" d="M0 0h1921v816H0z"/></clipPath></defs></svg>