<svg xmlns="http://www.w3.org/2000/svg" width="600" height="700" viewBox="0 0 600 700" fill="none"><circle opacity=".5" cx="300" cy="350" r="184.29" fill="url(#arrfgzz0p)"/><circle opacity=".6" cx="300" cy="350" r="85.44" stroke="#D49D55" stroke-width=".55"/><circle opacity=".5" cx="300" cy="350" r="128.29" stroke="#D49D55" stroke-width=".55"/><circle opacity=".4" cx="300" cy="350" r="171.15" stroke="#D49D55" stroke-width=".55"/><circle opacity=".3" cx="300" cy="350" r="214.01" stroke="#D49D55" stroke-width=".55"/><path opacity=".2" d="M556.86 350c0 141.86-115 256.86-256.86 256.86-141.87 0-256.87-115-256.87-256.86 0-141.87 115-256.87 256.87-256.87 141.86 0 256.86 115 256.86 256.87Z" stroke="#D49D55" stroke-width=".55"/><circle opacity=".1" cx="300" cy="350" r="299.72" stroke="#D49D55" stroke-width=".55"/><path d="M4 350.24 301.65 0 301 350.24H596L301.01 700l-1.27-349.76H4Z" fill="url(#brrfgzz0p)"/><g filter="url(#crrfgzz0p)"><path d="M397 302.02 416.1 277l-.04 25.02H435L416.06 327l-.08-24.98H397Z" fill="url(#drrfgzz0p)"/></g><g filter="url(#errfgzz0p)"><path d="M126 275.02 150.13 245l-.05 30.02H174L150.08 305l-.1-29.98H126Z" fill="url(#frrfgzz0p)"/></g><g filter="url(#grrfgzz0p)"><path d="M158 436.01 176.6 415l-.04 21.01H195L176.56 457l-.08-20.99H158Z" fill="url(#hrrfgzz0p)"/></g><defs><linearGradient id="brrfgzz0p" x1="476" y1="-120.5" x2="26.08" y2="652.06" gradientUnits="userSpaceOnUse"><stop offset=".18" stop-color="#E1A253"/><stop offset=".28" stop-color="#F6DBA6"/><stop offset=".36" stop-color="#FBD17E"/><stop offset=".48" stop-color="#FFECC7"/><stop offset=".56" stop-color="#EEBE7B"/><stop offset=".66" stop-color="#C08540"/><stop offset=".8" stop-color="#452312"/><stop offset=".94" stop-color="#85572C"/></linearGradient><linearGradient id="drrfgzz0p" x1="427.3" y1="268.39" x2="393.57" y2="320.44" gradientUnits="userSpaceOnUse"><stop offset=".18" stop-color="#E1A253"/><stop offset=".28" stop-color="#F6DBA6"/><stop offset=".36" stop-color="#FBD17E"/><stop offset=".48" stop-color="#FFECC7"/><stop offset=".56" stop-color="#EEBE7B"/><stop offset=".66" stop-color="#C08540"/><stop offset=".8" stop-color="#452312"/><stop offset=".94" stop-color="#85572C"/></linearGradient><linearGradient id="frrfgzz0p" x1="164.27" y1="234.67" x2="124.68" y2="298.98" gradientUnits="userSpaceOnUse"><stop offset=".18" stop-color="#E1A253"/><stop offset=".28" stop-color="#F6DBA6"/><stop offset=".36" stop-color="#FBD17E"/><stop offset=".48" stop-color="#FFECC7"/><stop offset=".56" stop-color="#EEBE7B"/><stop offset=".66" stop-color="#C08540"/><stop offset=".8" stop-color="#452312"/><stop offset=".94" stop-color="#85572C"/></linearGradient><linearGradient id="hrrfgzz0p" x1="187.5" y1="407.77" x2="161.06" y2="455.06" gradientUnits="userSpaceOnUse"><stop offset=".18" stop-color="#E1A253"/><stop offset=".28" stop-color="#F6DBA6"/><stop offset=".36" stop-color="#FBD17E"/><stop offset=".48" stop-color="#FFECC7"/><stop offset=".56" stop-color="#EEBE7B"/><stop offset=".66" stop-color="#C08540"/><stop offset=".8" stop-color="#452312"/><stop offset=".94" stop-color="#85572C"/></linearGradient><filter id="crrfgzz0p" x="393" y="273" width="46" height="58" filterUnits="userSpaceOnUse" color-interpolation-filters="sRGB"><feFlood flood-opacity="0"/><feBlend in="SourceGraphic"/><feGaussianBlur stdDeviation="2"/></filter><filter id="errfgzz0p" x="122" y="241" width="56" height="68" filterUnits="userSpaceOnUse" color-interpolation-filters="sRGB"><feFlood flood-opacity="0"/><feBlend in="SourceGraphic"/><feGaussianBlur stdDeviation="2"/></filter><filter id="grrfgzz0p" x="148.62" y="405.62" width="55.77" height="60.77" filterUnits="userSpaceOnUse" color-interpolation-filters="sRGB"><feFlood flood-opacity="0"/><feBlend in="SourceGraphic"/><feGaussianBlur stdDeviation="4.69"/></filter><radialGradient id="arrfgzz0p" cx="0" cy="0" r="1" gradientUnits="userSpaceOnUse" gradientTransform="rotate(90 -25 325) scale(184.286)"><stop stop-color="#5C4A30"/><stop offset="1" stop-color="#5C4A30" stop-opacity="0"/></radialGradient></defs></svg>