<svg xmlns="http://www.w3.org/2000/svg" width="230" height="100" viewBox="0 0 230 100"><path d="M36.03 47.15l7-7 7 7 4.08-4.07L43.03 32 31.95 43.08l4.08 4.07zm-2.88 2.88l-4.08-4.08L25 50.03l4.07 4.07 4.08-4.07zm2.88 2.87l7 7 7-7 4.08 4.08-11.08 11.08-11.08-11.08 4.08-4.07zm20.95 1.2l4.08-4.07-4.07-4.07-4.08 4.07 4.08 4.08z" fill="#F3BA2F"/><path d="M47.16 50.03l-4.13-4.14-3.06 3.06-.35.35-.72.72v.01l4.13 4.14 4.13-4.14zm20.25-9.29h8.86c2.2 0 3.87.56 5 1.7a4.4 4.4 0 0 1 1.3 3.24v.06a4.7 4.7 0 0 1-.74 2.58 5.28 5.28 0 0 1-1.75 1.54 6.5 6.5 0 0 1 2.6 1.7c.64.73.96 1.72.96 3v.05a4.46 4.46 0 0 1-1.95 3.93c-.63.45-1.38.77-2.27 1-.88.21-1.85.32-2.93.32h-9.08V40.74zm7.98 7.73c.93 0 1.67-.16 2.21-.48.55-.32.82-.83.82-1.54v-.06c0-.64-.24-1.12-.71-1.46a3.5 3.5 0 0 0-2.05-.5h-4.15v4.04h3.88zm1.12 7.7c.93 0 1.66-.17 2.18-.5.53-.34.8-.86.8-1.57v-.06a1.8 1.8 0 0 0-.74-1.52c-.5-.37-1.29-.56-2.38-.56h-4.86v4.21h5zm12.41-15.43h4.2v19.12h-4.2V40.74zm10.58 0h3.87l8.96 11.77V40.74h4.16v19.12h-3.58l-9.26-12.16v12.16H99.5V40.74zm29.72-.14h3.88l8.2 19.26h-4.4l-1.75-4.29h-8.09l-1.74 4.29h-4.3l8.2-19.26zm4.43 11.26l-2.54-6.2-2.54 6.2h5.08zm12.19-11.12h3.88l8.96 11.77V40.74h4.15v19.12h-3.58L150 47.7v12.16h-4.15V40.74zm32.13 19.45a9.91 9.91 0 0 1-7.02-2.86 9.5 9.5 0 0 1-2.05-3.13 9.89 9.89 0 0 1-.74-3.85v-.05a9.97 9.97 0 0 1 2.79-6.98 9.5 9.5 0 0 1 3.14-2.13c1.22-.52 2.57-.78 4.04-.78.9 0 1.7.07 2.45.22a8.77 8.77 0 0 1 3.68 1.53c.5.36.97.76 1.41 1.2L183 46.45c-.75-.68-1.51-1.2-2.29-1.59a5.81 5.81 0 0 0-4.83-.1 5.72 5.72 0 0 0-2.91 3.18 6.47 6.47 0 0 0-.41 2.3v.06a6.58 6.58 0 0 0 1.54 4.23 5.3 5.3 0 0 0 4 1.78c1.1 0 2.02-.2 2.78-.6.75-.4 1.5-.95 2.25-1.64l2.68 2.7c-.5.53-1 1-1.53 1.42a9.1 9.1 0 0 1-3.8 1.76c-.74.16-1.58.24-2.51.24zm12.79-19.45h14.4v3.74H194.9v3.88h9.02v3.74h-9.02v4.02h10.38v3.74h-14.53V40.74z" fill="#F3BA2F"/></svg>