<svg width="120" height="120" viewBox="0 0 120 120" xmlns="http://www.w3.org/2000/svg"><path fill-rule="evenodd" d="M29 2v8.1c4.32.46 8.2 2.35 11.17 5.2l5.77-5.77 2.83 2.83-6.02 6.02A18.9 18.9 0 0 1 45.9 27H54v4h-8.1a18.9 18.9 0 0 1-3.54 9.19l5.7 5.7-2.83 2.83-5.56-5.56c-2.9 2.6-6.59 4.3-10.67 4.74V56h-4v-8.1a18.92 18.92 0 0 1-10.37-4.48L8.3 49.75l-2.83-2.83 6.41-6.41A18.9 18.9 0 0 1 8.1 31H0v-4h8.1a18.9 18.9 0 0 1 3.81-9.55l-5.6-5.6 2.82-2.83 5.53 5.53A18.92 18.92 0 0 1 25 10.1V2h4zm-2 12a15 15 0 1 0 0 30 15 15 0 0 0 0-30zm43.39 36.95a21 21 0 1 1 39.49 13.26l5.57 18.5 2.02 6.72-5.26-4.64-12.24-10.8a20.9 20.9 0 0 1-8.13 2A29 29 0 0 1 74 105.84V114h6v4H70v-10.85a29.1 29.1 0 0 1-16-.57V114h6v4H50v-13.07a29 29 0 0 1 20.39-53.98zM54 102.33V87h-4v13.36a25 25 0 0 1 21.38-44.92l2.47.88.2-2.61a17 17 0 1 1 31.92 9.35l-.4.73.25.8 3.78 12.55-8-7.05-1.07-.94-1.23.7a16.91 16.91 0 0 1-9.62 2.1l-2.6-.2.48 2.57A25 25 0 0 1 54 102.34zM93.5 57a2.5 2.5 0 1 0 0-5 2.5 2.5 0 0 0 0 5z" fill="currentColor"/></svg>