<svg xmlns="http://www.w3.org/2000/svg" width="230" height="100" viewBox="0 0 230 100"><path d="M72.76 54.65c0-2.58-1.44-4.17-3.54-4.7a4.58 4.58 0 0 0 3.06-4.5c0-1-.18-1.87-.54-2.59-1.17-2.34-3.84-3.27-7.38-3.27h-7.47v21.33h8.16c4.59 0 7.7-1.86 7.7-6.27zm-4.41-.03c0 1.9-1.35 2.76-3.3 2.76H61.3v-5.76h3.93c2.07 0 3.12.96 3.12 3zm-.48-8.73c0 1.9-1.35 2.61-3.33 2.64H61.3v-5.37h3.06c2.19 0 3.51.63 3.51 2.73zm11.75 15.03V45.08h-4.23v15.84h4.23zm8.24.3c1.02 0 1.8-.18 2.58-.39v-3.2a5.9 5.9 0 0 1-1.26.11c-1.17 0-1.62-.48-1.62-1.65v-7.92h2.7v-3.09h-2.7v-3.9h-4.23v3.9h-2.31v3.1h2.3v8.36c0 3.1 1.48 4.68 4.54 4.68zm7.71-8.01v-.42c0-2.46.54-4.59 3-4.59 1.62 0 2.7 1.14 2.7 2.76h3.96c0-.93-.18-1.8-.51-2.58-.93-2.19-2.97-3.6-6.1-3.6-1.22 0-2.3.18-3.2.6-2.58 1.17-4.08 3.75-4.08 7.41v.42c0 1.11.15 2.2.45 3.15.9 2.85 3.12 4.86 6.87 4.86 1.95 0 3.57-.66 4.65-1.62a5.56 5.56 0 0 0 1.92-4.17h-3.96c-.1 1.5-1.08 2.37-2.67 2.37-2.52 0-3.03-2.1-3.03-4.59zm11.28-.36v.3a10 10 0 0 0 .48 3.21c.96 2.82 3.3 4.86 7.05 4.86 1.2 0 2.28-.18 3.21-.6 2.64-1.17 4.3-3.72 4.3-7.47v-.3a10 10 0 0 0-.52-3.2c-.96-2.83-3.27-4.87-7.02-4.87-1.2 0-2.25.18-3.18.6-2.64 1.17-4.32 3.72-4.32 7.47zm10.8 0v.3c0 2.5-.8 4.65-3.27 4.65-2.52 0-3.3-2.13-3.3-4.65v-.3c0-2.46.81-4.65 3.27-4.65s3.3 2.16 3.3 4.65zm10.22 8.07V45.08h-4.23v15.84h4.23zm8.85-12.69c1.78 0 2.53.78 2.53 2.58v10.11h4.22V50.84c0-3.72-1.34-6.06-5-6.06-2.07 0-3.6.9-4.56 2.13l-.13-1.83h-3.99v15.84h4.24V49.73a3.02 3.02 0 0 1 2.7-1.5zm17.71 4.98v-.42c0-2.46.53-4.59 3-4.59 1.61 0 2.7 1.14 2.7 2.76h3.96c0-.93-.19-1.8-.52-2.58-.92-2.19-2.97-3.6-6.08-3.6-1.24 0-2.31.18-3.22.6-2.58 1.17-4.08 3.75-4.08 7.41v.42c0 1.11.16 2.2.46 3.15.9 2.85 3.11 4.86 6.86 4.86 1.96 0 3.58-.66 4.66-1.62a5.56 5.56 0 0 0 1.92-4.17h-3.97c-.09 1.5-1.08 2.37-2.66 2.37-2.53 0-3.03-2.1-3.03-4.59zm10.81-.36v.3a10 10 0 0 0 .48 3.21c.96 2.82 3.3 4.86 7.05 4.86 1.2 0 2.28-.18 3.2-.6 2.65-1.17 4.3-3.72 4.3-7.47v-.3a10 10 0 0 0-.51-3.2c-.96-2.83-3.27-4.87-7.02-4.87-1.2 0-2.25.18-3.18.6-2.64 1.17-4.32 3.72-4.32 7.47zm10.8 0v.3c0 2.5-.81 4.65-3.27 4.65-2.52 0-3.3-2.13-3.3-4.65v-.3c0-2.46.8-4.65 3.27-4.65 2.46 0 3.3 2.16 3.3 4.65zm13.06-4.62c.4 0 .72.03 1.02.1 1.05.23 1.38 1.22 1.38 2.54v10.05h4.23V50.36l-.03-.33c.45-1.02 1.23-1.8 2.64-1.8 1.77 0 2.4.81 2.4 2.61v10.08H205V50.84c0-3.78-1.4-6.06-5.1-6.06-2.34 0-3.78.96-4.77 2.4-.72-1.53-2.1-2.4-4.2-2.4s-3.57.87-4.56 2.07l-.12-1.77h-3.99v15.84h4.23V49.7a2.76 2.76 0 0 1 2.61-1.47zm-114-9.41h4.75v4.35h-4.74v-4.35zm48.24 0h4.74v4.35h-4.74v-4.35zm21.01 17.71h4.75v4.36h-4.75v-4.36z" fill="#fff"/><path opacity=".8" fill="#77D3B9" d="M33.84 36.74h8.84v8.84h-8.84z"/><path fill="#0AC18E" d="M42.69 36.74h8.84v8.84h-8.84z"/><path opacity=".8" fill="#77D3B9" d="M25 45.58h8.84v8.84H25z"/><path fill="#0AC18E" d="M33.84 45.58h8.84v8.84h-8.84z"/><path opacity=".8" fill="#77D3B9" d="M42.69 45.58h8.84v8.84h-8.84z"/><path fill="#0AC18E" d="M25 54.42h8.84v8.84H25z"/><path opacity=".8" fill="#77D3B9" d="M33.84 54.42h8.84v8.84h-8.84z"/><path opacity=".6" fill="#AFDCD0" d="M42.69 54.42h8.84v8.84h-8.84z"/></svg>