<svg xmlns="http://www.w3.org/2000/svg" width="200" height="80" viewBox="0 0 200 80"><path fill="#fff" d="M63.74 47.58V32.99h7.03a7 7 0 0 1 2.72.51q1.17.5 1.8 1.4a3.5 3.5 0 0 1 .04 3.97q-.6.82-1.51 1.13v.2q1.1.3 1.8 1.23t.71 2.15q0 1.2-.65 2.11a4 4 0 0 1-1.86 1.4q-1.2.5-2.8.49zm6.44-8.6q1 0 1.63-.48.64-.47.64-1.23 0-.75-.64-1.23a2.7 2.7 0 0 0-1.63-.47h-3.05v3.4zm.14 6.02q1.1 0 1.82-.52t.72-1.35q0-.8-.72-1.3a3 3 0 0 0-1.82-.54h-3.19v3.7zm8.85-9.37a1.8 1.8 0 0 1-1.3-.49 1.8 1.8 0 0 1-.52-1.29q0-.78.51-1.27.52-.51 1.3-.51.81 0 1.32.51.5.5.5 1.27 0 .78-.5 1.3-.51.48-1.31.48m1.51 11.95h-3.02v-10.5h3.02zm6.06.33a3.3 3.3 0 0 1-2.51-1.03 3.8 3.8 0 0 1-.94-2.68v-4.9h-1.47v-2.2h1.55l.6-3.32h2.37l-.03 3.32h2.4v2.21h-2.4v4.78q0 .67.37 1.08.39.39 1.03.39.46 0 1.08-.14v2.17q-.43.15-1 .22-.57.1-1.05.1m8.28 0a6 6 0 0 1-2.95-.7 5 5 0 0 1-2.02-1.97 6 6 0 0 1-.72-2.9q0-1.66.72-2.92a5 5 0 0 1 2-1.96q1.29-.7 2.97-.7 1.42 0 2.55.51 1.17.5 1.9 1.42.75.92.9 2.15l-2.82.37a2.4 2.4 0 0 0-.92-1.4 2.5 2.5 0 0 0-1.57-.55 2.5 2.5 0 0 0-1.94.86q-.75.86-.76 2.21 0 1.35.76 2.22.75.86 1.92.86a2.55 2.55 0 0 0 2.51-1.93l2.85.35a4.3 4.3 0 0 1-.94 2.15q-.75.93-1.9 1.44-1.15.49-2.54.49m12.03 0a6.5 6.5 0 0 1-3.05-.68 5 5 0 0 1-2.04-1.95 6 6 0 0 1-.72-2.95q0-1.68.72-2.93.73-1.27 2.04-1.94 1.3-.7 3.05-.7 1.71 0 3.02.7 1.33.68 2.05 1.94.73 1.26.73 2.93t-.73 2.95a5 5 0 0 1-2.05 1.95 6.5 6.5 0 0 1-3.02.68m0-2.58q1.2 0 1.98-.85.78-.84.78-2.15 0-1.3-.78-2.13a2.6 2.6 0 0 0-1.98-.84 2.6 2.6 0 0 0-2 .84 3 3 0 0 0-.78 2.13q0 1.32.77 2.15a2.6 2.6 0 0 0 2 .85m8.64-9.7q-.8 0-1.3-.49a1.8 1.8 0 0 1-.52-1.29q0-.78.51-1.27.51-.51 1.31-.51t1.31.51.51 1.27q0 .78-.5 1.3-.53.48-1.32.48m1.52 11.95h-3.03v-10.5h3.02zm1.8 0v-10.5h3.03v1.48h.2q1.17-1.78 3.05-1.78a3.8 3.8 0 0 1 3.46 2.13q.49.98.49 2.24v6.43h-3.03v-6q0-1-.53-1.58a1.8 1.8 0 0 0-1.43-.62q-.92 0-1.58.66-.63.66-.63 1.64v5.9zm13.08.24q-.78 0-1.29-.47a1.7 1.7 0 0 1-.49-1.25q0-.75.49-1.23.51-.48 1.29-.49.78 0 1.27.5.49.46.49 1.22t-.5 1.25q-.48.48-1.26.47m7.96.09a6 6 0 0 1-2.94-.7 5 5 0 0 1-2.03-1.97 6 6 0 0 1-.71-2.9q0-1.66.72-2.92a5 5 0 0 1 2-1.96q1.3-.7 2.96-.7 1.42 0 2.56.51 1.17.5 1.9 1.42.75.92.9 2.15l-2.82.37a2.4 2.4 0 0 0-.92-1.4 2.5 2.5 0 0 0-1.58-.55 2.5 2.5 0 0 0-1.94.86q-.75.86-.75 2.21t.75 2.22 1.92.86a2.55 2.55 0 0 0 2.52-1.93l2.84.35a4.3 4.3 0 0 1-.94 2.15 5 5 0 0 1-1.9 1.44q-1.15.49-2.54.49m12.03 0a6.6 6.6 0 0 1-3.05-.68 5 5 0 0 1-2.04-1.95 6 6 0 0 1-.72-2.95q0-1.68.72-2.93a5 5 0 0 1 2.04-1.94q1.32-.7 3.05-.7t3.03.7q1.32.68 2.04 1.94.75 1.26.74 2.93 0 1.68-.74 2.95a5 5 0 0 1-2.04 1.95 6.5 6.5 0 0 1-3.03.68m0-2.58q1.2 0 1.98-.85.78-.84.78-2.15 0-1.3-.78-2.13a2.6 2.6 0 0 0-1.98-.84 2.6 2.6 0 0 0-2 .84 3 3 0 0 0-.78 2.13q0 1.32.78 2.15a2.6 2.6 0 0 0 2 .85m7.01 2.25v-10.5h3v1.57h.21q.45-.87 1.25-1.38a3.5 3.5 0 0 1 3.68.04q.9.54 1.3 1.44h.21a3.7 3.7 0 0 1 3.3-1.97 3.8 3.8 0 0 1 3.45 2.07q.51.99.51 2.23v6.5h-3.03V41.6q0-.97-.55-1.58a2 2 0 0 0-1.4-.66q-.9 0-1.46.64a2.3 2.3 0 0 0-.55 1.6v5.98h-3.05V41.6a2.4 2.4 0 0 0-.51-1.62 1.7 1.7 0 0 0-1.37-.62q-.9 0-1.43.62-.54.6-.53 1.62v5.98z"/><path fill="#FF9500" d="M24 31.13A7.1 7.1 0 0 1 31.11 24h17.71a7.1 7.1 0 0 1 7.11 7.13v17.74a7.1 7.1 0 0 1-7.1 7.13H31.1a7.1 7.1 0 0 1-7.1-7.13z"/><path fill="#fff" d="M48.22 37.33c.37-2.48-1.52-3.82-4.1-4.7l.84-3.37-2.04-.5-.81 3.26-1.64-.38.82-3.3-2.04-.5-.84 3.35-4.11-1.02-.54 2.18 1.48.37c.82.21 1.05.77.95 1.2l-2.3 9.2c-.06.26-.35.63-.93.48l-1.48-.37-1.02 2.34 4.12 1.04-.85 3.4 2.04.51.84-3.36q.83.23 1.63.42l-.84 3.35 2.04.51.85-3.39c3.48.66 6.1.4 7.2-2.76.89-2.54-.05-4-1.88-4.96 1.34-.31 2.34-1.19 2.6-3m-4.67 6.55c-.63 2.54-4.9 1.17-6.28.82l1.12-4.5c1.39.35 5.82 1.03 5.16 3.68m.64-6.59c-.58 2.31-4.13 1.14-5.28.85l1.01-4.09c1.15.3 4.86.83 4.27 3.24"/></svg>