<svg xmlns="http://www.w3.org/2000/svg" width="200" height="80" viewBox="0 0 200 80"><path fill="#fff" d="m154.5 49.66.03.1-.01.1-.07.1-.1.02h-4.04a.2.2 0 0 1-.14-.05l-5.38-5.86-5.43 5.86-.07.04-.07.02h-4.04a.2.2 0 0 1-.15-.07l-.03-.07v-.08q0-.06.04-.1l7.42-8-7.17-7.76-.04-.07a.2.2 0 0 1 .07-.22l.1-.04h4.06a.2.2 0 0 1 .13.07l5.15 5.62 5.16-5.62a.2.2 0 0 1 .13-.07h4.05a.2.2 0 0 1 .17.11l.02.11-.05.1-7.18 7.77zm-38.38.33a.3.3 0 0 1-.18-.08l-.05-.09-.02-.1V33.84c0-.14.12-.26.25-.26h15.29c.14 0 .25.12.25.26v2.29q0 .11-.07.18a.3.3 0 0 1-.18.08h-11.84v3.66h7.1q.24.02.25.26v2.27q0 .11-.07.19a.3.3 0 0 1-.18.07h-7.1v4.08h12c.14 0 .25.1.25.26v2.55a.3.3 0 0 1-.07.2l-.09.05-.1.02zm-27.07 0a.3.3 0 0 1-.18-.08.3.3 0 0 1-.08-.18v-15.9c0-.14.12-.26.26-.26h3.2c.14 0 .25.12.25.26v15.9a.3.3 0 0 1-.07.19.3.3 0 0 1-.18.08zm-18.17 0a.3.3 0 0 1-.18-.08.3.3 0 0 1-.07-.19V33.84c0-.14.1-.26.25-.26h15.1c.14 0 .26.12.26.26v2.34q0 .11-.08.19a.3.3 0 0 1-.18.07H74.33v4.33h6.45c.14 0 .25.12.25.26v2.47a.3.3 0 0 1-.07.18.3.3 0 0 1-.18.08h-6.45v5.96a.3.3 0 0 1-.07.2.3.3 0 0 1-.18.07zm-9.92-13.5v13.22a.3.3 0 0 1-.07.2.3.3 0 0 1-.18.07h-3.2a.3.3 0 0 1-.19-.08.3.3 0 0 1-.07-.19v-13.2h-6.8a.3.3 0 0 1-.19-.08.3.3 0 0 1-.07-.18v-2.4c0-.15.1-.27.25-.27H67.8c.14 0 .25.12.25.26v2.4q0 .11-.07.2a.3.3 0 0 1-.18.07h-6.85zM44.2 50a.3.3 0 0 1-.19-.08.3.3 0 0 1-.07-.19V33.84c0-.14.12-.26.26-.26h3.19c.14 0 .26.12.26.26v15.89a.3.3 0 0 1-.07.2.3.3 0 0 1-.19.07z"/><path fill="#fff" fill-rule="evenodd" d="M24 33.84c0-.14.12-.26.26-.26h13.65c.88 0 1.73.36 2.36 1 .62.65.97 1.52.97 2.43v1.1c0 .9-.35 1.77-.97 2.42-.63.64-1.48 1-2.36 1h.13c.88 0 1.73.36 2.35 1 .63.65.98 1.52.98 2.43v1.6c0 .91-.35 1.78-.98 2.43-.62.64-1.47 1-2.35 1H24.26a.3.3 0 0 1-.19-.08.3.3 0 0 1-.07-.19zm3.65 2.42h8.62c.85 0 1.54.7 1.54 1.58v.75c0 .86-.69 1.58-1.54 1.58h-8.62zm0 6.61h8.72c.84 0 1.54.7 1.54 1.58v1c0 .86-.7 1.58-1.54 1.58h-8.72v-4.18z"/><path fill="#fff" d="M95.07 33.83c0-.14.12-.26.25-.26h2.18q.1 0 .18.07l12.3 11.2v-11c0-.15.1-.27.25-.27h2.82c.14 0 .26.12.26.26v15.9a.3.3 0 0 1-.07.19.3.3 0 0 1-.19.08h-2.17a.3.3 0 0 1-.18-.07L98.4 38.7v11.03a.3.3 0 0 1-.07.19.3.3 0 0 1-.18.08h-2.83a.3.3 0 0 1-.18-.08.3.3 0 0 1-.07-.18z"/><path fill="#03CA9B" d="M157.57 43.38a10.8 10.8 0 0 1 3.19-8c4.92-5.06 15.15-4.35 15.21-4.34-.03.04-7.51 11.2-16.38 12.24q-1.03.13-2.02.1"/><path fill="#03CA9B" d="M158.6 46.81q.39.63.91 1.17c3.03 3.12 8.51 2.54 12.24-1.3 4.92-5.07 4.22-15.65 4.22-15.65-.03.07-5.4 12.44-13.91 15.13q-1.75.56-3.45.65"/></svg>