<svg xmlns="http://www.w3.org/2000/svg" width="200" height="60" viewBox="0 0 200 60"><path fill="#fff" d="M148.76 38.7a.2.2 0 0 1 .02.18l-.06.08-.1.02h-3.6a.2.2 0 0 1-.13-.05l-4.81-5.23-4.86 5.23-.06.04-.07.02h-3.62l-.07-.01-.06-.05a.2.2 0 0 1-.03-.14q0-.05.04-.08l6.64-7.16-6.41-6.95-.04-.06-.01-.07.02-.07.05-.06.1-.03h3.62a.2.2 0 0 1 .12.06l4.6 5.03 4.62-5.03a.2.2 0 0 1 .13-.06h3.62q.05 0 .09.03.05.02.06.07.02.04.01.1 0 .05-.04.08l-6.42 6.96zm-34.33.3a.2.2 0 0 1-.17-.08.2.2 0 0 1-.06-.17v-14.2c0-.13.1-.24.22-.24h13.68q.21.02.23.23v2.05q0 .1-.07.16a.2.2 0 0 1-.16.07h-10.59v3.28h6.35q.21.02.23.23v2.03q0 .1-.07.17a.2.2 0 0 1-.16.07h-6.35v3.64h10.73q.21.02.23.23v2.29l-.01.1-.05.07a.2.2 0 0 1-.17.07zM90.2 39a.2.2 0 0 1-.16-.08.2.2 0 0 1-.07-.16V24.54c0-.13.1-.24.24-.24h2.86c.12 0 .22.11.22.24v14.22a.2.2 0 0 1-.06.17.2.2 0 0 1-.16.07zm-16.26 0a.2.2 0 0 1-.16-.08.2.2 0 0 1-.06-.17v-14.2c0-.13.1-.24.22-.24h13.52c.12 0 .23.1.23.23v2.1q0 .1-.07.16a.2.2 0 0 1-.16.07H77.03v3.87h5.77q.21.02.23.23v2.21a.2.2 0 0 1-.07.17.2.2 0 0 1-.16.06h-5.77v5.34a.2.2 0 0 1-.06.17.2.2 0 0 1-.17.07zm-8.87-12.08v11.82a.2.2 0 0 1-.14.22l-.08.02h-2.87a.2.2 0 0 1-.17-.07.2.2 0 0 1-.06-.17V26.93h-6.1a.2.2 0 0 1-.15-.07.2.2 0 0 1-.07-.16v-2.16c0-.12.1-.23.23-.23h15.53c.12 0 .23.1.23.23v2.16q0 .1-.07.16a.2.2 0 0 1-.16.07zm-15 12.07a.2.2 0 0 1-.17-.07.2.2 0 0 1-.07-.17v-14.2c0-.13.1-.24.24-.24h2.85q.21.02.23.23v14.22a.2.2 0 0 1-.14.22l-.1.02z"/><path fill="#fff" fill-rule="evenodd" d="M32 24.54c0-.12.1-.23.24-.23h12.2c.8 0 1.55.32 2.11.9.56.57.88 1.36.88 2.17v.97c0 .82-.32 1.6-.88 2.17a3 3 0 0 1-2.1.9h.1c.8 0 1.56.33 2.12.9s.87 1.36.87 2.17v1.43c0 .82-.31 1.6-.87 2.17-.56.58-1.32.9-2.11.9H32.24a.2.2 0 0 1-.17-.07.2.2 0 0 1-.07-.17zm3.27 2.16h7.7c.77 0 1.39.64 1.39 1.42v.67a1.4 1.4 0 0 1-1.38 1.41h-7.71zm0 5.92h7.8c.75 0 1.38.63 1.38 1.41v.9a1.4 1.4 0 0 1-1.38 1.41h-7.8v-3.73z"/><path fill="#fff" d="M95.59 24.54c0-.13.1-.24.23-.24h1.94q.1 0 .16.06l11 10.02v-9.84c0-.13.1-.24.23-.24h2.53c.12 0 .23.11.23.24v14.22a.2.2 0 0 1-.07.17l-.07.05-.09.02h-1.94a.2.2 0 0 1-.17-.07l-11-10.04v9.87a.2.2 0 0 1-.06.17.2.2 0 0 1-.17.07h-2.52a.2.2 0 0 1-.16-.07.2.2 0 0 1-.07-.16z"/><path fill="#03CA9B" d="M151.51 33.08a9.7 9.7 0 0 1 2.85-7.16c4.4-4.53 13.56-3.9 13.61-3.89-.03.04-6.72 10.03-14.65 10.96q-.92.1-1.8.08z"/><path fill="#03CA9B" d="M152.44 36.15q.33.56.8 1.04c2.71 2.8 7.62 2.28 10.95-1.16 4.41-4.53 3.78-14 3.78-14-.03.06-4.82 11.13-12.45 13.53q-1.55.5-3.08.59"/></svg>