<svg width="230" height="100" viewBox="0 0 230 100" xmlns="http://www.w3.org/2000/svg"><g clip-path="url(#aczlix2sz)"><path d="M174.1 60.53a.2.2 0 0 1 .03.22.2.2 0 0 1-.19.12h-4.46a.2.2 0 0 1-.15-.06l-5.94-6.28-6 6.28a.2.2 0 0 1-.07.05.2.2 0 0 1-.08.02h-4.47a.2.2 0 0 1-.2-.24.2.2 0 0 1 .05-.1l8.19-8.59-7.91-8.33a.2.2 0 0 1 .03-.31.2.2 0 0 1 .12-.04h4.47a.2.2 0 0 1 .15.07l5.68 6.03 5.7-6.03a.2.2 0 0 1 .15-.07h4.47a.2.2 0 0 1 .15.34l-7.92 8.34 8.2 8.58Zm-42.37.35a.28.28 0 0 1-.28-.29V43.55c0-.15.13-.28.28-.28h16.88c.16 0 .28.13.28.28V46c0 .08-.02.15-.08.2a.28.28 0 0 1-.2.08h-13.07v3.93h7.84c.16 0 .28.12.28.28v2.44a.28.28 0 0 1-.28.28h-7.84v4.37h13.24c.16 0 .29.12.29.28v2.74a.28.28 0 0 1-.29.29h-17.05Zm-29.9 0a.28.28 0 0 1-.28-.28V43.54c0-.15.13-.28.29-.28h3.53c.15 0 .28.13.28.28V60.6a.28.28 0 0 1-.28.29h-3.53Zm-20.06 0a.28.28 0 0 1-.28-.29V43.55c0-.15.12-.28.28-.28h16.68c.15 0 .28.13.28.28v2.51a.28.28 0 0 1-.28.28H85.58v4.64h7.12c.16 0 .28.13.28.28v2.65a.28.28 0 0 1-.28.28h-7.12v6.4a.28.28 0 0 1-.28.29h-3.53ZM70.82 46.4v14.18a.28.28 0 0 1-.28.29H67a.28.28 0 0 1-.28-.29V46.41H59.2a.28.28 0 0 1-.28-.28v-2.58c0-.15.12-.28.28-.28h19.17c.15 0 .28.13.28.28v2.58a.28.28 0 0 1-.28.28h-7.56ZM52.3 60.88a.28.28 0 0 1-.29-.29V43.55c0-.15.13-.28.29-.28h3.52c.16 0 .29.13.29.28V60.6a.28.28 0 0 1-.29.29H52.3Z" fill="#fff"/><path fill-rule="evenodd" d="M30 43.55c0-.15.13-.28.29-.28h15.07a3.68 3.68 0 0 1 3.68 3.68v1.17a3.68 3.68 0 0 1-3.68 3.68h.14a3.68 3.68 0 0 1 3.68 3.68v1.72a3.68 3.68 0 0 1-3.68 3.68H30.29a.28.28 0 0 1-.29-.29V43.55Zm4.03 2.59h9.52c.94 0 1.7.76 1.7 1.7v.8c0 .93-.76 1.7-1.7 1.7h-9.52v-4.2Zm0 7.1h9.63c.93 0 1.7.75 1.7 1.69V56c0 .93-.77 1.7-1.7 1.7h-9.63v-4.48Z" fill="#fff"/><path d="M108.48 60.6V43.54c0-.15.13-.28.28-.28h2.4c.08 0 .15.03.2.07l13.58 12.02v-11.8c0-.16.12-.29.28-.29h3.12c.15 0 .28.13.28.28V60.6a.28.28 0 0 1-.28.29h-2.4a.29.29 0 0 1-.2-.08l-13.58-12.05V60.6a.28.28 0 0 1-.28.29h-3.12a.28.28 0 0 1-.28-.28Z" fill="#fff"/><path d="M177.5 53.79c-.18-2.89 1.03-6.1 3.52-8.59 5.43-5.43 16.73-4.67 16.8-4.66-.04.04-8.3 12.02-18.09 13.14-.75.09-1.5.12-2.23.1Z" fill="#03CA9B"/><path d="M178.64 57.47c.28.45.61.87 1 1.25 3.34 3.35 9.4 2.73 13.51-1.39 5.44-5.44 4.66-16.8 4.66-16.8-.03.08-5.95 13.35-15.36 16.24-1.28.4-2.56.63-3.8.7Z" fill="#03CA9B"/></g><defs><clipPath id="aczlix2sz"><path transform="translate(29 40.5)" d="M0 0h171.15v21H0z"/></clipPath></defs></svg>