<svg xmlns="http://www.w3.org/2000/svg" width="132" height="60" viewBox="0 0 132 60"><path fill="#00E0FF" d="M53.7 31.47a6 6 0 0 0 2-1.86 5 5 0 0 0 .85-2.83q0-2.95-2.07-4.54-2.07-1.57-5.59-1.57h-8.46v22.66h8.8q3.71 0 5.86-1.78a6.1 6.1 0 0 0 2.17-4.95q0-1.93-1.01-3.27a6 6 0 0 0-2.55-1.86m-8.74-6.8h3.56c1.51 0 3.27.64 3.27 2.48 0 1.86-1.74 2.52-3.27 2.52h-3.56zm3.9 14.66h-3.9v-5.66h3.9c1.7 0 3.67.67 3.67 2.74 0 2.11-1.9 2.92-3.67 2.92M63.74 26h-5.18v16.67h5.18zm44.8 2.16a7.4 7.4 0 0 0-2.68-2.09 8 8 0 0 0-3.53-.74q-2.36 0-4.22 1.12a8 8 0 0 0-2.9 3.06 9 9 0 0 0-1.05 4.44c0 1.67.35 3.26 1.02 4.57a7.4 7.4 0 0 0 2.9 3.07 8.5 8.5 0 0 0 4.32 1.08q3.01-.01 5.05-1.57c1.3-1 2.2-2.67 2.68-4.43h-4.57c-.29 1.78-1.58 2.36-3.26 2.36a3.3 3.3 0 0 1-1.95-.58c-.97-.7-1.42-1.95-1.55-3.12h11.41c.2-1.32.2-2.75-.13-4.05a8 8 0 0 0-1.55-3.12m-9.67 4.1c.21-1.03.63-2.22 1.47-2.86a3 3 0 0 1 1.9-.6 3 3 0 0 1 2.29.96c.54.6.85 1.54.92 2.5zm-35.13-11.6h-5.18v4h5.18zm23.95 6.82a5.6 5.6 0 0 0-4.6-2.15 6.7 6.7 0 0 0-3.62 1.01 7 7 0 0 0-2.54 2.83q-.9 1.8-.9 4.16c0 4.18 2.93 8 7.2 8 1.65 0 3.42-.67 4.46-2.03v1.77c0 2.16-1.39 3.36-3.47 3.36-1.72 0-3.04-.6-3.2-2.43h-4.45c.07 2.5 1.5 4.28 3.75 5.25q1.71.75 3.93.75c4.23 0 7.96-2.35 7.96-6.99V25.33h-4.5zm-3.63 9.85c-2.25 0-3.41-1.88-3.41-4q0-1.87.93-2.98a3.1 3.1 0 0 1 2.48-1.02 3.2 3.2 0 0 1 2.58 1.04q.97 1.12.97 3c0 2.11-1.29 3.96-3.55 3.96M122 30v-4h-3.88v-6h-4.54v6H111v4h2.6v6.37c0 3.67 1.03 6.38 5.47 6.3H122v-4h-1.53c-1.98 0-2.35-1.02-2.35-3.2V30zm-47.26 0v-4H71.5v-5.33h-4.53V26h-2.59v4h2.6v6.6c0 3.63.9 6.15 5.17 6.07h2.6v-4H73.5c-1.9 0-2-.8-2-2.96V30zm-46.88-5.3 7.05 7.37c.45.48.45 1.25 0 1.73l-9.03 9.56h-7.1l10.02-10.5-7.8-8.17"/><path fill="#00E0FF" d="m17.39 32.67-7.04-7.54a1.25 1.25 0 0 1 0-1.74L19.38 14h7.09L16.45 24.27l7.8 8.4"/></svg>