<svg xmlns="http://www.w3.org/2000/svg" width="132" height="60" viewBox="0 0 132 60"><path fill="#fff" d="M29.73 18.13a2.3 2.3 0 0 1 2.4.56 2.6 2.6 0 0 1 .34 2.08 1.9 1.9 0 0 1-1.76 1.39 2.1 2.1 0 0 1-2.02-1.06 2.7 2.7 0 0 1-.15-1.6 2 2 0 0 1 1.18-1.36zM10 18.98h9.95a6 6 0 0 1 3.56 1.14 4.4 4.4 0 0 1 1.62 2.35q.09 1.16 0 2.33a4.3 4.3 0 0 1-2.16 2.6 9 9 0 0 1 1.44.91 4.5 4.5 0 0 1 1.35 2.2q.12.9.06 1.8a4.2 4.2 0 0 1-1.28 2.7 6 6 0 0 1-4.04 1.54H10v-2.34a2.6 2.6 0 0 0 2.37-1.58q.2-.46.18-.97a2.7 2.7 0 0 0-.58-2.13 3.2 3.2 0 0 0-1.97-.95v-2.14a2.6 2.6 0 0 0 2.47-1.74 2.5 2.5 0 0 0-.93-2.86 2.7 2.7 0 0 0-1.54-.52zm5.17 2.63v4.8h3.07q.88.06 1.72-.13a2.36 2.36 0 0 0 .67-4.37 4 4 0 0 0-2.4-.38c-1 .1-2.04-.13-3.05.06zm0 12.36q1.35.14 2.68.03c1.02 0 2.1.2 3.04-.26a2.6 2.6 0 0 0 1.33-3.28 2.8 2.8 0 0 0-2.65-1.7H15.2c-.04 1.74-.01 3.46-.03 5.2m25.2-14.02v3.74h3.05q.3 0 .58.11v2.48h-3.5c-.03 2.08 0 4.15 0 6.29a1.6 1.6 0 0 0 1.02 1.52q.3.12.64.11.89-.03 1.76-.2.26 1.25.38 2.53-1.46.45-3 .4a4.5 4.5 0 0 1-3.12-1.1 4 4 0 0 1-1.25-3.11v-6.4h-2.38v-2.59h2.36q.05-1.9.04-3.78zm22.96.06v3.76h3.54v2.52h-3.54v5.9a2 2 0 0 0 .85 1.78c.82.5 1.79.13 2.67.04q.31 1.27.42 2.58-1.4.32-2.85.35a4.6 4.6 0 0 1-3.5-1.32 3.6 3.6 0 0 1-.93-2.35v-6.92h-2.46v-2.48q1.23-.17 2.48-.13-.04-1.9-.03-3.73zm52.66 3.4a5.7 5.7 0 0 1 4.2 1.74 7 7 0 0 1 1.72 3.66 9 9 0 0 1-.59 4.66 5.75 5.75 0 0 1-7.44 3.04 6 6 0 0 1-1.73-1.2c-.05 2.54 0 5.07 0 7.6-1.15 0-2.3.14-3.45 0V23.7h2.57l.17.09q.27.72.42 1.46a5.2 5.2 0 0 1 4.15-1.84zm-1.8 2.81a3 3 0 0 0-2.1 2.72v2.08a3.03 3.03 0 0 0 4.15 3 3.8 3.8 0 0 0 2.15-2.76q.08-.98 0-1.96a3.8 3.8 0 0 0-1.73-2.82 3.5 3.5 0 0 0-2.49-.26zM49.77 23.5a13 13 0 0 1 6.1.77q-.27 1.26-.7 2.46a13 13 0 0 0-3.22-.7c-.76 0-1.65-.12-2.22.48a1.05 1.05 0 0 0-.23 1.27q.1.2.3.34c1.44.9 3.3.78 4.75 1.67a3.4 3.4 0 0 1 1.67 2.08q.09 1.04 0 2.07a4 4 0 0 1-2.1 2.43q-1.41.68-3 .65a15 15 0 0 1-5.2-1q.22-1.25.7-2.44c1.61.56 3.3 1.08 5.02.81q.55-.15.94-.55a1.1 1.1 0 0 0 .17-1.33q-.12-.21-.32-.35c-1.42-.97-3.23-.9-4.7-1.79a3.4 3.4 0 0 1-1.62-2.03 3.5 3.5 0 0 1 .85-3.42 5 5 0 0 1 2.8-1.41zm19.82 1c2.1-.87 4.38-1.22 6.64-1.03a5.3 5.3 0 0 1 3.6 2.07c.55.77.83 1.7.8 2.65v5.2a.95.95 0 0 0 .57.96q.5.03 1 0c.07.81.2 1.62.25 2.45q-1.32.29-2.67.1a3.3 3.3 0 0 1-1.99-1.55 6.3 6.3 0 0 1-4.2 1.63 5 5 0 0 1-3.5-1.18 4.1 4.1 0 0 1-.92-4.5q.33-.76.93-1.34c1.47-1.18 3.5-1.38 5.29-1.33q.96.02 1.91.2.13-.87-.2-1.66a2.3 2.3 0 0 0-1.46-1.09q-1.1-.09-2.2 0-1.56.27-3.03.83l-.87-2.35zm3.13 6.92a1.74 1.74 0 0 0-.18 2.37 2.5 2.5 0 0 0 2.55.73 2.8 2.8 0 0 0 2.18-2q.08-.87 0-1.72c-.64-.03-1.26-.2-1.9-.2a3.8 3.8 0 0 0-2.6.77zm14.74-6.07a5.4 5.4 0 0 1 4.12-1.93 4.5 4.5 0 0 1 4 1.83c.12.12.2.34.41.3q.7-.71 1.5-1.28a6 6 0 0 1 4.91-.61 4.5 4.5 0 0 1 3.1 4.24v8.67h-3.43v-7.74c.05-.6-.11-1.2-.47-1.68-1.06-1.38-3.5-1.16-4.42.3-.33.48-.5 1.05-.5 1.63v7.6h-3.4v-7.82a2.7 2.7 0 0 0-.85-2.07 2.85 2.85 0 0 0-3.32-.1 3.1 3.1 0 0 0-1.41 2.5v7.37h-3.45V23.82q1.27-.2 2.56-.1l.2.1c.21.5.3 1.03.45 1.52M28.8 23.8q1.7-.17 3.41-.1c.06 4.28 0 8.58 0 12.87h-3.43q.04-6.4.02-12.77"/><path fill="#219E4D" d="M107.56 40.42H10V43h97.56zm6.16 0v2.56H122v-2.56z"/></svg>