<svg xmlns="http://www.w3.org/2000/svg" width="230" height="100" viewBox="0 0 230 100"><g clip-path="url(#arjahifrw)"><path d="M59.3 30.8a3.45 3.45 0 0 1 3.68.87 4.13 4.13 0 0 1 .53 3.23 2.99 2.99 0 0 1-2.71 2.15 3.22 3.22 0 0 1-3.1-1.64 4.3 4.3 0 0 1-.23-2.5 3.07 3.07 0 0 1 1.82-2.1zM29 32.12h15.28a8.92 8.92 0 0 1 5.47 1.76c1.2.9 2.08 2.19 2.48 3.65.1 1.2.1 2.42 0 3.62a6.73 6.73 0 0 1-3.31 4.04c.78.4 1.52.87 2.21 1.41A7 7 0 0 1 53.2 50c.13.93.16 1.88.1 2.82A6.59 6.59 0 0 1 51.33 57a9.07 9.07 0 0 1-6.2 2.39H29v-3.63a3.9 3.9 0 0 0 3.92-3.97 4.3 4.3 0 0 0-.89-3.3A4.92 4.92 0 0 0 29 47.02V43.7a3.95 3.95 0 0 0 2.36-7.15 4.05 4.05 0 0 0-2.36-.8v-3.62zm7.94 4.07v7.45h4.71c.89.06 1.78 0 2.65-.2a3.61 3.61 0 0 0 2.78-2.92 3.69 3.69 0 0 0-1.75-3.85 6.45 6.45 0 0 0-3.68-.6c-1.56.16-3.15-.2-4.7.1v.02zm0 19.19c1.37.14 2.75.15 4.12.05 1.56 0 3.23.32 4.67-.41a4.03 4.03 0 0 0 2.03-5.08 4.3 4.3 0 0 0-4.06-2.64h-6.72c-.06 2.7-.01 5.37-.04 8.08zM70.4 33.62h5.23v5.81h4.69c.3 0 .62.06.9.17v3.84h-5.37c-.06 3.23 0 6.45 0 9.77a2.47 2.47 0 0 0 2.54 2.53c.9-.03 1.81-.13 2.7-.31a37 37 0 0 1 .58 3.92c-1.48.47-3.03.68-4.59.64a6.8 6.8 0 0 1-4.81-1.72 6.27 6.27 0 0 1-1.91-4.83V43.5H66.7v-4.01h3.63c.06-1.98.05-3.93.06-5.87zm35.37.09h5.13v5.84h5.44v3.91h-5.44v9.15a3.08 3.08 0 0 0 1.3 2.77c1.26.77 2.75.21 4.1.07.33 1.31.55 2.65.65 4-1.43.34-2.9.52-4.37.54a6.91 6.91 0 0 1-5.37-2.05c-.9-1-1.41-2.3-1.44-3.64V43.55H102v-3.84a21.3 21.3 0 0 1 3.8-.2c-.04-2-.04-3.9-.04-5.8zm86 5.29a8.6 8.6 0 0 1 6.45 2.69 10.75 10.75 0 0 1 2.64 5.68 13.9 13.9 0 0 1-.9 7.24 8.9 8.9 0 0 1-5.72 5.06c-1.89.53-3.9.4-5.71-.34a9.55 9.55 0 0 1-2.66-1.88c-.07 3.95 0 7.89 0 11.82-1.76 0-3.54.2-5.3 0V39.45h3.95l.27.14c.27.75.48 1.5.63 2.28A7.98 7.98 0 0 1 191.8 39h-.02zM189 43.36a4.67 4.67 0 0 0-3.22 4.21v3.23a4.74 4.74 0 0 0 3.74 4.92c.89.15 1.8.06 2.64-.25a5.8 5.8 0 0 0 3.3-4.3c.07-1.01.07-2.03 0-3.04a5.98 5.98 0 0 0-2.66-4.38 5.37 5.37 0 0 0-3.82-.4h.02zm-98.93-4.23c3.17-.36 6.38.05 9.36 1.2-.26 1.3-.62 2.57-1.07 3.81-1.6-.57-3.25-.93-4.94-1.07-1.16 0-2.53-.2-3.41.74a1.63 1.63 0 0 0 .1 2.5c2.23 1.38 5.07 1.2 7.31 2.58a5.3 5.3 0 0 1 2.56 3.23c.1 1.07.1 2.15 0 3.22a6.07 6.07 0 0 1-3.22 3.77c-1.43.7-3 1.04-4.6 1a22.3 22.3 0 0 1-8-1.53c.22-1.3.58-2.58 1.07-3.8 2.48.87 5.08 1.68 7.72 1.26a3.05 3.05 0 0 0 1.44-.86 1.72 1.72 0 0 0-.23-2.61c-2.18-1.5-4.96-1.39-7.22-2.77a5.16 5.16 0 0 1-2.48-3.15 5.53 5.53 0 0 1 1.3-5.31 7.65 7.65 0 0 1 4.31-2.2zm30.45 1.56a21.5 21.5 0 0 1 10.19-1.61 8.01 8.01 0 0 1 5.52 3.22 6.83 6.83 0 0 1 1.25 4.11v8.08a1.48 1.48 0 0 0 .87 1.48c.5.04 1.02.04 1.53 0 .11 1.26.3 2.52.38 3.8-1.34.3-2.73.37-4.1.17a4.98 4.98 0 0 1-3.05-2.41 9.58 9.58 0 0 1-6.45 2.52 7.73 7.73 0 0 1-5.37-1.83 6.31 6.31 0 0 1 0-9.06c2.27-1.84 5.37-2.15 8.13-2.07.98.03 1.97.13 2.94.3a4.8 4.8 0 0 0-.32-2.57 3.62 3.62 0 0 0-2.24-1.68c-1.12-.1-2.26-.1-3.38 0-1.59.28-3.14.7-4.64 1.28-.46-1.22-.88-2.44-1.34-3.64l.08-.09zm4.8 10.74a2.71 2.71 0 0 0-.27 3.67 3.86 3.86 0 0 0 3.91 1.13 4.3 4.3 0 0 0 3.35-3.11c.08-.89.08-1.77 0-2.66-.98-.05-1.93-.32-2.93-.3a5.8 5.8 0 0 0-3.98 1.18l-.08.09zM147.96 42a8.34 8.34 0 0 1 6.32-3 6.91 6.91 0 0 1 6.16 2.84c.17.2.3.53.62.47.7-.74 1.48-1.4 2.31-1.98a9.13 9.13 0 0 1 7.53-.95 6.94 6.94 0 0 1 4.77 6.58v13.46h-5.27V47.4a3.89 3.89 0 0 0-.73-2.6c-1.63-2.14-5.37-1.8-6.79.47a4.5 4.5 0 0 0-.77 2.52V59.6h-5.22V47.45a4.3 4.3 0 0 0-1.3-3.22 4.35 4.35 0 0 0-5.1-.14 4.78 4.78 0 0 0-2.17 3.88V59.4h-5.3V39.63c1.3-.21 2.63-.26 3.94-.15l.3.15c.33.77.46 1.59.7 2.36zm-90.11-2.4a38.7 38.7 0 0 1 5.25-.17c.09 6.66 0 13.33 0 19.99h-5.27c.02-6.63.06-13.23.02-19.83z" fill="#fff"/><path d="M178.82 65.4H29v4h149.82v-4zm22.17 0h-12.7v3.97H201V65.4z" fill="#219E4D"/></g><defs><clipPath id="arjahifrw"><path transform="translate(29 7)" d="M0 0h172v86H0z"/></clipPath></defs></svg>