<svg xmlns="http://www.w3.org/2000/svg" width="230" height="100" viewBox="0 0 230 100"><path d="M17.58 46.1l-1.38 1.38a3.91 3.91 0 0 0 0 5.64L27.26 64.3c.27.26.57.48.9.65V51.41l-10.58-5.3z" fill="#3D89F5"/><path d="M42.52 46.1l1.37 1.38a3.91 3.91 0 0 1 0 5.64L32.83 64.3c-.26.26-.57.48-.9.65V51.41l10.59-5.3z" fill="#1656B9"/><path d="M39.86 43.3l-6.92-6.93a3.93 3.93 0 0 0-5.64 0l-6.94 6.94 9.72 4.85 9.78-4.85z" fill="#85B5F8"/><path d="M57.1 61.35h9.75c5.12 0 7.85-2.67 7.85-6.3a5.28 5.28 0 0 0-5.01-5.54v-.22c2.37-.53 4.12-2.21 4.12-4.9 0-3.41-2.54-5.84-7.57-5.84H57.1v22.8zm4.83-3.94v-6.06h4.04c2.31 0 3.75 1.34 3.75 3.22 0 1.71-1.17 2.84-3.86 2.84h-3.93zm0-9.32v-5.64h3.66c2.14 0 3.35 1.1 3.35 2.75 0 1.8-1.47 2.89-3.44 2.89h-3.57zm19.77-9.54h-4.74v22.8h4.74v-22.8zm10.74 23.13c5.19 0 8.42-3.55 8.42-8.82 0-5.3-3.23-8.83-8.42-8.83-5.18 0-8.41 3.54-8.41 8.84 0 5.26 3.23 8.81 8.41 8.81zm.03-3.67c-2.4 0-3.62-2.2-3.62-5.18 0-2.98 1.22-5.19 3.62-5.19 2.34 0 3.57 2.2 3.57 5.2 0 2.97-1.23 5.17-3.57 5.17zm18.41 3.67c4.56 0 7.42-2.67 7.64-6.6h-4.47c-.28 1.83-1.48 2.85-3.11 2.85-2.22 0-3.65-1.86-3.65-5.13 0-3.23 1.44-5.08 3.65-5.08 1.74 0 2.85 1.15 3.1 2.85h4.48c-.2-3.95-3.2-6.54-7.66-6.54-5.19 0-8.4 3.6-8.4 8.84 0 5.2 3.16 8.81 8.42 8.81zm9.9-.33h4.73v-5.43l1.29-1.46 4.66 6.89h5.55l-6.66-9.7 6.34-7.4h-5.44l-5.48 6.49h-.25v-12.2h-4.75v22.8zm24.48.33c4.55 0 7.41-2.67 7.63-6.6h-4.47c-.28 1.83-1.48 2.85-3.1 2.85-2.22 0-3.66-1.86-3.66-5.13 0-3.23 1.45-5.08 3.65-5.08 1.74 0 2.85 1.15 3.1 2.85h4.48c-.2-3.95-3.2-6.54-7.66-6.54-5.18 0-8.39 3.6-8.39 8.84 0 5.2 3.15 8.81 8.42 8.81zm14.63-10.22c0-2.2 1.36-3.5 3.3-3.5 1.92 0 3.06 1.24 3.04 3.35v10.04h4.75V50.46c0-4-2.35-6.43-5.92-6.43-2.59 0-4.33 1.22-5.1 3.24h-.2v-8.72h-4.61v22.8h4.74v-9.89zm18.9 10.21c2.54 0 4.17-1.1 5-2.7h.14v2.38h4.5V49.8c0-4.07-3.45-5.78-7.26-5.78-4.1 0-6.79 1.96-7.45 5.07l4.39.36c.32-1.14 1.33-1.97 3.04-1.97 1.61 0 2.54.81 2.54 2.21v.07c0 1.1-1.17 1.25-4.14 1.54-3.39.3-6.43 1.44-6.43 5.26 0 3.39 2.42 5.1 5.68 5.1zm1.37-3.27c-1.46 0-2.5-.68-2.5-1.98 0-1.34 1.1-2 2.77-2.23 1.03-.15 2.72-.39 3.29-.77v1.82c0 1.79-1.48 3.16-3.56 3.16zm11.16 2.95h4.75v-17.1h-4.75v17.1zm2.39-19.3c1.41 0 2.57-1.09 2.57-2.41 0-1.31-1.16-2.4-2.57-2.4-1.4 0-2.56 1.09-2.56 2.4 0 1.32 1.15 2.4 2.56 2.4zm10.11 9.41c.02-2.2 1.33-3.5 3.24-3.5 1.9 0 3.05 1.25 3.04 3.35v10.04h4.75V50.46c0-3.99-2.34-6.43-5.9-6.43-2.54 0-4.38 1.24-5.15 3.24h-.2v-3.02h-4.52v17.1h4.74v-9.89z" fill="#fff"/></svg>