<svg xmlns="http://www.w3.org/2000/svg" width="200" height="80" viewBox="0 0 200 80"><path fill="#C8D32D" d="M69.16 22.6a7.2 7.2 0 0 1 5.16 1.76 5.5 5.5 0 0 1 1.52 3.98v.05l-.02-.05a5.3 5.3 0 0 1-.96 3.32 5.5 5.5 0 0 1-2.83 2.08l4.8 6.21h-4.55l-6.75-8.6c-.15-.2.1-.2.1-.2h3.3c1.89 0 2.98-1.03 2.98-2.54 0-1.69-1.17-2.55-3.06-2.55h-3.88V40h-3.9V22.6zm-19.85-.23a9 9 0 0 1 6.5 2.48 8.7 8.7 0 0 1 2.67 6.28v.05h-.04a8.6 8.6 0 0 1-2.7 6.31 9 9 0 0 1-6.52 2.5 9 9 0 0 1-6.5-2.47 8.7 8.7 0 0 1-2.67-6.29v-.31a8.6 8.6 0 0 1 2.82-6.15 9 9 0 0 1 6.44-2.4m-.05 3.45a5.3 5.3 0 0 0-3.76 1.57 5 5 0 0 0-1.44 3.74v.05a5 5 0 0 0 1.46 3.76 5.3 5.3 0 0 0 8.65-1.7q.38-.97.33-2v-.06a5 5 0 0 0-1.46-3.76 5.3 5.3 0 0 0-3.78-1.6m35.09-3.42c2.34-.03 4.61.74 6.43 2.18L88.8 27.4a8 8 0 0 0-4.48-1.63c-1.46 0-2.22.66-2.22 1.49 0 1.12.72 1.49 3.7 2.24 3.51.9 5.49 2.14 5.49 5.11v.06c0 3.38-2.65 5.28-6.35 5.28-2.71 0-5.33-.96-7.35-2.73l2.25-2.65a8 8 0 0 0 5.17 2.07c1.57 0 2.5-.62 2.5-1.61v-.05c0-.95-.6-1.44-3.48-2.17-3.5-.87-5.74-1.82-5.74-5.2v-.05c0-3.1 2.53-5.15 6.05-5.15m-52.27.31a6.4 6.4 0 0 1 4.52 1.51 4 4 0 0 1 1.19 2.9 4 4 0 0 1-.59 2.17q-.62.99-1.68 1.5h-.03c2 .77 3.24 1.92 3.24 4.2v.05c0 3.12-2.6 4.68-6.48 4.68H24v-17zM27.7 32.7v3.7h4.54c1.67 0 2.68-.54 2.68-1.8l-.03-.05c0-1.15-.84-1.85-2.78-1.85zm0-6.73v3.61h3.52c1.71 0 2.78-.54 2.78-1.8l-.04-.05c0-1.13-.89-1.76-2.5-1.76zm79.62-3.3v3.34h-9.26v3.46h8.17v3.3h-8.17v3.61h9.36v3.34H94.2l.07-17.05zM48.57 18v3.09h-3.6V18zm5.39 0v3.09h-3.61V18zm-7.02 26.6a7.2 7.2 0 0 1 5.1 1.76 5.5 5.5 0 0 1 1.52 3.98v.05a5.3 5.3 0 0 1-.94 3.34 5.5 5.5 0 0 1-2.84 2.1l4.8 6.17h-4.54l-6.74-8.6c-.15-.2.08-.2.09-.2h3.27c1.9 0 2.99-1.03 2.99-2.54v-.05c0-1.69-1.17-2.56-3.06-2.56h-3.87V62h-3.9V44.6zm84.8 0v9.69c0 2.78 1.4 4.23 3.7 4.23s3.7-1.4 3.7-4.11v-9.8h3.83v9.66c0 5.19-2.97 7.73-7.6 7.73l.05-.02c-4.65 0-7.5-2.57-7.5-7.6V44.6zm-65.21 0 7.42 17.13-.04-.01h-3.98L68.4 58h-7.33l-1.49 3.72H55.7l7.36-17.12zm-4.1 10.08h4.64l-2.29-5.55zM79.15 44.6l8.08 10.54V44.6h3.76v17.13h-3.24L79.4 50.84v10.89h-3.77V44.6zm30.58-.02-7.04 7.26 7.41 9.85h-4.57l-5.37-7.26-2.01 2.05v5.25h-3.8V44.6h3.8v7.49l6.95-7.5zm15.77.02v3.44h-9.37v3.63h8.26v3.43h-8.26v6.63h-3.81V44.6zm50.5 0v3.52h-5.31v13.6h-3.81l.05-.04v-13.6h-5.29V44.6zm-138.82 0v3.44H27.8v3.63h8.25v3.43H27.8v6.62H24V44.6zm116.59.07a7 7 0 0 1 5.05 1.74 5.4 5.4 0 0 1 1.48 3.9l.04.02a5.2 5.2 0 0 1-.94 3.27 5.4 5.4 0 0 1-2.77 2.04l4.65 6.08h-4.45l-6.6-8.46c-.14-.2.09-.2.1-.2h3.2c1.86 0 2.91-1 2.91-2.48v-.05c0-1.66-1.13-2.5-2.98-2.5h-3.8v13.69h-3.8V44.67z"/></svg>