<svg xmlns="http://www.w3.org/2000/svg" width="200" height="60" viewBox="0 0 200 60"><path fill="#C8D32D" d="M72.47 14.18a6.4 6.4 0 0 1 4.62 1.6 5 5 0 0 1 1.36 3.62v.04l-.02-.04a4.86 4.86 0 0 1-3.4 4.9l4.31 5.66h-4.07l-6.05-7.82c-.14-.19.08-.19.08-.19h2.96c1.7 0 2.67-.93 2.67-2.3 0-1.54-1.05-2.33-2.74-2.33H68.7V30h-3.49V14.18zm-17.79-.21a8 8 0 0 1 5.82 2.26 8 8 0 0 1 2.4 5.71v.04h-.04a8 8 0 0 1-2.42 5.74A8 8 0 0 1 54.6 30a8.05 8.05 0 0 1-7.6-4.87 8 8 0 0 1-.61-3.1v-.29a8 8 0 0 1 2.52-5.58 8 8 0 0 1 5.77-2.19m-.05 3.14a4.7 4.7 0 0 0-4.36 3q-.33.89-.3 1.83v.04a4.65 4.65 0 0 0 2.87 4.49 4.8 4.8 0 0 0 3.67 0 4.7 4.7 0 0 0 2.82-4.44v-.05a4.65 4.65 0 0 0-2.85-4.48 5 5 0 0 0-1.85-.39M86.08 14c2.1-.02 4.13.67 5.76 1.98l-1.77 2.57a7.3 7.3 0 0 0-4-1.49c-1.31 0-2 .6-2 1.36 0 1.02.64 1.35 3.32 2.03 3.15.83 4.91 1.95 4.91 4.65v.05c0 3.08-2.37 4.8-5.69 4.8a10 10 0 0 1-6.58-2.47l2.02-2.42a7 7 0 0 0 4.63 1.88c1.41 0 2.24-.56 2.24-1.46v-.04c0-.86-.53-1.32-3.12-1.97-3.13-.8-5.14-1.66-5.14-4.74v-.04c0-2.82 2.26-4.68 5.42-4.68m-46.85.29a5.6 5.6 0 0 1 4.05 1.37 3.6 3.6 0 0 1 1.06 2.63 3.6 3.6 0 0 1-2.03 3.34h-.02c1.8.7 2.9 1.74 2.9 3.82v.04c0 2.84-2.32 4.25-5.8 4.25H32V14.29zm-3.91 9.05v3.37h4.06c1.5 0 2.4-.5 2.4-1.64l-.02-.04c0-1.05-.75-1.69-2.5-1.69zm0-6.12v3.29h3.15c1.54 0 2.49-.5 2.49-1.64l-.03-.04c0-1.03-.8-1.6-2.24-1.6zm71.35-2.98v3.03h-8.3v3.15h7.31v3h-7.31v3.28h8.38v3.04H94.9l.06-15.5zM54.02 10v2.8h-3.24V10zm4.83 0v2.8H55.6V10zm-6.33 24.22a6.4 6.4 0 0 1 4.58 1.6 5 5 0 0 1 1.35 3.61v.04a4.85 4.85 0 0 1-3.39 4.94l4.3 5.59H55.3l-6.04-7.8c-.13-.19.09-.18.09-.18h2.93c1.7 0 2.67-.93 2.67-2.3v-.05c0-1.53-1.05-2.31-2.74-2.31h-3.46V50h-3.48V34.22zm75.88.01V43c0 2.53 1.25 3.83 3.31 3.83s3.32-1.26 3.32-3.72v-8.9h3.41V43c0 4.7-2.65 7.01-6.8 7.01l.06-.02c-4.17 0-6.71-2.32-6.71-6.9v-8.85zm-58.34 0 6.63 15.52H73.1l-1.38-3.38h-6.55l-1.33 3.38h-3.48l6.59-15.52zm-3.67 9.13h4.15l-2.05-5.03zm14.95-9.13 7.23 9.55v-9.55h3.37v15.52h-2.9l-7.47-9.86v9.86H78.2V34.23zm27.36-.02-6.3 6.58 6.64 8.93h-4.09l-4.8-6.58-1.8 1.86v4.75h-3.4V34.23h3.4V41l6.21-6.8zm14.12.02v3.11h-8.4v3.3h7.4v3.1h-7.4v6.01h-3.4V34.23zm45.18 0v3.19h-4.75v12.33h-3.41l.04-.04V37.38h-4.72v-3.15zm-124.2 0v3.11h-8.4v3.3h7.38v3.1h-7.37v6H32v-15.5zm104.32.07a6.2 6.2 0 0 1 4.5 1.56 5 5 0 0 1 1.33 3.55l.04.02a4.8 4.8 0 0 1-3.32 4.8l4.16 5.52h-3.98l-5.9-7.67c-.14-.18.08-.18.08-.18h2.87c1.66 0 2.6-.91 2.6-2.25v-.05c0-1.5-1.01-2.27-2.67-2.27h-3.39v12.42h-3.4V34.29z"/></svg>