<svg xmlns="http://www.w3.org/2000/svg" width="200" height="60" viewBox="0 0 200 60"><path fill="#fff" d="M97.04 39.61h-6.68v-5.6h6.68a2.76 2.76 0 0 1 2.76 2.77 2.8 2.8 0 0 1-2.76 2.83m-6.68-15.75h6.1a2.76 2.76 0 0 1 2.75 2.78 2.76 2.76 0 0 1-2.76 2.77h-6.1zm13.13 7.26a7.38 7.38 0 0 0-5.8-11.86H84.26v24.9h14.6a7.35 7.35 0 0 0 4.63-13.04M126 14.78q0 1.35-1.06 2.24-1.05.9-2.63.89-1.52-.02-2.58-.83a3 3 0 0 1-1.23-2.18h2.75q.34.81 1.12.83c.35 0 .58-.06.82-.24s.29-.41.29-.7c0-.3-.12-.48-.3-.66-.23-.17-.46-.23-.87-.23h-.94v-1.95h.88q.54.01.82-.23t.3-.6q-.01-.43-.3-.7c-.18-.18-.47-.24-.76-.24-.36 0-.59.12-.82.36q-.2.17-.3.53h-2.58c.18-.95.53-1.71 1.23-2.24a3.8 3.8 0 0 1 2.47-.83c1.05 0 1.87.3 2.58.83q.98.87 1 2.18-.02 1.22-1 1.83a2.1 2.1 0 0 1 1.11 1.94"/><path fill="#fff" d="M84.32 14.49v-3.07H75V52h9.32v-3h-6.27V14.48zM106 49v3h9.33V11.42h-9.32v3.07h6.33v34.5z"/></svg>