<svg xmlns="http://www.w3.org/2000/svg" width="132" height="60" viewBox="0 0 132 60"><path fill="#fff" d="M63.45 39.02h-5.9v-4.97h5.9c1.34 0 2.43 1.1 2.43 2.46s-1.09 2.51-2.43 2.51m-5.9-13.96h5.38c1.34 0 2.43 1.1 2.43 2.46a2.44 2.44 0 0 1-2.43 2.46h-5.38zm11.59 6.43a6.6 6.6 0 0 0 1.34-3.97 6.5 6.5 0 0 0-6.46-6.54H52.17v22.07h12.88a6.5 6.5 0 0 0 4.09-11.56M89 17.01q0 1.2-.93 1.99-.93.78-2.33.78-1.33-.01-2.27-.73a2.7 2.7 0 0 1-1.09-1.93h2.43q.3.72.98.73c.31 0 .52-.05.73-.21q.28-.24.26-.63c0-.26-.1-.42-.26-.57-.2-.16-.42-.21-.78-.21h-.83V14.5h.78q.48.01.72-.2.25-.23.26-.53-.01-.39-.26-.63c-.15-.15-.41-.2-.67-.2q-.44 0-.72.3-.16.16-.26.48h-2.28c.16-.84.47-1.52 1.09-1.99a3.3 3.3 0 0 1 2.17-.73c.93 0 1.66.26 2.28.73q.87.77.88 1.94a1.8 1.8 0 0 1-.88 1.62c.67.36.98.99.98 1.72"/><path fill="#fff" d="M52.22 16.75v-2.72H44V50h8.22v-2.67H46.7V16.75zm19.14 30.58V50h8.22V14.03h-8.22v2.72h5.59v30.58z"/></svg>