<svg width="612" height="392" viewBox="0 0 612 392" fill="none" xmlns="http://www.w3.org/2000/svg"><path fill="#000" d="M0 0h612v392H0z"/><path d="M0 24A24 24 0 0 1 24 0h564a24 24 0 0 1 24 24v368H0V24Z" fill="url(#afg01zqyl)"/><path d="M1 24A23 23 0 0 1 24 1h564a23 23 0 0 1 23 23v367H1V24Z" stroke="url(#bfg01zqyl)" stroke-opacity=".2" stroke-width="2"/><rect x="24" y="24" width="124" height="124" rx="25.66" fill="url(#cfg01zqyl)" fill-opacity=".4"/><g opacity=".9"><path fill-rule="evenodd" d="M90.97 116.06H65.62v-60h22.64c9.58 0 17.35 7.78 17.35 17.36v.38c0 4.15-1.46 7.96-3.89 10.95a15.15 15.15 0 0 1 7.84 13.65c0 9.98-7.94 17.66-18.59 17.66Zm-2.71-24.9h1.87c4.56 0 7.52 2.94 7.52 6.82 0 3.89-2.96 6.85-7.52 6.85H77.87V91.15h10.39Zm-.01-10.7c-.43.08-.86.13-1.31.13h-8.87v-13.2h8.87a6.6 6.6 0 0 1 5.4 2.8 6.67 6.67 0 0 1 1.17 3.8 6.59 6.59 0 0 1-1.84 4.6 6.86 6.86 0 0 1-3.42 1.87Z" fill="url(#dfg01zqyl)"/><mask id="efg01zqyl" style="mask-type:alpha" maskUnits="userSpaceOnUse" x="77" y="56" width="33" height="61"><path fill-rule="evenodd" d="M90.97 116.07h-13.1v-60h10.39c9.58 0 17.35 7.77 17.35 17.35v.38c0 4.15-1.46 7.96-3.89 10.95a15.15 15.15 0 0 1 7.84 13.65c0 9.98-7.94 17.67-18.59 17.67Zm-2.71-24.92h1.87c4.56 0 7.52 2.95 7.52 6.83 0 3.89-2.96 6.85-7.52 6.85H77.88V91.15h10.38Zm-.01-10.7c-.43.1-.86.14-1.31.14h-8.87v-13.2h8.87a6.6 6.6 0 0 1 5.4 2.8 6.67 6.67 0 0 1 1.17 3.8 6.59 6.59 0 0 1-1.84 4.6 6.86 6.86 0 0 1-3.42 1.87Z" fill="#5D606B"/></mask><g filter="url(#ffg01zqyl)" mask="url(#efg01zqyl)"><path d="M88.26 56.07H65.62v35.08h22.64c9.58 0 17.35-7.77 17.35-17.35v-.38c0-9.58-7.77-17.35-17.35-17.35Zm-1.32 11.32h-8.87v13.2h8.87a6.6 6.6 0 1 0 0-13.2Z" fill="#F0F3FA"/></g><path fill="#F0F3FA" d="M65.62 56.07h12.45v59.98H65.62z"/></g><path d="M232.8 58V45.38h3.43v2.16h.1c.18-.76.53-1.35 1.04-1.77.5-.43 1.13-.64 1.88-.64a4.43 4.43 0 0 1 1.05.14v3c-.17-.06-.36-.1-.59-.14a5.25 5.25 0 0 0-.72-.04c-.57 0-1.07.1-1.48.32a2.2 2.2 0 0 0-.95.98c-.22.42-.33.93-.33 1.54V58h-3.42ZM224.94 58.26c-1.29 0-2.4-.26-3.32-.79a5.36 5.36 0 0 1-2.14-2.27 7.62 7.62 0 0 1-.75-3.5c0-1.34.25-2.5.74-3.49.5-.98 1.2-1.74 2.11-2.28a6.16 6.16 0 0 1 3.22-.82c1.23 0 2.3.27 3.19.8.9.52 1.59 1.26 2.07 2.21.5.95.74 2.06.74 3.33v1.05h-10.38v-2.15h8.75l-1.61 2.01v-1.32c0-.74-.12-1.36-.34-1.86-.23-.5-.55-.88-.95-1.13-.4-.25-.88-.37-1.4-.37-.55 0-1.02.12-1.44.38-.41.26-.74.64-.97 1.15a4.3 4.3 0 0 0-.35 1.83v1.34c0 .7.11 1.3.35 1.8.23.5.56.87 1 1.14.43.25.95.38 1.55.38.47 0 .88-.07 1.22-.2.35-.16.64-.34.85-.56.21-.23.36-.45.44-.68l.02-.07h3.16l-.04.13a4.76 4.76 0 0 1-1.65 2.65c-.46.39-1.03.7-1.71.94-.67.23-1.46.35-2.36.35ZM206.7 58V40.93h3.42V58h-3.43Zm7.94 0-3.9-5.55 2.24-2.51L218.6 58h-3.96Zm-4.91-3.76-.02-3.82h.5l4.25-5.04h3.88l-5.7 6.47-.95.24-1.96 2.15ZM198.33 58.26a6.7 6.7 0 0 1-3.32-.79 5.33 5.33 0 0 1-2.17-2.25 7.6 7.6 0 0 1-.76-3.52v-.03c0-1.36.26-2.53.77-3.5a5.42 5.42 0 0 1 2.17-2.26 6.6 6.6 0 0 1 3.3-.8c1.27 0 2.37.27 3.3.8a5.4 5.4 0 0 1 2.18 2.25c.51.97.77 2.14.77 3.51v.03c0 1.37-.25 2.55-.76 3.52a5.34 5.34 0 0 1-2.17 2.25c-.93.53-2.03.79-3.31.79Zm0-2.69c.58 0 1.07-.15 1.47-.45.42-.3.73-.75.95-1.33.23-.58.34-1.27.34-2.1v-.02c0-.82-.11-1.52-.34-2.1a2.91 2.91 0 0 0-.96-1.32 2.4 2.4 0 0 0-1.46-.46 2.4 2.4 0 0 0-1.47.47c-.41.3-.73.75-.96 1.33a5.68 5.68 0 0 0-.34 2.08v.03c0 .82.12 1.51.34 2.1.23.57.55 1.01.96 1.32.42.3.9.45 1.48.45ZM183.86 58V45.38h3.43v2.16h.09c.19-.76.53-1.35 1.04-1.77.51-.43 1.14-.64 1.89-.64a4.43 4.43 0 0 1 1.04.14v3c-.16-.06-.36-.1-.58-.14a5.25 5.25 0 0 0-.72-.04c-.58 0-1.07.1-1.49.32a2.2 2.2 0 0 0-.95.98c-.21.42-.32.93-.32 1.54V58h-3.43ZM170.3 58v-2.64h4.82c1.02 0 1.8-.2 2.33-.6.54-.42.81-1.02.81-1.81v-.02c0-.52-.12-.95-.37-1.3a2.18 2.18 0 0 0-1.1-.81 5.03 5.03 0 0 0-1.81-.28h-4.69v-2.4h4.28c.99 0 1.74-.2 2.25-.58a2 2 0 0 0 .78-1.69v-.02c0-.67-.22-1.2-.69-1.57a2.98 2.98 0 0 0-1.93-.57h-4.69V41.1h5.6c1.08 0 2 .17 2.77.52.77.34 1.37.83 1.8 1.46.41.63.63 1.38.63 2.25v.02a3.63 3.63 0 0 1-1.59 3.04c-.48.34-1.03.56-1.65.64v.1c.78.05 1.47.26 2.08.63a3.92 3.92 0 0 1 1.95 3.41v.02c0 .99-.23 1.84-.71 2.56a4.7 4.7 0 0 1-2.03 1.67c-.87.4-1.9.59-3.1.59h-5.75Zm-1.78 0V41.09h3.54V58h-3.54Z" fill="#F8F9FD"/><path d="M213.71 84.17a3.96 3.96 0 0 1-3.81-2.29 5.95 5.95 0 0 1-.52-2.57v-.01c0-.98.17-1.84.52-2.58a4.1 4.1 0 0 1 1.48-1.72 4.01 4.01 0 0 1 2.24-.62 3.77 3.77 0 0 1 3.64 2.26c.33.7.5 1.53.5 2.47v.6h-7.59V78.5h6.8l-.75 1.12V79a4.4 4.4 0 0 0-.34-1.84 2.36 2.36 0 0 0-2.27-1.42c-.51 0-.97.12-1.36.37-.4.24-.72.61-.95 1.1a4.1 4.1 0 0 0-.36 1.79v.6c0 .68.12 1.25.35 1.73.23.47.55.84.97 1.1.42.25.92.37 1.49.37.43 0 .8-.05 1.12-.17.31-.12.57-.27.78-.45.2-.18.35-.37.43-.56l.03-.08h1.53l-.01.07c-.09.33-.23.64-.44.95-.21.3-.48.57-.81.82-.33.24-.72.43-1.16.58-.45.14-.95.2-1.5.2ZM199.85 84v-9.46h1.53v1.42h.13c.24-.5.58-.89 1.03-1.16a3.25 3.25 0 0 1 1.74-.42c1.06 0 1.87.3 2.44.91.57.6.86 1.46.86 2.58V84h-1.53v-5.76c0-.85-.18-1.49-.54-1.9-.36-.4-.92-.61-1.67-.61-.5 0-.94.1-1.3.32-.37.22-.66.53-.86.93-.2.39-.3.86-.3 1.42V84h-1.53ZM195.92 84v-9.46h1.53V84h-1.53Zm.77-11.28a1 1 0 0 1-.73-.3c-.21-.21-.31-.46-.31-.74 0-.3.1-.54.3-.75a1 1 0 0 1 .74-.3c.3 0 .55.1.75.3.2.2.3.45.3.75 0 .28-.1.53-.3.74-.2.2-.45.3-.75.3ZM191.9 84V70.79h1.53V84h-1.53ZM181.8 84v-9.46h1.54v1.42h.13c.24-.5.59-.89 1.04-1.16a3.25 3.25 0 0 1 1.73-.42c1.06 0 1.87.3 2.44.91.57.6.86 1.46.86 2.58V84h-1.53v-5.76c0-.85-.18-1.49-.54-1.9-.36-.4-.92-.61-1.67-.61-.5 0-.93.1-1.3.32s-.66.53-.86.93c-.2.39-.3.86-.3 1.42V84h-1.53ZM173.93 84.3a5.8 5.8 0 0 1-3.12-.81 5.34 5.34 0 0 1-2-2.31c-.47-1-.7-2.17-.7-3.52v-.01c0-1.36.23-2.54.7-3.53a5.34 5.34 0 0 1 2.01-2.3c.88-.53 1.91-.8 3.1-.8a5.27 5.27 0 0 1 5.12 3.11c.47.99.7 2.16.7 3.52v.01c0 1.35-.23 2.52-.7 3.52a5.27 5.27 0 0 1-5.11 3.12Zm0-1.46c.86 0 1.61-.21 2.24-.64a4.13 4.13 0 0 0 1.45-1.8c.34-.78.5-1.7.5-2.74v-.01c0-1.06-.16-1.97-.5-2.75a4.07 4.07 0 0 0-1.45-1.79 3.92 3.92 0 0 0-2.24-.63c-.87 0-1.61.2-2.24.63a4.13 4.13 0 0 0-1.46 1.8 6.8 6.8 0 0 0-.5 2.74v.01c0 1.05.16 1.96.5 2.74.33.77.81 1.37 1.44 1.8.62.43 1.38.64 2.26.64Z" fill="#089981"/><rect x="251" y="39" width="61" height="24" rx="6" fill="url(#gfg01zqyl)"/><path d="M266.91 56.25a5.2 5.2 0 0 1-1.97-.35 4.17 4.17 0 0 1-2.42-2.67 6.81 6.81 0 0 1-.32-2.16v-.01c0-1.06.2-1.98.57-2.75a4.2 4.2 0 0 1 1.62-1.8 4.7 4.7 0 0 1 2.48-.63c.78 0 1.47.14 2.08.42.61.28 1.1.67 1.5 1.16.39.5.63 1.07.74 1.72v.07h-1.99l-.01-.07c-.14-.5-.42-.9-.83-1.17-.4-.28-.9-.42-1.49-.42-.54 0-1 .14-1.4.42-.4.28-.7.67-.9 1.19a4.86 4.86 0 0 0-.32 1.84v.01c0 .54.06 1.02.18 1.46.13.43.3.8.54 1.1.24.3.52.53.85.7.34.15.71.23 1.13.23.46 0 .86-.08 1.21-.26a2.03 2.03 0 0 0 1.16-1.86v-.19h-2.18v-1.47h4.13v1.25c0 .65-.1 1.24-.3 1.76a3.67 3.67 0 0 1-2.25 2.19c-.53.2-1.14.3-1.8.3Zm10.6 0c-.97 0-1.81-.2-2.52-.63a4.23 4.23 0 0 1-1.63-1.8 6.17 6.17 0 0 1-.58-2.75v-.01c0-1.06.2-1.98.59-2.76.38-.77.93-1.37 1.64-1.79.7-.42 1.54-.63 2.5-.63.97 0 1.8.21 2.51.63a4.17 4.17 0 0 1 1.64 1.8c.4.77.58 1.69.58 2.75v.01a6.1 6.1 0 0 1-.58 2.76 4.22 4.22 0 0 1-1.63 1.8c-.7.41-1.54.62-2.51.62Zm0-1.7a2.4 2.4 0 0 0 1.43-.43c.4-.29.7-.69.93-1.21.22-.52.33-1.14.33-1.84v-.01c0-.7-.11-1.32-.33-1.84a2.72 2.72 0 0 0-.93-1.2 2.4 2.4 0 0 0-1.43-.43c-.54 0-1.01.14-1.42.43-.4.28-.71.68-.93 1.2a4.73 4.73 0 0 0-.33 1.84v.01c0 .7.1 1.32.33 1.84a2.42 2.42 0 0 0 2.36 1.63Zm6.62 1.45v-9.86h2v8.2h4.42V56h-6.42Zm8.2 0v-9.86h3.85c.97 0 1.8.19 2.5.57.69.38 1.21.93 1.58 1.66.36.73.55 1.6.55 2.63v.02c0 1.05-.19 1.95-.55 2.7a3.82 3.82 0 0 1-1.57 1.7c-.7.39-1.53.58-2.51.58h-3.85Zm2-1.66h1.54c.61 0 1.14-.13 1.56-.38.44-.25.77-.62.99-1.11.23-.5.34-1.1.34-1.8v-.02a4 4 0 0 0-.35-1.75 2.43 2.43 0 0 0-.99-1.1 2.98 2.98 0 0 0-1.55-.38h-1.53v6.54Z" fill="#fff"/><path d="M319.67 138v-7.5h-2.73v-.96h6.5v.95h-2.72V138h-1.05ZM308.56 138v-8.46h1.03l4.84 6.95-.7-.37h.54v-6.58h1.04V138h-1.02l-4.85-6.93.7.37h-.53V138h-1.05ZM301.41 138v-8.46h5.24v.95h-4.18v2.72h3.97v.94h-3.97v2.9h4.18v.95h-5.24ZM294.6 138v-8.46h1.05v7.51h4.08v.95h-5.14ZM287.77 138v-8.46h1.06v7.51h4.08v.95h-5.14ZM280.63 138v-8.46h5.23v.95h-4.18v2.72h3.97v.94h-3.97v2.9h4.18v.95h-5.24ZM275.44 138.2c-.77 0-1.43-.18-1.99-.54a3.52 3.52 0 0 1-1.3-1.53 5.62 5.62 0 0 1-.44-2.35v-.01c0-.91.15-1.7.45-2.36.3-.66.73-1.17 1.29-1.53a3.59 3.59 0 0 1 1.98-.53c.6 0 1.14.11 1.62.35.49.23.9.55 1.2.96.32.41.52.89.6 1.43v.01h-1.06v-.01a2.33 2.33 0 0 0-1.3-1.56 2.53 2.53 0 0 0-1.06-.21 2.38 2.38 0 0 0-2.32 1.62 4.74 4.74 0 0 0-.32 1.83v.01c0 .7.1 1.31.32 1.83.22.51.52.91.92 1.2.4.28.87.42 1.4.42.4 0 .76-.07 1.08-.2a1.97 1.97 0 0 0 1.26-1.39h1.08v.01a2.9 2.9 0 0 1-1.8 2.23c-.47.21-1 .32-1.61.32ZM263.63 138l3.13-4.62-.25.82v-.47l-2.85-4.19h1.27l2.26 3.4h.49l-.7.38 2.54-3.78h1.2l-2.93 4.24v.47l-.25-.81 3.11 4.56h-1.26l-2.25-3.38h-.48l.7-.36-2.54 3.74h-1.2ZM257.04 138v-8.46h5.23v.95h-4.18v2.72h3.97v.94h-3.97v2.9h4.18v.95h-5.23ZM242.03 138.2c-.62 0-1.16-.1-1.62-.3-.45-.2-.82-.48-1.09-.83a2.37 2.37 0 0 1-.46-1.22v-.06h1.05v.06c.03.28.14.53.33.73.19.2.44.36.76.48a3.26 3.26 0 0 0 2.1-.02c.3-.12.55-.3.72-.51.17-.22.25-.47.25-.76 0-.35-.13-.65-.38-.89a2.7 2.7 0 0 0-1.26-.55l-.94-.2a4.7 4.7 0 0 1-1.38-.52 2.19 2.19 0 0 1-.8-.79 2.24 2.24 0 0 1-.25-1.08c0-.47.13-.89.38-1.25.26-.36.6-.64 1.05-.84.45-.2.97-.3 1.55-.3.56 0 1.06.1 1.5.3.43.2.77.47 1.03.8.25.35.4.73.42 1.15l.01.08h-1.06v-.07a1.31 1.31 0 0 0-.31-.67c-.16-.19-.38-.34-.66-.46-.27-.11-.6-.17-.96-.16-.35 0-.67.05-.95.16-.28.11-.5.27-.67.48-.16.2-.25.45-.25.75 0 .23.06.43.17.6.1.18.28.34.51.46.24.13.55.24.93.33l.94.2c.6.14 1.07.3 1.43.51.35.2.62.46.78.76.17.3.25.65.25 1.06 0 .53-.13.99-.38 1.37-.26.38-.63.68-1.1.89-.46.2-1.01.3-1.64.3ZM233.8 138.2c-.59 0-1.12-.1-1.6-.31a3.4 3.4 0 0 1-1.2-.9 4.1 4.1 0 0 1-.77-1.39 5.83 5.83 0 0 1-.26-1.82v-.02c0-.89.15-1.66.47-2.32.32-.67.76-1.18 1.34-1.54a3.7 3.7 0 0 1 2.02-.55c.62 0 1.18.1 1.67.33a3.16 3.16 0 0 1 1.85 2.33l.02.05h-1.07l-.02-.05a2.3 2.3 0 0 0-.88-1.26 2.7 2.7 0 0 0-1.57-.43 2.5 2.5 0 0 0-2.42 1.62 4.5 4.5 0 0 0-.34 1.82v.02c0 .53.06 1 .19 1.43.13.43.31.79.55 1.1a2.47 2.47 0 0 0 2.02.92c.5 0 .95-.1 1.33-.3.38-.2.68-.49.89-.85.2-.36.31-.77.31-1.25v-.2h-2.37v-.93h3.43v1.03c0 .52-.09 1-.26 1.42a3.11 3.11 0 0 1-1.86 1.8 4.2 4.2 0 0 1-1.47.25ZM221.39 138v-8.46h1.02l4.85 6.95-.7-.37h.53v-6.58h1.05V138h-1.03l-4.84-6.93.7.37h-.54V138h-1.04ZM218.18 138v-8.46h1.05V138h-1.05ZM212.77 138v-7.5h-2.73v-.96h6.5v.95h-2.72V138h-1.05ZM202.8 138l3.12-8.46h.81v1.37h-.33L203.9 138h-1.1Zm1.42-2.42.33-.9h3.82l.32.9h-4.47Zm4.76 2.42-2.49-7.09v-1.37h.48l3.11 8.46h-1.1ZM195.64 138v-8.46h3.23c.54 0 1.01.11 1.42.32.4.2.72.5.94.87.22.38.33.82.33 1.33v.01c0 .59-.15 1.1-.45 1.52-.3.43-.71.73-1.25.9l1.96 3.51h-1.23l-1.81-3.35h-2.09V138h-1.05Zm1.06-4.28h2.08c.54 0 .96-.14 1.25-.42.3-.28.44-.68.44-1.2 0-.51-.15-.9-.46-1.19-.3-.28-.73-.43-1.28-.43h-2.03v3.24ZM185.3 135.18l-.07-1.53h.27l3.7-4.1h1.33l-3.5 3.77-.49.48-1.25 1.38Zm-.95 2.82v-8.46h1.06V138h-1.06Zm5.13 0-3.16-4.21.72-.73 3.8 4.94h-1.36ZM179.35 129.35c.38 0 .76.07 1.14.22.38.15.72.39 1.02.72.31.33.56.77.74 1.32.19.54.28 1.21.28 2v.02c0 .96-.13 1.78-.39 2.47a3.4 3.4 0 0 1-1.11 1.56c-.49.36-1.07.54-1.75.54-.48 0-.9-.09-1.29-.26a2.63 2.63 0 0 1-1.47-1.82l-.02-.08h1.06l.02.07a1.65 1.65 0 0 0 .94 1c.23.1.48.15.77.15.5 0 .93-.15 1.25-.45.31-.3.55-.7.71-1.2a6.08 6.08 0 0 0 .27-1.78v-.15l-.25-1.41a1.99 1.99 0 0 0-.95-1.72c-.28-.18-.6-.27-.96-.27a1.93 1.93 0 0 0-1.91 1.96 1.83 1.83 0 0 0 1.9 1.93 1.83 1.83 0 0 0 1.93-1.9h.33v1.52h-.2a2 2 0 0 1-.47.65c-.2.2-.46.36-.76.48s-.64.18-1.02.18a2.73 2.73 0 0 1-2.41-1.38 2.91 2.91 0 0 1-.36-1.45v-.01c0-.56.12-1.06.38-1.5.25-.44.6-.79 1.05-1.04.45-.25.96-.37 1.53-.37ZM174.32 138.06a.75.75 0 0 1-.53-.22.75.75 0 0 1-.23-.54c0-.21.08-.4.22-.54a.75.75 0 0 1 .54-.22c.22 0 .4.07.54.22.15.15.23.33.23.54 0 .2-.08.38-.23.54a.74.74 0 0 1-.54.22ZM168.3 138l3.8-7.43v-.08h-4.53v-.95h5.6v.98L169.4 138h-1.1Z" fill="#868993"/><path d="M176.3 121v-3.25h-8.36v-2.55a334.46 334.46 0 0 1 2.76-4.47l1.4-2.22a1372.68 1372.68 0 0 0 2.79-4.42h4.3v11.18h2.27v2.48h-2.27V121h-2.88Zm-5.63-5.66h5.68v-8.94h-.1l-1.1 1.76a341.66 341.66 0 0 0-2.25 3.53l-1.13 1.79c-.37.58-.74 1.17-1.1 1.77v.09Zm14.64 5.86c-.49 0-.9-.17-1.23-.5-.33-.34-.5-.75-.5-1.22 0-.49.17-.9.5-1.22.33-.34.74-.5 1.23-.5.48 0 .89.16 1.22.5.33.33.5.73.5 1.22 0 .47-.17.88-.5 1.21-.33.34-.74.5-1.22.5Zm10.67.1a8.8 8.8 0 0 1-3.4-.63 5.55 5.55 0 0 1-2.33-1.72 4.1 4.1 0 0 1-.83-2.54v-.03c0-.72.16-1.37.48-1.95.33-.6.78-1.1 1.35-1.5.57-.4 1.22-.68 1.97-.83v-.06a4.6 4.6 0 0 1-2.31-1.39 3.43 3.43 0 0 1-.88-2.34v-.03c0-.86.25-1.63.76-2.3a5.02 5.02 0 0 1 2.11-1.6c.9-.39 1.93-.58 3.08-.58 1.17 0 2.2.2 3.09.58.9.39 1.6.92 2.1 1.6.51.67.77 1.44.77 2.3v.03c0 .9-.3 1.68-.88 2.34a4.6 4.6 0 0 1-2.31 1.38v.08c.74.14 1.4.42 1.97.83.57.4 1.01.9 1.33 1.49.33.58.5 1.23.5 1.95v.03c0 .96-.29 1.8-.85 2.54a5.47 5.47 0 0 1-2.3 1.72c-1 .42-2.13.62-3.42.62Zm0-2.3c.68 0 1.27-.12 1.78-.36.53-.24.93-.57 1.22-1 .3-.41.45-.9.45-1.43v-.03c0-.54-.15-1.02-.45-1.44-.29-.42-.69-.75-1.2-1a4.17 4.17 0 0 0-1.8-.36c-.68 0-1.27.12-1.79.37-.51.24-.92.57-1.22 1-.29.41-.43.9-.43 1.43v.03c0 .54.14 1.02.43 1.44.3.42.7.75 1.22 1 .52.23 1.12.35 1.8.35Zm0-7.93c.59 0 1.1-.1 1.54-.31.44-.21.8-.5 1.04-.88.25-.38.38-.81.38-1.3v-.02c0-.49-.13-.92-.38-1.3-.25-.37-.6-.66-1.04-.87a3.54 3.54 0 0 0-1.54-.32c-.58 0-1.1.1-1.54.32-.44.2-.79.5-1.05.88-.25.37-.37.8-.37 1.29v.02c0 .49.12.92.37 1.3.25.37.6.67 1.05.88.44.2.96.31 1.54.31Z" fill="#E0E3EB"/><circle cx="251.5" cy="132.5" r=".5" fill="#C1C4CD"/><path d="m216 104 2.33 4.8 5.28.73-3.84 3.7.93 5.24-4.7-2.51-4.7 2.51.93-5.25-3.84-3.7 5.28-.72L216 104ZM232 104l2.33 4.8 5.28.73-3.84 3.7.93 5.24-4.7-2.51-4.7 2.51.93-5.25-3.84-3.7 5.28-.72L232 104ZM248 104l2.33 4.8 5.28.73-3.84 3.7.93 5.24-4.7-2.51-4.7 2.51.93-5.25-3.84-3.7 5.28-.72L248 104ZM264 104l2.33 4.8 5.28.73-3.84 3.7.93 5.24-4.7-2.51-4.7 2.51.93-5.25-3.84-3.7 5.28-.72L264 104ZM280 104l2.33 4.8 5.28.73-3.84 3.7.93 5.24-4.7-2.51-4.7 2.51.93-5.25-3.84-3.7 5.28-.72L280 104Z" fill="#E0E3EB"/><path fill-rule="evenodd" d="M300.33 105.13a.5.5 0 0 0-.66 0l-1.19 1.04a.5.5 0 0 1-.4.12l-1.55-.23a.5.5 0 0 0-.56.36l-.44 1.52a.51.51 0 0 1-.28.32l-1.43.66a.51.51 0 0 0-.27.6l.44 1.53c.05.14.02.3-.06.42l-.85 1.33c-.14.21-.1.5.1.66l1.06 1.04c.12.1.18.24.18.39v1.58c0 .25.18.47.43.5l1.67.23c.15.02.28.1.36.23l.85 1.33c.13.22.4.3.63.2l1.43-.67a.5.5 0 0 1 .42 0l1.43.66c.23.11.5.03.63-.19l.85-1.33a.5.5 0 0 1 .36-.23l1.68-.22a.5.5 0 0 0 .44-.51v-1.58c0-.15.06-.3.17-.4l1.05-1.03c.2-.16.24-.45.1-.66l-.85-1.33a.51.51 0 0 1-.06-.42l.44-1.52a.51.51 0 0 0-.27-.61l-1.43-.66a.51.51 0 0 1-.28-.32l-.44-1.52a.5.5 0 0 0-.56-.36l-1.55.23a.5.5 0 0 1-.4-.12l-1.19-1.04Zm-1.34 9.5 4.51-4.34-.95-.92-3.56 3.43-1.54-1.49-.95.92 2.5 2.4Z" fill="#E0E3EB"/><path d="M392.82 118v-14.64h2.43V118h-2.43Zm6.67 0-3.56-4.81 1.75-1.56 4.7 6.37h-2.89Zm-4.48-3.47-.07-2.77h.45l3.93-4.36h2.8l-4.68 4.95-.96.67-1.47 1.51ZM386.57 118v-2.7h-6.8v-2.08a264.9 264.9 0 0 1 4.5-7.5l1.15-1.81h3.56v9.31h1.86v2.08h-1.86v2.7h-2.4Zm-4.49-4.73h4.53v-7.37h-.12a119.07 119.07 0 0 0-2.68 4.3l-.88 1.5c-.3.48-.58.97-.85 1.46v.11ZM376.17 118.19a1.48 1.48 0 0 1-1.51-1.51c0-.43.14-.79.43-1.07.3-.3.65-.44 1.08-.44.44 0 .8.14 1.09.44.29.28.44.64.44 1.06 0 .42-.15.78-.44 1.08-.3.29-.65.44-1.09.44ZM368.33 118v-2.7h-6.8v-2.08a309.25 309.25 0 0 1 3.36-5.67 1074.41 1074.41 0 0 1 2.29-3.64h3.55v9.31h1.87v2.08h-1.87v2.7h-2.4Zm-4.5-4.73h4.54v-7.37h-.12a119.07 119.07 0 0 0-2.68 4.3l-.88 1.5c-.3.48-.58.97-.85 1.46v.11ZM354.5 118.27c-1.06 0-2-.17-2.8-.51a4.58 4.58 0 0 1-1.92-1.44 3.48 3.48 0 0 1-.7-2.14v-.02a3.4 3.4 0 0 1 1.5-2.88 4.22 4.22 0 0 1 1.65-.7v-.05c-.8-.22-1.43-.6-1.92-1.15a2.93 2.93 0 0 1-.72-1.98v-.02c0-.72.21-1.36.63-1.92.42-.56 1-1.01 1.73-1.34a6.3 6.3 0 0 1 2.55-.48c.96 0 1.8.16 2.54.48.75.33 1.32.77 1.74 1.34.42.56.64 1.2.64 1.93v.01a2.9 2.9 0 0 1-.74 1.98c-.48.55-1.11.93-1.9 1.15v.06c.61.12 1.15.35 1.62.7a3.4 3.4 0 0 1 1.51 2.88v.01c0 .8-.23 1.52-.69 2.14a4.5 4.5 0 0 1-1.9 1.44 7.1 7.1 0 0 1-2.82.51Zm0-1.92c.55 0 1.04-.1 1.46-.3.42-.2.75-.47 1-.82.24-.36.36-.76.36-1.21V114c0-.46-.12-.86-.37-1.22a2.4 2.4 0 0 0-.98-.83c-.42-.2-.91-.3-1.47-.3-.55 0-1.04.1-1.46.3-.42.2-.76.48-1 .83-.23.36-.35.76-.35 1.22v.02c0 .45.12.86.35 1.2.24.36.58.64 1 .84.43.2.92.29 1.46.29Zm0-6.62c.49 0 .9-.09 1.26-.27a1.95 1.95 0 0 0 1.16-1.83v-.01c0-.41-.1-.77-.3-1.09-.2-.3-.5-.55-.86-.73a2.87 2.87 0 0 0-1.26-.26c-.47 0-.9.09-1.26.26-.36.18-.65.42-.86.73-.2.32-.3.68-.3 1.09v.02a1.95 1.95 0 0 0 1.16 1.83c.37.17.79.26 1.26.26Z" fill="#E0E3EB"/><path d="M393.41 138.13c-.55 0-1.03-.08-1.45-.25-.42-.16-.76-.4-1.01-.7-.25-.3-.4-.65-.44-1.06h1.21c.1.3.3.55.59.74.3.18.67.28 1.14.28.33 0 .63-.05.88-.14.25-.1.45-.24.6-.4a.9.9 0 0 0 .22-.6v-.02a.8.8 0 0 0-.3-.63c-.2-.18-.53-.32-.99-.43l-1.14-.28a4.19 4.19 0 0 1-1.14-.42c-.3-.18-.51-.4-.65-.65a1.88 1.88 0 0 1-.21-.92c0-.41.11-.78.35-1.1.24-.33.57-.58.99-.77.41-.19.88-.28 1.4-.28.51 0 .97.08 1.37.25.4.16.72.38.96.68.25.3.4.65.45 1.05h-1.17a1.2 1.2 0 0 0-.53-.71 1.94 1.94 0 0 0-1.09-.28 2 2 0 0 0-.78.15c-.23.09-.4.21-.54.38a.89.89 0 0 0-.2.57v.02c0 .16.05.3.13.43.09.13.23.24.4.34.19.1.42.18.71.25l1.14.28c.46.1.84.25 1.14.43.3.17.54.39.69.65.15.25.22.55.22.9v.02c0 .44-.13.82-.39 1.16-.26.33-.6.6-1.06.78-.44.19-.94.28-1.5.28ZM385.84 138v-7.37h1.19v1.1h.1c.15-.4.39-.7.73-.9a2.3 2.3 0 0 1 1.25-.33 4.54 4.54 0 0 1 .6.05v1.15a3.36 3.36 0 0 0-.74-.06c-.38 0-.71.07-1 .22-.3.15-.53.36-.7.63-.16.27-.24.58-.24.94V138h-1.19ZM381 138.13a3.08 3.08 0 0 1-2.97-1.78 4.67 4.67 0 0 1-.4-2v-.01c0-.77.13-1.43.4-2a3.12 3.12 0 0 1 2.9-1.83c.67 0 1.24.15 1.72.46.48.3.85.74 1.1 1.3.27.55.4 1.19.4 1.92v.47h-5.9v-.95h5.29l-.59.86v-.47a3.4 3.4 0 0 0-.26-1.42 1.83 1.83 0 0 0-1.77-1.12c-.4 0-.75.1-1.07.3a2 2 0 0 0-.73.85 3.2 3.2 0 0 0-.28 1.4v.46c0 .53.1.98.27 1.35a1.98 1.98 0 0 0 1.92 1.15c.33 0 .62-.04.87-.14.25-.09.45-.2.6-.34.17-.15.28-.29.34-.44l.03-.06h1.19l-.01.06a2.75 2.75 0 0 1-1.87 1.82c-.35.1-.74.16-1.18.16ZM372.27 138.13a2.83 2.83 0 0 1-2.7-1.8 4.91 4.91 0 0 1-.39-2v-.02c0-.77.13-1.44.38-2.01a2.84 2.84 0 0 1 2.7-1.8 2.73 2.73 0 0 1 1.76.6c.23.2.42.43.55.7h.1v-4.1h1.2V138h-1.2v-1.18h-.1a2.5 2.5 0 0 1-2.3 1.31Zm.27-1.05c.45 0 .84-.12 1.16-.34.32-.22.57-.54.74-.95.18-.41.26-.9.26-1.47v-.01c0-.57-.08-1.06-.26-1.47a2.12 2.12 0 0 0-.74-.95c-.32-.22-.7-.34-1.16-.34-.44 0-.83.11-1.15.34a2.1 2.1 0 0 0-.74.94c-.17.41-.25.9-.25 1.48v.01c0 .57.08 1.06.25 1.48.17.4.42.73.74.95a2 2 0 0 0 1.15.33ZM364 138.13c-.46 0-.88-.09-1.25-.27a2.16 2.16 0 0 1-.89-.76 2.08 2.08 0 0 1-.32-1.16v-.01c0-.44.1-.81.32-1.12.2-.32.51-.56.91-.74.4-.18.89-.28 1.46-.31l2.7-.17v.95l-2.56.17c-.56.03-.97.14-1.23.34-.25.2-.38.49-.38.85v.01c0 .38.14.67.42.88.28.2.64.3 1.07.3.4 0 .76-.07 1.08-.23.31-.17.56-.39.74-.67.18-.27.27-.59.27-.94v-2.3c0-.45-.14-.8-.42-1.03-.27-.25-.68-.37-1.23-.37-.45 0-.8.08-1.09.24-.28.16-.47.38-.57.67v.02h-1.2l.01-.04c.07-.4.23-.73.48-1.02.26-.29.6-.51 1-.67.42-.17.88-.25 1.4-.25.6 0 1.12.1 1.53.3.42.2.74.47.95.84.22.37.33.8.33 1.32V138h-1.19v-1.09h-.1a2.5 2.5 0 0 1-1.32 1.08c-.28.1-.58.14-.92.14ZM356.8 138v-7.37H358v1.1h.11c.14-.4.38-.7.72-.9a2.3 2.3 0 0 1 1.25-.33 4.54 4.54 0 0 1 .6.05v1.15a3.36 3.36 0 0 0-.74-.06c-.38 0-.71.07-1 .22-.3.15-.53.36-.7.63-.16.27-.24.58-.24.94V138h-1.19ZM351.82 138v-8.76h-3.18v-1.1h7.59v1.1h-3.18V138h-1.23Z" fill="#868993"/><path d="M446.07 118v-11.63h-.13l-3.55 2.48v-2.35l3.68-2.6h2.5V118h-2.5ZM433.68 118.32a4.87 4.87 0 0 1-3.92-1.7 6.26 6.26 0 0 1-1.22-2.22c-.29-.92-.44-2-.44-3.27v-.02c0-1.57.23-2.92.68-4.05a5.59 5.59 0 0 1 1.93-2.58c.85-.6 1.85-.9 3.02-.9.86 0 1.63.16 2.31.48a4.6 4.6 0 0 1 1.71 1.3c.46.55.76 1.18.9 1.9l.02.1h-2.48l-.03-.08a2.51 2.51 0 0 0-1.34-1.43c-.32-.13-.68-.2-1.1-.2-.72 0-1.32.22-1.78.66a4.06 4.06 0 0 0-1.04 1.76 9.44 9.44 0 0 0-.4 2.72v.28l.43 2.35a2.87 2.87 0 0 0 1.35 2.48c.4.25.87.37 1.38.37a2.7 2.7 0 0 0 2.36-1.38c.25-.42.37-.9.37-1.41v-.02c0-.54-.11-1.02-.35-1.44a2.67 2.67 0 0 0-2.36-1.35c-.51 0-.98.12-1.4.36a2.62 2.62 0 0 0-1.35 2.38v.01h-.59v-2.55h.31a3.69 3.69 0 0 1 1.98-1.85 4.5 4.5 0 0 1 1.68-.29c.9 0 1.68.2 2.37.6.68.4 1.21.95 1.6 1.66.38.7.58 1.49.58 2.38v.02a4.78 4.78 0 0 1-2.5 4.3c-.78.42-1.67.63-2.68.63Z" fill="#E0E3EB"/><path d="M458.09 138.13c-.55 0-1.03-.08-1.45-.25-.42-.16-.76-.4-1.01-.7-.25-.3-.4-.65-.45-1.06h1.22c.1.3.3.55.59.74.29.18.67.28 1.14.28.33 0 .62-.05.88-.14.25-.1.45-.24.6-.4a.9.9 0 0 0 .21-.6v-.02a.8.8 0 0 0-.3-.63 2.3 2.3 0 0 0-.98-.43l-1.14-.28a4.19 4.19 0 0 1-1.14-.42c-.3-.18-.51-.4-.65-.65a1.89 1.89 0 0 1-.21-.92c0-.41.11-.78.35-1.1.24-.33.57-.58.99-.77.41-.19.88-.28 1.4-.28.51 0 .97.08 1.36.25.4.16.73.38.97.68.24.3.4.65.45 1.05h-1.17a1.2 1.2 0 0 0-.53-.71 1.95 1.95 0 0 0-1.09-.28c-.3 0-.55.05-.78.15-.23.09-.4.21-.54.38a.88.88 0 0 0-.2.57v.02c0 .16.05.3.13.43.09.13.22.24.4.34.19.1.42.18.71.25l1.13.28c.47.1.85.25 1.15.43.3.17.54.39.69.65.15.25.22.55.22.9v.02c0 .44-.13.82-.39 1.16-.26.33-.61.6-1.06.78-.44.19-.94.28-1.5.28ZM450.01 138.13c-.46 0-.88-.09-1.25-.27a2.16 2.16 0 0 1-.89-.76 2.08 2.08 0 0 1-.32-1.16v-.01c0-.44.1-.81.32-1.12.2-.32.51-.56.91-.74.4-.18.89-.28 1.46-.31l2.7-.17v.95l-2.56.17c-.56.03-.97.14-1.23.34-.25.2-.38.49-.38.85v.01c0 .38.14.67.42.88.29.2.64.3 1.07.3.4 0 .76-.07 1.08-.23.31-.17.56-.39.74-.67.18-.27.27-.59.27-.94v-2.3c0-.45-.14-.8-.42-1.03-.27-.25-.68-.37-1.23-.37-.45 0-.8.08-1.1.24-.27.16-.46.38-.56.67v.02h-1.2l.01-.04c.07-.4.23-.73.48-1.02.26-.29.6-.51 1-.67.42-.17.88-.25 1.4-.25.6 0 1.12.1 1.53.3.42.2.74.47.95.84.22.37.33.8.33 1.32V138h-1.19v-1.09h-.1a2.5 2.5 0 0 1-1.32 1.08c-.28.1-.58.14-.92.14ZM443.15 138.13a3.07 3.07 0 0 1-2.97-1.78 4.67 4.67 0 0 1-.4-2v-.01c0-.77.13-1.43.4-2 .27-.58.66-1.03 1.15-1.35.5-.33 1.08-.49 1.75-.49a2.98 2.98 0 0 1 2.83 1.76c.26.56.39 1.2.39 1.93v.47h-5.9v-.95h5.29l-.59.86v-.47c0-.57-.09-1.05-.26-1.42a1.83 1.83 0 0 0-1.77-1.12c-.4 0-.75.1-1.06.3-.31.19-.56.47-.74.85-.19.38-.28.84-.28 1.4v.46c0 .53.1.98.27 1.35a1.97 1.97 0 0 0 1.92 1.15c.33 0 .62-.04.87-.14.25-.09.45-.2.6-.34.17-.15.28-.29.34-.44l.03-.06h1.19l-.01.06c-.07.25-.18.5-.35.73a2.75 2.75 0 0 1-1.53 1.09c-.34.1-.73.16-1.17.16ZM434.42 138.13a2.83 2.83 0 0 1-2.7-1.8 4.91 4.91 0 0 1-.39-2v-.02c0-.77.13-1.44.38-2.01a2.84 2.84 0 0 1 2.7-1.8 2.73 2.73 0 0 1 1.76.6c.23.2.41.43.55.7h.1v-4.1h1.2V138h-1.2v-1.18h-.1a2.52 2.52 0 0 1-1.35 1.15c-.3.1-.6.16-.95.16Zm.27-1.05c.45 0 .83-.12 1.16-.34.32-.22.57-.54.74-.95.18-.41.26-.9.26-1.47v-.01c0-.57-.08-1.06-.26-1.47a2.12 2.12 0 0 0-.74-.95c-.33-.22-.71-.34-1.16-.34-.44 0-.83.11-1.15.34-.32.22-.57.53-.74.94-.17.41-.25.9-.25 1.48v.01c0 .57.08 1.06.25 1.48.17.4.42.73.74.95.32.22.7.33 1.15.33ZM428.26 138v-9.86h1.23V138h-1.23Z" fill="#868993"/><path d="m499.1 118 6.37-11.9v-.13h-7.56v-2.06h10.1v2.1L501.72 118h-2.62ZM490.51 118.27c-1 0-1.89-.17-2.64-.51a4.45 4.45 0 0 1-1.8-1.44 4.05 4.05 0 0 1-.75-2.12l-.01-.12h2.4l.01.1c.05.4.19.75.42 1.06.24.3.56.54.97.72.4.17.87.25 1.4.25.53 0 .99-.1 1.38-.28a2.06 2.06 0 0 0 1.24-1.92v-.02c0-.75-.25-1.32-.75-1.71a3.2 3.2 0 0 0-2.05-.6h-1.62v-1.87h1.57c.5 0 .95-.1 1.32-.28a1.96 1.96 0 0 0 1.2-1.84v-.01c-.01-.43-.1-.8-.28-1.1-.18-.31-.44-.55-.79-.7a2.88 2.88 0 0 0-1.24-.25c-.48 0-.9.08-1.28.25-.36.16-.65.4-.87.7-.22.31-.36.67-.4 1.1v.09h-2.34l.01-.11a4.3 4.3 0 0 1 .73-2.12c.43-.6.99-1.08 1.7-1.4.7-.34 1.52-.5 2.45-.5.95 0 1.78.15 2.49.46.7.32 1.25.75 1.63 1.31.4.56.6 1.2.6 1.94v.02a3.08 3.08 0 0 1-1.42 2.64c-.44.3-.93.5-1.48.62v.05c1.02.1 1.83.44 2.45 1.03.62.59.93 1.37.93 2.35v.01c0 .83-.22 1.55-.65 2.2a4.39 4.39 0 0 1-1.82 1.48c-.78.35-1.68.52-2.7.52Z" fill="#E0E3EB"/><path d="M525.76 138.13c-.55 0-1.03-.08-1.45-.25-.42-.16-.76-.4-1.01-.7-.25-.3-.4-.65-.45-1.06h1.22c.1.3.3.55.59.74.3.18.67.28 1.14.28.33 0 .63-.05.88-.14.25-.1.45-.24.6-.4a.9.9 0 0 0 .22-.6v-.02a.8.8 0 0 0-.3-.63 2.3 2.3 0 0 0-.99-.43l-1.14-.28a4.19 4.19 0 0 1-1.14-.42c-.3-.18-.51-.4-.65-.65a1.89 1.89 0 0 1-.21-.92c0-.41.11-.78.35-1.1.24-.33.57-.58.99-.77.41-.19.88-.28 1.4-.28.51 0 .97.08 1.37.25.4.16.72.38.96.68.25.3.4.65.45 1.05h-1.17a1.2 1.2 0 0 0-.53-.71 1.95 1.95 0 0 0-1.09-.28 2 2 0 0 0-.78.15c-.23.09-.4.21-.54.38a.89.89 0 0 0-.2.57v.02c0 .16.05.3.13.43.09.13.22.24.4.34.19.1.42.18.71.25l1.13.28c.47.1.85.25 1.15.43.3.17.54.39.69.65.15.25.22.55.22.9v.02c0 .44-.13.82-.39 1.16-.26.33-.61.6-1.06.78-.44.19-.94.28-1.5.28ZM521.05 138.06c-.75 0-1.3-.16-1.64-.46-.34-.3-.51-.81-.51-1.51v-4.47h-1.16v-.99h1.16v-1.9h1.23v1.9h1.61v.99h-1.6v4.16c0 .44.07.75.24.94.16.19.43.28.82.28a4.04 4.04 0 0 0 .54-.03V138a6.7 6.7 0 0 1-.69.06ZM510.04 140.46v-9.83h1.2v1.18h.1a2.42 2.42 0 0 1 1.35-1.15c.3-.1.6-.16.95-.16.62 0 1.17.16 1.63.48.46.31.82.76 1.08 1.33.25.56.38 1.23.38 2v.01c0 .77-.13 1.44-.38 2.01a3.08 3.08 0 0 1-1.08 1.33c-.46.31-1 .47-1.63.47a2.7 2.7 0 0 1-1.75-.6 2.2 2.2 0 0 1-.55-.7h-.1v3.63h-1.2Zm3.33-3.38a2 2 0 0 0 1.15-.33c.32-.22.56-.54.73-.95.18-.42.26-.9.26-1.48v-.01c0-.58-.08-1.07-.26-1.48a2.05 2.05 0 0 0-.73-.94c-.32-.22-.7-.34-1.15-.34-.45 0-.84.11-1.16.34-.32.22-.57.54-.74.95-.18.4-.26.9-.26 1.47v.01c0 .57.08 1.06.26 1.47.17.41.42.73.74.95.32.22.71.34 1.16.34ZM506.77 138v-7.37h1.19V138h-1.2Zm.6-8.8a.8.8 0 0 1-.58-.23.8.8 0 0 1-.24-.58.8.8 0 0 1 .24-.58.8.8 0 0 1 .58-.24c.23 0 .42.08.58.24.16.16.24.35.24.58a.8.8 0 0 1-.24.58.8.8 0 0 1-.58.24ZM501.56 138v-7.37h1.2v1.1h.1c.14-.4.38-.7.72-.9.34-.22.75-.33 1.25-.33a4.54 4.54 0 0 1 .6.05v1.15a3.36 3.36 0 0 0-.74-.06c-.38 0-.71.07-1 .22-.3.15-.52.36-.7.63-.16.27-.24.58-.24.94V138h-1.19ZM496.9 138.13c-.7 0-1.29-.16-1.8-.47-.5-.32-.9-.76-1.17-1.34a4.61 4.61 0 0 1-.42-2.03c0-.77.14-1.44.41-2a3.1 3.1 0 0 1 2.97-1.79c.6 0 1.11.1 1.54.31a2.74 2.74 0 0 1 1.54 2.04v.04h-1.17l-.01-.02c-.1-.37-.3-.68-.62-.93a2 2 0 0 0-1.28-.39 1.97 1.97 0 0 0-1.9 1.29c-.18.4-.26.88-.26 1.44v.01c0 .57.09 1.06.26 1.48.18.42.43.74.76.97.32.22.7.34 1.14.34.5 0 .9-.11 1.22-.32.31-.22.54-.53.67-.94l.02-.04h1.17l-.01.07c-.1.44-.28.83-.53 1.18-.26.34-.6.61-1.02.8-.42.2-.92.3-1.51.3ZM488.5 138.23c-.73 0-1.36-.11-1.9-.35a3.2 3.2 0 0 1-1.27-.97 2.76 2.76 0 0 1-.54-1.42v-.07h1.23v.07c.04.33.16.61.38.86.22.23.52.42.89.55a3.78 3.78 0 0 0 2.46-.01 2 2 0 0 0 .83-.6c.2-.26.3-.55.3-.89 0-.41-.15-.76-.45-1.04-.3-.28-.8-.5-1.47-.65l-1.1-.24a5.46 5.46 0 0 1-1.61-.59 2.56 2.56 0 0 1-.92-.92c-.2-.37-.3-.79-.3-1.26 0-.55.16-1.04.45-1.46.3-.42.7-.74 1.22-.98a4.34 4.34 0 0 1 1.8-.36c.66 0 1.24.12 1.75.36.5.23.9.55 1.2.94.3.4.47.84.5 1.34v.1h-1.22l-.02-.1c-.04-.29-.16-.55-.35-.77-.2-.23-.45-.4-.77-.54-.32-.13-.7-.2-1.12-.2-.4 0-.78.07-1.1.2-.33.13-.6.31-.8.55-.18.24-.28.53-.28.88 0 .27.06.5.2.7.12.21.32.4.6.54.27.15.63.28 1.08.38l1.1.24a5.9 5.9 0 0 1 1.66.6c.41.23.72.53.91.88.2.35.3.76.3 1.23 0 .62-.16 1.15-.46 1.6-.3.45-.72.8-1.27 1.04s-1.19.36-1.92.36Z" fill="#868993"/><path d="M24 281a16 16 0 0 1 16-16h240a16 16 0 0 1 16 16v95a16 16 0 0 1-16 16H40a16 16 0 0 1-16-16v-95ZM316 281a16 16 0 0 1 16-16h240a16 16 0 0 1 16 16v95a16 16 0 0 1-16 16H332a16 16 0 0 1-16-16v-95Z" fill="#3F3F3F" fill-opacity=".4"/><path fill="url(#hfg01zqyl)" d="M0 224h612v168H0z"/><rect x="44" y="286" width="39" height="39" rx="8" fill="#22AB94"/><rect x="90" y="296" width="140" height="18" rx="9" fill="#3F3F3F" fill-opacity=".4"/><path opacity=".2" d="m52 334 2.33 4.8 5.28.73-3.84 3.7.93 5.24-4.7-2.51-4.7 2.51.93-5.25-3.84-3.7 5.28-.72L52 334ZM68 334l2.33 4.8 5.28.73-3.84 3.7.93 5.24-4.7-2.51-4.7 2.51.93-5.25-3.84-3.7 5.28-.72L68 334ZM84 334l2.33 4.8 5.28.73-3.84 3.7.93 5.24-4.7-2.51-4.7 2.51.93-5.25-3.84-3.7 5.28-.72L84 334ZM100 334l2.33 4.8 5.28.73-3.84 3.7.93 5.24-4.7-2.51-4.7 2.51.93-5.25-3.84-3.7 5.28-.72L100 334ZM116 334l2.33 4.8 5.28.73-3.84 3.7.93 5.24-4.7-2.51-4.7 2.51.93-5.25-3.84-3.7 5.28-.72L116 334Z" fill="#E0E3EB"/><path d="M54.8 315v-16.91h3.49l5.16 12.94h.1l5.16-12.94h3.49V315h-2.72v-12.04h-1.41l3.07-4.4-6.6 16.44h-2.07l-6.61-16.44 3.06 4.4h-1.4V315H54.8Z" fill="#fff"/><rect x="336" y="286" width="39" height="39" rx="8" fill="#651FFF"/><path opacity=".2" d="m344 334 2.33 4.8 5.28.73-3.84 3.7.93 5.24-4.7-2.51-4.7 2.51.93-5.25-3.84-3.7 5.28-.72L344 334ZM360 334l2.33 4.8 5.28.73-3.84 3.7.93 5.24-4.7-2.51-4.7 2.51.93-5.25-3.84-3.7 5.28-.72L360 334ZM376 334l2.33 4.8 5.28.73-3.84 3.7.93 5.24-4.7-2.51-4.7 2.51.93-5.25-3.84-3.7 5.28-.72L376 334ZM392 334l2.33 4.8 5.28.73-3.84 3.7.93 5.24-4.7-2.51-4.7 2.51.93-5.25-3.84-3.7 5.28-.72L392 334ZM408 334l2.33 4.8 5.28.73-3.84 3.7.93 5.24-4.7-2.51-4.7 2.51.93-5.25-3.84-3.7 5.28-.72L408 334Z" fill="#E0E3EB"/><path d="M354.36 315.32a6.5 6.5 0 0 1-2.22-.36 4.7 4.7 0 0 1-1.65-1c-.45-.43-.81-.94-1.07-1.54a5.8 5.8 0 0 1-.42-1.99l-.01-.12h2.95v.08c.03.43.14.82.33 1.17.19.34.45.61.8.81.34.2.76.3 1.25.3.82 0 1.44-.24 1.86-.72.43-.48.65-1.18.65-2.1v-11.76h3.01v11.79c0 1.13-.22 2.1-.66 2.92a4.44 4.44 0 0 1-1.87 1.87c-.81.43-1.8.65-2.95.65Z" fill="#fff"/><rect x="382" y="296" width="140" height="18" rx="9" fill="#3F3F3F" fill-opacity=".4"/><path d="M24 197a16 16 0 0 1 16-16h532a16 16 0 0 1 16 16v32a16 16 0 0 1-16 16H40a16 16 0 0 1-16-16v-32Z" fill="#3F3F3F" fill-opacity=".4"/><path d="m129.08 220-2.66-9.46h1.53l1.86 7.57h.14l2.12-7.57h1.45l2.11 7.57h.14l1.86-7.57h1.52L136.5 220h-1.53l-2.12-7.32h-.13L130.6 220h-1.53ZM121.31 220.17a3.96 3.96 0 0 1-3.81-2.28 5.94 5.94 0 0 1-.52-2.58v-.01a6 6 0 0 1 .52-2.58 4.1 4.1 0 0 1 1.47-1.72 4.01 4.01 0 0 1 2.24-.62 3.77 3.77 0 0 1 3.64 2.26c.34.7.5 1.53.5 2.47v.6h-7.58v-1.22h6.8l-.76 1.11v-.6c0-.75-.1-1.36-.33-1.84a2.35 2.35 0 0 0-2.28-1.42c-.5 0-.96.12-1.36.37-.4.24-.71.61-.95 1.1a4.1 4.1 0 0 0-.35 1.79v.6c0 .68.11 1.25.34 1.73.23.47.56.84.97 1.1.42.25.92.38 1.5.38.42 0 .8-.06 1.11-.18.32-.12.58-.27.78-.45.2-.18.35-.37.43-.56l.04-.08h1.53l-.02.07a2.9 2.9 0 0 1-.44.95c-.2.3-.47.57-.8.82-.34.24-.72.43-1.17.58-.44.14-.94.2-1.5.2ZM113.52 220v-9.46h1.53V220h-1.53Zm.78-11.28a1 1 0 0 1-.74-.3c-.2-.21-.3-.46-.3-.74 0-.3.1-.54.3-.75a1 1 0 0 1 .74-.3c.3 0 .54.1.75.3.2.2.3.45.3.75 0 .28-.1.53-.3.74-.21.2-.46.3-.75.3ZM106.9 220l-3.5-9.46H105l2.6 7.79h.12l2.6-7.79h1.61l-3.5 9.46h-1.55ZM97.78 220v-9.46h1.53v1.4h.13c.18-.49.49-.88.91-1.15.44-.28.97-.41 1.6-.41a4.13 4.13 0 0 1 .76.06v1.48a4.21 4.21 0 0 0-.93-.08c-.48 0-.91.1-1.29.28-.36.2-.66.46-.87.8-.2.35-.31.76-.31 1.22V220h-1.53ZM91.84 220.17a3.96 3.96 0 0 1-3.81-2.28 5.94 5.94 0 0 1-.53-2.58v-.01c0-.98.18-1.84.52-2.58A4.1 4.1 0 0 1 89.5 211a4.01 4.01 0 0 1 2.24-.62 3.77 3.77 0 0 1 3.64 2.26c.33.7.5 1.53.5 2.47v.6H88.3v-1.22h6.8l-.76 1.11v-.6c0-.75-.1-1.36-.33-1.84a2.36 2.36 0 0 0-2.28-1.42c-.5 0-.96.12-1.36.37-.4.24-.71.61-.95 1.1a4.1 4.1 0 0 0-.35 1.79v.6c0 .68.11 1.25.34 1.73.23.47.55.84.97 1.1.42.25.92.38 1.5.38.42 0 .8-.06 1.1-.18.33-.12.59-.27.8-.45.2-.18.34-.37.42-.56l.04-.08h1.53l-.02.07a2.9 2.9 0 0 1-.44.95c-.2.3-.48.57-.8.82-.34.24-.72.43-1.17.58-.44.14-.95.2-1.5.2ZM81.73 220l-3.5-9.46h1.62l2.6 7.79h.13l2.59-7.79h1.62L83.28 220h-1.55ZM71.18 220.3a5.8 5.8 0 0 1-3.12-.81 5.34 5.34 0 0 1-2-2.31c-.47-1-.7-2.17-.7-3.52v-.01c0-1.36.23-2.54.7-3.53a5.35 5.35 0 0 1 2.02-2.3c.87-.53 1.9-.8 3.1-.8a5.26 5.26 0 0 1 5.12 3.11c.46.99.7 2.16.7 3.52v.01c0 1.35-.24 2.52-.7 3.52a5.27 5.27 0 0 1-5.12 3.12Zm0-1.46c.87 0 1.61-.21 2.24-.64a4.12 4.12 0 0 0 1.45-1.8c.34-.78.51-1.7.51-2.74v-.01c0-1.06-.17-1.97-.51-2.75a4.07 4.07 0 0 0-1.45-1.79 3.92 3.92 0 0 0-2.24-.63c-.86 0-1.6.2-2.23.63a4.13 4.13 0 0 0-1.46 1.8 6.78 6.78 0 0 0-.51 2.74v.01c0 1.05.16 1.96.5 2.74.33.77.81 1.37 1.44 1.8a3.9 3.9 0 0 0 2.26.64Z" fill="#B2B5BE"/><path d="M244.78 220.2c-.8 0-1.5-.12-2.1-.36a3.4 3.4 0 0 1-1.39-.97c-.34-.41-.54-.89-.6-1.43v-.02h2.16l.01.01c.12.34.33.62.65.83.33.21.77.32 1.3.32.38 0 .7-.05.96-.15.28-.1.5-.25.65-.43.16-.19.24-.4.24-.64a.87.87 0 0 0-.34-.7c-.23-.2-.6-.36-1.13-.48l-1.56-.35c-.6-.13-1.1-.32-1.5-.56-.4-.24-.7-.53-.9-.89-.2-.35-.3-.76-.3-1.23 0-.59.17-1.1.5-1.53.32-.44.78-.79 1.35-1.03a5.07 5.07 0 0 1 2-.37c.78 0 1.45.12 2.01.36.56.23 1 .55 1.32.96.32.42.5.88.55 1.4v.03h-2.07v-.03a1.32 1.32 0 0 0-.58-.78 2.13 2.13 0 0 0-1.24-.32c-.32 0-.6.04-.86.14-.25.1-.45.24-.6.42a.97.97 0 0 0-.2.62v.01c0 .19.04.35.13.5.1.13.26.26.47.36.2.1.49.2.83.28l1.55.35a5.5 5.5 0 0 1 1.56.56c.4.23.71.51.91.85.2.33.3.74.3 1.2v.01c0 .61-.18 1.15-.53 1.61-.35.46-.83.81-1.45 1.06-.6.26-1.3.38-2.1.38ZM228.95 220l-2.6-9.59h2.2l1.59 7.22h.15l1.85-7.22h2.08l1.86 7.22h.14l1.6-7.22h2.16l-2.6 9.59h-2.28l-1.88-6.95h-.15l-1.85 6.95h-2.27ZM221.2 220.2c-.95 0-1.76-.2-2.45-.61-.68-.4-1.2-.98-1.57-1.72a5.9 5.9 0 0 1-.56-2.64v-.01c0-1 .19-1.88.55-2.63a4.17 4.17 0 0 1 3.94-2.37c.9 0 1.69.2 2.34.6.67.4 1.18.96 1.53 1.68.36.72.54 1.57.54 2.53v.72h-7.8v-1.46h6.73l-1.04 1.37v-.87c0-.64-.1-1.17-.3-1.6a2.1 2.1 0 0 0-.8-.94 2.19 2.19 0 0 0-1.18-.32c-.45 0-.85.11-1.2.34-.35.21-.62.53-.83.96-.2.42-.3.94-.3 1.56v.88c0 .58.1 1.09.3 1.5.2.43.48.75.85.98.37.22.8.33 1.3.33a2.37 2.37 0 0 0 1.7-.58c.18-.16.3-.32.37-.47l.03-.07h2.07l-.02.1a3.57 3.57 0 0 1-1.24 1.84c-.34.26-.75.48-1.24.65-.5.16-1.07.24-1.72.24ZM212.7 220v-9.59h2.19V220h-2.18Zm1.1-11.19c-.35 0-.66-.12-.92-.38a1.24 1.24 0 0 1-.38-.9c0-.36.13-.66.38-.92.26-.25.57-.37.93-.37.35 0 .66.12.9.37.26.26.39.56.39.92 0 .35-.13.65-.38.9-.25.26-.56.38-.91.38ZM205.53 220l-3.41-9.59h2.33l2.22 7.46h.15l2.2-7.46h2.3l-3.4 9.59h-2.4ZM197.15 220.2c-.95 0-1.76-.2-2.45-.61-.68-.4-1.2-.98-1.57-1.72a5.9 5.9 0 0 1-.56-2.64v-.01c0-1 .19-1.88.55-2.63a4.16 4.16 0 0 1 3.94-2.37c.9 0 1.69.2 2.34.6.66.4 1.17.96 1.53 1.68.36.72.54 1.57.54 2.53v.72h-7.8v-1.46h6.73l-1.04 1.37v-.87c0-.64-.1-1.17-.3-1.6a2.1 2.1 0 0 0-.8-.94 2.19 2.19 0 0 0-1.18-.32c-.45 0-.85.11-1.2.34-.35.21-.62.53-.83.96-.2.42-.3.94-.3 1.56v.88c0 .58.1 1.09.3 1.5a2.2 2.2 0 0 0 2.16 1.3 2.36 2.36 0 0 0 1.7-.58c.17-.16.3-.31.36-.47l.03-.06h2.07l-.02.1a3.6 3.6 0 0 1-1.24 1.84c-.34.26-.75.48-1.24.65-.5.16-1.07.24-1.72.24ZM181.83 220v-12.68h5.11c.91 0 1.69.16 2.34.48.65.32 1.15.78 1.5 1.36.34.59.52 1.29.52 2.1v.01c0 .84-.21 1.58-.63 2.23-.42.65-1.01 1.1-1.76 1.38l2.77 5.12h-2.59l-2.48-4.77h-2.52V220h-2.26Zm2.25-6.52h2.63c.72 0 1.27-.19 1.67-.56.4-.38.6-.91.6-1.6v-.01c0-.67-.2-1.2-.62-1.58a2.37 2.37 0 0 0-1.7-.58h-2.57v4.33Z" fill="#E0E3EB"/><path d="M329.03 220.17c-.7 0-1.32-.1-1.86-.32a3.27 3.27 0 0 1-1.3-.9c-.33-.4-.52-.85-.57-1.38h1.56c.13.4.38.72.75.96s.86.36 1.47.36c.43 0 .8-.06 1.12-.18.33-.13.58-.3.76-.52.2-.22.29-.47.29-.76v-.01c0-.33-.13-.6-.4-.82a2.9 2.9 0 0 0-1.24-.56l-1.47-.35a5.32 5.32 0 0 1-1.46-.54c-.38-.23-.66-.5-.84-.84a2.42 2.42 0 0 1-.27-1.17v-.01c0-.53.15-1 .45-1.42.31-.41.73-.74 1.26-.97a4.34 4.34 0 0 1 1.8-.36c.67 0 1.25.1 1.76.31.52.2.93.5 1.24.89.32.38.5.83.57 1.34h-1.5c-.1-.38-.32-.68-.68-.92a2.51 2.51 0 0 0-1.4-.35c-.37 0-.7.06-1 .19-.28.11-.51.28-.68.49-.17.2-.26.44-.26.73v.01c0 .22.06.4.17.57.11.16.28.3.5.43.24.12.55.23.91.32l1.46.35c.6.14 1.1.33 1.48.56.4.23.68.5.87.83.2.33.29.72.29 1.17v.02c0 .56-.17 1.05-.5 1.49-.33.42-.78.76-1.36 1a4.9 4.9 0 0 1-1.92.36ZM318.93 220.17c-.6 0-1.13-.12-1.61-.35a2.73 2.73 0 0 1-1.13-.97 2.68 2.68 0 0 1-.41-1.5v-.01c0-.56.13-1.04.4-1.44.27-.4.66-.72 1.17-.94a5.36 5.36 0 0 1 1.87-.4l3.48-.22v1.22l-3.3.21c-.7.04-1.23.2-1.56.45-.33.26-.5.62-.5 1.08v.02c0 .48.18.86.54 1.12.36.27.82.4 1.37.4.52 0 .98-.1 1.39-.3.4-.22.72-.5.95-.86.23-.36.35-.76.35-1.21v-2.94c0-.59-.18-1.03-.54-1.34-.35-.3-.88-.46-1.59-.46-.57 0-1.03.1-1.4.3-.36.2-.6.5-.72.87l-.01.03h-1.52v-.06c.08-.5.28-.93.61-1.3a3.3 3.3 0 0 1 1.3-.88 4.82 4.82 0 0 1 1.8-.31c.77 0 1.42.12 1.95.37.54.26.95.62 1.23 1.09.28.46.42 1.03.42 1.68V220h-1.53v-1.4h-.14a3.2 3.2 0 0 1-1.69 1.4c-.36.1-.75.17-1.18.17ZM310.4 220.17a3.96 3.96 0 0 1-3.81-2.28 5.94 5.94 0 0 1-.53-2.58v-.01a6 6 0 0 1 .52-2.58 4.1 4.1 0 0 1 1.47-1.72 4.01 4.01 0 0 1 2.25-.62 3.77 3.77 0 0 1 3.64 2.26c.33.7.5 1.53.5 2.47v.6h-7.59v-1.22h6.8l-.75 1.11v-.6c0-.75-.11-1.36-.34-1.84a2.35 2.35 0 0 0-2.27-1.42c-.51 0-.97.12-1.37.37-.4.24-.71.61-.94 1.1a4.1 4.1 0 0 0-.36 1.79v.6c0 .68.12 1.25.35 1.73.22.47.55.84.96 1.1.42.25.92.38 1.5.38.42 0 .8-.06 1.11-.18.32-.12.58-.27.78-.45.21-.18.35-.37.44-.56l.03-.08h1.53l-.02.07a2.9 2.9 0 0 1-.44.95c-.2.3-.47.57-.8.82-.33.24-.72.43-1.17.58-.44.14-.94.2-1.5.2ZM299.47 220.17a3.63 3.63 0 0 1-3.47-2.31 6.25 6.25 0 0 1-.5-2.58v-.02c0-.99.17-1.85.5-2.58a3.65 3.65 0 0 1 3.47-2.3 3.49 3.49 0 0 1 2.25.78c.3.24.53.54.7.88h.14v-5.25h1.53V220h-1.53v-1.51h-.14c-.2.35-.44.65-.73.9-.3.25-.63.44-1 .58-.38.13-.78.2-1.22.2Zm.35-1.36a2.5 2.5 0 0 0 2.44-1.65c.22-.53.34-1.16.34-1.88v-.02c0-.73-.12-1.36-.35-1.88a2.51 2.51 0 0 0-2.44-1.65 2.5 2.5 0 0 0-2.42 1.64 4.91 4.91 0 0 0-.32 1.9v.01c0 .73.1 1.36.32 1.89.23.53.54.93.95 1.22.41.28.9.42 1.48.42ZM291.84 220v-12.68h1.58V220h-1.58ZM426.08 220.17c-.7 0-1.32-.1-1.86-.32a3.27 3.27 0 0 1-1.3-.9c-.32-.4-.51-.85-.57-1.38h1.56c.13.4.38.72.75.96.38.24.87.36 1.48.36.42 0 .8-.06 1.11-.18.33-.13.59-.3.77-.52.19-.22.28-.47.28-.76v-.01c0-.33-.13-.6-.39-.82a2.9 2.9 0 0 0-1.25-.56l-1.46-.35a5.33 5.33 0 0 1-1.46-.54c-.38-.23-.67-.5-.85-.84a2.42 2.42 0 0 1-.27-1.17v-.01c0-.53.15-1 .46-1.42.3-.41.73-.74 1.25-.97a4.34 4.34 0 0 1 1.8-.36c.67 0 1.25.1 1.76.31.52.2.93.5 1.24.89.32.38.51.83.57 1.34h-1.49c-.1-.38-.33-.68-.69-.92a2.5 2.5 0 0 0-1.4-.35c-.37 0-.7.06-1 .19-.28.11-.51.28-.68.49-.17.2-.25.44-.25.73v.01c0 .22.05.4.16.57.11.16.28.3.51.43.24.12.54.23.9.32l1.47.35c.6.14 1.09.33 1.47.56.4.23.69.5.87.83.2.33.3.72.3 1.17v.02c0 .56-.17 1.05-.5 1.49-.34.42-.79.76-1.36 1a4.9 4.9 0 0 1-1.93.36ZM420.32 220.08c-.97 0-1.67-.2-2.1-.59-.44-.4-.66-1.05-.66-1.94v-5.74h-1.49v-1.27h1.5v-2.45h1.57v2.45h2.06v1.27h-2.06v5.37c0 .55.1.94.32 1.19.21.23.56.36 1.05.36a5.5 5.5 0 0 0 .69-.04v1.3a9.26 9.26 0 0 1-.88.09ZM406.49 223.16v-12.62h1.53v1.52h.13a3.13 3.13 0 0 1 1.73-1.48c.38-.14.78-.2 1.22-.2.8 0 1.5.2 2.1.6.6.4 1.06.98 1.38 1.7.33.74.5 1.6.5 2.58v.02c0 1-.17 1.85-.5 2.58-.32.73-.79 1.3-1.39 1.7-.59.4-1.29.6-2.09.6a3.49 3.49 0 0 1-2.25-.78c-.29-.24-.53-.53-.7-.87h-.13v4.65h-1.53Zm4.26-4.35c.58 0 1.08-.14 1.49-.42.4-.29.72-.7.94-1.22.22-.53.33-1.16.33-1.89v-.02c0-.74-.11-1.37-.33-1.9a2.65 2.65 0 0 0-.94-1.2c-.41-.29-.9-.43-1.49-.43-.57 0-1.06.14-1.48.43-.41.29-.73.7-.95 1.22a4.79 4.79 0 0 0-.34 1.88v.02c0 .72.11 1.35.34 1.88.22.53.54.94.95 1.22.42.29.91.43 1.48.43ZM402.56 220v-9.46h1.53V220h-1.53Zm.77-11.28a1 1 0 0 1-.73-.3c-.2-.21-.31-.46-.31-.74 0-.3.1-.54.3-.75a1 1 0 0 1 .75-.3c.29 0 .54.1.74.3.2.2.31.45.31.75 0 .28-.1.53-.3.74-.21.2-.46.3-.75.3ZM396.17 220v-9.46h1.53v1.4h.13c.19-.49.49-.88.92-1.15.43-.28.96-.41 1.6-.41a4.17 4.17 0 0 1 .76.06v1.48a4.23 4.23 0 0 0-.94-.08c-.48 0-.9.1-1.28.28-.37.2-.66.46-.87.8-.21.35-.32.76-.32 1.22V220h-1.53ZM390.45 220.17c-.88 0-1.64-.2-2.3-.6a4.05 4.05 0 0 1-1.5-1.72 5.93 5.93 0 0 1-.54-2.6v-.02c0-.99.18-1.84.53-2.57a4 4 0 0 1 3.8-2.28c.77 0 1.43.13 2 .4a3.53 3.53 0 0 1 1.97 2.61v.05h-1.51l-.01-.02a2.17 2.17 0 0 0-.8-1.2c-.42-.33-.97-.5-1.65-.5-.56 0-1.05.15-1.46.44-.42.29-.74.7-.97 1.21a4.7 4.7 0 0 0-.33 1.86v.02c0 .72.11 1.35.34 1.88.23.54.55.95.97 1.24.41.3.9.44 1.45.44.64 0 1.16-.13 1.57-.41.4-.28.7-.68.87-1.2l.02-.06 1.5-.01v.1a4.04 4.04 0 0 1-.7 1.51c-.32.45-.76.8-1.3 1.05-.53.25-1.19.38-1.95.38ZM379.94 220.3c-.92 0-1.73-.15-2.42-.45a4.12 4.12 0 0 1-1.64-1.25 3.55 3.55 0 0 1-.7-1.83v-.1h1.58l.01.1c.04.43.2.8.48 1.1.3.3.67.54 1.15.72a4.89 4.89 0 0 0 3.16-.02c.45-.19.8-.45 1.06-.78.26-.32.4-.7.4-1.13 0-.54-.2-.98-.59-1.34a4.05 4.05 0 0 0-1.89-.83l-1.4-.3a7.04 7.04 0 0 1-2.08-.77 3.28 3.28 0 0 1-1.19-1.19c-.25-.47-.37-1-.37-1.62 0-.7.2-1.33.57-1.87.38-.54.9-.96 1.57-1.26.67-.3 1.45-.46 2.32-.46.85 0 1.6.15 2.24.46.65.3 1.17.7 1.55 1.22.39.5.6 1.08.64 1.71v.12h-1.57l-.02-.11c-.06-.38-.21-.7-.46-1a2.5 2.5 0 0 0-.98-.7 3.64 3.64 0 0 0-1.44-.24c-.53 0-1 .08-1.43.25-.42.17-.76.4-1 .7-.25.31-.38.69-.38 1.13 0 .34.08.65.25.91.16.27.42.5.77.69.36.2.83.35 1.4.48l1.4.32c.9.2 1.6.44 2.14.76.54.3.93.69 1.18 1.14.25.44.38.97.38 1.58 0 .8-.2 1.48-.58 2.06a3.79 3.79 0 0 1-1.64 1.33c-.7.31-1.52.47-2.47.47ZM542.94 220.17c-.7 0-1.32-.1-1.86-.32a3.27 3.27 0 0 1-1.3-.9c-.32-.4-.51-.85-.57-1.38h1.56c.13.4.38.72.75.96.38.24.87.36 1.48.36.42 0 .8-.06 1.11-.18.33-.13.59-.3.77-.52.19-.22.28-.47.28-.76v-.01c0-.33-.13-.6-.39-.82a2.89 2.89 0 0 0-1.25-.56l-1.46-.35a5.33 5.33 0 0 1-1.46-.54c-.38-.23-.66-.5-.85-.84a2.42 2.42 0 0 1-.27-1.17v-.01c0-.53.15-1 .46-1.42.3-.41.73-.74 1.25-.97a4.35 4.35 0 0 1 1.8-.36c.67 0 1.25.1 1.76.31.52.2.93.5 1.24.89.32.38.51.83.58 1.34h-1.5c-.1-.38-.33-.68-.68-.92a2.51 2.51 0 0 0-1.4-.35c-.38 0-.71.06-1 .19-.3.11-.52.28-.69.49-.17.2-.25.44-.25.73v.01c0 .22.05.4.16.57.11.16.28.3.51.43.24.12.54.23.9.32l1.47.35c.6.14 1.09.33 1.47.56.4.23.69.5.87.83.2.33.3.72.3 1.17v.02c0 .56-.17 1.05-.5 1.49-.34.42-.79.76-1.36 1a4.9 4.9 0 0 1-1.93.36ZM533.51 220v-9.46h1.53v1.4h.14c.18-.49.48-.88.91-1.15.43-.28.97-.41 1.6-.41a4.08 4.08 0 0 1 .76.06v1.48a4.18 4.18 0 0 0-.94-.08c-.48 0-.9.1-1.28.28-.37.2-.66.46-.87.8-.21.35-.32.76-.32 1.22V220h-1.52ZM527.58 220.17a3.95 3.95 0 0 1-3.81-2.28 5.94 5.94 0 0 1-.53-2.58v-.01a6 6 0 0 1 .52-2.58 4.02 4.02 0 0 1 3.72-2.35 3.77 3.77 0 0 1 3.64 2.26c.33.71.5 1.54.5 2.48v.6h-7.59v-1.22h6.8l-.75 1.11v-.6c0-.75-.11-1.36-.33-1.84a2.36 2.36 0 0 0-2.28-1.42c-.51 0-.96.12-1.36.37-.4.24-.72.61-.95 1.1a4.11 4.11 0 0 0-.35 1.79v.6c0 .68.11 1.25.34 1.73.23.47.55.84.97 1.1.42.25.92.38 1.49.38.43 0 .8-.06 1.12-.18.31-.12.57-.27.78-.45.2-.18.35-.37.43-.56l.03-.08h1.53l-.01.07a2.9 2.9 0 0 1-.44.95c-.2.3-.48.57-.81.82-.33.24-.72.43-1.16.58-.45.14-.95.2-1.5.2ZM512.42 220l-2.65-9.46h1.53l1.86 7.57h.13l2.12-7.57h1.45l2.12 7.57h.14l1.86-7.57h1.52l-2.65 9.46h-1.54l-2.11-7.32h-.14l-2.1 7.32h-1.54ZM504.68 220.17a3.98 3.98 0 0 1-3.83-2.28 5.95 5.95 0 0 1-.53-2.61v-.02c0-1.01.18-1.88.53-2.6.36-.74.86-1.3 1.51-1.7.66-.39 1.43-.58 2.32-.58.9 0 1.68.2 2.33.59.65.39 1.15.95 1.5 1.68.36.73.54 1.6.54 2.61v.02c0 1-.18 1.88-.53 2.61a3.94 3.94 0 0 1-3.84 2.28Zm0-1.36c.6 0 1.1-.14 1.52-.42.42-.28.74-.68.95-1.2a4.9 4.9 0 0 0 .34-1.91v-.02c0-.75-.11-1.39-.34-1.91a2.55 2.55 0 0 0-.95-1.2 2.69 2.69 0 0 0-1.52-.42c-.59 0-1.1.14-1.5.41-.42.28-.74.68-.97 1.2a5.03 5.03 0 0 0-.32 1.92v.02c0 .74.1 1.38.32 1.9.23.53.55.93.96 1.21.42.28.92.42 1.51.42ZM496.82 220v-13.21h1.53V220h-1.53ZM492.75 220v-13.21h1.53V220h-1.53ZM486.42 220.17a3.98 3.98 0 0 1-3.83-2.28 5.95 5.95 0 0 1-.53-2.61v-.02c0-1.01.17-1.88.52-2.6.36-.74.87-1.3 1.52-1.7.65-.39 1.42-.58 2.32-.58.9 0 1.68.2 2.32.59.66.39 1.16.95 1.5 1.68.37.73.54 1.6.54 2.61v.02c0 1-.17 1.88-.53 2.61a3.94 3.94 0 0 1-3.83 2.28Zm0-1.36c.6 0 1.1-.14 1.52-.42.41-.28.73-.68.95-1.2.22-.53.33-1.17.33-1.91v-.02c0-.75-.11-1.39-.33-1.91a2.56 2.56 0 0 0-.95-1.2 2.69 2.69 0 0 0-1.52-.42c-.6 0-1.1.14-1.52.41-.41.28-.73.68-.95 1.2a5.03 5.03 0 0 0-.33 1.92v.02c0 .74.1 1.38.33 1.9.22.53.54.93.95 1.21.42.28.92.42 1.52.42ZM472.93 220v-12.68h7.7v1.42h-6.12v4.36h5.62v1.4h-5.62v5.5h-1.58Z" fill="#B2B5BE"/><defs><linearGradient id="afg01zqyl" x1="306" y1="0" x2="306" y2="392" gradientUnits="userSpaceOnUse"><stop stop-color="#121314"/><stop offset="1" stop-color="#0B0B0C"/></linearGradient><linearGradient id="bfg01zqyl" x1="31.3" y1="-10.69" x2="399.26" y2="674.09" gradientUnits="userSpaceOnUse"><stop stop-color="#fff"/><stop offset="1" stop-opacity="0"/></linearGradient><linearGradient id="cfg01zqyl" x1="86" y1="24" x2="86" y2="250.91" gradientUnits="userSpaceOnUse"><stop stop-color="#3F3F3F"/><stop offset="1" stop-color="#3F3F3F" stop-opacity="0"/></linearGradient><linearGradient id="dfg01zqyl" x1="80.15" y1="88.13" x2="134.85" y2="45.88" gradientUnits="userSpaceOnUse"><stop stop-color="#F8F9FD"/><stop offset=".38" stop-color="#fff" stop-opacity="0"/></linearGradient><linearGradient id="gfg01zqyl" x1="234.3" y1="39" x2="312" y2="39" gradientUnits="userSpaceOnUse"><stop stop-color="#FEDF84"/><stop offset="1" stop-color="#C68238"/></linearGradient><linearGradient id="hfg01zqyl" x1="306" y1="224" x2="306" y2="392" gradientUnits="userSpaceOnUse"><stop stop-opacity="0"/><stop offset="1"/></linearGradient><filter id="ffg01zqyl" x="63.07" y="56.07" width="45.08" height="40.18" filterUnits="userSpaceOnUse"><feFlood flood-opacity="0" result="BackgroundImageFix"/><feColorMatrix in="SourceAlpha" result="hardAlpha"/><feOffset dy="2.55"/><feGaussianBlur stdDeviation="1.27"/><feColorMatrix values="0 0 0 0 0 0 0 0 0 0 0 0 0 0 0 0 0 0 0.25 0"/><feBlend in="SourceGraphic"/></filter></defs></svg>