<svg width="56" height="56" viewBox="0 0 56 56" xmlns="http://www.w3.org/2000/svg"><rect width="56" height="56" rx="8" fill="#1E222D"/><rect width="56" height="56" rx="8" fill="url(#afmod4gbc)" fill-opacity=".1"/><path d="M28.23 20.1c-4.5 0-7.85 3.19-7.85 7.89 0 4.72 3.35 7.91 7.85 7.91 3.04 0 5.6-1.44 6.68-3.82l9.09 5.1a17.42 17.42 0 0 1-6.57 6.5A18 18 0 0 1 28.36 46c-2.43.04-4.84-.4-7.1-1.28a18.05 18.05 0 0 1-6.02-3.9 17.53 17.53 0 0 1-3.96-5.88c-.9-2.2-1.33-4.56-1.27-6.93C10 17.85 17.85 10 28.36 10c6.7 0 12.66 3.46 15.64 8.72l-9.06 5.18a7.05 7.05 0 0 0-6.71-3.8Z" fill="#fff"/><path d="M38.18 30.81A4.04 4.04 0 0 0 41 32c2.17 0 4-1.82 4-4 0-2.18-1.82-4-4-4-2.17 0-4 1.82-4 4a4.05 4.05 0 0 0 1.18 2.81Z" fill="#C59A78"/><defs><radialGradient id="afmod4gbc" cx="0" cy="0" r="1" gradientUnits="userSpaceOnUse" gradientTransform="rotate(34.1 -6.96 6.9) scale(34.2763)"><stop stop-color="#fff"/><stop offset="1" stop-color="#fff" stop-opacity="0"/></radialGradient></defs></svg>