<svg width="560" height="422" viewBox="0 0 560 422" fill="none" xmlns="http://www.w3.org/2000/svg"><path d="M-80.97 91.11c286.92 7.75 564.9-88.77 668.03-138v302.72C397.5 400.62 62.73 423.1-80.97 416.23V91.11Z" stroke="url(#airrj20y4)" stroke-width="8"/><path d="M-80.97 267.46c286.92 7.75 564.9-88.78 668.03-138v180.97C397.5 455.21 62.73 477.7-80.97 470.83V267.46Z" stroke="url(#birrj20y4)" stroke-width="12"/><g filter="url(#cirrj20y4)"><path d="M582.3 192.74C333.05 324.71 39.14 363.95-76.66 367.07c284.58-16.12 555.33-125.48 658.8-177.34l.16 3.01Z" fill="url(#dirrj20y4)"/></g><defs><linearGradient id="airrj20y4" x1="550" y1="185.22" x2="11" y2="185.21" gradientUnits="userSpaceOnUse"><stop stop-color="#FF88F3"/><stop offset="1" stop-color="red" stop-opacity="0"/></linearGradient><linearGradient id="birrj20y4" x1="547" y1="300.69" x2="12" y2="300.69" gradientUnits="userSpaceOnUse"><stop stop-color="red" stop-opacity="0"/><stop offset="1" stop-color="#FF88F3"/></linearGradient><linearGradient id="dirrj20y4" x1="636" y1="165.64" x2="366.3" y2="202.92" gradientUnits="userSpaceOnUse"><stop stop-color="#FC57FF"/><stop offset="1" stop-color="#FC57FF" stop-opacity="0"/></linearGradient><filter id="cirrj20y4" x="-79.04" y="187.35" width="663.71" height="182.1" filterUnits="userSpaceOnUse" color-interpolation-filters="sRGB"><feFlood flood-opacity="0"/><feBlend in="SourceGraphic"/><feGaussianBlur stdDeviation="1.19"/></filter></defs></svg>