<svg xmlns="http://www.w3.org/2000/svg" width="132" height="60" viewBox="0 0 132 60"><path fill="#fff" d="M60.02 45.25c-4.14 0-6.95-4.7-6.95-8.63 0-4.14 1.96-8.49 6.8-8.18 3.72.23 5.95 3.2 5.95 8.22 0 5.01-2.4 8.48-6.3 8.59m.77-21.19c-2.67-.13-5.08.79-7.22 2.42V15.56h-5.02v33.4h4.16l.86-2.32c2.1 1.7 3.74 2.35 6.4 2.35 3.33-.01 6.17-1.16 8.2-3.33 2.07-2.2 3.17-5.33 3.17-9 0-7.31-3.77-12.35-10.45-12.6m23.17 20.67c-3.97 0-6.08-2.87-6.08-8.08s2.12-8.28 6.13-8.28 6.08 3.08 6.08 8.28c0 5.21-2.13 8.08-6.13 8.08m0-20.63c-7.09 0-11.1 5.83-11.1 12.55C72.46 44.16 75.73 49 83.6 49c7.1 0 11.1-5.6 11.1-12.35 0-7.5-4.16-12.55-11.16-12.55m23.81 3.7c-4.12 0-5.93 3.38-6.17 6.26h11.87c0-3.23-1.63-6.26-5.7-6.26m-6.17 9.82c.04 4.76 2.48 7.64 6.89 7.64s6.9-2.58 7.15-2.83l1.97 3.2S114.08 49 107.53 49s-11.21-4.55-11.21-12.3c0-7.74 4.85-12.6 11.2-12.6 6.36 0 10.1 5.01 10.1 11.79l-.06 1.73zm-75.04 7.03c-6.64 0-11.05-5.42-11.05-13.17 0-7.73 4.63-13 11.21-13 4.84 0 6.99 2.4 8.67 4.13l2.97-2.95c-1.6-1.61-4.75-5.53-11.8-5.53-8.7 0-16.15 6.47-16.15 17.42C10 42.49 16.7 49 25.94 49c6.86 0 10.6-3.6 12.06-5.44l-3.1-3.06a11.5 11.5 0 0 1-8.76 4.14M122 26.43a2.2 2.2 0 0 1-1.36 2.04q-.41.16-.85.16a2.2 2.2 0 0 1-2.04-1.35q-.16-.4-.16-.84a2.1 2.1 0 0 1 1.36-2.02q.41-.17.85-.16a2.2 2.2 0 0 1 2.04 1.34q.16.4.16.84zm-.24 0a1.9 1.9 0 0 0-1.2-1.8q-.36-.14-.76-.14a2 2 0 0 0-1.83 1.2q-.14.37-.14.75a2 2 0 0 0 .56 1.4 2 2 0 0 0 1.4.56 2 2 0 0 0 1.83-1.21q.15-.36.14-.76m-1.41.38.58.89h-.34l-.54-.84h-.86v.84h-.33v-2.5h1.05c.62 0 1 .32 1 .82 0 .36-.27.72-.56.79m.23-.79q-.01-.51-.7-.5h-.69v1.07h.7q.68-.02.7-.57"/><path fill="#2AEC7D" d="M35.87 15.04 38.9 12l3.03 3.04-3.03 3zm4.28 4.24 3.05-3.02 3.04 3.02-3.04 3.02zm-4.3 4.29 3.04-3.02 3.05 3.02-3.05 3.02z"/></svg>