<svg xmlns="http://www.w3.org/2000/svg" width="200" height="80" viewBox="0 0 200 80"><path fill="#fff" d="M91.88 59.93c-5.61 0-9.42-6.34-9.42-11.66 0-5.6 2.65-11.47 9.21-11.05 5.06.3 8.1 4.33 8.1 11.1 0 6.78-3.27 11.47-8.55 11.61m1.03-28.63c-3.63-.18-6.9 1.07-9.8 3.27V19.8h-6.81v45.14h5.65l1.17-3.13c2.84 2.29 5.06 3.17 8.67 3.17 4.53-.02 8.38-1.57 11.15-4.5 2.8-2.98 4.3-7.2 4.3-12.17 0-9.88-5.12-16.69-14.2-17.02m31.45 27.93c-5.4 0-8.25-3.87-8.25-10.91s2.88-11.2 8.31-11.2 8.26 4.17 8.26 11.2c0 7.04-2.89 10.91-8.32 10.91m0-27.88c-9.62 0-15.07 7.88-15.07 16.97 0 10.14 4.45 16.68 15.13 16.68 9.64 0 15.08-7.58 15.08-16.68 0-10.15-5.65-16.97-15.15-16.97m32.31 5c-5.59 0-8.04 4.56-8.37 8.46h16.1c0-4.36-2.2-8.45-7.73-8.45m-8.37 13.27c.05 6.44 3.37 10.33 9.35 10.33s9.35-3.49 9.7-3.83l2.68 4.33S165.25 65 156.36 65s-15.21-6.15-15.21-16.62 6.59-17.03 15.2-17.03c8.63 0 13.7 6.77 13.7 15.93l-.07 2.34zm-101.84 9.5c-9.02 0-15-7.32-15-17.8 0-10.44 6.28-17.55 15.22-17.55 6.56 0 9.48 3.23 11.76 5.57l4.03-3.98c-2.16-2.19-6.45-7.48-16-7.48C34.1 17.88 24 26.62 24 41.41S33.09 65 45.63 65C54.94 65 60 60.13 62 57.64l-4.2-4.12a15.6 15.6 0 0 1-11.88 5.59M176 34.5a3 3 0 0 1-.87 2.1 3 3 0 0 1-2.13.87 3 3 0 0 1-2.77-1.82 3 3 0 0 1-.21-1.13 2.9 2.9 0 0 1 1.84-2.74q.56-.22 1.16-.21a2.95 2.95 0 0 1 2.77 1.8q.23.55.2 1.14zm-.32 0a2.5 2.5 0 0 0-1.64-2.43q-.49-.2-1.02-.19a2.7 2.7 0 0 0-2.49 1.62q-.2.5-.2 1.02a2.5 2.5 0 0 0 .77 1.88 2.6 2.6 0 0 0 1.9.76 2.7 2.7 0 0 0 2.49-1.64q.2-.49.19-1.02m-1.92.51.79 1.2h-.46l-.73-1.13h-1.17v1.13h-.46v-3.38h1.43c.84 0 1.36.44 1.36 1.12 0 .48-.36.96-.76 1.06m.32-1.06q-.02-.7-.95-.69h-.94v1.46h.94c.6 0 .95-.29.95-.77"/><path fill="#2AEC7D" d="m59.1 19.1 4.12-4.1 4.12 4.1-4.12 4.06zm5.82 5.74 4.13-4.08 4.13 4.08-4.13 4.07zm-5.85 5.8 4.14-4.08 4.14 4.07-4.14 4.08z"/></svg>