<svg xmlns="http://www.w3.org/2000/svg" width="200" height="60" viewBox="0 0 200 60"><path fill="#fff" d="M92.73 47.44c-5.02 0-8.43-5.71-8.43-10.5 0-5.03 2.38-10.32 8.25-9.94 4.53.28 7.24 3.9 7.24 10s-2.92 10.31-7.65 10.44m.93-25.77c-3.25-.16-6.18.96-8.77 2.94V11.33h-6.1v40.63h5.06l1.04-2.82c2.55 2.06 4.54 2.85 7.76 2.85 4.06-.02 7.5-1.4 9.97-4.05 2.52-2.68 3.85-6.48 3.85-10.95 0-8.9-4.58-15.02-12.7-15.32m28.14 25.14c-4.82 0-7.38-3.49-7.38-9.82s2.58-10.09 7.44-10.09 7.38 3.76 7.38 10.09-2.58 9.82-7.44 9.82m0-25.1c-8.6 0-13.48 7.1-13.48 15.28 0 9.13 3.98 15.01 13.54 15.01 8.62 0 13.49-6.82 13.49-15.01 0-9.13-5.06-15.28-13.56-15.28m28.91 4.51c-5 0-7.2 4.1-7.5 7.6h14.42c0-3.91-1.97-7.6-6.91-7.6m-7.5 11.93c.06 5.8 3.02 9.3 8.38 9.3 5.34 0 8.37-3.13 8.68-3.44l2.4 3.9S158.38 52 150.43 52s-13.61-5.54-13.61-14.95c0-9.43 5.89-15.34 13.6-15.34s12.25 6.1 12.25 14.34l-.06 2.1zm-91.1 8.55c-8.08 0-13.43-6.58-13.43-16s5.6-15.8 13.6-15.8c5.87 0 8.48 2.9 10.52 5l3.6-3.58C64 14.36 60.18 9.6 51.62 9.6 41.05 9.6 32 17.45 32 30.77 32 44.08 40.13 52 51.35 52c8.34 0 12.87-4.38 14.65-6.62l-3.75-3.71A14 14 0 0 1 51.6 46.7M168 24.55a2.6 2.6 0 0 1-1.65 2.48q-.5.2-1.03.2a2.7 2.7 0 0 1-2.48-1.64 3 3 0 0 1-.2-1.02 2.6 2.6 0 0 1 1.66-2.47q.5-.2 1.03-.19a2.6 2.6 0 0 1 2.48 1.63q.2.49.19 1.02zm-.29 0a2.3 2.3 0 0 0-2.38-2.35 2.4 2.4 0 0 0-2.22 1.45q-.18.45-.18.92a2.3 2.3 0 0 0 .69 1.69 2.4 2.4 0 0 0 1.7.69 2.4 2.4 0 0 0 2.22-1.48q.18-.45.17-.92m-1.72.46.71 1.08h-.4l-.66-1.02h-1.05v1.02h-.4v-3.05h1.27c.75 0 1.21.4 1.21 1.02 0 .43-.32.86-.68.95m.3-.95q-.02-.64-.85-.63h-.85v1.32h.85c.54 0 .84-.26.84-.7"/><path fill="#2AEC7D" d="M63.4 10.7 67.1 7l3.68 3.7-3.67 3.65zm5.21 5.15 3.7-3.67 3.7 3.67-3.7 3.67zm-5.23 5.22 3.7-3.67 3.7 3.67-3.7 3.67z"/></svg>