<svg xmlns="http://www.w3.org/2000/svg" width="612" height="340" fill="none" viewBox="0 0 612 340"><path fill="#000" d="M0 0h612v340H0z"/><path stroke="#242424" stroke-width="2" d="M594 0v340M612 304H0M524 0v340M612 256H0M455 0v340M612 209H0M385 0v340M316 0v340M612 115H0M612 68H0M504 20H0"/><path fill="url(#agbpckog3)" d="m131 70 6.03 26.5h4.9l4.53 52 4.9-19.5 3.4 9.5 5.66 7 4.9-4 3.4-20 5.65-7 3.77-27.5 4.15 11.5 4.9 23h5.28l4.9 13.5 4.9-6 8.68-55h7.92l9.8-55 4.15 9.5 4.15 4 4.9 33 5.28 8.5 3.77 15.5 4.53-13L259.6 91l4.52-1.5 5.66 1.5 8.67 44h9.05l4.15-22.5 10.19 16.5h6.4l5.28 12.5 6.04 7 2.64 11.5V87h8.67l6.41 39.5 3.78-12 4.52 25 8.3 5.5 5.65-3.5 3.78-20 4.9-7 4.9 35.5 3.34 14.5h1.76l3.95-14.5 6.03 10 7.17-20.5 2.64 25h-19.79l-.95 3.5-.8-3.5H131z" opacity=".8"/><path stroke="#089981" stroke-width="2" d="m131 70 6.03 26.5h4.9l4.53 52 4.9-19.5 3.4 9.5 5.66 7 4.9-4 3.4-20 5.65-7 3.77-27.5 4.15 11.5 4.9 23h5.28l4.9 13.5 4.9-6 8.68-55h7.92l9.8-55 4.15 9.5 4.15 4 4.9 33 5.28 8.5 3.77 15.5 4.53-13L259.6 91l4.52-1.5 5.66 1.5 8.67 44h9.05l4.15-22.5 10.19 16.5h6.4l5.28 12.5 6.04 7 2.64 11.5V87h8.67l6.41 39.5 3.78-12 4.52 25 8.3 5.5 5.65-3.5 3.78-20 4.9-7 4.9 35.5 4.15 18 4.9-18 6.03 10 7.17-20.5 2.64 25"/><path stroke="#f23645" stroke-width="2" d="m397.6 160.9 1.91 17.43 5.67 1.2 4.54 2.4 4.54-7.98 4.16-16.95 4.91 5.58 4.54.8 3.02 63 4.92-7.37 5.29 2.39 4.91 7.58 3.79-4.79 5.29-12.16 3.78 4.19 4.16 58.41 9.45-9.37 6.43 5.39 4.53 3.99 4.92.6 3.4-3 4.16 6.78 5.67-2.2 4.92-3.78 4.16 1.6 2.64 10.76 6.8.6 3.79-2.6 4.53 2 3.79-2.79 3.78.8 10.2-9.77 8.32 11.76 4.54-31.1 3.78.6 3.02-12.76 6.43 4.78 3.4-13.56 4.16 25.13 6.43 7.77 4.54-31.1 4.53 7.97 5.3-1.6c1.26 1.6 4 4.71 4.91 4.4.9-.33 4.41-2 6.05-2.8l7.18-1 1.51-1.39 8.7 3.59"/><path fill="url(#bgbpckog3)" d="m399.51 178.33-1.64-17.8 19.69-.02.86-3.51 3.08 3.5 207.5-.31v84.14l-8.7-3.59-1.5 1.4-7.2 1c-1.63.79-5.13 2.47-6.04 2.78-.9.32-3.65-2.79-4.91-4.38l-5.3 1.6-4.53-7.98-4.54 31.1-6.43-7.77-4.16-25.13-3.4 13.56-6.43-4.78-3.02 12.76-3.78-.6-4.54 31.1-8.32-11.76-10.2 9.77-3.78-.8-3.79 2.8-4.53-2-3.78 2.59-6.8-.6-2.66-10.76-4.15-1.6-4.92 3.79-5.67 2.2-4.16-6.79-3.4 3-4.92-.6-4.53-4-6.43-5.38-9.45 9.38-4.16-58.42-3.78-4.2-5.3 12.17-3.78 4.79-4.91-7.58-5.3-2.4-4.9 7.38-3.03-63-4.54-.8-1.83-2.08h-3.94l-3.3 13.45-4.54 7.97-4.54-2.39z" opacity=".4"/><mask id="cgbpckog3" width="234" height="135" x="396" y="154" maskUnits="userSpaceOnUse" style="mask-type:alpha"><path stroke="#f23645" stroke-width="2" d="m397.6 160.9 1.91 17.43 5.67 1.2 4.54 2.4 4.54-7.98 4.16-16.95 4.91 5.58 4.54.8 3.02 63 4.92-7.37 5.29 2.39 4.91 7.58 3.79-4.79 5.29-12.16 3.78 4.19 4.16 58.41 9.45-9.37 6.43 5.39 4.53 3.99 4.92.6 3.4-3 4.16 6.78 5.67-2.2 4.92-3.78 4.16 1.6 2.64 10.76 6.8.6 3.79-2.6 4.53 2 3.79-2.79 3.78.8 10.2-9.77 8.32 11.76 4.54-31.1 3.78.6 3.02-12.76 6.43 4.78 3.4-13.56 4.16 25.13 6.43 7.77 4.54-31.1 4.53 7.97 5.3-1.6c1.26 1.6 4 4.71 4.91 4.4.9-.33 4.41-2 6.05-2.8l7.18-1 1.51-1.39 8.7 3.59"/></mask><g mask="url(#cgbpckog3)"><path fill="#089981" d="M409.04 149.95h18.99V161h-18.99z"/></g><path fill="#b8b8b8" d="M705.5 163v-2h1.5v2zm-6 0v-2h3v2zm-6 0v-2h3v2zm-6 0v-2h3v2zm-6 0v-2h3v2zm-6 0v-2h3v2zm-6 0v-2h3v2zm-6 0v-2h3v2zm-6 0v-2h3v2zm-6 0v-2h3v2zm-6 0v-2h3v2zm-6 0v-2h3v2zm-6 0v-2h3v2zm-6 0v-2h3v2zm-6 0v-2h3v2zm-6 0v-2h3v2zm-6 0v-2h3v2zm-6 0v-2h3v2zm-6 0v-2h3v2zm-6 0v-2h3v2zm-6 0v-2h3v2zm-6 0v-2h3v2zm-6 0v-2h3v2zm-6 0v-2h3v2zm-6 0v-2h3v2zm-6 0v-2h3v2zm-6 0v-2h3v2zm-6 0v-2h3v2zm-6 0v-2h3v2zm-6 0v-2h3v2zm-6 0v-2h3v2zm-6 0v-2h3v2zm-6 0v-2h3v2zm-6 0v-2h3v2zm-6 0v-2h3v2zm-6 0v-2h3v2zm-6 0v-2h3v2zm-6 0v-2h3v2zm-6 0v-2h3v2zm-6 0v-2h3v2zm-6 0v-2h3v2zm-6 0v-2h3v2zm-6 0v-2h3v2zm-6 0v-2h3v2zm-6 0v-2h3v2zm-6 0v-2h3v2zm-6 0v-2h3v2zm-6 0v-2h3v2zm-6 0v-2h3v2zm-6 0v-2h3v2zm-6 0v-2h3v2zm-6 0v-2h3v2zm-6 0v-2h3v2zm-6 0v-2h3v2zm-6 0v-2h3v2zm-6 0v-2h3v2zm-6 0v-2h3v2zm-6 0v-2h3v2zm-6 0v-2h3v2zm-6 0v-2h3v2zm-6 0v-2h3v2zm-6 0v-2h3v2zm-6 0v-2h3v2zm-6 0v-2h3v2zm-6 0v-2h3v2zm-6 0v-2h3v2zm-6 0v-2h3v2zm-6 0v-2h3v2zm-6 0v-2h3v2zm-6 0v-2h3v2zm-6 0v-2h3v2zm-6 0v-2h3v2zm-6 0v-2h3v2zm-6 0v-2h3v2zm-6 0v-2h3v2zm-6 0v-2h3v2zm-6 0v-2h3v2zm-6 0v-2h3v2zm-6 0v-2h3v2zm-6 0v-2h3v2zm-6 0v-2h3v2zm-6 0v-2h3v2zm-6 0v-2h3v2zm-6 0v-2h3v2zm-6 0v-2h3v2zm-6 0v-2h3v2zm-6 0v-2h3v2zm-6 0v-2h3v2zm-6 0v-2h3v2zm-6 0v-2h3v2zm-6 0v-2h3v2zm-6 0v-2h3v2zm-6 0v-2h3v2zm-6 0v-2h3v2zm-6 0v-2h3v2zm-6 0v-2h3v2zm-6 0v-2h3v2zm-6 0v-2h3v2zm-6 0v-2h3v2zm-6 0v-2h3v2zm-6 0v-2h3v2zm-6 0v-2h3v2zm-4.5 0v-2h1.5v2z"/><mask id="dgbpckog3" width="269" height="154" x="130" y="15" maskUnits="userSpaceOnUse" style="mask-type:alpha"><path stroke="#089981" stroke-width="2" d="m131 70 6.03 26.5h4.9l4.53 52 4.9-19.5 3.4 9.5 5.66 7 4.9-4 3.4-20 5.65-7 3.77-27.5 4.15 11.5 4.9 23h5.28l4.9 13.5 4.9-6 8.68-55h7.92l9.8-55 4.15 9.5 4.15 4 4.9 33 5.28 8.5 3.77 15.5 4.53-13L259.6 91l4.52-1.5 5.66 1.5 8.67 44h9.05l4.15-22.5 10.19 16.5h6.4l5.28 12.5 6.04 7 2.64 11.5V87h8.67l6.41 39.5 3.78-12 4.52 25 8.3 5.5 5.65-3.5 3.78-20 4.9-7 4.9 35.5 4.15 18 4.9-18 6.03 10 7.17-20.5 2.64 25"/></mask><g mask="url(#dgbpckog3)"><path fill="#f23646" d="M374 162h7v7h-7z"/></g><path fill="url(#egbpckog3)" d="M0 0h612v67H0z"/><path fill="url(#fgbpckog3)" d="M612 340h612v37H612z" transform="rotate(-180 612 340)"/><path fill="url(#ggbpckog3)" d="M612 0h340v50H612z" transform="rotate(90 612 0)"/><path fill="url(#hgbpckog3)" d="M0 16A16 16 0 0 1 16 0h231a16 16 0 0 1 16 16v308a16 16 0 0 1-16 16H16a16 16 0 0 1-16-16z"/><path fill="url(#igbpckog3)" fill-opacity=".2" d="M247 338v2H16v-2zm14-14V16a14 14 0 0 0-14-14H16A14 14 0 0 0 2 16v308a14 14 0 0 0 14 14v2h-.41A16 16 0 0 1 0 324.4V16A16 16 0 0 1 15.59 0H247a16 16 0 0 1 16 16v308a16 16 0 0 1-16 16v-2a14 14 0 0 0 14-14"/><g opacity=".8"><path fill="#dbdbdb" d="M38.5 32.5h2.25c.42 0 .75.33.75.75v19.5a.74.74 0 0 1-.75.75h-6a.74.74 0 0 1-.75-.75v-19.5c0-.42.32-.75.75-.75H37V28h1.5zm-3 19.5H40V34h-4.5zm15-22.5h2.25c.42 0 .75.34.75.75v10.5c0 .41-.32.75-.75.75h-6a.75.75 0 0 1-.75-.75v-10.5c0-.41.32-.75.75-.75H49V25h1.5zm-3 10.5H52v-9h-4.5z"/><path fill="#fff" d="M73.73 50V33.09h2.11v7.31h9.28V33.1h2.11V50h-2.1v-7.7h-9.29V50zM95.17 50.23a5.14 5.14 0 0 1-4.97-2.98 8 8 0 0 1-.67-3.33v-.01q0-1.92.67-3.36a5.4 5.4 0 0 1 1.93-2.25q1.24-.8 2.91-.8t2.89.77a5 5 0 0 1 1.85 2.17q.66 1.39.66 3.22v.76h-9.88v-1.6h8.86l-1.04 1.48v-.8q0-1.42-.43-2.35a3 3 0 0 0-2.92-1.85q-.98 0-1.77.48-.77.48-1.22 1.42t-.44 2.3v.8q0 1.3.43 2.23a3.3 3.3 0 0 0 3.19 1.9q.78 0 1.4-.23.6-.24 1.03-.64.4-.41.58-.91l.04-.1h2.01l-.02.11a4.3 4.3 0 0 1-1.68 2.52q-.66.5-1.53.77-.86.29-1.88.28M102.55 50V37.73h2.04V50zm1.02-14.4a1.3 1.3 0 0 1-1.3-1.3q0-.54.37-.92.39-.39.93-.38.56 0 .93.38t.37.92a1.3 1.3 0 0 1-1.3 1.3M107.45 50V32.96h2.04V50zm7.75 0-4.69-5.9 1.39-1.34 5.7 7.24zm-6.13-4.23-.01-2.64h.5l5.37-5.4h2.47l-5.8 5.77-.23.08zM119.06 50V37.73h2.04V50zm1.02-14.4a1.3 1.3 0 0 1-1.3-1.3q0-.54.38-.92.38-.39.92-.38.55 0 .93.38.37.38.37.92a1.3 1.3 0 0 1-1.3 1.3M123.81 50V37.73h2.04v1.77h.07q.5-.9 1.42-1.44.94-.56 2.32-.56 2.03 0 3.14 1.21 1.11 1.2 1.11 3.33V50h-2.03v-7.57q0-1.53-.7-2.33-.71-.8-2.13-.8-.97 0-1.7.43-.71.43-1.11 1.21a4 4 0 0 0-.39 1.83V50zM140.38 50l6.28-16.91h1.57v2.57h-.56L142.6 50zm2.87-4.84.7-1.8h7.53l.7 1.8zM152.8 50l-5.06-14.34v-2.57h1.01L155.02 50zM160.86 50.23q-1.43 0-2.48-.44-1.05-.45-1.66-1.27a4 4 0 0 1-.73-1.9l-.02-.08h2.06l.02.1q.2.89.9 1.4t1.93.5a4 4 0 0 0 1.43-.23q.6-.22.93-.63t.33-.97v-.01q0-.66-.42-1.06t-1.48-.68l-1.95-.47a7 7 0 0 1-1.9-.72q-.77-.45-1.14-1.12a3 3 0 0 1-.37-1.53v-.01q0-1.05.58-1.87.57-.81 1.6-1.28a6 6 0 0 1 2.34-.46q1.33 0 2.33.46 1 .45 1.57 1.27.58.81.67 1.83v.13h-1.95l-.01-.07a2 2 0 0 0-.81-1.4 3 3 0 0 0-1.8-.52q-.75 0-1.3.23-.54.22-.84.63-.3.4-.29.95v.01q0 .42.2.75t.62.58 1.11.4l1.94.48a7 7 0 0 1 1.97.73q.74.45 1.07 1.08t.34 1.51v.02q0 1.08-.62 1.9t-1.7 1.3q-1.1.46-2.47.46M167.82 50V32.96h2.03v6.7h.08q.48-1.01 1.45-1.59a4.4 4.4 0 0 1 2.32-.57q1.32 0 2.3.62.98.6 1.52 1.7.55 1.1.55 2.59V50h-2.04v-7.22q0-1.65-.78-2.57-.78-.9-2.23-.9-.95 0-1.67.44-.7.44-1.1 1.23a4 4 0 0 0-.4 1.84V50zM180.71 50V37.73h2.04V50zm1.02-14.4a1.3 1.3 0 0 1-1.3-1.3q0-.54.38-.92.38-.39.92-.38.56 0 .93.38t.37.92a1.3 1.3 0 0 1-1.3 1.3"/></g><g opacity=".8"><path fill="#fff" d="m72.39 103 6.28-16.91h1.57v2.57h-.56L74.6 103zm2.87-4.84.69-1.8h7.53l.7 1.8zM84.8 103l-5.06-14.34v-2.57h1L87.02 103zM88.59 103V90.73h2.04v2.03h.07q.3-1.05 1.09-1.65.77-.61 1.84-.61.27 0 .5.03l.36.05v1.98l-.46-.08q-.3-.04-.66-.04a3 3 0 0 0-1.44.36q-.63.36-.96 1.02-.34.67-.34 1.6V103zM100.54 103.23a5.14 5.14 0 0 1-4.97-2.98 8 8 0 0 1-.68-3.33v-.01q0-1.92.68-3.36a5.4 5.4 0 0 1 1.92-2.25q1.24-.8 2.92-.8 1.66 0 2.88.77a5 5 0 0 1 1.85 2.17q.66 1.38.66 3.22v.76h-9.88v-1.6h8.86l-1.03 1.48v-.8q0-1.42-.44-2.35a3 3 0 0 0-2.92-1.85q-.98 0-1.77.48-.77.48-1.21 1.42-.45.94-.45 2.3v.8q0 1.3.43 2.23a3.3 3.3 0 0 0 3.2 1.9q.78 0 1.39-.24.61-.22 1.03-.63.41-.41.58-.91l.04-.1h2.01l-.02.11a4.3 4.3 0 0 1-1.68 2.52q-.66.5-1.53.77-.86.29-1.87.28M111.33 103.23q-1.2 0-2.12-.45a3.4 3.4 0 0 1-1.95-3.24v-.02q0-1.06.51-1.83.53-.77 1.52-1.22 1.02-.45 2.42-.52l4.53-.27v1.59l-4.3.27q-1.25.07-1.93.58-.67.52-.67 1.39v.02q0 .9.67 1.42.68.52 1.78.52.97 0 1.75-.41.77-.42 1.23-1.12t.45-1.58v-3.67q0-1.11-.7-1.74-.7-.65-2-.65-1.16 0-1.89.5-.72.48-.9 1.3l-.03.09h-1.98l.02-.12q.1-1 .7-1.82.6-.8 1.65-1.27 1.05-.48 2.46-.48 1.46 0 2.51.5 1.06.5 1.63 1.4t.57 2.14V103h-2.04v-1.96h-.07q-.36.67-.95 1.16a4.4 4.4 0 0 1-2.87 1.03"/><path fill="#dbdbdb" fill-rule="evenodd" d="M60.03 80.03 45.78 94.28l-.53.54-.52-.54-6.98-6.96-12.22 12.2-1.05-1.04 12.75-12.75.52-.54.53.54 6.97 6.96 13.73-13.71zM25 103.5h1.5v1.5H25zm3-1.5h-1.5v1.5H28v1.5h1.5v-1.5H31v1.5h1.5v-1.5H34v1.5h1.5v-1.5H37v1.5h1.5v-1.5H40v1.5h1.5v-1.5H43v1.5h1.5v-1.5H46v1.5h1.5v-1.5H49v1.5h1.5v-1.5H52v1.5h1.5v-1.5H55v1.5h1.5v-1.5H58v1.5h1.5v-1.5H58V102h1.5v-1.5H58V99h1.5v-1.5H58V96h1.5v-1.5H58V93h1.5v-1.5H58V90h1.5v-1.5H58V87h1.5v-1.5H58V87h-1.5v1.5H55V90h-1.5v1.5H52V93h-1.5v1.5H49V96h-1.5v1.5H46V99h-1.5v-1.5H43V96h-1.5v-1.5H40V93h-1.5v-1.5H37V93h-1.5v1.5H34V96h-1.5v1.5H31V99h-1.5v1.5H28zm1.5 0v1.5H28V102zm1.5 0h-1.5v-1.5H31zm1.5 0v1.5H31V102zm0-1.5H31V99h1.5zm1.5 0h-1.5v1.5H34v1.5h1.5V102H37v1.5h1.5V102H40v1.5h1.5V102H43v1.5h1.5V102H46v1.5h1.5V102H49v1.5h1.5V102H52v1.5h1.5V102H55v1.5h1.5V102H58v-1.5h-1.5V99H58v-1.5h-1.5V96H58v-1.5h-1.5V93H58v-1.5h-1.5V90H58v-1.5h-1.5V90H55v1.5h-1.5V93H52v1.5h-1.5V96H49v1.5h-1.5V99H46v1.5h-1.5V99H43v-1.5h-1.5V96H40v-1.5h-1.5V93H37v1.5h-1.5V96H34v1.5h-1.5V99H34zm1.5 0v1.5H34v-1.5zm0-1.5H34v-1.5h1.5zm1.5 0h-1.5v1.5H37v1.5h1.5v-1.5H40v1.5h1.5v-1.5H43v1.5h1.5v-1.5H43V99h-1.5v-1.5H40V96h-1.5v-1.5H37V96h-1.5v1.5H37zm1.5 0v1.5H37V99zm0-1.5V96H37v1.5zm0 0V99H40v1.5h1.5V99H40v-1.5zm9 3V99H49v1.5zm3 0v1.5H49v-1.5zm0-1.5H49v-1.5h1.5zm1.5 0h-1.5v1.5H52v1.5h1.5v-1.5H55v1.5h1.5v-1.5H55V99h1.5v-1.5H55V96h1.5v-1.5H55V93h1.5v-1.5H55V93h-1.5v1.5H52V96h-1.5v1.5H52zm1.5 0H52v1.5h1.5zm0-1.5H55V99h-1.5zm0-1.5H55v-1.5h-1.5zm0 0v1.5H52V96zm-6 4.5v1.5H46v-1.5z"/></g><g opacity=".8"><path fill="#fff" d="M80.75 307.3a7.6 7.6 0 0 1-4.06-1.07 7 7 0 0 1-2.67-3.05 11 11 0 0 1-.94-4.64v-.01q0-2.68.94-4.63a7.1 7.1 0 0 1 6.73-4.11 7.4 7.4 0 0 1 3.2.67 6.26 6.26 0 0 1 3.68 4.69l.03.1h-2.14l-.07-.21a4.38 4.38 0 0 0-2.58-2.9 5 5 0 0 0-2.12-.41 5.1 5.1 0 0 0-4.82 3.2 9 9 0 0 0-.68 3.6q0 2.07.68 3.6a5.05 5.05 0 0 0 4.83 3.22q1.17 0 2.12-.38a4 4 0 0 0 1.6-1.13q.67-.75 1-1.83l.04-.1h2.14l-.03.1a6.3 6.3 0 0 1-3.67 4.65q-1.43.64-3.2.64M94.83 307.23a5.7 5.7 0 0 1-2.98-.77 5.3 5.3 0 0 1-2-2.21 7.6 7.6 0 0 1-.7-3.38v-.02q0-1.96.7-3.39a5.3 5.3 0 0 1 4.97-2.96q1.71 0 2.99.77a5 5 0 0 1 1.98 2.2q.72 1.4.72 3.38v.02a7.5 7.5 0 0 1-.72 3.39 5.3 5.3 0 0 1-4.96 2.97m.02-1.8a3.3 3.3 0 0 0 1.9-.54q.8-.54 1.22-1.56.45-1.02.45-2.46v-.02q0-1.44-.45-2.46-.43-1.02-1.24-1.55a3.4 3.4 0 0 0-1.9-.54q-1.1 0-1.9.54a3.5 3.5 0 0 0-1.25 1.56q-.45 1-.44 2.45v.02q0 1.44.44 2.46.45 1.02 1.26 1.56.8.54 1.9.54M102.6 307v-17.04h2.05V307zM111.52 307.23a4.5 4.5 0 0 1-2.3-.55 3.6 3.6 0 0 1-1.45-1.57 5.5 5.5 0 0 1-.5-2.42v-7.96h2.05v7.57q0 1.53.69 2.33.7.8 2.12.8.74 0 1.32-.25.6-.25 1.02-.7.42-.46.65-1.09.22-.64.22-1.43v-7.23h2.04V307h-2.04v-1.76h-.07a4 4 0 0 1-2.1 1.74q-.72.25-1.65.25M119.98 307v-12.27H122v1.8h.07q.41-.92 1.3-1.47a3.7 3.7 0 0 1 2.06-.56q.84 0 1.5.28.69.27 1.18.8.5.5.75 1.24h.07q.34-.73.91-1.25a4.2 4.2 0 0 1 2.92-1.07q1.22 0 2.11.5.9.5 1.38 1.4.5.88.5 2.13V307h-2.04v-8q0-.86-.3-1.46t-.86-.92a3 3 0 0 0-1.4-.32 2.63 2.63 0 0 0-2.43 1.4q-.35.67-.35 1.48V307h-2.03v-8.24q0-.75-.32-1.3-.31-.55-.88-.85-.56-.3-1.32-.3-.81 0-1.46.4-.63.4-1 1.08a3 3 0 0 0-.36 1.53V307zM139.28 307v-12.27h2.04v1.77h.07q.5-.9 1.42-1.44.94-.56 2.32-.56 2.03 0 3.14 1.21t1.11 3.33V307h-2.04v-7.57q0-1.53-.7-2.33t-2.12-.8q-.98 0-1.7.43t-1.11 1.21a4 4 0 0 0-.39 1.83V307zM156.23 307.23q-1.43 0-2.48-.44-1.05-.46-1.65-1.27a4 4 0 0 1-.74-1.9l-.01-.08h2.05l.02.1q.2.89.9 1.4t1.94.5a4 4 0 0 0 1.43-.23q.6-.23.92-.63t.33-.97v-.01q0-.67-.42-1.06-.42-.4-1.48-.68l-1.94-.47a7 7 0 0 1-1.91-.72q-.77-.45-1.14-1.12a3 3 0 0 1-.36-1.53v-.01q0-1.05.57-1.87t1.6-1.28a6 6 0 0 1 2.34-.46q1.34 0 2.33.46 1 .46 1.57 1.27t.67 1.83v.13h-1.95v-.07a2 2 0 0 0-.82-1.4 3 3 0 0 0-1.8-.53q-.74 0-1.3.24-.54.23-.84.63t-.29.95v.01q0 .42.2.75t.62.58q.44.25 1.12.4l1.93.48q1.23.3 1.97.73.74.45 1.08 1.08t.34 1.51v.02q0 1.08-.63 1.9-.62.82-1.7 1.3-1.1.45-2.47.46"/><path fill="#dbdbdb" fill-rule="evenodd" d="M40 286.5v21h7.5v-21zm6 1.5h-4.5v18H46zm4.5 10.5v9H58v-9zm6 1.5H52v6h4.5zm-27-6H37v13.5h-7.5zm1.5 1.5h4.5V306H31z"/></g><g opacity=".8"><path fill="#fff" d="M80.75 207.3a7.6 7.6 0 0 1-4.06-1.07 7 7 0 0 1-2.67-3.05 11 11 0 0 1-.94-4.64v-.01q0-2.68.94-4.63a7.1 7.1 0 0 1 6.73-4.12 7.4 7.4 0 0 1 3.2.69 6.26 6.26 0 0 1 3.68 4.69l.03.09h-2.14l-.07-.22a4.38 4.38 0 0 0-2.58-2.9 5 5 0 0 0-2.12-.4 5.1 5.1 0 0 0-4.82 3.2 9 9 0 0 0-.68 3.6q0 2.07.68 3.6a5.05 5.05 0 0 0 4.83 3.22q1.17 0 2.12-.38a4 4 0 0 0 1.6-1.13q.67-.75 1-1.83l.04-.1h2.14l-.03.1a6.3 6.3 0 0 1-3.67 4.65q-1.43.65-3.2.65M93.3 207.23q-1.2 0-2.12-.45a3.4 3.4 0 0 1-1.96-3.24v-.02q0-1.06.52-1.83.53-.77 1.52-1.22 1.01-.44 2.41-.53l4.54-.26v1.59l-4.3.27q-1.26.07-1.94.59-.66.51-.66 1.38v.02q0 .9.66 1.42.69.51 1.79.52.97 0 1.74-.41.78-.42 1.23-1.12t.46-1.58v-3.67q0-1.1-.7-1.75-.7-.63-2-.64-1.17 0-1.9.5-.7.48-.9 1.3l-.02.09h-1.98l.01-.12q.1-1 .7-1.82.61-.8 1.66-1.27 1.04-.48 2.46-.48 1.46 0 2.5.5 1.05.5 1.63 1.4t.58 2.14V207h-2.04v-1.96h-.07a4 4 0 0 1-.95 1.16 4.4 4.4 0 0 1-2.87 1.03M101.78 207v-12.27h2.04v1.77h.07q.49-.9 1.41-1.44.94-.56 2.32-.56 2.03 0 3.14 1.22 1.12 1.2 1.12 3.32V207h-2.04v-7.57q0-1.53-.7-2.33t-2.12-.8q-.98 0-1.7.43t-1.12 1.21a4 4 0 0 0-.38 1.83V207zM119 207.23a4.8 4.8 0 0 1-4.56-3 8 8 0 0 1-.65-3.36v-.01a8 8 0 0 1 .66-3.36 5.2 5.2 0 0 1 1.82-2.22 4.7 4.7 0 0 1 2.7-.78 4.5 4.5 0 0 1 2.95 1.06q.6.51.96 1.2h.07v-6.8h2.03V207h-2.03v-2.05h-.07a4.2 4.2 0 0 1-3.88 2.28m.4-1.8q1.07 0 1.86-.56.81-.58 1.25-1.6.45-1.03.46-2.4v-.01q0-1.38-.46-2.4-.45-1.02-1.25-1.59a3 3 0 0 0-1.85-.57q-1.1 0-1.89.56t-1.22 1.57a6 6 0 0 0-.42 2.43v.01q0 1.4.42 2.44.45 1.02 1.22 1.57.8.55 1.89.55M127.82 207v-17.04h2.03V207zM137.6 207.23a5.14 5.14 0 0 1-4.97-2.98 8 8 0 0 1-.68-3.33v-.01q0-1.92.68-3.35a5.4 5.4 0 0 1 1.92-2.25q1.24-.81 2.91-.81t2.89.77 1.85 2.17q.66 1.38.66 3.22v.76h-9.88v-1.6h8.86l-1.03 1.49v-.8q0-1.43-.44-2.36a3 3 0 0 0-2.92-1.85q-.97 0-1.77.48-.77.49-1.22 1.42-.44.94-.44 2.3v.8q0 1.3.43 2.23a3.3 3.3 0 0 0 3.2 1.9q.77 0 1.38-.24.62-.23 1.04-.63.41-.41.58-.91l.04-.1h2.01l-.02.11a4.3 4.3 0 0 1-1.68 2.52q-.66.5-1.53.77-.86.29-1.88.28M149.18 207.23q-1.43 0-2.49-.44-1.04-.46-1.65-1.27a4 4 0 0 1-.74-1.9v-.08h2.04l.03.1q.2.89.9 1.4t1.93.5a4 4 0 0 0 1.43-.23q.6-.23.93-.63t.32-.97v-.02q0-.64-.42-1.05-.4-.4-1.47-.68l-1.95-.47a7 7 0 0 1-1.9-.72q-.78-.46-1.15-1.12a3 3 0 0 1-.36-1.53v-.02q0-1.05.58-1.86.56-.82 1.59-1.28a6 6 0 0 1 2.34-.46q1.34 0 2.34.47.99.45 1.56 1.26.6.81.67 1.83l.01.13h-1.95l-.01-.07a2 2 0 0 0-.81-1.4 3 3 0 0 0-1.8-.53q-.75 0-1.3.24-.54.23-.84.63t-.3.95v.01q0 .42.2.75t.63.58 1.11.4l1.93.48q1.23.3 1.97.74.74.45 1.08 1.07.34.64.34 1.52 0 1.08-.62 1.92-.61.81-1.71 1.29-1.1.46-2.46.46"/><path fill="#dbdbdb" d="M35.5 186.5h2.25a.75.75 0 0 1 .75.75v19.5a.75.75 0 0 1-.75.75H35.5v4.5H34v-4.5h-2.25a.75.75 0 0 1-.75-.75v-19.5a.75.75 0 0 1 .75-.75H34V182h1.5zm12 4.5h2.25a.75.75 0 0 1 .75.75v10.5a.75.75 0 0 1-.75.75H47.5v4.5H46V203h-2.25a.75.75 0 0 1-.75-.75v-10.5a.75.75 0 0 1 .75-.75H46v-4.5h1.5zm-15 15H37v-18h-4.5zm12-4.5H49v-9h-4.5z"/></g><g opacity=".8"><path fill="#fff" d="M73.73 257v-16.91h2.11v15.01H84v1.9zM86.06 257v-12.27h2.04V257zm1.02-14.4a1.3 1.3 0 0 1-1.3-1.3q0-.54.37-.92.39-.38.93-.38t.92.38q.38.38.38.92a1.3 1.3 0 0 1-1.3 1.3M90.8 257v-12.27h2.05v1.77h.07q.5-.9 1.42-1.44.94-.56 2.32-.56 2.03 0 3.14 1.22 1.11 1.2 1.11 3.32V257h-2.04v-7.57q0-1.53-.7-2.33t-2.12-.8q-.98 0-1.7.43t-1.12 1.21a4 4 0 0 0-.38 1.83V257zM108.47 257.23a5.14 5.14 0 0 1-4.97-2.98 8 8 0 0 1-.67-3.33v-.01q0-1.92.67-3.35a5.4 5.4 0 0 1 1.93-2.25q1.24-.81 2.91-.81t2.89.77a5 5 0 0 1 1.85 2.17q.66 1.38.66 3.22v.76h-9.88v-1.6h8.86l-1.03 1.49v-.8q0-1.43-.44-2.36a3 3 0 0 0-2.92-1.85q-.97 0-1.77.48-.77.49-1.22 1.42-.44.94-.44 2.3v.8q0 1.3.43 2.23a3.3 3.3 0 0 0 3.2 1.9q.77 0 1.39-.24.6-.23 1.03-.63.41-.41.58-.91l.04-.1h2.01l-.02.11a4.3 4.3 0 0 1-1.68 2.52q-.66.5-1.53.77-.86.29-1.88.28"/><path fill="#dbdbdb" d="m60.09 236.97-13.26 16.37-9.02-8.2-10.74 12.84-1.15-.96 11.74-14.04 9 8.18 12.26-15.13z"/></g><path fill="#dbdbdb" d="m37.73 136.32.65 1.02 3.34 5.26-1.26.8-2.7-4.23-2.52 4.22-1.29-.78 3.15-5.25zm22.4 1.09-3.91 6-1.26-.82 3.92-6zm-8.8 13.5-2.45 3.75-.64.98-.62-.98-2.39-3.76 1.27-.8 1.76 2.77 1.8-2.78zm-20.6-.02-3.6 6-1.28-.77 3.6-6zM26.5 146H28v1.5h-1.5zm4.5 0h-1.5v1.5H31zm1.5 0H34v1.5h-1.5zm4.5 0h-1.5v1.5H37zm1.5 0H40v1.5h-1.5zm4.51 0h-1.5v1.5H43zm1.5 0H46v1.5h-1.5zm4.5 0h-1.5v1.5H49zm1.5 0H52v1.5h-1.5zm4.5 0h-1.5v1.5H55zm1.5 0H58v1.5h-1.5zm4.5 0h-1.5v1.5H61z"/><path fill="#fff" d="M74.79 156v-1.86h5.05a4.7 4.7 0 0 0 2.88-.75q1-.76 1-2.22v-.02q0-.98-.46-1.64-.45-.66-1.37-.99a7 7 0 0 0-2.25-.33H74.8v-1.81h4.25q1.9 0 2.87-.72.99-.72.99-2.08v-.03q0-1.26-.85-1.93a3.7 3.7 0 0 0-2.37-.67h-4.9v-1.86h5.38q1.48 0 2.56.53 1.1.53 1.7 1.47t.61 2.22v.02a4 4 0 0 1-.4 1.68q-.39.78-1.08 1.33-.68.55-1.55.67v.07q1.2.15 2.08.7a3.9 3.9 0 0 1 1.8 3.45v.02q0 1.5-.68 2.56a4.4 4.4 0 0 1-1.96 1.63q-1.28.56-3.08.56zm-1.06 0v-16.91h2.11V156zM91.45 156.23q-1.2 0-2.12-.45a3.4 3.4 0 0 1-1.96-3.24v-.02q0-1.07.51-1.83.53-.77 1.53-1.22t2.41-.53l4.54-.26v1.59l-4.3.27q-1.26.07-1.94.59-.67.51-.67 1.38v.02q0 .9.67 1.42.69.51 1.78.52.97 0 1.75-.41.78-.42 1.23-1.12t.46-1.58v-3.67q0-1.1-.7-1.75-.7-.63-2.01-.64-1.16 0-1.89.5-.7.48-.9 1.3l-.02.09h-1.98v-.12q.11-1 .71-1.82.6-.8 1.65-1.27 1.05-.48 2.47-.48 1.45 0 2.5.5 1.06.5 1.63 1.4.58.9.58 2.14V156h-2.04v-1.96h-.07a4 4 0 0 1-.95 1.16 4.4 4.4 0 0 1-2.87 1.03M104.25 156.23q-1.43 0-2.48-.44-1.05-.45-1.66-1.27a4 4 0 0 1-.74-1.9v-.08h2.04l.03.1q.2.89.9 1.4t1.93.5q.84 0 1.43-.23.6-.23.93-.63t.33-.97v-.02q0-.64-.42-1.05-.42-.4-1.48-.68l-1.95-.47a7 7 0 0 1-1.9-.72q-.78-.46-1.14-1.12a3 3 0 0 1-.37-1.53v-.02q0-1.05.58-1.86.57-.82 1.59-1.28a6 6 0 0 1 2.34-.46q1.34 0 2.34.47.99.45 1.57 1.26t.66 1.83l.02.13h-1.96l-.01-.07a2 2 0 0 0-.81-1.4 3 3 0 0 0-1.8-.53q-.75 0-1.3.24-.54.23-.84.63t-.3.95v.01q.01.42.2.75.21.33.63.58.44.25 1.11.4l1.94.48q1.23.3 1.96.74.75.45 1.08 1.07.34.64.34 1.52 0 1.08-.62 1.92-.62.81-1.71 1.29-1.1.46-2.46.46M116.14 156.23a5.7 5.7 0 0 1-3.03-.77 5 5 0 0 1-1.94-2.2 8 8 0 0 1-.68-3.34v-.01q0-1.92.68-3.35a5.4 5.4 0 0 1 1.92-2.25q1.24-.81 2.92-.81t2.88.77a5 5 0 0 1 1.85 2.17q.66 1.38.66 3.22v.76h-9.88v-1.6h8.86l-1.03 1.49v-.8q0-1.43-.43-2.36a3 3 0 0 0-2.92-1.85q-.99 0-1.77.48-.77.49-1.22 1.42-.45.94-.45 2.3v.8q0 1.3.44 2.23a3.3 3.3 0 0 0 3.19 1.9q.78 0 1.39-.24.62-.23 1.03-.63.4-.41.59-.91l.03-.1h2.02l-.03.11a4.3 4.3 0 0 1-1.67 2.52q-.67.5-1.54.77-.86.29-1.87.28M123.5 156v-17.04h2.04V156zM128.36 156v-12.27h2.04V156zm1.02-14.4a1.3 1.3 0 0 1-1.3-1.3q0-.54.37-.92.39-.38.93-.38.56 0 .93.38t.37.92a1.3 1.3 0 0 1-1.3 1.3M133.11 156v-12.27h2.04v1.77h.07q.5-.9 1.42-1.44.94-.56 2.32-.56 2.03 0 3.14 1.22 1.11 1.2 1.11 3.32V156h-2.04v-7.57q0-1.53-.7-2.33t-2.12-.8q-.98 0-1.7.43t-1.11 1.21a4 4 0 0 0-.39 1.83V156zM150.78 156.23a5.14 5.14 0 0 1-4.97-2.98 8 8 0 0 1-.68-3.33v-.01q0-1.92.68-3.35a5.4 5.4 0 0 1 1.92-2.25q1.24-.81 2.92-.81 1.67 0 2.88.77 1.2.77 1.85 2.17.66 1.38.66 3.22v.76h-9.88v-1.6h8.86l-1.03 1.49v-.8q0-1.43-.44-2.36a3 3 0 0 0-2.91-1.85q-.99 0-1.77.48-.78.49-1.22 1.42-.45.94-.45 2.3v.8q0 1.3.44 2.23a3.3 3.3 0 0 0 3.18 1.9q.8 0 1.4-.24.62-.23 1.03-.63.4-.41.59-.91l.03-.1h2.02l-.03.11a4.3 4.3 0 0 1-1.67 2.52q-.67.5-1.54.77-.86.29-1.87.28"/><defs><linearGradient id="agbpckog3" x1="264.5" x2="264.5" y1="84" y2="191" gradientUnits="userSpaceOnUse"><stop stop-color="#089981"/><stop offset="1" stop-color="#03332b" stop-opacity="0"/></linearGradient><linearGradient id="bgbpckog3" x1="513.5" x2="513.5" y1="162.63" y2="286" gradientUnits="userSpaceOnUse"><stop stop-color="#f23645" stop-opacity="0"/><stop offset="1" stop-color="#f23645"/></linearGradient><linearGradient id="egbpckog3" x1="306" x2="306" y1="0" y2="67" gradientUnits="userSpaceOnUse"><stop/><stop offset="1" stop-opacity="0"/></linearGradient><linearGradient id="fgbpckog3" x1="918" x2="918" y1="340" y2="377" gradientUnits="userSpaceOnUse"><stop/><stop offset="1" stop-opacity="0"/></linearGradient><linearGradient id="ggbpckog3" x1="782" x2="782" y1="0" y2="50" gradientUnits="userSpaceOnUse"><stop/><stop offset="1" stop-opacity="0"/></linearGradient><linearGradient id="hgbpckog3" x1="144.57" x2="144.57" y1="-13.18" y2="326.82" gradientUnits="userSpaceOnUse"><stop stop-color="#121314"/><stop offset="1" stop-color="#212122"/></linearGradient><linearGradient id="igbpckog3" x1="13.45" x2="394.91" y1="-9.27" y2="342.45" gradientUnits="userSpaceOnUse"><stop stop-color="#fff"/><stop offset="1" stop-opacity="0"/></linearGradient></defs></svg>