<svg width="612" height="340" viewBox="0 0 612 340" fill="none" xmlns="http://www.w3.org/2000/svg"><g clip-path="url(#allhlqlwn)"><path fill="#000" d="M0 0h612v340H0z"/><g clip-path="url(#bllhlqlwn)"><path stroke="#242424" d="M593.5 0v340M612 303.5H0M523.5 0v340M612 255.5H0M454.5 0v340M612 208.5H0M384.5 0v340M612 161.5H0M315.5 0v340M612 114.5H0M246.5 0v340M612 67.5H0M176.5 0v340M504 19.5H0M107.5 0v340"/><path fill="url(#cllhlqlwn)" d="M0 0h612v67H0z"/><path transform="rotate(-180 612 340)" fill="url(#dllhlqlwn)" d="M612 340h612v37H612z"/><path transform="rotate(90 612 0)" fill="url(#ellhlqlwn)" d="M612 0h340v50H612z"/><path d="m291.9 47.67 56.7 13.69m0-13.69-56.7 13.69M291.9 61.36l56.7 13.68m0-13.68-56.7 13.68M291.9 75.04l56.7 13.69m0-13.69-56.7 13.69M291.9 88.73l56.7 13.68m0-13.68-56.7 13.68M291.9 102.42l56.7 13.68m0-13.68-56.7 13.68M291.9 116.1l56.7 13.69m0-13.69-56.7 13.69M291.9 129.78l56.7 13.7m0-13.7-56.7 13.7M291.9 143.47l56.7 13.69m0-13.69-56.7 13.69M291.9 157.16l56.7 13.68m0-13.68-56.7 13.68M291.9 170.84l56.7 13.69m0-13.69-56.7 13.69M291.9 184.53l56.7 13.69m0-13.7-56.7 13.7M291.9 198.22l56.7 13.68m0-13.68-56.7 13.68M291.9 211.9l56.7 13.69m0-13.69-56.7 13.69M291.9 225.59l56.7 13.68m0-13.68-56.7 13.68M291.9 239.27l56.7 13.69m0-13.69-56.7 13.69M291.9 252.96l56.7 13.68m0-13.68-56.7 13.68M291.9 266.64l56.7 13.69m0-13.69-56.7 13.69M291.9 280.33l56.7 13.69m0-13.7-56.7 13.7M291.9 294.01l56.7 13.7m0-13.7-56.7 13.7M409.2 71.13l56.7 13.69m0-13.69-56.7 13.69M409.2 84.82l56.7 13.69m0-13.7-56.7 13.7M409.2 98.5l56.7 13.7m0-13.7-56.7 13.7M409.2 112.19l56.7 13.69m0-13.69-56.7 13.69M169.2 71.13l56.7 13.69m0-13.69-56.7 13.69M169.2 84.82l56.7 13.69m0-13.7-56.7 13.7M169.2 98.5l56.7 13.7m0-13.7-56.7 13.7M169.2 112.19l56.7 13.69m0-13.69-56.7 13.69M525.69 195.66l56.7 13.68m0-13.68-56.7 13.68M525.69 209.34l56.7 13.69m0-13.69-56.7 13.69M525.69 223.03l56.7 13.68m0-13.68-56.7 13.68M525.69 236.71l56.7 13.69m0-13.69-56.7 13.69" stroke="#089981" stroke-width="1.96"/><path d="M406.27 67.22c0 .07-.02.23-.3.5-.26.27-.71.58-1.38.9a26 26 0 0 1-5.84 1.8c-5.05 1.04-12.07 1.7-19.85 1.7-7.78 0-14.8-.66-19.85-1.7a25.98 25.98 0 0 1-5.84-1.8 5.17 5.17 0 0 1-1.39-.9c-.27-.27-.3-.43-.3-.5 0-.06.03-.22.3-.5.27-.26.72-.58 1.39-.9a25.97 25.97 0 0 1 5.84-1.79c5.05-1.04 12.07-1.7 19.85-1.7 7.78 0 14.8.66 19.85 1.7 2.53.53 4.51 1.14 5.84 1.79.67.32 1.12.64 1.39.9.26.28.29.44.29.5Z" stroke="#DF484C" stroke-width="1.96"/><path d="M406.27 77c0 .06-.02.22-.3.5-.26.27-.71.58-1.38.9a25.99 25.99 0 0 1-5.84 1.79c-5.05 1.04-12.07 1.7-19.85 1.7-7.78 0-14.8-.66-19.85-1.7a25.97 25.97 0 0 1-5.84-1.79 5.17 5.17 0 0 1-1.39-.9c-.27-.28-.3-.44-.3-.5s.03-.23.3-.5.72-.58 1.39-.9a25.97 25.97 0 0 1 5.84-1.8c5.05-1.04 12.07-1.69 19.85-1.69 7.78 0 14.8.65 19.85 1.7 2.53.52 4.51 1.13 5.84 1.78.67.33 1.12.64 1.39.91.26.27.29.44.29.5Z" stroke="#DF484C" stroke-width="1.96"/><path d="M406.27 86.77c0 .07-.02.23-.3.5-.26.27-.71.58-1.38.9a25.99 25.99 0 0 1-5.84 1.8c-5.05 1.04-12.07 1.7-19.85 1.7-7.78 0-14.8-.66-19.85-1.7a25.97 25.97 0 0 1-5.84-1.8 5.17 5.17 0 0 1-1.39-.9c-.27-.27-.3-.43-.3-.5 0-.06.03-.22.3-.49s.72-.58 1.39-.91a25.97 25.97 0 0 1 5.84-1.79c5.05-1.04 12.07-1.7 19.85-1.7 7.78 0 14.8.66 19.85 1.7 2.53.53 4.51 1.14 5.84 1.79.67.33 1.12.64 1.39.91.26.27.29.43.29.5Z" stroke="#DF484C" stroke-width="1.96"/><path d="M406.27 96.55c0 .06-.02.22-.3.5-.26.27-.71.58-1.38.9a25.99 25.99 0 0 1-5.84 1.8c-5.05 1.03-12.07 1.69-19.85 1.69-7.78 0-14.8-.66-19.85-1.7a25.97 25.97 0 0 1-5.84-1.78 5.17 5.17 0 0 1-1.39-.91c-.27-.28-.3-.44-.3-.5s.03-.22.3-.5c.27-.27.72-.58 1.39-.9a25.97 25.97 0 0 1 5.84-1.79c5.05-1.04 12.07-1.7 19.85-1.7 7.78 0 14.8.66 19.85 1.7a26 26 0 0 1 5.84 1.79c.67.32 1.12.63 1.39.9.26.28.29.44.29.5Z" stroke="#DF484C" stroke-width="1.96"/><path d="M406.27 106.33c0 .06-.02.22-.3.5-.26.27-.71.58-1.38.9a25.92 25.92 0 0 1-5.84 1.79c-5.05 1.04-12.07 1.7-19.85 1.7-7.78 0-14.8-.66-19.85-1.7a25.9 25.9 0 0 1-5.84-1.79 5.17 5.17 0 0 1-1.39-.9c-.27-.28-.3-.44-.3-.5s.03-.23.3-.5.72-.58 1.39-.9a26 26 0 0 1 5.84-1.8c5.05-1.04 12.07-1.7 19.85-1.7 7.78 0 14.8.66 19.85 1.7 2.53.53 4.51 1.14 5.84 1.8.67.32 1.12.63 1.39.9.26.27.29.44.29.5Z" stroke="#DF484C" stroke-width="1.96"/><path d="M406.27 116.1c0 .06-.02.23-.3.5-.26.27-.71.58-1.38.9a26.02 26.02 0 0 1-5.84 1.8c-5.05 1.04-12.07 1.69-19.85 1.69-7.78 0-14.8-.65-19.85-1.7a26 26 0 0 1-5.84-1.78 5.16 5.16 0 0 1-1.39-.91c-.27-.27-.3-.44-.3-.5s.03-.22.3-.5c.27-.27.72-.58 1.39-.9a25.9 25.9 0 0 1 5.84-1.79c5.05-1.04 12.07-1.7 19.85-1.7 7.78 0 14.8.66 19.85 1.7 2.53.53 4.51 1.14 5.84 1.79.67.32 1.12.63 1.39.9.26.28.29.44.29.5Z" stroke="#DF484C" stroke-width="1.96"/><path d="M406.27 125.88c0 .06-.02.22-.3.5a5.2 5.2 0 0 1-1.38.9 26.02 26.02 0 0 1-5.84 1.79c-5.05 1.04-12.07 1.7-19.85 1.7-7.78 0-14.8-.66-19.85-1.7a26 26 0 0 1-5.84-1.79 5.19 5.19 0 0 1-1.39-.9c-.27-.28-.3-.44-.3-.5 0-.07.03-.23.3-.5s.72-.58 1.39-.9a26 26 0 0 1 5.84-1.8c5.05-1.04 12.07-1.7 19.85-1.7 7.78 0 14.8.66 19.85 1.7 2.53.53 4.51 1.14 5.84 1.8a5.2 5.2 0 0 1 1.39.9c.26.27.29.43.29.5Z" stroke="#DF484C" stroke-width="1.96"/><path d="M406.27 135.65c0 .06-.02.23-.3.5a5.2 5.2 0 0 1-1.38.9 25.92 25.92 0 0 1-5.84 1.8c-5.05 1.04-12.07 1.69-19.85 1.69-7.78 0-14.8-.65-19.85-1.7a25.9 25.9 0 0 1-5.84-1.78 5.19 5.19 0 0 1-1.39-.91c-.27-.27-.3-.44-.3-.5s.03-.22.3-.5c.27-.27.72-.58 1.39-.9a26 26 0 0 1 5.84-1.79c5.05-1.04 12.07-1.7 19.85-1.7 7.78 0 14.8.66 19.85 1.7 2.53.53 4.51 1.14 5.84 1.79.67.32 1.12.63 1.39.9.26.28.29.44.29.5Z" stroke="#DF484C" stroke-width="1.96"/><path d="M406.27 145.43c0 .06-.02.22-.3.5a5.2 5.2 0 0 1-1.38.9 26.02 26.02 0 0 1-5.84 1.79c-5.05 1.04-12.07 1.7-19.85 1.7-7.78 0-14.8-.66-19.85-1.7a26 26 0 0 1-5.84-1.79 5.19 5.19 0 0 1-1.39-.9c-.27-.28-.3-.44-.3-.5s.03-.23.3-.5.72-.58 1.39-.9a26 26 0 0 1 5.84-1.8c5.05-1.04 12.07-1.69 19.85-1.69 7.78 0 14.8.65 19.85 1.7 2.53.52 4.51 1.13 5.84 1.78a5.2 5.2 0 0 1 1.39.91c.26.27.29.44.29.5Z" stroke="#DF484C" stroke-width="1.96"/><path d="M406.27 155.2c0 .07-.02.23-.3.5a5.2 5.2 0 0 1-1.38.9 25.92 25.92 0 0 1-5.84 1.8c-5.05 1.04-12.07 1.7-19.85 1.7-7.78 0-14.8-.66-19.85-1.7a25.9 25.9 0 0 1-5.84-1.8 5.19 5.19 0 0 1-1.39-.9c-.27-.27-.3-.43-.3-.5 0-.06.03-.22.3-.49s.72-.59 1.39-.91a26 26 0 0 1 5.84-1.79c5.05-1.04 12.07-1.7 19.85-1.7 7.78 0 14.8.66 19.85 1.7 2.53.53 4.51 1.14 5.84 1.79.67.32 1.12.64 1.39.91.26.27.29.43.29.5ZM166.27 67.22c0 .07-.03.23-.3.5-.26.27-.71.58-1.38.9a26 26 0 0 1-5.84 1.8c-5.05 1.04-12.07 1.7-19.85 1.7-7.78 0-14.8-.66-19.85-1.7a25.98 25.98 0 0 1-5.84-1.8 5.17 5.17 0 0 1-1.39-.9c-.27-.27-.3-.43-.3-.5 0-.06.03-.22.3-.5.27-.26.72-.58 1.39-.9a25.97 25.97 0 0 1 5.84-1.79c5.05-1.04 12.07-1.7 19.85-1.7 7.78 0 14.8.66 19.85 1.7 2.53.53 4.51 1.14 5.84 1.79.67.32 1.12.64 1.39.9.27.28.29.44.29.5Z" stroke="#DF484C" stroke-width="1.96"/><path d="M166.27 77c0 .06-.03.22-.3.5-.26.27-.71.58-1.38.9a25.99 25.99 0 0 1-5.84 1.79c-5.05 1.04-12.07 1.7-19.85 1.7-7.78 0-14.8-.66-19.85-1.7a25.97 25.97 0 0 1-5.84-1.79 5.17 5.17 0 0 1-1.39-.9c-.27-.28-.3-.44-.3-.5s.03-.23.3-.5.72-.58 1.39-.9a25.97 25.97 0 0 1 5.84-1.8c5.05-1.04 12.07-1.69 19.85-1.69 7.78 0 14.8.65 19.85 1.7 2.53.52 4.51 1.13 5.84 1.78.67.33 1.12.64 1.39.91.27.27.29.44.29.5Z" stroke="#DF484C" stroke-width="1.96"/><path d="M166.27 86.77c0 .07-.03.23-.3.5-.26.27-.71.58-1.38.9a25.99 25.99 0 0 1-5.84 1.8c-5.05 1.04-12.07 1.7-19.85 1.7-7.78 0-14.8-.66-19.85-1.7a25.97 25.97 0 0 1-5.84-1.8 5.17 5.17 0 0 1-1.39-.9c-.27-.27-.3-.43-.3-.5 0-.06.03-.22.3-.49s.72-.58 1.39-.91a25.97 25.97 0 0 1 5.84-1.79c5.05-1.04 12.07-1.7 19.85-1.7 7.78 0 14.8.66 19.85 1.7 2.53.53 4.51 1.14 5.84 1.79.67.33 1.12.64 1.39.91.27.27.29.43.29.5Z" stroke="#DF484C" stroke-width="1.96"/><path d="M166.27 96.55c0 .06-.03.22-.3.5-.26.27-.71.58-1.38.9a25.99 25.99 0 0 1-5.84 1.8c-5.05 1.03-12.07 1.69-19.85 1.69-7.78 0-14.8-.66-19.85-1.7a25.97 25.97 0 0 1-5.84-1.78 5.17 5.17 0 0 1-1.39-.91c-.27-.28-.3-.44-.3-.5s.03-.22.3-.5c.27-.27.72-.58 1.39-.9a25.97 25.97 0 0 1 5.84-1.79c5.05-1.04 12.07-1.7 19.85-1.7 7.78 0 14.8.66 19.85 1.7a26 26 0 0 1 5.84 1.79c.67.32 1.12.63 1.39.9.27.28.29.44.29.5Z" stroke="#DF484C" stroke-width="1.96"/><path d="M166.27 106.33c0 .06-.03.22-.3.5-.26.27-.71.58-1.38.9a25.92 25.92 0 0 1-5.84 1.79c-5.05 1.04-12.07 1.7-19.85 1.7-7.78 0-14.8-.66-19.85-1.7a25.9 25.9 0 0 1-5.84-1.79 5.17 5.17 0 0 1-1.39-.9c-.27-.28-.3-.44-.3-.5s.03-.23.3-.5.72-.58 1.39-.9a26 26 0 0 1 5.84-1.8c5.05-1.04 12.07-1.7 19.85-1.7 7.78 0 14.8.66 19.85 1.7 2.53.53 4.51 1.14 5.84 1.8.67.32 1.12.63 1.39.9.27.27.29.44.29.5Z" stroke="#DF484C" stroke-width="1.96"/><path d="M166.27 116.1c0 .06-.03.23-.3.5-.26.27-.71.58-1.38.9a26.02 26.02 0 0 1-5.84 1.8c-5.05 1.04-12.07 1.69-19.85 1.69-7.78 0-14.8-.65-19.85-1.7a26 26 0 0 1-5.84-1.78 5.16 5.16 0 0 1-1.39-.91c-.27-.27-.3-.44-.3-.5s.03-.22.3-.5c.27-.27.72-.58 1.39-.9a25.9 25.9 0 0 1 5.84-1.79c5.05-1.04 12.07-1.7 19.85-1.7 7.78 0 14.8.66 19.85 1.7 2.53.53 4.51 1.14 5.84 1.79.67.32 1.12.63 1.39.9.27.28.29.44.29.5Z" stroke="#DF484C" stroke-width="1.96"/><path d="M166.27 125.88c0 .06-.03.22-.3.5a5.2 5.2 0 0 1-1.38.9 26.02 26.02 0 0 1-5.84 1.79c-5.05 1.04-12.07 1.7-19.85 1.7-7.78 0-14.8-.66-19.85-1.7a26 26 0 0 1-5.84-1.79 5.19 5.19 0 0 1-1.39-.9c-.27-.28-.3-.44-.3-.5 0-.07.03-.23.3-.5s.72-.58 1.39-.9a26 26 0 0 1 5.84-1.8c5.05-1.04 12.07-1.7 19.85-1.7 7.78 0 14.8.66 19.85 1.7 2.53.53 4.51 1.14 5.84 1.8a5.2 5.2 0 0 1 1.39.9c.27.27.29.43.29.5Z" stroke="#DF484C" stroke-width="1.96"/><path d="M166.27 135.65c0 .06-.03.23-.3.5a5.2 5.2 0 0 1-1.38.9 25.92 25.92 0 0 1-5.84 1.8c-5.05 1.04-12.07 1.69-19.85 1.69-7.78 0-14.8-.65-19.85-1.7a25.9 25.9 0 0 1-5.84-1.78 5.19 5.19 0 0 1-1.39-.91c-.27-.27-.3-.44-.3-.5s.03-.22.3-.5c.27-.27.72-.58 1.39-.9a26 26 0 0 1 5.84-1.79c5.05-1.04 12.07-1.7 19.85-1.7 7.78 0 14.8.66 19.85 1.7 2.53.53 4.51 1.14 5.84 1.79.67.32 1.12.63 1.39.9.27.28.29.44.29.5Z" stroke="#DF484C" stroke-width="1.96"/><path d="M166.27 145.43c0 .06-.03.22-.3.5a5.2 5.2 0 0 1-1.38.9 26.02 26.02 0 0 1-5.84 1.79c-5.05 1.04-12.07 1.7-19.85 1.7-7.78 0-14.8-.66-19.85-1.7a26 26 0 0 1-5.84-1.79 5.19 5.19 0 0 1-1.39-.9c-.27-.28-.3-.44-.3-.5s.03-.23.3-.5.72-.58 1.39-.9a26 26 0 0 1 5.84-1.8c5.05-1.04 12.07-1.69 19.85-1.69 7.78 0 14.8.65 19.85 1.7 2.53.52 4.51 1.13 5.84 1.78a5.2 5.2 0 0 1 1.39.91c.27.27.29.44.29.5Z" stroke="#DF484C" stroke-width="1.96"/><path d="M166.27 155.2c0 .07-.03.23-.3.5a5.2 5.2 0 0 1-1.38.9 25.92 25.92 0 0 1-5.84 1.8c-5.05 1.04-12.07 1.7-19.85 1.7-7.78 0-14.8-.66-19.85-1.7a25.9 25.9 0 0 1-5.84-1.8 5.19 5.19 0 0 1-1.39-.9c-.27-.27-.3-.43-.3-.5 0-.06.03-.22.3-.49s.72-.59 1.39-.91a26 26 0 0 1 5.84-1.79c5.05-1.04 12.07-1.7 19.85-1.7 7.78 0 14.8.66 19.85 1.7 2.53.53 4.51 1.14 5.84 1.79.67.32 1.12.64 1.39.91.27.27.29.43.29.5ZM522.71 115.5c0 .06-.02.22-.3.5-.26.27-.71.58-1.38.9a25.96 25.96 0 0 1-5.84 1.79c-5.05 1.04-12.07 1.7-19.85 1.7-7.78 0-14.8-.66-19.85-1.7a25.94 25.94 0 0 1-5.84-1.79 5.22 5.22 0 0 1-1.39-.9c-.26-.28-.29-.44-.29-.5s.03-.23.3-.5c.26-.27.71-.58 1.38-.9a26 26 0 0 1 5.84-1.8c5.05-1.04 12.07-1.69 19.85-1.69 7.78 0 14.8.65 19.85 1.7a26 26 0 0 1 5.84 1.78c.67.33 1.12.64 1.39.91.27.27.3.44.3.5Z" stroke="#DF484C" stroke-width="1.96"/><path d="M522.71 125.27c0 .06-.02.23-.3.5-.26.27-.71.58-1.38.9a25.95 25.95 0 0 1-5.84 1.8c-5.05 1.04-12.07 1.69-19.85 1.69-7.78 0-14.8-.65-19.85-1.7a25.93 25.93 0 0 1-5.84-1.78 5.17 5.17 0 0 1-1.39-.91c-.26-.27-.29-.44-.29-.5s.03-.22.3-.5c.26-.27.71-.58 1.38-.9a25.93 25.93 0 0 1 5.84-1.79c5.05-1.04 12.07-1.7 19.85-1.7 7.78 0 14.8.66 19.85 1.7 2.53.53 4.51 1.14 5.84 1.79.67.32 1.12.63 1.39.9.27.28.3.44.3.5ZM522.71 135.05c0 .06-.02.22-.3.5-.26.27-.71.58-1.38.9a26 26 0 0 1-5.84 1.79c-5.05 1.04-12.07 1.7-19.85 1.7-7.78 0-14.8-.66-19.85-1.7a26 26 0 0 1-5.84-1.79 5.19 5.19 0 0 1-1.39-.9c-.26-.28-.29-.44-.29-.5s.03-.23.3-.5c.26-.27.71-.58 1.38-.9a25.89 25.89 0 0 1 5.84-1.8c5.05-1.04 12.07-1.69 19.85-1.69 7.78 0 14.8.65 19.85 1.7a25.9 25.9 0 0 1 5.84 1.78c.67.33 1.12.64 1.39.91.27.27.3.44.3.5ZM522.71 144.82c0 .07-.02.23-.3.5-.26.27-.71.58-1.38.91a25.9 25.9 0 0 1-5.84 1.78c-5.05 1.05-12.07 1.7-19.85 1.7-7.78 0-14.8-.65-19.85-1.7a25.89 25.89 0 0 1-5.84-1.78 5.2 5.2 0 0 1-1.39-.91c-.26-.27-.29-.43-.29-.5 0-.06.03-.22.3-.49.26-.27.71-.58 1.38-.91a26 26 0 0 1 5.84-1.78c5.05-1.05 12.07-1.7 19.85-1.7 7.78 0 14.8.65 19.85 1.7a26 26 0 0 1 5.84 1.78c.67.33 1.12.64 1.39.91.27.27.3.43.3.5ZM522.71 154.6c0 .06-.02.22-.3.5-.26.27-.71.58-1.38.9a26 26 0 0 1-5.84 1.8c-5.05 1.03-12.07 1.69-19.85 1.69-7.78 0-14.8-.66-19.85-1.7a26 26 0 0 1-5.84-1.78 5.19 5.19 0 0 1-1.39-.91c-.26-.28-.29-.44-.29-.5s.03-.22.3-.5c.26-.27.71-.58 1.38-.9a25.89 25.89 0 0 1 5.84-1.79c5.05-1.04 12.07-1.7 19.85-1.7 7.78 0 14.8.66 19.85 1.7a25.9 25.9 0 0 1 5.84 1.79c.67.32 1.12.63 1.39.9.27.28.3.44.3.5Z" stroke="#DF484C" stroke-width="1.96"/><path d="M522.71 164.38c0 .06-.02.22-.3.5-.26.26-.71.58-1.38.9a26 26 0 0 1-5.84 1.79c-5.05 1.04-12.07 1.7-19.85 1.7-7.78 0-14.8-.66-19.85-1.7a26 26 0 0 1-5.84-1.79 5.22 5.22 0 0 1-1.39-.9c-.26-.28-.29-.44-.29-.5 0-.07.03-.23.3-.5.26-.27.71-.58 1.38-.9a26 26 0 0 1 5.84-1.8c5.05-1.04 12.07-1.7 19.85-1.7 7.78 0 14.8.66 19.85 1.7a26 26 0 0 1 5.84 1.8c.67.32 1.12.63 1.39.9.27.27.3.43.3.5Z" stroke="#DF484C" stroke-width="1.96"/><path d="M522.71 174.15c0 .06-.02.23-.3.5-.26.27-.71.58-1.38.9a25.95 25.95 0 0 1-5.84 1.8c-5.05 1.04-12.07 1.69-19.85 1.69-7.78 0-14.8-.65-19.85-1.7a25.93 25.93 0 0 1-5.84-1.78 5.17 5.17 0 0 1-1.39-.91c-.26-.27-.29-.44-.29-.5s.03-.22.3-.5c.26-.27.71-.58 1.38-.9a25.93 25.93 0 0 1 5.84-1.79c5.05-1.04 12.07-1.7 19.85-1.7 7.78 0 14.8.66 19.85 1.7 2.53.53 4.51 1.14 5.84 1.79.67.32 1.12.63 1.39.9.27.28.3.44.3.5Z" stroke="#DF484C" stroke-width="1.96"/><path d="M522.71 183.93c0 .06-.02.22-.3.5-.26.26-.71.58-1.38.9a26 26 0 0 1-5.84 1.79c-5.05 1.04-12.07 1.7-19.85 1.7-7.78 0-14.8-.66-19.85-1.7a26 26 0 0 1-5.84-1.79 5.22 5.22 0 0 1-1.39-.9c-.26-.28-.29-.44-.29-.5s.03-.23.3-.5c.26-.27.71-.58 1.38-.9a25.94 25.94 0 0 1 5.84-1.8c5.05-1.04 12.07-1.7 19.85-1.7 7.78 0 14.8.66 19.85 1.7 2.53.53 4.51 1.14 5.84 1.8.67.32 1.12.63 1.39.9.27.27.3.44.3.5Z" stroke="#DF484C" stroke-width="1.96"/><path d="M522.71 193.7c0 .06-.02.23-.3.5-.26.27-.71.58-1.38.9a25.9 25.9 0 0 1-5.84 1.8c-5.05 1.04-12.07 1.69-19.85 1.69-7.78 0-14.8-.65-19.85-1.7a25.89 25.89 0 0 1-5.84-1.78 5.2 5.2 0 0 1-1.39-.91c-.26-.27-.29-.44-.29-.5s.03-.22.3-.5c.26-.27.71-.58 1.38-.9a26 26 0 0 1 5.84-1.79c5.05-1.04 12.07-1.7 19.85-1.7 7.78 0 14.8.66 19.85 1.7a26 26 0 0 1 5.84 1.79c.67.32 1.12.63 1.39.9.27.28.3.44.3.5Z" stroke="#DF484C" stroke-width="1.96"/><path d="M522.71 203.48c0 .06-.02.22-.3.5-.26.27-.71.58-1.38.9a25.95 25.95 0 0 1-5.84 1.79c-5.05 1.04-12.07 1.7-19.85 1.7-7.78 0-14.8-.66-19.85-1.7a25.93 25.93 0 0 1-5.84-1.79 5.17 5.17 0 0 1-1.39-.9c-.26-.28-.29-.44-.29-.5s.03-.23.3-.5c.26-.27.71-.58 1.38-.9a26 26 0 0 1 5.84-1.8c5.05-1.04 12.07-1.69 19.85-1.69 7.78 0 14.8.65 19.85 1.7a26 26 0 0 1 5.84 1.78c.67.33 1.12.64 1.39.91.27.27.3.44.3.5Z" stroke="#DF484C" stroke-width="1.96"/><path d="M522.71 213.25c0 .06-.02.23-.3.5-.26.27-.71.58-1.38.9a25.9 25.9 0 0 1-5.84 1.8c-5.05 1.04-12.07 1.7-19.85 1.7-7.78 0-14.8-.66-19.85-1.7a25.89 25.89 0 0 1-5.84-1.8 5.2 5.2 0 0 1-1.39-.9c-.26-.27-.29-.44-.29-.5s.03-.22.3-.5c.26-.26.71-.58 1.38-.9a26 26 0 0 1 5.84-1.79c5.05-1.04 12.07-1.7 19.85-1.7 7.78 0 14.8.66 19.85 1.7a26 26 0 0 1 5.84 1.79c.67.32 1.12.64 1.39.9.27.28.3.44.3.5Z" stroke="#DF484C" stroke-width="1.96"/><path d="M522.71 223.03c0 .06-.02.22-.3.5-.26.27-.71.58-1.38.9a25.95 25.95 0 0 1-5.84 1.79c-5.05 1.04-12.07 1.7-19.85 1.7-7.78 0-14.8-.66-19.85-1.7a25.93 25.93 0 0 1-5.84-1.79 5.17 5.17 0 0 1-1.39-.9c-.26-.28-.29-.44-.29-.5s.03-.22.3-.5c.26-.27.71-.58 1.38-.9a26 26 0 0 1 5.84-1.8c5.05-1.04 12.07-1.69 19.85-1.69 7.78 0 14.8.66 19.85 1.7a26 26 0 0 1 5.84 1.78c.67.33 1.12.64 1.39.91.27.28.3.44.3.5Z" stroke="#DF484C" stroke-width="1.96"/><path d="M522.71 232.8c0 .06-.02.23-.3.5-.26.27-.71.58-1.38.9a26 26 0 0 1-5.84 1.8c-5.05 1.04-12.07 1.7-19.85 1.7-7.78 0-14.8-.66-19.85-1.7a26 26 0 0 1-5.84-1.8 5.19 5.19 0 0 1-1.39-.9c-.26-.27-.29-.44-.29-.5s.03-.22.3-.5c.26-.26.71-.58 1.38-.9a25.89 25.89 0 0 1 5.84-1.79c5.05-1.04 12.07-1.7 19.85-1.7 7.78 0 14.8.66 19.85 1.7a25.9 25.9 0 0 1 5.84 1.79c.67.32 1.12.64 1.39.9.27.28.3.44.3.5Z" stroke="#DF484C" stroke-width="1.96"/><path d="M522.71 242.58c0 .06-.02.22-.3.5-.26.27-.71.58-1.38.9a25.96 25.96 0 0 1-5.84 1.79c-5.05 1.04-12.07 1.7-19.85 1.7-7.78 0-14.8-.66-19.85-1.7a25.94 25.94 0 0 1-5.84-1.78 5.22 5.22 0 0 1-1.39-.92c-.26-.27-.29-.43-.29-.49s.03-.22.3-.5c.26-.27.71-.58 1.38-.9a26 26 0 0 1 5.84-1.79c5.05-1.04 12.07-1.7 19.85-1.7 7.78 0 14.8.66 19.85 1.7a26 26 0 0 1 5.84 1.79c.67.32 1.12.63 1.39.9.27.28.3.44.3.5Z" stroke="#DF484C" stroke-width="1.96"/><path d="M522.71 252.36c0 .06-.02.22-.3.49-.26.27-.71.59-1.38.91a25.95 25.95 0 0 1-5.84 1.79c-5.05 1.04-12.07 1.7-19.85 1.7-7.78 0-14.8-.66-19.85-1.7a25.93 25.93 0 0 1-5.84-1.79 5.17 5.17 0 0 1-1.39-.91c-.26-.27-.29-.43-.29-.5 0-.06.03-.22.3-.49.26-.27.71-.58 1.38-.9a25.93 25.93 0 0 1 5.84-1.8c5.05-1.04 12.07-1.7 19.85-1.7 7.78 0 14.8.66 19.85 1.7 2.53.53 4.51 1.14 5.84 1.8.67.32 1.12.63 1.39.9.27.27.3.43.3.5ZM290.72 126.6c0 .06-.03.22-.3.5-.26.27-.71.58-1.38.9a26 26 0 0 1-5.84 1.79c-5.05 1.04-12.07 1.7-19.85 1.7-7.78 0-14.8-.66-19.85-1.7a26.02 26.02 0 0 1-5.84-1.78 5.18 5.18 0 0 1-1.39-.92c-.27-.27-.3-.43-.3-.49s.03-.22.3-.5c.27-.27.72-.58 1.39-.9a25.92 25.92 0 0 1 5.84-1.79c5.05-1.05 12.07-1.7 19.85-1.7 7.78 0 14.8.66 19.85 1.7a25.9 25.9 0 0 1 5.84 1.78c.67.33 1.12.64 1.39.92.26.27.3.43.3.49Z" stroke="#DF484C" stroke-width="1.96"/><path d="M290.72 136.37c0 .07-.03.23-.3.5-.26.27-.71.58-1.38.9a25.96 25.96 0 0 1-5.84 1.8c-5.05 1.04-12.07 1.7-19.85 1.7-7.78 0-14.8-.66-19.85-1.7a25.97 25.97 0 0 1-5.84-1.8 5.2 5.2 0 0 1-1.39-.9c-.27-.27-.3-.43-.3-.5 0-.06.03-.22.3-.5a5.2 5.2 0 0 1 1.39-.9 26.02 26.02 0 0 1 5.84-1.79c5.05-1.04 12.07-1.7 19.85-1.7 7.78 0 14.8.66 19.85 1.7a26 26 0 0 1 5.84 1.79c.67.32 1.12.64 1.39.9.26.28.3.44.3.5Z" stroke="#DF484C" stroke-width="1.96"/><path d="M290.72 146.15c0 .06-.03.22-.3.5-.26.27-.71.58-1.38.9a25.9 25.9 0 0 1-5.84 1.79c-5.05 1.04-12.07 1.7-19.85 1.7-7.78 0-14.8-.66-19.85-1.7a25.92 25.92 0 0 1-5.84-1.78 5.2 5.2 0 0 1-1.39-.91c-.27-.28-.3-.44-.3-.5s.03-.22.3-.5c.27-.27.72-.58 1.39-.9a26.02 26.02 0 0 1 5.84-1.79c5.05-1.04 12.07-1.7 19.85-1.7 7.78 0 14.8.66 19.85 1.7a26 26 0 0 1 5.84 1.78c.67.33 1.12.64 1.39.92.26.27.3.43.3.49Z" stroke="#DF484C" stroke-width="1.96"/><path d="M290.72 155.93c0 .06-.03.22-.3.5-.26.26-.71.58-1.38.9a26 26 0 0 1-5.84 1.79c-5.05 1.04-12.07 1.7-19.85 1.7-7.78 0-14.8-.66-19.85-1.7a26.02 26.02 0 0 1-5.84-1.79 5.2 5.2 0 0 1-1.39-.9c-.27-.28-.3-.44-.3-.5s.03-.23.3-.5a5.2 5.2 0 0 1 1.39-.9 25.97 25.97 0 0 1 5.84-1.8c5.05-1.04 12.07-1.7 19.85-1.7 7.78 0 14.8.66 19.85 1.7 2.53.53 4.51 1.14 5.84 1.8.67.32 1.12.63 1.39.9.26.27.3.44.3.5Z" stroke="#DF484C" stroke-width="1.96"/><path d="M290.72 165.7c0 .06-.03.23-.3.5-.26.27-.71.58-1.38.9a25.9 25.9 0 0 1-5.84 1.8c-5.05 1.04-12.07 1.69-19.85 1.69-7.78 0-14.8-.65-19.85-1.7a25.92 25.92 0 0 1-5.84-1.78 5.2 5.2 0 0 1-1.39-.91c-.27-.27-.3-.44-.3-.5s.03-.22.3-.5c.27-.27.72-.58 1.39-.9a26.02 26.02 0 0 1 5.84-1.79c5.05-1.04 12.07-1.7 19.85-1.7 7.78 0 14.8.66 19.85 1.7a26 26 0 0 1 5.84 1.79c.67.32 1.12.63 1.39.9.26.28.3.44.3.5Z" stroke="#DF484C" stroke-width="1.96"/><path d="M290.72 175.48c0 .06-.03.22-.3.5-.26.27-.71.58-1.38.9a26 26 0 0 1-5.84 1.79c-5.05 1.04-12.07 1.7-19.85 1.7-7.78 0-14.8-.66-19.85-1.7a26.02 26.02 0 0 1-5.84-1.79 5.18 5.18 0 0 1-1.39-.9c-.27-.28-.3-.44-.3-.5s.03-.23.3-.5.72-.58 1.39-.9a25.92 25.92 0 0 1 5.84-1.8c5.05-1.04 12.07-1.69 19.85-1.69 7.78 0 14.8.65 19.85 1.7a25.9 25.9 0 0 1 5.84 1.78c.67.33 1.12.64 1.39.91.26.27.3.44.3.5Z" stroke="#DF484C" stroke-width="1.96"/><path d="M290.72 185.25c0 .06-.03.23-.3.5-.26.27-.71.58-1.38.9a26 26 0 0 1-5.84 1.8c-5.05 1.04-12.07 1.7-19.85 1.7-7.78 0-14.8-.66-19.85-1.7a26.02 26.02 0 0 1-5.84-1.8 5.2 5.2 0 0 1-1.39-.9c-.27-.27-.3-.44-.3-.5s.03-.22.3-.5a5.2 5.2 0 0 1 1.39-.9 26.02 26.02 0 0 1 5.84-1.79c5.05-1.04 12.07-1.7 19.85-1.7 7.78 0 14.8.66 19.85 1.7a26 26 0 0 1 5.84 1.79c.67.32 1.12.64 1.39.9.26.28.3.44.3.5Z" stroke="#DF484C" stroke-width="1.96"/><path d="M290.72 195.03c0 .06-.03.22-.3.5-.26.27-.71.58-1.38.9a25.95 25.95 0 0 1-5.84 1.79c-5.05 1.04-12.07 1.7-19.85 1.7-7.78 0-14.8-.66-19.85-1.7a25.97 25.97 0 0 1-5.84-1.79 5.16 5.16 0 0 1-1.39-.9c-.27-.28-.3-.44-.3-.5s.03-.23.3-.5.72-.58 1.39-.9a25.97 25.97 0 0 1 5.84-1.8c5.05-1.04 12.07-1.69 19.85-1.69 7.78 0 14.8.65 19.85 1.7 2.53.52 4.51 1.13 5.84 1.78.67.33 1.12.64 1.39.91.26.27.3.44.3.5Z" stroke="#DF484C" stroke-width="1.96"/><path d="M290.72 204.8c0 .06-.03.23-.3.5-.26.27-.71.58-1.38.9a26 26 0 0 1-5.84 1.8c-5.05 1.04-12.07 1.7-19.85 1.7-7.78 0-14.8-.66-19.85-1.7a26.02 26.02 0 0 1-5.84-1.8 5.18 5.18 0 0 1-1.39-.9c-.27-.27-.3-.44-.3-.5s.03-.22.3-.5a5.2 5.2 0 0 1 1.39-.9 25.97 25.97 0 0 1 5.84-1.79c5.05-1.04 12.07-1.7 19.85-1.7 7.78 0 14.8.66 19.85 1.7 2.53.53 4.51 1.14 5.84 1.79.67.32 1.12.63 1.39.9.26.28.3.44.3.5Z" stroke="#DF484C" stroke-width="1.96"/><path d="M290.72 214.58c0 .06-.03.22-.3.5-.26.27-.71.58-1.38.9a26 26 0 0 1-5.84 1.79c-5.05 1.04-12.07 1.7-19.85 1.7-7.78 0-14.8-.66-19.85-1.7a26.02 26.02 0 0 1-5.84-1.78 5.2 5.2 0 0 1-1.39-.92c-.27-.27-.3-.43-.3-.49s.03-.22.3-.5a5.2 5.2 0 0 1 1.39-.9 26.02 26.02 0 0 1 5.84-1.79c5.05-1.04 12.07-1.7 19.85-1.7 7.78 0 14.8.66 19.85 1.7a26 26 0 0 1 5.84 1.79c.67.32 1.12.63 1.39.9.26.28.3.44.3.5ZM290.72 224.35c0 .07-.03.23-.3.5-.26.27-.71.58-1.38.91a26 26 0 0 1-5.84 1.78c-5.05 1.05-12.07 1.7-19.85 1.7-7.78 0-14.8-.65-19.85-1.7a26.02 26.02 0 0 1-5.84-1.78 5.18 5.18 0 0 1-1.39-.91c-.27-.27-.3-.43-.3-.5 0-.06.03-.22.3-.49a5.2 5.2 0 0 1 1.39-.91 25.97 25.97 0 0 1 5.84-1.78c5.05-1.05 12.07-1.7 19.85-1.7 7.78 0 14.8.65 19.85 1.7 2.53.52 4.51 1.13 5.84 1.78.67.33 1.12.64 1.39.91.26.27.3.43.3.5ZM290.72 234.13c0 .06-.03.22-.3.5-.26.27-.71.58-1.38.9a26 26 0 0 1-5.84 1.8c-5.05 1.03-12.07 1.69-19.85 1.69-7.78 0-14.8-.66-19.85-1.7a26.02 26.02 0 0 1-5.84-1.78 5.2 5.2 0 0 1-1.39-.91c-.27-.28-.3-.44-.3-.5s.03-.22.3-.5a5.2 5.2 0 0 1 1.39-.9 26.02 26.02 0 0 1 5.84-1.79c5.05-1.04 12.07-1.7 19.85-1.7 7.78 0 14.8.66 19.85 1.7a26 26 0 0 1 5.84 1.79c.67.32 1.12.63 1.39.9.26.28.3.44.3.5ZM290.72 243.9c0 .07-.03.23-.3.5-.26.27-.71.59-1.38.91a25.95 25.95 0 0 1-5.84 1.79c-5.05 1.04-12.07 1.7-19.85 1.7-7.78 0-14.8-.66-19.85-1.7a25.97 25.97 0 0 1-5.84-1.79 5.16 5.16 0 0 1-1.39-.91c-.27-.27-.3-.43-.3-.5 0-.06.03-.22.3-.49s.72-.58 1.39-.91a26.02 26.02 0 0 1 5.84-1.78c5.05-1.05 12.07-1.7 19.85-1.7 7.78 0 14.8.65 19.85 1.7a26 26 0 0 1 5.84 1.78c.67.33 1.12.64 1.39.91.26.27.3.43.3.5Z" stroke="#DF484C" stroke-width="1.96"/><path d="M290.72 253.68c0 .06-.03.22-.3.5-.26.27-.71.58-1.38.9a26 26 0 0 1-5.84 1.79c-5.05 1.04-12.07 1.7-19.85 1.7-7.78 0-14.8-.66-19.85-1.7a26.02 26.02 0 0 1-5.84-1.78 5.18 5.18 0 0 1-1.39-.92c-.27-.27-.3-.43-.3-.49s.03-.22.3-.5a5.2 5.2 0 0 1 1.39-.9 25.92 25.92 0 0 1 5.84-1.79c5.05-1.05 12.07-1.7 19.85-1.7 7.78 0 14.8.66 19.85 1.7a25.9 25.9 0 0 1 5.84 1.78c.67.33 1.12.64 1.39.91.26.28.3.44.3.5Z" stroke="#DF484C" stroke-width="1.96"/><path d="M290.72 263.46c0 .06-.03.22-.3.5-.26.27-.71.58-1.38.9a25.96 25.96 0 0 1-5.84 1.79c-5.05 1.04-12.07 1.7-19.85 1.7-7.78 0-14.8-.66-19.85-1.7a25.97 25.97 0 0 1-5.84-1.79 5.2 5.2 0 0 1-1.39-.9c-.27-.28-.3-.44-.3-.5s.03-.23.3-.5a5.2 5.2 0 0 1 1.39-.9 26.02 26.02 0 0 1 5.84-1.8c5.05-1.04 12.07-1.7 19.85-1.7 7.78 0 14.8.66 19.85 1.7a26 26 0 0 1 5.84 1.8c.67.32 1.12.63 1.39.9.26.27.3.44.3.5Z" stroke="#DF484C" stroke-width="1.96"/><rect width="270" height="340" rx="20" fill="#000"/><rect width="270" height="340" rx="20" fill="#3F3F3F" fill-opacity=".4"/><g opacity=".8"><path d="M35.5 34v18H40V34h-4.5Zm-1.5-.75c0-.42.32-.75.75-.75h6c.42 0 .75.33.75.75v19.5a.74.74 0 0 1-.75.75h-6a.74.74 0 0 1-.75-.75v-19.5Z" fill="#D1D4DC"/><path d="M37 28h1.5v5.25H37V28ZM47.5 31v9H52v-9h-4.5Zm-1.5-.75c0-.41.32-.75.75-.75h6c.42 0 .75.34.75.75v10.5c0 .41-.32.75-.75.75h-6a.75.75 0 0 1-.75-.75v-10.5Z" fill="#D1D4DC"/><path d="M49 25h1.5v5.25H49V25Z" fill="#D1D4DC"/><path d="M73.73 53V36.09h2.11v7.31h9.28V36.1h2.11V53h-2.1v-7.7h-9.29V53h-2.1Zm21.44.23a5.14 5.14 0 0 1-4.97-2.98 7.65 7.65 0 0 1-.67-3.33v-.01c0-1.28.22-2.4.67-3.36a5.43 5.43 0 0 1 1.93-2.25c.82-.53 1.8-.8 2.91-.8 1.12 0 2.08.25 2.89.77a5 5 0 0 1 1.85 2.17c.44.92.66 2 .66 3.22v.76h-9.88v-1.6h8.86l-1.04 1.48v-.8c0-.95-.14-1.73-.43-2.35a3 3 0 0 0-2.92-1.85c-.65 0-1.24.16-1.77.48-.51.32-.92.8-1.22 1.42-.3.62-.44 1.4-.44 2.3v.8c0 .87.14 1.61.43 2.23a3.28 3.28 0 0 0 3.19 1.9c.52 0 .99-.08 1.4-.23.4-.16.75-.37 1.03-.64.27-.27.46-.58.58-.91l.04-.1h2.01l-.02.11a4.28 4.28 0 0 1-1.68 2.52 5.97 5.97 0 0 1-3.41 1.05Zm7.38-.23V40.73h2.04V53h-2.04Zm1.02-14.4a1.28 1.28 0 0 1-1.3-1.3c0-.36.12-.67.37-.92.26-.26.57-.38.93-.38.37 0 .68.13.93.38s.37.56.37.92a1.28 1.28 0 0 1-1.3 1.3ZM107.3 53V40.73h2.04v1.77h.07c.33-.6.8-1.07 1.42-1.44.62-.38 1.4-.56 2.32-.56 1.35 0 2.4.4 3.14 1.21.74.8 1.11 1.92 1.11 3.33V53h-2.04v-7.57c0-1.02-.23-1.8-.7-2.33s-1.17-.8-2.12-.8c-.65 0-1.22.15-1.7.43-.48.29-.85.69-1.11 1.21a4.04 4.04 0 0 0-.39 1.83V53h-2.04Zm12.78 0V35.96h2.04V53h-2.04Zm7.75 0-4.7-5.9 1.4-1.34 5.7 7.24h-2.4Zm-6.13-4.23-.01-2.64h.5l5.37-5.4h2.47l-5.81 5.77-.22.08-2.3 2.19Zm9.99 4.23V40.73h2.04V53h-2.04Zm1.02-14.4a1.28 1.28 0 0 1-1.3-1.3c0-.36.12-.67.37-.92.26-.26.57-.38.93-.38.36 0 .67.13.92.38s.38.56.38.92a1.28 1.28 0 0 1-1.3 1.3Zm3.73 14.4V40.73h2.04v1.77h.07c.33-.6.8-1.07 1.42-1.44.62-.38 1.4-.56 2.32-.56 1.35 0 2.4.4 3.14 1.21.74.8 1.11 1.92 1.11 3.33V53h-2.04v-7.57c0-1.02-.23-1.8-.7-2.33s-1.18-.8-2.12-.8c-.65 0-1.22.15-1.7.43-.48.29-.85.69-1.11 1.21a4.04 4.04 0 0 0-.4 1.83V53h-2.03ZM153 53l6.28-16.91h1.57v2.57h-.56L155.22 53h-2.21Zm2.87-4.84.7-1.8h7.53l.69 1.8h-8.92Zm9.55 4.84-5.06-14.34v-2.57h1L167.66 53h-2.22Zm8.06.23c-.96 0-1.78-.14-2.49-.44a3.9 3.9 0 0 1-2.4-3.16v-.09h2.05l.03.1c.13.59.43 1.06.9 1.4.47.33 1.11.5 1.93.5a4.1 4.1 0 0 0 1.43-.23c.4-.15.7-.36.93-.63.22-.27.32-.6.32-.97v-.01c0-.44-.14-.8-.42-1.06-.27-.27-.76-.5-1.47-.68l-1.95-.47a7.18 7.18 0 0 1-1.91-.72c-.5-.3-.89-.68-1.14-1.12a3.12 3.12 0 0 1-.36-1.53v-.01c0-.7.2-1.33.57-1.87.39-.54.92-.97 1.6-1.28a5.6 5.6 0 0 1 2.34-.46c.9 0 1.67.15 2.33.46.67.3 1.2.73 1.57 1.27.4.54.62 1.15.67 1.83l.01.13h-1.95l-.02-.07a2.09 2.09 0 0 0-.8-1.4 2.83 2.83 0 0 0-1.8-.52c-.5 0-.93.07-1.3.23-.36.15-.65.36-.84.63-.2.27-.3.58-.3.95v.01c0 .28.07.53.2.75.14.22.34.41.63.58.29.16.66.3 1.11.4l1.93.48c.82.2 1.48.44 1.97.73.5.3.85.66 1.08 1.08.23.42.34.93.34 1.51v.02c0 .72-.2 1.35-.62 1.9-.41.55-.98.98-1.71 1.3-.73.3-1.55.46-2.46.46Zm6.95-.23V35.96h2.04v6.7h.07c.33-.68.81-1.2 1.45-1.59a4.44 4.44 0 0 1 2.32-.57 4.06 4.06 0 0 1 3.82 2.33c.37.73.56 1.6.56 2.58V53h-2.04v-7.22a3.8 3.8 0 0 0-.79-2.57c-.51-.6-1.26-.9-2.22-.9-.64 0-1.2.14-1.67.44s-.85.7-1.11 1.23a4.12 4.12 0 0 0-.39 1.84V53h-2.04Zm12.9 0V40.73h2.04V53h-2.04Zm1.02-14.4a1.28 1.28 0 0 1-1.3-1.3c0-.36.12-.67.37-.92.26-.26.57-.38.93-.38.36 0 .67.13.92.38s.38.56.38.92a1.28 1.28 0 0 1-1.3 1.3Z" fill="#fff"/></g><g opacity=".8"><path d="m72.39 103 6.28-16.91h1.57v2.57h-.56L74.6 103H72.4Zm2.87-4.84.69-1.8h7.53l.7 1.8h-8.92ZM84.8 103l-5.06-14.34v-2.57h1L87.02 103h-2.21Zm3.78 0V90.73h2.04v2.03h.07c.2-.7.57-1.25 1.09-1.65.51-.41 1.13-.61 1.84-.61a4.92 4.92 0 0 1 .87.08v1.98a5.53 5.53 0 0 0-1.13-.12 2.8 2.8 0 0 0-1.44.36c-.42.24-.74.58-.96 1.02-.23.45-.34.98-.34 1.6V103h-2.04Zm7.56 0V90.73h2.04V103h-2.04Zm1.02-14.4a1.28 1.28 0 0 1-1.3-1.3c0-.36.13-.67.38-.92s.56-.38.92-.38c.37 0 .68.13.93.38s.37.56.37.92a1.28 1.28 0 0 1-1.3 1.3Zm7.27 14.63c-.8 0-1.5-.15-2.12-.45a3.44 3.44 0 0 1-1.96-3.24v-.02c0-.71.18-1.32.52-1.83.35-.51.86-.92 1.52-1.22.67-.3 1.48-.47 2.42-.52l4.53-.27v1.59l-4.3.27c-.83.05-1.48.24-1.93.58-.45.35-.67.81-.67 1.39v.02c0 .6.22 1.07.67 1.42.45.34 1.05.52 1.78.52.65 0 1.23-.14 1.75-.41.51-.28.92-.65 1.23-1.12.3-.47.45-1 .45-1.58v-3.67c0-.74-.23-1.32-.7-1.74-.47-.43-1.14-.65-2-.65-.78 0-1.4.16-1.9.5-.47.32-.77.75-.9 1.3l-.02.09h-1.98l.02-.12c.07-.67.3-1.28.7-1.82.4-.54.95-.96 1.65-1.27.7-.32 1.52-.48 2.46-.48.98 0 1.81.16 2.5.5.71.33 1.26.8 1.64 1.4.38.6.57 1.31.57 2.14V103h-2.04v-1.96h-.07a4 4 0 0 1-.95 1.16 4.41 4.41 0 0 1-2.87 1.03Z" fill="#fff"/><path fill-rule="evenodd" clip-rule="evenodd" d="M60.03 80.03 45.78 94.28l-.53.54-.52-.54-6.98-6.96-12.22 12.2-1.05-1.04 12.75-12.75.52-.54.53.54 6.97 6.96 13.73-13.71 1.05 1.05ZM25 103.5h1.5v1.5H25v-1.5Zm3-1.5h-1.5v1.5H28v1.5h1.5v-1.5H31v1.5h1.5v-1.5H34v1.5h1.5v-1.5H37v1.5h1.5v-1.5H40v1.5h1.5v-1.5H43v1.5h1.5v-1.5H46v1.5h1.5v-1.5H49v1.5h1.5v-1.5H52v1.5h1.5v-1.5H55v1.5h1.5v-1.5H58v1.5h1.5v-1.5H58V102h1.5v-1.5H58V99h1.5v-1.5H58V96h1.5v-1.5H58V93h1.5v-1.5H58V90h1.5v-1.5H58V87h1.5v-1.5H58V87h-1.5v1.5H55V90h-1.5v1.5H52V93h-1.5v1.5H49V96h-1.5v1.5H46V99h-1.5v-1.5H43V96h-1.5v-1.5H40V93h-1.5v-1.5H37V93h-1.5v1.5H34V96h-1.5v1.5H31V99h-1.5v1.5H28v1.5Zm1.5 0v1.5H28V102h1.5Zm1.5 0h-1.5v-1.5H31v1.5Zm1.5 0v1.5H31V102h1.5Zm0-1.5H31V99h1.5v1.5Zm1.5 0h-1.5v1.5H34v1.5h1.5V102H37v1.5h1.5V102H40v1.5h1.5V102H43v1.5h1.5V102H46v1.5h1.5V102H49v1.5h1.5V102H52v1.5h1.5V102H55v1.5h1.5V102H58v-1.5h-1.5V99H58v-1.5h-1.5V96H58v-1.5h-1.5V93H58v-1.5h-1.5V90H58v-1.5h-1.5V90H55v1.5h-1.5V93H52v1.5h-1.5V96H49v1.5h-1.5V99H46v1.5h-1.5V99H43v-1.5h-1.5V96H40v-1.5h-1.5V93H37v1.5h-1.5V96H34v1.5h-1.5V99H34v1.5Zm1.5 0v1.5H34v-1.5h1.5Zm0-1.5H34v-1.5h1.5V99Zm1.5 0h-1.5v1.5H37v1.5h1.5v-1.5H40v1.5h1.5v-1.5H43v1.5h1.5v-1.5H43V99h-1.5v-1.5H40V96h-1.5v-1.5H37V96h-1.5v1.5H37V99Zm1.5 0v1.5H37V99h1.5Zm0-1.5V96H37v1.5h1.5Zm0 0V99H40v1.5h1.5V99H40v-1.5h-1.5Zm9 3V99H49v1.5h-1.5Zm3 0v1.5H49v-1.5h1.5Zm0-1.5H49v-1.5h1.5V99Zm1.5 0h-1.5v1.5H52v1.5h1.5v-1.5H55v1.5h1.5v-1.5H55V99h1.5v-1.5H55V96h1.5v-1.5H55V93h1.5v-1.5H55V93h-1.5v1.5H52V96h-1.5v1.5H52V99Zm1.5 0H52v1.5h1.5V99Zm0-1.5H55V99h-1.5v-1.5Zm0-1.5H55v-1.5h-1.5V96Zm0 0v1.5H52V96h1.5Zm-6 4.5v1.5H46v-1.5h1.5Z" fill="#D1D4DC"/></g><g opacity=".8"><path d="M80.75 307.3a7.55 7.55 0 0 1-4.06-1.07 7.17 7.17 0 0 1-2.67-3.05 10.7 10.7 0 0 1-.94-4.64v-.01c0-1.78.31-3.33.94-4.63a7.1 7.1 0 0 1 6.73-4.11 7.4 7.4 0 0 1 3.2.67 6.26 6.26 0 0 1 3.68 4.69l.03.1h-2.14l-.07-.21a4.38 4.38 0 0 0-2.58-2.9 5.37 5.37 0 0 0-2.12-.41 5.07 5.07 0 0 0-4.82 3.2 8.77 8.77 0 0 0-.68 3.6c0 1.38.22 2.58.68 3.6a5.05 5.05 0 0 0 4.83 3.22c.78 0 1.49-.12 2.12-.38a4.34 4.34 0 0 0 1.6-1.13c.45-.5.78-1.11 1-1.83l.04-.1h2.14l-.03.1a6.26 6.26 0 0 1-3.67 4.65c-.95.43-2.02.64-3.2.64Zm14.08-.07a5.65 5.65 0 0 1-2.98-.77 5.33 5.33 0 0 1-2-2.21 7.57 7.57 0 0 1-.7-3.38v-.02c0-1.31.23-2.44.7-3.39a5.26 5.26 0 0 1 4.97-2.96 5.19 5.19 0 0 1 4.97 2.97c.48.94.72 2.07.72 3.38v.02a7.5 7.5 0 0 1-.72 3.39 5.27 5.27 0 0 1-4.96 2.97Zm.02-1.8a3.3 3.3 0 0 0 1.9-.54c.53-.36.94-.88 1.22-1.56.3-.68.45-1.5.45-2.46v-.02c0-.96-.15-1.78-.45-2.46-.28-.68-.7-1.2-1.24-1.55a3.36 3.36 0 0 0-1.9-.54c-.73 0-1.36.18-1.9.54a3.5 3.5 0 0 0-1.25 1.56c-.3.67-.44 1.49-.44 2.45v.02c0 .96.14 1.78.44 2.46.3.68.72 1.2 1.26 1.56.53.36 1.17.54 1.9.54Zm7.76 1.57v-17.04h2.04V307h-2.04Zm8.91.23a4.5 4.5 0 0 1-2.3-.55 3.63 3.63 0 0 1-1.45-1.57 5.51 5.51 0 0 1-.5-2.42v-7.96h2.05v7.57c0 1.02.23 1.8.69 2.33.46.53 1.17.8 2.12.8.5 0 .93-.08 1.32-.25.4-.16.74-.4 1.02-.7.28-.3.5-.67.65-1.09.15-.43.22-.9.22-1.43v-7.23h2.04V307h-2.04v-1.76h-.07a3.95 3.95 0 0 1-2.1 1.74c-.48.17-1.03.25-1.65.25Zm8.45-.23v-12.27h2.04v1.8h.07c.28-.61.7-1.1 1.3-1.47a3.74 3.74 0 0 1 2.06-.56c.56 0 1.06.09 1.5.28a3.44 3.44 0 0 1 1.92 2.04h.08c.23-.49.53-.9.91-1.25a4.17 4.17 0 0 1 2.92-1.07c.81 0 1.52.16 2.11.5.6.33 1.06.8 1.38 1.4.33.59.5 1.3.5 2.13V307h-2.04v-8c0-.57-.1-1.06-.3-1.46-.2-.4-.49-.71-.86-.92a2.81 2.81 0 0 0-1.4-.32 2.63 2.63 0 0 0-2.43 1.4c-.23.44-.35.94-.35 1.48V307h-2.03v-8.24c0-.5-.1-.93-.32-1.3-.21-.37-.5-.65-.88-.85-.37-.2-.82-.3-1.32-.3-.54 0-1.03.13-1.46.4-.42.27-.75.63-1 1.08a3.2 3.2 0 0 0-.36 1.53V307h-2.04Zm19.31 0v-12.27h2.04v1.77h.07c.33-.6.8-1.07 1.42-1.44.62-.38 1.4-.56 2.32-.56 1.35 0 2.4.4 3.14 1.21.74.81 1.11 1.92 1.11 3.33V307h-2.04v-7.57c0-1.02-.23-1.8-.7-2.33s-1.17-.8-2.12-.8c-.65 0-1.22.14-1.7.43s-.85.69-1.11 1.21a4.06 4.06 0 0 0-.39 1.83V307h-2.04Zm16.95.23c-.95 0-1.78-.14-2.48-.44s-1.25-.73-1.65-1.27a3.89 3.89 0 0 1-.74-1.9l-.01-.08h2.05l.02.1c.13.59.43 1.06.9 1.4.47.33 1.12.5 1.94.5a4.1 4.1 0 0 0 1.43-.23c.4-.15.7-.36.92-.63.22-.27.33-.6.33-.97v-.01c0-.44-.14-.8-.42-1.06-.28-.27-.77-.5-1.48-.68l-1.94-.47a7.17 7.17 0 0 1-1.91-.72c-.51-.3-.9-.68-1.14-1.12a3.12 3.12 0 0 1-.36-1.53v-.01c0-.7.19-1.33.57-1.87.38-.55.91-.97 1.6-1.28a5.6 5.6 0 0 1 2.34-.46c.89 0 1.67.15 2.33.46.66.31 1.19.73 1.57 1.27.39.54.61 1.15.67 1.83v.13h-1.95v-.07a2.09 2.09 0 0 0-.82-1.4 2.83 2.83 0 0 0-1.8-.53c-.5 0-.92.08-1.3.24-.36.15-.64.36-.84.63-.2.27-.29.58-.29.95v.01c0 .28.07.53.2.75.13.22.34.41.62.58.3.16.66.3 1.12.4l1.93.48c.82.2 1.48.44 1.97.73.49.3.85.66 1.08 1.08.22.42.34.93.34 1.51v.02c0 .72-.21 1.35-.63 1.9-.41.55-.98.98-1.7 1.3-.73.3-1.55.46-2.47.46Z" fill="#fff"/><path fill-rule="evenodd" clip-rule="evenodd" d="M40 286.5v21h7.5v-21H40Zm6 1.5h-4.5v18H46v-18Zm4.5 10.5v9H58v-9h-7.5Zm6 1.5H52v6h4.5v-6Zm-27-6H37v13.5h-7.5V294Zm1.5 1.5h4.5V306H31v-10.5Z" fill="#D1D4DC"/></g><g opacity=".8"><path d="M80.75 207.3a7.55 7.55 0 0 1-4.06-1.07 7.17 7.17 0 0 1-2.67-3.05 10.7 10.7 0 0 1-.94-4.64v-.01c0-1.78.31-3.33.94-4.63a7.1 7.1 0 0 1 6.73-4.12 7.4 7.4 0 0 1 3.2.69 6.26 6.26 0 0 1 3.68 4.69l.03.09h-2.14l-.07-.22a4.38 4.38 0 0 0-2.58-2.9 5.37 5.37 0 0 0-2.12-.4 5.07 5.07 0 0 0-4.82 3.2 8.77 8.77 0 0 0-.68 3.6c0 1.38.22 2.58.68 3.6a5.05 5.05 0 0 0 4.83 3.22c.78 0 1.49-.12 2.12-.38a4.34 4.34 0 0 0 1.6-1.13c.45-.5.78-1.11 1-1.83l.04-.1h2.14l-.03.1a6.26 6.26 0 0 1-3.67 4.65c-.95.43-2.02.65-3.2.65Zm12.55-.07c-.8 0-1.5-.15-2.12-.45a3.44 3.44 0 0 1-1.96-3.24v-.02c0-.71.17-1.32.52-1.83s.86-.92 1.52-1.22c.67-.3 1.48-.47 2.41-.53l4.54-.26v1.59l-4.3.27c-.84.05-1.48.24-1.94.59-.44.34-.66.8-.66 1.38v.02c0 .6.22 1.07.66 1.42.46.34 1.05.52 1.79.52.64 0 1.23-.14 1.74-.41.52-.28.93-.65 1.23-1.12.3-.47.46-1 .46-1.58v-3.67c0-.74-.24-1.32-.7-1.75-.47-.42-1.14-.64-2-.64-.78 0-1.41.16-1.9.5-.47.32-.77.75-.9 1.3l-.02.09h-1.98l.01-.12c.07-.67.3-1.28.7-1.82.41-.53.96-.96 1.66-1.27.7-.32 1.51-.48 2.46-.48.97 0 1.81.16 2.5.5.7.33 1.25.8 1.63 1.4.39.6.58 1.31.58 2.14V207h-2.04v-1.96h-.07a4 4 0 0 1-.95 1.16 4.42 4.42 0 0 1-2.87 1.03Zm8.48-.23v-12.27h2.04v1.77h.07c.32-.6.8-1.07 1.41-1.44.63-.38 1.4-.56 2.32-.56 1.36 0 2.4.4 3.14 1.22.75.8 1.12 1.9 1.12 3.32V207h-2.04v-7.57c0-1.02-.23-1.8-.7-2.33s-1.18-.8-2.13-.8c-.64 0-1.21.14-1.7.43-.47.29-.84.69-1.1 1.21a4.06 4.06 0 0 0-.4 1.83V207h-2.03Zm17.22.23a4.78 4.78 0 0 1-4.56-3 8.19 8.19 0 0 1-.65-3.36v-.01a8 8 0 0 1 .66-3.36 5.24 5.24 0 0 1 1.82-2.22 4.71 4.71 0 0 1 2.7-.78 4.48 4.48 0 0 1 2.95 1.06c.4.34.71.74.96 1.2h.07v-6.8h2.03V207h-2.03v-2.05h-.07a4.19 4.19 0 0 1-3.88 2.28Zm.4-1.8c.71 0 1.33-.19 1.86-.56.54-.39.96-.92 1.25-1.6.3-.68.46-1.49.46-2.4v-.01c0-.92-.15-1.72-.46-2.4-.3-.68-.72-1.21-1.25-1.59a3.08 3.08 0 0 0-1.85-.57c-.73 0-1.36.19-1.89.56-.52.37-.93.9-1.22 1.57a6.27 6.27 0 0 0-.42 2.43v.01c0 .94.14 1.75.42 2.44.3.68.7 1.2 1.22 1.57.53.37 1.16.55 1.89.55Zm8.41 1.57v-17.04h2.04V207h-2.03Zm9.78.23a5.14 5.14 0 0 1-4.97-2.98 7.66 7.66 0 0 1-.67-3.33v-.01c0-1.28.22-2.4.68-3.35a5.44 5.44 0 0 1 1.92-2.25c.82-.54 1.8-.81 2.91-.81 1.12 0 2.08.25 2.89.77.8.51 1.42 1.24 1.85 2.17.44.92.66 2 .66 3.22v.76h-9.88v-1.6h8.86l-1.03 1.49v-.8c0-.95-.15-1.74-.44-2.36a3 3 0 0 0-2.92-1.85c-.65 0-1.24.16-1.77.48-.51.32-.92.8-1.22 1.42-.3.62-.44 1.4-.44 2.3v.8c0 .87.14 1.61.43 2.23a3.29 3.29 0 0 0 3.2 1.9c.51 0 .98-.08 1.38-.24.42-.15.76-.36 1.04-.63.27-.27.47-.58.58-.91l.04-.1h2.01l-.02.11a4.29 4.29 0 0 1-1.68 2.52 5.96 5.96 0 0 1-3.41 1.05Zm11.59 0c-.96 0-1.78-.14-2.49-.44a3.9 3.9 0 0 1-2.39-3.16v-.09h2.04l.03.1c.13.59.43 1.06.9 1.4.47.33 1.11.5 1.93.5a4.1 4.1 0 0 0 1.43-.23c.4-.15.7-.36.93-.63.22-.27.32-.6.32-.97v-.02c0-.43-.14-.78-.42-1.05-.27-.27-.76-.5-1.47-.68l-1.95-.47a7.19 7.19 0 0 1-1.9-.72c-.52-.3-.9-.68-1.15-1.12a3.12 3.12 0 0 1-.36-1.53v-.02c0-.7.2-1.32.58-1.86.38-.55.9-.97 1.59-1.28a5.6 5.6 0 0 1 2.34-.46c.9 0 1.67.15 2.34.47.66.3 1.18.72 1.56 1.26.4.54.62 1.15.67 1.83l.01.13h-1.95l-.01-.07a2.09 2.09 0 0 0-.81-1.4 2.83 2.83 0 0 0-1.8-.53c-.5 0-.93.08-1.3.24-.36.15-.64.36-.84.63-.2.27-.3.59-.3.95v.01c0 .28.07.53.2.75.14.22.35.41.63.58.29.16.66.3 1.11.4l1.93.48c.82.2 1.48.44 1.97.74.5.3.85.65 1.08 1.07.23.43.34.93.34 1.52 0 .72-.2 1.36-.62 1.92-.41.54-.98.97-1.71 1.29-.73.3-1.55.46-2.46.46Z" fill="#fff"/><path d="M47.5 192.5v9H52v-9h-4.5Zm-.75-1.5h6a.75.75 0 0 1 .75.75v10.5a.75.75 0 0 1-.75.75h-6a.75.75 0 0 1-.75-.75v-10.5a.75.75 0 0 1 .75-.75Z" fill="#D1D4DC"/><path d="M49 186.5h1.5v5.25H49v-5.25Zm0 15.75h1.5v5.25H49v-5.25ZM35.5 188v18H40v-18h-4.5Zm-.75-1.5h6a.75.75 0 0 1 .75.75v19.5a.75.75 0 0 1-.75.75h-6a.75.75 0 0 1-.75-.75v-19.5a.75.75 0 0 1 .75-.75Z" fill="#D1D4DC"/><path d="M37 182h1.5v5.25H37V182Zm0 24.75h1.5V212H37v-5.25Z" fill="#D1D4DC"/></g><g opacity=".8"><path d="m75.66 251.3-.03-2.93h.3l7.21-8.28h2.65l-6.77 7.62-.26.17-3.1 3.41Zm-1.93 5.7v-16.91h2.11V257h-2.1Zm9.99 0-6.17-8.13 1.48-1.5 7.38 9.63h-2.7Zm7.33.23c-.8 0-1.5-.15-2.12-.45a3.44 3.44 0 0 1-1.96-3.24v-.02c0-.71.17-1.32.52-1.83s.86-.92 1.52-1.22c.67-.3 1.48-.47 2.41-.53l4.54-.26v1.59l-4.3.27c-.84.05-1.48.24-1.94.59-.44.34-.66.8-.66 1.38v.02c0 .6.22 1.07.66 1.42.46.34 1.05.52 1.79.52.64 0 1.23-.14 1.74-.41.52-.28.93-.65 1.23-1.12.3-.47.46-1 .46-1.58v-3.67c0-.74-.24-1.32-.7-1.75-.47-.42-1.14-.64-2-.64-.78 0-1.41.16-1.9.5-.47.32-.77.75-.9 1.3l-.02.09h-1.98l.01-.12c.07-.67.3-1.28.7-1.82.41-.53.96-.96 1.66-1.27.7-.32 1.51-.48 2.46-.48.97 0 1.81.16 2.5.5.7.33 1.25.8 1.63 1.4.39.6.58 1.31.58 2.14V257h-2.04v-1.96h-.07a4 4 0 0 1-.95 1.16 4.42 4.42 0 0 1-2.87 1.03Zm13.64 4.13c-1 0-1.88-.15-2.63-.43a4.64 4.64 0 0 1-1.8-1.18 3.43 3.43 0 0 1-.87-1.66l-.03-.08h2.06l.05.08c.18.45.55.8 1.1 1.07.56.26 1.26.4 2.1.4 1.08 0 1.91-.28 2.5-.83.61-.54.91-1.28.91-2.22v-1.74h-.07a4.09 4.09 0 0 1-2.28 1.94c-.5.18-1.04.27-1.62.27a4.82 4.82 0 0 1-4.55-2.97 7.81 7.81 0 0 1-.64-3.28v-.01c0-1.25.22-2.34.65-3.27a4.85 4.85 0 0 1 6.19-2.66 4.38 4.38 0 0 1 2.25 2h.06v-2.06h2.04v11.97a4.3 4.3 0 0 1-2.53 4.08c-.81.38-1.78.58-2.89.58Zm-.14-6.19c.72 0 1.33-.18 1.86-.55.53-.37.94-.9 1.24-1.56.3-.66.44-1.44.44-2.33v-.01c0-.88-.15-1.66-.44-2.32a3.62 3.62 0 0 0-1.24-1.55 3.14 3.14 0 0 0-1.86-.55 3.28 3.28 0 0 0-3.13 2.09 5.95 5.95 0 0 0-.42 2.33v.01c0 .9.14 1.7.42 2.36.3.66.7 1.18 1.24 1.54.53.36 1.17.54 1.9.54Zm8.28 1.83v-12.27h2.04V257h-2.04Zm1.02-14.4a1.28 1.28 0 0 1-1.3-1.3c0-.36.13-.67.38-.92s.56-.38.92-.38c.37 0 .68.13.93.38s.37.56.37.92a1.28 1.28 0 0 1-1.3 1.3Z" fill="#fff"/><path d="M38.5 233.5H43v18h7.5V238H55v19.5h1.5v-21H49V250h-4.5v-18H37v27h-4.5v-7.5H31v9h7.5v-27Z" fill="#D1D4DC"/></g><path d="M43.75 149a3.75 3.75 0 1 1 0-7.5 3.75 3.75 0 0 1 0 7.5Zm0-1.5a2.25 2.25 0 1 0 0-4.5 2.25 2.25 0 0 0 0 4.5Zm0 10.5a3.75 3.75 0 1 1 0-7.5 3.75 3.75 0 0 1 0 7.5Zm0-1.5a2.25 2.25 0 1 0 0-4.5 2.25 2.25 0 0 0 0 4.5Zm4.94-23.25 7.06 7.06 1.06-1.06-7.06-7.06-1.06 1.06Z" fill="#D1D4DC"/><path d="m49.75 140.31 7.06-7.06-1.06-1.06-7.06 7.06 1.06 1.06Zm-1.06 1.94 7.06 7.06 1.06-1.06-7.06-7.06-1.06 1.06Z" fill="#D1D4DC"/><path d="m49.75 149.31 7.06-7.06-1.06-1.06-7.06 7.06 1.06 1.06Zm-19.06 1.94 7.06 7.06 1.06-1.06-7.06-7.06-1.06 1.06Z" fill="#D1D4DC"/><path d="m31.75 158.31 7.06-7.06-1.06-1.06-7.06 7.06 1.06 1.06Zm-1.06-25.06 7.06 7.06 1.06-1.06-7.06-7.06-1.06 1.06Z" fill="#D1D4DC"/><path d="m31.75 140.31 7.06-7.06-1.06-1.06-7.06 7.06 1.06 1.06Zm-1.06 1.94 7.06 7.06 1.06-1.06-7.06-7.06-1.06 1.06Z" fill="#D1D4DC"/><path d="m31.75 149.31 7.06-7.06-1.06-1.06-7.06 7.06 1.06 1.06Z" fill="#D1D4DC"/><path d="M74.79 149.97v-1.88h4.49c1.2 0 2.15-.31 2.81-.94.66-.63 1-1.5 1-2.61v-.02c0-1.12-.34-2-1-2.62a3.95 3.95 0 0 0-2.81-.94h-4.5v-1.87h5.04c1.06 0 2 .23 2.8.68a4.9 4.9 0 0 1 1.92 1.9c.47.81.7 1.75.7 2.82v.03c0 1.07-.23 2.01-.7 2.83a4.96 4.96 0 0 1-1.91 1.92 5.6 5.6 0 0 1-2.81.7h-5.03ZM73.73 156v-16.91h2.11V156h-2.1Zm18.08.23a5.65 5.65 0 0 1-2.99-.77 5.33 5.33 0 0 1-1.99-2.21 7.57 7.57 0 0 1-.7-3.38v-.02c0-1.31.23-2.44.7-3.39a5.26 5.26 0 0 1 4.97-2.96 5.19 5.19 0 0 1 4.97 2.97c.47.94.71 2.06.71 3.38v.02a7.5 7.5 0 0 1-.71 3.39 5.27 5.27 0 0 1-4.96 2.97Zm.01-1.8c.74 0 1.37-.18 1.9-.54.53-.36.94-.88 1.23-1.56.3-.68.45-1.5.45-2.46v-.02c0-.96-.15-1.78-.45-2.46-.29-.68-.7-1.2-1.24-1.55a3.36 3.36 0 0 0-1.91-.54c-.72 0-1.35.18-1.89.54a3.5 3.5 0 0 0-1.25 1.56c-.3.67-.45 1.49-.45 2.45v.02c0 .96.15 1.78.45 2.46.3.68.71 1.2 1.25 1.56.54.36 1.18.54 1.91.54ZM99.6 156v-12.27h2.04V156H99.6Zm1.02-14.4a1.28 1.28 0 0 1-1.3-1.3c0-.36.12-.67.37-.92.26-.25.57-.38.93-.38.36 0 .67.13.92.38s.38.56.38.92a1.28 1.28 0 0 1-1.3 1.3Zm3.73 14.4v-12.27h2.04v1.77h.07c.33-.6.8-1.07 1.42-1.44.62-.38 1.4-.56 2.32-.56 1.35 0 2.4.4 3.14 1.22.74.8 1.11 1.9 1.11 3.32V156h-2.04v-7.57c0-1.02-.23-1.8-.7-2.33s-1.18-.8-2.12-.8c-.65 0-1.22.14-1.7.43s-.85.69-1.12 1.21a4.06 4.06 0 0 0-.38 1.83V156h-2.04Zm16.68.21c-1.15 0-2-.27-2.57-.8-.55-.53-.83-1.38-.83-2.55v-7.44h-1.83v-1.69h1.83v-3.3h2.11v3.3h2.4v1.69h-2.4v7.33c0 .68.14 1.14.42 1.39.28.24.7.36 1.27.36a5.51 5.51 0 0 0 .71-.05v1.67a5.88 5.88 0 0 1-1.11.1Zm11.7.02c-.8 0-1.5-.15-2.11-.45a3.44 3.44 0 0 1-1.96-3.24v-.02c0-.71.17-1.32.51-1.83.36-.51.86-.92 1.53-1.22.67-.3 1.47-.47 2.41-.53l4.54-.26v1.59l-4.3.27c-.84.05-1.48.24-1.94.59-.44.34-.67.8-.67 1.38v.02c0 .6.23 1.07.67 1.42.46.34 1.05.52 1.78.52.65 0 1.23-.14 1.75-.41.52-.28.93-.65 1.23-1.12.3-.47.46-1 .46-1.58v-3.67c0-.74-.24-1.32-.7-1.75-.47-.42-1.14-.64-2.01-.64-.77 0-1.4.16-1.89.5-.47.32-.77.75-.9 1.3l-.02.09h-1.98v-.12c.08-.67.31-1.28.71-1.82.4-.53.96-.96 1.65-1.27.7-.32 1.52-.48 2.47-.48.97 0 1.8.16 2.5.5.7.33 1.25.8 1.63 1.4.38.6.58 1.31.58 2.14V156h-2.04v-1.96h-.07a4 4 0 0 1-.95 1.16 4.41 4.41 0 0 1-2.87 1.03Zm8.49-.23v-12.27h2.03v1.77h.07c.33-.6.8-1.07 1.42-1.44.63-.38 1.4-.56 2.32-.56 1.35 0 2.4.4 3.14 1.22.75.8 1.12 1.9 1.12 3.32V156h-2.04v-7.57c0-1.02-.24-1.8-.7-2.33-.48-.53-1.18-.8-2.13-.8-.65 0-1.21.14-1.7.43-.47.29-.84.69-1.11 1.21a4.04 4.04 0 0 0-.39 1.83V156h-2.03Zm17.22.23a4.79 4.79 0 0 1-4.56-3 8.19 8.19 0 0 1-.65-3.36v-.01a8 8 0 0 1 .66-3.36 5.24 5.24 0 0 1 1.81-2.22 4.72 4.72 0 0 1 2.71-.78 4.48 4.48 0 0 1 2.94 1.06c.4.34.72.74.96 1.2h.07v-6.8h2.04V156h-2.04v-2.05h-.07a4.2 4.2 0 0 1-3.88 2.28Zm.4-1.8c.7 0 1.32-.19 1.86-.56.54-.39.95-.92 1.25-1.6.3-.68.46-1.49.46-2.4v-.01c0-.92-.16-1.72-.46-2.4-.3-.68-.72-1.21-1.25-1.59a3.09 3.09 0 0 0-1.85-.57c-.73 0-1.36.19-1.9.56-.51.37-.92.9-1.21 1.57a6.25 6.25 0 0 0-.42 2.43v.01c0 .94.14 1.75.42 2.44.29.68.7 1.2 1.22 1.57.53.37 1.16.55 1.88.55Zm13.98 1.57v-10.58h-1.76v-1.69h1.76v-1.48c0-.8.13-1.45.38-1.97s.63-.9 1.13-1.16c.5-.25 1.13-.38 1.9-.38a8.66 8.66 0 0 1 1.27.1v1.64a9.15 9.15 0 0 0-.9-.06c-.6 0-1.04.16-1.33.46-.28.3-.43.77-.43 1.39v1.46h2.58v1.69h-2.56V156h-2.04Zm6.71 0v-12.27h2.04V156h-2.04Zm1.02-14.4a1.28 1.28 0 0 1-1.3-1.3c0-.36.13-.67.38-.92s.56-.38.92-.38c.37 0 .68.13.93.38s.37.56.37.92a1.28 1.28 0 0 1-1.3 1.3Zm8.9 18.76c-1 0-1.88-.15-2.63-.43a4.64 4.64 0 0 1-1.8-1.18 3.43 3.43 0 0 1-.88-1.66l-.02-.08h2.06l.05.08c.18.44.55.8 1.1 1.07.56.26 1.26.4 2.1.4 1.08 0 1.91-.28 2.5-.83.6-.53.91-1.28.91-2.22v-1.74h-.07a4.1 4.1 0 0 1-2.29 1.94c-.49.18-1.03.27-1.61.27a4.82 4.82 0 0 1-4.55-2.97 7.82 7.82 0 0 1-.64-3.28v-.01c0-1.25.22-2.34.65-3.27a4.85 4.85 0 0 1 6.19-2.66 4.38 4.38 0 0 1 2.25 2h.06v-2.06h2.04v11.97a4.3 4.3 0 0 1-2.53 4.08c-.82.38-1.78.58-2.89.58Zm-.14-6.19c.71 0 1.33-.18 1.85-.55.53-.37.95-.9 1.25-1.56.3-.66.44-1.44.44-2.33v-.01c0-.88-.15-1.66-.44-2.32a3.62 3.62 0 0 0-1.25-1.55 3.14 3.14 0 0 0-1.85-.55 3.28 3.28 0 0 0-3.13 2.09 5.93 5.93 0 0 0-.42 2.33v.01a6 6 0 0 0 .42 2.36c.3.66.7 1.18 1.23 1.54.54.36 1.18.54 1.9.54Zm12.34 2.06a4.5 4.5 0 0 1-2.3-.55 3.63 3.63 0 0 1-1.45-1.57 5.53 5.53 0 0 1-.5-2.42v-7.96h2.04v7.57c0 1.02.23 1.8.7 2.33.46.53 1.16.8 2.12.8.49 0 .93-.08 1.32-.25.4-.16.74-.4 1.02-.7.28-.3.5-.67.64-1.09.15-.43.23-.9.23-1.43v-7.23h2.04V156h-2.04v-1.76h-.07a3.96 3.96 0 0 1-2.1 1.74c-.49.17-1.04.25-1.65.25Zm8.45-.23v-12.27h2.04v2.03h.07c.21-.7.57-1.25 1.09-1.66.52-.4 1.13-.6 1.84-.6a4.87 4.87 0 0 1 .87.08v1.98a5.41 5.41 0 0 0-1.13-.12 2.8 2.8 0 0 0-1.44.37c-.41.23-.73.57-.96 1.01-.23.45-.34.98-.34 1.6V156h-2.04Zm11.95.23a5.69 5.69 0 0 1-3.03-.77 5.14 5.14 0 0 1-1.94-2.2 7.66 7.66 0 0 1-.68-3.34v-.01c0-1.28.23-2.4.68-3.35a5.44 5.44 0 0 1 1.92-2.25c.83-.54 1.8-.81 2.92-.81 1.12 0 2.08.25 2.88.77.8.51 1.42 1.24 1.85 2.17.44.92.66 2 .66 3.22v.76h-9.88v-1.6h8.86l-1.03 1.49v-.8c0-.95-.15-1.74-.44-2.36a3 3 0 0 0-2.91-1.85c-.66 0-1.25.16-1.77.48-.52.32-.92.8-1.22 1.42-.3.62-.45 1.4-.45 2.3v.8c0 .87.15 1.61.44 2.23a3.29 3.29 0 0 0 3.19 1.9c.52 0 .98-.08 1.39-.24.41-.15.76-.36 1.03-.63s.47-.58.59-.91l.03-.1h2.02l-.03.11a4.31 4.31 0 0 1-1.67 2.52 5.97 5.97 0 0 1-3.41 1.05Z" fill="#fff"/></g></g><defs><linearGradient id="cllhlqlwn" x1="306" y1="0" x2="306" y2="67" gradientUnits="userSpaceOnUse"><stop/><stop offset="1" stop-opacity="0"/></linearGradient><linearGradient id="dllhlqlwn" x1="918" y1="340" x2="918" y2="377" gradientUnits="userSpaceOnUse"><stop/><stop offset="1" stop-opacity="0"/></linearGradient><linearGradient id="ellhlqlwn" x1="782" y1="0" x2="782" y2="50" gradientUnits="userSpaceOnUse"><stop/><stop offset="1" stop-opacity="0"/></linearGradient><clipPath id="allhlqlwn"><path fill="#fff" d="M0 0h612v340H0z"/></clipPath><clipPath id="bllhlqlwn"><path fill="#fff" d="M0 0h612v340H0z"/></clipPath></defs></svg>