<svg width="720" height="500" viewBox="0 0 720 500" fill="none" xmlns="http://www.w3.org/2000/svg"><rect width="720" height="500" fill="black"/><g clip-path="url(#a45rddpsu)"><g filter="url(#b45rddpsu)"><path d="M54.666 69.0963C54.666 59.9164 62.1078 52.4747 71.2876 52.4747H685.013V476.825H54.666V69.0963Z" fill="url(#c45rddpsu)"/><path d="M71.2881 53.4747H684.014V475.825H55.666V69.0967C55.666 60.4692 62.6605 53.4747 71.2881 53.4747Z" stroke="url(#d45rddpsu)" stroke-opacity="0.15" stroke-width="2"/></g><rect x="685.172" y="89.7354" width="1.26053" height="652.079" transform="rotate(90 685.172 89.7354)" fill="white" fill-opacity="0.05"/><path d="M685.172 152.762L685.172 154.023L33.093 154.023L33.093 152.762L685.172 152.762Z" fill="white" fill-opacity="0.05"/><rect x="685.172" y="215.788" width="1.26053" height="652.079" transform="rotate(90 685.172 215.788)" fill="white" fill-opacity="0.05"/><rect x="685.172" y="278.814" width="1.26053" height="652.079" transform="rotate(90 685.172 278.814)" fill="white" fill-opacity="0.05"/><rect x="685.172" y="341.841" width="1.26053" height="652.079" transform="rotate(90 685.172 341.841)" fill="white" fill-opacity="0.05"/><rect x="685.172" y="404.867" width="1.26053" height="652.079" transform="rotate(90 685.172 404.867)" fill="white" fill-opacity="0.05"/><rect x="685.172" y="467.893" width="1.26053" height="652.079" transform="rotate(90 685.172 467.893)" fill="white" fill-opacity="0.05"/><rect x="135.164" y="52.068" width="1.26053" height="424.757" fill="white" fill-opacity="0.05"/><rect x="213.686" y="52.068" width="1.26053" height="424.757" fill="white" fill-opacity="0.05"/><rect x="292.207" y="52.068" width="1.26053" height="424.757" fill="white" fill-opacity="0.05"/><rect x="370.729" y="52.068" width="1.26053" height="424.757" fill="white" fill-opacity="0.05"/><rect x="449.252" y="52.068" width="1.26053" height="424.757" fill="white" fill-opacity="0.05"/><rect x="527.773" y="52.068" width="1.26053" height="424.757" fill="white" fill-opacity="0.05"/><rect x="606.295" y="52.068" width="1.26053" height="424.757" fill="white" fill-opacity="0.05"/><rect x="581.777" y="52.068" width="104.301" height="424.757" fill="url(#e45rddpsu)"/></g><path d="M64.033 182.117L57.0977 167.284L57.0977 475.398H477.829V166.188L468.564 157.14L458.008 180.365L448.205 171.919L437.559 203.104L428.298 192.279L417.59 193.77L407.356 210.215L398.135 208.265L387.221 225.771L377.153 213.681L367.085 217.237L357.017 213.681L346.95 220.882L336.882 228.882L326.815 229.15L316.747 222.483L306.731 280.479L297.727 273.794L286.813 280.479L277.4 256.741L267.577 252.102L257.209 265.063L246.273 245.328L236.746 269.773H226.923L216.418 286.891L206.46 278.023L195.682 273.794L186.542 269.773L177.128 258.378L166.897 272.02L156.528 221.68L146.706 248.01L135.529 211.548L126.652 194.804L116.283 219.224L94.592 182.117L83.8145 174.477L74.8105 153.195L64.033 182.117Z" fill="url(#f45rddpsu)" fill-opacity="0.2"/><path d="M57.5705 167.758L63.9998 182.231L74.0435 151.318L84.0874 173.801L94.1312 182.231L116.411 218.765L126.455 193.36L136.499 210.803L146.542 247.805L156.586 220.639L166.63 272.161L176.674 258.11L186.718 269.351L196.761 273.566L206.806 277.876L216.849 287.244L226.893 269.351L236.937 270.288L246.981 246.4L257.024 265.135L267.068 252.021L277.112 256.704L287.156 281.06L297.2 273.566L307.243 281.06L317.287 222.326L327.331 229.351L337.375 229.07L347.419 220.639L357.462 213.05L367.506 216.797L377.55 213.05L387.594 225.791L397.638 207.993L407.682 209.398L417.726 193.941L427.769 192.068L437.813 201.904L447.857 170.522L457.901 179.89L467.944 156.002L477.988 165.856" stroke="#FF4D4D" stroke-width="2.13098" stroke-linecap="round" stroke-linejoin="round"/><rect x="686.078" y="391.745" width="85.2391" height="652.079" transform="rotate(90 686.078 391.745)" fill="url(#g45rddpsu)"/><rect x="57.1719" y="226.701" width="618.797" height="2.13098" fill="#089981"/><path d="M181.582 218.178C181.582 213.47 185.398 209.654 190.106 209.654H436.234C440.941 209.654 444.758 213.47 444.758 218.178V237.356C444.758 242.064 440.941 245.88 436.234 245.88H190.106C185.398 245.88 181.582 242.064 181.582 237.356V218.178Z" fill="#151517"/><path fill-rule="evenodd" d="M190.106 211.785C186.575 211.785 183.713 214.647 183.713 218.178V237.356C183.713 240.887 186.575 243.749 190.106 243.749H436.234C439.764 243.749 442.627 240.887 442.627 237.356V218.178C442.627 214.647 439.764 211.785 436.234 211.785H190.106ZM190.106 209.654C185.398 209.654 181.582 213.47 181.582 218.178V237.356C181.582 242.064 185.398 245.88 190.106 245.88H436.234C440.941 245.88 444.758 242.064 444.758 237.356V218.178C444.758 213.47 440.941 209.654 436.234 209.654H190.106Z" fill="#089981"/><path d="M203.985 236.139C202.9 236.139 201.953 235.953 201.145 235.582C200.336 235.21 199.695 234.701 199.222 234.052C198.756 233.404 198.486 232.665 198.413 231.835L198.402 231.703H200.292L200.303 231.813C200.362 232.33 200.547 232.785 200.861 233.178C201.181 233.572 201.607 233.881 202.139 234.107C202.671 234.326 203.286 234.435 203.985 234.435C204.677 234.435 205.282 234.315 205.799 234.074C206.323 233.834 206.731 233.502 207.022 233.08C207.314 232.65 207.46 232.159 207.46 231.605V231.583C207.46 230.615 207.135 229.872 206.487 229.354C205.846 228.83 204.972 228.568 203.865 228.568H201.888V226.907H203.778C204.404 226.907 204.958 226.791 205.438 226.558C205.919 226.317 206.294 225.993 206.564 225.585C206.833 225.17 206.968 224.7 206.968 224.176V224.154C206.968 223.6 206.851 223.131 206.618 222.745C206.385 222.359 206.043 222.064 205.591 221.86C205.147 221.656 204.604 221.554 203.963 221.554C203.344 221.554 202.791 221.659 202.303 221.871C201.822 222.075 201.436 222.369 201.145 222.756C200.853 223.142 200.678 223.6 200.62 224.132L200.609 224.241H198.719L198.73 224.132C198.818 223.273 199.087 222.522 199.539 221.881C199.997 221.241 200.602 220.742 201.352 220.385C202.11 220.028 202.98 219.849 203.963 219.849C204.969 219.849 205.843 220.024 206.585 220.374C207.336 220.716 207.915 221.193 208.323 221.805C208.738 222.41 208.945 223.112 208.945 223.914V223.935C208.945 224.584 208.803 225.159 208.519 225.662C208.235 226.164 207.842 226.583 207.339 226.918C206.837 227.253 206.258 227.49 205.602 227.628V227.672C206.753 227.767 207.682 228.156 208.388 228.841C209.102 229.518 209.459 230.418 209.459 231.54V231.561C209.459 232.435 209.222 233.218 208.749 233.91C208.275 234.602 207.627 235.149 206.804 235.549C205.981 235.943 205.041 236.139 203.985 236.139Z" fill="#089981"/><path d="M217.729 236.139C216.644 236.139 215.697 235.953 214.889 235.582C214.08 235.21 213.439 234.701 212.966 234.052C212.5 233.404 212.23 232.665 212.157 231.835L212.147 231.703H214.037L214.048 231.813C214.106 232.33 214.292 232.785 214.605 233.178C214.925 233.572 215.351 233.881 215.883 234.107C216.415 234.326 217.03 234.435 217.729 234.435C218.421 234.435 219.026 234.315 219.543 234.074C220.067 233.834 220.475 233.502 220.767 233.08C221.058 232.65 221.204 232.159 221.204 231.605V231.583C221.204 230.615 220.88 229.872 220.231 229.354C219.59 228.83 218.716 228.568 217.609 228.568H215.632V226.907H217.522C218.148 226.907 218.702 226.791 219.182 226.558C219.663 226.317 220.038 225.993 220.308 225.585C220.577 225.17 220.712 224.7 220.712 224.176V224.154C220.712 223.6 220.596 223.131 220.362 222.745C220.129 222.359 219.787 222.064 219.335 221.86C218.891 221.656 218.349 221.554 217.708 221.554C217.088 221.554 216.535 221.659 216.047 221.871C215.566 222.075 215.18 222.369 214.889 222.756C214.597 223.142 214.423 223.6 214.364 224.132L214.353 224.241H212.463L212.474 224.132C212.562 223.273 212.831 222.522 213.283 221.881C213.742 221.241 214.346 220.742 215.096 220.385C215.854 220.028 216.724 219.849 217.708 219.849C218.713 219.849 219.587 220.024 220.33 220.374C221.08 220.716 221.659 221.193 222.067 221.805C222.482 222.41 222.69 223.112 222.69 223.914V223.935C222.69 224.584 222.548 225.159 222.263 225.662C221.979 226.164 221.586 226.583 221.084 226.918C220.581 227.253 220.002 227.49 219.346 227.628V227.672C220.497 227.767 221.426 228.156 222.132 228.841C222.846 229.518 223.203 230.418 223.203 231.54V231.561C223.203 232.435 222.966 233.218 222.493 233.91C222.019 234.602 221.371 235.149 220.548 235.549C219.725 235.943 218.786 236.139 217.729 236.139Z" fill="#089981"/><path d="M259.226 229.828V228.059H270.611V229.828H259.226ZM264.034 234.657V223.24H265.804V234.657H264.034Z" fill="#089981"/><path d="M278.707 235.641C277.716 235.641 276.835 235.448 276.063 235.062C275.29 234.676 274.671 234.151 274.205 233.488C273.739 232.818 273.466 232.061 273.386 231.216L273.375 231.096H275.287L275.298 231.183C275.363 231.693 275.549 232.156 275.855 232.571C276.161 232.986 276.561 233.314 277.057 233.554C277.552 233.794 278.109 233.915 278.728 233.915C279.428 233.915 280.047 233.762 280.586 233.456C281.125 233.142 281.543 232.713 281.842 232.166C282.148 231.62 282.301 230.994 282.301 230.287V230.265C282.301 229.574 282.148 228.958 281.842 228.419C281.536 227.873 281.117 227.447 280.586 227.141C280.054 226.835 279.446 226.682 278.761 226.682C278.229 226.682 277.741 226.762 277.297 226.922C276.853 227.083 276.456 227.323 276.106 227.643C275.968 227.774 275.837 227.916 275.713 228.069C275.596 228.222 275.487 228.394 275.385 228.583H273.659L274.489 219.548H283.35V221.307H276.063L275.527 226.616H275.647C275.888 226.259 276.183 225.961 276.532 225.72C276.882 225.48 277.275 225.298 277.712 225.174C278.149 225.05 278.612 224.988 279.1 224.988C280.098 224.988 280.983 225.214 281.755 225.666C282.527 226.117 283.131 226.74 283.568 227.534C284.013 228.321 284.235 229.22 284.235 230.233V230.255C284.235 231.311 283.998 232.247 283.525 233.062C283.051 233.871 282.399 234.505 281.569 234.963C280.739 235.415 279.784 235.641 278.707 235.641Z" fill="#089981"/><path d="M292.385 235.575C291.271 235.575 290.284 235.382 289.424 234.996C288.565 234.61 287.887 234.078 287.392 233.401C286.904 232.716 286.66 231.933 286.66 231.052V231.03C286.66 230.382 286.802 229.781 287.086 229.228C287.37 228.674 287.767 228.204 288.277 227.818C288.787 227.425 289.377 227.152 290.047 226.999V226.955C289.188 226.686 288.503 226.241 287.993 225.622C287.483 225.003 287.228 224.278 287.228 223.448V223.426C287.228 222.632 287.45 221.926 287.895 221.307C288.339 220.68 288.951 220.189 289.73 219.832C290.51 219.467 291.395 219.285 292.385 219.285C293.383 219.285 294.268 219.467 295.04 219.832C295.819 220.189 296.431 220.68 296.875 221.307C297.32 221.926 297.542 222.632 297.542 223.426V223.448C297.542 224.278 297.287 225.003 296.777 225.622C296.275 226.241 295.59 226.686 294.723 226.955V226.999C295.401 227.152 295.991 227.425 296.493 227.818C297.003 228.204 297.4 228.674 297.684 229.228C297.968 229.781 298.11 230.382 298.11 231.03V231.052C298.11 231.933 297.866 232.716 297.378 233.401C296.89 234.078 296.213 234.61 295.346 234.996C294.486 235.382 293.5 235.575 292.385 235.575ZM292.385 233.86C293.113 233.86 293.754 233.736 294.308 233.488C294.869 233.234 295.309 232.888 295.63 232.451C295.95 232.006 296.111 231.5 296.111 230.932V230.91C296.111 230.335 295.95 229.825 295.63 229.38C295.317 228.936 294.88 228.587 294.319 228.332C293.758 228.077 293.113 227.949 292.385 227.949C291.657 227.949 291.012 228.077 290.451 228.332C289.89 228.587 289.45 228.936 289.129 229.38C288.816 229.825 288.66 230.335 288.66 230.91V230.932C288.66 231.5 288.82 232.006 289.14 232.451C289.461 232.888 289.901 233.234 290.462 233.488C291.023 233.736 291.664 233.86 292.385 233.86ZM292.385 226.223C293.019 226.223 293.576 226.114 294.057 225.895C294.537 225.669 294.913 225.36 295.182 224.967C295.452 224.573 295.586 224.122 295.586 223.612V223.59C295.586 223.08 295.452 222.629 295.182 222.235C294.913 221.842 294.537 221.536 294.057 221.318C293.576 221.092 293.019 220.979 292.385 220.979C291.751 220.979 291.194 221.092 290.714 221.318C290.233 221.536 289.858 221.842 289.588 222.235C289.319 222.629 289.184 223.08 289.184 223.59V223.612C289.184 224.122 289.319 224.573 289.588 224.967C289.858 225.36 290.233 225.669 290.714 225.895C291.194 226.114 291.751 226.223 292.385 226.223Z" fill="#089981"/><path d="M301.748 235.444C301.377 235.444 301.056 235.313 300.787 235.051C300.525 234.781 300.393 234.461 300.393 234.089C300.393 233.711 300.525 233.39 300.787 233.128C301.056 232.866 301.377 232.735 301.748 232.735C302.127 232.735 302.447 232.866 302.71 233.128C302.972 233.39 303.103 233.711 303.103 234.089C303.103 234.461 302.972 234.781 302.71 235.051C302.447 235.313 302.127 235.444 301.748 235.444Z" fill="#089981"/><path d="M311.111 235.641C309.931 235.641 308.919 235.309 308.074 234.647C307.236 233.976 306.592 233.03 306.14 231.806C305.689 230.575 305.463 229.118 305.463 227.436V227.414C305.463 225.731 305.689 224.278 306.14 223.055C306.592 221.831 307.236 220.888 308.074 220.225C308.919 219.555 309.931 219.22 311.111 219.22C312.291 219.22 313.304 219.555 314.149 220.225C314.993 220.888 315.642 221.831 316.093 223.055C316.545 224.278 316.771 225.731 316.771 227.414V227.436C316.771 229.118 316.545 230.575 316.093 231.806C315.642 233.03 314.993 233.976 314.149 234.647C313.304 235.309 312.291 235.641 311.111 235.641ZM311.111 233.925C311.883 233.925 312.543 233.663 313.089 233.139C313.642 232.607 314.065 231.857 314.356 230.888C314.647 229.919 314.793 228.769 314.793 227.436V227.414C314.793 226.081 314.647 224.934 314.356 223.972C314.065 223.004 313.642 222.257 313.089 221.733C312.543 221.208 311.883 220.946 311.111 220.946C310.339 220.946 309.68 221.208 309.134 221.733C308.588 222.257 308.169 223.004 307.877 223.972C307.586 224.934 307.44 226.081 307.44 227.414V227.436C307.44 228.769 307.586 229.919 307.877 230.888C308.169 231.857 308.588 232.607 309.134 233.139C309.68 233.663 310.339 233.925 311.111 233.925Z" fill="#089981"/><path d="M325.052 235.575C323.938 235.575 322.951 235.382 322.091 234.996C321.232 234.61 320.554 234.078 320.059 233.401C319.571 232.716 319.327 231.933 319.327 231.052V231.03C319.327 230.382 319.469 229.781 319.753 229.228C320.037 228.674 320.434 228.204 320.944 227.818C321.454 227.425 322.044 227.152 322.714 226.999V226.955C321.855 226.686 321.17 226.241 320.66 225.622C320.15 225.003 319.895 224.278 319.895 223.448V223.426C319.895 222.632 320.117 221.926 320.562 221.307C321.006 220.68 321.618 220.189 322.397 219.832C323.177 219.467 324.062 219.285 325.052 219.285C326.05 219.285 326.935 219.467 327.707 219.832C328.486 220.189 329.098 220.68 329.542 221.307C329.987 221.926 330.209 222.632 330.209 223.426V223.448C330.209 224.278 329.954 225.003 329.444 225.622C328.942 226.241 328.257 226.686 327.39 226.955V226.999C328.068 227.152 328.658 227.425 329.16 227.818C329.67 228.204 330.067 228.674 330.351 229.228C330.635 229.781 330.777 230.382 330.777 231.03V231.052C330.777 231.933 330.533 232.716 330.045 233.401C329.557 234.078 328.88 234.61 328.013 234.996C327.153 235.382 326.167 235.575 325.052 235.575ZM325.052 233.86C325.78 233.86 326.421 233.736 326.975 233.488C327.536 233.234 327.977 232.888 328.297 232.451C328.617 232.006 328.778 231.5 328.778 230.932V230.91C328.778 230.335 328.617 229.825 328.297 229.38C327.984 228.936 327.547 228.587 326.986 228.332C326.425 228.077 325.78 227.949 325.052 227.949C324.324 227.949 323.679 228.077 323.118 228.332C322.557 228.587 322.117 228.936 321.796 229.38C321.483 229.825 321.327 230.335 321.327 230.91V230.932C321.327 231.5 321.487 232.006 321.807 232.451C322.128 232.888 322.568 233.234 323.129 233.488C323.69 233.736 324.331 233.86 325.052 233.86ZM325.052 226.223C325.686 226.223 326.243 226.114 326.724 225.895C327.204 225.669 327.58 225.36 327.849 224.967C328.119 224.573 328.253 224.122 328.253 223.612V223.59C328.253 223.08 328.119 222.629 327.849 222.235C327.58 221.842 327.204 221.536 326.724 221.318C326.243 221.092 325.686 220.979 325.052 220.979C324.418 220.979 323.861 221.092 323.381 221.318C322.9 221.536 322.525 221.842 322.255 222.235C321.986 222.629 321.851 223.08 321.851 223.59V223.612C321.851 224.122 321.986 224.573 322.255 224.967C322.525 225.36 322.9 225.669 323.381 225.895C323.861 226.114 324.418 226.223 325.052 226.223Z" fill="#089981"/><path d="M344.363 235.139C343.233 235.139 342.259 234.93 341.441 234.512C340.623 234.094 339.993 233.51 339.549 232.761C339.106 232.011 338.884 231.144 338.884 230.157V221.298H340.992V229.989C340.992 230.644 341.123 231.219 341.385 231.712C341.653 232.199 342.037 232.583 342.537 232.864C343.042 233.138 343.651 233.276 344.363 233.276C345.081 233.276 345.689 233.138 346.189 232.864C346.688 232.583 347.069 232.199 347.331 231.712C347.594 231.219 347.725 230.644 347.725 229.989V221.298H349.832V230.157C349.832 231.144 349.61 232.011 349.167 232.761C348.73 233.51 348.102 234.094 347.285 234.512C346.473 234.93 345.499 235.139 344.363 235.139Z" fill="#089981"/><path d="M358.123 235.139C357.105 235.139 356.219 234.977 355.463 234.652C354.708 234.328 354.112 233.881 353.675 233.313C353.238 232.739 352.988 232.071 352.926 231.309L352.916 231.197H354.986L354.995 231.29C355.039 231.702 355.198 232.058 355.473 232.358C355.754 232.658 356.128 232.892 356.597 233.06C357.071 233.223 357.611 233.304 358.217 233.304C358.791 233.304 359.297 233.216 359.734 233.042C360.177 232.86 360.524 232.611 360.773 232.292C361.029 231.974 361.157 231.609 361.157 231.197V231.187C361.157 230.663 360.961 230.232 360.567 229.895C360.174 229.552 359.531 229.283 358.638 229.09L357.158 228.781C355.791 228.481 354.795 228.013 354.171 227.376C353.547 226.739 353.235 225.924 353.235 224.932V224.922C353.241 224.142 353.45 223.455 353.862 222.862C354.28 222.269 354.858 221.807 355.595 221.476C356.331 221.139 357.177 220.971 358.132 220.971C359.088 220.971 359.921 221.136 360.633 221.467C361.351 221.791 361.916 222.235 362.328 222.797C362.746 223.359 362.98 223.992 363.03 224.698L363.039 224.829H360.989L360.97 224.707C360.914 224.332 360.761 224.005 360.511 223.724C360.268 223.437 359.94 223.212 359.528 223.049C359.122 222.881 358.647 222.8 358.104 222.806C357.58 222.806 357.112 222.887 356.7 223.049C356.288 223.206 355.96 223.433 355.716 223.733C355.479 224.027 355.36 224.385 355.36 224.81V224.819C355.36 225.325 355.551 225.746 355.932 226.084C356.319 226.414 356.946 226.67 357.814 226.852L359.294 227.179C360.236 227.379 361.001 227.644 361.588 227.975C362.175 228.306 362.602 228.715 362.871 229.202C363.146 229.683 363.283 230.26 363.283 230.934V230.944C363.283 231.799 363.071 232.542 362.646 233.173C362.228 233.797 361.632 234.281 360.858 234.624C360.09 234.968 359.178 235.139 358.123 235.139Z" fill="#089981"/><path d="M366.386 234.811V221.298H371.265C372.601 221.298 373.744 221.564 374.693 222.094C375.642 222.625 376.366 223.39 376.865 224.389C377.371 225.388 377.624 226.596 377.624 228.013V228.031C377.624 229.461 377.371 230.682 376.865 231.693C376.366 232.704 375.642 233.479 374.693 234.015C373.75 234.546 372.607 234.811 371.265 234.811H366.386ZM368.484 232.995H371.031C371.974 232.995 372.776 232.801 373.438 232.414C374.1 232.027 374.605 231.465 374.955 230.728C375.304 229.992 375.479 229.102 375.479 228.06V228.041C375.479 227.004 375.301 226.118 374.945 225.381C374.596 224.645 374.087 224.083 373.419 223.696C372.757 223.309 371.961 223.115 371.031 223.115H368.484V232.995Z" fill="#089981"/><path d="M427.711 221.607C427.278 221.174 426.846 220.741 426.413 220.309L419.72 227.002L413.026 220.309C412.594 220.741 412.161 221.174 411.729 221.607L418.422 228.3L411.729 234.993C412.161 235.425 412.594 235.858 413.026 236.291L419.72 229.598L426.413 236.291C426.846 235.858 427.278 235.426 427.711 234.993L421.018 228.3L427.711 221.607Z" fill="#089981"/><rect x="394.68" y="211.784" width="2.13098" height="31.9646" fill="#082621"/><rect x="239.119" y="211.784" width="2.13098" height="31.9646" fill="#082621"/><circle cx="514.926" cy="226.918" r="5.86019" fill="#141516" stroke="#2962FF" stroke-width="2.13098"/><path d="M579.01 210.72H671.707C674.061 210.72 675.969 212.628 675.969 214.981V241.619C675.969 243.973 674.061 245.881 671.707 245.881H579.01V210.72Z" fill="url(#h45rddpsu)"/><path d="M592.792 235.819V234.445L598.342 228.585C599.051 227.831 599.594 227.211 599.971 226.723C600.355 226.236 600.621 225.796 600.769 225.405C600.916 225.014 600.99 224.593 600.99 224.142V224.12C600.99 223.566 600.865 223.075 600.614 222.646C600.362 222.218 600.012 221.882 599.561 221.638C599.118 221.387 598.597 221.262 597.999 221.262C597.342 221.262 596.758 221.398 596.248 221.671C595.746 221.945 595.347 222.314 595.052 222.779C594.764 223.245 594.62 223.776 594.62 224.375V224.419L592.703 224.408L592.692 224.364C592.692 223.433 592.925 222.602 593.39 221.871C593.863 221.14 594.502 220.567 595.307 220.154C596.119 219.733 597.024 219.522 598.021 219.522C598.974 219.522 599.827 219.718 600.58 220.109C601.334 220.501 601.924 221.033 602.353 221.705C602.789 222.377 603.007 223.134 603.007 223.976V223.998C603.007 224.596 602.896 225.172 602.674 225.726C602.46 226.273 602.083 226.89 601.544 227.576C601.012 228.256 600.259 229.098 599.284 230.102L594.985 234.512L595.55 233.393V234.512L594.997 234.035H603.272V235.819H592.792ZM611.692 236.129C610.954 236.129 610.226 235.989 609.51 235.708C608.801 235.428 608.151 234.977 607.56 234.357C606.976 233.736 606.511 232.916 606.164 231.897C605.817 230.871 605.643 229.611 605.643 228.119V228.097C605.643 226.295 605.887 224.755 606.374 223.477C606.862 222.192 607.567 221.214 608.491 220.541C609.414 219.862 610.525 219.522 611.825 219.522C612.726 219.522 613.539 219.685 614.263 220.01C614.986 220.335 615.592 220.789 616.08 221.372C616.567 221.956 616.899 222.639 617.077 223.422L617.11 223.566H615.094L615.049 223.444C614.887 223.001 614.654 222.621 614.351 222.303C614.056 221.978 613.694 221.731 613.266 221.561C612.837 221.383 612.35 221.295 611.803 221.295C610.821 221.295 610.023 221.583 609.41 222.159C608.804 222.728 608.354 223.485 608.058 224.43C607.77 225.368 607.608 226.395 607.571 227.51C607.564 227.599 607.56 227.684 607.56 227.765C607.56 227.846 607.56 227.927 607.56 228.009L608.036 230.645C608.036 231.332 608.195 231.956 608.513 232.518C608.838 233.079 609.273 233.526 609.82 233.858C610.374 234.191 610.991 234.357 611.67 234.357C612.35 234.357 612.963 234.194 613.509 233.869C614.063 233.544 614.499 233.109 614.817 232.562C615.142 232.008 615.304 231.391 615.304 230.712V230.69C615.304 229.988 615.149 229.368 614.839 228.828C614.536 228.282 614.111 227.857 613.565 227.554C613.025 227.244 612.405 227.089 611.703 227.089C611.009 227.089 610.385 227.24 609.831 227.543C609.277 227.846 608.838 228.267 608.513 228.806C608.195 229.338 608.036 229.947 608.036 230.634V230.645H607.372V227.876H607.671C607.878 227.41 608.188 226.989 608.601 226.613C609.015 226.229 609.51 225.922 610.086 225.693C610.669 225.457 611.323 225.339 612.047 225.339C613.059 225.339 613.96 225.571 614.75 226.037C615.548 226.494 616.176 227.122 616.634 227.92C617.099 228.718 617.331 229.626 617.331 230.645V230.667C617.331 231.724 617.084 232.662 616.589 233.482C616.102 234.301 615.433 234.948 614.584 235.42C613.742 235.893 612.778 236.129 611.692 236.129ZM625.873 236.129C625.135 236.129 624.407 235.989 623.691 235.708C622.982 235.428 622.332 234.977 621.741 234.357C621.157 233.736 620.692 232.916 620.345 231.897C619.998 230.871 619.824 229.611 619.824 228.119V228.097C619.824 226.295 620.068 224.755 620.555 223.477C621.043 222.192 621.748 221.214 622.671 220.541C623.595 219.862 624.706 219.522 626.006 219.522C626.907 219.522 627.72 219.685 628.444 220.01C629.167 220.335 629.773 220.789 630.26 221.372C630.748 221.956 631.08 222.639 631.258 223.422L631.291 223.566H629.274L629.23 223.444C629.068 223.001 628.835 222.621 628.532 222.303C628.237 221.978 627.875 221.731 627.446 221.561C627.018 221.383 626.531 221.295 625.984 221.295C625.002 221.295 624.204 221.583 623.591 222.159C622.985 222.728 622.535 223.485 622.239 224.43C621.951 225.368 621.789 226.395 621.752 227.51C621.745 227.599 621.741 227.684 621.741 227.765C621.741 227.846 621.741 227.927 621.741 228.009L622.217 230.645C622.217 231.332 622.376 231.956 622.694 232.518C623.019 233.079 623.454 233.526 624.001 233.858C624.555 234.191 625.172 234.357 625.851 234.357C626.531 234.357 627.144 234.194 627.69 233.869C628.244 233.544 628.68 233.109 628.997 232.562C629.322 232.008 629.485 231.391 629.485 230.712V230.69C629.485 229.988 629.33 229.368 629.02 228.828C628.717 228.282 628.292 227.857 627.746 227.554C627.206 227.244 626.586 227.089 625.884 227.089C625.19 227.089 624.566 227.24 624.012 227.543C623.458 227.846 623.019 228.267 622.694 228.806C622.376 229.338 622.217 229.947 622.217 230.634V230.645H621.553V227.876H621.852C622.058 227.41 622.369 226.989 622.782 226.613C623.196 226.229 623.691 225.922 624.267 225.693C624.85 225.457 625.504 225.339 626.228 225.339C627.24 225.339 628.141 225.571 628.931 226.037C629.729 226.494 630.356 227.122 630.814 227.92C631.28 228.718 631.512 229.626 631.512 230.645V230.667C631.512 231.724 631.265 232.662 630.77 233.482C630.283 234.301 629.614 234.948 628.765 235.42C627.923 235.893 626.959 236.129 625.873 236.129ZM635.335 235.963C634.965 235.963 634.651 235.834 634.393 235.575C634.134 235.31 634.005 234.996 634.005 234.634C634.005 234.257 634.134 233.943 634.393 233.692C634.651 233.434 634.965 233.304 635.335 233.304C635.711 233.304 636.025 233.434 636.276 233.692C636.535 233.943 636.664 234.257 636.664 234.634C636.664 234.996 636.535 235.31 636.276 235.575C636.025 235.834 635.711 235.963 635.335 235.963ZM639.733 235.819L646.945 221.694V221.605H638.359V219.832H648.939V221.683L641.827 235.819H639.733ZM656.983 236.129C656.244 236.129 655.517 235.989 654.8 235.708C654.091 235.428 653.441 234.977 652.85 234.357C652.267 233.736 651.801 232.916 651.454 231.897C651.107 230.871 650.934 229.611 650.934 228.119V228.097C650.934 226.295 651.177 224.755 651.665 223.477C652.152 222.192 652.858 221.214 653.781 220.541C654.704 219.862 655.816 219.522 657.116 219.522C658.017 219.522 658.829 219.685 659.553 220.01C660.277 220.335 660.882 220.789 661.37 221.372C661.857 221.956 662.19 222.639 662.367 223.422L662.4 223.566H660.384L660.34 223.444C660.177 223.001 659.944 222.621 659.642 222.303C659.346 221.978 658.984 221.731 658.556 221.561C658.127 221.383 657.64 221.295 657.093 221.295C656.111 221.295 655.313 221.583 654.7 222.159C654.095 222.728 653.644 223.485 653.349 224.43C653.061 225.368 652.898 226.395 652.861 227.51C652.854 227.599 652.85 227.684 652.85 227.765C652.85 227.846 652.85 227.927 652.85 228.009L653.327 230.645C653.327 231.332 653.485 231.956 653.803 232.518C654.128 233.079 654.564 233.526 655.11 233.858C655.664 234.191 656.281 234.357 656.96 234.357C657.64 234.357 658.253 234.194 658.8 233.869C659.353 233.544 659.789 233.109 660.107 232.562C660.432 232.008 660.594 231.391 660.594 230.712V230.69C660.594 229.988 660.439 229.368 660.129 228.828C659.826 228.282 659.401 227.857 658.855 227.554C658.316 227.244 657.695 227.089 656.994 227.089C656.299 227.089 655.675 227.24 655.121 227.543C654.567 227.846 654.128 228.267 653.803 228.806C653.485 229.338 653.327 229.947 653.327 230.634V230.645H652.662V227.876H652.961C653.168 227.41 653.478 226.989 653.892 226.613C654.305 226.229 654.8 225.922 655.376 225.693C655.96 225.457 656.613 225.339 657.337 225.339C658.349 225.339 659.25 225.571 660.04 226.037C660.838 226.494 661.466 227.122 661.924 227.92C662.389 228.718 662.622 229.626 662.622 230.645V230.667C662.622 231.724 662.374 232.662 661.879 233.482C661.392 234.301 660.724 234.948 659.874 235.42C659.032 235.893 658.068 236.129 656.983 236.129Z" fill="white"/><rect x="56.8828" y="379.701" width="617.004" height="2.13098" fill="#FF9800"/><path d="M180.482 370.605C180.482 365.898 184.299 362.081 189.006 362.081H434.069C438.776 362.081 442.593 365.898 442.593 370.605V389.784C442.593 394.492 438.776 398.308 434.069 398.308H189.006C184.299 398.308 180.482 394.492 180.482 389.784V370.605Z" fill="#101011"/><path fill-rule="evenodd" d="M434.069 364.212H189.006C185.476 364.212 182.613 367.075 182.613 370.605V389.784C182.613 393.315 185.476 396.177 189.006 396.177H434.069C437.599 396.177 440.462 393.315 440.462 389.784V370.605C440.462 367.075 437.599 364.212 434.069 364.212ZM189.006 362.081C184.299 362.081 180.482 365.898 180.482 370.605V389.784C180.482 394.492 184.299 398.308 189.006 398.308H434.069C438.776 398.308 442.593 394.492 442.593 389.784V370.605C442.593 365.898 438.776 362.081 434.069 362.081H189.006Z" fill="#FF9800"/><rect x="239.084" y="364.212" width="2.13098" height="31.9646" fill="#33261A"/><rect x="393.58" y="364.212" width="2.13098" height="31.9646" fill="#33261A"/><path d="M202.72 388.491C201.619 388.491 200.659 388.303 199.839 387.926C199.02 387.55 198.37 387.033 197.89 386.375C197.417 385.718 197.144 384.968 197.07 384.126L197.059 383.993H198.975L198.986 384.104C199.045 384.629 199.234 385.09 199.551 385.489C199.876 385.888 200.308 386.202 200.848 386.431C201.387 386.652 202.011 386.763 202.72 386.763C203.422 386.763 204.035 386.641 204.559 386.398C205.091 386.154 205.504 385.818 205.8 385.389C206.095 384.954 206.243 384.455 206.243 383.894V383.872C206.243 382.889 205.914 382.136 205.257 381.611C204.607 381.08 203.721 380.814 202.598 380.814H200.593V379.13H202.509C203.145 379.13 203.706 379.012 204.193 378.775C204.681 378.532 205.061 378.203 205.334 377.789C205.608 377.368 205.744 376.892 205.744 376.36V376.338C205.744 375.777 205.626 375.3 205.39 374.909C205.154 374.517 204.806 374.218 204.348 374.011C203.898 373.805 203.348 373.701 202.698 373.701C202.07 373.701 201.509 373.808 201.014 374.022C200.526 374.229 200.135 374.528 199.839 374.92C199.544 375.311 199.367 375.777 199.308 376.316L199.297 376.427H197.38L197.391 376.316C197.48 375.444 197.753 374.684 198.211 374.034C198.676 373.384 199.289 372.878 200.05 372.516C200.818 372.154 201.701 371.973 202.698 371.973C203.717 371.973 204.603 372.15 205.357 372.505C206.117 372.852 206.705 373.336 207.118 373.956C207.539 374.569 207.75 375.282 207.75 376.094V376.116C207.75 376.774 207.606 377.357 207.318 377.867C207.03 378.376 206.631 378.801 206.121 379.141C205.611 379.481 205.024 379.721 204.36 379.861V379.905C205.527 380.001 206.468 380.397 207.185 381.091C207.908 381.778 208.27 382.69 208.27 383.827V383.849C208.27 384.736 208.03 385.53 207.55 386.231C207.07 386.933 206.413 387.487 205.578 387.893C204.744 388.292 203.791 388.491 202.72 388.491Z" fill="#FF9800"/><path d="M216.613 388.491C215.512 388.491 214.552 388.303 213.732 387.926C212.912 387.55 212.262 387.033 211.782 386.375C211.31 385.718 211.036 384.968 210.963 384.126L210.951 383.993H212.868L212.879 384.104C212.938 384.629 213.127 385.09 213.444 385.489C213.769 385.888 214.201 386.202 214.74 386.431C215.28 386.652 215.904 386.763 216.613 386.763C217.314 386.763 217.927 386.641 218.452 386.398C218.984 386.154 219.397 385.818 219.693 385.389C219.988 384.954 220.136 384.455 220.136 383.894V383.872C220.136 382.889 219.807 382.136 219.15 381.611C218.5 381.08 217.614 380.814 216.491 380.814H214.486V379.13H216.402C217.037 379.13 217.599 379.012 218.086 378.775C218.574 378.532 218.954 378.203 219.227 377.789C219.501 377.368 219.637 376.892 219.637 376.36V376.338C219.637 375.777 219.519 375.3 219.283 374.909C219.046 374.517 218.699 374.218 218.241 374.011C217.791 373.805 217.241 373.701 216.591 373.701C215.963 373.701 215.401 373.808 214.907 374.022C214.419 374.229 214.028 374.528 213.732 374.92C213.437 375.311 213.26 375.777 213.2 376.316L213.189 376.427H211.273L211.284 376.316C211.372 375.444 211.646 374.684 212.104 374.034C212.569 373.384 213.182 372.878 213.943 372.516C214.711 372.154 215.593 371.973 216.591 371.973C217.61 371.973 218.496 372.15 219.25 372.505C220.01 372.852 220.597 373.336 221.011 373.956C221.432 374.569 221.643 375.282 221.643 376.094V376.116C221.643 376.774 221.499 377.357 221.21 377.867C220.922 378.376 220.524 378.801 220.014 379.141C219.504 379.481 218.917 379.721 218.252 379.861V379.905C219.419 380.001 220.361 380.397 221.078 381.091C221.801 381.778 222.163 382.69 222.163 383.827V383.849C222.163 384.736 221.923 385.53 221.443 386.231C220.963 386.933 220.306 387.487 219.471 387.893C218.636 388.292 217.684 388.491 216.613 388.491Z" fill="#FF9800"/><path d="M258.028 382.741V380.971H269.129V382.741H258.028Z" fill="#FF9800"/><path d="M277.716 388.553C276.988 388.553 276.27 388.419 275.564 388.149C274.865 387.872 274.227 387.424 273.652 386.805C273.076 386.186 272.618 385.374 272.275 384.369C271.933 383.356 271.762 382.111 271.762 380.632V380.611C271.762 378.826 272.002 377.304 272.483 376.044C272.964 374.776 273.655 373.808 274.559 373.138C275.469 372.467 276.565 372.132 277.847 372.132C278.736 372.132 279.533 372.293 280.24 372.613C280.954 372.934 281.551 373.385 282.032 373.968C282.512 374.543 282.84 375.217 283.015 375.989L283.048 376.131H281.059L281.016 376.011C280.855 375.567 280.626 375.188 280.327 374.875C280.036 374.561 279.679 374.317 279.257 374.143C278.834 373.968 278.357 373.88 277.825 373.88C276.864 373.88 276.081 374.161 275.476 374.722C274.879 375.283 274.435 376.026 274.143 376.951C273.859 377.876 273.699 378.892 273.663 379.999C273.655 380.086 273.652 380.174 273.652 380.261C273.652 380.348 273.652 380.436 273.652 380.523L274.122 383.134C274.122 383.819 274.278 384.442 274.591 385.003C274.912 385.556 275.342 385.997 275.881 386.325C276.42 386.652 277.024 386.816 277.694 386.816C278.357 386.816 278.958 386.656 279.497 386.335C280.043 386.015 280.473 385.582 280.786 385.035C281.107 384.482 281.267 383.87 281.267 383.2V383.178C281.267 382.486 281.114 381.871 280.808 381.332C280.509 380.793 280.091 380.37 279.552 380.064C279.02 379.758 278.412 379.605 277.727 379.605C277.042 379.605 276.427 379.758 275.881 380.064C275.342 380.363 274.912 380.778 274.591 381.31C274.278 381.841 274.122 382.446 274.122 383.123V383.134H273.466V380.359H273.794C273.998 379.915 274.296 379.507 274.69 379.136C275.09 378.757 275.575 378.455 276.143 378.229C276.711 377.996 277.352 377.879 278.066 377.879C279.064 377.879 279.952 378.109 280.731 378.567C281.511 379.019 282.126 379.642 282.578 380.436C283.029 381.23 283.255 382.129 283.255 383.134V383.156C283.255 384.198 283.015 385.126 282.534 385.942C282.053 386.751 281.398 387.388 280.568 387.854C279.737 388.32 278.787 388.553 277.716 388.553Z" fill="#FF9800"/><path d="M291.493 372.132C292.214 372.132 292.928 372.271 293.634 372.548C294.341 372.817 294.978 373.261 295.546 373.88C296.122 374.5 296.581 375.315 296.923 376.328C297.273 377.333 297.447 378.575 297.447 380.053V380.075C297.447 381.86 297.203 383.386 296.715 384.653C296.235 385.913 295.543 386.878 294.64 387.548C293.736 388.218 292.644 388.553 291.362 388.553C290.481 388.553 289.679 388.393 288.958 388.073C288.245 387.752 287.651 387.304 287.177 386.729C286.704 386.146 286.376 385.469 286.194 384.697L286.161 384.555H288.15L288.194 384.675C288.354 385.112 288.58 385.491 288.871 385.811C289.17 386.124 289.53 386.368 289.953 386.543C290.375 386.718 290.852 386.805 291.384 386.805C292.345 386.805 293.125 386.525 293.722 385.964C294.326 385.403 294.771 384.66 295.055 383.735C295.346 382.803 295.51 381.787 295.546 380.687C295.554 380.6 295.557 380.512 295.557 380.425C295.557 380.337 295.557 380.25 295.557 380.163L295.087 377.551C295.087 376.867 294.927 376.248 294.607 375.694C294.294 375.133 293.867 374.689 293.328 374.361C292.789 374.033 292.185 373.87 291.515 373.87C290.852 373.87 290.248 374.03 289.701 374.35C289.162 374.671 288.733 375.104 288.412 375.65C288.092 376.197 287.931 376.808 287.931 377.486V377.508C287.931 378.2 288.084 378.815 288.39 379.354C288.696 379.893 289.115 380.316 289.647 380.621C290.186 380.927 290.797 381.08 291.482 381.08C292.167 381.08 292.779 380.931 293.318 380.632C293.864 380.326 294.294 379.908 294.607 379.376C294.927 378.844 295.087 378.24 295.087 377.562V377.551H295.732V380.326H295.415C295.219 380.771 294.92 381.182 294.519 381.561C294.119 381.933 293.634 382.235 293.066 382.468C292.498 382.694 291.857 382.807 291.143 382.807C290.153 382.807 289.264 382.581 288.478 382.129C287.698 381.67 287.083 381.044 286.631 380.25C286.18 379.456 285.954 378.557 285.954 377.551V377.53C285.954 376.488 286.191 375.559 286.664 374.744C287.145 373.928 287.804 373.291 288.641 372.832C289.479 372.365 290.43 372.132 291.493 372.132Z" fill="#FF9800"/><path d="M300.976 388.357C300.605 388.357 300.284 388.226 300.015 387.963C299.753 387.694 299.622 387.373 299.622 387.002C299.622 386.623 299.753 386.303 300.015 386.04C300.284 385.778 300.605 385.647 300.976 385.647C301.355 385.647 301.676 385.778 301.938 386.04C302.2 386.303 302.331 386.623 302.331 387.002C302.331 387.373 302.2 387.694 301.938 387.963C301.676 388.226 301.355 388.357 300.976 388.357Z" fill="#FF9800"/><path d="M310.427 388.488C309.342 388.488 308.395 388.302 307.586 387.931C306.778 387.559 306.137 387.049 305.663 386.401C305.197 385.753 304.928 385.013 304.855 384.183L304.844 384.052H306.734L306.745 384.161C306.803 384.678 306.989 385.134 307.302 385.527C307.623 385.92 308.049 386.23 308.58 386.456C309.112 386.674 309.728 386.783 310.427 386.783C311.119 386.783 311.723 386.663 312.24 386.423C312.765 386.182 313.173 385.851 313.464 385.429C313.755 384.999 313.901 384.507 313.901 383.954V383.932C313.901 382.963 313.577 382.22 312.929 381.703C312.288 381.179 311.414 380.916 310.307 380.916H308.329V379.256H310.219C310.846 379.256 311.399 379.139 311.88 378.906C312.361 378.666 312.736 378.342 313.005 377.934C313.275 377.519 313.409 377.049 313.409 376.524V376.503C313.409 375.949 313.293 375.479 313.06 375.093C312.827 374.707 312.484 374.412 312.033 374.208C311.589 374.004 311.046 373.902 310.405 373.902C309.786 373.902 309.232 374.008 308.744 374.219C308.264 374.423 307.878 374.718 307.586 375.104C307.295 375.49 307.12 375.949 307.062 376.481L307.051 376.59H305.161L305.172 376.481C305.259 375.621 305.529 374.871 305.98 374.23C306.439 373.589 307.044 373.09 307.794 372.733C308.551 372.376 309.422 372.198 310.405 372.198C311.41 372.198 312.284 372.373 313.027 372.722C313.777 373.065 314.356 373.542 314.764 374.154C315.179 374.758 315.387 375.461 315.387 376.262V376.284C315.387 376.932 315.245 377.508 314.961 378.01C314.677 378.513 314.283 378.932 313.781 379.267C313.278 379.602 312.699 379.838 312.044 379.977V380.021C313.195 380.115 314.123 380.505 314.83 381.19C315.544 381.867 315.9 382.766 315.9 383.888V383.91C315.9 384.784 315.664 385.567 315.19 386.259C314.717 386.951 314.069 387.497 313.246 387.898C312.422 388.291 311.483 388.488 310.427 388.488Z" fill="#FF9800"/><path d="M324.193 388.553C323.013 388.553 322 388.222 321.156 387.559C320.318 386.889 319.673 385.942 319.222 384.718C318.77 383.488 318.544 382.031 318.544 380.348V380.326C318.544 378.644 318.77 377.191 319.222 375.967C319.673 374.744 320.318 373.8 321.156 373.138C322 372.467 323.013 372.132 324.193 372.132C325.373 372.132 326.385 372.467 327.23 373.138C328.075 373.8 328.723 374.744 329.175 375.967C329.626 377.191 329.852 378.644 329.852 380.326V380.348C329.852 382.031 329.626 383.488 329.175 384.718C328.723 385.942 328.075 386.889 327.23 387.559C326.385 388.222 325.373 388.553 324.193 388.553ZM324.193 386.838C324.965 386.838 325.624 386.576 326.17 386.051C326.724 385.52 327.146 384.769 327.438 383.801C327.729 382.832 327.875 381.681 327.875 380.348V380.326C327.875 378.994 327.729 377.846 327.438 376.885C327.146 375.916 326.724 375.17 326.17 374.645C325.624 374.121 324.965 373.859 324.193 373.859C323.421 373.859 322.762 374.121 322.215 374.645C321.669 375.17 321.25 375.916 320.959 376.885C320.668 377.846 320.522 378.994 320.522 380.326V380.348C320.522 381.681 320.668 382.832 320.959 383.801C321.25 384.769 321.669 385.52 322.215 386.051C322.762 386.576 323.421 386.838 324.193 386.838Z" fill="#FF9800"/><path d="M342.829 388.535C341.762 388.535 340.842 388.338 340.07 387.943C339.297 387.547 338.702 386.999 338.283 386.297C337.864 385.59 337.655 384.767 337.655 383.83V375.463H339.645V383.68C339.645 384.293 339.769 384.832 340.016 385.298C340.27 385.764 340.633 386.126 341.104 386.386C341.582 386.645 342.157 386.775 342.829 386.775C343.507 386.775 344.082 386.645 344.554 386.386C345.025 386.126 345.385 385.764 345.633 385.298C345.88 384.832 346.004 384.293 346.004 383.68V375.463H347.994V383.83C347.994 384.767 347.785 385.59 347.366 386.297C346.953 386.999 346.361 387.547 345.588 387.943C344.822 388.338 343.902 388.535 342.829 388.535Z" fill="#FF9800"/><path d="M355.881 388.535C354.92 388.535 354.083 388.385 353.369 388.084C352.656 387.777 352.093 387.353 351.68 386.81C351.267 386.268 351.031 385.64 350.972 384.927L350.964 384.812H352.918L352.927 384.909C352.968 385.292 353.119 385.625 353.378 385.908C353.643 386.191 353.997 386.412 354.439 386.572C354.888 386.731 355.398 386.81 355.97 386.81C356.506 386.81 356.984 386.725 357.402 386.554C357.821 386.383 358.148 386.147 358.384 385.846C358.626 385.546 358.747 385.201 358.747 384.812V384.803C358.747 384.313 358.561 383.907 358.189 383.582C357.818 383.258 357.211 383.004 356.368 382.822L354.97 382.53C353.679 382.253 352.738 381.813 352.149 381.212C351.559 380.605 351.264 379.829 351.264 378.886V378.877C351.27 378.14 351.468 377.491 351.857 376.931C352.252 376.371 352.797 375.935 353.493 375.622C354.189 375.31 354.988 375.154 355.89 375.154C356.792 375.154 357.579 375.31 358.251 375.622C358.929 375.929 359.463 376.348 359.852 376.878C360.247 377.409 360.468 378.007 360.516 378.674L360.524 378.789H358.587L358.57 378.674C358.517 378.326 358.372 378.016 358.136 377.745C357.906 377.474 357.597 377.261 357.208 377.108C356.825 376.949 356.376 376.872 355.863 376.878C355.368 376.878 354.926 376.955 354.537 377.108C354.148 377.256 353.838 377.471 353.608 377.754C353.384 378.037 353.272 378.379 353.272 378.78V378.789C353.272 379.26 353.452 379.655 353.812 379.974C354.177 380.286 354.77 380.531 355.589 380.708L356.987 381.017C357.877 381.206 358.599 381.457 359.154 381.769C359.708 382.082 360.112 382.468 360.365 382.928C360.625 383.382 360.754 383.924 360.754 384.555V384.564C360.754 385.378 360.554 386.082 360.153 386.678C359.758 387.267 359.195 387.724 358.464 388.049C357.733 388.373 356.872 388.535 355.881 388.535Z" fill="#FF9800"/><path d="M363.742 388.226V375.463H368.35C369.617 375.463 370.699 375.714 371.595 376.215C372.492 376.716 373.176 377.438 373.647 378.382C374.125 379.325 374.364 380.466 374.364 381.805V381.822C374.364 383.172 374.125 384.325 373.647 385.28C373.176 386.236 372.492 386.967 371.595 387.474C370.705 387.975 369.623 388.226 368.35 388.226H363.742ZM365.723 386.51H368.128C369.019 386.51 369.776 386.327 370.401 385.961C371.032 385.596 371.51 385.065 371.834 384.369C372.164 383.674 372.33 382.833 372.33 381.849V381.831C372.33 380.852 372.161 380.015 371.825 379.319C371.495 378.623 371.018 378.093 370.393 377.727C369.768 377.362 369.013 377.179 368.128 377.179H365.723V386.51Z" fill="#FF9800"/><path d="M426.611 374.034C426.179 373.601 425.746 373.169 425.313 372.736L418.62 379.429L411.927 372.736C411.494 373.169 411.062 373.601 410.629 374.034L417.322 380.727L410.629 387.421C411.062 387.853 411.494 388.286 411.927 388.718L418.62 382.025L425.313 388.718C425.746 388.286 426.179 387.853 426.611 387.421L419.918 380.727L426.611 374.034Z" fill="#FF9800"/><circle cx="514.926" cy="380.918" r="5.86019" fill="black" stroke="#2962FF" stroke-width="2.13098"/><path d="M577.91 362.081H671.673C674.027 362.081 675.935 363.99 675.935 366.343V394.046C675.935 396.4 674.027 398.308 671.673 398.308H577.91V362.081Z" fill="url(#i45rddpsu)"/><path d="M591.188 387.784V386.429L596.651 380.65C597.35 379.914 597.885 379.306 598.257 378.825C598.635 378.345 598.898 377.911 599.043 377.525C599.189 377.139 599.262 376.72 599.262 376.269V376.247C599.262 375.701 599.138 375.216 598.89 374.794C598.643 374.371 598.297 374.04 597.852 373.8C597.415 373.552 596.902 373.428 596.312 373.428C595.664 373.428 595.088 373.563 594.586 373.832C594.09 374.095 593.701 374.459 593.417 374.925C593.133 375.384 592.991 375.905 592.991 376.487V376.531H591.1L591.089 376.487C591.089 375.57 591.319 374.75 591.778 374.029C592.244 373.308 592.874 372.744 593.668 372.336C594.462 371.92 595.354 371.713 596.345 371.713C597.284 371.713 598.122 371.906 598.857 372.292C599.6 372.671 600.183 373.191 600.606 373.854C601.035 374.517 601.25 375.267 601.25 376.105V376.127C601.25 376.709 601.145 377.274 600.933 377.82C600.722 378.366 600.351 378.978 599.819 379.656C599.294 380.326 598.548 381.156 597.579 382.147L593.362 386.484L593.908 385.402V386.484L593.362 386.025H601.512V387.784H591.188ZM609.859 388.09C609.138 388.09 608.424 387.955 607.718 387.686C607.011 387.409 606.371 386.965 605.795 386.353C605.22 385.734 604.757 384.922 604.408 383.917C604.065 382.904 603.894 381.662 603.894 380.191V380.169C603.894 378.392 604.134 376.873 604.615 375.613C605.103 374.346 605.802 373.381 606.713 372.718C607.623 372.048 608.716 371.713 609.99 371.713C610.886 371.713 611.691 371.873 612.405 372.194C613.119 372.514 613.712 372.962 614.186 373.537C614.667 374.113 614.994 374.787 615.169 375.559L615.202 375.701H613.213L613.17 375.58C613.017 375.136 612.791 374.757 612.492 374.444C612.194 374.131 611.833 373.891 611.411 373.723C610.988 373.548 610.508 373.461 609.969 373.461C609.007 373.461 608.224 373.741 607.62 374.302C607.015 374.863 606.567 375.61 606.276 376.542C605.992 377.467 605.835 378.483 605.806 379.59C605.799 379.67 605.795 379.75 605.795 379.83C605.795 379.911 605.795 379.994 605.795 380.082L606.265 382.682C606.265 383.367 606.421 383.986 606.735 384.539C607.055 385.093 607.485 385.534 608.024 385.861C608.57 386.189 609.175 386.353 609.838 386.353C610.508 386.353 611.112 386.193 611.651 385.872C612.197 385.552 612.631 385.118 612.951 384.572C613.272 384.026 613.432 383.418 613.432 382.748V382.726C613.432 382.034 613.279 381.422 612.973 380.89C612.667 380.351 612.245 379.929 611.706 379.623C611.174 379.317 610.562 379.164 609.87 379.164C609.193 379.164 608.581 379.317 608.035 379.623C607.489 379.922 607.055 380.337 606.735 380.868C606.421 381.393 606.265 381.994 606.265 382.671V382.682H605.609V379.94H605.904C606.108 379.488 606.411 379.073 606.811 378.694C607.219 378.315 607.711 378.013 608.286 377.787C608.862 377.562 609.502 377.449 610.209 377.449C611.214 377.449 612.106 377.678 612.886 378.137C613.672 378.589 614.291 379.208 614.743 379.994C615.195 380.781 615.42 381.677 615.42 382.682V382.704C615.42 383.745 615.18 384.67 614.699 385.479C614.219 386.287 613.559 386.925 612.722 387.391C611.891 387.857 610.937 388.09 609.859 388.09ZM618.217 387.784V386.429L623.68 380.65C624.379 379.914 624.915 379.306 625.286 378.825C625.665 378.345 625.927 377.911 626.073 377.525C626.218 377.139 626.291 376.72 626.291 376.269V376.247C626.291 375.701 626.167 375.216 625.92 374.794C625.672 374.371 625.326 374.04 624.882 373.8C624.445 373.552 623.931 373.428 623.341 373.428C622.693 373.428 622.118 373.563 621.615 373.832C621.12 374.095 620.73 374.459 620.446 374.925C620.162 375.384 620.02 375.905 620.02 376.487V376.531H618.13L618.119 376.487C618.119 375.57 618.348 374.75 618.807 374.029C619.273 373.308 619.903 372.744 620.697 372.336C621.491 371.92 622.384 371.713 623.374 371.713C624.314 371.713 625.151 371.906 625.887 372.292C626.63 372.671 627.213 373.191 627.635 373.854C628.065 374.517 628.28 375.267 628.28 376.105V376.127C628.28 376.709 628.174 377.274 627.963 377.82C627.752 378.366 627.38 378.978 626.848 379.656C626.324 380.326 625.577 381.156 624.609 382.147L620.391 386.484L620.938 385.402V386.484L620.391 386.025H628.542V387.784H618.217ZM632.42 387.915C632.056 387.915 631.743 387.788 631.481 387.533C631.226 387.278 631.098 386.968 631.098 386.604C631.098 386.233 631.226 385.92 631.481 385.665C631.743 385.41 632.056 385.282 632.42 385.282C632.792 385.282 633.105 385.41 633.36 385.665C633.615 385.92 633.742 386.233 633.742 386.604C633.742 386.968 633.615 387.278 633.36 387.533C633.105 387.788 632.792 387.915 632.42 387.915ZM641.827 371.713C642.555 371.713 643.273 371.851 643.979 372.128C644.686 372.398 645.327 372.842 645.902 373.461C646.478 374.073 646.937 374.885 647.279 375.897C647.621 376.902 647.792 378.141 647.792 379.612V379.634C647.792 381.411 647.552 382.933 647.071 384.201C646.591 385.461 645.895 386.426 644.985 387.096C644.081 387.759 642.985 388.09 641.696 388.09C640.815 388.09 640.014 387.93 639.292 387.609C638.579 387.289 637.981 386.841 637.501 386.266C637.027 385.69 636.699 385.016 636.517 384.244L636.485 384.102H638.484L638.528 384.222C638.688 384.66 638.914 385.038 639.205 385.359C639.504 385.672 639.864 385.916 640.287 386.091C640.709 386.258 641.186 386.342 641.718 386.342C642.694 386.342 643.481 386.062 644.078 385.501C644.675 384.94 645.119 384.193 645.411 383.261C645.702 382.329 645.862 381.313 645.891 380.213C645.899 380.133 645.902 380.053 645.902 379.973C645.902 379.885 645.902 379.801 645.902 379.721L645.433 377.121C645.433 376.436 645.272 375.817 644.952 375.264C644.639 374.71 644.213 374.269 643.674 373.942C643.135 373.614 642.526 373.45 641.849 373.45C641.186 373.45 640.582 373.61 640.035 373.931C639.496 374.251 639.067 374.685 638.746 375.231C638.426 375.77 638.265 376.378 638.265 377.055V377.077C638.265 377.769 638.418 378.385 638.724 378.924C639.03 379.455 639.449 379.874 639.981 380.18C640.52 380.486 641.132 380.639 641.816 380.639C642.508 380.639 643.124 380.49 643.663 380.191C644.209 379.885 644.639 379.47 644.952 378.946C645.272 378.414 645.433 377.809 645.433 377.132V377.121H646.088V379.863H645.793C645.589 380.315 645.283 380.73 644.875 381.109C644.475 381.487 643.987 381.79 643.411 382.016C642.836 382.241 642.191 382.354 641.478 382.354C640.487 382.354 639.598 382.128 638.812 381.677C638.025 381.218 637.406 380.595 636.954 379.809C636.503 379.015 636.277 378.119 636.277 377.121V377.099C636.277 376.058 636.517 375.133 636.998 374.324C637.479 373.508 638.138 372.871 638.976 372.412C639.813 371.946 640.764 371.713 641.827 371.713ZM655.855 388.09C654.668 388.09 653.648 387.759 652.796 387.096C651.951 386.426 651.299 385.479 650.841 384.255C650.389 383.032 650.163 381.582 650.163 379.907V379.885C650.163 378.21 650.389 376.76 650.841 375.537C651.299 374.313 651.951 373.37 652.796 372.707C653.648 372.044 654.668 371.713 655.855 371.713C657.05 371.713 658.07 372.044 658.914 372.707C659.767 373.37 660.422 374.313 660.881 375.537C661.34 376.76 661.569 378.21 661.569 379.885V379.907C661.569 381.582 661.34 383.032 660.881 384.255C660.422 385.479 659.767 386.426 658.914 387.096C658.07 387.759 657.05 388.09 655.855 388.09ZM655.855 386.375C656.642 386.375 657.312 386.113 657.866 385.588C658.419 385.064 658.845 384.317 659.144 383.348C659.443 382.38 659.592 381.233 659.592 379.907V379.885C659.592 378.559 659.443 377.416 659.144 376.455C658.845 375.486 658.419 374.743 657.866 374.226C657.312 373.701 656.642 373.439 655.855 373.439C655.076 373.439 654.41 373.701 653.856 374.226C653.302 374.743 652.876 375.486 652.578 376.455C652.286 377.416 652.141 378.559 652.141 379.885V379.907C652.141 381.233 652.286 382.38 652.578 383.348C652.876 384.317 653.302 385.064 653.856 385.588C654.41 386.113 655.076 386.375 655.855 386.375Z" fill="white"/><rect x="514" y="232.992" width="2" height="143" fill="#2962FF"/><rect x="56.8809" y="308.651" width="615.773" height="2.09426" fill="#2962FF"/><path d="M108.25 301.321C108.25 296.694 112.001 292.944 116.627 292.944H159.559C164.186 292.944 167.937 296.694 167.937 301.321V320.169C167.937 324.796 164.186 328.546 159.559 328.546H116.627C112.001 328.546 108.25 324.796 108.25 320.169V301.321Z" fill="#101112"/><path fill-rule="evenodd" d="M159.559 295.038H116.627C113.157 295.038 110.344 297.851 110.344 301.321V320.169C110.344 323.639 113.157 326.452 116.627 326.452H159.559C163.029 326.452 165.842 323.639 165.842 320.169V301.321C165.842 297.851 163.029 295.038 159.559 295.038ZM116.627 292.944C112.001 292.944 108.25 296.694 108.25 301.321V320.169C108.25 324.796 112.001 328.546 116.627 328.546H159.559C164.186 328.546 167.937 324.796 167.937 320.169V301.321C167.937 296.694 164.186 292.944 159.559 292.944H116.627Z" fill="#2962FF"/><path d="M136.074 300.926L129.807 307.946L131.193 309.183L134.216 305.797V320.086H136.074V300.926Z" fill="#2962FF"/><path d="M139.791 320.663L146.058 313.643L144.672 312.405L141.649 315.792V301.503H139.791V320.663Z" fill="#2962FF"/><path d="M189.926 301.321C189.926 296.694 193.676 292.944 198.303 292.944H441.238C445.864 292.944 449.615 296.694 449.615 301.321V320.169C449.615 324.796 445.864 328.546 441.238 328.546H198.303C193.676 328.546 189.926 324.796 189.926 320.169V301.321Z" fill="#111112"/><path fill-rule="evenodd" d="M441.238 295.038H198.303C194.833 295.038 192.02 297.851 192.02 301.321V320.169C192.02 323.639 194.833 326.452 198.303 326.452H441.238C444.707 326.452 447.52 323.639 447.52 320.169V301.321C447.52 297.851 444.707 295.038 441.238 295.038ZM198.303 292.944C193.676 292.944 189.926 296.694 189.926 301.321V320.169C189.926 324.796 193.676 328.546 198.303 328.546H441.238C445.864 328.546 449.615 324.796 449.615 320.169V301.321C449.615 296.694 445.864 292.944 441.238 292.944H198.303Z" fill="#2962FF"/><path d="M189.926 301.321C189.926 296.694 193.676 292.944 198.303 292.944H247.518V328.546H198.303C193.676 328.546 189.926 324.796 189.926 320.169V301.321Z" fill="#2962FF"/><path d="M211.625 318.412C210.559 318.412 209.628 318.23 208.834 317.865C208.039 317.499 207.409 316.998 206.944 316.361C206.486 315.724 206.221 314.998 206.149 314.182L206.139 314.053H207.996L208.007 314.16C208.064 314.668 208.247 315.116 208.555 315.502C208.869 315.889 209.288 316.193 209.811 316.415C210.333 316.63 210.938 316.737 211.625 316.737C212.305 316.737 212.9 316.619 213.408 316.383C213.923 316.147 214.324 315.821 214.61 315.406C214.897 314.983 215.04 314.5 215.04 313.956V313.935C215.04 312.983 214.721 312.253 214.084 311.744C213.454 311.229 212.595 310.971 211.507 310.971H209.564V309.339H211.421C212.037 309.339 212.581 309.225 213.053 308.996C213.526 308.759 213.895 308.441 214.159 308.04C214.424 307.632 214.557 307.17 214.557 306.655V306.633C214.557 306.089 214.442 305.628 214.213 305.248C213.984 304.869 213.648 304.579 213.204 304.379C212.767 304.178 212.234 304.078 211.604 304.078C210.995 304.078 210.451 304.182 209.972 304.389C209.499 304.59 209.12 304.88 208.834 305.259C208.547 305.638 208.376 306.089 208.318 306.612L208.308 306.719H206.45L206.461 306.612C206.547 305.767 206.812 305.03 207.255 304.4C207.706 303.77 208.3 303.28 209.038 302.929C209.782 302.578 210.638 302.403 211.604 302.403C212.592 302.403 213.451 302.575 214.181 302.918C214.918 303.255 215.487 303.724 215.888 304.325C216.296 304.919 216.5 305.61 216.5 306.397V306.419C216.5 307.056 216.36 307.621 216.081 308.115C215.802 308.609 215.416 309.021 214.922 309.35C214.428 309.679 213.859 309.912 213.214 310.048V310.091C214.345 310.184 215.258 310.567 215.952 311.24C216.654 311.905 217.005 312.789 217.005 313.892V313.913C217.005 314.772 216.772 315.542 216.307 316.222C215.842 316.902 215.204 317.439 214.396 317.832C213.587 318.219 212.663 318.412 211.625 318.412Z" fill="white"/><path d="M225.133 318.412C224.066 318.412 223.136 318.23 222.341 317.865C221.547 317.499 220.917 316.998 220.451 316.361C219.993 315.724 219.728 314.998 219.657 314.182L219.646 314.053H221.504L221.514 314.16C221.572 314.668 221.754 315.116 222.062 315.502C222.377 315.889 222.796 316.193 223.318 316.415C223.841 316.63 224.446 316.737 225.133 316.737C225.813 316.737 226.407 316.619 226.915 316.383C227.431 316.147 227.831 315.821 228.118 315.406C228.404 314.983 228.547 314.5 228.547 313.956V313.935C228.547 312.983 228.229 312.253 227.592 311.744C226.962 311.229 226.103 310.971 225.015 310.971H223.071V309.339H224.929C225.544 309.339 226.088 309.225 226.561 308.996C227.033 308.759 227.402 308.441 227.667 308.04C227.932 307.632 228.064 307.17 228.064 306.655V306.633C228.064 306.089 227.949 305.628 227.72 305.248C227.491 304.869 227.155 304.579 226.711 304.379C226.274 304.178 225.741 304.078 225.111 304.078C224.503 304.078 223.959 304.182 223.479 304.389C223.007 304.59 222.627 304.88 222.341 305.259C222.055 305.638 221.883 306.089 221.826 306.612L221.815 306.719H219.957L219.968 306.612C220.054 305.767 220.319 305.03 220.763 304.4C221.214 303.77 221.808 303.28 222.545 302.929C223.29 302.578 224.145 302.403 225.111 302.403C226.099 302.403 226.958 302.575 227.688 302.918C228.426 303.255 228.995 303.724 229.395 304.325C229.803 304.919 230.007 305.61 230.007 306.397V306.419C230.007 307.056 229.868 307.621 229.589 308.115C229.31 308.609 228.923 309.021 228.429 309.35C227.935 309.679 227.366 309.912 226.722 310.048V310.091C227.853 310.184 228.766 310.567 229.46 311.24C230.161 311.905 230.512 312.789 230.512 313.892V313.913C230.512 314.772 230.279 315.542 229.814 316.222C229.349 316.902 228.712 317.439 227.903 317.832C227.094 318.219 226.171 318.412 225.133 318.412Z" fill="white"/><path d="M265.914 312.763V311.024H277.102V312.763H265.914ZM270.638 317.509V306.289H272.378V317.509H270.638Z" fill="#089981"/><path d="M287.066 318.153V314.943H279.421V313.182C279.858 312.481 280.298 311.776 280.742 311.067C281.186 310.351 281.63 309.639 282.074 308.93C282.525 308.214 282.975 307.506 283.426 306.804C283.877 306.096 284.328 305.394 284.779 304.7C285.23 304.005 285.678 303.325 286.121 302.66H288.945V313.225H291.136V314.943H288.945V318.153H287.066ZM281.376 313.225H287.066V304.399H286.959C286.601 304.95 286.232 305.512 285.853 306.085C285.481 306.657 285.105 307.237 284.726 307.824C284.346 308.411 283.967 309.002 283.587 309.596C283.208 310.19 282.832 310.784 282.46 311.378C282.088 311.965 281.726 312.549 281.376 313.128V313.225Z" fill="#089981"/><path d="M298.92 302.338C299.629 302.338 300.33 302.474 301.025 302.746C301.719 303.01 302.345 303.447 302.904 304.055C303.469 304.664 303.92 305.466 304.257 306.461C304.6 307.448 304.772 308.669 304.772 310.122V310.143C304.772 311.897 304.532 313.397 304.053 314.642C303.58 315.881 302.9 316.829 302.013 317.488C301.125 318.146 300.051 318.476 298.791 318.476C297.925 318.476 297.138 318.318 296.429 318.003C295.728 317.688 295.144 317.248 294.679 316.682C294.214 316.11 293.892 315.444 293.713 314.685L293.68 314.546H295.635L295.678 314.664C295.835 315.093 296.057 315.466 296.343 315.78C296.637 316.088 296.991 316.328 297.406 316.5C297.821 316.672 298.29 316.758 298.813 316.758C299.758 316.758 300.524 316.482 301.111 315.931C301.705 315.38 302.141 314.65 302.421 313.74C302.707 312.824 302.868 311.826 302.904 310.745C302.911 310.659 302.914 310.573 302.914 310.487C302.914 310.401 302.914 310.315 302.914 310.229L302.453 307.663C302.453 306.99 302.295 306.382 301.98 305.838C301.673 305.287 301.254 304.85 300.724 304.528C300.194 304.206 299.6 304.045 298.942 304.045C298.29 304.045 297.696 304.202 297.159 304.517C296.63 304.832 296.207 305.258 295.892 305.795C295.577 306.332 295.42 306.933 295.42 307.599V307.62C295.42 308.3 295.57 308.905 295.871 309.435C296.171 309.965 296.583 310.38 297.106 310.68C297.635 310.981 298.237 311.131 298.909 311.131C299.582 311.131 300.184 310.985 300.713 310.691C301.25 310.39 301.673 309.979 301.98 309.456C302.295 308.934 302.453 308.34 302.453 307.674V307.663H303.086V310.39H302.775C302.582 310.827 302.288 311.232 301.894 311.604C301.501 311.969 301.025 312.266 300.466 312.495C299.908 312.717 299.278 312.828 298.577 312.828C297.603 312.828 296.73 312.606 295.957 312.162C295.191 311.711 294.586 311.095 294.142 310.315C293.698 309.535 293.476 308.651 293.476 307.663V307.642C293.476 306.618 293.709 305.705 294.174 304.904C294.647 304.102 295.295 303.476 296.118 303.025C296.941 302.567 297.875 302.338 298.92 302.338Z" fill="#089981"/><path d="M308.24 318.282C307.875 318.282 307.56 318.153 307.295 317.896C307.038 317.631 306.909 317.316 306.909 316.951C306.909 316.579 307.038 316.264 307.295 316.006C307.56 315.748 307.875 315.619 308.24 315.619C308.612 315.619 308.927 315.748 309.185 316.006C309.443 316.264 309.572 316.579 309.572 316.951C309.572 317.316 309.443 317.631 309.185 317.896C308.927 318.153 308.612 318.282 308.24 318.282Z" fill="#089981"/><path d="M317.549 318.476C316.576 318.476 315.71 318.286 314.951 317.906C314.192 317.527 313.584 317.012 313.126 316.36C312.667 315.702 312.399 314.957 312.32 314.127L312.309 314.009H314.188L314.199 314.095C314.264 314.596 314.446 315.05 314.747 315.458C315.047 315.866 315.441 316.189 315.928 316.425C316.415 316.661 316.962 316.779 317.571 316.779C318.258 316.779 318.866 316.629 319.396 316.328C319.926 316.02 320.337 315.598 320.631 315.061C320.931 314.524 321.082 313.909 321.082 313.214V313.193C321.082 312.513 320.931 311.908 320.631 311.378C320.33 310.841 319.919 310.423 319.396 310.122C318.873 309.821 318.276 309.671 317.603 309.671C317.08 309.671 316.601 309.75 316.164 309.907C315.727 310.065 315.337 310.301 314.994 310.616C314.858 310.745 314.729 310.884 314.607 311.035C314.493 311.185 314.385 311.353 314.285 311.539H312.589L313.405 302.66H322.113V304.388H314.951L314.425 309.607H314.543C314.779 309.256 315.069 308.962 315.413 308.726C315.756 308.49 316.143 308.311 316.572 308.189C317.002 308.068 317.456 308.007 317.936 308.007C318.916 308.007 319.786 308.229 320.545 308.672C321.304 309.116 321.898 309.728 322.327 310.509C322.764 311.282 322.982 312.166 322.982 313.161V313.182C322.982 314.22 322.75 315.14 322.284 315.942C321.819 316.736 321.178 317.359 320.362 317.81C319.546 318.254 318.609 318.476 317.549 318.476Z" fill="#089981"/><path d="M330.949 318.476C329.79 318.476 328.795 318.15 327.964 317.498C327.141 316.84 326.508 315.909 326.064 314.707C325.62 313.497 325.398 312.065 325.398 310.412V310.39C325.398 308.737 325.62 307.309 326.064 306.106C326.508 304.904 327.141 303.977 327.964 303.325C328.795 302.667 329.79 302.338 330.949 302.338C332.109 302.338 333.104 302.667 333.934 303.325C334.765 303.977 335.402 304.904 335.845 306.106C336.289 307.309 336.511 308.737 336.511 310.39V310.412C336.511 312.065 336.289 313.497 335.845 314.707C335.402 315.909 334.765 316.84 333.934 317.498C333.104 318.15 332.109 318.476 330.949 318.476ZM330.949 316.79C331.708 316.79 332.356 316.532 332.893 316.017C333.437 315.494 333.852 314.757 334.138 313.805C334.425 312.853 334.568 311.722 334.568 310.412V310.39C334.568 309.08 334.425 307.953 334.138 307.008C333.852 306.056 333.437 305.322 332.893 304.807C332.356 304.292 331.708 304.034 330.949 304.034C330.19 304.034 329.543 304.292 329.006 304.807C328.469 305.322 328.057 306.056 327.771 307.008C327.485 307.953 327.342 309.08 327.342 310.39V310.412C327.342 311.722 327.485 312.853 327.771 313.805C328.057 314.757 328.469 315.494 329.006 316.017C329.543 316.532 330.19 316.79 330.949 316.79Z" fill="#089981"/><path d="M349.393 318.458C348.344 318.458 347.44 318.264 346.681 317.875C345.922 317.487 345.337 316.948 344.926 316.259C344.514 315.563 344.308 314.755 344.308 313.833V305.611H346.264V313.686C346.264 314.288 346.386 314.819 346.629 315.276C346.878 315.734 347.235 316.091 347.698 316.345C348.168 316.6 348.733 316.728 349.393 316.728C350.06 316.728 350.625 316.6 351.088 316.345C351.552 316.091 351.905 315.734 352.149 315.276C352.392 314.819 352.514 314.288 352.514 313.686V305.611H354.469V313.833C354.469 314.755 354.264 315.563 353.852 316.259C353.447 316.948 352.864 317.487 352.105 317.875C351.352 318.264 350.448 318.458 349.393 318.458Z" fill="#089981"/><path d="M362.221 318.458C361.276 318.458 360.453 318.31 359.752 318.014C359.051 317.713 358.497 317.296 358.092 316.763C357.686 316.23 357.454 315.612 357.396 314.911L357.388 314.798H359.309L359.317 314.894C359.358 315.271 359.506 315.598 359.761 315.876C360.021 316.154 360.369 316.372 360.804 316.528C361.244 316.684 361.745 316.763 362.307 316.763C362.835 316.763 363.304 316.679 363.716 316.511C364.127 316.343 364.449 316.111 364.68 315.815C364.918 315.52 365.037 315.181 365.037 314.798V314.79C365.037 314.309 364.854 313.909 364.489 313.59C364.124 313.271 363.527 313.022 362.699 312.843L361.325 312.556C360.056 312.283 359.132 311.852 358.552 311.261C357.973 310.664 357.683 309.902 357.683 308.975V308.966C357.689 308.242 357.883 307.604 358.266 307.054C358.654 306.503 359.19 306.074 359.874 305.767C360.557 305.46 361.343 305.307 362.229 305.307C363.116 305.307 363.889 305.46 364.55 305.767C365.216 306.069 365.741 306.48 366.123 307.002C366.511 307.523 366.729 308.111 366.775 308.766L366.784 308.879H364.88L364.863 308.766C364.811 308.424 364.669 308.12 364.437 307.853C364.211 307.587 363.907 307.378 363.524 307.228C363.148 307.071 362.707 306.996 362.203 307.002C361.716 307.002 361.282 307.077 360.899 307.228C360.517 307.372 360.213 307.584 359.987 307.862C359.766 308.14 359.656 308.476 359.656 308.87V308.879C359.656 309.343 359.833 309.731 360.187 310.044C360.546 310.351 361.128 310.591 361.934 310.765L363.307 311.069C364.182 311.255 364.892 311.501 365.437 311.808C365.981 312.115 366.378 312.495 366.627 312.947C366.882 313.393 367.01 313.926 367.01 314.546V314.555C367.01 315.355 366.813 316.047 366.419 316.632C366.031 317.212 365.477 317.661 364.759 317.98C364.04 318.298 363.194 318.458 362.221 318.458Z" fill="#089981"/><path d="M369.946 318.153V305.611H374.474C375.72 305.611 376.783 305.857 377.664 306.35C378.545 306.842 379.217 307.552 379.681 308.479C380.15 309.406 380.385 310.528 380.385 311.843V311.86C380.385 313.187 380.15 314.32 379.681 315.259C379.217 316.198 378.545 316.916 377.664 317.415C376.789 317.907 375.726 318.153 374.474 318.153H369.946ZM371.893 316.467H374.257C375.132 316.467 375.876 316.288 376.491 315.928C377.111 315.569 377.58 315.047 377.899 314.364C378.223 313.68 378.386 312.854 378.386 311.886V311.869C378.386 310.907 378.22 310.084 377.89 309.401C377.566 308.717 377.096 308.195 376.482 307.836C375.868 307.477 375.126 307.297 374.257 307.297H371.893V316.467Z" fill="#089981"/><path d="M430.768 303.644C430.342 303.219 429.917 302.794 429.492 302.368L422.914 308.946L416.336 302.368C415.911 302.794 415.486 303.219 415.061 303.644L421.638 310.222L415.061 316.8C415.486 317.225 415.911 317.65 416.336 318.075L422.914 311.498L429.492 318.075C429.917 317.65 430.342 317.225 430.768 316.8L424.19 310.222L430.768 303.644Z" fill="#2962FF"/><rect x="396.211" y="295.038" width="2.09426" height="31.414" fill="#132042"/><circle opacity="0.2" cx="515.06" cy="310.221" r="9.94776" stroke="#2962FF" stroke-width="6.28279"/><circle cx="515.06" cy="310.221" r="5.75923" fill="#2962FF" stroke="#2962FF" stroke-width="2.09426"/><path d="M580.506 293.023H671.606C673.92 293.023 675.795 294.898 675.795 297.211V324.437C675.795 326.75 673.92 328.625 671.606 328.625H580.506V293.023Z" fill="url(#j45rddpsu)"/><path d="M593.507 318.735V317.403L598.854 311.723C599.541 311.001 600.068 310.403 600.433 309.93C600.805 309.458 601.063 309.032 601.206 308.653C601.349 308.273 601.42 307.862 601.42 307.418V307.396C601.42 306.86 601.299 306.384 601.055 305.968C600.819 305.553 600.483 305.224 600.046 304.981C599.609 304.737 599.101 304.615 598.521 304.615C597.884 304.615 597.322 304.748 596.836 305.013C596.349 305.27 595.966 305.628 595.687 306.086C595.415 306.537 595.279 307.053 595.279 307.633L595.268 307.676L593.41 307.665L593.4 307.633C593.407 306.724 593.636 305.915 594.087 305.206C594.538 304.497 595.153 303.943 595.934 303.542C596.714 303.134 597.591 302.93 598.564 302.93C599.481 302.93 600.3 303.119 601.023 303.499C601.753 303.878 602.326 304.394 602.741 305.045C603.163 305.696 603.375 306.434 603.375 307.257V307.278C603.375 307.851 603.271 308.406 603.063 308.943C602.856 309.479 602.491 310.081 601.968 310.746C601.453 311.405 600.723 312.221 599.778 313.194L595.644 317.446L596.17 316.394V317.446L595.655 317.006H603.632V318.735H593.507ZM611.889 319.046C611.181 319.046 610.479 318.91 609.785 318.638C609.09 318.366 608.46 317.93 607.895 317.328C607.329 316.72 606.879 315.922 606.542 314.934C606.206 313.939 606.037 312.718 606.037 311.273V311.251C606.037 309.504 606.274 308.012 606.746 306.774C607.219 305.528 607.902 304.576 608.797 303.918C609.692 303.259 610.765 302.93 612.018 302.93C612.891 302.93 613.679 303.087 614.38 303.402C615.082 303.717 615.669 304.161 616.141 304.734C616.614 305.299 616.936 305.961 617.107 306.72L617.14 306.86H615.186L615.143 306.741C614.985 306.305 614.76 305.933 614.466 305.625C614.18 305.317 613.829 305.077 613.414 304.905C612.999 304.734 612.526 304.648 611.997 304.648C611.052 304.648 610.282 304.927 609.688 305.485C609.101 306.036 608.664 306.766 608.378 307.676C608.099 308.585 607.941 309.583 607.906 310.671C607.899 310.75 607.895 310.832 607.895 310.918C607.895 310.997 607.895 311.079 607.895 311.165L608.357 313.721C608.357 314.393 608.511 315.002 608.818 315.546C609.133 316.09 609.556 316.523 610.085 316.845C610.622 317.167 611.216 317.328 611.868 317.328C612.526 317.328 613.12 317.171 613.65 316.856C614.187 316.541 614.609 316.115 614.917 315.578C615.232 315.041 615.39 314.444 615.39 313.785V313.764C615.39 313.084 615.239 312.482 614.939 311.96C614.645 311.43 614.233 311.015 613.704 310.714C613.181 310.414 612.58 310.263 611.9 310.263C611.234 310.263 610.633 310.414 610.096 310.714C609.559 311.008 609.133 311.416 608.818 311.938C608.511 312.454 608.357 313.044 608.357 313.71V313.721H607.712V311.015H608.013C608.214 310.578 608.511 310.174 608.904 309.802C609.298 309.429 609.778 309.132 610.343 308.91C610.909 308.688 611.538 308.577 612.233 308.577C613.213 308.577 614.087 308.803 614.853 309.254C615.626 309.698 616.234 310.306 616.678 311.079C617.122 311.852 617.344 312.733 617.344 313.721V313.742C617.344 314.766 617.107 315.678 616.635 316.48C616.163 317.275 615.515 317.901 614.692 318.359C613.876 318.817 612.941 319.046 611.889 319.046ZM625.343 319.046C624.369 319.046 623.503 318.857 622.745 318.477C621.986 318.098 621.374 317.579 620.908 316.92C620.45 316.262 620.182 315.517 620.103 314.687L620.092 314.569H621.971L621.982 314.655C622.047 315.156 622.229 315.61 622.53 316.018C622.838 316.426 623.235 316.748 623.722 316.985C624.208 317.221 624.756 317.339 625.364 317.339C626.059 317.339 626.671 317.189 627.2 316.888C627.737 316.587 628.152 316.169 628.446 315.632C628.747 315.095 628.897 314.479 628.897 313.785V313.764C628.897 313.084 628.747 312.479 628.446 311.949C628.145 311.419 627.73 311.004 627.2 310.703C626.678 310.403 626.077 310.252 625.397 310.252C624.881 310.252 624.402 310.331 623.958 310.489C623.521 310.639 623.131 310.872 622.787 311.187C622.651 311.315 622.523 311.455 622.401 311.605C622.279 311.756 622.168 311.924 622.068 312.11H620.382L621.188 303.241H629.938V304.959H622.745L622.218 310.188H622.315C622.551 309.837 622.845 309.544 623.195 309.308C623.546 309.071 623.936 308.892 624.366 308.771C624.795 308.642 625.253 308.577 625.74 308.577C626.728 308.577 627.601 308.803 628.36 309.254C629.119 309.698 629.717 310.306 630.153 311.079C630.59 311.852 630.808 312.736 630.808 313.731V313.753C630.808 314.791 630.572 315.707 630.099 316.502C629.634 317.296 628.99 317.919 628.167 318.37C627.351 318.821 626.409 319.046 625.343 319.046ZM634.287 318.864C633.922 318.864 633.611 318.738 633.353 318.488C633.102 318.23 632.977 317.922 632.977 317.565C632.977 317.199 633.102 316.892 633.353 316.641C633.611 316.383 633.922 316.255 634.287 316.255C634.652 316.255 634.96 316.383 635.21 316.641C635.461 316.892 635.586 317.199 635.586 317.565C635.586 317.922 635.461 318.23 635.21 318.488C634.96 318.738 634.652 318.864 634.287 318.864ZM643.446 319.046C642.279 319.046 641.28 318.721 640.45 318.069C639.62 317.411 638.983 316.48 638.539 315.277C638.095 314.068 637.873 312.64 637.873 310.993V310.972C637.873 309.326 638.095 307.901 638.539 306.698C638.983 305.496 639.62 304.569 640.45 303.918C641.28 303.259 642.279 302.93 643.446 302.93C644.62 302.93 645.622 303.259 646.452 303.918C647.29 304.569 647.93 305.496 648.374 306.698C648.825 307.901 649.051 309.326 649.051 310.972V310.993C649.051 312.64 648.825 314.068 648.374 315.277C647.93 316.48 647.29 317.411 646.452 318.069C645.622 318.721 644.62 319.046 643.446 319.046ZM643.446 317.361C644.219 317.361 644.877 317.103 645.421 316.587C645.965 316.065 646.381 315.328 646.667 314.376C646.96 313.424 647.107 312.296 647.107 310.993V310.972C647.107 309.669 646.96 308.545 646.667 307.6C646.381 306.648 645.965 305.915 645.421 305.399C644.877 304.884 644.219 304.626 643.446 304.626C642.687 304.626 642.036 304.884 641.492 305.399C640.948 305.915 640.532 306.648 640.246 307.6C639.96 308.545 639.817 309.669 639.817 310.972V310.993C639.817 312.296 639.96 313.424 640.246 314.376C640.532 315.328 640.948 316.065 641.492 316.587C642.036 317.103 642.687 317.361 643.446 317.361ZM657.039 319.046C655.872 319.046 654.874 318.721 654.043 318.069C653.213 317.411 652.576 316.48 652.132 315.277C651.688 314.068 651.467 312.64 651.467 310.993V310.972C651.467 309.326 651.688 307.901 652.132 306.698C652.576 305.496 653.213 304.569 654.043 303.918C654.874 303.259 655.872 302.93 657.039 302.93C658.213 302.93 659.215 303.259 660.046 303.918C660.883 304.569 661.524 305.496 661.967 306.698C662.418 307.901 662.644 309.326 662.644 310.972V310.993C662.644 312.64 662.418 314.068 661.967 315.277C661.524 316.48 660.883 317.411 660.046 318.069C659.215 318.721 658.213 319.046 657.039 319.046ZM657.039 317.361C657.812 317.361 658.471 317.103 659.015 316.587C659.559 316.065 659.974 315.328 660.26 314.376C660.554 313.424 660.701 312.296 660.701 310.993V310.972C660.701 309.669 660.554 308.545 660.26 307.6C659.974 306.648 659.559 305.915 659.015 305.399C658.471 304.884 657.812 304.626 657.039 304.626C656.28 304.626 655.629 304.884 655.085 305.399C654.541 305.915 654.126 306.648 653.839 307.6C653.553 308.545 653.41 309.669 653.41 310.972V310.993C653.41 312.296 653.553 313.424 653.839 314.376C654.126 315.328 654.541 316.065 655.085 316.587C655.629 317.103 656.28 317.361 657.039 317.361Z" fill="white"/><path d="M61.7265 132.476H58.043V134.601H61.7265V132.476ZM76.4608 134.601V132.476H69.0938L69.0936 134.601H76.4608ZM83.8277 132.476V134.601H91.1947L91.1949 132.476H83.8277ZM98.5618 132.476V134.601H105.929L105.929 132.476H98.5618ZM113.296 132.476L113.296 134.601H120.663L120.663 132.476H113.296ZM128.03 132.476L128.03 134.601H135.397V132.476H128.03ZM142.764 132.476L142.764 134.601H150.131V132.476H142.764ZM157.498 132.476L157.498 134.601H164.865V132.476H157.498ZM172.232 132.476L172.232 134.601H179.599V132.476H172.232ZM194.334 132.476H186.966L186.966 134.601H194.333L194.334 132.476ZM651.091 134.601H643.724L643.724 132.476H651.091L651.091 134.601ZM665.825 134.601H658.458L658.458 132.476H665.825L665.825 134.601ZM676.876 132.476H673.192L673.192 134.601H676.876V132.476ZM636.357 132.476H628.99L628.99 134.601H636.357L636.357 132.476ZM621.623 132.476H614.256V134.601H621.623V132.476ZM606.889 132.476H599.522L599.522 134.601H606.889L606.889 132.476ZM592.155 132.476H584.788L584.787 134.601H592.155L592.155 132.476ZM577.421 132.476H570.053L570.053 134.601H577.42L577.421 132.476ZM562.686 132.476H555.319L555.319 134.601H562.686L562.686 132.476ZM547.952 132.476H540.585L540.585 134.601H547.952L547.952 132.476ZM533.218 132.476H525.851L525.851 134.601H533.218L533.218 132.476ZM518.484 132.476H511.117L511.117 134.601H518.484L518.484 132.476ZM503.75 132.476H496.383L496.383 134.601H503.75L503.75 132.476ZM489.016 132.476H481.649L481.649 134.601H489.016L489.016 132.476ZM474.282 132.476H466.915L466.915 134.601H474.282L474.282 132.476ZM459.548 132.476H452.181L452.18 134.601H459.548L459.548 132.476ZM444.814 132.476H437.446L437.446 134.601H444.813L444.814 132.476ZM430.079 132.476H422.712L422.712 134.601H430.079L430.079 132.476ZM415.345 132.476H407.978L407.978 134.601H415.345L415.345 132.476ZM400.611 132.476H393.244L393.244 134.601H400.611L400.611 132.476ZM385.877 132.476H378.51L378.51 134.601H385.877L385.877 132.476ZM371.143 132.476H363.776L363.776 134.601H371.143L371.143 132.476ZM356.409 132.476H349.042L349.042 134.601H356.409L356.409 132.476ZM341.675 132.476H334.308L334.308 134.601H341.675L341.675 132.476ZM326.941 132.476H319.574L319.573 134.601H326.94L326.941 132.476ZM312.206 132.476H304.839L304.839 134.601H312.206L312.206 132.476ZM297.472 132.476H290.105L290.105 134.601H297.472L297.472 132.476ZM282.738 132.476H275.371L275.371 134.601H282.738L282.738 132.476ZM268.004 132.476H260.637L260.637 134.601H268.004L268.004 132.476ZM253.27 132.476H245.903L245.903 134.601H253.27L253.27 132.476ZM238.536 132.476H231.169L231.169 134.601H238.536L238.536 132.476ZM223.802 132.476H216.435L216.435 134.601H223.802L223.802 132.476ZM209.068 132.476H201.701L201.701 134.601H209.068L209.068 132.476Z" fill="#183C85"/><rect x="118.969" y="116.536" width="93.5159" height="36.1311" rx="8.50144" fill="#2962FF"/><path d="M149.848 142.04V140.307H154.632C155.816 140.307 156.713 140.071 157.323 139.599C157.933 139.127 158.238 138.44 158.238 137.539V137.518C158.238 136.915 158.097 136.41 157.813 136.003C157.53 135.596 157.105 135.291 156.538 135.088C155.979 134.884 155.282 134.782 154.446 134.782H149.848V133.093H153.891C155.075 133.093 155.968 132.879 156.571 132.451C157.174 132.015 157.476 131.379 157.476 130.544V130.522C157.476 129.73 157.21 129.12 156.68 128.691C156.15 128.263 155.402 128.048 154.435 128.048H149.848V126.316H154.86C155.805 126.316 156.618 126.479 157.301 126.806C157.991 127.126 158.522 127.58 158.892 128.168C159.27 128.749 159.459 129.436 159.459 130.228V130.249C159.459 130.794 159.335 131.31 159.088 131.797C158.848 132.284 158.522 132.694 158.108 133.028C157.693 133.355 157.225 133.562 156.702 133.649V133.78C157.436 133.867 158.068 134.081 158.598 134.423C159.128 134.764 159.535 135.207 159.818 135.752C160.109 136.297 160.254 136.918 160.254 137.616V137.637C160.254 138.553 160.04 139.341 159.611 140.002C159.19 140.656 158.583 141.161 157.792 141.517C157 141.865 156.044 142.04 154.926 142.04H149.848ZM148.867 142.04V126.316H150.829V142.04H148.867Z" fill="white"/><path d="M166.749 142.247C165.884 142.247 165.154 142.08 164.558 141.745C163.963 141.404 163.512 140.914 163.207 140.274C162.902 139.628 162.749 138.858 162.749 137.964V130.457H164.645V137.55C164.645 138.553 164.853 139.308 165.267 139.817C165.688 140.318 166.356 140.569 167.272 140.569C167.766 140.569 168.201 140.492 168.579 140.34C168.964 140.187 169.287 139.969 169.549 139.686C169.818 139.403 170.018 139.061 170.148 138.662C170.286 138.255 170.355 137.801 170.355 137.3V130.457H172.251V142.04H170.355V140.34H170.235C170.039 140.732 169.778 141.073 169.451 141.364C169.131 141.647 168.743 141.865 168.285 142.018C167.835 142.17 167.322 142.247 166.749 142.247Z" fill="white"/><path d="M176.425 146.039C176.279 146.039 176.123 146.031 175.956 146.017C175.796 146.01 175.651 145.995 175.52 145.973V144.415C175.622 144.437 175.735 144.451 175.858 144.459C175.989 144.466 176.116 144.47 176.24 144.47C176.806 144.47 177.264 144.342 177.612 144.088C177.961 143.841 178.244 143.387 178.462 142.726L178.68 142.051L174.387 130.457H176.414L179.901 140.928L179.28 140.024H180.053L179.432 140.928L182.919 130.457H184.913L180.38 142.759C180.082 143.572 179.759 144.219 179.41 144.698C179.062 145.178 178.651 145.519 178.179 145.723C177.707 145.933 177.122 146.039 176.425 146.039Z" fill="white"/><path d="M254.145 125.133C254.145 120.437 257.951 116.631 262.646 116.631H435.863C440.558 116.631 444.364 120.437 444.364 125.133V144.261C444.364 148.956 440.558 152.762 435.863 152.762H262.646C257.951 152.762 254.145 148.956 254.145 144.261V125.133Z" fill="#161718"/><path fill-rule="evenodd" d="M435.863 118.757H262.646C259.125 118.757 256.27 121.611 256.27 125.133V144.261C256.27 147.782 259.125 150.637 262.646 150.637H435.863C439.384 150.637 442.239 147.782 442.239 144.261V125.133C442.239 121.611 439.384 118.757 435.863 118.757ZM262.646 116.631C257.951 116.631 254.145 120.437 254.145 125.133V144.261C254.145 148.956 257.951 152.762 262.646 152.762H435.863C440.558 152.762 444.364 148.956 444.364 144.261V125.133C444.364 120.437 440.558 116.631 435.863 116.631H262.646Z" fill="#142E61"/><g opacity="0.7"><path d="M272.715 142.135V140.783L278.12 135.019C278.803 134.285 279.333 133.682 279.711 133.21C280.089 132.731 280.35 132.299 280.495 131.914C280.648 131.529 280.724 131.111 280.724 130.66V130.639C280.724 130.094 280.601 129.607 280.354 129.178C280.107 128.75 279.762 128.412 279.319 128.165C278.883 127.918 278.363 127.795 277.76 127.795C277.128 127.795 276.565 127.925 276.071 128.187C275.585 128.448 275.203 128.812 274.927 129.277C274.651 129.734 274.513 130.261 274.513 130.857V130.889H272.628L272.617 130.857C272.617 129.934 272.842 129.113 273.293 128.394C273.75 127.675 274.372 127.112 275.156 126.705C275.948 126.291 276.838 126.084 277.826 126.084C278.756 126.084 279.587 126.276 280.321 126.661C281.062 127.039 281.643 127.559 282.065 128.22C282.493 128.881 282.707 129.633 282.707 130.475V130.497C282.707 131.085 282.602 131.652 282.391 132.197C282.181 132.742 281.814 133.352 281.291 134.027C280.768 134.696 280.027 135.52 279.068 136.501L274.905 140.783L275.429 139.77V140.783L274.916 140.38H282.969V142.135H272.715Z" fill="#2962FF"/><path d="M291.229 142.461C290.052 142.461 289.042 142.131 288.199 141.47C287.364 140.802 286.721 139.857 286.271 138.637C285.82 137.409 285.595 135.956 285.595 134.278V134.256C285.595 132.578 285.82 131.129 286.271 129.909C286.721 128.688 287.364 127.747 288.199 127.086C289.042 126.418 290.052 126.084 291.229 126.084C292.405 126.084 293.415 126.418 294.258 127.086C295.101 127.747 295.747 128.688 296.197 129.909C296.648 131.129 296.873 132.578 296.873 134.256V134.278C296.873 135.956 296.648 137.409 296.197 138.637C295.747 139.857 295.101 140.802 294.258 141.47C293.415 142.131 292.405 142.461 291.229 142.461ZM291.229 140.751C291.999 140.751 292.656 140.489 293.201 139.966C293.753 139.436 294.174 138.688 294.465 137.721C294.755 136.755 294.901 135.607 294.901 134.278V134.256C294.901 132.927 294.755 131.783 294.465 130.824C294.174 129.858 293.753 129.113 293.201 128.59C292.656 128.067 291.999 127.806 291.229 127.806C290.459 127.806 289.801 128.067 289.256 128.59C288.712 129.113 288.294 129.858 288.003 130.824C287.713 131.783 287.567 132.927 287.567 134.256V134.278C287.567 135.607 287.713 136.755 288.003 137.721C288.294 138.688 288.712 139.436 289.256 139.966C289.801 140.489 290.459 140.751 291.229 140.751Z" fill="#2962FF"/><path d="M330.351 142.135V126.411H332.312V140.369H339.896V142.135H330.351Z" fill="#2962FF"/><path d="M342.479 142.135V130.551H344.375V142.135H342.479ZM343.437 128.416C343.089 128.416 342.791 128.292 342.544 128.045C342.297 127.791 342.173 127.493 342.173 127.152C342.173 126.796 342.297 126.498 342.544 126.258C342.791 126.011 343.089 125.888 343.437 125.888C343.786 125.888 344.08 126.011 344.32 126.258C344.567 126.498 344.691 126.796 344.691 127.152C344.691 127.493 344.567 127.791 344.32 128.045C344.08 128.292 343.786 128.416 343.437 128.416Z" fill="#2962FF"/><path d="M347.567 142.135V130.551H349.463V132.284H349.594C349.848 131.681 350.248 131.205 350.793 130.857C351.338 130.508 351.984 130.334 352.732 130.334C353.263 130.334 353.735 130.421 354.149 130.595C354.57 130.769 354.933 131.013 355.239 131.325C355.544 131.637 355.783 132.008 355.958 132.437H356.088C356.299 132.008 356.579 131.637 356.927 131.325C357.283 131.013 357.694 130.769 358.159 130.595C358.624 130.421 359.125 130.334 359.663 130.334C360.44 130.334 361.105 130.486 361.657 130.791C362.216 131.089 362.641 131.521 362.932 132.088C363.229 132.654 363.378 133.334 363.378 134.126V142.135H361.482V134.561C361.482 134.002 361.391 133.537 361.21 133.167C361.036 132.789 360.767 132.502 360.404 132.306C360.048 132.11 359.604 132.012 359.074 132.012C358.544 132.012 358.079 132.131 357.679 132.371C357.287 132.611 356.978 132.934 356.753 133.341C356.528 133.748 356.415 134.205 356.415 134.714V142.135H354.519V134.3C354.519 133.842 354.421 133.443 354.225 133.101C354.029 132.753 353.749 132.484 353.386 132.295C353.03 132.106 352.609 132.012 352.122 132.012C351.621 132.012 351.167 132.142 350.76 132.404C350.36 132.658 350.044 133.007 349.812 133.45C349.58 133.886 349.463 134.376 349.463 134.921V142.135H347.567Z" fill="#2962FF"/><path d="M366.495 142.135V130.551H368.391V142.135H366.495ZM367.454 128.416C367.105 128.416 366.807 128.292 366.56 128.045C366.313 127.791 366.19 127.493 366.19 127.152C366.19 126.796 366.313 126.498 366.56 126.258C366.807 126.011 367.105 125.888 367.454 125.888C367.802 125.888 368.097 126.011 368.336 126.258C368.583 126.498 368.707 126.796 368.707 127.152C368.707 127.493 368.583 127.791 368.336 128.045C368.097 128.292 367.802 128.416 367.454 128.416Z" fill="#2962FF"/><path d="M375.572 142.276C374.431 142.276 373.596 142.033 373.065 141.546C372.535 141.052 372.27 140.253 372.27 139.149V132.121H370.483V130.551H372.27V127.5H374.231V130.551H376.639V132.121H374.231V138.844C374.231 139.505 374.362 139.97 374.624 140.239C374.885 140.5 375.299 140.631 375.866 140.631C376.018 140.631 376.149 140.627 376.258 140.62C376.374 140.613 376.501 140.602 376.639 140.587V142.178C376.48 142.2 376.309 142.222 376.127 142.244C375.946 142.265 375.76 142.276 375.572 142.276Z" fill="#2962FF"/></g><path opacity="0.7" d="M426.298 127.49C425.866 127.059 425.435 126.627 425.003 126.195L418.328 132.871L411.652 126.195C411.22 126.627 410.789 127.059 410.357 127.49L417.033 134.166L410.357 140.841C410.789 141.272 411.221 141.704 411.652 142.136L418.328 135.46L425.003 142.136C425.435 141.704 425.866 141.273 426.298 140.841L419.622 134.166L426.298 127.49Z" fill="#2962FF"/><path d="M521.815 133.899C521.815 137.714 518.722 140.807 514.907 140.807C511.093 140.807 508 137.714 508 133.899C508 130.084 511.093 126.992 514.907 126.992C518.722 126.992 521.815 130.084 521.815 133.899Z" fill="#161719"/><path fill-rule="evenodd" d="M514.907 138.681C517.548 138.681 519.689 136.54 519.689 133.899C519.689 131.258 517.548 129.117 514.907 129.117C512.266 129.117 510.125 131.258 510.125 133.899C510.125 136.54 512.266 138.681 514.907 138.681ZM514.907 140.807C518.722 140.807 521.815 137.714 521.815 133.899C521.815 130.084 518.722 126.992 514.907 126.992C511.093 126.992 508 130.084 508 133.899C508 137.714 511.093 140.807 514.907 140.807Z" fill="#143A87"/><path d="M672.625 118.661C674.386 118.661 675.813 120.089 675.813 121.85V147.354C675.813 149.114 674.386 150.542 672.625 150.542H581.234V118.661H672.625Z" fill="#161718" stroke="#142E61" stroke-width="2.12536"/><g opacity="0.7"><path d="M593.237 142.246V140.895L598.641 135.131C599.324 134.397 599.855 133.794 600.232 133.322C600.61 132.842 600.872 132.41 601.017 132.025C601.169 131.64 601.246 131.222 601.246 130.772V130.75C601.246 130.205 601.122 129.719 600.875 129.29C600.628 128.862 600.283 128.524 599.84 128.277C599.404 128.03 598.885 127.906 598.282 127.906C597.65 127.906 597.087 128.037 596.593 128.299C596.106 128.56 595.725 128.923 595.449 129.388C595.173 129.846 595.035 130.373 595.035 130.968V131.001H593.15L593.139 130.968C593.139 130.046 593.364 129.225 593.814 128.506C594.272 127.786 594.893 127.223 595.678 126.817C596.469 126.403 597.359 126.195 598.347 126.195C599.277 126.195 600.109 126.388 600.843 126.773C601.584 127.151 602.165 127.67 602.586 128.331C603.015 128.992 603.229 129.744 603.229 130.587V130.609C603.229 131.197 603.124 131.764 602.913 132.309C602.702 132.853 602.335 133.464 601.812 134.139C601.289 134.807 600.548 135.632 599.589 136.613L595.427 140.895L595.95 139.882V140.895L595.438 140.492H603.49V142.246H593.237Z" fill="#2962FF"/><path d="M612.012 142.573C611.285 142.573 610.57 142.439 609.865 142.17C609.168 141.894 608.532 141.447 607.958 140.83C607.384 140.212 606.927 139.402 606.585 138.4C606.244 137.39 606.073 136.148 606.073 134.673V134.651C606.073 132.871 606.313 131.353 606.792 130.096C607.272 128.832 607.962 127.866 608.863 127.198C609.771 126.53 610.864 126.195 612.142 126.195C613.029 126.195 613.824 126.355 614.529 126.675C615.241 126.995 615.836 127.445 616.316 128.026C616.795 128.6 617.122 129.272 617.296 130.042L617.329 130.184H615.346L615.302 130.064C615.143 129.621 614.914 129.243 614.616 128.931C614.325 128.618 613.969 128.375 613.548 128.2C613.127 128.026 612.651 127.939 612.121 127.939C611.162 127.939 610.381 128.219 609.778 128.778C609.182 129.337 608.739 130.078 608.448 131.001C608.165 131.923 608.005 132.937 607.969 134.041C607.962 134.128 607.958 134.215 607.958 134.303C607.958 134.39 607.958 134.477 607.958 134.564L608.427 137.168C608.427 137.851 608.583 138.472 608.895 139.032C609.215 139.584 609.643 140.023 610.181 140.35C610.719 140.677 611.322 140.841 611.99 140.841C612.651 140.841 613.25 140.681 613.788 140.361C614.333 140.041 614.761 139.609 615.074 139.064C615.393 138.512 615.553 137.902 615.553 137.234V137.212C615.553 136.522 615.4 135.908 615.095 135.37C614.798 134.833 614.38 134.412 613.842 134.106C613.312 133.801 612.705 133.649 612.023 133.649C611.34 133.649 610.726 133.801 610.181 134.106C609.643 134.404 609.215 134.818 608.895 135.349C608.583 135.879 608.427 136.482 608.427 137.158V137.168H607.773V134.401H608.1C608.303 133.958 608.601 133.551 608.993 133.18C609.393 132.802 609.876 132.501 610.443 132.276C611.009 132.043 611.648 131.927 612.36 131.927C613.356 131.927 614.242 132.156 615.019 132.614C615.796 133.064 616.41 133.685 616.861 134.477C617.311 135.269 617.536 136.166 617.536 137.168V137.19C617.536 138.229 617.296 139.155 616.817 139.969C616.338 140.775 615.684 141.411 614.856 141.876C614.028 142.341 613.079 142.573 612.012 142.573Z" fill="#2962FF"/><path d="M625.85 142.508C624.739 142.508 623.755 142.315 622.897 141.93C622.04 141.545 621.365 141.015 620.871 140.339C620.384 139.656 620.141 138.876 620.141 137.997V137.975C620.141 137.328 620.282 136.729 620.565 136.177C620.849 135.625 621.245 135.156 621.753 134.771C622.262 134.379 622.85 134.106 623.518 133.954V133.91C622.661 133.642 621.978 133.198 621.47 132.581C620.961 131.963 620.707 131.241 620.707 130.412V130.391C620.707 129.599 620.929 128.894 621.372 128.277C621.815 127.652 622.425 127.162 623.202 126.806C623.98 126.442 624.862 126.261 625.85 126.261C626.846 126.261 627.728 126.442 628.498 126.806C629.276 127.162 629.886 127.652 630.329 128.277C630.772 128.894 630.994 129.599 630.994 130.391V130.412C630.994 131.241 630.739 131.963 630.231 132.581C629.73 133.198 629.047 133.642 628.182 133.91V133.954C628.858 134.106 629.446 134.379 629.947 134.771C630.456 135.156 630.852 135.625 631.135 136.177C631.419 136.729 631.56 137.328 631.56 137.975V137.997C631.56 138.876 631.317 139.656 630.83 140.339C630.343 141.015 629.668 141.545 628.803 141.93C627.946 142.315 626.962 142.508 625.85 142.508ZM625.85 140.797C626.577 140.797 627.216 140.673 627.768 140.426C628.328 140.172 628.767 139.827 629.087 139.391C629.406 138.948 629.566 138.443 629.566 137.877V137.855C629.566 137.281 629.406 136.772 629.087 136.329C628.774 135.886 628.338 135.538 627.779 135.283C627.22 135.029 626.577 134.902 625.85 134.902C625.124 134.902 624.481 135.029 623.922 135.283C623.362 135.538 622.923 135.886 622.603 136.329C622.291 136.772 622.135 137.281 622.135 137.855V137.877C622.135 138.443 622.294 138.948 622.614 139.391C622.934 139.827 623.373 140.172 623.933 140.426C624.492 140.673 625.131 140.797 625.85 140.797ZM625.85 133.18C626.482 133.18 627.038 133.071 627.518 132.853C627.997 132.628 628.371 132.319 628.64 131.927C628.909 131.535 629.043 131.084 629.043 130.576V130.554C629.043 130.046 628.909 129.595 628.64 129.203C628.371 128.811 627.997 128.506 627.518 128.288C627.038 128.062 626.482 127.95 625.85 127.95C625.218 127.95 624.663 128.062 624.183 128.288C623.704 128.506 623.33 128.811 623.061 129.203C622.792 129.595 622.658 130.046 622.658 130.554V130.576C622.658 131.084 622.792 131.535 623.061 131.927C623.33 132.319 623.704 132.628 624.183 132.853C624.663 133.071 625.218 133.18 625.85 133.18Z" fill="#2962FF"/><path d="M635.189 142.377C634.818 142.377 634.499 142.246 634.23 141.985C633.968 141.716 633.838 141.396 633.838 141.026C633.838 140.648 633.968 140.328 634.23 140.067C634.499 139.805 634.818 139.675 635.189 139.675C635.566 139.675 635.886 139.805 636.148 140.067C636.409 140.328 636.54 140.648 636.54 141.026C636.54 141.396 636.409 141.716 636.148 141.985C635.886 142.246 635.566 142.377 635.189 142.377Z" fill="#2962FF"/><path d="M644.636 142.573C643.648 142.573 642.769 142.381 641.999 141.996C641.229 141.611 640.612 141.088 640.147 140.426C639.682 139.758 639.409 139.003 639.329 138.16L639.319 138.04H641.225L641.236 138.127C641.302 138.636 641.487 139.097 641.792 139.511C642.097 139.925 642.497 140.252 642.991 140.492C643.485 140.732 644.04 140.851 644.658 140.851C645.355 140.851 645.973 140.699 646.51 140.394C647.048 140.081 647.466 139.653 647.763 139.108C648.069 138.563 648.221 137.938 648.221 137.234V137.212C648.221 136.522 648.069 135.908 647.763 135.37C647.458 134.826 647.041 134.401 646.51 134.096C645.98 133.79 645.373 133.638 644.691 133.638C644.16 133.638 643.674 133.718 643.23 133.878C642.787 134.037 642.391 134.277 642.043 134.597C641.905 134.728 641.774 134.869 641.65 135.022C641.534 135.174 641.425 135.345 641.324 135.534H639.602L640.43 126.522H649.267V128.277H641.999L641.465 133.573H641.585C641.825 133.217 642.119 132.919 642.468 132.679C642.816 132.439 643.209 132.258 643.645 132.134C644.08 132.011 644.542 131.949 645.028 131.949C646.024 131.949 646.906 132.174 647.676 132.625C648.446 133.075 649.049 133.696 649.485 134.488C649.928 135.272 650.15 136.17 650.15 137.179V137.201C650.15 138.254 649.914 139.188 649.442 140.002C648.969 140.808 648.319 141.44 647.491 141.898C646.663 142.348 645.711 142.573 644.636 142.573Z" fill="#2962FF"/><path d="M658.497 142.573C657.77 142.573 657.055 142.439 656.35 142.17C655.653 141.894 655.017 141.447 654.443 140.83C653.869 140.212 653.412 139.402 653.07 138.4C652.729 137.39 652.558 136.148 652.558 134.673V134.651C652.558 132.871 652.798 131.353 653.277 130.096C653.757 128.832 654.447 127.866 655.347 127.198C656.256 126.53 657.349 126.195 658.627 126.195C659.514 126.195 660.309 126.355 661.014 126.675C661.726 126.995 662.321 127.445 662.801 128.026C663.28 128.6 663.607 129.272 663.781 130.042L663.814 130.184H661.831L661.787 130.064C661.628 129.621 661.399 129.243 661.101 128.931C660.81 128.618 660.454 128.375 660.033 128.2C659.612 128.026 659.136 127.939 658.606 127.939C657.647 127.939 656.866 128.219 656.263 128.778C655.667 129.337 655.224 130.078 654.933 131.001C654.65 131.923 654.49 132.937 654.454 134.041C654.447 134.128 654.443 134.215 654.443 134.303C654.443 134.39 654.443 134.477 654.443 134.564L654.912 137.168C654.912 137.851 655.068 138.472 655.38 139.032C655.7 139.584 656.128 140.023 656.666 140.35C657.204 140.677 657.807 140.841 658.475 140.841C659.136 140.841 659.735 140.681 660.273 140.361C660.818 140.041 661.246 139.609 661.559 139.064C661.878 138.512 662.038 137.902 662.038 137.234V137.212C662.038 136.522 661.885 135.908 661.58 135.37C661.283 134.833 660.865 134.412 660.327 134.106C659.797 133.801 659.19 133.649 658.508 133.649C657.825 133.649 657.211 133.801 656.666 134.106C656.128 134.404 655.7 134.818 655.38 135.349C655.068 135.879 654.912 136.482 654.912 137.158V137.168H654.258V134.401H654.585C654.788 133.958 655.086 133.551 655.478 133.18C655.878 132.802 656.361 132.501 656.928 132.276C657.494 132.043 658.133 131.927 658.845 131.927C659.841 131.927 660.727 132.156 661.504 132.614C662.281 133.064 662.895 133.685 663.346 134.477C663.796 135.269 664.021 136.166 664.021 137.168V137.19C664.021 138.229 663.781 139.155 663.302 139.969C662.823 140.775 662.169 141.411 661.341 141.876C660.512 142.341 659.564 142.573 658.497 142.573Z" fill="#2962FF"/></g><rect x="311.529" y="118.756" width="2.12536" height="31.8804" fill="#182A5B"/><rect x="393.355" y="118.756" width="2.12536" height="31.8804" fill="#182A5B"/><defs><filter id="b45rddpsu" x="-56.1448" y="-99.8902" width="851.969" height="645.972" filterUnits="userSpaceOnUse" color-interpolation-filters="sRGB"><feOffset/><feGaussianBlur stdDeviation="55.4054"/><feColorMatrix values="0 0 0 0 0 0 0 0 0 0 0 0 0 0 0 0 0 0 0.3 0"/><feBlend in="SourceGraphic"/></filter><linearGradient id="c45rddpsu" x1="78.0954" y1="52.4747" x2="650.238" y2="227.22" gradientUnits="userSpaceOnUse"><stop stop-color="#121314"/><stop offset="1"/></linearGradient><linearGradient id="d45rddpsu" x1="86.2976" y1="52.4747" x2="463.81" y2="498.073" gradientUnits="userSpaceOnUse"><stop stop-color="white"/><stop offset="1" stop-opacity="0"/></linearGradient><linearGradient id="e45rddpsu" x1="581.777" y1="264.446" x2="686.078" y2="264.446" gradientUnits="userSpaceOnUse"><stop stop-opacity="0"/><stop offset="1"/></linearGradient><linearGradient id="f45rddpsu" x1="273.853" y1="155.102" x2="273.853" y2="408.734" gradientUnits="userSpaceOnUse"><stop stop-color="#FF4D4D"/><stop offset="1" stop-color="#FF4D4D" stop-opacity="0"/></linearGradient><linearGradient id="g45rddpsu" x1="771.317" y1="717.785" x2="686.078" y2="717.785" gradientUnits="userSpaceOnUse"><stop/><stop offset="1" stop-opacity="0"/></linearGradient><linearGradient id="h45rddpsu" x1="627.489" y1="210.72" x2="627.489" y2="245.881" gradientUnits="userSpaceOnUse"><stop stop-color="#089981"/><stop offset="1" stop-color="#03332B"/></linearGradient><linearGradient id="i45rddpsu" x1="626.923" y1="362.081" x2="626.923" y2="398.308" gradientUnits="userSpaceOnUse"><stop stop-color="#FF9800"/><stop offset="1" stop-color="#995B00"/></linearGradient><linearGradient id="j45rddpsu" x1="628.15" y1="293.023" x2="628.15" y2="328.625" gradientUnits="userSpaceOnUse"><stop stop-color="#2962FF"/><stop offset="1" stop-color="#193B99"/></linearGradient><clipPath id="a45rddpsu"><rect width="652.079" height="452.833" transform="translate(34 23.9922)"/></clipPath></defs></svg>