<svg width="132" height="60" viewBox="0 0 132 60" fill="none" xmlns="http://www.w3.org/2000/svg">
<rect width="132" height="60" fill="black"/>
<path d="M47.6842 37.12C47.6842 37.606 47.2181 38 46.7302 38C46.2423 38 45.7895 37.606 45.7895 37.12V32.3214L40.877 24.3927C40.4969 23.7863 40.9346 23 41.6524 23C41.9639 23 42.254 23.1581 42.4221 23.4195L46.7302 30.12L51.0592 23.4163C51.2268 23.1568 51.5152 23 51.8249 23C52.5398 23 52.9758 23.783 52.5973 24.3871L47.6842 32.3414V37.12Z" fill="white"/>
<path d="M33.4737 37.12C33.4737 37.606 33.011 38 32.5263 38C32.0416 38 31.5789 37.606 31.5789 37.12V24.56H27.6199C27.1904 24.56 26.8421 24.2108 26.8421 23.78C26.8421 23.3492 27.1904 23 27.6199 23H37.4327C37.8623 23 38.2105 23.3492 38.2105 23.78C38.2105 24.2108 37.8623 24.56 37.4327 24.56H33.4737V37.12Z" fill="white"/>
<path d="M23.3684 23C23.8916 23 24.3158 23.394 24.3158 23.88V37.12C24.3158 37.606 23.8916 38 23.3684 38C22.8452 38 22.4211 37.606 22.4211 37.12V23.88C22.4211 23.394 22.8452 23 23.3684 23Z" fill="white"/>
<path d="M18.3917 35.2865C18.7145 35.6067 18.7186 36.1299 18.3608 36.4111C17.0017 37.4795 15.2895 38 13.5642 38C11.5522 38 9.57821 37.2978 8.14318 35.875C6.71638 34.4468 6 32.4955 6 30.5C6 28.5091 6.7108 26.5452 8.14318 25.125C9.57821 23.7022 11.5522 23 13.5642 23C15.2818 23 17.0016 23.5206 18.356 24.5839C18.7119 24.8633 18.7098 25.3829 18.3915 25.7037C18.0562 26.0415 17.506 26.0232 17.1332 25.7265C16.1166 24.9172 14.8353 24.5 13.5351 24.5C12.7011 24.5 11.9317 24.6506 11.227 24.9519C8.98999 25.888 7.74558 28.162 7.74558 30.5C7.74558 32.0867 8.27863 33.6331 9.38448 34.7981C10.4746 35.919 11.9732 36.5 13.5351 36.5C14.8445 36.5 16.119 36.0889 17.1393 35.2701C17.509 34.9734 18.0554 34.9531 18.3917 35.2865Z" fill="white"/>
<path d="M101.331 38C101.003 38 100.737 37.7361 100.737 37.4105V23.5836C100.737 23.2613 101 23 101.325 23H109.954C110.389 23 110.741 23.3492 110.741 23.78C110.741 24.2108 110.389 24.56 109.954 24.56H102.631V29.6H108.066C108.5 29.6 108.852 29.9492 108.852 30.38C108.852 30.8108 108.5 31.125 108.066 31.125H102.631V36.44H110.055C110.49 36.44 110.842 36.7892 110.842 37.22C110.842 37.6508 110.49 38 110.055 38H101.331Z" fill="white"/>
<path d="M86.3705 38C85.5844 38 84.9471 37.3451 84.9471 36.5371V24.4629C84.9471 23.6549 85.5844 23 86.3705 23H89.1507C90.9412 23 92.4787 23.3 93.7631 23.9C95.0541 24.5 96.0434 25.36 96.731 26.48C97.4251 27.6 97.7722 28.94 97.7722 30.5C97.7722 32.0533 97.4251 33.3933 96.731 34.52C96.0434 35.64 95.0541 36.5 93.7631 37.1C92.4787 37.7 90.9412 38 89.1507 38H86.3705ZM86.6597 36.44H89.2286C90.6623 36.44 91.8851 36.2067 92.8971 35.74C93.9091 35.2733 94.681 34.5967 95.213 33.71C95.7514 32.8233 96.0206 31.7533 96.0206 30.5C96.0206 29.2467 95.7514 28.1767 95.213 27.29C94.681 26.4033 93.9091 25.7267 92.8971 25.26C91.8851 24.7933 90.6623 24.56 89.2286 24.56H86.6597V36.44Z" fill="white"/>
<path d="M63.7892 23C64.3124 23 64.7365 23.394 64.7365 23.88V37.12C64.7365 37.606 64.3124 38 63.7892 38C63.2659 38 62.8418 37.606 62.8418 37.12V23.88C62.8418 23.394 63.2659 23 63.7892 23Z" fill="white"/>
<path d="M79.4512 23.8525C79.4512 23.3817 79.8329 23 80.3037 23C80.7746 23 81.1562 23.3817 81.1562 23.8525V36.5986C81.1562 36.6245 81.1551 36.6501 81.1528 36.6753C81.1551 36.7055 81.1562 36.7359 81.1562 36.7666C81.1562 37.4332 80.6158 37.9736 79.9492 37.9736C79.5062 37.9736 79.1189 37.7349 78.9089 37.3791C78.8807 37.3506 78.8541 37.3197 78.8294 37.2866L70.2305 25.7312V37.1475C70.2305 37.6183 69.8488 38 69.3779 38C68.9071 38 68.5254 37.6183 68.5254 37.1475V24.4014C68.5254 24.3726 68.5268 24.3442 68.5296 24.3162C68.5268 24.2828 68.5254 24.249 68.5254 24.2148C68.5254 23.5482 69.0658 23.0078 69.7324 23.0078C70.1528 23.0078 70.523 23.2227 70.7391 23.5486C70.7519 23.5636 70.7643 23.5791 70.7762 23.5951L79.4512 35.2527V23.8525Z" fill="white"/>
<path d="M125.299 23.1808C125.686 23.4682 125.767 24.0152 125.48 24.4026L121.147 30.2422L125.892 36.6381C126.18 37.0255 126.099 37.5725 125.711 37.8599C125.324 38.1474 124.777 38.0663 124.489 37.6789L120.06 31.708L115.63 37.6789C115.342 38.0663 114.795 38.1474 114.408 37.8599C114.02 37.5725 113.939 37.0255 114.227 36.6381L118.972 30.2422L114.639 24.4026C114.352 24.0152 114.433 23.4682 114.821 23.1808C115.208 22.8934 115.755 22.9744 116.042 23.3618L120.06 28.7764L124.077 23.3618C124.364 22.9744 124.911 22.8934 125.299 23.1808Z" fill="white"/>
</svg>
