<svg xmlns="http://www.w3.org/2000/svg" width="230" height="100" viewBox="0 0 230 100"><path d="M61.72 48.48a8.83 8.83 0 0 1 9-9.06 9.04 9.04 0 0 1 6.81 2.7l-1.97 2.25c-1.4-1.3-2.87-2.2-4.9-2.2-3.31 0-5.73 2.76-5.73 6.14v.05c0 3.44 2.42 6.2 5.74 6.2 2.14 0 3.49-.85 5-2.26l1.97 1.97a8.94 8.94 0 0 1-7.08 3.1c-5.07.05-8.84-3.89-8.84-8.9zm18.63-8.78h3.26l5.29 8.27 5.34-8.27h3.26v17.44h-3.09V44.65l-5.51 8.22h-.06l-5.46-8.16v12.43h-3.03V39.7zm20.42 0h12.94v2.76h-9.85v4.5h8.72v2.75h-8.72v4.67h9.96v2.76h-13.05V39.7zm19.41 8.78a8.86 8.86 0 0 1 9-9.06c3.03 0 4.9.84 6.7 2.36l-1.98 2.3a6.9 6.9 0 0 0-4.9-1.85c-3.2 0-5.62 2.82-5.62 6.13v.06c0 3.6 2.37 6.25 5.91 6.25 1.63 0 3.15-.51 4.22-1.3v-3.26h-4.44v-2.65h7.42v7.32a11.14 11.14 0 0 1-7.26 2.7c-5.45-.06-9.05-3.94-9.05-9zm19.46-4.5h3.04v2.98c.84-1.97 2.36-3.32 4.67-3.2v3.2h-.17c-2.65 0-4.5 1.74-4.5 5.23v5h-3.04v-13.2zm8.89 6.63a6.87 6.87 0 0 1 7.03-6.92 6.76 6.76 0 0 1 6.98 6.81v.06a6.9 6.9 0 0 1-7.03 6.86 6.8 6.8 0 0 1-6.98-6.8zm11.03 0c0-2.36-1.7-4.27-4.06-4.27-2.41 0-3.93 1.91-3.93 4.16v.06c0 2.3 1.69 4.22 4 4.22 2.47.05 3.99-1.86 3.99-4.17zm5.4 1.75v-8.38h3.03v7.48c0 2.02 1.02 3.2 2.82 3.2 1.74 0 2.98-1.23 2.98-3.26v-7.42h3.04v13.16h-3.04v-2.02a4.76 4.76 0 0 1-4.1 2.3c-2.99 0-4.73-2.02-4.73-5.06zm14.91-8.38h3.03v2.19a5.31 5.31 0 0 1 4.45-2.48c3.1 0 6.13 2.48 6.13 6.81v.06c0 4.33-2.98 6.8-6.13 6.8a5.22 5.22 0 0 1-4.44-2.3v6.8h-3.04V43.99zm10.52 6.63c0-2.58-1.75-4.27-3.77-4.27-2.03 0-3.83 1.69-3.83 4.22v.05c0 2.54 1.8 4.22 3.83 4.22 2.08-.05 3.77-1.63 3.77-4.22z" fill="#fff"/><path d="M52.22 48.3h-5.18v-4.83h4.33c.5 1.46.79 3.1.85 4.84zm-10.97-4.83h-3.77l-.96.96v3.88h3.94c0-1.75.28-3.38.79-4.84zm-.8 5.57h-3.93v3.94l.9.9h3.83c-.51-1.47-.8-3.1-.8-4.84zm6.59 5.57v4.27h.84a10.87 10.87 0 0 0 3.21-4.27h-4.05zm-2.7-16.1h-1.97l-4.16 4.23h3.32a11.7 11.7 0 0 1 2.81-4.22zm7.7 15.37h3.83l.96-.96v-3.94h-3.94a16.9 16.9 0 0 1-.84 4.9zm3.1-11.14l-4.22-4.22h-1.91a11.82 11.82 0 0 1 2.81 4.22h3.32zm-2.92 6.3h-5.18v4.84h4.28c.56-1.47.84-3.1.9-4.84zm3.65-5.57H52.1c.5 1.46.8 3.1.8 4.84h3.93v-3.88l-.96-.96zm-13.9 10.4h4.34v-4.83h-5.18c.06 1.74.34 3.37.85 4.84zm.29-11.13h4.05v-4.22h-.9a10.07 10.07 0 0 0-3.15 4.22zm5.68-4.22h-.9v4.22h4.05c-.73-1.75-1.8-3.2-3.15-4.22zM38.15 54.6l4.28 4.27h1.97a12.17 12.17 0 0 1-2.87-4.27h-3.38zm7.31 4.27h.85V54.6h-4.05c.79 1.74 1.85 3.2 3.2 4.27zm3.5 0h1.96l4.28-4.27h-3.38a12.17 12.17 0 0 1-2.87 4.27zM41.13 48.3h5.18v-4.84h-4.33c-.51 1.46-.8 3.1-.85 4.84z" fill="#0071BA"/></svg>