<svg xmlns="http://www.w3.org/2000/svg" width="132" height="60" viewBox="0 0 132 60"><path fill="#fff" d="M26.2 31.35a1 1 0 0 1-1 .07q-.59-.33-.6-1.4v-2.08c0-1-.38-1.7-1.04-1.9-1.12-.33-1.96 1.05-2.28 1.56l-1.96 3.2v-3.9q-.05-1.36-.87-1.6c-.37-.11-.92-.07-1.45.75l-4.4 7.11a8 8 0 0 1-.9-3.65 7.7 7.7 0 0 1 7.62-7.77 7.7 7.7 0 0 1 7.62 7.77v.04c.04.83-.23 1.5-.74 1.81m2.43-1.85v-.04A9.4 9.4 0 0 0 19.32 20 9.4 9.4 0 0 0 10 29.5c0 5.24 4.18 9.5 9.32 9.5 2.35 0 4.6-.9 6.33-2.53a.87.87 0 0 0-.22-1.42.8.8 0 0 0-.93.15 7.5 7.5 0 0 1-10.86-.51l3.98-6.42v2.96c0 1.42.55 1.88 1.01 2.01.46.14 1.17.04 1.9-1.16l2.2-3.56q.1-.18.19-.3v1.8c0 1.33.53 2.39 1.45 2.91.83.47 1.88.43 2.73-.1 1.03-.67 1.59-1.87 1.53-3.33m12.97-3.25c.23.14.42.45.42.72a.8.8 0 0 1-.8.8q-.15 0-.29-.06c-.5-.36-1.12-.6-1.77-.6-1.55 0-2.63 1.27-2.63 2.85 0 1.59 1.08 2.85 2.63 2.85a3 3 0 0 0 1.98-.81 1 1 0 0 1 .46-.15c.42 0 .75.33.75.76a.8.8 0 0 1-.38.65 4.4 4.4 0 0 1-2.8 1.07 4.37 4.37 0 0 1-4.32-4.41 4.37 4.37 0 0 1 4.32-4.41c.9 0 1.75.27 2.43.74m4.36 1.84c1.63 0 3 1.39 3 3.09s-1.37 3.15-3 3.15a3.17 3.17 0 0 1-3.11-3.15c0-1.7 1.41-3.09 3.11-3.09m-.01 4.72c.71 0 1.33-.69 1.33-1.62 0-.92-.62-1.5-1.33-1.5-.78 0-1.42.56-1.42 1.5s.64 1.62 1.42 1.62m4.03.57v-4.34c0-.47.37-.87.84-.87s.85.4.85.87v4.34c0 .47-.4.87-.85.87a.86.86 0 0 1-.84-.87m-.13-6.85a1 1 0 0 1 .97-1.02 1 1 0 0 1 1 1.02 1 1 0 0 1-1.38.91 1 1 0 0 1-.6-.91m5.05 4.5v2.35c0 .47-.4.87-.86.87a.86.86 0 0 1-.83-.87v-4.54c0-.37.3-.67.66-.67.35 0 .64.3.64.67a2.5 2.5 0 0 1 1.85-.75c1.68 0 2.43 1.28 2.43 2.72v2.57c0 .47-.4.87-.85.87a.85.85 0 0 1-.84-.87v-2.35c0-.75-.09-1.37-1.15-1.37-.74 0-1.05.62-1.05 1.37m9.37.9q-.29-.02-.44-.22l-1.96-2.14v3.81c0 .47-.4.87-.85.87a.86.86 0 0 1-.84-.87v-7.55a.3.3 0 0 1 .31-.21c.15 0 .27.12.36.2l3.13 3.55q.16.16.27.17c.06 0 .18-.06.27-.17l3.13-3.54c.09-.1.2-.21.36-.21q.24.02.31.2v7.56c0 .47-.37.87-.83.87a.87.87 0 0 1-.85-.87v-3.81l-1.97 2.14q-.16.2-.4.21m8.1.88c.76 0 1.4-.69 1.4-1.62 0-.92-.66-1.53-1.4-1.53-.75 0-1.34.62-1.34 1.53 0 .9.6 1.62 1.34 1.62m1.79.77-.03-.2c-.33.66-1.37.95-2.04.95-1.58 0-2.75-1.45-2.75-3.15s1.2-3.09 2.84-3.09c.28 0 1.22.08 1.95.95l.03-.2c0-.37.28-.67.64-.67s.65.3.65.67v4.74c0 .37-.3.67-.65.67a.66.66 0 0 1-.64-.67m5.97-3.92h-.18c-1.06.06-1.27.67-1.27 1.37v2.35c0 .47-.38.87-.85.87a.86.86 0 0 1-.83-.87v-4.54c0-.37.3-.67.66-.67.35 0 .64.3.64.67.62-.6 1.13-.72 1.65-.75h.17c.4 0 .77.35.77.8a.8.8 0 0 1-.76.77m6.5 3.33q.1.19.11.4c0 .45-.4.86-.83.86-.3 0-.55-.23-.75-.47l-1.94-2.27v1.87c0 .47-.38.87-.85.87a.85.85 0 0 1-.83-.87v-6.9c0-.47.37-.86.83-.86.47 0 .85.4.85.86v4.3l1.94-2.15c.2-.23.43-.46.73-.46.42 0 .8.4.8.84q.01.2-.1.4l-1.53 1.68zm3.3-3.3c-.47 0-1.21.24-1.21.96h2.43c0-.73-.78-.96-1.22-.96m2.2 2.04h-3.41c0 1.02.97 1.17 1.4 1.17.31 0 .76-.06 1.1-.22.1-.07.29-.13.44-.13a.7.7 0 0 1 .68.7.7.7 0 0 1-.37.6 3 3 0 0 1-1.83.48c-1.7 0-3.12-.93-3.12-3.07 0-1.7.86-3.17 2.88-3.17 1.62 0 2.86 1.07 2.89 2.97 0 .36-.3.67-.66.67m4.7 2.6h-.47c-1.28 0-2.03-.57-2.03-2.59v-2.08h-.43a.8.8 0 0 1-.76-.78c0-.44.36-.79.76-.79h.43v-1.6c0-.48.38-.87.84-.87s.85.4.85.86v1.61h.7c.4 0 .76.35.76.8a.8.8 0 0 1-.76.77h-.7v1.75c0 1.15.06 1.4.56 1.4h.24a.75.75 0 0 1 .75.76c0 .4-.34.76-.75.76m8.16-8.08c.22.14.41.45.41.72a.8.8 0 0 1-.79.8q-.15 0-.3-.06a3 3 0 0 0-1.77-.6c-1.55 0-2.62 1.27-2.62 2.85 0 1.59 1.07 2.85 2.62 2.85a3 3 0 0 0 1.98-.81 1 1 0 0 1 .47-.15c.41 0 .74.33.74.76a.8.8 0 0 1-.37.65 4.4 4.4 0 0 1-2.8 1.07 4.37 4.37 0 0 1-4.33-4.41 4.33 4.33 0 0 1 6.76-3.67m4.27 6.56c.76 0 1.4-.69 1.4-1.62 0-.92-.66-1.53-1.4-1.53-.75 0-1.34.62-1.34 1.53 0 .9.6 1.62 1.34 1.62m1.79.77-.03-.2c-.33.66-1.37.95-2.05.95-1.58 0-2.74-1.45-2.74-3.15s1.2-3.09 2.83-3.09c.29 0 1.23.08 1.96.95l.03-.2c0-.37.28-.67.64-.67a.67.67 0 0 1 .65.67v4.74a.67.67 0 0 1-.65.67.66.66 0 0 1-.64-.67m5.92-.77c.75 0 1.34-.72 1.34-1.62s-.6-1.53-1.34-1.53-1.4.6-1.4 1.53.64 1.62 1.4 1.62m-1.4 1.01v2.16c0 .47-.38.87-.85.87a.86.86 0 0 1-.83-.87v-7.14c0-.37.3-.67.65-.67s.64.3.64.73a2.7 2.7 0 0 1 1.99-.8c1.64 0 2.83 1.38 2.83 3.08s-1.16 3.15-2.74 3.15c-.5 0-1.23-.16-1.69-.5"/></svg>