<svg xmlns="http://www.w3.org/2000/svg" width="200" height="60" viewBox="0 0 200 60"><path fill="#fff" d="M35.83 18.2c-1.4.95-2.16 2.18-2.16 3.43 0 1.27.75 2.5 2.16 3.45a10 10 0 0 0 5.6 1.56c2.24 0 4.22-.61 5.63-1.56l.95 1.34a12 12 0 0 1-6.57 1.85c-2.52 0-4.84-.69-6.56-1.85q-.67-.45-1.2-1v.13c0 1.27.74 2.5 2.15 3.45a10 10 0 0 0 5.6 1.55c1.86 0 3.54-.41 4.87-1.1l.79 1.44a12 12 0 0 1-5.64 1.3c-2.53 0-4.85-.69-6.57-1.84a8 8 0 0 1-1.2-1v.27c0 1.26.74 2.5 2.15 3.43 1.4.95 3.38 1.5 5.6 1.5 1.48 0 2.85-.2 4.02-.66l.61 1.52c-1.36.54-2.94.84-4.62.84-2.52 0-4.84-.69-6.56-1.85a6 6 0 0 1-1.2-1c.03 1.23.78 2.42 2.15 3.34a10 10 0 0 0 5.6 1.56c3.46 0 6.23-1.45 7.3-3.27l1.45.8c-1.46 2.5-4.9 4.1-8.74 4.1-2.52 0-4.84-.68-6.56-1.84S32 35.26 32 33.3V21.64c0-1.96 1.17-3.63 2.88-4.79A12 12 0 0 1 41.44 15c3.31 0 6.6 1.56 8.3 3.47l-1.56.7c-1.3-1.47-3.79-2.53-6.74-2.53-2.23 0-4.21.6-5.61 1.56"/><path fill="#F1B73C" d="M42.44 18.37h20.1l-2.08 6.07h-5.8l-1.59 3.94 6.18-2.2L46.12 46l2.4-9.45-4.77 2.26 3.1-14.37h-6.91zm1.2 1.35-1.04 3.37h6.33l-2.81 12.76 4.92-2.33-.99 3.77 5.12-7.9-5.16 1.78 3.55-8.08h5.69l1.01-3.37z"/><path fill="#fff" d="M72.55 28.34h-1.63c-.08-.5-.34-.96-.73-1.28q-.29-.23-.64-.34a2.5 2.5 0 0 0-2.07.26q-.58.37-.88 1.1a4 4 0 0 0-.33 1.75q0 1.05.32 1.78.33.72.89 1.07a2.6 2.6 0 0 0 2.04.26q.72-.22 1.12-.85.2-.33.28-.72l1.63.01a3.67 3.67 0 0 1-3.8 3.16q-1.19 0-2.11-.56a4 4 0 0 1-1.47-1.61 5.6 5.6 0 0 1-.53-2.54q0-1.49.54-2.54a4 4 0 0 1 1.47-1.61 4.4 4.4 0 0 1 3.5-.35 3.5 3.5 0 0 1 2.4 3m9.52 1.49q0 1.49-.54 2.54A4 4 0 0 1 80.06 34a4 4 0 0 1-2.11.55q-1.2 0-2.12-.56a4 4 0 0 1-1.47-1.61 5.5 5.5 0 0 1-.55-2.54q0-1.49.55-2.54a3.9 3.9 0 0 1 3.59-2.18 4 4 0 0 1 3.58 2.18q.54 1.05.54 2.54m-1.63 0q0-1.05-.32-1.76a2.25 2.25 0 0 0-2.18-1.46 2.3 2.3 0 0 0-2.17 1.46 4 4 0 0 0-.32 1.76q0 1.04.32 1.77.32.7.89 1.08.55.37 1.29.37a2.3 2.3 0 0 0 2.17-1.45q.35-.86.32-1.77m4.94-4.72v9.43h-1.7v-9.43zm9.18 0v9.43h-1.45l-4.34-6.37h-.07v6.37h-1.63v-9.43h1.46l4.33 6.39h.07V25.1zm1.36 1.68v-1.68h6.8v1.68h-2.55v7.75h-1.7V26.8zm8.47 7.75v-9.43h5.81v1.52h-4.26v2.52h3.92v1.35h-3.92v2.53h4.26v1.51zm7.58 0v-9.43h1.63v7.92h4.08v1.51zm7.07 0v-9.43h5.85v1.52h-4.21v2.52h3.8v1.35h-3.8v2.53h4.25v1.51zm13.3-6.37a2.1 2.1 0 0 0-2.1-1.56c-1 0-1.79.58-2.18 1.46a4 4 0 0 0-.33 1.76q0 1.03.32 1.75a2.3 2.3 0 0 0 2.22 1.47c1.2 0 2.23-.6 2.23-1.88h-1.9v-1.34h3.4v1.03c0 2.2-1.55 3.68-3.74 3.68-2.63 0-4.17-2.22-4.17-4.7q0-1.1.31-1.99a4 4 0 0 1 3.81-2.74q.75 0 1.39.23a3.5 3.5 0 0 1 2.4 2.83zm3.36 6.37v-9.43h3.37a3 3 0 0 1 2.88 1.88q.23.57.21 1.19c0 1.17-.44 2.17-1.39 2.64q-.71.35-1.75.35h-2.4v-1.34h2.18c.4 0 .74-.1 1-.21.52-.24.77-.8.77-1.44 0-.66-.25-1.3-.76-1.53q-.47-.2-1-.2h-1.41v8.1zm4.64-4.28 2.23 4.28h-1.82l-2.18-4.28zm4.5 4.28h-1.74l3.17-9.43h2l3.17 9.43h-1.74l-2.4-7.4h-.07zm.05-3.72h4.75v1.37h-4.74v-1.37m7.74 3.72v-9.43H156a3.2 3.2 0 0 1 2.94 1.95q.24.59.23 1.22c0 1.81-1.36 3.04-3.19 3.04h-2.23v-1.37h2.01c1.02 0 1.75-.62 1.75-1.67 0-.65-.24-1.17-.76-1.44q-.4-.21-1-.21h-1.49v7.91zm7.89 0v-9.43h1.7v4.04h4.08v-4.04h1.7v9.43h-1.7V30.5h-4.08v4.04z"/></svg>