<svg xmlns="http://www.w3.org/2000/svg" width="132" height="60" viewBox="0 0 132 60"><path fill="#0052FF" d="M32.6 25.58a7.1 7.1 0 0 0-7.25 7.22c0 4.13 3.1 7.2 7.25 7.2a7.1 7.1 0 0 0 7.3-7.22c0-4.09-3.1-7.2-7.3-7.2m.03 11.43c-2.32 0-4.02-1.8-4.02-4.2 0-2.45 1.67-4.25 3.98-4.25 2.36 0 4.05 1.83 4.05 4.24s-1.7 4.21-4.01 4.21m8.17-8.29h2.02v11.01h3.23V25.85H40.8zm-23.58-.16a3.7 3.7 0 0 1 3.56 2.6h3.42c-.62-3.32-3.37-5.58-6.95-5.58A7.1 7.1 0 0 0 10 32.8c0 4.13 3.1 7.2 7.25 7.2 3.5 0 6.3-2.26 6.93-5.62h-3.4a3.64 3.64 0 0 1-3.53 2.63c-2.35 0-3.99-1.8-3.99-4.2 0-2.45 1.62-4.25 3.96-4.25m85.01 2.9-2.37-.35c-1.13-.16-1.94-.53-1.94-1.42 0-.97 1.05-1.45 2.47-1.45 1.57 0 2.57.67 2.78 1.77h3.13c-.35-2.79-2.5-4.43-5.82-4.43-3.43 0-5.69 1.75-5.69 4.21q0 3.54 4.47 4.17l2.37.34c1.17.16 1.8.62 1.8 1.48 0 1.1-1.12 1.56-2.68 1.56-1.92 0-3-.78-3.15-1.96h-3.18c.3 2.71 2.42 4.61 6.3 4.61 3.53 0 5.87-1.6 5.87-4.37 0-2.47-1.7-3.75-4.36-4.17zm-57.8-11.32a2 2 0 0 0-2.08 2.03 2 2 0 0 0 2.08 2.04 2 2 0 0 0 2.07-2.04 2 2 0 0 0-2.07-2.03M91.88 30.6c0-3-1.83-5.02-5.72-5.02-3.66 0-5.7 1.86-6.11 4.7h3.2c.16-1.1 1.03-2 2.86-2 1.65 0 2.45.71 2.45 1.6 0 1.15-1.48 1.44-3.31 1.64-2.48.26-5.55 1.12-5.55 4.34 0 2.5 1.86 4.1 4.82 4.1 2.32 0 3.77-.96 4.5-2.49.1 1.37 1.13 2.26 2.56 2.26h1.89v-2.87h-1.6zm-3.18 3.5c0 1.85-1.61 3.22-3.59 3.22-1.21 0-2.24-.5-2.24-1.58 0-1.37 1.65-1.74 3.16-1.9 1.45-.14 2.26-.46 2.67-1.08zm-17.17-8.5c-1.8 0-3.31.74-4.39 2V20h-3.23v19.73h3.18V37.9a5.6 5.6 0 0 0 4.44 2.1c3.88 0 6.82-3.06 6.82-7.19s-2.99-7.22-6.81-7.22zM71.05 37c-2.32 0-4.01-1.8-4.01-4.2 0-2.42 1.72-4.25 4.04-4.25 2.34 0 3.98 1.8 3.98 4.24 0 2.42-1.7 4.21-4.01 4.21M56.18 25.58c-2.1 0-3.48.86-4.29 2.07v-1.8h-3.2v13.88h3.23v-7.54c0-2.12 1.35-3.62 3.34-3.62 1.86 0 3.01 1.31 3.01 3.22v7.94h3.24v-8.19c0-3.49-1.8-5.96-5.33-5.96M122 32.34a6.57 6.57 0 0 0-6.82-6.76 7.03 7.03 0 0 0-7.2 7.22c0 4.33 3.27 7.2 7.26 7.2 3.36 0 6-2 6.68-4.8h-3.37c-.48 1.22-1.67 1.92-3.26 1.92-2.08 0-3.64-1.29-3.99-3.54H122zm-10.51-1.07a3.6 3.6 0 0 1 3.64-2.87c1.83 0 3.24 1.05 3.55 2.87z"/></svg>