<svg width="230" height="100" viewBox="0 0 230 100" xmlns="http://www.w3.org/2000/svg"><path d="M51.453 53.452c-.538.34-1.172.383-1.654.11-.613-.345-.95-1.155-.95-2.28v-3.37c0-1.626-.643-2.784-1.718-3.096-1.823-.531-3.193 1.699-3.709 2.536l-3.214 5.212v-6.37c-.036-1.466-.512-2.342-1.416-2.607-.598-.174-1.492-.104-2.362 1.226l-7.2 11.563a12.705 12.705 0 01-1.464-5.937c0-6.965 5.582-12.632 12.443-12.632s12.443 5.667 12.443 12.632c0 .012.003.023.003.034 0 .012-.002.023-.001.035.065 1.349-.372 2.422-1.2 2.945v-.001zm3.962-3.012v-.07C55.376 41.887 48.57 35 40.207 35 31.823 35 25 41.926 25 50.44c0 8.512 6.823 15.439 15.208 15.439 3.848 0 7.52-1.463 10.34-4.118.56-.527.593-1.415.073-1.983a1.37 1.37 0 00-1.954-.075 12.3 12.3 0 01-8.459 3.369c-3.674 0-6.98-1.626-9.259-4.205l6.494-10.428v4.807c0 2.31.896 3.056 1.647 3.274.751.219 1.9.07 3.106-1.889l3.572-5.79c.114-.187.22-.349.316-.488v2.928c0 2.159.865 3.885 2.372 4.735 1.358.767 3.066.698 4.458-.18 1.687-1.066 2.596-3.03 2.502-5.396zm21.173-5.275c.366.222.682.716.682 1.161 0 .717-.608 1.31-1.29 1.31-.17 0-.34-.05-.487-.1-.803-.592-1.825-.987-2.896-.987-2.53 0-4.283 2.075-4.283 4.644 0 2.57 1.752 4.62 4.283 4.62 1.265 0 2.385-.52 3.237-1.31.22-.158.483-.244.754-.247.682 0 1.218.543 1.218 1.235 0 .445-.269.84-.609 1.062-1.217 1.038-2.872 1.73-4.575 1.73-3.894 0-7.059-3.212-7.059-7.164 0-3.953 3.164-7.164 7.059-7.164 1.46 0 2.847.444 3.966 1.21zm7.12 2.99c2.653 0 4.892 2.247 4.892 5.014 0 2.767-2.239 5.114-4.891 5.114-2.775 0-5.087-2.347-5.087-5.114s2.312-5.015 5.087-5.015zm-.024 7.657c1.169 0 2.166-1.111 2.166-2.618s-.997-2.446-2.166-2.446c-1.266 0-2.312.914-2.312 2.446 0 1.507 1.046 2.618 2.312 2.618zm6.585.939v-7.065c0-.766.608-1.408 1.363-1.408.754 0 1.387.642 1.387 1.408v7.065c0 .766-.633 1.408-1.387 1.408-.755 0-1.364-.642-1.364-1.408zm-.219-11.14c0-.915.705-1.656 1.582-1.656.9 0 1.63.74 1.63 1.655 0 .889-.73 1.606-1.63 1.606a1.59 1.59 0 01-1.582-1.606zm8.24 7.31v3.83c0 .766-.633 1.408-1.389 1.408-.754 0-1.363-.642-1.363-1.408v-7.386c0-.593.487-1.087 1.072-1.087.584 0 1.047.494 1.047 1.087 1.119-1.038 2.092-1.21 3.017-1.21 2.75 0 3.967 2.074 3.967 4.421v4.175c0 .766-.632 1.408-1.387 1.408s-1.363-.642-1.363-1.408v-3.83c0-1.21-.146-2.223-1.874-2.223-1.217 0-1.728 1.013-1.728 2.224zm15.296 1.459c-.316 0-.534-.149-.705-.347l-3.213-3.482v6.2c0 .766-.633 1.408-1.387 1.408-.755 0-1.364-.642-1.364-1.408V44.475a.541.541 0 01.512-.347c.243 0 .437.198.584.346l5.111 5.756c.146.173.34.272.438.272.097 0 .292-.099.438-.271l5.111-5.757c.146-.148.341-.346.584-.346.243 0 .438.148.511.346v12.277c0 .766-.608 1.408-1.363 1.408-.754 0-1.387-.642-1.387-1.408v-6.2l-3.212 3.482c-.171.198-.39.347-.658.347zm13.229 1.432c1.241 0 2.288-1.111 2.288-2.618s-1.071-2.496-2.288-2.496c-1.217 0-2.191 1.013-2.191 2.496 0 1.457.974 2.618 2.191 2.618zm2.921 1.26l-.05-.321c-.535 1.062-2.239 1.532-3.334 1.532-2.58 0-4.478-2.347-4.478-5.114s1.947-5.015 4.624-5.015c.463 0 1.996.124 3.188 1.532l.049-.321c0-.593.463-1.087 1.047-1.087.584 0 1.07.494 1.07 1.087v7.707c0 .593-.486 1.087-1.071 1.087-.583 0-1.047-.494-1.047-1.087h.002zm9.748-6.374h-.292c-1.728.1-2.069 1.088-2.069 2.224v3.829c0 .766-.632 1.408-1.387 1.408-.754 0-1.363-.642-1.363-1.408v-7.386c0-.593.486-1.087 1.071-1.087.584 0 1.047.494 1.047 1.087 1.022-.964 1.849-1.161 2.701-1.21h.268c.657 0 1.265.567 1.265 1.284 0 .667-.584 1.26-1.241 1.26zm10.6 5.411c.122.197.195.42.195.666 0 .717-.657 1.384-1.363 1.384-.486 0-.901-.37-1.217-.766l-3.163-3.68v3.038c0 .766-.634 1.408-1.388 1.408-.755 0-1.363-.642-1.363-1.408V45.536c0-.766.608-1.408 1.363-1.408.754 0 1.387.642 1.387 1.408v6.991l3.164-3.508c.316-.37.706-.741 1.193-.741.682 0 1.314.642 1.314 1.358 0 .223-.049.445-.171.643l-2.506 2.741 2.555 3.088v.001zm5.393-5.36c-.755 0-1.972.395-1.972 1.555h3.967c0-1.185-1.266-1.556-1.996-1.556h.001zm3.601 3.31h-5.573c0 1.655 1.582 1.902 2.287 1.902.512 0 1.242-.1 1.802-.347.17-.123.462-.222.705-.222.609 0 1.12.52 1.12 1.137 0 .42-.268.79-.608.988-.852.617-1.948.765-2.994.765-2.774 0-5.087-1.506-5.087-4.99 0-2.741 1.412-5.138 4.698-5.138 2.652 0 4.672 1.73 4.721 4.817 0 .593-.486 1.087-1.071 1.087zm7.656 4.224h-.755c-2.094 0-3.31-.915-3.31-4.2v-3.385h-.706c-.657 0-1.241-.592-1.241-1.259 0-.717.584-1.285 1.241-1.285h.706v-2.618c0-.766.609-1.409 1.363-1.409s1.388.643 1.388 1.409v2.618h1.143c.657 0 1.242.568 1.242 1.285 0 .667-.585 1.26-1.242 1.26h-1.143v2.84c0 1.878.097 2.273.924 2.273h.39a1.23 1.23 0 011.216 1.235c0 .668-.559 1.236-1.216 1.236zm13.326-13.118c.364.222.681.716.681 1.161 0 .717-.608 1.31-1.29 1.31-.17 0-.341-.05-.486-.1-.804-.592-1.826-.987-2.897-.987-2.53 0-4.284 2.075-4.284 4.644 0 2.57 1.753 4.62 4.284 4.62 1.265 0 2.385-.52 3.237-1.31.22-.158.484-.244.755-.247.681 0 1.216.543 1.216 1.235 0 .445-.267.84-.608 1.062-1.217 1.038-2.872 1.73-4.576 1.73-3.893 0-7.057-3.212-7.057-7.164 0-3.953 3.163-7.164 7.057-7.164 1.461 0 2.848.444 3.968 1.21zm6.974 10.647c1.241 0 2.287-1.111 2.287-2.618s-1.071-2.496-2.288-2.496c-1.216 0-2.19 1.013-2.19 2.496 0 1.457.974 2.618 2.19 2.618h.001zm2.92 1.26l-.048-.321c-.536 1.062-2.239 1.532-3.335 1.532-2.58 0-4.478-2.347-4.478-5.114s1.947-5.015 4.624-5.015c.462 0 1.996.124 3.189 1.532l.048-.321c0-.593.462-1.087 1.047-1.087a1.09 1.09 0 011.071 1.087v7.707a1.09 1.09 0 01-1.071 1.087c-.585 0-1.047-.494-1.047-1.087zm9.675-1.26c1.217 0 2.19-1.161 2.19-2.618 0-1.483-.973-2.496-2.19-2.496s-2.288.989-2.288 2.496c0 1.507 1.047 2.618 2.288 2.618zm-2.288 1.656v3.507c0 .766-.632 1.408-1.387 1.408-.754 0-1.363-.642-1.363-1.408v-11.61c0-.593.487-1.087 1.072-1.087.583 0 1.046.494 1.046 1.185 1.022-1.062 2.288-1.309 3.237-1.309 2.677 0 4.624 2.248 4.624 5.015 0 2.767-1.898 5.114-4.478 5.114-.803 0-1.996-.248-2.751-.815z" fill="#fff"/></svg>