<svg xmlns="http://www.w3.org/2000/svg" width="200" height="60" viewBox="0 0 200 60"><path fill="#0052FF" d="M59.44 24.7a8.7 8.7 0 0 0-6.26 2.48 8.5 8.5 0 0 0-2.54 6.18c0 4.96 3.76 8.63 8.8 8.63s8.87-3.73 8.87-8.65c0-4.9-3.77-8.64-8.87-8.64m.03 13.72c-2.8 0-4.87-2.16-4.87-5.05 0-2.94 2.02-5.1 4.84-5.1 2.85 0 4.9 2.2 4.9 5.1s-2.05 5.05-4.87 5.05m9.92-9.95h2.46v13.2h3.93V25.02h-6.39zm-28.63-.2a4.5 4.5 0 0 1 4.33 3.13h4.15c-.75-4-4.09-6.7-8.44-6.7-4.94 0-8.8 3.7-8.8 8.66s3.76 8.63 8.8 8.63c4.26 0 7.66-2.7 8.41-6.73H45.1a4.4 4.4 0 0 1-4.29 3.16c-2.85 0-4.84-2.16-4.84-5.05 0-2.94 1.96-5.1 4.8-5.1M144 31.76l-2.88-.41c-1.38-.2-2.36-.65-2.36-1.71 0-1.16 1.28-1.74 3-1.74 1.9 0 3.12.8 3.38 2.12h3.8c-.43-3.35-3.05-5.3-7.08-5.3-4.15 0-6.9 2.08-6.9 5.04q0 4.24 5.43 5l2.88.41c1.41.2 2.2.75 2.2 1.78 0 1.32-1.38 1.87-3.27 1.87-2.33 0-3.64-.94-3.83-2.36h-3.87c.37 3.26 2.95 5.54 7.66 5.54 4.28 0 7.13-1.93 7.13-5.24 0-2.97-2.06-4.51-5.3-5M73.8 18.16a2.5 2.5 0 0 0-2.33 1.5q-.2.46-.19.94c0 1.42 1.08 2.45 2.53 2.45a2.4 2.4 0 0 0 2.51-2.45 2.4 2.4 0 0 0-2.51-2.44m57.62 12.56c0-3.6-2.22-6.02-6.93-6.02-4.45 0-6.94 2.23-7.43 5.64h3.89c.2-1.33 1.25-2.41 3.47-2.41 2 0 2.97.86 2.97 1.93 0 1.38-1.8 1.73-4.02 1.96-3.01.32-6.74 1.34-6.74 5.22 0 2.99 2.26 4.92 5.86 4.92 2.81 0 4.58-1.15 5.46-3 .13 1.65 1.38 2.71 3.12 2.71h2.29v-3.44h-1.94zm-3.85 4.18c0 2.23-1.97 3.88-4.36 3.88-1.47 0-2.72-.62-2.72-1.9 0-1.65 2-2.1 3.83-2.3 1.77-.16 2.75-.54 3.25-1.28zM106.7 24.7c-2.19 0-4.02.9-5.32 2.41V18h-3.93v23.67h3.86V39.5a6.8 6.8 0 0 0 5.4 2.5c4.7 0 8.28-3.66 8.28-8.62s-3.63-8.66-8.28-8.66m-.58 13.72c-2.82 0-4.87-2.16-4.87-5.05 0-2.9 2.1-5.1 4.9-5.1 2.85 0 4.84 2.17 4.84 5.1 0 2.9-2.06 5.05-4.87 5.05M88.07 24.7c-2.55 0-4.22 1.03-5.2 2.48V25h-3.9v16.66h3.93v-9.04c0-2.54 1.64-4.35 4.05-4.35 2.27 0 3.67 1.58 3.67 3.87v9.53h3.93v-9.83c0-4.19-2.2-7.15-6.48-7.15M168 32.81c0-4.76-3.54-8.1-8.28-8.1a8.5 8.5 0 0 0-8.74 8.65c0 5.2 3.96 8.63 8.8 8.63 4.1 0 7.3-2.38 8.12-5.76h-4.09c-.59 1.48-2.03 2.31-3.96 2.31-2.52 0-4.42-1.54-4.84-4.25H168zm-12.76-1.28c.2-1 .77-1.89 1.57-2.52a4.4 4.4 0 0 1 2.85-.93c2.22 0 3.93 1.26 4.31 3.45z"/></svg>