<svg xmlns="http://www.w3.org/2000/svg" width="200" height="60" viewBox="0 0 200 60"><path fill="#fff" d="M52.03 31.74c-.4.26-.88.29-1.25.09-.46-.26-.72-.86-.72-1.7v-2.51c0-1.21-.48-2.08-1.3-2.3-1.38-.4-2.42 1.26-2.8 1.88l-2.44 3.88v-4.74q-.05-1.65-1.07-1.94c-.46-.13-1.13-.08-1.8.9l-5.45 8.62a9.43 9.43 0 1 1 17.74-4.42v.05c.05 1-.28 1.8-.9 2.2m3-2.24v-.05A11.52 11.52 0 0 0 32 29.5a11.52 11.52 0 0 0 19.35 8.43 1.04 1.04 0 0 0-1.08-1.74q-.2.07-.35.21a9.4 9.4 0 0 1-13.41-.62L41.42 28v3.58c0 1.72.68 2.28 1.25 2.44s1.44.05 2.35-1.4l2.7-4.32.25-.36v2.18c0 1.6.65 2.89 1.8 3.52 1.02.57 2.32.52 3.37-.13 1.28-.8 1.97-2.26 1.9-4.02m16.04-3.93c.28.17.52.53.52.87a1 1 0 0 1-.98.97q-.2-.01-.37-.07a4 4 0 0 0-2.2-.74c-1.9 0-3.24 1.55-3.24 3.46 0 1.92 1.33 3.44 3.25 3.44.96 0 1.8-.38 2.45-.97a1 1 0 0 1 .57-.19c.52 0 .92.4.92.92 0 .33-.2.63-.46.8a5.35 5.35 0 1 1-.46-8.48m5.4 2.23c2 0 3.7 1.67 3.7 3.73s-1.7 3.81-3.7 3.81a3.9 3.9 0 0 1-3.86-3.8 3.8 3.8 0 0 1 3.85-3.74m-.02 5.7c.88 0 1.64-.83 1.64-1.95s-.76-1.82-1.64-1.82c-.96 0-1.76.68-1.76 1.82 0 1.12.8 1.95 1.76 1.95m4.98.7v-5.26c0-.57.46-1.05 1.03-1.05s1.06.48 1.06 1.05v5.26c0 .57-.48 1.05-1.06 1.05-.57 0-1.03-.48-1.03-1.05m-.16-8.3a1.21 1.21 0 1 1 2.43 0A1.2 1.2 0 0 1 82 27a1.2 1.2 0 0 1-.65-.64q-.08-.22-.08-.46m6.24 5.45v2.85c0 .57-.48 1.05-1.05 1.05s-1.04-.48-1.04-1.05v-5.5c0-.44.37-.81.81-.81s.8.37.8.81a3 3 0 0 1 2.28-.9c2.09 0 3 1.54 3 3.3v3.1c0 .57-.47 1.05-1.04 1.05s-1.04-.48-1.04-1.05v-2.85c0-.9-.1-1.66-1.41-1.66-.93 0-1.31.76-1.31 1.66m11.58 1.09a.7.7 0 0 1-.53-.26l-2.44-2.6v4.62c0 .57-.47 1.05-1.05 1.05-.57 0-1.03-.48-1.03-1.05v-9.14a.4.4 0 0 1 .39-.26c.18 0 .33.15.44.26l3.87 4.28c.11.13.26.2.33.2s.22-.07.34-.2l3.87-4.28c.1-.11.25-.26.44-.26a.4.4 0 0 1 .39.26v9.14c0 .57-.47 1.05-1.04 1.05s-1.05-.48-1.05-1.05v-4.62l-2.43 2.6c-.13.14-.3.26-.5.26m10.02 1.06c.94 0 1.73-.83 1.73-1.95s-.8-1.86-1.73-1.86-1.66.76-1.66 1.86c0 1.09.74 1.95 1.66 1.95m2.21.94-.03-.24c-.41.8-1.7 1.14-2.53 1.14-1.95 0-3.4-1.75-3.4-3.8 0-2.07 1.48-3.74 3.51-3.74.35 0 1.51.09 2.41 1.14l.04-.24a.8.8 0 0 1 .8-.81c.44 0 .8.37.8.81v5.74c0 .44-.36.81-.8.81a.8.8 0 0 1-.8-.81m7.39-4.75h-.22c-1.31.08-1.57.81-1.57 1.66v2.85c0 .57-.48 1.05-1.05 1.05s-1.04-.48-1.04-1.05v-5.5c0-.44.37-.81.82-.81s.79.37.79.81c.77-.72 1.4-.87 2.05-.9h.2c.5 0 .96.42.96.95 0 .5-.45.94-.94.94m8.02 4.03q.15.23.15.5c0 .53-.5 1.03-1.03 1.03-.37 0-.68-.28-.92-.57l-2.4-2.74v2.26c0 .57-.48 1.05-1.05 1.05s-1.03-.48-1.03-1.05v-8.35c0-.57.46-1.05 1.03-1.05s1.05.48 1.05 1.05v5.2l2.4-2.6c.24-.28.53-.56.9-.56.52 0 1 .48 1 1.01q0 .25-.13.48l-1.9 2.04zm4.09-3.99c-.57 0-1.5.3-1.5 1.16h3.01c0-.88-.96-1.16-1.51-1.16m2.73 2.47h-4.23c0 1.23 1.2 1.41 1.74 1.41.38 0 .94-.07 1.36-.26.13-.09.35-.16.54-.16.46 0 .84.39.84.85 0 .3-.2.58-.46.73-.64.46-1.47.57-2.26.57-2.1 0-3.86-1.12-3.86-3.72 0-2.04 1.07-3.82 3.56-3.82 2.01 0 3.54 1.29 3.58 3.59 0 .44-.37.8-.81.8m5.8 3.14h-.58c-1.58 0-2.5-.68-2.5-3.13v-2.5h-.54a.97.97 0 0 1-.94-.94c0-.53.44-.95.94-.95h.54v-1.95c0-.57.46-1.05 1.03-1.05s1.05.48 1.05 1.05v1.95h.87c.5 0 .94.42.94.95 0 .5-.45.94-.94.94h-.87v2.12c0 1.4.07 1.7.7 1.7h.3q.37 0 .65.27.26.27.26.64c0 .5-.42.92-.92.92m10.09-9.77c.27.17.51.53.51.87a1 1 0 0 1-.97.97q-.2-.01-.37-.07a4 4 0 0 0-2.2-.74c-1.91 0-3.24 1.55-3.24 3.46 0 1.92 1.33 3.44 3.24 3.44.96 0 1.81-.38 2.46-.97q.25-.19.57-.19c.51 0 .92.4.92.92 0 .33-.2.63-.46.8a5.34 5.34 0 1 1-.46-8.48m5.28 7.93c.94 0 1.73-.83 1.73-1.95s-.81-1.86-1.73-1.86-1.66.76-1.66 1.86c0 1.09.74 1.95 1.66 1.95m2.21.94-.04-.24c-.4.8-1.7 1.14-2.52 1.14-1.96 0-3.4-1.75-3.4-3.8 0-2.07 1.48-3.74 3.5-3.74.36 0 1.52.09 2.42 1.14l.04-.24a.8.8 0 0 1 .8-.81c.2 0 .42.1.57.24a.8.8 0 0 1 .23.57v5.74a.8.8 0 0 1-.23.57.8.8 0 0 1-.58.24.8.8 0 0 1-.79-.81m7.33-.94c.92 0 1.66-.86 1.66-1.95 0-1.1-.74-1.86-1.66-1.86s-1.73.74-1.73 1.86.79 1.95 1.73 1.95m-1.73 1.24v2.6c0 .58-.48 1.06-1.06 1.06-.57 0-1.03-.48-1.03-1.05V28.7c0-.44.37-.81.81-.81s.8.37.8.88a3.3 3.3 0 0 1 2.45-.97c2.03 0 3.5 1.67 3.5 3.73s-1.44 3.81-3.4 3.81c-.6 0-1.5-.18-2.07-.6"/></svg>