<svg xmlns="http://www.w3.org/2000/svg" width="230" height="100" viewBox="0 0 230 100"><g clip-path="url(#apwypmpwt)"><path d="M61.33 42.98a11.42 11.42 0 0 0-11.65 11.6c0 6.65 4.98 11.57 11.65 11.57s11.73-5 11.73-11.6c0-6.57-4.98-11.57-11.73-11.57zm.04 18.38c-3.72 0-6.45-2.89-6.45-6.77 0-3.93 2.68-6.82 6.4-6.82 3.78 0 6.5 2.93 6.5 6.82 0 3.88-2.72 6.77-6.45 6.77zM74.5 48.03h3.25v17.7h5.2V43.4h-8.45v4.62zm-37.89-.26a5.9 5.9 0 0 1 5.72 4.18h5.5c-1-5.35-5.41-8.97-11.17-8.97-6.54 0-11.65 4.96-11.65 11.6s4.98 11.57 11.65 11.57c5.63 0 10.13-3.62 11.13-9.02h-5.46a5.86 5.86 0 0 1-5.67 4.23c-3.77 0-6.41-2.89-6.41-6.77 0-3.93 2.6-6.82 6.36-6.82zm136.62 4.66l-3.81-.56c-1.82-.26-3.12-.86-3.12-2.29 0-1.55 1.69-2.33 3.98-2.33 2.51 0 4.12 1.08 4.46 2.85h5.03c-.57-4.49-4.03-7.12-9.36-7.12-5.5 0-9.13 2.8-9.13 6.77 0 3.8 2.38 6 7.18 6.7l3.81.55c1.87.26 2.9 1 2.9 2.38 0 1.77-1.81 2.5-4.32 2.5-3.08 0-4.81-1.25-5.07-3.15h-5.11c.48 4.36 3.9 7.42 10.13 7.42 5.67 0 9.44-2.59 9.44-7.03 0-3.97-2.73-6.04-7.01-6.7zM80.34 34.22A3.22 3.22 0 0 0 77 37.49c0 1.9 1.43 3.28 3.34 3.28 1.9 0 3.33-1.38 3.33-3.28s-1.43-3.27-3.33-3.27zm76.25 16.83c0-4.83-2.94-8.07-9.18-8.07-5.89 0-9.18 2.98-9.83 7.55h5.15c.26-1.77 1.65-3.23 4.6-3.23 2.64 0 3.93 1.16 3.93 2.59 0 1.85-2.38 2.32-5.32 2.63-3.99.43-8.92 1.8-8.92 6.99 0 4.01 2.99 6.6 7.75 6.6 3.72 0 6.06-1.55 7.23-4.01.17 2.2 1.82 3.62 4.12 3.62h3.03v-4.61h-2.56V51.05zm-5.1 5.6c0 2.99-2.6 5.19-5.77 5.19-1.95 0-3.6-.82-3.6-2.55 0-2.2 2.65-2.8 5.07-3.06 2.34-.22 3.64-.73 4.3-1.73v2.16zm-27.6-13.67c-2.9 0-5.32 1.2-7.05 3.23V34h-5.2v31.72h5.11V62.8a9.01 9.01 0 0 0 7.15 3.36c6.23 0 10.95-4.92 10.95-11.56 0-6.65-4.8-11.61-10.95-11.61zm-.77 18.38c-3.73 0-6.45-2.89-6.45-6.77 0-3.89 2.77-6.82 6.5-6.82 3.76 0 6.4 2.9 6.4 6.82 0 3.88-2.73 6.77-6.45 6.77zm-23.9-18.38c-3.38 0-5.59 1.38-6.89 3.32v-2.9h-5.15v22.32h5.2V53.6c0-3.4 2.16-5.82 5.36-5.82 3 0 4.85 2.11 4.85 5.18v12.77h5.2V52.56c0-5.61-2.9-9.58-8.57-9.58zM205 53.85c0-6.38-4.68-10.87-10.96-10.87-6.66 0-11.56 5-11.56 11.6 0 6.96 5.24 11.57 11.65 11.57 5.41 0 9.66-3.19 10.74-7.72h-5.41c-.78 1.98-2.69 3.1-5.24 3.1-3.34 0-5.85-2.07-6.41-5.7H205v-1.98zm-16.89-1.72a5.81 5.81 0 0 1 5.85-4.62c2.94 0 5.2 1.68 5.71 4.62h-11.56z" fill="#0052FF"/></g><defs><clipPath id="apwypmpwt"><path transform="translate(25 34)" d="M0 0h180v32.15H0z"/></clipPath></defs></svg>