<svg xmlns="http://www.w3.org/2000/svg" width="132" height="60" viewBox="0 0 132 60"><path fill="#fff" d="M13.15 20.58c-1.15.76-1.77 1.76-1.77 2.77 0 1.02.61 2 1.77 2.78a8.5 8.5 0 0 0 4.62 1.26c1.84 0 3.47-.5 4.63-1.26l.78 1.08a10 10 0 0 1-5.4 1.5 10 10 0 0 1-5.4-1.5q-.56-.35-1-.8v.1c0 1.02.61 2.01 1.77 2.78a8.5 8.5 0 0 0 4.62 1.25 9 9 0 0 0 4-.89l.66 1.17a10 10 0 0 1-4.65 1.05c-2.08 0-4-.56-5.4-1.5q-.56-.35-1-.8v.22c0 1.01.61 2 1.77 2.77a8.5 8.5 0 0 0 4.62 1.2q1.84.01 3.3-.53l.51 1.23a11 11 0 0 1-3.8.68 10 10 0 0 1-5.4-1.5q-.57-.32-1-.8c.03 1 .65 1.95 1.77 2.7a8.5 8.5 0 0 0 4.62 1.25c2.85 0 5.13-1.17 6-2.64l1.2.65c-1.2 2.02-4.04 3.3-7.2 3.3a10 10 0 0 1-5.4-1.48c-1.4-.94-2.37-2.28-2.37-3.86v-9.4c0-1.58.96-2.93 2.37-3.86 1.61-1 3.5-1.53 5.4-1.5 2.73 0 5.45 1.26 6.85 2.8l-1.3.57c-1.07-1.19-3.12-2.05-5.55-2.05-1.83 0-3.46.5-4.62 1.26"/><path fill="#F1B73C" d="M18.6 20.72h16.55l-1.7 4.89h-4.8l-1.3 3.18L32.44 27l-10.8 16 1.97-7.62-3.93 1.82 2.55-11.59h-5.7zm1 1.09-.87 2.71h5.2l-2.3 10.3 4.05-1.88-.81 3.03 4.21-6.37-4.25 1.44 2.93-6.52h4.68l.83-2.71z"/><path fill="#fff" d="M43.4 28.76h-1.35a1.7 1.7 0 0 0-.6-1.04 2 2 0 0 0-.53-.27 2 2 0 0 0-1.7.21q-.47.3-.73.88a3.4 3.4 0 0 0-.27 1.42q0 .85.27 1.43t.72.87a2 2 0 0 0 1.69.2q.59-.17.92-.68.18-.27.23-.58l1.35.01q-.12.8-.64 1.43a3 3 0 0 1-2.5 1.12q-.96 0-1.73-.45a3 3 0 0 1-1.21-1.3 4.4 4.4 0 0 1-.44-2.05q0-1.2.45-2.05.4-.81 1.2-1.3a3.7 3.7 0 0 1 2.89-.28q.8.28 1.36.93.54.66.62 1.5m7.84 1.2q0 1.2-.45 2.05a3.2 3.2 0 0 1-2.95 1.75q-.98 0-1.74-.45a3 3 0 0 1-1.22-1.3 4.4 4.4 0 0 1-.45-2.05q0-1.2.45-2.05a3.2 3.2 0 0 1 2.96-1.76q.93 0 1.74.46.8.49 1.21 1.3.45.85.45 2.05m-1.35 0q0-.84-.26-1.42a2 2 0 0 0-.7-.87q-.5-.31-1.1-.31-.58 0-1.08.31-.5.33-.7.87-.28.68-.27 1.42 0 .84.27 1.43.26.57.72.87.47.3 1.07.3a1.9 1.9 0 0 0 1.8-1.17q.28-.7.25-1.43m4.07-3.8v7.6h-1.4v-7.6zm7.56 0v7.6h-1.2l-3.57-5.14h-.05v5.14h-1.35v-7.6h1.2l3.57 5.14h.06v-5.15zm1.12 1.35v-1.36h5.6v1.36h-2.1v6.25h-1.4v-6.25zm6.98 6.25v-7.6h4.78v1.22h-3.5v2.03h3.22v1.1h-3.23v2.03h3.51v1.22zm6.24 0v-7.6h1.34v6.38h3.36v1.22zm5.82 0v-7.6h4.82v1.22h-3.47v2.03h3.13v1.1h-3.13v2.03h3.5v1.22zm10.95-5.14q-.16-.57-.63-.93-.49-.35-1.1-.33c-.82 0-1.47.47-1.8 1.18q-.28.68-.26 1.42 0 .83.26 1.41.23.54.72.88.5.32 1.1.31c1 0 1.85-.5 1.85-1.52H91.2v-1.08H94v.83c0 1.78-1.28 2.97-3.08 2.97-2.17 0-3.43-1.8-3.43-3.8q0-.89.25-1.6.35-.98 1.2-1.6a3.4 3.4 0 0 1 3.08-.42A2.8 2.8 0 0 1 94 28.62zm2.77 5.14v-7.6h2.77a2.6 2.6 0 0 1 1.82.7 2.4 2.4 0 0 1 .73 1.77c0 .94-.36 1.75-1.14 2.13q-.6.28-1.44.28h-1.98v-1.08h1.8a2 2 0 0 0 .81-.17c.43-.2.65-.64.65-1.16 0-.53-.21-1.05-.63-1.24a2 2 0 0 0-.83-.15H96.8v6.52zm3.82-3.46 1.84 3.46h-1.5l-1.8-3.46zm3.7 3.46h-1.43l2.61-7.6h1.65l2.61 7.6h-1.43l-1.98-5.98h-.05zm.05-3h3.91v1.1h-3.9zm6.37 3v-7.6h2.77a2.7 2.7 0 0 1 1.86.74 2.5 2.5 0 0 1 .75 1.8c0 1.47-1.12 2.46-2.63 2.46h-1.83v-1.1h1.65c.84 0 1.44-.5 1.44-1.35 0-.52-.2-.94-.62-1.16a2 2 0 0 0-.82-.17h-1.23v6.38zm6.5 0v-7.6h1.4v3.25h3.36v-3.26h1.4v7.61h-1.4V30.5h-3.36v3.26z"/></svg>