<svg xmlns="http://www.w3.org/2000/svg" width="200" height="80" viewBox="0 0 200 80"><path fill="#146AFF" d="M102.37 49.43v-6.35q-.08-1.3.18-2.58v-.06a2.2 2.2 0 0 1 1.12-1.32 3 3 0 0 1 3.23 0c.53.28.93.75 1.1 1.32v.05q.26 1.29.19 2.58v6.35h2.97V42.2a9 9 0 0 0-.5-3.49 4.5 4.5 0 0 0-2.44-2.38 7 7 0 0 0-2.91-.6 5.5 5.5 0 0 0-2.93.88V29h-2.99v20.43zm66.67-13.72c3.96 0 6.96 2.51 6.96 6.83 0 .32 0 .63-.03 1.15h-11c0 1.77 1.8 3.63 4.22 3.63q2.7.02 3.79-1.86h2.9a5.5 5.5 0 0 1-2.67 3.4 8.5 8.5 0 0 1-4.17 1.04 7 7 0 0 1-5.15-2.05 6.8 6.8 0 0 1-2-5.08 6.6 6.6 0 0 1 2-5.06 7 7 0 0 1 5.15-2m-2.67 3.27a3.8 3.8 0 0 0-1.43 2.2h8.04c-.26-1.73-1.97-2.95-4.06-2.95a4 4 0 0 0-2.55.75M33.13 46.5a4 4 0 0 0 1.95-1.94h3.29a7 7 0 0 1-2.93 4.18 7.4 7.4 0 0 1-9.6-1.13 7.05 7.05 0 0 1 0-9.47 7.4 7.4 0 0 1 9.6-1.12 7 7 0 0 1 2.93 4.17h-3.24a4.25 4.25 0 0 0-7.76.21 4 4 0 0 0 1.12 4.46 4.2 4.2 0 0 0 4.64.64M49.9 36.32a7 7 0 0 0-2.92-.6 5.5 5.5 0 0 0-2.93.87v-.4h-2.98v13.24h3v-6.35q-.07-1.3.18-2.58v-.06a2.2 2.2 0 0 1 1.12-1.32 3 3 0 0 1 3.24 0zm11.3 6.22v-6.35h2.94v13.24H61.2v-.44a5.5 5.5 0 0 1-2.93.87q-1.53.04-2.92-.6a4.5 4.5 0 0 1-2.43-2.37 9 9 0 0 1-.5-3.48V36.2h2.98v6.35q-.06 1.3.19 2.57v.06c.17.57.56 1.04 1.1 1.32a3 3 0 0 0 3.23 0c.53-.28.93-.76 1.1-1.32v-.06q.25-1.27.2-2.57m9.61 6.89v-6.35q-.06-1.3.2-2.59v-.05c.18-.57.57-1.05 1.1-1.33a3 3 0 0 1 3.24 0c.53.3.93.76 1.1 1.33v.05q.25 1.28.17 2.6v6.34h2.97V42.2a9 9 0 0 0-.49-3.48 4.5 4.5 0 0 0-2.42-2.38 7 7 0 0 0-2.91-.6 5.5 5.5 0 0 0-2.93.88v-.4h-3v13.2zm20.6-2.94c.87-.4 1.56-1.1 1.96-1.94h3.29a7 7 0 0 1-2.93 4.18 7.4 7.4 0 0 1-9.6-1.13 7.05 7.05 0 0 1 0-9.47 7.4 7.4 0 0 1 9.6-1.12 7 7 0 0 1 2.93 4.17h-3.24a4.24 4.24 0 0 0-7.74.22 4 4 0 0 0 1.12 4.44 4.2 4.2 0 0 0 4.62.65m29.92-10.78h.53a7.4 7.4 0 0 1 5.96 2.85 7 7 0 0 1 1.14 6.4 7.1 7.1 0 0 1-4.62 4.65 7.4 7.4 0 0 1-6.55-.94v.75h-2.98V29h2.96v7.94a7.3 7.3 0 0 1 3.56-1.23m4.72 7.77v-.68a4 4 0 0 0-2.3-3.52 4.3 4.3 0 0 0-4.25.28 4.02 4.02 0 0 0 .53 6.95h.09q.5.22 1.05.31h.13q.29.04.56.04h.55l.4-.06a4.2 4.2 0 0 0 2.91-2.24v-.07q.23-.48.33-1.01m33.44-3.33v-.06c0-2.16-1.69-4.35-5.46-4.4-3.77-.03-5.4 2.17-5.46 4.3v.16c.09 1.24.81 2.83 3.63 3.48l2.51.55c.65.14 1.75.5 1.83 1.3 0 1.13-1.46 1.71-2.51 1.71-1.2 0-2.52-.66-2.52-1.7v-.07h-2.94v.04c0 2.15 1.7 4.35 5.47 4.39s5.46-2.23 5.46-4.39v-.04c-.07-1.26-.76-2.87-3.63-3.52l-2.5-.55c-.55-.12-1.84-.48-1.84-1.29 0-1.25 1.3-1.7 2.51-1.7 1.22 0 2.52.67 2.52 1.72v.07zm-26.88 6.3a7 7 0 0 1-1.07-3.64c.02-1.87.8-3.66 2.15-4.98a7.4 7.4 0 0 1 5.1-2.07h.54c1.27.09 2.5.52 3.56 1.23v-.8h2.96v13.24h-2.98v-.77a7.37 7.37 0 0 1-10.26-2.21m3.22-6.53a4 4 0 0 0-1.22 2.89q.05.22.15.45v.12q.09.53.31 1.02v.06a4.1 4.1 0 0 0 2.86 2.23l.4.06h.52q.27 0 .56-.04h.13a4 4 0 0 0 1.05-.32h.09a4 4 0 0 0 1.56-5.93 4.1 4.1 0 0 0-4.28-1.68c-.8.16-1.55.56-2.12 1.14"/></svg>