<svg xmlns="http://www.w3.org/2000/svg" width="132" height="60" viewBox="0 0 132 60"><path fill="#fff" d="M37.37 35.23a4.2 4.2 0 0 1-3.11-1.31A4.6 4.6 0 0 1 33 30.69a4.6 4.6 0 0 1 1.26-3.25 4.3 4.3 0 0 1 3.13-1.34c1.29-.06 2.53.5 3.37 1.52l-1.2 1.34a2.8 2.8 0 0 0-2.19-1.1 2.5 2.5 0 0 0-1.79.87 2.6 2.6 0 0 0-.64 1.93 2.6 2.6 0 0 0 2.53 2.84 3 3 0 0 0 2.19-1.1l1.17 1.2a4.2 4.2 0 0 1-3.46 1.63m7.13 0h-1.93v-9.11h1.93v2.14a3 3 0 0 1 3-2.14v2.12h-.11c-1.7 0-2.89 1.14-2.89 3.46zm13.15-9.13-4.29 11.58H51.4l.93-2.44-3.67-9.14h2.07l2.5 6.75 2.4-6.75zm6.19 9.11a3.4 3.4 0 0 1-2.9-1.51v4h-1.93V26.1h1.93v1.64a3.4 3.4 0 0 1 2.87-1.64c2 0 3.95 1.64 3.95 4.56s-1.94 4.55-3.92 4.55m-.44-7.36a2.5 2.5 0 0 0-1.82.86c-.47.53-.7 1.24-.65 1.96-.05.71.18 1.42.65 1.95.46.53 1.12.85 1.82.87a2.5 2.5 0 0 0 1.77-.88c.45-.54.67-1.24.6-1.94a2.6 2.6 0 0 0-.62-1.95 2.5 2.5 0 0 0-1.79-.88zm8.6.13v4.29c-.05.3.05.6.25.81s.5.32.79.28h.79v1.79h-1.36c-1.41 0-2.37-.66-2.37-2.57v-4.6H69v-1.69h1.07v-2.4H72v2.4h1.8v1.69zm7.93 7.25a4.3 4.3 0 0 1-3.17-1.29 4.6 4.6 0 0 1-1.32-3.25 4.7 4.7 0 0 1 2.7-4.4 4.4 4.4 0 0 1 4.97.93 4.8 4.8 0 0 1 1.02 5.11 4.5 4.5 0 0 1-4.2 2.9m0-7.36c-.7 0-1.38.3-1.86.82a2.7 2.7 0 0 0-.7 1.98c-.03.73.23 1.45.72 1.98a2.5 2.5 0 0 0 3.75.03c.48-.53.73-1.25.68-1.98a2.8 2.8 0 0 0-.7-2 2.6 2.6 0 0 0-1.89-.84M103 35.23a4.3 4.3 0 0 1-3.17-1.29 4.6 4.6 0 0 1-1.31-3.25 4.7 4.7 0 0 1 2.7-4.4 4.4 4.4 0 0 1 4.96.95 4.8 4.8 0 0 1 1.01 5.1 4.5 4.5 0 0 1-4.19 2.89m0-7.36c-.7 0-1.38.3-1.86.82a2.7 2.7 0 0 0-.69 1.98c-.03.73.22 1.45.7 1.98a2.5 2.5 0 0 0 3.75.03c.5-.53.74-1.25.7-1.98a2.8 2.8 0 0 0-.72-2 2.6 2.6 0 0 0-1.88-.84m16.05-1.77c1.84 0 2.96 1.21 2.96 3.36v5.77h-1.94v-5.17c0-1.39-.62-2.13-1.71-2.13-1.1 0-1.8.76-1.8 2.17v5.13h-1.95v-5.19c0-1.35-.64-2.11-1.71-2.11s-1.81.81-1.81 2.19v5.11h-1.94V26.1h1.94v1.52a3 3 0 0 1 2.58-1.52 2.7 2.7 0 0 1 2.51 1.55 3.4 3.4 0 0 1 2.86-1.55M88 33.4v1a.1.1 0 0 1-.05.1l-.85.5a.1.1 0 0 1-.1 0l-.85-.48a.1.1 0 0 1-.06-.1V33.4q0-.06.06-.1l.84-.52a.1.1 0 0 1 .11 0l.85.51q.06.04.05.1m5.89 1.82c-1.17 0-2.28-.5-3.09-1.37a4.6 4.6 0 0 1-1.2-3.25 4.6 4.6 0 0 1 1.32-3.23 4.3 4.3 0 0 1 3.16-1.28 4.2 4.2 0 0 1 3.35 1.58L96.26 29a2.8 2.8 0 0 0-2.17-1.14c-.69.02-1.34.32-1.81.83a2.7 2.7 0 0 0-.69 1.92c-.05.73.18 1.45.65 2 .47.54 1.13.86 1.84.89.85-.01 1.65-.4 2.21-1.06l1.15 1.22a4.2 4.2 0 0 1-3.55 1.57"/><path fill="#FEFEFE" d="M19.3 20 10 25.25v10.5L19.3 41l9.31-5.25v-10.5z"/><path fill="#002D72" d="M19.3 20 10 25.25v10.5L19.3 41l9.31-5.25v-10.5zm-3.67 4.54h7.32l.89 3.65h-9.06zm2.11 6.24-.8-2.04h4.74l-.78 2.04.23 2.27-1.83.01h-1.8zm2.33 4.69v-.72l1.64-1.54v-2.43l2.14-1.36 2.45 1.8-3.33 5.67h-1.32zm-7.76-4.25 2.45-1.78 2.17 1.34v2.43l1.64 1.54v.72L17 36.9h-1.33z"/><path fill="url(#autxwusvc)" d="M22.97 36.9h-1.32l-1.58-1.43v-.72l1.64-1.54v-2.43l2.14-1.36 2.45 1.8zM19.3 20v4.54h3.65l.89 3.65H19.3v.55h2.37l-.78 2.04.23 2.27-1.83.01V41l9.31-5.25v-10.5z" style="mix-blend-mode:multiply"/><path fill="url(#butxwusvc)" d="M18.57 35.47 17 36.9h-1.33l-3.35-5.69 2.45-1.78 2.17 1.34v2.43l1.64 1.54zm-1.07-2.4.24-2.3-.8-2.03h2.37v-.55h-4.53l.85-3.65h3.68V20L10 25.25v10.5L19.3 41v-7.94z" style="mix-blend-mode:multiply"/><path fill="#fff" d="m19.46 20.09 9.15 5.16v10.5L19.31 41 10 35.75v-10.5l.16-.09L19.3 20zm-8.84 5.52v9.78l8.68 4.9L28 35.4v-9.78l-8.69-4.9z"/><defs><linearGradient id="autxwusvc" x1="110.06" x2="110.06" y1="38.73" y2="22.21" gradientUnits="userSpaceOnUse"><stop stop-color="#002D72"/><stop offset="1" stop-color="#002D72" stop-opacity=".01"/></linearGradient><linearGradient id="butxwusvc" x1="110.06" x2="110.06" y1="38.73" y2="22.21" gradientUnits="userSpaceOnUse"><stop stop-color="#002D72" stop-opacity=".01"/><stop offset="1" stop-color="#002D72"/></linearGradient></defs></svg>