<svg width="225" height="80" viewBox="0 0 225 80" xmlns="http://www.w3.org/2000/svg"><path d="M12.1 60.24h63.98V19.11H12.1v41.13Z" fill="#CB132A"/><path d="M39.29 36.27h4.25s.03-2.87-.04-4c-.03-1.14-.71-4.15-5.64-4.12a5.52 5.52 0 0 0-5.9 5.5c0 1.59-.07 10.38 0 12.52.08 2.14 1.54 5.06 5.83 5.08 4.5 0 5.71-2.44 5.75-4.25.03-2.08 0-3.87 0-3.87h-4.25s-.04 2.05-.04 3.1c0 .77-.4 1.82-1.46 1.72-1.29-.13-1.29-1.06-1.32-2.48V33.8c0-1.34.42-2.37 1.46-2.35.93.02 1.36.79 1.36 2.35v2.47ZM56.75 36s-.03-1.65-.03-3.6c0-1.96-.72-4.24-5.15-4.22-4.42.03-5.5 2.48-5.64 4.7-.18 2 0 3.36.22 3.86.14.41.42 1.06 1.78 2.32 1.32 1.2 3.32 2.8 4.14 3.76.68.83.61 2.29.61 2.74 0 .46 0 1.63-.28 2.02-.25.33-.65.43-1.18.4-.68-.05-1.25-.17-1.25-1.68v-3.08l-4.25-.01v4.02c.03.69.46 2.22 1.28 2.89 1.15.9 2.25 1.16 4.07 1.16 2.22-.02 3.65-.47 4.61-1.52.79-.84 1.29-2.09 1.29-4.71 0-2.75-.57-3.88-2.4-5.69-1.89-1.85-3.78-3.09-4.17-4.12-.36-.8-.25-2.19-.22-2.77.07-.51.29-1 1.1-.99.65.01 1.04.17 1.22.82.22.64.15 3.7.15 3.7M71.22 28.42v22.56h-4.04v-2.76s-.39 3.28-4.57 3c-4.14-.28-3.5-5.07-3.5-6.7v-16.1h4.54v17.54s0 .92.25 1.23c.32.36.6.48 1.14.48.54 0 .96-.2 1.25-.57.25-.36.36-1.1.36-1.47V28.42M119.13 29.15c0-4.07 0-7.94 5.3-7.94 3.27 0 4.58 1.8 4.46 5.1h-3.15c0-2.04-.35-2.8-1.31-2.8-1.81 0-2.06 1.7-2.06 5.64 0 3.93.25 5.64 2.06 5.64 1.4 0 1.43-1.69 1.46-2.9v-.23h3.18c0 4.1-1.65 5.43-4.64 5.43-5.3 0-5.3-3.92-5.3-7.94Zm-18.84 7.68v-7.4c0-.96-.16-1.7-1.12-1.7-.97 0-1.13.74-1.13 1.7v7.4h-3V21.46h3v5.7h.03c.6-.95 1.4-1.3 2.53-1.3 1.44 0 2.68.86 2.68 2.35v8.62h-3Zm-6.14-15.37v2.56h-3.6v12.8h-3.2v-12.8h-3.56v-2.56h10.36Zm16.18 8.67v.12h-2.74c0-.91 0-2.53 1.37-2.53 1.38 0 1.37 1.38 1.37 2.41Zm-1.37 5c-1.31 0-1.37-1.92-1.37-3.2h5.77c.09-3.44-.35-6.06-4.4-6.06-3.96 0-4.4 2.51-4.4 5.45 0 3.36.53 5.72 4.4 5.72 1.4 0 2.46-.38 3.18-1.04a3.8 3.8 0 0 0 1.12-2.79h-3.02c0 .9-.22 1.91-1.28 1.91Zm25.2.06c-1 0-1.13-.94-1.13-1.7 0-1.77.96-1.8 2.27-1.84l.35-.01.01.4c.03 1.24.06 3.15-1.5 3.15Zm4.55 1.64c-.06-.66-.12-1.34-.12-2v-5.36c0-1.96-.5-3.6-4.3-3.6-1.16 0-2.13.2-2.81.7-.72.5-1.13 1.32-1.13 2.62h2.97c0-.85.06-1.64 1.12-1.64s1.22.66 1.22 1.58v.83c-2.81-.05-5.56.1-5.56 3.65 0 1.88.78 3.43 2.87 3.43a3 3 0 0 0 2.81-1.64h.03l.13 1.43h2.77Zm1.75 0h3V21.47h-3v15.36Zm5.08 0h3V26.08h-3v10.75Zm3-13v-2.37h-3v2.37h3Zm7.08-.51c-1.22-.09-1.5.38-1.5 1.46v1.3h1.43v1.86h-1.43v8.9h-3v-8.9h-1.34v-1.86h1.38l-.01-.52c-.04-2.75-.06-4.2 3.37-4.2.35 0 .67.02 1.01.04h.09v1.92Zm4.86 4.46c1.28 0 1.4 1.13 1.4 3.37 0 3.27-.28 3.97-1.4 3.97-1.1 0-1.37-.7-1.37-3.97 0-2.24.12-3.37 1.37-3.37Zm0-1.91c-3.93 0-4.37 2.51-4.37 5.45 0 3.36.5 5.72 4.37 5.72 3.9 0 4.4-2.36 4.4-5.72 0-2.94-.44-5.45-4.4-5.45Zm8.86.21v1.39h.03c.56-1.24 1.56-1.6 2.77-1.6v2.68c-2.62-.17-2.68 1.36-2.68 2.43v5.85h-3V26.08h2.88Zm6.83 1.09h-.07v-1.09h-2.99v10.75h3v-7.4c0-.96.18-1.7 1.12-1.7.96 0 1.15.74 1.15 1.7v7.4h3v-8.62c0-1.49-1.25-2.34-2.69-2.34-1.12 0-1.93.34-2.52 1.3Zm10.2 9.66h-3V26.08h3v10.75Zm0-15.37v2.37h-3v-2.37h3Zm5.73 13.73c-.96 0-1.09-.94-1.09-1.7 0-1.77.93-1.8 2.24-1.84l.35-.01v.43c.04 1.24.08 3.12-1.5 3.12Zm4.54 1.15c-.05-.5-.1-1.01-.1-1.51v-5.36c0-1.96-.48-3.6-4.31-3.6-1.13 0-2.12.2-2.8.7-.7.5-1.1 1.32-1.1 2.62h2.93c0-.85.1-1.64 1.12-1.64 1.1 0 1.22.66 1.22 1.58v.83c-2.78-.05-5.52.1-5.52 3.65 0 1.88.75 3.43 2.84 3.43 1.3 0 2.18-.53 2.8-1.64h.07l.12 1.43h2.78l-.05-.49ZM88.37 57.08c-4 0-4.74-2.34-4.55-5h3.2c0 1.47.07 2.7 1.82 2.7 1.09 0 1.62-.7 1.62-1.74 0-1.21-1.24-1.93-2.63-2.73C86.05 49.28 84 48.1 84 45.52c0-2.4 1.16-4.32 5.06-4.32 3.15 0 4.67 1.41 4.49 4.62H90.4c0-1.14-.19-2.32-1.47-2.32-1.06 0-1.68.58-1.68 1.64 0 1.28 1.24 1.94 2.63 2.7 1.8.96 3.85 2.07 3.85 4.8 0 3.97-2.93 4.44-5.36 4.44Zm5.83-11h1.22v-1.7l3.02-1.35v3.05h1.53v1.85h-1.53v5.82c0 .77 0 1.27.94 1.27.19 0 .37 0 .53-.05v1.86c-.06 0-.12 0-.18.02-.36.03-.74.08-1.38.08-2.59 0-2.93-1.72-2.93-2.38v-6.62H94.2v-1.85Zm10.67 9.1c-1 0-1.12-.93-1.12-1.7 0-1.76.94-1.8 2.24-1.84l.34-.01.01.44c.03 1.24.08 3.11-1.47 3.11Zm4.5 1.16c-.05-.51-.1-1.02-.1-1.52v-5.36c0-1.96-.47-3.6-4.28-3.6-1.15 0-2.15.2-2.8.7-.72.5-1.13 1.32-1.13 2.62H104c0-.85.09-1.64 1.12-1.64 1.09 0 1.21.66 1.21 1.58v.83c-2.77-.04-5.52.1-5.52 3.66 0 1.87.75 3.43 2.84 3.43 1.31 0 2.19-.54 2.8-1.65h.07l.13 1.43h2.77l-.05-.48Zm.74-10.26h1.21v-1.7l3-1.35v3.05h1.56v1.85h-1.56v5.74c0 .81 0 1.35.96 1.35.2 0 .38 0 .53-.05v1.86l-.16.01c-.36.04-.77.09-1.4.09-2.58 0-2.93-1.72-2.93-2.38v-6.62h-1.21v-1.85Zm12.2 4.1v.07h-2.75v-.06c0-.93 0-2.47 1.37-2.47s1.37 1.42 1.37 2.46Zm-1.38 4.94c-1.34 0-1.37-1.92-1.37-3.2h5.73c.13-3.44-.34-6.06-4.36-6.06-3.96 0-4.4 2.51-4.4 5.45 0 3.36.53 5.73 4.4 5.73 1.4 0 2.46-.39 3.15-1.05a3.7 3.7 0 0 0 1.15-2.79h-3.02c0 .9-.22 1.92-1.28 1.92Zm21.3-13.66v10.9c0 2.3-1.28 4.72-5.2 4.72-3.53 0-5.25-1.83-5.25-4.73v-10.9H135v10.7c0 1.89.8 2.63 2 2.63 1.4 0 2.02-.94 2.02-2.64V41.46h3.21Zm4.99 5.7h-.03v-1.08h-3.03v10.74h3.03v-7.4c0-.96.16-1.7 1.12-1.7.94 0 1.13.74 1.13 1.7v7.4h2.99V48.2c0-1.48-1.25-2.34-2.68-2.34-1.13 0-1.94.35-2.53 1.3Zm10.32 9.67h-3V46.08h3v10.75Zm0-15.37v2.36h-3v-2.36h3Zm4.15 4.62h-3.06l2.87 10.75h3.31l2.93-10.75h-2.93l-1.56 8.06h-.06l-1.5-8.06Zm12.41 4.17v-.07c0-1.04 0-2.46-1.4-2.46-1.34 0-1.34 1.54-1.34 2.47v.06h2.74Zm-2.74 1.68c0 1.27.03 3.19 1.34 3.19 1.06 0 1.28-1.02 1.28-1.92h3.06a3.93 3.93 0 0 1-1.16 2.8c-.69.65-1.78 1.04-3.18 1.04-3.87 0-4.37-2.37-4.37-5.73 0-2.94.4-5.45 4.37-5.45 4.05 0 4.5 2.62 4.4 6.07h-5.74Zm10.2-4.47v-1.38h-2.87v10.74h3v-5.85c0-1.06.05-2.6 2.67-2.43v-2.68c-1.21 0-2.21.37-2.77 1.6h-.03Zm6.11 5.91c-.03.5 0 .96.16 1.3.15.34.46.51 1.09.51.59 0 1.09-.38 1.09-1.1 0-1.03-1.07-1.49-2.24-2-1.43-.62-3.03-1.31-3.03-3.2 0-2.32 2.3-3.02 4.24-3.02 2.03 0 3.9.98 3.71 3.3h-2.93c0-.74-.1-1.19-.31-1.38-.19-.2-.44-.24-.75-.24-.66 0-1.03.43-1.03 1.15 0 .7.9 1.1 1.95 1.57 1.5.67 3.32 1.47 3.32 3.5 0 1.87-1.53 3.28-4.02 3.28-2.62 0-4.37-.67-4.18-3.67h2.93Zm6.74 3.46h2.99V46.08h-3v10.75Zm2.99-13v-2.37h-3v2.36h3Zm1 2.25h1.22v-1.7l2.99-1.35v3.05h1.56v1.85h-1.56v5.82c0 .76 0 1.27.96 1.27.2 0 .38 0 .54-.05v1.86l-.17.01c-.36.04-.77.09-1.4.09-2.58 0-2.92-1.72-2.92-2.38v-6.62h-1.22v-1.85Zm6.02 0 2.9 10.83-1.13 3.98h3.15l4.15-14.81h-2.9l-1.62 7.55h-.03l-1.53-7.55h-3Z" fill="#fff"/></svg>