<svg width="201" height="80" viewBox="0 0 201 80" xmlns="http://www.w3.org/2000/svg"><path d="M115.32 21.06v5.99c0 1.12-.18 2.07-.48 2.81a3.3 3.3 0 0 1-.5.63c-.67.67-1.43 1-2.33 1-2.13 0-3.18-1.48-3.18-4.44v-6h-4v6.54c0 2.35.57 4.16 1.78 5.44a5.8 5.8 0 0 0 3.37 1.81v4.29h4v-4.38a7.15 7.15 0 0 0 3.46-1.72c1.22-1.28 1.89-3.1 1.89-5.44v-6.53h-4ZM79.31 39.13h4.4V21.06h-4.4v18.07Z" fill="#fff"/><path d="M80.78 42.8h1.45V17.4h-1.45v25.4ZM47.33 34.12c.98-.92 1.47-2.25 1.47-4.02 0-1.76-.49-3.07-1.47-4.02-.98-.95-2.48-1.37-4.5-1.37h-2.3v10.77h2.6c1.82 0 3.22-.43 4.2-1.36Zm2.93-10.68c1.7 1.57 2.55 3.77 2.55 6.56 0 2.8-.83 5.03-2.49 6.66-1.66 1.63-4.2 2.47-7.6 2.47h-6V21.06h6.2c3.2 0 5.64.81 7.34 2.38ZM61.6 28.83v2.55h7.26v-2.42c0-1.44-.28-2.56-.93-3.35a3.2 3.2 0 0 0-2.64-1.2c-1.14 0-2.05.38-2.7 1.14-.63.77-.98 1.86-.98 3.28ZM57.8 39.26v-10.3c0-2.66.63-4.68 1.98-6.06 1.34-1.38 3.2-2.07 5.6-2.07 2.4 0 4.21.68 5.55 2.05 1.34 1.36 1.95 3.34 1.95 5.93v10.45h-4.01v-4.23h-7.25v4.23h-3.82ZM90.18 39.13V21.06h4.01v14.42h7.64v3.65H90.18Z" fill="#fff"/><path d="M125.68 21.06h15.94v4.6h-10.94v2.68h10.75v4.98h-10.75v5.9l-5 .01V21.06ZM152.12 29.78l-6.96-8.72h6.16l3.89 4.85 3.88-4.85h6.17l-6.96 8.71 7.6 9.48h-6.21l-4.46-5.57-4.41 5.57h-6.28l7.58-9.47Z" fill="#FF7501"/><path d="M152.37 45.8v13.25h-2.56V45.8h2.56Zm8.24-.33h-.07a6.93 6.93 0 0 0-4.76 1.97 6.9 6.9 0 0 0-.2 9.8 6.91 6.91 0 0 0 5.03 2.14c1.96 0 3.98-.8 5.28-2.08v-5.88h-5.53v2.45h3.04v2.15l-.03.03c-.77.5-1.76.83-2.76.83-1.23 0-2.38-.5-3.23-1.4a4.4 4.4 0 0 1-1.22-3.3 4.5 4.5 0 0 1 4.2-4.2 4.5 4.5 0 0 1 3.49 1.47l1.77-1.77-.11-.12a6.72 6.72 0 0 0-4.9-2.09Z" fill="#E01B1C"/><path d="M78.94 58.62h1.04v-3.08a2.6 2.6 0 0 0 2.01.95c1.9 0 2.99-1.37 2.99-3.18 0-1.82-1.06-3.19-2.96-3.19-.9 0-1.7.43-2.04 1v-.9h-1.04v8.4Zm2.96-3.06c-1.2 0-2-.9-2-2.25 0-1.36.8-2.26 2-2.26 1.22 0 2.02.9 2.02 2.26 0 1.36-.8 2.25-2.02 2.25Zm8.03-4.32.07-1c-.21-.08-.46-.12-.72-.12-.76 0-1.57.56-1.92 1.35v-1.25H86.3v6.17h1.05v-2.35c0-2 .8-2.95 1.78-2.95.27 0 .56.05.8.15Zm3.58 5.25a3.06 3.06 0 0 0 3.16-3.18 3.06 3.06 0 0 0-3.16-3.19 3.05 3.05 0 0 0-3.14 3.19c0 1.85 1.3 3.18 3.14 3.18Zm0-.93c-1.24 0-2.07-.93-2.07-2.25 0-1.33.83-2.26 2.07-2.26 1.24 0 2.08.93 2.08 2.26 0 1.32-.84 2.25-2.08 2.25Zm5.86.83h1.07l2.27-6.17h-1.08l-1.73 4.96-1.72-4.96H97.1l2.26 6.17Zm4.28-8.67v1.32h1.2v-1.32h-1.2Zm.07 8.67h1.05v-6.17h-1.05v6.17Zm5.36.1c.91 0 1.73-.43 2.02-.99v.9h1.04v-8.68h-1.04v3.38c-.4-.58-1.2-.98-2.03-.98-1.91 0-2.97 1.37-2.97 3.19 0 1.81 1.06 3.18 2.98 3.18Zm.1-.93c-1.21 0-2.01-.9-2.01-2.25 0-1.36.8-2.26 2.01-2.26 1.22 0 2.01.9 2.01 2.26 0 1.36-.8 2.25-2 2.25Zm10.25-2.54c0-1.59-1.13-2.9-2.96-2.9-1.87 0-3 1.43-3 3.19 0 1.75 1.17 3.18 3.02 3.18 1.43 0 2.46-.7 2.77-1.9l-.99-.23c-.18.77-.83 1.21-1.78 1.21-1.11 0-1.9-.82-1.97-2.07h4.88c.02-.1.03-.33.03-.48Zm-4.85-.39c.2-1.03.92-1.64 1.89-1.64 1.1 0 1.75.7 1.85 1.64h-3.74Zm8.82 3.86c.9 0 1.73-.43 2.01-.99v.9h1.05v-8.68h-1.05v3.38c-.39-.58-1.2-.98-2.02-.98-1.92 0-2.97 1.37-2.97 3.19 0 1.81 1.05 3.18 2.98 3.18Zm.1-.93c-1.22 0-2.02-.9-2.02-2.25 0-1.36.8-2.26 2.02-2.26 1.21 0 2.01.9 2.01 2.26 0 1.36-.8 2.25-2.01 2.25Zm10.66.93c1.93 0 2.99-1.37 2.99-3.18 0-1.82-1.06-3.19-2.97-3.19-.83 0-1.64.4-2.03.98v-3.38h-1.04v8.67h1.04v-.89c.28.56 1.1 1 2.01 1Zm-.1-.93c-1.2 0-2-.9-2-2.25 0-1.36.8-2.26 2-2.26 1.22 0 2.02.9 2.02 2.26 0 1.36-.8 2.25-2.01 2.25Zm8.3-5.34-1.82 4.73-1.82-4.73h-1.13l2.42 6.09-.9 2.31h1.07l3.24-8.4h-1.06Z" fill="#fff"/></svg>