<svg width="56" height="56" viewBox="0 0 56 56" xmlns="http://www.w3.org/2000/svg"><rect width="56" height="56" rx="8" fill="url(#an5tcdogt)"/><path d="m21.6 30.4-3.3 8.35L40.7 56H48a8 8 0 0 0 8-8V28.67L41.96 16H18.3L16 22.82l5.6 7.59Z" fill="#17875F"/><path d="M44 19.8h-6.83V47a8.85 8.85 0 0 1-3.3-.64c-1.08-.4-1.62-.86-1.62-1.4v-5.89a13.7 13.7 0 0 1-7.47 2.18c-2.69 0-4.88-.69-6.59-2.08a6.88 6.88 0 0 1-2.5-5.5c0-1.71.59-3.25 1.77-4.6a9.06 9.06 0 0 1-3.99-2.78A7.01 7.01 0 0 1 12 21.84c0-1.72.69-3.29 2.06-4.71C15.47 15.71 17.4 15 19.82 15c1.77 0 3.13.4 4.08 1.19.98.8 1.47 1.77 1.47 2.92 0 2.35-1.5 4-4.52 4.95-.5-.4-.85-.95-1.08-1.68 1.34-.9 2.01-1.83 2.01-2.82 0-.56-.16-1.01-.49-1.34-.33-.36-.85-.55-1.57-.55-.72 0-1.43.4-2.12 1.2a4.59 4.59 0 0 0-1.03 3.11 4.9 4.9 0 0 0 1.03 3.17c.72.83 1.63 1.4 2.7 1.74a19.2 19.2 0 0 1 4.87-1.64 7.92 7.92 0 0 1 2.36 3.72 15.6 15.6 0 0 0-5.16 1.88c-1.37.83-2.06 1.78-2.06 2.87 0 1.06.36 1.92 1.08 2.58.75.66 1.82 1 3.2 1 1.4 0 2.8-.4 4.17-1.2a11.3 11.3 0 0 0 3.5-3.12V19.81h-3.4a6.71 6.71 0 0 1-1.77-4.41h15.39A7.06 7.06 0 0 1 44 19.8Z" fill="#fff"/><defs><linearGradient id="an5tcdogt" x1="52.5" y1="47.6" x2="32.51" y2="-.76" gradientUnits="userSpaceOnUse"><stop stop-color="#138C61"/><stop offset="1" stop-color="#4DBA93" stop-opacity=".99"/></linearGradient></defs></svg>