<svg xmlns="http://www.w3.org/2000/svg" width="132" height="60" viewBox="0 0 132 60"><path fill="#fff" d="M10 35.75v-.99h1.36V24.52H10v-.98h9.47v2.9h-.96v-1.78h-4.44v3.92h2.77v-1.54h.96v4.23h-.96v-1.55h-2.77v4.94h4.57V32.9h.96v2.89H10zm13.59-.99h1.07v.99h-4.64v-.99h1.07V24h-1.07v-1h3.56zm15.6-2.5a5 5 0 0 1-1.5 2.8c-.84.64-1.86.96-2.9.91a5.4 5.4 0 0 1-4.22-1.7q-1.53-1.73-1.54-4.64 0-2.93 1.54-4.63a5.4 5.4 0 0 1 4.22-1.71q.94 0 1.95.27 1.04.28 2.15.78v3h-.88a4.4 4.4 0 0 0-1-2.3 2.5 2.5 0 0 0-1.92-.76q-1.54 0-2.29 1.32-.74 1.32-.75 4.03 0 2.73.75 4.04.36.63.97.99.63.34 1.33.3 1.06 0 1.7-.67c.52-.57.85-1.29.98-2.06h1.41zM43.95 36q-2 0-3.1-1.24a4.8 4.8 0 0 1-1.13-3.36q0-2.14 1.12-3.36 1.12-1.2 3.1-1.2 2 0 3.11 1.2 1.12 1.2 1.12 3.36 0 2.15-1.14 3.36A4 4 0 0 1 43.95 36m0-.93q.78 0 1.11-.78.32-.77.32-2.9 0-2.07-.32-2.86-.31-.77-1.12-.78-.8 0-1.1.78a9 9 0 0 0-.33 2.87q0 2.1.32 2.87.3.8 1.12.8m4.11.65v-.95h1.08v-6.73h-1.08v-.99h3.56v1.24q.45-.78 1.03-1.12a3 3 0 0 1 1.45-.34q1.26 0 1.91.87.65.88.65 2.56v4.55h1.07v.98h-4.48v-.98h.9v-4.69q0-1.1-.24-1.54-.26-.44-.83-.43-.76.01-1.12.65a4.5 4.5 0 0 0-.34 2.04v3.9h.9v.98zM64.61 25.2h-.77a1.7 1.7 0 0 0-.33-.93 1 1 0 0 0-.75-.32q-.57 0-.81.47a3 3 0 0 0-.26 1.52v1.12h1.89v1h-1.89v6.7h1.44v1h-5.01v-1h1.06v-6.7h-1.1v-1h1.1v-1.1q0-1.44.8-2.19.79-.74 2.34-.74.6 0 1.17.07t1.12.22zm4.13 9.57h-1.07v-7.7h-3.56v.98h1.08v6.72H64.1v.98h4.63zm-3.42-11.3q-.4.48-.4 1.13t.4 1.1a1.3 1.3 0 0 0 .95.45 1.2 1.2 0 0 0 .95-.45q.39-.46.39-1.1 0-.63-.39-1.12a1.3 1.3 0 0 0-.94-.45q-.58-.02-.96.45m12.75 11.3h-1.05V23h-3.58v.99h1.07v4.19a2.3 2.3 0 0 0-.86-1.01q-.62-.36-1.32-.34-1.61 0-2.52 1.21a5.4 5.4 0 0 0-.92 3.36q.01 2.12.92 3.36.46.61 1.12.94t1.4.3q.7.01 1.32-.34.55-.34.86-1v1.09h3.56zm-3.58-3.79v.85q.01 1.5-.34 2.25-.33.67-1.08.67-.76 0-1.1-.72a7 7 0 0 1-.31-2.6q0-1.88.32-2.6.33-.7 1.1-.71.73 0 1.07.67.34.68.34 2.2m6.47.84h5.14a6.7 6.7 0 0 0-1-3.74 3.4 3.4 0 0 0-2.85-1.29q-1.9 0-2.96 1.22a5 5 0 0 0-1.08 3.38q0 2.22 1.04 3.4 1.02 1.2 2.97 1.2 1.61 0 2.51-.7.9-.69 1.2-2.17h-1.18a2.4 2.4 0 0 1-.64 1.45q-.5.5-1.31.5-.96 0-1.41-.75a5.4 5.4 0 0 1-.43-2.44zm2.12-3.4q.29.72.28 2.43h-2.42v-.16q0-1.6.27-2.28.3-.67.93-.67.67-.01.94.7zm3.1 6.35v.96h4.47v-.98h-.9v-3.9q-.01-1.39.34-2.04a1.2 1.2 0 0 1 1.12-.65q.57 0 .83.43.23.44.23 1.54v4.69h-.9v.98h4.49v-.98h-1.08v-4.55q0-1.68-.64-2.56-.65-.87-1.9-.87a3 3 0 0 0-1.46.34 3 3 0 0 0-1.04 1.12v-1.24H86.2v1h1.07v6.7zm17.34-1.68v-.04zm-1.08 2.18q.79-.75 1.08-2.18h-1.17a2.7 2.7 0 0 1-.56 1.5q-.45.52-1.2.52-.44.01-.82-.21a1.5 1.5 0 0 1-.57-.64 7 7 0 0 1-.43-2.83q0-2.02.45-2.84c.28-.56.8-.83 1.48-.83q.8 0 1.24.54.46.52.56 1.63h.79V27.5a8 8 0 0 0-3.22-.7q-1.9 0-3 1.22a5 5 0 0 0-1.09 3.39q0 2.17 1.1 3.37a4 4 0 0 0 3.1 1.22q1.42 0 2.25-.74m6.06-.5h-1.07v-7.7h-3.56v.98h1.07v6.72h-1.07v.98h4.63zm-3.43-11.3q-.39.48-.39 1.13.02.65.39 1.1a1.3 1.3 0 0 0 .95.45 1.2 1.2 0 0 0 .95-.45q.4-.46.4-1.1 0-.63-.4-1.12a1.3 1.3 0 0 0-.94-.45q-.57-.02-.96.45M116 34.77v-4.35q0-1.86-.92-2.75-.93-.88-2.94-.88-.8 0-1.52.14-.72.16-1.4.43v1.88h.8q.18-.8.58-1.17.42-.37 1.16-.36.9 0 1.33.5.41.5.42 1.57v.51h-1.3q-1.78 0-2.66.74-.88.73-.88 2.2 0 1.35.62 2.05a2.2 2.2 0 0 0 1.76.73q.73 0 1.4-.35.65-.35 1.06-1v1.1h3.56v-.99zm-2.49-3.5v1.75q0 .74-.36 1.17-.33.44-.92.45a1 1 0 0 1-.84-.4q-.28-.4-.28-1.24t.4-1.28a1.4 1.4 0 0 1 1.06-.44zm8.49 3.5h-1.07V23h-3.56v.99h1.07v10.77h-1.07v.99H122z"/></svg>