<svg xmlns="http://www.w3.org/2000/svg" width="200" height="80" viewBox="0 0 200 80"><path fill="#fff" d="M146.28 47.82V36.97c0-4.37-.6-4.89-1.87-5.37v-.13h4.84v.13c-1.27.48-1.77 1-1.77 5.37V54h-1.53l-8.49-17.9v12.07c0 4.38.6 4.9 1.87 5.38v.13h-4.87v-.13c1.27-.48 1.8-1 1.8-5.38v-12.8c0-2.77-.6-3.29-1.87-3.77v-.13h4.28zm-43.05-16.55c1.3 0 2.38.42 3.25.83v4.3h-.23c-.8-2.38-1.81-4.08-3.75-4.08-1.61 0-2.58 1.17-2.58 2.9 0 5.28 7.3 5.13 7.3 12.46 0 3.95-2.11 6.32-5.3 6.32-1.2 0-3.2-.35-4.04-.82v-5.06h.23c.94 3.57 2.31 5 4.15 5 1.64 0 2.88-1.17 2.88-3.48 0-5.56-7.26-5.63-7.26-12.36 0-3.86 2.37-6 5.35-6m53.47-.01c3.56 0 6.56 2.22 6.56 11 0 8.38-2.67 11.73-6.96 11.73-3.89 0-6.62-2.66-6.62-11 0-8.63 2.93-11.73 7.02-11.73m-.2.7c-2.54 0-3.43 2.75-3.43 10.8 0 7.94.86 10.53 3.37 10.53 2.57 0 3.4-2.78 3.4-10.71 0-8.06-.87-10.62-3.34-10.62m-91.91-1.92c.39 0 .94-.01 1.37.1.6-.19 1-.04 1.11.22-2.18.59-1.7 3.2-1.33 3.67.17-4.1 3-4.1 3.56-2.93-.5-.26-1.52-.65-2.16.3-.24.38-.66 1.66-.15 2.53.39-1.12.73-1.6.96-1.8 1.31-1.19 2.47-.57 2.47-.25-1.24-.66-2.4.91-2.4 2.3.41-.69 1.49-1.5 2.06-1.5-.2.17-1.03.81-1.03 1.77.69-.5 1.25-1.04 2-1.25.04-.31-.2-.56-.4-.78q.67-.02 1.2.63c3.41-.2 3.72 2.53 3.26 3.72.66.37 1.77 1.3 2.08 2.1-.9-.8-3.25-2.48-5.58-2.2-.7.1-1.25.6-1.56 1.17-.84-.89-.33-2.44-2.12-2.77-1.23-.23-1.49.7-2.45.72-1.09.03-2.2-1.42-3.3.2.57.13.86.27 1.16.71-.52-.1-1.2-.19-1.69-.01-.37.13-.48.45-.58.78.6.14.9.02 1.38.03.35.02.72.06 1.04.22.75.37.82 1.36.67 2.07-.08.36-.28.67-.35 1.03.42.11.76.03 1.2 0a9 9 0 0 1 1.3.03c.18.02 1.21.15 1.25.34.1.58-.33.67-.76.92-.62.37-1.56.98-1.05 1.82.24.4.72.58 1.15.73.36.12 1.22.39 1.72-.18a2.6 2.6 0 0 0-1.4-1.03c.52-.27 1.44.07 1.85.4.38-.67-.56-1.24-1.03-1.27.33-.21 1.1-.19 1.47.14 2.92-.6 5.4 1.5 6.78 4.87-1.73-2.15-3.89-3.79-5.96-3.55 2.9 1.3 4.23 3.6 4.43 5.28-.55-.76-2.06-3.22-4.33-3.55a21 21 0 0 1 3.92 7.84h-.68c-1.43-4.98-3.84-6.57-4.66-6.99 1.4 1.84 2.3 3.2 2.67 7h-.36c-.7-1.73-1.53-3.7-3.06-5.4.39 1.11 1.11 3.13 1.37 5.4h-.86a20 20 0 0 0-1.55-3.03q-.05 1.34-.02 3.02h-1.25a69 69 0 0 0-.51-3.03 25 25 0 0 0-.7 3.03H63.7q.2-1.61.5-3.52-1.02 1.81-1.57 3.52H61.4q.3-1.29.66-2.58a10 10 0 0 0-1.44 2.58h-1.28a19 19 0 0 1 2.2-5.36 11.5 11.5 0 0 0-3.47 5.36h-1.3a17 17 0 0 1 2.28-5.35 8.2 8.2 0 0 0-3.56 5.35h-1.36c.67-2.8 2.23-5.76 4.27-8.05a8 8 0 0 0-4.77 8.05h-2.36c-.82-2.96-.83-6.15.19-9.45.8-2.61 2.1-4.83 3.71-7.05.13-.17.58-.67.7-.76-.43-.67-.4-1.4-.17-1.92.55-1.21 2.17-1.45 2.93-1.48a5 5 0 0 1 2.17-1.7 7 7 0 0 1 3.8-1.2m-7.16 14c-2.92.4-5.32 2.7-4.9 6.3 1.32-3.66 3.5-5.25 4.9-6.3m9.58 1.98c-.58-1.27-2.38-1.1-3.07-.05q.1.32.39.41c.2-.14.37-.37.68-.45v.67c.3.14.5-.02.67-.17l.37.27c.45-.12.87-.44.96-.68m-9.26-4.13c-1.7-.41-4.8.65-5 3.45 1.81-1.9 3.13-2.83 5-3.45m6.12.1c-.37-.07-1.75-.1-2.1.68.5-.15 1.44-.07 1.64.11-.35.06-1.73.28-1.7 1.1.53-.16 1.43-.42 1.78-.3a3 3 0 0 0-1.2.94c.38.27 2.12.37 2.6-.72.35-.78-.15-1.63-1.02-1.8m-6.12-2.12c-1.51-1.03-3.03.06-3.46 1.4a9 9 0 0 1 3.46-1.4M61 38.64c-.4.37-.5 1.1-.27 1.6.15.36.53.5.9.51.96.05 1.82-.74 1.4-1.69-.25-.32-1.05.5-2.03-.42m.95-.47c-.08.23.06.45.29.5.2.04.47-.08.52-.31q0-.08-.17-.1c-.14 0-.08.24-.31.2-.2-.07.01-.27-.33-.29m12.82-3.23c-.58-1.68-3.76-1.99-4.04.61 1.17-2.25 3.74-1.38 3.49.6-.04.29.13.26.46.4.3-.37.23-1.18.09-1.61m-1.05 1.16c.15-.67-.51-1.25-1.13-1.03.68.23.59.67.62.82 0 .04.44.18.51.21M60.4 34.73c-2.67-2.4-5.03.03-3.88 1.1a1.4 1.4 0 0 1 1.22-1.52c.82-.1 1.31.27 1.9.8.23-.16.35-.25.76-.38m-1.1.65c-.27-.43-1.56-.96-1.97-.2.88-.3 1.25.23 1.56.59q.25-.22.41-.4m1.45-3.33c-.93.73-.57 1.55.25 1.83-.38-.68-.4-1.2-.25-1.83m2.8-1.1c-1.14.55-1.6 2.17-.45 2.93-.16-1.53.22-2.35.45-2.92m-1.4.48c-.9.4-1.08 1.88-.21 2.4-.07-.63-.2-1.57.2-2.4m3.44-.91c-1.78.18-2.13 2.07-1.26 3.09.12-1.4.51-2.36 1.26-3.09m10.01 20.52a8 8 0 0 1 1.24 2.58h-.67q-.2-1.36-.57-2.58m1.76-1.9a13 13 0 0 1 1.88 4.48H78.2a26 26 0 0 0-.85-4.48m-.7-4.55a11.5 11.5 0 0 1 4.3 6.93c.11.79.02 1.5-.14 2.1h-.77c-.07-3.54-1.53-6.21-3.4-9.03m-41.77-8.75h-.14l-1.2-2.01c-.78-1.36-1.46-1.68-2.55-1.68h-2.21v9.54h2.35c1.23 0 1.63-.48 2.69-2.07h.14v4.98h-.14c-.95-1.58-1.46-2.04-2.7-2.04h-2.34v10.16h2.45c1.43 0 1.98-.23 2.86-1.65l1.6-2.55h.2l-.43 5.07H24v-.13c1.3-.48 1.67-1 1.67-3.78v-14.5c0-2.77-.38-3.3-1.67-3.78v-.13h10.87zM43 31.4c-1.26.49-1.62 1-1.62 3.79v17.53h1.85c1.4 0 1.93-.23 2.79-1.65l1.56-2.55h.2l-.44 5.07h-10.6v-.13c1.26-.48 1.62-1 1.62-3.78v-14.5c0-2.77-.36-3.3-1.62-3.78v-.13H43zm51.73 4.44h-.13l-1.2-2.01c-.78-1.36-1.46-1.68-2.55-1.68h-2.22v9.54H91c1.22 0 1.63-.48 2.69-2.07h.13v4.98h-.13c-.96-1.58-1.47-2.04-2.7-2.04h-2.35v10.16h2.46c1.43 0 1.97-.23 2.86-1.65l1.6-2.55h.2l-.44 5.07H83.87v-.13c1.29-.48 1.67-1 1.67-3.78v-14.5c0-2.77-.38-3.3-1.67-3.78v-.13h10.86zm19.65-4.57c4.53 0 6.43 1.46 6.43 5.8 0 5.14-2.77 6.46-6.67 6.46h-1.24v6.15c0 2.78.45 3.3 2.04 3.78v.13h-6.87v-.13c1.3-.48 1.69-1 1.69-3.78v-14.5c0-2.77-.38-3.3-1.7-3.78v-.13zM112.9 42.7h.9c2.93 0 3.83-2.03 3.83-5.5 0-3.3-.8-5.04-3.6-5.04h-1.13zm18.39 2.1c1.45 6.48 1.92 7.95 3.1 8.66v.13h-6.24v-.13c1.75-.49 1.48-2.18.23-7.98h-4.92c-1.32 5.83-1.59 7.33.37 7.98v.13h-4.72v-.13c1.08-.68 1.55-1.72 3.2-8.64l3.34-13.95h2.47zm-7.6-.34h4.46l-2.16-10.17zm47.54-13.06c-1.26.49-1.63 1-1.63 3.79v17.53h1.86c1.39 0 1.92-.23 2.78-1.65l1.56-2.55h.2l-.43 5.07h-10.6v-.13c1.25-.48 1.62-1 1.62-3.78v-14.5c0-2.77-.37-3.3-1.63-3.78v-.13h6.27z"/><path fill="#fff" d="M75.77 41.49c3.06.36 6.51 5.2 5.2 7.4-.65-2.62-2.56-6.12-5.2-7.4m-5.87-.47c1.95-.65 4.5 1.2 5.3 2.64-.86-.67-4.3-2.34-5.68-1.22a1.4 1.4 0 0 1-.12-.79.7.7 0 0 1 .5-.63m6.35-1.9c1.86.38 3.72 2 3.4 3.28a11 11 0 0 0-3.4-3.28m-6.15-1.01c1.22-.7 3.15-.49 4.04.31a4.5 4.5 0 0 0-2.72.25c-.28.16-.57.34-.67.66a4.7 4.7 0 0 1 4.02 1.55c-2.58-.88-4.11-.54-4.55-.45-.19-.1.1-.52.1-1.05 0-.8-.22-1.26-.23-1.27m-2.4-.14c.64-.22 1.08-.09 1.61.12.38.15.52.65.08.74l-.19.03c-.42.1-.55.61-1.52.38-.1.16-.09.63-.36.63-.22 0-.28-.17-.3-.33 0-1.12.36-1.45.68-1.57m.71.47c-.16.03-.04.23-.22.27-.22 0-.05-.27-.36-.15-.07.13.12.3.24.32.17.04.45-.06.5-.22.04-.1.09-.26-.16-.22m77.48-12.38c-.2.71-.87 2.84-2.7 2.84-1.4 0-2.48-1.23-3.51-1.23-.7 0-1.37.61-1.64 1.26l-.27-.07c.2-.7.87-2.83 2.7-2.83 1.34 0 2.45 1.13 3.55 1.13.7 0 1.33-.52 1.6-1.16z"/></svg>