<svg xmlns="http://www.w3.org/2000/svg" width="132" height="60" viewBox="0 0 132 60"><path fill="#fff" d="M100.1 36.37v-8.14c0-3.28-.44-3.67-1.38-4.03v-.1h3.57v.1c-.94.36-1.3.75-1.3 4.03V41h-1.14L93.6 27.58v9.05c0 3.28.45 3.67 1.38 4.03v.1h-3.6v-.1c.94-.36 1.34-.75 1.34-4.03v-9.6c0-2.08-.44-2.47-1.38-2.83v-.1h3.15zM68.38 23.96c.96 0 1.75.3 2.4.61v3.23h-.18c-.59-1.78-1.33-3.06-2.76-3.06-1.18 0-1.9.88-1.9 2.18 0 3.96 5.38 3.84 5.38 9.34 0 2.96-1.56 4.74-3.9 4.74a8 8 0 0 1-2.98-.62V36.6h.17c.69 2.68 1.7 3.75 3.06 3.75 1.2 0 2.12-.88 2.12-2.61 0-4.17-5.35-4.22-5.35-9.27 0-2.9 1.75-4.5 3.94-4.5m39.4-.01c2.62 0 4.83 1.66 4.83 8.25 0 6.28-1.96 8.79-5.12 8.79-2.87 0-4.89-2-4.89-8.25 0-6.47 2.17-8.8 5.18-8.8m-.15.52c-1.87 0-2.52 2.06-2.52 8.1 0 5.95.63 7.9 2.47 7.9 1.9 0 2.5-2.09 2.5-8.04 0-6.04-.62-7.96-2.45-7.96M39.9 23.04c.3 0 .7-.01 1.02.07.43-.14.74-.02.82.17-1.61.44-1.26 2.4-.99 2.75.13-3.07 2.21-3.08 2.63-2.2-.37-.19-1.12-.48-1.6.23-.17.28-.48 1.24-.1 1.9.28-.84.53-1.2.7-1.36.97-.89 1.82-.42 1.82-.18-.91-.5-1.77.68-1.77 1.73.3-.52 1.1-1.14 1.52-1.14-.14.13-.76.62-.75 1.34.5-.39.92-.78 1.47-.95.03-.23-.15-.41-.3-.58q.5 0 .9.48c2.5-.15 2.73 1.89 2.39 2.79.49.27 1.3.97 1.53 1.57-.67-.6-2.39-1.86-4.1-1.65-.53.07-.93.44-1.16.88-.62-.67-.24-1.83-1.56-2.08-.9-.17-1.1.52-1.8.54-.8.02-1.63-1.06-2.43.14.4.1.63.21.84.54a2.6 2.6 0 0 0-1.24 0c-.27.1-.35.33-.42.58.44.1.66.01 1 .03q.41-.01.78.16c.55.28.6 1.02.5 1.55-.07.27-.22.5-.27.78.31.08.57.01.88 0q.48-.03.97.02c.13.01.89.1.91.25.08.43-.23.5-.55.7-.46.27-1.15.73-.78 1.36.18.3.53.43.85.54.27.1.9.3 1.27-.14a2 2 0 0 0-1.03-.77c.38-.2 1.06.06 1.36.31.28-.5-.41-.93-.76-.96.24-.16.81-.14 1.08.1 2.16-.44 3.98 1.14 5 3.66-1.28-1.61-2.87-2.84-4.4-2.67 2.14.98 3.12 2.71 3.27 3.97-.4-.57-1.51-2.42-3.19-2.66 1.34 1.6 2.3 3.7 2.89 5.88h-.5c-1.06-3.74-2.83-4.93-3.44-5.25 1.03 1.38 1.7 2.4 1.97 5.25h-.26a13 13 0 0 0-2.25-4.05c.28.84.81 2.35 1 4.05H43c-.38-.9-.8-1.74-1.15-2.27q-.03 1-.01 2.27h-.92q-.17-1.2-.38-2.28-.34 1.18-.52 2.28h-.75q.15-1.22.37-2.64-.75 1.35-1.16 2.64h-.92q.22-.98.49-1.94-.65.83-1.06 1.94h-.95a14 14 0 0 1 1.63-4.02 8.6 8.6 0 0 0-2.57 4.02h-.96c.3-1.31.82-2.62 1.7-4.02-1.42.9-2.3 2.4-2.63 4.02H32.2c.5-2.1 1.65-4.32 3.15-6.04a6 6 0 0 0-3.51 6.04H30.1c-.61-2.22-.62-4.62.14-7.09.6-1.96 1.54-3.63 2.73-5.29.1-.13.43-.5.51-.57-.3-.5-.3-1.05-.12-1.44.4-.9 1.6-1.09 2.16-1.11a4 4 0 0 1 1.6-1.28c.78-.55 1.87-.9 2.8-.9m-5.27 10.5a4.1 4.1 0 0 0-3.6 4.72c.97-2.74 2.57-3.93 3.6-4.73m7.06 1.48c-.42-.95-1.76-.82-2.26-.04q.08.24.29.31c.14-.1.27-.28.5-.33v.5c.22.1.36-.01.5-.13l.26.2c.33-.09.65-.33.7-.5m-6.82-3.1c-1.26-.3-3.54.5-3.68 2.6 1.33-1.43 2.3-2.13 3.68-2.6m4.51.08c-.28-.05-1.29-.08-1.55.5.37-.1 1.06-.05 1.21.1-.26.04-1.27.2-1.26.82.4-.12 1.06-.32 1.32-.23q-.65.32-.89.7c.29.21 1.57.28 1.92-.53.25-.59-.11-1.23-.75-1.36m-4.5-1.59c-1.12-.77-2.24.05-2.56 1.05a7 7 0 0 1 2.55-1.05m2.38-.93c-.29.28-.36.82-.2 1.2.12.27.4.37.67.38.7.04 1.34-.55 1.03-1.26-.19-.24-.77.38-1.5-.32m.7-.35c-.06.17.05.34.21.37s.36-.06.39-.23q0-.05-.12-.08c-.1 0-.07.18-.24.16-.15-.05.01-.2-.24-.22m9.45-2.43c-.43-1.25-2.77-1.49-2.97.46.86-1.68 2.75-1.03 2.56.45-.02.22.1.2.35.3.21-.28.17-.88.06-1.2m-.77.88c.1-.51-.38-.94-.83-.78.5.18.42.5.45.62 0 .03.32.13.38.16m-9.82-1.04c-1.96-1.79-3.7.03-2.86.84-.07-.46.28-1.08.9-1.15.6-.07.97.2 1.4.6.17-.12.26-.18.56-.29m-.8.5c-.21-.33-1.16-.73-1.46-.16.64-.22.92.18 1.15.45l.3-.3m1.06-2.5c-.68.54-.42 1.16.18 1.37-.27-.51-.29-.9-.18-1.37m2.06-.82c-.84.4-1.17 1.62-.33 2.19-.11-1.15.16-1.76.33-2.2m-1.03.35c-.66.3-.8 1.41-.15 1.8-.06-.47-.16-1.17.15-1.8m2.53-.68c-1.3.14-1.56 1.55-.92 2.32.09-1.05.37-1.77.92-2.32m7.38 15.4q.63.87.92 1.94h-.5q-.14-1.02-.42-1.94m1.29-1.43a10 10 0 0 1 1.4 3.37h-.76q-.13-1.49-.63-3.37m-.51-3.41a8.7 8.7 0 0 1 3.17 5.2c.08.6.01 1.13-.1 1.58h-.58c-.05-2.66-1.12-4.67-2.5-6.78M18 27.38h-.1l-.87-1.5c-.58-1.03-1.08-1.27-1.88-1.27H13.5v7.16h1.74c.9 0 1.2-.37 1.98-1.55h.1v3.73h-.1c-.7-1.19-1.08-1.53-1.98-1.53H13.5v7.62h1.81c1.06 0 1.46-.17 2.11-1.24l1.18-1.91h.15l-.33 3.8H10v-.1c.95-.36 1.23-.74 1.23-2.83V26.89c0-2.09-.28-2.47-1.23-2.84v-.1h8zm6-3.33c-.93.37-1.2.76-1.2 2.84v13.15h1.37c1.03 0 1.42-.17 2.05-1.24l1.15-1.91h.15l-.32 3.8h-7.8v-.1c.92-.36 1.2-.74 1.2-2.83V26.89c0-2.08-.28-2.47-1.2-2.84v-.1H24zm38.12 3.33h-.1l-.88-1.5c-.58-1.03-1.08-1.27-1.88-1.27h-1.63v7.16h1.73c.9 0 1.2-.37 1.98-1.55h.1v3.73h-.1c-.7-1.19-1.08-1.53-1.98-1.53h-1.73v7.62h1.8c1.06 0 1.46-.17 2.11-1.24l1.18-1.91h.15l-.32 3.8H54.1v-.1c.96-.36 1.23-.74 1.23-2.83V26.89c0-2.08-.27-2.47-1.23-2.84v-.1h8zm14.48-3.42c3.33 0 4.73 1.09 4.73 4.34 0 3.86-2.03 4.85-4.9 4.85h-.93v4.61c0 2.09.34 2.47 1.5 2.84v.1h-5.06v-.1c.97-.37 1.25-.75 1.25-2.84V26.89c0-2.09-.28-2.47-1.25-2.84v-.1zm-1.1 8.56h.67c2.16 0 2.82-1.53 2.82-4.12 0-2.48-.59-3.79-2.65-3.79h-.84zm13.55 1.58c1.07 4.86 1.42 5.96 2.3 6.5v.1h-4.6v-.1c1.28-.37 1.08-1.64.17-6h-3.64c-.96 4.38-1.16 5.5.28 6v.1h-3.48v-.1c.8-.52 1.14-1.3 2.36-6.48l2.46-10.47h1.82zm-5.59-.25h3.28l-1.59-7.63zm35.02-9.8c-.93.37-1.2.75-1.2 2.84v13.15h1.37c1.03 0 1.42-.17 2.05-1.24l1.15-1.91h.15l-.32 3.8h-7.81v-.1c.92-.36 1.2-.74 1.2-2.83V26.89c0-2.08-.28-2.47-1.2-2.84v-.1h4.61z"/><path fill="#fff" d="M48.15 31.62c2.25.27 4.8 3.9 3.83 5.55-.48-1.97-1.9-4.6-3.83-5.55m-4.33-.36c1.44-.48 3.32.9 3.9 1.98-.63-.5-3.16-1.75-4.18-.91-.1-.17-.1-.4-.09-.6q.03-.33.37-.47m4.68-1.42c1.37.28 2.74 1.5 2.5 2.46a8.5 8.5 0 0 0-2.5-2.46m-4.54-.75c.9-.53 2.33-.37 2.99.22a3.3 3.3 0 0 0-2 .2c-.22.11-.43.25-.5.49a3.4 3.4 0 0 1 2.96 1.16c-1.9-.66-3.03-.4-3.36-.34-.13-.08.08-.39.08-.79 0-.6-.16-.94-.17-.95m-1.76-.1c.46-.17.79-.07 1.18.09.28.11.38.48.06.55l-.14.02c-.31.08-.4.47-1.12.3-.07.1-.07.47-.27.47-.16 0-.2-.13-.22-.26 0-.84.27-1.08.5-1.17m.52.35c-.12.02-.03.17-.17.2-.16 0-.03-.2-.26-.11-.05.1.09.22.17.24.13.03.33-.05.37-.16.03-.08.07-.2-.11-.17m57.09-9.28c-.14.53-.64 2.12-1.99 2.12-1.03 0-1.82-.91-2.58-.91-.52 0-1.01.45-1.2.94l-.2-.05c.14-.53.64-2.13 1.99-2.13.98 0 1.8.85 2.6.85.52 0 1-.39 1.19-.87z"/></svg>