<svg width="230" height="100" viewBox="0 0 230 100" xmlns="http://www.w3.org/2000/svg"><path d="M20 59.69v-1.6h2.3V41.47H20v-1.6h16.07v4.7h-1.64v-2.88h-7.52v6.36h4.69v-2.5h1.63v6.87H31.6V49.9h-4.7v8.03h7.75v-2.87h1.64v4.69H20v-.07Zm23.05-1.6h1.82v1.6H37v-1.6h1.82V40.6h-1.82V39h6.04v19.09Zm26.47-4.07c-.47 2.03-1.31 3.56-2.55 4.54a7.67 7.67 0 0 1-4.9 1.49c-3.02 0-5.42-.9-7.17-2.76-1.74-1.86-2.62-4.37-2.62-7.53s.88-5.67 2.62-7.52c1.75-1.86 4.15-2.77 7.16-2.77 1.06 0 2.15.15 3.31.44 1.17.29 2.37.73 3.64 1.27v4.87h-1.5c-.32-1.67-.86-2.9-1.7-3.74a4.33 4.33 0 0 0-3.24-1.24c-1.74 0-3.05.73-3.89 2.15-.83 1.42-1.27 3.6-1.27 6.54 0 2.95.44 5.13 1.27 6.55a4.2 4.2 0 0 0 3.9 2.1c1.2 0 2.17-.36 2.9-1.09a6.43 6.43 0 0 0 1.64-3.34h2.4v.04Zm8.07 6.07c-2.26 0-4-.66-5.27-2-1.28-1.31-1.9-3.17-1.9-5.46 0-2.32.62-4.14 1.9-5.45 1.27-1.3 3.01-1.96 5.27-1.96 2.25 0 4 .65 5.27 1.96 1.27 1.3 1.9 3.13 1.9 5.45 0 2.33-.66 4.15-1.94 5.46-1.27 1.34-3.01 2-5.23 2Zm0-1.5c.87 0 1.53-.43 1.89-1.27.36-.83.54-2.4.54-4.69 0-2.25-.18-3.81-.54-4.65-.36-.84-.98-1.27-1.9-1.27-.9 0-1.52.43-1.88 1.27-.37.84-.55 2.4-.55 4.65 0 2.26.18 3.82.55 4.66.33.87.98 1.3 1.89 1.3Zm6.98 1.06V58.1h1.82V47.18h-1.82v-1.6h6.03v2c.51-.84 1.1-1.45 1.75-1.82.65-.36 1.49-.54 2.47-.54 1.42 0 2.51.47 3.24 1.41.72.95 1.09 2.33 1.09 4.15v7.38h1.82v1.6h-7.6v-1.6h1.52v-7.6c0-1.2-.14-2.03-.4-2.5-.29-.48-.76-.7-1.41-.7-.84 0-1.5.37-1.9 1.06-.4.69-.58 1.81-.58 3.3v6.33h1.53v1.6h-7.56Zm28.07-17.09h-1.31a2.7 2.7 0 0 0-.55-1.52c-.29-.33-.72-.51-1.27-.51-.66 0-1.1.25-1.38.76-.3.51-.44 1.35-.44 2.47v1.82h3.2v1.6h-3.2v10.9h2.44v1.6h-8.5v-1.6h1.8v-10.9h-1.88v-1.6h1.89V43.8c0-1.56.44-2.76 1.34-3.56.91-.8 2.22-1.2 3.97-1.2.69 0 1.34.03 2 .1.65.08 1.27.22 1.89.37v3.05Zm7.01 15.53h-1.81V45.58h-6.04v1.6h1.82v10.9h-1.82v1.6h7.85v-1.6Zm-5.81-18.33c-.44.51-.66 1.1-.66 1.82 0 .7.22 1.31.66 1.78a2.15 2.15 0 0 0 3.23 0c.44-.47.66-1.09.66-1.78a2.6 2.6 0 0 0-.66-1.82 2.13 2.13 0 0 0-1.6-.72c-.65 0-1.2.21-1.63.72Zm21.63 18.33h-1.78V39h-6.07v1.6h1.81v6.8a3.77 3.77 0 0 0-1.45-1.64 4.31 4.31 0 0 0-2.25-.54c-1.82 0-3.24.65-4.26 1.96-1.05 1.3-1.56 3.13-1.56 5.45 0 2.3.54 4.11 1.56 5.46a5.11 5.11 0 0 0 4.26 2 4.4 4.4 0 0 0 2.25-.55c.62-.36 1.1-.9 1.45-1.63v1.78h6.04v-1.6Zm-6.07-6.15v1.38c0 1.64-.18 2.84-.58 3.64-.37.73-.98 1.1-1.82 1.1-.87 0-1.5-.4-1.86-1.17-.36-.8-.54-2.18-.54-4.22 0-2.04.18-3.45.54-4.22.37-.76.99-1.16 1.86-1.16.83 0 1.45.36 1.82 1.09.4.73.58 1.93.58 3.56Zm10.98 1.35h8.72c-.07-2.66-.65-4.66-1.7-6.07-1.13-1.38-2.73-2.08-4.84-2.08-2.15 0-3.82.66-5.02 1.97-1.23 1.3-1.82 3.16-1.82 5.49 0 2.4.59 4.25 1.75 5.52 1.16 1.28 2.84 1.93 5.05 1.93 1.82 0 3.24-.36 4.26-1.13 1.01-.72 1.67-1.92 2.03-3.52h-2a3.8 3.8 0 0 1-1.09 2.36c-.58.55-1.3.8-2.22.8-1.09 0-1.89-.4-2.4-1.2-.47-.84-.72-2.14-.72-3.96v-.11Zm3.6-5.5c.32.77.47 2.08.47 3.93h-4.1v-.25c0-1.74.14-2.98.46-3.7.33-.74.84-1.1 1.57-1.1.76 0 1.27.36 1.6 1.13Zm5.27 10.3v1.56h7.56v-1.6h-1.53v-6.33c0-1.49.19-2.61.59-3.3.4-.7 1.05-1.06 1.89-1.06.65 0 1.12.22 1.41.7.26.47.4 1.3.4 2.5v7.6h-1.52v1.6h7.6v-1.6h-1.82v-7.38c0-1.82-.37-3.2-1.1-4.15-.72-.94-1.81-1.41-3.23-1.41-.98 0-1.82.18-2.47.54-.66.37-1.24.98-1.75 1.82v-2h-6.03v1.6h1.82v10.9h-1.82Zm29.4-2.73.01-.07v.07h-.01Zm-1.84 3.53c.9-.8 1.5-1.97 1.84-3.53h-1.99a4.26 4.26 0 0 1-.94 2.44c-.51.54-1.2.83-2.04.83a2.48 2.48 0 0 1-2.36-1.38c-.48-.9-.73-2.43-.73-4.58 0-2.18.25-3.74.76-4.62.48-.9 1.35-1.34 2.51-1.34.91 0 1.6.29 2.11.87.51.58.84 1.45.95 2.65h1.34v-3.92a17 17 0 0 0-2.76-.84c-.91-.18-1.82-.29-2.7-.29-2.14 0-3.85.66-5.08 1.96-1.24 1.31-1.86 3.17-1.86 5.5 0 2.36.62 4.17 1.86 5.48 1.23 1.31 3.02 1.97 5.27 1.97 1.6 0 2.87-.4 3.82-1.2Zm10.29-.8h-1.82V45.58h-6.04v1.6h1.82v10.9h-1.82v1.6h7.86v-1.6Zm-5.82-18.33c-.44.51-.66 1.1-.66 1.82 0 .7.26 1.31.66 1.78a2.15 2.15 0 0 0 3.23 0c.44-.47.66-1.09.66-1.78a2.6 2.6 0 0 0-.66-1.82 2.13 2.13 0 0 0-1.6-.72c-.65 0-1.2.21-1.63.72Zm18.54 18.33v-7.06c0-2.03-.5-3.49-1.56-4.47-1.06-.94-2.7-1.42-4.98-1.42-.91 0-1.78.08-2.59.22-.8.15-1.6.4-2.36.7v3.05h1.35c.22-.88.5-1.5.98-1.9.47-.4 1.13-.58 1.96-.58 1.02 0 1.78.26 2.26.8.47.55.72 1.42.72 2.55v.84h-2.21c-2 0-3.53.4-4.51 1.2-.98.8-1.5 1.96-1.5 3.56 0 1.45.37 2.58 1.06 3.34a3.8 3.8 0 0 0 2.98 1.17 4.89 4.89 0 0 0 4.18-2.18v1.78h6.04v-1.6h-1.82Zm-4.22-5.67v2.83c0 .8-.22 1.42-.61 1.9-.37.46-.91.72-1.57.72-.65 0-1.09-.22-1.42-.66-.32-.43-.47-1.09-.47-2 0-.9.22-1.6.66-2.07a2.33 2.33 0 0 1 1.81-.72h1.6Zm14.4 5.67h-1.82V39h-6.03v1.6h1.81v17.49h-1.81v1.6H210v-1.6Z" fill="#fff"/></svg>