<svg width="200" height="80" viewBox="0 0 200 80" xmlns="http://www.w3.org/2000/svg"><g mask="url(#azgfle2dh)"><path d="M6 57.67v-.16c1.6-.63 2.07-1.3 2.07-4.92V33.74c0-3.62-.46-4.29-2.07-4.92v-.17h13.5v5.93h-.16l-1.48-2.6c-.98-1.77-1.82-2.2-3.18-2.2h-2.75V42.2h2.92c1.52 0 2.03-.63 3.34-2.7h.17v6.48h-.17c-1.18-2.06-1.82-2.65-3.34-2.65h-2.92v13.2h3.05c1.77 0 2.45-.29 3.55-2.14l2-3.32h.25l-.55 6.6H6ZM21.83 57.67v-.16c1.57-.63 2.02-1.3 2.02-4.92V33.74c0-3.62-.45-4.29-2.02-4.92v-.17h7.79v.17c-1.57.63-2.02 1.3-2.02 4.92v22.8h2.3c1.74 0 2.4-.3 3.47-2.15l1.94-3.32h.24l-.53 6.6H21.83Z" fill="#fff"/><mask id="bzgfle2dh" maskUnits="userSpaceOnUse" x="39" y="27" width="39" height="31"><path d="M39.14 27.07h38.03v30.8H39.14v-30.8Z" fill="#fff"/></mask><g mask="url(#bzgfle2dh)" fill="#fff"><path d="M63.24 37.21c-1.05-1.15-.41-3.17-2.64-3.6-1.53-.3-1.84.9-3.05.93-1.35.04-2.73-1.85-4.09.25.7.17 1.07.36 1.43.93a4.24 4.24 0 0 0-2.1-.02c-.46.18-.59.6-.71 1.02.75.19 1.12.03 1.7.05.45.01.9.07 1.3.28.94.48 1.03 1.77.84 2.7-.1.46-.36.86-.44 1.33.52.15.95.03 1.48 0 .55-.02 1.1-.02 1.64.04.2.03 1.5.19 1.54.44.12.75-.4.87-.94 1.2-.77.48-1.94 1.27-1.3 2.37.3.51.89.75 1.42.94.45.16 1.52.5 2.14-.24a3.25 3.25 0 0 0-1.74-1.33c.65-.35 1.8.09 2.3.53.47-.88-.7-1.62-1.28-1.66.41-.28 1.37-.24 1.83.17 3.63-.77 6.7 1.97 8.43 6.35-2.16-2.8-4.84-4.93-7.42-4.63 3.6 1.7 5.26 4.7 5.51 6.87-.67-.99-2.55-4.18-5.38-4.61 4.56 5.62 6.5 14.78 6.03 21.35-.1 1.28-1.42 2.78-2.59 3.22 2.4-3.6 1.3-11.3 1.07-12.38-1.66-8.07-5.16-10.49-6.28-11.09 1.9 2.6 3.05 4.47 3.44 10.5-1.02-2.5-2.04-5.72-4.36-8.42.65 1.97 2.08 6.1 1.76 10.25a32.22 32.22 0 0 0-3.06-7.17c-.14 4.54.12 11.92.86 17.62.23 1.8.58 4.04.34 4.37-.32.42-.71.88-1.25 1.15a31.52 31.52 0 0 1-12.12-6.85c-6.84-6.43-10.22-15.2-7.43-24.64 1-3.4 2.6-6.3 4.61-9.17.17-.23.72-.88.86-1a2.76 2.76 0 0 1-.2-2.49c.68-1.57 2.7-1.89 3.64-1.93.4-.77 1.7-1.8 2.7-2.21a8.58 8.58 0 0 1 4.72-1.56c.49 0 1.17-.02 1.7.11.74-.23 1.25-.03 1.39.3-2.71.77-2.13 4.17-1.66 4.78.21-5.33 3.72-5.35 4.43-3.82-.63-.33-1.9-.84-2.69.4-.3.48-.81 2.14-.2 3.29.5-1.46.92-2.08 1.2-2.35 1.64-1.55 3.08-.74 3.08-.32-1.54-.87-3 1.18-3 3 .53-.91 1.87-1.97 2.58-1.97-.25.22-1.29 1.06-1.28 2.31.85-.67 1.55-1.35 2.5-1.64.03-.4-.27-.72-.52-1 .57-.03 1.06.27 1.5.82 4.24-.26 4.62 3.28 4.04 4.84.83.47 2.2 1.7 2.59 2.73-1.12-1.04-4.03-3.24-6.93-2.86-.9.12-1.57.77-1.95 1.54l.01-.02Zm-5.73 16.56c-2.58 9-.67 15.8 1.29 21.04.75-5.05-.03-14.23-1.3-21.04Zm-1.52-.63c-5.21 9.63-2.64 17.82.46 21.07-1.96-8.52-1.72-12.8-.46-21.07Zm-7.02 14.95c-.17-4.36.23-11.47 3.68-17.34-5.37 4.9-5.98 12.5-3.68 17.34Zm4.2 4.26c-2.5-6.68-1.4-12.28.12-17.99-3.35 4.44-4.26 13.21-.11 18Zm-3.61-21.6c-4.53 2.96-5.85 9.7-3.6 14.51.11-5.05.51-9.45 3.6-14.5Zm-6.45 8.73c.54-4.13 2.68-8.76 5.64-12.24-4.36 1.9-6.9 7.14-5.64 12.24Zm11.88-15.85c-.44.08-2.15.36-2.12 1.44.66-.22 1.77-.56 2.21-.4-.72.36-1.22.8-1.5 1.21.49.36 2.65.5 3.25-.93a1.71 1.71 0 0 0-1.27-2.34c-.47-.1-2.18-.14-2.6.87.61-.2 1.77-.1 2.03.15Zm-13.52 9.82c1.64-4.76 4.34-6.82 6.08-8.19-3.62.53-6.6 3.52-6.08 8.19Zm6.49-10.98c-2.13-.54-5.98.85-6.22 4.49 2.25-2.47 3.9-3.68 6.22-4.49Zm4.03-4.24c-.49.49-.61 1.43-.34 2.1.2.45.66.62 1.12.64 1.2.07 2.26-.96 1.74-2.19-.3-.42-1.3.66-2.52-.55Zm12.1-4.01c1.45-2.93 4.64-1.8 4.33.77-.04.38.16.34.58.52.37-.48.29-1.53.1-2.1-.71-2.17-4.67-2.58-5.01.8Zm-4.63 13.62c-.72-1.65-2.96-1.42-3.82-.07.07.3.27.45.49.54.24-.19.45-.49.84-.58v.87c.38.18.62-.03.84-.23l.46.35c.55-.15 1.08-.56 1.19-.88Zm-8.21-14.7c-3.32-3.1-6.26.04-4.83 1.45-.13-.8.47-1.87 1.51-2 1.03-.11 1.64.36 2.36 1.04.3-.2.45-.31.96-.49Zm6.44-5.47c-2.21.24-2.64 2.7-1.56 4.02.15-1.81.64-3.07 1.56-4.02Zm-14.05 14c.79-.62 2.43-1.42 4.32-1.83-1.89-1.33-3.77.09-4.32 1.83Zm11.52-13.43c-1.42.71-1.98 2.81-.56 3.8-.2-1.99.27-3.06.56-3.8Zm-1.75.61c-1.1.53-1.33 2.45-.25 3.13-.1-.82-.26-2.04.25-3.13Zm-1.73.81c-1.15.95-.71 2.01.3 2.38a3.16 3.16 0 0 1-.3-2.38ZM49.88 34c-.34-.56-1.94-1.25-2.46-.26 1.1-.4 1.56.3 1.95.76l.51-.5Zm16.52-.4c.84.3.72.87.76 1.07.01.05.55.23.65.27.18-.88-.65-1.63-1.4-1.34Zm-13.23 4.03c-.1.3.07.6.36.65.26.05.6-.11.64-.4.02-.06-.09-.12-.2-.14-.18 0-.1.31-.4.27-.25-.09.02-.35-.4-.38Z"/><path d="M76.8 54.98c.34 2.65-.93 4.63-1.25 5.14.62-5.85-1.4-9.88-4.1-14.15a15.12 15.12 0 0 1 5.34 9ZM70.12 54.36c2.9 4 2.24 11.07 2.16 11.67a4.15 4.15 0 0 1-1.68 2.44c.69-2.76.98-9.3-.48-14.11ZM63.29 37.54c1.52-.9 3.93-.64 5.03.4-.9-.29-2.63-.1-3.38.33-.35.2-.7.45-.83.86 1.96-.26 4.13.78 5 2.01-3.22-1.15-5.12-.7-5.66-.59-.23-.13.13-.67.13-1.36-.01-1.05-.3-1.65-.3-1.65Z"/><path d="M72.3 51.88c2.89 4.47 2.8 9.06 2.49 10.14a7.53 7.53 0 0 1-1.8 3.24c.04-.12 1.5-5.27-.68-13.38ZM70.35 41.93c3.8.47 8.1 6.76 6.47 9.64-.82-3.41-3.2-7.97-6.47-9.64Z"/></g><path d="M62.58 43.17c-.15-.3-.18-.7-.15-1.03.04-.4.23-.68.62-.82 2.42-.84 5.6 1.56 6.58 3.43-1.06-.87-5.34-3.04-7.05-1.58ZM59.83 39.84c-.28 0-.35-.23-.36-.44-.02-1.46.44-1.88.84-2.04.79-.28 1.34-.12 2 .15.5.21.66.93-.02.99-.62.05-.72.84-2 .51-.13.2-.12.83-.46.83Zm.63-1.72c-.08.18.16.4.3.42.22.05.56-.08.63-.28.04-.14.1-.34-.2-.29-.2.04-.05.3-.28.35-.27 0-.06-.34-.45-.2ZM70.95 38.85c2.3.5 4.62 2.61 4.21 4.27a14.48 14.48 0 0 0-4.21-4.27ZM80.41 57.67v-.16c1.61-.63 2.08-1.3 2.08-4.92V33.74c0-3.62-.47-4.29-2.08-4.92v-.17h13.51v5.93h-.17l-1.48-2.6c-.97-1.77-1.82-2.2-3.18-2.2h-2.75V42.2h2.92c1.53 0 2.04-.63 3.35-2.7h.17v6.48h-.17c-1.19-2.06-1.82-2.65-3.35-2.65h-2.92v13.2h3.05c1.78 0 2.46-.29 3.56-2.14l1.99-3.32h.25l-.55 6.6H80.41ZM97.83 50.56h.29c1.16 4.64 2.87 6.5 5.16 6.5 2.04 0 3.58-1.53 3.58-4.53 0-7.23-9.03-7.31-9.03-16.07 0-5.01 2.95-7.8 6.66-7.8 1.62 0 2.95.53 4.03 1.06v5.59h-.29c-1-3.08-2.25-5.3-4.66-5.3-2 0-3.2 1.52-3.2 3.78 0 6.86 9.07 6.66 9.07 16.2 0 5.13-2.62 8.21-6.58 8.21-1.5 0-4-.45-5.03-1.07v-6.57ZM117.62 43.5c3.64 0 4.76-2.65 4.76-7.15 0-4.3-.98-6.56-4.46-6.56h-1.42V43.5h1.12Zm-7.12 14.17v-.16c1.63-.63 2.1-1.3 2.1-4.92V33.74c0-3.62-.47-4.29-2.1-4.92v-.17h7.85c5.62 0 7.98 1.9 7.98 7.53 0 6.69-3.43 8.41-8.28 8.41h-1.55v8c0 3.61.56 4.29 2.53 4.92v.16h-8.53ZM132.78 32.58l-2.86 13.22h5.54l-2.69-13.22Zm2.68 25.1v-.17c2.18-.64 1.84-2.84.3-10.4h-6.13c-1.64 7.6-1.97 9.55.46 10.4v.17h-5.87v-.17c1.34-.9 1.93-2.25 3.98-11.24l4.16-18.15h3.06l3.94 18.1c1.8 8.45 2.39 10.35 3.86 11.29v.17h-7.76ZM157.5 21.88c-.25.92-1.08 3.68-3.36 3.68-1.75 0-3.08-1.6-4.36-1.6-.88 0-1.7.8-2.04 1.64l-.33-.08c.25-.92 1.08-3.69 3.36-3.69 1.66 0 3.03 1.47 4.4 1.47.88 0 1.66-.67 2-1.5l.33.08Zm.08 36.32-10.54-23.27v15.7c0 5.69.75 6.36 2.32 6.99v.16h-6.06v-.16c1.58-.63 2.24-1.3 2.24-7V33.98c0-3.6-.74-4.27-2.32-4.9v-.16h5.31L158 50.17v-14.1c0-5.7-.75-6.37-2.33-7v-.16h6.02v.16c-1.58.63-2.2 1.3-2.2 7V58.2h-1.9ZM174.84 43.37c0-10.48-1.06-13.81-4.14-13.81-3.16 0-4.26 3.57-4.26 14.05 0 10.32 1.06 13.69 4.18 13.69 3.2 0 4.22-3.62 4.22-13.93Zm-12.63.53c0-11.22 3.65-15.25 8.74-15.25 4.42 0 8.15 2.88 8.15 14.3 0 10.9-3.32 15.25-8.65 15.25-4.83 0-8.23-3.45-8.23-14.3ZM181.22 57.67v-.16c1.56-.63 2.01-1.3 2.01-4.92V33.74c0-3.62-.45-4.29-2.01-4.92v-.17H189v.17c-1.56.63-2.02 1.3-2.02 4.92v22.8h2.31c1.73 0 2.4-.3 3.46-2.15l1.94-3.32h.25l-.54 6.6h-13.19Z" fill="#fff"/></g></svg>