<svg width="728" height="404" viewBox="0 0 728 404" fill="none" xmlns="http://www.w3.org/2000/svg"><g clip-path="url(#arz3smgpc)"><g opacity=".6" filter="url(#brz3smgpc)"><ellipse cx="380.41" cy="199.89" rx="380.41" ry="199.89" transform="scale(1 -1) rotate(-63.69 -182.95 692.91)" fill="url(#crz3smgpc)" fill-opacity=".3"/></g><g opacity=".6" filter="url(#drz3smgpc)"><ellipse cx="380.41" cy="199.89" rx="380.41" ry="199.89" transform="scale(1 -1) rotate(-41.03 -682.4 999.01)" fill="url(#erz3smgpc)" fill-opacity=".3"/></g><g opacity=".6" filter="url(#frz3smgpc)"><ellipse cx="380.41" cy="199.89" rx="380.41" ry="199.89" transform="scale(1 -1) rotate(-41.03 -717.73 1231.8)" fill="url(#grz3smgpc)" fill-opacity=".3"/></g><g opacity=".6" filter="url(#hrz3smgpc)"><ellipse cx="380.41" cy="199.89" rx="380.41" ry="199.89" transform="scale(-1 1) rotate(35.73 -529.1 -1649.99)" fill="url(#irz3smgpc)" fill-opacity=".2"/></g><g opacity=".6" filter="url(#jrz3smgpc)"><ellipse cx="380.41" cy="199.89" rx="380.41" ry="199.89" transform="scale(1 -1) rotate(-63.69 92.6 -91.96)" fill="url(#krz3smgpc)" fill-opacity=".2"/></g><g opacity=".6" filter="url(#lrz3smgpc)"><ellipse cx="380.41" cy="199.89" rx="380.41" ry="199.89" transform="scale(1 -1) rotate(-63.69 -43.28 391.73)" fill="url(#mrz3smgpc)" fill-opacity=".3"/></g><circle cx="364.5" cy="202.5" r="156.5" stroke="url(#nrz3smgpc)" stroke-opacity=".5" stroke-width=".51"/><ellipse cx="364" cy="202.5" rx="219" ry="218.5" stroke="url(#orz3smgpc)" stroke-opacity=".5" stroke-width=".51"/><ellipse opacity=".7" cx="364" cy="202.5" rx="280" ry="279.5" stroke="url(#prz3smgpc)" stroke-opacity=".5" stroke-width=".51"/><ellipse opacity=".6" cx="364" cy="202.5" rx="342" ry="341.5" stroke="url(#qrz3smgpc)" stroke-opacity=".5" stroke-width=".51"/><circle opacity=".5" cx="364" cy="202" r="408" stroke="url(#rrz3smgpc)" stroke-opacity=".5" stroke-width=".51"/><circle opacity=".4" cx="364" cy="202" r="480" stroke="url(#srz3smgpc)" stroke-opacity=".5" stroke-width=".51"/><circle opacity=".3" cx="364" cy="202" r="550" stroke="url(#trz3smgpc)" stroke-opacity=".5" stroke-width=".51"/><circle opacity=".3" cx="364" cy="202" r="610" stroke="url(#urz3smgpc)" stroke-opacity=".5" stroke-width=".51"/><g opacity=".6" filter="url(#vrz3smgpc)"><ellipse cx="380.41" cy="199.89" rx="380.41" ry="199.89" transform="scale(1 -1) rotate(-63.69 -164.97 565.19)" fill="url(#wrz3smgpc)"/></g><path transform="rotate(90 962 -52)" fill="url(#xrz3smgpc)" d="M962-52h177v1196H962z"/><path transform="matrix(0 -1 -1 0 962 443)" fill="url(#yrz3smgpc)" d="M0 0h164v1196H0z"/><g filter="url(#zrz3smgpc)"><g clip-path="url(#aarz3smgpc)"><rect x="289" y="127" width="150" height="150" rx="28.13" fill="#000"/><path d="M342.24 198.48h19.98a3.4 3.4 0 1 1 0 6.78h-19.98m45.1-.32a3.7 3.7 0 0 0-5.25-.05 3.7 3.7 0 0 0 .05 5.25l8.75 8.74a3.7 3.7 0 0 0 5.25.05 3.7 3.7 0 0 0-.06-5.24l-8.74-8.75Zm-24.65 8.7a3.7 3.7 0 0 0-.05 5.24 3.7 3.7 0 0 0 5.25-.05l8.8-8.7a3.7 3.7 0 0 0 .05-5.24 3.7 3.7 0 0 0-5.25.05l-8.8 8.7Zm33.4-23.33a3.7 3.7 0 0 0 .05-5.24 3.7 3.7 0 0 0-5.25.05l-8.75 8.75a3.7 3.7 0 0 0-.05 5.24 3.7 3.7 0 0 0 5.25-.05l8.74-8.75Zm-24.65 8.75a3.7 3.7 0 0 0 5.25.05 3.7 3.7 0 0 0-.06-5.25l-8.74-8.74a3.7 3.7 0 0 0-5.25-.05 3.7 3.7 0 0 0 .05 5.24l8.75 8.75Zm-32.97-7.95h15.96a3.4 3.4 0 1 0 0-6.78h-19.5a3.87 3.87 0 0 0-3.93 3.86v27.62a3.87 3.87 0 0 0 3.92 3.87h19.72a3.4 3.4 0 1 0 0-6.78h-16.22v-21.8h.05Z" fill="#00CE7D"/><g opacity=".3" filter="url(#abrz3smgpc)"><ellipse cx="28.93" cy="65.07" rx="28.93" ry="65.07" transform="scale(-1 1) rotate(52.68 -274.43 -363.1)" fill="#01CB7D" fill-opacity=".4"/></g></g><rect x="290.88" y="128.88" width="146.25" height="146.25" rx="26.25" stroke="url(#acrz3smgpc)" stroke-width="3.75"/></g><g filter="url(#adrz3smgpc)"><g clip-path="url(#aerz3smgpc)"><rect x="145" y="298" width="72" height="72" rx="36" fill="#16131D"/><g clip-path="url(#afrz3smgpc)"><path fill-rule="evenodd" clip-rule="evenodd" d="M194 338.99a16.23 16.23 0 0 1-2.2 4.3 14.75 14.75 0 0 1-2.14 2.5 4.2 4.2 0 0 1-2.75 1.18c-.7 0-1.55-.2-2.54-.6-.99-.38-1.9-.58-2.73-.58-.87 0-1.8.2-2.8.59-1.01.4-1.82.6-2.44.62-.94.04-1.87-.36-2.8-1.2-.6-.51-1.35-1.38-2.24-2.6a17.8 17.8 0 0 1-2.37-4.57c-.66-1.88-.99-3.69-.99-5.44 0-2.01.45-3.75 1.34-5.2a7.77 7.77 0 0 1 6.61-3.8c.75 0 1.73.22 2.94.66 1.22.44 2 .66 2.34.66.25 0 1.12-.26 2.58-.78a8.77 8.77 0 0 1 3.52-.6c2.6.2 4.54 1.19 5.84 2.98-2.32 1.37-3.47 3.29-3.45 5.74.02 1.92.74 3.51 2.14 4.78a7.1 7.1 0 0 0 2.14 1.36ZM187.47 317l.03.6c0 1.5-.56 2.9-1.69 4.2-1.35 1.54-3 2.43-4.78 2.29a4.49 4.49 0 0 1-.03-.57 6.89 6.89 0 0 1 3.97-5.83 6.65 6.65 0 0 1 2.5-.69Z" fill="#D1D4DC"/></g></g></g><g filter="url(#agrz3smgpc)"><g clip-path="url(#ahrz3smgpc)"><rect x="51" y="161" width="72" height="72" rx="36" fill="#16131D"/><g clip-path="url(#airz3smgpc)"><g clip-path="url(#ajrz3smgpc)"><path fill-rule="evenodd" clip-rule="evenodd" d="M77.75 181.72a2.14 2.14 0 0 0-3.75 1.32c-.03.57.17 1.13.55 1.56l11.13 12.53-11.12 12.25a2.17 2.17 0 0 0 1.68 3.62 2.15 2.15 0 0 0 1.49-.7l12.42-13.7 1.31-1.43-1.29-1.46-12.42-13.99Zm21.63 3.06a2.17 2.17 0 0 0-.7-3.52 2.13 2.13 0 0 0-2.35.48l-6.47 6.55-1.52 1.53 3.04 3.05 1.52-1.53 6.48-6.56Zm-6.54 18.07-1.56-1.47-2.94 3.15 1.57 1.48 6.48 6.1c.86.82 2.22.77 3.03-.1a2.17 2.17 0 0 0-.1-3.05l-6.48-6.1Z" fill="#D1D4DC"/></g></g></g></g><g filter="url(#akrz3smgpc)"><g clip-path="url(#alrz3smgpc)"><rect x="502" y="33" width="72" height="72" rx="36" fill="#11191C"/><g clip-path="url(#amrz3smgpc)"><g clip-path="url(#anrz3smgpc)"><path fill-rule="evenodd" clip-rule="evenodd" d="M519 82V60h43l-20.5 22H519Zm24.83-11.47h.94c1.24 0 2.23-.43 2.23-1.79 0-1.32-1-1.74-2.24-1.74h-.93v3.53Zm-10.45 2.27a3.82 3.82 0 0 0 2.69.01l-1.32-4.39h-.03l-1.34 4.38ZM540 64h4.52c4.05 0 5.95 1.63 5.95 4.88 0 2.92-1.96 4.66-5.27 4.66H544V78h-6.44l-.62-2.27a6.87 6.87 0 0 1-4.46-.02L531.7 78h-3.84l.55-1.43-.15.14A5.7 5.7 0 0 1 524.6 78h-.22c-1.7 0-3.38-.51-4.79-1.34l1.3-2.69a5.71 5.71 0 0 0 3.51 1.03c.63-.01 1.08-.13 1.37-.44.18-.19.27-.43.28-.68 0-.7-.95-1.03-2.13-1.4a9.85 9.85 0 0 1-2.88-1.37 3.47 3.47 0 0 1-1.45-3.05c0-.95.37-1.86 1.01-2.55.94-1 2.44-1.51 4.24-1.51 1.55 0 3.44.36 4.8 1.08l-1.47 2.65a6.7 6.7 0 0 0-3.1-.86c-1.26-.07-1.9.4-1.91.9-.01.61 1.2 1.17 2.34 1.55 1.72.57 3.92 1.33 4.25 3.52l3.16-8.84h3.67L540 74.55V64Z" fill="#D1D4DC"/></g></g></g></g><g filter="url(#aorz3smgpc)"><g clip-path="url(#aprz3smgpc)"><rect x="605" y="147" width="72" height="72" rx="36" fill="#11191C"/><g clip-path="url(#aqrz3smgpc)"><g clip-path="url(#arrz3smgpc)"><path d="M648 180a8.68 8.68 0 0 0-.94-3.59l-4.96-9.17a8.13 8.13 0 0 1-.8-2.24l-.23.39a7.67 7.67 0 0 0 0 7.32l4.02 7.33a7.67 7.67 0 0 1 0 7.32l-.22.39a8.16 8.16 0 0 0-.8-2.24l-3.66-6.7-2.33-4.33a8.13 8.13 0 0 1-.8-2.23l-.23.38a7.67 7.67 0 0 0 0 7.33l4.02 7.32a7.67 7.67 0 0 1 0 7.33l-.22.38a8.13 8.13 0 0 0-.8-2.23l-5.04-9.18c-.66-1.23-1.01-2.2-1.01-3.58-5.33 1.47-9 4.2-9 7.82 0 5.1 7.16 9.18 16 9.18s16-4.09 16-9.18c.07-3.47-3.6-6.35-9-7.82Z" fill="#D1D4DC"/></g></g></g></g><g filter="url(#asrz3smgpc)"><g clip-path="url(#atrz3smgpc)"><rect x="160" y="23" width="72" height="72" rx="36" fill="#16131D"/><g clip-path="url(#aurz3smgpc)"><path d="M206.89 62.11c0 6.85-4.9 12.45-10.89 12.45s-10.89-5.6-10.89-12.45c0-6.84 10.89-21.78 10.89-21.78s10.89 14.94 10.89 21.78Z" fill="#D1D4DC"/></g></g></g><g filter="url(#avrz3smgpc)"><g clip-path="url(#awrz3smgpc)"><rect x="502" y="295" width="72" height="72" rx="36" fill="#11191C"/><g clip-path="url(#axrz3smgpc)"><g clip-path="url(#ayrz3smgpc)" fill="#D1D4DC"><path d="M549 320h-22v22h22v-22Zm5-5v32h-32v-32h32Z"/><path d="M541 323h6l-12 16h-6l12-16Z"/></g></g></g></g></g><defs><linearGradient id="crz3smgpc" x1="191.92" y1="235.29" x2="567.63" y2="270.32" gradientUnits="userSpaceOnUse"><stop offset=".36"/></linearGradient><linearGradient id="erz3smgpc" x1="191.92" y1="235.29" x2="567.63" y2="270.32" gradientUnits="userSpaceOnUse"><stop offset=".36"/></linearGradient><linearGradient id="grz3smgpc" x1="191.92" y1="235.29" x2="567.63" y2="270.32" gradientUnits="userSpaceOnUse"><stop offset=".36"/></linearGradient><linearGradient id="irz3smgpc" x1="191.92" y1="235.29" x2="567.63" y2="270.32" gradientUnits="userSpaceOnUse"><stop offset=".36" stop-color="#3B0EC6"/></linearGradient><linearGradient id="krz3smgpc" x1="191.92" y1="235.29" x2="567.63" y2="270.32" gradientUnits="userSpaceOnUse"><stop offset=".36" stop-color="#03CD80"/></linearGradient><linearGradient id="mrz3smgpc" x1="191.92" y1="235.29" x2="567.63" y2="270.32" gradientUnits="userSpaceOnUse"><stop offset=".36" stop-color="#3B0EC6"/></linearGradient><linearGradient id="nrz3smgpc" x1="364.5" y1="46" x2="364.5" y2="359" gradientUnits="userSpaceOnUse"><stop stop-color="#02CD80"/><stop offset="1" stop-color="#171139"/></linearGradient><linearGradient id="orz3smgpc" x1="364" y1="-16" x2="364" y2="421" gradientUnits="userSpaceOnUse"><stop stop-color="#02CD80"/><stop offset="1" stop-color="#171139"/></linearGradient><linearGradient id="prz3smgpc" x1="364" y1="-77" x2="364" y2="482" gradientUnits="userSpaceOnUse"><stop stop-color="#02CD80"/><stop offset="1" stop-color="#171139"/></linearGradient><linearGradient id="qrz3smgpc" x1="364" y1="-139" x2="364" y2="544" gradientUnits="userSpaceOnUse"><stop stop-color="#02CD80"/><stop offset="1" stop-color="#171139"/></linearGradient><linearGradient id="rrz3smgpc" x1="364" y1="-206" x2="364" y2="610" gradientUnits="userSpaceOnUse"><stop stop-color="#02CD80"/><stop offset="1" stop-color="#171139"/></linearGradient><linearGradient id="srz3smgpc" x1="364" y1="-278" x2="364" y2="682" gradientUnits="userSpaceOnUse"><stop stop-color="#02CD80"/><stop offset="1" stop-color="#171139"/></linearGradient><linearGradient id="trz3smgpc" x1="364" y1="-348" x2="364" y2="752" gradientUnits="userSpaceOnUse"><stop stop-color="#02CD80"/><stop offset="1" stop-color="#171139"/></linearGradient><linearGradient id="urz3smgpc" x1="364" y1="-408" x2="364" y2="812" gradientUnits="userSpaceOnUse"><stop stop-color="#02CD80"/><stop offset="1" stop-color="#171139"/></linearGradient><linearGradient id="wrz3smgpc" x1="191.92" y1="235.29" x2="567.63" y2="270.32" gradientUnits="userSpaceOnUse"><stop offset=".36"/></linearGradient><linearGradient id="xrz3smgpc" x1="979.62" y1="489.44" x2="1117.89" y2="489.44" gradientUnits="userSpaceOnUse"><stop/><stop offset="1" stop-opacity="0"/></linearGradient><linearGradient id="yrz3smgpc" x1="16.33" y1="541.44" x2="144.44" y2="541.44" gradientUnits="userSpaceOnUse"><stop/><stop offset="1" stop-opacity="0"/></linearGradient><linearGradient id="acrz3smgpc" x1="424" y1="128.5" x2="302.02" y2="271.44" gradientUnits="userSpaceOnUse"><stop offset="0" stop-color="#00CE7D"/><stop offset=".81" stop-color="#201751"/></linearGradient><clipPath id="arz3smgpc"><path fill="#fff" d="M0 0h728v404H0z"/></clipPath><clipPath id="aarz3smgpc"><rect x="289" y="127" width="150" height="150" rx="28.13" fill="#fff"/></clipPath><clipPath id="aerz3smgpc"><rect x="145" y="298" width="72" height="72" rx="36" fill="#fff"/></clipPath><clipPath id="afrz3smgpc"><rect x="153" y="306" width="56" height="56" rx="28" fill="#fff"/></clipPath><clipPath id="ahrz3smgpc"><rect x="51" y="161" width="72" height="72" rx="36" fill="#fff"/></clipPath><clipPath id="airz3smgpc"><rect x="59" y="169" width="56" height="56" rx="28" fill="#fff"/></clipPath><clipPath id="ajrz3smgpc"><path fill="#fff" transform="translate(59 169)" d="M0 0h56v56H0z"/></clipPath><clipPath id="alrz3smgpc"><rect x="502" y="33" width="72" height="72" rx="36" fill="#fff"/></clipPath><clipPath id="amrz3smgpc"><rect x="510" y="41" width="56" height="56" rx="28" fill="#fff"/></clipPath><clipPath id="anrz3smgpc"><path fill="#fff" transform="translate(510 41)" d="M0 0h56v56H0z"/></clipPath><clipPath id="aprz3smgpc"><rect x="605" y="147" width="72" height="72" rx="36" fill="#fff"/></clipPath><clipPath id="aqrz3smgpc"><rect x="613" y="155" width="56" height="56" rx="28" fill="#fff"/></clipPath><clipPath id="arrz3smgpc"><path fill="#fff" transform="translate(613 155)" d="M0 0h56v56H0z"/></clipPath><clipPath id="atrz3smgpc"><rect x="160" y="23" width="72" height="72" rx="36" fill="#fff"/></clipPath><clipPath id="aurz3smgpc"><rect x="168" y="31" width="56" height="56" rx="28" fill="#fff"/></clipPath><clipPath id="awrz3smgpc"><rect x="502" y="295" width="72" height="72" rx="36" fill="#fff"/></clipPath><clipPath id="axrz3smgpc"><rect x="510" y="303" width="56" height="56" rx="28" fill="#fff"/></clipPath><clipPath id="ayrz3smgpc"><path fill="#fff" transform="translate(510 303)" d="M0 0h56v56H0z"/></clipPath><filter id="brz3smgpc" x="-1009.25" y="-709.81" width="1268.08" height="1480.82" filterUnits="userSpaceOnUse" color-interpolation-filters="sRGB"><feFlood flood-opacity="0" result="BackgroundImageFix"/><feBlend in="SourceGraphic" in2="BackgroundImageFix" result="shape"/><feGaussianBlur stdDeviation="194" result="effect1_foregroundBlur_3392_352298"/></filter><filter id="drz3smgpc" x="-1108.93" y="-378.25" width="1407.22" height="1359.54" filterUnits="userSpaceOnUse" color-interpolation-filters="sRGB"><feFlood flood-opacity="0" result="BackgroundImageFix"/><feBlend in="SourceGraphic" in2="BackgroundImageFix" result="shape"/><feGaussianBlur stdDeviation="194" result="effect1_foregroundBlur_3392_352298"/></filter><filter id="frz3smgpc" x="-1270.43" y="-412.25" width="1407.22" height="1359.54" filterUnits="userSpaceOnUse" color-interpolation-filters="sRGB"><feFlood flood-opacity="0" result="BackgroundImageFix"/><feBlend in="SourceGraphic" in2="BackgroundImageFix" result="shape"/><feGaussianBlur stdDeviation="194" result="effect1_foregroundBlur_3392_352298"/></filter><filter id="hrz3smgpc" x="152.92" y="-280.31" width="1436.43" height="1326.25" filterUnits="userSpaceOnUse" color-interpolation-filters="sRGB"><feFlood flood-opacity="0" result="BackgroundImageFix"/><feBlend in="SourceGraphic" in2="BackgroundImageFix" result="shape"/><feGaussianBlur stdDeviation="194" result="effect1_foregroundBlur_3392_352298"/></filter><filter id="jrz3smgpc" x="-152.25" y="-519.81" width="1268.08" height="1480.82" filterUnits="userSpaceOnUse" color-interpolation-filters="sRGB"><feFlood flood-opacity="0" result="BackgroundImageFix"/><feBlend in="SourceGraphic" in2="BackgroundImageFix" result="shape"/><feGaussianBlur stdDeviation="194" result="effect1_foregroundBlur_3392_352298"/></filter><filter id="lrz3smgpc" x="-661.5" y="-667.31" width="1268.08" height="1480.82" filterUnits="userSpaceOnUse" color-interpolation-filters="sRGB"><feFlood flood-opacity="0" result="BackgroundImageFix"/><feBlend in="SourceGraphic" in2="BackgroundImageFix" result="shape"/><feGaussianBlur stdDeviation="194" result="effect1_foregroundBlur_3392_352298"/></filter><filter id="vrz3smgpc" x="-884.75" y="-654.81" width="1268.08" height="1480.82" filterUnits="userSpaceOnUse" color-interpolation-filters="sRGB"><feFlood flood-opacity="0" result="BackgroundImageFix"/><feBlend in="SourceGraphic" in2="BackgroundImageFix" result="shape"/><feGaussianBlur stdDeviation="194" result="effect1_foregroundBlur_3392_352298"/></filter><filter id="zrz3smgpc" x="285.39" y="123.39" width="157.23" height="157.23" filterUnits="userSpaceOnUse" color-interpolation-filters="sRGB"><feFlood flood-opacity="0" result="BackgroundImageFix"/><feGaussianBlur in="BackgroundImageFix" stdDeviation="1.81"/><feComposite in2="SourceAlpha" operator="in" result="effect1_backgroundBlur_3392_352298"/><feBlend in="SourceGraphic" in2="effect1_backgroundBlur_3392_352298" result="shape"/></filter><filter id="abrz3smgpc" x="356.35" y="72.06" width="149.31" height="131.36" filterUnits="userSpaceOnUse" color-interpolation-filters="sRGB"><feFlood flood-opacity="0" result="BackgroundImageFix"/><feBlend in="SourceGraphic" in2="BackgroundImageFix" result="shape"/><feGaussianBlur stdDeviation="10" result="effect1_foregroundBlur_3392_352298"/></filter><filter id="adrz3smgpc" x="125" y="272" width="132" height="132" filterUnits="userSpaceOnUse" color-interpolation-filters="sRGB"><feFlood flood-opacity="0" result="BackgroundImageFix"/><feGaussianBlur in="BackgroundImageFix" stdDeviation="5"/><feComposite in2="SourceAlpha" operator="in" result="effect1_backgroundBlur_3392_352298"/><feColorMatrix in="SourceAlpha" values="0 0 0 0 0 0 0 0 0 0 0 0 0 0 0 0 0 0 127 0" result="hardAlpha"/><feOffset dx="10" dy="4"/><feGaussianBlur stdDeviation="15"/><feComposite in2="hardAlpha" operator="out"/><feColorMatrix values="0 0 0 0 0 0 0 0 0 0 0 0 0 0 0 0 0 0 0.3 0"/><feBlend in2="effect1_backgroundBlur_3392_352298" result="effect2_dropShadow_3392_352298"/><feBlend in="SourceGraphic" in2="effect2_dropShadow_3392_352298" result="shape"/></filter><filter id="agrz3smgpc" x="31" y="135" width="132" height="132" filterUnits="userSpaceOnUse" color-interpolation-filters="sRGB"><feFlood flood-opacity="0" result="BackgroundImageFix"/><feGaussianBlur in="BackgroundImageFix" stdDeviation="5"/><feComposite in2="SourceAlpha" operator="in" result="effect1_backgroundBlur_3392_352298"/><feColorMatrix in="SourceAlpha" values="0 0 0 0 0 0 0 0 0 0 0 0 0 0 0 0 0 0 127 0" result="hardAlpha"/><feOffset dx="10" dy="4"/><feGaussianBlur stdDeviation="15"/><feComposite in2="hardAlpha" operator="out"/><feColorMatrix values="0 0 0 0 0 0 0 0 0 0 0 0 0 0 0 0 0 0 0.3 0"/><feBlend in2="effect1_backgroundBlur_3392_352298" result="effect2_dropShadow_3392_352298"/><feBlend in="SourceGraphic" in2="effect2_dropShadow_3392_352298" result="shape"/></filter><filter id="akrz3smgpc" x="482" y="7" width="132" height="132" filterUnits="userSpaceOnUse" color-interpolation-filters="sRGB"><feFlood flood-opacity="0" result="BackgroundImageFix"/><feGaussianBlur in="BackgroundImageFix" stdDeviation="5"/><feComposite in2="SourceAlpha" operator="in" result="effect1_backgroundBlur_3392_352298"/><feColorMatrix in="SourceAlpha" values="0 0 0 0 0 0 0 0 0 0 0 0 0 0 0 0 0 0 127 0" result="hardAlpha"/><feOffset dx="10" dy="4"/><feGaussianBlur stdDeviation="15"/><feComposite in2="hardAlpha" operator="out"/><feColorMatrix values="0 0 0 0 0 0 0 0 0 0 0 0 0 0 0 0 0 0 0.3 0"/><feBlend in2="effect1_backgroundBlur_3392_352298" result="effect2_dropShadow_3392_352298"/><feBlend in="SourceGraphic" in2="effect2_dropShadow_3392_352298" result="shape"/></filter><filter id="aorz3smgpc" x="585" y="121" width="132" height="132" filterUnits="userSpaceOnUse" color-interpolation-filters="sRGB"><feFlood flood-opacity="0" result="BackgroundImageFix"/><feGaussianBlur in="BackgroundImageFix" stdDeviation="5"/><feComposite in2="SourceAlpha" operator="in" result="effect1_backgroundBlur_3392_352298"/><feColorMatrix in="SourceAlpha" values="0 0 0 0 0 0 0 0 0 0 0 0 0 0 0 0 0 0 127 0" result="hardAlpha"/><feOffset dx="10" dy="4"/><feGaussianBlur stdDeviation="15"/><feComposite in2="hardAlpha" operator="out"/><feColorMatrix values="0 0 0 0 0 0 0 0 0 0 0 0 0 0 0 0 0 0 0.3 0"/><feBlend in2="effect1_backgroundBlur_3392_352298" result="effect2_dropShadow_3392_352298"/><feBlend in="SourceGraphic" in2="effect2_dropShadow_3392_352298" result="shape"/></filter><filter id="asrz3smgpc" x="140" y="-3" width="132" height="132" filterUnits="userSpaceOnUse" color-interpolation-filters="sRGB"><feFlood flood-opacity="0" result="BackgroundImageFix"/><feGaussianBlur in="BackgroundImageFix" stdDeviation="5"/><feComposite in2="SourceAlpha" operator="in" result="effect1_backgroundBlur_3392_352298"/><feColorMatrix in="SourceAlpha" values="0 0 0 0 0 0 0 0 0 0 0 0 0 0 0 0 0 0 127 0" result="hardAlpha"/><feOffset dx="10" dy="4"/><feGaussianBlur stdDeviation="15"/><feComposite in2="hardAlpha" operator="out"/><feColorMatrix values="0 0 0 0 0 0 0 0 0 0 0 0 0 0 0 0 0 0 0.3 0"/><feBlend in2="effect1_backgroundBlur_3392_352298" result="effect2_dropShadow_3392_352298"/><feBlend in="SourceGraphic" in2="effect2_dropShadow_3392_352298" result="shape"/></filter><filter id="avrz3smgpc" x="482" y="269" width="132" height="132" filterUnits="userSpaceOnUse" color-interpolation-filters="sRGB"><feFlood flood-opacity="0" result="BackgroundImageFix"/><feGaussianBlur in="BackgroundImageFix" stdDeviation="5"/><feComposite in2="SourceAlpha" operator="in" result="effect1_backgroundBlur_3392_352298"/><feColorMatrix in="SourceAlpha" values="0 0 0 0 0 0 0 0 0 0 0 0 0 0 0 0 0 0 127 0" result="hardAlpha"/><feOffset dx="10" dy="4"/><feGaussianBlur stdDeviation="15"/><feComposite in2="hardAlpha" operator="out"/><feColorMatrix values="0 0 0 0 0 0 0 0 0 0 0 0 0 0 0 0 0 0 0.3 0"/><feBlend in2="effect1_backgroundBlur_3392_352298" result="effect2_dropShadow_3392_352298"/><feBlend in="SourceGraphic" in2="effect2_dropShadow_3392_352298" result="shape"/></filter></defs></svg>