<svg xmlns="http://www.w3.org/2000/svg" width="132" height="60" viewBox="0 0 132 60"><path fill="#fff" d="M100.3 39.46a2.4 2.4 0 0 0 .69 1.67 2.4 2.4 0 0 0 1.66.7 2.9 2.9 0 0 0 2.51-1.4l5.43-7.07 5.49 7.2a2.7 2.7 0 0 0 2.38 1.27A2.46 2.46 0 0 0 121 39.3a3 3 0 0 0-.77-1.9l-6.3-7.74 5.96-7.3c.49-.54.76-1.24.78-1.97a2.4 2.4 0 0 0-1.45-2.2q-.43-.18-.9-.18a3 3 0 0 0-2.51 1.4l-5.1 6.7-5.11-6.83a2.7 2.7 0 0 0-2.38-1.27 2.5 2.5 0 0 0-2.37 1.56q-.18.47-.18.99c.04.7.31 1.38.77 1.9l5.97 7.27-6.33 7.76a3 3 0 0 0-.77 1.98m-18.13 2.17h13.15a2.3 2.3 0 0 0 2.13-1.4q.18-.41.18-.87a2.33 2.33 0 0 0-2.3-2.31H84.71v-4.92h8.94a2.3 2.3 0 0 0 2.13-1.4q.17-.41.18-.88a2.33 2.33 0 0 0-2.31-2.3h-8.94V22.8h10.45a2.3 2.3 0 0 0 2.12-1.4 2.3 2.3 0 0 0-2.12-3.18h-13a2.5 2.5 0 0 0-2.38 1.58q-.2.48-.2 1v18.27a2.57 2.57 0 0 0 2.59 2.57m-19.9-12.05v-6.73h3.57c2.5 0 4.05 1.14 4.05 3.35v.07c0 1.97-1.44 3.31-3.95 3.31zm-5.15 9.67a2.6 2.6 0 0 0 2.58 2.56 2.57 2.57 0 0 0 2.58-2.56v-5.12h3.33l5.28 6.36a3.1 3.1 0 0 0 2.55 1.34 2.4 2.4 0 0 0 2.25-1.45q.18-.44.2-.93a3 3 0 0 0-.84-1.97l-3.85-4.35c3.1-1.42 4.1-4.38 4.17-7.13v-.07a7.5 7.5 0 0 0-2.27-5.35c-1.54-1.54-3.85-2.38-6.83-2.38H59.7a2.5 2.5 0 0 0-2.39 1.58q-.2.48-.19 1zM42.77 42c6.3 0 10.28-3.48 10.28-10.58V20.58a2.6 2.6 0 0 0-2.58-2.56 2.57 2.57 0 0 0-2.58 2.56v11.04c0 3.72-1.9 5.62-5.05 5.62s-5.06-1.97-5.06-5.79V20.58a2.6 2.6 0 0 0-2.58-2.56 2.57 2.57 0 0 0-2.58 2.55V31.6c0 6.9 3.85 10.41 10.15 10.41m-29.19-.37h13.16a2.3 2.3 0 0 0 2.13-1.4q.17-.41.18-.87a2.33 2.33 0 0 0-2.31-2.31H16.12v-4.92h8.94a2.3 2.3 0 0 0 2.13-1.4q.18-.42.18-.88a2.33 2.33 0 0 0-2.3-2.3h-8.95V22.8h10.45a2.3 2.3 0 0 0 2.13-1.4q.17-.41.18-.87a2.33 2.33 0 0 0-2.31-2.31h-13a2.5 2.5 0 0 0-2.38 1.58q-.2.48-.19 1v18.27a2.6 2.6 0 0 0 1.6 2.38q.46.2.98.19"/></svg>