<svg width="230" height="100" viewBox="0 0 230 100" fill="none" xmlns="http://www.w3.org/2000/svg"><path d="M161.154 62.6591c-.002.4159.078.8281.235 1.2131.157.385.389.735.682 1.0301.294.2951.642.5294 1.026.6894.384.16.796.2426 1.211.2431.677.0012 1.343-.1708 1.935-.4996.591-.3288 1.089-.8035 1.445-1.3789l7.3-9.4345 7.388 9.6128c.339.5373.812.9768 1.373 1.275.561.2981 1.191.4447 1.826.4252.451.0134.9-.0651 1.32-.2308.419-.1656.801-.415 1.121-.7328.321-.3179.573-.6976.742-1.116.169-.4185.251-.867.241-1.3181-.049-.9423-.415-1.8404-1.038-2.549l-8.469-10.3278 8.019-9.7465c.651-.7265 1.019-1.6627 1.038-2.6381.002-.4159-.078-.8281-.235-1.2131-.157-.385-.389-.735-.682-1.0301-.293-.2951-.642-.5294-1.026-.6894-.384-.16-.795-.2426-1.211-.2431-.677-.0008-1.343.1713-1.934.5001-.592.3287-1.09.8032-1.446 1.3784l-6.848 8.9414-6.893-9.1197c-.339-.5365-.813-.975-1.374-1.2722-.561-.2971-1.19-.4425-1.825-.4218-.451-.0134-.9.0651-1.32.2308-.42.1657-.801.415-1.122.7328-.32.3179-.572.6976-.741 1.1161-.169.4184-.251.8669-.241 1.3181.049.9422.414 1.8403 1.037 2.5489l8.024 9.7019-8.514 10.3724c-.652.7247-1.021 1.6606-1.038 2.6354m-24.391 2.9056h17.699c.404.0057.805-.0686 1.18-.2185.375-.1499.717-.3725 1.006-.6549.289-.2825.519-.6193.677-.991.158-.3717.241-.771.244-1.1749-.005-.8204-.334-1.6054-.916-2.1834-.583-.5779-1.37-.9017-2.191-.9005h-14.281v-6.5708h12.026c.404.0056.805-.0688 1.18-.2187.375-.1499.716-.3725 1.005-.655.289-.2824.519-.6191.677-.9908.158-.3716.241-.7709.245-1.1748-.005-.8204-.335-1.6054-.917-2.1833-.582-.578-1.37-.9018-2.19-.9006h-12.026v-6.3496h14.055c.404.0056.805-.0686 1.18-.2185.375-.1499.717-.3725 1.006-.655.288-.2824.518-.6192.676-.9909.159-.3717.242-.771.245-1.1749-.005-.8204-.335-1.6055-.917-2.1834-.582-.5779-1.37-.9017-2.19-.9005h-17.479c-.455-.0054-.906.0798-1.328.2506-.421.1708-.805.4237-1.127.7441-.323.3203-.579.7017-.753 1.1219-.174.4202-.263.8709-.261 1.3257v24.4099c-.001.4542.088.9041.263 1.3234.174.4194.43.7999.753 1.1195.323.3195.706.5717 1.127.7419.421.1702.872.255 1.326.2494m-26.757-16.0943v-8.986h4.786c3.38 0 5.452 1.5156 5.452 4.4694v.0891c0 2.6381-1.936 4.4248-5.315 4.4248h-4.923v.0027Zm-6.94 12.9186c.014.9103.386 1.7784 1.035 2.417.649.6386 1.523.9965 2.433.9965.911 0 1.785-.3579 2.434-.9965.648-.6386 1.02-1.5067 1.035-2.417v-6.84h4.488l7.107 8.4939c.384.553.896 1.0047 1.492 1.3163.597.3117 1.26.474 1.933.473.425.0095.848-.0654 1.243-.2202.396-.1549.757-.3867 1.063-.682.306-.2953.55-.6482.719-1.0385.168-.3902.258-.81.263-1.235-.035-.9895-.437-1.9306-1.127-2.6408l-5.171-5.8112c4.179-1.8918 5.521-5.8503 5.607-9.5236v-.0891c-.007-1.3356-.28-2.6563-.805-3.8845-.525-1.2282-1.289-2.3392-2.249-3.2676-2.072-2.0568-5.182-3.1757-9.191-3.1757h-8.84c-.455-.0053-.906.0799-1.328.2507-.421.1707-.805.4237-1.128.744-.322.3204-.578.7018-.752 1.122-.174.4202-.263.8708-.261 1.3256v24.6827Zm-19.3248 3.6679c8.4698 0 13.8307-4.6504 13.8307-14.1294V37.4423c-.0146-.9103-.3864-1.7784-1.0353-2.417-.6489-.6385-1.5229-.9964-2.4333-.9964-.9104 0-1.7843.3579-2.4332.9964-.6489.6386-1.0208 1.5067-1.0354 2.417v14.7526c0 4.9624-2.5677 7.5113-6.8017 7.5113s-6.8016-2.6381-6.8016-7.7342V37.4396c-.0146-.9103-.3865-1.7784-1.0354-2.4169-.6489-.6386-1.5228-.9965-2.4332-.9965-.9104 0-1.7844.3579-2.4333.9965-.6489.6385-1.0207 1.5066-1.0353 2.4169v14.7107c0 9.2116 5.1772 13.9083 13.647 13.9083m-39.2695-.4922h17.7028c.4039.0057.8049-.0686 1.18-.2185s.7169-.3725 1.0056-.6549c.2888-.2825.5189-.6193.677-.991.1581-.3717.2412-.771.2445-1.1749-.005-.8204-.3347-1.6054-.917-2.1833-.5822-.578-1.3697-.9018-2.1901-.9006H47.8926v-6.5707h12.028c.4039.0056.805-.0686 1.1801-.2185.3751-.1499.7168-.3725 1.0056-.655.2887-.2825.5188-.6192.6769-.9909.1582-.3717.2412-.771.2445-1.175-.005-.8203-.3346-1.6054-.9169-2.1833-.5823-.578-1.3698-.9017-2.1902-.9005h-12.028v-6.3479H61.948c.4039.0055.8049-.0688 1.1799-.2188.3751-.1499.7168-.3725 1.0055-.6549.2887-.2825.5188-.6192.677-.9909.1582-.3716.2413-.7708.2447-1.1747-.005-.8204-.3346-1.6055-.9169-2.1834-.5823-.5779-1.3698-.9017-2.1902-.9005H44.4691c-.4548-.0054-.9061.0798-1.3277.2506-.4215.1708-.8048.4237-1.1277.7441-.3228.3203-.5787.7017-.7528 1.1219-.174.4202-.2627.8709-.2609 1.3257v24.4099c-.0013.4543.0878.9043.2621 1.3239.1742.4195.4303.8002.7531 1.1198.3229.3196.7061.5718 1.1274.7419.4213.17.8722.2546 1.3265.2486" fill="#fff"/></svg>