<svg width="1480" height="315" viewBox="0 0 1480 315" fill="none" xmlns="http://www.w3.org/2000/svg"><g clip-path="url(#asrdce05l)"><g opacity=".6" filter="url(#bsrdce05l)"><ellipse cx="1103.21" cy="-26.4" rx="380.41" ry="199.89" transform="rotate(116.3 1103.21 -26.4)" fill="url(#csrdce05l)" fill-opacity=".3"/></g><g opacity=".6" filter="url(#dsrdce05l)"><ellipse cx="1133.32" cy="244.52" rx="380.41" ry="199.89" transform="rotate(138.97 1133.32 244.52)" fill="url(#esrdce05l)" fill-opacity=".3"/></g><g opacity=".6" filter="url(#fsrdce05l)"><ellipse cx="-143.13" cy="325.82" rx="380.41" ry="199.89" transform="rotate(35.73 -143.13 325.82)" fill="url(#gsrdce05l)" fill-opacity=".2"/></g><g opacity=".6" filter="url(#hsrdce05l)"><ellipse cx="247.21" cy="164.6" rx="380.41" ry="199.89" transform="rotate(116.3 247.21 164.6)" fill="url(#isrdce05l)" fill-opacity=".2"/></g><g opacity=".6" filter="url(#jsrdce05l)"><ellipse cx="755.47" cy="16.1" rx="380.41" ry="199.89" transform="rotate(116.3 755.47 16.1)" fill="url(#ksrdce05l)" fill-opacity=".3"/></g><circle cx="156.5" cy="156.5" r="156.5" transform="matrix(-1 0 0 1 559 19)" stroke="url(#lsrdce05l)" stroke-opacity=".5" stroke-width=".51"/><ellipse cx="219" cy="218.5" rx="219" ry="218.5" transform="matrix(-1 0 0 1 622 -43)" stroke="url(#msrdce05l)" stroke-opacity=".5" stroke-width=".51"/><ellipse opacity=".7" cx="280" cy="279.5" rx="280" ry="279.5" transform="matrix(-1 0 0 1 683 -104)" stroke="url(#nsrdce05l)" stroke-opacity=".5" stroke-width=".51"/><ellipse opacity=".6" cx="342" cy="341.5" rx="342" ry="341.5" transform="matrix(-1 0 0 1 745 -166)" stroke="url(#osrdce05l)" stroke-opacity=".5" stroke-width=".51"/><circle opacity=".5" cx="408" cy="408" r="408" transform="matrix(-1 0 0 1 811 -232)" stroke="url(#psrdce05l)" stroke-opacity=".5" stroke-width=".51"/><circle opacity=".4" cx="480" cy="480" r="480" transform="matrix(-1 0 0 1 883 -304)" stroke="url(#qsrdce05l)" stroke-opacity=".5" stroke-width=".51"/><circle opacity=".3" cx="550" cy="550" r="550" transform="matrix(-1 0 0 1 953 -374)" stroke="url(#rsrdce05l)" stroke-opacity=".5" stroke-width=".51"/><circle opacity=".3" cx="610" cy="610" r="610" transform="matrix(-1 0 0 1 1013 -434)" stroke="url(#ssrdce05l)" stroke-opacity=".5" stroke-width=".51"/><circle opacity=".3" cx="610" cy="610" r="610" transform="matrix(-1 0 0 1 1013 -434)" stroke="url(#tsrdce05l)" stroke-opacity=".5" stroke-width=".51"/><circle opacity=".2" cx="665" cy="665" r="665" transform="matrix(-1 0 0 1 1068 -489)" stroke="url(#usrdce05l)" stroke-opacity=".5" stroke-width=".51"/><g opacity=".6" filter="url(#vsrdce05l)"><ellipse cx="978.71" cy="28.6" rx="380.41" ry="199.89" transform="rotate(116.3 978.71 28.6)" fill="url(#wsrdce05l)"/></g><g filter="url(#xsrdce05l)"><g clip-path="url(#ysrdce05l)"><rect x="328.25" y="83" width="150" height="150" rx="28.13" fill="#000"/><path d="M379.74 154.48h19.98c1.91 0 3.45 1.53 3.45 3.39a3.4 3.4 0 0 1-3.45 3.39h-19.98m45.1-.32a3.7 3.7 0 0 0-5.24-.05 3.7 3.7 0 0 0 .05 5.25l8.75 8.74a3.7 3.7 0 0 0 5.24.05 3.7 3.7 0 0 0-.05-5.24l-8.74-8.75Zm-24.64 8.7a3.7 3.7 0 0 0-.05 5.24 3.7 3.7 0 0 0 5.25-.05l8.8-8.7a3.7 3.7 0 0 0 .05-5.24 3.7 3.7 0 0 0-5.25.05l-8.8 8.7Zm33.4-23.33a3.7 3.7 0 0 0 .04-5.24 3.7 3.7 0 0 0-5.24.05l-8.75 8.75a3.7 3.7 0 0 0-.05 5.24 3.7 3.7 0 0 0 5.25-.05l8.74-8.75Zm-24.65 8.75a3.7 3.7 0 0 0 5.24.05 3.7 3.7 0 0 0-.05-5.25l-8.75-8.74a3.7 3.7 0 0 0-5.24-.05 3.7 3.7 0 0 0 .05 5.24l8.75 8.75Zm-32.97-7.95h15.95a3.4 3.4 0 1 0 0-6.78h-19.5a3.87 3.87 0 0 0-3.92 3.86v27.62a3.87 3.87 0 0 0 3.92 3.87h19.72a3.4 3.4 0 1 0 0-6.78h-16.22v-21.8h.05Z" fill="#00CE7D"/><g opacity=".3" filter="url(#zsrdce05l)"><ellipse cx="26" cy="47.43" rx="26" ry="47.43" transform="scale(-1 1) rotate(-22.27 -48.64 1288.85)" fill="#25A9E0" fill-opacity=".3"/></g></g><rect x="330.13" y="84.88" width="146.25" height="146.25" rx="26.25" stroke="url(#aasrdce05l)" stroke-width="3.75"/></g><g filter="url(#absrdce05l)"><g clip-path="url(#acsrdce05l)"><rect x="639" y="209" width="72" height="72" rx="36" fill="#16131D"/><g clip-path="url(#adsrdce05l)"><path fill-rule="evenodd" clip-rule="evenodd" d="M688 249.99a16.23 16.23 0 0 1-2.2 4.3 14.75 14.75 0 0 1-2.14 2.5 4.2 4.2 0 0 1-2.75 1.18c-.7 0-1.55-.2-2.54-.6-.99-.38-1.9-.58-2.73-.58-.87 0-1.8.2-2.8.59-1.01.4-1.82.6-2.44.62-.94.04-1.87-.36-2.8-1.2-.6-.51-1.35-1.38-2.24-2.6a17.8 17.8 0 0 1-2.37-4.57c-.66-1.88-.99-3.69-.99-5.44 0-2.01.45-3.75 1.34-5.2a7.77 7.77 0 0 1 6.61-3.8c.75 0 1.73.22 2.94.66 1.22.44 2 .66 2.34.66.25 0 1.12-.26 2.58-.78a8.77 8.77 0 0 1 3.52-.6c2.6.2 4.54 1.19 5.84 2.98-2.32 1.37-3.47 3.29-3.45 5.74.02 1.92.74 3.51 2.14 4.78a7.1 7.1 0 0 0 2.14 1.36ZM681.47 228l.03.6c0 1.5-.57 2.9-1.69 4.2-1.35 1.54-3 2.43-4.78 2.29a4.49 4.49 0 0 1-.03-.57 6.89 6.89 0 0 1 3.97-5.83 6.65 6.65 0 0 1 2.5-.69Z" fill="#D1D4DC"/></g></g></g><g filter="url(#aesrdce05l)"><g clip-path="url(#afsrdce05l)"><rect x="707.5" y="96" width="72" height="72" rx="36" fill="#16131D"/><g clip-path="url(#agsrdce05l)"><g clip-path="url(#ahsrdce05l)"><path fill-rule="evenodd" clip-rule="evenodd" d="M734.25 116.72a2.14 2.14 0 0 0-3.75 1.32c-.03.57.17 1.13.55 1.56l11.13 12.53-11.12 12.25a2.17 2.17 0 0 0 1.68 3.62 2.15 2.15 0 0 0 1.49-.7l12.42-13.7 1.31-1.43-1.29-1.46-12.42-13.99Zm21.63 3.06a2.17 2.17 0 0 0-.7-3.52 2.13 2.13 0 0 0-2.35.48l-6.48 6.55-1.5 1.53 3.03 3.05 1.52-1.53 6.48-6.56Zm-6.54 18.07-1.56-1.47-2.94 3.15 1.57 1.48 6.48 6.1c.86.82 2.22.77 3.03-.1a2.17 2.17 0 0 0-.1-3.05l-6.48-6.1Z" fill="#D1D4DC"/></g></g></g></g><g filter="url(#aisrdce05l)"><g clip-path="url(#ajsrdce05l)"><rect x="123.5" y="15" width="72" height="72" rx="36" fill="#11191C"/><g clip-path="url(#aksrdce05l)"><g clip-path="url(#alsrdce05l)"><path fill-rule="evenodd" clip-rule="evenodd" d="M140.5 64V42h43L163 64h-22.5Zm24.83-11.47h.94c1.24 0 2.23-.43 2.23-1.79 0-1.32-1-1.74-2.24-1.74h-.93v3.53Zm-10.45 2.27a3.82 3.82 0 0 0 2.69.01l-1.32-4.39h-.03l-1.34 4.38Zm6.62-8.8h4.52c4.04 0 5.94 1.63 5.94 4.88 0 2.92-1.95 4.66-5.26 4.66h-1.2V60h-6.44l-.62-2.27a6.87 6.87 0 0 1-4.46-.02L153.2 60h-3.84l.55-1.43-.15.14A5.7 5.7 0 0 1 146.1 60h-.22c-1.7 0-3.38-.51-4.79-1.34l1.3-2.69a5.71 5.71 0 0 0 3.51 1.03c.63-.01 1.08-.13 1.37-.44.18-.19.27-.43.28-.68 0-.7-.95-1.03-2.13-1.4a9.85 9.85 0 0 1-2.88-1.37 3.47 3.47 0 0 1-1.45-3.05c0-.95.37-1.86 1.01-2.55.94-1 2.44-1.51 4.24-1.51 1.55 0 3.44.36 4.8 1.08l-1.47 2.65a6.7 6.7 0 0 0-3.1-.86c-1.26-.07-1.9.4-1.91.9-.01.61 1.2 1.17 2.34 1.55 1.72.57 3.92 1.33 4.25 3.52l3.16-8.84h3.67l3.41 10.55V46Z" fill="#D1D4DC"/></g></g></g></g><g filter="url(#amsrdce05l)"><g clip-path="url(#ansrdce05l)"><rect x="29.5" y="120" width="72" height="72" rx="36" fill="#11191C"/><g clip-path="url(#aosrdce05l)"><g clip-path="url(#apsrdce05l)"><path d="M72.5 153a8.68 8.68 0 0 0-.94-3.59l-4.97-9.17a8.14 8.14 0 0 1-.8-2.24l-.22.39a7.67 7.67 0 0 0 0 7.32l4.02 7.33a7.67 7.67 0 0 1 0 7.32l-.22.39a8.14 8.14 0 0 0-.8-2.24l-3.65-6.7-2.34-4.33a8.14 8.14 0 0 1-.8-2.23l-.23.38a7.67 7.67 0 0 0 0 7.33l4.02 7.32a7.67 7.67 0 0 1 0 7.33l-.22.38a8.14 8.14 0 0 0-.8-2.23l-5.04-9.18c-.66-1.23-1.01-2.2-1.01-3.58-5.33 1.47-9 4.2-9 7.82 0 5.1 7.16 9.18 16 9.18s16-4.09 16-9.18c.07-3.47-3.6-6.35-9-7.82Z" fill="#D1D4DC"/></g></g></g></g><g filter="url(#aqsrdce05l)"><g clip-path="url(#arsrdce05l)"><rect x="550" y="40" width="72" height="72" rx="36" fill="#16131D"/><g clip-path="url(#assrdce05l)"><path d="M596.89 79.11c0 6.85-4.9 12.45-10.89 12.45s-10.89-5.6-10.89-12.45c0-6.84 10.89-21.78 10.89-21.78s10.89 14.94 10.89 21.78Z" fill="#D1D4DC"/></g></g></g><g filter="url(#atsrdce05l)"><rect width="72" height="72" rx="36" transform="matrix(-1 0 0 1 174.5 217)" fill="#11191C"/></g><g clip-path="url(#ausrdce05l)"><g clip-path="url(#avsrdce05l)" fill="#D1D4DC"><path d="M149.5 242h-22v22h22v-22Zm5-5v32h-32v-32h32Z"/><path d="M141.5 245h6l-12 16h-6l12-16Z"/></g></g></g><defs><linearGradient id="csrdce05l" x1="914.73" y1="9" x2="1290.44" y2="44.03" gradientUnits="userSpaceOnUse"><stop offset=".36"/></linearGradient><linearGradient id="esrdce05l" x1="944.84" y1="279.92" x2="1320.54" y2="314.95" gradientUnits="userSpaceOnUse"><stop offset=".36"/></linearGradient><linearGradient id="gsrdce05l" x1="-331.62" y1="361.21" x2="44.09" y2="396.24" gradientUnits="userSpaceOnUse"><stop offset=".36" stop-color="#3B0EC6"/></linearGradient><linearGradient id="isrdce05l" x1="58.73" y1="200" x2="434.44" y2="235.03" gradientUnits="userSpaceOnUse"><stop offset=".36" stop-color="#03CD80"/></linearGradient><linearGradient id="ksrdce05l" x1="566.99" y1="51.5" x2="942.69" y2="86.53" gradientUnits="userSpaceOnUse"><stop offset=".36" stop-color="#400FD7"/></linearGradient><linearGradient id="lsrdce05l" x1="156.5" y1="0" x2="156.5" y2="313" gradientUnits="userSpaceOnUse"><stop stop-color="#02CD80"/><stop offset="1" stop-color="#171139"/></linearGradient><linearGradient id="msrdce05l" x1="219" y1="0" x2="219" y2="437" gradientUnits="userSpaceOnUse"><stop stop-color="#02CD80"/><stop offset="1" stop-color="#171139"/></linearGradient><linearGradient id="nsrdce05l" x1="280" y1="0" x2="280" y2="559" gradientUnits="userSpaceOnUse"><stop stop-color="#02CD80"/><stop offset="1" stop-color="#171139"/></linearGradient><linearGradient id="osrdce05l" x1="342" y1="0" x2="342" y2="683" gradientUnits="userSpaceOnUse"><stop stop-color="#02CD80"/><stop offset="1" stop-color="#171139"/></linearGradient><linearGradient id="psrdce05l" x1="408" y1="0" x2="408" y2="816" gradientUnits="userSpaceOnUse"><stop stop-color="#02CD80"/><stop offset="1" stop-color="#171139"/></linearGradient><linearGradient id="qsrdce05l" x1="480" y1="0" x2="480" y2="960" gradientUnits="userSpaceOnUse"><stop stop-color="#02CD80"/><stop offset="1" stop-color="#171139"/></linearGradient><linearGradient id="rsrdce05l" x1="550" y1="0" x2="550" y2="1100" gradientUnits="userSpaceOnUse"><stop stop-color="#02CD80"/><stop offset="1" stop-color="#171139"/></linearGradient><linearGradient id="ssrdce05l" x1="610" y1="0" x2="610" y2="1220" gradientUnits="userSpaceOnUse"><stop stop-color="#02CD80"/><stop offset="1" stop-color="#171139"/></linearGradient><linearGradient id="tsrdce05l" x1="610" y1="0" x2="610" y2="1220" gradientUnits="userSpaceOnUse"><stop stop-color="#02CD80"/><stop offset="1" stop-color="#171139"/></linearGradient><linearGradient id="usrdce05l" x1="665" y1="0" x2="665" y2="1330" gradientUnits="userSpaceOnUse"><stop stop-color="#02CD80"/><stop offset="1" stop-color="#171139"/></linearGradient><linearGradient id="wsrdce05l" x1="790.23" y1="64" x2="1165.94" y2="99.03" gradientUnits="userSpaceOnUse"><stop offset=".36"/></linearGradient><linearGradient id="aasrdce05l" x1="463.25" y1="84.5" x2="341.27" y2="227.44" gradientUnits="userSpaceOnUse"><stop offset="0" stop-color="#00CE7D"/><stop offset=".81" stop-color="#201751"/></linearGradient><clipPath id="asrdce05l"><path fill="#fff" transform="matrix(-1 0 0 1 1480 0)" d="M0 0h1480v315H0z"/></clipPath><clipPath id="ysrdce05l"><rect x="328.25" y="83" width="150" height="150" rx="28.13" fill="#fff"/></clipPath><clipPath id="acsrdce05l"><rect x="639" y="209" width="72" height="72" rx="36" fill="#fff"/></clipPath><clipPath id="adsrdce05l"><rect x="647" y="217" width="56" height="56" rx="28" fill="#fff"/></clipPath><clipPath id="afsrdce05l"><rect x="707.5" y="96" width="72" height="72" rx="36" fill="#fff"/></clipPath><clipPath id="agsrdce05l"><rect x="715.5" y="104" width="56" height="56" rx="28" fill="#fff"/></clipPath><clipPath id="ahsrdce05l"><path fill="#fff" transform="translate(715.5 104)" d="M0 0h56v56H0z"/></clipPath><clipPath id="ajsrdce05l"><rect x="123.5" y="15" width="72" height="72" rx="36" fill="#fff"/></clipPath><clipPath id="aksrdce05l"><rect x="131.5" y="23" width="56" height="56" rx="28" fill="#fff"/></clipPath><clipPath id="alsrdce05l"><path fill="#fff" transform="translate(131.5 23)" d="M0 0h56v56H0z"/></clipPath><clipPath id="ansrdce05l"><rect x="29.5" y="120" width="72" height="72" rx="36" fill="#fff"/></clipPath><clipPath id="aosrdce05l"><rect x="37.5" y="128" width="56" height="56" rx="28" fill="#fff"/></clipPath><clipPath id="apsrdce05l"><path fill="#fff" transform="translate(37.5 128)" d="M0 0h56v56H0z"/></clipPath><clipPath id="arsrdce05l"><rect x="550" y="40" width="72" height="72" rx="36" fill="#fff"/></clipPath><clipPath id="assrdce05l"><rect x="558" y="48" width="56" height="56" rx="28" fill="#fff"/></clipPath><clipPath id="ausrdce05l"><rect x="110.5" y="225" width="56" height="56" rx="28" fill="#fff"/></clipPath><clipPath id="avsrdce05l"><path fill="#fff" transform="translate(110.5 225)" d="M0 0h56v56H0z"/></clipPath><filter id="bsrdce05l" x="469.18" y="-766.81" width="1268.08" height="1480.82" filterUnits="userSpaceOnUse" color-interpolation-filters="sRGB"><feFlood flood-opacity="0" result="BackgroundImageFix"/><feBlend in="SourceGraphic" in2="BackgroundImageFix" result="shape"/><feGaussianBlur stdDeviation="194" result="effect1_foregroundBlur_3622_41909"/></filter><filter id="dsrdce05l" x="429.71" y="-435.25" width="1407.22" height="1359.54" filterUnits="userSpaceOnUse" color-interpolation-filters="sRGB"><feFlood flood-opacity="0" result="BackgroundImageFix"/><feBlend in="SourceGraphic" in2="BackgroundImageFix" result="shape"/><feGaussianBlur stdDeviation="194" result="effect1_foregroundBlur_3622_41909"/></filter><filter id="fsrdce05l" x="-861.35" y="-337.31" width="1436.43" height="1326.25" filterUnits="userSpaceOnUse" color-interpolation-filters="sRGB"><feFlood flood-opacity="0" result="BackgroundImageFix"/><feBlend in="SourceGraphic" in2="BackgroundImageFix" result="shape"/><feGaussianBlur stdDeviation="194" result="effect1_foregroundBlur_3622_41909"/></filter><filter id="hsrdce05l" x="-386.82" y="-575.81" width="1268.08" height="1480.82" filterUnits="userSpaceOnUse" color-interpolation-filters="sRGB"><feFlood flood-opacity="0" result="BackgroundImageFix"/><feBlend in="SourceGraphic" in2="BackgroundImageFix" result="shape"/><feGaussianBlur stdDeviation="194" result="effect1_foregroundBlur_3622_41909"/></filter><filter id="jsrdce05l" x="121.43" y="-724.31" width="1268.08" height="1480.82" filterUnits="userSpaceOnUse" color-interpolation-filters="sRGB"><feFlood flood-opacity="0" result="BackgroundImageFix"/><feBlend in="SourceGraphic" in2="BackgroundImageFix" result="shape"/><feGaussianBlur stdDeviation="194" result="effect1_foregroundBlur_3622_41909"/></filter><filter id="vsrdce05l" x="344.68" y="-711.81" width="1268.08" height="1480.82" filterUnits="userSpaceOnUse" color-interpolation-filters="sRGB"><feFlood flood-opacity="0" result="BackgroundImageFix"/><feBlend in="SourceGraphic" in2="BackgroundImageFix" result="shape"/><feGaussianBlur stdDeviation="194" result="effect1_foregroundBlur_3622_41909"/></filter><filter id="xsrdce05l" x="324.64" y="79.39" width="157.23" height="157.23" filterUnits="userSpaceOnUse" color-interpolation-filters="sRGB"><feFlood flood-opacity="0" result="BackgroundImageFix"/><feGaussianBlur in="BackgroundImageFix" stdDeviation="1.81"/><feComposite in2="SourceAlpha" operator="in" result="effect1_backgroundBlur_3622_41909"/><feBlend in="SourceGraphic" in2="effect1_backgroundBlur_3622_41909" result="shape"/></filter><filter id="zsrdce05l" x="390.01" y="36.75" width="120.07" height="149.98" filterUnits="userSpaceOnUse" color-interpolation-filters="sRGB"><feFlood flood-opacity="0" result="BackgroundImageFix"/><feBlend in="SourceGraphic" in2="BackgroundImageFix" result="shape"/><feGaussianBlur stdDeviation="15" result="effect1_foregroundBlur_3622_41909"/></filter><filter id="absrdce05l" x="619" y="183" width="132" height="132" filterUnits="userSpaceOnUse" color-interpolation-filters="sRGB"><feFlood flood-opacity="0" result="BackgroundImageFix"/><feGaussianBlur in="BackgroundImageFix" stdDeviation="5"/><feComposite in2="SourceAlpha" operator="in" result="effect1_backgroundBlur_3622_41909"/><feColorMatrix in="SourceAlpha" values="0 0 0 0 0 0 0 0 0 0 0 0 0 0 0 0 0 0 127 0" result="hardAlpha"/><feOffset dx="10" dy="4"/><feGaussianBlur stdDeviation="15"/><feComposite in2="hardAlpha" operator="out"/><feColorMatrix values="0 0 0 0 0 0 0 0 0 0 0 0 0 0 0 0 0 0 0.3 0"/><feBlend in2="effect1_backgroundBlur_3622_41909" result="effect2_dropShadow_3622_41909"/><feBlend in="SourceGraphic" in2="effect2_dropShadow_3622_41909" result="shape"/></filter><filter id="aesrdce05l" x="687.5" y="70" width="132" height="132" filterUnits="userSpaceOnUse" color-interpolation-filters="sRGB"><feFlood flood-opacity="0" result="BackgroundImageFix"/><feGaussianBlur in="BackgroundImageFix" stdDeviation="5"/><feComposite in2="SourceAlpha" operator="in" result="effect1_backgroundBlur_3622_41909"/><feColorMatrix in="SourceAlpha" values="0 0 0 0 0 0 0 0 0 0 0 0 0 0 0 0 0 0 127 0" result="hardAlpha"/><feOffset dx="10" dy="4"/><feGaussianBlur stdDeviation="15"/><feComposite in2="hardAlpha" operator="out"/><feColorMatrix values="0 0 0 0 0 0 0 0 0 0 0 0 0 0 0 0 0 0 0.3 0"/><feBlend in2="effect1_backgroundBlur_3622_41909" result="effect2_dropShadow_3622_41909"/><feBlend in="SourceGraphic" in2="effect2_dropShadow_3622_41909" result="shape"/></filter><filter id="aisrdce05l" x="103.5" y="-11" width="132" height="132" filterUnits="userSpaceOnUse" color-interpolation-filters="sRGB"><feFlood flood-opacity="0" result="BackgroundImageFix"/><feGaussianBlur in="BackgroundImageFix" stdDeviation="5"/><feComposite in2="SourceAlpha" operator="in" result="effect1_backgroundBlur_3622_41909"/><feColorMatrix in="SourceAlpha" values="0 0 0 0 0 0 0 0 0 0 0 0 0 0 0 0 0 0 127 0" result="hardAlpha"/><feOffset dx="10" dy="4"/><feGaussianBlur stdDeviation="15"/><feComposite in2="hardAlpha" operator="out"/><feColorMatrix values="0 0 0 0 0 0 0 0 0 0 0 0 0 0 0 0 0 0 0.3 0"/><feBlend in2="effect1_backgroundBlur_3622_41909" result="effect2_dropShadow_3622_41909"/><feBlend in="SourceGraphic" in2="effect2_dropShadow_3622_41909" result="shape"/></filter><filter id="amsrdce05l" x="9.5" y="94" width="132" height="132" filterUnits="userSpaceOnUse" color-interpolation-filters="sRGB"><feFlood flood-opacity="0" result="BackgroundImageFix"/><feGaussianBlur in="BackgroundImageFix" stdDeviation="5"/><feComposite in2="SourceAlpha" operator="in" result="effect1_backgroundBlur_3622_41909"/><feColorMatrix in="SourceAlpha" values="0 0 0 0 0 0 0 0 0 0 0 0 0 0 0 0 0 0 127 0" result="hardAlpha"/><feOffset dx="10" dy="4"/><feGaussianBlur stdDeviation="15"/><feComposite in2="hardAlpha" operator="out"/><feColorMatrix values="0 0 0 0 0 0 0 0 0 0 0 0 0 0 0 0 0 0 0.3 0"/><feBlend in2="effect1_backgroundBlur_3622_41909" result="effect2_dropShadow_3622_41909"/><feBlend in="SourceGraphic" in2="effect2_dropShadow_3622_41909" result="shape"/></filter><filter id="aqsrdce05l" x="530" y="14" width="132" height="132" filterUnits="userSpaceOnUse" color-interpolation-filters="sRGB"><feFlood flood-opacity="0" result="BackgroundImageFix"/><feGaussianBlur in="BackgroundImageFix" stdDeviation="5"/><feComposite in2="SourceAlpha" operator="in" result="effect1_backgroundBlur_3622_41909"/><feColorMatrix in="SourceAlpha" values="0 0 0 0 0 0 0 0 0 0 0 0 0 0 0 0 0 0 127 0" result="hardAlpha"/><feOffset dx="10" dy="4"/><feGaussianBlur stdDeviation="15"/><feComposite in2="hardAlpha" operator="out"/><feColorMatrix values="0 0 0 0 0 0 0 0 0 0 0 0 0 0 0 0 0 0 0.3 0"/><feBlend in2="effect1_backgroundBlur_3622_41909" result="effect2_dropShadow_3622_41909"/><feBlend in="SourceGraphic" in2="effect2_dropShadow_3622_41909" result="shape"/></filter><filter id="atsrdce05l" x="82.5" y="191" width="132" height="132" filterUnits="userSpaceOnUse" color-interpolation-filters="sRGB"><feFlood flood-opacity="0" result="BackgroundImageFix"/><feGaussianBlur in="BackgroundImageFix" stdDeviation="5"/><feComposite in2="SourceAlpha" operator="in" result="effect1_backgroundBlur_3622_41909"/><feColorMatrix in="SourceAlpha" values="0 0 0 0 0 0 0 0 0 0 0 0 0 0 0 0 0 0 127 0" result="hardAlpha"/><feOffset dx="10" dy="4"/><feGaussianBlur stdDeviation="15"/><feComposite in2="hardAlpha" operator="out"/><feColorMatrix values="0 0 0 0 0 0 0 0 0 0 0 0 0 0 0 0 0 0 0.3 0"/><feBlend in2="effect1_backgroundBlur_3622_41909" result="effect2_dropShadow_3622_41909"/><feBlend in="SourceGraphic" in2="effect2_dropShadow_3622_41909" result="shape"/></filter></defs></svg>