<svg width="1216" height="375" viewBox="0 0 1216 375" fill="none" xmlns="http://www.w3.org/2000/svg"><g clip-path="url(#avotejeyh)"><g opacity=".6" filter="url(#bvotejeyh)"><ellipse cx="562.21" cy="-26.4" rx="380.41" ry="199.89" transform="rotate(116.3 562.21 -26.4)" fill="url(#cvotejeyh)" fill-opacity=".3"/></g><g opacity=".6" filter="url(#dvotejeyh)"><ellipse cx="592.32" cy="244.52" rx="380.41" ry="199.89" transform="rotate(138.97 592.32 244.52)" fill="url(#evotejeyh)" fill-opacity=".3"/></g><g opacity=".6" filter="url(#fvotejeyh)"><ellipse cx="753.82" cy="210.52" rx="380.41" ry="199.89" transform="rotate(138.97 753.82 210.52)" fill="url(#gvotejeyh)" fill-opacity=".3"/></g><g opacity=".6" filter="url(#hvotejeyh)"><ellipse cx="-684.13" cy="325.81" rx="380.41" ry="199.89" transform="rotate(35.73 -684.13 325.81)" fill="url(#ivotejeyh)" fill-opacity=".2"/></g><g opacity=".6" filter="url(#jvotejeyh)"><ellipse cx="-294.79" cy="163.6" rx="380.41" ry="199.89" transform="rotate(116.3 -294.79 163.6)" fill="url(#kvotejeyh)" fill-opacity=".2"/></g><g opacity=".6" filter="url(#lvotejeyh)"><ellipse cx="214.47" cy="16.1" rx="380.41" ry="199.89" transform="rotate(116.3 214.47 16.1)" fill="url(#mvotejeyh)" fill-opacity=".3"/></g><circle cx="142.13" cy="142.13" r="142.13" transform="matrix(-1 0 0 1 262.68 46.32)" stroke="url(#nvotejeyh)" stroke-opacity=".5" stroke-width=".51"/><ellipse cx="198.9" cy="198.44" rx="198.9" ry="198.44" transform="matrix(-1 0 0 1 319.9 -9.99)" stroke="url(#ovotejeyh)" stroke-opacity=".5" stroke-width=".51"/><ellipse opacity=".7" cx="254.29" cy="253.84" rx="254.29" ry="253.84" transform="matrix(-1 0 0 1 375.3 -65.39)" stroke="url(#pvotejeyh)" stroke-opacity=".5" stroke-width=".51"/><ellipse opacity=".6" cx="310.6" cy="310.15" rx="310.6" ry="310.15" transform="matrix(-1 0 0 1 431.6 -121.7)" stroke="url(#qvotejeyh)" stroke-opacity=".5" stroke-width=".51"/><circle opacity=".5" cx="370.54" cy="370.54" r="370.54" transform="matrix(-1 0 0 1 491.54 -182.54)" stroke="url(#rvotejeyh)" stroke-opacity=".5" stroke-width=".51"/><circle opacity=".4" cx="435.93" cy="435.93" r="435.93" transform="matrix(-1 0 0 1 556.93 -247.93)" stroke="url(#svotejeyh)" stroke-opacity=".5" stroke-width=".51"/><circle opacity=".3" cx="499.51" cy="499.51" r="499.51" transform="matrix(-1 0 0 1 620.5 -311.5)" stroke="url(#tvotejeyh)" stroke-opacity=".5" stroke-width=".51"/><circle opacity=".3" cx="554" cy="554" r="554" transform="matrix(-1 0 0 1 675 -366)" stroke="url(#uvotejeyh)" stroke-opacity=".5" stroke-width=".51"/><g opacity=".6" filter="url(#vvotejeyh)"><ellipse cx="437.71" cy="28.6" rx="380.41" ry="199.89" transform="rotate(116.3 437.71 28.6)" fill="url(#wvotejeyh)"/></g><g filter="url(#xvotejeyh)"><g clip-path="url(#yvotejeyh)"><rect x="47.25" y="113" width="150" height="150" rx="28.13" fill="#000"/><path d="M100.74 184.48h19.98a3.43 3.43 0 0 1 3.45 3.39 3.4 3.4 0 0 1-3.45 3.39h-19.98m45.1-.32a3.7 3.7 0 0 0-5.24-.05 3.7 3.7 0 0 0 .05 5.25l8.75 8.74a3.7 3.7 0 0 0 5.24.05 3.7 3.7 0 0 0-.05-5.24l-8.74-8.75Zm-24.64 8.7a3.7 3.7 0 0 0-.05 5.24 3.7 3.7 0 0 0 5.24-.05l8.8-8.7a3.7 3.7 0 0 0 .06-5.24 3.7 3.7 0 0 0-5.25.05l-8.8 8.7Zm33.4-23.33a3.7 3.7 0 0 0 .04-5.24 3.7 3.7 0 0 0-5.24.05l-8.75 8.75a3.7 3.7 0 0 0-.05 5.24 3.7 3.7 0 0 0 5.25-.05l8.74-8.75Zm-24.65 8.75a3.7 3.7 0 0 0 5.24.05 3.7 3.7 0 0 0-.05-5.25l-8.74-8.74a3.7 3.7 0 0 0-5.25-.05 3.7 3.7 0 0 0 .05 5.24l8.75 8.75Zm-32.97-7.95h15.95a3.4 3.4 0 1 0 0-6.78h-19.5a3.87 3.87 0 0 0-3.92 3.86v27.62a3.87 3.87 0 0 0 3.92 3.87h19.72a3.4 3.4 0 1 0 0-6.78H96.93v-21.8h.05Z" fill="#00CE7D"/><g opacity=".3" filter="url(#zvotejeyh)"><ellipse cx="28.93" cy="65.07" rx="28.93" ry="65.07" transform="scale(-1 1) rotate(52.68 -139.41 -125.95)" fill="#01CB7D" fill-opacity=".4"/></g></g><rect x="49.13" y="114.88" width="146.25" height="146.25" rx="26.25" stroke="url(#aavotejeyh)" stroke-width="3.75"/></g><g filter="url(#abvotejeyh)"><g clip-path="url(#acvotejeyh)"><rect x="325" y="254" width="72" height="72" rx="36" fill="#16131D"/><g clip-path="url(#advotejeyh)"><path fill-rule="evenodd" clip-rule="evenodd" d="M374 294.99a16.23 16.23 0 0 1-2.2 4.3 14.75 14.75 0 0 1-2.14 2.5 4.2 4.2 0 0 1-2.75 1.18c-.7 0-1.55-.2-2.54-.6a7.7 7.7 0 0 0-2.73-.58c-.87 0-1.8.2-2.8.59-1.01.4-1.82.6-2.44.62-.94.04-1.87-.36-2.8-1.2-.6-.51-1.35-1.38-2.24-2.6a17.8 17.8 0 0 1-2.37-4.57 16.38 16.38 0 0 1-.99-5.44c0-2.01.45-3.75 1.34-5.2a7.77 7.77 0 0 1 6.61-3.8c.75 0 1.73.22 2.94.66 1.22.44 2 .66 2.34.66.25 0 1.12-.26 2.58-.78a8.77 8.77 0 0 1 3.52-.6c2.6.2 4.54 1.19 5.84 2.98-2.32 1.37-3.47 3.29-3.45 5.74a6.28 6.28 0 0 0 2.14 4.78 7.1 7.1 0 0 0 2.14 1.36ZM367.47 273l.03.6c0 1.5-.56 2.9-1.69 4.2-1.36 1.54-3 2.43-4.78 2.29a4.49 4.49 0 0 1-.03-.57 6.89 6.89 0 0 1 3.97-5.83 6.65 6.65 0 0 1 2.5-.69Z" fill="#D1D4DC"/></g></g></g><g filter="url(#aevotejeyh)"><g clip-path="url(#afvotejeyh)"><rect x="389" y="114" width="72" height="72" rx="36" fill="#16131D"/><g clip-path="url(#agvotejeyh)"><g clip-path="url(#ahvotejeyh)"><path fill-rule="evenodd" clip-rule="evenodd" d="M415.75 134.72a2.14 2.14 0 0 0-3.75 1.32c-.03.57.17 1.13.55 1.56l11.13 12.53-11.12 12.25a2.17 2.17 0 0 0 1.68 3.62 2.15 2.15 0 0 0 1.49-.7l12.42-13.7 1.31-1.43-1.29-1.46-12.42-13.99Zm21.63 3.06a2.17 2.17 0 0 0-.7-3.52 2.13 2.13 0 0 0-2.35.48l-6.47 6.55-1.52 1.53 3.04 3.05 1.52-1.53 6.48-6.56Zm-6.54 18.07-1.56-1.47-2.94 3.15 1.57 1.48 6.48 6.1c.86.82 2.22.77 3.03-.1a2.17 2.17 0 0 0-.1-3.05l-6.48-6.1Z" fill="#D1D4DC"/></g></g></g></g><g filter="url(#aivotejeyh)"><g clip-path="url(#ajvotejeyh)"><rect x="238" y="29" width="72" height="72" rx="36" fill="#16131D"/><g clip-path="url(#akvotejeyh)"><path d="M284.89 68.11c0 6.85-4.9 12.45-10.89 12.45s-10.89-5.6-10.89-12.45c0-6.84 10.89-21.78 10.89-21.78s10.89 14.94 10.89 21.78Z" fill="#D1D4DC"/></g></g></g></g><defs><linearGradient id="cvotejeyh" x1="373.73" y1="9" x2="749.44" y2="44.03" gradientUnits="userSpaceOnUse"><stop offset=".36"/></linearGradient><linearGradient id="evotejeyh" x1="403.84" y1="279.92" x2="779.54" y2="314.95" gradientUnits="userSpaceOnUse"><stop offset=".36"/></linearGradient><linearGradient id="gvotejeyh" x1="565.34" y1="245.92" x2="941.04" y2="280.95" gradientUnits="userSpaceOnUse"><stop offset=".36"/></linearGradient><linearGradient id="ivotejeyh" x1="-872.62" y1="361.21" x2="-496.91" y2="396.24" gradientUnits="userSpaceOnUse"><stop offset=".36" stop-color="#3B0EC6"/></linearGradient><linearGradient id="kvotejeyh" x1="-483.27" y1="199" x2="-107.56" y2="234.03" gradientUnits="userSpaceOnUse"><stop offset=".36" stop-color="#03CD80"/></linearGradient><linearGradient id="mvotejeyh" x1="25.98" y1="51.5" x2="401.69" y2="86.53" gradientUnits="userSpaceOnUse"><stop offset=".36" stop-color="#3B0EC6"/></linearGradient><linearGradient id="nvotejeyh" x1="142.13" y1="0" x2="142.13" y2="284.27" gradientUnits="userSpaceOnUse"><stop stop-color="#02CD80"/><stop offset="1" stop-color="#171139"/></linearGradient><linearGradient id="ovotejeyh" x1="198.9" y1="0" x2="198.9" y2="396.88" gradientUnits="userSpaceOnUse"><stop stop-color="#02CD80"/><stop offset="1" stop-color="#171139"/></linearGradient><linearGradient id="pvotejeyh" x1="254.29" y1="0" x2="254.29" y2="507.68" gradientUnits="userSpaceOnUse"><stop stop-color="#02CD80"/><stop offset="1" stop-color="#171139"/></linearGradient><linearGradient id="qvotejeyh" x1="310.6" y1="0" x2="310.6" y2="620.3" gradientUnits="userSpaceOnUse"><stop stop-color="#02CD80"/><stop offset="1" stop-color="#171139"/></linearGradient><linearGradient id="rvotejeyh" x1="370.54" y1="0" x2="370.54" y2="741.09" gradientUnits="userSpaceOnUse"><stop stop-color="#02CD80"/><stop offset="1" stop-color="#171139"/></linearGradient><linearGradient id="svotejeyh" x1="435.93" y1="0" x2="435.93" y2="871.87" gradientUnits="userSpaceOnUse"><stop stop-color="#02CD80"/><stop offset="1" stop-color="#171139"/></linearGradient><linearGradient id="tvotejeyh" x1="499.51" y1="0" x2="499.51" y2="999.02" gradientUnits="userSpaceOnUse"><stop stop-color="#02CD80"/><stop offset="1" stop-color="#171139"/></linearGradient><linearGradient id="uvotejeyh" x1="554" y1="0" x2="554" y2="1108" gradientUnits="userSpaceOnUse"><stop stop-color="#02CD80"/><stop offset="1" stop-color="#171139"/></linearGradient><linearGradient id="wvotejeyh" x1="249.23" y1="64" x2="624.94" y2="99.03" gradientUnits="userSpaceOnUse"><stop offset=".36"/></linearGradient><linearGradient id="aavotejeyh" x1="182.25" y1="114.5" x2="60.27" y2="257.44" gradientUnits="userSpaceOnUse"><stop offset="0" stop-color="#00CE7D"/><stop offset=".81" stop-color="#201751"/></linearGradient><filter id="bvotejeyh" x="-71.83" y="-766.81" width="1268.08" height="1480.82" filterUnits="userSpaceOnUse" color-interpolation-filters="sRGB"><feFlood flood-opacity="0" result="BackgroundImageFix"/><feBlend in="SourceGraphic" in2="BackgroundImageFix" result="shape"/><feGaussianBlur stdDeviation="194" result="effect1_foregroundBlur_3626_34423"/></filter><filter id="dvotejeyh" x="-111.29" y="-435.25" width="1407.22" height="1359.54" filterUnits="userSpaceOnUse" color-interpolation-filters="sRGB"><feFlood flood-opacity="0" result="BackgroundImageFix"/><feBlend in="SourceGraphic" in2="BackgroundImageFix" result="shape"/><feGaussianBlur stdDeviation="194" result="effect1_foregroundBlur_3626_34423"/></filter><filter id="fvotejeyh" x="50.21" y="-469.25" width="1407.22" height="1359.54" filterUnits="userSpaceOnUse" color-interpolation-filters="sRGB"><feFlood flood-opacity="0" result="BackgroundImageFix"/><feBlend in="SourceGraphic" in2="BackgroundImageFix" result="shape"/><feGaussianBlur stdDeviation="194" result="effect1_foregroundBlur_3626_34423"/></filter><filter id="hvotejeyh" x="-1402.35" y="-337.31" width="1436.43" height="1326.25" filterUnits="userSpaceOnUse" color-interpolation-filters="sRGB"><feFlood flood-opacity="0" result="BackgroundImageFix"/><feBlend in="SourceGraphic" in2="BackgroundImageFix" result="shape"/><feGaussianBlur stdDeviation="194" result="effect1_foregroundBlur_3626_34423"/></filter><filter id="jvotejeyh" x="-928.83" y="-576.81" width="1268.08" height="1480.82" filterUnits="userSpaceOnUse" color-interpolation-filters="sRGB"><feFlood flood-opacity="0" result="BackgroundImageFix"/><feBlend in="SourceGraphic" in2="BackgroundImageFix" result="shape"/><feGaussianBlur stdDeviation="194" result="effect1_foregroundBlur_3626_34423"/></filter><filter id="lvotejeyh" x="-419.57" y="-724.31" width="1268.08" height="1480.82" filterUnits="userSpaceOnUse" color-interpolation-filters="sRGB"><feFlood flood-opacity="0" result="BackgroundImageFix"/><feBlend in="SourceGraphic" in2="BackgroundImageFix" result="shape"/><feGaussianBlur stdDeviation="194" result="effect1_foregroundBlur_3626_34423"/></filter><filter id="vvotejeyh" x="-196.32" y="-711.81" width="1268.08" height="1480.82" filterUnits="userSpaceOnUse" color-interpolation-filters="sRGB"><feFlood flood-opacity="0" result="BackgroundImageFix"/><feBlend in="SourceGraphic" in2="BackgroundImageFix" result="shape"/><feGaussianBlur stdDeviation="194" result="effect1_foregroundBlur_3626_34423"/></filter><filter id="xvotejeyh" x="43.64" y="109.39" width="157.23" height="157.23" filterUnits="userSpaceOnUse" color-interpolation-filters="sRGB"><feFlood flood-opacity="0" result="BackgroundImageFix"/><feGaussianBlur in="BackgroundImageFix" stdDeviation="1.81"/><feComposite in2="SourceAlpha" operator="in" result="effect1_backgroundBlur_3626_34423"/><feBlend in="SourceGraphic" in2="effect1_backgroundBlur_3626_34423" result="shape"/></filter><filter id="zvotejeyh" x="114.6" y="58.06" width="149.31" height="131.36" filterUnits="userSpaceOnUse" color-interpolation-filters="sRGB"><feFlood flood-opacity="0" result="BackgroundImageFix"/><feBlend in="SourceGraphic" in2="BackgroundImageFix" result="shape"/><feGaussianBlur stdDeviation="10" result="effect1_foregroundBlur_3626_34423"/></filter><filter id="abvotejeyh" x="305" y="228" width="132" height="132" filterUnits="userSpaceOnUse" color-interpolation-filters="sRGB"><feFlood flood-opacity="0" result="BackgroundImageFix"/><feGaussianBlur in="BackgroundImageFix" stdDeviation="5"/><feComposite in2="SourceAlpha" operator="in" result="effect1_backgroundBlur_3626_34423"/><feColorMatrix in="SourceAlpha" values="0 0 0 0 0 0 0 0 0 0 0 0 0 0 0 0 0 0 127 0" result="hardAlpha"/><feOffset dx="10" dy="4"/><feGaussianBlur stdDeviation="15"/><feComposite in2="hardAlpha" operator="out"/><feColorMatrix values="0 0 0 0 0 0 0 0 0 0 0 0 0 0 0 0 0 0 0.3 0"/><feBlend in2="effect1_backgroundBlur_3626_34423" result="effect2_dropShadow_3626_34423"/><feBlend in="SourceGraphic" in2="effect2_dropShadow_3626_34423" result="shape"/></filter><filter id="aevotejeyh" x="369" y="88" width="132" height="132" filterUnits="userSpaceOnUse" color-interpolation-filters="sRGB"><feFlood flood-opacity="0" result="BackgroundImageFix"/><feGaussianBlur in="BackgroundImageFix" stdDeviation="5"/><feComposite in2="SourceAlpha" operator="in" result="effect1_backgroundBlur_3626_34423"/><feColorMatrix in="SourceAlpha" values="0 0 0 0 0 0 0 0 0 0 0 0 0 0 0 0 0 0 127 0" result="hardAlpha"/><feOffset dx="10" dy="4"/><feGaussianBlur stdDeviation="15"/><feComposite in2="hardAlpha" operator="out"/><feColorMatrix values="0 0 0 0 0 0 0 0 0 0 0 0 0 0 0 0 0 0 0.3 0"/><feBlend in2="effect1_backgroundBlur_3626_34423" result="effect2_dropShadow_3626_34423"/><feBlend in="SourceGraphic" in2="effect2_dropShadow_3626_34423" result="shape"/></filter><filter id="aivotejeyh" x="218" y="3" width="132" height="132" filterUnits="userSpaceOnUse" color-interpolation-filters="sRGB"><feFlood flood-opacity="0" result="BackgroundImageFix"/><feGaussianBlur in="BackgroundImageFix" stdDeviation="5"/><feComposite in2="SourceAlpha" operator="in" result="effect1_backgroundBlur_3626_34423"/><feColorMatrix in="SourceAlpha" values="0 0 0 0 0 0 0 0 0 0 0 0 0 0 0 0 0 0 127 0" result="hardAlpha"/><feOffset dx="10" dy="4"/><feGaussianBlur stdDeviation="15"/><feComposite in2="hardAlpha" operator="out"/><feColorMatrix values="0 0 0 0 0 0 0 0 0 0 0 0 0 0 0 0 0 0 0.3 0"/><feBlend in2="effect1_backgroundBlur_3626_34423" result="effect2_dropShadow_3626_34423"/><feBlend in="SourceGraphic" in2="effect2_dropShadow_3626_34423" result="shape"/></filter><clipPath id="avotejeyh"><path fill="#fff" transform="matrix(-1 0 0 1 1216 0)" d="M0 0h1216v375H0z"/></clipPath><clipPath id="yvotejeyh"><rect x="47.25" y="113" width="150" height="150" rx="28.13" fill="#fff"/></clipPath><clipPath id="acvotejeyh"><rect x="325" y="254" width="72" height="72" rx="36" fill="#fff"/></clipPath><clipPath id="advotejeyh"><rect x="333" y="262" width="56" height="56" rx="28" fill="#fff"/></clipPath><clipPath id="afvotejeyh"><rect x="389" y="114" width="72" height="72" rx="36" fill="#fff"/></clipPath><clipPath id="agvotejeyh"><rect x="397" y="122" width="56" height="56" rx="28" fill="#fff"/></clipPath><clipPath id="ahvotejeyh"><path fill="#fff" transform="translate(397 122)" d="M0 0h56v56H0z"/></clipPath><clipPath id="ajvotejeyh"><rect x="238" y="29" width="72" height="72" rx="36" fill="#fff"/></clipPath><clipPath id="akvotejeyh"><rect x="246" y="37" width="56" height="56" rx="28" fill="#fff"/></clipPath></defs></svg>