<svg xmlns="http://www.w3.org/2000/svg" width="132" height="60" viewBox="0 0 132 60"><path fill="#fff" d="M73.5 25.12c0-3.26.04-6.3.21-9.12l-8.65 1.64v.78l.86.11q.91.1 1.24.63c.22.39.4.95.5 1.8.12 1.64.23 5.35.18 11.2 0 5.81-.06 9.47-.17 10.88q3.62.86 7.35.96 5.08.01 7.97-2.93c1.92-1.91 2.94-4.62 2.94-7.95q0-3.96-2.21-6.59a7 7 0 0 0-5.54-2.58c-1.47 0-3 .39-4.69 1.17m.16 17.36c-.12-1.8-.23-7.21-.23-16.06q1-.3 2.04-.28 2.03-.02 3.22 2.08c.79 1.41 1.18 3.1 1.18 5.24 0 2.65-.44 4.8-1.35 6.6q-1.35 2.63-3.44 2.64-.67-.15-1.42-.22M32.61 16.56H10v1.12l1.18.11q1.36.27 1.93 1.02.6.85.68 2.7.68 9.15 0 17.02a7 7 0 0 1-.68 2.7q-.59.85-1.92 1.02L10 42.4v1.13h14.59V42.4l-1.53-.11a2.8 2.8 0 0 1-1.92-1.02 5 5 0 0 1-.68-2.7q-.27-3.39-.28-7.72l3.05.07q2.47.06 3.34 3.77h1.13v-9.18h-1.13c-.57 2.42-1.65 3.67-3.34 3.72l-3.05.06q0-7.6.28-10.88h4.47c3.16 0 5.31 2.03 6.55 6.09l1.36-.4zM29.96 33.9q.02 4.4 2.48 7.27C34.1 43.09 36.52 44 39.57 44s5.54-.97 7.35-2.94q2.68-2.86 2.66-7.27-.02-4.39-2.49-7.26c-1.64-1.92-4.08-2.82-7.13-2.82s-5.54.96-7.35 2.93c-1.8 1.92-2.65 4.34-2.65 7.27m12.6-6.42c.68 1.63.97 3.77.97 6.36 0 5.97-1.25 8.9-3.68 8.9q-1.86 0-2.88-2.53c-.68-1.7-.96-3.83-.96-6.37 0-5.92 1.25-8.84 3.67-8.84q1.87-.08 2.89 2.47zm47.78 13.69A9.6 9.6 0 0 0 97.41 44q2.6.01 4.63-1.08a8.5 8.5 0 0 0 3.16-2.53l-.56-.68a6.8 6.8 0 0 1-4.3 1.41q-3.4.02-5.2-2.25c-1.24-1.53-1.8-3.44-1.7-5.92h12.1q.02-4.04-2.09-6.65-2.11-2.53-5.93-2.53-4.74.01-7.35 2.99a10.5 10.5 0 0 0-2.6 7.27q-.02 4.37 2.77 7.14zm4.18-14.15c.63-1.35 1.41-2.02 2.49-2.02q2.55-.02 2.54 6.48l-5.99.1c.05-1.68.34-3.2.96-4.55m26.23-2.25a14 14 0 0 0-5.76-1.07q-3.55.01-5.66 1.8a5.6 5.6 0 0 0-2.15 4.4q.02 2.28 1.3 3.55c.86.85 2.21 1.57 3.96 2.2 1.59.55 2.72 1.12 3.28 1.63.57.56.9 1.18.9 2.03 0 .79-.27 1.52-.9 2.08q-.84.92-2.37.9c-2.5 0-4.35-1.8-5.66-5.4l-.95.28.22 5.63q3.06 1.18 6.78 1.18 3.88.02 6.05-1.74a5.7 5.7 0 0 0 2.21-4.8 5 5 0 0 0-1.08-3.32q-1.09-1.25-3.61-2.25-2.82-1.02-3.85-1.86a2.6 2.6 0 0 1-1.02-2.09c-.03-.76.23-1.5.74-2.08a2.4 2.4 0 0 1 1.92-.78q3.39.01 4.92 4.84l.96-.29zm-54.39-.5a5.1 5.1 0 0 0-5.6.62 7.6 7.6 0 0 0-2.48 3.32l.06-4.51-8.6 1.69v.79l.85.06q1.63.17 1.81 2.48.51 5.23 0 11.15c-.11 1.52-.73 2.3-1.8 2.48l-.86.11v1.07h11.99v-1.07l-1.52-.11q-1.63-.18-1.81-2.48-.53-5.19-.12-10.37.52-.84 2.2-1.01a6.4 6.4 0 0 1 3.8 1.01z"/></svg>