<svg xmlns="http://www.w3.org/2000/svg" width="230" height="100" viewBox="0 0 230 100"><path d="M33 37.56h18.92v5.75H39.57v4h11.17v5.46H39.57v8.42H33V37.56zm50.68 0h11.17c3.6 0 6.13.96 7.72 2.56 1.37 1.33 2.08 3.19 2.08 5.49v.07c0 3.6-1.93 6.01-4.86 7.27l5.64 8.24h-7.57l-4.75-7.16h-2.9v7.16h-6.56V37.56h.03zM94.56 48.9c2.22 0 3.52-1.08 3.52-2.82v-.07c0-1.86-1.34-2.82-3.56-2.82h-4.3v5.67h4.34v.04zm13.43-11.34h19.03v5.56h-12.54v3.6h11.35v5.16h-11.35v3.75h12.69v5.56h-19.18V37.56zm29.46 11.61l-7.8-11.61h7.54l4.2 6.64 4.22-6.64h7.35L145.2 49.1l8.13 12.1h-7.53l-4.53-7.13-4.56 7.12h-7.39l8.13-12.02zm22.3.82a4.92 4.92 0 0 1 5.04-4.98c1.93 0 3.23.86 4.05 2.12l-2.27 1.67c-.44-.63-.96-1-1.74-1-1.08 0-1.85.92-1.85 2.08v.03c0 1.23.78 2.15 1.89 2.15.78 0 1.3-.37 1.82-.96l2.22 1.6a4.66 4.66 0 0 1-4.19 2.15 4.81 4.81 0 0 1-4.97-4.86zm10.02 0a5.04 5.04 0 0 1 5.23-4.98c3 0 5.2 2.23 5.2 4.9v.04c0 2.67-2.2 4.93-5.24 4.93-3 0-5.2-2.22-5.2-4.9zm7.2 0c0-1.2-.86-2.16-2.01-2.16-1.19 0-1.97.97-1.97 2.08v.04c0 1.15.86 2.11 2 2.11 1.23 0 1.97-.96 1.97-2.07zm4.78-4.79h3.3v1.3a3.45 3.45 0 0 1 2.82-1.49c1.26 0 2.23.56 2.71 1.53a4 4 0 0 1 3.16-1.53c2 0 3.22 1.27 3.22 3.46v6.2h-3.3V49.5c0-1.03-.52-1.55-1.3-1.55S191 48.5 191 49.5v5.12h-3.27V49.5c0-1.03-.51-1.55-1.3-1.55-.77 0-1.33.55-1.33 1.55v5.12h-3.3V45.2h-.04z" fill="#fff"/><path d="M53.78 49.47c0-7.57 4.75-12.47 12.1-12.47C73.4 37 78 41.75 78 49.32c0 7.6-4.79 12.47-12.14 12.47-7.5.03-12.1-4.68-12.1-12.32zm17.25-.08c0-5-1.48-8.98-5.27-8.98-3.82.04-5 4.01-5 8.98 0 4.97 1.48 8.98 5.26 8.98 3.82 0 5.01-3.97 5.01-8.98z" fill="#0AB45B"/><path d="M80.94 50.77H66.99l-.78 2.15h13.95l.78-2.15zm.59-4.31H67.58l-.74 2.15h13.95l.74-2.15z" fill="#0AB45B"/><path d="M155.15 52.88c0-.48.18-.85.52-1.22.33-.34.74-.52 1.22-.52s.9.18 1.23.52c.33.33.51.74.51 1.22s-.18.9-.51 1.22c-.34.34-.75.49-1.23.49s-.89-.15-1.22-.49c-.38-.3-.52-.7-.52-1.22z" fill="#fff"/></svg>