<svg xmlns="http://www.w3.org/2000/svg" width="200" height="80" viewBox="0 0 200 80"><path fill="#fff" d="M24 29.5h17.54v5.1H30.09v3.55h10.36V43H30.09v7.47H24zm57.34 0c3.34 0 5.68.85 7.16 2.27a6.4 6.4 0 0 1 1.92 4.87v.06c0 3.2-1.79 5.34-4.5 6.45l5.23 7.32h-7.02l-4.4-6.36h-2.7v6.36h-6.07V29.5zm-.27 10.06c2.06 0 3.26-.96 3.26-2.5V37c0-1.65-1.24-2.5-3.3-2.5h-3.98v5.03h4.02zM93.52 29.5h17.64v4.93H99.54v3.2h10.52v4.58H99.54v3.32h11.76v4.94H93.52zm27.31 10.3-7.23-10.3h6.99l3.9 5.89 3.9-5.9h6.82l-7.2 10.25 7.54 10.74h-6.98l-4.2-6.33-4.23 6.32h-6.85zm20.67.73a4.2 4.2 0 0 1 1.36-3.16 4.6 4.6 0 0 1 3.32-1.26c1.79 0 3 .76 3.75 1.88l-2.1 1.48c-.41-.56-.9-.89-1.62-.89-1 0-1.71.82-1.71 1.85v.03c0 1.09.72 1.9 1.75 1.9.72 0 1.2-.32 1.69-.85l2.06 1.42a4 4 0 0 1-1.68 1.46q-1.04.52-2.2.45a4.6 4.6 0 0 1-3.27-1.21 4.3 4.3 0 0 1-1.35-3.1m9.3 0a4.3 4.3 0 0 1 1.44-3.2 4.7 4.7 0 0 1 3.4-1.22c2.78 0 4.82 1.98 4.82 4.35v.03c0 2.37-2.04 4.38-4.86 4.38-2.78 0-4.82-1.97-4.82-4.35zm6.67 0c0-1.07-.8-1.92-1.87-1.92a1.8 1.8 0 0 0-1.82 1.85v.03c0 1.02.8 1.88 1.85 1.88 1.14 0 1.83-.86 1.83-1.84m4.43-4.25h3.06v1.15q.45-.61 1.14-.97.69-.35 1.47-.35c1.17 0 2.07.5 2.52 1.36A3.7 3.7 0 0 1 173 36.1c1.86 0 2.99 1.13 2.99 3.07v5.5h-3.06V40.1c0-.91-.48-1.37-1.2-1.37-.73 0-1.27.49-1.27 1.37v4.55h-3.03V40.1c0-.91-.47-1.37-1.2-1.37-.72 0-1.24.49-1.24 1.37v4.55h-3.05v-8.36z"/><path fill="#0AB45B" d="M43.26 40.07c0-6.72 4.4-11.07 11.22-11.07 6.97 0 11.24 4.22 11.24 10.93 0 6.75-4.44 11.07-11.26 11.07-6.95.03-11.21-4.15-11.21-10.93zm16-.07c0-4.44-1.38-7.97-4.89-7.97-3.54.03-4.64 3.55-4.64 7.97 0 4.4 1.38 7.96 4.88 7.96 3.54 0 4.65-3.52 4.65-7.96"/><path fill="#0AB45B" d="M68.44 41.22H55.51l-.72 1.9h12.93zM69 37.4H56.06l-.69 1.9H68.3z"/><path fill="#fff" d="M137.24 43.1c0-.43.17-.76.48-1.09q.46-.45 1.13-.46.68 0 1.14.46.47.45.48 1.08 0 .65-.48 1.09-.47.44-1.14.43-.66.01-1.13-.43c-.35-.27-.48-.63-.48-1.09"/></svg>