<svg xmlns="http://www.w3.org/2000/svg" width="200" height="60" viewBox="0 0 200 60"><path fill="#fff" d="M32 19.47h15.7v4.88H37.44v3.38h9.26v4.63h-9.26v7.13H32zm51.3 0c2.99 0 5.09.82 6.4 2.17a6.3 6.3 0 0 1 1.73 4.65v.06c0 3.05-1.6 5.1-4.03 6.16l4.68 6.98H85.8l-3.94-6.06h-2.4v6.06H74V19.47zm-.24 9.61c1.84 0 2.92-.91 2.92-2.39v-.06c0-1.57-1.11-2.39-2.95-2.39h-3.57v4.8h3.6zm11.14-9.6H110v4.7H99.6v3.05h9.4v4.38h-9.41v3.17h10.52v4.71h-15.9zm24.44 9.83-6.47-9.84h6.25l3.49 5.63 3.5-5.63h6.1l-6.44 9.78 6.74 10.25h-6.25l-3.75-6.04-3.79 6.03h-6.12zm18.5.7a4.3 4.3 0 0 1 1.2-3.02 4 4 0 0 1 2.98-1.2c1.6 0 2.68.72 3.36 1.8l-1.89 1.4c-.36-.53-.8-.84-1.44-.84-.9 0-1.53.78-1.53 1.76v.03c0 1.04.64 1.82 1.56 1.82.65 0 1.08-.32 1.51-.82l1.84 1.36a3.9 3.9 0 0 1-3.47 1.82 4 4 0 0 1-2.92-1.16 4 4 0 0 1-1.2-2.96m8.3 0a4.3 4.3 0 0 1 1.3-3.05 4.2 4.2 0 0 1 3.04-1.17 4.2 4.2 0 0 1 4.32 4.15v.03a4.2 4.2 0 0 1-4.35 4.18 4.2 4.2 0 0 1-4.31-4.15m5.98 0c0-1.02-.71-1.84-1.67-1.84-.99 0-1.63.83-1.63 1.77v.03c0 .97.71 1.79 1.66 1.79 1.02 0 1.63-.82 1.63-1.76m3.96-4.06h2.74v1.1a2.9 2.9 0 0 1 2.34-1.26c1.04 0 1.85.47 2.25 1.3a3.3 3.3 0 0 1 2.62-1.3c1.66 0 2.67 1.07 2.67 2.93v5.25h-2.74v-4.38c0-.87-.43-1.31-1.08-1.31-.64 0-1.12.46-1.12 1.3v4.35h-2.72v-4.34c0-.87-.42-1.31-1.07-1.31-.64 0-1.1.46-1.1 1.3v4.35h-2.74v-7.98z"/><path fill="#0AB45B" d="M49.24 29.56c0-6.4 3.94-10.56 10.03-10.56 6.24 0 10.06 4.02 10.06 10.44S65.35 40 59.26 40c-6.23.03-10.04-3.96-10.04-10.44zm14.3-.06c0-4.24-1.22-7.61-4.37-7.61-3.17.03-4.14 3.4-4.14 7.6 0 4.22 1.22 7.61 4.36 7.61 3.17 0 4.15-3.36 4.15-7.6"/><path fill="#0AB45B" d="M71.76 30.66H60.2l-.64 1.83h11.57zm.5-3.65H60.67l-.61 1.82h11.57z"/><path fill="#fff" d="M133.32 32.45q0-.58.43-1.03.42-.44 1.01-.44t1.02.44q.43.43.43 1.03t-.43 1.04q-.42.41-1.02.41t-1-.41q-.46-.38-.44-1.04"/></svg>