<svg xmlns="http://www.w3.org/2000/svg" width="200" height="80" viewBox="0 0 200 80"><path fill="#fff" d="M160.8 21v37H176v-6.17h-8.94v-9.69h6.26v-6.16h-6.26v-8.81H176V21zm-13.41 0v20.17L141.1 21h-6.23v37h6.26V39.87L146.74 58h6.9V21zm-24.14 0v28.42c0 1.32-1.3 2.4-2.69 2.4-1.37 0-2.68-1.08-2.68-2.4V21h-6.26v28.42a8.6 8.6 0 0 0 2.67 6.11 8.8 8.8 0 0 0 6.27 2.47c4.94 0 8.95-3.84 8.95-8.58V21zm-17 0H88.39v6.17h5.8V58h6.27V27.17h5.8zM84.8 58h-6.36L73.9 40.42s4.64-.7 4.64-4.95V29.7c0-1.34-1.8-2.52-3.11-2.52h-2.25V58h-6.26V21h8.51c2.24.03 4.39.91 6 2.46a8.6 8.6 0 0 1 2.63 5.85v6.05c0 3.66-1.29 6.28-3.44 7.96zM42.78 29.46v20.08c0 4.67 4 8.46 8.94 8.46s8.94-3.79 8.94-8.46V29.46c0-4.67-4-8.46-8.94-8.46s-8.94 3.79-8.94 8.46m6.26 20.08V29.46c0-1.3 1.3-2.3 2.68-2.3 1.37 0 2.68 1.02 2.68 2.3v20.08c0 3.04-5.36 3.04-5.36 0M24 21v37h6.26V41.26h6.26v-5.28h-6.26v-8.81h8.94V21z"/></svg>