<svg xmlns="http://www.w3.org/2000/svg" width="200" height="60" viewBox="0 0 200 60"><path fill="#fff" d="M154.4 13v33H168v-5.5h-8v-8.64h5.6v-5.5H160V18.5h8V13zm-12 0v18l-5.62-18h-5.58v33h5.6V29.83L141.82 46H148V13zm-21.6 0v25.35c0 1.18-1.17 2.13-2.4 2.13s-2.4-.95-2.4-2.13V13h-5.6v25.35a7.6 7.6 0 0 0 2.39 5.45 8 8 0 0 0 5.61 2.2c4.42 0 8-3.43 8-7.65V13zm-15.2 0h-16v5.5h5.2V46h5.6V18.5h5.2zM86.4 46h-5.69l-4.06-15.68s4.15-.62 4.15-4.41v-5.16c0-1.2-1.6-2.25-2.78-2.25H76V46h-5.6V13h7.62c2 .03 3.92.81 5.36 2.2a7.6 7.6 0 0 1 2.36 5.2v5.4c0 3.27-1.16 5.6-3.08 7.11zM48.8 20.54v17.92c0 4.16 3.58 7.54 8 7.54s8-3.38 8-7.54V20.54c0-4.16-3.58-7.54-8-7.54s-8 3.38-8 7.54m5.6 17.92V20.54c0-1.16 1.17-2.04 2.4-2.04s2.4.9 2.4 2.04v17.92c0 2.7-4.8 2.7-4.8 0M32 13v33h5.6V31.07h5.6v-4.71h-5.6V18.5h8V13z"/></svg>