<svg xmlns="http://www.w3.org/2000/svg" width="230" height="100" viewBox="0 0 230 100"><path d="M53.75 72.6a22.43 22.43 0 0 1-13.87-6.5c-1.2-1.19-2.38-2.65-2.36-2.88.03-.18 16.98-19.62 17.11-19.62v15.78h21.4c.1.1-.89 2.02-1.67 3.2A22.33 22.33 0 0 1 53.75 72.6zm30.1-12.66l-.02-9.76c-.02-10.97-.02-10.12.56-11.4a4.98 4.98 0 0 1 2.36-2.53c.57-.28.83-.4 1.92-.45h18.47v5.6l-13.47.07a3.72 3.72 0 0 0-1.67.3c-.43.19-.66.4-.87.8-.07.13-.1.24-.12.43v1.94h16.13v5.9L91 50.9v9.03h-7.17zm77.98 0c-.02-.06-.03-4.2-.02-9.42l.02-9.48.21-.77c.62-2.26 1.9-3.81 3.66-4.42l.5-.05h24.33l.55.05c2.01.63 3.52 2.8 3.85 5.53.06.52.08 3.3.06 9.76l-.02 8.8h-6.85c-.02-5.44.03-10.87 0-16.3l-.25-.43a3.56 3.56 0 0 0-2.73-1.84c-.33-.04-1.05-.02-1.71-.02h-1.4v18.59c-2.26-.02-4.75.01-7 0V41.35h-1.87c-1.47 0-1.65 0-2.1.16-.94.33-1.57.97-2.01 1.75l-.21.38c-.03 5.43.02 10.86 0 16.3h-7.01zm-53.68 0c2.89-4.33 5.12-7.6 8.26-12.24l-8.24-11.9h7.28l5.8 8.16 5.76-8.16h6.94l-8.03 11.94 8.25 12.2h-7.14l-5.84-8.53-5.97 8.53h-7.08zm30.23 0a4.93 4.93 0 0 1-3.8-3.75c-.17-.83-.16-15.78.01-16.62a4.96 4.96 0 0 1 3.25-3.77h18.26a4.88 4.88 0 0 1 3.28 2.63c.39.82.44 1.18.48 3.18.03 1.7.02 1.79-.1 1.9h-5.92c0-.24-.39-.96-.75-1.3-.35-.33-.48-.53-1.16-.6h-9l-.36.14c-.57.28-.95.66-1.23 1.22l-.25.51v9.03l.2.43a2.6 2.6 0 0 0 1.2 1.28l.44.2h9.18l.36-.17a2.64 2.64 0 0 0 1.42-2.04c.02-.22.09-.4.16-.46h5.72c.11.11.12.35.09 2.21-.04 2.3-.07 2.5-.56 3.49a5.16 5.16 0 0 1-2.98 2.49h-17.94zM57 56.83V41.9H35a22.46 22.46 0 0 1 17.04-13.6 22.24 22.24 0 0 1 22.2 9.7L57 56.88v-.06z" fill="#427CD9"/></svg>