<svg xmlns="http://www.w3.org/2000/svg" width="200" height="80" viewBox="0 0 200 80"><path fill="#427CD9" d="M41.81 60.92a21.4 21.4 0 0 1-13.17-6.1c-1.14-1.13-2.27-2.5-2.25-2.72.03-.16 16.14-18.44 16.26-18.44V48.5h20.33c.1.09-.85 1.9-1.59 3a21 21 0 0 1-8.47 7.39 21.4 21.4 0 0 1-11.1 2.03m28.6-11.9-.02-9.17c-.02-10.31-.02-9.52.53-10.72a4.7 4.7 0 0 1 2.24-2.38c.54-.26.8-.37 1.83-.42h17.54v5.26l-12.8.07a4 4 0 0 0-1.58.28c-.4.18-.63.38-.83.75a1 1 0 0 0-.11.4v1.83h15.32v5.55l-15.33.05v8.5H70.4zm74.08 0c-.02-.05-.03-3.95-.02-8.85l.02-8.91.2-.73c.59-2.12 1.8-3.58 3.48-4.15l.47-.05h23.12l.52.05c1.9.59 3.34 2.63 3.66 5.2.05.48.07 3.1.05 9.17l-.02 8.27h-6.5c-.02-5.11.03-10.22 0-15.32l-.24-.4a3.4 3.4 0 0 0-2.6-1.73c-.3-.04-1-.02-1.62-.02h-1.33v17.47c-2.15-.02-4.51.01-6.65 0V31.55h-1.78c-1.4 0-1.56 0-2 .15-.88.3-1.48.91-1.9 1.64l-.2.36c-.03 5.1.02 10.2 0 15.32zm-51 0c2.75-4.07 4.87-7.14 7.85-11.5l-7.83-11.19h6.92l5.5 7.67 5.48-7.67h6.6l-7.64 11.22 7.84 11.47h-6.78L105.88 41l-5.67 8.02zm28.72 0a4.7 4.7 0 0 1-3.6-3.52c-.17-.78-.16-14.84 0-15.63a4.6 4.6 0 0 1 3.09-3.54h17.35a4.7 4.7 0 0 1 3.11 2.47c.37.77.42 1.11.46 3 .03 1.59.02 1.67-.1 1.78h-5.62c0-.23-.37-.9-.71-1.22s-.46-.5-1.1-.57h-8.56l-.34.13c-.54.27-.9.62-1.16 1.15l-.24.48v8.49l.19.4c.22.52.63.95 1.14 1.2l.41.2h8.73l.34-.17a2.5 2.5 0 0 0 1.35-1.91q.04-.33.15-.44h5.43c.1.1.12.33.09 2.08-.04 2.16-.07 2.35-.53 3.28a5 5 0 0 1-2.83 2.34zM44.9 46.1V32.06H24a21 21 0 0 1 6.42-8.46 21.3 21.3 0 0 1 21.68-2.85 21 21 0 0 1 9.18 7.65L44.9 46.15v-.06"/></svg>