<svg xmlns="http://www.w3.org/2000/svg" width="200" height="80" viewBox="0 0 200 80"><path fill="#F1881D" d="M170.3 26.53v31.43h-5.73V26.53h-5.73v-4.49H176v4.49zm-31.23 31.43V22.04h17.15v4.49h-11.43V37h7.16v4.5h-7.15l-.01 11.99h11.43v4.45h-17.15zm-19.96 0V22.04h17.14v4.49h-11.43V37h7.15v4.5h-7.15v12h11.43v4.45H119.1zm-9.4-35.92q6.33 0 6.33 6.16v8.85q0 4.7-3.28 5.95l3.86 14.96h-5.26l-3.62-14.5h-3.12v14.5h-5.73V22.04h-.02zm-1.68 17.3c1.66 0 2.3-.83 2.3-2.57v-7.85c0-1.7-.63-2.4-2.28-2.4h-3.46v12.83zm-17.27-12.8v31.43h-5.73V26.53h-5.7v-4.49h17.14v4.49h-5.72zM71.91 31l.03-2.45c.01-1.45-.75-2.03-2.4-2.05h-.86q-2.4-.03-2.4 2.12l-.04 5.71c0 .67.09 1.26.43 1.48q.46.36 1.5.92l5.33 2.5q1.75.85 2.5 1.35.72.47 1.12 1.17.4.66.38 2.59L77.45 52q-.07 6.05-6.87 5.99l-3.46-.04q-6.76-.06-6.7-6.69V48.9l5.66.06.02 2.46c-.02 1.4.8 2.05 2.47 2.08h.99c1.49 0 2.18-.56 2.2-1.96l.05-6.12c0-.67-.1-1.1-.4-1.32q-.74-.52-1.53-.92l-5.33-2.65a18 18 0 0 1-2.53-1.37 3 3 0 0 1-1.13-1.43 6 6 0 0 1-.34-2.29l.06-7.35q.04-6.15 6.79-6.09l3.52.03q6.76.06 6.72 6.23l-.01 2.81z"/><path fill="#fff" d="M58.42 57.62h-5.17l-3-13.55h-.1l-3.6 13.55H41.6l5.05-18.01-5.06-17.6h5.21l3.34 13.13h.12L53.59 22h4.93l-4.75 17.61zM36.68 36.85v4.53h-7.04v16.24H24V22h14.67l1.27 4.43h-10.3v10.42z"/></svg>