<svg xmlns="http://www.w3.org/2000/svg" width="620" height="468" viewBox="0 0 620 468"><path d="M0 0h620v468H0z"/><g fill="#2962FF" filter="url(#aybgasfod)"><path d="M440 431h-8v-78h8zM429 405h-8v-70h8zM451 383h-8v-49h8zM472 375h-8v-50h8zM462 372h-8v-60h8zM483 372h-8v-58h8zM419 360h-8v-64h8zM144 355h-8v-56h8zM493 341h-8v-49h8zM504 333h-8v-86h8zM134 327h-8v-71h8zM282 326h-8v-83h8zM335 325h-8v-44h8zM156 323h-8v-43h8zM346 321h-8v-47h8zM388 321h-8v-44h8zM324 319h-8v-60h8zM398 318h-8v-54h8zM409 316h-8v-51h8zM577 304h-8v-64h8zM314 303h-8v-93h8zM588 298h-8v-44h8zM377 294h-8v-76h8zM198 286h-8v-59h8zM514 286h-8v-58h8zM187 283h-8v-91h8zM356 280h-8v-57h8zM166 279h-8v-26h8zM123 274h-8v-37h8zM92 273h-8v-37h8zM567 273h-8v-45h8zM71 265h-8v-69h8zM113 264h-8v-43h8zM366 264h-8v-46h8zM103 260h-8v-43h8zM50 259h-8V157h8zM303 259h-8v-52h8zM61 255h-8v-48h8zM82 255h-8v-57h8zM535 255h-8v-41h8zM293 251h-8v-44h8zM525 248h-8v-31h8zM557 245h-8v-67h8zM176 242h-8v-58h8zM208 238h-8v-37h8zM546 229h-8v-59h8zM219 222h-8v-97h8zM272 187h-8V55h8zM39 178h-8V81h8zM229 129h-8V73h8zM240 81h-8V51h8zM261 78h-8V36h8zM251 67h-8V37h8z"/></g><defs><filter id="aybgasfod" width="645" height="483" x="-13" y="-8" color-interpolation-filters="sRGB" filterUnits="userSpaceOnUse"><feFlood result="BackgroundImageFix"/><feColorMatrix in="SourceAlpha" result="hardAlpha"/><feGaussianBlur stdDeviation="22"/><feColorMatrix values="0 0 0 0 0.160784 0 0 0 0 0.384314 0 0 0 0 1 0 0 0 0.6 0"/><feBlend in="SourceGraphic"/></filter></defs></svg>