<svg xmlns="http://www.w3.org/2000/svg" width="620" height="468" fill="none" viewBox="0 0 620 468"><path fill="#000" d="M0 0h620v468H0z"/><path fill="#00BCD4" d="M27 37.5 42 19l16.5 30.5 15 8.5L88 99l15.5 78.5 16 25L134 233l16-33 15 90 16 6 15 22 16-10 15.5-61.5 15 16.5 15.5 2 15-66 15.5 44.5L304 261l16.5-9.5 15-109.5 16 4.5L366 169l16-3 15.5 7 15 37.5 15.5 20 15.5-6.5 15.5-44 15 9 15.5-24 14.5-19 16.5-8.5 15.62 10.74 1.58-4.49L551.5 89 567 99.5l15-23 10-49V45l-10 44-15 22.5-15.5-7-13.8 39.25-1.2 4.75-.38-.26-.62 1.76-15 24-14.5-1-16.5-6-15.5 49-15-7.5-15.5 17.5-15.5 28-16.5-6-14 16.5L381 167l-15 35-14.5-14-16-36.5-15 133L304 281l-15.5 3.5-15.5-39-15.5 63-15-41-15.5 32-15 18.5-16 2-15 12.5-16 40-14.5-76.5-16.5-42.5-15.5 6.5-14-50.5L88 222 72.5 59.5 56.5 82 42 58l-15-6z" opacity=".2"/><g filter="url(#a1v2i3kzw)"><path stroke="#089981" stroke-width="2" d="M28.5 38 42 19l16.5 30.5 15 8.5L88 99l15.5 78.5 16 25L134 233l16-33 15 90 16 6 15 22 16-10 15.5-61.5 15 16.5 15.5 2 15-66 15.5 44.5L304 261l16.5-9.5 15-109.5 16 4.5L366 169l16-3 15.5 7 15 37.5 15.5 20 15.5-6.5 15.5-44 15 9 15.5-24 14.5-19 16.5-8.5 16 11 15-59.5L567 99.5l15-23 10-49"/></g><g filter="url(#b1v2i3kzw)"><path stroke="#00BCD4" stroke-width="2" d="M28.5 38 42 19l16.5 30.5 15 8.5L88 99l15.5 78.5 16 25L134 233l16-33 15 90 16 6 15 22 16-10 15.5-61.5 15 16.5 15.5 2 15-66 15.5 44.5L304 261l16.5-9.5 15-109.5 16 4.5L366 169l16-3 15.5 7 15 37.5 15.5 20 15.5-6.5 15.5-44 15 9 15.5-24 14.5-19 16.5-8.5 16 11 15-59.5L567 99.5l15-23 10-49"/></g><path fill="#E91E63" d="m582 89 10-44v87.5L582 194l-15-77-16.5 41.5-15 31.5-9.5 16-5.5 11-15.5-31.5-15 46.5-16-3.5-8.5 37L459 295l-15.5-37-15.5 10.5-16.5 9.5-14 24-16.5-89-15 11-14.5-9.5-10 48-6 35-15 6.5-16.5 20-15.5-18-15.5-46.5-15.5 60-15 7L227 318l-15 131.5-16-98-15 32-15.43-12.43-.57 1.43-.42-2.23L163 369l-13-41.5-16-67.5-15.5 4.5-14-40.5-16.5 6L72.5 92.5l-16 18.5L42 70l-15 79V52l15 6 14.5 24 16-22.5L88 222l16.5-12.5 14 50.5 15.5-6.5 16.5 42.5 14.08 74.27 1 .8L181 332.5l15-12.5 16-2 15-18.5 15.5-32 15 41 15.5-63 15.5 39L304 281l16.5 3.5 15-133 16 36.5 14.5 14 15-35 16.5 97.5 14-16.5 16.5 6 15.5-28 15.5-17.5 15 7.5 15.5-49 16.5 6 14.5 1 15-24 16-45.5 15.5 7z" opacity=".2"/><g filter="url(#c1v2i3kzw)"><path stroke="#F23645" stroke-width="2" d="M592 132.5 582 194l-15-77-16.5 41.5-15 31.5-9.5 16-5.5 11-15.5-31.5-15 46.5-16-3.5-8.5 37L459 295l-15.5-37-15.5 10.5-16.5 9.5-14 24-16.5-89-15 11-14.5-9.5-10 48-6 35-15 6.5-16.5 20-15.5-18-15.5-46.5-15.5 60-15 7L227 318l-15 131.5-16-98-15 32-18-14.5-13-41.5-16-67.5-15.5 4.5-14-40.5-16.5 6L72.5 92.5l-16 18.5L42 70l-15 79"/></g><g filter="url(#d1v2i3kzw)"><path stroke="#E91E63" stroke-width="2" d="M592 132.5 582 194l-15-77-16.5 41.5-15 31.5-9.5 16-5.5 11-15.5-31.5-15 46.5-16-3.5-8.5 37L459 295l-15.5-37-15.5 10.5-16.5 9.5-14 24-16.5-89-15 11-14.5-9.5-10 48-6 35-15 6.5-16.5 20-15.5-18-15.5-46.5-15.5 60-15 7L227 318l-15 131.5-16-98-15 32-18-14.5-13-41.5-16-67.5-15.5 4.5-14-40.5-16.5 6L72.5 92.5l-16 18.5L42 70l-15 79"/></g><path stroke="#2962FF" stroke-width="2" d="m592 45-10 44-15 22.5-15.5-7-16 45.5-15 24-14.5-1-16.5-6-15.5 49-15-7.5-15.5 17.5-15.5 28-16.5-6-14 16.5L381 167l-15 35-14.5-14-16-36.5-15 133L304 281l-15.5 3.5-15.5-39-15.5 63-15-41-15.5 32-15 18.5-16 2-15 12.5-16 40-14.5-76.5-16.5-42.5-15.5 6.5-14-50.5L88 222 72.5 59.5 56.5 82 42 58l-15-6"/><path fill="url(#e1v2i3kzw)" d="M0 0h468v120H0z" transform="matrix(0 -1 -1 0 120 468)"/><path fill="url(#f1v2i3kzw)" d="M500 468h468v120H500z" transform="rotate(-90 500 468)"/><defs><filter id="a1v2i3kzw" width="637.29" height="374.25" x="-8.31" y="-18.89" color-interpolation-filters="sRGB" filterUnits="userSpaceOnUse"><feFlood flood-opacity="0" result="BackgroundImageFix"/><feColorMatrix in="SourceAlpha" result="hardAlpha"/><feGaussianBlur stdDeviation="18"/><feColorMatrix values="0 0 0 0 0 0 0 0 0 0.737255 0 0 0 0 0.831373 0 0 0 1 0"/></filter><filter id="b1v2i3kzw" width="637.29" height="374.25" x="-8.31" y="-18.89" color-interpolation-filters="sRGB" filterUnits="userSpaceOnUse"><feFlood flood-opacity="0" result="BackgroundImageFix"/><feColorMatrix in="SourceAlpha" result="hardAlpha"/><feGaussianBlur stdDeviation="18"/><feColorMatrix values="0 0 0 0 0 0 0 0 0 0.737255 0 0 0 0 0.831373 0 0 0 1 0"/><feBlend in="SourceGraphic"/></filter><filter id="c1v2i3kzw" width="638.97" height="455.49" x="-9.98" y="30.18" color-interpolation-filters="sRGB" filterUnits="userSpaceOnUse"><feFlood flood-opacity="0" result="BackgroundImageFix"/><feColorMatrix in="SourceAlpha" result="hardAlpha"/><feGaussianBlur stdDeviation="18"/><feColorMatrix values="0 0 0 0 0.95 0 0 0 0 0.210246 0 0 0 0 0.271892 0 0 0 1 0"/></filter><filter id="d1v2i3kzw" width="638.97" height="455.49" x="-9.98" y="30.18" color-interpolation-filters="sRGB" filterUnits="userSpaceOnUse"><feFlood flood-opacity="0" result="BackgroundImageFix"/><feColorMatrix in="SourceAlpha" result="hardAlpha"/><feGaussianBlur stdDeviation="18"/><feColorMatrix values="0 0 0 0 0.95 0 0 0 0 0.210246 0 0 0 0 0.271892 0 0 0 1 0"/><feBlend in="SourceGraphic"/></filter><linearGradient id="e1v2i3kzw" x1="234" x2="234" y1="0" y2="120" gradientUnits="userSpaceOnUse"><stop stop-opacity="0"/><stop offset="1"/></linearGradient><linearGradient id="f1v2i3kzw" x1="734" x2="734" y1="468" y2="588" gradientUnits="userSpaceOnUse"><stop stop-opacity="0"/><stop offset="1"/></linearGradient></defs></svg>