<svg xmlns="http://www.w3.org/2000/svg" width="200" height="60" viewBox="0 0 200 60"><path fill="#fff" d="M59.9 21.12c.14-6.77-3.71-12.68-5.72-14.1-.01 0-.2-.1-.17.16v.01c-.22 12.79-6.84 16.24-10.43 20.93-7.98 10.42-1.32 22.31 7.3 24.56.15.04.55.16 1.3.3.4.09.52-.23.23-.73-1.03-1.8-2.87-4.8-3.23-8.66-.82-8.98 10.56-14.6 10.72-22.48"/><path fill="#008CD6" d="M64.25 25.45c-.06-.05-.16-.05-.17.04-.19 1.63-1.88 5-4.11 8.15-7.5 10.64-3.73 15.47-.79 18.82.55.62.81.48 1.1.04.27-.42.67-.95 2.4-1.78.27-.13 6.82-3.58 7.54-11.45.68-7.6-4.24-12.43-5.97-13.82"/><path fill="#fff" d="M103.21 23.5v28h-6.04V40.2H85.56v11.3h-6.2v-28h6.2v11.32h11.6V23.51zm27.94 0v5.54h-8.68V51.5h-6.22V29.04h-8.51v-5.53zm21.98 28.02-7.1-9.73-7.04 9.7h-6.89l10.45-14.29-9.86-13.7h6.88L160 51.54z"/><path fill="#008CD6" d="m147.97 29.77 3.4 4.71 8.08-10.97h-6.85z"/></svg>