<svg width="230" height="100" viewBox="0 0 230 100" xmlns="http://www.w3.org/2000/svg"><g mask="url(#a2lr3mzxx)" clip-path="url(#b2lr3mzxx)"><path d="M65.55 33.66c.17-8.4-4.59-15.73-7.07-17.49-.01-.01-.23-.13-.21.2v.01C58 32.25 49.84 36.53 45.41 42.35c-9.85 12.94-1.63 27.7 9.01 30.49.18.05.67.2 1.6.38.5.1.64-.3.28-.92-1.27-2.22-3.54-5.95-3.98-10.75-1.02-11.14 13.02-18.11 13.22-27.9Z" fill="#fff"/><path d="M70.91 39.04c-.08-.06-.2-.06-.21.05-.23 2.02-2.32 6.2-5.07 10.12-9.25 13.2-4.6 19.2-.97 23.35.67.77 1 .6 1.35.05.33-.52.83-1.18 2.97-2.2.33-.16 8.41-4.45 9.29-14.21.84-9.45-5.22-15.43-7.36-17.16Z" fill="#008CD6"/><path d="M118.98 36.63v34.74h-7.45V57.34H97.2v14.03h-7.64V36.63h7.64v14.04h14.32V36.63h7.45ZM153.44 36.63v6.87h-10.7v27.87h-7.67V43.5h-10.51v-6.87h28.88ZM180.57 71.4l-8.76-12.08-8.69 12.04h-8.5l12.89-17.73-12.16-17h8.49l25.2 34.78h-8.47Z" fill="#fff"/><path d="m174.2 44.4 4.2 5.85 9.96-13.62h-8.45l-5.72 7.78Z" fill="#008CD6"/></g><defs><clipPath id="b2lr3mzxx"><path transform="translate(41 16)" d="M0 0h148v57.23H0z"/></clipPath></defs></svg>