<svg xmlns="http://www.w3.org/2000/svg" width="56" height="56" viewBox="0 0 56 56"><g clip-path="url(#aau3yigj4)"><path fill="url(#bau3yigj4)" d="M0 0h56v56H0z"/><path fill="#fff" d="m44.92 29.76-.02.1c-.27 2.03-1.28 3.16-2.84 3.16-2.22 0-3.48-1.82-3.48-5 0-3.2 1.26-5.03 3.48-5.03 1.48 0 2.52 1.08 2.84 2.97l.02.04h5.06l-.03-.08a8.6 8.6 0 0 0-2.62-5.1A7.6 7.6 0 0 0 42.18 19a8.3 8.3 0 0 0-6.24 2.57 9.3 9.3 0 0 0-2.37 6.45c0 5.29 3.54 8.98 8.61 8.98 2.05 0 3.84-.65 5.19-1.87a9 9 0 0 0 2.6-5.24l.03-.13zM31.52 19.23v17.54c0 .12-.1.23-.22.23h-5.08a.23.23 0 0 1-.22-.23l.02-14.42 5.17-3.32c.15-.09.33.02.33.2"/><path fill="url(#cau3yigj4)" d="M26 22.35v-3.12c0-.12-.1-.23-.22-.23h-4.2q-.2.02-.22.23v4.14c0 1.11-.55 2.14-1.46 2.7l-3.45 2.13c-.2.12-.44-.03-.44-.27L16 22.24c0-.13-.06-.24-.18-.24h-4.23c-.12 0-.22.11-.22.24v7.65c0 .89-.44 1.71-1.16 2.16l-4 2.46a.5.5 0 0 0-.21.4v1.86c0 .12.1.23.22.23h4.96c.12 0 .22-.1.22-.23v-4c0-.88.45-1.71 1.17-2.15l2.98-1.83c.2-.12.45.03.45.27v7.7c0 .13.09.24.2.24h4.97q.2-.02.22-.23V27c0-1.12.55-2.15 1.46-2.7z"/></g><defs><linearGradient id="bau3yigj4" x1="10.42" x2="68.15" y1="9.71" y2="76.02" gradientUnits="userSpaceOnUse"><stop stop-color="#1a1e21"/><stop offset="1" stop-color="#06060a"/></linearGradient><linearGradient id="cau3yigj4" x1="15.01" x2="17.72" y1="25.99" y2="30.54" gradientUnits="userSpaceOnUse"><stop stop-color="#0fc800"/><stop offset=".5" stop-color="#008d00"/><stop offset="1" stop-color="#0fc800"/></linearGradient><clipPath id="aau3yigj4"><rect width="56" height="56" rx="8"/></clipPath></defs></svg>