<svg width="56" height="56" viewBox="0 0 56 56" xmlns="http://www.w3.org/2000/svg"><rect width="56" height="56" rx="8" fill="#F0F3FA"/><path d="M34.7 23.33a8.36 8.36 0 0 0-4.2-2.96l3.46-11.31a20.28 20.28 0 0 1 10.2 7.18l-9.47 7.09h.01Z" fill="#EBE717"/><path d="m47.91 31.54-11.67-1.91a8.21 8.21 0 0 0-1.54-6.31l9.47-7.09a19.97 19.97 0 0 1 3.74 15.31Z" fill="#5FD0DF"/><path d="M12 40.37A20.13 20.13 0 0 1 33.97 9.05L30.5 20.36a8.29 8.29 0 0 0-9.05 12.89L12 40.37Z" fill="#0080FF"/><path d="M28.07 48.39A19.95 19.95 0 0 1 12 40.37l9.45-7.12a8.22 8.22 0 0 0 6.62 3.31 8.24 8.24 0 0 0 8.17-6.93l11.67 1.91a20.02 20.02 0 0 1-19.84 16.85Z" fill="#4B2885"/></svg>