<svg xmlns="http://www.w3.org/2000/svg" width="230" height="100" viewBox="0 0 230 100"><path d="M51.4 78H23V46.9L51.4 78z" fill="url(#akeauwp4c)"/><path d="M47.5 63a8.5 8.5 0 1 0 0-17 8.5 8.5 0 0 0 0 17zM52 14L23 47v31l29-64z" fill="#D81222"/><path d="M174.09 32.55h-3.9V29h3.9v3.55zm-3.9 1.72h3.9v14.77h-3.9V34.27zM70 49.04h4.12V29.06H70v19.98zm21.07-9.96c0-1.84-.46-3.15-1.43-3.95a5.75 5.75 0 0 0-3.78-1.2c-1.26 0-2.23.34-3.04.91-.4.34-.85.92-1.37 1.66v-2.18h-3.72v14.72h3.83v-8.02a6 6 0 0 1 .4-2.23c.52-1.09 1.38-1.66 2.7-1.66 1.08 0 1.77.4 2.17 1.15.17.4.29.97.29 1.77v8.99h3.95v-9.96zm1.83-1.9v-2.74h2.06v-4.12h3.84v4.12h2.4v2.75h-2.4v7.78c0 .63.06.98.23 1.15.17.17.63.23 1.43.23h.8v2.86l-1.83.06c-1.83.06-3.1-.23-3.72-.98-.46-.45-.63-1.14-.63-2.06V37.2H92.9zm22.73-.4a6.28 6.28 0 0 0-2.57-2.17 8.4 8.4 0 0 0-3.44-.74c-2.18 0-3.9.68-5.27 2.06-1.37 1.37-2.06 3.32-2.06 5.9 0 2.69.74 4.69 2.23 5.9a8.14 8.14 0 0 0 5.21 1.82c2.4 0 4.24-.74 5.56-2.17a5 5 0 0 0 1.43-2.7h-3.95c-.23.47-.52.8-.8 1.04-.52.46-1.26.69-2.12.69-.8 0-1.55-.23-2.12-.58-.97-.57-1.49-1.6-1.55-3.09h10.77c.05-1.26 0-2.23-.12-2.92a7.5 7.5 0 0 0-1.2-3.03zm-9.33 3.44a3.7 3.7 0 0 1 1.03-2.29c.52-.57 1.26-.86 2.29-.86.92 0 1.66.29 2.29.8.63.58.97 1.32 1.03 2.35h-6.64zm21.07-6.3h.34v4.01l-.36-.03-.27-.03h-.45c-1.55 0-2.58.52-3.15 1.5a6.03 6.03 0 0 0-.46 2.63v7.04h-3.9V34.27h3.67v2.57a7.12 7.12 0 0 1 1.54-2 4.14 4.14 0 0 1 2.81-.92h.23zm9.96 5.79c-.29.11-.8.23-1.55.34l-1.26.11a9.93 9.93 0 0 0-3.43.98c-1.43.8-2.12 2.12-2.12 3.95a4.1 4.1 0 0 0 1.32 3.26c.86.75 2 1.15 3.32 1.15 1.09 0 2-.29 2.86-.75.69-.4 1.32-.91 1.83-1.49l.06.46c.01.16.03.31.06.46.06.29.11.57.23.86h4.18v-.57a1.55 1.55 0 0 1-.58-.46 1.93 1.93 0 0 1-.22-1.03V38.5c0-1.77-.63-2.97-1.9-3.6a9.73 9.73 0 0 0-4.35-.98c-2.46 0-4.23.63-5.26 1.95a5.65 5.65 0 0 0-1.1 3.2h3.73c.11-.57.29-1.02.57-1.37.35-.46 1.03-.68 1.95-.68.86 0 1.49.11 1.89.34.4.23.63.63.63 1.26 0 .51-.29.86-.86 1.09zm.23 2.49c.2-.1.4-.19.57-.32h.06v1.5c0 1.3-.4 2.17-1.09 2.68-.74.52-1.49.75-2.35.75a2.1 2.1 0 0 1-1.37-.46c-.4-.29-.57-.75-.57-1.43 0-.75.28-1.32.91-1.66.35-.18.98-.35 1.78-.52l.86-.17.34-.08c.29-.07.52-.12.69-.2l.17-.1zm16.6-2.6a2.81 2.81 0 0 0-.57-1.5 2.4 2.4 0 0 0-2-.91c-1.32 0-2.18.63-2.7 1.94-.22.7-.4 1.6-.4 2.75 0 1.09.12 1.95.4 2.64a2.6 2.6 0 0 0 2.64 1.83c.91 0 1.54-.23 1.94-.75.4-.51.63-1.14.7-1.89h3.94a6.6 6.6 0 0 1-1.26 3.32c-1.2 1.67-2.97 2.52-5.38 2.52-2.4 0-4.12-.68-5.27-2.11a8.47 8.47 0 0 1-1.71-5.5c0-2.52.63-4.52 1.83-5.9 1.26-1.43 2.92-2.12 5.15-2.12 1.83 0 3.38.4 4.52 1.26 1.15.86 1.9 2.3 2.12 4.41h-3.95zm5.21-5.16v2.75h2.18v9.04c0 .92.17 1.6.63 2.06.63.75 1.89 1.04 3.72.98l1.83-.06v-2.86h-.8c-.8 0-1.26-.06-1.43-.23-.17-.17-.23-.52-.23-1.15V37.2h2.4v-2.75h-2.4v-4.12h-3.84v4.12h-2.06zm31.38-.17h-4.12l-3.1 10.88-3.09-10.88h-4.35l5.27 14.77h4.06l5.33-14.77zm11.33.34a6.27 6.27 0 0 1 2.58 2.18c.63.86.97 1.89 1.2 3.03.12.69.17 1.66.12 2.92H195.2c.06 1.49.58 2.52 1.55 3.1a4.2 4.2 0 0 0 2.12.57 3.1 3.1 0 0 0 2.92-1.72h3.95a4.98 4.98 0 0 1-1.43 2.69c-1.32 1.43-3.15 2.17-5.56 2.17a8.15 8.15 0 0 1-5.2-1.83c-1.5-1.2-2.24-3.2-2.24-5.9 0-2.57.69-4.52 2.06-5.9a7.08 7.08 0 0 1 5.27-2.05c1.2 0 2.4.28 3.43.74zm-5.78 3.32a3.71 3.71 0 0 0-1.03 2.3h6.64a3.22 3.22 0 0 0-1.03-2.36 3.48 3.48 0 0 0-2.29-.8c-.97 0-1.77.29-2.29.86zM114.94 57.2h-2.34v19.87h2.34v-5.44l2-1.95 4.59 7.39h3.1l-5.9-9.1 5.55-5.39h-3.1l-6.24 6.19V57.19zm-36.24 0H70v19.93h8.47c2.64 0 4.58-.8 5.79-2.35a5.62 5.62 0 0 0 1.2-3.5c0-1.54-.4-2.74-1.32-3.6a6.52 6.52 0 0 0-2.29-1.32 4.35 4.35 0 0 0 2.7-4.24c0-1.08-.3-2.06-.87-2.86-.97-1.37-2.63-2.06-4.98-2.06zm1.72 7.96a6.7 6.7 0 0 1-2.7.46h-4.97v-6.19h4.86c1.2 0 2.07.18 2.7.4 1.08.46 1.6 1.32 1.6 2.64s-.46 2.17-1.49 2.69zm1.72 8.19c-.69.97-1.9 1.43-3.55 1.43h-5.84v-6.99h5.38c1.15 0 2.06.12 2.75.4a2.98 2.98 0 0 1 1.94 2.98c0 .86-.22 1.55-.68 2.18zm8.53-10.77h-2.3v14.6h2.47v-8.36c0-1.03.29-1.94.97-2.74.63-.8 1.6-1.2 2.81-1.2h.4c.05 0 .1 0 .16.02.07.01.15.03.24.03v-2.58c-.29-.05-.46-.05-.57-.05h-.23a3.7 3.7 0 0 0-2.58 1.03 4.77 4.77 0 0 0-1.37 1.77v-2.52zm17.23 1.44c1.26 1.25 1.95 3.09 1.95 5.5 0 2.34-.57 4.29-1.72 5.77-1.14 1.55-2.86 2.3-5.27 2.3-2 0-3.55-.7-4.7-2.01a8.17 8.17 0 0 1-1.77-5.44c0-2.46.63-4.35 1.84-5.84a6.14 6.14 0 0 1 4.92-2.17A6.7 6.7 0 0 1 107.9 64zm-1.49 9.67a9.43 9.43 0 0 0 .29-7.38c-.69-1.32-1.83-2-3.5-2-1.48 0-2.51.56-3.2 1.7a7.86 7.86 0 0 0-1.03 4.13c0 1.55.34 2.8 1.03 3.84.69 1.03 1.72 1.54 3.2 1.54 1.5 0 2.58-.63 3.21-1.83zm28.34-10.7a4.75 4.75 0 0 1 2.18 1.88c.46.75.8 1.6.97 2.58.17.69.23 1.72.23 3.2H127.6c.05 1.5.4 2.64 1.03 3.56.63.91 1.66 1.31 2.97 1.31 1.27 0 2.3-.4 3.04-1.26.4-.51.74-1.03.92-1.71h2.4a5.1 5.1 0 0 1-.63 1.77 5.85 5.85 0 0 1-3.95 3.1 7.6 7.6 0 0 1-2 .22 6.1 6.1 0 0 1-4.58-1.95c-1.26-1.31-1.9-3.14-1.9-5.5 0-2.34.64-4.23 1.9-5.66a6.3 6.3 0 0 1 4.92-2.18 5.12 5.12 0 0 1 3.03.63zm.86 5.66a6.98 6.98 0 0 0-.68-2.52c-.7-1.2-1.78-1.77-3.33-1.77-1.08 0-2.06.4-2.8 1.2a4.7 4.7 0 0 0-1.2 3.1h8.01zm7.67-6.07H141v14.6h2.47v-8.36a4 4 0 0 1 .97-2.74c.63-.8 1.6-1.2 2.8-1.2h.4c.06 0 .1 0 .16.02.08.01.15.03.25.03v-2.58c-.29-.05-.46-.05-.58-.05h-.22c-.98 0-1.84.34-2.58 1.03a4.78 4.78 0 0 0-1.38 1.77v-2.52zm8.37 9.97c.05.8.28 1.43.63 1.89.63.8 1.71 1.2 3.26 1.2.91 0 1.72-.17 2.46-.57.69-.4 1.03-.98 1.03-1.84 0-.63-.29-1.08-.86-1.43-.34-.17-1.09-.4-2.12-.69l-1.94-.51a9.06 9.06 0 0 1-2.8-1.03c-1.1-.69-1.61-1.55-1.61-2.75a4.2 4.2 0 0 1 1.49-3.32c.97-.86 2.34-1.26 4.06-1.26 2.24 0 3.84.63 4.81 1.95.63.8.92 1.71.92 2.63h-2.3a2.8 2.8 0 0 0-.56-1.49c-.58-.63-1.55-.97-2.98-.97-.92 0-1.66.17-2.12.51-.46.35-.75.8-.75 1.38 0 .63.35 1.14.98 1.49.34.23.91.4 1.6.57l1.66.4c1.78.4 2.98.86 3.6 1.26.98.63 1.44 1.6 1.44 2.92a4.4 4.4 0 0 1-1.49 3.32c-.97.92-2.52 1.43-4.52 1.43-2.18 0-3.72-.51-4.64-1.49a5.74 5.74 0 0 1-1.49-3.66h2.24v.06z" fill="#fff"/><defs><linearGradient id="akeauwp4c" x1="51.41" y1="62.58" x2="23" y2="62.58" gradientUnits="userSpaceOnUse"><stop stop-color="#D81222"/><stop offset="1" stop-color="#960B1A"/></linearGradient></defs></svg>