<svg xmlns="http://www.w3.org/2000/svg" width="200" height="80" viewBox="0 0 200 80"><path fill="url(#a3h1fg2b5)" d="M47.46 66H24V40.73z"/><path fill="#D81222" d="M44.24 53.81a7 7 0 0 0 4.96-2.02 6.85 6.85 0 0 0 0-9.77 7.1 7.1 0 0 0-9.93 0 6.85 6.85 0 0 0 0 9.77 7 7 0 0 0 4.97 2.02M47.95 14 24 40.81V66z"/><path fill="#fff" d="M149.64 29.19h-3.22V26.3h3.22zm-3.22 1.4h3.22v12h-3.22zm-82.76 12h3.4V26.34h-3.4zm17.4-8.1q.02-2.25-1.17-3.2a4.8 4.8 0 0 0-3.13-.98c-1.04 0-1.84.27-2.5.74q-.5.42-1.14 1.34v-1.77h-3.07v11.96h3.16v-6.51q0-.94.33-1.81c.43-.89 1.14-1.35 2.23-1.35.9 0 1.47.32 1.8.93q.22.48.24 1.44v7.3h3.26zm1.52-3.77h1.7v-3.35h3.17v3.35h1.99v2.24h-1.99v6.32q-.01.74.2.93.19.2 1.17.19h.67v2.32l-1.52.05c-1.5.05-2.56-.19-3.07-.8-.38-.36-.52-.92-.52-1.67v-7.34h-1.8zm18.78 1.9a5 5 0 0 0-2.13-1.76q-1.36-.6-2.84-.6c-1.8 0-3.22.55-4.35 1.67q-1.7 1.66-1.7 4.8-.01 3.29 1.84 4.79a6.8 6.8 0 0 0 4.3 1.48q2.96 0 4.6-1.77a4 4 0 0 0 1.17-2.19H99a3 3 0 0 1-.66.85q-.66.56-1.75.56c-.66 0-1.28-.2-1.75-.47q-1.2-.7-1.28-2.52h8.9q.06-1.52-.1-2.37a6 6 0 0 0-1-2.46m-7.71 2.8c.05-.7.35-1.36.85-1.86q.63-.7 1.9-.7 1.11.01 1.88.65c.52.47.8 1.07.85 1.9zm17.68-5.12v3.26l-.3-.03-.22-.02h-.37q-1.9.01-2.6 1.22-.44 1.02-.38 2.13v5.72h-3.22v-12h3.03v2.1a6 6 0 0 1 1.27-1.63 3.5 3.5 0 0 1 2.32-.75zm7.95 4.7q-.35.15-1.28.28l-1.04.09a8 8 0 0 0-2.83.8q-1.77.97-1.76 3.2a3.3 3.3 0 0 0 1.1 2.65c.7.61 1.65.94 2.74.94.9 0 1.65-.24 2.36-.61a6 6 0 0 0 1.51-1.21l.05.37q.01.2.05.37.06.36.19.7h3.45v-.46a1.3 1.3 0 0 1-.48-.37q-.21-.4-.18-.84v-6.89q0-2.15-1.57-2.93a8 8 0 0 0-3.6-.8q-3.04-.01-4.34 1.6a4.5 4.5 0 0 0-.9 2.6h3.08q.13-.7.47-1.12.46-.55 1.6-.55 1.08 0 1.57.27.5.28.52 1.03 0 .61-.71.88m.19 2.03q.25-.12.47-.26h.05v1.21c0 1.06-.33 1.77-.9 2.18q-.9.62-1.94.61-.63.01-1.13-.37-.48-.35-.47-1.16-.01-.93.75-1.35.45-.22 1.47-.43l.7-.13.29-.07q.36-.08.57-.16zm13.71-2.12q-.05-.67-.47-1.22a2 2 0 0 0-1.65-.73c-1.1 0-1.8.5-2.23 1.57-.18.57-.33 1.3-.33 2.24q0 1.31.33 2.14.22.7.83 1.12.61.4 1.35.37 1.11.01 1.6-.61.5-.63.58-1.54h3.25a5.3 5.3 0 0 1-1.04 2.7q-1.47 2.04-4.44 2.05c-1.98 0-3.4-.55-4.35-1.72a6.8 6.8 0 0 1-1.42-4.47c0-2.04.52-3.67 1.52-4.79a5.3 5.3 0 0 1 4.25-1.72c1.51 0 2.8.32 3.73 1.02.95.7 1.57 1.87 1.75 3.59zm4.3-4.19v2.24h1.8v7.34c0 .75.15 1.3.53 1.67q.8.9 3.07.8l1.51-.05V40.4h-.66q-.98.01-1.18-.19c-.14-.14-.2-.42-.2-.93v-6.32h1.99v-2.23h-1.98v-3.35h-3.17v3.35zm25.92-.14H160l-2.56 8.84-2.55-8.84h-3.6l4.36 12H159zm9.36.28c.86.39 1.6 1 2.13 1.77.52.7.8 1.54 1 2.46q.15.84.1 2.37h-8.91q.08 1.82 1.28 2.52.81.46 1.75.47a2.6 2.6 0 0 0 2.41-1.4h3.27c-.16.83-.57 1.6-1.19 2.18Q172.99 43 170.02 43a6.8 6.8 0 0 1-4.3-1.49c-1.23-.97-1.84-2.6-1.84-4.8q0-3.11 1.7-4.79a6 6 0 0 1 4.35-1.66c1 0 1.98.23 2.83.6m-4.77 2.7a3 3 0 0 0-.85 1.87h5.48a2.6 2.6 0 0 0-.85-1.92 3 3 0 0 0-1.89-.65q-1.22 0-1.9.7m-67.2 15.65h-1.94v16.15h1.94v-4.42l1.65-1.59 3.79 6h2.56l-4.87-7.39 4.58-4.38h-2.56l-5.16 5.03zm-29.94 0h-7.19v16.2h7q3.28-.01 4.78-1.91c.65-.81 1-1.82 1-2.85 0-1.25-.34-2.22-1.1-2.92a5 5 0 0 0-1.89-1.07 3.6 3.6 0 0 0 2.23-3.45 4 4 0 0 0-.72-2.32q-1.2-1.68-4.1-1.68m1.42 6.47q-1.07.41-2.23.37h-4.1v-5.02h4.01c1 0 1.71.14 2.23.32q1.34.54 1.32 2.15c0 1.07-.38 1.76-1.23 2.18m1.42 6.66q-.87 1.17-2.93 1.16h-4.82v-5.68h4.44q1.42 0 2.27.32.76.29 1.21.95.44.68.4 1.47c0 .7-.19 1.26-.57 1.78m7.05-8.76h-1.9v11.87h2.04v-6.8c0-.83.24-1.57.8-2.22q.8-.98 2.32-.98h.33l.13.02.2.02v-2.1q-.35-.04-.47-.03H84c-.8 0-1.56.3-2.13.83q-.74.6-1.13 1.44zm14.23 1.17c1.04 1.02 1.61 2.52 1.61 4.47q0 2.87-1.42 4.7c-.94 1.25-2.36 1.86-4.35 1.86a5 5 0 0 1-3.89-1.63 6.6 6.6 0 0 1-1.46-4.42c0-2 .52-3.54 1.52-4.75a5 5 0 0 1 4.07-1.76 5.6 5.6 0 0 1 3.92 1.52zm-1.23 7.86a7.6 7.6 0 0 0 .24-6q-.83-1.61-2.9-1.62-1.8 0-2.64 1.38a6.3 6.3 0 0 0-.85 3.36c0 1.26.28 2.27.85 3.12q.84 1.25 2.65 1.25 1.86-.01 2.65-1.49m23.4-8.7a4 4 0 0 1 1.8 1.54q.6.9.81 2.1.2.8.19 2.6h-8.7a5 5 0 0 0 .85 2.88c.52.74 1.37 1.07 2.46 1.07q1.59.01 2.5-1.03c.34-.41.62-.83.77-1.38h1.98q-.13.76-.52 1.43a4.8 4.8 0 0 1-3.26 2.52 6.4 6.4 0 0 1-3.72-.21 5 5 0 0 1-1.72-1.2q-1.57-1.59-1.57-4.46 0-2.86 1.57-4.6a5.2 5.2 0 0 1 4.06-1.77c.87-.09 1.75.09 2.5.5zm.72 4.6a6 6 0 0 0-.56-2.04q-.85-1.45-2.75-1.44-1.37 0-2.32.98a3.8 3.8 0 0 0-.99 2.51zm4.45-4.93v11.87h2.04v-6.8c-.02-.81.26-1.6.8-2.22.52-.65 1.32-.98 2.31-.98h.34l.13.02.2.02v-2.1q-.35-.04-.47-.03h-.19q-1.2 0-2.13.83-.74.6-1.14 1.44v-2.05zm8.8 8.1q.07.99.52 1.54.77.98 2.7.98 1.1.01 2.02-.47.85-.46.85-1.5 0-.74-.7-1.15-.45-.21-1.76-.56l-1.6-.42a8 8 0 0 1-2.31-.84c-.91-.56-1.33-1.26-1.33-2.23a3.4 3.4 0 0 1 1.23-2.7q1.21-1.04 3.35-1.02 2.77-.01 3.97 1.58c.52.65.76 1.4.76 2.14h-1.9q-.05-.67-.46-1.21-.7-.78-2.46-.79c-.76 0-1.37.14-1.75.42s-.62.65-.62 1.12q.02.77.8 1.2c.29.2.76.33 1.33.47l1.37.33c1.47.32 2.46.7 2.97 1.02q1.2.77 1.2 2.37a3.5 3.5 0 0 1-1.24 2.7c-.8.75-2.08 1.16-3.73 1.16q-2.7 0-3.83-1.21a4.6 4.6 0 0 1-1.23-2.97h1.85z"/><defs><linearGradient id="a3h1fg2b5" x1="176.05" x2="24" y1="40.22" y2="40.22" gradientUnits="userSpaceOnUse"><stop stop-color="#D81222"/><stop offset="1" stop-color="#960B1A"/></linearGradient></defs></svg>