<svg xmlns="http://www.w3.org/2000/svg" width="200" height="80" viewBox="0 0 200 80"><path fill="#fff" d="m48.57 46.51 2.35-.03v-16.8l-2.35.03zm11.26-11.67c-1.06 0-2.85.47-3.64 1.76v-1.52h-2.22V46.5h2.22v-6.19c0-2.25 1.68-3.26 3.35-3.26 1.58 0 2.63 1.2 2.63 2.98v6.47h2.22v-6.6c0-1.62-.44-2.95-1.31-3.84a4.4 4.4 0 0 0-3.25-1.23m11.24 8.73-3.4-8.49H65.3L70 46.51h2.13l4.72-11.43h-2.4zm41.46-8.73a5.7 5.7 0 0 0-5.9 5.92c0 3.43 2.54 6 5.9 6a5.7 5.7 0 0 0 5.53-3.68q.44-1.12.4-2.32a5.73 5.73 0 0 0-5.93-5.92m0 9.8c-2.07 0-3.65-1.67-3.65-3.88 0-2.17 1.58-3.8 3.66-3.8A3.6 3.6 0 0 1 116 39.3q.28.7.26 1.46c0 2.2-1.6 3.87-3.72 3.87m13.6-9.8a4.7 4.7 0 0 0-3.9 1.86v-1.62h-2.22V52h2.23v-7.08c.75 1.15 2.2 1.83 3.92 1.83 3.28 0 5.65-2.5 5.65-5.95 0-3.44-2.38-5.96-5.67-5.96m-.18 9.8a3.7 3.7 0 0 1-3.45-2.36 4 4 0 0 1-.26-1.45c0-2.2 1.6-3.87 3.7-3.87 2.04 0 3.62 1.7 3.62 3.87s-1.55 3.8-3.61 3.8M155 36.66c-.76-1.15-2.2-1.83-3.93-1.83-3.27 0-5.64 2.5-5.64 5.95s2.38 5.97 5.67 5.97c1.64 0 3.14-.72 3.9-1.86v1.61h2.22V28.9H155zm-3.72 7.96c-2.02 0-3.6-1.7-3.6-3.87s1.54-3.8 3.6-3.8a3.7 3.7 0 0 1 3.46 2.35q.28.7.27 1.45c0 1.88-1.32 3.87-3.73 3.87m8.75-9.55h2.23V46.5H160zm13.6 0v1.33a4.7 4.7 0 0 0-3.75-1.58h-.18c-3.27 0-5.64 2.5-5.64 5.95s2.38 5.97 5.67 5.97h.18c1.52 0 2.91-.62 3.72-1.6v1.36H176V35.08zm-3.65 9.54c-1.97-.05-3.5-1.72-3.5-3.86s1.5-3.75 3.5-3.8a3.73 3.73 0 0 1 3.64 3.8c0 1.85-1.28 3.81-3.64 3.87m-76-5.1c-1.16-.3-1.98-.56-1.98-1.3 0-.82.82-1.4 2-1.4.85.03 1.68.33 2.35.86l.05.05 1.2-1.67-.06-.05a5.7 5.7 0 0 0-3.68-1.22c-2 0-4.16 1.11-4.16 3.55 0 1.7 1.4 2.54 2.58 2.93q.6.2 1.19.34c1.23.32 2.3.6 2.3 1.56 0 .68-.68 1.4-1.94 1.4a5.4 5.4 0 0 1-3.25-1.22l-.06-.04-1.19 1.72.05.04a7 7 0 0 0 4.5 1.54c2.03 0 4.19-1.23 4.19-3.49s-2.07-3.07-4.1-3.6m50 1.08c0-3.41-2.18-5.79-5.34-5.79-3.2 0-5.5 2.44-5.5 5.8a6 6 0 0 0 1.68 4.36 5.2 5.2 0 0 0 3.72 1.5h.1c1.96-.03 3.24-.36 4.79-2.05l.05-.05-1.55-1.48-.04.05a4 4 0 0 1-3.17 1.45c-1.72 0-3.07-1.28-3.39-3.18l8.58-.02h.06v-.37q.02-.05.01-.22m-8.3-1.15c.28-1.65 1.36-2.56 3.02-2.56 1.6 0 2.7.95 2.94 2.56zm-47.6 1.15c0-3.41-2.2-5.79-5.33-5.79-3.2 0-5.51 2.44-5.51 5.8a6 6 0 0 0 1.68 4.36c1 .98 2.34 1.52 3.72 1.5h.1c1.96-.03 3.24-.36 4.8-2.05l.04-.05-1.54-1.48-.05.05a4 4 0 0 1-3.17 1.45c-1.72 0-3.07-1.28-3.39-3.18L88 41.2h.07v-.37zm-8.32-1.15c.3-1.65 1.37-2.56 3.03-2.56 1.6 0 2.7.95 2.95 2.56zm25.56 4.69q-.46.12-.93.11a1.8 1.8 0 0 1-1.38-.53c-.24-.29-.3-.73-.3-1.3v-5.39h3.17v-1.95h-3.16v-3.7h-2.23v3.7h-1.22v1.95h1.22v5.27q0 1.89.86 2.85a3.8 3.8 0 0 0 2.97 1.26 6 6 0 0 0 1.65-.22l.07-.03-.65-2.04zm55.8-14.54a1.4 1.4 0 0 0-1.32.9q-.1.27-.1.56a1.4 1.4 0 0 0 .41 1.03 1.4 1.4 0 0 0 1.01.41 1.4 1.4 0 0 0 1.34-.88 1.4 1.4 0 0 0 0-1.12 1.4 1.4 0 0 0-1.34-.9"/><path fill="#323956" d="m32.22 44.99 1.83 1.13 10.68-6.41a10 10 0 0 1-2.8 5.71 10.6 10.6 0 0 1-12.08 2.11c-1.98-.95-3.6-2.5-4.63-4.42l7.7-4.61zm.18-16.8a10.6 10.6 0 0 1 8.1 1.75 10.3 10.3 0 0 1 4.22 7.01l-9.84 5.9.7-6.5-1.83-1.13-9.4 5.64a10 10 0 0 1 1.23-8.05 10.3 10.3 0 0 1 6.82-4.62"/><path fill="#F64E00" d="M34.94 36c.96 0 1.73-.77 1.73-1.71a1.73 1.73 0 0 0-3.46 0c0 .94.78 1.71 1.73 1.71"/></svg>