<svg xmlns="http://www.w3.org/2000/svg" width="132" height="60" viewBox="0 0 132 60"><path fill="#fff" d="m10 20.99 3.93-1.12v15.18H10zm16.09 14.06h-3.6v-5.52c0-1.38.06-2.98-1.69-2.98-1.38 0-2.04 1.02-2.04 2.4v6.1h-3.6v-10.6l3.49-1v2.02a4.1 4.1 0 0 1 3.49-1.95c2.87 0 3.96 1.65 3.96 4.35zm3.45 0-3.66-11.21h3.74l2.04 7.49 2.04-7.5h3.66l-3.68 11.21zm15-7.2a2.2 2.2 0 0 0-.72-1.3 2.2 2.2 0 0 0-1.37-.55c-1.62 0-2.41 1.53-2.37 3.12zm-1.75 5.08a5 5 0 0 0 4-1.97l.96 2.68a8.3 8.3 0 0 1-5.16 1.75c-3.48 0-6.04-2.1-6.04-5.97a5.8 5.8 0 0 1 5.92-5.9c3.42 0 5.55 2.32 5.52 5.83l-7.61 2.16c.4 1 1.37 1.42 2.41 1.42m12.19-4.8c.82.14 1.76.3 2.43.74a3 3 0 0 1 1.41 2.51c0 2.99-2.74 4-5.35 4-2.34 0-4.88-.8-5.3-3.38l3.09-.87c.18 1.2.97 1.9 2.15 1.9.8 0 1.81-.34 1.82-1.2 0-.9-1.11-1.07-1.76-1.22q-.68-.18-1.4-.32c-1.85-.39-3.65-.96-3.65-3.33 0-2.72 2.87-3.44 5.02-3.44 2.02 0 4.67.66 5.04 2.86l-3.14.9c-.16-1.03-.85-1.4-1.97-1.4-.6 0-1.35.21-1.35.86 0 .73 1.3 1.05 1.86 1.17l1.1.21zM63 31.32c0 .49.15.86.6 1a5 5 0 0 0 1.98-.07l-.74 2.8a13 13 0 0 1-1.6.12c-3.05 0-3.84-.9-3.84-3.96v-9.44l3.6-1.02v3.09h2.59l-.65 2.37H63zm3.09-6.85 3.6-1.01v11.6h-3.6zm12.15 5.06c0-1.38.06-2.98-1.7-2.98-1.37 0-2.04 1.03-2.04 2.4v6.1h-3.6v-10.6l3.49-1v2.02a4.1 4.1 0 0 1 3.5-1.95c2.87 0 3.95 1.65 3.95 4.35v7.2h-3.6zm10.08-3.2c-1.58 0-2.1 1.42-2.1 2.81 0 1.33.6 2.64 2.08 2.64 1.52 0 2.17-1.2 2.18-2.62 0-1.41-.55-2.82-2.16-2.83M88.16 39c-2.14 0-4.4-.59-5.13-2.99l3.23-.9a2.05 2.05 0 0 0 2.05 1.52c1.49 0 2.1-1.22 2.1-2.63v-1.13a3.5 3.5 0 0 1-2.96 1.71c-3.33 0-4.82-2.41-4.82-5.57 0-2.99 1.71-5.5 4.82-5.5 1.3 0 2.32.62 2.99 1.74v-.82l3.44-.97V33.7c0 3.57-2.54 5.3-5.72 5.3m7.36-5.45h1.16v1.5h-1.16zm5.41.97c1.05 0 1.86-.95 1.97-2.1l.84.24c-.29 1.56-1.27 2.61-2.8 2.61-2.1 0-3.29-1.79-3.29-3.89s1.17-3.88 3.28-3.9c1.41 0 2.48.79 2.75 2.3l-.83.23c-.23-1.07-.89-1.77-1.92-1.77-1.61 0-2.4 1.6-2.4 3.14 0 1.55.82 3.14 2.4 3.14m6.95-6.28c-1.6 0-2.4 1.6-2.4 3.14 0 1.55.81 3.14 2.4 3.14s2.4-1.6 2.4-3.14c0-1.55-.8-3.14-2.4-3.14m0 7.03c-2.1 0-3.28-1.79-3.28-3.89s1.16-3.9 3.28-3.9c2.11 0 3.28 1.8 3.28 3.9s-1.19 3.9-3.28 3.9m13.25-.2V30.1c0-1.18-.45-1.87-1.64-1.87-1.48 0-1.89 1.38-1.88 2.65v4.17h-.87v-4.99c0-1-.4-1.81-1.45-1.83-1.52 0-2.07 1.34-2.08 2.72v4.1h-.87V27.8l.8-.23v1.44q.3-.7.94-1.13.63-.41 1.4-.4c.89 0 1.72.46 1.98 1.43q.3-.66.9-1.06t1.33-.38c1.58 0 2.31.92 2.31 2.58v5h-.87"/><path fill="orange" d="m66.43 19.87 3.42-.87v2.61l-3.42.87z"/></svg>