<svg xmlns="http://www.w3.org/2000/svg" width="230" height="100" viewBox="0 0 230 100"><path d="M33 39.05l5.76-1.6v21.76H33V39.05zm23.56 20.16H51.3V51.3c0-1.98.08-4.27-2.48-4.27-2.02 0-3 1.46-3 3.43v8.76h-5.27V44l5.11-1.42v2.88c.99-1.78 3.22-2.79 5.11-2.79 4.21 0 5.8 2.37 5.8 6.23v10.3zm5.05 0l-5.36-16.07h5.48l2.98 10.73 3-10.73h5.36L67.68 59.2h-6.07zM83.58 48.9a3.18 3.18 0 0 0-3.07-2.66c-2.36 0-3.53 2.19-3.46 4.47l6.53-1.8zm-2.56 7.27a7.4 7.4 0 0 0 5.84-2.82l1.41 3.84c-1.96 1.63-4.95 2.5-7.55 2.5-5.1 0-8.85-3-8.85-8.55 0-4.92 3.87-8.45 8.67-8.45 5.02 0 8.13 3.32 8.09 8.35l-11.15 3.1c.58 1.44 2.01 2.03 3.54 2.03zm17.84-6.88c1.2.2 2.58.43 3.56 1.06a4.37 4.37 0 0 1 2.07 3.6c0 4.28-4.02 5.74-7.84 5.74-3.43 0-7.14-1.15-7.75-4.85l4.51-1.25c.27 1.73 1.42 2.73 3.15 2.73 1.17 0 2.66-.5 2.67-1.74 0-1.27-1.63-1.52-2.58-1.74-.67-.16-1.35-.32-2.05-.46-2.7-.55-5.34-1.37-5.34-4.77 0-3.89 4.2-4.93 7.35-4.93 2.96 0 6.84.95 7.38 4.1l-4.6 1.28c-.24-1.46-1.24-1.99-2.88-1.99-.88 0-1.98.3-1.98 1.23 0 1.05 1.9 1.5 2.73 1.68.52.1 1.06.21 1.6.3zm11.74-2.73v7.3c0 .7.23 1.24.88 1.44.85.24 2.23.05 2.91-.11l-1.09 4.02c-.71.1-1.69.17-2.33.17-4.48 0-5.64-1.3-5.64-5.67V40.17l5.27-1.46v4.43h3.8l-.95 3.4h-2.85zm4.53-2.51l5.26-1.46v16.63h-5.26V44.04zm17.8 7.25c0-1.98.08-4.27-2.49-4.27-2.01 0-3 1.47-3 3.43v8.76h-5.26V44l5.1-1.42v2.88c1-1.78 3.23-2.79 5.12-2.79 4.21 0 5.8 2.37 5.8 6.23v10.31h-5.27V51.3zm14.75-4.59c-2.31 0-3.06 2.04-3.06 4.03 0 1.9.88 3.78 3.03 3.78 2.23 0 3.18-1.73 3.2-3.75 0-2.03-.81-4.05-3.17-4.06zm-.23 18.16c-3.14 0-6.45-.84-7.52-4.28l4.73-1.3c.38 1.4 1.63 2.18 3.01 2.18 2.18 0 3.08-1.74 3.08-3.76v-1.62a5.08 5.08 0 0 1-4.34 2.45c-4.87-.01-7.06-3.46-7.06-7.99 0-4.28 2.51-7.87 7.06-7.87 1.9 0 3.4.87 4.37 2.48v-1.17l5.05-1.4v14.68c0 5.12-3.73 7.6-8.38 7.6zm10.77-7.81h1.7v2.16h-1.7v-2.16zm7.93 1.39c1.54 0 2.72-1.37 2.89-3l1.22.33c-.42 2.24-1.86 3.75-4.11 3.75-3.07 0-4.8-2.57-4.8-5.58 0-3 1.71-5.56 4.8-5.58 2.07 0 3.63 1.12 4.03 3.28l-1.22.34c-.34-1.54-1.3-2.54-2.81-2.54-2.36 0-3.52 2.28-3.52 4.5s1.2 4.5 3.52 4.5zm10.17-9c-2.34 0-3.52 2.28-3.52 4.5s1.2 4.5 3.52 4.5c2.33 0 3.52-2.29 3.52-4.5 0-2.22-1.18-4.5-3.52-4.5zm0 10.08c-3.07 0-4.8-2.57-4.8-5.58 0-3 1.7-5.58 4.8-5.58 3.1 0 4.8 2.57 4.8 5.58 0 3.01-1.73 5.59-4.8 5.58zm19.4-.3v-7.1c.01-1.7-.65-2.68-2.4-2.68-2.16.01-2.76 1.97-2.75 3.8v5.97h-1.28v-7.15c.02-1.42-.57-2.6-2.11-2.62-2.23 0-3.04 1.92-3.05 3.89v5.88h-1.27V48.83l1.17-.33v2.07a3.64 3.64 0 0 1 3.41-2.2c1.31-.01 2.53.66 2.92 2.05a3.5 3.5 0 0 1 3.25-2.06c2.32 0 3.39 1.32 3.39 3.7v7.15h-1.28z" fill="#fff"/><path d="M115.13 37.46l5.26-1.46v4.4l-5.26 1.46v-4.4z" fill="orange"/></svg>