<svg xmlns="http://www.w3.org/2000/svg" width="200" height="80" viewBox="0 0 200 80"><path fill="#fff" d="m24 29.75 5.34-1.44v19.6H24zM45.84 47.9h-4.88v-7.12c0-1.78.08-3.85-2.3-3.85-1.87 0-2.78 1.32-2.78 3.1v7.88H31v-13.7l4.73-1.28v2.59c.92-1.6 2.99-2.51 4.74-2.51 3.9 0 5.38 2.13 5.38 5.6zm4.68 0-4.97-14.47h5.08l2.76 9.66 2.78-9.66h4.97l-5 14.46zm20.36-9.28a3 3 0 0 0-.98-1.7 3 3 0 0 0-1.87-.7c-2.18 0-3.27 1.97-3.2 4.03zm-2.37 6.54a7 7 0 0 0 5.4-2.53l1.32 3.45c-1.82 1.47-4.6 2.25-7 2.25-4.73 0-8.2-2.7-8.2-7.7 0-4.43 3.58-7.6 8.03-7.6 4.65 0 7.54 2.98 7.5 7.51l-10.33 2.8c.53 1.3 1.86 1.82 3.28 1.82m16.53-6.2c1.11.19 2.4.4 3.3.96a4 4 0 0 1 1.92 3.25c0 3.85-3.73 5.16-7.27 5.16-3.18 0-6.61-1.03-7.18-4.36l4.18-1.13c.25 1.56 1.32 2.46 2.92 2.46 1.08 0 2.46-.45 2.47-1.57 0-1.14-1.5-1.37-2.39-1.56q-.93-.23-1.9-.42c-2.5-.5-4.95-1.23-4.95-4.3 0-3.5 3.9-4.43 6.82-4.43 2.74 0 6.34.85 6.84 3.69l-4.27 1.15c-.22-1.31-1.15-1.8-2.67-1.8-.81 0-1.83.28-1.83 1.12 0 .94 1.76 1.35 2.53 1.51zm10.88 4.12c0 .63.22 1.12.82 1.3a7 7 0 0 0 2.7-.1l-1.02 3.62c-.65.1-1.56.16-2.16.16-4.15 0-5.22-1.18-5.22-5.11v-12.2l4.88-1.3v3.98h3.52l-.88 3.06h-2.64zm4.2-8.83 4.88-1.32v14.98h-4.88zm16.5 6.53c0-1.78.07-3.85-2.31-3.85-1.86 0-2.78 1.33-2.78 3.1v7.88h-4.87v-13.7l4.72-1.28v2.59c.93-1.6 3-2.51 4.75-2.51 3.9 0 5.37 2.13 5.37 5.6v9.3h-4.88zm13.67-4.13c-2.14 0-2.84 1.83-2.84 3.62 0 1.72.82 3.4 2.81 3.4 2.07 0 2.95-1.55 2.97-3.37 0-1.83-.75-3.65-2.94-3.65M130.08 53c-2.92 0-5.98-.76-6.97-3.85l4.38-1.18c.35 1.27 1.51 1.97 2.79 1.97 2.02 0 2.85-1.57 2.85-3.39V45.1a4.7 4.7 0 0 1-4.02 2.2c-4.51 0-6.54-3.1-6.54-7.19 0-3.85 2.33-7.08 6.54-7.08 1.76 0 3.15.78 4.05 2.23V34.2l4.68-1.27v13.23c0 4.6-3.46 6.84-7.76 6.84m9.98-7.03h1.57v1.94h-1.57zm7.35 1.25c1.43 0 2.52-1.24 2.68-2.7l1.13.3c-.4 2.01-1.73 3.37-3.81 3.37-2.85 0-4.45-2.31-4.45-5.02s1.58-5.01 4.45-5.03c1.92 0 3.36 1 3.73 2.95l-1.13.31c-.31-1.39-1.2-2.29-2.6-2.29-2.19 0-3.26 2.06-3.26 4.06s1.1 4.05 3.26 4.05m9.42-8.1c-2.17 0-3.26 2.05-3.26 4.05s1.11 4.05 3.26 4.05c2.16 0 3.27-2.06 3.27-4.05 0-2-1.1-4.06-3.27-4.06m0 9.07c-2.84 0-4.45-2.31-4.45-5.02s1.58-5.03 4.45-5.03 4.45 2.31 4.45 5.03c0 2.7-1.6 5.03-4.45 5.02m17.98-.27v-6.4c.01-1.52-.6-2.4-2.22-2.4-2 0-2.56 1.77-2.55 3.42v5.37h-1.19v-6.44c.02-1.28-.52-2.34-1.95-2.36-2.07 0-2.82 1.73-2.83 3.5v5.3h-1.17v-9.36l1.08-.3v1.87q.4-.91 1.27-1.46a3.5 3.5 0 0 1 1.89-.52c1.21 0 2.34.6 2.7 1.85q.42-.86 1.23-1.37.81-.5 1.79-.49c2.15 0 3.14 1.19 3.14 3.33v6.44h-1.19z"/><path fill="orange" d="M100.12 28.31 105 27v3.96l-4.88 1.32z"/></svg>