<svg xmlns="http://www.w3.org/2000/svg" width="132" height="60" viewBox="0 0 132 60"><path fill="#EEBC4E" d="m32.35 31.85-2.2 5.19-1.41-3.4 1.52-3.6q.15-.39.48-.64.34-.25.76-.25h9.56c.55 0 1.05.36 1.23.9l3.42 8.06c.13.33.14.7.01 1.02q-.2.51-.68.74a1.3 1.3 0 0 1-.57.12l-8.19-.01-8.19.01-.16-.01-.19.01h-.7l-1.43-3.13-2.13-5.02h-7.85L13.3 37.3h10.63l1.15 2.7H11.36a1 1 0 0 1-.58-.11 1.3 1.3 0 0 1-.69-.74c-.13-.33-.12-.7.02-1.03l3.42-8.07q.14-.4.47-.65.34-.25.76-.25h4.05l3.08-7.25q.15-.4.48-.65.34-.25.76-.25h9.55c.56 0 1.06.36 1.24.89l2.5 5.89h-2.84l-1.74-4.1h-7.85l-2.33 5.47h2.67c.55 0 1.05.36 1.23.9l1.34 3.13 1.55 4.12h14.07l-2.32-5.45z"/><path fill="#fff" fill-rule="evenodd" d="m53.25 32.4.03.18q.02.09.1.17L60.24 40h3.9l-7.4-8.19 6.11-7.02H59.6l-6.12 7.2-.16.2q-.06.05-.06.21m66.4-9.7c.62 0 1.22.25 1.66.7a2.45 2.45 0 0 1 0 3.43 2.33 2.33 0 0 1-3.33 0 2.45 2.45 0 0 1 0-3.42 2.3 2.3 0 0 1 1.66-.71m0 .34c-.54 0-1.05.22-1.43.6a2.1 2.1 0 0 0 0 2.93 2 2 0 0 0 2.84 0 2.1 2.1 0 0 0 0-2.92c-.37-.39-.88-.6-1.42-.6m.43 2.2a1 1 0 0 0 .45-.23q.18-.2.18-.48a1 1 0 0 0-.11-.4.6.6 0 0 0-.3-.26 2 2 0 0 0-.5-.07h-1.13v2.62h.39V25.3h.52l.15.07.16.16q.13.18.22.35l.35.55h.48l-.46-.75a2 2 0 0 0-.27-.35zm-1.02-.3h.67q.18 0 .34-.06a.3.3 0 0 0 .18-.13.4.4 0 0 0 .06-.21.3.3 0 0 0-.12-.27c-.09-.09-.26-.1-.39-.1h-.74zm-3.08 4.54q0-1.32-.57-2.31a5 5 0 0 0-1.5-1.66 7 7 0 0 0-2.08-1 9 9 0 0 0-2.3-.33h-4.96a7.2 7.2 0 0 0-4.44 1.55q-.9.74-1.48 1.8a5 5 0 0 0-.55 2.33v4.46q.01 1.29.55 2.35.56 1.04 1.48 1.8.91.73 2.07 1.14 1.16.39 2.37.39h4.96q1.16 0 2.3-.33a7 7 0 0 0 2.09-.99q.91-.66 1.49-1.66.56-1 .57-2.32zm-14.26 2.61q.02-1.34.28-2.37.24-1.07.92-1.92a4 4 0 0 1 1.68-1.16q1.01-.4 2.52-.4 1.55 0 2.6.4 1.05.37 1.7 1.15.67.85.9 1.92.25 1.05.28 2.39 0 1.2-.27 2.4-.23 1.07-.9 1.92a4 4 0 0 1-1.7 1.15q-1.28.42-2.6.39-1.53 0-2.53-.4a4.2 4.2 0 0 1-2.6-3.08q-.26-1.06-.28-2.39m-13.98-2.34c.58-2.85 2.5-3.5 5.04-3.5 1.72 0 2.44.13 4 .96v-2.35c0-.22-10.72-2.83-12.45 3.84a14 14 0 0 0 0 6.77c1.73 6.67 12.45 4.06 12.45 3.84v-2.36a7 7 0 0 1-4 .96c-2.52 0-4.45-.65-5.04-3.5a12 12 0 0 1 0-4.67zm-17.5-4.96v2.53q2.18-.52 4.42-.55h.23c.29 4.4.2 8.81-.15 13.22h3.72q-.55-6.61-.15-13.22h.24c1.72.02 3.1.25 4.42.55V24.8zm-5.1 0h3.73a90 90 0 0 0 0 15.21h-3.73c.41-5.06.45-10.14 0-15.2m-15.54 0h3.73a90 90 0 0 0 0 15.21h-3.73c.42-5.06.45-10.14 0-15.2"/></svg>