<svg width="200" height="80" viewBox="0 0 200 80" fill="none" xmlns="http://www.w3.org/2000/svg"><path d="m50.78 37.84-.14-8.27a12.93 12.93 0 0 0 12.87.23l.18-.1a13.15 13.15 0 0 0 13.09-.15v7.94c0 8.45-5.2 16.03-13.07 19.08a20.53 20.53 0 0 1-12.93-18.73Z" fill="#00005C" stroke="#CCAE70" stroke-width=".68"/><path d="m67.35 54.35.1-22.83-3.75-1.4-3.73 1.4v22.73l1.8 1.1 2 .9 2.01-.9 1.57-1Z" fill="#5B0007"/><path d="m76.32 35.28.59.3-.26 1.73-.1-.13a2.62 2.62 0 0 0-3.13-.76l-1.88.85c-.6.28-1.27.4-1.93.35-.64-.04-1.31.4-1.31 1.04 0 .42.29.8.7.83a4.9 4.9 0 0 0 2.44-.45l.58-.27c.8-.38 1.69-.52 2.55-.45 1.33.12 1.97 1.53 1.8 2.86l-.06-.08a2.6 2.6 0 0 0-3.07-1l-.84.32a7.8 7.8 0 0 1-2.38.5c-.9.04-1.72.71-1.72 1.61l.65.08c.87.1 1.75-.04 2.55-.39l.96-.41a3.37 3.37 0 0 1 3.24.3.6.6 0 0 1 .24.6c-.06.4-.49.66-.9.6a4.54 4.54 0 0 0-2.57.33l-.96.42c-.44.2-.9.32-1.38.36-.9.08-1.83.73-1.83 1.64h.31c.88 0 1.75-.12 2.6-.35l1.54-.42c.34-.1.7-.14 1.06-.15.75-.02 1.1.82.75 1.5h-.07c-.96 0-1.92.13-2.85.4-.92.28-1.88.42-2.84.42h-.5v1.82h.56c.7 0 1.4-.12 2.07-.36l.83-.3c.8-.29 1.22.66.72 1.36l-.2.29H68.3v3.96l-1.25.55V31.32h1.25v1.4c0 1.94 1.4 3.82 3.2 3.12l1.83-.72a3.62 3.62 0 0 1 2.99.16Zm-24.87-.09-.77.4.26 1.72.29-.37a2.23 2.23 0 0 1 2.67-.64l2.6 1.18c.25.11.52.18.78.2.64.04 1.43.48 1.43 1.12 0 .34-.21.66-.55.7a2.7 2.7 0 0 1-1.51-.22l-1.09-.5a4.97 4.97 0 0 0-2.54-.46c-1.33.12-1.97 1.53-1.8 2.86l.15-.21a2.39 2.39 0 0 1 2.83-.92l1.52.57c.63.24 1.3.35 1.97.32.52-.02 1.02.37 1.02.9 0 .4-.29.74-.68.75-.7.01-1.38-.12-2.02-.4l-.88-.38a3.37 3.37 0 0 0-3.25.3.6.6 0 0 0-.23.6c.06.4.48.66.9.6a4.54 4.54 0 0 1 2.57.33l1.44.64c.37.16.77.23 1.16.2.47-.04 1 .27 1 .74 0 .46-.38.83-.83.79a7.58 7.58 0 0 1-1.25-.23l-1.8-.49c-.34-.1-.7-.14-1.06-.15-.76-.02-1.1.82-.75 1.5h.1c.94 0 1.88.13 2.8.4l.09.03c.58.17 1.17.29 1.77.34.5.05.92.45.92.96 0 .5-.4.9-.9.84a5.85 5.85 0 0 1-1.14-.29l-.84-.3c-.8-.28-1.22.66-.72 1.36l.2.29 3.4-.01v3.96l1.34.55V31.34H58.8v2.3c0 1.42-.97 2.89-2.3 2.37l-2.43-.96a3.19 3.19 0 0 0-2.62.14Z" fill="#CCAE70"/><path d="M66.32 19.34c.12 0 .2-.02.27-.08.06-.06.1-.14.1-.26.01-.12-.02-.26-.07-.42-.12-.33-.35-.7-.67-1.07a3.34 3.34 0 0 0-.99-.78 1.3 1.3 0 0 0-.41-.12c-.12 0-.21.02-.27.08-.07.05-.1.14-.1.26-.01.12.01.26.07.42.11.32.34.7.67 1.07.33.36.68.63.99.77.15.08.3.12.41.13Zm-1.44-.87c.66.73 1.44 1.1 1.74.83.3-.28.02-1.09-.64-1.82-.65-.73-1.43-1.1-1.74-.83-.3.27-.01 1.09.64 1.82Z" fill="#fff"/><path d="m63.75 17.4.46-.4 2.06 2.22-.41.38a.64.64 0 0 1-.18.11c-.45.19-1.04-.09-1.43.2l-5.41 4.17.04.03c.2.15.17.44-.04.56-.3.16-.64.22-.98.16h-.04a.2.2 0 0 1-.16-.19v-.1c0-.34.11-.67.33-.92a.3.3 0 0 1 .5.04l.03.07 4.79-4.72.07-.07c.36-.4-.03-1.17.37-1.54Z" fill="#CCAE70"/><path fill-rule="evenodd" d="M64.95 19.55c.24.26.65.28.9.05l.42-.38L64.21 17l-.46.4a.54.54 0 0 0-.04.77c-.03.32-.17.62-.4.84l-4.79 4.72-.04-.07a.3.3 0 0 0-.5-.04 1.4 1.4 0 0 0-.32.92v.1c0 .1.07.17.16.18l.04.01c.34.06.68 0 .98-.16a.33.33 0 0 0 .04-.56l-.04-.03 5.41-4.16c.21-.16.45-.29.7-.37Zm-.76-2.27-.3.27a.34.34 0 0 0-.03.49l.06.06v.1c-.05.36-.2.7-.47.95l-4.97 4.9-.17-.3a.1.1 0 0 0-.17 0c-.19.22-.29.5-.28.79v.09h.03c.3.05.6 0 .86-.14.08-.04.09-.16.01-.22l-.25-.19 5.62-4.32c.23-.17.49-.31.76-.4l.12-.04.09.1c.16.18.44.2.63.03l.26-.24-1.8-1.93Z" fill="#8F714D"/><path d="M61.2 21.54c.14-.04.73.02.91.03l-.93-.28-.72.8c.2-.16.6-.5.74-.55Zm1.27-1.14c.14-.04.78.03.96.05l-1.13-.33-.7.8c.18-.17.73-.47.87-.51Zm2.14-1.99c.55.72 1.1.98 1.31 1.02l.24-.22-1.88-2.15-.29.22c-.02.08.08.41.62 1.13Z" fill="#8F714D"/><path d="M66.57 19.26c-.29.26-1.04-.1-1.68-.82-.63-.7-.92-1.49-.63-1.75.3-.26 1.04.1 1.68.81.64.71.92 1.5.63 1.76Z" fill="#6E1516"/><path d="M66.55 19c-.27.24-.88-.04-1.46-.69-.59-.65-.84-1.27-.57-1.51.05-.04-.13.39.7 1.39.9.94 1.33.8 1.33.8Z" fill="#A37623"/><path d="M67.28 18.33c-.52.47-1.4.34-1.97-.28-.56-.63-.6-1.52-.07-2 .45-.4.95-.34 1.15-.37.16-.03.34-.3.32-.72 0 0 .26.24.23.63a.73.73 0 0 1 .4-.36c.4-.16.7-.02 1.13-.17.46-.16.55-.72.67-.97 0 0 .26.5-.07.95.46-.26.57-.69.57-.69.27.31.2 1.4-1.64 2.04.71-.04 1.02.3 1.02.3s-.77-.07-1.18.34c-.39.38-.05.79-.56 1.3Z" fill="url(#asjx3jr41)"/><path d="M67.26 18.34c-.52.46-1.39.33-1.95-.3-.56-.62-.6-1.5-.08-1.96.5-.46 1.47-.53 2.03.1.56.62.44 1.76 0 2.16Z" fill="url(#bsjx3jr41)"/><path d="M66.99 18.42c-.41.37-1.17.19-1.7-.4-.53-.58-.62-1.35-.21-1.72.41-.37 1.23-.37 1.76.22.53.58.5 1.58.15 1.9Z" fill="url(#csjx3jr41)"/><path d="M65.98 17.84c.61.55 1.07.59 1.23.54-.24.13-.98.56-1.84-.28a1.6 1.6 0 0 1-.31-1.85 3 3 0 0 0 .92 1.59Z" fill="url(#dsjx3jr41)"/><path d="M66.36 17.95c.78.24 1.1.02 1.21-.09-.14.25-.47 1.07-1.6.66a1.77 1.77 0 0 1-1.1-1.64c.17.26.7.83 1.49 1.07Z" fill="url(#esjx3jr41)"/><path d="M65.8 17.72c.46.66.9.8 1.06.8-.27.07-1.04.28-1.71-.7-.62-.9-.12-1.54.15-1.84-.03.3.04 1.07.5 1.74Z" fill="url(#fsjx3jr41)"/><path d="M62.1 19.87c.2-.18.47-.24.72-.17l1.4.4c.09.03.12.15.05.2" fill="#540804"/><path d="M62.12 19.97a.33.33 0 0 1 .28-.05l1.48.43c.04.02.04.07 0 .1" fill="#AD782D"/><path d="M61.03 21.1a.67.67 0 0 1 .58-.13l1.13.33c.07.02.1.11.04.16" fill="#540804"/><path d="M61.04 21.19a.26.26 0 0 1 .23-.04l1.2.35c.03.01.03.06 0 .08" fill="#AD782D"/><path d="m63 43.88 1.7-1.06c.16-.1.35.01.35.2 0 .38-.2.73-.52.93l-1.7 1.06a.23.23 0 0 1-.36-.2c0-.37.2-.73.53-.93Zm.03.06c-.3.19-.49.52-.49.88 0 .12.14.2.25.13l1.7-1.05c.3-.2.5-.53.5-.89 0-.12-.14-.2-.25-.13l-1.7 1.06Zm.14 2.36 1.38-.86a.2.2 0 0 1 .3.17c0 .31-.16.6-.42.77l-1.39.86a.2.2 0 0 1-.3-.17c0-.31.16-.6.43-.77Zm.04.06a.84.84 0 0 0-.4.71c0 .1.11.16.2.11l1.38-.86c.25-.15.4-.42.4-.71 0-.1-.11-.17-.2-.11l-1.38.86Z" fill="#fff"/><path d="M62.9 49.23a.6.6 0 0 1 .3-.52l1.12-.63a.1.1 0 0 1 .13.08" fill="#540804"/><path d="m63.17 48.65 1.11-.63c.1-.06.24.02.24.14 0 .24-.13.46-.33.58l-1.12.63a.16.16 0 0 1-.24-.14c0-.24.13-.46.34-.58Zm.03.06a.6.6 0 0 0-.3.52c0 .07.08.12.14.08l1.11-.63c.19-.1.3-.3.3-.52a.1.1 0 0 0-.13-.08l-1.12.63Z" fill="#fff"/><path d="M63 51.1c0-.17.09-.32.23-.4l.94-.5c.04-.02.1.01.1.07" fill="#540804"/><path d="m63.2 50.64.94-.5c.09-.04.2.02.2.13 0 .18-.1.36-.27.45l-.94.5a.14.14 0 0 1-.2-.13c0-.18.1-.36.27-.45Zm.03.06a.44.44 0 0 0-.23.4c0 .05.05.08.1.05l.93-.5a.44.44 0 0 0 .24-.38.07.07 0 0 0-.1-.06l-.94.5ZM65.89 40c.11-.11.17-.23.17-.34 0-.12-.06-.24-.17-.35a1.6 1.6 0 0 0-.5-.31 4.6 4.6 0 0 0-1.72-.3 4.6 4.6 0 0 0-1.7.3c-.22.09-.4.2-.51.3a.5.5 0 0 0-.17.36c0 .11.05.23.17.34.11.12.29.22.5.31.44.18 1.04.3 1.71.3a4.6 4.6 0 0 0 1.71-.3c.22-.09.4-.2.5-.3Zm-2.22.68c1.36 0 2.46-.46 2.46-1.02 0-.57-1.1-1.03-2.46-1.03-1.35 0-2.45.46-2.45 1.03 0 .56 1.1 1.02 2.45 1.02Z" fill="#fff"/><path d="M61.55 40.85V40l4.19-.07v.77c0 .1-.02.2-.05.3-.22.62-1.05.98-1.1 1.64l-.73 9.4.07-.02c.33-.07.61.23.53.55-.1.46-.36.87-.73 1.16l-.04.03a.26.26 0 0 1-.34 0l-.1-.1c-.36-.3-.59-.72-.65-1.18a.42.42 0 0 1 .5-.47l.11.02-.42-9.25-.01-.14c-.09-.74-1.23-1.05-1.23-1.8Z" fill="#CCAE70"/><path d="m61.48 39.94 4.33-.06v.83c0 .52-.4.93-.91.96a3.2 3.2 0 0 0-.24 1l-.73 9.3c.37-.07.69.26.6.63-.11.47-.38.9-.76 1.2l-.04.03c-.13.1-.3.1-.43-.01l-.1-.1a2 2 0 0 1-.67-1.22.49.49 0 0 1 .59-.55h.02l-.42-9.16a1.83 1.83 0 0 0-.45-1.12.82.82 0 0 1-.8-.82v-.9Zm.82 1.66c.3.33.47.75.49 1.19l.42 9.26-.1-.03a.42.42 0 0 0-.51.47c.06.46.3.88.64 1.19l.1.09c.1.08.25.08.35 0l.04-.03c.37-.3.63-.7.73-1.16a.45.45 0 0 0-.53-.55l-.07.02.73-9.4c.03-.36.11-.72.26-1.05a.9.9 0 0 0 .89-.89v-.77l-4.2.07v.84c0 .41.34.75.76.75Z" fill="#fff"/><path fill-rule="evenodd" d="M64.85 41.6a.9.9 0 0 0 .89-.89v-.77l-4.2.07v.84c0 .41.34.75.76.75.3.32.47.74.49 1.19l.42 9.25-.1-.02a.42.42 0 0 0-.51.47c.06.46.3.88.64 1.19l.1.09c.1.08.25.08.34 0l.05-.03c.37-.3.63-.7.73-1.16a.46.46 0 0 0-.53-.55l-.07.01.73-9.39c.03-.36.11-.72.26-1.05Zm-3.03-1.32v.57c0 .26.21.47.48.47h.12l.08.1c.34.37.54.85.56 1.35l.44 9.62-.46-.1a.15.15 0 0 0-.17.16c.06.4.25.76.55 1.02l.1.08.04-.02c.32-.26.54-.61.64-1.01a.18.18 0 0 0-.21-.22l-.43.08.75-9.75c.04-.4.13-.78.3-1.14l.06-.17h.18a.6.6 0 0 0 .61-.6v-.5l-3.64.06Z" fill="#8F714D"/><path d="M63.42 47.28c.09-.18.69-.72.87-.9l-1.15.7.17 1.47c0-.35.03-1.09.11-1.27Zm0 2.2c.09-.18.48-.61.66-.79l-.86.5.18 1.42c0-.35-.06-.94.02-1.13Zm0-4.55c.09-.18.75-.77.93-.95l-1.38.85.17 1.47c0-.35.2-1.19.28-1.37Zm-.06-4.04c1.24.1 2.01-.23 2.25-.4v-.45L61.67 40l-.05.5c.06.08.5.3 1.74.4Z" fill="#8F714D"/><path d="M66.04 39.67c0 .54-1.06.97-2.38.97-1.31 0-2.38-.43-2.38-.97 0-.53 1.07-.97 2.38-.97 1.32 0 2.38.44 2.38.97Z" fill="#6E1516"/><path d="M65.75 39.45c0 .5-.85.87-2.06.87-1.2 0-2.07-.32-2.07-.82 0-.08.28.5 2.07.56 1.8-.05 2.06-.6 2.06-.6Z" fill="#A37623"/><path d="M65.73 38.1c0 .96-.94 1.75-2.1 1.75-1.17 0-2.11-.79-2.11-1.76 0-.83.52-1.3.67-1.53.12-.18 0-.62-.45-1 0 0 .49-.03.86.36a1 1 0 0 1 0-.74c.2-.56.63-.75.87-1.32.26-.62-.23-1.23-.37-1.58 0 0 .75.2.9.94.17-.7-.18-1.21-.18-1.21.57 0 1.62 1.08.59 3.56.6-.77 1.24-.77 1.24-.77s-.78.72-.74 1.53c.03.74.76.77.82 1.76Z" fill="url(#gsjx3jr41)"/><path d="M63.75 31.97h.07c.3 0 .72.29.93.88.2.56.2 1.4-.23 2.54.26-.3.52-.45.73-.53a1.42 1.42 0 0 1 .4-.1h.09l-.07.06-.03.03a2.57 2.57 0 0 0-.35.43c-.19.27-.37.65-.35 1.04.02.34.18.52.36.72 0 .02.02.03.04.05.2.23.4.49.42 1 0 1-.96 1.8-2.14 1.8-1.17 0-2.14-.8-2.14-1.8 0-.7.36-1.14.57-1.4l.11-.15c.05-.08.06-.22-.01-.4a1.53 1.53 0 0 0-.43-.55l-.06-.05h.08l.02-.01a1.01 1.01 0 0 1 .28.03c.14.04.32.1.49.24-.05-.2-.04-.41.04-.63.1-.29.27-.48.43-.67v-.01c.17-.19.33-.37.44-.64.12-.3.07-.6-.04-.87a3.68 3.68 0 0 0-.17-.38l-.03-.04-.13-.27-.03-.07.07.02h.01a1.28 1.28 0 0 1 .4.2c.18.13.38.33.48.62a1.6 1.6 0 0 0-.2-1.01v-.02h-.01l-.04-.06Zm.13.08.02.03a1.67 1.67 0 0 1 .14 1.13l.01.06c.06.19.17.58-.01.97-.1.2-.21.34-.33.49l-.03.02c-.12.16-.26.33-.37.57-.04.08-.06.17-.08.26l-.02.09-.05.17a.77.77 0 0 1-.3.47c.01.1.02.2 0 .32-.04.31-.15.5-.26.64.18-.1.43-.17.77-.2.24-.12.46-.4.63-.7.18-.3.3-.61.38-.82.51-1.23.5-2.11.3-2.68-.18-.53-.54-.79-.8-.82Zm-.37 5.02h.22c.3.02.52.12.65.27a.7.7 0 0 1 .18.52c-.02.37-.3.73-.71.74-.4.01-.64-.16-.72-.38-.07-.22.03-.47.3-.6.21-.1.42-.06.56.03.07.05.12.1.15.17s.04.14 0 .2l-.06-.03a.17.17 0 0 0 0-.14.35.35 0 0 0-.13-.14.5.5 0 0 0-.5-.02c-.23.11-.31.33-.25.51s.27.34.65.34c.36-.01.62-.34.64-.68a.63.63 0 0 0-.16-.47.82.82 0 0 0-.6-.24c-.75-.04-1.14.16-1.3.33l-.1.11a1.4 1.4 0 0 0-.1.97c.07.2.18.4.39.56.2.16.5.28.94.32v.07a1.86 1.86 0 0 1-.98-.34 1.11 1.11 0 0 1-.4-.6 1.46 1.46 0 0 1 .1-1.02 3.5 3.5 0 0 1 .18-.22c.14-.17.28-.33.34-.71a.82.82 0 0 0-.22-.68 1.1 1.1 0 0 0-.75-.34c.2.17.32.36.38.52.07.18.08.35 0 .46l-.11.16c-.21.26-.55.68-.55 1.35 0 .95.92 1.72 2.07 1.72s2.07-.77 2.07-1.72a1.46 1.46 0 0 0-.4-.96l-.05-.04c-.18-.2-.35-.4-.37-.76-.02-.42.17-.8.37-1.1a3.12 3.12 0 0 1 .32-.39h-.01l-.28.08c-.23.1-.53.29-.83.66-.07.2-.2.53-.38.83-.15.26-.34.51-.55.66Zm-.68-.83a.7.7 0 0 0 .26-.41l.05-.18a7.18 7.18 0 0 1 .1-.35c.13-.26.26-.43.4-.59l.01-.03c.12-.15.24-.28.32-.47.18-.37.07-.73.02-.92l-.02-.06c-.07-.36-.3-.6-.5-.73a1.5 1.5 0 0 0-.3-.17l.1.2a9.29 9.29 0 0 1 .2.43c.1.28.17.6.03.91-.12.29-.28.48-.44.66l-.01.02a2 2 0 0 0-.42.64.99.99 0 0 0 0 .7c.07.08.15.2.2.35Z" fill="#fff"/><path d="M65.73 38.13c0 .95-.93 1.72-2.09 1.72-1.16 0-2.1-.77-2.1-1.72s.82-2 1.98-2c1.15 0 2.21 1.18 2.21 2Z" fill="url(#hsjx3jr41)"/><path d="M65.57 38.46c0 .76-.88 1.38-1.97 1.38-1.09 0-1.97-.62-1.97-1.38 0-.76.77-1.6 1.85-1.6 1.09 0 2.09.95 2.09 1.6Z" fill="url(#isjx3jr41)"/><path d="M64.49 38.69c.97-.58 1.03-1.1 1.03-1.33.12.38.66 1.47-.8 2.25-1.13.6-2.3.02-2.7-.38.42.06 1.5.04 2.47-.54Z" fill="url(#jsjx3jr41)"/><path d="M63.74 39.05c1.1.14 1.65-.17 1.8-.35-.17.34-.67 1.33-2.29 1.12-1.49-.2-1.69-1.3-1.75-1.86.28.3 1.13.95 2.24 1.09Z" fill="url(#ksjx3jr41)"/><path d="M63.75 31.97h.07c.3 0 .72.29.93.88.2.56.2 1.4-.23 2.54.26-.3.52-.45.73-.53a1.42 1.42 0 0 1 .4-.1h.09l-.07.06-.03.03a2.57 2.57 0 0 0-.35.43c-.19.27-.37.65-.35 1.04.02.34.18.52.36.72 0 .02.02.03.04.05.2.23.4.49.42 1 0 1-.96 1.8-2.14 1.8-1.17 0-2.14-.8-2.14-1.8 0-.7.36-1.14.57-1.4l.11-.15c.05-.08.06-.22-.01-.4a1.53 1.53 0 0 0-.43-.55l-.06-.05h.08l.02-.01a1.01 1.01 0 0 1 .28.03c.14.04.32.1.49.24-.05-.2-.04-.41.04-.63.1-.29.27-.48.43-.67v-.01c.17-.19.33-.37.44-.64.12-.3.07-.6-.04-.87a3.68 3.68 0 0 0-.17-.38l-.03-.04-.13-.27-.03-.07.07.02h.01a1.28 1.28 0 0 1 .4.2c.18.13.38.33.48.62a1.6 1.6 0 0 0-.2-1.01v-.02h-.01l-.04-.06Zm.13.08.02.03a1.67 1.67 0 0 1 .14 1.13l.01.06c.06.19.17.58-.01.97-.1.2-.21.34-.33.49l-.03.02c-.12.16-.26.33-.37.57-.04.08-.06.17-.08.26l-.02.09-.05.17a.77.77 0 0 1-.3.47c.01.1.02.2 0 .32-.04.31-.15.5-.26.64.18-.1.43-.17.77-.2.24-.12.46-.4.63-.7.18-.3.3-.61.38-.82.51-1.23.5-2.11.3-2.68-.18-.53-.54-.79-.8-.82Zm-.37 5.02h.22c.3.02.52.12.65.27a.7.7 0 0 1 .18.52c-.02.37-.3.73-.71.74-.4.01-.64-.16-.72-.38-.07-.22.03-.47.3-.6.21-.1.42-.06.56.03.07.05.12.1.15.17s.04.14 0 .2l-.06-.03a.17.17 0 0 0 0-.14.35.35 0 0 0-.13-.14.5.5 0 0 0-.5-.02c-.23.11-.31.33-.25.51s.27.34.65.34c.36-.01.62-.34.64-.68a.63.63 0 0 0-.16-.47.82.82 0 0 0-.6-.24c-.75-.04-1.14.16-1.3.33l-.1.11a1.4 1.4 0 0 0-.1.97c.07.2.18.4.39.56.2.16.5.28.94.32v.07a1.86 1.86 0 0 1-.98-.34 1.11 1.11 0 0 1-.4-.6 1.46 1.46 0 0 1 .1-1.02 3.5 3.5 0 0 1 .18-.22c.14-.17.28-.33.34-.71a.82.82 0 0 0-.22-.68 1.1 1.1 0 0 0-.75-.34c.2.17.32.36.38.52.07.18.08.35 0 .46l-.11.16c-.21.26-.55.68-.55 1.35 0 .95.92 1.72 2.07 1.72s2.07-.77 2.07-1.72a1.46 1.46 0 0 0-.4-.96l-.05-.04c-.18-.2-.35-.4-.37-.76-.02-.42.17-.8.37-1.1a3.12 3.12 0 0 1 .32-.39h-.01l-.28.08c-.23.1-.53.29-.83.66-.07.2-.2.53-.38.83-.15.26-.34.51-.55.66Zm-.68-.83a.7.7 0 0 0 .26-.41l.05-.18a7.18 7.18 0 0 1 .1-.35c.13-.26.26-.43.4-.59l.01-.03c.12-.15.24-.28.32-.47.18-.37.07-.73.02-.92l-.02-.06c-.07-.36-.3-.6-.5-.73a1.5 1.5 0 0 0-.3-.17l.1.2a9.29 9.29 0 0 1 .2.43c.1.28.17.6.03.91-.12.29-.28.48-.44.66l-.01.02a2 2 0 0 0-.42.64.99.99 0 0 0 0 .7c.07.08.15.2.2.35Z" fill="#fff"/><path d="M62.56 44.81c0-.36.18-.7.49-.88l1.7-1.06c.11-.07.25 0 .25.13" fill="#540804"/><path d="M62.66 44.9a.5.5 0 0 1 .2-.32l1.81-1.12c.05-.03.12.01.1.07" fill="#AD782D"/><path d="M62.8 47.06c0-.3.16-.57.4-.72l1.39-.86c.09-.05.2 0 .2.11" fill="#540804"/><path d="M62.9 47.13c.02-.11.08-.2.17-.26l1.46-.91c.04-.03.1 0 .09.05" fill="#AD782D"/><path d="M62.91 49.23a.6.6 0 0 1 .3-.52l1.11-.63a.1.1 0 0 1 .14.08" fill="#540804"/><path d="M62.98 49.28a.26.26 0 0 1 .13-.19l1.15-.66c.03-.02.07 0 .06.04" fill="#AD782D"/><path d="M63.01 51.1c0-.17.1-.33.24-.4l.94-.5c.05-.03.1 0 .1.06" fill="#540804"/><path d="M63.07 51.13a.2.2 0 0 1 .1-.15l.96-.51c.03-.01.05 0 .05.03" fill="#AD782D"/><path d="M59.42 28.06c0-.42.34-.76.76-.76h6.53a.76.76 0 1 1 0 1.52h-6.53a.76.76 0 0 1-.76-.76Z" fill="url(#lsjx3jr41)"/><path d="M60.18 27.02h6.53a1.03 1.03 0 0 1 0 2.07h-6.53a1.03 1.03 0 1 1 0-2.07Zm0 .28a.76.76 0 0 0 0 1.52h6.53a.76.76 0 1 0 0-1.52h-6.53Z" fill="#420000"/><path d="m62.22 29.06-1.13-1.86.23-.14 1.13 1.86-.23.14Zm1.22 0L62.3 27.2l.23-.14 1.13 1.86-.23.14Zm1.24 0-1.13-1.86.23-.14 1.13 1.86-.23.14Zm1.13 0-1.13-1.86.24-.14 1.12 1.86-.23.14Z" fill="#420000"/><path d="M61.69 26.8h3.05c-.29-.64-2.47-2.9-2.84-3.17-.3-.22-.42-.77-.44-1.02 0-.35-.06-1.02-.31-.94-.15.04.1.54-.15.77l-1.07.9c.24.03.72.22.78.73a8.9 8.9 0 0 0 .98 2.74Z" fill="#CCAE70"/><path d="M59.43 22.44c-.16.2-.06.35 0 .4l.13-.12a.15.15 0 0 1 .16-.03l.4.18a.1.1 0 0 0 .1-.16l-.38-.27.14-.14.41.26a.1.1 0 0 0 .12-.18l-.36-.3.08-.1.41.32a.1.1 0 0 0 .12-.14l-.36-.35.07-.1c.1.1.26.2.36.27.04.03.1.02.13-.01a.07.07 0 0 0 .02-.06c-.03-.18-.3-.47-.48-.47-.17-.01-.28.15-.32.23a.47.47 0 0 0-.44.38c-.19.11-.11.14-.3.4Z" fill="#CCAE70"/><path d="m46.22 54.38 3.52 3.08 2.07 2.4-2.73 2.74c-1.81-.73-4.95-3.81-5.9-5.23.47.07 1.87.23 3.75.37-.41-.7-.64-2.53-.7-3.36Z" fill="#5B0007"/><path d="m45.74 53.41 4.29 3.76 2.34 2.7-3.19 3.21-.25-.1c-.98-.4-2.27-1.4-3.4-2.44a19.25 19.25 0 0 1-2.69-2.94l-.5-.76.9.13c.4.05 1.52.18 3.06.3a14.82 14.82 0 0 1-.48-2.86l-.08-1Zm1 1.98.11.65c.12.65.27 1.21.44 1.48l.4.68-.79-.05a85.28 85.28 0 0 1-2.8-.26 21.9 21.9 0 0 0 1.99 2.05 14.2 14.2 0 0 0 2.9 2.17l2.26-2.27-1.8-2.09-2.7-2.36Z" fill="#CAAF70"/><path d="M48.93 58.54h.82v2.54l1.72-1.65.57.6-3.11 2.96v-4.45Z" fill="#CAAF70"/><path d="m81.06 54.39-3.5 3.07-2.08 2.4 2.73 2.74c1.8-.73 4.95-3.8 5.9-5.22-.47.06-1.87.22-3.75.36.41-.7.64-2.52.7-3.35Z" fill="#5B0007"/><path d="m81.55 53.41-4.29 3.76-2.34 2.71 3.19 3.2.25-.1c.98-.4 2.27-1.4 3.4-2.43a19.26 19.26 0 0 0 2.69-2.95l.5-.75-.9.12c-.4.05-1.52.18-3.06.3a15.33 15.33 0 0 0 .48-2.85l.08-1Zm-1 1.98-.11.65a5.2 5.2 0 0 1-.44 1.49l-.4.68.79-.06a85.3 85.3 0 0 0 2.8-.25 23.2 23.2 0 0 1-1.99 2.04 14.2 14.2 0 0 1-2.9 2.17l-2.26-2.27 1.8-2.09 2.7-2.36Z" fill="#CAAF70"/><path d="M77.95 58.55v3.49l-2.41-2.3" stroke="#CAAF70" stroke-width=".82"/><path d="m51.96 54.02-3 4.52c3.15 1.9 6.3 4.42 14.68 4.42 6.68 0 10.3-1.56 14.74-4.4l-3-4.48c-1.38.67-7.72 3.36-11.74 3.36-3.67 0-10.13-2.4-11.68-3.42Z" fill="#5B0007"/><path fill-rule="evenodd" d="m48.95 58.54.76.47.17.1c2.9 1.8 6.2 3.85 13.76 3.85 6.3 0 9.87-1.39 13.99-3.93l.75-.47-3-4.48c-1.38.67-7.72 3.36-11.74 3.36-3.67 0-10.13-2.4-11.68-3.42l-3 4.52Zm1.25-.28.18.11c1.28.8 2.57 1.6 4.28 2.26 2.11.83 4.88 1.44 8.98 1.44 3.27 0 5.75-.38 7.93-1.1a25.41 25.41 0 0 0 5.57-2.68l-2.07-3.09a51.5 51.5 0 0 1-4.29 1.66c-2.27.76-4.98 1.47-7.14 1.47-1.98 0-4.62-.64-6.9-1.37a34.05 34.05 0 0 1-4.5-1.76l-2.04 3.06Z" fill="#CAAF70"/><path d="m73.02 57.46 1.02 1.4.49-.22-.13-.96h.02l.61.72.48-.23a47.5 47.5 0 0 0-.33-1.72l-.5.25a78.72 78.72 0 0 1 .27 1v.01l-.66-.82-.37.18a52.52 52.52 0 0 1 .14 1.05l-.54-.87-.5.2Zm-20.87.08a.6.6 0 0 0-.06.2c0 .06 0 .1.03.15.02.04.06.08.11.1.05.03.1.04.14.03.05 0 .09-.03.12-.06a.35.35 0 0 0 .08-.12l.48.22-.02.04-.01.03a.54.54 0 0 1-.22.26.61.61 0 0 1-.34.09.98.98 0 0 1-.4-.11.97.97 0 0 1-.38-.3.68.68 0 0 1-.13-.37c0-.14.03-.28.1-.42l.03-.07.03-.07a.88.88 0 0 1 .27-.33c.1-.08.23-.12.36-.13a1.04 1.04 0 0 1 .68.28.6.6 0 0 1 .17.22.6.6 0 0 1 .02.5l-.01.02v.02l-.02.02v.01l-.47-.21.03-.15a.24.24 0 0 0-.03-.13.24.24 0 0 0-.1-.09.22.22 0 0 0-.15-.02.26.26 0 0 0-.13.07.58.58 0 0 0-.11.18l-.03.05-.04.09Zm2.46 1.52a.63.63 0 0 1-.36.16.99.99 0 0 1-.48-.08c-.17-.07-.3-.16-.4-.27a.68.68 0 0 1-.16-.37.84.84 0 0 1 .06-.42l.07-.16a.86.86 0 0 1 .24-.34c.1-.09.22-.14.36-.15.14-.01.28.01.45.08.16.07.28.15.38.25.09.11.14.23.16.36a.9.9 0 0 1-.04.43l-.05.13v.02a.82.82 0 0 1-.23.36Zm-.2-.92a.28.28 0 0 0-.05-.15.25.25 0 0 0-.12-.1.25.25 0 0 0-.15-.01.27.27 0 0 0-.13.08.53.53 0 0 0-.1.18l-.03.06-.04.1a.54.54 0 0 0-.04.2c0 .06.01.12.04.16.03.04.07.07.13.1.05.02.1.02.15.01.05-.01.1-.04.14-.08a.6.6 0 0 0 .1-.18l.02-.06.04-.1a.55.55 0 0 0 .04-.2Zm1.63 1.07c-.02.09-.06.14-.12.17a.24.24 0 0 1-.18 0 .26.26 0 0 1-.15-.1c-.03-.06-.03-.13 0-.22l.26-.84.04-.14-.5-.17-.35 1.05a.56.56 0 0 0 0 .34c.03.1.1.2.2.29.1.08.22.15.38.2.16.05.3.07.43.06a.59.59 0 0 0 .32-.13.54.54 0 0 0 .18-.28c.1-.43.17-.64.28-1.07l-.5-.15-.15.5-.14.49Zm2.2-.4c.1.06.16.14.19.24a.6.6 0 0 1-.08.54.56.56 0 0 1-.3.18l.22.7-.6-.14c-.06-.25-.1-.37-.15-.62h-.03l-.1-.03-.13.55-.53-.14.42-1.63.75.19a.9.9 0 0 1 .35.15Zm-.59.58c.06.01.11.01.16-.01s.09-.07.1-.14a.21.21 0 0 0-.03-.16.24.24 0 0 0-.14-.09l-.18-.04-.1.4.2.04Zm1.53-.47c-.26.53-.53 1.05-.82 1.56.22.05.32.07.54.1l.13-.3.48.09.01.1.02.23.58.08-.29-1.75-.65-.1Zm0 1.02.23-.54h.03l.04.6a26.2 26.2 0 0 1-.3-.06Zm2.2-.13a.22.22 0 0 0-.06-.14.23.23 0 0 0-.07-.05.3.3 0 0 0-.1-.03c-.09 0-.16.02-.2.08a.46.46 0 0 0-.1.26l-.02.17a.7.7 0 0 0 0 .19c.02.05.04.1.08.14.03.04.1.07.17.08.06 0 .1 0 .15-.02a.2.2 0 0 0 .08-.07.19.19 0 0 0 .04-.1v-.01l-.21-.02.02-.35.72.06-.01.16-.01.16a.7.7 0 0 1-.06.24.57.57 0 0 1-.15.2.64.64 0 0 1-.25.14.98.98 0 0 1-.37.02 1 1 0 0 1-.38-.1.66.66 0 0 1-.35-.48.96.96 0 0 1 0-.3v-.1l.01-.08a.85.85 0 0 1 .14-.39c.08-.1.18-.18.3-.24a.9.9 0 0 1 .44-.05 1 1 0 0 1 .33.08c.09.04.16.1.21.16a.6.6 0 0 1 .16.43l-.51-.04Zm.73 1.16c.51.03.77.04 1.28.04v-.4c-.29 0-.43 0-.72-.02v-.26l.68.02v-.37l-.66-.01.01-.27.7.02v-.4c-.48 0-.72-.01-1.2-.04l-.04.84-.05.85Zm2.5.03-.03-.64-.02-.63h-.43v-.2l-.01-.2c.55-.02.82-.03 1.37-.07l.02.2.01.21-.43.03.07 1.27-.55.03Zm2.45-.28c.11-.08.2-.18.24-.31a.85.85 0 0 0 .04-.43v-.08l-.02-.08a.9.9 0 0 0-.15-.4.67.67 0 0 0-.3-.24.91.91 0 0 0-.45-.04.92.92 0 0 0-.42.14.67.67 0 0 0-.25.3.9.9 0 0 0-.06.43l.01.16c.02.16.06.3.13.4.07.12.18.2.3.26.14.05.3.07.48.05a.97.97 0 0 0 .45-.16Zm-.45-1.15c.05.03.08.07.1.12a.4.4 0 0 1 .07.2v.08l.02.1-.01.2a.27.27 0 0 1-.08.14.26.26 0 0 1-.15.06c-.05 0-.1 0-.15-.03a.26.26 0 0 1-.1-.12.55.55 0 0 1-.06-.2v-.08l-.02-.1c0-.07 0-.14.02-.2a.2.2 0 0 1 .08-.13.25.25 0 0 1 .14-.06c.05 0 .1 0 .14.02Zm2.57-.12c.3.32.47.48.8.79l-.63.14c-.2-.2-.3-.3-.49-.52l-.1.17.1.46-.55.1-.14-.83-.14-.83.5-.1.13.65h.03l.35-.76.53-.13a23 23 0 0 1-.4.86Zm.96.74Zm.49-.13a23 23 0 0 1-.5.13l-.15-.67-.24-.97.38-.1.78.63.02-.01-.11-.4-.11-.39.46-.14.24.8.24.82a23 23 0 0 1-.4.12l-.8-.63h-.02l.09.33.12.48Zm2.7-1.28a.68.68 0 0 1-.17.37c-.1.1-.23.19-.4.26a.98.98 0 0 1-.48.06.64.64 0 0 1-.36-.17.82.82 0 0 1-.21-.36l-.05-.16a.9.9 0 0 1-.04-.43.69.69 0 0 1 .18-.35 1 1 0 0 1 .39-.24.94.94 0 0 1 .44-.07c.14.02.26.07.36.16.1.09.17.2.23.35l.06.16c.06.15.07.29.06.42Zm-.73-.56a.27.27 0 0 0-.13-.08.25.25 0 0 0-.15 0 .26.26 0 0 0-.12.1.28.28 0 0 0-.05.15c0 .06 0 .13.03.2l.06.17c.02.08.05.14.1.18a.2.2 0 0 0 .12.09c.05.01.1 0 .16-.01.06-.02.1-.05.13-.1a.33.33 0 0 0 .05-.15.55.55 0 0 0-.04-.2l-.06-.17a.55.55 0 0 0-.1-.18Z" fill="#C6AA69"/><path d="M122.03 29.8c-5.03 0-9.23 4.94-9.23 11.2 0 6.26 4.2 11.2 9.23 11.2a10 10 0 0 0 9.2-5.82.4.4 0 0 1 .74.32 10.8 10.8 0 0 1-9.94 6.3c-5.6 0-10.03-5.45-10.03-12s4.42-12 10.03-12c4.41 0 8.1 3.39 9.46 8a.4.4 0 0 1-.77.23c-1.28-4.37-4.72-7.43-8.69-7.43Zm-24.34 0c-5.02 0-9.23 5.06-9.23 11.5 0 6.43 4.2 11.5 9.23 11.5a.4.4 0 0 1 0 .8c-5.62 0-10.03-5.6-10.03-12.3 0-6.71 4.41-12.3 10.03-12.3 4.42 0 8.1 3.48 9.47 8.2a.4.4 0 0 1-.77.23c-1.3-4.5-4.74-7.63-8.7-7.63Z" fill="#fff"/><path d="M120.72 28.8c-4.96 0-9.23 3.34-10.94 8.1a.4.4 0 0 1-.76-.28c1.81-5.03 6.36-8.62 11.7-8.62 2.12 0 3.96.57 5.44 1.03l1.17.35a3.8 3.8 0 0 0 1.96.17c.45-.12.86-.46 1.19-1.3a.4.4 0 0 1 .74.3c-.39.99-.95 1.56-1.71 1.77a4.6 4.6 0 0 1-2.39-.17c-.4-.1-.82-.24-1.26-.37a16.83 16.83 0 0 0-5.14-.98ZM110.1 47.84a.4.4 0 0 1 .54.16 11.6 11.6 0 0 0 10.1 6.2c2.9 0 5.74-.85 8-2.41a.4.4 0 1 1 .45.66 15.03 15.03 0 0 1-8.46 2.55c-4.6 0-8.6-2.66-10.79-6.61a.4.4 0 0 1 .16-.55ZM96 28.8c-4.97 0-9.24 3.35-10.95 8.1a.4.4 0 0 1-.75-.26C86.1 31.6 90.65 28 96 28c2.11 0 3.96.57 5.44 1.03.42.13.8.26 1.16.35.84.23 1.47.31 1.97.18.44-.13.85-.47 1.18-1.3a.4.4 0 0 1 .75.3c-.4.98-.96 1.55-1.72 1.76a4.6 4.6 0 0 1-2.39-.17c-.4-.1-.82-.23-1.26-.37A16.65 16.65 0 0 0 96 28.8ZM99.06 40h11.57l.1.74A4.71 4.71 0 0 0 108 42.8v9.8l-.24.12c-1.2.9-3.23 1.57-5.54 1.94-2.33.38-5 .47-7.52.17-4.53-.55-8.16-3.72-9.82-7.99a.41.41 0 0 1 .22-.53.4.4 0 0 1 .51.22c1.57 4.03 4.97 6.98 9.19 7.48 2.44.3 5.04.21 7.3-.15 2.16-.35 3.83-.95 4.9-1.68v-9.59c.38-.73 1.14-1.12 1.82-1.59h-9.77c-.22 0-.42-.27-.42-.5 0-.23.2-.5.43-.5Z" fill="#fff"/><path d="M145.94 55.08c-3.17 0-5.58-.6-7.23-1.8-1.65-1.2-2.48-3.16-2.48-5.89V31.83c0-.43-.18-.76-.54-.97a2.7 2.7 0 0 0-1.4-.33h-.83v-.97h9.06v.97h-.83c-.57 0-1.04.11-1.4.33-.36.21-.54.54-.54.97v15.81c0 2.23.61 3.79 1.84 4.67 1.24.87 2.95 1.3 5.13 1.3 1.95 0 3.56-.45 4.86-1.33 1.3-.91 1.94-2.46 1.94-4.64V31.83c0-.43-.18-.76-.54-.97-.34-.22-.8-.33-1.4-.33h-.8v-.97h7.3v.97h-.83c-.57 0-1.04.11-1.4.33-.36.21-.53.54-.53.97v15.56c0 2.66-.8 4.61-2.41 5.86-1.6 1.22-3.93 1.83-6.97 1.83Z" fill="#E5E5E5"/><defs><linearGradient id="asjx3jr41" x1="69.54" y1="14.24" x2="65.31" y2="18.05" gradientUnits="userSpaceOnUse"><stop stop-color="#62540F"/><stop offset=".14" stop-color="#FCE61B"/><stop offset=".41" stop-color="#D0290A"/><stop offset=".7" stop-color="#FCE61B"/></linearGradient><linearGradient id="bsjx3jr41" x1="67.29" y1="16.27" x2="65.31" y2="18.05" gradientUnits="userSpaceOnUse"><stop offset=".11" stop-color="#620B05" stop-opacity="0"/><stop offset=".34" stop-color="#C8170A"/></linearGradient><linearGradient id="csjx3jr41" x1="66.82" y1="16.65" x2="65.29" y2="18.02" gradientUnits="userSpaceOnUse"><stop stop-color="#998F10" stop-opacity="0"/><stop offset="1" stop-color="#FFEE1B"/></linearGradient><linearGradient id="dsjx3jr41" x1="65.97" y1="17.46" x2="65.32" y2="18.05" gradientUnits="userSpaceOnUse"><stop offset=".31" stop-color="#65510F" stop-opacity="0"/><stop offset=".68" stop-color="#65510F"/></linearGradient><linearGradient id="esjx3jr41" x1="66.1" y1="17.82" x2="65.84" y2="18.41" gradientUnits="userSpaceOnUse"><stop stop-color="#65510F" stop-opacity="0"/><stop offset=".68" stop-color="#65510F"/></linearGradient><linearGradient id="fsjx3jr41" x1="65.72" y1="17.52" x2="65.11" y2="17.76" gradientUnits="userSpaceOnUse"><stop offset=".19" stop-color="#65510F" stop-opacity="0"/><stop offset=".68" stop-color="#65510F"/></linearGradient><linearGradient id="gsjx3jr41" x1="63.62" y1="32.01" x2="63.62" y2="39.85" gradientUnits="userSpaceOnUse"><stop stop-color="#62540F"/><stop offset=".14" stop-color="#FCE61B"/><stop offset=".41" stop-color="#D0290A"/><stop offset=".7" stop-color="#FCE61B"/></linearGradient><linearGradient id="hsjx3jr41" x1="63.64" y1="36.18" x2="63.64" y2="39.85" gradientUnits="userSpaceOnUse"><stop offset=".11" stop-color="#620B05" stop-opacity="0"/><stop offset=".34" stop-color="#C8170A"/></linearGradient><linearGradient id="isjx3jr41" x1="63.6" y1="37.01" x2="63.6" y2="39.84" gradientUnits="userSpaceOnUse"><stop stop-color="#998F10" stop-opacity="0"/><stop offset="1" stop-color="#FFEE1B"/></linearGradient><linearGradient id="jsjx3jr41" x1="64.13" y1="38.83" x2="64.48" y2="39.64" gradientUnits="userSpaceOnUse"><stop stop-color="#65510F" stop-opacity="0"/><stop offset=".68" stop-color="#65510F"/></linearGradient><linearGradient id="ksjx3jr41" x1="63.47" y1="38.95" x2="63.15" y2="39.8" gradientUnits="userSpaceOnUse"><stop offset=".19" stop-color="#65510F" stop-opacity="0"/><stop offset=".68" stop-color="#65510F"/></linearGradient><linearGradient id="lsjx3jr41" x1="64.13" y1="27.3" x2="64.11" y2="28.82" gradientUnits="userSpaceOnUse"><stop stop-color="#F8F32E"/><stop offset=".47" stop-color="#DEB147"/><stop offset="1" stop-color="#D1CC73"/></linearGradient></defs></svg>