<svg width="659" height="280" viewBox="0 0 659 280" fill="none" xmlns="http://www.w3.org/2000/svg">
<g clip-path="url(#clip0_9598_71975)">
<rect width="659" height="280" fill="black"/>
<path d="M0 24C0 10.7452 10.7452 0 24 0H555C568.255 0 579 10.7452 579 24V280H0V24Z" fill="url(#paint0_linear_9598_71975)" fill-opacity="0.4"/>
<path d="M114.879 59.9998V45.8566H118.198V48.2827H118.278C118.491 47.4384 118.882 46.7764 119.451 46.2965C120.02 45.8166 120.713 45.5767 121.531 45.5767C121.744 45.5767 121.939 45.59 122.117 45.6167C122.304 45.6433 122.464 45.67 122.597 45.6966V48.6959C122.455 48.6426 122.264 48.5981 122.024 48.5626C121.784 48.5271 121.522 48.5093 121.237 48.5093C120.606 48.5093 120.06 48.6381 119.598 48.8958C119.145 49.1536 118.798 49.5268 118.558 50.0156C118.318 50.5043 118.198 51.0953 118.198 51.7885V59.9998H114.879Z" fill="white"/>
<path d="M105.953 60.2796C104.549 60.2796 103.335 59.9819 102.314 59.3865C101.3 58.7911 100.518 57.9469 99.9674 56.8538C99.4253 55.7519 99.1543 54.4544 99.1543 52.9614V52.9481C99.1543 51.464 99.4253 50.171 99.9674 49.069C100.518 47.9582 101.292 47.0962 102.287 46.483C103.282 45.8698 104.455 45.5632 105.806 45.5632C107.148 45.5632 108.308 45.8609 109.285 46.4563C110.272 47.0429 111.027 47.8693 111.551 48.9357C112.084 50.0021 112.351 51.2463 112.351 52.6682V53.7479H100.794V51.5218H110.765L109.165 53.5879V52.3083C109.165 51.384 109.023 50.6153 108.739 50.0021C108.454 49.389 108.063 48.9313 107.566 48.6291C107.068 48.3181 106.49 48.1626 105.833 48.1626C105.184 48.1626 104.602 48.3226 104.086 48.6425C103.58 48.9624 103.18 49.4334 102.887 50.0555C102.593 50.6687 102.447 51.4196 102.447 52.3083V53.6013C102.447 54.4633 102.589 55.2009 102.873 55.8141C103.167 56.4184 103.58 56.8849 104.113 57.2137C104.655 57.5336 105.295 57.6936 106.033 57.6936C106.584 57.6936 107.068 57.6092 107.486 57.4403C107.903 57.2626 108.245 57.036 108.512 56.7605C108.787 56.485 108.974 56.1917 109.072 55.8807L109.112 55.7874H112.204L112.178 55.9207C112.062 56.4628 111.849 56.996 111.538 57.5203C111.227 58.0357 110.809 58.5023 110.285 58.92C109.769 59.3376 109.147 59.6709 108.419 59.9197C107.699 60.1597 106.877 60.2796 105.953 60.2796Z" fill="white"/>
<path d="M85.9756 59.9998V40.7378H89.2948V59.9998H85.9756ZM94.8934 59.9998L90.1612 53.5613L92.294 51.1353L98.7325 59.9998H94.8934ZM88.8149 55.5875L88.8016 51.7218H89.3748L94.6535 45.8565H98.4792L91.9075 52.9881L91.2676 53.0281L88.8149 55.5875Z" fill="white"/>
<path d="M76.4493 60.2796C75.063 60.2796 73.8544 59.9864 72.8235 59.3999C71.8016 58.8044 71.0062 57.9602 70.4375 56.8671C69.8776 55.7652 69.5977 54.4544 69.5977 52.9348V52.9081C69.5977 51.3885 69.882 50.0821 70.4508 48.9891C71.0195 47.8871 71.8149 47.0429 72.8369 46.4563C73.8677 45.8609 75.0674 45.5632 76.436 45.5632C77.8134 45.5632 79.0131 45.8609 80.0351 46.4563C81.066 47.0429 81.8658 47.8827 82.4345 48.9757C83.0033 50.0688 83.2876 51.3796 83.2876 52.9081V52.9348C83.2876 54.4633 83.0033 55.7785 82.4345 56.8805C81.8747 57.9735 81.0837 58.8133 80.0618 59.3999C79.0398 59.9864 77.8356 60.2796 76.4493 60.2796ZM76.4626 57.6003C77.1647 57.6003 77.7734 57.4181 78.2889 57.0538C78.8043 56.6805 79.1998 56.1473 79.4752 55.4542C79.7596 54.761 79.9018 53.9212 79.9018 52.9348V52.9081C79.9018 51.9217 79.7596 51.0819 79.4752 50.3887C79.1909 49.6956 78.7865 49.1668 78.2622 48.8024C77.7468 48.4381 77.138 48.2559 76.436 48.2559C75.7428 48.2559 75.1341 48.4425 74.6098 48.8158C74.0943 49.1801 73.6944 49.7089 73.4101 50.4021C73.1257 51.0863 72.9835 51.9217 72.9835 52.9081V52.9348C72.9835 53.9212 73.1257 54.7654 73.4101 55.4675C73.6944 56.1606 74.0943 56.6894 74.6098 57.0538C75.1341 57.4181 75.7517 57.6003 76.4626 57.6003Z" fill="white"/>
<path d="M60.9111 59.9998V45.8566H64.2303V48.2827H64.3103C64.5236 47.4384 64.9146 46.7764 65.4834 46.2965C66.0521 45.8166 66.7453 45.5767 67.5628 45.5767C67.7761 45.5767 67.9716 45.59 68.1494 45.6167C68.336 45.6433 68.4959 45.67 68.6292 45.6966V48.6959C68.4871 48.6426 68.296 48.5981 68.0561 48.5626C67.8161 48.5271 67.554 48.5093 67.2696 48.5093C66.6386 48.5093 66.0921 48.6381 65.63 48.8958C65.1768 49.1536 64.8302 49.5268 64.5902 50.0156C64.3503 50.5043 64.2303 51.0953 64.2303 51.7885V59.9998H60.9111Z" fill="white"/>
<path d="M45.4393 59.9997V57.3337H50.9979C52.2599 57.3337 53.2196 57.0804 53.8772 56.5739C54.5438 56.0673 54.877 55.3297 54.877 54.3611V54.3344C54.877 53.6857 54.7215 53.1436 54.4104 52.7082C54.1083 52.2638 53.6551 51.9306 53.0508 51.7084C52.4465 51.4862 51.7 51.3751 50.8113 51.3751H45.4393V48.8958H50.2515C51.4956 48.8958 52.442 48.6514 53.0908 48.1626C53.7395 47.6738 54.0639 46.9762 54.0639 46.0698V46.0431C54.0639 45.2078 53.7795 44.5635 53.2107 44.1103C52.6509 43.657 51.86 43.4304 50.838 43.4304H45.4393V40.7644H51.6911C52.8642 40.7644 53.8817 40.9644 54.7437 41.3643C55.6057 41.7553 56.2722 42.3107 56.7432 43.0305C57.2231 43.7503 57.463 44.599 57.463 45.5766V45.6032C57.463 46.2964 57.3031 46.9451 56.9832 47.5494C56.6721 48.1448 56.2411 48.6469 55.6901 49.0557C55.148 49.4556 54.5304 49.7044 53.8373 49.8022V49.8688C54.7437 49.9488 55.5391 50.1977 56.2233 50.6153C56.9076 51.033 57.4364 51.5795 57.8096 52.2549C58.1917 52.9214 58.3828 53.6813 58.3828 54.5344V54.561C58.3828 55.6808 58.1162 56.6494 57.583 57.467C57.0498 58.2757 56.29 58.9022 55.3036 59.3465C54.326 59.782 53.153 59.9997 51.7844 59.9997H45.4393ZM43.7197 59.9997V40.7644H47.1456V59.9997H43.7197Z" fill="white"/>
<rect x="131" y="39" width="91" height="23" rx="6" fill="url(#paint1_linear_9598_71975)"/>
<path d="M201.615 55.6177V46H203.848L206.561 53.1116H206.674L209.38 46H211.613V55.6177H209.873V49.0126H208.913L210.786 46.2666L207.241 55.6177H205.994L202.448 46.2666L204.321 49.0126H203.361V55.6177H201.615Z" fill="white"/>
<path d="M195.377 55.8643C194.559 55.8643 193.848 55.7154 193.244 55.4177C192.644 55.12 192.18 54.7045 191.851 54.1713C191.526 53.6381 191.364 53.0161 191.364 52.3051V46H193.317V52.1318C193.317 52.5495 193.397 52.9139 193.557 53.2249C193.717 53.5315 193.95 53.7714 194.257 53.9447C194.563 54.1136 194.937 54.198 195.377 54.198C195.817 54.198 196.19 54.1136 196.496 53.9447C196.803 53.7714 197.036 53.5315 197.196 53.2249C197.356 52.9139 197.436 52.5495 197.436 52.1318V46H199.389V52.3051C199.389 53.0116 199.225 53.6337 198.896 54.1713C198.571 54.7045 198.109 55.12 197.509 55.4177C196.91 55.7154 196.199 55.8643 195.377 55.8643Z" fill="white"/>
<path d="M181.007 55.6177V46H182.646L187.639 52.9183L186.279 52.2251H187.252V46H189.125V55.6177H187.492L182.486 48.6793L183.853 49.3725H182.88V55.6177H181.007Z" fill="white"/>
<path d="M176.861 55.6177V46H178.814V55.6177H176.861Z" fill="white"/>
<path d="M170.383 55.6177V47.6196H167.477V46H175.235V47.6196H172.335V55.6177H170.383Z" fill="white"/>
<path d="M158.639 55.6177L161.991 46H163.651V47.8929H163.078L160.692 55.6177H158.639ZM160.412 53.2516L160.898 51.7853H165.337L165.817 53.2516H160.412ZM165.577 55.6177L163.191 47.8929V46H164.271L167.63 55.6177H165.577Z" fill="white"/>
<path d="M151.414 55.6177V46H153.367V53.998H157.673V55.6177H151.414Z" fill="white"/>
<path d="M143.356 52.5584V51.0188H145.842C146.424 51.0188 146.877 50.8699 147.201 50.5722C147.53 50.2701 147.695 49.8435 147.695 49.2925V49.2792C147.695 48.7238 147.53 48.2994 147.201 48.0062C146.877 47.7085 146.424 47.5596 145.842 47.5596H143.356V46H146.315C146.986 46 147.572 46.1355 148.075 46.4066C148.577 46.6776 148.968 47.0597 149.248 47.553C149.532 48.0417 149.674 48.6149 149.674 49.2725V49.2859C149.674 49.9435 149.532 50.5189 149.248 51.0121C148.968 51.5009 148.577 51.8808 148.075 52.1518C147.572 52.4229 146.986 52.5584 146.315 52.5584H143.356ZM142.376 55.6177V46H144.329V55.6177H142.376Z" fill="white"/>
<path d="M195.49 90.0522C194.84 90.0522 194.272 89.9558 193.784 89.7628C193.297 89.5698 192.908 89.3007 192.619 88.9554C192.329 88.6101 192.159 88.2089 192.108 87.7519V87.7366H193.708V87.7519C193.815 88.0667 194.02 88.3231 194.325 88.5212C194.63 88.7142 195.031 88.8106 195.529 88.8106C195.874 88.8106 196.179 88.7624 196.443 88.6659C196.707 88.5644 196.912 88.4272 197.06 88.2546C197.212 88.0769 197.288 87.8737 197.288 87.6452V87.63C197.288 87.3659 197.181 87.145 196.968 86.9673C196.755 86.7845 196.407 86.6347 195.925 86.5179L194.614 86.2132C194.096 86.0964 193.667 85.939 193.327 85.7409C192.992 85.5378 192.743 85.289 192.581 84.9944C192.418 84.6948 192.337 84.347 192.337 83.9509V83.9433C192.337 83.4659 192.474 83.0419 192.748 82.6712C193.022 82.3005 193.398 82.011 193.876 81.8028C194.358 81.5896 194.906 81.4829 195.521 81.4829C196.14 81.4829 196.681 81.5794 197.143 81.7724C197.611 81.9603 197.981 82.2269 198.255 82.5722C198.53 82.9124 198.692 83.306 198.743 83.7528V83.7604H197.212V83.7528C197.136 83.4583 196.95 83.2146 196.656 83.0216C196.366 82.8235 195.986 82.7245 195.513 82.7245C195.209 82.7245 194.937 82.7728 194.698 82.8692C194.465 82.9606 194.277 83.0927 194.135 83.2653C193.997 83.4329 193.929 83.631 193.929 83.8595V83.8747C193.929 84.0474 193.975 84.1997 194.066 84.3317C194.157 84.4638 194.3 84.5806 194.493 84.6821C194.691 84.7786 194.945 84.8649 195.254 84.9411L196.557 85.2458C197.085 85.3677 197.522 85.5276 197.867 85.7257C198.212 85.9237 198.469 86.1675 198.636 86.4569C198.809 86.7464 198.895 87.0892 198.895 87.4853V87.5005C198.895 88.0083 198.746 88.4552 198.446 88.8411C198.151 89.222 197.748 89.519 197.235 89.7323C196.727 89.9456 196.146 90.0522 195.49 90.0522Z" fill="#D1D4DC"/>
<path d="M187.397 90.0522C186.595 90.0522 185.904 89.8796 185.325 89.5343C184.751 89.1839 184.31 88.6913 184 88.0565C183.69 87.4167 183.535 86.6626 183.535 85.7942V85.7866C183.535 84.9284 183.69 84.1769 184 83.5319C184.31 82.887 184.749 82.3843 185.318 82.0237C185.886 81.6632 186.552 81.4829 187.313 81.4829C188.08 81.4829 188.74 81.6556 189.294 82.0009C189.847 82.3462 190.271 82.8312 190.566 83.4558C190.865 84.0753 191.015 84.7989 191.015 85.6267V86.1903H184.35V85.0325H190.223L189.454 86.1065V85.4743C189.454 84.87 189.362 84.3724 189.179 83.9813C188.997 83.5853 188.745 83.2907 188.425 83.0978C188.105 82.9048 187.737 82.8083 187.321 82.8083C186.904 82.8083 186.531 82.9099 186.201 83.113C185.876 83.3161 185.617 83.6157 185.424 84.0118C185.236 84.4079 185.142 84.8954 185.142 85.4743V86.1065C185.142 86.6601 185.234 87.1323 185.417 87.5233C185.604 87.9144 185.871 88.214 186.216 88.4222C186.562 88.6304 186.968 88.7345 187.435 88.7345C187.791 88.7345 188.098 88.6837 188.357 88.5821C188.621 88.4806 188.837 88.3562 189.004 88.2089C189.172 88.0616 189.289 87.9144 189.355 87.7671L189.378 87.7062H190.924L190.909 87.7671C190.837 88.0413 190.713 88.313 190.535 88.5821C190.358 88.8513 190.124 89.0976 189.835 89.321C189.545 89.5444 189.197 89.7222 188.791 89.8542C188.385 89.9862 187.92 90.0522 187.397 90.0522Z" fill="#D1D4DC"/>
<path d="M178.489 89.9V81.6354H180.081V82.8846H180.203C180.355 82.4428 180.617 82.1026 180.988 81.8639C181.363 81.6202 181.826 81.4983 182.374 81.4983C182.511 81.4983 182.643 81.5059 182.77 81.5211C182.902 81.5313 183.009 81.5465 183.09 81.5668V83.0446C182.943 83.0141 182.798 82.9913 182.656 82.976C182.514 82.9608 182.366 82.9532 182.214 82.9532C181.793 82.9532 181.422 83.0344 181.102 83.1969C180.782 83.3594 180.531 83.5905 180.348 83.8901C180.17 84.1846 180.081 84.5299 180.081 84.926V89.9H178.489Z" fill="#D1D4DC"/>
<path d="M172.468 90.0522C171.849 90.0522 171.326 89.9329 170.899 89.6942C170.478 89.4556 170.16 89.1077 169.947 88.6507C169.739 88.1937 169.635 87.6376 169.635 86.9825V81.6353H171.227V86.6093C171.227 87.305 171.361 87.8255 171.63 88.1708C171.905 88.5161 172.352 88.6888 172.971 88.6888C173.301 88.6888 173.596 88.638 173.855 88.5364C174.114 88.4349 174.329 88.2901 174.502 88.1022C174.68 87.9093 174.812 87.6782 174.898 87.4091C174.985 87.1349 175.028 86.8302 175.028 86.495V81.6353H176.62V89.8999H175.028V88.6583H174.906C174.774 88.9478 174.594 89.1991 174.365 89.4124C174.137 89.6206 173.862 89.7806 173.542 89.8923C173.228 89.9989 172.87 90.0522 172.468 90.0522Z" fill="#D1D4DC"/>
<path d="M167.422 89.9532C166.529 89.9532 165.881 89.7805 165.48 89.4352C165.084 89.0899 164.886 88.5211 164.886 87.729V82.9073H163.591V81.6352H164.886V79.5481H166.516V81.6352H168.291V82.9073H166.516V87.3405C166.516 87.7924 166.605 88.12 166.782 88.3231C166.965 88.5211 167.262 88.6202 167.674 88.6202C167.796 88.6202 167.9 88.6176 167.986 88.6125C168.072 88.6075 168.174 88.5999 168.291 88.5897V89.8694C168.164 89.8897 168.027 89.9075 167.879 89.9227C167.732 89.943 167.58 89.9532 167.422 89.9532Z" fill="#D1D4DC"/>
<path d="M158.309 90.0522C157.69 90.0522 157.167 89.9329 156.74 89.6942C156.319 89.4556 156.001 89.1077 155.788 88.6507C155.58 88.1937 155.476 87.6376 155.476 86.9825V81.6353H157.068V86.6093C157.068 87.305 157.202 87.8255 157.471 88.1708C157.746 88.5161 158.192 88.6888 158.812 88.6888C159.142 88.6888 159.437 88.638 159.696 88.5364C159.954 88.4349 160.17 88.2901 160.343 88.1022C160.521 87.9093 160.653 87.6782 160.739 87.4091C160.825 87.1349 160.869 86.8302 160.869 86.495V81.6353H162.461V89.8999H160.869V88.6583H160.747C160.615 88.9478 160.434 89.1991 160.206 89.4124C159.977 89.6206 159.703 89.7806 159.383 89.8923C159.068 89.9989 158.71 90.0522 158.309 90.0522Z" fill="#D1D4DC"/>
<path d="M147.161 89.9V78.9084H153.986V80.3405H148.806V83.8749H153.552V85.2688H148.806V89.9H147.161Z" fill="#D1D4DC"/>
<path d="M138.22 92.7412L138.882 88.2927H140.604L139.347 92.7412H138.22Z" fill="#D1D4DC"/>
<path d="M129.989 89.8999L132.747 85.779L129.959 81.6353H131.81L133.63 84.6136H133.752L135.55 81.6353H137.31L134.567 85.7181L137.348 89.8999H135.52L133.691 86.8987H133.562L131.726 89.8999H129.989Z" fill="#D1D4DC"/>
<path d="M125.842 90.0522C125.04 90.0522 124.349 89.8796 123.771 89.5343C123.197 89.1839 122.755 88.6913 122.445 88.0565C122.135 87.4167 121.98 86.6626 121.98 85.7942V85.7866C121.98 84.9284 122.135 84.1769 122.445 83.5319C122.755 82.887 123.194 82.3843 123.763 82.0237C124.332 81.6632 124.997 81.4829 125.759 81.4829C126.525 81.4829 127.186 81.6556 127.739 82.0009C128.293 82.3462 128.717 82.8312 129.011 83.4558C129.311 84.0753 129.461 84.7989 129.461 85.6267V86.1903H122.796V85.0325H128.668L127.899 86.1065V85.4743C127.899 84.87 127.808 84.3724 127.625 83.9813C127.442 83.5853 127.191 83.2907 126.871 83.0978C126.551 82.9048 126.183 82.8083 125.766 82.8083C125.35 82.8083 124.977 82.9099 124.646 83.113C124.321 83.3161 124.062 83.6157 123.87 84.0118C123.682 84.4079 123.588 84.8954 123.588 85.4743V86.1065C123.588 86.6601 123.679 87.1323 123.862 87.5233C124.05 87.9144 124.316 88.214 124.662 88.4222C125.007 88.6304 125.413 88.7345 125.88 88.7345C126.236 88.7345 126.543 88.6837 126.802 88.5821C127.066 88.4806 127.282 88.3562 127.45 88.2089C127.617 88.0616 127.734 87.9144 127.8 87.7671L127.823 87.7062H129.369L129.354 87.7671C129.283 88.0413 129.158 88.313 128.981 88.5821C128.803 88.8513 128.569 89.0976 128.28 89.321C127.99 89.5444 127.643 89.7222 127.236 89.8542C126.83 89.9862 126.365 90.0522 125.842 90.0522Z" fill="#D1D4DC"/>
<path d="M116.935 89.9V81.6354H118.527V82.8846H118.648C118.801 82.4428 119.062 82.1026 119.433 81.8639C119.809 81.6202 120.271 81.4983 120.819 81.4983C120.956 81.4983 121.088 81.5059 121.215 81.5211C121.347 81.5313 121.454 81.5465 121.535 81.5668V83.0446C121.388 83.0141 121.243 82.9913 121.101 82.976C120.959 82.9608 120.812 82.9532 120.659 82.9532C120.238 82.9532 119.867 83.0344 119.547 83.1969C119.227 83.3594 118.976 83.5905 118.793 83.8901C118.615 84.1846 118.527 84.5299 118.527 84.926V89.9H116.935Z" fill="#D1D4DC"/>
<path d="M111.561 90.0522C110.758 90.0522 110.065 89.8821 109.481 89.5419C108.902 89.1966 108.455 88.704 108.14 88.0642C107.831 87.4243 107.676 86.6601 107.676 85.7714V85.7562C107.676 84.8726 107.833 84.1108 108.148 83.471C108.463 82.8312 108.91 82.3411 109.489 82.0009C110.073 81.6556 110.763 81.4829 111.561 81.4829C112.363 81.4829 113.054 81.6556 113.632 82.0009C114.211 82.3411 114.658 82.8312 114.973 83.471C115.288 84.1108 115.445 84.8726 115.445 85.7562V85.7714C115.445 86.6601 115.288 87.4243 114.973 88.0642C114.663 88.704 114.219 89.1966 113.64 89.5419C113.061 89.8821 112.368 90.0522 111.561 90.0522ZM111.561 88.7116C112.043 88.7116 112.452 88.5948 112.787 88.3612C113.122 88.1276 113.379 87.7925 113.556 87.3558C113.734 86.919 113.823 86.3935 113.823 85.779V85.7638C113.823 85.1392 113.734 84.6085 113.556 84.1718C113.379 83.7351 113.122 83.4024 112.787 83.1739C112.452 82.9403 112.043 82.8235 111.561 82.8235C111.078 82.8235 110.669 82.9403 110.334 83.1739C109.999 83.4024 109.743 83.7351 109.565 84.1718C109.387 84.6085 109.298 85.1392 109.298 85.7638V85.779C109.298 86.3935 109.387 86.9216 109.565 87.3634C109.743 87.8001 109.999 88.1353 110.334 88.3688C110.669 88.5974 111.078 88.7116 111.561 88.7116Z" fill="#D1D4DC"/>
<path d="M99.6592 89.9V78.9084H106.484V80.3405H101.304V83.8749H106.05V85.2688H101.304V89.9H99.6592Z" fill="#D1D4DC"/>
<path d="M90.7178 92.7412L91.3805 88.2927H93.102L91.8451 92.7412H90.7178Z" fill="#D1D4DC"/>
<path d="M86.1437 90.0522C85.4937 90.0522 84.925 89.9558 84.4375 89.7628C83.95 89.5698 83.5615 89.3007 83.2721 88.9554C82.9826 88.6101 82.8125 88.2089 82.7617 87.7519V87.7366H84.3613V87.7519C84.468 88.0667 84.6736 88.3231 84.9783 88.5212C85.283 88.7142 85.6842 88.8106 86.1818 88.8106C86.5271 88.8106 86.8318 88.7624 87.0959 88.6659C87.36 88.5644 87.5656 88.4272 87.7129 88.2546C87.8652 88.0769 87.9414 87.8737 87.9414 87.6452V87.63C87.9414 87.3659 87.8348 87.145 87.6215 86.9673C87.4082 86.7845 87.0604 86.6347 86.5779 86.5179L85.2678 86.2132C84.7498 86.0964 84.3207 85.939 83.9805 85.7409C83.6453 85.5378 83.3965 85.289 83.234 84.9944C83.0715 84.6948 82.9902 84.347 82.9902 83.9509V83.9433C82.9902 83.4659 83.1273 83.0419 83.4016 82.6712C83.6758 82.3005 84.0516 82.011 84.5289 81.8028C85.0113 81.5896 85.5598 81.4829 86.1742 81.4829C86.7937 81.4829 87.3346 81.5794 87.7967 81.7724C88.2639 81.9603 88.6346 82.2269 88.9088 82.5722C89.183 82.9124 89.3455 83.306 89.3963 83.7528V83.7604H87.8652V83.7528C87.7891 83.4583 87.6037 83.2146 87.3092 83.0216C87.0197 82.8235 86.6389 82.7245 86.1666 82.7245C85.8619 82.7245 85.5902 82.7728 85.3516 82.8692C85.118 82.9606 84.9301 83.0927 84.7879 83.2653C84.6508 83.4329 84.5822 83.631 84.5822 83.8595V83.8747C84.5822 84.0474 84.6279 84.1997 84.7193 84.3317C84.8107 84.4638 84.9529 84.5806 85.1459 84.6821C85.3439 84.7786 85.5979 84.8649 85.9076 84.9411L87.2102 85.2458C87.7383 85.3677 88.175 85.5276 88.5203 85.7257C88.8656 85.9237 89.1221 86.1675 89.2896 86.4569C89.4623 86.7464 89.5486 87.0892 89.5486 87.4853V87.5005C89.5486 88.0083 89.3988 88.4552 89.0992 88.8411C88.8047 89.222 88.401 89.519 87.8881 89.7323C87.3803 89.9456 86.7988 90.0522 86.1437 90.0522Z" fill="#D1D4DC"/>
<path d="M75.3623 89.9V78.3904H76.9467V89.9H75.3623ZM80.5648 89.9L77.5408 85.9923L78.7215 85.0021L82.5148 89.9H80.5648ZM76.7867 87.0359L76.7182 85.1468H77.0762L80.4049 81.6353H82.2863L78.5158 85.4134L77.9369 85.8933L76.7867 87.0359Z" fill="#D1D4DC"/>
<path d="M70.392 90.0522C69.5947 90.0522 68.9066 89.8796 68.3277 89.5343C67.7488 89.1839 67.302 88.6888 66.9871 88.0489C66.6773 87.404 66.5225 86.6372 66.5225 85.7485V85.7333C66.5225 84.8599 66.6773 84.1058 66.9871 83.471C67.2969 82.8362 67.7412 82.3462 68.3201 82.0009C68.899 81.6556 69.5871 81.4829 70.3844 81.4829C71.0699 81.4829 71.6615 81.6022 72.1592 81.8409C72.6568 82.0796 73.0529 82.4071 73.3475 82.8235C73.6471 83.2349 73.835 83.7046 73.9111 84.2327V84.2708H72.3801L72.3725 84.2479C72.276 83.8417 72.0602 83.504 71.725 83.2349C71.3898 82.9606 70.943 82.8235 70.3844 82.8235C69.9223 82.8235 69.5236 82.9403 69.1885 83.1739C68.8533 83.4075 68.5943 83.7427 68.4115 84.1794C68.2338 84.611 68.1449 85.129 68.1449 85.7333V85.7485C68.1449 86.3579 68.2363 86.886 68.4191 87.3329C68.602 87.7747 68.8609 88.1149 69.1961 88.3536C69.5313 88.5923 69.9273 88.7116 70.3844 88.7116C70.9125 88.7116 71.3391 88.5974 71.6641 88.3688C71.9941 88.1353 72.2277 87.795 72.3648 87.3481L72.3801 87.3101L73.9111 87.3024L73.8959 87.3786C73.7943 87.9017 73.5963 88.3663 73.3018 88.7726C73.0123 89.1737 72.6238 89.4886 72.1363 89.7171C71.6539 89.9405 71.0725 90.0522 70.392 90.0522Z" fill="#D1D4DC"/>
<path d="M61.5 90.0522C60.6977 90.0522 60.0045 89.8821 59.4205 89.5419C58.8416 89.1966 58.3947 88.704 58.0799 88.0642C57.7701 87.4243 57.6152 86.6601 57.6152 85.7714V85.7562C57.6152 84.8726 57.7727 84.1108 58.0875 83.471C58.4023 82.8312 58.8492 82.3411 59.4281 82.0009C60.0121 81.6556 60.7027 81.4829 61.5 81.4829C62.3023 81.4829 62.993 81.6556 63.5719 82.0009C64.1508 82.3411 64.5977 82.8312 64.9125 83.471C65.2273 84.1108 65.3848 84.8726 65.3848 85.7562V85.7714C65.3848 86.6601 65.2273 87.4243 64.9125 88.0642C64.6027 88.704 64.1584 89.1966 63.5795 89.5419C63.0006 89.8821 62.3074 90.0522 61.5 90.0522ZM61.5 88.7116C61.9824 88.7116 62.3912 88.5948 62.7264 88.3612C63.0615 88.1276 63.318 87.7925 63.4957 87.3558C63.6734 86.919 63.7623 86.3935 63.7623 85.779V85.7638C63.7623 85.1392 63.6734 84.6085 63.4957 84.1718C63.318 83.7351 63.0615 83.4024 62.7264 83.1739C62.3912 82.9403 61.9824 82.8235 61.5 82.8235C61.0176 82.8235 60.6088 82.9403 60.2736 83.1739C59.9385 83.4024 59.682 83.7351 59.5043 84.1718C59.3266 84.6085 59.2377 85.1392 59.2377 85.7638V85.779C59.2377 86.3935 59.3266 86.9216 59.5043 87.3634C59.682 87.8001 59.9385 88.1353 60.2736 88.3688C60.6088 88.5974 61.0176 88.7116 61.5 88.7116Z" fill="#D1D4DC"/>
<path d="M55.8061 89.9532C54.9123 89.9532 54.2648 89.7805 53.8637 89.4352C53.4676 89.0899 53.2695 88.5211 53.2695 87.729V82.9073H51.9746V81.6352H53.2695V79.5481H54.8996V81.6352H56.6744V82.9073H54.8996V87.3405C54.8996 87.7924 54.9885 88.12 55.1662 88.3231C55.349 88.5211 55.6461 88.6202 56.0574 88.6202C56.1793 88.6202 56.2834 88.6176 56.3697 88.6125C56.4561 88.6075 56.5576 88.5999 56.6744 88.5897V89.8694C56.5475 89.8897 56.4104 89.9075 56.2631 89.9227C56.1158 89.943 55.9635 89.9532 55.8061 89.9532Z" fill="#D1D4DC"/>
<path d="M46.9973 90.1667C46.1695 90.1667 45.451 90.0372 44.8416 89.7782C44.2322 89.5141 43.7498 89.1485 43.3943 88.6813C43.0439 88.2141 42.8408 87.6758 42.785 87.0665L42.7773 86.975H44.3998L44.4074 87.0512C44.4379 87.3915 44.5674 87.686 44.7959 87.9348C45.0295 88.1836 45.3418 88.3792 45.7328 88.5213C46.1238 88.6584 46.5682 88.727 47.0658 88.727C47.5381 88.727 47.957 88.6534 48.3227 88.5061C48.6883 88.3538 48.9752 88.1456 49.1834 87.8815C49.3916 87.6174 49.4957 87.3127 49.4957 86.9674V86.9598C49.4957 86.5333 49.3332 86.1778 49.0082 85.8934C48.6883 85.604 48.1627 85.3805 47.4314 85.2231L46.2279 84.9641C45.4865 84.8067 44.8797 84.5858 44.4074 84.3014C43.9402 84.017 43.5949 83.6717 43.3715 83.2655C43.148 82.8542 43.0363 82.3793 43.0363 81.8411V81.8334C43.0414 81.2038 43.2115 80.6502 43.5467 80.1729C43.8869 79.6905 44.3541 79.3147 44.9482 79.0456C45.5424 78.7764 46.2279 78.6418 47.0049 78.6418C47.7717 78.6418 48.442 78.7764 49.0158 79.0456C49.5947 79.3096 50.0518 79.6676 50.3869 80.1196C50.7271 80.5715 50.915 81.0819 50.9506 81.6506L50.9582 81.7573H49.3586L49.3434 81.6583C49.2926 81.3536 49.1656 81.0844 48.9625 80.8508C48.7594 80.6122 48.4902 80.4243 48.1551 80.2872C47.8199 80.15 47.4264 80.0815 46.9744 80.0815C46.5428 80.0815 46.1543 80.15 45.809 80.2872C45.4688 80.4192 45.1996 80.6096 45.0016 80.8584C44.8035 81.1022 44.7045 81.4018 44.7045 81.7573V81.7649C44.7045 82.0391 44.773 82.2854 44.9102 82.5038C45.0473 82.717 45.2631 82.9024 45.5576 83.0598C45.8572 83.2122 46.2457 83.3417 46.723 83.4483L47.9266 83.7073C48.6934 83.8749 49.3129 84.0932 49.7852 84.3624C50.2625 84.6315 50.6104 84.9641 50.8287 85.3602C51.0521 85.7512 51.1639 86.2159 51.1639 86.7542V86.7618C51.1639 87.4625 50.9912 88.0668 50.6459 88.5747C50.3057 89.0825 49.8232 89.476 49.1986 89.7553C48.574 90.0295 47.8402 90.1667 46.9973 90.1667Z" fill="#D1D4DC"/>
<path d="M143.573 130.553C142.478 130.553 141.687 130.351 141.2 129.946C140.714 129.542 140.471 128.877 140.471 127.951V122.599H138.985V120.911H140.471V118.547H142.694V120.911H144.707V122.599H142.694V127.45C142.694 127.925 142.794 128.271 142.993 128.487C143.198 128.704 143.526 128.812 143.978 128.812C144.13 128.812 144.256 128.81 144.355 128.804C144.461 128.792 144.578 128.78 144.707 128.769V130.456C144.555 130.479 144.379 130.5 144.18 130.518C143.986 130.541 143.784 130.553 143.573 130.553Z" fill="white"/>
<path d="M132.554 130.658C131.944 130.658 131.402 130.541 130.928 130.307C130.453 130.072 130.078 129.741 129.803 129.313C129.533 128.88 129.398 128.373 129.398 127.793V127.775C129.398 127.201 129.539 126.709 129.82 126.299C130.102 125.889 130.512 125.566 131.051 125.332C131.596 125.098 132.258 124.957 133.037 124.91L136.588 124.699V126.141L133.345 126.352C132.735 126.387 132.284 126.516 131.991 126.738C131.698 126.961 131.552 127.269 131.552 127.661V127.679C131.552 128.089 131.707 128.408 132.018 128.637C132.328 128.865 132.727 128.979 133.213 128.979C133.652 128.979 134.045 128.892 134.391 128.716C134.736 128.54 135.009 128.303 135.208 128.004C135.407 127.699 135.507 127.356 135.507 126.976V123.952C135.507 123.472 135.354 123.103 135.05 122.845C134.745 122.587 134.297 122.458 133.705 122.458C133.201 122.458 132.791 122.546 132.475 122.722C132.158 122.897 131.944 123.144 131.833 123.46L131.824 123.495H129.759L129.768 123.425C129.844 122.88 130.055 122.405 130.4 122.001C130.752 121.597 131.218 121.283 131.798 121.061C132.378 120.832 133.049 120.718 133.811 120.718C134.631 120.718 135.328 120.847 135.902 121.104C136.482 121.362 136.922 121.731 137.221 122.212C137.52 122.692 137.669 123.27 137.669 123.943V130.5H135.507V129.173H135.357C135.182 129.483 134.953 129.75 134.672 129.973C134.396 130.195 134.08 130.365 133.723 130.482C133.365 130.6 132.976 130.658 132.554 130.658Z" fill="white"/>
<path d="M123.898 130.693C122.949 130.693 122.132 130.491 121.446 130.087C120.767 129.683 120.242 129.111 119.873 128.373C119.504 127.629 119.319 126.747 119.319 125.728V125.719C119.319 124.711 119.501 123.835 119.864 123.091C120.233 122.341 120.755 121.758 121.429 121.342C122.103 120.926 122.894 120.718 123.802 120.718C124.71 120.718 125.492 120.92 126.148 121.324C126.811 121.723 127.32 122.282 127.678 123.003C128.035 123.724 128.214 124.567 128.214 125.534V126.255H120.418V124.787H127.142L126.104 126.158V125.288C126.104 124.649 126.008 124.119 125.814 123.697C125.621 123.275 125.352 122.959 125.006 122.748C124.666 122.537 124.273 122.432 123.828 122.432C123.377 122.432 122.976 122.543 122.624 122.766C122.278 122.982 122.003 123.305 121.798 123.732C121.599 124.154 121.499 124.673 121.499 125.288V126.167C121.499 126.753 121.599 127.257 121.798 127.679C121.997 128.101 122.278 128.423 122.642 128.646C123.011 128.868 123.447 128.979 123.951 128.979C124.344 128.979 124.681 128.924 124.962 128.812C125.243 128.695 125.472 128.558 125.647 128.399C125.829 128.235 125.952 128.077 126.017 127.925L126.043 127.863H128.117L128.1 127.951C128.023 128.262 127.883 128.578 127.678 128.9C127.479 129.217 127.206 129.513 126.86 129.788C126.521 130.058 126.104 130.277 125.612 130.447C125.12 130.611 124.549 130.693 123.898 130.693Z" fill="white"/>
<path d="M113.072 130.5V120.911H115.252V122.388H115.401C115.565 121.866 115.858 121.465 116.28 121.184C116.708 120.896 117.235 120.753 117.862 120.753C118.026 120.753 118.185 120.762 118.337 120.779C118.495 120.797 118.63 120.82 118.741 120.85V122.81C118.565 122.769 118.387 122.739 118.205 122.722C118.029 122.698 117.848 122.687 117.66 122.687C117.174 122.687 116.749 122.777 116.386 122.959C116.028 123.141 115.75 123.398 115.551 123.732C115.352 124.066 115.252 124.465 115.252 124.928V130.5H113.072Z" fill="white"/>
<path d="M105.603 130.808C104.683 130.808 103.856 130.655 103.124 130.351C102.392 130.04 101.768 129.598 101.252 129.023C100.736 128.443 100.338 127.743 100.057 126.923C99.7812 126.103 99.6436 125.18 99.6436 124.154V124.137C99.6436 122.789 99.8867 121.62 100.373 120.63C100.859 119.634 101.545 118.866 102.43 118.327C103.32 117.782 104.366 117.51 105.567 117.51C106.546 117.51 107.419 117.686 108.187 118.037C108.96 118.383 109.593 118.866 110.085 119.487C110.577 120.108 110.894 120.832 111.034 121.658L111.052 121.746H108.793L108.767 121.667C108.562 120.964 108.181 120.422 107.624 120.041C107.067 119.66 106.382 119.47 105.567 119.47C104.829 119.47 104.188 119.66 103.643 120.041C103.104 120.416 102.688 120.952 102.395 121.649C102.102 122.347 101.955 123.173 101.955 124.128V124.146C101.955 124.872 102.04 125.525 102.21 126.105C102.38 126.686 102.626 127.181 102.948 127.591C103.271 127.995 103.657 128.306 104.108 128.522C104.565 128.739 105.075 128.848 105.638 128.848C106.282 128.848 106.851 128.725 107.343 128.479C107.835 128.227 108.219 127.875 108.494 127.424C108.77 126.973 108.913 126.448 108.925 125.851L108.934 125.587H105.884V123.855H111.148V125.429C111.148 126.249 111.02 126.99 110.762 127.652C110.504 128.314 110.132 128.883 109.646 129.357C109.165 129.826 108.582 130.187 107.896 130.438C107.217 130.685 106.452 130.808 105.603 130.808Z" fill="white"/>
<path d="M92.6162 125.376V125.394C92.6162 125.786 92.5225 126.144 92.335 126.466C92.1475 126.782 91.8926 127.037 91.5703 127.23C91.2539 127.418 90.8965 127.512 90.498 127.512H90.4805C90.0879 127.512 89.7305 127.418 89.4082 127.23C89.0918 127.037 88.8369 126.782 88.6436 126.466C88.4561 126.144 88.3623 125.786 88.3623 125.394V125.376C88.3623 124.983 88.4561 124.626 88.6436 124.304C88.8369 123.981 89.0918 123.727 89.4082 123.539C89.7305 123.352 90.0879 123.258 90.4805 123.258H90.498C90.8965 123.258 91.2539 123.352 91.5703 123.539C91.8926 123.727 92.1475 123.981 92.335 124.304C92.5225 124.626 92.6162 124.983 92.6162 125.376Z" fill="white"/>
<path d="M76.5537 130.808C75.6924 130.808 74.9365 130.649 74.2861 130.333C73.6357 130.011 73.1172 129.574 72.7305 129.023C72.3496 128.467 72.1299 127.84 72.0713 127.143L72.0625 127.028H74.1543L74.1631 127.099C74.2217 127.438 74.3594 127.752 74.5762 128.039C74.793 128.32 75.0713 128.546 75.4111 128.716C75.751 128.88 76.1348 128.962 76.5625 128.962C77.0547 128.962 77.4854 128.854 77.8545 128.637C78.2295 128.42 78.5195 128.121 78.7246 127.74C78.9355 127.354 79.041 126.914 79.041 126.422V126.404C79.041 125.912 78.9355 125.479 78.7246 125.104C78.5137 124.723 78.2236 124.427 77.8545 124.216C77.4854 123.999 77.0605 123.891 76.5801 123.891C76.2227 123.891 75.8945 123.943 75.5957 124.049C75.3027 124.154 75.0391 124.31 74.8047 124.515C74.6934 124.614 74.5879 124.726 74.4883 124.849C74.3887 124.966 74.3008 125.098 74.2246 125.244H72.2822L72.8887 117.817H80.4561V119.672H74.6553L74.3125 123.53H74.4531C74.6289 123.243 74.8516 123 75.1211 122.801C75.3906 122.602 75.6953 122.449 76.0352 122.344C76.3809 122.232 76.75 122.177 77.1426 122.177C77.9277 122.177 78.625 122.358 79.2344 122.722C79.8438 123.079 80.3213 123.571 80.667 124.198C81.0127 124.825 81.1855 125.546 81.1855 126.36V126.378C81.1855 127.251 80.9893 128.021 80.5967 128.689C80.2041 129.357 79.6592 129.879 78.9619 130.254C78.2647 130.623 77.4619 130.808 76.5537 130.808Z" fill="white"/>
<path d="M65.1025 130.755C64.1475 130.755 63.3037 130.6 62.5713 130.289C61.8447 129.973 61.2734 129.539 60.8574 128.988C60.4473 128.432 60.2422 127.793 60.2422 127.072V127.055C60.2422 126.51 60.3623 126.015 60.6025 125.569C60.8428 125.124 61.1738 124.752 61.5957 124.453C62.0176 124.148 62.5039 123.94 63.0547 123.829V123.776C62.3457 123.583 61.7744 123.237 61.3408 122.739C60.9072 122.235 60.6904 121.644 60.6904 120.964V120.946C60.6904 120.296 60.8779 119.716 61.2529 119.206C61.6338 118.696 62.1553 118.295 62.8174 118.002C63.4795 117.709 64.2412 117.562 65.1025 117.562C65.9639 117.562 66.7256 117.709 67.3877 118.002C68.0498 118.295 68.5684 118.696 68.9434 119.206C69.3184 119.716 69.5059 120.296 69.5059 120.946V120.964C69.5059 121.644 69.2891 122.235 68.8555 122.739C68.4219 123.237 67.8506 123.583 67.1416 123.776V123.829C67.6924 123.94 68.1787 124.148 68.6006 124.453C69.0283 124.752 69.3623 125.124 69.6025 125.569C69.8428 126.015 69.9629 126.51 69.9629 127.055V127.072C69.9629 127.793 69.7549 128.432 69.3389 128.988C68.9287 129.539 68.3574 129.973 67.625 130.289C66.8984 130.6 66.0576 130.755 65.1025 130.755ZM65.1025 129.023C65.5947 129.023 66.0283 128.936 66.4033 128.76C66.7783 128.578 67.0742 128.329 67.291 128.013C67.5078 127.69 67.6162 127.327 67.6162 126.923V126.905C67.6162 126.495 67.5078 126.132 67.291 125.815C67.0801 125.493 66.7871 125.241 66.4121 125.06C66.0371 124.878 65.6006 124.787 65.1025 124.787C64.6104 124.787 64.1738 124.878 63.793 125.06C63.4121 125.241 63.1162 125.493 62.9053 125.815C62.6943 126.132 62.5889 126.495 62.5889 126.905V126.923C62.5889 127.327 62.6943 127.69 62.9053 128.013C63.1221 128.329 63.418 128.578 63.793 128.76C64.1738 128.936 64.6104 129.023 65.1025 129.023ZM65.1025 123.056C65.5303 123.056 65.9053 122.977 66.2275 122.818C66.5557 122.654 66.8105 122.432 66.9922 122.15C67.1797 121.869 67.2734 121.544 67.2734 121.175V121.157C67.2734 120.788 67.1797 120.463 66.9922 120.182C66.8105 119.895 66.5557 119.672 66.2275 119.514C65.9053 119.355 65.5303 119.276 65.1025 119.276C64.6748 119.276 64.2969 119.355 63.9688 119.514C63.6465 119.672 63.3916 119.895 63.2041 120.182C63.0225 120.463 62.9316 120.788 62.9316 121.157V121.175C62.9316 121.544 63.0225 121.869 63.2041 122.15C63.3916 122.432 63.6465 122.654 63.9688 122.818C64.2969 122.977 64.6748 123.056 65.1025 123.056Z" fill="white"/>
<path d="M56.7197 130.667C56.3271 130.667 55.9961 130.535 55.7266 130.271C55.4629 130.002 55.3311 129.674 55.3311 129.287C55.3311 128.9 55.4629 128.575 55.7266 128.312C55.9961 128.042 56.3271 127.907 56.7197 127.907C57.124 127.907 57.458 128.042 57.7217 128.312C57.9854 128.575 58.1172 128.9 58.1172 129.287C58.1172 129.674 57.9854 130.002 57.7217 130.271C57.458 130.535 57.124 130.667 56.7197 130.667Z" fill="white"/>
<path d="M49.4531 130.5V128.065H43.3799V126.211C43.7021 125.637 44.0273 125.065 44.3555 124.497C44.6895 123.923 45.0264 123.352 45.3662 122.783C45.7061 122.209 46.0459 121.644 46.3857 121.087C46.7256 120.524 47.0654 119.971 47.4053 119.426C47.751 118.881 48.0908 118.345 48.4248 117.817H51.624V126.193H53.2939V128.065H51.624V130.5H49.4531ZM45.4717 126.246H49.4971V119.628H49.374C49.1221 120.026 48.8613 120.437 48.5918 120.858C48.3281 121.28 48.0615 121.711 47.792 122.15C47.5283 122.59 47.2646 123.032 47.001 123.478C46.7373 123.923 46.4766 124.368 46.2188 124.813C45.9668 125.253 45.7178 125.689 45.4717 126.123V126.246Z" fill="white"/>
<path d="M51 138.5L53.4721 143.438L59 144.229L55 148.073L55.9443 153.5L51 150.938L46.0557 153.5L47 148.073L43 144.229L48.5279 143.438L51 138.5Z" fill="white"/>
<path d="M69 138.5L71.4721 143.438L77 144.229L73 148.073L73.9443 153.5L69 150.938L64.0557 153.5L65 148.073L61 144.229L66.5279 143.438L69 138.5Z" fill="white"/>
<path d="M87 138.5L89.4721 143.438L95 144.229L91 148.073L91.9443 153.5L87 150.938L82.0557 153.5L83 148.073L79 144.229L84.5279 143.438L87 138.5Z" fill="white"/>
<path d="M105 138.5L107.472 143.438L113 144.229L109 148.073L109.944 153.5L105 150.938L100.056 153.5L101 148.073L97 144.229L102.528 143.438L105 138.5Z" fill="white"/>
<path d="M123 138.5L125.472 143.438L131 144.229L127 148.073L127.944 153.5L123 150.938L118.056 153.5L119 148.073L115 144.229L120.528 143.438L123 138.5Z" fill="white"/>
<path fill-rule="evenodd" clip-rule="evenodd" d="M163.38 117.144C163.162 116.952 162.838 116.952 162.62 117.144L161.268 118.332C161.141 118.444 160.971 118.494 160.804 118.47L159.03 118.208C158.744 118.166 158.472 118.343 158.391 118.622L157.89 120.36C157.843 120.524 157.727 120.659 157.574 120.729L155.941 121.477C155.678 121.598 155.543 121.895 155.625 122.175L156.134 123.91C156.182 124.074 156.157 124.25 156.066 124.393L155.093 125.914C154.936 126.158 154.982 126.482 155.201 126.673L156.421 127.855C156.549 127.966 156.622 128.128 156.622 128.299L156.617 130.109C156.617 130.4 156.829 130.648 157.115 130.688L159.028 130.942C159.195 130.965 159.344 131.062 159.434 131.205L160.4 132.73C160.556 132.976 160.867 133.068 161.129 132.947L162.758 132.191C162.912 132.119 163.088 132.119 163.242 132.191L164.871 132.947C165.133 133.068 165.444 132.976 165.6 132.73L166.566 131.205C166.656 131.062 166.805 130.965 166.972 130.942L168.902 130.688C169.188 130.648 169.4 130.4 169.4 130.109L169.395 128.299C169.395 128.128 169.468 127.966 169.596 127.855L170.799 126.673C171.018 126.482 171.064 126.158 170.907 125.914L169.934 124.393C169.843 124.25 169.818 124.074 169.866 123.91L170.375 122.175C170.457 121.895 170.322 121.598 170.059 121.477L168.426 120.729C168.273 120.659 168.157 120.524 168.11 120.36L167.609 118.622C167.528 118.343 167.256 118.166 166.97 118.208L165.196 118.47C165.029 118.494 164.859 118.444 164.732 118.332L163.38 117.144ZM161.848 128L167 123.045L165.914 122L161.848 125.91L160.086 124.216L159 125.261L161.848 128Z" fill="white"/>
<path d="M243.084 128.341V125.907H237.011V124.052C237.333 123.478 237.658 122.907 237.986 122.338C238.32 121.764 238.657 121.193 238.997 120.625C239.337 120.05 239.677 119.485 240.017 118.928C240.356 118.366 240.696 117.812 241.036 117.267C241.382 116.722 241.722 116.186 242.056 115.659H245.255V124.035H246.925V125.907H245.255V128.341H243.084ZM239.103 124.087H243.128V117.469H243.005C242.753 117.868 242.492 118.278 242.223 118.7C241.959 119.122 241.692 119.552 241.423 119.992C241.159 120.431 240.896 120.874 240.632 121.319C240.368 121.764 240.107 122.209 239.85 122.655C239.598 123.094 239.349 123.531 239.103 123.964V124.087Z" fill="white"/>
<path d="M230.667 128.596C229.765 128.596 228.971 128.441 228.285 128.13C227.605 127.814 227.069 127.38 226.677 126.83C226.284 126.279 226.059 125.643 226 124.922L225.991 124.808H228.153L228.171 124.905C228.206 125.262 228.329 125.579 228.54 125.854C228.757 126.129 229.047 126.346 229.41 126.504C229.773 126.663 230.189 126.742 230.658 126.742C231.133 126.742 231.546 126.657 231.897 126.487C232.249 126.317 232.521 126.083 232.715 125.784C232.914 125.485 233.014 125.139 233.014 124.747V124.729C233.014 124.061 232.788 123.548 232.337 123.191C231.892 122.833 231.279 122.655 230.5 122.655H229.05V120.967H230.456C230.907 120.967 231.3 120.885 231.634 120.721C231.974 120.557 232.237 120.334 232.425 120.053C232.612 119.766 232.706 119.438 232.706 119.069V119.051C232.706 118.659 232.624 118.328 232.46 118.058C232.302 117.783 232.067 117.572 231.757 117.425C231.452 117.279 231.08 117.206 230.641 117.206C230.213 117.206 229.835 117.282 229.507 117.434C229.179 117.581 228.915 117.794 228.716 118.076C228.517 118.351 228.399 118.676 228.364 119.051L228.355 119.139H226.255L226.264 119.034C226.328 118.301 226.548 117.666 226.923 117.126C227.304 116.582 227.811 116.16 228.443 115.861C229.076 115.556 229.809 115.404 230.641 115.404C231.502 115.404 232.246 115.547 232.873 115.834C233.506 116.116 233.995 116.505 234.341 117.003C234.692 117.501 234.868 118.084 234.868 118.752V118.77C234.868 119.292 234.754 119.754 234.525 120.159C234.303 120.557 233.995 120.888 233.603 121.152C233.216 121.416 232.776 121.6 232.284 121.706V121.75C233.192 121.837 233.922 122.148 234.473 122.681C235.029 123.208 235.308 123.912 235.308 124.791V124.808C235.308 125.546 235.111 126.203 234.719 126.777C234.332 127.345 233.79 127.791 233.093 128.113C232.396 128.435 231.587 128.596 230.667 128.596Z" fill="white"/>
<path d="M219.305 128.341V117.891H219.155L216 120.115V117.988L219.313 115.659H221.563V128.341H219.305Z" fill="white"/>
<path d="M245.197 150.13C244.65 150.13 244.167 150.048 243.748 149.884C243.329 149.715 242.992 149.48 242.736 149.18C242.486 148.879 242.338 148.526 242.292 148.12H243.509C243.609 148.425 243.805 148.672 244.097 148.858C244.388 149.045 244.769 149.139 245.238 149.139C245.571 149.139 245.863 149.091 246.113 148.995C246.368 148.895 246.569 148.76 246.715 148.592C246.861 148.419 246.934 148.22 246.934 147.997V147.983C246.934 147.733 246.833 147.521 246.633 147.348C246.432 147.17 246.104 147.026 245.648 146.917L244.507 146.644C244.047 146.534 243.668 146.393 243.372 146.22C243.076 146.042 242.857 145.826 242.716 145.57C242.575 145.311 242.504 145.005 242.504 144.654V144.647C242.504 144.237 242.622 143.87 242.859 143.547C243.101 143.223 243.429 142.968 243.844 142.781C244.258 142.594 244.726 142.501 245.245 142.501C245.76 142.501 246.216 142.583 246.612 142.747C247.013 142.907 247.335 143.134 247.576 143.431C247.822 143.727 247.973 144.076 248.027 144.477H246.858C246.781 144.185 246.603 143.948 246.325 143.766C246.047 143.583 245.685 143.492 245.238 143.492C244.947 143.492 244.687 143.54 244.459 143.636C244.231 143.727 244.051 143.854 243.919 144.019C243.787 144.183 243.721 144.374 243.721 144.593V144.606C243.721 144.771 243.764 144.916 243.851 145.044C243.937 145.172 244.072 145.283 244.254 145.379C244.436 145.475 244.671 145.559 244.958 145.632L246.093 145.905C246.558 146.015 246.94 146.158 247.241 146.336C247.547 146.514 247.774 146.73 247.925 146.985C248.075 147.241 248.15 147.544 248.15 147.895V147.908C248.15 148.346 248.021 148.733 247.761 149.07C247.501 149.403 247.148 149.663 246.701 149.85C246.259 150.036 245.758 150.13 245.197 150.13Z" fill="white"/>
<path d="M233.607 150L231.543 142.631H232.732L234.182 148.523H234.291L235.938 142.631H237.066L238.714 148.523H238.823L240.272 142.631H241.455L239.391 150H238.194L236.547 144.299H236.438L234.797 150H233.607Z" fill="white"/>
<path d="M227.349 150.13C226.647 150.13 226.043 149.975 225.537 149.665C225.036 149.355 224.648 148.918 224.375 148.353C224.106 147.783 223.972 147.113 223.972 146.343V146.336C223.972 145.575 224.106 144.907 224.375 144.333C224.648 143.759 225.034 143.31 225.53 142.986C226.027 142.663 226.608 142.501 227.273 142.501C227.943 142.501 228.518 142.656 228.996 142.966C229.479 143.276 229.848 143.709 230.104 144.265C230.363 144.816 230.493 145.459 230.493 146.192V146.657H224.587V145.707H229.885L229.297 146.575V146.104C229.297 145.525 229.21 145.049 229.037 144.675C228.864 144.301 228.625 144.023 228.319 143.841C228.014 143.654 227.663 143.561 227.267 143.561C226.87 143.561 226.515 143.659 226.2 143.854C225.89 144.046 225.644 144.331 225.462 144.709C225.28 145.087 225.188 145.552 225.188 146.104V146.575C225.188 147.099 225.277 147.548 225.455 147.922C225.633 148.291 225.886 148.576 226.214 148.776C226.542 148.972 226.929 149.07 227.376 149.07C227.709 149.07 227.998 149.025 228.244 148.934C228.49 148.842 228.693 148.726 228.853 148.585C229.012 148.444 229.124 148.3 229.188 148.154L229.215 148.093H230.404L230.391 148.147C230.327 148.398 230.213 148.642 230.049 148.879C229.889 149.111 229.682 149.323 229.427 149.515C229.172 149.701 228.868 149.852 228.518 149.966C228.171 150.075 227.782 150.13 227.349 150.13Z" fill="white"/>
<path d="M221.063 150V142.631H222.253V150H221.063ZM221.665 141.209C221.442 141.209 221.248 141.129 221.084 140.97C220.924 140.806 220.845 140.612 220.845 140.389C220.845 140.161 220.924 139.967 221.084 139.808C221.248 139.648 221.442 139.568 221.665 139.568C221.893 139.568 222.087 139.648 222.246 139.808C222.406 139.967 222.485 140.161 222.485 140.389C222.485 140.612 222.406 140.806 222.246 140.97C222.087 141.129 221.893 141.209 221.665 141.209Z" fill="white"/>
<path d="M215.688 150L212.96 142.631H214.218L216.234 148.701H216.344L218.36 142.631H219.618L216.891 150H215.688Z" fill="white"/>
<path d="M208.902 150.13C208.201 150.13 207.597 149.975 207.091 149.665C206.59 149.355 206.202 148.918 205.929 148.353C205.66 147.783 205.525 147.113 205.525 146.343V146.336C205.525 145.575 205.66 144.907 205.929 144.333C206.202 143.759 206.587 143.31 207.084 142.986C207.581 142.663 208.162 142.501 208.827 142.501C209.497 142.501 210.071 142.656 210.55 142.966C211.033 143.276 211.402 143.709 211.657 144.265C211.917 144.816 212.047 145.459 212.047 146.192V146.657H206.141V145.707H211.438L210.851 146.575V146.104C210.851 145.525 210.764 145.049 210.591 144.675C210.418 144.301 210.178 144.023 209.873 143.841C209.568 143.654 209.217 143.561 208.82 143.561C208.424 143.561 208.068 143.659 207.754 143.854C207.444 144.046 207.198 144.331 207.016 144.709C206.833 145.087 206.742 145.552 206.742 146.104V146.575C206.742 147.099 206.831 147.548 207.009 147.922C207.187 148.291 207.439 148.576 207.768 148.776C208.096 148.972 208.483 149.07 208.93 149.07C209.262 149.07 209.552 149.025 209.798 148.934C210.044 148.842 210.247 148.726 210.406 148.585C210.566 148.444 210.677 148.3 210.741 148.154L210.769 148.093H211.958L211.944 148.147C211.881 148.398 211.767 148.642 211.603 148.879C211.443 149.111 211.236 149.323 210.98 149.515C210.725 149.701 210.422 149.852 210.071 149.966C209.725 150.075 209.335 150.13 208.902 150.13Z" fill="white"/>
<path d="M197.258 150V140.136H201.024C201.658 140.136 202.209 140.259 202.679 140.505C203.153 140.746 203.52 141.086 203.779 141.523C204.039 141.961 204.169 142.476 204.169 143.068V143.082C204.169 143.766 203.993 144.358 203.643 144.859C203.292 145.361 202.806 145.709 202.187 145.905L204.47 150H203.027L200.915 146.097C200.906 146.097 200.895 146.097 200.881 146.097C200.867 146.097 200.856 146.097 200.847 146.097H198.488V150H197.258ZM198.488 145.003H200.915C201.549 145.003 202.036 144.841 202.378 144.518C202.724 144.189 202.897 143.725 202.897 143.123V143.109C202.897 142.521 202.717 142.061 202.357 141.729C201.997 141.396 201.498 141.229 200.86 141.229H198.488V145.003Z" fill="white"/>
<path fill-rule="evenodd" clip-rule="evenodd" d="M201.5 117C200.119 117 199 118.119 199 119.5V128.5C199 128.702 199.122 128.885 199.309 128.962C199.495 129.039 199.711 128.997 199.854 128.854L201.707 127H208.5C209.881 127 211 125.881 211 124.5V119.5C211 118.119 209.881 117 208.5 117H201.5ZM202 120H208V121H202V120ZM208 123H202V124H208V123Z" fill="white"/>
<path d="M323.613 131.255C322.711 131.255 321.917 131.1 321.231 130.789C320.552 130.473 320.016 130.039 319.623 129.488C319.23 128.938 319.005 128.302 318.946 127.581L318.938 127.467H321.1L321.117 127.563C321.152 127.921 321.275 128.237 321.486 128.513C321.703 128.788 321.993 129.005 322.356 129.163C322.72 129.321 323.136 129.4 323.604 129.4C324.079 129.4 324.492 129.315 324.844 129.146C325.195 128.976 325.468 128.741 325.661 128.442C325.86 128.144 325.96 127.798 325.96 127.405V127.388C325.96 126.72 325.734 126.207 325.283 125.85C324.838 125.492 324.226 125.313 323.446 125.313H321.996V123.626H323.402C323.854 123.626 324.246 123.544 324.58 123.38C324.92 123.216 325.184 122.993 325.371 122.712C325.559 122.425 325.652 122.097 325.652 121.728V121.71C325.652 121.317 325.57 120.986 325.406 120.717C325.248 120.441 325.014 120.23 324.703 120.084C324.398 119.938 324.026 119.864 323.587 119.864C323.159 119.864 322.781 119.94 322.453 120.093C322.125 120.239 321.861 120.453 321.662 120.734C321.463 121.01 321.346 121.335 321.311 121.71L321.302 121.798H319.201L319.21 121.692C319.274 120.96 319.494 120.324 319.869 119.785C320.25 119.24 320.757 118.818 321.39 118.52C322.022 118.215 322.755 118.062 323.587 118.062C324.448 118.062 325.192 118.206 325.819 118.493C326.452 118.774 326.941 119.164 327.287 119.662C327.639 120.16 327.814 120.743 327.814 121.411V121.429C327.814 121.95 327.7 122.413 327.472 122.817C327.249 123.216 326.941 123.547 326.549 123.811C326.162 124.074 325.723 124.259 325.23 124.364V124.408C326.139 124.496 326.868 124.807 327.419 125.34C327.976 125.867 328.254 126.57 328.254 127.449V127.467C328.254 128.205 328.058 128.861 327.665 129.436C327.278 130.004 326.736 130.449 326.039 130.771C325.342 131.094 324.533 131.255 323.613 131.255Z" fill="white"/>
<path d="M312.251 131V120.55H312.102L308.946 122.773V120.646L312.26 118.317H314.51V131H312.251Z" fill="white"/>
<path d="M300.897 131.255C299.942 131.255 299.099 131.1 298.366 130.789C297.64 130.473 297.068 130.039 296.652 129.488C296.242 128.932 296.037 128.293 296.037 127.572V127.555C296.037 127.01 296.157 126.515 296.397 126.069C296.638 125.624 296.969 125.252 297.391 124.953C297.812 124.648 298.299 124.44 298.85 124.329V124.276C298.141 124.083 297.569 123.737 297.136 123.239C296.702 122.735 296.485 122.144 296.485 121.464V121.446C296.485 120.796 296.673 120.216 297.048 119.706C297.429 119.196 297.95 118.795 298.612 118.502C299.274 118.209 300.036 118.062 300.897 118.062C301.759 118.062 302.521 118.209 303.183 118.502C303.845 118.795 304.363 119.196 304.738 119.706C305.113 120.216 305.301 120.796 305.301 121.446V121.464C305.301 122.144 305.084 122.735 304.65 123.239C304.217 123.737 303.646 124.083 302.937 124.276V124.329C303.487 124.44 303.974 124.648 304.396 124.953C304.823 125.252 305.157 125.624 305.397 126.069C305.638 126.515 305.758 127.01 305.758 127.555V127.572C305.758 128.293 305.55 128.932 305.134 129.488C304.724 130.039 304.152 130.473 303.42 130.789C302.693 131.1 301.853 131.255 300.897 131.255ZM300.897 129.523C301.39 129.523 301.823 129.436 302.198 129.26C302.573 129.078 302.869 128.829 303.086 128.513C303.303 128.19 303.411 127.827 303.411 127.423V127.405C303.411 126.995 303.303 126.632 303.086 126.315C302.875 125.993 302.582 125.741 302.207 125.56C301.832 125.378 301.396 125.287 300.897 125.287C300.405 125.287 299.969 125.378 299.588 125.56C299.207 125.741 298.911 125.993 298.7 126.315C298.489 126.632 298.384 126.995 298.384 127.405V127.423C298.384 127.827 298.489 128.19 298.7 128.513C298.917 128.829 299.213 129.078 299.588 129.26C299.969 129.436 300.405 129.523 300.897 129.523ZM300.897 123.556C301.325 123.556 301.7 123.477 302.022 123.318C302.351 123.154 302.605 122.932 302.787 122.65C302.975 122.369 303.068 122.044 303.068 121.675V121.657C303.068 121.288 302.975 120.963 302.787 120.682C302.605 120.395 302.351 120.172 302.022 120.014C301.7 119.855 301.325 119.776 300.897 119.776C300.47 119.776 300.092 119.855 299.764 120.014C299.441 120.172 299.187 120.395 298.999 120.682C298.817 120.963 298.727 121.288 298.727 121.657V121.675C298.727 122.044 298.817 122.369 298.999 122.65C299.187 122.932 299.441 123.154 299.764 123.318C300.092 123.477 300.47 123.556 300.897 123.556Z" fill="white"/>
<path d="M331.822 150.13C331.275 150.13 330.792 150.048 330.373 149.884C329.954 149.715 329.617 149.48 329.361 149.18C329.111 148.879 328.963 148.526 328.917 148.12H330.134C330.234 148.425 330.43 148.672 330.722 148.858C331.013 149.045 331.394 149.139 331.863 149.139C332.196 149.139 332.488 149.091 332.738 148.995C332.993 148.895 333.194 148.76 333.34 148.592C333.486 148.419 333.559 148.22 333.559 147.997V147.983C333.559 147.733 333.458 147.521 333.258 147.348C333.057 147.17 332.729 147.026 332.273 146.917L331.132 146.644C330.672 146.534 330.293 146.393 329.997 146.22C329.701 146.042 329.482 145.826 329.341 145.57C329.2 145.311 329.129 145.005 329.129 144.654V144.647C329.129 144.237 329.247 143.87 329.484 143.547C329.726 143.223 330.054 142.968 330.469 142.781C330.883 142.594 331.351 142.501 331.87 142.501C332.385 142.501 332.841 142.583 333.237 142.747C333.638 142.907 333.96 143.134 334.201 143.431C334.447 143.727 334.598 144.076 334.652 144.477H333.483C333.406 144.185 333.228 143.948 332.95 143.766C332.672 143.583 332.31 143.492 331.863 143.492C331.572 143.492 331.312 143.54 331.084 143.636C330.856 143.727 330.676 143.854 330.544 144.019C330.412 144.183 330.346 144.374 330.346 144.593V144.606C330.346 144.771 330.389 144.916 330.476 145.044C330.562 145.172 330.697 145.283 330.879 145.379C331.061 145.475 331.296 145.559 331.583 145.632L332.718 145.905C333.183 146.015 333.565 146.158 333.866 146.336C334.172 146.514 334.399 146.73 334.55 146.985C334.7 147.241 334.775 147.544 334.775 147.895V147.908C334.775 148.346 334.646 148.733 334.386 149.07C334.126 149.403 333.773 149.663 333.326 149.85C332.884 150.036 332.383 150.13 331.822 150.13Z" fill="white"/>
<path d="M327.116 150.055C326.36 150.055 325.811 149.902 325.469 149.597C325.132 149.291 324.963 148.788 324.963 148.086V143.615H323.801V142.631H324.963V140.724H326.193V142.631H327.807V143.615H326.193V147.785C326.193 148.218 326.275 148.53 326.439 148.722C326.604 148.909 326.877 149.002 327.26 149.002C327.365 149.002 327.453 149 327.526 148.995C327.604 148.991 327.697 148.984 327.807 148.975V149.986C327.693 150.005 327.579 150.021 327.465 150.034C327.351 150.048 327.235 150.055 327.116 150.055Z" fill="white"/>
<path d="M316.477 150V142.631H317.666V143.738H317.775C317.962 143.346 318.231 143.043 318.582 142.829C318.933 142.61 319.38 142.501 319.922 142.501C320.751 142.501 321.387 142.738 321.829 143.212C322.276 143.681 322.499 144.354 322.499 145.229V150H321.31V145.516C321.31 144.85 321.168 144.358 320.886 144.039C320.608 143.715 320.175 143.554 319.587 143.554C319.195 143.554 318.855 143.638 318.568 143.807C318.281 143.975 318.058 144.215 317.898 144.524C317.743 144.834 317.666 145.206 317.666 145.639V150H316.477Z" fill="white"/>
<path d="M310.922 150.13C310.366 150.13 309.899 150.025 309.521 149.815C309.142 149.601 308.857 149.291 308.666 148.886C308.479 148.476 308.386 147.981 308.386 147.402V142.631H309.575V147.115C309.575 147.776 309.703 148.268 309.958 148.592C310.218 148.915 310.642 149.077 311.229 149.077C311.553 149.077 311.838 149.029 312.084 148.934C312.335 148.838 312.544 148.701 312.713 148.523C312.882 148.341 313.007 148.122 313.089 147.867C313.175 147.607 313.219 147.316 313.219 146.992V142.631H314.408V150H313.219V148.899H313.109C312.991 149.159 312.829 149.382 312.624 149.569C312.419 149.752 312.173 149.891 311.886 149.986C311.603 150.082 311.282 150.13 310.922 150.13Z" fill="white"/>
<path d="M303.365 150.13C302.668 150.13 302.064 149.977 301.554 149.672C301.048 149.362 300.656 148.922 300.378 148.353C300.104 147.783 299.968 147.106 299.968 146.322V146.309C299.968 145.52 300.104 144.841 300.378 144.271C300.656 143.702 301.048 143.264 301.554 142.959C302.064 142.654 302.668 142.501 303.365 142.501C304.067 142.501 304.671 142.654 305.177 142.959C305.683 143.264 306.072 143.702 306.346 144.271C306.624 144.841 306.763 145.52 306.763 146.309V146.322C306.763 147.106 306.624 147.783 306.346 148.353C306.072 148.922 305.683 149.362 305.177 149.672C304.671 149.977 304.067 150.13 303.365 150.13ZM303.365 149.077C303.83 149.077 304.224 148.968 304.548 148.749C304.871 148.53 305.118 148.216 305.286 147.806C305.459 147.396 305.546 146.901 305.546 146.322V146.309C305.546 145.725 305.459 145.229 305.286 144.818C305.118 144.408 304.871 144.096 304.548 143.882C304.224 143.663 303.83 143.554 303.365 143.554C302.9 143.554 302.506 143.663 302.183 143.882C301.859 144.096 301.611 144.408 301.438 144.818C301.269 145.229 301.185 145.725 301.185 146.309V146.322C301.185 146.901 301.269 147.396 301.438 147.806C301.611 148.216 301.859 148.53 302.183 148.749C302.506 148.968 302.9 149.077 303.365 149.077Z" fill="white"/>
<path d="M295.672 150.13C294.984 150.13 294.387 149.973 293.881 149.658C293.375 149.344 292.983 148.899 292.705 148.325C292.427 147.751 292.288 147.074 292.288 146.295V146.281C292.288 145.516 292.425 144.85 292.698 144.285C292.976 143.72 293.368 143.283 293.874 142.973C294.38 142.658 294.977 142.501 295.665 142.501C296.262 142.501 296.777 142.606 297.21 142.815C297.643 143.025 297.989 143.308 298.249 143.663C298.509 144.014 298.675 144.408 298.748 144.846L298.755 144.887H297.572L297.565 144.866C297.474 144.502 297.267 144.192 296.943 143.937C296.62 143.681 296.194 143.554 295.665 143.554C295.223 143.554 294.84 143.665 294.517 143.889C294.193 144.112 293.942 144.429 293.765 144.839C293.591 145.244 293.505 145.725 293.505 146.281V146.295C293.505 146.86 293.594 147.352 293.771 147.771C293.949 148.186 294.2 148.507 294.523 148.735C294.847 148.963 295.228 149.077 295.665 149.077C296.162 149.077 296.567 148.97 296.882 148.756C297.196 148.542 297.422 148.229 297.559 147.819L297.572 147.778L298.748 147.771L298.734 147.847C298.634 148.289 298.456 148.683 298.201 149.029C297.946 149.371 297.609 149.64 297.189 149.836C296.77 150.032 296.264 150.13 295.672 150.13Z" fill="white"/>
<path d="M287.991 150.13C287.303 150.13 286.706 149.973 286.2 149.658C285.694 149.344 285.302 148.899 285.024 148.325C284.746 147.751 284.607 147.074 284.607 146.295V146.281C284.607 145.516 284.744 144.85 285.018 144.285C285.296 143.72 285.688 143.283 286.193 142.973C286.699 142.658 287.296 142.501 287.984 142.501C288.581 142.501 289.096 142.606 289.529 142.815C289.962 143.025 290.309 143.308 290.568 143.663C290.828 144.014 290.994 144.408 291.067 144.846L291.074 144.887H289.892L289.885 144.866C289.794 144.502 289.586 144.192 289.263 143.937C288.939 143.681 288.513 143.554 287.984 143.554C287.542 143.554 287.16 143.665 286.836 143.889C286.512 144.112 286.262 144.429 286.084 144.839C285.911 145.244 285.824 145.725 285.824 146.281V146.295C285.824 146.86 285.913 147.352 286.091 147.771C286.269 148.186 286.519 148.507 286.843 148.735C287.166 148.963 287.547 149.077 287.984 149.077C288.481 149.077 288.887 148.97 289.201 148.756C289.516 148.542 289.741 148.229 289.878 147.819L289.892 147.778L291.067 147.771L291.054 147.847C290.953 148.289 290.776 148.683 290.521 149.029C290.265 149.371 289.928 149.64 289.509 149.836C289.09 150.032 288.584 150.13 287.991 150.13Z" fill="white"/>
<path d="M275.472 150L279.108 140.136H280.052V141.729H279.662L276.764 150H275.472ZM277.119 147.177L277.502 146.131H281.959L282.342 147.177H277.119ZM282.67 150L279.771 141.729V140.136H280.325L283.962 150H282.67Z" fill="white"/>
<path fill-rule="evenodd" clip-rule="evenodd" d="M284 118C282.898 118 281.972 118.356 281.335 119.071C280.717 119.764 280.495 120.657 280.495 121.505C280.495 122.352 280.717 123.245 281.335 123.939C281.976 124.657 282.905 125 284 125C285.095 125 286.024 124.657 286.665 123.939C287.283 123.245 287.505 122.352 287.505 121.505C287.505 120.657 287.283 119.764 286.665 119.071C286.028 118.356 285.102 118 284 118ZM277 131C277 128.239 279.239 126 282 126H286C288.761 126 291 128.239 291 131H277Z" fill="white"/>
<rect x="42" y="188" width="179" height="48" rx="8" fill="white"/>
<path d="M166.699 218.055C165.772 218.055 165.1 217.878 164.684 217.523C164.272 217.164 164.066 216.578 164.066 215.766V210.852H162.738V209.516H164.066V207.375H165.801V209.516H167.621V210.852H165.801V215.352C165.801 215.81 165.892 216.141 166.074 216.344C166.257 216.542 166.559 216.641 166.98 216.641C167.105 216.641 167.212 216.638 167.301 216.633C167.395 216.628 167.501 216.62 167.621 216.609V217.969C167.486 217.99 167.34 218.008 167.184 218.023C167.027 218.044 166.866 218.055 166.699 218.055Z" fill="#131722"/>
<path d="M154.222 218V209.516H155.917V210.797H156.05C156.258 210.344 156.565 209.99 156.972 209.734C157.378 209.479 157.891 209.352 158.511 209.352C159.464 209.352 160.193 209.625 160.698 210.172C161.203 210.719 161.456 211.497 161.456 212.508V218H159.753V212.906C159.753 212.198 159.604 211.672 159.308 211.328C159.016 210.979 158.558 210.805 157.933 210.805C157.521 210.805 157.164 210.896 156.862 211.078C156.56 211.255 156.326 211.51 156.159 211.844C155.998 212.172 155.917 212.565 155.917 213.023V218H154.222Z" fill="#131722"/>
<path d="M147.776 218.164C147.141 218.164 146.604 218.042 146.167 217.797C145.735 217.547 145.409 217.188 145.19 216.719C144.977 216.245 144.87 215.674 144.87 215.008V209.516H146.565V214.609C146.565 215.307 146.703 215.831 146.979 216.18C147.256 216.529 147.706 216.703 148.331 216.703C148.664 216.703 148.961 216.654 149.222 216.555C149.482 216.451 149.701 216.302 149.878 216.109C150.055 215.917 150.185 215.685 150.269 215.414C150.357 215.143 150.401 214.836 150.401 214.492V209.516H152.104V218H150.401V216.719H150.276C150.141 217.021 149.956 217.281 149.722 217.5C149.487 217.714 149.206 217.878 148.878 217.992C148.555 218.107 148.188 218.164 147.776 218.164Z" fill="#131722"/>
<path d="M139.236 218.164C138.408 218.164 137.692 217.987 137.088 217.633C136.489 217.279 136.028 216.773 135.705 216.117C135.382 215.456 135.221 214.672 135.221 213.766V213.75C135.221 212.839 135.382 212.055 135.705 211.398C136.033 210.742 136.497 210.237 137.096 209.883C137.7 209.529 138.413 209.352 139.236 209.352C140.064 209.352 140.778 209.529 141.377 209.883C141.976 210.232 142.437 210.737 142.76 211.398C143.088 212.055 143.252 212.839 143.252 213.75V213.766C143.252 214.672 143.088 215.456 142.76 216.117C142.437 216.773 141.976 217.279 141.377 217.633C140.783 217.987 140.07 218.164 139.236 218.164ZM139.236 216.742C139.721 216.742 140.132 216.625 140.471 216.391C140.809 216.151 141.067 215.81 141.244 215.367C141.421 214.924 141.51 214.391 141.51 213.766V213.75C141.51 213.12 141.421 212.583 141.244 212.141C141.067 211.698 140.809 211.359 140.471 211.125C140.132 210.885 139.721 210.766 139.236 210.766C138.752 210.766 138.34 210.885 138.002 211.125C137.663 211.359 137.403 211.698 137.221 212.141C137.044 212.583 136.955 213.12 136.955 213.75V213.766C136.955 214.391 137.044 214.924 137.221 215.367C137.403 215.81 137.663 216.151 138.002 216.391C138.34 216.625 138.752 216.742 139.236 216.742Z" fill="#131722"/>
<path d="M130.408 218.164C129.585 218.164 128.874 217.987 128.275 217.633C127.682 217.273 127.223 216.763 126.9 216.102C126.577 215.44 126.416 214.651 126.416 213.734V213.719C126.416 212.818 126.575 212.042 126.893 211.391C127.215 210.74 127.674 210.237 128.268 209.883C128.867 209.529 129.577 209.352 130.4 209.352C131.114 209.352 131.726 209.477 132.236 209.727C132.752 209.971 133.161 210.31 133.463 210.742C133.77 211.169 133.963 211.656 134.041 212.203L134.049 212.242H132.416L132.408 212.227C132.314 211.81 132.098 211.464 131.76 211.188C131.421 210.906 130.971 210.766 130.408 210.766C129.939 210.766 129.536 210.885 129.197 211.125C128.859 211.359 128.598 211.698 128.416 212.141C128.239 212.583 128.15 213.109 128.15 213.719V213.734C128.15 214.359 128.242 214.896 128.424 215.344C128.606 215.792 128.867 216.138 129.205 216.383C129.544 216.622 129.945 216.742 130.408 216.742C130.939 216.742 131.369 216.625 131.697 216.391C132.031 216.156 132.265 215.81 132.4 215.352L132.416 215.312L134.041 215.305L134.025 215.375C133.926 215.927 133.726 216.411 133.424 216.828C133.122 217.245 132.718 217.573 132.213 217.812C131.713 218.047 131.111 218.164 130.408 218.164Z" fill="#131722"/>
<path d="M121.604 218.164C120.781 218.164 120.07 217.987 119.471 217.633C118.877 217.273 118.419 216.763 118.096 216.102C117.773 215.44 117.611 214.651 117.611 213.734V213.719C117.611 212.818 117.77 212.042 118.088 211.391C118.411 210.74 118.869 210.237 119.463 209.883C120.062 209.529 120.773 209.352 121.596 209.352C122.309 209.352 122.921 209.477 123.432 209.727C123.947 209.971 124.356 210.31 124.658 210.742C124.965 211.169 125.158 211.656 125.236 212.203L125.244 212.242H123.611L123.604 212.227C123.51 211.81 123.294 211.464 122.955 211.188C122.617 210.906 122.166 210.766 121.604 210.766C121.135 210.766 120.731 210.885 120.393 211.125C120.054 211.359 119.794 211.698 119.611 212.141C119.434 212.583 119.346 213.109 119.346 213.719V213.734C119.346 214.359 119.437 214.896 119.619 215.344C119.801 215.792 120.062 216.138 120.4 216.383C120.739 216.622 121.14 216.742 121.604 216.742C122.135 216.742 122.564 216.625 122.893 216.391C123.226 216.156 123.46 215.81 123.596 215.352L123.611 215.312L125.236 215.305L125.221 215.375C125.122 215.927 124.921 216.411 124.619 216.828C124.317 217.245 123.913 217.573 123.408 217.812C122.908 218.047 122.307 218.164 121.604 218.164Z" fill="#131722"/>
<path d="M111.635 218.141C111.098 218.141 110.617 218.039 110.189 217.836C109.768 217.628 109.434 217.333 109.189 216.953C108.945 216.573 108.822 216.128 108.822 215.617V215.602C108.822 215.091 108.945 214.656 109.189 214.297C109.439 213.938 109.799 213.656 110.268 213.453C110.742 213.245 111.314 213.12 111.986 213.078L115.119 212.891V214.086L112.221 214.273C111.637 214.31 111.208 214.435 110.932 214.648C110.656 214.857 110.518 215.151 110.518 215.531V215.547C110.518 215.932 110.666 216.237 110.963 216.461C111.26 216.68 111.635 216.789 112.088 216.789C112.51 216.789 112.885 216.706 113.213 216.539C113.546 216.367 113.807 216.138 113.994 215.852C114.182 215.56 114.275 215.232 114.275 214.867V212.195C114.275 211.727 114.13 211.37 113.838 211.125C113.551 210.875 113.124 210.75 112.557 210.75C112.083 210.75 111.695 210.833 111.393 211C111.096 211.167 110.898 211.401 110.799 211.703L110.783 211.727H109.15L109.158 211.672C109.226 211.203 109.411 210.797 109.713 210.453C110.02 210.104 110.421 209.833 110.916 209.641C111.416 209.448 111.986 209.352 112.627 209.352C113.34 209.352 113.945 209.466 114.439 209.695C114.939 209.919 115.317 210.245 115.572 210.672C115.833 211.094 115.963 211.602 115.963 212.195V218H114.275V216.797H114.15C113.984 217.083 113.775 217.328 113.525 217.531C113.275 217.729 112.992 217.88 112.674 217.984C112.356 218.089 112.01 218.141 111.635 218.141Z" fill="#131722"/>
<path d="M95.9932 218V209.516H97.6885V210.797H97.8213C98.0296 210.344 98.3369 209.99 98.7432 209.734C99.1494 209.479 99.6624 209.352 100.282 209.352C101.235 209.352 101.965 209.625 102.47 210.172C102.975 210.719 103.228 211.497 103.228 212.508V218H101.524V212.906C101.524 212.198 101.376 211.672 101.079 211.328C100.787 210.979 100.329 210.805 99.7041 210.805C99.2926 210.805 98.9359 210.896 98.6338 211.078C98.3317 211.255 98.0973 211.51 97.9307 211.844C97.7692 212.172 97.6885 212.565 97.6885 213.023V218H95.9932Z" fill="#131722"/>
<path d="M90.5635 218.164C89.7354 218.164 89.0244 217.987 88.4307 217.633C87.8369 217.273 87.3786 216.766 87.0557 216.109C86.738 215.453 86.5791 214.677 86.5791 213.781V213.773C86.5791 212.888 86.738 212.115 87.0557 211.453C87.3786 210.792 87.8317 210.276 88.415 209.906C89.0036 209.536 89.6911 209.352 90.4775 209.352C91.2692 209.352 91.9489 209.529 92.5166 209.883C93.0895 210.237 93.5296 210.734 93.8369 211.375C94.1442 212.01 94.2979 212.755 94.2979 213.609V214.203H87.4385V212.992H93.4541L92.6416 214.117V213.438C92.6416 212.833 92.5479 212.333 92.3604 211.938C92.1781 211.536 91.9255 211.237 91.6025 211.039C91.2796 210.841 90.9072 210.742 90.4854 210.742C90.0635 210.742 89.6859 210.846 89.3525 211.055C89.0244 211.258 88.764 211.56 88.5713 211.961C88.3838 212.362 88.29 212.854 88.29 213.438V214.117C88.29 214.674 88.3838 215.151 88.5713 215.547C88.7588 215.943 89.0244 216.245 89.3682 216.453C89.7171 216.661 90.1286 216.766 90.6025 216.766C90.9671 216.766 91.2796 216.716 91.54 216.617C91.8057 216.513 92.0218 216.385 92.1885 216.234C92.3604 216.083 92.4775 215.935 92.54 215.789L92.5713 215.727H94.2119L94.1963 215.797C94.1234 216.078 93.9958 216.359 93.8135 216.641C93.6312 216.917 93.389 217.169 93.0869 217.398C92.79 217.628 92.4307 217.812 92.0088 217.953C91.5921 218.094 91.1104 218.164 90.5635 218.164Z" fill="#131722"/>
<path d="M77.3359 220.828V209.516H79.0312V210.852H79.1641C79.3255 210.539 79.5339 210.273 79.7891 210.055C80.0495 209.836 80.3464 209.667 80.6797 209.547C81.013 209.427 81.3776 209.367 81.7734 209.367C82.487 209.367 83.1068 209.549 83.6328 209.914C84.1589 210.273 84.5651 210.781 84.8516 211.438C85.1432 212.089 85.2891 212.859 85.2891 213.75V213.766C85.2891 214.661 85.1458 215.438 84.8594 216.094C84.5729 216.745 84.1667 217.25 83.6406 217.609C83.1146 217.964 82.4922 218.141 81.7734 218.141C81.3828 218.141 81.0182 218.081 80.6797 217.961C80.3411 217.836 80.0417 217.664 79.7812 217.445C79.5208 217.227 79.3151 216.964 79.1641 216.656H79.0312V220.828H77.3359ZM81.2891 216.688C81.763 216.688 82.1693 216.57 82.5078 216.336C82.8464 216.102 83.1042 215.766 83.2812 215.328C83.4635 214.891 83.5547 214.37 83.5547 213.766V213.75C83.5547 213.141 83.4635 212.617 83.2812 212.18C83.1042 211.742 82.8464 211.406 82.5078 211.172C82.1693 210.938 81.763 210.82 81.2891 210.82C80.8203 210.82 80.4141 210.94 80.0703 211.18C79.7266 211.414 79.4635 211.75 79.2812 212.188C79.099 212.62 79.0078 213.141 79.0078 213.75V213.766C79.0078 214.365 79.099 214.883 79.2812 215.32C79.4635 215.758 79.7266 216.096 80.0703 216.336C80.4141 216.57 80.8203 216.688 81.2891 216.688Z" fill="#131722"/>
<path d="M70.2188 218.273C69.125 218.273 68.1849 218.034 67.3984 217.555C66.612 217.07 66.0078 216.385 65.5859 215.5C65.1641 214.615 64.9531 213.57 64.9531 212.367V212.352C64.9531 211.138 65.1667 210.091 65.5938 209.211C66.0208 208.331 66.6276 207.651 67.4141 207.172C68.2057 206.693 69.1406 206.453 70.2188 206.453C71.3021 206.453 72.237 206.693 73.0234 207.172C73.8099 207.651 74.4141 208.333 74.8359 209.219C75.263 210.099 75.4766 211.143 75.4766 212.352V212.367C75.4766 213.57 75.2656 214.615 74.8438 215.5C74.4219 216.38 73.8151 217.062 73.0234 217.547C72.237 218.031 71.3021 218.273 70.2188 218.273ZM70.2188 216.719C70.9271 216.719 71.5417 216.539 72.0625 216.18C72.5833 215.82 72.9844 215.315 73.2656 214.664C73.5469 214.008 73.6875 213.242 73.6875 212.367V212.352C73.6875 211.466 73.5469 210.698 73.2656 210.047C72.9844 209.396 72.5833 208.893 72.0625 208.539C71.5417 208.185 70.9271 208.008 70.2188 208.008C69.5104 208.008 68.8958 208.185 68.375 208.539C67.8594 208.893 67.4583 209.396 67.1719 210.047C66.8854 210.698 66.7422 211.466 66.7422 212.352V212.367C66.7422 213.242 66.8802 214.008 67.1562 214.664C67.4375 215.315 67.8359 215.82 68.3516 216.18C68.8724 216.539 69.4948 216.719 70.2188 216.719Z" fill="#131722"/>
<path fill-rule="evenodd" clip-rule="evenodd" d="M182.5 207C180.981 207 179.75 208.231 179.75 209.75V216.75C179.75 218.269 180.981 219.5 182.5 219.5H189.5C191.019 219.5 192.25 218.269 192.25 216.75V214.25H190.75V216.75C190.75 217.44 190.19 218 189.5 218H182.5C181.81 218 181.25 217.44 181.25 216.75V209.75C181.25 209.06 181.81 208.5 182.5 208.5H185V207H182.5ZM188 208.5H189.689L185.97 212.22L187.03 213.28L190.75 209.561V211.25H192.25V207.75V207H191.5H188V208.5Z" fill="#131722"/>
<path fill-rule="evenodd" clip-rule="evenodd" d="M492.29 46.9543C474.075 43.7426 456.706 55.9048 453.494 74.1193L434.259 183.208C431.047 201.423 443.209 218.792 461.424 222.004L464.5 222.546C466.644 223.96 468.986 225.147 471.504 226.064L575.596 263.95C592.976 270.276 612.193 261.314 618.519 243.934L656.405 139.843C662.731 122.463 653.77 103.245 636.39 96.9194L628.677 94.1123C626.57 80.3043 615.897 68.7496 601.378 66.1896L492.29 46.9543Z" fill="#1B1B1B" fill-opacity="0.4"/>
<path fill-rule="evenodd" clip-rule="evenodd" d="M465.473 220.102L465.918 220.395C467.895 221.699 470.057 222.795 472.385 223.643L576.477 261.529C592.52 267.368 610.259 259.096 616.098 243.053L653.984 138.962C659.824 122.919 651.552 105.179 635.509 99.3401L626.361 96.0107L626.131 94.5009C624.185 81.752 614.329 71.0889 600.931 68.7266L491.842 49.4913C475.029 46.5266 458.995 57.7533 456.031 74.5667L436.795 183.656C433.831 200.469 445.057 216.502 461.871 219.467L465.473 220.102ZM453.494 74.1193C456.706 55.9048 474.075 43.7426 492.29 46.9543L601.378 66.1896C615.897 68.7496 626.57 80.3043 628.677 94.1123L636.39 96.9194C653.77 103.245 662.731 122.463 656.405 139.843L618.519 243.934C612.193 261.314 592.976 270.276 575.596 263.95L471.504 226.064C468.986 225.147 466.644 223.96 464.5 222.546L461.424 222.004C443.209 218.792 431.047 201.423 434.259 183.208L453.494 74.1193Z" fill="url(#paint2_linear_9598_71975)"/>
<path d="M453.491 74.1171C456.703 55.9025 474.072 43.7403 492.287 46.952L601.376 66.1874C619.59 69.3991 631.753 86.7685 628.541 104.983L609.306 214.072C606.094 232.286 588.724 244.449 570.51 241.237L461.421 222.002C443.206 218.79 431.044 201.421 434.256 183.206L453.491 74.1171Z" fill="#1B1B1B" fill-opacity="0.5"/>
<path fill-rule="evenodd" clip-rule="evenodd" d="M600.929 68.7243L491.84 49.489C475.026 46.5243 458.993 57.751 456.028 74.5644L436.793 183.653C433.828 200.467 445.055 216.5 461.868 219.465L570.957 238.7C587.771 241.665 603.804 230.438 606.769 213.625L626.004 104.536C628.969 87.7223 617.742 71.689 600.929 68.7243ZM492.287 46.952C474.072 43.7403 456.703 55.9025 453.491 74.1171L434.256 183.206C431.044 201.421 443.206 218.79 461.421 222.002L570.51 241.237C588.724 244.449 606.094 232.286 609.306 214.072L628.541 104.983C631.753 86.7685 619.59 69.3991 601.376 66.1874L492.287 46.952Z" fill="url(#paint3_linear_9598_71975)"/>
<path d="M417 70.4891C417 51.9936 431.994 37 450.489 37H563.511C582.006 37 597 51.9936 597 70.4891V183.511C597 202.006 582.006 217 563.511 217H450.489C431.994 217 417 202.006 417 183.511V70.4891Z" fill="#1B1B1B"/>
<path fill-rule="evenodd" clip-rule="evenodd" d="M563.511 39.5761H450.489C433.416 39.5761 419.576 53.4163 419.576 70.4891V183.511C419.576 200.584 433.416 214.424 450.489 214.424H563.511C580.584 214.424 594.424 200.584 594.424 183.511V70.4891C594.424 53.4163 580.584 39.5761 563.511 39.5761ZM450.489 37C431.994 37 417 51.9936 417 70.4891V183.511C417 202.006 431.994 217 450.489 217H563.511C582.006 217 597 202.006 597 183.511V70.4891C597 51.9936 582.006 37 563.511 37H450.489Z" fill="url(#paint4_linear_9598_71975)"/>
<path fill-rule="evenodd" clip-rule="evenodd" d="M516.567 173.454H477.294V134.858V80.5068H511.331H512.359C527.207 80.5068 539.243 92.543 539.243 107.39V107.975C539.243 114.407 536.984 120.311 533.217 124.938C540.467 129.057 545.368 136.321 545.368 146.093C545.368 161.541 533.062 173.454 516.567 173.454ZM512.359 134.858L515.258 134.858C522.327 134.858 526.909 139.417 526.909 145.439C526.909 151.461 522.327 156.043 515.258 156.043H496.276V134.858L512.359 134.858ZM512.348 118.292C511.691 118.425 511.01 118.494 510.314 118.494H496.58V98.0396H510.314C513.769 98.0396 516.823 99.7523 518.675 102.375C519.844 104.071 520.495 106.108 520.495 108.26C520.495 110.434 519.861 112.439 518.72 114.094C518.399 114.556 518.042 114.99 517.651 115.392C516.286 116.788 514.48 117.81 512.348 118.292Z" fill="url(#paint5_linear_9598_71975)"/>
<mask id="mask0_9598_71975" style="mask-type:alpha" maskUnits="userSpaceOnUse" x="496" y="80" width="50" height="94">
<path fill-rule="evenodd" clip-rule="evenodd" d="M516.572 173.454H496.28V134.858V80.5068H511.335H512.364C527.211 80.5068 539.247 92.543 539.247 107.39V107.975C539.247 114.407 536.989 120.311 533.221 124.938C540.471 129.057 545.372 136.321 545.372 146.093C545.372 161.541 533.066 173.454 516.572 173.454ZM512.364 134.858H515.262C522.332 134.858 526.913 139.417 526.913 145.439C526.913 151.461 522.332 156.043 515.262 156.043H496.28L496.28 134.858H512.364ZM512.352 118.292C511.695 118.425 511.015 118.494 510.318 118.494H496.584V98.0396H510.318C513.773 98.0396 516.827 99.7524 518.679 102.375C519.848 104.071 520.499 106.108 520.499 108.26C520.499 110.431 519.866 112.435 518.728 114.089C518.406 114.553 518.047 114.988 517.656 115.392C516.29 116.788 514.484 117.81 512.352 118.292Z" fill="#5D606B"/>
</mask>
<g mask="url(#mask0_9598_71975)">
<g filter="url(#filter0_d_9598_71975)">
<path fill-rule="evenodd" clip-rule="evenodd" d="M512.36 80.5068H477.295V134.858H512.36C527.208 134.858 539.244 122.822 539.244 107.975V107.39C539.244 92.543 527.208 80.5068 512.36 80.5068ZM510.315 98.0396H496.581V118.494H510.315C515.963 118.494 520.542 113.915 520.542 108.267C520.542 102.619 515.963 98.0396 510.315 98.0396Z" fill="#F8F9FD"/>
</g>
</g>
<rect x="477.299" y="80.5068" width="19.286" height="92.9236" fill="#F8F9FD"/>
</g>
<defs>
<filter id="filter0_d_9598_71975" x="473.349" y="80.5068" width="69.8419" height="62.2443" filterUnits="userSpaceOnUse" color-interpolation-filters="sRGB">
<feFlood flood-opacity="0" result="BackgroundImageFix"/>
<feColorMatrix in="SourceAlpha" type="matrix" values="0 0 0 0 0 0 0 0 0 0 0 0 0 0 0 0 0 0 127 0" result="hardAlpha"/>
<feOffset dy="3.94635"/>
<feGaussianBlur stdDeviation="1.97317"/>
<feComposite in2="hardAlpha" operator="out"/>
<feColorMatrix type="matrix" values="0 0 0 0 0 0 0 0 0 0 0 0 0 0 0 0 0 0 0.25 0"/>
<feBlend mode="normal" in2="BackgroundImageFix" result="effect1_dropShadow_9598_71975"/>
<feBlend mode="normal" in="SourceGraphic" in2="effect1_dropShadow_9598_71975" result="shape"/>
</filter>
<linearGradient id="paint0_linear_9598_71975" x1="289.5" y1="0" x2="289.5" y2="280" gradientUnits="userSpaceOnUse">
<stop stop-color="#3F3F3F"/>
<stop offset="1" stop-color="#3F3F3F" stop-opacity="0"/>
</linearGradient>
<linearGradient id="paint1_linear_9598_71975" x1="135.55" y1="62" x2="277.51" y2="62" gradientUnits="userSpaceOnUse">
<stop stop-color="#003488"/>
<stop offset="0.223958" stop-color="#057CDA"/>
<stop offset="0.473958" stop-color="#0067AF"/>
<stop offset="0.655874" stop-color="#083976"/>
<stop offset="0.869619" stop-color="#01419D"/>
<stop offset="1" stop-color="#1E3355"/>
<stop offset="1" stop-color="#81C3EB"/>
</linearGradient>
<linearGradient id="paint2_linear_9598_71975" x1="433.744" y1="40.9515" x2="644.03" y2="265.862" gradientUnits="userSpaceOnUse">
<stop stop-color="#ADADAD"/>
<stop offset="0.5" stop-color="#1B1B1B" stop-opacity="0"/>
<stop offset="1" stop-color="#ADADAD"/>
</linearGradient>
<linearGradient id="paint3_linear_9598_71975" x1="460.078" y1="36.7605" x2="597.031" y2="241.811" gradientUnits="userSpaceOnUse">
<stop stop-color="#ADADAD"/>
<stop offset="0.5" stop-color="#1B1B1B" stop-opacity="0"/>
<stop offset="1" stop-color="#ADADAD"/>
</linearGradient>
<linearGradient id="paint4_linear_9598_71975" x1="417" y1="32.5" x2="589.636" y2="212.909" gradientUnits="userSpaceOnUse">
<stop stop-color="#ADADAD"/>
<stop offset="0.5" stop-color="#1B1B1B" stop-opacity="0"/>
<stop offset="1" stop-color="#ADADAD"/>
</linearGradient>
<linearGradient id="paint5_linear_9598_71975" x1="499.794" y1="130.183" x2="584.536" y2="64.7274" gradientUnits="userSpaceOnUse">
<stop stop-color="#F8F9FD"/>
<stop offset="0.383326" stop-color="white" stop-opacity="0"/>
<stop offset="1" stop-color="#F8F9FD"/>
</linearGradient>
<clipPath id="clip0_9598_71975">
<rect width="659" height="280" fill="white"/>
</clipPath>
</defs>
</svg>
