<svg xmlns="http://www.w3.org/2000/svg" width="735" height="440" fill="none" viewBox="0 0 735 440"><g clip-path="url(#aet1cj5ir)"><path fill="#000" d="M0 0h735v440H0z"/><g filter="url(#bet1cj5ir)"><path fill="#1f1f1f" d="M129 16a16 16 0 0 1 16-16h574a16 16 0 0 1 16 16v424H129z"/><path stroke="#fff" stroke-opacity=".1" d="M145 .5h574A15.5 15.5 0 0 1 734.5 16v423.5h-605V15.6A15.5 15.5 0 0 1 145 .5Z"/></g><path fill="#b8b8b8" d="M140.6 339v-16.91h6.2q2.52 0 4.32.98a6.6 6.6 0 0 1 2.74 2.86q.96 1.88.96 4.55v.02q0 2.68-.95 4.59a6.7 6.7 0 0 1-2.74 2.91q-1.8 1-4.32 1zm3.02-2.54h2.84q1.7 0 2.89-.68a4.4 4.4 0 0 0 1.8-2.02q.6-1.32.6-3.24v-.03a7.4 7.4 0 0 0-.62-3.19 4.4 4.4 0 0 0-1.8-1.99 5.6 5.6 0 0 0-2.87-.68h-2.84zM157.26 339v-12.5h2.92V339zm1.46-14.34a1.62 1.62 0 1 1 0-3.24q.7 0 1.16.48.5.47.49 1.14 0 .66-.49 1.15-.46.47-1.16.47M167.77 339.25a7 7 0 0 1-2.79-.48 4.3 4.3 0 0 1-1.81-1.34 4 4 0 0 1-.79-2l-.01-.1h2.87l.01.1q.2.78.81 1.23.62.43 1.72.43.73 0 1.23-.18.52-.19.8-.52.28-.34.28-.81v-.01q0-.57-.38-.9a3 3 0 0 0-1.37-.58l-2.08-.46a7 7 0 0 1-1.98-.74 3.3 3.3 0 0 1-1.2-1.17 3 3 0 0 1-.4-1.63q0-1.15.63-2.01.63-.87 1.75-1.35a7 7 0 0 1 2.63-.48 6 6 0 0 1 2.65.52q1.1.5 1.72 1.37.6.85.67 1.9v.12h-2.7l-.02-.08a1.8 1.8 0 0 0-.7-1.2 2.5 2.5 0 0 0-1.62-.47q-.64 0-1.12.18-.48.19-.74.54t-.26.8v.01q0 .36.18.63.17.3.57.5t1.05.36l2.07.46q1.92.43 2.75 1.24.84.8.83 2.17 0 1.2-.68 2.08a4.4 4.4 0 0 1-1.85 1.37q-1.19.5-2.72.5M180.63 339.25q-1.84 0-3.21-.79a5.3 5.3 0 0 1-2.09-2.25 8 8 0 0 1-.72-3.47v-.01q0-2 .73-3.44a5.3 5.3 0 0 1 2.09-2.24q1.35-.8 3.18-.8 1.63 0 2.83.62a4.8 4.8 0 0 1 2.66 3.93v.08h-2.74l-.02-.1q-.18-.9-.86-1.53a2.6 2.6 0 0 0-1.85-.63q-.93 0-1.62.5t-1.06 1.42a6 6 0 0 0-.38 2.2v.01q0 1.32.38 2.24a3 3 0 0 0 1.07 1.4q.7.5 1.62.5 1.13 0 1.8-.58.7-.6.9-1.58l.03-.09h2.74v.08a4.9 4.9 0 0 1-2.72 3.94q-1.17.6-2.76.59M188.19 339v-12.5h2.92V339zm1.46-14.34a1.6 1.6 0 0 1-1.65-1.62q0-.67.48-1.14a1.6 1.6 0 0 1 1.17-.48q.7 0 1.16.48.48.47.48 1.14t-.48 1.15q-.46.47-1.16.47M193.85 343.13V326.5h2.9v2.12h.1q.36-.75.93-1.27.55-.53 1.3-.8.75-.3 1.63-.3a4.7 4.7 0 0 1 4.53 3.03q.63 1.45.63 3.45v.03q0 2-.63 3.45-.61 1.44-1.78 2.24a4.7 4.7 0 0 1-2.72.79 4.29 4.29 0 0 1-2.96-1.09q-.58-.53-.93-1.25h-.1v6.21zm5.99-6.34a2.7 2.7 0 0 0 1.63-.5q.69-.49 1.06-1.4t.38-2.12v-.03a6 6 0 0 0-.38-2.15q-.37-.9-1.06-1.39t-1.63-.48q-.92 0-1.62.5-.7.49-1.09 1.39-.38.9-.38 2.14v.02q0 1.23.38 2.13.4.9 1.1 1.4.69.49 1.6.49M208.11 339v-17.06h2.92V339zM213.87 339v-12.5h2.92V339zm1.46-14.34a1.62 1.62 0 1 1 0-3.24q.7 0 1.16.48.48.47.48 1.14t-.48 1.15q-.46.47-1.16.47M219.53 339v-12.5h2.9v1.95h.1q.48-1 1.43-1.6t2.36-.6q2.06 0 3.18 1.24a5 5 0 0 1 1.13 3.42V339h-2.92v-7.48q0-1.36-.62-2.08-.61-.73-1.89-.73-.84 0-1.46.39-.63.38-.96 1.05-.34.69-.34 1.6V339zM238.67 339.25a6.3 6.3 0 0 1-3.21-.79 5.2 5.2 0 0 1-2.08-2.24 8 8 0 0 1-.71-3.43v-.01q0-1.97.73-3.44a5.5 5.5 0 0 1 5.13-3.09q1.8 0 3.08.79a5 5 0 0 1 2 2.2q.7 1.4.7 3.3v.93h-10.2v-1.95h8.8l-1.4 1.82v-1.12q0-1.24-.38-2.04-.38-.82-1.04-1.24a3 3 0 0 0-1.53-.4q-.86 0-1.54.42t-1.07 1.24a5 5 0 0 0-.39 2.01v1.14q0 1.13.39 1.95a2.9 2.9 0 0 0 2.78 1.67q.73 0 1.29-.22.56-.24.91-.59.35-.37.5-.76l.03-.08h2.73l-.03.13q-.15.7-.57 1.37-.4.68-1.1 1.23-.68.55-1.64.88t-2.18.32M251.68 339v-12.5h2.92V339zm1.46-14.34a1.61 1.61 0 1 1 0-3.24q.7 0 1.17.48.47.47.47 1.14t-.47 1.15q-.47.47-1.17.47M257.34 339v-12.5h2.9v1.95h.1q.48-1 1.43-1.6t2.36-.6q2.05 0 3.18 1.24a5 5 0 0 1 1.13 3.42V339h-2.92v-7.48q0-1.36-.62-2.08-.62-.73-1.89-.73-.84 0-1.46.39-.63.38-.96 1.05-.34.69-.34 1.6V339zM280.63 339v-14.37h-5.09v-2.54h13.19v2.54h-5.09V339zM288.86 339v-12.5h2.9v2.12h.1q.3-1.1 1.05-1.73.76-.63 1.88-.63a4 4 0 0 1 .97.12v2.64q-.21-.09-.54-.12a5 5 0 0 0-.7-.05q-.84 0-1.47.34-.62.34-.96 1a3.4 3.4 0 0 0-.33 1.56V339zM300.86 339.21a5 5 0 0 1-2.18-.47 3.7 3.7 0 0 1-1.47-1.32 3.7 3.7 0 0 1-.52-1.97v-.02q0-1.12.55-1.91a3.7 3.7 0 0 1 1.62-1.27q1.06-.47 2.56-.56l4.76-.28v1.92l-4.34.28q-1.1.06-1.69.5-.57.45-.57 1.2v.02q0 .77.59 1.2.6.45 1.56.45a3 3 0 0 0 1.5-.34q.67-.33 1.06-.92t.39-1.34v-3.8q0-.93-.6-1.46-.59-.54-1.71-.54a3 3 0 0 0-1.65.42q-.63.41-.79 1.1l-.02.09h-2.7v-.13q.1-1.1.75-1.96a4.4 4.4 0 0 1 1.8-1.35 7 7 0 0 1 2.72-.5q1.58 0 2.71.52 1.16.5 1.77 1.45.64.94.64 2.2V339h-2.92v-1.89h-.08q-.36.64-.93 1.13a4.2 4.2 0 0 1-2.81.97M314.83 339.25a4.8 4.8 0 0 1-2.73-.79 5 5 0 0 1-1.8-2.25 9 9 0 0 1-.63-3.46q0-2.01.63-3.46a5 5 0 0 1 1.79-2.24 4.8 4.8 0 0 1 2.73-.79 4.5 4.5 0 0 1 2.96 1.1q.58.52.93 1.26h.08v-6.68h2.92V339h-2.92v-2.09h-.08a4 4 0 0 1-2.24 2.05q-.75.3-1.64.29m.88-2.46q.92 0 1.62-.5.7-.49 1.09-1.4.38-.9.38-2.14t-.4-2.14a3 3 0 0 0-1.07-1.4q-.7-.48-1.62-.49-.94 0-1.63.5-.7.47-1.07 1.38-.37.89-.37 2.14v.01q0 1.25.37 2.16.37.9 1.07 1.4.69.47 1.63.48M324.52 339v-12.5h2.92V339zm1.47-14.34a1.6 1.6 0 0 1-1.66-1.62q0-.67.48-1.14a1.6 1.6 0 0 1 1.18-.48q.68 0 1.16.48.48.47.48 1.14t-.48 1.15q-.47.47-1.16.47M330.18 339v-12.5h2.9v1.95h.1q.48-1 1.43-1.6t2.36-.6q2.06 0 3.19 1.24a5 5 0 0 1 1.12 3.42V339h-2.92v-7.48q0-1.36-.62-2.08-.62-.73-1.88-.73-.86 0-1.47.39-.62.38-.96 1.05-.34.69-.34 1.6V339zM349.45 343.38q-1.65 0-2.88-.45a5 5 0 0 1-1.95-1.25 3.4 3.4 0 0 1-.89-1.78l-.01-.1h2.87l.04.1q.21.54.94.9.73.37 1.88.37 1.44 0 2.22-.7.77-.7.77-1.88v-1.92h-.1q-.33.68-.91 1.16a4.3 4.3 0 0 1-2.96 1 5 5 0 0 1-2.74-.76 5 5 0 0 1-1.79-2.15 8 8 0 0 1-.62-3.32v-.01q0-1.95.63-3.36a5 5 0 0 1 1.8-2.2q1.18-.77 2.76-.77a4.3 4.3 0 0 1 2.92 1.12q.56.52.93 1.24h.07v-2.11h2.92v12.15q0 1.41-.73 2.47a4.6 4.6 0 0 1-2.04 1.66q-1.32.6-3.13.6m-.07-6.8a2.8 2.8 0 0 0 2.68-1.86q.39-.9.39-2.07v-.02q0-1.2-.39-2.07a3 3 0 0 0-1.07-1.36q-.7-.49-1.61-.49-.95 0-1.65.48t-1.07 1.36a5 5 0 0 0-.37 2.07v.02q0 1.2.37 2.1.37.87 1.07 1.35t1.65.48M359.7 339.2q-.74 0-1.24-.5-.48-.51-.49-1.22 0-.74.5-1.22.5-.5 1.22-.5.74 0 1.22.5.5.49.5 1.22 0 .71-.5 1.21-.49.5-1.22.5m0-8.63a1.7 1.7 0 0 1-1.73-1.72q0-.72.5-1.22t1.22-.5 1.22.5q.5.5.5 1.22 0 .74-.5 1.23-.49.5-1.22.5M373.65 339v-14.37h-5.08v-2.54h13.18v2.54h-5.08V339zM383.87 339v-17.06h2.92v6.63h.08q.48-1.1 1.44-1.71.97-.6 2.37-.61 1.36 0 2.35.6.98.6 1.5 1.7.55 1.1.55 2.62V339h-2.92v-7.24q0-1.44-.68-2.24t-1.95-.8q-.82 0-1.45.39-.6.39-.95 1.08-.34.67-.34 1.6V339zM403.15 339.25a6.3 6.3 0 0 1-3.2-.79 5.2 5.2 0 0 1-2.08-2.24 8 8 0 0 1-.72-3.43v-.01q0-1.97.73-3.44a5.4 5.4 0 0 1 5.13-3.09q1.8 0 3.08.79a5 5 0 0 1 2 2.2q.7 1.4.7 3.3v.93h-10.2v-1.95h8.8l-1.4 1.82v-1.12q0-1.24-.38-2.04-.38-.82-1.04-1.24a3 3 0 0 0-1.52-.4q-.87 0-1.55.42-.67.42-1.07 1.24a5 5 0 0 0-.38 2.01v1.14q0 1.13.38 1.95a2.9 2.9 0 0 0 2.78 1.67q.74 0 1.29-.22.57-.24.91-.59.37-.37.5-.76l.03-.08h2.73l-.02.13q-.15.7-.58 1.37-.4.68-1.1 1.23-.68.55-1.64.88t-2.18.32M416.4 339v-16.91h3V339zM422.36 339v-12.5h2.91v1.95h.1q.47-1 1.42-1.6.96-.6 2.36-.6 2.06 0 3.19 1.24a5 5 0 0 1 1.12 3.42V339h-2.92v-7.48q0-1.36-.62-2.08-.62-.73-1.88-.73-.86 0-1.47.39-.62.38-.96 1.05-.34.69-.34 1.6V339zM440.66 339.25a4.8 4.8 0 0 1-2.73-.79 5 5 0 0 1-1.8-2.25 9 9 0 0 1-.63-3.46q0-2.01.63-3.46a5 5 0 0 1 1.79-2.24 4.8 4.8 0 0 1 2.73-.79 4.5 4.5 0 0 1 2.96 1.1q.58.52.93 1.26h.08v-6.68h2.92V339h-2.92v-2.09h-.08a4 4 0 0 1-2.24 2.05 5 5 0 0 1-1.64.29m.88-2.46q.92 0 1.61-.5.7-.49 1.1-1.4.38-.9.38-2.14t-.4-2.14a3 3 0 0 0-1.08-1.4q-.7-.48-1.61-.49-.94 0-1.63.5-.7.47-1.07 1.38-.37.89-.37 2.14v.01q0 1.25.37 2.16.37.9 1.07 1.4.69.47 1.63.48M450.35 339v-12.5h2.92V339zm1.47-14.34a1.62 1.62 0 1 1 0-3.24q.69 0 1.16.48.48.47.48 1.14t-.48 1.15q-.48.47-1.16.47M461.5 339.25q-1.85 0-3.21-.79a5.3 5.3 0 0 1-2.09-2.25 8 8 0 0 1-.73-3.47v-.01q0-2 .74-3.44a5.3 5.3 0 0 1 2.09-2.24q1.34-.8 3.17-.8 1.65 0 2.84.62a4.8 4.8 0 0 1 2.66 3.93v.08h-2.74l-.03-.1q-.17-.9-.85-1.53a2.6 2.6 0 0 0-1.85-.63q-.93 0-1.62.5t-1.07 1.42a6 6 0 0 0-.37 2.2v.01q0 1.32.37 2.24a3 3 0 0 0 1.08 1.4q.69.5 1.62.5 1.13 0 1.8-.58.69-.6.9-1.58l.03-.09h2.74v.08a4.9 4.9 0 0 1-2.72 3.94q-1.18.6-2.76.59M472.63 339.21a5 5 0 0 1-2.18-.47 3.7 3.7 0 0 1-1.46-1.32 3.7 3.7 0 0 1-.53-1.97v-.02q0-1.12.55-1.91a3.7 3.7 0 0 1 1.62-1.27q1.06-.47 2.56-.56l4.76-.28v1.92l-4.33.28q-1.1.06-1.7.5-.56.45-.57 1.2v.02q0 .77.59 1.2.6.45 1.56.45a3 3 0 0 0 1.51-.34q.67-.33 1.06-.92.38-.6.38-1.34v-3.8q0-.93-.6-1.46-.59-.54-1.7-.54a3 3 0 0 0-1.66.42q-.62.41-.79 1.1l-.02.09h-2.7v-.13a4 4 0 0 1 .76-1.96 4.4 4.4 0 0 1 1.8-1.35 7 7 0 0 1 2.7-.5q1.59 0 2.73.52 1.14.5 1.77 1.45.63.94.63 2.2V339h-2.92v-1.89h-.08q-.35.64-.93 1.13a4.2 4.2 0 0 1-2.8.97M486.67 339.21q-1.99 0-2.94-.83-.94-.84-.94-2.75v-6.87H481v-2.25h1.8v-3.15h2.97v3.15h2.38v2.25h-2.38v6.55q0 .93.4 1.29.4.35 1.21.35a7 7 0 0 0 .77-.05v2.2a9 9 0 0 1-1.47.11M495.66 339.25a6.4 6.4 0 0 1-3.21-.78 5.4 5.4 0 0 1-2.1-2.24 8 8 0 0 1-.74-3.48v-.02q0-2 .75-3.46.75-1.44 2.11-2.23 1.37-.8 3.18-.79 1.83 0 3.19.79 1.35.78 2.1 2.23t.76 3.46v.02a7.5 7.5 0 0 1-.75 3.48q-.75 1.46-2.1 2.24a6.3 6.3 0 0 1-3.19.78m0-2.36q.95 0 1.63-.48.67-.5 1.06-1.42.37-.93.37-2.24v-.02q0-1.3-.37-2.21a3 3 0 0 0-1.07-1.41q-.69-.5-1.63-.5t-1.62.5q-.69.48-1.06 1.4t-.38 2.22v.02q0 1.32.38 2.24.37.94 1.06 1.42t1.63.48M503.83 339v-12.5h2.9v2.12h.1q.3-1.1 1.06-1.73.75-.63 1.87-.63a4 4 0 0 1 .97.12v2.64q-.21-.09-.54-.12a5 5 0 0 0-.69-.05q-.85 0-1.47.34-.63.34-.96 1a3.4 3.4 0 0 0-.33 1.56V339zM522.06 339v-14.37h-5.09v-2.54h13.18v2.54h-5.08V339zM532.28 339v-17.06h2.91v6.63h.09q.48-1.1 1.44-1.71.97-.6 2.37-.61 1.35 0 2.34.6t1.51 1.7q.54 1.1.54 2.62V339h-2.92v-7.24q0-1.44-.68-2.24a2.4 2.4 0 0 0-1.94-.8q-.84 0-1.46.39-.6.39-.95 1.08-.34.67-.34 1.6V339zM549.74 339.21a5 5 0 0 1-2.18-.47 3.7 3.7 0 0 1-1.47-1.32 3.7 3.7 0 0 1-.52-1.97v-.02q0-1.12.55-1.91a3.7 3.7 0 0 1 1.62-1.27q1.05-.47 2.56-.56l4.76-.28v1.92l-4.34.28q-1.1.06-1.69.5-.57.45-.57 1.2v.02q0 .77.59 1.2.6.45 1.56.45a3 3 0 0 0 1.5-.34q.67-.33 1.06-.92t.39-1.34v-3.8q0-.93-.6-1.46-.59-.54-1.71-.54a3 3 0 0 0-1.65.42q-.63.41-.79 1.1l-.02.09h-2.7v-.13q.1-1.1.75-1.96a4.4 4.4 0 0 1 1.8-1.35 7 7 0 0 1 2.72-.5q1.58 0 2.71.52 1.15.5 1.77 1.45.64.94.64 2.2V339h-2.92v-1.89h-.08q-.36.64-.93 1.13a4.2 4.2 0 0 1-2.81.97M563.78 339.21q-2 0-2.94-.83-.94-.84-.94-2.75v-6.87h-1.8v-2.25h1.8v-3.15h2.97v3.15h2.37v2.25h-2.37v6.55q0 .93.4 1.29.39.35 1.21.35a7 7 0 0 0 .76-.05v2.2a9 9 0 0 1-1.46.11M576.47 339l-4.52-16.91h3.13l2.94 12.75h.08l3.37-12.75h2.74l3.37 12.75h.08l2.95-12.75h3.13L589.2 339h-2.9l-3.42-12.13h-.08L579.38 339zM599.84 339.25q-1.85 0-3.2-.78a5.4 5.4 0 0 1-2.1-2.24 8 8 0 0 1-.75-3.48v-.02q0-2 .75-3.46.75-1.44 2.11-2.23 1.37-.8 3.18-.79 1.83 0 3.19.79 1.35.78 2.1 2.23t.76 3.46v.02a7.5 7.5 0 0 1-.75 3.48q-.75 1.46-2.1 2.24a6.3 6.3 0 0 1-3.19.78m0-2.36q.95 0 1.63-.48.67-.5 1.05-1.42.38-.93.38-2.24v-.02q0-1.3-.37-2.21a3 3 0 0 0-1.07-1.41q-.69-.5-1.63-.5t-1.62.5q-.69.48-1.06 1.4t-.38 2.22v.02q0 1.32.38 2.24.37.94 1.06 1.42t1.63.48M608.01 339v-12.5h2.9v2.12h.1q.3-1.1 1.06-1.73.75-.63 1.87-.63a4 4 0 0 1 .97.12v2.64q-.21-.09-.54-.12a5 5 0 0 0-.69-.05q-.86 0-1.47.34-.63.34-.97 1a3.4 3.4 0 0 0-.32 1.56V339zM616.76 339v-17.06h2.9V339zm7.86 0-4.19-5.68 1.93-2.08 5.66 7.76zm-5.36-3.94v-3.38h.5l4.66-5.17h3.36l-5.75 6.2-.68.2zM633.91 339.25a7 7 0 0 1-2.79-.48 4.3 4.3 0 0 1-1.81-1.34 4 4 0 0 1-.79-2l-.01-.1h2.87l.01.1q.2.78.81 1.23.62.43 1.72.43.72 0 1.24-.18.5-.19.8-.52.27-.34.27-.81v-.01q0-.57-.38-.9a3 3 0 0 0-1.37-.58l-2.08-.46a7 7 0 0 1-1.98-.74 3.3 3.3 0 0 1-1.2-1.17 3 3 0 0 1-.4-1.63q0-1.15.63-2.01.63-.87 1.75-1.35a7 7 0 0 1 2.63-.48 6 6 0 0 1 2.65.52q1.1.5 1.72 1.37.6.85.67 1.9v.12h-2.7l-.02-.08a1.8 1.8 0 0 0-.7-1.2 2.5 2.5 0 0 0-1.62-.47q-.64 0-1.12.18-.49.19-.74.54-.26.35-.26.8v.01q0 .36.17.63.18.3.58.5t1.05.36l2.07.46q1.92.43 2.75 1.24.83.8.83 2.17 0 1.2-.68 2.08a4.4 4.4 0 0 1-1.85 1.37q-1.19.5-2.72.5M652.78 339v-14.02h-.1l-4.56 3v-2.79l4.65-3.1h2.99V339zM668.1 339.32a5.8 5.8 0 0 1-3.51-1.07 7 7 0 0 1-2.25-3.04 13 13 0 0 1-.8-4.66v-.02q0-2.7.8-4.65a6.7 6.7 0 0 1 2.25-3.04 5.8 5.8 0 0 1 3.51-1.07q2.05 0 3.52 1.07a6.7 6.7 0 0 1 2.25 3.04q.78 1.95.78 4.65v.02q0 2.7-.78 4.66a7 7 0 0 1-2.25 3.04 6 6 0 0 1-3.52 1.07m0-2.46q1.12 0 1.9-.77.78-.76 1.2-2.16.41-1.42.42-3.38v-.02q0-1.97-.43-3.37a5 5 0 0 0-1.2-2.15 2.6 2.6 0 0 0-1.89-.76q-1.1 0-1.9.76-.78.75-1.2 2.15t-.41 3.37v.02q0 1.95.4 3.38.43 1.4 1.21 2.16t1.9.77M683.42 339.32a6 6 0 0 1-3.52-1.07 7 7 0 0 1-2.25-3.04 13 13 0 0 1-.78-4.66v-.02q0-2.7.78-4.65a6.7 6.7 0 0 1 2.25-3.04 6 6 0 0 1 3.52-1.07q2.05 0 3.51 1.07a6.7 6.7 0 0 1 2.25 3.04q.8 1.95.79 4.65v.02q0 2.7-.79 4.66a7 7 0 0 1-2.25 3.04 6 6 0 0 1-3.51 1.07m0-2.46q1.1 0 1.9-.77.78-.76 1.2-2.16.4-1.42.41-3.38v-.02q0-1.97-.42-3.37a5 5 0 0 0-1.2-2.15 2.6 2.6 0 0 0-1.9-.76q-1.1 0-1.89.76-.79.75-1.2 2.15-.42 1.4-.42 3.37v.02q0 1.95.41 3.38.43 1.4 1.21 2.16t1.9.77M695.96 330.76q-1.17 0-2-.54a3.6 3.6 0 0 1-1.3-1.52 6 6 0 0 1-.45-2.36q0-1.37.45-2.35.46-.99 1.3-1.53a3.6 3.6 0 0 1 2-.53q1.17 0 2 .53.85.54 1.3 1.53.45.98.45 2.34v.01q0 1.37-.46 2.36-.45.99-1.29 1.52a3.6 3.6 0 0 1-2 .54m0-1.73q.76 0 1.18-.7a4 4 0 0 0 .42-1.99q0-1.29-.42-1.98a1.3 1.3 0 0 0-1.18-.69q-.75 0-1.19.7a4 4 0 0 0-.42 1.96v.01q0 1.3.42 2 .43.69 1.19.69m1.52 9.97h-2.37L706 322.09h2.36zm10.01.16q-1.16 0-2-.54a3.5 3.5 0 0 1-1.3-1.52 6 6 0 0 1-.45-2.35v-.02q0-1.35.44-2.34a3.4 3.4 0 0 1 3.31-2.06q1.16 0 2 .54.85.53 1.3 1.52.44.99.44 2.34v.02q0 1.36-.45 2.35-.44 1-1.29 1.52-.84.54-2 .54m0-1.73q.76 0 1.17-.7.42-.7.42-1.98v-.02q0-1.27-.42-1.96a1.3 1.3 0 0 0-1.17-.7q-.77 0-1.2.7a4 4 0 0 0-.4 1.96v.02q0 1.27.4 1.98.43.7 1.2.7M145.8 367.25q-1.85 0-3.2-.78a5.4 5.4 0 0 1-2.1-2.24 8 8 0 0 1-.74-3.48v-.02q0-2 .75-3.46.75-1.44 2.11-2.23 1.36-.8 3.18-.79 1.83 0 3.18.79 1.36.78 2.11 2.23t.75 3.46v.02a7.5 7.5 0 0 1-.75 3.48q-.74 1.46-2.1 2.24a6.3 6.3 0 0 1-3.18.78m0-2.36q.96 0 1.64-.48.68-.5 1.05-1.42.38-.93.38-2.24v-.02q0-1.3-.38-2.21a3 3 0 0 0-1.06-1.41q-.7-.5-1.63-.5t-1.62.5q-.7.48-1.07 1.4t-.37 2.22v.02q0 1.32.37 2.24.37.94 1.07 1.42.69.48 1.63.48M154.81 367v-10.24h-1.77v-2.25h1.77v-1.2q0-1.23.41-2.02.41-.8 1.27-1.19.86-.4 2.22-.4a11 11 0 0 1 1.56.13v2.04l-.4-.05h-.5q-.89 0-1.29.4t-.41 1.19v1.1h2.55v2.25h-2.5V367zM172.22 367.21q-2 0-2.95-.83-.93-.84-.93-2.75v-6.87h-1.8v-2.25h1.8v-3.15h2.96v3.15h2.38v2.25h-2.38v6.55q0 .93.4 1.29.4.35 1.22.35a7 7 0 0 0 .76-.05v2.2a9 9 0 0 1-1.47.11M176 367v-17.06h2.92v6.63h.08q.48-1.1 1.44-1.71.97-.6 2.37-.61 1.36 0 2.34.6.99.6 1.52 1.7.54 1.1.54 2.62V367h-2.92v-7.24q0-1.44-.68-2.24t-1.95-.8q-.83 0-1.45.39-.6.39-.95 1.08-.34.67-.34 1.6V367zM195.28 367.25a6.3 6.3 0 0 1-3.21-.79 5.2 5.2 0 0 1-2.07-2.24 8 8 0 0 1-.72-3.43v-.01q0-1.97.73-3.44a5.4 5.4 0 0 1 5.13-3.09q1.8 0 3.08.79a5 5 0 0 1 2 2.2q.7 1.4.7 3.3v.93h-10.2v-1.95h8.8l-1.4 1.82v-1.12q0-1.24-.38-2.04-.38-.82-1.04-1.24a3 3 0 0 0-1.52-.4q-.87 0-1.55.42t-1.07 1.24a5 5 0 0 0-.38 2.01v1.14q0 1.13.38 1.95a2.9 2.9 0 0 0 2.78 1.67q.74 0 1.29-.22.56-.24.91-.59.35-.37.5-.76l.03-.08h2.73l-.02.13q-.16.7-.58 1.37-.4.68-1.1 1.23-.68.55-1.64.88t-2.18.32M212.66 367v-14.37h-5.08v-2.54h13.18v2.54h-5.09V367zM222.37 367v-12.5h2.91V367zm1.46-14.34a1.62 1.62 0 1 1 0-3.24q.7 0 1.16.48.48.47.48 1.14t-.48 1.15q-.47.47-1.16.47M228.03 367v-12.5h2.9v2h.1a3.4 3.4 0 0 1 1.31-1.64q.91-.6 2.15-.61.86 0 1.55.3a3.3 3.3 0 0 1 1.91 2.17h.09a3.8 3.8 0 0 1 2.2-2.17q.77-.3 1.67-.3 1.24 0 2.15.53.9.51 1.42 1.45.5.93.5 2.2V367h-2.92v-7.86q0-.8-.25-1.33a2 2 0 0 0-.77-.82 2.4 2.4 0 0 0-1.22-.28q-.7 0-1.25.33a2.3 2.3 0 0 0-.84.9q-.3.57-.3 1.33V367h-2.86v-8.02q0-.7-.26-1.2-.27-.52-.77-.79a2.4 2.4 0 0 0-1.18-.28 2.3 2.3 0 0 0-2.12 1.29q-.3.6-.3 1.36V367zM254.03 367.25a6.3 6.3 0 0 1-3.2-.79 5.2 5.2 0 0 1-2.08-2.24 8 8 0 0 1-.72-3.43v-.01q0-1.97.73-3.44a5.4 5.4 0 0 1 5.13-3.09q1.8 0 3.09.79a5 5 0 0 1 1.99 2.2q.7 1.4.7 3.3v.93h-10.2v-1.95h8.8l-1.4 1.82v-1.12q0-1.24-.37-2.04-.37-.82-1.05-1.24a3 3 0 0 0-1.52-.4q-.87 0-1.55.42-.67.42-1.06 1.24a5 5 0 0 0-.4 2.01v1.14q0 1.13.4 1.95a2.9 2.9 0 0 0 2.77 1.67q.74 0 1.3-.22.56-.24.9-.59.37-.37.5-.76l.03-.08h2.73l-.02.13q-.16.7-.57 1.37t-1.1 1.23-1.65.88-2.18.32M140.44 404v-11.27h6.98v1.26h-5.58v3.62h5.3v1.25h-5.3v3.87h5.58V404zM151.86 404l-3.11-8.42h1.43l2.3 6.94h.13l2.3-6.94h1.44l-3.11 8.42zM160.96 404.15q-1.2 0-2.07-.53a3.5 3.5 0 0 1-1.33-1.5 5 5 0 0 1-.46-2.3q0-1.31.46-2.3t1.32-1.54a3.6 3.6 0 0 1 2-.55q1.14 0 1.96.53.84.54 1.27 1.49.45.94.44 2.2v.53h-6.75v-1.09h6.06l-.67 1v-.54q0-1-.3-1.64a2.1 2.1 0 0 0-2.02-1.27q-.69 0-1.22.34-.54.32-.85.97-.3.66-.3 1.6v.54q0 .89.3 1.54a2.3 2.3 0 0 0 2.2 1.3q.56 0 .98-.15.43-.16.7-.4t.38-.49l.03-.07h1.36l-.01.06q-.11.44-.4.84-.27.39-.7.72-.45.34-1.04.52-.6.2-1.34.19M166.35 404v-8.42h1.36v1.25h.12a2 2 0 0 1 .82-1.03q.58-.37 1.43-.37.2 0 .38.02l.3.03v1.32a4 4 0 0 0-.83-.07q-.66 0-1.15.25a2 2 0 0 0-.8.72q-.27.47-.27 1.08V404zM172.92 406.95a3 3 0 0 1-.6-.04v-1.12l.27.03h.3q.57 0 .94-.29.37-.3.6-1.02l.15-.5-3.11-8.43h1.45l2.6 7.78-.55-.85h.65l-.54.85 2.58-7.78h1.43l-3.29 8.94a6 6 0 0 1-.72 1.47q-.39.54-.9.74-.51.22-1.26.22M187.75 404.06q-1.3 0-1.88-.52-.59-.53-.58-1.73v-5.1h-1.33v-1.13h1.33v-2.18h1.4v2.18h1.85v1.12h-1.85v4.77q0 .75.28 1.07t.94.32h.3l.33-.03v1.15zM190.25 404v-8.42h1.36v1.25h.13q.24-.67.82-1.03.57-.37 1.43-.37.19 0 .38.02l.3.03v1.32a4 4 0 0 0-.84-.07q-.65 0-1.15.25-.5.27-.79.72-.28.47-.28 1.08V404zM198.34 404.15a3 3 0 0 1-1.44-.3q-.63-.3-1-.87a2.4 2.4 0 0 1-.37-1.33v-.02q0-.75.36-1.28.36-.54 1.04-.84.7-.3 1.67-.36l3.1-.19v1.09l-2.94.18q-.95.06-1.4.4t-.44.97v.02q0 .64.48 1 .49.35 1.22.35.7 0 1.24-.28t.84-.75.31-1.08v-2.63q0-.78-.47-1.18-.48-.42-1.42-.42-.75 0-1.24.28-.48.26-.65.75v.03h-1.37l.01-.05q.11-.66.55-1.16t1.15-.77q.7-.28 1.6-.28 1.03 0 1.74.34.72.33 1.09.96t.37 1.5V404h-1.36v-1.24h-.12a3 3 0 0 1-1.5 1.23q-.48.16-1.05.16M207.65 404.15a3.2 3.2 0 0 1-3.1-2.06 6 6 0 0 1-.43-2.3q0-1.34.44-2.3.44-.99 1.22-1.52a3.3 3.3 0 0 1 1.87-.54 3 3 0 0 1 2 .7q.4.31.62.78h.13v-4.68h1.36V404h-1.36v-1.34h-.13a3 3 0 0 1-1.53 1.3q-.5.2-1.1.19m.31-1.2q.76 0 1.32-.39.56-.38.85-1.08.3-.72.3-1.68v-.02q0-.97-.3-1.68-.3-.7-.85-1.08a2.3 2.3 0 0 0-1.32-.39q-.76 0-1.32.39-.54.37-.84 1.07t-.3 1.7q0 .99.3 1.7.3.69.84 1.08.56.38 1.32.38M217.49 404.15q-1.2 0-2.07-.53a3.5 3.5 0 0 1-1.33-1.5 5 5 0 0 1-.46-2.3q0-1.31.46-2.3t1.32-1.54a3.6 3.6 0 0 1 2-.55q1.14 0 1.96.53.82.54 1.27 1.49.44.94.44 2.2v.53h-6.75v-1.09h6.06l-.67 1v-.54q0-1-.3-1.64a2.1 2.1 0 0 0-2.02-1.27q-.7 0-1.22.34-.54.32-.85.97-.3.66-.31 1.6v.54q0 .89.3 1.54a2.3 2.3 0 0 0 2.2 1.3q.57 0 1-.15.4-.16.69-.4.27-.24.38-.49l.03-.07h1.36l-.01.06q-.11.44-.4.84-.27.39-.7.72-.45.34-1.05.52-.6.2-1.33.19M222.88 404v-8.42h1.35v1.25h.13a2 2 0 0 1 .82-1.03q.57-.37 1.43-.37.2 0 .38.02l.3.03v1.32a4 4 0 0 0-.84-.07q-.64 0-1.15.25a2 2 0 0 0-.79.72q-.28.47-.28 1.08V404zM232.91 404v-11.77h1.36v4.61h.13q.32-.67.92-1.03.6-.38 1.53-.38t1.6.37q.66.36 1 1.05.35.7.35 1.7V404h-1.36v-5.12q0-1.14-.49-1.7-.48-.54-1.48-.55-.67 0-1.17.3-.5.28-.76.81-.27.54-.27 1.28V404zM244.25 404.15a3 3 0 0 1-1.44-.3q-.63-.3-1-.87a2.4 2.4 0 0 1-.37-1.33v-.02q0-.75.36-1.28.36-.54 1.05-.84.67-.3 1.66-.36l3.1-.19v1.09l-2.94.18q-.95.06-1.4.4t-.44.97v.02q0 .64.48 1 .49.35 1.22.35.7 0 1.24-.28t.84-.75.31-1.08v-2.63q0-.78-.47-1.18-.47-.42-1.42-.42-.75 0-1.24.28-.48.26-.65.75v.03h-1.36v-.05q.12-.66.55-1.16.45-.5 1.15-.77.7-.28 1.6-.28 1.03 0 1.74.34.72.33 1.09.96t.37 1.5V404h-1.36v-1.24h-.12a3 3 0 0 1-1.5 1.23q-.48.16-1.05.16M253.34 404.15q-.94 0-1.65-.28a3 3 0 0 1-1.16-.8 2.3 2.3 0 0 1-.5-1.22h1.38q.18.52.67.84.5.33 1.3.33.58 0 1-.17.45-.17.7-.46t.25-.68v-.01a1 1 0 0 0-.35-.73q-.34-.3-1.12-.5l-1.3-.3a5 5 0 0 1-1.3-.49 2 2 0 0 1-.75-.74q-.25-.45-.25-1.05 0-.72.41-1.26.42-.56 1.13-.88.7-.32 1.6-.32.88 0 1.56.28.69.27 1.1.78t.52 1.2h-1.34q-.14-.5-.6-.81-.49-.32-1.25-.32-.5 0-.9.17-.38.16-.6.43-.24.3-.24.66v.02q0 .27.15.5.15.21.46.38.32.15.8.29l1.3.31q1.2.3 1.77.83.6.54.59 1.44v.02q0 .75-.45 1.33-.45.57-1.2.89-.77.32-1.73.32M265.69 404.06q-1.3 0-1.89-.52-.57-.53-.58-1.73v-5.1h-1.32v-1.13h1.32v-2.18h1.41v2.18h1.84v1.12h-1.84v4.77q0 .75.28 1.07t.94.32h.3l.32-.03v1.15zM268.27 404v-11.77h1.36v4.61h.12q.32-.67.92-1.03.6-.38 1.53-.38.95 0 1.6.37.66.36 1 1.05.36.7.35 1.7V404h-1.36v-5.12q0-1.14-.49-1.7-.46-.54-1.48-.55-.67 0-1.16.3-.5.28-.77.81-.27.54-.26 1.28V404zM279.6 404.15q-.79 0-1.43-.3t-1.01-.87a2.4 2.4 0 0 1-.37-1.33v-.02q0-.75.36-1.28.37-.54 1.05-.84t1.66-.36l3.1-.19v1.09l-2.93.18q-.96.06-1.4.4-.45.35-.45.97v.02q0 .64.49 1 .48.35 1.22.35.69 0 1.23-.28t.84-.75q.32-.48.32-1.08v-2.63q0-.78-.48-1.18-.46-.42-1.41-.42-.75 0-1.25.28-.48.26-.64.75l-.01.03h-1.36v-.05q.12-.66.55-1.16.45-.5 1.15-.77.7-.28 1.6-.28 1.04 0 1.75.34.71.33 1.08.96t.38 1.5V404h-1.36v-1.24h-.13a3 3 0 0 1-1.5 1.23q-.47.16-1.04.16M288.8 404.06q-1.3 0-1.89-.52-.57-.53-.57-1.73v-5.1H285v-1.13h1.33v-2.18h1.4v2.18h1.85v1.12h-1.85v4.77q0 .75.28 1.07t.94.32h.3l.33-.03v1.15zM298.94 404.15q-1.2 0-2.07-.52a3.5 3.5 0 0 1-1.34-1.51 5 5 0 0 1-.47-2.32v-.02q0-1.35.47-2.33a3.5 3.5 0 0 1 1.34-1.5 4 4 0 0 1 2.07-.52q1.2 0 2.07.52.87.53 1.34 1.5.48.98.48 2.33v.02q0 1.35-.48 2.32a3.5 3.5 0 0 1-3.4 2.03m0-1.2q.8 0 1.36-.38.56-.37.84-1.08.3-.7.3-1.7 0-1.01-.3-1.71t-.84-1.07a2.4 2.4 0 0 0-1.36-.38q-.8 0-1.35.38-.55.36-.85 1.07a5 5 0 0 0-.29 1.7v.02q0 .99.3 1.7.29.7.84 1.07.56.38 1.35.38M304.62 404v-8.42h1.36v1.26h.12q.32-.67.93-1.03.6-.38 1.53-.38 1.41 0 2.18.81.75.8.76 2.3V404h-1.36v-5.12q0-1.14-.48-1.7-.47-.54-1.49-.55-.66 0-1.16.3-.5.28-.76.81-.27.54-.27 1.28V404zM317.08 404.15q-1.2 0-2.07-.53a3.5 3.5 0 0 1-1.32-1.5 5 5 0 0 1-.46-2.3q0-1.31.46-2.3t1.32-1.54a3.6 3.6 0 0 1 1.99-.55q1.14 0 1.97.53.83.54 1.26 1.49.45.94.45 2.2v.53h-6.75v-1.09h6.05l-.67 1v-.54q0-1-.3-1.64a2.1 2.1 0 0 0-2.02-1.27q-.68 0-1.22.34-.53.32-.84.97-.31.66-.31 1.6v.54q0 .89.3 1.54a2.3 2.3 0 0 0 2.2 1.3q.56 0 .99-.15.42-.16.7-.4.26-.24.38-.49l.03-.07h1.36l-.02.06q-.1.44-.39.84-.27.39-.71.72-.44.34-1.04.52-.6.2-1.34.19M327.22 404v-7.3h-1.4v-1.12h1.4v-.94q0-.84.27-1.39.28-.55.83-.82t1.34-.27a4 4 0 0 1 .9.07v1.09l-.28-.03h-.34q-.73-.01-1.05.34-.31.36-.31 1.05v.9h1.91v1.12h-1.91v7.3zM335.25 404.15q-1.2 0-2.07-.52a3.5 3.5 0 0 1-1.34-1.51 5 5 0 0 1-.47-2.32v-.02q0-1.35.47-2.33a3.5 3.5 0 0 1 1.34-1.5 4 4 0 0 1 2.07-.52q1.2 0 2.07.52.87.53 1.34 1.5.47.98.47 2.33v.02q0 1.35-.47 2.32a3.5 3.5 0 0 1-3.4 2.03m0-1.2q.8 0 1.35-.38.55-.37.85-1.08.3-.7.3-1.7 0-1.01-.3-1.71t-.85-1.07a2.4 2.4 0 0 0-1.35-.38q-.8 0-1.35.38-.55.36-.85 1.07-.3.7-.3 1.7v.02q0 .99.3 1.7.3.7.85 1.07t1.35.38M341 404v-11.77h1.36V404zM347.77 404.15a3.2 3.2 0 0 1-3.1-2.06 6 6 0 0 1-.44-2.3q0-1.34.44-2.3.44-.99 1.23-1.52a3.3 3.3 0 0 1 1.87-.54 3 3 0 0 1 2 .7q.4.31.62.78h.13v-4.68h1.36V404h-1.36v-1.34h-.13a3 3 0 0 1-1.54 1.3q-.5.2-1.08.19m.3-1.2q.78 0 1.33-.39.55-.38.85-1.08.3-.72.3-1.68v-.02q0-.97-.3-1.68-.3-.7-.85-1.08a2.3 2.3 0 0 0-1.32-.39q-.76 0-1.32.39-.55.37-.85 1.07t-.29 1.7.3 1.7q.3.69.84 1.08.55.38 1.32.38M357.6 404.15q-1.2 0-2.06-.53a3.5 3.5 0 0 1-1.33-1.5 5 5 0 0 1-.46-2.3q0-1.31.46-2.3t1.32-1.54a3.6 3.6 0 0 1 1.99-.55q1.15 0 1.97.53.82.54 1.26 1.49.45.94.45 2.2v.53h-6.75v-1.09h6.05l-.67 1v-.54q0-1-.3-1.64a2.1 2.1 0 0 0-2.02-1.27q-.68 0-1.22.34-.52.32-.84.97-.3.66-.31 1.6v.54q0 .89.3 1.54a2.3 2.3 0 0 0 2.2 1.3q.56 0 .99-.15.42-.16.7-.4t.38-.49l.03-.07h1.36l-.02.06q-.1.44-.39.84-.27.39-.71.72-.45.34-1.04.52-.6.2-1.33.19M363 404v-8.42h1.35v1.25h.13a2 2 0 0 1 .82-1.03q.57-.37 1.43-.37.19 0 .38.02l.3.03v1.32a4 4 0 0 0-.84-.07q-.64 0-1.15.25a2 2 0 0 0-.79.72q-.28.47-.28 1.08V404zM372.32 400.1v-1.27h12.72v1.26zM393.03 392.73l-.68 4.44h-1.56l1.23-4.44zm2.6 0-.69 4.44h-1.55l1.23-4.44zM400.34 404l-3.07-11.27h1.47l2.24 9.16h.1l2.52-9.16h1.42l2.52 9.16h.1l2.24-9.16h1.47L408.27 404h-1.32l-2.6-8.9h-.1l-2.58 8.9zM413.03 404v-8.42h1.36V404zm.69-10.05a1 1 0 0 1-.67-.27 1 1 0 0 1-.27-.66q0-.4.27-.67.28-.27.67-.27t.66.27.27.67q0 .37-.27.66a1 1 0 0 1-.66.27M416.63 404v-8.42H418v1.26h.13q.32-.67.92-1.03.6-.38 1.53-.38 1.43 0 2.18.81.77.8.77 2.3V404h-1.36v-5.12q0-1.14-.49-1.7-.47-.54-1.48-.55-.67 0-1.17.3-.48.28-.76.81-.27.54-.27 1.28V404zM425.66 404v-8.42h1.36v1.26h.13q.31-.67.92-1.03.6-.38 1.53-.38 1.42 0 2.18.81.75.8.76 2.3V404h-1.36v-5.12q0-1.14-.48-1.7-.48-.54-1.49-.55-.66 0-1.16.3-.5.28-.76.81-.27.54-.27 1.28V404zM434.72 404v-8.42h1.36V404zm.69-10.05a1 1 0 0 1-.67-.27 1 1 0 0 1-.27-.66q0-.4.27-.67.28-.27.67-.27t.66.27.27.67q0 .37-.27.66a1 1 0 0 1-.66.27M438.32 404v-8.42h1.36v1.26h.13q.32-.67.92-1.03.6-.38 1.53-.38 1.43 0 2.18.81.77.8.77 2.3V404h-1.36v-5.12q0-1.14-.49-1.7-.47-.54-1.48-.55-.67 0-1.17.3-.48.28-.76.81-.27.54-.27 1.28V404zM450.82 406.97q-1.02 0-1.77-.29a3 3 0 0 1-1.22-.8q-.45-.53-.55-1.2l.02-.02h1.4l.01.01q.11.48.66.78.54.32 1.45.32 1.13 0 1.76-.52.65-.51.65-1.44v-1.7h-.13a3 3 0 0 1-1.56 1.29q-.51.16-1.08.16-1.08 0-1.88-.51a3.4 3.4 0 0 1-1.22-1.44q-.43-.9-.43-2.1v-.01q0-1.18.43-2.1.44-.9 1.23-1.44a3.3 3.3 0 0 1 1.9-.53q.6 0 1.1.19.5.18.88.53.38.34.65.82h.09v-1.4h1.36v8.31q0 .94-.46 1.64-.45.7-1.3 1.07a5 5 0 0 1-2 .38m-.06-4.61q.78 0 1.33-.36.56-.37.86-1 .3-.66.3-1.48v-.02q0-.84-.3-1.48-.3-.65-.86-1.02a2.4 2.4 0 0 0-1.33-.37q-.79 0-1.33.37t-.83 1.02-.28 1.48v.02q0 .83.28 1.47.3.64.83 1.01.54.36 1.33.36M461.14 404v-11.27h1.4V404zM464.93 404v-8.42h1.36v1.26h.13q.31-.67.92-1.03.6-.38 1.53-.38 1.42 0 2.18.81.75.8.76 2.3V404h-1.36v-5.12q0-1.14-.48-1.7-.48-.54-1.48-.55-.67 0-1.17.3-.5.28-.76.81-.27.54-.27 1.28V404zM477.07 404.15a3.2 3.2 0 0 1-3.1-2.06 6 6 0 0 1-.43-2.3q0-1.34.43-2.3.44-.99 1.23-1.52a3.3 3.3 0 0 1 1.87-.54 3 3 0 0 1 2 .7q.4.31.62.78h.13v-4.68h1.36V404h-1.36v-1.34h-.13a3 3 0 0 1-1.54 1.3q-.5.2-1.08.19m.31-1.2q.76 0 1.32-.39.55-.38.85-1.08.3-.72.3-1.68v-.02q0-.97-.3-1.68-.3-.7-.85-1.08a2.3 2.3 0 0 0-1.32-.39q-.76 0-1.32.39-.56.37-.84 1.07-.3.7-.3 1.7 0 .99.3 1.7.3.69.84 1.08.56.38 1.32.38M483.5 404v-8.42h1.36V404zm.69-10.05a1 1 0 0 1-.67-.27 1 1 0 0 1-.27-.66q0-.4.27-.67.29-.27.67-.27t.66.27.28.67q0 .37-.28.66a1 1 0 0 1-.66.27M490.55 404.15q-1.18 0-2.05-.54a3.6 3.6 0 0 1-1.34-1.52 5 5 0 0 1-.48-2.32v-.02q0-1.3.47-2.28a3.55 3.55 0 0 1 3.4-2.04 4 4 0 0 1 1.76.36 3.1 3.1 0 0 1 1.76 2.32v.05h-1.35v-.03q-.16-.62-.72-1.06a2.3 2.3 0 0 0-1.46-.44 2.25 2.25 0 0 0-2.17 1.47q-.3.69-.3 1.65v.02q0 .96.31 1.68.3.72.86 1.1.55.4 1.3.4.85 0 1.4-.37.53-.37.77-1.07l.01-.05h1.35l-.02.08q-.17.75-.6 1.35a3 3 0 0 1-1.16.92q-.72.34-1.74.34M498.06 404.15q-.8 0-1.44-.3t-1.01-.87a2.4 2.4 0 0 1-.37-1.33v-.02q0-.75.36-1.28.36-.54 1.05-.84t1.66-.36l3.1-.19v1.09l-2.93.18q-.96.06-1.4.4-.45.35-.45.97v.02q0 .64.49 1 .48.35 1.22.35.69 0 1.23-.28t.84-.75q.32-.48.32-1.08v-2.63q0-.78-.48-1.18-.46-.42-1.41-.42-.75 0-1.25.28-.48.26-.64.75l-.01.03h-1.36v-.05q.12-.66.55-1.16.45-.5 1.15-.77.7-.28 1.6-.28 1.04 0 1.75.34.71.33 1.08.96t.38 1.5V404h-1.36v-1.24h-.13a3 3 0 0 1-1.5 1.23q-.48.16-1.05.16M507.25 404.06q-1.3 0-1.89-.52-.57-.53-.57-1.73v-5.1h-1.33v-1.13h1.33v-2.18h1.4v2.18h1.85v1.12h-1.85v4.77q0 .75.28 1.07t.94.32h.3l.33-.03v1.15zM513.1 404.15q-1.2 0-2.07-.52a3.5 3.5 0 0 1-1.34-1.51 5 5 0 0 1-.47-2.32v-.02q0-1.35.47-2.33a3.5 3.5 0 0 1 1.34-1.5 4 4 0 0 1 2.07-.52q1.2 0 2.07.52.87.53 1.34 1.5.48.98.47 2.33v.02q0 1.35-.47 2.32a3.5 3.5 0 0 1-3.4 2.03m0-1.2q.8 0 1.35-.38.55-.37.85-1.08.3-.7.3-1.7 0-1.01-.3-1.71t-.85-1.07a2.4 2.4 0 0 0-1.35-.38q-.8 0-1.35.38-.55.36-.85 1.07-.3.7-.3 1.7v.02q0 .99.3 1.7.3.7.85 1.07.56.38 1.35.38M518.78 404v-8.42h1.36v1.25h.12a2 2 0 0 1 .82-1.03q.58-.37 1.43-.37.2 0 .38.02l.3.03v1.32a4 4 0 0 0-.84-.07q-.64 0-1.14.25a2 2 0 0 0-.8.72q-.27.47-.27 1.08V404zM527.29 404.15q-.94 0-1.66-.28a3 3 0 0 1-1.15-.8 2.3 2.3 0 0 1-.51-1.22h1.39q.17.52.67.84.5.33 1.3.33.58 0 1-.17.44-.17.7-.46.24-.3.24-.68v-.01a1 1 0 0 0-.34-.73q-.34-.3-1.13-.5l-1.3-.3a5 5 0 0 1-1.3-.49 2 2 0 0 1-.75-.74q-.24-.45-.24-1.05 0-.72.4-1.26.42-.56 1.13-.88t1.6-.32 1.56.28q.7.27 1.1.78.43.51.52 1.2h-1.33q-.15-.5-.61-.81-.48-.32-1.25-.32-.5 0-.89.17-.39.16-.61.43-.23.3-.23.66v.02q0 .27.15.5.15.21.46.38.31.15.8.29l1.3.31q1.2.3 1.77.83.58.54.58 1.44v.02q0 .75-.44 1.33-.45.57-1.21.89-.75.32-1.72.32M532.11 406.87l.68-4.45h1.56l-1.23 4.45zM534.77 397.17l.68-4.44h1.56l-1.23 4.44zm2.6 0 .67-4.44h1.56l-1.23 4.44zM548.22 392.73l-.68 4.44h-1.56l1.23-4.44zm2.59 0-.68 4.44h-1.55l1.22-4.44zM556.88 404.27a5 5 0 0 1-2.15-.4q-.92-.4-1.46-1.11a3 3 0 0 1-.61-1.63l-.01-.08h1.4l.01.08q.06.56.43.98.39.4 1.02.63a4.4 4.4 0 0 0 2.81-.01q.6-.25.95-.7.34-.42.34-1 0-.7-.52-1.19-.51-.48-1.68-.74l-1.25-.27a5 5 0 0 1-2.46-1.16 2.8 2.8 0 0 1-.77-2.01v-.01q.01-.94.5-1.66.52-.72 1.4-1.12.9-.4 2.07-.4 1.12 0 2 .4a3.5 3.5 0 0 1 1.37 1.07q.51.69.57 1.53v.1h-1.4l-.02-.1a2 2 0 0 0-.4-.88 2 2 0 0 0-.88-.61q-.54-.23-1.28-.22-.71 0-1.27.22a2 2 0 0 0-.9.63q-.32.4-.32 1 0 .67.5 1.14.5.45 1.65.71l1.25.28q1.17.26 1.9.67.7.42 1.04 1.02t.34 1.4v.01q0 1.05-.52 1.82-.52.76-1.45 1.2a5 5 0 0 1-2.2.4M566.34 404.15q-1.2 0-2.07-.53a3.5 3.5 0 0 1-1.33-1.5 5 5 0 0 1-.46-2.3q0-1.31.46-2.3t1.32-1.54a3.6 3.6 0 0 1 2-.55q1.14 0 1.96.53.83.54 1.27 1.49.44.94.44 2.2v.53h-6.75v-1.09h6.06l-.67 1v-.54q0-1-.3-1.64a2.1 2.1 0 0 0-2.02-1.27q-.69 0-1.22.34-.54.32-.85.97-.3.66-.3 1.6v.54q0 .89.3 1.54a2.3 2.3 0 0 0 2.2 1.3q.56 0 .98-.15.42-.16.7-.4.26-.24.38-.49l.03-.07h1.36l-.01.06q-.11.44-.4.84-.27.39-.7.72-.44.34-1.04.52-.6.2-1.34.19M575.17 404.15a3.59 3.59 0 0 1-3.4-2.06 5 5 0 0 1-.47-2.32v-.02q0-1.3.47-2.28a3.55 3.55 0 0 1 3.4-2.04q1.01 0 1.76.36a3.1 3.1 0 0 1 1.76 2.32v.05h-1.35v-.03q-.16-.62-.72-1.06a2.3 2.3 0 0 0-1.46-.44 2.25 2.25 0 0 0-2.17 1.47q-.3.69-.3 1.65v.02q0 .96.31 1.68.3.72.86 1.1.55.4 1.3.4.86 0 1.4-.37t.77-1.07l.01-.05h1.35l-.02.08q-.17.75-.6 1.35-.45.6-1.16.92-.72.34-1.74.34M580.36 404v-8.42h1.36v1.25h.13a2 2 0 0 1 .82-1.03q.57-.37 1.43-.37.19 0 .38.02l.3.03v1.32a4 4 0 0 0-.84-.07q-.64 0-1.15.25a2 2 0 0 0-.79.72q-.27.47-.28 1.08V404zM589.34 404.15q-1.2 0-2.07-.53a3.5 3.5 0 0 1-1.33-1.5 5 5 0 0 1-.46-2.3q0-1.31.46-2.3.48-.98 1.32-1.54a3.6 3.6 0 0 1 2-.55q1.14 0 1.97.53.83.54 1.26 1.49.45.94.45 2.2v.53h-6.75v-1.09h6.05l-.67 1v-.54q0-1-.3-1.64a2.1 2.1 0 0 0-2.02-1.27q-.68 0-1.22.34-.53.32-.84.97-.32.66-.32 1.6v.54q0 .89.3 1.54a2.3 2.3 0 0 0 2.2 1.3q.58 0 1-.15.41-.16.7-.4.26-.24.37-.49l.04-.07h1.36l-.02.06q-.1.44-.4.84a3 3 0 0 1-1.74 1.24q-.6.2-1.34.19M597.72 404.06q-1.3 0-1.88-.52-.58-.53-.58-1.73v-5.1h-1.33v-1.13h1.33v-2.18h1.4v2.18h1.85v1.12h-1.84v4.77q0 .75.28 1.07t.93.32h.31l.32-.03v1.15zM608.28 404.27a5 5 0 0 1-2.16-.4q-.92-.4-1.45-1.11a3 3 0 0 1-.62-1.63v-.08h1.4v.08q.06.56.43.98.39.4 1.02.63a4.3 4.3 0 0 0 2.81-.01q.6-.25.95-.7.34-.42.34-1 0-.7-.51-1.19-.52-.48-1.68-.74l-1.25-.27a5 5 0 0 1-2.47-1.16 2.8 2.8 0 0 1-.77-2.01v-.01q0-.94.51-1.66.5-.72 1.4-1.12t2.06-.4q1.13 0 2 .4a3.5 3.5 0 0 1 1.37 1.07q.51.69.57 1.53v.1h-1.4l-.02-.1a2 2 0 0 0-.4-.88 2 2 0 0 0-.88-.61q-.54-.23-1.28-.22-.7 0-1.26.22a2 2 0 0 0-.9.63q-.33.4-.33 1 0 .67.5 1.14.5.45 1.65.71l1.25.28q1.17.26 1.9.67.72.42 1.04 1.02.34.6.34 1.4v.01q0 1.05-.52 1.82-.5.76-1.45 1.2a5 5 0 0 1-2.2.4M617.74 404.15a3.59 3.59 0 0 1-3.4-2.06 5 5 0 0 1-.47-2.32v-.02q0-1.3.47-2.28a3.55 3.55 0 0 1 3.4-2.04 4 4 0 0 1 1.76.36 3.1 3.1 0 0 1 1.75 2.32l.01.05h-1.35v-.03q-.16-.62-.72-1.06a2.3 2.3 0 0 0-1.46-.44 2.25 2.25 0 0 0-2.17 1.47q-.3.69-.3 1.65v.02q0 .96.3 1.68.32.72.87 1.1.55.4 1.3.4.85 0 1.4-.37.53-.37.77-1.07l.01-.05h1.35l-.02.08q-.18.75-.61 1.35-.44.6-1.16.92-.72.34-1.73.34M622.93 404v-8.42h1.36v1.25h.13a2 2 0 0 1 .82-1.03q.58-.37 1.42-.37.2 0 .39.02l.3.03v1.32a4 4 0 0 0-.84-.07q-.65 0-1.15.25a2 2 0 0 0-.79.72q-.28.47-.28 1.08V404zM628.74 404v-8.42h1.36V404zm.69-10.05a1 1 0 0 1-.67-.27 1 1 0 0 1-.27-.66q0-.4.27-.67.28-.27.67-.27t.66.27.27.67q0 .37-.27.66a1 1 0 0 1-.66.27M632.34 406.81v-11.23h1.36v1.34h.13a2.8 2.8 0 0 1 1.54-1.31q.5-.18 1.08-.18 1.08 0 1.86.55.8.54 1.24 1.51.44.98.44 2.3 0 1.33-.44 2.3a3.5 3.5 0 0 1-1.24 1.52q-.78.54-1.86.54-.57 0-1.09-.18a3 3 0 0 1-.9-.52 3 3 0 0 1-.63-.78h-.13v4.14zm3.8-3.87q.78 0 1.32-.37.55-.38.84-1.09.3-.7.3-1.68v-.02q0-.98-.3-1.69-.3-.7-.84-1.07-.54-.39-1.32-.39-.76 0-1.32.39-.55.38-.85 1.08a4 4 0 0 0-.3 1.68v.02q0 .96.3 1.68.3.7.85 1.08t1.32.38M644.79 404.06q-1.3 0-1.89-.52-.58-.53-.58-1.73v-5.1H641v-1.13h1.32v-2.18h1.41v2.18h1.84v1.12h-1.84v4.77q0 .75.28 1.07t.94.32h.3l.32-.03v1.15zM650.02 404.15q-.93 0-1.65-.28a3 3 0 0 1-1.16-.8 2.2 2.2 0 0 1-.5-1.22h1.38q.18.52.67.84.5.33 1.31.33.57 0 1-.17t.69-.46q.24-.3.25-.68v-.01a1 1 0 0 0-.35-.73q-.34-.3-1.12-.5l-1.3-.3a5 5 0 0 1-1.3-.49 2 2 0 0 1-.75-.74q-.25-.45-.25-1.05 0-.72.41-1.26.41-.56 1.13-.88.7-.32 1.6-.32.88 0 1.56.28.7.27 1.1.78.42.51.52 1.2h-1.34q-.13-.5-.6-.81-.49-.32-1.25-.32-.5 0-.9.17-.38.16-.6.43-.24.3-.24.66v.02q0 .27.15.5.15.21.47.38.3.15.8.29l1.3.31q1.19.3 1.76.83.6.54.59 1.44v.02q0 .75-.45 1.33-.45.57-1.2.89-.77.32-1.73.32M654.85 406.87l.68-4.45h1.55l-1.23 4.45zM657.5 397.17l.69-4.44h1.55l-1.23 4.44zm2.6 0 .68-4.44h1.56l-1.23 4.44zM672.19 404.15q-1.2 0-2.08-.52a3.5 3.5 0 0 1-1.34-1.51 5 5 0 0 1-.47-2.32v-.02q0-1.35.47-2.33a3.5 3.5 0 0 1 1.35-1.5 4 4 0 0 1 2.06-.52q1.2 0 2.08.52.86.53 1.33 1.5.48.98.48 2.33v.02q0 1.35-.48 2.32a3.5 3.5 0 0 1-3.4 2.03m0-1.2q.8 0 1.35-.38.56-.37.84-1.08.3-.7.3-1.7 0-1.01-.3-1.71t-.84-1.07a2.4 2.4 0 0 0-1.36-.38q-.8 0-1.35.38-.55.36-.85 1.07-.3.7-.29 1.7v.02q0 .99.3 1.7.29.7.84 1.07t1.35.38M677.86 404v-8.42h1.36v1.25h.13a2 2 0 0 1 .81-1.03q.6-.37 1.44-.37.19 0 .38.02l.3.03v1.32a4 4 0 0 0-.84-.07q-.65 0-1.15.25a2 2 0 0 0-.79.72q-.28.47-.28 1.08V404zM143.26 428.06q-1.3 0-1.88-.52-.58-.53-.58-1.73v-5.1h-1.33v-1.13h1.33v-2.18h1.4v2.18h1.85v1.12h-1.85v4.77q0 .75.28 1.07t.94.32h.3l.33-.03v1.15zM145.84 428v-11.77h1.36v4.61h.12q.33-.67.93-1.03.6-.38 1.53-.38t1.6.37q.66.36 1 1.05t.34 1.7V428h-1.36v-5.12q0-1.14-.48-1.7-.47-.54-1.49-.55-.66 0-1.16.3-.49.28-.77.81-.26.54-.26 1.28V428zM158.3 428.15q-1.2 0-2.07-.53a3.5 3.5 0 0 1-1.32-1.5 5 5 0 0 1-.47-2.3q0-1.31.47-2.3t1.32-1.54a3.6 3.6 0 0 1 1.99-.55q1.14 0 1.97.53.82.54 1.26 1.49.45.94.45 2.2v.53h-6.75v-1.09h6.05l-.67 1v-.54q0-1-.3-1.64a2.1 2.1 0 0 0-2.02-1.27q-.68 0-1.22.34-.53.32-.84.97-.31.66-.31 1.6v.54q0 .89.3 1.54a2.3 2.3 0 0 0 2.2 1.3q.56 0 .99-.15.42-.16.7-.4t.38-.49l.03-.07h1.36l-.02.06q-.1.44-.39.84-.27.39-.71.72-.44.34-1.04.52-.6.2-1.34.19M167.9 428v-8.42h1.36V428zm.7-10.05a1 1 0 0 1-.67-.27 1 1 0 0 1-.28-.66q0-.4.28-.67t.66-.27.67.27q.27.27.27.67 0 .37-.27.66a1 1 0 0 1-.67.27M174.96 428.15a3.59 3.59 0 0 1-3.4-2.06 5 5 0 0 1-.47-2.32v-.02q0-1.3.47-2.28a3.5 3.5 0 0 1 3.39-2.04 4 4 0 0 1 1.76.36 3.1 3.1 0 0 1 1.76 2.32v.05h-1.34l-.01-.03q-.15-.62-.71-1.06a2.3 2.3 0 0 0-1.46-.44 2.25 2.25 0 0 0-2.17 1.47q-.3.69-.3 1.65v.02q0 .96.3 1.68.31.72.86 1.1.55.4 1.3.4.86 0 1.4-.37t.77-1.07l.02-.05h1.34l-.01.08q-.18.75-.61 1.35-.45.6-1.16.92-.72.34-1.73.34M183.6 428.15q-1.19 0-2.06-.52a3.5 3.5 0 0 1-1.35-1.51 5 5 0 0 1-.47-2.32v-.02q0-1.35.47-2.33a3.5 3.5 0 0 1 1.35-1.5 4 4 0 0 1 2.07-.52q1.2 0 2.07.52.86.53 1.33 1.5.48.98.48 2.33v.02q0 1.35-.48 2.32a3.5 3.5 0 0 1-3.4 2.03m0-1.2q.8 0 1.36-.38.56-.37.84-1.08.3-.7.3-1.7 0-1.01-.3-1.71-.28-.7-.84-1.07a2.4 2.4 0 0 0-1.35-.38q-.8 0-1.36.38-.55.36-.85 1.07-.28.7-.28 1.7v.02q0 .99.28 1.7.3.7.85 1.07.57.38 1.36.38M189.28 428v-8.42h1.36v1.26h.13q.32-.67.92-1.03.6-.38 1.53-.38 1.42 0 2.18.81.76.8.76 2.3V428h-1.35v-5.12q0-1.14-.49-1.7-.48-.54-1.48-.55-.67 0-1.17.3-.49.28-.76.81-.27.54-.27 1.28V428zM198.34 428v-8.42h1.36V428zm.69-10.05a1 1 0 0 1-.67-.27 1 1 0 0 1-.27-.66q0-.4.27-.67.29-.27.67-.27t.66.27q.28.27.28.67 0 .37-.28.66a1 1 0 0 1-.66.27M205.4 428.15a3.59 3.59 0 0 1-3.4-2.06 5 5 0 0 1-.48-2.32v-.02q0-1.3.47-2.28a3.5 3.5 0 0 1 3.4-2.04q1.01 0 1.76.36a3.1 3.1 0 0 1 1.76 2.32v.05h-1.35v-.03q-.16-.62-.72-1.06a2.3 2.3 0 0 0-1.46-.44 2.2 2.2 0 0 0-2.17 1.47q-.3.69-.3 1.65v.02q0 .96.3 1.68.31.72.87 1.1.55.4 1.3.4.85 0 1.4-.37.53-.37.77-1.07l.01-.05h1.35l-.02.08q-.17.75-.6 1.35-.45.6-1.16.92-.72.34-1.74.34M217 416.73l-.69 4.44h-1.55l1.22-4.44zm2.59 0-.68 4.44h-1.56l1.23-4.44zM221.96 428v-11.27h6.85v1.26h-5.44v3.88h5v1.25h-5V428zM230.66 428v-8.42h1.36V428zm.69-10.05a1 1 0 0 1-.66-.27 1 1 0 0 1-.28-.66q0-.4.28-.67.27-.27.66-.27t.66.27.28.67q0 .37-.28.66a1 1 0 0 1-.66.27M234.27 428v-8.42h1.36v1.26h.12q.32-.67.92-1.03.6-.38 1.54-.38 1.41 0 2.17.81.78.8.77 2.3V428h-1.36v-5.12q0-1.14-.48-1.7-.48-.54-1.49-.55-.66 0-1.16.3-.5.28-.77.81-.26.54-.26 1.28V428zM245.6 428.15a3 3 0 0 1-1.43-.3q-.63-.3-1-.87a2.4 2.4 0 0 1-.37-1.33v-.02q0-.75.35-1.28.37-.54 1.05-.84t1.67-.36l3.09-.19v1.09l-2.93.18q-.96.06-1.4.4t-.44.97v.02q0 .64.48 1 .48.35 1.22.35.69 0 1.23-.28t.85-.75.3-1.08v-2.63q0-.78-.47-1.18-.47-.42-1.41-.42-.75 0-1.24.28-.49.26-.65.75l-.01.03h-1.36v-.05q.12-.66.56-1.16t1.14-.77q.7-.28 1.6-.28 1.04 0 1.75.34.72.33 1.08.96.38.63.38 1.5V428h-1.36v-1.24h-.13a3 3 0 0 1-1.5 1.23q-.47.16-1.04.16M251.88 428v-11.77h1.36V428zM263.59 428.27a5 5 0 0 1-2.16-.4q-.91-.4-1.45-1.11a3 3 0 0 1-.62-1.63v-.08h1.4v.08q.06.56.44.98.38.4 1.01.63a4.3 4.3 0 0 0 2.81-.01q.6-.25.95-.7.34-.42.34-1 0-.7-.51-1.19-.52-.48-1.68-.74l-1.25-.27a5 5 0 0 1-2.47-1.16 2.8 2.8 0 0 1-.77-2.01v-.01q0-.94.51-1.66.5-.72 1.4-1.12t2.06-.4q1.13 0 2 .4a3.5 3.5 0 0 1 1.37 1.07q.51.69.57 1.53v.1h-1.4l-.01-.1a2 2 0 0 0-.41-.88 2 2 0 0 0-.88-.61q-.54-.23-1.28-.22-.7 0-1.26.22a2 2 0 0 0-.9.63q-.33.4-.33 1 0 .67.5 1.14.5.45 1.65.71l1.25.28q1.18.26 1.9.67t1.05 1.02.33 1.4v.01q0 1.05-.51 1.82-.52.76-1.46 1.2a5 5 0 0 1-2.2.4M272.6 428.06q-1.3 0-1.89-.52-.57-.53-.57-1.73v-5.1h-1.33v-1.13h1.33v-2.18h1.4v2.18h1.85v1.12h-1.85v4.77q0 .75.28 1.07t.94.32h.3l.33-.03v1.15zM275.1 428v-8.42h1.36v1.25h.13a2 2 0 0 1 .82-1.03q.57-.37 1.43-.37.19 0 .38.02l.3.03v1.32a4 4 0 0 0-.84-.07q-.64 0-1.15.25a2 2 0 0 0-.79.72q-.28.47-.28 1.08V428zM283.2 428.15q-.8 0-1.45-.3-.63-.3-1-.87a2.4 2.4 0 0 1-.37-1.33v-.02q0-.75.36-1.28.36-.54 1.05-.84.67-.3 1.66-.36l3.1-.19v1.09l-2.94.18q-.95.06-1.4.4t-.44.97v.02q0 .64.48 1 .49.35 1.22.35.7 0 1.24-.28t.84-.75.31-1.08v-2.63q0-.78-.47-1.18-.48-.42-1.42-.42-.75 0-1.24.28-.48.26-.65.75v.03h-1.37l.01-.05q.11-.66.55-1.16t1.15-.77q.7-.28 1.6-.28 1.03 0 1.74.34.72.33 1.09.96t.37 1.5V428h-1.36v-1.24h-.12a3 3 0 0 1-1.5 1.23q-.48.16-1.05.16M292.38 428.06q-1.3 0-1.88-.52-.58-.53-.58-1.73v-5.1h-1.33v-1.13h1.33v-2.18h1.4v2.18h1.85v1.12h-1.84v4.77q0 .75.28 1.07t.94.32h.3l.32-.03v1.15zM298.21 428.15q-1.2 0-2.07-.53a3.5 3.5 0 0 1-1.32-1.5 5 5 0 0 1-.47-2.3q0-1.31.46-2.3.48-.98 1.32-1.54a3.6 3.6 0 0 1 2-.55q1.14 0 1.97.53.83.54 1.26 1.49.45.94.45 2.2v.53h-6.75v-1.09h6.05l-.67 1v-.54q0-1-.3-1.64a2.1 2.1 0 0 0-2.02-1.27q-.68 0-1.22.34-.53.32-.84.97-.31.66-.31 1.6v.54q0 .89.3 1.54a2.3 2.3 0 0 0 2.2 1.3q.56 0 .99-.15.42-.16.7-.4.26-.24.38-.49l.03-.07h1.36l-.02.06q-.1.44-.39.84a3.2 3.2 0 0 1-1.75 1.24q-.6.2-1.34.19M307.07 430.97q-1.02 0-1.77-.29a3 3 0 0 1-1.22-.8q-.45-.53-.55-1.2l.02-.02h1.4v.01q.12.48.67.78.54.32 1.45.32 1.13 0 1.76-.52.65-.51.65-1.44v-1.7h-.13a3 3 0 0 1-1.56 1.29q-.51.16-1.08.16-1.08 0-1.88-.51a3.4 3.4 0 0 1-1.22-1.44q-.43-.9-.43-2.1v-.01q0-1.18.43-2.1.44-.9 1.23-1.44a3.3 3.3 0 0 1 1.9-.53q.6 0 1.1.19.5.18.88.53.38.34.65.82h.09v-1.4h1.36v8.31q0 .94-.46 1.64-.45.7-1.3 1.07a5 5 0 0 1-2 .38m-.06-4.61q.78 0 1.33-.36.57-.37.86-1 .3-.66.3-1.48v-.02q0-.84-.3-1.48-.3-.65-.86-1.02a2.4 2.4 0 0 0-1.33-.37q-.79 0-1.33.37t-.83 1.02q-.28.64-.28 1.48v.02q0 .83.28 1.47.3.64.83 1.01.54.36 1.33.36M313.75 430.95a3 3 0 0 1-.6-.04v-1.12l.27.03h.3q.57 0 .94-.29.38-.3.6-1.02l.16-.5-3.12-8.43h1.45l2.6 7.78-.54-.85h.64l-.54.85 2.58-7.78h1.43l-3.29 8.94a6 6 0 0 1-.72 1.47q-.39.54-.9.74-.51.22-1.26.22M321.34 428.08a1 1 0 0 1-.72-.3 1 1 0 0 1-.3-.72q0-.42.3-.72a1 1 0 0 1 .72-.3q.42 0 .72.3t.3.72a1 1 0 0 1-.3.72q-.3.3-.72.3M325.77 428.08a1 1 0 0 1-.71-.3 1 1 0 0 1-.3-.72q0-.42.3-.72a1 1 0 0 1 .71-.3q.43 0 .72.3.3.3.3.72a1 1 0 0 1-.3.72q-.3.3-.72.3M330.2 428.08a1 1 0 0 1-.71-.3 1 1 0 0 1-.3-.72q0-.42.3-.72a1 1 0 0 1 .72-.3q.42 0 .72.3t.3.72a1 1 0 0 1-.3.72q-.3.3-.72.3"/><rect width="584" height="287" x="139" y="10" fill="#000" rx="10"/><path fill="#f8f9fd" d="M682.72 34.2q-.78 0-1.4-.31-.61-.3-.99-.85-.38-.53-.43-1.2v-.07h1l.01.04a1.6 1.6 0 0 0 .93 1.26 2 2 0 0 0 .9.2q.56 0 .98-.25.43-.25.67-.69.24-.45.24-1v-.02q0-.55-.25-1-.23-.44-.66-.68a2 2 0 0 0-.97-.25q-.42 0-.78.13a2 2 0 0 0-.84.62q-.1.12-.17.27h-.92l.45-4.86h4.7v.95h-3.87l-.29 2.86h.1q.18-.3.46-.48.27-.2.62-.3t.72-.1q.8 0 1.41.37.62.36.97 1 .36.63.35 1.45v.01q0 .85-.38 1.51-.38.65-1.04 1.02t-1.52.37M690.25 34.14q-.9 0-1.59-.31t-1.09-.86q-.39-.54-.39-1.26a2.1 2.1 0 0 1 .87-1.73q.4-.32.95-.44v-.02a2.3 2.3 0 0 1-1.1-.72 1.8 1.8 0 0 1-.42-1.16v-.02q0-.63.36-1.13t.99-.8 1.42-.29 1.42.3q.63.28.99.79.36.49.36 1.14 0 .68-.41 1.17-.4.5-1.1.72v.02a2.4 2.4 0 0 1 1.58 1.2q.23.45.23.96v.01q0 .72-.4 1.26-.38.55-1.08.86t-1.59.31m0-.92q.59 0 1.03-.2t.71-.56q.26-.34.26-.81v-.01q0-.46-.26-.82a2 2 0 0 0-.7-.56q-.45-.2-1.04-.2t-1.04.2q-.45.2-.7.56-.26.36-.26.82v.01q0 .46.26.81.25.36.7.56.46.2 1.04.2m0-4.1q.51 0 .9-.17.38-.18.6-.5.21-.31.22-.73 0-.42-.22-.73a1.4 1.4 0 0 0-.6-.5 2 2 0 0 0-.9-.18q-.51 0-.9.18-.38.18-.6.5-.21.3-.22.72v.01q0 .42.22.73.22.32.6.5.39.18.9.18M695.45 34.06a.8.8 0 0 1-.54-.22.8.8 0 0 1-.22-.54q0-.32.22-.54a.8.8 0 0 1 .54-.22q.32 0 .54.22t.23.54q0 .3-.23.54a.7.7 0 0 1-.54.22M700.54 34.2q-.94 0-1.6-.54a3.4 3.4 0 0 1-1.03-1.53 7 7 0 0 1-.35-2.35v-.02q0-1.35.35-2.35a3.4 3.4 0 0 1 1.02-1.53q.67-.53 1.6-.53t1.62.53q.66.54 1.02 1.53.36 1 .36 2.35v.02q0 1.36-.36 2.35a3.4 3.4 0 0 1-1.02 1.53q-.68.54-1.61.54m0-.92q.6 0 1.04-.43.42-.42.66-1.21.23-.79.23-1.86v-.02q0-1.07-.23-1.85a3 3 0 0 0-.66-1.21 1.4 1.4 0 0 0-1.04-.43q-.6 0-1.04.43-.42.42-.65 1.2a7 7 0 0 0-.23 1.86v.02q0 1.07.23 1.86.23.78.65 1.21.45.43 1.04.43M708.1 34.2q-.94 0-1.6-.54a3.4 3.4 0 0 1-1.03-1.53 7 7 0 0 1-.36-2.35v-.02q0-1.35.36-2.35a3.4 3.4 0 0 1 1.02-1.53q.67-.53 1.6-.53.95 0 1.61.53.67.54 1.03 1.53.36 1 .36 2.35v.02q0 1.36-.36 2.35a3.4 3.4 0 0 1-1.03 1.53q-.67.54-1.6.54m0-.92q.6 0 1.03-.43.44-.42.67-1.21t.23-1.86v-.02a7 7 0 0 0-.23-1.85 3 3 0 0 0-.66-1.21 1.4 1.4 0 0 0-1.04-.43q-.6 0-1.04.43-.42.42-.66 1.2a7 7 0 0 0-.22 1.86v.02q0 1.07.22 1.86.24.78.66 1.21.44.43 1.04.43M682.72 75.2q-.78 0-1.4-.31-.61-.3-.99-.85-.38-.53-.43-1.2v-.07h1l.01.04a1.6 1.6 0 0 0 .93 1.26 2 2 0 0 0 .9.2q.56 0 .98-.25.43-.25.67-.69.24-.45.24-1v-.02q0-.55-.25-1-.23-.44-.66-.68a2 2 0 0 0-.97-.25q-.42 0-.78.13a2 2 0 0 0-.84.62q-.1.12-.17.27h-.92l.45-4.86h4.7v.95h-3.87l-.29 2.86h.1q.18-.3.46-.48.27-.2.62-.3t.72-.1q.8 0 1.41.37.62.36.97 1 .36.63.35 1.45v.01q0 .85-.38 1.51-.38.65-1.04 1.02t-1.52.37M690.35 75.2q-.58 0-1.15-.22a3 3 0 0 1-1.02-.72q-.45-.5-.74-1.32a6 6 0 0 1-.27-2.01v-.01q0-1.45.38-2.46.39-1.03 1.12-1.57a3 3 0 0 1 1.75-.54 3 3 0 0 1 1.28.26 2.6 2.6 0 0 1 1.48 1.82l.02.07h-1.06l-.03-.06a1.7 1.7 0 0 0-1.7-1.15q-.77 0-1.25.45t-.71 1.19a6 6 0 0 0-.27 1.78v.16l.25 1.4q0 .56.25 1.01t.7.72q.42.27.96.27a1.9 1.9 0 0 0 1.65-.97q.26-.45.26-.99v-.01q0-.56-.25-1-.24-.44-.67-.68a2 2 0 0 0-.98-.25q-.54 0-.98.24a1.9 1.9 0 0 0-.94 1.66h-.35v-1.52h.2q.17-.34.48-.64t.76-.48q.45-.18 1.02-.18.8 0 1.42.36.63.38.99 1.01.36.64.36 1.46a3 3 0 0 1-.39 1.5q-.37.66-1.05 1.04-.66.38-1.52.38M695.43 75.06a.8.8 0 0 1-.54-.22.7.7 0 0 1-.22-.54q0-.32.22-.54a.8.8 0 0 1 .54-.22q.32 0 .54.22t.22.54q0 .3-.22.54a.7.7 0 0 1-.54.22M700.52 75.2q-.94 0-1.61-.54a3.4 3.4 0 0 1-1.02-1.53 7 7 0 0 1-.36-2.35v-.02q0-1.36.36-2.35a3.4 3.4 0 0 1 1.02-1.53q.67-.53 1.6-.53.95 0 1.61.53.67.54 1.03 1.53.36 1 .36 2.35v.02q0 1.36-.36 2.35a3.4 3.4 0 0 1-1.03 1.53q-.67.54-1.6.54m0-.92q.6 0 1.03-.43.44-.42.67-1.21t.23-1.86v-.02a7 7 0 0 0-.24-1.85 3 3 0 0 0-.66-1.21 1.4 1.4 0 0 0-1.03-.43q-.6 0-1.04.43-.43.42-.66 1.2a7 7 0 0 0-.23 1.86v.02q0 1.07.23 1.86.23.78.66 1.21t1.04.43M708.07 75.2q-.93 0-1.6-.54a3.4 3.4 0 0 1-1.02-1.53 7 7 0 0 1-.36-2.35v-.02q0-1.36.36-2.35a3.4 3.4 0 0 1 1.02-1.53q.67-.53 1.6-.53t1.61.53 1.03 1.53q.36 1 .36 2.35v.02q0 1.36-.37 2.35a3.4 3.4 0 0 1-1.02 1.53q-.67.54-1.6.54m0-.92q.62 0 1.04-.43.44-.42.66-1.21.24-.79.24-1.86v-.02q0-1.07-.24-1.85a3 3 0 0 0-.66-1.21 1.4 1.4 0 0 0-1.04-.43q-.6 0-1.03.43-.43.42-.66 1.2a7 7 0 0 0-.23 1.86v.02q0 1.07.23 1.86.23.78.66 1.21t1.03.43M682.72 116.2q-.78 0-1.4-.31-.61-.3-.99-.84t-.43-1.22v-.06h1l.01.04a1.6 1.6 0 0 0 .93 1.26 2 2 0 0 0 .9.2q.56 0 .98-.25.43-.26.67-.69.24-.45.24-1v-.02q0-.55-.25-1-.23-.44-.66-.68a2 2 0 0 0-.97-.25q-.42 0-.78.13a1.8 1.8 0 0 0-1.01.9h-.92l.45-4.86h4.7v.94h-3.87l-.29 2.86h.1q.18-.3.46-.48.27-.2.62-.3t.72-.1q.8 0 1.41.37.62.36.97 1 .36.63.35 1.45v.02q0 .84-.38 1.5-.38.65-1.04 1.02t-1.52.37M691.22 116v-1.75h-4.12v-.96a173 173 0 0 1 3.63-5.75h1.52v5.77h1.2v.94h-1.2V116zm-3.04-2.69h3.05v-4.79h-.07l-1.2 1.83-1.78 2.89zM695.51 116.06a.8.8 0 0 1-.54-.22.7.7 0 0 1-.22-.54q0-.32.22-.54a.7.7 0 0 1 .54-.23q.32 0 .54.23t.22.54q0 .3-.22.54a.7.7 0 0 1-.54.22M700.6 116.2q-.94 0-1.6-.54a3.4 3.4 0 0 1-1.03-1.53 7 7 0 0 1-.36-2.35v-.02q0-1.36.36-2.35a3.4 3.4 0 0 1 1.02-1.52q.67-.54 1.6-.54.95 0 1.61.54.67.53 1.03 1.52.36 1 .36 2.35v.02q0 1.35-.36 2.35a3.4 3.4 0 0 1-1.03 1.53q-.67.54-1.6.54m0-.92q.6 0 1.03-.43t.67-1.21q.23-.8.23-1.86v-.02a7 7 0 0 0-.23-1.85 3 3 0 0 0-.66-1.21 1.4 1.4 0 0 0-1.04-.43q-.6 0-1.04.43-.42.42-.66 1.2a7 7 0 0 0-.22 1.86v.02q0 1.06.22 1.86.24.78.66 1.21.44.43 1.04.43M708.16 116.2q-.94 0-1.6-.54a3.4 3.4 0 0 1-1.03-1.53 7 7 0 0 1-.36-2.35v-.02q0-1.36.36-2.35a3.4 3.4 0 0 1 1.02-1.52q.67-.54 1.6-.54.95 0 1.61.54.67.53 1.03 1.52.36 1 .36 2.35v.02q0 1.35-.36 2.35a3.4 3.4 0 0 1-1.03 1.53q-.67.54-1.6.54m0-.92q.6 0 1.03-.43t.66-1.21q.24-.8.24-1.86v-.02q0-1.07-.24-1.85a3 3 0 0 0-.66-1.21 1.4 1.4 0 0 0-1.03-.43q-.6 0-1.04.43-.43.42-.66 1.2a7 7 0 0 0-.23 1.86v.02q0 1.06.23 1.86.22.78.66 1.21.43.43 1.04.43M682.72 157.2q-.78 0-1.4-.31-.61-.3-.99-.84t-.43-1.22v-.06h1l.01.04a1.6 1.6 0 0 0 .93 1.26 2 2 0 0 0 .9.2q.56 0 .98-.25.43-.25.67-.69.24-.45.24-1v-.02q0-.55-.25-1-.23-.44-.66-.68a2 2 0 0 0-.97-.25q-.42 0-.78.13a1.8 1.8 0 0 0-1.01.9h-.92l.45-4.87h4.7v.95h-3.87l-.29 2.86h.1q.18-.3.46-.48.27-.2.62-.3t.72-.1q.8 0 1.41.37.62.36.97 1 .36.63.35 1.45v.02q0 .84-.38 1.5-.38.65-1.04 1.02t-1.52.37M687.36 157v-.73l2.86-3.09q.54-.59.84-.97t.43-.7q.13-.3.13-.67v-.02q0-.44-.2-.8a1.4 1.4 0 0 0-.55-.55q-.36-.2-.85-.2-.5 0-.89.2-.37.21-.6.59-.2.36-.2.86v.02l-1.02-.01q0-.75.36-1.34.35-.59.98-.91a3 3 0 0 1 1.44-.33q.73 0 1.33.3t.93.84q.34.54.34 1.22v.01q0 .48-.17.93-.15.45-.58 1-.42.53-1.2 1.32l-2.18 2.26.27-.49v.49l-.26-.18h4.26v.95zM695.27 157.06a.8.8 0 0 1-.54-.22.7.7 0 0 1-.23-.54q0-.32.23-.54a.7.7 0 0 1 .54-.22q.31 0 .53.22t.23.54q0 .3-.23.54a.7.7 0 0 1-.53.22M700.35 157.2q-.93 0-1.6-.54a3.4 3.4 0 0 1-1.02-1.53 7 7 0 0 1-.36-2.35v-.02q0-1.36.36-2.35a3.4 3.4 0 0 1 1.02-1.53q.66-.53 1.6-.53t1.6.53q.68.54 1.03 1.53.37 1 .37 2.35v.02q0 1.35-.37 2.35a3.4 3.4 0 0 1-1.02 1.53q-.67.54-1.6.54m0-.92q.6 0 1.04-.43.43-.42.66-1.21t.24-1.86v-.02a7 7 0 0 0-.24-1.85 3 3 0 0 0-.66-1.21 1.4 1.4 0 0 0-1.04-.43q-.6 0-1.04.43-.42.42-.65 1.2a7 7 0 0 0-.23 1.86v.02q0 1.07.23 1.86t.65 1.21q.45.43 1.04.43M707.91 157.2q-.93 0-1.6-.54a3.4 3.4 0 0 1-1.02-1.53 7 7 0 0 1-.36-2.35v-.02q0-1.36.36-2.35a3.4 3.4 0 0 1 1.01-1.53q.68-.53 1.61-.53t1.6.53 1.03 1.53q.36 1 .36 2.35v.02q0 1.35-.36 2.35a3.4 3.4 0 0 1-1.02 1.53q-.68.54-1.61.54m0-.92q.6 0 1.04-.43.43-.42.66-1.21t.23-1.86v-.02q0-1.07-.23-1.85a3 3 0 0 0-.66-1.21 1.4 1.4 0 0 0-1.04-.43q-.6 0-1.04.43-.42.42-.65 1.2a7 7 0 0 0-.23 1.86v.02q0 1.07.23 1.86t.65 1.21q.45.43 1.04.43M682.72 198.2q-.78 0-1.4-.31-.61-.3-.99-.84t-.43-1.22v-.06h1l.01.04a1.6 1.6 0 0 0 .93 1.26 2 2 0 0 0 .9.2q.56 0 .98-.25.43-.25.67-.69.24-.45.24-1v-.02q0-.55-.25-1-.23-.44-.66-.68a2 2 0 0 0-.97-.25q-.42 0-.78.13a1.8 1.8 0 0 0-1.01.9h-.92l.45-4.87h4.7v.95h-3.87l-.29 2.86h.1q.18-.3.46-.48.27-.2.62-.3t.72-.1q.8 0 1.41.37.62.36.97 1 .36.63.35 1.45v.02q0 .84-.38 1.5-.38.65-1.04 1.02t-1.52.37M690.2 198.2q-.95 0-1.61-.54a3.4 3.4 0 0 1-1.02-1.53 7 7 0 0 1-.36-2.35v-.02q0-1.36.36-2.35.35-.99 1.02-1.53.67-.53 1.6-.53t1.6.53 1.03 1.53q.37 1 .37 2.35v.02q0 1.36-.37 2.35a3.4 3.4 0 0 1-1.02 1.53q-.67.54-1.6.54m0-.92q.6 0 1.03-.43.43-.42.66-1.21t.24-1.86v-.02a7 7 0 0 0-.24-1.85 3 3 0 0 0-.66-1.21 1.4 1.4 0 0 0-1.04-.43q-.6 0-1.04.43-.42.42-.65 1.2a7 7 0 0 0-.23 1.86v.02q0 1.07.23 1.86t.65 1.21q.45.43 1.04.43M695.29 198.06a.8.8 0 0 1-.54-.22.8.8 0 0 1-.22-.54q0-.32.22-.54a.7.7 0 0 1 .54-.22q.32 0 .54.22.22.23.22.54 0 .3-.22.54a.7.7 0 0 1-.54.22M700.38 198.2q-.94 0-1.61-.54a3.4 3.4 0 0 1-1.02-1.53 7 7 0 0 1-.36-2.35v-.02q0-1.36.36-2.35a3.4 3.4 0 0 1 1.02-1.53q.67-.53 1.6-.53t1.61.53 1.03 1.53q.36 1 .36 2.35v.02q0 1.36-.36 2.35a3.4 3.4 0 0 1-1.03 1.53q-.67.54-1.6.54m0-.92q.6 0 1.03-.43.44-.42.66-1.21.24-.79.24-1.86v-.02a7 7 0 0 0-.24-1.85 3 3 0 0 0-.66-1.21 1.4 1.4 0 0 0-1.03-.43q-.6 0-1.04.43-.43.42-.66 1.2a7 7 0 0 0-.23 1.86v.02q0 1.07.23 1.86.22.79.66 1.21.43.43 1.03.43M707.93 198.2q-.93 0-1.6-.54a3.4 3.4 0 0 1-1.02-1.53 7 7 0 0 1-.36-2.35v-.02q0-1.36.36-2.35a3.4 3.4 0 0 1 1.02-1.53q.67-.53 1.6-.53t1.6.53q.68.54 1.03 1.53.37 1 .37 2.35v.02q0 1.36-.37 2.35a3.4 3.4 0 0 1-1.02 1.53q-.67.54-1.6.54m0-.92q.62 0 1.04-.43.44-.42.66-1.21.24-.79.24-1.86v-.02a7 7 0 0 0-.24-1.85 3 3 0 0 0-.66-1.21 1.4 1.4 0 0 0-1.04-.43q-.6 0-1.03.43-.43.42-.66 1.2a7 7 0 0 0-.23 1.86v.02q0 1.07.23 1.86.22.79.66 1.21.43.43 1.03.43M683.8 239v-1.75h-4.11v-.96a173 173 0 0 1 3.62-5.75h1.53v5.77h1.2v.94h-1.2V239zm-3.04-2.69h3.05v-4.79h-.07a74 74 0 0 0-1.8 2.8l-1.18 1.92zM690.56 239.14q-.9 0-1.6-.31-.68-.31-1.08-.86-.4-.54-.4-1.25v-.02a2.1 2.1 0 0 1 .87-1.72q.41-.32.95-.44v-.02a2.3 2.3 0 0 1-1.1-.72 1.8 1.8 0 0 1-.41-1.16v-.01q0-.65.36-1.14.35-.5.98-.8.63-.29 1.42-.29.8 0 1.43.3.63.28.98.79.36.49.36 1.13v.02q0 .66-.41 1.16t-1.1.72v.02a2.4 2.4 0 0 1 1.59 1.2q.23.44.23.96v.02q0 .7-.4 1.25-.39.55-1.09.86-.69.3-1.59.31m0-.92q.58 0 1.03-.2t.7-.56q.26-.34.26-.81v-.01q0-.46-.25-.82a2 2 0 0 0-.7-.56q-.45-.2-1.05-.2-.58 0-1.03.2t-.71.56a1.4 1.4 0 0 0-.25.82v.01q0 .46.25.81.26.35.71.56.46.2 1.03.2m0-4.1q.5 0 .9-.17.38-.18.6-.5.21-.31.21-.72v-.02q0-.4-.22-.72a1.4 1.4 0 0 0-.6-.5 2 2 0 0 0-.9-.18q-.5 0-.9.18-.37.17-.6.5-.21.3-.21.72v.01q0 .42.21.73.23.32.6.5.4.18.9.18M695.76 239.06a.8.8 0 0 1-.54-.22.7.7 0 0 1-.22-.54q0-.32.22-.54a.7.7 0 0 1 .54-.22q.3 0 .54.22.22.23.22.54 0 .3-.22.54a.7.7 0 0 1-.54.22M700.84 239.2q-.94 0-1.6-.54a3.4 3.4 0 0 1-1.02-1.53 7 7 0 0 1-.36-2.35v-.02q0-1.36.36-2.35a3.4 3.4 0 0 1 1.02-1.53q.67-.53 1.6-.53t1.6.53q.68.54 1.03 1.53.37 1 .37 2.35v.02q0 1.36-.37 2.35a3.4 3.4 0 0 1-1.02 1.53q-.67.54-1.6.54m0-.92q.62 0 1.04-.43.44-.42.66-1.21.24-.79.24-1.86v-.02a7 7 0 0 0-.24-1.85 3 3 0 0 0-.66-1.21 1.4 1.4 0 0 0-1.04-.43q-.6 0-1.03.43-.43.42-.66 1.2a7 7 0 0 0-.23 1.86v.02q0 1.07.23 1.86.22.79.66 1.21.43.43 1.03.43M708.4 239.2q-.94 0-1.6-.54a3.4 3.4 0 0 1-1.02-1.53 7 7 0 0 1-.36-2.35v-.02q0-1.36.36-2.35a3.4 3.4 0 0 1 1.02-1.53q.67-.53 1.6-.53t1.6.53 1.03 1.53q.37 1 .37 2.35v.02q0 1.36-.37 2.35a3.4 3.4 0 0 1-1.02 1.53q-.67.54-1.6.54m0-.92q.6 0 1.04-.43.43-.42.66-1.21t.24-1.86v-.02a7 7 0 0 0-.24-1.85 3 3 0 0 0-.66-1.21 1.4 1.4 0 0 0-1.04-.43q-.6 0-1.03.43-.43.42-.66 1.2a7 7 0 0 0-.23 1.86v.02q0 1.07.23 1.86t.65 1.21q.44.43 1.04.43"/><path fill="url(#cet1cj5ir)" fill-opacity=".3" d="M143.29 174.2H139V297h509V108.14l-11.14-11.32-14.57 1.26-8.57 2.26-10.28-26.8c-2.57 2.1-8.05 6.67-9.43 8.18s-7.42 18.25-10.28 26.42c-1.43 4.62-4.45 13.84-5.14 13.84s-8.28 5.45-12 8.18l-5.14-13.21-7.7-5.03-11.15 11.32c-4 1.68-12.34 5.16-13.7 5.66-1.38.5-6.87-1.47-9.43-2.51l-5.15 22.01-9.42 5.66c-2 3.57-6 10.82-6 11.33s-4.57-4.4-6.86-6.92l-10.28-4.4-7.71-13.84h-5.14l-9.43 5.66h-9.42l-14.57-4.4-10.29 16.98-23.13 17.61-4.28 21.39-10.29-6.92-8.57 1.26-5.14 7.54-10.28 2.52-6.86 6.92-16.28-11.32-8.57 3.14-16.28-22.01-6 22.01-7.7 15.1-8.58-34.6-7.71-30.2-16.28-27.67-7.71 15.1-6.86-1.26-8.57 5.66-8.57-5.66-8.56-21.39-17.14 2.52-14.57 18.87-6.86-26.42-8.56 34.6-10.29 8.8-12.85 4.4-7.71-4.4z"/><path stroke="#00e5ff" stroke-width="1.34" d="m613.64 100 8.67-3.08 14.42-1.24L648 107.05l-.53.67-11.02-11.1-14.74 1.25-8.47 2.99-9.83-27.48-.03.03a317 317 0 0 0-5.16 4.27 62 62 0 0 0-4.23 3.8q-.18.2-.65 1.12-.45.91-1.05 2.34c-.8 1.9-1.78 4.36-2.8 7.03a686 686 0 0 0-5.7 15.58c-.7 2.29-1.82 5.73-2.85 8.6-.5 1.43-1 2.73-1.41 3.67q-.31.72-.56 1.15-.12.22-.25.37l-.17.15a1 1 0 0 1-.25.09h-.02l-.07.03-.32.16q-.41.22-1.06.64c-.86.54-1.98 1.3-3.2 2.14a376 376 0 0 0-7.14 5.07l-.39.28-5.28-13.45-7.35-4.77-11 11.09-.07.03c-3.99 1.66-12.35 5.12-13.73 5.62q-.36.13-.82.1-.47-.01-1.05-.11c-.77-.14-1.68-.37-2.62-.65-1.7-.5-3.5-1.17-4.8-1.68l-5.07 21.58-9.5 5.66c-1 1.76-2.46 4.39-3.68 6.65a135 135 0 0 0-2.06 3.97l-.14.33a.5.5 0 0 1-.22.37.4.4 0 0 1-.31.04 1 1 0 0 1-.27-.13 6 6 0 0 1-.6-.5 49 49 0 0 1-1.83-1.81c-1.41-1.45-3.1-3.26-4.24-4.5l-10.33-4.4-7.68-13.66h-4.83l-9.43 5.62h-9.58l-14.36-4.3-10.17 16.67L402 175.1l-4.38 21.66-10.64-7.1-8.28 1.2-5.13 7.48-10.33 2.5-7 7.01-16.39-11.3-8.65 3.15-16-21.46-5.8 21.12-8.2 15.95-8.84-35.36-7.7-29.9-15.9-26.83-7.54 14.63-6.99-1.27-8.65 5.67-8.88-5.82-8.5-21.06-16.72 2.43-14.95 19.22-6.67-25.52-8.24 33-10.45 8.88-13.08 4.44-7.49-4.23-7.65 19.81H139v-.9h3.43l7.78-20.14 7.95 4.5 12.64-4.3 10.13-8.6 8.91-35.7 7.04 26.94 14.2-18.25 17.6-2.56 8.64 21.4 8.26 5.42 8.5-5.57 6.73 1.23 7.9-15.34 16.68 28.13 7.74 30.04 8.32 33.33 7.22-14.03 6.2-22.6 16.6 22.26 8.49-3.1 16.2 11.18 6.71-6.73 10.25-2.48 5.16-7.52 8.87-1.29 9.94 6.64 4.2-20.8L424.51 157l10.4-17.04 14.8 4.43H459l9.43-5.62h5.46l7.76 13.82 10.24 4.35.06.07c1.14 1.24 2.86 3.08 4.28 4.55a49 49 0 0 0 2.1 2.03l.03-.07.49-1.01c.4-.8.97-1.87 1.6-3.03 1.25-2.3 2.75-5 3.76-6.76l.05-.1 9.37-5.59 5.21-22.13.41.16a63 63 0 0 0 5.13 1.82c.93.27 1.81.5 2.54.63q.54.1.94.1t.57-.06c1.35-.49 9.6-3.9 13.63-5.58l11.3-11.4 8.08 5.23 5.01 12.77c1.85-1.34 4.47-3.22 6.76-4.8 1.23-.84 2.36-1.6 3.24-2.16a21 21 0 0 1 1.48-.86q.1-.04.24-.07l.14-.22q.2-.35.5-1.05a64 64 0 0 0 1.4-3.62c1.02-2.85 2.13-6.28 2.84-8.56v-.02a690 690 0 0 1 5.72-15.6c1.02-2.69 2-5.16 2.8-7.07q.6-1.44 1.08-2.39c.3-.6.57-1.08.8-1.32.7-.78 2.44-2.3 4.3-3.88 1.85-1.57 3.84-3.21 5.13-4.25z" clip-rule="evenodd"/><path fill="#512da8" d="m315.65 244.38-109.08-94.33 122.67 59.4 117.23-31.06-55.51 43.09-61.72-12.04z" opacity=".4"/><path stroke="#651fff" stroke-width=".78" d="m206.57 150.05 109.08 94.33 13.59-34.94 61.72 12.03 55.51-43.08"/><path stroke="#651fff" stroke-dasharray="1.55 1.55" stroke-width=".78" d="m315.65 244.38 75.3-22.9"/><path fill="#ff9800" d="m509.36 199.74-38.82-16.3 58.23-17.48 73.36-36.87-26.78 40.37-46.58-3.5z" opacity=".5"/><path stroke="#fb8c00" stroke-width=".78" d="m470.54 183.43 38.82 16.3 19.4-33.77 46.59 3.5 26.78-40.37"/><path stroke="#fb8c00" stroke-dasharray="1.55 1.55" stroke-width=".78" d="m509.36 199.74 65.99-30.28"/><g filter="url(#det1cj5ir)"><rect width="17.86" height="20.19" x="197.64" y="131.41" fill="#6200ea" rx="2.33"/></g><g filter="url(#eet1cj5ir)"><rect width="17.86" height="20.19" x="463.16" y="172.56" fill="#ff9800" rx="2.33"/></g><g filter="url(#fet1cj5ir)"><rect width="17.86" height="20.19" x="306.33" y="238.56" fill="#6200ea" rx="2.33"/></g><g filter="url(#get1cj5ir)"><rect width="17.86" height="20.19" x="498.88" y="194.3" fill="#ff9800" rx="2.33"/></g><g filter="url(#het1cj5ir)"><rect width="17.86" height="20.19" x="321.08" y="198.96" fill="#6200ea" rx="2.33"/></g><g filter="url(#iet1cj5ir)"><rect width="17.86" height="20.19" x="521.39" y="153.93" fill="#ff9800" rx="2.33"/></g><g filter="url(#jet1cj5ir)"><rect width="17.86" height="20.19" x="382.42" y="216.81" fill="#6200ea" rx="2.33"/></g><g filter="url(#ket1cj5ir)"><rect width="17.86" height="20.19" x="568.75" y="160.92" fill="#ff9800" rx="2.33"/></g><g filter="url(#let1cj5ir)"><rect width="17.86" height="20.19" x="439.09" y="168.68" fill="#6200ea" rx="2.33"/></g><g filter="url(#met1cj5ir)"><rect width="17.86" height="20.19" x="594.37" y="118.99" fill="#ff9800" rx="2.33"/></g><path fill="#fff" d="M390.94 231.99q-1.2-.01-2.06-.56a3.6 3.6 0 0 1-1.34-1.59 6 6 0 0 1-.46-2.43v-.01q0-1.4.46-2.44.47-1.02 1.34-1.58a3.7 3.7 0 0 1 2.06-.56q.91 0 1.67.36.75.37 1.25 1 .49.64.62 1.48v.01h-1.1l-.01-.01a2.4 2.4 0 0 0-2.44-1.83q-.83 0-1.45.43-.61.44-.95 1.24a5 5 0 0 0-.33 1.9v.01q0 1.1.33 1.9.34.8.95 1.23.62.45 1.46.44.6 0 1.11-.2.5-.2.84-.56.33-.38.47-.87l.01-.01h1.1a3 3 0 0 1-1.86 2.32 4 4 0 0 1-1.67.33M444.8 183.64v-8.75h3.01q1.3 0 2.22.52t1.42 1.5.5 2.35v.01q0 1.37-.5 2.36t-1.41 1.5a4.5 4.5 0 0 1-2.23.51zm1.1-.98h1.84q.97 0 1.66-.4a2.6 2.6 0 0 0 1.06-1.16q.37-.75.37-1.82 0-1.08-.37-1.84t-1.06-1.16a3 3 0 0 0-1.66-.4h-1.84zM202.84 146.17l3.24-4.78-.26.84v-.48l-2.94-4.34h1.31l2.34 3.53h.5l-.72.39 2.63-3.92h1.24l-3.03 4.39v.48l-.26-.84 3.22 4.73h-1.3l-2.34-3.5h-.5l.73-.38-2.62 3.88zM468.36 187.31l3.24-4.78-.26.85v-.49l-2.94-4.33h1.31l2.34 3.53h.5l-.72.38 2.63-3.9h1.24l-3.03 4.38v.48l-.26-.84 3.22 4.72h-1.3l-2.34-3.49h-.5l.73-.38-2.62 3.87zM311.41 252.53l3.23-8.75h.83v1.41h-.34l-2.57 7.34zm1.46-2.5.34-.93h3.96l.34.92zm4.93 2.5-2.57-7.34v-1.41h.49l3.22 8.75zM503.95 208.28l3.23-8.76h.84v1.42h-.35l-2.57 7.34zm1.46-2.5.34-.94h3.96l.34.93zm4.93 2.5-2.57-7.34v-1.42h.49l3.23 8.76zM327.84 213.92v-.96h2.7q1 0 1.5-.4.51-.39.51-1.14v-.01q0-.5-.23-.85t-.71-.5q-.46-.18-1.17-.18h-2.6v-.94h2.3a2.6 2.6 0 0 0 1.49-.35q.5-.35.5-1.04v-.02q0-.66-.45-1.03t-1.27-.37h-2.57v-.96h2.8q.8 0 1.39.27a2 2 0 0 1 1.2 1.9v.02q0 .45-.2.85a2 2 0 0 1-.54.68q-.34.27-.77.35v.1q.6.06 1.04.35.45.3.67.75.25.45.25 1.02v.01q0 .76-.36 1.32-.35.54-1.01.84-.67.3-1.6.3zm-.54 0v-8.75h1.09v8.75zM528.15 168.9v-.97h2.7q.99 0 1.5-.4.5-.39.5-1.14v-.01q0-.5-.23-.85t-.7-.5q-.47-.18-1.17-.18h-2.6v-.94h2.29a2.6 2.6 0 0 0 1.5-.35q.5-.35.5-1.04v-.01q0-.68-.46-1.03-.45-.37-1.26-.37h-2.57v-.97h2.8q.81 0 1.38.27a2 2 0 0 1 1.2 1.9v.02q0 .46-.2.85a2 2 0 0 1-.54.68q-.34.27-.76.35v.1q.6.07 1.04.35.43.3.67.75t.24 1.02v.01q0 .76-.36 1.32-.35.54-1 .84-.67.3-1.6.3zm-.55 0v-8.76h1.1v8.75zM577.33 175.88q-1.19-.01-2.05-.56a3.6 3.6 0 0 1-1.34-1.59 6 6 0 0 1-.47-2.43v-.01q0-1.41.47-2.44.47-1.02 1.33-1.58a3.7 3.7 0 0 1 2.06-.56q.92 0 1.67.36.75.37 1.25 1 .49.64.62 1.48v.01h-1.1l-.01-.01a2.4 2.4 0 0 0-2.43-1.83q-.84 0-1.46.43-.6.44-.95 1.24a5 5 0 0 0-.33 1.9v.01q0 1.1.33 1.9.34.8.95 1.23.62.45 1.46.44.61 0 1.11-.2t.84-.56.47-.87l.01-.02h1.1v.02a3 3 0 0 1-1.85 2.3 4 4 0 0 1-1.68.34M600.14 133.74V125h3q1.3 0 2.23.52t1.41 1.5.5 2.35v.01q0 1.38-.5 2.36-.49.97-1.4 1.5a4.5 4.5 0 0 1-2.23.51zm1.1-.98h1.83q.98 0 1.67-.4a2.6 2.6 0 0 0 1.06-1.16q.36-.75.36-1.82v-.01q0-1.06-.37-1.83a2.6 2.6 0 0 0-1.05-1.16 3 3 0 0 0-1.67-.4h-1.84z"/><path fill="#089981" d="M145 266h7v25a7 7 0 0 1-7-7z"/><path fill="#f23645" d="M153 258h7v33h-7zM161 270h7v21h-7zM169 251h7v40h-7z"/><path fill="#089981" d="M177 270h7v21h-7z"/><path fill="#f23645" d="M185 263h7v28h-7zM193 273h7v18h-7z"/><path fill="#089981" d="M201 252h7v39h-7zM209 277h7v14h-7z"/><path fill="#f23645" d="M217 279h7v12h-7z"/><path fill="#089981" d="M225 272h7v19h-7z"/><path fill="#f23645" d="M233 280h7v11h-7z"/><path fill="#089981" d="M241 266h7v25h-7z"/><path fill="#f23645" d="M249 252h7v39h-7z"/><path fill="#089981" d="M257 272h7v19h-7z"/><path fill="#f23645" d="M265 280h7v11h-7zM273 253h7v38h-7z"/><path fill="#089981" d="M281 277h7v14h-7zM289 266h7v25h-7z"/><path fill="#f23645" d="M297 252h7v39h-7z"/><path fill="#089981" d="M305 276h7v15h-7z"/><path fill="#f23645" d="M313 272h7v19h-7zM321 266h7v25h-7z"/><path fill="#089981" d="M329 265h7v26h-7z"/><path fill="#f23645" d="M337 258h7v33h-7zM345 277h7v14h-7z"/><path fill="#089981" d="M353 253h7v38h-7z"/><path fill="#f23645" d="M361 273h7v18h-7z"/><path fill="#089981" d="M369 253h7v38h-7zM377 276h7v15h-7z"/><path fill="#f23645" d="M385 256h7v35h-7zM393 279h7v12h-7z"/><path fill="#089981" d="M401 265h7v26h-7z"/><path fill="#f23645" d="M409 276h7v15h-7zM417 253h7v38h-7z"/><path fill="#089981" d="M425 283h7v8h-7z"/><path fill="#f23645" d="M433 270h7v21h-7z"/><path fill="#089981" d="M441 253h7v38h-7z"/><path fill="#f23645" d="M449 277h7v14h-7zM457 280h7v11h-7z"/><path fill="#089981" d="M465 260h7v31h-7z"/><path fill="#f23645" d="M473 259h7v32h-7zM481 272h7v19h-7zM489 283h7v8h-7z"/><path fill="#089981" d="M497 287h7v4h-7z"/><path fill="#f23645" d="M505 287h7v4h-7z"/><path fill="#089981" d="M513 266h7v25h-7z"/><path fill="#f23645" d="M521 252h7v39h-7z"/><path fill="#089981" d="M529 277h7v14h-7z"/><path fill="#f23645" d="M537 279h7v12h-7z"/><path fill="#089981" d="M545 272h7v19h-7z"/><path fill="#f23645" d="M553 266h7v25h-7zM561 252h7v39h-7z"/><path fill="#089981" d="M569 272h7v19h-7z"/><path fill="#f23645" d="M577 280h7v11h-7zM585 253h7v38h-7z"/><path fill="#089981" d="M593 277h7v14h-7zM601 266h7v25h-7z"/><path fill="#f23645" d="M609 252h7v39h-7z"/><path fill="#089981" d="M617 276h7v15h-7z"/><path fill="#c667d1" d="M252 49a12 12 0 0 1 12 12v19a12 12 0 0 1-12 12h-78.32l8.11 20.06c.8 1.97-1.6 3.65-3.18 2.25L153.55 92H12A12 12 0 0 1 0 80V61a12 12 0 0 1 12-12z"/><path fill="#fff" d="M15.58 71.97v-1.56h3.91q1.52 0 2.35-.78.83-.8.83-2.18v-.02q0-1.4-.83-2.18a3.3 3.3 0 0 0-2.35-.78h-3.91v-1.56h4.36q1.33 0 2.35.56 1 .57 1.59 1.59.58 1.01.58 2.35v.02q0 1.34-.58 2.36a4 4 0 0 1-1.6 1.6q-1 .58-2.34.58zM14.7 77V62.9h1.76V77zM26.45 77V66.56h1.7v1.6h.13q.3-.85.99-1.3a3 3 0 0 1 1.72-.48q.22 0 .46.02l.35.04v1.65q-.22-.05-.48-.06l-.54-.03q-.77 0-1.37.3-.6.32-.93.9a2.6 2.6 0 0 0-.33 1.34V77zM33.33 77V66.56h1.7V77zm.86-12.4a1.1 1.1 0 0 1-.81-.33 1.1 1.1 0 0 1-.34-.81q0-.48.34-.82t.8-.33q.5 0 .82.33.33.34.33.82 0 .46-.33.8-.34.35-.81.35M41.84 77.19q-1.46 0-2.54-.67a4.5 4.5 0 0 1-1.67-1.88 7 7 0 0 1-.59-2.88v-.02q0-1.64.59-2.84a4.5 4.5 0 0 1 4.2-2.53q1.29 0 2.2.46a3.9 3.9 0 0 1 2.17 2.9l.01.07h-1.68l-.02-.04a2.4 2.4 0 0 0-.87-1.32 2.8 2.8 0 0 0-1.8-.56q-.94 0-1.63.48-.67.47-1.06 1.34a5 5 0 0 0-.37 2.05q0 1.22.38 2.1.37.87 1.06 1.35t1.61.48q1.08 0 1.73-.47.68-.48.95-1.35l.02-.06 1.68-.01-.02.1q-.2.95-.75 1.7-.56.75-1.46 1.18t-2.14.42M52.3 77.19q-1.5 0-2.58-.66a4.3 4.3 0 0 1-1.65-1.86 6.6 6.6 0 0 1-.57-2.86q0-1.61.57-2.84a4.5 4.5 0 0 1 1.63-1.9q1.07-.7 2.49-.7 1.4 0 2.44.67 1.02.66 1.57 1.83.55 1.18.55 2.74v.65h-8.38v-1.35h7.52l-.84 1.24v-.67q0-1.23-.37-2.02a2.7 2.7 0 0 0-1.02-1.18 3 3 0 0 0-1.48-.4 3 3 0 0 0-1.5.42q-.67.41-1.06 1.21-.38.8-.38 1.97v.67q0 1.1.37 1.9.37.78 1.07 1.2t1.65.42q.7 0 1.21-.2.53-.18.87-.5.34-.3.48-.65l.04-.08h1.69l-.02.07q-.13.56-.48 1.08a4 4 0 0 1-2.19 1.56q-.74.24-1.64.24M63.58 77V66.56h1.7V77zm.86-12.4a1.1 1.1 0 0 1-.81-.33 1.1 1.1 0 0 1-.34-.81q0-.48.34-.82t.8-.33q.5 0 .82.33.33.34.33.82 0 .46-.33.8-.34.35-.81.35M71.42 77.19q-1.17 0-2.07-.37a3.5 3.5 0 0 1-1.43-1.01 3 3 0 0 1-.62-1.53v-.02h1.73v.02q.2.68.8 1.09.63.4 1.64.4.71 0 1.24-.2a2 2 0 0 0 .83-.56q.3-.36.3-.83v-.02q0-.54-.4-.9a3 3 0 0 0-1.37-.6l-1.63-.4a6 6 0 0 1-1.6-.6 2.5 2.5 0 0 1-.94-.93q-.3-.55-.3-1.3 0-.89.5-1.57t1.38-1.08q.87-.4 1.98-.4 1.12 0 1.95.36.85.34 1.36 1 .52.63.62 1.5v.03h-1.65v-.02q-.16-.65-.75-1.05-.58-.4-1.53-.4-.62 0-1.1.19t-.76.54q-.27.34-.27.81v.02q0 .35.18.63.18.27.56.48t.98.35l1.62.39q1.5.36 2.2 1.03.72.67.71 1.8v.01q0 .93-.55 1.64t-1.48 1.1a6 6 0 0 1-2.13.4M85.97 77.19q-1.17 0-2.07-.37a3.5 3.5 0 0 1-1.43-1.01 3 3 0 0 1-.62-1.53v-.02h1.73v.02q.2.68.8 1.09.62.4 1.64.4.71 0 1.24-.2a2 2 0 0 0 .83-.56q.3-.36.3-.83v-.02q0-.54-.4-.9a3 3 0 0 0-1.37-.6l-1.63-.4a6 6 0 0 1-1.6-.6 2.5 2.5 0 0 1-.95-.93q-.3-.55-.3-1.3 0-.89.5-1.57t1.39-1.08q.87-.4 1.98-.4 1.12 0 1.95.36.85.34 1.36 1 .52.63.61 1.5l.01.03h-1.66v-.02q-.15-.65-.74-1.05t-1.53-.4q-.63 0-1.1.19t-.76.54q-.27.34-.27.81v.02q0 .35.18.63.18.27.56.48t.98.35l1.62.39q1.5.36 2.2 1.03t.7 1.8v.01q0 .93-.54 1.64-.55.7-1.48 1.1a6 6 0 0 1-2.13.4M96.37 77.19q-1.5 0-2.57-.66a4.3 4.3 0 0 1-1.65-1.86 6.6 6.6 0 0 1-.58-2.86q0-1.61.58-2.84a4.5 4.5 0 0 1 1.63-1.9q1.07-.7 2.48-.7 1.42 0 2.44.67 1.03.66 1.58 1.83.54 1.18.54 2.74v.65h-8.38v-1.35h7.52l-.84 1.24v-.67q0-1.23-.37-2.02a2.7 2.7 0 0 0-1.01-1.18 3 3 0 0 0-1.49-.4 3 3 0 0 0-1.5.42q-.67.41-1.06 1.21-.38.8-.38 1.97v.67q0 1.1.37 1.9.39.78 1.08 1.2t1.65.42q.69 0 1.2-.2.54-.18.88-.5.34-.3.48-.65l.04-.08h1.68l-.02.07q-.12.56-.47 1.08a4 4 0 0 1-2.2 1.56q-.73.24-1.63.24M106.43 77.1q-1.58 0-2.3-.65-.7-.66-.71-2.15v-6.33h-1.62v-1.4h1.62v-2.73h1.76v2.72h2.21v1.4h-2.21v6.01q0 .9.35 1.28.34.37 1.14.37a6 6 0 0 0 .72-.04v1.44l-.47.06q-.23.03-.5.03M112.94 77.1q-1.57 0-2.3-.65-.7-.66-.7-2.15v-6.33h-1.63v-1.4h1.62v-2.73h1.76v2.72h2.22v1.4h-2.22v6.01q0 .9.35 1.28.35.37 1.14.37a6 6 0 0 0 .73-.04v1.44l-.47.06q-.25.03-.5.03M115.87 77V66.56h1.7V77zm.86-12.4a1.1 1.1 0 0 1-.81-.33q-.34-.34-.34-.81-.01-.48.34-.82.34-.33.8-.33.5 0 .82.33.33.34.33.82 0 .46-.33.8-.34.35-.81.35M120.1 77V66.56h1.7v1.55h.13q.4-.8 1.15-1.27.76-.46 1.93-.47 1.74 0 2.7 1.02.94 1 .94 2.84V77h-1.7v-6.38q0-1.37-.6-2.06t-1.83-.68a2.5 2.5 0 0 0-2.4 1.39q-.32.65-.33 1.56V77zM135.37 80.7q-1.27 0-2.2-.37a4 4 0 0 1-1.51-1 3 3 0 0 1-.72-1.47l.02-.03h1.74l.02.03q.17.58.85.96.69.37 1.8.37a3.3 3.3 0 0 0 2.17-.66q.8-.65.79-1.81v-1.94h-.13a3.5 3.5 0 0 1-1.93 1.61q-.63.22-1.35.22-1.35 0-2.34-.65a4.3 4.3 0 0 1-1.52-1.8 6 6 0 0 1-.54-2.66q0-1.52.55-2.66t1.53-1.81a4 4 0 0 1 2.36-.66 3.8 3.8 0 0 1 2.45.9q.49.43.8 1.03h.1v-1.74h1.7v10.26q0 1.18-.56 2.05a3.7 3.7 0 0 1-1.61 1.34q-1.05.48-2.47.48m-.08-5.6a2.85 2.85 0 0 0 2.7-1.72q.37-.81.37-1.88 0-1.08-.37-1.88-.37-.83-1.07-1.28-.68-.45-1.63-.46-.97 0-1.64.46-.68.45-1.04 1.27a5 5 0 0 0-.35 1.88v.01q0 1.08.35 1.89.36.8 1.04 1.27.68.45 1.64.45M150.22 77.19q-1 0-1.79-.39a3 3 0 0 1-1.24-1.07 3 3 0 0 1-.45-1.65v-.02q0-.93.44-1.58a3 3 0 0 1 1.3-1.05q.85-.38 2.06-.45l3.84-.22v1.35l-3.63.22q-1.17.07-1.72.5-.55.44-.55 1.2v.02q0 .78.59 1.22.6.44 1.51.44.85 0 1.51-.34.67-.34 1.06-.94.38-.6.38-1.34v-3.2q0-.98-.59-1.5-.59-.51-1.73-.51-.96 0-1.57.36-.6.35-.8.99v.04h-1.69l.01-.07q.12-.83.66-1.47.54-.63 1.41-1a5 5 0 0 1 2.02-.36 5 5 0 0 1 2.15.42q.9.42 1.36 1.2.47.77.47 1.84V77h-1.7v-1.57h-.13q-.32.56-.8.95-.47.4-1.07.6a4 4 0 0 1-1.31.2M162.56 77V62.44h1.7V77zM171.13 77.19q-1.47 0-2.56-.66a4.4 4.4 0 0 1-1.67-1.86q-.6-1.22-.59-2.88v-.02q0-1.68.59-2.89.6-1.2 1.67-1.85a5 5 0 0 1 2.55-.66q1.5 0 2.56.66a4.3 4.3 0 0 1 1.67 1.85q.6 1.21.6 2.89v.02q0 1.66-.6 2.88-.58 1.2-1.67 1.86a5 5 0 0 1-2.55.66m0-1.5q.97 0 1.65-.47.7-.47 1.06-1.34.37-.85.37-2.1v-.01q0-1.23-.37-2.1a3 3 0 0 0-1.06-1.33q-.67-.45-1.66-.46-.97 0-1.66.46-.68.45-1.05 1.33a6 6 0 0 0-.36 2.1v.02q0 1.23.36 2.1a3 3 0 0 0 1.05 1.33q.7.45 1.67.46M179.65 77l-2.92-10.44h1.69l2.06 8.38h.14l2.33-8.38h1.62l2.34 8.38h.13l2.06-8.38h1.7L187.85 77h-1.7l-2.35-8.08h-.13L181.36 77zM196.36 77.19q-1.5 0-2.57-.66a4.3 4.3 0 0 1-1.65-1.86 6.6 6.6 0 0 1-.58-2.86q0-1.61.58-2.84a4.5 4.5 0 0 1 1.63-1.9q1.05-.7 2.48-.7 1.41 0 2.44.67 1.02.66 1.57 1.83.55 1.18.55 2.74v.65h-8.38v-1.35h7.52l-.84 1.24v-.67q0-1.23-.37-2.02a2.7 2.7 0 0 0-1.02-1.18q-.64-.4-1.48-.4a3 3 0 0 0-1.5.42q-.67.41-1.06 1.21-.38.8-.38 1.97v.67q0 1.1.37 1.9a2.8 2.8 0 0 0 2.73 1.62q.69 0 1.2-.2.54-.18.88-.5.33-.3.47-.65l.04-.08h1.7l-.03.07q-.12.56-.47 1.08a4 4 0 0 1-2.2 1.56q-.73.24-1.63.24M202.77 77V66.56h1.7v1.6h.14q.28-.85.98-1.3a3 3 0 0 1 1.72-.48q.24 0 .46.02l.35.04v1.65q-.22-.05-.47-.06l-.54-.03q-.77 0-1.37.3-.59.32-.94.9a2.6 2.6 0 0 0-.33 1.34V77zM214.5 77V62.44h1.7v5.71h.13q.42-.84 1.18-1.3t1.92-.47q1.15 0 1.97.46.83.48 1.26 1.36.45.89.44 2.12V77h-1.7v-6.29q0-1.41-.62-2.12-.61-.7-1.86-.71-.81 0-1.43.36-.6.36-.95 1.03-.33.66-.33 1.57V77zM225.55 77V66.56h1.7V77zm.86-12.4a1 1 0 0 1-.8-.33 1.1 1.1 0 0 1-.35-.81q0-.48.34-.82t.81-.33q.48 0 .81.33.33.34.33.82 0 .46-.33.8t-.8.35M234.1 80.7q-1.25 0-2.2-.37a4 4 0 0 1-1.5-1 3 3 0 0 1-.72-1.47l.02-.03h1.74l.02.03q.17.58.85.96.67.37 1.8.37a3.3 3.3 0 0 0 2.17-.66q.78-.65.78-1.81v-1.94h-.12A3.4 3.4 0 0 1 235 76.4q-.62.22-1.34.22-1.35 0-2.34-.65a4.3 4.3 0 0 1-1.52-1.8 6 6 0 0 1-.54-2.66q0-1.52.55-2.66.54-1.15 1.53-1.81a4 4 0 0 1 2.35-.66 3.8 3.8 0 0 1 2.46.9q.48.43.8 1.03h.1v-1.74h1.7v10.26q0 1.18-.56 2.05a3.7 3.7 0 0 1-1.61 1.34 6 6 0 0 1-2.48.48m-.07-5.6a2.9 2.9 0 0 0 2.7-1.72q.36-.81.36-1.88 0-1.08-.37-1.88-.37-.83-1.06-1.28t-1.63-.46q-.98 0-1.64.46-.68.45-1.04 1.27a5 5 0 0 0-.35 1.88v.01q0 1.08.35 1.89.36.8 1.04 1.27.68.45 1.64.45M241.33 77V62.44h1.7v5.71h.13q.4-.84 1.17-1.3t1.92-.47 1.97.46q.82.48 1.27 1.36.44.89.44 2.12V77h-1.7v-6.29q0-1.41-.63-2.12-.62-.7-1.85-.71-.82 0-1.44.36-.6.36-.95 1.03-.33.66-.33 1.57V77z"/><path fill="#c667d1" d="M637 21a12 12 0 0 1 12 12v19a12 12 0 0 1-12 12h-4.03l12.92 26.56c.95 1.94-1.43 3.8-3.08 2.4L608.3 64H417a12 12 0 0 1-12-12V33a12 12 0 0 1 12-12z"/><path fill="#fff" d="M419.6 48.96v-14.1h2.04l4.84 11.79h.13l4.84-11.79h2.05v14.1h-1.64v-10.8H431l1.95-2.9-5.66 13.7h-1.49l-5.66-13.7 1.94 2.9h-.84v10.8zM439.03 49.14q-1 0-1.78-.38a3 3 0 0 1-1.25-1.07 3 3 0 0 1-.44-1.65v-.02q0-.93.44-1.59a3 3 0 0 1 1.3-1.04q.85-.38 2.05-.45l3.84-.23v1.35l-3.63.23q-1.16.05-1.72.5-.54.42-.55 1.2V46q0 .77.59 1.22.6.44 1.51.44.85 0 1.52-.35.68-.34 1.05-.93.38-.6.38-1.34v-3.21q0-.97-.58-1.49-.6-.52-1.74-.52-.96 0-1.56.37-.6.35-.8.98l-.02.04h-1.67v-.07q.12-.83.66-1.46.54-.64 1.42-1a5 5 0 0 1 2.02-.36 5 5 0 0 1 2.15.42q.9.4 1.35 1.2.47.75.47 1.84v7.17h-1.7v-1.58h-.12q-.33.56-.8.96t-1.08.6a4 4 0 0 1-1.3.2M447.09 52.58a5 5 0 0 1-.78-.06v-1.4q.14.04.3.04l.36.01q.75 0 1.21-.35.47-.34.75-1.24l.2-.62-3.86-10.44h1.82l3.16 9.52-.6-.91h.74l-.6.9 3.16-9.51h1.78l-4.07 11.08a8 8 0 0 1-.89 1.78q-.46.65-1.11.92-.64.28-1.57.28M461.19 48.96V38.52h1.7v10.44zm.86-12.4a1.1 1.1 0 0 1-.81-.34 1.1 1.1 0 0 1-.35-.81q0-.48.35-.81t.8-.33q.5 0 .82.33.33.34.33.81t-.33.81-.81.34M465.42 48.96V38.52h1.7v1.55h.13q.4-.81 1.15-1.27.76-.47 1.93-.47 1.74 0 2.7 1.02.94 1 .94 2.84v6.77h-1.7v-6.38q0-1.39-.6-2.06-.6-.69-1.83-.69a2.5 2.5 0 0 0-2.4 1.39q-.32.66-.33 1.56v6.18zM480.65 49.14q-1.47 0-2.55-.66a4.5 4.5 0 0 1-1.67-1.89 7 7 0 0 1-.59-2.88v-.02q0-1.63.59-2.83.6-1.2 1.67-1.87a4.7 4.7 0 0 1 2.54-.66q1.27 0 2.2.46a3.9 3.9 0 0 1 2.16 2.9l.01.07h-1.68l-.02-.04a2.4 2.4 0 0 0-.87-1.33 2.8 2.8 0 0 0-1.8-.56q-.94 0-1.62.48-.69.47-1.07 1.34a5 5 0 0 0-.37 2.05v.01q0 1.2.38 2.1.39.87 1.07 1.35.7.48 1.6.48 1.08 0 1.74-.47.67-.48.94-1.36l.02-.06h1.68l-.02.09q-.2.95-.75 1.7t-1.45 1.18-2.14.42M486.82 48.96V38.52h1.7v1.6h.13q.29-.84 1-1.31a3 3 0 0 1 1.71-.48q.23 0 .46.03l.35.04v1.65l-.48-.07-.54-.03q-.75 0-1.36.31-.6.3-.94.9a2.6 2.6 0 0 0-.33 1.33v6.47zM497.59 49.14q-1.5 0-2.57-.65a4.3 4.3 0 0 1-1.65-1.87 7 7 0 0 1-.57-2.85v-.01q0-1.61.57-2.83a4.5 4.5 0 0 1 1.63-1.9q1.07-.7 2.48-.7 1.42 0 2.44.66 1.03.66 1.58 1.84.54 1.18.54 2.73v.66h-8.38v-1.36h7.52l-.84 1.24v-.66q0-1.23-.37-2.02a2.7 2.7 0 0 0-1.01-1.19q-.65-.39-1.49-.39a3 3 0 0 0-1.5.41q-.67.42-1.06 1.21-.38.81-.38 1.98v.66q0 1.12.37 1.9.39.8 1.08 1.2.7.43 1.65.43.69 0 1.21-.2t.87-.5.48-.65l.04-.09h1.69l-.02.08q-.13.56-.48 1.07a4 4 0 0 1-2.19 1.57q-.75.23-1.64.23M506.92 49.14q-1 0-1.8-.38a3 3 0 0 1-1.23-1.07 3 3 0 0 1-.45-1.65v-.02q0-.93.44-1.59a3 3 0 0 1 1.3-1.04q.84-.38 2.06-.45l3.83-.23v1.35l-3.63.23q-1.16.05-1.72.5-.54.42-.54 1.2V46q0 .77.58 1.22.6.44 1.52.44.84 0 1.51-.35.68-.34 1.05-.93.39-.6.39-1.34v-3.21q0-.97-.6-1.49-.57-.52-1.73-.52-.96 0-1.56.37-.6.35-.8.98l-.01.04h-1.68v-.07q.13-.83.66-1.46.54-.64 1.42-1a5 5 0 0 1 2.02-.36 5 5 0 0 1 2.15.42q.9.4 1.36 1.2.46.75.46 1.84v7.17h-1.7v-1.58h-.12q-.32.56-.8.96t-1.08.6a4 4 0 0 1-1.3.2M517.96 49.14q-1.17 0-2.07-.36a3.5 3.5 0 0 1-1.43-1.02 3 3 0 0 1-.62-1.53v-.02h1.73v.02q.2.69.8 1.1.63.4 1.64.4.71 0 1.24-.2a2 2 0 0 0 .83-.57q.3-.35.3-.83v-.02q0-.53-.41-.9a3 3 0 0 0-1.36-.6l-1.63-.4a6 6 0 0 1-1.6-.6 2.5 2.5 0 0 1-.95-.92q-.3-.56-.3-1.3v-.01q0-.88.5-1.57.51-.69 1.38-1.08.89-.4 1.99-.4 1.12 0 1.95.36.85.36 1.36 1t.61 1.5l.01.03h-1.66v-.02q-.15-.65-.74-1.04-.59-.41-1.53-.41-.63 0-1.1.2-.49.18-.76.54-.27.35-.27.8v.03q0 .34.17.62.2.29.57.48.38.21.98.35l1.62.4q1.5.35 2.2 1.03.7.66.7 1.79V46q0 .92-.54 1.64-.55.7-1.48 1.1a6 6 0 0 1-2.13.4M528.36 49.14q-1.5 0-2.57-.65a4.3 4.3 0 0 1-1.65-1.87 7 7 0 0 1-.58-2.85v-.01q0-1.61.58-2.83a4.5 4.5 0 0 1 1.63-1.9q1.07-.7 2.48-.7 1.42 0 2.44.66 1.03.66 1.57 1.84.55 1.18.55 2.73v.66h-8.38v-1.36h7.52l-.84 1.24v-.66q0-1.23-.37-2.02a2.7 2.7 0 0 0-1.01-1.19 3 3 0 0 0-1.49-.39 3 3 0 0 0-1.5.41q-.67.42-1.06 1.21-.38.81-.38 1.98v.66q0 1.12.37 1.9.38.8 1.08 1.2.7.43 1.65.43.69 0 1.2-.2.54-.2.88-.5t.48-.65l.03-.09h1.7l-.03.08q-.12.56-.47 1.07a4 4 0 0 1-2.2 1.57q-.73.23-1.63.23M543.46 49.14a4 4 0 0 1-3.84-2.55 7 7 0 0 1-.55-2.85v-.02q0-1.63.55-2.84.54-1.2 1.53-1.88a4 4 0 0 1 2.3-.67 4 4 0 0 1 2.5.87q.5.4.77.99h.14v-5.8h1.7v14.57h-1.7v-1.7h-.13a3.5 3.5 0 0 1-1.92 1.66 4 4 0 0 1-1.35.22m.37-1.5a3 3 0 0 0 1.63-.47q.69-.48 1.06-1.36a5 5 0 0 0 .37-2.07v-.02q0-1.2-.38-2.06a2.76 2.76 0 0 0-2.68-1.83 3 3 0 0 0-1.62.47q-.68.47-1.04 1.34a5 5 0 0 0-.36 2.08v.02q0 1.2.36 2.09.36.87 1.04 1.34t1.62.47M554.65 49.14q-1.17 0-1.98-.45-.8-.45-1.21-1.33a5 5 0 0 1-.4-2.08v-6.76h1.7v6.37q0 1.38.56 2.06t1.8.69q.67 0 1.18-.2.52-.22.88-.6t.54-.92q.18-.55.19-1.23v-6.17h1.7v10.44h-1.7V47.4h-.13a2.9 2.9 0 0 1-1.75 1.53q-.6.2-1.38.2M562.08 48.96V38.52h1.7v1.6h.14q.28-.84.99-1.31a3 3 0 0 1 1.72-.48l.45.03.36.04v1.65q-.23-.05-.48-.07l-.54-.03q-.77 0-1.37.31-.6.3-.93.9a2.6 2.6 0 0 0-.34 1.33v6.47zM568.97 48.96V38.52h1.7v10.44zm.86-12.4a1.1 1.1 0 0 1-.81-.34 1.1 1.1 0 0 1-.35-.81q0-.48.35-.81t.8-.33q.5 0 .82.33.33.34.33.81t-.33.81-.81.34M573.2 48.96V38.52h1.7v1.55h.13q.4-.81 1.15-1.27.76-.47 1.93-.47 1.74 0 2.7 1.02.94 1 .94 2.84v6.77h-1.7v-6.38q0-1.39-.6-2.06-.6-.69-1.83-.69a2.5 2.5 0 0 0-2.4 1.39q-.32.66-.32 1.56v6.18zM588.47 52.65q-1.27 0-2.2-.36a4 4 0 0 1-1.51-1 3 3 0 0 1-.72-1.48l.02-.02h1.74l.02.02q.17.6.85.96.69.37 1.8.37a3.3 3.3 0 0 0 2.18-.65q.78-.66.78-1.82v-1.93h-.13a3.4 3.4 0 0 1-1.93 1.61q-.63.21-1.35.21-1.35 0-2.34-.64a4.3 4.3 0 0 1-1.52-1.8 6 6 0 0 1-.54-2.66v-.01q0-1.51.55-2.66.56-1.16 1.53-1.8a4 4 0 0 1 2.36-.66q.74 0 1.35.23a3.5 3.5 0 0 1 1.9 1.7h.1v-1.74h1.7v10.26q0 1.17-.56 2.04a3.7 3.7 0 0 1-1.61 1.35 6 6 0 0 1-2.47.48m-.08-5.59a2.9 2.9 0 0 0 2.7-1.73q.37-.8.37-1.87v-.01q0-1.07-.37-1.88t-1.07-1.28q-.68-.45-1.63-.46-.97 0-1.64.46-.68.45-1.04 1.27a5 5 0 0 0-.35 1.89q0 1.08.35 1.9.37.8 1.04 1.26.68.45 1.64.45M601.52 48.96V47.4h4.3q1.6 0 2.42-.63.82-.64.82-1.85v-.02q0-.8-.38-1.36a2.3 2.3 0 0 0-1.14-.82 6 6 0 0 0-1.88-.27h-4.14v-1.51h3.64q1.6 0 2.4-.58.82-.57.82-1.7v-.02q0-1.05-.73-1.64a3 3 0 0 0-2-.58h-4.13v-1.56h4.5q1.27 0 2.2.43a3.25 3.25 0 0 1 1.93 3.08v.02q0 .73-.33 1.39-.31.64-.87 1.09-.55.44-1.25.56v.13q.98.12 1.68.58.72.45 1.1 1.19.39.73.39 1.66v.02q0 1.23-.58 2.12a3.7 3.7 0 0 1-1.63 1.36q-1.05.46-2.57.47zm-.88 0v-14.1h1.76v14.1zM619 49.27q-2.02 0-3.47-.9a6 6 0 0 1-2.23-2.56 9 9 0 0 1-.77-3.9v-.02q0-2.25.78-3.9a5.9 5.9 0 0 1 5.7-3.44q1.98 0 3.44.9 1.45.9 2.24 2.55.78 1.65.78 3.9v.01q0 2.25-.78 3.9a6 6 0 0 1-2.24 2.56q-1.44.9-3.45.9m0-1.62q1.45 0 2.5-.72a4.6 4.6 0 0 0 1.6-1.99q.57-1.29.57-3.03v-.02q0-1.74-.57-3.02a4.5 4.5 0 0 0-1.62-2q-1.05-.7-2.48-.7t-2.49.7a4.6 4.6 0 0 0-1.62 1.99 7.5 7.5 0 0 0-.57 3.03v.02q0 1.74.56 3.03a4.6 4.6 0 0 0 1.61 2q1.05.7 2.51.7M630.89 49.27q-.93 0-1.63-.27a3.5 3.5 0 0 1-2-1.86q-.28-.65-.34-1.4v-.14h1.75v.1q.07.52.32.97t.72.71q.47.27 1.17.27 1.17 0 1.78-.68t.62-1.97V34.86h1.76v10.16a5 5 0 0 1-.5 2.28q-.5.95-1.42 1.46a4.6 4.6 0 0 1-2.23.5"/><path fill="#d500f9" d="m666 76.1-10.3 5.22 9.67 6.31zm-15 23 .84.55 10.08-15.46-.84-.55-.83-.55-10.09 15.47z"/><path fill="url(#net1cj5ir)" d="M735 297h143v735H735z" transform="rotate(90 735 297)"/></g><defs><filter id="bet1cj5ir" width="710" height="544" x="77" y="-48" color-interpolation-filters="sRGB" filterUnits="userSpaceOnUse"><feFlood flood-opacity="0" result="BackgroundImageFix"/><feColorMatrix in="SourceAlpha" result="hardAlpha" values="0 0 0 0 0 0 0 0 0 0 0 0 0 0 0 0 0 0 127 0"/><feOffset dy="4"/><feGaussianBlur stdDeviation="26"/><feComposite in2="hardAlpha" operator="out"/><feColorMatrix values="0 0 0 0 0 0 0 0 0 0 0 0 0 0 0 0 0 0 0.9 0"/><feBlend in2="BackgroundImageFix" result="effect1_dropShadow_15650_111377"/><feBlend in="SourceGraphic" in2="effect1_dropShadow_15650_111377" result="shape"/></filter><filter id="det1cj5ir" width="61.33" height="63.66" x="175.9" y="109.67" color-interpolation-filters="sRGB" filterUnits="userSpaceOnUse"><feFlood flood-opacity="0" result="BackgroundImageFix"/><feColorMatrix in="SourceAlpha" result="hardAlpha" values="0 0 0 0 0 0 0 0 0 0 0 0 0 0 0 0 0 0 127 0"/><feOffset/><feGaussianBlur stdDeviation="10.87"/><feComposite in2="hardAlpha" operator="out"/><feColorMatrix values="0 0 0 0 0.384314 0 0 0 0 0 0 0 0 0 0.917647 0 0 0 1 0"/><feBlend in2="BackgroundImageFix" result="effect1_dropShadow_15650_111377"/><feBlend in="SourceGraphic" in2="effect1_dropShadow_15650_111377" result="shape"/></filter><filter id="eet1cj5ir" width="61.33" height="63.66" x="441.42" y="150.82" color-interpolation-filters="sRGB" filterUnits="userSpaceOnUse"><feFlood flood-opacity="0" result="BackgroundImageFix"/><feColorMatrix in="SourceAlpha" result="hardAlpha" values="0 0 0 0 0 0 0 0 0 0 0 0 0 0 0 0 0 0 127 0"/><feOffset/><feGaussianBlur stdDeviation="10.87"/><feComposite in2="hardAlpha" operator="out"/><feColorMatrix values="0 0 0 0 1 0 0 0 0 0.596078 0 0 0 0 0 0 0 0 1 0"/><feBlend in2="BackgroundImageFix" result="effect1_dropShadow_15650_111377"/><feBlend in="SourceGraphic" in2="effect1_dropShadow_15650_111377" result="shape"/></filter><filter id="fet1cj5ir" width="61.33" height="63.66" x="284.59" y="216.82" color-interpolation-filters="sRGB" filterUnits="userSpaceOnUse"><feFlood flood-opacity="0" result="BackgroundImageFix"/><feColorMatrix in="SourceAlpha" result="hardAlpha" values="0 0 0 0 0 0 0 0 0 0 0 0 0 0 0 0 0 0 127 0"/><feOffset/><feGaussianBlur stdDeviation="10.87"/><feComposite in2="hardAlpha" operator="out"/><feColorMatrix values="0 0 0 0 0.384314 0 0 0 0 0 0 0 0 0 0.917647 0 0 0 1 0"/><feBlend in2="BackgroundImageFix" result="effect1_dropShadow_15650_111377"/><feBlend in="SourceGraphic" in2="effect1_dropShadow_15650_111377" result="shape"/></filter><filter id="get1cj5ir" width="61.33" height="63.66" x="477.14" y="172.56" color-interpolation-filters="sRGB" filterUnits="userSpaceOnUse"><feFlood flood-opacity="0" result="BackgroundImageFix"/><feColorMatrix in="SourceAlpha" result="hardAlpha" values="0 0 0 0 0 0 0 0 0 0 0 0 0 0 0 0 0 0 127 0"/><feOffset/><feGaussianBlur stdDeviation="10.87"/><feComposite in2="hardAlpha" operator="out"/><feColorMatrix values="0 0 0 0 1 0 0 0 0 0.596078 0 0 0 0 0 0 0 0 1 0"/><feBlend in2="BackgroundImageFix" result="effect1_dropShadow_15650_111377"/><feBlend in="SourceGraphic" in2="effect1_dropShadow_15650_111377" result="shape"/></filter><filter id="het1cj5ir" width="61.33" height="63.66" x="299.35" y="177.22" color-interpolation-filters="sRGB" filterUnits="userSpaceOnUse"><feFlood flood-opacity="0" result="BackgroundImageFix"/><feColorMatrix in="SourceAlpha" result="hardAlpha" values="0 0 0 0 0 0 0 0 0 0 0 0 0 0 0 0 0 0 127 0"/><feOffset/><feGaussianBlur stdDeviation="10.87"/><feComposite in2="hardAlpha" operator="out"/><feColorMatrix values="0 0 0 0 0.384314 0 0 0 0 0 0 0 0 0 0.917647 0 0 0 1 0"/><feBlend in2="BackgroundImageFix" result="effect1_dropShadow_15650_111377"/><feBlend in="SourceGraphic" in2="effect1_dropShadow_15650_111377" result="shape"/></filter><filter id="iet1cj5ir" width="61.33" height="63.66" x="499.65" y="132.19" color-interpolation-filters="sRGB" filterUnits="userSpaceOnUse"><feFlood flood-opacity="0" result="BackgroundImageFix"/><feColorMatrix in="SourceAlpha" result="hardAlpha" values="0 0 0 0 0 0 0 0 0 0 0 0 0 0 0 0 0 0 127 0"/><feOffset/><feGaussianBlur stdDeviation="10.87"/><feComposite in2="hardAlpha" operator="out"/><feColorMatrix values="0 0 0 0 1 0 0 0 0 0.596078 0 0 0 0 0 0 0 0 1 0"/><feBlend in2="BackgroundImageFix" result="effect1_dropShadow_15650_111377"/><feBlend in="SourceGraphic" in2="effect1_dropShadow_15650_111377" result="shape"/></filter><filter id="jet1cj5ir" width="61.33" height="63.66" x="360.68" y="195.08" color-interpolation-filters="sRGB" filterUnits="userSpaceOnUse"><feFlood flood-opacity="0" result="BackgroundImageFix"/><feColorMatrix in="SourceAlpha" result="hardAlpha" values="0 0 0 0 0 0 0 0 0 0 0 0 0 0 0 0 0 0 127 0"/><feOffset/><feGaussianBlur stdDeviation="10.87"/><feComposite in2="hardAlpha" operator="out"/><feColorMatrix values="0 0 0 0 0.384314 0 0 0 0 0 0 0 0 0 0.917647 0 0 0 1 0"/><feBlend in2="BackgroundImageFix" result="effect1_dropShadow_15650_111377"/><feBlend in="SourceGraphic" in2="effect1_dropShadow_15650_111377" result="shape"/></filter><filter id="ket1cj5ir" width="61.33" height="63.66" x="547.01" y="139.18" color-interpolation-filters="sRGB" filterUnits="userSpaceOnUse"><feFlood flood-opacity="0" result="BackgroundImageFix"/><feColorMatrix in="SourceAlpha" result="hardAlpha" values="0 0 0 0 0 0 0 0 0 0 0 0 0 0 0 0 0 0 127 0"/><feOffset/><feGaussianBlur stdDeviation="10.87"/><feComposite in2="hardAlpha" operator="out"/><feColorMatrix values="0 0 0 0 1 0 0 0 0 0.596078 0 0 0 0 0 0 0 0 1 0"/><feBlend in2="BackgroundImageFix" result="effect1_dropShadow_15650_111377"/><feBlend in="SourceGraphic" in2="effect1_dropShadow_15650_111377" result="shape"/></filter><filter id="let1cj5ir" width="61.33" height="63.66" x="417.36" y="146.94" color-interpolation-filters="sRGB" filterUnits="userSpaceOnUse"><feFlood flood-opacity="0" result="BackgroundImageFix"/><feColorMatrix in="SourceAlpha" result="hardAlpha" values="0 0 0 0 0 0 0 0 0 0 0 0 0 0 0 0 0 0 127 0"/><feOffset/><feGaussianBlur stdDeviation="10.87"/><feComposite in2="hardAlpha" operator="out"/><feColorMatrix values="0 0 0 0 0.384314 0 0 0 0 0 0 0 0 0 0.917647 0 0 0 1 0"/><feBlend in2="BackgroundImageFix" result="effect1_dropShadow_15650_111377"/><feBlend in="SourceGraphic" in2="effect1_dropShadow_15650_111377" result="shape"/></filter><filter id="met1cj5ir" width="61.33" height="63.66" x="572.63" y="97.25" color-interpolation-filters="sRGB" filterUnits="userSpaceOnUse"><feFlood flood-opacity="0" result="BackgroundImageFix"/><feColorMatrix in="SourceAlpha" result="hardAlpha" values="0 0 0 0 0 0 0 0 0 0 0 0 0 0 0 0 0 0 127 0"/><feOffset/><feGaussianBlur stdDeviation="10.87"/><feComposite in2="hardAlpha" operator="out"/><feColorMatrix values="0 0 0 0 1 0 0 0 0 0.596078 0 0 0 0 0 0 0 0 1 0"/><feBlend in2="BackgroundImageFix" result="effect1_dropShadow_15650_111377"/><feBlend in="SourceGraphic" in2="effect1_dropShadow_15650_111377" result="shape"/></filter><linearGradient id="cet1cj5ir" x1="543.03" x2="543.03" y1="-1.14" y2="299.35" gradientUnits="userSpaceOnUse"><stop stop-color="#00e5ff"/><stop offset="1" stop-color="#00e5ff" stop-opacity="0"/></linearGradient><linearGradient id="net1cj5ir" x1="735" x2="878" y1="664.5" y2="664.5" gradientUnits="userSpaceOnUse"><stop stop-opacity="0"/><stop offset="1"/></linearGradient><clipPath id="aet1cj5ir"><path fill="#fff" d="M0 0h735v440H0z"/></clipPath></defs></svg>