<svg xmlns="http://www.w3.org/2000/svg" width="200" height="60" viewBox="0 0 200 60"><path fill="#06C755" d="M69.32 19h-3.2q-.36 0-.62.27a1 1 0 0 0-.26.63v20.2q.01.37.26.64.27.25.63.26h3.19a1 1 0 0 0 .63-.26 1 1 0 0 0 .26-.64V19.9q-.01-.36-.26-.63a1 1 0 0 0-.62-.27m21.93 0h-3.18q-.37 0-.63.27a1 1 0 0 0-.26.63v12l-9.08-12.5-.07-.09-.05-.05-.02-.02-.05-.04-.02-.02-.05-.03-.02-.02-.05-.02h-.03l-.05-.03h-.03l-.05-.02H74.2q-.36 0-.63.27a1 1 0 0 0-.25.64v20.12q0 .37.25.64.27.25.63.26h3.19q.36-.01.63-.26.25-.27.26-.64V28.1l9.08 12.52q.1.12.23.22l.05.03h.03l.04.02.04.02h.03l.06.02q.11.03.23.03h3.19q.36 0 .62-.26.26-.27.27-.64V19.9q-.01-.37-.26-.63a1 1 0 0 0-.63-.27M61.63 35.94h-8.67V19.9q-.01-.37-.26-.64a1 1 0 0 0-.62-.26h-3.2q-.35.01-.62.26a1 1 0 0 0-.26.64v20.2q.01.36.25.62.25.24.61.25H61.6q.37 0 .64-.24a1 1 0 0 0 .27-.63v-3.25a1 1 0 0 0-.26-.64 1 1 0 0 0-.62-.26m47.25-11.89q.36 0 .62-.27a1 1 0 0 0 .26-.63V19.9q-.01-.36-.26-.63a1 1 0 0 0-.62-.27H96.14q-.36.01-.62.25v.02a1 1 0 0 0-.24.62v20.2q0 .36.24.62.26.24.61.25h12.74q.37-.01.63-.26.26-.27.26-.64v-3.25a1 1 0 0 0-.26-.64 1 1 0 0 0-.63-.26h-8.66v-3.42h8.66q.37-.01.63-.26.26-.27.26-.64v-3.25q-.01-.37-.26-.64a1 1 0 0 0-.63-.26h-8.66v-3.42z"/><path fill="#555" d="M131.58 22.36h-8.7v6.13h8.38v3.22h-8.38V41h-3.77V19h12.47zm9.7 1.94c.6.93 1.04 1.7 1.52 2.54h.1c.5-.93.95-1.71 1.51-2.61l3.3-5.23h3.97l-6.99 10.52L152 41h-4.2l-3.4-5.58c-.6-.97-1.17-2-1.73-2.97h-.06l-1.8 3.03-3.33 5.52h-4.01l7.25-11.36-7-10.64h4.24z"/></svg>