<svg xmlns="http://www.w3.org/2000/svg" width="620" height="468" viewBox="0 0 620 468"><path d="M0 0h620v468H0z"/><g fill="#2962FF" filter="url(#arsbk40sa)"><path d="M189.43 57.5a1 1 0 0 1 1.02.7l11.5 36.5.03.1.02.11 11.4 132.96 10.47-1.36.1-.01a1 1 0 0 1 1.02.9l10.8 98.03 10.23-51.62.02-.09a1 1 0 0 1 1.93.05l11.47 48.85 10.2 17.32 10.9-40.7.04-.12a1 1 0 0 1 .67-.59l11.5-3 .1-.02a1 1 0 0 1 1.12.75l10.97 43.88 11.95 22.9.04.1.04.11 10.56 41.34 10.5-38.35.04-.1.04-.1 11.5-22 .09-.14a1 1 0 0 1 1.78.41l11.1 58.37 10.5-13.12 10.94-51.27.03-.1 11.5-34.5.05-.13a1 1 0 0 1 1.62-.25l10.55 11 11.35-21.28.05-.1.07-.08 11-13 .1-.1a1 1 0 0 1 1.63.52l10.57 44.57 10.5-40.59.05-.16a1 1 0 0 1 1.88.15l10.79 40.36 10.34-22.03.07-.13a1 1 0 0 1 .95-.43l11.28 1.4 11.63-25.18L511 183.88l.01-.08a1 1 0 0 1 1.95-.06l11.27 41.66 11.14-1.4h.15a1 1 0 0 1 .45.12l11 6 .12.08a1 1 0 0 1 .28.33l11.5 21.5.04.09.04.09 11.3 37.22 10.36-18.91 1.76.96-11.5 21a1 1 0 0 1-1.84-.19l-11.97-39.4-11.31-21.16-10.46-5.7-11.68 1.46a1 1 0 0 1-1.09-.73l-10.14-37.48-10.4 89.34a1 1 0 0 1-.08.3l-12 26a1 1 0 0 1-1.03.57l-11.28-1.4-11.2 23.84a1 1 0 0 1-1.87-.17l-10.51-39.33-10.55 40.82a1 1 0 0 1-1.94-.02l-11.05-46.57-9.65 11.4-11.95 22.41a1 1 0 0 1-1.6.22l-10.36-10.8-10.95 32.87-11 51.45a1 1 0 0 1-.19.42l-12 15a1 1 0 0 1-1.76-.44l-10.97-57.68-10.11 19.35-11.48 41.9a1 1 0 0 1-1.93-.01l-11.47-44.89-11.95-22.9-.08-.22-10.76-43.02-9.95 2.6-11.35 42.44a1 1 0 0 1-1.83.25l-11.5-19.5-.07-.14-.04-.14-10.45-44.5-10.6 53.46a1 1 0 0 1-1.97-.08l-11.4-103.49-10.48 1.37a1 1 0 0 1-1.13-.9l-11.49-133.9-10.23-32.47-10.8 61.95v.03l-11 54a1 1 0 0 1-1.1.8l-12.5-1.5a1 1 0 0 1-.75-.51l-10.6-18.9-10.64 20.37a1 1 0 0 1-1.67.16l-10.58-13.33-10.68 19.04L98 261.65l-.02.09-.03.09-11.5 33a1 1 0 0 1-.8.66l-10.62 1.45-11.25 13.7a1 1 0 0 1-1.17.28l-11.36-4.94-12.36-1.49.24-1.98 12.5 1.5.14.03q.08 0 .14.04l10.8 4.7 11.03-13.41.06-.07a1 1 0 0 1 .58-.3l10.39-1.4 11.26-32.34 11.5-76.9v-.1l.1-.25 11.5-20.5.07-.1a1 1 0 0 1 1.6-.03l10.54 13.3 10.78-20.64.07-.12a1 1 0 0 1 1.7.1l11.24 20.05 11.08 1.33 10.81-53.07 11.5-66 .05-.17a1 1 0 0 1 .87-.66"/><path d="M43 304a4 4 0 1 1-8 0 4 4 0 0 1 8 0M55 305a4 4 0 1 1-8 0 4 4 0 0 1 8 0M66 309a4 4 0 1 1-8 0 4 4 0 0 1 8 0M78 297a4 4 0 1 1-8 0 4 4 0 0 1 8 0M90 295a4 4 0 1 1-8 0 4 4 0 0 1 8 0M101 262a4 4 0 1 1-8 0 4 4 0 0 1 8 0M113 184a4 4 0 1 1-8 0 4 4 0 0 1 8 0M124 165a4 4 0 1 1-8 0 4 4 0 0 1 8 0M136 178a4 4 0 1 1-8 0 4 4 0 0 1 8 0M147 157a4 4 0 1 1-8 0 4 4 0 0 1 8 0M159 176a4 4 0 1 1-8 0 4 4 0 0 1 8 0M171 179a4 4 0 1 1-8 0 4 4 0 0 1 8 0M182 125a4 4 0 1 1-8 0 4 4 0 0 1 8 0M194 59a4 4 0 1 1-8 0 4 4 0 0 1 8 0M205 94a4 4 0 1 1-8 0 4 4 0 0 1 8 0M217 229a4 4 0 1 1-8 0 4 4 0 0 1 8 0M228 228a4 4 0 1 1-8 0 4 4 0 0 1 8 0M240 331a4 4 0 1 1-8 0 4 4 0 0 1 8 0M251 275a4 4 0 1 1-8 0 4 4 0 0 1 8 0M263 323a4 4 0 1 1-8 0 4 4 0 0 1 8 0M274 342a4 4 0 1 1-8 0 4 4 0 0 1 8 0M286 299a4 4 0 1 1-8 0 4 4 0 0 1 8 0M297 297a4 4 0 1 1-8 0 4 4 0 0 1 8 0M308 340a4 4 0 1 1-8 0 4 4 0 0 1 8 0M320 363a4 4 0 1 1-8 0 4 4 0 0 1 8 0M331 408a4 4 0 1 1-8 0 4 4 0 0 1 8 0M343 367a4 4 0 1 1-8 0 4 4 0 0 1 8 0M354 346a4 4 0 1 1-8 0 4 4 0 0 1 8 0M366 404a4 4 0 1 1-8 0 4 4 0 0 1 8 0M378 390a4 4 0 1 1-8 0 4 4 0 0 1 8 0M389 339a4 4 0 1 1-8 0 4 4 0 0 1 8 0M401 305a4 4 0 1 1-8 0 4 4 0 0 1 8 0M412 315a4 4 0 1 1-8 0 4 4 0 0 1 8 0M424 294a4 4 0 1 1-8 0 4 4 0 0 1 8 0M435 281a4 4 0 1 1-8 0 4 4 0 0 1 8 0M446 329a4 4 0 1 1-8 0 4 4 0 0 1 8 0M458 286a4 4 0 1 1-8 0 4 4 0 0 1 8 0M470 327a4 4 0 1 1-8 0 4 4 0 0 1 8 0M481 303a4 4 0 1 1-8 0 4 4 0 0 1 8 0M493 304a4 4 0 1 1-8 0 4 4 0 0 1 8 0M505 279a4 4 0 1 1-8 0 4 4 0 0 1 8 0M516 185a4 4 0 1 1-8 0 4 4 0 0 1 8 0M528 226a4 4 0 1 1-8 0 4 4 0 0 1 8 0M539 225a4 4 0 1 1-8 0 4 4 0 0 1 8 0M550 231a4 4 0 1 1-8 0 4 4 0 0 1 8 0M562 252a4 4 0 1 1-8 0 4 4 0 0 1 8 0M574 291a4 4 0 1 1-8 0 4 4 0 0 1 8 0M585 272a4 4 0 1 1-8 0 4 4 0 0 1 8 0"/></g><defs><filter id="arsbk40sa" width="566" height="373" x="27" y="47" color-interpolation-filters="sRGB" filterUnits="userSpaceOnUse"><feFlood result="BackgroundImageFix"/><feColorMatrix in="SourceAlpha" result="hardAlpha"/><feGaussianBlur stdDeviation="4"/><feColorMatrix values="0 0 0 0 0.160784 0 0 0 0 0.384314 0 0 0 0 1 0 0 0 1 0"/><feBlend in="SourceGraphic"/></filter></defs></svg>