<svg xmlns="http://www.w3.org/2000/svg" width="132" height="60" viewBox="0 0 132 60"><path fill="#06C755" d="M39.45 21h-2.76q-.31 0-.55.22a.7.7 0 0 0-.22.52v16.51q0 .31.22.53.23.2.55.21h2.76a.8.8 0 0 0 .54-.21.7.7 0 0 0 .23-.53V21.74q0-.3-.22-.52a.8.8 0 0 0-.55-.22m18.99 0h-2.76q-.32 0-.54.22a.7.7 0 0 0-.22.52v9.81l-7.86-10.22-.06-.08-.05-.04-.01-.01-.04-.04-.02-.01-.04-.03-.03-.01-.04-.02h-.02l-.05-.02h-.02l-.05-.02h-2.97q-.31 0-.54.22a.7.7 0 0 0-.22.52v16.46q0 .31.22.53.23.2.54.21h2.76q.31 0 .55-.21a.7.7 0 0 0 .22-.53v-9.8l7.87 10.24q.08.1.2.18l.04.03h.02l.04.01.03.02h.03l.05.02.2.02h2.76q.32 0 .54-.21a.7.7 0 0 0 .22-.53V21.74q0-.3-.22-.52a.8.8 0 0 0-.54-.22M32.8 34.86h-7.5V21.74q-.01-.31-.23-.52a.8.8 0 0 0-.54-.22h-2.76q-.31 0-.54.22a.7.7 0 0 0-.23.52v16.51q0 .3.22.51t.52.21h11.03q.31 0 .55-.2a.7.7 0 0 0 .24-.52V35.6a.7.7 0 0 0-.22-.52.8.8 0 0 0-.55-.21m40.89-9.73q.31 0 .54-.22a.7.7 0 0 0 .23-.52v-2.66q0-.3-.23-.52a.8.8 0 0 0-.54-.22H62.66q-.32.01-.53.2v.02a.7.7 0 0 0-.22.51v16.52q0 .3.22.51t.52.21h11.03q.31 0 .54-.22a.7.7 0 0 0 .22-.52v-2.66q0-.3-.22-.52a.8.8 0 0 0-.54-.22h-7.5v-2.79h7.5q.31 0 .54-.22a.7.7 0 0 0 .22-.52v-2.66q0-.3-.22-.52a.8.8 0 0 0-.54-.22h-7.5v-2.8z"/><path fill="#555" d="M93.33 23.75H85.8v5.01h7.26v2.64H85.8V39h-3.26V21h10.79zm8.4 1.58c.52.76.9 1.4 1.31 2.08h.08c.44-.76.82-1.4 1.31-2.13l2.85-4.28h3.45l-6.06 8.6L111 39h-3.63l-2.94-4.57c-.52-.79-1.02-1.63-1.5-2.42h-.06l-1.56 2.48L98.43 39h-3.47l6.27-9.3-6.05-8.7h3.67z"/></svg>