<svg width="50" height="20" viewBox="0 0 50 20" xmlns="http://www.w3.org/2000/svg"><path d="m49.43 0-7.54 18h-41l7.5-18ZM19.39 7.58c0-1.55-1.2-2.74-2.86-2.74H13.8V13h1.67v-2.67h1.05c1.65 0 2.86-1.2 2.86-2.75m-1.62 0c0 .67-.5 1.19-1.27 1.19h-1.02V6.4h1.02c.76 0 1.27.52 1.27 1.18m3.64-2.74V13h1.67V9.56h.41L26.3 13h2l-2.92-3.62c1.08-.35 1.68-1.04 1.68-2.13 0-1.36-.98-2.41-2.51-2.41zm2.93 3.3h-1.26V6.36h1.26c.62 0 1.05.33 1.05.89 0 .55-.43.89-1.05.89m8.89 5c2.34 0 4.22-1.89 4.22-4.22S35.56 4.7 33.23 4.7s-4.22 1.88-4.22 4.22 1.89 4.22 4.22 4.22m0-1.61c-1.43 0-2.54-1.19-2.54-2.61 0-1.43 1.11-2.61 2.54-2.61s2.54 1.18 2.54 2.6-1.11 2.62-2.54 2.62z" fill="currentColor"/></svg>