<svg width="120" height="120" fill="none" xmlns="http://www.w3.org/2000/svg"><g clip-path="url(#clip0_6095_39677)" fill="#D1D4DC"><path d="M51 65V54H40v-4h11V39h4v11h11v4H55v11h-4z"/><path fill-rule="evenodd" clip-rule="evenodd" d="M52.5 88c9.083 0 17.37-3.412 23.648-9.023l22.438 22.437 2.828-2.828-22.437-22.438A35.368 35.368 0 0088 52.5C88 32.894 72.106 17 52.5 17S17 32.894 17 52.5 32.894 88 52.5 88zm0-4C69.897 84 84 69.897 84 52.5S69.897 21 52.5 21 21 35.103 21 52.5 35.103 84 52.5 84z"/></g><defs><clipPath id="clip0_6095_39677"><path fill="#fff" d="M0 0h120v120H0z"/></clipPath></defs></svg>