<svg width="120" height="120" viewBox="0 0 120 120" fill="#DBDBDB" xmlns="http://www.w3.org/2000/svg"><path d="M34.5 60a7.5 7.5 0 1 0 0-15 7.5 7.5 0 0 0 0 15Zm3.5-7.5a3.5 3.5 0 1 1-7 0 3.5 3.5 0 0 1 7 0ZM52.5 60a7.5 7.5 0 1 0 0-15 7.5 7.5 0 0 0 0 15Zm3.5-7.5a3.5 3.5 0 1 1-7 0 3.5 3.5 0 0 1 7 0ZM78 52.5a7.5 7.5 0 1 1-15 0 7.5 7.5 0 0 1 15 0ZM70.5 56a3.5 3.5 0 1 0 0-7 3.5 3.5 0 0 0 0 7Z"/><path fill-rule="evenodd" d="M52.5 88c9.08 0 17.37-3.41 23.65-9.02l22.44 22.43 2.82-2.82-22.43-22.44A35.5 35.5 0 1 0 52.5 88Zm0-4a31.5 31.5 0 1 0 0-63 31.5 31.5 0 0 0 0 63Z"/></svg>