<svg width="200" height="80" viewBox="0 0 200 80" fill="none" xmlns="http://www.w3.org/2000/svg"><path d="M57.95 35.46h.83v.1h-.83v-.1Zm.31.92.57-.39.06.09-.57.38-.06-.08Zm-.26-2 .8.44-.05.09-.79-.45.05-.08Zm.65-.76.45.47-.07.07-.45-.47.07-.07Zm2.75 1.84h-.83v.1h.83v-.1Zm-.31.92-.57-.39-.06.09.57.38.06-.08Zm-.06-2-.79.44.05.09.8-.45-.06-.08Zm-.52-.76-.44.47.07.07.45-.47-.08-.07Zm-.91-.46v-.8h.1v.8h-.1ZM47.24 53.37l-.77.8-.45-.43.77-.8-.7-.66.44-.46.69.66.83-.87.45.43-.83.87 1.9 1.82-.43.45-1.9-1.81Zm24.87 0 .77.8.45-.42-.76-.8.69-.67-.43-.45-.7.66-.83-.87-.45.43.84.87-1.9 1.81.42.45 1.9-1.8Z" fill="#367ECE"/><path d="M60.35 50.4v-3.28M58.9 50.4v-3.28m1.54-4.85V37.7c-.78.1-1.47-.92-1.47-.92v5.49" stroke="#367ECE" stroke-width=".36"/><path d="M61.07 53.96v-6.34m-2.81 6.34v-6.34m0-5.43v-5.44h-7v-2.74h6.99v-5.77h3v5.77h7v2.74h-7v5.44" stroke="#367ECE" stroke-width=".5"/><path d="M59.7 46.42v-3.87c-.25-.23-1.01-.58-2.1-.2a4.06 4.06 0 0 1-1.98.3l-2.41 3.5.11-.06m6.38.33v-3.87c.23-.23 1.05-.58 2.09-.2 1.04.38 1.84.35 2.04.3l2.32 3.5-.17-.03" stroke="#367ECE" stroke-width=".18"/><path d="M57.24 45.31h-.08v-.06h.09v.06Zm-.17 0h-.09v-.06h.09v.06Zm.35.02a4 4 0 0 0-.09-.01v-.06h.1l-.01.07Zm-.53-.01h-.08l-.01-.06h.09v.06Zm-.17.01-.09.01v-.06h.08v.05Zm.88.02-.1-.02.02-.06.08.01v.07Zm-1.05 0-.1.01v-.06h.09v.05Zm1.22.03-.09-.02.01-.06.1.01-.02.07Zm-1.4 0h-.08l-.01-.05.08-.02.01.07Zm1.57.03-.09-.02.02-.06.09.02-.02.06Zm-1.74 0h-.09v-.05l.08-.02.01.06Zm-.17.02-.09.02-.01-.06.09-.02v.06Zm2.08.03a3.2 3.2 0 0 0-.08-.02l.01-.06.09.02-.02.06Zm-2.25 0-.09.02-.01-.06.08-.02.02.07Zm2.42.06a3.32 3.32 0 0 0-.09-.03l.02-.06.09.03-.02.06Zm-2.6-.02-.08.02-.01-.06.08-.02.01.06Zm-.17.04-.08.02-.02-.06.09-.02.01.06Zm2.93.05a2.73 2.73 0 0 0-.08-.04l.02-.06.08.04-.02.06Zm-3.1-.01-.08.02-.02-.06.09-.02.01.06Zm-.17.04-.08.02-.02-.06.09-.02.01.06Zm3.43.04a3.04 3.04 0 0 0-.08-.04l.02-.05.09.04-.03.05Zm-3.6 0-.08.02-.02-.06.09-.02.01.06Zm-.16.05-.09.02-.02-.06.09-.02.02.06Zm3.91.04a3 3 0 0 0-.08-.05l.03-.05.08.04-.03.06Zm-4.08 0-.09.03-.01-.06.08-.03.02.06Zm4.23.1a2.68 2.68 0 0 0-.07-.06l.03-.05.07.05-.03.05Zm-4.4-.05-.09.03-.01-.06.08-.03.02.06Zm-.17.05-.08.02-.02-.05.08-.03.02.06Zm-.17.05-.08.03-.02-.06.09-.03.01.06Zm4.88.04a2.3 2.3 0 0 0-.07-.05l.04-.05.07.06-.04.04Zm-5.04.01-.09.03-.02-.06.09-.03.02.06Zm-.17.05-.08.03-.02-.06.08-.03.02.06Zm5.34.06a2.01 2.01 0 0 0-.06-.06l.04-.05.07.06-.05.05Zm-5.5 0-.05.01-.04.01-.02-.05.04-.02.04-.01.02.06Zm-.18.05-.08.04-.02-.06.08-.03.02.05Zm5.78.04a1.7 1.7 0 0 0-.03-.03l.04-.05.03.04-.04.04Zm-5.95.03-.04.01-.02-.06.04-.01.02.06Zm8.52-.91h.08v-.07h-.08v.07Zm-.18 0h.09v-.07h-.1l.01.07Zm.35 0h.09v-.05h-.04L62 45.2v.06Zm-.52.02.08-.01v-.06h-.1l.02.07Zm.7 0h.09v-.06h-.09v.06Zm-.88.03.09-.02-.01-.06-.09.01.01.07Zm1.05-.01h.1v-.05l-.09-.02v.07Zm.18.02.09.01v-.06l-.08-.01v.06Zm-1.4.02.09-.02-.02-.06-.08.02.01.06Zm1.58 0 .09.02v-.06l-.08-.02-.01.07Zm-1.74.06.08-.03-.02-.06c-.03 0-.06.02-.08.03l.02.06Zm1.92-.02.08.01.01-.06-.08-.02-.01.07Zm.17.03.09.02.01-.07-.09-.01v.06Zm-2.26.05.08-.04-.02-.05c-.03 0-.05.02-.08.03l.02.06Zm2.44-.02.08.02.02-.06-.1-.02v.06Zm.17.04.09.02.01-.06-.08-.02-.02.06Zm-2.77.05.08-.04-.02-.06-.08.04.02.06Zm2.95-.01.08.02.02-.06-.09-.02-.01.06Zm.17.04.09.02.01-.06-.08-.02-.02.06Zm-3.27.05.07-.04-.02-.06a2.9 2.9 0 0 0-.08.05l.03.05Zm3.45-.01.08.02.02-.06-.09-.02-.01.06Zm.17.04.09.02.01-.06-.08-.02-.02.06Zm-3.77.06.07-.05-.03-.05-.08.05.04.05Zm3.94-.01.1.02v-.06l-.08-.02-.02.06Zm.18.04.08.02.02-.06-.09-.02-.01.06Zm-4.27.07.08-.05-.04-.05-.07.05.03.05Zm4.44-.02.09.02.01-.06-.08-.02-.02.06Zm.17.05.09.02.02-.06-.09-.02-.02.06Zm-4.74.08.06-.06-.03-.05-.07.06.04.05Zm4.92-.04.08.03.02-.06-.09-.03-.01.06Zm.17.05.08.03.02-.06-.08-.03-.02.06Zm.17.06.09.02.01-.06-.08-.02-.02.06Zm-5.4.04.07-.06-.04-.04-.07.06.04.04Zm5.57 0 .09.03.02-.06-.09-.02-.02.06Zm.17.06.09.03.02-.06-.09-.03-.02.06Zm-5.86.06.06-.06-.04-.04-.07.06.05.04Zm6.03 0h.05l.02-.05-.05-.01-.02.05Zm-6.13.1.03-.03-.04-.05-.03.03.04.05Zm-2.63-3.42c.6-.1 1.36-.04 1.66 0v.06a7.15 7.15 0 0 0-1.65 0v-.06Zm-.74.1.44-.05.01.07-.44.05-.01-.06Zm2.6-.05.25.06-.01.06-.26-.05.01-.07Zm-3.15.24.35-.07v.06l-.34.07-.01-.06Zm1.04.62a9.3 9.3 0 0 1 1.92 0v.06a9.62 9.62 0 0 0-1.91 0v-.06Zm-.86.11.52-.05v.06l-.52.05v-.06Zm3-.05.3.05-.01.06-.3-.05.01-.06Zm-3.64.23.4-.07.01.06-.4.08-.01-.07Zm3.31.29c-.37-.04-1.3-.1-2.02 0v.06c.73-.09 1.65-.04 2.01 0l.01-.06Zm-2.39.05-.54.06v.06l.55-.05v-.07Zm2.94.06-.32-.06v.07l.3.05.02-.06Zm-3.73.1-.42.08v.06l.43-.07v-.06Zm1.7.26.78.01v.06h-.78v-.07Zm-.9.05.5-.04v.06l-.5.04v-.06Zm-1.02.1.6-.04.01.06-.6.05-.01-.06Zm3.55-.04.36.05-.01.06-.36-.05.01-.06Zm-4.31.23.48-.07v.06l-.47.07-.01-.06Zm3.46-1.82a2.14 2.14 0 0 0-.39-.02c-.13 0-.3.03-.6.07v.06l.6-.07c.14 0 .23 0 .38.02l.01-.06Zm-1.3.1-.51.06v.06l.52-.05v-.06Zm2.62.06-.26-.05-.01.06.25.05.02-.06Zm-3.31.06-.35.05v.06l.36-.05-.01-.06Zm6.27-.67a7.21 7.21 0 0 0-1.66 0v.06c.3-.04 1.06-.09 1.65 0v-.06Zm.74.1-.45-.05v.07l.44.05.01-.06Zm-2.6-.04-.25.05.01.06.26-.05-.01-.06Zm3.15.23-.35-.07v.06l.34.07.01-.06Zm-1.04.62a9.69 9.69 0 0 0-1.92 0v.06a9.63 9.63 0 0 1 1.9 0l.02-.06Zm.86.11-.52-.05v.06l.51.05.01-.06Zm-3-.05-.3.05.01.06.3-.05-.01-.06Zm3.64.24-.4-.08-.01.06.4.08.01-.06Zm-3.31.28c.37-.04 1.3-.1 2.02 0v.06c-.73-.09-1.65-.04-2.01 0l-.01-.06Zm2.39.05.54.06v.06l-.55-.05v-.07Zm-2.94.06.32-.05v.06l-.3.05-.02-.06Zm3.73.1.42.08v.06l-.43-.07v-.06Zm-1.7.26-.78.01v.07l.78-.02v-.06Zm.9.05a8.12 8.12 0 0 0-.5-.04v.06l.5.04v-.06Zm1.02.1-.6-.04-.01.06.6.05.01-.06Zm-3.55-.04-.36.05.01.06.35-.05v-.06Zm4.31.23-.48-.07v.06l.47.07.01-.06Zm-3.46-1.82c.15-.02.25-.03.38-.02.14 0 .31.03.6.07v.06l-.6-.07c-.13 0-.22 0-.38.02v-.06Zm1.3.1.51.06v.06l-.52-.05v-.06Zm-2.62.06.26-.05.01.06-.25.05-.02-.06Zm3.31.06.35.05v.06l-.36-.05.01-.06Z" fill="#367ECE"/><path d="m58.7 43.38-.27-.04" stroke="#367ECE" stroke-width=".04"/><path d="m55.15 43.02.02-.04.05.04-.02.03-.05-.03Zm-.1.14.05-.07.05.04-.05.07-.05-.04Zm-.1.15.04-.08.05.04-.05.07-.05-.03Zm-.11.14.05-.07.05.03-.05.08-.05-.04Zm-.1.15.05-.08.05.04-.05.07-.05-.03Zm-.1.14.05-.07.05.03-.05.08-.05-.04Zm-.1.15.04-.08.05.04-.05.07-.05-.03Zm-.11.14.05-.07.05.03-.05.08-.05-.04Zm-.1.15.05-.08.05.04-.05.07-.05-.03Zm-.1.14.05-.07.05.03-.05.08-.06-.04Zm-.1.15.04-.08.05.04-.05.07-.05-.03Zm-.11.14.05-.07.05.03-.05.08-.05-.04Zm-.1.15.05-.08.05.04-.05.07-.05-.03Zm-.1.14.05-.07.05.03-.05.08-.06-.04Zm-.1.15.04-.08.05.04-.05.07-.05-.03Zm-.11.14.05-.07.05.03-.05.08-.05-.04Zm-.1.15.05-.08.05.04-.05.07-.05-.03Zm-.1.14.05-.07.05.03-.06.08-.05-.04Zm-.1.14.04-.07.05.04-.05.07-.05-.04Zm4.09.02h-.09v-.06h.09v.06Zm.17 0h-.08v-.06h.09v.07Zm-.34 0-.05.01h-.04v-.06h.08v.06Zm.52.02h-.09v-.07l.1.01-.01.06Zm-.7 0-.1.02v-.07h.1v.05Zm.87.03-.09-.02.01-.06.09.01-.01.07Zm-1.05 0-.09.01v-.06l.08-.01.01.06Zm1.22.03L58 45.7l.02-.06.08.02-.01.06Zm-1.4 0h-.09v-.05l.08-.02.01.06Zm1.57.04-.09-.02.02-.06.08.02-.01.06Zm-1.75-.02-.09.02v-.06l.08-.02.01.06Zm-3.31.03.05-.07.05.03-.05.08-.05-.04Zm3.14 0-.1.03v-.06l.08-.02.02.06Zm2.08.04-.08-.02.02-.06c.03 0 .06.02.08.03l-.02.05Zm-2.26 0-.09.02-.01-.06.09-.02v.06Zm2.43.06a3.35 3.35 0 0 0-.08-.03l.02-.06.08.04-.02.05Zm-2.6-.02-.1.02-.01-.06.09-.02.01.06Zm-.19.04-.08.02-.02-.06.09-.02.01.06Zm-2.7.02.05-.07.05.04-.05.07-.05-.04Zm5.65.03a3.9 3.9 0 0 0-.08-.03l.02-.06.08.04-.02.05Zm-3.12 0-.09.01-.01-.06.08-.02.02.06Zm-.18.03-.09.02-.01-.06.09-.02.01.06Zm3.45.05a3.76 3.76 0 0 0-.07-.04l.02-.06.08.04-.03.06Zm-3.62 0-.1.02v-.06l.08-.03.02.07Zm-2.29.04.05-.07.06.03-.06.08-.05-.04Zm2.1 0-.08.02-.01-.06.08-.02.02.06Zm3.97.04a3.36 3.36 0 0 0-.08-.04l.03-.06.08.05-.03.05Zm-4.14 0-.09.02-.01-.06.09-.02.01.06Zm-.17.04-.1.02v-.06l.08-.02.02.06Zm4.46.05a3.5 3.5 0 0 0-.08-.04l.03-.06.08.05-.03.05Zm-4.64 0-.09.02-.01-.06.09-.03.01.06Zm-1.68.01.05-.07.05.04-.05.07-.05-.04Zm1.5.03-.08.02-.02-.06.09-.02.01.06Zm4.96.06a3.21 3.21 0 0 0-.07-.05l.03-.05.08.05-.04.05Zm-5.13-.02-.1.02v-.06l.08-.02.02.06Zm-.18.04-.09.02-.01-.06.09-.02.01.06Zm-1.25.04.05-.07.05.03-.05.08-.05-.04Zm1.07 0-.09.01v-.06l.08-.01.01.06Zm5.63.05a3.5 3.5 0 0 0-.07-.06l.04-.05.07.06-.04.05Zm-5.8-.02-.1.02v-.06l.08-.02.01.06Zm-.18.04-.1.01v-.06l.09-.01v.06Zm-.18.03-.1.01v-.06l.09-.01v.06Zm6.29.06a2.55 2.55 0 0 0-.07-.06l.04-.04.07.06-.04.04Zm-6.47-.03h-.1v-.06h.09v.06Zm-.41-.06.03.02h.01v.07h-.1l.06-.09Zm.23.08h-.1v-.06h.09v.06Zm6.74.1-.03-.03.04-.04c.02 0 .03.02.04.03l-.05.04Zm-4.91-3.5.03-.03.05.04-.03.03-.05-.03Zm-.1.15.05-.07.05.04-.05.07-.05-.04Zm-.1.14.05-.07.05.04-.06.07-.05-.04Zm-.1.14.04-.07.05.04-.05.07-.05-.04Zm-.11.15.05-.08.05.04-.05.07-.05-.03Zm-.1.14.04-.07.06.03-.06.07-.05-.03Zm-.11.14.05-.07.05.04-.05.07-.05-.04Zm-.1.14.05-.07.05.04-.05.07-.05-.04Zm-.1.14.04-.07.05.04-.05.07-.05-.04Zm-.11.15.05-.08.05.04-.05.07-.05-.03Zm-.1.14.05-.07.05.03-.06.07-.05-.03Zm-.11.14.05-.07.05.04-.05.07-.05-.04Zm-.1.14.05-.07.05.04-.05.07-.05-.04Zm-.1.14.04-.07.05.04-.05.07-.05-.04Zm-.11.15.05-.08.05.04-.05.07-.05-.03Zm-.1.14.05-.07.05.03-.06.07-.05-.03Zm-.11.14.05-.07.05.04-.05.07-.05-.04Zm-.1.14.05-.07.05.04-.05.07-.05-.04Zm-.1.14.04-.07.05.04-.05.07-.05-.04Zm-.11.15.05-.08.05.04-.05.07-.05-.03Zm-.1.14.05-.07.05.03-.05.07-.06-.03Zm4.09 0h-.1v-.06h.1v.06Zm.17 0h-.09v-.06h.1l-.01.06Zm-.35 0h-.04l-.05.01v-.06h.09v.06Zm.52.02-.08-.01v-.06h.09v.07Zm-.7 0-.09.01v-.06l.09-.01v.06Zm.87.02-.08-.01v-.06l.1.01-.02.06Zm-1.04 0-.1.02v-.06l.09-.02V46Zm1.22.04-.09-.02.01-.06c.03 0 .06 0 .09.02l-.01.06Zm-1.4 0H56v-.06l.09-.01v.06Zm1.56.04-.08-.02.01-.06.1.02-.03.06Zm-1.74-.02-.09.02-.01-.06.09-.02v.06Zm-3.3.04.04-.07.05.04-.05.07-.05-.04Zm3.12 0-.09.01-.01-.06.09-.02.01.07Zm2.09.03c-.03 0-.06-.02-.08-.03l.02-.06.08.03-.02.06Zm-2.27 0-.08.02-.02-.06.1-.02v.06Zm2.43.06a3.53 3.53 0 0 0-.08-.03l.02-.06.09.03-.03.06Zm-2.6-.02-.1.02v-.06l.08-.02.02.06Zm-.18.04-.09.02-.01-.06.09-.02.01.06Zm2.94.05a3.41 3.41 0 0 0-.08-.04l.03-.05c.03 0 .05.02.08.03l-.03.06Zm-5.64-.02.05-.07.05.04-.05.07-.05-.04Zm2.52 0-.08.03-.02-.06.09-.02.01.06Zm-.17.05-.1.02v-.06l.08-.02.02.06Zm3.45.05a3.32 3.32 0 0 0-.08-.04l.03-.06.08.04-.03.06Zm-3.63 0-.09.01-.01-.06.09-.02.01.06Zm-2.28.04.06-.07.05.04-.06.07-.05-.04Zm2.1 0-.08.02-.02-.06.09-.03.01.06Zm3.96.04a3.8 3.8 0 0 0-.07-.04l.03-.06.07.05-.03.05Zm-4.13 0-.09.02-.01-.06.08-.02.02.06Zm-.18.04-.09.02-.01-.06.09-.02.01.06Zm4.46.05a3.5 3.5 0 0 0-.07-.05l.03-.05.07.05-.03.05Zm-4.63 0-.1.01v-.06l.08-.02.02.06Zm-1.68.02.05-.08.05.04-.05.07-.05-.03Zm1.5.01-.09.02-.01-.06.09-.02.01.06Zm4.95.07a3.22 3.22 0 0 0-.07-.05l.04-.05.07.05-.04.05Zm-5.13-.03-.09.02v-.06l.08-.02.01.06Zm-.17.04-.1.02v-.06l.08-.02.02.06Zm-1.25.05.05-.07.05.03-.05.07-.05-.03Zm1.07 0-.1.01v-.06l.09-.02v.06Zm5.62.04a3.16 3.16 0 0 0-.07-.05l.04-.05.07.06-.04.04Zm-5.8-.01-.09.02-.01-.06.09-.02.01.06Zm-.18.03-.09.02v-.06l.08-.02.01.06Zm-.18.04-.09.01v-.06l.08-.02.01.07Zm6.3.06a2.54 2.54 0 0 0-.07-.06l.04-.05.07.06-.05.05Zm-6.48-.04-.09.01v-.06l.08-.01.01.06Zm-.4-.05.02.02h.02v.06h-.11l.06-.08Zm.22.07-.1.01v-.06h.1v.05Zm6.75.1-.03-.02.04-.05.03.04-.04.04Zm-4.87-3.64.03-.04.05.03-.03.04-.05-.03Zm-.1.14.05-.07.05.03-.05.08-.05-.04Zm-.1.15.05-.07.05.03-.05.07-.05-.03Zm-.1.15.04-.08.06.04-.06.07-.05-.03Zm-.1.14.04-.07.05.03-.05.08-.05-.04Zm-.11.15.05-.07.05.03-.05.07-.05-.03Zm-.1.15.05-.08.05.04-.05.07-.05-.03Zm-.1.14.05-.07.05.04-.05.07-.06-.04Zm-.1.15.04-.07.05.03-.05.08-.05-.04Zm-.11.15.05-.08.05.04-.05.07-.05-.03Zm-.1.14.05-.07.05.04-.05.07-.05-.04Zm-.1.15.05-.07.05.03-.05.08-.05-.04Zm-.1.15.04-.08.06.04-.06.07-.05-.03Zm-.1.14.04-.07.05.04-.05.07-.05-.04Zm-.11.15.05-.07.05.03-.05.08-.05-.04Zm-.1.15.05-.08.05.04-.05.07-.05-.03Zm-.1.14.04-.07.06.04-.05.07-.06-.04Zm-.1.15.04-.07.05.03-.05.08-.05-.04Zm-.11.15.05-.08.05.04-.05.07-.05-.03Zm-.1.14.05-.07.05.04-.05.07-.05-.04Zm-.1.15.05-.07.05.03-.05.08-.06-.04Zm4.7.07h-.08v-.06h.09v.06Zm.18 0H57v-.06h.1l-.01.07Zm-.34 0h-.05l-.04.01v-.06h.08v.06Zm.5.02h-.08v-.07l.1.01-.01.06Zm-.68 0-.08.01-.01-.06.09-.01v.06Zm.85.03-.08-.01.01-.06.09.01-.02.06Zm-1.02 0h-.09v-.06l.08-.01.01.06Zm-.18.01-.08.02-.01-.06.09-.02v.06Zm-4.12.02.05-.08.05.04-.05.07-.05-.03Zm5.49.02-.08-.03.01-.06.09.03-.02.06Zm-1.54-.01-.09.01v-.06l.08-.01.01.06Zm-.18.03-.08.01-.01-.06.08-.01.01.06Zm1.88.04a1.87 1.87 0 0 0-.08-.03l.02-.06c.03 0 .05.02.08.03l-.02.06Zm-2.05-.01-.09.01v-.06l.08-.01.01.06Zm-.17.03-.09.01-.01-.06.09-.01v.06Zm2.37.05a2.05 2.05 0 0 0-.08-.04l.03-.05c.03 0 .05.02.08.04l-.03.05Zm-2.55-.02-.08.01-.02-.06.1-.01v.06Zm-3.35.01.05-.07.05.04-.05.07-.05-.04Zm3.18.02-.09.02v-.06l.08-.02v.06Zm-.18.03-.08.02-.01-.06.08-.02.01.06Zm3.04.05a1.82 1.82 0 0 0-.07-.05l.03-.05.08.04-.04.06Zm-3.2-.01-.1.01v-.06l.08-.02.01.07Zm-.18.03-.09.02-.01-.07.09-.01v.06Zm-2.76.03.05-.07.05.03-.05.08-.05-.04Zm2.58 0-.08.02-.01-.06.08-.02.01.06Zm3.7.05a2.04 2.04 0 0 0-.07-.06l.04-.05.07.06-.04.05Zm-3.87-.01-.09.01v-.06l.08-.01.01.06Zm-.17.03-.09.02-.01-.06.08-.02.02.06Zm-.18.03-.08.02-.02-.06.1-.02v.06Zm4.35.05a2.55 2.55 0 0 0-.06-.05l.04-.05.06.06-.04.04Zm-6.51 0 .05-.08.05.04-.05.07-.05-.03Zm1.99-.01-.09.01-.01-.06.09-.01v.06Zm-.17.03-.1.02v-.06l.08-.02.02.06Zm-.18.03-.09.02v-.06l.08-.02.01.06Zm5 .07a3.48 3.48 0 0 0-.06-.06l.04-.04.06.06-.04.04Zm-5.17-.03-.09.01-.01-.06.09-.02v.07Zm-.18.03-.08.01-.01-.06.08-.01.01.06Zm-1.4.03.05-.08.06.04-.06.07-.05-.03Zm1.23 0-.09.01v-.06l.08-.01v.06Zm-.18.03-.08.01-.01-.06.08-.01.01.06Zm5.81.07a5.25 5.25 0 0 0-.05-.07l.04-.04.06.06-.05.05Zm-5.98-.04h-.09v-.05l.08-.02V47Zm-.18.02-.08.02-.01-.07h.08l.01.05Zm-.17.03h-.09V47l.08-.02v.07Zm-.18.02h-.09v-.05l.08-.01.01.06Zm-.4-.06.04.02.01.01v.05h-.11l.06-.08Zm.22.07-.09.01v-.06h.09v.05Zm6.8.08-.05-.06.05-.04.06.06-.05.04Zm.1.1-.03-.03.04-.04.03.03-.04.04Zm5.63-4.23-.02-.04-.05.04.02.03.05-.03Zm.1.14-.05-.07-.05.04.05.07.05-.04Zm.1.15-.04-.08-.06.04.06.07.05-.03Zm.11.14-.05-.07-.05.03.05.08.05-.04Zm.1.15-.05-.08-.05.04.05.07.05-.03Zm.1.14-.05-.07-.05.03.05.08.05-.04Zm.1.15-.04-.08-.05.04.05.07.05-.03Zm.11.14-.05-.07-.05.03.05.08.05-.04Zm.1.15-.05-.08-.05.04.05.07.05-.03Zm.1.14-.05-.07-.05.03.05.08.06-.04Zm.1.15-.04-.08-.05.04.05.07.05-.03Zm.11.14-.05-.07-.05.03.05.08.05-.04Zm.1.15-.05-.08-.05.04.05.07.05-.03Zm.1.14-.05-.07-.05.03.05.08.06-.04Zm.1.15-.04-.08-.05.04.05.07.05-.03Zm.11.14-.05-.07-.05.03.05.08.05-.04Zm.1.15-.05-.08-.05.04.05.07.05-.03Zm.1.14-.05-.07-.05.03.05.08.06-.04Zm.1.14-.04-.07-.05.04.05.07.05-.04Zm-4.09.02h.09v-.06h-.09v.06Zm-.17 0h.08v-.06h-.09v.07Zm.34 0 .05.01h.04v-.06h-.08v.06Zm-.52.02h.09v-.07l-.1.01.01.06Zm.7 0 .1.02v-.07h-.1v.05Zm-.87.03.09-.02-.01-.06-.09.01.01.07Zm1.05 0 .09.01v-.06l-.08-.01-.01.06Zm-1.22.03.09-.02-.02-.06-.08.02.01.06Zm1.4 0h.09v-.05l-.08-.02-.01.06Zm-1.57.04.09-.02-.02-.06-.09.02.02.06Zm1.75-.02.09.02v-.06l-.08-.02-.01.06Zm3.31.03-.05-.07-.05.03.05.08.05-.04Zm-3.14 0 .1.03v-.06l-.08-.02-.02.06Zm-2.08.04.08-.02-.02-.06c-.03 0-.06.02-.08.03l.02.05Zm2.26 0 .09.02.01-.06-.09-.02v.06Zm-2.43.06c.03 0 .06-.02.08-.03l-.02-.06-.08.04.02.05Zm2.6-.02.1.02.01-.06-.09-.02-.01.06Zm.19.04.08.02.02-.06-.1-.02v.06Zm2.7.02-.05-.07-.05.04.05.07.05-.04Zm-5.65.03c.03 0 .05-.02.08-.03l-.02-.06-.08.04.02.05Zm3.12 0 .09.01.01-.06-.08-.02-.02.06Zm.18.03.09.02.01-.06-.09-.02-.01.06Zm-3.45.05.07-.04-.02-.06-.08.04.03.06Zm3.62 0 .1.02v-.06l-.08-.03-.02.07Zm2.29.04-.06-.07-.05.03.06.08.05-.04Zm-2.1 0 .08.02.01-.06-.08-.02-.02.06Zm-3.97.04.08-.04-.03-.06-.08.05.03.05Zm4.14 0 .09.02.01-.06-.09-.02-.01.06Zm.17.04.1.02v-.06l-.08-.02-.02.06Zm-4.46.05.08-.04-.03-.06-.08.05.03.05Zm4.64 0 .09.02.01-.06-.09-.03-.01.06Zm1.68.01-.05-.07-.05.04.05.07.05-.04Zm-1.5.03.08.02.02-.06-.09-.02-.01.06Zm-4.96.06.07-.05-.03-.05-.08.05.04.05Zm5.13-.02.1.02v-.06l-.08-.02-.02.06Zm.18.04.09.02.01-.06-.09-.02-.01.06Zm1.25.04-.05-.07-.05.03.05.08.05-.04Zm-1.07 0 .09.01v-.06l-.08-.01-.01.06Zm-5.63.05.07-.06-.04-.05a3.3 3.3 0 0 0-.07.06l.04.05Zm5.8-.02.1.02v-.06l-.08-.02-.02.06Zm.18.04.1.01v-.06l-.09-.01v.06Zm.18.03.1.01v-.06l-.09-.01v.06Zm-6.29.06.07-.06-.04-.04-.07.06.04.04Zm6.47-.03h.1v-.06h-.09v.06Zm.41-.06-.03.02h-.01v.07h.1l-.06-.09Zm-.23.08h.1v-.06h-.09v.06Zm-6.74.1.03-.03-.04-.04c-.02 0-.03.02-.04.03l.05.04Zm4.91-3.5-.03-.03-.05.04.03.03.05-.03Zm.1.15-.05-.07-.05.04.05.07.05-.04Zm.1.14-.05-.07-.05.04.06.07.05-.04Zm.1.14-.04-.07-.05.04.05.07.05-.04Zm.11.15-.05-.08-.05.04.05.07.05-.03Zm.1.14-.05-.07-.05.03.06.07.05-.03Zm.11.14-.05-.07-.05.04.05.07.05-.04Zm.1.14-.05-.07-.05.04.05.07.05-.04Zm.1.14-.04-.07-.05.04.05.07.05-.04Zm.11.15-.05-.08-.05.04.05.07.05-.03Zm.1.14-.05-.07-.05.03.06.07.05-.03Zm.11.14-.05-.07-.05.04.05.07.05-.04Zm.1.14-.05-.07-.05.04.05.07.05-.04Zm.1.14-.04-.07-.05.04.05.07.05-.04Zm.11.15-.05-.08-.05.04.05.07.05-.03Zm.1.14-.05-.07-.05.03.06.07.05-.03Zm.1.14-.04-.07-.05.04.05.07.05-.04Zm.11.14-.05-.07-.05.04.05.07.05-.04Zm.1.14-.04-.07-.05.04.05.07.05-.04Zm.11.15-.05-.08-.05.04.05.07.05-.03Zm.1.14-.05-.07-.05.03.05.07.06-.03Zm-4.09 0h.1v-.06h-.1v.06Zm-.17 0h.09v-.06h-.1l.01.06Zm.35 0h.04l.05.01v-.06h-.09v.06Zm-.52.02.08-.01v-.06h-.09v.07Zm.7 0 .09.01v-.06l-.09-.01v.06Zm-.87.02.08-.01v-.06l-.1.01.02.06Zm1.04 0 .1.02v-.06l-.09-.02V46Zm-1.22.04.09-.02-.01-.06c-.03 0-.06 0-.09.02l.01.06Zm1.4 0h.1v-.06l-.09-.01v.06Zm-1.56.04.08-.02-.02-.06-.08.02.02.06Zm1.74-.02.09.02.01-.06-.09-.02v.06Zm3.3.04-.04-.07-.05.04.05.07.05-.04Zm-3.12 0 .09.01.01-.06-.09-.02-.01.07Zm-2.09.03c.03 0 .05-.02.08-.03l-.02-.06-.08.03.02.06Zm2.27 0 .08.02.02-.06-.1-.02v.06Zm-2.43.06.08-.03-.02-.06-.09.03.03.06Zm2.6-.02.1.02v-.06l-.08-.02-.02.06Zm.18.04.09.02.01-.06-.09-.02-.01.06Zm-2.94.05.08-.04-.03-.05c-.03 0-.05.02-.08.03l.03.06Zm5.64-.02-.05-.07-.05.04.05.07.05-.04Zm-2.52 0 .08.03.02-.06-.09-.02-.01.06Zm.17.05.1.02v-.06l-.08-.02-.02.06Zm-3.45.05.08-.04-.03-.06-.08.04.03.06Zm3.63 0 .09.01.01-.06-.09-.02-.01.06Zm2.28.04-.06-.07-.05.04.06.07.05-.04Zm-2.1 0 .08.02.02-.06-.09-.03-.01.06Zm-3.96.04.07-.04-.03-.06-.07.05.03.05Zm4.13 0 .09.02.01-.06-.08-.02-.02.06Zm.18.04.09.02.01-.06-.09-.02-.01.06Zm-4.46.05.07-.05-.03-.05-.08.05.04.05Zm4.63 0 .1.01v-.06l-.08-.02-.02.06Zm1.68.02-.05-.08-.05.04.05.07.05-.03Zm-1.5.01.09.02.01-.06-.09-.02-.01.06Zm-4.95.07.07-.05-.04-.05-.07.05.04.05Zm5.13-.03.09.02v-.06l-.08-.02-.01.06Zm.17.04.1.02v-.06l-.08-.02-.02.06Zm1.25.05-.05-.07-.05.03.05.07.05-.03Zm-1.07 0 .09.01.01-.06-.09-.02v.06Zm-5.62.04.07-.05-.04-.05a2.8 2.8 0 0 0-.07.06l.04.04Zm5.8-.01.09.02.01-.06-.09-.02-.01.06Zm.18.03.09.02v-.06l-.08-.02-.01.06Zm.18.04.09.01v-.06l-.08-.02-.01.07Zm-6.3.06.07-.06-.04-.05a2.5 2.5 0 0 0-.07.06l.05.05Zm6.48-.04.09.01v-.06l-.08-.01-.01.06Zm.4-.05-.02.02h-.02v.06h.11l-.06-.08Zm-.22.07.09.01v-.06h-.09v.05Zm-6.75.1.03-.02-.04-.05-.03.04.04.04Zm4.87-3.64-.03-.04-.05.03.03.04.05-.03Zm.1.14-.05-.07-.05.03.05.08.05-.04Zm.1.15-.05-.07-.05.03.05.07.05-.03Zm.1.15-.05-.08-.05.04.05.07.06-.03Zm.1.14-.04-.07-.05.03.05.08.05-.04Zm.11.15-.05-.07-.05.03.05.07.05-.03Zm.1.15-.05-.08-.05.04.05.07.05-.03Zm.1.14-.05-.07-.05.04.05.07.06-.04Zm.1.15-.04-.07-.05.03.05.08.05-.04Zm.11.15-.05-.08-.05.04.05.07.05-.03Zm.1.14-.05-.07-.05.04.05.07.05-.04Zm.1.15-.05-.07-.05.03.05.08.05-.04Zm.1.15-.04-.08-.06.04.06.07.05-.03Zm.1.14-.04-.07-.05.04.05.07.05-.04Zm.11.15-.05-.07-.05.03.05.08.05-.04Zm.1.15-.05-.08-.05.04.05.07.05-.03Zm.1.14-.05-.07-.05.04.05.07.06-.04Zm.1.15-.04-.07-.05.03.05.08.05-.04Zm.11.15-.05-.08-.05.04.05.07.05-.03Zm.1.14-.05-.07-.05.04.05.07.05-.04Zm.1.15-.05-.07-.05.03.05.08.06-.04Zm-4.7.07h.08v-.06h-.09v.06Zm-.18 0h.09v-.06h-.1l.01.07Zm.34 0h.04l.05.01v-.06h-.08v.06Zm-.5.02h.08v-.07l-.1.01.01.06Zm.68 0 .08.01.01-.06-.09-.01v.06Zm-.85.03a2 2 0 0 1 .08-.01l-.01-.06-.09.01.02.06Zm1.02 0h.09v-.06l-.08-.01-.01.06Zm.18.01.08.02.01-.06-.09-.02v.06Zm4.12.02-.05-.08-.05.04.05.07.05-.03Zm-5.49.02.08-.03-.01-.06-.09.03.02.06Zm1.54-.01.09.01v-.06l-.08-.01-.01.06Zm.17.03.1.01v-.06l-.09-.01v.06Zm-1.87.04.08-.03-.02-.06c-.03 0-.05.02-.08.03l.02.06Zm2.05-.01.09.01v-.06l-.08-.01-.01.06Zm.17.03.09.01.01-.06-.09-.01v.06Zm-2.37.05.08-.04-.03-.05c-.03 0-.05.02-.08.04l.03.05Zm2.55-.02.08.01.02-.06-.1-.01v.06Zm3.35.01-.05-.07-.05.04.05.07.05-.04Zm-3.18.02.09.02v-.06l-.08-.02v.06Zm.17.03.1.02v-.06l-.08-.02-.02.06Zm-3.03.05.07-.05-.03-.05-.08.04.04.06Zm3.2-.01.1.01v-.06l-.08-.02-.01.07Zm.18.03.09.02.01-.07-.09-.01v.06Zm2.76.03-.05-.07-.05.03.05.08.05-.04Zm-2.58 0 .08.02.01-.06-.08-.02-.01.06Zm-3.7.05.07-.06-.04-.05-.07.06.04.05Zm3.87-.01.09.01v-.06l-.08-.01-.01.06Zm.17.03.09.02.01-.06-.08-.02-.02.06Zm.18.03.08.02.02-.06-.1-.02v.06Zm-4.35.05.06-.05-.04-.05-.07.06.05.04Zm6.51 0-.05-.08-.05.04.05.07.05-.03Zm-1.99-.01.09.01v-.06l-.08-.01v.06Zm.17.03.1.02v-.06l-.08-.02-.02.06Zm.18.03.09.02v-.06l-.08-.02-.01.06Zm-5 .07.06-.06-.04-.04-.06.06.04.04Zm5.17-.03.09.01.01-.06-.09-.02v.07Zm.18.03.08.01.01-.06-.08-.01-.01.06Zm1.4.03-.05-.08-.06.04.06.07.05-.03Zm-1.23 0 .09.01v-.06l-.08-.01v.06Zm.18.03.08.01.01-.06-.08-.01-.01.06Zm-5.81.07.05-.07-.04-.04-.06.06.05.05Zm5.98-.04h.09v-.05l-.08-.02V47Zm.18.02.08.02.01-.07h-.08l-.01.05Zm.17.03h.09V47l-.08-.02v.07Zm.18.02h.09v-.05l-.08-.01-.01.06Zm.4-.06-.04.02-.01.01v.05h.11L67.9 47Zm-.22.07.08.01v-.06h-.08v.05Zm-6.8.08.05-.06-.05-.04-.06.06.05.04Zm-.1.1.03-.03-.04-.04-.03.03.04.04Z" fill="#367ECE"/><path d="M68.74 47.76H50.79l3.04-4.65 1.63-.23-.08.12-1.45.43-2.5 3.84c.38.04 1.34.1 2.23 0 1.1-.14 2.02-.7 3-.7.8 0 1.46.47 1.7.7l1.36-1.11 1.39 1.1c.21-.2.76-.63 1.25-.69.5-.05 2.75.44 3.82.7h2.04l-2.71-3.81h-.34v-.12l-1-.23-.12-.23 1.61.23 3.08 4.65Z" fill="#367ECE"/><path fill-rule="evenodd" d="m59.41 18.07-.8.32a60.87 60.87 0 0 0-21.58 14.8v.08a61.63 61.63 0 0 0 8.38 27.15 65.3 65.3 0 0 0 28.44.04l.16-.04a56.49 56.49 0 0 0 7.88-25.7l.09-1.56A47.85 47.85 0 0 0 61.94 19l-2.53-.94ZM59.4 17l-1.17.47A61.86 61.86 0 0 0 36 32.83l.03.51a62.62 62.62 0 0 0 8.73 27.96 66.31 66.31 0 0 0 29.3.13l.6-.13a57.48 57.48 0 0 0 8.23-26.52l.11-1.95a48.84 48.84 0 0 0-20.7-14.75L59.4 17Z" fill="#367ECE"/><path d="M60.32 35.67c.05.58-.41 1.07-.65 1.24-1.03-.86-.76-2.02.18-3.5-.3 1.52.4 1.52.47 2.26Z" fill="#367ECE"/><path fill-rule="evenodd" d="M61.1 50h-2.86v.9l.52.1v1l-.27.6a2.45 2.45 0 0 1-1.81 1.4v1h5.87v-1a2.22 2.22 0 0 1-1.81-1.65l-.1-.35v-1l.46-.19V50Zm-1.01.54h-.9V52h.9v-1.46Z" fill="#367ECE"/><path d="m45.42 50.54-1.52.81-.25-.47 1.55-.84c.58-.31.66-.64.48-.97-.17-.33-.49-.45-1.08-.13l-1.55.83-.25-.46 1.52-.81c.88-.48 1.44-.27 1.78.35.33.63.2 1.21-.68 1.69Zm-3.06-2.3-.17-.53 1.35-1.42.53-.5v-.02c-.3.12-.66.28-.98.38l-1.27.4-.16-.49 2.92-.92.17.53-1.36 1.43-.52.5v.01c.3-.12.65-.27.97-.38l1.28-.4.15.5-2.91.92Zm-.9-3.21-.1-.54 3.02-.52.1.53-3.02.53Zm-.21-1.12-.04-.57 1.52-.52c.34-.12.63-.2.98-.33v-.02l-1.02-.2-1.56-.35-.03-.55 3.11.77.04.64-3 1.13Zm-.11-3.18.17-1.84.45.05-.11 1.3.78.06.1-1.1.45.05-.1 1.1.9.08.13-1.34.45.04L44.2 41l-3.05-.28Zm.35-2.83.25-1c.16-.61.5-1.03 1.16-.86.64.16.8.71.65 1.33l-.12.47 1.16.3-.14.53-2.97-.77Zm1.63-.59c.1-.4-.01-.67-.35-.75-.34-.09-.52.1-.62.5l-.1.43.96.24.1-.42Zm.26.12-.21-.46 1.85-.51-.15.6-1.49.37Zm1.31-1.18-.22-.44c.28-.11.53-.33.64-.59.14-.32.07-.55-.15-.65-.23-.1-.38.05-.6.26l-.33.31c-.24.23-.58.42-1 .24-.44-.2-.61-.74-.38-1.28.15-.33.42-.59.74-.71l.2.4a.98.98 0 0 0-.5.5c-.12.26-.07.49.14.58.22.1.4-.08.59-.27l.32-.31c.29-.28.6-.42 1-.24.46.2.68.74.4 1.37-.16.38-.47.68-.85.83Zm-1.17-3.76.28-.47 2.64 1.54-.27.47-2.65-1.54Zm1.53-1.55-.53.71-.36-.28 1.38-1.84.37.27-.53.7 2.08 1.57-.33.44-2.08-1.57Zm1.33-2.29.45-.45 2.86 1.47-.4.4-1.48-.82-.91-.52-.02.01.52.91.82 1.49-.4.39-1.45-2.88Zm.98 1.57 1.02-1.01.3.3-1.02 1.01-.3-.3Zm2.14-.86.04-.48c.3.04.62-.02.85-.19.28-.2.34-.44.2-.63-.15-.2-.36-.16-.65-.09l-.45.1c-.31.07-.71.07-.97-.3-.29-.4-.16-.95.33-1.3.29-.2.65-.29.99-.23l-.03.44a.99.99 0 0 0-.69.17c-.23.17-.3.4-.18.58.14.2.38.13.65.06l.44-.1c.38-.09.72-.05.98.3.3.41.2.99-.35 1.39-.34.24-.76.34-1.16.28Zm1.88-4.39.5-.22.55 1.28h.02l.45-1.72.55-.24-.39 1.48 1.75 1.27-.55.24-1.33-1-.19.68.36.82-.5.22-1.22-2.81Zm2.92-1.16 1-.24c.62-.15 1.15-.05 1.31.62.16.64-.25 1.04-.87 1.2l-.47.1.28 1.17-.53.13-.72-2.98Zm1.29 1.16c.4-.1.58-.32.5-.66-.08-.34-.33-.4-.74-.3l-.42.1.24.96.42-.1Zm.02.3.3-.41 1.33 1.39-.6.14-1.03-1.13Zm1.64-2.07.54-.06.35 3.05-.54.06-.35-3.04Zm1.34 2.5.32-.36c.21.21.5.36.8.36.33 0 .53-.15.53-.38 0-.26-.2-.34-.47-.46l-.41-.2c-.3-.12-.62-.37-.6-.81 0-.5.44-.86 1.03-.85.36 0 .7.16.94.4l-.28.35a.98.98 0 0 0-.66-.28c-.3 0-.49.13-.49.35 0 .24.23.34.48.45l.4.18c.37.15.62.39.61.83 0 .5-.42.9-1.1.9a1.58 1.58 0 0 1-1.1-.47Zm3.51-2.03-.88-.13.07-.45 2.28.34-.07.45-.87-.13-.39 2.58-.53-.08.38-2.58Zm2.26-.03 1.76.55-.14.44-1.24-.4-.23.75 1.05.33-.14.44-1.05-.33-.27.87 1.28.4-.13.43-1.8-.56.91-2.92Zm2.74.93.5.26.05 1.96-.02.73h.02c.12-.29.26-.65.42-.96l.6-1.18.46.24-1.4 2.72-.5-.25-.05-1.97.02-.73h-.02c-.13.3-.26.64-.41.95l-.61 1.19-.46-.24 1.4-2.72Zm3.86 2.28.46.41-.6 1.48c-.07.19-.16.38-.25.58h.02l.54-.31 1.4-.76.45.4-2.04 2.29-.37-.33.93-1.05.7-.68-.01-.01-.66.37-1.29.69-.24-.22.54-1.36.3-.7h-.02c-.17.22-.41.56-.6.77l-.93 1.04-.37-.33 2.04-2.28ZM74.11 30l.4.51-1.82 2.66-.35-.45 1-1.37.63-.83-.01-.02c-.32.14-.65.28-.97.4l-1.57.63-.34-.44L74.1 30Zm-1.68.79.88 1.14-.33.26-.89-1.14.34-.26Zm3.04 1.11.5.9c.3.56.33 1.1-.27 1.43-.58.31-1.07.02-1.38-.54l-.23-.43-1.05.57-.26-.48 2.7-1.45Zm-1.07 1.63.48.2-1.01 1.63-.3-.54.83-1.29Zm.28-.1c.2.37.46.5.77.33.3-.17.3-.43.1-.8l-.2-.38-.87.47.2.38Z" fill="#367ECE"/><path d="m77.04 35.2.21.61-2.57 1.94-.19-.54 1.4-.97.85-.6v-.01c-.35.03-.7.06-1.04.07l-1.7.09-.18-.52 3.22-.06Zm-1.84.21.47 1.37-.4.14-.47-1.37.4-.14Zm2.54 2.03.1.55-1.55 1.22-.6.41v.02c.31-.07.69-.18 1.02-.23l1.32-.22.08.51-3.02.5-.1-.55 1.56-1.22.59-.42V38c-.32.08-.68.18-1.01.24l-1.33.21-.08-.5 3.02-.5Zm.43 4.01v.63l-3.08.95v-.57l1.64-.44c.33-.1.68-.18 1.02-.26v-.02a21.8 21.8 0 0 1-1-.3l-1.63-.49v-.55l3.05 1.05Zm-1.8-.44-.02 1.44h-.43l.03-1.45h.42Zm1.18 2.96.13-.88.45.07-.34 2.29-.45-.07.13-.87-2.58-.39.08-.53 2.58.38Zm.03 2.32-.17.51-1.17-.38-.38 1.17 1.16.39-.17.52-2.9-.97.17-.51 1.28.42.4-1.17-1.3-.43.18-.52 2.9.97Zm-1.47 3.77-.3.56-3.17-.57.27-.5 1.66.35 1.02.24v-.02l-.75-.71-1.21-1.2.26-.48 2.22 2.33Zm-1.4-1.21-.68 1.26-.37-.2.68-1.27.38.2Zm-23.42 5.71.86.47c.55.3.86.7.6 1.19-.15.25-.42.42-.7.38l-.01.01c.26.23.36.56.17.92-.3.54-.88.55-1.47.22l-.93-.5 1.48-2.7Zm-.4 2.8c.4.21.7.19.86-.11.16-.28.01-.53-.39-.75l-.4-.22-.47.85.4.22Zm.6-1.24c.38.2.62.14.75-.09.14-.26.02-.45-.33-.65l-.35-.19-.4.74.34.19Zm2.56-.2.6.22-.1 3.22-.55-.2.12-1.69.08-1.04h-.02l-.6.85-1 1.37-.51-.19 1.98-2.54Zm-1 1.56 1.36.5-.15.4-1.35-.5.14-.4Zm2.57-1.01.55.1.62 1.87.19.7H57c.03-.3.06-.7.12-1.03l.24-1.31.51.1-.56 3-.55-.1-.62-1.87-.19-.7h-.02c-.03.33-.06.7-.12 1.03l-.25 1.32-.5-.1.56-3Zm2.72.46h.81c.94.02 1.49.54 1.47 1.55-.02 1.02-.58 1.54-1.49 1.52h-.83l.05-3.06Zm.73 2.63c.62.01.98-.33 1-1.09 0-.75-.34-1.08-.96-1.1h-.24l-.03 2.19h.23Zm2.11-.93-.26-1.7.53-.08.28 1.74c.1.66.38.83.75.78.37-.06.59-.32.49-.98l-.28-1.74.52-.08.27 1.7c.15 1-.23 1.45-.93 1.56-.7.11-1.2-.2-1.37-1.2Zm2.43-2.16.53-.18 1.46 1.31.52.52.02-.01c-.13-.3-.3-.64-.41-.97l-.44-1.25.49-.17 1 2.9-.52.17-1.47-1.31-.51-.51h-.02c.13.3.3.64.4.96l.45 1.26-.49.17-1-2.89Zm3.19.48c-.5-.88-.23-1.7.48-2.1.38-.22.73-.2 1-.12l-.09.45a.83.83 0 0 0-.67.07c-.47.26-.59.81-.25 1.41.34.61.83.82 1.36.52.15-.08.28-.2.32-.33l-.32-.57-.5.28-.22-.4.93-.51.65 1.18a1.4 1.4 0 0 1-.67.8c-.72.4-1.54.2-2.03-.68Zm-16.08-6.96.32.25-.3.93-.13.36.34-.2.84-.47.31.26-1.17 1.42-.25-.2.53-.66c.1-.13.29-.3.41-.42h-.01l-.4.22-.78.43-.16-.14.27-.85.14-.43v-.01c-.1.14-.23.35-.34.48l-.54.65-.25-.2 1.18-1.43Zm1.08 2.04c.32-.52.86-.61 1.3-.35a.8.8 0 0 1 .37.5l-.27.08a.55.55 0 0 0-.24-.33c-.29-.17-.62-.07-.83.28-.21.36-.16.7.13.86.16.1.31.1.47.06l.06.28a.84.84 0 0 1-.69-.1c-.43-.26-.6-.75-.3-1.28Zm1.94.07.37.15-.01.97-.02.39h.01c.09-.1.17-.2.26-.28l.66-.7.38.15-.7 1.7-.31-.12.32-.78c.07-.16.19-.37.27-.52l-.01-.01-.32.33-.62.64-.2-.08.01-.89.02-.46h-.01c-.05.16-.12.4-.19.56l-.32.78-.3-.13.7-1.7h.01Zm10.28.6.33-.13.58 1.46.78-.3.1.25-1.12.44-.67-1.72Zm2.01.1-.9-.53.36-.19.39.26.27.18v-.78l.33-.18-.05 1.05.94.56-.35.19-.42-.27-.28-.2-.01.01v.84l-.34.17.06-1.1Z" fill="#367ECE"/><path d="m66.4 51.62.3-.22.76.6.5.4v-.01l-.2-.6-.3-.92.3-.2.55 1.86-.35.25-1.57-1.16ZM160.04 34c-.62 0-1.19-.12-1.7-.36a4.58 4.58 0 0 1-1.37-.94l.6-.67c.33.34.7.6 1.13.8.43.21.88.31 1.35.31.61 0 1.09-.14 1.43-.4.34-.3.51-.66.51-1.1 0-.31-.07-.56-.2-.75a1.46 1.46 0 0 0-.54-.47 6.77 6.77 0 0 0-.76-.38l-1.28-.56a5.08 5.08 0 0 1-.82-.45 2.5 2.5 0 0 1-.7-.7 1.95 1.95 0 0 1-.27-1.07c0-.43.11-.82.35-1.15.23-.34.55-.61.97-.8a3.43 3.43 0 0 1 2.85 0c.45.2.82.45 1.11.76l-.53.63a2.72 2.72 0 0 0-2.03-.85 2 2 0 0 0-1.26.38c-.31.24-.47.56-.47.98 0 .29.08.53.23.71.15.19.34.34.57.46.23.12.46.22.68.32l1.28.56c.35.14.66.3.93.5s.48.43.65.72c.16.3.25.66.25 1.09 0 .45-.12.86-.36 1.23s-.58.66-1.02.88a3.6 3.6 0 0 1-1.58.32Zm-10.98 0 3.03-9h1.1l3.02 9h-1.05l-1.6-5.1c-.17-.5-.32-1.01-.47-1.5l-.45-1.55h-.05a36.28 36.28 0 0 1-.9 3.05l-1.62 5.1h-1Zm1.54-2.84v-.8h4.05v.8h-4.05ZM144.8 34v-8.14h-2.72V25h6.41v.86h-2.7V34h-1Zm-5.45 0v-9h1v9h-1Zm-4.86 0c-.62 0-1.19-.12-1.7-.36a4.57 4.57 0 0 1-1.37-.94l.6-.67c.33.34.7.6 1.13.8a3 3 0 0 0 1.35.31c.61 0 1.09-.14 1.43-.4.34-.3.51-.66.51-1.1 0-.31-.07-.56-.2-.75a1.55 1.55 0 0 0-.54-.47 6.88 6.88 0 0 0-.77-.38l-1.27-.56a5.08 5.08 0 0 1-.82-.45 2.5 2.5 0 0 1-.7-.7 1.95 1.95 0 0 1-.27-1.07c0-.43.11-.82.35-1.15.23-.34.55-.61.97-.8a3.43 3.43 0 0 1 2.85 0c.45.2.82.45 1.11.76l-.53.63a2.72 2.72 0 0 0-2.03-.85 2 2 0 0 0-1.26.38c-.31.24-.47.56-.47.98 0 .29.08.53.23.71.15.19.34.34.57.46.23.12.46.22.68.32l1.28.56c.35.14.66.3.93.5s.48.43.64.72c.17.3.26.66.26 1.09 0 .45-.12.86-.36 1.23s-.58.66-1.03.88a3.6 3.6 0 0 1-1.57.32Zm-10.12 0v-9h2.7c.6 0 1.12.08 1.58.25.45.15.81.41 1.07.78.26.36.4.85.4 1.46 0 1.16-.55 1.8-1.47 2.19-.46.19-.99.32-1.58.32h-1.7v4h-1Zm4.85 0-2.35-4.31.8-.5 2.68 4.81h-1.13Zm-3.86-4.86h1.55c1.44 0 2.2-.46 2.2-1.65 0-.6-.19-1.04-.57-1.28a2.89 2.89 0 0 0-1.63-.39h-1.55v3.32ZM117 34v-9h5v.86h-4v2.98h3.39v.84h-3.4v3.46H122V34h-5Zm-5.17 0-2.85-9h1.06l1.48 4.96.43 1.5.43 1.49h.05l.45-1.48.43-1.51 1.48-4.96h1l-2.82 9h-1.14Zm-5.23 0v-9h1v9h-1Zm-8.78 0v-9h1.02l3.34 5.84.97 1.84h.05l-.1-1.4-.03-1.4V25h.93v9h-1.01l-3.34-5.84-.97-1.84h-.05a61.44 61.44 0 0 1 .13 2.75V34h-.94Zm-5.7 0c-.43 0-.84-.06-1.22-.19s-.71-.34-1-.63a3 3 0 0 1-.66-1.14 5.66 5.66 0 0 1-.24-1.78V25h1v5.26c0 .73.09 1.3.28 1.72a2 2 0 0 0 .76.89c.33.17.69.26 1.08.26.4 0 .77-.09 1.09-.26.33-.18.6-.48.8-.89.2-.42.29-1 .29-1.72V25h.96v5.26c0 .7-.09 1.3-.26 1.78a2.9 2.9 0 0 1-.67 1.14c-.28.29-.6.5-.98.63s-.79.19-1.23.19Zm37.71 11v-9h1.02l3.33 5.84.96 1.84h.06a26.34 26.34 0 0 1-.13-2.8V36h.93v9h-1.02l-3.33-5.84-.96-1.84h-.06a61.52 61.52 0 0 1 .14 2.75V45h-.94Zm-7.17 0v-9h5v.86h-4.01v2.98h3.38v.84h-3.38v3.46h4.15V45h-5.14Zm-5.45 0v-8.14h-2.71V36h6.4v.86h-2.7V45h-.99Zm-6.7 0c-.62 0-1.19-.12-1.7-.36a4.56 4.56 0 0 1-1.36-.94l.6-.67c.33.34.7.6 1.12.8.43.21.88.31 1.36.31.6 0 1.08-.14 1.42-.4.34-.3.5-.66.5-1.1 0-.31-.06-.56-.2-.75-.13-.19-.3-.35-.53-.47a6.75 6.75 0 0 0-.77-.38l-1.27-.56a5.07 5.07 0 0 1-.82-.45 2.5 2.5 0 0 1-.7-.7 1.96 1.96 0 0 1-.27-1.07c0-.43.12-.82.35-1.15.23-.34.56-.61.97-.8a3.42 3.42 0 0 1 2.85 0c.44.2.81.45 1.1.76l-.53.63a2.7 2.7 0 0 0-2.03-.85 2 2 0 0 0-1.24.38c-.32.24-.47.56-.47.98 0 .29.07.53.22.71.16.19.34.34.57.46.23.12.46.22.68.32l1.28.56c.35.14.66.3.92.5a2.12 2.12 0 0 1 .9 1.81c0 .45-.12.86-.36 1.23a2.4 2.4 0 0 1-1.02.88 3.6 3.6 0 0 1-1.57.32Zm-5.99 0v-9h1v9h-1Zm-7.68 0v-9h2.7c.58 0 1.1.08 1.56.25.46.15.82.41 1.08.78.26.36.39.85.39 1.46 0 1.16-.54 1.81-1.47 2.2-.45.2-.97.31-1.57.31h-1.7v4h-1Zm4.84 0-2.35-4.3.8-.49 2.68 4.79h-1.13Zm-3.85-4.84h1.54c1.44 0 2.2-.48 2.2-1.67 0-.6-.19-1.04-.57-1.28a2.88 2.88 0 0 0-1.63-.39h-1.54v3.34ZM89 45v-9h1v4.64L93.85 36h1.12l-2.78 3.41L95.4 45h-1.11l-2.7-4.8L90 42.1V45h-1Zm66.26 11 2.77-9h2.2l2.77 9h-1.94l-1.2-4.64a64.95 64.95 0 0 1-.74-2.92h-.06a68.71 68.71 0 0 1-.7 2.92L157.13 56h-1.88Zm1.77-2.24V52.3h4.18v1.47h-4.18ZM147 56v-9h1.81v3.5H152V47h1.81v9H152v-3.84h-3.19V56H147Zm-5.52 0v-7.41h-2.45V47h6.73v1.59h-2.45V56h-1.83Zm-10.6 0 2.77-9h2.2l2.77 9h-1.94l-1.2-4.64a64.95 64.95 0 0 1-.74-2.92h-.06a68.71 68.71 0 0 1-.7 2.92L132.75 56h-1.88Zm1.77-2.24V52.3h4.18v1.47h-4.18ZM123 56v-9h1.89l2.4 4.67.9 1.96h.05l-.17-1.58c-.05-.57-.08-1.12-.08-1.64V47h1.76v9h-1.89l-2.41-4.68-.88-1.95h-.06l.15 1.56c.06.57.1 1.1.1 1.63V56H123Zm-8.86 0 2.77-9h2.2l2.77 9h-1.94l-1.2-4.64a64.95 64.95 0 0 1-.74-2.92h-.06a68.71 68.71 0 0 1-.7 2.92L116.02 56h-1.88Zm1.77-2.24V52.3h4.18v1.47h-4.18ZM107 56v-9h3.08c.61 0 1.17.08 1.67.25.5.16.9.45 1.2.85.3.4.45.96.45 1.66a2.8 2.8 0 0 1-.46 1.66c-.29.42-.69.74-1.19.95-.5.2-1.06.3-1.67.3h-1.25V56H107Zm4.74 0-2-3.84 1.29-1.18L113.8 56h-2.06Zm-2.9-4.85h1.08c.54 0 .96-.11 1.24-.34.29-.24.43-.59.43-1.05 0-.47-.14-.8-.43-.98-.28-.18-.7-.28-1.24-.28h-1.09v2.65ZM98.14 56l2.78-9h2.2l2.76 9h-1.94l-1.2-4.64a64.95 64.95 0 0 1-.74-2.92h-.05a68.71 68.71 0 0 1-.71 2.92L100.02 56h-1.88Zm1.77-2.24V52.3h4.18v1.47H99.9ZM89 56v-9h2.02l1.46 4.13c.09.26.18.54.26.84l.26.86h.06l.25-.86.27-.84 1.4-4.13h2.04v9h-1.69v-3.58c0-.28.02-.6.04-.95l.11-1.07.1-.97h-.06l-.7 2.13-1.3 3.44h-1.05l-1.3-3.44-.7-2.13h-.05a179.21 179.21 0 0 0 .19 2.04c.02.35.04.67.04.95V56H89Z" fill="#367ECE"/></svg>