<svg xmlns="http://www.w3.org/2000/svg" width="124" height="30" fill="none"><g clip-path="url(#aesfsihg5)"><path stroke="url(#besfsihg5)" stroke-width="4" d="M-19.22 3.8c64.56.74 127.1-8.39 150.31-13.04v28.61C88.44 33.05 13.12 35.18-19.21 34.53z" opacity=".2"/><path stroke="url(#cesfsihg5)" stroke-width="3" d="M-19.22 3.8c64.56.74 127.1-8.39 150.31-13.04v28.61C88.44 33.05 13.12 35.18-19.21 34.53z" opacity=".2"/><path stroke="url(#desfsihg5)" stroke-width="2" d="M-19.22 3.8c64.56.74 127.1-8.39 150.31-13.04v28.61C88.44 33.05 13.12 35.18-19.21 34.53z" opacity=".2"/><path stroke="url(#eesfsihg5)" d="M-19.22 3.8c64.56.74 127.1-8.39 150.31-13.04v28.61C88.44 33.05 13.12 35.18-19.21 34.53z" opacity=".2"/><path stroke="url(#fesfsihg5)" stroke-width="4" d="M-58.22 23.52c64.56.73 127.1-8.4 150.31-13.05v17.1C49.44 41.28-25.88 43.4-58.21 42.75z" opacity=".2"/><path stroke="url(#gesfsihg5)" stroke-width="3" d="M-58.22 23.52c64.56.73 127.1-8.4 150.31-13.05v17.1C49.44 41.28-25.88 43.4-58.21 42.75z" opacity=".2"/><path stroke="url(#hesfsihg5)" stroke-width="2" d="M-58.22 23.52c64.56.73 127.1-8.4 150.31-13.05v17.1C49.44 41.28-25.88 43.4-58.21 42.75z" opacity=".2"/><path stroke="url(#iesfsihg5)" d="M-58.22 23.52c64.56.73 127.1-8.4 150.31-13.05v17.1C49.44 41.28-25.88 43.4-58.21 42.75z" opacity=".2"/></g><defs><linearGradient id="besfsihg5" x1="122.75" x2="1.48" y1="12.7" y2="12.7" gradientUnits="userSpaceOnUse"><stop stop-color="#57AEFF"/><stop offset="1" stop-color="#31FF6B" stop-opacity="0"/></linearGradient><linearGradient id="cesfsihg5" x1="122.75" x2="1.48" y1="12.7" y2="12.7" gradientUnits="userSpaceOnUse"><stop stop-color="#57AEFF"/><stop offset="1" stop-color="#31FF6B" stop-opacity="0"/></linearGradient><linearGradient id="desfsihg5" x1="122.75" x2="1.48" y1="12.7" y2="12.7" gradientUnits="userSpaceOnUse"><stop stop-color="#57AEFF"/><stop offset="1" stop-color="#31FF6B" stop-opacity="0"/></linearGradient><linearGradient id="eesfsihg5" x1="122.75" x2="1.48" y1="12.7" y2="12.7" gradientUnits="userSpaceOnUse"><stop stop-color="#57AEFF"/><stop offset="1" stop-color="#31FF6B" stop-opacity="0"/></linearGradient><linearGradient id="fesfsihg5" x1="83.08" x2="-37.3" y1="26.66" y2="26.66" gradientUnits="userSpaceOnUse"><stop stop-color="#31FF6B" stop-opacity="0"/><stop offset="1" stop-color="#57AEFF"/></linearGradient><linearGradient id="gesfsihg5" x1="83.08" x2="-37.3" y1="26.66" y2="26.66" gradientUnits="userSpaceOnUse"><stop stop-color="#31FF6B" stop-opacity="0"/><stop offset="1" stop-color="#57AEFF"/></linearGradient><linearGradient id="hesfsihg5" x1="83.08" x2="-37.3" y1="26.66" y2="26.66" gradientUnits="userSpaceOnUse"><stop stop-color="#31FF6B" stop-opacity="0"/><stop offset="1" stop-color="#57AEFF"/></linearGradient><linearGradient id="iesfsihg5" x1="83.08" x2="-37.3" y1="26.66" y2="26.66" gradientUnits="userSpaceOnUse"><stop stop-color="#31FF6B" stop-opacity="0"/><stop offset="1" stop-color="#57AEFF"/></linearGradient></defs></svg>