<svg width="201" height="80" viewBox="0 0 201 80" xmlns="http://www.w3.org/2000/svg"><path d="M65.81 62.86h1.56c.01.55.55 1.01 1.27 1.01s1.16-.38 1.16-.93c0-.43-.32-.72-.98-.93l-.95-.27c-1.68-.44-1.99-1.47-1.99-2.16 0-1.38 1.19-2.33 2.67-2.33s2.57.88 2.57 2.35h-1.56c0-.55-.38-.98-1.05-.98-.6 0-1.06.4-1.06.92 0 .19.06.58.87.82l.86.24c1.16.35 2.19.94 2.19 2.25 0 1.53-1.32 2.37-2.77 2.37-1.65.01-2.78-1-2.79-2.36ZM83.13 65.1h-1.6l-.56-4.78-1.88 3.91h-1.23l-1.9-3.9-.56 4.78h-1.6l.96-7.72h1.31l2.39 5.06 2.36-5.06h1.34l.97 7.72ZM90.85 65.1l-.63-1.84h-2.89l-.61 1.85h-1.66l2.88-7.72h1.68l2.86 7.72h-1.63Zm-3.06-3.2h1.97l-1-2.93-.97 2.92ZM98.74 65.1l-1.84-2.76h-.52v2.77h-1.56v-7.72h3.09c1.77 0 2.52 1.25 2.52 2.52 0 1.1-.77 2.18-1.86 2.37l2 2.83h-1.83Zm-2.36-6.34v2.32h1.25c.87 0 1.24-.53 1.24-1.14 0-.62-.4-1.18-1.12-1.18h-1.37ZM108.35 57.39v1.37h-2.13v6.35h-1.56v-6.35h-2.13V57.4h5.82ZM112.52 63.72h3.39v1.38h-4.94v-7.71h4.84v1.37h-3.3v1.84h2.88V62h-2.87v1.72ZM122.78 65.1l-1.84-2.76h-.52v2.77h-1.56v-7.72h3.07c1.77 0 2.53 1.25 2.53 2.52 0 1.1-.77 2.18-1.87 2.37l2 2.83h-1.81Zm-2.36-6.34v2.32h1.24c.88 0 1.25-.53 1.25-1.14 0-.62-.4-1.18-1.12-1.18h-1.37ZM136.29 57.39v1.37h-2.13v6.35h-1.56v-6.35h-2.13V57.4h5.82ZM142.83 65.1 141 62.35h-.52v2.77h-1.56v-7.72h3.07c1.77 0 2.53 1.25 2.53 2.52 0 1.1-.77 2.18-1.87 2.37l2 2.83h-1.8Zm-2.36-6.34v2.32h1.24c.88 0 1.25-.53 1.25-1.14 0-.62-.4-1.18-1.12-1.18h-1.37ZM152.27 65.1l-.63-1.84h-2.88l-.62 1.85h-1.66l2.88-7.72h1.68l2.86 7.72h-1.63Zm-3.06-3.2h1.97l-1-2.93-.97 2.92ZM159.27 57.39c2.23 0 3.5 1.67 3.5 3.87s-1.28 3.85-3.5 3.85h-3.02v-7.72h3.02Zm0 6.33c1.3 0 1.95-1.14 1.95-2.47 0-1.32-.66-2.5-1.95-2.5h-1.46v4.96h1.46v.01ZM165.68 65.1V57.4h1.56v7.72h-1.56ZM174.79 57.39h1.56v7.72h-1.4l-2.8-4.85v4.85h-1.57v-7.72h1.45l2.76 4.78V57.4ZM179.21 61.25a3.95 3.95 0 0 1 6.8-2.76l-1.13.98a2.37 2.37 0 0 0-1.72-.76c-1.34 0-2.39 1.18-2.39 2.55 0 1.38 1.03 2.59 2.44 2.59 1 0 2-.6 2-1.5H183v-1.27h3.9c0 2.85-1.59 4.17-3.68 4.17a3.95 3.95 0 0 1-4.02-4ZM76.21 25.94c-6.5 0-11.78 5.34-11.78 11.91A11.9 11.9 0 0 0 76.21 49.8c6.5 0 11.75-5.36 11.75-11.95 0-6.6-5.26-11.91-11.75-11.91Zm-.03 18.65c-3.6 0-6.2-2.84-6.2-6.75s2.6-6.72 6.2-6.72 6.24 2.89 6.24 6.72c0 3.83-2.68 6.75-6.24 6.75ZM130.9 26.32v11.34l-8.36-11.34h-5.27V49.4h5.88V37.88l8.56 11.52h5.07V26.32h-5.88ZM151.41 26.32h-9.66V49.4h9.66c6.31 0 10.55-4.62 10.55-11.5 0-6.86-4.24-11.58-10.55-11.58Zm-3.77 5.24h3.77c3.2 0 4.64 3.3 4.64 6.35s-1.46 6.25-4.64 6.25h-3.77v-12.6ZM107.49 49.4h6.31l-9.42-23.08-2.92.01-2.93-.01-9.42 23.08h6.31l1.9-5.23h8.28l1.89 5.23Zm-8.32-10.38 2.29-6.3 2.28 6.3h-4.57ZM181.09 49.4h6.31L178 26.32l-2.93.01-2.92-.01-9.41 23.08h6.31l1.89-5.23h8.29l1.86 5.23Zm-8.31-10.38 2.28-6.3 2.28 6.3h-4.56ZM22.7 45.8h-6.6l-3.37-12.84h6.59l3.37 12.85Z" fill="#fff"/><path d="M50.75 34.78h-6.6L49.46 15h6.6l-5.3 19.78ZM37.51 24.89l-5.58 20.8-3.25 12.16h6.59L44.1 24.9h-6.59Z" fill="#00D37E"/><path d="M29.81 37.83h-6.6l5.32 20.02h6.66l-5.38-20.02Z" fill="#fff"/></svg>