<svg xmlns="http://www.w3.org/2000/svg" width="132" height="60" viewBox="0 0 132 60"><path fill="#fff" d="M44.04 44.48h1c0 .35.35.65.81.65s.74-.25.74-.6q0-.4-.62-.6l-.6-.16c-1.1-.28-1.29-.94-1.29-1.38 0-.88.77-1.48 1.71-1.48.95 0 1.65.56 1.65 1.5h-1c0-.36-.24-.63-.67-.63-.39 0-.68.26-.68.59 0 .11.04.37.55.52l.56.15c.74.22 1.4.6 1.4 1.43 0 .98-.84 1.52-1.78 1.52-1.05 0-1.77-.64-1.78-1.51m11.1 1.43h-1.02l-.36-3.05-1.2 2.5h-.8l-1.22-2.5-.36 3.05h-1.02l.61-4.92h.85l1.53 3.23 1.51-3.23h.86zm4.96 0-.41-1.18h-1.85l-.4 1.18h-1.06L58.23 41h1.07l1.84 4.92zm-1.97-2.05h1.26L58.76 42zm7.02 2.05-1.18-1.76h-.33v1.76h-1V41h1.98c1.13 0 1.62.8 1.62 1.61 0 .7-.5 1.39-1.2 1.5l1.28 1.81zm-1.51-4.04v1.47h.8c.56 0 .8-.33.8-.72 0-.4-.26-.75-.72-.75zm7.67-.87v.87h-1.36v4.04h-1v-4.04h-1.37v-.88zm2.68 4.03h2.17v.87h-3.17V41h3.11v.87H74v1.17h1.84v.9H74zm6.58.88-1.18-1.76h-.34v1.76h-1V41h1.97c1.14 0 1.62.8 1.62 1.61 0 .7-.49 1.39-1.2 1.5l1.28 1.81zm-1.52-4.04v1.47h.8c.56 0 .8-.33.8-.72 0-.4-.25-.75-.72-.75zM89.23 41v.87h-1.37v4.04h-1v-4.04h-1.37v-.88zm4.19 4.91-1.18-1.76h-.33v1.76h-1V41h1.97c1.13 0 1.62.8 1.62 1.61 0 .7-.5 1.39-1.2 1.5l1.28 1.81zm-1.51-4.04v1.47h.8c.56 0 .8-.33.8-.72 0-.4-.26-.75-.72-.75zm7.57 4.04-.4-1.18h-1.86l-.4 1.18h-1.05L97.6 41h1.08l1.83 4.92zm-1.97-2.05h1.26L98.14 42zm6.46-2.86c1.42 0 2.24 1.06 2.24 2.46s-.83 2.45-2.24 2.45h-1.95V41zm0 4.03c.82 0 1.24-.73 1.24-1.57s-.42-1.6-1.24-1.6h-.94v3.16zm4.11.88V41h1v4.92zm5.83-4.91h1v4.91h-.9l-1.8-3.08v3.08h-1V41h.93l1.77 3.05zm2.84 2.46a2.53 2.53 0 0 1 4.36-1.76l-.72.62q-.45-.46-1.11-.48c-.86 0-1.53.75-1.53 1.62s.66 1.65 1.56 1.65c.65 0 1.28-.39 1.28-.96h-1.4v-.8h2.5c0 1.81-1.02 2.65-2.36 2.65a2.53 2.53 0 0 1-2.58-2.54M50.7 20.96a7.6 7.6 0 0 0 0 15.2 7.57 7.57 0 0 0 7.54-7.6c0-4.2-3.37-7.6-7.53-7.6m-.01 11.89c-2.31 0-3.98-1.81-3.98-4.3 0-2.5 1.67-4.29 3.98-4.29 2.3 0 4 1.84 4 4.28s-1.72 4.3-4 4.3M85.77 21.2v7.23l-5.36-7.22h-3.37v14.7h3.77v-7.34l5.48 7.34h3.25V21.2zm13.16 0h-6.2v14.7h6.2c4.04 0 6.76-2.94 6.76-7.31 0-4.38-2.72-7.38-6.76-7.38m-2.42 3.35h2.42c2.04 0 2.97 2.1 2.97 4.04s-.94 3.98-2.97 3.98H96.5zM70.76 35.9h4.05l-6.04-14.7-1.88.02-1.87-.01-6.04 14.7h4.05l1.2-3.33h5.32zm-5.33-6.6 1.46-4.01 1.47 4.01zm52.52 6.6H122l-6.03-14.7-1.88.02-1.87-.01-6.03 14.7h4.04l1.21-3.33h5.32zm-5.33-6.6 1.46-4.01 1.47 4.01zM16.4 33.62h-4.23L10 25.44h4.23z"/><path fill="#00D37E" d="M34.38 26.6h-4.23l3.4-12.6h4.23zm-8.48-6.3-5.67 21h4.23l5.66-21z"/><path fill="#fff" d="M20.95 28.54h-4.22l3.4 12.75h4.27z"/></svg>