<svg xmlns="http://www.w3.org/2000/svg" width="200" height="60" viewBox="0 0 200 60"><path fill="#fff" d="M73.33 47.15h1.22c0 .42.42.78.99.78.56 0 .9-.3.9-.72q0-.49-.77-.72l-.73-.21c-1.32-.34-1.55-1.14-1.55-1.68 0-1.07.92-1.8 2.07-1.8 1.16 0 2 .68 2 1.82h-1.2c0-.43-.3-.76-.82-.76-.47 0-.83.31-.83.71 0 .15.05.45.67.63l.67.2c.91.27 1.7.73 1.7 1.74 0 1.2-1.02 1.84-2.15 1.84-1.28.01-2.16-.78-2.17-1.83m13.48 1.75h-1.24l-.43-3.72-1.47 3.03h-.95l-1.49-3.03-.44 3.71h-1.24l.75-6h1.02l1.86 3.94 1.84-3.93h1.04zm6.02 0-.5-1.45H90.1l-.48 1.44h-1.29l2.24-6h1.3l2.24 6zm-2.39-2.5h1.54l-.78-2.27zm8.53 2.5-1.43-2.16h-.4v2.15h-1.22v-6h2.4c1.38 0 1.97.99 1.97 1.97 0 .85-.6 1.69-1.45 1.84l1.55 2.2zm-1.84-4.93v1.8h.97c.68 0 .97-.41.97-.9 0-.47-.3-.9-.87-.9zm9.32-1.07v1.07h-1.66v4.92h-1.21v-4.92h-1.66V42.9zm3.25 4.92h2.64v1.06h-3.85V42.9h3.78v1.07h-2.57v1.42h2.24v1.09h-2.24zm7.99 1.08-1.43-2.16h-.41v2.15h-1.22v-6h2.4c1.38 0 1.96.99 1.96 1.97 0 .85-.6 1.69-1.45 1.84l1.55 2.2zm-1.84-4.93v1.8h.97c.68 0 .97-.41.97-.9 0-.47-.31-.9-.87-.9zm12.35-1.07v1.07h-1.65v4.92h-1.22v-4.92h-1.66V42.9zm5.1 6-1.43-2.16h-.41v2.15h-1.22v-6h2.4c1.38 0 1.97.99 1.97 1.97 0 .85-.6 1.69-1.46 1.84l1.56 2.2zm-1.84-4.93v1.8h.97c.68 0 .97-.41.97-.9 0-.47-.3-.9-.87-.9zm9.19 4.93-.49-1.45h-2.25l-.48 1.44h-1.29l2.24-6h1.3l2.24 6zm-2.38-2.5h1.53l-.77-2.27zm7.83-3.5c1.73 0 2.73 1.3 2.73 3 0 1.72-1 3-2.73 3h-2.36v-6zm0 4.92c1 0 1.52-.89 1.52-1.92s-.52-1.94-1.52-1.94h-1.14v3.85zm5 1.09v-6h1.2v6zm7.08-6h1.21v6h-1.08l-2.19-3.77v3.76h-1.21v-6h1.12l2.15 3.72zm3.44 3a3.07 3.07 0 0 1 5.3-2.14l-.88.76a2 2 0 0 0-1.34-.6c-1.05 0-1.86.92-1.86 1.99s.8 2 1.9 2c.78 0 1.55-.46 1.55-1.16h-1.7v-.99h3.03c0 2.22-1.24 3.24-2.87 3.24a3.07 3.07 0 0 1-3.13-3.1M81.43 18.49a9.2 9.2 0 0 0-9.17 9.24c0 5.1 4.11 9.28 9.17 9.28a9.2 9.2 0 0 0 9.15-9.28 9.2 9.2 0 0 0-9.15-9.24m-.03 14.48c-2.8 0-4.83-2.2-4.83-5.24s2.03-5.22 4.83-5.22 4.86 2.24 4.86 5.22-2.08 5.24-4.86 5.24M124 18.79v8.8l-6.5-8.8h-4.1V36.7h4.58v-8.94l6.66 8.94h3.95V18.79zm15.98 0h-7.52V36.7h7.52c4.92 0 8.22-3.59 8.22-8.92s-3.3-9-8.22-9m-2.94 4.06h2.94c2.49 0 3.61 2.56 3.61 4.93s-1.13 4.85-3.6 4.85h-2.95zM105.78 36.7h4.92l-7.34-17.91h-4.55L91.48 36.7h4.91l1.47-4.06h6.45zm-6.47-8.05 1.78-4.9 1.77 4.9zm63.78 8.05H168l-7.33-17.91h-4.55L148.8 36.7h4.91l1.47-4.06h6.45zm-6.48-8.05 1.78-4.9 1.78 4.9zM39.76 33.91h-5.13L32 23.94h5.13z"/><path fill="#00D37E" d="M61.6 25.36h-5.13L60.6 10h5.13zm-10.3-7.68-6.88 25.58h5.13l6.88-25.58z"/><path fill="#fff" d="M45.3 27.72h-5.13l4.13 15.54h5.19z"/></svg>