<svg width="645" height="362" viewBox="0 0 645 362" fill="none" xmlns="http://www.w3.org/2000/svg"><g clip-path="url(#a2pls4ler)"><path fill="#000" d="M0 0h645v362H0z"/><g opacity=".7"><g opacity=".5"><g opacity=".8"><g opacity=".5" filter="url(#b2pls4ler)"><ellipse cx="275.64" cy="341" rx="275.64" ry="341" transform="scale(-1 1) rotate(-48.32 -419.95 1422.47)" fill="url(#c2pls4ler)"/></g><g opacity=".6" filter="url(#d2pls4ler)"><ellipse cx="380.41" cy="199.89" rx="380.41" ry="199.89" transform="scale(-1 1) rotate(-30 538.06 -214.94)" fill="url(#e2pls4ler)"/></g></g><g opacity=".8"><g opacity=".5" filter="url(#f2pls4ler)"><ellipse cx="116.71" cy="381.8" rx="275.64" ry="341" transform="rotate(-48.32 116.71 381.8)" fill="url(#g2pls4ler)"/></g></g><g filter="url(#h2pls4ler)"><path d="M-903 271.62h168.63c56.21 0 112.42 0 168.63 13.47 56.21 13.47 112.42 40.42 168.63 20.56 56.21-20.56 112.42-88.63 168.63-136.14 56.21-48.22 112.42-75.16 168.63-34.04C-3.64 175.9 52.57 285.1 108.78 298.57c56.21 13.46 112.42-68.08 168.63-95.03 56.21-27.65 112.42 0 168.63-20.56 56.21-20.56 112.42-88.63 168.63-75.16 56.21 13.47 112.42 109.2 168.63 149.62 56.21 41.12 112.42 27.65 168.63 7.09 56.21-20.57 112.42-47.51 168.63-60.98 56.21-14.19 112.42-14.19 168.63 6.38 56.21 20.56 112.42 61.69 168.63 75.16 56.21 13.47 112.42 0 168.63 0 56.21 0 112.42 13.47 140.53 20.56l28.1 6.38" stroke="url(#i2pls4ler)" stroke-opacity=".2" stroke-width="1.53"/></g><g filter="url(#j2pls4ler)"><path d="M-399.43 138.95H-296.75c34.23 0 68.46 0 102.69 9.68 34.22 9.68 68.45 29.04 102.68 14.77 34.23-14.77 68.46-63.68 102.68-97.82 34.23-34.64 68.46-54 102.69-24.45 34.22 29.04 70.5 82.2 104.72 91.88 34.23 9.69 66.41-23.61 100.64-42.97 34.23-19.87 68.46 0 102.69-14.78 34.22-14.77 68.45-63.68 102.68-54 34.23 9.68 68.45 78.46 102.68 107.5 34.23 29.55 68.46 19.87 102.69 5.1 34.22-14.78 68.45-34.14 102.68-43.82 34.23-10.2 68.46-10.2 102.68 4.58 34.23 14.78 68.46 44.33 102.69 54 34.22 9.69 68.45 0 102.68 0 34.23 0 68.45 9.69 85.57 14.78l17.11 4.59" stroke="url(#k2pls4ler)" stroke-opacity=".3" stroke-width="1.53"/></g><path transform="matrix(0 -1 -1 0 1146.08 365)" fill="url(#l2pls4ler)" d="M0 0h148v1196H0z"/><path transform="rotate(90 1146.08 -20)" fill="url(#m2pls4ler)" d="M1146.08-20h125v1196h-125z"/></g><g filter="url(#n2pls4ler)"><path d="M-904 271.62h168.63c56.21 0 112.42 0 168.63 13.47 56.21 13.47 112.42 40.42 168.63 20.56 56.21-20.56 112.42-88.63 168.63-136.14 56.21-48.22 112.42-75.16 168.63-34.04C-4.64 175.9 51.57 285.1 107.78 298.57c56.21 13.46 112.42-68.08 168.63-95.03 56.21-27.65 112.42 0 168.63-20.56 56.21-20.56 112.42-88.63 168.63-75.16 56.21 13.47 112.42 109.2 168.63 149.62 56.21 41.12 112.42 27.65 168.63 7.09 56.21-20.57 112.42-47.51 168.63-60.98 56.21-14.19 112.42-14.19 168.63 6.38 56.21 20.56 112.42 61.69 168.63 75.16 56.21 13.47 112.42 0 168.63 0 56.21 0 112.42 13.47 140.53 20.56l28.1 6.38" stroke="url(#o2pls4ler)" stroke-opacity=".5" stroke-width=".51"/></g><path d="M-399.43 138.95H-296.75c34.23 0 68.46 0 102.69 9.68 34.22 9.68 68.45 29.04 102.68 14.77 34.23-14.77 68.46-63.68 102.68-97.82 34.23-34.64 68.46-54 102.69-24.45 34.22 29.04 66.67 79.4 100.9 89.08 34.22 9.68 70.24-20.81 104.46-40.17 34.23-19.87 68.46 0 102.69-14.78 34.22-14.77 68.45-63.68 102.68-54 34.23 9.68 68.45 78.46 102.68 107.5 34.23 29.55 68.46 19.87 102.69 5.1 34.22-14.78 68.45-34.14 102.68-43.82 34.23-10.2 68.46-10.2 102.68 4.58 34.23 14.78 68.46 44.33 102.69 54 34.22 9.69 68.45 0 102.68 0 34.23 0 68.45 9.69 85.57 14.78l17.11 4.59" stroke="url(#p2pls4ler)" stroke-opacity=".5" stroke-width=".51"/></g><g clip-path="url(#q2pls4ler)"><rect x="51" y="134" width="94" height="94" rx="17.63" fill="#000"/><path d="m95.92 166.97-3.5-3.82c-.24-.27-.43-.5-.58-.7-.14-.2-.24-.38-.3-.54a1.45 1.45 0 0 1 .16-1.34c.17-.24.4-.43.68-.57.3-.14.63-.2 1-.2s.7.06.98.2c.29.14.51.32.68.56.16.25.24.52.24.83v.01c0 .24-.05.47-.16.68a2 2 0 0 1-.5.62c-.24.2-.55.4-.93.6l-.6-.6c.29-.15.51-.29.68-.42.16-.13.28-.26.35-.39a.9.9 0 0 0 .11-.43.76.76 0 0 0-.4-.7.93.93 0 0 0-.45-.1.9.9 0 0 0-.43.1.8.8 0 0 0-.3.28.78.78 0 0 0-.11.41v.01c0 .12.02.23.06.34.05.1.13.23.24.38.12.14.27.32.47.53l4.03 4.26h-1.42Zm-2.8.13c-.49 0-.91-.08-1.28-.25a1.82 1.82 0 0 1-1.15-1.74c0-.42.1-.78.33-1.1.22-.3.56-.58 1.02-.82l.42-.22.6.67-.34.18c-.28.14-.5.31-.65.52-.14.2-.22.42-.22.67v.01a1.07 1.07 0 0 0 .67 1.01c.2.1.45.15.72.15a2.02 2.02 0 0 0 1.32-.42c.18-.14.34-.3.47-.47.19-.27.33-.58.43-.93.09-.35.14-.72.14-1.12v-.19h1.06v.25c0 .55-.08 1.06-.24 1.53a3.3 3.3 0 0 1-1.8 2c-.43.18-.93.27-1.5.27Zm-20 15.87v-7.04h1.1l3.78 5.3-.87-.45h.63v-4.85h1.2v7.04h-1.08l-3.78-5.3.87.44h-.63v4.86h-1.22Zm7.1 0 2.5-7.04h1.04v1.3h-.38l-1.85 5.74h-1.32Zm1.25-1.82.33-.97h3.23l.33.97h-3.89Zm3.85 1.82-1.86-5.74v-1.3h.67l2.5 7.04h-1.31Zm5 .18c-.55 0-1.03-.09-1.43-.26-.4-.17-.72-.4-.95-.7-.23-.3-.36-.66-.39-1.06v-.07h1.22v.05c.02.2.1.37.24.51.14.15.32.27.55.35a2.38 2.38 0 0 0 1.55 0c.22-.1.39-.22.51-.37a.84.84 0 0 0 .19-.54c0-.26-.1-.46-.3-.62-.2-.16-.53-.3-.98-.4l-.76-.15c-.48-.1-.87-.24-1.18-.42-.3-.19-.52-.42-.67-.68a1.92 1.92 0 0 1-.22-.93c0-.42.11-.79.34-1.1.22-.32.53-.57.92-.74.4-.18.84-.27 1.35-.27.52 0 .97.09 1.35.26.38.18.68.41.9.71.22.3.34.64.37 1.02v.06h-1.2v-.06a.92.92 0 0 0-.24-.48 1.23 1.23 0 0 0-.48-.33c-.2-.09-.44-.13-.7-.13-.27 0-.5.04-.7.13-.2.07-.36.19-.48.33a.8.8 0 0 0-.17.52c0 .17.05.31.13.44a1 1 0 0 0 .4.33c.18.09.42.16.71.23l.76.16c.5.1.9.24 1.2.41.32.18.54.4.69.65.14.25.22.56.22.92 0 .46-.12.85-.34 1.18-.22.34-.54.6-.95.77-.41.19-.9.28-1.46.28Zm4.19-.18v-7.04h2.64c.7 0 1.3.13 1.78.4.5.28.88.68 1.14 1.2.26.52.4 1.15.4 1.88v.01c0 .75-.14 1.4-.4 1.93-.26.52-.64.93-1.13 1.2a3.6 3.6 0 0 1-1.8.42h-2.63Zm1.26-1.06h1.21c.47 0 .86-.1 1.2-.29.32-.19.57-.47.74-.84.17-.36.26-.81.26-1.34 0-.52-.09-.96-.26-1.33a1.85 1.85 0 0 0-.76-.84 2.3 2.3 0 0 0-1.18-.28h-1.21v4.92Zm5.32 1.06 2.5-7.04h1.04v1.3h-.37l-1.85 5.74h-1.32Zm1.26-1.82.33-.97h3.23l.33.97h-3.9Zm3.84 1.82-1.85-5.74v-1.3h.66l2.51 7.04h-1.32Zm5.27.18a3.01 3.01 0 0 1-2.93-1.73c-.27-.56-.4-1.21-.4-1.97 0-.77.13-1.42.4-1.97a3 3 0 0 1 1.16-1.28c.5-.3 1.09-.45 1.77-.45.68 0 1.28.15 1.77.45.5.3.88.73 1.16 1.28.27.55.4 1.2.4 1.96v.01c0 .76-.14 1.41-.4 1.96-.27.56-.65.99-1.15 1.29-.5.3-1.1.45-1.78.45Zm0-1.1c.42 0 .78-.1 1.09-.31.3-.22.54-.52.7-.91.18-.4.26-.85.26-1.38 0-.54-.08-1-.25-1.39-.17-.39-.4-.69-.71-.9-.3-.21-.67-.32-1.09-.32-.42 0-.78.1-1.09.32-.3.21-.54.51-.71.9-.17.4-.25.85-.25 1.38v.01c0 .53.08.99.24 1.38a1.87 1.87 0 0 0 1.8 1.23Zm1.84 1.65-2.2-2.94h1.24l2.19 2.94h-1.23Zm-27.93 15.45c-.51 0-.97-.09-1.38-.26-.4-.17-.75-.42-1.04-.74-.29-.32-.5-.7-.66-1.16a4.81 4.81 0 0 1-.23-1.54c0-.76.13-1.41.4-1.96a3.03 3.03 0 0 1 2.89-1.74c.54 0 1.03.1 1.45.3a2.57 2.57 0 0 1 1.58 2.02l.01.04h-1.25l-.01-.05a1.6 1.6 0 0 0-.64-.9c-.3-.21-.69-.32-1.14-.32a1.82 1.82 0 0 0-1.76 1.22c-.17.38-.25.84-.25 1.37v.01c0 .4.05.77.14 1.09.1.32.23.6.41.82a1.82 1.82 0 0 0 1.5.7c.36 0 .67-.06.94-.2.27-.14.49-.34.64-.59.16-.25.24-.54.24-.87v-.15h-1.68v-.96h2.92v.88c0 .46-.08.87-.22 1.24a2.61 2.61 0 0 1-1.6 1.54c-.37.14-.8.2-1.26.2Zm4.57-.18v-7.04h1.26v7.04h-1.26Zm3.02 0v-7.04h2.64c.7 0 1.3.13 1.8.4.49.28.86.68 1.12 1.2.27.52.4 1.15.4 1.88v.01c0 .75-.13 1.4-.39 1.93-.26.52-.64.93-1.13 1.2-.5.28-1.1.42-1.8.42h-2.64Zm1.26-1.06h1.22c.46 0 .86-.1 1.19-.29.33-.19.58-.47.75-.84.17-.36.26-.81.26-1.34 0-.52-.1-.96-.27-1.33a1.86 1.86 0 0 0-.75-.84 2.3 2.3 0 0 0-1.18-.28h-1.22v4.92Zm8.62 1.24c-.55 0-1.03-.09-1.43-.26-.4-.17-.72-.4-.95-.7-.23-.3-.36-.66-.39-1.06v-.07h1.22v.05c.02.2.1.37.24.51.14.15.32.27.55.35a2.38 2.38 0 0 0 1.55 0c.22-.1.39-.22.51-.37a.85.85 0 0 0 .19-.54c0-.26-.1-.46-.3-.62-.2-.16-.53-.3-.98-.4l-.76-.15c-.48-.1-.87-.24-1.18-.42-.3-.19-.52-.42-.67-.68a1.92 1.92 0 0 1-.22-.93c0-.42.11-.79.34-1.1.22-.32.53-.57.92-.74.4-.18.84-.27 1.35-.27.52 0 .97.09 1.35.26.38.18.68.41.9.71.22.3.34.64.37 1.02v.06h-1.2v-.06a.92.92 0 0 0-.24-.48 1.23 1.23 0 0 0-.48-.33c-.2-.09-.44-.13-.7-.13-.27 0-.5.04-.7.13-.2.07-.36.19-.47.33a.8.8 0 0 0-.18.52c0 .17.05.31.13.44a1 1 0 0 0 .4.33c.18.09.42.16.71.23l.76.16c.5.1.9.24 1.2.41.32.18.54.4.69.65.14.25.22.56.22.92 0 .46-.12.85-.34 1.18-.22.34-.54.6-.95.77-.41.19-.9.28-1.46.28Z" fill="#fff"/><g opacity=".7" filter="url(#r2pls4ler)" fill="#fff"><path d="m95.23 168.21-4.53-4.94c-.33-.36-.6-.68-.8-.95a3.3 3.3 0 0 1-.43-.74 2.04 2.04 0 0 1-.14-.68v-.01c0-.41.11-.78.33-1.1.22-.32.52-.57.9-.76.4-.19.83-.28 1.32-.28.49 0 .92.1 1.29.27.38.18.68.43.9.75.2.31.31.68.31 1.1 0 .34-.08.65-.23.95-.16.3-.42.58-.77.85-.34.27-.8.55-1.37.84l-.78-.8c.43-.2.77-.4 1.02-.58.26-.18.45-.37.56-.56.12-.19.18-.4.18-.61v-.01c0-.21-.05-.4-.14-.56a1 1 0 0 0-.4-.37 1.17 1.17 0 0 0-.57-.14c-.21 0-.4.05-.58.15a1.03 1.03 0 0 0-.54.93c0 .16.04.33.12.5.08.15.2.33.37.53.16.2.38.44.65.73l5.18 5.46v.03h-1.85Zm-3.7.17c-.64 0-1.2-.1-1.68-.33a2.4 2.4 0 0 1-1.52-2.29c0-.54.15-1.01.44-1.43.3-.42.75-.79 1.36-1.12l.8-.43.83.85-.73.42c-.41.23-.7.47-.89.73-.18.25-.27.54-.27.85a1.4 1.4 0 0 0 .87 1.34c.28.12.6.18.96.18.34 0 .66-.04.95-.14a2.73 2.73 0 0 0 1.4-1.01c.25-.34.44-.73.56-1.19.13-.46.19-.97.19-1.55v-.28h1.4v.34c0 .77-.11 1.45-.32 2.06A4.13 4.13 0 0 1 93.5 168c-.58.26-1.24.38-1.97.38ZM66.2 183.64v-9.31h1.48l5.37 7.68-1.5-1.17h.73v-6.52h1.65v9.32h-1.48l-5.37-7.7 1.49 1.17h-.73v6.53H66.2ZM75.06 183.64l3.33-9.31h1.4V176h-.49l-2.5 7.64h-1.74Zm1.69-2.4.44-1.3h4.27l.44 1.3h-5.15Zm5.1 2.4-2.5-7.64v-1.68h.91l3.33 9.32h-1.74ZM87.89 183.82a5 5 0 0 1-1.87-.32 2.96 2.96 0 0 1-1.27-.93 2.6 2.6 0 0 1-.51-1.43l-.01-.1h1.6v.08c.05.26.16.5.35.69.18.2.43.34.73.45.3.1.65.16 1.04.16s.72-.06 1-.16c.3-.12.52-.27.67-.47.16-.2.24-.44.24-.7v-.01a1 1 0 0 0-.4-.83c-.25-.2-.68-.37-1.29-.5l-1-.2a5.1 5.1 0 0 1-1.53-.55c-.4-.24-.7-.53-.9-.87-.2-.35-.3-.75-.3-1.22 0-.55.15-1.03.44-1.44.3-.42.7-.74 1.23-.97a4.32 4.32 0 0 1 1.78-.35c.68 0 1.27.11 1.78.34.5.22.9.53 1.2.93.28.4.45.87.48 1.4v.1h-1.59l-.01-.08c-.04-.27-.14-.5-.3-.69a1.5 1.5 0 0 0-.64-.44c-.27-.1-.58-.16-.93-.16-.36 0-.67.05-.94.16-.26.1-.47.25-.61.44-.15.2-.22.41-.22.67 0 .22.06.4.17.57.12.17.3.3.54.42.24.12.55.22.92.3l1 .2c.66.14 1.18.32 1.6.55.4.23.7.51.9.86.2.34.3.75.3 1.23 0 .59-.15 1.1-.45 1.52-.29.44-.7.77-1.25 1-.54.23-1.2.35-1.95.35ZM92.93 183.64v-9.31h3.41c.93 0 1.72.17 2.38.54.66.36 1.16.88 1.51 1.57.35.7.53 1.53.53 2.5v.02c0 .98-.17 1.82-.52 2.53-.35.7-.85 1.23-1.51 1.6-.66.37-1.46.55-2.39.55h-3.41Zm1.66-1.4h1.57c.63 0 1.16-.12 1.59-.37.43-.26.76-.63.98-1.11.23-.49.34-1.09.34-1.8 0-.7-.11-1.28-.34-1.76a2.43 2.43 0 0 0-1-1.1 3.1 3.1 0 0 0-1.57-.37h-1.57v6.51ZM101.22 183.64l3.32-9.31h1.4V176h-.49l-2.5 7.64h-1.73Zm1.68-2.4.44-1.3h4.27l.44 1.3h-5.15Zm5.1 2.4-2.5-7.64v-1.68h.91l3.33 9.32H108ZM114.58 183.82c-.9 0-1.7-.2-2.35-.59a4 4 0 0 1-1.54-1.67 5.75 5.75 0 0 1-.53-2.57v-.02c0-.99.18-1.84.54-2.56.36-.72.87-1.28 1.53-1.67.66-.4 1.45-.59 2.35-.59.9 0 1.69.2 2.35.6.66.39 1.17.94 1.53 1.66.36.72.54 1.57.54 2.56v.02a5.7 5.7 0 0 1-.54 2.57 3.97 3.97 0 0 1-1.53 1.67c-.66.4-1.44.59-2.35.59Zm0-1.44a2.47 2.47 0 0 0 2.39-1.6c.22-.5.33-1.1.33-1.8s-.12-1.3-.34-1.8c-.22-.5-.53-.9-.94-1.18a2.5 2.5 0 0 0-1.44-.41c-.55 0-1.03.14-1.44.41-.4.28-.72.67-.95 1.17-.22.5-.33 1.1-.33 1.8v.02c0 .69.1 1.28.33 1.8.22.5.53.9.94 1.17.4.28.9.42 1.45.42Zm2.4 2.2-2.82-3.92h1.64l2.83 3.93H117ZM82.85 199.25c-.68 0-1.3-.12-1.84-.34-.54-.22-1-.54-1.39-.97a4.41 4.41 0 0 1-.87-1.53 6.3 6.3 0 0 1-.3-2.03c0-1 .17-1.84.53-2.56a3.9 3.9 0 0 1 1.52-1.65c.65-.4 1.43-.59 2.32-.59.73 0 1.38.13 1.93.4a3.65 3.65 0 0 1 2.07 2.6l.02.1h-1.68l-.03-.06a2.3 2.3 0 0 0-.85-1.18c-.4-.28-.88-.42-1.46-.42-.55 0-1.03.13-1.43.4-.4.27-.71.65-.93 1.15-.21.5-.32 1.1-.32 1.8 0 .54.06 1.02.19 1.44.12.42.3.78.54 1.08a2.47 2.47 0 0 0 2 .92c.47 0 .88-.1 1.24-.27a2.15 2.15 0 0 0 1.17-1.91v-.16h-2.3v-1.29h3.93v1.03c0 .63-.09 1.2-.27 1.7a3.46 3.46 0 0 1-2.09 2.06c-.5.19-1.07.28-1.7.28ZM88.42 199.07v-9.32h1.66v9.32h-1.66ZM91.88 199.07v-9.32h3.41c.93 0 1.72.19 2.38.55.66.36 1.16.88 1.51 1.57.35.7.53 1.53.53 2.5v.02c0 .98-.18 1.82-.52 2.53-.35.7-.86 1.23-1.52 1.6-.65.37-1.45.55-2.38.55h-3.41Zm1.66-1.4h1.56c.63 0 1.16-.12 1.6-.37.43-.26.76-.63.98-1.11.23-.49.34-1.09.34-1.8 0-.7-.12-1.28-.35-1.76a2.43 2.43 0 0 0-.99-1.1 3.1 3.1 0 0 0-1.58-.37h-1.56v6.51ZM103.65 199.2c-.6 0-1.11-.08-1.54-.26a2.38 2.38 0 0 1-1-.73 2.2 2.2 0 0 1-.43-1.1v-.06h1.57l.01.05c.07.3.22.52.45.68.22.16.54.24.95.24.26 0 .48-.03.67-.1a1 1 0 0 0 .44-.29c.1-.12.16-.27.16-.44 0-.22-.07-.38-.22-.5a1.7 1.7 0 0 0-.75-.32l-1.14-.25a3.8 3.8 0 0 1-1.1-.41c-.29-.18-.5-.4-.65-.65a1.8 1.8 0 0 1-.22-.9c0-.42.11-.8.34-1.1.23-.32.55-.57.97-.75.42-.18.9-.26 1.44-.26.57 0 1.06.1 1.46.28.41.19.73.44.95.76.23.31.35.66.37 1.05v.06h-1.5v-.04a1 1 0 0 0-.38-.66 1.38 1.38 0 0 0-.9-.26c-.23 0-.44.03-.62.1a.89.89 0 0 0-.4.3.7.7 0 0 0-.14.44c0 .13.03.25.1.35.06.1.16.2.3.27.16.08.35.15.59.2l1.14.25c.47.1.84.24 1.13.41.3.16.5.37.64.6.13.25.2.54.2.87 0 .44-.12.82-.37 1.15a2.4 2.4 0 0 1-1.02.76c-.44.18-.94.27-1.5.27Z"/></g></g><rect x="51.5" y="134.5" width="93" height="93" rx="17.13" stroke="url(#s2pls4ler)"/><rect x="51.5" y="134.5" width="93" height="93" rx="17.13" stroke="#000" stroke-opacity=".3"/><rect x="518.5" y="145.5" width="75" height="75" rx="17.1" fill="#000"/><path d="m560.15 175-3.55-3.88c-.25-.28-.45-.51-.6-.71a2.5 2.5 0 0 1-.31-.55 1.49 1.49 0 0 1-.09-.5v-.01c0-.32.08-.6.25-.85.17-.25.4-.44.7-.58.3-.14.63-.2 1-.2.39 0 .72.06 1.01.2.3.14.52.33.68.58.17.24.26.52.26.83v.01c0 .25-.06.48-.17.7-.1.2-.27.42-.51.62s-.55.4-.94.61l-.6-.61c.28-.15.51-.29.68-.42.16-.13.28-.26.36-.4a.9.9 0 0 0 .1-.43v-.01a.8.8 0 0 0-.1-.42.76.76 0 0 0-.3-.29.93.93 0 0 0-.46-.1.9.9 0 0 0-.44.1.8.8 0 0 0-.3.29.88.88 0 0 0-.04.77c.04.11.12.24.24.38.11.15.27.33.47.54l4.1 4.33h-1.44Zm-2.85.13c-.5 0-.93-.08-1.3-.25-.37-.17-.66-.4-.87-.7-.2-.3-.3-.66-.3-1.06v-.01c0-.42.11-.8.33-1.1.23-.33.58-.6 1.05-.85l.42-.22.61.68-.35.18c-.28.14-.5.31-.65.52-.15.2-.23.44-.23.7a1.09 1.09 0 0 0 .68 1.03c.2.1.45.14.73.14a2.05 2.05 0 0 0 1.34-.43c.19-.13.34-.29.47-.47.2-.27.35-.59.44-.94.1-.36.14-.74.14-1.14v-.2h1.08v.26c0 .56-.08 1.08-.24 1.56a3.35 3.35 0 0 1-1.82 2.02c-.44.19-.95.28-1.53.28ZM545.13 187v-7.15h1.1l3.85 5.38-.89-.46h.64v-4.92h1.23V187h-1.1l-3.84-5.38.88.45h-.64V187h-1.23Zm9.7 0v-2.82l-2.5-4.33h1.4l1.7 3.06h.08l1.7-3.06h1.4l-2.5 4.33V187h-1.27Zm7.34.18c-.56 0-1.04-.09-1.45-.26-.4-.17-.73-.41-.96-.72-.24-.3-.37-.66-.4-1.07v-.07h1.24v.05c.02.2.1.37.24.52.14.15.33.27.56.35a2.43 2.43 0 0 0 1.57 0c.22-.1.4-.22.52-.37a.85.85 0 0 0 .19-.55c0-.26-.1-.47-.3-.63a2.4 2.4 0 0 0-1-.4l-.77-.16c-.48-.1-.88-.24-1.2-.43-.3-.19-.53-.42-.68-.69a1.94 1.94 0 0 1-.22-.94c0-.43.12-.8.34-1.12.23-.32.54-.57.94-.75.4-.18.86-.27 1.37-.27.53 0 .99.09 1.38.27.38.17.69.41.9.72.23.3.35.64.38 1.03v.06h-1.22v-.06a.93.93 0 0 0-.24-.49 1.26 1.26 0 0 0-.49-.34c-.2-.08-.44-.12-.72-.12-.26 0-.5.04-.7.12-.2.08-.36.2-.48.34a.82.82 0 0 0-.18.53c0 .17.05.32.13.45.09.13.22.24.4.33.2.09.43.17.73.23l.77.16c.5.11.91.25 1.22.43.32.17.55.39.7.65.14.26.22.57.22.93a2.08 2.08 0 0 1-1.31 2c-.42.18-.91.27-1.48.27Zm4.25-.18v-7.15h4.63v1.07h-3.35v1.94h3.17v1.02h-3.17v2.04h3.35V187h-4.63Zm-19.61 11 2.54-7.15h1.06v1.33h-.38l-1.88 5.82h-1.34Zm1.28-1.85.33-.99h3.28l.33 1h-3.94Zm3.9 1.85-1.88-5.82v-1.33h.67l2.55 7.15h-1.34Zm2.46 0v-5.42h1.24v.83h.08c.1-.29.26-.51.5-.67.24-.17.54-.25.9-.25.09 0 .18 0 .27.02l.22.04v1.1l-.3-.04c-.1-.02-.2-.02-.31-.02-.27 0-.51.05-.72.15-.2.1-.36.25-.47.44-.12.2-.17.41-.17.67V198h-1.24Zm6.44.1c-.55 0-1.01-.1-1.4-.33a2.2 2.2 0 0 1-.89-.97c-.2-.42-.3-.93-.3-1.52 0-.6.1-1.1.3-1.5.2-.43.5-.74.89-.97.39-.22.85-.33 1.4-.33.46 0 .86.08 1.2.24.33.16.6.38.8.66.19.29.31.62.36 1v.01h-1.17v-.01a1.13 1.13 0 0 0-.39-.65 1.2 1.2 0 0 0-.8-.26c-.28 0-.52.07-.73.22-.2.14-.35.34-.45.61-.1.27-.16.6-.16.97v.01c0 .39.05.72.16.99.1.27.26.48.46.63.2.14.44.2.72.2.32 0 .58-.06.77-.21.2-.15.34-.36.41-.64l.01-.03h1.16v.04c-.06.37-.2.7-.39.97-.2.28-.46.5-.78.65-.33.15-.72.23-1.18.23Zm5.03-.01c-.34 0-.64-.07-.91-.2a1.56 1.56 0 0 1-.64-.56 1.6 1.6 0 0 1-.23-.86v-.01a1.42 1.42 0 0 1 .94-1.38c.3-.13.68-.21 1.12-.23l2-.13v.82l-1.82.12c-.35.02-.6.09-.77.21a.62.62 0 0 0-.25.53c0 .24.09.42.26.55.18.13.4.2.68.2.25 0 .47-.06.67-.16.2-.1.34-.23.46-.4.1-.17.17-.36.17-.58v-1.71c0-.27-.1-.48-.26-.62-.17-.15-.43-.22-.77-.22-.28 0-.5.05-.69.15-.17.1-.3.23-.36.4v.03h-1.17V194c.05-.3.17-.57.37-.8.2-.23.46-.4.78-.53.33-.13.7-.2 1.13-.2.47 0 .87.08 1.2.23.32.14.56.35.73.62.17.27.26.6.26.98v3.7h-1.23v-.74h-.08a1.67 1.67 0 0 1-.92.73c-.2.07-.42.1-.67.1Z" fill="#fff"/><g filter="url(#t2pls4ler)" fill="#fff"><path d="m560.15 175-3.55-3.88c-.25-.28-.45-.51-.6-.71a2.5 2.5 0 0 1-.31-.55 1.46 1.46 0 0 1-.09-.5v-.01c0-.32.08-.6.25-.85.17-.25.4-.44.7-.58.3-.14.63-.2 1-.2.38 0 .72.06 1.01.2.3.14.52.33.68.58.17.24.26.52.26.83v.01c0 .25-.06.48-.17.7-.1.2-.27.42-.51.62s-.55.4-.94.61l-.6-.61c.28-.15.51-.29.68-.42.16-.13.28-.26.36-.4a.9.9 0 0 0 .1-.43v-.01a.77.77 0 0 0-.41-.7.93.93 0 0 0-.45-.11.91.91 0 0 0-.44.1.8.8 0 0 0-.3.29.9.9 0 0 0-.04.77c.04.11.12.24.24.38.11.15.27.33.47.54l4.1 4.33h-1.44Zm-2.85.13c-.5 0-.93-.08-1.3-.25-.37-.17-.66-.4-.87-.7-.2-.3-.3-.66-.3-1.06v-.01c0-.42.11-.8.33-1.1.23-.33.58-.6 1.05-.85l.42-.22.61.68-.35.18c-.28.14-.5.31-.65.52-.15.2-.23.44-.23.7a1.1 1.1 0 0 0 .68 1.03c.2.1.45.14.73.14a2.05 2.05 0 0 0 1.34-.43c.19-.13.34-.29.47-.47.2-.27.34-.59.44-.94.1-.36.14-.74.14-1.14v-.2h1.08v.26c0 .56-.08 1.08-.24 1.56a3.35 3.35 0 0 1-1.82 2.02c-.44.19-.95.28-1.53.28ZM545.13 187v-7.15h1.1l3.85 5.38-.89-.46h.64v-4.92h1.23V187h-1.1l-3.84-5.38.88.45h-.64V187h-1.23ZM554.83 187v-2.82l-2.5-4.33h1.4l1.7 3.06h.08l1.7-3.06h1.4l-2.5 4.33V187h-1.28ZM562.17 187.18c-.56 0-1.04-.09-1.45-.26-.4-.17-.73-.41-.96-.72-.24-.3-.37-.66-.4-1.07v-.07h1.24v.05c.02.2.1.37.24.52.14.15.33.27.56.35a2.43 2.43 0 0 0 1.57 0c.22-.1.4-.22.52-.37a.85.85 0 0 0 .19-.55c0-.26-.1-.47-.3-.63a2.4 2.4 0 0 0-1-.4l-.77-.16a3.9 3.9 0 0 1-1.2-.43c-.3-.19-.53-.42-.68-.69a1.94 1.94 0 0 1-.22-.94c0-.43.12-.8.34-1.12.23-.32.54-.57.94-.75.4-.18.86-.27 1.37-.27.53 0 .99.09 1.38.27.38.17.69.41.9.72.23.3.35.64.38 1.03v.06h-1.22v-.06a.93.93 0 0 0-.24-.49 1.25 1.25 0 0 0-.49-.34c-.2-.08-.44-.12-.72-.12-.26 0-.5.04-.7.12-.2.08-.36.2-.48.34a.82.82 0 0 0-.18.53c0 .17.05.32.13.45.09.13.22.24.4.33.2.09.43.17.73.23l.77.16c.5.11.91.25 1.22.43.32.17.55.39.7.65.14.26.22.57.22.93 0 .47-.12.87-.35 1.2-.22.34-.54.6-.96.8-.42.18-.91.27-1.48.27ZM566.42 187v-7.15h4.63v1.07h-3.35v1.94h3.17v1.02h-3.17v2.04h3.35V187h-4.63ZM546.8 198l2.55-7.15h1.06v1.33h-.38l-1.88 5.82h-1.34Zm1.29-1.85.33-.99h3.28l.33 1h-3.94Zm3.9 1.85-1.88-5.82v-1.33h.67l2.55 7.15h-1.34ZM554.45 198v-5.42h1.24v.83h.08c.1-.29.26-.51.5-.67.24-.17.54-.25.9-.25.09 0 .18 0 .27.02l.22.04v1.1l-.3-.04c-.1-.02-.2-.02-.31-.02-.27 0-.51.05-.72.15-.2.1-.36.25-.47.44-.12.2-.17.41-.17.67V198h-1.24ZM560.89 198.1c-.55 0-1.01-.1-1.4-.33a2.2 2.2 0 0 1-.89-.97c-.2-.42-.3-.93-.3-1.52 0-.6.1-1.1.3-1.5.2-.43.5-.74.89-.97.39-.22.85-.33 1.4-.33.46 0 .86.08 1.2.24.33.16.6.38.79.66.2.29.32.62.37 1v.01h-1.17v-.01a1.13 1.13 0 0 0-.39-.65 1.2 1.2 0 0 0-.8-.26c-.28 0-.52.07-.73.22-.2.14-.35.34-.45.61-.1.27-.16.6-.16.97v.01c0 .39.05.72.16.99.1.27.26.48.46.63.2.14.44.2.72.2.32 0 .58-.06.77-.21.2-.15.34-.36.41-.64l.01-.03h1.16v.04c-.06.37-.2.7-.39.97-.2.28-.46.5-.78.65-.33.15-.72.23-1.18.23ZM565.92 198.09c-.34 0-.64-.07-.91-.2a1.56 1.56 0 0 1-.64-.56 1.6 1.6 0 0 1-.23-.86v-.01a1.42 1.42 0 0 1 .94-1.38c.3-.13.68-.21 1.12-.23l2-.13v.82l-1.82.12c-.35.02-.6.09-.77.21a.62.62 0 0 0-.25.53c0 .24.09.42.26.55.18.13.4.2.68.2.25 0 .47-.06.67-.16.2-.1.34-.23.46-.4.1-.17.17-.36.17-.58v-1.71c0-.27-.1-.48-.26-.62-.18-.15-.43-.22-.77-.22-.28 0-.5.05-.69.15-.17.1-.3.23-.36.4v.03h-1.17V194c.05-.3.17-.57.37-.8.2-.23.46-.4.78-.53.33-.13.7-.2 1.13-.2.47 0 .87.08 1.2.23.32.14.56.35.73.62.17.27.26.6.26.98v3.7h-1.23v-.74h-.08a1.68 1.68 0 0 1-.92.73c-.2.07-.42.1-.67.1Z"/></g><rect x="518.5" y="145.5" width="75" height="75" rx="17.1" stroke="url(#u2pls4ler)"/><rect x="518.5" y="145.5" width="75" height="75" rx="17.1" stroke="#000" stroke-opacity=".3"/><g clip-path="url(#v2pls4ler)"><rect x="439" y="137" width="94" height="94" rx="16.41" fill="#000"/><path fill-rule="evenodd" clip-rule="evenodd" d="M494.71 197.85c0 2.48 1.65 4.01 4.3 4.01 1.28 0 2.92-.28 2.92-.28v-10.92h-1.73v3.1c-.58-.07-1-.08-1.31-.08h-.2c-2.46 0-3.98 1.6-3.98 4.17Zm1.8-.04c0-1.86.81-2.77 2.49-2.77.34 0 .72.04 1.2.11v5.3c-.48.05-.82.06-1.13.06-1.58 0-2.56-1.03-2.56-2.7Z" fill="#fff"/><path d="m470.63 193.46 4.68 8.15h2.3V191.3h-1.66v8.08l-4.67-8.08H469v10.32h1.63v-8.15ZM490.2 201.77c-.79 0-1.6-.09-2.59-.27l-.1-.03v-1.44l.15.04c.86.18 1.6.34 2.35.34.6 0 2-.1 2-.98 0-.74-.96-.93-1.74-1.08h-.05a7.1 7.1 0 0 1-.4-.1c-1.14-.29-2.35-.73-2.35-2.26 0-1.49 1.18-2.34 3.23-2.34.99 0 1.7.1 2.28.19l.28.04v1.4l-.15-.03c-.65-.12-1.41-.24-2.15-.24-.81 0-1.78.15-1.78.88 0 .6.79.77 1.7.97 1.3.28 2.89.63 2.89 2.38 0 1.61-1.3 2.53-3.57 2.53Z" fill="#fff"/><path fill-rule="evenodd" clip-rule="evenodd" d="M503.34 199.17c0 2.29 1.66 2.6 3.45 2.6.92 0 2-.02 3.36-.17l.12-.01v-5.31c0-2.44-1.66-2.63-3.63-2.63-.9 0-1.77.09-2.68.27l-.1.02v1.38l.14-.02c.8-.15 1.69-.3 2.49-.3 2.02 0 2.04.33 2.04 1.72h-.03a47.4 47.4 0 0 0-1.06-.04c-1.54 0-4.1 0-4.1 2.49Zm1.66.04c0-1.08.92-1.3 2.4-1.3l1.24.05v2.54c-.23.02-.96.07-1.38.07-1.1 0-2.26-.1-2.26-1.36ZM482.5 201.77c-1.8 0-3.45-.31-3.45-2.6 0-2.49 2.56-2.49 4.1-2.49l1.07.04h.02c0-1.4-.02-1.72-2.04-1.72-.8 0-1.7.16-2.48.3l-.15.02v-1.38l.1-.02c.91-.18 1.79-.27 2.69-.27 1.96 0 3.62.2 3.62 2.63v5.3l-.12.02c-1.36.15-2.44.17-3.36.17Zm.6-3.86c-1.47 0-2.39.22-2.39 1.3 0 1.25 1.17 1.36 2.27 1.36.4 0 1.14-.05 1.37-.07v-2.54l-1.25-.05ZM517.16 201.73v3.4l1.78-.8V193.8l-.99-.05a32.9 32.9 0 0 0-1.7-.07c-1.29 0-2.15.18-2.88.62-1.46.88-1.67 2.5-1.67 3.4 0 1.79.78 3.18 2.1 3.73.6.25 1.35.4 2.04.4.29 0 .65 0 1.32-.1Zm-3.68-4.03c0-1.76.89-2.66 2.65-2.66.28 0 .52.01 1.05.05v5.28c-.68.08-.98.08-1.25.08-1.12 0-2.45-.47-2.45-2.75Z" fill="#fff"/><path fill-rule="evenodd" clip-rule="evenodd" d="m500.02 163-5.72 15.72c-.14.4-.5.67-.92.72h6.05c.47 0 .88-.3 1.03-.72L506.2 163h-6.17Zm-7.14 16.2c.35 0 .66-.17.85-.43.02-.03.09-.13.14-.26l2.1-5.77-1.23-3.37a1.04 1.04 0 0 0-1.94.06l-2.1 5.77 1.23 3.38c.16.37.53.63.95.63Zm-5.67-10.7h6.12a1.1 1.1 0 0 0-.98.72l-5.73 15.72h-6.16l5.72-15.72a1.1 1.1 0 0 1 1.03-.72Z" fill="#0090BA"/><g filter="url(#w2pls4ler)" fill="#fff"><path fill-rule="evenodd" clip-rule="evenodd" d="M494.71 197.85c0 2.48 1.65 4.01 4.3 4.01 1.28 0 2.92-.28 2.92-.28v-10.92h-1.73v3.1c-.58-.07-1-.08-1.31-.08h-.2c-2.46 0-3.98 1.6-3.98 4.17Zm1.8-.04c0-1.86.81-2.77 2.49-2.77.34 0 .72.04 1.2.11v5.3c-.48.05-.82.06-1.13.06-1.58 0-2.56-1.03-2.56-2.7Z"/><path d="m470.63 193.46 4.68 8.15h2.3V191.3h-1.66v8.08l-4.67-8.08H469v10.32h1.63v-8.15ZM490.2 201.77c-.79 0-1.6-.09-2.59-.27l-.1-.03v-1.44l.15.04c.86.18 1.6.34 2.35.34.6 0 2-.1 2-.98 0-.74-.96-.93-1.74-1.08h-.05a7.1 7.1 0 0 1-.4-.1c-1.14-.29-2.35-.73-2.35-2.26 0-1.49 1.18-2.34 3.23-2.34.99 0 1.7.1 2.28.19l.28.04v1.4l-.15-.03c-.65-.12-1.41-.24-2.15-.24-.81 0-1.78.15-1.78.88 0 .6.79.77 1.7.97 1.3.28 2.89.63 2.89 2.38 0 1.61-1.3 2.53-3.57 2.53Z"/><path fill-rule="evenodd" clip-rule="evenodd" d="M503.34 199.17c0 2.29 1.66 2.6 3.45 2.6.92 0 2-.02 3.36-.17l.12-.01v-5.31c0-2.44-1.66-2.63-3.63-2.63-.9 0-1.77.09-2.68.27l-.1.02v1.38l.14-.02c.8-.15 1.69-.3 2.49-.3 2.02 0 2.04.33 2.04 1.72h-.03a47.4 47.4 0 0 0-1.06-.04c-1.54 0-4.1 0-4.1 2.49Zm1.66.04c0-1.08.92-1.3 2.4-1.3l1.24.05v2.54c-.23.02-.96.07-1.38.07-1.1 0-2.26-.1-2.26-1.36ZM482.5 201.77c-1.8 0-3.45-.31-3.45-2.6 0-2.49 2.56-2.49 4.1-2.49l1.07.04h.02c0-1.4-.02-1.72-2.04-1.72-.8 0-1.7.16-2.48.3l-.15.02v-1.38l.1-.02c.91-.18 1.79-.27 2.69-.27 1.96 0 3.62.2 3.62 2.63v5.3l-.12.02c-1.36.15-2.44.17-3.36.17Zm.6-3.86c-1.47 0-2.39.22-2.39 1.3 0 1.25 1.17 1.36 2.27 1.36.4 0 1.14-.05 1.37-.07v-2.54l-1.25-.05ZM517.16 201.73v3.4l1.78-.8V193.8l-.99-.05a32.9 32.9 0 0 0-1.7-.07c-1.29 0-2.15.18-2.88.62-1.46.88-1.67 2.5-1.67 3.4 0 1.79.78 3.18 2.1 3.73.6.25 1.35.4 2.04.4.29 0 .65 0 1.32-.1Zm-3.68-4.03c0-1.76.89-2.66 2.65-2.66.28 0 .52.01 1.05.05v5.28c-.68.08-.98.08-1.25.08-1.12 0-2.45-.47-2.45-2.75Z"/></g><g filter="url(#x2pls4ler)"><path fill-rule="evenodd" clip-rule="evenodd" d="m500.02 163-5.72 15.72c-.14.4-.5.67-.92.72h6.05c.47 0 .88-.3 1.03-.72L506.2 163h-6.17Zm-7.14 16.2c.35 0 .66-.17.85-.43.02-.03.09-.13.14-.26l2.1-5.77-1.23-3.37a1.04 1.04 0 0 0-1.94.06l-2.1 5.77 1.23 3.38c.16.37.53.63.95.63Zm-5.67-10.7h6.12a1.1 1.1 0 0 0-.98.72l-5.73 15.72h-6.16l5.72-15.72a1.1 1.1 0 0 1 1.03-.72Z" fill="#0090BA"/></g></g><rect x="439.5" y="137.5" width="93" height="93" rx="15.91" stroke="url(#y2pls4ler)"/><rect x="439.5" y="137.5" width="93" height="93" rx="15.91" stroke="#000" stroke-opacity=".3"/><g clip-path="url(#z2pls4ler)"><rect x="129" y="125" width="112" height="112" rx="19.71" fill="#000"/><path d="M147.38 190.1h-1.73v16.49h1.66v-13.33l5.52 8.8h.09l5.52-8.82v13.35h1.72V190.1h-1.72l-5.54 9-5.52-9Z" fill="#474747"/><path fill-rule="evenodd" clip-rule="evenodd" d="M161.38 203v.05c0 2.5 2.07 3.8 4.17 3.78a4.76 4.76 0 0 0 4.03-2.07v1.82h1.64v-7.44c0-1.55-.37-2.7-1.16-3.57-.8-.88-2.04-1.34-3.62-1.34-1.4 0-2.8.35-4.07 1.03l.5 1.48a7.27 7.27 0 0 1 3.4-.87c2.1 0 3.3 1.13 3.3 3.3v.38c-1.1-.36-2.25-.54-3.41-.52-2.83 0-4.78 1.36-4.78 3.97Zm8.22-2v1.1c0 1.94-1.65 3.28-3.72 3.3-1.51 0-2.81-.9-2.81-2.44v-.04c0-1.46 1.18-2.45 3.26-2.45 1.1 0 2.2.18 3.27.52Z" fill="#474747"/><path d="M174.38 194.4h-1.66v12.17h1.66v-4.85c0-3.7 2-5.58 4.44-5.58h.13v-1.95c-2.12-.1-3.74 1.36-4.57 3.38v-3.17ZM182.07 189.4h-1.67v17.17h1.67v-3.18l2.27-2.5 4 5.68h2l-4.85-6.95 4.69-5.22h-2.07l-6.04 6.86V189.4Z" fill="#474747"/><path fill-rule="evenodd" clip-rule="evenodd" d="M198.75 203.57a4.48 4.48 0 0 1-3.53 1.72c-1.96 0-3.7-1.47-3.94-4.05h8.87c.03-.28.03-.47.03-.64 0-3.57-1.91-6.44-5.22-6.44-3.09 0-5.36 2.82-5.36 6.35 0 3.8 2.5 6.36 5.58 6.36 1.77.05 3.48-.8 4.6-2.28l-1.03-1.02Zm-3.83-7.89c2.2 0 3.37 1.89 3.57 4.1h-7.21c.24-2.35 1.71-4.1 3.64-4.1Z" fill="#474747"/><path d="M202.85 190.74h-1.66v12.6c0 2.47 1.36 3.44 3.16 3.44.7.02 1.39-.16 2-.51v-1.56a3.3 3.3 0 0 1-1.61.43c-1.13 0-1.89-.55-1.89-2.03v-7.1h3.55v-1.6h-3.55v-3.67ZM208 203.74l-.84 1.3a7.29 7.29 0 0 0 4.65 1.79c2.23 0 3.98-1.34 3.98-3.65v-.05c0-2.18-1.86-2.91-3.6-3.48l-.04-.01c-1.47-.49-2.83-.94-2.83-2.08v-.05c0-1.01.87-1.77 2.17-1.77 1.18.05 2.33.46 3.3 1.18l.76-1.36a7.16 7.16 0 0 0-4.02-1.34c-2.21 0-3.81 1.38-3.81 3.48v.04c0 2.23 1.97 2.9 3.7 3.43 1.47.45 2.8.92 2.8 2.14v.05c0 1.18-.98 1.93-2.32 1.93a6.2 6.2 0 0 1-3.9-1.55Z" fill="#474747"/><path d="M192.39 173.23H188l.7-2.1h4.4l-.71 2.1Z" fill="#00A88F"/><path d="M196.78 173.23h-4.4l.71-2.1h4.39l-.7 2.1Z" fill="#F78F1E"/><path d="M201.17 173.23h-4.39l.7-2.1h4.4l-.71 2.1Z" fill="#EC008C"/><path d="M178.38 161.25c-4.85 0-6.44.98-6.67 4.07h-1.28v-6.04H193v6.04h-1.32c-.27-3.1-1.55-4.07-6.71-4.07h-1.2v9.95h-4.15v-9.95h-1.24Zm-11.77 11.98h4.46c-.43 7.56-5.95 12.47-12.83 12.47-6.78 0-12.4-4.91-12.84-12.47h4.52c.56 6.78 4.59 10.48 8.77 10.48 4.9 0 7.73-4.68 7.92-10.48Zm-16.75-2.03h-4.47c.51-8.34 6.9-12.4 12.92-12.4 6.38 0 12.26 4.64 12.75 12.4h-4.51c-.45-5.12-3.25-10.4-8.74-10.4-5.64 0-7.81 5.74-7.94 10.4Zm36.93 12.5h1.08v1.54H175.5v-1.53h1.1c2.91 0 3.02-1.05 3.02-3.46v-7.02h4.16v7.02c0 2.79.38 3.46 3.02 3.46Zm10.18-14.03h-4.43c1-5.4 5.1-10.85 13.65-10.85 3.16.12 6.31.67 9.34 1.65v6.66h-1.31c-.4-2.75-2.33-6.33-8.08-6.33-5.52 0-8.46 3.6-9.17 8.87Zm-4.44 5.1h4.43c.65 4.97 3.35 8.94 9.18 8.94 4.97 0 7.4-2.4 8.08-6.37h1.31v6.75c-3.02 1-6.14 1.53-9.3 1.6-8.86 0-12.75-5.68-13.7-10.93Z" fill="#fff"/><g filter="url(#aa2pls4ler)"><path d="M147.4 189.92h-1.73v16.37h1.66v-13.24l5.52 8.74h.09l5.51-8.76v13.26h1.73v-16.37h-1.73l-5.54 8.94-5.51-8.94Z" fill="#474747"/><path fill-rule="evenodd" clip-rule="evenodd" d="M161.39 202.73v.05c0 2.47 2.07 3.76 4.17 3.75a4.76 4.76 0 0 0 4.02-2.06v1.81h1.65v-7.38c0-1.55-.37-2.7-1.17-3.56-.8-.87-2.03-1.33-3.6-1.33-1.42 0-2.8.35-4.08 1.03l.5 1.47a7.3 7.3 0 0 1 3.4-.87c2.1 0 3.3 1.13 3.3 3.28v.38c-1.1-.36-2.25-.54-3.41-.52-2.83 0-4.78 1.35-4.78 3.95Zm8.22-2v1.1c0 1.93-1.65 3.26-3.73 3.27-1.5 0-2.8-.89-2.8-2.41v-.05c0-1.44 1.18-2.43 3.26-2.43 1.1 0 2.2.18 3.26.52Z" fill="#474747"/><path d="M174.39 194.18h-1.67v12.09h1.67v-4.82c0-3.67 1.98-5.54 4.43-5.54h.13v-1.94c-2.12-.1-3.74 1.35-4.56 3.37v-3.16ZM182.07 189.22h-1.67v17.05h1.67v-3.16l2.27-2.48 4 5.64h2l-4.86-6.9 4.7-5.2h-2.08l-6.03 6.83v-11.78Z" fill="#474747"/><path fill-rule="evenodd" clip-rule="evenodd" d="M198.74 203.3a4.49 4.49 0 0 1-3.53 1.7c-1.96 0-3.7-1.46-3.94-4.02h8.87c.02-.28.02-.47.02-.63 0-3.56-1.9-6.4-5.2-6.4-3.1 0-5.37 2.8-5.37 6.3 0 3.77 2.5 6.32 5.58 6.32 1.77.05 3.48-.8 4.6-2.27l-1.03-1Zm-3.83-7.84c2.2 0 3.37 1.87 3.56 4.07h-7.2c.24-2.34 1.71-4.07 3.64-4.07Z" fill="#474747"/><path d="M202.84 190.55h-1.67v12.52c0 2.45 1.37 3.41 3.16 3.41.7.02 1.4-.16 2.01-.5v-1.55c-.5.28-1.06.42-1.62.42-1.13 0-1.88-.54-1.88-2.01v-7.06h3.55v-1.6h-3.55v-3.63ZM207.99 203.46l-.85 1.28a7.3 7.3 0 0 0 4.65 1.79c2.22 0 3.98-1.34 3.98-3.63v-.04c0-2.18-1.86-2.9-3.6-3.46l-.04-.02c-1.47-.48-2.83-.93-2.83-2.06v-.05c0-1 .87-1.75 2.17-1.75 1.18.05 2.33.45 3.3 1.16l.76-1.35a7.18 7.18 0 0 0-4.02-1.33c-2.2 0-3.8 1.38-3.8 3.46v.04c0 2.22 1.96 2.87 3.69 3.4 1.47.45 2.8.92 2.8 2.14v.04c0 1.18-.98 1.92-2.32 1.92a6.22 6.22 0 0 1-3.9-1.54Z" fill="#474747"/><path d="M192.38 173.15H188l.69-2.1h4.4l-.71 2.1Z" fill="#00A88F"/><path d="M196.77 173.15h-4.4l.71-2.1h4.39l-.7 2.1Z" fill="#F78F1E"/><path d="M201.16 173.15h-4.39l.7-2.1h4.4l-.71 2.1Z" fill="#EC008C"/><path d="M178.39 161.26c-4.85 0-6.44.96-6.68 4.03h-1.28v-6H193v6h-1.31c-.28-3.07-1.56-4.03-6.71-4.03h-1.2v9.88h-4.15v-9.88h-1.23Zm-11.77 11.9h4.46c-.44 7.5-5.95 12.38-12.83 12.38-6.77 0-12.4-4.88-12.83-12.39h4.52c.56 6.73 4.59 10.4 8.77 10.4 4.89 0 7.72-4.63 7.9-10.4Zm-16.74-2.02h-4.47c.52-8.3 6.9-12.31 12.91-12.31 6.38 0 12.25 4.6 12.75 12.31h-4.51c-.45-5.1-3.25-10.34-8.73-10.34-5.64 0-7.82 5.71-7.95 10.34Zm36.9 12.42h1.09v1.52H175.5v-1.52h1.09c2.91 0 3.02-1.04 3.02-3.43v-6.98h4.16v6.98c0 2.77.37 3.43 3.02 3.43Zm10.18-13.94h-4.43c1-5.36 5.1-10.78 13.64-10.78 3.16.11 6.31.66 9.34 1.64v6.61h-1.31c-.4-2.73-2.33-6.29-8.07-6.29-5.53 0-8.46 3.57-9.17 8.82Zm-4.44 5.06h4.43c.65 4.94 3.35 8.88 9.18 8.88 4.97 0 7.38-2.39 8.07-6.33h1.31v6.71a32.17 32.17 0 0 1-9.3 1.6c-8.85 0-12.74-5.66-13.69-10.86Z" fill="#fff"/></g><g style="mix-blend-mode:color-dodge" opacity=".4" filter="url(#ab2pls4ler)"><ellipse cx="9.86" cy="7.78" rx="9.86" ry="7.78" transform="scale(-1 1) rotate(-22.66 322.64 613.2)" fill="#E72899"/></g><g style="mix-blend-mode:color-dodge" opacity=".9" filter="url(#ac2pls4ler)"><ellipse cx="9.86" cy="7.78" rx="9.86" ry="7.78" transform="scale(-1 1) rotate(-22.66 326.97 591.62)" fill="#4F9B9E"/></g><g style="mix-blend-mode:screen" opacity=".2" filter="url(#ad2pls4ler)"><ellipse cx="42.93" cy="21.76" rx="42.93" ry="21.76" transform="scale(-1 1) rotate(-3.62 2057.66 3685.08)" fill="#BEBEBE" fill-opacity=".21"/></g></g><rect x="129.5" y="125.5" width="111" height="111" rx="19.21" stroke="url(#ae2pls4ler)"/><rect x="129.5" y="125.5" width="111" height="111" rx="19.21" stroke="#000" stroke-opacity=".3"/><g clip-path="url(#af2pls4ler)"><rect x="351" y="125" width="112" height="112" rx="24.14" fill="#000"/><path fill-rule="evenodd" clip-rule="evenodd" d="M432.45 189.46a4.47 4.47 0 0 1-4.47-3.7h11c.73-6.82-3.7-9.06-6.95-9.06-4.33 0-7.36 3.36-7.36 7.76s3.05 7.76 7.78 7.76a7.38 7.38 0 0 0 6.07-3l-2.16-1.81a4.67 4.67 0 0 1-3.91 2.05Zm-.06-10.03c1.34 0 3.31.91 3.64 3.94h-8.1c.53-2.52 2.18-3.94 4.46-3.94Z" fill="#fff"/><path d="m418.48 183.2-1.74-.4c-2.04-.45-2.48-.82-2.48-1.7 0-.85.89-1.64 2.57-1.64 1.49-.02 2.93.5 4.07 1.46l1.8-2.37a9.08 9.08 0 0 0-5.75-1.85c-3.48 0-5.93 2.03-5.93 4.74 0 2.12 1.44 3.5 4.37 4.07l1.72.33c1.98.4 2.71 1.13 2.71 1.98 0 1.18-1 1.73-2.68 1.76a6.09 6.09 0 0 1-4.59-1.97l-1.86 2.24c1.43 1.64 3.97 2.37 6.35 2.37 3.64 0 5.9-1.76 5.9-4.62 0-2.45-1.56-3.73-4.46-4.4ZM383.68 177.06l7.17 9.94v-9.94h2.87v14.8h-2.69l-7.16-9.95v9.95H381v-14.8h2.68ZM406.85 177.06h3.48l-5.89 8.84v5.96h-3.1v-6l-5.8-8.8h3.66l3.88 6.12 3.77-6.12Z" fill="#fff"/><path d="M437.4 168.72h10.17v10.1h4.49v-14.56H437.4v4.46Z" fill="#71C5E8"/><g filter="url(#ag2pls4ler)"><path fill-rule="evenodd" clip-rule="evenodd" d="M433.37 188.2c-2.27 0-4-1.47-4.47-3.7h11c.74-6.82-3.7-9.06-6.95-9.06-4.33 0-7.36 3.37-7.36 7.76 0 4.4 3.05 7.76 7.78 7.76a7.38 7.38 0 0 0 6.08-3l-2.17-1.81a4.68 4.68 0 0 1-3.9 2.06Zm-.06-10.03c1.34 0 3.32.91 3.65 3.94h-8.11c.53-2.52 2.18-3.94 4.46-3.94Z" fill="#DBDBDB"/><path d="m419.39 181.94-1.75-.4c-2.04-.45-2.47-.81-2.47-1.7 0-.85.88-1.64 2.56-1.64 1.5-.02 2.94.5 4.07 1.46l1.81-2.37a9.1 9.1 0 0 0-5.75-1.85c-3.5 0-5.94 2.03-5.94 4.74 0 2.12 1.44 3.5 4.38 4.07l1.71.33c1.99.4 2.72 1.13 2.72 1.98 0 1.18-1 1.73-2.69 1.76a6.1 6.1 0 0 1-4.59-1.97l-1.86 2.24c1.43 1.64 3.97 2.37 6.36 2.37 3.64 0 5.9-1.76 5.9-4.62 0-2.45-1.56-3.73-4.46-4.4ZM384.56 175.8l7.17 9.95v-9.94h2.87v14.8h-2.69l-7.17-9.96v9.95h-2.87v-14.8h2.69ZM407.75 175.8h3.48l-5.9 8.84v5.96h-3.1v-6l-5.8-8.8h3.65l3.89 6.12 3.78-6.11Z" fill="#DBDBDB"/><path d="M438.33 167.46h10.17v10.1h4.5V163h-14.67v4.46Z" fill="#71C5E8"/></g><g filter="url(#ah2pls4ler)"><ellipse cx="463.54" cy="148.57" rx="13.59" ry="21.68" transform="rotate(-55 463.54 148.57)" fill="#00B5FF"/></g></g><rect x="351.5" y="125.5" width="111" height="111" rx="23.64" stroke="url(#ai2pls4ler)"/><rect x="351.5" y="125.5" width="111" height="111" rx="23.64" stroke="#000" stroke-opacity=".3"/><g opacity=".6" filter="url(#aj2pls4ler)"><ellipse cx="579.82" cy="154.95" rx="9.2" ry="22.12" transform="rotate(-71.78 579.82 154.95)" fill="#3810CB"/></g><g filter="url(#ak2pls4ler)"><rect x="225" y="106" width="150" height="150" rx="28.13" fill="#000"/><rect x="226.88" y="107.88" width="146.25" height="146.25" rx="26.25" stroke="url(#al2pls4ler)" stroke-width="3.75"/><rect x="226.88" y="107.88" width="146.25" height="146.25" rx="26.25" stroke="#000" stroke-opacity=".2" stroke-width="3.75"/></g><g clip-path="url(#am2pls4ler)"><path fill="#F8F9FD" d="M257.53 138.53h85.84v85.84h-85.84z"/><path d="M310 157.6h33.37v-19.07H310v19.08ZM257.53 224.37h85.84V205.3h-85.84v19.07ZM310 190.99h33.37v-19.08H310V191Z" fill="#F7525F"/><path fill="#1E53E5" d="M257.53 138.53h52.46v52.46h-52.46z"/><path fill-rule="evenodd" clip-rule="evenodd" d="M269.05 144.37a.43.43 0 0 1 .8 0l1.28 3.38c.06.16.2.27.38.27l3.6.17c.4.02.56.52.25.76l-2.82 2.26c-.13.1-.19.28-.14.45l.96 3.48c.1.38-.32.7-.66.47l-3.01-1.98a.43.43 0 0 0-.47 0l-3.02 1.98a.43.43 0 0 1-.65-.47l.96-3.48a.43.43 0 0 0-.15-.45l-2.82-2.26a.43.43 0 0 1 .25-.76l3.6-.17c.18 0 .33-.11.39-.27l1.27-3.38Zm0 14.3a.43.43 0 0 1 .8 0l1.28 3.38c.06.16.2.27.38.28l3.6.17c.4.01.56.51.25.76l-2.82 2.26c-.13.1-.19.28-.14.44l.96 3.49c.1.38-.32.69-.66.47l-3.01-1.99a.43.43 0 0 0-.47 0l-3.02 2a.43.43 0 0 1-.65-.48l.96-3.48a.43.43 0 0 0-.15-.45l-2.82-2.26a.43.43 0 0 1 .25-.76l3.6-.17c.18 0 .33-.12.39-.28l1.27-3.38Zm.8 14.31a.43.43 0 0 0-.8 0l-1.27 3.38a.43.43 0 0 1-.38.28l-3.61.16a.43.43 0 0 0-.25.77l2.82 2.25c.13.11.2.29.15.45l-.96 3.49c-.1.38.32.69.65.47l3.02-1.99c.14-.1.32-.1.47 0l3.01 1.99c.34.22.76-.1.66-.47l-.96-3.49a.43.43 0 0 1 .14-.45l2.82-2.25a.43.43 0 0 0-.24-.77l-3.61-.16a.43.43 0 0 1-.38-.28l-1.28-3.38Zm13.5-28.61a.43.43 0 0 1 .81 0l1.27 3.38c.06.16.21.27.39.27l3.6.17c.4.02.56.52.25.76l-2.82 2.26c-.13.1-.2.28-.15.45l.96 3.48c.1.38-.32.7-.65.47l-3.01-1.98a.43.43 0 0 0-.48 0l-3.01 1.98a.43.43 0 0 1-.65-.47l.95-3.48a.43.43 0 0 0-.14-.45l-2.82-2.26a.43.43 0 0 1 .24-.76l3.61-.17c.17 0 .32-.11.38-.27l1.28-3.38Zm.81 14.3a.43.43 0 0 0-.8 0l-1.28 3.38a.43.43 0 0 1-.38.28l-3.6.17a.43.43 0 0 0-.25.76l2.82 2.26c.13.1.19.28.14.44l-.95 3.49c-.1.38.31.69.65.47l3.01-1.99c.15-.09.33-.09.48 0l3.01 2c.33.2.76-.1.65-.48l-.96-3.48a.43.43 0 0 1 .15-.45l2.82-2.26a.43.43 0 0 0-.25-.76l-3.6-.17a.43.43 0 0 1-.39-.28l-1.27-3.38Zm-.8 14.31a.43.43 0 0 1 .8 0l1.27 3.38c.06.16.21.27.39.28l3.6.16c.4.02.56.52.25.77l-2.82 2.25c-.13.11-.2.29-.15.45l.96 3.49c.1.38-.32.69-.65.47l-3.01-1.99a.43.43 0 0 0-.48 0l-3.01 1.99a.43.43 0 0 1-.65-.47l.95-3.49a.43.43 0 0 0-.14-.45l-2.82-2.25a.43.43 0 0 1 .24-.77l3.61-.16c.17-.01.32-.12.38-.28l1.28-3.38Zm15.1-28.61a.43.43 0 0 0-.8 0l-1.27 3.38a.43.43 0 0 1-.38.27l-3.6.17a.43.43 0 0 0-.26.76l2.82 2.26c.14.1.2.28.15.45l-.96 3.48c-.1.38.32.7.65.47l3.02-1.98c.14-.1.33-.1.47 0l3.02 1.98c.33.22.75-.09.65-.47l-.96-3.48a.43.43 0 0 1 .15-.45l2.82-2.26a.43.43 0 0 0-.25-.76l-3.6-.17a.43.43 0 0 1-.39-.27l-1.27-3.38Zm-.8 14.3a.43.43 0 0 1 .8 0l1.28 3.38c.06.16.21.27.38.28l3.61.17c.4.01.56.51.25.76l-2.82 2.26c-.14.1-.2.28-.15.44l.96 3.49c.1.38-.32.69-.65.47l-3.02-1.99a.43.43 0 0 0-.47 0l-3.02 2a.43.43 0 0 1-.65-.48l.96-3.48a.43.43 0 0 0-.15-.45l-2.82-2.26a.43.43 0 0 1 .25-.76l3.6-.17c.18 0 .33-.12.4-.28l1.26-3.38Zm.8 14.31a.43.43 0 0 0-.8 0l-1.27 3.38a.43.43 0 0 1-.38.28l-3.6.16a.43.43 0 0 0-.26.77l2.82 2.25c.14.11.2.29.15.45l-.96 3.49c-.1.38.32.69.65.47l3.02-1.99c.14-.1.33-.1.47 0l3.02 1.99c.33.22.75-.1.65-.47l-.96-3.49a.43.43 0 0 1 .15-.45l2.82-2.25a.43.43 0 0 0-.25-.77l-3.6-.16a.43.43 0 0 1-.39-.28l-1.27-3.38Z" fill="#F8F9FD"/></g><rect x="257.53" y="138.53" width="85.84" height="85.84" rx="42.92" stroke="#000" stroke-width="2"/><g opacity=".6" filter="url(#an2pls4ler)"><ellipse cx="67.89" cy="218.66" rx="9.2" ry="22.12" transform="rotate(-71.78 67.89 218.66)" fill="#478BAF" fill-opacity=".5"/></g><g opacity=".6" filter="url(#ao2pls4ler)"><ellipse cx="320.04" cy="131.75" rx="15.65" ry="54.3" transform="rotate(-92.62 320.04 131.75)" fill="#1E53E5"/></g><g opacity=".1" filter="url(#ap2pls4ler)"><ellipse cx="60.94" cy="64.39" rx="60.94" ry="64.39" transform="matrix(-1 0 0 1 360.27 116.71)" fill="url(#aq2pls4ler)" fill-opacity=".3"/></g></g><defs><filter id="b2pls4ler" x="63.3" y="-510.47" width="1403.61" height="1388.54" filterUnits="userSpaceOnUse" color-interpolation-filters="sRGB"><feFlood flood-opacity="0" result="BackgroundImageFix"/><feBlend in="SourceGraphic" in2="BackgroundImageFix" result="shape"/><feGaussianBlur stdDeviation="194" result="effect1_foregroundBlur_2937_455875"/></filter><filter id="d2pls4ler" x="-1341.3" y="-422.05" width="1464.72" height="1290.38" filterUnits="userSpaceOnUse" color-interpolation-filters="sRGB"><feFlood flood-opacity="0" result="BackgroundImageFix"/><feBlend in="SourceGraphic" in2="BackgroundImageFix" result="shape"/><feGaussianBlur stdDeviation="194" result="effect1_foregroundBlur_2937_455875"/></filter><filter id="f2pls4ler" x="-585.09" y="-312.47" width="1403.61" height="1388.54" filterUnits="userSpaceOnUse" color-interpolation-filters="sRGB"><feFlood flood-opacity="0" result="BackgroundImageFix"/><feBlend in="SourceGraphic" in2="BackgroundImageFix" result="shape"/><feGaussianBlur stdDeviation="194" result="effect1_foregroundBlur_2937_455875"/></filter><filter id="h2pls4ler" x="-905.04" y="103.26" width="2702.33" height="212.25" filterUnits="userSpaceOnUse" color-interpolation-filters="sRGB"><feFlood flood-opacity="0" result="BackgroundImageFix"/><feBlend in="SourceGraphic" in2="BackgroundImageFix" result="shape"/><feGaussianBlur stdDeviation="1.02" result="effect1_foregroundBlur_2937_455875"/></filter><filter id="j2pls4ler" x="-401.47" y="17.19" width="1647.21" height="154.09" filterUnits="userSpaceOnUse" color-interpolation-filters="sRGB"><feFlood flood-opacity="0" result="BackgroundImageFix"/><feBlend in="SourceGraphic" in2="BackgroundImageFix" result="shape"/><feGaussianBlur stdDeviation="1.02" result="effect1_foregroundBlur_2937_455875"/></filter><filter id="n2pls4ler" x="-905.02" y="104.79" width="2700.18" height="209.19" filterUnits="userSpaceOnUse" color-interpolation-filters="sRGB"><feFlood flood-opacity="0" result="BackgroundImageFix"/><feBlend in="SourceGraphic" in2="BackgroundImageFix" result="shape"/><feGaussianBlur stdDeviation=".51" result="effect1_foregroundBlur_2937_455875"/></filter><filter id="r2pls4ler" x="49.81" y="142.37" width="85.57" height="73.26" filterUnits="userSpaceOnUse" color-interpolation-filters="sRGB"><feFlood flood-opacity="0" result="BackgroundImageFix"/><feBlend in="SourceGraphic" in2="BackgroundImageFix" result="shape"/><feGaussianBlur stdDeviation="8.19" result="effect1_foregroundBlur_2937_455875"/></filter><filter id="t2pls4ler" x="525.13" y="147.71" width="65.92" height="70.4" filterUnits="userSpaceOnUse" color-interpolation-filters="sRGB"><feFlood flood-opacity="0" result="BackgroundImageFix"/><feBlend in="SourceGraphic" in2="BackgroundImageFix" result="shape"/><feGaussianBlur stdDeviation="10" result="effect1_foregroundBlur_2937_455875"/></filter><filter id="w2pls4ler" x="449" y="170.66" width="89.94" height="54.46" filterUnits="userSpaceOnUse" color-interpolation-filters="sRGB"><feFlood flood-opacity="0" result="BackgroundImageFix"/><feBlend in="SourceGraphic" in2="BackgroundImageFix" result="shape"/><feGaussianBlur stdDeviation="10" result="effect1_foregroundBlur_2937_455875"/></filter><filter id="x2pls4ler" x="460.46" y="143" width="65.73" height="61.94" filterUnits="userSpaceOnUse" color-interpolation-filters="sRGB"><feFlood flood-opacity="0" result="BackgroundImageFix"/><feBlend in="SourceGraphic" in2="BackgroundImageFix" result="shape"/><feGaussianBlur stdDeviation="10" result="effect1_foregroundBlur_2937_455875"/></filter><filter id="aa2pls4ler" x="109.64" y="123.05" width="141.91" height="119.29" filterUnits="userSpaceOnUse" color-interpolation-filters="sRGB"><feFlood flood-opacity="0" result="BackgroundImageFix"/><feBlend in="SourceGraphic" in2="BackgroundImageFix" result="shape"/><feGaussianBlur stdDeviation="17.89" result="effect1_foregroundBlur_2937_455875"/></filter><filter id="ab2pls4ler" x="175.35" y="152.59" width="47.78" height="44.86" filterUnits="userSpaceOnUse" color-interpolation-filters="sRGB"><feFlood flood-opacity="0" result="BackgroundImageFix"/><feBlend in="SourceGraphic" in2="BackgroundImageFix" result="shape"/><feGaussianBlur stdDeviation="7.15" result="effect1_foregroundBlur_2937_455875"/></filter><filter id="ac2pls4ler" x="166.71" y="152.59" width="47.78" height="44.86" filterUnits="userSpaceOnUse" color-interpolation-filters="sRGB"><feFlood flood-opacity="0" result="BackgroundImageFix"/><feBlend in="SourceGraphic" in2="BackgroundImageFix" result="shape"/><feGaussianBlur stdDeviation="7.15" result="effect1_foregroundBlur_2937_455875"/></filter><filter id="ad2pls4ler" x="127.42" y="120.23" width="114.35" height="72.39" filterUnits="userSpaceOnUse" color-interpolation-filters="sRGB"><feFlood flood-opacity="0" result="BackgroundImageFix"/><feBlend in="SourceGraphic" in2="BackgroundImageFix" result="shape"/><feGaussianBlur stdDeviation="7.15" result="effect1_foregroundBlur_2937_455875"/></filter><filter id="ag2pls4ler" x="355.78" y="136.91" width="123.31" height="80.15" filterUnits="userSpaceOnUse" color-interpolation-filters="sRGB"><feFlood flood-opacity="0" result="BackgroundImageFix"/><feBlend in="SourceGraphic" in2="BackgroundImageFix" result="shape"/><feGaussianBlur stdDeviation="13.05" result="effect1_foregroundBlur_2937_455875"/></filter><filter id="ah2pls4ler" x="353.31" y="41.05" width="220.46" height="215.04" filterUnits="userSpaceOnUse" color-interpolation-filters="sRGB"><feFlood flood-opacity="0" result="BackgroundImageFix"/><feBlend in="SourceGraphic" in2="BackgroundImageFix" result="shape"/><feGaussianBlur stdDeviation="45.41" result="effect1_foregroundBlur_2937_455875"/></filter><filter id="aj2pls4ler" x="520.89" y="106.07" width="117.87" height="97.75" filterUnits="userSpaceOnUse" color-interpolation-filters="sRGB"><feFlood flood-opacity="0" result="BackgroundImageFix"/><feBlend in="SourceGraphic" in2="BackgroundImageFix" result="shape"/><feGaussianBlur stdDeviation="18.86" result="effect1_foregroundBlur_2937_455875"/></filter><filter id="ak2pls4ler" x="221.39" y="102.39" width="157.23" height="157.23" filterUnits="userSpaceOnUse" color-interpolation-filters="sRGB"><feFlood flood-opacity="0" result="BackgroundImageFix"/><feGaussianBlur in="BackgroundImageFix" stdDeviation="1.81"/><feComposite in2="SourceAlpha" operator="in" result="effect1_backgroundBlur_2937_455875"/><feBlend in="SourceGraphic" in2="effect1_backgroundBlur_2937_455875" result="shape"/></filter><filter id="an2pls4ler" x="16.68" y="177.51" width="102.42" height="82.29" filterUnits="userSpaceOnUse" color-interpolation-filters="sRGB"><feFlood flood-opacity="0" result="BackgroundImageFix"/><feBlend in="SourceGraphic" in2="BackgroundImageFix" result="shape"/><feGaussianBlur stdDeviation="15" result="effect1_foregroundBlur_2937_455875"/></filter><filter id="ao2pls4ler" x="207.18" y="57.3" width="225.72" height="148.9" filterUnits="userSpaceOnUse" color-interpolation-filters="sRGB"><feFlood flood-opacity="0" result="BackgroundImageFix"/><feBlend in="SourceGraphic" in2="BackgroundImageFix" result="shape"/><feGaussianBlur stdDeviation="29.31" result="effect1_foregroundBlur_2937_455875"/></filter><filter id="ap2pls4ler" x="218.39" y="96.71" width="161.88" height="168.77" filterUnits="userSpaceOnUse" color-interpolation-filters="sRGB"><feFlood flood-opacity="0" result="BackgroundImageFix"/><feBlend in="SourceGraphic" in2="BackgroundImageFix" result="shape"/><feGaussianBlur stdDeviation="10" result="effect1_foregroundBlur_2937_455875"/></filter><linearGradient id="c2pls4ler" x1="139.07" y1="401.38" x2="413.24" y2="412.24" gradientUnits="userSpaceOnUse"><stop offset="0" stop-color="#0298F6"/></linearGradient><linearGradient id="e2pls4ler" x1="191.92" y1="235.29" x2="567.63" y2="270.32" gradientUnits="userSpaceOnUse"><stop offset=".36" stop-color="#029CFD"/></linearGradient><linearGradient id="g2pls4ler" x1="-19.86" y1="442.19" x2="254.31" y2="453.04" gradientUnits="userSpaceOnUse"><stop offset="0" stop-color="#0298F6"/></linearGradient><linearGradient id="i2pls4ler" x1="446.04" y1="106.07" x2="446.04" y2="312.71" gradientUnits="userSpaceOnUse"><stop stop-color="#0DEE8A"/><stop offset=".49" stop-color="#08BDC1"/><stop offset="1" stop-color="#00A3FF"/></linearGradient><linearGradient id="k2pls4ler" x1="422.04" y1="20" x2="422.04" y2="168.48" gradientUnits="userSpaceOnUse"><stop stop-color="#0DEE8A"/><stop offset=".49" stop-color="#08BDC1"/><stop offset="1" stop-color="#00A3FF"/></linearGradient><linearGradient id="l2pls4ler" x1="14.73" y1="541.44" x2="130.35" y2="541.44" gradientUnits="userSpaceOnUse"><stop/><stop offset="1" stop-opacity="0"/></linearGradient><linearGradient id="m2pls4ler" x1="1158.53" y1="521.44" x2="1256.18" y2="521.44" gradientUnits="userSpaceOnUse"><stop/><stop offset="1" stop-opacity="0"/></linearGradient><linearGradient id="o2pls4ler" x1="445.04" y1="106.07" x2="445.04" y2="312.71" gradientUnits="userSpaceOnUse"><stop stop-color="#0DEE8A"/><stop offset=".49" stop-color="#08BDC1"/><stop offset="1" stop-color="#00A3FF"/></linearGradient><linearGradient id="p2pls4ler" x1="422.04" y1="20" x2="422.04" y2="168.48" gradientUnits="userSpaceOnUse"><stop stop-color="#0DEE8A"/><stop offset=".49" stop-color="#08BDC1"/><stop offset="1" stop-color="#00A3FF"/></linearGradient><linearGradient id="s2pls4ler" x1="86.84" y1="228" x2="144.66" y2="133.79" gradientUnits="userSpaceOnUse"><stop stop-color="#1B8AC7"/><stop offset="1" stop-color="#6CCDFF"/></linearGradient><linearGradient id="u2pls4ler" x1="568.27" y1="221" x2="572.71" y2="119.05" gradientUnits="userSpaceOnUse"><stop stop-color="#707EFF"/><stop offset="1" stop-color="#2F43FA" stop-opacity=".1"/></linearGradient><linearGradient id="y2pls4ler" x1="474.84" y1="231" x2="496.83" y2="136.92" gradientUnits="userSpaceOnUse"><stop stop-color="#0E8CFF" stop-opacity=".53"/><stop offset=".73" stop-color="#FF59DA" stop-opacity=".56"/><stop offset="1" stop-color="#FEE8FF" stop-opacity=".56"/></linearGradient><linearGradient id="ae2pls4ler" x1="236.1" y1="232.06" x2="209.62" y2="86.76" gradientUnits="userSpaceOnUse"><stop stop-color="#D031AC"/><stop offset="1" stop-color="#49D3FF" stop-opacity=".53"/></linearGradient><linearGradient id="ai2pls4ler" x1="458.11" y1="232.06" x2="431.62" y2="86.76" gradientUnits="userSpaceOnUse"><stop stop-color="#6978FF"/><stop offset="1" stop-color="#6271FF" stop-opacity=".55"/></linearGradient><linearGradient id="al2pls4ler" x1="182.08" y1="88.83" x2="377.55" y2="234.19" gradientUnits="userSpaceOnUse"><stop stop-color="#0F6FFF"/><stop offset=".24" stop-color="#F2FAFF"/><stop offset=".68" stop-color="#0F6FFF"/><stop offset=".86" stop-color="#8D68CC"/><stop offset="1" stop-color="#F440CD"/></linearGradient><linearGradient id="aq2pls4ler" x1="86.92" y1="30.85" x2="30.9" y2="103.14" gradientUnits="userSpaceOnUse"><stop stop-color="#1E53E5"/><stop offset="1" stop-color="#F7525F"/></linearGradient><clipPath id="a2pls4ler"><path fill="#fff" d="M0 0h645v362H0z"/></clipPath><clipPath id="q2pls4ler"><rect x="51" y="134" width="94" height="94" rx="17.63" fill="#fff"/></clipPath><clipPath id="v2pls4ler"><rect x="439" y="137" width="94" height="94" rx="16.41" fill="#fff"/></clipPath><clipPath id="z2pls4ler"><rect x="129" y="125" width="112" height="112" rx="19.71" fill="#fff"/></clipPath><clipPath id="af2pls4ler"><rect x="351" y="125" width="112" height="112" rx="24.14" fill="#fff"/></clipPath><clipPath id="am2pls4ler"><rect x="257.53" y="138.53" width="85.84" height="85.84" rx="42.92" fill="#fff"/></clipPath></defs></svg>