<svg xmlns="http://www.w3.org/2000/svg" width="200" height="80" viewBox="0 0 200 80"><path fill="#fff" fill-rule="evenodd" d="M36.9 21c-.5 0-.9.4-.9.9v36.2c0 .5.4.9.9.9h36.56c.5 0 .9-.4.9-.9V21.9c0-.5-.4-.9-.9-.9zm12.73 12.62a.9.9 0 0 0-.89.89v10.98c0 .5.4.9.9.9h11.09c.5 0 .9-.4.9-.9V34.51c0-.5-.4-.9-.9-.9zm76-11.73c0-.5.4-.89.9-.89h11.09c.5 0 .9.4.9.9v10.98a.9.9 0 0 1-.9.89h-11.09a.9.9 0 0 1-.9-.9zm0 25.23c0-.49.4-.89.9-.89h11.09c.5 0 .9.4.9.9V58.1c0 .5-.4.89-.9.89h-11.09a.9.9 0 0 1-.9-.9zm13.63-13.5q-.36.01-.63.26a1 1 0 0 0-.27.63v10.98c0 .5.4.9.91.9h11.09c.5 0 .9-.4.9-.9V34.51c0-.5-.4-.9-.91-.9zm11.85 13.5c0-.49.4-.89.9-.89h11.08c.5 0 .91.4.91.9V58.1c0 .5-.4.89-.9.89H152a.9.9 0 0 1-.9-.9V47.12M152 21c-.5 0-.9.4-.9.9v10.98c0 .49.4.89.9.89h11.08c.5 0 .91-.4.91-.9V21.9a.9.9 0 0 0-.9-.89zm-70.45 0c-.5 0-.9.4-.9.9v36.2c0 .5.4.9.9.9h11.1c.5 0 .9-.4.9-.9V46.39h11.99c.5 0 .9-.4.9-.89V34.51c0-.5-.4-.9-.91-.9H93.55V21.9a.9.9 0 0 0-.9-.89H81.57zm25.79 0a.9.9 0 0 0-.91.9v10.98c0 .49.4.89.9.89h11.1c.5 0 .9-.4.9-.9V21.9a.9.9 0 0 0-.9-.89zm0 25.23a.9.9 0 0 0-.91.9V58.1c0 .5.4.89.9.89h11.1c.5 0 .9-.4.9-.9V47.14c0-.5-.4-.9-.9-.9h-11.1z"/></svg>