<svg width="56" height="56" viewBox="0 0 56 56" xmlns="http://www.w3.org/2000/svg"><rect width="56" height="56" rx="8" fill="url(#alk2dicm1)"/><path d="M32.8 22.46h-9.6c-.4 0-.74.33-.74.74v9.6c0 .41.33.74.74.74h9.6c.42 0 .75-.33.75-.74v-9.6c0-.41-.33-.74-.74-.74ZM21.72 11.38h-9.6c-.41 0-.74.33-.74.73v9.6c0 .42.33.75.73.75h9.6c.42 0 .75-.33.75-.74v-9.6c0-.41-.33-.74-.74-.74ZM43.89 11.38h-9.6c-.42 0-.75.33-.75.73v9.6c0 .42.33.75.74.75h9.6c.41 0 .75-.33.75-.74v-9.6c0-.41-.34-.74-.74-.74ZM21.72 33.54h-9.6c-.41 0-.74.33-.74.74v9.6c0 .41.33.74.73.74h9.6c.42 0 .75-.33.75-.73v-9.61c0-.4-.33-.74-.74-.74ZM43.89 33.54h-9.6c-.42 0-.75.33-.75.74v9.6c0 .41.33.74.74.74h9.6c.41 0 .75-.33.75-.73v-9.61c0-.4-.34-.74-.74-.74Z" fill="#fff"/><defs><linearGradient id="alk2dicm1" x1="10.42" y1="9.71" x2="68.15" y2="76.02" gradientUnits="userSpaceOnUse"><stop stop-color="#1A1E21"/><stop offset="1" stop-color="#06060A"/></linearGradient></defs></svg>