<svg width="230" height="100" viewBox="0 0 230 100" xmlns="http://www.w3.org/2000/svg"><path fill-rule="evenodd" d="M52.9 31c-.5 0-.9.4-.9.9v36.2c0 .5.4.9.9.9h36.2c.5 0 .9-.4.9-.9V31.9c0-.5-.4-.9-.9-.9H52.9Zm12.6 12.62c-.48 0-.88.4-.88.89v10.98c0 .5.4.9.89.9h10.98c.5 0 .9-.4.9-.9V44.51c0-.5-.4-.9-.9-.9H65.51Zm75.27-11.73c0-.5.4-.89.89-.89h10.98c.5 0 .9.4.9.9v10.98c0 .49-.4.89-.9.89h-10.98c-.5 0-.9-.4-.9-.9V31.9Zm0 25.23c0-.49.4-.89.89-.89h10.98c.5 0 .9.4.9.9V68.1c0 .5-.4.89-.9.89h-10.98c-.5 0-.9-.4-.9-.9V57.14Zm13.5-13.5a.9.9 0 0 0-.89.89v10.98c0 .5.4.9.9.9h10.98c.49 0 .89-.4.89-.9V44.51c0-.5-.4-.9-.9-.9h-10.98ZM166 57.12c0-.49.4-.89.9-.89h10.97c.5 0 .9.4.9.9V68.1c0 .5-.4.89-.9.89H166.9a.9.9 0 0 1-.89-.9V57.14Zm.9-26.12c-.5 0-.9.4-.9.9v10.98c0 .49.4.89.9.89h10.97c.5 0 .9-.4.9-.9V31.9c0-.5-.4-.89-.9-.89H166.9Zm-69.78 0c-.49 0-.89.4-.89.9v36.2c0 .5.4.9.9.9h10.98c.5 0 .89-.4.89-.9V56.39h11.88c.49 0 .89-.4.89-.89V44.51c0-.5-.4-.9-.9-.9H109V31.9c0-.5-.4-.89-.9-.89H97.14Zm25.54 0c-.5 0-.9.4-.9.9v10.98c0 .49.4.89.9.89h10.98c.5 0 .9-.4.9-.9V31.9c0-.5-.4-.89-.9-.89h-10.98Zm0 25.23c-.5 0-.9.4-.9.9V68.1c0 .5.4.89.9.89h10.98c.5 0 .9-.4.9-.9V57.14c0-.5-.4-.9-.9-.9h-10.98Z" fill="#fff"/></svg>