<svg width="56" height="56" viewBox="0 0 56 56" xmlns="http://www.w3.org/2000/svg"><rect width="56" height="56" rx="8" fill="#212957"/><path d="M40.61 21H36.4c-.67 0-1.26-.27-1.69-.7a2.37 2.37 0 0 1-.7-1.69V14.4c0-.67.27-1.26.7-1.69.43-.43 1.02-.7 1.69-.7h4.22c.67 0 1.25.27 1.68.7.43.43.7 1.02.7 1.69v4.22c0 .67-.27 1.26-.7 1.69-.43.43-1.01.7-1.68.7Z" fill="#41C136"/><path d="M40.61 32H36.4c-.67 0-1.26-.27-1.69-.7a2.37 2.37 0 0 1-.7-1.69V25.4c0-.67.27-1.26.7-1.69.43-.43 1.02-.7 1.69-.7h4.22c.67 0 1.25.27 1.68.7.43.43.7 1.02.7 1.69v4.22c0 .67-.27 1.26-.7 1.69-.43.43-1.01.7-1.68.7Z" fill="#00D6D7"/><path d="M40.61 43H36.4c-.67 0-1.26-.27-1.69-.7a2.37 2.37 0 0 1-.7-1.69V36.4c0-.67.27-1.26.7-1.69.43-.43 1.02-.7 1.69-.7h4.22c.67 0 1.25.27 1.68.7.43.43.7 1.02.7 1.69v4.22c0 .67-.27 1.26-.7 1.69-.43.43-1.01.7-1.68.7Z" fill="#4C91E5"/><path d="M29.61 32H25.4c-.67 0-1.26-.27-1.69-.7a2.37 2.37 0 0 1-.7-1.69V25.4c0-.67.27-1.26.7-1.69.43-.43 1.02-.7 1.69-.7h4.22c.67 0 1.25.27 1.68.7.43.43.7 1.02.7 1.69v4.22c0 .67-.27 1.26-.7 1.69-.43.43-1.01.7-1.68.7Z" fill="#41C136"/><path d="M29.61 43H25.4c-.67 0-1.26-.27-1.69-.7a2.37 2.37 0 0 1-.7-1.69V36.4c0-.67.27-1.26.7-1.69.43-.43 1.02-.7 1.69-.7h4.22c.67 0 1.25.27 1.68.7.43.43.7 1.02.7 1.69v4.22c0 .67-.27 1.26-.7 1.69-.43.43-1.01.7-1.68.7Z" fill="#00D6D7"/><path d="M18.61 43H14.4c-.67 0-1.26-.27-1.69-.7a2.37 2.37 0 0 1-.7-1.69V36.4c0-.67.27-1.26.7-1.69.43-.43 1.02-.7 1.69-.7h4.22c.67 0 1.25.27 1.68.7.43.43.7 1.02.7 1.69v4.22c0 .67-.27 1.26-.7 1.69-.43.43-1.01.7-1.68.7Z" fill="#41C136"/></svg>