<svg xmlns="http://www.w3.org/2000/svg" width="132" height="60" viewBox="0 0 132 60"><path fill="#4F78A8" d="M22.54 43c6.93 0 12.54-5.6 12.54-12.5S29.47 18 22.54 18 10 23.6 10 30.5 15.61 43 22.54 43"/><path fill="#fff" d="m121.73 38.04.27-5.2-1.05-.09c-.82 3.12-2.35 4.24-5.73 4.24-1.23 0-1.6-.06-1.6-1V26.3c0-.76.18-1.01 1.08-1.01h1.32v-.99h-8.3v.99h1.09c.92 0 1.04.25 1.04 1v9.74c0 .76-.16.99-1.07.99h-1.07v1zm-14.6-13.73h-8.25v.99h1.15c.92 0 1.07.25 1.07 1v9.74c0 .76-.16.99-1.07.99h-1.15v1h8.24v-1h-1.2c-.9 0-1.04-.23-1.04-.99v-9.73c0-.76.15-1.01 1.05-1.01h1.2zm-9.43 0H84v.99h1.07c.93 0 1.07.25 1.07 1v9.74c0 .76-.16.99-1.07.99H84v1h8.41v-1h-1.5c-.9 0-1.05-.23-1.05-.99v-4.58h.29c1.85 0 2.62.72 2.98 2.62h1.05v-6.3h-1.05c-.36 1.91-1.11 2.65-2.98 2.65h-.3v-4.07c0-.95.32-1.02 1.54-1.02 3.2 0 4.66 1 5.45 3.91h1.03zm-24.57 7.13.84-.02c2.41 0 2.85.63 3 2.72.06 1.04-.1 2.03.44 2.95q.76 1.28 3.04 1.29c2.2 0 3.5-1.22 3.5-3.35v-.15H82.9c-.02 1.23-.28 1.86-.88 1.86-.95 0-.74-1.4-1.35-3.08a3.35 3.35 0 0 0-3.23-2.37v-.14c2.98-.1 4.68-1.37 4.68-3.36 0-2.26-1.9-3.48-5.64-3.48H67.2v.99h1.14c.82 0 1.07.2 1.07 1v9.74c0 .8-.25.99-1.07.99H67.2v1h8.1v-1h-1.13c-.8 0-1.05-.17-1.05-1zm0-5.1c0-.93.23-1.04 1.62-1.04 2.5 0 3.52.57 3.52 2.55 0 2.03-1.26 2.62-4.26 2.62-.3 0-.56 0-.88-.04zm-21.4 11.7h14.14l.27-5.16-1.05-.07c-.81 3.15-2.4 4.26-5.93 4.26-1.28 0-1.6-.1-1.6-1.03v-4.58h.3c1.84 0 2.62.72 2.98 2.62h1.04v-6.3h-1.04c-.36 1.91-1.12 2.65-2.98 2.65h-.3v-4.12c0-.95.32-1.03 1.53-1.03 3.24 0 4.7 1.03 5.46 3.97h1.03l-.17-4.94H51.73v.99h1.05c.92 0 1.07.25 1.07 1v9.74c0 .76-.17.99-1.07.99h-1.05zm-9.74-2v-3.9q1.13.03 2.1.02c4.68 0 6.97-1.23 6.97-3.95 0-2.55-1.98-3.9-5.77-3.9h-9.25v.99h1.13c.92 0 1.07.25 1.07 1v9.74c0 .76-.17.99-1.07.99h-1.13v1h8.3v-1h-1.32c-.86 0-1.03-.2-1.03-.99m0-9.54c0-1.07.26-1.2 1.64-1.2 2.45 0 3.42.7 3.42 2.9 0 2.3-1.15 2.92-4 2.92q-.69 0-1.06-.06zm-20.87 4.27c-.02 0-.05-.05-.05-.05q-.1-.2.1-1.14c.18-.75.82-1.37 1.41-1.64.43-.19 1.36-.53 2.05-.72.84-.23 2.65-.65 2.65-.65s.93-.21 1.65-.34c.68-.12 1.36-.18 1.63-.27.46-.14.94-.28 1.32-.6-.3.24.09-.05.02-.02l.09-.08s.38-.38.3-.69c-.06-.3-.6-.25-.6-.25s-1.1 0-1.44.04-.39.15-.62.36c-.23.22-.4.35-.77.36s-2.11-.25-2.84-.24c-.73 0-2.07 0-3.89.4-.46.1-1.18.3-2.12.72 0 0-.78.28-1.35.97 0 0-.31.38-.33 1.37-.01.3.17.84-.02 1.03-.26.26-.98.19-1.22.15a3 3 0 0 1-1.1-.37c-.2-.13-.56-.4-.6-.76-.12-.87-.35-1.24-.96-1.3 0 0-.37-.02-1.26.24 0 0-.5.14-.86.18-.37.04-.82.02-.82.12s.27.13 1.01.1c.75-.02 1.24.06 1.59.3 0 0 .37.17.56.85s.13.85.45 1.02c0 0 .77.4 1.6.68.81.28.82.94.84 1.09s.06 1.15.07 1.46c0 .31.2 1.14.8 1.9 0 0 .4.68 1.84 1.44 1.4.67 1.4.61 1.71.75s.74.33.86.48c.08.11.3.37.46.39l5.15.03s.34.02.17-.36a1.4 1.4 0 0 0-.66-.67c-.31-.15-.54-.3-1.28-.42a12 12 0 0 1-2.47-.66c-.9-.36-2-1.17-2.42-1.52s-1.07-.87-1.22-1.6c0 0-.08-.34.16-.75 0 0 .11-.14.33-.16l.77.05c.35.02 1.15.12 1.62.17.46.05 2.13.3 2.69.42s2.61.69 2.89.76c.27.08 1.7.64 1.84.45l.1-.2a70 70 0 0 0 .63-3.26s.06-.4-.45-.41c-.32-.01-.5-.1-.97-.07s-1.16.1-2.3.3c-1.13.2-2.33.5-2.33.5s-.48.14-1.56.3a9 9 0 0 1-2.71-.08s-.09-.04-.14-.1"/></svg>