<svg xmlns="http://www.w3.org/2000/svg" width="200" height="60" viewBox="0 0 200 60"><path fill="#4F78A8" d="M47.23 45c8.4 0 15.23-6.72 15.23-15s-6.82-15-15.23-15A15.1 15.1 0 0 0 32 30c0 8.28 6.82 15 15.23 15"/><path fill="#fff" d="m167.67 39.04.33-6.22-1.27-.12c-1 3.74-2.86 5.09-6.96 5.09-1.5 0-1.93-.07-1.93-1.21V24.97c0-.91.2-1.21 1.3-1.21h1.6v-1.19h-10.09v1.19h1.33c1.12 0 1.27.3 1.27 1.2v11.69c0 .91-.2 1.18-1.3 1.18h-1.3v1.21zm-17.73-16.47h-10.02v1.19h1.4c1.13 0 1.3.3 1.3 1.2v11.69c0 .91-.2 1.18-1.3 1.18h-1.4v1.21h10.02v-1.2h-1.46c-1.1 0-1.27-.28-1.27-1.2V24.98c0-.91.18-1.21 1.27-1.21h1.46zm-11.45 0h-16.63v1.19h1.3c1.12 0 1.3.3 1.3 1.2v11.69c0 .91-.2 1.18-1.3 1.18h-1.3v1.21h10.21v-1.2h-1.83c-1.1 0-1.27-.28-1.27-1.2v-5.49h.35c2.25 0 3.19.87 3.62 3.15h1.28v-7.55h-1.28c-.43 2.28-1.35 3.17-3.62 3.17h-.35v-4.88c0-1.14.38-1.24 1.86-1.24 3.9 0 5.65 1.21 6.62 4.7h1.25zm-29.83 8.56q.55-.04 1.02-.03c2.93 0 3.46.76 3.64 3.27.08 1.25-.12 2.44.54 3.53.6 1.03 1.86 1.55 3.69 1.55 2.67 0 4.26-1.46 4.26-4.01v-.19h-1.3c-.03 1.49-.34 2.24-1.08 2.24-1.14 0-.89-1.69-1.62-3.7a4.1 4.1 0 0 0-3.93-2.85v-.16c3.62-.11 5.68-1.64 5.68-4.03 0-2.72-2.31-4.18-6.85-4.18h-11.23v1.19h1.37c1 0 1.3.25 1.3 1.2v11.69c0 .95-.3 1.18-1.3 1.18h-1.37v1.21h9.83v-1.2h-1.38c-.97 0-1.27-.21-1.27-1.2zm0-6.12c0-1.11.28-1.25 1.96-1.25 3.03 0 4.28.68 4.28 3.06 0 2.44-1.53 3.14-5.17 3.14q-.52.01-1.07-.04zM82.67 39.04h17.17l.33-6.18-1.27-.09c-1 3.79-2.93 5.1-7.2 5.1-1.56 0-1.95-.1-1.95-1.22v-5.5h.36c2.24 0 3.19.87 3.62 3.15H95v-7.55h-1.27c-.43 2.28-1.35 3.17-3.62 3.17h-.36v-4.95c0-1.14.39-1.23 1.86-1.23 3.93 0 5.71 1.23 6.63 4.76h1.25l-.2-5.93H82.66v1.19h1.28c1.12 0 1.3.3 1.3 1.2v11.69c0 .91-.2 1.18-1.3 1.18h-1.28zm-11.82-2.4v-4.67l2.55.02c5.68 0 8.45-1.48 8.45-4.74 0-3.06-2.39-4.68-7-4.68H63.62v1.19h1.37c1.12 0 1.3.3 1.3 1.2v11.69c0 .91-.2 1.18-1.3 1.18h-1.37v1.21H73.7v-1.2h-1.6c-1.05 0-1.25-.23-1.25-1.2m0-11.44c0-1.28.3-1.44 1.99-1.44 2.98 0 4.15.84 4.15 3.49 0 2.76-1.4 3.49-4.87 3.49q-.83 0-1.27-.07zM45.5 30.32c-.03 0-.06-.06-.06-.06q-.12-.23.13-1.37c.2-.9.99-1.64 1.7-1.96.52-.23 1.65-.64 2.5-.87 1.01-.27 3.21-.78 3.21-.78s1.13-.25 2-.4c.84-.14 1.66-.23 1.99-.33.56-.17 1.14-.33 1.6-.72-.36.3.1-.06.03-.03l.1-.08s.46-.47.38-.84c-.09-.36-.74-.3-.74-.3s-1.34 0-1.75.06c-.42.04-.47.17-.75.43-.28.25-.5.4-.94.43-.45.01-2.56-.3-3.45-.3-.88.02-2.5 0-4.72.49-.56.13-1.43.36-2.58.86 0 0-.94.34-1.64 1.16 0 0-.37.46-.4 1.65 0 .36.21 1-.02 1.23-.32.32-1.2.23-1.48.2a4 4 0 0 1-1.35-.46c-.23-.15-.67-.49-.73-.91-.13-1.05-.41-1.48-1.15-1.56 0 0-.46-.02-1.54.29 0 0-.59.16-1.04.21s-1 .03-1 .15.33.16 1.24.13 1.5.06 1.92.34c0 0 .45.21.7 1.03.23.81.14 1.02.53 1.23 0 0 .94.48 1.94.8.99.34 1 1.14 1.03 1.32.02.17.06 1.37.08 1.75.01.37.25 1.37.98 2.27 0 0 .47.82 2.23 1.74 1.69.8 1.7.73 2.08.9.37.16.89.39 1.03.57.1.13.37.44.57.46s6.25.05 6.25.05.4.02.2-.44c-.13-.28-.4-.62-.8-.8-.37-.18-.65-.35-1.55-.5s-1.9-.37-3-.8-2.44-1.4-2.94-1.82-1.3-1.04-1.48-1.92c0 0-.1-.4.2-.9 0 0 .13-.17.4-.2l.93.06c.43.03 1.4.15 1.96.2.57.07 2.6.37 3.27.51.68.14 3.17.83 3.51.92s2.06.76 2.24.54c0 0 .03-.03.11-.23.13-.3.77-3.92.77-3.92s.08-.48-.54-.5c-.38-.01-.62-.11-1.18-.08-.56.04-1.4.13-2.79.37-1.37.23-2.84.58-2.84.58s-.58.17-1.89.37a11 11 0 0 1-3.29-.1s-.1-.05-.17-.12"/></svg>