<svg xmlns="http://www.w3.org/2000/svg" width="153" height="135" fill="none" viewBox="0 0 153 135"><path fill="url(#aw5iust2g)" fill-rule="evenodd" d="m99.75 97.36.04.04 34.46-22.36a4.65 4.65 0 0 0 1.03-6.88L79.7 1.66A4.6 4.6 0 0 0 76.12 0a4.6 4.6 0 0 0-3.75 1.84L22.35 68.2c-2.36 3.13-.05 7.24 3.36 7.45q.98.11 2.05-.26L60.13 63.8l39.6 33.57zm.74-11.52L66.17 56.7a9.2 9.2 0 0 0-5.26-2.16 9 9 0 0 0-3.93.5l-17.7 6.32 37.03-49.2 48.5 57.93zm33.39 18.01-4.38-6.03a3.67 3.67 0 0 0-4.89-.96l-24.12 15.12c-.9.56-1.98.7-2.96.4a4 4 0 0 1-1.03-.52L60.07 85.25a3.6 3.6 0 0 0-1.75-.68 4 4 0 0 0-1.66.15l-29.84 9.97c-.71.24-1.33.7-1.78 1.3L.71 129.17a3.65 3.65 0 0 0 2.58 5.79q.27.04.56.04h145.5c1.45 0 2.6-.8 3.2-1.91a3.6 3.6 0 0 0-.25-3.9z" clip-rule="evenodd"/><defs><linearGradient id="aw5iust2g" x1="-65.58" x2="145.36" y1="171.4" y2="-43.18" gradientUnits="userSpaceOnUse"><stop stop-color="#d9d9d9"/><stop offset=".23" stop-color="#d4efd2"/><stop offset=".38" stop-color="#c7eac8"/><stop offset=".53" stop-color="#22d755"/><stop offset=".68" stop-color="#088944"/><stop offset="1" stop-color="#1fa634"/></linearGradient></defs></svg>