<svg width="201" height="80" viewBox="0 0 201 80" xmlns="http://www.w3.org/2000/svg"><path d="M68.1 48.14v-16h7.03c3.36 0 5.23 2.3 5.23 5.01s-1.9 5.02-5.23 5.02h-4.22v5.97h-2.8Zm6.65-13.53h-3.84v5.09h3.84c1.58 0 2.73-1.01 2.73-2.55 0-1.53-1.15-2.54-2.73-2.54Zm15.4-2.73c4.79 0 8.17 3.5 8.17 8.27s-3.38 8.28-8.18 8.28-8.17-3.5-8.17-8.28c0-4.77 3.38-8.27 8.17-8.27Zm0 2.5c-3.24 0-5.3 2.46-5.3 5.77 0 3.29 2.06 5.78 5.3 5.78 3.2 0 5.3-2.5 5.3-5.78 0-3.3-2.1-5.78-5.3-5.78Zm10.88 13.76v-16h2.8v13.53h7.05v2.47h-9.85Zm19.13-16.26c4.8 0 8.18 3.5 8.18 8.27s-3.39 8.28-8.18 8.28c-4.8 0-8.18-3.5-8.18-8.28 0-4.77 3.39-8.27 8.18-8.27Zm0 2.5c-3.24 0-5.3 2.46-5.3 5.77 0 3.29 2.06 5.78 5.3 5.78 3.21 0 5.3-2.5 5.3-5.78 0-3.3-2.09-5.78-5.3-5.78Zm22.03 13.76-8.34-11.66v11.66h-2.8v-16h2.87l8.18 11.34V32.14h2.8v16h-2.7Zm6.12 0v-16h2.8v16h-2.8Zm6.2 0v-16h10.96v2.47h-8.15v4.15h7.99v2.47h-7.99v4.44h8.15v2.47h-10.96Zm24.53 0-4.48-6.26-4.49 6.26h-3.35l6-8.2-5.64-7.8h3.35l4.13 5.88 4.1-5.88h3.38l-5.61 7.77 5.97 8.23h-3.36ZM51.54 30.57v9.57l-8.29-4.78-8.28-4.79 8.28-4.78L51.54 21v9.57Z" fill="#fff"/><path d="M34.97 40.14v9.57l-8.29-4.78-8.28-4.79 8.28-4.78 8.29-4.79v9.57Z" fill="#DFE8F1"/><path d="M18.4 30.57V21l8.28 4.79 8.29 4.78-8.29 4.79-8.28 4.78v-9.57Z" fill="#41D9BF"/><path d="M18.4 49.71v-9.57l8.28 4.79 8.29 4.78-8.29 4.79-8.28 4.78v-9.57Z" fill="#fff"/><path d="m43.25 35.36-8.28-4.79v19.14l8.28 4.79 8.29 4.78V40.14l-8.29-4.78Z" fill="#41D9BF"/></svg>