<svg xmlns="http://www.w3.org/2000/svg" width="200" height="80" viewBox="0 0 200 80"><path fill="url(#a4bnitlx3)" d="m46.02 38.2-.45.22a9.8 9.8 0 0 0-5.52 8.25l-4.03-6.03a10 10 0 0 1 4.14-8.69l1.57-1.12a12 12 0 0 0 3.4-3.6l.33-.57 7.07 5.16-.27.47a14.3 14.3 0 0 1-6.24 5.91"/><path fill="url(#b4bnitlx3)" d="M57.91 41.97v-1.92l-3.57-6.37a9.3 9.3 0 0 1-4.88 7.09l-2.03 1.07a11 11 0 0 0-4.92 5.33l-.48 1.08 7.32 4.65.1-.3a6.6 6.6 0 0 1 3.43-3.96l.26-.12a8.5 8.5 0 0 0 4.77-6.55"/><path fill="url(#c4bnitlx3)" d="M39.85 26.33V15l14.35 9.73a8.5 8.5 0 0 1 3.71 6.95v9.46a12.6 12.6 0 0 0-5.74-7.52z"/><path fill="url(#d4bnitlx3)" d="M54.37 57.32V65a37 37 0 0 0-7.82-5.87l-6.07-3.42a10 10 0 0 1-3.73-3.67 5 5 0 0 1-.72-2.65v-9a16.4 16.4 0 0 0 5.44 5.35l6.89 4.13q2.49 1.5 4.48 3.61a5.6 5.6 0 0 1 1.53 3.84"/><path fill="#fff" d="M137.85 17.12H164v8.78h-16.35v9.75h12.47v8.78h-12.47v10.73H164v8.78h-26.15zm-33.9 32.19h9.62c0 3.27 3 4.88 5.91 4.88 2.81 0 5.77-1.3 5.77-4.51 0-1.7-1.24-3.04-2.54-3.95-1.85-1.5-4.1-2.57-6.18-3.7-3.72-2.18-7.54-4.24-9.7-8.23a11.4 11.4 0 0 1 .07-9.8c2.36-4.9 7.67-7.7 12.93-7.7q2.96-.01 5.48 1.03c4.75 1.77 8.64 6.1 8.64 11.5h-9.76c0-2.46-2.11-3.9-4.36-3.9-2.3 0-4.42 1.42-4.42 3.93q0 1.18.56 2.01c1.06 1.44 2.7 2.4 4.21 3.25 3.78 2.06 7.94 4.1 11.11 7.13q1.6 1.5 2.6 3.51a10 10 0 0 1 1.05 4.67c0 3.73-1.85 7.23-4.57 9.65a16.3 16.3 0 0 1-10.89 4.03q-3.11.02-6.04-1.04c-5.13-2.01-9.5-6.86-9.5-12.76m-31-32.19h14.53q3.2 0 6 1.39 2.86 1.29 4.95 3.6a18.1 18.1 0 0 1 3.3 18.7 17 17 0 0 1-3.3 5.37 15 15 0 0 1-10.95 5.08h-4.84v12.68h-9.69zm9.69 9.75v14.64h4.06c3.59 0 6.6-4.06 6.6-7.37 0-3.45-2.93-7.27-6.6-7.27z"/><defs><linearGradient id="a4bnitlx3" x1="51.05" x2="36.62" y1="33.68" y2="34.81" gradientUnits="userSpaceOnUse"><stop stop-color="#007FC6"/><stop offset="1" stop-color="#052668"/></linearGradient><linearGradient id="b4bnitlx3" x1="57.91" x2="42.03" y1="42.5" y2="43.23" gradientUnits="userSpaceOnUse"><stop stop-color="#BF7002"/><stop offset="1" stop-color="#E9D18E"/></linearGradient><linearGradient id="c4bnitlx3" x1="39.97" x2="57.91" y1="28.99" y2="29.76" gradientUnits="userSpaceOnUse"><stop stop-color="#CE8D24"/><stop offset=".53" stop-color="#F7D45E"/><stop offset="1" stop-color="#CF8E1C"/></linearGradient><linearGradient id="d4bnitlx3" x1="36.03" x2="54.11" y1="53.5" y2="53.98" gradientUnits="userSpaceOnUse"><stop stop-color="#006DC6"/><stop offset=".48" stop-color="#56BEE5"/><stop offset="1" stop-color="#2F8ECE"/></linearGradient></defs></svg>