<svg xmlns="http://www.w3.org/2000/svg" width="132" height="60" viewBox="0 0 132 60"><path fill="url(#albljj1we)" d="m27.2 28.7-.32.16a7 7 0 0 0-3.97 5.94l-2.9-4.34A7.2 7.2 0 0 1 23 24.21l1.13-.81a9 9 0 0 0 2.44-2.6l.24-.4 5.08 3.7-.2.35a10.3 10.3 0 0 1-4.48 4.26"/><path fill="url(#blbljj1we)" d="M35.75 31.42v-1.39l-2.57-4.58a6.7 6.7 0 0 1-3.5 5.1l-1.46.78a8 8 0 0 0-3.54 3.83l-.34.78 5.25 3.35.07-.22a4.8 4.8 0 0 1 2.47-2.85l.2-.08a6.1 6.1 0 0 0 3.42-4.72"/><path fill="url(#clbljj1we)" d="M22.76 20.16V12l10.32 7a6.1 6.1 0 0 1 2.67 5v6.82a9 9 0 0 0-4.13-5.41z"/><path fill="url(#dlbljj1we)" d="M33.2 42.47V48a27 27 0 0 0-5.62-4.23l-4.36-2.46a7 7 0 0 1-2.68-2.64 4 4 0 0 1-.52-1.9v-6.49a12 12 0 0 0 3.91 3.85l4.95 2.98q1.79 1.08 3.23 2.6c.7.74 1.1 1.73 1.1 2.76"/><path fill="#fff" d="M93.2 13.53H112v6.32h-11.75v7.02h8.97v6.32h-8.97v7.73H112v6.32H93.2zM68.84 36.7h6.92c0 2.36 2.15 3.51 4.24 3.51 2.02 0 4.15-.93 4.15-3.24 0-1.22-.9-2.2-1.83-2.84-1.33-1.09-2.95-1.85-4.44-2.67-2.67-1.57-5.42-3.05-6.98-5.92a8.2 8.2 0 0 1 .06-7.05c1.7-3.54 5.51-5.56 9.3-5.56q2.1 0 3.93.74c3.42 1.28 6.21 4.4 6.21 8.3h-7c0-1.79-1.52-2.82-3.14-2.82-1.65 0-3.18 1.02-3.18 2.83q0 .84.4 1.45c.77 1.03 1.96 1.72 3.03 2.34 2.72 1.48 5.71 2.95 7.99 5.13q1.16 1.08 1.87 2.53a7 7 0 0 1 .75 3.36 9.5 9.5 0 0 1-3.28 6.95 11.7 11.7 0 0 1-7.83 2.9q-2.24.02-4.34-.75c-3.7-1.45-6.82-4.94-6.82-9.19M46.56 13.53H57q2.3 0 4.32 1 2.05.93 3.55 2.59a13 13 0 0 1 2.37 13.47 12 12 0 0 1-2.37 3.86A10.8 10.8 0 0 1 57 38.1h-3.48v9.13h-6.96zm6.96 7.02v10.53h2.92c2.58 0 4.74-2.92 4.74-5.3 0-2.48-2.1-5.23-4.74-5.23z"/><defs><linearGradient id="albljj1we" x1="30.82" x2="20.44" y1="25.45" y2="26.26" gradientUnits="userSpaceOnUse"><stop stop-color="#007FC6"/><stop offset="1" stop-color="#052668"/></linearGradient><linearGradient id="blbljj1we" x1="35.75" x2="24.34" y1="31.8" y2="32.32" gradientUnits="userSpaceOnUse"><stop stop-color="#BF7002"/><stop offset="1" stop-color="#E9D18E"/></linearGradient><linearGradient id="clbljj1we" x1="22.85" x2="35.75" y1="22.07" y2="22.62" gradientUnits="userSpaceOnUse"><stop stop-color="#CE8D24"/><stop offset=".53" stop-color="#F7D45E"/><stop offset="1" stop-color="#CF8E1C"/></linearGradient><linearGradient id="dlbljj1we" x1="20.02" x2="33.02" y1="39.72" y2="40.07" gradientUnits="userSpaceOnUse"><stop stop-color="#006DC6"/><stop offset=".48" stop-color="#56BEE5"/><stop offset="1" stop-color="#2F8ECE"/></linearGradient></defs></svg>