<svg xmlns="http://www.w3.org/2000/svg" width="200" height="60" viewBox="0 0 200 60"><path fill="#fff" d="M113.92 25.4c1-1.62 2.8-2.63 5.25-2.63 4.51 0 7.96 3.87 7.96 8.54 0 4.94-3.26 8.55-7.95 8.55-2.45 0-4.25-.92-5.26-2.44v2.04h-3.59V14.78h3.59zm-.45 5.91c0 3.06 2.18 5.24 5.41 5.24 2.9 0 4.99-2.18 5-5.24 0-3.14-2.09-5.23-5-5.23-3.23 0-5.41 2.24-5.41 5.23m20.26-16.52h-3.53v24.68h3.53zm5.97 5.36a2.6 2.6 0 0 0 2.38-1.57 2.5 2.5 0 0 0-.55-2.78 2.57 2.57 0 0 0-3.63 3.6 2.5 2.5 0 0 0 1.8.75m13 19.7a8.6 8.6 0 0 0 7.3-4.31l-2.51-1.63a5.2 5.2 0 0 1-4.8 2.8c-2.55 0-4.87-1.89-4.87-5.4 0-3.7 2.32-5.38 4.86-5.38 1.9 0 3.43.77 4.81 2.4l2.21-1.98a8.43 8.43 0 0 0-14.7 1.7 8 8 0 0 0-.57 3.27c0 5.4 4.08 8.54 8.26 8.54M138.02 23.3h3.24v16.17h-3.24zM98.58 39.7q2.6 0 4.24-2.27v2.04h3.36V23.3h-3.45v9.35c0 2.37-1.44 3.9-3.79 3.9-1.99 0-3.07-1.73-3.07-3.9v-9.36h-3.53v9.91c0 3.77 2.36 6.5 6.24 6.5m-22.6-14.28a7.3 7.3 0 0 1 5.62-2.64c4.67 0 8.03 3.58 8.03 8.55 0 4.68-3.36 8.55-8.03 8.55a7.5 7.5 0 0 1-5.62-2.45v7.82h-3.43V23.3h3.43zm-.15 5.9c0 3.06 1.99 5.24 5.32 5.24 3.17 0 5.13-2.18 5.13-5.24 0-2.99-1.96-5.23-5.13-5.23-3.33 0-5.32 2.24-5.32 5.23"/><path fill="#0038DF" d="M61.72 22.8a10.7 10.7 0 0 1-6.7 9.97 10.9 10.9 0 0 1-14.2-5.84 10.7 10.7 0 0 1 2.36-11.77 10.9 10.9 0 0 1 15.36 0 10.8 10.8 0 0 1 3.18 7.63M49.28 46.4a5.5 5.5 0 0 1-3.84 1.6 5.5 5.5 0 0 1-5.42-5.44 5.4 5.4 0 0 1 5.42-5.36 5.47 5.47 0 0 1 5.43 5.36c0 1.44-.57 2.81-1.6 3.83"/></svg>