<svg width="230" height="100" viewBox="0 0 230 100" xmlns="http://www.w3.org/2000/svg"><path d="M130.63 44.28c1.14-1.85 3.18-3 5.95-3 5.1 0 9 4.4 9 9.72 0 5.62-3.69 9.73-9 9.73-2.77 0-4.8-1.04-5.95-2.78v2.33h-4.06v-28.1h4.06v12.1Zm-.51 6.72c0 3.48 2.47 5.96 6.13 5.96 3.28 0 5.64-2.48 5.65-5.96 0-3.58-2.36-5.95-5.65-5.95-3.66 0-6.13 2.55-6.13 5.95Zm22.93-18.81h-3.99v28.1h3.99v-28.1Zm6.76 6.1a2.9 2.9 0 1 0-2.88-2.89 2.87 2.87 0 0 0 2.88 2.89Zm14.7 22.44a9.68 9.68 0 0 0 8.27-4.92l-2.84-1.85a5.93 5.93 0 0 1-5.44 3.18c-2.88 0-5.5-2.14-5.5-6.14 0-4.21 2.62-6.13 5.5-6.13 2.14 0 3.88.88 5.44 2.73l2.5-2.25a9.55 9.55 0 0 0-7.75-4.07 9.43 9.43 0 0 0-9.53 9.73c0 6.14 4.62 9.72 9.35 9.72Zm-16.59-18.86h3.66v18.41h-3.66v-18.4Zm-44.65 18.67c1.96 0 3.58-.85 4.8-2.59v2.33h3.8v-18.4h-3.9v10.64c0 2.7-1.63 4.44-4.29 4.44-2.25 0-3.47-1.96-3.47-4.44V41.87h-4v11.28c0 4.29 2.67 7.4 7.06 7.4ZM87.7 44.28c1.67-1.85 3.7-3 6.36-3 5.28 0 9.08 4.07 9.08 9.73 0 5.33-3.8 9.73-9.08 9.73a8.41 8.41 0 0 1-6.36-2.78v8.9h-3.88V41.87h3.88v2.4ZM87.53 51c0 3.48 2.25 5.96 6.02 5.96 3.58 0 5.8-2.48 5.8-5.96 0-3.4-2.22-5.95-5.8-5.95-3.77 0-6.02 2.55-6.02 5.95Z" fill="#fff"/><path d="M71.56 41.3a12.29 12.29 0 1 1-24.58.01 12.29 12.29 0 0 1 24.58-.01ZM57.48 68.17A6.18 6.18 0 0 1 53.14 70 6.18 6.18 0 0 1 47 63.81a6.17 6.17 0 0 1 6.14-6.1 6.17 6.17 0 0 1 6.14 6.1 6.2 6.2 0 0 1-1.8 4.36Z" fill="#0038DF"/></svg>