<svg xmlns="http://www.w3.org/2000/svg" width="200" height="80" viewBox="0 0 200 80"><path fill="#fff" fill-rule="evenodd" d="m86.76 23.67 7.63-9.17h-6.23l-5.33 6.81V8h-4.57v26.08h4.57v-8.05l6.55 8.05h6.23zm-41.39 10.4V26.5h3.3l5.69 7.59h5.81l-6.87-9.16a8.44 8.44 0 0 0-4.9-15.3h-7.68v24.46zm0-19.8h3.03a3.8 3.8 0 0 1 0 7.58h-3.03zm102.9 8.3v11.5h-4.44V14.5h4.44v.72s1.6-1.2 3.78-1.2c4.72 0 7.95 3.83 7.95 8.55v11.5h-4.44v-11.5c0-2.15-1.49-3.97-3.65-3.97-2.15 0-3.64 1.82-3.64 3.97m-77-7.2v-.86h4.45v19.57h-4.45v-.87a7.3 7.3 0 0 1-4.18 1.35c-5.06 0-8.9-4.6-8.9-10.27s3.84-10.27 8.9-10.27c1.64 0 2.85.5 4.18 1.35m-8.5 8.91c0 3.1 1.83 5.56 4.32 5.56s4.25-2.46 4.25-5.56-1.77-5.55-4.25-5.55c-2.49 0-4.32 2.45-4.32 5.55m1.82 13.46h72.16L70.33 43.5zm42.26-23.24V26c0 2.16-1.48 3.98-3.64 3.98-2.15 0-3.64-1.82-3.64-3.98V14.5h-4.44V26c0 4.72 3.22 8.56 7.94 8.56 2.19 0 3.78-1.2 3.78-1.2v.72h4.45V14.5zm14.96 15.43c.57 0 1.08-.22 1.48-.49l2.93 3.9a9 9 0 0 1-4.35 1.24c-3.31 0-6.6-2.6-6.6-6.98v-8.45h-2.35V14.5h2.34V9.62h4.45v4.88h3.8v4.65h-3.8v8.38c0 1.84 1.37 2.4 2.1 2.4m2.91-5.65c0-5.76 3.7-10.28 8.84-10.28l-.01-.01c5.06 0 9.6 4.62 8.5 11.66h-12.79c.59 4.47 5.64 6.74 8.68 2.27l3.93 2.27c-2.52 3.58-5.53 4.38-7.87 4.38-4.65 0-9.28-4.22-9.28-10.29m12.72-2.53h-8c.93-4.58 7.13-4.84 8 0M45.97 72.38 40 49.14h5.32l3.82 17.92 3.79-17.8h5.39l3.79 17.87 3.82-17.99h5.06l-6 23.24h-5.76l-3.75-16.43-3.71 16.43zm28.87-.82a7.6 7.6 0 0 0 4.21 1.22v-.01a6.7 6.7 0 0 0 3.53-.95 6 6 0 0 0 2.33-2.51l.36 3.06h3.9V53.66h-3.9l-.4 3.13a5.7 5.7 0 0 0-2.29-2.6 6.6 6.6 0 0 0-3.53-.97q-2.34 0-4.23 1.24a8.6 8.6 0 0 0-2.98 3.44 11 11 0 0 0-1.1 5.12q0 2.91 1.12 5.11a8.5 8.5 0 0 0 2.98 3.43m8.54-4.51a4.2 4.2 0 0 1-3.31 1.54q-2.03.01-3.33-1.54a6 6 0 0 1-1.3-4.02q0-2.48 1.3-4.04c.86-1.04 2-1.56 3.33-1.56q2 0 3.31 1.56a6 6 0 0 1 1.32 4.04q0 2.46-1.32 4.02m8.72 5.33V46.52h4.56v25.86zm7.5-25.86v25.86h4.55V46.52zm15.94 26.33q-2.9 0-5.02-1.2a8 8 0 0 1-3.26-3.42 11 11 0 0 1-1.15-5.21c0-2 .38-3.62 1.15-5.1a9 9 0 0 1 3.15-3.5 8.4 8.4 0 0 1 4.55-1.27 8.1 8.1 0 0 1 7.5 4.68q1.1 2.2 1.1 5.12v1.31h-12.82q.55 4.74 5.2 4.74 3.11 0 5.47-2.77l1.97 3.39q-1.5 1.57-3.53 2.4-2.05.85-4.3.84m-.62-16.02q-1.67 0-2.75 1.13a6 6 0 0 0-1.4 3.2h8.27a5.5 5.5 0 0 0-1.33-3.2 3.7 3.7 0 0 0-2.79-1.13m12.59 9q0 6.94 6.05 6.95 2.83 0 4.8-1.28l-.87-4.19a5.2 5.2 0 0 1-3.17 1.25q-2.25 0-2.26-2.95V57.6h6v-3.94h-6V49h-4.55v4.66h-2.99v3.94h2.99z"/></svg>