<svg xmlns="http://www.w3.org/2000/svg" width="132" height="60" viewBox="0 0 132 60"><path fill="#fff" fill-rule="evenodd" d="m57.18 18.63 5.08-6.22h-4.15l-3.56 4.62V8H51.5v17.69h3.05v-5.46l4.37 5.46h4.15zm-27.6 7.06v-5.15h2.2l3.8 5.15h3.87l-4.59-6.21a5.8 5.8 0 0 0 2.37-4.67A5.7 5.7 0 0 0 31.6 9.1h-5.12v16.6zm0-13.44h2.02c1.4 0 2.53 1.15 2.53 2.57a2.56 2.56 0 0 1-2.53 2.57h-2.02zm68.6 5.64v7.8h-2.96V12.4h2.96v.49s1.07-.82 2.52-.82c3.15 0 5.3 2.6 5.3 5.8v7.8h-2.96v-7.8c0-1.46-1-2.7-2.43-2.7s-2.43 1.24-2.43 2.7m-51.33-4.9v-.58h2.96V25.7h-2.96v-.59c-.9.58-1.7.92-2.8.92-3.36 0-5.92-3.13-5.92-6.97s2.56-6.96 5.93-6.96c1.1 0 1.9.33 2.79.9m-5.67 6.05c0 2.11 1.22 3.77 2.88 3.77s2.84-1.66 2.84-3.77c0-2.1-1.18-3.76-2.84-3.76s-2.88 1.66-2.88 3.76m1.21 9.14H90.5l-44.28 3.9zM70.57 12.4v7.8c0 1.46-1 2.7-2.43 2.7s-2.43-1.24-2.43-2.7v-7.8h-2.96v7.8c0 3.2 2.15 5.8 5.3 5.8 1.45 0 2.52-.81 2.52-.81v.49h2.96V12.4zm9.97 10.46c.38 0 .72-.14.99-.32l1.95 2.64c-.93.56-2.08.84-2.9.84-2.2 0-4.4-1.77-4.4-4.74v-5.73H74.6V12.4h1.57V9.1h2.96v3.3h2.53v3.16h-2.53v5.69c0 1.25.91 1.62 1.4 1.62m1.94-3.82c0-3.91 2.46-6.98 5.9-6.98h-.01c3.37 0 6.4 3.13 5.67 7.9H85.5c.39 3.03 3.76 4.58 5.78 1.54l2.62 1.54c-1.68 2.43-3.68 2.97-5.24 2.97-3.1 0-6.19-2.86-6.19-6.97m8.48-1.72h-5.34c.62-3.1 4.76-3.29 5.34 0M29.98 51.67 26 35.91h3.54l2.55 12.16 2.53-12.08h3.6l2.52 12.12 2.55-12.2h3.37l-4 15.76h-3.84l-2.5-11.14-2.47 11.14zm19.25-.55q1.25.82 2.8.82a4.4 4.4 0 0 0 2.36-.65 4 4 0 0 0 1.55-1.7l.24 2.08h2.6v-12.7h-2.6l-.26 2.13a4 4 0 0 0-1.53-1.77 4.3 4.3 0 0 0-2.36-.66q-1.55 0-2.81.84a6 6 0 0 0-2 2.34q-.72 1.5-.73 3.47 0 1.98.75 3.47.74 1.5 1.99 2.33m5.7-3.07a2.8 2.8 0 0 1-2.22 1.05q-1.35 0-2.22-1.05a4.2 4.2 0 0 1-.86-2.72q0-1.68.86-2.74a2.8 2.8 0 0 1 2.22-1.06q1.35 0 2.21 1.06.88 1.06.88 2.74 0 1.67-.88 2.72m5.8 3.62V34.13h3.04v17.54zm5-17.54v17.54h3.04V34.13zm10.63 17.86q-1.94 0-3.35-.8a5.5 5.5 0 0 1-2.17-2.33 8 8 0 0 1-.77-3.54c0-1.35.26-2.45.77-3.46q.76-1.5 2.1-2.37a5.5 5.5 0 0 1 3.04-.87 5.3 5.3 0 0 1 5 3.18q.72 1.5.73 3.47v.9h-8.55q.36 3.2 3.47 3.2 2.07 0 3.64-1.87l1.31 2.3a7 7 0 0 1-2.35 1.63q-1.36.57-2.86.57m-.41-10.87q-1.11 0-1.84.77-.72.77-.93 2.17h5.51a4 4 0 0 0-.88-2.17q-.72-.76-1.86-.77m8.39 6.1q0 4.72 4.03 4.72 1.9 0 3.2-.87L91 48.24q-1.06.84-2.1.84-1.52 0-1.52-2v-5.44h4v-2.67h-4v-3.16h-3.03v3.16h-2v2.67h2z"/></svg>