<svg xmlns="http://www.w3.org/2000/svg" width="132" height="60" viewBox="0 0 132 60"><path fill="#001EFF" d="M121.73 30.7v4.16q-.03 1.16.2 2.3v.11q-2.49.79-5.1.85c-5.94 0-9.8-3.57-9.8-9.04 0-5.58 3.65-9.13 9.28-9.13 1.7 0 3.44.33 4.53.85v3.61h-.12a6.4 6.4 0 0 0-4.46-1.66c-3.55 0-5.62 2.25-5.62 6.22 0 4.1 2.24 6.38 6.17 6.38q.78 0 1.55-.17v-4.33q-1.61-.03-3.2.28h-.12V27.8h.11q1.69.31 3.4.28H122v.12a9 9 0 0 0-.27 2.51m-23.15 4.55h-1.93v-5.09h1.93c1.82 0 2.8.12 3.71.33h.12v-3.43h-.11c-.91.21-1.9.33-3.71.33h-1.94v-4.57h1.98q3.17-.02 4.65.75h.09v-3.33h-10.9v.11c.42.73.7 2.2.7 3.73v9.9c0 1.53-.28 3.01-.7 3.75v.11h11.49v-3.56h-.12q-1.96.99-5.26.97M84.2 27.6c-2.2-.89-3.44-1.33-3.44-2.83 0-1.37.96-2.1 2.64-2.1 1.41 0 2.62.52 3.9 1.6h.11V20.7a10 10 0 0 0-3.9-.75c-3.86 0-6.23 2.04-6.23 5.37 0 3.2 2.2 4.2 4.62 5.17 2.2.89 3.44 1.34 3.44 2.84 0 1.36-.98 2.06-2.76 2.06-1.82 0-3.2-.63-4.85-2.16h-.11v3.86c1.52.68 3.16 1.04 4.83 1.03 3.93 0 6.37-2.04 6.37-5.35 0-3.2-2.2-4.2-4.62-5.17m-15.54 7.66H67.1V24.08c0-1.52.28-3 .69-3.73v-.11h-4.85v.11c.41.73.69 2.2.69 3.73v9.9c0 1.53-.28 3.01-.69 3.75v.11h11.1v-3.6h-.12q-1.98 1.02-5.26 1.01zM15.05 41v.03h.54c.51.01.86-.28.86-.8a.7.7 0 0 0-.2-.54.7.7 0 0 0-.53-.22h-.67v.03q.07.14.06.3v.89a1 1 0 0 1-.06.31m.36-1.28h.3a.5.5 0 0 1 .32.16.5.5 0 0 1 .11.36.5.5 0 0 1-.13.4.5.5 0 0 1-.38.13h-.21zm1.99 0v-.03l-.43-.08v.03q.07.15.07.31v.9q0 .15-.07.29v.04l.43.08v-.03a1 1 0 0 1-.07-.31v-.9q0-.16.07-.3m1.36.52q.22.08.36.26h.02v-.32a1 1 0 0 0-.32-.18c-.5-.15-.9.16-.9.68q-.01.31.17.58.2.24.49.32t.56-.03v-.3h-.02a.6.6 0 0 1-.49.08.6.6 0 0 1-.3-.22.6.6 0 0 1-.1-.38c0-.39.21-.58.53-.49m1.6.47q.18.05.34.17h.02v-.32l-1.27-.35v.32l.02.01a.6.6 0 0 1 .35.02l.11.03v.98q.02.15-.06.29v.02l.43.12v-.02a1 1 0 0 1-.07-.33v-.97zm1.2.09v-.03l-.43-.1v.02q.07.15.07.32v.73q-.01.24.13.44.16.18.39.23c.44.1.74-.12.74-.53v-.59q0-.15.07-.3v-.02l-.41-.08v.03q.07.15.06.32v.61q0 .38-.4.3a.3.3 0 0 1-.22-.14.4.4 0 0 1-.07-.26v-.67q0-.16.07-.28m1.51 1.8v.03l.41.05v-.03a1 1 0 0 1-.06-.3v-.75l.42.62.4-.57v.74q.01.16-.06.3v.03h.43v-.03a1 1 0 0 1-.07-.3v-.9q0-.16.07-.3v-.03h-.35l-.4.58-.4-.63-.38-.04v.02q.07.15.07.32v.89q0 .16-.08.3m15.97-.44q.57-.05.58-.55 0-.48-.58-.46h-.63v.02q.08.15.07.31v.9q.01.16-.07.3v.03h.44v-.02a1 1 0 0 1-.07-.3v-.22zm-.26-.76h.25q.3 0 .3.26 0 .24-.28.25h-.27zm2.05 1.1.49-.11v-.03a1 1 0 0 1-.2-.29q-.3-.54-.57-1.1l-.08.01-.52 1.3a1 1 0 0 1-.2.36v.03l.44-.06v-.02a.4.4 0 0 1 .01-.32l.62-.1a.4.4 0 0 1 .01.3zm-.53-.5.2-.49.2.42zm1.9-1.16a.6.6 0 0 1 .5.07h.01v-.3a.8.8 0 0 0-.56-.02 1 1 0 0 0-.49.33 1 1 0 0 0-.17.57c0 .52.4.82.9.66q.18-.05.32-.17v-.32h-.02a.7.7 0 0 1-.36.25c-.31.1-.54-.1-.54-.49q0-.2.1-.37.13-.16.31-.21m1.73-.46a.6.6 0 0 1 .34-.02h.02v-.33l-1.26.36v.32h.02a1 1 0 0 1 .35-.18l.11-.03v.98q0 .16-.07.32v.03l.43-.12v-.03a.5.5 0 0 1-.06-.29v-.97zm1.56.96q.24-.03.4-.23.15-.2.14-.45v-.7q0-.16.07-.31v-.03l-.4.08v.02q.06.15.06.3v.68a.3.3 0 0 1-.07.24.3.3 0 0 1-.21.13q-.4.07-.41-.3v-.6a1 1 0 0 1 .06-.33v-.02l-.43.1v.03a.5.5 0 0 1 .07.29v.61c0 .4.29.59.72.5m1.15-.27v.03l.41-.04v-.03a1 1 0 0 1-.07-.3V40l.4.56h.03l.4-.6v.75q0 .15-.07.3v.03h.44V41a1 1 0 0 1-.07-.3v-.9q0-.17.07-.3v-.03h-.35l-.4.6-.4-.57-.38.04v.03q.07.14.07.3v.89q0 .16-.08.31m-17.76 1.8-.4-.67q-.2-.03-.41-.09v.03q.07.15.07.32v.9q0 .15-.07.29v.02l.4.1v-.03a1 1 0 0 1-.06-.32v-.74l.4.67h.02l.41-.52v.74q0 .15-.07.3v.02l.43.07v-.03a1 1 0 0 1-.06-.31v-.9q0-.16.06-.3v-.02l-.32-.05zm1.87.95-.22-.02v-.42l.2.01q.15 0 .3.05h.03v-.31h-.02q-.15.03-.31.01l-.2-.01v-.38l.22.01q.2 0 .37.09h.03v-.31q-.5-.02-.98-.06v.02q.08.15.06.31v.9q.01.15-.06.3v.02l1.03.06v-.32h-.02a1 1 0 0 1-.43.05m.98-.27c0 .36.24.58.63.56a.6.6 0 0 0 .46-.18.6.6 0 0 0 .18-.47v-.66q0-.17.07-.31v-.03l-.41.03v.03q.07.14.07.3v.68q0 .31-.35.34-.34 0-.34-.32v-.66q-.02-.16.06-.3v-.03h-.43v.02q.07.15.07.3zm2.3.32a.5.5 0 0 1-.06-.3v-.74l.4.52h.02l.4-.66v.74a1 1 0 0 1-.06.32v.02l.43-.1v-.02a.5.5 0 0 1-.07-.29v-.9q0-.16.07-.32v-.02l-.37.08-.4.67-.4-.52-.37.05v.03q.08.14.07.3v.9q0 .16-.07.31v.03l.42-.07zm14.23-5q.47.01.92.11v2.81c-3.89-.75-7.78 2.17-11.66 1.43V40.4c2.39.46 4.76-.47 7.15-1.07v-.3c-2.2.57-4.41 1.4-6.62 1.16v-.27c0-.3-.36-.53-1.27-.27-.68.2-1.3.57-1.3 1.12v.35c-2.54.67-5.2.67-7.73 0v-.35c0-.55-.63-.92-1.3-1.12-.92-.26-1.28-.03-1.28.27v.27c-2.2.24-4.43-.59-6.64-1.15v.3c2.4.6 4.78 1.52 7.17 1.06v2.81c-3.88.75-7.77-2.17-11.66-1.42v-2.82q.46-.1.93-.11l-.17-.28q-.53.04-1.04.16v3.39c4.07-.97 8.14 2.28 12.21 1.3v-.42q.43.03.78.25v.95a15.3 15.3 0 0 0 9.7 0v-.96q.36-.22.78-.24v.42c4.07.97 8.14-2.28 12.21-1.3v-3.39a6 6 0 0 0-1.02-.16q-.07.15-.16.29M36.2 44.02c-2.98.94-6.17.94-9.16 0v-2.81c2.99.94 6.18.94 9.16 0zm11.38-27.1a5 5 0 0 0-.5-.5l-.36.39q-.18-.16-.37-.28l.27-.46q-.44-.3-.9-.54l-.26.46-.4-.2.15-.5a5 5 0 0 0-.9-.29l-.17 1.54c.65.05 1.77.65 1.92.74a3 3 0 0 0 1.52-.36m-8.35 13.6a.4.4 0 0 0-.42-.1c-.43.3.3.94.85.72q-.3-.24-.43-.62m-.84 2.87c.1.1.3-.15.34-.3s-.1-.2-.1-.2a1 1 0 0 0-.5-.17 1 1 0 0 0-.62.3 1 1 0 0 1 .88.37m.05 1.4q.07 0 .07-.03c.01-.16-.03-.47-.18-.48-.36-.02-.67.28-.8.6q.44-.2.91-.1m1.28-2.56c.07-.09-.03-.2-.03-.2a.8.8 0 0 0-.59-.31 1 1 0 0 0-.49.18 1 1 0 0 1 .68.53q.02.03.08.02a.6.6 0 0 0 .35-.22m5.16 7c.19-.25.58-.69.8-.75s.29-.9-.03-.79c-.82.26-.77 1.54-.77 1.54m.81-.06q.26-.17.55-.2c.57-.16.5-.83-.07-.65-.3.09-.45.52-.48.85m-.48-1.4c.16-.08.13-.75-.11-.64-.64.31-.51 1.38-.51 1.38q.23-.45.62-.74m-3.85-8.61c.39.34.22.74.32.44.01-.03.2-.78-.06-.99-.33-.25-.53.26-.26.55m-1.86 1.28q.2.22.48.27t.53-.12a1.2 1.2 0 0 1-.64-.46c-.1-.17-.24-.18-.33-.13-.15.1-.09.4-.04.44m3.08-11.89c-.94.22-1.03-.42-1.03-.42s-.34.8.38.96c.48.1.95-.4 1.81-.05 0 0-.23-.7-1.16-.49m-3.23 11.9v-.02c-.19-.56.38-.81.64-.36q.15-.15.15-.35l-.12-.23c0-.33-.15-.36-.02-.52l.22-.08c.08-.03.4-.1.58.07q.22.21.35.11c-.15-.36.09-.75.4-.64.02-.08-.01-.22-.3-.27l-.55-.06s1.1-.97 1.28-1.15c0 0-.16.8.3 1.25 0 0 .51-.63.64-.98s.09-.4.09-.4c.08.08 1.06.37 1.34-.75.15.3-.09 1.21-1.16 1.13q-.1.29-.25.54c.71.5 1.62 1.36 1.7 1.6 0 0-.08.82-1.48 1.07-.3.05-.9.22-1.25.6-.52.58-.58 1.9-1.06 2.1.02 0 .33.09.76-.26l.22.8q-.91-.01-1.71.42a1 1 0 0 1-.01-.66c.13-.33.26-1.2-.23-1.2-.04.18-.42.45-.61.38-.03.03-.11.2.11.52 0 0-.28-.21-.52-.11.03.21-.25.62-.48.55h-.03s-.19.26.09.62q.1.06.14.17.09.24.04.49c0 .05.15.2.44.1a.4.4 0 0 1-.1.18.3.3 0 0 1-.2.08s.3.88 1.23.33a.8.8 0 0 1-.36.47 1.06 1.06 0 0 0 1.4-.1q-.1.3-.31.5s1.23.06 1.48-.68q.06.19 0 .38.28-.16.39-.46c.12-.36.31-.51.56-.54.26-.02.44-.45.4-.68a26 26 0 0 1-.17-2.06c0-.32.96-.25 1.85-.5q.24-.44.34-.95c.07-.46-.27-.96-.27-.96.78.62.5 1.29.2 2.06-.12.3-.27.71-.17.93.36.66.47 1.43.32 2.17a.7.7 0 0 0 .67-.23q.3.64.7 1.2c.06.65-.33 1.4-.53 1.29-.27-.13-.78-.57-1.13-.26q.12.25.07.53a1 1 0 0 1 .27-.1c.3 0 .34.43.26.73a1 1 0 0 1 .4-.12c.41 0 .6.5.17.82q.17.16.39.22c.32.05.73-.63.79-.89q.03.38.02.74s.85-.29.61-1.7c0 0 .35.06.34.82q.3-.39.3-.9c.03-.49-.1-.58-.03-.85q.24.4.23.88a1 1 0 0 0 .19-.77q-.08-.44-.42-.71a1.1 1.1 0 0 1-.16-1.2.7.7 0 0 1-.45-.07c-.19-.1-.56-.7-.53-.98.02-.28.25-.73.2-1.07.49 1.1 1.1 1.79 2.02 1.79.97 0 1.5-1.05 1.5-1.92 0-1.28-.81-2.45-.81-3.3 0-.38.28-.97.62-.97s-.12.79-.07 1.24q.04.4.28.7a1 1 0 0 1 .23-.46c-.02.73.43 1.15.37 1.95.41-.4.69-.72.56-1.48q.19.08.4.05c-.2-.25-.18-1.1-.33-1.46q.16-.02.28-.1a1 1 0 0 0 .18-.23c-.7-.15-.61-.88-1.58-.88-1.08 0-1.63.7-1.63 1.76 0 1.05.78 1.9.78 3.03 0 .89-.34 1.25-.74 1.25-.54 0-1.04-.55-1.46-2.04a9 9 0 0 0-.82-2.3 1.5 1.5 0 0 1-.93-.42q-.1.39-.4.64s-1.12-.33-.88-1.5c0 0 .05.92.85 1.19q.23-.37.32-.79c.27.38.67.63 1.11.71q.24-.38.22-.83.53.3 1.12.2s.24-.42.04-1.25c.54.17 1.21-.06 1.46-.36a4 4 0 0 0-.9-.89s1.8.59 2.38-.8a4 4 0 0 1-1.61-.53s1.72-.15 2.43-2.13a5 5 0 0 1-1.8.08s1.92-.4 1.86-2.17c0 0-.3.38-1.29.49 0 0 1.63-1.84.84-3.32 0 0-.06.86-1.04 1.67 0 0 1.03-2.4-.2-3.99.02.96-.53 1.94-.97 2.61 0 0 .15-1.67-.65-2.1 0 0 .1 2.01-1.52 4.67-.71 1.17-1.13 1.78-.57 2.88.28.56-.39 1.73-1.46 1.74-1.83.02.27-3.38.27-3.38q.11.3.34.5.3-.59.2-1.24a2 2 0 0 0-.16-.65q.22.04.4-.08s-.1-.78-.33-1.16a1 1 0 0 0-.3-.36c.17.06 1.01.27 1.39-.2q.12-.18.12-.39s-.16.14-.61.14c0 0 1.2-.28.92-1.7a2 2 0 0 1-.87.72c-.64.3-.82.32-1.57.34a6 6 0 0 0-1.97-.74c-.05 0-.46 0-.57.36 0 0-.75-.21-1.09.36a1 1 0 0 0-.05.88c.04-.3.62-.55.91-.18.45.67.7.43 1.09.74q.2.17.34.41c-.4-.14-1.18.26-1.5.14a1 1 0 0 1-.36-.22q-.04.26.07.49a1 1 0 0 0 .34.35q.37.15.75 0l.27-.08c.5.22 1.03.3 1.33-.14a.7.7 0 0 0 .07-.63s.24.25.1.75c-.1.3-.5.56-1.07.42l-.45-.15c-.45.64-1.27.53-2.04.67a3 3 0 0 0-.75-.52c-1.1-.47-1.32-1.4-2.35-1.64-.38-.1-.4-.1-.51-.2-.23-.17-.48-.33-.75-.16l-.13.11a.4.4 0 0 1 .33.2.5.5 0 0 1 .06.4l-.02.1q.15 0 .27.08t.17.22a.5.5 0 0 1-.16.52q.1.13.23.16c.26.08.45-.3.77-.22a.2.2 0 0 1 .14.1c.01.05.17.45-.02.72a.4.4 0 0 0-.1.28c.44-.12.65.08.68.38.08-.03.13-.18.13-.26l.02-.55.78.97q-.15.2-.23.42.22-.1.45-.15l.08.1C39.6 23 39.9 24.54 39.9 24.54a1 1 0 0 1 .24-.44 1 1 0 0 1 .43-.24 2.2 2.2 0 0 0-.22 1.99s.36-.52 1.2-.46q-.59.63-1 1.4c-.34.71-.95 1.16-1.06 1.28-.1.12-.57.58-.67.87-.2.6-.14.58-.34.82q-.15.13-.2.33a.6.6 0 0 0 .04.4q.08.14.21.22a.4.4 0 0 1 .16-.36.4.4 0 0 1 .38-.06q.15.04.26.16m5.6-12.69c-.53.73-1.02-.07-1.02-.07v-.01c.22.05.23-.03.41-.09a.2.2 0 0 0 .07.26.2.2 0 0 0 .18-.01l.06-.08a.2.2 0 0 0-.04-.19q.2.05.33.2m-7.67 1.87q.22-.32.57-.48.07-.06.1-.2a.3.3 0 0 0-.04-.23.3.3 0 0 0-.2-.12c-.29 0-.65.56-.43 1.03m2.31 1.48c-.26.02-.4.23-.6.45 1.06.15.95-.47.6-.45m-1.38-1.32a.2.2 0 0 0 .1-.09q.04-.07.04-.14c0-.27-.3-.24-.3-.24-.38 0-.68.73-.32 1.26 0-.36.14-.67.48-.79m-21.02-2.51a7 7 0 0 1 1.92-.74L18.92 15a5 5 0 0 0-.9.29l.17.5-.41.2-.27-.46c-.25.14-.64.38-.89.55l.26.45-.36.29-.36-.4q-.27.23-.5.5c.63.32.87.34 1.52.36m6.4 13.85c.55.23 1.27-.4.84-.71a.4.4 0 0 0-.42.1q-.11.37-.42.6m2.15 1.9a1 1 0 0 0-.63-.31 1 1 0 0 0-.5.16s-.13.07-.1.2c.05.16.25.42.35.31a1 1 0 0 1 .88-.37m0 1.84c-.14-.31-.45-.61-.81-.6-.16.02-.2.33-.18.49q0 .04.07.02.47-.1.92.1m-1.86-2.42q.05.02.08-.01a1 1 0 0 1 .68-.53 1 1 0 0 0-.5-.18.8.8 0 0 0-.58.3s-.1.12-.03.21q.14.17.35.21m-6.28 5.24c-.32-.1-.24.72-.04.79.2.06.62.5.8.75 0 0 .06-1.28-.76-1.54m-.52.63c-.57-.18-.64.49-.07.64q.3.05.55.2c-.03-.32-.18-.75-.48-.84m1.57.19s.13-1.07-.5-1.38c-.25-.12-.28.56-.12.63q.4.3.62.75m2.97-9.9c-.26.2-.07.96-.06.99.1.3-.07-.1.32-.44.28-.3.08-.8-.25-.55M23.7 30c-.09-.06-.23-.04-.33.12q-.25.36-.64.47a.8.8 0 0 0 1-.15c.07-.04.12-.35-.02-.44zm-4.2-10.96c.86-.35 1.33.16 1.8.05.72-.16.38-.96.38-.96s-.09.64-1.02.42-1.16.5-1.16.5m4.64 11.24a.4.4 0 0 1 .39.05.4.4 0 0 1 .15.36 1 1 0 0 0 .21-.23.6.6 0 0 0-.15-.72c-.2-.24-.16-.22-.35-.82-.1-.3-.56-.75-.67-.87s-.72-.57-1.06-1.28a6 6 0 0 0-1-1.4c.84-.06 1.2.46 1.2.46a2.2 2.2 0 0 0-.2-2q.24.08.4.26.18.19.24.43s.3-1.55-1.34-2.62l.08-.1q.23.06.44.17a2 2 0 0 0-.22-.43c.32-.4.7-.84.78-.97l.02.55c0 .09.05.23.14.26.02-.3.24-.5.67-.38 0-.04 0-.14-.1-.28-.2-.27-.03-.67-.02-.71a.2.2 0 0 1 .14-.1c.32-.08.52.29.77.22q.15-.05.23-.17a.5.5 0 0 1-.16-.52q.05-.14.17-.22a.4.4 0 0 1 .27-.07l-.02-.1a.5.5 0 0 1 .06-.4.5.5 0 0 1 .34-.2.4.4 0 0 0-.14-.12c-.26-.18-.51 0-.74.16-.13.1-.14.1-.52.2-1.03.25-1.24 1.17-2.34 1.64q-.42.2-.76.52c-.76-.13-1.6-.03-2.04-.67l-.45.15c-.57.14-.97-.12-1.06-.42-.15-.5.09-.75.09-.75a.7.7 0 0 0 .07.63c.29.44.83.36 1.33.14l.27.08q.37.15.76 0a1 1 0 0 0 .33-.35q.11-.23.07-.49a1 1 0 0 1-.34.22c-.33.12-1.1-.28-1.51-.14q.13-.25.35-.4c.39-.32.63-.08 1.08-.75.29-.37.87-.12.92.18a1 1 0 0 0-.06-.88c-.35-.57-1.09-.36-1.09-.36-.1-.36-.52-.36-.57-.36-.64.02-1.66.57-1.97.74a3 3 0 0 1-1.57-.34 2 2 0 0 1-.87-.72c-.28 1.42.92 1.7.92 1.7-.45 0-.6-.14-.6-.14q-.01.21.11.38c.38.48 1.21.27 1.4.21-.05.03-.15.1-.3.36-.23.38-.34 1.16-.34 1.16q.19.12.4.08-.14.3-.17.66-.1.65.2 1.25.23-.21.34-.51s2.1 3.4.27 3.38c-1.07-.01-1.74-1.18-1.46-1.74.55-1.1.14-1.71-.57-2.88-1.62-2.66-1.52-4.67-1.52-4.67-.8.43-.66 2.1-.66 2.1a5 5 0 0 1-.95-2.6c-1.24 1.59-.2 4-.2 4-.98-.82-1.05-1.68-1.05-1.68-.8 1.48.84 3.32.84 3.32-.99-.11-1.29-.5-1.29-.5-.06 1.79 1.86 2.18 1.86 2.18q-.9.15-1.8-.08a3.1 3.1 0 0 0 2.43 2.14q-.75.42-1.61.53c.59 1.39 2.38.8 2.38.8q-.51.39-.9.9c.25.3.92.52 1.46.35-.2.83.04 1.25.04 1.25q.6.11 1.13-.2-.03.46.22.84a1.7 1.7 0 0 0 1.11-.68q.1.42.32.79c.8-.27.86-1.2.86-1.2.23 1.18-.88 1.5-.88 1.5q-.3-.23-.4-.62-.4.36-.93.4c-.41.65-.65 1.6-.83 2.3-.41 1.5-.92 2.05-1.45 2.05-.4 0-.75-.37-.75-1.25 0-1.13.78-1.98.78-3.03s-.55-1.76-1.63-1.76c-.96 0-.87.73-1.58.88q.06.13.19.22.12.08.27.1c-.14.35-.12 1.2-.32 1.46q.2.03.4-.05c-.13.76.14 1.08.56 1.47-.06-.8.38-1.21.36-1.94q.2.19.24.45.23-.3.28-.69c.04-.45-.41-1.25-.07-1.25s.62.6.62.98c0 .85-.82 2.02-.82 3.3 0 .87.54 1.91 1.5 1.91.93 0 1.53-.69 2.02-1.78-.05.33.18.8.2 1.07s-.34.87-.52.98q-.21.12-.46.07a1.2 1.2 0 0 1-.16 1.2q-.33.27-.41.7a1 1 0 0 0 .19.77q-.02-.46.22-.87c.07.26-.05.36-.03.85q0 .51.3.9c0-.76.34-.82.34-.82-.23 1.4.62 1.68.62 1.68q-.01-.37.01-.73c.06.24.48.93.8.89a1 1 0 0 0 .38-.22c-.43-.32-.24-.83.17-.83q.22 0 .4.13c-.08-.3-.04-.73.26-.73q.15.02.27.1a.8.8 0 0 1 .08-.54c-.35-.3-.87.13-1.13.26-.2.1-.6-.64-.53-1.28q.4-.57.68-1.22a.8.8 0 0 0 .68.23 3.2 3.2 0 0 1 .31-2.17c.11-.22-.04-.64-.16-.93-.3-.77-.58-1.44.2-2.06 0 0-.35.5-.28.96q.1.51.35.95c.9.25 1.84.19 1.84.5 0 .32-.1 1.76-.16 2.06-.04.24.11.65.4.68q.38.05.56.54.1.3.39.46a.5.5 0 0 1 0-.38c.25.74 1.48.68 1.48.68q-.23-.2-.32-.5a1.06 1.06 0 0 0 1.4.1.7.7 0 0 1-.35-.47c.93.55 1.22-.33 1.22-.33a.3.3 0 0 1-.18-.07.4.4 0 0 1-.12-.17c.3.09.44-.06.44-.11a1 1 0 0 1 .04-.49.3.3 0 0 1 .15-.18c.27-.35.08-.6.08-.62h-.03c-.22.08-.52-.33-.48-.54-.23-.1-.52.1-.52.1.23-.32.14-.48.12-.51-.2.07-.58-.2-.61-.38-.5 0-.37.87-.23 1.2q.1.33-.01.66a3.4 3.4 0 0 0-1.71-.42l.22-.8c.43.35.74.26.75.26-.48-.2-.54-1.53-1.06-2.1a2.4 2.4 0 0 0-1.25-.6c-1.4-.26-1.47-1.07-1.47-1.07a7 7 0 0 1 1.7-1.6q-.16-.26-.26-.54c-1.07.08-1.3-.83-1.15-1.13.27 1.12 1.25.83 1.34.75 0 0-.04.06.09.4.12.35.63.98.63.98.46-.47.3-1.25.3-1.25.18.18 1.29 1.15 1.29 1.15l-.56.06c-.28.05-.31.19-.3.27.32-.1.56.28.4.64q.14.1.35-.11c.19-.16.5-.1.58-.08l.23.09c.12.17-.03.19-.02.51l-.12.24q0 .2.14.35c.26-.45.83-.2.64.36v.03q.11-.15.27-.2m-5.53-12.7a.2.2 0 0 0-.03.18q.02.05.06.08a.17.17 0 0 0 .25-.06.2.2 0 0 0 0-.19c.17.06.18.14.4.09 0 0-.49.8-1 .08a1 1 0 0 1 .33-.19m6.9 1.02a.3.3 0 0 0-.2.11.3.3 0 0 0-.03.24c.02.1.03.14.1.2q.36.15.56.48c.22-.47-.13-1.03-.42-1.03m-1.27 2.96c-.2-.22-.35-.43-.6-.45-.35-.02-.46.6.6.45m1.25-.98c.37-.53.06-1.26-.3-1.26 0 0-.31-.03-.31.24q0 .08.03.14.05.06.12.1c.33.11.46.42.46.78m4.9 7.88a.4.4 0 0 1 .15-.3.3.3 0 0 1 .32-.03c-.12.42-.31.18-.47.33M27.9 28a.4.4 0 0 1 .31.12.4.4 0 0 1 .08.33c-.11-.15-.36.07-.39-.45m1.7.5c-.04-.1 0-.13 0-.13s.13.08.21.05a1 1 0 0 1 .4 0l-.02.05a.3.3 0 0 0-.26.1c-.05.14-.07.11-.12.12q-.05-.01-.05.11c0 .09-.03.18-.09.18q0-.24-.06-.48M32 26.76h-.77v-.6a.4.4 0 0 1 .1-.3.4.4 0 0 1 .28-.14.4.4 0 0 1 .3.14.4.4 0 0 1 .09.3zm-1.56-3.52.13.57q.24-.04.49-.06v-.58q.56-.03 1.13 0v.57q.24.01.49.05l.12-.56q.5.07 1 .25l-.4 1.23-.36.42a4 4 0 0 0-2.83 0l-.37-.42-.39-1.23q.48-.18.98-.25zm.6 6.06c.23-.04.3-.18.4-.37l-.25-.16c-.1-.06-.07-.08-.16-.15q.22-.3.22-.66a.6.6 0 0 0-.37-.18c.03-.08-.03.04.22-.42-.25-.05-.46-.12-.7-.03l.18-.23a.8.8 0 0 0-.52-.23l.22-1.5c.86-.3 1.8-.3 2.67 0l.45 3.06a4 4 0 0 0-.82-.14c-.68 0-1.1.36-1.1.95 0 .6.46.94 1.16.94q.5 0 1-.12l.05.3c-.6-.06-1.4 0-1.73-.03q-.36-.06-.7-.18l.15-.13c-.15-.18-.26-.24-.38-.73m-3.17-1.47q.28.01.49.2a.3.3 0 0 0 .06-.17c.02-.18-.26-.32-.26-.32a.44.44 0 0 1 .59.07c.08-.22-.25-.47-.33-.47a.5.5 0 0 1 .58-.02l.17.2a.5.5 0 0 1 .06-.34q.08-.16.26-.22a.6.6 0 0 0 .08.43l.18.2s.06-.31.25-.32q.15-.02.27.05a.6.6 0 0 0-.04.62q.08-.16.23-.22.15-.08.31-.02-.15.21-.19.49.23-.07.44.05-.03.21-.12.39c-.19.2-.41.1-.45.25q0 .15-.07.3c-.06.12-.38.04-.38.04l.03.12q.15.05.2.13v.08c0 .15-.2.28-.3.28-.21 0-.4-.09-.4-.23 0-.13.29-.05.25-.2 0-.08-.09-.08-.09-.08-.07.17-.55.13-.54.02a4 4 0 0 1 .1-.8l-.15.07c-.07.04-.49-.08-.54.03 0 0 .3.05.34.24 0 .04.1.03.11.04.02.01.09.1.02.42-.06.26.24.11.24.26s-.3.23-.4.23c-.24 0-.48-.38-.09-.5a.1.1 0 0 0 .02-.11s-.31.08-.38-.04l-.08-.27c-.03-.07-.24-.09-.33-.18a.6.6 0 0 1-.15-.7m1.54 2.38c.18 0 .4-.32.38-.5l.15.03c-.28.78-.77.79-1.05 0q.08 0 .15-.04c-.03.2.2.51.37.51m0-.53c.4 0 .15.35 0 .35s-.39-.34 0-.34zm-1.6-.94a.3.3 0 0 1 .33.06c.07.07.05.27.22.36a.7.7 0 0 0 .24.53c.24.25.41.82.81.82s.58-.5.78-.8c.31-.13.26-.54.26-.54a.5.5 0 0 0 .18-.36l.2-.08q.05-.01.09.04.1.12.24.2-.12.14-.38.07c.03.24.17.75.34.93a.4.4 0 0 1-.34-.02c.3.2.24.97-.04 1.32 0-.25-.05-.65-.33-.78.36.52-.04 1.35-.58 1.46a1 1 0 0 0-.06-1.12c.51.94-.69 1.05-.38 1.78l-.27-.13c-.24-.75.15-1.53.15-1.53s-.58.65-.33 1.4c-.4-.37-.33-.98-.07-1.32-.3.1-.4.48-.39.84-.64-.8-.12-1.34.1-1.55-.23.02-.48.35-.6.61-.28-.5-.17-.93.14-1.17a.5.5 0 0 1-.44 0c.36-.45.36-.66.38-.78a.3.3 0 0 1-.2-.05.3.3 0 0 1-.11-.16zm-.34.24c0 .1-.06.23-.16.23q-.05.01-.05-.04c-.03-.1-.26-.2-.34-.21a.5.5 0 0 1 .54.03m-.32.36a.2.2 0 0 1-.2.06.36.36 0 0 0-.44-.14c.26-.36.79-.07.64.09zm-.79.35c.07-.28.35-.29.54-.18a.13.13 0 0 1 0 .18.2.2 0 0 1-.21 0 .2.2 0 0 0-.17-.07.2.2 0 0 0-.16.08m.9 1.46a.2.2 0 0 0 .2 0c-.24-.16-.35-.7-.4-.93-.06-.22-.2-.14-.32-.37.23.03.34-.14.3-.3q.1-.01.16-.07a.3.3 0 0 0 .1-.13.3.3 0 0 0 .2-.1.3.3 0 0 0 .1-.19c.04.1.1.26.09.3l-.3.44q.04.08.11.12.07.05.17.06a1.2 1.2 0 0 0 .27 1.28 1.2 1.2 0 0 0 .52.86c.04.03.07.03.04.1-.15.27-.36-.15-.65-.3a1 1 0 0 1-.34-.3.3.3 0 0 0 .24-.04c-.16 0-.4-.23-.5-.43zm.54 2.89v.18a.5.5 0 0 0 0 .38.4.4 0 0 1-.22-.2.4.4 0 0 1-.03-.3c.09-.26.27-.1.25-.06m.4.27a.6.6 0 0 0 0 .36c-.29-.07-.4-.74-.12-.76a.2.2 0 0 1 .15.1 1 1 0 0 0-.03.3m.27.26c-.2-.13-.2-.6 0-.6l.1.01.07.07a.2.2 0 0 1 0 .19c-.17.18-.17.31-.17.33m2.24-.47a1 1 0 0 1-.1-.36c.01-.11.23-.31.28-.12a.4.4 0 0 0-.17.2.4.4 0 0 0 0 .28m.3.07-.03.13-.07-.07c-.25-.4.06-.53.13-.53q.03 0 .05.03l.02.05a.4.4 0 0 0-.1.4m-.06-.7c.04-.18.27-.04.44.2.05.13.02 0-.17.05a.2.2 0 0 0-.08-.11.2.2 0 0 0-.14-.04zm.52.63c0-.01-.2.21-.17.34-.04-.02-.29-.3-.13-.53a.2.2 0 0 1 .11-.07.2.2 0 0 1 .13.04l.06.1zm2.02-.67q-.42.24-.82.53c-.12.1-.24.37-.49.36a2 2 0 0 0-.68 0l.08-.16a.3.3 0 0 0-.09-.38c.42.03.64-.16 1.04-.46q.22-.18.23-.27c.03-.17-.18-.2-.33-.89q.45-.1.91-.03.13.1.24.22l.03.15c.05.24.27.37.29.5.03.36-.16.28-.23.3zm.34.18q.06-.06.14.02c.1.11.04.03-.06.12a.5.5 0 0 0-.15.29c-.02-.02-.13-.17.07-.43m.06.85s-.12-.4.1-.61c.1-.08.19.02.22.14a.5.5 0 0 0-.19.26c-.05.06-.04.05-.12.2m.34.13-.02.07s-.2-.32.02-.53a.2.2 0 0 1 .16-.06q.04 0 .07.04.04.03.05.08c.02.23-.22.26-.28.4m1.9-1.16c-.06-.12-.19-.28-.3-.26.28.35.15.89-.08 1.04q0-.22-.07-.42c.05.27-.14.74-.53.74-.83 0-.7 0-.66-.03a.4.4 0 0 0 .13-.32.3.3 0 0 0-.08-.16.3.3 0 0 0-.17-.08c-.06 0-.02.02-.06-.06a.4.4 0 0 0-.13-.16.4.4 0 0 0-.1-.17c-.02-.15.25-.1.56.23.07.07.32.03.44.03s.12-.13.16-.38c.04-.18.01-.29-.08-.63-.1-.35-.92-.05-1.25-.4a4 4 0 0 0-.5-.45c-.6-.1-.86 0-1.37.1l-1.47.37a.6.6 0 0 1-.18.43.3.3 0 0 0-.12-.27c.04.49-.18.9-.42 1.04a.3.3 0 0 0 .05-.3c0 .08-.78.81-.92.88a.3.3 0 0 1-.1.19.2.2 0 0 1-.2.03l.07-.1a.3.3 0 0 0-.05-.39.3.3 0 0 0-.39-.02.3.3 0 0 0-.22-.12.3.3 0 0 0-.21.12.2.2 0 0 0-.22-.08l-.1.04-.08.1c0-.23.07-.36.38-.33a.7.7 0 0 1 .68-.07c.22-.14.48-.7.6-.83q.24.1.5.1c-.12-.36-.13-.51 0-.67.36.06.73-.21.88-.43q.36-.2.53-.6t.09-.8c.16-.01.4.15.84.2.44.04 1.65-.1 2.15.14.5.23 1.48.23 1.48-.55a.6.6 0 0 0-.18-.39.5.5 0 0 0-.4-.13c-.11 0-.78.06-.75.43a.3.3 0 0 1-.16-.11.3.3 0 0 1-.06-.2q-.7.21-1.42.22c-.52 0-.95-.24-.95-.72s.35-.74.9-.74c.43 0 .74.18 1.05.18.57 0 .31-.61.17-.67.47-.25.75.37.63.55.72-.53 1.53.27 1.48.67q-.27-.23-.62-.24c-.33 0-.49.4-1.26 0 .04.2.32.3.32.3-.8.19-.76-.35-1.7-.33-.34 0-.43.1-.43.29 0 .3.56.4 1.18.14.34.16.95.22 1.34-.05a.5.5 0 0 0 .41-.15c1.4.13 1.1 2-.2 2q-.38 0-.73-.1c.42.16.47.9 1.13.9s.72.41.75.68a.6.6 0 0 0-.41-.18q.23.15.35.41t.09.54zm-2.96-4.2q-.23.1-.49.08c-.13 0-.25-.04-.25-.1 0-.09.5-.06.74.03m4.99 5.76c-.46-.08-1 .26-1 .26.22-1.03.84-1.13.95-1.18q-.05-.16-.05-.33l.07-.26a1.2 1.2 0 0 0-1.06-.24s.5-.73 1-.73q.43-.02.76.26c.03.02.07-.02.1-.02l.08-.3q-.32-.37-.8-.45s.44-.5.88-.5h.1l.02-.1q-.4-.08-.66-.42l-.13-.09a.8.8 0 0 1-.37-.64q0-.16.05-.33.08-.18.22-.33a.7.7 0 0 0 .2-.38l.1-.36c.1-.27.38-.59.67-.89l.06-.06.09-.09v-6h-.15a4 4 0 0 1-.68-.1l.28-.39q.12-.15.24-.25a.6.6 0 0 1 .14-.48.6.6 0 0 0 0-.46h-.03l-.22.1a1 1 0 0 1-.4.14l-.12-.01a.7.7 0 0 1-.35-.25l-.02-.01-.1.12c-.2.3-.1.84-.1.84-.12-.07-.63-.54-.6-1.09l-.08.15s-.32-.52-.27-.87H26.25c.05.35-.27.87-.27.87l-.09-.15c.04.56-.47 1.02-.6 1.1 0 0 .11-.54-.1-.84l-.1-.13-.01.02q-.14.18-.35.25l-.12.01a1 1 0 0 1-.4-.14l-.22-.1h-.03a.6.6 0 0 0 0 .46.6.6 0 0 1 .14.47q.13.11.25.26l.28.39q-.34.08-.68.1h-.15v6l.1.09.05.06c.3.3.58.63.66.9l.11.35q.04.23.2.39.13.15.21.33a.8.8 0 0 1-.03.65 1 1 0 0 1-.29.32l-.13.09q-.25.32-.66.4l.01.1h.1c.45 0 .88.5.88.5q-.47.07-.8.45l.08.3c.04 0 .07.04.1.02q.35-.27.77-.26c.5 0 1 .73 1 .73a1.2 1.2 0 0 0-1.06.24q.05.13.06.26 0 .18-.04.33c.1.05.73.15.95 1.18 0 0-.55-.34-1-.26a9.2 9.2 0 0 0 6.54 5.3 9.2 9.2 0 0 0 6.55-5.3"/></svg>