<svg xmlns="http://www.w3.org/2000/svg" width="200" height="60" viewBox="0 0 200 60"><path fill="#001EFF" d="M167.67 30.84v4.99q-.03 1.39.25 2.76v.14q-3.03.94-6.2 1.01c-7.21 0-11.89-4.27-11.89-10.84 0-6.7 4.43-10.95 11.26-10.95 2.07 0 4.17.39 5.5 1v4.35h-.14a8 8 0 0 0-5.42-2c-4.31 0-6.83 2.7-6.83 7.46 0 4.91 2.73 7.66 7.5 7.66q.95 0 1.88-.2v-5.2a18 18 0 0 0-3.9.34h-.13v-4.01h.13q2.05.39 4.12.34h4.2v.14c-.21.56-.33 1.72-.33 3.01m-28.1 5.46h-2.36v-6.1h2.35c2.22 0 3.4.14 4.51.39h.14v-4.11h-.14c-1.1.25-2.29.4-4.5.4h-2.35v-5.5h2.4q3.84-.02 5.64.9h.12v-4h-13.23v.14c.5.88.83 2.65.83 4.48v11.88c0 1.83-.33 3.6-.83 4.5v.13h13.94v-4.27h-.14q-2.39 1.18-6.39 1.16m-17.47-9.17c-2.68-1.07-4.18-1.61-4.18-3.41 0-1.64 1.17-2.5 3.21-2.5 1.72 0 3.18.61 4.73 1.92h.14v-4.3c-1.5-.61-3.11-.92-4.73-.9-4.7 0-7.58 2.45-7.58 6.45 0 3.83 2.69 5.04 5.62 6.2 2.68 1.06 4.17 1.6 4.17 3.4 0 1.64-1.19 2.48-3.34 2.48-2.22 0-3.9-.76-5.9-2.59h-.13v4.62a14 14 0 0 0 5.86 1.24c4.78 0 7.74-2.45 7.74-6.41 0-3.84-2.68-5.05-5.61-6.2m-18.87 9.19h-1.89V22.9c0-1.83.33-3.6.83-4.48v-.14h-5.88v.14c.5.88.83 2.65.83 4.48v11.88c0 1.83-.33 3.6-.83 4.5v.13h13.46V35.1h-.13q-2.4 1.22-6.39 1.21zm-65.1 6.88v.03h.66c.62.02 1.04-.34 1.04-.95a1 1 0 0 0-.25-.66 1 1 0 0 0-.63-.25q-.42-.02-.82 0v.03q.1.16.08.36v1.07a1 1 0 0 1-.08.37m.44-1.54.36.01a.6.6 0 0 1 .4.2.6.6 0 0 1 .13.42.6.6 0 0 1-.17.47.6.6 0 0 1-.46.17h-.25zm2.41 0v-.03l-.52-.1v.03q.1.18.08.39V43q.01.2-.08.36v.05l.52.1v-.04a1 1 0 0 1-.08-.38v-1.08q0-.2.08-.36m1.66.63q.26.08.43.3h.03v-.38a1 1 0 0 0-.39-.2c-.61-.19-1.1.18-1.1.81q0 .38.21.69a1 1 0 0 0 .6.38q.34.11.68-.03v-.35h-.02a.7.7 0 0 1-.6.09.7.7 0 0 1-.37-.27.7.7 0 0 1-.12-.45c0-.47.26-.7.65-.59m1.93.56q.24.05.42.21H45v-.39l-1.53-.42v.38l.02.02a1 1 0 0 1 .42.02l.14.04v1.18q.01.19-.08.34v.03l.52.14v-.03a1 1 0 0 1-.08-.39V42.8zm1.47.1v-.03l-.52-.12v.03a1 1 0 0 1 .08.38v.87q-.01.3.16.53t.47.28c.53.13.9-.15.9-.64v-.7q-.01-.19.08-.35v-.03l-.5-.1v.03q.1.18.08.38v.75q0 .45-.48.34a.4.4 0 0 1-.27-.16.4.4 0 0 1-.09-.3v-.81a.6.6 0 0 1 .09-.34m1.84 2.18v.03l.5.05v-.03a1 1 0 0 1-.09-.37v-.9l.52.75.49-.68v.88a1 1 0 0 1-.09.37v.03h.53v-.03a1 1 0 0 1-.09-.36v-1.08q0-.2.09-.37v-.03h-.42l-.49.7-.48-.75-.47-.06v.03q.09.18.09.38v1.07q0 .2-.1.37m19.38-.54c.46-.02.71-.27.71-.66q-.01-.58-.7-.55h-.77v.02q.1.18.09.38v1.08q0 .19-.09.36v.03l.53.01v-.03a1 1 0 0 1-.09-.37v-.26zm-.32-.9h.3q.36 0 .37.3 0 .3-.33.3h-.34zm2.5 1.3.6-.13v-.03q-.18-.15-.26-.34l-.69-1.33-.1.02-.62 1.55q-.09.23-.24.44v.03l.53-.07v-.03a.4.4 0 0 1 .01-.38l.75-.12a.4.4 0 0 1 .02.37zm-.65-.59.23-.59.26.5zM71.1 43a.7.7 0 0 1 .6.1h.02v-.37a1 1 0 0 0-.68-.03q-.37.1-.6.4-.21.3-.2.7c0 .61.47.97 1.1.78a1 1 0 0 0 .38-.2v-.4h-.03a1 1 0 0 1-.43.32c-.38.1-.65-.14-.65-.6a.7.7 0 0 1 .12-.44q.15-.19.37-.26m2.1-.54a1 1 0 0 1 .42-.02l.02-.02v-.38l-1.53.42v.4h.02q.19-.17.42-.22l.14-.04v1.17q0 .2-.08.4v.02l.52-.14v-.03a.6.6 0 0 1-.08-.35V42.5zm1.9 1.15a.8.8 0 0 0 .48-.28.8.8 0 0 0 .18-.54v-.83a1 1 0 0 1 .08-.38v-.03q-.25.03-.5.09v.03q.1.16.08.35v.82a.4.4 0 0 1-.2.4l-.14.04q-.49.1-.5-.35v-.73q0-.2.08-.39v-.03l-.52.13v.03q.1.16.09.34v.74c0 .48.34.7.87.6m1.4-.32v.03l.5-.05v-.03a1 1 0 0 1-.1-.36v-.9l.5.68h.03l.49-.71v.88a1 1 0 0 1-.09.37v.03h.53v-.03a1 1 0 0 1-.09-.37v-1.07a1 1 0 0 1 .09-.37v-.03h-.42l-.49.72-.49-.68-.46.05v.03q.1.16.08.36v1.07q0 .2-.09.38m-21.58 2.16-.48-.8-.5-.11v.03q.1.18.08.38v1.08q.01.18-.08.35v.03l.5.1v-.02a1 1 0 0 1-.08-.38v-.9l.49.8h.02l.5-.61v.89q0 .18-.09.35v.03l.52.08v-.03a1 1 0 0 1-.08-.38v-1.08q0-.19.08-.36v-.02l-.39-.06zm2.28 1.13-.27-.01v-.51l.24.01q.19 0 .38.06h.02v-.38h-.02q-.2.05-.38.02l-.24-.01v-.46l.27.02q.22 0 .45.1h.03v-.37q-.6-.02-1.2-.08V45q.1.18.09.38v1.07q0 .19-.08.36v.03q.63.06 1.26.07v-.4h-.03a1 1 0 0 1-.52.07m1.19-.32c0 .43.29.7.77.68a.8.8 0 0 0 .55-.23.8.8 0 0 0 .22-.56v-.8q0-.19.09-.37v-.03l-.5.04v.03q.08.17.08.36v.82q0 .38-.42.4t-.42-.38v-.79a1 1 0 0 1 .08-.37v-.03h-.53v.03q.1.18.09.37zm2.8.39a.6.6 0 0 1-.08-.36v-.89l.49.62h.02l.5-.8v.9q0 .2-.1.38v.03l.53-.12v-.03a.6.6 0 0 1-.08-.35v-1.08q0-.2.08-.38v-.03l-.45.1-.48.8-.5-.62-.43.06v.03q.1.17.08.36v1.08q0 .2-.08.38v.03l.5-.08zm17.27-6.01q.56.02 1.11.14v3.37c-4.72-.9-9.44 2.6-14.16 1.7v-3.37c2.9.55 5.79-.56 8.7-1.29q-.03-.17 0-.34c-2.69.67-5.37 1.67-8.05 1.38v-.32c0-.36-.44-.64-1.55-.33-.82.24-1.58.69-1.58 1.34v.43c-3.08.8-6.3.8-9.38 0v-.43c0-.65-.76-1.1-1.58-1.34-1.11-.31-1.54-.03-1.54.33v.32c-2.69.29-5.39-.71-8.07-1.38v.35c2.9.73 5.8 1.84 8.7 1.28v3.37c-4.71.9-9.44-2.6-14.15-1.7v-3.38q.56-.12 1.12-.14-.12-.15-.2-.34-.64.05-1.27.2v4.06c4.95-1.16 9.9 2.74 14.84 1.57v-.5q.5.03.94.29v1.14a18.7 18.7 0 0 0 11.78 0v-1.14q.42-.27.94-.3v.5c4.95 1.17 9.89-2.73 14.83-1.56v-4.06a7 7 0 0 0-1.23-.2q-.08.18-.2.35M63.8 46.83a18.7 18.7 0 0 1-11.12 0v-3.38a18.7 18.7 0 0 0 11.12 0zM77.62 14.3q-.29-.33-.61-.6l-.44.46-.44-.34.32-.54q-.52-.36-1.08-.65l-.32.55-.5-.23.2-.61a6 6 0 0 0-1.1-.35l-.2 1.85c.79.06 2.14.78 2.33.88a3.5 3.5 0 0 0 1.84-.42M67.48 30.62a.5.5 0 0 0-.51-.11c-.52.36.36 1.12 1.03.85a1.5 1.5 0 0 1-.52-.74m-1.02 3.45c.12.13.36-.18.42-.37.04-.16-.13-.24-.13-.24q-.26-.19-.6-.2a1 1 0 0 0-.76.37 1.3 1.3 0 0 1 1.07.44m.07 1.67q.07.02.07-.03c.02-.19-.03-.57-.2-.58-.44-.02-.82.34-.99.72q.55-.22 1.12-.11m1.55-3.06c.09-.11-.04-.25-.04-.25a1 1 0 0 0-.72-.37 1 1 0 0 0-.6.22 1.3 1.3 0 0 1 .83.64q.04.04.1.01a.7.7 0 0 0 .43-.25m6.26 8.4c.23-.3.71-.83.98-.9.27-.09.34-1.08-.04-.95-1 .31-.94 1.85-.94 1.85m.99-.08q.3-.2.67-.25c.68-.18.6-.99-.09-.77-.36.11-.55.63-.58 1.02m-.58-1.68c.19-.09.15-.9-.14-.76-.78.37-.62 1.66-.62 1.66q.27-.54.76-.9M70.06 29c.48.41.27.9.4.53.01-.04.23-.94-.08-1.18-.4-.31-.64.3-.32.65m-2.25 1.54a.96.96 0 0 0 1.23.18q-.49-.15-.78-.56c-.12-.2-.3-.21-.4-.15-.18.11-.1.47-.05.53m3.73-14.27c-1.13.26-1.24-.5-1.24-.5s-.42.95.46 1.15c.58.13 1.15-.48 2.2-.06 0 0-.28-.85-1.42-.59m-3.91 14.29v-.03c-.23-.68.46-.98.78-.43q.16-.18.18-.43a1 1 0 0 0-.15-.28c0-.4-.18-.43-.03-.62l.28-.1c.09-.03.47-.1.7.09.19.16.3.22.42.13-.18-.42.1-.9.5-.77 0-.1-.03-.26-.37-.32l-.68-.07 1.56-1.37s-.19.94.37 1.5c0 0 .62-.77.77-1.18.16-.42.1-.49.1-.49.11.1 1.3.45 1.63-.9.2.36-.1 1.46-1.4 1.36q-.12.34-.3.64c.86.6 1.96 1.64 2.05 1.93 0 0-.09.98-1.78 1.28a3 3 0 0 0-1.52.72c-.63.7-.7 2.27-1.29 2.52.02 0 .4.1.92-.31l.26.96a4 4 0 0 0-2.07.5q-.15-.39-.01-.8c.16-.38.31-1.43-.28-1.42-.05.21-.5.53-.74.45-.03.04-.14.23.13.62 0 0-.33-.25-.63-.13.04.26-.3.74-.58.66h-.03s-.24.3.1.74q.12.07.17.21a1 1 0 0 1 .05.58c0 .07.18.25.54.14a.4.4 0 0 1-.36.3s.35 1.05 1.48.4a1 1 0 0 1-.43.56 1.3 1.3 0 0 0 1.7-.12q-.1.34-.38.6s1.49.07 1.8-.82q.08.22 0 .46.33-.19.47-.56c.15-.43.38-.61.69-.64s.52-.54.47-.82c-.07-.35-.2-2.08-.2-2.47 0-.38 1.17-.3 2.24-.6q.3-.53.42-1.14c.09-.55-.33-1.16-.33-1.16.95.75.62 1.55.24 2.48-.14.35-.33.86-.2 1.12.44.79.58 1.71.38 2.6a.9.9 0 0 0 .83-.27q.35.76.83 1.44c.08.77-.4 1.66-.64 1.54-.32-.16-.94-.68-1.37-.31q.16.3.09.64.16-.09.33-.12c.37 0 .41.51.32.88q.21-.15.48-.15c.5 0 .73.6.2.99q.21.18.47.26c.4.06.9-.77.97-1.07q.04.45.02.89s1.04-.35.75-2.04c0 0 .42.07.4.98q.38-.46.38-1.08c.02-.58-.13-.7-.04-1.02q.28.49.27 1.05a1.2 1.2 0 0 0 .23-.92 1.4 1.4 0 0 0-.5-.86 1.4 1.4 0 0 1-.2-1.42.8.8 0 0 1-.55-.1c-.23-.12-.68-.83-.64-1.17.03-.33.3-.88.25-1.28.59 1.32 1.32 2.14 2.45 2.14 1.17 0 1.83-1.25 1.83-2.3 0-1.53-1-2.94-1-3.95 0-.47.34-1.18.75-1.18s-.14.95-.08 1.5q.05.46.34.83.05-.31.28-.54c-.03.87.53 1.37.45 2.33.5-.48.84-.86.68-1.77q.23.1.48.05c-.24-.3-.2-1.32-.4-1.75a.7.7 0 0 0 .57-.4c-.86-.18-.75-1.05-1.93-1.05-1.3 0-1.98.85-1.98 2.12 0 1.26.96 2.28.96 3.63 0 1.07-.42 1.5-.9 1.5-.66 0-1.27-.66-1.78-2.45-.22-.86-.5-2-1-2.77q-.64-.05-1.13-.49-.12.46-.49.76s-1.35-.4-1.06-1.8c0 0 .07 1.11 1.04 1.43q.27-.43.38-.94c.33.45.81.75 1.35.85q.3-.46.27-1c.4.24.9.33 1.36.24 0 0 .29-.5.05-1.5.66.2 1.47-.07 1.77-.43a5 5 0 0 0-1.09-1.06s2.18.7 2.89-.96a5 5 0 0 1-1.96-.64s2.09-.18 2.95-2.56q-1.07.25-2.18.1s2.33-.48 2.25-2.61c0 0-.35.45-1.56.59 0 0 1.98-2.21 1.02-3.99 0 0-.08 1.04-1.27 2 0 0 1.26-2.87-.25-4.77.04 1.14-.63 2.32-1.16 3.13 0 0 .18-2-.8-2.53 0 0 .13 2.42-1.84 5.6-.87 1.41-1.37 2.14-.7 3.46.35.68-.46 2.08-1.77 2.1-2.22.02.33-4.07.33-4.07q.14.36.42.61.35-.7.23-1.5a3 3 0 0 0-.19-.78q.26.05.49-.1s-.13-.92-.4-1.38a1 1 0 0 0-.37-.43c.2.07 1.23.32 1.7-.25q.14-.2.14-.46s-.2.17-.74.16c0 0 1.46-.33 1.11-2.04q-.4.6-1.05.87c-.78.36-1 .4-1.9.42a7 7 0 0 0-2.4-.9c-.06 0-.56 0-.7.43 0 0-.9-.25-1.31.44a1.2 1.2 0 0 0-.07 1.05c.05-.36.76-.66 1.1-.21.55.8.85.5 1.33.89q.26.2.42.49c-.5-.18-1.44.3-1.83.16a1 1 0 0 1-.44-.26 1 1 0 0 0 .5 1.01q.46.15.92 0l.32-.1c.61.27 1.26.37 1.62-.17a.8.8 0 0 0 .09-.76s.29.3.1.9c-.1.37-.6.68-1.28.52a4 4 0 0 1-.55-.19c-.54.77-1.55.64-2.48.8a4 4 0 0 0-.9-.61c-1.35-.58-1.6-1.68-2.86-1.98-.47-.1-.48-.12-.63-.23-.28-.21-.58-.4-.9-.2a.4.4 0 0 0-.16.14.5.5 0 0 1 .4.24.6.6 0 0 1 .07.48l-.02.12q.17 0 .33.09.15.1.2.27a.55.55 0 0 1-.2.62q.12.14.29.2c.3.08.55-.36.94-.27a.3.3 0 0 1 .16.12c.02.05.2.53-.03.86a.4.4 0 0 0-.1.33c.52-.13.78.1.8.46.11-.03.17-.21.17-.31l.03-.66c.11.14.55.7.94 1.16q-.16.24-.28.51.27-.12.54-.19l.1.12c-1.99 1.28-1.63 3.14-1.63 3.14a1.1 1.1 0 0 1 .82-.82 2.6 2.6 0 0 0-.27 2.39s.45-.63 1.47-.55a8 8 0 0 0-1.22 1.68c-.42.85-1.15 1.4-1.28 1.54s-.7.69-.82 1.04c-.23.72-.17.7-.42.98a.75.75 0 0 0-.18.87q.08.16.25.28a.5.5 0 0 1 .19-.44.5.5 0 0 1 .46-.06.6.6 0 0 1 .32.18m6.79-15.24c-.63.87-1.23-.09-1.23-.09.27.05.28-.04.5-.1a.2.2 0 0 0 .08.3.2.2 0 0 0 .29-.1.2.2 0 0 0-.04-.23 1 1 0 0 1 .4.22m-9.3 2.25q.25-.4.68-.58.1-.07.12-.23a.33.33 0 0 0-.15-.39l-.14-.04c-.35 0-.78.67-.51 1.24m2.8 1.77c-.31.02-.5.28-.73.54 1.28.18 1.15-.57.73-.54m-1.68-1.58q.09-.03.13-.11a.3.3 0 0 0 .04-.17c0-.32-.37-.29-.37-.29-.45 0-.82.88-.38 1.52 0-.44.17-.8.58-.95m-25.52-3.02c.2-.1 1.55-.82 2.33-.88L42.84 12q-.57.13-1.1.34l.2.61-.5.23-.32-.54c-.3.17-.78.45-1.08.66l.32.54q-.23.16-.44.34l-.44-.47a6 6 0 0 0-.61.59c.77.38 1.06.41 1.85.43m7.77 16.63c.66.27 1.54-.5 1.02-.86a.44.44 0 0 0-.5.12q-.15.45-.52.73m2.6 2.27a1 1 0 0 0-.76-.37q-.32.01-.6.2s-.16.08-.12.24c.06.19.3.5.42.37a1.3 1.3 0 0 1 1.07-.44m0 2.22c-.16-.38-.54-.74-.98-.72-.18.01-.23.4-.2.58q0 .05.07.03.57-.1 1.12.1m-2.25-2.9q.07.01.1-.02a1.4 1.4 0 0 1 .82-.64 1 1 0 0 0-.6-.22 1 1 0 0 0-.7.37s-.13.14-.05.25q.17.2.43.26m-7.63 6.28c-.38-.12-.29.87-.04.94.25.08.75.6.98.91 0 0 .06-1.54-.94-1.85m-.63.75c-.7-.21-.77.59-.08.77q.35.06.67.25c-.04-.39-.23-.9-.59-1.02m1.91.23s.16-1.28-.61-1.65c-.3-.14-.34.67-.14.76q.47.35.75.9m3.61-11.88c-.31.24-.1 1.15-.08 1.18.13.37-.08-.11.4-.52.33-.35.1-.96-.3-.65zm2.5 1.68c-.1-.07-.28-.05-.4.15q-.3.41-.78.56a.95.95 0 0 0 1.23-.18c.07-.06.13-.42-.04-.53m-5.08-13.15c1.05-.42 1.62.19 2.2.05.87-.19.46-1.15.46-1.15s-.1.77-1.24.51-1.42.6-1.42.6m5.65 13.48a.5.5 0 0 1 .46.06.5.5 0 0 1 .19.44 1 1 0 0 0 .25-.27.8.8 0 0 0-.18-.87c-.25-.28-.19-.26-.42-.98-.12-.36-.68-.9-.82-1.05-.13-.14-.87-.68-1.28-1.53a8 8 0 0 0-1.22-1.68c1.02-.08 1.47.54 1.47.54a2.6 2.6 0 0 0-.26-2.38 1.1 1.1 0 0 1 .78.82s.36-1.86-1.63-3.15l.1-.11q.28.06.54.19a3 3 0 0 0-.27-.51c.4-.47.84-1.01.95-1.16l.02.65c0 .11.06.28.17.32.03-.36.29-.6.81-.46.02-.05.02-.16-.11-.34-.25-.32-.04-.8-.03-.85a.3.3 0 0 1 .17-.12c.39-.1.63.35.94.26q.16-.05.28-.2a.54.54 0 0 1-.2-.62q.06-.16.2-.27.16-.1.34-.08l-.03-.13a.6.6 0 0 1 .25-.64l.23-.08a.4.4 0 0 0-.16-.14c-.32-.21-.63 0-.9.2-.16.12-.17.13-.63.24-1.26.3-1.51 1.4-2.85 1.97q-.51.23-.92.62c-.93-.16-1.94-.03-2.48-.8q-.27.1-.55.18c-.68.16-1.18-.15-1.29-.51-.18-.6.12-.9.12-.9a.8.8 0 0 0 .08.76c.35.53 1 .43 1.62.16.05.03.2.06.33.1q.46.16.91 0a1 1 0 0 0 .5-1 1 1 0 0 1-.42.26c-.4.14-1.34-.34-1.83-.17q.16-.3.42-.49c.47-.38.77-.08 1.32-.89.35-.44 1.05-.14 1.1.21a1.3 1.3 0 0 0-.07-1.05c-.41-.69-1.31-.44-1.31-.44-.13-.42-.63-.42-.7-.42-.77.02-2 .68-2.4.89a3.6 3.6 0 0 1-1.9-.41 2.4 2.4 0 0 1-1.05-.87c-.34 1.7 1.12 2.04 1.12 2.04-.55 0-.74-.16-.74-.16q0 .25.14.45c.46.57 1.47.32 1.7.26-.06.02-.19.12-.37.42-.28.46-.4 1.4-.4 1.4q.22.14.48.09-.17.38-.2.8c-.08.5 0 1.03.23 1.49q.28-.25.42-.61s2.55 4.09.33 4.06c-1.3-.01-2.12-1.41-1.77-2.09.67-1.31.17-2.05-.7-3.46-1.97-3.18-1.85-5.6-1.85-5.6-.97.52-.8 2.52-.8 2.52-.53-.8-1.18-1.96-1.14-3.11-1.52 1.9-.25 4.79-.25 4.79-1.2-.98-1.27-2.02-1.27-2.02-.97 1.78 1.01 3.99 1.01 3.99-1.2-.14-1.56-.6-1.56-.6-.08 2.14 2.25 2.61 2.25 2.61a6 6 0 0 1-2.18-.1 3.7 3.7 0 0 0 2.95 2.57q-.91.52-1.96.64c.72 1.67 2.9.97 2.9.97q-.62.45-1.09 1.07c.3.36 1.11.63 1.77.43-.24.99.04 1.5.04 1.5.47.08.96 0 1.37-.25q-.02.55.27 1a2.2 2.2 0 0 0 1.36-.8q.1.5.38.94c.97-.32 1.04-1.43 1.04-1.43.29 1.41-1.07 1.8-1.07 1.8q-.36-.29-.49-.76c-.3.3-.7.46-1.12.5-.5.77-.78 1.9-1 2.76-.5 1.8-1.13 2.45-1.77 2.45-.49 0-.9-.45-.9-1.5 0-1.35.94-2.38.94-3.63s-.67-2.12-1.98-2.12c-1.17 0-1.06.88-1.92 1.06a.7.7 0 0 0 .56.37c-.18.43-.15 1.46-.4 1.76q.26.03.5-.06c-.16.91.16 1.3.67 1.77-.07-.96.47-1.46.45-2.33q.23.22.28.54.28-.37.34-.83c.06-.54-.5-1.5-.09-1.5s.76.71.76 1.18c0 1.01-1 2.42-1 3.95 0 1.05.66 2.3 1.83 2.3 1.12 0 1.86-.82 2.45-2.14-.06.4.22.97.25 1.29s-.42 1.05-.64 1.17a.8.8 0 0 1-.55.09 1.4 1.4 0 0 1-.2 1.43q-.4.33-.5.85a1.3 1.3 0 0 0 .23.92q-.02-.56.27-1.04c.09.31-.06.42-.04 1.01q0 .61.37 1.09c-.01-.91.41-.98.41-.98-.28 1.67.75 2.01.75 2.01q-.01-.45.02-.88c.07.3.58 1.12.96 1.06q.27-.06.47-.26c-.52-.38-.3-.99.2-.99q.27 0 .49.15c-.1-.36-.05-.87.31-.87a1 1 0 0 1 .34.12 1 1 0 0 1 .09-.65c-.42-.37-1.05.16-1.38.32-.24.12-.71-.77-.64-1.54q.48-.7.84-1.46a.9.9 0 0 0 .82.27c-.2-.89-.06-1.81.38-2.6.13-.26-.05-.77-.2-1.12-.38-.93-.71-1.73.23-2.47 0 0-.42.6-.33 1.16q.12.6.42 1.13c1.09.3 2.24.22 2.24.6 0 .39-.13 2.12-.2 2.47-.05.29.14.78.48.82s.54.23.7.64q.12.37.46.56a.6.6 0 0 1 0-.46c.31.9 1.8.82 1.8.82a1.5 1.5 0 0 1-.39-.6 1.3 1.3 0 0 0 1.7.12 1 1 0 0 1-.42-.56c1.13.66 1.48-.4 1.48-.4a.4.4 0 0 1-.36-.3c.35.12.53-.06.54-.13a1 1 0 0 1 .04-.58q.05-.13.18-.21c.33-.43.1-.73.1-.74h-.04c-.27.08-.62-.4-.58-.66-.28-.12-.63.13-.63.13.28-.39.17-.58.14-.62-.23.08-.7-.23-.74-.45-.6 0-.44 1.04-.28 1.43q.13.4-.01.8a4 4 0 0 0-2.08-.5l.27-.97c.52.43.9.31.92.31-.59-.25-.67-1.83-1.3-2.52a3 3 0 0 0-1.51-.72c-1.7-.3-1.78-1.28-1.78-1.28a9 9 0 0 1 2.05-1.93q-.19-.3-.3-.64c-1.3.1-1.6-1-1.4-1.36.32 1.35 1.51 1 1.62.9 0 0-.05.07.1.49.16.41.77 1.17.77 1.17.57-.56.38-1.5.38-1.5l1.55 1.38-.68.07c-.34.06-.37.23-.36.32.39-.12.68.34.5.78q.15.11.42-.14c.22-.2.6-.12.7-.09l.27.1c.16.21-.03.23-.02.62a1 1 0 0 0-.15.28q0 .24.18.43c.32-.54 1-.24.78.43v.03a.6.6 0 0 1 .33-.23M42.47 15.1a.2.2 0 0 0 .03.31.2.2 0 0 0 .3-.06.2.2 0 0 0 0-.23c.21.07.23.16.5.1v.01s-.6.96-1.23.1q.19-.17.4-.23m8.39 1.23a.3.3 0 0 0-.25.14.3.3 0 0 0-.04.28c.02.12.03.17.11.24q.44.17.7.58c.26-.57-.17-1.24-.52-1.24m-1.56 3.55c-.23-.26-.42-.52-.73-.54-.42-.03-.55.72.73.54m1.53-1.17c.44-.64.07-1.52-.38-1.52 0 0-.37-.04-.37.29q-.01.1.04.17t.14.1c.4.15.56.52.57.96m5.94 9.45a.4.4 0 0 1 .18-.35.4.4 0 0 1 .39-.04c-.14.5-.38.21-.57.39m-3.02-.55a.4.4 0 0 1 .38.15.5.5 0 0 1 .1.4c-.14-.18-.45.07-.48-.55m2.07.6c-.06-.13 0-.16 0-.16s.15.1.25.06a1 1 0 0 1 .48 0l-.03.06a.4.4 0 0 0-.3.13c-.07.16-.1.13-.15.13q-.07 0-.06.14c0 .1-.04.21-.11.21q-.01-.29-.08-.57m2.9-2.1h-.94v-.71a.5.5 0 0 1 .12-.37.5.5 0 0 1 .35-.16.5.5 0 0 1 .35.16.5.5 0 0 1 .11.37zm-1.9-4.22.16.68q.3-.06.6-.07v-.7q.67-.03 1.36 0v.68q.3.02.6.07l.15-.68q.6.09 1.2.3l-.46 1.48-.45.5a5 5 0 0 0-3.44 0l-.45-.5-.47-1.48q.59-.2 1.2-.29m.73 7.27c.28-.05.35-.22.49-.45l-.31-.19c-.12-.07-.09-.09-.2-.18q.28-.35.27-.8a.7.7 0 0 0-.45-.2c.04-.1-.03.04.27-.51-.3-.06-.55-.14-.84-.04.02-.05.02-.04.2-.27a1 1 0 0 0-.62-.28l.26-1.8a5 5 0 0 1 3.24 0l.56 3.68q-.5-.14-1-.17c-.83 0-1.34.43-1.34 1.14s.57 1.13 1.4 1.13q.63 0 1.23-.15l.05.37c-.72-.08-1.69 0-2.1-.04a7 7 0 0 1-.86-.22l.2-.16c-.19-.22-.31-.28-.46-.88zm-3.85-1.76q.34 0 .59.24a.4.4 0 0 0 .07-.21c.03-.22-.31-.38-.31-.38a.53.53 0 0 1 .72.07c.1-.25-.3-.55-.4-.55a.6.6 0 0 1 .7-.03q.12.11.2.25a.6.6 0 0 1 .07-.41.6.6 0 0 1 .33-.26.7.7 0 0 0 .1.5l.2.25s.08-.38.32-.4q.17 0 .32.08a.7.7 0 0 0-.05.73.56.56 0 0 1 .66-.29q-.18.27-.23.59a.7.7 0 0 1 .53.07q-.03.25-.14.46c-.23.25-.5.12-.54.3q0 .2-.09.37c-.07.13-.46.04-.46.04a.2.2 0 0 0 .03.14q.18.06.26.17v.08c0 .19-.27.34-.38.34-.26 0-.48-.1-.49-.27 0-.16.35-.07.31-.25-.01-.08-.11-.08-.11-.08-.08.19-.66.15-.66.01q0-.48.12-.96l-.18.09c-.09.05-.59-.1-.66.04 0 0 .37.06.42.29 0 .05.12.03.14.04s.1.13.02.5c-.08.32.3.14.3.31 0 .18-.37.28-.5.28-.3 0-.58-.45-.1-.59a.2.2 0 0 0 .02-.14s-.38.1-.46-.04q-.07-.17-.1-.33c-.04-.08-.29-.1-.4-.22a.7.7 0 0 1-.17-.83m1.87 2.85c.21 0 .5-.39.46-.61q.09.05.19.05c-.35.93-.94.94-1.29 0q.1 0 .19-.05c-.03.23.24.62.45.62m0-.64c.49 0 .18.43 0 .43s-.47-.42 0-.42zm-1.94-1.12a.4.4 0 0 1 .4.07c.08.08.06.32.27.43a.8.8 0 0 0 .28.64c.3.3.5.97 1 .97.48 0 .69-.6.94-.94.37-.17.32-.66.32-.66a.6.6 0 0 0 .2-.43l.25-.1q.07-.02.1.06.15.14.3.23-.14.18-.46.09c.04.29.2.9.42 1.11a.5.5 0 0 1-.42-.02c.36.23.3 1.16-.05 1.59 0-.31-.05-.78-.4-.94.45.62-.05 1.62-.7 1.75a1.2 1.2 0 0 0-.08-1.35c.63 1.13-.83 1.26-.45 2.14q-.18-.06-.33-.16c-.3-.9.18-1.83.18-1.83s-.7.78-.4 1.67c-.48-.44-.4-1.16-.09-1.58-.36.12-.48.58-.47 1.02-.78-.97-.15-1.61.12-1.87-.28.03-.58.43-.73.73-.34-.6-.2-1.1.17-1.4a.6.6 0 0 1-.54 0c.44-.54.44-.8.47-.94a.4.4 0 0 1-.24-.06.4.4 0 0 1-.14-.2q.02.02.08 0zm-.42.28c0 .12-.07.28-.2.28q-.05.01-.05-.04c-.03-.12-.32-.25-.42-.27a.6.6 0 0 1 .66.05zm-.38.43a.3.3 0 0 1-.25.07.44.44 0 0 0-.53-.16c.3-.43.95-.09.77.1zm-.96.43c.08-.34.42-.35.65-.21a.15.15 0 0 1 0 .21.3.3 0 0 1-.25 0 .3.3 0 0 0-.4 0m1.1 1.74a.3.3 0 0 0 .23 0c-.29-.19-.42-.83-.49-1.1-.06-.28-.23-.17-.39-.46.29.04.42-.16.38-.36a.4.4 0 0 0 .3-.24q.15 0 .25-.1t.11-.24c.06.12.14.32.12.35q-.16.29-.37.54a.4.4 0 0 0 .34.2 1.4 1.4 0 0 0 .34 1.55 1.4 1.4 0 0 0 .63 1.03c.04.03.09.04.05.11-.2.34-.45-.17-.8-.36q-.24-.11-.41-.36a.4.4 0 0 0 .3-.03c-.2-.01-.5-.28-.6-.52m.65 3.47v.22a.6.6 0 0 0 0 .46.5.5 0 0 1-.27-.24.5.5 0 0 1-.04-.37c.1-.3.32-.1.3-.07m.47.33a.7.7 0 0 0 0 .44c-.34-.1-.47-.9-.13-.92a.2.2 0 0 1 .18.13 1 1 0 0 0-.04.35m.34.32c-.25-.17-.26-.73 0-.73a.2.2 0 0 1 .2.1.2.2 0 0 1 0 .22c-.2.23-.2.38-.2.4m2.72-.57a1 1 0 0 1-.13-.43c.02-.14.28-.38.35-.15a.5.5 0 0 0-.21.57m.35.09-.02.15-.08-.08c-.3-.48.07-.64.15-.64a.1.1 0 0 1 .09.1.5.5 0 0 0-.13.47m-.06-.85c.05-.2.33-.04.54.24.06.16.02 0-.21.06a.3.3 0 0 0-.1-.14.3.3 0 0 0-.17-.04zm.63.76c0-.02-.24.25-.2.4-.06-.02-.36-.36-.17-.63a.2.2 0 0 1 .15-.08.2.2 0 0 1 .15.04.24.24 0 0 1 .07.27m2.45-.81q-.51.29-.99.64c-.15.1-.29.44-.6.43a2 2 0 0 0-.83.01l.1-.2a.4.4 0 0 0-.1-.46c.5.05.77-.19 1.26-.54q.26-.23.27-.33c.05-.21-.2-.24-.4-1.07q.55-.13 1.11-.03.15.1.3.26l.03.18c.06.29.33.44.35.6.04.43-.2.33-.28.36zm.42.23q.06-.08.16.01c.12.14.06.04-.06.15q-.15.15-.2.34c-.02-.02-.15-.2.1-.5m.07 1s-.15-.48.13-.72c.1-.1.22.03.25.17a.6.6 0 0 0-.22.3c-.06.08-.05.06-.15.26m.4.16-.02.08s-.23-.37.03-.62a.2.2 0 0 1 .2-.08l.09.05.05.1c.02.28-.26.3-.34.47m2.32-1.38c-.07-.15-.23-.34-.37-.32.34.42.18 1.07-.1 1.25q.01-.26-.08-.5c.06.32-.16.88-.64.88-1 0-.85 0-.8-.03a.5.5 0 0 0 .16-.39.3.3 0 0 0-.1-.2.3.3 0 0 0-.2-.08c-.08 0-.04.02-.08-.07a.4.4 0 0 0-.16-.2l-.13-.2c-.02-.18.32-.12.69.27.08.09.4.04.54.04s.14-.16.2-.46c.03-.21 0-.34-.11-.76-.12-.41-1.12-.05-1.52-.46q-.27-.3-.6-.56c-.74-.1-1.04 0-1.67.12-1.02.27-1.78.45-1.78.45a.7.7 0 0 1-.23.51.4.4 0 0 0-.13-.31c.04.58-.23 1.07-.51 1.24a.3.3 0 0 0 .06-.37c0 .1-.96.98-1.13 1.07a.3.3 0 0 1-.12.22.3.3 0 0 1-.25.04l.1-.11a.4.4 0 0 0-.07-.47.4.4 0 0 0-.46-.03.3.3 0 0 0-.27-.14.3.3 0 0 0-.26.14.3.3 0 0 0-.26-.1.3.3 0 0 0-.22.17c0-.27.09-.43.45-.4a.9.9 0 0 1 .83-.08c.27-.17.6-.83.73-.99q.3.12.6.12c-.14-.43-.15-.62 0-.81.44.08.9-.25 1.08-.51q.42-.26.64-.72.2-.46.1-.96c.2-.02.5.17 1.03.23.54.05 2-.11 2.61.17s1.8.29 1.8-.66a.7.7 0 0 0-.23-.46.7.7 0 0 0-.48-.17c-.13 0-.95.08-.91.53a.4.4 0 0 1-.2-.14.4.4 0 0 1-.06-.23q-.84.24-1.73.26c-.63 0-1.15-.3-1.15-.87s.42-.88 1.08-.88c.53 0 .91.21 1.29.21.69 0 .37-.73.2-.8.57-.3.9.44.77.66.87-.64 1.85.32 1.8.8a1.3 1.3 0 0 0-.75-.3c-.4 0-.6.48-1.54 0 .05.25.4.36.4.36-.99.24-.93-.4-2.07-.39-.42 0-.53.13-.53.35 0 .36.68.49 1.43.17.42.2 1.16.26 1.63-.06a.6.6 0 0 0 .5-.18c1.7.16 1.34 2.41-.24 2.4q-.45.02-.9-.12c.52.2.58 1.07 1.38 1.07s.87.51.92.83a.7.7 0 0 0-.5-.22 1.2 1.2 0 0 1 .53 1.15zm-3.59-5.04q-.3.1-.6.1c-.16 0-.3-.06-.3-.12 0-.12.61-.08.9.02m6.05 6.9c-.55-.1-1.22.31-1.22.31.28-1.23 1.03-1.35 1.16-1.4a1 1 0 0 1-.05-.4q.02-.16.08-.31a1.5 1.5 0 0 0-1.3-.3s.62-.87 1.22-.87q.53-.02.93.31c.04.02.09-.02.13-.02l.09-.36q-.4-.46-.97-.54s.53-.6 1.06-.6h.13l.02-.13q-.49-.1-.8-.5l-.16-.1a1 1 0 0 1-.45-.77q-.02-.2.06-.4.1-.22.26-.4a1 1 0 0 0 .25-.45l.13-.43c.1-.32.45-.7.8-1.07l.08-.07.1-.1v-7.2h-.17a5 5 0 0 1-.83-.13l.35-.47q.12-.15.29-.3a.7.7 0 0 1 .16-.58.7.7 0 0 0 0-.54h-.03q-.16.02-.27.11-.22.16-.48.18l-.16-.02a1 1 0 0 1-.42-.3l-.02-.02q-.07.07-.12.15c-.25.36-.12 1-.12 1-.15-.07-.77-.63-.72-1.3l-.11.18s-.39-.62-.32-1.04H51.73c.06.42-.32 1.04-.32 1.04l-.11-.17c.04.67-.57 1.22-.73 1.3 0 0 .13-.63-.12-1l-.12-.15-.02.02a1 1 0 0 1-.42.3l-.15.02a1 1 0 0 1-.48-.18 1 1 0 0 0-.27-.11h-.03a.7.7 0 0 0 0 .54.7.7 0 0 1 .16.57l.3.31.34.47q-.4.09-.82.13h-.18v7.2l.11.1.07.08c.36.36.7.75.8 1.07l.14.42q.03.27.23.47.17.18.26.4a1 1 0 0 1-.03.77q-.12.24-.35.4l-.16.1c-.2.25-.5.42-.81.47l.02.13h.13c.53 0 1.06.6 1.06.6q-.58.1-.97.54l.1.36c.04 0 .08.04.12.02.26-.21.6-.32.93-.3.6 0 1.21.87 1.21.87a1.4 1.4 0 0 0-1.29.29q.06.15.08.31 0 .2-.05.4c.13.05.88.17 1.16 1.4 0 0-.67-.4-1.22-.3a11.1 11.1 0 0 0 7.95 6.35 11.1 11.1 0 0 0 7.94-6.36"/></svg>