<svg xmlns="http://www.w3.org/2000/svg" width="124" height="30" fill="none"><g clip-path="url(#am5azzk1i)"><path stroke="url(#bm5azzk1i)" stroke-width="4" d="M205.17 3.04c-90.6 6.78-189.3 1.37-249.03-8.62l-24.03 22.26c57.64 13.3 194.2 10.38 246.59 6.46z" opacity=".25"/><path stroke="url(#cm5azzk1i)" stroke-width="3" d="M205.17 3.04c-90.6 6.78-189.3 1.37-249.03-8.62l-24.03 22.26c57.64 13.3 194.2 10.38 246.59 6.46z" opacity=".25"/><path stroke="url(#dm5azzk1i)" stroke-width="2" d="M205.17 3.04c-90.6 6.78-189.3 1.37-249.03-8.62l-24.03 22.26c57.64 13.3 194.2 10.38 246.59 6.46z" opacity=".25"/><path stroke="url(#em5azzk1i)" d="M205.17 3.04c-90.6 6.78-189.3 1.37-249.03-8.62l-24.03 22.26c57.64 13.3 194.2 10.38 246.59 6.46z" opacity=".25"/><path stroke="url(#fm5azzk1i)" stroke-width="4" d="M145.02-1.58C53.7.67-33.82-12.81-67.27-20.01L-105.7 2.56c66.75 11 179.24 14.22 225.03 13.44z" opacity=".25"/><path stroke="url(#gm5azzk1i)" stroke-width="3" d="M145.02-1.58C53.7.67-33.82-12.81-67.27-20.01L-105.7 2.56c66.75 11 179.24 14.22 225.03 13.44z" opacity=".25"/><path stroke="url(#hm5azzk1i)" stroke-width="2" d="M145.02-1.58C53.7.67-33.82-12.81-67.27-20.01L-105.7 2.56c66.75 11 179.24 14.22 225.03 13.44z" opacity=".25"/><path stroke="url(#im5azzk1i)" d="M145.02-1.58C53.7.67-33.82-12.81-67.27-20.01L-105.7 2.56c66.75 11 179.24 14.22 225.03 13.44z" opacity=".25"/></g><defs><linearGradient id="bm5azzk1i" x1="172.91" x2="107.96" y1="17.87" y2="-80.61" gradientUnits="userSpaceOnUse"><stop stop-color="#FC57FF"/><stop offset="1" stop-color="#00FF47" stop-opacity="0"/></linearGradient><linearGradient id="cm5azzk1i" x1="172.91" x2="107.96" y1="17.87" y2="-80.61" gradientUnits="userSpaceOnUse"><stop stop-color="#FC57FF"/><stop offset="1" stop-color="#00FF47" stop-opacity="0"/></linearGradient><linearGradient id="dm5azzk1i" x1="172.91" x2="107.96" y1="17.87" y2="-80.61" gradientUnits="userSpaceOnUse"><stop stop-color="#FC57FF"/><stop offset="1" stop-color="#00FF47" stop-opacity="0"/></linearGradient><linearGradient id="em5azzk1i" x1="172.91" x2="107.96" y1="17.87" y2="-80.61" gradientUnits="userSpaceOnUse"><stop stop-color="#FC57FF"/><stop offset="1" stop-color="#00FF47" stop-opacity="0"/></linearGradient><linearGradient id="fm5azzk1i" x1="111.77" x2="59.44" y1="9.73" y2="-76.63" gradientUnits="userSpaceOnUse"><stop stop-color="#00FF47" stop-opacity="0"/><stop offset="1" stop-color="#FC57FF"/></linearGradient><linearGradient id="gm5azzk1i" x1="111.77" x2="59.44" y1="9.73" y2="-76.63" gradientUnits="userSpaceOnUse"><stop stop-color="#00FF47" stop-opacity="0"/><stop offset="1" stop-color="#FC57FF"/></linearGradient><linearGradient id="hm5azzk1i" x1="111.77" x2="59.44" y1="9.73" y2="-76.63" gradientUnits="userSpaceOnUse"><stop stop-color="#00FF47" stop-opacity="0"/><stop offset="1" stop-color="#FC57FF"/></linearGradient><linearGradient id="im5azzk1i" x1="111.77" x2="59.44" y1="9.73" y2="-76.63" gradientUnits="userSpaceOnUse"><stop stop-color="#00FF47" stop-opacity="0"/><stop offset="1" stop-color="#FC57FF"/></linearGradient></defs></svg>