<svg xmlns="http://www.w3.org/2000/svg" width="124" height="30" fill="none"><g clip-path="url(#a3spp42sw)"><path stroke="url(#b3spp42sw)" stroke-width="4" d="M-19.22 3.8c64.56.74 127.1-8.39 150.31-13.04v28.61C88.44 33.05 13.12 35.18-19.21 34.53z" opacity=".2"/><path stroke="url(#c3spp42sw)" stroke-width="3" d="M-19.22 3.8c64.56.74 127.1-8.39 150.31-13.04v28.61C88.44 33.05 13.12 35.18-19.21 34.53z" opacity=".2"/><path stroke="url(#d3spp42sw)" stroke-width="2" d="M-19.22 3.8c64.56.74 127.1-8.39 150.31-13.04v28.61C88.44 33.05 13.12 35.18-19.21 34.53z" opacity=".2"/><path stroke="url(#e3spp42sw)" d="M-19.22 3.8c64.56.74 127.1-8.39 150.31-13.04v28.61C88.44 33.05 13.12 35.18-19.21 34.53z" opacity=".2"/><path stroke="url(#f3spp42sw)" stroke-width="4" d="M-58.22 23.52c64.56.73 127.1-8.4 150.31-13.05v17.1C49.44 41.28-25.88 43.4-58.21 42.75z" opacity=".2"/><path stroke="url(#g3spp42sw)" stroke-width="3" d="M-58.22 23.52c64.56.73 127.1-8.4 150.31-13.05v17.1C49.44 41.28-25.88 43.4-58.21 42.75z" opacity=".2"/><path stroke="url(#h3spp42sw)" stroke-width="2" d="M-58.22 23.52c64.56.73 127.1-8.4 150.31-13.05v17.1C49.44 41.28-25.88 43.4-58.21 42.75z" opacity=".2"/><path stroke="url(#i3spp42sw)" d="M-58.22 23.52c64.56.73 127.1-8.4 150.31-13.05v17.1C49.44 41.28-25.88 43.4-58.21 42.75z" opacity=".2"/></g><defs><linearGradient id="b3spp42sw" x1="122.75" x2="1.48" y1="12.7" y2="12.7" gradientUnits="userSpaceOnUse"><stop stop-color="red"/><stop offset="1" stop-color="#EAFF00" stop-opacity="0"/></linearGradient><linearGradient id="c3spp42sw" x1="122.75" x2="1.48" y1="12.7" y2="12.7" gradientUnits="userSpaceOnUse"><stop stop-color="red"/><stop offset="1" stop-color="#EAFF00" stop-opacity="0"/></linearGradient><linearGradient id="d3spp42sw" x1="122.75" x2="1.48" y1="12.7" y2="12.7" gradientUnits="userSpaceOnUse"><stop stop-color="red"/><stop offset="1" stop-color="#EAFF00" stop-opacity="0"/></linearGradient><linearGradient id="e3spp42sw" x1="122.75" x2="1.48" y1="12.7" y2="12.7" gradientUnits="userSpaceOnUse"><stop stop-color="red"/><stop offset="1" stop-color="#EAFF00" stop-opacity="0"/></linearGradient><linearGradient id="f3spp42sw" x1="83.08" x2="-37.3" y1="26.66" y2="26.66" gradientUnits="userSpaceOnUse"><stop stop-color="#EBFF00" stop-opacity="0"/><stop offset="1" stop-color="red"/></linearGradient><linearGradient id="g3spp42sw" x1="83.08" x2="-37.3" y1="26.66" y2="26.66" gradientUnits="userSpaceOnUse"><stop stop-color="#EBFF00" stop-opacity="0"/><stop offset="1" stop-color="red"/></linearGradient><linearGradient id="h3spp42sw" x1="83.08" x2="-37.3" y1="26.66" y2="26.66" gradientUnits="userSpaceOnUse"><stop stop-color="#EBFF00" stop-opacity="0"/><stop offset="1" stop-color="red"/></linearGradient><linearGradient id="i3spp42sw" x1="83.08" x2="-37.3" y1="26.66" y2="26.66" gradientUnits="userSpaceOnUse"><stop stop-color="#EBFF00" stop-opacity="0"/><stop offset="1" stop-color="red"/></linearGradient></defs></svg>