<svg width="201" height="80" viewBox="0 0 201 80" xmlns="http://www.w3.org/2000/svg"><path d="M116.47 36.91a9.26 9.26 0 0 0-6.43-2.4c-2.46 0-4.61.8-6.4 2.4-1.78 1.58-2.69 3.78-2.69 6.59s.9 5 2.7 6.62a9.37 9.37 0 0 0 6.39 2.36 9.4 9.4 0 0 0 6.42-2.36c1.82-1.62 2.73-3.81 2.73-6.62s-.9-5-2.72-6.59Zm-9.8 10.19a4.83 4.83 0 0 1-1.41-3.6c0-1.48.47-2.68 1.41-3.57a4.6 4.6 0 0 1 3.37-1.37 4.68 4.68 0 0 1 3.4 1.37 4.6 4.6 0 0 1 1.44 3.57 4.79 4.79 0 0 1-4.85 4.94 4.7 4.7 0 0 1-3.36-1.34Zm18.88 4.9V28.47h-4.24V52h4.24Zm13.69-17v9.38c0 2.27-1.2 3.77-3.49 3.77-2.32 0-3.49-1.5-3.49-3.77V35h-4.24V45.1c0 3.92 2.42 7.38 7.73 7.38h.04c5.28 0 7.7-3.54 7.7-7.38V35h-4.25Zm-42.8 0L92.2 46.52l-4.24-11.53h-4.51L90.22 52h3.97l6.76-17h-4.51Zm-12.97 8.02c0-2.47-.77-4.5-2.29-6.1a7.66 7.66 0 0 0-5.85-2.4 8.64 8.64 0 0 0-8.79 8.98c0 2.64.85 4.8 2.5 6.48a8.27 8.27 0 0 0 6.09 2.5c3.67 0 6.26-1.64 7.84-4.97l-3.17-1.85c-1.04 2.09-2.55 3.12-4.6 3.12-2.53 0-4.31-1.65-4.58-4.25h12.85v-1.51Zm-8.28-5.21c2.39 0 3.97 1.37 4.38 3.56H70.6a4.88 4.88 0 0 1 4.58-3.56ZM66.54 52l-5.69-10.16c3.6-1.33 5.39-3.66 5.39-7.06 0-4.15-3.23-6.79-8.38-6.79H47.8v24h4.44v-9.74h3.77L61.46 52h5.08Zm-8.68-20.03c2.63 0 3.94 1.06 3.94 3.15 0 2.1-1.32 3.15-3.94 3.15h-5.62v-6.3h5.62Zm92.82 20.5a5 5 0 0 1-4.94-5.04V30.4h4.24V35h3.63v3.5h-3.63v8.66c0 .82.65 1.48 1.45 1.48h2.18v3.84h-2.93Z" fill="#fff"/></svg>