<svg xmlns="http://www.w3.org/2000/svg" width="132" height="60" viewBox="0 0 132 60"><path fill="#fff" d="M81.66 21h3.37v17.85h-3.37zM109 28.52v-2.77h-3.5v-3.61h-3.37V35.3q0 1.83.96 2.74t2.93.92H109V36.2h-2.18q-.71 0-1.01-.3c-.18-.17-.3-.62-.3-1.14v-6.23zm-50.28 6.85 3.5-9.62h3.54l-5.04 13.1h-4l-5.04-13.1h3.55zm37.9-3.06q0 1.25-.39 2.15a3 3 0 0 1-1.1 1.34q-.71.45-1.73.46-1.46 0-2.17-.9-.7-.9-.71-2.7v-6.91h-3.38v7.27q0 1.71.44 2.85.45 1.16 1.2 1.85.77.7 1.76.99.98.3 2.09.29a5.5 5.5 0 0 0 2.6-.54q.9-.49 1.51-1.14l.3 1.53H100v-13.1h-3.37zM76.5 26.44a8 8 0 0 0-3.76-.84q-2.12 0-3.74.84a6 6 0 0 0-2.5 2.35q-.9 1.51-.9 3.52 0 1.99.9 3.5.88 1.5 2.5 2.35 1.61.84 3.74.84a8 8 0 0 0 3.76-.84A6 6 0 0 0 79 35.8q.88-1.51.88-3.5 0-2-.89-3.52-.89-1.5-2.5-2.35M74.7 35.8q-.81.5-1.97.5-1.12 0-1.96-.5a3.4 3.4 0 0 1-1.29-1.41q-.45-.9-.46-2.08 0-1.2.46-2.09a3.5 3.5 0 0 1 3.25-1.93q1.15 0 1.97.52.83.53 1.28 1.41.45.9.46 2.1 0 1.16-.46 2.07-.45.9-1.28 1.41M26.5 25.4H23v13.45h3.5zm11 .77c0-2.85-2.45-5.17-5.46-5.17H23v2.87h8.62c1.36 0 2.5 1.02 2.52 2.26 0 .63-.24 1.22-.7 1.66-.46.45-1.08.7-1.74.7h-3.36q-.2.02-.21.2v2.55q0 .07.04.12l5.7 7.49h4.16l-5.7-7.5a5.34 5.34 0 0 0 5.18-5.18m10.8.2a8 8 0 0 0-3.57-.77q-2.05 0-3.61.84a6 6 0 0 0-2.43 2.35q-.86 1.51-.86 3.55 0 1.99.87 3.5.88 1.5 2.5 2.33a8 8 0 0 0 3.82.83q1.74 0 3.1-.61a6 6 0 0 0 2.17-1.65q.78-1 1.04-2.2l.02-.09H48l-.02.06a2.5 2.5 0 0 1-1.06 1.4q-.84.55-2.05.55-1.02 0-1.82-.41a3 3 0 0 1-1.22-1.15 4 4 0 0 1-.48-1.75v-.1h10.14l.01-.07q.06-.27.07-.56l.01-.56a6.4 6.4 0 0 0-.89-3.32 6 6 0 0 0-2.39-2.18m-1.24 2.46q.87.7 1.07 1.95h-6.68a2.9 2.9 0 0 1 1.75-2.33q.72-.33 1.55-.33 1.42 0 2.31.71"/></svg>