<svg xmlns="http://www.w3.org/2000/svg" width="200" height="80" viewBox="0 0 200 80"><path fill="#fff" d="M124.76 25h5.34v29.75h-5.34zM168 37.53v-4.61h-5.52V26.9h-5.34v21.94q0 3.03 1.5 4.57 1.52 1.52 4.65 1.53H168v-4.62h-3.45q-1.13 0-1.6-.49c-.28-.3-.47-1.05-.47-1.91V37.53zM88.5 48.96 94 32.92h5.61l-7.97 21.83h-6.32l-7.97-21.83h5.61zm59.94-5.1a9 9 0 0 1-.63 3.57q-.62 1.48-1.74 2.24-1.13.75-2.74.76-2.3 0-3.43-1.5t-1.13-4.49V32.92h-5.34v12.11q0 2.85.7 4.76a8 8 0 0 0 1.9 3.07q1.21 1.16 2.77 1.65a11 11 0 0 0 3.3.49q2.53 0 4.11-.9a9 9 0 0 0 2.4-1.9l.48 2.55h4.69V32.92h-5.34zm-31.84-9.8a12 12 0 0 0-5.94-1.4q-3.36.01-5.92 1.4a10 10 0 0 0-3.96 3.93 12 12 0 0 0-1.4 5.86q0 3.31 1.4 5.83a10 10 0 0 0 3.96 3.92q2.57 1.4 5.92 1.4 3.4 0 5.94-1.4a10 10 0 0 0 3.94-3.92q1.4-2.52 1.4-5.83 0-3.35-1.4-5.86a10 10 0 0 0-3.94-3.92m-2.82 15.6q-1.3.85-3.12.85a5.6 5.6 0 0 1-3.1-.84 5.6 5.6 0 0 1-2.04-2.35q-.72-1.51-.72-3.47 0-2 .72-3.48a5.5 5.5 0 0 1 5.14-3.22q1.81 0 3.12.87a6 6 0 0 1 2.02 2.35q.73 1.5.73 3.48 0 1.95-.73 3.47-.73 1.5-2.02 2.35M37.55 32.35H32v22.4h5.55zm17.4 1.28A8.64 8.64 0 0 0 46.31 25H32v4.79h13.63a3.94 3.94 0 0 1 3.98 3.77 3.83 3.83 0 0 1-3.85 3.92h-5.3a.34.34 0 0 0-.35.34v4.25q0 .1.06.2l9.01 12.48h6.6l-9.03-12.51a8.7 8.7 0 0 0 8.2-8.62m17.06.32q-2.42-1.28-5.64-1.28-3.24.01-5.7 1.4A10 10 0 0 0 56.83 38a12 12 0 0 0-1.37 5.9q0 3.31 1.39 5.83a9.7 9.7 0 0 0 3.94 3.9Q63.35 55 66.84 55q2.76 0 4.9-1.02a9 9 0 0 0 5.08-6.41l.03-.15h-5.31l-.03.1q-.45 1.5-1.69 2.34-1.33.9-3.24.9a6 6 0 0 1-2.87-.68 4.7 4.7 0 0 1-1.93-1.9 7 7 0 0 1-.77-2.94v-.17h16.04l.02-.1q.1-.45.1-.94.03-.46.03-.94-.05-3.18-1.4-5.53a9.4 9.4 0 0 0-3.8-3.62m-1.94 4.11a5 5 0 0 1 1.69 3.24H61.2a5 5 0 0 1 2.76-3.87 5.5 5.5 0 0 1 2.45-.56q2.24 0 3.66 1.2"/></svg>