<svg width="225" height="80" viewBox="0 0 225 80" xmlns="http://www.w3.org/2000/svg"><path d="M50.87 13.1h-4.72v3.83h-7.87v8h-5.9v11.8h5.98v7.78h7.79v3.96h4.15c9.72 0 18.3-7.82 18.3-17.64 0-9.72-8.01-17.73-17.73-17.73ZM145.84 16.5h4.1v28.63h-4.1v1.47h14.22v-1.47h-4.09V16.5h4.1v-1.51h-14.23v1.51ZM187.12 15H161.8l-.51 8.31h1.5c.86-6.03 2-7.46 8.66-7.12v28.94h-4.36v1.48h14.77v-1.48h-4.36V16.19c6.68-.34 7.8 1.09 8.66 7.12h1.47l-.5-8.32ZM86.5 28.52V16.47h4.13c4.19 0 5.74 1.07 5.74 6.35 0 4.25-1.73 5.7-5.98 5.7H86.5Zm46.52-11.55v28.11h-4.08v1.47h14.2v-1.47h-4.09V16.47h4.1v-1.5h-11.68l-6.85 21.6-6.6-21.6H106.4v1.5h4.07v28.61h-4.4c-4.1.07-4.17-3.4-4.15-4.12.05-7.7-1.65-10.5-9.04-11.64v-.1c4.4-.46 10.02-1.71 10.02-7.05 0-6.58-6.14-7.2-11.3-7.2H76.34v1.5h4.1v28.61h-4.1v1.5h14.22v-1.5H86.5V30c2.62-.1 5.57.54 6.9 1.71 1.24 1.04 1.88 4.28 1.88 8.19 0 4.82 2.52 6.65 7.3 6.65h13.7v-1.47h-4V16.97h.1l9.41 29.58h1.6l9.46-29.58h.17ZM88.18 55.28v6.92c0 1.9-1.19 3-2.99 3-1.8 0-3-1.1-3-3v-6.92c0-.8-.33-1.14-1.14-1.14h-1.77v1.54h.76c.24 0 .4.13.4.38v6.22c0 2.73 1.9 4.61 4.76 4.61 2.87 0 4.77-1.88 4.77-4.6v-6.23c0-.25.14-.38.4-.38h.75v-1.54h-1.77c-.8 0-1.17.34-1.17 1.14ZM101.69 55.28v6.8c0 .72.1 1.7.1 1.7h-.03s-.59-1.03-1.05-1.7l-5.55-7.94h-1.64v10.6c0 .27-.13.42-.38.42h-.76v1.5h1.79c.8 0 1.14-.34 1.14-1.14v-6.79c0-.67-.1-1.68-.1-1.68h.03s.56 1 1.03 1.68l5.59 7.93h1.59v-10.6c0-.25.13-.38.38-.38h.76v-1.54h-1.76c-.84 0-1.14.34-1.14 1.14ZM106.17 55.68h1.22v9.48h-1.22v1.5h4.12v-1.5h-1.22v-9.48h1.22v-1.54h-4.13v1.54ZM120.34 55.18l-2.74 7.7c-.24.7-.47 1.73-.47 1.73h-.05s-.23-1.03-.46-1.73l-2.76-7.7c-.28-.83-.6-1.04-1.47-1.04h-1v1.54h.24c.32 0 .5.07.6.38l3.94 10.6h1.87l3.94-10.6c.1-.3.27-.38.6-.38h.24v-1.54h-1c-.88 0-1.17.21-1.48 1.04ZM131.2 64.74c0 .27-.13.42-.39.42h-3.65c-.23 0-.39-.15-.39-.42v-3.62h4.38v-1.53h-4.38v-3.91h3.58c.23 0 .39.13.39.38v.8h1.6v-1.58c0-.8-.33-1.14-1.14-1.14h-7.36v1.54H125v9.84c0 .8.34 1.14 1.12 1.14h5.57c.81 0 1.14-.34 1.14-1.14v-1.55h-1.63v.77ZM139.28 60.16h-2.3v-4.48h2.34c1.33 0 2.12.83 2.12 2.2 0 1.4-.8 2.28-2.16 2.28Zm3.78 4.58-1.52-3c-.2-.41-.51-.57-.51-.57v-.03c.88-.2 2.25-1.24 2.25-3.32 0-2.3-1.55-3.68-3.76-3.68h-5.46v1.54h1.16v10.98h1.76V61.7h1.63c.7 0 .93.08 1.24.67l1.72 3.37c.41.8.75.93 1.73.93h.88v-1.5h-.24c-.43 0-.72-.05-.88-.42ZM154.83 55.68h1.22v9.48h-1.22v1.5h4.14v-1.5h-1.23v-9.48h1.23v-1.54h-4.14v1.54ZM169.82 54.14h-8.64c-.8 0-1.06.27-1.06 1.07v1.66h1.57v-.8c0-.26.15-.4.4-.4h2.51v11h1.8v-11h2.5c.24 0 .39.14.39.4v.8h1.58V55.2c0-.8-.27-1.07-1.05-1.07ZM179.47 55.1l-1.89 3.17c-.4.7-.75 1.4-.75 1.4h-.05s-.34-.7-.74-1.4l-1.9-3.16c-.5-.83-.84-.97-1.68-.97h-.83v1.54h.36c.37 0 .53.07.75.44l3.19 5.08v5.46h1.76V61.2l3.16-5.08c.23-.37.41-.44.78-.44h.33v-1.54h-.8c-.83 0-1.19.14-1.69.97ZM149.3 53.94h.16c1.34.03 3.5.63 3.5 2.3v1.04h-1.66v-.6c0-.67-.93-1.13-1.9-1.13-1.36 0-2.2.75-2.2 1.68 0 1.12 1.16 1.63 2.47 2.2 1.66.74 3.56 1.58 3.56 3.89 0 1.92-1.5 3.58-3.99 3.58-2.63 0-4.14-1.87-4.15-1.9l1.06-1.24s1.27 1.5 3.14 1.5c1.16 0 2.14-.7 2.14-1.86 0-1.18-1.23-1.74-2.58-2.36-1.64-.76-3.48-1.6-3.48-3.76 0-1.85 1.63-3.3 3.94-3.34Z" fill="#fff"/></svg>