<svg xmlns="http://www.w3.org/2000/svg" width="230" height="100" viewBox="0 0 230 100"><path d="M45.51 60.65c0 2-.69 3.9-2.13 5.34-2 2-4.88 2.67-7.64 2.73-2.88.09-5.88-.63-8.07-2.64A8.03 8.03 0 0 1 25 60.14h4.77c0 1.17.5 2.3 1.35 3.15 1.14 1.14 2.85 1.38 4.4 1.38 1.5 0 3.25-.24 4.33-1.38 1.16-1.26 1.52-3.45.02-4.62-1.58-1.2-3.86-1.1-5.75-1.29-1.98-.18-4-.5-5.64-1.68a6.78 6.78 0 0 1-2.76-4.77 7.2 7.2 0 0 1 2.19-5.97c1.86-1.85 4.62-2.63 7.17-2.7 2.64-.05 5.48.64 7.46 2.5a7.67 7.67 0 0 1 2.58 5.45h-4.74a4.2 4.2 0 0 0-1.1-2.52c-.96-1.02-2.64-1.38-4-1.38-1.43 0-3 .33-4.04 1.41-1.23 1.35-1.2 3.66.54 4.56.87.45 1.95.48 2.9.6l3.22.33c2 .27 4.01.84 5.54 2.28a7.08 7.08 0 0 1 2.07 5.16zm20.16 7.65l-1.8-2.01c-3 2.64-7.62 3.48-11.28 1.8a7.6 7.6 0 0 1-4.02-9.45c.72-1.95 2.4-3.42 4.11-4.5-1.74-1.83-3-3.8-2.7-6.42a6.22 6.22 0 0 1 3.96-5.03 8.43 8.43 0 0 1 7.2.57 6.16 6.16 0 0 1 2.85 5.81c-.21 2.94-2.43 4.86-4.8 6.24l4.44 4.83c.5-.96.57-2.1.66-3.15.09-1.05.06-2.1.06-3.15h6.6v3.57h-2.97c-.1 1.98-.45 4.05-1.56 5.73l4.7 5.13h-5.45v.03zM55.32 56.96c-1.2.75-2.49 1.5-2.88 2.97a3.97 3.97 0 0 0 .93 3.78c1.92 1.95 6.03 1.74 7.83-.27l-5.88-6.48zm4.47-8.3c0-1.09-.48-2.05-1.5-2.5a3.35 3.35 0 0 0-3.27.33c-.9.66-1.14 1.9-.81 2.94.39 1.26 1.38 2.16 2.28 3.06 1.56-.9 3.3-1.83 3.3-3.84zm33.77 2.21c0 2.31-.75 4.65-2.55 6.18-1.77 1.53-4.17 2.04-6.48 2.04h-5.4v9.15h-4.62V42.69h10.02c2.28 0 4.68.5 6.48 2 1.83 1.56 2.55 3.87 2.55 6.18zm-4.68.03c0-1.17-.4-2.4-1.3-3.18-.86-.78-2.09-.96-3.23-.96h-5.22v8.25h5.22a5 5 0 0 0 3.24-.93c.93-.8 1.29-2 1.29-3.18zm31.97 17.37l-.54-2.82c-1.26 2.37-4.32 3.33-6.84 3.27-2.7-.06-5.3-.84-7.17-2.85-2.7-2.8-3.3-6.63-3.33-10.38 0-3.75.54-7.5 3.33-10.26 3.9-3.9 11.28-4.07 15.18-.09a8.06 8.06 0 0 1 2.34 5.16h-4.77a4.48 4.48 0 0 0-1.11-2.34c-1.98-2.3-6.3-1.95-8.25.18-1.83 1.92-1.98 4.92-1.98 7.44 0 2.46.24 5.49 2.01 7.38 1.92 2.1 6 2.25 7.98.15 1.32-1.38 1.65-3.12 1.65-4.98h-6.09v-3.87h10.59v13.98h-3v.03zm14.27-.06c-1.68.36-3.5.42-5.03-.48-1.56-.9-2.07-2.58-2.07-4.32V42.18h4.55v20.48c0 .57.12 1.32.66 1.59.57.3 1.26.15 1.9.15v3.8zm19.14-9.33c0 2.52-.6 4.89-2.2 6.93-3.17 3.9-9.92 3.9-13.13 0-3.03-3.84-3-9.99 0-13.83 3.18-3.9 9.93-3.9 13.14 0a10.95 10.95 0 0 1 2.19 6.9zm-4.6 0c0-1.65-.17-3.45-1.31-4.74a4 4 0 0 0-5.7 0c-1.17 1.26-1.35 3.1-1.35 4.74 0 1.65.18 3.45 1.35 4.7a4 4 0 0 0 5.7 0c1.17-1.25 1.32-3.05 1.32-4.7zm25.38.03c0 3.06-.9 6.2-3.36 8.19-2.7 2.25-7.77 2.28-9.8-.9l-.3 2.07h-3.9V42.24h4.5v8.66c1.04-1.29 2.87-1.77 4.5-1.83 1.8-.09 3.6.33 5 1.5 2.25 1.83 3.36 4.62 3.36 8.34zm-4.56-.06c0-1.59-.2-3.27-1.2-4.53a4.03 4.03 0 0 0-3.8-1.44c-1.42.21-2.44 1.23-2.98 2.52-.57 1.41-.6 3.12-.48 4.62.15 1.44.45 2.94 1.56 3.96 1.65 1.53 4.3 1.1 5.67-.54 1.02-1.3 1.23-3 1.23-4.59zm24.56 9.18c-2.04.9-5.13.63-5.4-2.13-1.67 2.97-6.14 3.45-9 2.19a5.7 5.7 0 0 1-2.27-8.76c1.26-1.56 3.24-2.22 5.16-2.37l5.51-.39V55.4c0-.84-.17-1.83-.86-2.37-.57-.48-1.41-.57-2.1-.57-1.77-.03-3.51.66-3.63 2.67h-4.35c.12-1.7.78-3.33 2.13-4.4 1.29-1.06 3-1.5 4.62-1.66 3.15-.24 6.8.54 8.06 3.78.48 1.2.54 2.52.54 3.78v6.96c0 .84.54 1.47 1.44 1.14.1 0 .12 0 .18-.03v3.33h-.03zm-6-8.1l-4.76.36c-1.26.09-2.58.84-2.7 2.19-.12 1.4.93 2.43 2.28 2.58 1.26.15 2.7-.21 3.72-1 1.04-.77 1.46-2 1.46-3.29v-.84zm15.93 8.28c-1.7.36-3.57.42-5.1-.51-1.53-.93-1.98-2.58-1.98-4.3V42.19h4.56v20.48c0 .57.12 1.32.66 1.59.57.3 1.26.15 1.89.15v3.8h-.03z" fill="#ED1B2F"/><path d="M204.97 30H25.03v4.62h179.94V30z" fill="#fff"/></svg>