<svg xmlns="http://www.w3.org/2000/svg" width="200" height="80" viewBox="0 0 200 80"><path fill="#ED1B2F" d="M41.32 49.96c0 1.7-.58 3.3-1.8 4.53-1.69 1.69-4.12 2.26-6.45 2.3-2.43.08-4.97-.53-6.82-2.23A6.8 6.8 0 0 1 24 49.53h4.03c0 1 .42 1.95 1.14 2.67.96.96 2.4 1.17 3.71 1.17 1.27 0 2.75-.2 3.66-1.17.98-1.07 1.28-2.92.02-3.92-1.34-1.01-3.26-.93-4.86-1.09-1.67-.15-3.38-.42-4.76-1.42a5.7 5.7 0 0 1-2.33-4.04 6.1 6.1 0 0 1 1.85-5.06c1.57-1.57 3.9-2.23 6.05-2.29 2.23-.04 4.63.55 6.3 2.12A6.5 6.5 0 0 1 41 41.12h-4a3.6 3.6 0 0 0-.93-2.14c-.81-.86-2.23-1.16-3.38-1.16-1.2 0-2.53.27-3.41 1.19-1.04 1.14-1.01 3.1.46 3.86.73.38 1.64.4 2.44.51l2.72.28c1.7.23 3.39.71 4.68 1.93a6 6 0 0 1 1.75 4.37m17.02 6.48-1.52-1.7a9.1 9.1 0 0 1-9.52 1.52 6.43 6.43 0 0 1-3.4-8c.61-1.65 2.03-2.9 3.47-3.81-1.47-1.55-2.53-3.22-2.28-5.44a5.3 5.3 0 0 1 3.35-4.26 7.1 7.1 0 0 1 6.08.48 5.2 5.2 0 0 1 2.4 4.92c-.17 2.5-2.05 4.12-4.05 5.29l3.75 4.09c.42-.81.48-1.78.56-2.67.07-.89.05-1.78.05-2.67h5.57v3.03h-2.5c-.09 1.67-.39 3.43-1.32 4.85l3.97 4.35h-4.6zm-8.74-9.6c-1.01.63-2.1 1.27-2.43 2.51a3.4 3.4 0 0 0 .79 3.2c1.62 1.66 5.09 1.48 6.6-.22zm3.78-7.03c0-.93-.4-1.74-1.27-2.12a2.8 2.8 0 0 0-2.76.28c-.76.56-.96 1.6-.68 2.49.33 1.07 1.16 1.83 1.92 2.59 1.32-.76 2.79-1.55 2.79-3.25m28.52 1.87c0 1.95-.64 3.94-2.16 5.23-1.5 1.3-3.52 1.73-5.47 1.73h-4.56v7.75h-3.9V34.75h8.46c1.93 0 3.95.42 5.47 1.7 1.55 1.31 2.16 3.27 2.16 5.23m-3.96.02c0-.99-.33-2.03-1.1-2.69-.72-.66-1.76-.81-2.72-.81H69.7v6.98h4.4c.98.07 1.95-.21 2.74-.78a3.5 3.5 0 0 0 1.1-2.7m27 14.72-.46-2.4c-1.06 2.02-3.64 2.83-5.77 2.78-2.28-.05-4.48-.71-6.06-2.42-2.28-2.37-2.78-5.61-2.8-8.79 0-3.18.45-6.35 2.8-8.69 3.3-3.3 9.53-3.45 12.82-.08a6.8 6.8 0 0 1 1.98 4.38h-4.03a4 4 0 0 0-.94-1.99c-1.67-1.95-5.32-1.65-6.96.16-1.55 1.62-1.68 4.16-1.68 6.3 0 2.08.2 4.65 1.7 6.25 1.62 1.78 5.07 1.9 6.74.13 1.11-1.17 1.4-2.65 1.4-4.22h-5.15v-3.28h8.94v11.84h-2.53zm12.05-.05c-1.42.3-2.95.35-4.25-.41-1.31-.76-1.74-2.19-1.74-3.66V34.32h3.84v17.34c0 .49.1 1.12.55 1.35.49.26 1.07.13 1.6.13zm16.16-7.9c0 2.13-.5 4.13-1.86 5.86-2.67 3.3-8.37 3.3-11.08 0a9.9 9.9 0 0 1 0-11.71c2.68-3.3 8.38-3.3 11.1 0a9.3 9.3 0 0 1 1.84 5.84m-3.88 0c0-1.4-.15-2.93-1.1-4.02a3.37 3.37 0 0 0-4.82 0c-.99 1.06-1.14 2.62-1.14 4.01 0 1.4.15 2.93 1.14 3.98a3.4 3.4 0 0 0 4.81 0c.99-1.05 1.12-2.58 1.12-3.98zm21.43.02c0 2.59-.76 5.25-2.84 6.94-2.28 1.9-6.56 1.93-8.27-.77l-.26 1.76h-3.29V34.37h3.8v7.33c.88-1.09 2.42-1.5 3.8-1.55a6 6 0 0 1 4.22 1.27q2.85 2.34 2.84 7.07m-3.85-.05c0-1.35-.17-2.77-1.01-3.84a3.4 3.4 0 0 0-3.21-1.22c-1.2.18-2.06 1.04-2.52 2.13a9 9 0 0 0-.4 3.92c.12 1.22.38 2.49 1.31 3.35 1.4 1.3 3.63.93 4.8-.45.85-1.1 1.03-2.55 1.03-3.9m20.74 7.77c-1.72.77-4.33.54-4.56-1.8-1.41 2.51-5.19 2.92-7.6 1.85a4.82 4.82 0 0 1-1.92-7.42c1.07-1.32 2.74-1.88 4.36-2l4.65-.33v-1c0-.7-.14-1.55-.72-2-.49-.4-1.2-.49-1.78-.49-1.5-.02-2.96.56-3.06 2.27h-3.68c.1-1.44.66-2.82 1.8-3.73a7 7 0 0 1 3.9-1.4c2.66-.21 5.75.45 6.81 3.2.4 1.01.46 2.13.46 3.2v5.9c0 .7.45 1.24 1.21.96.09 0 .1 0 .16-.03v2.82zm-5.07-6.86-4.02.3c-1.06.08-2.18.72-2.28 1.86-.1 1.19.79 2.06 1.93 2.19a4.5 4.5 0 0 0 3.14-.85c.88-.65 1.23-1.7 1.23-2.79zm13.45 7.02c-1.43.3-3.01.35-4.3-.44-1.3-.78-1.67-2.18-1.67-3.64V34.33h3.85v17.34c0 .49.1 1.12.55 1.35.48.25 1.07.13 1.6.13v3.22z"/><path fill="#fff" d="M175.98 24H24.03v3.91h151.95z"/></svg>