<svg width="56" height="56" viewBox="0 0 56 56" xmlns="http://www.w3.org/2000/svg"><rect width="56" height="56" rx="8" fill="#051478"/><path d="M10.34 29.7c2.43 0 4.21-1.35 4.21-3.2 0-3.76-5.87-2.53-5.87-4.42 0-.77.74-1.22 1.74-1.22 1.1 0 1.66.52 1.96 1.11l2.03-.65c-.54-1.46-2.03-2.32-3.85-2.32-2.44 0-4.04 1.48-4.04 3.26 0 3.62 5.83 2.29 5.83 4.36 0 .73-.79 1.21-1.94 1.21a2.33 2.33 0 0 1-2.35-1.7L6 26.8c.48 1.77 2.16 2.9 4.34 2.9ZM44.2 19a5.36 5.36 0 1 0 0 10.7c3.05 0 5.43-2.4 5.43-5.35A5.37 5.37 0 0 0 44.2 19Zm0 1.95c1.81 0 3.19 1.42 3.19 3.4 0 1.99-1.38 3.4-3.19 3.4s-3.17-1.41-3.17-3.4c0-1.98 1.39-3.4 3.17-3.4Zm-21.64-1.79h-1.88l-4.41 10.39h2.26l.9-2.18h4.34l.89 2.17 1.41-2.1-3.51-8.28Zm-2.4 6.4 1.43-3.5 1.43 3.5h-2.85Zm11.1-1.41-3.67 5.4h2.4l2.46-3.68 2.47 3.68h2.46l-3.7-5.45 3.35-4.94h-2.39l-2.15 3.22-2.15-3.22h-2.46l3.38 4.99ZM11.22 37.9v-3.33h1.28c.24 0 .44.04.6.11.16.08.28.18.36.31.08.13.12.28.12.44 0 .14-.03.26-.08.35a.66.66 0 0 1-.2.24.9.9 0 0 1-.3.13v.03c.11 0 .23.04.34.1.1.07.2.16.27.28.06.12.1.27.1.44a.85.85 0 0 1-.5.79c-.17.08-.38.12-.64.12h-1.35Zm.6-1.91h.6c.1 0 .2-.02.29-.06.08-.04.14-.1.2-.16a.44.44 0 0 0 .07-.26.42.42 0 0 0-.14-.32c-.1-.08-.22-.12-.4-.12h-.61v.92Zm0 1.41h.66c.22 0 .37-.04.47-.12.1-.09.15-.2.15-.33a.5.5 0 0 0-.29-.46.7.7 0 0 0-.32-.07h-.66v.98ZM14.62 37.9v-3.33h2.17v.5h-1.57v.91h1.46v.5h-1.46v.92h1.58v.5h-2.18ZM20.12 34.57h-.6v3.34h.6v-3.34ZM24.03 34.57v3.34h-.52l-1.57-2.28h-.03v2.28h-.6v-3.34h.54l1.57 2.27h.03v-2.27h.58ZM25.47 34.57l.87 2.63h.03l.87-2.63h.66l-1.17 3.34h-.75l-1.17-3.34h.66ZM28.74 37.9v-3.33h2.17v.5h-1.57v.91h1.46v.5h-1.46v.92h1.58v.5h-2.18ZM33.73 35.49a.44.44 0 0 0-.19-.34.74.74 0 0 0-.44-.12.84.84 0 0 0-.32.06.48.48 0 0 0-.2.16.38.38 0 0 0-.08.22c0 .07.02.13.05.18.03.05.07.1.13.13.05.04.12.07.18.09l.2.06.32.08c.12.03.25.07.36.12.12.05.22.11.32.19.09.07.16.16.22.27.05.1.08.24.08.38a.9.9 0 0 1-.58.86c-.2.09-.42.13-.69.13a1.7 1.7 0 0 1-.67-.12 1 1 0 0 1-.45-.35c-.1-.16-.16-.35-.17-.57h.6c0 .12.04.21.1.3.06.07.15.13.25.16.1.04.21.06.34.06.12 0 .25-.02.34-.06.1-.04.18-.1.24-.16a.4.4 0 0 0 .08-.25.32.32 0 0 0-.07-.22.59.59 0 0 0-.21-.14c-.09-.04-.2-.08-.31-.1l-.38-.1c-.28-.08-.5-.18-.65-.33a.74.74 0 0 1-.24-.57c0-.2.05-.37.16-.52.1-.15.25-.26.43-.34.19-.09.4-.13.63-.13.23 0 .45.04.62.13.18.08.32.2.43.34.1.14.15.3.15.5h-.58ZM34.92 35.08v-.51h2.66v.5h-1.03v2.84h-.6v-2.83h-1.03ZM38.41 37.9v-3.33h2.17v.5h-1.57v.91h1.46v.5H39v.92h1.58v.5h-2.18ZM42.82 37.9H41.7v-3.33h1.16c.33 0 .61.07.85.2s.42.32.55.57c.13.25.2.55.2.9 0 .34-.07.64-.2.9-.13.24-.32.44-.56.57-.24.13-.53.2-.87.2m-.52-.52h.5c.22 0 .42-.05.57-.13a.81.81 0 0 0 .35-.39c.08-.17.12-.38.12-.63 0-.26-.04-.47-.12-.64a.8.8 0 0 0-.34-.38 1.16 1.16 0 0 0-.57-.13h-.51v2.3Z" fill="#fff"/></svg>