<svg width="120" height="120" viewBox="0 0 120 120" xmlns="http://www.w3.org/2000/svg"><path d="M62 6v10h-4V6h4ZM62 58v10h-4V58h4Z" fill="currentColor"/><path fill-rule="evenodd" d="M76 37a16 16 0 1 1-32 0 16 16 0 0 1 32 0Zm-4 0a12 12 0 1 1-24 0 12 12 0 0 1 24 0Z" fill="currentColor"/><path d="m76.26 23.57 7.07-7.08-2.82-2.82-7.08 7.07 2.83 2.83ZM39.5 60.33l7.06-7.07-2.82-2.82-7.07 7.07 2.82 2.82ZM80.5 60.33l-7.06-7.07 2.82-2.82 7.07 7.07-2.82 2.82ZM43.74 23.57l-7.07-7.08 2.82-2.82 7.07 7.07-2.82 2.83ZM81 39h10v-4H81v4ZM29 39h10v-4H29v4ZM11 86v-4h98v4H11ZM28 114v-4h64v4H28ZM30 96H4v4h26v-4ZM41 96h75v4H41v-4Z" fill="currentColor"/></svg>