<svg xmlns="http://www.w3.org/2000/svg" width="612" height="340" fill="none" viewBox="0 0 612 340"><path fill="#000" d="M0 0h612v340H0z"/><g filter="url(#a5aw33r0u)"><path fill="url(#b5aw33r0u)" d="M26.86 109.38a16 16 0 0 1 16-16h388a16 16 0 0 1 16 16V340h-420z"/><path stroke="url(#c5aw33r0u)" stroke-opacity=".05" stroke-width="2" d="M42.86 94.38h388a15 15 0 0 1 15 15V339h-418V109.38a15 15 0 0 1 15-15Z"/></g><g filter="url(#d5aw33r0u)"><path fill="url(#e5aw33r0u)" d="M60.78 62.85a16 16 0 0 1 16-16h388a16 16 0 0 1 16 16V340h-420z"/><path stroke="url(#f5aw33r0u)" stroke-opacity=".05" stroke-width="2" d="M76.78 47.85h388a15 15 0 0 1 15 15V339h-418V62.85a15 15 0 0 1 15-15Z"/></g><g filter="url(#g5aw33r0u)"><path fill="url(#h5aw33r0u)" d="M100.14 24a16 16 0 0 1 16-16h388a16 16 0 0 1 16 16v316h-420z"/><path stroke="url(#i5aw33r0u)" stroke-opacity=".2" stroke-width="2" d="M116.14 9h388a15 15 0 0 1 15 15v315h-418V24a15 15 0 0 1 15-15Z"/></g><path fill="url(#j5aw33r0u)" d="M521.14 340h494.28v63.11H521.14z" transform="rotate(-180 521.14 340)"/><path fill="#8C8C8C" d="M140.84 138.84q-1.23 0-2.1-.45a3.3 3.3 0 0 1-1.35-1.28 4 4 0 0 1-.47-1.89v-6.47h1.23v6.39q0 .75.31 1.34.33.57.92.9a3 3 0 0 0 1.46.33q.85 0 1.45-.33t.92-.9q.3-.58.31-1.34v-6.4h1.23v6.48q0 1.08-.47 1.9-.47.8-1.34 1.27-.88.45-2.1.45M149.48 138.74q-.82 0-1.45-.25t-1.01-.7-.45-1.06h1.22q.15.45.59.74t1.14.28q.5 0 .87-.14.39-.16.6-.4a1 1 0 0 0 .22-.6v-.02a.8.8 0 0 0-.3-.63q-.3-.27-.98-.43l-1.14-.28q-.69-.16-1.14-.42-.44-.27-.66-.65a2 2 0 0 1-.2-.91v-.01q0-.62.35-1.1.36-.48.98-.77.63-.28 1.4-.28.78 0 1.37.25.6.24.97.68t.45 1.05h-1.17a1.2 1.2 0 0 0-.53-.71 2 2 0 0 0-1.1-.28q-.42 0-.77.15-.34.14-.54.38a1 1 0 0 0-.2.57v.02q0 .23.13.44.13.19.4.33.28.15.7.25l1.14.28q1.05.24 1.55.72.51.48.51 1.27v.01q0 .66-.39 1.16t-1.06.78-1.5.28M157.13 138.74q-1.05 0-1.81-.46t-1.16-1.32a5 5 0 0 1-.4-2v-.01q0-1.14.4-2a3.12 3.12 0 0 1 2.9-1.83q1 0 1.72.46t1.1 1.3q.4.83.4 1.92v.47h-5.91v-.95h5.3l-.6.87v-.47q0-.87-.25-1.43a2 2 0 0 0-.72-.84q-.46-.28-1.05-.28t-1.07.3q-.45.28-.74.85-.27.56-.27 1.4v.47q0 .78.27 1.34.26.56.75.86.5.3 1.17.3.5 0 .87-.15.36-.13.6-.34t.34-.43l.03-.07h1.19l-.02.06q-.1.38-.34.73t-.62.64q-.39.27-.91.45-.53.16-1.17.16M161.97 138.61v-7.37h1.19v1.1h.1q.22-.6.72-.9.51-.33 1.25-.33.18 0 .34.02l.26.03v1.16a4 4 0 0 0-.73-.07q-.57 0-1 .22-.45.23-.7.63t-.25.94v4.57zM167.28 138.61v-7.37h1.19v1.11h.1q.3-.6.82-.91.53-.33 1.34-.33 1.24 0 1.9.71.67.71.67 2.02v4.77h-1.19v-4.48q0-1-.42-1.48t-1.3-.49q-.6 0-1.02.26-.42.25-.67.72-.23.46-.23 1.11v4.36zM177.33 138.74a3 3 0 0 1-1.26-.27 2 2 0 0 1-.88-.75 2 2 0 0 1-.32-1.17v-.01q0-.66.3-1.12.32-.47.93-.74.6-.27 1.45-.31l2.7-.17v.95l-2.56.17q-.84.05-1.23.34-.38.3-.38.85v.02q0 .56.42.87.43.3 1.07.3.6 0 1.08-.23.47-.24.74-.66t.27-.95v-2.3q0-.68-.41-1.03-.42-.37-1.24-.37-.66 0-1.09.24-.42.24-.56.67l-.01.02h-1.2l.02-.04q.1-.59.47-1.02.4-.43 1-.67.63-.25 1.41-.25.9 0 1.52.3.63.3.96.84.32.55.32 1.32v5.04h-1.19v-1.09h-.1a2.5 2.5 0 0 1-1.32 1.08q-.42.14-.91.14M182.87 138.61v-7.37h1.2v1.12h.1q.25-.6.75-.92.52-.33 1.24-.33.5 0 .9.17.4.16.68.45t.46.67h.1q.21-.38.54-.67t.77-.45q.45-.17.95-.17.75 0 1.28.28.52.28.8.82.27.55.27 1.3v5.1h-1.2v-4.82q0-.54-.16-.9a1 1 0 0 0-.5-.54 2 2 0 0 0-.87-.19q-.51 0-.9.24-.38.23-.59.62-.21.38-.21.85v4.74h-1.2v-5q0-.45-.18-.76-.19-.33-.54-.5-.34-.2-.8-.19-.48 0-.87.26t-.6.68q-.24.42-.23.94v4.57zM197.9 138.74q-1.05 0-1.8-.46-.76-.47-1.16-1.32a5 5 0 0 1-.4-2v-.01q0-1.14.4-2a3.12 3.12 0 0 1 2.9-1.83q1 0 1.72.46t1.1 1.3q.4.83.4 1.92v.47h-5.91v-.95h5.3l-.6.87v-.47q0-.87-.25-1.43a1.8 1.8 0 0 0-1.77-1.12q-.6 0-1.07.3-.47.28-.74.85t-.27 1.4v.47q0 .78.26 1.34a2 2 0 0 0 1.93 1.15q.5 0 .86-.14.37-.13.61-.34t.34-.43l.03-.07h1.18l-.01.06q-.1.38-.34.73t-.62.64a3 3 0 0 1-.91.45q-.53.16-1.17.16"/><path fill="#DBDBDB" d="M150.45 175.76q-.94 0-1.66-.28a3 3 0 0 1-1.15-.8 2.2 2.2 0 0 1-.51-1.22h1.39q.17.52.67.85t1.3.32q.58 0 1-.17.45-.17.7-.46t.24-.68v-.01a1 1 0 0 0-.34-.73q-.34-.3-1.12-.5l-1.31-.3a5 5 0 0 1-1.3-.49q-.51-.3-.75-.74-.24-.45-.24-1.05 0-.71.4-1.26.42-.56 1.13-.88.72-.32 1.6-.32t1.57.28 1.1.78.51 1.2h-1.33q-.15-.5-.61-.81-.48-.32-1.24-.32-.5 0-.9.17-.38.15-.61.44-.23.27-.23.65v.02q0 .28.15.5t.46.38q.31.15.8.29l1.3.31q1.2.3 1.77.83.58.54.58 1.45v.01q0 .75-.44 1.33-.45.57-1.21.89-.75.32-1.72.32M158.44 175.76q-.96 0-1.6-.36t-.98-1.06a4 4 0 0 1-.32-1.7v-5.45h1.36v5.12q0 1.13.44 1.7.45.55 1.45.55.56 0 .97-.17.44-.15.72-.47.3-.3.43-.75.15-.45.15-1v-4.98h1.36v8.42h-1.36v-1.26h-.12q-.2.45-.56.77-.34.3-.84.48-.49.16-1.1.16M164.64 178.42V167.2H166v1.34h.13a2.8 2.8 0 0 1 1.54-1.3q.5-.2 1.08-.19 1.08 0 1.86.55.8.54 1.24 1.51.43.98.43 2.3 0 1.33-.43 2.3-.44.98-1.24 1.52-.78.54-1.86.54a3.11 3.11 0 0 1-2-.7 3 3 0 0 1-.62-.78H166v4.14zm3.8-3.86q.78 0 1.32-.38.55-.38.84-1.08.3-.71.3-1.7 0-1-.3-1.7t-.84-1.07-1.32-.39q-.76 0-1.32.39-.55.38-.85 1.08a4 4 0 0 0-.3 1.68v.02q0 .96.3 1.68.3.7.85 1.08.56.39 1.32.39M177.53 175.76q-1.2 0-2.07-.53a3.5 3.5 0 0 1-1.33-1.5 5 5 0 0 1-.46-2.3q0-1.31.46-2.3t1.32-1.53a3.6 3.6 0 0 1 2-.56q1.14 0 1.96.53.84.53 1.27 1.49.44.94.44 2.2v.53h-6.75v-1.08h6.06l-.67.99v-.54q0-.99-.3-1.63a2.1 2.1 0 0 0-2.02-1.28q-.69 0-1.22.34-.54.33-.85.97-.3.66-.3 1.6v.54q0 .89.3 1.54a2.3 2.3 0 0 0 2.2 1.3q.56 0 .98-.15t.7-.4.38-.49l.03-.07h1.36l-.01.06q-.11.44-.4.84-.27.4-.7.73-.44.31-1.04.51t-1.34.19M182.92 175.61v-8.42h1.36v1.25h.12a2 2 0 0 1 .82-1.03q.58-.37 1.43-.37.2 0 .38.02l.3.04v1.32a4 4 0 0 0-.84-.08q-.65 0-1.14.26a2 2 0 0 0-.8.71q-.27.47-.27 1.08v5.22zM191.84 175.67q-1.3 0-1.88-.52t-.58-1.73v-5.1h-1.33v-1.13h1.33V165h1.4v2.18h1.85v1.12h-1.84v4.77q0 .74.28 1.07.28.32.94.32l.62-.03v1.16zM194.35 175.61v-8.42h1.36v1.25h.12a2 2 0 0 1 .82-1.03q.57-.37 1.43-.37.2 0 .38.02l.3.04v1.32a4 4 0 0 0-.84-.08q-.65 0-1.14.26a2 2 0 0 0-.8.71q-.27.47-.27 1.08v5.22zM202.44 175.76a3 3 0 0 1-1.44-.3q-.64-.3-1.01-.87a2.4 2.4 0 0 1-.37-1.33v-.02q0-.75.36-1.28.36-.54 1.05-.84t1.66-.36l3.1-.19v1.09l-2.93.19q-.96.04-1.41.4-.44.34-.44.96v.02q0 .64.49 1 .48.35 1.22.35.69 0 1.23-.27.54-.29.84-.76.32-.48.32-1.08v-2.62q0-.79-.48-1.2-.47-.4-1.41-.4-.75 0-1.25.27-.47.26-.65.75v.03h-1.36v-.05q.12-.67.55-1.15.45-.51 1.15-.78.7-.28 1.6-.28 1.03 0 1.75.34.71.33 1.08.97.38.62.38 1.5v5.76h-1.36v-1.24h-.13a3 3 0 0 1-1.5 1.23q-.47.16-1.04.16M211.74 175.76a3.2 3.2 0 0 1-3.1-2.05 6 6 0 0 1-.43-2.3v-.02q0-1.31.44-2.3.44-.97 1.23-1.51a3.3 3.3 0 0 1 1.86-.54 3 3 0 0 1 2 .7q.4.32.63.78h.12v-4.67h1.36v11.76h-1.36v-1.34h-.12a3 3 0 0 1-.65.8 3 3 0 0 1-.9.51q-.49.18-1.08.18m.31-1.2q.78 0 1.33-.39.55-.37.85-1.08t.3-1.68v-.02q0-.97-.3-1.68-.3-.7-.85-1.08a2.3 2.3 0 0 0-1.32-.39q-.78 0-1.32.39-.55.37-.85 1.08-.3.7-.29 1.68v.02q0 .97.3 1.69.28.7.84 1.08.54.38 1.31.38M221.58 175.76q-1.2 0-2.07-.53a3.5 3.5 0 0 1-1.33-1.5 5 5 0 0 1-.46-2.3q0-1.31.46-2.3.48-.98 1.32-1.53a3.6 3.6 0 0 1 2-.56q1.14 0 1.97.53t1.26 1.49q.45.94.45 2.2v.53h-6.75v-1.08h6.05l-.67.99v-.54q0-.99-.3-1.63a2.1 2.1 0 0 0-2.02-1.28q-.68 0-1.22.34-.53.33-.84.97-.32.66-.32 1.6v.54q0 .89.3 1.54a2.3 2.3 0 0 0 2.2 1.3q.57 0 1-.15.41-.15.7-.4.26-.24.37-.49l.03-.07h1.36l-.01.06q-.1.44-.4.84-.26.4-.7.73-.44.31-1.04.51t-1.34.19M226.97 175.61v-8.42h1.36v1.25h.12a2 2 0 0 1 .82-1.03q.58-.37 1.43-.37.2 0 .39.02l.3.04v1.32a4 4 0 0 0-.84-.08q-.66 0-1.15.26a2 2 0 0 0-.8.71q-.27.47-.27 1.08v5.22z"/><rect width="339" height="47" x="136.17" y="147.11" stroke="url(#k5aw33r0u)" rx="7.5"/><path fill="#8C8C8C" d="M137.54 217.1V216h2.8q1.06 0 1.63-.55a2 2 0 0 0 .59-1.52v-.02a2 2 0 0 0-.59-1.52 2.3 2.3 0 0 0-1.64-.55h-2.79v-1.1h3.1q.94 0 1.65.4.7.4 1.11 1.11.41.7.41 1.65v.01q0 .94-.4 1.66a3 3 0 0 1-1.12 1.12q-.7.4-1.64.4zm-.61 3.51v-9.86h1.23v9.86zM147.28 220.74a3 3 0 0 1-1.26-.27 2 2 0 0 1-.88-.75 2 2 0 0 1-.32-1.17v-.01q0-.66.3-1.12.33-.47.92-.74.61-.27 1.46-.31l2.7-.17v.95l-2.55.17q-.85.05-1.24.34-.38.3-.38.85v.02q0 .56.43.87.42.3 1.06.3.6 0 1.08-.23.47-.24.74-.66t.27-.95v-2.3q0-.68-.41-1.03-.42-.37-1.24-.37-.66 0-1.09.24-.42.24-.56.67l-.01.02h-1.2l.02-.04q.1-.59.47-1.02.4-.43 1-.67.63-.25 1.41-.25.9 0 1.53.3.62.3.94.84.33.55.33 1.32v5.04h-1.19v-1.09h-.1a2.5 2.5 0 0 1-1.32 1.08q-.42.14-.91.14M155.35 220.74q-.81 0-1.45-.25t-1-.7-.45-1.06h1.21q.15.45.6.74.42.28 1.13.28.5 0 .88-.14.37-.16.6-.4a1 1 0 0 0 .22-.6v-.02q0-.38-.3-.63-.3-.27-.99-.43l-1.14-.28q-.7-.16-1.13-.42-.45-.27-.66-.65a2 2 0 0 1-.21-.91v-.01q0-.62.35-1.1.37-.48.99-.77.62-.28 1.4-.28t1.37.25q.6.24.96.68.38.45.45 1.05h-1.17a1.2 1.2 0 0 0-.53-.71 2 2 0 0 0-1.09-.28 2 2 0 0 0-.78.15q-.33.14-.54.38a1 1 0 0 0-.2.57v.02q0 .24.13.44.15.19.4.33.3.15.71.25l1.14.28q1.03.24 1.54.72.52.48.52 1.27v.01q0 .66-.4 1.16-.37.5-1.05.78-.67.28-1.5.28M162.39 220.74q-.82 0-1.45-.25t-1.01-.7q-.37-.45-.45-1.06h1.22q.15.45.59.74t1.14.28q.5 0 .88-.14.37-.16.6-.4a1 1 0 0 0 .22-.6v-.02a.8.8 0 0 0-.3-.63q-.3-.27-.99-.43l-1.14-.28q-.69-.16-1.14-.42-.44-.27-.65-.65a2 2 0 0 1-.21-.91v-.01q0-.62.35-1.1.36-.48.99-.77.62-.28 1.4-.28t1.37.25q.6.24.96.68.37.45.45 1.05h-1.17a1.2 1.2 0 0 0-.53-.71 2 2 0 0 0-1.09-.28 2 2 0 0 0-.78.15q-.34.14-.54.38a1 1 0 0 0-.2.57v.02q0 .24.13.44.13.19.4.33.28.15.71.25l1.13.28q1.04.24 1.55.72t.51 1.27v.01q0 .66-.39 1.16t-1.06.78q-.66.28-1.5.28M168.25 220.61l-2.06-7.37h1.19l1.44 5.9h.12l1.64-5.9h1.13l1.65 5.9h.1l1.46-5.9h1.18l-2.07 7.37h-1.2l-1.64-5.7h-.1l-1.65 5.7zM180.27 220.74q-1.05 0-1.81-.46a3 3 0 0 1-1.18-1.32 5 5 0 0 1-.4-2.03v-.01q0-1.19.4-2.04.42-.85 1.18-1.31t1.81-.46 1.81.46 1.17 1.31q.42.85.42 2.04v.01q0 1.18-.42 2.03a3.05 3.05 0 0 1-2.98 1.78m0-1.05q.7 0 1.19-.33.48-.33.73-.94.27-.61.26-1.49v-.01q0-.87-.26-1.49a2 2 0 0 0-.73-.94 2 2 0 0 0-1.19-.33q-.7 0-1.18.33t-.75.94q-.25.61-.25 1.49v.01q0 .87.25 1.49.27.6.75.94.49.33 1.18.33M185.36 220.61v-7.37h1.2v1.1h.1q.21-.6.72-.9.5-.33 1.25-.33.16 0 .33.02l.26.03v1.16a4 4 0 0 0-.73-.07q-.57 0-1 .22-.45.22-.7.63t-.24.94v4.57zM193.06 220.74a2.8 2.8 0 0 1-2.71-1.8 5 5 0 0 1-.38-2v-.02q0-1.16.38-2.01t1.07-1.33q.7-.47 1.64-.47a2.7 2.7 0 0 1 1.75.61q.34.3.54.68h.11v-4.08h1.2v10.3h-1.2v-1.18h-.1q-.24.4-.58.7t-.78.44q-.43.15-.94.16m.27-1.05q.66 0 1.15-.34.5-.33.75-.95.26-.61.26-1.47v-.01q0-.85-.26-1.47a2 2 0 0 0-.75-.95q-.48-.33-1.15-.34-.67 0-1.16.34a2 2 0 0 0-.73.94q-.26.61-.26 1.48v.01q0 .85.25 1.48.26.62.74.95.49.33 1.16.33"/><path fill="#DBDBDB" d="M151.67 253.06v.02a1.6 1.6 0 0 1-.8 1.38q-.35.21-.8.21h-.01a1.6 1.6 0 0 1-1.38-.78q-.22-.36-.22-.81v-.02a1.6 1.6 0 0 1 .8-1.38q.35-.2.8-.2h.01a1.6 1.6 0 0 1 1.39.78q.2.36.2.8M158.9 253.06v.02a1.6 1.6 0 0 1-.8 1.38q-.35.21-.8.21h-.01a1.6 1.6 0 0 1-1.38-.78q-.22-.36-.22-.81v-.02a1.6 1.6 0 0 1 .8-1.38q.35-.2.8-.2h.01a1.6 1.6 0 0 1 1.39.78q.2.36.2.8M166.13 253.06v.02a1.6 1.6 0 0 1-.8 1.38q-.35.21-.8.21h-.01a1.6 1.6 0 0 1-1.38-.78q-.21-.36-.21-.81v-.02a1.6 1.6 0 0 1 .78-1.38q.36-.2.8-.2h.02a1.6 1.6 0 0 1 1.39.78q.2.36.2.8M173.36 253.06v.02a1.6 1.6 0 0 1-.8 1.38q-.35.21-.8.21h-.01a1.6 1.6 0 0 1-1.38-.78q-.22-.36-.22-.81v-.02a1.6 1.6 0 0 1 .8-1.38q.35-.2.8-.2h.01a1.6 1.6 0 0 1 1.39.78q.2.36.2.8M180.59 253.06v.02a1.6 1.6 0 0 1-.8 1.38q-.35.21-.8.21h-.01a1.6 1.6 0 0 1-1.38-.78q-.21-.36-.22-.81v-.02a1.6 1.6 0 0 1 .8-1.38q.35-.2.8-.2h.02a1.6 1.6 0 0 1 1.38.78q.2.36.2.8M187.82 253.06v.02a1.6 1.6 0 0 1-.8 1.38q-.35.21-.8.21h-.01a1.6 1.6 0 0 1-1.38-.78q-.22-.36-.22-.81v-.02a1.6 1.6 0 0 1 .8-1.38q.35-.2.8-.2h.01a1.6 1.6 0 0 1 1.39.78q.2.36.2.8M195.05 253.06v.02a1.6 1.6 0 0 1-.8 1.38q-.35.21-.8.21h-.01a1.6 1.6 0 0 1-1.38-.78q-.22-.36-.22-.81v-.02a1.6 1.6 0 0 1 .8-1.38q.35-.2.8-.2h.02a1.6 1.6 0 0 1 1.38.78q.2.36.2.8M202.28 253.06v.02a1.57 1.57 0 0 1-1.6 1.6h-.01a1.6 1.6 0 0 1-1.38-.8q-.21-.35-.22-.8v-.02a1.6 1.6 0 0 1 .8-1.38q.35-.2.8-.2h.02q.44 0 .8.2t.58.58q.2.36.2.8M209.5 253.06v.02a1.57 1.57 0 0 1-1.59 1.6h-.01q-.45 0-.8-.22a1.57 1.57 0 0 1-.79-1.38v-.02a1.6 1.6 0 0 1 .78-1.38q.36-.2.8-.2h.03a1.6 1.6 0 0 1 1.38.78q.2.36.2.8M216.74 253.06v.02a1.57 1.57 0 0 1-1.6 1.6h-.01q-.45 0-.8-.22a1.57 1.57 0 0 1-.79-1.38v-.02a1.6 1.6 0 0 1 .78-1.38q.36-.2.8-.2h.03a1.6 1.6 0 0 1 1.38.78q.2.36.2.8M223.97 253.06v.02a1.57 1.57 0 0 1-1.6 1.6h-.01a1.6 1.6 0 0 1-1.38-.8q-.21-.35-.21-.8v-.02a1.6 1.6 0 0 1 .78-1.38q.36-.2.8-.2h.03a1.6 1.6 0 0 1 1.38.78q.2.36.2.8M231.2 253.06v.02a1.57 1.57 0 0 1-1.6 1.6h-.01a1.6 1.6 0 0 1-1.38-.8q-.21-.35-.21-.8v-.02a1.6 1.6 0 0 1 .78-1.38q.36-.2.8-.2h.02a1.6 1.6 0 0 1 1.39.78q.2.36.2.8M238.43 253.06v.02a1.6 1.6 0 0 1-.79 1.38q-.36.21-.8.21h-.02a1.6 1.6 0 0 1-1.38-.78q-.21-.36-.21-.81v-.02a1.6 1.6 0 0 1 .78-1.38q.36-.2.8-.2h.03a1.6 1.6 0 0 1 1.38.78q.2.36.2.8M245.66 253.06v.02a1.6 1.6 0 0 1-.79 1.38q-.36.21-.8.21h-.02a1.6 1.6 0 0 1-1.38-.78q-.21-.36-.21-.81v-.02a1.6 1.6 0 0 1 .78-1.38q.36-.2.81-.2h.01a1.6 1.6 0 0 1 1.39.78q.2.36.2.8M252.89 253.06v.02a1.6 1.6 0 0 1-.79 1.38q-.36.21-.8.21h-.02a1.6 1.6 0 0 1-1.38-.78q-.21-.36-.21-.81v-.02a1.6 1.6 0 0 1 .78-1.38q.37-.2.81-.2h.01a1.6 1.6 0 0 1 1.39.78q.2.36.2.8M260.12 253.06v.02a1.6 1.6 0 0 1-.79 1.38q-.35.21-.8.21h-.02a1.6 1.6 0 0 1-1.38-.78q-.21-.36-.21-.81v-.02a1.6 1.6 0 0 1 .78-1.38q.37-.2.81-.2h.01a1.6 1.6 0 0 1 1.39.78q.2.36.2.8M267.35 253.06v.02a1.6 1.6 0 0 1-.79 1.38q-.35.21-.8.21h-.02a1.6 1.6 0 0 1-1.38-.78q-.21-.36-.21-.81v-.02a1.6 1.6 0 0 1 .79-1.38q.36-.2.8-.2h.01a1.6 1.6 0 0 1 1.39.78q.2.36.2.8M274.58 253.06v.02a1.6 1.6 0 0 1-.79 1.38q-.35.21-.8.21h-.02a1.6 1.6 0 0 1-1.38-.78q-.21-.36-.21-.81v-.02a1.6 1.6 0 0 1 .79-1.38q.35-.2.8-.2h.01a1.6 1.6 0 0 1 1.39.78q.2.36.2.8M281.8 253.06v.02a1.6 1.6 0 0 1-.78 1.38q-.36.21-.8.21h-.02a1.6 1.6 0 0 1-1.38-.78q-.21-.36-.21-.81v-.02a1.6 1.6 0 0 1 .78-1.38q.37-.2.81-.2h.02a1.6 1.6 0 0 1 1.38.78q.2.36.2.8M289.04 253.06v.02a1.6 1.6 0 0 1-.79 1.38q-.36.21-.8.21h-.02a1.6 1.6 0 0 1-1.38-.78q-.21-.36-.21-.81v-.02a1.6 1.6 0 0 1 .79-1.38q.36-.2.8-.2h.02a1.6 1.6 0 0 1 1.38.78q.2.36.2.8M296.27 253.06v.02a1.57 1.57 0 0 1-1.6 1.6h-.01a1.6 1.6 0 0 1-1.38-.8q-.21-.35-.21-.8v-.02a1.6 1.6 0 0 1 .79-1.38q.36-.2.8-.2h.02q.44 0 .8.2t.58.58q.2.36.2.8M303.5 253.06v.02a1.57 1.57 0 0 1-1.6 1.6h-.01a1.6 1.6 0 0 1-1.38-.8q-.21-.35-.21-.8v-.02a1.6 1.6 0 0 1 .78-1.38q.37-.2.81-.2h.02q.44 0 .8.2t.58.58.21.8"/><rect width="339" height="47" x="136.17" y="229.11" stroke="url(#l5aw33r0u)" rx="7.5"/><path fill="#DBDBDB" d="M209.87 64.61v-2.17h4.6a3.8 3.8 0 0 0 2.34-.62q.81-.63.81-1.82v-.03q0-.79-.37-1.32a2.2 2.2 0 0 0-1.11-.82 5 5 0 0 0-1.82-.27h-4.45v-2h4q1.5 0 2.29-.6.8-.57.8-1.67v-.02q0-1.03-.7-1.6a3 3 0 0 0-1.96-.56h-4.43v-2.17H215q1.45 0 2.5.48 1.07.48 1.65 1.35.57.89.57 2.08v.02q0 .84-.38 1.56-.38.74-1.03 1.22-.66.5-1.48.6v.13q1.1.1 1.9.6.83.5 1.28 1.33.47.81.47 1.84v.02q0 1.38-.65 2.38a4.2 4.2 0 0 1-1.86 1.53q-1.2.53-2.86.53zm-1.39 0V48.94h2.8V64.6zM222.16 64.61V52.95h2.7v1.9h.12q.28-1 1-1.56a3 3 0 0 1 1.82-.56 4 4 0 0 1 .96.1v2.44a4 4 0 0 0-1.2-.15 3 3 0 0 0-1.44.32q-.6.33-.94.94-.32.6-.32 1.45v6.78zM234.74 64.85a6 6 0 0 1-3-.73q-1.26-.73-1.95-2.1-.69-1.36-.69-3.24v-.02q0-1.88.7-3.23.69-1.36 1.95-2.08 1.27-.75 3-.74 1.7 0 2.97.73 1.27.72 1.96 2.08.7 1.35.7 3.24v.02q0 1.89-.7 3.25-.67 1.35-1.95 2.1-1.26.72-2.99.72m.01-2.2q.9 0 1.53-.45.64-.46 1-1.32.34-.87.34-2.1v-.02q0-1.21-.36-2.08a3 3 0 0 0-.99-1.32q-.64-.45-1.53-.46-.9 0-1.53.46-.64.45-1 1.32a6 6 0 0 0-.35 2.08v.02q0 1.23.35 2.1.34.86.99 1.32.65.45 1.55.46M242.15 64.61V48.6h2.7v16.02zm7.35 0-3.92-5.3 1.86-1.85 5.23 7.15zm-4.97-3.73-.05-3.12h.48l4.34-4.81h3.12l-5.27 5.64-.82.43zM258.15 64.85a6 6 0 0 1-3-.74 5 5 0 0 1-1.91-2.1 7 7 0 0 1-.68-3.2q0-1.86.68-3.22a5 5 0 0 1 1.9-2.12q1.23-.75 2.9-.76 1.66 0 2.86.74a5 5 0 0 1 1.87 2.04q.65 1.31.65 3.07v.9h-9.51v-1.82h8.21l-1.3 1.7v-1.07q0-1.15-.35-1.91-.35-.78-.97-1.15-.62-.38-1.43-.38-.82 0-1.46.4-.63.4-1 1.16a4.4 4.4 0 0 0-.36 1.88v1.06q0 1.08.36 1.84.36.75 1.02 1.16.68.4 1.59.4.7 0 1.2-.2.53-.23.85-.54.34-.31.47-.66l.02-.07h2.54l-.02.1q-.15.63-.52 1.24-.38.62-1.02 1.13-.63.5-1.53.82-.9.3-2.06.3M265.08 64.61V52.95h2.7v1.9h.12q.28-1 1-1.56a3 3 0 0 1 1.82-.56 4 4 0 0 1 .96.1v2.44a4 4 0 0 0-1.2-.15 3 3 0 0 0-1.44.32q-.6.33-.94.94-.32.6-.32 1.45v6.78zM216.86 81.67l2.32 5.06 5.46.67-4.03 3.8.99 5.48-4.74-2.71-4.74 2.71.98-5.48-4.03-3.8 5.47-.67zM235.15 95.51v-2.1h-5.24V91.8a155 155 0 0 1 2.6-4.43 118 118 0 0 1 1.75-2.83h2.76v7.24h1.44v1.62h-1.44v2.11zm-3.43-3.68h3.46v-5.72h-.1l-.68 1.06a72 72 0 0 0-1.37 2.27l-1.31 2.28zM241.7 95.65q-.51 0-.86-.34a1.2 1.2 0 0 1-.34-.85q-.01-.5.34-.85t.86-.35.87.35q.34.34.34.85a1.17 1.17 0 0 1-1.2 1.2M249.05 84.27q.87 0 1.65.32.78.33 1.39 1 .6.69.94 1.75.36 1.05.35 2.54v.02q0 1.84-.52 3.16a4.4 4.4 0 0 1-1.5 2.02q-.99.7-2.35.7a4 4 0 0 1-1.8-.36 3.49 3.49 0 0 1-2.03-2.5v-.1h1.92l.03.08q.15.39.4.67.26.3.64.45t.84.15q.85 0 1.4-.5.53-.53.8-1.38a8 8 0 0 0 .31-2.14v-.22l-.33-1.83q0-.63-.28-1.14-.3-.5-.77-.8a2 2 0 0 0-1.07-.3q-.6 0-1.07.3a2.2 2.2 0 0 0-1.06 1.9q0 .64.27 1.14a2 2 0 0 0 1.84 1.05q.6 0 1.09-.28a2 2 0 0 0 .77-.76q.27-.48.28-1.1v-.01h.45v2.02h-.26q-.2.44-.58.8-.37.38-.94.6-.55.23-1.3.23-1.03 0-1.84-.47a3.4 3.4 0 0 1-1.24-1.29 4 4 0 0 1-.45-1.85v-.02q0-1.12.52-1.98.5-.88 1.42-1.37.9-.5 2.08-.5"/><path fill="#5B9CF6" d="M269.84 95.51V84.54h1.37v9.74h5.29v1.23zM281.31 95.65q-1.17 0-2.01-.51a3.4 3.4 0 0 1-1.3-1.46 5 5 0 0 1-.44-2.24q0-1.28.45-2.23.45-.96 1.28-1.5t1.94-.54q1.12 0 1.92.52.8.51 1.23 1.44t.43 2.15v.51h-6.57v-1.05h5.9l-.66.96v-.52q0-.97-.29-1.6a2 2 0 0 0-1.97-1.23q-.66 0-1.18.32a2 2 0 0 0-.82.96q-.3.63-.3 1.55v.52q0 .87.29 1.5a2.2 2.2 0 0 0 2.13 1.28q.56 0 .97-.16.4-.15.68-.38.26-.24.37-.48l.03-.07h1.32l-.01.06q-.1.42-.38.81-.27.4-.7.71t-1 .5q-.59.18-1.3.18M288.94 95.65q-.77 0-1.4-.3-.6-.28-.98-.84-.36-.55-.35-1.29v-.01q0-.73.35-1.25a2.3 2.3 0 0 1 1.01-.82q.68-.3 1.62-.35l3.01-.18v1.05l-2.85.19q-.93.05-1.37.38-.42.34-.42.95v.01q0 .63.47.97.47.35 1.19.35.68 0 1.2-.27t.82-.74q.3-.46.3-1.05V89.9q0-.76-.46-1.16-.45-.4-1.38-.4-.74 0-1.2.27-.48.25-.64.73v.03h-1.33l.01-.05q.1-.64.53-1.12.44-.5 1.12-.76.69-.27 1.56-.27 1 0 1.7.33.69.32 1.05.94t.37 1.46v5.61h-1.33v-1.2h-.12a2.8 2.8 0 0 1-1.46 1.2q-.46.14-1.02.14M295.11 95.51v-8.2h1.32v1.22h.13q.23-.64.8-1 .55-.36 1.39-.36l.37.02.29.03v1.29a4 4 0 0 0-.81-.08q-.64 0-1.12.25t-.77.7q-.27.45-.27 1.05v5.08zM301.02 95.51v-8.2h1.33v1.24h.12q.3-.66.9-1.02.57-.36 1.49-.36 1.38 0 2.12.79.75.78.74 2.24v5.31h-1.32v-4.99q0-1.1-.47-1.64t-1.45-.54q-.65 0-1.13.28t-.75.8q-.25.52-.25 1.24v4.85zM314.15 95.51v-8.2h1.33v1.25h.12q.27-.66.83-1.03a2.5 2.5 0 0 1 1.38-.36q.55 0 1 .18.43.19.76.51.31.31.5.75h.13q.21-.44.59-.76.37-.32.86-.5.5-.18 1.06-.18.83 0 1.41.31.59.3.89.91.3.6.3 1.46v5.66H324v-5.36q0-.6-.19-1a1.2 1.2 0 0 0-.56-.6 2 2 0 0 0-.96-.21q-.57 0-1 .26-.42.25-.66.7-.23.42-.23.94v5.27h-1.33v-5.57q0-.48-.2-.84a1.4 1.4 0 0 0-.6-.56q-.38-.2-.9-.2-.53 0-.96.28a2 2 0 0 0-.68.76q-.24.48-.24 1.05v5.08zM330.9 95.65q-1.17 0-2.02-.5-.84-.53-1.3-1.47a5 5 0 0 1-.46-2.26v-.02q0-1.31.45-2.26a3.4 3.4 0 0 1 1.31-1.46q.85-.51 2.02-.51t2.01.5q.84.53 1.3 1.47.47.95.47 2.26v.02q0 1.3-.47 2.26a3.4 3.4 0 0 1-3.31 1.97m0-1.17q.77 0 1.31-.36.55-.37.82-1.05.3-.68.3-1.65v-.02q0-.97-.3-1.65-.27-.68-.82-1.04a2.3 2.3 0 0 0-1.31-.37q-.78 0-1.32.37-.53.35-.83 1.04-.27.67-.28 1.65v.02q0 .97.28 1.65.3.68.83 1.05.54.36 1.32.36M336.56 95.51v-8.2h1.32v1.22h.12q.24-.64.8-1t1.4-.36l.36.02.3.03v1.29a4 4 0 0 0-.82-.08q-.64 0-1.12.25t-.77.7q-.27.45-.27 1.05v5.08zM345.43 95.65q-1.17 0-2.01-.51a3.4 3.4 0 0 1-1.3-1.46 5 5 0 0 1-.44-2.24q0-1.28.45-2.23.45-.96 1.28-1.5t1.94-.54q1.12 0 1.92.52.8.51 1.23 1.44t.43 2.15v.51h-6.57v-1.05h5.9l-.66.96v-.52q0-.97-.29-1.6a2 2 0 0 0-1.97-1.23q-.66 0-1.18.32t-.83.96-.3 1.55v.52q0 .87.3 1.5a2.2 2.2 0 0 0 2.13 1.28q.56 0 .97-.16.4-.15.68-.38.26-.24.37-.48l.03-.07h1.32l-.01.06q-.1.42-.38.81a3 3 0 0 1-1.7 1.21q-.59.18-1.3.18M360.36 90.7l-3.57-4.09.83-.73 4.21 4.82-4.2 4.81-.84-.73z"/><rect width="61" height="14" x="283.03" y="51.61" fill="url(#m5aw33r0u)" rx="2"/><path fill="#DBDBDB" d="M290.98 59.62v-1h1.62q.57 0 .88-.3.33-.3.33-.83v-.01q0-.54-.32-.83-.32-.3-.9-.3h-1.61v-1h1.93q.66 0 1.14.26.5.26.77.74.28.48.28 1.13t-.28 1.13a2 2 0 0 1-.77.74q-.48.27-1.14.27zm-.64 2v-6.28h1.27v6.27zM296.4 61.61v-6.27h1.28v5.22h2.8v1.05zM301.3 61.61l2.18-6.27h1.08v1.24h-.37l-1.56 5.03zm1.15-1.54.32-.96h2.9l.3.96zm3.37 1.54-1.56-5.03v-1.24h.7l2.2 6.27zM309.13 61.61V56.4h-1.9v-1.06h5.06v1.06h-1.89v5.21zM313.53 61.61v-6.27h1.27v6.27zM316.41 61.61v-6.27h1.07l3.25 4.51-.88-.45h.63v-4.06h1.22v6.27h-1.06l-3.27-4.52.9.45h-.64v4.07zM325.95 61.77q-.8 0-1.39-.29-.58-.3-.9-.81a2.3 2.3 0 0 1-.32-1.22v-4.1h1.27v3.99q0 .4.16.71.15.3.45.47t.73.17q.44 0 .73-.17.3-.17.46-.47t.16-.71v-4h1.27v4.11q0 .7-.32 1.22-.31.52-.9.81t-1.4.3M330.2 61.61v-6.27h1.45l1.77 4.64h.08l1.76-4.64h1.45v6.27h-1.13v-4.3h-.62l1.22-1.8-2.31 6.1h-.82l-2.3-6.1 1.21 1.8h-.62v4.3z"/><rect width="54" height="54" x="135.67" y="46.51" fill="#2E2E2E" rx="8"/><g opacity=".9"><path fill="url(#n5aw33r0u)" fill-rule="evenodd" d="M164.33 88.19h-12.4V58.83H163a8.5 8.5 0 0 1 8.5 8.5v.18c0 2.03-.72 3.9-1.91 5.35a7.4 7.4 0 0 1 3.84 6.69c0 4.88-3.9 8.64-9.1 8.64M163 75.99h.91c2.24 0 3.69 1.45 3.69 3.35s-1.45 3.35-3.69 3.35h-6v-6.7zm0-5.22q-.32.06-.65.06h-4.34v-6.46h4.34a3.23 3.23 0 0 1 .65 6.4"/><g filter="url(#o5aw33r0u)"><path fill="#F2F2F2" fill-rule="evenodd" d="M163 58.83h-11.08V76H163a8.5 8.5 0 0 0 8.5-8.5v-.18a8.5 8.5 0 0 0-8.5-8.5m-.65 5.54h-4.34v6.46h4.34a3.23 3.23 0 0 0 0-6.46"/></g><path fill="#F2F2F2" d="M151.92 58.83h6.09v29.35h-6.09z"/></g><path fill="#DBDBDB" d="m480.78 33.33.85-.84 7.15 7.15 7.15-7.15.85.84-7.15 7.16 7.15 7.15-.85.85-7.15-7.16-7.15 7.16-.85-.85 7.15-7.15z"/><g filter="url(#p5aw33r0u)"><path fill="url(#q5aw33r0u)" d="M447 167.9a20.9 20.9 0 0 1 20.9-20.9h88.2a20.9 20.9 0 0 1 20.9 20.9v88.2a20.9 20.9 0 0 1-20.9 20.9h-88.2a20.9 20.9 0 0 1-20.9-20.9z"/><path stroke="url(#r5aw33r0u)" stroke-opacity=".2" stroke-width="2" d="M467.9 148h88.2c10.99 0 19.9 8.91 19.9 19.9v88.2c0 10.99-8.91 19.9-19.9 19.9h-88.2c-10.99 0-19.9-8.91-19.9-19.9v-88.2c0-10.99 8.91-19.9 19.9-19.9Z"/></g><path fill="#fff" d="M534.5 197h-3.75v-3.75A18.77 18.77 0 0 0 512 174.5a18.77 18.77 0 0 0-18.75 18.75V197h-3.75a7.5 7.5 0 0 0-7.5 7.5V242a7.5 7.5 0 0 0 7.5 7.5h45a7.5 7.5 0 0 0 7.5-7.5v-37.5a7.5 7.5 0 0 0-7.5-7.5m-33.75-3.75c0-6.2 5.05-11.25 11.25-11.25s11.25 5.05 11.25 11.25V197h-22.5zm15 32.71v8.54h-7.5v-8.54A7.47 7.47 0 0 1 512 212a7.5 7.5 0 0 1 3.75 13.96"/><g filter="url(#s5aw33r0u)" opacity=".4"><path fill="#fff" d="M534.5 197h-3.75v-3.75A18.77 18.77 0 0 0 512 174.5a18.77 18.77 0 0 0-18.75 18.75V197h-3.75a7.5 7.5 0 0 0-7.5 7.5V242a7.5 7.5 0 0 0 7.5 7.5h45a7.5 7.5 0 0 0 7.5-7.5v-37.5a7.5 7.5 0 0 0-7.5-7.5m-33.75-3.75c0-6.2 5.05-11.25 11.25-11.25s11.25 5.05 11.25 11.25V197h-22.5zm15 32.71v8.54h-7.5v-8.54A7.47 7.47 0 0 1 512 212a7.5 7.5 0 0 1 3.75 13.96"/></g><defs><linearGradient id="b5aw33r0u" x1="145.97" x2="237.18" y1="93.38" y2="361.85" gradientUnits="userSpaceOnUse"><stop stop-color="#0A0A0A"/><stop offset="1"/></linearGradient><linearGradient id="c5aw33r0u" x1="36.67" x2="124.23" y1="106.7" y2="306.32" gradientUnits="userSpaceOnUse"><stop stop-color="#fff"/><stop offset="1" stop-opacity="0"/></linearGradient><linearGradient id="e5aw33r0u" x1="179.88" x2="303.48" y1="46.85" y2="352.89" gradientUnits="userSpaceOnUse"><stop stop-color="#101010"/><stop offset="1"/></linearGradient><linearGradient id="f5aw33r0u" x1="70.58" x2="186.58" y1="62.68" y2="285.14" gradientUnits="userSpaceOnUse"><stop stop-color="#fff"/><stop offset="1" stop-opacity="0"/></linearGradient><linearGradient id="h5aw33r0u" x1="219.25" x2="371.73" y1="8" y2="341.39" gradientUnits="userSpaceOnUse"><stop stop-color="#191919"/><stop offset="1"/></linearGradient><linearGradient id="i5aw33r0u" x1="223.55" x2="384.58" y1="8" y2="325.35" gradientUnits="userSpaceOnUse"><stop stop-color="#fff"/><stop offset="1" stop-opacity="0"/></linearGradient><linearGradient id="j5aw33r0u" x1="768.28" x2="768.28" y1="340" y2="403.11" gradientUnits="userSpaceOnUse"><stop/><stop offset="1" stop-opacity="0"/></linearGradient><linearGradient id="k5aw33r0u" x1="135.67" x2="475.67" y1="170.61" y2="170.61" gradientUnits="userSpaceOnUse"><stop stop-color="#3F3F3F"/><stop offset="1" stop-color="#121212"/></linearGradient><linearGradient id="l5aw33r0u" x1="135.67" x2="475.67" y1="252.61" y2="252.61" gradientUnits="userSpaceOnUse"><stop stop-color="#3F3F3F"/><stop offset="1" stop-color="#121212"/></linearGradient><linearGradient id="m5aw33r0u" x1="286.08" x2="381.24" y1="65.61" y2="65.61" gradientUnits="userSpaceOnUse"><stop stop-color="#003488"/><stop offset=".22" stop-color="#057CDA"/><stop offset=".47" stop-color="#0067AF"/><stop offset=".66" stop-color="#083976"/></linearGradient><linearGradient id="n5aw33r0u" x1="159.03" x2="185.8" y1="74.52" y2="53.84" gradientUnits="userSpaceOnUse"><stop stop-color="#F8F9FD"/><stop offset=".38" stop-color="#fff" stop-opacity="0"/></linearGradient><linearGradient id="q5aw33r0u" x1="450.06" x2="570.84" y1="157.11" y2="263.52" gradientUnits="userSpaceOnUse"><stop stop-color="#191919"/><stop offset="1" stop-color="#0A0A0A"/></linearGradient><linearGradient id="r5aw33r0u" x1="470.35" x2="565.02" y1="147" y2="273.31" gradientUnits="userSpaceOnUse"><stop stop-color="#fff"/><stop offset="1" stop-opacity="0"/></linearGradient><filter id="a5aw33r0u" width="460" height="286.62" x="6.86" y="75.38" color-interpolation-filters="sRGB" filterUnits="userSpaceOnUse"><feBlend/></filter><filter id="d5aw33r0u" width="460" height="333.15" x="40.78" y="28.85" color-interpolation-filters="sRGB" filterUnits="userSpaceOnUse"><feFlood flood-opacity="0" result="BackgroundImageFix"/><feColorMatrix in="SourceAlpha"/><feOffset dy="2"/><feGaussianBlur stdDeviation="10"/><feBlend in="SourceGraphic"/></filter><filter id="g5aw33r0u" width="460" height="372" x="80.14" y="-10" color-interpolation-filters="sRGB" filterUnits="userSpaceOnUse"><feFlood flood-opacity="0" result="BackgroundImageFix"/><feColorMatrix in="SourceAlpha" values="0 0 0 0 0 0 0 0 0 0 0 0 0 0 0 0 0 0 127 0"/><feGaussianBlur stdDeviation="10"/><feBlend in="SourceGraphic"/></filter><filter id="o5aw33r0u" width="22.06" height="19.66" x="150.68" y="58.83" filterUnits="userSpaceOnUse"><feFlood flood-opacity="0" result="BackgroundImageFix"/><feColorMatrix in="SourceAlpha" result="hardAlpha"/><feOffset dy="1.25"/><feGaussianBlur stdDeviation=".62"/><feColorMatrix values="0 0 0 0 0 0 0 0 0 0 0 0 0 0 0 0 0 0 0.25 0"/><feBlend in="SourceGraphic"/></filter><filter id="p5aw33r0u" width="260.65" height="260.65" x="381.67" y="81.67" color-interpolation-filters="sRGB" filterUnits="userSpaceOnUse"><feFlood flood-opacity="0" result="BackgroundImageFix"/><feColorMatrix in="SourceAlpha" result="hardAlpha"/><feGaussianBlur stdDeviation="32.66"/><feBlend in="SourceGraphic"/></filter><filter id="s5aw33r0u" width="130" height="130" x="447" y="147" filterUnits="userSpaceOnUse"><feGaussianBlur stdDeviation="10"/></filter></defs></svg>