<svg xmlns="http://www.w3.org/2000/svg" width="620" height="468" viewBox="0 0 620 468"><path d="M0 0h620v468H0z"/><g filter="url(#aq4vorzq5)" opacity=".1"><path fill="#26C6DA" d="M455 61h142v357H455z"/><path fill="url(#bq4vorzq5)" d="M455 61h142v357H455z"/></g><g filter="url(#cq4vorzq5)" opacity=".1"><path fill="#26C6DA" d="M312 50h142v275H312z"/><path fill="url(#dq4vorzq5)" d="M312 50h142v275H312z"/></g><g filter="url(#eq4vorzq5)" opacity=".1"><path fill="#26C6DA" d="M15 110h149v205H15z"/><path fill="url(#fq4vorzq5)" d="M15 110h149v205H15z"/></g><g filter="url(#gq4vorzq5)" opacity=".1"><path fill="#26C6DA" d="M164 92h148v95H164z"/><path fill="url(#hq4vorzq5)" d="M164 92h148v95H164z"/></g><path fill="#EC407A" d="M32 118h35v8H32z"/><path fill="#26C6DA" d="M15 118h17v8H15zM15 127h80v8H15z"/><path fill="#EC407A" d="M95 127h66v8H95z"/><path fill="#26C6DA" d="M15 145h80v8H15z"/><path fill="#EC407A" d="M95 145h66v8H95z"/><path fill="#26C6DA" d="M15 136h80v8H15z"/><path fill="#EC407A" d="M95 136h66v8H95z"/><path fill="#EC407A" d="M15 109h34v8H15z" opacity=".25"/><path fill="#26C6DA" d="M15 154h84v8H15z"/><path fill="#EC407A" d="M99 154h65v8H99z"/><path fill="#26C6DA" d="M15 163h45v8H15z"/><path fill="#EC407A" d="M60 163h70v8H60z"/><path fill="#26C6DA" d="M15 172h17v8H15z"/><path fill="#EC407A" d="M32 172h70v8H32z"/><path fill="#26C6DA" d="M15 181h17v8H15z"/><path fill="#EC407A" d="M32 181h35v8H32z"/><path fill="#26C6DA" d="M15 190h17v8H15z"/><path fill="#EC407A" d="M32 190h35v8H32z"/><path fill="#26C6DA" d="M15 199h17v8H15zM15 208h17v8H15z"/><path fill="#EC407A" d="M32 208h60v8H32z"/><path fill="#26C6DA" d="M15 217h24v8H15z"/><path fill="#EC407A" d="M39 217h60v8H39z"/><path fill="#26C6DA" d="M15 226h48v8H15z"/><path fill="#EC407A" d="M63 226h56v8H63z"/><path fill="#26C6DA" d="M15 235h45v8H15z"/><path fill="#EC407A" d="M60 235h56v8H60z"/><path fill="#26C6DA" d="M15 244h31v8H15z"/><path fill="#EC407A" d="M46 244h59v8H46z"/><path fill="#26C6DA" d="M15 253h31v8H15z"/><path fill="#EC407A" d="M46 253h59v8H46z"/><path fill="#26C6DA" d="M15 262h31v8H15z"/><path fill="#EC407A" d="M46 262h59v8H46z"/><path fill="#26C6DA" d="M15 271h31v8H15z"/><path fill="#EC407A" d="M46 271h53v8H46z"/><path fill="#26C6DA" d="M15 280h21v8H15z"/><path fill="#EC407A" d="M36 280h59v8H36zM15 289h45v8H15zM15 298h31v8H15zM15 307h31v8H15z"/><path fill="#26C6DA" d="M164 184h39v3h-39zM164 180h42v3h-42z"/><path fill="#EC407A" d="M203 184h4v3h-4z"/><path fill="#26C6DA" d="M164 176h81v3h-81z"/><path fill="#EC407A" d="M206 180h43v3h-43z"/><path fill="#26C6DA" d="M164 172h95v3h-95z"/><path fill="#EC407A" d="M245 176h50v3h-50z"/><path fill="#26C6DA" d="M164 168h95v3h-95z"/><path fill="#EC407A" d="M259 172h53v3h-53z"/><path fill="#26C6DA" d="M164 164h95v3h-95z"/><path fill="#EC407A" d="M259 168h50v3h-50z"/><path fill="#26C6DA" d="M164 160h95v3h-95z"/><path fill="#EC407A" d="M259 164h50v3h-50z"/><path fill="#26C6DA" d="M164 156h95v3h-95z"/><path fill="#EC407A" d="M259 160h50v3h-50z"/><path fill="#26C6DA" d="M164 152h99v3h-99z"/><path fill="#EC407A" d="M259 156h50v3h-50zM263 152h5v3h-5z"/><path fill="#26C6DA" d="M164 148h127v3H164z"/><path fill="#EC407A" d="M291 148h18v3h-18z"/><path fill="#26C6DA" d="M164 144h127v3H164z"/><path fill="#EC407A" d="M291 144h18v3h-18z"/><path fill="#26C6DA" d="M164 140h127v3H164z"/><path fill="#EC407A" d="M291 140h18v3h-18z"/><path fill="#26C6DA" d="M164 136h127v3H164z"/><path fill="#EC407A" d="M291 136h18v3h-18z"/><path fill="#26C6DA" d="M164 132h102v3H164z"/><path fill="#EC407A" d="M266 132h22v3h-22z"/><path fill="#26C6DA" d="M164 128h99v3h-99z"/><path fill="#EC407A" d="M263 128h17v3h-17z"/><path fill="#26C6DA" d="M164 124h99v3h-99z"/><path fill="#EC407A" d="M263 124h17v3h-17z"/><path fill="#26C6DA" d="M164 120h99v3h-99z"/><path fill="#EC407A" d="M263 120h17v3h-17z"/><path fill="#26C6DA" d="M164 116h67v3h-67z"/><path fill="#EC407A" d="M231 116h21v3h-21z"/><path fill="#26C6DA" d="M164 112h60v3h-60z"/><path fill="#EC407A" d="M224 112h18v3h-18z"/><path fill="#26C6DA" d="M164 92h60v3h-60zM164 96h60v3h-60zM164 100h60v3h-60zM164 104h60v3h-60zM164 108h60v3h-60z"/><path fill="#EC407A" d="M312 314h31v11h-31zM312 302h31v11h-31zM312 290h39v11h-39zM312 278h49v11h-49zM312 266h49v11h-49zM312 254h49v11h-49zM312 242h49v11h-49zM312 230h39v11h-39zM312 218h17v11h-17zM312 194h17v11h-17z" opacity=".7"/><path fill="#EC407A" d="M312 206h17v11h-17z"/><path fill="#EC407A" d="M312 182h17v11h-17zM312 170h17v11h-17zM312 158h34v11h-34z" opacity=".7"/><path fill="#26C6DA" d="M312 146h14v11h-14z" opacity=".7"/><path fill="#EC407A" d="M326 146h17v11h-17z" opacity=".7"/><path fill="#26C6DA" d="M312 134h31v11h-31z" opacity=".7"/><path fill="#EC407A" d="M343 134h18v11h-18z" opacity=".7"/><path fill="#26C6DA" d="M312 122h31v11h-31z" opacity=".7"/><path fill="#EC407A" d="M343 122h18v11h-18z" opacity=".7"/><path fill="#26C6DA" d="M312 110h49v11h-49z" opacity=".7"/><path fill="#EC407A" d="M361 110h14v11h-14z" opacity=".7"/><path fill="#26C6DA" d="M312 98h56v11h-56z" opacity=".7"/><path fill="#EC407A" d="M368 98h55v11h-55z" opacity=".7"/><path fill="#26C6DA" d="M312 86h83v11h-83z" opacity=".7"/><path fill="#EC407A" d="M395 86h59v11h-59z" opacity=".7"/><path fill="#26C6DA" d="M312 74h90v11h-90zM312 62h31v11h-31z" opacity=".7"/><path fill="#EC407A" d="M343 62h59v11h-59z" opacity=".7"/><path fill="#26C6DA" d="M312 50h31v11h-31z" opacity=".7"/><path fill="#EC407A" d="M343 50h8v11h-8z" opacity=".7"/><path fill="#26C6DA" d="M455 407h27v11h-27zM455 394h27v12h-27zM455 381h41v12h-41z"/><path fill="#EC407A" d="M496 381h7v12h-7z"/><path fill="#26C6DA" d="M455 368h72v12h-72z"/><path fill="#EC407A" d="M527 368h51v12h-51z"/><path fill="#26C6DA" d="M455 355h72v12h-72z"/><path fill="#EC407A" d="M527 355h68v12h-68z"/><path fill="#26C6DA" d="M455 343h72v11h-72z"/><path fill="#EC407A" d="M527 343h68v11h-68z"/><path fill="#26C6DA" d="M455 330h58v12h-58z"/><path fill="#EC407A" d="M513 330h61v12h-61z"/><path fill="#26C6DA" d="M455 317h55v12h-55z"/><path fill="#EC407A" d="M510 317h61v12h-61z"/><path fill="#26C6DA" d="M455 304h48v12h-48z"/><path fill="#EC407A" d="M503 304h61v12h-61z"/><path fill="#26C6DA" d="M455 291h48v12h-48z"/><path fill="#EC407A" d="M503 291h68v12h-68zM455 240h41v12h-41zM455 227h24v12h-24zM455 266h75v12h-75zM455 253h58v12h-58z"/><path fill="#EC407A" d="M455 215h24v11h-24zM455 202h24v12h-24zM455 189h20v12h-20zM455 176h20v12h-20zM455 163h24v12h-24zM455 151h20v11h-20zM455 138h24v12h-24zM455 125h34v12h-34zM455 112h31v12h-31zM455 99h24v12h-24zM455 87h20v11h-20zM455 61h20v12h-20zM455 74h24v12h-24z" opacity=".25"/><path fill="#26C6DA" d="M455 279h44v11h-44z"/><path fill="#EC407A" d="M499 279h89v11h-89z"/><path fill="#DBDBDB" d="M455 360h140v2H455zM312 91h142v2H312zM15 157h149v2H15zM164 173h148v1H164z"/><defs><linearGradient id="bq4vorzq5" x1="597" x2="455" y1="239.5" y2="239.5" gradientUnits="userSpaceOnUse"><stop stop-color="#26C6DA" stop-opacity="0"/><stop offset=".54" stop-color="#09FFFF"/></linearGradient><linearGradient id="dq4vorzq5" x1="454" x2="312" y1="187.5" y2="187.5" gradientUnits="userSpaceOnUse"><stop stop-color="#26C6DA" stop-opacity="0"/><stop offset=".54" stop-color="#09FFFF"/></linearGradient><linearGradient id="fq4vorzq5" x1="164" x2="15" y1="212.5" y2="212.5" gradientUnits="userSpaceOnUse"><stop stop-color="#26C6DA" stop-opacity="0"/><stop offset=".54" stop-color="#09FFFF"/></linearGradient><linearGradient id="hq4vorzq5" x1="312" x2="164" y1="139.5" y2="139.5" gradientUnits="userSpaceOnUse"><stop stop-color="#26C6DA" stop-opacity="0"/><stop offset=".54" stop-color="#09FFFF"/></linearGradient><filter id="aq4vorzq5" width="214" height="429" x="419" y="25" color-interpolation-filters="sRGB" filterUnits="userSpaceOnUse"><feFlood result="BackgroundImageFix"/><feColorMatrix in="SourceAlpha" result="hardAlpha"/><feGaussianBlur stdDeviation="18"/><feColorMatrix values="0 0 0 0 0.14902 0 0 0 0 0.776471 0 0 0 0 0.854902 0 0 0 1 0"/><feBlend in="SourceGraphic"/></filter><filter id="cq4vorzq5" width="214" height="347" x="276" y="14" color-interpolation-filters="sRGB" filterUnits="userSpaceOnUse"><feFlood flood-opacity="0" result="BackgroundImageFix"/><feColorMatrix in="SourceAlpha" result="hardAlpha"/><feGaussianBlur stdDeviation="18"/><feColorMatrix values="0 0 0 0 0.14902 0 0 0 0 0.776471 0 0 0 0 0.854902 0 0 0 1 0"/><feBlend in="SourceGraphic"/></filter><filter id="eq4vorzq5" width="221" height="277" x="-21" y="74" color-interpolation-filters="sRGB" filterUnits="userSpaceOnUse"><feFlood result="BackgroundImageFix"/><feColorMatrix in="SourceAlpha" result="hardAlpha"/><feGaussianBlur stdDeviation="18"/><feColorMatrix values="0 0 0 0 0.14902 0 0 0 0 0.776471 0 0 0 0 0.854902 0 0 0 1 0"/><feBlend in="SourceGraphic"/></filter><filter id="gq4vorzq5" width="220" height="167" x="128" y="56" color-interpolation-filters="sRGB" filterUnits="userSpaceOnUse"><feFlood flood-opacity="0" result="BackgroundImageFix"/><feColorMatrix in="SourceAlpha" result="hardAlpha"/><feGaussianBlur stdDeviation="18"/><feColorMatrix values="0 0 0 0 0.14902 0 0 0 0 0.776471 0 0 0 0 0.854902 0 0 0 1 0"/><feBlend in="SourceGraphic"/></filter></defs></svg>