<svg xmlns="http://www.w3.org/2000/svg" width="124" height="30" fill="none"><g clip-path="url(#aepyzm32i)"><path stroke="url(#bepyzm32i)" stroke-width="4" d="M-17.93 4.5C45.61 5.2 107.16-3.36 130-7.73V19.1C88.02 31.93 13.9 33.92-17.93 33.3z" opacity=".2"/><path stroke="url(#cepyzm32i)" stroke-width="3" d="M-17.93 4.5C45.61 5.2 107.16-3.36 130-7.73V19.1C88.02 31.93 13.9 33.92-17.93 33.3z" opacity=".2"/><path stroke="url(#depyzm32i)" stroke-width="2" d="M-17.93 4.5C45.61 5.2 107.16-3.36 130-7.73V19.1C88.02 31.93 13.9 33.92-17.93 33.3z" opacity=".2"/><path stroke="url(#eepyzm32i)" d="M-17.93 4.5C45.61 5.2 107.16-3.36 130-7.73V19.1C88.02 31.93 13.9 33.92-17.93 33.3z" opacity=".2"/><path stroke="url(#fepyzm32i)" stroke-width="4" d="M-56.3 22.98c63.53.7 125.08-7.86 147.91-12.22v16.03C49.64 39.62-24.49 41.61-56.3 41.01z" opacity=".2"/><path stroke="url(#gepyzm32i)" stroke-width="3" d="M-56.3 22.98c63.53.7 125.08-7.86 147.91-12.22v16.03C49.64 39.62-24.49 41.61-56.3 41.01z" opacity=".2"/><path stroke="url(#hepyzm32i)" stroke-width="2" d="M-56.3 22.98c63.53.7 125.08-7.86 147.91-12.22v16.03C49.64 39.62-24.49 41.61-56.3 41.01z" opacity=".2"/><path stroke="url(#iepyzm32i)" d="M-56.3 22.98c63.53.7 125.08-7.86 147.91-12.22v16.03C49.64 39.62-24.49 41.61-56.3 41.01z" opacity=".2"/></g><defs><linearGradient id="bepyzm32i" x1="121.79" x2="2.44" y1="12.84" y2="12.84" gradientUnits="userSpaceOnUse"><stop stop-color="#FF88F3"/><stop offset="1" stop-color="red" stop-opacity="0"/></linearGradient><linearGradient id="cepyzm32i" x1="121.79" x2="2.44" y1="12.84" y2="12.84" gradientUnits="userSpaceOnUse"><stop stop-color="#FF88F3"/><stop offset="1" stop-color="red" stop-opacity="0"/></linearGradient><linearGradient id="depyzm32i" x1="121.79" x2="2.44" y1="12.84" y2="12.84" gradientUnits="userSpaceOnUse"><stop stop-color="#FF88F3"/><stop offset="1" stop-color="red" stop-opacity="0"/></linearGradient><linearGradient id="eepyzm32i" x1="121.79" x2="2.44" y1="12.84" y2="12.84" gradientUnits="userSpaceOnUse"><stop stop-color="#FF88F3"/><stop offset="1" stop-color="red" stop-opacity="0"/></linearGradient><linearGradient id="fepyzm32i" x1="82.74" x2="-35.72" y1="25.93" y2="25.93" gradientUnits="userSpaceOnUse"><stop stop-color="red" stop-opacity="0"/><stop offset="1" stop-color="#FF88F3"/></linearGradient><linearGradient id="gepyzm32i" x1="82.74" x2="-35.72" y1="25.93" y2="25.93" gradientUnits="userSpaceOnUse"><stop stop-color="red" stop-opacity="0"/><stop offset="1" stop-color="#FF88F3"/></linearGradient><linearGradient id="hepyzm32i" x1="82.74" x2="-35.72" y1="25.93" y2="25.93" gradientUnits="userSpaceOnUse"><stop stop-color="red" stop-opacity="0"/><stop offset="1" stop-color="#FF88F3"/></linearGradient><linearGradient id="iepyzm32i" x1="82.74" x2="-35.72" y1="25.93" y2="25.93" gradientUnits="userSpaceOnUse"><stop stop-color="red" stop-opacity="0"/><stop offset="1" stop-color="#FF88F3"/></linearGradient></defs></svg>