<svg xmlns="http://www.w3.org/2000/svg" width="768" height="300" fill="none" viewBox="0 0 768 300"><path stroke="url(#aigkc20gy)" stroke-width="1.58" d="M-223.1 827c0-99.02 15.7-197.06 46.2-288.54s75.22-174.6 131.58-244.62C11.05 223.83 77.96 168.3 151.61 130.4 225.25 92.5 304.18 73 383.89 73s158.65 19.5 232.3 57.4c73.64 37.89 140.55 93.43 196.92 163.44 56.36 70.02 101.07 153.14 131.58 244.62 30.5 91.48 46.2 189.52 46.2 288.54" opacity=".4"/><path fill="url(#bigkc20gy)" d="M-380.71 236.84h1515.79V300H-380.71z"/><path fill="#000" d="m57.5 112.21 111.53-59.3 59.3 111.53-111.53 59.3z"/><path fill="#fff" d="M167.8 79.25c3.72-2.38 7.9-4.01 10.1-4.46l1.88-.4-.69 1.8c-4.47 11.68-5.06 19.76-4 29.54 3.9 5.06 11.38 16.14 13.78 26.16l.13.54-.37.41c-2.23 2.45-5.41 5.96-7.1 7.8-2.25 3.2-6.9 9.4-10.37 12.95-.75.76-1.46 1.43-2.1 1.92-3.33 2.55-8.59 4.93-11 5.89a14 14 0 0 1-3.6 2.97l-.01.01-.03.01c-.79.4-1.63.16-2.26-.15a7 7 0 0 1-.97-.6l-.58.73-1.18 1.4q-.06.06-.18.15-.03.04-.17.12l-5.75 3.06-10.95 15.23-.14.2-17.6 9.37-4.14-7.79q-1.33.07-2.73-.5a16 16 0 0 1-4.92-3.36c-3.41-3.2-7.16-8.3-10.7-14.95s-5.95-13.13-6.98-18.26c-.51-2.56-.7-4.84-.46-6.67.14-1.08.45-2.1.99-2.9l-4.67-8.78 15.75-8.37.21-.01 23.82-2.04 2.97-1.58.04-.02.12-.07.17-.07.08-.03.14-.04.37-.09a38 38 0 0 1 2.27-.44h.05q0-.66.13-1.2c.13-.58.43-1.21 1.05-1.57.9-.61 2.75-1.6 5.78-2.14A55 55 0 0 1 144 108.4q1.3-.45 2.63-.79c5.3-1.35 14.3-1.88 18.17-1.98 1.09-.19 2.48-.24 3.94-.31l1.67-.1a25 25 0 0 1-6.94-6.2c-2.14-2.83-3.72-6.36-3.35-10.15a10 10 0 0 1 2.61-5.42c1.39-1.6 3.19-3 5.06-4.2m-52.3 111.8 15.32-8.14 8.31-11.58-26.59 14.14zm31.58-35.08a39 39 0 0 0 4.36 5.13 8 8 0 0 0 1.66 1.25c.25.13.37.14.41.14.69-.33 1.84-1.23 3.15-2.68.96-1.07 2.47-2.55 4-4.4a23 23 0 0 0 2.76-4.1l-1.4.4c-2.28.67-4.9 1.51-6.8 2.17-.95.44-2.18.83-3.38.8a4 4 0 0 1-2.46-.87zm18.91-5.3a22 22 0 0 1-3.7 6.08l-.62.72a39 39 0 0 0 6.1-3.63q.54-.41 1.21-1.05a18 18 0 0 0-1.16-1.22 8 8 0 0 0-.94-.77c-.31-.2-.43-.21-.39-.2q.01-.01-.4.05zm-70.8 17.8c3.1 5.45 6.27 9.6 9.1 12.24a14 14 0 0 0 4.26 2.95c1.21.48 2.1.44 2.71.1l34.79-18.49q-.67-.55-1.4-1.3a54 54 0 0 1-4.8-6.13l-1.14.6a2.1 2.1 0 0 1-2.85-.87l-2.47-4.64a2.1 2.1 0 0 1 .87-2.85l.51-.27q-.53-.9-1.04-1.83zm46.77-11.27a49 49 0 0 0 4.22 5.32q1.03 1.08 1.66 1.45l.25.13.07-.07.82-.99.63-.79a44 44 0 0 1-4.31-5.15q-.38.1-.77.1zm4.21-47.27q.34.43.63.95c.44.8.7 1.72.77 2.52.04.5-.16.99-.34 1.33q-.31.58-.8 1.18c-.66.81-1.56 1.75-2.57 2.71a76 76 0 0 1-6.68 5.57c-.18.14-.44.42-.64.72-.2.33-.2.5-.2.53l.07.17.2.5.74 1.67c.63 1.37 1.49 3.2 2.5 5.26 1.84 3.79 4.18 8.34 6.42 12.24l.43-.28a4.16 4.16 0 0 1 5.12 6.52l-.87.82a2 2 0 0 0 .95.23c.68.02 1.46-.18 2.18-.48l.3-.14.05-.02.06-.02a160 160 0 0 1 10.06-3.07q.66-.16 1.14-.26.47-.09.88-.1a3 3 0 0 1 1.47.56q.62.43 1.22 1 .64.62 1.2 1.23c3.25-3.53 7.33-8.98 9.4-11.9l.04-.05.04-.04 6.75-7.43c-2.43-9.4-9.43-19.85-13.23-24.78-1.67.2-3.24.29-4.6.35-1.58.07-2.83.13-3.76.3h-.08l-.08.01c-3.83.1-12.69.62-17.78 1.92zm20.66 24.26a8.6 8.6 0 0 1 4-1.75c1.28-.16 2.67.1 3.5 1.19.83 1.1.7 2.5.2 3.69a8.6 8.6 0 0 1-2.75 3.39 8.6 8.6 0 0 1-4 1.74c-1.28.17-2.68-.09-3.5-1.18-.84-1.1-.7-2.5-.21-3.7a8.6 8.6 0 0 1 2.76-3.38m-29.11 22.4 2.8-1.5h4.01q.4 0 .72-.28l5.13-4.83a2.06 2.06 0 0 0-2.53-3.22l-5 3.25q-.72.46-1.58.5l-3.66.17-2.36 1.26zm33.38-22.06c-.88.11-1.96.55-3 1.34a6.5 6.5 0 0 0-2.09 2.53c-.35.84-.24 1.35-.06 1.6.19.24.65.48 1.56.37a6.5 6.5 0 0 0 3-1.34 6.5 6.5 0 0 0 2.09-2.53c.35-.84.24-1.36.06-1.6-.19-.24-.65-.49-1.56-.37m-36.58-19.47c-2.87.48-4.5 1.4-5.17 1.86l-.04.03h-.02a1 1 0 0 0-.1.25q-.1.45-.03 1.45c.12 1.33.56 3.2 1.3 5.5 1.48 4.57 4.12 10.64 7.59 17.17q1.92 3.61 3.85 6.8l2.6-1.69c-2.3-3.99-4.67-8.63-6.55-12.46a227 227 0 0 1-3.27-7.04c-.17-.4-.32-.77-.38-.98-.21-.87.15-1.67.46-2.17.34-.53.78-.97 1.1-1.23l.01-.02.03-.01a73 73 0 0 0 6.5-5.43q1.41-1.32 2.27-2.36a51 51 0 0 0-10.15.33m-9.55 5.5q-.08.41.03 1.37a29 29 0 0 0 1.37 5.27 120 120 0 0 0 7.41 16.5q1.42 2.68 2.85 5.12l.41-.22.24-.01 2.38-.1a151 151 0 0 1-3.47-6.18c-3.5-6.6-6.2-12.8-7.73-17.52q-.87-2.71-1.24-4.77a26 26 0 0 0-2.05.4l-.17.04zm-32.7 42.3a88 88 0 0 0 1.74 3.45l.17.31 38.53-20.48a149 149 0 0 1-1.97-3.73zm-4.23-22.78c-.54.29-1.04 1.03-1.24 2.56-.2 1.5-.05 3.54.44 5.98a60 60 0 0 0 4.15 12.33l38.4-20.42a110 110 0 0 1-5.41-12.65 31 31 0 0 1-1.47-5.69l-.06-.62zm65.74-23.45a8.5 8.5 0 0 1 3.55-2.56c1.5-.6 3.03-.8 4.34-.6 1.28.19 2.55.82 3.06 2.1s.04 2.61-.75 3.64a8.5 8.5 0 0 1-3.56 2.56c-1.5.6-3.03.8-4.34.6-1.28-.19-2.55-.82-3.07-2.1-.5-1.28-.03-2.61.77-3.64m4.34-.6a6.4 6.4 0 0 0-2.68 1.89c-.56.72-.6 1.26-.47 1.57.12.3.52.67 1.42.8.88.14 2.04 0 3.24-.48a6.4 6.4 0 0 0 2.68-1.89c.56-.72.6-1.26.47-1.57-.12-.3-.52-.67-1.42-.8-.88-.14-2.04 0-3.25.48M176.4 77.4c-2.06.7-4.87 1.96-7.47 3.62a22 22 0 0 0-4.6 3.81c-1.22 1.4-1.96 2.82-2.1 4.24-.3 3.08.97 6.1 2.93 8.69a22 22 0 0 0 7.65 6.38c-.77-8.75-.1-16.45 3.6-26.74m-37.03 35.15c1.84-.05 3.86-.02 5.9.1a4 4 0 0 0-.31-.75 8 8 0 0 0-.94-1.28 52 52 0 0 0-4.65 1.93m-52.03 25.52 28.74-15.28-18.7 1.6-13.5 7.18z"/><g clip-path="url(#cigkc20gy)"><path fill="#fff" d="M309.89 184.32c5.1 1.46 7.84 6.65 5.39 11.74a18 18 0 0 1-2.43 3.74l4.6 9.03.06.11.02.13 1.5 10.15.7 3.01a3.26 3.26 0 0 1-6.3 1.69 2.1 2.1 0 0 1-2.6-2.75l.94-2.4-.9-6.33-2.56-2.94-.23.22q-.24.31-.52.81c-.9 1.56-1.86 3.1-2.17 3.75l-.04.12-.1.34-.29 1.07a175 175 0 0 0-1.36 5.82l-.21.92v.03l.07.12a94 94 0 0 1 4.97 8.73c.61 1.31 1.11 2.6 1.23 3.56a6 6 0 0 1-.93 3.84 15 15 0 0 1-2.71 3.25c-1.06 1-2.23 1.92-3.3 2.75q-1.41 1.08-2.45 1.9l.31 1.84a3.97 3.97 0 1 1-7.83 1.24l-.66-4.64c-.1-.68.1-1.38.57-1.9a473 473 0 0 1 7.3-7.81l-.15-.35a11 11 0 0 0-1.2-1.74 22 22 0 0 0-3.09-3.09 45 45 0 0 1-.63 3.28c-.4 1.7-.96 3.5-1.76 4.6-1.48 2.03-3.94 3.35-6.25 4.29-1.18.47-2.34.85-3.36 1.18q-1.18.37-2.02.65l-.02 2.17a3.85 3.85 0 0 1-7.7.06l-.13-4.92a3.6 3.6 0 0 1 1.77-3.27c1.76-1.02 4.04-2.08 5.83-2.97.91-.45 1.69-.85 2.23-1.18a5 5 0 0 0 .59-.4 519.95 519.95 0 0 0 .21-8.02c.04-2.63.63-5.23 1.78-7.6l.35-.74 3.3-8.72.21-3.6.8.05.78.04-.21 3.72-.01.12-.04.12-3.37 8.86v.04l-.4.8a17 17 0 0 0-1.61 6.93l-.1 4.29c.18.34.33.37.37.38.1.01.3-.02.6-.27a3.1 3.1 0 0 0 1.01-2.53c-.3-2.73.74-5.56 1.53-8.1a198 198 0 0 1 4.15-10.51c.46-1.12.4-2.38-.18-3.43l-.19-.35-3.55-.19c-3.32-.17-6.6.86-9.22 2.9l-1.26.98a1.5 1.5 0 0 0-.59 1.17l-.07 3.54a1.81 1.81 0 0 1-2.8 1.48 1 1 0 0 1-.24-.23l-.21-.3-.04.05a3.9 3.9 0 0 1-4.12 1.97 3.3 3.3 0 0 1-2.39-4.69l2.09-4.32a9 9 0 0 1 2.04-2.68l5.38-4.72a17 17 0 0 1 5.65-3.25l9.72-3.26.1-.04h.11l6.44-.35q.04-1.58.38-3.25c1.05-5.23 5.4-6.71 9.06-5.83zm-26.37 51.64q-.71.4-1.57.8c-1.84.92-4.04 1.95-5.74 2.93-.63.36-1 1.07-.98 1.86l.13 4.92a2.27 2.27 0 0 0 4.54-.04l.02-2.72v-.54l.51-.19c.68-.26 1.62-.54 2.61-.86a45 45 0 0 0 4.06-1.48 7 7 0 0 1-3.59-4.68m21.1 5.26a6.47 6.47 0 0 1-4.96-3.16 420 420 0 0 0-5.82 6.26.8.8 0 0 0-.19.63l.67 4.64a2.39 2.39 0 1 0 4.7-.75l-.39-2.28-.08-.45.35-.29c.77-.66 1.8-1.43 2.86-2.24a46 46 0 0 0 2.87-2.36m7.09-40.18q-1.46 1.44-2.97 2.27l-.2.43-.83 1.45a31 31 0 0 1-1.43 2.24l-.36.48-.56-.23c-.89-.36-2.55-.98-4.05-1.53l-1.97-.72c-.5-.19-.92-.34-1.04-.4l-.64-.31.23-.66c.4-1.12.38-3.01.1-4.92-.13-.93-.32-1.83-.53-2.58a8 8 0 0 0-.56-1.5l-3.06.17-2.77.93.23.39c.39.68.8 1.6.82 2.4l.02.76-.75.05c-1.4.1-4 .8-5.15 1.16l-.7.22-.27-.69c-.1-.3-.31-.77-.55-1.22q-.28-.52-.48-.78h-.02a15 15 0 0 0-5.1 2.95l-5.39 4.72a7 7 0 0 0-1.66 2.18l-2.09 4.32a1.72 1.72 0 0 0 1.25 2.44c.99.17 1.98-.3 2.46-1.17l.64-1.16.62-1.1.72 1.03.83 1.18c.14.02.27-.07.28-.22l.07-3.54a3.1 3.1 0 0 1 1.2-2.38l1.26-.99a15.4 15.4 0 0 1 10.27-3.22l4 .2.44.03.2.38.4.74c.82 1.48.9 3.24.25 4.8-1.5 3.62-3.57 8.69-4.1 10.37-.84 2.7-1.72 5.14-1.46 7.45a4.7 4.7 0 0 1-1.56 3.92c-.49.4-1.15.73-1.86.62l-.18-.04-.08 2.1c-.02.26-.13.46-.22.57a2 2 0 0 1-.47.46 5.5 5.5 0 0 0 4.04 4.6 9 9 0 0 0 2.88-2.46c.59-.81 1.1-2.33 1.5-4.03.39-1.66.65-3.36.8-4.44.27-2.03.3-2.41.17-3.4l.78-.1.78-.11c.15 1.12.11 1.68-.1 3.34a23 23 0 0 1 4.04 3.88c.58.72 1.07 1.42 1.38 2q.24.45.33.89c.05.25.1.73-.27 1.1q-.11.13-.43.46.1.31.37.73c.3.45.74.9 1.29 1.27a4.4 4.4 0 0 0 3.84.65q.6-.72 1.03-1.44.87-1.45.72-2.85c-.09-.69-.48-1.77-1.09-3.08-.6-1.29-1.37-2.7-2.13-4.04a109 109 0 0 0-2.74-4.51l-.18-.29-.05-.07-.01-.02v-.01l-.19-.28.07-.32v-.03l.02-.06.06-.26.2-.93a394 394 0 0 1 1.38-5.86l.3-1.12c.07-.27.16-.55.24-.71.34-.72 1.38-2.4 2.22-3.85q.3-.55.7-1.06l.02-.02q.19-.22.42-.4c1.5-1.57 1.83-2.77 2.06-3.52l1.5.46c-.2.7-.51 1.77-1.53 3.1l2.85 3.28.15.17.04.24.96 6.77.03.2-.07.2-1.01 2.58c-.16.4.23.82.64.68l.1-.04.26-.3 1-1.18.37 1.5.25.99a1.68 1.68 0 0 0 3.27-.8l-.72-3.04v-.03l-.01-.03-1.48-10.06zm-25.92-3.11a8 8 0 0 1 .67 1.28c1.07-.3 2.65-.71 3.92-.91a6 6 0 0 0-.87-1.62zm12.8-2.96q.21.54.39 1.16c.23.82.44 1.79.58 2.79.24 1.64.32 3.48.02 4.91l.3.12 1.98.72c1.2.44 2.55.94 3.5 1.31.26-.4.63-.97 1-1.59l.16-.3q-1.02.15-1.84-.24l-.31-.17c-2.36-1.35-4.01-4.7-4.26-8.79zm15.55-.27c1.47-3.9-.67-7.71-4.69-8.86a6.3 6.3 0 0 0-4.55.33 5.5 5.5 0 0 0-2.8 3.79l-.09.41-.1.55c-.47 2.72-.26 5.27.4 7.3a9 9 0 0 0 1.71 3.16c-.49-2.78-.24-5.32.4-8.24l.2-.98.9.44a23 23 0 0 0 6 1.92q1.32.22 2.13.2.3 0 .5-.02m-.77 1.6q-.92-.03-2.1-.22c-1.6-.28-3.56-.8-5.51-1.64-.54 2.82-.61 5.22.09 7.93l-.39.1c.29.1.71.13 1.34-.04q.35-.1.72-.27l.01-.04h.05a9 9 0 0 0 1.63-.99 16 16 0 0 0 4.16-4.83"/></g><path stroke="#fff" stroke-width="1.58" d="M286.05 226c-30 8.69-51.08-38.84-58.02-60s-34.22-35-41.45-34.34"/><defs><linearGradient id="aigkc20gy" x1="990.89" x2="-234.05" y1="73" y2="73" gradientUnits="userSpaceOnUse"><stop stop-color="#151515"/><stop offset=".27" stop-color="#565656"/><stop offset=".49" stop-color="#F1F1F1"/><stop offset=".73" stop-color="#A1A1A1"/><stop offset="1"/></linearGradient><linearGradient id="bigkc20gy" x1="415.89" x2="415.89" y1="300" y2="236.84" gradientUnits="userSpaceOnUse"><stop/><stop offset="1" stop-opacity="0"/></linearGradient><clipPath id="cigkc20gy"><path d="m295.23 164.42 53.59 53.6-53.6 53.59-53.59-53.6z"/></clipPath></defs></svg>