<svg xmlns="http://www.w3.org/2000/svg" width="320" height="220" fill="none" viewBox="0 0 320 220"><path stroke="url(#azpn33x5p)" stroke-width="1.58" d="M-447.1 827c0-99.02 15.7-197.06 46.2-288.54s75.22-174.6 131.58-244.62c56.37-70.01 123.28-125.55 196.93-163.44C1.25 92.5 80.18 73 159.9 73c79.7 0 158.64 19.5 232.28 57.4s140.56 93.43 196.93 163.44c56.36 70.02 101.07 153.14 131.58 244.62 30.5 91.48 46.2 189.52 46.2 288.54" opacity=".4"/><g clip-path="url(#bzpn33x5p)"><path fill="#000" d="m18.42 30.74 117.8-22.9 22.9 117.8-117.8 22.9z"/><path fill="#fff" d="M127.8 31.43c4.04-1.13 8.29-1.45 10.4-1.25l1.83.16-1.13 1.45c-7.3 9.37-10.09 16.54-11.85 25.72 2.15 5.68 5.86 17.82 5.26 27.6l-.03.52-.46.27-8.6 5.12c-2.94 2.27-8.9 6.62-13.02 8.88-.9.48-1.73.9-2.45 1.16-3.72 1.39-9.17 2.09-11.63 2.3a13 13 0 0 1-4.1 1.7h-.03c-.83.14-1.53-.3-2.01-.77a6 6 0 0 1-.71-.81l-.74.5-1.46.94-.2.1-.2.05-6.07 1.19-14.17 10.8-.19.14-18.6 3.61-1.59-8.22q-1.23-.3-2.34-1.2a16 16 0 0 1-3.54-4.43c-2.21-3.85-4.2-9.52-5.56-16.55-1.37-7.02-1.76-13.59-1.27-18.53.25-2.47.72-4.6 1.43-6.18.43-.95.99-1.8 1.7-2.37l-1.8-9.27 16.63-3.23.2.05 22.2 4.77 3.14-.61.04-.02.13-.03.18-.02h.08l.5.03a36 36 0 0 1 2.18.23H80q.18-.58.45-1.05c.28-.49.73-.98 1.39-1.13.99-.3 2.94-.7 5.84-.33a52 52 0 0 1 10.4-1.42q1.3-.04 2.6.02c5.2.24 13.52 2.26 17.07 3.24 1.04.13 2.31.47 3.67.81l1.53.39a23 23 0 0 1-4.57-7.56c-1.16-3.17-1.62-6.82-.23-10.16a9.4 9.4 0 0 1 3.88-4.2 23 23 0 0 1 5.76-2.41m-78.57 87.04 16.17-3.14 10.77-8.21-28.08 5.46zm38.43-23.1a37 37 0 0 0 2.54 5.87q.67 1.16 1.15 1.6c.2.18.3.23.34.24.71-.1 2-.6 3.6-1.56 1.18-.7 2.96-1.63 4.85-2.89 1.32-.87 2.6-1.86 3.65-2.95l-1.37-.02c-2.26-.03-4.88 0-6.8.08-.97.13-2.2.14-3.27-.22a3.8 3.8 0 0 1-2-1.47zm18.65.44a21 21 0 0 1-5.06 4.49l-.75.48c2.2-.36 4.65-.88 6.55-1.6q.6-.21 1.39-.62c-.2-.45-.45-.96-.72-1.42a7 7 0 0 0-.64-.97c-.23-.27-.33-.3-.3-.3l-.38-.05zm-69.26-3.5c1.3 5.82 3.02 10.47 4.86 13.65a14 14 0 0 0 3.05 3.87c.97.77 1.78.97 2.44.85l36.74-7.15q-.46-.67-.9-1.56a51 51 0 0 1-2.68-6.9l-1.2.22a2 2 0 0 1-2.34-1.58l-.96-4.9a2 2 0 0 1 1.58-2.35l.55-.1-.45-1.96zm45.61 2.76a46 46 0 0 0 2.36 6q.64 1.26 1.1 1.78.12.13.2.19l.08-.05 1.02-.67.79-.54a42 42 0 0 1-2.48-5.88 3 3 0 0 1-.73-.12zm16.96-41.78q.19.49.3 1.04c.18.85.16 1.75 0 2.5-.1.48-.41.86-.67 1.12q-.45.42-1.06.85c-.82.55-1.9 1.15-3.09 1.75a72 72 0 0 1-7.61 3.2c-.2.08-.52.25-.78.47-.28.25-.32.4-.32.43v.17l.05.52.21 1.72a208.29 208.29 0 0 0 3.24 18.38l.47-.14a3.95 3.95 0 0 1 2.84 7.34l-1.02.5q.3.31.8.48c.61.2 1.38.24 2.12.17l.3-.04h.06l.05-.01a152 152 0 0 1 10 0q.64.04 1.11.1c.28.02.59.07.82.15.5.17.9.58 1.18.9q.45.57.83 1.25.42.74.75 1.46c3.94-2.3 9.16-6.12 11.85-8.2l.04-.04.06-.03 8.19-4.87c.41-9.22-3.05-20.65-5.14-26.18a58 58 0 0 1-4.28-.97c-1.45-.37-2.6-.67-3.49-.77l-.07-.01-.08-.02c-3.5-.98-11.7-2.96-16.69-3.2zm12.03 27.78a8 8 0 0 1 4.12-.48c1.2.21 2.4.83 2.85 2.05.45 1.23-.06 2.47-.84 3.41a8 8 0 0 1-3.45 2.31 8 8 0 0 1-4.12.48c-1.2-.2-2.4-.83-2.85-2.05-.45-1.23.06-2.47.84-3.4a8 8 0 0 1 3.45-2.32M78.98 93.33l2.97-.58.23.08 3.4 1.04a1 1 0 0 0 .74-.06l6-2.96a1.95 1.95 0 0 0-1.4-3.63l-5.45 1.56a3 3 0 0 1-1.58.03l-3.36-.87-2.5.48zm36.45-10.77a6 6 0 0 0-3.09.39 6 6 0 0 0-2.6 1.71c-.56.67-.6 1.17-.5 1.44s.45.62 1.3.77c.84.14 1.94.05 3.1-.38a6 6 0 0 0 2.6-1.72c.56-.67.6-1.16.5-1.44-.1-.27-.45-.62-1.3-.77M87.61 54.72c-2.74-.36-4.47.02-5.21.25l-.05.01h-.02a1 1 0 0 0-.15.2q-.23.38-.43 1.3a26 26 0 0 0-.35 5.36c.07 4.57.78 10.82 2.12 17.71q.75 3.82 1.6 7.25l2.84-.81a209 209 0 0 1-3.5-20.44c-.05-.41-.08-.8-.07-1 .04-.85.59-1.47 1.02-1.84.45-.4.97-.67 1.33-.82h.02l.03-.02a70 70 0 0 0 7.42-3.11 26 26 0 0 0 2.7-1.52 49 49 0 0 0-9.3-2.52m-10.2 2.35a5 5 0 0 0-.36 1.25c-.2 1.2-.29 2.95-.22 5.16.15 4.4.87 10.43 2.16 17.05q.54 2.83 1.16 5.44l.44-.08.22.05 2.19.57q-.77-3.15-1.44-6.58a109 109 0 0 1-2.16-18.06q-.05-2.7.2-4.67a24 24 0 0 0-1.97-.2l-.17-.02zM35.95 86.4q.27 1.79.62 3.62l.07.33 40.7-7.91a152 152 0 0 1-.76-3.93zm2.48-21.87c-.57.11-1.23.64-1.83 1.98-.6 1.31-1.03 3.2-1.27 5.55-.34 3.4-.24 7.66.35 12.36l40.56-7.88c-.82-4.98-1.3-9.47-1.4-13-.08-2.27 0-4.18.24-5.58q.04-.3.12-.58zm66.24-3.05a8 8 0 0 1 3.94-1.33 8 8 0 0 1 4.1.65c1.12.53 2.1 1.46 2.2 2.76.12 1.3-.69 2.39-1.7 3.1a8 8 0 0 1-3.93 1.33 8 8 0 0 1-4.12-.65c-1.1-.53-2.08-1.46-2.2-2.76-.1-1.3.7-2.39 1.7-3.1m4.1.66a6 6 0 0 0-2.95.97c-.7.5-.89.99-.86 1.3.02.3.29.75 1.07 1.13a6 6 0 0 0 3.08.46 6 6 0 0 0 2.95-.98c.7-.5.9-.98.86-1.29-.02-.31-.28-.75-1.07-1.13a6 6 0 0 0-3.07-.46m27.35-30.01c-2.07.07-4.97.43-7.8 1.21a21 21 0 0 0-5.23 2.18 7.4 7.4 0 0 0-3.1 3.28c-1.12 2.7-.8 5.8.27 8.7a21 21 0 0 0 5.17 7.93c1.73-8.17 4.48-14.98 10.69-23.3m-43.4 21.64c1.68.47 3.5 1.06 5.33 1.74q0-.4-.08-.77-.18-.77-.5-1.43c-1.66.08-3.3.25-4.76.46m-54.37 8.74 30.36-5.9-17.43-3.75-14.26 2.78z"/></g><g clip-path="url(#czpn33x5p)"><path fill="#fff" d="M253.89 133.32c5.1 1.46 7.84 6.65 5.39 11.74a18 18 0 0 1-2.43 3.74l4.6 9.03.06.11.02.13 1.5 10.15.7 3.01a3.26 3.26 0 0 1-6.3 1.69 2.1 2.1 0 0 1-2.6-2.75l.94-2.4-.9-6.33-2.56-2.94-.22.22q-.25.31-.53.81c-.9 1.56-1.86 3.1-2.17 3.75l-.04.12-.1.34-.29 1.07a175 175 0 0 0-1.36 5.82l-.21.92v.03l.07.12a94 94 0 0 1 4.97 8.73c.61 1.31 1.11 2.6 1.23 3.56a6 6 0 0 1-.93 3.84 15 15 0 0 1-2.71 3.25c-1.06 1-2.23 1.92-3.3 2.75q-1.41 1.08-2.45 1.9l.31 1.84a3.97 3.97 0 1 1-7.83 1.24l-.66-4.64c-.1-.68.1-1.38.57-1.9a473 473 0 0 1 7.3-7.81l-.15-.35a11 11 0 0 0-1.2-1.74 22 22 0 0 0-3.09-3.09 45 45 0 0 1-.63 3.28c-.4 1.7-.96 3.5-1.76 4.6-1.48 2.03-3.94 3.35-6.25 4.29-1.17.47-2.34.85-3.36 1.18q-1.18.37-2.02.65l-.03 2.17a3.85 3.85 0 0 1-7.7.06l-.12-4.92a3.6 3.6 0 0 1 1.77-3.27c1.76-1.02 4.04-2.08 5.83-2.97.91-.45 1.69-.85 2.23-1.18a5 5 0 0 0 .59-.4 519.95 519.95 0 0 0 .21-8.02c.04-2.63.63-5.23 1.78-7.6l.35-.74 3.3-8.72.21-3.6.8.05.78.04-.21 3.72-.01.12-.04.12-3.37 8.86v.04l-.4.8a17 17 0 0 0-1.61 6.93l-.1 4.29c.18.34.33.37.37.38.1.01.3-.02.6-.27a3.1 3.1 0 0 0 1.01-2.53c-.3-2.73.73-5.56 1.53-8.1a198 198 0 0 1 4.15-10.51c.46-1.12.4-2.38-.18-3.43l-.19-.35-3.55-.19c-3.32-.17-6.6.86-9.22 2.9l-1.26.98a1.5 1.5 0 0 0-.59 1.17l-.07 3.54a1.81 1.81 0 0 1-2.8 1.48 1 1 0 0 1-.24-.23l-.22-.3-.03.05a3.9 3.9 0 0 1-4.11 1.97 3.3 3.3 0 0 1-2.4-4.69l2.09-4.32a9 9 0 0 1 2.04-2.68l5.38-4.72a17 17 0 0 1 5.65-3.25l9.72-3.26.1-.04h.11l6.44-.35q.04-1.58.38-3.25c1.05-5.23 5.4-6.71 9.06-5.83zm-26.37 51.64q-.71.4-1.57.8c-1.84.92-4.04 1.95-5.74 2.93-.63.36-1 1.07-.98 1.86l.13 4.92a2.27 2.27 0 0 0 4.54-.04l.02-2.72v-.54l.51-.19c.68-.26 1.62-.54 2.61-.86a45 45 0 0 0 4.06-1.48 7 7 0 0 1-3.59-4.68m21.1 5.26a6.47 6.47 0 0 1-4.96-3.16 420 420 0 0 0-5.82 6.26.8.8 0 0 0-.19.63l.66 4.64a2.39 2.39 0 1 0 4.72-.75l-.4-2.28-.08-.45.35-.29c.77-.66 1.8-1.43 2.85-2.24a46 46 0 0 0 2.88-2.36m7.09-40.18q-1.46 1.44-2.97 2.27l-.2.43c-.25.45-.53.96-.83 1.45a31 31 0 0 1-1.43 2.24l-.36.48-.56-.23c-.89-.36-2.55-.98-4.05-1.53l-1.97-.72c-.5-.19-.92-.34-1.04-.4l-.64-.31.23-.66c.4-1.12.38-3.01.1-4.92-.13-.93-.32-1.83-.53-2.58a8 8 0 0 0-.56-1.5l-3.06.17-2.77.93.23.39c.39.68.8 1.6.82 2.4l.02.76-.75.05c-1.4.1-4 .8-5.15 1.16l-.7.22-.26-.69c-.12-.3-.32-.77-.56-1.22q-.28-.52-.48-.78h-.02a15 15 0 0 0-5.1 2.95l-5.39 4.72a7 7 0 0 0-1.66 2.18l-2.09 4.32a1.72 1.72 0 0 0 1.25 2.44c.99.17 1.98-.3 2.46-1.17l.65-1.16.6-1.1.73 1.03.83 1.18c.14.02.27-.07.28-.22l.07-3.54a3.1 3.1 0 0 1 1.2-2.38l1.26-.99a15.4 15.4 0 0 1 10.27-3.22l4 .2.43.03.22.38.4.74c.8 1.48.9 3.24.25 4.8-1.52 3.62-3.58 8.69-4.1 10.37-.85 2.7-1.73 5.14-1.47 7.45a4.7 4.7 0 0 1-1.56 3.92c-.49.4-1.15.73-1.86.62l-.18-.04-.08 2.1c-.02.26-.13.46-.22.57a2 2 0 0 1-.47.46 5.5 5.5 0 0 0 4.03 4.6 9 9 0 0 0 2.89-2.46c.59-.81 1.1-2.33 1.5-4.03.39-1.66.65-3.36.8-4.44.27-2.03.3-2.41.17-3.4l.78-.1.78-.11c.15 1.12.11 1.68-.1 3.34a23 23 0 0 1 4.04 3.88c.58.72 1.07 1.42 1.38 2q.24.45.33.89c.05.25.1.73-.27 1.1l-.43.46q.1.31.37.73c.3.45.74.9 1.29 1.27a4.4 4.4 0 0 0 3.84.65q.6-.72 1.03-1.44.87-1.45.72-2.85c-.09-.69-.48-1.77-1.09-3.08-.6-1.29-1.37-2.7-2.13-4.04a109 109 0 0 0-2.74-4.51l-.18-.29-.05-.07-.01-.02v-.01l-.19-.28.07-.32v-.03l.02-.06.06-.26.2-.93a394 394 0 0 1 1.38-5.86l.3-1.12c.07-.27.16-.55.24-.71.34-.72 1.38-2.4 2.22-3.85q.3-.55.7-1.06l.02-.02q.19-.22.42-.4c1.5-1.57 1.83-2.77 2.06-3.52l1.5.46c-.2.7-.51 1.77-1.53 3.1l2.85 3.28.15.17.04.24.96 6.77.03.2-.07.2-1.01 2.58c-.16.4.23.82.64.68l.1-.04.26-.3 1-1.18.37 1.5.25.99a1.68 1.68 0 0 0 3.27-.8l-.72-3.04v-.03l-.01-.03-1.48-10.06zm-25.92-3.11a8 8 0 0 1 .68 1.28c1.06-.3 2.63-.71 3.9-.91a6 6 0 0 0-.86-1.62zm12.8-2.96q.21.54.39 1.16c.23.82.44 1.79.58 2.79.23 1.64.32 3.48.02 4.91l.3.12 1.98.72c1.2.44 2.55.94 3.5 1.31.26-.4.63-.97 1-1.59l.16-.3q-1.02.15-1.84-.24l-.31-.17c-2.36-1.35-4.01-4.7-4.26-8.79zm15.55-.27c1.47-3.9-.67-7.71-4.69-8.86a6.3 6.3 0 0 0-4.55.33 5.5 5.5 0 0 0-2.8 3.79l-.09.41-.1.55c-.47 2.72-.25 5.27.4 7.3a9 9 0 0 0 1.71 3.16c-.49-2.78-.24-5.32.4-8.24l.2-.98.9.44a23 23 0 0 0 6 1.92q1.32.22 2.13.2.3 0 .5-.02m-.77 1.6q-.92-.03-2.1-.22c-1.6-.28-3.56-.8-5.51-1.64-.54 2.82-.61 5.22.09 7.93l-.39.1c.29.1.71.13 1.34-.04q.35-.1.72-.27l.01-.04h.05a9 9 0 0 0 1.63-.99 16 16 0 0 0 4.16-4.83"/></g><path stroke="#fff" stroke-width="1.58" d="M230.05 175c-30 8.69-51.08-38.84-58.02-60s-34.22-35-41.45-34.34"/><defs><clipPath id="bzpn33x5p"><path d="m18.42 30.74 117.8-22.9 22.9 117.8-117.8 22.9z"/></clipPath><clipPath id="czpn33x5p"><path d="m239.23 113.42 53.59 53.6-53.6 53.59-53.59-53.6z"/></clipPath><linearGradient id="azpn33x5p" x1="766.89" x2="-458.05" y1="73" y2="73" gradientUnits="userSpaceOnUse"><stop offset=".27" stop-color="#565656"/><stop offset=".49" stop-color="#F1F1F1"/><stop offset=".73" stop-color="#A1A1A1"/></linearGradient></defs></svg>