<svg xmlns="http://www.w3.org/2000/svg" width="124" height="30" fill="none"><g clip-path="url(#aqme50gqw)"><path stroke="url(#bqme50gqw)" stroke-width="4" d="M3.39 32.23c67.78-3.32 136.2 3.61 161.94 7.5l-8.02-29.54C108.57-2.26 28.65-1.46-5.22.5z" opacity=".2"/><path stroke="url(#cqme50gqw)" stroke-width="3" d="M3.39 32.23c67.78-3.32 136.2 3.61 161.94 7.5l-8.02-29.54C108.57-2.26 28.65-1.46-5.22.5z" opacity=".2"/><path stroke="url(#dqme50gqw)" stroke-width="2" d="M3.39 32.23c67.78-3.32 136.2 3.61 161.94 7.5l-8.02-29.54C108.57-2.26 28.65-1.46-5.22.5z" opacity=".2"/><path stroke="url(#eqme50gqw)" d="M3.39 32.23c67.78-3.32 136.2 3.61 161.94 7.5l-8.02-29.54C108.57-2.26 28.65-1.46-5.22.5z" opacity=".2"/><path stroke="url(#fqme50gqw)" stroke-width="4" d="M-12.6 26.82c67.8-3.23 135.94 2.65 161.53 6l-4.26-15.7C96.36 6.27 16.5 7.32-17.39 9.2z" opacity=".2"/><path stroke="url(#gqme50gqw)" stroke-width="3" d="M-12.6 26.82c67.8-3.23 135.94 2.65 161.53 6l-4.26-15.7C96.36 6.27 16.5 7.32-17.39 9.2z" opacity=".2"/><path stroke="url(#hqme50gqw)" stroke-width="2" d="M-12.6 26.82c67.8-3.23 135.94 2.65 161.53 6l-4.26-15.7C96.36 6.27 16.5 7.32-17.39 9.2z" opacity=".2"/><path stroke="url(#iqme50gqw)" d="M-12.6 26.82c67.8-3.23 135.94 2.65 161.53 6l-4.26-15.7C96.36 6.27 16.5 7.32-17.39 9.2z" opacity=".2"/></g><defs><linearGradient id="bqme50gqw" x1="150.4" x2="30.23" y1="17.41" y2="50.02" gradientUnits="userSpaceOnUse"><stop stop-color="#9593FF"/><stop offset="1" stop-color="#FFA031" stop-opacity="0"/></linearGradient><linearGradient id="cqme50gqw" x1="150.4" x2="30.23" y1="17.41" y2="50.02" gradientUnits="userSpaceOnUse"><stop stop-color="#9593FF"/><stop offset="1" stop-color="#FFA031" stop-opacity="0"/></linearGradient><linearGradient id="dqme50gqw" x1="150.4" x2="30.23" y1="17.41" y2="50.02" gradientUnits="userSpaceOnUse"><stop stop-color="#9593FF"/><stop offset="1" stop-color="#FFA031" stop-opacity="0"/></linearGradient><linearGradient id="eqme50gqw" x1="150.4" x2="30.23" y1="17.41" y2="50.02" gradientUnits="userSpaceOnUse"><stop stop-color="#9593FF"/><stop offset="1" stop-color="#FFA031" stop-opacity="0"/></linearGradient><linearGradient id="fqme50gqw" x1="135.41" x2="16.13" y1="18.33" y2="50.7" gradientUnits="userSpaceOnUse"><stop stop-color="#FFA031" stop-opacity="0"/><stop offset="1" stop-color="#9593FF"/></linearGradient><linearGradient id="gqme50gqw" x1="135.41" x2="16.13" y1="18.33" y2="50.7" gradientUnits="userSpaceOnUse"><stop stop-color="#FFA031" stop-opacity="0"/><stop offset="1" stop-color="#9593FF"/></linearGradient><linearGradient id="hqme50gqw" x1="135.41" x2="16.13" y1="18.33" y2="50.7" gradientUnits="userSpaceOnUse"><stop stop-color="#FFA031" stop-opacity="0"/><stop offset="1" stop-color="#9593FF"/></linearGradient><linearGradient id="iqme50gqw" x1="135.41" x2="16.13" y1="18.33" y2="50.7" gradientUnits="userSpaceOnUse"><stop stop-color="#FFA031" stop-opacity="0"/><stop offset="1" stop-color="#9593FF"/></linearGradient></defs></svg>