<svg xmlns="http://www.w3.org/2000/svg" width="200" height="80" viewBox="0 0 200 80"><path fill="#FA5B35" d="M36.35 26c6.87 0 12.33 5.48 12.33 12.37 0 6.9-5.46 12.37-12.33 12.37a12.2 12.2 0 0 1-11.43-7.62C24.3 41.62 24 40 24 38.37 24 31.48 29.47 26 36.35 26m6.15 9.26v-2.05H30.18v2.05zm-2.04 8.27h2.04v-6.19H30.18v6.2h2.05V41.2c0-.67.16-1.04.4-1.3q.4-.5 1.14-.51.72.02 1.14.5c.24.27.4.64.4 1.31v2.34h2.07V41.2c0-.67.17-1.04.4-1.3q.4-.5 1.14-.51.72.02 1.14.5c.24.27.4.64.4 1.31z"/><path fill="#fff" d="M56.2 33.72c0 2.23 3.2 2.68 5.58 4.06a5 5 0 0 1 2.7 4.58c0 3.35-2.72 5.46-5.75 5.46a8.5 8.5 0 0 1-6.05-2.4l1.19-2.53h.1a6.5 6.5 0 0 0 4.54 1.92c1.3 0 2.71-.76 2.71-2.29 0-2.26-3.18-2.7-5.57-4.1a5 5 0 0 1-2.7-4.57c0-3.36 2.75-5.45 5.82-5.45 2.13 0 4.17.8 5.72 2.26l-1.2 2.53h-.1a6 6 0 0 0-4.15-1.78c-1.43 0-2.83.76-2.83 2.3m14.66 13.7h-2.12l-3.78-10.65h3.13l1.86 5.4h.1l2.63-7.53h2.12l2.76 7.62h.11l2.65-7.62h2.98l-4.54 12.78H76.7l-2.92-8.04h-.1zm16.9-15.04h-3.15v-3.05h3.15zm-.05 15.03h-3.05V34.65h3.05zm7.11.41a7 7 0 0 1-4.77-1.86l.85-2.29h.1a5.5 5.5 0 0 0 3.59 1.5c1.06 0 1.75-.44 1.75-1.23 0-.83-.87-1.16-1.96-1.5-1.76-.55-4.07-1.4-4.07-4.07 0-2.45 1.91-4.13 4.65-4.13 1.54.02 3.04.56 4.25 1.53l-.85 2.3h-.1a5.3 5.3 0 0 0-3.06-1.2c-1.2 0-1.89.46-1.89 1.26 0 .83.88 1.14 1.97 1.49 1.75.56 4.05 1.41 4.05 4.07 0 2.45-1.9 4.13-4.5 4.13m10.91 0a7 7 0 0 1-4.77-1.86l.85-2.29h.1a5.5 5.5 0 0 0 3.59 1.5c1.06 0 1.75-.44 1.75-1.23 0-.83-.87-1.16-1.96-1.5-1.76-.55-4.07-1.4-4.07-4.07 0-2.45 1.91-4.13 4.65-4.13 1.55.02 3.04.56 4.25 1.53l-.85 2.3h-.1a5.3 5.3 0 0 0-3.06-1.2c-1.2 0-1.89.46-1.89 1.26 0 .83.88 1.14 1.97 1.49 1.75.56 4.05 1.41 4.05 4.07 0 2.45-1.9 4.13-4.5 4.13m15.78-12.4v-.77h2.78V53h-3.05v-6.52a5 5 0 0 1-3.37 1.33c-3.6 0-5.91-2.8-5.91-6.65 0-3.62 2.46-6.92 6.23-6.92 1.17.02 2.3.43 3.2 1.17zm-.27 2.55a4 4 0 0 0-2.58-.93c-2.17 0-3.58 1.7-3.58 4.1 0 2.15 1.23 3.89 3.4 3.89a3.7 3.7 0 0 0 2.76-1.2zm5.63-3.32h3.05v7.63c0 1.12.18 1.6.5 2a2.3 2.3 0 0 0 1.75.8 2.3 2.3 0 0 0 1.76-.8c.32-.4.5-.88.5-2v-7.63h3.06v7.31c0 2.08-.56 3.39-1.53 4.32a5.4 5.4 0 0 1-3.91 1.54 5.2 5.2 0 0 1-3.72-1.49c-.93-.93-1.46-2.27-1.46-4.37zm12.7 6.52c0-4.07 2.77-6.93 6.65-6.93a6.4 6.4 0 0 1 6.63 6.66c0 4.07-2.76 6.92-6.63 6.92a6.4 6.4 0 0 1-6.64-6.65m6.65-4.13c-2.05 0-3.5 1.73-3.5 4 0 2.25 1.45 3.99 3.5 3.99s3.5-1.74 3.5-4-1.46-3.98-3.5-3.98zm16.99 7.87v2.37a6.8 6.8 0 0 1-4.37.3q-.8-.29-1.42-.86c-.74-.74-1.11-1.83-1.11-3.78V37.3h-2.92v-2.66h2.92v-4.26h3.05v4.26h3.85v2.66h-3.85v6.03c0 .67.13 1.04.34 1.28.37.42.98.53 1.65.53.7 0 1.51-.16 1.75-.23zm11.33-1.22 1.14 2.13a6.7 6.7 0 0 1-4.98 2c-3.72 0-6.5-2.64-6.5-6.65 0-3.68 2.22-6.93 6.18-6.93 3.37 0 5.62 2.7 5.62 6.4v1.01h-8.63c.08 1.99 1.46 3.48 3.48 3.48 1.3 0 2.5-.53 3.59-1.44zm-1.6-4.44a2.47 2.47 0 0 0-2.51-2.4c-1.54 0-2.58 1.04-2.9 2.4z"/></svg>