<svg xmlns="http://www.w3.org/2000/svg" width="132" height="60" viewBox="0 0 132 60"><path fill="#FA5B35" d="M19.1 21a9.1 9.1 0 0 1 9.09 9.17 9.07 9.07 0 0 1-12.58 8.47 9 9 0 0 1-4.93-4.96 9 9 0 0 1-.68-3.51c0-5.1 4.03-9.17 9.1-9.17m4.53 6.86v-1.52h-9.08v1.52zm-1.5 6.12h1.5V29.4h-9.08V34h1.51v-1.74c0-.5.13-.77.3-.97q.3-.36.84-.37.53.01.84.37c.17.2.3.47.3.97v1.73h1.52v-1.73c0-.5.12-.77.3-.97q.3-.36.83-.37.54.01.84.37c.18.2.3.47.3.97z"/><path fill="#fff" d="M33.73 26.72c0 1.65 2.35 1.99 4.1 3a3.7 3.7 0 0 1 2 3.4c0 2.48-2.01 4.04-4.24 4.04a6.2 6.2 0 0 1-4.46-1.77l.88-1.88h.08a4.8 4.8 0 0 0 3.34 1.42c.96 0 2-.56 2-1.7 0-1.67-2.35-2-4.1-3.03a3.7 3.7 0 0 1-2-3.38c0-2.5 2.03-4.05 4.3-4.05 1.56 0 3.06.6 4.2 1.68l-.88 1.87h-.08a4.4 4.4 0 0 0-3.05-1.31c-1.06 0-2.09.56-2.09 1.7m10.8 10.14h-1.56l-2.8-7.88h2.32l1.37 4h.08l1.93-5.58h1.56l2.04 5.64h.08l1.95-5.64h2.2l-3.35 9.47h-1.52l-2.16-5.96h-.07zm12.45-11.13h-2.32v-2.27h2.32zm-.03 11.13H54.7V27.4h2.25zm5.24.3c-1.3 0-2.56-.48-3.52-1.38l.62-1.69h.08a4 4 0 0 0 2.64 1.12c.79 0 1.3-.34 1.3-.92 0-.62-.65-.86-1.45-1.11-1.3-.41-3-1.05-3-3.01 0-1.82 1.4-3.06 3.43-3.06a5 5 0 0 1 3.13 1.13l-.63 1.7h-.08a4 4 0 0 0-2.25-.88c-.88 0-1.39.34-1.39.92 0 .62.65.85 1.45 1.1 1.29.42 2.99 1.05 2.99 3.02 0 1.82-1.4 3.06-3.32 3.06m8.03 0a5 5 0 0 1-3.51-1.38l.62-1.69h.08a4 4 0 0 0 2.64 1.12c.78 0 1.3-.34 1.3-.92 0-.62-.65-.86-1.45-1.11-1.3-.41-3-1.05-3-3.01 0-1.82 1.4-3.06 3.42-3.06 1.14.01 2.25.4 3.13 1.13l-.62 1.7h-.08a4 4 0 0 0-2.25-.88c-.88 0-1.39.34-1.39.92 0 .62.65.85 1.45 1.1 1.29.42 2.99 1.05 2.99 3.02 0 1.82-1.4 3.06-3.33 3.06m11.63-9.18v-.57h2.05V41h-2.25v-4.83a3.7 3.7 0 0 1-2.48.99c-2.66 0-4.36-2.07-4.36-4.93 0-2.68 1.81-5.13 4.6-5.13.86.02 1.69.32 2.36.87zm-.2 1.89c-.53-.45-1.2-.7-1.9-.7-1.6 0-2.64 1.27-2.64 3.05 0 1.59.9 2.87 2.5 2.87a2.7 2.7 0 0 0 2.04-.89zm4.15-2.46h2.25v5.65c0 .83.13 1.18.37 1.48a1.7 1.7 0 0 0 1.29.6c.53 0 1-.25 1.3-.6.23-.3.36-.65.36-1.48V27.4h2.25v5.41c0 1.54-.41 2.51-1.12 3.2a4 4 0 0 1-2.89 1.14 3.8 3.8 0 0 1-2.73-1.1c-.69-.69-1.08-1.68-1.08-3.24zm9.36 4.83c0-3.02 2.04-5.13 4.9-5.13a4.7 4.7 0 0 1 4.56 3.01q.36.93.32 1.91c0 3.02-2.03 5.13-4.89 5.13a4.7 4.7 0 0 1-4.56-3.01 5 5 0 0 1-.33-1.91m4.9-3.06c-1.51 0-2.59 1.28-2.59 2.95s1.08 2.96 2.58 2.96c1.51 0 2.59-1.28 2.59-2.96 0-1.67-1.08-2.95-2.59-2.95M112.56 35v1.75a5 5 0 0 1-3.22.23 3 3 0 0 1-1.04-.64c-.55-.55-.82-1.36-.82-2.8v-4.17h-2.15V27.4h2.15v-3.16h2.25v3.16h2.83v1.97h-2.83v4.47c0 .5.1.77.25.94.28.32.72.4 1.21.4.52 0 1.12-.12 1.3-.18zm8.35-.9.84 1.57a5 5 0 0 1-3.67 1.48c-2.73 0-4.79-1.95-4.79-4.92 0-2.73 1.64-5.13 4.56-5.13 2.48 0 4.14 1.99 4.14 4.73v.75h-6.36c.06 1.48 1.08 2.58 2.56 2.58.96 0 1.85-.4 2.65-1.07zm-1.17-3.3a1.8 1.8 0 0 0-1.16-1.65 2 2 0 0 0-.7-.12c-1.13 0-1.9.77-2.13 1.77z"/></svg>