<svg width="200" height="80" viewBox="0 0 200 80" fill="none" xmlns="http://www.w3.org/2000/svg"><circle cx="42.54" cy="39.57" r="14.23" stroke="#DB1921" stroke-width=".6"/><circle cx="42.39" cy="39.42" r="20.25" stroke="#DB1921" stroke-width=".6"/><path d="m34.21 17.88.53 1.38c1.81-.7 3.75-1.17 5.76-1.36l.04-1.48a23.57 23.57 0 0 1 5.98.24l.24-1.17c2.02.35 3.96.95 5.78 1.76L52 18.32l-.66 1.33c1.83.8 3.53 1.86 5.06 3.11l1.06-1.04a23.37 23.37 0 0 1 4.11 4.46l1.02-.63a24.36 24.36 0 0 1 2.8 5.26l-1.1.48-1.36.58a21.62 21.62 0 0 1 1.3 5.65l1.48-.1a23.53 23.53 0 0 1-.24 6.1l1.17.26c-.35 2-.94 3.92-1.75 5.73l-1.1-.47-1.35-.58c-.8 1.8-1.85 3.46-3.09 4.95l1.05 1.05a23.38 23.38 0 0 1-4.45 4.1l.6 1.04a24.38 24.38 0 0 1-5.24 2.78l-.46-1.1-.58-1.36a21.65 21.65 0 0 1-5.65 1.3l.07 1.48a23.54 23.54 0 0 1-6.17-.25l-.22 1.17c-2-.35-3.93-.95-5.74-1.76l.51-1.08.6-1.35a21.78 21.78 0 0 1-4.91-3.05l-1.1 1.01a23.38 23.38 0 0 1-4.08-4.42l-1.03.62a24.37 24.37 0 0 1-2.78-5.2l1.1-.47 1.35-.6a21.62 21.62 0 0 1-1.32-5.63h-1.49a23.52 23.52 0 0 1 .24-6.05l-1.17-.28c.34-1.95.9-3.81 1.68-5.57l1.12.43 1.4.49a21.46 21.46 0 0 1 3.04-4.93l-1.04-1.06a23.37 23.37 0 0 1 4.45-4.12l-.66-1a24.39 24.39 0 0 1 5.3-2.84l.43 1.12Z" stroke="#DB1921" stroke-width=".5"/><path d="M34.21 17.88c.93-.36 1.88-.66 2.86-.9l-.26-1.16a24.52 24.52 0 0 1 6.45-.68v1.2M26.6 22.68l-.87-.82a24.54 24.54 0 0 0-4.03 4.99l.98.68c-.52.86-.99 1.76-1.4 2.69m-1.94 8.68h-1.2a24.99 24.99 0 0 0 .67 6.41L20 45.1c.24.97.53 1.91.89 2.83m4.72 7.52-.82.87a24.55 24.55 0 0 0 5.01 4.08l.66-1c.84.52 1.72.98 2.63 1.39l.6-1.35m8.17 3.35v1.2a25.02 25.02 0 0 0 6.44-.66l-.22-1.18c.96-.23 1.89-.52 2.8-.86m7.63-4.8.86.83a24.55 24.55 0 0 0 4.07-5l-1-.65c.5-.84.97-1.71 1.37-2.62m2-8.73H67a24.8 24.8 0 0 0-.65-6.43l-1.17.24c-.23-.97-.53-1.91-.88-2.83m-4.78-7.63.86-.83a24.55 24.55 0 0 0-4.99-4.07l-.7.97c-.85-.52-1.75-1-2.68-1.41" stroke="#DB1921" stroke-width=".2"/><path d="M38.73 33.67a.36.36 0 0 0-.36.3l-.03.27H30.7c.06.15.15.28.26.4.29.3.6.47 1 .61l.06.03h4.87l.34.65h-4.87c.05.2.17.4.32.55l.3.2c.29.17.6.26.94.3h3.93l.42.71h-3.92a1.91 1.91 0 0 0 1.24.91l.2.05h3.74l-.03.53c-.01.14-.09.3-.15.43h.87v.59H38.5l.36-.6c.06-.07.14-.27.17-.35h-3.3l-.27-.06a2.51 2.51 0 0 1-1.8-1.55v-.02l-.88-.37a1.77 1.77 0 0 1-1.04-1.33v-.07a3.44 3.44 0 0 1-1.2-.8 1.8 1.8 0 0 1-.47-.79l-.16-.62h7.94a.96.96 0 1 1 1.4 1.18c.17.46.4.9.68 1.3.25.34.55.63.9.87l-.35.5c-.4-.28-.75-.63-1.04-1.02a5.79 5.79 0 0 1-.83-1.7l-.1-.32.3-.08a.36.36 0 0 0-.08-.7Zm7.6 0c.18 0 .33.14.35.3l.04.27h7.64a1.2 1.2 0 0 1-.26.4c-.3.3-.61.47-1 .61l-.06.03h-4.87l-.35.65h4.88c-.06.2-.17.4-.33.55a2.55 2.55 0 0 1-1.23.5H47.2l-.42.71h3.93a1.91 1.91 0 0 1-1.25.91l-.2.05h-3.74l.04.53c.01.14.09.3.15.43h-.87v.59h1.72l-.36-.6a1.23 1.23 0 0 1-.17-.35h3.3l.26-.06a2.51 2.51 0 0 0 1.8-1.55l.01-.02.87-.37a1.77 1.77 0 0 0 1.04-1.33l.02-.07c.45-.18.86-.45 1.2-.8.21-.21.37-.49.45-.79l.17-.62H47.2a.96.96 0 1 0-1.4 1.18c-.16.46-.4.9-.68 1.3a3.5 3.5 0 0 1-.89.87l.34.5c.4-.28.76-.63 1.04-1.02.37-.52.65-1.1.84-1.7l.1-.32-.31-.08a.36.36 0 0 1 .09-.7Z" fill="#DB1921"/><path d="M40.34 45.66V38.7a2.18 2.18 0 1 1 4.35 0v6.96" stroke="#DB1921" stroke-width=".6"/><path d="M40.43 45.46h4.13" stroke="#DB1921" stroke-width=".4"/><path d="M43.34 36.22c0 .43-.36.4-.82.4-.45 0-.82.03-.82-.4 0-.42.37-.76.82-.76.46 0 .82.34.82.76Zm-5.29 10.52a4.15 4.15 0 0 0 .2-6.15h2v6.15h-2.2Zm8.93 0a4.15 4.15 0 0 1-.2-6.15h-2v6.15h2.2Z" fill="#DB1921"/><path fill="#DB1921" d="M40.23 46.42H45v.32h-4.77zm-.07-.47h4.77v.32h-4.77zm-.02-6.36h4.77v.61h-4.77zm0-.84h4.77v.57h-4.77zm.3-.87h4.23v.53h-4.23zm0-.85h4.23v.53h-4.23z"/><path fill="#DB1921" d="M40.59 45.57H41v.48h-.41zm.71 0h.41v.48h-.41zm.68 0h.41v.48h-.41zm.69 0h.41v.48h-.41zm.71 0h.41v.48h-.41zm.69 0h.41v.48h-.41z"/><path d="M43.53 46.74a1 1 0 0 1-.42.81m-1.56-.8c0 .33.17.62.42.8m0 0a.98.98 0 0 0 1.14 0m-1.14 0 .37 5.2c0 .1.09.18.18.18a.2.2 0 0 0 .19-.17l.4-5.21" stroke="#DB1921" stroke-width=".7"/><path d="M40.83 40.5a.24.24 0 0 1 .05-.18c.02 0 .06-.02.1 0 .04.03.1.21.14.42.05.2 0 .4-.08.46-.1.05-.12.06-.21-.05-.1-.11 0-.2 0-.3v-.35Zm0 1.19c.02-.12.1-.12.14-.1.1.04.12.22.15.33.03.11.04.52-.08.56-.13.04-.21 0-.24-.11s.08-.21.08-.31-.08-.23-.05-.37Zm-.06 1.33c0-.13.1-.18.15-.19.2 0 .18.45.17.68 0 .24-.01.48-.14.48s-.12-.23-.12-.39-.06-.42-.06-.58Zm.03 1.3c0-.09.08-.11.12-.11.19-.05.23.78.08.88-.12.08-.18 0-.2-.04v-.73Zm.7.61c-.03.2-.11.24-.15.24-.14-.02-.11-.4-.11-.57l.04-1.45c0-.24.07-.28.14-.28s.12.07.15.2c.03.14-.05 1.62-.08 1.86Zm.2-.51c.01-.2.13-.24.18-.24.11 0 .15.14.16.24.01.09.1.72-.12.7-.22-.04-.23-.45-.22-.7Zm.36-.82c-.02.26-.17.37-.24.4-.1-.03-.07-.49-.06-.7.01-.22 0-.45.15-.43.16.02.18.4.15.73Zm-.49-1.27c-.02.21-.08.28-.1.29-.25.07-.17-1.7-.16-1.96 0-.27.05-.34.13-.36.08-.02.1.02.13.14.03.12.02 1.62 0 1.89Zm.16-.48c0-.14.09-.19.13-.2.06 0 .12.08.15.17.03.08.06.43 0 .58-.07.15-.17.22-.25.17-.07-.04-.03-.54-.03-.72Zm.65-.27c.04-.08.15-.11.2-.12.03-.01.08-.01.11.06.04.1-.14.51-.27.57-.13.07-.15.05-.2-.03-.04-.08.1-.37.16-.48Zm.62.78a.9.9 0 0 0 .24-.21c.13.22.75.57.85.57.1 0 .12-.15.05-.22-.07-.07-.37-.25-.6-.48-.23-.23-.35-.63-.4-.66-.04-.03-.13 0-.18.22-.05.24-.27.57-.38.67-.1.1-.48.37-.48.43s.2.06.27.04c.08-.02.5-.29.64-.36Zm.6-.6c-.11-.2-.1-.27-.08-.27a.11.11 0 0 1 .1 0c.07.02.22.2.43.4.21.19.17.3.02.28-.15 0-.3-.15-.46-.4Z" fill="#DB1921"/><path d="M42.96 41.1a.39.39 0 0 0 .18-.2c0 .02.03.08.13.13s.53.33.72.46c.09.04.26.1.3.03.05-.09-.15-.2-.24-.24a3.22 3.22 0 0 1-.6-.47c-.2-.21-.15-.59-.3-.56-.16.02-.3.37-.43.58-.13.22-.42.5-.65.6-.23.11-.13.2-.08.18l.97-.5Z" fill="#DB1921"/><path d="M43.84 40.83c.1.02.21.01.25 0 .02 0 .05-.03.03-.06a2.71 2.71 0 0 0-.41-.44c-.1-.06-.19-.03-.21.06-.03.1.2.42.34.44Zm-2.04-.26c0-.22.1-.24.14-.22.11 0 .1.33.07.5a.9.9 0 0 1 .27-.26c.22-.15.2-.26.37-.26.16 0 .14.17.04.3a4.71 4.71 0 0 1-.86.65c-.06-.02-.04-.45-.03-.71Zm.51 2.8c-.09-.11-.07-.21-.04-.24l1.66-.04c.16 0 .26.06.23.2-.03.12-.41.12-.6.1-.1 0-.34.03-.4.21-.08.23.14.15.34.31.19.16.03.27-.05.5-.08.24.1.25.51.32.33.05.16.26.04.36-.34.03-1.1.07-1.42.02-.4-.06-.35-.22-.23-.3.13-.1.43-.02.58-.06.15-.03.1-.26.06-.37-.04-.11-.3-.1-.37-.2-.08-.1.06-.22.16-.32s.1-.29.06-.38c-.04-.1-.42.03-.53-.1Z" fill="#DB1921"/><path fill-rule="evenodd" d="M48.41 22.42c-.16.13-.23.1-.25.08-.06-.06.09-.28.3-.52.2-.22.23-.58.24-.64v-.01c0-.03.09.03.11.27.02.23-.2.66-.4.82Zm-13-.61c-.06-.2.03-.26.08-.27.14 0 .35.45.43.67.1-.08.42-.22.94-.17.66.07.57.34.45.3-.45-.06-1 .1-1.22.2l.16.5.06.2c.07.29.18.7.35.94.18.25.54.45.7.51.37.14 1.08.43.93.5-.17.1-.61-.02-.86-.17-.1-.07-.24-.14-.4-.22l-.6-.33c-.05.4-.25.81-.34.97-.18.26-.56.77-.67.71-.1-.04-.07-.1.06-.31.07-.1.15-.22.25-.4.3-.55.4-1.01.4-1.26s-.12-.73-.4-1.48c-.42.19-.8.6-.93.79-.13.1-.38.19-.3-.25.1-.43.78-.81 1.12-.95a3.01 3.01 0 0 1-.2-.48Zm-8.95 7.4c-.08-.06-.21-.2-.17-.27.06-.09.16-.07.22-.04l.78.45c.1.05.3.14.33.35.04.2-.16.56-.2.55-.04 0-.03-.1-.03-.2 0-.08 0-.16-.02-.2a1.18 1.18 0 0 0-.17-.2l-.2.28c-.05.07-.1.07-.12.07 0-.05.03-.18.07-.3v-.04c.05-.12.07-.16-.02-.21a2.39 2.39 0 0 1-.07-.04c-.08-.06-.17-.11-.21-.09a.96.96 0 0 0-.13.18.98.98 0 0 1-.14.2c-.05.03-.11 0-.09-.11.03-.1.12-.3.17-.38Zm-.46 1.1c-.07 0-.26.16-.33.22a.36.36 0 0 1 .33-.46 7.04 7.04 0 0 1-.03-.48c.2 0 .26.26.26.43a4.73 4.73 0 0 1 .42-.29c-.04.2-.24.4-.4.48.03.32-.07.5-.16.52-.09.03-.09-.25-.09-.42Zm-1.08 1.05c0-.05.06-.13.23-.11.13.02.17.02.2 0l.02-.05.01-.02c.05-.09.22-.44.33-.4.07.01 0 .16-.07.3a.8.8 0 0 0-.08.22c0 .09.22.2.33.26.1-.14.28-.42.31-.42.05 0 .09.04.03.22-.05.14-.11.26-.14.31.06.06.2.18.25.14a.61.61 0 0 0 .11-.14c.07-.1.13-.19.17-.18.06.01.06.5-.21.58-.17.05-.32-.08-.47-.2-.1-.08-.19-.16-.29-.2l-.2-.09c-.19-.08-.34-.15-.42-.15-.08 0-.1-.05-.1-.07Zm7.29 10.04c-.03 0-.09.06-.05.18.02.1.01.17 0 .22 0 .1 0 .12.14.12.23 0 .3-.21.28-.27-.03-.07-.24-.25-.37-.25Zm-.13.73c-.03 0-.06.05.04.18.06.07.07.12.08.16.01.05.02.08.1.08.14 0 .25-.21.19-.3-.06-.1-.3-.15-.41-.12Zm-.2.86c-.14.11-.26.1-.3.07 0-.02-.03-.07-.15-.07-.14 0-.15.19-.13.27.02.09.2.17.4.06.15-.1.23-.12.26-.12 0 .15.02.5 0 .66-.02.13-.16.15-.3.16l-.16.03c-.2.04-.23.06-.26.37-.02.31.2.56.49.5a.99.99 0 0 1 .23-.05c.08 0 .14 0 .32-.08.24-.1.26-.35.24-.47.04-.02.14-.14.2-.42.09-.34.44-.84.64-1l.16-.15c.13-.11.22-.2.24-.14.02.06-.09.17-.2.28-.07.07-.15.14-.18.2-.1.14-.12.54-.02.61.1.08.16.06.34-.07.2-.13.3 0 .3.07.02.08-.15.45-.24.41-.09-.04-.4-.17-.47-.16-.08.02-.08.13.11.2.2.07.3.23.2.32-.08.06-.1.04-.16 0l-.1-.09c-.16-.1-.23.06-.2.15 0 .08.4.24.56.21.09-.01.1-.05.1-.09 0-.04.02-.09.12-.12.2-.07.21.15.2.19l-.08.04c-.06.02-.14.05-.12.12.02.07.1.05.2.02l.1-.02.1-.02c.13-.01.29-.03.33-.18.05-.18-.15-.3-.3-.32-.13 0-.3-.14-.3-.25 0-.04.03-.1.07-.18.06-.13.13-.28.08-.37-.07-.14-.27-.12-.42-.1h-.02c-.13.01-.13 0-.13-.12v-.08c0-.19.1-.23.25-.31h.01c.16-.09.18-.23.21-.4l.01-.03c.04-.18-.1-.32-.26-.3-.1.02-.22.17-.36.32l-.25.25c-.22.2-.41.55-.52.84l-.05.17c-.07.2-.11.33-.18.31-.03 0-.05-.06-.07-.11-.02-.1-.06-.2-.18-.24-.2-.06-.16-.22-.12-.36.03-.08.12-.17.2-.26a.58.58 0 0 0 .17-.2c.05-.12-.06-.22-.21-.23-.11-.01-.2.07-.3.17l-.1.1Zm4.05.13c-.04-.06-.12-.12-.12.09v.1c0 .2.01.34-.08.65l-.06.21c-.08.27-.13.47-.02.46.14 0 .34-.2.39-.58a2.9 2.9 0 0 0-.04-.84c-.02-.06-.05-.09-.07-.1Zm.24.54c0-.13.11-.18.17-.2-.04-.02-.1-.1-.02-.2.09-.12.22-.03.23.05 0 .08.08.09.13 0l.02-.15c.01-.12.02-.25.12-.24.14.01.09.32.02.4-.06.07-.04.18.07.31.11.14.06.25-.11.3-.1.03-.14.1-.18.15-.05.07-.1.13-.19.16-.18.06-.3 0-.31-.13 0-.06 0-.14.02-.21l.03-.24Zm-.05-.69c0 .03.05.08.22 0 .07-.02.12-.06.18-.09a.6.6 0 0 1 .35-.1c.22 0 .25.12.25.45v.2c.01.28.02.56-.08.72-.08.11-.16.13-.2.14-.03 0-.04 0-.04.03s.03.07.07.12c.05.06.1.12.13.2.04.12.1.14.23 0 .12-.15.16-.78.08-1.47-.08-.68-.5-.58-.63-.55h-.02c-.16.04-.64.16-.54.35Zm1.45.6c-.04-.3.06-.36.11-.34.21-.09.18.8.12.8s-.2-.06-.23-.45Zm.05 1.24c-.01.05 0 .16.18.2.22.03.52-.11.58-.34.05-.23 0-2.3-.12-2.38-.11-.09-.25-.07-.31.13-.04.12 0 .8.04 1.34.02.33.04.61.03.68-.02.2-.08.31-.18.31h-.03c-.1 0-.19 0-.19.06Zm9.64-2.02c-.27.01-.24-.07-.19-.12-.04.02-.13.07-.14.12l-.01.02c-.04.09-.12.27.34.3.35.03.47-.07.59-.17.05-.05.1-.1.19-.13a.69.69 0 0 1 .4-.06h.13c.23 0 .33.15.14.33-.15.14-.44.13-.73.12h-.26c-.36 0-.24.21-.21.27v.02c.03.05.06.1 0 .21a1 1 0 0 1-.04.05l-.02.04c-.02.03-.02.07-.02.2 0 .15-.06.24-.15.35l-.16.25c-.14.28.05.4.2.33l.1-.06c.08-.05.14-.08.21-.03.06.04.02.09-.05.16a.95.95 0 0 0-.15.2c-.1.2.04.3.2.23.1-.04.16-.2.21-.37a.94.94 0 0 1 .13-.29c.07-.07.11-.07.17-.06.06 0 .14 0 .25-.05.25-.11.3-.3.18-.33a1.4 1.4 0 0 1-.45-.17c-.19-.11-.24-.04-.27.05l-.03.13c-.02.14-.05.32-.1.34-.07.03-.3.06-.38 0-.09-.06.03-.22.2-.42.09-.12.16-.13.2-.13.03 0 .05 0 .05-.05 0-.04-.03-.07-.06-.1a.33.33 0 0 1-.1-.18c-.02-.11.05-.13.12-.14.05-.01.1-.02.13-.06.05-.06 0-.1-.04-.13s-.07-.05-.09-.1c-.03-.06 0-.06.17-.05l.42.01c.42 0 .6-.13.64-.2a.46.46 0 0 0-.2-.57c-.21-.13-.38-.07-.5-.04-.07.03-.12.04-.16.02-.05-.03-.05-.06-.04-.09 0-.03.01-.09-.08-.18-.18-.16-.58-.19-.58-.05 0 .11.12.25.2.34l.05.05c.07.08-.07.16-.41.19Zm.99 2.18c.16-.02.5 0 .54.16.05.2-.18.29-.34.29-.1 0-.12-.15-.14-.26-.01-.06-.02-.11-.04-.13-.04-.05-.03-.06-.02-.06Zm2.9-2.46c-.07.04-.02.22.01.31h.2c.13 0 .14.05.13.15 0 .03-.04.05-.1.08-.09.06-.23.14-.24.36-.02.27 0 .27.08.25l.07-.02c.15-.02.17.11.05.27-.12.16-.22.32-.26.72-.03.2.02.4.05.55.04.14.06.23 0 .26-.1.06-.34.07-.34-.16 0-.18-.08-.41-.11-.5-.04.09-.14.27-.26.3a.2.2 0 0 0-.13.04.53.53 0 0 1-.27.1c-.3.05-.26-.22-.08-.46.06-.1.1-.13.13-.16.05-.04.06-.05.08-.23.02-.22.34-.46.5-.55.07-.14.17-.4 0-.4-.1-.01-.19.06-.27.13-.07.06-.14.12-.23.13h-.02c-.18.02-.33.04-.32-.2 0-.17.43-.33.71-.44.11-.04.2-.07.23-.1.07-.04.07-.1.06-.23l-.02-.28c0-.34.13-.41.31-.34.2.07.1.36.03.42Zm.98.48c-.02.07-.1.2-.2.2-.12 0-.24-.23-.1-.3a.32.32 0 0 1 .18-.03c.05 0 .09.01.12-.04.02-.04.01-.13 0-.22-.01-.13-.03-.28.04-.32.13-.07.25-.1.25.18s-.02.54-.08.64c-.05.07-.1-.03-.12-.08a.22.22 0 0 0-.01-.03c-.02-.02-.06-.05-.08 0Zm-.45.57c-.08-.1.1-.18.2-.21l.46-.18c.03-.03.1-.14.16-.26a.6.6 0 0 1 .08-.12c.03-.04.05-.06.05-.14l.01-.1c.02-.04.04-.1.06-.33.01-.28.04-.29.11-.29h.06c.12-.04.17-.03.16.14 0 .07-.04.16-.08.25-.05.13-.09.25-.04.27.07.01.1-.01.12-.06l.04-.05c.06-.07.25-.12.4 0 .14.13-.28.34-.56.37-.27.03-.34.2-.24.21.06.02.17-.03.34-.1l.3-.11c.34-.12.4.22.21.21-.2 0-1.05.15-1.35.29-.11.05-.2.11-.26.16-.1.07-.17.11-.23.05Zm.62-.15c-.02.12-.03.35.12.35.18 0 .35-.26.45-.41.1-.16.28-.16.3-.07 0 .05-.03.07-.08.1a.6.6 0 0 0-.14.1c-.13.13-.25.26-.16.28h.11c.1 0 .19-.01.2.08 0 .08-.02.07-.06.05a.14.14 0 0 0-.06-.01c-.07 0-.46.1-.35.23.05.06.14.04.22.02.07-.03.13-.04.13.03 0 .08-.06.14-.12.18-.05.04-.1.08-.07.14.02.07.15.06.25.05l.12.01c.06.03-.1.12-.32.23-.11.05-.12.15-.14.25 0 .09-.02.19-.1.26-.18.16-.36.02-.3-.15a.62.62 0 0 0 .04-.27c-.04.03-.15.1-.21.08-.08-.02-.06-.2.08-.3.12-.07.14-.2.17-.36v-.04c.04-.17.05-.28-.06-.2-.11.07-.18.1-.27.07-.05-.02-.03-.03 0-.06.04-.03.08-.07.08-.12 0-.04-.02-.08-.04-.13-.04-.06-.07-.12-.04-.2.05-.14.16-.22.25-.19Zm.57 1.79c-.07-.04-.05-.1-.03-.13.19-.14.7.16.66.36-.04.19-.5.23-.66.22-.17-.01-.16-.08-.05-.14l.08-.05c.1-.05.19-.1.19-.15 0-.05-.05-.06-.1-.07a.37.37 0 0 1-.1-.04ZM28.18 33.05c.28.14.33.3.32.36-.18.1-.76-.27-1.13-.52l-.1-.07c-.37-.24-.46-.57-.49-1.01-.03-.37.18-.7.37-1.01l.11-.18c.22-.36.48-.6 1.1-.6.47 0 .75.16 1.05.34a5 5 0 0 0 .29.17c.34.18.35.26.31.28-.11.05-.44.08-.8-.19a1.89 1.89 0 0 0-.85-.37.88.88 0 0 0-.71.2c-.32.27-.6.85-.65 1.19-.05.34.08.57.26.79.19.22.57.45.92.62Zm.18-1.63c.06-.12.14-.4 0-.58-.18-.22-.47-.25-.71-.07a.9.9 0 0 0-.35.82c.07.52.44.41.56.37a.65.65 0 0 0 .32-.26c.05-.08.1-.13.13-.14l.25.3c-.1.16-.44.51-.94.54.36.28.85.01.98-.07.1-.07.2-.2.24-.26.1.07.32.2.54.15.28-.06.26-.23.13-.23h-.05c-.12 0-.25 0-.4-.08-.13-.08-.1-.14-.08-.15.07-.18.19-.59.04-.86-.14-.27-.25-.26-.28-.22.05.06.15.25.1.53-.05.28-.12.4-.15.43a.98.98 0 0 0-.33-.22Zm19.65-8.7c-.08.08-.29.33-.46.61-.22.35-.37.78-.37 1.07 0 .24.1.47.15.56 0-.1.02-.31.05-.43.04-.15.26-.78.36-.96.1-.18.37-.77.27-.86Zm1.27-1.25c-.02.17-.13.62-.41 1-.13.17-.26.31-.39.45-.2.22-.4.43-.53.74-.21.5-.32.87-.25 1.24.06.3.16.42.2.45l.05-.53a5 5 0 0 1 .24-1.01c.08-.15.23-.45.63-.85.4-.4.6-1.24.46-1.49Zm.26.78c.1-.17.13-.43.13-.54.02-.01.06-.02.1.06.06.1.03.48-.1.73s-.43.6-.54.52c-.08-.06.13-.35.28-.58l.13-.19Zm-.57 1.08c-.15.05-.47.27-.57.81a4.9 4.9 0 0 0-.02 1.37c.04-.2.14-.7.25-1.04l.34-1.14Zm.07 1.63c-.35-.1-.37-.18-.34-.2.02-.1.22-.08.41-.06l.16.01c.2.02.22 0 .28-.1l.02-.02c.07-.1.63-1.48.56-1.57a.51.51 0 0 0-.12-.1c-.13-.07-.27-.16-.11-.22.23-.1 1.04.35 1.12.48.09.12-.05.1-.31.02-.2-.06-.3-.02-.31 0-.16.41-.51 1.28-.6 1.45-.11.21-.07.31 0 .37l.1.07c.13.08.3.2.35.3.05.15-.07.14-.22.12a1.08 1.08 0 0 1-.3-.17c-.19-.13-.44-.3-.69-.38Zm6.3 5.7c.06-.11.29-.4.69-.55.5-.2.9-.4.96-.49.05-.07-.4.03-.63.09-.21.08-.62.3-.87.57-.23.24-.19.37-.16.39Zm2.9-1.39c.2-.18.25-.37.25-.44l-.25.2c-.15.11-.37.18-.6.2-.22.04-.28.16-.17.22.1.05.52.04.77-.18Zm.67-.18c-.12.12-.53.45-.88.6-.43.17-.89.24-1.04.27a2.6 2.6 0 0 0-1.1.47c-.33.3-.52.52-.56.73-.03.17.06.05.11-.03.13-.15.46-.48.78-.68.39-.22.84-.26 1.1-.28h.05c.24-.02.64-.07 1-.37.28-.24.5-.6.54-.71Zm-.27.74c.16-.1.26-.25.3-.3 0 .1-.03.32-.13.43a.9.9 0 0 1-.64.3c-.27 0-.24-.06-.2-.14l.02-.01c.02-.04.14-.08.27-.13.13-.04.28-.09.38-.15Zm.62.17a.88.88 0 0 1-.4.28c-.1.03-.22.04-.33.06-.19.02-.36.04-.34.11.03.12.1.2.5.14.37-.06.5-.35.56-.45l.01-.03a.1.1 0 0 0 0-.1Zm-3.04 1a.97.97 0 0 0-.36.41.48.48 0 0 1 0-.28c.06-.19.33-.4.81-.56.39-.13.7-.15.8-.14a.74.74 0 0 1-.25.18l-.24.09c-.23.07-.57.18-.76.3Zm.16.36c-.02-.03 0-.09.23-.07.29.01.53-.03.65-.07l.11-.05c.07-.04.12-.06.14-.04.02.03-.17.38-.55.42-.38.05-.58-.12-.58-.2Zm-.38.68c-.3-.1-.42-.29-.43-.37-.01-.03.12-.06.37.08s.78.18.93.14l.32-.14c.23-.11.52-.25.64-.25.2 0 .13.14.06.17h-.02l-.02.02c-.12.04-.41.16-.72.42-.27.24-.4.94-.43 1.27-.04.07-.15.12-.21-.2-.06-.33.16-.85.28-1.07-.13.02-.47.03-.77-.07Zm1.3.93c-.04-.05-.1-.2.06-.47.18-.34.5-.43.64-.42.12 0 .06.1.02.15-.11.08-.37.28-.5.42-.13.14-.2.27-.22.32Zm.69-1.8c-.25 0-.4-.22-.44-.33.25.04.8.13.97.11.12-.01.26-.09.4-.17l.34-.17c.3-.11.41-.07.37.05-.02.07-.14.12-.3.18-.1.05-.24.1-.36.17-.27.16-.37.5-.44.79l-.01.05c-.07.23-.07.5-.06.6-.03 0-.11-.11-.16-.53-.05-.43.09-.7.16-.8a3.2 3.2 0 0 1-.47.05Zm.98.75c-.04-.07-.06-.27.13-.52.23-.31.57-.4.67-.34.05.04-.05.1-.18.19s-.3.2-.38.34l-.24.33Zm-30.81-.9c.01-.08-.01-.23-.22-.2-.26.06-.45.7-.42.82.03.12.06.23.3.12.26-.12.34-.3.34-.39v-.35Zm8.42 12.65c0-.13.05-.15.07-.15.02.08.06.24.05.3-.02.06-.12 0-.12-.15Zm-.22.12c-.02 0-.06.03-.05.17.02.18.11.15.11.04 0-.1-.04-.22-.06-.21Zm-4.55.36c.05-.02.16-.04.17 0 0 .02-.03.05-.07.09-.07.06-.17.15-.1.22.1.1.2.03.3-.05.1-.08.22-.05.21.05-.01.1-.1.24-.47.27-.37.03-.46-.21-.42-.34.03-.1.27-.2.38-.24Z" fill="#DB1921"/><path d="M26.57 30.78c-.07 0-.3.1-.37.15-.05-.15.18-.36.37-.36l-.03-.52c.2.02.23.25.25.39.07-.01.17-.08.36-.26.02.27-.18.41-.33.5.02.31-.06.54-.15.56-.05.01-.1-.29-.1-.46Zm-.14 9.82-.08-1.02.62-.04.21 2.77-.62.04-.08-1.01-2.98.22-.06-.74 2.99-.22Zm.94 2.35.16.64-.68.16-.06-.22-3.04-.17-.2-.75 3.82.34Zm-.57.6.68-.17.1.42-3.2 2.03-.2-.75 2.62-1.53Zm-1.63-.47.4 1.6-.5.3-.5-1.94.6.05Zm2.66 1.8.4.76-1.85 2.04v.01l2.78-.26.4.76-3.22 1.6-.3-.59 2.17-1.08-.16-.3 1.3.18-3.77.34-.21-.41 2.5-2.78-.62 1.14-.16-.3-2.17 1.07-.3-.59 3.21-1.6v.01Zm1.85 3.4.48.57-2.78 2.24-.49-.57 2.79-2.24Zm-.81 1.57.03.03 2.12-.03.53.63-2.1.02-.1-.1h-1.17l.69-.55Zm-.04.34.73.1-.73 2.51-.58-.68.58-1.93Zm3.54.93.52.41-.44.53-.18-.14-2.54 1.65-.61-.48 3.25-1.97Zm-1.67 1.4 1.3 1.04-.2.54-1.6-1.26.5-.32Zm1.58-.59.44-.53.34.27-1.3 3.5-.61-.48 1.13-2.76Zm1.74.47.59.3.46 3.32-.35-.7.28.14 1.08-2.03.67.33-1.65 3.14-.59-.3-.45-3.34.34.7-.28-.14-1.08 2.05-.67-.34 1.65-3.13Zm2.82 4.99a1.45 1.45 0 0 1-.62-1.13c-.01-.24.01-.5.1-.78.1-.36.24-.66.45-.88.2-.23.46-.38.74-.45.3-.08.6-.07.95.02.28.07.51.18.7.34.19.15.33.33.42.53.08.2.12.42.1.64v.04l-.74-.2v-.02a.76.76 0 0 0-.18-.46.88.88 0 0 0-.47-.27.93.93 0 0 0-.53 0 .89.89 0 0 0-.42.31 1.95 1.95 0 0 0-.35 1.1c0 .16.04.3.09.42a.7.7 0 0 0 .24.3 1 1 0 0 0 .81.2.72.72 0 0 0 .57-.5l.01-.04-.8-.2.15-.54 1.51.4-.1.39a1.8 1.8 0 0 1-.28.6 1.35 1.35 0 0 1-1 .55c-.21.02-.44 0-.68-.07a2 2 0 0 1-.67-.3Zm5.1.76c-.22-.1-.4-.25-.53-.44-.13-.2-.2-.42-.2-.69l-.04-2.27.75-.02.05 2.21c0 .16.03.29.1.4.06.1.14.2.26.25.11.06.25.1.41.09.16 0 .3-.04.41-.1a.6.6 0 0 0 .25-.27.85.85 0 0 0 .08-.4l-.04-2.2.76-.02.04 2.28c0 .26-.05.49-.17.69-.12.2-.29.35-.51.46-.23.12-.5.18-.8.18-.31 0-.58-.04-.81-.14Zm2.43-3.48.64-.14 2.55 2.25-.72-.31.3-.07-.52-2.23.73-.17.82 3.43-.64.14-2.56-2.26.72.31-.3.07.53 2.25-.74.16-.81-3.43Zm3.31-.86.7-.27 1.34 3.27-.7.27-1.34-3.27Zm.9-.26.73-.4 2.13 1.99h.02l-.7-2.8.72-.41.76 3.64-.8.44-2.86-2.46Zm2.89-1.68 1.82-1.51.4.46-1.24 1.03.56.65 1.17-.98.39.43-1.17.98.59.68 1.24-1.04.4.46-1.81 1.52-2.35-2.68Zm1.98-1.67.94-1.12c.17-.2.35-.35.55-.44.2-.1.39-.12.59-.1.2.03.39.12.58.27.18.15.31.32.38.53.07.2.07.4 0 .6l1.59.3-.54.65-1.44-.3-.01.02-.01.01-.36.43 1.01.8-.48.58-2.8-2.22Zm2.23 0a.6.6 0 0 0 .16-.42.53.53 0 0 0-.22-.38.54.54 0 0 0-.43-.13.63.63 0 0 0-.4.24l-.4.49.88.7.41-.5Zm2.99-1.08c-.17.15-.36.23-.56.27-.2.03-.4 0-.6-.09l-.03-.02.34-.6h.03c.09.03.18.03.27 0a.7.7 0 0 0 .26-.15 1.13 1.13 0 0 0 .35-.63.5.5 0 0 0-.03-.27.38.38 0 0 0-.18-.18.34.34 0 0 0-.32-.01c-.1.05-.23.16-.38.33l-.25.29a1.6 1.6 0 0 1-.7.52.9.9 0 0 1-.71-.07.97.97 0 0 1-.43-.42 1.12 1.12 0 0 1-.1-.6 1.9 1.9 0 0 1 .67-1.23c.18-.13.36-.21.55-.24.2-.02.39 0 .58.1l.04.02-.34.6h-.03a.44.44 0 0 0-.26-.02.6.6 0 0 0-.25.13.91.91 0 0 0-.2.25.89.89 0 0 0-.12.31c0 .1 0 .19.04.26.03.07.09.13.16.17.1.05.21.05.32 0 .1-.05.23-.15.36-.31l.25-.3c.16-.19.32-.33.48-.43.15-.1.3-.15.46-.16.16 0 .32.04.48.13a.97.97 0 0 1 .56 1.04c-.02.22-.1.47-.25.73-.13.25-.29.44-.46.58Zm-2.03-3.8.26-.7 3.4 1.23-.27.69-3.39-1.22Zm1.24-1.77-.23 1-.61-.14.62-2.7.61.12-.23 1 2.92.64-.17.71-2.91-.63Z" fill="#DB1921"/><path d="m59.96 40.71-2.3 1.15.02-.8 1.57-.73v-.02l-1.52-.84.03-.8 2.22 1.3 1.35.05-.02.73-1.35-.04Z" fill="#DB1921"/><path fill-rule="evenodd" d="M163.1 31.66c.05.5-.01 1.7-.72 2.46-.9.95-1.5 3.83-.53 4.4.46.28.86-.25 1.44-1.04a8.45 8.45 0 0 1 3.03-2.83c.69-.35 1.28-.68 1.83-.98 1.7-.94 3-1.66 5.54-2 3.35-.46 4.54.1 4.34.65-.09.24-.44.52-.8.8-.43.35-.87.7-.81 1 .04.2.2.1.48-.07.43-.27 1.13-.7 2.02-.4 1.48.47 2.47.6 2.15 0-.32-.62-1.5-2.63-3.95-2.92 0-1.74 1.34-2.95 2.3-3.82l.08-.07a26.1 26.1 0 0 1 2.5-1.91c-.2-1.06-1-3.11-2.73-2.85-1.72.26-2.62 1.23-2.85 1.68.87-.38 2.67-.98 2.85-.3.13.47-.36.82-.93 1.22-.43.3-.91.64-1.22 1.1l-1.3 1.97c-.07-.62-.33-1.84-.68-1.72-.12.04-.14.36-.17.82-.06 1.16-.18 3.2-2.18 3.88.94-1.31.56-3.45.26-4.35.8-.63 2.37-1.95 2.34-2.25-.02-.18-.55.29-1.13.8-.59.52-1.23 1.1-1.47 1.1-.47 0-.58-1 0-1.9.39-.6 1.7-1.04 2.65-1.36a5 5 0 0 0 .98-.39c.38-.3-.7-1.7-2.16-1.83-.26-.07-.17-.35-.04-.72.15-.46.35-1.08.04-1.68-.57-1.1-2.26-1.43-2.22-.9.02.2.17.33.36.48.29.23.65.53.65 1.27 0 .36.05.64.1.9.12.62.2 1.06-.63 1.87-1.17 1.14-1.33 1.22-1.9 1.22-.2 0-.48-.4-.82-.91-.62-.9-1.43-2.09-2.36-1.77-.34.11-.02.6.39 1.24.43.67.96 1.5.94 2.21a41.8 41.8 0 0 1-.1 1.74 28.4 28.4 0 0 0-.1 4.46c.16.98 1.44 1.54 2.06 1.7-1.51.6-4.87 2.04-6.26 2.99.68-1.63-.57-2.67-1.28-2.99Zm-30.03 3.1c.14-1.13 1.29-1.18 1.97-1.18a85.7 85.7 0 0 1 6.43-2c.14-2.45.42-7.57.42-8.47 0-.62-.12-1.04-.24-1.43-.1-.32-.18-.62-.18-.97 0-.77 1.3-1.09 1.54-.46.2.51.15 7.53.1 10.97l.94-.25a3.83 3.83 0 0 0 2.22-1.29c.4-.4.75-.76 1.35-.89 2.5-.51 4.79 2.35 4.5 3.23-.2.6-1.15.48-2.77.28-.75-.1-1.65-.21-2.68-.28-2.6-.17-3.52.5-3.66.84 2.16 2.31 6.86 7.27 8.36 8.65a7.43 7.43 0 0 1 4.32 1.93l-5.2.42-7.48-9.1a8.85 8.85 0 0 1-2.74 6.2 9.8 9.8 0 0 1-5.9 2.48 51.5 51.5 0 0 1 4.23-3.06c2.67-1.76 2.67-3.87 2.66-6.56v-.24c-1.75.15-3.44 1.5-4.72 2.53-.83.65-1.48 1.18-1.89 1.18-1.04 0-1.74-1.14-1.58-2.54ZM88.7 21.6c-.88-.69-1.5-.28-1.69 0-.22-.63.6-1.64 1.84-1.42 2.01.37 2.16 3.24 1.99 4.6.22.05.9-.14 1.86-1.23.96-1.09.7-2.7.46-3.37.45.23 1.39 1.1 1.56 2.72.17 1.63-2.35 2.96-3.64 3.43.39.09 1.46.54 2.63 1.57 1.47 1.3-.12 2.38-1 2-.72-.29-1.69-1.55-2.09-2.15-.17.38-.8 1.42-1.92 2.53a5.79 5.79 0 0 1-2.79 1.6c.93-1.08 2.89-3.58 3.3-4.97.53-1.72.59-4.44-.51-5.3Zm-2.18.87a4.33 4.33 0 0 0-1.9 3.86c.25 2.47 2.03 2.78 2.7 2.31.67-.46.18-1.85-.8-2.74-.78-.72-.32-2.59 0-3.43Zm-7.58 3a4.1 4.1 0 0 0-1.5-2.57c.5 0 1.77.22 2.85 1.11 1.34 1.11 2.26 3.9.8 4.17-1.46.28-1.97-1.14-2.15-2.72Zm-2.12 7.24c-.75-.96-.68-3.07-.13-4.23.3 1.1 1.76 3.14 2.88 4.23.9.88-.48 3.14-1.37 4.59-.26.42-.48.77-.58 1-.48 1.03 0 3.07.25 1.9.25-1.16 1.55-4.3 2.71-5.48.67-.67 1.3-1.9 1.76-2.77.32-.64.56-1.08.63-.99.18.22-1.08 3.91-1.88 4.93-.8 1.03-1.7 3.73-1.23 5.05.47 1.31 1.08 4.78.32 4.86-.76.07-3.14-2.16-3.94-4.2-.64-1.66.13-3.19.87-4.66.18-.35.35-.7.5-1.05.66-1.48.33-1.86-.33-2.63-.14-.16-.3-.34-.46-.55Zm9.46 2.01c-.03.41.2 1.16 1.35.92 1.15-.25 1.53-.71 1.59-.92.18-.65.4-1.94-.38-2.48-.87-.58-.23-1.52.84-.85.85.52 1.16 1.9 1.16 2.68.62-.07 1.63-.26 1.86-.72.17-.31.08-.7.03-.93a1.03 1.03 0 0 1-.03-.18c.48.1 1.44.52 1.47 1.4.03 1.08-1.2 1.92-3.33 2.25 0 .66.16 1.45.24 1.75.47.67 2.33 2.51 6.02 4.51a69.77 69.77 0 0 1 4.4 2.63h-4.58c-.83-.13-3.3-1.48-6.45-5.9-.18.68-2.17 4.54-7.8 4.54l.65-.42c1.9-1.2 5.4-3.42 5.9-5.36v-1.17c-.37.62-1.47 1.79-2.94 1.51-1.83-.34-.24-3.26 0-3.26Zm24.2-6.82c-2.37-.6-2.65-4.14-2.49-5.84a7.65 7.65 0 0 0 2.97 2.77c1.89.91 2.49 3.82-.48 3.07Zm-1.42.23c-.48.16-1.31.82-.73 2.15.33.73.84 1.1 1.3 1.42.58.4 1.05.74.85 1.65-.27 1.3-1.37 1.03-1.89.72-.8.71-2.32 2.5-1.98 4.04.35 1.52 1.06 1.3 1.38 1 .13-.38.8-1.5 2.5-2.96 1.68-1.45 3.33-4.28 3.95-5.5.1 1.06-.2 3.8-2.15 6.2 1.31.5 2.17-.15 2.94-.72l.32-.24c.86-.6 3.34-1.71 5.24-1.71v-2.8a3.72 3.72 0 0 1-2.15-1.1c-.9-.98 1.12-2.53 2.63-2.53.83 0 1.2-.26 1.53-.48.27-.19.52-.36.96-.36.98 0 2.1 1.78 1.93 2.39-.08.29-.81.28-1.62.26-.9-.02-1.89-.04-2.2.35-.3.37-.16.5.07.7.22.2.53.47.57 1.12a13.9 13.9 0 0 1 0 2.12c1.12-.27 3.69-.56 5.03.48 1.67 1.3.87 2.87-.12 2.96-.55.04-.9-.24-1.29-.54a2.8 2.8 0 0 0-1.04-.6c-.99-.25-6.83-1.3-10.87 2.95-.69.8-1.4-.64-1.68-1.46-.3-.28-.97-.58-1.24.47-.08.29-.16.73-.25 1.26-.32 1.83-.82 4.63-1.99 5.2-1.5.74-4.16-4.65-3.9-6.93.16-1.44 1.1-2.33 1.8-3 .4-.38.74-.7.82-1 .11-.49-.22-.78-.61-1.15a3.12 3.12 0 0 1-.9-1.1c-.47-1.11-.38-2.88 2.8-3.26Zm56.36-1.29a4.46 4.46 0 0 0-1.86-3.08c.62 0 2.18.3 3.47 1.48 1.62 1.47 1.13 5.49 0 5.82-1.08.32-1.35-1.96-1.58-3.97l-.03-.25Zm-1.05 13.67c.4.5 1.44 1.46 2.44 1.23.52-.11 1.46-.57 2.47-1.07 1.45-.72 3.05-1.5 3.77-1.44 1.2.12 1.37 4.99-.53 6.38-1.51 1.12-3.64.79-4.52.48l3.9 2.91c1.23-1.06 3.59-3.9 3.24-6.7-.34-2.8-.73-3.48-.88-3.47.74-.16 2.42-.3 3.18.4.94.88 2.2-.91.59-1.47-1.3-.45-3.43-.35-4.34-.24v-.56c.65-.44 1.9-1.51 1.7-2.31-.25-1-1.5-1.54-3.76-.53-2.25 1-2.6 1.29-2.25 1.6.12.11.32.16.58.21.5.11 1.2.27 1.95 1.03.91.93.79 1.21.61 1.24-2.29.28-7.13 1.13-8.15 2.3Zm7.27-16.74c.05.51.03 1.62-.45 1.94-.44.3-.7.15-.86.06-.05-.03-.1-.06-.13-.06-.14 0-1.13-.91 1.44-1.94Zm0 2.71-.2.97c-.45.38-1.42 1.13-1.6 1.17-.23.06-.37-.77 0-.97a39.1 39.1 0 0 0 1.8-1.17Zm.33 2.82c.41-.47.17-1.04 0-1.28-.33.29-1.1.94-1.53 1.28-.53.42-.24 1.04 0 1 .24-.04 1-.43 1.53-1Zm1.1 7.24c.49-.43 1.39-1.38 1.11-1.65-.34-.35-.91-.47-1.56-.24-.65.24-.92.62-.65 1.05.21.33.83.7 1.1.84Z" fill="#DB1921"/><path d="M173.3 59c-.12 0-.29-.02-.42-.05v-.77c.12.02.26.03.4.03a1 1 0 0 0 .65-.21c.32-.25.43-.76.54-1.14L172.31 51h1l1.8 5.41-.37-.59h.45l-.38.6 1.8-5.42h1l-2.29 6.22c-.32.87-.67 1.42-1.14 1.62-.24.1-.53.16-.88.16Zm-2.32-2c-.6 0-1.04-.12-1.31-.36-.27-.25-.4-.65-.4-1.2V51.8h-.93V51h.93v-1.43h.97V51h1.29v.81h-1.28v3.39c0 .34.06.59.2.74.12.15.34.22.64.22a3.51 3.51 0 0 0 .44-.02v.8a6.86 6.86 0 0 1-.55.06Zm-4.68 0v-6h.94v6h-.95Zm.47-6.96a.64.64 0 0 1-.46-.2.64.64 0 0 1-.2-.45c0-.18.07-.34.2-.47a.64.64 0 0 1 .46-.19c.18 0 .33.07.46.2.13.12.2.28.2.46 0 .17-.07.33-.2.46a.63.63 0 0 1-.46.19ZM162.58 57c-.43 0-.82-.06-1.15-.2-.33-.13-.6-.31-.8-.55-.2-.23-.32-.51-.36-.83h.97c.08.24.24.43.47.58.23.15.53.22.9.22.27 0 .5-.04.7-.11.2-.08.36-.19.48-.32a.7.7 0 0 0 .17-.47c0-.2-.08-.37-.24-.5a1.86 1.86 0 0 0-.78-.35l-.9-.21a3.2 3.2 0 0 1-.9-.34 1.4 1.4 0 0 1-.53-.5 1.54 1.54 0 0 1 .11-1.6c.2-.25.46-.45.79-.6.33-.15.7-.22 1.11-.22.41 0 .77.06 1.09.2.32.12.57.3.76.53.2.23.32.5.36.82h-.93a.95.95 0 0 0-.42-.56 1.59 1.59 0 0 0-.86-.21c-.24 0-.44.04-.62.11a.93.93 0 0 0-.43.3.7.7 0 0 0-.16.46c0 .13.03.25.1.35.07.1.18.19.32.26.15.08.33.15.56.2l.9.22c.37.08.68.2.92.34s.42.3.54.5c.12.2.18.45.18.72v.01c0 .35-.1.65-.31.92-.2.26-.49.46-.84.61-.35.15-.75.22-1.2.22Zm-6.02 0v-6h.95v.98h.09c.1-.31.3-.55.56-.72a2.14 2.14 0 0 1 1.26-.24l.21.02v.92a2.67 2.67 0 0 0-.58-.05c-.3 0-.57.06-.8.18-.23.12-.41.29-.55.5-.13.22-.2.47-.2.76V57h-.94Zm-3.84 0c-.56 0-1.04-.12-1.44-.37a2.4 2.4 0 0 1-.93-1.03 3.63 3.63 0 0 1-.32-1.58c0-.6.1-1.13.32-1.58.22-.45.53-.8.92-1.06.4-.25.86-.38 1.39-.38a2.35 2.35 0 0 1 2.25 1.39c.2.43.3.94.3 1.51v.37h-4.69v-.75h4.21l-.47.68v-.37c0-.45-.06-.83-.2-1.12-.14-.3-.33-.51-.57-.66a1.58 1.58 0 0 0-.84-.22c-.31 0-.6.08-.85.23-.24.16-.44.38-.58.68-.15.3-.22.66-.22 1.1v.36c0 .42.07.77.21 1.06a1.57 1.57 0 0 0 1.53.9 2 2 0 0 0 .69-.1c.2-.07.35-.16.48-.28a1 1 0 0 0 .27-.33l.02-.05h.94v.04a2.06 2.06 0 0 1-.78 1.08c-.2.14-.44.26-.72.35a3.1 3.1 0 0 1-.92.13Zm-6.42 0-2.18-6h1l1.6 4.94h.1l1.6-4.94h1l-2.17 6h-.96Zm-4.3.03V51h1v6.03h-1Zm.51-7a.64.64 0 0 1-.46-.18.64.64 0 0 1-.2-.46c0-.18.07-.34.2-.47a.64.64 0 0 1 .46-.19c.18 0 .34.07.46.2.13.12.2.28.2.46 0 .17-.07.33-.2.46a.63.63 0 0 1-.46.19ZM135.63 57v-6h.95v.99h.08c.15-.31.37-.56.65-.73a2 2 0 0 1 1.06-.26c.66 0 1.17.19 1.52.57.35.37.53.91.53 1.61V57h-.95v-3.59c0-.53-.1-.92-.33-1.18-.22-.26-.57-.39-1.03-.39-.32 0-.59.07-.82.2-.22.14-.4.33-.53.58-.12.25-.18.54-.18.9V57h-.95Zm-4.73 0a3.6 3.6 0 0 1-1.67-.36 2.6 2.6 0 0 1-1.07-1.01 2.95 2.95 0 0 1-.38-1.5V49h.98v5.06c0 .4.08.76.25 1.07.17.3.41.54.73.71.32.17.7.26 1.16.26.45 0 .84-.09 1.15-.26.32-.17.56-.41.73-.71.17-.31.25-.66.25-1.07V49h.97v5.13c0 .57-.12 1.07-.37 1.5-.24.43-.6.77-1.06 1-.47.25-1.02.37-1.67.37Zm-10.54 2.03c-.47 0-.88-.07-1.23-.2a2.01 2.01 0 0 1-.84-.57c-.2-.23-.34-.51-.39-.83h.99c.06.22.2.4.46.54.26.15.6.22 1.01.22.53 0 .94-.12 1.23-.36.3-.24.41-.57.41-1v-1.18h-.05a1.99 1.99 0 0 1-1.09.9c-.23.07-.48.1-.75.1-.5 0-.94-.11-1.3-.35a2.39 2.39 0 0 1-.85-1 3.4 3.4 0 0 1-.3-1.46c0-.56.1-1.04.3-1.47a2.33 2.33 0 0 1 2.18-1.37c.27 0 .52.04.76.13a2.06 2.06 0 0 1 1.06.94h.04V51h1v5.88a2.03 2.03 0 0 1-1.25 1.88c-.4.18-.85.27-1.39.27Zm-.04-3.21c.36 0 .67-.08.93-.25.26-.17.46-.4.6-.7.14-.3.2-.64.2-1.03 0-.4-.06-.74-.2-1.04-.14-.3-.34-.54-.6-.7a1.65 1.65 0 0 0-.93-.26c-.36 0-.67.08-.92.25-.25.17-.45.4-.58.7-.13.3-.2.65-.2 1.04v.01c0 .39.07.73.2 1.03.13.3.33.53.58.7.25.17.56.25.92.25ZM111.5 57v-6h.95v.99h.09c.15-.31.36-.56.64-.73.28-.17.63-.26 1.07-.26.66 0 1.16.19 1.51.57.36.37.53.91.53 1.61V57h-.94v-3.59c0-.53-.11-.92-.34-1.18-.22-.26-.56-.39-1.03-.39-.31 0-.58.07-.81.2-.23.14-.4.33-.53.58a1.9 1.9 0 0 0-.19.9V57h-.94Zm-4.4 0c-.36 0-.7-.07-1-.21a1.62 1.62 0 0 1-.96-1.51v-.01a1.55 1.55 0 0 1 .99-1.46c.31-.14.7-.23 1.15-.25l2.16-.13v.75l-2.04.13c-.45.02-.77.11-.98.27a.8.8 0 0 0-.3.67c0 .3.1.53.33.7.23.16.51.24.85.24.32 0 .6-.06.86-.19.25-.13.44-.3.59-.52.14-.22.25-.47.25-.74v-1.81c0-.36-.15-.63-.37-.82-.22-.19-.54-.28-.98-.28-.35 0-.64.06-.87.19a.91.91 0 0 0-.45.52v.01h-.95v-.03c.06-.3.19-.57.39-.8.2-.22.47-.4.8-.53a3 3 0 0 1 1.11-.19c1.44 0 2.32.73 2.32 1.93V57h-1v-.96h-.12a1.98 1.98 0 0 1-1.05.85c-.22.07-.46.11-.73.11Zm-7.31 0v-8h.94v8h-.94Zm3.69 0-2.29-2.8.7-.6 2.78 3.4h-1.2Zm-2.87-2.06-.04-1.16h.25l2.53-2.5h1.15l-2.78 2.62-.23.22-.88.82ZM90.18 57v-5.9h.95v.9h.08c.13-.32.33-.56.6-.74.27-.17.6-.26.98-.26.27 0 .5.04.71.13a1.77 1.77 0 0 1 .9.9h.1a1.89 1.89 0 0 1 1.04-.9c.23-.09.48-.13.75-.13.4 0 .74.07 1.01.22.28.15.5.37.64.66.14.28.22.63.22 1.05V57h-.95v-3.86c0-.29-.04-.53-.14-.72a.88.88 0 0 0-.4-.43c-.18-.1-.4-.15-.68-.15a1.3 1.3 0 0 0-1.18.68c-.12.21-.17.44-.17.69V57h-.95v-4c0-.24-.05-.44-.15-.61a1 1 0 0 0-.43-.4c-.18-.1-.4-.15-.64-.15-.25 0-.48.07-.69.2a1.5 1.5 0 0 0-.65 1.31V57h-.95Zm-4.41 0c-.37 0-.7-.07-1-.21a1.62 1.62 0 0 1-.96-1.51v-.01c0-.35.09-.64.25-.88.17-.25.41-.44.73-.58.32-.14.7-.23 1.16-.25l2.15-.13v.75l-2.04.13c-.44.02-.77.11-.98.27a.8.8 0 0 0-.3.67c0 .3.11.53.34.7.22.16.5.24.84.24.33 0 .61-.06.86-.19s.45-.3.59-.52c.14-.22.22-.47.22-.74v-1.81c0-.36-.11-.63-.33-.82-.22-.19-.55-.28-.99-.28-.35 0-.64.06-.86.19a.91.91 0 0 0-.45.52v.01h-.95v-.03c.05-.3.18-.57.38-.8.2-.22.47-.4.8-.53a3 3 0 0 1 1.11-.19c.48 0 .89.08 1.22.23.33.16.58.38.75.67.18.28.26.63.26 1.03V57h-.94v-.96h-.09a1.97 1.97 0 0 1-1.77.96Zm-5.26 0v-7H78v-1h6v1h-2.51v7h-.98Z" fill="#DB1921"/></svg>