<svg xmlns="http://www.w3.org/2000/svg" width="200" height="60" viewBox="0 0 200 60"><path fill="url(#ap4rfhmpb)" d="M52.48 10.33c-13.9 5.31-22.92 16.05-19.9 23.93 2.15 5.56 9.92 8.45 19.03 7.68L60.04 8q-3.86.9-7.57 2.33z"/><path fill="url(#bp4rfhmpb)" d="M57.86 49.36c13.9-5.3 22.28-16.03 19.25-23.9-2.18-5.67-9.46-8.23-18.78-7.31L49.53 52c2.65-.48 5.54-1.59 8.3-2.63z"/><path fill="url(#cp4rfhmpb)" d="M59.22 8c.37-.03 1.14.45.69 2.02-.18.66-1.51 5.65-3.23 12.24-.04.48.03.95.38 1.15.66.4 3.88 4.35 2.5 9.82-1.35 5.47-5.43 15.3-8.25 17.62-1.09.89-2.06 1.16-2.48 1.14h-.05a.5.5 0 0 1-.46-.37v-.2z"/><path fill="#fff" fill-rule="evenodd" d="M93.3 19.63v-2.05c.01-1.6.03-3.46 0-4.6l-5.73 1.4-.08 5.25h-4.6v4.98h4.6l.05 3.59a331 331 0 0 0 .1 5.97c.02.66.05 1.35.15 1.99a7.2 7.2 0 0 0 3.1 4.5c.93.6 2.04.95 3.12 1.17q1.33.3 2.67.18a11 11 0 0 0 3.59-.77l.36-.17c.43-.19.9-.4 1.24-.71-.34-.8-.83-1.8-1.28-2.75l-.72-1.5a5.7 5.7 0 0 1-3.92.85 3.2 3.2 0 0 1-2.44-2c-.12-.6-.13-1.23-.15-1.86l-.02-.54c-.03-1.3-.03-3.47-.04-5.37v-2.58h7.12v-4.98zm65.87.08c2.7.15 5.59 1.11 7.22 3.32.33.45 1.31 2.21 1.31 2.21-1.26.4-2.82.81-4.23 1.2l-1.22.33c-.48-1.21-.91-1.96-2.64-2.55-1.24-.25-2.7-.42-3.86.2-.58.33-1.13.86-1.19 1.55-.04.93.64 1.4 1.45 1.68.86.28 1.82.5 2.7.71l.3.07.24.05c1.25.29 2.56.58 3.79.91a7.5 7.5 0 0 1 4 2.63c1.67 2.34 1.06 5.84-1.06 7.7-2.35 2.05-5.43 2.4-8.45 2.32-2.55 0-5.21-.67-7.2-2.3a7 7 0 0 1-1.96-2.8l5.7-1.54c.37.98 1.28 1.57 2.2 1.92.55.2 1.18.24 1.79.27l.31.01c1.26.03 2.78-.08 3.6-1.15l.03-.06c.46-.73.65-1.03.02-1.8a6 6 0 0 0-2.7-1.12l-.55-.13-1.56-.34c-2.52-.5-5.14-1.03-6.95-2.9a5 5 0 0 1-1.25-2.2c-.06-.38-.06-.83-.06-1.26v-.32c0-.48 0-1.01.11-1.48 1.44-4.07 5.26-5.23 9.3-5.17zm-20.43 0c3.54.37 6.36 2.25 7.68 5.5-1.38.44-2.95.88-4.34 1.26l-.1.03q-.45.13-.88.28c0-.15-.14-.54-.23-.7a4.4 4.4 0 0 0-3.12-2.04 5.3 5.3 0 0 0-3.2.4c-.34.24-.73.57-.94.93-.23.47-.25 1.13.08 1.56.36.44.97.63 1.53.8l.25.08q1.37.39 2.79.68c1.17.27 2.33.54 3.46.9 2.49.72 5.02 2.37 5.03 5.18-.02 3.82-2.15 6.06-5.77 7.06-1.29.36-2.67.37-4 .4h-.55c-2.5.05-5.07-.62-7.07-2.12a7 7 0 0 1-2.24-3.3c1.08-.28 4.59-1.25 5.69-1.56l.18.35c.16.33.31.63.58.93.9.85 2.09 1.32 3.32 1.3 1.56 0 3.75-.1 4.3-1.83.16-.99-.64-1.58-1.45-1.93l-1.16-.31-.16-.04q-1.02-.25-2.09-.47c-1.3-.29-2.64-.58-3.89-.98a7.4 7.4 0 0 1-3.94-2.74c-.86-1.18-.79-2.74-.66-4.1.53-2.83 3.13-4.56 5.8-5.25 1.26-.34 2.62-.36 3.9-.35zm-13.29 11.13c0 6.2-5.23 11.2-11.68 11.2s-11.68-5-11.68-11.2 5.23-11.21 11.68-11.21 11.68 5.01 11.68 11.2m-5 0c0 3.43-3 6.22-6.68 6.22-3.69 0-6.68-2.79-6.68-6.22 0-3.44 3-6.23 6.68-6.23 3.69 0 6.67 2.79 6.67 6.23"/><defs><radialGradient id="ap4rfhmpb" cx="0" cy="0" r="1" gradientTransform="matrix(.41756 11.22694 -13.28491 .4941 50.83 30.4)" gradientUnits="userSpaceOnUse"><stop stop-color="#2C67F6"/><stop offset=".12" stop-color="#1853E3"/><stop offset=".5" stop-color="#2B9AFA"/><stop offset="1" stop-color="#4DA9F8"/></radialGradient><radialGradient id="bp4rfhmpb" cx="0" cy="0" r="1" gradientTransform="matrix(4.2164 -3.14034 3.78052 5.07593 57.4 22.96)" gradientUnits="userSpaceOnUse"><stop offset=".2" stop-color="#2C67F6"/><stop offset="1" stop-color="#4DA9F8"/></radialGradient><linearGradient id="cp4rfhmpb" x1="49.24" x2="50.46" y1="50.8" y2="51.21" gradientUnits="userSpaceOnUse"><stop offset=".06" stop-color="#1A55E5"/><stop offset="1" stop-color="#1A55E5" stop-opacity="0"/></linearGradient></defs></svg>