<svg xmlns="http://www.w3.org/2000/svg" width="132" height="60" viewBox="0 0 132 60"><path fill="url(#aj4bwfxj1)" d="M26.87 13.9C15.42 18.25 7.99 27.04 10.48 33.48c1.77 4.55 8.17 6.92 15.67 6.29L33.1 12q-3.19.73-6.24 1.9z"/><path fill="url(#bj4bwfxj1)" d="M31.3 45.84c11.44-4.33 18.34-13.11 15.85-19.56-1.8-4.63-7.79-6.72-15.46-5.98L24.43 48c2.2-.4 4.57-1.3 6.84-2.15l.02-.01"/><path fill="url(#cj4bwfxj1)" d="M32.42 12c.3-.03.94.37.57 1.65-.16.54-1.25 4.62-2.66 10.02-.04.39.02.77.3.94.55.32 3.2 3.56 2.07 8.03-1.12 4.48-4.48 12.52-6.8 14.42-.9.72-1.7.95-2.04.93h-.04a.4.4 0 0 1-.3-.14.4.4 0 0 1-.08-.33z"/><path fill="#fff" fill-rule="evenodd" d="M60.48 21.51v-1.67c.01-1.32.03-2.83 0-3.76l-4.72 1.13-.06 4.3h-3.78v4.08h3.78l.04 2.93q.01 2.45.09 4.89 0 .82.12 1.63a6 6 0 0 0 2.56 3.67c.75.5 1.67.79 2.56.97q1.08.25 2.2.15a9 9 0 0 0 2.95-.63l.3-.14c.35-.16.75-.33 1.02-.58-.28-.66-.69-1.48-1.06-2.25L65.9 35c-.95.6-2.1.85-3.23.69a2.6 2.6 0 0 1-2-1.65c-.1-.49-.11-1-.13-1.51l-.01-.44c-.03-1.08-.03-2.84-.04-4.4V25.6h5.87v-4.1zm54.25.07c2.22.12 4.6.91 5.95 2.72.26.37 1.08 1.8 1.08 1.8-1.04.33-2.33.67-3.49.98l-1 .28c-.4-1-.76-1.6-2.18-2.09-1.02-.2-2.23-.34-3.17.16-.48.27-.94.7-.99 1.27-.03.76.53 1.15 1.2 1.38.7.23 1.5.41 2.22.58l.24.05.2.04q1.58.35 3.13.75c1.3.34 2.46 1.1 3.3 2.16 1.37 1.9.86 4.77-.89 6.3-1.93 1.67-4.46 1.95-6.95 1.89-2.1 0-4.3-.54-5.93-1.88a6 6 0 0 1-1.62-2.29l4.7-1.26c.3.8 1.05 1.28 1.8 1.57.47.17.98.2 1.48.22l.26.01c1.04.02 2.3-.07 2.96-.94l.03-.05c.38-.6.53-.84.02-1.47a5 5 0 0 0-2.23-.92l-.45-.11-1.28-.27c-2.08-.41-4.23-.85-5.73-2.37a4 4 0 0 1-1.03-1.8q-.06-.5-.05-1.04V27c0-.4 0-.83.1-1.21 1.18-3.33 4.32-4.28 7.65-4.23zm-16.82 0c2.9.3 5.23 1.84 6.32 4.5-1.14.36-2.44.72-3.58 1.03l-.09.03q-.36.1-.71.22c0-.12-.12-.44-.2-.56a3.6 3.6 0 0 0-2.56-1.67 4.4 4.4 0 0 0-2.63.32c-.29.2-.6.47-.78.76-.19.38-.2.93.07 1.28.3.36.8.52 1.26.66l.2.06q1.13.31 2.3.56c.96.22 1.92.43 2.85.73 2.05.6 4.14 1.94 4.14 4.24-.02 3.13-1.77 4.96-4.75 5.78-1.06.29-2.2.3-3.3.32H96a9.4 9.4 0 0 1-5.82-1.73 5.6 5.6 0 0 1-1.85-2.7c.9-.23 3.78-1.02 4.69-1.28l.14.28c.14.28.27.53.49.77a4 4 0 0 0 2.73 1.06c1.29 0 3.1-.07 3.55-1.5.12-.8-.53-1.28-1.2-1.58l-.95-.25-.14-.03q-.84-.2-1.72-.38c-1.08-.24-2.18-.48-3.2-.8a6 6 0 0 1-3.25-2.25c-.71-.96-.65-2.24-.54-3.36.43-2.3 2.58-3.72 4.78-4.3 1.03-.26 2.16-.28 3.21-.28zm-10.95 9.1c0 5.07-4.3 9.18-9.62 9.18s-9.62-4.1-9.62-9.18c0-5.06 4.3-9.17 9.62-9.17s9.62 4.1 9.62 9.17m-4.12 0c0 2.82-2.46 5.1-5.5 5.1s-5.5-2.28-5.5-5.1c0-2.8 2.46-5.1 5.5-5.1s5.5 2.3 5.5 5.1"/><defs><radialGradient id="aj4bwfxj1" cx="0" cy="0" r="1" gradientTransform="rotate(87.85 -2.99 28.4)scale(9.19197 10.9479)" gradientUnits="userSpaceOnUse"><stop stop-color="#2C67F6"/><stop offset=".12" stop-color="#1853E3"/><stop offset=".5" stop-color="#2B9AFA"/><stop offset="1" stop-color="#4DA9F8"/></radialGradient><radialGradient id="bj4bwfxj1" cx="0" cy="0" r="1" gradientTransform="matrix(3.47228 -2.56935 3.0873 4.17224 30.92 24.24)" gradientUnits="userSpaceOnUse"><stop offset=".2" stop-color="#2C67F6"/><stop offset="1" stop-color="#4DA9F8"/></radialGradient><linearGradient id="cj4bwfxj1" x1="24.2" x2="25.2" y1="47.02" y2="47.36" gradientUnits="userSpaceOnUse"><stop offset=".06" stop-color="#1A55E5"/><stop offset="1" stop-color="#1A55E5" stop-opacity="0"/></linearGradient></defs></svg>