<svg width="202" height="54" viewBox="0 0 202 54" xmlns="http://www.w3.org/2000/svg"><path d="M127.37 7.21c0 .99-.83 1.78-1.87 1.78-1 0-1.84-.8-1.84-1.78s.85-1.77 1.84-1.77c1.04 0 1.87.8 1.87 1.77ZM127 21h-3V10h3v11ZM81.54 9.02c1.04 0 1.87-.8 1.87-1.77 0-.99-.83-1.78-1.87-1.78-1 0-1.84.8-1.84 1.78s.85 1.77 1.84 1.77ZM80 21h3V10h-3v11ZM43 21h-3V9h-4V6h11v3h-4v12ZM50 21l-3 .02V10h3v1.88c.36-1 1.34-1.75 2.53-1.75h.03c.3 0 .6 0 .94.1v2.84a4 4 0 0 0-1.31-.2c-1.38 0-2.19 1-2.19 2.7V21ZM88 21h-3V10.01l3-.01v1c.57-.82 1.53-1.21 2.9-1.21 2.57 0 4.1 1.8 4.1 4.45V21h-3v-6c0-1.47-.56-2.66-1.77-2.66-1.36 0-2.23.93-2.23 2.89V21ZM117 21l6-15h-3.5l-4 10.5L111 6h-3.5l6.5 15h3ZM153.45 21h-2.93l-2.02-6.25-2 6.25h-2.93L140 10h3.14l2.05 7.04 2.17-7.04h2.26l2.2 7.04 2.02-7.04H157l-3.55 11ZM58.92 21.24c1.52 0 2.57-.77 3.08-1.47V21h3V10h-3v1.23a3.78 3.78 0 0 0-3.08-1.47c-2.93 0-5.17 2.64-5.17 5.74s2.24 5.74 5.17 5.74Zm.64-2.75c-1.68 0-2.78-1.25-2.78-2.99 0-1.74 1.1-3 2.78-3 1.67 0 2.77 1.26 2.77 3s-1.1 3-2.77 3ZM75 19.77c-.5.7-1.56 1.47-3.08 1.47-2.93 0-5.17-2.64-5.17-5.74s2.24-5.74 5.17-5.74c1.52 0 2.57.77 3.08 1.47V6h3v15h-3v-1.23Zm-5.22-4.27c0 1.74 1.1 3 2.78 3 1.67 0 2.77-1.26 2.77-3s-1.1-3-2.77-3c-1.68 0-2.78 1.26-2.78 3ZM102.23 25.82c3.36 0 5.77-1.72 5.77-5.68V10h-3v1.23a3.6 3.6 0 0 0-3.06-1.47c-2.88 0-5.2 2.46-5.2 5.56 0 3.08 2.32 5.68 5.2 5.68a3.8 3.8 0 0 0 3.06-1.58v.74c0 1.76-1.04 3.02-2.82 3.02a4.84 4.84 0 0 1-3.43-1.37l-1.65 2.25c1.25 1.2 3.21 1.76 5.13 1.76Zm.35-7.68a2.75 2.75 0 0 1-2.8-2.82c0-1.69 1.28-2.81 2.8-2.81 1.52 0 2.8 1.12 2.8 2.81a2.75 2.75 0 0 1-2.8 2.82ZM139.78 18.72a5.96 5.96 0 0 1-5.1 2.47c-3.28 0-5.83-2.27-5.83-5.74a5.62 5.62 0 0 1 5.78-5.75c2.89 0 5.42 1.83 5.42 5.42a6.01 6.01 0 0 1-.04 1.13h-8.24c.18 1.47 1.48 2.19 2.93 2.19 1.39 0 2.33-.62 2.84-1.39l2.24 1.67Zm-5.23-6.53c-1.13 0-2.38.57-2.67 1.91h5.15c-.26-1.32-1.36-1.91-2.48-1.91ZM12 6H0v6h6v9h6V6Zm12 15h-7l6-15h7l-6 15Zm-7-9a3 3 0 1 0 0-6 3 3 0 0 0 0 6Z" fill="currentColor"/><path fill-rule="evenodd" d="m166 6-6 15h36l6-15h-36Zm9.78 6.29c0-1.35-1.05-2.39-2.49-2.39h-2.36V17h1.45v-2.32h.91c1.44 0 2.5-1.04 2.5-2.39Zm-1.4 0c0 .58-.45 1.03-1.1 1.03h-.9v-2.06h.9c.65 0 1.1.45 1.1 1.03Zm3.16-2.39V17H179v-2.99h.36l2.43 2.99h1.75l-2.55-3.15c.94-.3 1.46-.9 1.46-1.85 0-1.18-.85-2.1-2.18-2.1h-2.72Zm2.55 2.87H179v-1.54h1.1c.54 0 .91.28.91.77 0 .48-.37.77-.9.77Zm7.73 4.35a3.67 3.67 0 1 0 0-7.33 3.67 3.67 0 0 0 0 7.33Zm0-1.4a2.24 2.24 0 0 1-2.21-2.27c0-1.24.97-2.27 2.21-2.27a2.24 2.24 0 0 1 2.21 2.27c0 1.24-.97 2.27-2.21 2.27Z" fill="currentColor"/><path d="M1.03 36.15V47h6.75v-1.71H2.82v-9.14h-1.8Zm11.43 11c2.26 0 4-1.75 4-3.97a3.94 3.94 0 0 0-4-3.97c-2.26 0-4 1.75-4 3.97a3.94 3.94 0 0 0 4 3.97Zm0-1.56c-1.36 0-2.3-1.05-2.3-2.41s.94-2.41 2.3-2.41c1.35 0 2.3 1.05 2.3 2.41s-.95 2.41-2.3 2.41Zm9.15 1.56c2.26 0 4-1.75 4-3.97a3.94 3.94 0 0 0-4-3.97c-2.26 0-4 1.75-4 3.97a3.94 3.94 0 0 0 4 3.97Zm0-1.56c-1.36 0-2.3-1.05-2.3-2.41s.94-2.41 2.3-2.41c1.34 0 2.3 1.05 2.3 2.41s-.96 2.41-2.3 2.41Zm5.7-10.05V47h1.68v-3.7l3.65 3.7h2.15l-4.17-4.23 3.4-3.41H31.9L29 42.26v-6.72H27.3Zm12.25 5.32V47h1.68v-6.14h2.18v-1.5h-2.18v-1.09c0-.94.41-1.3 1.28-1.3.32 0 .66.07.9.16v-1.5c-.32-.1-.73-.18-1.25-.18-1.47 0-2.61.91-2.61 2.63v1.28h-1.6v1.5h1.6Zm6.05-3.17c.63 0 1.12-.5 1.12-1.13 0-.6-.5-1.11-1.12-1.11-.61 0-1.13.5-1.13 1.11 0 .63.52 1.13 1.13 1.13Zm4.79 1.67h-1.68V47h1.68v-3.73c0-1.53.87-2.34 1.83-2.34.3 0 .55.05.84.14v-1.73a3.3 3.3 0 0 0-.65-.06c-.87 0-1.73.57-2.02 1.44v-1.36Zm6.4 7.8c1.58 0 2.77-.9 2.77-2.38 0-1.25-.8-1.92-2.14-2.32l-.78-.23c-.75-.21-.92-.53-.92-.9 0-.46.52-.72 1.03-.72.63 0 1.11.3 1.45.78l1.16-.88c-.53-.85-1.43-1.3-2.58-1.3-1.53 0-2.72.82-2.74 2.18-.01 1.13.68 1.97 2 2.34l.68.18c.92.28 1.17.54 1.17.98 0 .54-.5.81-1.1.81-.77 0-1.52-.38-1.83-1.05l-1.24.88c.55 1.09 1.71 1.62 3.07 1.62Zm7.73-.08c.52 0 .91-.06 1.25-.17v-1.5c-.25.1-.58.15-.9.15-.87 0-1.29-.35-1.29-1.3v-3.4h2.19v-1.5h-2.19v-2.12h-1.68v2.12h-1.59v1.5h1.6v3.68c0 1.73 1.14 2.54 2.6 2.54ZM72 47h2l4.5-11h-2L72 47Zm14.14 0v-9.14H83v-1.71h8.1v1.71h-3.17V47h-1.79Zm-41.37-7.64V47h1.68v-7.64h-1.68ZM92.39 47V35.54h1.68v4.86a2.63 2.63 0 0 1 2.32-1.2c1.77 0 2.92 1.26 2.92 3.2V47h-1.68v-4.32c0-1.21-.61-1.95-1.6-1.95-1.1 0-1.96.88-1.96 2.51V47h-1.68Zm8.53-3.82a3.88 3.88 0 0 1 4-3.97c2 0 3.68 1.33 3.68 3.79 0 .16 0 .3-.02.55h-6c.07 1.25 1.08 2.07 2.35 2.07a2.4 2.4 0 0 0 2.18-1.16l1.29.92a3.93 3.93 0 0 1-3.49 1.77 3.83 3.83 0 0 1-3.98-3.97Zm3.93-2.55c-.97 0-1.97.56-2.2 1.7h4.25a2 2 0 0 0-2.05-1.7Zm7.16 6.37h-1.69v-7.64h1.69v1.04a2.63 2.63 0 0 1 2.32-1.2c1.77 0 2.92 1.26 2.92 3.2V47h-1.68v-4.32c0-1.21-.61-1.95-1.6-1.95-1.1 0-1.96.88-1.96 2.51V47Zm10.98 0V35.54h1.69V47h-1.69Zm3.4-3.82a3.88 3.88 0 0 1 4-3.97c2 0 3.68 1.33 3.68 3.79l-.01.55h-6.01c.08 1.25 1.08 2.07 2.35 2.07a2.4 2.4 0 0 0 2.19-1.16l1.28.92a3.93 3.93 0 0 1-3.48 1.77 3.83 3.83 0 0 1-4-3.97Zm3.94-2.55c-.98 0-1.97.56-2.2 1.7h4.25a2 2 0 0 0-2.05-1.7Zm4.92 2.55c0-2.19 1.59-3.97 3.68-3.97 1.1 0 2.02.56 2.45 1.17v-1.02h1.68V47h-1.68v-1.02a3.05 3.05 0 0 1-2.45 1.17c-2.1 0-3.68-1.79-3.68-3.97Zm6.26 0c0-1.38-.91-2.45-2.27-2.45-1.36 0-2.28 1.07-2.28 2.45 0 1.38.92 2.44 2.28 2.44 1.36 0 2.27-1.06 2.27-2.44Zm3.83 7.01V39.36h1.68v1.02a3.08 3.08 0 0 1 2.46-1.17c2.09 0 3.68 1.78 3.68 3.97 0 2.18-1.59 3.97-3.68 3.97-1.1 0-2.04-.56-2.46-1.17v4.21h-1.69Zm6.1-7.01c0-1.38-.93-2.45-2.27-2.45-1.36 0-2.3 1.07-2.3 2.45 0 1.38.94 2.44 2.3 2.44 1.34 0 2.28-1.06 2.28-2.44Zm5.42 3.52a1.67 1.67 0 1 0 0-3.34 1.67 1.67 0 0 0 0 3.34Z" fill="currentColor"/></svg>