<svg width="612" height="340" viewBox="0 0 612 340" fill="none" xmlns="http://www.w3.org/2000/svg"><g clip-path="url(#akuar4r4u)"><path fill="#000" d="M0 0h612v340H0z"/><g clip-path="url(#bkuar4r4u)"><g opacity=".5"><path fill="#F23645" d="M15 309h2v31h-2zM29 300h2v40h-2z"/><path fill="#089981" d="M43 290h2v50h-2zM57 284h2v56h-2z"/><path fill="#F23645" d="M70 327h2v13h-2zM84 316h2v24h-2z"/><path fill="#089981" d="M98 276h2v64h-2zM237 276h2v64h-2zM389 276h2v64h-2z"/><path fill="#F23645" d="M112 303h2v37h-2zM251 303h2v37h-2zM403 303h2v37h-2zM126 303h2v37h-2zM265 303h2v37h-2zM417 303h2v37h-2z"/><path fill="#089981" d="M140 275h2v65h-2zM278 275h2v65h-2zM431 275h2v65h-2z"/><path fill="#F23645" d="M154 300h2v40h-2zM292 300h2v40h-2zM445 300h2v40h-2zM542 300h2v40h-2zM168 275h2v65h-2zM306 275h2v65h-2zM459 275h2v65h-2zM556 275h2v65h-2z"/><path fill="#089981" d="M181 302h2v38h-2zM320 302h2v38h-2zM473 302h2v38h-2zM570 302h2v38h-2zM500 302h2v38h-2zM597 302h2v38h-2zM376 302h2v38h-2zM528 302h2v38h-2z"/><path fill="#F23645" d="M195 284h2v56h-2zM334 284h2v56h-2zM486 284h2v56h-2zM584 284h2v56h-2zM209 325h2v15h-2zM348 325h2v15h-2zM223 290h2v50h-2zM362 290h2v50h-2zM514 290h2v50h-2zM611 290h2v50h-2z"/></g><path transform="matrix(-1 0 0 1 612 0)" fill="url(#ckuar4r4u)" d="M0 0h612v71H0z"/><path transform="matrix(1 0 0 -1 0 340)" fill="url(#dkuar4r4u)" d="M0 0h612v41H0z"/><path d="m-2 17.35 18.99 6.8 21.91-2.27 27.75 6.8L87 34.12l31.71-5.44 30.5 27.65 42.69-4.66 28.13 4.66 16.07 11.79 30.68 3.17 18.99-5.44 23.37 5.44 40.9-28.56 29.21-10.88 29.22-5.44 29.21 7.71 32.14 6.8 17.53 27.2 17.53-9.07 16.07 1.82L556 48.63l33.6 7.7 32.14-4.98 32.13 22.21 19 7.48 27.75 4.3L742 23.93" stroke="url(#ekuar4r4u)" stroke-width="2"/><path d="M16.93 24-2 17.36v322h744V23.79l-41.25 60.18-27.66-4.22-18.92-7.33-32.03-21.76-32.03 4.89-33.49-7.56-34.94 12-16.01-1.78-17.47 8.88-17.47-26.65-32.03-6.66-29.12-7.55-29.12 5.33-29.12 10.66-40.76 27.98-23.3-5.33-18.92 5.33-30.58-3.1-16.01-11.55-30.48-4.9-42.54 4.9-27.97-27.1-31.6 5.33-20.28-5.33-30.14-6.66L16.93 24Z" fill="url(#fkuar4r4u)" fill-opacity=".17"/><path d="m709 100.95-2.77-5.79-6.15-10.61-8.62-7.24h-14.15c-1.64.64-5.04 1.93-5.54 1.93-.49 0-8.2 4.18-12 6.27-.6 0-1.9.1-2.15.49-.3.48-3.07 3.37-3.38 3.86-.25.38-7.9 3.7-11.7 5.3h-3.38l-12.61-4.34h-4c-.92 0-4.3 0-5.23.48-.74.39-8.51-.16-12.3-.48-1.34-.96-4.19-2.99-4.93-3.38-.92-.48-5.23-4.34-5.54-4.34-.24 0-6.66-12.22-9.84-18.33-.82-1.45-2.9-4.64-4.62-5.8-2.15-1.44-4.3-4.82-4.92-5.3-.49-.39-3.69-5.95-5.23-8.69-4.4-4.34-13.23-13.12-13.23-13.5 0-.4-3.07-5.96-4.61-8.69L540.72 17l-3.39 2.41c-2.36.32-7.14 1.06-7.38 1.45-.25.39-8.72 3.7-12.92 5.3l-20.3 15.45a425.39 425.39 0 0 1-4.62 3.86c-.5.38-3.08 3.37-4.31 4.82l-12.61 15.44-2.77 5.3c-.52.97-1.97 3.58-3.7 6.28A5387.9 5387.9 0 0 1 453.97 100a852 852 0 0 0-4.3 6.27c-.32.48-3.09 5.8-3.4 6.76-.24.77-6.86 15.76-10.15 23.16-.92 2.57-2.83 7.9-3.07 8.68-.25.77-6.67 19.3-9.85 28.47-1.13 1.93-3.5 6.17-4 7.72-.61 1.93-4 10.13-4.3 11.1-.25.77-9.13 19.94-13.54 29.43l-12.61 18.33-3.39 2.41-4.61 4.35c-1.54 1.44-18.77 4.82-19.08 4.82h-4.61c-4 .16-12.25.39-13.23 0-1.23-.48-4.62-2.41-5.23-2.41-.62 0-7.08-1.93-7.7-1.93-.48 0-5.12-.32-7.38-.48h-8.61c-4.61-.8-13.9-2.42-14.15-2.42-.3 0-4.3-.48-4.92-.48-.62 0-4.62 0-4.93.48-.24.39-7.48 4.02-11.07 5.8-1.33 1.12-4.06 3.47-4.3 3.85-.32.49-13.55 1.45-14.47.97a82.64 82.64 0 0 1-4.92-3.38l-7.38-11.58c-2.36-5.47-7.14-16.5-7.39-16.89-.24-.38-5.43-11.74-8-17.37-1.23-2.09-3.94-6.46-4.92-7.23-1.23-.97-4.3-4.83-6.15-5.8-1.48-.77-6.36-2.25-8.62-2.89l-4.3-3.38-3.08-1.44c-1.54.16-4.74.48-5.23.48-.62 0-6.46 4.34-7.08 4.34-.61 0-7.69-.96-8.3-.96-.5 0-4.72-1.61-6.77-2.42-3.28-.32-9.9-.96-10.15-.96H162c-.5 0-3.28.97-4.62 1.45l-9.84 11.1a9.18 9.18 0 0 1-2.46-.97c-.62-.48-6.46-2.9-6.77-3.38l-10.46-16.4c-.92-2.74-2.9-8.5-3.38-9.65a75.83 75.83 0 0 0-3.7-6.28l-8.3-15.44c-.93-1.92-2.83-5.98-3.08-6.75-.3-.97-2.77-7.24-3.08-7.24-.24 0-7.69-15.12-11.38-22.67-.92-2.74-2.83-8.3-3.08-8.69-.24-.39-2.56-7.88-3.69-11.58l-12-19.78-2.77-4.34c-.92-1.45-2.76-6.28-3.69-7.72a8.86 8.86 0 0 0-2.46-2.42L52.47 36.78h-2.46c-.92 0-3.07-.48-4.92 0-1.84.48-10.46 4.34-10.77 4.34-.3 0-2.77 1.45-5.53 2.42-2.77.96-2.77 1.44-6.16 3.37-3.38 1.93-10.46 11.58-11.69 12.55-1.23.96-4.92 2.9-7.69 5.79C.71 67.9 1.02 67.3-2 70.92" stroke="#2962FF"/><g filter="url(#gkuar4r4u)"><path d="m709 100.95-2.77-5.79-6.15-10.61-8.62-7.24h-14.15c-1.64.64-5.04 1.93-5.54 1.93-.49 0-8.2 4.18-12 6.27-.6 0-1.9.1-2.15.49-.3.48-3.07 3.37-3.38 3.86-.25.38-7.9 3.7-11.7 5.3h-3.38l-12.61-4.34h-4c-.92 0-4.3 0-5.23.48-.74.39-8.51-.16-12.3-.48-1.34-.96-4.19-2.99-4.93-3.38-.92-.48-5.23-4.34-5.54-4.34-.24 0-6.66-12.22-9.84-18.33-.82-1.45-2.9-4.64-4.62-5.8-2.15-1.44-4.3-4.82-4.92-5.3-.49-.39-3.69-5.95-5.23-8.69-4.4-4.34-13.23-13.12-13.23-13.5 0-.4-3.07-5.96-4.61-8.69L540.72 17l-3.39 2.41c-2.36.32-7.14 1.06-7.38 1.45-.25.39-8.72 3.7-12.92 5.3l-20.3 15.45a425.39 425.39 0 0 1-4.62 3.86c-.5.38-3.08 3.37-4.31 4.82l-12.61 15.44-2.77 5.3c-.52.97-1.97 3.58-3.7 6.28A5387.9 5387.9 0 0 1 453.97 100a852 852 0 0 0-4.3 6.27c-.32.48-3.09 5.8-3.4 6.76-.24.77-6.86 15.76-10.15 23.16-.92 2.57-2.83 7.9-3.07 8.68-.25.77-6.67 19.3-9.85 28.47-1.13 1.93-3.5 6.17-4 7.72-.61 1.93-4 10.13-4.3 11.1-.25.77-9.13 19.94-13.54 29.43l-12.61 18.33-3.39 2.41-4.61 4.35c-1.54 1.44-18.77 4.82-19.08 4.82h-4.61c-4 .16-12.25.39-13.23 0-1.23-.48-4.62-2.41-5.23-2.41-.62 0-7.08-1.93-7.7-1.93-.48 0-5.12-.32-7.38-.48h-8.61c-4.61-.8-13.9-2.42-14.15-2.42-.3 0-4.3-.48-4.92-.48-.62 0-4.62 0-4.93.48-.24.39-7.48 4.02-11.07 5.8-1.33 1.12-4.06 3.47-4.3 3.85-.32.49-13.55 1.45-14.47.97a82.64 82.64 0 0 1-4.92-3.38l-7.38-11.58c-2.36-5.47-7.14-16.5-7.39-16.89-.24-.38-5.43-11.74-8-17.37-1.23-2.09-3.94-6.46-4.92-7.23-1.23-.97-4.3-4.83-6.15-5.8-1.48-.77-6.36-2.25-8.62-2.89l-4.3-3.38-3.08-1.44c-1.54.16-4.74.48-5.23.48-.62 0-6.46 4.34-7.08 4.34-.61 0-7.69-.96-8.3-.96-.5 0-4.72-1.61-6.77-2.42-3.28-.32-9.9-.96-10.15-.96H162c-.5 0-3.28.97-4.62 1.45l-9.84 11.1a9.18 9.18 0 0 1-2.46-.97c-.62-.48-6.46-2.9-6.77-3.38l-10.46-16.4c-.92-2.74-2.9-8.5-3.38-9.65a75.83 75.83 0 0 0-3.7-6.28l-8.3-15.44c-.93-1.92-2.83-5.98-3.08-6.75-.3-.97-2.77-7.24-3.08-7.24-.24 0-7.69-15.12-11.38-22.67-.92-2.74-2.83-8.3-3.08-8.69-.24-.39-2.56-7.88-3.69-11.58l-12-19.78-2.77-4.34c-.92-1.45-2.76-6.28-3.69-7.72a8.86 8.86 0 0 0-2.46-2.42L52.47 36.78h-2.46c-.92 0-3.07-.48-4.92 0-1.84.48-10.46 4.34-10.77 4.34-.3 0-2.77 1.45-5.53 2.42-2.77.96-2.77 1.44-6.16 3.37-3.38 1.93-10.46 11.58-11.69 12.55-1.23.96-4.92 2.9-7.69 5.79C.71 67.9 1.02 67.3-2 70.92" stroke="#2962FF"/></g><path d="M786 192c-2.36 1.95-8.24 6.1-12.87 7.03-5.8 1.17-13.84 8.2-20.28 10.55-6.43 2.34-27.35 19.92-34.43 21.1-7.08 1.17-18.02 10.54-24.78 9.37-6.76-1.17-20.92 17.58-27.03 18.75-6.12 1.18-10.3 1.18-15.45 3.52-5.15 2.34-8.7 9.38-14.16 9.38-5.47 0-18.99 5.86-27.68 10.54-8.69 4.69-9.65 11.72-15.45 10.55-5.79-1.17-26.38 0-35.4 0-9 0-18.98 3.52-22.52 3.52h-52.78c-11.59 0-5.15-2.35-18.67 0-13.51 2.34-26.7 7.03-37.65 2.34-10.94-4.69-31.54-11.72-39.58-18.75-8.05-7.03-22.85-15.24-33.8-9.38-10.94 5.86-30.89 14.07-41.5 14.07-10.63 0-25.11 0-37.02 3.51-11.9 3.52-11.58-1.17-16.09 3.52" stroke="#F57F17"/><g filter="url(#hkuar4r4u)"><path d="M786 192c-2.36 1.95-8.24 6.1-12.87 7.03-5.8 1.17-13.84 8.2-20.28 10.55-6.43 2.34-27.35 19.92-34.43 21.1-7.08 1.17-18.02 10.54-24.78 9.37-6.76-1.17-20.92 17.58-27.03 18.75-6.12 1.18-10.3 1.18-15.45 3.52-5.15 2.34-8.7 9.38-14.16 9.38-5.47 0-18.99 5.86-27.68 10.54-8.69 4.69-9.65 11.72-15.45 10.55-5.79-1.17-26.38 0-35.4 0-9 0-18.98 3.52-22.52 3.52h-52.78c-11.59 0-5.15-2.35-18.67 0-13.51 2.34-26.7 7.03-37.65 2.34-10.94-4.69-31.54-11.72-39.58-18.75-8.05-7.03-22.85-15.24-33.8-9.38-10.94 5.86-30.89 14.07-41.5 14.07-10.63 0-25.11 0-37.02 3.51-11.9 3.52-11.58-1.17-16.09 3.52" stroke="#F57F17"/></g><path transform="rotate(90 612 0)" fill="url(#ikuar4r4u)" d="M612 0h340v50H612z"/><path transform="matrix(0 1 1 0 0 .35)" fill="url(#jkuar4r4u)" d="M0 0h340v231H0z"/><g filter="url(#kkuar4r4u)"><path d="M301 94a12 12 0 0 1 12-12h266a12 12 0 0 1 12 12v122a12 12 0 0 1-12 12H313a12 12 0 0 1-12-12V94Z" fill="#000"/><path d="M301 94a12 12 0 0 1 12-12h266a12 12 0 0 1 12 12v122a12 12 0 0 1-12 12H313a12 12 0 0 1-12-12V94Z" fill="#3F3F3F" fill-opacity=".4"/></g><path opacity=".8" d="M355.76 123.64c-.93 0-1.74-.14-2.43-.44a4.13 4.13 0 0 1-1.63-1.25 3.55 3.55 0 0 1-.7-1.83v-.1h1.57l.01.1c.05.42.2.79.49 1.1.28.3.67.54 1.14.71a4.88 4.88 0 0 0 3.16-.02c.45-.18.81-.44 1.07-.77.25-.33.38-.7.38-1.13V120c0-.53-.19-.97-.58-1.33a4.02 4.02 0 0 0-1.89-.83l-1.4-.31a6.98 6.98 0 0 1-2.08-.77 3.27 3.27 0 0 1-1.18-1.18c-.25-.47-.38-1.01-.38-1.62 0-.71.2-1.33.57-1.87.38-.54.9-.96 1.57-1.27.68-.3 1.45-.45 2.32-.45.85 0 1.6.15 2.25.45.65.3 1.16.7 1.54 1.22.39.51.6 1.08.64 1.72l.01.12h-1.58l-.02-.11c-.06-.38-.2-.71-.45-1-.25-.3-.58-.53-.99-.7-.4-.17-.89-.25-1.44-.25-.53 0-1 .09-1.42.26-.43.16-.76.4-1.01.7-.25.3-.37.68-.37 1.13 0 .34.08.64.24.91.17.27.43.5.78.69.35.19.82.35 1.4.48l1.4.32c.88.19 1.6.44 2.14.75a3 3 0 0 1 1.17 1.14c.25.45.38.98.38 1.59 0 .8-.2 1.48-.58 2.05a3.78 3.78 0 0 1-1.63 1.34c-.7.31-1.53.46-2.47.46Zm10.5-.13a3.95 3.95 0 0 1-3.81-2.29 5.93 5.93 0 0 1-.52-2.57 6 6 0 0 1 .51-2.58 4.1 4.1 0 0 1 1.48-1.72 4.01 4.01 0 0 1 2.24-.63 3.77 3.77 0 0 1 3.64 2.26c.33.71.5 1.54.5 2.48v.6h-7.58v-1.22h6.8l-.76 1.11v-.6c0-.75-.1-1.36-.33-1.84a2.36 2.36 0 0 0-2.28-1.43c-.5 0-.96.13-1.36.37-.4.25-.72.62-.95 1.1a4.12 4.12 0 0 0-.35 1.8v.6c0 .68.11 1.25.34 1.72.23.48.55.84.97 1.1.42.26.92.38 1.5.38.42 0 .8-.06 1.1-.18.33-.11.59-.26.8-.44.2-.19.34-.37.42-.56l.04-.08h1.53l-.02.07a2.9 2.9 0 0 1-.44.95c-.2.3-.48.57-.8.81a4.1 4.1 0 0 1-1.17.58c-.44.14-.94.21-1.5.21Zm6.03-.16v-13.21h1.52v13.2h-1.52Zm4.06 0v-13.21h1.53v13.2h-1.53Zm13.17 0v-10.93h-.14l-3.22 2.34v-1.67l3.37-2.43h1.58v12.69h-1.59Zm9.99 0 4.67-12.69h1.21v2.04h-.49l-3.73 10.65h-1.67Zm2.11-3.63.5-1.35h5.73l.49 1.35h-6.72Zm7.14 3.63-3.73-10.65v-2.04h.72l4.67 12.69h-1.66Zm2.39 0 4.68-12.69h1.2v2.04h-.48l-3.74 10.65h-1.66Zm2.12-3.63.49-1.35h5.73l.5 1.35h-6.72Zm7.13 3.63-3.72-10.65v-2.04h.7l4.69 12.69h-1.67Zm4.2-4.53v-1.4h3.57c.91 0 1.61-.24 2.11-.7.5-.48.75-1.14.75-1.97v-.02c0-.84-.25-1.49-.75-1.96s-1.2-.7-2.1-.7h-3.58v-1.4h3.98c.8 0 1.5.16 2.1.5.62.34 1.1.82 1.44 1.43.35.6.52 1.31.52 2.12v.01c0 .8-.17 1.52-.52 2.13-.35.61-.82 1.1-1.44 1.44a4.2 4.2 0 0 1-2.1.52h-3.98Zm-.8 4.53v-12.69h1.59v12.69h-1.59Zm10.94 0v-12.69h1.59v11.26h6.11v1.43h-7.7Zm21.36 2.05a8.74 8.74 0 0 1-3.07-.5 6.58 6.58 0 0 1-2.34-1.47 6.47 6.47 0 0 1-1.48-2.32 8.46 8.46 0 0 1-.52-3.04v-.01c0-1.09.17-2.08.52-2.98a6.76 6.76 0 0 1 3.79-3.82 7.99 7.99 0 0 1 2.95-.53c1.39 0 2.6.28 3.66.83a6.16 6.16 0 0 1 3.39 5.64v.02a6.9 6.9 0 0 1-.4 2.48c-.28.7-.66 1.23-1.15 1.62-.5.38-1.07.57-1.74.57-.5 0-.93-.13-1.3-.4a1.6 1.6 0 0 1-.63-1.03l-.01-.06h-.14c-.19.45-.48.8-.86 1.05-.38.24-.83.36-1.35.36a2.82 2.82 0 0 1-2.68-1.78 4.7 4.7 0 0 1-.38-1.95v-.02c0-.7.13-1.33.39-1.88.26-.54.62-.97 1.08-1.27a2.79 2.79 0 0 1 2.84-.13c.37.22.64.52.8.9h.15v-1.07h1.33v5.12c0 .32.08.57.26.75a1 1 0 0 0 .74.27c.36 0 .68-.15.95-.44.27-.29.48-.7.63-1.23.15-.54.23-1.16.23-1.88v-.02a5.03 5.03 0 0 0-2.83-4.67 6.76 6.76 0 0 0-3.1-.67c-.86 0-1.65.16-2.37.47a5.56 5.56 0 0 0-3.1 3.28c-.29.77-.43 1.6-.43 2.52v.02c0 1.24.25 2.33.76 3.26a5.37 5.37 0 0 0 2.17 2.13c.92.51 2 .77 3.26.77a12.59 12.59 0 0 0 2.2-.2c.31-.07.56-.14.74-.23v1.11c-.4.14-.85.24-1.36.32-.51.07-1.05.11-1.6.11Zm-.48-4.83c.6 0 1.09-.22 1.44-.67.36-.44.54-1.04.54-1.78v-.02c0-.75-.18-1.34-.54-1.78a1.73 1.73 0 0 0-1.42-.66c-.4 0-.73.1-1.01.29-.27.19-.49.47-.64.84-.15.36-.22.8-.22 1.3v.03c0 .5.07.94.22 1.3.15.38.37.66.64.86.28.2.61.29 1 .29Zm18.47 2.78v-10.93h-.14l-3.23 2.34v-1.67l3.38-2.43h1.57v12.69h-1.58Zm10.49.2c-.89 0-1.67-.15-2.36-.46a3.96 3.96 0 0 1-1.62-1.28 3.17 3.17 0 0 1-.58-1.9 3.2 3.2 0 0 1 1.28-2.6c.41-.3.88-.53 1.41-.65v-.04a3.4 3.4 0 0 1-1.64-1.07 2.7 2.7 0 0 1-.6-1.75v-.02c0-.64.17-1.2.53-1.7s.85-.9 1.46-1.19a4.9 4.9 0 0 1 2.12-.44c.79 0 1.5.15 2.1.44.63.29 1.12.69 1.47 1.19.35.5.53 1.06.53 1.7v.02c0 .67-.2 1.25-.6 1.75-.4.5-.95.86-1.64 1.07v.04a3.55 3.55 0 0 1 2.35 1.8c.23.44.34.92.34 1.44v.02c0 .7-.2 1.34-.59 1.89a3.9 3.9 0 0 1-1.6 1.28c-.69.31-1.47.47-2.36.47Zm0-1.37c.57 0 1.08-.1 1.52-.3.44-.2.8-.48 1.04-.84.26-.35.38-.76.38-1.22v-.02c0-.46-.12-.87-.38-1.23a2.5 2.5 0 0 0-1.03-.84c-.44-.2-.95-.3-1.53-.3-.58 0-1.09.1-1.53.3-.45.2-.8.49-1.05.84-.25.36-.38.77-.38 1.23v.02c0 .46.13.87.38 1.22s.6.63 1.05.84c.44.2.95.3 1.53.3Zm0-6.15c.5 0 .94-.08 1.32-.26.38-.18.67-.43.88-.75.22-.31.33-.68.33-1.09v-.01c0-.41-.1-.78-.33-1.1-.2-.31-.5-.56-.88-.73a2.99 2.99 0 0 0-1.32-.28c-.5 0-.94.1-1.32.28-.38.17-.68.42-.9.74-.21.31-.32.68-.32 1.09v.01c0 .41.1.78.32 1.1.22.31.52.56.9.74.38.18.82.26 1.32.26Zm10.86 7.61c-.94 0-1.74-.26-2.4-.8a5.08 5.08 0 0 1-1.55-2.3c-.35-1-.53-2.17-.53-3.53v-.02c0-1.36.18-2.53.53-3.52.36-1 .87-1.76 1.54-2.3.67-.53 1.47-.8 2.41-.8.94 0 1.74.27 2.4.8.68.54 1.2 1.3 1.56 2.3.36.99.54 2.16.54 3.52v.02c0 1.36-.18 2.54-.55 3.53a5.14 5.14 0 0 1-1.54 2.3c-.67.54-1.47.8-2.41.8Zm0-1.38c.6 0 1.13-.2 1.56-.64.43-.42.76-1.03 1-1.82a9.8 9.8 0 0 0 .35-2.79v-.02c0-1.08-.12-2-.35-2.78a4.11 4.11 0 0 0-1-1.81 2.12 2.12 0 0 0-1.56-.65c-.6 0-1.12.22-1.56.64a4.05 4.05 0 0 0-.99 1.82c-.23.78-.34 1.7-.34 2.78v.02c0 1.08.11 2 .34 2.8.23.78.56 1.39 1 1.81.43.43.95.64 1.55.64Zm7.86 1.17c-.31 0-.58-.1-.8-.33a1.09 1.09 0 0 1-.34-.8c0-.32.11-.58.34-.8.22-.22.49-.33.8-.33.31 0 .58.1.8.33.22.22.33.48.33.8 0 .31-.11.58-.33.8-.22.22-.49.33-.8.33Zm8.22-.08v-10.93h-.14l-3.23 2.34v-1.67l3.38-2.43h1.57v12.69h-1.58Zm6.58 0v-1.1l4.17-4.63c.52-.59.94-1.07 1.23-1.45.3-.39.5-.73.62-1.04.13-.32.19-.66.19-1.03v-.02c0-.44-.1-.84-.28-1.2a2.05 2.05 0 0 0-.8-.83c-.34-.2-.75-.3-1.24-.3-.48 0-.9.1-1.28.31-.37.21-.66.5-.86.88-.2.37-.3.8-.3 1.3l-.02.01h-1.5l-.02-.02c0-.75.19-1.41.54-2 .35-.58.83-1.04 1.44-1.36.62-.34 1.32-.5 2.1-.5.73 0 1.38.15 1.95.46.58.3 1.04.72 1.37 1.26.34.53.51 1.14.51 1.83v.01c0 .48-.08.95-.24 1.4-.17.44-.45.93-.86 1.48-.41.54-1 1.2-1.74 2l-3.19 3.38.4-.73v.73l-.39-.27h6.23v1.43h-8.03Zm15.18 0v-13.21h1.53v13.2h-1.53Zm4.01 0v-9.46h1.53v9.46h-1.53Zm.78-11.28a1 1 0 0 1-.74-.3c-.2-.22-.31-.46-.31-.75s.1-.54.3-.74a1 1 0 0 1 .75-.31c.29 0 .54.1.74.3.2.21.31.46.31.75s-.1.53-.3.74c-.21.2-.46.31-.75.31Zm3.15 11.28v-9.46h1.53v1.43h.13c.21-.5.53-.9.97-1.18a2.9 2.9 0 0 1 1.59-.42 3 3 0 0 1 1.15.21 2.83 2.83 0 0 1 1.47 1.45h.13a3.06 3.06 0 0 1 1.68-1.45c.38-.14.78-.2 1.22-.2.64 0 1.19.11 1.63.35.45.24.8.6 1.03 1.06.24.45.35 1.01.35 1.67v6.54h-1.53v-6.2c0-.45-.07-.84-.22-1.14a1.42 1.42 0 0 0-.65-.7c-.29-.16-.66-.23-1.1-.23-.44 0-.83.1-1.15.3-.33.19-.58.45-.76.79-.18.32-.27.69-.27 1.1v6.08h-1.53v-6.42c0-.38-.09-.7-.25-.98a1.6 1.6 0 0 0-.68-.65c-.3-.15-.64-.22-1.04-.22-.41 0-.78.1-1.1.32-.34.21-.6.5-.8.87a2.6 2.6 0 0 0-.27 1.21v5.87h-1.53Zm15.2 0v-9.46h1.52v9.46h-1.53Zm.77-11.28a1 1 0 0 1-.74-.3c-.2-.22-.31-.46-.31-.75s.1-.54.3-.74a1 1 0 0 1 .75-.31c.29 0 .54.1.74.3.2.21.31.46.31.75s-.1.53-.3.74c-.21.2-.46.31-.75.31Zm6.5 11.36c-.97 0-1.67-.2-2.11-.6-.43-.4-.65-1.04-.65-1.94v-5.73h-1.49v-1.27h1.49v-2.45h1.58v2.45h2.06v1.27h-2.06v5.37c0 .55.1.94.32 1.18.2.24.56.36 1.04.36a5.5 5.5 0 0 0 .7-.03v1.3a9.27 9.27 0 0 1-.88.09Z" fill="#E0E3EB"/><path fill-rule="evenodd" clip-rule="evenodd" d="m332 121.35 7.14-5.21a2.1 2.1 0 0 0-2.46-3.4L332 116.1l-4.68-3.36a2.1 2.1 0 0 0-2.46 3.4l7.14 5.2Zm0-1.24-6.55-4.78a1.1 1.1 0 0 1 1.3-1.78l5.25 3.78 5.26-3.78a1.1 1.1 0 0 1 1.29 1.78l-6.55 4.78ZM332 152.35l7.14 5.2a2.1 2.1 0 0 1-2.46 3.4L332 157.6l-4.68 3.35a2.1 2.1 0 0 1-2.46-3.4l7.14-5.2Zm0 1.23-6.55 4.78a1.1 1.1 0 0 0 1.3 1.78l5.25-3.78 5.26 3.78a1.1 1.1 0 0 0 1.29-1.78l-6.55-4.78Z" fill="#E0E3EB"/><path opacity=".8" d="M352.4 162.35v-1.4h3.9a3.5 3.5 0 0 0 2.17-.57c.5-.38.74-.94.74-1.66v-.02c0-.49-.11-.9-.34-1.22a2.05 2.05 0 0 0-1.03-.74 4.99 4.99 0 0 0-1.69-.25h-3.76v-1.36h3.31c.97 0 1.69-.17 2.17-.5.48-.35.73-.85.73-1.52v-.02c0-.64-.22-1.14-.66-1.5a2.8 2.8 0 0 0-1.82-.53h-3.73v-1.4h4.06c.78 0 1.44.13 2 .4a2.91 2.91 0 0 1 1.75 2.76v.02a2.9 2.9 0 0 1-1.08 2.22c-.33.25-.7.43-1.11.5v.14c.58.07 1.08.25 1.5.52.42.28.75.63.98 1.07.23.44.35.93.35 1.49v.02c0 .73-.18 1.37-.52 1.9a3.3 3.3 0 0 1-1.47 1.23c-.64.28-1.4.42-2.31.42h-4.15Zm-.8 0v-12.69h1.58v12.69h-1.58Zm14.32.16c-.71 0-1.31-.13-1.8-.4a2.62 2.62 0 0 1-1.1-1.2 4.54 4.54 0 0 1-.36-1.9v-6.12h1.53v5.76c0 .84.17 1.47.5 1.89.33.41.87.62 1.63.62.41 0 .77-.06 1.09-.19.32-.12.6-.3.8-.52.23-.24.39-.52.5-.85.1-.33.16-.7.16-1.11v-5.6h1.53v9.46h-1.53v-1.41h-.13a2.8 2.8 0 0 1-.64.85 2.7 2.7 0 0 1-.94.54c-.36.12-.77.18-1.24.18Zm7.65 3.15a3.74 3.74 0 0 1-.69-.05v-1.26a6.04 6.04 0 0 0 .63.04c.44 0 .8-.1 1.07-.33.28-.22.5-.6.68-1.14l.17-.56-3.5-9.47h1.64l2.9 8.72-.59-.93h.71l-.6.93 2.9-8.72h1.61l-3.7 10.04a7 7 0 0 1-.81 1.65c-.29.4-.62.68-1 .83-.39.17-.86.25-1.42.25Zm17.67-3.31v-10.93h-.14l-3.23 2.34v-1.67l3.38-2.43h1.57v12.69h-1.58Zm9.98 0 4.68-12.69h1.21v2.04h-.5l-3.73 10.65h-1.66Zm2.12-3.63.5-1.35h5.72l.5 1.35h-6.72Zm7.14 3.63-3.73-10.65v-2.04h.71l4.68 12.69h-1.66Zm2.38 0 4.68-12.69h1.21v2.04h-.49l-3.73 10.65h-1.66Zm2.12-3.63.5-1.35h5.72l.5 1.35h-6.72Zm7.14 3.63-3.73-10.65v-2.04h.72l4.67 12.69h-1.66Zm4.19-4.53v-1.4h3.58c.9 0 1.6-.24 2.1-.7.5-.48.75-1.14.75-1.97v-.02c0-.83-.25-1.49-.74-1.96-.5-.47-1.2-.7-2.11-.7h-3.58v-1.4h3.98c.8 0 1.5.16 2.11.5.61.34 1.09.82 1.43 1.43.36.6.53 1.31.53 2.12v.01c0 .8-.18 1.52-.53 2.13-.34.61-.82 1.1-1.43 1.44a4.2 4.2 0 0 1-2.1.52h-3.99Zm-.8 4.53v-12.69h1.6v12.69h-1.6Zm10.95 0v-12.69h1.58v11.26h6.12v1.43h-7.7Zm21.35 2.05a8.75 8.75 0 0 1-3.06-.5 6.6 6.6 0 0 1-2.34-1.47 6.48 6.48 0 0 1-1.49-2.32 8.44 8.44 0 0 1-.52-3.04v-.01c0-1.09.18-2.08.52-2.97a6.65 6.65 0 0 1 3.79-3.82c.9-.36 1.88-.54 2.95-.54 1.4 0 2.61.28 3.67.83a6.15 6.15 0 0 1 3.38 5.64v.02c0 .95-.13 1.78-.4 2.48s-.65 1.24-1.14 1.62c-.5.38-1.08.57-1.74.57-.5 0-.94-.13-1.3-.4a1.6 1.6 0 0 1-.64-1.03v-.06h-.15c-.19.45-.47.8-.86 1.05-.38.24-.83.36-1.34.36a2.82 2.82 0 0 1-2.68-1.78 4.7 4.7 0 0 1-.38-1.95v-.02c0-.7.13-1.33.38-1.88.27-.54.63-.97 1.09-1.27a2.79 2.79 0 0 1 2.83-.13c.37.22.64.52.81.9h.14v-1.07h1.33v5.12c0 .32.09.57.26.75a1 1 0 0 0 .74.27c.37 0 .68-.15.95-.44.28-.29.49-.7.63-1.24.16-.53.23-1.15.23-1.87v-.01a5.04 5.04 0 0 0-2.83-4.67 6.76 6.76 0 0 0-3.09-.68c-.86 0-1.65.16-2.37.47a5.56 5.56 0 0 0-3.1 3.28c-.3.77-.44 1.6-.44 2.52v.02c0 1.24.26 2.33.77 3.26a5.38 5.38 0 0 0 2.16 2.13c.93.51 2.01.77 3.26.77a12.57 12.57 0 0 0 2.2-.2c.32-.07.56-.14.75-.22v1.1c-.4.14-.85.24-1.37.32-.5.08-1.04.11-1.6.11Zm-.47-4.83c.6 0 1.08-.22 1.44-.67.36-.44.54-1.04.54-1.78v-.02c0-.75-.18-1.34-.54-1.78a1.73 1.73 0 0 0-1.42-.66c-.4 0-.73.1-1.01.29-.28.19-.5.47-.65.84-.14.36-.21.8-.21 1.3v.03c0 .5.07.94.21 1.3.16.38.37.66.65.86.28.2.6.29.99.29Zm18.46 2.78v-10.93h-.14l-3.23 2.34v-1.67l3.38-2.43h1.57v12.69h-1.58Zm10.5.2c-.9 0-1.68-.15-2.36-.46a3.96 3.96 0 0 1-1.62-1.28 3.17 3.17 0 0 1-.59-1.9 3.2 3.2 0 0 1 1.28-2.6c.42-.3.89-.53 1.42-.65v-.04a3.4 3.4 0 0 1-1.64-1.07 2.7 2.7 0 0 1-.61-1.75v-.02c0-.63.18-1.2.54-1.7.35-.5.84-.9 1.46-1.19a4.9 4.9 0 0 1 2.11-.44c.8 0 1.5.15 2.11.44.62.29 1.11.69 1.46 1.19.36.5.54 1.06.54 1.7v.02c0 .67-.2 1.25-.6 1.75-.41.5-.96.86-1.64 1.07v.04a3.54 3.54 0 0 1 2.34 1.8c.23.44.35.92.35 1.44v.02c0 .7-.2 1.34-.6 1.89-.38.54-.92.97-1.6 1.28-.68.31-1.47.47-2.36.47Zm0-1.37c.57 0 1.07-.1 1.51-.3.45-.2.8-.48 1.05-.84.25-.35.38-.76.38-1.22v-.02c0-.46-.13-.87-.38-1.23-.25-.35-.6-.63-1.04-.84-.44-.2-.95-.3-1.53-.3-.57 0-1.08.1-1.53.3-.44.2-.79.49-1.04.84-.25.36-.38.77-.38 1.23v.02c0 .46.13.87.38 1.22.25.36.6.63 1.04.84.45.2.96.3 1.53.3Zm0-6.15c.5 0 .94-.08 1.31-.26.38-.18.68-.43.89-.75.22-.31.32-.68.32-1.09v-.01c0-.41-.1-.78-.32-1.1-.21-.31-.5-.56-.89-.73a2.99 2.99 0 0 0-1.32-.28c-.5 0-.93.1-1.31.28-.38.17-.68.42-.9.74-.22.31-.33.68-.33 1.09v.01c0 .41.11.78.33 1.1.22.31.52.56.9.74.38.18.82.26 1.31.26Zm10.85 7.62c-.93 0-1.73-.27-2.4-.81a5.07 5.07 0 0 1-1.54-2.3c-.36-1-.54-2.17-.54-3.53v-.02c0-1.36.18-2.53.54-3.52.36-1 .87-1.76 1.54-2.3.67-.53 1.47-.8 2.4-.8.94 0 1.75.26 2.41.8.67.54 1.19 1.3 1.55 2.3.36.99.54 2.16.54 3.52v.02c0 1.36-.18 2.54-.54 3.53a5.13 5.13 0 0 1-1.55 2.3c-.66.54-1.47.8-2.4.8Zm0-1.39c.62 0 1.13-.2 1.56-.64.44-.42.77-1.03 1-1.82.24-.78.35-1.71.35-2.79v-.02c0-1.08-.11-2-.35-2.78a4.11 4.11 0 0 0-1-1.81 2.12 2.12 0 0 0-1.56-.65c-.6 0-1.12.22-1.55.65a4.06 4.06 0 0 0-1 1.8 10 10 0 0 0-.34 2.8v.01c0 1.08.12 2 .35 2.8.22.78.56 1.39.99 1.81.43.43.95.64 1.55.64Zm7.86 1.17c-.31 0-.58-.1-.8-.33a1.09 1.09 0 0 1-.33-.8c0-.32.1-.58.33-.8.22-.22.49-.33.8-.33.32 0 .58.1.8.33.22.22.33.48.33.8 0 .31-.1.58-.33.8-.22.22-.48.33-.8.33Zm8.23-.08v-10.93h-.14l-3.23 2.34v-1.67l3.38-2.43h1.57v12.69h-1.58Zm6.58 0v-1.1l4.16-4.63c.53-.59.94-1.07 1.23-1.45.3-.38.51-.73.63-1.04.12-.32.18-.66.18-1.03v-.02c0-.44-.1-.84-.28-1.2a2.06 2.06 0 0 0-.79-.83c-.35-.2-.76-.3-1.24-.3-.49 0-.91.1-1.28.31s-.66.5-.86.88c-.2.37-.31.8-.31 1.3l-.01.01h-1.51l-.01-.02a3.69 3.69 0 0 1 1.98-3.37c.61-.33 1.31-.5 2.1-.5.72 0 1.37.16 1.95.47.58.3 1.04.72 1.37 1.26.34.53.5 1.14.5 1.83v.01c0 .48-.07.95-.24 1.4-.16.44-.45.93-.86 1.48-.4.54-.99 1.2-1.74 2l-3.18 3.38.4-.73v.73l-.4-.27h6.23v1.43h-8.02Zm18.34.16c-.7 0-1.33-.1-1.87-.31a3.27 3.27 0 0 1-1.3-.9c-.32-.4-.51-.86-.57-1.38H536c.12.4.37.72.74.96.38.24.87.36 1.48.36.42 0 .8-.06 1.12-.19.32-.12.58-.3.76-.51.19-.22.28-.47.28-.76v-.02c0-.32-.13-.6-.39-.81a2.9 2.9 0 0 0-1.24-.56l-1.47-.35a5.35 5.35 0 0 1-1.46-.54c-.38-.23-.66-.51-.84-.84a2.43 2.43 0 0 1-.28-1.18c0-.53.16-1 .46-1.42a3.1 3.1 0 0 1 1.26-.98 4.34 4.34 0 0 1 1.8-.36c.66 0 1.25.1 1.76.32.51.2.93.5 1.24.89.31.38.5.82.57 1.33v.01h-1.5c-.1-.38-.32-.69-.68-.92a2.51 2.51 0 0 0-1.4-.35c-.38 0-.7.06-1 .18-.29.12-.52.28-.69.5-.17.2-.25.44-.25.72v.02c0 .21.05.4.16.56.12.17.29.31.51.43.24.13.54.24.91.33l1.46.35c.6.14 1.09.33 1.48.55.39.23.68.51.87.84.19.33.29.72.29 1.17v.02c0 .55-.17 1.05-.5 1.48-.33.43-.79.76-1.36 1a4.9 4.9 0 0 1-1.92.36Zm8.94-.08c-.97 0-1.67-.2-2.1-.6-.44-.4-.66-1.04-.66-1.94v-5.73h-1.48v-1.27h1.48v-2.45h1.58v2.45h2.06v1.27h-2.06v5.37c0 .55.1.94.32 1.18.21.24.56.36 1.05.36a5.5 5.5 0 0 0 .7-.03v1.3a9.51 9.51 0 0 1-.89.09Zm6.43.08c-.89 0-1.66-.2-2.32-.58a3.98 3.98 0 0 1-1.5-1.7 5.95 5.95 0 0 1-.54-2.6v-.02c0-1.02.18-1.89.53-2.61.36-.73.86-1.3 1.51-1.69.66-.4 1.43-.59 2.32-.59.9 0 1.68.2 2.33.6.65.38 1.15.95 1.5 1.68.36.72.54 1.6.54 2.6v.03c0 1-.18 1.88-.53 2.6a3.95 3.95 0 0 1-3.84 2.28Zm0-1.35c.6 0 1.1-.14 1.52-.42.42-.28.74-.69.95-1.2.23-.53.34-1.17.34-1.91v-.02c0-.75-.11-1.39-.34-1.92a2.56 2.56 0 0 0-.95-1.2 2.7 2.7 0 0 0-1.52-.41c-.59 0-1.1.13-1.5.4-.42.28-.74.69-.97 1.21a5.03 5.03 0 0 0-.32 1.92v.02a5 5 0 0 0 .32 1.9c.23.53.55.93.96 1.2.42.29.92.43 1.51.43Zm6.25 4.35v-12.62h1.53v1.51h.13a3.14 3.14 0 0 1 1.73-1.47c.38-.14.79-.2 1.23-.2.8 0 1.5.2 2.09.6.6.4 1.06.97 1.39 1.7.32.74.49 1.6.49 2.58v.02c0 .99-.17 1.85-.5 2.58a3.62 3.62 0 0 1-3.48 2.3 3.48 3.48 0 0 1-2.25-.78c-.29-.24-.52-.54-.7-.88h-.13v4.66h-1.53Zm4.26-4.35c.58 0 1.08-.14 1.49-.42.4-.29.72-.7.94-1.22.22-.53.33-1.16.33-1.9v-.01c0-.74-.1-1.37-.33-1.9a2.63 2.63 0 0 0-.94-1.21c-.41-.28-.9-.42-1.49-.42a2.53 2.53 0 0 0-2.43 1.65 4.77 4.77 0 0 0-.34 1.88v.02c0 .72.12 1.34.34 1.88a2.54 2.54 0 0 0 2.43 1.65ZM356.71 201.65a5.43 5.43 0 0 1-2.98-.81 5.28 5.28 0 0 1-1.95-2.3c-.45-.99-.67-2.16-.67-3.52V195c0-1.37.22-2.54.67-3.53.46-1 1.1-1.76 1.95-2.3.83-.53 1.83-.8 2.98-.8.89 0 1.7.17 2.42.52.73.35 1.34.83 1.81 1.45.48.62.78 1.33.9 2.14l-.01.02h-1.6v-.03a3.47 3.47 0 0 0-3.52-2.65c-.81 0-1.52.22-2.11.64a4.01 4.01 0 0 0-1.38 1.79 7.13 7.13 0 0 0-.49 2.75v.02c0 1.05.16 1.97.49 2.74a4 4 0 0 0 1.38 1.8c.6.41 1.3.63 2.11.63.6 0 1.13-.1 1.61-.28.48-.2.89-.47 1.22-.83.32-.36.55-.78.68-1.27l.02-.02h1.6v.02a4.38 4.38 0 0 1-2.7 3.36c-.71.32-1.52.48-2.43.48Zm7.11-.3v-9.46h1.53v1.4h.13c.19-.5.5-.88.92-1.16.43-.27.97-.4 1.6-.4a3.79 3.79 0 0 1 .76.06v1.48l-.46-.06a3.9 3.9 0 0 0-.48-.03c-.48 0-.9.1-1.28.3a2.13 2.13 0 0 0-1.19 2v5.87h-1.53Zm9.95.16a3.96 3.96 0 0 1-3.81-2.28 5.95 5.95 0 0 1-.52-2.58c0-.98.17-1.84.52-2.58a4.1 4.1 0 0 1 1.47-1.72 4.01 4.01 0 0 1 2.24-.63 3.77 3.77 0 0 1 3.64 2.26c.34.71.5 1.54.5 2.48v.6h-7.58v-1.22h6.8l-.75 1.11v-.6c0-.75-.12-1.36-.34-1.84a2.36 2.36 0 0 0-2.27-1.42c-.51 0-.97.12-1.37.36-.4.25-.71.62-.95 1.1a4.12 4.12 0 0 0-.35 1.8v.6c0 .68.12 1.25.35 1.73.22.47.55.83.96 1.1.42.25.92.37 1.5.37.42 0 .8-.06 1.11-.18.32-.11.58-.26.78-.44.21-.19.35-.37.44-.56l.03-.09h1.53l-.02.08a2.9 2.9 0 0 1-.44.94c-.2.3-.47.58-.8.82a4.1 4.1 0 0 1-1.17.58c-.44.14-.94.21-1.5.21Zm8.54 0c-.6 0-1.13-.11-1.62-.34a2.72 2.72 0 0 1-1.12-.97 2.68 2.68 0 0 1-.41-1.5v-.02c0-.55.13-1.03.4-1.43.27-.4.66-.72 1.17-.95a5.35 5.35 0 0 1 1.87-.4l3.48-.21v1.22l-3.3.2c-.7.05-1.23.2-1.57.46-.32.25-.49.62-.49 1.08v.02c0 .48.18.85.54 1.12.36.26.82.4 1.37.4.52 0 .98-.1 1.39-.31.4-.21.72-.5.95-.85.23-.36.35-.77.35-1.22v-2.93c0-.59-.18-1.03-.54-1.34-.35-.3-.88-.46-1.59-.46-.57 0-1.03.1-1.4.3-.36.2-.6.49-.73.87v.02h-1.52v-.05c.08-.5.28-.94.61-1.31a3.3 3.3 0 0 1 1.3-.87 4.82 4.82 0 0 1 1.8-.32c.77 0 1.42.13 1.95.38.54.25.94.61 1.23 1.08.28.47.42 1.03.42 1.69v6.48h-1.53v-1.4h-.14a3.22 3.22 0 0 1-1.69 1.39c-.36.12-.75.17-1.18.17Zm10.2-.08c-.97 0-1.67-.2-2.11-.6-.44-.4-.65-1.04-.65-1.94v-5.73h-1.49v-1.27h1.49v-2.45h1.58v2.45h2.06v1.27h-2.06v5.37c0 .55.1.94.31 1.18.22.24.56.36 1.05.36a5.5 5.5 0 0 0 .7-.03v1.3a9.51 9.51 0 0 1-.88.09Zm6.4.08a3.95 3.95 0 0 1-3.81-2.28 5.93 5.93 0 0 1-.52-2.58 6 6 0 0 1 .52-2.58 4.1 4.1 0 0 1 1.47-1.72 4.01 4.01 0 0 1 2.24-.63 3.77 3.77 0 0 1 3.64 2.26c.34.71.5 1.54.5 2.48v.6h-7.58v-1.22h6.8l-.75 1.11v-.6c0-.75-.12-1.36-.34-1.84a2.36 2.36 0 0 0-2.27-1.42c-.51 0-.97.12-1.37.36-.4.25-.71.62-.95 1.1a4.12 4.12 0 0 0-.35 1.8v.6c0 .68.12 1.25.35 1.73.22.47.55.83.96 1.1.42.25.92.37 1.5.37.42 0 .8-.06 1.11-.18.32-.11.58-.26.79-.44.2-.19.34-.37.42-.56l.04-.09h1.53l-.02.08a2.9 2.9 0 0 1-.44.94c-.2.3-.47.58-.8.82a4.1 4.1 0 0 1-1.17.58c-.44.14-.94.21-1.5.21Zm10.5-.16v-9.46h1.53v1.41h.13c.24-.5.59-.88 1.04-1.16a3.25 3.25 0 0 1 1.73-.42c1.06 0 1.88.3 2.44.92.58.6.87 1.46.87 2.58v6.13h-1.53v-5.76c0-.86-.19-1.49-.55-1.9-.36-.4-.91-.61-1.67-.61-.5 0-.93.1-1.3.32s-.66.53-.86.92c-.2.4-.3.87-.3 1.43v5.6h-1.53Zm13.87.16a3.96 3.96 0 0 1-3.81-2.28 5.95 5.95 0 0 1-.52-2.58c0-.98.17-1.84.51-2.58a4.1 4.1 0 0 1 1.48-1.72 4.01 4.01 0 0 1 2.24-.63 3.77 3.77 0 0 1 3.64 2.26c.33.71.5 1.54.5 2.48v.6h-7.58v-1.22h6.8l-.76 1.11v-.6c0-.75-.1-1.36-.33-1.84a2.36 2.36 0 0 0-2.28-1.42c-.5 0-.96.12-1.36.36-.4.25-.71.62-.95 1.1a4.12 4.12 0 0 0-.35 1.8v.6c0 .68.11 1.25.34 1.73.23.47.55.83.97 1.1.42.25.92.37 1.5.37.42 0 .8-.06 1.1-.18.33-.11.59-.26.8-.44.2-.19.34-.37.42-.56l.04-.09h1.53l-.02.08a2.9 2.9 0 0 1-.44.94c-.2.3-.48.58-.8.82a4.1 4.1 0 0 1-1.17.58c-.44.14-.94.21-1.5.21Zm7.77-.16-2.66-9.46h1.53l1.86 7.57h.14l2.11-7.57h1.45l2.12 7.57h.14l1.86-7.57h1.52l-2.65 9.46h-1.54l-2.11-7.32h-.14l-2.1 7.32h-1.53Zm20.07.16c-.9 0-1.67-.2-2.32-.58a4 4 0 0 1-1.52-1.7 5.96 5.96 0 0 1-.52-2.6v-.02c0-1.02.17-1.89.52-2.61.36-.73.87-1.3 1.52-1.69.65-.4 1.43-.59 2.32-.59.9 0 1.68.2 2.33.6.65.38 1.15.95 1.5 1.68.36.72.54 1.6.54 2.6v.03c0 1-.18 1.88-.54 2.6a3.94 3.94 0 0 1-3.83 2.28Zm0-1.35c.6 0 1.1-.14 1.52-.42.41-.28.73-.69.95-1.2.22-.53.33-1.17.33-1.91v-.02c0-.75-.11-1.39-.33-1.92a2.56 2.56 0 0 0-.95-1.2 2.7 2.7 0 0 0-1.52-.41c-.6 0-1.1.13-1.51.4-.42.28-.74.69-.96 1.21a5.03 5.03 0 0 0-.33 1.92v.02a5 5 0 0 0 .33 1.9c.22.53.54.93.96 1.2.41.29.91.43 1.5.43Zm6.24 1.19v-9.46h1.53v1.4h.13c.19-.5.5-.88.92-1.16.43-.27.97-.4 1.6-.4a3.74 3.74 0 0 1 .76.06v1.48l-.46-.06c-.15-.02-.3-.03-.48-.03-.48 0-.9.1-1.28.3a2.13 2.13 0 0 0-1.19 2v5.87h-1.53Zm9.58.16a3.63 3.63 0 0 1-3.47-2.3c-.33-.74-.5-1.6-.5-2.58v-.02c0-1 .17-1.85.5-2.59a3.65 3.65 0 0 1 3.47-2.3 3.51 3.51 0 0 1 2.25.78c.3.25.54.54.7.88h.15v-5.24h1.52v13.2h-1.52v-1.5h-.15c-.19.35-.43.65-.72.9-.3.25-.63.44-1 .57-.38.14-.79.2-1.23.2Zm.35-1.35a2.5 2.5 0 0 0 2.44-1.65c.23-.54.34-1.16.34-1.88v-.02c0-.73-.11-1.36-.34-1.88a2.5 2.5 0 0 0-2.43-1.65 2.5 2.5 0 0 0-2.43 1.64 4.92 4.92 0 0 0-.33 1.89v.02c0 .73.11 1.36.33 1.89.22.52.54.93.95 1.22.4.28.9.42 1.47.42Zm10.57 1.35a3.95 3.95 0 0 1-3.81-2.28 5.93 5.93 0 0 1-.52-2.58 6 6 0 0 1 .52-2.58 4.1 4.1 0 0 1 1.48-1.72 4.01 4.01 0 0 1 2.24-.63 3.77 3.77 0 0 1 3.64 2.26c.33.71.5 1.54.5 2.48v.6h-7.59v-1.22h6.8l-.75 1.11v-.6c0-.75-.11-1.36-.33-1.84a2.36 2.36 0 0 0-2.28-1.42c-.51 0-.96.12-1.36.36-.4.25-.72.62-.95 1.1a4.12 4.12 0 0 0-.35 1.8v.6c0 .68.11 1.25.34 1.73.23.47.55.83.97 1.1.42.25.92.37 1.49.37.43 0 .8-.06 1.12-.18.31-.11.57-.26.78-.44.2-.19.35-.37.43-.56l.03-.09h1.53l-.01.08a2.9 2.9 0 0 1-.44.94c-.2.3-.48.58-.81.82a4.1 4.1 0 0 1-1.16.58c-.45.14-.95.21-1.5.21Zm5.94-.16v-9.46h1.53v1.4h.14c.18-.5.48-.88.91-1.16.43-.27.97-.4 1.6-.4a3.74 3.74 0 0 1 .76.06v1.48c-.16-.03-.3-.05-.46-.06-.15-.02-.3-.03-.48-.03-.48 0-.9.1-1.28.3a2.13 2.13 0 0 0-1.19 2v5.87h-1.52Zm6.46.08c-.3 0-.57-.1-.8-.33a1.09 1.09 0 0 1-.33-.8c0-.32.11-.58.33-.8.23-.22.5-.33.8-.33.32 0 .59.1.8.33.23.22.34.48.34.8 0 .31-.11.58-.34.8-.21.22-.48.33-.8.33Zm4.83 0c-.31 0-.58-.1-.8-.33a1.09 1.09 0 0 1-.34-.8c0-.32.11-.58.34-.8.22-.22.49-.33.8-.33.31 0 .58.1.8.33.22.22.33.48.33.8 0 .31-.11.58-.33.8-.22.22-.49.33-.8.33Zm4.82 0c-.31 0-.58-.1-.8-.33a1.09 1.09 0 0 1-.33-.8c0-.32.1-.58.33-.8.22-.22.49-.33.8-.33.32 0 .58.1.8.33.22.22.33.48.33.8 0 .31-.1.58-.33.8-.22.22-.48.33-.8.33Z" fill="#E0E3EB"/><g filter="url(#lkuar4r4u)"><path d="M0 12A12 12 0 0 1 12 0h285a12 12 0 0 1 12 12v285a12 12 0 0 1-12 12H12a12 12 0 0 1-12-12V12Z" fill="url(#mkuar4r4u)"/><path d="M0 12A12 12 0 0 1 12 0h285a12 12 0 0 1 12 12v285a12 12 0 0 1-12 12H12a12 12 0 0 1-12-12V12Z" fill="url(#nkuar4r4u)" fill-opacity=".4"/></g><path fill="#fff" fill-opacity=".1" d="M0 106.43h309v52H0z"/><g clip-path="url(#okuar4r4u)"><path d="m284.1 132-6.92 7-1.36-1.34 5.59-5.66-5.6-5.66 1.37-1.34 6.91 7Z" fill="#B2B5BE"/></g><path opacity=".8" d="M26.71 41.3a5.43 5.43 0 0 1-2.98-.81 5.28 5.28 0 0 1-1.95-2.3 8.44 8.44 0 0 1-.67-3.52v-.02c0-1.36.22-2.54.67-3.53a5.28 5.28 0 0 1 1.95-2.3c.83-.53 1.83-.8 2.98-.8.89 0 1.7.17 2.42.53.73.34 1.34.82 1.81 1.45.48.61.78 1.32.9 2.13l-.01.02h-1.6v-.03a3.48 3.48 0 0 0-3.52-2.64c-.81 0-1.52.2-2.11.63a4.02 4.02 0 0 0-1.38 1.8c-.33.77-.49 1.68-.49 2.74v.02c0 1.06.16 1.97.49 2.74.32.78.78 1.38 1.38 1.8.6.42 1.3.63 2.11.63.6 0 1.13-.1 1.61-.28.48-.2.89-.47 1.22-.83.32-.35.55-.78.68-1.26l.02-.03h1.6v.03a4.38 4.38 0 0 1-.92 2.02 4.82 4.82 0 0 1-1.78 1.33c-.71.32-1.52.48-2.43.48Zm11-.13a3.98 3.98 0 0 1-3.83-2.29 5.96 5.96 0 0 1-.53-2.6v-.02c0-1.01.17-1.88.53-2.6.35-.74.86-1.3 1.5-1.7.66-.39 1.44-.58 2.33-.58.9 0 1.68.2 2.33.58.65.4 1.15.96 1.5 1.7.36.72.54 1.59.54 2.6v.02c0 1-.18 1.88-.54 2.61a3.94 3.94 0 0 1-3.83 2.28Zm0-1.36c.6 0 1.1-.14 1.52-.42.41-.28.73-.68.95-1.2a4.9 4.9 0 0 0 .33-1.91v-.02c0-.75-.1-1.39-.33-1.91a2.56 2.56 0 0 0-.95-1.2 2.7 2.7 0 0 0-1.52-.42c-.6 0-1.1.14-1.51.41-.42.28-.74.68-.96 1.2a5.04 5.04 0 0 0-.33 1.92v.02c0 .74.11 1.38.33 1.9.22.53.54.93.96 1.21.41.28.92.42 1.5.42Zm6.25 4.35V31.54h1.52v1.51h.14a3.12 3.12 0 0 1 1.73-1.47c.37-.14.78-.2 1.22-.2.8 0 1.5.2 2.1.6.59.4 1.05.98 1.38 1.7.33.74.5 1.6.5 2.58v.02c0 .99-.17 1.85-.5 2.58-.33.73-.8 1.3-1.39 1.7-.59.4-1.29.6-2.09.6a3.5 3.5 0 0 1-2.25-.78c-.3-.24-.53-.53-.7-.87h-.14v4.65h-1.52Zm4.26-4.35c.58 0 1.07-.14 1.48-.42.41-.29.73-.7.94-1.22.23-.53.34-1.16.34-1.89v-.02c0-.74-.11-1.37-.34-1.9a2.64 2.64 0 0 0-.94-1.2c-.4-.29-.9-.43-1.48-.43-.57 0-1.06.14-1.48.43-.41.29-.73.7-.96 1.22a4.78 4.78 0 0 0-.33 1.88v.02c0 .72.11 1.35.33 1.88.23.53.55.94.96 1.22.42.29.91.43 1.48.43Zm6.68 4.5a3.84 3.84 0 0 1-.69-.05V43l.3.04h.33c.44 0 .8-.1 1.07-.33.28-.21.5-.6.67-1.14l.18-.56-3.5-9.47h1.64l2.9 8.72-.6-.93h.72l-.6.93 2.9-8.72h1.61l-3.7 10.04c-.26.7-.53 1.25-.82 1.65-.28.4-.61.68-1 .84-.38.16-.85.24-1.41.24Zm13.04-.15V31.54h1.52v1.51h.14a3.12 3.12 0 0 1 1.73-1.47c.37-.14.78-.2 1.22-.2.8 0 1.5.2 2.1.6.59.4 1.05.98 1.38 1.7.33.74.5 1.6.5 2.58v.02c0 .99-.17 1.85-.5 2.58-.33.73-.8 1.3-1.39 1.7-.59.4-1.29.6-2.09.6a3.5 3.5 0 0 1-2.25-.78c-.3-.24-.53-.53-.7-.87h-.14v4.65h-1.52Zm4.26-4.35c.58 0 1.07-.14 1.48-.42.41-.29.73-.7.94-1.22.23-.53.34-1.16.34-1.89v-.02c0-.74-.11-1.37-.34-1.9a2.64 2.64 0 0 0-.94-1.2c-.4-.29-.9-.43-1.48-.43-.57 0-1.06.14-1.48.43-.41.29-.73.7-.96 1.22a4.78 4.78 0 0 0-.33 1.88v.02c0 .72.11 1.35.33 1.88.23.53.55.94.96 1.22.42.29.91.43 1.48.43ZM78.42 41v-9.46h1.53v1.4h.13c.18-.49.49-.88.91-1.15a3.48 3.48 0 0 1 2.03-.39l.33.04v1.48a4.07 4.07 0 0 0-.93-.09c-.48 0-.91.1-1.28.3a2.12 2.12 0 0 0-1.2 2V41h-1.52Zm6.39 0v-9.46h1.53V41H84.8Zm.77-11.28a1 1 0 0 1-.74-.3c-.2-.21-.3-.46-.3-.74 0-.3.1-.54.3-.75a1 1 0 0 1 .74-.3c.3 0 .54.1.75.3.2.2.3.45.3.75 0 .28-.1.53-.3.74-.2.2-.46.3-.75.3Zm7.02 11.45a4.04 4.04 0 0 1-3.8-2.31 5.93 5.93 0 0 1-.54-2.61v-.02c0-.99.18-1.84.53-2.57a4 4 0 0 1 3.8-2.28c.77 0 1.43.13 1.99.4a3.51 3.51 0 0 1 1.98 2.61v.05h-1.52v-.02a2.17 2.17 0 0 0-.8-1.2c-.42-.33-.97-.49-1.65-.49-.56 0-1.05.14-1.47.43-.41.29-.73.7-.96 1.21a4.7 4.7 0 0 0-.34 1.86v.02c0 .72.12 1.35.35 1.88.23.54.55.95.96 1.24.42.3.9.44 1.46.44.64 0 1.16-.13 1.57-.41.4-.28.7-.68.87-1.2l.01-.07h1.52l-.02.1a4.04 4.04 0 0 1-.69 1.51c-.32.45-.76.8-1.3 1.05s-1.19.38-1.95.38Zm9.58 0a3.96 3.96 0 0 1-3.81-2.29 5.94 5.94 0 0 1-.52-2.57v-.01c0-.98.17-1.84.52-2.58A4.1 4.1 0 0 1 99.83 32a4.01 4.01 0 0 1 2.24-.62 3.77 3.77 0 0 1 3.64 2.26c.34.7.5 1.53.5 2.47v.6h-7.58V35.5h6.8l-.76 1.12V36c0-.75-.1-1.36-.33-1.84a2.35 2.35 0 0 0-2.28-1.42c-.5 0-.96.12-1.36.37-.4.24-.71.61-.95 1.1a4.1 4.1 0 0 0-.35 1.79v.6c0 .68.12 1.25.34 1.73.23.47.55.84.97 1.1.42.25.92.37 1.5.37.42 0 .8-.05 1.11-.17.32-.12.58-.27.78-.45.2-.18.35-.37.43-.56l.04-.08h1.53l-.02.07a2.9 2.9 0 0 1-.44.95c-.2.3-.47.57-.8.82-.34.24-.72.43-1.17.58-.44.14-.94.2-1.5.2ZM117.3 41V30.08h-.14l-3.23 2.33v-1.67l3.38-2.42h1.57V41h-1.58Zm10.5.21c-.9 0-1.68-.15-2.36-.46a3.95 3.95 0 0 1-1.62-1.29 3.18 3.18 0 0 1-.59-1.89v-.02a3.2 3.2 0 0 1 1.29-2.58c.4-.32.88-.54 1.41-.66v-.03a3.4 3.4 0 0 1-1.64-1.08 2.7 2.7 0 0 1-.61-1.74v-.02c0-.64.18-1.21.54-1.7.35-.51.84-.9 1.45-1.2a4.9 4.9 0 0 1 2.12-.43c.8 0 1.5.14 2.11.44.62.28 1.11.68 1.46 1.18.36.5.54 1.07.54 1.7v.03c0 .66-.2 1.25-.6 1.74-.41.5-.96.86-1.64 1.08v.03a3.54 3.54 0 0 1 2.34 1.8c.23.44.35.92.35 1.44v.02c0 .71-.2 1.34-.6 1.9-.38.54-.92.96-1.6 1.28-.68.3-1.47.46-2.36.46Zm0-1.38c.57 0 1.07-.1 1.51-.3.45-.2.8-.48 1.05-.83.25-.36.38-.77.38-1.22v-.02c0-.46-.13-.88-.38-1.23a2.5 2.5 0 0 0-1.04-.85c-.44-.2-.95-.3-1.53-.3-.57 0-1.08.1-1.53.3-.44.2-.79.49-1.04.85s-.38.77-.38 1.23v.02c0 .45.13.86.38 1.22.25.35.6.63 1.04.83.45.2.96.3 1.53.3Zm0-6.14c.5 0 .94-.09 1.31-.27.38-.18.68-.43.89-.74.22-.32.32-.68.32-1.1v-.01c0-.41-.1-.77-.32-1.09-.21-.32-.5-.56-.89-.74a3 3 0 0 0-1.32-.27c-.5 0-.93.09-1.31.27-.39.18-.68.42-.9.74-.22.32-.33.68-.33 1.09v.02c0 .4.11.77.33 1.09.22.31.51.56.9.74.38.18.82.27 1.31.27Zm10.85 7.6c-.93 0-1.74-.26-2.4-.8a5.08 5.08 0 0 1-1.54-2.3c-.36-.99-.54-2.17-.54-3.53v-.01c0-1.36.18-2.54.54-3.53.36-.99.87-1.75 1.54-2.3.66-.53 1.47-.8 2.4-.8.94 0 1.75.27 2.41.8.67.55 1.19 1.31 1.55 2.3.36 1 .54 2.17.54 3.53v.01c0 1.36-.18 2.54-.54 3.54a5.14 5.14 0 0 1-1.55 2.29c-.66.54-1.47.8-2.4.8Zm0-1.37c.61 0 1.13-.21 1.56-.64.43-.43.77-1.04 1-1.82a9.8 9.8 0 0 0 .35-2.8v-.01c0-1.08-.11-2.01-.35-2.8a4.1 4.1 0 0 0-1-1.8 2.12 2.12 0 0 0-1.56-.64c-.6 0-1.12.21-1.55.64a4.04 4.04 0 0 0-1 1.8c-.22.79-.34 1.72-.34 2.8v.01c0 1.08.12 2.01.35 2.8.22.78.56 1.39.99 1.82.43.43.95.64 1.55.64Zm7.86 1.17c-.31 0-.58-.11-.8-.34a1.09 1.09 0 0 1-.33-.8c0-.31.1-.58.33-.8.22-.22.49-.33.8-.33.32 0 .58.11.8.33.22.22.33.49.33.8 0 .31-.1.58-.33.8-.22.23-.48.34-.8.34Zm8.22-.09V30.08h-.14l-3.22 2.33v-1.67l3.37-2.42h1.58V41h-1.59Zm6.59 0v-1.09l4.16-4.64c.53-.59.94-1.07 1.23-1.45.3-.38.51-.73.63-1.04.12-.31.18-.66.18-1.03v-.01c0-.45-.1-.85-.28-1.2a2.04 2.04 0 0 0-.8-.83c-.34-.2-.75-.31-1.23-.31-.49 0-.91.1-1.28.31-.37.22-.66.5-.87.88-.2.37-.3.8-.3 1.3l-.01.01h-1.51l-.01-.01a3.69 3.69 0 0 1 1.98-3.37c.61-.33 1.31-.5 2.1-.5.72 0 1.37.15 1.95.46.58.3 1.03.73 1.37 1.26.34.53.5 1.14.5 1.83v.02c0 .48-.07.94-.24 1.39-.16.44-.45.94-.86 1.48-.4.54-.99 1.2-1.74 2l-3.18 3.39.4-.74v.74l-.4-.27h6.23V41h-8.02Z" fill="#E0E3EB"/><path d="M24.9 139.43v-11.26h-4.1v-1.43h9.76v1.43h-4.08v11.26H24.9Zm6.08 0v-9.46h1.53v1.4h.13c.18-.5.48-.88.91-1.15.43-.28.97-.42 1.6-.42a4.83 4.83 0 0 1 .76.06v1.49a3.98 3.98 0 0 0-.94-.09c-.48 0-.9.1-1.28.3-.37.18-.66.45-.87.8-.2.34-.31.74-.31 1.2v5.87h-1.53Zm8.95.16c-.6 0-1.14-.11-1.62-.34a2.67 2.67 0 0 1-1.54-2.47v-.02c0-.55.14-1.03.4-1.43.28-.4.67-.72 1.18-.95a5.35 5.35 0 0 1 1.87-.4l3.48-.21v1.22l-3.3.2c-.71.05-1.23.2-1.57.46-.33.25-.5.62-.5 1.08v.02c0 .48.19.85.55 1.12.36.26.82.4 1.37.4.52 0 .98-.1 1.39-.31.4-.21.72-.5.94-.85.24-.36.36-.77.36-1.22v-2.93c0-.59-.18-1.03-.54-1.34-.35-.3-.88-.46-1.6-.46-.56 0-1.03.1-1.39.3-.36.2-.6.49-.73.86v.03h-1.53l.01-.05c.08-.5.28-.94.6-1.31a3.3 3.3 0 0 1 1.3-.87 4.82 4.82 0 0 1 1.8-.32c.78 0 1.43.13 1.96.38s.94.61 1.22 1.08c.28.47.43 1.03.43 1.69v6.48h-1.53v-1.4h-.14a3.23 3.23 0 0 1-1.7 1.39c-.35.12-.74.17-1.17.17Zm10.33 0a3.62 3.62 0 0 1-3.47-2.3c-.33-.74-.49-1.6-.49-2.58v-.02c0-1 .16-1.85.5-2.59a3.65 3.65 0 0 1 3.47-2.3 3.49 3.49 0 0 1 2.24.78c.3.25.54.54.7.88h.15v-5.24h1.53v13.2h-1.53v-1.5h-.14a3.24 3.24 0 0 1-1.73 1.47c-.38.14-.79.2-1.23.2Zm.36-1.35a2.51 2.51 0 0 0 2.43-1.65c.23-.53.34-1.16.34-1.88v-.02c0-.73-.11-1.36-.34-1.88a2.51 2.51 0 0 0-2.43-1.65 2.51 2.51 0 0 0-2.43 1.64 4.91 4.91 0 0 0-.33 1.89v.02c0 .73.11 1.36.33 1.89.22.52.54.93.95 1.22.4.28.9.42 1.48.42Zm10.57 1.35a3.96 3.96 0 0 1-3.81-2.28 5.94 5.94 0 0 1-.53-2.58c0-.98.18-1.84.52-2.58a4.1 4.1 0 0 1 1.48-1.72 4.01 4.01 0 0 1 2.24-.63 3.78 3.78 0 0 1 3.64 2.26c.33.71.5 1.54.5 2.48v.6h-7.58v-1.22h6.8l-.76 1.11v-.6c0-.75-.1-1.36-.33-1.84a2.35 2.35 0 0 0-2.28-1.43c-.5 0-.96.13-1.36.37-.4.25-.72.62-.95 1.1a4.1 4.1 0 0 0-.35 1.8v.6c0 .68.11 1.25.34 1.72.23.48.55.85.97 1.1.42.25.92.38 1.5.38.42 0 .8-.06 1.1-.17.33-.12.59-.27.8-.45.2-.18.34-.37.42-.57l.04-.07h1.53l-.02.07a2.9 2.9 0 0 1-.44.95c-.2.3-.48.57-.81.81-.33.24-.71.44-1.16.58a5 5 0 0 1-1.5.21Z" fill="#F0F3FA"/><path opacity=".8" d="m20.59 200 4.67-12.68h1.22v2.04h-.5L22.26 200h-1.66Zm2.12-3.63.49-1.34h5.73l.5 1.34H22.7Zm7.13 3.63-3.72-10.64v-2.04h.7L31.5 200h-1.66Zm6.19.17a3.63 3.63 0 0 1-3.47-2.31 6.25 6.25 0 0 1-.5-2.58v-.02c0-.99.17-1.85.5-2.58a3.65 3.65 0 0 1 3.47-2.3 3.5 3.5 0 0 1 2.25.78c.3.24.53.54.7.88h.14v-5.25h1.53V200h-1.53v-1.51h-.14c-.2.35-.43.65-.73.9-.29.25-.62.44-1 .58-.37.13-.78.2-1.22.2Zm.35-1.36a2.5 2.5 0 0 0 2.44-1.65c.22-.53.34-1.16.34-1.88v-.02c0-.73-.12-1.36-.34-1.88a2.51 2.51 0 0 0-2.43-1.65 2.51 2.51 0 0 0-2.43 1.64 4.92 4.92 0 0 0-.33 1.9v.01c0 .73.1 1.36.33 1.89.22.53.53.93.94 1.22.41.28.9.42 1.48.42Zm10.2 1.36a3.63 3.63 0 0 1-3.47-2.31 6.25 6.25 0 0 1-.49-2.58v-.02c0-.99.16-1.85.5-2.58a3.65 3.65 0 0 1 3.47-2.3 3.5 3.5 0 0 1 2.24.78c.3.24.54.54.7.88h.15v-5.25h1.53V200h-1.53v-1.51h-.14c-.2.35-.44.65-.73.9-.3.25-.63.44-1 .58-.38.13-.79.2-1.23.2Zm.36-1.36a2.5 2.5 0 0 0 2.43-1.65c.23-.53.34-1.16.34-1.88v-.02c0-.73-.11-1.36-.34-1.88a2.51 2.51 0 0 0-2.43-1.65 2.51 2.51 0 0 0-2.43 1.64 4.92 4.92 0 0 0-.33 1.9v.01c0 .73.11 1.36.33 1.89.22.53.54.93.95 1.22.4.28.9.42 1.48.42ZM57.39 200l4.68-12.68h1.2v2.04h-.48L59.05 200H57.4Zm2.12-3.63.5-1.34h5.72l.5 1.34H59.5Zm7.14 3.63-3.73-10.64v-2.04h.71L68.31 200h-1.66Zm2.38 0 4.68-12.68h1.21v2.04h-.49L70.7 200h-1.67Zm2.12-3.63.5-1.34h5.72l.5 1.34h-6.72ZM78.3 200l-3.73-10.64v-2.04h.71L79.95 200h-1.66Zm4.19-4.53v-1.4h3.58c.9 0 1.6-.24 2.1-.7.5-.48.75-1.13.75-1.97v-.01c0-.84-.25-1.5-.74-1.96-.5-.47-1.2-.7-2.11-.7h-3.58v-1.41h3.98c.8 0 1.5.17 2.11.5.61.35 1.09.82 1.43 1.43.35.61.53 1.32.53 2.12v.02c0 .8-.18 1.5-.53 2.12-.34.62-.82 1.1-1.43 1.45a4.2 4.2 0 0 1-2.1.51h-3.99Zm-.8 4.53v-12.68h1.6V200h-1.6Zm10.95 0v-12.68h1.58v11.26h6.12V200h-7.7Zm17.46.08c-.97 0-1.67-.2-2.11-.59-.43-.4-.65-1.05-.65-1.94v-5.74h-1.48v-1.27h1.48v-2.45h1.58v2.45h2.06v1.27h-2.06v5.37c0 .55.1.94.32 1.19.2.23.56.36 1.04.36a5.5 5.5 0 0 0 .7-.04v1.3a9.5 9.5 0 0 1-.88.09Zm6.43.09a3.99 3.99 0 0 1-3.83-2.28 5.97 5.97 0 0 1-.53-2.61v-.02c0-1.01.18-1.88.53-2.6.36-.74.86-1.3 1.51-1.7.66-.39 1.43-.58 2.32-.58.9 0 1.68.2 2.33.59.65.39 1.15.95 1.5 1.68.36.73.54 1.6.54 2.61v.02c0 1-.18 1.88-.54 2.61a3.94 3.94 0 0 1-3.83 2.28Zm0-1.36c.6 0 1.1-.14 1.52-.42.42-.28.73-.68.95-1.2a4.9 4.9 0 0 0 .34-1.91v-.02c0-.75-.12-1.39-.34-1.91a2.56 2.56 0 0 0-.95-1.2 2.69 2.69 0 0 0-1.52-.42c-.59 0-1.1.14-1.51.41a2.6 2.6 0 0 0-.96 1.2 5.03 5.03 0 0 0-.32 1.92v.02c0 .74.1 1.38.32 1.9.22.53.54.93.96 1.21.42.28.92.42 1.51.42Zm12.64 1.19-2.66-9.46h1.53l1.87 7.57h.13l2.12-7.57h1.44l2.12 7.57h.14l1.86-7.57h1.52l-2.65 9.46h-1.54l-2.11-7.32h-.14l-2.1 7.32h-1.53Zm13.96.17a3.7 3.7 0 0 1-1.62-.35 2.67 2.67 0 0 1-1.54-2.47v-.01c0-.56.14-1.04.41-1.44.27-.4.66-.72 1.17-.94a5.36 5.36 0 0 1 1.87-.4l3.48-.22v1.22l-3.3.21c-.71.04-1.23.2-1.57.45-.33.26-.49.62-.49 1.08v.02c0 .48.18.86.54 1.12.36.27.82.4 1.37.4.52 0 .98-.1 1.39-.3.4-.22.72-.5.94-.86.24-.36.36-.76.36-1.21v-2.94c0-.59-.18-1.03-.54-1.34-.35-.3-.88-.46-1.59-.46-.57 0-1.03.1-1.4.3-.36.2-.6.5-.73.87v.03h-1.53l.01-.06c.08-.5.28-.93.6-1.3a3.3 3.3 0 0 1 1.3-.88 4.82 4.82 0 0 1 1.8-.31c.78 0 1.43.12 1.96.37.54.26.94.62 1.22 1.09.28.46.43 1.03.43 1.68V200h-1.53v-1.4h-.14a3.19 3.19 0 0 1-2.87 1.57Zm10.2-.1c-.97 0-1.68-.19-2.11-.58-.44-.4-.66-1.05-.66-1.94v-5.74h-1.48v-1.27h1.48v-2.45h1.59v2.45h2.05v1.27h-2.05v5.37c0 .55.1.94.31 1.19.21.23.56.36 1.05.36a5.5 5.5 0 0 0 .7-.04v1.3a9.11 9.11 0 0 1-.89.09Zm6.4.1c-.87 0-1.63-.2-2.28-.6a4.04 4.04 0 0 1-1.52-1.72 5.92 5.92 0 0 1-.53-2.6v-.02c0-.99.17-1.84.52-2.57a3.99 3.99 0 0 1 3.81-2.28c.77 0 1.43.13 1.99.4a3.52 3.52 0 0 1 1.97 2.61l.01.05h-1.52v-.02a2.17 2.17 0 0 0-.8-1.2c-.42-.33-.97-.5-1.65-.5-.56 0-1.05.15-1.47.44-.41.29-.74.7-.97 1.21a4.7 4.7 0 0 0-.33 1.86v.02c0 .72.12 1.35.34 1.88.23.54.56.95.97 1.24.42.3.9.44 1.46.44.64 0 1.16-.13 1.56-.41.4-.28.7-.68.87-1.2l.02-.06 1.51-.01-.01.1a4.02 4.02 0 0 1-.69 1.51c-.33.45-.76.8-1.3 1.05s-1.19.38-1.95.38Zm5.82-.17v-13.21h1.53v5.18h.13c.24-.5.58-.9 1.04-1.17a3.25 3.25 0 0 1 1.73-.42c.7 0 1.3.13 1.79.4.5.28.87.68 1.12 1.2.26.53.4 1.16.4 1.91V200h-1.54v-5.75c0-.85-.18-1.49-.54-1.9-.36-.41-.92-.62-1.67-.62-.5 0-.94.1-1.31.33-.37.21-.65.52-.86.92-.2.4-.3.87-.3 1.42v5.6h-1.52Zm10.1 0v-13.21h1.52V200h-1.53Zm4 0v-9.46h1.54V200h-1.53Zm.78-11.28a1 1 0 0 1-.74-.3c-.2-.21-.3-.46-.3-.74 0-.3.1-.54.3-.75a1 1 0 0 1 .74-.3c.3 0 .54.1.75.3.2.2.3.45.3.75 0 .28-.1.53-.3.74-.2.2-.46.3-.75.3Zm6.4 11.45c-.7 0-1.32-.1-1.86-.32a3.27 3.27 0 0 1-1.3-.9c-.32-.4-.51-.85-.57-1.38h1.57c.13.4.37.72.74.96.38.24.87.36 1.48.36.42 0 .8-.06 1.12-.18.32-.13.58-.3.76-.52.19-.22.28-.47.28-.76v-.01c0-.33-.13-.6-.38-.82a2.9 2.9 0 0 0-1.25-.56l-1.47-.35a5.33 5.33 0 0 1-1.46-.54c-.38-.23-.66-.5-.84-.84a2.42 2.42 0 0 1-.28-1.17v-.01c0-.53.16-1 .46-1.42.31-.41.73-.74 1.26-.97a4.34 4.34 0 0 1 1.8-.36c.66 0 1.25.1 1.76.31.51.2.93.5 1.24.89.31.38.5.83.57 1.34h-1.5c-.1-.38-.32-.68-.68-.92a2.5 2.5 0 0 0-1.4-.35c-.37 0-.7.06-1 .19-.29.11-.52.28-.69.49-.17.2-.25.44-.25.73v.01c0 .22.05.4.17.57.1.16.28.3.5.43.24.12.54.23.91.32l1.46.35c.6.14 1.09.33 1.48.56.39.23.68.5.87.83.19.33.29.72.29 1.17v.02c0 .56-.17 1.05-.5 1.49-.33.42-.78.76-1.36 1a4.9 4.9 0 0 1-1.92.36Zm8.95-.1c-.96 0-1.67-.19-2.1-.58-.44-.4-.66-1.05-.66-1.94v-5.74h-1.48v-1.27H193v-2.45h1.59v2.45h2.05v1.27h-2.06v5.37c0 .55.11.94.32 1.19.21.23.56.36 1.05.36a5.5 5.5 0 0 0 .7-.04v1.3a9.26 9.26 0 0 1-.89.09ZM21.6 241v-12.68h1.58v11.26h6.12V241h-7.7Zm13 .17a3.98 3.98 0 0 1-3.83-2.28 5.96 5.96 0 0 1-.53-2.61v-.02c0-1.01.17-1.88.52-2.6.36-.74.87-1.3 1.52-1.7.65-.39 1.43-.58 2.32-.58.9 0 1.68.2 2.33.59.65.39 1.15.95 1.5 1.68.36.73.54 1.6.54 2.61v.02c0 1-.18 1.88-.54 2.61a3.94 3.94 0 0 1-3.83 2.28Zm0-1.36c.6 0 1.1-.14 1.52-.42.41-.28.73-.68.95-1.2a4.9 4.9 0 0 0 .33-1.91v-.02c0-.75-.11-1.39-.33-1.91a2.56 2.56 0 0 0-.95-1.2 2.69 2.69 0 0 0-1.52-.42c-.6 0-1.1.14-1.51.41-.42.28-.74.68-.96 1.2a5.04 5.04 0 0 0-.33 1.92v.02c0 .74.11 1.38.33 1.9.22.53.54.93.96 1.21.41.28.92.42 1.5.42Zm10.11 1.36c-.88 0-1.64-.2-2.3-.6a4.05 4.05 0 0 1-1.5-1.72 5.93 5.93 0 0 1-.54-2.6v-.02c0-.99.18-1.84.53-2.57a4 4 0 0 1 3.8-2.28c.77 0 1.43.13 1.99.4a3.52 3.52 0 0 1 1.98 2.61v.05h-1.52v-.02a2.17 2.17 0 0 0-.8-1.2c-.42-.33-.97-.5-1.65-.5-.56 0-1.05.15-1.47.44-.41.29-.73.7-.96 1.21a4.7 4.7 0 0 0-.34 1.86v.02c0 .72.12 1.35.35 1.88.23.54.55.95.96 1.24.42.3.9.44 1.46.44.64 0 1.16-.13 1.57-.41.4-.28.7-.68.87-1.2l.01-.06 1.52-.01-.02.1a4.03 4.03 0 0 1-.69 1.51c-.32.45-.76.8-1.3 1.05s-1.19.38-1.95.38Zm5.8-.17v-13.21h1.54V241h-1.53Zm5.97 0-3.7-4.63 1.13-.98L58.4 241h-1.91Zm-4.63-3.4-.07-1.93h.4l4.1-4.13h1.85l-4.5 4.34-.35.35-1.43 1.37Zm15.1 3.4-3.5-9.46h1.62l2.6 7.79h.12l2.6-7.79H72L68.5 241h-1.55Zm10.1.17a3.96 3.96 0 0 1-3.81-2.28 5.94 5.94 0 0 1-.52-2.58v-.01c0-.98.18-1.84.52-2.58a4.1 4.1 0 0 1 1.48-1.72 4.01 4.01 0 0 1 2.24-.62 3.77 3.77 0 0 1 3.64 2.26c.33.7.5 1.53.5 2.47v.6h-7.59v-1.22h6.8l-.75 1.11v-.6c0-.75-.11-1.36-.33-1.84a2.36 2.36 0 0 0-2.28-1.42c-.5 0-.96.12-1.36.37-.4.24-.72.61-.95 1.1a4.11 4.11 0 0 0-.35 1.79v.6c0 .68.11 1.25.34 1.73.23.47.55.84.97 1.1.42.25.92.38 1.5.38.42 0 .8-.06 1.1-.18.32-.12.59-.27.79-.45.2-.18.35-.37.43-.56l.04-.08h1.53l-.02.07a2.9 2.9 0 0 1-.44.95c-.2.3-.48.57-.81.82-.33.24-.71.43-1.16.58-.45.14-.95.2-1.5.2ZM83 241v-9.46h1.53v1.4h.13c.18-.49.48-.88.91-1.15.44-.28.97-.41 1.6-.41a4.13 4.13 0 0 1 .76.06v1.48a4.2 4.2 0 0 0-.93-.08c-.48 0-.91.1-1.29.28-.37.2-.66.46-.87.8-.2.35-.31.76-.31 1.22V241H83Zm9.9.08c-.98 0-1.68-.2-2.12-.59-.43-.4-.65-1.05-.65-1.94v-5.74h-1.48v-1.27h1.48v-2.45h1.58v2.45h2.06v1.27h-2.06v5.37c0 .55.1.94.32 1.19.21.23.56.36 1.05.36a5.5 5.5 0 0 0 .69-.04v1.3a9.33 9.33 0 0 1-.88.09Zm2.71-.08v-9.46h1.53V241h-1.53Zm.78-11.28a1 1 0 0 1-.74-.3c-.2-.21-.3-.46-.3-.74 0-.3.1-.54.3-.75a1 1 0 0 1 .74-.3c.29 0 .54.1.74.3.21.2.31.45.31.75 0 .28-.1.53-.3.74-.21.2-.46.3-.75.3Zm7.02 11.45c-.88 0-1.64-.2-2.3-.6a4.05 4.05 0 0 1-1.5-1.72 5.93 5.93 0 0 1-.54-2.6v-.02c0-.99.17-1.84.52-2.57a4 4 0 0 1 3.8-2.28c.78 0 1.44.13 2 .4a3.53 3.53 0 0 1 1.97 2.61l.01.05h-1.52v-.02a2.17 2.17 0 0 0-.8-1.2c-.42-.33-.97-.5-1.65-.5-.56 0-1.05.15-1.47.44-.41.29-.74.7-.97 1.21a4.7 4.7 0 0 0-.33 1.86v.02c0 .72.12 1.35.34 1.88.23.54.55.95.97 1.24.42.3.9.44 1.46.44.64 0 1.16-.13 1.56-.41.4-.28.7-.68.87-1.2l.02-.06 1.51-.01-.01.1a4.04 4.04 0 0 1-.69 1.51c-.33.45-.76.8-1.3 1.05s-1.19.38-1.95.38Zm8.32 0a3.7 3.7 0 0 1-1.62-.35 2.67 2.67 0 0 1-1.54-2.47v-.01c0-.56.14-1.04.4-1.44.28-.4.67-.72 1.18-.94a5.36 5.36 0 0 1 1.87-.4l3.48-.22v1.22l-3.3.21c-.71.04-1.23.2-1.57.45-.33.26-.5.62-.5 1.08v.02c0 .48.19.86.55 1.12.36.27.81.4 1.37.4.52 0 .98-.1 1.39-.3.4-.22.72-.5.94-.86.24-.36.36-.76.36-1.21v-2.94c0-.59-.18-1.03-.54-1.34-.35-.3-.88-.46-1.6-.46-.56 0-1.03.1-1.39.3-.36.2-.6.5-.73.87v.03h-1.53l.01-.06c.08-.5.28-.93.6-1.3a3.3 3.3 0 0 1 1.3-.88 4.82 4.82 0 0 1 1.8-.31c.78 0 1.43.12 1.96.37.53.26.94.62 1.22 1.09.28.46.42 1.03.42 1.68V241h-1.52v-1.4h-.14a3.19 3.19 0 0 1-2.87 1.57Zm6.93-.17v-13.21h1.53V241h-1.53Zm12.4.17c-.87 0-1.63-.2-2.28-.6a4.05 4.05 0 0 1-1.52-1.72 5.93 5.93 0 0 1-.53-2.6v-.02c0-.99.17-1.84.52-2.57a4 4 0 0 1 3.81-2.28c.77 0 1.43.13 1.99.4a3.53 3.53 0 0 1 1.97 2.61l.01.05h-1.52v-.02a2.17 2.17 0 0 0-.8-1.2c-.42-.33-.97-.5-1.65-.5-.56 0-1.05.15-1.47.44-.41.29-.74.7-.96 1.21a4.7 4.7 0 0 0-.34 1.86v.02c0 .72.12 1.35.34 1.88.23.54.56.95.97 1.24.42.3.9.44 1.46.44.64 0 1.16-.13 1.56-.41.4-.28.7-.68.88-1.2l.01-.06 1.51-.01-.01.1a4.04 4.04 0 0 1-.69 1.51c-.33.45-.76.8-1.3 1.05s-1.19.38-1.95.38Zm8.9 0c-.71 0-1.31-.14-1.8-.4a2.62 2.62 0 0 1-1.1-1.2 4.54 4.54 0 0 1-.36-1.9v-6.13h1.53v5.76c0 .84.17 1.47.5 1.89.33.41.87.62 1.63.62.4 0 .77-.06 1.09-.18.32-.12.59-.3.8-.53.22-.23.38-.51.49-.84.11-.34.17-.7.17-1.12v-5.6h1.53V241h-1.53v-1.4h-.14c-.15.32-.37.6-.63.85a2.7 2.7 0 0 1-.94.53c-.36.13-.77.19-1.24.19Zm6.84-.17v-9.46h1.53v1.4h.13c.18-.49.49-.88.91-1.15.44-.28.97-.41 1.6-.41a4.2 4.2 0 0 1 .76.06v1.48a4.25 4.25 0 0 0-.93-.08c-.48 0-.91.1-1.29.28-.36.2-.66.46-.87.8-.2.35-.31.76-.31 1.22V241h-1.53Zm9.43.17c-.7 0-1.33-.1-1.87-.32a3.27 3.27 0 0 1-1.3-.9c-.32-.4-.51-.85-.57-1.38h1.57c.13.4.37.72.74.96.38.24.87.36 1.48.36.42 0 .8-.06 1.12-.18.32-.13.58-.3.76-.52.19-.22.28-.47.28-.76v-.01c0-.33-.13-.6-.38-.82a2.9 2.9 0 0 0-1.25-.56l-1.47-.35a5.33 5.33 0 0 1-1.46-.54c-.38-.23-.66-.5-.84-.84a2.42 2.42 0 0 1-.28-1.17v-.01c0-.53.16-1 .46-1.42.31-.41.73-.74 1.26-.97a4.34 4.34 0 0 1 1.8-.36c.66 0 1.25.1 1.76.31.51.2.93.5 1.24.89.31.38.5.83.57 1.34h-1.5c-.1-.38-.32-.68-.68-.92a2.5 2.5 0 0 0-1.4-.35c-.37 0-.7.06-1 .19-.29.11-.52.28-.69.49-.17.2-.25.44-.25.73v.01c0 .22.05.4.17.57.1.16.28.3.5.43.24.12.54.23.91.32l1.46.35c.6.14 1.09.33 1.48.56.39.23.68.5.87.83.19.33.29.72.29 1.17v.02c0 .56-.17 1.05-.5 1.49-.33.42-.78.76-1.36 1a4.9 4.9 0 0 1-1.92.36Zm9.57 0a3.99 3.99 0 0 1-3.83-2.28 5.97 5.97 0 0 1-.53-2.61v-.02c0-1.01.17-1.88.52-2.6.36-.74.87-1.3 1.52-1.7.65-.39 1.43-.58 2.32-.58.9 0 1.67.2 2.33.59.65.39 1.15.95 1.5 1.68.36.73.53 1.6.53 2.61v.02c0 1-.17 1.88-.53 2.61a3.94 3.94 0 0 1-3.83 2.28Zm0-1.36c.6 0 1.1-.14 1.52-.42.41-.28.73-.68.95-1.2a4.9 4.9 0 0 0 .33-1.91v-.02c0-.75-.11-1.39-.33-1.91a2.56 2.56 0 0 0-.95-1.2 2.69 2.69 0 0 0-1.52-.42c-.6 0-1.1.14-1.52.41a2.6 2.6 0 0 0-.95 1.2 5.03 5.03 0 0 0-.33 1.92v.02c0 .74.11 1.38.33 1.9.22.53.54.93.95 1.21.42.28.93.42 1.52.42Zm6.24 1.19v-9.46h1.53v1.4h.14c.18-.49.48-.88.9-1.15.44-.28.98-.41 1.6-.41a4.08 4.08 0 0 1 .75.06v1.48a4.18 4.18 0 0 0-.92-.08c-.48 0-.9.1-1.28.28-.37.2-.66.46-.87.8a2.3 2.3 0 0 0-.32 1.22V241h-1.53Zm11 0v-13.21h1.53V241h-1.53Zm4.02 0v-9.46h1.53V241h-1.53Zm.77-11.28a1 1 0 0 1-.74-.3c-.2-.21-.3-.46-.3-.74 0-.3.1-.54.3-.75a1 1 0 0 1 .74-.3c.3 0 .54.1.75.3.2.2.3.45.3.75 0 .28-.1.53-.3.74-.2.2-.46.3-.75.3ZM191 241v-9.46h1.52v1.42h.14c.24-.5.58-.89 1.03-1.16a3.26 3.26 0 0 1 1.74-.42c1.06 0 1.87.3 2.44.91.57.6.86 1.47.86 2.58V241h-1.53v-5.76c0-.85-.18-1.49-.54-1.9-.36-.4-.92-.61-1.67-.61-.5 0-.94.1-1.3.33-.37.21-.66.52-.87.92-.2.39-.3.87-.3 1.42v5.6H191Zm13.86.17a3.95 3.95 0 0 1-3.81-2.28 5.94 5.94 0 0 1-.52-2.58v-.01a6 6 0 0 1 .52-2.58 4.1 4.1 0 0 1 1.47-1.72 4.02 4.02 0 0 1 2.25-.62 3.76 3.76 0 0 1 3.64 2.26c.33.7.5 1.53.5 2.47v.6h-7.59v-1.22h6.8l-.75 1.11v-.6c0-.75-.11-1.36-.34-1.84a2.35 2.35 0 0 0-2.27-1.42c-.51 0-.97.12-1.36.37-.4.24-.72.61-.95 1.1a4.11 4.11 0 0 0-.35 1.79v.6c0 .68.1 1.25.34 1.73.23.47.55.84.96 1.1.43.25.92.38 1.5.38.43 0 .8-.06 1.12-.18.31-.12.57-.27.78-.45.2-.18.35-.37.43-.56l.03-.08h1.53l-.02.07a2.9 2.9 0 0 1-.44.95c-.2.3-.47.57-.8.82-.33.24-.72.43-1.16.58-.45.14-.95.2-1.5.2Zm15.2 0a3.26 3.26 0 0 1-2.22-.77c-.3-.26-.54-.56-.73-.91h-.13V241h-1.53v-13.21h1.53v5.25h.13c.18-.34.41-.64.7-.88a3.57 3.57 0 0 1 2.25-.78 3.62 3.62 0 0 1 3.48 2.3c.32.73.49 1.6.49 2.58v.02c0 .98-.17 1.84-.5 2.57a3.62 3.62 0 0 1-3.47 2.31Zm-.35-1.36c.58 0 1.08-.14 1.49-.42.4-.29.72-.7.94-1.22.22-.53.32-1.16.32-1.89v-.02c0-.74-.1-1.36-.32-1.89a2.64 2.64 0 0 0-.94-1.21c-.41-.29-.9-.43-1.49-.43a2.53 2.53 0 0 0-2.43 1.65 4.77 4.77 0 0 0-.34 1.88v.02c0 .72.12 1.35.34 1.88a2.53 2.53 0 0 0 2.43 1.65Zm6.66 4.5a3.71 3.71 0 0 1-.68-.05V243l.3.04h.33c.44 0 .79-.1 1.06-.33.29-.21.51-.6.68-1.14l.18-.56-3.5-9.47h1.63l2.91 8.72-.6-.93h.72l-.6.93 2.9-8.72h1.6l-3.7 10.04c-.25.7-.52 1.25-.8 1.65-.3.4-.63.68-1.01.84-.38.16-.85.24-1.42.24Zm16.4-3.23c-.97 0-1.68-.2-2.12-.59-.43-.4-.65-1.05-.65-1.94v-5.74h-1.48v-1.27h1.48v-2.45h1.58v2.45h2.06v1.27h-2.06v5.37c0 .55.1.94.32 1.19.21.23.56.36 1.05.36a5.5 5.5 0 0 0 .7-.04v1.3a9.5 9.5 0 0 1-.89.09Zm2.72-.08v-9.46H247V241h-1.53Zm.77-11.28a1 1 0 0 1-.74-.3c-.2-.21-.3-.46-.3-.74 0-.3.1-.54.3-.75a1 1 0 0 1 .74-.3c.3 0 .54.1.75.3.2.2.3.45.3.75 0 .28-.1.53-.3.74-.21.2-.46.3-.75.3ZM249.4 241v-9.46h1.53v1.44h.13c.21-.5.54-.9.97-1.18a2.9 2.9 0 0 1 1.59-.42 2.62 2.62 0 0 1 2.03.8c.25.24.44.53.59.86h.13a3.06 3.06 0 0 1 1.68-1.45 3.5 3.5 0 0 1 1.22-.21c.65 0 1.2.12 1.64.36.45.24.79.59 1.02 1.05.24.46.36 1.02.36 1.67V241h-1.53v-6.19c0-.46-.08-.84-.22-1.15a1.41 1.41 0 0 0-.65-.7c-.3-.15-.66-.23-1.11-.23-.44 0-.82.1-1.15.3-.32.2-.58.46-.76.79-.18.33-.27.7-.27 1.1V241h-1.53v-6.42c0-.37-.08-.7-.25-.97a1.6 1.6 0 0 0-.68-.65 2.22 2.22 0 0 0-2.15.1c-.32.2-.59.5-.78.87a2.6 2.6 0 0 0-.28 1.2V241h-1.53Zm19.02.17a3.95 3.95 0 0 1-3.81-2.28 5.94 5.94 0 0 1-.52-2.58v-.01a6 6 0 0 1 .52-2.58 4.1 4.1 0 0 1 1.47-1.72 4.02 4.02 0 0 1 2.24-.62 3.77 3.77 0 0 1 3.64 2.26c.33.7.5 1.53.5 2.47v.6h-7.58v-1.22h6.8l-.76 1.11v-.6c0-.75-.1-1.36-.33-1.84a2.35 2.35 0 0 0-2.28-1.42c-.5 0-.96.12-1.36.37-.4.24-.71.61-.95 1.1a4.11 4.11 0 0 0-.35 1.79v.6c0 .68.12 1.25.34 1.73.23.47.55.84.97 1.1.42.25.92.38 1.5.38.42 0 .8-.06 1.11-.18.32-.12.58-.27.78-.45.2-.18.35-.37.43-.56l.04-.08h1.53l-.02.07a2.9 2.9 0 0 1-.44.95c-.2.3-.47.57-.8.82-.34.24-.72.43-1.17.58-.44.14-.94.2-1.5.2ZM26.93 282.3a5.8 5.8 0 0 1-3.12-.81 5.34 5.34 0 0 1-2-2.31c-.47-1-.7-2.17-.7-3.52v-.01c0-1.36.23-2.54.7-3.53a5.35 5.35 0 0 1 2.01-2.3c.88-.53 1.91-.8 3.1-.8a5.26 5.26 0 0 1 5.12 3.11c.47.99.7 2.16.7 3.52v.01c0 1.35-.23 2.52-.7 3.52a5.27 5.27 0 0 1-5.11 3.12Zm0-1.46c.86 0 1.61-.21 2.24-.64a4.12 4.12 0 0 0 1.45-1.8c.34-.78.5-1.7.5-2.74v-.01c0-1.06-.16-1.97-.5-2.75a4.07 4.07 0 0 0-1.45-1.79 3.92 3.92 0 0 0-2.24-.63c-.87 0-1.61.2-2.24.63a4.13 4.13 0 0 0-1.46 1.8 6.78 6.78 0 0 0-.5 2.74v.01c0 1.05.16 1.96.5 2.74.33.77.81 1.37 1.44 1.8a3.9 3.9 0 0 0 2.26.64Zm12.58 1.33a3.26 3.26 0 0 1-2.22-.77c-.3-.26-.54-.56-.73-.91h-.14V282H34.9v-13.21h1.52v5.25h.14c.17-.34.4-.64.7-.88a3.56 3.56 0 0 1 2.25-.78 3.62 3.62 0 0 1 3.47 2.3c.33.73.5 1.6.5 2.58v.02c0 .99-.17 1.84-.5 2.58a3.62 3.62 0 0 1-3.47 2.31Zm-.35-1.36c.58 0 1.07-.14 1.48-.42.41-.29.73-.7.94-1.22.22-.53.33-1.16.33-1.89v-.02c0-.74-.1-1.37-.33-1.89a2.64 2.64 0 0 0-.94-1.21c-.4-.29-.9-.43-1.48-.43-.57 0-1.06.14-1.48.43-.41.29-.73.7-.96 1.22a4.78 4.78 0 0 0-.33 1.88v.02c0 .72.11 1.35.33 1.88.23.53.55.94.96 1.22.42.29.91.43 1.48.43Zm4.85 4.43h-.27v-1.35H43.97c.52 0 .88-.1 1.1-.32.21-.2.32-.56.32-1.08v-9.95h1.53v9.93c0 .96-.24 1.67-.71 2.1-.47.45-1.2.67-2.2.67Zm2.14-14.52a1 1 0 0 1-.74-.3c-.2-.22-.3-.46-.3-.74 0-.3.1-.54.3-.75a1 1 0 0 1 .74-.3c.3 0 .54.1.75.3.2.2.3.45.3.75 0 .28-.1.52-.3.74-.2.2-.45.3-.75.3Zm7.03 11.45a3.96 3.96 0 0 1-3.81-2.28 5.94 5.94 0 0 1-.52-2.58v-.01c0-.98.17-1.84.52-2.58a4.1 4.1 0 0 1 1.47-1.72 4.01 4.01 0 0 1 2.25-.62 3.77 3.77 0 0 1 3.64 2.26c.33.7.5 1.53.5 2.47v.6h-7.59v-1.22h6.8l-.75 1.12V277c0-.75-.11-1.36-.34-1.84a2.36 2.36 0 0 0-2.27-1.42c-.51 0-.97.12-1.37.37-.4.24-.71.61-.94 1.1a4.11 4.11 0 0 0-.36 1.79v.6c0 .68.12 1.25.35 1.73.23.47.55.84.96 1.1.43.25.92.38 1.5.38.43 0 .8-.06 1.11-.18.32-.12.58-.27.79-.45.2-.18.34-.37.43-.56l.03-.08h1.53l-.02.07a2.9 2.9 0 0 1-.44.95c-.2.3-.47.57-.8.82-.33.24-.72.43-1.16.58-.45.14-.95.2-1.5.2Zm9.8 0c-.87 0-1.63-.2-2.28-.6a4.05 4.05 0 0 1-1.52-1.71 5.93 5.93 0 0 1-.53-2.62v-.01c0-.99.17-1.84.52-2.57a4 4 0 0 1 3.81-2.28c.77 0 1.43.13 1.99.4a3.52 3.52 0 0 1 1.97 2.61l.01.05h-1.52v-.02a2.17 2.17 0 0 0-.8-1.2c-.42-.33-.97-.5-1.65-.5-.56 0-1.05.15-1.47.44-.41.29-.74.7-.96 1.21a4.7 4.7 0 0 0-.34 1.86v.01c0 .73.12 1.36.34 1.9.23.53.56.94.97 1.23.42.3.9.44 1.46.44.64 0 1.16-.13 1.56-.41.4-.28.7-.68.87-1.2l.02-.06 1.51-.01-.01.1a4.04 4.04 0 0 1-.69 1.51c-.33.45-.76.8-1.3 1.05s-1.19.38-1.95.38Zm9.25-.1c-.96 0-1.67-.19-2.1-.58-.44-.4-.66-1.05-.66-1.94v-5.74H68v-1.27h1.48v-2.45h1.59v2.45h2.05v1.27h-2.05v5.37c0 .55.1.94.31 1.19.21.24.56.36 1.05.36a5.5 5.5 0 0 0 .7-.04v1.3a9.31 9.31 0 0 1-.89.09Zm10.74-.07v-11.26h-4.09v-1.42h9.75v1.42h-4.08V282h-1.58Zm6.08 0v-9.46h1.53v1.4h.13c.18-.49.49-.88.92-1.15.43-.28.96-.41 1.6-.41a4.14 4.14 0 0 1 .76.06v1.48a4.21 4.21 0 0 0-.94-.09c-.48 0-.9.1-1.28.3-.37.18-.66.45-.87.8-.21.34-.32.75-.32 1.2V282h-1.53Zm9.95.17a3.96 3.96 0 0 1-3.81-2.28 5.94 5.94 0 0 1-.53-2.58v-.01c0-.98.18-1.84.52-2.58a4.1 4.1 0 0 1 1.48-1.72 4.01 4.01 0 0 1 2.24-.62 3.77 3.77 0 0 1 3.64 2.26c.33.7.5 1.53.5 2.47v.6h-7.58v-1.22h6.8l-.76 1.12V277a4.4 4.4 0 0 0-.33-1.84 2.36 2.36 0 0 0-2.28-1.42c-.5 0-.96.12-1.36.37-.4.24-.71.61-.95 1.1a4.1 4.1 0 0 0-.35 1.79v.6c0 .68.11 1.25.34 1.73.23.47.55.84.97 1.1.42.25.92.38 1.5.38.42 0 .8-.06 1.1-.18.33-.12.59-.27.8-.45.2-.18.34-.37.42-.56l.04-.08h1.53l-.02.07c-.08.33-.23.64-.44.95-.2.3-.47.57-.8.82-.34.24-.72.43-1.17.58-.44.14-.95.2-1.5.2Zm9.8 0a3.96 3.96 0 0 1-3.82-2.28 5.95 5.95 0 0 1-.52-2.58v-.01c0-.98.18-1.84.52-2.58a4.1 4.1 0 0 1 1.48-1.72 4.01 4.01 0 0 1 2.24-.62 3.77 3.77 0 0 1 3.64 2.26c.33.7.5 1.53.5 2.47v.6h-7.59v-1.22h6.8l-.75 1.12V277a4.4 4.4 0 0 0-.33-1.84 2.36 2.36 0 0 0-2.28-1.42c-.5 0-.96.12-1.36.37-.4.24-.72.61-.95 1.1a4.11 4.11 0 0 0-.35 1.79v.6c0 .68.11 1.25.34 1.73.23.47.55.84.97 1.1.42.25.92.38 1.5.38.42 0 .8-.06 1.1-.18.32-.12.58-.27.79-.45.2-.18.35-.37.43-.56l.03-.08h1.53l-.01.07a2.9 2.9 0 0 1-.44.95c-.2.3-.48.57-.81.82-.33.24-.72.43-1.16.58-.45.14-.95.2-1.5.2Zm7.17-.08c-.31 0-.58-.11-.8-.34a1.1 1.1 0 0 1-.34-.8c0-.31.11-.58.34-.8.22-.22.48-.33.8-.33.31 0 .58.11.8.33.22.22.33.49.33.8 0 .31-.11.58-.33.8-.22.23-.49.34-.8.34Zm4.82 0c-.31 0-.58-.11-.8-.34a1.09 1.09 0 0 1-.33-.8c0-.31.1-.58.33-.8.22-.22.49-.33.8-.33.32 0 .58.11.8.33.22.22.33.49.33.8 0 .31-.1.58-.33.8-.22.23-.48.34-.8.34Zm4.82 0c-.3 0-.57-.11-.8-.34a1.09 1.09 0 0 1-.33-.8c0-.31.11-.58.33-.8.23-.22.5-.33.8-.33.32 0 .59.11.8.33.23.22.34.49.34.8 0 .31-.11.58-.34.8-.21.23-.48.34-.8.34ZM22.4 75.47v-1.4h3.57c.9 0 1.6-.24 2.1-.7.5-.48.75-1.13.75-1.97v-.01c0-.84-.24-1.5-.74-1.96-.5-.47-1.2-.7-2.11-.7h-3.58v-1.41h3.98c.8 0 1.5.17 2.11.5.61.35 1.09.82 1.43 1.43.36.61.53 1.32.53 2.12v.02c0 .8-.17 1.5-.53 2.12-.34.62-.82 1.1-1.43 1.45a4.2 4.2 0 0 1-2.1.51h-3.99ZM21.6 80V67.32h1.58V80H21.6Zm12.98.17c-.6 0-1.14-.12-1.62-.35a2.72 2.72 0 0 1-1.12-.97 2.67 2.67 0 0 1-.42-1.5v-.01c0-.56.14-1.04.4-1.44.28-.4.67-.72 1.18-.94a5.36 5.36 0 0 1 1.87-.4l3.48-.22v1.22l-3.3.21c-.71.04-1.24.2-1.57.45-.33.26-.5.62-.5 1.08v.02c0 .48.19.85.54 1.12.37.27.82.4 1.38.4.52 0 .98-.1 1.38-.3.4-.22.73-.5.95-.86.24-.36.36-.76.36-1.21v-2.94c0-.58-.18-1.03-.54-1.33-.35-.32-.88-.47-1.6-.47-.56 0-1.03.1-1.39.3-.36.2-.6.5-.73.87v.02H31.8l.01-.05c.08-.5.28-.93.6-1.3a3.3 3.3 0 0 1 1.3-.88 4.82 4.82 0 0 1 1.8-.31c.77 0 1.43.12 1.96.37.53.26.94.62 1.22 1.08.28.47.42 1.04.42 1.7V80H37.6v-1.4h-.15a3.21 3.21 0 0 1-1.68 1.4c-.36.1-.75.17-1.18.17Zm10.1 0c-.7 0-1.33-.1-1.87-.32a3.26 3.26 0 0 1-1.3-.9c-.32-.4-.51-.85-.57-1.38h1.57c.12.4.37.72.74.96.38.24.87.36 1.48.36.42 0 .8-.06 1.12-.18.32-.13.58-.3.76-.52.19-.22.28-.47.28-.76v-.01c0-.33-.13-.6-.39-.82a2.9 2.9 0 0 0-1.24-.56l-1.47-.35a5.36 5.36 0 0 1-1.46-.54c-.38-.23-.66-.5-.84-.84a2.43 2.43 0 0 1-.28-1.17v-.01c0-.53.16-1 .46-1.42a3.1 3.1 0 0 1 1.26-.97 4.34 4.34 0 0 1 1.8-.36c.66 0 1.25.1 1.76.31.51.2.93.5 1.24.89.31.38.5.83.57 1.34h-1.5c-.1-.38-.32-.68-.68-.92a2.5 2.5 0 0 0-1.4-.35c-.37 0-.7.06-1 .18-.29.12-.52.29-.69.5-.17.2-.25.45-.25.73v.01c0 .22.05.4.16.57.12.16.29.3.51.43.24.12.54.23.91.32l1.46.35c.6.14 1.09.33 1.48.56.39.23.68.5.87.83.19.33.29.72.29 1.17v.02c0 .56-.17 1.05-.5 1.48-.33.43-.78.77-1.36 1a4.9 4.9 0 0 1-1.92.37Zm8.94-.1c-.97 0-1.67-.19-2.1-.58-.44-.4-.66-1.05-.66-1.94V71.8h-1.48v-1.27h1.48V68.1h1.58v2.45h2.06v1.27h-2.06v5.37c0 .55.1.94.32 1.19.21.24.56.36 1.05.36a5.6 5.6 0 0 0 .7-.04v1.3a9.45 9.45 0 0 1-.89.09Zm6.4.1a3.96 3.96 0 0 1-3.81-2.29 5.94 5.94 0 0 1-.52-2.57v-.01c0-.98.18-1.84.52-2.58A4.1 4.1 0 0 1 57.7 71a4.01 4.01 0 0 1 2.24-.62 3.77 3.77 0 0 1 3.64 2.26c.33.7.5 1.53.5 2.47v.6h-7.58V74.5h6.8l-.76 1.12V75c0-.75-.1-1.36-.33-1.84a2.36 2.36 0 0 0-2.28-1.42c-.5 0-.96.12-1.36.37-.4.24-.72.61-.95 1.1a4.1 4.1 0 0 0-.35 1.79v.6c0 .68.11 1.25.34 1.73.23.47.55.84.97 1.1.42.25.92.37 1.5.37.42 0 .8-.05 1.1-.17.32-.12.59-.27.8-.45.2-.18.34-.37.42-.56l.04-.08h1.53l-.02.07a2.9 2.9 0 0 1-.44.95c-.2.3-.48.57-.81.82-.33.24-.71.43-1.16.58-.45.14-.95.2-1.5.2Z" fill="#E0E3EB"/><path opacity=".3" d="M258.8 187.35c.3 0 .58.09.83.25.24.16.43.38.55.66l4.4 9.95c.1.21.28.32.54.32h2.93c.2 0 .38.07.52.21.15.14.22.31.22.51s-.07.36-.22.5a.73.73 0 0 1-.52.22h-3.3c-.34 0-.62-.07-.84-.22-.23-.14-.4-.37-.55-.69l-4.41-9.95a.56.56 0 0 0-.21-.25.55.55 0 0 0-.3-.08h-2.94a.76.76 0 0 1-.53-.2.7.7 0 0 1-.21-.52c0-.2.07-.36.2-.5a.75.75 0 0 1 .54-.2h3.3Zm9.25 0c.2 0 .38.07.52.2.14.14.22.3.22.5 0 .21-.08.38-.22.51a.73.73 0 0 1-.52.2h-4.27a.73.73 0 0 1-.52-.2.67.67 0 0 1-.21-.5c0-.2.07-.37.2-.5.15-.14.32-.2.53-.2h4.27ZM278.9 200l-3.46-12.68h1.66l2.52 10.32h.1l2.84-10.32h1.6l2.84 10.32h.1l2.53-10.32h1.65L287.83 200h-1.5l-2.91-10.02h-.11L280.39 200h-1.5ZM265.56 73.15h-1.29a2.51 2.51 0 0 1-2.18-1.22c-.22-.38-.33-.8-.33-1.27a2.46 2.46 0 0 1 1.25-2.18c.38-.22.8-.34 1.26-.34.46 0 .89.12 1.27.34a2.55 2.55 0 0 1 1.25 2.18v1.29h2.97v-1.29c0-.46.11-.88.34-1.26.23-.38.53-.69.9-.92.38-.22.8-.34 1.27-.34.46 0 .88.12 1.27.34a2.55 2.55 0 0 1 .9 3.45 2.5 2.5 0 0 1-2.17 1.22h-1.28v3.02h1.28c.46 0 .88.1 1.27.33a2.43 2.43 0 0 1 1.24 2.15 2.55 2.55 0 0 1-2.51 2.52c-.46 0-.88-.1-1.27-.34a2.65 2.65 0 0 1-.9-.91 2.4 2.4 0 0 1-.34-1.27v-1.28h-2.97v1.28a2.55 2.55 0 0 1-1.25 2.18c-.38.23-.8.35-1.27.35-.46 0-.88-.12-1.26-.35a2.46 2.46 0 0 1-1.25-2.18A2.43 2.43 0 0 1 263 76.5c.38-.22.8-.33 1.26-.33h1.3v-3.02Zm-1.29-1.19h1.3v-1.3c0-.35-.13-.65-.4-.9a1.22 1.22 0 0 0-.9-.39c-.35 0-.65.13-.91.39-.25.25-.38.55-.38.9 0 .36.13.67.38.93.25.25.56.37.91.37Zm8 0c.35 0 .65-.12.9-.37.26-.26.4-.57.4-.93 0-.35-.14-.65-.4-.9a1.22 1.22 0 0 0-.9-.39c-.35 0-.65.13-.9.39-.26.25-.38.55-.38.9v1.3h1.28Zm-5.48 4.22h2.97v-3.05h-2.97v3.05Zm-2.52 1.16c-.35 0-.65.13-.91.4-.25.24-.38.55-.38.9 0 .36.13.66.38.92.25.25.56.38.91.38s.66-.13.9-.38c.26-.26.4-.56.4-.92v-1.3h-1.3Zm8 0h-1.28v1.3c0 .36.12.66.37.92.26.25.56.38.91.38s.65-.13.9-.38c.26-.26.4-.56.4-.92 0-.35-.14-.66-.4-.9a1.22 1.22 0 0 0-.9-.4ZM285.92 81l-4.68-12.68h1.66l3.73 10.64h.14l3.73-10.64h1.66L287.48 81h-1.56Z" fill="#E0E3EB"/></g></g><defs><linearGradient id="ckuar4r4u" x1="306" y1="0" x2="306" y2="71" gradientUnits="userSpaceOnUse"><stop/><stop offset="1" stop-opacity="0"/></linearGradient><linearGradient id="dkuar4r4u" x1="306" y1="0" x2="306" y2="41" gradientUnits="userSpaceOnUse"><stop/><stop offset="1" stop-opacity="0"/></linearGradient><linearGradient id="ekuar4r4u" x1="-373.03" y1="105.5" x2="-704.62" y2="105.5" gradientUnits="userSpaceOnUse"><stop stop-color="#45E5CB"/><stop offset="1" stop-color="#45E5CB" stop-opacity="0"/></linearGradient><linearGradient id="fkuar4r4u" x1="132.21" y1="65.05" x2="132.21" y2="285.69" gradientUnits="userSpaceOnUse"><stop stop-color="#45E5CB"/><stop offset="1" stop-color="#3ECDB6" stop-opacity="0"/></linearGradient><linearGradient id="ikuar4r4u" x1="782" y1="0" x2="782" y2="50" gradientUnits="userSpaceOnUse"><stop/><stop offset="1" stop-opacity="0"/></linearGradient><linearGradient id="jkuar4r4u" x1="170" y1="0" x2="170" y2="231" gradientUnits="userSpaceOnUse"><stop/><stop offset="1" stop-opacity="0"/></linearGradient><linearGradient id="mkuar4r4u" x1="154.5" y1="3.18" x2="154.5" y2="309" gradientUnits="userSpaceOnUse"><stop stop-color="#070707"/><stop offset="1"/></linearGradient><linearGradient id="nkuar4r4u" x1="154.5" y1="0" x2="154.5" y2="309" gradientUnits="userSpaceOnUse"><stop stop-color="#3F3F3F"/><stop offset="1" stop-color="#3F3F3F" stop-opacity=".7"/></linearGradient><filter id="gkuar4r4u" x="-6.38" y="12.42" width="719.84" height="247.08" filterUnits="userSpaceOnUse" color-interpolation-filters="sRGB"><feFlood flood-opacity="0" result="BackgroundImageFix"/><feBlend in="SourceGraphic" in2="BackgroundImageFix" result="shape"/><feGaussianBlur stdDeviation="2" result="effect1_foregroundBlur_1676_75862"/></filter><filter id="hkuar4r4u" x="254.5" y="187.62" width="535.82" height="117.54" filterUnits="userSpaceOnUse" color-interpolation-filters="sRGB"><feFlood flood-opacity="0" result="BackgroundImageFix"/><feBlend in="SourceGraphic" in2="BackgroundImageFix" result="shape"/><feGaussianBlur stdDeviation="2" result="effect1_foregroundBlur_1676_75862"/></filter><filter id="kkuar4r4u" x="273.25" y="54.24" width="356.75" height="205.75" filterUnits="userSpaceOnUse" color-interpolation-filters="sRGB"><feFlood flood-opacity="0" result="BackgroundImageFix"/><feGaussianBlur in="BackgroundImageFix" stdDeviation="13.88"/><feComposite in2="SourceAlpha" operator="in" result="effect1_backgroundBlur_1676_75862"/><feColorMatrix in="SourceAlpha" values="0 0 0 0 0 0 0 0 0 0 0 0 0 0 0 0 0 0 127 0" result="hardAlpha"/><feOffset dx="11" dy="4"/><feGaussianBlur stdDeviation="14"/><feComposite in2="hardAlpha" operator="out"/><feColorMatrix values="0 0 0 0 0 0 0 0 0 0 0 0 0 0 0 0 0 0 0.25 0"/><feBlend in2="effect1_backgroundBlur_1676_75862" result="effect2_dropShadow_1676_75862"/><feBlend in="SourceGraphic" in2="effect2_dropShadow_1676_75862" result="shape"/></filter><filter id="lkuar4r4u" x="-20" y="-9" width="349" height="349" filterUnits="userSpaceOnUse" color-interpolation-filters="sRGB"><feFlood flood-opacity="0" result="BackgroundImageFix"/><feColorMatrix in="SourceAlpha" values="0 0 0 0 0 0 0 0 0 0 0 0 0 0 0 0 0 0 127 0" result="hardAlpha"/><feOffset dy="11"/><feGaussianBlur stdDeviation="10"/><feComposite in2="hardAlpha" operator="out"/><feColorMatrix values="0 0 0 0 0 0 0 0 0 0 0 0 0 0 0 0 0 0 0.75 0"/><feBlend in2="BackgroundImageFix" result="effect1_dropShadow_1676_75862"/><feBlend in="SourceGraphic" in2="effect1_dropShadow_1676_75862" result="shape"/></filter><clipPath id="akuar4r4u"><path fill="#fff" d="M0 0h612v340H0z"/></clipPath><clipPath id="bkuar4r4u"><path fill="#fff" d="M0 0h612v340H0z"/></clipPath><clipPath id="okuar4r4u"><path fill="#fff" transform="translate(265 118)" d="M0 0h28v28H0z"/></clipPath></defs></svg>