<svg width="56" height="56" viewBox="0 0 56 56" xmlns="http://www.w3.org/2000/svg"><rect width="56" height="56" rx="8" fill="#F0F3FA"/><path d="M31 13.03 23.76 33a11.2 11.2 0 0 1-3.44-6.07 11.3 11.3 0 0 1 .74-6.95h-8.04c-.08-.77.07-1.47.3-2.15 1-2.9 3.58-4.77 6.7-4.8 3.6-.05 7.22-.02 10.82-.02l.16.02ZM23 43.98 30.58 23a11.71 11.71 0 0 1 3.62 13.42C32.04 42 26.53 44.24 23 43.98ZM31 19.98l.71-1.94 1.7-4.68c.1-.26.23-.36.52-.36h9.63c.36 0 .47.1.43.44a6.9 6.9 0 0 1-3.29 5.45 7.01 7.01 0 0 1-3.84 1.1h-5.6l-.26-.01Z" fill="#0089FF"/></svg>