<svg width="200" height="80" viewBox="0 0 200 80" xmlns="http://www.w3.org/2000/svg"><path d="M118.94 49.79a6.71 6.71 0 0 1 3.3-.79 8.4 8.4 0 0 1 3.27.66l.34.13-.7 1.64-.32-.11a6.19 6.19 0 0 0-1.43-.38 8.27 8.27 0 0 0-1.2-.09c-.83 0-1.56.19-2.18.55-.6.36-1.08.85-1.4 1.47a4.39 4.39 0 0 0-.5 2.07c0 1.24.4 2.25 1.16 3.02a4.44 4.44 0 0 0 3.2 1.13c.7 0 1.55-.19 2.54-.56l.3-.13.68 1.69-.3.12c-.68.27-1.3.47-1.85.6s-1.13.19-1.72.19a6.45 6.45 0 0 1-3.28-.8 5.55 5.55 0 0 1-2.13-2.2 6.47 6.47 0 0 1-.72-3.04c0-1.14.25-2.15.77-3.05a5.4 5.4 0 0 1 2.17-2.12ZM106 61V49h4c1.52 0 2.58.33 3.16.98.6.64.9 1.35.9 2.14 0 1.13-.51 2.02-1.54 2.66a2.9 2.9 0 0 1 1.82 1.1c.44.56.66 1.18.66 1.85 0 .88-.4 1.66-1.18 2.31-.76.64-2.13.96-4.1.96H106Zm3.61-10h-1.45v3h1.45c1.06 0 2.42-.28 2.42-1.6 0-1.34-1.34-1.4-2.42-1.4Zm2.48 5.18a5.63 5.63 0 0 0-2.63-.46l-1.3.02V59h1.3c1.18 0 3.47.16 3.47-1.51 0-.58-.28-1.02-.84-1.31ZM93.78 61l4.47-12h2.06l4.47 12h-2.14l-1.2-3h-4.4l-1.18 3h-2.08Zm3.93-5h3.03l-1.51-4.58L97.7 56ZM93.35 51H88v3.48h4v1.96h-4V61h-2.3V49h7.65v2ZM82.02 60.25c-.7.5-1.77.75-3.2.75-1.41 0-2.47-.25-3.19-.75a3.4 3.4 0 0 1-1.35-1.7 7.08 7.08 0 0 1-.28-2.02V49h2.08v7.43c0 .34.04.68.11 1 .13.52.42.92.88 1.2.46.28 1.04.42 1.74.42.73 0 1.33-.14 1.79-.41a2 2 0 0 0 .9-1.2c.04-.3.06-.64.06-1.01V49h2.11v7.53c0 .72-.1 1.4-.3 2.02-.19.63-.64 1.2-1.35 1.7ZM98.99 12.5a7.1 7.1 0 0 0-6.27 10.42l-1.32.71A8.6 8.6 0 0 1 99 11a8.6 8.6 0 0 1 6.97 13.6 8.87 8.87 0 0 1 3.06.19l-.9 1.35a7.24 7.24 0 1 0 6.12 7.14c0-1.72-.6-3.29-1.6-4.53l.87-1.29A8.74 8.74 0 0 1 106.98 42a8.75 8.75 0 0 1-8-5.18 8.75 8.75 0 0 1-16.75-3.54 8.74 8.74 0 0 1 8.75-8.73v1.5a7.24 7.24 0 1 0 7.25 7.23c0-1-.2-1.93-.55-2.79l1.2-.5a8.7 8.7 0 0 1 1.05-1.88c-.3.03-.62.05-.94.05v-1.5a7.1 7.1 0 1 0 0-14.16Z" fill="#fff"/><path d="m102.3 27.72-18.8-10.8a2.97 2.97 0 0 0 1.28 3.7l15.89 9.1c.32-.58.73-1.1 1.2-1.56l.44-.44ZM85.3 21.37l.6.94c.45.7.53 1.58.2 2.35l13.65 7.92c.1-.78.3-1.53.62-2.24l.11-.27-15.18-8.7Z" fill="#FC0"/></svg>