<svg width="200" height="80" viewBox="0 0 200 80" xmlns="http://www.w3.org/2000/svg"><path d="M55.47 54.95a34.74 34.74 0 0 0 1.45.06c1.48 0 2.55-.24 3.22-.71.68-.48 1.01-1.71 1.01-2.76 0-.95-.3-1.67-.88-2.13-.59-.47-1.48-.7-2.69-.7a30.31 30.31 0 0 0-2.12.13l.01 6.1Zm0-7.17.3.02h.51c1.37 0 2.37-.23 3-.7.64-.48.96-1.58.96-2.6 0-.85-.3-1.5-.88-1.92a4.5 4.5 0 0 0-2.67-.65c-.1 0-.3 0-.57.03l-.66.03v5.79ZM52 41h5.43c1.67 0 2.92.28 3.73.85.82.56 1.23 1.42 1.23 2.57 0 2.04-1.32 3.12-3.14 3.6 1.27 0 2.26.32 2.96.91.71.6 1.07 1.42 1.07 2.47 0 1.34-.48 2.83-1.46 3.54-.96.7-2.36 1.06-4.2 1.06H52v-.87l1.15-.1.37-.3V42.27l-.38-.3-1.14-.12V41Zm21.2 2.22-2.18 6.04h4.36l-2.19-6.04ZM72.84 41h1.43l5.2 13.87 1.3.25V56h-4.92v-.88l1.34-.1.16-.3-1.6-4.49h-5.11l-1.5 4.5.22.3 1.4.1V56h-4.24v-.88l1.25-.25L72.85 41Zm14.31.97v6.25l.63.02h.57c1.34 0 2.3-.23 2.91-.69.62-.46.92-1.56.92-2.58 0-1.05-.3-1.82-.94-2.29-.62-.47-1.64-.71-3.04-.71h-1.05ZM83.61 41h5.52c1.77 0 3.08.31 3.93.94.85.62 1.28 1.57 1.28 2.85 0 .92-.3 2.04-.88 2.63-.58.58-1.46 1-2.62 1.25.54.14 1 .33 1.37.56.36.23.65.51.86.86.24.38.45.93.62 1.67.16.73.3 1.52.4 1.76.22.57.52.97.9 1.18.38.2 1.01.31 1.9.31h.2v.8a10.26 10.26 0 0 1-1.68.19 5 5 0 0 1-1.3-.15c-.34-.1-.64-.25-.89-.46-.51-.44-.94-1.6-1.28-2.88l-.3-1.03a3.34 3.34 0 0 0-1.18-1.78 4 4 0 0 0-2.22-.5l-1.01.03-.08.01v5.42l.37.3 1.24.04v1H83.6v-1l1.23-.04.37-.3v-12.4l-.37-.3-1.23-.11V41ZM112 55.05c-1.43.48-2.93.95-4.37.95a7.72 7.72 0 0 1-6.44-3.76 7.54 7.54 0 0 1-.99-3.8c0-2.2.69-3.97 2.06-5.31a7.55 7.55 0 0 1 5.46-2.12c1.3 0 2.73.34 4.28.82v3.25h-1.2l-.34-1.92-.28-.38a5.44 5.44 0 0 0-2.42-.55c-1.64 0-2.93.55-3.9 1.63-.95 1.09-1.43 2.56-1.43 4.43 0 1.99.5 3.55 1.5 4.68s2.39 1.7 4.16 1.7a7.03 7.03 0 0 0 1.88-.28l.34-.33.52-2.35H112v3.34Zm4 .95v-.87l1.3-.1.48-.3-.02-12.46-.48-.3-1.23-.12v-.84h10.23V44h-1.08l-.3-1.7-.3-.3h-5.01v5.68h3.55l.3-.3.22-1.54h1.03v4.65h-1.03l-.21-1.53-.3-.32h-3.56l.02 6.36h5.55l.3-.32.37-2.13H127V56h-11Zm14.75 0v-.87l1.36-.1.24-.3.02-12.45-.24-.3-1.36-.12V41h5.28v.85l-1.24.12-.37.3-.01 12.74h4.9l.3-.34L140 52h1v4h-10.25Zm21.01-13.85c-1.45 0-2.6.57-3.47 1.7-.85 1.13-1.27 2.66-1.27 4.59 0 1.92.43 3.46 1.29 4.6a4.13 4.13 0 0 0 3.45 1.7c1.43 0 2.57-.56 3.43-1.7.86-1.15 1.29-2.68 1.29-4.6 0-1.92-.43-3.44-1.3-4.58a4.08 4.08 0 0 0-3.42-1.71Zm0-1.14a6.68 6.68 0 0 1 4.76 1.86 6.8 6.8 0 0 1 1.66 2.44 8.74 8.74 0 0 1 .29 5.34 7.5 7.5 0 0 1-.82 1.96 6.93 6.93 0 0 1-5.89 3.39 7.04 7.04 0 0 1-6.44-4.4c-.37-.96-.56-2-.56-3.16 0-1.15.2-2.2.56-3.14a6.74 6.74 0 0 1 6.44-4.3ZM162.67 56v-.9l1.33-.17.39-.4V42.28l-.4-.3-1.38-.12V41h4.07v.53l7.39 11.17V42.43l-.4-.38-1.3-.2v-.84h4.55v.85l-1.3.19-.39.38V56h-1.42l-8.25-12.81v11.34l.4.4 1.3.16V56h-4.59Zm23.69-12.6-2.14 5.86h4.37l-2.23-5.85Zm-.34-2.4h1.42l5.28 13.88 1.28.26V56h-5v-.86l1.45-.1.16-.3-1.65-4.5h-5.11l-1.46 4.5.22.3 1.39.1V56h-4.22v-.86l1.25-.26 4.99-13.87ZM52 22h5.62v.88L56.2 23l-.45.3v7.95c0 1.54.38 2.66 1.02 3.35.65.69 1.69 1.03 3.12 1.03 1.42 0 2.45-.35 3.1-1.04.65-.7 1.01-1.81 1.01-3.34v-7.8l-.47-.39-1.38-.2V22H67v.88l-1.38.2-.41.39v7.99c0 1.05-.08 1.85-.24 2.4a3.75 3.75 0 0 1-.77 1.47c-.45.52-1.1.93-1.94 1.23-.82.3-1.76.44-2.8.44-1.06 0-2-.15-2.83-.44a4.55 4.55 0 0 1-1.92-1.23 3.63 3.63 0 0 1-.78-1.46 9.81 9.81 0 0 1-.23-2.41v-8.14l-.39-.31-1.31-.13V22Zm17 12v-.7l.84-.11.16-.26v-7.96l-.1-.2-.9-.07V24h3.25v.38l4.34 6.94v-6.27l-.26-.27-.86-.08V24h3.23v.7l-.84.08-.24.27V34h-1.59l-4.9-8.1v7.03l.22.26.88.11v.7H69Zm13.92 0v-.7l.94-.08.23-.22v-8.05l-.23-.2-.94-.07V24h4.24v.68l-.95.07-.23.2V33l.23.22.95.08v.7h-4.24Zm7.83-10h3.9v.7l-.82.06-.16.22 2.37 6.67 2.27-6.67-.16-.22-.85-.06V24h3.11v.7l-.92.18L96.35 34h-1.43l-3.23-9.13-.94-.17V24ZM104 34v-.69l.87-.07.13-.23v-8.04l-.12-.2-.86-.07V24h7.15v2.23h-.98l-.25-1.25-.15-.19H107v3.57h1.8l.2-.2.14-1.02h.86v3.3h-.86l-.14-1.03-.2-.2H107v3.99h3.25l.16-.23.23-1.51h.98V34H104Zm14.96-9.16v3.86l.2.02h.31c.77 0 1.33-.16 1.7-.47.36-.31.54-.94.54-1.59 0-.6-.18-1.04-.54-1.35a2.31 2.31 0 0 0-1.55-.47h-.66Zm-2.9-.84h4.3c1.1 0 1.92.23 2.48.65.57.4.85 1.01.85 1.81 0 .65-.2 1.34-.61 1.75a3.4 3.4 0 0 1-1.82.83c.35.09.64.2.88.34.25.14.45.32.6.55.2.28.4.76.6 1.41l.23.7c.14.37.33.8.57.95.24.15.6.22 1.1.22h.19v.68A12.1 12.1 0 0 1 124 34c-.3 0-.57-.04-.83-.11a2.04 2.04 0 0 1-.65-.33c-.43-.33-.77-1.05-1.01-1.82l-.08-.25c-.26-.81-.55-1.34-.86-1.59-.31-.25-.77-.37-1.38-.37h-.24v3.46l.23.22.81.08V34h-4v-.7l.89-.09.23-.22v-8l-.23-.2-.84-.07V24Zm13.45 9.42v-2.58h1.07l.23 1.7c.34.4.93.42 1.44.42.82 0 1.82-.38 1.82-1.35 0-.36-.11-.68-.35-.96a3.55 3.55 0 0 0-1.16-.84 8.78 8.78 0 0 0-.4-.2 6.65 6.65 0 0 1-1.46-.85 2.9 2.9 0 0 1-.73-.91 2.54 2.54 0 0 1 .67-3.05c.62-.54 1.43-.8 2.41-.8a8.65 8.65 0 0 1 2.66.49v2.3h-1.01l-.24-1.48-.2-.2a1.66 1.66 0 0 0-.46-.15 3.13 3.13 0 0 0-.58-.05c-.5 0-.9.13-1.21.38-.3.25-.46.57-.46.98 0 .3.09.56.26.8s.47.48.9.73c.1.07.38.2.84.41.46.2.85.41 1.17.62.41.26.73.58.95.95.22.37.33.77.33 1.19 0 2.02-1.98 3.03-3.75 3.03a8.4 8.4 0 0 1-2.74-.58Zm11.19.58v-.7l.94-.08.24-.23v-8l-.24-.2-.94-.07v-.7h4.3v.7l-1 .07-.24.2v8l.23.23 1.01.07V34h-4.3Zm8.24-10h8.28v2.52h-.97l-.24-1.53-.21-.18H154V33l.34.22.92.08v.7H151v-.7l.94-.08.24-.22v-8.2h-1.7l-.21.18-.25 1.53h-1.08V24Zm14.66 2.02-1.24 3.52h2.5l-1.27-3.52Zm-.32-2.02h1.49l3.28 9.12.84.14V34H165v-.74l.96-.09.1-.18-.87-2.65h-3.1l-.83 2.64.15.18.89.1V34h-3.05v-.74l.85-.13 3.18-9.13Zm7.54 0H179v2.47h-.98l-.24-1.52-.2-.18h-1.7v8.22l.23.23.89.07V34h-4.21v-.7l.93-.08.28-.23v-8.22h-1.74l-.22.18-.24 1.52h-.98V24ZM184 29.5v4h.26c.53 0 .92-.16 1.18-.5.27-.33.4-.83.4-1.5 0-.68-.13-1.18-.4-1.5-.26-.34-.65-.5-1.18-.5H184Zm.6-.5c.87 0 1.54.22 2.02.66.48.43.72 1.04.72 1.84s-.24 1.41-.71 1.85c-.48.43-1.15.65-2.03.65H182v-.43l.5-.03.12-.14v-3.8l-.12-.14-.5-.03V29h2.6Zm5.07 5v-.43l.5-.03.12-.14v-3.83l-.12-.1-.5-.04V29h4.1v1.24h-.63l-.12-.66-.1-.08h-1.33v1.65h.78l.11-.1.08-.54h.44v1.83h-.44l-.08-.53-.1-.1h-.8v1.8h1.56l.1-.13.14-.82h.62V34h-4.33Z" fill="#fff"/><path fill-rule="evenodd" d="M10.12 56.86c8.98 6.92 25.55 5.14 31.3 0a.57.57 0 0 0 .19-.42v-35.3a.58.58 0 0 0-.43-.55c-11.98-3.15-18.87-3.25-30.85 0a.58.58 0 0 0-.42.56V56.4c0 .18.07.34.21.45Zm.62-.38c9.47 6.54 23.32 5.17 30.06 0 .14-.1.22-.27.22-.44V21.59a.58.58 0 0 0-.43-.55c-11.66-3.08-18.01-3.17-29.67 0a.58.58 0 0 0-.42.55v34.43c0 .18.09.36.24.46Z" fill="#C19F72"/><path d="M39.87 33.33H11.63a.38.38 0 0 1-.39-.38v-10.8a.4.4 0 0 1 .29-.38c11.06-3.06 17.38-2.97 28.44 0 .17.05.28.2.28.37v10.81c0 .21-.17.38-.38.38Z" fill="#0571CF"/><path d="M39.87 34.03H11.63a.38.38 0 0 0-.39.38v21.4c0 .13.07.25.19.32 10.09 6.04 20.77 4.86 28.65 0 .1-.07.17-.2.17-.32V34.4a.38.38 0 0 0-.38-.38Z" fill="url(#ax5d4xump)"/><path d="M38.79 31.54a.2.2 0 0 1-.27.18l-8.8-3.61a.2.2 0 0 1-.1-.25l.15-.42a.2.2 0 0 1 .23-.11l8.65 2.4c.08.02.14.1.14.19v1.62Zm0-4.39c0 .1-.1.2-.2.2l-8.52-.47a.2.2 0 0 1-.18-.2v-.48c0-.1.08-.19.18-.2l8.52-.43c.1 0 .2.08.2.2v1.38Zm0-4.55c0 .02-.02.04-.04.05L30 25.5a.2.2 0 0 1-.24-.11l-.16-.41a.2.2 0 0 1 .11-.25l6.69-2.74a.19.19 0 0 1 .12 0c.71.17 1.45.36 2.22.57.02 0 .04.02.04.05Zm-9.44 9.5c.04.05.1.08.16.08h.92a.2.2 0 0 0 .15-.3l-1.9-2.34a.2.2 0 0 0-.26-.03l-.34.24a.2.2 0 0 0-.05.26l1.32 2.09Zm-1.27.08a.2.2 0 0 0 .17-.26l-.75-1.71a.2.2 0 0 0-.23-.1l-.33.1a.2.2 0 0 0-.12.24l.55 1.6c.02.08.1.13.18.13h.53Zm-2.06 0c.1 0 .2-.08.2-.19v-1.37a.2.2 0 0 0-.2-.2h-.4a.2.2 0 0 0-.18.2v1.37c0 .1.08.2.19.2h.4Zm-1.81 0a.2.2 0 0 0 .18-.12l.54-1.6a.2.2 0 0 0-.12-.25l-.33-.1a.2.2 0 0 0-.23.1l-.75 1.7a.2.2 0 0 0 .17.27h.54Zm-1.97 0a.2.2 0 0 0 .16-.08l1.32-2.1a.2.2 0 0 0-.04-.25l-.34-.24a.2.2 0 0 0-.26.03l-1.9 2.33a.2.2 0 0 0 .14.31h.92Zm-9.51-.54c0 .13.14.22.26.17l9.04-3.7a.2.2 0 0 0 .1-.25l-.15-.42a.2.2 0 0 0-.23-.11l-8.88 2.47a.2.2 0 0 0-.14.18v1.66Zm0-9.08 9.02 2.93c.1.04.2-.01.23-.11l.16-.41a.2.2 0 0 0-.1-.25l-6.81-2.79a.2.2 0 0 0-.12 0 87.74 87.74 0 0 0-2.38.63Zm5.48-1.33a.19.19 0 0 0-.07.35l4.1 2.66c.1.06.2.04.26-.04l.2-.26a.2.2 0 0 0-.03-.26l-3.12-2.63a.2.2 0 0 0-.15-.04l-1.2.22Zm3.15-.5a.19.19 0 0 0-.12.3l1.84 2.26c.06.08.17.1.26.03l.34-.24a.2.2 0 0 0 .04-.26l-1.32-2.1a.2.2 0 0 0-.17-.08h-.13l-.74.08Zm9.12.35a.19.19 0 0 0-.12-.31l-.84-.1a.19.19 0 0 0-.18.09l-1.31 2.06a.2.2 0 0 0 .05.26l.34.24c.08.06.2.05.26-.03l1.8-2.21Zm1.8-.01a.2.2 0 0 0-.15.04l-3.05 2.57a.2.2 0 0 0-.03.26l.2.26c.06.08.17.1.25.04l4.03-2.6c.14-.1.1-.32-.07-.35-.4-.08-.79-.16-1.17-.22Zm-7.35 1.3a.2.2 0 0 1-.12.25l-.33.1a.2.2 0 0 1-.23-.1l-.78-1.77a.2.2 0 0 1 .17-.27h.54a.2.2 0 0 1 .18.13l.57 1.67Zm.5-1.6c0-.1.1-.19.2-.19h.4c.1 0 .18.09.18.2v1.4c0 .1-.08.2-.19.2h-.4a.2.2 0 0 1-.18-.2v-1.4Zm-3.75 6.1a.2.2 0 0 0 .19-.18v-.49a.2.2 0 0 0-.19-.2l-8.74-.44a.2.2 0 0 0-.2.2v1.4c0 .11.1.2.2.2l8.74-.48Zm.57 1.72a.2.2 0 0 1 .25.04l.2.26a.2.2 0 0 1-.03.26l-3.54 2.98a.2.2 0 0 1-.12.05h-1.65c-.19 0-.26-.25-.1-.36l4.99-3.23Zm6.83.56a.2.2 0 0 1-.03-.26l.2-.26a.2.2 0 0 1 .25-.04l5 3.23c.15.1.08.36-.11.36h-1.65a.2.2 0 0 1-.12-.05l-3.54-2.98Zm-1.58-6.53a.2.2 0 0 1-.23.1l-.33-.1a.2.2 0 0 1-.12-.24l.57-1.67a.2.2 0 0 1 .18-.13h.54a.2.2 0 0 1 .17.27l-.78 1.77Zm-1.62 6.55a2.75 2.75 0 1 0 0-5.5 2.75 2.75 0 0 0 0 5.5Z" fill="url(#bx5d4xump)"/><path d="M20.27 35.11c0-.2.17-.38.38-.38h4.77c.22 0 .39.17.39.38v3.63c0 .21-.17.38-.39.38h-4.77a.38.38 0 0 1-.38-.38v-3.63Zm-8.22 0c0-.2.18-.38.39-.38h4.77c.21 0 .38.17.38.38v3.63c0 .21-.17.38-.38.38h-4.77a.38.38 0 0 1-.39-.38v-3.63Zm0 6.88c0-.22.18-.39.39-.39h4.77c.21 0 .38.17.38.39v3.63c0 .2-.17.38-.38.38h-4.77a.38.38 0 0 1-.39-.38v-3.63Zm8.6-.39a.38.38 0 0 0-.38.39v3.63c0 .2.17.38.38.38h4.77c.22 0 .39-.17.39-.38v-3.63a.38.38 0 0 0-.39-.39h-4.77Zm5.73 5.17a.38.38 0 0 0-.38.38v3.63c0 .21.17.38.38.38h4.77c.21 0 .38-.17.38-.38v-3.63a.38.38 0 0 0-.38-.38h-4.77Zm13.36 7.26v1.14c0 .13-.07.25-.18.32a27.6 27.6 0 0 1-4.85 2.3.38.38 0 0 1-.5-.36v-3.4c0-.21.17-.38.38-.38h4.77c.21 0 .38.17.38.38Zm-8.2 0v4.38a.4.4 0 0 1-.3.37c-1.58.33-3.2.53-4.86.56a.38.38 0 0 1-.39-.38v-4.93c0-.21.17-.38.38-.38h4.78c.21 0 .38.17.38.38Zm2.67-6.88c0-.2.17-.38.38-.38h4.77c.22 0 .39.17.39.38v3.63c0 .21-.17.38-.39.38H34.6a.38.38 0 0 1-.38-.38v-3.63Z" fill="#fff"/><path d="M17.5 41.04c.42 0 .76.34.76.76v4.01c0 .1.09.2.2.2h.95c.1 0 .2-.1.2-.2V41.8c0-.42.33-.76.76-.76h5.25c.1 0 .19-.09.19-.2v-.95a.2.2 0 0 0-.2-.2h-5.24a.76.76 0 0 1-.77-.76v-4a.2.2 0 0 0-.19-.2h-.96a.2.2 0 0 0-.19.2v4c0 .43-.34.77-.76.77h-5.25a.2.2 0 0 0-.2.19v.95c0 .11.1.2.2.2h5.25Zm9.59-5.86a.2.2 0 0 0-.2.2v10.54c0 .1.1.2.2.2h1.33c.11 0 .2-.1.2-.2V35.37a.2.2 0 0 0-.2-.19H27.1Zm3.43 0a.2.2 0 0 0-.2.2v10.54c0 .1.1.2.2.2h1.34c.1 0 .19-.1.19-.2V35.37a.2.2 0 0 0-.2-.19h-1.33Zm3.06.2c0-.11.09-.2.2-.2h1.33c.1 0 .19.09.19.2v10.54c0 .1-.09.2-.2.2h-1.33a.2.2 0 0 1-.19-.2V35.37Zm3.44-.2a.2.2 0 0 0-.2.2v10.54c0 .1.09.2.2.2h1.33c.1 0 .2-.1.2-.2V35.37a.2.2 0 0 0-.2-.19h-1.33Zm-3.48 18.65v4.2c0 .09-.06.16-.14.18-.32.1-.64.2-.96.28a.19.19 0 0 1-.24-.19v-4.47a.76.76 0 0 0-.76-.76h-5.26a.2.2 0 0 1-.19-.2v-.95c0-.1.09-.19.2-.19h5.25c.42 0 .76-.34.76-.76v-4.01c0-.1.09-.2.2-.2h.95c.1 0 .19.1.19.2v4c0 .43.34.77.76.77h5.25c.1 0 .2.09.2.2v.95c0 .1-.1.19-.2.19H34.3a.76.76 0 0 0-.76.76Zm-8.87-6.87v12.16a.2.2 0 0 1-.2.2c-.45-.03-.9-.06-1.35-.11a.19.19 0 0 1-.17-.2V46.97c0-.1.09-.19.2-.19h1.33c.1 0 .2.09.2.2Zm-3.24 0v11.8c0 .1-.1.2-.22.18-.45-.08-.9-.17-1.35-.28a.19.19 0 0 1-.15-.18V46.96c0-.1.08-.19.19-.19h1.34c.1 0 .19.09.19.2Zm-3.25 0v11c0 .12-.13.21-.25.18-.45-.14-.9-.3-1.35-.46a.19.19 0 0 1-.12-.18V46.96c0-.1.08-.19.19-.19h1.34c.1 0 .19.09.19.2Zm-3.44 0v9.67a.2.2 0 0 1-.27.17c-.45-.21-.9-.43-1.34-.67a.19.19 0 0 1-.1-.17v-9c0-.1.08-.19.19-.19h1.33c.1 0 .2.09.2.2Z" fill="#BA133D"/><defs><linearGradient id="ax5d4xump" x1="25.88" y1="52.63" x2="25.88" y2="40.61" gradientUnits="userSpaceOnUse"><stop stop-color="#E3C995"/><stop offset="1" stop-color="#C19E72"/></linearGradient><linearGradient id="bx5d4xump" x1="25.88" y1="23.66" x2="25.88" y2="29.17" gradientUnits="userSpaceOnUse"><stop stop-color="#E3C995"/><stop offset="1" stop-color="#C19E72"/></linearGradient></defs></svg>