<svg xmlns="http://www.w3.org/2000/svg" width="200" height="80" viewBox="0 0 200 80"><path fill="#1C4BD0" d="M53.83 34.86 65.25 23H52.94l-9.35 28.63h-7.84c-.78 0-1.36-1.06-1.12-1.79L43.57 23H33.03l-8.76 26.57a5.6 5.6 0 0 0 2.9 6.83q1.24.6 2.62.6h22.35l7.9-23.8zm60.13-2.02h11.86c3.95 0 6.76 4.12 5.56 7.76l-2.85 8.56a11.6 11.6 0 0 1-4.29 5.7c-2 1.4-4.4 2.15-6.85 2.14H95.47l11.4-34h10.52zm4.62 14.6 2.32-6.84c.26-.72-.3-1.5-1.08-1.5h-7.76l-4.16 12.53h5.11a6.1 6.1 0 0 0 5.58-4.19zm23.04-17.28 2.24-7.16h10.42l-2.24 7.16zM132.57 57h10.86l8.14-24.16H140.7zm41.53-17.9h-7.15l-3.68 10.74c-.26.73.32 1.8 1.11 1.8h7.64L170.1 57h-11.75c-3.98 0-6.84-3.76-5.6-7.43L161.72 23h10.66l-3.52 9.84H176zM68.32 23h24.1a5.8 5.8 0 0 1 4.67 2.32 5.6 5.6 0 0 1 .8 5.1l-2.4 7.4c-1.56 4.68-6.02 7.55-11.06 7.55h-11.3L69.38 57H58.94l7.9-23.8 5.11 1.66zm17.3 13.1 1.97-5.95c.24-.76-.3-1.82-1.1-1.78h-7.7L75.02 40h5.07a5.8 5.8 0 0 0 5.52-3.9z"/></svg>