<svg xmlns="http://www.w3.org/2000/svg" width="620" height="468" viewBox="0 0 620 468"><path d="M0 0h620v468H0z"/><g filter="url(#a04uhxjyx)"><path fill="#02B898" d="M49 185h9v7h-9z"/><path fill="#02B898" d="M52.8 183h1v53h-1zM63 141h11v34H63z"/><path fill="#02B898" d="M67.8 124h1v92h-1z"/><path fill="#F23645" d="M89 182h11v44H89z"/><path fill="#02B898" d="M148 218h7v32h-7z"/><path fill="#02B898" d="M150.8 196h1v54h-1zM180 173h8v3h-8z"/><path fill="#02B898" d="M183 160h1v28h-1zM200 182h9v3h-9z"/><path fill="#02B898" d="M204 166h1v37h-1zM226 267h8v31h-8z"/><path fill="#02B898" d="M229 242h1v56h-1zM246 229h8v14h-8z"/><path fill="#02B898" d="M249 224h1v42h-1zM283 359h9v10h-9z"/><path fill="#02B898" d="M287 308h1v74h-1zM311 300h30v140h-30z"/><path fill="#02B898" d="M325 298h1v149h-1zM388 319h13v30h-13zM404 163h15v106h-15z"/><path fill="#02B898" d="M411 159h1v121h-1zM445 157h15v54h-15z"/><path fill="#02B898" d="M452 153h1v85h-1zM537 169h15v15h-15z"/><path fill="#02B898" d="M544 163h1v88h-1zM556 86h15v90h-15z"/><path fill="#02B898" d="M563 73h1v115h-1zM576 65h15v10h-15z"/><path fill="#02B898" d="M583 36h1v65h-1z"/></g><g fill="#FD2739" filter="url(#b04uhxjyx)"><path d="M29 179h16v48H29z"/><path d="M35.8 114h1v130h-1zM78 142h7v17h-7z"/><path d="M80.8 126h1v47h-1zM93.8 158h1v87h-1zM104 213h29v64h-29z"/><path d="M117.8 158h1v128h-1zM137 259h8v5h-8z"/><path d="M139.8 243h1v45h-1zM158 204h8v24h-8z"/><path d="M160.8 202h1v60h-1zM171.8 145h1v70h-1z"/><path d="M168 182h9v27h-9zM194 156h1v27h-1z"/><path d="M191 172.5h8v1h-8zM217 211h1v105h-1z"/><path d="M212 212h11v67h-11zM239 219h1v54h-1z"/><path d="M236 248h8v13h-8zM260 236h1v51h-1z"/><path d="M257 253h8v9h-8zM273 276h1v93h-1z"/><path d="M267 278h13v74h-13zM301 374h1v59h-1z"/><path d="M296 385h11v39h-11zM345 246h14v47h-14zM363 268h11v44h-11zM381 287h1v45h-1z"/><path d="M376 291h11v27h-11zM431 111h1v121h-1z"/><path d="M423 113h17v106h-17zM486 22h1v133h-1z"/><path d="M466 24h42v131h-42zM522 127h1v119h-1z"/><path d="M514 161h17v43h-17z"/></g><defs><filter id="a04uhxjyx" width="614" height="483" x="13" y="0" color-interpolation-filters="sRGB" filterUnits="userSpaceOnUse"><feFlood result="BackgroundImageFix"/><feColorMatrix in="SourceAlpha" result="hardAlpha"/><feGaussianBlur stdDeviation="18"/><feColorMatrix values="0 0 0 0 0 0 0 0 0 0.72549 0 0 0 0 0.6 0 0 0 0.6 0"/><feBlend in="SourceGraphic"/></filter><filter id="b04uhxjyx" width="574" height="483" x="-7" y="-14" color-interpolation-filters="sRGB" filterUnits="userSpaceOnUse"><feFlood flood-opacity="0" result="BackgroundImageFix"/><feColorMatrix in="SourceAlpha" result="hardAlpha"/><feGaussianBlur stdDeviation="18"/><feColorMatrix values="0 0 0 0 0.95 0 0 0 0 0.210246 0 0 0 0 0.271892 0 0 0 0.6 0"/><feBlend in="SourceGraphic"/></filter></defs></svg>