<svg width="684" height="340" viewBox="0 0 684 340" fill="none" xmlns="http://www.w3.org/2000/svg"><g clip-path="url(#ahjydcsku)"><path fill="#000" d="M0 0h684v340H0z"/><g clip-path="url(#bhjydcsku)"><g filter="url(#chjydcsku)"><path fill="url(#dhjydcsku)" d="M0 116h547v224H0z"/></g><g filter="url(#ehjydcsku)"><path d="M0 12A12 12 0 0 1 12 0h535v113H0V12Z" fill="#161616"/></g><path d="m32.13 49-4.52-16.91h3.13l2.94 12.75h.08l3.37-12.75h2.74l3.37 12.75h.08l2.95-12.75h3.12L44.86 49h-2.9l-3.42-12.13h-.08L35.04 49h-2.9Zm21.3.21c-.83 0-1.55-.16-2.18-.47a3.65 3.65 0 0 1-1.46-1.32 3.67 3.67 0 0 1-.53-1.97v-.02c0-.75.18-1.38.55-1.91a3.7 3.7 0 0 1 1.62-1.27c.7-.31 1.56-.5 2.56-.56l4.76-.28v1.92l-4.33.28c-.74.04-1.3.2-1.7.5-.37.3-.57.7-.57 1.2v.02c0 .51.2.91.6 1.2.39.3.9.45 1.55.45.56 0 1.07-.1 1.51-.34.45-.22.8-.53 1.06-.92.25-.4.38-.84.38-1.34v-3.8c0-.62-.2-1.1-.6-1.46-.39-.36-.96-.54-1.7-.54a2.9 2.9 0 0 0-1.66.42c-.41.28-.67.64-.78 1.1l-.03.09h-2.7v-.13c.08-.74.33-1.39.76-1.96a4.4 4.4 0 0 1 1.8-1.35 6.7 6.7 0 0 1 2.7-.5c1.06 0 1.97.17 2.73.52a3.84 3.84 0 0 1 2.4 3.66V49h-2.92v-1.89h-.08a4.2 4.2 0 0 1-3.74 2.1Zm14.05 0c-1.33 0-2.31-.28-2.94-.83-.63-.56-.94-1.48-.94-2.76v-6.86h-1.8V36.5h1.8v-3.15h2.96v3.15h2.38v2.25h-2.38v6.55c0 .62.14 1.05.4 1.29.27.23.67.35 1.22.35a6.27 6.27 0 0 0 .76-.05v2.2a8.47 8.47 0 0 1-1.46.11Zm8.97.04a6.3 6.3 0 0 1-3.21-.79 5.29 5.29 0 0 1-2.09-2.25 7.73 7.73 0 0 1-.73-3.47v-.01c0-1.34.25-2.48.74-3.44a5.3 5.3 0 0 1 2.09-2.24c.9-.53 1.96-.8 3.17-.8 1.1 0 2.04.2 2.84.62a4.8 4.8 0 0 1 2.66 3.93v.08h-2.74l-.02-.1a2.61 2.61 0 0 0-2.7-2.17c-.63 0-1.17.18-1.63.51-.46.33-.82.8-1.07 1.42a5.86 5.86 0 0 0-.37 2.2v.01c0 .88.12 1.63.37 2.24.26.61.62 1.08 1.08 1.4.46.34 1 .5 1.62.5.75 0 1.35-.2 1.8-.59.47-.39.77-.9.9-1.57l.03-.09h2.74v.08a4.86 4.86 0 0 1-2.72 3.94c-.79.4-1.7.59-2.76.59Zm7.59-.25V31.94h2.91v6.63h.09c.32-.73.8-1.3 1.44-1.71.65-.4 1.44-.61 2.37-.61.9 0 1.68.2 2.34.6.66.4 1.16.97 1.51 1.7.36.74.54 1.61.54 2.62V49h-2.92v-7.24c0-.96-.22-1.7-.68-2.24a2.4 2.4 0 0 0-1.94-.8c-.56 0-1.04.12-1.46.39-.4.26-.72.62-.95 1.08-.22.45-.34.98-.34 1.6V49h-2.91Zm13.91 0V31.94h2.92V49h-2.92Zm5.76 0V36.5h2.92V49h-2.92Zm1.47-14.34a1.61 1.61 0 1 1 0-3.24c.46 0 .85.16 1.16.48.32.31.48.7.48 1.14 0 .44-.16.83-.48 1.15-.31.31-.7.47-1.16.47Zm9.05 14.59a7.28 7.28 0 0 1-2.79-.48 4.3 4.3 0 0 1-1.81-1.34 4 4 0 0 1-.79-2l-.01-.1h2.87l.01.1c.13.52.4.93.81 1.23.41.29.99.43 1.72.43.48 0 .89-.06 1.23-.18.35-.12.61-.3.8-.52.19-.23.28-.5.28-.81v-.01c0-.38-.13-.68-.38-.9a3.12 3.12 0 0 0-1.38-.58l-2.07-.46a6.94 6.94 0 0 1-1.98-.74 3.32 3.32 0 0 1-1.2-1.17 3.25 3.25 0 0 1-.4-1.63c0-.77.21-1.44.63-2.01.42-.58 1-1.03 1.75-1.35a6.7 6.7 0 0 1 2.63-.48 6.2 6.2 0 0 1 2.65.52c.74.33 1.31.79 1.72 1.37.4.57.63 1.2.67 1.9v.12h-2.7l-.02-.08a1.8 1.8 0 0 0-.7-1.2 2.5 2.5 0 0 0-1.62-.47c-.43 0-.8.06-1.13.18-.32.13-.56.3-.73.54-.18.23-.26.5-.26.8v.01c0 .24.06.45.17.63.12.2.31.36.58.5.26.14.61.26 1.05.36l2.06.46c.86.18 1.54.43 2.07.73.53.3.92.67 1.16 1.1.24.44.36.97.36 1.58 0 .8-.23 1.49-.68 2.08a4.36 4.36 0 0 1-1.85 1.37c-.79.33-1.7.5-2.72.5Zm12.04-.04c-1.33 0-2.3-.28-2.94-.83-.62-.56-.94-1.48-.94-2.76v-6.86h-1.8V36.5h1.8v-3.15h2.97v3.15h2.38v2.25h-2.38v6.55c0 .62.13 1.05.4 1.29.26.23.67.35 1.21.35a6.3 6.3 0 0 0 .77-.05v2.2a8.47 8.47 0 0 1-1.47.11Z" fill="#fff"/><path opacity=".5" d="M33.3 94.31a6.72 6.72 0 0 1-2.68-.5 4.49 4.49 0 0 1-1.82-1.37c-.45-.6-.7-1.28-.77-2.04l-.01-.12h1.75l.02.12c.06.47.24.87.55 1.22.31.34.73.6 1.26.79a5.34 5.34 0 0 0 3.52-.02c.5-.2.9-.49 1.18-.85.28-.37.42-.79.42-1.26v-.01c0-.6-.22-1.08-.65-1.48-.43-.4-1.13-.7-2.1-.91l-1.56-.34a7.8 7.8 0 0 1-2.3-.85c-.59-.36-1.03-.8-1.31-1.31a3.67 3.67 0 0 1-.43-1.8v-.01c0-.78.22-1.47.64-2.06.42-.6 1-1.07 1.75-1.4.75-.34 1.6-.51 2.57-.51.94 0 1.77.17 2.49.5.72.34 1.3.79 1.72 1.36.43.57.66 1.21.71 1.93l.01.14H36.5l-.02-.13a2.26 2.26 0 0 0-.5-1.14 2.7 2.7 0 0 0-1.1-.76 4.16 4.16 0 0 0-1.6-.28c-.6 0-1.12.1-1.6.28-.46.18-.83.45-1.1.8a1.9 1.9 0 0 0-.42 1.22v.01c0 .38.1.71.28 1 .19.3.48.55.87.77.4.21.9.39 1.54.53l1.56.35c.99.21 1.78.5 2.38.84.6.34 1.03.77 1.3 1.27.28.5.42 1.1.42 1.77v.01a3.91 3.91 0 0 1-2.45 3.72c-.78.35-1.7.52-2.75.52Zm8.68 3.31a4.45 4.45 0 0 1-.79-.06v-1.4a6.35 6.35 0 0 0 .66.05c.5 0 .9-.11 1.22-.34.31-.23.56-.65.75-1.25l.2-.61-3.86-10.45h1.82l3.16 9.52-.6-.9h.74l-.6.9 3.16-9.52h1.78l-4.07 11.08a7.72 7.72 0 0 1-.9 1.78c-.3.44-.67.75-1.1.93-.42.18-.95.27-1.57.27ZM51.72 94V83.56h1.7v1.57h.13c.23-.54.59-.97 1.08-1.29a3.17 3.17 0 0 1 1.75-.47c.47 0 .9.08 1.27.24a3.1 3.1 0 0 1 1.63 1.63h.12a3.21 3.21 0 0 1 1.87-1.63 3.8 3.8 0 0 1 1.35-.23c.7 0 1.3.13 1.8.4.5.26.87.65 1.14 1.17.26.5.4 1.12.4 1.83V94h-1.7v-6.83c0-.5-.08-.93-.25-1.27-.15-.33-.4-.59-.72-.76a2.52 2.52 0 0 0-1.21-.26 2.3 2.3 0 0 0-2.1 1.2c-.2.36-.3.77-.3 1.23V94h-1.7v-7.07c0-.41-.1-.77-.27-1.07a1.8 1.8 0 0 0-.75-.73c-.32-.17-.7-.25-1.14-.25-.46 0-.87.12-1.23.35-.36.23-.65.55-.86.95-.2.4-.31.84-.31 1.34V94h-1.7Zm22.34.19c-.5 0-.94-.08-1.36-.23a3.54 3.54 0 0 1-1.92-1.65h-.12V94h-1.7V79.44h1.7v5.8h.13c.2-.4.46-.72.79-1a3.89 3.89 0 0 1 2.49-.87c.88 0 1.64.23 2.3.68a4.36 4.36 0 0 1 1.53 1.87c.37.81.55 1.76.55 2.85v.02c0 1.08-.18 2.03-.55 2.85a4.05 4.05 0 0 1-3.85 2.55Zm-.38-1.5c.63 0 1.18-.16 1.63-.48.45-.31.8-.76 1.03-1.33.25-.6.37-1.29.37-2.1v-.01c0-.81-.12-1.5-.37-2.08a2.96 2.96 0 0 0-1.03-1.34c-.45-.31-1-.47-1.63-.47A2.78 2.78 0 0 0 71 86.7a5.22 5.22 0 0 0-.37 2.06v.02c0 .79.12 1.48.37 2.07.25.58.6 1.03 1.05 1.35.47.32 1 .47 1.63.47Zm11.55 1.5c-.98 0-1.83-.22-2.56-.66A4.37 4.37 0 0 1 81 91.67c-.4-.81-.6-1.77-.6-2.88v-.02c0-1.12.2-2.08.6-2.89.4-.8.95-1.42 1.67-1.85a4.84 4.84 0 0 1 2.55-.66c1 0 1.85.22 2.56.66a4.25 4.25 0 0 1 1.67 1.85c.4.81.6 1.77.6 2.89v.02c0 1.1-.2 2.07-.6 2.88-.39.8-.94 1.43-1.67 1.86a4.8 4.8 0 0 1-2.55.66Zm0-1.5c.65 0 1.2-.16 1.65-.47.47-.31.82-.76 1.06-1.34.25-.57.37-1.27.37-2.1v-.01c0-.82-.12-1.52-.37-2.1a2.85 2.85 0 0 0-1.06-1.33c-.45-.3-1-.46-1.66-.46-.64 0-1.2.15-1.66.46-.45.3-.8.75-1.05 1.33a5.46 5.46 0 0 0-.36 2.1v.02c0 .82.12 1.52.36 2.1a3 3 0 0 0 1.05 1.33c.47.3 1.02.46 1.67.46Zm7.4 1.31V79.44h1.7V94h-1.7ZM215.7 94V79.9h1.76v12.52h6.8V94h-8.56Zm13.88.19c-.66 0-1.26-.13-1.79-.39a3.06 3.06 0 0 1-1.24-1.07 3 3 0 0 1-.45-1.65v-.02c0-.62.15-1.15.44-1.58a3 3 0 0 1 1.3-1.05c.57-.25 1.26-.4 2.06-.45l3.84-.22v1.35l-3.63.22c-.78.05-1.35.21-1.72.5-.36.29-.55.69-.55 1.2v.02c0 .52.2.93.59 1.22.4.3.9.44 1.51.44.57 0 1.07-.11 1.52-.34.45-.23.8-.54 1.05-.94.25-.4.38-.84.38-1.34v-3.2c0-.65-.2-1.15-.58-1.5-.4-.34-.97-.51-1.74-.51-.64 0-1.16.12-1.56.36-.4.23-.67.56-.8.99l-.02.04h-1.68l.02-.07c.07-.56.3-1.04.65-1.47.36-.42.83-.75 1.41-1a5.28 5.28 0 0 1 2.03-.36 5 5 0 0 1 2.14.42c.6.28 1.06.68 1.36 1.2.31.51.47 1.13.47 1.84V94h-1.7v-1.57h-.13a3.47 3.47 0 0 1-1.88 1.55 4 4 0 0 1-1.3.2Zm11.56 0c-.78 0-1.47-.12-2.07-.37a3.51 3.51 0 0 1-1.43-1.01 2.9 2.9 0 0 1-.62-1.53v-.02h1.73v.02c.13.45.4.82.8 1.09.42.27.96.4 1.64.4.47 0 .89-.07 1.24-.2a2 2 0 0 0 .83-.56c.2-.24.3-.52.3-.83v-.02c0-.36-.14-.66-.4-.9a3.19 3.19 0 0 0-1.37-.6l-1.63-.4a5.98 5.98 0 0 1-1.6-.6 2.51 2.51 0 0 1-.95-.93c-.2-.37-.3-.8-.3-1.3 0-.6.17-1.11.5-1.57.34-.46.8-.82 1.39-1.08.58-.27 1.24-.4 1.98-.4s1.4.12 1.95.36c.57.23 1.02.56 1.36 1 .34.42.55.92.61 1.5l.01.03h-1.66v-.02c-.1-.43-.35-.78-.74-1.05s-.9-.4-1.53-.4c-.42 0-.79.06-1.1.19-.32.13-.58.3-.76.54-.18.23-.27.5-.27.81v.02c0 .23.06.44.17.63.13.18.32.34.57.48.25.13.58.25.98.35l1.62.39c.67.16 1.22.36 1.64.61.43.26.75.57.96.93.2.36.3.79.3 1.28v.02c0 .62-.17 1.17-.54 1.64-.36.47-.86.84-1.48 1.1-.63.27-1.34.4-2.13.4Zm10.2-.08c-1.05 0-1.81-.22-2.3-.66-.47-.44-.7-1.16-.7-2.15v-6.33h-1.63v-1.4h1.62v-2.73h1.76v2.72h2.22v1.4h-2.22v6.01c0 .6.12 1.03.35 1.28.24.25.62.37 1.14.37a5.86 5.86 0 0 0 .73-.04v1.44l-.47.06c-.16.02-.33.03-.5.03ZM330.68 94.31a6.1 6.1 0 0 1-3.34-.9 5.85 5.85 0 0 1-2.17-2.54c-.5-1.1-.76-2.4-.76-3.9v-.02c0-1.51.25-2.81.76-3.9a5.85 5.85 0 0 1 2.17-2.56c.94-.6 2.05-.9 3.33-.9.99 0 1.88.2 2.7.58.8.39 1.47.92 2 1.6.53.69.87 1.47 1.01 2.37v.04h-1.78l-.02-.07a3.87 3.87 0 0 0-3.91-2.9c-.9 0-1.7.24-2.37.71a4.5 4.5 0 0 0-1.55 2 7.82 7.82 0 0 0-.54 3.03v.02c0 1.16.18 2.17.54 3.03a4.5 4.5 0 0 0 1.55 1.99c.68.47 1.47.7 2.38.7.65 0 1.25-.1 1.77-.32a3.45 3.45 0 0 0 2.13-2.35l.02-.04h1.78v.04c-.16.86-.5 1.62-1.03 2.26a5.27 5.27 0 0 1-1.99 1.5c-.8.36-1.69.53-2.68.53Zm8.37-.31V79.44h1.7v5.71h.13c.27-.56.66-1 1.17-1.3.5-.32 1.15-.47 1.92-.47s1.43.15 1.98.46c.54.32.96.77 1.26 1.36.29.59.44 1.3.44 2.12V94h-1.7v-6.29c0-.94-.21-1.65-.63-2.12-.4-.47-1.03-.71-1.85-.71a2.49 2.49 0 0 0-2.38 1.39c-.23.44-.34.96-.34 1.57V94h-1.7Zm15.83 3.7c-.84 0-1.58-.13-2.21-.37a3.68 3.68 0 0 1-1.5-1 2.93 2.93 0 0 1-.72-1.47l.02-.03h1.74l.02.03c.11.39.4.7.85.96.46.24 1.06.37 1.8.37a3.3 3.3 0 0 0 2.18-.66c.52-.43.78-1.04.78-1.81v-1.94h-.13a3.44 3.44 0 0 1-1.94 1.61 4.1 4.1 0 0 1-1.34.22c-.9 0-1.68-.22-2.34-.65a4.28 4.28 0 0 1-1.52-1.8 6.22 6.22 0 0 1-.54-2.66c0-1.01.19-1.9.55-2.66.37-.77.88-1.37 1.53-1.81a4.19 4.19 0 0 1 2.36-.66 3.75 3.75 0 0 1 2.45.9c.32.29.59.63.8 1.03h.1v-1.74h1.7v10.26c0 .79-.18 1.47-.56 2.05a3.71 3.71 0 0 1-1.61 1.34 5.9 5.9 0 0 1-2.47.48Zm-.08-5.6a2.86 2.86 0 0 0 2.7-1.72c.24-.54.37-1.17.37-1.88 0-.72-.13-1.34-.38-1.88-.24-.55-.6-.98-1.06-1.28-.46-.3-1-.46-1.63-.46-.65 0-1.2.15-1.64.46-.45.3-.8.73-1.04 1.27a4.7 4.7 0 0 0-.35 1.88v.01c0 .72.12 1.35.35 1.89.24.54.59.96 1.04 1.27.45.3 1 .45 1.64.45ZM442.35 94.31a6.1 6.1 0 0 1-3.34-.9 5.84 5.84 0 0 1-2.17-2.54c-.5-1.1-.76-2.4-.76-3.9v-.02c0-1.51.25-2.81.76-3.9a5.84 5.84 0 0 1 2.17-2.56c.93-.6 2.04-.9 3.33-.9.99 0 1.89.2 2.7.58.8.39 1.47.92 2 1.6.53.69.87 1.47 1.01 2.37v.04h-1.78l-.02-.07a3.89 3.89 0 0 0-3.91-2.9c-.9 0-1.7.24-2.37.71a4.5 4.5 0 0 0-1.55 2 7.82 7.82 0 0 0-.54 3.03v.02c0 1.16.18 2.17.54 3.03a4.04 4.04 0 0 0 3.93 2.7c.65 0 1.25-.12 1.77-.33a3.47 3.47 0 0 0 2.13-2.35l.02-.04h1.78v.04c-.16.86-.5 1.62-1.04 2.26a5.26 5.26 0 0 1-1.98 1.5c-.8.36-1.69.53-2.68.53Zm8.37-.31V79.44h1.7v5.71h.13c.27-.56.66-1 1.17-1.3.5-.32 1.15-.47 1.92-.47s1.43.15 1.98.46c.54.32.96.77 1.25 1.36.3.59.44 1.3.44 2.12V94h-1.7v-6.29c0-.94-.2-1.65-.62-2.12-.41-.47-1.03-.71-1.86-.71a2.5 2.5 0 0 0-2.38 1.39c-.22.44-.33.96-.33 1.57V94h-1.7Zm15.83 3.7c-.84 0-1.58-.13-2.21-.37a3.68 3.68 0 0 1-1.5-1 2.94 2.94 0 0 1-.72-1.47l.02-.03h1.74l.02.03c.11.39.4.7.85.96.45.24 1.05.37 1.8.37a3.3 3.3 0 0 0 2.17-.66c.52-.43.78-1.04.78-1.81v-1.94h-.12a3.44 3.44 0 0 1-1.94 1.61c-.41.15-.86.22-1.34.22-.9 0-1.68-.22-2.34-.65a4.29 4.29 0 0 1-1.52-1.8 6.22 6.22 0 0 1-.54-2.66c0-1.01.19-1.9.55-2.66.36-.77.88-1.37 1.53-1.81a4.19 4.19 0 0 1 2.36-.66 3.76 3.76 0 0 1 2.45.9c.32.29.59.63.8 1.03h.1v-1.74h1.7v10.26c0 .79-.18 1.47-.56 2.05a3.7 3.7 0 0 1-1.61 1.34 5.9 5.9 0 0 1-2.47.48Zm-.08-5.6a2.86 2.86 0 0 0 2.7-1.72c.24-.54.37-1.17.37-1.88 0-.72-.13-1.34-.38-1.88a2.86 2.86 0 0 0-2.7-1.74c-.64 0-1.18.15-1.63.46-.45.3-.8.73-1.04 1.27a4.71 4.71 0 0 0-.35 1.88v.01c0 .72.12 1.35.35 1.89.24.54.59.96 1.04 1.27.45.3 1 .45 1.64.45Zm15.67-4.89c-.6 0-1.11-.15-1.54-.45-.43-.3-.76-.74-.99-1.3a5.31 5.31 0 0 1-.34-1.99c0-.78.12-1.44.34-1.99.23-.56.56-.99.99-1.29.43-.3.94-.45 1.54-.45.6 0 1.12.15 1.55.45.43.3.75.73.98 1.3.24.54.35 1.2.35 1.97v.01a5.2 5.2 0 0 1-.35 2c-.23.55-.56.99-.98 1.3-.43.3-.95.44-1.55.44Zm0-1.16c.48 0 .86-.23 1.13-.68.26-.46.4-1.09.4-1.9 0-.81-.14-1.44-.4-1.9a1.25 1.25 0 0 0-1.13-.67c-.48 0-.85.23-1.12.68-.26.45-.4 1.08-.4 1.88v.01c0 .81.14 1.44.4 1.9.27.45.64.68 1.12.68Zm.96 7.95h-1.6l9.47-14.1h1.58L483.1 94Zm8.8.17c-.6 0-1.1-.15-1.53-.45-.43-.3-.77-.74-1-1.3a5.27 5.27 0 0 1-.34-1.98v-.01c0-.77.11-1.43.34-1.99.23-.56.57-.99 1-1.29.43-.3.94-.45 1.54-.45.6 0 1.1.15 1.53.45.44.3.77.73 1 1.3.23.55.35 1.2.35 1.98 0 .77-.12 1.44-.35 2a2.61 2.61 0 0 1-2.53 1.74Zm0-1.17c.48 0 .86-.22 1.12-.67.28-.46.41-1.09.41-1.9 0-.81-.13-1.44-.4-1.89-.27-.45-.65-.68-1.12-.68-.48 0-.86.23-1.13.68a3.7 3.7 0 0 0-.4 1.89c0 .81.14 1.44.4 1.9.27.45.65.67 1.13.67Z" fill="#fff"/><circle cx="46" cy="162" r="19" fill="#000"/><path fill-rule="evenodd" clip-rule="evenodd" d="M54.45 165.37a10.2 10.2 0 0 1-1.43 2.72 9.4 9.4 0 0 1-1.4 1.59c-.55.48-1.14.73-1.78.74-.46 0-1-.12-1.65-.37a4.94 4.94 0 0 0-1.77-.37c-.57 0-1.18.12-1.83.37-.65.25-1.17.38-1.58.4a2.6 2.6 0 0 1-1.82-.77 9.97 9.97 0 0 1-1.45-1.65 11.17 11.17 0 0 1-2.18-6.34c0-1.27.29-2.37.87-3.29a5.1 5.1 0 0 1 4.3-2.41c.48 0 1.11.14 1.9.42.79.28 1.3.43 1.52.43.16 0 .73-.17 1.68-.5.9-.3 1.66-.44 2.28-.39 1.69.13 2.95.76 3.8 1.9-1.51.87-2.26 2.08-2.24 3.64a3.92 3.92 0 0 0 1.39 3.02c.41.37.87.66 1.39.86Zm-4.25-13.93c.02.13.02.26.02.38 0 .95-.36 1.84-1.1 2.66-.87.98-1.94 1.54-3.1 1.45a2.8 2.8 0 0 1-.02-.36c0-.9.42-1.88 1.16-2.68.37-.4.85-.74 1.42-1.01a4.41 4.41 0 0 1 1.62-.44Z" fill="#fff"/><path opacity=".8" d="m78.58 168 5.2-14.1h1.34v2.25h-.54L80.42 168h-1.84Zm2.36-4.03.56-1.5h6.33l.56 1.5h-7.45Zm7.94 4.03-4.17-11.85v-2.24h.8L90.73 168h-1.84Zm3.05 0 5.2-14.1h1.34v2.25h-.53L93.78 168h-1.85Zm2.36-4.03.56-1.5h6.34l.56 1.5h-7.46Zm7.94 4.03-4.17-11.85v-2.24h.81l5.2 14.09h-1.84Zm5.06-5.03v-1.56h3.91c1.01 0 1.8-.26 2.35-.78.55-.53.83-1.26.83-2.18v-.02c0-.93-.28-1.66-.83-2.18a3.28 3.28 0 0 0-2.35-.78h-3.91v-1.56h4.36c.89 0 1.67.19 2.35.56.67.38 1.2.91 1.59 1.59.39.67.58 1.46.58 2.35v.02c0 .9-.2 1.68-.58 2.36a4.14 4.14 0 0 1-1.6 1.6c-.67.39-1.45.58-2.34.58h-4.36Zm-.88 5.03v-14.1h1.76V168h-1.76Zm12.5 0v-14.1h1.75v12.52h6.8V168h-8.56ZM192.44 168v-12.16h-.13l-3.62 2.6v-1.84l3.75-2.7h1.74V168h-1.74Zm8.46 0 6.55-12.41v-.11h-7.8v-1.57h9.56v1.63L202.75 168h-1.85Zm16.26.23c-.95 0-1.78-.16-2.5-.5a3.88 3.88 0 0 1-2.4-3.35v-.11h1.7v.1c.05.46.21.87.48 1.22.28.35.65.63 1.1.83.48.2 1.01.3 1.62.3.6 0 1.12-.12 1.57-.33a2.34 2.34 0 0 0 1.44-2.2v-.03c0-.86-.29-1.53-.85-1.99a3.42 3.42 0 0 0-2.27-.7h-1.72v-1.49h1.64c.55 0 1.03-.1 1.44-.31.41-.21.74-.5.97-.87.25-.37.37-.79.37-1.26v-.02c0-.5-.1-.91-.32-1.26-.2-.34-.5-.6-.89-.79a3.25 3.25 0 0 0-1.4-.27c-.54 0-1.02.1-1.45.28a2.43 2.43 0 0 0-1.46 2.02v.1h-1.7l.02-.1a4.02 4.02 0 0 1 2.3-3.35 5.24 5.24 0 0 1 2.29-.48c.88 0 1.64.16 2.3.47.65.3 1.15.74 1.52 1.28.36.54.54 1.17.54 1.89v.02c0 .58-.12 1.09-.38 1.54-.24.45-.59.82-1.02 1.12-.44.3-.94.51-1.5.64v.04c.99.08 1.8.43 2.42 1.04.62.6.93 1.41.93 2.41v.02c0 .78-.2 1.48-.62 2.1-.42.62-.99 1.1-1.71 1.47a5.5 5.5 0 0 1-2.46.52Zm9-.12c-.34 0-.63-.12-.87-.36a1.19 1.19 0 0 1-.36-.87c0-.35.12-.64.36-.87.24-.24.53-.36.87-.36.34 0 .63.12.87.36.24.23.36.52.36.87 0 .34-.12.63-.36.87s-.53.36-.87.36Zm9.13.12c-.95 0-1.78-.16-2.49-.5a3.89 3.89 0 0 1-2.4-3.35v-.11h1.7v.1c.05.46.2.87.48 1.22.27.35.64.63 1.1.83.47.2 1 .3 1.61.3.6 0 1.13-.12 1.58-.33.44-.22.8-.51 1.05-.89.26-.38.38-.82.38-1.32v-.02c0-.86-.28-1.53-.85-1.99a3.42 3.42 0 0 0-2.26-.7h-1.72v-1.49h1.64c.54 0 1.02-.1 1.43-.31.42-.21.75-.5.98-.87.24-.37.36-.79.36-1.26v-.02c0-.5-.1-.91-.31-1.26-.2-.34-.5-.6-.89-.79a3.25 3.25 0 0 0-1.4-.27c-.55 0-1.03.1-1.45.28a2.42 2.42 0 0 0-1.46 2.02v.1h-1.7l.01-.1a4.02 4.02 0 0 1 2.3-3.35 5.24 5.24 0 0 1 2.3-.48c.87 0 1.64.16 2.29.47.65.3 1.16.74 1.52 1.28.37.54.55 1.17.55 1.89v.02a3.09 3.09 0 0 1-1.4 2.66c-.44.3-.94.51-1.51.64v.04c1 .08 1.8.43 2.42 1.04.63.6.94 1.41.94 2.41v.02c0 .78-.21 1.48-.63 2.1-.41.62-.98 1.1-1.7 1.47-.72.35-1.54.52-2.47.52Zm12.89-.23v-12.16h-.13l-3.62 2.6v-1.84l3.75-2.7h1.74V168h-1.74Z" fill="#fff"/><path opacity=".8" d="M324.16 168.23c-.95 0-1.78-.16-2.5-.5a3.88 3.88 0 0 1-2.4-3.35v-.11h1.7v.1c.05.46.21.87.48 1.22.28.35.64.63 1.1.83.48.2 1.01.3 1.62.3.6 0 1.12-.12 1.57-.33a2.34 2.34 0 0 0 1.44-2.2v-.03c0-.86-.29-1.53-.85-1.99a3.42 3.42 0 0 0-2.27-.7h-1.72v-1.49h1.64c.55 0 1.03-.1 1.44-.31.41-.21.74-.5.97-.87.25-.37.37-.79.37-1.26v-.02c0-.5-.1-.91-.32-1.26-.2-.34-.5-.6-.88-.79a3.25 3.25 0 0 0-1.41-.27c-.54 0-1.02.1-1.45.28a2.43 2.43 0 0 0-1.45 2.02l-.01.1h-1.7l.02-.1a4.02 4.02 0 0 1 2.3-3.35 5.24 5.24 0 0 1 2.29-.48c.88 0 1.64.16 2.3.47.64.3 1.15.74 1.52 1.28.36.54.54 1.17.54 1.89v.02c0 .58-.12 1.09-.38 1.54-.24.45-.59.82-1.02 1.12-.44.3-.94.51-1.5.64v.04c.99.08 1.8.43 2.42 1.04.62.6.93 1.41.93 2.41v.02c0 .78-.2 1.48-.62 2.1-.42.62-.99 1.1-1.71 1.47a5.5 5.5 0 0 1-2.46.52Zm9-.12c-.34 0-.63-.12-.87-.36a1.19 1.19 0 0 1-.36-.87c0-.35.12-.64.36-.87.24-.24.53-.36.87-.36.34 0 .63.12.87.36.24.23.36.52.36.87 0 .34-.12.63-.36.87s-.53.36-.87.36Zm9.22.2a5.1 5.1 0 0 1-1.9-.37 4.6 4.6 0 0 1-1.68-1.2 6.05 6.05 0 0 1-1.22-2.19c-.3-.9-.45-2.02-.45-3.34v-.02c0-1.6.2-2.96.63-4.09s1.04-2 1.84-2.6c.8-.6 1.77-.9 2.9-.9.78 0 1.48.14 2.1.44a4.29 4.29 0 0 1 2.45 3.01l.03.13h-1.77l-.04-.1a2.72 2.72 0 0 0-1.54-1.67 3.15 3.15 0 0 0-1.25-.24c-.84 0-1.52.25-2.05.75a4.5 4.5 0 0 0-1.17 2 10.56 10.56 0 0 0-.45 2.95v.25l.42 2.33a3.26 3.26 0 0 0 1.54 2.86c.48.3 1 .44 1.6.44.58 0 1.1-.14 1.57-.43a3.18 3.18 0 0 0 1.56-2.81v-.02c0-.62-.14-1.17-.4-1.65a2.92 2.92 0 0 0-1.1-1.15c-.47-.27-1-.4-1.6-.4-.6 0-1.15.13-1.63.4-.47.27-.85.65-1.13 1.13a3.2 3.2 0 0 0-.41 1.62h-.58v-2.5h.31a3.86 3.86 0 0 1 2.04-1.9c.5-.19 1.07-.29 1.7-.29a4.47 4.47 0 0 1 3.97 2.29c.4.7.6 1.51.6 2.4v.03a4.7 4.7 0 0 1-4.88 4.84Zm12.37 0a4.2 4.2 0 0 1-2.7-.9 5.71 5.71 0 0 1-1.72-2.54c-.4-1.1-.6-2.4-.6-3.91v-.02c0-1.5.2-2.8.6-3.9.4-1.1.97-1.95 1.72-2.55a4.2 4.2 0 0 1 2.7-.9c1.05 0 1.95.3 2.7.9.74.6 1.32 1.45 1.72 2.55.4 1.1.6 2.4.6 3.9v.02c0 1.5-.2 2.8-.6 3.9a5.67 5.67 0 0 1-1.73 2.55c-.74.6-1.64.9-2.69.9Zm0-1.53a2.4 2.4 0 0 0 1.75-.71c.49-.48.86-1.15 1.12-2.01.26-.88.4-1.91.4-3.1v-.02c0-1.2-.14-2.22-.4-3.09a4.51 4.51 0 0 0-1.12-2 2.4 2.4 0 0 0-1.75-.71c-.68 0-1.27.24-1.76.71a4.56 4.56 0 0 0-1.11 2c-.25.87-.38 1.9-.38 3.09v.02c0 1.19.13 2.22.38 3.1.26.86.63 1.53 1.11 2 .49.48 1.08.72 1.76.72ZM436.72 168v-1.21l4.69-5.16c.6-.66 1.05-1.2 1.39-1.62.33-.43.56-.81.69-1.16.13-.34.2-.72.2-1.13v-.02c0-.5-.11-.93-.32-1.31-.2-.4-.5-.7-.9-.92a2.63 2.63 0 0 0-1.36-.34c-.55 0-1.04.12-1.46.35-.41.24-.74.56-.97.98-.24.4-.36.88-.36 1.42v.03h-1.69v-.03a4.18 4.18 0 0 1 2.22-3.73c.7-.37 1.47-.55 2.34-.55.82 0 1.55.17 2.2.51.64.35 1.14.82 1.51 1.41.38.6.57 1.27.57 2.02v.02c0 .53-.09 1.04-.27 1.53-.18.5-.5 1.04-.97 1.64-.46.6-1.1 1.34-1.94 2.22l-3.6 3.81.46-.87v.87l-.46-.34h7.02V168h-8.99Zm13.43.1c-.33 0-.62-.11-.86-.35a1.18 1.18 0 0 1-.37-.87c0-.35.12-.64.37-.87.24-.24.53-.36.86-.36.35 0 .64.12.87.36.24.23.37.52.37.87 0 .34-.13.63-.37.87-.23.24-.52.36-.87.36Zm9.5-.1v-12.16h-.13l-3.63 2.6v-1.84l3.75-2.7h1.74V168h-1.74Zm7.74 0v-1.21l4.69-5.16c.6-.66 1.05-1.2 1.39-1.62.33-.43.56-.81.69-1.16.13-.34.2-.72.2-1.13v-.02c0-.5-.11-.93-.32-1.31-.2-.4-.5-.7-.9-.92a2.63 2.63 0 0 0-1.36-.34c-.55 0-1.04.12-1.46.35-.42.24-.74.56-.98.98-.23.4-.35.88-.35 1.42v.03h-1.69v-.03a4.18 4.18 0 0 1 2.22-3.73 4.87 4.87 0 0 1 2.34-.55c.82 0 1.55.17 2.2.51.64.35 1.14.82 1.51 1.41.38.6.57 1.27.57 2.02v.02c0 .53-.09 1.04-.27 1.53-.18.5-.5 1.04-.97 1.64-.46.6-1.1 1.34-1.94 2.22l-3.6 3.81.46-.87v.87l-.46-.34h7.02V168h-8.99Zm14.75-6.79c-.6 0-1.11-.15-1.54-.45-.43-.3-.76-.73-.99-1.3a5.32 5.32 0 0 1-.34-1.99c0-.78.12-1.44.34-1.99.23-.56.56-.99.99-1.29.43-.3.94-.45 1.54-.45.6 0 1.12.15 1.55.45.43.3.75.73.98 1.29.24.55.35 1.22.35 1.98v.01a5.2 5.2 0 0 1-.35 2c-.23.56-.56.99-.98 1.3-.43.3-.95.44-1.55.44Zm0-1.16c.48 0 .86-.23 1.13-.68.26-.46.4-1.09.4-1.9 0-.81-.14-1.44-.4-1.9a1.25 1.25 0 0 0-1.13-.67c-.48 0-.85.23-1.12.68-.26.45-.4 1.08-.4 1.88v.01c0 .81.14 1.44.4 1.9.27.45.64.68 1.12.68Zm.96 7.95h-1.6l9.47-14.1h1.58L483.1 168Zm8.8.17c-.6 0-1.1-.15-1.53-.45-.43-.3-.77-.74-1-1.3a5.27 5.27 0 0 1-.34-1.98v-.01c0-.77.11-1.43.34-1.99.23-.56.57-.99 1-1.29.43-.3.94-.46 1.54-.46.6 0 1.1.16 1.53.46.44.3.77.73 1 1.3.23.55.35 1.2.35 1.98 0 .77-.12 1.44-.35 2a2.61 2.61 0 0 1-2.53 1.74Zm0-1.17c.48 0 .86-.22 1.12-.67.28-.46.41-1.09.41-1.9 0-.81-.13-1.44-.4-1.89-.27-.45-.65-.68-1.12-.68-.48 0-.86.22-1.13.68a3.7 3.7 0 0 0-.4 1.89c0 .81.14 1.44.4 1.9.27.45.65.67 1.13.67Z" fill="#22AB94"/><rect x="27" y="195" width="38" height="38" rx="19" fill="#F0F3FA"/><path fill="#F0502A" d="M35.14 203.14h10.18v10.18H35.14z"/><path d="M46.68 203.14h10.18v10.18H46.68v-10.18Z" fill="#82BA22"/><path d="M46.68 214.68h10.18v10.18H46.68v-10.18Z" fill="#FDB92C"/><path fill="#1CA7ED" d="M35.14 214.68h10.18v10.18H35.14z"/><path opacity=".8" d="M79.7 220v-14.1h2.03l4.84 11.8h.13l4.84-11.8h2.05V220h-1.64v-10.8h-.85l1.95-2.9-5.67 13.7H85.9l-5.66-13.7 1.94 2.9h-.84V220H79.7Zm21.95.31a6.73 6.73 0 0 1-2.69-.5 3.96 3.96 0 0 1-2.6-3.42v-.11h1.75l.02.12c.05.47.24.87.55 1.22.31.34.73.6 1.26.79a5.33 5.33 0 0 0 3.52-.02c.5-.2.9-.49 1.18-.85.28-.37.42-.78.42-1.26v-.01c0-.6-.22-1.08-.65-1.48-.43-.4-1.13-.7-2.1-.91l-1.56-.34a7.8 7.8 0 0 1-2.3-.85c-.59-.36-1.03-.8-1.31-1.31a3.67 3.67 0 0 1-.43-1.8v-.01c0-.78.22-1.47.64-2.06.42-.6 1-1.07 1.75-1.4.75-.35 1.6-.51 2.57-.51.94 0 1.77.16 2.49.5.72.34 1.3.79 1.72 1.36.43.57.66 1.21.7 1.94l.02.13h-1.76l-.02-.13a2.27 2.27 0 0 0-.5-1.14 2.7 2.7 0 0 0-1.1-.76 4.16 4.16 0 0 0-1.6-.28c-.6 0-1.13.1-1.6.28-.46.18-.83.45-1.1.8a1.9 1.9 0 0 0-.42 1.22v.01c0 .38.1.71.28 1 .19.3.48.55.87.77.4.21.9.39 1.54.53l1.56.35c.98.21 1.78.5 2.37.84.6.34 1.04.77 1.31 1.27.28.5.42 1.1.42 1.77v.01a3.9 3.9 0 0 1-2.45 3.72c-.78.35-1.7.52-2.75.52Zm7.98-.31v-14.1h8.56v1.59h-6.8v4.84h6.24v1.57h-6.24v6.1h-1.76Zm14.92 0v-12.51h-4.51v-1.58h10.79v1.58h-4.52V220h-1.76ZM193.6 220v-2.92h-6.8v-1.6a336.54 336.54 0 0 1 2.36-3.89 224.04 224.04 0 0 1 2.41-3.84l1.2-1.84h2.55v9.6h1.97v1.57h-1.97V220h-1.72Zm-5.02-4.48h5.03v-8.01h-.1a168.23 168.23 0 0 0-1.98 3.09l-1 1.6-1 1.63-.95 1.59v.1ZM200.2 220v-1.21l4.69-5.16c.59-.66 1.05-1.2 1.38-1.62.34-.43.57-.81.7-1.16.13-.34.2-.72.2-1.13v-.02c0-.5-.11-.93-.32-1.31-.2-.4-.5-.7-.9-.92a2.63 2.63 0 0 0-1.37-.34c-.54 0-1.03.12-1.45.35-.42.24-.74.56-.98.98-.23.4-.35.88-.35 1.42v.03h-1.69v-.03a4.18 4.18 0 0 1 2.22-3.73 4.87 4.87 0 0 1 2.34-.55c.82 0 1.55.17 2.19.51.65.35 1.15.82 1.52 1.41.38.6.57 1.27.57 2.02v.02c0 .53-.1 1.04-.27 1.53-.18.5-.5 1.04-.97 1.64-.46.6-1.11 1.34-1.94 2.22l-3.6 3.81.46-.87v.87l-.46-.34h7.02V220h-8.99Zm17.32 0v-12.16h-.13l-3.62 2.6v-1.84l3.75-2.7h1.74V220h-1.74Zm8.65.1c-.34 0-.63-.11-.87-.35a1.19 1.19 0 0 1-.36-.87c0-.35.12-.64.36-.87.24-.24.53-.36.87-.36.34 0 .63.12.87.36.24.23.36.52.36.87 0 .34-.12.63-.36.87s-.53.36-.87.36Zm10.65-.1v-2.92H230v-1.6a336.54 336.54 0 0 1 2.35-3.89 251.57 251.57 0 0 1 3.6-5.68h2.57v9.6h1.96v1.57h-1.96V220h-1.72Zm-5.02-4.48h5.03v-8.01h-.1a168.23 168.23 0 0 0-1.98 3.09l-1 1.6-1 1.63a89.7 89.7 0 0 0-.95 1.59v.1Zm16.04 4.71c-.95 0-1.78-.16-2.5-.5a3.9 3.9 0 0 1-2.4-3.35v-.11h1.7v.1c.05.46.21.87.48 1.22.28.35.64.63 1.1.83.48.2 1.01.3 1.62.3.6 0 1.12-.12 1.57-.33a2.34 2.34 0 0 0 1.44-2.2v-.03c0-.86-.29-1.53-.85-1.99a3.42 3.42 0 0 0-2.27-.7H246v-1.49h1.64c.55 0 1.03-.1 1.44-.31.41-.21.74-.5.97-.87.25-.37.37-.79.37-1.26v-.02c0-.5-.1-.91-.32-1.26-.2-.34-.5-.6-.88-.79a3.25 3.25 0 0 0-1.41-.27c-.54 0-1.02.1-1.45.28a2.44 2.44 0 0 0-1.46 2.02v.1h-1.7l.02-.1a4.02 4.02 0 0 1 2.3-3.35 5.24 5.24 0 0 1 2.29-.48c.88 0 1.64.16 2.3.47.64.3 1.15.74 1.52 1.28.36.54.54 1.17.54 1.89v.02c0 .58-.12 1.09-.38 1.54-.24.45-.59.82-1.02 1.12-.44.3-.94.51-1.5.64v.04c.99.08 1.8.43 2.42 1.04.62.6.93 1.41.93 2.41v.02c0 .78-.2 1.48-.62 2.1-.42.62-.99 1.1-1.71 1.47a5.5 5.5 0 0 1-2.46.52Z" fill="#fff"/><path opacity=".8" d="M307.12 215.1v-1.57h9.93v1.58h-9.93Zm16.96 5.21a4.2 4.2 0 0 1-2.7-.9 5.71 5.71 0 0 1-1.72-2.54c-.4-1.1-.6-2.4-.6-3.91v-.02c0-1.5.2-2.8.6-3.9.4-1.1.97-1.95 1.71-2.55a4.2 4.2 0 0 1 2.71-.9c1.05 0 1.95.3 2.7.9.74.6 1.32 1.45 1.72 2.55.4 1.1.6 2.4.6 3.9v.02c0 1.5-.2 2.8-.6 3.9a5.68 5.68 0 0 1-1.72 2.55c-.75.6-1.65.9-2.7.9Zm0-1.53a2.4 2.4 0 0 0 1.75-.71c.49-.48.86-1.15 1.12-2.01.26-.88.4-1.91.4-3.1v-.02c0-1.2-.14-2.22-.4-3.09a4.5 4.5 0 0 0-1.12-2 2.4 2.4 0 0 0-1.75-.71c-.68 0-1.27.24-1.76.71a4.58 4.58 0 0 0-1.11 2c-.25.87-.38 1.9-.38 3.09v.02c0 1.19.13 2.22.38 3.1.26.86.63 1.53 1.11 2 .5.48 1.08.72 1.76.72Zm9.08 1.33c-.34 0-.63-.12-.87-.36a1.19 1.19 0 0 1-.36-.87c0-.35.12-.64.36-.87.24-.24.53-.36.87-.36.34 0 .63.12.87.36.24.23.36.52.36.87 0 .34-.12.63-.36.87s-.53.36-.87.36Zm4.7-.11v-1.21l4.69-5.16c.59-.66 1.05-1.2 1.38-1.62.34-.43.57-.81.7-1.16.13-.34.2-.72.2-1.13v-.02c0-.5-.11-.93-.32-1.31-.2-.4-.5-.7-.9-.92a2.63 2.63 0 0 0-1.37-.34c-.54 0-1.03.12-1.45.35-.42.24-.74.56-.98.98-.23.4-.35.88-.35 1.42v.03h-1.69v-.03a4.19 4.19 0 0 1 2.22-3.73 4.87 4.87 0 0 1 2.34-.55c.82 0 1.55.17 2.19.51.65.35 1.15.82 1.52 1.41.38.6.57 1.27.57 2.02v.02c0 .53-.1 1.04-.27 1.53-.19.5-.5 1.04-.97 1.64-.46.6-1.11 1.34-1.94 2.22l-3.6 3.81.46-.87v.87l-.46-.34h7.01V220h-8.98Zm12.53 0v-1.21l4.7-5.16c.58-.66 1.05-1.2 1.38-1.62.33-.43.56-.81.7-1.16.12-.34.19-.72.19-1.13v-.02c0-.5-.1-.93-.31-1.31-.21-.4-.51-.7-.9-.92a2.63 2.63 0 0 0-1.37-.34c-.55 0-1.03.12-1.46.35-.41.24-.74.56-.97.98-.24.4-.35.88-.35 1.42l-.01.03h-1.68l-.01-.03a4.18 4.18 0 0 1 2.22-3.73c.7-.37 1.48-.55 2.35-.55.81 0 1.54.17 2.19.51.64.35 1.15.82 1.52 1.41.38.6.56 1.27.56 2.02v.02c0 .53-.09 1.04-.27 1.53-.18.5-.5 1.04-.97 1.64-.46.6-1.1 1.34-1.94 2.22l-3.6 3.81.47-.87v.87l-.46-.34h7V220h-8.98ZM424.12 215.1v-1.57h9.93v1.58h-9.93Zm16.96 5.21a4.2 4.2 0 0 1-2.7-.9 5.71 5.71 0 0 1-1.73-2.54c-.4-1.1-.6-2.4-.6-3.91v-.02c0-1.5.2-2.8.6-3.9.4-1.1.98-1.95 1.72-2.55a4.2 4.2 0 0 1 2.7-.9c1.06 0 1.95.3 2.7.9.75.6 1.33 1.45 1.73 2.55.4 1.1.6 2.4.6 3.9v.02c0 1.5-.2 2.8-.6 3.9a5.67 5.67 0 0 1-1.73 2.55c-.75.6-1.64.9-2.7.9Zm0-1.53a2.4 2.4 0 0 0 1.75-.71c.48-.48.86-1.15 1.12-2.01.26-.88.39-1.91.39-3.1v-.02c0-1.2-.13-2.22-.4-3.09a4.51 4.51 0 0 0-1.12-2 2.4 2.4 0 0 0-1.74-.71c-.69 0-1.27.24-1.76.71a4.56 4.56 0 0 0-1.11 2c-.26.87-.38 1.9-.38 3.09v.02c0 1.19.12 2.22.38 3.1.26.86.63 1.53 1.1 2 .5.48 1.08.72 1.77.72Zm9.07 1.33c-.33 0-.62-.12-.86-.36a1.18 1.18 0 0 1-.37-.87c0-.35.12-.64.37-.87.24-.24.53-.36.86-.36.35 0 .64.12.87.36.24.23.37.52.37.87 0 .34-.13.63-.37.87-.23.24-.52.36-.87.36Zm9.06.2a4.2 4.2 0 0 1-2.7-.9 5.71 5.71 0 0 1-1.72-2.54c-.4-1.1-.6-2.4-.6-3.91v-.02c0-1.5.2-2.8.6-3.9.4-1.1.97-1.95 1.72-2.55a4.2 4.2 0 0 1 2.7-.9c1.05 0 1.95.3 2.7.9.75.6 1.32 1.45 1.73 2.55.4 1.1.6 2.4.6 3.9v.02c0 1.5-.2 2.8-.6 3.9a5.68 5.68 0 0 1-1.73 2.55c-.75.6-1.65.9-2.7.9Zm0-1.53a2.4 2.4 0 0 0 1.75-.71c.49-.48.86-1.15 1.12-2.01.26-.88.4-1.91.4-3.1v-.02c0-1.2-.14-2.22-.4-3.09a4.5 4.5 0 0 0-1.12-2 2.4 2.4 0 0 0-1.75-.71c-.68 0-1.27.24-1.75.71a4.57 4.57 0 0 0-1.12 2c-.25.87-.38 1.9-.38 3.09v.02c0 1.19.13 2.22.38 3.1.26.86.63 1.53 1.12 2 .48.48 1.07.72 1.75.72Zm12.62 1.53a5.2 5.2 0 0 1-2.36-.52 4.24 4.24 0 0 1-2.37-3.44l-.01-.1h1.7v.08c.07.45.23.86.5 1.23.28.37.63.66 1.07.88.44.21.93.32 1.48.32.63 0 1.18-.14 1.66-.41.48-.28.85-.66 1.12-1.15.26-.5.4-1.05.4-1.68v-.02c0-.62-.14-1.17-.41-1.65a2.9 2.9 0 0 0-1.12-1.14c-.46-.28-1-.42-1.62-.42-.47 0-.9.08-1.3.22a3.16 3.16 0 0 0-1.7 1.48h-1.53l.74-8.08h7.88v1.57h-6.48l-.48 4.76h.13c.21-.32.48-.59.78-.8a4.17 4.17 0 0 1 2.26-.67c.9 0 1.69.2 2.37.62.68.4 1.22.96 1.61 1.67.4.7.6 1.5.6 2.4v.03c0 .94-.21 1.78-.64 2.5-.42.73-1 1.3-1.75 1.7-.73.42-1.58.62-2.54.62Zm10.31-7.1c-.6 0-1.11-.15-1.54-.45-.43-.3-.76-.73-.99-1.3a5.32 5.32 0 0 1-.34-1.99c0-.78.12-1.44.34-1.99.23-.56.56-.99.99-1.29.43-.3.94-.45 1.54-.45.6 0 1.12.15 1.55.45.43.3.75.73.98 1.29.24.55.35 1.22.35 1.98v.01a5.2 5.2 0 0 1-.35 2c-.23.56-.56.99-.98 1.3-.43.3-.95.44-1.55.44Zm0-1.16c.48 0 .86-.23 1.13-.68.26-.46.4-1.09.4-1.9 0-.81-.14-1.44-.4-1.9a1.25 1.25 0 0 0-1.13-.67c-.48 0-.85.23-1.12.68-.26.45-.4 1.08-.4 1.88v.01c0 .81.14 1.44.4 1.9.27.45.64.68 1.12.68Zm.96 7.95h-1.6l9.47-14.1h1.58L483.1 220Zm8.8.17c-.6 0-1.1-.15-1.53-.45-.43-.3-.77-.74-1-1.3a5.27 5.27 0 0 1-.34-1.98v-.01c0-.77.11-1.43.34-1.99.23-.56.57-.99 1-1.29.43-.3.94-.46 1.54-.46.6 0 1.1.16 1.53.46.44.3.77.73 1 1.3.23.55.35 1.2.35 1.98 0 .77-.12 1.44-.35 2a2.61 2.61 0 0 1-2.53 1.74Zm0-1.17c.48 0 .86-.22 1.12-.67.28-.46.41-1.09.41-1.9 0-.81-.13-1.44-.4-1.89-.27-.45-.65-.68-1.12-.68-.48 0-.86.22-1.13.68a3.7 3.7 0 0 0-.4 1.89c0 .81.14 1.44.4 1.9.27.45.65.67 1.13.67Z" fill="#F7525F"/><circle cx="46" cy="266" r="19" fill="#000"/><path fill-rule="evenodd" clip-rule="evenodd" d="M54.45 269.37a10.2 10.2 0 0 1-1.43 2.72 9.4 9.4 0 0 1-1.4 1.59c-.55.48-1.14.73-1.78.74-.46 0-1-.12-1.65-.37a4.94 4.94 0 0 0-1.77-.37c-.57 0-1.18.12-1.83.37-.65.25-1.17.38-1.58.4a2.6 2.6 0 0 1-1.82-.77 9.97 9.97 0 0 1-1.45-1.65 11.17 11.17 0 0 1-2.18-6.33c0-1.28.29-2.38.87-3.3a5.1 5.1 0 0 1 4.3-2.41c.48 0 1.11.14 1.9.42.79.28 1.3.43 1.52.43.16 0 .73-.17 1.68-.5.9-.3 1.66-.44 2.28-.39 1.69.13 2.95.76 3.8 1.9-1.51.86-2.26 2.08-2.24 3.63a3.92 3.92 0 0 0 1.39 3.03c.41.37.87.66 1.39.86Zm-4.25-13.93c.02.13.02.26.02.38 0 .95-.36 1.84-1.1 2.66-.87.98-1.94 1.54-3.1 1.45a2.8 2.8 0 0 1-.02-.36c0-.9.42-1.88 1.16-2.68.37-.4.85-.74 1.42-1.01a4.41 4.41 0 0 1 1.62-.44Z" fill="#fff"/><rect x="27" y="247" width="38" height="38" rx="19" fill="#E82127"/><path fill-rule="evenodd" clip-rule="evenodd" d="M56.18 259.9A24.64 24.64 0 0 0 46 257.81c-3.1-.02-6.56.49-10.18 2.07-.43-.78-.68-1.35-.68-1.35A29.35 29.35 0 0 1 46 256.5c3.2.01 6.9.46 10.86 2.04 0 0-.2.48-.68 1.35Zm-7.13 1.35L46 278.21l-3.05-16.96c-2.88 0-3.8.05-3.93 1.35 0 0-1.94-.73-2.92-2.2a21.38 21.38 0 0 1 7.66-1.86l2.24 2.71 2.24-2.71s3.84.08 7.66 1.85c-.98 1.48-2.92 2.21-2.92 2.21-.13-1.3-1.03-1.35-3.93-1.35Z" fill="#fff"/><path opacity=".8" d="M83.33 272v-12.51h-4.51v-1.58h10.8v1.58h-4.53V272h-1.76Zm13.45.31a6.72 6.72 0 0 1-2.68-.5 3.96 3.96 0 0 1-2.6-3.42v-.11h1.75l.02.12c.05.47.23.87.55 1.22.3.34.73.6 1.26.79a5.34 5.34 0 0 0 3.52-.02c.5-.2.9-.49 1.17-.85.28-.37.42-.79.42-1.26v-.01c0-.6-.21-1.08-.64-1.47-.43-.4-1.13-.7-2.1-.92l-1.56-.34a7.8 7.8 0 0 1-2.3-.85c-.6-.36-1.03-.8-1.32-1.31a3.67 3.67 0 0 1-.43-1.8v-.01c.01-.78.22-1.47.65-2.06.42-.6 1-1.07 1.75-1.4.74-.35 1.6-.51 2.56-.51.94 0 1.77.16 2.5.5.72.34 1.29.79 1.71 1.36.43.57.67 1.21.72 1.94v.13h-1.75l-.02-.13a2.26 2.26 0 0 0-.5-1.14 2.7 2.7 0 0 0-1.1-.76 4.16 4.16 0 0 0-1.6-.28c-.6 0-1.13.1-1.6.28-.47.18-.84.45-1.11.8a1.9 1.9 0 0 0-.41 1.22v.01c0 .38.1.71.27 1 .2.3.48.55.87.77.4.21.91.39 1.55.53l1.56.35c.98.21 1.77.5 2.37.84.6.34 1.04.77 1.31 1.27.28.5.42 1.1.42 1.77v.01a3.9 3.9 0 0 1-2.45 3.73c-.78.34-1.7.51-2.76.51Zm7.99-.31v-14.1h1.76v12.52h6.8V272h-8.56Zm10.08 0 5.2-14.1h1.34v2.25h-.53L116.7 272h-1.85Zm2.37-4.03.55-1.5h6.34l.56 1.5h-7.45Zm7.93 4.03-4.17-11.86v-2.23h.81L127 272h-1.85ZM192.44 272v-12.16h-.13l-3.62 2.6v-1.84l3.75-2.7h1.74V272h-1.74Zm11.96-14.4c.64 0 1.27.12 1.88.37.63.24 1.2.64 1.7 1.2.51.55.92 1.28 1.21 2.19.31.9.46 2.01.46 3.33v.02c0 1.6-.2 2.96-.63 4.1a5.63 5.63 0 0 1-1.84 2.6c-.8.6-1.77.9-2.9.9-.78 0-1.49-.14-2.12-.43-.63-.29-1.16-.7-1.58-1.2a4.42 4.42 0 0 1-.86-1.82l-.03-.13h1.78l.04.1a2.73 2.73 0 0 0 1.53 1.67c.37.16.8.24 1.26.24.85 0 1.53-.25 2.05-.75a4.5 4.5 0 0 0 1.17-2 10.41 10.41 0 0 0 .44-2.95v-.25l-.42-2.33a3.33 3.33 0 0 0-1.54-2.86c-.47-.3-1-.44-1.58-.44a3 3 0 0 0-1.58.43 3.17 3.17 0 0 0-1.56 2.81v.02c0 .62.14 1.17.4 1.66.27.48.64.86 1.1 1.13.48.28 1.01.41 1.6.41a3.01 3.01 0 0 0 2.73-1.52c.3-.48.43-1.03.43-1.63v-.01h.58v2.5h-.3a3.62 3.62 0 0 1-2.05 1.9c-.5.2-1.06.3-1.7.3a4.44 4.44 0 0 1-3.97-2.29c-.4-.72-.6-1.52-.6-2.41v-.02c0-.94.22-1.77.64-2.5.43-.73 1-1.3 1.74-1.72a5.02 5.02 0 0 1 2.52-.62Zm12.68 14.71a4.2 4.2 0 0 1-2.7-.9 5.71 5.71 0 0 1-1.72-2.55c-.4-1.1-.6-2.4-.6-3.9v-.02c0-1.5.2-2.8.6-3.9.4-1.1.97-1.95 1.72-2.55a4.2 4.2 0 0 1 2.7-.9c1.05 0 1.95.3 2.7.9.74.6 1.32 1.45 1.72 2.55.4 1.1.6 2.4.6 3.9v.02c0 1.5-.2 2.8-.6 3.9a5.68 5.68 0 0 1-1.72 2.55c-.75.6-1.65.9-2.7.9Zm0-1.53a2.4 2.4 0 0 0 1.75-.71c.49-.48.86-1.15 1.12-2.01.26-.88.4-1.91.4-3.1v-.02c0-1.2-.14-2.22-.4-3.09a4.5 4.5 0 0 0-1.12-2 2.4 2.4 0 0 0-1.75-.71c-.68 0-1.27.24-1.76.71a4.58 4.58 0 0 0-1.11 2c-.25.87-.38 1.9-.38 3.09v.02c0 1.19.13 2.22.38 3.1.26.86.63 1.53 1.11 2 .5.48 1.08.72 1.76.72Zm9.08 1.33c-.34 0-.63-.12-.87-.36a1.19 1.19 0 0 1-.36-.87c0-.35.12-.64.36-.87.24-.24.53-.36.87-.36.34 0 .63.12.87.36.24.23.36.52.36.87 0 .33-.12.63-.36.87s-.53.36-.87.36Zm9.06.12c-.98 0-1.86-.17-2.63-.51a4.39 4.39 0 0 1-1.8-1.43 3.53 3.53 0 0 1-.65-2.1v-.02c0-.58.12-1.12.38-1.6a3.93 3.93 0 0 1 2.63-2v-.04a3.71 3.71 0 0 1-1.83-1.2 3 3 0 0 1-.67-1.94v-.01c0-.71.2-1.35.58-1.9.4-.56.94-1 1.63-1.32a5.48 5.48 0 0 1 2.36-.49c.88 0 1.67.17 2.36.5.69.31 1.23.75 1.63 1.31.4.55.6 1.19.6 1.9v.01c0 .75-.23 1.4-.69 1.95-.45.55-1.05.95-1.81 1.19v.04a3.93 3.93 0 0 1 2.61 2c.26.49.38 1.02.38 1.6v.02c0 .79-.22 1.49-.65 2.1a4.39 4.39 0 0 1-1.8 1.43 6.3 6.3 0 0 1-2.63.51Zm0-1.53c.64 0 1.21-.11 1.7-.33.5-.23.9-.54 1.18-.93.28-.4.42-.85.42-1.36v-.02c0-.51-.14-.97-.42-1.36-.28-.4-.67-.71-1.17-.94a4.04 4.04 0 0 0-1.7-.34 4.1 4.1 0 0 0-1.72.34c-.5.23-.89.54-1.17.94-.28.4-.41.85-.41 1.36v.02c0 .51.13.96.41 1.36.3.4.68.7 1.18.93.5.22 1.06.33 1.7.33Zm0-6.82c.56 0 1.06-.1 1.48-.3.42-.2.76-.48 1-.83s.36-.75.36-1.2v-.03c0-.45-.12-.86-.36-1.2a2.4 2.4 0 0 0-1-.83c-.42-.2-.91-.3-1.47-.3-.56 0-1.06.1-1.49.3-.42.2-.75.47-1 .82-.23.35-.35.76-.35 1.21v.02c0 .46.12.86.36 1.21s.57.63 1 .83c.42.2.91.3 1.47.3Zm12.53 8.43a4.2 4.2 0 0 1-2.7-.9 5.71 5.71 0 0 1-1.72-2.55c-.4-1.1-.6-2.4-.6-3.9v-.02c0-1.5.2-2.8.6-3.9.4-1.1.97-1.95 1.71-2.55a4.2 4.2 0 0 1 2.71-.9c1.05 0 1.95.3 2.7.9.74.6 1.32 1.45 1.72 2.55.4 1.1.6 2.4.6 3.9v.02c0 1.5-.2 2.8-.6 3.9a5.67 5.67 0 0 1-1.72 2.55c-.75.6-1.65.9-2.7.9Zm0-1.53a2.4 2.4 0 0 0 1.75-.71c.49-.48.86-1.15 1.12-2.01.26-.88.4-1.91.4-3.1v-.02c0-1.2-.14-2.22-.4-3.09a4.51 4.51 0 0 0-1.12-2 2.4 2.4 0 0 0-1.75-.71c-.68 0-1.27.24-1.76.71a4.56 4.56 0 0 0-1.11 2c-.25.87-.38 1.9-.38 3.09v.02c0 1.19.13 2.22.38 3.1.26.86.63 1.53 1.11 2 .49.48 1.08.72 1.76.72Z" fill="#fff"/><path opacity=".8" d="M319.73 272v-1.21l4.68-5.16c.6-.65 1.06-1.2 1.39-1.62.33-.43.56-.81.7-1.16.12-.35.19-.72.19-1.13v-.02c0-.5-.1-.93-.31-1.31-.21-.4-.51-.7-.9-.92a2.63 2.63 0 0 0-1.37-.34c-.55 0-1.03.12-1.46.35-.41.23-.74.56-.97.98-.24.4-.35.88-.35 1.42l-.01.03h-1.68l-.01-.03a4.18 4.18 0 0 1 2.22-3.73 4.87 4.87 0 0 1 2.35-.55c.81 0 1.54.17 2.19.51.64.35 1.15.82 1.52 1.41.38.6.56 1.27.56 2.02v.02c0 .53-.09 1.04-.27 1.53-.18.5-.5 1.04-.97 1.64-.46.6-1.1 1.34-1.94 2.22l-3.6 3.81.47-.87v.87l-.46-.34h7V272h-8.97Zm13.43.1c-.34 0-.63-.11-.87-.35a1.19 1.19 0 0 1-.36-.87c0-.35.12-.64.36-.87.24-.24.53-.36.87-.36.34 0 .63.12.87.36.24.23.36.52.36.87 0 .33-.12.63-.36.87s-.53.36-.87.36Zm9.13.13c-.95 0-1.78-.16-2.49-.5a3.89 3.89 0 0 1-2.4-3.35v-.11h1.7v.1c.05.46.2.87.48 1.22.27.35.64.63 1.1.83.47.2 1 .3 1.61.3.6 0 1.13-.12 1.58-.33.44-.22.8-.51 1.05-.89s.38-.82.38-1.32v-.02c0-.86-.28-1.53-.85-1.99a3.42 3.42 0 0 0-2.26-.7h-1.72v-1.49h1.64c.54 0 1.02-.1 1.43-.31.42-.22.75-.5.98-.87.24-.37.36-.79.36-1.26v-.02c0-.5-.1-.91-.31-1.26-.2-.34-.5-.6-.89-.79a3.25 3.25 0 0 0-1.4-.27c-.55 0-1.03.1-1.45.28a2.42 2.42 0 0 0-1.45 2.02l-.02.1h-1.69l.01-.1a4.02 4.02 0 0 1 2.3-3.35 5.24 5.24 0 0 1 2.3-.48c.87 0 1.64.16 2.29.47.65.3 1.16.74 1.52 1.28.37.54.55 1.17.55 1.89v.02a3.09 3.09 0 0 1-1.4 2.66c-.44.3-.94.51-1.51.64v.04c1 .08 1.8.43 2.42 1.04.63.6.94 1.41.94 2.41v.02c0 .78-.21 1.48-.63 2.1-.41.62-.98 1.1-1.7 1.47-.72.35-1.54.52-2.47.52Zm12.46.08a4.2 4.2 0 0 1-2.7-.9 5.71 5.71 0 0 1-1.72-2.55c-.4-1.1-.6-2.4-.6-3.9v-.02c0-1.5.2-2.8.6-3.9.4-1.1.97-1.95 1.72-2.55a4.2 4.2 0 0 1 2.7-.9c1.05 0 1.95.3 2.7.9.74.6 1.32 1.45 1.72 2.55.4 1.1.6 2.4.6 3.9v.02c0 1.5-.2 2.8-.6 3.9a5.67 5.67 0 0 1-1.73 2.55c-.74.6-1.64.9-2.69.9Zm0-1.53a2.4 2.4 0 0 0 1.75-.71c.49-.48.86-1.15 1.12-2.01.26-.88.4-1.91.4-3.1v-.02c0-1.2-.14-2.22-.4-3.09a4.51 4.51 0 0 0-1.12-2 2.4 2.4 0 0 0-1.75-.71c-.68 0-1.27.24-1.76.71a4.56 4.56 0 0 0-1.11 2c-.25.87-.38 1.9-.38 3.09v.02c0 1.19.13 2.22.38 3.1.26.86.63 1.53 1.11 2 .49.48 1.08.72 1.76.72ZM441.5 272v-12.16h-.12l-3.62 2.6v-1.84l3.75-2.7h1.74V272h-1.74Zm8.65.1c-.33 0-.62-.11-.86-.35a1.18 1.18 0 0 1-.37-.87c0-.35.12-.64.37-.87.24-.24.53-.36.86-.36.35 0 .64.12.87.36.24.23.37.52.37.87 0 .33-.13.63-.37.87-.23.24-.52.36-.87.36Zm4.7-.1v-1.21l4.7-5.16c.59-.65 1.05-1.2 1.38-1.62.33-.43.56-.81.7-1.16.13-.35.19-.72.19-1.13v-.02c0-.5-.1-.93-.31-1.31-.21-.4-.51-.7-.9-.92a2.63 2.63 0 0 0-1.37-.34c-.55 0-1.03.12-1.45.35-.42.23-.75.56-.98.98-.23.4-.35.88-.35 1.42l-.01.03h-1.68l-.01-.03a4.19 4.19 0 0 1 2.23-3.73 4.87 4.87 0 0 1 2.34-.55c.81 0 1.54.17 2.19.51.64.35 1.15.82 1.52 1.41.38.6.57 1.27.57 2.02v.02c0 .53-.1 1.04-.28 1.53-.18.5-.5 1.04-.96 1.64-.47.6-1.11 1.34-1.95 2.22l-3.59 3.81.46-.87v.87l-.46-.34h7.01V272h-8.98Zm12.54 0v-1.21l4.69-5.16c.6-.65 1.05-1.2 1.39-1.62.33-.43.56-.81.69-1.16.13-.35.2-.72.2-1.13v-.02c0-.5-.11-.93-.32-1.31-.2-.4-.5-.7-.9-.92a2.63 2.63 0 0 0-1.36-.34c-.55 0-1.04.12-1.46.35-.42.23-.74.56-.98.98-.23.4-.35.88-.35 1.42v.03h-1.69v-.03a4.18 4.18 0 0 1 2.22-3.73 4.87 4.87 0 0 1 2.34-.55c.82 0 1.55.17 2.2.51.64.35 1.14.82 1.51 1.41.38.6.57 1.27.57 2.02v.02c0 .53-.09 1.04-.27 1.53-.18.5-.5 1.04-.97 1.64-.46.6-1.1 1.34-1.94 2.22l-3.6 3.81.46-.87v.87l-.46-.34h7.02V272h-8.99Zm14.75-6.79c-.6 0-1.11-.15-1.54-.45-.43-.3-.76-.74-.99-1.3a5.32 5.32 0 0 1-.34-1.99c0-.78.12-1.44.34-1.99.23-.56.56-.99.99-1.29.43-.3.94-.45 1.54-.45.6 0 1.12.15 1.55.45.43.3.75.73.98 1.29.24.55.35 1.21.35 1.98v.01a5.2 5.2 0 0 1-.35 2c-.23.55-.56.99-.98 1.3-.43.3-.95.44-1.55.44Zm0-1.16c.48 0 .86-.23 1.13-.68.26-.46.4-1.09.4-1.9 0-.81-.14-1.44-.4-1.9a1.25 1.25 0 0 0-1.13-.67c-.48 0-.85.23-1.12.68-.26.45-.4 1.08-.4 1.88v.01c0 .81.14 1.44.4 1.9.27.45.64.68 1.12.68Zm.96 7.95h-1.6l9.47-14.1h1.58L483.1 272Zm8.8.17c-.6 0-1.1-.15-1.53-.45-.43-.3-.77-.74-1-1.3a5.27 5.27 0 0 1-.34-1.98v-.01c0-.77.11-1.43.34-1.99.23-.56.57-.99 1-1.29.43-.3.94-.45 1.54-.45.6 0 1.1.15 1.53.45.44.3.77.73 1 1.3.23.55.35 1.2.35 1.98 0 .77-.12 1.44-.35 2a2.61 2.61 0 0 1-2.53 1.74Zm0-1.17c.48 0 .86-.22 1.12-.67.28-.46.41-1.09.41-1.9 0-.81-.13-1.44-.4-1.89-.27-.46-.65-.68-1.12-.68-.48 0-.86.22-1.13.68a3.7 3.7 0 0 0-.4 1.89c0 .81.14 1.44.4 1.9.27.45.65.67 1.13.67Z" fill="#22AB94"/><g opacity=".8" filter="url(#fhjydcsku)"><path d="M550 0h50a12 12 0 0 1 12 12v328h-62V0Z" fill="url(#ghjydcsku)" fill-opacity=".5"/><path d="M550 0h50a12 12 0 0 1 12 12v328h-62V0Z" fill="url(#hhjydcsku)" fill-opacity=".4"/></g><g opacity=".1" filter="url(#ihjydcsku)"><rect x="555" y="5" width="52" height="53" rx="8" fill="#F8F9FD"/></g><path d="M573.5 23h15v-1.5h-15V23ZM573.5 29h15v-1.5h-15V29ZM588.5 35h-15v-1.5h15V35Z" fill="#fff"/><path fill-rule="evenodd" clip-rule="evenodd" d="m581 42.63-13.5 5.87v-33h27v33L581 42.63Zm-12 3.58V17h24v29.21L581 41l-12 5.21Z" fill="#fff"/><g opacity=".4" fill="#B2B5BE"><path d="M567.5 77H566v4.5h-4.5V83h4.5v4.5h1.5V83h4.5v-1.5h-4.5V77Z"/><path fill-rule="evenodd" clip-rule="evenodd" d="M586.25 90.5h-10.5a2.25 2.25 0 1 0 0 4.5h10.5a2.25 2.25 0 1 0 0-4.5Zm-10.5-1.5a3.75 3.75 0 0 0 0 7.5h10.5a3.75 3.75 0 0 0 0-7.5h-10.5Z"/><path d="M572 101h18v1.5h-18V101Z"/><path fill-rule="evenodd" clip-rule="evenodd" d="M592.25 83H575v-1.5h17.25a3.75 3.75 0 0 1 3.75 3.75v21a3.75 3.75 0 0 1-3.75 3.75h-22.5a3.75 3.75 0 0 1-3.75-3.75V90.5h1.5v15.75c0 1.24 1 2.25 2.25 2.25h22.5c1.24 0 2.25-1 2.25-2.25v-21c0-1.24-1-2.25-2.25-2.25Z"/></g><g clip-path="url(#jhjydcsku)"><path fill-rule="evenodd" clip-rule="evenodd" d="M580.13 139.99c.4-.23.9-.23 1.3 0l13.71 7.81c.9.5.9 1.79 0 2.3l-13.71 7.81c-.4.23-.9.23-1.3 0l-13.92-7.81c-.9-.5-.9-1.8 0-2.3l13.92-7.81Zm.65 1.15-13.93 7.8 13.93 7.82 13.71-7.81-13.71-7.81Zm15.38 15.63-15.38 8.97-15.6-8.79.65-1.14 14.94 8.41 14.72-8.6.67 1.15Z" fill="#D1D4DC"/></g><g filter="url(#khjydcsku)"><path d="M299 146a12 12 0 0 1 12-12h361a12 12 0 0 1 12 12v182a12 12 0 0 1-12 12H311a12 12 0 0 1-12-12V146Z" fill="url(#lhjydcsku)"/><path d="M299 146a12 12 0 0 1 12-12h361a12 12 0 0 1 12 12v182a12 12 0 0 1-12 12H311a12 12 0 0 1-12-12V146Z" fill="url(#mhjydcsku)" fill-opacity=".5"/></g><path opacity=".8" d="M458.3 186.23c-.94 0-1.77-.16-2.48-.5a3.89 3.89 0 0 1-2.4-3.35v-.11h1.69v.1c.05.46.21.87.48 1.22.28.35.65.63 1.1.83.48.2 1.01.3 1.62.3.6 0 1.12-.12 1.57-.33a2.34 2.34 0 0 0 1.44-2.2v-.03c0-.86-.29-1.53-.85-1.99a3.42 3.42 0 0 0-2.27-.7h-1.72v-1.49h1.64c.55 0 1.03-.1 1.44-.31.42-.21.74-.5.98-.87s.36-.79.36-1.26v-.02c0-.5-.1-.91-.32-1.26-.2-.34-.5-.6-.88-.79a3.25 3.25 0 0 0-1.41-.27c-.54 0-1.02.1-1.45.28a2.42 2.42 0 0 0-1.45 2.02l-.01.1h-1.7l.02-.1a4.02 4.02 0 0 1 2.3-3.35 5.24 5.24 0 0 1 2.29-.48c.88 0 1.64.16 2.3.47.65.3 1.15.74 1.52 1.28.36.54.54 1.17.54 1.89v.02c0 .58-.12 1.09-.38 1.54-.24.45-.59.82-1.02 1.12-.44.3-.94.51-1.5.64v.04c.99.08 1.8.43 2.42 1.04.62.6.93 1.41.93 2.41v.02c0 .78-.2 1.48-.62 2.1-.42.62-.99 1.1-1.71 1.47-.72.35-1.54.52-2.46.52Zm9-.12c-.33 0-.62-.12-.86-.36a1.19 1.19 0 0 1-.36-.87c0-.35.12-.64.36-.87.24-.24.53-.36.87-.36.34 0 .63.12.87.36.24.23.36.52.36.87 0 .34-.12.63-.36.87s-.53.36-.87.36Zm9.23.2a5.1 5.1 0 0 1-1.9-.37 4.61 4.61 0 0 1-1.68-1.2 6.05 6.05 0 0 1-1.22-2.19c-.3-.9-.45-2.02-.45-3.34v-.02c0-1.6.21-2.96.63-4.09.43-1.13 1.04-2 1.84-2.6.8-.6 1.77-.9 2.9-.9.78 0 1.48.14 2.1.44a4.29 4.29 0 0 1 2.45 3.01l.03.13h-1.77l-.04-.1a2.72 2.72 0 0 0-1.54-1.67 3.15 3.15 0 0 0-1.25-.24c-.84 0-1.52.25-2.05.75a4.5 4.5 0 0 0-1.17 2 10.56 10.56 0 0 0-.45 2.95v.25l.42 2.33a3.27 3.27 0 0 0 1.54 2.86c.48.3 1 .44 1.6.44.58 0 1.1-.14 1.57-.43a3.17 3.17 0 0 0 1.56-2.81v-.02c0-.62-.14-1.17-.4-1.65a2.92 2.92 0 0 0-1.1-1.15c-.47-.27-1-.4-1.6-.4-.6 0-1.15.13-1.63.4s-.85.65-1.13 1.13a3.19 3.19 0 0 0-.41 1.62h-.58v-2.5h.31a3.86 3.86 0 0 1 2.04-1.9c.5-.19 1.07-.29 1.7-.29a4.47 4.47 0 0 1 3.97 2.29c.4.7.6 1.51.6 2.4v.03a4.7 4.7 0 0 1-4.88 4.84Zm12.37 0a4.2 4.2 0 0 1-2.7-.9 5.71 5.71 0 0 1-1.72-2.54c-.4-1.1-.6-2.4-.6-3.91v-.02c0-1.5.2-2.8.6-3.9.4-1.1.97-1.95 1.71-2.55a4.2 4.2 0 0 1 2.71-.9c1.05 0 1.95.3 2.7.9.74.6 1.32 1.45 1.72 2.55.4 1.1.61 2.4.61 3.9v.02c0 1.5-.2 2.8-.6 3.9a5.68 5.68 0 0 1-1.73 2.55c-.75.6-1.65.9-2.7.9Zm0-1.53a2.4 2.4 0 0 0 1.75-.71c.49-.48.86-1.15 1.12-2.01.26-.88.4-1.91.4-3.1v-.02c0-1.2-.14-2.22-.4-3.09a4.5 4.5 0 0 0-1.12-2 2.4 2.4 0 0 0-1.75-.71c-.68 0-1.27.24-1.76.71a4.58 4.58 0 0 0-1.11 2c-.25.87-.38 1.9-.38 3.09v.02c0 1.19.13 2.22.38 3.1.26.86.63 1.53 1.11 2 .5.48 1.08.72 1.76.72Zm16.65 4.72a12.79 12.79 0 0 1-2.48-5.65c-.2-1.06-.3-2.19-.3-3.39 0-1.2.1-2.32.3-3.38a12.8 12.8 0 0 1 2.48-5.65h1.43c-.36.45-.68 1-.99 1.68-.3.68-.56 1.42-.78 2.24a20.75 20.75 0 0 0-.7 5.11 21.25 21.25 0 0 0 .7 5.13c.22.81.48 1.56.78 2.23a8 8 0 0 0 .99 1.68h-1.43Zm4.27-3.5v-1.21l4.7-5.16c.58-.66 1.05-1.2 1.38-1.62.33-.43.56-.81.7-1.16.12-.34.19-.72.19-1.13v-.02c0-.5-.1-.93-.32-1.31-.2-.4-.5-.7-.9-.92a2.63 2.63 0 0 0-1.36-.34c-.55 0-1.03.12-1.46.35-.41.24-.74.56-.97.98-.24.4-.35.88-.35 1.42l-.01.03h-1.68l-.01-.03a4.19 4.19 0 0 1 2.22-3.73 4.87 4.87 0 0 1 2.35-.55c.81 0 1.54.17 2.18.51.65.35 1.16.82 1.53 1.41.38.6.56 1.27.56 2.02v.02c0 .53-.09 1.04-.27 1.53-.18.5-.5 1.04-.97 1.64-.46.6-1.1 1.34-1.94 2.22l-3.6 3.81.47-.87v.87l-.46-.34h7V186h-8.98Zm13.44.1c-.34 0-.63-.11-.87-.35a1.19 1.19 0 0 1-.36-.87c0-.35.12-.64.36-.87.24-.24.53-.36.87-.36.34 0 .63.12.87.36.24.23.36.52.36.87 0 .34-.12.63-.36.87s-.53.36-.87.36Zm9.48-.1v-12.16h-.12l-3.63 2.6v-1.84l3.75-2.7h1.74V186h-1.74Zm7.75 0v-1.21l4.7-5.16c.58-.66 1.05-1.2 1.38-1.62.33-.43.56-.81.7-1.16.12-.34.19-.72.19-1.13v-.02c0-.5-.1-.93-.32-1.31-.2-.4-.5-.7-.9-.92a2.63 2.63 0 0 0-1.36-.34c-.55 0-1.03.12-1.46.35-.41.24-.74.56-.97.98-.24.4-.36.88-.36 1.42v.03h-1.68l-.01-.03a4.18 4.18 0 0 1 2.22-3.73 4.87 4.87 0 0 1 2.35-.55c.81 0 1.54.17 2.18.51.65.35 1.16.82 1.53 1.41.38.6.56 1.27.56 2.02v.02c0 .53-.09 1.04-.27 1.53-.18.5-.5 1.04-.97 1.64-.46.6-1.1 1.34-1.94 2.22l-3.6 3.81.46-.87v.87l-.45-.34h7V186h-8.98Zm14.75-6.79c-.6 0-1.1-.15-1.54-.45-.43-.3-.76-.73-.98-1.3a5.32 5.32 0 0 1-.35-1.99c0-.78.12-1.44.35-1.99.22-.56.55-.99.98-1.29.43-.3.95-.45 1.54-.45.6 0 1.12.15 1.55.45.43.3.76.73.98 1.29.24.55.36 1.22.36 1.98v.01c0 .76-.12 1.43-.36 2-.22.56-.55.99-.98 1.3-.43.3-.95.44-1.54.44Zm0-1.16c.49 0 .86-.23 1.13-.68.26-.46.4-1.09.4-1.9 0-.81-.13-1.44-.4-1.9a1.25 1.25 0 0 0-1.13-.67c-.48 0-.85.23-1.12.68-.26.45-.39 1.08-.39 1.88v.01c0 .81.13 1.44.4 1.9.26.45.63.68 1.12.68Zm.96 7.95h-1.59l9.46-14.1h1.58L556.2 186Zm8.81.17c-.6 0-1.11-.15-1.54-.45-.43-.3-.76-.74-1-1.3a5.27 5.27 0 0 1-.34-1.98v-.01c0-.77.11-1.43.34-1.99.24-.56.57-.99 1-1.29.43-.3.94-.46 1.54-.46.6 0 1.1.16 1.53.46.44.3.77.73 1 1.3.23.55.35 1.2.35 1.98 0 .77-.12 1.44-.35 2a2.62 2.62 0 0 1-2.53 1.74Zm0-1.17c.48 0 .85-.22 1.11-.67a3.7 3.7 0 0 0 .41-1.9c0-.81-.13-1.44-.4-1.89-.27-.45-.64-.68-1.12-.68-.48 0-.86.22-1.12.68a3.7 3.7 0 0 0-.4 1.89c0 .81.13 1.44.4 1.9.26.45.64.67 1.12.67Zm6.48 4.5h-1.42c.35-.45.67-1 .97-1.68.3-.67.57-1.42.8-2.23a21.05 21.05 0 0 0 .7-5.13 20.57 20.57 0 0 0-.7-5.1c-.23-.83-.5-1.57-.8-2.25a7.5 7.5 0 0 0-.97-1.67h1.42a12.76 12.76 0 0 1 2.48 5.64c.2 1.06.3 2.18.3 3.38 0 1.2-.1 2.33-.3 3.4-.2 1.05-.5 2.04-.92 2.98-.4.94-.92 1.82-1.56 2.66Z" fill="#22AB94"/><rect x="317" y="224" width="65" height="22" rx="11" fill="#142E61"/><path opacity=".8" d="M329.7 240v-8.5h-.1l-2.52 1.82v-1.3l2.63-1.88h1.22V240h-1.23Zm6 0 4.57-8.67v-.1h-5.44v-1.1h6.7v1.15L337 240h-1.3Zm11.42.23c-.74 0-1.36-.2-1.88-.63a3.98 3.98 0 0 1-1.19-1.78 8.14 8.14 0 0 1-.42-2.75v-.01c0-1.06.14-1.97.42-2.74.28-.77.68-1.37 1.2-1.79a2.89 2.89 0 0 1 1.87-.63c.72 0 1.35.21 1.87.63.52.42.92 1.02 1.2 1.79.28.77.42 1.68.42 2.74v.01a8 8 0 0 1-.43 2.75 3.95 3.95 0 0 1-1.2 1.78 2.9 2.9 0 0 1-1.87.63Zm0-1.07c.47 0 .87-.17 1.2-.5.34-.33.6-.8.78-1.41.18-.62.27-1.34.27-2.18v-.01c0-.84-.1-1.56-.27-2.17a3.16 3.16 0 0 0-.78-1.4c-.33-.34-.73-.5-1.2-.5-.48 0-.88.16-1.22.5-.33.32-.58.79-.76 1.4-.18.6-.27 1.33-.27 2.17v.01c0 .84.1 1.56.27 2.18.18.6.43 1.08.76 1.41.34.33.75.5 1.22.5Zm6.53.9a.87.87 0 0 1-.63-.25.87.87 0 0 1-.26-.63c0-.25.09-.46.26-.63a.87.87 0 0 1 .63-.26c.24 0 .45.09.63.26.17.17.26.38.26.63 0 .24-.1.45-.26.63a.86.86 0 0 1-.63.26Zm6.82-.06v-8.5h-.11l-2.51 1.82v-1.3l2.62-1.88h1.23V240h-1.23Zm8.85 0v-8.5h-.1l-2.52 1.82v-1.3l2.63-1.88h1.22V240h-1.23Z" fill="#3179F5"/><rect x="391" y="224" width="65" height="22" rx="11" fill="#4D191D"/><path opacity=".8" d="M403.7 240v-8.5h-.1l-2.52 1.82v-1.3l2.63-1.88h1.22V240h-1.23Zm6 0 4.57-8.67v-.1h-5.44v-1.1h6.7v1.15L411 240h-1.3Zm8.39 0v-.85l3.22-3.6c.41-.46.73-.84.96-1.14.23-.3.4-.56.49-.8.1-.25.14-.51.14-.8v-.02c0-.34-.07-.65-.22-.92a1.59 1.59 0 0 0-.62-.65 1.85 1.85 0 0 0-.96-.24c-.38 0-.71.08-1 .24-.28.16-.5.39-.66.68a2.1 2.1 0 0 0-.23 1.01v.02l-1.19-.01a2.87 2.87 0 0 1 1.53-2.62 3.37 3.37 0 0 1 1.63-.4c.57 0 1.07.12 1.52.37.45.23.8.56 1.06.97.26.42.4.9.4 1.42v.02c0 .37-.07.73-.2 1.08-.12.34-.35.73-.66 1.15-.32.42-.77.94-1.35 1.56l-2.47 2.63.3-.57v.57l-.3-.2h4.83v1.1h-6.22Zm9.56.07a.87.87 0 0 1-.63-.26.87.87 0 0 1-.26-.63c0-.25.09-.46.26-.63a.87.87 0 0 1 .63-.26c.24 0 .45.09.63.26.17.17.26.38.26.63 0 .24-.1.45-.26.63a.86.86 0 0 1-.63.26Zm6.65.16a3.24 3.24 0 0 1-2.5-1.1c-.36-.39-.65-.9-.86-1.53a7.63 7.63 0 0 1-.32-2.35v-.01c0-1.13.15-2.08.45-2.88.3-.8.72-1.4 1.28-1.82a3.29 3.29 0 0 1 2.03-.64c.55 0 1.04.1 1.48.31a3 3 0 0 1 1.7 2.12l.03.09h-1.24l-.03-.08c-.1-.27-.23-.51-.41-.7-.18-.2-.4-.36-.67-.47a2.2 2.2 0 0 0-.87-.17 2 2 0 0 0-1.44.53c-.37.35-.64.8-.82 1.39a7.4 7.4 0 0 0-.31 2.08v.18l.3 1.64a2.37 2.37 0 0 0 1.07 2.02c.34.2.7.3 1.12.3.4 0 .78-.1 1.1-.3a2.26 2.26 0 0 0 1.1-1.98v-.01c0-.44-.1-.83-.29-1.16a2.12 2.12 0 0 0-1.9-1.1 2.13 2.13 0 0 0-2.21 2.22v.01h-.4v-1.78h.24c.12-.26.3-.52.53-.75.24-.23.54-.42.89-.56a3.1 3.1 0 0 1 1.17-.21 3.13 3.13 0 0 1 2.78 1.6c.28.5.42 1.07.42 1.7v.02c0 .65-.15 1.23-.45 1.75a3.26 3.26 0 0 1-2.97 1.64Zm9.8-.23v-2.04h-4.7v-1.13a255.06 255.06 0 0 1 1.61-2.72l.84-1.37a305.78 305.78 0 0 1 1.66-2.6h1.79v6.72h1.37v1.1h-1.37V240h-1.2Zm-3.46-3.14h3.46v-5.58h-.08a185.96 185.96 0 0 0-3.38 5.5v.08Z" fill="#F7525F"/><path opacity=".8" d="M331.08 213v-8.46h1.22l2.9 7.06h.1l2.89-7.06h1.22V213h-.98v-6.46h-.52l1.18-1.76-3.4 8.22h-.9l-3.39-8.22 1.18 1.76h-.52V213h-.98Zm9.85 0 3.11-8.46h.81v1.37h-.33l-2.49 7.09h-1.1Zm1.4-2.42.34-.9h3.82l.32.9h-4.47Zm4.77 2.42-2.49-7.09v-1.37h.47l3.12 8.46h-1.1Zm2.62 0v-8.46h3.23c.54 0 1.01.11 1.41.32.41.2.72.5.95.87.22.38.33.82.33 1.33v.01c0 .59-.15 1.1-.45 1.52-.3.43-.72.73-1.25.9l1.96 3.51h-1.24l-1.8-3.35h-2.09V213h-1.05Zm1.05-4.28h2.08c.54 0 .96-.14 1.26-.42.3-.28.44-.68.44-1.2 0-.51-.15-.9-.46-1.19-.31-.28-.74-.43-1.28-.43h-2.04v3.24Zm7.76 1.46-.06-1.53h.27l3.7-4.1h1.32l-3.5 3.77-.49.48-1.24 1.38Zm-.94 2.82v-8.46h1.05V213h-1.05Zm5.12 0-3.16-4.21.73-.73 3.8 4.94h-1.37Zm2.82 0v-8.46h5.24v.95h-4.18v2.72h3.96v.94h-3.96v2.9h4.18v.95h-5.24Zm9.38 0v-7.5h-2.73v-.96h6.5v.95h-2.72V213h-1.05Zm12.4.2c-.81 0-1.5-.18-2.08-.54a3.56 3.56 0 0 1-1.34-1.54 5.5 5.5 0 0 1-.46-2.34v-.02c0-.9.16-1.69.47-2.35a3.56 3.56 0 0 1 3.4-2.06 3.51 3.51 0 0 1 3.41 2.07c.32.66.48 1.44.48 2.34v.02c0 .9-.16 1.68-.47 2.34a3.52 3.52 0 0 1-3.41 2.08Zm0-.97c.58 0 1.07-.15 1.5-.43.41-.29.73-.69.96-1.2.23-.52.34-1.13.34-1.82v-.02c0-.7-.11-1.3-.34-1.82a2.71 2.71 0 0 0-.97-1.2 2.61 2.61 0 0 0-1.5-.42 2.6 2.6 0 0 0-1.48.42c-.42.28-.74.68-.97 1.2a4.5 4.5 0 0 0-.34 1.82v.02c0 .7.1 1.3.33 1.82.23.51.55.91.96 1.2.42.28.92.43 1.5.43Zm6.27-2.25v-.94h2.39c.6 0 1.07-.15 1.4-.46.33-.32.5-.76.5-1.31v-.01c0-.56-.17-1-.5-1.3-.33-.32-.8-.48-1.4-.48h-2.4v-.94h2.67c.53 0 1 .12 1.4.34.4.23.73.55.96.95.23.41.35.88.35 1.42 0 .54-.12 1.02-.35 1.43-.23.4-.55.73-.96.96-.4.23-.87.34-1.4.34h-2.66Zm-.53 3.02v-8.46h1.05V213h-1.05Zm7.66 0v-8.46h5.24v.95h-4.19v2.72h3.97v.94h-3.97v2.9h4.19v.95h-5.24Zm7.18 0v-8.46h1.03l4.84 6.95-.7-.37h.54v-6.58h1.04V213h-1.02l-4.85-6.93.7.37h-.54V213h-1.04Z" fill="#089981"/><path opacity=".8" d="M326.36 186v-21.06h-.1l-6.55 4.5v-4.15l6.63-4.66h4.48V186h-4.46Zm15.95 0 11.65-21.57v-.09h-13.81v-3.7h18.28v3.77L347.05 186h-4.74Zm30.15.44c-1.84 0-3.44-.31-4.81-.93a8.24 8.24 0 0 1-3.27-2.55 7.35 7.35 0 0 1-1.4-3.75l-.01-.22h4.34l.02.19c.08.7.34 1.3.77 1.84.45.53 1.04.95 1.78 1.25.75.3 1.61.46 2.58.46.98 0 1.82-.16 2.53-.5.73-.33 1.3-.8 1.7-1.38.4-.59.6-1.27.6-2.04v-.03c0-1.34-.46-2.37-1.38-3.08a5.96 5.96 0 0 0-3.76-1.07h-3v-3.38h2.89a5.6 5.6 0 0 0 2.43-.49c.69-.33 1.23-.77 1.61-1.34.39-.57.58-1.23.58-1.96v-.04c0-.77-.17-1.42-.5-1.95-.34-.54-.81-.95-1.45-1.23a5.33 5.33 0 0 0-2.28-.44c-.88 0-1.66.14-2.34.44a3.76 3.76 0 0 0-2.36 3.13l-.01.17h-4.2l.01-.2a7.46 7.46 0 0 1 1.34-3.75 7.8 7.8 0 0 1 3.07-2.5c1.3-.6 2.79-.9 4.49-.9 1.73 0 3.24.29 4.51.85a6.83 6.83 0 0 1 3 2.32 5.8 5.8 0 0 1 1.05 3.46v.04a5.55 5.55 0 0 1-2.57 4.76c-.8.53-1.7.9-2.7 1.1v.1a7.3 7.3 0 0 1 4.48 1.86 5.5 5.5 0 0 1 1.68 4.22v.03c0 1.47-.4 2.77-1.2 3.9a8.03 8.03 0 0 1-3.31 2.66c-1.41.63-3.05.95-4.9.95Zm16.02-.16c-.71 0-1.31-.25-1.8-.74-.5-.49-.75-1.09-.75-1.79 0-.72.25-1.32.74-1.81.5-.5 1.1-.74 1.81-.74.7 0 1.3.25 1.8.74.49.5.74 1.1.74 1.81 0 .7-.25 1.3-.74 1.8-.5.48-1.1.73-1.8.73Zm15.78.16c-1.84 0-3.44-.31-4.82-.93a7.37 7.37 0 0 1-4.66-6.3l-.01-.22h4.34l.02.19c.08.7.34 1.3.77 1.84.45.53 1.04.95 1.78 1.25.75.3 1.6.46 2.58.46.97 0 1.82-.16 2.53-.5.73-.33 1.3-.8 1.69-1.38.4-.59.61-1.27.61-2.04v-.03c0-1.34-.46-2.37-1.38-3.08a5.96 5.96 0 0 0-3.77-1.07h-2.98v-3.38h2.88a5.6 5.6 0 0 0 2.42-.49c.7-.33 1.24-.77 1.62-1.34.39-.57.58-1.23.58-1.96v-.04c0-.77-.17-1.42-.5-1.95-.34-.54-.82-.95-1.45-1.23a5.33 5.33 0 0 0-2.28-.44c-.88 0-1.66.14-2.34.44a3.75 3.75 0 0 0-2.36 3.13l-.02.17h-4.2l.02-.2a7.46 7.46 0 0 1 1.34-3.75 7.78 7.78 0 0 1 3.07-2.5c1.3-.6 2.79-.9 4.49-.9 1.73 0 3.23.29 4.51.85a6.83 6.83 0 0 1 3 2.32 5.8 5.8 0 0 1 1.05 3.46v.04a5.55 5.55 0 0 1-2.57 4.76c-.8.53-1.7.9-2.7 1.1v.1c1.86.17 3.35.8 4.48 1.86a5.5 5.5 0 0 1 1.68 4.22v.03c0 1.47-.4 2.77-1.2 3.9a8.03 8.03 0 0 1-3.31 2.66c-1.41.63-3.05.95-4.91.95Zm23.21-.44v-21.06h-.09l-6.55 4.5v-4.15l6.62-4.66h4.49V186h-4.47Z" fill="#fff"/><circle cx="323.5" cy="208.5" r="2.5" fill="#089981"/><path d="m604.2 309.4 7-9.33a1 1 0 0 1 1.6 0l7 9.33a1 1 0 0 1-.8 1.6h-14a1 1 0 0 1-.8-1.6Z" fill="#D9D9D9"/><path opacity=".8" d="M322.38 276v-9.71h-.13l-2.87 2.08v-1.49l3-2.15h1.4V276h-1.4Zm6.86 0 5.22-9.9v-.12h-6.22v-1.25h7.65v1.3L330.7 276h-1.47Zm13.03.27a3.3 3.3 0 0 1-2.14-.72 4.55 4.55 0 0 1-1.36-2.04 9.3 9.3 0 0 1-.47-3.14v-.02c0-1.2.16-2.25.47-3.13.32-.88.78-1.56 1.36-2.04a3.3 3.3 0 0 1 2.14-.72c.84 0 1.55.24 2.15.72.59.48 1.04 1.16 1.36 2.04.33.88.49 1.92.49 3.13v.02c0 1.2-.16 2.25-.49 3.14a4.52 4.52 0 0 1-1.36 2.04c-.6.48-1.31.72-2.15.72Zm0-1.23c.55 0 1-.2 1.39-.57.38-.38.68-.92.88-1.62.2-.7.31-1.52.31-2.48v-.02c0-.96-.1-1.78-.31-2.48-.2-.7-.5-1.23-.88-1.6a1.88 1.88 0 0 0-1.39-.57c-.53 0-1 .19-1.38.57-.38.37-.67.9-.87 1.6-.2.7-.3 1.52-.3 2.48v.02c0 .96.1 1.78.3 2.48.2.7.5 1.24.87 1.62.39.38.85.57 1.38.57Zm7.47 1.04a1 1 0 0 1-.72-.3 1 1 0 0 1-.3-.72c0-.28.1-.52.3-.72a1 1 0 0 1 .72-.3c.28 0 .52.1.72.3.2.2.3.44.3.72a1 1 0 0 1-.3.72c-.2.2-.44.3-.72.3Zm7.8-.08v-9.71h-.13l-2.87 2.08v-1.49l3-2.15h1.4V276h-1.4Zm10.11 0v-9.71h-.12l-2.87 2.08v-1.49l3-2.15h1.4V276h-1.4ZM610.38 276v-9.71h-.13l-2.87 2.08v-1.49l3-2.15h1.4V276h-1.4Zm6.86 0 5.22-9.9v-.12h-6.22v-1.25h7.65v1.3l-5.17 9.97h-1.48Zm13.12.19c-.75 0-1.42-.13-1.99-.4a3.12 3.12 0 0 1-1.9-2.68v-.1h1.34l.01.08c.04.37.16.7.38.98s.52.5.89.66c.37.16.8.24 1.27.24.48 0 .9-.09 1.26-.26s.64-.4.83-.71c.2-.3.3-.66.3-1.06v-.01c0-.7-.22-1.22-.66-1.6a2.73 2.73 0 0 0-1.82-.56h-1.36v-1.18h1.3c.44 0 .82-.09 1.15-.25a1.84 1.84 0 0 0 1.06-1.7v-.02c0-.4-.08-.74-.24-1.01-.16-.28-.4-.49-.71-.63a2.6 2.6 0 0 0-1.13-.22c-.42 0-.8.07-1.14.22a1.93 1.93 0 0 0-1.16 1.62v.08h-1.36v-.08a3.22 3.22 0 0 1 1.84-2.68 4.12 4.12 0 0 1 1.82-.38c.7 0 1.32.12 1.84.37s.93.59 1.21 1.03c.3.43.44.93.44 1.5v.02a2.51 2.51 0 0 1-1.12 2.13c-.35.24-.75.41-1.2.51v.03c.8.07 1.44.35 1.94.84.5.48.74 1.13.74 1.93v.01c0 .63-.17 1.19-.5 1.68-.33.5-.78.89-1.36 1.18-.57.28-1.23.42-1.97.42Zm7.38-.11a1 1 0 0 1-.72-.3 1 1 0 0 1-.3-.72c0-.28.1-.52.3-.72a1 1 0 0 1 .72-.3c.28 0 .52.1.72.3.2.2.3.44.3.72a1 1 0 0 1-.3.72c-.2.2-.44.3-.72.3Zm7.6.19c-.5 0-1.01-.1-1.51-.3a3.7 3.7 0 0 1-1.35-.96 4.86 4.86 0 0 1-.98-1.75 8.68 8.68 0 0 1-.36-2.69v-.01c0-1.29.17-2.38.5-3.29.35-.9.84-1.6 1.48-2.08a3.75 3.75 0 0 1 2.32-.73c.62 0 1.19.12 1.69.35a3.39 3.39 0 0 1 1.95 2.42l.02.1h-1.41l-.03-.08a2.24 2.24 0 0 0-1.24-1.34c-.29-.13-.62-.2-1-.2-.67 0-1.22.2-1.64.61-.42.4-.73.93-.93 1.59a8.43 8.43 0 0 0-.37 2.37v.21l.34 1.88a2.7 2.7 0 0 0 1.24 2.3c.38.24.8.35 1.27.35s.89-.11 1.26-.34a2.6 2.6 0 0 0 1.25-2.27v-.01c0-.5-.11-.94-.32-1.33a2.43 2.43 0 0 0-2.17-1.25 2.44 2.44 0 0 0-2.53 2.54h-.46v-2.02h.27c.14-.31.34-.6.61-.86.28-.27.62-.48 1.01-.64.4-.17.85-.25 1.35-.25a3.57 3.57 0 0 1 3.17 1.84c.32.57.48 1.21.48 1.94v.01a3.73 3.73 0 0 1-3.9 3.88Zm9.97 0a3.3 3.3 0 0 1-2.14-.72 4.54 4.54 0 0 1-1.36-2.04 9.3 9.3 0 0 1-.48-3.14v-.02c0-1.2.16-2.25.48-3.13.32-.88.77-1.56 1.36-2.04a3.3 3.3 0 0 1 2.14-.72c.83 0 1.55.24 2.14.72.6.48 1.05 1.16 1.37 2.04.32.88.48 1.92.48 3.13v.02a9.2 9.2 0 0 1-.48 3.14 4.51 4.51 0 0 1-1.37 2.04c-.6.48-1.3.72-2.14.72Zm0-1.23c.54 0 1-.2 1.38-.57.39-.38.68-.92.88-1.62.21-.7.32-1.52.32-2.48v-.02c0-.96-.1-1.78-.31-2.48a3.6 3.6 0 0 0-.89-1.6 1.88 1.88 0 0 0-1.38-.57c-.54 0-1 .19-1.38.57-.38.37-.67.9-.88 1.6-.2.7-.3 1.52-.3 2.48v.02c0 .96.1 1.78.3 2.48.2.7.5 1.24.88 1.62.38.38.84.57 1.38.57ZM440.44 276v-11.27h3.87c1.1 0 2.06.22 2.85.67.8.44 1.41 1.08 1.83 1.92.42.84.63 1.85.63 3.03v.02c0 1.18-.2 2.2-.63 3.04a4.47 4.47 0 0 1-1.82 1.93c-.79.44-1.75.66-2.87.66h-3.86Zm1.4-1.27h2.37c.84 0 1.56-.17 2.15-.51.6-.35 1.05-.84 1.36-1.5.31-.64.47-1.43.47-2.34v-.01c0-.92-.16-1.7-.48-2.35a3.34 3.34 0 0 0-1.36-1.5c-.6-.35-1.3-.53-2.14-.53h-2.37v8.74Zm8.82 1.27 4.16-11.27h1.07v1.82h-.44l-3.31 9.45h-1.48Zm1.88-3.23.44-1.2h5.1l.43 1.2h-5.97Zm6.35 3.23-3.32-9.45v-1.82h.64l4.15 11.27h-1.47Zm5.42 0v-4.85l-4-6.42h1.6l3.04 5h.13l3.04-5h1.6l-4 6.42V276h-1.4Zm7.25-6.83.68-4.44h1.55l-1.22 4.44h-1.01Zm8.67 7.1a5.4 5.4 0 0 1-2.16-.4c-.6-.27-1.1-.64-1.45-1.11a3.15 3.15 0 0 1-.62-1.63v-.08h1.4v.08c.04.38.19.7.44.98.25.27.6.48 1.01.63a4.35 4.35 0 0 0 2.81-.01c.4-.17.72-.4.95-.7.23-.28.34-.62.34-1 0-.47-.17-.87-.51-1.19-.34-.32-.9-.57-1.68-.74l-1.25-.27a6.24 6.24 0 0 1-1.84-.68c-.48-.3-.83-.64-1.06-1.06a3 3 0 0 1-.34-1.43v-.01c.01-.63.18-1.18.51-1.66.34-.48.8-.85 1.4-1.12.6-.27 1.29-.4 2.06-.4.75 0 1.42.13 2 .4a3.5 3.5 0 0 1 1.37 1.07c.34.46.53.97.57 1.53v.1h-1.4l-.01-.1a1.75 1.75 0 0 0-.41-.88 2.22 2.22 0 0 0-.88-.61c-.36-.15-.79-.23-1.28-.22-.46 0-.89.07-1.26.22a2.1 2.1 0 0 0-.9.63c-.22.27-.33.6-.33 1 0 .3.08.57.22.81.15.24.38.44.69.61.32.17.73.32 1.24.43l1.25.28c.79.17 1.42.4 1.9.67.48.28.83.62 1.05 1.02.22.4.33.86.33 1.4v.01c0 .7-.17 1.31-.51 1.82-.35.51-.83.91-1.46 1.2a5.4 5.4 0 0 1-2.2.4Zm11.1-.27v-11.27h4.3c.72 0 1.35.14 1.89.42.54.27.96.66 1.25 1.16.3.5.45 1.1.45 1.77v.01c0 .79-.2 1.46-.6 2.04-.4.57-.96.97-1.67 1.19l2.61 4.68h-1.64l-2.42-4.46H492.72V276h-1.4Zm1.4-5.71h2.77c.73 0 1.28-.19 1.67-.56.4-.37.6-.9.6-1.59v-.01c0-.68-.2-1.2-.62-1.58a2.43 2.43 0 0 0-1.71-.57h-2.71v4.3Zm8.19 5.71 4.16-11.27h1.07v1.82h-.44L502.4 276h-1.48Zm1.88-3.23.44-1.2h5.1l.43 1.2h-5.97Zm6.35 3.23-3.32-9.45v-1.82h.64l4.15 11.27h-1.47Zm3.5 0v-11.27H514l6.46 9.26-.94-.49h.72v-8.77h1.4V276h-1.38l-6.46-9.23.94.49h-.72V276h-1.39Zm16.58.27c-.78 0-1.48-.14-2.12-.42a4.53 4.53 0 0 1-1.6-1.19 5.43 5.43 0 0 1-1.03-1.86 7.72 7.72 0 0 1-.36-2.43v-.02c0-1.19.21-2.22.64-3.1a4.83 4.83 0 0 1 1.78-2.06 4.93 4.93 0 0 1 2.7-.73c.83 0 1.57.15 2.22.45a4.2 4.2 0 0 1 2.48 3.1l.01.08h-1.42l-.02-.08a3.07 3.07 0 0 0-1.18-1.67 3.6 3.6 0 0 0-2.1-.58 3.35 3.35 0 0 0-3.22 2.16 6 6 0 0 0-.45 2.43v.02c0 .7.08 1.34.25 1.91.17.57.42 1.05.74 1.45a3.3 3.3 0 0 0 2.69 1.24c.67 0 1.26-.13 1.77-.4.5-.27.9-.65 1.18-1.13.28-.47.42-1.03.42-1.67v-.27h-3.16v-1.23h4.57v1.37a5 5 0 0 1-.34 1.9 4.15 4.15 0 0 1-2.49 2.4 5.6 5.6 0 0 1-1.96.33Zm7.33-.27v-11.27h6.98v1.26h-5.58v3.62h5.3v1.25h-5.3v3.87h5.58V276h-6.98Z" fill="#D1D4DC"/><rect opacity=".3" x="315" y="290" width="353" height="7" rx="3.5" fill="#B2B5BE"/><path fill="#22AB94" d="M371 290h241v7H371z"/></g></g><defs><linearGradient id="dhjydcsku" x1="273.5" y1="116" x2="273.5" y2="340" gradientUnits="userSpaceOnUse"><stop stop-color="#161616"/><stop offset="1"/></linearGradient><linearGradient id="ghjydcsku" x1="581" y1="0" x2="581" y2="340" gradientUnits="userSpaceOnUse"><stop/><stop offset="1" stop-color="#666" stop-opacity="0"/></linearGradient><linearGradient id="hhjydcsku" x1="581" y1="0" x2="581" y2="340" gradientUnits="userSpaceOnUse"><stop stop-color="#3F3F3F"/><stop offset="1" stop-color="#3F3F3F" stop-opacity="0"/></linearGradient><linearGradient id="lhjydcsku" x1="491.5" y1="134" x2="491.5" y2="340" gradientUnits="userSpaceOnUse"><stop/><stop offset="1"/></linearGradient><linearGradient id="mhjydcsku" x1="491.5" y1="134" x2="491.5" y2="297.5" gradientUnits="userSpaceOnUse"><stop stop-color="#474646"/><stop offset="1" stop-color="#3F3F3F" stop-opacity=".35"/></linearGradient><filter id="chjydcsku" x="-27.76" y="88.24" width="602.51" height="279.51" filterUnits="userSpaceOnUse" color-interpolation-filters="sRGB"><feFlood flood-opacity="0" result="BackgroundImageFix"/><feGaussianBlur in="BackgroundImageFix" stdDeviation="13.88"/><feComposite in2="SourceAlpha" operator="in" result="effect1_backgroundBlur_1680_77067"/><feBlend in="SourceGraphic" in2="effect1_backgroundBlur_1680_77067" result="shape"/></filter><filter id="ehjydcsku" x="-27.76" y="-27.76" width="602.51" height="168.51" filterUnits="userSpaceOnUse" color-interpolation-filters="sRGB"><feFlood flood-opacity="0" result="BackgroundImageFix"/><feGaussianBlur in="BackgroundImageFix" stdDeviation="13.88"/><feComposite in2="SourceAlpha" operator="in" result="effect1_backgroundBlur_1680_77067"/><feBlend in="SourceGraphic" in2="effect1_backgroundBlur_1680_77067" result="shape"/></filter><filter id="fhjydcsku" x="522.25" y="-27.76" width="117.51" height="395.51" filterUnits="userSpaceOnUse" color-interpolation-filters="sRGB"><feFlood flood-opacity="0" result="BackgroundImageFix"/><feGaussianBlur in="BackgroundImageFix" stdDeviation="13.88"/><feComposite in2="SourceAlpha" operator="in" result="effect1_backgroundBlur_1680_77067"/><feBlend in="SourceGraphic" in2="effect1_backgroundBlur_1680_77067" result="shape"/></filter><filter id="ihjydcsku" x="527.25" y="-22.76" width="107.51" height="108.51" filterUnits="userSpaceOnUse" color-interpolation-filters="sRGB"><feFlood flood-opacity="0" result="BackgroundImageFix"/><feGaussianBlur in="BackgroundImageFix" stdDeviation="13.88"/><feComposite in2="SourceAlpha" operator="in" result="effect1_backgroundBlur_1680_77067"/><feBlend in="SourceGraphic" in2="effect1_backgroundBlur_1680_77067" result="shape"/></filter><filter id="khjydcsku" x="279" y="125" width="425" height="246" filterUnits="userSpaceOnUse" color-interpolation-filters="sRGB"><feFlood flood-opacity="0" result="BackgroundImageFix"/><feColorMatrix in="SourceAlpha" values="0 0 0 0 0 0 0 0 0 0 0 0 0 0 0 0 0 0 127 0" result="hardAlpha"/><feOffset dy="11"/><feGaussianBlur stdDeviation="10"/><feComposite in2="hardAlpha" operator="out"/><feColorMatrix values="0 0 0 0 0 0 0 0 0 0 0 0 0 0 0 0 0 0 0.75 0"/><feBlend in2="BackgroundImageFix" result="effect1_dropShadow_1680_77067"/><feBlend in="SourceGraphic" in2="effect1_dropShadow_1680_77067" result="shape"/></filter><clipPath id="ahjydcsku"><path fill="#fff" d="M0 0h684v340H0z"/></clipPath><clipPath id="bhjydcsku"><path fill="#fff" d="M0 0h684v340H0z"/></clipPath><clipPath id="jhjydcsku"><path fill="#fff" transform="translate(552 124)" d="M0 0h58v58H0z"/></clipPath></defs></svg>