<svg xmlns="http://www.w3.org/2000/svg" width="200" height="60" viewBox="0 0 200 60"><path fill="#fff" d="M73.79 18q.24.02.38.21a13.6 13.6 0 0 1 2.6 7.9C76.76 35.43 66.74 43 54.38 43S32 35.43 32 26.1c0-2.84.94-5.53 2.58-7.89q.07-.1.18-.15a.5.5 0 0 1 .41-.02.5.5 0 0 1 .25.28q.02.09 0 .19v.02q-.07.45-.07.9c0 6.25 7.86 10.66 19.04 10.66 11.16 0 19.02-4.41 19.02-10.66q0-.5-.07-1c0-.24.2-.43.45-.43m33.44 3.6q.84 0 1.61-.23l-2.49 16.79c-.24 1.64-1.02 2.2-2.41 2.2h-1.45c-1.2 0-1.85-.66-2.22-2.18l-2.14-8.44c-.05-.23-.05-.28-.16-.28s-.13.05-.19.28l-2.1 8.44c-.38 1.52-1.02 2.19-2.23 2.19H92c-1.4 0-2.17-.57-2.42-2.21l-2.5-16.87c.62.23 1.3.3 2 .3q.92 0 1.77-.27l1.9 15.4c.03.24.03.4.14.4.1 0 .1-.16.15-.4l2.3-8.98c.17-.63.54-1.19 1.7-1.19h1.84c1.16 0 1.54.56 1.7 1.19l2.31 8.98c.05.24.05.4.16.4s.11-.16.14-.4l1.92-15.43c.66.26 1.38.3 2.13.3m10.02 3.64c4.09 0 6.32 2.74 6.32 6.64v1.28q.01.63-.53.63h-8.76v.1c0 1.52.74 3.5 3.3 3.5 1.93 0 3.86-.2 4.98-.31h.08c.26 0 .48.16.48.43v1.72c0 .42-.08.6-.56.68-1.72.31-2.87.46-5.25.46-2.66 0-6.43-1.42-6.43-6.56v-1.94c0-4.07 2.31-6.63 6.37-6.63m0 2.98c-1.64 0-2.97 1.15-2.97 3.2v.11h5.76v-.1c0-2.04-1.14-3.21-2.79-3.21m12.67-7.59v4.6a25 25 0 0 1 2.58-.23c4.21 0 6.26 2.53 6.26 6.66v2.04c0 4.15-2.04 6.67-6.26 6.67a21 21 0 0 1-5.27-.7c-.6-.15-.71-.3-.71-.7V20.72q.75.23 1.6.24.94 0 1.8-.34m2.58 7.24c-.63 0-1.85.08-2.58.18v9.27a16 16 0 0 0 2.58.18c2.25 0 2.86-1.62 2.86-3.79v-2.05c0-2.17-.61-3.8-2.86-3.8m10.92-1.62c.54 0 .96-.08 1.46-.23v7.91c0 2.77 1.1 3.4 2.64 3.4h.16c1.54 0 2.64-.63 2.64-3.4v-7.97c0 .18.67.29 1.66.29a6 6 0 0 0 1.74-.36v8.04c0 5.8-4.48 6.44-6.04 6.44h-.24c-1.63-.03-5.96-.74-5.96-6.44V25.9q.91.35 1.94.36m17.1-5.62V39.8c0 .3-.2.57-.49.57h-2.4c-.28 0-.51-.26-.51-.57V20.64c1.1.38 2.3.38 3.4 0m5.9.33q.83 0 1.58-.24V39.8c0 .3-.2.57-.49.57h-2.4c-.28 0-.51-.26-.51-.57V20.63a5 5 0 0 0 1.82.33"/></svg>