<svg width="160" height="160" viewBox="0 0 160 160" xmlns="http://www.w3.org/2000/svg"><rect width="160" height="160" rx="8" fill="#F0F3FA"/><path d="M129.52 45.71c.42 0 .78.23.98.56a37.46 37.46 0 0 1 6.64 21.1c0 24.9-25.58 45.09-57.14 45.09-31.56 0-57.14-20.2-57.14-45.1a37.6 37.6 0 0 1 6.6-21.07 1.2 1.2 0 0 1 1.02-.58 1.15 1.15 0 0 1 1.12 1.36l-.02.06c-.1.8-.15 1.6-.15 2.42C31.43 66.21 51.48 78 80 78s48.57-11.78 48.57-28.44a19.14 19.14 0 0 0-.19-2.69c0-.63.51-1.15 1.14-1.15Z" fill="#003EFC"/></svg>