<svg xmlns="http://www.w3.org/2000/svg" width="132" height="60" viewBox="0 0 132 60"><path fill="#fff" d="M44.41 20q.2 0 .32.18a11.6 11.6 0 0 1 2.13 6.63c0 7.83-8.24 14.19-18.42 14.19S10 34.64 10 26.8c0-2.38.77-4.64 2.13-6.62a.4.4 0 0 1 .48-.15.4.4 0 0 1 .2.24q.03.07.01.16v.01q-.06.39-.06.76c0 5.25 6.47 8.96 15.68 8.96 9.19 0 15.66-3.71 15.66-8.96q0-.42-.06-.84c0-.2.17-.36.37-.36m27.55 3.02q.69 0 1.32-.18l-2.05 14.1c-.2 1.37-.84 1.85-1.99 1.85h-1.19c-1 0-1.52-.56-1.83-1.84l-1.76-7.09c-.04-.19-.04-.23-.13-.23s-.11.04-.16.23l-1.73 7.1c-.31 1.27-.84 1.83-1.83 1.83h-1.2c-1.15 0-1.79-.48-1.99-1.86l-2.06-14.17q.77.28 1.65.26.76 0 1.45-.23l1.57 12.94c.02.2.02.33.11.33.1 0 .1-.13.13-.33l1.9-7.55c.13-.53.44-1 1.39-1h1.52c.95 0 1.26.47 1.39 1l1.91 7.55c.04.2.04.33.13.33.1 0 .1-.13.12-.33l1.58-12.97c.54.22 1.13.26 1.75.26m8.25 3.06c3.36 0 5.2 2.3 5.2 5.58v1.08q.01.52-.44.52h-7.21v.1c0 1.26.61 2.93 2.71 2.93 1.6 0 3.19-.17 4.1-.26h.07c.22 0 .4.13.4.36v1.44c0 .36-.06.51-.46.58a20 20 0 0 1-4.33.38c-2.18 0-5.29-1.19-5.29-5.51v-1.62c0-3.43 1.9-5.58 5.25-5.58m0 2.5c-1.36 0-2.45.97-2.45 2.7v.09h4.74v-.1c0-1.7-.94-2.69-2.3-2.69m10.43-6.37v3.87a18 18 0 0 1 2.12-.2c3.47 0 5.16 2.12 5.16 5.6v1.71c0 3.48-1.68 5.6-5.16 5.6-1.38 0-3-.22-4.34-.58-.49-.13-.58-.27-.58-.6V22.29q.62.2 1.31.2c.54 0 1-.1 1.49-.28m2.12 6.08c-.52 0-1.52.07-2.12.15v7.79c.4.08 1.34.15 2.12.15 1.86 0 2.36-1.36 2.36-3.18v-1.72c0-1.83-.5-3.19-2.36-3.19m9-1.36c.44 0 .8-.07 1.2-.2v6.65c0 2.33.9 2.86 2.17 2.86h.14c1.26 0 2.17-.53 2.17-2.86v-6.7c0 .16.55.25 1.37.25.5 0 .98-.14 1.43-.3v6.75c0 4.87-3.69 5.4-4.97 5.4h-.2c-1.35-.01-4.91-.62-4.91-5.4v-6.75q.76.3 1.6.3m14.08-4.72v16.1c0 .25-.17.48-.4.48h-1.97c-.24 0-.43-.22-.43-.48v-16.1c.9.33 1.9.33 2.8 0m4.86.28q.69 0 1.3-.2V38.3c0 .25-.17.48-.4.48h-1.97c-.24 0-.43-.22-.43-.48V22.2q.7.28 1.5.28"/></svg>