<svg xmlns="http://www.w3.org/2000/svg" width="200" height="80" viewBox="0 0 200 80"><path fill="#005C15" d="M42.6 54.64q-9.28.04-18.57-.14c.03-.07 3.23-5.7 7.14-12.51l7.08-12.4h8.84l7.12 12.44q3.61 6.23 7.06 12.55c-.03.06-8.42.1-18.66.06"/><path fill="#0AA02C" d="M165.04 54.96a24 24 0 0 1-3.17-.65l-1.03-.31.07-.51c.04-.29.15-1.16.23-1.95.1-.79.18-1.46.2-1.47.03-.03.59.14 1.22.4 4.45 1.72 8.54.76 8.88-2.12a4 4 0 0 0-.55-2.5c-.43-.6-1.93-1.54-3.68-2.3-4-1.7-5.5-2.93-6.23-5.04-.24-.7-.28-1.12-.24-2.5.04-1.58.07-1.7.57-2.72q1.38-2.81 5.07-3.81c1.76-.47 5.28-.29 7.48.38l.19.05q.34.09.48.21c.19.2.13.6 0 1.77l-.06.53c-.16 1.26-.22 1.46-.42 1.37-2.65-1.11-5.52-1.29-7.23-.43-1.14.6-1.57 1.27-1.57 2.51 0 1.73.8 2.48 4.43 4.07 4.2 1.83 5.82 3.49 6.23 6.37.58 3.9-1.78 7.25-5.87 8.39-.74.2-4.14.38-5 .26m-39.46-.2c-3.85-.5-6.87-2.09-8.78-4.62a16 16 0 0 1-2.11-4.39 20 20 0 0 1-.17-6.23 12.1 12.1 0 0 1 7.7-9.22c2.05-.74 3.19-.9 6-.82a14 14 0 0 1 3.62.38 7 7 0 0 1 1.28.45c.12.12-.1 3.8-.25 3.94-.03.03-.44-.11-.93-.32a10 10 0 0 0-4.7-.75 8 8 0 0 0-5.86 2.33 8 8 0 0 0-1.87 3.09 12.5 12.5 0 0 0-.29 5.7 8.6 8.6 0 0 0 3.54 5.34c2.28 1.49 6.02 1.8 9.26.76q.56-.21 1.13-.3c.03.03.1.91.15 1.99l.08 1.94-.76.22c-1.79.5-5.13.76-7.04.5zm-57.2-3.96v3.81h17.45V50.9l-6.33-.03-6.3-.04L74.55 49c.74-1.01 3.52-4.93 6.16-8.72l4.83-6.87v-3.83H68.67v3.86l5.94.03 5.96.05-.86 1.14a552 552 0 0 0-8.33 11.8zm20 3.72c.01-.07 2.27-5.69 5.02-12.48l5-12.39 2.32-.04c1.27-.02 2.37.01 2.44.09.05.06 2.38 5.6 5.14 12.33l2.93 7.05v.01l2.21 5.36c.06.13-.47.16-2.38.16h-2.47l-1.19-3-1.18-3-5.45.03-5.47.04-1.16 2.93-1.16 2.94-2.3.03a13 13 0 0 1-2.3-.06M103.75 42q-1.5-3.8-2.74-7.68l-.23-.91-.67 1.92c-.35 1.05-1.31 3.7-2.12 5.88l-1.48 3.97h8.42zm33.84-12.42v25.03h4.4V42.57l1.09 1.42c1.39 1.8 1.97 2.5 5.82 6.95l3.21 3.67h6.1l-.43-.45-5.44-5.98a867 867 0 0 0-5.62-6.16l-.65-.67 5.43-5.7a266 266 0 0 1 5.63-5.84l.04-.1c0-.07-1.2-.13-2.8-.13h-2.81l-2.64 2.98c-1.44 1.63-3.6 4.07-4.77 5.43l-2.16 2.46V29.58z"/><path fill="#0FA622" d="M24.03 54.5c.03-.07 3.23-5.7 7.14-12.51l7.08-12.4h8.84l1.47 2.6 2.32 4.04c2.93 5.1 10.31 18.06 10.37 18.2s-3.52.2-18.6.2q-9.32.05-18.62-.13m5.74-.14q.71 0 1.4-.22c.06-.05-.01-.19-.17-.31q-.28-.24-.05-.19c.11.02.37-.05.55-.15.3-.17.32-.16.26.04q-.09.24.05.14c.09-.04.13-.27.1-.5q-.05-.4.14-.48c.16-.06.17-.12.03-.28-.12-.17-.09-.2.31-.15q.45.05.29-.06c-.17-.1-.16-.19.03-.53.11-.22.2-.33.23-.22q0 .14.15.16c.08 0 .13-.1.08-.21q-.06-.2.05-.3.13-.06.15.1t.12-.1a.7.7 0 0 0-.02-.53q-.13-.24.05-.22c.08.03.2-.12.28-.34.06-.23.04-.4-.03-.4-.05 0-.1-.1-.04-.22q.1-.16.2-.12.13.05.14-.16.02-.2.14-.14c.07.04.15-.02.15-.15 0-.19-.1-.17-.6.13a382 382 0 0 1-7.3 4.15q-1.09.58-2.12 1.24c-.1.15 3.42.16 5.43.02m11.27-.28c.64-.44 1.14-1.06 3.56-4.55q3.37-4.89 6.16-10.13l.62-1.28a.5.5 0 0 0 0-.48c-.1-.2-.15-.16-.36.24l-.51.97c-.16.26-.23.55-.2.63q.09.14-.03.07c-.09-.06-.43.36-.76.93-.57.96-2.12 3.15-4.1 5.84-1.54 2.11-6.4 7.87-6.61 7.87-.16 0 .04-.25 1.22-1.57.7-.8 1.37-1.6 1.52-1.84.13-.2.46-.61.74-.9q.38-.39.72-.82c.11-.15.53-.65.92-1.1.74-.88 1.34-1.7.7-1-1.3 1.44-1.62 1.83-2.47 2.72-.49.56-1.71 1.82-2.67 2.82l-1.77 1.83.55.04c1.61.16 2.1.12 2.76-.3m11.15-.23c.32-.36.6-.75.6-.87 0-.1.11-.29.26-.38.22-.2.22-.2.03.1q-.3.35.02.09c.13-.12.21-.28.17-.37-.03-.1.2-.55.5-1 .3-.48.52-.93.5-.98-.05-.07-.18-.01-.29.13q-.22.29-.17.04.03-.19-.2-.2c-.14 0-.26-.03-.26-.1q-.01-.12-.15-.13-.11.02-.06.14.07.15-.06.15c-.1 0-.12.1-.06.19q.13.21-.1 0c-.23-.23-.47-.25-.33-.03q.1.15-.19.07a1 1 0 0 0-.63.08c-.19.1-.38.16-.45.15q-.37.12-.69.34c-.32.21-.78.39-1.02.4q-.43.02-.92.51c-.27.27-.5.48-.53.44q-.93.5-1.68 1.24c-.17.19-.48.34-.66.34-1 .08 1.13.23 3.3.26l2.49.03zm8.82.52c0-.05-.35-.7-.79-1.44l-.8-1.33-.42.5q-.41.51-.65.41c-.13-.04-.2-.03-.13.03.09.13-.42.79-.62.79s-.8.69-.72.83c.05.09.38.18.73.21 1.2.1 3.4.1 3.4 0m-25.24-.11q0-.06-.07-.07a.1.1 0 0 0-.07.07q0 .08.07.08t.07-.08m.24-.24q-.07-.17-.08.08t.07.2c.04-.05.06-.19.01-.3zm20.71.23c-.05-.05-.17-.06-.28-.02q-.15.09.1.1c.15 0 .24-.04.18-.08m.75-1.13q0-.08-.07-.08t-.07.08q0 .05.07.06t.07-.06m-11.87-1.8q5.11-3 9.85-6.54c.03 0-.32-.69-.76-1.5-1.56-2.78-2.9-4.94-2.7-4.37.04.14 0 .44-.1.7-.1.34-.2.43-.44.36-.29-.07-.29-.06-.05.13.26.19.25.19-.03.29-.17.03-.3.19-.3.32s-.06.35-.15.46q-.19.3-.07-.03.09-.25-.14-.16-.4.14.01.48c.12.1.21.25.2.34q0 .17-.07-.01-.07-.15-.43.19c-.27.28-.3.4-.19.62.1.2.09.27-.08.33q-.19.08-.11-.13.08-.2-.15-.11t-.16.34-.14.34q-.23.1-.14-.1c.04-.1-.02-.02-.14.15l-.58.7c-.29.34-.3.42-.14.53.2.1.32.53.16.53-.02 0-.19.03-.33.08-.24.09-.24.09.02-.11q.26-.2.12-.3c-.08-.06-.25.06-.38.25-.3.46-.28.55.04.46.25-.06.26-.03.12.2q-.16.24-.21.13c-.03-.07-.16-.14-.29-.14q-.3-.01-.03.14.23.15.03.14-.16.02-.08.17t-.04.08c-.1-.06-.27.04-.41.21q-.24.27-.1.2.17-.07.18.06c0 .09.09.12.18.06q.16-.09.06.03c-.07.06-.19.14-.26.14l-.2.04c-.06 0-.02.11.08.23.14.17.14.26 0 .43-.1.12-.11.29-.06.37q.09.16-.05.07c-.1-.05-.34.01-.53.15-.28.19-.33.27-.2.42q.18.2.01.2c-.08 0-.12.14-.1.29q.08.3-.22.29c-.21 0-.26.06-.21.37q.09.39-.13.29-.2-.06-.17.08 0 .17-.15.2c-.1.02-.22.03-.26.05-.06 0-.01.11.1.24.15.2.13.2-.1.17q-.28-.06-.27.29c0 .35-.58.78-.84.64q-.1-.08-.03.07c.15.25.13.25 1.56-.56m-.98.04c-.03-.05-.15 0-.25.1q-.21.2.1.07.21-.1.15-.17m5.61-.1q0-.07-.08-.07l-.06.06q0 .08.06.08.08 0 .08-.08zm2.7-1q-.01-.08-.08-.08-.06 0-.07.07 0 .06.07.07.06 0 .07-.07m1.55 0q0-.08-.07-.08-.06 0-.07.07 0 .06.07.07.07 0 .07-.07M34.2 50.1q0-.07-.07-.07l-.05.02-.02.05q0 .06.07.07.07 0 .07-.07m19.53-.17q-.09-.06-.1.1.01.16.1.1a.2.2 0 0 0 0-.2m-19.38-.12q0-.06-.08-.06a.1.1 0 0 0-.07.06q0 .08.07.08t.08-.08m.06-.5c.05-.06.06-.14.02-.14-.05 0-.11.08-.16.14q-.07.14-.01.15.08 0 .15-.15m11.63-.14q.07-.12.02-.14-.08.02-.16.14-.07.14-.01.14.08 0 .15-.14m-10.99-.93q0-.03-.02-.05l-.05-.02q-.06 0-.07.07 0 .08.07.08.06 0 .07-.08m12-.6c-.1-.1-.37.1-.37.27q.02.14.2-.03.21-.17.17-.24m-.13-.29a.2.2 0 0 0-.2 0q-.05.1.1.1t.1-.1m-18.1-.54q0-.07-.08-.07a.1.1 0 0 0-.07.07q0 .07.07.07t.08-.07m2.12-.58a.1.1 0 0 0-.07-.07q-.07 0-.07.08 0 .06.07.07.06 0 .07-.07m-1.7-.13q0-.08-.07-.08t-.08.08q0 .06.08.06.06 0 .06-.06m.14-.3a.1.1 0 0 0-.07-.06q-.08 0-.08.07t.08.07.07-.07m.32-.37c.06-.23.05-.25-.12-.11q-.16.17-.12.29c.12.19.16.16.24-.18m21.95-5.77q0-.07-.08-.07-.03 0-.05.02l-.01.05q0 .07.06.07.08 0 .08-.07m-5.06-7.1q-.02-.11.12-.12.11 0 .06-.15-.06-.13.1-.14c.18 0 .53-.35.67-.65.04-.07.13-.12.19-.1s0-.16-.12-.41l-.23-.43-.55 1.12c-.3.61-.7 1.34-.85 1.61-.3.48-.3.48.16-.07.26-.31.47-.61.45-.67"/><path fill="#1DCD3E" d="M34.21 54.11q0-.05.07-.06t.07.06-.07.08-.07-.08m26.81 0q0-.05.07-.06t.07.06-.07.08-.08-.08zm-.44-.72q0-.05.08-.06.06 0 .07.07 0 .07-.07.07t-.08-.07m-35.87-.13q0-.08.07-.08.06 0 .07.08 0 .06-.07.07-.07 0-.07-.07m35.74-.15q0-.07.07-.07.06 0 .06.08 0 .05-.06.06-.08 0-.08-.06zM25 52.68q0-.05.08-.06.05 0 .06.06 0 .08-.06.08-.08 0-.08-.08m35.18 0q0-.05.06-.06.08 0 .08.06 0 .08-.08.08-.06 0-.06-.08m-24.97-.14q0-.06.08-.07.06 0 .06.07t-.06.08-.08-.08m24.82-.14q0-.07.07-.07t.08.07-.08.07q-.06 0-.07-.07m-34.74-.15q0-.07.07-.07.06 0 .07.07 0 .08-.07.08t-.07-.08m34.6-.13q0-.08.07-.08t.07.08q0 .06-.07.06l-.06-.04zm-34.46-.15q0-.06.06-.07.08 0 .08.07t-.08.07l-.04-.02zm34.17-.28q0-.08.08-.08.06 0 .07.08 0 .05-.07.06t-.08-.06m-.14-.3q0-.05.08-.06.06 0 .06.07t-.06.07-.08-.07m-33.6-.14q0-.06.06-.06.08 0 .08.06 0 .08-.08.08-.06 0-.06-.08m.14-.28q0-.07.07-.07t.07.07-.07.07-.07-.07m.28-.43q0-.07.07-.07t.07.07-.07.07-.07-.07m32.62-.14q0-.08.07-.08.06 0 .06.08t-.06.07a.1.1 0 0 1-.07-.07m-32.48-.15q0-.06.07-.07.06 0 .07.07 0 .06-.07.07-.06 0-.07-.07m12.3-.17c-.03-.06.09-.26.26-.44q.63-.55.08.2-.26.32-.35.24m-6.62-.4q0-.06.07-.07.05 0 .06.07t-.06.08-.08-.08zm26.36 0q.01-.06.08-.07.07 0 .07.07t-.07.08-.07-.08m-31.61-.15q0-.05.06-.06.08 0 .08.06 0 .08-.08.08-.06 0-.06-.08m5.81-.17q.75-.49 1.28-1.2c0-.11.5-.73 1.1-1.35.1-.12.14-.28.1-.36q-.1-.16.04-.07.18.08.32-.27c.06-.2.19-.33.28-.3.07.05.15.02.15-.05 0-.29.03-.37.26-.55q.46-.36.44.05-.01.2-.14.13c-.07-.04-.15.02-.15.14q.01.23.2.14.11-.06-.22.28c-.22.21-.4.5-.4.64q-.02.25-.21.36-.19.08-.2.2c.05.22-.18.6-.33.51-.06-.04-.17.05-.2.2s-.38.45-.73.67c-.37.19-.95.52-1.3.73-.36.19-.49.25-.29.11m25.6.1q.06-.12.16-.14.04.02-.02.15t-.16.14q-.04-.01.02-.14zm-31.27-.2q0-.08.07-.08t.07.08q0 .05-.07.06-.03 0-.05-.02zm11-.08q.06-.12.14-.14.05.02.06.14-.02.15-.15.14-.12 0-.06-.14m1.48-.21c0-.12.1-.22.21-.22.2 0 .58-.65.53-.89-.02-.06.06-.11.15-.11s.31-.23.5-.5c.17-.27.25-.5.19-.5q-.14.02-.2.2c-.03.07-.12.12-.18.06s.13-.25.41-.43c.29-.2.52-.42.52-.5 0-.1.06-.2.14-.2q.12 0 .1-.16 0-.16.12-.19c.2 0 .63-.44.63-.64q0-.15.14-.07c.07.04.23-.11.35-.34.25-.48.29-.8.08-.67-.1.06-.12.17-.08.23q.08.13-.04.14c-.25 0-.3-.2-.1-.39.13-.12.17-.27.13-.36q-.07-.14.03-.09c.07.05.22 0 .33-.14.2-.2.18-.21-.06-.13-.2.07-.1-.05.19-.32.27-.23.53-.44.59-.44q.1-.01.19-.19c.04-.1-.9.46-2.1 1.27a95 95 0 0 1-5.47 3.49c-.26.14-.25.1.12-.2.23-.22.45-.48.45-.6q.01-.16.13-.18c.07 0 .19-.14.23-.3s.15-.25.22-.2q.12.07.12-.04v-.27q.55-.95 1.45-1.56c.17-.05.25-.19.2-.28a.23.23 0 0 1 .15-.28.3.3 0 0 0 .19-.27c0-.26.85-1.15.87-.91q.01.12.16-.15c.08-.19.2-.32.28-.32.06 0 .12-.1.12-.22q0-.2.14-.22c.06 0 .46-.31.85-.72.4-.38.8-.7.86-.7q.11-.02.12-.22c0-.11.08-.22.17-.22q.1-.01.05-.14-.07-.13.16-.04t.16-.06c-.06-.1.08-.32.32-.52.23-.19.43-.43.43-.5s.15-.19.35-.23.35-.19.35-.3.06-.2.13-.2c.05 0 .36-.24.64-.51.3-.27.6-.46.68-.42q.14.08.06-.05c-.06-.1.14-.32.51-.54.73-.46 1.71-1.6 1.62-1.86q-.06-.19.05-.2.14.02.14.2c0 .14.1.26.2.31s.25.23.29.42c.05.2.15.35.23.35q.14.01.08.12c-.05.07.04.25.19.4.15.18.23.35.19.4-.06.04-.01.09.07.09.1 0 .19.2.24.42q.1.4.26.35c.27-.13-.76.8-1.73 1.58-.48.4-1.3 1.28-1.83 1.95A133 133 0 0 1 44 44.31c-.06.05-.6.67-1.21 1.37q-.8.95-1.64 1.86c-.31.31-.56.61-.56.67s-.1.12-.21.12-.21.08-.21.19-.16.3-.36.43c-.3.2-.35.22-.35.02M44 42.8l-.02-.04-.05-.02q-.08 0-.08.06 0 .08.08.08.06 0 .07-.08m3.33-6.94c.04-.06.05-.14.02-.14-.05 0-.12.08-.17.14q-.06.15 0 .15t.15-.15m10.64 13.17c-.05-.07-.02-.15.05-.15.09 0 .16.08.16.15q0 .14-.06.14-.08-.01-.15-.14m-30.52-.39c0-.1.06-.2.14-.2q.13 0 .06-.07c-.05-.05.03-.22.19-.38.15-.16.23-.35.19-.42q-.05-.1.08-.12.14-.02.09-.11-.05-.12.1-.13c.3 0 2.85-1.52 3.29-1.98q1.35-1.44 2.6-2.98c.16-.23.3-.36.3-.3 0 .04.14-.08.33-.29.17-.22.43-.5.55-.64s.2-.3.16-.33q-.02-.08.22-.17c.18-.05.3-.2.3-.29 0-.11.13-.27.28-.35.17-.1.29-.31.29-.48q-.01-.37.14-.1t.15-.1c0-.19.06-.33.14-.33q.13-.02.14-.23t.2-.16q.2.09.3-.17c.03-.14.25-.41.46-.61q1.17-1.07 1.16-1.54c0-.08.14-.15.28-.15a.4.4 0 0 0 .36-.3q.1-.3.3-.21.18.07.13-.06c-.05-.08.07-.2.24-.3.19-.1.47-.33.66-.5.2-.2.46-.35.61-.35q.26-.01.2-.13c-.05-.06.05-.17.18-.23a.6.6 0 0 0 .38-.34q.08-.25.4-.24.27 0 .28-.16c-.03-.1.09-.22.24-.26.16-.05.28-.14.28-.2s.2-.2.44-.28c.25-.1.48-.3.51-.45s.15-.24.23-.19q.14.09.07-.21-.1-.31.19-.38c.13-.06.27-.16.27-.24q-.02-.12-.23-.06-.19.07-.13-.06c.04-.1.19-.14.29-.14q.18-.02.12-.21c-.1-.23.16-.31.29-.1.09.13-.25 1.04-.9 2.5q-.26.52-.37 1.06.07.06.07-.1c0-.11.1-.15.22-.09.12.04.37-.1.57-.32l.38-.38-.4.64c-2.13 3.5-6.02 7.02-11.51 10.39-1.15.7-2.36 1.49-2.72 1.73-.35.26-1.05.76-1.57 1.1-.51.34-1.22.91-1.57 1.25-.36.37-.65.57-.65.45M39.6 36.38q0-.08-.07-.08t-.07.08.07.07.07-.07m1.27-1a.1.1 0 0 0-.06-.07q-.08 0-.08.06 0 .08.08.08.06 0 .06-.08m3.55-1.15q0-.06-.07-.07a.1.1 0 0 0-.07.07q0 .06.07.07.07 0 .07-.07m1-2.86q0-.06-.08-.07a.1.1 0 0 0-.07.07q0 .06.07.07.07 0 .07-.07m-7.33 17.28a.2.2 0 0 1 .19 0q.05.1-.1.1t-.1-.1"/><path fill="#1DCD3E" d="M39.65 48.5a.2.2 0 0 1 .19 0q.05.1-.1.1t-.1-.1m18-.14a.2.2 0 0 1 .2 0q.05.1-.1.1t-.1-.1m-17.9-.11q0-.07.06-.07.07 0 .07.07t-.07.08-.07-.08m-1.28-.14q0-.07.06-.07.08 0 .08.06 0 .08-.08.08-.06 0-.06-.08zm19-.07q0-.16.1-.1.06.1 0 .2-.1.05-.1-.1m-14.05-.08q0-.06.08-.07.06 0 .07.07 0 .08-.07.08t-.08-.08m13.66-.6a.2.2 0 0 1 .2 0q.06.1-.1.1-.15 0-.09-.1m-21.02-.11q0-.06.06-.07.07 0 .07.07t-.06.07a.1.1 0 0 1-.07-.07m8.3-.38c.15-.2.3-.35.33-.32.05.04-.09.21-.26.38l-.33.32zm-15.96-.05q0-.07.06-.07.08 0 .08.07t-.08.07q-.05 0-.06-.07m28.36-.15q0-.05.07-.06t.07.06-.07.08-.07-.08m-28.22-.14q0-.06.07-.07.06 0 .07.07 0 .08-.07.08-.06 0-.07-.08m27.79-.57q0-.07.08-.07.05 0 .06.07 0 .06-.06.07-.08 0-.08-.07m-11.49-.14q0-.07.08-.07.06 0 .07.07 0 .07-.07.07t-.08-.07m1.14-.86q0-.07.07-.07t.07.07-.07.07q-.03 0-.05-.02zm9.79 0q0-.07.07-.07t.07.07-.07.07q-.03 0-.05-.02zm-19.24-.24q-.08-.15.06-.06c.17.1.23.23.12.23q-.07-.01-.18-.17m19.1-.04q0-.08.06-.08.08 0 .08.08 0 .06-.08.06-.03 0-.04-.02zm-25.96-.15q0-.07.07-.07t.08.07-.08.07a.1.1 0 0 1-.07-.07m25.53-.57q0-.06.07-.07.07 0 .07.07 0 .06-.07.07-.07 0-.07-.07m-25.1-.15q0-.06.07-.06.06 0 .07.06 0 .08-.07.08-.06 0-.07-.08m9.07-.42q0-.08.08-.08.05 0 .06.08t-.06.07-.08-.07m15.6-.14q0-.08.08-.08.05 0 .06.08 0 .05-.06.06-.08 0-.08-.06m-.13-.3q0-.06.06-.06.07 0 .07.07 0 .06-.07.07l-.04-.02zm-23.98-.14q0-.05.08-.06.06 0 .06.06 0 .08-.06.08-.08 0-.08-.08m.14-.28q0-.06.08-.07.07 0 .07.07 0 .06-.07.07-.08 0-.08-.07m23.4-.3q.01-.05.07-.06.08 0 .08.07t-.08.07q-.05 0-.06-.07m-23.1-.14q0-.06.07-.07.06 0 .07.07 0 .06-.07.07-.03 0-.05-.02zm22.98-.14q0-.08.06-.08.08 0 .08.08t-.08.07l-.05-.02zm-22.84-.14q0-.08.07-.08t.08.08q0 .05-.08.06-.03 0-.05-.02zm9.08 0q0-.08.07-.08t.07.08q0 .05-.07.06-.03 0-.05-.02zm13.48-.3q0-.06.07-.07.05 0 .06.08 0 .06-.06.06-.08 0-.08-.06m-22.13-.41q0-.08.07-.08t.07.07-.07.07q-.06 0-.07-.07m.14-.3q0-.06.07-.07.07 0 .07.07t-.07.07-.07-.07m.42-.71q0-.08.08-.08.06 0 .07.08 0 .06-.07.06t-.08-.06m.16-.3q0-.05.06-.06.07 0 .07.07t-.07.08-.07-.08m3.95-.13q0-.07.08-.07.06 0 .07.07 0 .07-.07.07t-.08-.07m-3.68-.3q0-.05.07-.06t.07.07q0 .07-.07.07-.06 0-.07-.07m.29-.57q0-.06.06-.07.08 0 .08.08t-.08.07l-.04-.02zm.28-.42q0-.06.07-.07.06 0 .07.07 0 .08-.07.08-.06 0-.07-.08m18.71-.15q0-.05.08-.06t.07.06-.07.08q-.08 0-.08-.08m-.27-.35q0-.15.1-.1.06.1 0 .2-.1.05-.1-.1m-.15-.36q0-.06.07-.07.08 0 .08.07 0 .06-.08.07a.1.1 0 0 1-.07-.07m-17.73-.14q0-.08.08-.08.06 0 .07.08 0 .06-.07.07-.08 0-.08-.07m17.49-.17a.2.2 0 0 1 .2 0q.05.1-.1.1t-.1-.1m-17.34-.12q0-.06.06-.06.08 0 .08.06 0 .07-.08.07-.05 0-.06-.07m.57-1q0-.06.06-.07.08 0 .08.07 0 .06-.08.07l-.04-.02zm.42-.72q0-.05.07-.06.06 0 .07.06 0 .08-.07.08t-.07-.08m.14-.28q0-.07.08-.07.05 0 .06.07t-.06.07-.08-.07m.43-.71q0-.08.06-.08.08 0 .08.08 0 .05-.08.06l-.04-.02zm13.9-.57q0-.08.07-.08t.07.07-.07.08-.08-.08m-13.47-.15q0-.06.06-.07.08 0 .08.07 0 .06-.08.07-.06 0-.06-.07m9.14-.22c.04-.06.12-.14.15-.14s.06.08.06.14q-.01.14-.15.15-.12 0-.06-.15m-9-.06q0-.08.06-.08.07 0 .07.08 0 .06-.06.06l-.07-.04zm6.38 0q0-.08.07-.08t.07.08q0 .06-.07.06t-.07-.06m6.52-.3q0-.06.07-.07.06 0 .07.08 0 .06-.07.07-.07 0-.07-.07m-2.98-.35c.1-.16.19-.28.23-.28q.04.02-.1.28c-.07.16-.17.3-.21.3s0-.14.09-.3m-9.5-.07q0-.06.07-.07.06 0 .07.07 0 .06-.07.07-.06 0-.07-.07m8.01-.65c.05-.06.11-.14.16-.14.02 0 .05.08.05.14q-.01.14-.15.15-.11 0-.06-.15m-7.58-.06q0-.08.06-.08.08 0 .08.08 0 .05-.08.06-.03 0-.05-.02zm11.34-.16q0-.06.07-.06t.07.07-.07.07q-.03 0-.05-.02l-.02-.05m-11.21-.13q.01-.08.07-.08.08 0 .08.08 0 .06-.08.07a.1.1 0 0 1-.06-.07zm7.66-.16q0-.05.08-.06.05 0 .06.07 0 .06-.06.07-.08 0-.08-.07m-7.22-.56q0-.07.06-.07t.07.07-.07.07q-.05 0-.06-.07m10.2-.15q0-.05.08-.06.05 0 .06.06 0 .08-.06.08-.08 0-.08-.08m-1.64-.65c.09-.32-1.03-.4-4.8-.41q-1.46.02-2.9-.08c-.04-.04 1.93-.07 4.35-.07 4 0 4.9.07 4.44.35q-.12.07-.23-.06c-.15-.26-.6-.16-.76.18q-.16.27-.1.1m1.08-.34q0-.07-.08-.07-.03 0-.05.02l-.02.05q0 .06.07.07.08 0 .08-.07m-.85-1.43q0-.06.07-.07.06 0 .06.07t-.06.07-.08-.07zm-7.1-.15q0-.07.08-.07.05 0 .06.07t-.06.08-.08-.08m2.74-.03a.2.2 0 0 1 .2 0q.05.1-.1.1t-.1-.1m.43 0a.2.2 0 0 1 .19 0q.06.1-.1.1-.15 0-.09-.1m1.3-.05c.56-.04.82-.1.61-.1-.23-.02-.4-.1-.4-.15 0-.2.63-.11.75.1.1.14.18.14.33 0 .16-.12.25-.12.42.02.1.1.2.12.2.04 0-.09.16-.12.36-.07q.32.06.27.2c-.04.06-.85.1-1.8.09-1.55-.02-1.63-.03-.74-.12m-4.47-.2q0-.07.08-.07.05 0 .06.06 0 .08-.06.08-.08 0-.08-.08m6.67-.15q0-.06.07-.07.08 0 .08.07t-.08.08q-.06 0-.07-.08m-.14-.42q0-.08.07-.08t.07.08q0 .06-.07.06-.03 0-.05-.02zm-.48-.5c-.18-.31-.19-.45-.07-.52q.16-.09.06.06-.06.16.05.17.14.02.15.2.02.2.18.26.14.07.02.15c-.08.04-.25-.1-.38-.32m-5.44.04a.2.2 0 0 1 .2 0q.06.09-.1.1-.16-.01-.1-.1m.39-.69q0-.07.07-.07.06 0 .07.07 0 .07-.07.07-.03 0-.05-.02zm4.6-.07c-.04-.07-.01-.15.06-.15.09 0 .16.08.16.15q0 .15-.06.14c-.04 0-.12-.06-.15-.14m-4.46-.2q0-.08.07-.08t.07.08q0 .05-.07.06-.03 0-.05-.02zm4.32-.22q.09-.12.16-.14.05.02-.01.14-.09.14-.16.14-.05-.01.01-.14m-.2-.28q0-.13.15-.15.12.02.05.15c-.03.08-.11.14-.15.14q-.05-.01-.06-.14m-3.7-.22q0-.06.08-.07.06 0 .06.07 0 .06-.06.07-.08 0-.08-.07m.43-.72q0-.06.07-.07.06 0 .07.08 0 .05-.07.06-.03 0-.05-.02zm2.84-.14q0-.07.06-.07.08 0 .08.07t-.08.07q-.03 0-.04-.02zm-2.55-.43q0-.07.06-.07.08 0 .08.07t-.08.08q-.06 0-.06-.08m2.12-.29q0-.06.07-.07.07 0 .07.07t-.07.08-.07-.08m-1.84-.14q0-.07.07-.07.06 0 .06.07t-.06.07-.07-.07m1.7-.14q0-.07.07-.07.06 0 .07.07 0 .06-.07.07-.08 0-.08-.07M43 22.7q0-.06.06-.06.08 0 .08.06 0 .08-.08.08-.06 0-.06-.08m-.72-.14q0-.06.08-.07.06 0 .07.07 0 .08-.07.08t-.08-.08m.22-.36q.07-.12.15-.14.06.02-.02.14-.06.14-.15.15-.06 0 .02-.15"/><path fill="#5EDD86" d="M42.79 42.74q.07-.12.16-.14.06.02-.02.15t-.15.14q-.06-.01 0-.14zm.74-.56c.26-.24.52-.44.6-.44q.15-.01.1-.13c-.05-.07.08-.17.29-.23q.44-.07.17-.23c-.17-.1-.17-.12.02-.14h.32c.06.02.15-.1.2-.23q.57-.83 1.4-1.41.26-.15.26-.29c0-.2.28-.47.4-.38q.1.02.1-.16c0-.13.14-.23.29-.23q.29 0 .2-.22-.08-.21.14-.21c.14 0 .32-.2.38-.43.1-.23.23-.42.32-.42.1-.02.3-.18.45-.39q1.01-1.25 1.15-1.02c.06.1.03.2-.05.22a.3.3 0 0 0-.17.23c0 .1-.2.47-.43.77q-.24.33-.43.7c0 .47-2.67 2.78-5.24 4.48-.81.53-.86.55-.48.16m6.42-6.95q0-.06.07-.07.08 0 .08.07t-.08.08q-.06 0-.07-.08"/><path fill="#0FA622" d="M38.8 28.44c0-.04.84-1.56 1.87-3.35 1.52-2.64 1.92-3.23 2.07-3.07.1.1.85 1.37 1.67 2.8L46.24 28l.33.56h-3.89c-2.14 0-3.89-.05-3.89-.1z"/></svg>