<svg xmlns="http://www.w3.org/2000/svg" width="132" height="60" viewBox="0 0 132 60"><path fill="#005C15" d="M23.71 42.72q-6.85.03-13.69-.12l5.26-9.85 5.22-9.77H27l5.25 9.8q2.67 4.9 5.2 9.9c-.02.04-6.2.07-13.75.04"/><path fill="#0AA02C" d="M113.92 42.97q-1.19-.18-2.33-.52l-.76-.24.05-.4.17-1.54c.07-.62.13-1.14.15-1.15.02-.03.43.1.9.3 3.27 1.37 6.29.61 6.54-1.66a3.4 3.4 0 0 0-.4-1.97c-.32-.48-1.43-1.21-2.72-1.82-2.94-1.33-4.05-2.3-4.59-3.96a5 5 0 0 1-.18-1.97c.04-1.24.06-1.34.42-2.14a5.6 5.6 0 0 1 3.74-3c1.3-.38 3.9-.23 5.51.3l.14.03q.25.08.35.17c.14.15.1.47 0 1.4l-.04.4c-.12 1-.16 1.16-.3 1.09-1.96-.88-4.07-1.01-5.34-.34-.84.48-1.15 1-1.15 1.98 0 1.36.6 1.95 3.26 3.2 3.1 1.44 4.29 2.75 4.6 5.02a5.9 5.9 0 0 1-4.33 6.61c-.55.16-3.05.3-3.69.2m-29.07-.15c-2.84-.4-5.07-1.65-6.47-3.65a13 13 0 0 1-1.56-3.46 17 17 0 0 1-.12-4.9 10 10 0 0 1 1.94-4.45 9 9 0 0 1 3.74-2.82c1.5-.59 2.34-.72 4.42-.65 1.43.05 2 .1 2.66.3.46.14.89.3.95.36.08.1-.09 3-.2 3.1-.01.02-.31-.09-.68-.25a7 7 0 0 0-3.46-.59q-1.06-.02-2.06.34-1.3.46-2.26 1.5a6 6 0 0 0-1.38 2.43c-.39 1.46-.46 3-.2 4.48a6.8 6.8 0 0 0 2.6 4.22c1.68 1.17 4.44 1.42 6.82.6q.41-.17.84-.24c.02.02.07.72.1 1.57l.07 1.52-.56.18c-1.32.4-3.78.6-5.2.4M42.7 39.69v3h12.86v-2.92l-4.66-.02-4.65-.03 1-1.45c.55-.8 2.6-3.88 4.55-6.87l3.55-5.4v-3.01H42.92v3.04l4.37.02 4.4.04-.64.9c-1.1 1.59-3.85 5.75-6.14 9.29zm14.74 2.93c0-.05 1.67-4.48 3.7-9.83l3.69-9.76 1.7-.03c.94-.02 1.75 0 1.8.07.04.04 1.75 4.41 3.79 9.7l2.15 5.57 1.64 4.23c.04.1-.35.13-1.76.13h-1.82l-.88-2.37-.87-2.36-4.02.02-4.02.03-.86 2.3-.85 2.32-1.7.03a8 8 0 0 1-1.69-.05m11.32-9.86q-1.1-3-2.01-6.06l-.18-.71-.49 1.5c-.26.84-.97 2.92-1.56 4.65l-1.09 3.12h6.2zm24.94-9.78V42.7h3.24v-9.5l.8 1.11c1.03 1.42 1.46 1.97 4.3 5.48l2.36 2.9h4.49l-.31-.36-4.01-4.71-4.15-4.86-.47-.53 4-4.48a205 205 0 0 1 4.15-4.6l.02-.09c0-.05-.87-.1-2.06-.1H104l-1.94 2.35c-1.07 1.29-2.65 3.2-3.52 4.28l-1.6 1.94v-8.56z"/><path fill="#0FA622" d="m10.02 42.6 5.26-9.85 5.22-9.77H27l1.09 2.05 1.7 3.18c2.16 4.02 7.6 14.23 7.65 14.34.04.12-2.6.15-13.71.15q-6.86.05-13.72-.1m4.23-.1q.53 0 1.04-.18c.04-.04-.02-.15-.13-.24q-.2-.19-.04-.15c.08.02.27-.04.4-.12.22-.14.24-.13.2.03q-.07.2.04.11c.06-.03.09-.2.07-.39q-.04-.31.1-.38.18-.06.02-.22c-.09-.13-.06-.16.24-.12q.32.04.2-.04c-.12-.08-.11-.15.03-.43q.13-.27.17-.17 0 .12.1.13.11-.02.07-.17-.05-.15.04-.23.09-.05.1.08.01.12.1-.08a.6.6 0 0 0-.02-.42q-.1-.2.03-.17c.07.02.16-.1.21-.27s.03-.32-.02-.32q-.07-.01-.03-.17.07-.13.15-.1.1.04.1-.12.01-.16.1-.11.1.04.11-.12c0-.15-.07-.13-.44.1a278 278 0 0 1-5.38 3.27q-.8.45-1.56.98c-.07.12 2.52.12 4 .02m8.3-.23c.48-.34.84-.83 2.63-3.58a84 84 0 0 0 4.54-7.98l.46-1.01a.4.4 0 0 0 0-.38c-.07-.16-.12-.13-.27.2l-.38.75c-.11.2-.17.44-.14.5q.07.11-.03.06c-.06-.05-.31.28-.56.73-.42.76-1.56 2.48-3.01 4.6-1.14 1.66-4.72 6.2-4.88 6.2-.12 0 .03-.2.9-1.24.51-.62 1.01-1.26 1.12-1.44.1-.17.34-.49.55-.71q.27-.3.52-.65l.68-.87c.55-.7 1-1.34.52-.78-.95 1.13-1.2 1.43-1.82 2.14-.36.44-1.26 1.43-1.96 2.22l-1.3 1.44.4.04c1.18.12 1.55.09 2.03-.24m8.22-.18c.24-.28.44-.59.44-.68 0-.08.09-.23.2-.3q.22-.24.01.07-.22.29.03.08.15-.17.11-.29c-.02-.07.15-.44.38-.8.22-.37.38-.72.36-.77s-.13 0-.21.11q-.16.22-.13.03.03-.15-.14-.15c-.1 0-.2-.03-.2-.08q0-.1-.1-.1-.08.01-.05.1.06.12-.05.12-.1.02-.04.15.1.16-.07 0c-.17-.18-.35-.2-.24-.02q.06.12-.14.05a.6.6 0 0 0-.47.07 1 1 0 0 1-.33.11q-.27.09-.5.27c-.25.17-.58.3-.76.31q-.31.02-.68.41c-.2.21-.37.38-.4.34q-.68.4-1.23.99c-.12.14-.35.26-.48.26-.74.06.83.18 2.43.2l1.83.03zm6.5.42c0-.05-.26-.56-.58-1.14l-.6-1.05-.3.4q-.3.4-.48.32-.16-.04-.1.02c.07.1-.3.62-.45.62s-.6.55-.53.66c.03.07.28.14.53.17.89.07 2.51.07 2.51 0m-18.6-.1q0-.04-.05-.05l-.04.02-.01.04q0 .05.05.06t.05-.06m.18-.18q-.05-.14-.06.06t.05.16a.3.3 0 0 0 .01-.23m15.26.18c-.03-.04-.13-.05-.2-.02q-.12.07.07.08.17 0 .13-.06m.55-.9q0-.05-.05-.06t-.05.07q0 .05.05.05t.05-.05m-8.74-1.42a80 80 0 0 0 7.26-5.14c.02 0-.24-.54-.56-1.18-1.15-2.2-2.15-3.9-2-3.45.03.11 0 .35-.07.55-.08.27-.15.34-.32.29q-.32-.1-.04.1c.19.15.18.15-.02.23-.13.03-.22.15-.22.25s-.05.27-.11.37q-.14.22-.06-.03.07-.2-.1-.13-.3.11.01.38c.09.08.16.2.14.27q0 .14-.05-.01-.04-.11-.31.15c-.2.22-.23.32-.14.5q.11.2-.06.25-.14.06-.08-.1t-.12-.09q-.15.07-.11.27.04.19-.1.27-.18.06-.1-.08.03-.1-.11.12l-.43.56c-.21.25-.23.32-.1.4.14.08.23.42.12.42l-.25.07c-.17.07-.17.07.02-.1q.19-.15.09-.23c-.06-.04-.19.05-.28.2-.22.36-.21.43.03.36.18-.04.19-.02.08.16q-.11.2-.15.1-.04-.09-.21-.1-.23-.01-.02.1.18.12.02.11-.11.01-.07.14.07.1-.02.06c-.07-.05-.2.03-.3.17q-.18.21-.08.15.12-.06.14.05.01.11.13.05.12-.07.04.02c-.05.05-.14.11-.19.11l-.15.03c-.04 0-.01.1.06.18.1.14.1.2 0 .34-.07.1-.08.23-.04.3q.06.12-.04.05c-.07-.04-.25.01-.39.12-.2.15-.24.2-.14.33q.12.16 0 .16-.1.02-.07.22.05.24-.17.23c-.15 0-.19.05-.15.3q.05.29-.1.22-.13-.04-.12.06-.01.13-.11.16l-.2.04c-.04 0 0 .1.07.19.12.16.1.17-.07.14q-.2-.05-.2.22c0 .28-.42.62-.61.5q-.08-.05-.02.06c.1.2.09.2 1.15-.44m-.72.04q-.06-.05-.2.08-.14.16.08.06.15-.07.12-.14m4.13-.07q0-.06-.06-.07l-.03.02-.02.04q0 .06.05.06t.06-.06m1.98-.8q0-.06-.05-.06t-.05.06q0 .05.05.05t.05-.05m1.15 0q0-.06-.05-.06t-.05.06q0 .05.05.05t.05-.05m-14.94-.11q0-.05-.06-.06l-.03.02-.02.04q0 .05.05.05t.06-.05M31.9 39q-.06-.04-.07.08 0 .12.07.08a.14.14 0 0 0 0-.15m-14.29-.09q0-.05-.05-.05l-.04.01-.01.04q0 .06.05.06t.05-.06m.05-.4q.05-.09.02-.1-.07.01-.12.1-.06.12-.01.12t.11-.11m8.57-.1q.05-.1.02-.12-.07.02-.12.11-.06.12-.01.12t.11-.12m-8.1-.74-.01-.04-.04-.01q-.05 0-.05.05t.05.06q.05 0 .05-.06m8.84-.47c-.07-.07-.27.08-.27.21q0 .11.16-.02c.1-.08.14-.17.12-.19zm-.1-.23a.1.1 0 0 0-.13 0q-.05.08.07.08.11 0 .07-.08m-13.33-.43q0-.05-.06-.05l-.03.02-.02.03q0 .06.05.06t.06-.06m1.56-.45-.01-.04-.04-.01q-.05 0-.05.06t.05.05q.05 0 .05-.05zm-1.25-.1q0-.06-.05-.07-.06 0-.06.06t.06.06.05-.06m.1-.23-.01-.04-.04-.02q-.05 0-.05.06t.05.05q.05 0 .05-.05m.24-.3c.04-.18.04-.2-.09-.09q-.11.13-.08.23c.08.15.11.13.17-.14m16.17-4.55q0-.05-.05-.06l-.04.02-.01.04q0 .06.05.06t.05-.06m-3.72-5.6q-.02-.07.08-.09.08-.01.04-.11t.07-.12c.15 0 .4-.27.5-.5q.07-.1.14-.08c.05 0 0-.14-.08-.33l-.17-.34-.4.88c-.22.49-.52 1.06-.64 1.27-.22.38-.22.38.12-.05.2-.25.35-.48.34-.53"/><path fill="#1DCD3E" d="M10 42.6q0-.12.1-.18.1-.04.05.1c-.07.2-.15.23-.15.08m3.84-.02 3.7-.05.22-.3c.13-.16.32-.4.42-.55.12-.13.24-.4.3-.57.05-.18.15-.33.22-.33q.07 0 .02-.11c-.02-.05.06-.24.2-.38.13-.15.22-.36.21-.45q0-.17.07-.12c.06.03.18-.01.26-.11q.17-.17.02-.21-.13-.05.07-.27.3-.3.05 0-.21.28.08.08.2-.16.19-.25c-.04-.05-.02-.18.04-.27.08-.16.11-.16.28.03.17.2.19.2 0 .24q-.16.05-.12.19t-.06.19c-.07.02-.12.15-.14.27 0 .12-.14.46-.28.76-.3.55-.3.62-.06.39.8-.78.65-.58-.3.44a8 8 0 0 0-1.1 1.32c.03.03 1.04.06 2.23.06h2.16l.26-.33c.14-.18.31-.34.38-.34q.1 0 .1-.12.02-.1.11-.05.1.05.1-.06.01-.1.11-.05.1.04.1-.02c0-.06.14-.16.3-.23l.44-.25c.17-.12 2.52-1.57 2.9-1.8.48-.27.2-.02-.41.38a8 8 0 0 0-1.34 1.1c-.2.15-.46.37-.58.5-.1.11-.45.42-.75.68-.53.44-.55.49-.32.54.14.03 3.24.04 6.9.03s6.66 0 6.66.06-6.14.07-13.66.05c-7.52 0-12-.05-9.98-.09m5.12-2.21q-.07-.05-.07.07t.07.08a.14.14 0 0 0 0-.15m.23-.1-.01-.03-.04-.02q-.05 0-.05.05t.05.06q.05 0 .05-.05m.94-1.46-.01-.04-.04-.02q-.04 0-.04.06-.01.06.04.06t.05-.06"/><path fill="#1DCD3E" d="M17.52 42.3q.01-.05.05-.05.06 0 .06.05t-.06.06q-.04 0-.05-.06m19.76 0q0-.05.05-.05t.05.05-.05.06q-.06 0-.06-.06zm-.32-.57q0-.05.05-.05t.05.06q0 .05-.05.06t-.05-.06m-26.43-.1q0-.06.04-.06.05 0 .05.06t-.04.05-.05-.05m26.33-.12q0-.05.05-.05t.05.06q0 .05-.05.05t-.06-.05zm-26.13-.33q0-.06.06-.06.03 0 .04.06 0 .05-.04.06-.06 0-.06-.06m25.92 0q0-.06.05-.06t.05.06-.05.06-.05-.06m-18.4-.12q0-.05.06-.05t.05.05-.05.06q-.06 0-.06-.06m18.3-.11q0-.05.04-.05.06 0 .06.05t-.06.06-.05-.06m-25.61-.12q0-.05.06-.05.04 0 .04.05 0 .07-.04.07-.06 0-.06-.07m25.5-.1q0-.06.05-.06t.05.06q0 .05-.05.05h-.02l-.02-.01zm-25.4-.11q.01-.06.05-.07.06 0 .06.07 0 .05-.06.05l-.03-.02zm25.19-.23q0-.06.05-.06t.05.06q0 .05-.05.05t-.05-.05m-.1-.23q0-.05.05-.05t.05.05-.05.06q-.06 0-.06-.06m-24.77-.11q0-.05.05-.05t.06.05-.06.06q-.05 0-.05-.06m.1-.23q.01-.05.05-.05.06 0 .06.05t-.06.06q-.04 0-.04-.06m.2-.33q0-.06.07-.06.04 0 .04.06t-.04.05-.06-.05m24.05-.12q0-.05.05-.06t.05.06q0 .06-.05.06-.03 0-.04-.02zm-23.94-.1q0-.07.06-.07t.05.06-.05.05-.06-.05m9.06-.14c-.02-.05.07-.2.2-.35q.46-.43.06.15-.18.25-.26.2m-4.87-.32q0-.05.05-.06t.05.06-.05.06q-.06 0-.06-.06zm19.43 0q0-.05.05-.06t.06.06-.06.06-.05-.06m-23.3-.12q0-.05.05-.05t.05.05-.05.06q-.05 0-.05-.06m4.28-.13q.55-.4.94-.95c0-.09.37-.57.82-1.06q.11-.17.07-.28-.07-.14.03-.06.14.06.23-.22.09-.25.21-.22.1.03.11-.05c0-.23.03-.3.2-.43q.33-.28.32.04 0 .14-.1.1t-.11.11q0 .18.14.1.09-.04-.16.23c-.16.17-.29.4-.29.5q-.01.2-.16.29-.14.06-.14.15c.03.17-.14.48-.25.4q-.09-.02-.15.17c-.02.12-.27.35-.53.52-.28.15-.7.42-.96.57q-.42.24-.22.1zm18.87.07q.05-.09.11-.1.04.01-.01.11t-.12.11q-.04 0 .02-.1zm-23.04-.16q0-.05.04-.06.06 0 .06.06t-.06.06l-.03-.02zm8.1-.06q.05-.09.1-.1.05.01.05.1-.01.12-.11.12-.09 0-.05-.12m1.09-.16q.01-.17.16-.18c.14 0 .42-.5.39-.7q-.01-.08.1-.08c.07 0 .24-.18.37-.4.13-.2.2-.39.14-.39q-.1.02-.14.15-.06.1-.13.05c-.04-.04.09-.2.3-.34s.38-.32.38-.39.05-.15.1-.15.1-.05.07-.13q0-.12.1-.15c.14 0 .46-.35.46-.5q0-.12.1-.06c.05.03.17-.1.26-.27.19-.38.21-.62.06-.52q-.1.07-.06.18.06.1-.02.1c-.2 0-.23-.15-.07-.3q.13-.17.09-.29-.07-.1.02-.06c.05.03.16-.01.24-.12q.21-.2-.05-.1-.2.08.14-.25c.2-.19.4-.34.44-.34q.07-.01.14-.16c.03-.07-.67.37-1.54 1a70 70 0 0 1-4.04 2.75q-.32.17.09-.15c.17-.18.33-.38.33-.47q.01-.15.1-.15c.05 0 .14-.1.16-.23q.09-.2.17-.16t.09-.04v-.2q.4-.76 1.07-1.23.19-.1.15-.23a.2.2 0 0 1 .01-.13.2.2 0 0 1 .1-.09c.08-.03.13-.13.13-.21 0-.2.63-.9.65-.72q.01.1.11-.11.1-.24.21-.26.07-.02.08-.17t.11-.17c.05 0 .34-.25.63-.57.3-.3.58-.56.63-.56q.09-.01.1-.16.01-.16.11-.18.08 0 .04-.11-.05-.1.12-.03.18.06.12-.05c-.05-.07.06-.25.23-.4s.32-.35.32-.4q.02-.12.26-.18c.14-.05.26-.15.26-.24q0-.15.09-.16c.04 0 .27-.18.47-.4.22-.21.44-.36.5-.33q.1.06.05-.04-.06-.14.38-.43c.54-.36 1.26-1.25 1.19-1.46q-.05-.16.03-.16.1.01.1.16.02.16.16.25c.08.03.18.18.2.33.05.15.12.27.18.27q.1.01.06.1c-.04.05.02.2.14.32.1.13.17.27.14.3q-.05.06.05.07c.07 0 .14.16.18.34q.06.31.19.27c.2-.1-.56.63-1.28 1.25-.35.32-.96 1-1.34 1.53q-1.25 1.72-2.54 3.37c-.05.04-.45.53-.9 1.07q-.59.75-1.2 1.47c-.23.25-.41.48-.41.53q-.01.09-.16.1a.15.15 0 0 0-.15.14c0 .09-.12.24-.27.34-.22.16-.26.18-.26.02m3.34-4.85-.01-.04-.04-.01q-.05 0-.05.05t.05.06q.05 0 .05-.06m2.46-5.47q.05-.1.01-.11-.05.02-.12.11-.05.11 0 .11t.1-.11M35 38.3q-.05-.1.04-.11.1.02.11.11 0 .12-.04.11-.05 0-.11-.1m-22.5-.3q.02-.13.11-.15.1 0 .05-.06c-.04-.04.02-.18.14-.3.1-.13.17-.28.14-.34q-.04-.08.06-.09t.06-.1.07-.09c.23 0 2.1-1.2 2.43-1.56q1-1.13 1.91-2.35c.13-.18.24-.28.24-.23q.02.04.23-.23l.41-.5c.1-.12.14-.25.11-.27q-.01-.06.17-.13c.13-.04.22-.15.22-.23s.1-.21.2-.28a.5.5 0 0 0 .22-.38q-.01-.28.1-.07.12.2.1-.08.02-.24.11-.26.1-.01.11-.18t.14-.12q.16.06.22-.14c.03-.11.2-.33.35-.48q.85-.84.85-1.22c0-.06.1-.12.2-.12.12 0 .25-.1.27-.23q.08-.22.23-.17.12.06.09-.04c-.04-.06.05-.16.17-.24.14-.08.35-.26.5-.4.14-.15.33-.27.44-.27q.2-.01.14-.1c-.03-.05.05-.13.14-.18a.4.4 0 0 0 .17-.1q.08-.07.12-.17.05-.19.28-.2.21 0 .21-.11c-.02-.08.07-.18.18-.2q.19-.08.2-.17c0-.05.15-.15.33-.22s.35-.23.38-.35q.06-.2.17-.15.1.07.05-.17-.07-.24.14-.3c.1-.05.2-.12.2-.19q-.02-.1-.17-.05-.14.05-.1-.04c.03-.08.14-.11.21-.11q.14-.01.1-.17c-.07-.18.1-.24.2-.08.07.11-.18.82-.65 1.98a3 3 0 0 0-.28.83q.05.05.05-.08.01-.14.16-.07c.1.03.28-.08.42-.25l.29-.3-.3.5c-1.57 2.76-4.44 5.53-8.48 8.19-.85.55-1.74 1.17-2 1.36s-.78.6-1.16.87c-.38.26-.9.72-1.16.98-.26.29-.48.45-.48.36m8.96-9.67q0-.06-.05-.06t-.05.06.05.05.05-.05m.94-.8-.01-.03-.04-.02q-.05 0-.05.06t.05.06.05-.06m2.62-.9q0-.04-.06-.05-.02 0-.03.02l-.02.04q.01.05.05.05.06 0 .06-.05m.73-2.25q0-.05-.06-.05-.02 0-.03.02l-.02.03q0 .05.05.06t.06-.06M20.38 38a.1.1 0 0 1 .14 0q.04.06-.07.07-.11 0-.07-.07"/><path fill="#1DCD3E" d="M21.53 37.88a.1.1 0 0 1 .14 0q.04.08-.07.08t-.07-.08m13.27-.1a.1.1 0 0 1 .14 0q.04.06-.07.07-.11 0-.07-.08m-13.2-.1q0-.05.05-.05t.05.05-.05.06q-.05 0-.05-.06m-.94-.1q0-.07.05-.07t.05.06-.05.06-.05-.06m14-.07q0-.11.07-.07.04.07 0 .15-.06.05-.07-.08m-10.35-.06q0-.05.06-.05t.05.05-.05.06q-.06 0-.06-.06m10.07-.47a.1.1 0 0 1 .14 0q.05.08-.07.08-.11 0-.07-.08m-15.5-.09q.01-.05.05-.05.05 0 .05.05t-.05.06l-.03-.02zm6.13-.3c.1-.16.21-.27.24-.25s-.07.17-.2.3l-.24.25zm-11.77-.04q0-.05.05-.05t.06.05-.06.06q-.05 0-.05-.06m20.9-.11q0-.05.05-.05t.05.05-.05.06q-.05 0-.05-.06m-20.8-.11q.01-.05.05-.06.06 0 .06.06t-.06.06q-.03 0-.04-.06m20.48-.45q0-.06.06-.06t.05.06q0 .05-.05.05t-.06-.05m-8.46-.11q0-.06.05-.06t.05.06-.05.05-.05-.05m.84-.68q0-.05.05-.06t.05.06q0 .05-.05.06l-.04-.02zm7.2 0q0-.05.06-.06t.05.06q0 .05-.05.06-.03 0-.04-.02zm-14.16-.2q-.07-.1.04-.04c.12.08.17.18.08.18q-.05 0-.12-.13m14.06-.02q0-.06.05-.06t.06.06q0 .05-.06.05-.02 0-.03-.02zm-19.12-.12q0-.05.05-.06t.05.06q0 .05-.05.06l-.04-.02zm18.8-.45q0-.05.06-.05t.05.05-.05.06-.05-.06m-18.5-.11q.01-.05.06-.06.06 0 .06.06t-.06.06q-.03 0-.04-.06zm6.7-.34q0-.05.05-.06t.05.06q0 .05-.05.06t-.05-.06m11.5-.11q0-.06.05-.06t.05.06q0 .05-.05.05t-.06-.05m-.1-.23q0-.05.04-.05.05 0 .05.05t-.05.06l-.03-.02zm-17.69-.1q0-.05.05-.05t.05.05-.04.06q-.06 0-.06-.06m.1-.23q0-.05.06-.05t.05.05-.05.06-.06-.06m17.25-.22q0-.06.05-.06t.05.06-.05.06-.05-.06m-17.04-.11q.01-.06.05-.06.06 0 .06.06t-.06.05l-.03-.01zm16.93-.11q0-.06.05-.06t.06.06q0 .05-.06.05-.02 0-.03-.02zm-16.82-.12q0-.06.05-.06t.05.06q0 .05-.05.06l-.04-.02zm6.69 0q0-.06.05-.06t.05.06q0 .05-.05.06l-.04-.02zm9.93-.22q0-.06.05-.06t.05.06q0 .05-.05.05t-.06-.05zm-16.3-.34q0-.06.04-.06.06 0 .06.06t-.06.06q-.04 0-.04-.06m.1-.22q0-.06.05-.06t.05.05-.05.06-.05-.06m.3-.57q0-.06.07-.06.03 0 .04.06 0 .05-.04.05-.06 0-.06-.05m.12-.23q0-.05.05-.05t.05.05-.05.06-.06-.06zm2.92-.11q0-.05.05-.05t.05.05-.05.06-.05-.06m-2.72-.23q.01-.05.05-.05.06 0 .06.05t-.06.06q-.04 0-.05-.06m.21-.45q.01-.05.05-.06.06 0 .06.06t-.06.06l-.03-.02zm.22-.34q0-.05.04-.05.05 0 .05.05t-.05.07q-.03 0-.04-.07m13.78-.1q0-.06.06-.06t.05.05-.05.06-.06-.06m-.2-.29q0-.12.07-.07.04.07 0 .15-.06.04-.07-.08m-.11-.28q0-.06.05-.06t.06.06-.06.05l-.03-.01zm-13.06-.11q0-.06.06-.06.03 0 .04.06 0 .05-.04.05-.06 0-.06-.05m12.88-.14a.1.1 0 0 1 .15 0q.04.08-.07.08t-.07-.08m-12.78-.09q.01-.05.05-.05.06 0 .06.05t-.06.05q-.04 0-.05-.05m.43-.79q0-.05.04-.06.06 0 .06.06t-.06.06l-.03-.02zm.3-.56q0-.05.06-.06t.05.06-.05.06q-.06 0-.06-.06m.1-.23q0-.05.06-.05t.05.05-.05.06-.05-.06m.32-.56q.01-.06.05-.06.06 0 .06.06t-.06.05l-.03-.01zm10.24-.45q0-.05.06-.06t.05.06q0 .05-.05.06t-.06-.06m-9.92-.12q0-.05.05-.05t.06.05-.06.06q-.05 0-.05-.06m6.74-.16q.06-.1.11-.12.03.02.04.12a.1.1 0 0 1-.1.11q-.1-.01-.05-.11m-6.63-.06q0-.05.04-.06.05 0 .05.06t-.05.06h-.05zm4.7 0q0-.05.05-.06t.05.06q0 .05-.05.06t-.06-.06m4.8-.22q0-.06.05-.06t.05.06-.05.05-.05-.05m-2.2-.28q.11-.21.18-.23.02.02-.07.23c-.06.12-.14.22-.16.22q-.03-.02.06-.22m-7-.06q0-.05.06-.06t.05.06-.05.06q-.06 0-.06-.06m5.9-.51q.07-.1.13-.11.02.02.03.1a.1.1 0 0 1-.11.12q-.08 0-.04-.11m-5.58-.05q0-.06.05-.06t.05.06-.05.05l-.04-.02zm8.36-.12q0-.05.05-.06t.05.06q0 .05-.05.06l-.04-.02zm-8.26-.11q.01-.06.05-.06.06 0 .06.06t-.06.05l-.03-.01zm5.64-.12q0-.05.06-.05t.05.06-.05.05-.06-.05zm-5.32-.45q0-.05.05-.05t.05.05-.05.06-.05-.06m7.52-.11q0-.05.05-.05t.05.05-.05.06-.05-.06m-1.2-.52c.05-.25-.77-.31-3.54-.32q-1.07.02-2.15-.06c-.02-.03 1.42-.05 3.21-.05 2.95 0 3.6.05 3.27.27q-.1.05-.17-.05c-.11-.2-.43-.13-.56.15q-.1.2-.07.06m.78-.27q0-.05-.05-.05l-.04.01-.01.04q0 .06.05.06t.05-.06M26.43 22q0-.06.05-.06t.05.05-.05.07q-.06 0-.06-.06zm-5.23-.12q0-.05.05-.05t.05.05-.05.06-.05-.06m2.02-.02a.1.1 0 0 1 .14 0q.04.06-.07.07-.11 0-.07-.07m.31 0a.1.1 0 0 1 .14 0q.05.06-.07.07-.11 0-.07-.07m.96-.04c.41-.04.6-.07.45-.08-.17-.02-.3-.08-.3-.12 0-.15.47-.09.56.07q.09.18.24.01c.12-.1.18-.1.31.02q.13.11.15.03c0-.07.12-.1.26-.06q.23.06.2.15a5 5 0 0 1-1.33.08c-1.13-.02-1.2-.02-.54-.1m-3.3-.17q0-.05.06-.05t.05.05q0 .07-.05.07t-.05-.07m4.92-.1q.01-.06.05-.06.06 0 .06.05t-.06.06q-.04 0-.05-.06m-.1-.34q0-.06.05-.06t.05.06-.05.05l-.04-.01zm-.35-.4q-.19-.34-.06-.4.13-.07.05.04-.05.13.04.14.1.02.1.15.01.17.13.21.13.05.03.12c-.07.03-.2-.07-.28-.25zm-4.01.04.07-.03q.04 0 .07.03.05.07-.07.07-.11 0-.07-.07m.28-.54q.01-.06.05-.06.06 0 .06.06t-.06.05l-.03-.01zm3.4-.06q-.05-.1.04-.12.1.02.11.12t-.04.11-.11-.11m-3.29-.17q0-.06.05-.06t.05.06-.05.05l-.04-.01zm3.18-.17q.07-.1.12-.1t-.01.1-.11.11 0-.11m-.15-.22q.01-.1.11-.12.09.02.04.12t-.1.11-.05-.11m-2.72-.18q0-.05.05-.05t.05.05-.05.06-.05-.06m.31-.56q0-.05.05-.06t.06.06q0 .05-.06.06-.02 0-.03-.02zm2.1-.1q0-.07.04-.07.06 0 .06.06t-.06.05l-.03-.01zm-1.89-.35q.01-.05.05-.05.06 0 .06.05t-.06.06q-.04 0-.05-.06m1.57-.23q0-.05.05-.05t.05.05-.05.06-.05-.06m-1.36-.11q.01-.05.05-.05.05 0 .05.05t-.05.06-.05-.06m1.25-.1q0-.06.06-.07.05 0 .05.06t-.05.06-.06-.06m-.3-.57q0-.05.04-.06.06 0 .06.06t-.06.06q-.04 0-.05-.06m-.53-.12q0-.05.05-.05t.05.05-.05.06-.05-.06m.16-.28q.05-.1.11-.11.04.01-.01.11t-.11.12.01-.12"/><path fill="#5EDD86" d="M23.84 33.34q.07-.09.12-.1.04.01-.01.1-.06.11-.11.12-.05-.01 0-.11zm.55-.44c.19-.19.39-.35.45-.35q.1 0 .06-.1c-.03-.06.07-.13.22-.18q.32-.06.13-.18-.2-.1.01-.11h.24c.04.01.1-.08.14-.18a4 4 0 0 1 1.04-1.12c.12-.06.2-.16.19-.22 0-.15.2-.37.3-.3q.06.02.07-.13c0-.1.1-.18.2-.18q.22 0 .15-.17-.06-.18.11-.17c.1 0 .23-.15.28-.34.07-.18.17-.33.23-.33a1 1 0 0 0 .34-.3q.74-1 .84-.8.07.12-.03.17l-.1.07-.03.1c0 .08-.14.37-.32.61q-.17.27-.31.55c0 .38-1.97 2.2-3.87 3.53-.6.42-.63.44-.35.13zm4.73-5.48q0-.05.05-.05t.06.05-.06.06q-.05 0-.05-.06"/><path fill="#0FA622" d="M20.9 22.08c0-.03.62-1.23 1.38-2.64 1.12-2.08 1.42-2.55 1.53-2.42.07.08.62 1.08 1.23 2.2l1.35 2.5.24.44h-2.87c-1.57 0-2.86-.04-2.86-.07z"/></svg>