<!-- by TradingView --><svg width="18" height="18" viewBox="0 0 18 18" xmlns="http://www.w3.org/2000/svg"><path fill="#F0F3FA" d="M0 0h18v18H0z"/><path d="m7.58 6-.37-.76a8.27 8.27 0 0 0-.43-.73 5.02 5.02 0 0 1 5.7.93v.05L11.3 6.66h-.01a3.25 3.25 0 0 0-3.7-.65Z" fill="#F71603"/><path d="M6.78 4.51a8.28 8.28 0 0 1 .8 1.5c-.77.38-1.33.97-1.66 1.77a37.1 37.1 0 0 1-1.57-.64l.21-.45A4.98 4.98 0 0 1 6.78 4.5Z" fill="url(#a)"/><path d="M5.92 7.78c-.3.77-.3 1.54-.04 2.32-.53.2-1.06.38-1.6.55a5.02 5.02 0 0 1 .07-3.5c.52.22 1.04.43 1.57.63Z" fill="url(#b)"/><path d="m13.94 9.04-1.24.59c-.2.1-.39.31-.58.37H9V8.37h4.99l.01.02-.06.65Z" fill="#108CED"/><path d="M13.94 9.04c-.03.74-.2 1.43-.5 2.08-.3.66-.73 1.23-1.27 1.7a6.28 6.28 0 0 0-1.12-1.27c.47-.4.8-.9 1-1.5.01-.05 0-.04.04-.11.19-.06.42-.22.61-.31l1.24-.59Z" fill="url(#c)"/><path d="M5.88 10.1a3.3 3.3 0 0 0 1.15 1.56 20.02 20.02 0 0 0-1.09 1.3 4.96 4.96 0 0 1-1.66-2.31c.54-.17 1.07-.35 1.6-.55Z" fill="url(#d)"/><path d="m11.05 11.55.36.36c.28.28.53.59.76.92a4.82 4.82 0 0 1-3.9 1.12 4.89 4.89 0 0 1-2.33-.98l.3-.37c.34-.42.6-.73.8-.94a3.34 3.34 0 0 0 3.06.44c.35-.13.67-.32.95-.55Z" fill="url(#e)"/><defs><linearGradient id="a" x1="7.72" y1="5.99" x2="6.56" y2="8.2" gradientUnits="userSpaceOnUse"><stop stop-color="#F71603"/><stop offset=".47" stop-color="#FA6702"/><stop offset="1" stop-color="#FFA001"/></linearGradient><linearGradient id="b" x1="5.44" y1="7.65" x2="4.95" y2="10.65" gradientUnits="userSpaceOnUse"><stop stop-color="#FFA001"/><stop offset=".99" stop-color="#FBCC07"/></linearGradient><linearGradient id="c" x1="11.59" y1="11.92" x2="12.43" y2="9.84" gradientUnits="userSpaceOnUse"><stop stop-color="#03B58F"/><stop offset="1" stop-color="#108CED"/></linearGradient><linearGradient id="d" x1="4.72" y1="10.66" x2="5.66" y2="12.96" gradientUnits="userSpaceOnUse"><stop stop-color="#FBC205"/><stop offset="1" stop-color="#00BC43"/></linearGradient><linearGradient id="e" x1="9.19" y1="12.99" x2="11.96" y2="12.32" gradientUnits="userSpaceOnUse"><stop stop-color="#00BC43"/><stop offset="1" stop-color="#03B58F"/></linearGradient></defs></svg>