<!-- by TradingView --><svg width="18" height="18" viewBox="0 0 18 18" xmlns="http://www.w3.org/2000/svg"><path fill="#F0F3FA" d="M0 0h18v18H0z"/><path d="M6.7 7.34a.33.33 0 0 1-.28.16h-.68a.33.33 0 0 0-.28.16l-.78 1.18a.31.31 0 0 0 0 .32l.73 1.18c.06.1.16.16.28.16h1.38c.12 0 .23.06.3.16l.61 1.12c.06.1-.02.22-.13.22H5.02c-.2 0-.4-.1-.5-.29L3.08 9.28a.56.56 0 0 1 0-.56l1.44-2.43c.1-.18.3-.29.5-.29h2.16c.12 0 .2.13.14.23L6.7 7.34Z" fill="#173ADE"/><path d="m11.93 7.09-.68-1.01c-.07-.1-.25-.1-.32 0l-2.87 4.34a.36.36 0 0 0 0 .4l.68 1.1c.07.1.26.1.33 0l2.87-4.42a.36.36 0 0 0 0-.41ZM14.93 7.09l-.68-1.01c-.07-.1-.25-.1-.32 0l-2.87 4.34a.36.36 0 0 0 0 .4l.68 1.1c.07.1.26.1.33 0l2.87-4.42a.36.36 0 0 0 0-.41ZM7.3 7.06l.68-.99c.07-.1.25-.1.31 0l.88 1.4c.08.11.08.26 0 .38L8.5 8.92c-.07.1-.25.1-.32 0l-.89-1.46a.35.35 0 0 1 0-.4Z"/></svg>