<!-- by TradingView --><svg xmlns="http://www.w3.org/2000/svg" width="18" height="18" viewBox="0 0 18 18"><path fill="#F0F3FA" d="M0 0h18v18H0z"/><path d="M9.45 5.1c.04-.32 0-.8.23-1.02.08-.35.6-.27.51-.5-.05-.13-.3-.07-.39-.04-.07.02-.78.26-1.06.29l-.34-.1c-.45.06-.7.44-.95.74-.21.25-.5.86-.27 1.23l-.03.24.5.79c.18.13.2.23.39.36l.11.19c.16.1.6.1.69.04.72.07.65-1.5.88-1.83a.65.65 0 0 0-.27-.38ZM6.31 9.84c.15-.05.42-.07.55-.14.22-.12.98-.68.74-1.14-.08-.97-1.17-.15-1.64-.49-.47-.06-1-1.01-1.14-1.42-.06-.16-.03-.1-.1-.23 0-.02-.06.04-.06.03-.13.17-.11.32-.13.73h-.19c-.01.14-.02.23-.1.3 0 .03-.02.05-.03.08-.12-.04-.06.02-.1-.09-.44.03-.41.5-.61.76 0 .86 1.62 1.93 2.8 1.6Zm5.36-2.64c-.7.12-1.14.35-1.4.55-.19.14-.24.23-.28.29a.5.5 0 0 0-.05.32c.02.13.07.28.18.36.86-.07 2.37-.13 2.66.64.01.11.04.18.04.2.28-.07.08-.05.5.02.1.02.33-.04.49-.08.07-.02.11-.09.11-.09V9.3s.14.01.2-.04c.4-.07.2-.27.38-.5-.11-1.44-1.5-1.77-2.83-1.56Zm-1.55 3.14c-.2.17-.28.13-.4.38-.01 0 .02.04 0 .04.13.25.4.35.6.53.07.06.24.37.32.4.09.11.15.43.2.43.07.09 0 .3.06.38 0 .38-.04.4-.1.48l.03.12c.01.02.16.13.22.11.2 0 .98.67 1.05.8.56.04.52-.15.92-.32.1-.05.19 0 .25-.08.08-.08.08-.24.15-.32.01-1.49-1.89-2.9-3.3-2.95Zm-2.23.34c-.08.1-.3.13-.36.23-.1.15-.3.5-.48.68-.53.54-1.69.81-2.25.3-.04 0-.02.02.03.17.04.28.25.94.17 1.1.05.2.1.13.2.23.07.07.1.25.17.3l.26-.02.05.16.33-.03.3.14.38-.03c.28.08.53-.05.77-.22.13-.1.27-.08.4-.18.16-.16.4-.47.5-.68.27-.51.18-1.75-.06-2.06-.1-.11-.2-.11-.42-.09Z" fill="#FF5E11"/></svg>