<svg width="298" height="272" viewBox="0 0 298 272" fill="none" xmlns="http://www.w3.org/2000/svg">
<path opacity="0.4" fill-rule="evenodd" clip-rule="evenodd" d="M90.0348 2.64066C66.1034 -1.57908 43.2825 14.4003 39.0627 38.3317L16.1411 168.326C11.9214 192.258 27.9008 215.079 51.8322 219.298L66.756 221.93C67.4892 222.242 68.2349 222.537 68.9928 222.813L193.032 267.959C215.867 276.271 241.116 264.497 249.428 241.662L294.574 117.622C302.885 94.7873 291.112 69.5382 268.277 61.2269L254.536 56.2257C249.894 40.8273 236.949 28.5457 220.029 25.5622L90.0348 2.64066Z" fill="#0D0F13"/>
<path fill-rule="evenodd" clip-rule="evenodd" d="M67.3291 220L67.5401 220.09C68.2403 220.388 68.9527 220.67 69.6768 220.933L193.716 266.08C215.513 274.013 239.615 262.775 247.548 240.978L292.695 116.938C300.628 95.1412 289.39 71.0398 267.593 63.1063L252.91 57.7623L252.621 56.8029C248.189 42.0992 235.83 30.3792 219.682 27.5318L89.6875 4.61028C66.8439 0.582338 45.0603 15.8354 41.0323 38.679L18.1108 168.674C14.0828 191.517 29.3359 213.301 52.1795 217.329L67.3291 220ZM39.0627 38.3317C43.2824 14.4003 66.1034 -1.57908 90.0348 2.64066L220.029 25.5622C236.949 28.5457 249.894 40.8273 254.536 56.2257L268.277 61.2269C291.112 69.5382 302.885 94.7873 294.574 117.622L249.428 241.662C241.116 264.497 215.867 276.271 193.032 267.959L68.9928 222.813C68.2349 222.537 67.4892 222.242 66.756 221.93L51.8322 219.298C27.9008 215.079 11.9214 192.258 16.1411 168.326L39.0627 38.3317Z" fill="url(#paint0_linear_8960_14686)"/>
<path opacity="0.5" d="M39.0627 38.3317C43.2824 14.4003 66.1034 -1.57908 90.0348 2.64066L220.029 25.5622C243.961 29.782 259.94 52.6029 255.72 76.5343L232.799 206.529C228.579 230.46 205.758 246.44 181.827 242.22L51.8322 219.298C27.9008 215.079 11.9214 192.258 16.1411 168.326L39.0627 38.3317Z" fill="#0D0F13"/>
<path fill-rule="evenodd" clip-rule="evenodd" d="M219.682 27.5318L89.6875 4.61028C66.8439 0.582339 45.0603 15.8354 41.0323 38.679L18.1108 168.674C14.0828 191.517 29.3359 213.301 52.1795 217.329L182.174 240.25C205.018 244.278 226.801 229.025 230.829 206.182L253.751 76.187C257.779 53.3434 242.526 31.5598 219.682 27.5318ZM90.0348 2.64066C66.1034 -1.57908 43.2824 14.4003 39.0627 38.3317L16.1411 168.326C11.9214 192.258 27.9008 215.079 51.8322 219.298L181.827 242.22C205.758 246.44 228.579 230.46 232.799 206.529L255.72 76.5343C259.94 52.6029 243.961 29.782 220.029 25.5622L90.0348 2.64066Z" fill="url(#paint1_linear_8960_14686)"/>
<g clip-path="url(#clip0_8960_14686)">
<rect width="220" height="220" fill="url(#paint2_linear_8960_14686)"/>
<path d="M176.459 116.905L176.406 117.283C175.312 125.3 171.346 129.713 165.237 129.713C156.533 129.713 151.549 122.559 151.549 110.097C151.549 97.5167 156.533 90.2985 165.237 90.2985C171.057 90.2985 175.13 94.5605 176.406 101.984L176.47 102.143H196.333L196.246 101.833C194.81 93.406 191.252 86.4683 185.956 81.775C180.693 77.1032 173.683 74.6431 165.708 74.6431C155.858 74.6431 147.379 78.1282 141.194 84.7312C135.192 91.1294 131.89 100.139 131.89 110.097C131.89 130.856 145.793 145.357 165.708 145.357C173.769 145.357 180.811 142.822 186.085 138.02C191.359 133.219 194.907 126.087 196.343 117.412L196.429 116.905H176.459Z" fill="white"/>
<path d="M123.838 75.5644V144.439C123.838 144.943 123.441 145.357 122.959 145.357H103.022C102.539 145.357 102.143 144.943 102.143 144.439L102.239 87.8142L122.519 74.7693C123.109 74.4111 123.838 74.8588 123.838 75.5644Z" fill="white"/>
<path d="M102.143 87.823V75.5612C102.143 75.0574 101.755 74.6431 101.284 74.6431H84.7771C84.3056 74.6431 83.9175 75.0574 83.9175 75.5612V91.7982C83.9175 96.1763 81.7377 100.219 78.1847 102.402L64.6129 110.79C63.8477 111.26 62.894 110.667 62.894 109.726L62.8572 87.3803C62.8572 86.8765 62.6075 86.4288 62.136 86.4288H45.5441C45.0725 86.4288 44.6847 86.8765 44.6847 87.3803L44.7 117.408C44.7 120.913 42.9498 124.149 40.1096 125.896L24.4309 135.571C23.8964 135.895 23.5715 136.5 23.5715 137.161V144.439C23.5715 144.943 23.9593 145.357 24.4309 145.357H43.9245C44.3961 145.357 44.7839 144.943 44.7839 144.439V128.774C44.7839 125.268 46.5446 122.021 49.3847 120.274L61.0913 113.097C61.8565 112.626 62.8572 113.219 62.8572 114.16V144.439C62.8572 144.943 63.1979 145.357 63.6695 145.357H83.1629C83.6348 145.357 84.0226 144.943 84.0226 144.439V106.064C84.0226 101.686 86.2127 97.6434 89.7656 95.4486L102.143 87.823Z" fill="url(#paint3_linear_8960_14686)"/>
</g>
<rect x="1" y="1" width="218" height="218" rx="43" stroke="url(#paint4_linear_8960_14686)" stroke-width="2"/>
<defs>
<linearGradient id="paint0_linear_8960_14686" x1="15.4653" y1="-4.75166" x2="272.304" y2="276.753" gradientUnits="userSpaceOnUse">
<stop stop-color="white" stop-opacity="0.6"/>
<stop offset="0.5" stop-color="white" stop-opacity="0"/>
<stop offset="1" stop-color="white" stop-opacity="0.6"/>
</linearGradient>
<linearGradient id="paint1_linear_8960_14686" x1="47.6582" y1="-10.4164" x2="217.163" y2="243.373" gradientUnits="userSpaceOnUse">
<stop stop-color="white" stop-opacity="0.6"/>
<stop offset="0.5" stop-color="white" stop-opacity="0"/>
<stop offset="1" stop-color="white" stop-opacity="0.6"/>
</linearGradient>
<linearGradient id="paint2_linear_8960_14686" x1="40.9271" y1="38.1528" x2="267.718" y2="298.636" gradientUnits="userSpaceOnUse">
<stop stop-color="#1A1E21"/>
<stop offset="1" stop-color="#06060A"/>
</linearGradient>
<linearGradient id="paint3_linear_8960_14686" x1="58.9849" y1="102.085" x2="69.6074" y2="119.978" gradientUnits="userSpaceOnUse">
<stop stop-color="#0FC800"/>
<stop offset="0.5" stop-color="#008D00"/>
<stop offset="1" stop-color="#0FC800"/>
</linearGradient>
<linearGradient id="paint4_linear_8960_14686" x1="1.07139e-06" y1="-5.5" x2="211" y2="215" gradientUnits="userSpaceOnUse">
<stop stop-color="white" stop-opacity="0.6"/>
<stop offset="0.5" stop-color="white" stop-opacity="0"/>
<stop offset="1" stop-color="white" stop-opacity="0.6"/>
</linearGradient>
<clipPath id="clip0_8960_14686">
<rect width="220" height="220" rx="44" fill="white"/>
</clipPath>
</defs>
</svg>
