<svg width="298" height="272" viewBox="0 0 298 272" fill="none" xmlns="http://www.w3.org/2000/svg">
<path opacity="0.4" fill-rule="evenodd" clip-rule="evenodd" d="M90.0348 2.64066C66.1034 -1.57908 43.2825 14.4003 39.0627 38.3317L16.1411 168.326C11.9214 192.258 27.9008 215.079 51.8322 219.298L66.756 221.93C67.4892 222.242 68.2349 222.537 68.9928 222.813L193.032 267.959C215.867 276.271 241.116 264.497 249.428 241.662L294.574 117.622C302.885 94.7873 291.112 69.5382 268.277 61.2269L254.536 56.2257C249.894 40.8273 236.949 28.5457 220.029 25.5622L90.0348 2.64066Z" fill="#74A539"/>
<path fill-rule="evenodd" clip-rule="evenodd" d="M67.3291 220L67.5401 220.09C68.2403 220.388 68.9527 220.67 69.6768 220.933L193.716 266.08C215.513 274.013 239.615 262.775 247.548 240.978L292.695 116.938C300.628 95.1412 289.39 71.0398 267.593 63.1063L252.91 57.7623L252.621 56.8029C248.189 42.0992 235.83 30.3792 219.682 27.5318L89.6875 4.61028C66.8439 0.582338 45.0603 15.8354 41.0323 38.679L18.1108 168.674C14.0828 191.517 29.3359 213.301 52.1795 217.329L67.3291 220ZM39.0627 38.3317C43.2824 14.4003 66.1034 -1.57908 90.0348 2.64066L220.029 25.5622C236.949 28.5457 249.894 40.8273 254.536 56.2257L268.277 61.2269C291.112 69.5382 302.885 94.7873 294.574 117.622L249.428 241.662C241.116 264.497 215.867 276.271 193.032 267.959L68.9928 222.813C68.2349 222.537 67.4892 222.242 66.756 221.93L51.8322 219.298C27.9008 215.079 11.9214 192.258 16.1411 168.326L39.0627 38.3317Z" fill="url(#paint0_linear_8960_14686)"/>
<path opacity="0.5" d="M39.0627 38.3317C43.2825 14.4003 66.1034 -1.57908 90.0348 2.64066L220.029 25.5622C243.961 29.782 259.94 52.6029 255.72 76.5343L232.799 206.529C228.579 230.46 205.758 246.44 181.827 242.22L51.8322 219.298C27.9008 215.079 11.9214 192.258 16.1411 168.326L39.0627 38.3317Z" fill="#74A539"/>
<path fill-rule="evenodd" clip-rule="evenodd" d="M219.682 27.5318L89.6875 4.61028C66.8439 0.582339 45.0603 15.8354 41.0323 38.679L18.1108 168.674C14.0828 191.517 29.3359 213.301 52.1795 217.329L182.174 240.25C205.018 244.278 226.801 229.025 230.829 206.182L253.751 76.187C257.779 53.3434 242.526 31.5598 219.682 27.5318ZM90.0348 2.64066C66.1034 -1.57908 43.2824 14.4003 39.0627 38.3317L16.1411 168.326C11.9214 192.258 27.9008 215.079 51.8322 219.298L181.827 242.22C205.758 246.44 228.579 230.46 232.799 206.529L255.72 76.5343C259.94 52.6029 243.961 29.782 220.029 25.5622L90.0348 2.64066Z" fill="url(#paint1_linear_8960_14686)"/>
<g clip-path="url(#clip0_8960_14686)">
<rect width="220" height="220" fill="#74A539"/>
<path d="M164.748 41.0818C151.164 30.1796 134.652 23.5504 117.3 22.0324C99.9482 20.5145 82.5362 24.1759 67.2656 32.5539C51.9949 40.9319 39.5516 53.65 31.5091 69.0999C23.4666 84.5499 20.1862 102.038 22.0827 119.352C23.9791 136.666 30.9674 153.03 42.1637 166.372C53.3599 179.715 68.2613 189.438 84.9835 194.312C101.706 199.185 119.497 198.991 136.109 193.753C152.72 188.515 167.406 178.468 178.307 164.883C192.923 146.667 199.704 123.391 197.161 100.175C194.619 76.9588 182.959 55.703 164.748 41.0818ZM173.025 160.639C162.961 173.176 149.406 182.449 134.073 187.285C118.739 192.119 102.316 192.299 86.8812 187.8C71.446 183.301 57.6914 174.326 47.3569 162.01C37.0223 149.694 30.5719 134.591 28.8212 118.609C27.0707 102.626 30.0985 86.4841 37.522 72.2231C44.9455 57.962 56.431 46.2225 70.5264 38.4889C84.6217 30.7555 100.694 27.3754 116.711 28.7761C132.727 30.1768 147.968 36.2954 160.507 46.3582C168.834 53.0402 175.763 61.2969 180.899 70.6569C186.034 80.0169 189.275 90.2968 190.438 100.91C191.601 111.522 190.661 122.261 187.673 132.51C184.685 142.76 179.708 152.32 173.025 160.647V160.639Z" fill="white"/>
<path d="M105.404 55.5567C105.403 56.7358 105.842 57.873 106.636 58.7451C107.429 59.6171 108.52 60.1614 109.694 60.2711V52.2009C105.404 51.1719 103.455 49.8897 103.455 46.3285C103.435 44.6532 104.081 43.0385 105.251 41.8393C106.421 40.6401 108.019 39.9543 109.694 39.9329V37.9238H111.373V39.9618C114.658 40.3557 116.578 42.4887 117.37 45.9922H114.782C114.67 45.1149 114.278 44.2971 113.665 43.6609C113.05 43.0246 112.247 42.6039 111.373 42.4615V49.9491L113.193 50.4434C114.517 50.709 115.714 51.4116 116.592 52.4385C117.469 53.4654 117.978 54.7571 118.034 56.1069C118.034 60.0333 115.233 62.4058 111.369 62.7131V65.2095H109.694V62.7131C107.85 62.6272 106.109 61.8376 104.83 60.507C103.55 59.1764 102.83 57.406 102.816 55.5601L105.404 55.5567ZM109.694 42.3665C109.22 42.3724 108.752 42.4733 108.318 42.6632C107.883 42.853 107.492 43.128 107.165 43.4719C106.839 43.8158 106.585 44.2214 106.418 44.6652C106.251 45.1088 106.175 45.5814 106.194 46.055C106.194 48.2152 107.658 48.8843 109.694 49.494V42.3665ZM111.373 60.2711C113.655 60.0894 115.3 58.9922 115.3 56.3753C115.3 54.064 113.602 53.2692 111.373 52.6273V60.2711Z" fill="white"/>
<path d="M60.362 149.929H62.1282C61.2119 148.515 60.716 146.87 60.6983 145.185C60.6983 141.314 63.925 138.996 67.6407 138.996C72.1155 138.996 74.916 141.65 74.8243 146.854H72.2345C72.1377 143.358 70.706 141.282 67.7867 141.282C67.2384 141.253 66.6898 141.335 66.173 141.521C65.6563 141.705 65.1817 141.992 64.7769 142.363C64.372 142.735 64.0452 143.183 63.8152 143.681C63.5853 144.179 63.4569 144.719 63.4375 145.268C63.5634 146.929 64.1085 148.531 65.022 149.925H69.8569V151.293H65.6895C66.0738 151.996 66.2829 152.78 66.2991 153.581C66.2991 156.32 64.5923 157.815 62.7634 159.304L62.8245 159.365C63.814 158.841 64.9059 158.541 66.024 158.484C67.0031 158.501 67.9748 158.656 68.911 158.943C69.7317 159.251 70.5937 159.435 71.4685 159.489C72.4723 159.416 73.4254 159.02 74.1858 158.362L75.4951 160.377C74.2222 161.35 72.6484 161.846 71.0473 161.78C70.017 161.732 69.0002 161.525 68.033 161.167C67.0056 160.79 65.9266 160.573 64.8336 160.522C63.7323 160.546 62.6673 160.919 61.7919 161.588L60.3586 159.579C61.3163 159.009 62.1215 158.216 62.7052 157.268C63.2888 156.319 63.6333 155.242 63.7092 154.131C63.6439 153.145 63.3854 152.182 62.9485 151.295H60.362V149.929Z" fill="white"/>
<path d="M158.341 142.085C157.79 141.464 157.121 140.959 156.375 140.599C155.627 140.239 154.815 140.03 153.987 139.986C153.246 139.979 152.515 140.154 151.856 140.494C151.198 140.834 150.631 141.329 150.208 141.937C149.333 143.146 148.752 144.541 148.51 146.013H157.127L156.303 147.873H148.294C148.267 148.213 148.266 148.542 148.266 148.819C148.261 149.033 148.27 149.248 148.294 149.46H155.878L155.088 151.315H148.449C149.118 155.662 151.033 157.86 154.233 157.86C155.131 157.884 156.019 157.685 156.821 157.281C157.586 156.83 158.292 156.287 158.923 155.662V158.867C157.523 159.759 155.893 160.223 154.233 160.201C149.272 160.201 146.346 157.251 145.497 151.314H143.148L143.975 149.459H145.375C145.35 149.257 145.339 149.053 145.344 148.849C145.337 148.523 145.348 148.197 145.375 147.873H143.15L143.945 146.015H145.587C145.933 143.825 146.896 141.778 148.36 140.113C149.101 139.301 150.011 138.658 151.025 138.231C152.038 137.805 153.133 137.603 154.233 137.641C156.225 137.69 158.151 138.361 159.742 139.561L158.341 142.085Z" fill="white"/>
<path d="M55.2664 97.8823H50.9732V96.0636H55.2664V94.7847L54.7212 93.7828H50.9732V91.9521H53.777L48.2017 81.4468H51.52L56.8203 92.195L61.966 81.4468H65.1298L59.714 91.9521H62.5468V93.7828H58.7087L58.1602 94.7847V96.0636H62.5451V97.8823H58.1602V103.179H55.2731L55.2664 97.8823Z" fill="white"/>
<path d="M165.424 88.3816H163.627C163.169 88.3458 162.713 88.4912 162.361 88.7869C162.008 89.0825 161.786 89.5048 161.742 89.9628L160.796 94.1659H163.902L163.478 96.2327H160.431L158.758 105.706C157.782 111.243 156.349 112.861 152.971 112.861H150.958L151.385 110.575C154.585 110.575 155.103 110.272 155.619 107.468L157.749 96.2327H154.948L155.347 94.1659H158.116L158.907 90.0272C159.061 88.9068 159.626 87.8834 160.492 87.1564C161.359 86.4295 162.465 86.0508 163.594 86.0942H165.849L165.424 88.3816Z" fill="white"/>
<path d="M109.867 70.1616C105.995 70.1676 102.163 70.9371 98.5895 72.4262C95.0158 73.9153 91.771 76.0946 89.0407 78.8393C86.3105 81.5841 84.1485 84.8405 82.6783 88.4219C81.2083 92.0033 80.4591 95.8397 80.4736 99.711C80.4736 110.07 93.3241 123.69 93.3241 130.409V136.439C93.326 138.006 93.9496 139.507 95.0581 140.615C96.1665 141.721 97.6691 142.344 99.2357 142.344H120.5C122.066 142.344 123.569 141.721 124.677 140.615C125.785 139.507 126.409 138.006 126.411 136.439V130.398C126.411 123.681 139.261 110.057 139.261 99.7009C139.274 95.8301 138.524 91.9949 137.054 88.4145C135.583 84.8341 133.42 81.5789 130.69 78.8351C127.96 76.0914 124.716 73.9131 121.142 72.4248C117.569 70.9365 113.738 70.1673 109.867 70.1616ZM109.867 165.077C111.03 165.079 112.183 164.851 113.258 164.406C114.333 163.961 115.31 163.308 116.132 162.485H103.604C104.426 163.308 105.402 163.961 106.477 164.406C107.552 164.85 108.704 165.079 109.867 165.077ZM120.5 144.698H99.2357C98.3081 144.718 97.4253 145.101 96.7764 145.764C96.1275 146.427 95.764 147.318 95.764 148.246C95.764 149.174 96.1275 150.065 96.7764 150.728C97.4253 151.392 98.3081 151.774 99.2357 151.794H120.5C120.972 151.805 121.442 151.72 121.881 151.547C122.321 151.373 122.722 151.113 123.059 150.783C123.397 150.452 123.665 150.058 123.849 149.623C124.032 149.186 124.126 148.719 124.126 148.246C124.126 147.774 124.032 147.305 123.849 146.869C123.665 146.434 123.397 146.04 123.059 145.709C122.722 145.379 122.321 145.118 121.881 144.946C121.442 144.772 120.972 144.687 120.5 144.698ZM120.5 153.564H99.2357C98.309 153.585 97.427 153.967 96.7787 154.63C96.1304 155.292 95.7674 156.182 95.7674 157.109C95.7674 158.037 96.1304 158.927 96.7787 159.589C97.427 160.252 98.309 160.634 99.2357 160.655H120.5C120.972 160.665 121.441 160.581 121.88 160.407C122.319 160.233 122.719 159.974 123.057 159.644C123.395 159.314 123.662 158.919 123.846 158.484C124.028 158.049 124.123 157.581 124.123 157.109C124.123 156.637 124.028 156.17 123.846 155.734C123.662 155.299 123.395 154.905 123.057 154.575C122.719 154.244 122.319 153.985 121.88 153.812C121.441 153.638 120.972 153.554 120.5 153.564Z" fill="white"/>
</g>
<rect x="1" y="1" width="218" height="218" rx="43" stroke="url(#paint2_linear_8960_14686)" stroke-width="2"/>
<defs>
<linearGradient id="paint0_linear_8960_14686" x1="15.4653" y1="-4.75166" x2="272.304" y2="276.753" gradientUnits="userSpaceOnUse">
<stop stop-color="white" stop-opacity="0.6"/>
<stop offset="0.5" stop-color="white" stop-opacity="0"/>
<stop offset="1" stop-color="white" stop-opacity="0.6"/>
</linearGradient>
<linearGradient id="paint1_linear_8960_14686" x1="47.6582" y1="-10.4164" x2="217.163" y2="243.373" gradientUnits="userSpaceOnUse">
<stop stop-color="white" stop-opacity="0.6"/>
<stop offset="0.5" stop-color="white" stop-opacity="0"/>
<stop offset="1" stop-color="white" stop-opacity="0.6"/>
</linearGradient>
<linearGradient id="paint2_linear_8960_14686" x1="1.07139e-06" y1="-5.5" x2="211" y2="215" gradientUnits="userSpaceOnUse">
<stop stop-color="white" stop-opacity="0.6"/>
<stop offset="0.5" stop-color="white" stop-opacity="0"/>
<stop offset="1" stop-color="white" stop-opacity="0.6"/>
</linearGradient>
<clipPath id="clip0_8960_14686">
<rect width="220" height="220" rx="44" fill="white"/>
</clipPath>
</defs>
</svg>
