<svg width="298" height="272" viewBox="0 0 298 272" fill="none" xmlns="http://www.w3.org/2000/svg">
<path opacity="0.4" fill-rule="evenodd" clip-rule="evenodd" d="M90.0348 2.64066C66.1034 -1.57908 43.2825 14.4003 39.0627 38.3317L16.1411 168.326C11.9214 192.258 27.9008 215.079 51.8322 219.298L66.756 221.93C67.4892 222.242 68.2349 222.537 68.9928 222.813L193.032 267.959C215.867 276.271 241.116 264.497 249.428 241.662L294.574 117.622C302.885 94.7873 291.112 69.5382 268.277 61.2269L254.536 56.2257C249.894 40.8273 236.949 28.5457 220.029 25.5622L90.0348 2.64066Z" fill="#00C1FF"/>
<path fill-rule="evenodd" clip-rule="evenodd" d="M67.3291 220L67.5401 220.09C68.2403 220.388 68.9527 220.67 69.6768 220.933L193.716 266.08C215.513 274.013 239.615 262.775 247.548 240.978L292.695 116.938C300.628 95.1412 289.39 71.0398 267.593 63.1063L252.91 57.7623L252.621 56.8029C248.189 42.0992 235.83 30.3792 219.682 27.5318L89.6875 4.61028C66.8439 0.582338 45.0603 15.8354 41.0323 38.679L18.1108 168.674C14.0828 191.517 29.3359 213.301 52.1795 217.329L67.3291 220ZM39.0627 38.3317C43.2824 14.4003 66.1034 -1.57908 90.0348 2.64066L220.029 25.5622C236.949 28.5457 249.894 40.8273 254.536 56.2257L268.277 61.2269C291.112 69.5382 302.885 94.7873 294.574 117.622L249.428 241.662C241.116 264.497 215.867 276.271 193.032 267.959L68.9928 222.813C68.2349 222.537 67.4892 222.242 66.756 221.93L51.8322 219.298C27.9008 215.079 11.9214 192.258 16.1411 168.326L39.0627 38.3317Z" fill="url(#paint0_linear_8960_14686)"/>
<path opacity="0.5" d="M39.0627 38.3317C43.2825 14.4003 66.1034 -1.57908 90.0348 2.64066L220.029 25.5622C243.961 29.782 259.94 52.6029 255.72 76.5343L232.799 206.529C228.579 230.46 205.758 246.44 181.827 242.22L51.8322 219.298C27.9008 215.079 11.9214 192.258 16.1411 168.326L39.0627 38.3317Z" fill="#00C1FF"/>
<path fill-rule="evenodd" clip-rule="evenodd" d="M219.682 27.5318L89.6875 4.61028C66.8439 0.582339 45.0603 15.8354 41.0323 38.679L18.1108 168.674C14.0828 191.517 29.3359 213.301 52.1795 217.329L182.174 240.25C205.018 244.278 226.801 229.025 230.829 206.182L253.751 76.187C257.779 53.3434 242.526 31.5598 219.682 27.5318ZM90.0348 2.64066C66.1034 -1.57908 43.2824 14.4003 39.0627 38.3317L16.1411 168.326C11.9214 192.258 27.9008 215.079 51.8322 219.298L181.827 242.22C205.758 246.44 228.579 230.46 232.799 206.529L255.72 76.5343C259.94 52.6029 243.961 29.782 220.029 25.5622L90.0348 2.64066Z" fill="url(#paint1_linear_8960_14686)"/>
<g clip-path="url(#clip0_8960_14686)">
<rect width="220" height="220" fill="#00C1FF"/>
<path d="M66.6008 172.795C68.3967 171.425 70.1926 170.179 72.0195 168.809C73.4748 167.719 76.5402 165.446 76.6022 165.353C139.521 117.216 151.597 81.1591 161.071 35.3569C132.771 106.691 90.1333 127.646 67.313 142.872C52.791 125.84 47.5581 102.363 55.6087 80.7855C61.7395 64.3764 74.3728 52.2331 89.7618 45.9746C67.4059 51.2367 48.2083 66.8362 39.7242 89.4726C28.2676 120.205 40.0958 154.206 66.508 172.857C66.508 172.857 66.508 172.857 66.6008 172.763V172.795Z" fill="#09121D"/>
<path d="M178.006 125.72C169.444 148.963 147.933 163.516 124.049 164.775C139.101 142.146 173.65 101.924 162.354 35.3569C158.779 90.686 141.444 120.193 99.9849 161.49C94.9978 166.403 89.7403 171.5 84.0622 176.873C83.5515 177.395 83.0107 177.855 82.5 178.377C83.6416 178.899 84.8734 179.36 85.985 179.82C122.727 193.944 163.225 175.982 176.504 139.782C179.478 131.645 180.8 123.325 180.71 115.188C180.199 118.688 179.238 122.25 178.006 125.75V125.72Z" fill="#09121D"/>
</g>
<rect x="1" y="1" width="218" height="218" rx="43" stroke="url(#paint2_linear_8960_14686)" stroke-width="2"/>
<defs>
<linearGradient id="paint0_linear_8960_14686" x1="15.4653" y1="-4.75166" x2="272.304" y2="276.753" gradientUnits="userSpaceOnUse">
<stop stop-color="white" stop-opacity="0.6"/>
<stop offset="0.5" stop-color="white" stop-opacity="0"/>
<stop offset="1" stop-color="white" stop-opacity="0.6"/>
</linearGradient>
<linearGradient id="paint1_linear_8960_14686" x1="47.6582" y1="-10.4164" x2="217.163" y2="243.373" gradientUnits="userSpaceOnUse">
<stop stop-color="white" stop-opacity="0.6"/>
<stop offset="0.5" stop-color="white" stop-opacity="0"/>
<stop offset="1" stop-color="white" stop-opacity="0.6"/>
</linearGradient>
<linearGradient id="paint2_linear_8960_14686" x1="1.07139e-06" y1="-5.5" x2="211" y2="215" gradientUnits="userSpaceOnUse">
<stop stop-color="white" stop-opacity="0.6"/>
<stop offset="0.5" stop-color="white" stop-opacity="0"/>
<stop offset="1" stop-color="white" stop-opacity="0.6"/>
</linearGradient>
<clipPath id="clip0_8960_14686">
<rect width="220" height="220" rx="44" fill="white"/>
</clipPath>
</defs>
</svg>
