<svg width="298" height="272" viewBox="0 0 298 272" fill="none" xmlns="http://www.w3.org/2000/svg">
<path opacity="0.4" fill-rule="evenodd" clip-rule="evenodd" d="M90.0348 2.64066C66.1034 -1.57908 43.2825 14.4003 39.0627 38.3317L16.1411 168.326C11.9214 192.258 27.9008 215.079 51.8322 219.298L66.756 221.93C67.4892 222.242 68.2349 222.537 68.9928 222.813L193.032 267.959C215.867 276.271 241.116 264.497 249.428 241.662L294.574 117.622C302.885 94.7873 291.112 69.5382 268.277 61.2269L254.536 56.2257C249.894 40.8273 236.949 28.5457 220.029 25.5622L90.0348 2.64066Z" fill="#2114A7"/>
<path fill-rule="evenodd" clip-rule="evenodd" d="M67.3291 220L67.5401 220.09C68.2403 220.388 68.9527 220.67 69.6768 220.933L193.716 266.08C215.513 274.013 239.615 262.775 247.548 240.978L292.695 116.938C300.628 95.1412 289.39 71.0398 267.593 63.1063L252.91 57.7623L252.621 56.8029C248.189 42.0992 235.83 30.3792 219.682 27.5318L89.6875 4.61028C66.8439 0.582338 45.0603 15.8354 41.0323 38.679L18.1108 168.674C14.0828 191.517 29.3359 213.301 52.1795 217.329L67.3291 220ZM39.0627 38.3317C43.2824 14.4003 66.1034 -1.57908 90.0348 2.64066L220.029 25.5622C236.949 28.5457 249.894 40.8273 254.536 56.2257L268.277 61.2269C291.112 69.5382 302.885 94.7873 294.574 117.622L249.428 241.662C241.116 264.497 215.867 276.271 193.032 267.959L68.9928 222.813C68.2349 222.537 67.4892 222.242 66.756 221.93L51.8322 219.298C27.9008 215.079 11.9214 192.258 16.1411 168.326L39.0627 38.3317Z" fill="url(#paint0_linear_8960_14686)"/>
<path opacity="0.5" d="M39.0627 38.3317C43.2825 14.4003 66.1034 -1.57908 90.0348 2.64066L220.029 25.5622C243.961 29.782 259.94 52.6029 255.72 76.5343L232.799 206.529C228.579 230.46 205.758 246.44 181.827 242.22L51.8322 219.298C27.9008 215.079 11.9214 192.258 16.1411 168.326L39.0627 38.3317Z" fill="#2114A7"/>
<path fill-rule="evenodd" clip-rule="evenodd" d="M219.682 27.5318L89.6875 4.61028C66.8439 0.582339 45.0603 15.8354 41.0323 38.679L18.1108 168.674C14.0828 191.517 29.3359 213.301 52.1795 217.329L182.174 240.25C205.018 244.278 226.801 229.025 230.829 206.182L253.751 76.187C257.779 53.3434 242.526 31.5598 219.682 27.5318ZM90.0348 2.64066C66.1034 -1.57908 43.2824 14.4003 39.0627 38.3317L16.1411 168.326C11.9214 192.258 27.9008 215.079 51.8322 219.298L181.827 242.22C205.758 246.44 228.579 230.46 232.799 206.529L255.72 76.5343C259.94 52.6029 243.961 29.782 220.029 25.5622L90.0348 2.64066Z" fill="url(#paint1_linear_8960_14686)"/>
<g clip-path="url(#clip0_8960_14686)">
<rect width="220" height="220" fill="url(#paint2_linear_8960_14686)"/>
<path d="M176.676 23.7512C176.687 23.7744 176.697 23.7968 176.708 23.8216C176.727 23.8646 176.75 23.9165 176.786 23.9902C176.02 24.8861 175.252 25.7803 174.485 26.6744L174.482 26.6773C171.779 29.827 169.076 32.9753 166.451 36.1813C165.522 37.3049 164.56 38.3929 163.598 39.4801C161.971 41.3186 160.347 43.1547 158.895 45.156C157.802 46.6353 156.365 47.1502 154.554 47.1502C128.014 47.118 101.474 47.118 74.9343 47.118C71.812 47.118 68.6583 47.4075 65.6609 48.2115C60.4464 49.5949 55.919 52.2645 52.391 56.7035C49.9242 59.7594 48.3942 63.2334 47.3014 66.9002C46.6459 69.1198 46.4273 71.4681 46.3962 73.8805C45.9599 95.5317 46.0272 117.17 46.0945 138.812C46.1332 151.251 46.1718 163.692 46.1149 176.138C46.1149 177.714 45.7714 178.968 44.6786 180.19C43.5259 181.49 42.3887 182.798 41.2514 184.106C40.1099 185.419 38.9665 186.734 37.8093 188.039C35.2769 190.923 31.4238 195.402 28.5245 198.772L27.131 200.391C26.1631 201.517 25.1952 202.611 24.196 203.737H23.5715V60.8851C23.5715 58.2155 23.9462 55.6099 24.6644 53.0367C25.2264 51.0424 25.9445 48.7582 26.569 47.3752C28.6922 42.6789 36.6543 29.7159 54.4827 24.8266C56.501 24.2762 58.6039 23.9584 60.6305 23.652L60.9463 23.6042H71.2212L71.3714 23.5713H176.595C176.634 23.6512 176.656 23.7036 176.676 23.7512Z" fill="white"/>
<path d="M68.9721 92.8546C68.3163 92.2111 68.254 91.3426 68.254 90.4741V74.7127C68.5038 70.9491 69.9089 69.5339 73.5929 69.5339H132.887C132.933 69.5339 132.979 69.5336 133.025 69.5331C133.066 69.5327 133.108 69.5322 133.149 69.5317C134.005 69.5208 134.869 69.5098 135.322 70.531C135.853 71.689 135.385 72.5898 134.666 73.4583C133.569 74.7516 132.472 76.0417 131.376 77.3306C129.009 80.1127 126.647 82.8898 124.3 85.6815C122.801 87.4504 121.272 89.2197 119.711 90.9245C118.368 92.4042 116.9 93.1764 114.808 93.1441C105.737 93.0839 96.6779 93.0864 87.6156 93.0888C82.1736 93.0903 76.7301 93.0917 71.2825 93.0796C71.1676 93.0846 71.0513 93.0918 70.9339 93.0991C70.2857 93.1392 69.6065 93.1813 68.9721 92.8546Z" fill="white"/>
<path d="M88.6388 127.498C90.4291 125.397 93.7284 121.419 98.5367 115.564H74.8068C70.7478 115.564 68.5934 118.749 68.5623 120.615C68.5205 124.259 68.5344 127.889 68.5483 131.524C68.5553 133.343 68.5623 135.163 68.5623 136.987C68.5623 142.745 73.3706 142.166 74.6508 141.78C76.3368 141.265 77.7109 140.333 78.8659 138.949C80.7953 136.634 82.7584 134.353 84.7215 132.072C86.0307 130.551 87.3398 129.03 88.6388 127.498Z" fill="white"/>
</g>
<rect x="1" y="1" width="218" height="218" rx="43" stroke="url(#paint3_linear_8960_14686)" stroke-width="2"/>
<defs>
<linearGradient id="paint0_linear_8960_14686" x1="15.4653" y1="-4.75166" x2="272.304" y2="276.753" gradientUnits="userSpaceOnUse">
<stop stop-color="white" stop-opacity="0.6"/>
<stop offset="0.5" stop-color="white" stop-opacity="0"/>
<stop offset="1" stop-color="white" stop-opacity="0.6"/>
</linearGradient>
<linearGradient id="paint1_linear_8960_14686" x1="47.6582" y1="-10.4164" x2="217.163" y2="243.373" gradientUnits="userSpaceOnUse">
<stop stop-color="white" stop-opacity="0.6"/>
<stop offset="0.5" stop-color="white" stop-opacity="0"/>
<stop offset="1" stop-color="white" stop-opacity="0.6"/>
</linearGradient>
<linearGradient id="paint2_linear_8960_14686" x1="-1.63913e-06" y1="110" x2="220" y2="110" gradientUnits="userSpaceOnUse">
<stop stop-color="#742CCE"/>
<stop offset="1" stop-color="#1510A1"/>
</linearGradient>
<linearGradient id="paint3_linear_8960_14686" x1="1.07139e-06" y1="-5.5" x2="211" y2="215" gradientUnits="userSpaceOnUse">
<stop stop-color="white" stop-opacity="0.6"/>
<stop offset="0.5" stop-color="white" stop-opacity="0"/>
<stop offset="1" stop-color="white" stop-opacity="0.6"/>
</linearGradient>
<clipPath id="clip0_8960_14686">
<rect width="220" height="220" rx="44" fill="white"/>
</clipPath>
</defs>
</svg>
