<svg width="298" height="272" viewBox="0 0 298 272" fill="none" xmlns="http://www.w3.org/2000/svg">
<path opacity="0.4" fill-rule="evenodd" clip-rule="evenodd" d="M90.0348 2.64066C66.1034 -1.57908 43.2825 14.4003 39.0627 38.3317L16.1411 168.326C11.9214 192.258 27.9008 215.079 51.8322 219.298L66.756 221.93C67.4892 222.242 68.2349 222.537 68.9928 222.813L193.032 267.959C215.867 276.271 241.116 264.497 249.428 241.662L294.574 117.622C302.885 94.7873 291.112 69.5382 268.277 61.2269L254.536 56.2257C249.894 40.8273 236.949 28.5457 220.029 25.5622L90.0348 2.64066Z" fill="#E95A0C"/>
<path fill-rule="evenodd" clip-rule="evenodd" d="M67.3291 220L67.5401 220.09C68.2403 220.388 68.9527 220.67 69.6768 220.933L193.716 266.08C215.513 274.013 239.615 262.775 247.548 240.978L292.695 116.938C300.628 95.1412 289.39 71.0398 267.593 63.1063L252.91 57.7623L252.621 56.8029C248.189 42.0992 235.83 30.3792 219.682 27.5318L89.6875 4.61028C66.8439 0.582338 45.0603 15.8354 41.0323 38.679L18.1108 168.674C14.0828 191.517 29.3359 213.301 52.1795 217.329L67.3291 220ZM39.0627 38.3317C43.2824 14.4003 66.1034 -1.57908 90.0348 2.64066L220.029 25.5622C236.949 28.5457 249.894 40.8273 254.536 56.2257L268.277 61.2269C291.112 69.5382 302.885 94.7873 294.574 117.622L249.428 241.662C241.116 264.497 215.867 276.271 193.032 267.959L68.9928 222.813C68.2349 222.537 67.4892 222.242 66.756 221.93L51.8322 219.298C27.9008 215.079 11.9214 192.258 16.1411 168.326L39.0627 38.3317Z" fill="url(#paint0_linear_8960_14686)"/>
<path opacity="0.5" d="M39.0627 38.3317C43.2825 14.4003 66.1034 -1.57908 90.0348 2.64066L220.029 25.5622C243.961 29.782 259.94 52.6029 255.72 76.5343L232.799 206.529C228.579 230.46 205.758 246.44 181.827 242.22L51.8322 219.298C27.9008 215.079 11.9214 192.258 16.1411 168.326L39.0627 38.3317Z" fill="#E95A0C"/>
<path fill-rule="evenodd" clip-rule="evenodd" d="M219.682 27.5318L89.6875 4.61028C66.8439 0.582339 45.0603 15.8354 41.0323 38.679L18.1108 168.674C14.0828 191.517 29.3359 213.301 52.1795 217.329L182.174 240.25C205.018 244.278 226.801 229.025 230.829 206.182L253.751 76.187C257.779 53.3434 242.526 31.5598 219.682 27.5318ZM90.0348 2.64066C66.1034 -1.57908 43.2824 14.4003 39.0627 38.3317L16.1411 168.326C11.9214 192.258 27.9008 215.079 51.8322 219.298L181.827 242.22C205.758 246.44 228.579 230.46 232.799 206.529L255.72 76.5343C259.94 52.6029 243.961 29.782 220.029 25.5622L90.0348 2.64066Z" fill="url(#paint1_linear_8960_14686)"/>
<g clip-path="url(#clip0_8960_14686)">
<rect width="220" height="220" fill="#E95A0C"/>
<path fill-rule="evenodd" clip-rule="evenodd" d="M49.5278 59.9954C50.3577 60.3677 51.2368 60.6605 52.0212 60.8756C40.7625 74.1432 33.9335 91.2789 33.9335 110C33.9335 151.952 68.051 186.066 110 186.066C128.31 186.066 145.129 179.564 158.264 168.747C159.263 169.101 160.237 169.371 161.152 169.516C147.393 181.361 129.538 188.572 110 188.572C66.6678 188.572 31.4285 153.329 31.4285 110C31.4285 90.9993 38.2451 73.5877 49.5278 59.9954ZM123.579 56.9519C138.268 62.8608 147.77 72.7461 151.994 84.7577C153.196 88.5495 153.596 92.1587 153.647 95.1201L153.645 96.5446L153.598 97.8482L153.518 99.018L153.364 100.493L153.206 101.595L153.05 102.481C153.036 102.582 153.11 102.563 153.253 102.48L153.867 102.093C154.56 101.675 155.601 101.191 156.62 101.686C158.336 102.516 160.906 104.768 160.268 108.782L160.01 108.686L159.743 108.622C159.756 107.971 159.039 107.349 158.559 107.006L158.139 106.734L157.718 106.579C156.491 106.173 154.01 105.758 151.271 108.394L149.559 110.041C147.486 112.062 146.291 113.453 146.448 115.094C146.649 117.154 150.018 118.609 151.935 118.015L152.885 117.716C153.534 117.5 153.879 117.338 154.319 117.001L154.916 116.498L155.296 116.156C155.551 115.93 155.864 115.55 156.205 115.08L156.162 115.041C156.237 115.075 156.313 115.105 156.383 115.105C156.6 115.105 156.776 115.075 156.93 115.033L155.956 116.755C156.522 116.604 157.083 116.411 157.632 116.21L159.238 115.617C160.018 115.344 160.757 115.131 161.437 115.094L162.508 115.005C164.018 114.908 166.403 115.054 169.228 117.685L169.818 117.598C170.625 117.516 172.076 117.502 172.992 118.284L173.589 118.824C174.489 119.7 175.347 120.909 175.347 122.87C173.588 120.188 172.072 119.397 171.227 119.171L170.885 119.103L170.51 119.093L170.125 120.084L169.768 120.848C169.357 121.663 168.786 122.584 168.083 123.197C167.889 123.367 167.669 123.529 167.434 123.69L166.305 124.428C165.01 125.286 163.706 126.351 163.659 128.413C163.644 129.179 163.986 129.968 164.685 130.694C166.027 132.086 168.321 132.846 170.633 132.846L171.018 132.803L171.719 132.69L172.513 132.531L172.981 132.412C173.05 132.392 173.114 132.372 173.172 132.351L172.639 132.651C172.263 132.838 171.528 133.124 170.502 133.153C170.063 133.732 169.032 134.411 167.183 134.08L166.699 134.548L165.996 135.272L165.21 136.132L164.57 136.886C164.076 137.499 163.708 138.044 163.686 138.326C163.637 138.864 163.827 139.246 164.077 139.638L164.474 140.252L164.819 140.874L165.379 142.022L165.796 143.012C166.56 144.965 167.239 147.596 166.588 149.809C166.155 151.267 165.5 152.68 164.629 154.054C169.089 158.365 168.099 165.179 167.251 166.212C166.256 167.407 163.813 168.136 160.114 166.343C158.833 165.724 155.949 164.014 154.549 162.94C150.993 164.942 145.804 166.596 141.283 167.796C142.166 164.57 141.252 161.467 140.356 159.495L139.951 158.669L139.588 158.026L139.209 157.452C136.979 157.61 133.596 156.105 130.541 154.397L129.16 153.6L127.246 152.419L125.62 151.353L124.39 150.508L123.518 149.885L123.177 150.594L122.719 151.647L122.356 152.566L122.166 153.083L121.782 154.22L121.414 155.474C120.472 158.958 119.934 163.479 121.755 167.244L121.973 167.67C122.769 168.998 123.634 170.416 124.988 171.767C120.22 172.908 115.243 173.511 110.124 173.511C75.0335 173.511 46.5857 145.129 46.5857 110.119C46.5857 106.174 46.9463 102.317 47.6366 98.5722C48.2255 98.4152 48.9391 98.8741 49.6524 99.4409L50.9087 100.468C51.3093 100.776 51.6827 101.013 52.0019 101.07C51.5449 104.019 51.3077 107.041 51.3077 110.119C51.3077 137.667 70.3388 160.769 95.9955 167.084L95.1917 166.571L94.3916 166.011L93.5983 165.405L92.8149 164.755L91.8543 163.882L90.9201 162.943L90.5552 162.551L89.4955 161.314L88.8221 160.442L88.4965 159.993L87.8694 159.069C87.666 158.755 87.4684 158.435 87.2771 158.11L86.7226 157.119L86.4605 156.612L85.9687 155.574C85.8122 155.223 85.6633 154.868 85.5225 154.507L85.125 153.413C81.5282 142.699 85.1982 128.252 108.763 115.439L110 114.778C133.056 102.654 137.093 87.752 134.828 76.0374L134.557 74.7724L134.239 73.5344L133.878 72.3251L133.479 71.1463L133.266 70.5688L132.697 69.1618L132.083 67.8097L131.565 66.7699L130.749 65.2839L130.186 64.345L129.611 63.4494L129.028 62.5989L128.441 61.7952L127.854 61.04L127.27 60.3351L126.693 59.6821L126.126 59.0828L125.573 58.539L125.039 58.0522L124.526 57.6243L124.038 57.257L123.579 56.9519ZM124.661 153.797L125.862 154.467L126.713 154.913L127.74 155.425L128.909 155.974L130.191 156.532L131.555 157.071C133.879 157.94 136.416 158.615 138.522 158.515C142.753 166.808 138.341 171.281 134.961 172.381C131.923 173.38 125.453 172.313 123.14 166.678C121.718 163.203 122.547 159.252 123.442 156.649L123.776 155.74L124.09 154.979L124.47 154.162L124.661 153.797ZM128.227 158.715L127.857 159.333L127.508 159.999C127.02 160.996 126.507 162.371 126.772 163.359L127.01 164.221L127.232 164.897C127.912 166.768 129.37 169.072 133.246 168.867C138.324 168.6 137.47 163.552 136.147 163.623L135.845 163.628L135.05 163.599L133.841 163.492L132.585 163.314L131.791 163.151C131.061 162.972 130.558 162.75 130.606 162.493C130.648 162.259 131.263 162.114 132.082 162.005L132.957 161.905L135.067 161.702L135.805 161.598C136.234 161.521 136.517 161.426 136.545 161.298C136.579 161.145 136.36 160.988 136.001 160.828L135.369 160.587L133.025 159.86C132.589 159.716 132.216 159.575 131.988 159.437L131.485 159.139L130.866 158.799L130.256 158.508C129.331 158.109 128.417 157.934 128.227 158.715ZM96.6984 154.313L96.5584 154.846C96.0191 157.383 96.4489 162.729 101.305 165.811C110.163 171.436 117.882 165.978 114.18 164.051C113.487 163.689 112.618 163.405 111.643 163.144L110.428 162.839L107.799 162.213L106.44 161.851C102.809 160.813 99.2367 159.131 97.9996 155.034L97.7955 154.237C97.5421 153.039 97.0324 153.276 96.6984 154.313ZM164.613 157.505L164.106 158.333C163.795 158.818 163.417 159.296 162.892 159.511C162.505 159.666 163.767 161.609 164.783 162.45C165.258 162.838 166.362 162.405 166.634 161.609C166.946 160.676 166.565 157.977 165.619 157.115C165.215 156.744 164.926 157.021 164.613 157.505ZM110 31.4287C153.323 31.4287 188.571 66.6697 188.571 110C188.571 129.26 181.578 146.898 170.036 160.581L169.821 158.785L169.585 157.144C179.87 144.168 186.062 127.805 186.062 110C186.062 68.0579 151.938 33.9332 110 33.9332C107.54 33.9332 105.107 34.075 102.7 34.3085C101.833 33.6161 100.661 32.8777 99.5072 32.2098C102.946 31.751 106.433 31.4287 110 31.4287ZM83.7945 46.7496C81.283 48.2513 79.4424 49.7375 79.787 53.5503C80.0007 55.8829 81.7069 58.5971 85.7814 58.8915L86.5251 58.9178C87.2756 58.9178 88.0791 58.8417 88.9292 58.7011C89.5305 58.5915 90.1152 58.4601 90.6931 58.3039C91.104 58.6018 91.5845 58.914 92.1419 59.2484L92.7252 59.5905C96.2042 61.627 100.398 62.1969 106.386 58.0154L107.242 57.4091L108.819 56.2342C110.793 54.7042 112.24 53.3285 112.956 52.2033L113.434 52.3441L114.385 52.6783C116.752 53.5999 119.036 55.161 121.036 57.2072L121.82 58.0512C130.908 68.3357 133.017 89.0274 106.741 103.759L105.614 104.378C83.3096 116.37 78.0024 129.694 78.4538 140.349L78.5328 141.59L78.6608 142.805L78.8339 143.992L79.0479 145.151L79.2987 146.278L79.5824 147.375L79.7353 147.91L80.0605 148.956L80.4084 149.966L80.7748 150.939L81.1558 151.874L81.7455 153.201L82.345 154.434L82.9405 155.567L83.8869 157.222L85.7345 160.122L84.9583 159.655L84.1301 159.105L83.2554 158.476L82.3399 157.769L81.3891 156.987L80.4084 156.131L78.8936 154.714L77.8625 153.683L76.8211 152.587L75.7746 151.426L74.7288 150.203L73.6891 148.92L72.4066 147.235L71.153 145.463L70.6622 144.731L69.7023 143.229C62.3087 131.262 58.0251 114.722 68.8159 98.0833C66.8884 98.8365 64.2922 99.6523 61.7374 99.6999C56.5434 99.7849 52.2306 99.1637 50.0253 96.1552C47.4736 95.8044 43.6828 94.5528 43.3373 88.9819C42.9855 83.318 48.3532 81.1075 49.4999 80.931L50.1571 80.1916C50.5268 79.8032 50.9799 79.4265 51.4353 79.4265L51.4952 79.3469L51.6689 79.0248L52.0369 78.2162L53.6694 74.3113L54.1623 73.2319C53.6362 72.7924 52.5826 71.3745 52.4871 70.311C52.4046 69.2527 52.7539 67.3928 54.1623 65.6151L55.4624 63.973C56.2395 62.966 56.8074 62.1431 56.9857 61.5561C57.0328 61.3932 57.0539 61.1489 57.0622 60.8507L57.0644 58.6347C57.0892 57.6252 57.1988 56.6227 57.5992 56.0573L58.2281 55.0859L58.4997 54.7162L58.8408 54.3168L59.2748 53.8835L59.8249 53.4122L60.1507 53.161L60.9183 52.625C62.0527 51.8792 63.6512 51.0047 65.9615 49.9578C71.5686 47.4095 79.419 45.7763 83.7945 46.7496ZM154.271 146.44L153.843 146.945L153.635 147.223L152.727 148.513C152.409 148.951 152.068 149.38 151.676 149.755C150.636 150.744 149.417 151.463 148.267 152.015L147.422 152.398L146.625 152.729L145.002 153.384L144.561 153.602C143.949 153.955 143.978 154.265 145.134 154.73C147.12 155.521 150.684 155.325 153.064 154.527C155.438 153.733 161.313 148.576 158.014 146.363C156.2 145.148 155.15 145.515 154.271 146.44ZM151.892 137.936L151.825 137.94L151.095 138.314C150.458 138.624 149.503 139.009 148.123 139.191L147.397 139.264C144.369 139.478 142.932 140.343 142.155 141.118C141.405 141.865 141.158 143.357 141.763 144.435C142.397 145.566 144.818 146.093 147.699 145.272C152.815 143.812 152.442 138.128 151.892 137.936ZM147.761 140.738C148.313 141.066 148.642 141.954 147.978 141.954C147.321 141.954 146.17 142.837 147.598 143.781C147.974 144.029 144.955 144.051 144.845 142.12C144.73 140.179 147.212 140.4 147.761 140.738ZM135.392 102.141L134.578 103.284L133.585 104.63C131.42 107.492 128.181 111.293 123.856 114.388L122.752 115.146C102.215 128.66 119.178 144.961 127.685 134.098C129.39 131.92 129.27 130.343 128.765 128.63L128.131 126.67C127.538 124.759 127.084 122.443 128.213 118.984C128.573 117.881 129.206 116.566 129.953 115.151L130.893 113.413L132.374 110.718L133.179 109.199C134.604 106.437 135.684 103.845 135.392 102.141ZM162.188 136.296C162.341 137.276 162.81 137.772 163.066 137.495L163.151 137.354C163.372 136.824 164.573 135.607 164.914 135.369L165.407 135.032C165.625 134.871 165.786 134.7 165.836 134.433C165.863 134.3 165.79 134.259 165.638 134.245L164.96 134.213C164.667 134.185 164.313 134.117 163.917 133.943L163.507 133.732C162.097 132.886 162.006 135.188 162.188 136.296ZM162.188 131.209C161.985 131.641 162.975 132.857 163.948 133.29C165.048 133.77 167.205 133.858 167.864 133.732L168.475 133.591C168.718 133.514 168.823 133.415 168.461 133.271L167.879 133.099L166.85 132.886C165.688 132.672 165.176 132.269 164.829 131.865L164.37 131.282L164.209 131.111C163.637 130.585 162.629 130.232 162.188 131.209ZM171.343 120.205C175.037 121.6 177.219 125.652 177.284 127.449C177.329 128.666 176.028 131.427 172.004 132.088C167.974 132.757 164.588 130.298 164.657 128.373C164.693 127.317 165.859 126.372 167.037 125.608L168.799 124.531C169.041 124.378 169.235 124.242 169.356 124.126C170.4 123.126 171.411 121.14 171.343 120.205ZM168.482 128.591C168.268 129.084 168.877 130.232 169.889 130.278L170.254 130.301L170.844 130.371L171.069 130.373L171.52 130.321C172.145 130.219 172.597 130.193 173.061 130.226L173.538 130.278C174.202 130.369 175.611 130.006 174.509 129.653L174.087 129.528L173.079 129.288C172.965 129.252 172.862 129.206 172.75 129.131L171.772 128.406C171.365 128.118 170.925 127.842 170.593 127.756C169.936 127.572 168.959 127.488 168.482 128.591ZM156.816 126.78C157.373 129.824 161.497 130.298 162.801 126.515C163.121 125.582 164.328 124.712 165.12 124.223L165.43 124.038L165.836 123.816C169.273 121.958 155.772 121.072 156.816 126.78ZM172.395 124.305C171.69 124.26 171.122 124.57 171.122 124.969C171.122 125.297 171.516 125.476 171.802 125.449L171.957 125.408C172.036 125.37 172.148 125.41 172.276 125.477L172.681 125.702C172.885 125.799 173.078 125.835 173.193 125.626C173.457 125.142 173.1 124.349 172.395 124.305ZM135.763 116.093C134.802 119.55 134.332 124.501 135.476 125.327C136.617 126.144 139.085 124.589 138.95 122.361L138.843 120.822L138.81 119.894C138.776 117.599 139.126 114.377 141.292 109.867C142.497 107.359 144.617 105.767 146.456 104.637L147.425 104.064L148.678 103.34C149.408 102.902 149.892 102.54 149.937 102.181C147.491 101.842 138.654 105.696 135.763 116.093ZM142.815 118.417C142.686 120.669 145.851 122.85 148.433 123.066C151.479 123.324 153.642 121.407 154.506 119.944C154.839 119.377 154.745 119.224 154.403 119.28L154.055 119.373L153.549 119.564L152.643 119.932L151.831 120.227L151.669 120.277C148.826 121.115 147.139 119.6 146.125 118.291L145.524 117.449L145.226 117.017C145.138 116.898 145.063 116.808 144.997 116.755C144.333 116.227 142.935 116.351 142.815 118.417ZM148.365 113.073C148.551 113.073 148.86 113.935 148.86 114.4C148.86 114.803 148.714 115.05 148.195 115.091L147.904 115.094C147.427 115.076 147.39 115.237 147.429 115.44L147.49 115.696L147.504 115.822C147.504 116.156 146.945 115.923 146.874 115.594L146.715 114.63L147.415 113.852L147.862 113.409L148.157 113.168C148.243 113.108 148.316 113.073 148.365 113.073ZM115.159 46.9212C147.897 49.4824 173.663 76.7971 173.663 110.119L173.632 111.505L173.402 115.903C172.982 115.484 172.396 115.355 171.751 115.256L170.752 115.1C170.074 114.969 169.389 114.74 168.804 114.156L168.915 111.428L168.941 110.119C168.941 78.7642 144.297 53.1559 113.28 51.5188C113.994 50.4492 114.655 48.6365 115.159 46.9212ZM155.937 103.549L155.338 103.558C154.326 103.618 152.828 103.924 151.271 105.005C148.494 106.932 146.053 109.99 145.525 112.042C145.16 113.462 145.327 115.027 145.856 115.693C145.722 114.366 146.181 112.57 146.848 111.645L146.999 111.445L147.739 110.585L148.666 109.607C149.851 108.399 151.324 107.049 152.324 106.46C153.867 105.573 155.792 105.214 156.686 105.442L156.944 105.54C157.676 105.939 158.796 104.21 156.62 103.613L156.364 103.577L155.937 103.549ZM158.267 113.455L158.564 114.303C158.781 114.913 158.614 114.906 158.348 114.774L157.91 114.543C157.812 114.498 157.719 114.467 157.641 114.467L157.34 114.508L156.755 114.69C156.645 114.715 156.523 114.732 156.383 114.732C156.105 114.732 156.24 114.294 156.463 113.829L156.753 113.286L157.046 112.813L157.076 112.77C157.622 112.077 157.964 112.648 158.267 113.455ZM159.921 109.059C160.477 109.193 161.866 110.251 162.297 110.913L162.809 111.753L163.136 112.355C163.441 112.957 163.642 113.518 163.417 113.638C163.3 113.7 163.18 113.643 163.032 113.521L162.477 113.007C162.092 112.668 161.555 112.289 160.745 112.109L160.37 112.036L159.673 111.949L159.066 111.893C158.239 111.805 157.808 111.638 158.169 110.551C158.252 110.298 159.257 108.892 159.921 109.059ZM150.629 110.611L150.805 110.616C151.076 110.707 152.092 111.846 151.83 112.314C151.773 112.44 151.516 112.451 151.199 112.431L150.527 112.373C150.304 112.356 150.095 112.349 149.944 112.377L149.428 112.499L148.928 112.64L148.905 112.499C148.874 112.238 148.864 111.679 149.285 111.382C149.661 111.116 150.079 110.82 150.404 110.682L150.629 110.611ZM155.927 108.461C157.242 109.88 157.378 111.708 157.206 111.778C157.17 111.793 157.053 111.744 156.887 111.656L156.276 111.301L154.768 110.388C154.273 110.132 153.218 109.822 152.784 109.849C152.358 109.88 151.865 109.723 151.865 109.322C151.865 108.956 152.456 108.123 152.854 107.862L153.238 107.625C153.784 107.344 154.714 107.147 155.927 108.461ZM154.111 109.457L156.103 110.622L156.62 110.913C156.691 110.647 155.827 109.121 155.067 108.728C154.64 108.501 153.582 108.856 154.111 109.457ZM111.015 63.203C108.826 64.4541 108.309 66.2355 108.192 68.5352L108.16 69.7282L108.16 71.8899C108.147 74.8047 107.95 78.2935 106.066 82.342C105.542 83.4679 104.528 84.9382 103.218 86.6188L102.027 88.1076L100.717 89.6807L98.5893 92.1571L93.3387 98.1468L91.145 100.698L89.6231 102.529L88.6896 103.693L87.4408 105.336L86.7268 106.35L86.4098 106.83L85.8634 107.729C84.974 109.298 84.7232 110.428 85.4423 110.885C86.5499 109.54 88.508 108.153 90.9574 106.64L92.6591 105.612L98.4012 102.252L99.42 101.644L101.484 100.383L102.412 99.7985L104.269 98.5878C111.989 93.4229 119.374 86.7208 120.942 77.2274C122.941 65.1326 115.635 60.5632 111.015 63.203ZM156.783 107.022L157.023 107.186C157.056 107.204 157.085 107.211 157.111 107.198C157.242 107.128 157.411 107.066 157.804 107.198C157.963 107.25 158.063 107.319 158.135 107.383L158.296 107.537L158.368 107.563L158.706 107.582L158.927 107.627C159.043 107.661 159.099 107.72 159.149 107.815L159.328 108.224C159.413 108.415 159.328 108.505 159.213 108.56L158.95 108.662C158.861 108.825 158.693 108.929 158.53 108.686L158.139 108.193L157.985 108.297C157.898 108.343 157.789 108.376 157.706 108.323L157.519 108.183L157.181 107.891L157.087 107.89L156.833 108.01C156.786 108.026 156.738 108.035 156.691 108.027C156.568 108.007 156.376 107.811 156.242 107.657L156.089 107.47C156.106 107.383 156.14 107.324 156.202 107.261L156.486 107.03C156.591 106.951 156.692 106.972 156.783 107.022ZM64.9772 86.6265L65.0386 86.8193C65.8292 89.0298 64.0688 90.1433 62.6566 90.1433L62.1865 90.1152L61.6933 90.0483L61.0334 89.9427C60.0618 89.7971 59.2246 89.7772 59.2246 90.8071C59.2246 92.35 63.586 93.4559 65.6945 91.863C68.33 89.8738 68.0253 87.3475 66.3565 85.4913C64.7825 83.7407 64.6739 85.5469 64.9772 86.6265ZM48.4444 82.3502C45.5363 83.5 44.1224 86.6864 44.3059 88.8119C44.4124 90.0537 45.9374 89.8745 47.3472 89.4061L48.0354 89.1531L48.359 89.0184L49.2848 88.5749L49.4999 88.4546C50.5575 87.8346 51.8708 87.4844 53.4616 87.8346C55.0432 88.1894 56.8316 86.2994 57.4215 85.2697C58.9853 82.5186 57.5617 81.441 56.1736 80.9874L55.6607 80.8445C54.1623 80.49 51.3497 81.1978 48.4444 82.3502ZM88.2135 65.4927L87.177 65.6151C84.8013 65.9722 83.772 67.3022 83.0262 68.7525L82.5594 69.7278C82.0365 70.8647 81.5423 71.9598 80.5767 72.612C79.1679 73.5638 77.6029 74.0477 75.4918 73.8602L74.6737 73.758C72.1054 73.3504 72.5539 74.9332 73.7984 75.9761C74.0908 76.2217 74.1723 76.6213 74.2089 77.1465L74.2624 78.2214C74.3478 79.5528 74.6523 81.3187 76.5042 83.2922C81.089 88.1778 93.2982 79.8949 94.5634 72.1411C95.4571 66.6632 92.4407 65.1301 88.2135 65.4927ZM60.0082 73.2377L59.271 73.3206L57.8374 73.5955L57.0153 73.8056C55.7506 74.1852 55.046 74.7343 55.3943 75.7956C55.6846 76.6553 58.8309 76.8604 61.0293 76.6001L62.9774 76.3288C64.1325 76.1825 65.0524 76.1802 66.0505 76.7713C66.2812 76.9078 66.5284 77.0778 66.7856 77.2655L68.3995 78.4776C69.3526 79.161 70.2741 79.6738 70.8925 79.3378C72.0327 78.7203 71.8651 76.4196 69.3972 75.0016C67.726 74.0458 66.6435 73.9641 65.8123 74.0428L64.712 74.1916L64.4662 74.2036C64.2554 74.2036 64.0231 74.1506 63.7661 74.0693L62.4304 73.5959C61.752 73.375 60.9538 73.1896 60.0082 73.2377ZM74.5427 66.4686C71.9207 68.6045 70.9293 70.1459 71.715 71.0909C72.4955 72.0343 76.3308 71.5445 77.1699 71.3164C80.1971 70.4927 81.7934 67.0886 80.3027 65.217C79.4706 64.1716 77.4406 64.0995 74.5427 66.4686ZM59.9757 63.4074C58.0381 64.1136 53.8999 67.3001 55.2184 69.1585C56.017 70.28 58.659 70.9334 59.271 70.221C59.4562 70.0106 59.5382 69.6476 59.5907 69.2043L59.7334 67.7057C59.8232 66.9968 59.9918 66.2734 60.4143 65.7069C61.4731 64.2929 61.9114 62.7021 59.9757 63.4074ZM77.4959 67.6957C78.1972 69.2051 77.0545 70.0918 76.2624 70.0918C75.7237 70.0918 74.5906 69.6499 74.7671 69.0259C74.7901 68.9411 74.8713 68.9073 74.9819 68.8942L75.5818 68.8743C75.8508 68.8376 76.0656 68.7033 75.9969 68.2307C75.9643 67.9996 75.7701 67.9175 75.5401 67.8818L75.0695 67.8418C74.8476 67.8223 74.6737 67.7807 74.6737 67.6144C74.6737 66.9738 76.696 66.0058 77.4959 67.6957ZM70.9335 50.5081L69.9966 50.9047L68.9564 51.3733L65.9044 52.505L64.4847 53.0637C63.0518 53.6501 61.6445 54.3061 60.8525 54.9115C59.0067 56.328 63.0547 58.0952 65.1657 57.4728C66.6775 57.0317 66.9729 57.1774 67.276 57.9424L67.7217 59.1599C68.4255 60.9272 71.5048 64.0258 71.3268 61.8191C71.1568 59.597 71.7675 55.444 72.4771 53.9383C72.6275 53.6152 72.8589 53.3085 73.1184 53.0156L74.181 51.911C74.7421 51.3021 75.0726 50.7488 74.501 50.2169C73.7963 49.5651 72.258 49.985 70.9335 50.5081ZM110.596 49.2464C111.383 49.7774 109.802 52.9614 104.788 57.0796C99.7657 61.1967 96.8637 60.3974 93.8292 58.5403C92.9889 58.0308 92.3198 57.5722 91.8023 57.1606C93.6598 56.4839 95.3626 55.4941 96.891 54.1933C98.0088 53.2449 99.0367 52.1336 99.9707 50.8691L100.922 50.5568L101.759 50.3222C102.138 50.2287 102.453 50.1745 102.671 50.1745L103.605 50.1542L104.534 50.0708L106.503 49.7774C106.914 49.7192 107.306 49.6347 107.674 49.5441L108.71 49.2747C109.512 49.0692 110.155 48.9534 110.596 49.2464ZM64.0673 36.4415L64.7117 36.4562C64.9741 36.4777 65.1382 36.5213 65.1657 36.5923C65.1783 36.6238 65.1218 36.6764 65.0062 36.7487L64.4923 37.0235L61.4321 38.4769L60.1083 39.1439L59.5001 39.4658L58.275 40.1528L57.074 40.8926C54.5286 42.5485 52.4528 44.5361 52.7996 46.5937C53.1142 48.464 55.3725 50.3949 59.418 51.8451C58.2785 52.6674 57.6398 53.3569 57.1981 53.9524L56.8108 54.5181L56.6453 54.7802C56.5462 54.9385 56.4651 55.0674 56.3755 55.1899C55.5646 56.3332 55.5447 58.0851 55.5634 59.6667C51.1266 58.0799 45.0993 54.8382 45.0993 49.7774C45.0993 43.9892 50.0629 39.3478 57.1746 37.4272L58.4889 37.0964L58.7663 37.0383L59.7581 36.8648L60.9048 36.7037L62.0981 36.5696L63.2293 36.477L64.0673 36.4415ZM106.382 52.5982L106.16 52.6449L101.911 54.0607L101.03 54.3359C100.113 54.6038 99.5442 54.6878 98.959 54.6069L98.7062 54.5623C98.4594 54.5061 98.4243 54.5307 98.478 54.6229L98.7147 54.9669C99.0665 55.5422 99.333 56.6304 96.1959 57.8752L96.7215 57.8941L97.3174 57.8786C98.8051 57.7986 101.474 57.3561 103.462 55.355L104.484 54.3749L105.337 53.6206L106.261 52.836L106.417 52.6781C106.461 52.6205 106.452 52.5945 106.382 52.5982ZM92.3901 32.1067C104.185 34.2377 103.995 41.9908 101.441 47.0332C98.8851 52.0771 94.8384 56.1515 88.6714 57.215C84.0529 58.0135 82.3063 56.254 81.6455 54.7354L81.463 54.242C81.4139 54.0831 81.3758 53.9309 81.3462 53.7895L81.2805 53.4009C80.9322 50.6994 82.4119 49.4454 85.2053 47.7084L87.177 46.5062C91.2229 44.026 93.0352 41.1774 92.2833 38.7979C91.2427 35.5054 86.7193 34.6442 82.6808 34.4534L80.6099 34.4053L79.3442 34.4142L76.8649 34.4542L76.2489 34.4322C76.0059 34.4107 75.8652 34.3714 75.8486 34.3046C75.8486 34.2687 75.9229 34.1998 76.0667 34.1067L76.4455 33.8913L77.0014 33.6276L77.3431 33.4826L78.1486 33.1765L79.1101 32.862L80.2192 32.5551C83.1692 31.8107 87.4234 31.2872 92.3901 32.1067ZM52.7321 42.67C52.0019 43.0991 49.6224 45.2426 49.7905 47.8735C49.922 49.9771 51.2866 51.4381 52.1424 52.1152L52.9245 52.6757L53.781 53.2664L54.3745 53.6532C54.8527 53.9478 55.0099 53.98 55.0671 53.8808L55.099 53.7426L55.1134 53.5459C55.1462 53.2215 55.2852 52.7977 56.276 52.7162L56.6388 52.7023C57.2522 52.7023 57.0271 52.4553 56.4251 52.0961L55.613 51.6517L54.6288 51.1554L54.1483 50.8633C53.402 50.3717 52.1305 49.3989 51.6493 48.4395C50.7878 46.7115 51.2258 45.3753 51.9866 43.9681L52.7321 42.67ZM91.2656 35.4594C97.2056 40.7287 91.756 46.3309 90.3853 45.7533L90.1259 46.005L87.841 47.7702L86.9235 48.5092L86.5773 48.8028L85.9572 49.3673C85.3055 49.9998 84.9411 50.5212 85.2441 50.7273C86.2282 50.2115 86.4226 50.4763 86.4874 50.881L86.5438 51.3847L86.5883 51.5751C86.7091 51.9274 87.0534 52.0759 88.2267 51.4333L89.0734 50.9232L90.1687 50.1753L91.2462 49.3842C91.4759 49.2113 91.7426 49.0099 92.0314 48.7817L92.9487 48.0187C94.3788 46.7593 95.9517 44.995 96.3027 42.8916C96.7577 40.1692 94.7119 38.0937 93.0663 36.7982L92.2904 36.2161L91.4278 35.5948L91.2656 35.4594ZM84.6465 35.7029C85.6262 36.1286 86.6323 36.7176 87.5352 37.3259C78.4093 40.1575 70.0411 44.6871 62.7321 50.5084C61.6383 50.56 60.3873 50.3666 59.3186 50.1113C66.7285 43.8596 75.2845 38.9075 84.6465 35.7029Z" fill="white"/>
</g>
<rect x="1" y="1" width="218" height="218" rx="43" stroke="url(#paint2_linear_8960_14686)" stroke-width="2"/>
<defs>
<linearGradient id="paint0_linear_8960_14686" x1="15.4653" y1="-4.75166" x2="272.304" y2="276.753" gradientUnits="userSpaceOnUse">
<stop stop-color="white" stop-opacity="0.6"/>
<stop offset="0.5" stop-color="white" stop-opacity="0"/>
<stop offset="1" stop-color="white" stop-opacity="0.6"/>
</linearGradient>
<linearGradient id="paint1_linear_8960_14686" x1="47.6582" y1="-10.4164" x2="217.163" y2="243.373" gradientUnits="userSpaceOnUse">
<stop stop-color="white" stop-opacity="0.6"/>
<stop offset="0.5" stop-color="white" stop-opacity="0"/>
<stop offset="1" stop-color="white" stop-opacity="0.6"/>
</linearGradient>
<linearGradient id="paint2_linear_8960_14686" x1="1.07139e-06" y1="-5.5" x2="211" y2="215" gradientUnits="userSpaceOnUse">
<stop stop-color="white" stop-opacity="0.6"/>
<stop offset="0.5" stop-color="white" stop-opacity="0"/>
<stop offset="1" stop-color="white" stop-opacity="0.6"/>
</linearGradient>
<clipPath id="clip0_8960_14686">
<rect width="220" height="220" rx="44" fill="white"/>
</clipPath>
</defs>
</svg>
