<svg width="298" height="272" viewBox="0 0 298 272" fill="none" xmlns="http://www.w3.org/2000/svg">
<path opacity="0.4" fill-rule="evenodd" clip-rule="evenodd" d="M90.0348 2.64066C66.1034 -1.57908 43.2825 14.4003 39.0627 38.3317L16.1411 168.326C11.9214 192.258 27.9008 215.079 51.8322 219.298L66.756 221.93C67.4892 222.242 68.2349 222.537 68.9928 222.813L193.032 267.959C215.867 276.271 241.116 264.497 249.428 241.662L294.574 117.622C302.885 94.7873 291.112 69.5382 268.277 61.2269L254.536 56.2257C249.894 40.8273 236.949 28.5457 220.029 25.5622L90.0348 2.64066Z" fill="#FC5000"/>
<path fill-rule="evenodd" clip-rule="evenodd" d="M67.3291 220L67.5401 220.09C68.2403 220.388 68.9527 220.67 69.6768 220.933L193.716 266.08C215.513 274.013 239.615 262.775 247.548 240.978L292.695 116.938C300.628 95.1412 289.39 71.0398 267.593 63.1063L252.91 57.7623L252.621 56.8029C248.189 42.0992 235.83 30.3792 219.682 27.5318L89.6875 4.61028C66.8439 0.582338 45.0603 15.8354 41.0323 38.679L18.1108 168.674C14.0828 191.517 29.3359 213.301 52.1795 217.329L67.3291 220ZM39.0627 38.3317C43.2824 14.4003 66.1034 -1.57908 90.0348 2.64066L220.029 25.5622C236.949 28.5457 249.894 40.8273 254.536 56.2257L268.277 61.2269C291.112 69.5382 302.885 94.7873 294.574 117.622L249.428 241.662C241.116 264.497 215.867 276.271 193.032 267.959L68.9928 222.813C68.2349 222.537 67.4892 222.242 66.756 221.93L51.8322 219.298C27.9008 215.079 11.9214 192.258 16.1411 168.326L39.0627 38.3317Z" fill="url(#paint0_linear_8960_14686)"/>
<path opacity="0.5" d="M39.0627 38.3317C43.2825 14.4003 66.1034 -1.57908 90.0348 2.64066L220.029 25.5622C243.961 29.782 259.94 52.6029 255.72 76.5343L232.799 206.529C228.579 230.46 205.758 246.44 181.827 242.22L51.8322 219.298C27.9008 215.079 11.9214 192.258 16.1411 168.326L39.0627 38.3317Z" fill="#FC5000"/>
<path fill-rule="evenodd" clip-rule="evenodd" d="M219.682 27.5318L89.6875 4.61028C66.8439 0.582339 45.0603 15.8354 41.0323 38.679L18.1108 168.674C14.0828 191.517 29.3359 213.301 52.1795 217.329L182.174 240.25C205.018 244.278 226.801 229.025 230.829 206.182L253.751 76.187C257.779 53.3434 242.526 31.5598 219.682 27.5318ZM90.0348 2.64066C66.1034 -1.57908 43.2824 14.4003 39.0627 38.3317L16.1411 168.326C11.9214 192.258 27.9008 215.079 51.8322 219.298L181.827 242.22C205.758 246.44 228.579 230.46 232.799 206.529L255.72 76.5343C259.94 52.6029 243.961 29.782 220.029 25.5622L90.0348 2.64066Z" fill="url(#paint1_linear_8960_14686)"/>
<g clip-path="url(#clip0_8960_14686)">
<rect width="220" height="220" fill="#FC5000"/>
<path d="M172.468 62.3121C172.32 62.0707 172.32 62.1796 172.468 62.639L135.422 142.12C135.288 142.411 135.152 142.411 135.015 142.12L110.433 89.3606C110.421 89.3373 110.403 89.3177 110.381 89.3041C110.359 89.2904 110.333 89.2832 110.307 89.2832C110.281 89.2832 110.256 89.2904 110.234 89.3041C110.211 89.3177 110.194 89.3373 110.182 89.3606L77.0143 160.593C76.9608 160.714 76.9608 160.834 77.0143 160.955L85.2083 178.523C85.302 178.721 85.3958 178.721 85.4896 178.523L110.157 125.588C110.264 125.363 110.369 125.363 110.473 125.588L135.07 178.493C135.081 178.518 135.099 178.538 135.122 178.553C135.145 178.568 135.171 178.576 135.198 178.576C135.225 178.576 135.252 178.568 135.274 178.553C135.297 178.538 135.315 178.518 135.326 178.493L181.857 78.6478C181.904 78.6243 181.949 78.6009 181.993 78.5774C189.271 95.8218 190.51 113.257 185.71 130.884C177.461 161.176 151.146 184.181 119.632 187.978C58.823 195.301 13.337 133.449 38.5015 77.6117C38.5718 77.4575 38.6924 77.3804 38.8632 77.3804L81.581 77.3502C81.8322 77.3502 81.9059 77.4642 81.8021 77.6922L60.1543 124.205C60.0739 124.379 60.0739 124.555 60.1543 124.733L68.313 142.281C68.3248 142.304 68.3427 142.324 68.3649 142.337C68.3871 142.351 68.4126 142.358 68.4386 142.358C68.4647 142.358 68.4902 142.351 68.5124 142.337C68.5346 142.324 68.5525 142.304 68.5642 142.281L98.6671 77.657C98.7308 77.5195 98.8396 77.4508 98.9937 77.4508L148.443 77.315C148.608 77.315 148.725 77.2396 148.795 77.0887L155.648 62.3976C155.731 62.2199 155.674 62.131 155.477 62.131H48.1071C48.0753 62.1309 48.0443 62.1216 48.0176 62.1043C47.9909 62.0871 47.9695 62.0624 47.956 62.0332C47.9424 62.0039 47.9371 61.9712 47.9408 61.9387C47.9444 61.9063 47.9568 61.8753 47.9765 61.8494C80.32 20.824 140.41 21.6035 172.468 62.3121Z" fill="white"/>
<path d="M183.248 78.4984C183.201 78.5227 183.153 78.5471 183.102 78.5715L172.976 61.9411C172.817 61.464 172.817 61.3508 172.976 61.6015L182.43 43.3933C182.553 43.1565 182.683 43.1547 182.82 43.3881L192.399 59.8878C192.462 59.9991 192.497 60.1237 192.5 60.251C192.503 60.3784 192.474 60.5047 192.415 60.6193L183.248 78.4984Z" fill="white"/>
</g>
<rect x="1" y="1" width="218" height="218" rx="43" stroke="url(#paint2_linear_8960_14686)" stroke-width="2"/>
<defs>
<linearGradient id="paint0_linear_8960_14686" x1="15.4653" y1="-4.75166" x2="272.304" y2="276.753" gradientUnits="userSpaceOnUse">
<stop stop-color="white" stop-opacity="0.6"/>
<stop offset="0.5" stop-color="white" stop-opacity="0"/>
<stop offset="1" stop-color="white" stop-opacity="0.6"/>
</linearGradient>
<linearGradient id="paint1_linear_8960_14686" x1="47.6582" y1="-10.4164" x2="217.163" y2="243.373" gradientUnits="userSpaceOnUse">
<stop stop-color="white" stop-opacity="0.6"/>
<stop offset="0.5" stop-color="white" stop-opacity="0"/>
<stop offset="1" stop-color="white" stop-opacity="0.6"/>
</linearGradient>
<linearGradient id="paint2_linear_8960_14686" x1="1.07139e-06" y1="-5.5" x2="211" y2="215" gradientUnits="userSpaceOnUse">
<stop stop-color="white" stop-opacity="0.6"/>
<stop offset="0.5" stop-color="white" stop-opacity="0"/>
<stop offset="1" stop-color="white" stop-opacity="0.6"/>
</linearGradient>
<clipPath id="clip0_8960_14686">
<rect width="220" height="220" rx="44" fill="white"/>
</clipPath>
</defs>
</svg>
