<!-- by TradingView --><svg width="18" height="18" viewBox="0 0 18 18" xmlns="http://www.w3.org/2000/svg"><path fill="#CC2F3C" d="M0 0h18v18H0z"/><path fill-rule="evenodd" d="M11.71 11.33c-.16-.02-.3-.05-.43-.1a1 1 0 0 1-.68-.8H9.28c.03.4.14.8.4 1.12.23.29.55.51.94.66.33.13.69.2 1.1.22V13h.8v-.59c.3-.04.6-.1.87-.21.77-.31 1.32-.97 1.32-1.81v-.01c0-.53-.19-.95-.53-1.25-.34-.3-.85-.52-1.54-.66l-.13-.03v-1.7l.1.03c.4.14.58.42.67.8h1.32c-.1-.82-.5-1.45-1.3-1.76-.24-.1-.5-.16-.79-.2V5h-.8v.59c-.4.02-.76.1-1.09.24A1.9 1.9 0 0 0 9.4 7.57c0 1.16.96 1.71 1.99 1.93l.33.07v1.76Zm0-3.05V6.69a1.5 1.5 0 0 0-.4.1c-.3.1-.54.34-.54.67v.01c0 .51.51.7.94.8Zm.8 1.47v1.56c.1-.02.18-.04.25-.07.32-.12.55-.36.55-.72a.63.63 0 0 0-.23-.51c-.11-.1-.3-.19-.57-.26Zm-5.2 2.44c-.42.21-.9.32-1.43.32-.64 0-1.2-.15-1.67-.43a2.8 2.8 0 0 1-1.08-1.2A4.3 4.3 0 0 1 2.75 9c0-.73.13-1.36.39-1.88.25-.52.61-.92 1.08-1.2a3.16 3.16 0 0 1 1.66-.42c.53 0 1 .1 1.42.32a2.63 2.63 0 0 1 1.44 2.15V8H7.42l-.02-.06a1.67 1.67 0 0 0-.28-.66c-.13-.18-.3-.32-.51-.42-.2-.1-.45-.16-.72-.16-.35 0-.66.1-.91.28-.26.18-.46.45-.6.8-.14.33-.21.74-.21 1.21 0 .48.07.9.2 1.24.15.34.35.6.6.8.27.18.57.27.92.27.26 0 .5-.05.7-.15.22-.1.39-.24.53-.43s.24-.42.3-.69V10h1.34v.04a2.63 2.63 0 0 1-1.45 2.15Z" fill="#fff"/></svg>