<!-- by TradingView --><svg width="18" height="18" viewBox="0 0 18 18" xmlns="http://www.w3.org/2000/svg"><path fill="#10508D" d="M0 0h18v18H0z"/><path d="M7.4 4.5h-.97v4l.18.24.78-1.02V4.5Zm-.97 5.06.32-.42.64-.84v5.2h-.96V9.56ZM6.1 8.08V4.5H4.82v1.94l1.29 1.64Zm0 1.9v3.52H4.82v-1.84l1.29-1.68Zm1.6 3.47 1.13-1.44V6.39L7.7 7.88v5.57ZM9.16 12l1.13 1.45V7.86L9.16 6.37V12Zm1.45 1.5h.96V9.56l-.32-.42-.64-.85v5.21Zm.96-5-.18.24-.78-1.03V4.5h.96v4Zm.32 1.48v3.52h1.29v-1.84l-1.29-1.68Zm0-1.9V4.5h1.29v1.94l-1.29 1.65Zm-1.6-3.56L9.23 5.9l1.06 1.39V4.52Zm-1.5 1.4L7.7 4.51V7.3l1.07-1.39Z" fill="#fff"/></svg>