<!-- by TradingView --><svg width="18" height="18" viewBox="0 0 18 18" xmlns="http://www.w3.org/2000/svg"><path fill="#F0F3FA" d="M0 0h18v18H0z"/><path d="m8.64 6.11-.21-1.76c-.24.03-.56.1-.8.17l.52 1.7c.16-.05.32-.09.49-.11ZM9.36 11.89l.21 1.76c.24-.03.56-.1.8-.17l-.52-1.7c-.16.06-.32.09-.49.11Z" fill="#00B6B8"/><path d="m8.64 6.11-.21-1.76c-.24.03-.56.1-.8.17l.52 1.7c.16-.05.32-.09.49-.11ZM4.69 7.17c-.1.22-.2.54-.25.78l1.72.39c.04-.16.1-.32.16-.47l-1.63-.7ZM5.8 12.42l1.2-1.3a2.94 2.94 0 0 1-.32-.36l-1.42 1.06c.14.2.37.44.55.6ZM9.36 11.89l.21 1.76c.24-.03.56-.1.8-.17l-.52-1.7c-.16.06-.32.09-.49.11ZM13.31 10.83c.1-.22.2-.54.25-.78l-1.72-.39c-.04.16-.1.32-.16.47l1.63.7ZM12.2 5.58 11 6.88c.11.1.22.23.32.36l1.42-1.06c-.14-.2-.37-.44-.55-.6Z" fill="#00BABA"/><path d="m8.15 11.79-.21.7-.39 1.29c.27.08.55.14.84.17l.05-.43.2-1.63a2.87 2.87 0 0 1-.49-.1ZM9.85 6.21l.2-.69.4-1.3a4.97 4.97 0 0 0-.84-.17l-.05.4-.2 1.66c.17.02.33.05.49.1ZM6.68 7.24c.1-.13.2-.25.33-.37l-.49-.52-.93-.99c-.2.2-.4.4-.57.63l.33.26 1.33 1ZM4.4 10.95l.4-.17 1.52-.65c-.07-.15-.12-.3-.16-.47l-.7.16-1.32.31c.06.28.15.55.26.82Z" fill="#8DD906"/><path d="m8.15 11.79-.21.7-.39 1.29c.27.08.55.14.84.17l.05-.43.2-1.63a2.87 2.87 0 0 1-.49-.1ZM11.32 10.76c-.1.13-.2.25-.33.37l.5.53.92.98c.2-.2.4-.4.57-.63l-.34-.26-1.32-1ZM13.6 7.05l-.4.17-1.51.65c.06.15.11.3.15.47l.71-.17 1.31-.3a5.05 5.05 0 0 0-.26-.82ZM9.85 6.21l.2-.69.4-1.3a4.97 4.97 0 0 0-.84-.17l-.05.4-.2 1.66c.17.02.33.05.49.1Z" fill="#8DD906"/><path d="M7.22 3.83c-.3.1-.6.24-.87.39l.93 1.67c.18-.1.37-.18.56-.24l-.62-1.82ZM3.63 7.96c-.06.3-.09.63-.1.94l1.93.03c0-.2.02-.4.06-.6l-1.89-.37ZM5.42 13.13c.24.2.5.4.77.55l.98-1.65c-.17-.1-.33-.22-.49-.36l-1.26 1.46ZM10.78 14.17c.3-.1.6-.24.87-.39l-.94-1.68c-.17.1-.36.18-.55.24l.62 1.83ZM14.37 10.04c.06-.3.09-.63.1-.94l-1.93-.03c0 .2-.02.4-.06.6l1.89.37ZM12.58 4.87c-.24-.2-.5-.4-.77-.55l-.98 1.64c.18.1.34.23.5.36l1.25-1.45Z" fill="#0183D9"/><path d="M6.18 4.32c-.27.16-.53.35-.77.56l1.27 1.44c.15-.13.31-.25.49-.36l-.99-1.64ZM3.54 9.1a5.56 5.56 0 0 0 .1.94l1.88-.37c-.03-.2-.06-.4-.06-.6l-1.92.03ZM6.35 13.78c.28.15.57.28.87.39l.62-1.82a3.5 3.5 0 0 1-.55-.25l-.94 1.68ZM11.82 13.68c.27-.16.53-.35.77-.56l-1.27-1.45c-.15.14-.32.26-.5.36l1 1.65ZM14.46 8.9a5.52 5.52 0 0 0-.1-.94l-1.88.37c.04.2.06.4.06.6l1.92-.03ZM10.73 5.87l.92-1.65a5.49 5.49 0 0 0-.87-.39l-.62 1.82c.2.06.38.15.56.24l.01-.02Z" fill="#00A1DF"/><path d="M4.52 5.87c-.18.26-.34.53-.47.82l1.74.8c.09-.18.19-.35.3-.52l-1.57-1.1ZM4.05 11.31c.13.29.3.56.47.82l1.58-1.1a3.52 3.52 0 0 1-.3-.53l-1.75.81ZM13.48 12.13c.18-.26.34-.53.47-.82l-1.74-.81c-.09.18-.2.36-.3.53l1.57 1.1ZM13.95 6.69c-.13-.29-.29-.56-.47-.82l-1.57 1.1c.11.17.21.34.3.53l1.74-.81ZM9.3 5.46l.17-1.9a5.53 5.53 0 0 0-.95 0l.17 1.9a3.54 3.54 0 0 1 .61 0ZM8.7 12.53l-.17 1.91a5.5 5.5 0 0 0 .95 0l-.18-1.91a3.65 3.65 0 0 1-.6 0Z" fill="#00C000"/></svg>