<!-- by TradingView --><svg width="18" height="18" viewBox="0 0 18 18" xmlns="http://www.w3.org/2000/svg"><path d="M0 0h18v18H0V0Z" fill="#0089D0"/><path d="M5.34 7.4H2.91c-.18 0-.34-.14-.34-.33 0-.18.16-.32.34-.32h2.43c.73 0 1.32.58 1.32 1.3a1.27 1.27 0 0 1-.43.95 1.28 1.28 0 0 1-.89 2.25H2.91c-.18 0-.34-.13-.34-.32s.16-.32.34-.32h2.43c.35 0 .63-.31.63-.65a.64.64 0 0 0-.63-.64H2.91c-.18 0-.34-.13-.34-.32s.16-.32.34-.32h2.43c.35 0 .63-.3.63-.64a.65.65 0 0 0-.63-.65Zm7.32 0h2.43c.18 0 .34-.14.34-.33 0-.18-.15-.32-.34-.32h-2.43a1.3 1.3 0 0 0-1.32 1.3c0 .37.17.71.43.95a1.28 1.28 0 0 0-.43.96c0 .71.59 1.29 1.32 1.29h2.43c.18 0 .34-.13.34-.32s-.15-.32-.34-.32h-2.43a.65.65 0 0 1-.63-.65c0-.34.28-.64.63-.64h2.43c.18 0 .34-.13.34-.32s-.15-.32-.34-.32h-2.43a.64.64 0 0 1-.63-.64c0-.34.28-.65.63-.65Zm-4.3 0h2.22c.2 0 .35-.14.35-.33s-.15-.32-.35-.32H8.31c-.73 0-1.24.58-1.24 1.3 0 .7.51 1.27 1.24 1.27h1.36c.35 0 .62.3.62.64s-.27.65-.62.65H7.41c-.18 0-.34.13-.34.32s.16.32.34.32h2.35c.73 0 1.17-.58 1.17-1.3 0-.7-.44-1.27-1.17-1.27h-1.4a.65.65 0 0 1-.65-.63c0-.35.3-.66.65-.66Z" fill="#fff"/></svg>