<!-- by TradingView --><svg width="18" height="18" viewBox="0 0 18 18" xmlns="http://www.w3.org/2000/svg"><path fill="#F0F3FA" d="M0 0h18v18H0z"/><path d="m13.98 4 .02.02v.01a1.8 1.8 0 0 1-.19.61.65.65 0 0 0-.05.15l-.08.27c-.18.38-.71.43-1.04.25-.08-.04-.15-.1-.22-.15l-.03-.01h-.02l-.03.01-.01.03a1.1 1.1 0 0 0 0 .51 3.02 3.02 0 0 1 .1.7h.03c.95.24.66 1.52.56 2.21-.05.34.02 1.03.41 1.14.02 0 .03 0 .03.02v.03l-.13 1.08c-.07.58.12 1.04.45 1.5a.15.15 0 0 1 .03.12l-.18.81c0 .01 0 .03-.02.03a.06.06 0 0 1-.03.02h-1.61l-.01-.02a.04.04 0 0 1-.01-.02c.04-.44.23-.8.52-1.11.04-.05.07-.1.07-.17v-1.56l-.02-.04a.07.07 0 0 0-.04-.02l-.16-.04h-.04a.06.06 0 0 0-.02.04c-.16.41-.63.5-.9.15l-.02-.02h-.05l-.01.03-.01.02-.01.04c0 .02 0 .03.02.04.12.14.12.3 0 .45-.27.37-.63.64-.49 1.16a12.52 12.52 0 0 1 .06.27l-.01.02a.06.06 0 0 1-.06.01c-.15-.05-.23-.02-.23.07v.68l-.03.02h-2.2l-.03-.01a.08.08 0 0 1-.04-.04v-.14l.01-.05a.07.07 0 0 1 .05-.02h.54l.03-.01.02-.03c.08-.23.18-.4.3-.53.14-.16.4-.27.58-.36a.2.2 0 0 0 .07-.07c.1-.14.17-.3.22-.47.1-.35.2-.6-.11-.82a.14.14 0 0 0-.13-.02l-1.33.45a.19.19 0 0 0-.05.02l-.49.34a.17.17 0 0 0-.05.06c-.2.38-.51.95-.26 1.27a1.82 1.82 0 0 1 .42 1.05l-.02.02H6.41l-.01-.01a.04.04 0 0 1-.01-.03l.15-.9a.5.5 0 0 1 .04-.13c.26-.55.43-.88.31-1.4l-.01-.02-.04-.01H5.77a.04.04 0 0 1-.02-.05v-.36h-.01l-.01-.01h-.01l-.67.22a.04.04 0 0 0-.03.03v.03c.04.08.09.15.15.22l.04.03.64.33.01.01v.04l-.85 1.07H5v.02a.02.02 0 0 0 .02.02h1.2a.05.05 0 0 1 .05.04v.17a.05.05 0 0 1-.05.05H4.06c-.01 0-.03 0-.04-.02A.06.06 0 0 1 4 13.3v-.14a.06.06 0 0 1 .06-.06h.81l.01-.02v-.03l-.84-1.64a.23.23 0 0 1-.02-.07c-.05-.29.03-.5.25-.62a93.76 93.76 0 0 0 .68-.4v-.05a1.92 1.92 0 0 1 .07-1.18L5 9.05a3.71 3.71 0 0 1-.34-1.21l-.02-.02a1.97 1.97 0 0 0-.1-.05c-.47-.18-.21-.73.01-.97l.19-.24a.3.3 0 0 0 .03-.08c.12-.44.3-.79.54-1.04.82-.88 2-.55 2.67.34a.17.17 0 0 0 .11.06l1.46.21h.02a.04.04 0 0 0 .02-.03l-.06-.55a.05.05 0 0 1 .03-.04h.03l.03.01.44.63.03.03a.1.1 0 0 0 .04.01l1.31.19a.1.1 0 0 0 .12-.08c.05-.15.08-.31.08-.47.02-.51-.06-1.27.58-1.46.22-.06.45-.04.74 0 .37.06.7-.03.98-.28l.02-.01h.01ZM10.35 6.4l-.01.02v.01c.2.33.64 1.22-.06 1.37-.3.06-.66.04-.96.02H9.3a.04.04 0 0 0-.02.04v.02c.06.12.09.25.08.38 0 .04 0 .08.02.11.08.2.18.36.29.5.03.04.05.14.06.3 0 .03.01.07.04.1.4.43.11 1.14-.51 1.17h-1.9a1.5 1.5 0 0 1-.55-.06c-.17-.09-.25-.25-.25-.48a72.07 72.07 0 0 1-.01-1.43h-.03c-.51.1-1.1-.01-1.26-.59a.08.08 0 0 0-.07-.05h-.24l-.01.01-.01.02v.02a3.58 3.58 0 0 0 .68 1.76v.03l-.02.02h-.15a.16.16 0 0 1-.13-.07l-.12-.19h-.03v.01c-.06.34-.02.66.1.96v.04l-.03.03-.83.48c-.16.1-.2.24-.12.4A222.7 222.7 0 0 0 5 12.68l.5-.63h.01a.02.02 0 0 0 0-.02l-.01-.01-.45-.23a.2.2 0 0 1-.07-.07l-.32-.49v-.04l.02-.01 1.05-.35.02-.02v-.38a.04.04 0 0 1 .05-.05h.16l.03.01V11.22l.02.03h.79v-.01l.01-.02v-.09l.02-.02c.13-.04.22 0 .26.15.09.3.11.6.06.9-.04.27-.24.62-.32.8a.83.83 0 0 0-.05.18l-.1.57v.02a.04.04 0 0 0 .04.03h.51l.02-.02a.05.05 0 0 0 .01-.03l-.03-.25a.1.1 0 0 1 0-.05.1.1 0 0 1 .07-.05.1.1 0 0 1 .04 0 .14.14 0 0 1 .13.11l.03.24c0 .01 0 .03.02.04h.26l.01-.01.01-.02v-.03a2.06 2.06 0 0 0-.32-.6.58.58 0 0 1-.14-.27c-.05-.43.13-.84.37-1.3a.35.35 0 0 1 .1-.1c.13-.11.3-.17.4-.31.08-.1.12-.22.13-.34l.02-.04h.19a.04.04 0 0 1 .03 0v.04l-.02.16v.01l.01.01h.02l1.52-.5c.3-.09.5-.19.6-.3.21-.2.33-.46.35-.78 0-.04 0-.08-.02-.12-.11-.24-.2-.46-.21-.68l.01-.05a.06.06 0 0 1 .04-.02l.12-.01h.04l.02.05c.13.79.75 1.45 1.5 1.66h.18l.03.02.01.03v1.9c0 .05-.01.1-.05.13-.22.26-.4.45-.49.77a.04.04 0 0 0 .01.03l.01.01h.36a.07.07 0 0 0 .03-.05l.06-.29c0-.03.02-.05.04-.07a.13.13 0 0 1 .07-.03h.02a.1.1 0 0 1 .08.03.1.1 0 0 1 .02.08l-.05.27v.05l.02.01H13.34a.1.1 0 0 0 .07-.02.1.1 0 0 0 .04-.06l.1-.45a.19.19 0 0 0-.04-.15 2.15 2.15 0 0 1-.4-1.61 31.06 31.06 0 0 0 .1-.88.08.08 0 0 0-.03-.03c-.62-.51-.38-1.37-.3-2.02.06-.5.04-1.19-.62-1.27a1.43 1.43 0 0 0-1.13.33.09.09 0 0 1-.1.02l-.15-.08a.05.05 0 0 1-.03-.04V6.8l.02-.02.38-.24.01-.01V6.5h-.01l-.88-.12h-.02Zm.9 3.23v.01c-.13.57-.47.91-1.02 1.03h-.02v.06c.17.19.23.34.18.61-.06.31-.17.6-.32.89a.32.32 0 0 1-.14.14c-.36.17-.63.3-.78.7v.02l.01.02H10.29l.02-.01V12.39a.05.05 0 0 1 .05-.05H10.53l.01-.01v-.03c-.06-.31 0-.6.18-.85.13-.19.35-.36.4-.58a.1.1 0 0 0-.08-.12.1.1 0 0 0-.06.02l-.16.12a.06.06 0 0 1-.08-.01l-.07-.1-.01-.02v-.05l.03-.02.7-.45a.04.04 0 0 1 .06 0v.03c.07.2.28.4.5.21.06-.06.1-.12.1-.18v-.03a2.6 2.6 0 0 1-.8-.65Zm-2.08-.36c-.12-.26-.33-.36-.63-.3-.12.04-.18.11-.18.23-.01.14.13.27.25.33l.02.03v.06l-.04.02H8.5c-.3.02-.32.53.04.55l.58.01c.17 0 .28-.01.34-.05.2-.11.27-.33.24-.57-.03-.17-.26-.15-.23-.45a.16.16 0 0 0-.03-.1.13.13 0 0 0-.04-.04.12.12 0 0 0-.05-.02c-.02 0-.05.03-.07.07a.35.35 0 0 0-.04.21v.03l-.02.01h-.03l-.02-.02ZM7.3 7.03v.03l-.01.14a.77.77 0 0 1-.36.54c-.1.07-.3.1-.6.1l-.7-.02c-.02 0-.04 0-.05.02a.1.1 0 0 0-.04.1c0 .02.02.03.03.04l.18.15c.07.05.15.09.23.1a1.73 1.73 0 0 0 .8-.08l.01.01V9.5c0 .37-.02.68.41.69a239.08 239.08 0 0 0 .88-.01v-.03c-.07-.27-.04-.47.09-.6a.07.07 0 0 0 .01-.08c-.16-.33-.07-.63.28-.71.25-.06.41 0 .61.1h.06c.08-.03.13-.06.16-.1V8.7a.65.65 0 0 1-.17-.4c0-.12-.03-.22-.06-.3-.13-.4-.28-.79-.65-.95a.29.29 0 0 0-.11-.02h-.97l-.03.01Zm2.18 2.65a.1.1 0 0 1 .07.02.1.1 0 0 1 .02.07v.13a.05.05 0 0 1-.01.04h-.02l-.02.01a2.37 2.37 0 0 0-.8 0 .06.06 0 0 1-.01-.02L8.7 9.9l.01-.03.06-.08A.3.3 0 0 1 9 9.68h.48Zm-.92-.43c-.01-.33.36-.14.46-.01l.02.05-.03.06c-.06.06-.23.18-.3.06-.03-.03-.02-.09 0-.16v-.02h-.03l-.06.04-.02.01h-.02a.03.03 0 0 1-.02-.03ZM7.43 7.88c.2.06.43.31.57.45l.02.05a.09.09 0 0 1-.02.08.09.09 0 0 1-.04.02l-.3.06a.24.24 0 0 1-.16-.04c-.14-.08-.16-.17-.06-.25a.05.05 0 0 1 .05-.01l.02.01.01.02c.01.06.04.1.1.11h.04l.03-.03V8.3a.06.06 0 0 0-.02-.04c-.1-.07-.22-.2-.33-.05a.03.03 0 0 1-.04.01v-.01a.43.43 0 0 1 0-.27.1.1 0 0 1 .05-.06.1.1 0 0 1 .08 0ZM5.7 6.05l-.54.47c-.17.13-1.1 1.06-.34 1.06H6.6l.1-.01c.27-.11.38-.3.32-.59a.17.17 0 0 0-.14-.13 3.51 3.51 0 0 0-1.57.17l-.02-.01v-.05l.45-.9v-.01H5.7Zm4.1 0v.01l.18.93V7l-.01.01-.02.01h-.02c-.42-.07-.82-.19-1.24-.19h-.02a.03.03 0 0 0 0 .04v.01c.23.17.4.38.48.65l.02.03.04.01h.76c.28-.01.57-.07.44-.42a4.77 4.77 0 0 0-.6-1.11Zm-3.23-.89c-.68-.05-1.18.43-1.43 1.01l1.07-.75h.02a.05.05 0 0 1 .05.04l-.02.06a51.23 51.23 0 0 0-.53 1.14c.45-.08 1.12-.2 1.46.09.02.02.05.03.07.03h.95l.09-.03c.4-.24.94-.12 1.36-.02h.01l-.04-.41V6.3h-.01l-1.36-.2h-.02v.04l.15.3v.03a.04.04 0 0 1-.04.02h-.14a.1.1 0 0 1-.09-.06c-.28-.58-.88-1.2-1.55-1.27Zm5.95-.72c-.63.04-.63.64-.63 1.12a2.5 2.5 0 0 1-.1.79h.38l.02-.03c.01-.34-.29-1.17.14-1.46a.11.11 0 0 1 .14.01c.32.3.64.5.99.09v-.01a.01.01 0 0 0 0-.01H13.25l-.04-.02-.03-.03a.04.04 0 0 1-.02-.03l.02-.02h.01c.2-.03.33-.15.42-.34v-.03h-.03c-.23.08-.45.1-.67.04-.19-.05-.32-.07-.4-.07Z" fill="#034991"/></svg>