<!-- by TradingView --><svg width="18" height="18" viewBox="0 0 18 18" xmlns="http://www.w3.org/2000/svg"><path fill="url(#a00dlepnv)" d="M0 0h18v18H0z"/><path d="M4.65 6.47c0-.53.43-.95.96-.95s.97.42.97.95-.44.95-.97.95a.96.96 0 0 1-.96-.95Zm.96-.63a.64.64 0 0 0-.64.63c0 .34.28.62.64.62s.65-.28.65-.62a.64.64 0 0 0-.65-.63ZM5.61 8.67a.96.96 0 0 0-.96.95c0 .53.43.95.96.95s.97-.42.97-.95a.96.96 0 0 0-.97-.95Zm-.64.95c0-.34.28-.63.64-.63s.65.29.65.63-.29.63-.65.63a.64.64 0 0 1-.64-.63ZM5.94 8.04c0-.52.43-.95.96-.95s.97.43.97.95c0 .53-.44.95-.97.95a.96.96 0 0 1-.96-.95Zm.96-.62a.64.64 0 0 0-.64.62c0 .35.28.63.64.63s.65-.28.65-.63a.64.64 0 0 0-.65-.62Z" fill="#fff"/><path fill-rule="evenodd" d="M7 10.58h4v2.21H7v-2.2Zm.32.32h3.36v1.57H7.32V10.9Z" fill="#fff"/><path d="M12.39 5.52c.53 0 .96.42.96.95s-.43.95-.96.95a.96.96 0 0 1-.97-.95c0-.53.44-.95.97-.95Zm.64.95a.64.64 0 0 0-.64-.63.64.64 0 0 0-.65.63c0 .34.29.62.65.62.36 0 .64-.28.64-.62ZM13.35 9.62a.96.96 0 0 0-.96-.95.96.96 0 0 0-.97.95c0 .53.44.95.97.95s.96-.42.96-.95Zm-.96-.63c.36 0 .64.29.64.63s-.28.63-.64.63a.64.64 0 0 1-.65-.63c0-.34.29-.63.65-.63ZM11.1 7.1c.53 0 .96.42.96.94 0 .53-.43.95-.96.95a.96.96 0 0 1-.97-.95c0-.52.44-.95.97-.95Zm.64.94a.64.64 0 0 0-.64-.62.64.64 0 0 0-.65.62c0 .35.29.63.65.63.36 0 .64-.28.64-.63Z" fill="#fff"/><path fill-rule="evenodd" d="M7 3.63v2.21h4v-2.2H7Zm3.68.32H7.32v1.57h3.36V3.95Z" fill="#fff"/><path fill-rule="evenodd" d="M4 3h10V8.9c0 2.04-1.1 3.92-2.88 4.91L9 15 6.9 13.82A5.62 5.62 0 0 1 4 8.91V3Zm.32 5.91V3.56l4.46 4.68-3.51 3.7a5.3 5.3 0 0 1-.95-3.03Zm1.14 3.28c.43.54.96 1 1.58 1.35L9 14.64l1.96-1.1a5.3 5.3 0 0 0 1.58-1.35L9 8.48l-3.54 3.71Zm3.76-3.95 3.51 3.7c.6-.88.95-1.93.95-3.03V3.56L9.22 8.24Zm4.24-4.92H4.54L9 8.01l4.46-4.69Z" fill="#fff"/><defs><linearGradient id="a00dlepnv" x1="9" y1="0" x2="9" y2="18" gradientUnits="userSpaceOnUse"><stop stop-color="#002459"/><stop offset="1" stop-color="#001D8E"/></linearGradient></defs></svg>