<!-- by TradingView --><svg width="18" height="18" viewBox="0 0 18 18" xmlns="http://www.w3.org/2000/svg"><path fill="#F0F3FA" d="M0 0h18v18H0z"/><path d="M2 5.6v4.5a2.73 2.73 0 0 0 .95 2.12l.2.16.1.08a3.3 3.3 0 0 0 3.49.03l.08-.06c.17-.1.3-.24.44-.37a2.34 2.34 0 0 0 .5-.72l.02.02.14.2c1.4 1.94 1.4 1.94 2.88-.13a.8.8 0 0 1 .09-.11 2.12 2.12 0 0 0 .3.5 2.84 2.84 0 0 0 1.24.92c.7.26 1.42.3 2.15.12.33-.08.6-.21.87-.39.26-.17.55-.42.55-.74a.6.6 0 0 0-.62-.62.64.64 0 0 0-.39.1l-.08.06c-.11.07-.2.15-.33.22-.53.3-1.13.3-1.67 0l-.24-.16c-.11-.09-.22-.2-.3-.32a1.5 1.5 0 0 1-.28-.53 1.28 1.28 0 0 1-.04-.53c.05-.35.24-.67.5-.92.3-.3.7-.5 1.16-.5.34 0 .62.1.83.23.16.1.46.4.65.4.23 0 .44-.06.59-.18A.6.6 0 0 0 16 8.5c0-.32-.44-.62-.68-.78a2.39 2.39 0 0 0-.5-.23 3.35 3.35 0 0 0-3.7 1.13l-1.06 1.5-.15.2-.23.32-.08.11-.3.43-.26-.36-.73-1.11-.5-.73a10.77 10.77 0 0 0-.53-.7c-.07-.08-.15-.18-.24-.24l-.28-.23-.14-.1c-.4-.25-.85-.4-1.36-.4-.3 0-.6.08-.73.33a.85.85 0 0 0-.07.36c0 .36.45.51.75.58l.23.04a1.61 1.61 0 0 1 .61.33c.08.07.13.11.2.2a1.43 1.43 0 0 1-.02 1.97c-.06.06-.12.13-.2.19a1.7 1.7 0 0 1-.66.32 1.7 1.7 0 0 1-.88-.04c-.52-.18-1.07-.72-1.17-1.27-.05-.26 0-.84 0-1.13V5.6C3.3 4.8 2 4.8 2 5.6Z" fill="url(#apm142mmd)"/><defs><linearGradient id="apm142mmd" x1="2.03" y1="9.86" x2="15.89" y2="9.76" gradientUnits="userSpaceOnUse"><stop stop-color="#14B4EA"/><stop offset="1" stop-color="#0A428F"/></linearGradient></defs></svg>