<!-- by TradingView --><svg width="18" height="18" viewBox="0 0 18 18" xmlns="http://www.w3.org/2000/svg"><path fill="#C4162E" d="M0 0h18v18H0z"/><path d="M13.6 3.54 4.18 4.76l.24 1.99h1.72c.3 0 .65.05.86.14a1.02 1.02 0 0 1 .48.4l-.16-.54h1.3l.65 3.1h.04l.59-3.1h2.16v3.21h1.49l-.1.97h-2.52V7.04l-1.05 3.89H8.52l-.9-3.12v.02c0 .16-.02.3-.09.43a.88.88 0 0 1-.27.31c-.12.09-.25.14-.4.18v.04a.98.98 0 0 1 .8.49c.09.15.13.32.13.53 0 .22-.06.43-.17.6-.11.19-.27.33-.49.43-.21.1-.56.09-.86.09H4.94l.43 3.53 9.42-1.22-1.2-9.7Z" fill="#fff"/><path d="M5.54 10.2c.37 0 .94 0 .96-.46.03-.52-.47-.51-.87-.5h-.1v.96ZM5.61 8.5c.36 0 .8 0 .8-.48s-.44-.48-.8-.47h-.07v.95h.07Z" fill="#fff"/></svg>