<!-- by TradingView --><svg width="18" height="18" viewBox="0 0 18 18" xmlns="http://www.w3.org/2000/svg"><path fill="#F0F3FA" d="M0 0h18v18H0z"/><path d="M8.77 3c-.43.82-.95 1.6-1.54 2.32A12.8 12.8 0 0 1 6.5 4c-.06-.13-.09-.23-.07-.3.02-.1.1-.19.24-.24A6.71 6.71 0 0 1 8.77 3Z" fill="#004F8D"/><path d="M9.27 3c.78.05 1.5.21 2.13.5.2.09.25.23.15.44A16.13 16.13 0 0 1 9 7.74L7.74 9a18.54 18.54 0 0 0-2.39-1.78 14.79 14.79 0 0 0 1.88-1.9c.6-.73 1.1-1.5 1.54-2.32h.5Z" fill="#EBC882"/><path d="M12.63 7.21A13.1 13.1 0 0 0 15 8.81c.03.79-.13 1.62-.46 2.48-.06.17-.15.26-.29.29-.08.02-.2-.01-.34-.09A15.84 15.84 0 0 1 10.26 9L9 7.75c.66-.74 1.26-1.53 1.78-2.4.58.7 1.2 1.31 1.86 1.87ZM5.35 7.22A18.54 18.54 0 0 1 9 10.26a16.48 16.48 0 0 0-1.78 2.4 14.99 14.99 0 0 0-1.89-1.9A13 13 0 0 0 3 9.2c-.03-.94.14-1.8.5-2.6.06-.12.15-.19.27-.19.07 0 .17.03.29.09.44.22.88.46 1.29.72Z" fill="#004F8D"/><path d="M15 8.8a13.1 13.1 0 0 1-2.36-1.59c.45-.28.9-.53 1.38-.76.13-.07.24-.07.34 0 .07.03.13.12.18.24.28.67.43 1.37.46 2.11ZM10.26 9c.74.66 1.54 1.26 2.39 1.78A13.7 13.7 0 0 0 9.25 15a5.75 5.75 0 0 1-2.66-.5.27.27 0 0 1-.17-.22c-.01-.06.01-.14.06-.24A17.25 17.25 0 0 1 9 10.26L10.26 9ZM5.35 10.8c-.39.23-.83.48-1.35.74-.14.07-.26.07-.36 0-.07-.03-.13-.12-.19-.25A5.97 5.97 0 0 1 3 9.19a13 13 0 0 1 2.35 1.6Z" fill="#EBC882"/><path d="M10.78 12.67c.28.45.54.9.76 1.38.13.27-.01.4-.25.5a5.7 5.7 0 0 1-2.04.44c.43-.82.94-1.59 1.53-2.32Z" fill="#004F8D"/></svg>