<!-- by TradingView --><svg width="18" height="18" viewBox="0 0 18 18" xmlns="http://www.w3.org/2000/svg"><path fill="#122B4A" d="M0 0h18v18H0z"/><path d="M6.87 4h.97a5.67 5.67 0 0 0-1.38 2.07H4.82L6.87 4Zm1.95 2.07H6.83A5.1 5.1 0 0 1 8.37 4h.45v2.07ZM9.63 4h-.45v2.07h1.98A5.1 5.1 0 0 0 9.63 4Zm1.46 0 2.08 2.07h-1.64A5.64 5.64 0 0 0 10.16 4h.93ZM6.33 6.43H4.46L4 6.9v1.9h1.93c.02-.85.16-1.64.4-2.37ZM8.82 8.8H6.28c.01-.85.16-1.65.41-2.37h2.13V8.8Zm.36 0h2.54a7.62 7.62 0 0 0-.42-2.37H9.18V8.8Zm2.48-2.37h1.87l.47.47v1.9h-1.94a7.99 7.99 0 0 0-.4-2.37ZM4 9.16h1.93c.02.86.16 1.66.4 2.4H4.45L4 11.1V9.16Zm2.7 2.4h2.12v-2.4H6.28c.01.86.16 1.67.41 2.4Zm5.01-2.4H9.18v2.4h2.11c.26-.73.4-1.54.42-2.4Zm-.06 2.4h1.89l.46-.47V9.16h-1.94a7.98 7.98 0 0 1-.4 2.4ZM6.9 14l-2.09-2.09h1.66c.33.83.8 1.54 1.4 2.09H6.9Zm1.5 0h.42v-2.09H6.83c.37.86.9 1.58 1.57 2.09Zm.78-2.09V14h.4a5.15 5.15 0 0 0 1.57-2.09H9.18Zm1.9 2.09h-.97a5.71 5.71 0 0 0 1.4-2.09h1.66L11.1 14Z" fill="#24AADF"/></svg>