<!-- by TradingView --><svg width="18" height="18" viewBox="0 0 18 18" xmlns="http://www.w3.org/2000/svg"><path fill="#F0F3FA" d="M0 0h18v18H0z"/><path fill-rule="evenodd" d="M16 8.79h-1a3.6 3.6 0 0 0-2.33-3.16l.33-.32-.3-.3-.33.32A3.6 3.6 0 0 0 9.2 3V2H8.8v1a3.6 3.6 0 0 0-3.16 2.33L5.31 5l-.3.3.32.33A3.6 3.6 0 0 0 3 8.8H2v.42h1a3.6 3.6 0 0 0 2.33 3.16L5 12.7l.3.3.33-.33A3.6 3.6 0 0 0 8.8 15v1h.42v-1a3.6 3.6 0 0 0 3.16-2.33l.33.33.3-.3-.33-.33A3.6 3.6 0 0 0 15 9.2h1V8.8Zm-7.22-5.1v-.16a3.07 3.07 0 0 0-2.62 1.9c.3-.03.58-.03.87 0L8.78 3.7Zm3.06 1.74a3.48 3.48 0 0 0-.88 0L9.21 3.7v-.16a3.06 3.06 0 0 1 2.63 1.9Zm-.59 6.13.3-.3.5.48a3 3 0 0 0-.08-1.07c.13-.23.23-.48.3-.73.08.17.15.34.2.52L13.7 9.2H12.4V8.8h1.31l-1.24-1.25c-.05.18-.12.35-.2.52-.07-.25-.17-.5-.3-.73a3 3 0 0 0 .07-1.07l-.48.49-.3-.3.48-.5a2.89 2.89 0 0 0-1.07.08 3.4 3.4 0 0 0-.73-.3c.17-.08.34-.15.52-.2L9.21 4.3v1.3H8.8V4.3L7.54 5.52c.18.05.35.11.52.2-.25.06-.5.17-.73.3a3.05 3.05 0 0 0-1.07-.08l.49.5c-.11.09-.21.19-.3.3l-.5-.5a2.9 2.9 0 0 0 .08 1.08 3.4 3.4 0 0 0-.3.73 3.6 3.6 0 0 1-.2-.52L4.3 8.79H5.6V9.2H4.3l1.24 1.25c.05-.18.12-.35.2-.52.06.25.17.5.3.73a3.05 3.05 0 0 0-.08 1.07l.5-.49c.09.11.19.21.3.3l-.5.5a3 3 0 0 0 1.08-.08c.23.13.47.23.73.3a3.5 3.5 0 0 1-.52.2l1.25 1.24V12.4a2.12 2.12 0 0 0 .42 0v1.31l1.25-1.24a3.55 3.55 0 0 1-.52-.2c.25-.07.5-.17.73-.3a3.05 3.05 0 0 0 1.07.08l-.49-.5Zm-4.18-2c.23-.6.59-1.15 1.06-1.6.19.07.37.16.54.26-.61.52-1.04 1.2-1.22 1.98H7.4c-.15-.19-.25-.41-.32-.64ZM7.8 7.4V7.4a2 2 0 0 1 .64-.32c.61.22 1.16.59 1.6 1.06-.07.19-.16.37-.26.54-.5-.6-1.2-1.04-1.98-1.22v-.04Zm3.14 1.03c-.23.6-.6 1.15-1.07 1.6a3.28 3.28 0 0 1-.54-.26 3.66 3.66 0 0 0 1.22-1.98h.06c.15.19.26.4.32.64Zm-.74 2.1v.05l.01.02a2 2 0 0 1-.65.32c-.6-.22-1.15-.59-1.6-1.06.08-.18.16-.36.27-.54.5.6 1.2 1.04 1.97 1.22ZM6.45 7.48c.04.33.1.65.21.97a2.44 2.44 0 0 0 .5 2.12l.06.06h.07a3.5 3.5 0 0 0 .73-.14c.17.14.35.28.54.4-.5.2-1.04.3-1.59.3a2.99 2.99 0 0 1-.52-3.71Zm5.1 3.06c-.04-.33-.1-.65-.21-.97a2.4 2.4 0 0 0-.51-2.12l-.05-.06h-.07c-.25.03-.5.08-.73.15a4.64 4.64 0 0 0-.55-.4c.5-.2 1.04-.3 1.57-.3h.03a2.96 2.96 0 0 1 .52 3.7ZM9 6.03c.54 0 1.07.14 1.53.43-.33.03-.65.1-.96.2a2.42 2.42 0 0 0-2.13.52l-.06.04v.07c.03.25.08.5.15.74-.15.17-.28.35-.4.54-.2-.5-.31-1.03-.3-1.57v-.02A2.99 2.99 0 0 1 9 6.03Zm0 5.94c-.54 0-1.07-.14-1.53-.42.33-.04.66-.1.97-.21a2.4 2.4 0 0 0 2.12-.51l.06-.05v-.07c-.03-.25-.07-.5-.14-.73.14-.17.28-.36.4-.55.2.5.3 1.04.3 1.57v.02a2.98 2.98 0 0 1-2.18.95Zm5.32-3.18h.15a3.07 3.07 0 0 0-1.9-2.63c.03.3.03.59 0 .88l1.75 1.75Zm-8.9-2.62c-.03.28-.03.58.01.87L3.68 8.79h-.15a3.07 3.07 0 0 1 1.9-2.62ZM3.69 9.22h-.15a3.07 3.07 0 0 0 1.9 2.62 3.66 3.66 0 0 1 0-.87L3.68 9.22Zm2.49 3.35c.28.04.58.04.86 0l1.75 1.75v.15a3.07 3.07 0 0 1-2.61-1.9Zm3.04 1.9v-.15l1.75-1.75c.3.04.58.04.87 0a3.07 3.07 0 0 1-2.62 1.9Zm3.39-3.05-.03.42a3.07 3.07 0 0 0 1.9-2.63h-.15l-1.75 1.75c.02.15.03.3.03.46Z"/></svg>