<!-- by TradingView --><svg width="18" height="18" viewBox="0 0 18 18" xmlns="http://www.w3.org/2000/svg"><path fill="#F0F3FA" d="M0 0h18v18H0z"/><path d="M11.39 10.84c.43-.08.54.18.78.52 0 0 .26-.14 0-.52a.76.76 0 0 0-.8-.34c-.2.06-.27.2-.36.15-.1-.06.04-.36-.57-.43-.35.02-.51.43-.51.43s-.28-.2-.6-.04c-.32.17-.18.59-.18.59s-.39.26-.2.67c0 0 .18-.41.47-.43 0 0-.2-.56.05-.62.24-.06.5.2.5.2s.53-.61.67-.44c.14.16-.06.28-.06.28s-.58.46-.68.45c-.1-.02-.02-.24-.23-.19-.22.06-.06.41-.06.41s-.32-.09-.14.55c0 0-.1.22-.46.24v.4s.32-.05.6.16c0 0 .18.02-.19-.28 0 0 .24-.23.42 0 0 0 .38-.42.4-.15 0 0-.3-.13-.23.24 0 0 .14.1.32-.02 0 0-.05-.22.23-.42.18 0 .2-.43.54-.17.38.18.26-.15.1-.2-.16-.07.08-.2.36.12 0 0 .14-.37-.44-.5 0 0-.12-.28.34-.1.46.2.42.28.42.28s.29-.22-.14-.48a.79.79 0 0 0-.64-.12s-.15-.16.29-.24Zm-1.32 1.03c-.18-.32.07-.19.07-.19s.05.04.24-.09c.2-.13.3 0 .3 0s-.44.6-.61.28Z" fill="#176F39"/><path d="M9.3 10.09V8.57l.1.02c.01 0 .3.05.6.27v-.37l.12.02s.37.05.8.28v-.27h.1c.02 0 .31.02.68.32v-.33l.11.02c.02 0 .5.07 1.11.6l-.08.8-.05.16h-3.5Zm.19-.2h3.27v-.64c-.39-.32-.7-.45-.86-.5v.55l-.17-.17a1.44 1.44 0 0 0-.62-.39v.4l-.14-.1a2.65 2.65 0 0 0-.77-.31v.56l-.16-.16a1.42 1.42 0 0 0-.55-.32V9.9ZM10.47 6.59c-.27.08-.29-.12-.14-.15.14-.02.53.13.57 0 .04-.12-.08-.18-.18-.26-.1-.09-.33-.17-.13-.33.2-.17.31-.21.06-.19-.24.02-.45.16-.4.43.03.27-.03.31-.15.35-.12.05-.04.23.08.3.12.05.15.1.15.3 0 .2 0 .13.06.23 0 0 .33.29.51-.06.19-.35-.16-.7-.43-.62Z" fill="#1D1D1B"/><path fill-rule="evenodd" d="M9 13a4 4 0 1 0 0-8 4 4 0 0 0 0 8Zm0-.5a3.5 3.5 0 1 0 0-7 3.5 3.5 0 0 0 0 7Z" fill="#8A0C1F"/><path fill-rule="evenodd" d="M9 16A7 7 0 1 0 9 2a7 7 0 0 0 0 14Zm0-.5a6.5 6.5 0 1 0 0-13 6.5 6.5 0 0 0 0 13Z" fill="#176F39"/><path d="m8.5 4.49.22-.69a4 4 0 0 1 .53 0l.26.69.13.02c.17.02.33.05.48.1l.13.03.5-.55.44.19-.04.72.12.07c.15.08.29.18.42.28l.1.07.68-.3c.14.12.27.25.4.39l-.3.67.07.1c.1.14.2.28.28.43l.07.12.72-.06.2.5-.53.53.03.12c.04.16.07.33.09.49l.02.14.68.22a3.41 3.41 0 0 1 0 .51l-.7.26-.01.13-.1.48-.03.13.54.5-.19.43h-.75l-.06.11a4.7 4.7 0 0 1-.28.42l-.09.11.34.63a5.1 5.1 0 0 1-.35.36l-.66-.31-.1.08-.45.3-.11.06v.13l.02.61-.44.19-.52-.54-.13.03c-.15.04-.31.08-.47.1l-.13.02-.27.69a3.76 3.76 0 0 1-.51 0l-.24-.68-.13-.02a4.89 4.89 0 0 1-.51-.1l-.12-.04-.51.54a4.97 4.97 0 0 1-.47-.2l.03-.73-.11-.07a4.63 4.63 0 0 1-.43-.28l-.1-.08-.68.3-.3-.3.3-.67-.08-.1c-.1-.13-.18-.26-.27-.4l-.07-.1-.74.02-.24-.57.56-.48-.04-.13a4.63 4.63 0 0 1-.1-.48l-.01-.12-.7-.3a3.5 3.5 0 0 1 .01-.53l.7-.25.02-.13c.02-.15.05-.3.1-.46l.03-.12-.54-.51c.06-.18.14-.34.22-.5l.72.05.07-.12.27-.4.08-.1-.29-.68c.13-.13.25-.26.39-.38l.7.3.1-.07c.11-.09.23-.17.36-.24l.11-.06-.03-.73c.14-.07.29-.13.43-.18l.53.53.12-.03.48-.1.14-.01Zm-3.15 8.88.75-.33a5 5 0 0 0 .25.17l-.04.76.15.06c.24.13.5.24.77.33l.14.04.52-.55.3.06.24.7.14.02h.04l.4.02.35-.02h.07l.13-.01.29-.72.27-.05.54.55.13-.04c.26-.1.5-.2.75-.32l.12-.06-.02-.76.27-.18.68.31.11-.09c.22-.19.42-.39.6-.6l.1-.12-.35-.65.16-.24H14l.06-.13c.12-.24.22-.48.3-.74l.05-.13-.56-.52a5 5 0 0 0 .06-.27l.71-.26.02-.14a5.39 5.39 0 0 0 0-.87l-.02-.15-.7-.22-.05-.28.55-.55-.04-.13a5.4 5.4 0 0 0-.34-.82l-.07-.13-.74.06-.16-.24.32-.7-.1-.1c-.19-.23-.4-.44-.63-.64l-.1-.09-.7.32a5 5 0 0 0-.25-.16l.04-.75-.12-.06a5.6 5.6 0 0 0-.78-.32l-.13-.05-.5.57a4.87 4.87 0 0 0-.28-.06l-.27-.7-.14-.02h-.01a5.18 5.18 0 0 0-.88 0l-.14.02-.22.7-.26.05-.55-.55-.13.05c-.26.08-.5.19-.74.3l-.13.07.03.75-.18.12-.72-.31-.1.09c-.23.19-.43.4-.63.61l-.09.1.3.71-.15.22-.75-.06-.07.13c-.14.27-.25.54-.35.83l-.04.13.55.53-.05.24-.72.26-.01.14c-.02.16-.03.33-.03.5l.01.3.01.08v.14l.72.3.06.27-.58.49.05.13c.1.31.22.61.37.9l.07.12.77-.02.15.22-.3.7.09.1.12.15c.15.16.33.37.46.49Z" fill="#8A0C1F"/><path d="M9 12.85h-.75V8H9v4.85Z" fill="#8A0021"/><path d="m9 10.69-.2-.03V5.13H9v5.56Z" fill="#8A0021"/><path d="m6.39 6.2.03-.2H8.9v.2H6.39ZM5.58 7.2 5.6 7H8.9v.2H5.58ZM5.2 8.2l.04-.2H8.9v.2H5.2ZM5.2 9.2l.04-.2H8.9v.2H5.2Z" fill="#8A0021"/><path d="m8 10.69-.2-.03V5.3H8v5.39ZM7 12.34l-.2-.03V5.78H7v6.56ZM6 11.3l-.2-.04v-4.5H6v4.53Z" fill="#8A0021"/><path d="m8 12.71-.75-.21V9H8v3.71ZM7 12.2l-.75-.7V10H7v2.2Z" fill="#8A0021"/><path d="M10.45 7.74s-.01-.11.1-.18c.04-.03.22-.12.2.06v1.23l-.3-.13v-.98Z" fill="#1D1D1B"/><path d="M10.58 7.6c-.06.03-.1.08-.08.11.02.03.08.02.14-.02.05-.03.09-.09.07-.11-.02-.03-.08-.02-.13.02Z" fill="#F0F3FA"/><path d="M10.87 9.15h-1.3v.42h1.3v-.42ZM12.53 9.15h-1.3v.42h1.3v-.42Z" fill="#1D1D1B"/></svg>