<!-- by TradingView --><svg width="18" height="18" viewBox="0 0 18 18" xmlns="http://www.w3.org/2000/svg"><path fill="#D2AD6B" d="M0 0h18v18H0z"/><path fill-rule="evenodd" d="m8.27 7.72.12-.15.03.03.12.16a124.04 124.04 0 0 1 2.1 2.72c.03.04.05.03.08 0l.16-.18 1.5-1.73 1.71-1.96.4-.47.36-.4.52-.6c.04-.05.06-.1.06-.16V3.72c0-.09 0-.14-.03-.16-.02-.02-.07-.02-.17-.02H3a18.46 18.46 0 0 0-.36 0c-.05 0-.08.02-.08.07v3.13a371.4 371.4 0 0 0 .03 4.76c.03 0 .05-.02.07-.04l.02-.01v-.01l.21-.25.38-.45.2-.24.9-1.07c.03-.04.04-.03.07 0l.46.54.31.38.22.25.18.22c.02.03.04.05.08 0l.32-.4.08-.09 1.42-1.71.58-.7.17-.2Zm-1.2-1.79h.24c.04 0 .06.01.05.05-.02.07-.04.15-.1.2-.19.18-.42.2-.67.16a.66.66 0 0 1-.38-.2.81.81 0 0 1-.2-.6c.03-.46.39-.78.95-.7.16.03.29.11.4.22v.02c.02.02.04.04.08.01l.28-.18c.04-.03.04-.05 0-.09l-.18-.15a1.36 1.36 0 0 0-1.83.2.91.91 0 0 0-.23.5c-.03.14-.02.3 0 .44.05.33.22.58.51.77.25.15.52.22.82.2.38-.01.7-.15.9-.47.15-.23.2-.47.18-.74 0-.03-.01-.04-.05-.04h-1c-.05 0-.07 0-.06.04v.32c0 .03.01.04.05.04h.24Zm-3.57.48a10.66 10.66 0 0 1 0 .24c0 .04 0 .09.06.09.13-.02.26-.01.39-.01H4.8c.11 0 .13-.02.14-.13 0-.05 0-.22-.03-.26-.03-.02-.06-.03-.1-.03H4.1c-.05 0-.07 0-.07-.05v-.44c0-.06.02-.08.09-.08h.75c.06 0 .08 0 .08-.07V5.4c0-.06-.03-.07-.09-.07H4.1c-.05 0-.07-.01-.07-.06v-.34c0-.05.02-.07.08-.07h.77c.05 0 .07 0 .06-.06v-.27c0-.06-.01-.08-.08-.08H3.56c-.05 0-.07.02-.07.06v1.9Zm6.49-1.95Zm0 0a44.97 44.97 0 0 0-.65.74l-.2.24c-.07.06-.07.06-.13 0l-.8-.92-.02-.01c0-.01-.02-.02-.01-.04h.44a.1.1 0 0 1 .1.03l.1.13c.08.07.14.15.21.23.04.04.05.03.08 0l.14-.16.15-.18c.04-.05.08-.06.15-.06H10ZM9.7 6.73H9.92l.04-.01c0-.02 0-.03-.02-.04v-.01a632.46 632.46 0 0 0-.83-.95c-.03-.03-.05-.03-.08 0l-.1.12-.05.06-.47.53-.2.25h-.02c0 .01-.02.02-.01.04H8.39l.26.01a.1.1 0 0 0 .08-.04l.1-.12.2-.23c.03-.04.05-.04.1 0l.1.12.13.16c.06.08.13.13.25.1h.1Z" fill="#fff"/><path d="M2.58 13.97v-1.21c-.01-.08.02-.14.07-.2l.67-.8.13-.15a33.42 33.42 0 0 0 .81-.98l.06-.07a.85.85 0 0 0 .06-.07c.02-.03.04-.03.07 0a12.68 12.68 0 0 0 .4.49l.24.27.18.22.26.3.08.1c.06.07.07.06.11 0 .06-.1.14-.18.21-.27l.02-.02.27-.3.06-.08c.08-.1.17-.2.25-.32l.23-.27.04-.05.1-.13a4.7 4.7 0 0 0 .36-.41l.19-.25.12-.14.09-.1a3.27 3.27 0 0 1 .23-.27l.08-.1.34-.42v-.02a.2.2 0 0 1 .03-.03c.03-.02.05-.03.07 0l.54.71.3.38.76 1 .35.45a15.08 15.08 0 0 0 .25.31c.03.05.06.05.1.01l.15-.18.29-.33.1-.13c.08-.07.14-.15.2-.24l.18-.2.08-.08a17.39 17.39 0 0 0 .72-.82l.22-.27a.34.34 0 0 1 .06-.07.41.41 0 0 0 .06-.06 2.02 2.02 0 0 1 .2-.23l.1-.1a966.99 966.99 0 0 0 2.28-2.64c.02-.02.03-.04.05-.03l.03.05a.1.1 0 0 1 0 .04v8.06c0 .14 0 .15-.15.14H14.8c-.06.01-.1-.02-.14-.07a1353.34 1353.34 0 0 0-1.02-1.45l-.1-.15-.27-.37-.36-.52-.5-.7c-.02-.04-.04-.04-.07 0l-1.17 1.38c-.04.03-.04.06 0 .1l.97 1.3.3.4c.02.02.03.04.02.06l-.05.01h-.73l-.2.01h-.01c-.06 0-.1-.02-.14-.07a13.5 13.5 0 0 1-.06-.08l-.21-.3a.88.88 0 0 1-.09-.13 135.52 135.52 0 0 1-.72-1.02l-.2-.3-.12-.16-.2-.27-1.2-1.72c-.03-.04-.05-.05-.06-.05l-.05.04-1.1 1.29-.44.53-.67.78-.55.67c-.04.05-.05.03-.08 0l-.17-.21-.2-.25-.13-.16-.46-.59a14.17 14.17 0 0 0-.28-.36c-.07-.08-.08-.08-.14 0l-.35.4-.18.22-.33.38a415.05 415.05 0 0 0-.57.68l-.12.14-.01.01c-.01.02-.03.03-.06.04Z" fill="#fff"/></svg>