<!-- by TradingView --><svg width="18" height="18" viewBox="0 0 18 18" xmlns="http://www.w3.org/2000/svg"><path fill="#201750" d="M0 0h18v18H0z"/><path d="M7.36 5.79H3.63c-.4 0-.74.32-.74.72v4.98c0 .4.33.72.74.72h3.73c.37 0 .68-.3.68-.66 0-.37-.3-.62-.68-.62H4.18V7.07h3.18c.37 0 .68-.27.68-.64s-.3-.64-.68-.64Z" fill="#02CD7F"/><path d="M8.67 8.36H4.82v1.28h3.85c.36 0 .65-.28.65-.64a.65.65 0 0 0-.65-.64ZM8.88 6.95a.68.68 0 1 1 .96-.96l1.53 1.53a.68.68 0 0 1-.96.96L8.88 6.95ZM14.9 5.99c.27.26.27.7 0 .96l-1.52 1.53a.68.68 0 1 1-.97-.96l1.54-1.53c.26-.27.7-.27.96 0ZM8.88 11.05a.68.68 0 1 0 .96.96l1.53-1.53a.68.68 0 0 0-.96-.96l-1.53 1.53ZM14.9 12.02a.68.68 0 0 0 0-.97l-1.52-1.53a.68.68 0 1 0-.97.96l1.54 1.54c.26.26.7.26.96 0Z" fill="#02CD7F"/></svg>