<!-- by TradingView --><svg width="18" height="18" viewBox="0 0 18 18" xmlns="http://www.w3.org/2000/svg"><path fill="#F0F3FA" d="M0 0h18v18H0z"/><path d="m9.12 5.08 4.09 3.08A.98.98 0 0 0 14.56 8c.32-.41.24-1-.18-1.32l-5-3.77c-1.28-.97-3.06.32-2.47 1.8l.99 2.5-5.51 1.03a.94.94 0 0 0-.77 1.1c.1.5.6.84 1.13.74L8.64 9a1.56 1.56 0 0 0 1.2-2.1l-.72-1.81Z" fill="#3F7128"/><path d="M8.88 13.24 4.8 10.16a.98.98 0 0 0-1.35.17.92.92 0 0 0 .18 1.31l5 3.77c1.28.97 3.06-.32 2.47-1.8l-.99-2.5 5.51-1.03c.52-.1.87-.59.77-1.1a.96.96 0 0 0-1.13-.74l-5.89 1.1a1.56 1.56 0 0 0-1.2 2.09l.72 1.81Z" fill="#A83633"/></svg>