<!-- by TradingView --><svg width="18" height="18" viewBox="0 0 18 18" xmlns="http://www.w3.org/2000/svg"><path fill="#913132" d="M0 0h18v18H0z"/><path d="M9.36 3.86h.11c-.44.7-1.7 2.3-2.28 3.03-.08 0-.34-.05-.78-.17a28.5 28.5 0 0 1 2.95-2.86Zm-.9.01a5.14 5.14 0 0 0-3.9 2.52c.45.05 1.2.14 1.57.23.5-.36 1.63-1.8 2.34-2.75ZM4.34 6.84l-.18.42c1.21-.1 2.21.07 2.57.18l.23-.32a13.23 13.23 0 0 0-2.62-.28ZM4 7.78a5.13 5.13 0 0 0-.07.44c.9.7 2.76 2.22 2.93 2.62.4-.88.71-1.67.82-1.96.03.2.01.76-.24 1.43a9.19 9.19 0 0 1-.63 1.35l1.07 1.02c.26-.64.78-2 .83-2.37.1.27.01 1.05-.05 1.4l-.88 2.12a30.5 30.5 0 0 0 3.57-2.8 6.47 6.47 0 0 1-1.3 1.49 5.65 5.65 0 0 1-.7 1.61 5.14 5.14 0 0 0 4.09-2.53c-.79-.29-1.97-.7-2.62-.92-.04.11-.16.4-.35.7l.18-.7a1.29 1.29 0 0 1-.34-.14c.18-.08.4-.1.48-.1l.06-.45c-.4-.2-1.19-.47-1.52-.58l-.27.44c.02-.1.07-.33.13-.48-.13-.06-.37-.1-.47-.13.1-.02.34-.07.55-.07l.3-.85a15.79 15.79 0 0 0-2.85-.54c-.17.09-.49.2-.38 0a9.33 9.33 0 0 0-2.34 0Zm9.9 2.78c.1-.32.18-.66.21-1a19.21 19.21 0 0 0-2.1-2.77c-.03.25-.3 1.25-.44 1.72l.37.3a3.93 3.93 0 0 0-.4-.17c-.06.36-.29.9-.4 1.12l.87.37c.12-.12.47-.46.86-.81-.12-.03-.8-.33-1.12-.47.38.13 1.16.38 1.23.37.06 0 .2-.16.27-.23l-.12.28c.07.03.34.17.84.49l-.42-.17-.54-.22c-.1.15-.57.62-.8.85a4.21 4.21 0 0 0 1.7.34Zm.24-1.72a5.13 5.13 0 0 0-.45-1.96c-.26-.28-1.04-.97-1.45-1.33-.02.2-.08.68-.16 1.01a28.5 28.5 0 0 1 2.06 2.28Zm-.9-2.76a5.18 5.18 0 0 0-.93-1.03l-.07.4 1 .63Zm-1.44-1.4c-.02.4-.05 1.08-.1 1.51-.19-.11-.75-.6-1-.82.28.32.88.97 1 1.04-.06.59-.3 1.58-.42 2l-1.06-.4c.34.12 1 .4 1.03.5.02.1-.19.84-.3 1.2-.4-.19-1-.42-1.54-.54.11-.32.22-.6.28-.74l.03-.07 1.29.32a6.12 6.12 0 0 0-1.22-.5c.28-.46.85-1.9.9-4.05.4.14.77.32 1.11.54Zm-2.5 9.45c.03-.06.08-.15.1-.23l.19-.45c.15-.34.32-.73.33-.87l-1.78 1.5a5.18 5.18 0 0 0 1.16.05Zm-2-.28.48-.9-1.1-.93-.51 1.27c.35.23.72.42 1.12.56Zm-1.64-.94.72-1.07c-.17-.17-.89-.73-2.37-1.61.26 1.06.85 1.99 1.65 2.68ZM3.87 9.38l2.72 2.13.17-.46c-.76-.67-2.3-2-2.9-2.34a5.24 5.24 0 0 0 .01.67Zm7.05 1.07.12-.4c.26.1 1.03.45 1.96 1.03a9.7 9.7 0 0 0-2.08-.63Zm-3.8-3.01.24-.25c.22.03.95.2 2.1.6A7.29 7.29 0 0 0 7.58 7c.48-.61 1.67-2.05 2.55-2.9a9.43 9.43 0 0 1-.53 4.03c-.86-.28-1.87-.54-2.48-.7Z" fill="#fff"/></svg>