<!-- by TradingView --><svg width="18" height="18" viewBox="0 0 18 18" xmlns="http://www.w3.org/2000/svg"><path fill="#F0F3FA" d="M0 0h18v18H0z"/><path d="M16.63 7.3h.04A2.12 2.12 0 0 0 15.08 5v.8c.85 0 1.55.63 1.55 1.5Z" fill="#E4A015"/><path d="M15.08 5.4v-.06c-1.02-.14-2 .68-2.24 1.96h.78c0-1.05.63-1.78 1.46-1.9ZM15.08 8.89v.04c.88.12 1.71-.57 1.92-1.63h-.67c0 .88-.5 1.54-1.25 1.59ZM1 11.57h1V7.3H1v4.27ZM3.53 9.24l2.1-1.94H4.28L2.43 8.97a.5.5 0 0 0-.15.38c0 .17.07.31.19.42l1.9 1.8H5.8L3.53 9.43c-.07-.06-.07-.13 0-.2ZM8.73 9.93h.63c.63 0 1.06-.47 1.06-1.12v-.5c0-.64-.43-1.01-1.06-1.01h-2.7c-.52 0-.86.42-.86.93v3.34h.96V8.3c0-.17.13-.33.3-.33h1.9c.2 0 .36.13.36.33v.52c0 .2-.16.36-.36.36H7.68c-.19 0-.34.04-.42.26-.07.17.02.37.12.47l1.79 1.67h1.43L8.73 9.93Z" fill="#00B4D6"/><path d="m13.7 9.37 1.59-2.07H14.2l-1.05 1.38L12.1 7.3h-1.07l1.6 2.07-1.71 2.2h1.1l1.14-1.52 1.14 1.52h1.1l-1.7-2.2Z" fill="#00B4D6"/></svg>