<!-- by TradingView --><svg width="18" height="18" viewBox="0 0 18 18" xmlns="http://www.w3.org/2000/svg"><path fill="#001EFF" d="M0 0h18v18H0z"/><path fill-rule="evenodd" d="m4.42 5.07-.15.15c.19.09.25.1.45.1.05-.03.38-.2.57-.22l-.05-.44-.27.08.05.15-.12.06-.08-.14-.27.16.08.13-.02.01-.09.07-.1-.1Zm1 .76c.04-.15.2-.14.34-.13.15 0 .28.01.3-.14.14.3-.15.28-.39.26-.1 0-.2-.01-.26.01Zm-1.3 5.77-.42.04v.77c.58-.1 1.16.05 1.75.2.58.16 1.16.32 1.74.21v-.81c-.58.1-1.17-.05-1.76-.2l-.35-.1-.23-.06-.72-.05Zm.93 0 .15.05.25.07a4.4 4.4 0 0 0 1.58.23v-.08c0-.09.11-.15.39-.08.2.06.38.16.38.32v.1c.76.2 1.56.2 2.32 0v-.1c0-.16.18-.26.38-.32.28-.07.38 0 .38.08v.08c.53.05 1.07-.09 1.6-.23l.34-.1.07-.03-.05-.13s-.04-.29.13-.39c.13-.1.27-.03.4.03l.03.02c.07.03.19-.18.17-.37-.08-.1-.15-.22-.21-.34a.23.23 0 0 1-.2.06c.04-.21-.1-.63-.1-.63l.05-.26-.08-.05-.1.02c-.16.01-.45.05-.45.13 0 .1.03.5.05.6 0 .06-.04.18-.12.19-.8.43-.89.37-1.28.05a8.7 8.7 0 0 0-.17-.13.8.8 0 0 1-.12.2 2.71 2.71 0 0 1-1.88 1.38 2.73 2.73 0 0 1-1.9-1.4v-.02a.64.64 0 0 1-.06-.08v-.05l-.13.1c-.4.32-.48.38-1.28-.05-.08 0-.13-.13-.12-.2.02-.08.05-.5.05-.6 0-.07-.3-.1-.46-.12l-.09-.02-.08.05.05.26s-.14.42-.1.63a.23.23 0 0 1-.2-.06l-.2.34c-.03.19.1.4.16.37a4 4 0 0 0 .04-.02c.12-.06.26-.13.39-.03.13.08.06.38.02.52Zm1.81-2.06-.06-.4c-.1.05-.34.1-.44.06.17-.08.3-.45.18-.5-.2-.07-.37.04-.5.2v.01c-.1-.13-.03-.33.04-.4.03-.06.12-.06.2-.06h.05l-.39-.33s.05.22-.09.36c-.14-.17-.2-.14-.2-.14s-.48.4-.5.47c0 0 .02.23.44.3.76.14.53.64.43.86l-.03.08c.17 0 .35.04.5.12a.28.28 0 0 0 .01-.19.46.46 0 0 1-.02-.28c.01-.07.16-.1.28-.13l.1-.03Zm-.15-1.08v-.09H6.7V6.71l-.03-.1.02-.02c-.2-.03-.2-.14-.2-.32-.12.11-.2.2-.25.28a1.6 1.6 0 0 1-.08.1c.69.44.34.97-.1 1 .15.16.29.34.42.52l.23.28Zm.74-2.52c-.07-.03-.07-.05-.08-.08a.36.36 0 0 0-.03-.07c-.04-.1-.11-.16-.16-.17-.2-.1-.52.16-.77.37-.12.1-.23.19-.3.22a.75.75 0 0 0-.22.15l-.17-.02c-.18-.02-.35-.03-.45-.18a1 1 0 0 1-.13.05c-.18.04-.48-.15-.3-.34-.1.26.26.3.43.22.18.06.47.05.43-.22-.1.1-.2.07-.31.05-.1-.03-.19-.05-.25-.03.05-.09.14-.13.22-.17a.51.51 0 0 0 .2-.16c.1-.1.27-.03.28.05a.3.3 0 0 0-.02-.25c-.1-.17-.32-.1-.32-.1-.03-.1-.16-.1-.17-.1-.2.03-.4.1-.6.2a.85.85 0 0 1-.46-.1.59.59 0 0 1-.26-.2c-.09.4.28.5.28.5-.14 0-.19-.05-.19-.05 0 .04.01.08.04.1.11.15.37.09.42.07-.14.09-.17.3-.2.44.04.02.08.03.13.02a.64.64 0 0 0 0 .55.37.37 0 0 0 .1-.15s.64 1 .09.98c-.32 0-.52-.34-.44-.5.16-.31.05-.49-.16-.8l-.01-.03c-.49-.77-.45-1.36-.45-1.36-.24.13-.2.61-.2.61-.13-.2-.3-.47-.28-.75-.38.46-.07 1.15-.07 1.15-.3-.23-.3-.48-.3-.48-.24.43.24.96.24.96-.3-.03-.38-.14-.38-.14-.02.51.55.62.55.62-.18.03-.36.03-.53-.02.2.58.72.62.72.62a1.3 1.3 0 0 1-.48.16c.17.4.71.22.71.22-.1.08-.2.17-.27.26.08.09.28.15.44.1-.06.25.01.37.01.37.11.02.24 0 .34-.06 0 .08.01.17.06.24l.02.05c-.11.18-.17.39-.22.6l-.02.06c-.13.44-.28.6-.44.6-.38 0-.2-.57-.07-.94.05-.14.08-.25.08-.3 0-.3-.16-.51-.48-.51-.17 0-.23.06-.3.13-.04.05-.18.12-.18.12s0 .62.33.93c-.01-.12.06-.23.13-.35.06-.09.12-.18.13-.28a.58.58 0 0 0-.03-.19c-.02-.09-.05-.17.01-.17.1 0 .19.17.19.28 0 .1-.05.24-.1.4-.13.48-.32 1.11.3 1.11.28 0 .46-.2.6-.51l.03.22c.04.13.07.26-.12.37-.04.02-.1.03-.14.02.06.11.04.25-.04.34l-.15.82-.1.04v.98c.62-.14 1.23.02 1.84.19.6.16 1.21.33 1.82.19v-.13a.6.6 0 0 1 .24.07v.28c.94.3 1.96.3 2.9 0v-.28a.54.54 0 0 1 .23-.07v.13c.6.14 1.22-.03 1.83-.2.6-.16 1.21-.32 1.82-.18v-.98c-.01-.02-.18-.06-.31-.06.2-.24.34-.66.16-.8a.33.33 0 0 1-.04-.34c-.05 0-.1 0-.14-.02-.2-.11-.16-.24-.12-.37.02-.08.04-.15.02-.22.15.31.33.51.6.51.63 0 .44-.63.3-1.1-.04-.17-.09-.32-.09-.4 0-.12.09-.29.19-.29.06 0 .04.08 0 .17 0 .07-.03.14-.02.19.01.1.07.2.13.28.07.12.14.23.13.35.34-.31.33-.93.33-.93s-.14-.07-.19-.12c-.06-.07-.12-.13-.29-.13-.32 0-.48.2-.48.5 0 .06.04.17.08.3.12.38.3.94-.07.94-.16 0-.31-.15-.44-.59l-.02-.06c-.05-.21-.1-.42-.22-.6l.02-.05a.38.38 0 0 0 .06-.24c.1.06.23.08.34.06 0 0 .07-.12.01-.37.16.05.36-.01.44-.1-.08-.1-.17-.18-.27-.26 0 0 .54.17.71-.22a1.3 1.3 0 0 1-.48-.16s.51-.04.72-.62c-.17.05-.35.05-.53.02 0 0 .57-.1.55-.62 0 0-.08.1-.38.14 0 0 .48-.53.25-.96 0 0-.02.25-.31.48 0 0 .3-.7-.07-1.15.02.28-.15.56-.28.75 0 0 .04-.48-.2-.6 0 0 .04.58-.45 1.35l-.01.02c-.21.32-.32.5-.16.81.08.16-.12.5-.44.5-.55.01.08-.98.08-.98.02.06.06.11.1.15a.64.64 0 0 0 .01-.55c.05.01.09 0 .12-.02-.02-.15-.05-.35-.19-.44.05.02.31.08.42-.06a.17.17 0 0 0 .04-.1s-.05.03-.19.03c0 0 .37-.08.28-.5a.59.59 0 0 1-.26.22c-.19.08-.25.1-.47.1-.18-.11-.38-.18-.59-.22-.01 0-.14 0-.17.1 0 0-.22-.06-.32.11a.3.3 0 0 0-.02.25c.01-.08.19-.16.27-.05.06.08.13.12.21.16.08.04.17.08.22.17-.06-.02-.16 0-.25.03-.11.02-.22.04-.3-.05-.05.27.24.28.42.22.17.07.52.04.42-.22.2.19-.11.38-.29.34a1 1 0 0 1-.13-.05c-.1.15-.27.16-.45.18-.05 0-.11 0-.17.02a.75.75 0 0 0-.22-.15c-.07-.03-.18-.12-.3-.22-.25-.21-.56-.47-.77-.37-.05 0-.12.08-.16.17l-.03.07c0 .03-.01.05-.08.08h-3.1Zm6.33 5.67.44.03v.77c-.59-.1-1.17.05-1.75.2-.58.16-1.16.32-1.75.21v-.81c.59.1 1.17-.05 1.75-.2.13-.05.27-.08.4-.11l.13-.04.32-.05c.25-.05.46-.1.46 0Zm-.2-6.54.15.15c-.19.09-.25.1-.45.1-.05-.03-.38-.2-.57-.22l.05-.44.27.08-.05.15.12.06.08-.14.27.16-.08.13.02.01.09.07.1-.1Zm-5.83 7.84.02-.46c.15.21 2.05.23 2.35 0v.44c-.6.27-1.82.25-2.37.02Zm-.16.15c.9.27 1.85.27 2.74 0v-.82c-.9.27-1.85.27-2.74 0v.82Zm1.26-5h.22v-.18c.02-.06-.04-.12-.1-.12a.12.12 0 0 0-.12.12v.18Zm-.12.4a.1.1 0 0 0-.13.09c.01-.02.03-.02.05-.02.03 0 .06 0 .08-.07Zm-.88-.04a.1.1 0 0 1 .12.13c0-.03-.03-.03-.05-.04-.03 0-.06-.02-.07-.09Zm.61.12c-.03 0-.07 0-.1-.02-.01.01 0 .08.01.13l.01.05c.03-.09.08-.14.16-.16h-.08Zm2.87 1c.08.03.17.08.2.16.02.08 0 .22-.03.28a.28.28 0 0 0 0 .2c.16-.09.34-.13.51-.13a.69.69 0 0 0-.03-.08c-.1-.22-.33-.72.43-.85.42-.08.44-.31.44-.31-.02-.07-.5-.47-.5-.47s-.06-.03-.2.14c-.14-.14-.1-.36-.1-.36l-.38.33h.06c.07 0 .16 0 .2.05.06.08.12.28.03.41-.13-.17-.3-.28-.5-.21-.13.05.01.42.18.5-.12.05-.26 0-.35-.05.07.23 0 .37 0 .37l.04.02Zm-.1-2.24V6.6c.27 0 .28-.12.29-.32.11.11.19.2.24.28l.08.1c-.69.44-.34.97.1 1-.15.16-.29.34-.42.52l-.3.37V7.3Zm-2.58-.1-.04-.16c-.1.01-.2.03-.3.07l.12.35.11.12c.27-.1.57-.1.85 0l.1-.12.12-.35c-.1-.04-.2-.06-.3-.07l-.03.16-.15-.02v-.16a3 3 0 0 0-.34 0v.17l-.14.01Zm.14 1.6c.06-.02.08-.06.11-.1v-.02a.92.92 0 0 1-.11-.09.32.32 0 0 0 .06-.19.18.18 0 0 0-.11-.05l.06-.12a.9.9 0 0 0-.2-.01l.05-.07a.23.23 0 0 0-.15-.06l.06-.44c.26-.08.54-.08.8 0l.13.89c-.21-.06-.57-.08-.57.23 0 .33.43.3.65.24l.01.09-.27-.01c-.16 0-.3-.01-.46-.05L8.9 9l-.02-.02c-.03-.04-.06-.07-.1-.19Zm-.8-.38a.22.22 0 0 0-.15-.05c-.06.11 0 .15.06.18.03.02.07.04.08.07.02.09.05.11.14.09v.04c-.12.02-.05.13.02.13.03 0 .12-.02.12-.06 0-.02-.02-.02-.03-.02-.03 0-.05-.01-.05-.05.03-.1-.02-.2-.13-.2 0-.03.05-.03.1-.03h.1c-.02.07-.03.15-.03.23 0 .03.14.04.17-.01 0 0 .02 0 .02.02s-.01.03-.03.03c-.02 0-.04.01-.04.03 0 .04.05.07.11.07.12 0 .12-.11.04-.15l-.01-.03c.09.02.13 0 .13-.1 0-.02.03-.02.05-.03.03 0 .06 0 .09-.04a.3.3 0 0 0 .03-.11.18.18 0 0 0-.13-.02c.01-.05.03-.1.06-.14a.14.14 0 0 0-.17.07.17.17 0 0 1 .02-.18c-.05-.02-.1 0-.14 0-.07.02-.13.04-.1-.1-.08 0-.09.06-.1.1l-.01.05-.05-.01c-.04-.02-.09-.04-.16-.03.03 0 .13.07.1.13a.14.14 0 0 0-.17-.02c.05.03.1.1.05.14Zm.42.49c.01.05-.06.14-.1.14-.06 0-.13-.09-.12-.14a.07.07 0 0 1-.05 0c.09.23.24.23.32 0h-.05Zm-.1-.01c.11 0 .04.1 0 .1-.05 0-.13-.1 0-.1Zm0 .24c-.15 0-.22-.15-.27-.29-.04-.08-.07-.16-.12-.2-.02-.02-.05-.02-.07-.01H7.8a.1.1 0 0 0 .1.06v.01c-.01.04-.02.1-.12.22-.03.26.26.73.51.82-.03-.14.11-.23.25-.32.18-.11.37-.23.17-.45.03.02.07.02.1 0-.05-.04-.1-.2-.1-.26.05 0 .1 0 .11-.03l-.02-.02c-.03-.02-.06-.05-.08-.04l-.06.02c0 .04-.02.08-.05.1 0 0 .02.12-.08.16l-.04.07c-.05.07-.1.16-.19.16Zm-.8-.17c.04.02.08.05.09.09.44 1.03.25.33.14-.07-.09 0 0-.12.04-.17.06-.09-.13-.22-.22-.17-.14.07-.19.2-.12.26l.07.06Zm1.42 1.27c-.08.08-.19.02-.24-.07a.12.12 0 0 1 .18-.15l.07.07c.1 0 .34-.1.36-.21 0-.02 0-.04-.02-.06-.02-.03-.05-.08-.07-.2a.75.75 0 0 1 .27-.01c.06.05.15.16.16.25.01.08-.03.08-.05.09h-.01c-.05.02-.11.07-.18.13-.1.08-.2.17-.27.16a.6.6 0 0 0-.2 0Zm.93.06h.16c.31 0 .4-.74.06-.74-.12 0-.17-.07-.22-.14-.03-.05-.07-.1-.12-.12.07.03.15.03.22.03.4 0 .48-.54.06-.57-.15.13-.87.15-.87.01 0 .06.7 0 .81-.09a.7.7 0 0 1 .29.09c.01-.12-.23-.35-.45-.2.04-.05-.04-.23-.18-.16.04.02.12.2-.05.2l-.16-.02c-.2-.03-.43-.07-.43.18 0 .14.13.21.29.21.14 0 .28-.02.42-.06 0 .04.03.07.07.09-.02-.17.37-.18.4.02 0 .23-.3.23-.45.16l-.35-.04c-.2-.01-.41-.03-.54-.06.05.25-.11.35-.26.43-.13.07-.25.14-.2.3a.38.38 0 0 1-.14-.03l-.05.07a.69.69 0 0 1-.12.15c-.23-.15-.57.26-.17.35.16 0 .3-.07.3-.15.02-.02.36-.35.38-.47a.1.1 0 0 1 .03.08.18.18 0 0 0 .06-.13l.2-.05c.21-.05.44-.11.65-.08l.07.05c.08.08.15.13.28.14h.02c.06 0 .13 0 .15.07.02.07.07.27-.05.28l-.1-.01c-.14-.14-.43-.05-.28.17.08.12.21.1.27.04Zm2.38-4.6c.14-.01.3-.02.35.13a.76.76 0 0 0-.26 0c-.24 0-.53.02-.4-.27.03.15.16.15.3.14Zm-.6 6.88c-.23.04-.46.07-.63.07v-.45c.13 0 .32-.02.55-.07l.62-.12.15-.03a8.17 8.17 0 0 1 1.57-.22v.45c-.38-.01-.92.1-1.48.21l-.14.03c-.22.05-.44.1-.64.13Zm-4.7.07c-.18 0-.4-.03-.64-.07l-.63-.13-.15-.03a7.81 7.81 0 0 0-1.47-.21v-.45c.43-.01 1.03.1 1.57.22l.14.03.62.12c.24.05.43.07.56.07v.45Z" fill="#fff"/></svg>