<!-- by TradingView --><svg width="18" height="18" viewBox="0 0 18 18" xmlns="http://www.w3.org/2000/svg"><path fill="#F0F3FA" d="M0 0h18v18H0z"/><path d="M8.97 2c.09.01.18-.02.27.02.12.01.23.09.33.14l.37.21.5.29.47.27.65.37.52.29.59.34.5.28a36.26 36.26 0 0 0 .98.56l.48.27.35.2c.06.04.13.07.16.13.04.1 0 .21-.09.27l-.37.21-3.4 1.92-.96.56a.8.8 0 0 1-.82 0c-.31-.18-.6-.38-.91-.57-.09-.05-.16-.12-.26-.14 0-.06-.05-.08-.1-.11l-.22-.14-1.1-.7-1.54-.98c-.11-.07-.22-.15-.34-.2-.27-.12-.54-.25-.83-.35a1.4 1.4 0 0 0-.42-.08h-.32c.22-.16.46-.28.7-.41L7.6 2.72l.73-.4.36-.21a.93.93 0 0 1 .28-.1Z" fill="#CF1F41"/><path d="M3.45 5.05c.1.02.22.01.33.01.14 0 .28.04.42.08.29.1.56.23.83.35.12.05.23.13.34.2l1.53.98 1.11.7.22.14c.04.03.1.05.1.11-.1.03-.16.09-.24.13l-.54.3-1.22.69-.8.45-.32.18-.57.32c-.11.06-.22.14-.35.2-.14.06-.27.14-.4.22-.16.1-.33.17-.48.28l-.36.2c-.13.06-.32.02-.35-.18V6.46c0-.17.05-.34.05-.51.03 0 .05-.02.02-.05.03-.19.1-.36.22-.52a.93.93 0 0 1 .46-.33Z" fill="#AD1E35"/><path d="M14.51 12.95c0-.01-.02-.03-.03-.02-.22.03-.43-.02-.64-.08a3.25 3.25 0 0 1-.8-.33c-.05-.03-.1-.06-.16-.07l-.03-.03c-.19-.1-.35-.22-.53-.33l-.74-.47c-.34-.2-.67-.41-1-.63l-.83-.53c-.03-.02-.06-.04-.06-.08.05-.06.12-.08.17-.11l1-.57.38-.21c.27-.15.52-.31.8-.45l.61-.33.66-.38.3-.17c.17-.1.34-.17.5-.28.11-.09.25-.14.38-.22l.39-.22c.22-.12.4-.04.42.2v3.73c0 .27-.03.54-.1.8-.05.21-.13.4-.3.56-.11.1-.25.16-.38.22Z" fill="#323C43"/><path d="m12.88 12.45-.03-.03a3.8 3.8 0 0 1-.54-.33l-.53-.34-.2-.13-.28-.17a41.19 41.19 0 0 1-1.55-1c-.04-.02-.06-.03-.06-.07-.03 0-.07 0-.1-.02a6.66 6.66 0 0 0-.67-.44 5.43 5.43 0 0 0-.37-.23.87.87 0 0 0-.9-.02l-.6.36-.42.23a14.74 14.74 0 0 0-.48.27c-.85.48-1.16.64-1.68.95l-.21.12-.64.35-.18.1-.14.08-.36.21c-.15.1-.15.3 0 .4l.23.13.1.06.52.29a35.36 35.36 0 0 1 .46.26l.52.3.1.06.37.2.4.23.09.05.39.22.39.23.2.11.29.16.44.26.33.18.38.22.23.14c.17.1.35.18.56.16a.74.74 0 0 0 .33-.1l.18-.11a101.15 101.15 0 0 1 1.55-.86l.24-.13.71-.4.26-.15.93-.52.23-.13.93-.52a.78.78 0 0 1 .06-.03.32.32 0 0 0 .15-.1h-.01c-.01-.02-.02-.03-.04-.03-.22.04-.42-.02-.63-.07a3.32 3.32 0 0 1-.81-.33l-.01-.01c-.04-.03-.09-.05-.13-.06Z" fill="#4F636B"/></svg>