<!-- by TradingView --><svg width="18" height="18" viewBox="0 0 18 18" xmlns="http://www.w3.org/2000/svg"><path fill="#642E68" d="M0 0h18v18H0z"/><path d="M2.34 5.15c0-.08.08-.15.16-.15h.38c.1 0 .17.08.16.17l-.33 7.68c0 .08-.08.15-.16.15h-.38a.16.16 0 0 1-.16-.17l.33-7.68Z" fill="#fff"/><path d="M3.44 5.1a.16.16 0 0 0-.15-.1h-.36a.16.16 0 0 0-.15.21l2.33 6.54c.02.06.09.1.15.1h.36c.11 0 .2-.1.15-.2L3.44 5.1ZM8.65 5.16A.16.16 0 0 0 8.49 5H8.1a.16.16 0 0 0-.16.16v6.55c0 .71.58 1.29 1.29 1.29h.82c.1 0 .16-.07.16-.16v-.44a.16.16 0 0 0-.16-.16H9.3a.64.64 0 0 1-.64-.65V5.16Z" fill="#fff"/><path d="M7.56 5.1c.02-.06.09-.1.15-.1h.36c.11 0 .2.11.15.21L5.9 11.75a.16.16 0 0 1-.15.1h-.36a.16.16 0 0 1-.15-.2L7.56 5.1Z" fill="#fff"/><rect x="8.3" y="6.9" width="1.75" height=".76" rx=".16" fill="#fff"/><path d="M11.1 8.9v3.9a.2.2 0 0 0 .05.14l.06.05H11.7c.03.01.05 0 .07 0a.16.16 0 0 0 .07-.05.19.19 0 0 0 .04-.15V9.52h1.39l1.88 3.37a.2.2 0 0 0 .08.08c.03.02.07.03.11.03h.58c.1 0 .12-.08.05-.19l-1.97-3.44c.89-.24 1.66-.97 1.66-2v-.25c0-1.46-1.19-2.12-2.84-2.12-.46 0-.95.04-1.41.11a.16.16 0 0 0-.13.19l.06.35c.01.08.1.14.18.13l.46-.06h.05c.27-.05.53-.07.8-.06 1.24 0 2.03.37 2.03 1.48v.15c-.02 1.13-.79 1.6-1.9 1.6h-.15l-1 .01h-.7Z" fill="#fff"/></svg>