<!-- by TradingView --><svg width="18" height="18" viewBox="0 0 18 18" xmlns="http://www.w3.org/2000/svg"><path fill="#F0F3FA" d="M0 0h18v18H0z"/><path d="M9.73 8.02c-.63 0-.96.37-.96 1.02s.33 1 .96 1c.44 0 .7-.2.8-.61h1.67C12.06 10.47 11.2 11 9.73 11c-1.67 0-2.53-.67-2.53-1.97 0-1.3.86-1.97 2.53-1.97 1.55 0 2.41.6 2.47 1.67h-1.67c-.04-.45-.32-.72-.8-.72Z" fill="#EC2127"/><path d="m13.4 8.94-1.44-1.79h1.75l.51.81.57-.8h1.73l-1.45 1.78 1.64 1.99H14.9l-.67-1.02-.69 1.02h-1.82l1.68-2ZM1.28 7.15h2.13l.64 2.3.69-2.3h2.14v3.78H5.54V7.98l-.9 2.95H3.51l-.88-2.95v2.95H1.29V7.15Z" fill="#223C77"/></svg>