<!-- by TradingView --><svg width="18" height="18" viewBox="0 0 18 18" xmlns="http://www.w3.org/2000/svg"><path fill="#F0F3FA" d="M0 0h18v18H0z"/><path d="M3 3.2c0-.1.08-.18.17-.18h.28c.15 0 .28.13.28.3v2.9c0 .1-.08.19-.18.19-.1 0-.17-.08-.17-.19V3.4h-.2c-.1 0-.18-.08-.18-.18Z" fill="#A6B7D4"/><path d="M14.03 7.48c0-.1.08-.19.17-.19h.27c.16 0 .28.14.28.3v2.9c0 .1-.07.2-.17.2s-.18-.1-.18-.2V7.67h-.2c-.1 0-.17-.09-.17-.2Z" fill="#00AA8D"/><path d="M6.26 3.19c0-.1.08-.19.18-.19h1.04c.34 0 .62.3.62.68v.52c0 .37-.28.68-.62.68h-.7c-.1 0-.17-.09-.17-.19s.08-.19.18-.19h.69c.15 0 .27-.13.27-.3v-.52c0-.17-.12-.3-.27-.3H6.44c-.1 0-.18-.09-.18-.2Z" fill="#6ABFA2"/><path d="M6.26 6.2c0 .1.08.18.18.18h1.04c.34 0 .62-.3.62-.68v-.52c0-.38-.28-.68-.62-.68h-.7c-.09 0-.17.09-.17.19s.08.19.18.19h.69c.15 0 .28.13.28.3v.52c0 .17-.13.3-.28.3H6.44c-.1 0-.18.09-.18.2Z" fill="#6ABFA2"/><path d="M3.06 11.8c0-.1.08-.18.17-.18h1.04c.35 0 .63.3.63.68v.52c0 .38-.28.68-.63.68h-.69c-.1 0-.17-.09-.17-.19s.07-.19.17-.19h.7c.15 0 .27-.13.27-.3v-.52c0-.17-.12-.3-.28-.3H3.23c-.1 0-.17-.09-.17-.2Z" fill="#C6CEDB"/><path d="M3.06 14.81c0 .1.08.19.17.19h1.04c.35 0 .63-.3.63-.68v-.52c0-.37-.28-.68-.63-.68h-.69c-.1 0-.17.09-.17.19s.07.19.17.19h.7c.15 0 .27.13.27.3v.52c0 .17-.12.3-.28.3H3.23c-.1 0-.17.09-.17.2Z" fill="#C6CEDB"/><path d="M13.13 9.55c0-.1.08-.19.17-.19h1.04c.35 0 .63.3.63.68v.52c0 .37-.28.68-.63.68h-.69c-.1 0-.17-.09-.17-.2 0-.1.08-.18.17-.18h.7c.15 0 .27-.13.27-.3v-.52c0-.17-.12-.3-.28-.3H13.3c-.1 0-.17-.09-.17-.2Z" fill="#BBCDEB"/><path d="M13.13 12.55c0 .1.08.19.17.19h1.04c.35 0 .63-.3.63-.68v-.52c0-.38-.28-.68-.63-.68h-.69c-.1 0-.17.09-.17.19s.08.19.17.19h.7c.15 0 .27.13.27.3v.52c0 .17-.12.3-.28.3H13.3c-.1 0-.17.09-.17.2Z" fill="#BBCDEB"/><path d="M3.1 7.5c0-.11.08-.2.18-.2h1.04c.34 0 .63.3.63.68v.52c0 .38-.29.68-.63.68h-.7c-.09 0-.17-.08-.17-.19 0-.1.08-.18.18-.18h.69c.15 0 .28-.14.28-.3v-.53c0-.17-.13-.3-.28-.3H3.28c-.1 0-.18-.09-.18-.19Z" fill="#72BA64"/><path d="M3.1 10.5c0 .1.08.18.18.18h1.04c.34 0 .63-.3.63-.67v-.53c0-.37-.29-.67-.63-.67h-.7c-.09 0-.17.08-.17.18 0 .1.08.2.18.2h.69c.15 0 .28.12.28.3V10c0 .16-.13.3-.28.3H3.28c-.1 0-.18.08-.18.18Z" fill="#72BA64"/><path d="M10.93 3.32c0-.17.12-.3.28-.3h1.6c.1 0 .18.08.18.19 0 .1-.08.18-.18.18h-1.53v.62c0 .16.12.3.27.3h.35c.55 0 .98.47.98 1.05 0 .58-.43 1.05-.98 1.05h-.87c-.1 0-.17-.08-.17-.19 0-.1.07-.18.17-.18h.87c.35 0 .63-.3.63-.68 0-.37-.28-.68-.63-.68h-.35c-.34 0-.62-.3-.62-.67v-.7Z" fill="#3A937E"/><path d="M11.25 9.63c0-.16.12-.3.28-.3h1.6c.1 0 .18.09.18.19s-.08.19-.17.19H11.6v.61c0 .17.12.3.28.3h.35c.54 0 .98.47.98 1.05 0 .58-.44 1.05-.98 1.05h-.88c-.1 0-.17-.08-.17-.18 0-.1.08-.2.17-.2h.88c.35 0 .63-.3.63-.67 0-.37-.28-.67-.63-.67h-.35c-.35 0-.63-.3-.63-.68v-.69Z" fill="#B6BFD0"/><path d="M3.13 9.68c0-.16.12-.3.28-.3H5c.1 0 .18.09.18.19s-.08.19-.18.19H3.48v.61c0 .17.12.3.28.3h.35c.54 0 .97.47.97 1.05 0 .58-.43 1.06-.97 1.06h-.88c-.1 0-.17-.09-.17-.2 0-.1.08-.18.17-.18h.88c.34 0 .63-.3.63-.68 0-.37-.29-.67-.63-.67h-.35c-.35 0-.63-.3-.63-.68v-.69Z" fill="#8CB5A2"/><path d="M6.5 5.17a.27.27 0 0 1 .2-.1h.1c.15 0 .28.14.28.3v1.69h.16c.1 0 .18.08.18.19 0 .1-.08.18-.18.18h-.16v.87c0 .1-.08.19-.18.19-.1 0-.17-.09-.17-.19v-.87H5.65c-.46 0-.7-.6-.37-.96l1.22-1.3Zm.23 1.89v-1.6l-1.2 1.28c-.1.12-.03.32.12.32h1.08Z" fill="#B8D8A9"/><path d="M10.65 5.3c0-.1.08-.19.18-.19h1.13c.45 0 .75.5.58.94l-.87 2.3c-.03.1-.13.14-.22.1a.2.2 0 0 1-.1-.25l.87-2.3c.07-.2-.06-.41-.26-.41h-1.13c-.1 0-.18-.08-.18-.19Z" fill="#6DB860"/><path d="M13.06 11.75c0-.1.08-.19.18-.19h1.13c.45 0 .75.49.58.93l-.87 2.3c-.03.1-.14.15-.22.1a.2.2 0 0 1-.1-.24l.87-2.3c.07-.2-.06-.41-.26-.41h-1.13c-.1 0-.18-.08-.18-.19Z" fill="#AEAFD0"/><path d="M4.9 7.5c0-.1.08-.18.17-.18H6.3c.53 0 .82.65.5 1.1l-1.36 1.85h1.42c.1 0 .17.08.17.18 0 .1-.08.2-.17.2H5.29c-.23 0-.36-.3-.22-.5l1.45-1.97c.15-.2.02-.48-.22-.48H5.07c-.1 0-.17-.09-.17-.2Z" fill="#8DC57B"/><path d="M5 11.84c0-.1.08-.2.18-.2h1.23c.52 0 .82.66.5 1.1L5.53 14.6h1.42c.1 0 .18.08.18.18 0 .1-.08.2-.18.2H5.4c-.24 0-.37-.3-.22-.5l1.45-1.97c.14-.2.01-.49-.22-.49H5.18c-.1 0-.17-.08-.17-.18Z" fill="#C6D8E7"/><path d="M8.95 3.36a.17.17 0 0 1 .24.07l1.3 2.41a.2.2 0 0 1-.07.26.17.17 0 0 1-.24-.07L8.88 3.6a.2.2 0 0 1 .07-.25Z" fill="#00AD90"/><path d="M8.61 4.18c0-.65.5-1.18 1.1-1.18.6 0 1.1.53 1.1 1.18V5.2c0 .65-.5 1.18-1.1 1.18-.6 0-1.1-.53-1.1-1.18V4.18ZM9.71 6c.42 0 .75-.36.75-.8V4.18c0-.44-.33-.8-.75-.8-.41 0-.75.36-.75.8V5.2c0 .44.34.8.75.8Z" fill="#00AD90"/><path d="M11.58 11.9a.17.17 0 0 1 .24.06l1.3 2.42a.2.2 0 0 1-.07.26.17.17 0 0 1-.24-.07l-1.3-2.42a.2.2 0 0 1 .07-.26Z" fill="#D5D5D5"/><path d="M11.24 12.72c0-.65.5-1.18 1.1-1.18.6 0 1.1.53 1.1 1.18v1.02c0 .65-.5 1.18-1.1 1.18-.6 0-1.1-.53-1.1-1.18v-1.02Zm1.1 1.82c.41 0 .75-.36.75-.8v-1.02c0-.45-.34-.8-.75-.8s-.75.35-.75.8v1.02c0 .44.34.8.75.8Z" fill="#D5D5D5"/><path d="M5.47 9.65a.17.17 0 0 1 .24.07l1.3 2.42a.2.2 0 0 1-.07.26.17.17 0 0 1-.24-.07L5.4 9.9a.2.2 0 0 1 .07-.26Z" fill="#72BA64"/><path d="M5.13 10.48c0-.65.5-1.18 1.1-1.18.61 0 1.1.53 1.1 1.18v1.01c0 .66-.49 1.19-1.1 1.19-.6 0-1.1-.53-1.1-1.19v-1.01Zm1.1 1.82c.42 0 .75-.36.75-.8v-1.02c0-.45-.33-.8-.75-.8-.41 0-.75.35-.75.8v1.01c0 .45.34.81.75.81Z" fill="#72BA64"/><path d="M7.17 7.7a.17.17 0 0 1 .24.06l1.3 2.42a.2.2 0 0 1-.07.26.17.17 0 0 1-.24-.07L7.1 7.95a.2.2 0 0 1 .07-.26Z" fill="#B7D481"/><path d="M6.83 8.52c0-.65.5-1.18 1.1-1.18.6 0 1.1.53 1.1 1.18v1.02c0 .65-.5 1.18-1.1 1.18-.6 0-1.1-.53-1.1-1.18V8.52Zm1.1 1.82c.41 0 .75-.36.75-.8V8.52c0-.45-.34-.8-.75-.8s-.75.35-.75.8v1.02c0 .44.34.8.75.8Z" fill="#B7D481"/><path d="M4.23 3.75c0-.41.31-.75.7-.75h.5c.4 0 .7.34.7.75v.2c0 .41-.3.75-.7.75h-.5c-.39 0-.7-.34-.7-.75v-.2Zm.7-.37c-.2 0-.35.16-.35.37v.2c0 .2.15.37.35.37h.5c.2 0 .36-.17.36-.37v-.2c0-.2-.16-.37-.35-.37h-.51Z" fill="#A6B7D4"/><path d="M4.16 5.07c0-.42.31-.76.7-.76h.7c.38 0 .7.34.7.76v.56c0 .41-.32.75-.7.75h-.7c-.39 0-.7-.34-.7-.75v-.56Zm.7-.38c-.2 0-.35.17-.35.38v.56c0 .2.15.37.35.37h.7c.19 0 .35-.16.35-.37v-.56c0-.21-.16-.38-.35-.38h-.7Z" fill="#A6B7D4"/><path d="M7.05 12.29c0-.42.31-.75.7-.75h.51c.39 0 .7.33.7.75v.2c0 .4-.31.75-.7.75h-.51c-.39 0-.7-.34-.7-.76v-.2Zm.7-.38c-.2 0-.35.17-.35.38v.2c0 .2.16.37.35.37h.51c.2 0 .35-.17.35-.38v-.2c0-.2-.16-.37-.35-.37h-.51Z" fill="#99D1C5"/><path d="M6.98 13.6c0-.41.32-.75.7-.75h.7c.39 0 .7.34.7.75v.57c0 .41-.31.75-.7.75h-.7c-.38 0-.7-.34-.7-.75v-.57Zm.7-.37c-.2 0-.35.17-.35.37v.57c0 .2.16.37.35.37h.7c.2 0 .35-.17.35-.37v-.57c0-.2-.16-.37-.35-.37h-.7Z" fill="#99D1C5"/><path d="M12.95 5.91c0-.41.3-.75.7-.75h.5c.4 0 .7.34.7.75v.2c0 .41-.3.75-.7.75h-.5c-.4 0-.7-.34-.7-.75v-.2Zm.7-.38c-.2 0-.35.17-.35.38v.2c0 .2.15.37.35.37h.5c.2 0 .35-.17.35-.37v-.2c0-.2-.15-.38-.35-.38h-.5Z" fill="#B8D8A9"/><path d="M12.88 7.22c0-.41.31-.75.7-.75h.7c.38 0 .7.34.7.75v.57c0 .41-.32.75-.7.75h-.7c-.39 0-.7-.34-.7-.75v-.57Zm.7-.37c-.2 0-.35.17-.35.37v.57c0 .2.15.37.35.37h.7c.19 0 .35-.17.35-.37v-.57c0-.2-.16-.37-.35-.37h-.7Z" fill="#B8D8A9"/><path d="M9.46 8c0-.42.32-.76.7-.76h.51c.39 0 .7.34.7.76v.2c0 .4-.31.74-.7.74h-.5c-.4 0-.7-.33-.7-.75V8Zm.7-.38c-.19 0-.35.17-.35.38v.2c0 .2.16.37.35.37h.51c.2 0 .35-.17.35-.38V8c0-.2-.15-.37-.35-.37h-.5Z" fill="#72BA64"/><path d="M9.4 9.31c0-.42.31-.75.7-.75h.7c.38 0 .7.33.7.75v.56c0 .42-.32.75-.7.75h-.7c-.39 0-.7-.33-.7-.75v-.56Zm.7-.38c-.2 0-.35.17-.35.38v.56c0 .21.15.38.35.38h.7c.19 0 .34-.17.34-.38v-.56c0-.2-.15-.38-.35-.38h-.7Z" fill="#72BA64"/><path d="M12.9 3.77c0-.41.3-.75.7-.75h.7c.38 0 .7.34.7.75v.56c0 .42-.32.75-.7.75h-.7c-.4 0-.7-.33-.7-.75v-.56Zm.7-.38c-.2 0-.36.17-.36.38v.56c0 .21.16.38.35.38h.7c.2 0 .35-.17.35-.38v-.56c0-.2-.15-.38-.35-.38h-.7Z" fill="#0AA537"/><path d="M14.82 4.31c.1 0 .17.09.17.2v1.12c0 .41-.31.75-.7.75h-.65c-.39 0-.7-.34-.7-.75v-.18c0-.1.08-.18.17-.18.1 0 .18.08.18.18v.18c0 .2.16.37.35.37h.65c.2 0 .35-.16.35-.37V4.5c0-.1.08-.19.18-.19Z" fill="#0AA537"/><path d="M9.05 12.34c0-.42.3-.76.7-.76h.7c.38 0 .7.34.7.76v.56c0 .41-.32.75-.7.75h-.7c-.4 0-.7-.34-.7-.75v-.56Zm.7-.38c-.2 0-.36.17-.36.38v.56c0 .2.16.37.35.37h.7c.2 0 .35-.16.35-.37v-.56c0-.21-.15-.38-.35-.38h-.7Z" fill="#B9D9AB"/><path d="M10.97 12.88c.1 0 .17.08.17.19v1.12c0 .42-.31.75-.7.75H9.8c-.39 0-.7-.33-.7-.75v-.17c0-.1.08-.19.18-.19.1 0 .17.09.17.19v.17c0 .21.16.38.35.38h.65c.2 0 .35-.17.35-.38v-1.12c0-.1.08-.2.18-.2Z" fill="#B9D9AB"/><path d="M7.15 9.58c0-.1.08-.18.17-.18h1.04c.35 0 .63.3.63.67v.53c0 .37-.28.67-.63.67h-.69c-.1 0-.17-.08-.17-.18 0-.1.08-.2.17-.2h.7c.15 0 .27-.13.27-.3v-.52c0-.16-.12-.3-.28-.3H7.32c-.1 0-.17-.08-.17-.19Z" fill="#6CBE98"/><path d="M7.15 12.59c0 .1.08.19.17.19h1.04c.35 0 .63-.3.63-.68v-.53c0-.37-.28-.67-.63-.67h-.69c-.1 0-.17.08-.17.19 0 .1.08.18.17.18h.7c.15 0 .27.14.27.3v.53c0 .17-.12.3-.28.3H7.32c-.1 0-.17.08-.17.19Z" fill="#6CBE98"/><path d="M11.2 11.93c0 .41-.3.75-.7.75h-.7c-.38 0-.7-.34-.7-.75v-.57c0-.41.32-.75.7-.75h.7c.4 0 .7.34.7.75v.57Zm-.7.37c.2 0 .36-.17.36-.37v-.57c0-.2-.16-.37-.35-.37h-.7c-.2 0-.35.16-.35.37v.57c0 .2.15.37.35.37h.7Z" fill="#B3D6A4"/><path d="M9.28 11.38c-.1 0-.17-.08-.17-.19v-1.12c0-.42.31-.75.7-.75h.65c.39 0 .7.33.7.75v.17c0 .1-.08.19-.17.19-.1 0-.18-.08-.18-.19v-.17c0-.21-.16-.38-.35-.38h-.65c-.2 0-.35.17-.35.38v1.12c0 .1-.08.2-.18.2Z" fill="#B3D6A4"/><path d="M11.63 8c0-.42.3-.76.7-.76h.7c.38 0 .7.34.7.75v.57c0 .41-.32.75-.7.75h-.7c-.4 0-.7-.34-.7-.75v-.57Zm.7-.38c-.2 0-.36.16-.36.37v.57c0 .2.16.37.35.37h.7c.2 0 .35-.17.35-.37v-.57c0-.2-.15-.37-.35-.37h-.7Z" fill="#00A766"/><path d="M13.55 8.54c.1 0 .17.08.17.18v1.13c0 .42-.31.75-.7.75h-.65c-.39 0-.7-.33-.7-.75v-.17c0-.1.08-.2.17-.2.1 0 .18.1.18.2v.17c0 .2.16.38.35.38h.65c.2 0 .35-.17.35-.38V8.72c0-.1.08-.18.18-.18Z" fill="#00A766"/><path d="M3.07 5.87c0-.42.32-.76.7-.76h.7c.39 0 .7.34.7.76v.56c0 .41-.31.75-.7.75h-.7c-.38 0-.7-.34-.7-.75v-.56Zm.7-.38c-.19 0-.35.17-.35.38v.56c0 .2.16.37.35.37h.7c.2 0 .35-.16.35-.37v-.56c0-.21-.15-.38-.35-.38h-.7Z" fill="#BFCFEC"/><path d="M5 6.41c.1 0 .17.08.17.19v1.12c0 .42-.31.75-.7.75h-.65c-.39 0-.7-.33-.7-.75v-.17c0-.1.08-.19.17-.19.1 0 .18.09.18.19v.17c0 .21.16.38.35.38h.65c.2 0 .35-.17.35-.38V6.6c0-.1.08-.19.18-.19Z" fill="#BFCFEC"/><path d="M7.52 5.87c0-.42.31-.76.7-.76h.7c.38 0 .7.34.7.76v.56c0 .41-.32.75-.7.75h-.7c-.39 0-.7-.34-.7-.75v-.56Zm.7-.38c-.2 0-.35.17-.35.38v.56c0 .2.15.37.35.37h.7c.19 0 .34-.16.34-.37v-.56c0-.21-.15-.38-.34-.38h-.7Z" fill="#9CCB8B"/><path d="M9.44 6.41c.1 0 .17.08.17.19v1.12c0 .42-.3.75-.7.75h-.65c-.38 0-.7-.33-.7-.75v-.17c0-.1.08-.19.18-.19.1 0 .17.09.17.19v.17c0 .21.16.38.35.38h.65c.2 0 .35-.17.35-.38V6.6c0-.1.08-.19.18-.19ZM9.88 5.17c0-.1.08-.19.17-.19h.28c.15 0 .27.14.27.3v2.9c0 .1-.07.2-.17.2s-.17-.1-.17-.2V5.36h-.2c-.1 0-.18-.09-.18-.2Z" fill="#9CCB8B"/></svg>