<!-- by TradingView --><svg width="18" height="18" viewBox="0 0 18 18" xmlns="http://www.w3.org/2000/svg"><rect width="18" height="18" rx="9" fill="#F0F3FA"/><path d="M12.6 7H17l-2.2 2-2.2-2Z" fill="#fff"/><path d="M12.6 11H17l-2.2-2-2.2 2Z" fill="#3397D3"/><path d="m17 7-2.2 2 2.2 2V7Z" fill="#0061A2"/><path d="M17 11V7H1v4h16ZM1.13 7.12h15.74v3.76H1.13V7.12Z" fill="#0061A2"/><path d="M1 7h11.6l2.2 2-2.2 2H1V7Z"/><path d="M4 10.38 2.67 9v1.4h-1V7.61h1L4 9v-1.4h1v2.77H4ZM5.33 10.38v-.61l1.51-1.54h-1.5v-.61H8v.61L6.5 9.77H8v.61H5.33ZM10.67 10.38 10 9.53l-.67.85h-1L9.5 9 8.33 7.62h1l.67.76.67-.76h1L10.5 9l1.17 1.38h-1Z" fill="#fff"/></svg>