<!-- by TradingView --><svg width="18" height="18" viewBox="0 0 18 18" xmlns="http://www.w3.org/2000/svg"><path fill="#F0F3FA" d="M0 0h18v18H0z"/><path fill-rule="evenodd" d="M2.03 7.42A.48.48 0 0 1 2.5 7h3.27c.3 0 .52.26.48.55l-.42 3.03a.48.48 0 0 1-.47.42H2.09a.48.48 0 0 1-.48-.55l.42-3.03Zm1.34.92c0-.03.04-.05.07-.05h1.25c.04 0 .07.03.06.07l-.25 1.3c0 .03-.03.05-.07.05H3.2a.06.06 0 0 1-.07-.07l.25-1.3Zm3.76-1.3c0-.02.03-.04.06-.04h1.1c.03 0 .06.02.06.05l.47 2.15 1.24-2.17A.06.06 0 0 1 10.1 7h1.08c.03 0 .06.03.06.06v3.6l1.56-1.58-1.3-1.98c-.02-.04 0-.1.06-.1h1.54c.02 0 .04.01.05.03l.67 1.02 1.01-1.03a.06.06 0 0 1 .05-.02h1.44c.06 0 .09.07.05.1l-1.9 1.94 1.23 1.86c.02.04 0 .1-.06.1h-1.54a.06.06 0 0 1-.05-.03l-.6-.9-.89.91a.06.06 0 0 1-.05.02H10.2a.06.06 0 0 1-.06-.06V9.19l-.9 1.78a.06.06 0 0 1-.07.03H8.1a.06.06 0 0 1-.07-.05l-.48-1.8-.64 1.8c-.01.03-.04.05-.06.05H5.8a.06.06 0 0 1-.06-.09l1.39-3.87Z" fill="#01A2C5"/></svg>