<!-- by TradingView --><svg width="18" height="18" viewBox="0 0 18 18" xmlns="http://www.w3.org/2000/svg"><path fill="url(#a)" d="M0 0h18v18H0z"/><path d="M7.06 2.16a6.24 6.24 0 0 0-4.8 4.54 10.77 10.77 0 0 0-.06 4.4 6.21 6.21 0 0 0 4.96 4.75c1.01.2 2.7.2 3.7 0a6.15 6.15 0 0 0 4.33-3.14c.6-1.13.81-2.13.81-3.71 0-2.36-.6-3.88-2.03-5.22a6.01 6.01 0 0 0-3.13-1.62c-1-.21-2.73-.21-3.78 0Zm3.27 2.32C11.98 5 12.85 6.29 13 8.4c.15 1.84-.3 3.29-1.29 4.24a3.58 3.58 0 0 1-2.7 1.04c-2.51 0-4.04-1.8-4.05-4.75 0-2.3.97-3.88 2.7-4.45a5.55 5.55 0 0 1 2.66-.01Z" fill="#363636"/><defs><linearGradient id="a" x1="3.35" y1="3.78" x2="2.72" y2="21.15" gradientUnits="userSpaceOnUse"><stop stop-color="#F8F9FD"/><stop offset="1" stop-color="#D1D4DC"/></linearGradient></defs></svg>