<!-- by TradingView --><svg width="18" height="18" viewBox="0 0 18 18" xmlns="http://www.w3.org/2000/svg"><path fill="#F0F3FA" d="M0 0h18v18H0z"/><path d="M11.64 9.81h-.9l.14-.31h.9l-.14.31Z" fill="#009C85"/><path d="M12.68 9.81h-.9l.15-.31h.9l-.15.31Z" fill="#F29600"/><path d="M13.73 9.81h-.9l.14-.31h.9l-.14.31Z" fill="#E3007F"/><path d="M8.65 7.47V9.8H9.7V7.47h.22c1.2 0 1.49.22 1.55.95h.31V7H6.57v1.42h.3c.06-.72.43-.95 1.54-.95h.24ZM3.89 11.65c-.9 0-1.79-.65-1.9-1.84H1C1.1 11.14 2.32 12 3.78 12c1.5 0 2.7-.86 2.79-2.19H5.6c-.04 1.02-.65 1.84-1.71 1.84ZM3.7 7.35c1.18 0 1.8.93 1.89 1.84h.98C6.46 7.82 5.18 7 3.8 7 2.49 7 1.1 7.71 1 9.19h.97c.03-.83.5-1.84 1.72-1.84ZM9.7 11.1V9.8H8.65v1.28c0 .44-.03.63-.77.63h-.27V12h3.13v-.28h-.28c-.66 0-.76-.12-.76-.63ZM14.86 7.4c1.3 0 1.75.72 1.84 1.28h.3V7.33c-.4-.1-1.27-.33-2.12-.33-1.94 0-2.87 1.1-3.1 2.19h1c.16-1.07.83-1.79 2.08-1.79ZM14.89 12c.83 0 1.52-.14 2.11-.28v-1.15h-.3c-.15.68-.7 1.09-1.83 1.09-1.32 0-1.94-.68-2.08-1.54h-1c.2.9 1.09 1.88 3.1 1.88Z" fill="#231815"/></svg>