<!-- by TradingView --><svg width="18" height="18" viewBox="0 0 18 18" xmlns="http://www.w3.org/2000/svg"><path fill="#F0F3FA" d="M0 0h18v18H0z"/><path d="m8.8 4-1.4.52v4.82l1.4-.4V4Z" fill="#10A453"/><path d="m7.08 6.28-1.41.6v3l1.4-.55V6.28ZM5.32 7.45l-1.4.6v2.55l1.4-.58V7.45Z" fill="#02723B"/><path d="m9.15 4 1.4.52v4.82l-1.4-.4V4Z" fill="#11A355"/><path d="m10.88 6.28 1.4.6v3l-1.4-.55V6.28ZM12.63 7.45l1.41.6v2.55l-1.4-.58V7.45Z" fill="#57BD55"/><path d="M14.89 5.87c.57.95.9 2.05.9 3.22 0 3.56-3.04 6.44-6.79 6.44s-6.8-2.88-6.8-6.44c0-1.17.34-2.28.91-3.22A6.23 6.23 0 0 0 2 9.43C2 13.06 5.13 16 9 16s7-2.94 7-6.57c0-1.32-.4-2.54-1.11-3.56Z" fill="#D0A74F"/><path d="M4.84 13.52V10.5l1.48-.57c.68-.26 1.06.04 1.06.57 0 .53-.38 1.11-1.06 1.37l-.8.31v1.08l-.68.26Zm1.85-2.76c0-.25-.2-.33-.47-.23l-.7.28v.81l.7-.27c.27-.1.47-.34.47-.59Z" fill="#02723B"/><path d="m7.6 12.04.36-.5c.22.22.57.4 1 .4.38 0 .55-.15.55-.33 0-.52-1.81-.16-1.81-1.29 0-.5.45-.92 1.2-.92.5 0 .91.14 1.23.42l-.38.48c-.26-.23-.6-.33-.92-.33-.28 0-.44.12-.44.3 0 .47 1.8.15 1.8 1.28 0 .55-.41.97-1.26.97-.6 0-1.04-.2-1.34-.48Z" fill="#11A355"/><path d="m12.75 13.19-.78-1.32-.8.75-.8-.3 1.14-1.03-1.07-1.77.8.3.73 1.22.71-.7.81.28-1.08.99 1.15 1.87-.8-.3Z" fill="#57BD55"/></svg>