<!-- by TradingView --><svg width="18" height="18" viewBox="0 0 18 18" xmlns="http://www.w3.org/2000/svg"><path fill="#F0F3FA" d="M0 0h18v18H0z"/><path d="M7.58 4 5.55 7.78l.54.96L8.17 4.8h2.77l-.5-.8H7.58Zm-2.15 8.8h4.19l.46-.8H5.96l-1.4-2.77-.56.93 1.43 2.64Zm6.47-6.4 2.1 3.91-1.48 2.49h-1.04l1.35-2.43-2.11-3.97h1.18Z" fill="#134D8F"/><path d="M8.38 5.2h4.15L14 7.86l-.55.94L12.03 6H8l.4-.8ZM4.07 7.77l2.06 3.83h1.15L5.16 7.72l1.36-2.47H5.5L4.07 7.77ZM10.33 14l2.13-3.74-.58-1.04-2.13 3.98h-2.8l.52.8h2.86Z" fill="#487EB5"/></svg>