<!-- by TradingView --><svg width="18" height="18" viewBox="0 0 18 18" xmlns="http://www.w3.org/2000/svg"><path fill="#2B4373" d="M0 0h18v18H0z"/><path d="M14.13 9.32a5.19 5.19 0 0 0 0-.64h-.98l-.5.64h1.48Zm-.03.32h-1.75l-.52.65h2.15c.05-.21.1-.43.12-.65Zm-.21.97h-3.6a.13.13 0 0 1-.1-.23l1.65-1.87c.09-.1.2-.15.34-.15h1.92l-.05-.32h-1.8c-.35 0-.7.14-.94.4L9.4 10.53c-.24.26-.58.4-.94.4H4.23a5.14 5.14 0 0 0 9.66-.31Zm-9.87-.32h3.17c.36 0 .7-.15.94-.42l1.92-2.07c.25-.26.59-.4.94-.4h2.9l-.12-.33h-3.4c-.37 0-.72.15-.96.42L7.55 9.54c-.24.27-.59.42-.95.42H3.95l.07.33Zm-.15-.97L3.86 9a5.14 5.14 0 0 1 9.6-2.57h-4.2c-.37 0-.72.16-.96.43L6.5 8.9c-.24.27-.6.43-.96.43H3.87Z" fill="#fff"/></svg>