<!-- by TradingView --><svg width="18" height="18" viewBox="0 0 18 18" xmlns="http://www.w3.org/2000/svg"><path fill="#F0F3FA" d="M0 0h18v18H0z"/><path d="M9.77 5.65 9.5 3.22l-1.21.67-2.03 1.62-.81 2.17-.27 3.37.27 1.35c.54-3.24 3.1-5.85 4.32-6.75Z" fill="url(#apoqfsz4k)"/><path d="M5.18 4.57 9.5 3.22a9.2 9.2 0 0 0-4.05 9.18S3.97 8.5 5.18 4.57Z" fill="url(#bpoqfsz4k)"/><path d="M5.45 12.4v3.51l1.08-.67 2.57-2.16 1.08-2.43.13-3.11c-1.84 3.24-4 4.59-4.86 4.86Z" fill="url(#cpoqfsz4k)"/><path d="M14.36 4.3 9.77 5.65c.28 5.14-.8 7.16-4.32 10.26 6.08-1.89 9.05-6.21 8.91-11.61Z" fill="url(#dpoqfsz4k)"/><defs><linearGradient id="apoqfsz4k" x1="7.48" y1="3.22" x2="5.99" y2="12.4" gradientUnits="userSpaceOnUse"><stop stop-color="#00ABE9"/><stop offset="1" stop-color="#fff"/></linearGradient><linearGradient id="bpoqfsz4k" x1="9.91" y1="1.87" x2="6.4" y2="5.92" gradientUnits="userSpaceOnUse"><stop stop-color="#0089CC"/><stop offset="1" stop-color="#032370"/></linearGradient><linearGradient id="cpoqfsz4k" x1="10.31" y1="8.35" x2="4.45" y2="15.78" gradientUnits="userSpaceOnUse"><stop stop-color="#00ABE9"/><stop offset="1" stop-color="#fff"/></linearGradient><linearGradient id="dpoqfsz4k" x1="9.91" y1="4.7" x2="9.91" y2="10.92" gradientUnits="userSpaceOnUse"><stop stop-color="#0089CC"/><stop offset="1" stop-color="#032370"/></linearGradient></defs></svg>