<!-- by TradingView --><svg width="18" height="18" viewBox="0 0 18 18" xmlns="http://www.w3.org/2000/svg"><path fill="#F0F3FA" d="M0 0h18v18H0z"/><path fill-rule="evenodd" d="M15 9A6 6 0 1 1 3 9a6 6 0 0 1 12 0Zm-5.1 5.43c-.8-.59-2.07-1.92-2.07-3.63 0-1.47.69-2.55 1.03-2.9l-.25-.3c-.41.21-1.5.63-2.53.63-.88 0-1.85-.35-2.4-.6a5.5 5.5 0 0 1 1.6-2.69c1.29.57 4.26 1.23 7.43 0l.3.3c-1.04.85-2.88 2.84-2.88 4.77 0 1.71 1.67 2.57 2.78 2.86-.27.27-.57.52-.9.73l-1 .52c-.36.14-.73.24-1.1.3Z" fill="#004998"/></svg>