<!-- by TradingView --><svg width="18" height="18" viewBox="0 0 18 18" xmlns="http://www.w3.org/2000/svg"><path fill="#F0F3FA" d="M0 0h18v18H0z"/><path d="M8.2 12.15A5.19 5.19 0 0 1 6.01 10H3c.1.86.44 1.69.97 2.42a6.22 6.22 0 0 0 2.09 1.82c2.95 1.57 6.73.63 8.43-2.1.2-.33.38-.67.51-1.03a5.4 5.4 0 0 1-3.17 1.64 5.87 5.87 0 0 1-3.64-.6Z" fill="url(#ay4qp0nbw)"/><path d="M9.8 5.85A5.15 5.15 0 0 1 11.98 8H15a5.24 5.24 0 0 0-.97-2.42 6.22 6.22 0 0 0-2.09-1.82C9 2.2 5.21 3.13 3.51 5.86c-.2.32-.38.67-.51 1.03a5.39 5.39 0 0 1 3.17-1.64c1.26-.2 2.55.02 3.64.6Z" fill="url(#by4qp0nbw)"/><path d="m12 9-3 3-3-3 3-3 3 3Z" fill="#B18646"/><defs><linearGradient id="ay4qp0nbw" x1="9.35" y1="14.1" x2="8.83" y2="9.54" gradientUnits="userSpaceOnUse"><stop stop-color="#C39F61"/><stop offset=".14" stop-color="#C6A469"/><stop offset=".35" stop-color="#CDB07D"/><stop offset=".6" stop-color="#D9C59F"/><stop offset=".88" stop-color="#EAE1CE"/><stop offset="1" stop-color="#F1EEE3"/></linearGradient><linearGradient id="by4qp0nbw" x1="3.16" y1="5.67" x2="15.14" y2="5.67" gradientUnits="userSpaceOnUse"><stop stop-color="#C39F61"/><stop offset=".14" stop-color="#C6A469"/><stop offset=".35" stop-color="#CDB07D"/><stop offset=".6" stop-color="#D9C59F"/><stop offset=".88" stop-color="#EAE1CE"/><stop offset="1" stop-color="#F1EEE3"/></linearGradient></defs></svg>