<!-- by TradingView --><svg width="18" height="18" viewBox="0 0 18 18" xmlns="http://www.w3.org/2000/svg"><path fill="#F0F3FA" d="M0 0h18v18H0z"/><path d="M5.55 5C3.02 5 2 5.9 2 7.29v3.4C2 12.1 3 13 5.53 13c2.54 0 3.43-.9 3.43-2.3v-.1c0-.26-.14-.38-.43-.38h-1.2c-.32 0-.44.12-.44.39v.14c0 .55-.32.86-1.34.86s-1.34-.31-1.34-.86V9.52h4.41c.28 0 .38-.1.38-.36V7.3C9 5.9 8.07 5 5.55 5ZM5.5 6.4c.96 0 1.5.45 1.5 1V8H4v-.6c0-.55.52-1 1.5-1Z" fill="#0090D3"/><path d="M9.4 5c-.18 0-.25.07-.28.13-.05.08-.02.2.06.33l2.22 3.46-2.33 3.62c-.07.12-.09.24-.04.33.04.08.13.13.25.13h1.23c.3 0 .44-.23.56-.42l1.32-2.11 1.37 2.12c.13.2.29.41.57.41h1.37c.13 0 .23-.05.27-.13.05-.1.03-.21-.04-.33l-2.28-3.56 2.25-3.52c.08-.12.1-.24.05-.33-.04-.08-.13-.13-.26-.13h-1.23c-.28 0-.44.2-.58.41l-1.21 2.02-1.3-2.02c-.17-.23-.32-.41-.6-.41H9.39Z" fill="#9FA4AA"/></svg>