<!-- by TradingView --><svg width="18" height="18" viewBox="0 0 18 18" xmlns="http://www.w3.org/2000/svg"><path fill="#F0F3FA" d="M0 0h18v18H0z"/><path d="M15.82 8.43c.01-.52-1.5-1.59-2.78-2.38-.3-.18-.56.17-.33.44l.85.94c-3.32-.37-8.73-.11-12.47 1.98-.18.1-.07.33.12.27 5.2-1.76 10.22-1.76 12.58-1.34-.21.12-.72.35-1.2.55-.2.09-.14.4.08.4 1.24-.06 3.13-.23 3.15-.86Z" fill="#ED1C24"/><path d="M4.99 11.04c-.01-.4 1.04-1.17 2.04-1.8.29-.19.55.16.31.42l-.5.56c2.68-.3 7-.1 10.07 1.51.18.1.07.32-.12.26-4.2-1.37-8.22-1.37-10.13-1.02.15.08.47.23.8.37.22.1.16.4-.07.4-1-.06-2.39-.21-2.4-.7Z" fill="#ED1C24"/></svg>