<!-- by TradingView --><svg width="18" height="18" viewBox="0 0 18 18" xmlns="http://www.w3.org/2000/svg"><path fill="#F0F3FA" d="M0 0h18v18H0z"/><path d="m1 8.97.11-.15.22-.24.65-.65.99-.98 1.02-1.01.62-.61.93-.94.25-.24c.07-.06.15-.1.24-.13.1-.03.22-.02.33-.02h5.7c.06 0 .09.01.12.05l.68.68.14.13v.03H7a.44.44 0 0 0-.33.13l-1.3 1.3-1.38 1.37-1 1c-.1.09-.19.2-.24.32v.1c.05.09.1.17.16.24l.79.8.6.6.03.03H2.64a.14.14 0 0 1-.11-.04l-.77-.76-.6-.61c-.05-.05-.09-.12-.13-.18L1 9.17v-.2ZM5.8 14l-.09-.1-.65-.66-.06-.06h6.03c.09 0 .16-.04.23-.1.22-.15.38-.36.58-.55l.5-.5.84-.85.77-.77 1-1.01.24-.29c.1-.1.08-.2 0-.3-.04-.08-.1-.14-.16-.2l-.37-.37-.62-.65-.33-.33-.03-.04H15.35c.06 0 .1 0 .12.04l.87.87c.17.18.35.34.51.52.09.1.17.2.14.34a.5.5 0 0 1-.03.11c-.05.12-.15.2-.24.3l-.82.82-.61.61-.63.63-.9.9-1.18 1.19-.39.39-.07.06H5.8Z" fill="#133580"/><path d="M6.58 10.79H4.9a.15.15 0 0 1-.1-.04L3.63 9.57l-.37-.38c-.12-.12-.09-.18 0-.28.11-.13.24-.25.36-.37l.62-.63.65-.64.82-.84 1.16-1.17a.81.81 0 0 1 .28-.18H13.18c.05 0 .07.01.1.04l.77.77.04.05H8.21c-.1 0-.2.01-.29.07a.59.59 0 0 0-.1.08L6.7 7.21 5.67 8.24l-.42.42a1.6 1.6 0 0 0-.2.27.25.25 0 0 0-.03.18c.03.07.07.14.13.2l.72.76.65.65.06.07Z" fill="#133580"/><path d="M11.42 7.22H13.03c.1 0 .16.03.23.1l.63.63.7.72.2.21c.05.08.03.12-.03.18l-.53.55-.51.51-.73.74-.93.94-1 1a.43.43 0 0 1-.31.13h-5.9a.2.2 0 0 1-.15-.07l-.76-.76-.03-.04H9.8c.1 0 .2-.01.29-.07l.03-.02.52-.5 1.14-1.15 1.03-1.05c.07-.07.15-.14.17-.25l-.01-.14c-.04-.14-.17-.23-.27-.33l-.6-.64-.65-.65-.03-.04Z" fill="#133580"/><path d="M2.83 10.96h5.96c.13 0 .24-.06.33-.15l.49-.49.85-.86.33-.34.06-.06c.06-.1.05-.15-.05-.25l-.44-.45L9.29 7.3l-.05-.07H10.9c.04 0 .09.02.11.04l1.17 1.18.37.38.07.14c.02.05 0 .09-.04.12l-.86.87-.84.85-.9.9a.5.5 0 0 1-.36.16H3.81a.3.3 0 0 1-.24-.1c-.23-.25-.46-.48-.7-.71l-.05-.08v-.01Z" fill="#133580"/><path d="M15.18 7.04h-6c-.09 0-.17.04-.24.1-.3.26-.57.56-.86.84l-.55.56-.36.37c-.07.08-.07.17 0 .24l.77.78.8.82.02.03H7.1a.15.15 0 0 1-.12-.04l-.99-1-.56-.58c-.1-.1-.09-.16 0-.25l.92-.94.77-.79.68-.68.17-.18a.56.56 0 0 1 .41-.18h5.78c.11 0 .19.03.26.11.24.26.5.5.74.75l.02.04Z" fill="#133580"/></svg>