<!-- by TradingView --><svg width="18" height="18" viewBox="0 0 18 18" xmlns="http://www.w3.org/2000/svg"><path fill="#F7525F" d="M0 0h18v18H0z"/><path d="M6.91 4.07a.6.6 0 0 1-.29.09c-.16 0-.2.03-.25.11-.08.12-.04.17.09.1.1-.04.2-.01.3.1.05.05.03.06-.1.05a.9.9 0 0 1-.55-.21c-.1-.12-.22-.11-.22 0 0 .13.14.25.32.28.1.01.16.04.17.09.02.08.21.16.53.21.56.1 1.01.4 1.14.77.08.22.04.37-.11.51-.08.07-.13.08-.24.07a.4.4 0 0 1-.3-.55c.1-.21.03-.28-.33-.41A7 7 0 0 1 6.45 5c-.23-.12-.3-.14-.36-.11-.05.02-.08.06-.08.08 0 .1-.59-.11-.87-.33-.1-.07-.24-.22-.33-.33-.18-.22-.27-.25-.38-.13-.17.18-.1.43.16.7.26.25.61.4 1.26.51.14.03.17.12.09.2-.06.05-.12.06-.39.04a1.22 1.22 0 0 1-.77-.25c-.24-.19-.4-.14-.4.11 0 .39.63.64 1.33.53.32-.05.37 0 .17.16a.97.97 0 0 1-.64.2.83.83 0 0 1-.53-.17c-.28-.2-.45-.05-.3.26.06.13.12.19.26.25.27.12.7.1 1.06-.06.2-.1.25-.1.29-.06.04.05.02.08-.1.17-.17.14-.6.33-.78.36-.1 0-.22-.01-.36-.07-.27-.11-.4-.07-.4.13 0 .37.56.42 1.26.12.16-.08.3-.13.32-.12.07.07-.32.39-.67.54-.17.08-.28.1-.51.1-.17 0-.33.01-.35.03-.08.05-.06.26.03.36.16.16.4.15.82-.03.14-.06.35-.18.48-.27.38-.26.4-.02.02.34-.4.37-.8.5-1.23.4-.11-.03-.14-.02-.17.06-.04.07-.04.12.01.22.05.11.09.14.2.17.38.06.85-.13 1.24-.5.15-.14.26-.23.28-.2.04.07-.16.38-.42.64-.33.32-.6.45-.98.45-.23 0-.26 0-.3.08-.1.2.17.4.54.4.3 0 .4-.05.9-.56.56-.57.68-.68.73-.66.03 0 .04.09.04.18 0 .22-.14.4-.4.52-.13.07-.2.12-.2.18-.04.22.27.26.53.08.2-.13.3-.28.41-.61.1-.27.17-.34.27-.24.1.1.03.3-.18.5-.2.2-.21.29-.01.3.1.02.15 0 .27-.13.09-.08.2-.24.27-.36.12-.2.22-.26.25-.13.02.1-.17.44-.33.62-.15.17-.54.38-.78.41-.23.04-.26.1-.11.26.09.09.1.13.07.15l-.5.12-.46.11-.25-.15c-.15-.08-.29-.2-.32-.26-.05-.1-.08-.1-.2-.1-.09 0-.2 0-.24-.02-.1-.03-.3.04-.27.1.01.01.06.03.1.03.04 0 .1.05.14.1.1.14.13.16.32.16.12 0 .18.03.27.11l.12.12h-.24c-.2 0-.26-.02-.36-.1-.14-.11-.3-.12-.44-.02a.38.38 0 0 1-.15.08c-.03 0-.08.04-.12.08l-.08.08.12-.02c.07-.01.17 0 .23.03.08.04.17.05.28.04.2-.03.35-.04.56-.03l.16.01-.1.06a.43.43 0 0 1-.24.05c-.1 0-.2.02-.25.05-.14.09-.3.59-.18.59.02 0 .04-.03.04-.05 0-.08.14-.18.2-.16.13.05.27-.02.34-.15a.34.34 0 0 1 .19-.17l.22-.09c.1-.04.14-.04.31.02.12.04.2.1.2.13 0 .08.14.13.34.13.14 0 .2.02.23.07.07.1.1.1.12 0 .03-.07-.02-.15-.16-.3-.08-.09-.13-.1-.24-.1a.45.45 0 0 1-.24-.06c-.11-.07-.13-.06.46-.17l.45-.09.14.12c.08.06.16.1.19.1.03-.01.15-.18.27-.38.37-.61.75-.9.88-.68.12.21-.06.64-.42.98-.27.26-.43.32-.8.32-.23 0-.28.03-.24.17.03.12.21.2.44.2.16 0 .22-.02.36-.13a.8.8 0 0 1 .21-.13c.16 0-.02.29-.29.44-.13.08-.24.1-.51.12-.02 0-.03.05-.03.1 0 .12.14.2.34.2.18 0 .53-.17.63-.3.05-.06.08-.07.1-.04.04.03.03.08-.03.21-.1.2-.25.3-.47.35-.13.03-.15.05-.15.12 0 .12.25.25.4.21.13-.03.31-.2.42-.4.09-.17.17-.19.2-.05.03.16-.04.33-.2.51a.82.82 0 0 0-.17.21c0 .05.68 1.02.72 1.02.03 0 .66-.88.7-.98.02-.05-.02-.12-.14-.23-.18-.2-.26-.42-.2-.57.05-.12.08-.1.23.15.13.21.32.36.46.36.05 0 .14-.04.21-.08.19-.1.17-.23-.03-.26-.2-.04-.31-.1-.44-.3-.13-.18-.13-.19-.08-.25.02-.04.07-.02.17.07.27.24.62.33.82.2.15-.1.1-.22-.1-.25-.23-.04-.5-.19-.63-.35-.15-.19-.04-.3.13-.13.17.18.45.23.7.13.14-.05.23-.2.17-.28-.01-.02-.15-.04-.29-.04a.97.97 0 0 1-.8-.35c-.31-.33-.48-.75-.37-.95.1-.18.35-.05.65.35.12.16.27.38.33.49.06.1.13.2.17.21.03.02.11-.03.19-.1.15-.12.15-.12.7 0l.35.07c.09.02.09.03.02.08a.51.51 0 0 1-.24.05c-.14 0-.19.02-.29.13-.12.13-.17.36-.08.36.02 0 .04-.03.04-.05 0-.07.08-.1.3-.1.14 0 .18-.02.26-.11a.5.5 0 0 1 .26-.15c.15-.05.2-.04.4.03s.25.1.28.2c.05.12.18.2.33.17.1-.03.23.06.23.15 0 .03.02.05.04.05.07 0 .05-.21-.04-.4-.09-.2-.26-.29-.44-.24-.08.02-.13.01-.2-.04-.09-.06-.08-.06.16-.09a.76.76 0 0 1 .32.01c.1.06.3.05.41 0a.44.44 0 0 1 .2-.04c.06 0 .11 0 .11-.02 0-.05-.09-.12-.15-.12a.38.38 0 0 1-.16-.08c-.13-.1-.27-.09-.42.02-.1.06-.19.09-.36.1h-.24l.11-.11c.1-.1.14-.11.26-.1.12.01.16 0 .29-.13a.87.87 0 0 1 .23-.17c.22-.06-.09-.12-.54-.1-.03 0-.08.06-.11.11a1.1 1.1 0 0 1-.3.26l-.26.16-.46-.11-.5-.13c-.05-.02-.03-.06.06-.15.14-.15.12-.22-.07-.26a1.3 1.3 0 0 1-.5-.17 1.33 1.33 0 0 1-.58-.61c-.1-.22-.1-.27-.02-.32.04-.04.08 0 .21.23.17.29.36.47.49.47.22 0 .26-.13.08-.26-.13-.09-.28-.32-.28-.44 0-.1.1-.17.17-.15.03.01.1.16.16.32.16.45.4.68.71.68.16 0 .23-.05.23-.17 0-.06-.06-.11-.23-.2a1.17 1.17 0 0 1-.31-.26c-.1-.14-.13-.4-.05-.44.03-.02.27.18.65.56.33.32.65.6.71.63.3.1.7 0 .82-.2.1-.17.03-.23-.34-.26a1.3 1.3 0 0 1-.49-.1 2.15 2.15 0 0 1-.7-.62c-.13-.19-.21-.4-.16-.4.01 0 .14.11.28.25.33.3.74.5 1.06.5.28 0 .4-.08.4-.27 0-.2-.04-.24-.26-.18-.37.1-.73-.03-1.13-.4-.24-.22-.34-.4-.26-.47.03-.02.11.01.26.12.24.17.68.37.88.4.29.05.5-.09.5-.3 0-.17-.1-.22-.33-.19-.1.02-.26 0-.37-.02-.3-.07-.89-.46-.89-.59 0-.06.04-.06.18.02.33.2.94.31 1.19.23.16-.05.22-.13.22-.3 0-.18-.14-.22-.4-.11a.63.63 0 0 1-.37.06c-.2-.03-.6-.2-.78-.35-.12-.1-.13-.12-.08-.17.04-.05.06-.05.19.02.32.18.87.23 1.16.1.21-.1.36-.35.29-.5-.06-.13-.16-.12-.4.02-.36.21-.83.19-1.11-.06-.2-.17-.15-.22.17-.16.32.05.74.02.96-.08.3-.14.48-.46.33-.62-.07-.08-.21-.07-.3.02-.14.15-.49.27-.83.29-.27.02-.33 0-.4-.05-.09-.09-.01-.2.15-.2.7-.04 1.46-.53 1.46-.96 0-.14-.08-.28-.2-.3-.07-.02-.11 0-.2.1-.24.3-.46.49-.73.61-.35.17-.53.2-.56.12-.04-.1-.2-.07-.43.05-.11.06-.35.16-.52.23a1.8 1.8 0 0 0-.4.18c-.06.07-.07.1-.02.25.05.22.03.34-.1.48-.1.1-.28.13-.42.06-.11-.06-.2-.3-.17-.45.08-.43.53-.75 1.22-.88.33-.06.57-.17.52-.24 0-.02.05-.04.13-.05.16-.03.33-.16.33-.26 0-.12-.11-.12-.28.02a.73.73 0 0 1-.53.17h-.12l.11-.1c.07-.05.14-.08.18-.06.22.08.27.03.13-.13-.05-.07-.11-.09-.24-.09a.48.48 0 0 1-.28-.07c-.15-.1-.55-.08-.95.06-.16.05-.35.1-.43.1-.17 0-.17.03-.01.15l.12.09-.2.13c-.21.15-.24.25-.06.23.1 0 .08 0-.1.1-.22.1-.3.2-.19.2.1 0 .08.04-.11.22l-.18.17-.18-.17c-.19-.18-.22-.23-.12-.23.15 0 .02-.13-.23-.23l-.17-.06h.13c.07 0 .13-.02.13-.04 0-.04-.2-.21-.33-.27l-.11-.06.14-.08c.18-.1.18-.15.01-.15-.07 0-.29-.05-.48-.12-.43-.13-.76-.15-.9-.04Zm.5.27c.12 0 .12 0 .05.06-.08.05-.26.07-.3.03-.05-.04.01-.13.07-.11l.18.02Zm3.5.05c0 .05-.15.07-.27.04-.17-.04-.1-.1.09-.08.1 0 .19.02.19.04Zm-4.1.3c-.06.02-.12.02-.22 0-.12-.04-.12-.04.1-.05.18 0 .2 0 .12.04Zm4.7-.01c-.1.04-.24.04-.27 0-.02-.03.05-.04.16-.04.15 0 .17.01.11.04Z" fill="#131722"/></svg>