<!-- by TradingView --><svg width="18" height="18" viewBox="0 0 18 18" xmlns="http://www.w3.org/2000/svg"><path d="m5 0v18h8V0z" fill="#f0f3fa" shape-rendering="crispEdges"/><path d="m0 0v18h5V0zm13 0v18h5V0z" fill="#4a89dc" shape-rendering="crispEdges"/><path d="m11.35 10.52L9.83 9l1.45-1.45-.07-.76-.41-.42L9 8.17l-1.8-1.8-.41.42-.07.76L8.17 9l-1.52 1.52.83.83L9 9.83l1.52 1.52.83-.83z" fill="#d1d4dc"/><path d="m11.21 6.79l-.83.83A1.95 1.95 0 0 1 9 10.96a1.96 1.96 0 0 1-1.38-3.34l-.83-.83A3.12 3.12 0 0 0 9 12.13a3.13 3.13 0 0 0 2.21-5.34z" fill="#4caf50"/></svg>