<!-- by TradingView --><svg width="18" height="18" viewBox="0 0 18 18" xmlns="http://www.w3.org/2000/svg"><path d="M0 0h5v18H0V0z" fill="#1565C0" shape-rendering="crispEdges"/><path d="M13 0h5v18h-5V0z" fill="#EF5350" shape-rendering="crispEdges"/><path d="M5 0h8v18H5V0z" fill="#FDD835" shape-rendering="crispEdges"/><path d="M12 7.01H9.94C9.94 6.45 9.52 6 9 6s-.94.45-.94 1.01H6c0 .55.44 1 .95 1h-.03c0 .55.42 1 .93 1 0 .49.32.9.75.98l-.73 1.77a2.8 2.8 0 0 0 2.26 0L9.4 10c.43-.09.75-.5.75-.98.51 0 .93-.45.93-1h-.03c.5 0 .95-.45.95-1z" fill="#FF9800"/><path d="M9 8l-1 .59v1.17l1 .74 1-.74V8.6L9 8z" fill="#1565C0"/><path fill="#EF5350" d="M8 8h2v1H8z"/></svg>