<!-- by TradingView --><svg width="18" height="18" viewBox="0 0 18 18" xmlns="http://www.w3.org/2000/svg"><path d="M0 18V0l8 8h10v2H8l-8 8z" fill="#2A2E39" shape-rendering="crispEdges"/><path d="M18 8.6H7.5L0 1v1l6.78 7L0 16v1l7.5-7.61H18a9.08 9.08 0 0 0 0-.78z" fill="#FDD835" shape-rendering="crispEdges"/><path d="M2.19 10.92v-.76c.75 0 1.36-.6 1.36-1.36a.97.97 0 0 0-.96-.96c-.37 0-.66.29-.66.65 0 .23.19.42.42.42.13 0 .24-.1.24-.23h.75a1 1 0 0 1-1 .99c-.64 0-1.17-.53-1.17-1.18 0-.78.64-1.4 1.42-1.4.94 0 1.71.76 1.71 1.71 0 1.17-.95 2.12-2.11 2.12z" fill="#FDD835"/><path d="M8 8L0 0h18v8H8zM8 10l-8 8h18v-8H8z" fill="#EF5350" shape-rendering="crispEdges"/></svg>