<!-- by TradingView --><svg width="18" height="18" xmlns="http://www.w3.org/2000/svg"><path fill="#4758A9" d="M0 0h18v18H0z"/><path d="M3.95 5.48l.2.6h.63l-.51.37.2.6-.52-.38-.5.37.19-.6-.5-.36h.62l.2-.6h-.01zm1.96-.58l.2.59h.62l-.5.37.19.6-.51-.37-.5.37.19-.6-.51-.37h.63l.19-.6v.01zm1.96-.6l.2.6h.62l-.5.37.19.6-.51-.37-.51.37.2-.6-.52-.37h.63l.2-.6zm6.18 1.18l-.2.6h-.63l.51.37-.2.6.52-.38.5.37-.19-.6.51-.36h-.63l-.2-.6h.01zm-1.96-.58l-.2.59h-.62l.5.37-.19.6.51-.37.5.37-.19-.6.51-.37h-.63l-.19-.6v.01zm-1.96-.6l-.19.6h-.63l.51.37-.2.6.51-.37.51.37-.2-.6.52-.37h-.63l-.2-.6z" fill="#F0F0F0"/><path d="M10.57 9.4L9 7.42l-.78.4v.78l-1.18.78h-.78v1.01a3.13 3.13 0 011.96 2.9H9v-.78l.78-.78.79.78.78-.78v-.78l.78-1.18-1.56-.39v.02z" fill="#FC0"/></svg>