<svg width="160" height="160" viewBox="0 0 160 160" fill="none" xmlns="http://www.w3.org/2000/svg">
<g clip-path="url(#clip0_8926_19242)">
<rect width="160" height="160" fill="#F2F2F2"/>
<path d="M43.8083 61.9041C53.8023 61.9041 61.904 53.8023 61.904 43.8086C61.904 33.8146 53.8023 25.7129 43.8083 25.7129C33.8146 25.7129 25.7129 33.8146 25.7129 43.8086C25.7129 53.8023 33.8146 61.9041 43.8083 61.9041Z" fill="#62E07E"/>
<path d="M80.0009 61.9041C89.9949 61.9041 98.0966 53.8023 98.0966 43.8086C98.0966 33.8146 89.9949 25.7129 80.0009 25.7129C70.0072 25.7129 61.9058 33.8146 61.9058 43.8086C61.9058 53.8023 70.0072 61.9041 80.0009 61.9041Z" fill="#8AF0A1"/>
<path d="M116.19 61.9041C126.184 61.9041 134.285 53.8023 134.285 43.8086C134.285 33.8146 126.184 25.7129 116.19 25.7129C106.196 25.7129 98.0942 33.8146 98.0942 43.8086C98.0942 53.8023 106.196 61.9041 116.19 61.9041Z" fill="#8AF0A1"/>
<path d="M43.8083 98.0943C53.8023 98.0943 61.904 89.9925 61.904 79.9985C61.904 70.0045 53.8023 61.9028 43.8083 61.9028C33.8146 61.9028 25.7129 70.0045 25.7129 79.9985C25.7129 89.9925 33.8146 98.0943 43.8083 98.0943Z" fill="#5BC172"/>
<path d="M80.0009 98.0943C89.9949 98.0943 98.0966 89.9925 98.0966 79.9985C98.0966 70.0045 89.9949 61.9028 80.0009 61.9028C70.0072 61.9028 61.9058 70.0045 61.9058 79.9985C61.9058 89.9925 70.0072 98.0943 80.0009 98.0943Z" fill="#62E07E"/>
<path d="M116.19 98.0943C126.184 98.0943 134.285 89.9925 134.285 79.9985C134.285 70.0045 126.184 61.9028 116.19 61.9028C106.196 61.9028 98.0942 70.0045 98.0942 79.9985C98.0942 89.9925 106.196 98.0943 116.19 98.0943Z" fill="#8AF0A1"/>
<path d="M43.8083 134.287C53.8023 134.287 61.904 126.185 61.904 116.191C61.904 106.197 53.8023 98.0957 43.8083 98.0957C33.8146 98.0957 25.7129 106.197 25.7129 116.191C25.7129 126.185 33.8146 134.287 43.8083 134.287Z" fill="#448956"/>
<path d="M80.0009 134.287C89.9949 134.287 98.0966 126.185 98.0966 116.191C98.0966 106.197 89.9949 98.0957 80.0009 98.0957C70.0072 98.0957 61.9058 106.197 61.9058 116.191C61.9058 126.185 70.0072 134.287 80.0009 134.287Z" fill="#5BC172"/>
</g>
<defs>
<clipPath id="clip0_8926_19242">
<rect width="160" height="160" rx="8" fill="white"/>
</clipPath>
</defs>
</svg>
