<svg width="160" height="160" viewBox="0 0 160 160" fill="none" xmlns="http://www.w3.org/2000/svg">
<g clip-path="url(#clip0_8192_2267)">
<rect width="160" height="160" rx="8" fill="#FF6900"/>
<path d="M18.5262 122.857H24.8617C25.4551 122.86 26.0029 122.523 26.2918 121.98L26.7208 121.17C28.9851 116.849 33.047 113.89 37.697 113.174L39.1273 112.956C40.0658 112.958 40.913 112.366 41.2724 111.456L62.7886 58.3779C62.913 58.0739 62.8656 57.7224 62.6655 57.4665C62.4654 57.2109 62.1461 57.0936 61.8375 57.1625L60.6935 57.4025C48.0297 60.6282 39.4776 68.9093 33.7141 80.2511L33.4424 80.8586L17.2605 120.824C17.0717 121.273 17.112 121.791 17.3674 122.201C17.6229 122.612 18.059 122.859 18.5262 122.857Z" fill="white"/>
<path d="M44.2328 122.857H59.8702L60.712 122.385L63.3964 118.008C76.6373 96.3878 107.811 98.9122 117.764 122.052C117.978 122.544 118.455 122.86 118.98 122.857H130.04C130.432 122.857 130.806 122.687 131.069 122.389C131.332 122.091 131.461 121.692 131.422 121.292L128.5 90.586C128.473 90.317 128.263 90.1057 128 90.084C127.737 90.0623 127.497 90.2362 127.428 90.4975L124.859 100.005C124.675 100.681 124.034 101.115 123.355 101.023L105.998 98.6244C104.803 98.4144 103.791 97.6015 103.306 96.4617L97.2111 82.0236C97.0224 81.5404 97.096 80.991 97.4045 80.5774C97.7129 80.1641 98.2111 79.948 98.7153 80.0086L109.006 81.4112C109.561 81.4885 110.029 81.8748 110.222 82.4149L111.971 87.2866C112.046 87.4963 112.244 87.6326 112.462 87.6242C112.68 87.616 112.868 87.4648 112.928 87.2498L114.648 80.8723C114.756 80.4834 114.693 80.0656 114.476 79.728C114.259 79.3904 113.909 79.1666 113.518 79.1155L93.282 76.3401C78.8392 74.362 76.256 54.0485 89.6841 48.3354L93.5412 46.6969C93.7554 46.5974 94.0079 46.6543 94.1622 46.8362C94.3166 47.0184 94.3362 47.2826 94.2103 47.4865L90.936 53.1702C89.6774 55.3496 89.5692 58.0318 90.6482 60.3105C91.7272 62.5892 93.8491 64.1604 96.2973 64.4932L118.944 67.6006C121.126 67.8974 123.289 66.9331 124.566 65.094C125.843 63.2551 126.025 60.8427 125.039 58.8243L124.319 57.3998C112.532 33.3588 78.7099 34.4734 68.4481 59.2376L67.8077 60.7805L42.9664 120.879C42.7864 121.317 42.8308 121.818 43.0851 122.214C43.3394 122.612 43.7697 122.853 44.2328 122.857Z" fill="white"/>
<path d="M131.428 80.0002L133.439 79.6684C137.529 78.9948 140.917 76.1154 142.255 72.1766C143.593 68.2374 142.663 63.879 139.835 60.8364L136.351 57.2968C136.175 57.1242 135.905 57.0934 135.695 57.2224C135.486 57.3513 135.39 57.6073 135.463 57.8429L137.005 62.392C137.887 64.9015 136.814 67.6817 134.479 68.939L131.428 80.0002Z" fill="white"/>
</g>
<defs>
<clipPath id="clip0_8192_2267">
<rect width="160" height="160" fill="white"/>
</clipPath>
</defs>
</svg>
