<svg width="160" height="160" viewBox="0 0 160 160" fill="none" xmlns="http://www.w3.org/2000/svg">
<g clip-path="url(#clip0_8926_19242)">
<rect width="160" height="160" fill="#F0F3FA"/>
<path fill-rule="evenodd" clip-rule="evenodd" d="M80.6164 136.472C80.3813 136.056 79.9582 135.64 79.5821 135.085C73.4704 126.117 76.8083 113.683 80.1462 104.53C83.2491 95.978 89.3608 86.0395 93.4509 77.3028C101.302 60.6614 102.9 42.0322 89.5958 27.6559C87.7623 25.7144 83.2021 21.9703 80.7574 21.1382C81.3216 22.1552 81.6976 22.2013 82.6379 24.189C83.155 25.2522 83.5782 26.7315 83.7192 28.0721C85.1296 39.6748 82.0268 50.5378 77.0435 60.6151C73.6586 67.4103 70.2736 73.5122 67.1237 80.5848C58.9905 98.8441 59.2256 122.327 77.3256 134.577C78.0307 135.085 79.7231 136.195 80.6164 136.472Z" fill="#006B97"/>
<path fill-rule="evenodd" clip-rule="evenodd" d="M56.9694 101.85L56.5933 101.757C56.3861 101.579 55.9649 101.344 55.5262 101.1C55.1685 100.901 54.7992 100.696 54.5248 100.509C49.8705 97.2732 46.5796 92.2807 45.2632 86.7336C43.2417 78.3205 45.2633 71.664 48.084 64.8688C49.8723 60.5595 51.6438 57.0662 53.2547 53.8896C57.6572 45.2078 60.8605 38.891 59.9312 24.7446C60.6834 25.022 62.4699 27.287 63.0811 28.1653C71.5904 39.9067 71.3553 49.984 65.3376 62.8811C64.2743 65.1494 63.135 67.309 61.9911 69.4771C60.1513 72.9646 58.2998 76.474 56.7344 80.4932C55.0419 84.8847 53.2554 91.9572 54.5248 96.9958C54.8068 97.9665 55.9821 101.018 56.6402 101.249C56.7732 101.536 56.7708 101.513 56.7692 101.498C56.7679 101.486 56.7671 101.478 56.8283 101.618C56.8752 101.665 56.8753 101.665 56.9687 101.848L56.9694 101.85ZM102.148 134.439L101.866 134.393C99.7508 133.746 96.3187 130.14 95.0024 128.291C93.1219 125.656 91.8526 122.79 90.9593 119.277C88.9848 111.465 91.2884 103.653 94.0151 97.5047C95.2837 94.6636 96.6432 92.013 97.9741 89.418C101.97 81.6263 105.71 74.3362 105.956 63.8984L105.768 57.6116C105.919 57.8335 106.175 58.085 106.5 58.4045C106.987 58.8838 107.63 59.5162 108.307 60.4315C113.008 67.2729 116.534 73.3747 115.312 82.6662C114.399 89.7849 110.973 96.3328 107.581 102.816C103.815 110.016 100.09 117.136 99.8917 124.87C99.7977 126.904 99.8447 128.291 100.315 130.14C100.697 131.644 101.317 132.659 101.735 133.345C101.934 133.671 102.088 133.922 102.148 134.116V134.439Z" fill="#00A8E1"/>
<rect width="160" height="160" fill="url(#paint0_linear_8926_19242)"/>
<path fill-rule="evenodd" clip-rule="evenodd" d="M117.143 114.286H74.2858L22.8572 62.8569V42.8569H43.8873L91.4286 90.2333V64.2855H70.0001V42.8569H138.571V64.2855H117.143V114.286ZM48.5715 114.286H22.8572V88.5714H48.5715V114.286Z" fill="#FF4200"/>
<rect width="160" height="160" fill="#001033"/>
<path d="M80.1127 110C63.5066 110 50.0564 96.575 50.0564 80C50.0564 63.425 63.5066 50 80.1127 50C94.9906 50 107.339 60.825 109.718 75H140C137.445 44.2 111.622 20 80.1127 20C46.9255 20 20 46.875 20 80C20 113.125 46.9255 140 80.1127 140C111.622 140 137.445 115.8 140 85H109.718C107.339 99.175 94.9906 110 80.1127 110Z" fill="#3773F5"/>
</g>
<defs>
<linearGradient id="paint0_linear_8926_19242" x1="29.7651" y1="27.7475" x2="194.704" y2="217.19" gradientUnits="userSpaceOnUse">
<stop stop-color="#1A1E21"/>
<stop offset="1" stop-color="#06060A"/>
</linearGradient>
<clipPath id="clip0_8926_19242">
<rect width="160" height="160" rx="8" fill="white"/>
</clipPath>
</defs>
</svg>
