<svg width="160" height="160" viewBox="0 0 160 160" fill="none" xmlns="http://www.w3.org/2000/svg">
<g clip-path="url(#clip0_8926_19242)">
<rect width="160" height="160" fill="#005DFF"/>
<path d="M37.143 78.5714C37.137 67.0694 41.6062 56.0164 49.6049 47.7511C57.6036 39.4858 68.5042 34.6567 80.0001 34.2856V54.2856H105.714V79.9999H125.714C125.621 85.8156 124.382 91.5559 122.07 96.893C119.758 102.23 116.417 107.059 112.238 111.105C103.799 119.277 92.4597 123.761 80.7144 123.571C68.9691 123.382 57.7801 118.534 49.6089 110.095C41.4377 101.656 36.9535 90.3167 37.143 78.5714ZM105.686 79.9999H80.0001V54.3142C75.328 54.5923 70.8358 56.2145 67.064 58.9856C63.2922 61.7568 60.4014 65.5588 58.7396 69.9342C57.0779 74.3096 56.7158 79.072 57.697 83.6484C58.6782 88.2248 60.9609 92.4201 64.2704 95.7296C67.5799 99.0391 71.7753 101.322 76.3516 102.303C80.928 103.284 85.6904 102.922 90.0658 101.26C94.4412 99.5986 98.2433 96.7079 101.014 92.9361C103.786 89.1643 105.408 84.672 105.686 79.9999Z" fill="white"/>
</g>
<defs>
<clipPath id="clip0_8926_19242">
<rect width="160" height="160" rx="8" fill="white"/>
</clipPath>
</defs>
</svg>
