<svg width="160" height="160" viewBox="0 0 160 160" fill="none" xmlns="http://www.w3.org/2000/svg">
<g clip-path="url(#clip0_8192_2267)">
<rect width="160" height="160" rx="8" fill="#C10230"/>
<path fill-rule="evenodd" clip-rule="evenodd" d="M66.2321 99.2167C68.0989 96.2915 69.149 92.9319 69.3824 89.1667H57.1896C57.0437 91.31 56.5478 93.0767 55.7603 94.5248C54.9435 95.9439 53.7767 97.0156 52.2599 97.7396C50.7431 98.4347 48.7888 98.7823 46.4261 98.7823C44.0633 98.7823 41.5548 98.1741 39.9213 96.9576C38.2878 95.7122 37.0918 93.8297 36.3334 91.31C35.6042 88.7902 35.2542 85.6044 35.2542 81.7524V78.2769C35.2542 74.3669 35.6625 71.1521 36.5085 68.6614C37.3252 66.1416 38.5795 64.288 40.2421 63.1006C41.9048 61.9131 44.005 61.3049 46.5136 61.3049C50.3056 61.3049 52.96 62.1448 54.5351 63.8536C56.1103 65.5334 57.0145 67.9952 57.2479 71.268H69.4699C69.1198 67.4449 68.0114 64.0563 66.2029 61.0732C64.4236 58.0901 61.8567 55.7441 58.5897 54.0353C55.3227 52.2976 51.2973 51.4287 46.5136 51.4287C41.7298 51.4287 37.5586 52.5293 34.0291 54.7015C30.4996 56.9026 27.7576 60.0016 25.7741 64.0274C23.8198 68.0531 22.8572 72.8319 22.8572 78.3348V81.7234C22.8572 87.2263 23.7906 91.9761 25.6866 96.0019C27.5826 100.028 30.2954 103.127 33.8249 105.328C37.3544 107.5 41.5548 108.572 46.4261 108.572C51.2973 108.572 55.0894 107.732 58.4147 106.081C61.7692 104.43 64.3652 102.142 66.2321 99.2167ZM124.921 107.819H137.143V52.2397H124.921V107.819ZM78.1915 107.848H90.4427V85.3727H112.67V75.7282H90.4427V61.971H115.353V52.2686H78.1915V107.848Z" fill="white"/>
</g>
<defs>
<clipPath id="clip0_8192_2267">
<rect width="160" height="160" fill="white"/>
</clipPath>
</defs>
</svg>
