<svg width="160" height="160" viewBox="0 0 160 160" fill="none" xmlns="http://www.w3.org/2000/svg">
<g clip-path="url(#clip0_8192_2267)">
<rect width="160" height="160" rx="8" fill="url(#paint0_linear_8192_2267)"/>
<path d="M93.7347 64.1665H66.2901C65.1244 64.1665 64.179 65.1116 64.179 66.2774V93.7219C64.179 94.8879 65.1244 95.8331 66.2901 95.8331H93.7347C94.9007 95.8331 95.8458 94.8879 95.8458 93.7219V66.2774C95.8458 65.1116 94.9007 64.1665 93.7347 64.1665Z" fill="white"/>
<path d="M62.0554 32.5H34.6111C33.4451 32.5 32.5 33.4451 32.5 34.6111V62.0554C32.5 63.2214 33.4451 64.1666 34.6111 64.1666H62.0554C63.2214 64.1666 64.1666 63.2214 64.1666 62.0554V34.6111C64.1666 33.4451 63.2214 32.5 62.0554 32.5Z" fill="white"/>
<path d="M125.389 32.5H97.9446C96.7789 32.5 95.8335 33.4451 95.8335 34.6111V62.0554C95.8335 63.2214 96.7789 64.1666 97.9446 64.1666H125.389C126.555 64.1666 127.5 63.2214 127.5 62.0554V34.6111C127.5 33.4451 126.555 32.5 125.389 32.5Z" fill="white"/>
<path d="M62.0554 95.8335H34.6111C33.4451 95.8335 32.5 96.7789 32.5 97.9446V125.389C32.5 126.555 33.4451 127.5 34.6111 127.5H62.0554C63.2214 127.5 64.1666 126.555 64.1666 125.389V97.9446C64.1666 96.7789 63.2214 95.8335 62.0554 95.8335Z" fill="white"/>
<path d="M125.389 95.8335H97.9446C96.7789 95.8335 95.8335 96.7789 95.8335 97.9446V125.389C95.8335 126.555 96.7789 127.5 97.9446 127.5H125.389C126.555 127.5 127.5 126.555 127.5 125.389V97.9446C127.5 96.7789 126.555 95.8335 125.389 95.8335Z" fill="white"/>
</g>
<defs>
<linearGradient id="paint0_linear_8192_2267" x1="29.7651" y1="27.7475" x2="194.704" y2="217.19" gradientUnits="userSpaceOnUse">
<stop stop-color="#1A1E21"/>
<stop offset="1" stop-color="#06060A"/>
</linearGradient>
<clipPath id="clip0_8192_2267">
<rect width="160" height="160" fill="white"/>
</clipPath>
</defs>
</svg>
