<svg width="160" height="160" viewBox="0 0 160 160" fill="none" xmlns="http://www.w3.org/2000/svg">
<g clip-path="url(#clip0_8192_2267)">
<rect width="160" height="160" rx="8" fill="#F0F3FA"/>
<path d="M88.5714 37.2229C81.6708 56.2492 74.8068 75.1757 67.8779 94.2859C62.6852 89.4335 59.452 83.6665 58.0686 76.929C56.6812 70.1795 57.3587 63.5858 60.1822 57.0879C52.4419 57.0879 44.8639 57.0879 37.2128 57.0879C36.9694 54.8914 37.3873 52.8865 38.0566 50.9455C40.9126 42.6824 48.2797 37.3068 57.2045 37.2029C67.5087 37.0871 77.8169 37.175 88.1252 37.175C88.2266 37.175 88.328 37.195 88.5714 37.2229Z" fill="#0089FF"/>
<path d="M65.7144 125.656C72.9386 105.664 80.1545 85.7016 87.3788 65.7144C97.5491 73.4308 103.545 88.9952 97.711 104.071C91.549 119.997 75.81 126.407 65.7144 125.656Z" fill="#0089FF"/>
<path d="M88.5715 57.0846C89.2656 55.1957 89.9388 53.3677 90.6079 51.5315C92.2328 47.0793 93.8702 42.6352 95.4578 38.1749C95.7279 37.4193 96.1061 37.1431 96.9455 37.1472C106.122 37.1756 115.298 37.1797 124.47 37.1431C125.496 37.139 125.787 37.4437 125.7 38.4105C125.089 45.0645 122.009 50.2885 116.287 53.9648C112.966 56.0975 109.28 57.1212 105.311 57.1333C99.9793 57.1496 94.6474 57.1415 89.3154 57.1374C89.1118 57.1415 88.904 57.113 88.5715 57.0846Z" fill="#0089FF"/>
</g>
<defs>
<clipPath id="clip0_8192_2267">
<rect width="160" height="160" fill="white"/>
</clipPath>
</defs>
</svg>
