<svg width="160" height="160" viewBox="0 0 160 160" fill="none" xmlns="http://www.w3.org/2000/svg">
<g clip-path="url(#clip0_8192_2267)">
<rect width="160" height="160" rx="8" fill="#F0F3FA"/>
<path d="M49.9184 77.1425C49.8119 77.6598 49.5301 78.1245 49.1208 78.4582C48.7114 78.7918 48.1994 78.9741 47.6712 78.9741C47.1431 78.9741 46.6311 78.7918 46.2217 78.4582C45.8123 78.1245 45.5306 77.6598 45.4241 77.1425C45.4149 76.8374 45.4692 76.5338 45.5837 76.2509C45.6981 75.968 45.8702 75.712 46.0889 75.4992C46.3076 75.2864 46.5683 75.1214 46.8542 75.0147C47.1401 74.908 47.4451 74.8621 47.7498 74.8796C48.0521 74.8707 48.3529 74.9242 48.6336 75.0367C48.9143 75.1493 49.1687 75.3185 49.3811 75.5338C49.5934 75.7491 49.7591 76.0059 49.8678 76.288C49.9764 76.5702 50.0258 76.8718 50.0127 77.1739" fill="#44B749"/>
<path d="M30.5271 80.945H34.8014V94.0193H30.5271V92.5422C29.9891 93.1892 29.3099 93.7042 28.5416 94.0474C27.7733 94.3907 26.9365 94.5531 26.0957 94.5222C25.2204 94.5257 24.354 94.3464 23.552 93.9958C22.75 93.6451 22.0301 93.1308 21.4384 92.4859C20.8466 91.8409 20.3961 91.0794 20.1157 90.2503C19.8353 89.4211 19.7312 88.5425 19.8099 87.6708C19.7498 86.7456 19.8799 85.8179 20.1921 84.945C20.5042 84.072 20.9919 83.2722 21.625 82.5949C22.2581 81.9176 23.0232 81.3772 23.8732 81.007C24.7232 80.6367 25.64 80.4445 26.5671 80.4422C27.35 80.4238 28.1265 80.5873 28.8355 80.92C29.5445 81.2527 30.1666 81.7454 30.6528 82.3593L30.5271 80.945ZM24.2414 87.5765C24.1829 88.0221 24.2207 88.4752 24.3523 88.905C24.4838 89.3348 24.7061 89.7314 25.0039 90.068C25.3018 90.4046 25.6685 90.6734 26.0791 90.8562C26.4897 91.0391 26.9348 91.1317 27.3842 91.1279C28.2764 91.0555 29.1049 90.6368 29.6923 89.9613C30.2796 89.2858 30.5793 88.4072 30.5271 87.5136C30.5807 87.0704 30.5392 86.6208 30.4054 86.1948C30.2717 85.7688 30.0487 85.3762 29.7513 85.0432C29.454 84.7101 29.089 84.4443 28.6809 84.2633C28.2727 84.0823 27.8307 83.9904 27.3842 83.9936C26.9317 83.9892 26.4836 84.0825 26.0705 84.2672C25.6574 84.4519 25.289 84.7236 24.9906 85.0638C24.6922 85.404 24.4707 85.8046 24.3414 86.2383C24.2121 86.6719 24.178 87.1284 24.2414 87.5765Z" fill="#0D4593"/>
<path d="M42.2814 75.1938H38.0071V93.9881H42.2814V75.1938Z" fill="#0D4593"/>
<path d="M49.7611 80.9444H45.4868V93.9873H49.7611V80.9444Z" fill="#0D4593"/>
<path d="M64.4696 92.5728C63.0751 93.8553 61.2411 94.5529 59.3468 94.5213C57.4056 94.527 55.537 93.784 54.1296 92.447C53.4763 91.8128 52.9628 91.049 52.6218 90.2047C52.2808 89.3604 52.12 88.4542 52.1496 87.5442C52.1188 86.6004 52.2825 85.6604 52.6305 84.7826C52.9786 83.9048 53.5035 83.108 54.1727 82.4418C54.8418 81.7756 55.6409 81.2542 56.5202 80.91C57.3996 80.5659 58.3403 80.4063 59.2839 80.4413C61.3294 80.4671 63.2869 81.2771 64.7525 82.7042L61.8925 85.2813C61.5916 84.9478 61.2227 84.6826 60.8107 84.5037C60.3986 84.3248 59.953 84.2363 59.5039 84.2442C58.6704 84.2442 57.871 84.5753 57.2816 85.1647C56.6922 85.7541 56.3611 86.5535 56.3611 87.387C56.3353 87.8154 56.3975 88.2444 56.5439 88.6477C56.6903 89.0511 56.9177 89.4202 57.2122 89.7323C57.5066 90.0444 57.8618 90.2929 58.256 90.4625C58.6501 90.6321 59.0748 90.7192 59.5039 90.7185C60.3219 90.6985 61.0999 90.3602 61.6725 89.7756L64.4696 92.5728Z" fill="#0D4593"/>
<path d="M69.6242 88.3939C69.7463 89.0846 70.1178 89.7063 70.6683 90.1409C71.2188 90.5754 71.9098 90.7926 72.6099 90.7511C73.1328 90.7823 73.6537 90.6626 74.1106 90.4063C74.5674 90.15 74.9411 89.7679 75.187 89.3054L79.1156 90.3111C78.663 91.3725 77.9363 92.2945 77.0099 92.9825C75.9424 93.8133 74.6656 94.3321 73.3213 94.4815C71.9769 94.631 70.6174 94.4051 69.3935 93.829C68.1697 93.2528 67.1293 92.349 66.3878 91.2177C65.6463 90.0863 65.2327 88.7717 65.1927 87.4196C65.1513 86.4816 65.3076 85.5453 65.6516 84.6716C65.9956 83.7978 66.5195 83.0063 67.1894 82.3483C67.8592 81.6902 68.66 81.1805 69.5398 80.8522C70.4195 80.5239 71.3584 80.3843 72.2956 80.4425C73.2723 80.4004 74.2469 80.5649 75.1556 80.9253C76.0644 81.2857 76.8868 81.8339 77.5691 82.534C78.2514 83.2342 78.7783 84.0704 79.1152 84.9881C79.4521 85.9059 79.5914 86.8844 79.5242 87.8596V88.3939H69.6242ZM75.1556 86.1311C75.0334 85.4874 74.6762 84.9121 74.1534 84.5171C73.6306 84.1221 72.9796 83.9356 72.327 83.9939C71.687 83.9457 71.052 84.138 70.5462 84.5333C70.0405 84.9286 69.7005 85.4983 69.5927 86.1311H75.1556Z" fill="#0D4593"/>
<path d="M86.281 94.0202H81.8181V75.1631H86.281V82.2345C86.767 81.6347 87.3871 81.1573 88.0912 80.8407C88.7954 80.5241 89.564 80.3771 90.3353 80.4117C91.2538 80.401 92.1646 80.5804 93.0105 80.9385C93.8564 81.2967 94.6191 81.8259 95.2507 82.4929C95.8823 83.1599 96.3692 83.9503 96.6807 84.8145C96.9922 85.6787 97.1217 86.5979 97.061 87.5145C97.163 88.4232 97.0655 89.3433 96.7754 90.2105C96.4852 91.0777 96.0093 91.8711 95.3809 92.5354C94.7525 93.1998 93.9867 93.719 93.1369 94.0568C92.2872 94.3947 91.374 94.5431 90.461 94.4917C89.6613 94.5591 88.8577 94.4213 88.1262 94.0913C87.3948 93.7613 86.7596 93.25 86.281 92.6059V94.0202ZM86.281 87.7345C86.281 88.5681 86.6121 89.3674 87.2015 89.9568C87.7909 90.5462 88.5903 90.8774 89.4238 90.8774C90.2574 90.8774 91.0568 90.5462 91.6462 89.9568C92.2356 89.3674 92.5667 88.5681 92.5667 87.7345C92.6008 87.2918 92.5461 86.8467 92.4058 86.4255C92.2655 86.0042 92.0424 85.6152 91.7496 85.2814C91.4567 84.9476 91.1002 84.6757 90.7008 84.4817C90.3014 84.2877 89.8672 84.1755 89.4238 84.1517C88.532 84.2393 87.7081 84.6669 87.1229 85.3457C86.5378 86.0244 86.2363 86.9023 86.281 87.7974" fill="#276AB4"/>
<path d="M103.598 75.1938H99.324V93.9881H103.598V75.1938Z" fill="#276AB4"/>
<path d="M118.716 80.9443V89.1786C118.801 89.9265 118.703 90.6839 118.429 91.385C118.155 92.0861 117.714 92.7097 117.144 93.2015C115.802 94.1041 114.221 94.5861 112.603 94.5861C110.985 94.5861 109.404 94.1041 108.061 93.2015C107.54 92.7042 107.14 92.0948 106.889 91.4196C106.639 90.7444 106.545 90.0211 106.616 89.3043V80.9443H110.89V88.8643C110.89 90.2158 111.55 90.9701 112.713 90.9701C112.948 90.9856 113.184 90.9491 113.403 90.8632C113.622 90.7773 113.82 90.6441 113.982 90.4731C114.144 90.302 114.267 90.0973 114.341 89.8736C114.414 89.6498 114.438 89.4126 114.41 89.1786V80.9443H118.716Z" fill="#276AB4"/>
<path d="M125.347 88.3939C125.471 89.1138 125.865 89.7591 126.45 90.1974C127.034 90.6357 127.764 90.8338 128.49 90.751C129.013 90.7862 129.536 90.6682 129.993 90.4115C130.451 90.1548 130.824 89.7704 131.067 89.3053L135.027 90.311C134.563 91.3746 133.826 92.2964 132.89 92.9824C131.829 93.8916 130.53 94.477 129.146 94.6691C127.763 94.8611 126.353 94.6517 125.085 94.0657C123.817 93.4797 122.744 92.5418 121.994 91.3636C121.244 90.1854 120.847 88.8164 120.853 87.4196C120.811 86.4815 120.967 85.5452 121.311 84.6715C121.655 83.7978 122.179 83.0062 122.849 82.3482C123.519 81.6902 124.32 81.1805 125.2 80.8521C126.079 80.5238 127.018 80.3842 127.955 80.4424C128.931 80.3998 129.904 80.5643 130.812 80.925C131.719 81.2857 132.539 81.8345 133.219 82.5351C133.899 83.2358 134.423 84.0726 134.756 84.9903C135.089 85.908 135.225 86.8859 135.153 87.8596V88.3939H125.347ZM130.878 86.131C130.763 85.4839 130.407 84.9043 129.883 84.5081C129.358 84.1119 128.704 83.9282 128.05 83.9939C127.41 83.9456 126.775 84.1379 126.269 84.5332C125.763 84.9285 125.423 85.4983 125.315 86.131H130.878Z" fill="#276AB4"/>
<path d="M80.7499 100.808H20.187V101.499H80.7499V100.808Z" fill="#44B749"/>
<path d="M116.987 69.3476L115.038 72.4905C113.735 72.5674 112.435 72.2929 111.274 71.6959C110.113 71.0988 109.134 70.201 108.438 69.0962C107.056 66.1419 109.067 62.0248 113.216 58.4419L116.358 59.3219C112.996 62.0248 111.236 65.0419 112.241 67.1476C112.77 67.9298 113.505 68.5498 114.365 68.9383C115.225 69.3268 116.177 69.4685 117.113 69.3476" fill="#44B749"/>
<path d="M116.987 69.3476L115.038 72.4905C113.735 72.5674 112.435 72.2929 111.274 71.6959C110.113 71.0988 109.134 70.201 108.438 69.0962C107.056 66.1419 109.067 62.0248 113.216 58.4419L116.358 59.3219C112.996 62.0248 111.236 65.0419 112.241 67.1476C112.77 67.9298 113.505 68.5498 114.365 68.9383C115.225 69.3268 116.177 69.4685 117.113 69.3476" fill="#44B749"/>
<path d="M137.227 62.9048C134.571 65.761 131.363 68.049 127.798 69.6305C124.224 71.3746 120.331 72.3693 116.358 72.5534L118.37 69.4105C124.069 68.7612 129.399 66.267 133.55 62.3077L137.227 62.9048Z" fill="#276AB4"/>
<path d="M138.044 61.8988L134.524 61.2074C135.242 60.5546 135.763 59.7146 136.029 58.7819C136.296 57.8492 136.297 56.8607 136.033 55.9274C134.618 52.7845 128.113 52.9731 121.513 56.0845C120.069 56.7519 118.691 57.5515 117.396 58.4731L114.253 57.5617C116.192 56.0703 118.302 54.8148 120.538 53.8217C129.213 49.736 137.667 50.2388 139.961 54.356C140.369 55.6604 140.415 57.0512 140.094 58.3798C139.773 59.7083 139.097 60.9247 138.138 61.8988" fill="#276AB4"/>
<path d="M126.132 65.7344C123.381 67.1597 120.302 67.8319 117.207 67.683L119.218 65.5458C121.391 65.747 123.575 65.3101 125.504 64.2887C129.087 62.623 131.381 60.0144 130.658 58.443C129.935 56.8716 126.447 57.0287 122.864 58.6944C121.746 59.1982 120.691 59.8311 119.721 60.5801L117.144 60.423C118.651 59.158 120.321 58.101 122.11 57.2801C127.515 54.7344 132.795 54.5773 133.895 56.903C134.995 59.2287 131.475 63.1887 126.07 65.7344" fill="#44B749"/>
<path d="M126.132 65.7344C123.381 67.1597 120.302 67.8319 117.207 67.683L119.218 65.5458C121.391 65.747 123.575 65.3101 125.504 64.2887C129.087 62.623 131.381 60.0144 130.658 58.443C129.935 56.8716 126.447 57.0287 122.864 58.6944C121.746 59.1982 120.691 59.8311 119.721 60.5801L117.144 60.423C118.651 59.158 120.321 58.101 122.11 57.2801C127.515 54.7344 132.795 54.5773 133.895 56.903C134.995 59.2287 131.475 63.1887 126.07 65.7344" fill="#44B749"/>
<path d="M123.619 60.8314L119.219 65.5457L117.207 67.6828C116.634 67.6989 116.068 67.5581 115.57 67.2756C115.071 66.9931 114.659 66.5796 114.379 66.08C113.656 64.6028 114.85 62.4343 117.207 60.4229L119.784 60.58L123.619 60.8314Z" fill="#0D4593"/>
<path d="M85.621 102.568C85.436 102.812 85.1851 102.997 84.8981 103.103C84.5457 103.231 84.1731 103.295 83.7981 103.291C83.497 103.291 83.2025 103.203 82.9496 103.04C82.6909 102.896 82.4825 102.677 82.3524 102.411C82.2094 102.129 82.1341 101.817 82.1324 101.5C82.0769 101.125 82.0769 100.744 82.1324 100.368C82.2017 99.946 82.3511 99.5406 82.5724 99.1742C82.768 98.8534 83.0374 98.584 83.3582 98.3884C83.6835 98.2056 84.054 98.1184 84.4267 98.137C84.8416 98.1275 85.2451 98.2732 85.5582 98.5456C85.8257 98.8666 85.99 99.261 86.0296 99.677H85.3696C85.3609 99.4108 85.261 99.1556 85.0867 98.9542C85.0007 98.8574 84.8937 98.7816 84.7738 98.7325C84.654 98.6835 84.5245 98.6626 84.3953 98.6713C84.1939 98.6693 83.9944 98.7103 83.8101 98.7916C83.6258 98.8729 83.461 98.9926 83.3267 99.1427C83.0049 99.5493 82.8083 100.041 82.761 100.557V101.311C82.7832 101.667 82.915 102.007 83.1382 102.286C83.2365 102.399 83.3569 102.49 83.4921 102.555C83.6272 102.62 83.7741 102.657 83.9239 102.663C84.3445 102.683 84.758 102.549 85.0867 102.286L85.2753 101.154H84.1439V100.62H85.9353L85.621 102.568Z" fill="#4C4D50"/>
<path d="M88.7953 100.054H88.5125C88.322 100.051 88.1341 100.099 87.9683 100.193C87.8025 100.287 87.6649 100.424 87.5696 100.589L87.0982 103.26H86.501L87.1296 99.5201H87.7268V99.9601C87.8282 99.8031 87.9681 99.6745 88.133 99.5865C88.298 99.4985 88.4827 99.454 88.6696 99.4573H88.9525L88.7953 100.054Z" fill="#4C4D50"/>
<path d="M90.8384 99.4253C91.1208 99.4208 91.3969 99.5091 91.6241 99.6768C91.8735 99.835 92.0532 100.082 92.127 100.368C92.2082 100.677 92.2082 101.002 92.127 101.311C92.104 101.667 91.9962 102.011 91.8127 102.317C91.6601 102.595 91.4311 102.824 91.1527 102.977C90.8828 103.154 90.5639 103.242 90.2413 103.228C89.9589 103.233 89.6828 103.144 89.4556 102.977C89.2273 102.797 89.0532 102.558 88.9527 102.285C88.8874 101.974 88.8874 101.653 88.9527 101.342C88.9755 100.977 89.0831 100.622 89.267 100.305C89.417 100.009 89.6452 99.7588 89.927 99.5825C90.2118 99.4512 90.5261 99.3971 90.8384 99.4253ZM89.5813 101.405C89.5499 101.561 89.5499 101.721 89.5813 101.877C89.5811 102.105 89.6587 102.327 89.8013 102.505C89.8736 102.583 89.9611 102.646 90.0583 102.689C90.1556 102.732 90.2606 102.755 90.367 102.757C90.4564 102.795 90.5526 102.814 90.6498 102.814C90.747 102.814 90.8432 102.795 90.9327 102.757C91.1244 102.649 91.2781 102.484 91.3727 102.285C91.4937 102.048 91.5784 101.794 91.6241 101.531V100.997C91.5994 100.768 91.5124 100.551 91.3727 100.368C91.3045 100.283 91.2186 100.213 91.1209 100.165C91.0232 100.116 90.9161 100.089 90.807 100.085C90.6515 100.085 90.4979 100.119 90.3568 100.184C90.2156 100.249 90.0904 100.344 89.9898 100.462C89.7539 100.76 89.6117 101.121 89.5813 101.5V101.405Z" fill="#4C4D50"/>
<path d="M96.0555 102.285L97.2184 99.425H97.8784L96.1813 103.165H95.7098L95.3327 100.336L93.9813 103.165H93.4784L93.0698 99.425H93.667L93.887 102.191L95.207 99.425H95.7098L96.0555 102.285Z" fill="#4C4D50"/>
<path d="M99.5127 98.5761L99.3555 99.4876H100.047V99.9904H99.387L98.8527 102.285V102.473C98.8566 102.511 98.8678 102.547 98.8858 102.579C98.9037 102.612 98.9281 102.641 98.9573 102.665C98.9865 102.688 99.0201 102.705 99.0561 102.716C99.0921 102.726 99.1298 102.729 99.167 102.725H99.4498V103.259H98.9784C98.8675 103.266 98.7567 103.244 98.6574 103.194C98.558 103.144 98.4736 103.069 98.4127 102.976C98.326 102.743 98.326 102.486 98.4127 102.253L98.7898 99.959H98.1298V99.4561H98.8527L99.0098 98.5447L99.5127 98.5761Z" fill="#4C4D50"/>
<path d="M101.304 99.9584C101.442 99.792 101.615 99.6578 101.81 99.5655C102.006 99.4732 102.219 99.4249 102.435 99.4241C102.584 99.4179 102.732 99.4458 102.868 99.5058C103.005 99.5657 103.125 99.656 103.221 99.7698C103.392 100.075 103.458 100.429 103.41 100.776L103.001 103.227H102.373L102.781 100.776V100.461C102.782 100.39 102.767 100.319 102.738 100.253C102.709 100.188 102.666 100.129 102.612 100.081C102.559 100.034 102.496 99.9982 102.427 99.977C102.359 99.9558 102.287 99.9494 102.215 99.9584C102.015 99.9625 101.819 100.02 101.647 100.125C101.476 100.23 101.336 100.378 101.241 100.556L100.77 103.227H100.141L101.053 97.9155H101.681L101.304 99.9584Z" fill="#4C4D50"/>
<path d="M106.458 103.229H105.83L106.678 98.2001H107.338L106.458 103.229Z" fill="#4C4D50"/>
<path d="M108.816 99.4881V99.9595C108.954 99.7931 109.126 99.659 109.322 99.5666C109.517 99.4743 109.731 99.426 109.947 99.4252C110.096 99.4165 110.245 99.4434 110.381 99.5035C110.518 99.5636 110.638 99.6552 110.733 99.7709C110.904 100.077 110.97 100.43 110.921 100.777L110.513 103.228H109.884L110.293 100.777C110.324 100.674 110.324 100.565 110.293 100.462C110.293 100.391 110.278 100.32 110.249 100.254C110.22 100.189 110.178 100.13 110.124 100.083C110.07 100.035 110.007 99.9993 109.939 99.9781C109.87 99.9569 109.798 99.9505 109.727 99.9595C109.527 99.9667 109.332 100.026 109.161 100.13C108.991 100.235 108.85 100.382 108.753 100.557L108.281 103.228H107.653L108.281 99.4881H108.816Z" fill="#4C4D50"/>
<path d="M112.996 103.291C112.784 103.288 112.576 103.238 112.386 103.146C112.196 103.054 112.029 102.921 111.896 102.757C111.762 102.579 111.665 102.376 111.611 102.16C111.557 101.944 111.547 101.72 111.581 101.5V101.343C111.63 100.988 111.747 100.646 111.927 100.337C112.079 100.05 112.307 99.8107 112.587 99.6456C112.833 99.4958 113.116 99.4194 113.404 99.4256C113.575 99.4155 113.745 99.4443 113.903 99.5096C114.061 99.5749 114.202 99.6751 114.316 99.8027C114.551 100.086 114.684 100.44 114.693 100.808C114.708 100.955 114.708 101.102 114.693 101.248V101.531H112.241C112.202 101.838 112.268 102.148 112.43 102.411C112.505 102.524 112.609 102.614 112.73 102.675C112.851 102.736 112.986 102.764 113.121 102.757C113.316 102.757 113.509 102.712 113.683 102.624C113.858 102.537 114.01 102.41 114.127 102.254L114.473 102.568C114.321 102.793 114.116 102.977 113.876 103.103C113.604 103.242 113.3 103.307 112.996 103.291ZM113.404 99.9284C113.275 99.9241 113.147 99.947 113.028 99.9958C112.909 100.045 112.801 100.118 112.713 100.211C112.492 100.425 112.34 100.698 112.273 100.997H114.064C114.099 100.745 114.044 100.489 113.907 100.274C113.853 100.183 113.781 100.105 113.694 100.046C113.607 99.9859 113.508 99.9459 113.404 99.9284Z" fill="#4C4D50"/>
<path d="M116.358 102.285L117.678 99.425H118.338L116.484 103.165H115.981L115.258 99.425H115.887L116.358 102.285Z" fill="#4C4D50"/>
<path d="M119.03 103.229H118.401L119.03 99.4889H119.658L119.03 103.229ZM119.533 98.1375C119.613 98.1059 119.703 98.1059 119.784 98.1375C119.813 98.2188 119.813 98.3076 119.784 98.3889C119.818 98.4802 119.818 98.5805 119.784 98.6718C119.703 98.7033 119.613 98.7033 119.533 98.6718C119.441 98.7029 119.341 98.7029 119.25 98.6718C119.218 98.5909 119.218 98.5012 119.25 98.4203C119.23 98.3759 119.219 98.3277 119.219 98.2789C119.219 98.2302 119.23 98.182 119.25 98.1375C119.294 98.1154 119.342 98.1039 119.391 98.1039C119.44 98.1039 119.489 98.1154 119.533 98.1375Z" fill="#4C4D50"/>
<path d="M121.67 98.5761V99.4876H122.361V99.9904H121.701L121.293 102.285V102.473C121.297 102.511 121.308 102.547 121.326 102.579C121.344 102.612 121.368 102.641 121.397 102.665C121.427 102.688 121.46 102.705 121.496 102.716C121.532 102.726 121.57 102.729 121.607 102.725H121.89V103.259H121.418C121.308 103.266 121.197 103.244 121.097 103.194C120.998 103.144 120.914 103.069 120.853 102.976C120.766 102.743 120.766 102.486 120.853 102.253L121.23 99.959H120.57V99.4561H120.853V98.5447L121.67 98.5761Z" fill="#4C4D50"/>
<path d="M124.593 103.228C124.58 103.156 124.58 103.081 124.593 103.008V102.82C124.31 103.108 123.927 103.277 123.524 103.291C123.222 103.294 122.93 103.181 122.707 102.977C122.6 102.854 122.521 102.709 122.476 102.553C122.43 102.396 122.419 102.232 122.443 102.071C122.467 101.909 122.525 101.755 122.614 101.619C122.703 101.482 122.821 101.367 122.958 101.28C123.336 101.051 123.774 100.942 124.215 100.965H124.875V100.651C124.915 100.568 124.935 100.476 124.935 100.384C124.935 100.292 124.915 100.2 124.875 100.117C124.816 100.053 124.742 100.003 124.661 99.97C124.579 99.9374 124.492 99.9231 124.404 99.9283C124.205 99.9284 124.009 99.9828 123.838 100.085C123.756 100.131 123.686 100.194 123.631 100.27C123.577 100.346 123.54 100.433 123.524 100.525H122.895C122.919 100.306 123.007 100.099 123.147 99.9283C123.31 99.7676 123.502 99.6396 123.713 99.5511C123.962 99.5057 124.217 99.5057 124.467 99.5511C124.629 99.5458 124.791 99.5738 124.942 99.6332C125.094 99.6927 125.231 99.7824 125.347 99.8969C125.459 100.018 125.543 100.163 125.592 100.32C125.641 100.478 125.654 100.645 125.63 100.808L125.315 102.631V102.914C125.3 103.039 125.3 103.166 125.315 103.291L124.593 103.228ZM123.618 102.725C123.804 102.77 123.998 102.77 124.184 102.725C124.355 102.606 124.504 102.457 124.624 102.285V101.5H124.31C123.994 101.478 123.679 101.543 123.398 101.688C123.294 101.732 123.205 101.807 123.143 101.902C123.081 101.997 123.05 102.109 123.053 102.223C123.021 102.292 123.005 102.367 123.005 102.443C123.005 102.518 123.021 102.593 123.053 102.663C123.138 102.711 123.232 102.741 123.329 102.752C123.426 102.763 123.525 102.754 123.618 102.725Z" fill="#4C4D50"/>
<path d="M129.432 101.373C129.41 101.738 129.302 102.093 129.118 102.41C128.99 102.675 128.795 102.903 128.552 103.07C128.318 103.219 128.044 103.295 127.767 103.29C127.571 103.295 127.376 103.252 127.201 103.164C127.025 103.076 126.874 102.947 126.761 102.787V103.227H126.195L127.138 97.9155H127.767L127.389 99.8955C127.527 99.7413 127.697 99.6192 127.887 99.5377C128.077 99.4563 128.283 99.4175 128.489 99.4241C128.646 99.4166 128.802 99.447 128.944 99.5127C129.086 99.5783 129.211 99.6773 129.307 99.8012C129.517 100.118 129.626 100.49 129.621 100.87V101.373H129.432ZM128.835 100.996C128.921 100.752 128.921 100.485 128.835 100.241C128.779 100.151 128.7 100.077 128.606 100.027C128.513 99.9775 128.407 99.9537 128.301 99.9584C128.095 99.9602 127.894 100.016 127.717 100.121C127.541 100.226 127.395 100.376 127.295 100.556L127.012 102.158C127.069 102.325 127.174 102.471 127.314 102.577C127.454 102.684 127.622 102.746 127.798 102.756C127.912 102.763 128.027 102.748 128.135 102.71C128.243 102.672 128.342 102.613 128.427 102.536C128.632 102.361 128.784 102.132 128.867 101.876C128.904 101.582 128.894 101.285 128.835 100.996Z" fill="#4C4D50"/>
<path d="M130.596 103.227H129.999L130.91 97.9155H131.539L130.596 103.227Z" fill="#4C4D50"/>
<path d="M133.235 103.291C133.028 103.292 132.823 103.245 132.637 103.152C132.452 103.059 132.29 102.924 132.167 102.757C132.028 102.581 131.925 102.38 131.866 102.164C131.806 101.948 131.791 101.722 131.821 101.5V101.343C131.844 100.987 131.952 100.642 132.135 100.337C132.297 100.057 132.523 99.8196 132.795 99.6455C133.052 99.4932 133.346 99.4169 133.644 99.4255C133.81 99.4156 133.976 99.4445 134.129 99.51C134.281 99.5755 134.417 99.6757 134.524 99.8027C134.759 100.086 134.892 100.44 134.901 100.808C134.917 100.955 134.917 101.102 134.901 101.248V101.531H132.481C132.418 101.834 132.474 102.149 132.638 102.411C132.714 102.524 132.817 102.614 132.938 102.675C133.06 102.736 133.194 102.764 133.33 102.757C133.525 102.759 133.719 102.715 133.894 102.628C134.069 102.54 134.22 102.412 134.335 102.254L134.713 102.568C134.549 102.795 134.334 102.978 134.084 103.103C133.823 103.24 133.53 103.305 133.235 103.291ZM133.644 99.9284C133.516 99.9277 133.389 99.9524 133.27 100.001C133.151 100.049 133.043 100.121 132.953 100.211C132.732 100.425 132.579 100.698 132.513 100.997H134.304C134.352 100.882 134.376 100.76 134.376 100.636C134.376 100.511 134.352 100.389 134.304 100.274C134.236 100.162 134.138 100.071 134.022 100.01C133.906 99.9487 133.775 99.9206 133.644 99.9284Z" fill="#4C4D50"/>
</g>
<defs>
<clipPath id="clip0_8192_2267">
<rect width="160" height="160" fill="white"/>
</clipPath>
</defs>
</svg>
