<svg width="160" height="160" viewBox="0 0 160 160" fill="none" xmlns="http://www.w3.org/2000/svg">
<g clip-path="url(#clip0_8926_19242)">
<rect width="160" height="160" fill="url(#paint0_linear_8926_19242)"/>
<path d="M128.334 85.0219L128.295 85.2966C127.5 91.1268 124.616 94.3362 120.172 94.3362C113.842 94.3362 110.217 89.1336 110.217 80.0706C110.217 70.921 113.842 65.6714 120.172 65.6714C124.405 65.6714 127.367 68.771 128.295 74.1697L128.342 74.2856H142.787L142.725 74.0599C141.68 67.9314 139.092 62.8858 135.241 59.4725C131.413 56.0748 126.315 54.2856 120.515 54.2856C113.351 54.2856 107.185 56.8203 102.687 61.6224C98.3212 66.2757 95.9202 72.828 95.9202 80.0706C95.9202 95.168 106.031 105.714 120.515 105.714C126.378 105.714 131.499 103.87 135.335 100.378C139.17 96.8865 141.75 91.6997 142.795 85.3907L142.857 85.0219H128.334Z" fill="white"/>
<path d="M90.064 54.9557V105.047C90.064 105.413 89.7755 105.714 89.4245 105.714H74.9248C74.5741 105.714 74.2856 105.413 74.2856 105.047L74.3556 63.8647L89.105 54.3774C89.5339 54.117 90.064 54.4425 90.064 54.9557Z" fill="white"/>
<path d="M74.2857 63.871V54.9534C74.2857 54.5869 74.0037 54.2856 73.6607 54.2856H61.656C61.313 54.2856 61.0308 54.5869 61.0308 54.9534V66.7621C61.0308 69.9462 59.4455 72.8864 56.8615 74.4743L46.9911 80.574C46.4346 80.9161 45.741 80.4846 45.741 79.8003L45.7143 63.5491C45.7143 63.1827 45.5326 62.8571 45.1897 62.8571H33.1228C32.7799 62.8571 32.4978 63.1827 32.4978 63.5491L32.509 85.3871C32.509 87.9363 31.2361 90.2899 29.1705 91.5602L17.7678 98.5966C17.3791 98.8328 17.1428 99.2724 17.1428 99.753V105.046C17.1428 105.413 17.4248 105.714 17.7678 105.714H31.945C32.2879 105.714 32.57 105.413 32.57 105.046V93.6533C32.57 91.1041 33.8505 88.7425 35.916 87.4719L44.4299 82.2518C44.9864 81.9097 45.7143 82.3412 45.7143 83.0255V105.046C45.7143 105.413 45.962 105.714 46.305 105.714H60.482C60.8252 105.714 61.1072 105.413 61.1072 105.046V77.1374C61.1072 73.9531 62.7 71.0132 65.284 69.417L74.2857 63.871Z" fill="url(#paint1_linear_8926_19242)"/>
</g>
<defs>
<linearGradient id="paint0_linear_8926_19242" x1="29.7651" y1="27.7475" x2="194.704" y2="217.19" gradientUnits="userSpaceOnUse">
<stop stop-color="#1A1E21"/>
<stop offset="1" stop-color="#06060A"/>
</linearGradient>
<linearGradient id="paint1_linear_8926_19242" x1="42.898" y1="74.2437" x2="50.6235" y2="87.2566" gradientUnits="userSpaceOnUse">
<stop stop-color="#0FC800"/>
<stop offset="0.5" stop-color="#008D00"/>
<stop offset="1" stop-color="#0FC800"/>
</linearGradient>
<clipPath id="clip0_8926_19242">
<rect width="160" height="160" rx="8" fill="white"/>
</clipPath>
</defs>
</svg>
