<svg width="160" height="160" viewBox="0 0 160 160" fill="none" xmlns="http://www.w3.org/2000/svg">
<g clip-path="url(#clip0_8192_2267)">
<rect width="160" height="160" rx="8" fill="#FC5000"/>
<path d="M125.431 45.3176C125.324 45.142 125.324 45.2212 125.431 45.5553L98.4886 103.36C98.3912 103.572 98.2925 103.572 98.1926 103.36L80.315 64.9892C80.3065 64.9723 80.2934 64.958 80.2773 64.9481C80.2612 64.9382 80.2426 64.9329 80.2237 64.9329C80.2047 64.9329 80.1862 64.9382 80.1701 64.9481C80.1539 64.958 80.1409 64.9723 80.1323 64.9892L56.0105 116.795C55.9716 116.882 55.9716 116.97 56.0105 117.058L61.9698 129.835C62.038 129.979 62.1062 129.979 62.1744 129.835L80.1141 91.3363C80.192 91.1729 80.2688 91.1729 80.3443 91.3363L98.2328 129.813C98.2409 129.831 98.2541 129.846 98.2706 129.857C98.2871 129.867 98.3063 129.873 98.326 129.873C98.3457 129.873 98.3649 129.867 98.3814 129.857C98.3979 129.846 98.411 129.831 98.4192 129.813L132.26 57.1981C132.294 57.181 132.327 57.164 132.358 57.1469C137.651 69.6883 138.553 82.3686 135.062 95.188C129.063 117.219 109.925 133.95 87.005 136.711C42.7805 142.037 9.69977 97.0535 28.0012 56.4446C28.0524 56.3324 28.14 56.2763 28.2643 56.2763L59.3318 56.2544C59.5145 56.2544 59.568 56.3373 59.4925 56.5031L43.7487 90.3304C43.6902 90.4572 43.6902 90.5853 43.7487 90.7145L49.6823 103.477C49.6909 103.493 49.7039 103.508 49.72 103.518C49.7362 103.528 49.7547 103.533 49.7737 103.533C49.7926 103.533 49.8112 103.528 49.8273 103.518C49.8434 103.508 49.8565 103.493 49.865 103.477L71.758 56.4775C71.8043 56.3775 71.8835 56.3275 71.9955 56.3275L107.959 56.2288C108.078 56.2288 108.164 56.1739 108.215 56.0642L113.198 45.3797C113.259 45.2505 113.218 45.1859 113.074 45.1859H34.9871C34.9639 45.1858 34.9414 45.1791 34.922 45.1665C34.9026 45.1539 34.887 45.136 34.8772 45.1147C34.8673 45.0934 34.8635 45.0697 34.8661 45.0461C34.8688 45.0224 34.8778 44.9999 34.8921 44.981C58.4147 15.1444 102.117 15.7113 125.431 45.3176Z" fill="white"/>
<path d="M133.272 57.0898C133.237 57.1075 133.202 57.1253 133.165 57.143L125.801 45.0482C125.685 44.7011 125.685 44.6188 125.801 44.8012L132.677 31.5589C132.766 31.3866 132.86 31.3853 132.96 31.5551L139.926 43.5549C139.973 43.6358 139.998 43.7264 140 43.819C140.002 43.9116 139.981 44.0035 139.938 44.0868L133.272 57.0898Z" fill="white"/>
</g>
<defs>
<clipPath id="clip0_8192_2267">
<rect width="160" height="160" fill="white"/>
</clipPath>
</defs>
</svg>
