<svg width="160" height="160" viewBox="0 0 160 160" fill="none" xmlns="http://www.w3.org/2000/svg">
<g clip-path="url(#clip0_8192_2267)">
<rect width="160" height="160" rx="8" fill="#F0F3FA"/>
<path d="M99.4956 75.3727C99.4956 75.3727 99.5471 75.2956 99.5471 75.2441L98.5442 76.8641L99.4956 75.3727Z" fill="#002A70"/>
<path fill-rule="evenodd" clip-rule="evenodd" d="M132.397 86.0097C133.756 87.6878 135.738 88.5489 138.249 88.5489L138.295 88.5268C140.668 88.5268 142.581 87.754 143.963 86.2305C145.115 84.9499 145.714 83.3161 145.714 81.3952C145.714 80.3354 145.53 79.3418 145.138 78.4365C144.562 77.1339 143.687 76.0961 142.466 75.3675C141.267 74.661 139.885 74.2856 138.318 74.2856C137.443 74.2856 136.636 74.374 135.899 74.5948C134.079 75.1026 132.696 76.1624 131.798 77.73C131.175 78.834 130.853 80.0704 130.853 81.4172C130.853 83.2057 131.36 84.7512 132.397 86.0097ZM135.553 78.0612C136.244 77.2884 137.143 76.891 138.249 76.891V76.9131C139.332 76.9131 140.231 77.2884 140.922 78.017C141.682 78.834 142.074 79.9821 142.074 81.3952C142.074 82.6537 141.774 83.6914 141.152 84.4863C140.461 85.3915 139.493 85.8552 138.272 85.8552C137.005 85.8552 136.037 85.3915 135.323 84.398C134.747 83.6031 134.447 82.5875 134.447 81.3952C134.447 80.0042 134.816 78.9002 135.553 78.0612Z" fill="#00ADB5"/>
<path fill-rule="evenodd" clip-rule="evenodd" d="M104.562 88.5493C104.009 88.5493 103.571 88.3947 103.249 88.1298C102.995 87.909 102.857 87.622 102.857 87.2908V77.0239C102.857 76.2732 103.088 75.6992 103.525 75.3017C103.963 74.9264 104.608 74.7277 105.461 74.7277H108.871C110.484 74.7277 111.866 75.0147 112.972 75.5888C114.447 76.3394 115.184 77.5097 115.184 79.011C115.184 80.6228 114.493 81.8151 113.133 82.5879C112.051 83.2061 110.576 83.5152 108.779 83.5152H106.29V87.2687C106.29 87.5336 106.198 87.7765 106.037 87.9752C105.714 88.3506 105.23 88.5272 104.585 88.5272L104.562 88.5493ZM108.825 80.9319C109.723 80.9319 110.438 80.7553 110.922 80.4241C111.382 80.115 111.613 79.6513 111.613 79.0552C111.613 78.3928 111.313 77.9292 110.691 77.6421C110.253 77.4213 109.654 77.3109 108.94 77.3109H106.405C106.332 77.3109 106.298 77.3109 106.282 77.3274C106.267 77.342 106.267 77.3695 106.267 77.4213V80.9319H108.825Z" fill="#00ADB5"/>
<path fill-rule="evenodd" clip-rule="evenodd" d="M118.688 88.5493C117.997 88.5493 117.513 88.3285 117.191 87.909C117.052 87.7324 116.983 87.5116 116.983 87.2687V77.1785C116.983 76.3836 117.214 75.7654 117.698 75.3459C118.158 74.9264 118.873 74.7277 119.771 74.7277H123.412C124.886 74.7277 126.131 74.9485 127.052 75.39C127.605 75.655 128.066 75.9862 128.458 76.4278C129.034 77.0901 129.333 77.8629 129.333 78.724C129.333 80.6891 128.181 81.9255 125.923 82.4112L129.564 86.2972C129.794 86.5401 129.909 86.8271 129.909 87.1362C129.909 87.644 129.656 88.0415 129.126 88.3064C128.78 88.483 128.412 88.5714 128.02 88.5714C127.375 88.5714 126.845 88.3285 126.453 87.8428L122.398 82.8308H120.416V87.2908C120.416 87.644 120.278 87.9531 119.979 88.1739C119.656 88.4389 119.218 88.5714 118.711 88.5714L118.688 88.5493ZM122.951 80.2696C124.794 80.2696 125.693 79.7838 125.693 78.7461C125.693 77.7084 124.84 77.2889 123.043 77.2889H120.393V80.2696H122.951Z" fill="#00ADB5"/>
<path d="M48.3426 68.5713H50.3439C50.7344 68.5713 51.0517 68.8772 51.0517 69.2536V87.6301C51.0517 88.1477 50.6124 88.5477 50.0999 88.5477H48.5866C48.0497 88.5477 47.6348 88.1242 47.6348 87.6301V69.2536C47.6348 68.8772 47.9521 68.5713 48.3426 68.5713Z" fill="#2E2B2B"/>
<path d="M33.5763 81.2297L33.5824 81.2201C34.6304 79.5753 35.8253 77.7 37.7009 77.5591H37.7498C38.8725 77.4885 39.9219 77.8414 40.7518 78.5709C41.5572 79.2767 41.9965 80.2179 42.0209 81.2767C42.0697 83.2532 40.5077 84.9708 38.4576 85.1591C37.0176 85.3002 36.2122 85.1591 35.4067 84.0061C35.2359 83.7708 34.9918 83.6532 34.699 83.6297C34.4061 83.6297 34.1376 83.7473 33.9668 83.9591L32.8929 85.2297C32.6 85.5826 32.6 86.0767 32.8929 86.4061C34.4305 88.2179 36.2366 88.712 38.6528 88.5238C40.6541 88.3826 42.4602 87.4885 43.7538 86.0061C45.0473 84.5473 45.6575 82.665 45.4866 80.7591C45.3158 78.8532 44.3883 77.112 42.8507 75.865C41.3863 74.6885 39.4582 74.0767 37.5545 74.1944C35.4556 74.3356 33.3322 75.8179 32.1119 77.3709C31.5313 78.108 31.0412 78.9005 30.5508 79.6934C30.1959 80.2672 29.841 80.8412 29.4516 81.3944C28.4997 82.7826 27.3526 84.1944 25.7174 84.8532C23.1059 85.912 20.1527 84.6414 18.7127 82.4061C17.2483 80.1003 17.7121 77.1356 19.7866 75.3238C20.714 74.5238 21.91 74.0062 23.1547 73.8885C25.3757 73.6767 27.4258 74.6885 28.5973 76.3591C28.8414 76.6885 29.3295 76.712 29.598 76.3826L31.038 74.665C31.2576 74.4062 31.2576 74.0532 31.038 73.7944C29.1587 71.5591 26.2055 70.2415 22.9839 70.4768C17.7609 70.8768 13.8802 75.2767 14.3196 80.312C14.466 82.0532 15.1494 83.7238 16.2721 85.0885C17.3704 86.4297 18.8348 87.4649 20.4944 88.0532C23.1303 88.9944 26.1811 88.4767 28.5241 87.065C30.2963 85.9946 31.3961 84.3839 32.5097 82.7529C32.669 82.5196 32.8286 82.2858 32.9905 82.0532C33.1857 81.7709 33.381 81.4884 33.5763 81.1826V81.2297Z" fill="#2E2B2B"/>
<path d="M67.5493 73.7713C68.2327 73.8184 68.9405 73.9595 69.5263 74.336C70.5025 74.9478 71.1127 76.0066 71.1127 77.136V87.4183C71.1127 88.0536 70.5757 88.5477 69.9412 88.5477H68.8429C68.2083 88.5477 67.6714 88.0301 67.6714 87.4183V77.9125C67.6714 77.4419 67.2565 77.0419 66.7683 77.0419H65.1331C64.645 77.0419 64.2301 77.4419 64.2301 77.9125V87.4183C64.2301 88.0536 63.6931 88.5477 63.0585 88.5477H61.8382C61.2036 88.5477 60.6667 88.0301 60.6667 87.4183V77.9125C60.6667 77.4419 60.2518 77.0419 59.7637 77.0419H58.1284C57.6403 77.0419 57.2254 77.4419 57.2254 77.9125V87.4183C57.2254 88.0536 56.6885 88.5477 56.0539 88.5477H54.9556C54.321 88.5477 53.7841 88.0301 53.7841 87.4183V77.136C53.7841 76.0066 54.3942 74.9478 55.3705 74.336C55.9563 73.9595 56.6396 73.8184 57.3474 73.7713C57.6756 73.7555 58.0148 73.7609 58.3428 73.7662C58.5025 73.7688 58.66 73.7713 58.8118 73.7713C60.0077 73.7948 61.0816 74.0537 61.9358 74.9007C62.0823 75.0419 62.2775 75.1125 62.4484 75.1125C62.6436 75.1125 62.8145 75.0419 62.9609 74.9007C63.8151 74.0537 64.889 73.8184 66.0849 73.7713C66.2474 73.7713 66.4098 73.7687 66.5722 73.7661C66.8977 73.7609 67.2239 73.7556 67.5493 73.7713Z" fill="#2E2B2B"/>
<path d="M99.8882 87.936L98.9607 86.4772L95.5438 81.1595L95.7879 80.7831L99.0095 75.9125L99.9614 74.4301C100.035 74.1713 99.8394 73.9125 99.5465 73.9125H96.6421C96.3981 73.9125 96.154 74.0066 95.9587 74.1713L94.5188 76.4301L93.5181 77.9831L92.5174 76.4301L91.0774 74.1713C90.8822 74.0066 90.6625 73.9125 90.3941 73.9125H87.4897C87.1968 73.9125 87.0016 74.1948 87.0748 74.4301L88.0266 75.9125L91.2483 80.7831L91.4924 81.1595L88.0755 86.4772L87.148 87.936C86.9772 88.2183 87.148 88.5713 87.5141 88.5713H90.3941C90.6381 88.5713 90.8578 88.4772 91.053 88.336L93.5425 84.3831L96.032 88.336C96.2028 88.4772 96.4469 88.5713 96.6909 88.5713H99.5709C99.9126 88.5713 100.108 88.2183 99.937 87.936H99.8882Z" fill="#2E2B2B"/>
<path fill-rule="evenodd" clip-rule="evenodd" d="M83.3446 85.5256C83.6618 85.5151 83.9828 85.5045 84.2928 85.536L84.3905 85.5595C85.0983 85.6536 85.0983 86.6419 85.0983 87.1595C85.0983 87.7713 85.025 88.4536 84.2684 88.5478H77.2638C75.4577 88.3831 74.0665 87.2066 73.5052 85.5595C73.1121 84.3558 73.1133 83.0886 73.1145 81.8382C73.1146 81.7688 73.1147 81.6994 73.1147 81.6301V80.0301C73.0903 79.2301 73.0659 78.4301 73.1879 77.6537V77.489C73.4808 75.7243 75.0184 73.9125 77.0197 73.9125H81.12C83.0725 73.936 84.5613 75.6537 84.903 77.3713V77.6066L84.8542 81.6301C84.8298 82.4301 84.1464 83.0889 83.3166 83.0889H77.1661C76.7268 83.0889 76.3607 83.4419 76.3607 83.8654V84.7125C76.3607 85.136 76.7268 85.4889 77.1661 85.4889H78.6061L82.8773 85.536C83.0309 85.536 83.1873 85.5308 83.3446 85.5256ZM78.4353 76.7831C77.2882 76.7831 76.3607 77.6772 76.3607 78.7831H76.3851V79.5831C76.3851 79.936 76.678 80.2184 77.0441 80.2184H81.4617C81.8278 80.2184 82.1207 79.936 82.1207 79.5831V78.7831C82.1207 77.6772 81.1932 76.7831 80.0461 76.7831H78.4353Z" fill="#2E2B2B"/>
</g>
<defs>
<clipPath id="clip0_8192_2267">
<rect width="160" height="160" fill="white"/>
</clipPath>
</defs>
</svg>
