<svg width="160" height="160" viewBox="0 0 160 160" fill="none" xmlns="http://www.w3.org/2000/svg">
<g clip-path="url(#clip0_8192_2267)">
<rect width="160" height="160" rx="8" fill="#325FFF"/>
<path fill-rule="evenodd" clip-rule="evenodd" d="M99.6428 46.0713V54.8213V128.571H115.059C117.976 128.571 120.476 126.071 120.476 122.738V28.5713C119.504 28.8492 118.531 29.0807 117.559 29.3122L117.559 29.3123C115.614 29.7752 113.67 30.2381 111.726 31.0713C103.809 33.5713 99.6428 37.7379 99.6428 46.0713ZM88.8095 122.738V64.4049V55.6549C88.8095 46.9049 84.6429 43.1549 76.726 40.238C75.2676 39.8214 73.8093 39.5089 72.3508 39.1964C70.8926 38.8839 69.4344 38.5714 67.976 38.1549V128.571H83.3929C86.3095 128.155 88.8095 126.071 88.8095 122.738ZM57.976 64.4049V122.738C57.976 126.071 55.476 128.155 52.5594 128.571H37.1428V38.1549C38.6012 38.5715 40.0596 38.884 41.518 39.1965C42.9763 39.509 44.4345 39.8215 45.8928 40.238C53.8094 43.1549 57.976 46.9049 57.976 55.6549V64.4049Z" fill="white"/>
</g>
<defs>
<clipPath id="clip0_8192_2267">
<rect width="160" height="160" fill="white"/>
</clipPath>
</defs>
</svg>
