<svg width="160" height="160" viewBox="0 0 160 160" fill="none" xmlns="http://www.w3.org/2000/svg">
<g clip-path="url(#clip0_7535_47771)">
<rect width="160" height="160" rx="8" fill="#008CD6"/>
<path d="M90.8956 60.0375C91.1759 46.1595 83.3185 34.0666 79.2262 31.1603C79.2073 31.1417 78.843 30.9455 78.871 31.4875C78.871 31.4969 78.8616 31.4969 78.8616 31.506C78.4599 57.7197 64.9873 64.7755 57.6625 74.3917C41.4056 95.7552 54.9716 120.128 72.5459 124.745C72.8447 124.819 73.6576 125.062 75.1993 125.38C76.0027 125.548 76.2365 124.866 75.6476 123.847C73.5456 120.175 69.8082 114.007 69.0796 106.091C67.379 87.6997 90.5779 76.1955 90.8956 60.0375Z" fill="white"/>
<path d="M99.7625 68.9344C99.6222 68.8316 99.4262 68.841 99.4073 69.0187C99.0336 72.355 95.5862 79.2704 91.0453 85.7373C75.7602 107.54 83.4587 117.427 89.4385 124.287C90.5407 125.558 91.0922 125.278 91.6713 124.371C92.2133 123.511 93.0353 122.418 96.567 120.745C97.1182 120.483 110.46 113.4 111.908 97.2696C113.3 81.6536 103.294 71.7942 99.7625 68.9344Z" fill="white"/>
</g>
<defs>
<clipPath id="clip0_7535_47771">
<rect width="160" height="160" fill="white"/>
</clipPath>
</defs>
</svg>
