<svg width="160" height="160" viewBox="0 0 160 160" fill="none" xmlns="http://www.w3.org/2000/svg">
<rect width="160" height="160" rx="8" fill="#004CAC"/>
<path fill-rule="evenodd" clip-rule="evenodd" d="M65.7143 80V57.1429L51.4286 69.0026L65.7143 80Z" fill="white"/>
<path fill-rule="evenodd" clip-rule="evenodd" d="M48.5714 42.8571V62.8571L65.7143 50.2063V42.8571H48.5714Z" fill="white"/>
<path fill-rule="evenodd" clip-rule="evenodd" d="M80.9281 70.4229L79.0999 68.4152L71.4286 60V84.7548L80 91.4286L88.5714 84.7548V62.8798L82.8605 68.5189L80.9281 70.4229Z" fill="white"/>
<path fill-rule="evenodd" clip-rule="evenodd" d="M71.4286 51.576L81.1341 62.8572L88.5714 55.081V31.4286H71.4286V51.576Z" fill="white"/>
<path fill-rule="evenodd" clip-rule="evenodd" d="M94.2858 80L111.429 67.5159V42.8571L94.2858 58.6785V80Z" fill="white"/>
<path fill-rule="evenodd" clip-rule="evenodd" d="M111.429 22.8571H94.2858V51.4285L100.656 45.0452L98.0173 42.0784L111.429 42.1012V22.8571Z" fill="white"/>
<path d="M113.376 134.286C110.853 134.286 109.041 134.165 107.93 133.932C106.818 133.696 105.892 133.3 105.151 132.727C104.347 132.095 103.766 131.259 103.4 130.215C103.037 129.173 102.857 127.801 102.857 126.103V120.018C102.857 118.138 103.032 116.659 103.39 115.585C103.745 114.511 104.332 113.649 105.154 112.985C105.847 112.446 106.788 112.05 107.976 111.801C109.163 111.552 110.955 111.429 113.348 111.429H120.94C123.334 111.429 125.128 111.544 126.318 111.785C127.516 112.029 128.46 112.425 129.157 112.985C129.936 113.614 130.51 114.469 130.878 115.559C131.246 116.643 131.429 118.039 131.429 119.748V125.964C131.429 127.665 131.251 129.058 130.88 130.142C130.518 131.227 129.942 132.087 129.157 132.727C128.449 133.3 127.505 133.696 126.325 133.932C125.15 134.165 123.351 134.286 120.938 134.286H113.376V134.286ZM115.119 128.699H119.223C121.481 128.699 122.993 128.399 123.747 127.799C124.503 127.191 124.887 126.071 124.887 124.435V121.274C124.887 119.646 124.511 118.534 123.762 117.926C123.016 117.316 121.499 117.01 119.223 117.01H115.091C112.764 117.01 111.237 117.316 110.511 117.926C109.788 118.534 109.425 119.689 109.425 121.397V124.494C109.425 126.093 109.808 127.191 110.569 127.796C111.33 128.396 112.845 128.699 115.119 128.699Z" fill="white"/>
<path d="M100 116.994H81.4659V121.083H98.9283V126.613H81.4659V134.286H74.2858V111.429H100V116.994Z" fill="white"/>
<path d="M71.4286 134.286H61.0277L47.0883 117.655V134.286H40V111.429H50.5097L64.357 128.185V111.429H71.4286V134.286Z" fill="white"/>
<path d="M34.2857 111.429H28.5714V117.143H34.2857V111.429Z" fill="white"/>
<path d="M34.2857 120H28.5714V134.286H34.2857V120Z" fill="white"/>
</svg>
