<svg width="160" height="160" viewBox="0 0 160 160" fill="none" xmlns="http://www.w3.org/2000/svg">
<rect width="160" height="160" rx="8" fill="#E95A0C"/>
<path fill-rule="evenodd" clip-rule="evenodd" d="M36.0203 43.6329C36.6239 43.9036 37.2632 44.1166 37.8337 44.273C29.6456 53.9222 24.6791 66.3845 24.6791 80.0002C24.6791 110.51 49.4918 135.32 79.9998 135.32C93.3165 135.32 105.548 130.592 115.101 122.725C115.827 122.983 116.536 123.178 117.202 123.285C107.195 131.899 94.2094 137.143 79.9998 137.143C48.4857 137.143 22.8572 111.512 22.8572 80.0002C22.8572 66.1812 27.8148 53.5182 36.0203 43.6329ZM89.8757 41.4195C100.559 45.7168 107.469 52.9061 110.542 61.6419C111.415 64.3995 111.706 67.0244 111.743 69.1781L111.742 70.2141L111.708 71.1622L111.65 72.0129L111.537 73.086L111.422 73.8871L111.309 74.5319C111.299 74.605 111.353 74.5913 111.457 74.5308L111.903 74.2491C112.407 73.9452 113.164 73.5934 113.906 73.9535C115.154 74.5571 117.023 76.1948 116.559 79.114L116.371 79.0439L116.177 78.9977C116.186 78.5241 115.665 78.0716 115.316 77.8226L115.011 77.6245L114.704 77.512C113.812 77.2167 112.007 76.9146 110.016 78.8321L108.77 80.03C107.262 81.4995 106.393 82.5115 106.507 83.7049C106.654 85.2029 109.104 86.2612 110.498 85.829L111.189 85.6112C111.661 85.4543 111.912 85.3368 112.232 85.0918L112.666 84.726L112.942 84.4772C113.128 84.3123 113.356 84.0366 113.604 83.6944L113.573 83.6663C113.627 83.6906 113.682 83.7125 113.733 83.7125C113.891 83.7125 114.019 83.6906 114.131 83.6605L113.422 84.9123C113.835 84.8027 114.243 84.6622 114.642 84.516L115.81 84.0852C116.377 83.8864 116.914 83.7313 117.409 83.7049L118.187 83.6396C119.286 83.5695 121.02 83.6759 123.075 85.5891L123.504 85.5258C124.091 85.4658 125.147 85.4558 125.813 86.0248L126.247 86.4171C126.901 87.0544 127.525 87.9336 127.525 89.3596C126.246 87.4096 125.144 86.834 124.529 86.67L124.28 86.62L124.007 86.6127L123.727 87.3341L123.468 87.8894C123.169 88.4819 122.753 89.152 122.242 89.5976C122.101 89.7211 121.941 89.8391 121.77 89.9562L120.949 90.4929C120.007 91.117 119.059 91.8915 119.025 93.3913C119.014 93.948 119.263 94.5219 119.771 95.0498C120.747 96.0621 122.416 96.6154 124.097 96.6154L124.377 96.5841L124.887 96.5018L125.464 96.3863L125.804 96.2997C125.855 96.2849 125.902 96.2701 125.943 96.2554L125.555 96.473C125.282 96.6093 124.748 96.8171 124.002 96.8384C123.682 97.2592 122.933 97.7532 121.588 97.5123L121.236 97.8529L120.725 98.3796L120.153 99.0051L119.687 99.5535C119.328 99.9988 119.06 100.395 119.044 100.6C119.009 100.992 119.147 101.27 119.329 101.555L119.617 102.002L119.868 102.454L120.275 103.288L120.579 104.009C121.135 105.429 121.628 107.342 121.155 108.952C120.84 110.012 120.364 111.04 119.73 112.039C122.974 115.175 122.254 120.13 121.637 120.881C120.914 121.75 119.137 122.28 116.447 120.976C115.515 120.527 113.418 119.282 112.399 118.502C109.813 119.958 106.04 121.16 102.752 122.033C103.393 119.687 102.729 117.43 102.078 115.996L101.783 115.396L101.518 114.928L101.243 114.51C99.6215 114.625 97.1607 113.531 94.9389 112.289L93.9343 111.709L92.5427 110.85L91.3599 110.075L90.4655 109.46L89.8317 109.007L89.5831 109.523L89.2501 110.288L88.9862 110.957L88.8479 111.333L88.5691 112.16L88.3011 113.072C87.616 115.606 87.2248 118.894 88.5494 121.632L88.7078 121.941C89.2869 122.908 89.9157 123.939 90.9003 124.921C87.4328 125.751 83.8132 126.19 80.0902 126.19C54.5699 126.19 33.8806 105.548 33.8806 80.0861C33.8806 77.2176 34.1429 74.412 34.6449 71.6888C35.0732 71.5745 35.5922 71.9083 36.1109 72.3205L37.0246 73.0676C37.316 73.2916 37.5876 73.4641 37.8197 73.5053C37.4873 75.6502 37.3148 77.8477 37.3148 80.0861C37.3148 100.121 51.1556 116.923 69.815 121.516L69.2304 121.143L68.6485 120.735L68.0716 120.295L67.5019 119.822L66.8033 119.187L66.1239 118.504L65.8585 118.218L65.0877 117.319L64.598 116.685L64.3612 116.359L63.9051 115.686C63.7572 115.458 63.6135 115.225 63.4743 114.989L63.0711 114.268L62.8805 113.899L62.5228 113.145C62.409 112.89 62.3007 112.631 62.1983 112.369L61.9092 111.573C59.2934 103.781 61.9624 93.2738 79.1008 83.9559L80.0003 83.475C96.7679 74.6574 99.7039 63.8195 98.0569 55.2998L97.8595 54.3798L97.6284 53.4794L97.3662 52.5999L97.0757 51.7426L96.9207 51.3226L96.5072 50.2993L96.0608 49.316L95.6836 48.5598L95.0904 47.4791L94.6807 46.7962L94.2626 46.1449L93.8388 45.5263L93.412 44.9418L92.9848 44.3926L92.56 43.8799L92.1402 43.405L91.7281 42.9692L91.3263 42.5737L90.9374 42.2197L90.5643 41.9085L90.2095 41.6413L89.8757 41.4195ZM90.6625 111.852L91.5359 112.339L92.1554 112.664L92.9016 113.036L93.7522 113.435L94.6847 113.841L95.6766 114.234C97.367 114.865 99.2116 115.356 100.743 115.283C103.82 121.315 100.612 124.568 98.1538 125.368C95.9438 126.094 91.2384 125.319 89.5565 121.22C88.5224 118.693 89.1255 115.819 89.7758 113.927L90.0188 113.266L90.2476 112.712L90.5234 112.117L90.6625 111.852ZM93.2558 115.429L92.987 115.879L92.7332 116.362C92.3781 117.088 92.0051 118.088 92.1982 118.807L92.371 119.433L92.5322 119.925C93.0268 121.285 94.0877 122.962 96.9061 122.812C100.6 122.618 99.9782 118.947 99.0161 118.999L98.7961 119.002L98.2185 118.981L97.3387 118.903L96.4256 118.774L95.848 118.655C95.3169 118.525 94.9513 118.363 94.9862 118.176C95.0168 118.006 95.464 117.901 96.0601 117.821L96.6958 117.749L98.231 117.601L98.7677 117.526C99.0793 117.47 99.2851 117.401 99.3058 117.307C99.3301 117.196 99.1713 117.082 98.9096 116.966L98.4499 116.79L96.7457 116.262C96.4282 116.157 96.1572 116.054 95.9911 115.954L95.6254 115.737L95.1755 115.49L94.7318 115.278C94.0593 114.988 93.3944 114.861 93.2558 115.429ZM70.3263 112.228L70.2244 112.615C69.8322 114.46 70.1447 118.348 73.6761 120.59C80.1183 124.681 85.7324 120.711 83.0404 119.31C82.5359 119.047 81.9041 118.84 81.1954 118.65L80.3113 118.428L78.3996 117.973L77.4108 117.709C74.7706 116.955 72.1723 115.732 71.2725 112.752L71.1241 112.172C70.9398 111.301 70.5691 111.474 70.3263 112.228ZM119.719 114.549L119.35 115.151C119.124 115.504 118.849 115.851 118.467 116.008C118.186 116.121 119.103 117.533 119.842 118.146C120.188 118.428 120.99 118.113 121.188 117.533C121.415 116.855 121.138 114.893 120.45 114.266C120.156 113.996 119.947 114.197 119.719 114.549ZM79.9998 22.8571C111.508 22.8571 137.143 48.4869 137.143 80.0002C137.143 94.0074 132.057 106.834 123.663 116.786L123.506 115.48L123.335 114.286C130.815 104.85 135.318 92.9489 135.318 80.0002C135.318 49.4965 110.501 24.6786 79.9998 24.6786C78.2112 24.6786 76.4413 24.7817 74.6911 24.9515C74.0605 24.448 73.2081 23.9109 72.369 23.4252C74.8701 23.0915 77.4058 22.8571 79.9998 22.8571ZM60.9416 33.9996C59.115 35.0918 57.7764 36.1726 58.027 38.9456C58.1824 40.642 59.4233 42.616 62.3866 42.8301L62.9275 42.8492C63.4732 42.8492 64.0576 42.7938 64.6759 42.6916C65.1132 42.6119 65.5384 42.5163 65.9587 42.4027C66.2576 42.6194 66.607 42.8464 67.0124 43.0896L67.4366 43.3384C69.9668 44.8195 73.0168 45.234 77.3717 42.1929L77.9944 41.7519L79.1408 40.8975C80.5766 39.7847 81.6292 38.7842 82.1503 37.9659L82.4977 38.0683L83.1891 38.3113C84.9105 38.9816 86.5717 40.117 88.026 41.6051L88.5963 42.2189C95.2061 49.6986 96.7401 64.7471 77.6299 75.4608L76.8101 75.9109C60.5889 84.6328 56.7291 94.3227 57.0574 102.072L57.1148 102.974L57.208 103.858L57.3338 104.721L57.4895 105.564L57.6719 106.384L57.8782 107.181L57.9894 107.571L58.2259 108.331L58.4789 109.066L58.7455 109.774L59.0225 110.454L59.4514 111.419L59.8874 112.316L60.3205 113.14L61.0088 114.343L62.3525 116.453L61.7879 116.112L61.1856 115.713L60.5495 115.255L59.8837 114.741L59.1922 114.172L58.4789 113.55L57.3773 112.519L56.6274 111.77L55.87 110.972L55.1089 110.128L54.3483 109.238L53.5922 108.305L52.6594 107.08L51.7478 105.791L51.3908 105.259L50.6927 104.166C45.3155 95.4632 42.2002 83.4343 50.048 71.3332C48.6462 71.881 46.7581 72.4743 44.9 72.5089C41.1226 72.5707 37.986 72.1189 36.3822 69.931C34.5264 69.6758 31.7695 68.7656 31.5181 64.714C31.2623 60.5948 35.1661 58.9872 36 58.8588L36.478 58.321C36.7469 58.0386 37.0764 57.7646 37.4076 57.7646L37.4512 57.7067L37.5775 57.4724L37.8452 56.8844L39.0324 54.0445L39.3909 53.2595C39.0083 52.9398 38.242 51.9086 38.1726 51.1351C38.1125 50.3655 38.3666 49.0128 39.3909 47.7199L40.3364 46.5257C40.9016 45.7933 41.3146 45.1949 41.4442 44.7679C41.4785 44.6495 41.4939 44.4718 41.4999 44.255L41.5015 42.6433C41.5195 41.9091 41.5992 41.18 41.8904 40.7688L42.3478 40.0623L42.5453 39.7935L42.7934 39.503L43.1091 39.1878L43.5091 38.8451L43.746 38.6624L44.3043 38.2726C45.1293 37.7302 46.2919 37.0942 47.9721 36.3328C52.05 34.4795 57.7594 33.2918 60.9416 33.9996ZM112.197 106.502L111.886 106.869L111.734 107.071L111.074 108.009C110.843 108.328 110.595 108.64 110.31 108.913C109.554 109.632 108.667 110.155 107.831 110.556L107.216 110.835L106.637 111.075L105.456 111.552L105.136 111.711C104.69 111.967 104.711 112.193 105.552 112.531C106.996 113.106 109.588 112.963 111.32 112.383C113.046 111.806 117.318 108.055 114.919 106.445C113.6 105.562 112.836 105.829 112.197 106.502ZM110.467 100.317L110.418 100.32L109.888 100.592C109.424 100.817 108.729 101.097 107.726 101.23L107.198 101.283C104.996 101.438 103.95 102.067 103.386 102.631C102.84 103.175 102.661 104.259 103.1 105.044C103.561 105.866 105.322 106.249 107.418 105.652C111.138 104.591 110.867 100.457 110.467 100.317ZM107.463 102.355C107.864 102.593 108.103 103.239 107.62 103.239C107.142 103.239 106.305 103.881 107.344 104.568C107.618 104.749 105.422 104.764 105.342 103.36C105.258 101.948 107.064 102.109 107.463 102.355ZM98.4668 74.2845L97.8747 75.1158L97.1527 76.0941C95.5785 78.1756 93.2229 80.9399 90.0771 83.1908L89.2741 83.7422C74.3384 93.5706 86.6748 105.426 92.8619 97.5257C94.1021 95.9419 94.0143 94.7951 93.6472 93.5487L93.1863 92.1237C92.7547 90.7339 92.4251 89.0494 93.2462 86.5335C93.5079 85.7314 93.9682 84.7754 94.5111 83.7464L95.1949 82.4818L96.2721 80.5217L96.8578 79.417C97.8941 77.4085 98.6796 75.5233 98.4668 74.2845ZM117.955 99.1239C118.066 99.8372 118.407 100.198 118.594 99.9959L118.656 99.8933C118.816 99.5083 119.69 98.6235 119.938 98.4498L120.296 98.2053C120.455 98.088 120.572 97.9638 120.608 97.7692C120.627 97.6725 120.575 97.6429 120.464 97.6323L119.971 97.6096C119.758 97.5891 119.5 97.5396 119.212 97.4131L118.914 97.2592C117.889 96.6442 117.823 98.3186 117.955 99.1239ZM117.955 95.4248C117.808 95.7389 118.527 96.6228 119.235 96.9378C120.035 97.2873 121.604 97.3512 122.083 97.2592L122.527 97.157C122.704 97.101 122.78 97.029 122.517 96.9245L122.094 96.7991L121.346 96.6442C120.501 96.4885 120.128 96.1956 119.876 95.9018L119.542 95.4775L119.425 95.3534C119.009 94.971 118.276 94.7141 117.955 95.4248ZM124.613 87.4216C127.3 88.4362 128.886 91.3835 128.934 92.6902C128.967 93.575 128.02 95.5833 125.094 96.0641C122.163 96.5507 119.7 94.7619 119.75 93.3623C119.777 92.594 120.625 91.9067 121.482 91.3515L122.763 90.5676C122.939 90.4564 123.08 90.3579 123.168 90.2732C123.927 89.546 124.663 88.1013 124.613 87.4216ZM122.532 93.5206C122.377 93.879 122.82 94.7141 123.556 94.7478L123.821 94.7642L124.25 94.8154L124.414 94.8169L124.742 94.7788C125.197 94.7043 125.525 94.6857 125.863 94.7099L126.209 94.7478C126.692 94.8134 127.717 94.55 126.916 94.2931L126.609 94.2023L125.876 94.0274C125.793 94.0012 125.718 93.9676 125.636 93.9134L124.925 93.3863C124.629 93.1765 124.309 92.9757 124.068 92.9134C123.59 92.7793 122.879 92.7183 122.532 93.5206ZM114.048 92.2038C114.453 94.417 117.452 94.7619 118.401 92.0105C118.634 91.3326 119.511 90.6992 120.087 90.3438L120.313 90.2092L120.608 90.0478C123.108 88.6967 113.289 88.0525 114.048 92.2038ZM125.379 90.4038C124.866 90.371 124.452 90.596 124.452 90.8866C124.452 91.1249 124.739 91.255 124.947 91.2358L125.06 91.206C125.117 91.1777 125.199 91.2074 125.291 91.256L125.586 91.4194C125.735 91.4904 125.875 91.5161 125.959 91.3645C126.151 91.0121 125.891 90.4357 125.379 90.4038ZM98.7369 84.4315C98.038 86.9455 97.6962 90.5462 98.5279 91.1471C99.3576 91.7406 101.153 90.6098 101.055 88.99L100.977 87.8702L100.953 87.1956C100.928 85.5268 101.182 83.1832 102.758 79.9033C103.635 78.0791 105.176 76.9211 106.514 76.0994L107.218 75.6826L108.13 75.1564C108.66 74.8378 109.013 74.5746 109.045 74.3133C107.266 74.0669 100.839 76.8698 98.7369 84.4315ZM103.865 86.1214C103.772 87.7594 106.073 89.3453 107.951 89.5027C110.167 89.6902 111.74 88.2955 112.368 87.2321C112.611 86.8196 112.542 86.7086 112.294 86.7487L112.04 86.8166L111.672 86.9552L111.013 87.2235L110.422 87.4378L110.304 87.4741C108.237 88.0836 107.01 86.9819 106.273 86.0298L105.836 85.4174L105.619 85.1034C105.555 85.0169 105.5 84.951 105.452 84.9123C104.97 84.5288 103.953 84.6187 103.865 86.1214ZM107.902 82.2348C108.038 82.2348 108.262 82.8618 108.262 83.1995C108.262 83.4927 108.156 83.6723 107.779 83.7024L107.567 83.7049C107.22 83.6914 107.193 83.8086 107.222 83.9566L107.266 84.1424L107.276 84.2344C107.276 84.4772 106.869 84.3076 106.817 84.0685L106.702 83.3674L107.211 82.8011L107.536 82.4794L107.751 82.3036C107.814 82.2603 107.866 82.2348 107.902 82.2348ZM83.7518 34.1243C107.561 35.9871 126.3 55.8523 126.3 80.0861L126.278 81.0941L126.111 84.2933C125.805 83.9886 125.379 83.8942 124.91 83.8227L124.183 83.7091C123.69 83.6136 123.192 83.4471 122.767 83.0223L122.847 81.0385L122.867 80.0861C122.867 57.2829 104.943 38.6587 82.3855 37.4681C82.9049 36.6902 83.3853 35.3719 83.7518 34.1243ZM113.409 75.308L112.973 75.3149C112.237 75.3586 111.148 75.5806 110.016 76.3674C107.996 77.7687 106.22 79.9926 105.837 81.4848C105.571 82.5178 105.693 83.6562 106.077 84.1399C105.98 83.1752 106.314 81.8692 106.799 81.1962L106.908 81.0507L107.447 80.4255L108.121 79.7138C108.983 78.8359 110.054 77.8539 110.782 77.4256C111.903 76.7804 113.303 76.5191 113.954 76.6852L114.141 76.7564C114.673 77.0462 115.488 75.789 113.906 75.3549L113.719 75.3284L113.409 75.308ZM115.104 82.5129L115.319 83.1292C115.477 83.573 115.356 83.5681 115.162 83.472L114.844 83.3041C114.772 83.2714 114.705 83.2484 114.648 83.2484L114.429 83.2786L114.004 83.4111C113.924 83.4292 113.835 83.4413 113.733 83.4413C113.531 83.4413 113.629 83.1225 113.792 82.7848L114.003 82.3896L114.215 82.0454L114.237 82.0145C114.634 81.5104 114.883 81.9259 115.104 82.5129ZM116.306 79.3158C116.711 79.4131 117.721 80.1828 118.034 80.6638L118.407 81.275L118.644 81.7124C118.866 82.1505 119.013 82.5583 118.849 82.6455C118.764 82.6905 118.677 82.6497 118.569 82.5606L118.165 82.1865C117.885 81.9402 117.495 81.6645 116.906 81.5337L116.633 81.4807L116.126 81.4172L115.685 81.3767C115.083 81.3129 114.769 81.1911 115.032 80.4004C115.092 80.2167 115.823 79.1937 116.306 79.3158ZM109.548 80.4439L109.677 80.4482C109.874 80.5138 110.613 81.3424 110.422 81.6826C110.38 81.7742 110.193 81.7827 109.963 81.768L109.474 81.7257C109.312 81.7132 109.16 81.7082 109.05 81.7285L108.675 81.8171L108.311 81.9201L108.295 81.8175C108.272 81.6276 108.265 81.2207 108.571 81.0049C108.845 80.8117 109.149 80.5962 109.385 80.4956L109.548 80.4439ZM113.402 78.8805C114.358 79.9127 114.457 81.2419 114.332 81.2926C114.306 81.3037 114.221 81.2681 114.1 81.2043L113.656 80.9464L112.559 80.2821C112.198 80.0957 111.431 79.8705 111.116 79.8904C110.806 79.9127 110.447 79.7984 110.447 79.5069C110.447 79.2406 110.877 78.635 111.167 78.4448L111.446 78.2724C111.843 78.0681 112.519 77.9252 113.402 78.8805ZM112.081 79.6053L113.53 80.4523L113.906 80.6638C113.957 80.4705 113.329 79.3607 112.776 79.0747C112.466 78.9098 111.696 79.1676 112.081 79.6053ZM80.7386 45.9657C79.1463 46.8756 78.7703 48.1712 78.6849 49.8437L78.6621 50.7113L78.6621 52.2834C78.6522 54.4033 78.5095 56.9406 77.1389 59.8849C76.7577 60.7038 76.0207 61.7731 75.0678 62.9954L74.2014 64.0782L73.2489 65.2222L71.7014 67.0233L67.8828 71.3793L66.2874 73.2351L65.1805 74.5661L64.5016 75.4132L63.5935 76.6082L63.0742 77.3457L62.8436 77.6944L62.4462 78.3479C61.7994 79.4896 61.617 80.3109 62.14 80.6437C62.9455 79.6655 64.3696 78.6563 66.1509 77.5561L67.3885 76.8085L71.5646 74.3649L72.3056 73.9231L73.8067 73.0057L74.4815 72.5806L75.8318 71.7001C81.4468 67.9438 86.8173 63.0696 87.9581 56.1653C89.4116 47.369 84.0985 44.0458 80.7386 45.9657ZM114.024 77.8342L114.198 77.9535C114.223 77.9664 114.244 77.9714 114.262 77.962C114.358 77.9113 114.481 77.8663 114.767 77.962C114.882 77.9999 114.955 78.0499 115.008 78.0962L115.125 78.2087L115.177 78.2272L115.423 78.2411L115.583 78.2741C115.667 78.299 115.709 78.3417 115.745 78.411L115.875 78.7082C115.937 78.8474 115.875 78.9125 115.791 78.9523L115.6 79.0268C115.536 79.1451 115.413 79.221 115.295 79.0439L115.011 78.6857L114.898 78.7616C114.835 78.7948 114.756 78.8185 114.695 78.7805L114.559 78.6782L114.314 78.4663L114.245 78.4652L114.06 78.5527C114.026 78.5645 113.992 78.5706 113.957 78.5647C113.868 78.5506 113.728 78.4077 113.631 78.2956L113.519 78.1598C113.532 78.097 113.557 78.0536 113.602 78.0077L113.808 77.8401C113.884 77.7825 113.958 77.7979 114.024 77.8342ZM47.2562 63.0009L47.3009 63.1412C47.8759 64.7488 46.5956 65.5586 45.5686 65.5586L45.2267 65.5382L44.8679 65.4895L44.388 65.4128C43.6814 65.3069 43.0726 65.2924 43.0726 66.0414C43.0726 67.1635 46.2445 67.9678 47.7779 66.8093C49.6947 65.3626 49.473 63.5254 48.2594 62.1753C47.1147 60.9022 47.0357 62.2158 47.2562 63.0009ZM35.2324 59.891C33.1174 60.7271 32.0891 63.0445 32.2226 64.5903C32.3 65.4935 33.4091 65.3631 34.4344 65.0225L34.9349 64.8385L35.1703 64.7405L35.8436 64.418L36 64.3305C36.7692 63.8796 37.7244 63.6249 38.8813 63.8796C40.0315 64.1376 41.3322 62.7631 41.7612 62.0142C42.8985 60.0134 41.8631 59.2297 40.8537 58.8998L40.4806 58.7959C39.3909 58.5381 37.3453 59.0528 35.2324 59.891ZM64.1553 47.6309L63.4016 47.7199C61.6738 47.9796 60.9252 48.9469 60.3828 50.0017L60.0433 50.711C59.663 51.5378 59.3036 52.3343 58.6014 52.8086C57.5768 53.5008 56.4386 53.8527 54.9032 53.7164L54.3083 53.6421C52.4404 53.3456 52.7666 54.4967 53.6717 55.2552C53.8843 55.4339 53.9436 55.7245 53.9702 56.1064L54.0091 56.8882C54.0712 57.8565 54.2927 59.1407 55.6395 60.576C58.9739 64.1292 67.8534 58.1052 68.7735 52.4662C69.4235 48.4822 67.2297 47.3672 64.1553 47.6309ZM43.6424 53.2636L43.1063 53.324L42.0637 53.5239L41.4658 53.6767C40.546 53.9527 40.0336 54.3521 40.2869 55.124C40.498 55.7492 42.7862 55.8983 44.3851 55.709L45.8019 55.5117C46.6419 55.4053 47.311 55.4037 48.0369 55.8336C48.2047 55.9328 48.3844 56.0565 48.5715 56.193L49.7452 57.0745C50.4383 57.5715 51.1085 57.9445 51.5583 57.7001C52.3875 57.251 52.2657 55.5778 50.4708 54.5465C49.2554 53.8513 48.4681 53.792 47.8636 53.8492L47.0634 53.9574L46.8846 53.9662C46.7313 53.9662 46.5624 53.9276 46.3755 53.8684L45.404 53.5242C44.9107 53.3635 44.3301 53.2286 43.6424 53.2636ZM54.213 48.3407C52.3061 49.8941 51.5851 51.015 52.1565 51.7023C52.7241 52.3885 55.5134 52.0322 56.1237 51.8664C58.3253 51.2673 59.4862 48.7916 58.402 47.4304C57.7969 46.6702 56.3206 46.6177 54.213 48.3407ZM43.6188 46.1143C42.2096 46.628 39.2 48.9454 40.159 50.297C40.7398 51.1126 42.6612 51.5878 43.1063 51.0697C43.241 50.9166 43.3006 50.6526 43.3388 50.3303L43.4426 49.2404C43.5079 48.7248 43.6305 48.1987 43.9378 47.7867C44.7078 46.7583 45.0266 45.6014 43.6188 46.1143ZM56.3607 49.2331C56.8708 50.3309 56.0398 50.9758 55.4636 50.9758C55.0719 50.9758 54.2478 50.6543 54.3761 50.2005C54.3929 50.1389 54.452 50.1142 54.5324 50.1048L54.9687 50.0903C55.1644 50.0636 55.3206 49.9659 55.2706 49.6222C55.2469 49.4541 55.1056 49.3944 54.9383 49.3684L54.5961 49.3393C54.4347 49.3252 54.3083 49.2949 54.3083 49.174C54.3083 48.7081 55.779 48.0041 56.3607 49.2331ZM51.5881 36.7331L50.9067 37.0214L50.1503 37.3623L47.9306 38.1853L46.8981 38.5917C45.8559 39.0182 44.8325 39.4952 44.2565 39.9355C42.9141 40.9657 45.8581 42.2509 47.3933 41.7983C48.4928 41.4775 48.7077 41.5834 48.9281 42.1398L49.2523 43.0253C49.7641 44.3105 52.0036 46.5641 51.8741 44.9592C51.7505 43.3431 52.1947 40.3228 52.7107 39.2277C52.8201 38.9927 52.9884 38.7697 53.1771 38.5567L53.9499 37.7534C54.358 37.3105 54.5984 36.9081 54.1826 36.5212C53.6701 36.0472 52.5514 36.3526 51.5881 36.7331ZM80.4333 35.8154C81.0063 36.2016 79.8563 38.5172 76.2096 41.5123C72.557 44.5065 70.4465 43.9253 68.2395 42.5746C67.6284 42.2041 67.1418 41.8706 66.7654 41.5713C68.1163 41.0791 69.3547 40.3592 70.4663 39.4132C71.2793 38.7235 72.0268 37.9152 72.7061 36.9956L73.3979 36.7684L74.0063 36.5978C74.2826 36.5299 74.5117 36.4904 74.6699 36.4904L75.3491 36.4756L76.0249 36.415L77.4569 36.2016C77.7559 36.1593 78.0405 36.0978 78.3086 36.032L79.0618 35.836C79.6449 35.6865 80.1127 35.6024 80.4333 35.8154ZM46.5945 26.5028L47.0631 26.5135C47.254 26.5291 47.3734 26.5608 47.3933 26.6125C47.4025 26.6354 47.3614 26.6736 47.2773 26.7262L46.9036 26.9261L44.678 27.9831L43.7152 28.4682L43.2729 28.7023L42.382 29.2019L41.5085 29.7399C39.6573 30.9442 38.1476 32.3898 38.3998 33.8862C38.6286 35.2465 40.271 36.6507 43.2132 37.7054C42.3845 38.3035 41.92 38.8049 41.5987 39.238L41.317 39.6494L41.1967 39.84C41.1246 39.9552 41.0657 40.0489 41.0005 40.138C40.4107 40.9695 40.3962 42.2436 40.4099 43.3938C37.1831 42.2398 32.7996 39.8822 32.7996 36.2016C32.7996 31.9921 36.4095 28.6165 41.5816 27.2196L42.5375 26.9791L42.7392 26.9368L43.4605 26.8106L44.2945 26.6935L45.1623 26.596L45.9851 26.5286L46.5945 26.5028ZM77.369 38.2531L77.2073 38.2871L74.1172 39.3167L73.4768 39.5169C72.8093 39.7117 72.3959 39.7728 71.9703 39.714L71.7864 39.6815C71.6069 39.6407 71.5814 39.6586 71.6205 39.7256L71.7926 39.9758C72.0485 40.3942 72.2423 41.1856 69.9607 42.0909L70.343 42.1047L70.7764 42.0934C71.8584 42.0353 73.7997 41.7134 75.2451 40.2581L75.9884 39.5452L76.6087 38.9967L77.2806 38.4261L77.3944 38.3112C77.4264 38.2693 77.4197 38.2504 77.369 38.2531ZM67.1929 23.3502C75.771 24.9 75.6331 30.5386 73.7757 34.2058C71.9165 37.8741 68.9735 40.8373 64.4884 41.6108C61.1295 42.1915 59.8592 40.9119 59.3787 39.8075L59.2459 39.4486C59.2102 39.333 59.1825 39.2224 59.161 39.1195L59.1132 38.8369C58.8599 36.8722 59.936 35.9602 61.9676 34.6969L63.4016 33.8226C66.344 32.0188 67.6621 29.9471 67.1152 28.2165C66.3584 25.822 63.0687 25.1956 60.1316 25.0569L58.6255 25.0219L57.705 25.0284L55.9019 25.0575L55.4539 25.0414C55.2771 25.0258 55.1748 24.9972 55.1628 24.9486C55.1628 24.9225 55.2168 24.8724 55.3213 24.8048L55.5969 24.6481L56.0011 24.4563L56.2496 24.3509L56.8355 24.1282L57.5348 23.8995L58.3413 23.6763C60.4868 23.1349 63.5807 22.7542 67.1929 23.3502ZM38.3507 31.0326C37.8197 31.3446 36.0891 32.9036 36.2114 34.817C36.307 36.3468 37.2995 37.4094 37.9219 37.9019L38.4906 38.3094L39.1136 38.7391L39.5452 39.0204C39.893 39.2346 40.0073 39.258 40.0489 39.1859L40.0721 39.0854L40.0826 38.9424C40.1064 38.7064 40.2075 38.3982 40.9281 38.3389L41.192 38.3288C41.638 38.3288 41.4744 38.1492 41.0365 37.8879L40.446 37.5648L39.7302 37.2038L39.3807 36.9914C38.8379 36.6338 37.9132 35.9263 37.5632 35.2286C36.9367 33.9719 37.2553 33.0001 37.8086 31.9767L38.3507 31.0326ZM66.3751 25.7886C70.6951 29.6208 66.7317 33.6951 65.7349 33.275L65.5462 33.458L63.8845 34.7419L63.2172 35.2793L62.9654 35.4928L62.5144 35.9034C62.0405 36.3633 61.7754 36.7426 61.9958 36.8924C62.7115 36.5173 62.8529 36.7099 62.9 37.0042L62.9411 37.3706L62.9735 37.509C63.0613 37.7652 63.3117 37.8733 64.165 37.4059L64.7807 37.035L65.5774 36.491L66.361 35.9156C66.528 35.7899 66.722 35.6434 66.932 35.4775L67.5991 34.9226C68.6392 34.0066 69.7831 32.7235 70.0384 31.1938C70.3694 29.2138 68.8815 27.7044 67.6847 26.7622L67.1204 26.3389L66.493 25.887L66.3751 25.7886ZM61.5612 25.9656C62.2737 26.2752 63.0054 26.7036 63.6621 27.146C57.025 29.2054 50.9391 32.4996 45.6235 36.7333C44.8279 36.7708 43.9181 36.6302 43.1409 36.4444C48.5299 31.8978 54.7525 28.2962 61.5612 25.9656Z" fill="white"/>
</svg>
