<svg width="160" height="160" viewBox="0 0 160 160" fill="none" xmlns="http://www.w3.org/2000/svg">
<rect width="160" height="160" rx="8" fill="#17181E"/>
<path d="M20 80L33.5483 66.4517L47.0969 80L33.5483 93.5483L20 80Z" fill="#F0B90B"/>
<path d="M43.2258 56.7743L80.0001 20L116.774 56.7743L103.226 70.3226L80.0001 47.0969L56.7744 70.3226L43.2258 56.7743Z" fill="#F0B90B"/>
<path d="M66.4517 80L79.9999 66.4517L93.5482 80L79.9999 93.5483L66.4517 80Z" fill="#F0B90B"/>
<path d="M56.7744 89.6774L43.2258 103.226L80.0001 140L116.774 103.226L103.226 89.6774L80.0001 112.903L56.7744 89.6774Z" fill="#F0B90B"/>
<path d="M112.903 80L126.452 66.4517L140 80L126.452 93.5483L112.903 80Z" fill="#F0B90B"/>
</svg>
