<!-- by TradingView --><svg width="18" height="18" viewBox="0 0 18 18" xmlns="http://www.w3.org/2000/svg"><path fill="#C5E7F1" d="M0 0h18v18H0z"/><path d="M7.86 4.29a1.35 1.35 0 0 0-.6.4l-.24.38-.02.05c-.01.16-.05.3-.11.42a.3.3 0 0 0-.04.14l-.02 1.1.01.11c.07.18.1.28.1.32l-.05.71a.6.6 0 0 1-.02-.3c0-.03 0-.06-.02-.1l-.03-.05a.24.24 0 0 1-.04-.12c0-.4.03-.88-.1-1.3A.05.05 0 0 0 6.67 6a.05.05 0 0 0-.05 0l-.17.1a.03.03 0 0 1-.05 0V6.01c.08-.06.15-.1.21-.1a.1.1 0 0 0 .06-.06.09.09 0 0 0 0-.08l-.04-.06a.12.12 0 0 1-.01-.1l.22-.88.03-.03a.03.03 0 0 1 .03-.01.03.03 0 0 1 .02.02v.05l-.14.54a.03.03 0 0 0 .01.04.03.03 0 0 0 .04-.01v-.1l.03-.09c.1-.23.2-.4.28-.53.2-.3.42-.34.67-.48l.02-.02v-.03l-.02-.01h-.03l-.64.27c-.12.05-.23.12-.33.2-.03.04-.06.04-.08.03a.04.04 0 0 1-.03-.02.04.04 0 0 1 .01-.04l.08-.08c.3-.22.61-.36.96-.44.04 0 .08 0 .11.02s.06.06.06.1c.01.04 0 .1-.05.17Z" fill="#869090"/><path d="M7.86 4.29c.14.04.16.12.06.25a.17.17 0 0 1-.06.05c-.8.41-1.02 1.19-.84 2.01a.74.74 0 0 0 .03.45 7 7 0 0 0 .05.52c.01.06.07.07.19 0 .1.1.12.25.07.46a.04.04 0 0 1-.04.03l-.03-.01-.12-.2h-.01a.03.03 0 0 0-.04 0v.02c-.01.08 0 .17.03.27 0 .02-.01.04-.05.06a.46.46 0 0 1-.21-.28l.05-.7c0-.05-.03-.15-.1-.33a.29.29 0 0 1-.01-.11l.02-1.1c0-.05.01-.1.04-.14.06-.12.1-.26.11-.42l.02-.05.24-.38.01-.02c.18-.19.37-.31.6-.38Z" fill="#4B4E4B"/><path d="M7.13 4.35c.02.14-.03.2-.14.2a.04.04 0 0 0-.05.04l-.02.18v-.05a.03.03 0 0 0-.03-.02.03.03 0 0 0-.03.01l-.03.03c.02-.01.02-.02 0-.04h-.05c-.3.3-.56.64-.74 1.04-.01.02 0 .06.01.12l.02.02a.04.04 0 0 0 .05-.01l.01-.03V5.75a.03.03 0 0 1 .05 0h.01c.06.2.13.28.2.27v.07a.03.03 0 0 0 .01.03.03.03 0 0 0 .04 0l.17-.1a.05.05 0 0 1 .07 0v.02c.13.43.1.9.1 1.31 0 .04.02.09.04.12l.03.06c.02.03.02.06.02.1a.6.6 0 0 0 .02.3c.04.12.11.21.21.27v.06a.03.03 0 0 0 .02.04h.03c-.26.05-.3.18-.11.42l.01.04v.32l.02.05c.1.14.13.3.07.51v.03l.02.02a.05.05 0 0 0 .05-.01.6.6 0 0 0 .02-.04h.01v.01c0 .13-.06.25.03.37l-.05.01a6.73 6.73 0 0 1-.34-1.46l-.7-.73c-.02.15-.01.37 0 .66.01.09 0 .22-.05.38-.05.2-.06.4-.03.6a1.18 1.18 0 0 0-.16-.4.06.06 0 0 0-.07 0 .23.23 0 0 0-.07.1c-.31.47-.8 1.11-1.37 1.29H4.4a.05.05 0 0 1-.03-.04v-.02c.01-.03.03-.03.06-.02.5-.18.82-.48.94-.9.1-.07.16-.14.19-.22l.07-.23.23-.34a.06.06 0 0 0 0-.07c-.08-.1-.19-.16-.31-.14l-.18-1.05a.02.02 0 0 0-.02-.02.02.02 0 0 0-.02 0 .48.48 0 0 1-.12.15A11.18 11.18 0 0 0 4.6 9.3a.03.03 0 0 0 .04 0 .2.2 0 0 1 .2.04c-.13.08-.25.36-.02.4l-.23.07c-.11.02-.2.08-.26.2l-.28.3a.09.09 0 0 0-.02.08c.01.07.04.13.07.17l-.43-.01h.19l.02-.01a.04.04 0 0 0 .02-.05v-.02h-.03c-.12-.02-.2 0-.24.06l-.22-.06a.12.12 0 0 1-.07-.04c-.11-.15-.22-.22-.32-.2-.03-.08 0-.14.11-.2a.1.1 0 0 1 .09 0c.12.04.23.1.33.17a.2.2 0 0 0 .22.02.76.76 0 0 0 .32-.3c.42-.74.65-1.46.94-2.3.19-.53.47-1.22.86-2.06.16-.36.4-.7.7-1 .06-.05.13-.1.2-.12l-.08.08a.04.04 0 0 0 0 .04.04.04 0 0 0 .02.02c.02.01.05 0 .08-.02.1-.09.2-.16.33-.21Z" fill="#BD96D5"/><path d="M13.5 6.34c.36.92.77 1.85 1.23 2.78.15.29.45.85.74.97h.43a.1.1 0 0 1 .1.1c0 .12-.02.24-.1.36l.02-.12v-.05c-.02-.02-.04-.02-.07 0a.17.17 0 0 0 .04-.1.05.05 0 0 0-.02-.04.05.05 0 0 0-.04-.01c-.56.15-.77-.1-1.03-.54a.04.04 0 0 0-.04-.01h-.02l-.01.02c-.01.03 0 .08.03.14-.08-.07-.11-.2-.1-.4V9.4h-.01a.04.04 0 0 0-.03-.02c-.08 0-.1.05-.1.13-.07-.1-.14-.1-.22 0-.1-.14-.27-.24-.5-.26a.69.69 0 0 0-.4-.08.2.2 0 0 0-.13.05.19.19 0 0 0-.05.12c-.02.19.02.37.12.55a.04.04 0 0 1 0 .03.04.04 0 0 1-.03.02h-.2a.1.1 0 0 0-.02 0l-.69.17h-.01l-.65.02h-.02a.04.04 0 0 1-.03-.05c0-.03.02-.05.04-.05a.1.1 0 0 0 .08-.08c.04-.18.16-.36.34-.54a16.6 16.6 0 0 1 .4-.91c.02-.05.04-.19.04-.4a.13.13 0 0 1 .05-.1c.12-.1.03-.23.1-.37l.07-.13a.08.08 0 0 0-.03-.1c-.03-.02-.04-.04-.03-.06 0-.04.05-.06.12-.07.12-.02.2-.08.26-.18.04-.07.07-.21.11-.42V6.6c-.03-.1-.09-.17-.17-.19l-.17-.09c-.02-.12.03-.17.17-.16.1.01.25.07.43.18Z" fill="#B18ED7"/><path d="M13.07 6.41a.4.4 0 0 0 0 .28c.03.06.04.1.03.14a.26.26 0 0 1-.1.11.29.29 0 0 1-.2-.11.1.1 0 0 1 0-.1l.1-.23V6.32l.17.1Z" fill="#3B4048"/><path d="M13.8 9.26c.08.14.13.34.15.6 0 .04.01.08.04.1.18.23.4.37.69.4.14.03.28.04.42.02h.08a2.5 2.5 0 0 0 .73 0c.02 0 .02.03.01.05a.59.59 0 0 0-.01.12l-.05.1c0-.04 0-.08-.02-.1a.06.06 0 0 0-.07-.05 3.62 3.62 0 0 1-1.46-.08c-.4-.21-.6-.53-.56-.94a.18.18 0 0 0-.04-.13.27.27 0 0 0-.12-.08c-.18-.06-.3 0-.36.17v.03a.07.07 0 0 0 .03.05l.03.01.06.01c-.06.05-.06.1 0 .19l.14.14a.11.11 0 0 1 .04.07c.01.09 0 .16-.04.22-.08-.08-.22-.1-.42-.06-.3.08-.52.11-.62.11-.05 0-.1 0-.14.02-.12.05-.27.07-.44.07a.14.14 0 0 0-.09.03.42.42 0 0 1-.34.1c-.42-.07-.75-.1-1-.07-.02-.05-.02-.12 0-.22a.1.1 0 0 1 .05-.07c.1-.06.17-.12.17-.25V7.96a.3.3 0 0 0 .05-.17.09.09 0 0 0-.05-.07.57.57 0 0 0-.62-.02.28.28 0 0 0-.14-.2h-.01v-.05a.04.04 0 0 1 .06-.03 1.54 1.54 0 0 0 .8.14.08.08 0 0 1 .05.04V9.98a.13.13 0 0 1-.06.04l-.17.1a.05.05 0 0 0 0 .1h.04a2.7 2.7 0 0 1 .97.05l.02-.01a.04.04 0 0 0 0-.05c-.02-.04-.02-.07 0-.1a.13.13 0 0 0 .02-.1 3.06 3.06 0 0 1-.07-.43l.05-2.14c0-.16.06-.43.15-.51a.75.75 0 0 0 .2-.28.05.05 0 0 0-.02-.06.05.05 0 0 0-.06 0 3.8 3.8 0 0 1-.92.6.96.96 0 0 1-.63.06c.4-.07.76-.21 1.06-.42a52.45 52.45 0 0 0 .5-.34.11.11 0 0 1 .1.04.1.1 0 0 1 .02.05c.02.14-.06.22-.03.36.08.37-.27.4-.27.68a50.04 50.04 0 0 1-.03 2.24l.03.02a.06.06 0 0 0 .07-.03l.47-.92a.22.22 0 0 0 .03-.09c.02-.24 0-.32.11-.54a.91.91 0 0 0 .1-.55l.02.14c0 .01 0 .02.02.03a.06.06 0 0 0 .09-.02l.1-.35-.01-.03-.03-.02-.09-.02c.06-.04.1-.1.1-.19a.08.08 0 0 1 .04-.07 2 2 0 0 1 .22-.12c.07-.03.1-.09.06-.16a.26.26 0 0 0 .1-.11c.01-.03 0-.08-.03-.14a.4.4 0 0 1 0-.28c.08.02.14.09.17.19v.08c-.04.21-.07.35-.11.42a.33.33 0 0 1-.26.18c-.07 0-.11.03-.12.07 0 .02 0 .04.03.06a.08.08 0 0 1 .03.1 1.5 1.5 0 0 1-.07.13c-.07.14.02.27-.1.37a.14.14 0 0 0-.05.1c0 .21-.02.35-.04.4a16.6 16.6 0 0 0-.4.91c-.18.18-.3.36-.34.54a.1.1 0 0 1-.08.08c-.02 0-.04.02-.04.05v.02a.04.04 0 0 0 .03.03h.02l.65-.01h.01l.69-.18a.1.1 0 0 1 .03 0h.19a.04.04 0 0 0 .03-.02.04.04 0 0 0 0-.03.92.92 0 0 1-.12-.55c0-.04.02-.08.05-.12a.2.2 0 0 1 .12-.05c.14-.02.27 0 .4.08Z" fill="#738585"/><path d="M7.1 6.64c.09.1.16.22.2.34l.06.07a.4.4 0 0 0 .35.08c.47-.12.84-.17 1.11-.18.36 0 .68.1.82.44a.03.03 0 0 0 .02.02.03.03 0 0 0 .03 0c.01-.01.02-.04 0-.08V7.3a.6.6 0 0 1-.14-.23l.21.33a.06.06 0 0 0 .05.03.06.06 0 0 0 .05-.03c.1-.18.25-.24.46-.16.2.06.42.04.63-.06a3.8 3.8 0 0 0 .95-.6h.03a.05.05 0 0 1 .02.06c-.04.1-.1.2-.2.28-.09.08-.15.35-.15.5l-.05 2.15c0 .06.02.2.07.42 0 .04 0 .08-.02.1-.02.04-.02.07 0 .1a.04.04 0 0 1 0 .06l-.02.01h-.03a2.7 2.7 0 0 0-.98-.06.06.06 0 0 1-.02-.06l.02-.03.17-.1a.13.13 0 0 0 .07-.11V7.63a.08.08 0 0 0-.03-.06.08.08 0 0 0-.06-.02 1.54 1.54 0 0 1-.79-.13.04.04 0 0 0-.03.03l-.01.03a.02.02 0 0 0 .01.02c.08.05.13.11.14.2l.04.06-.46.01a.07.07 0 0 0-.07.04c-.14.35-.43.51-.87.47-.18.22-.27.14-.27-.24.05.03.1.04.14.04.23-.03.34-.17.33-.4.09-.17.03-.34-.17-.51a.14.14 0 0 0-.08-.04c-.18 0-.56.02-.49.28a.85.85 0 0 0-.6.02.36.36 0 0 0-.31-.1c0-.25-.05-.34-.18-.28a.74.74 0 0 1-.03-.45c.02.03.04.05.07.04Z" fill="#BD96D5"/><path d="M7.33 6.73c.01.26.15.35.4.29l.64-.15c.48-.1.87-.03 1.18.2.04.11.08.19.14.24v.02c.02.04.01.07 0 .08a.03.03 0 0 1-.05-.02c-.14-.34-.46-.44-.82-.44-.27 0-.64.06-1.1.18a.4.4 0 0 1-.36-.08.15.15 0 0 1-.05-.07 1.14 1.14 0 0 0-.22-.34c.07-.08.15-.05.24.1Z" fill="#869090"/><path d="M8.88 7.68c-.1-.25-.33-.17-.5-.1a.1.1 0 0 0-.05.04.1.1 0 0 0-.02.06c.01.12.04.24.1.35-.01.03-.04.04-.07.03l-.02-.02-.02-.02-.06-.24v-.01l-.03-.01a.03.03 0 0 0-.03.02c-.02.02-.02.05-.01.08h-.01l-.02-.05V7.8a.4.4 0 0 0 0-.38c-.07-.26.3-.29.5-.28l.07.04c.2.17.26.34.17.5Z" fill="#3B4048"/><path d="M8.14 7.4a.4.4 0 0 1 0 .39v.02c0 .03.01.05.02.05h.01c-.01-.03 0-.06.01-.08a.03.03 0 0 1 .05-.01l.01.01.06.24.02.02.02.02c.03 0 .06 0 .07-.03.04.02.04.03 0 .01 0 .38.09.46.27.24-.01.04 0 .07.02.1v.06l-.02.01a.04.04 0 0 0-.01.04.04.04 0 0 0 .01.03c.06.05.13.08.2.08l.02.02v.04c.31.35.84.82 1.35.48a.12.12 0 0 1 .17.05c.01.02.02.05.01.07l-.04.3-.46.53a.1.1 0 0 0-.02.04l-.01.05-.04.08-.33.44a.08.08 0 0 1-.06.03.08.08 0 0 1-.06-.03c-.41-.46-.75-.99-1.1-1.5a1 1 0 0 1-.1-.2v-.02a.02.02 0 0 0-.04 0V9l.05 1.03c-.01.04-.05.08-.14.1h-.04l-.58-.02a.06.06 0 0 1-.05-.04v-.02l.03-.38.1-2.24c.2-.08.4-.1.6-.02Z" fill="#B18ED7"/><path d="m7.54 7.43-.1 2.24-.05-1.46-.01-.03a.04.04 0 0 0-.06 0l-.01.02-.02.04a.56.56 0 0 0-.01-.04H7.2c.05-.05.08-.1.08-.15l.03.01a.04.04 0 0 0 .04-.03c.05-.21.02-.36-.07-.45l-.06-.26c.12 0 .23.03.3.11Z" fill="#738585"/><path d="M5.55 8.49c-.14.1-.22.23-.22.37-.01.14 0 .35.04.62-.12.43-.44.73-.94.91l-.01-.08c-.02-.01-.05 0-.08.01l-.1.06.07-.07a.1.1 0 0 0 .02-.07V10c.05-.12.14-.18.25-.2l.23-.07c.14-.07.14-.21.02-.4a.2.2 0 0 0-.2-.04.03.03 0 0 1-.04 0 .03.03 0 0 1 0-.04 11.18 11.18 0 0 1 .62-1.7.48.48 0 0 0 .12-.13v-.01a.02.02 0 0 1 .03 0l.01.02.18 1.05Z" fill="#B18ED7"/><path d="m12.58 7.48.1.02.02.02v.03l-.1.35-.01.03a.06.06 0 0 1-.07 0 .05.05 0 0 1-.02-.04l-.02-.14c.01-.14.05-.23.1-.27Z" fill="#4B4E4B"/><path d="m10.66 7.96-.46-.07a.05.05 0 0 0-.06.03v.03c0 .11-.03.17-.1.18a5.55 5.55 0 0 0-.29.02.08.08 0 0 0-.03.03c-.16.34-.43.48-.82.44l-.01-.02c-.05-.03-.08-.07-.08-.1 0-.04.02-.06.09-.07.36-.03.6-.2.72-.49a.12.12 0 0 1 .08-.07l.38-.1a4.35 4.35 0 0 0-.04-.07c.2-.12.41-.11.62.02a.09.09 0 0 1 .05.07.3.3 0 0 1-.05.17Z" fill="#3B4048"/><path d="m10.08 7.76-.38.11a.12.12 0 0 0-.08.07c-.12.3-.36.46-.72.5-.07 0-.1.02-.1.06 0 .03.04.07.09.1a.36.36 0 0 1-.2-.08.04.04 0 0 1-.02-.03.04.04 0 0 1 .01-.04h.01l.02-.04-.01-.03c-.03-.03-.03-.06-.02-.1.44.04.73-.12.87-.47a.07.07 0 0 1 .07-.04h.46Z" fill="#67757C"/><path d="M7.22 10.03c.09.17.12.34.1.51l.01.02.02.01h.02l.03.06a.03.03 0 0 0 .04.02h.02a.32.32 0 0 1 .08-.07c0 .03 0 .04.02.05-.1.15-.1.29-.04.4.03.07.05.13.05.17v.18c-.43-.03-.72.14-.88.5l-.01.02h-.02a.04.04 0 0 1-.03 0l-.62-.55a.32.32 0 0 0 .05-.16c.09-.57.1-1.14.04-1.71-.03-.2-.02-.4.03-.6.04-.16.06-.3.05-.38a4.72 4.72 0 0 1 0-.66l.7.73.01.02c.06.5.17.97.33 1.44Z" fill="#A98ADE"/><path d="M7.29 8.24c-.02.17.05.37-.04.5a.14.14 0 0 0-.02.1l.07.68.02.05c.11.16.1.3-.05.45-.09-.12-.04-.24-.02-.37h-.02a.6.6 0 0 1-.02.03.04.04 0 0 1-.05 0l-.02-.01v-.03c.06-.2.04-.37-.07-.5a.08.08 0 0 1-.02-.06v-.32l-.01-.04c-.19-.24-.15-.37.1-.41a.25.25 0 0 0 .07-.1l.04-.02a.03.03 0 0 1 .02 0v.01l.01.01v.03Z" fill="#67757C"/><path d="M5.37 9.48a3.53 3.53 0 0 1-.04-.62c0-.14.08-.27.22-.37.12-.02.23.03.31.14l.01.04v.03l-.24.34-.07.23a.42.42 0 0 1-.19.21ZM10.38 9.56c.04.1.04.18.02.21A34.07 34.07 0 0 0 9.55 11a.14.14 0 0 1-.13 0 .13.13 0 0 1-.04-.03L8.3 9.46l-.01-.01a.02.02 0 0 0-.02 0v.01l-.06.57L8.17 9V9l.02-.01h.01l.01.01a1 1 0 0 0 .1.22c.35.5.69 1.03 1.1 1.5a.08.08 0 0 0 .12-.01l.33-.44a.26.26 0 0 0 .04-.08v-.05a.1.1 0 0 1 .03-.04l.46-.53Z" fill="#4B4E4B"/><path d="M6.1 9.48c.06.57.05 1.14-.04 1.71a.32.32 0 0 1-.05.16c-.04.05-.04.1 0 .13a5.89 5.89 0 0 0 .5.39l.8.76c.22.2.54.42.95.64.23.12.46.2.7.22.96.33 2-.09 2.28-1.08a.19.19 0 0 0 0-.1.06.06 0 0 0-.02-.04.07.07 0 0 0-.05 0 .08.08 0 0 0-.07.06c0 .09-.04.15-.07.17a.09.09 0 0 0-.04.08c0 .07-.03.14-.08.2-.48.63-1.1.8-1.88.55l-.87-.73a.13.13 0 0 1-.03-.04l-.18-.28a.19.19 0 0 1-.02-.11.11.11 0 0 0-.04-.1c-.12-.1-.17-.24-.13-.39a.04.04 0 0 0 0-.03.04.04 0 0 0-.03-.01c-.06 0-.09-.05-.1-.12 0-.03.02-.05.03-.08l.05-.07-.01-.02h-.04c-.05.06-.08.06-.1.03l.01-.18c0-.04-.02-.1-.05-.17-.07-.11-.05-.25.04-.4l.12.03a.49.49 0 0 0 0 .21c.18.92.78 2.4 1.94 2.46.46.02.84-.16 1.12-.53.23-.3.29-.59.18-.87v-.02l-.22-.3a.18.18 0 0 1-.03-.1c0-.13 0-.22-.02-.28-.1-.3.07-.44.38-.38.07.05.13.12.17.2.34.75.31 1.47-.09 2.17v-.12a.05.05 0 0 0-.04-.05.06.06 0 0 0-.06.02 1.6 1.6 0 0 1-.52.43.11.11 0 0 1-.07.01.09.09 0 0 0-.07.03c-.05.05-.12.08-.22.1a3.45 3.45 0 0 1-1.6-.15c-.2-.1-.37-.15-.57-.26-.47-.27-.9-.6-1.28-1a6.11 6.11 0 0 0-.75-.61c-.1-.01-.14.02-.12.08-.07-.16-.07-.28 0-.38a.1.1 0 0 1 .04-.02c.1-.05.15-.15.15-.3 0-.38 0-.75.02-1.13a.08.08 0 0 0-.04-.07l-.06.01c.04-.15.04-.31.02-.47 0-.06 0-.1-.03-.14-.02-.02-.05-.03-.1-.01a.23.23 0 0 1 .06-.1.06.06 0 0 1 .08.01c.07.1.12.23.15.38Z" fill="#869090"/><path d="m5.94 9.34-.02-.02a.03.03 0 0 0-.03 0 .03.03 0 0 0-.03 0c-.26.48-.69 1.02-1.22 1.23-.43.17-.81.27-1.22.06a.05.05 0 0 0-.05 0 .04.04 0 0 0-.02.04v.05a1.19 1.19 0 0 0-.34-.47c.1-.02.2.05.32.2.02.02.04.04.07.04l.22.06.04.02h.43c.06.02.1 0 .12-.02v-.08c-.01-.03 0-.05.03-.07l.1-.06c.03-.02.06-.02.08-.01.01.01.02.04 0 .08-.02-.01-.04 0-.05.02a.04.04 0 0 0 0 .05.05.05 0 0 0 .06 0c.56-.17 1.06-.8 1.37-1.27.05-.02.09-.01.1.01.03.03.04.08.04.14Z" fill="#67757C"/><path d="M15.86 10.65c-.05.09-.13.13-.25.14a4.8 4.8 0 0 1-1.12-.04.98.98 0 0 1-.8-.57.13.13 0 0 1 0-.05l-.02-.35v-.02c-.05-.14-.16-.21-.32-.22h-.06a.07.07 0 0 1-.06-.07v-.03c.06-.17.18-.23.36-.17.05.02.1.05.12.08.03.04.05.09.04.13-.03.41.15.73.56.94.02.01.05.03.08.03a3.62 3.62 0 0 0 1.42.06c.02 0 .03.02.03.03l.02.11Z" fill="#3B4048"/><path d="M14.3 9.53c.02.09.05.14.09.17a.06.06 0 0 0 .08-.02c.03-.04.05-.1.05-.16 0-.08.02-.13.1-.13a.04.04 0 0 1 .04.03v.01c-.01.2.02.34.1.41.22.18.28.45-.08.52a1.04 1.04 0 0 1-.7-.4.17.17 0 0 1-.03-.1 1.34 1.34 0 0 0-.16-.6c.24.02.4.12.5.27Z" fill="#699BC3"/><path d="M5.94 9.34c.02.16.02.32-.02.47-.5.64-.99 1.08-1.86 1.16a.77.77 0 0 1-.7-.27v-.05a.04.04 0 0 1 .01-.04.05.05 0 0 1 .05 0c.4.2.79.11 1.22-.06a2.74 2.74 0 0 0 1.23-1.23.03.03 0 0 1 .05 0l.02.02Z" fill="#3B4048"/><path d="m8.5 10.36-.97.03-.04.01-.01.03c0 .06.01.1.06.15a.32.32 0 0 0-.08.06.03.03 0 0 1-.03.01H7.4v-.02l-.04-.06a.37.37 0 0 0 0-.22.12.12 0 0 1 .01-.11.13.13 0 0 1 .1-.05l.81.03c.06-.02.1 0 .12.06a.01.01 0 0 0 .02 0l.01-.01c0-.07-.02-.12-.07-.14-.04-.02-.07-.06-.06-.13.17.04.23.15.2.36Z" fill="#67757C"/><path d="M13.5 10.16c-.01.1-.04.17-.09.21a.09.09 0 0 1-.06.02h-.17a5.48 5.48 0 0 1-1.44.16.15.15 0 0 0-.05.05l-.01.03-.04.04a.1.1 0 0 1-.06.01l-.47-.06c-.53.07-.75-.02-.67-.26.25-.02.58 0 1 .08.12.02.23-.02.34-.1a.14.14 0 0 1 .1-.04c.16 0 .3-.02.43-.07l.14-.02c.1 0 .31-.03.62-.1.2-.05.34-.03.42.05ZM8.5 10.36c.06.24-.06.3-.29.29l-.5-.02c-.03 0-.04 0-.03.03l-.12-.03c-.01 0-.02-.02-.02-.05a.17.17 0 0 1-.06-.15l.01-.03.04-.01.97-.03Z" fill="#3B4048"/><path d="M9.03 13.33c-.05.04-.07.1-.06.16-.25-.03-.48-.1-.7-.22a4.72 4.72 0 0 1-.97-.64 16.7 16.7 0 0 1-.83-.8L6 11.48c-.04-.03-.04-.08 0-.13l.62.55a.03.03 0 0 0 .03 0 .04.04 0 0 0 .03-.02c.16-.36.45-.53.87-.5.02.03.05.03.1-.03a.03.03 0 0 1 .03 0h.01v.02s0 .03-.04.07a.13.13 0 0 0-.02.08c0 .07.03.11.09.12h.01a.04.04 0 0 1 .02.04c-.04.15 0 .29.13.4a.11.11 0 0 1 .04.09v.01c0 .04 0 .07.02.1l.18.28c0 .02.01.03.03.04l.87.73Z" fill="#8789E0"/><path d="M11.11 13.22c-.43.61-1.03.86-1.8.76a3.63 3.63 0 0 1-1.7-.7 7.5 7.5 0 0 1-1.1-1l-.7-.58c-.02-.06.03-.1.12-.08l.09.03c.2.15.48.39.66.57.38.4.8.74 1.28 1 .2.12.37.17.56.27l.24.08c.44.11.9.13 1.37.06.1-.01.17-.04.22-.1a.09.09 0 0 1 .07-.02h.07c.2-.11.38-.26.52-.44a.06.06 0 0 1 .09 0l.01.03v.12Z" fill="#3B4048"/><path d="M8.97 13.49c-.01-.06 0-.12.06-.16.77.25 1.4.08 1.88-.54a.34.34 0 0 0 .08-.21.09.09 0 0 1 .04-.08c.03-.02.06-.08.08-.17l.02-.05a.08.08 0 0 1 .04-.02h.05l.03.04v.11c-.3.99-1.33 1.41-2.28 1.08Z" fill="#C3E9F4"/><path d="m6 7-.07-.39-.01-.02a.04.04 0 0 0-.06.02 3.4 3.4 0 0 0-.2 1.25h.04v-.02c0-.07.02-.13.05-.18l.1.64v.04l-.03.01a.05.05 0 0 1-.05-.02c-.1-.18-.16-.38-.18-.59a.3.3 0 0 0-.02-.08c-.06-.12-.07-.21-.06-.27.04-.13.06-.26.07-.4.01-.08.07-.25.2-.5a.12.12 0 0 1 .05-.06l.04-.02a.12.12 0 0 1 .15.08 2 2 0 0 1 .11.4 61.26 61.26 0 0 1-.05 1.1.01.01 0 0 1 0-.02L5.98 7Z" fill="#738585"/><path d="m6 7-.25.66a.34.34 0 0 0-.04.18l-.01.02h-.05l-.01-.01a3.4 3.4 0 0 1 .23-1.26.04.04 0 0 1 .05 0v.02L6 7Z" fill="#3B4048"/><path d="M10.5 4.51c.04.12.1.18.17.18 0 .08-.03.14-.1.2a.13.13 0 0 0-.04.05c-.11.27-.2.47-.3.6-.04.05-.12.07-.21.07-.16 0-.28 0-.35-.2-.09-.24-.21-.4-.38-.45l-.1-.4a.03.03 0 0 1 .04-.03h.01l.1.18a.03.03 0 0 0 .02.01.03.03 0 0 0 .03-.01l.29-.6a.03.03 0 0 1 .02 0c.05-.02.06.02.02.08a.07.07 0 0 0 0 .08c.07.1.17.14.31.11a.1.1 0 0 0 .07-.04v-.07c-.03-.08 0-.16.06-.26A.03.03 0 0 1 10.2 4a.03.03 0 0 1 .02.01l.29.5Z" fill="#699BC3"/><path d="M9.13 5.4a.8.8 0 0 0-.12-.4.1.1 0 0 1-.01-.05V4.8a.02.02 0 0 1 .01-.02.02.02 0 0 1 .02 0l.1.14a.08.08 0 0 0 .06.04h.1c.17.04.3.2.38.45.07.18.18.25.35.2.1 0 .17-.03.21-.09.1-.12.19-.32.3-.59 0-.02.02-.04.04-.05.07-.06.1-.12.1-.2l.07-.24.02-.02a.03.03 0 0 1 .03 0v.03c0 .14-.03.29-.09.43a.06.06 0 0 0 .02.07.06.06 0 0 0 .07 0 .4.4 0 0 0 .15-.18.03.03 0 0 1 .04-.01l.02.01-.2.77a.15.15 0 0 1-.09.1 1.93 1.93 0 0 0-.58.35.06.06 0 0 1-.06-.02l-.01-.03-.01-.11a.08.08 0 0 0-.07-.07l-.06.01a.08.08 0 0 0-.03.05l-.03.12a.05.05 0 0 1-.08.03 1.8 1.8 0 0 0-.56-.34.09.09 0 0 1-.05-.07l-.04-.17Z" fill="#3B548F"/><path d="M13.92 9.1v.03l-.01.02-.02.01a.03.03 0 0 1-.03 0c-.04-.05-.09-.07-.13-.05h-.04a.05.05 0 0 1-.02-.02v-.04l.01-.03c.05-.04.04-.08-.01-.12a2.11 2.11 0 0 1-.36-.34l-.3-.6.05-.53v-.01h.08a.06.06 0 0 1 .04.02.06.06 0 0 1 .01.05c-.03.15-.02.26.03.32.17.2.25.49.37.7l.27.53.04.02.01.02.01.02Z" fill="#738585"/></svg>