<!-- by TradingView --><svg width="18" height="18" viewBox="0 0 18 18" xmlns="http://www.w3.org/2000/svg"><path fill="url(#a)" d="M0 0h18v18H0z"/><path d="M6.67 10.87v.01c.04.29.15.55.32.8.17.23.39.43.65.59a3.14 3.14 0 0 0 3.22-.1v1.55l-.02.01a6.01 6.01 0 0 1-3.05.12 3.94 3.94 0 0 1-1.67-.8 3.13 3.13 0 0 1-1.1-2.2h1.63l.02.02Zm.49-4.88v.02c-.11.16-.19.32-.21.47-.08.48.02.83.3 1.06a3 3 0 0 0 1.12.49c.26.07.8.17 1.6.31.43.08.89.2 1.38.38.38.13.7.33.97.6.3.27.49.6.58.95a2.8 2.8 0 0 1-.1 1.73l-.01.01H11V12c.22-.28.3-.6.27-.96-.05-.38-.26-.67-.65-.87-.18-.1-.33-.16-.47-.2-.38-.1-1-.22-1.84-.37a8.97 8.97 0 0 1-1.28-.32c-.21-.07-.4-.15-.57-.24a2.5 2.5 0 0 1-.8-.67 2 2 0 0 1-.4-.92A2.94 2.94 0 0 1 5.37 6h1.77Zm.63-1.88a5.6 5.6 0 0 1 2.26.01 3.7 3.7 0 0 1 1.85.93 2.75 2.75 0 0 1 .87 1.8H11.1l-.01-.01a1.8 1.8 0 0 0-.88-1.15 2.87 2.87 0 0 0-2.03-.25 1.93 1.93 0 0 0-.86.4l-.01-.01V4.23h.01c.21-.07.36-.1.46-.13Z" fill="#fff"/><defs><linearGradient id="a" x1="3.35" y1="3.12" x2="21.9" y2="24.43" gradientUnits="userSpaceOnUse"><stop stop-color="#1A1E21"/><stop offset="1" stop-color="#06060A"/></linearGradient></defs></svg>