<!-- by TradingView --><svg width="18" height="18" viewBox="0 0 18 18" xmlns="http://www.w3.org/2000/svg"><path fill="#181B1E" d="M0 0h18v18H0z"/><path d="M9.02 4v.4a.02.02 0 0 0 .03.02c.18-.1.38-.12.61-.05a.07.07 0 0 1 .02.14 1.23 1.23 0 0 0-.27.21.02.02 0 0 0 .03.02c.08-.06.18-.1.27-.12a.06.06 0 0 1 .07.02l.03.05h.01l.01.01c.02 0 .03 0 .03-.03l.07.16-.02.05c-.1.09-.23.16-.37.21a.15.15 0 0 0-.06.04 1.1 1.1 0 0 1-.32.22H8.9a.02.02 0 0 1-.03-.03l.04-.08a.03.03 0 0 0-.04-.04.14.14 0 0 0-.05.03l.1-.1a.03.03 0 0 0-.02-.05c-.1.02-.2.01-.29-.02a.06.06 0 0 0-.07.04l-.31.72a.9.9 0 0 1-.04.08l-.17.3c-.04-.01-.05-.03-.04-.05.1-.19.18-.38.24-.57l.21-.43.2-.33.16-.2.02-.04v-.04c-.04-.1-.06-.21-.06-.33 0-.03 0-.06-.03-.08-.01-.03-.04-.04-.08-.03a.03.03 0 0 1-.03-.05l.02-.02.4-.03Z" fill="#C23E2B"/><path d="M10.45 4.23c2.94 3.6.8 1.9.86 2.73 0 .1 0 .2-.02.31-.06.3-.09.42-.33.58l-.04.05a.04.04 0 0 1-.06 0v-.03c.03-.39.06-.78.07-1.18.04-1-1.51-1.57-1.91-2.28V4c.49 0 .96.08 1.43.23Z" fill="#6E261F"/><path d="M8.56 4.03c-.4.41.29-.08 0 .64-.03.06-.01.11.05.15l-.19.33c-.14.09-.29.15-.45.19.04-.08.09-.11.15-.11.11 0 .2-.04.25-.13a.08.08 0 0 0 0-.06c-.1-.3-.32-.44-.66-.46l.56-.48c.06-.06.16-.08.3-.07Z" fill="#FAC378"/><path d="m8.62 4.03-.02.02a.03.03 0 0 0 0 .03c.02.04.08.01.11.05.02.02.03.05.03.08 0 .12.02.23.05.33a.08.08 0 0 1 0 .07l-.18.2c-.06-.03-.08-.08-.06-.14v-.05c-.1-.5 0-.18-.17-.4l.18-.19h.06Z" fill="#E48843"/><path d="m8.37 4-.93.94-.02-.67c.19-.09.75-.25.95-.27Z" fill="#FCDC8C"/><path d="m10.95 4.44.1.36a.07.07 0 0 1 0 .07l-.13.14-.23-.25-.22-.21c-.3-.28.38.17-.02-.32.2.03.36.1.5.2Z" fill="#D95D39"/><path d="m7.42 4.27.2.26-.2.26c-.06 0-.1-.02-.1-.1a.03.03 0 0 0-.04-.02c-.06.03-.08 0-.09-.07v-.02l.14-.29a.22.22 0 0 1 .1-.02Z" fill="#FBF2E2"/><path d="m7.33 4.3-.13.28v.02c0 .14.09.02.12.08v.02c.23.2.36.5.57.74l-.06.14-.6.78-.05.05-.73.28a2.76 2.76 0 0 0 .1-.74c.15-.54.3-.92.43-1.13.09-.15.13-.26.13-.34l.09-.15c.04 0 .08 0 .13-.04Z" fill="#FAC378"/><path d="m7.2 4.33-.09.15c-.25.33-.44.68-.55 1.05-.06.22-.1.83-.35.8a.57.57 0 0 1-.32-.2c.05 0 .1.02.18.05a.06.06 0 0 0 .07-.1c-.02-.03-.06-.05-.12-.04l.06-.3c.1-.06.2-.12.24-.24.08-.22.2-.42.4-.6.02-.03.04-.09.05-.17a.1.1 0 0 1 .03-.06c.06-.06.1-.13.12-.22l.28-.12Z" fill="#F3B48E"/><path d="M11.08 4.56c.18.25.34.51.46.8l.05.05.16.07c.23.76.18.83.25 1.01 0 .07.02.14.06.22a.5.5 0 0 0 .02.3.61.61 0 0 0-.02.27c-.07-.05-.1-.17-.08-.35l-.04-.16a.3.3 0 0 1 0-.1 1.37 1.37 0 0 0-.13-.66.02.02 0 0 0-.04.02l-.03.18v.01h-.02a46.63 46.63 0 0 1-.15-.43.09.09 0 0 0-.04-.02h-.04a.07.07 0 0 0-.03.03c-.03.04-.07.06-.14.05a.06.06 0 0 1-.05-.04.58.58 0 0 0-.17-.26L10.92 5l.12-.14a.07.07 0 0 0 .02-.07l-.11-.36.13.12Z" fill="#EA9F88"/><path d="M6.92 4.45a.43.43 0 0 1-.12.22.1.1 0 0 0-.03.06c-.01.08-.03.14-.06.16-.18.19-.31.39-.4.6-.04.13-.13.19-.23.26l.07-.6c.01-.07.04-.11.1-.14l.04-.04.07-.21.56-.3Z" fill="#BAC99E"/><path d="M11.29 4.56a11.42 11.42 0 0 1 .69 1.13h-.01l-.01.01h-.02v-.02c-.06-.12-.12-.2-.19-.2l-.16-.07a.1.1 0 0 1-.05-.05 3.84 3.84 0 0 0-.46-.8c-.02-.05-.01-.07.01-.09a.03.03 0 0 1 .03 0 .4.4 0 0 0 .17.1Z" fill="#93D5CB"/><path d="m6.45 6.7-.2.17c-.1-.1-.17-.22-.24-.36 0-.02-.36-.2-.43-.28-.08-.09-.14-.17-.22-.24-.03-.03-.03-.07.01-.11.16.03.28.08.35.14.07.06.13.1.17.11.23.27.55-.2.67-.6.11-.37.3-.72.55-1.05 0 .08-.04.2-.13.34a4.96 4.96 0 0 0-.44 1.2c0 .22-.03.45-.09.67Z" fill="#C95432"/><path d="m7.97 5.34-.08.1-.32-.36-.03-.02-.03.01a.17.17 0 0 1-.12.02l.17-.34c.05-.08.1-.14.15-.17.34.02.56.17.67.46a.08.08 0 0 1-.01.06c-.05.1-.14.13-.25.13-.06 0-.11.03-.15.1Z" fill="#F7E1B4"/><path d="M9.91 4.88c.3.3.67.59.82 1l-.06-.04-.2-.24-.02-.01a1.08 1.08 0 0 0-.68-.5l-.28.16a.23.23 0 0 0-.05.04l-.21.2a.11.11 0 0 1-.1.03c-.05 0-.1.03-.15.1a.1.1 0 0 1-.07.04l-.12.01a.05.05 0 0 1-.05-.03c0-.04-.04-.07-.09-.09a.07.07 0 0 0-.07.01l-.15.1a.03.03 0 0 1-.04-.03 1.28 1.28 0 0 1 .47-.43.03.03 0 0 1 .04.04l-.04.08a.02.02 0 0 0 .03.03H9.18c.12-.06.22-.14.3-.22a.15.15 0 0 1 .06-.04c.14-.05.26-.12.37-.21Z" fill="#87362A"/><path d="M9.44 5.3a.23.23 0 0 1 .05-.05l.28-.16-.18.2-.04.06-.08.1a.12.12 0 0 1-.06.04c-.47.16-.41.54-1.33.9-.24-.05-.27-.01-.2-.24 0 0 .23-.13.3-.25a.9.9 0 0 0 .04-.08l.3-.72a.06.06 0 0 1 .08-.04c.09.03.18.04.3.02a.03.03 0 0 1 .02.06c-.02.75-.12.41.52.15Z" fill="#C57062"/><path d="m10.67 5.84-.04.44c-.27 0-.54.06-.82.19h-.12c.1-.17.16-.35.19-.53.04-.25-.06-.47-.29-.65l.18-.2a1.08 1.08 0 0 1 .7.51l.2.24Z" fill="#EA9F88"/><path d="m8.42 5.15-.2.43c-.07 0-.12-.01-.15-.05a.03.03 0 0 0-.05.01 1.93 1.93 0 0 0-.19.54c-.07.2-.12.31-.15.37a1 1 0 0 1-.3.33.13.13 0 0 0-.04.05c-.07.17-.2.32-.37.47-1.04.66-1.1-.02-.1 1.64l.2.33-.19-.14a.01.01 0 0 0-.01.01l.27.79a2.97 2.97 0 0 1-.53-1.01c-.02-.21-.09-.4-.2-.53l-.15-.43c-.01-.04-.32-.32-.48-.43a1 1 0 0 1 .03 0c.05.01.1 0 .12-.02l.52-.04c.05 0 .1-.02.13-.05l.54-.39a.32.32 0 0 0 .06-.06c.13-.16.23-.34.3-.53l.06-.17.29-.7.06-.13.08-.1c.16-.04.31-.1.45-.2Z" fill="#E48843"/><path d="M9.6 5.29c.22.18.32.4.28.65a1.6 1.6 0 0 1-.19.53l-.4.44a.13.13 0 0 0-.04.1l-.01 1.12-.01.04c-.07.09-.13.14-.18.14a.1.1 0 0 1-.09-.03c-.04-.04-.08-.04-.13 0a.04.04 0 0 0 .02.07c.2.02.18.19.33.23a.05.05 0 0 1 .03.05.05.05 0 0 1-.04.05 1.2 1.2 0 0 1-.27 0c-.02 0-.04 0-.06.02-.18.08-.34.08-.5 0-.02 0-.04-.03-.04-.05-.01-.04-.03-.06-.05-.06l-.06.07a.07.07 0 0 0 .05.1c.1.01.18.05.27.12l.41.14a.02.02 0 0 1 .02.02v.02h-.02l-.18.03a.05.05 0 0 0-.05.05c0 .04.02.1.09.16 0 .02.02.02.04.03l.47.06a.05.05 0 0 1 .04.08.9.9 0 0 1-.62.31c-.4-.28-.77-.61-1.09-.99.02-.2 0-.4-.06-.61.07.05.22.1.26-.02.04-.13-.06-.27-.15-.37a.1.1 0 0 1-.03-.05l-.01-.08a.1.1 0 0 1 .1-.12h.4c.1 0 .2-.05.28-.16.02-.04.04-.06.07-.07h.1c0-.05.01-.08.03-.11.02-.04.05-.05.1-.04a1 1 0 0 0 .09.02.06.06 0 0 0 .05-.03c.05-.09.07-.16.05-.22a1.2 1.2 0 0 0-.14-.33.17.17 0 0 0-.14-.07l-.2-.07c.32.05.81.08 1.05-.17.22-.24.2-.65.08-.94l.04-.06Z" fill="#EAAD9B"/><path d="M9.55 5.35c.12.29.14.7-.08.94-.24.25-.73.22-1.05.17l-.34-.06a.9.9 0 0 1 .48-.67h.01c.17.02-.07.25.4.06a.17.17 0 0 0 .06-.05c.1-.12.24-.2.38-.25l.06-.04.08-.1Z" fill="#F0C1B2"/><path d="M8.21 5.58c-.15.46-.22.69-.13.82l.34.06.2.07c.13.2 0 .22-.39.09a.3.3 0 0 0-.12-.1c-.07-.03-.1-.02-.11.03-.02.16.04.24.17.24-.04 0-.08.01-.11.03a.02.02 0 0 1-.04-.01.1.1 0 0 0-.08-.05l-.21-.02a.11.11 0 0 0-.1.03.52.52 0 0 1-.23.12.03.03 0 0 0-.02.03.03.03 0 0 0 .02.03c.14.04.2.12.2.25-.28.1-.38.36-.28.78.03.28.13.56.3.81.32.38.69.7 1.1 1 .06.03.12.05.19.06.14.04.27.03.37-.05l.66-.49c.04.39-.1.65-.44.78h-.39a.1.1 0 0 0-.08.04.41.41 0 0 0-.07.25.06.06 0 0 1-.05.07.06.06 0 0 1-.07-.03l-.06-.09c-.04 0-.06-.01-.07-.03 0-.02 0-.04.03-.07.08-.11-.75-.84-.9-.72h-.01l-.2.63a.07.07 0 0 1-.05.04.38.38 0 0 0-.19.14l-.25-.39-.27-.79a.01.01 0 0 1 0-.01h.01l.18.14c.5.88.87.16.28-.84-.27-.46-.26-1.05-.36-1.13.17-.15.29-.3.36-.47 0-.02.02-.04.04-.05a1 1 0 0 0 .3-.33c.06-.13.15-.28.17-.43a1.93 1.93 0 0 1 .18-.5.03.03 0 0 1 .04.01c.03.04.08.05.14.05Z" fill="#87362A"/><path d="M11.98 6.93c.14 1.45-1.1 2.38-.88-1.38.07.06.13.15.17.26l.02.03.03.01c.07 0 .11 0 .14-.05l.03-.02h.04l.04.01a46.63 46.63 0 0 0 .17.42l.03-.18a.02.02 0 0 1 .05 0c.1.2.13.42.12.65a.3.3 0 0 0 0 .1l.04.15Z" fill="#D95D39"/><path d="M7.83 5.58a8.3 8.3 0 0 1-.65 1.4.32.32 0 0 1-.06.05l-.54.39a.26.26 0 0 1-.13.05c-.9.07-.53.1-.96.4a.08.08 0 0 1-.06.04.4.4 0 0 0-.25.14.03.03 0 0 1-.05-.01v-.05c.13-.07.23-.17.32-.29.08-.14.14-.3.16-.5.02 0 .04-.02.04-.05.08.12.17.16.27.1.2-.09.11-.28.53-.56.33-.13.2-.03 1.38-1.11Z" fill="#ED9D55"/><path d="M5.26 5.68c.03.05.06.08.09.08.22.05.45.15.67.28.06 0 .1 0 .12.04a.06.06 0 0 1-.07.1 1.38 1.38 0 0 0-.18-.05.71.71 0 0 1-.17-.11.81.81 0 0 0-.35-.14.16.16 0 0 0-.09-.04l-.09-.09c0-.03.03-.05.07-.07Z" fill="#F5CFBF"/><path d="M10.72 5.89c.15.3.22.57.21.8a16.35 16.35 0 0 1-.07 1.2.04.04 0 0 0 .04.02l.02-.01.04-.05.08.06-.22.16c-.04-.9.13-1.11-.32-1.37a.1.1 0 0 0-.06-.01c-.4.06-.69.04-.82.48 0 .01 0 .03-.02.04l-.02.03a.03.03 0 0 0 0 .03.03.03 0 0 0 .02.02h.04l-.06.02a.07.07 0 0 0-.05.05.07.07 0 0 0 .02.06c.12.16.15.33.07.5a.1.1 0 0 0 0 .08c.06.16.09.28.07.35h-.01a.4.4 0 0 0-.1.15.09.09 0 0 0 0 .09.1.1 0 0 0 .1.03l.23-.03a.05.05 0 0 1 .02.1c-.29.14-.31.42-.58.6a.13.13 0 0 1-.07.02h-.31c-.07-.02-.12-.04-.15-.08a.03.03 0 0 1 .02-.05l.4-.05a.08.08 0 0 0 .06-.08.08.08 0 0 0-.07-.07l-.4-.06h-.01L8.8 8.9c-.02-.02-.04-.03-.06-.01-.04.03-.17-.03-.24-.02a.46.46 0 0 0-.27-.11.07.07 0 0 1-.05-.11l.06-.07c.02 0 .04.02.05.06 0 .02.02.04.05.06.15.07.31.07.5-.01.01-.01.03-.02.05-.01l.27-.01a.05.05 0 0 0 .04-.05.05.05 0 0 0-.03-.05c-.15-.04-.13-.21-.33-.23a.04.04 0 0 1-.02-.07c.05-.04.1-.04.13 0a.1.1 0 0 0 .09.03c.05 0 .11-.05.18-.14v-.04L9.26 7l.03-.09.41-.44h.12l-.02.01a.1.1 0 0 1-.04.04.29.29 0 0 0-.15.12.04.04 0 0 0 .05.06l.43-.17c.15.05.3.05.45 0a.06.06 0 0 0 .04-.06.1.1 0 0 0-.04-.1c.15-.01.18-.05.1-.1l.04-.43.05.05Z" fill="#92504A"/><path d="M5.37 5.88c-.04.04-.04.08-.01.1l.22.25.03.02c.27.12.38.35.65.62-.02.04-.05.05-.1.04a.67.67 0 0 1-.2-.25.84.84 0 0 0-.48-.4.55.55 0 0 1-.2-.42c.04 0 .07.02.1.04Z" fill="#EA9F88"/><path d="M13 6.05c.06 0 .08.04.07.1-.37.11-.7.3-1 .56A.55.55 0 0 1 12 6.5l.03.04a.04.04 0 0 0 .07 0l.02-.04a.07.07 0 0 1 .05-.04c.07-.02.2-.08.36-.2.11-.07.26-.13.46-.2Z" fill="#7DB6B7"/><path d="M13.07 6.15c.06.02.08.06.06.13l-.52.32c-.2.09-.38.22-.52.41a.5.5 0 0 1-.03-.3c.3-.26.64-.45 1-.56Z" fill="#32575F"/><path d="M6.17 6.91c0 .02-.19.32-.25.35-.1.05-.2.01-.27-.11.27-.36 0-.67-.17-.89.5.12.35.4.69.65Z" fill="#F5CFBF"/><path d="M10.63 6.28c.08.04.05.08-.1.1-.16 0-.3.05-.45.15l-.43.17a.04.04 0 0 1-.05-.06c.04-.06.09-.1.15-.12a.1.1 0 0 0 .04-.04l.02-.01c.28-.13.55-.2.82-.2Z" fill="#5A1E1B"/><path d="M13.13 6.28c.16.13.28.31.34.53-.79.2-.14.1.08.42 0 .02-.01.04-.03.04-.37-.11-.75-.14-1.13-.08-.39-.18-.2-.15.16-.37l.03-.02a.22.22 0 0 0 .03-.2l.52-.32Z" fill="#CFDBD4"/><path d="M10.53 6.37a.1.1 0 0 1 .04.1.06.06 0 0 1-.04.05.72.72 0 0 1-.45.01c.14-.1.3-.16.45-.16Z" fill="#EA9F88"/><path d="M8.11 6.52c-.07 0-.1.05-.08.15a.03.03 0 0 0 .02.03h.02a.33.33 0 0 0 .16-.08c.4.13.52.1.4-.1.05 0 .1.03.13.08.06.08.1.19.14.33.02.06 0 .13-.05.22a.06.06 0 0 1-.05.03 1 1 0 0 1-.1-.02c-.04 0-.07 0-.1.04a.26.26 0 0 0-.03.1.67.67 0 0 0-.4-.5c-.13 0-.19-.1-.17-.25 0-.05.04-.06.11-.03Z" fill="#C57062"/><path d="M8.11 6.52c.05.02.1.05.12.1a.33.33 0 0 1-.16.08.03.03 0 0 1-.04-.03c-.01-.1.01-.15.08-.15Z" fill="#F0C1B2"/><path d="M12.6 6.6c.03.07.02.13-.02.2l-.03.02-.38.23-.01.01v.03l.23.1-.3.08h-.03c0-.12 0-.21.02-.26.15-.19.33-.32.53-.41Z" fill="#619095"/><path d="M13.47 6.81a.7.7 0 0 0 .03 0c-.05.07-.06.18 0 .35a1.28 1.28 0 0 0-.45-.15.04.04 0 0 1 0-.1l.42-.1Z" fill="#93D5CB"/><path d="M10.3 7.29a.3.3 0 0 1-.1.01h-.01v-.03c.09-.11.12-.16.09-.16h-.05c-.02-.01-.02-.02-.01-.02.06 0 .09-.06.07-.16a.04.04 0 0 1 .02-.04.04.04 0 0 1 .03 0h.05a.09.09 0 0 1 .07.08c.02.1-.03.22-.16.32Z" fill="#768189"/><path d="M7.9 7.14c0 .1.05.16.16.19.07.01.13-.02.17-.1a.04.04 0 0 0-.02-.07l-.13.01h-.03a.06.06 0 0 1-.03-.02L8 7.13a2 2 0 0 0 .27-.02c.12-.01.19.04.2.15a.06.06 0 0 0 .04.05h.05-.1c-.02.01-.04.03-.06.07-.08.1-.17.16-.29.15L8 7.52a.08.08 0 0 1-.05-.05c-.02-.04-.04-.06-.07-.07-.12-.17-.23-.23-.1-.47a.04.04 0 0 1 .06.02c0 .06.03.12.08.19Z" fill="#9E8386"/><path d="M10.82 8.07c-.15.51-.44.93-.88 1.24l-.66.49c-.1.08-.23.1-.37.05.25-.02.41-.13.5-.33a.1.1 0 0 0 0-.06.1.1 0 0 0-.05-.05.82.82 0 0 0-.4-.1h.32c.02 0 .05 0 .07-.02.27-.18.3-.46.58-.6a.05.05 0 0 0-.02-.1l-.24.03a.1.1 0 0 1-.1-.08V8.5a.4.4 0 0 1 .11-.15l-.04.09a.03.03 0 0 0 0 .03h.02c.66.17 1.04-.54 1.09-1.07v-.02l-.02-.02a.04.04 0 0 0-.04 0l-.2.1c-.22.08-.4.1-.57.04a.08.08 0 0 1-.05-.06s0-.03.03-.05a.08.08 0 0 0 .01-.08.56.56 0 0 0-.1-.17.31.31 0 0 1 .19 0l-.07.03c0 .02 0 .04.03.06.05.03.1.03.16 0a.04.04 0 0 0 .02-.04.04.04 0 0 0-.03-.03l-.03-.01a.1.1 0 0 0 .05-.06c.01-.03.02-.04.04-.04l.05.04v.02h.05c.04 0 0 .05-.08.16a.02.02 0 0 0 0 .02v.01h.01a.3.3 0 0 0 .1-.01l-.07.04a.03.03 0 0 0 0 .06.2.2 0 0 0 .07.03l.04-.01c.1-.05.17-.12.23-.2.06-.02.1-.06.14-.14a.04.04 0 0 1 .06-.01l.02.02c.08.33.02.65.03 1Z" fill="#A55E57"/><path d="M9.82 7.14c.04.04.07.1.1.17a.08.08 0 0 1-.02.08l-.03.05a.08.08 0 0 0 .05.06c.17.05.35.04.56-.03-.04.3-.18.56-.42.77a.43.43 0 0 1-.37.1c.02-.06 0-.18-.07-.34a.1.1 0 0 1 0-.08c.08-.17.05-.34-.07-.5a.07.07 0 0 1-.02-.06.07.07 0 0 1 .05-.05l.06-.01h.05a.04.04 0 0 0 .03-.05v-.08c0-.04.04-.05.1-.03Z" fill="#EA9F88"/><path d="M10 7.15h.12a.04.04 0 0 1 .02.07l-.02.01c-.06.03-.11.03-.16 0-.03-.02-.04-.04-.03-.06.01-.01.03-.02.07-.02Z" fill="#ED9D55"/><path d="M13.55 7.23c.02 0 .03 0 .04.03a.03.03 0 0 1-.01.03c-.05.04-.09.06-.12.05-.24-.07-.46-.1-.65-.07-.13.01-.32.05-.57.12l-.08.03h-.07c-.02-.01-.03-.03-.02-.06a.4.4 0 0 1 .02-.09l.3-.08a2.57 2.57 0 0 1 1.14.08c.02-.01.03-.02.02-.04Z" fill="#32575F"/><path d="M7.6 7.2c.04.13.13.2.27.2.03.01.05.03.07.07a.08.08 0 0 0 .05.05c.03.01.08.02.13.01h-.38a.1.1 0 0 0-.11.13l.01.08c0 .02.01.04.03.05.1.1.19.24.15.37-.04.12-.19.07-.26.02l-.18-.31a.03.03 0 0 0-.05 0l-.01.1c-.1-.4 0-.67.28-.77Z" fill="#EA9F88"/><path d="m13.46 7.34-.18.1-1.04-.05c.25-.07.44-.1.57-.12.2-.03.41 0 .65.07Z" fill="#7DB6B7"/><path d="M6.98 7.3c.12.1.2.2.21.3.04.28-.05.49.15.83.28.49.46.7.37 1.2a.04.04 0 0 1-.05.03l-.33.08-.01-.01-.26-.46a3.73 3.73 0 0 0-.18-.33c-.44-.73-.98-1.3-.85-1.35.15-.05.7-.14.95-.3Z" fill="#C23E2B"/><path d="m4.27 7.35.47.7.67.95c-.2.95-.47.63-.68.93l-.07-.05-.66-.9.03-.38c.91 1.07.33.41.45-.6 0-.02 0-.04-.02-.06-.03-.05-.1-.06-.13-.13a.47.47 0 0 0-.14-.17l.08-.3Z" fill="#1BADCB"/><path d="M9.68 8.35h.01c.15.01.28-.02.37-.1.24-.22.38-.48.42-.78l.21-.1a.04.04 0 0 1 .06.03c-.05.53-.43 1.24-1.1 1.08a.03.03 0 0 1-.01-.04l.04-.09Z" fill="#C57062"/><path d="m12.24 7.39 1.04.05-.02.02c-.26.2-.41.45-.44.78.02.03.01.08 0 .12-.3-.23-.61-.4-.95-.52-.02 0 .22-.34.2-.38a.16.16 0 0 1 .1-.04l.07-.03Z" fill="#B1D5D2"/><path d="m5.78 7.53.24.15.28.11c0 .01-.05 1.47-.52 1.52l-.18-.05c-.05-.45.02-.9.03-1.35 0-.04 0-.08.03-.12.02-.2.06-.29.12-.26Z" fill="#FAE0CC"/><path d="M4.03 8.6a3 3 0 0 1 .16-.96c.05.04.1.1.14.17.04.07.1.08.13.13.02.02.02.04.02.07-.01.1-.01.18.01.2.24.39.53.8.53 1.26a.04.04 0 0 1-.07.04l-.19-.1a.46.46 0 0 1-.13-.1l-.6-.71Z" fill="#00D2E3"/><path d="M5.66 7.8a8.9 8.9 0 0 0-.33 1.32l-.1-.27-.49-.8c.09.02.14.01.17 0 .07 0 .15-.01.23-.06l-.01.03a.03.03 0 0 0 .05.03.4.4 0 0 1 .25-.14.08.08 0 0 0 .06-.04c.12-.22.18-.24.17-.08Z" fill="#2B617C"/><path d="M13.54 10.47c.26-.46.14-.84-.37-1.14a.81.81 0 0 0-.15-.3c-.02-.02-.05-.03-.1-.04h-.03l-.01-.03a.2.2 0 0 0-.06-.12.2.2 0 0 0-.03-.16s.17-.08.13-.12c0-.13-.04-.2-.1-.2l.03-.1a.02.02 0 0 1-.02 0v-.02a1.04 1.04 0 0 1 .45-.8l.18-.1c.03.01.07 0 .12-.05v-.03c0-.02-.01-.03-.03-.03l-.05-.07c-.06-.17-.05-.28 0-.34a5 5 0 0 1 .2 3.83h-.02a.53.53 0 0 1-.14-.18Z" fill="#116D92"/><path d="M7.56 8.18c.06.2.08.4.06.61a1.89 1.89 0 0 1-.3-.81l.01-.1a.03.03 0 0 1 .05-.01l.18.31Z" fill="#F5CFBF"/><path d="M11.87 7.84c.34.12.65.3.94.52.07 0 .1.07.1.2a.63.63 0 0 0-.26-.2l-.83-.4.05-.12Z" fill="#5A6A72"/><path d="M5.63 7.91c.35 4.21 1.02.88-.55 2.55a.03.03 0 0 0 0 .03v.01h.13a.24.24 0 0 1-.1.05 1.8 1.8 0 0 0-.66.27l-.05-.07a3.3 3.3 0 0 0 .98-1.85c.07-.36.15-.69.25-.99Z" fill="#EBCCA6"/><path d="m6.26 7.96.15.43.3.99.26.4c-.02.06-.1.6-.18.57l-.01-.02-.14-.28a2.4 2.4 0 0 0-.27-.86 1.1 1.1 0 0 1-.18-.64l.07-.59Z" fill="#F7E1B4"/><path d="M12.65 8.36h-.03l-.12.05c-.04 0-.07 0-.1.03-.05-.03-.08-.02-.11.02l-.02.03c-.01.12-.05.18-.1.2l-.43-.37c-.07-.08-.04-.2.08-.36l.83.4ZM6.19 8.55c-.02.19.04.4.18.64.13.22.22.5.27.86 0 .03-.02.03-.06.01a.1.1 0 0 1-.05-.04l-.41-.91a.42.42 0 0 1-.05-.16l.02-.66a.03.03 0 0 1 .06 0l.04.26Z" fill="#93D5CB"/><path d="M12.62 8.36c.04.13.1.23.17.32.03.06.04.1.03.16.08.3.2.6.34.87v.22c-.03 0-.05-.03-.07-.08v.01a.02.02 0 0 1-.02 0h-.01a.53.53 0 0 1-.25-.31c0-.04-.1-.34-.3-.9a.7.7 0 0 1-.01-.24l.12-.05Z" fill="#FAE0CC"/><path d="M12.65 8.36c.12.05.2.12.26.2l.39.5.48.65a2.03 2.03 0 0 1-.35-.35 35.43 35.43 0 0 0-.62-.72.03.03 0 0 0-.02.02v.02c-.08-.09-.13-.2-.17-.32h.03Z" fill="#9E9E9E"/><path d="M7.14 9.93c.06.08.55.58.45.68 0 .01 1.28.4-.82 1.58.1-.32-.33.15-.07-.85.1-.38-.43-1.56-.63-1.27-.02-.32 0-.64.05-.96.29.64 1.07 1.83.58.27l-.3-1c.12.15.19.33.21.54.2.24.31.76.53 1.01Z" fill="#ED9D55"/><path d="M12.5 8.4c-.01.12 0 .2.01.25.2.56.3.86.3.9a.53.53 0 0 0 .26.32.02.02 0 0 0 .01 0v-.01c.01-.02.01-.02.01 0 .02.04.04.06.07.07l.21.3.03.04.07.38a.04.04 0 0 1-.01.04.04.04 0 0 1-.04 0 1.33 1.33 0 0 1-.76-1l-.25-.8a.13.13 0 0 1 .02-.11.09.09 0 0 0 .02-.07l-.06-.27a.16.16 0 0 1 .1-.03Z" fill="#F3B48E"/><path d="m12.4 8.44.05.27c0 .03 0 .05-.02.07a.13.13 0 0 0-.02.11l.25.8c.07.22.2.42.38.58l.05.05c.08.13.18.24.29.34 0 .04 0 .06-.03.06-.16-.09-.34-.13-.55-.13a.13.13 0 0 0 .02-.1.06.06 0 0 0-.03-.04.3.3 0 0 1-.1-.1l.03-.06.23.19a.04.04 0 0 0 .07-.03v-.03l-.22-.25v-.02c-.06-.1-.1-.22-.16-.31a2.69 2.69 0 0 1-.4-1.12h-.02c-.02 0-.03-.01-.05-.03.05-.02.09-.08.1-.2l.02-.03c.03-.04.06-.05.1-.02Z" fill="#D95D39"/><path d="M6.12 9.1c-.05.33-.07.65-.05.97 0 .03-.02.06-.05.1a1.23 1.23 0 0 1-.33-.56.1.1 0 0 1 0-.04l.03-.37.16-.62a.02.02 0 0 1 .05 0c.06.16.1.37.19.53Z" fill="#C95432"/><path d="m11.29 9.28-.29.28a.12.12 0 0 0-.03.12.12.12 0 0 0 .1.08h.02a.03.03 0 0 1 .02.02.04.04 0 0 1 0 .04l-.23.33.02-.07a.05.05 0 0 0-.02-.05l-.02-.01h-.02a.7.7 0 0 0-.35.26h-.01a.02.02 0 0 1-.02 0v-.03l.28-.34a.2.2 0 0 0 .04-.22.04.04 0 0 1 0-.04.04.04 0 0 1 .04-.02c.09-.02.15-.05.17-.12l.18-.48.3-.43a.02.02 0 0 1 .02 0h.01a.02.02 0 0 1 0 .01v.01l-.21.66ZM12.26 8.83c.06.36.19.7.38 1 .06.1.1.22.15.32l.01.02.21.25a.04.04 0 0 1-.06.06l-.23-.19a1.18 1.18 0 0 1-.32-.4c-.1-.26-.18-.57-.24-.94a.19.19 0 0 0-.04-.08l.14-.04Z" fill="#AB2F22"/><path d="m13.17 9.33.08.49-.09-.11a3.57 3.57 0 0 1-.34-.87c.12.11.3.33.35.49Z" fill="#768189"/><path d="m5.23 8.85.1.26c-.07.38-.2.73-.43 1.05a.63.63 0 0 1-.17-.23l.03-.35c0-.04.04-.06.07-.05l.17.08a.05.05 0 0 0 .07-.04l.16-.72Z" fill="#6BD8E2"/><path d="m11.92 8.9-.04.17a1 1 0 0 1-.2.35.16.16 0 0 1-.04.03.82.82 0 0 0-.38.34c-.07.18-.12.2.06.28a.44.44 0 0 1-.3.22c.03-.24-.24.44-.24.52l-.06-.15.16-.51c.21-.3.18-.2.1-.47a.12.12 0 0 1 .02-.12l.29-.28c.08-.07.18-.18.3-.34a.27.27 0 0 1 .16-.08.07.07 0 0 1 .07.02.1.1 0 0 0 .1.02Z" fill="#C95432"/><path d="M8.97 9.31c.13 0 .26.03.39.1a.1.1 0 0 1 .04.05.1.1 0 0 1 0 .06c-.08.2-.24.31-.5.33a.51.51 0 0 1-.19-.07.9.9 0 0 0 .62-.31.05.05 0 0 0-.04-.08l-.47-.06a.07.07 0 0 1-.05-.03c-.06-.06-.09-.12-.08-.16a.05.05 0 0 1 .05-.05l.18-.02a.02.02 0 0 0 .02-.03.02.02 0 0 0-.02-.02l-.4-.14c.06 0 .19.05.23.02.02-.02.04-.01.06 0v.02h.02l.4.06a.08.08 0 0 1 .05.13.08.08 0 0 1-.05.02l-.39.05a.03.03 0 0 0-.02.03v.02c.03.04.08.06.15.08Z" fill="#C57062"/><path d="M12.16 8.95c.06.37.14.68.25.94.05.13.16.27.3.4l-.02.06c-.2-.19-.32-.33-.36-.43a2.13 2.13 0 0 0-.23-.4c0-.17-.05-.45.06-.57Z" fill="#EA9F88"/><path d="M4.94 10.4a4.6 4.6 0 0 1-.91-.97L4 8.97l.94 1.44Z" fill="#5A6A72"/><path d="M11.85 9.43c-.2.13-.29.27-.45.48l-.12.05a.03.03 0 0 1-.04-.05.27.27 0 0 0 .02-.12.82.82 0 0 1 .38-.34l.05-.03a1 1 0 0 0 .19-.35c.05.06.04.18-.03.36Z" fill="#EA9F88"/><path d="M8.76 10.15a.2.2 0 0 0-.06-.06l-.21-.07-.45-.28a1 1 0 0 1-.15-.53.02.02 0 0 1 .03 0c.18.15.35.33.5.54.04.06.1.1.17.12l.05.02a1 1 0 0 1 .22.26.04.04 0 0 1-.05.05l-.05-.05Z" fill="#EAAD9B"/><path d="M13.54 10.47a.6.6 0 0 1-.14-.2l-.03-.03c0-.07.04-.07.13.02a.02.02 0 0 0 .02 0 .02.02 0 0 0 0-.03l-.27-.41-.08-.5c.5.3.63.69.37 1.15Z" fill="#2B617C"/><path d="M4.73 9.93c.04.09.1.16.18.23-.14.23-.3.42-.51.59-.27-.29-.35-.9-.37-1.32.77.9 0 .06.7.5Z" fill="#7DB6B7"/><path d="M6.44 10.31a.62.62 0 0 1-.42-.15c.03-.03.05-.06.05-.09l.15-.34a.04.04 0 0 1 .07 0c.06.06.1.14.13.24V10l.15.19a.05.05 0 0 1 0 .07.28.28 0 0 1-.13.06Z" fill="#87362A"/><path d="m13.25 9.82.28.41v.03a.02.02 0 0 1-.03 0c-.1-.09-.14-.1-.13-.02l-.21-.31v-.22l.09.1Z" fill="#9E9E9E"/><path d="M8.49 10.02c.06.34.3.24.24.85 0 .02 0 .04.02.06a.6.6 0 0 1 .13.27c-.23 0-.37.3-.47.3-.03 0-.05-.01-.07-.04l-.53-.54c.15.02.49-.44.4-.7-.05-.12-.06-.27-.13-.4l.07.04-.11-.12.45.28Z" fill="#17597C"/><path d="m5.96 10.23-.13-.02-.04.01a.05.05 0 0 0-.02.03c-.05.19-.15.31-.2.5-.11-.19-.19-.26-.23-.22 0-.04-.03-.06-.07-.06h-.02l-.04.04H5.09l-.01-.02v-.03a2.01 2.01 0 0 0 .43-.65.05.05 0 0 1 .06 0c.14.07.28.31.4.42Z" fill="#D95D39"/><path d="M11.9 11.65a.1.1 0 0 0 .08.03c.33-.04 1.45-.2.61.13-.32.12-.07.29.12.5l-.33.36-.32-.36a.1.1 0 0 0-.06-.04c-.25-.02-.26-.27-.01-.1a.04.04 0 0 0 .05-.01l.01-.02c.07-.36-.19-.35-.5-.49h-.04c-.06 0-.86-.49-.5-1.36.13-.02.23-.1.3-.22a.27.27 0 0 0 .1-.1c0-.02.04-.02.05 0h.25c-.13.75-.49 1.07.18 1.68Z" fill="#C23E2B"/><path d="M7.37 10.43c.03.18.16.33.38.43-.06.01-.06.06 0 .14a.67.67 0 0 0-.1.18c-.34.96.93.9 1.14 1.59.13.42.1.48.12.82l-.32-.04h.01a.03.03 0 0 0 .02-.02c.07-.35-.44-.94-.64-1.17-.59-.64-1.16-.46-1.04-.86.03-.1.17-.39.22-.46.03-.04.05-.1.05-.15 0-.06 0-.11-.02-.16a5.5 5.5 0 0 1-.25-.69c.04.04.08.07.13.08.03 0 .06.02.08.04l.22.27Z" fill="#88594A"/><path d="M8.7 10.09c-.03 0-.05 0-.08.03a.06.06 0 0 1-.07 0c-.03-.02-.05-.06-.06-.1l.2.07Z" fill="#619095"/><path d="M9.96 10.82c-.68.23-.5.38-.77.77-.06-.22-.5-.25-.11-1a.98.98 0 0 1 .11-.31.06.06 0 0 1 .06-.04c.42.03-.13 0 .52-.17a.05.05 0 0 1 .06.03c.13.22.18.46.13.72Z" fill="#AB2F22"/><path d="M5.96 10.23c.16.12.32.18.5.17l.16-.06h.04s.02 0 .02.02c.11.25.27.67.2.96-.1.39-.3.65-.74.66l-.05.01c-.01 0-.1.02-.08-.03-.22-.69.13-1.24-.5-1a.12.12 0 0 0-.05.04l-.13.27c-.1-.36.34-.64.44-1.02a.05.05 0 0 1 .06-.04l.13.02Z" fill="#87362A"/><path d="M11.01 10.3c-.1.25.1.96.35 1.14a6.4 6.4 0 0 1 .12.11c0 .44-.64-.05-.69-.33a.96.96 0 0 1 .19-.98v-.01a.02.02 0 0 1 .02 0c.01.02.02.04.01.06Z" fill="#6E261F"/><path d="M10.56 11.06a.1.1 0 0 1 .04.08c0 .15.05.28.15.39a.02.02 0 0 1 0 .02c-.01.04-.1.01-.13 0h-.03l-.65-.4a.07.07 0 0 0-.06-.02c-.08.03-.15.04-.22.08a.14.14 0 0 0-.05.03l-.22.24c-.04-.04-.06-.1-.06-.21-.03-.21.16-.78.2-.84a.1.1 0 0 1 .1-.03c.22.05.65.43.93.66Z" fill="#E3342D"/><path d="m5.29 10.6-.1.81-.04-.08a.05.05 0 0 0-.06-.01c-.26.14.07-.05-.3-.04-.03 0-.05 0-.07-.02a.41.41 0 0 0-.21-.06.35.35 0 0 1-.08-.2l.78-.41h.08Z" fill="#0176B1"/><path d="M12.8 10.6c.21-.01.4.03.55.12.24.13.3.24.2.3a.42.42 0 0 0-.2-.16.92.92 0 0 0-.55-.17.08.08 0 0 1-.06-.03.23.23 0 0 1-.04-.06.3.3 0 0 1 .1 0Z" fill="#F5CFBF"/><path d="M12.7 10.6c0 .02.02.05.04.06a.09.09 0 0 0 .06.03c.21 0 .4.06.55.17a.9.9 0 0 1-.62.24 2.5 2.5 0 0 0-.98.12l-.03-.04a.04.04 0 0 1 .02-.05c.27-.14.52-.3.74-.5l.21-.03Z" fill="#EA9F88"/><path d="M12.48 10.63a3.18 3.18 0 0 1-.76.52.04.04 0 0 0 0 .03l.03.04c.05.07.07.12.06.16v.04c.12.17.27.22.47.16h.01l.01-.02v-.03l-.02-.02h-.02c-.05 0-.08 0-.1-.02a.02.02 0 0 1 0-.02.02.02 0 0 1 .01-.02l.28-.01-.1.17a.06.06 0 0 1-.04.03l-.33.04a.1.1 0 0 1-.09-.03 1.09 1.09 0 0 1-.36-.98c.14.06.27.07.4.04.23-.07.41-.1.55-.08Z" fill="#C57062"/><path d="m10.72 10.66.06.14c.04.38-.04.74.43.89.04.01.02-.07.1 0l.18.24c-.14.06-.26.04-.35-.07l-.02-.02-.03.01c-.03.02-.06.02-.09-.01-.04-.04-.58-.47-.34-.84V11c0-.12.02-.23.06-.33Z" fill="#AB2F22"/><path d="M6 11.1c.03.06-.01.16-.12.3.04.01.03.03-.01.05a.3.3 0 0 1-.1-.06.08.08 0 0 0-.05-.02l-.06.01a.4.4 0 0 1-.16.06.08.08 0 0 0-.06.06c-.03.1-.02.18.02.25a.1.1 0 0 1 0 .07.38.38 0 0 1-.16.26l-.01-.07.04-.74.13-.27a.12.12 0 0 1 .05-.04c.1-.06.22-.09.36-.1a.07.07 0 0 1 .05.02c.04.03.08.04.14 0a.03.03 0 0 1 .04.02.03.03 0 0 1 0 .04c-.06.06-.1.11-.1.16Z" fill="#F8BB40"/><path d="m13.56 11.03-.09.18c-.02-.18-.68-.27-.13.25l-.34.52-.5-.15c.76-.3-.6-.03-.69-.17v-.28c0-.04-.01-.1-.06-.16.28-.1.6-.14.98-.12a.9.9 0 0 0 .62-.24c.08.03.15.08.2.17Z" fill="#F0C1B2"/><path d="m8.37 12.6-.86-.8a.1.1 0 0 1-.03-.04 1.66 1.66 0 0 1 .27-.76c1.1-.13 1.27 1.77.62 1.6Z" fill="#1BADCB"/><path d="m13.47 11.21-.13.25-.24-.23a.08.08 0 0 1-.02-.06.08.08 0 0 1 .03-.06l.1-.08a.13.13 0 0 1 .16 0c.06.05.1.1.1.18Z" fill="#FBF2E2"/><path d="M6.2 11.32c.09 1.1.42.2.76.31a.04.04 0 0 1 .02.04c0 .21-.15.33-.21.52l-.12.07c-.15.06-.29.12-.42.2-.12.05-.3.07-.52.04-.03-.02-.29.01-.25-.08.04-.07.66-1.07.42-1.02.1-.14.15-.24.11-.3.35.36-.2.3.2.22Z" fill="#FAC378"/><path d="M10.59 11.54c0 .1-.04.15-.14.18a.35.35 0 0 1-.03-.13v-.03a.05.05 0 0 0-.08-.01c-.04.03-.09.03-.15.01a.54.54 0 0 1-.39-.41.2.2 0 0 0 .08-.02.07.07 0 0 1 .06.01l.65.4Z" fill="#534359"/><path d="M5.2 11.41v.11h-.03a.04.04 0 0 0-.03.04l-.06.5c-.1-.09-.19-.2-.26-.33.05-.14-.01-.24-.18-.3l-.13-.23c.07 0 .14.02.2.06l.08.02a12.7 12.7 0 0 1 .36.05l.05.08Z" fill="#00D2E3"/><path d="M9.8 11.15c.05.2.17.34.39.41.06.02.11.02.15-.01l.03-.02c.08 0 .06.15.08.2.02.01.02.04 0 .06l-.44-.18a.07.07 0 0 1-.03-.03c-.04-.05-.1-.07-.17-.04-.03 0-.1.04-.2.1h-.06c-.1-.02-.16-.07-.16-.16l.22-.24a.15.15 0 0 1 .05-.03l.14-.06Z" fill="#9291A3"/><path d="m8.88 11.2.07.02a.2.2 0 0 1 .07.03c.02.04.03.08 0 .1l-.03.06c.32.25.32.09-.06.74H8.9c.03.32-.02.55-.14.7-.03-.02-.06-.01-.08 0 0-.2-.17.12-.21.01l-.1-.2c.05-.24.11-.47.2-.7.04-.14.04-.36-.02-.64.1-.08.21-.12.33-.12Z" fill="#6BD8E2"/><path d="m5.87 11.45-.45.93a.12.12 0 0 1-.1-.04.08.08 0 0 1-.02-.04.54.54 0 0 1 0-.22.38.38 0 0 0 .17-.26.1.1 0 0 0-.01-.07c-.15-.29.05-.26.2-.37a.08.08 0 0 1 .06-.01c.01 0 .03 0 .05.02a.3.3 0 0 0 .1.06Z" fill="#FCDC8C"/><path d="m4.82 11.73-.18-.3c.17.06.23.16.18.3Z" fill="#6BD8E2"/><path d="m5.2 11.52.01.65c0 .1-.04.06-.13-.1l.06-.51a.04.04 0 0 1 .03-.03h.02Z" fill="#93D5CB"/><path d="M10.62 11.56c.13.07.26.17.38.28.03.03.06.03.1.01h.04c.09.12.2.14.35.08l.28.18c.04.1.12.15.23.16.03 0 .05.02.06.04l.32.36c-.03.05-.07.08-.1.07a12.4 12.4 0 0 0-1.83-.95c.02-.02.02-.05 0-.07.1-.03.14-.09.14-.18l.03.02Z" fill="#86555C"/><path d="M9.47 11.69v.02c0 .02-.01.04-.03.05l-.38.35c-.07.04-.11.05-.13.04-.02-.23.05-.4.21-.53.12-.1.23-.08.33.07Z" fill="#F5CFBF"/><path d="M12.1 12.9c-.9.7-1.98 1.07-3.1 1.1-.63.02.02-1.9.16-2.03.12-.12.28-.16.39-.3.08-.05.22 0 .33 0h.08c.44.2.72.3 1.15.56l.58.32c.09.05.23.16.41.35Z" fill="#E3342D"/><path d="m11.77 12.11-.28-.18-.18-.24s0-.02.02-.03h.03c.04.03.09.03.13 0a.06.06 0 0 1 .05 0l.46.18a.14.14 0 0 1 .08.15l-.03.15a.04.04 0 0 1-.02.03.04.04 0 0 1-.04 0 .35.35 0 0 0-.22-.06Z" fill="#EA9F88"/><path d="m12.5 11.83.5.15-.29.33-.35-.4a.02.02 0 0 1 0-.01v-.01l.14-.06Z" fill="#FAE0CC"/><path d="M7.12 12.17h.03a.5.5 0 0 0-.15.28c-.16.08-.2.12-.1.11-.06.02-.1.03-.11.06-.02.02 0 .05.07.07.07.02.12.06.14.12-.26-.12-.47-.11-.62.01-.03.02-.06.03-.1.01v-.04c0-.02.02-.03.04-.04.16-.04.3-.17.41-.38.03-.06.09-.1.17-.1.05 0 .13-.03.22-.1Z" fill="#E48843"/><path d="m8.9 12.15.03.46c0 .11 0 .18-.05.2-.04.02-.05.06-.02.1.05.11.06.2.01.29l-.1.07a.04.04 0 0 1-.03 0c-.03 0-.04-.01-.03-.03l.05-.4c.12-.14.17-.37.14-.7Z" fill="#1BADCB"/><path d="M8.64 13.29c-.3-.12-.52-.34-.78-.46-.22-.1-.48-.14-.6-.4l.33-.2a.12.12 0 0 1 .06-.02.4.4 0 0 1 .33.15c.29.32.5.63.66.93Z" fill="#F0C1B2"/><path d="M5.79 12.8a.61.61 0 0 1-.25-.2c.9-.54 1.28-.49.25.2Z" fill="#E48843"/><path d="M7.26 12.44c.12.25.38.29.6.4.26.11.48.33.78.45.01 0 .02.02.01.04l-.01.02h-.02l-.88-.17a.1.1 0 0 1-.03-.01L7 12.8a.23.23 0 0 0-.15-.12c-.07-.02-.09-.05-.07-.07.01-.03.05-.04.11-.06l.36-.12Z" fill="#EAAD9B"/><path d="m7 12.8.7.37h.04l.88.18a.32.32 0 0 0 0 .16.03.03 0 0 1-.02.04H8.4l-.56-.14a.58.58 0 0 1-.4-.16l-.6-.3a.12.12 0 0 0-.07-.02l-.42.05h-.08l-.01-.01a.11.11 0 0 0-.04-.06c.04 0 .06-.02.07-.08.04.02.07.01.1 0 .15-.13.36-.14.62-.02Z" fill="#1BADCB"/><path d="M7.43 13.25c.05.35.24.37.57.48.24.08.4.04.57-.13l.02-.01a.04.04 0 0 1 .05.02v.02c0 .12.06.18.17.19a.07.07 0 0 1 .06.04.2.2 0 0 1 0 .13 4.7 4.7 0 0 1-2.56-.8v-.04l.03-.17.42-.05.07.01.6.3Z" fill="#E8E5E8"/><path d="m8.4 13.55.5.04.01.2v.1c.01.08 0 .1-.04.1a.2.2 0 0 0 0-.13.07.07 0 0 0-.06-.04c-.1 0-.16-.07-.17-.2a.04.04 0 0 0-.02-.03.04.04 0 0 0-.05.01c-.17.18-.33.2-.57.13-.33-.11-.52-.13-.57-.48.12.1.25.16.4.16l.56.14Z" fill="#CFDBD4"/><path d="m8.76 7.3-.04.26a.05.05 0 0 0 .01.05c.05.04.05.1 0 .19a.05.05 0 0 1-.07.02l-.21-.12a.08.08 0 0 1-.03-.1l.2-.35a.08.08 0 0 1 .14.06Z" fill="#F5CFBF"/><path d="M9.9 9.45h.01c.03.04.03.1 0 .16a.47.47 0 0 1-.15.18l-.05.04a.54.54 0 0 1-.1.06.4.4 0 0 1-.11.03h-.1a.12.12 0 0 1-.06-.05.01.01 0 0 1 0-.02l.55-.4Z" fill="#92504A"/></svg>