<!-- by TradingView --><svg width="18" height="18" fill="none" xmlns="http://www.w3.org/2000/svg"><path fill="#511732" d="M0 0h18v18H0z"/><path fill-rule="evenodd" clip-rule="evenodd" d="M9 4a5 5 0 1 0 0 10A5 5 0 0 0 9 4Zm-.625 4.688H7.75V5.25H10v.627H8.375v.975h1.54v.601h-1.54v1.235Zm0 4.062H7.75V9h1.451c.79 0 1.257.431 1.257 1.162v.005c0 .478-.246.876-.636 1.035l.74 1.548H9.73l-.655-1.435h-.7v1.435Zm0-3.158v1.146h.746c.365 0 .584-.214.584-.571v-.005c0-.348-.23-.57-.594-.57h-.736Z" fill="#fff"/></svg>