<!-- by TradingView --><svg width="18" height="18" fill="none" xmlns="http://www.w3.org/2000/svg"><path fill="#193E75" d="M0 0h18v18H0z"/><path d="M6.365 12c1.363 0 2.269-.7 2.269-1.736v-.008c0-.788-.566-1.286-1.432-1.367v-.024c.684-.14 1.218-.61 1.218-1.334v-.008C8.42 6.611 7.61 6 6.353 6c-1.225 0-2.046.66-2.127 1.664l-.004.048h1.12l.004-.036c.049-.45.437-.744 1.007-.744.574 0 .91.282.91.752v.008c0 .47-.396.792-1.007.792h-.65v.864h.666c.704 0 1.12.305 1.12.86v.008c0 .474-.404.807-1.03.807-.631 0-1.044-.309-1.097-.723l-.008-.044H4.093l.004.052c.08 1 .946 1.692 2.268 1.692ZM11.65 12c1.335 0 2.257-.824 2.257-2.037v-.009c0-1.093-.8-1.884-1.908-1.884-.59 0-1.072.237-1.315.627h-.024l.159-1.734h2.754v-.964H9.848l-.284 3.505h1.064c.068-.12.161-.233.279-.321.198-.157.453-.245.752-.245.63 0 1.08.43 1.084 1.04v.009c0 .618-.45 1.053-1.088 1.053-.562 0-.97-.338-1.056-.776l-.008-.028H9.463l.004.06c.073.969.914 1.704 2.184 1.704Z" fill="#fff"/></svg>