<!-- by TradingView --><svg width="18" height="18" viewBox="0 0 18 18" xmlns="http://www.w3.org/2000/svg"><path fill="#CE0000" d="M0 0h18v18H0z"/><path d="M8.94 4c2.74 0 3.56 1.6 3.56 2.93V11h1v2h-1.2c-.87 0-1.71-.52-2.1-1.26-.32.6-1.08 1.26-2.61 1.26-2.11 0-2.6-1.61-2.59-2.42C5 8.6 7.05 8.04 8.08 8H10v-.47c.05-.5.02-1.52-1.35-1.52-1.06 0-1.64.68-1.79 1.03l-1.5-1.35C5.64 5.13 6.75 4 8.94 4ZM8.9 9.33c-.02 0-1.4.04-1.4 1.06 0 1.03 1.27.99 1.3.99.58 0 .97-.25 1.2-.51V9.33H8.9Z" fill="#FEFEFC"/></svg>