<!-- by TradingView --><svg width="18" height="18" viewBox="0 0 18 18" xmlns="http://www.w3.org/2000/svg"><path fill="#15182B" d="M0 0h18v18H0z"/><path d="M11.5 10.77V11h-1.08l-.02-.02-.01-.02-.02-.02v-.19l-.01-.01a.05.05 0 0 0-.04 0c-1.54.71-3.14-.1-3.32-1.64a.36.36 0 0 0 0-.18c.13-1.55 1.77-2.37 3.31-1.66a.05.05 0 0 0 .04 0l.02-.02v-.18l.02-.04.05-.02h.99l.05.02.02.05v3.7ZM10.38 9a1 1 0 0 0-.34-.74c-.22-.2-.51-.3-.82-.3-.3 0-.6.1-.82.3a1 1 0 0 0-.34.74 1 1 0 0 0 .34.74c.22.2.51.3.82.3.3 0 .6-.1.82-.3a1 1 0 0 0 .34-.74Z" fill="#fff"/><path d="M4.61 6.6A5.2 5.2 0 0 1 8.5 4.04c.9-.11 1.83.01 2.8.38.3.1.49.24.58.4.3.53-.05 1.14-.68 1.17-.27 0-.5-.15-.8-.25a3.7 3.7 0 0 0-4.2 1.34c-.1.12-.17.19-.24.2-.3.1-1.11-.46-1.32-.6a.06.06 0 0 1-.03-.03V6.6Z" fill="url(#a)"/><path d="m7.5 12.06-.45.1-.02.02c-.45.24-.55.6-.33 1.1a.3.3 0 0 1-.24-.03 4.88 4.88 0 0 1-2.37-5.27c.06-.34.16-.61.48-.76a.82.82 0 0 1 1.14.5c.04.12.03.28-.01.5-.2.88-.07 1.77.39 2.51a4 4 0 0 0 1.4 1.33Z" fill="url(#b)"/><path d="M12.85 10.03c.27.47.65.82 1.15 1.04a.36.36 0 0 0-.12.2l-.04.08c-.14.17-.25.4-.36.54a5.29 5.29 0 0 1-5.27 2.02c-.42-.08-1.28-.28-1.5-.62-.23-.5-.13-.87.32-1.11l.02-.01.45-.11a3.7 3.7 0 0 0 5.06-1.73.1.1 0 0 1 .05-.01h.04c.01 0 .03 0 .04-.02a.07.07 0 0 0 .03-.04.55.55 0 0 1 .13-.23Z" fill="url(#c)" fill-opacity=".99"/><defs><linearGradient id="a" x1="11.21" y1="5.42" x2="6.57" y2="9.21" gradientUnits="userSpaceOnUse"><stop stop-color="#01FE00"/><stop offset="1" stop-color="#019800" stop-opacity="0"/></linearGradient><linearGradient id="b" x1="4" y1="8.28" x2="5.61" y2="13.34" gradientUnits="userSpaceOnUse"><stop stop-color="#8C46FB"/><stop offset="1" stop-color="#532A95" stop-opacity="0"/></linearGradient><linearGradient id="c" x1="7.55" y1="12.82" x2="13.46" y2="12.17" gradientUnits="userSpaceOnUse"><stop stop-color="#FE0172"/><stop offset="1" stop-color="#980144" stop-opacity="0"/></linearGradient></defs></svg>