<!-- by TradingView --><svg width="18" height="18" viewBox="0 0 18 18" xmlns="http://www.w3.org/2000/svg"><path fill="#E5E6E7" d="M0 0h18v18H0z"/><path fill-rule="evenodd" d="M1.1 9a7.9 7.9 0 1 1 15.8 0A7.9 7.9 0 0 1 1.1 9ZM9 1a8 8 0 1 0 0 16A8 8 0 0 0 9 1ZM1.43 9a7.57 7.57 0 1 1 15.14 0A7.57 7.57 0 0 1 1.43 9ZM9 1.32a7.68 7.68 0 1 0 0 15.36A7.68 7.68 0 0 0 9 1.32ZM6.39 4.3c.22.07 1.72-.03 1.72-.03s-.04.47.14.48c.17.02.3-.13.44-.26.07-.08.13-.15.2-.19l.25-.13.12-.06c.93-.48 1.8-.9 2.85-1.06.7-.11 1.55.1 2.13.52.76.55.38 2.37 0 3.1-.07.2-.15.38-.23.56-.14.3-.27.6-.33.93l-.13-.21c-.13-.21-.27-.43-.31-.67-.02-.07.04-.13.1-.09.11.06.22.13.31.2.02.02 0 .1 0 .17-.02.09-.04.17.02.08.58-.91 1.34-3.24.38-4.1a3.11 3.11 0 0 0-2.07-.39A7.6 7.6 0 0 0 8.9 4.45c-.35.23-1.4 1.4-1.63 1.76a13.4 13.4 0 0 0-1.64 3.73c-.49 1.72 2.03 2.5 2.05 1.55 0-.12-.17-.26-.32-.38l-.14-.13-.1-.1c-.17-.17-.36-.37-.38-.6.34-.26.29-.76.24-1.21-.04-.34-.07-.64.06-.8l.17-.14.13-.11c.11-.1.27-.1.42-.1l.15-.01-.01.07c-.01.05-.02.1 0 .14 0 .05.05.1.1.14.1.06.09-.1.08-.17v-.02l.41.26c.03-.16-.2-.32-.39-.46-.11-.07-.21-.15-.26-.21-.16-.07-.5.04-.5.23-.03.28-.42-.04.1-.24.17-.07.13-.22.08-.38-.02-.12-.06-.23-.02-.33.1.34.4.75.78.78l.04-.03.01-.02c-.36-.3.01-.3.3-.3l.22-.01c.29-.09.48-.3.6-.55h.02l.02-.01c.02.09.04.18 0 .26-.11.18-.62.65-.85.47-.28.22.04.77.3 1.21.24.4.43.72.1.67l-.25-.04a3.33 3.33 0 0 0-.13-.17c-.02.42-1.28.14-1.28-.43-.01-.53-.22-.69-.27-.12-.03.29.04.54.3.72.14.1.26.22.38.33.19.18.37.36.63.47.24.1.4.03.54-.16.17.29-.35.4-.53.38-.16-.03-.44.94-.62 1.54-.06.2-.1.36-.13.42-.28.7-.83 1.96-1.66 2.15-.08.02-.03-.13 0-.15.74-.4 1.26-1.33 1.48-2.11.02-.08-.01-.11-.08-.11-.71 0-1.46-.01-1.86-.77-.32-.6-.2-1.37 0-1.99.2-.62.5-1.21.8-1.8l.47-1c.18-.4-.04-1.31-.47-.65-.17.25-.35.64-.4.94l-.1.43-.03.02-.03.02c-.07-.32.13-.78.28-1.15l.13-.3c.05-.16-.3-.45-.52-.64l-.16-.13a1.34 1.34 0 0 0-.59-.38.48.48 0 0 1-.3-.2l-.15-.16c-.06-.05-.11-.1-.16-.18-.02-.04-.1-.07-.15-.07a.59.59 0 0 1-.28-.06 1.4 1.4 0 0 0-.1-.04c-.1-.03-.11-.22-.02-.3.6-.5 1.6-.56 2.37-.6l.14-.02a6.61 6.61 0 0 0-2.42.64c.06.13.12.16.24.12a9.3 9.3 0 0 1 2.92-.44c.07 0 .21.1 0 .07-.76-.08-1.43.09-2.13.26l-.65.15c.1.1.21.1.32.08l.41-.07c.36-.06.72-.13 1.09-.17 0 .02 0 .03-.02.03l-.35.06c-.36.05-.73.1-1.07.23l-.13.07-.05.04v.04l.08.03c.05.02.1.04.15.04l.67-.12c.66-.12 1.33-.25 2.06-.13v.03c-.28 0-.56.03-.84.06-.1.01-.14.09-.17.16l-.01.02h-.01c-.02 0-.03-.01-.03-.02-.11-.23-.81-.07-1.24.02l-.29.06a.13.13 0 0 0-.09.07c0 .02.03.07.06.09.08.07.19.07.29.06.44-.03.88-.08 1.33-.13v-.03l-.02-.12Zm6.5 5.02c.15 0 .52.05.56.25l.03.1c.05.15.1.34-.04.29a.91.91 0 0 1-.06-.03c-.05-.02-.11-.05-.16-.04l-.22.08-.14.07c-.42.14-.51.26 0 .16.11-.03.19 0 .27.04.06.03.11.05.18.06.13.01.27.26.08.24h-.08c-.07-.02-.15-.02-.22-.02-.13 0-.18.14-.04.19h.04c.1.04.31.1.3.14-.04.14-.04.26-.05.37 0 .27-.01.43-.62.48-.62.04-1.54.1-2.01-.36-.4-.38-.99 0-.27.52l.21.16c.25.18.5.36.78.49.45.2 1.8-.16 2.04-.68l.04-.07c.05-.12.1-.23.06-.39l-.03-.1-.1-.32c-.03-.08 0-.17.04-.25.05-.14.1-.28-.04-.42.23-.2.16-.47.06-.71-.02-.05-.01-.08.05-.1.05-.02.73-.33.59-.43-.12-.1-.4-.07-.59-.06l-.13.01c-.19 0-.36.06-.5.22 0 0-.05.11-.03.11Zm-.56-3.55c-.08-.1-.11-.15-.11-.02-.08-.24-.2-.27-.3-.3-.1-.02-.16-.04-.06-.35l-.01-.05-.01-.04-.07.1c-.04.05-.08.1-.1.17l-.05.08c-.05.08-.1.15-.01.25v.02c.01.1.06.15.16.14v.03l.03.05c0 .02.02.03.04.05l.02.02c.08.08.1.23.04.29l-.05.04-.03.04-.09-.06c.02-.22-.05-.4-.27-.37l-.08.15h.07l.12.03c.06.03.1.08.08.17l-.08-.12-.28.24-.02-.02.15-.2c-.06-.07-.13-.06-.2-.04h-.03l-.09.02c-.16.03-.32.06-.47-.05h-.02c0 .14.08.16.18.18.04 0 .08.01.11.03l-.25.14v.02l.02.08c.05.15.02.26-.12.34a2.1 2.1 0 0 0-.2.13c-.09.07-.12.16-.08.24l.03-.03a.26.26 0 0 1 .07-.05c.03-.02.08-.03.1-.01.06.05.1.02.12-.03.09-.17.17-.34.15-.53 0-.1 0-.11.1-.07l.02-.02.03-.03c.07-.1.15-.1.23-.01.04.05.1.08.17.05l.14-.09h.02c.04-.04.08-.05.13-.02.11.08.26.04.33-.08.04-.07.18-.13.27-.11.1.01.18.06.26.1l.1.05c.1.05.21.09.32.12l.2.07c.24.1.47.1.7 0 .12-.05.2-.14.24-.25a.72.72 0 0 0-.03-.57v.14c.01.2.02.4-.2.54-.85.21-1.26-.35-1.44-.6ZM9.59 7.06c.04.11.04.12-.07.16.14.17.3.31.47.46l.18.16a.7.7 0 0 0 .45-.2l-.01-.02c-.36.04-.65-.15-.67-.51l-.06.18c-.07-.15.02-.26.11-.38a.57.57 0 0 0 .13-.22c-.21.05-.28.29-.33.48l-.02.05h-.04a1 1 0 0 0-.01-.13c-.03-.14-.04-.24.24-.46a2.97 2.97 0 0 0 .34-.3c-.15-.06-.29 0-.42.04l-.02-.02.21-.21.1-.11V6c-.28.08-.34.12-.51.36h-.03c.05-.18.15-.4.3-.49l.1-.05.03-.03-.01-.02h-.16c-.2.05-.38.05-.57.03a.63.63 0 0 1-.14-.04.42.42 0 0 0-.2-.04l.01.05c.01.1.02.14 0 .18-.01.04-.06.07-.16.13l-.04.03c.13.06.24-.01.34-.08.07-.05.14-.1.2-.09.05 0 .08.04.11.08l.05.04v.01h.02l.03-.04c.03-.05.07-.13.12-.13.07-.02.03.08.01.1l-.05.07c-.09.12-.18.26-.04.42-.04.05-.01.1.01.14.02.04.04.08.01.12-.06.1-.05.2-.01.3Zm2.24-2.17-.05.02a.2.2 0 0 1-.08.03c-.08 0-.13.04-.17.1a.54.54 0 0 0 0 .63v.04l.01.02h-.06c-.07-.01-.11-.06-.16-.11l-.07-.08v-.43c0-.02-.03-.06-.05-.07l-.15-.05c-.1-.04-.2-.08-.3-.05a.4.4 0 0 1-.04 0l-.05.02c-.12.04-.12.06-.05.16.08.1.07.2.04.31-.05.14-.15.2-.3.19 0-.02.02-.03.03-.05a.85.85 0 0 1 .08-.09c.08-.07.1-.18.04-.26a.38.38 0 0 0-.45-.16l-.24.1-.07.07a.65.65 0 0 1-.03.04l.01.02.06-.03.14-.06a.5.5 0 0 1 .16-.04c.06 0 .14 0 .16.04.06.1.05.2-.04.26a1.45 1.45 0 0 1-.61.24l-.1.02a.46.46 0 0 1-.35-.03c.35 0 .65-.1.94-.23l-.01-.03-.3.08-.01-.01.17-.12-.02-.02-.03.01-.09.04-.01.01c-.07.04-.14.08-.2 0-.05-.06 0-.12.04-.18l.01-.01c.12-.16.5-.28.69-.22l.07.04.04.03-.02-.07a.68.68 0 0 1 .7-.07l.02-.04-.08-.03.05-.04c.15-.13.3-.25.53-.2 0-.14.11-.2.22-.26l.03-.02h.07v.02l-.04.04-.05.06a.75.75 0 0 0-.09.1c-.06.1-.04.18.06.32Zm-.47.1-.1.05c-.04-.02-.06-.06-.03-.13l.01-.01c.04-.09.08-.17.16-.22.06-.03.12-.07.18 0 .03.04 0 .15-.06.19l-.16.11Zm-.06 2.57c.05.06.54-.24.6-.27.2-.13.26-.04.33.06.06.1.13.2.32.14h.01c.04-.01.09-.02.1-.05.07-.1.11-.2.16-.32.01-.02 0-.07-.02-.08l-.45-.24h-.06c-.22-.02-.43.04-.63.14-.17.1-.38.35-.38.55 0 .02 0 .05.02.07Zm2-2.34c.21.27.21.53-.02.78-.12.13-.34.02-.22-.13.07-.07.06-.29-.01-.4a1.97 1.97 0 0 1-.13-.24c.28-.01.35.32.18.72.25-.11.3-.28.17-.5l-.2-.3c-.03-.04-.07-.05-.12-.03h-.2l-.14.2a.44.44 0 0 0-.03-.04c-.02-.02-.04-.04-.04-.07 0-.03.04-.08.07-.1.33-.16.62-.61.13-.87-.39-.2-.6.2-.7.5-.19-.08-.12-.18-.04-.28.05-.07.1-.14.05-.2l.03-.02c.03-.03.05-.06.12-.04.04.01.1 0 .15-.03l.07-.02c.22-.06.53.1.58.3.04.16.07.15.11.14.04-.01.1-.03.19.05.18.15.62.9.5 1.03 0-.3-.24-.39-.47-.48l-.03.03ZM3.5 12.7l1.4-1.01.03.04-1.38 1 .02.02-.04-.02-.02-.03Zm.4.05 1.15-.84.04.05-1.07.78.34.25-.21.16-.52-.36.5.33.16-.11-.4-.26Zm.14-2.55a.48.48 0 0 0-.28 0 .43.43 0 0 0-.23.14.5.5 0 0 0-.1.24.46.46 0 0 0-.2-.13.4.4 0 0 0-.24 0 .44.44 0 0 0-.35.37c0 .08 0 .18.03.28.02.1.07.2.12.26.06.07.13.12.21.15.08.03.18.03.28 0a.4.4 0 0 0 .2-.13.46.46 0 0 0 .1-.2l.1.09a.45.45 0 0 0 .38.07c.1-.03.19-.08.25-.15.06-.07.1-.15.1-.25.02-.1.01-.2-.02-.3a.77.77 0 0 0-.13-.28.48.48 0 0 0-.22-.16Zm-.49.94.01-.03a.56.56 0 0 0 .12.1c.05.04.1.06.17.07.06.01.13 0 .2-.01a.46.46 0 0 0 .35-.37.66.66 0 0 0-.03-.28.65.65 0 0 0-.13-.26.46.46 0 0 0-.2-.14.47.47 0 0 0-.28 0 .42.42 0 0 0-.22.13.48.48 0 0 0-.1.23l-.01.03-.01-.02a.45.45 0 0 0-.2-.12.4.4 0 0 0-.23 0 .47.47 0 0 0-.22.12.42.42 0 0 0-.11.22.6.6 0 0 0 .01.26c.03.1.07.18.12.24a.43.43 0 0 0 .47.13.4.4 0 0 0 .2-.12.44.44 0 0 0 .1-.18Zm.26-.71a.34.34 0 0 0-.15.08.3.3 0 0 0-.08.14.35.35 0 0 0 0 .18c.02.06.05.12.09.16.04.04.08.06.14.07.05.02.1.02.17 0a.35.35 0 0 0 .15-.08.27.27 0 0 0 .08-.14.4.4 0 0 0-.01-.18.38.38 0 0 0-.08-.16.26.26 0 0 0-.13-.08.34.34 0 0 0-.18.01Zm.01.1a.29.29 0 0 0-.12.07.21.21 0 0 0-.06.11.26.26 0 0 0 0 .13.22.22 0 0 0 .17.18.3.3 0 0 0 .14-.01.3.3 0 0 0 .12-.06.22.22 0 0 0 .07-.11.27.27 0 0 0 0-.13.26.26 0 0 0-.07-.12.2.2 0 0 0-.1-.06.3.3 0 0 0-.15 0Zm-.77.14a.3.3 0 0 0-.13.08.27.27 0 0 0-.08.12.29.29 0 0 0 0 .16c.02.05.04.1.08.13.03.04.07.06.12.07h.16c.06-.02.1-.04.14-.08a.26.26 0 0 0 .07-.12.3.3 0 0 0 0-.16.3.3 0 0 0-.07-.13.26.26 0 0 0-.13-.07.31.31 0 0 0-.16 0Zm.05.1a.28.28 0 0 0-.12.06.19.19 0 0 0-.05.2c0 .04.03.08.05.1.03.03.06.04.1.05a.3.3 0 0 0 .12-.01.3.3 0 0 0 .12-.05.2.2 0 0 0 .06-.1.2.2 0 0 0 0-.11.19.19 0 0 0-.16-.15.3.3 0 0 0-.12.01Zm-.8-2.18h.18l1.58.59v.03l-1.6-.62h-.13l.06 1.16.18-.01-.05-.93 1.55.63v.1l-1.48-.6.04.86-.27.01L2.3 8.6Zm.65-2.08-.02.04a.92.92 0 0 0-.12.36.8.8 0 0 0 .03.34c.04.1.1.2.18.3.08.1.18.17.3.24l.12.07c.09.05.18.08.26.1h.26a.57.57 0 0 0 .38-.3.61.61 0 0 0 .08-.23A.53.53 0 0 0 4.3 7a.65.65 0 0 0-.18-.15.8.8 0 0 0-.21-.09.57.57 0 0 0-.21 0 .44.44 0 0 0-.33.23.51.51 0 0 0-.07.2v.14l.01-.13a.56.56 0 0 1 .21-.34.44.44 0 0 1 .2-.07l.2.01a.73.73 0 0 1 .37.22c.05.05.09.11.1.18.03.07.04.13.04.2-.01.08-.03.15-.08.23a.5.5 0 0 1-.17.18.52.52 0 0 1-.21.08.7.7 0 0 1-.24-.02.84.84 0 0 1-.22-.09l-.09-.05c-.1-.05-.2-.12-.29-.2a.95.95 0 0 1-.21-.27.65.65 0 0 1-.08-.32c0-.12.05-.26.13-.4l.01-.02.16.1v.01c-.06.1-.1.2-.1.28 0 .09 0 .16.04.23.03.07.08.14.13.2l.12.08a.41.41 0 0 1-.02-.05.5.5 0 0 1-.2-.27.5.5 0 0 1 0-.22.68.68 0 0 1 .08-.23l.01-.02-.24-.13Zm.66 1.1c.07.04.13.06.2.07.05.02.1.02.16.01.05 0 .1-.02.13-.05a.3.3 0 0 0 .13-.22c0-.04 0-.09-.02-.13a.37.37 0 0 0-.08-.11.56.56 0 0 0-.27-.15.4.4 0 0 0-.14-.02.28.28 0 0 0-.22.15.34.34 0 0 0-.04.17c0 .06.01.11.03.16l.05.08.07.04Zm-.06-.08.1.05.15.06c.05.02.09.02.13.02l.1-.04a.25.25 0 0 0 .1-.19c0-.03 0-.06-.02-.1a.3.3 0 0 0-.06-.1.45.45 0 0 0-.1-.07.45.45 0 0 0-.13-.05.3.3 0 0 0-.11 0 .23.23 0 0 0-.17.11.27.27 0 0 0 .02.3Zm1.54 5.82c0-.04.05-.06.09-.06l.24.05c.04 0 .07.04.06.08l-.04.25c-.01.04-.05.06-.09.06l-.24-.05a.07.07 0 0 1-.06-.08l.04-.25Zm.02.03c0-.04.04-.07.08-.06l.2.03c.04 0 .06.05.06.09l-.04.2c0 .03-.04.06-.08.05l-.2-.03a.07.07 0 0 1-.06-.09l.04-.2ZM4 5.64a.07.07 0 0 0-.07.07v.25c0 .04.03.07.07.07h.25c.04 0 .07-.03.07-.07v-.25a.07.07 0 0 0-.07-.07H4Zm.02.02a.07.07 0 0 0-.07.07v.2c0 .04.03.07.07.07h.2c.04 0 .07-.03.07-.07v-.2a.07.07 0 0 0-.07-.07h-.2Z" fill="#282829"/></svg>