<!-- by TradingView --><svg width="18" height="18" viewBox="0 0 18 18" fill="none" xmlns="http://www.w3.org/2000/svg"><path fill="#F0F3FA" d="M0 0h18v18H0z"/><path d="M4 7.32c0-.18.14-.32.32-.32h1.64c.09 0 .17.04.23.1l1.6 1.68c.12.12.12.32 0 .44l-1.6 1.68a.32.32 0 0 1-.23.1H4.32a.32.32 0 0 1-.32-.32V7.32Z" fill="url(#avnixy0zg)"/><path d="M14 7.32a.32.32 0 0 0-.32-.32h-1.64a.32.32 0 0 0-.23.1l-1.6 1.68a.32.32 0 0 0 0 .44l1.6 1.68c.06.06.14.1.23.1h1.64c.18 0 .32-.14.32-.32V7.32Z" fill="url(#bvnixy0zg)"/><rect x="9" y="9.45" width="3.22" height="3.22" rx=".32" transform="rotate(45 9 9.45)" fill="#357BBD"/><mask id="cvnixy0zg" fill="#fff"><rect x="9" y="4" width="3.22" height="3.22" rx=".32" transform="rotate(45 9 4)"/></mask><rect x="9" y="4" width="3.22" height="3.22" rx=".32" transform="rotate(45 9 4)" stroke="#D2363F" stroke-width="1.29" mask="url(#cvnixy0zg)"/><defs><linearGradient id="avnixy0zg" x1="6" y1="7" x2="6" y2="11" gradientUnits="userSpaceOnUse"><stop stop-color="#8D8C8F"/><stop offset="1" stop-color="#2A2726"/></linearGradient><linearGradient id="bvnixy0zg" x1="12" y1="7" x2="12" y2="11" gradientUnits="userSpaceOnUse"><stop stop-color="#8D8C8F"/><stop offset="1" stop-color="#2A2726"/></linearGradient></defs></svg>