<!-- by TradingView --><svg width="18" height="18" viewBox="0 0 18 18" xmlns="http://www.w3.org/2000/svg"><path fill="#F0F3FA" d="M0 0h18v18H0z"/><path d="M10 13V5h3.36c.7 0 1.36.35 1.75.94.58.86.27 2.04-.65 2.52l-.75.38.85.05c.92.06 1.63.83 1.63 1.75v.04c0 1.06-.77 1.96-1.82 2.12-.85.13-1.7.2-2.57.2H10Z" fill="#C5C5C5"/><path d="M7.25 5.2c-.38-.13-.79-.2-1.2-.2H3v.63l4.25-.44ZM3 6.38v-.67h5.28l.11.13L3 6.38ZM3 7.05v-.57h5.7v.02L3 7.05ZM3 7.74v-.57h5.7l-.01.02L3 7.74ZM3 8.43v-.57h5.33l-.06.06-5.27.5ZM3 9.12v-.57h4.24l-.35.2L3 9.11ZM3 10.2v-.1l5.3-.51c.14.17.25.37.33.58L3 10.2ZM3 10.88v-.09l5.66-.55c.06.2.1.4.1.6L3 10.88ZM3 11.56v-.08l5.76-.56v.6L3 11.56ZM3 12.35v-.22l5.74-.5c-.05.27-.16.52-.32.72H3ZM8.35 12.43c-.3.35-.75.57-1.25.57H3v-.07l5.35-.5ZM7.54 9.01c.25.11.47.27.65.46l-4.74.03 4.09-.49Z" fill="#9A4115"/></svg>