<!-- by TradingView --><svg width="18" height="18" viewBox="0 0 18 18" xmlns="http://www.w3.org/2000/svg"><path fill="#272558" d="M0 0h18v18H0z"/><path d="M4.16 11.7c.3-.13.37.11.48.27a5.56 5.56 0 0 0 2.86 1.97c.33.1.66.16 1 .18l.33.03a5.63 5.63 0 0 0 3.74-1.33c.37-.32.68-.69.95-1.09.03-.03.04-.05.08-.05h.24a5.67 5.67 0 0 1-9.68.02ZM13.43 5.69c-.12.02-.23.06-.33 0a.82.82 0 0 1-.18-.18 5.2 5.2 0 0 0-3.37-1.62 5.58 5.58 0 0 0-2.57.34c-.45.19-.88.42-1.27.7-.27.2-.53.42-.74.68-.08.1-.16.12-.27.1h-.16a5.4 5.4 0 0 1 3.44-2.03c2.2-.34 4.02.37 5.45 2.01Z" fill="#C28A55"/><path d="M2.87 7.32c-.03-.18 0-.36-.04-.53-.01-.1-.03-.18-.08-.26-.04-.07-.07-.13-.19-.11-.14.01-.3-.04-.44-.04-.1 0-.05-.06-.06-.1 0-.05-.01-.09.06-.09l.5-.02c.5 0 .99-.04 1.49-.03a4.23 4.23 0 0 1 1.35.27.9.9 0 0 1 .57.75.99.99 0 0 1-.32.91c-.18.18-.4.27-.65.35l-.27.07c.05.05.12.05.18.06a2 2 0 0 1 .83.3c.37.24.58.7.5 1.16-.06.43-.28.74-.65.96-.24.13-.51.18-.78.2-.91.08-1.83.02-2.74.04-.1 0-.14-.03-.13-.13 0-.06.03-.07.08-.06.13.01.26-.02.4-.03.14 0 .33-.14.36-.37.02-.19 0-.38.03-.57V7.32Zm.78 2.32v.91c.02.26.13.4.31.44.24.06.49.03.72-.03.35-.09.6-.28.7-.61.12-.35.12-.71 0-1.06a.78.78 0 0 0-.43-.49c-.39-.15-.8-.2-1.22-.17-.08 0-.08.04-.08.1v.9Zm0-2.27v.94c0 .1.03.11.12.11.2 0 .42.01.62-.03.23-.05.46-.12.62-.33.22-.3.22-.63.18-.96a.76.76 0 0 0-.59-.69c-.29-.08-.6-.06-.9-.06-.07 0-.05.06-.05.1v.92ZM10.55 6.18c.06.28.07.57.1.86.01.1.03.21.02.31 0 .05.06.11-.04.12-.08 0-.16.02-.18-.1a1.82 1.82 0 0 0-.16-.5.73.73 0 0 0-.57-.43A6.77 6.77 0 0 0 8.3 6.4v2.04c.32.02.64.04.96-.01.19-.03.3-.2.31-.46v-.14c-.01-.1.02-.12.12-.12.09 0 .11.02.11.11v1.47c0 .12-.07.17-.2.15-.03-.05-.01-.11-.02-.17-.01-.1-.02-.2-.05-.3a.32.32 0 0 0-.27-.27 3.88 3.88 0 0 0-.96-.02v1.48c-.02.2 0 .4.05.6.06.23.28.26.46.26.37 0 .74.04 1.1-.05.16-.04.3-.1.43-.21.32-.27.47-.63.58-1 .03-.1.16-.15.23-.1.03.01.02.04.02.06-.03.23-.05.45-.06.68 0 .25-.05.5-.05.76 0 .06-.03.06-.07.06H6.83c-.1 0-.13-.02-.12-.11 0-.07.02-.08.09-.08.1 0 .22 0 .33-.02.26-.04.33-.2.35-.4.07-1.18.03-2.34.02-3.51 0-.14-.01-.29-.04-.43-.03-.16-.16-.24-.33-.25h-.14c-.19-.04-.19-.04-.16-.23h3.72ZM15.97 6.2l.02.94c0 .09-.02.18.01.26-.19.03-.18.02-.23-.15-.06-.2-.11-.42-.25-.6a.59.59 0 0 0-.45-.24 6.56 6.56 0 0 0-.8-.03c-.08 0-.1.02-.1.1v4.08c0 .28.18.45.48.46h.34c.08 0 .1.02.1.09-.01.06 0 .1-.1.1h-2.44c-.08 0-.09-.03-.09-.1 0-.06 0-.1.09-.1.16.03.32-.02.47-.02.15 0 .3-.14.32-.28.05-.2.05-.42.05-.63V6.5c0-.1-.01-.14-.13-.13-.3 0-.62-.01-.92.03-.3.03-.44.24-.53.48-.06.14-.1.28-.12.43-.02.15-.14.08-.22.1V6.34l.01-.17h4.34c.05 0 .1-.01.15.01ZM9.55 4.5c.1 0 .2.03.24.15.04.12 0 .22-.1.3-.31.22-.64.41-.97.6l-.17.1c-.06.05-.13.1-.19.04-.03-.04.04-.1.08-.14l.58-.67c.12-.15.23-.3.43-.36l.1-.02Z" fill="#FAFAFB"/></svg>