<!-- by TradingView --><svg width="18" height="18" viewBox="0 0 18 18" xmlns="http://www.w3.org/2000/svg"><path fill="#F0F3FA" d="M0 0h18v18H0z"/><path d="M9 14.46a5.46 5.46 0 1 0-1.86-.32L6.8 14a3.7 3.7 0 0 1-1.73-2.99c0-1.27.77-2.33 1.52-3.35.67-.93 1.33-1.84 1.38-2.85l1.22 2.54c.07.16.07.31.07.5 0 .21-.22.84-.8 1.21l-.07.05c-.57.37-1.21.79-1.21 1.16 0 .24.25.43.55.67.45.34 1.01.78 1.04 1.57.03.82-.6 1.53-.96 1.82.32.07.65.12.98.13.45-.37 1.23-1.18 1.23-1.82 0-.85-.94-1.78-1.16-1.9-.23-.13-.6-.4-.6-.62 0-.18.18-.35.27-.42l1.18-.82c.8-.56.62-1.36.44-1.68l1.9-1.32c-.5 1.1-.4 1.97-.28 3.15.07.64.15 1.36.15 2.25 0 1.92-1.88 2.89-3 3.18H9Zm.76-8.16-.54-1.24 1.05-.81.54 1.23-1.05.82Z" fill="url(#ayiy01qdj)"/><defs><linearGradient id="ayiy01qdj" x1="11.41" y1="4.26" x2="8.69" y2="14.46" gradientUnits="userSpaceOnUse"><stop stop-color="#7ECBE1"/><stop offset=".48" stop-color="#00A2C5"/><stop offset="1" stop-color="#6DC6DE"/></linearGradient></defs></svg>