<!-- by TradingView --><svg width="18" height="18" viewBox="0 0 18 18" xmlns="http://www.w3.org/2000/svg"><path fill="#F0F3FA" d="M0 0h18v18H0z"/><path fill-rule="evenodd" d="M2 7.4c0-.22.16-.4.36-.4h1.51c.51 0 .93.47.93 1.05 0 .35-.15.66-.38.85.34.17.58.55.58 1 0 .6-.43 1.1-.96 1.1H2.36c-.2 0-.36-.18-.36-.4V7.4Zm.75.4h.9c.2 0 .36.17.36.4s-.16.4-.36.4h-.9v-.8Zm0 1.6h1.1c.21 0 .38.14.38.38s-.17.42-.38.42h-1.1v-.8Z" fill="#4A4F55"/><rect x="6" y="7" width=".69" height="4" rx=".34" fill="#4A4F55"/><path d="M8.23 7.04c.18-.1.4-.01.48.19l1.1 2.5 1.1-2.5c.1-.2.3-.29.49-.19.18.1.26.34.17.53l-1.4 3.18a.39.39 0 0 1-.73 0L8.05 7.57c-.08-.2 0-.44.18-.53Z" fill="#4A4F55"/><path d="M12.4 10.96c.2.1.42.01.52-.19l1.16-2.5 1.18 2.5c.1.2.33.29.52.19a.4.4 0 0 0 .18-.53l-1.5-3.18a.42.42 0 0 0-.77 0l-1.47 3.18a.4.4 0 0 0 .18.53Z" fill="#009FE3"/></svg>