<!-- by TradingView --><svg width="18" height="18" viewBox="0 0 18 18" xmlns="http://www.w3.org/2000/svg"><path fill="#112756" d="M0 0h18v18H0z"/><path d="M14.69 5.5c.13-.1.2-.24.2-.4a.38.38 0 0 0-.21-.36.37.37 0 0 0 .18-.33c0-.17-.07-.3-.18-.4a.76.76 0 0 0-.48-.15.7.7 0 0 0-.45.15c-.13.1-.2.23-.23.4H14a.2.2 0 0 1 .05-.09.2.2 0 0 1 .15-.06c.06 0 .11 0 .14.04.03.03.06.07.06.13 0 .04-.03.07-.06.1-.03.04-.08.05-.15.05h-.16v.35h.17c.08 0 .12.01.16.05.04.03.06.06.06.11 0 .06-.01.1-.06.13a.23.23 0 0 1-.15.05c-.1 0-.16-.06-.2-.15h-.5c.01.17.09.3.22.4.13.1.29.14.47.14.2 0 .36-.05.49-.16ZM10.97 8.14c0 .4-.13.76-.35 1.04.38.32.63.79.63 1.32 0 .95-.77 1.71-1.72 1.71H6.11V6.43h3.15c.94 0 1.71.77 1.71 1.71Zm-3.42 3.02H9.1c.36 0 .65-.3.65-.66 0-.36-.29-.7-.65-.7H7.55v1.36Zm1.42-3.6H7.55v1.28h1.42c.35 0 .64-.34.64-.7 0-.35-.29-.59-.64-.59Z" fill="#fff"/><path d="M6.43 5.74v-.6H4.18v8.36h2.25v-.6h-1.6V5.74h1.6ZM11.25 13.5v-.6h1.29V5.74h-1.29v-.6h1.93v8.36h-1.93Z" fill="#fff"/></svg>