<!-- by TradingView --><svg width="18" height="18" viewBox="0 0 18 18" xmlns="http://www.w3.org/2000/svg"><path fill="#273B5A" d="M0 0h18v18H0z"/><path d="M7.47 4c.85 0 1.54.69 1.54 1.54C9 4.69 9.69 4 10.53 4H7.47Z" fill="#4AAA42"/><path d="M9 5.66C9 4.74 8.3 4 7.45 4v3.32L9 9l1.55-1.68V4c-.85 0-1.55.74-1.55 1.66ZM9 12.3c0 .93.71 1.7 1.56 1.7v-3.44H7.44V14C8.3 14 9 13.23 9 12.3ZM5.7 9c-.93.02-1.7.72-1.7 1.56h3.44V7.44H4C4 8.3 4.77 9 5.7 9ZM12.3 9c.95 0 1.7-.7 1.7-1.56h-3.44v3.12H14c0-.84-.75-1.54-1.7-1.56Z" fill="#fff"/></svg>