<!-- by TradingView --><svg width="18" height="18" viewBox="0 0 18 18" xmlns="http://www.w3.org/2000/svg"><path fill="#F0F3FA" d="M0 0h18v18H0z"/><path d="M11.53 6a2.98 2.98 0 0 1 2.93 2.53 2.96 2.96 0 0 1-.69 2.43 2.97 2.97 0 0 1-3.6.74A2.97 2.97 0 0 1 8.6 9.79a2.96 2.96 0 0 1 .31-2.31A2.98 2.98 0 0 1 11.53 6Zm.08 5.57a2.53 2.53 0 0 0 1.92-1 2.55 2.55 0 0 0 .14-2.94 2.56 2.56 0 0 0-3.18-1 2.55 2.55 0 0 0-1.54 2.05 2.54 2.54 0 0 0 .65 2.06 2.54 2.54 0 0 0 2 .83Z" fill="#3AA0D3"/><path d="M4.03 6h1.69c.28 0 .55.06.79.17a1.52 1.52 0 0 1 .84 1.62 1.4 1.4 0 0 1-.6.94h.02c.3.1.57.26.8.5a1.53 1.53 0 0 1 .26 1.79c-.15.29-.37.52-.66.69-.33.2-.7.3-1.1.29A688.05 688.05 0 0 0 4 11.99V6.03C4 6 4 6 4.03 6Zm.38.45V8.6h1.33c.34 0 .63-.1.87-.3.11-.1.2-.22.27-.35.06-.13.09-.27.09-.4V7.5a.94.94 0 0 0-.1-.4 1.06 1.06 0 0 0-.26-.36 1.27 1.27 0 0 0-.86-.31H4.41Zm0 2.6v2.52h1.65c.2 0 .4-.03.58-.09.19-.06.36-.15.5-.27.14-.11.25-.25.33-.4.08-.16.12-.31.12-.48v-.03c0-.16-.04-.32-.11-.48a1.26 1.26 0 0 0-.33-.4c-.14-.12-.3-.21-.5-.28a1.8 1.8 0 0 0-.58-.1H4.42Z" fill="#1E2A44"/></svg>