<!-- by TradingView --><svg width="18" height="18" viewBox="0 0 18 18" xmlns="http://www.w3.org/2000/svg"><path fill="#B31A21" d="M0 0h18v18H0z"/><path fill-rule="evenodd" d="M7.4 9.4a.95.95 0 0 1-.1-1.34l8.35-9.54A.95.95 0 1 1 17.1-.22L8.74 9.3a.95.95 0 0 1-1.34.1Zm3.78 4.74a.81.81 0 0 1-.34.28c-.22.1-.46.12-.5.12H9.13c-.07 0-.13-.07-.13-.15v-3.25c0-.08.06-.14.13-.14h1.22s.22 0 .42.11a.8.8 0 0 1 .31.27c.1.15.14.33.14.53 0 .42-.2.64-.37.75l.03.02c.2.12.44.4.44.93 0 .21-.04.39-.14.53Zm-.81-1.32c.04 0 .22 0 .39.1.2.13.31.37.31.7 0 .27-.1.45-.33.55-.19.1-.38.1-.4.1H9.26v-1.45h.6c.06 0 .12-.07.12-.14 0-.08-.06-.14-.13-.14h-.59v-1.26h1.09s.13 0 .26.05l.06.03c.2.11.3.29.3.55 0 .25-.08.43-.27.53a.7.7 0 0 1-.33.1h-.02c-.06 0-.16.07-.15.14 0 .07.09.14.16.14Zm3.75-1.6-.92 1.32a.12.12 0 0 1-.1.06c-.03 0-.05-.01-.07-.03-.06-.04-.07-.14-.03-.19l.92-1.32a.12.12 0 0 1 .17-.03c.06.05.07.14.03.2Zm-.1 3.31c.03 0 .05 0 .07-.02.06-.05.07-.14.03-.2L13.2 13a.12.12 0 0 0-.17-.03.14.14 0 0 0-.03.19l.92 1.31c.02.04.06.06.1.06Zm-2.26 0c-.03 0-.05 0-.08-.02a.15.15 0 0 1-.02-.2l1.07-1.54-1.07-1.54c-.04-.06-.03-.15.02-.2.06-.04.14-.03.18.03l1.12 1.63c.04.05.04.11 0 .16l-1.12 1.62a.11.11 0 0 1-.1.06Zm-13.7.77a.95.95 0 1 0 1.43 1.25l7.02-8.02a.95.95 0 0 0-1.43-1.26l-7.02 8.03Z" fill="#fff"/></svg>