<!-- by TradingView --><svg width="18" height="18" viewBox="0 0 18 18" xmlns="http://www.w3.org/2000/svg"><path fill="#1D2953" d="M0 0h18v18H0z"/><path d="m5.55 8.18-.44-.42.44-.42.44.42-.44.42Zm0-1.22-.44-.43.44-.42.44.42-.44.43Zm.63.61-.44-.42L6 6.9l.2-.19.43.43-.44.42Z" fill="#33B540"/><path d="M2.04 8.83c0 1.07.63 1.8 1.6 1.8a1.7 1.7 0 0 0 1.27-.55l.45.42c-.22.25-.76.75-1.76.75-1.34 0-2.31-.9-2.31-2.41 0-1.52 1.08-2.41 2.34-2.41.95 0 1.41.46 1.66.7l.06.06-.43.41-.03-.03a1.57 1.57 0 0 0-1.23-.54c-.96 0-1.62.73-1.62 1.8ZM8.43 7.71h.05c.95.04 1.56.73 1.56 1.77 0 .53-.16.97-.45 1.3-.3.3-.7.47-1.17.47H8.4c-.42 0-.78-.11-1.05-.33l-.05.33h-.56V6.43h.65v1.6a1.61 1.61 0 0 1 1.03-.32ZM8.4 10.7h.03c.55-.02.9-.48.9-1.2 0-.73-.33-1.18-.86-1.21H8.4c-.58 0-.93.46-.93 1.2 0 .75.35 1.2.92 1.2ZM10.67 8.2c.3-.32.7-.49 1.19-.49 1 0 1.64.7 1.64 1.77 0 .53-.16.97-.45 1.3-.3.3-.7.47-1.19.47-1.12 0-1.64-.7-1.64-1.77 0-.52.16-.97.45-1.28Zm.27 1.28c0 .75.35 1.2.92 1.2.57 0 .92-.45.92-1.2 0-.74-.35-1.2-.92-1.2-.57 0-.92.46-.92 1.2ZM15.35 10.69c-.62 0-.97-.36-.98-1.04h2.34v-.28c0-.97-.53-1.65-1.43-1.65-.91 0-1.6.65-1.6 1.77 0 1.1.66 1.75 1.6 1.75.93 0 1.38-.47 1.38-.47l-.29-.46c-.03.04-.4.38-1.02.38Zm-.98-1.55c.04-.41.3-.9.88-.9.58 0 .81.44.81.9h-1.69Z" fill="#fff"/></svg>