<!-- by TradingView --><svg width="18" height="18" viewBox="0 0 18 18" xmlns="http://www.w3.org/2000/svg"><path fill="#F0F3FA" d="M0 0h18v18H0z"/><path d="M3 6.67h1.2v3.5H3v-3.5Z" fill="#8DD8F8"/><path d="M3 10.17h1.2v3.1H3v-3.1Z" fill="#2AC4F4"/><path d="M4.2 3.94h1.6v4.28H4.2V3.94Z" fill="#40C8F4"/><path d="M5.8 4.72H7V9H5.8V4.72Z" fill="#3AC0BE"/><path d="M12.2 6.67h1.6v2.72h-1.6V6.67Z" fill="#ACD36A"/><path d="M13.8 5.89H15V8.6h-1.2V5.9Z" fill="#C1DFA4"/><path d="M13.8 8.61H15v3.11h-1.2v-3.1Z" fill="#73C15B"/><path d="M12.2 9.39h1.6v3.11h-1.6V9.39Z" fill="#00A34C"/><path d="M9 4.33h1.2v5.84H9V4.33Z" fill="#00AA4F"/><path d="M7 2h2v4.67H7V2Z" fill="#87D1CE"/><path d="M7 6.67h2v8.55H7V6.67Z" fill="#00908F"/><path d="M10.2 8.61h2v5.83h-2V8.61Z" fill="#008172"/><path d="M10.2 3.17h2V8.6h-2V3.17Z" fill="#7FBC3D"/><path d="M5.8 9H7v5.06H5.8V9Z" fill="#00A8A7"/><path d="M9 10.17h1.2V16H9v-5.83Z" fill="#006864"/><path d="M4.2 8.22h1.6v4.28H4.2V8.22Z" fill="#00AEEF"/></svg>