<!-- by TradingView --><svg width="18" height="18" viewBox="0 0 18 18" xmlns="http://www.w3.org/2000/svg"><path fill="#F0F3FA" d="M0 0h18v18H0z"/><path d="M5.48 6.42h-2.6v5.16h.97v-2.1h1.63v-.94H3.85V7.06h1.63v-.64Zm.23.64H6.9v4.52h.95V7.06h1.18v-.64h-3.3v.64Zm3.5 3.48c.18.1.6.3 1.08.3.42 0 .79-.22.79-.73 0-.36-.22-.51-.67-.76l-.48-.25c-.5-.27-.83-.68-.83-1.32 0-.9.75-1.36 1.6-1.36.55 0 .93.13 1.08.19l-.05.76-.04-.02c-.22-.09-.5-.2-.92-.2-.47 0-.7.25-.7.59 0 .38.25.52.54.67l.55.3c.6.33.89.65.89 1.36 0 1.02-.74 1.51-1.72 1.51a2.3 2.3 0 0 1-1.16-.23l.04-.81Zm5.91-4.12h-2.57v5.14h2.57v-.64h-1.6V9.47h1.6v-.94h-1.6V7.06h1.6v-.64Z" fill="#3B6E8F"/></svg>