<!-- by TradingView --><svg width="18" height="18" viewBox="0 0 18 18" xmlns="http://www.w3.org/2000/svg"><path fill="#F0F3FA" d="M0 0h18v18H0z"/><path d="M12.5 9.14h-7v1.02c.68-.45 1.5-.71 2.39-.71 2.37 0 4.3 1.88 4.3 4.21 0 .87-.27 1.67-.73 2.34h1.04V9.14Z" fill="#F6AB00"/><path d="M11.33 16c.47-.66.75-1.47.75-2.34a4.15 4.15 0 0 0-4.2-4.11c-.88 0-1.7.27-2.38.73v1.66a3.2 3.2 0 0 1 5.73 1.88c0 .85-.35 1.62-.91 2.18h1.01Z" fill="#F6AB00"/><path d="M5.5 15.36V16h1.21a.05.05 0 0 1 0-.06c.13-.25.21-.53.26-.76a3.09 3.09 0 0 1-.87.8.05.05 0 0 1-.07-.01.05.05 0 0 1 .02-.07 3 3 0 0 0 .96-.97c.02-.14.02-.26.01-.32 0-.03.02-.05.05-.05.03 0 .05.02.05.04a1.75 1.75 0 0 1-.01.36A3.14 3.14 0 0 1 6.79 16h.89v-2.55a.15.15 0 0 1-.1.05c-.04 0-.1-.01-.13-.04v.1h.14v.1h-.37c-.06.07-.2.22-.4.32-.14.07-.28.05-.37-.02a.27.27 0 0 1-.1-.3c.04-.1.1-.15.14-.18l.03-.02a.1.1 0 0 0 .04-.06v-.11a.35.35 0 0 0-.17-.24.5.5 0 0 0-.25-.05.28.28 0 0 1-.22-.11l.01.05c.03.1.08.18.16.22.03.02.04.04.03.07a.05.05 0 0 1-.07.02 2.57 2.57 0 0 1-.24-.1 1.1 1.1 0 0 1-.24-.17V13a.28.28 0 0 0-.01.17c.01.07.05.14.12.2.07.06.17.11.33.13.02 0 .03 0 .04.02v.05a.31.31 0 0 0-.03.2c0 .03.02.05.05.07.03.03.07.04.14.05.02 0 .03.01.04.03v.04c-.02.04-.03.1-.01.13 0 .02.04.06.16.06.03 0 .05.03.05.05 0 .05.02.1.05.13.03.02.08.04.2-.04h.05l.03.02c.02.04.05.08.09.09.03 0 .08 0 .15-.1l.04-.02c.02 0 .03 0 .04.02.03.03.07.05.12.05.03 0 .08-.01.13-.1l.1.04c-.07.12-.15.17-.24.16a.27.27 0 0 1-.14-.04c-.07.08-.15.1-.23.08a.24.24 0 0 1-.12-.09c-.12.06-.21.06-.28.01-.05.09-.14.21-.26.36l.16-.16a.05.05 0 0 1 .08 0c.02.02.02.05 0 .07-.13.13-.92.7-.92.7ZM7.68 11.7v.5h-.1l.09-.24c0-.02 0-.05-.02-.06a.05.05 0 0 0-.06 0 .2.2 0 0 1-.13.07c-.05.01-.13 0-.25-.09l-.06.09c.13.08.24.11.32.1h.06l-.06.17v.05l.05.02h.16v.76a.91.91 0 0 0-.6-.57.61.61 0 0 0-.37.05c-.08.03-.15.08-.2.11v-.04a.35.35 0 0 1 .1-.12c.1-.07.24-.13.34-.16.12-.17-.62-.28-.9-.02 0-.19.17-.3.35-.3.03 0 .05-.03.05-.06 0-.05.02-.08.06-.11.34-.25.8-.04 1.17-.14Z" fill="#F6AB00"/><path d="M7.68 10.82v.78c-.1.04-.22.04-.32.05l.1-.18c.01-.04-.03-.09-.07-.08l-.23.07-.19-.28c-.01-.03-.06-.03-.08 0l-.19.28-.23-.07c-.02 0-.04 0-.06.02a.05.05 0 0 0 0 .06l.15.24a.42.42 0 0 0-.1.06.23.23 0 0 0-.1.14.43.43 0 0 0-.4.52c0 .02.01.03.03.04l.05-.01c.19-.2.5-.21.75-.17-.08.04-.17.08-.23.14-.06.04-.11.09-.14.15a.21.21 0 0 0 0 .2l.04.02.04-.01.25-.15c.1-.04.21-.06.3-.04.25.06.5.3.56.62.02.08.01.12 0 .15 0 .02-.02.02-.04.03-.02 0-.04 0-.07-.02a.15.15 0 0 1-.06-.06.05.05 0 0 0-.1.02v.21H7.2l-.05.02c-.04.06-.17.22-.37.32-.12.05-.21.04-.27 0a.18.18 0 0 1-.06-.2c.02-.07.06-.1.1-.13l.03-.03a.2.2 0 0 0 .08-.1.32.32 0 0 0 0-.17.45.45 0 0 0-.21-.3.6.6 0 0 0-.31-.06c-.06 0-.1-.04-.15-.08a.41.41 0 0 1-.07-.15.05.05 0 0 0-.05-.04.05.05 0 0 0-.05.04.75.75 0 0 0 .05.39 1 1 0 0 1-.23-.15c-.02-.03-.06-.04-.1-.03a.1.1 0 0 0-.04.03v-.8c.49-.7 1.27-1.19 2.18-1.3Z" fill="#F6AB00"/><path d="M6.66 11.69h.01c.17-.04.38-.04.57-.04l.07-.13-.16.05c-.02 0-.04 0-.06-.02l-.16-.25-.16.25a.05.05 0 0 1-.06.02l-.15-.04.1.16ZM5.5 13.3c.03.04.06.1.11.14.08.06.18.11.32.14a.38.38 0 0 0 0 .2c0 .05.03.1.08.13.03.03.07.05.13.06a.23.23 0 0 0 0 .14c.03.08.1.12.22.13l.01.07c-.1.09-.39.29-.82.43a.05.05 0 0 0-.03.07c.01.02.04.04.07.03.26-.1.48-.2.63-.3-.15.2-.4.49-.72.7V13.3ZM7.78 10.8a3.19 3.19 0 0 1 1.95.5l-.46.94.1.04.4-.85.46.85.09-.05-.46-.85a3 3 0 0 1 .31 4.62H9.05v-.94h1.54v-.26h.32v-.1h-.42v.26h-.17v-1.78l.35-.66h-.44l-.12.2H10v-.2h-.4v.2h-.12l-.12-.2h-.14l.05-.12H8.9l-.13.2h-.05v-.34h-.09a.26.26 0 0 0 .1-.2c0-.13-.1-.27-.3-.43-.4-.3-.6-.55-.66-.63v-.2Z" fill="#F6AB00"/><path d="m10.5 12.62-.27.52h-.86l-.13-.52h.06l.12.2h.28v-.2h.2v.2h.27l.12-.2h.22Z" fill="#F6AB00"/><path d="m9.27 13.15-.12-.46-.16.43v1.84h1.23v-1.72h-.85v1.27h-.1v-1.36ZM7.78 15.06V16h1.17v-.94H7.78Z" fill="#F6AB00"/><path d="M7.78 14.96h1.1V13.1l.24-.6h-.16l-.12.2h-.2v-.4h-.86v.53h.9v.1h-.9v2.03ZM7.78 12.2v-1.04c.1.13.3.33.6.55.2.15.25.27.25.35 0 .07-.04.12-.1.15h-.75Z" fill="#F6AB00"/><path d="M8.67 2c-.08.15-.12.32-.12.5v1.53l.96-.35V2h-.84ZM10.26 2v1.41l1.29-.46V2h-1.29ZM7.66 2.32c.15-.09.35.02.35.2v1.7l-.75.27V3c0-.28.15-.53.4-.67ZM6.58 2.92c.11-.06.25.02.25.14v1.59l-.54.19V3.41c0-.2.11-.39.3-.49ZM5.75 3.38a.49.49 0 0 0-.25.43v1.31l.47-.17V3.51a.15.15 0 0 0-.22-.13ZM5.5 8.56V6.71c0-.14.1-.27.24-.3.12-.02.23.06.23.18v1.35h.32V6.57c0-.17.12-.3.28-.34.13-.03.26.07.26.2v1.5h.43V6.47c0-.23.16-.42.38-.47a.3.3 0 0 1 .37.29v1.66h.54V6.28c0-.29.2-.54.49-.6.24-.05.47.13.47.37v1.89h.75V6.07c0-.39.28-.72.66-.8.32-.08.63.16.63.49v2.18h.95v.62h-7Z" fill="#5F6267"/></svg>