<!-- by TradingView --><svg width="18" height="18" viewBox="0 0 18 18" xmlns="http://www.w3.org/2000/svg"><path fill="#F0F3FA" d="M0 0h18v18H0z"/><path d="M5.36 13H3.4l.86-7.72H6.2l-.13 1.16C6.58 5.5 7.23 5 8.09 5c.22 0 .45.02.63.08l-.26 2.2c-.25-.1-.5-.16-.8-.16-1.47 0-1.79 1.05-1.96 2.6L5.36 13Zm5.95-1.8c.64 0 1.11-.43 1.5-.96l1.2 1.24A3.66 3.66 0 0 1 11.2 13c-1.92 0-3.27-1.58-3-4.01C8.48 6.56 10.2 5 12.14 5c1.79 0 2.8 1.38 2.37 4.69h-4.37c.04.9.44 1.5 1.18 1.5Zm.48-4.54c-.85 0-1.4.63-1.53 1.37h2.55c.1-.78-.34-1.37-1.02-1.37Z" fill="#174489"/></svg>