<!-- by TradingView --><svg width="18" height="18" viewBox="0 0 18 18" xmlns="http://www.w3.org/2000/svg"><path fill="#ED1C24" d="M0 0h18v18H0z"/><path d="M9 18A9 9 0 1 0 9 0a9 9 0 0 0 0 18Z" fill="#ED1C24"/><path d="M8.82 5h-.58a.2.2 0 0 1-.2-.2c0-.1.09-.2.2-.2h.58V2.89H7.43l.34 2.52H5.83s.73 4.68-1.24 8.65h2.59c1.35-3.66 1.2-4.1 1.2-4.1h.44V8.33h-.44a.2.2 0 1 1 0-.4h.44V5ZM7.6 10.24l.14.67c.03.1-.03.2-.13.23A.18.18 0 0 1 7.4 11l-.16-.58h-.17L6.9 11a.18.18 0 0 1-.22.13.18.18 0 0 1-.14-.23l.18-.64a.67.67 0 0 1-.24-.5V7.12a.66.66 0 1 1 1.32 0v2.66c0 .17-.07.34-.2.46Zm-.75-2.01v1.54c0 .08.03.16.08.21a.3.3 0 0 0 .2.08.3.3 0 0 0 .22-.08.29.29 0 0 0 .08-.2V8.23h-.58Zm.58-.37v-.74c0-.16-.12-.29-.28-.29a.3.3 0 0 0-.3.29v.74h.58ZM9 16.92A7.92 7.92 0 1 0 9 1.08a7.92 7.92 0 0 0 0 15.84ZM1.44 9a7.56 7.56 0 1 1 15.11 0 7.56 7.56 0 0 1-15.1 0Zm7.77-4h.56c.11 0 .2-.09.2-.2a.2.2 0 0 0-.2-.2h-.56V2.89h1.37l-.33 2.52h1.94s-.73 4.68 1.23 8.65h-2.59c-1.36-3.66-1.2-4.1-1.2-4.1H9.2V8.33h.43a.2.2 0 0 0 0-.4h-.4L9.2 5ZM11.68 8l-.8-1.55-.79 1.55.61 1.2v1.72c0 .1.09.18.18.18.1 0 .19-.08.19-.18V9.2l.6-1.19Zm-.8.76L10.5 8l.4-.76.38.76-.39.76Z" fill="#fff"/></svg>