<!-- by TradingView --><svg width="18" height="18" viewBox="0 0 18 18" xmlns="http://www.w3.org/2000/svg"><path fill="#F0F3FA" d="M0 0h18v18H0z"/><path d="M4 4v10h2v-1H5V5h8v5.43h1V4H4Z" fill="#85C3E4"/><path d="M6.86 14h.71v-2.86h-.71V14ZM9.53 13.5c-.55 0-.95-.39-.95-.93s.36-.92.94-.92c.34 0 .62.14.81.37l.43-.37c-.33-.35-.75-.5-1.25-.5-.9 0-1.58.61-1.58 1.42 0 .81.63 1.43 1.6 1.43.53 0 .95-.2 1.26-.55l-.45-.34a1 1 0 0 1-.8.38ZM11.8 12.81c.1.41.44.68.89.68.32 0 .59-.14.77-.38l.43.34c-.29.35-.7.55-1.2.55-.94 0-1.55-.62-1.55-1.43 0-.8.6-1.43 1.46-1.43.65 0 1.53.42 1.38 1.67H11.8Zm1.6-.44c-.07-.56-.46-.72-.72-.72-.46 0-.79.26-.89.72h1.61Z"/></svg>