<!-- by TradingView --><svg width="18" height="18" viewBox="0 0 18 18" xmlns="http://www.w3.org/2000/svg"><path fill="url(#ax1lbjnu1)" d="M0 0h18v18H0z"/><path d="M3.55 6.43v.64h2.58v-.64H3.55ZM2.59 10.34l.63-.18c.2.45.66.77 1.14.77.62 0 1.12-.54 1.12-1.2V8.36H3.55V7.7h2.58v2.1c0 .97-.79 1.76-1.75 1.76h-.13c-.78 0-1.44-.52-1.66-1.23ZM9.05 7.07c.82 0 1.18.42 1.3.67l.56-.35a2.07 2.07 0 0 0-1.83-.96c-1.33 0-1.82.86-1.82 1.41 0 .55.28 1.28 1.73 1.4 1.07.1 1.31.6 1.31.92 0 .3-.17.77-1.19.77-.81 0-1.27-.67-1.47-1l-.55.44a2.63 2.63 0 0 0 2.05 1.2c.5.03 1.8-.26 1.8-1.41 0-1.08-.9-1.27-1.68-1.44a22.1 22.1 0 0 1-.18-.03c-.8-.18-1.15-.4-1.15-.8s.1-.82 1.12-.82ZM11.91 6.43h3.22v.64H11.9v-.64ZM11.91 8.04h3.22v.64H11.9v-.64ZM15.13 9.32H11.9v.64h3.22v-.64ZM11.91 10.93h3.22v.64H11.9v-.64Z" fill="#fff"/><defs><linearGradient id="ax1lbjnu1" x1="3.35" y1="3.12" x2="21.9" y2="24.43" gradientUnits="userSpaceOnUse"><stop stop-color="#1A1E21"/><stop offset="1" stop-color="#06060A"/></linearGradient></defs></svg>