<!-- by TradingView --><svg width="18" height="18" viewBox="0 0 18 18" xmlns="http://www.w3.org/2000/svg"><path fill="#C5944B" d="M0 0h18v18H0z"/><path d="M13.12 8.57c.29.42.63.78 1.03 1.08a4.83 4.83 0 0 0-.4-2.72 5.18 5.18 0 0 0-1.16-1.65c-.28 1.2-.13 2.31.53 3.3Zm-1.17 3.26a7.8 7.8 0 0 1 1.65-.46c.24-.45.4-.92.5-1.41A4.51 4.51 0 0 1 13 8.9a4.42 4.42 0 0 0-1.45 2.4l.39.52Zm-2.59 2.31c.21-.5.53-.94.92-1.3l.15-.13h.01a4.47 4.47 0 0 0-3.61.05c.21.37.38.76.49 1.17a5.33 5.33 0 0 0 2.12.21h-.08Zm-4.07-1.49c.48.5 1.05.9 1.69 1.18v-.02a4.43 4.43 0 0 0-2.79-2.9c.25.65.62 1.24 1.1 1.74ZM9.2 9.13a.18.18 0 0 0 .1-.16.17.17 0 0 0-.1-.16.18.18 0 0 0-.23.23.17.17 0 0 0 .1.1h.13Zm1.24-5.85a5.85 5.85 0 0 1 2.96 9.74.12.12 0 0 1-.17 0l-.34-.46a.12.12 0 0 1 0-.17c.18-.2.35-.4.5-.63-.43.08-.84.2-1.23.35l.66.91.11.17c.16.25.1.54.02.87v.04l-.01.05a.34.34 0 0 0-.03.1v.02h-.03a.03.03 0 0 1-.03-.02 1.6 1.6 0 0 0-.3-.6l-.95-1.28a3.91 3.91 0 0 0-1.85 1.77 5.01 5.01 0 0 0 1.97-.76.12.12 0 0 1 .1.05l.33.45a.12.12 0 0 1-.03.17A5.83 5.83 0 0 1 3.1 9.4c0-.15-.03-.3-.08-.43V8.9c-.02-.07-.03-.17 0-.2.03-.05.17.02.33.12l.19.1c.08.07.16.14.22.23a.75.75 0 0 1 .14.34c.01.05.03.1.03.17v.05c.03.28.08.55.16.82.52.2 1.01.46 1.47.77.46.33.86.75 1.17 1.23a4.64 4.64 0 0 1 3.98 0c.16-.12.33-.23.5-.33v-.35L9.44 9.47l-.05.02a.59.59 0 0 1-.27.07.58.58 0 0 1-.5-.28L5.67 4.75a2.25 2.25 0 0 1-.1-.17c-.14-.27-.07-.56.03-.88v-.04c.03-.05.04-.1.06-.16a.03.03 0 0 1 .03-.03.03.03 0 0 1 .03.03c.05.23.14.44.28.63l2.85 4.34.05-.02a.56.56 0 0 1 .54.03c.1.06.16.13.21.23l1.7 2.3c.25-.91.78-1.73 1.5-2.33a4.55 4.55 0 0 1-.45-3.57 5 5 0 0 0-1.8-.96l-.04-.02a2.32 2.32 0 0 1-.2-.06.8.8 0 0 1-.28-.2 1.9 1.9 0 0 1-.33-.57l-.01-.04s-.03-.3.03-.26a3.02 3.02 0 0 0 .68.28Zm-3.5 1.59a.12.12 0 0 0 .09.04h.04c.32-.13.66-.2 1-.2h.13a2.9 2.9 0 0 1 2.4 1.56 3 3 0 0 1-.1 2.93l-.03.06.41.58v.01l.07.05.05-.04.02-.02a3.83 3.83 0 0 0-.96-5.32 3.58 3.58 0 0 0-1.83-.62h-.15c-.49 0-.97.1-1.41.3a.13.13 0 0 0-.07.1c0 .02 0 .05.02.07l.32.5Zm.87 6.53h.08a3.65 3.65 0 0 0 2-.65v-.1l-.3-.43-.03-.03-.01-.01-.02-.02h-.12c-.47.28-1 .42-1.54.4H7.7A2.9 2.9 0 0 1 5.2 8.77a2.84 2.84 0 0 1 .58-3.02.1.1 0 0 0 .02-.07l-.01-.05V5.6l-.32-.47a.12.12 0 0 0-.08-.04c-.03 0-.06 0-.08.03a3.62 3.62 0 0 0-.06 5.15c.67.7 1.6 1.1 2.57 1.12Z" fill="#fff"/></svg>