<!-- by TradingView --><svg width="18" height="18" viewBox="0 0 18 18" xmlns="http://www.w3.org/2000/svg"><path fill="#F0F3FA" d="M0 0h18v18H0z"/><circle cx="9" cy="9" r="6" fill="url(#a)"/><path d="M8.99 3.24c.85 0 1.66.18 2.38.51-.85-.07-1.86.08-3.48.92-1.65.86-2.88.94-3.5.85A5.74 5.74 0 0 1 9 3.24Z" fill="url(#b)"/><path d="M7.89 4.67c1.61-.84 2.62-.99 3.48-.92l.18.09c-1.77 1.63-2.8 2.36-4.3 2.64-1.27.24-2.95-.01-3.4-.09.16-.3.34-.6.55-.87.6.1 1.84.01 3.49-.85Z" fill="url(#c)"/><path d="M11.55 3.84c.66.33 1.24.77 1.73 1.32-.98.1-2.06.82-4 1.83-2.06 1.08-4.84.07-5.6-.22.05-.13.11-.25.18-.38.44.08 2.12.33 3.4.1 1.5-.29 2.52-1.02 4.29-2.65Z" fill="url(#d)"/><path d="M13.28 5.15a5.73 5.73 0 0 1 1.3 5.15c-2.5.01-3.25 1.41-4.64 1.91-2.46.89-4.8.07-6.03-.52a5.73 5.73 0 0 1-.23-4.92c.76.29 3.54 1.3 5.6.22 1.94-1 3.02-1.73 4-1.84Z" fill="url(#e)"/><path d="m14.59 10.3-.09.34c-1.02.18-2.03 1.32-3.16 2.27a6.78 6.78 0 0 1-4.57 1.38 5.77 5.77 0 0 1-2.86-2.6c1.23.6 3.57 1.4 6.03.52 1.39-.5 2.15-1.9 4.65-1.91Z" fill="url(#f)"/><path d="m13.98 6.1.02.07v2.48c0 .08-.03.16-.08.24a.33.33 0 0 1-.25.1h-.38c-.07 0-.29-.07-.29-.23v-3.9c.4.4.7.73.98 1.25ZM12.53 8.25V10.12c-.09.33-.34.29-.6.3-.2 0-.35-.04-.43-.24-.04-.1-.02-.32-.02-.46V7.69c0-.18.02-.27.13-.38.05-.05.15-.07.28-.07.25 0 .46-.04.6.17.03.06.04.18.04.37v.47ZM7 8.89v2.34c-.12.3-.37.24-.6.23-.2 0-.32-.06-.4-.23V9.2c0-.14-.01-.29.07-.42.13-.17.33-.13.55-.13.1 0 .19.02.23.05.07.04.12.1.15.19ZM5.65 9.1v.74c0 .17.01.33-.1.46-.14.14-.31.11-.51.11a.59.59 0 0 1-.28-.05c-.1-.06-.15-.16-.17-.3v-.85c.05-.43.41-.35.7-.35.16 0 .29.08.36.24ZM11 9.52v1.41a.4.4 0 0 1-.07.23c-.06.1-.13.14-.2.14a18.85 18.85 0 0 1-.48 0 .38.38 0 0 1-.25-.24V9.5a.4.4 0 0 1 .12-.21.3.3 0 0 1 .21-.08 27.4 27.4 0 0 1 .43 0c.13.05.21.15.24.31ZM8.41 10.05v1.5c0 .23.05.47-.19.6a.53.53 0 0 1-.23.03 59.62 59.62 0 0 1-.38-.01c-.16-.05-.25-.17-.25-.35V9.95c.11-.3.37-.23.63-.24.23-.01.4.08.42.34ZM9.65 10.5c.07.1.1.2.11.3v.85c0 .2-.1.33-.27.38h-.46c-.21-.05-.29-.16-.29-.45v-.7c0-.13.02-.26.1-.37a.88.88 0 0 1 .8 0Z" fill="#fff"/><defs><linearGradient id="a" x1="3" y1="8.37" x2="15" y2="9.95" gradientUnits="userSpaceOnUse"><stop stop-color="#B3D2E8"/><stop offset="1" stop-color="#0651A2"/></linearGradient><linearGradient id="b" x1="6.63" y1="4.16" x2="7.41" y2="5.45" gradientUnits="userSpaceOnUse"><stop stop-color="#1F63AC"/><stop offset="1" stop-color="#92BADB"/></linearGradient><linearGradient id="c" x1="6.82" y1="4.91" x2="7.52" y2="6.35" gradientUnits="userSpaceOnUse"><stop stop-color="#2E6EB2"/><stop offset="1" stop-color="#ACCDE5"/></linearGradient><linearGradient id="d" x1="4.39" y1="6.75" x2="12.02" y2="4.88" gradientUnits="userSpaceOnUse"><stop stop-color="#125AA7"/><stop offset="1" stop-color="#A0C4E1"/></linearGradient><linearGradient id="e" x1="8.99" y1="7.39" x2="9.1" y2="12.16" gradientUnits="userSpaceOnUse"><stop stop-color="#034EA1"/><stop offset="1" stop-color="#B5D4E9"/></linearGradient><linearGradient id="f" x1="4.61" y1="12.63" x2="13.9" y2="10.97" gradientUnits="userSpaceOnUse"><stop offset=".29" stop-color="#A8CAE4"/><stop offset="1" stop-color="#1159A7"/></linearGradient></defs></svg>