<!-- by TradingView --><svg width="18" height="18" viewBox="0 0 18 18" xmlns="http://www.w3.org/2000/svg"><path fill="#F0F3FA" d="M0 0h18v18H0z"/><path d="m10 6.67-.36.02a3.28 3.28 0 0 0-2.93 2.97l-.03.34H10V6.67ZM10 3h-.36C6.21 3 3 5.23 3 9.64V10h1.1C4 5.34 7.35 4.04 10 4.04V3Z" fill="#E52645"/><path d="m5.85 10-.05-.33-.02-.36.02-.34.05-.37c.95-3.84 6.36-3.56 6.87.37l.02.34-.02.36a3.49 3.49 0 0 1-6.87.32Zm4.35-5.31-.44-.07-.5-.03-.48.03-.48.07a4.7 4.7 0 0 0 .48 9.29l.48.02.5-.02a4.7 4.7 0 0 0 .44-9.3Z" fill="#13426B"/></svg>