<!-- by TradingView --><svg width="18" height="18" viewBox="0 0 18 18" xmlns="http://www.w3.org/2000/svg"><path fill="url(#a)" d="M0 0h18v18H0z"/><path d="M6.38 5H5L8.2 8.84l.09.1h1.36l-.08-.1-.68-.82L6.38 5ZM13 13 9.73 9.05H8.37l.5.62L11.64 13H13Z" fill="#fff"/><path d="M11.38 6.94 12.98 5h-1.36l-1.6 1.94h1.36Z" fill="#F15822"/><path d="m8.26 9.05-1.56 1.9h1.36l1.57-1.9H8.26Z" fill="#056CF2"/><path d="M9.92 7.06 8.36 8.95h1.36l1.56-1.9H9.92Z" fill="#2A8C24"/><path d="M6.6 11.05 5 13h1.37l1.6-1.95H6.62Z" fill="#009B9E"/><defs><linearGradient id="a" x1="3.35" y1="3.12" x2="21.9" y2="24.43" gradientUnits="userSpaceOnUse"><stop stop-color="#1A1E21"/><stop offset="1" stop-color="#06060A"/></linearGradient></defs></svg>