<!-- by TradingView --><svg width="18" height="18" viewBox="0 0 18 18" xmlns="http://www.w3.org/2000/svg"><path fill="#F0F3FA" d="M0 0h18v18H0z"/><path d="M7.7 9.5c.04.36-.91 1.03-1.4 1.33l.7.19c.6-.55.96-.97 1.05-1.33.09-.32.02-.5.18-.74.3-.47.78-.82 1.32-.97.32-.07.73-.12 1.04-.5.4-.44.56-1.2.72-1.64l-.14-.02-.15.02c-.12.5-.33.96-.61 1.38-.28.37-.7.4-1.1.5-.4.1-.7.29-1 .55-.4.35-.65.77-.6 1.22Z" fill="#CD181E"/><path d="M14.16 7.68c.32-.8.4-1.55.2-2.16-.65-1.97-3.46-1.39-4.87-.65-1.72.9-3.01 2.57-3.93 4.23a8.4 8.4 0 0 1 5.5-3.77c.77-.1 1.4.03 1.78.46.5.55.43 1.5-.1 2.53l1.42-.64Z" fill="#CD181E"/><path d="M3.84 10.32a3.2 3.2 0 0 0-.2 2.16c.65 1.97 3.46 1.39 4.87.65 1.72-.9 3.01-2.57 3.93-4.23a8.4 8.4 0 0 1-5.5 3.77c-.77.1-1.4-.03-1.78-.46-.5-.56-.43-1.5.1-2.53l-1.42.64Z" fill="#034EA1"/><path d="M5.75 9.8c-.3.78-.27 1.46.12 1.88.39.43 1.09.52 1.92.32a6.59 6.59 0 0 0 2.63-1.45 6.36 6.36 0 0 0 1.78-2.38c.3-.78.27-1.46-.12-1.89-.39-.41-1.09-.51-1.92-.3-.97.27-1.88.76-2.63 1.44A6.33 6.33 0 0 0 5.76 9.8Zm-.09-.03c.3-.79.94-1.66 1.8-2.42.77-.69 1.69-1.2 2.68-1.47.84-.2 1.59-.12 2.01.34.43.46.44 1.2.14 1.98-.3.79-.93 1.66-1.8 2.42a6.69 6.69 0 0 1-2.68 1.47c-.84.2-1.59.12-2.01-.34-.43-.46-.44-1.2-.13-1.98Z"/><path d="M6.35 8.62h5.68m-4.48 2.62h1.78" stroke="#000" stroke-width=".14"/><path d="M6.7 12.11V8.14h.1v3.97h-.1Zm-.75-.26V9.2h.1v2.65h-.1Zm5.9-2.97V6.06h.1v2.82h-.1Z"/><path d="M11.94 6.13H9.62v-.1h2.32v.1Z"/><path d="M7.84 9.84c-.04.66-.6 1.08-.88 1.2l.54.24c.85-.48.47-1.07.68-1.79.25-.51.9-.52 1.15-.76.21-.14.54-.4.85-.57.74-.14.9-.68.88-.94.5.03 1.03-.5 1.22-.76l-.14-.16-.1-.1a1.6 1.6 0 0 1-1 .85 1.22 1.22 0 0 1-.86.78c-.51.22-.74.61-1.33.83-.58.22-.97.35-1.01 1.18Z" fill="#034EA1"/><path d="M10.54 10.42c.23-.17.43-.36.62-.54-.2.24-.43.46-.68.69-1.73 1.54-3.8 2.08-4.63 1.2-.05-.05-.1-.1-.13-.16a.72.72 0 0 1-.18-.44c-.11-.54.06-1.24.46-1.96a3.27 3.27 0 0 0-.31 1.67c.23-.17.71-.15 1.27.04.35.1.67.3.92.59a4.79 4.79 0 0 0 2.67-1.1Z"/><path d="M11 10.02V5.78h.09v4.24h-.1Zm-.87.78V5.91h.1v4.89h-.1Zm-.85.6V6.21h.1v5.17h-.1Zm-.86.39V6.65h.1v5.14h-.1Zm-.9.28V7.31h.1v4.76h-.1Z"/><path d="M10.71 10.41h-5.2v-.1h5.2v.1Zm.78-.87H5.83v-.1h5.66v.1Zm.85-1.75H7.1v-.1h5.24v.1Zm.1-.83h-4.3v-.1h4.3v.1Z"/></svg>