<!-- by TradingView --><svg width="18" height="18" viewBox="0 0 18 18" xmlns="http://www.w3.org/2000/svg"><path fill="#C7996A" d="M0 0h18v18H0z"/><path d="M11.86 2.92c.08 0 .16.02.24.04l.17.05c.28.14.54.31.7.58.2.3.3.62.24.97v.1c0 .04 0 .08-.02.13a1.78 1.78 0 0 1-.5.81c-.14.11-.3.2-.45.27-.26.09-.54.1-.82.1H7.9l.17-.32c.17-.25.3-.53.35-.84.04-.14.04-.28.03-.42.01-.15 0-.3-.05-.44a1.17 1.17 0 0 0-.12-.35.56.56 0 0 0-.12-.24.4.4 0 0 0-.15-.2c-.02-.06-.07-.1-.12-.15a.98.98 0 0 1-.1-.12H11.55c.1 0 .2 0 .3.03Z" fill="#fff"/><path d="m13.07 10.08.03.02a1.72 1.72 0 0 0 1.08.44h.16l.12-.03.29-.08c.11-.04.21-.1.31-.16l.1-.06.1-.09.05-.04.24-.32.05-.09.12-.35c.02-.16.04-.32.03-.48l-.06-.33a4.2 4.2 0 0 0-.24-.45l-.21-.4a.86.86 0 0 0-.03-.05c-.04-.04-.08-.09-.08-.15-.05-.06-.08-.13-.12-.2v-.02l-.23-.4c-.02-.01-.03-.03-.03-.06a1.72 1.72 0 0 1-.2-.35c-.08-.12-.15-.26-.22-.4l-.63-1.1c-.09.26-.2.5-.36.7a.87.87 0 0 1-.24.27.38.38 0 0 1-.16.13.8.8 0 0 1-.26.18l-.06.04c-.11.05-.22.11-.35.13-.18.08-.38.1-.58.1h-.6c-.07 0-.07.04-.06.08a.97.97 0 0 1 .16.28c.09.13.17.26.23.4l.06.11.08.15.09.15c.08.13.16.26.21.4a1223.98 1223.98 0 0 1 .69 1.22c.04.05.07.12.1.18l.07.16.1.14c.08.11.15.23.25.33ZM2.63 10.08l.66 1.19.24.43.02.03.05.1c.07.09.12.18.16.28l.07.12.15.28.03.05.02.03.05.08c.05.08.1.16.12.25l.06.09.05.08c.07-.23.14-.43.28-.6.05-.1.12-.19.19-.27l.05-.06.09-.08a.69.69 0 0 0 .11-.1c.06-.05.11-.1.19-.12.25-.19.54-.29.86-.32.1-.04.2-.03.3-.03h.54c.04 0 .08 0 .04-.07a.89.89 0 0 1-.04-.1l-.02-.04a.5.5 0 0 1-.14-.2 17.04 17.04 0 0 1-.55-1.01l-.44-.8c-.16-.26-.32-.54-.45-.82l-.05-.07-.02-.05-.2-.3-.22-.23-.25-.17-.16-.07-.22-.05a200 200 0 0 0-.22-.05H3.6a2.72 2.72 0 0 0-.55.17L3 7.7l-.2.14-.22.23-.16.27-.06.1-.02.04c-.13.37-.11.75.02 1.12.02 0 .02.03.02.04v.02l.13.21.12.22Z" fill="#fff"/><path d="M13.65 13.32a1962.5 1962.5 0 0 1 .55-.99l.1-.17a9.27 9.27 0 0 0 .26-.46c.05-.12.11-.23.19-.33l.19-.37c-.07 0-.14.02-.21.04-.13.02-.26.05-.4.03-.08.02-.17 0-.26 0l-.12-.02-.03-.02c-.3-.04-.58-.15-.82-.33-.09-.04-.16-.1-.23-.17l-.02-.02a.6.6 0 0 1-.17-.18 9.05 9.05 0 0 0-.27-.37c-.06-.1-.13-.19-.18-.29-.06-.1-.08-.05-.12 0-.07.15-.14.3-.24.42-.06.15-.15.29-.23.42-.05.1-.1.2-.16.27-.01.04-.02.08-.06.11-.06.14-.14.28-.23.4v.03l-.02.02c-.04.08-.08.16-.14.23 0 .05-.02.08-.05.1 0 .02 0 .03-.03.03-.04.12-.1.23-.16.33l-.05.08-.02.04a46.07 46.07 0 0 0-.18.3l-.04.06-.1.2c-.1.2-.2.4-.25.61v.4c.03.3.16.57.33.81l.14.14.36.27.06.02.44.13.38.02.4-.1.23-.1.2-.13.24-.24.16-.23a9.23 9.23 0 0 1 .55-1Z" fill="#fff"/><path d="m5.25 12.51.02-.03c.1-.1.23-.17.35-.25l.04-.02.1-.05.1-.05.21-.04c.11-.03.22-.04.34-.04h3.68c.04 0 .07 0 .06.05l-.19.31-.06.12c-.16.25-.25.52-.3.81a2.2 2.2 0 0 0 .12.95c.01.03.02.06.05.08-.01.07.03.13.07.19.1.19.22.36.38.5.03.04.05.06-.01.07H6.34c-.1 0-.18 0-.27-.03l-.4-.14-.02-.01a3.5 3.5 0 0 1-.48-.4c-.17-.24-.32-.5-.34-.8V13.27l.14-.36c.07-.14.17-.27.28-.4ZM6.92 3l-.02-.02c-.4-.1-.81-.1-1.2.05a1.9 1.9 0 0 0-.67.57l-.2.35-.01.03-.12.21-.12.22c-.05.1-.1.19-.16.27a.3.3 0 0 1-.05.11l-.02.03-.45.8-.12.2-.1.2-.08.14a63.47 63.47 0 0 0-.44.79c-.03.02-.07.06.02.07a.94.94 0 0 1 .42-.07.76.76 0 0 1 .4 0 2.05 2.05 0 0 1 1.65 1.1h.01l.25.35.1-.15a278.34 278.34 0 0 0 .11-.2c.14-.27.29-.54.45-.8l.46-.82c.14-.27.29-.54.45-.8v-.01c.07-.14.14-.28.24-.4l.08-.2.08-.21c.1-.6-.03-1.13-.5-1.54a.14.14 0 0 1-.03-.03l-.01-.02h-.03a3.14 3.14 0 0 0-.4-.23Z" fill="#fff"/></svg>