<!-- by TradingView --><svg width="18" height="18" viewBox="0 0 18 18" xmlns="http://www.w3.org/2000/svg"><path fill="#6532FB" d="M0 0h18v18H0z"/><path d="M5.82 11.57H4.9L2.3 8.24v3.33H1.3V6.43h.88l2.58 3.33V6.43h1.07v5.14ZM8.97 11.57c-.78 0-1.43-.24-1.95-.73-.52-.5-.77-1.11-.77-1.84 0-.72.24-1.33.74-1.82.5-.5 1.13-.75 1.9-.75.82 0 1.5.27 2.02.81l-.72.7a1.76 1.76 0 0 0-1.3-.53A1.55 1.55 0 0 0 7.27 9c0 .46.15.84.46 1.14.3.3.71.45 1.22.45.47 0 .72-.09.95-.27v-.9H9v-.85h2.01v2.27c-.22.24-.51.42-.88.54-.36.13-.75.2-1.16.2ZM11.58 6.43h.93l1.64 2.3 1.63-2.3h.93v5.14H15.7V8.25l-1.54 2.1-1.52-2.1v3.32h-1.05V6.43Z" fill="#fff"/></svg>