<!-- by TradingView --><svg width="18" height="18" viewBox="0 0 18 18" xmlns="http://www.w3.org/2000/svg"><path fill="#F0F3FA" d="M0 0h18v18H0z"/><path d="m9.52 12.83 2.28 1.15V4.45L9.52 3.29v9.54Z" fill="url(#am145m2vz)"/><path d="M6.2 4.02v9.53l2.28 1.16V5.17L6.21 4.02Z" fill="url(#bm145m2vz)"/><path d="M5.17 5.9 2.89 4.73v9.53l2.28 1.16V5.89Z" fill="url(#cm145m2vz)"/><path d="M12.83 2.57v9.54l2.28 1.15V3.73l-2.28-1.16Z" fill="url(#dm145m2vz)"/><path d="M6.2 11.6c.8-.2 1.56-.46 2.28-.8V5.18L6.21 4.02v7.58Z" fill="url(#em145m2vz)"/><path d="M5.17 5.9 2.89 4.73V12h.09c.75 0 1.48-.07 2.19-.18V5.89Z" fill="url(#fm145m2vz)"/><path d="M9.52 10.27a12.9 12.9 0 0 0 2.28-1.66V4.45L9.52 3.29v6.98Z" fill="url(#gm145m2vz)"/><path d="M12.83 2.57v4.98a12.48 12.48 0 0 0 2.28-3.82l-2.28-1.16Z" fill="url(#hm145m2vz)"/><defs><radialGradient id="am145m2vz" cx="0" cy="0" r="1" gradientUnits="userSpaceOnUse" gradientTransform="matrix(19.426 0 0 20.2603 2.41 .53)"><stop offset=".65" stop-color="#F26531"/><stop offset=".75" stop-color="#ED1C24"/></radialGradient><radialGradient id="bm145m2vz" cx="0" cy="0" r="1" gradientUnits="userSpaceOnUse" gradientTransform="matrix(19.426 0 0 20.2603 2.41 .53)"><stop offset=".65" stop-color="#F26531"/><stop offset=".75" stop-color="#ED1C24"/></radialGradient><radialGradient id="cm145m2vz" cx="0" cy="0" r="1" gradientUnits="userSpaceOnUse" gradientTransform="matrix(19.426 0 0 20.2603 2.41 .53)"><stop offset=".65" stop-color="#F26531"/><stop offset=".75" stop-color="#ED1C24"/></radialGradient><radialGradient id="dm145m2vz" cx="0" cy="0" r="1" gradientUnits="userSpaceOnUse" gradientTransform="matrix(19.426 0 0 20.2603 2.41 .53)"><stop offset=".65" stop-color="#F26531"/><stop offset=".75" stop-color="#ED1C24"/></radialGradient><radialGradient id="em145m2vz" cx="0" cy="0" r="1" gradientUnits="userSpaceOnUse" gradientTransform="matrix(12.9042 0 0 12.5902 2.98 -.6)"><stop offset=".6" stop-color="#ED1C24"/><stop offset=".73" stop-color="#BA1015"/><stop offset=".85" stop-color="#92080A"/><stop offset=".94" stop-color="#7A0203"/><stop offset="1" stop-color="#710000"/></radialGradient><radialGradient id="fm145m2vz" cx="0" cy="0" r="1" gradientUnits="userSpaceOnUse" gradientTransform="matrix(12.9042 0 0 12.5902 2.98 -.6)"><stop offset=".6" stop-color="#ED1C24"/><stop offset=".73" stop-color="#BA1015"/><stop offset=".85" stop-color="#92080A"/><stop offset=".94" stop-color="#7A0203"/><stop offset="1" stop-color="#710000"/></radialGradient><radialGradient id="gm145m2vz" cx="0" cy="0" r="1" gradientUnits="userSpaceOnUse" gradientTransform="matrix(12.9042 0 0 12.5902 2.98 -.6)"><stop offset=".6" stop-color="#ED1C24"/><stop offset=".73" stop-color="#BA1015"/><stop offset=".85" stop-color="#92080A"/><stop offset=".94" stop-color="#7A0203"/><stop offset="1" stop-color="#710000"/></radialGradient><radialGradient id="hm145m2vz" cx="0" cy="0" r="1" gradientUnits="userSpaceOnUse" gradientTransform="matrix(12.9042 0 0 12.5902 2.98 -.6)"><stop offset=".73" stop-color="#BA1015"/><stop offset=".85" stop-color="#92080A"/><stop offset=".94" stop-color="#7A0203"/><stop offset="1" stop-color="#710000"/></radialGradient></defs></svg>