<!-- by TradingView --><svg width="18" height="18" viewBox="0 0 18 18" xmlns="http://www.w3.org/2000/svg"><path fill="#F0F3FA" d="M0 0h18v18H0z"/><path d="M1.98 5.68c.94-2.19 4.06-2.32 5.5-2.11-.42.46-.63 1.03-.51 1.54-.9-.18-2.86-.22-3.47 1.06-.8 1.67 1.83 4 3.33 4.77-2.3-.68-5.78-3.07-4.85-5.26Z" fill="#0082C8"/><path d="M15.84 12.19c1.05-2.38-.83-4.29-2.07-5.05.03.63-.58 1.33-1 1.65.8.44 1.94 1.7 1.26 2.78-1.6 2.54-6.71 1.3-8.35.92 3.72 2.57 9.13 2.04 10.16-.3Z" fill="#8F1860"/><circle cx="9" cy="8.55" r="2.25" fill="#D9D9D9"/></svg>