<!-- by TradingView --><svg width="18" height="18" viewBox="0 0 18 18" xmlns="http://www.w3.org/2000/svg"><path fill="#F0F3FA" d="M0 0h18v18H0z"/><path d="M6.6 11.56a3.78 3.78 0 0 0 3.28.8c.38-.08.66-.28.84-.6.2-.34.19-.7-.02-1.07-.19-.33-.7-.62-1.54-.86-.53-.15-1.12-.36-1.77-.61-1.22-.49-1.82-1.31-1.81-2.49.01-1.36.71-2.21 2.1-2.56a6 6 0 0 1 3.45.2c.38.12.7.33.94.62.15.18.2.4.15.63a.8.8 0 0 1-.37.54c-.18.12-.53.05-1.05-.19l-.13-.06c-.2-.09-.4-.16-.6-.2-1.17-.28-2.04-.17-2.6.32a.41.41 0 0 0-.08.1c-.4.7-.11 1.24.85 1.61.46.18 1.08.39 1.85.62.17.05.5.2.97.44a2.48 2.48 0 0 1 1.44 2.51c-.07 1.38-.81 2.23-2.24 2.55A5.16 5.16 0 0 1 6 13c-.3-.2-.46-.51-.49-.92 0-.06 0-.11.02-.17.15-.47.48-.62.98-.42l.1.07Z" fill="#1E2D4A"/></svg>