<!-- by TradingView --><svg width="18" height="18" viewBox="0 0 18 18" xmlns="http://www.w3.org/2000/svg"><path fill="#5D35F0" d="M0 0h18v18H0z"/><path fill-rule="evenodd" d="M12.12 11.5c.68 0 1.17-.25 1.17-.7 0-.42-.4-.77-1.22-1.04l-.71-.22c-1.34-.44-2.07-1.16-2.07-2.22C9.3 5.86 10.5 5 12.13 5c.5-.01.99.08 1.45.26.45.19.86.46 1.19.81l-1.13 1.14a2.02 2.02 0 0 0-1.5-.66c-.58 0-1.12.21-1.12.68 0 .47.42.61 1.31.9l.68.24c1.22.41 1.99 1.13 1.99 2.3-.02 1.38-1.21 2.33-2.95 2.33A3.67 3.67 0 0 1 9 11.61l1.3-1.02c.2.28.48.5.8.67.31.15.66.24 1.02.25Zm-3.02-.85c0-.4-.1-.79-.33-1.12-.22-.34-.53-.6-.9-.77a1.86 1.86 0 0 0 .65-1.43 2.26 2.26 0 0 0-.73-1.66A2.45 2.45 0 0 0 6.05 5H3v8h3.53C8 13 9.1 11.98 9.1 10.65Zm-3.04-4h-1.4v1.66h1.4a.83.83 0 1 0 0-1.66Zm.55 3.04H4.67v1.65H6.6a.83.83 0 1 0 0-1.65Z" fill="#fff"/></svg>