<!-- by TradingView --><svg width="18" height="18" viewBox="0 0 18 18" xmlns="http://www.w3.org/2000/svg"><path fill="#004F87" d="M0 0h18v18H0z"/><path d="M1 12v-.14l5.27-3.82c.28-.21.62-.38 1.03-.1l2.14 1.49-1.69-.77c-.43-.2-.67-.05-.86.07-.03.03-.06.05-.1.06L1 12.01Z" fill="#fff"/><path d="M1 14v-.52l6.29-4.15c.25-.17.55-.33 1-.06l2.65 1.62L9 10.31c-.43-.13-.63-.16-1.11.09L1 14ZM17 6v.21l-4.89 3.55c-.28.21-.62.38-1.03.1L8.94 8.36l1.68.77c.44.2.67.05.87-.07l.1-.06L17 6Z" fill="#fff"/><path d="M17 4v.57l-5.9 3.9c-.26.17-.56.33-1.02.06L7.4 6.92l1.99.57c.43.13.63.17 1.1-.09L17 4ZM1.55 9.9l4.18-3.2c.45-.35.85-.13.85-.13L8.7 8.25l-1.67-1c-.31-.19-.4-.14-.72.04l-.14.08-4.62 2.54ZM12.65 11.1l4.18-3.2-4.62 2.53-.14.08c-.32.18-.41.23-.72.04l-1.67-1 2.11 1.68s.41.22.86-.12Z" fill="#fff"/></svg>