<!-- by TradingView --><svg width="18" height="18" viewBox="0 0 18 18" xmlns="http://www.w3.org/2000/svg"><path fill="#F0F3FA" d="M0 0h18v18H0z"/><path d="m1.88 8.06 3.83 5.47-1.85-.67L1.13 8.2l.75-.14Z" fill="#00B5F1"/><path d="m5.65 13.5.6.23-4.01-5.74-.4.08 3.8 5.44Z" fill="#006DB5"/><path d="m7.77 7 1.33-.23.4.13-3.49 5.87-1.06.48L4.2 13 7.77 7Z" fill="#00B5F1"/><path d="m6.37 8.75 1.02-1.68.43-.07-3.57 6-.34-.12 2.46-4.13ZM8.5 6.88l1.4-.25-4.88 6.65-.47-.17L8.5 6.88Z" fill="#294580"/><path d="m5.02 13.28.58.21 5.95-7.16-1.7.3-4.83 6.65Z" fill="#006DB5"/><path d="m5.6 13.5 1.8.64 8.38-7.44 1.54-1.39-5.77 1.02L5.6 13.5Z" fill="#00B5F1"/><path d="M6.24 13.72 7 14 2.74 7.9l-.51.1 4 5.72Z" fill="#294580"/><path d="m7.4 14.14-.54-.2-4.22-6.02.25-.05 4.5 6.27Z" fill="#006DB5"/><path d="M17.33 5.3 1.11 8.18l.79 1.36 12.95-2 2.48-2.24Z" fill="url(#aozsvlrou)"/><defs><linearGradient id="aozsvlrou" x1="9.48" y1="6.75" x2="9.72" y2="8.09" gradientUnits="userSpaceOnUse"><stop stop-color="#F0F3FA"/><stop offset="1" stop-color="#F0F3FA" stop-opacity="0"/></linearGradient></defs></svg>