<!-- by TradingView --><svg width="18" height="18" viewBox="0 0 18 18" xmlns="http://www.w3.org/2000/svg"><path fill="#F0F3FA" d="M0 0h18v18H0z"/><path d="M5.33 10.74c-.7 0-1.34-.75-1.34-1.74 0-1 .64-1.74 1.34-1.74v3.48Zm9.53-.04h1.08l-.88-3.4h-.75l-.16.64.7 2.76Zm1.41 0h1.09l-.88-3.4h-.75l-.17.64.71 2.76Zm-2.29-2.12.55 2.12h-1.1l.55-2.12ZM7 9c0 1-.64 1.74-1.34 1.74V7.26C6.36 7.26 7 8.01 7 9Zm.36 0c0 1 .63 1.7 1.34 1.7V7.3C8 7.3 7.36 8 7.36 9Zm3.02 0c0 1 .64 1.74 1.34 1.74V7.26c-.7 0-1.34.75-1.34 1.74Zm1.67 1.74c.7 0 1.34-.75 1.34-1.74 0-1-.64-1.74-1.34-1.74v3.48ZM1.64 10.7h1.09V7.3h-1.1v3.4Zm8.38-2.17V7.3H8.78l1.24 1.23Zm0 2.17V9.47L8.78 10.7h1.24Zm-7.2-3.4h.9v1.77l-.9-1.77Zm-2.18 0h.9l-.9 1.77V7.3Z" fill="#003B90"/></svg>