<!-- by TradingView --><svg width="18" height="18" viewBox="0 0 18 18" xmlns="http://www.w3.org/2000/svg"><path fill="#F0F3FA" d="M0 0h18v18H0z"/><path d="M12.78 6.68c.28.14.32.23.1.2l-.42-.1-.48-.14c-.3-.09-.35-.16-.13-.18.11 0 .27 0 .45.05a2.62 2.62 0 0 1 .48.17Zm4.34 2.56c.07.35 0 .5-.1.33a6.29 6.29 0 0 1-.4-.87c-.13-.32-.13-.48.05-.35a1.56 1.56 0 0 1 .27.36c.08.16.15.35.18.53Zm-.58-.6c.12.31.09.45-.05.3-.08-.07-.17-.2-.27-.33l-.3-.45c-.18-.29-.19-.43 0-.32.1.06.23.17.34.32a2 2 0 0 1 .28.48Zm.1-.86c.16.36.13.54-.04.4-.1-.07-.2-.2-.33-.34-.12-.14-.25-.3-.36-.46-.22-.32-.26-.5-.03-.41.12.04.27.16.4.3.15.15.27.33.36.51Zm-.82-.45c.22.32.2.47.01.37a8.13 8.13 0 0 1-.82-.67c-.26-.26-.32-.42-.07-.36.12.03.28.1.44.23.16.12.32.28.44.43Zm0 .75c.19.28.17.42 0 .29a3.78 3.78 0 0 1-.52-.48 9.8 9.8 0 0 1-.19-.2c-.23-.24-.26-.36-.04-.28.22.08.57.38.75.67Zm-.8-.43c.23.25.24.37.04.26-.2-.1-.57-.35-.83-.54-.27-.19-.32-.3-.08-.25a2.19 2.19 0 0 1 .87.53Zm-.14-.68c.27.25.28.4.07.31a9.06 9.06 0 0 1-.93-.52c-.31-.2-.37-.33-.12-.3.12 0 .3.07.49.16.18.1.36.22.5.35Zm-.97-.22c.3.2.34.33.1.27a4.09 4.09 0 0 1-.47-.15l-.53-.2c-.33-.15-.4-.26-.15-.27a2.23 2.23 0 0 1 1.05.35Zm1.78-.4c.28.33.29.55.06.46a6.93 6.93 0 0 1-.97-.67c-.34-.28-.42-.47-.16-.45.13 0 .33.08.53.2.19.12.4.3.54.46Zm-1.03-.22c.33.28.37.47.12.4-.24-.06-.7-.3-1.05-.5-.37-.21-.48-.38-.2-.39a2.32 2.32 0 0 1 1.14.48Zm-.46-1.1c.11.07.2.15.26.21s.1.12.12.17c.04.1 0 .14-.14.13-.07 0-.15-.02-.24-.04l-.32-.11-.7-.3a1.32 1.32 0 0 1-.43-.3c-.07-.09-.05-.16.1-.19.14-.03.36 0 .61.07.25.08.52.2.74.36Zm-1.14.07c.44.22.54.43.27.43-.14 0-.35-.03-.57-.07a9.3 9.3 0 0 1-.7-.19c-.46-.15-.63-.3-.36-.4.13-.03.36-.04.62 0a2.94 2.94 0 0 1 .74.23Zm.52.91c.35.21.4.37.15.34l-.22-.03a8.22 8.22 0 0 1-.9-.29c-.37-.14-.48-.27-.22-.32.26-.04.8.08 1.19.3Zm-1.09.03c.37.15.45.29.2.29a7.06 7.06 0 0 1-1.12-.14c-.4-.08-.5-.19-.25-.26.25-.08.8-.03 1.17.11Zm-.6-.75c.23.07.38.15.43.22.05.06.01.11-.12.13-.28.04-.84 0-1.26-.07-.41-.06-.6-.18-.34-.3.13-.05.33-.1.57-.1.23 0 .5.05.73.12Zm-1.06.33c.42.06.55.2.3.27a7.6 7.6 0 0 1-1.16.12c-.4 0-.56-.09-.34-.23.1-.07.3-.13.52-.16.21-.03.48-.03.68 0Zm3.22 1.68c.27.19.3.3.08.22l-.43-.16-.5-.22c-.3-.13-.34-.22-.1-.2.23 0 .67.16.95.36Zm-.95-.17c.3.14.33.23.1.2a6.71 6.71 0 0 1-.97-.23c-.31-.08-.37-.15-.13-.17.12-.01.3 0 .48.04a2.92 2.92 0 0 1 .52.16Zm-1.3-.43c.32.07.38.17.14.19a11.5 11.5 0 0 1-1.02-.01c-.33-.03-.41-.1-.18-.17.11-.04.29-.07.48-.07.2 0 .4.02.57.06Zm.3.4c.3.09.36.17.12.17l-.46-.02-.51-.04c-.32-.02-.38-.08-.15-.14a2.38 2.38 0 0 1 1 .03Zm-.96.14c.31.03.36.09.14.13-.24.04-.66.08-.93.1-.28.03-.35-.01-.14-.1.2-.1.61-.16.93-.13Zm-.36-.34c.33.02.4.1.16.16a7.25 7.25 0 0 1-.95.16c-.3.03-.37-.03-.17-.14a2.23 2.23 0 0 1 .96-.18Zm-.88.36c.3-.03.37.03.16.12-.2.09-.58.22-.82.3-.24.07-.32.03-.16-.1.15-.14.52-.29.82-.32Zm1.44-1.06c.38.07.46.19.21.23-.26.04-.74.06-1.08.05-.36-.01-.47-.09-.24-.2.23-.1.72-.16 1.11-.08Zm-.98.32c.35.01.44.1.2.18a8.22 8.22 0 0 1-.99.2c-.3.06-.4 0-.21-.14.19-.13.64-.25 1-.24Zm-.6-.45c.39 0 .51.1.28.2-.23.12-.69.24-1.01.3-.34.06-.47 0-.3-.16.17-.16.63-.33 1.02-.34Zm-.81.57c.33-.06.44.02.25.15s-.56.31-.83.41c-.26.1-.37.06-.25-.12.12-.17.49-.38.83-.44Zm.52.33c.3-.04.4.03.2.14-.2.1-.57.26-.83.34-.25.09-.34.05-.2-.1.15-.16.52-.34.83-.38Zm-.7.55c.26-.09.34-.04.18.1-.15.13-.44.33-.63.44-.18.1-.26.07-.17-.09.1-.16.37-.37.63-.45Zm-.48-.24c.27-.1.37-.04.23.11-.15.15-.42.36-.61.49-.2.12-.3.08-.22-.09.07-.17.34-.4.6-.5Zm-.42.67c.2-.12.28-.08.19.08-.1.16-.28.39-.4.51-.14.13-.21.1-.19-.06.02-.17.2-.4.4-.53Zm2.4-.44c.27-.02.33.03.12.1-.2.08-.58.19-.82.26-.24.06-.3.03-.13-.1a2.17 2.17 0 0 1 .83-.27Zm-.77.4c.24-.06.3-.02.12.09l-.65.36c-.19.1-.24.07-.12-.06.11-.14.4-.32.65-.38Zm-.33-.19c.25-.07.31-.02.15.1l-.65.4c-.18.1-.24.06-.14-.08.1-.15.4-.34.64-.42Zm-.55.56c.2-.1.25-.07.13.07l-.44.45c-.12.11-.18.09-.12-.06.05-.15.24-.36.43-.46Zm.28.15c.18-.1.24-.06.1.07-.12.13-.33.32-.45.43-.12.12-.16.1-.1-.05.06-.15.26-.35.45-.45ZM8.52 9c.13-.11.17-.08.1.05l-.25.46c-.07.1-.1.08-.1-.05A.83.83 0 0 1 8.53 9Zm-.25-.12c.13-.12.18-.1.12.05l-.25.47c-.06.1-.1.08-.1-.06s.1-.35.23-.46Zm-.13.58c.07-.11.12-.09.1.05l-.06.43c-.02.1-.06.07-.1-.05a.63.63 0 0 1 .06-.43Zm.14-1.34c.2-.11.27-.07.16.07-.1.15-.3.36-.43.48-.12.12-.19.1-.15-.06a1 1 0 0 1 .42-.5ZM8 8.74c.13-.12.2-.09.13.06-.05.15-.16.36-.23.48-.07.11-.12.09-.12-.06 0-.14.09-.36.22-.48Zm-.35-.13c.13-.13.2-.1.16.06-.04.15-.14.37-.21.5-.08.11-.15.09-.16-.06a.72.72 0 0 1 .2-.5Zm-.05.62c.08-.12.14-.1.14.05 0 .14-.03.35-.05.45-.03.1-.09.08-.14-.05a.55.55 0 0 1 .04-.45Zm.3.12c.07-.11.12-.09.11.05 0 .14-.03.34-.05.44-.03.1-.07.07-.12-.05a.6.6 0 0 1 .06-.44Zm.07.54c.03-.1.08-.07.11.05l.09.37c.01.08-.04.06-.1-.05a.57.57 0 0 1-.1-.37Zm-.26-.1c.03-.1.08-.08.12.05.04.12.08.3.09.37 0 .08-.05.07-.13-.04a.53.53 0 0 1-.08-.38Zm.24.47c0-.08.05-.06.11.04.07.1.16.24.18.3.03.05-.02.04-.11-.04-.1-.09-.18-.22-.18-.3Zm.4-.66c.07-.1.11-.08.1.06l-.05.42c-.02.1-.06.07-.1-.05a.63.63 0 0 1 .06-.43Zm.06.53c.02-.09.06-.07.09.06l.1.35c.03.08-.02.05-.09-.05a.71.71 0 0 1-.08-.18.45.45 0 0 1-.02-.18Zm-.2-.1c.01-.1.06-.08.09.04l.1.36c.02.08-.03.05-.1-.05s-.12-.26-.1-.36Zm.22.45c-.02-.08.02-.05.1.05.06.1.16.22.2.27.04.05 0 .03-.1-.04a.61.61 0 0 1-.2-.28Zm.2.12c-.01-.08.02-.05.1.05l.22.27c.04.05 0 .02-.1-.05a.71.71 0 0 1-.21-.27Zm.36.35c-.04-.04 0-.02.1.06a1.47 1.47 0 0 0 .19.12 1.15 1.15 0 0 1-.29-.18Zm-.22-.1c-.03-.06 0-.04.1.04s.23.16.28.19l-.11-.05a.94.94 0 0 1-.27-.19Zm-.56-.47c-.01-.08.03-.06.1.04l.2.28c.03.06-.02.04-.11-.04-.1-.08-.18-.2-.2-.28Zm.34.36c-.04-.05 0-.03.1.04l.26.2c.04.03-.01.02-.12-.04a.77.77 0 0 1-.24-.2Zm-.25-.1c-.03-.05.02-.03.11.05l.24.2c.04.04-.01.03-.11-.03a.63.63 0 0 1-.24-.21Zm.4.28c-.04-.04.01-.02.12.04l.27.12c.04.02-.01.01-.12-.03a.91.91 0 0 1-.27-.13Zm.26.09c-.05-.04 0-.02.1.04l.22.09-.04-.01a1.21 1.21 0 0 1-.28-.12Zm.32.13-.14-.04.13.04s.02 0 0 0Zm2.77-7.22c.58.2.78.47.5.53-.3.06-.96-.03-1.49-.14-.56-.12-.85-.29-.6-.45.14-.07.38-.12.68-.1.28 0 .61.05.9.16Zm-1.1.45c.53.11.73.32.46.41-.14.05-.35.07-.6.08-.25.01-.54 0-.79-.01-.51-.03-.75-.16-.54-.33.11-.09.33-.16.6-.19.27-.03.58-.02.86.04Zm-1.55-1c.34.02.6.1.73.19.14.08.15.18.03.26-.13.08-.36.14-.64.18-.27.05-.58.09-.87.1-.6.03-.95-.07-.8-.31.09-.12.3-.24.58-.32.28-.08.63-.12.97-.1Zm-.84.83c.59-.03.87.14.65.31-.21.18-.8.35-1.29.44-.49.1-.77.02-.65-.21.06-.12.23-.25.46-.35.23-.1.53-.18.83-.2Zm1.3.71c.52.04.71.2.46.31-.26.12-.81.22-1.24.26-.44.04-.65-.05-.48-.24.19-.19.75-.36 1.27-.33Zm-.87.64c.43-.03.6.09.4.23a4 4 0 0 1-1.05.4c-.36.08-.54.03-.4-.17.13-.2.6-.42 1.05-.46Zm-1.18-.5c.5-.09.75.04.56.22-.18.2-.65.42-1.03.55-.4.14-.63.1-.55-.13.09-.23.53-.54 1.02-.63Zm-.52.87c.38-.13.6-.05.46.14-.13.2-.5.46-.8.61-.3.16-.48.13-.44-.08.05-.22.38-.54.78-.67ZM6.6 3.59c.66-.15 1.09.01.93.25-.08.12-.26.25-.49.37-.23.12-.5.24-.77.33-.53.18-.9.16-.88-.11.02-.14.15-.31.36-.47.22-.16.52-.3.85-.37Zm-.36 1.07c.53-.18.88-.08.76.15-.12.24-.57.55-.98.75-.2.1-.38.14-.5.14-.12-.01-.2-.08-.2-.2 0-.13.1-.3.26-.45.16-.16.4-.3.66-.4Zm-2.08-.12c.52-.3.99-.27.97 0-.02.28-.4.69-.8.98-.4.3-.75.36-.86.1-.1-.25.16-.77.69-1.08Zm.19 1.1c.4-.3.77-.28.77-.02 0 .25-.28.64-.57.9-.27.27-.54.32-.65.1-.05-.12-.04-.29.03-.47.07-.17.22-.37.42-.51Zm1.61.04c.41-.2.7-.13.62.1a2.1 2.1 0 0 1-.71.75c-.3.2-.53.2-.56-.03-.02-.23.25-.62.65-.82Zm-.1.95c.3-.2.53-.16.5.05-.05.21-.28.53-.49.72-.21.2-.4.2-.44 0-.05-.21.13-.57.43-.77Zm-1.3.03c.29-.27.58-.27.6-.04a.86.86 0 0 1-.09.41c-.07.15-.14.3-.24.4-.2.24-.4.28-.52.08-.11-.2-.02-.6.25-.85Zm.3.87c.2-.23.42-.23.47-.03.05.2-.04.52-.16.72-.13.2-.3.24-.41.06-.12-.17-.09-.52.1-.75Zm3.3-1.24c.36-.1.52-.01.35.15-.17.17-.54.38-.81.5-.28.13-.43.1-.34-.1.09-.2.43-.46.8-.55Zm-.51.74c.28-.12.41-.06.3.11-.13.17-.4.41-.6.55-.2.14-.32.11-.28-.08.04-.18.3-.46.58-.58Zm-.82-.22c.3-.15.48-.1.39.1-.1.2-.35.47-.55.63-.2.16-.35.14-.35-.06s.22-.5.51-.67Zm-.17.81c.21-.16.35-.12.31.07-.04.18-.2.45-.33.6-.14.16-.26.15-.3-.03-.02-.18.11-.48.32-.64Zm.65.16c.2-.13.32-.1.24.08-.03.09-.1.2-.16.3-.07.1-.14.19-.21.25-.13.14-.23.12-.23-.05 0-.17.15-.44.36-.58Zm-.14.71c.14-.14.23-.1.2.06-.02.16-.1.4-.18.52-.08.12-.16.1-.2-.04-.03-.16.05-.4.18-.54Zm-.54-.1c.14-.16.26-.13.25.04 0 .09-.02.2-.05.3-.03.1-.06.18-.1.25-.07.14-.17.13-.23-.03a.62.62 0 0 1 .13-.56Zm.12.66c.08-.13.18-.11.21.04s.03.36 0 .48c-.04.11-.12.1-.2-.03a.55.55 0 0 1 0-.49Zm-.92-1.5c.21-.2.4-.17.39.03 0 .2-.14.5-.26.66-.13.17-.27.18-.34 0s0-.5.2-.69Zm.15.77c.13-.17.28-.15.3.02.04.18 0 .44-.09.59-.07.15-.2.15-.27 0-.09-.16-.07-.44.06-.6Zm-.8.04c.13-.2.3-.2.37-.03.07.18.05.46-.01.62-.07.17-.2.19-.32.04a.58.58 0 0 1-.04-.63Zm.4.66c.07-.16.21-.17.3-.02.08.16.12.38.1.52-.04.14-.15.15-.27.03-.13-.13-.19-.37-.12-.53Zm.64 0c.08-.16.2-.15.25 0 .05.16.06.39.03.5-.03.12-.13.12-.22 0-.1-.13-.14-.36-.06-.5Zm.32.56c.04-.12.13-.1.21.02.08.13.13.31.13.41 0 .1-.09.1-.2-.01-.1-.1-.17-.3-.14-.42Zm-.52.01c.03-.14.14-.14.24 0 .1.12.17.3.16.42 0 .1-.1.1-.22 0a.57.57 0 0 1-.15-.19.38.38 0 0 1-.03-.23Zm.46.46c0-.1.1-.1.2 0s.2.25.22.33c0 .09-.08.09-.2.01-.12-.08-.23-.23-.22-.34Zm.72-.92c.08-.12.16-.1.17.05 0 .15 0 .35-.03.46-.03.1-.1.09-.16-.04a.57.57 0 0 1 .02-.47Zm.16.57c.04-.11.1-.1.15.04.05.12.09.3.09.38 0 .09-.06.07-.14-.03-.09-.1-.13-.29-.1-.4ZM7 9.62c.04-.12.12-.1.18.03a1.32 1.32 0 0 1 .1.4c0 .09-.07.08-.16-.03-.1-.1-.15-.28-.12-.4Zm.32.48c0-.1.08-.08.16.03.08.1.16.24.18.31.01.07-.05.06-.16-.02-.1-.09-.18-.23-.18-.32Zm.34.08c0-.09.05-.07.13.04.07.1.15.23.18.3.02.06-.04.04-.14-.04s-.17-.22-.17-.3Zm.35.37c-.02-.06.03-.04.12.04l.24.22c.03.04-.03.03-.13-.03s-.21-.16-.23-.23Zm-.3-.06c-.03-.07.04-.06.13.02.1.09.2.19.23.24.03.04-.03.03-.14-.03-.1-.06-.21-.17-.23-.23Zm.4.28c-.02-.04.04-.03.14.03l.26.16c.03.03-.03.02-.14-.02a.6.6 0 0 1-.25-.17Zm-1.17-.72c0-.1.09-.09.18.02.09.1.17.25.19.32.01.08-.06.07-.17 0-.11-.1-.2-.24-.2-.34Zm.42.38c-.02-.07.05-.06.16.02.1.09.2.2.23.25.02.05-.05.05-.16-.02-.11-.06-.22-.17-.23-.25Zm-.4-.01c0-.09.07-.08.18 0 .11.08.22.2.24.26.03.06-.05.06-.17 0-.12-.06-.24-.18-.25-.26Zm.48.29c-.03-.07.05-.06.16 0s.23.14.26.19c.02.04-.05.04-.16 0-.12-.05-.24-.14-.26-.2Zm.36.02c-.03-.05.04-.04.15.02l.25.17c.03.03-.04.03-.15-.01-.11-.05-.23-.13-.25-.18Zm.45.2c-.03-.03.03-.02.14.02l.26.11c.03.02-.04.02-.15 0a.63.63 0 0 1-.25-.12Zm-.34-.01c-.03-.04.04-.04.15 0 .12.05.23.1.26.13.03.02-.04.02-.15 0-.12-.03-.23-.09-.26-.13Zm.46.14c-.03-.03.04-.02.15 0 .1.03.22.05.25.07H8.6a.63.63 0 0 1-.25-.07Zm.06-.21c-.04-.04.02-.03.12.03l.26.14c.04.02-.02.01-.13-.03a.7.7 0 0 1-.25-.14Zm.43.19c-.04-.03.02-.01.13.02l.27.08-.13-.02a1.06 1.06 0 0 1-.27-.08Zm-.3-.05c-.03-.03.03-.02.14.02l.26.08c.04.02-.02.01-.13-.01a.8.8 0 0 1-.26-.1Zm.45.12c-.03-.02.03 0 .14.01l.12.02c.01 0 .02 0 0 0-.1 0-.22-.02-.26-.03Zm-.3-.03c-.03-.02.03-.01.14 0l.25.05h-.14a.82.82 0 0 1-.25-.05Zm.55.06h-.11.13-.02Zm-.43 0a3.6 3.6 0 0 0 .23.02c-.1 0-.2-.01-.23-.03Zm-6.4-5.1c.33-.39.75-.46.86-.2.12.24-.03.7-.26 1.03a1.2 1.2 0 0 1-.18.21.54.54 0 0 1-.18.11.31.31 0 0 1-.34-.07.6.6 0 0 1-.15-.45c.01-.2.1-.43.26-.62Zm.67.93c.23-.34.57-.4.68-.18.11.23.02.63-.13.9-.14.28-.37.37-.55.2a.59.59 0 0 1-.15-.4c0-.17.03-.35.15-.52Zm-1.54.68c.14-.4.48-.55.68-.35.2.2.24.6.15.94-.08.3-.29.45-.53.33a.65.65 0 0 1-.29-.36.9.9 0 0 1-.05-.26c0-.1.01-.2.04-.3Zm.93.65c.1-.32.37-.44.55-.27.18.17.24.54.2.79-.05.25-.23.37-.45.26-.22-.12-.38-.47-.3-.78Zm1.22-.5a.46.46 0 0 1 .28-.24c.1-.02.19.01.24.11.06.1.08.24.08.38 0 .13-.02.27-.07.39-.1.23-.27.3-.44.14-.17-.15-.24-.5-.1-.77Zm.6.71c.1-.23.3-.27.41-.1.12.17.15.46.1.65-.06.2-.2.24-.36.11-.16-.13-.25-.43-.15-.66Zm-.99.4c.05-.26.27-.36.44-.2.17.15.26.44.24.65-.02.2-.17.3-.37.2a.65.65 0 0 1-.3-.66Zm.76.5c.03-.21.2-.27.36-.14.16.12.27.37.27.54 0 .17-.13.23-.31.14-.19-.09-.34-.33-.32-.54Zm-2.72-.25c0-.36.25-.55.49-.42.24.12.4.47.42.75.02.28-.13.45-.38.39s-.52-.38-.53-.72Zm1.02.37c-.01-.28.2-.44.42-.32.21.11.37.41.4.64.02.22-.12.35-.34.3a.72.72 0 0 1-.48-.62Zm-.77.95c-.1-.3.06-.52.3-.46.26.06.5.33.58.58.08.23-.01.41-.24.4-.24 0-.55-.23-.64-.52Zm.98.13c-.08-.24.07-.41.3-.35.22.06.43.29.5.48.07.2-.02.33-.23.32a.72.72 0 0 1-.57-.45Zm.7-.7c-.02-.24.15-.35.35-.25.2.1.36.34.39.52.02.19-.1.29-.3.23a.65.65 0 0 1-.44-.5Zm.82.3c-.03-.18.12-.26.3-.17s.33.28.37.43c.03.14-.08.22-.26.17-.18-.05-.38-.24-.4-.42Zm-.61.56c-.08-.2.05-.32.26-.26.1.02.2.09.28.16.08.07.15.15.18.23.06.16-.03.27-.22.25a.65.65 0 0 1-.5-.38Zm.8.15c-.06-.16.06-.25.24-.2.19.04.37.2.42.32.06.12-.03.2-.2.2-.18-.03-.4-.16-.46-.32Zm.58-1.74c.05-.2.2-.22.33-.08.12.14.18.4.17.54-.02.14-.14.18-.29.07-.15-.11-.27-.34-.21-.53Zm.56.5c.02-.14.15-.16.28-.04.12.12.21.3.22.43 0 .12-.1.14-.25.05-.15-.09-.27-.29-.25-.43Zm-.65.22c0-.17.14-.22.3-.11.15.1.26.3.28.44.01.12-.1.17-.26.1-.17-.08-.32-.26-.32-.43Zm.65.36c-.01-.13.1-.17.25-.07.14.09.27.24.3.34.02.1-.08.14-.23.08-.16-.06-.3-.22-.32-.35Zm.56-.14c0-.12.1-.13.23-.03.12.1.23.25.24.34.02.1-.07.1-.2.04-.15-.07-.27-.23-.27-.35Zm.53.35c-.01-.1.08-.1.2-.03.13.09.24.2.27.27.02.06-.06.08-.2.02-.12-.05-.25-.17-.27-.26Zm-.48.1c-.02-.1.08-.13.22-.05.14.07.27.19.3.26.02.08-.07.1-.2.06-.15-.05-.3-.17-.32-.27Zm.58.24c-.03-.08.06-.1.19-.04.13.05.26.14.29.2.02.05-.06.07-.19.04-.13-.03-.27-.12-.3-.2Zm-1.76-.28c-.03-.15.1-.2.26-.13s.31.22.35.34c.04.11-.06.17-.23.13a.63.63 0 0 1-.24-.13.42.42 0 0 1-.14-.2Zm.68.23c-.03-.11.08-.16.23-.1.15.06.3.18.33.27.04.09-.05.13-.2.1-.16-.04-.32-.15-.36-.27Zm-.49.32c-.05-.12.05-.2.22-.15.16.04.33.15.38.25.05.1-.03.16-.19.15-.16-.01-.35-.12-.4-.25Zm.67.11c-.05-.1.04-.15.2-.12.15.04.3.13.35.2.04.08-.03.13-.18.12-.15-.01-.32-.1-.37-.2Zm.45-.23c-.03-.1.06-.13.2-.08s.28.14.32.2c.03.07-.05.1-.19.08-.14-.03-.3-.12-.33-.2Zm.58.14c-.03-.07.05-.1.18-.06.14.03.26.1.3.15.03.05-.05.07-.18.06-.13-.02-.27-.09-.3-.15Zm-.41.19c-.05-.08.04-.12.18-.1.14.03.28.1.32.15.04.05-.04.1-.17.09-.14 0-.29-.07-.33-.14Zm.56.05c-.04-.05.04-.08.17-.07.13.02.25.06.29.1.03.04-.04.07-.16.07-.13 0-.26-.04-.3-.1Zm.14-.6c-.02-.08.06-.08.18-.02s.24.14.27.2c.02.04-.05.05-.18.01-.12-.04-.25-.13-.27-.2Zm.5.2c-.03-.06.05-.06.17-.02.11.05.23.1.26.13.03.04-.05.04-.16.02-.12-.03-.24-.09-.27-.14Zm-.4.04c-.02-.05.06-.07.19-.02.12.04.24.1.27.14.03.04-.05.05-.17.03-.13-.02-.25-.09-.28-.15Zm.51.13c-.02-.04.05-.05.17-.02.12.02.23.06.26.09.02.02-.05.04-.17.02-.11 0-.23-.05-.26-.1Zm.37-.04c-.02-.03.05-.03.16 0 .11.02.22.05.25.07.02.02-.05.03-.16.01-.1 0-.22-.05-.25-.08Zm.46.08c-.03-.02.04-.02.15-.01l.23.03-.15.01c-.1 0-.2-.02-.23-.03Zm-.35.03c-.03-.02.05-.03.16-.02l.23.05c.02.01-.05.03-.15.02-.1 0-.22-.02-.24-.05Zm.44.03c-.02-.01.05-.02.15-.02h.21l-.15.03c-.1.01-.19 0-.21-.01Zm-1.3-.01c-.02-.05.05-.07.18-.05.12.02.24.07.27.1.02.03-.05.05-.17.05-.12-.01-.24-.05-.27-.1Zm.5.05c-.03-.03.05-.04.16-.03a.7.7 0 0 1 .25.05c.02.02-.05.04-.16.04-.1 0-.22-.02-.25-.06Zm-.36.12c-.04-.04.04-.06.16-.06.12.01.23.04.26.07.02.03-.05.05-.16.06-.11 0-.23-.03-.26-.07Zm.47 0c-.03-.02.04-.04.15-.04.11 0 .21 0 .23.03.02.01-.05.04-.15.05-.1.01-.2 0-.23-.03Zm.35-.1c-.02-.02.05-.03.15-.03l.22.02c.02.01-.05.03-.15.04-.1 0-.2 0-.22-.02Zm.42-.01c-.02-.01.05-.03.15-.04h.19l-.15.03a.47.47 0 0 1-.2 0Zm-.34.1c-.02-.03.05-.04.15-.05h.2c.01 0-.05.03-.15.05h-.2Zm.4-.06c-.02-.01.05-.03.14-.04l.17-.03-.14.05c-.09.02-.17.03-.18.02Zm.2-.13.15-.01.21-.01-.14.02a.8.8 0 0 1-.21 0Zm.08.02.14-.02.14-.02-.1.02a.76.76 0 0 1-.18.02Zm.05.02a.56.56 0 0 1 .14-.04l.1-.02-.08.02a.66.66 0 0 1-.16.04Zm.02 0 .15-.04.07-.02-.07.03a.54.54 0 0 1-.15.04Zm-6.92.41c-.08-.12-.1-.23-.07-.32.03-.08.1-.14.22-.14.24.01.5.2.64.4.12.2.08.37-.12.4-.2.04-.52-.1-.67-.34Zm.88-.06c-.13-.2-.04-.38.18-.37.2.01.45.18.55.34.1.16.05.3-.13.33a.7.7 0 0 1-.6-.3Zm-.16.94c-.2-.2-.17-.4.03-.44.2-.03.48.1.63.25.16.17.17.33 0 .4-.16.07-.47-.01-.66-.2Zm.75-.2c-.16-.17-.12-.34.07-.36.19-.03.43.08.56.22.12.13.1.27-.05.32-.16.05-.43-.02-.58-.19Zm.24-.76c-.1-.16-.02-.3.18-.28.19.01.4.15.5.28.08.13.02.24-.16.26a.63.63 0 0 1-.52-.26Zm.75 0c-.09-.14 0-.24.18-.22.17.01.36.12.44.22.07.11 0 .2-.15.21-.17.01-.38-.08-.47-.21Zm-.27.61c-.13-.13-.08-.27.1-.29.17-.01.39.08.49.19.1.1.07.22-.08.26a.59.59 0 0 1-.51-.16Zm.66-.11c-.1-.12-.04-.23.12-.24.16 0 .35.06.44.16.08.09.04.18-.1.21a.53.53 0 0 1-.46-.13ZM3.7 13.2c-.22-.16-.25-.35-.08-.42.16-.06.43 0 .6.14.17.13.22.29.1.38-.12.08-.4.05-.62-.1Zm.58-.31c-.17-.13-.17-.3-.01-.35.16-.05.4.02.53.12.14.11.16.25.04.32-.13.07-.38.04-.55-.1Zm.33.85c-.23-.11-.31-.3-.19-.38.13-.09.37-.05.56.05.19.1.28.24.2.34-.08.1-.34.1-.57 0Zm.42-.37c-.19-.1-.24-.26-.11-.33s.35-.04.5.05c.15.08.2.21.12.3-.1.08-.33.08-.51-.02Zm-.15-.72c-.14-.11-.13-.25.03-.29a.6.6 0 0 1 .47.1c.11.1.11.22-.01.27-.12.06-.35.03-.5-.08Zm.56-.2c-.11-.1-.08-.2.06-.24.14-.03.33.01.42.09.09.08.08.17-.04.22a.48.48 0 0 1-.44-.07Zm.04.61c-.15-.09-.17-.22-.04-.28.12-.06.32-.03.44.04.12.08.15.19.06.26-.1.07-.3.07-.46-.02Zm.45-.26c-.12-.08-.12-.2 0-.24.12-.05.3-.03.4.04.1.06.1.15 0 .21s-.28.06-.4-.01Zm-.61-1.23c-.08-.1 0-.19.17-.17.16 0 .33.09.39.17.06.09 0 .16-.15.17-.15 0-.34-.06-.41-.17Zm.63 0c-.07-.08.01-.14.16-.13.15 0 .3.07.35.13.05.07-.01.12-.15.13-.14.01-.3-.04-.36-.13Zm-.31.4c-.09-.1-.02-.18.12-.19.15-.01.32.04.39.12.07.07.02.14-.11.17s-.32-.01-.4-.1Zm.57-.08c-.07-.07 0-.14.13-.15.14-.01.29.03.34.08.05.06 0 .12-.12.15-.12.02-.28-.01-.35-.08Zm.32-.31c-.05-.07.02-.12.16-.11.13 0 .27.05.3.1.05.04-.01.09-.14.1-.12.01-.27-.03-.32-.1Zm.52-.02c-.04-.05.03-.09.16-.09.12 0 .24.03.27.07.04.03-.03.07-.14.09-.11 0-.25-.02-.29-.07Zm-.3.26c-.06-.06 0-.11.12-.12.13-.01.26.01.3.06.05.04 0 .1-.12.11-.11.03-.25 0-.3-.05Zm.47-.07c-.04-.05.02-.1.14-.1.11-.02.23 0 .26.03s-.02.08-.13.1c-.1.02-.22.01-.27-.03ZM6 12.3c-.09-.08-.05-.17.08-.2.14-.02.3 0 .37.07.07.06.05.14-.06.18A.43.43 0 0 1 6 12.3Zm.5-.15c-.07-.06-.02-.13.1-.16.12-.02.26 0 .32.05s.03.12-.08.15c-.1.04-.26.03-.34-.04Zm-.1.43c-.1-.06-.08-.15.03-.2a.43.43 0 0 1 .34.03c.08.05.08.13-.02.18a.38.38 0 0 1-.35 0Zm.42-.2c-.08-.04-.05-.12.05-.16.1-.04.24-.03.3.01.07.04.05.11-.04.16s-.23.05-.31 0Zm.16-.35c-.06-.05-.01-.11.1-.13.11-.03.24-.01.28.02.05.04 0 .1-.1.13-.1.04-.22.03-.28-.02Zm.43-.12c-.05-.04 0-.09.1-.11.11-.03.22-.02.25 0 .03.04 0 .09-.1.12s-.2.03-.25 0Zm-.19.3c-.06-.03-.03-.1.07-.14.1-.03.22-.03.27 0 .04.04.02.1-.07.14-.08.05-.2.05-.27 0Zm.38-.15c-.05-.04-.01-.1.08-.12.1-.04.19-.04.23-.01.03.02 0 .08-.08.12-.08.04-.19.04-.23 0Zm-.07-.53c-.03-.03.04-.06.15-.07.11 0 .22.01.24.04.03.02-.03.05-.14.07-.1.02-.22 0-.25-.04Zm.44-.04c-.02-.03.04-.05.15-.06.1-.02.2-.01.2 0 .02.02-.04.05-.13.07-.1.02-.2.01-.22-.01Zm-.3.18c-.04-.03.02-.07.13-.09.1-.01.2 0 .22.02.02.02-.03.06-.12.09-.1.02-.2.01-.24-.02Zm.4-.08c-.03-.03.03-.06.13-.08.1-.02.18-.02.2 0 0 .01-.05.05-.13.07-.09.03-.18.03-.2 0Zm.3-.16c-.01-.02.05-.05.14-.06.1-.02.18-.03.19-.02 0 .01-.05.04-.14.07-.09.02-.17.02-.19 0Zm.36-.09.14-.05a.72.72 0 0 1 .16-.04s-.06.04-.14.06c-.07.03-.15.04-.16.03Zm-.3.15c-.01-.01.05-.04.13-.07.1-.02.16-.03.17-.02 0 .01-.05.04-.13.07-.07.03-.15.04-.17.02Zm.33-.1c0-.02.06-.04.13-.07a.52.52 0 0 1 .14-.04l-.13.07c-.06.03-.13.05-.14.04Zm-.96.4c-.03-.02.02-.07.11-.1.1-.02.2-.02.21 0 .03.02-.02.07-.1.1-.09.03-.19.04-.22 0Zm.36-.11c-.02-.02.03-.06.12-.09s.16-.04.18-.02c.01.02-.04.06-.11.1-.08.02-.16.03-.19 0Zm-.22.23c-.04-.03 0-.07.1-.1.07-.04.16-.05.18-.03.03.03 0 .07-.08.11-.07.04-.17.05-.2.02Zm.32-.14c-.03-.02.02-.07.1-.1.07-.03.14-.05.16-.03.01.02-.03.06-.1.1-.06.04-.14.05-.16.03Zm.23-.21c-.01-.02.04-.05.12-.08.08-.03.14-.05.15-.03 0 0-.04.05-.11.08s-.14.05-.16.03Zm.3-.13c0-.01.05-.05.12-.08l.12-.04s-.05.05-.11.08c-.07.03-.12.05-.13.04Zm-.24.2c-.01-.02.03-.06.1-.1.07-.03.13-.04.13-.03.01.01-.03.05-.1.1-.05.03-.11.04-.13.03Zm.26-.15c0-.01.04-.05.1-.08l.11-.05a.4.4 0 0 1-.1.09c-.05.04-.1.05-.1.04Zm.26-.24.13-.06.08-.03-.09.04a.4.4 0 0 1-.12.05Zm0 .02.12-.06.08-.04a1.11 1.11 0 0 1-.2.1Zm-.01.03.12-.07.09-.06-.11.08-.1.05Zm-.01.04.1-.08.08-.05-.1.09-.08.04Zm-3.46 2.84c-.25-.08-.37-.24-.3-.34.08-.1.3-.1.5-.03s.33.2.3.3c-.04.11-.26.15-.5.07Zm.23-.41c-.2-.07-.28-.22-.2-.3.1-.09.3-.09.46-.02.16.06.25.18.2.27-.05.1-.26.12-.46.05Zm.75.66c-.25-.04-.41-.18-.38-.28.04-.1.24-.14.44-.09.2.04.37.15.37.25s-.18.17-.43.12Zm.07-.41c-.2-.05-.32-.18-.27-.26.05-.1.24-.12.4-.07.09.02.16.06.2.1.05.04.08.09.07.13-.01.05-.06.08-.13.1a.61.61 0 0 1-.27 0Zm-.5-.6c-.17-.07-.23-.2-.13-.27s.27-.07.4-.01c.14.06.2.16.13.24-.06.08-.25.1-.4.04Zm.31-.31c-.13-.06-.16-.17-.06-.23.09-.07.25-.06.36-.01.1.05.14.14.07.2-.07.08-.23.1-.37.04Zm.36.54c-.17-.05-.26-.16-.2-.24.07-.08.24-.1.37-.06.14.05.22.14.19.22-.04.08-.2.12-.36.08Zm.2-.33c-.14-.05-.2-.15-.13-.22s.22-.08.33-.04c.11.04.17.12.12.2-.04.07-.18.1-.32.06Zm.54 1.22c-.24-.01-.44-.12-.45-.22 0-.1.17-.15.37-.13.2.02.4.1.43.2.04.08-.1.16-.35.15Zm-.08-.4c-.2-.01-.36-.12-.34-.2.02-.1.18-.14.35-.12.17.03.3.1.32.2.02.08-.13.15-.33.13Zm1.04.38c-.23.02-.46-.05-.5-.14-.04-.1.1-.16.3-.16.2-.01.4.04.47.11.07.08-.04.17-.27.2Zm-.22-.34c-.2 0-.38-.07-.4-.16 0-.09.13-.14.3-.14.17 0 .33.06.37.14.04.07-.07.15-.27.16Zm-.79-.4c-.17-.02-.3-.12-.26-.2.04-.08.18-.12.33-.09.14.03.24.1.24.19 0 .07-.14.13-.31.1Zm.08-.32c-.15-.03-.23-.12-.18-.2.04-.07.17-.1.29-.07.12.03.2.1.18.17-.02.08-.15.12-.3.1Zm.62.39c-.17 0-.32-.09-.32-.17.01-.08.14-.12.28-.11.15 0 .28.06.3.14.02.07-.1.14-.26.14Zm-.04-.32c-.15 0-.25-.08-.23-.16.02-.07.13-.11.25-.1.13.02.22.08.23.15 0 .06-.1.12-.25.11Zm-1.34-.68c-.11-.05-.12-.15-.03-.2.1-.05.24-.06.32-.01.09.04.1.12.03.18s-.21.08-.32.03Zm.33-.24c-.09-.04-.08-.12 0-.17.1-.05.22-.05.29-.02.06.04.06.11 0 .17a.3.3 0 0 1-.3.02Zm.12.42c-.12-.04-.15-.13-.08-.19.07-.06.2-.07.3-.04.08.04.12.1.07.17-.05.07-.18.1-.3.06Zm.24-.26c-.1-.03-.1-.11-.04-.17a.28.28 0 0 1 .26-.04c.07.04.09.1.04.16-.05.06-.17.09-.26.05Zm-.03-.36c-.07-.04-.05-.11.03-.15.09-.05.2-.05.24-.02.05.03.04.09-.02.14-.07.05-.18.06-.25.03Zm.3-.2c-.05-.02-.02-.09.06-.13.08-.04.17-.05.2-.02.04.02.03.08-.04.13-.06.04-.16.06-.21.03Zm-.02.33c-.07-.03-.07-.1 0-.15.07-.05.16-.06.22-.04.06.03.06.1 0 .15a.22.22 0 0 1-.22.04Zm.25-.2c-.06-.03-.05-.1.01-.14.07-.05.15-.06.2-.04.04.02.03.08-.02.13s-.14.07-.2.04Zm-.28.82a.21.21 0 0 1-.12-.07.08.08 0 0 1 0-.1c.05-.07.16-.1.26-.07s.15.1.12.16c-.02.07-.14.1-.26.08Zm.16-.27c-.1-.03-.13-.1-.08-.16a.23.23 0 0 1 .23-.06c.08.03.11.1.08.15-.03.06-.14.1-.23.07Zm.33.35c-.13-.01-.2-.08-.17-.15.02-.07.13-.1.22-.09.1.02.18.08.17.14 0 .06-.1.11-.22.1Zm.06-.27c-.1-.01-.15-.08-.12-.14.04-.06.13-.09.2-.07.08.01.14.07.13.13-.01.06-.1.1-.2.08Zm-.22-.32c-.08-.02-.09-.1-.04-.14.06-.06.14-.08.2-.06.06.02.08.08.05.14-.04.05-.13.08-.2.06Zm.18-.22c-.06-.03-.06-.08-.01-.13.05-.05.12-.07.17-.05.05.02.06.07.02.12a.16.16 0 0 1-.18.06Zm.14.3c-.07-.01-.11-.08-.08-.13.04-.06.12-.09.18-.07.06.02.1.07.09.13-.02.05-.1.09-.19.07Zm.12-.22c-.07-.02-.09-.08-.05-.13.03-.05.1-.08.15-.06.05.02.08.07.05.12-.02.05-.1.08-.15.07Zm-.42-.47c-.04-.02-.01-.08.06-.11.07-.04.15-.06.18-.04.02.02 0 .08-.06.12-.06.04-.15.06-.18.03Zm.27-.16c-.03-.03 0-.07.07-.11.07-.04.13-.05.15-.04.02.02-.01.07-.07.1-.05.05-.13.07-.15.05Zm-.11.26c-.04-.02-.03-.08.04-.12.06-.04.13-.06.16-.04.03.02.01.07-.03.12-.05.04-.13.06-.17.04Zm.22-.18c-.03-.02 0-.07.05-.11.06-.04.12-.06.14-.04.02.01 0 .06-.05.1-.04.05-.1.07-.14.05Zm.14-.24c-.02-.02.02-.06.08-.1.06-.04.11-.06.12-.04 0 .01-.02.06-.07.1-.06.04-.11.06-.13.04Zm.22-.16c0-.02.04-.06.1-.1l.09-.04-.08.1c-.05.03-.1.06-.1.04Zm-.15.23c-.02-.02.01-.07.06-.1.05-.05.1-.06.1-.05.02.02 0 .06-.05.1-.04.05-.09.07-.1.05Zm.19-.17c-.01-.01.02-.06.07-.1.04-.04.08-.06.08-.04 0 .01-.02.06-.06.1-.04.04-.08.06-.1.04Zm-.44.6c-.05-.01-.04-.07 0-.12.05-.04.12-.06.15-.04.04.01.04.07 0 .11-.04.05-.1.08-.15.06Zm.17-.18c-.03-.02-.02-.07.02-.12.05-.04.1-.06.13-.04.02.01.01.06-.02.1-.04.05-.1.07-.13.06Zm.02.26c-.05-.02-.06-.07-.02-.12.04-.04.1-.07.13-.05.04.01.05.06.03.11-.02.05-.09.08-.14.06Zm.13-.2c-.04 0-.04-.06 0-.1.03-.05.08-.07.1-.06.03.02.04.07.01.11-.02.05-.08.07-.11.06Zm.02-.24c-.03-.02 0-.07.03-.11.05-.04.09-.06.1-.05.02.02 0 .07-.03.11-.03.04-.08.06-.1.05Zm.15-.17c-.02-.02 0-.07.04-.1.04-.05.08-.07.08-.05 0 .01-.01.06-.04.1-.03.04-.07.06-.08.05Zm-.05.23c-.03-.01-.02-.06.01-.1.03-.04.07-.07.09-.05.02.02.02.06 0 .1-.03.05-.07.07-.1.05Zm.11-.17c-.02-.02 0-.06.03-.1.03-.04.05-.07.06-.05.01.02 0 .06-.01.1-.02.04-.06.07-.08.05Zm.06-.35.09-.09.07-.05c-.01.01-.04.06-.09.1-.04.04-.07.06-.07.04Zm.18-.16.07-.07-.02.02-.05.05Zm-.18.22.07-.1.06-.05c0 .02-.03.06-.06.1-.03.04-.07.07-.07.05Zm.15-.16a.58.58 0 0 1 .09-.11l-.04.06-.05.05Zm-.13.22.05-.1.05-.05-.04.1c-.03.04-.06.07-.06.05Zm.12-.17.05-.1.04-.04-.05.1c-.02.04-.04.06-.04.04Zm-.1.23c0-.01.01-.06.04-.1.02-.04.05-.06.05-.04 0 .01 0 .06-.03.1-.02.04-.04.06-.05.04Zm.1-.16c0-.02.01-.06.04-.1l.03-.05a.8.8 0 0 1-.03.1c-.02.05-.04.07-.04.05Zm.28 2.96c-.2.05-.45.02-.52-.06-.08-.07.04-.15.22-.19.19-.03.4-.02.49.04.09.06.02.16-.2.21Zm-.33-.28c-.18.04-.4 0-.43-.08-.05-.08.06-.15.23-.17.17-.02.34.01.4.07.07.06-.01.15-.2.18Zm1.11.02c-.17.08-.41.08-.5.03-.1-.06-.01-.15.15-.2a.81.81 0 0 1 .46-.04c.1.04.07.14-.1.21Zm-.39-.2c-.16.06-.37.05-.43-.02-.07-.06.01-.13.16-.17.16-.04.33-.04.4 0 .09.05.04.14-.13.2Zm-.93-.1c-.16.02-.33-.03-.35-.1-.02-.08.08-.14.23-.15.14 0 .28.03.33.1.04.05-.04.13-.2.15Zm-.14-.28c-.14.01-.26-.05-.27-.12 0-.07.09-.11.2-.12.13 0 .25.04.28.1.02.07-.06.13-.2.14Zm.79.16c-.15.04-.32.01-.37-.05-.04-.06.04-.13.17-.15.14-.03.29-.02.35.03s0 .13-.15.17Zm-.22-.23c-.13.03-.27-.01-.3-.07-.03-.06.06-.12.17-.14.12-.01.24.01.29.06.04.05-.02.12-.16.15Zm1.54.31c-.14.1-.37.13-.47.1-.1-.04-.05-.13.09-.2a.77.77 0 0 1 .42-.1c.1.02.1.1-.04.2Zm-.42-.12c-.14.07-.34.1-.42.05-.08-.05-.02-.13.11-.19.13-.05.3-.08.38-.05.09.03.06.12-.07.2Zm.93-.27c-.1.1-.3.17-.4.15-.11-.02-.1-.1.02-.2a.66.66 0 0 1 .37-.14c.1 0 .12.09 0 .19Zm-.43-.05c-.1.08-.28.13-.37.1-.09-.03-.05-.11.06-.18.1-.07.25-.11.33-.1.1.01.1.1-.02.18Zm-.83.16c-.13.06-.3.06-.36 0-.06-.04 0-.11.12-.15.12-.05.26-.06.33-.02.07.04.04.11-.1.17Zm-.27-.17c-.12.04-.26.03-.3-.03-.05-.05.01-.1.12-.14.11-.03.23-.03.29.01.05.04.01.11-.1.16Zm.76-.09c-.1.07-.27.1-.34.06-.07-.03-.03-.1.07-.16s.24-.09.31-.06c.08.02.06.1-.04.16Zm-.3-.12c-.1.06-.24.07-.3.03-.05-.04 0-.1.1-.15.09-.04.2-.06.27-.03.06.03.04.1-.07.15Zm-1.59.15c-.12 0-.22-.05-.21-.12 0-.06.1-.1.2-.1s.19.04.2.1c.02.06-.07.12-.19.12Zm-.02-.25c-.1 0-.18-.06-.16-.12.01-.06.1-.1.18-.09.08 0 .15.05.16.1 0 .06-.08.11-.18.11Zm.52.21c-.12.02-.24-.02-.25-.08-.02-.06.06-.1.16-.12.1 0 .2.02.23.07.04.05-.03.11-.14.13Zm-.1-.22c-.1 0-.2-.04-.2-.1 0-.05.07-.09.16-.1.08 0 .17.04.19.09.02.04-.04.1-.15.1Zm-.4-.22c-.08-.01-.13-.07-.12-.12.02-.06.1-.09.16-.08.07.01.13.06.12.1 0 .06-.07.1-.15.1Zm.05-.22c-.07-.01-.11-.07-.09-.12.02-.05.09-.08.14-.07.06.02.1.06.09.11 0 .05-.07.09-.14.08Zm.31.22c-.09 0-.16-.04-.16-.09 0-.05.07-.09.14-.09.08 0 .14.04.15.08.02.05-.04.1-.13.1Zm-.02-.2c-.07 0-.13-.05-.12-.1 0-.05.06-.08.12-.07.07 0 .12.04.12.08 0 .05-.04.09-.12.09Zm.62.54c-.11.03-.24.01-.27-.04-.03-.05.04-.1.13-.13.1-.02.2 0 .25.03.04.05 0 .1-.11.14Zm-.15-.19c-.1.03-.2 0-.22-.05-.02-.05.04-.1.12-.11.09-.02.18 0 .2.04.04.04 0 .1-.1.12Zm.57.04c-.1.04-.22.04-.26 0-.05-.04 0-.1.09-.13.08-.04.19-.04.24-.01.05.03.02.1-.07.14Zm-.2-.15c-.08.03-.19.02-.22-.02s.02-.1.1-.12c.07-.02.17-.02.2.01.05.04.02.1-.07.13Zm-.47-.07c-.09.01-.17-.02-.18-.07 0-.05.04-.09.12-.1.07 0 .14.02.17.06.02.04-.02.09-.11.1Zm-.07-.19c-.07.01-.14-.02-.14-.07s.04-.08.1-.08c.06 0 .12.02.14.06.02.04-.03.08-.1.1Zm.4.1c-.07.03-.16.01-.18-.03-.03-.04.02-.09.09-.1.07-.02.15-.01.18.02.03.04 0 .09-.08.11Zm-.1-.15c-.08.02-.15 0-.17-.05-.01-.04.03-.08.09-.09.06 0 .13 0 .15.04.03.04 0 .08-.07.1Zm-.83-.16c-.06 0-.08-.06-.06-.1.02-.05.08-.08.12-.07.04.02.07.06.06.1-.01.05-.06.09-.12.07Zm.07-.19c-.05-.01-.06-.06-.04-.1.03-.05.07-.07.1-.06.04.01.05.06.04.1a.09.09 0 0 1-.1.06Zm.17.23c-.07 0-.1-.05-.1-.1.02-.05.06-.07.11-.07.05.01.1.05.1.1 0 .04-.05.07-.11.07Zm.02-.19c-.05 0-.08-.05-.07-.1.01-.04.05-.06.1-.05a.1.1 0 0 1 .06.09c0 .04-.04.07-.1.06Zm-.12-.22c-.03-.01-.04-.06-.01-.1.02-.05.06-.07.08-.05.02.01.03.05.02.1-.01.04-.05.06-.09.05Zm.08-.17c-.03-.02-.03-.06 0-.1.02-.04.04-.07.06-.05.01.01.02.06 0 .1 0 .04-.04.06-.06.05Zm.07.22c-.04-.01-.06-.06-.04-.1 0-.04.04-.06.07-.05.03 0 .05.05.05.09 0 .04-.04.07-.08.06Zm.03-.17c-.03-.01-.04-.05-.02-.1 0-.04.03-.06.05-.04.03 0 .04.05.04.09 0 .04-.04.06-.07.05Zm.17.53c-.07 0-.12-.04-.12-.08s.04-.07.1-.07c.04 0 .1.03.1.07.02.04-.02.08-.08.08Zm-.03-.17c-.05 0-.1-.04-.09-.08 0-.04.04-.07.08-.07s.08.04.1.08c0 .03-.04.07-.09.07Zm.28.14c-.06.01-.12-.02-.14-.06 0-.04.03-.07.08-.08.06 0 .11.02.13.05.02.04 0 .08-.07.09Zm-.06-.15c-.06 0-.1-.03-.12-.06 0-.04.03-.07.07-.08.05 0 .1.03.11.06.02.03-.01.07-.06.08Zm-.23-.16a.08.08 0 0 1-.06-.08c0-.04.03-.06.06-.06a.1.1 0 0 1 .07.08c0 .04-.02.07-.07.06Zm0-.15c-.03-.01-.05-.05-.05-.09 0-.04.03-.06.05-.05.03 0 .05.04.06.08 0 .04-.03.06-.06.06Zm.18.16c-.04 0-.08-.03-.09-.07 0-.04.02-.06.06-.06a.1.1 0 0 1 .09.06c.01.03-.01.07-.06.07Zm-.04-.15c-.03 0-.06-.03-.07-.07 0-.04.02-.06.05-.05a.1.1 0 0 1 .07.06c.01.03 0 .06-.05.06Zm-.3-.27c-.02-.01-.01-.06 0-.1.03-.04.04-.06.05-.04v.1c-.01.04-.03.06-.05.04Zm.06-.16c0-.01 0-.06.02-.1.01-.04.02-.06.03-.04 0 .02 0 .06-.02.1 0 .04-.02.06-.03.04Zm.01.22c-.02-.01-.02-.06-.01-.1 0-.04.03-.05.04-.04l.02.1c0 .03-.02.05-.05.04Zm.03-.16v-.1c0-.03.02-.05.03-.04v.1c0 .04-.01.06-.03.04Zm.01-.22.02-.1.02-.04-.02.1c0 .04-.02.06-.02.04Zm.02.07v-.1c0-.04.01-.05.02-.04v.1c0 .04-.01.05-.02.04Zm.04.35c-.03 0-.04-.05-.04-.08 0-.04.02-.06.04-.05.02 0 .04.05.04.08 0 .04-.02.06-.04.05Zm0-.15c-.02 0-.03-.05-.03-.09 0-.03.02-.05.03-.04l.03.09c0 .03-.01.05-.03.04Zm.11.18c-.03 0-.06-.04-.06-.07 0-.04.01-.06.04-.06.02.01.05.04.06.07 0 .04-.01.06-.04.06Zm-.03-.14c-.02 0-.04-.04-.04-.08 0-.03 0-.05.02-.04l.05.07c0 .03 0 .06-.03.05Zm-.08-.18-.02-.1c0-.03 0-.05.01-.03l.03.08c0 .04 0 .06-.02.05Zm0-.15-.02-.1v-.03l.02.1v.03Zm.06.2c-.02-.02-.03-.06-.04-.09 0-.03 0-.05.01-.04l.04.08c.01.03 0 .05-.01.04Zm-.03-.15a.21.21 0 0 1-.03-.08v-.04l.03.08v.04Zm2.42 1.6c-.07.1-.23.2-.33.19-.1 0-.1-.09-.03-.18.08-.08.2-.16.3-.17.1 0 .13.06.06.16Zm-.4.01c-.07.1-.23.16-.31.14-.1-.01-.08-.09 0-.16.09-.08.2-.14.29-.14.08 0 .1.07.02.16Zm.62-.42a.34.34 0 0 1-.25.2c-.1.01-.11-.06-.07-.15a.37.37 0 0 1 .22-.18c.09-.02.14.04.1.13Zm-.36.05c-.04.1-.17.17-.25.17-.08 0-.1-.07-.04-.15.06-.09.15-.15.23-.16.07 0 .11.06.06.14Zm-.6.33c-.08.08-.22.13-.3.1-.07-.02-.05-.09.03-.15.09-.07.2-.11.28-.1.07 0 .08.07 0 .15Zm-.3-.06c-.08.07-.21.1-.27.07-.06-.03-.04-.1.04-.15.08-.05.2-.08.26-.07.06.02.06.08-.03.15Zm.59-.26c-.06.08-.18.14-.25.13-.07-.01-.07-.08-.01-.15.06-.07.15-.12.22-.12s.1.06.04.14Zm-.3-.02c-.05.07-.16.11-.23.1-.06-.02-.05-.08.01-.14.06-.06.15-.1.21-.1.07 0 .08.07.02.14Zm1.07-.42c-.01.05-.03.1-.07.13a.23.23 0 0 1-.12.07c-.08.02-.11-.04-.09-.13.02-.08.09-.16.16-.19.07-.02.13.03.12.12Zm-.31.08c-.03.08-.12.17-.2.17-.07 0-.1-.05-.06-.13.03-.08.1-.15.17-.17.06 0 .11.04.09.13Zm.31-.43c.01.08-.05.17-.12.2-.07.01-.12-.04-.11-.12 0-.08.04-.16.1-.18.06-.02.12.01.13.1Zm-.26.1c0 .07-.07.15-.14.16-.06.02-.1-.04-.09-.11.01-.08.06-.15.12-.17.06-.01.1.03.1.11Zm-.34.36c-.03.08-.12.15-.19.15s-.08-.06-.04-.13c.03-.07.1-.14.17-.14.06 0 .1.05.06.12Zm-.26.02c-.04.07-.13.12-.2.12-.05 0-.06-.07-.01-.13.04-.07.1-.12.16-.12s.08.06.05.13Zm.35-.33c-.01.07-.08.14-.14.15-.06 0-.09-.05-.07-.12.02-.07.07-.13.12-.14.05-.01.1.03.09.1Zm-.23.03c-.02.07-.1.14-.15.14-.06 0-.07-.06-.05-.12.03-.07.08-.12.13-.13.05 0 .08.04.07.11Zm-.86.77c-.08.05-.2.07-.24.04-.05-.03-.02-.09.05-.13.08-.05.18-.07.23-.05.06.02.04.08-.04.14Zm-.2-.1c-.08.04-.19.05-.23.01-.04-.03 0-.08.07-.12.07-.03.15-.05.2-.02.04.02.03.08-.05.12Zm.5-.14c-.06.06-.17.1-.22.07-.06-.02-.04-.08.02-.13.07-.05.14-.08.2-.07.05 0 .06.07 0 .13Zm-.22-.07c-.06.06-.16.08-.2.06-.05-.03-.03-.08.03-.13.06-.04.14-.07.19-.05.04.02.04.07-.02.12Zm-.46.09c-.07.03-.16.03-.2 0-.02-.04 0-.08.07-.11s.15-.03.19 0c.03.02.02.07-.06.1Zm-.14-.13c-.07.03-.15.02-.17-.01-.03-.04 0-.08.06-.1.06-.02.13-.02.16.01s.01.08-.05.1Zm.41-.04c-.06.05-.15.06-.18.03-.04-.02-.02-.07.03-.1.06-.04.14-.06.18-.04.04.01.03.07-.03.11Zm-.16-.09c-.06.04-.14.04-.17.02-.03-.03-.01-.07.04-.1s.12-.04.16-.02c.03.02.02.06-.03.1Zm.78-.02c-.04.06-.13.1-.19.1-.05-.01-.05-.07 0-.13.04-.06.11-.1.16-.1.05.01.07.06.03.13Zm-.22-.03c-.04.06-.13.1-.17.07-.05-.01-.04-.06 0-.11.05-.05.11-.09.16-.08.05 0 .06.06.01.12Zm.35-.24c-.02.07-.1.12-.14.12-.05 0-.07-.06-.04-.12.03-.06.08-.1.13-.1.04-.01.08.04.05.1Zm-.2 0c-.03.06-.1.1-.14.1-.05-.02-.05-.06-.03-.12.03-.05.09-.1.13-.09.04 0 .07.05.04.11Zm-.34.19c-.04.05-.12.07-.16.05-.04-.01-.03-.06.01-.1.05-.05.1-.07.15-.06.04 0 .05.06 0 .1Zm-.17-.06c-.04.04-.11.06-.15.04-.04-.02-.02-.07.02-.1.04-.04.1-.06.14-.04.04 0 .04.06 0 .1Zm.33-.15c-.03.05-.1.08-.14.07-.04 0-.04-.06-.01-.1.03-.05.08-.08.12-.08.04 0 .06.05.03.1Zm-.17-.04c-.03.05-.1.08-.13.06-.04 0-.04-.05-.01-.1.03-.04.08-.06.12-.06.03.01.05.06.02.1Zm-.73.36c-.06.02-.13 0-.15-.03-.02-.03.01-.07.06-.08.05-.02.12-.01.14.02.03.02.01.07-.05.09Zm-.1-.13c-.05.02-.1 0-.12-.04-.02-.03 0-.06.05-.07.05-.01.1 0 .12.03.03.03 0 .07-.05.08Zm.33.03c-.05.03-.12.02-.15 0-.03-.03 0-.07.04-.1.05-.02.1-.02.14 0 .03.02.02.07-.03.1Zm-.12-.1c-.05.02-.11 0-.13-.02-.03-.03 0-.06.03-.08.04-.02.1-.02.13 0 .03.03.01.07-.03.1Zm-.28-.06c-.05.01-.1-.01-.1-.05-.02-.03 0-.06.04-.06.03 0 .08 0 .1.04.02.03 0 .06-.04.07Zm-.07-.13a.08.08 0 0 1-.1-.05c0-.03.01-.06.05-.06a.1.1 0 0 1 .08.05c.02.03 0 .06-.03.06Zm.25.08c-.05.01-.1 0-.12-.03-.02-.03 0-.06.03-.07.04-.01.09 0 .11.02.03.02.02.06-.02.08Zm-.1-.11c-.03 0-.08 0-.1-.04-.02-.03 0-.05.03-.06.03-.01.07 0 .1.03.02.02 0 .05-.03.07Zm.51.18c-.04.04-.1.05-.14.03-.03-.03-.02-.07.02-.1s.1-.04.13-.03c.03.02.03.06 0 .1Zm-.13-.08c-.04.03-.1.04-.13.01-.03-.02-.02-.06.02-.08.03-.03.08-.03.11-.02.04.02.04.06 0 .1Zm.28-.08c-.03.04-.09.06-.12.05-.04-.02-.04-.06 0-.1.02-.03.07-.05.1-.04.04 0 .05.05.02.09Zm-.14-.05c-.03.03-.09.05-.12.03-.03-.02-.03-.05 0-.09.03-.03.07-.04.1-.03.04.01.05.05.02.09Zm-.26.05c-.04.02-.1.02-.12 0-.03-.03-.02-.06.01-.08.04-.02.08-.02.11 0s.03.05 0 .08Zm-.12-.09c-.03.02-.08.01-.1-.01-.03-.03-.02-.06.01-.07a.1.1 0 0 1 .1 0c.03.03.03.06 0 .08Zm.25-.02c-.03.03-.08.03-.11.02-.03-.02-.03-.06 0-.08a.1.1 0 0 1 .1-.03c.03.02.03.05 0 .09ZM10 11.7a.08.08 0 0 1-.1 0c-.03-.01-.03-.04 0-.06a.09.09 0 0 1 .09-.02c.03.02.04.05.01.08Zm-.46.06c-.04 0-.07-.02-.08-.05 0-.04 0-.06.03-.06.02 0 .06.02.07.05.02.03 0 .06-.02.06Zm-.06-.12c-.02 0-.05-.03-.06-.07-.01-.03 0-.05.02-.05l.06.06c.02.03 0 .06-.02.06Zm.18.1c-.03.01-.07 0-.08-.04-.02-.03-.01-.05.01-.06a.1.1 0 0 1 .09.04c.02.02.01.05-.02.06Zm-.07-.1c-.03 0-.06-.03-.08-.06-.02-.03-.01-.05.01-.05l.07.04c.02.03.02.06 0 .06Zm-.16-.13c-.02 0-.04-.04-.05-.07v-.04c.02 0 .04.03.06.06.02.03.01.05 0 .05Zm-.05-.13-.04-.07c-.01-.03-.02-.05 0-.04l.04.07v.04Zm.13.14c-.02 0-.05-.03-.06-.06-.02-.03-.02-.04 0-.04.01 0 .04.02.06.05.02.02.02.05 0 .05Zm-.07-.12c-.02 0-.04-.03-.05-.06-.02-.03-.02-.04-.01-.04l.05.06c.02.03.03.05.01.04Zm.34.3c-.02 0-.07 0-.09-.03-.02-.02-.02-.05 0-.06.03 0 .07 0 .1.02.02.02.02.05 0 .06Zm-.1-.1c-.02.01-.06 0-.08-.03-.02-.03-.02-.05 0-.06.02 0 .06 0 .08.03.03.02.03.05 0 .06Zm.2.02c-.02.02-.06.02-.08 0-.03-.02-.03-.05-.02-.06.02-.02.06-.02.09 0 .03.01.04.04.02.06Zm-.1-.07c-.03.01-.06 0-.09-.01-.02-.03-.03-.05-.01-.06.01-.01.04-.01.07 0 .03.02.04.05.02.07Zm-.19-.05c-.02.01-.05 0-.07-.03-.02-.03-.02-.05 0-.05 0 0 .04 0 .06.03.03.02.03.05.01.05Zm-.09-.1c-.01 0-.04-.01-.06-.04l-.02-.05c.01 0 .04.02.06.05.03.02.04.04.02.04Zm.16.07c-.01 0-.04 0-.07-.02-.02-.03-.03-.05-.02-.06.01 0 .04 0 .07.02.03.02.04.05.02.06Zm-.1-.09c-.01.01-.04 0-.07-.03l-.03-.04c.01 0 .04 0 .07.02.03.02.04.05.03.05Zm2.44.09c.03.07 0 .15-.07.18-.06.02-.11-.02-.13-.1-.01-.06 0-.14.05-.16.05-.03.12 0 .15.08Zm-.22.1c.02.07-.02.15-.08.16-.05.02-.1-.03-.1-.1-.02-.06 0-.13.06-.15.04-.02.1.02.12.09Zm.08-.38c.04.06.03.14-.02.17-.05.02-.1-.01-.14-.08-.03-.06-.03-.12.01-.15.04-.02.1 0 .15.06Zm-.18.1c.03.06.01.14-.03.16-.05.02-.1-.02-.13-.08-.02-.07-.01-.13.03-.15.04-.02.1.01.13.07Zm-.11.35c0 .07-.04.14-.1.15-.05.01-.08-.04-.08-.1 0-.07.03-.13.07-.14.05-.02.1.02.1.09Zm-.2.05c0 .07-.05.13-.1.14-.05 0-.08-.04-.08-.1.01-.07.04-.13.09-.14.04 0 .09.03.09.1Zm.13-.32c.03.06 0 .13-.04.14-.05.02-.1-.02-.11-.09-.02-.06 0-.11.03-.13.04-.01.1.02.12.08Zm-.17.06c.02.06-.01.12-.06.13-.04.01-.08-.03-.09-.09-.01-.06 0-.11.04-.12.04-.02.1.02.11.08Zm-.16.28c0 .07-.05.12-.1.12s-.07-.04-.06-.1c.01-.06.04-.11.09-.12.04 0 .08.04.07.1Zm-.18.02c0 .06-.06.1-.1.1-.05 0-.06-.04-.05-.1.01-.05.05-.1.09-.1.04 0 .07.04.06.1Zm.17-.27c0 .06-.02.12-.06.12-.05.01-.08-.03-.09-.09 0-.05.02-.1.05-.11.04-.01.09.02.1.08Zm-.16.04c0 .05-.03.1-.07.1-.04 0-.07-.04-.07-.09 0-.05.01-.1.05-.1s.08.03.09.09Zm-.18.23c-.01.05-.06.1-.1.09-.05 0-.06-.05-.04-.1.01-.05.05-.09.08-.09.04 0 .07.04.06.1Zm-.16-.01c-.02.05-.07.08-.1.07-.04 0-.06-.04-.04-.09.02-.04.05-.08.09-.07.04 0 .06.04.05.09Zm.18-.21c0 .05-.03.1-.07.1-.04 0-.07-.04-.07-.1 0-.04.02-.08.06-.08.04 0 .07.03.08.08Zm-.15 0c0 .06-.04.1-.08.1-.03 0-.06-.05-.05-.1 0-.04.02-.07.06-.08.03 0 .07.04.07.09Zm-.18.19c-.02.04-.07.07-.1.06-.04 0-.05-.05-.03-.09.01-.04.05-.06.08-.06.04 0 .06.04.05.09Zm-.15-.03c-.02.04-.06.06-.1.05-.03-.01-.04-.05-.02-.08.01-.04.05-.06.08-.05.04 0 .06.04.04.08Zm.18-.15c0 .04-.04.08-.07.07-.04 0-.06-.04-.06-.08s.03-.07.07-.07c.03 0 .06.03.06.08Zm-.14-.01c0 .04-.04.06-.07.06-.04-.01-.06-.04-.06-.08 0-.03.03-.06.07-.06.03 0 .06.04.06.08Zm-.18.12a.07.07 0 0 1-.09.04.05.05 0 0 1-.03-.08.07.07 0 0 1 .08-.04c.04 0 .06.04.04.08Zm-.13-.05c-.02.03-.06.04-.09.03-.03-.02-.04-.05-.03-.07.02-.02.05-.04.08-.03.03.01.05.04.04.07Zm.17-.1c0 .04-.04.06-.07.05a.07.07 0 0 1-.05-.07c0-.03.03-.05.06-.05s.06.04.06.07Zm-.14-.02c0 .03-.03.05-.06.04a.07.07 0 0 1-.05-.07c0-.03.02-.04.06-.04.03 0 .06.04.05.07Zm-.16.07c-.01.02-.05.03-.08.01-.03-.01-.04-.04-.03-.06.01-.02.04-.03.07-.02.03.01.05.04.04.07Zm-.12-.06c-.01.02-.05.02-.08 0-.03-.01-.04-.04-.03-.05 0-.02.04-.02.07 0 .03 0 .05.03.04.05Zm.15-.05c0 .03-.03.04-.06.03-.03-.01-.05-.04-.05-.06 0-.02.02-.04.05-.03.03 0 .06.03.06.06Zm-.13-.04c0 .03-.03.04-.06.02-.03-.01-.05-.03-.05-.05 0-.02.02-.03.05-.02.03 0 .06.03.06.05Zm-.14.03c-.01.02-.04.01-.07 0-.03-.02-.04-.05-.04-.06h.07c.02.02.05.04.04.06Zm-.12-.06s-.04 0-.06-.02l-.04-.04h.05c.03.02.06.04.05.06Zm.13 0h-.05c-.03-.01-.06-.04-.06-.05 0-.01.02-.02.05 0 .03 0 .06.02.06.04Zm-.12-.06c0 .02-.03.02-.06 0-.03-.01-.05-.03-.05-.04h.04c.04.01.07.03.07.04Zm-.28-.03-.04-.08v-.02.01l.03.05c.01.03.02.05 0 .04Zm.04.03a.22.22 0 0 1-.05-.07l-.01-.03.04.06.02.04Zm.04.01-.05-.05-.03-.04.06.05c.02.03.04.05.02.04Zm.05 0c-.01 0-.04-.01-.07-.04l-.03-.04.06.04.04.04Zm-.11-.09-.06-.05.02.01.04.04Zm.13.07s-.03 0-.05-.02l-.05-.05.06.03c.03.01.05.03.04.04Zm-.11-.07-.06-.04c-.03-.02-.03-.02 0 0l.06.04Zm.12.03h-.05a.26.26 0 0 1-.06-.05l.04.01.07.04Zm-.13-.05-.04-.02c-.03-.02-.04-.02 0 0a.3.3 0 0 1 .04.02Zm.1.01h-.04a.72.72 0 0 1-.08-.03h.03c.03 0 .07.02.08.03Zm-.07-.03h-.03l-.06-.02h-.01c.03 0 .08 0 .1.02Z" fill="#009A9C"/></svg>