<!-- by TradingView --><svg width="18" height="18" viewBox="0 0 18 18" xmlns="http://www.w3.org/2000/svg"><path fill="#F0F3FA" d="M0 0h18v18H0z"/><path d="M13.9 4.1c.06.05.1.12.1.2v7.33l-.03.15a.38.38 0 0 1-.36.22H12.2c-.04 0-.08.03-.12.07-.03.04-.07.08-.07.12v1.42c0 .16-.06.3-.22.36a.39.39 0 0 1-.15.03H4.3a.29.29 0 0 1-.2-.1.29.29 0 0 1-.1-.2V6.37l.03-.15c.06-.14.2-.22.36-.22H5.8c.08 0 .19-.1.19-.19V4.39c0-.16.06-.3.22-.36L6.37 4h7.33c.08 0 .15.03.2.1Z" fill="#004590"/><path d="M6.12 10.45a.07.07 0 0 1-.1-.01L6 10.4V6.2c0-.04.03-.07.08-.12.04-.04.08-.08.1-.08h4.21l.04.01a.07.07 0 0 1 .03.07c0 .01 0 .03-.02.04a795.59 795.59 0 0 0-4.32 4.33ZM12 7.58v4.36c0 .01 0 .03-.02.04l-.03.02H7.59a.06.06 0 0 1-.05-.1l4.35-4.36a.06.06 0 0 1 .09 0l.02.04Z" fill="#FBCA2A"/></svg>