<!-- by TradingView --><svg width="18" height="18" viewBox="0 0 18 18" xmlns="http://www.w3.org/2000/svg"><path fill="#F0F3FA" d="M0 0h18v18H0z"/><path d="M9.58 6.6H7.02a.03.03 0 0 1 0-.02v-.02L8.16 4h2.73c.22 0 .48.27.57.46.09.2.07.42 0 .62l-.3.75a46.61 46.61 0 0 1-.62 1.29c-.06-.22-.25-.35-.45-.42-.13-.04-.3-.07-.52-.1Z" fill="#682D8E"/><path d="M7.04 4.03c.16-.02.4-.03.6-.03h.53L7.01 6.56a.03.03 0 0 0 .02.04h-.55c-.17 0-.27.02-.32.02-.16.01-.34.06-.52.14l-.2.12c-.12.1-.22.23-.3.38l1.13-2.54.08-.14.1-.14.07-.07s.17-.18.28-.24h.01a.8.8 0 0 1 .23-.1Z" fill="url(#a)"/><path d="M9.48 10H7.61a.01.01 0 0 1-.01-.01L8.47 8a.01.01 0 0 1 0-.01h1.91a.01.01 0 0 1 .01.01L9.5 10a.01.01 0 0 1 0 .01Z" fill="#682D8E"/><path d="M13.18 6.1c-.5 1.33-1.1 2.54-1.75 3.9H10.2v-.01c.2-.06.36-.16.48-.31.15-.19.27-.44.38-.7a1881.84 1881.84 0 0 1 1.4-3.26 1.08 1.08 0 0 0 0-.74l.71 1.12Z" fill="#812990"/><path d="M13.54 6.67c.15.23.31.47.4.74l.01.02a.9.9 0 0 1-.05.72l-.58 1.34a1.03 1.03 0 0 1-.5.44.92.92 0 0 1-.2.05c-.18.02-.35.02-.62.02h-.28l1.64-3.62.18.29Z" fill="url(#b)"/><path d="m13.29 6.27.07.11L11.73 10h-.32c.21-.57.57-1.27.86-1.92a71.5 71.5 0 0 1 .9-2l.12.19Z" fill="url(#c)"/><path d="M4.84 11.97a54.09 54.09 0 0 1 1.45-3.25c.12-.26.25-.53.38-.72h1.11v.02a.87.87 0 0 0-.54.4c-.1.16-.2.35-.28.54-.9 2.07-1.36 3.18-1.42 3.31-.04.09-.06.21-.08.39-.01.12.01.25.08.4l-.01.01h-.02l-.67-1.1Z" fill="#812990"/><path d="m6.67 8-.38.72a54.1 54.1 0 0 0-1.45 3.25l-.12-.2a24.24 24.24 0 0 1 .79-1.68c.2-.44.44-.91.6-1.29a46.5 46.5 0 0 1 .36-.76l.2-.04Z" fill="#812990"/><path d="M5.14 8.09C5.4 8 5.64 8 5.96 8h.71l-.2.04h-.02v.02l-.34.74c-.16.38-.4.85-.6 1.29a24.24 24.24 0 0 0-.79 1.68l-.08-.13-.2-.3c-.17-.28-.33-.51-.41-.82-.04-.15-.04-.3-.01-.44v-.03c.28-.68.5-1.2.67-1.55a.86.86 0 0 1 .15-.2l.28-.2.02-.01Z" fill="url(#d)"/><path d="M10.53 11.4c-.2.41-.36.81-.58 1.24-.07.14-.12.35-.26.57-.07.11-.15.44-.45.79H7.32c-.2 0-.37-.02-.45-.05a.76.76 0 0 1-.46-.72c0-.14.05-.29.11-.45a20.09 20.09 0 0 1 .86-1.88c.1.3.4.43.7.47l.34.03h2.11Z" fill="#682D8E"/><path d="m12.23 11.29-.16.3c-.27.44-.46.9-.7 1.33-.1.17-.26.53-.51 1.06l-.27.02h-.92l.06-.18 1.2-2.42h.94l.36-.11Z" fill="url(#e)"/><path d="M10.94 11.4A145.2 145.2 0 0 0 9.67 14h-.43c.4-.88.87-1.73 1.3-2.6h.4Z" fill="url(#f)"/><path d="m12.8 10.75-.25.56-.55 1.24-.1.26-.22.47c-.04.08-.1.17-.17.26l-.18.2-.19.14a.92.92 0 0 1-.28.1c.25-.53.42-.89.52-1.06.23-.42.42-.89.7-1.33l.15-.3.23-.13.03-.02c.12-.1.23-.24.31-.4Z" fill="url(#g)"/><defs><linearGradient id="a" x1="6.05" y1="5.29" x2="7.29" y2="5.84" gradientUnits="userSpaceOnUse"><stop stop-color="#682D8E"/><stop offset=".23" stop-color="#E4DCEC"/><stop offset=".61" stop-color="#E4DCEC"/><stop offset="1" stop-color="#682D8E"/></linearGradient><linearGradient id="b" x1="12.32" y1="8.15" x2="13.63" y2="8.77" gradientUnits="userSpaceOnUse"><stop stop-color="#812990"/><stop offset=".3" stop-color="#E5DDED"/><stop offset=".61" stop-color="#E5DDED"/><stop offset="1" stop-color="#812990"/></linearGradient><linearGradient id="c" x1="12.32" y1="8.15" x2="13.63" y2="8.77" gradientUnits="userSpaceOnUse"><stop stop-color="#812990"/><stop offset=".3" stop-color="#E5DDED"/></linearGradient><linearGradient id="d" x1="4.29" y1="9.37" x2="5.56" y2="9.96" gradientUnits="userSpaceOnUse"><stop stop-color="#812990"/><stop offset=".24" stop-color="#E5DDED"/><stop offset=".65" stop-color="#E5DDED"/><stop offset="1" stop-color="#812990"/></linearGradient><linearGradient id="e" x1="10.17" y1="12.29" x2="11.69" y2="12.98" gradientUnits="userSpaceOnUse"><stop stop-color="#682D8E"/><stop offset=".44" stop-color="#E5DDED"/><stop offset=".77" stop-color="#E5DDED"/><stop offset="1" stop-color="#682D8E"/></linearGradient><linearGradient id="f" x1="10.17" y1="12.29" x2="11.69" y2="12.98" gradientUnits="userSpaceOnUse"><stop stop-color="#682D8E"/><stop offset=".44" stop-color="#E5DDED"/></linearGradient><linearGradient id="g" x1="10.17" y1="12.29" x2="11.69" y2="12.98" gradientUnits="userSpaceOnUse"><stop offset=".77" stop-color="#E5DDED"/><stop offset="1" stop-color="#682D8E"/></linearGradient></defs></svg>