<!-- by TradingView --><svg width="18" height="18" viewBox="0 0 18 18" xmlns="http://www.w3.org/2000/svg"><path fill="#F0F3FA" d="M0 0h18v18H0z"/><path d="M9 15A6 6 0 1 0 9 3a6 6 0 0 0 0 12Zm0-.54A5.32 5.32 0 1 0 9 3.83a5.32 5.32 0 0 0 0 10.63Z" fill="url(#acvmn4etj)"/><path d="M9 14.95a5.95 5.95 0 1 0 0-11.9 5.95 5.95 0 0 0 0 11.9Zm5.37-5.8a5.37 5.37 0 1 1-10.74 0 5.37 5.37 0 0 1 10.73 0ZM15 9A6 6 0 1 1 3 9a6 6 0 0 1 12 0Zm-.68.15a5.32 5.32 0 1 1-10.64 0 5.32 5.32 0 0 1 10.64 0Z" fill="url(#bcvmn4etj)"/><ellipse cx="9" cy="9.09" rx="5.35" ry="5.44" fill="url(#ccvmn4etj)"/><path d="M14.33 9.6A5.39 5.39 0 0 1 9 14.53a5.27 5.27 0 0 1-3.1-1L9.86 9.6h4.47Z" fill="url(#dcvmn4etj)"/><path d="M10.55 9.6c-.37.72-1.31 2.03-2.64 2.4l-1.75 1.7a5.29 5.29 0 0 1-.26-.18L9.86 9.6h.69Z" fill="#1457FC"/><path d="M8.75 8.95c-1.2.34-3.54 1.2-3.24 2 .29.79 1.05 1.4 1.4 1.62l-1 .95A5.46 5.46 0 0 1 3.64 9.1a5.4 5.4 0 0 1 5.1-5.44v5.3Z" fill="#C4D4F4"/><path d="M8 7.96c0 .67.5.95.74 1v-1.9c-.24.02-.73.23-.73.9Z" fill="url(#ecvmn4etj)"/><path d="M9.51 3.67v4.76c0 .14.07.42.43.42h4.41a5.4 5.4 0 0 0-4.84-5.18Z" fill="url(#fcvmn4etj)"/><path d="M9.51 4.51c.4.07.8.3.97.43.5.01 1.55.67 2 1-.67-1.2-2.2-1.6-2.97-1.68v.25Z"/><path d="M3.04 9.65c.23.11.5.2.7.25a5.36 5.36 0 0 1 .1-2.06c-.18.34-.43.75-.55.75-.1 0-.13-.48-.13-.97a6.02 6.02 0 0 0-.12 2.03Zm6.48-5.8v-.2c1.01.08 3.3.73 4.4 2.7v-.78A5.97 5.97 0 0 1 15 9.27l-.67-.04v-.08c0-2.77-2.1-5.04-4.8-5.3Z"/><defs><linearGradient id="acvmn4etj" x1="8.18" y1="3" x2="9.03" y2="14.99" gradientUnits="userSpaceOnUse"><stop stop-color="#E3EAF9"/><stop offset="1" stop-color="#787A80"/></linearGradient><linearGradient id="bcvmn4etj" x1="9" y1="3" x2="8.83" y2="14.46" gradientUnits="userSpaceOnUse"><stop/><stop offset=".73" stop-color="#9CA7B8"/><stop offset="1" stop-color="#797B81"/></linearGradient><linearGradient id="ccvmn4etj" x1="10.87" y1="6.64" x2="6.22" y2="12.96" gradientUnits="userSpaceOnUse"><stop stop-color="#CDD8EC"/><stop offset=".92" stop-color="#E4ECFB"/></linearGradient><linearGradient id="dcvmn4etj" x1="9.63" y1="10.73" x2="11.91" y2="13.57" gradientUnits="userSpaceOnUse"><stop stop-color="#3D70FC"/><stop offset=".12" stop-color="#1B48FB"/><stop offset="1" stop-color="#040B94"/></linearGradient><linearGradient id="ecvmn4etj" x1="8.13" y1="8.19" x2="8.74" y2="8.22" gradientUnits="userSpaceOnUse"><stop stop-color="#A6B1C2"/><stop offset="1" stop-color="#7C899F"/></linearGradient><linearGradient id="fcvmn4etj" x1="13.15" y1="5.82" x2="9.47" y2="8.72" gradientUnits="userSpaceOnUse"><stop stop-color="#377ECB"/><stop offset=".19" stop-color="#53A3FC"/><stop offset=".41" stop-color="#6EBCFC"/><stop offset=".63" stop-color="#5DA4F9"/><stop offset=".87" stop-color="#24528B"/><stop offset="1" stop-color="#4C7DAF"/></linearGradient></defs></svg>