<!-- by TradingView --><svg width="18" height="18" viewBox="0 0 18 18" xmlns="http://www.w3.org/2000/svg"><path fill="url(#ahhbywnnd)" d="M0 0h18v18H0z"/><path d="m13.2 9.17-.29-.19.28-.18c.5-.33.81-.86.81-1.43 0-.62-.37-1.2-.96-1.52L13 5.84a2.06 2.06 0 0 0-1.73-.09l-.3.13-.05-.3a1.76 1.76 0 0 0-.95-1.34 2.04 2.04 0 0 0-1.95.01l-.05.03c-.5.28-.84.76-.91 1.3l-.04.3-.3-.12a2.06 2.06 0 0 0-1.74.08l-.03.01c-.6.32-.96.9-.96 1.52v.03c0 .57.3 1.1.8 1.43l.29.19-.28.18c-.5.33-.81.86-.81 1.43 0 .62.37 1.2.96 1.52l.03.01a2.06 2.06 0 0 0 1.73.09l.31-.13.04.3c.06.56.42 1.06.94 1.34h.01a2.05 2.05 0 0 0 1.96-.01l.04-.03c.5-.28.84-.76.91-1.3l.04-.3.3.12a2.06 2.06 0 0 0 1.75-.08l.02-.01c.6-.32.96-.9.96-1.52v-.03c0-.57-.3-1.1-.8-1.43Zm-.28 1.46c0 .27-.16.52-.42.66l-.03.02c-.6.32-1.14-.2-1.61-.53l-.86.51v.93c0 .96-2 1.04-2 .02v-.93l-.86-.53c-.47.32-1 .85-1.61.53l-.03-.02a.76.76 0 0 1-.42-.66c0-.5.58-.8.92-1.1V8.48c-.34-.28-.92-.58-.92-1.08v-.03c0-.27.16-.52.42-.66l.03-.02c.6-.32 1.14.2 1.61.53L8 6.69v-.91c0-1 2-1 2-.02v.93l.86.53c.47-.32 1-.85 1.61-.53l.03.02c.26.14.42.39.42.66 0 .5-.58.8-.92 1.1V9.5c.34.3.92.58.92 1.09v.03Z" fill="#10F48B"/><path d="M10.62 7.79 9 8.64 7.38 7.8 9 6.94l1.62.85ZM8.64 9.18v1.7L7 10.03v-1.7l1.64.85Zm2.36.85v-1.7l-1.66.85v1.7l1.66-.85Z" fill="#10F48B"/><defs><linearGradient id="ahhbywnnd" x1="3.35" y1="3.12" x2="21.9" y2="24.43" gradientUnits="userSpaceOnUse"><stop stop-color="#1A1E21"/><stop offset="1" stop-color="#06060A"/></linearGradient></defs></svg>