<!-- by TradingView --><svg width="18" height="18" viewBox="0 0 18 18" xmlns="http://www.w3.org/2000/svg"><path fill="url(#a)" d="M0 0h18v18H0z"/><path d="m13.86 4 .14.22a.01.01 0 0 1 0 .01L4.17 14h-.03L4 13.77v-.01l.02-.02.27-.26.2-.2.16-.17.14-.17.14-.17.12-.16.1-.17.1-.17.06-.15.05-.15.04-.16.02-.16.01-.1v-.2l-.02-.11-.02-.1-.03-.11-.03-.11-.05-.1-.08-.23-.08-.2-.06-.2-.05-.18a4.21 4.21 0 0 1 .03-2.2l.05-.17.06-.17.06-.16.07-.17.08-.16.09-.15.09-.16.09-.15.1-.14.1-.14.11-.13.12-.13.12-.13.12-.11.13-.12.13-.1.17-.13.18-.12.19-.1.19-.1.19-.1.2-.07.2-.07.2-.06.2-.05.2-.03.2-.03.21-.01H9.3l.2.02.21.03.24.05.23.07.23.08.23.1.2.1.26.11.1.04.09.03c.4.12.78.07 1.16-.13.31-.17.6-.39.89-.66a48.1 48.1 0 0 0 .52-.5ZM12.6 6.88v.01l.13.25.1.25.09.27.07.26.05.27.04.27.02.27v.28l-.01.27-.03.27-.05.28-.06.26-.08.27-.1.25-.11.25-.13.24-.13.23-.16.22-.1.13-.1.12-.1.12-.11.11-.12.11-.11.1-.12.1-.13.1-.22.15-.23.13-.24.12-.24.1-.25.1-.26.06-.25.06-.27.03-.26.02h-.26l-.27-.02-.26-.03-.26-.05-.25-.07-.25-.08-.25-.1-.24-.12-.23-.14-.01-.01v-.01l.91-.9.01-.01h.01a2.8 2.8 0 0 0 3.2-.56 3.13 3.13 0 0 0 .7-3.32l.9-.9h.02Zm0-1.67-.22.2-.2.17-.2.15-.19.14c-.47.3-1 .42-1.58.34l-.2-.03-.31-.07-.07-.02a3.36 3.36 0 0 0-.35-.06h-.05L9.06 6h-.18l-.18.02-.18.02-.17.04-.18.05L8 6.2l-.17.08-.16.08-.16.1-.15.1-.14.12-.14.13-.13.13-.12.15-.11.15c-.4.57-.58 1.2-.53 1.9l.02.22.05.3.03.14c.03.16.04.34.04.56v.2l-.03.2-.04.19-.06.18-.07.18-.09.18-.1.18-.11.17-.14.18-.15.17c-.07.1-.15.18-.23.27l7.31-7.25Z" fill="#F9FF01"/><defs><linearGradient id="a" x1="3.35" y1="3.12" x2="21.9" y2="24.43" gradientUnits="userSpaceOnUse"><stop stop-color="#1A1E21"/><stop offset="1" stop-color="#06060A"/></linearGradient></defs></svg>