<!-- by TradingView --><svg width="18" height="18" viewBox="0 0 18 18" xmlns="http://www.w3.org/2000/svg"><path fill="#2A5ADA" d="M0 0h18v18H0z"/><path d="M11.74 4.65a2.03 2.03 0 0 0-2.97 0l-2.64 2.8a.62.62 0 0 1-.9 0L3 5.09v2l1.23 1.35c.3.33.3.86 0 1.2L3 10.98v2C5.23 10.52 7.43 8.1 9.72 5.7c.3-.31.77-.31 1.06 0l2.6 2.74c.3.31.3.81 0 1.12l-2.6 2.74c-.3.31-.77.31-1.06 0l-1.35-1.42a1.12 1.12 0 0 0-1.66.01l-.13.15 2.19 2.31c.82.87 2.15.87 2.97 0l2.64-2.79a2.3 2.3 0 0 0 0-3.12l-2.64-2.8Z" fill="#fff"/></svg>