<!-- by TradingView --><svg width="18" height="18" viewBox="0 0 18 18" xmlns="http://www.w3.org/2000/svg"><path fill="url(#a)" d="M0 0h18v18H0z"/><path d="M11.32 8.9v-.2c.92-.3 1.5-.91 1.5-2.2 0-1.4-.76-2.5-2.86-2.5H6v4H4l2 1.59V14h3.93c2.05 0 3.07-1 3.07-2.7 0-1.48-.74-2.14-1.68-2.4ZM7.33 5.43h2.09c1.1 0 1.47.45 1.47 1.42 0 .83-.37 1.15-1.5 1.15H8V6.27l-1.5-.8.83-.04ZM9.5 12.5H8v-2.15l-1.5-.63h2.92c1.23 0 1.74.37 1.74 1.32 0 .96-.5 1.46-1.67 1.46Z" fill="#fff"/><defs><linearGradient id="a" x1="3.35" y1="3.12" x2="21.9" y2="24.43" gradientUnits="userSpaceOnUse"><stop stop-color="#1A1E21"/><stop offset="1" stop-color="#06060A"/></linearGradient></defs></svg>