<!-- by TradingView --><svg width="18" height="18" viewBox="0 0 18 18" xmlns="http://www.w3.org/2000/svg"><path fill="#2E4A9D" d="M0 0h18v18H0z"/><path d="M8.99 8H9l.45-.41c.72-.67 1.26-1.17 1.93-1.73a86.76 86.76 0 0 1 1.12-.94A4.7 4.7 0 0 0 10.96 4 12.86 12.86 0 0 0 9 5.23l-.03-.01A12.88 12.88 0 0 0 6.99 4a4.7 4.7 0 0 0-1.5.94l.01.01 1.11.91c.68.56 1.22 1.07 1.95 1.74l.43.4Zm3.8 1.03a.05.05 0 0 1 0-.06A12.86 12.86 0 0 0 13.98 7a4.7 4.7 0 0 0-.93-1.5l-.01.01c-.34.42-.64.8-.91 1.11-.56.68-1.07 1.22-1.74 1.95A356.5 356.5 0 0 0 10 9l.4.44a46.64 46.64 0 0 1 2.68 3.06 4.7 4.7 0 0 0 .91-1.54c-.34-.68-.75-1.33-1.2-1.94ZM8 9v.01l-.4.44a46.42 46.42 0 0 0-2.68 3.06A4.71 4.71 0 0 1 4 10.97 12.93 12.93 0 0 1 5.23 9l-.01-.03A12.92 12.92 0 0 1 4 7a4.71 4.71 0 0 1 .95-1.5v.01c.34.42.64.8.91 1.11.56.68 1.07 1.22 1.74 1.95l.4.43V9Zm1.01 1H9l-.44.4c-.72.67-1.27 1.18-1.94 1.74a86.78 86.78 0 0 1-1.12.94 4.7 4.7 0 0 0 1.55.91A12.9 12.9 0 0 0 9 12.77l.03.01A12.92 12.92 0 0 0 11.01 14a4.7 4.7 0 0 0 1.5-.94l-.01-.01-1.11-.91c-.67-.56-1.2-1.06-1.92-1.72L9 10Z" fill="#fff"/></svg>