<!-- by TradingView --><svg width="18" height="18" viewBox="0 0 18 18" xmlns="http://www.w3.org/2000/svg"><path fill="url(#a)" d="M0 0h18v18H0z"/><path d="m8.7 8.65-1.32 2.39c-.01.02-.03.02-.04 0l-3.33-6C3.99 5 4 5 4.03 5h2.65l.02.01 2 3.61v.03Z" fill="#fff"/><path d="M11.32 5h2.65l.03.01v.03L12.3 8.08l-.02.01-.03-.01-1.32-2.39v-.03l.36-.65.02-.01ZM10.65 6.02 12 8.48v.03L9.03 14 9 14l-.02-.01-1.32-2.44v-.04l1.62-3V8.5L7.96 6.05V6L7.98 6h2.65c.01 0 .02 0 .02.02Z" fill="#FFD311"/><defs><linearGradient id="a" x1="3.35" y1="3.12" x2="21.9" y2="24.43" gradientUnits="userSpaceOnUse"><stop stop-color="#1A1E21"/><stop offset="1" stop-color="#06060A"/></linearGradient></defs></svg>