<!-- by TradingView --><svg width="18" height="18" viewBox="0 0 18 18" xmlns="http://www.w3.org/2000/svg"><path fill="url(#adwrgndp4)" d="M0 0h18v18H0z"/><path d="M10 14v-3.66c.98.1 1.51.46 1.51.46l.63-.63c-1.03-.66-2.52-.67-2.52-.67L9.34 7c.17-.1.28-.27.28-.46 0-.3-.28-.55-.61-.55-.34 0-.62.25-.62.55 0 .2.11.36.28.46l-.3 2.5s-1.47 0-2.5.67l.63.63s.52-.36 1.5-.46V14a8.68 8.68 0 0 1-4-7.5c0-.26.17-.5.43-.6C5.2 5.6 6.95 5 9 5c2.05 0 3.8.6 4.57.9.26.1.43.34.43.6a8.7 8.7 0 0 1-4 7.5Z" fill="#FFAF1D"/><defs><linearGradient id="adwrgndp4" x1="3.35" y1="3.12" x2="21.9" y2="24.43" gradientUnits="userSpaceOnUse"><stop stop-color="#1A1E21"/><stop offset="1" stop-color="#06060A"/></linearGradient></defs></svg>