<!-- by TradingView --><svg width="18" height="18" viewBox="0 0 18 18" xmlns="http://www.w3.org/2000/svg"><path fill="url(#a)" d="M0 0h18v18H0z"/><path d="M12.74 4c.67.05 1.2.6 1.26 1.26.05.8-.58 1.46-1.36 1.45-.38 0-.72-.15-.97-.4-.21-.22-.5-.34-.8-.34h-.1c-.3 0-.58.12-.79.34a1.37 1.37 0 0 1-1.94 0c-.21-.22-.5-.34-.8-.34h-.1c-.3 0-.59.12-.8.33l-.01.02h-.01c-.21.22-.34.5-.34.8v.11c0 .3.13.58.34.8a1.37 1.37 0 0 1 0 1.93c-.21.2-.34.49-.34.79v.12c0 .3.13.58.34.8h.01c.21.22.5.34.8.34h.13c.3 0 .57-.13.79-.34a1.37 1.37 0 1 1-.03 1.9c-.2-.2-.48-.33-.78-.33h-.11c-.3 0-.57.13-.78.34A1.37 1.37 0 0 1 4 12.7c-.02-.4.15-.77.41-1.03.21-.2.34-.48.34-.78v-.13c0-.3-.13-.59-.34-.8a1.36 1.36 0 0 1 0-1.93c.21-.21.34-.5.34-.8v-.1c0-.3-.12-.58-.33-.78l-.02-.02a1.36 1.36 0 0 1 .07-1.99 1.37 1.37 0 0 1 1.88.08c.2.21.5.33.79.33h.1c.3 0 .58-.13.8-.34a1.37 1.37 0 0 1 1.94 0c.2.21.49.34.8.34h.1c.3 0 .57-.13.78-.34.27-.27.65-.44 1.08-.4Zm.05 8.18a.6.6 0 1 1 0 1.21.6.6 0 0 1 0-1.2ZM9.15 8.55a.6.6 0 1 1 0 1.2.6.6 0 0 1 0-1.2Zm3.64 0a.6.6 0 1 1 0 1.2.6.6 0 0 1 0-1.2Z" fill="url(#b)"/><defs><linearGradient id="a" x1="22.05" y1="0" x2="2.16" y2="19.55" gradientUnits="userSpaceOnUse"><stop offset=".13" stop-color="#FFDF70"/><stop offset="1" stop-color="#FFD200"/></linearGradient><linearGradient id="b" x1="4" y1="9.47" x2="14" y2="8.98" gradientUnits="userSpaceOnUse"><stop/><stop offset="1" stop-color="#262626"/></linearGradient></defs></svg>