<!-- by TradingView --><svg width="18" height="18" viewBox="0 0 18 18" xmlns="http://www.w3.org/2000/svg"><path fill="#2F3847" d="M0 0h18v18H0z"/><path d="m9 9 1-.62v1.25l-1 .62V9Z" fill="#CC7400"/><path d="m9 12.75 1-.62v1.25L9 14v-1.25Z" fill="#DE7F00"/><path d="m9 11.5 1-.62v1.25l-1 .62V11.5Z" fill="#D17200"/><path d="m9 10.25 1-.62v1.25l-1 .62v-1.25Z" fill="#E38900"/><path d="m12 7.13 1-.63v1.25l-1 .63V7.13Z" fill="#C97900"/><path d="m12 10.88 1-.63v1.25l-1 .63v-1.25Z" fill="#C96E00"/><path d="M12 9.63 13 9v1.25l-1 .63V9.63Z" fill="#CC7400"/><path d="m12 8.37 1-.62V9l-1 .63V8.37Zm-1-.62 1-.63v1.25L11 9V7.75Z" fill="#E68A00"/><path d="m11 11.5 1-.62v1.25l-1 .62V11.5Z" fill="#D68100"/><path d="m11 10.25 1-.62v1.25l-1 .62v-1.25Z" fill="#C96E00"/><path d="m11 9 1-.62v1.25l-1 .62V9Z" fill="#DB7D00"/><path d="m10 8.37 1-.62V9l-1 .62V8.37Z" fill="#D18100"/><path d="m10 12.13 1-.63v1.25l-1 .63v-1.25Z" fill="#C47000"/><path d="m10 10.88 1-.63v1.25l-1 .63v-1.25Z" fill="#D17E00"/><path d="M10 9.63 11 9v1.25l-1 .63V9.63Z" fill="#CC7400"/><path d="m5 6.5 1 .63v1.25l-1-.63V6.5Zm0 3.75 1 .63v1.25l-1-.63v-1.25Z" fill="#FC9800"/><path d="m5 9 1 .63v1.25l-1-.63V9Z" fill="#FA0"/><path d="m5 7.75 1 .62v1.25L5 9V7.75Z" fill="#FFBD1E"/><path d="M8 8.38 9 9v1.25l-1-.62V8.38Z" fill="#FC9800"/><path d="m8 12.13 1 .62V14l-1-.62v-1.25Z" fill="#FA0"/><path d="m8 10.88 1 .62v1.25l-1-.62v-1.25Z" fill="#FA0"/><path d="m8 9.62 1 .63v1.25l-1-.62V9.62ZM7 7.75l1 .62v1.25L7 9V7.75Z" fill="#FA0"/><path d="m7 11.5 1 .63v1.25l-1-.63V11.5Z" fill="#FC9800"/><path d="m7 10.25 1 .63v1.25l-1-.63v-1.25Z" fill="#FFBD1E"/><path d="m7 9 1 .63v1.25l-1-.63V9Z" fill="#FFB304"/><path d="m6 7.12 1 .63V9l-1-.63V7.12Z" fill="#FA0"/><path d="m6 10.88 1 .62v1.25l-1-.62v-1.25Z" fill="#FFB304"/><path d="m6 9.63 1 .62v1.25l-1-.62V9.63Z" fill="#FA0"/><path d="M6 8.38 7 9v1.25l-1-.62V8.38Z" fill="#FC9800"/><path d="m9 4 1 .63-1 .62-1-.62L9 4ZM6 5.88l1 .62-1 .63-1-.63 1-.62Z" fill="#FFE929"/><path d="m7 5.25 1 .63-1 .62-1-.63 1-.62Z" fill="#FFE65E"/><path d="m8 4.62 1 .63-1 .63-1-.63 1-.63Zm4 1.26 1 .62-1 .63-1-.63 1-.62Z" fill="#FFDB2E"/><path d="m9 7.75 1 .62L9 9l-1-.63 1-.62Z" fill="#FFE65E"/><path d="m10 7.12 1 .63-1 .62-1-.62 1-.63Z" fill="#FFDB2E"/><path d="m11 6.5 1 .63-1 .62-1-.62 1-.63Z" fill="#FFE65E"/><path d="m11 5.25 1 .63-1 .62-1-.63 1-.62Z" fill="#FFE36A"/><path d="m8 7.12 1 .63-1 .62-1-.62 1-.63Z" fill="#FFDB2E"/><path d="m9 6.5 1 .63-1 .62-1-.62 1-.63Z" fill="#FFE36A"/><path d="m10 5.87 1 .63-1 .62-1-.62 1-.63Z" fill="#FFDB2E"/><path d="m10 4.62 1 .63-1 .63-1-.63 1-.63Z" fill="#FFE65E"/><path d="m7 6.5 1 .63-1 .62-1-.62 1-.63Z" fill="#FFE929"/><path d="m8 5.87 1 .63-1 .62-1-.62 1-.63Z" fill="#FFE65E"/><path d="m9 5.25 1 .63-1 .62-1-.63 1-.62Z" fill="#FFE929"/></svg>