<!-- by TradingView --><svg width="18" height="18" viewBox="0 0 18 18" fill="none" xmlns="http://www.w3.org/2000/svg">
<rect width="18" height="18" fill="#0E2849"/>
<path fill-rule="evenodd" clip-rule="evenodd" d="M8.30557 6L7 4H7.69823L9 6H8.30557ZM5.07148 8.50119L8.28252 13H9L6.28236 9.2115H6.32108C6.91649 9.2115 7.3871 8.71644 7.3871 8.10575C7.3871 7.49506 6.91649 7 6.32108 7H4L4.35772 7.50119H6.27833C6.58497 7.50119 6.90345 7.72504 6.90345 8.00119C6.90345 8.27733 6.58497 8.50119 6.27833 8.50119H5.07148ZM13.2825 13L10.0715 8.50119H11.2783C11.585 8.50119 11.9034 8.27733 11.9034 8.00119C11.9034 7.72504 11.585 7.50119 11.2783 7.50119H9.35772L9 7H11.3211C11.9165 7 12.3871 7.49506 12.3871 8.10575C12.3871 8.71644 11.9165 9.2115 11.3211 9.2115H11.2824L14 13H13.2825Z" fill="#DA2027"/>
</svg>
