<!-- by TradingView --><svg width="18" height="18" viewBox="0 0 18 18" fill="none" xmlns="http://www.w3.org/2000/svg"><path fill="#232B65" d="M0 0h18v18H0z"/><path fill-rule="evenodd" clip-rule="evenodd" d="m10.13 5.62-4.6 2.86c-.44.28-1.05.18-1.36-.23-.3-.39-.2-.94.25-1.22l4.6-2.87a1.04 1.04 0 0 1 1.36.22c.31.4.2.96-.25 1.24Zm3.45 1.35-4.6 2.87c-.43.28-1.05.18-1.35-.23-.31-.4-.2-.95.25-1.23l4.6-2.87a1.04 1.04 0 0 1 1.36.23c.29.4.18.96-.26 1.23Zm-.91 4-4.6 2.87c-.45.28-1.06.18-1.37-.22-.3-.4-.2-.96.25-1.24l4.6-2.87a1.04 1.04 0 0 1 1.37.23c.3.4.2.95-.25 1.23Z" fill="#F9C017"/></svg>