<!-- by TradingView --><svg width="18" height="18" fill="none" xmlns="http://www.w3.org/2000/svg"><path fill="url(#paint0_linear)" d="M0 0h18v18H0z"/><path d="M15.539 10.085l-2.914-1.704c-.15 1.028-.445 3.083-.433 3.083 1.366.687 2.589.427 3.435-.025.557-.297.457-1.035-.088-1.354zM2.462 10.085l2.914-1.704c.149 1.028.444 3.083.432 3.083-1.365.687-2.588.427-3.435-.025-.557-.297-.456-1.035.089-1.354z" fill="#6FD8DD"/><path d="M8.51 5.276a1 1 0 01.98 0l3 1.687a1 1 0 01.51.872v3.33a1 1 0 01-.51.872l-3 1.687a1 1 0 01-.98 0l-3-1.687a1 1 0 01-.51-.872v-3.33a1 1 0 01.51-.872l3-1.687z" fill="#262E33"/><path d="M6.317 6.5h5.355l.82.463a1 1 0 01.508.87V8.5H5v-.669a1 1 0 01.505-.869l.812-.462zM6.317 12.506h5.355l.82-.463a1 1 0 00.508-.87v-.667H5v.669a1 1 0 00.505.869l.812.462z" fill="#FFD70B"/><path d="M8.51 4.825a.244.244 0 01-.244-.243c0-.29-.117-.57-.323-.775a1.106 1.106 0 00-.78-.322.244.244 0 01-.243-.242A.242.242 0 017.164 3c.421 0 .825.167 1.123.464.298.296.466.699.466 1.118a.242.242 0 01-.244.243zM9.521 4.825a.244.244 0 01-.244-.243c.001-.42.169-.821.467-1.118A1.595 1.595 0 0110.867 3a.244.244 0 01.244.243.242.242 0 01-.244.243c-.292 0-.572.116-.779.321a1.095 1.095 0 00-.323.775.242.242 0 01-.244.243z" fill="#262E33"/><defs><linearGradient id="paint0_linear" x1="4.443" y1="1.965" x2="15.992" y2="14.709" gradientUnits="userSpaceOnUse"><stop stop-color="#D0F2E6"/><stop offset="1" stop-color="#FDCBB2"/></linearGradient></defs></svg>