<!-- by TradingView --><svg width="18" height="18" xmlns="http://www.w3.org/2000/svg"><path fill="#23AF91" d="M0 0h18v18H0z"/><path d="M8.21 9l2.543 2.998 1.84-1.89a.823.823 0 011.175 0 .88.88 0 010 1.21l-2.424 2.497a.83.83 0 01-1.176 0l-3.128-3.6v1.973c.006.457-.564.846-1.021.855-.46-.006-1.014-.396-1.008-.855V5.854c0-.472.546-.855 1.008-.855.455 0 1.02.383 1.02.855v1.931l3.13-3.6a.83.83 0 011.175 0l2.418 2.498a.88.88 0 010 1.209.823.823 0 01-1.17 0l-1.839-1.89L8.21 9zm2.549-.855c.455 0 .826.383.826.855 0 .473-.37.855-.826.855A.846.846 0 019.926 9c0-.472.372-.855.833-.855z" fill="#fff"/></svg>