<!-- by TradingView --><svg width="18" height="18" viewBox="0 0 18 18" xmlns="http://www.w3.org/2000/svg"><path fill="#F0F3FA" d="M0 0h18v18H0z"/><circle cx="9" cy="9" r="6"/><path d="M4.08 6.02c.2-.35.69-.9.9-1.14.11-.16.25-.1.47 0 .22.1.82.43 1.34.74.42.25.84.1 1 0 .15.64-.02 1.53-.66 1.86-.51.27-1.2.11-1.48 0A5.8 5.8 0 0 0 4.2 6.34c-.17-.1-.15-.25-.11-.32ZM12.26 5.79c.77-.16.9-.58.87-.76.42.38.14 1.2-.05 1.57.22-.05.48-.27.6-.37.03.91-1.1 1.87-1.78 1.9-.7.01-1.42-.3-1.55-.65-.14-.34-.05-.63.23-1.05.3-.43.7-.44 1.68-.64Z" fill="#5C5C5C"/><path d="M5.32 4.61A5.92 5.92 0 0 1 9.2 3.26a5.1 5.1 0 0 1 3.7 1.56v.53c0 .18-.5.29-1.23.43l-.6.13c-.16.07-.51.26-.65.5l-1.85-.29c.03-.57-.26-1.14-.55-1.12.16.1.45.45.4 1.1l-.46-.07c0-.2-.05-.59-.19-.58-.04 0-.1.03-.15.07-.15.1-.37.23-.78 0-.24-.11-.5-.3-.75-.48-.35-.26-.66-.49-.77-.43ZM3.44 7.5c0-.06.27-.76.35-.93.08-.17.17-.18.28-.14l.06.02c.1.03.2.06.08.17l-.13.1c-.2.13-.49.34-.64.78Zm.11.88L5 8.52c-.06.4.14.68.24.76l-.78.04a1.68 1.68 0 0 1-.96-.74l-.02-.02c-.1-.13 0-.17.07-.18Zm2.81 1.1c.11-.1.34-.33.4-.6.06.15.05.5-.4.6Zm7.15-3.64c0 .1-.1.37-.15.49.08-.05.26-.27.34-.38.12.12.12.56.04.79-.07.18 0 .25.03.26.2.1.64.52.83.71a7.16 7.16 0 0 0-.83-1.93c-.1-.16-.26-.07-.26.06Zm-1.37 2.98h-1.02c-.04.01-.1.06-.06.17.1.18.39.56.67.66h.49c.06-.01.18-.05.21-.08-.1-.1-.3-.4-.3-.75Z" fill="#F0F3FA"/><path d="M4.32 6.69c-.48.35-.71.74-.77.9l2.26.3c-.03.08-.11.1-.15.1l-2.17-.27c0 .08.04.1.06.11l2.67.3c.12.01.15.1.16.13L3.4 7.93c.01.07.06.1.08.1l3.31.37a3.28 3.28 0 0 0-.22-.62c-.44.01-.85-.12-1-.2a9.07 9.07 0 0 0-1-.89c-.1-.08-.21-.03-.26 0ZM3.55 9.73c.05-.05.23-.17.3-.22l-.18-.1c.27.04.56-.1.33-.16-.2-.05-.54-.48-.68-.7.04.31.37.64.54.77a1.62 1.62 0 0 1-.62-.45l.03.71c0 .24.22.2.28.15ZM6.96 8.8c.04.17.02.53-.42.65.1-.08.31-.31.42-.64ZM10.85 9.36a1.74 1.74 0 0 1 0-.48c.2.68.91.86 1.24.87h-.58c-.26 0-.63-.3-.66-.39ZM14.71 9.63a6 6 0 0 0-.13-1.98c-.22-.24-.61-.5-.65-.5-.19-.11-.19-.03-.16.03.33.47.36.92.33 1.08a3.25 3.25 0 0 0-.4-.94c-.11-.16-.25-.07-.3 0-1.03 1.25-2.1.95-2.25.9-.13-.05-.2.1-.23.18l3.05.1.06.07-3.11-.1c0 .09.06.12.1.13l3.2.1c.1.02 0 .4-.06.58l.23-.33c-.03.3-.17.53-.23.6.15.06.34-.16.42-.27-.06.12-.17.37-.09.43.09.06.19-.03.22-.08Z" fill="#00A3F7"/><path fill-rule="evenodd" d="m7.64 7.34-.02.02c-.21.27-.6.39-.76.41l.15 1.07c.1.62-.37.75-.5.75-.12 0-.06.08 0 .12.14.08.3.26.35.34l-.06.05c-.18-.25-.7-.6-1.57-.68a2.7 2.7 0 0 0-1.53.34c-.29.18-.33.43-.31.54l.11.33c.5-.42 1.18-.1 1.45.12v.13l-.22-.13c-.2-.11-.3 0-.31.07a2.07 2.07 0 0 0 2.2 2.37 2.42 2.42 0 0 0 2.1-1.78c.06-.37.03-1.03 0-1.3 0-.14-.07-.43-.3-.52a343.65 343.65 0 0 1-.84-.33c.02-.15.12-.93 1.33-.95 1-.02 1.27.63 1.3.95-.31-.02-.95.09-1.09.71a3.97 3.97 0 0 0-.09 1.32c.1.73.68 2.17 2.34 2.03 1.65-.14 2.14-1.78 2.18-2.58h-.79c.77-.45 1.27-.28 1.5-.19.2.1.3.02.34-.23a.33.33 0 0 0-.15-.35c-1.52-.7-2.43-.12-2.7.25-.02-.1.06-.27.11-.35-.7.1-1.04-.36-1.12-.6l.1.05-.05-.85a.61.61 0 0 0 0-.41c-1.04-.56-.63-1.37-.3-1.7-.08-.22-.44-.69-1.2-.79-.31-.04-.57 0-.77.06.1.35.08.78-.14 1.12-.29.44-.57.57-.74.59Zm.76-1.67c.02.13.03.29.02.46-.07.8-.41.97-.55.76.07-.23.12-.52.08-.88.06-.1.21-.24.45-.34Zm.06 1.53a.84.84 0 0 1-.7.27l-.07.15c.33.13.68-.2.82-.38l-.05-.04Zm1.59-.5c-.15.14-.43.5-.35.81.07.32.46.51.64.57h.14c-.33-.16-.87-.65-.43-1.33V6.7Z" fill="#F0BC81"/><path d="M3.77 10.72c-.17.06-.17.23-.15.3a5.74 5.74 0 0 0 5.26 3.7 5.76 5.76 0 0 0 5.45-3.52c-.09-.2-.34-.34-.46-.38-.05.85-.7 2.66-2.61 2.72-1.53.05-2.22-.97-2.38-1.49-.46 1.39-1.85 1.5-2.48 1.38-2.1-.4-2.34-1.9-2.2-2.6.03-.33-.23-.19-.43-.11Z" fill="#F0BC81"/></svg>