<!-- by TradingView --><svg width="18" height="18" viewBox="0 0 18 18" xmlns="http://www.w3.org/2000/svg"><path fill="#FFD05C" d="M0 0h18v18H0z"/><path d="M4.85 10.27c0-.28.14-.5.4-.68.2-.12.33-.21.42-.28.14-.12.25-.24.33-.37l.03-.03h.04l.05.05c.17.44.26.84.26 1.21.01.46-.1.84-.35 1.15v.02c.48.31.94.53 1.38.67.6.18 1.1.19 1.48 0a1.18 1.18 0 0 0 .65-.72 2.14 2.14 0 0 0 .05-1 .05.05 0 0 0-.03-.04c-.2-.1-.49-.14-.84-.1-.27.03-.55.1-.86.2a.15.15 0 0 1-.09 0c-.04 0-.07-.03-.09-.06a.15.15 0 0 1 0-.12c.1-.26.23-.48.36-.66a1.36 1.36 0 0 1 .8-.53 6.27 6.27 0 0 0-.59-.49 7.64 7.64 0 0 1-1.88-2.33 2.8 2.8 0 0 1-.22-.64.93.93 0 0 1 .05-.58c.08-.18.25-.29.5-.33l.3-.07.86-.25c.46-.15.9-.24 1.31-.28 1.21-.1 2.3.38 3.28 1.45a7.95 7.95 0 0 1 1.03 1.39 3.3 3.3 0 0 1 1.37 1.64c.08.24.13.48.15.72 0 .02 0 .04-.02.05a.06.06 0 0 1-.04.02l-.05-.01a1.66 1.66 0 0 0-.38-.28.8.8 0 0 0-.45-.1l-.02.02v.02a4.7 4.7 0 0 1-.8 2.74 5.28 5.28 0 0 1-3.3 2.25 4.52 4.52 0 0 1-3.08-.49 5.8 5.8 0 0 1-1.89-1.55.08.08 0 0 0-.06-.03c-.39 0-.76-.15-1.12-.45a3.4 3.4 0 0 1-.78-.95.06.06 0 0 1 0-.06.06.06 0 0 1 .06-.03c.23.02.46-.01.68-.09l.06-.02a4.6 4.6 0 0 1 .52-.13.7.7 0 0 1 .5.16l.02-.01Z"/><path d="M10.66 5.5c.29.16.55.35.78.58.02.01.02.03 0 .05a.3.3 0 0 1-.15.09 1.77 1.77 0 0 1-1.46-.37.68.68 0 0 1-.13-.14.43.43 0 0 1-.08-.17c0-.06 0-.11.04-.15.04-.05.11-.07.2-.08.14-.01.27 0 .42.04.1.03.24.09.38.16ZM9.2 12.53c.27-.14.5-.34.68-.6.17-.25.28-.54.32-.87a2.68 2.68 0 0 0-.15-1.34A3.06 3.06 0 0 0 8.8 8.16a6.48 6.48 0 0 1-1.73-1.95.27.27 0 0 1-.05-.18c.01-.07.06-.1.14-.12.23-.04.48-.03.74.01.73.14 1.48.5 2.25 1.09.44.33.83.7 1.16 1.09.37.42.65.86.85 1.31.23.5.33.96.3 1.42a2.45 2.45 0 0 1-1.13 1.9c-.51.32-1.06.53-1.63.62a3.96 3.96 0 0 1-2.85-.6c-.34-.22-.66-.47-.96-.77a5.78 5.78 0 0 0 1.62.67c.65.16 1.2.12 1.68-.12Z" fill="#fff"/></svg>