<!-- by TradingView --><svg width="18" height="18" viewBox="0 0 18 18" xmlns="http://www.w3.org/2000/svg"><path fill="#F0F3FA" d="M0 0h18v18H0z"/><path d="M14 4v4a5904.75 5904.75 0 0 0-2.97-2.57.05.05 0 0 1 0-.04v-.24L11 5.13h-.41c-.01 0-.02 0-.02.02v.17l-.01.02-.97.1-.02-.01v-.1H9.14v.07c0 .19-.01.32-.04.41a6.84 6.84 0 0 1-1.79 3.05c-.04.06-.12.13-.22.22a3.9 3.9 0 0 0-.3.28A10 10 0 0 1 4 11.06V4h10Z" fill="#4199BA"/><path d="m10.54 6.4-.01.01h-.02l-.62-.54v-.02l.68-.08h.01v.17l-.04.46ZM13.75 8.37l-.75.18H13l-1.96-1.7V6h.02l2.7 2.35.01.01v.01ZM9.58 8.95V6.17h.03l.81.71c.02.01.02.03.02.04a6.3 6.3 0 0 1-.86 2.02ZM9.14 7.01V9.5c0 .01 0 .02-.02.02a73.77 73.77 0 0 0-2.77.77v-.02a8.8 8.8 0 0 0 2.79-3.25ZM11.02 9V7.44l.01-.01h.03l1.39 1.2v.04l-1.4.33c-.02 0-.03 0-.03-.02ZM10.58 7.95v1.18l-.69.18h-.01v-.03a7.12 7.12 0 0 0 .7-1.33ZM14 8.76v.22a.18.18 0 0 1-.09.05l-.07.02a64.88 64.88 0 0 0-2.82 1.06v-.64l.02-.02L14 8.76ZM14 9.45v4.54h-2.98v-3.4h.01A99.77 99.77 0 0 1 14 9.45ZM10.58 9.59v.72l-.98.42h-.02v-.91l.99-.25.01.02ZM4 13.41v-1.89a64.84 64.84 0 0 1 4.74-1.45v.02a11.94 11.94 0 0 1-.44.44 13.95 13.95 0 0 1-2.05 1.6A23.25 23.25 0 0 1 4 13.41ZM9.14 10.28v.63c0 .01 0 .02-.02.03l-1.22.55h-.02v-.02a.5.5 0 0 1 .1-.09.63.63 0 0 0 .06-.05.78.78 0 0 1 .1-.09.97.97 0 0 0 .1-.1l.1-.08.1-.1a267.04 267.04 0 0 1 .7-.68ZM10.58 14h-1v-2.8l.99-.42h.01V14ZM9.14 14H4v-.08l.17-.1a57.11 57.11 0 0 0 1.3-.68 226.04 226.04 0 0 0 1.83-.9l.17-.08a2.48 2.48 0 0 1 .35-.16l.12-.06a96.14 96.14 0 0 1 1.19-.53V14Z" fill="#4199BA"/></svg>