<!-- by TradingView --><svg width="18" height="18" viewBox="0 0 18 18" xmlns="http://www.w3.org/2000/svg"><path fill="url(#a)" d="M0 0h18v18H0z"/><path d="m4.65 11.43.22.57H4l.44-.39.2-.18h.01Zm3.13-6.37L8.21 12h-.53L7.2 8.45l.51-.62-.42-1.9v-.01l.48-.86Zm2.33 0 .5.86-.43 1.9v.01l.5.62-.47 3.55h-.53l.43-6.94Zm3.25 6.37.2.18.44.4-.23-.01h-.64l.22-.57Zm-8.02-2L6.16 12h-.68l-.46-.86v-.02c.02-.08.27-.5.28-.58v-.04l-.26-.54v-.01l.3-.51Zm1.12-2.02L7.32 12h-.66l-.57-2.22.38-.6-.34-1.2.32-.57ZM8.94 4 9.16 4h.06l.05.09.12.22-.1 2.9.23.34-.3 4.44h-.09V12h-.37v-.01h-.08l-.3-4.44.22-.34-.1-2.9.1-.18.06-.13h.28Zm2.5 3.4.32.57-.34 1.2.38.6-.57 2.22h-.65l.85-4.6Zm1.12 2.03.3.5v.02l-.27.54v.04c.01.08.26.5.28.58v.02l-.46.85-.01.01h-.67l.82-2.56Z" fill="#CA2929"/><defs><linearGradient id="a" x1="3.35" y1="3.12" x2="21.9" y2="24.43" gradientUnits="userSpaceOnUse"><stop stop-color="#1A1E21"/><stop offset="1" stop-color="#06060A"/></linearGradient></defs></svg>