<!-- by TradingView --><svg width="18" height="18" viewBox="0 0 18 18" xmlns="http://www.w3.org/2000/svg"><path fill="url(#a)" d="M0 0h18v18H0z"/><path d="M8.71 7.83v4.28l-.01.29a.89.89 0 0 1-.19.39c-.04.05-.12.11-.24.2-.02.03-.45.36-1.26 1.01H7V9.66c0-.12 0-.2.02-.25a.87.87 0 0 1 .4-.58l1.29-1ZM11 4V8.3c0 .14 0 .23-.02.29a.89.89 0 0 1-.19.38 724 724 0 0 0-1.5 1.21V5.84l.01-.25c.03-.15.1-.28.2-.4l.2-.18 1.3-1V4Z" fill="url(#b)"/><defs><linearGradient id="a" x1="3.35" y1="3.12" x2="21.9" y2="24.43" gradientUnits="userSpaceOnUse"><stop stop-color="#1A1E21"/><stop offset="1" stop-color="#06060A"/></linearGradient><linearGradient id="b" x1="11" y1="4.91" x2="7.92" y2="14.02" gradientUnits="userSpaceOnUse"><stop stop-color="#6FDED7"/><stop offset="1" stop-color="#7BE76E"/></linearGradient></defs></svg>