<!-- by TradingView --><svg width="18" height="18" fill="none" xmlns="http://www.w3.org/2000/svg"><path fill="#F0F3FA" d="M0 0h18v18H0z"/><path fill-rule="evenodd" clip-rule="evenodd" d="M9 4c.326 0 .59.24.59.535v4.953c0 .296-.264.536-.59.536-.324 0-.587-.24-.587-.536V4.535C8.413 4.24 8.676 4 9 4z" fill="#ED7422"/><path fill-rule="evenodd" clip-rule="evenodd" d="M7.505 5.297a.53.53 0 01-.252.733c-1.248.603-2.1 1.829-2.1 3.242 0 2.01 1.722 3.638 3.848 3.638 2.125 0 3.848-1.628 3.848-3.638 0-1.413-.853-2.64-2.1-3.242a.531.531 0 01-.252-.733.593.593 0 01.775-.237c1.62.781 2.73 2.374 2.73 4.212C14.002 11.883 11.761 14 9 14 6.239 14 4 11.883 4 9.272c0-1.838 1.11-3.43 2.73-4.212a.593.593 0 01.775.237z" fill="#ED7422"/></svg>