<!-- by TradingView --><svg width="18" height="18" viewBox="0 0 18 18" xmlns="http://www.w3.org/2000/svg"><path fill="url(#ate5indlm)" d="M0 0h18v18H0z"/><path fill-rule="evenodd" d="M9 14A5 5 0 1 0 9 4a5 5 0 0 0 0 10Zm2.73-8h-1.31a.42.42 0 0 0-.36.2L6.46 12h1.3c.14 0 .28-.07.35-.2L11.73 6Z"/><path d="M6.22 6.5h1.32c.15 0 .28.08.36.2l.74 1.23-.79 1.27-1.63-2.7Zm2.75 4.55.34.56c.07.13.2.2.35.2h1.3L9.76 9.8l-.8 1.26Z" fill="#FF010B"/><defs><linearGradient id="ate5indlm" x1="15.8" y1="3.67" x2="1.74" y2="16.17" gradientUnits="userSpaceOnUse"><stop stop-color="#00FE9B"/><stop offset="1" stop-color="#0F5"/></linearGradient></defs></svg>