<!-- by TradingView --><svg width="18" height="18" viewBox="0 0 18 18" xmlns="http://www.w3.org/2000/svg"><path fill="url(#a)" d="M0 0h18v18H0z"/><path d="M8.99 5a3.9 3.9 0 0 1 .85.12.04.04 0 0 1 0 .03l-.51 2.26a.06.06 0 0 1-.05.05 4.64 4.64 0 0 1-.62-.02.06.06 0 0 1-.02-.03l-.5-2.26a.04.04 0 0 1 .03-.05c.3-.07.58-.1.82-.1ZM8.17 7.43a.03.03 0 0 1-.03.03H7.5a.07.07 0 0 1-.05-.03L6.2 5.51a.04.04 0 0 1 .02-.06 5.35 5.35 0 0 1 1.09-.26l.02.02.83 2.22ZM10.49 7.47h-.63a.05.05 0 0 1-.05-.07l.8-2.1a.05.05 0 0 1 .06-.04l1.05.2a.05.05 0 0 1 .04.08l-1.23 1.9a.05.05 0 0 1-.04.03ZM6.87 7.47H5.4a.03.03 0 0 1-.03-.04l.54-1.37a.03.03 0 0 1 .06 0L6.9 7.4a.03.03 0 0 1-.01.05h-.02ZM12.08 6.06l.52 1.36a.04.04 0 0 1 0 .04.04.04 0 0 1-.03.01h-1.45a.04.04 0 0 1-.03-.07l.93-1.34a.04.04 0 0 1 .03-.02.04.04 0 0 1 .03.02ZM6.97 8l.08.92a.04.04 0 0 1-.04.04H4.8a.04.04 0 0 1-.04-.05l.35-.93a.04.04 0 0 1 .04-.02h1.79a.04.04 0 0 1 .03.03ZM10.94 8.91 11 8a.05.05 0 0 1 .05-.04h1.76a.05.05 0 0 1 .05.03l.34.91v.02a.05.05 0 0 1-.02.04h-2.21a.05.05 0 0 1-.03-.01.05.05 0 0 1-.01-.04Z" fill="#A7FCFE"/><path d="m7.1 9.5.07.91a.05.05 0 0 1-.05.05H4.24a.05.05 0 0 1-.04-.02.05.05 0 0 1 0-.04l.34-.91a.05.05 0 0 1 .04-.04h2.47a.05.05 0 0 1 .05.05ZM10.8 10.41l.08-.91a.05.05 0 0 1 .05-.04h2.47a.05.05 0 0 1 .04.03l.35.9a.05.05 0 0 1-.05.07h-2.9l-.02-.01a.05.05 0 0 1-.01-.04ZM7.21 11.02l.1.94a.03.03 0 0 1-.01.04H4.98a.03.03 0 0 1-.03-.01l-.94-.94a.03.03 0 0 1 0-.04V11H7.2l.01.03ZM10.67 11.97l.11-.96V11l.03-.01h3.18a.03.03 0 0 1 .01.03v.01l-.97.96a.03.03 0 0 1-.01.01H10.7a.03.03 0 0 1-.02 0 .03.03 0 0 1-.01-.03Z" fill="#CBFCFE"/><defs><linearGradient id="a" x1="3.35" y1="3.12" x2="21.9" y2="24.43" gradientUnits="userSpaceOnUse"><stop stop-color="#1A1E21"/><stop offset="1" stop-color="#06060A"/></linearGradient></defs></svg>