<!-- by TradingView --><svg xmlns="http://www.w3.org/2000/svg" width="18" height="18"><path fill="url(#aqgdi305q)" d="M0 0h18v18H0z"/><path fill-rule="evenodd" d="M4.91 7.75c-.07.46.02.93.1 1.38.04.08.11.12.2.16-.19.4-.29.83-.29 1.27 0 1.9 1.84 3.44 4.1 3.44s4.1-1.54 4.1-3.44c0-.45-.1-.89-.3-1.29a.3.3 0 00.17-.14c.09-.45.17-.92.1-1.38-.07-.62-.28-.8-.91-.65a3.5 3.5 0 00-1.07.49 4.68 4.68 0 00-4.2.01 3.48 3.48 0 00-1.09-.5c-.63-.16-.84.03-.9.65zm2.39 2.71c-.48-.2-1.3-.15-1.3-.15s.04.77.5 1.03c.57.32 1.6.16 1.6.16s-.08-.72-.8-1.04zm2.67 1.04s1.04.16 1.6-.15c.47-.27.5-1.04.5-1.04s-.82-.06-1.3.16c-.71.31-.8 1.03-.8 1.03z" fill="#F2F4F8"/><path d="M3.72 9.55c.07-.12.73-.47 1.54-.68.18-.5.4-.98.65-1.45l.65-1.17a3.69 3.69 0 01-.62-.38.18.18 0 01-.02-.1l.05-.1.15-.14c.12-.1.25-.2.39-.28l.2-.13c.46-.3.72-.52 1.14-.76.41-.24.6-.38 1.08-.36.6 0 2.07 1.89 2.74 2.86.4.58.93 1.64 1.13 2.03l.13.04c.6.18 1.2.45 1.34.62.13.15-.43.22-1 .31-.55.1-2.44.15-4.26.16-1.81.01-3.93-.05-4.4-.12-.46-.07-.98-.2-.89-.35z" fill="#6665DD"/><path d="M12.3 7.92s-1.2-.3-3.31-.3c-2.27 0-3.36.35-3.36.35s-.13.24-.18.39l-.19.51s1.65-.3 3.76-.3c1.27 0 2.53.12 3.79.33l-.3-.65c-.08-.1-.15-.22-.22-.33z" fill="#FF99A5"/><path d="M5.17 5.38c.14-.02.32.4.32.4s.43-.12.5 0-.3.4-.3.4.22.4.15.47c-.07.09-.47-.16-.47-.16s-.3.34-.4.29c-.1-.05.01-.5.01-.5s-.43-.18-.4-.3c.03-.1.48-.14.48-.14s-.03-.44.11-.46z" fill="#FFE600"/><defs><linearGradient id="aqgdi305q" x1="3.35" y1="3.12" x2="21.9" y2="24.43" gradientUnits="userSpaceOnUse"><stop stop-color="#1A1E21"/><stop offset="1" stop-color="#06060A"/></linearGradient></defs></svg>