<!-- by TradingView --><svg width="18" height="18" viewBox="0 0 18 18" xmlns="http://www.w3.org/2000/svg"><path fill="url(#a)" d="M0 0h18v18H0z"/><path d="M11.28 4.2v.04l-.01.01-.14-.04-.1-.01c-.07 0-.13-.02-.2-.03h-.5a4.58 4.58 0 0 0-1.08.23h.02v.01a.18.18 0 0 1-.1.02h-.02l-.02.01v.01h-.01v.01h.03a.53.53 0 0 0-.2.12.08.08 0 0 1-.03.02.36.36 0 0 0-.15.06l-.5.4v.01h.02v.01a.02.02 0 0 0 .01 0 .5.5 0 0 1 .13-.1l-.09.08-.03.02a.37.37 0 0 0-.14.12h-.01l-.01-.01h-.01c0 .03 0 .04-.02.06a2.62 2.62 0 0 0-.48.68l-.02.01-.01.03v.01L7.58 6a.12.12 0 0 0-.06.12.66.66 0 0 0-.11.21 2.7 2.7 0 0 0-.11.79 2.29 2.29 0 0 0 .1.54v.04l.1.33v.01H7.3l-.01.01-.01.01a.02.02 0 0 0 0 .03l.09.1.27.27h.02l.01-.1h.01v.01a.3.3 0 0 1-.06.18c-.36-.27-.61-.6-.75-.97L6.8 7.4l-.04-.18-.02-.16-.02-.16a2.76 2.76 0 0 1 .54-1.67 1.93 1.93 0 0 0 .69-.09l.5-.42h.02v.01l-.23.17c.2-.13.41-.25.62-.35A.6.6 0 0 0 9 4.47l.03-.02.22-.09.16-.09.12-.1.04-.05.04-.06.04-.08.02-.1a3.01 3.01 0 0 1 1.6.31Z" fill="#4C3EB3"/><path d="m9.67 3.89-.02.1-.04.07-.04.06-.04.06-.12.1-.16.08-.22.1a.12.12 0 0 0-.03.01.6.6 0 0 1-.13.1 3.93 3.93 0 0 0-.62.34l.23-.17-.02-.01-.5.42h-.01c-.22.08-.45.1-.68.1l.1-.14.12-.13.12-.13.14-.12.13-.12.15-.1.15-.1.15-.1.16-.08.17-.08.16-.07.17-.05.17-.05.17-.04.17-.03.17-.02Z" fill="#110E79"/><path d="M11.27 4.25a1.84 1.84 0 0 1 .7.64.01.01 0 0 1-.01 0l-.1-.13-.1-.12-.13-.1-.13-.1-.15-.09-.15-.07-.15-.05-.16-.04a1.86 1.86 0 0 1 .8.51.82.82 0 0 0-.39-.06c-.16-.11-.33-.2-.5-.26a1.17 1.17 0 0 0-.38-.04l-.01.01v.01a3.14 3.14 0 0 0-1.74.43v-.01l.03-.01-.02-.01.09-.1c.05-.03.1-.06.15-.07l.04-.01a.53.53 0 0 1 .2-.12l.03-.01v-.01h-.02l-.02.02h-.03v-.01h.01l.02-.02h.02l.1-.01V4.4h-.02V4.4h.07c.35-.13.69-.2 1.01-.24a6.58 6.58 0 0 1 .7.04l.1.01.14.04Z" fill="#A393FA"/><path d="m11.27 4.25.02-.01V4.2l.6.3c.07.03.16.09.25.17-.04.08-.04.18 0 .3.07.18.15.46.25.85a3.03 3.03 0 0 1 .03.56h-.02l-.01-.02a2.73 2.73 0 0 0-.29-.83l-.06-.1-.1-.14-.07-.1c-.15-.2-.34-.38-.57-.55a.82.82 0 0 1 .39.06 1.86 1.86 0 0 0-.8-.5l.16.03.15.05.15.07.15.08.13.1.13.11.1.12.1.13a.01.01 0 0 0 .01 0c-.07-.13-.2-.27-.38-.43-.13-.1-.23-.17-.32-.2Z" fill="#9A65DC"/><path d="M11.3 4.64c.23.17.41.36.57.56l.07.09.1.14.06.1a2.73 2.73 0 0 1 .29.84h.03c0-.28-.01-.46-.03-.55-.1-.39-.18-.67-.25-.85-.04-.12-.04-.22 0-.3.2.15.37.32.5.52a.53.53 0 0 0-.18.43 3.06 3.06 0 0 0 .04.46V5.7l.01-.1.02-.09.04-.08.04-.07.05-.06a.02.02 0 0 1 .02 0v.01l-.04.05-.05.07-.04.07-.02.08-.02.09-.01.19.02.24-.03.25-.02.18-.04.19-.05.18-.07.19-.08.18-.1.17-.1.17-.12.17a5.09 5.09 0 0 0-.26.35 1.53 1.53 0 0 1-.57.3.4.4 0 0 1 .04-.17l.02-.01c.01 0 .03-.02.04-.06h.03v.01l-.09.13v.02l.02.01h.01c.17-.08.31-.18.42-.3l.02-.03V8a.1.1 0 0 0-.03-.03.13.13 0 0 0-.1-.01 7.51 7.51 0 0 0-.2.15l-.16.18-.04.02-.34.11-.02.02-.01.02v.04l.02.02a.06.06 0 0 0 .04 0l.25-.07h.06v.03l-.01.02-.34.2a.96.96 0 0 0-.22.24l-.26-.12a.06.06 0 0 1-.03-.02v-.04l.42-.88c.09.12.24.21.47.27h.04s.02 0 .03-.02l.2-.2.01-.02.21-.12.07-.04.05-.06.02-.05.01-.05v-.11l-.03-.05-.03-.04-.04-.04-.05-.04-.1-.05c.1-.13.17-.3.23-.48.18-.56.1-1.09-.22-1.58L11.5 5l.01-.01a.03.03 0 0 1 .02 0l.23.11L11.6 5l-.02-.01H11.47v.15h-.01v-.01a9.09 9.09 0 0 0-.04-.2l-.01-.01v-.06a.02.02 0 0 0-.01 0c-.02.02-.04.03-.07.02h.02v-.01a.01.01 0 0 0 0-.01l-.05-.13a1.4 1.4 0 0 0-.8-.35.2.2 0 0 0-.08-.01h-.01v-.03h.01c.16 0 .28.01.38.04.17.06.34.15.5.26Z" fill="#4C3EB3"/><path d="M10.5 4.38c.32.04.59.15.8.35a.33.33 0 0 1-.23.07 1.2 1.2 0 0 0-.24-.07c-.43-.06-.87 0-1.3.16a2.43 2.43 0 0 0-1.3 1.14l-.1.19-.08.19-.06.19-.03.2-.02.18v.19l.04.18.05.18.08.21a.95.95 0 0 1-.64-.6l-.02-.12a2.16 2.16 0 0 1 .14-1.01h-.01a.2.2 0 0 0-.05.11c0-.05.01-.1.06-.12l.01-.02v-.01c0-.02 0-.03.02-.03l.02-.01v-.01c.13-.25.29-.48.48-.67a.07.07 0 0 0 .02-.05v-.01a.01.01 0 0 1 .01 0h.01v.01c.05-.05.1-.1.15-.12l.03-.02.1-.08c.03-.06.09-.1.16-.14l.03-.02.05-.06h.02v.01l-.02.01v.01l.01.01h.01c.04-.04.07-.06.09-.06h.04c.03-.04.13-.09.28-.15.44-.17.9-.24 1.38-.2Z" fill="#C4C3FD"/><path d="M11.45 5.13V5.1h-.02l.02.02.01.01h.01V5h.02l.07-.01h.04l.16.11v.01l-.22-.1-.02-.01h-.01v.01l-.02.18-.42-.4c.09.01.16 0 .23-.06l.05.13v.01h-.01a.18.18 0 0 1-.01.01c.03.01.05 0 .06-.02h.02v.06h.03c0-.01 0-.01 0 0l.01.2Z" fill="#A393FA"/><path d="m10.2 8.09-.13.1-.14.07-.15.05-.15.02h-.09l-.09-.02-.08-.02-.1-.03-.07-.04-.08-.05-.08-.05-.07-.07-.13-.16-.11-.17-.08-.18-.06-.2-.02-.2v-.22l.03-.21.06-.21.1-.2.1-.2.14-.17.16-.16.17-.14.19-.12.2-.1.22-.06.13-.03.12-.01.12-.01h.11l.11.01.1.02.11.03.1.04.09.05.1.06.08.08.07.08.06.1.04.05.06.15.03.17.01.16-.02.18-.04.17-.07.18-.1.18-.11.17c-.26.33-.54.63-.84.9Z" fill="#FDF1FD"/><path d="M12.6 5.46c-.06.21-.08.42-.08.65l-.02-.24v-.2l.03-.08.02-.08.04-.07.05-.07.04-.05V5.3a.02.02 0 0 0-.02 0l-.05.06-.04.07-.03.08-.03.09-.01.1v.37a3.06 3.06 0 0 1-.04-.46c0-.18.06-.32.18-.43l.06.1v.04l-.1.13Z" fill="#9A65DC"/><path d="M10.49 8.93c.07-.1.15-.18.22-.23a5.74 5.74 0 0 1 .36-.24l-.01-.02H11l-.25.07a.06.06 0 0 1-.04 0l-.02-.02v-.06l.03-.02.34-.1.04-.03.17-.18-.1.1c0 .04-.02.06-.03.06h-.02a.4.4 0 0 0-.04.19 1.53 1.53 0 0 0 .59-.34l.24-.32.12-.17.1-.17.1-.17.08-.18.07-.19.05-.18.04-.19.02-.18.03-.25c0-.23.02-.44.08-.65l.09-.06.02-.02v-.06h.02c.03.1.07.16.1.22l.03.04.01.04.09.36.02.13.02.11c.03.67-.17 1.28-.63 1.84a5.83 5.83 0 0 1-.33.4v.02l.18.2v.05l-.03.01-1.33.31c-.05.01-.1 0-.15-.02l-.22-.1ZM7.45 7.03v.05c-.03-.03-.05 0-.04.06v.14l.02.23v.08l-.02.07c-.01 0-.02 0-.02-.02a2.7 2.7 0 0 1 .03-1.3.66.66 0 0 1 .1-.22.2.2 0 0 1 .06-.1V6h.02v.01c-.13.33-.18.66-.15 1Z" fill="#A393FA"/><path d="M7.48 7.14c0 .11.02.22.08.31v.04l.21.37-.2-.23h-.04v.01l.05.33h-.01l-.04-.11-.06-.28-.03-.18v-.17l.01-.15v-.05l.03.1Z" fill="#9A65DC"/><path d="m7.45 7.08-.01.15v.17l.03.19.07.27.02.11h.02l-.05-.33v-.01h.04l.2.23c.1.08.23.14.37.18a1.26 1.26 0 0 1-.4-.11h-.02l-.02.01v.07l.02.05.04.07.07.1.04.04.03.03c.04.01.07.04.1.07l.03.04.18.1.24.15.2.14.16.09a22.23 22.23 0 0 1 .45.25l.14.13.02.14v.02l.12.12h.01a.02.02 0 0 0 .02 0l.07-.13c.03.05.03.13 0 .22.03 0 .03 0 .02.02l-.33-.26a.58.58 0 0 0-.15-.08c-.3-.12-.61-.26-.9-.43-.21-.14-.38-.3-.5-.46l-.02-.09.01-.01h.02a.16.16 0 0 1 .1.04v-.01a.49.49 0 0 1-.18-.2l-.17-.18-.02-.03-.1-.25-.01-.04.01-.07.01-.08-.01-.23-.01-.14c0-.07.01-.09.04-.06Z" fill="#DAADFD"/><path d="M8.11 7.74c-.03.06-.07.07-.13.05a.8.8 0 0 1-.42-.34.65.65 0 0 1-.09-.31c.1.3.32.5.64.6Z" fill="#DAADFD"/><path d="m10.62 7.87.14-.32.02-.02.02-.02a.08.08 0 0 1 .06 0l.26.14h.03l.02-.01c.12-.11.23-.24.32-.38l.1.04.04.04.04.04.03.05.02.05.01.05v.1l-.03.05-.05.06-.07.05-.2.12h-.02l-.2.21-.03.02h-.04c-.23-.05-.38-.15-.47-.27Z" fill="#110E79"/><path d="M8.3 8.06a.37.37 0 0 0-.16-.02c-.14-.04-.27-.1-.37-.18l-.2-.36a1 1 0 0 0 .59.4v-.02h.02l.12.18Z" fill="#A393FA"/><path d="M8.14 8.04c.06 0 .11 0 .16.02.19.24.41.41.69.53l.68.27c.3.12.54.26.73.4l.19.93c.01.06 0 .13-.04.22v.02l.04.13v.01h-.01l-.05-.13-.05-.14-.05-.1-.05-.07a2 2 0 0 0-.41-.42c-.1-.07-.17-.07-.23-.02h-.02a1.15 1.15 0 0 1-.06-.13.1.1 0 0 1-.01.08c.02-.1.02-.17 0-.22a.23.23 0 0 0-.07-.06h-.02l-.01.02v.02l-.02.01H9.5v-.06l-.01-.01a.26.26 0 0 1-.1-.07l-.14-.13-.45-.25-.15-.1-.2-.13-.25-.15-.18-.1a.09.09 0 0 1-.04-.04.16.16 0 0 0-.09-.07.08.08 0 0 1-.03-.03l-.04-.05-.07-.09-.04-.07-.03-.05v-.05l.01-.02h.02a.06.06 0 0 1 .05 0c.12.05.25.09.37.1ZM11.18 8.2l.09-.1a7.5 7.5 0 0 1 .2-.15.13.13 0 0 1 .09 0 .1.1 0 0 1 .03.04v.05c0 .01 0 .02-.02.03a1.38 1.38 0 0 1-.43.3h-.01v-.03l.09-.13V8.2h-.04Z" fill="#9A65DC"/><path d="M7.78 8.43c.12.16.29.32.5.46l-.52-.25-.02-.03a.23.23 0 0 1-.12-.06.3.3 0 0 0 .07-.18h-.01l-.02.08v.01h-.02l-.27-.27.27.25h.01v-.01c-.1-.13-.14-.26-.12-.4h.02l.04.13.02.03h.01v.01c.01.05.03.08.06.09v.27l.01.01h.03l.06-.14Z" fill="#A393FA"/><path d="M7.37 8.78a.91.91 0 0 0-.43.27l-.05.05-.06.04-.07.05-.2.08-.16.06-.08.03-.07.02h-.13l-.05-.01-.04-.02-.1-.07-.15-.2-.01-.01v-.02l.01-.01.02-.01 1.37-.32c.06-.02.13 0 .2.07Z" fill="#110E79"/><path d="m7.66 8.92-.26.19c-.22 0-.35.03-.4.05a.37.37 0 0 1-.18.05v.01h.03l.01.01h.01v.02l-.23.15-.01-.02.2-.12v-.01h-.01l-.04.01c0 .02-.02.03-.04.04a4.19 4.19 0 0 0-.27.19v.02l.01.01c.03.03.04.07.04.12l-.02.03-.09.1a.08.08 0 0 0-.03.06l-.01.03c-.3.3-.5.63-.62 1a.33.33 0 0 0-.07.31h-.01v-.15a2.14 2.14 0 0 0-.04 1.12.01.01 0 0 1-.01 0l-.01-.02a11.87 11.87 0 0 1 .19.55h-.03l-.17.04v.01a.85.85 0 0 1 .22.02v.02h-.01l-.34-.02-.1-.13-.09-.14-.09-.18-.07-.18-.06-.19-.03-.19-.03-.2v-.2l.01-.2.03-.21.05-.21.06-.2.09-.2.1-.2.13-.2.14-.19.16-.18.17-.18c.03-.02.03-.05 0-.08l.09.07.04.02.05.01h.13l.07-.02.08-.03.16-.06.2-.08.07-.05.06-.04.05-.05a.91.91 0 0 1 .43-.27l.29.14Z" fill="#4C3EB3"/><path d="M6.36 12.32a4.21 4.21 0 0 1-.6-.5c0 .05.02.09.06.13.17.19.35.32.56.4l.04.06a1.52 1.52 0 0 1-.63-.45l.12.26v.04a9.04 9.04 0 0 1-.1-.17l-.01-.02-.02-.1v-.04l-.02-.04c-.01-.03-.02-.06-.01-.11v-.03a2.44 2.44 0 0 1-.04-.57c.03-.1.04-.2.04-.31a2.51 2.51 0 0 1 .63-1.04l.03-.06a.76.76 0 0 0-.02.04h.05c.01 0 .02 0 .03-.02.08-.08.17-.15.27-.21.23-.15.45-.3.66-.47l.26-.19.1.06v.01l.01.02a35.1 35.1 0 0 1-.58 1.24h-.02l-.02-.01-.15-.22v-.01a.04.04 0 0 0-.04 0h-.01l-.2.2-.17.2-.14.23-.11.24-.09.23-.04.23-.02.23.02.22c.02.14.08.31.16.53Z" fill="#DAADFD"/><path d="M7.4 9.1c-.21.17-.43.33-.66.47-.1.07-.19.14-.27.22l-.03.02h-.05l.02-.04.1-.1v-.03c.01-.05 0-.09-.03-.12v-.01a.04.04 0 0 1 0-.04l.01-.02a4.18 4.18 0 0 1 .33-.2l-.19.13v.02h.01l.22-.14.01-.01v-.02h-.05v-.01c.07-.01.13-.03.18-.06.05-.02.18-.04.4-.05Z" fill="#9A65DC"/><path d="m9.64 9.42-.07.13h-.02l-.12-.12-.01-.02-.02-.14.1.07v.01l.01.02v.03l.01.01h.02l.01-.02v-.02h.01a.02.02 0 0 1 .02 0c.02 0 .04.02.06.05Z" fill="#A393FA"/><path d="M10.4 9.26c.17.12.3.25.4.38a2.8 2.8 0 0 1-.06.21l-.02.1-.02.08v.1l.01.11.06.71c-.07.48-.24.92-.51 1.31-.25.36-.59.65-1.02.87a.6.6 0 0 0-.21.02v-.01l.28-.16v-.03H9.3l-.19.1c.3-.18.48-.3.53-.34l.34-.34a2 2 0 0 0 .31-.48l.04-.09.02-.07v-.07l-.02-.05-.04-.05-.07-.05-.1-.05-.16-.06c.07-.18.1-.37.12-.56.02-.43-.12-.82-.42-1.18 0-.02 0-.03-.01-.02a.1.1 0 0 0 .01-.08 1.14 1.14 0 0 0 .06.14h.02c.06-.06.14-.06.23 0a2 2 0 0 1 .41.43l.05.07.04.1.06.14.04.13h.02l-.04-.14v-.02a.36.36 0 0 0 .04-.22l-.19-.93Z" fill="#4C3EB3"/><path d="m8.56 9.73.15.02.15.05.15.08.14.1.15.14.12.15.11.17.08.17.04.13.03.15v.16l-.03.16-.05.17-.07.16-.1.17-.12.16-.14.16-.15.14-.16.12-.18.11-.18.09-.19.07-.18.04-.19.02h-.18a.92.92 0 0 1-.68-.35l-.1-.14-.06-.16-.04-.17-.01-.18.02-.19.05-.2.07-.18.1-.18c.19-.28.43-.55.73-.82l.19-.15.08-.05.09-.05.08-.03.09-.03h.08l.09-.01h.02Z" fill="#FDF1FD"/><path d="M10.89 10.02a.93.93 0 0 0-.1.38 1.15 1.15 0 0 1-.02.26h.01l-.01.29c0-.23-.03-.47-.06-.7v-.3l.03-.1.06-.21.18.27a.03.03 0 0 1 0 .04.32.32 0 0 1-.09.07Z" fill="#9A65DC"/><path d="M6.49 13.46c-.17-.15-.32-.3-.45-.45a.45.45 0 0 1-.1-.2l.01-.02a.03.03 0 0 1 .03 0 .6.6 0 0 0 .2.09c.27.22.47.36.59.42.22.12.45.2.68.2a3.4 3.4 0 0 0 1.58-.26l.03-.03v-.01H8.99a.7.7 0 0 1 .25-.07c.43-.22.77-.51 1.02-.87.27-.39.44-.83.5-1.31l.02-.3v.01h-.01c.01-.08.02-.17.01-.26 0-.08.03-.21.1-.38.02.02.04.02.06 0h.03v.02a1.08 1.08 0 0 0-.17.6l.01-.05.03-.17.03-.12.05-.1.07-.09.04-.03v-.06h.01l.06.12a2.67 2.67 0 0 1 .16.8v.17l-.02.17-.03.17-.04.16-.07.21-.09.21-.1.2-.12.2-.1.14-.1.13-.1.12-.12.12-.13.11-.12.11-.14.1-.14.1-.15.09-.15.08-.15.07-.16.07-.16.06-.16.05-.17.04-.17.03h-.02l-.14.03h-.55a2.54 2.54 0 0 1-.99-.23l-.38-.2Z" fill="#A393FA"/><path d="m10.67 10.78.02-.26a2.24 2.24 0 0 1-.03.58h-.02v-.01l-.03-.38h.01l.04.07h.01ZM5.75 10.87a1.12 1.12 0 0 1-.04.35 2.44 2.44 0 0 0 .04.56v.1l.01.01.01.04.01.05.02.09.01.02a9.08 9.08 0 0 0 .1.13l.05.06.06.06.07.05.08.05.23.11.11.05a.41.41 0 0 1-.26.07 1.21 1.21 0 0 0-.28-.02v.01l.2.15v.02h-.02l-.2-.13.22.18a.6.6 0 0 1-.19-.09h-.03l-.01.01v.02c.01.06.05.13.1.19.13.15.28.3.45.45a2.9 2.9 0 0 1-.72-.4 1.98 1.98 0 0 1-.3-.32l.34.02h.01v-.02a.85.85 0 0 0-.23-.02v-.01l.18-.03h.01l.02-.02v-.02a11.85 11.85 0 0 0-.2-.53v.01l.02.02h.01v-.01a2.14 2.14 0 0 1 .04-1.11v.15h.01a.33.33 0 0 1 .07-.3Z" fill="#9A65DC"/><path d="M9.24 13.13a.7.7 0 0 0-.25.07h.07v.01l-.03.03-.15-.02h-.04a3.52 3.52 0 0 1-.86.1h-.14v-.02h.03l-.1-.01-.07-.01-.13-.01-.12-.03-.1-.03-.1-.04-.1-.06-.1-.06v-.02c.02-.01.04-.02.07-.01.42.06.81.03 1.18-.08l.14-.04.14-.06.13-.06.14-.07.13-.08.12-.09.12-.09.1-.1.11-.1.1-.11.1-.12.08-.11.08-.13.06-.12.06-.13.05-.13.16.06.1.04.07.05.04.06.02.05v.07l-.02.07-.04.08a2 2 0 0 1-.31.49l-.34.33a4.14 4.14 0 0 1-.53.35l.19-.1.01.02-.28.16v.01s0 .01 0 0a.6.6 0 0 1 .21-.01Z" fill="#110E79"/><path d="m6.36 12.32.02.04c-.2-.09-.4-.22-.56-.4-.04-.05-.06-.1-.05-.13v-.01h.01c.18.18.37.35.58.5Z" fill="#A393FA"/><path d="M6.41 12.41a.7.7 0 0 1-.4-.1 1.03 1.03 0 0 0 .44.18l.01.01c.01.03.03.05.06.06v.04l-.12-.05-.23-.1-.08-.06-.07-.05-.06-.06-.05-.06-.12-.26h.01c.15.19.35.34.61.45Z" fill="#A393FA"/><path d="m6.7 12.83-.19.13-.01.01V13c0 .02.02.05.06.08h.01v-.01L6.56 13v-.02l.01-.02.2-.08h.01l-.16.12-.02.02a.05.05 0 0 0 0 .05l.02.02a1.34 1.34 0 0 0 .68.29v-.02a.7.7 0 0 1-.33-.2v-.03l.02-.03v-.12l.14.03h-.07v.02l.1.07.1.06.1.04.1.03.12.03.13.01h.07l.1.02h-.03v.02h.13a.18.18 0 0 1-.08.01 3.51 3.51 0 0 0 1-.1h.14a3.4 3.4 0 0 1-1.58.28 1.63 1.63 0 0 1-.68-.2 5.58 5.58 0 0 1-.81-.6l.2.12.01-.01-.2-.16v-.01c.03-.01.12 0 .28.02.08 0 .17-.01.26-.07v-.04c.05.1.11.19.2.27Z" fill="#4C3EB3"/><path d="m6.76 12.88-.2.1h-.01v.03l.03.06h-.01c-.05-.02-.07-.05-.08-.08v-.02l.02-.01.2-.13.05.05Z" fill="#9A65DC"/><path d="M6.98 12.99v.11l-.02.04v.03a.7.7 0 0 0 .33.2v.02a1.34 1.34 0 0 1-.7-.31.05.05 0 0 1 0-.05l.02-.02.16-.12c.06.06.13.1.21.1Z" fill="#9A65DC"/><defs><linearGradient id="a" x1="15.47" y1="2.78" x2="1.72" y2="15.61" gradientUnits="userSpaceOnUse"><stop stop-color="#FFF7F5"/><stop offset=".43" stop-color="#FDF1FD"/><stop offset="1" stop-color="#F2F4FF"/></linearGradient></defs></svg>