<!-- by TradingView --><svg width="18" height="18" viewBox="0 0 18 18" xmlns="http://www.w3.org/2000/svg"><path fill="#F0F3FA" d="M0 0h18v18H0z"/><path d="M13.88 11.11c-.27 0-.27-.02-.41-.1a8.83 8.83 0 0 1-1.63-1.65l1.02-.83c.59-.5.66-.5 1.14-.53V7h-2.4v1h.16c.15 0 .19.02.19.1 0 .05-.02.07-.11.18l-.57.47-.46-.4c-.12-.16-.14-.19-.14-.25 0-.1.08-.1.26-.1H11V7H8v1c.48.09.52.19.8.5l1.1 1.04-1.11 1.03c-.55.51-.3.43-.79.43v1h2v-1c-.22 0-.3.01-.3-.1 0-.08.06-.13.25-.31l.5-.39.5.47c.06.07.1.15.1.2 0 .13-.17.13-.46.13v1H14v-.89h-.12Z" fill="#231F20"/><path d="M7.1 4c-.72 0-1.4.28-1.74.75C5.12 5.07 5 5.4 5 6.2V7H4v1h1l-.03 2.4c0 .46 0 .59-.42.6h-.39v1h3.56v-1h-.4c-.42-.01-.3-.12-.32-.6V8h.74V7H7V5.79c0-.37-.1-1 .39-1 .08 0 .21.02.35.05-.29.18-.39.33-.39.62 0 .4.33.7.74.7.44 0 .76-.36.76-.86 0-.77-.7-1.3-1.75-1.3Z" fill="#231F20"/><path d="M14.92 12.09c-.27.74-1.16 1.1-1.99.8-.82-.3-1.27-1.14-1-1.89.28-.75 1.17-1.1 2-.8.82.3 1.26 1.14.99 1.89Z" fill="#E12027"/><path d="M12.22 11.15c-.25.39 0 .98.22 1.2.19.2.6.45.99.37-.49-.26-1.16-.7-1.2-1.57" fill="#010101"/><path d="M14.45 11.84c-.06.11-.21.14-.35.05-.13-.1-.18-.26-.12-.37.06-.12.21-.14.34-.05.13.08.2.25.13.37Z" fill="#fff"/><path d="m14.68 8.55-.01-.04-.03-.01c-.01 0-.02 0-.03.02l-.04.02-.02-.01-.03-.02c-.01 0-.02 0-.07.1l-.26.3a4.2 4.2 0 0 0-.66 1.21l-.04.2a.9.9 0 0 0-.02.08v.08c-.01.05-.02.1-.01.15v.1c-.1-.06-.12-.12-.14-.18 0-.05-.03-.12-.08-.1-.05 0-.08.05-.07.1.03.12.14.25.31.3l.08.02c.14.03.33 0 .44-.08a.09.09 0 0 0 .02-.13c-.04-.04-.14.08-.27.1l-.06.01a1.2 1.2 0 0 1 0-.38l.1-.39a3.23 3.23 0 0 1 .58-.97c.06-.08.18-.18.26-.23l.1-.08V8.7c.02-.04-.01-.1-.05-.16Z" fill="#010101"/></svg>