<!-- by TradingView --><svg width="18" height="18" viewBox="0 0 18 18" xmlns="http://www.w3.org/2000/svg"><path fill="#490619" d="M0 0h18v18H0z"/><path d="M9.74 11.34H7.92a.61.61 0 0 1-.53-.31L6.38 9.3a.64.64 0 0 1 0-.62l1.04-1.71c.11-.2.32-.31.54-.31h1.81L11.21 4 11.12 4H6.88c-.45 0-.86.24-1.09.64L3.67 8.36c-.23.4-.23.88 0 1.28l2.12 3.72c.23.4.64.64 1.09.64h4.34l-1.48-2.67Z" fill="#F04"/><path d="m14.33 8.36-2.12-3.72-.05-.08-1.45 2.53.91 1.6c.11.2.11.43 0 .62l-.9 1.6 1.44 2.53.05-.08 2.12-3.72c.23-.4.23-.88 0-1.28Z" fill="#28F981"/></svg>