<!-- by TradingView --><svg width="18" height="18" viewBox="0 0 18 18" xmlns="http://www.w3.org/2000/svg"><path fill="#F0F3FA" d="M0 0h18v18H0z"/><path d="M4.23 5.04a.13.13 0 0 0-.07.05h-.05a.07.07 0 0 0-.04.04.07.07 0 0 0 0 .06c.16.33.34.63.55.9l.45.61-.25-.15a.02.02 0 0 0-.02 0 .22.22 0 0 0 0 .14 9.27 9.27 0 0 1-.64-1.06 1.62 1.62 0 0 1-.16-.5c0-.06.02-.1.07-.12h.03l.13.03Z" fill="#919397"/><path d="m4.23 5.04.75.29L9.18 7c1.17.47 2.17.87 3.13 1.3.33.15.55.4.65.77.03.08.04.15.04.2 0 .26-.05.55-.12.94a29 29 0 0 1-.47 2.12c-.05.2-.1.32-.16.49 0 .02-.02.04-.04.06a.43.43 0 0 1-.44.1c.03-.01.04-.02.04-.04a.4.4 0 0 0 .21.02.1.1 0 0 0 .08-.08c0-.03-.01-.06-.04-.1a.07.07 0 0 0-.04 0l-.27-.06a.15.15 0 0 0-.09-.05.06.06 0 0 1-.03-.02.47.47 0 0 0-.16-.14 4.86 4.86 0 0 1-1.12-.74 10.14 10.14 0 0 1-.18-.13l-.01.02-.03-.03-.03-.02-.03.01-.02.03v.03l.07.1.02.04.02.06-.15-.14a.12.12 0 0 0 .02-.09.04.04 0 0 1 .01-.03c.04-.03.1-.04.15-.02l.36.26h.01v-.02a.27.27 0 0 0-.04-.04v-.02h.01v.02l.03.02.15.1c.05.03.06.08.12.09v.01c-.03-.02-.05-.02-.06 0l.13.08a.01.01 0 0 0 0 .02c.05.01.08.03.11.07l.02.01c.09.05.23.1.44.13.04.01.08.04.12.1-.1-.05-.17-.1-.23-.12h-.05v.01a.01.01 0 0 0 0 .02l.52.3h.02c.11.02.21.06.3.12l.03.07v.01h.03l.01-.01a.6.6 0 0 1 .06-.2l.02-.04c.24-.88.43-1.77.57-2.67l.07-.7V9.1a.9.9 0 0 0-.15-.37 4.98 4.98 0 0 0-1.08-.64 191.4 191.4 0 0 0-3.8-1.54L4.15 5.09a.13.13 0 0 1 .07-.05Z" fill="#656767"/><path d="M4.16 5.09 7.9 6.56l.2.12 1.12.53c.03.01.04.03.05.07a.01.01 0 0 1 0 .01.01.01 0 0 1-.01 0c-.5-.16-1.04-.39-1.44-.55-.66-.26-1.25-.57-1.94-.85a145.78 145.78 0 0 1-1.68-.7 8.13 8.13 0 0 0 .17.16 2.3 2.3 0 0 0 .43.47c.04.05.06.1.09.12.3.34.58.63.84.88.12.11.3.26.48.35a4.15 4.15 0 0 1 .34.18l.51.15c.03.01.05.03.06.05a.03.03 0 0 1 0 .02.02.02 0 0 1-.03.01h-.15l-.12-.02a3.55 3.55 0 0 0-.47-.1c-.1 0-.23-.04-.39-.1-.13-.04-.25-.1-.36-.17a3.1 3.1 0 0 1-.44-.37l-.1-.12-.44-.6a5.55 5.55 0 0 1-.55-.97.07.07 0 0 1 .04-.04h.05Z" fill="#fff"/><path d="M7.9 6.56c1.28.5 2.55 1 3.81 1.53.2.08.38.18.56.28-.2.06-.45-.04-.64-.12h-.02a.03.03 0 0 0 0 .04c.02.04.06.06.1.08.28.13.63.32.85.59l.02.03c.03.35.16.63.29.93a25.43 25.43 0 0 1-.67 2.93l-.01-.01v-.01l-.04-.07a1.57 1.57 0 0 0-.3-.2c-.14-.07-.22-.15-.33-.24-.18-.16-.4-.18-.6-.32l-.4-.27a.91.91 0 0 0-.33-.13c-.06-.02-.1-.01-.15.02l-.01.01v.02c0 .04 0 .07-.02.09-.1-.08-.14-.19-.1-.34 0 .03.02.02.06-.02l.03-.01h.03v.01a.1.1 0 0 0 .07 0l.1-.02a.17.17 0 0 0-.02.02v.03h.03a141.3 141.3 0 0 1 1.55-.58l.02.02v.02l.1.04v-.01a.01.01 0 0 0 0-.02.12.12 0 0 0-.06-.01h-.02l-.01-.02-.04-.1.09-.06.06.08.02.03h.03a.08.08 0 0 0 .07-.01c.15-.15.16-.3.03-.45a.05.05 0 0 0-.04-.02c-.05 0-.07.04-.09.09l-.01.01-.01-.02-.01-.01h-.01l-.09-.03c-.04-.01-.06 0-.05.02a.22.22 0 0 0-.08-.04h.04v-.02a.02.02 0 0 0-.02-.01c-.07 0-.14 0-.2.02h-.04c-.13 0-.26.02-.4.07h-.21l-.22.04c-.12 0-.23.03-.37.03a12.85 12.85 0 0 1-.82 0c0-.04.03-.06.07-.07l.2-.04-.12.06h-.01v.02l.02.01c.4.01.7-.06 1.23-.16a1.22 1.22 0 0 0 .15-.04v-.02h-.03a.56.56 0 0 1 .34-.02h.02l.5-.02h.04l.03-.03.02.04.03.07.04.03H12l.04-.04v-.05c-.02-.2-.15-.3-.37-.3-.2 0-.43 0-.71.04-.46.05-.98.1-1.55.14-.26.02-.51-.01-.75-.11a3.25 3.25 0 0 1-.27-.15 1.12 1.12 0 0 0-.35-.14 12330.22 12330.22 0 0 0-.9-.86c.01 0 .08.03.13.03l.61.06c.05.01.13 0 .2.02a173.79 173.79 0 0 0 2.91.26c.1 0 .16-.03.22-.1a.03.03 0 0 1 .03 0h.01c.04.07.08.09.12.04a.44.44 0 0 0 .13-.3V8.8l-.1-.2.03.01a.03.03 0 0 0 .03 0v-.04a.56.56 0 0 0-.25-.2c-.03 0-.05 0-.08-.02.01-.02 0-.03-.06-.05-.38-.11-.76-.2-1.15-.28-.85-.16-1.62-.35-2.55-.5l-.3-.07v.04h.01l.36.11.02.01v.03a.02.02 0 0 1 0 .02.02.02 0 0 1-.01 0l-.5-.08h.14a.02.02 0 0 0 .02 0 .03.03 0 0 0 0-.03c0-.02-.02-.04-.05-.05a15.74 15.74 0 0 0-.56-.17l-.29-.16c-.19-.09-.36-.24-.48-.35a12.91 12.91 0 0 1-.95-1.03 2.3 2.3 0 0 1-.44-.47 8.15 8.15 0 0 1-.13-.14h.01l.18.09 1.49.62c.68.28 1.28.59 1.93.85.4.16.95.39 1.44.56a.01.01 0 0 0 .01 0 .01.01 0 0 0 0-.02.11.11 0 0 0-.05-.07 24.1 24.1 0 0 0-1.12-.53l-.2-.12Z" fill="#E0E1E1"/><path d="m5.07 6.7.1.13c.14.2.3.34.44.43.2.12.47.2.78.24l.44.06.12.02.5.08a.02.02 0 0 0 .01 0 .02.02 0 0 0 0-.02v-.03h-.02l-.36-.11-.01-.01v-.03l.3.05a5.16 5.16 0 0 0 .92.24l.13.03c.2.04.4.08.59.14a1.36 1.36 0 0 0-.5 0l-.7-.1a6.75 6.75 0 0 1-.53-.1.55.55 0 0 0-.19-.02h-.01l-.01.02v.02l.01.01a50.77 50.77 0 0 0 1.61.4l1.6.37a81.8 81.8 0 0 1-4-.86 3.3 3.3 0 0 1-.72-.27c-.3-.17-.57-.4-.77-.7a.22.22 0 0 1 0-.14.02.02 0 0 1 .02 0l.25.15Z" fill="#656767"/><path d="M6.83 7.56a8.6 8.6 0 0 0-.44-.06 1.92 1.92 0 0 1-.78-.25c-.15-.08-.3-.23-.45-.42.14.13.29.25.45.36.1.07.22.13.36.18l.38.1c.23.03.39.06.48.09ZM11.13 8.35l-2.12-.43a4.45 4.45 0 0 0-.72-.17.67.67 0 0 0-.14-.05 5.16 5.16 0 0 1-.79-.2c.94.17 1.7.36 2.56.52.39.07.77.16 1.15.28.05.02.07.03.06.05Z" fill="#919397"/><path d="M7.8 7.82c.23.09.48.12.72.11a326.8 326.8 0 0 1 2.6.54c.03 0 .05.02.07.04.02.02.02.05.03.08a.35.35 0 0 0-.11.05.03.03 0 0 0 0 .04l.15.16v.01a.02.02 0 0 1 0 .02.25.25 0 0 1-.12.04c0-.02 0-.03-.02-.03.05-.15-.07-.19-.19-.21l-.65-.15-1.6-.37c-.61-.13-1.1-.25-1.46-.34a.43.43 0 0 1-.14-.06l-.01-.01a.03.03 0 0 1 0-.04h.02l.19.01.52.11Z" fill="#E0E1E1"/><path d="m9 7.92 2.13.43c.03.01.05.02.08.01 0 .02.02.04.04.05.05.05.05.08.02.13l-.01.01a.02.02 0 0 1-.02 0l-.05-.04a327.5 327.5 0 0 0-2.7-.59c.17-.03.34-.03.52 0Z" fill="#202527"/><path d="M12.27 8.37c.23.1.4.23.52.37.06.08.11.2.15.37v.1l-.07.71c-.12-.3-.26-.58-.3-.93v-.03a2.47 2.47 0 0 0-.87-.59.26.26 0 0 1-.1-.08v-.04h.04c.19.08.42.18.63.12Z" fill="#fff"/><path d="M11.4 8.6c-.03-.05-.06-.06-.1-.03a.32.32 0 0 1-.08.02.22.22 0 0 0-.02-.08l.04.04a.02.02 0 0 0 .02 0c.04-.05.04-.09-.01-.13a.17.17 0 0 1-.04-.06c.09.04.17.1.25.2v.04l-.02.01h-.01l-.04-.01Z" fill="#919397"/><path d="M11.12 8.88c.02 0 .03.01.03.03l-.06.04a.31.31 0 0 1-.13.03 266.87 266.87 0 0 1-2.77-.22 2.21 2.21 0 0 0-.62-.04 1.54 1.54 0 0 0-.67 0l-.04.08h-.02v-.05c.04-.06.1-.1.16-.1.24-.01.48-.01.69.02.23.02.43 0 .67.05a1.94 1.94 0 0 0 .75.05h.08l.27.03c.19 0 .35.06.5.05.18 0 .31.05.5.04.14-.01.52.11.66 0Z" fill="#656767"/><path d="M11.09 8.96a.1.1 0 0 0-.03.03v.05l.02.01a.03.03 0 0 1 .01.02c0 .02 0 .03-.02.02a2.53 2.53 0 0 0-.74-.07v.02h-.03l-.7-.06-.64-.06a7.74 7.74 0 0 0-.63-.05.92.92 0 0 1-.26-.04.2.2 0 0 0-.06 0c-.14 0-.27-.03-.4-.07h-.06c-.22 0-.43 0-.65-.04.22-.05.44-.05.67 0h.07a2.21 2.21 0 0 1 .6.04h.2l2.52.22c.03 0 .08 0 .13-.02Z" fill="#E0E1E1"/><path d="M7.48 9.45c.17.16.36.3.58.4.13.07.25.14.38.19l.58.15a3.01 3.01 0 0 1-1.38-.5h-.01a.18.18 0 0 0-.08.05 3.37 3.37 0 0 1-.67-.82V8.9a.02.02 0 0 1 .03 0l.12.1c.14.16.29.31.45.45Z" fill="#656767"/><path d="M11.07 9.09a4.88 4.88 0 0 1-.74-.07h.19c.24 0 .42.03.55.07ZM8.04 9.7c.12.02.24.06.35.13l.26.15c.25.1.5.14.76.11.57-.04 1.09-.1 1.54-.14.29-.03.53-.05.72-.04.22 0 .35.1.37.3v.05l-.04.03a.07.07 0 0 1-.09-.02l-.03-.07c.03.01.05.04.06.07a.02.02 0 0 0 .01.02.02.02 0 0 0 .02-.01.1.1 0 0 0 0-.07c-.05-.17-.17-.25-.35-.24a48.95 48.95 0 0 1-.38.03c-.12.03-.21.04-.28.04l-.17.02c-.12 0-.35.03-.7.07l-.96.06h.45l-.1.02-.46-.02c-.2-.04-.39-.09-.58-.15-.13-.05-.25-.12-.39-.19a2.4 2.4 0 0 1-.58-.4l.4.27.02.01a1.2 1.2 0 0 1 .25.13.02.02 0 0 0 .02-.01.02.02 0 0 0 0-.02.43.43 0 0 0-.12-.14Z" fill="#919397"/><path d="m9.02 10.19.46.02h.26a110.13 110.13 0 0 0 1.1-.15h-.05l.17-.02a1.91 1.91 0 0 0 .32-.05l.34-.02c.19-.02.3.06.35.24a.1.1 0 0 1 0 .06.02.02 0 0 1-.02.02l-.01-.02a.11.11 0 0 0-.05-.08l-.03-.03c0-.01 0-.02-.03-.02l-.5.02a2.93 2.93 0 0 0-.4.04h-.02l-.86.1a7.32 7.32 0 0 1-1.42 0 .1.1 0 0 1 .04.03l.02.01.16.05c.13 0 .24.04.35.1h.03l.74.02v-.02H9.6c.2 0 .42 0 .63-.02.14 0 .25-.04.37-.04.01 0 .09 0 .22-.03a.81.81 0 0 1 .22 0h.08l-.3.04-.44.06c-.19.02-.35.05-.52.05h-.05l-.07.02a33.2 33.2 0 0 1-.56.02c-.17 0-.31-.01-.44-.05a3.33 3.33 0 0 1-1.2-.8.18.18 0 0 1 .08-.05h.03a3.01 3.01 0 0 0 1.36.5Z" fill="#202527"/><path d="m10.91 10.21.02.01.03.02v.01c-.06.02-.11.04-.15.04-.53.1-.82.17-1.23.16h-.02v-.03l.13-.05.36-.06.86-.1Z" fill="#fff"/><path d="m11.66 10.34-.53.06h-.08c.13-.05.26-.07.39-.07h.04a.56.56 0 0 1 .2-.02h.01v.02c0 .02 0 .02-.03.01Z" fill="#919397"/><path d="M11.8 10.36c-.02.03-.01.05 0 .06a.04.04 0 0 1 .02.03V10.52h.02a.16.16 0 0 1 .01.01v.01c-.05.06-.1.1-.15.12a24.98 24.98 0 0 1-1.23.5c-.08-.05-.22.06-.26.06h-.01v.02c.01.01.03.02.04.01h.01l.01.01a.02.02 0 0 1 0 .02.52.52 0 0 1-.2.09h-.01v-.02l.13-.08a.02.02 0 0 0 0-.02l-.01-.01a.44.44 0 0 0-.11.05h-.04l-.01-.03c.55-.23 1.1-.45 1.67-.65a.2.2 0 0 0 .1-.12c.02-.06 0-.1-.04-.11 0-.03.01-.03.05-.02Z" fill="#656767"/><path d="m11.84 10.69-.09.06-1.55.6-.1.03a.1.1 0 0 1-.06 0l-.04-.02-.03.02c-.04.04-.06.05-.06.02 0-.06.03-.1.1-.14l.01.03h.04a.44.44 0 0 1 .1-.05h.02v.02l-.13.08v.02c.06 0 .13-.03.2-.08l.01-.01v-.01l-.01-.01-.05-.01a.01.01 0 0 1 0-.02h.01c.04 0 .18-.1.26-.07l-.03.01-.01.01v.03h.07a142.96 142.96 0 0 0 1.34-.51Z" fill="#919397"/><path d="m11.75 10.75.04.1.01.02h.02l.06.01v.03l-.1-.04a.02.02 0 0 1 0-.02l-.02-.02h-.02a141.3 141.3 0 0 0-1.55.58l-.01-.02v-.01l.02-.02 1.55-.6ZM10.16 11.5a.02.02 0 0 1 0 .02l-.03.01a.15.15 0 0 1-.03.01h-.07l-.01-.02-.01-.03v-.03l.03-.03.03-.02.02-.01h.01a.02.02 0 0 1 .02 0l.04.1Z" fill="#fff"/><path d="M12.15 12.76a.69.69 0 0 0-.31-.12l-.53-.3v-.02h.05a1.22 1.22 0 0 1 .24.11c-.04-.06-.09-.1-.13-.1a1.71 1.71 0 0 1-.46-.15.22.22 0 0 0-.1-.06h-.01v-.02l-.13-.08c.01-.02.03-.02.07 0V12c-.07-.02-.08-.06-.13-.09a1.39 1.39 0 0 1-.18-.12v-.02l-.01.01.05.05v.01l-.01.01h-.01l-.36-.26c.12.02.22.06.32.13l.42.27c.2.14.4.16.6.32.1.09.18.17.32.24.11.05.21.12.3.2Z" fill="#919397"/><path d="M10.16 11.65a9.46 9.46 0 0 0 1.12.8c.02.15.1.26.26.33l.1.06.17.1c0 .02-.01.03-.04.03l-.3-.14c-.46-.28-.9-.6-1.31-.95l-.02-.07s0-.02-.02-.03a.27.27 0 0 1-.07-.1v-.03c0-.01 0-.02.02-.03a.05.05 0 0 1 .06 0l.03.03Z" fill="#202527"/><path d="M11.75 12.72h-.11l-.02.01v.02c-.01.02 0 .05.03.09a.19.19 0 0 1-.1-.06l-.09-.13v-.01l.01-.01H11.56a.02.02 0 0 0 0-.03l-.27-.14a9.46 9.46 0 0 1-1.12-.8v-.02h.02a9.29 9.29 0 0 0 .33.25c.3.25.62.45.96.61.05.03.1.08.16.15l.03.02c.04 0 .07.02.09.05Z" fill="#919397"/></svg>