<!-- by TradingView --><svg width="18" height="18" viewBox="0 0 18 18" xmlns="http://www.w3.org/2000/svg"><path fill="url(#af3fktso4)" d="M0 0h18v18H0z"/><path d="m9 3 1.71 2.7-2.14 3.45a3.7 3.7 0 0 0-.43 1.65c0 .9.72 2.4 2.29 2.4.37 0 .71-.13 1.03-.33-.1.02-.21.03-.32.03a1.9 1.9 0 0 1-1.85-1.95A1.9 1.9 0 0 1 11.14 9 1.9 1.9 0 0 1 13 11.11l.01-.01c0 1.65-1.26 3.9-4 3.9-3.43 0-4-3.45-4-4.2 0-1.35.29-1.95 1.43-3.75L9 3Z" fill="url(#bf3fktso4)"/><path d="M8.25 11.48c.26.82.96 1.72 2.18 1.72.37 0 .71-.13 1.03-.33-.1.02-.21.03-.32.03a1.9 1.9 0 0 1-1.85-1.95A1.9 1.9 0 0 1 11.14 9 1.9 1.9 0 0 1 13 11.11l.01-.01c0 1.65-1.26 3.9-4 3.9-.45 0-.85-.06-1.2-.16l.45-3.36Z" fill="url(#cf3fktso4)"/><defs><linearGradient id="af3fktso4" x1="3.35" y1="3.12" x2="21.9" y2="24.43" gradientUnits="userSpaceOnUse"><stop stop-color="#1A1E21"/><stop offset="1" stop-color="#06060A"/></linearGradient><linearGradient id="bf3fktso4" x1="10" y1="4.5" x2="5.09" y2="12.54" gradientUnits="userSpaceOnUse"><stop stop-color="#2042AF"/><stop offset=".11" stop-color="#01AAE3"/><stop offset=".28" stop-color="#7DE53A"/><stop offset=".38" stop-color="#EEF4CA"/><stop offset=".51" stop-color="#F2DE05"/><stop offset="1" stop-color="#F0D804"/></linearGradient><linearGradient id="cf3fktso4" x1="12.86" y1="12.15" x2="8.28" y2="12.56" gradientUnits="userSpaceOnUse"><stop stop-color="#F51605"/><stop offset=".63" stop-color="#EA1C04"/><stop offset=".81" stop-color="#F36B07"/><stop offset="1" stop-color="#F1D904"/></linearGradient></defs></svg>