<!-- by TradingView --><svg width="18" height="18" viewBox="0 0 18 18" xmlns="http://www.w3.org/2000/svg"><path fill="url(#afuwh2bxz)" d="M0 0h18v18H0z"/><path d="M6 5H4v2h2V5Zm6 3h-2v2h2V8Zm-2 3h2v2h-2v-2Zm-1 0H7v2h2v-2Zm-5 0h2v2H4v-2Zm2-3H4v2h2V8Zm7-3h2v2h-2V5Zm-1 0h-2v2h2V5ZM7 5h2v2H7V5Z" fill="#fff"/><defs><linearGradient id="afuwh2bxz" x1="3.35" y1="3.12" x2="21.9" y2="24.43" gradientUnits="userSpaceOnUse"><stop stop-color="#1A1E21"/><stop offset="1" stop-color="#06060A"/></linearGradient></defs></svg>