<!-- by TradingView --><svg width="18" height="18" viewBox="0 0 18 18" xmlns="http://www.w3.org/2000/svg"><path fill="url(#a)" d="M0 0h18v18H0z"/><path d="M6.62 9.76v-.01a.02.02 0 0 1 0-.02h1.66l.02.01.01.03v1.76h-.02l-.41-.43a.03.03 0 0 0-.04 0l-.15.15-.14.12-.14.12-.16.1-.16.1-.16.07-.17.07-.18.06-.17.05-.18.03-.18.02-.19.01h-.18l-.18-.02-.18-.03-.18-.04-.18-.05-.27-.1-.27-.15-.17-.1-.16-.13-.15-.14-.14-.14-.14-.16-.12-.17-.11-.18-.1-.18-.09-.2-.07-.19-.06-.2-.05-.2-.03-.22L3 9.2 3 8.98v-.21l.03-.22.04-.21.05-.21.07-.21c.18-.5.47-.92.87-1.26l.15-.12.16-.11.17-.1.17-.09.22-.09.23-.07.23-.04.23-.03.24-.01.23.01.23.04.23.05.21.07.2.09.2.1.2.12c.16.11.38.32.66.62l2.84 3.02.18.19.15.13.15.1.16.1.08.03.12.04.12.03.12.03.12.01h.35l.12-.03.21-.06.2-.1.2-.12.17-.15.16-.17.13-.2.1-.2.08-.22.04-.13.02-.12.01-.13v-.39l-.03-.13-.03-.13-.03-.12-.05-.12-.05-.11-.06-.11-.07-.1-.07-.1-.08-.1-.09-.08-.1-.08-.1-.08-.1-.06-.1-.06-.11-.05-.11-.04-.12-.03-.12-.03c-.35-.05-.7 0-1.05.2-.14.07-.34.25-.6.53l-.66.71-.03.01h-.02l-.74-.8a.06.06 0 0 1-.02-.04.06.06 0 0 1 .02-.05l.67-.71c.26-.29.48-.49.67-.61.6-.4 1.25-.55 1.95-.43l.17.03.16.05.17.05.16.07.19.1.18.1.18.13.16.13.16.15.14.17.14.17.12.19.1.19.1.2.08.2.06.22.05.22.04.22.02.22v.23l-.02.24-.03.25-.06.25-.07.24c-.17.47-.43.87-.8 1.2l-.12.12-.14.1-.14.1-.14.08-.15.08-.15.07-.16.05-.15.05-.28.06-.29.03h-.28l-.29-.04-.28-.06-.27-.1-.27-.12-.26-.16c-.17-.1-.44-.37-.83-.78l-2.8-2.99-.1-.09-.09-.08-.1-.08-.1-.07-.11-.05-.11-.05-.11-.04-.12-.04-.14-.02-.13-.02h-.14l-.14.02-.14.02-.14.04-.13.04-.13.06-.13.07-.11.09-.11.09-.1.1-.1.1-.09.13-.07.12-.07.13-.05.11-.04.12-.03.12-.02.12-.02.13v.39l.02.08.02.13.04.13.04.13.05.12.06.12.07.11.08.11.08.1.1.1.1.08.1.08.1.07.12.06.12.05.11.04.13.03.18.03h.19a1.64 1.64 0 0 0 1.18-.55.04.04 0 0 0-.01-.04l-.4-.43Z" fill="url(#b)"/><defs><linearGradient id="a" x1="3.35" y1="3.12" x2="21.9" y2="24.43" gradientUnits="userSpaceOnUse"><stop stop-color="#1A1E21"/><stop offset="1" stop-color="#06060A"/></linearGradient><linearGradient id="b" x1="3" y1="9.24" x2="15" y2="9.24" gradientUnits="userSpaceOnUse"><stop stop-color="#BB09FD"/><stop offset="1" stop-color="#728CFF"/></linearGradient></defs></svg>