<!-- by TradingView --><svg width="18" height="18" viewBox="0 0 18 18" xmlns="http://www.w3.org/2000/svg"><path fill="#F0F3FA" d="M0 0h18v18H0z"/><path d="M3 5.1c1.62-.11 3.38-.13 5.3-.06.81.03 7.08.54 6.68 3.76-.2 1.56-2.5 2.65-3.17 2.92a16.73 16.73 0 0 1-6.15 1.26.13.13 0 0 1 0-.11c.01-.02.02-.02.03-.02.87-.04 1.73-.13 2.6-.27 1.12-.18 2.12-.48 3-.92a3.02 3.02 0 0 0 1.64-1.76c.52-1.68-1.34-2.88-1.79-3.13a11.12 11.12 0 0 0-3.6-1.27A23.84 23.84 0 0 0 3 5.16V5.1Z" fill="#E0144F"/><path d="M5.01 7.02c1.61-.04 2.66-.03 3.16.04.62.08.9.39.82.92a.94.94 0 0 1-.18.42c-.1.13-.22.23-.37.3l-.3.18-.02.03v.04s0 .02.02.02l.03.02c.42.06.66.28.59.74-.14.85-.7 1.28-1.67 1.26a273.22 273.22 0 0 0-3.03 0 .1.1 0 0 1-.06-.06.1.1 0 0 1 0-.05l.86-3.73c.01-.04.03-.07.06-.09a.16.16 0 0 1 .1-.04Zm.43 2.2-.04.02a.05.05 0 0 0-.02.04l-.27 1.08s0 .03.02.04l.04.02h1.65c.1 0 .2-.02.3-.04.1-.03.19-.07.26-.13a.6.6 0 0 0 .17-.18.43.43 0 0 0 .06-.21V9.8c0-.15-.08-.3-.23-.4a.98.98 0 0 0-.55-.17h-1.4Zm.4-1.67-.05.01a.06.06 0 0 0-.02.05l-.3.98c0 .02.01.03.03.05l.04.01h1.37c.11 0 .23-.01.34-.04.11-.02.21-.06.3-.1.08-.05.15-.11.2-.17a.32.32 0 0 0 .06-.2v-.1c0-.13-.1-.26-.27-.35-.17-.1-.4-.15-.64-.15H5.84Z" fill="#0167B1"/></svg>