<!-- by TradingView --><svg width="18" height="18" xmlns="http://www.w3.org/2000/svg"><path fill="#ED6E28" d="M0 0h18v18H0z"/><path d="M12.2 4H8.413c-.243 0-.37.14-.447.266l-.488.774c-.156.275-.572.424-.746.484l-1.018.335C5.17 5.984 5 6.355 5 6.626v6.415c0 .69.55.95.82.951 1.78.006 5.662.014 6.38 0 .595-.012.797-.573.797-.951.007-2.397 0-8.09 0-8.09 0-.685-.46-.951-.797-.951z" fill="#fff"/><path d="M11.721 6.053a.5.5 0 01.224.67L11 8.618v2.675l.85.844a.5.5 0 11-.704.71l-.852-.846H7.707l-.854.853a.5.5 0 01-.706-.708L7 11.294V8.707l-.854-.853a.5.5 0 11.708-.708L7.707 8h2.484l.86-1.723a.5.5 0 01.67-.224zM10 9H8v2.001h2V9z" fill="#ED6E28"/><path d="M6.968 4.315a.5.5 0 01-.279.65l-1.004.4a.5.5 0 01-.37-.93l1.004-.4a.5.5 0 01.65.28z" fill="#fff"/></svg>