<!-- by TradingView --><svg width="18" height="18" viewBox="0 0 18 18" xmlns="http://www.w3.org/2000/svg"><path fill="#F0F3FA" d="M0 0h18v18H0z"/><path d="M7.65 7.06c.06.02.12.03.17-.02L10.56 3l3.1 4.84c.63 1.34.27 2.7-.15 3.44a3.34 3.34 0 0 1-4.06 1.53L4 12.84l.2-.33 5.08.18c0-.19.01-.32.07-.56l-5.04.22.38-.54 4.7.2c.03-.2.1-.4.17-.58l-4.76.21.37-.53 4.48.18c.07-.18.2-.37.3-.53l-4.66.17.37-.51 4.42.17c.15-.2.3-.37.48-.53l-4.78.18.14-.2a5.63 5.63 0 0 1-.24-.36l5.11.21c.4-.31 1.2-.26 1.52.06l.16.1c.14.18.21.3.33.5.02.02.05.06.09 0 .08-.11.2-.32.25-.53l-.67.03-.16-.1h.85c.03-.2.03-.4.03-.58l-7.51.08a1.7 1.7 0 0 1-.08-.97c.21.3.83.54.97.52l6.59.22a1.77 1.77 0 0 0-.13-.55l-6.69.14a1.48 1.48 0 0 1-.29-.55l4.02.22-.59-.32h1.25c.26.03.27.32.48.32h1.7a1.3 1.3 0 0 0-.71-.6l-6.17.26a2.04 2.04 0 0 1 0-.69c.2.23.61.48.97.55-.03-.05-.22-.38-.15-.38l4.65.11c0-.1-.25-.5-.63-.54l-4.08.24c-.1-.36-.11-.57-.06-.96.29.31.63.51.92.6Z" fill="#CB2A2F"/></svg>