<svg width="160" height="160" viewBox="0 0 160 160" fill="none" xmlns="http://www.w3.org/2000/svg">
<g clip-path="url(#clip0_8192_2267)">
<rect width="160" height="160" rx="8" fill="url(#paint0_linear_8192_2267)"/>
<path d="M128.492 17.2739C128.5 17.2908 128.507 17.3071 128.515 17.3251C128.529 17.3564 128.545 17.3941 128.571 17.4478C128.014 18.0993 127.456 18.7496 126.898 19.3999L126.896 19.402C124.93 21.6927 122.965 23.9824 121.055 26.314C120.38 27.1312 119.68 27.9225 118.98 28.7131C117.797 30.0502 116.616 31.3856 115.56 32.841C114.765 33.9169 113.72 34.2914 112.403 34.2914C93.1012 34.2679 73.7995 34.2679 54.4976 34.2679C52.2268 34.2679 49.9332 34.4785 47.7532 35.0632C43.9609 36.0693 40.6683 38.0109 38.1024 41.2392C36.3084 43.4617 35.1957 45.9882 34.4009 48.655C33.9242 50.2693 33.7652 51.9771 33.7425 53.7316C33.4253 69.4779 33.4742 85.2148 33.5231 100.954C33.5513 110.001 33.5794 119.049 33.538 128.1C33.538 129.247 33.2882 130.159 32.4934 131.048C31.6551 131.993 30.828 132.945 30.0009 133.896C29.1707 134.851 28.3392 135.807 27.4976 136.756C25.6558 138.853 22.8535 142.111 20.745 144.561L19.7316 145.739C19.0276 146.558 18.3236 147.354 17.597 148.172H17.1428V44.2804C17.1428 42.3388 17.4153 40.4439 17.9376 38.5724C18.3464 37.1221 18.8686 35.4609 19.3228 34.455C20.867 31.0395 26.6576 21.6119 39.6237 18.056C41.0915 17.6557 42.6209 17.4246 44.0948 17.2018L44.3245 17.167H51.7972L51.9064 17.1431H128.433C128.461 17.2012 128.477 17.2393 128.492 17.2739Z" fill="white"/>
<path d="M50.1615 67.531C49.6845 67.0629 49.6392 66.4313 49.6392 65.7997V54.3368C49.8208 51.5997 50.8427 50.5704 53.522 50.5704H96.6448C96.6783 50.5704 96.7119 50.5702 96.7455 50.5698C96.7755 50.5696 96.8055 50.5692 96.8355 50.5688C97.4579 50.5609 98.0864 50.5529 98.4162 51.2956C98.8021 52.1378 98.4614 52.7929 97.9392 53.4245C97.1411 54.3651 96.3431 55.3033 95.5458 56.2407C93.8249 58.2641 92.1071 60.2838 90.4001 62.3142C89.31 63.6006 88.1975 64.8874 87.0621 66.1272C86.0855 67.2034 85.0183 67.765 83.4967 67.7415C76.8995 67.6977 70.3111 67.6995 63.7204 67.7013C59.7625 67.7023 55.8036 67.7034 51.8417 67.6946C51.7582 67.6982 51.6735 67.7034 51.5882 67.7087C51.1168 67.7379 50.6228 67.7686 50.1615 67.531Z" fill="white"/>
<path d="M64.4645 92.7263C65.7665 91.1979 68.166 88.3048 71.663 84.0472H54.4049C51.4528 84.0472 49.886 86.3632 49.8633 87.7201C49.833 90.3705 49.8431 93.0105 49.8532 95.654C49.8583 96.977 49.8633 98.3009 49.8633 99.6275C49.8633 103.815 53.3603 103.394 54.2914 103.113C55.5176 102.739 56.5169 102.06 57.3569 101.054C58.7601 99.3702 60.1878 97.7113 61.6156 96.0525C62.5676 94.9462 63.5197 93.84 64.4645 92.7263Z" fill="white"/>
</g>
<defs>
<linearGradient id="paint0_linear_8192_2267" x1="-1.19209e-06" y1="80" x2="160" y2="80" gradientUnits="userSpaceOnUse">
<stop stop-color="#742CCE"/>
<stop offset="1" stop-color="#1510A1"/>
</linearGradient>
<clipPath id="clip0_8192_2267">
<rect width="160" height="160" fill="white"/>
</clipPath>
</defs>
</svg>
