<svg width="160" height="160" viewBox="0 0 160 160" fill="none" xmlns="http://www.w3.org/2000/svg">
<g clip-path="url(#clip0_8926_19242)">
<rect width="160" height="160" fill="#114226"/>
<path d="M79.0972 82.1758C74.8586 84.5657 60.4525 91.3787 60.4525 101.116C60.4525 113.333 70.6289 118.915 79.9555 118.915C89.2827 118.915 99.5491 113.333 99.5491 101.116C99.5491 91.3871 84.9267 84.5834 80.787 82.1758C80.1636 81.8188 79.7207 81.8371 79.0972 82.1758ZM80.0823 22.8569C106.599 22.8569 122.071 39.9248 122.071 57.5368C122.071 65.9726 117.425 73.8018 109.925 79.1438C117.272 85.3767 122.857 91.9311 122.857 102.445C122.857 120.226 106.969 137.143 80.0732 137.143C53.1773 137.143 37.2713 121.662 37.1448 102.445C37.0183 91.9311 42.9469 85.3767 50.2222 79.1438C42.7661 73.8111 38.0667 65.9726 38.0667 57.5368C38.0667 39.9248 53.4576 22.8569 80.0732 22.8569H80.0823ZM79.2417 77.6099C79.8657 77.9666 80.3083 77.9843 80.932 77.6099C85.0623 75.2203 99.5582 68.4072 99.5582 58.6874C99.5582 46.4702 89.418 40.8791 80.0823 40.8791C70.7463 40.8791 60.6066 46.4792 60.6066 58.6874C60.6066 68.3979 75.0031 75.2287 79.2328 77.6099H79.2417Z" fill="#00FF6A"/>
</g>
<defs>
<clipPath id="clip0_8926_19242">
<rect width="160" height="160" rx="8" fill="white"/>
</clipPath>
</defs>
</svg>
