<svg width="160" height="160" viewBox="0 0 160 160" fill="none" xmlns="http://www.w3.org/2000/svg">
<g clip-path="url(#clip0_8192_2267)">
<rect width="160" height="160" rx="8" fill="url(#paint0_linear_8192_2267)"/>
<path d="M42.4134 112.015H49.2243C49.9034 112.015 50.456 111.462 50.456 110.783V67.607C50.456 64.0785 46.874 61.6816 43.6117 63.0265L33.0191 67.3873C31.1614 68.1531 29.9497 69.9573 29.9497 71.9679V99.5516C29.9497 106.429 35.5291 112.008 42.4066 112.008M62.2471 112.015H75.7826C76.4617 112.015 77.0143 111.462 77.0143 110.783V56.6682C77.0143 53.1396 73.4323 50.7428 70.17 52.0876L57.5866 57.2739C56.934 57.5405 56.5146 58.1796 56.5146 58.8785V106.276C56.5146 109.445 59.0846 112.015 62.2537 112.015M84.724 90.9296L102.767 83.4993C103.226 83.313 103.526 82.8602 103.526 82.3608V45.7559C103.526 42.2273 99.944 39.8305 96.6817 41.1753L84.0983 46.355C83.4457 46.6282 83.0263 47.2605 83.0263 47.9596V89.7845C83.0263 90.6565 83.9186 91.2559 84.724 90.923M123.093 81.7882L83.7854 97.9802C83.326 98.1668 83.0263 98.6193 83.0263 99.1188V100.63C83.0263 106.922 88.1263 112.022 94.418 112.022H117.587C124.471 112.022 130.044 106.442 130.044 99.5648V86.4422C130.044 82.8602 126.409 80.4302 123.093 81.7882ZM117.94 118.034H42.5797C35.902 118.034 30.4891 123.447 30.4891 130.124H130.031C130.031 123.447 124.618 118.034 117.94 118.034ZM123.2 30.2496L110.617 35.4362C109.964 35.7025 109.545 36.3416 109.545 37.0408V78.8656C109.545 79.7376 110.43 80.337 111.242 80.0039L123.207 75.0705C127.341 73.3662 130.044 69.3313 130.044 64.8573V34.8236C130.044 31.295 126.462 28.9048 123.207 30.243" fill="white"/>
</g>
<defs>
<linearGradient id="paint0_linear_8192_2267" x1="0" y1="160" x2="160" y2="0" gradientUnits="userSpaceOnUse">
<stop stop-color="#01FFBB"/>
<stop offset="1" stop-color="#0127DC"/>
</linearGradient>
<clipPath id="clip0_8192_2267">
<rect width="160" height="160" fill="white"/>
</clipPath>
</defs>
</svg>
