<svg width="160" height="160" viewBox="0 0 160 160" fill="none" xmlns="http://www.w3.org/2000/svg">
<g clip-path="url(#clip0_8926_19242)">
<rect width="160" height="160" fill="#490619"/>
<path d="M88.029 105.307H69.1513C66.8591 105.307 64.7408 104.079 63.5981 102.087L52.7526 83.2231C51.6099 81.2309 51.6099 78.7756 52.7526 76.7833L63.5981 57.9197C64.7408 55.9275 66.8591 54.6999 69.1513 54.6999H88.0223L103.011 28.6384C102.69 28.6116 102.376 28.5713 102.049 28.5713H57.9515C53.2939 28.5713 48.9904 31.0668 46.6582 35.1185L24.6063 73.456C22.2741 77.5078 22.2741 82.492 24.6063 86.5438L46.6582 124.881C48.9904 128.933 53.2939 131.428 57.9515 131.428H102.049C102.376 131.428 102.697 131.388 103.018 131.361L88.029 105.3V105.307Z" fill="#FF0044"/>
<path d="M135.394 73.4626L113.342 35.125C113.175 34.8434 112.981 34.5818 112.8 34.3135L97.8118 60.3748L107.254 76.7899C108.397 78.7823 108.397 81.2374 107.254 83.2298L97.8185 99.6381L112.807 125.699C112.988 125.431 113.181 125.176 113.342 124.894L135.394 86.557C137.726 82.5053 137.726 77.5211 135.394 73.4692V73.4626Z" fill="#28F981"/>
</g>
<defs>
<clipPath id="clip0_8926_19242">
<rect width="160" height="160" rx="8" fill="white"/>
</clipPath>
</defs>
</svg>
