<svg width="160" height="160" viewBox="0 0 160 160" fill="none" xmlns="http://www.w3.org/2000/svg">
<g clip-path="url(#clip0_8926_19242)">
<rect width="160" height="160" fill="#74A539"/>
<path d="M119.817 29.8777C109.937 21.9488 97.9285 17.1275 85.3093 16.0235C72.6897 14.9196 60.0264 17.5825 48.9205 23.6755C37.8146 29.7686 28.7649 39.0181 22.9158 50.2545C17.0668 61.4908 14.681 74.2093 16.0603 86.8016C17.4395 99.3936 22.5219 111.294 30.6646 120.998C38.8073 130.702 49.6447 137.773 61.8063 141.318C73.9678 144.862 86.9069 144.721 98.9885 140.911C111.069 137.102 121.75 129.795 129.678 119.915C140.308 106.667 145.24 89.7392 143.39 72.8545C141.541 55.97 133.061 40.5113 119.817 29.8777ZM125.837 116.828C118.517 125.946 108.659 132.69 97.5077 136.207C86.3557 139.723 74.412 139.854 63.1864 136.582C51.9608 133.31 41.9575 126.782 34.4415 117.826C26.9254 108.868 22.2342 97.884 20.961 86.2608C19.6879 74.6372 21.89 62.8975 27.2888 52.5258C32.6877 42.1541 41.0408 33.6163 51.292 27.9919C61.5432 22.3676 73.232 19.9093 84.8805 20.9281C96.5285 21.9467 107.613 26.3966 116.733 33.715C122.789 38.5746 127.828 44.5795 131.563 51.3868C135.297 58.1941 137.655 65.6704 138.501 73.3889C139.346 81.1072 138.663 88.9168 136.489 96.3712C134.317 103.826 130.697 110.778 125.837 116.834V116.828Z" fill="white"/>
<path d="M76.6576 40.405C76.6567 41.2625 76.9761 42.0895 77.5532 42.7238C78.1303 43.358 78.9236 43.7539 79.7775 43.8336V37.9644C76.6576 37.216 75.2397 36.2835 75.2397 33.6935C75.2252 32.4751 75.6951 31.3008 76.5459 30.4287C77.3967 29.5565 78.5591 29.0578 79.7775 29.0422V27.5811H80.9987V29.0632C83.3875 29.3497 84.7843 30.901 85.3603 33.449H83.4779C83.3963 32.8109 83.1115 32.2162 82.6651 31.7535C82.2179 31.2907 81.6339 30.9847 80.9987 30.8812V36.3267L82.3219 36.6862C83.2851 36.8794 84.1555 37.3903 84.7939 38.1372C85.4323 38.884 85.8019 39.8235 85.8427 40.8051C85.8427 43.6607 83.806 45.3861 80.9956 45.6096V47.4252H79.7775V45.6096C78.4364 45.5471 77.1703 44.9729 76.2399 44.0052C75.3094 43.0375 74.7852 41.7499 74.7754 40.4075L76.6576 40.405ZM79.7775 30.8121C79.4327 30.8164 79.0924 30.8898 78.7765 31.0279C78.4607 31.1659 78.1757 31.3659 77.9383 31.616C77.7011 31.8661 77.5163 32.1611 77.395 32.4839C77.2736 32.8065 77.2182 33.1502 77.2319 33.4947C77.2319 35.0657 78.2966 35.5523 79.7775 35.9957V30.8121ZM80.9987 43.8336C82.6579 43.7015 83.8547 42.9035 83.8547 41.0003C83.8547 39.3194 82.6195 38.7413 80.9987 38.2745V43.8336Z" fill="white"/>
<path d="M43.8997 109.04H45.1842C44.5178 108.012 44.1571 106.815 44.1443 105.589C44.1443 102.774 46.4909 101.088 49.1933 101.088C52.4477 101.088 54.4844 103.019 54.4177 106.804H52.5342C52.4638 104.26 51.4226 102.751 49.2995 102.751C48.9007 102.73 48.5017 102.789 48.1259 102.924C47.7501 103.059 47.4049 103.268 47.1105 103.537C46.816 103.808 46.5783 104.133 46.4111 104.496C46.2439 104.858 46.1505 105.251 46.1364 105.65C46.2279 106.858 46.6244 108.023 47.2887 109.036H50.8051V110.032H47.7742C48.0537 110.543 48.2058 111.113 48.2175 111.696C48.2175 113.688 46.9763 114.775 45.6461 115.858L45.6906 115.902C46.4102 115.521 47.2043 115.303 48.0175 115.261C48.7295 115.274 49.4363 115.387 50.1171 115.596C50.714 115.82 51.3409 115.953 51.9771 115.992C52.7071 115.94 53.4003 115.652 53.9533 115.172L54.9055 116.638C53.9798 117.346 52.8352 117.707 51.6708 117.659C50.9215 117.624 50.182 117.473 49.4786 117.212C48.7314 116.939 47.9467 116.78 47.1517 116.744C46.3508 116.761 45.5763 117.032 44.9396 117.519L43.8972 116.058C44.5937 115.644 45.1793 115.067 45.6038 114.377C46.0283 113.687 46.2788 112.904 46.334 112.096C46.2865 111.379 46.0985 110.678 45.7807 110.033H43.8997V109.04Z" fill="white"/>
<path d="M115.158 103.334C114.757 102.883 114.27 102.516 113.727 102.254C113.183 101.992 112.593 101.84 111.99 101.808C111.452 101.803 110.92 101.93 110.441 102.178C109.962 102.425 109.55 102.785 109.242 103.227C108.606 104.106 108.183 105.121 108.007 106.191H114.274L113.675 107.544H107.85C107.83 107.791 107.83 108.03 107.83 108.232C107.826 108.388 107.833 108.544 107.85 108.698H113.366L112.791 110.047H107.963C108.45 113.209 109.842 114.807 112.17 114.807C112.822 114.825 113.469 114.68 114.052 114.386C114.608 114.058 115.122 113.663 115.581 113.209V115.54C114.562 116.189 113.377 116.526 112.17 116.51C108.562 116.51 106.434 114.365 105.816 110.046H104.108L104.71 108.698H105.727C105.71 108.55 105.702 108.402 105.705 108.254C105.7 108.017 105.708 107.78 105.727 107.544H104.11L104.687 106.193H105.882C106.134 104.6 106.834 103.111 107.898 101.901C108.438 101.31 109.099 100.842 109.837 100.532C110.574 100.222 111.37 100.075 112.17 100.102C113.618 100.138 115.019 100.626 116.176 101.499L115.158 103.334Z" fill="white"/>
<path d="M40.1939 71.187H37.0716V69.8643H40.1939V68.9342L39.7974 68.2056H37.0716V66.8741H39.1107L35.0559 59.2339H37.4693L41.324 67.0508L45.0663 59.2339H47.3673L43.4285 66.8741H45.4887V68.2056H42.6974L42.2985 68.9342V69.8643H45.4875V71.187H42.2985V75.0392H40.1988L40.1939 71.187Z" fill="white"/>
<path d="M120.308 64.2779H119.002C118.668 64.2518 118.337 64.3575 118.081 64.5726C117.824 64.7876 117.663 65.0947 117.631 65.4278L116.943 68.4846H119.202L118.893 69.9877H116.677L115.46 76.8771C114.751 80.9046 113.708 82.0814 111.251 82.0814H109.787L110.099 80.4182C112.426 80.4182 112.803 80.1982 113.178 78.1591L114.727 69.9877H112.69L112.979 68.4846H114.994L115.569 65.4747C115.681 64.6598 116.091 63.9155 116.722 63.3868C117.352 62.8581 118.156 62.5827 118.978 62.6143H120.618L120.308 64.2779Z" fill="white"/>
<path d="M79.9032 51.0269C77.0876 51.0312 74.3004 51.5909 71.7015 52.6738C69.1024 53.7568 66.7426 55.3417 64.7569 57.3379C62.7713 59.3341 61.1989 61.7024 60.1297 64.3071C59.0606 66.9117 58.5157 69.7018 58.5263 72.5173C58.5263 80.0512 67.8721 89.9568 67.8721 94.8432V99.2288C67.8735 100.368 68.327 101.46 69.1332 102.266C69.9393 103.07 71.0321 103.523 72.1715 103.523H87.6361C88.7753 103.523 89.8681 103.07 90.6745 102.266C91.4801 101.46 91.9337 100.368 91.9353 99.2288V94.8352C91.9353 89.9504 101.281 80.0416 101.281 72.51C101.291 69.6949 100.745 66.9056 99.6753 64.3017C98.6057 61.6977 97.0329 59.3303 95.0473 57.3349C93.0617 55.3394 90.7025 53.7552 88.1033 52.6728C85.5049 51.5904 82.7185 51.031 79.9032 51.0269ZM79.9032 120.056C80.7489 120.058 81.5873 119.892 82.3697 119.568C83.1513 119.245 83.8617 118.77 84.4593 118.171H75.3481C75.9459 118.77 76.656 119.245 77.4376 119.568C78.2193 119.891 79.0572 120.058 79.9032 120.056ZM87.6361 105.235H72.1715C71.4968 105.25 70.8548 105.528 70.3828 106.01C69.9109 106.493 69.6466 107.141 69.6466 107.815C69.6466 108.49 69.9109 109.138 70.3828 109.621C70.8548 110.103 71.4968 110.382 72.1715 110.396H87.6361C87.9793 110.404 88.3217 110.342 88.6409 110.216C88.9609 110.09 89.2521 109.901 89.4977 109.661C89.7433 109.42 89.9385 109.134 90.0721 108.817C90.2049 108.499 90.2737 108.159 90.2737 107.815C90.2737 107.472 90.2049 107.131 90.0721 106.814C89.9385 106.498 89.7433 106.211 89.4977 105.97C89.2521 105.73 88.9609 105.541 88.6409 105.415C88.3217 105.289 87.9793 105.227 87.6361 105.235ZM87.6361 111.683H72.1715C71.4975 111.698 70.856 111.976 70.3845 112.458C69.9131 112.94 69.6491 113.587 69.6491 114.262C69.6491 114.936 69.9131 115.583 70.3845 116.065C70.856 116.547 71.4975 116.825 72.1715 116.84H87.6361C87.9793 116.847 88.3209 116.786 88.6401 116.66C88.9593 116.534 89.2505 116.345 89.4961 116.105C89.7417 115.865 89.9361 115.578 90.0697 115.262C90.2025 114.945 90.2713 114.605 90.2713 114.262C90.2713 113.918 90.2025 113.578 90.0697 113.262C89.9361 112.945 89.7417 112.658 89.4961 112.418C89.2505 112.178 88.9593 111.99 88.6401 111.863C88.3209 111.737 87.9793 111.676 87.6361 111.683Z" fill="white"/>
</g>
<defs>
<clipPath id="clip0_8926_19242">
<rect width="160" height="160" rx="8" fill="white"/>
</clipPath>
</defs>
</svg>
