<svg width="160" height="160" viewBox="0 0 160 160" fill="none" xmlns="http://www.w3.org/2000/svg">
<g clip-path="url(#clip0_8192_2267)">
<rect width="160" height="160" rx="8" fill="#00C1FF"/>
<path d="M48.437 125.669C49.7431 124.673 51.0492 123.767 52.3779 122.771C53.4363 121.978 55.6657 120.325 55.7107 120.257C101.47 85.2479 110.252 59.025 117.143 25.7144C96.5604 77.5939 65.5516 92.8339 48.955 103.907C38.3935 91.5205 34.5878 74.4462 40.4427 58.7533C44.9015 46.8194 54.0893 37.9879 65.2813 33.4363C49.0225 37.2633 35.0607 48.6084 28.8904 65.0712C20.5583 87.4218 29.1606 112.15 48.3695 125.714C48.3695 125.714 48.3695 125.714 48.437 125.646V125.669Z" fill="#09121D"/>
<path d="M129.459 91.4326C123.232 108.337 107.588 118.921 90.2176 119.837C101.164 103.379 126.291 74.1266 118.076 25.7144C115.475 65.9537 102.868 87.4132 72.7163 117.447C69.0893 121.02 65.2657 124.727 61.1362 128.635C60.7647 129.015 60.3714 129.35 60 129.729C60.8303 130.109 61.7261 130.444 62.5345 130.779C89.2562 141.051 118.709 127.987 128.367 101.66C130.53 95.7424 131.491 89.6909 131.425 83.7733C131.054 86.319 130.355 88.9093 129.459 91.455V91.4326Z" fill="#09121D"/>
</g>
<defs>
<clipPath id="clip0_8192_2267">
<rect width="160" height="160" fill="white"/>
</clipPath>
</defs>
</svg>
