<svg width="160" height="160" viewBox="0 0 160 160" fill="none" xmlns="http://www.w3.org/2000/svg">
<g clip-path="url(#clip0_8192_2267)">
<rect width="160" height="160" rx="8" fill="#F41112"/>
<path d="M117.143 34.2856H40V37.9268C48.8889 38.3251 51.4286 39.5388 51.4286 48.8505V111.557C51.4286 121.267 48.8701 122.073 40 122.481V125.714H82.8571V122.481C71.9516 122.073 69.8857 120.859 69.8857 111.557V82.8571H85.6288C97.3481 82.8571 103 83.7794 105.016 94.2856H108.571V62.8571H105.016C103.407 72.5668 100.169 74.2856 85.6288 74.2856H69.8857V45.6076C69.8857 41.9662 70.7 41.1602 75.1396 41.1602H88.8757C107.051 41.1602 110.28 44.1682 113.489 54.2856H117.124L117.143 34.2856Z" fill="white"/>
</g>
<defs>
<clipPath id="clip0_8192_2267">
<rect width="160" height="160" fill="white"/>
</clipPath>
</defs>
</svg>
