<svg width="160" height="160" viewBox="0 0 160 160" fill="none" xmlns="http://www.w3.org/2000/svg">
<rect width="160" height="160" rx="6" fill="#F0F3FA"/>
<path d="M26 99.3858V123C38.245 123 49.796 120.018 59.9592 114.788C65.796 111.765 71.1836 108.006 76 103.594C77.3878 102.327 78.7346 101.02 80.0407 99.6309C83.8777 95.5454 87.3062 91.0105 90.1225 86.1078C90.204 85.9854 90.2856 85.8627 90.3266 85.74C91.347 84.0241 92.449 82.3492 93.6327 80.7559C93.8368 80.5108 94 80.2655 94.204 80.0204C103.469 68.2132 117.837 60.6142 134 60.6142V37C121.755 37 110.245 39.9824 100.041 45.2119C94.204 48.2352 88.8164 51.9939 84.0001 56.4061C82.6123 57.6726 81.2654 58.98 80 60.3691C76.1223 64.4956 72.6938 69.0712 69.8367 73.9739C68.7754 75.8123 67.6326 77.5691 66.3672 79.2441C66.1632 79.4892 66 79.7753 65.796 80.0204C56.5307 91.7867 42.1633 99.3858 26 99.3858Z" fill="#2A54FF"/>
<path d="M134 99.3858V123C121.755 123 110.204 120.018 100.041 114.788C94.204 111.765 88.8164 108.006 84 103.594C82.6122 102.327 81.2654 101.02 79.9593 99.6309C76.1223 95.5454 72.6938 91.0105 69.8775 86.1078C69.796 85.9854 69.7144 85.8627 69.6734 85.74C68.653 84.0241 67.551 82.3492 66.3673 80.7559C66.1632 80.5108 66 80.2655 65.796 80.0204C56.5307 68.2132 42.1633 60.6142 26 60.6142V37C38.245 37 49.755 39.9824 59.9592 45.2119C65.796 48.2352 71.1836 51.9939 75.9999 56.4061C77.3877 57.6726 78.7346 58.98 80 60.3691C83.8777 64.4956 87.3062 69.0712 90.1633 73.9739C91.2246 75.8123 92.3674 77.5691 93.6328 79.2441C93.8368 79.4892 94 79.7753 94.204 80.0204C103.469 91.7867 117.837 99.3858 134 99.3858Z" fill="#2A54FF"/>
</svg>
