<svg width="160" height="160" viewBox="0 0 160 160" fill="none" xmlns="http://www.w3.org/2000/svg">
<g clip-path="url(#clip0)">
<rect width="160" height="160" rx="6" fill="#20222F"/>
<path d="M80.6448 57.4151C67.7955 57.4151 58.2409 66.5371 58.2409 79.9632C58.2409 93.4535 67.7955 102.576 80.6448 102.576C89.3428 102.576 96.657 98.4642 99.754 91.6548L125.716 106.237C121.288 113.97 114.798 120.392 106.934 124.824C99.07 129.257 90.1233 131.536 81.0401 131.419C74.0925 131.551 67.1894 130.31 60.7471 127.771C54.3048 125.232 48.4566 121.447 43.5553 116.645C38.654 111.843 34.8011 106.122 32.2288 99.8291C29.6566 93.5358 28.4183 86.7999 28.5887 80.0274C28.5887 50.9911 50.9926 28.5715 81.0401 28.5715C100.149 28.5715 117.216 38.4644 125.716 53.4965L99.8199 68.2716C98.0446 64.8423 95.2898 61.9867 91.8875 60.049C88.4853 58.1113 84.5809 57.2386 80.6448 57.4151Z" fill="white"/>
<path d="M109.096 88.0406C111.232 90.1809 114.121 91.3972 117.142 91.4287C123.34 91.4287 128.571 86.2284 128.571 79.9799C128.571 73.7718 123.38 68.5715 117.142 68.5715C110.945 68.5715 105.714 73.7718 105.714 79.9799C105.745 83.0066 106.959 85.9004 109.096 88.0406Z" fill="#C09C7C"/>
</g>
<defs>
<clipPath id="clip0">
<path d="M0 0H160V160H0V0Z" fill="white"/>
</clipPath>
</defs>
</svg>
