<svg width="160" height="160" viewBox="0 0 160 160" fill="none" xmlns="http://www.w3.org/2000/svg">
<rect width="160" height="160" rx="8" fill="#14964F"/>
<path fill-rule="evenodd" clip-rule="evenodd" d="M31.4285 80.2291C31.4285 54.0696 49.0295 37.1428 76.2561 37.1428C100.47 37.1428 116.51 49.4935 120.337 69.8425H134.286L131.535 77.28H121.171C121.204 78.0823 121.221 78.8944 121.221 79.7161C121.221 81.4235 121.146 83.0909 120.999 84.7163H132.083L129.196 92.1538H119.752C114.978 111.185 98.898 122.802 76.2561 122.802C48.4794 122.931 31.4285 106.645 31.4285 80.2291ZM94.6465 69.8425H82.5826L79.8324 77.28H95.3238C95.3545 78.1667 95.3697 79.0647 95.3697 79.9726C95.3697 81.5878 95.3313 83.1718 95.2504 84.7163H80.3803L77.4926 92.1538H94.4558C92.5504 103.3 87.4193 111.005 76.8061 111.005C62.7803 111.005 57.28 97.1558 57.28 79.9726C57.28 62.7894 61.6802 49.0685 75.8435 48.9403C86.9869 48.9403 92.7488 57.6011 94.6465 69.8425Z" fill="white"/>
</svg>
