<svg width="160" height="160" viewBox="0 0 160 160" fill="none" xmlns="http://www.w3.org/2000/svg">
<g clip-path="url(#clip0_6819_36771)">
<path d="M137.143 160H22.8571C10.2286 160 0 149.771 0 137.143V22.8571C0 10.2286 10.2286 0 22.8571 0H137.143C149.771 0 160 10.2286 160 22.8571V137.143C160 149.771 149.771 160 137.143 160Z" fill="#3D7F7A"/>
<path d="M160 80.8286C145.714 85.9714 130.429 91.7714 114.229 98.4V88.3429C129.829 84.4857 145.2 80.8857 160 77.5714V64.2286L114.229 24.5714V19.7429H107.057V23.0286L91.4571 24.9143V22.8857H84.2857V28.4C68.0571 91.2571 1.97143 113.857 1.31429 114.086V114.114C0.857143 114.257 0.428571 114.429 0 114.571V122.143C1.17143 121.714 2.34286 121.286 3.54286 120.857V120.886C3.85714 120.771 4.91429 120.429 6.6 119.771C28.9143 111.886 53.2857 104.514 78.0286 97.7714C55.6 122.686 25.2857 138.657 6.6 148.543C5.65714 149.057 4.8 149.486 3.94286 149.943C5.4 152.114 7.25714 154 9.34286 155.543C35.3143 141.686 60.5143 129.486 84.2857 118.943V160H91.4571V115.771C96.7429 113.457 101.943 111.229 107.057 109.086V160H114.229V106.114C130.4 99.4857 145.714 93.6 160 88.4286V80.8286ZM114.229 34.0571L156.829 70.9714C152.914 71.8571 148.971 72.7429 145 73.6571L114.229 46.9714V34.0571V34.0571ZM114.229 56.4286L136.4 75.6571C129.086 77.3714 121.686 79.1429 114.229 81V56.4286ZM84.2857 111.114C77.8857 113.943 71.3714 116.857 64.8 119.914C71.6 114.286 78.2286 108.029 84.2857 101.143V111.114ZM84.2857 88.6857C69.6 92.6 54.9714 96.7429 40.7429 101.086C56.4286 89.8286 73.5143 73.1714 84.2857 49.7143V88.6857ZM106.971 30.2571C106.857 33.5714 106.571 36.8 106.143 39.9429L96.4286 31.5143L106.971 30.2571ZM91.4571 36.6857L104.686 48.1714C102.057 59.9143 97.4286 70.5143 91.4571 80.0857V36.6857ZM107.057 101.343C101.914 103.486 96.7429 105.686 91.4571 107.971V94.1714C96.6571 92.8 101.886 91.4571 107.057 90.1429V101.343ZM107.057 82.7714C103.429 83.6857 99.8286 84.6 96.2 85.5429C100.457 79.0286 104.143 72.0286 107.057 64.5429V82.7714Z" fill="white"/>
</g>
<defs>
<clipPath id="clip0_6819_36771">
<rect width="160" height="160" fill="white"/>
</clipPath>
</defs>
</svg>
