<svg xmlns="http://www.w3.org/2000/svg" width="200" height="60" viewBox="0 0 200 60"><path fill="#5AB0CF" d="M118.32 8.08h-4.8l13.67 21.96L113.43 52h4.72l13.76-21.96z"/><path fill="#74777B" d="M147 8.08h-4.8l-9.78 15.25 2.45 3.67zm-14.59 28.66L142.29 52H147l-12.22-18.92zm-69.2.9h14.5l-1.6-3.38H64.72l7.93-19.76c0 .08 15.17 37.5 15.25 37.5 4.98 0 10.8.08 15.26-1.5 13.07-3.5 17.7-18.5 12.31-29.92-6.66-14-24.05-12.59-37.29-12.5l2.3 2.53c8.44.17 20.24.22 26.82 6.3 7.67 6.17 8.34 19.59 1.17 26.25-4.55 4.25-11.3 4.78-17.7 4.62l-16.2-39.7h-3.7C70.7 8.25 53 51.83 53 52h4.39z"/></svg>