<svg xmlns="http://www.w3.org/2000/svg" width="132" height="60" viewBox="0 0 132 60"><path fill="#5AB0CF" d="M80.8 12.06h-3.87l11.06 17.97L76.86 48h3.81L91.8 30.03z"/><path fill="#74777B" d="M104 12.06h-3.88L92.2 24.54l1.98 3zM92.2 35.52l8 12.48h3.8l-9.88-15.48zm-55.95.73h11.73l-1.3-2.76h-9.2l6.4-16.17c0 .06 12.27 30.68 12.34 30.68 4.02 0 8.72.07 12.33-1.23 10.57-2.86 14.32-15.14 9.96-24.48C73.12 10.84 59.06 12 48.36 12.06l1.86 2.08c6.82.13 16.36.18 21.68 5.15 6.2 5.05 6.74 16.03.95 21.48-3.68 3.48-9.13 3.91-14.32 3.77L45.45 12.06h-3A3971 3971 0 0 0 28 48h3.55z"/></svg>