<svg xmlns="http://www.w3.org/2000/svg" width="200" height="80" viewBox="0 0 200 80"><path fill="#FCD700" d="M44.19 59.99c5.35 0 10.48-2.1 14.27-5.86a19.9 19.9 0 0 0 0-28.27 20.3 20.3 0 0 0-28.55 0 19.9 19.9 0 0 0 0 28.27A20.3 20.3 0 0 0 44.2 60"/><path fill="#fff" d="M51.24 58.74a20.3 20.3 0 0 1-11.25.82V39.33c-5.06.42-4.9-4.28-4.9-4.28q1.86-1.44 3.14-3.4c1.19-1.85 4.43-2.46 4.43-2.46l-.77-2.35c1.65-.37 2.78 2.35 2.78 2.35v-3.13q1.36.44 1.75 1.02l.26.44c.56 1.15.61 2.56.61 2.56a7 7 0 0 1 3.36 5.44c0 1.61.44 17.57.59 23.22m27.57-6.64c.62 0 .79-.31 1.02-1.06l1.96-5.7h8.79l1.99 5.7c.24.75.48 1.06 1.1 1.06h.34c.81 0 2.04-.02 2.37-.14a.7.7 0 0 0 .4-.64q-.02-.52-.23-1.06l-6.9-19.96c-.59-1.7-.93-2.44-2.78-2.44h-.85c-2.04 0-2.51.81-3.1 2.51L75.9 50.33a3 3 0 0 0-.26 1.02c0 .23.08.5.43.61.37.1 2.16.14 2.74.14m10.84-10.13h-6.86c2.13-6.4 2.84-8.5 3.47-10.65.65 2.15 1.26 4.19 3.39 10.65m15.4 10.2c.63 0 .9-.17 1-.65a8 8 0 0 0 .14-1.54q.01-.66-.65-.78c-1-.16-1.68-.48-1.95-.94a4 4 0 0 1-.34-2.04V27.45c0-.58-.15-.88-.77-.88h-2.22c-.62 0-.83.33-.83.88v19.24c0 1.7.21 2.82.65 3.54.76 1.19 2.07 1.93 4.98 1.93m7.01 7.78c.62 0 .96-.2.96-.88v-7.18a9 9 0 0 0 3.3.54c5.62 0 8.33-1.76 8.33-9.27 0-6.67-2.19-8.6-7.2-8.6-2.5 0-5.56.54-6.94 1.15-.5.24-.95.54-1.12.99-.14.33-.17.88-.17 1.36v21c0 .72.23.89.78.89zm3.95-10.78q-1.27.03-2.48-.37c-.37-.14-.5-.38-.5-1.09v-8c0-.37 0-.67.1-.88q.12-.31.54-.5a9 9 0 0 1 3.37-.6c3.05 0 3.77 1.6 3.77 5.45 0 4.66-.92 5.98-4.8 5.98zm18.08 3.27c2.38 0 5.32-.44 6.66-.99q.67-.23 1.1-.79c.3-.37.37-.91.37-1.52v-8.81c0-2.3-.27-3.63-1.16-4.49-.96-.94-2.5-1.32-5.46-1.32-1.78 0-4.01.27-5.76.79-.42.13-.7.36-.7.88 0 .3.15 1.15.29 1.67q.14.51.65.53c.24 0 .93-.13 1.37-.2 1.2-.23 2.5-.38 3.6-.38 2.27 0 2.92.45 3.2 1.16.16.45.2 1.2.2 1.85v1.11q-1.65-.15-3.32-.13c-2.27 0-4.33.33-5.42 1.01-1.35.86-1.93 2.12-1.93 4.15 0 2.92 1.06 5.47 6.31 5.47zm.49-2.96c-2.58 0-3.16-1.06-3.16-2.62 0-.95.24-1.46.75-1.77.62-.4 1.69-.58 3.4-.58.96 0 2.17.07 2.88.14v2.65q.01.68-.14 1.16-.11.36-.58.58c-.61.23-1.68.44-3.15.44m19.31 2.95c1.65 0 3.47-.17 4.98-.71.41-.14.6-.37.6-.81a10 10 0 0 0-.35-1.67q-.17-.46-.6-.47c-.27 0-.7.1-.99.16-.99.2-1.92.3-3.22.3-3.33 0-4.15-1.92-4.15-5.77 0-3.47.62-5.68 4.43-5.68q1.58.01 2.6.24c.3.04.76.14 1.03.14q.47 0 .62-.5c.13-.53.34-1.6.34-1.95q.02-.52-.58-.75c-1.07-.3-2.54-.44-4.05-.44-6.08 0-8.24 2.92-8.24 9.25 0 6.62 2.75 8.66 7.59 8.66m13.97 0c2.37 0 5.32-.43 6.66-.98q.67-.23 1.1-.79c.31-.37.38-.91.38-1.52v-8.81c0-2.3-.28-3.63-1.17-4.49-.96-.94-2.5-1.32-5.46-1.32-1.78 0-4.01.27-5.76.79-.42.13-.7.36-.7.88 0 .3.15 1.15.29 1.67q.14.51.65.53c.24 0 .93-.13 1.37-.2 1.2-.23 2.5-.38 3.6-.38 2.27 0 2.92.45 3.2 1.16.17.45.2 1.2.2 1.85v1.11q-1.65-.15-3.32-.13c-2.27 0-4.33.33-5.42 1.01-1.35.86-1.93 2.12-1.93 4.15 0 2.92 1.06 5.47 6.31 5.47m.48-2.95c-2.57 0-3.15-1.06-3.15-2.62 0-.95.23-1.46.76-1.77.6-.4 1.68-.58 3.39-.58.96 0 2.16.07 2.88.14v2.65q.01.68-.13 1.16-.11.36-.6.58c-.6.23-1.67.44-3.15.44"/><path fill="#D8D8D8" d="M45.7 27.67c0 .9-.46 1.62-1.02 1.62-.55 0-1-.72-1-1.62s.45-1.61 1-1.61c.56 0 1.01.72 1.01 1.61m-10.51 7.57h-.05q-.08-.01-.06-.13v-.05c0-.06.03-.06.09-.1l.14-.09h.05l.01.12v.08c0 .18-.1.17-.18.17m6.68-8.41c-.18.06-.15.64.09 1.3.23.68.56 1.15.74 1.1.2-.07.16-.66-.08-1.32-.22-.66-.56-1.15-.75-1.1zm-.59 7.3h-1.22s.09-.75.68-.75h1.3s-.17.75-.76.75"/></svg>