<svg width="56" height="56" viewBox="0 0 56 56" xmlns="http://www.w3.org/2000/svg"><rect width="56" height="56" rx="8" fill="url(#ajab4phui)"/><path d="m21.93 47 1.59-16.64h-.15a4.9 4.9 0 0 1-3.27-1.27 5.27 5.27 0 0 1-1.8-3.21l2.99-1.93v-.03a5.08 5.08 0 0 1 4.89-5.09h.89v-3.1c.62 0 1.24.21 1.72.63.48.4.8.97.91 1.6h.04V15.7a2.67 2.67 0 0 1 2.27 4.04 5.8 5.8 0 0 1 2.61 4.83v20.09l.03.24c.06.29.23.47.3.55.33.35.77.41 1 .45.49.08.88-.04 1.1-.13A19.96 19.96 0 0 0 28.01 8a19.97 19.97 0 0 0-6.09 39Z" fill="#FCD72B"/><path d="M23.06 24.5c0-.13.08-.26.23-.35.14-.1.34-.15.53-.15H26c0 .26-.16.52-.43.7-.3.2-.66.3-1.06.3H23l.06-.5Z" fill="#FCD72B"/><defs><linearGradient id="ajab4phui" x1="10.42" y1="9.71" x2="68.15" y2="76.02" gradientUnits="userSpaceOnUse"><stop stop-color="#1A1E21"/><stop offset="1" stop-color="#06060A"/></linearGradient></defs></svg>