<svg width="230" height="100" viewBox="0 0 230 100" xmlns="http://www.w3.org/2000/svg"><path d="M48.84 73.68a23.84 23.84 0 1 0 0-47.68 23.84 23.84 0 0 0 0 47.68Z" fill="#FCD700"/><path d="M57.17 72.19a23.8 23.8 0 0 1-13.29.98V49.05c-5.97.5-5.78-5.11-5.78-5.11a16.33 16.33 0 0 0 3.7-4.05c1.41-2.2 5.24-2.93 5.24-2.93l-.91-2.8c1.95-.44 3.28 2.8 3.28 2.8v-3.74c1.07.36 1.76.76 2.07 1.22.11.17.2.35.3.53.67 1.37.73 3.05.73 3.05a8.4 8.4 0 0 1 3.96 6.48c0 1.93.52 20.96.7 27.69ZM89.73 64.27c.73 0 .93-.37 1.21-1.26l2.31-6.8h10.38l2.35 6.8c.28.9.57 1.26 1.3 1.26h.4c.96 0 2.41-.02 2.8-.16a.83.83 0 0 0 .48-.77c0-.41-.12-.82-.28-1.26l-8.15-23.8c-.69-2.02-1.1-2.91-3.28-2.91h-1.01c-2.4 0-2.96.97-3.65 3l-8.3 23.79c-.17.4-.3.85-.3 1.22 0 .28.09.6.5.73.44.12 2.55.16 3.24.16Zm12.8-12.08h-8.1c2.51-7.62 3.36-10.13 4.1-12.69.76 2.56 1.49 4.99 4 12.69Zm18.2 12.16c.73 0 1.05-.2 1.18-.77.08-.37.16-1.22.16-1.83 0-.52-.24-.85-.77-.93-1.18-.2-1.99-.57-2.31-1.13a5.05 5.05 0 0 1-.4-2.43V34.88c0-.69-.17-1.05-.9-1.05h-2.63c-.73 0-.98.4-.98 1.05v22.94c0 2.03.25 3.37.77 4.22.9 1.42 2.44 2.3 5.88 2.3Zm8.27 9.28c.73 0 1.13-.24 1.13-1.05v-8.56c.9.45 2.64.65 3.9.65 6.64 0 9.84-2.1 9.84-11.06 0-7.95-2.59-10.26-8.5-10.26-2.97 0-6.57.65-8.2 1.38-.6.29-1.13.65-1.33 1.18-.16.4-.2 1.05-.2 1.62v25.05c0 .85.28 1.05.93 1.05H129Zm4.66-12.85a8.33 8.33 0 0 1-2.92-.44c-.44-.17-.6-.45-.6-1.3V49.5c0-.44 0-.8.12-1.05.08-.24.32-.45.64-.6 1.02-.45 2.64-.7 3.98-.7 3.6 0 4.45 1.9 4.45 6.49 0 5.55-1.09 7.13-5.67 7.13Zm21.36 3.9c2.8 0 6.28-.53 7.86-1.18a2.76 2.76 0 0 0 1.3-.94c.36-.44.44-1.09.44-1.82v-10.5c0-2.75-.32-4.33-1.37-5.35-1.14-1.13-2.96-1.58-6.45-1.58-2.1 0-4.74.33-6.8.94-.5.16-.82.44-.82 1.05 0 .36.16 1.38.33 1.99.12.4.36.64.77.64.28 0 1.1-.16 1.62-.24 1.42-.28 2.96-.45 4.25-.45 2.68 0 3.45.53 3.77 1.38.2.53.25 1.42.25 2.2v1.33a39.72 39.72 0 0 0-3.93-.16c-2.68 0-5.11.4-6.4 1.21-1.59 1.02-2.28 2.52-2.28 4.95 0 3.48 1.26 6.52 7.46 6.52Zm.57-3.53c-3.04 0-3.73-1.26-3.73-3.12 0-1.14.28-1.75.89-2.11.73-.49 1.99-.7 4.01-.7 1.14 0 2.56.09 3.4.17v3.16c0 .53-.03 1.02-.16 1.38-.08.28-.32.53-.69.69-.72.28-1.98.53-3.72.53Zm22.81 3.52c1.95 0 4.1-.2 5.88-.85.49-.16.7-.44.7-.97 0-.4-.25-1.38-.41-1.99-.13-.36-.37-.56-.7-.56-.32 0-.84.12-1.17.2-1.17.24-2.27.36-3.8.36-3.94 0-4.91-2.3-4.91-6.89 0-4.13.73-6.77 5.23-6.77 1.25 0 2.27.13 3.08.29.36.04.89.16 1.21.16.37 0 .61-.2.73-.6.16-.62.4-1.91.4-2.32 0-.4-.2-.73-.68-.89-1.26-.36-3-.53-4.78-.53-7.18 0-9.73 3.49-9.73 11.03 0 7.9 3.24 10.33 8.96 10.33Zm16.5 0c2.8 0 6.28-.52 7.86-1.17a2.75 2.75 0 0 0 1.3-.94c.37-.44.45-1.09.45-1.82v-10.5c0-2.75-.33-4.33-1.38-5.35-1.14-1.13-2.96-1.58-6.45-1.58-2.1 0-4.74.33-6.8.94-.5.16-.82.44-.82 1.05 0 .36.17 1.38.33 1.99.12.4.36.64.77.64.28 0 1.1-.16 1.62-.24 1.42-.28 2.96-.45 4.25-.45 2.68 0 3.45.53 3.78 1.38.2.53.24 1.42.24 2.2v1.33a39.71 39.71 0 0 0-3.93-.16c-2.68 0-5.11.4-6.4 1.21-1.59 1.02-2.28 2.52-2.28 4.95 0 3.48 1.26 6.52 7.46 6.52Zm.57-3.52c-3.04 0-3.73-1.26-3.73-3.12 0-1.14.28-1.75.9-2.11.72-.49 1.98-.7 4-.7 1.14 0 2.56.09 3.4.17v3.16c0 .53-.03 1.02-.15 1.38-.08.28-.33.53-.7.69-.72.28-1.98.53-3.72.53Z" fill="#fff"/><path d="M50.62 35.15c0 1.07-.53 1.93-1.2 1.93-.65 0-1.18-.86-1.18-1.93 0-1.07.53-1.93 1.19-1.93.66 0 1.19.86 1.19 1.93Zm-12.41 9.02a.6.6 0 0 0-.05 0c-.07 0-.07-.07-.07-.15v-.06c0-.07.03-.08.1-.13l.17-.1H38.42l.01.14v.1c0 .21-.13.2-.22.2Zm7.9-10.03c-.22.07-.18.77.1 1.56.27.8.66 1.37.88 1.3.22-.08.18-.78-.1-1.57-.26-.79-.66-1.37-.88-1.3Zm-.7 8.7h-1.44s.1-.89.8-.89h1.54s-.2.9-.9.9Z" fill="#D8D8D8"/></svg>