<svg xmlns="http://www.w3.org/2000/svg" width="56" height="56" viewBox="0 0 56 56"><path d="M0 8a8 8 0 0 1 8-8h40a8 8 0 0 1 8 8v40a8 8 0 0 1-8 8H8a8 8 0 0 1-8-8V8z" fill="#51A6E1"/><path d="M45.31 20.6c-1.98 1.26-7.85 5.3-10.83 7.29a4.9 4.9 0 0 1-3.08.58c-.81-.17-1.6-.37-2.71-.37-1.1 0-2.21.2-3.03.37a4.9 4.9 0 0 1-3.07-.58c-2.98-1.98-8.86-6.03-10.84-7.3-.39-.25-.93-.1-1.09.04-.52.44-1.16 1-1.28 1.96-.02.18.1.65.41.97 1.56 1.63 8.32 7.23 10.63 10.32 1.24 1.66.97 3.28 1.29 4.52 2.11 8.14 9.79.27 14.37-4.29 2.38-2.37 9.42-8.83 11.2-10.55.31-.3.43-.79.4-.97-.11-.96-.76-1.52-1.27-1.96a1 1 0 0 0-.6-.17.93.93 0 0 0-.5.13" fill="#fff"/><path d="M24.06 22.1c0 2.77 2.04 5.02 4.56 5.02 2.51 0 4.55-2.25 4.55-5.02 0-2.77-2.04-5.02-4.55-5.02-2.52 0-4.56 2.25-4.56 5.02m22.89-2.92c-1.23 1.03.58 1.06.93 1.58.4.6.5 1.87 1.3 1.1.8-.78 2.59-3.5 2.05-4.36-.07-.13-.22-.18-.41-.18-1.13 0-3.87 1.86-3.87 1.86M5.93 17.5c-.53.86 1.25 3.58 2.05 4.35.8.78.9-.5 1.3-1.09.36-.52 2.17-.55.94-1.58 0 0-2.74-1.86-3.87-1.86-.2 0-.34.05-.42.18" fill="#fff"/></svg>