<svg width="200" height="80" viewBox="0 0 200 80" xmlns="http://www.w3.org/2000/svg"><circle cx="47.22" cy="39.99" r="15" fill="url(#astjyknol)"/><circle cx="47.22" cy="39.99" r="15" fill="url(#bstjyknol)"/><circle cx="47.22" cy="39.99" r="15" fill="url(#cstjyknol)"/><path d="M33.33 36.47c-.13-.23-.4-.3-.51-.32h-.11c.6-2.22 1.7-4.28 3.17-5.97a15.03 15.03 0 0 1 18.5-3.4l-.05.1c-.13.15-.35.42-.36.52-.02.13.25.37.4.46.16.09.33.65.33.8 0 .17-.21.25-.48.37-.27.11-.11.32-.32.36-.21.04-.29-.24-.3-.4 0-.15.2-.2.18-.35-.01-.14-.2.04-.28-.1-.07-.13.07-.25.16-.36.1-.1 0-.14-.09-.14-.08 0-.43.02-.44-.08-.01-.1-.02-.28.09-.34.1-.06.06-.2 0-.26-.07-.05-.38-.09-.52-.18-.14-.1-1.19.1-1.5.1-.32 0-.56-.13-.56.08 0 .2.14.24.38.26.23.02.3.76.34 1.02.06.26.45.45.54.51.1.07 0 .37.08.46.09.1.17.2.17.25 0 .06-.08.15-.13.2-.04.05-.16.06-.21.06.07.13.17.43 0 .52-.17.08-.15.16-.11.19l.32.18-.4.57c.01.14-.13.48-.76.75-.8.32-.7.77-.84.84-.12.06-.56 0-.72-.07-.15-.06-.28-.38-.54-.48-.2-.08-.14-.23-.09-.3-.03 0-.13.03-.32.2-.24.23-.4.07-.48.1-.07.03-.01.48.08.55.09.06.32.07.58 0 .27-.08.36.12.44.24.08.12-.05.25-.08.44-.03.2-.05.34.41.64.46.3.07 1.42-.2 1.54-.28.12-.5.6-.57.72-.06.13-.4.33-.5.47-.08.11-.03.17 0 .18-.07.15-.22.45-.31.5-.11.05-.17-.11-.22-.22-.04-.1-.37.07-.53.16-.2.1-.57.35-.48.48.12.17.21.45.2.5 0 .05-.25-.05-.39-.05s-.14-.24-.24-.45c-.08-.17.04-.25.1-.28-.01-.08-.1-.25-.38-.25-.34 0-.6-.39-.68-.49-.07-.1-.29-.08-.4-.08-.1 0-.18-.28-.26-.41-.07-.14-.43-.27-.52-.6-.08-.34-.28-.3-.44-.3-.15 0 .09.35.16.42.07.06-.07.67 0 .97.07.3-.07.81-.07 1.02 0 .17.39.86.58 1.19h.62c.18 0 1.13.73 1.25.85.1.1.1.5.1.69.08.23.8 1.18.58 1.4-.23.2-1.21-.33-1.4-.43h-.01c-.2-.07-.35-.2-.4-.39-.04-.2-.29-.27-.63-.58-.27-.25-.34-.86-.34-1.14a2.28 2.28 0 0 0-.86-1.14c-.63-.4-.7-1.18-.7-1.37-.02-.19-.12-.1-.5-.18-.31-.06-.36-.2-.35-.28a.78.78 0 0 0-.4.14c-.2.14-.3.51-.58.51-.28 0-.15-.08-.29-.09-.14-.01-.13.1-.34.1-.22 0-.27-.38-.15-.44.11-.06.08-.28 0-.37-.1-.09.02-.32-.12-.32-.14 0-.72.3-.82.1-.08-.29-.42-.4-.58-.42v.32c-.1.04-.33.12-.48.2-.19.08-.53.46-.72.73a.5.5 0 0 1-.51.2c.16.11.46.4.34.55-.12.15-.15.48-.15.62l-.93 1.99-.42.26c-.05-.02-.15-.09-.15-.19v-.43c0-.06-.27-.4-.42-.69-.15-.28-.42-.58-.45-.81-.02-.23-.41-.46-.55-.67-.14-.22.1-.96 0-1-.1-.06-.03-.2-.12-.29-.09-.09-.19-.17-.34-.47Z" fill="url(#dstjyknol)"/><path d="M54.49 30.17a.9.9 0 0 0 .14.1c0-.05.01-.18.07-.34.07-.2.16 0 .28-.2.12-.2-.17-.19 0-.38s-.05-.26.25-.35c.3-.1.33.16.2.21-.12.06-.16.23-.02.23.13 0 .69-.41.75-.55.07-.13 0-.66.1-.75.1-.08 1.08.67 1.14 1.02.06.34-.55.49-.8.49-.24 0-.13-.2-.25-.21-.13-.01-.19.17-.05.21.14.04.07.24-.14.35-.2.1-.1.35-.34.44-.25.09-.05-.3-.05-.51 0-.22-.2-.11-.4-.1-.21 0-.1.4-.2.44-.07.04-.11-.1-.14-.24-.02-.15-.18.18-.17.32.02.14.3.2.25.24-.06.04-.18.32-.18.55 0 .22.07.24 0 .28-.08.03-.2.35-.3.1-.1-.24 0-.17.07-.33s-.12-.22-.28-.34c-.17-.1-.12-.24-.14-.5-.02-.26-.15-.08-.11-.18.04-.1.2-.08.32 0Z" fill="url(#estjyknol)"/><path d="M53.15 34.9c.03.03.1.12.1.2l-.03.13c-.03.11-.06.25-.01.33l.06.08c.06.1.13.19.05.24-.07.04-.12.01-.17-.01-.04-.02-.07-.03-.1-.02-.07.03-.15.3 0 .41l.03.02c.16.12.46.32.46.48 0 .09-.07.15-.13.2-.06.05-.11.1-.1.16.04.12.35.24.44.23h.03c.1-.02.2-.03.16-.1l-.05-.06c-.07-.1-.2-.26-.18-.43.02-.21.12-.1.14-.03.02.07.13.29.18.26.02 0 .04-.04.05-.08.04-.08.08-.18.19-.18.17 0 .25.05.25.19l-.03.12c-.03.1-.06.18.1.26.1.06.13.04.16.02.02-.02.04-.03.11.03.06.04.12.13.2.24.16.23.37.5.53.44.24-.1.23-.15.15-.27l-.01-.02c-.07-.11-.14-.22-.04-.29.11-.07.3-.21.1-.4-.2-.17-.5-.06-.62.04-.06.05.01.12.1.18.07.06.14.12.13.18-.02.13-.17.08-.23.05-.02 0-.07-.05-.12-.11-.09-.1-.2-.22-.27-.24-.13-.03.02-.27.17-.27.16 0-.37-.47-.51-.47-.06 0-.1.03-.14.07-.06.04-.11.1-.22.07-.18-.04-.42-.23-.37-.45.03-.15.14-.18.21-.2.04-.02.08-.03.09-.05.02-.07.08-.74.02-.79-.02-.02-.05 0-.07 0-.04.02-.08.04-.14 0-.05-.03-.06-.1-.07-.18-.02-.1-.03-.2-.14-.2-.1 0-.1.03-.12.06 0 .04-.02.07-.1.07h-.12c-.11 0-.18 0-.12.1Zm-5.08 10.3c.05-.17.18-.4.23-.48.1-.05.36-.1.68.14.13.09.2.14.25.16l.07.05v.17c0 .27.28.3.6.25.22-.02.3-.18.4-.33a.62.62 0 0 1 .12-.19c.15-.16.16-.4-.08-.4-.23 0-.83-.24-.89-.63-.04-.26-.55-.68-.9-.98-.18-.15-.33-.26-.37-.32-.06-.1-.02-.1.02-.13.05-.01.1-.04.1-.13 0-.12-.05-.2-.08-.25l-.04-.08c.02-.06.63-.42.8-.3.14.11.27.11.31.1a.46.46 0 0 1 .38-.52c.24-.04.33-.16.44-.3.1-.11.2-.24.4-.36.29-.18.31-.13.34-.07.01.03.03.07.1.07.2 0 .19-.5.19-.72v-.05c0-.2.84-.7 1.13-.7.14 0 .54.54.97 1.13.5.69 1.03 1.43 1.25 1.43.32 0 .73-.28.9-.43.09 0 .26.06.24.3-.03.3-.1.27-.3.13-.2-.14-.34 0-.47.2-.12.2-.32.24-.52.1-.2-.16-1.08-.3-1.38-.3-.24 0-.32.13-.33.2l.07.62c-.14.1-.45.34-.55.56.4.09.39.35.34.35-.05 0-1.17.66-.91.84.13.08.12.25.11.4 0 .13-.01.24.11.24.14 0 .22-.15.29-.3.05-.1.1-.21.18-.21.18 0 .36.4.43.62.07.23.14.22.26.16.09-.04.01-.16-.06-.27l-.06-.11c-.05-.12.06-.79.28-.8.2-.02.63.27.7.5.03.13-.08.27-.17.39-.07.1-.12.17-.05.18.12.03.2.25.21.36a.94.94 0 0 1-.3.13.87.87 0 0 1-.13-.03c-.15-.04-.37-.1-.42-.06a.9.9 0 0 1-.47.23c-.12 0-.2-.08-.27-.16l-.07-.07c-.1-.09-.15 0-.17.1-.01.07-.39.27-.57.36-.02-.05-.1-.16-.27-.16s-.25.15-.26.23c-.13-.1-.48-.3-.83-.3-.27 0-.3.1-.3.16-.02.04-.02.07-.08.07l-.16.02c-.08.02-.15.03-.22-.02a.65.65 0 0 0-.3-.1c.04-.06.12-.2 0-.2-.1 0-.22.13-.3.21l-.1.09a.4.4 0 0 1-.14-.05c-.12-.04-.28-.11-.38-.11h-.12c-.14.02-.28.04-.3-.13 0-.12.1-.2.2-.27s.19-.13.22-.23Zm-8.13-4.81c.2-.03.22.11.22.19l.34.19c.15.07.47.1.8.11l.12.01c.3.02.57.25.67.36.1.01.33.06.52.2.12.1.11.18.1.27-.01.08-.02.17.11.25.15.08.17.07.23.04.05-.02.1-.04.26-.04.2 0 .22.08.24.15.02.05.03.1.13.1.11 0 .13-.1.15-.2.01-.08.02-.15.1-.15.07 0 .22.17.38.37.19.22.4.47.52.47l.23-.01a.9.9 0 0 1 .36 0c.16.07.2.24.1.24-.09 0-.16.29 0 .3a.3.3 0 0 0 .26-.16c.2.12.6.37.53.41-.08.05-.05.22.08.33.05.05.1.14.13.24.07.16.14.33.28.27.22-.1.15-.54 0-.67-.16-.13-.2-.17-.05-.22.12-.03.18.02.2.05.15-.03.45-.06.49.08a1 1 0 0 1-.1.63c-.08.18 0 .55.1.77.1.22-.1.8-.4 1.02-.27.19-.44.01-.62-.18l-.1-.11c-.16-.15-.19-.08-.22-.01 0 .03-.02.06-.05.07-.07.04-.27-.19-.55-.5l-.14-.15a5 5 0 0 0-1.18-.82l-.15-.09c-.23-.12-.31-.3-.38-.45a.5.5 0 0 0-.1-.18c-.1-.1-.11-.1-.16-.08h-.08c-.12 0-.6-.31-.79-.49-.1-.1-.1-.24-.1-.34 0-.1 0-.17-.05-.18h-.05c-.15-.03-.46-.08-.75-.3a.94.94 0 0 1-.3-.37c-.04-.06-.05-.1-.1-.1-.1-.01-.64-.37-.96-.6-.16-.12-.28-.16-.37-.2-.1-.03-.17-.05-.21-.14-.08-.17.06-.34.3-.38Zm15.1-3.78c-.14-.09-.12-.14-.1-.2l.01-.1c.03-.14.18-.1.22.06.03.1.07.17.1.21l.02.06c0 .03-.05.09-.25-.03Zm-1.03 1c-.03.05-.03.16.12.22.03.2.08.45.2.4.1-.05.36-.33.25-.63-.08-.24-.42-.1-.57 0Zm.63.59c0-.16.12-.32.17-.37.13 0 .14.04.15.1.01.04.02.1.08.15.07.07.16.1.23.12.07.03.13.05.13.1 0 .07-.12.04-.23.02l-.18-.02c-.06 0-.05.06-.05.13s0 .15-.08.15c-.14.02-.23-.19-.22-.38Zm.35.6c-.05.11-.19.36-.35.42-.2.07-.13.13 0 .2.14.07.27-.05.4-.16a.47.47 0 0 0 .11-.21c.03-.1.05-.17.12-.15.08.02.08.03.09.06 0 .02 0 .04.04.08l.04.04.02.03-.02.04a.88.88 0 0 0-.04.07l-.05.08c-.05.08-.09.12.05.22.19.14.27.17.39.17.05 0 .06.02.06.05.01.04.02.1.14.15.22.08.3.09.28-.14-.02-.23-.14-.46-.28-.5-.1-.02-.08-.05-.04-.09a.55.55 0 0 0 .04-.04l.02-.02c.05-.07.1-.12.18-.06.1.08.36.25.45.22.1-.04-.06-.26-.22-.36-.15-.1-.06-.23.03-.32.08-.08.09-.1-.08-.11-.13-.02-.16-.12-.2-.2a.45.45 0 0 0-.04-.1c-.06-.09-.34-.07-.39.09-.03.1-.08.1-.13.11a.12.12 0 0 0-.09.04c-.04.02-.05.11-.07.2-.02.1-.04.19-.09.19-.02 0-.05-.03-.08-.06-.06-.08-.15-.17-.29.06Zm.67 3.78a.33.33 0 0 1 .28-.22c.13 0 .15.21.17.4v.07c.02.2-.12.22-.17.1-.02-.04-.08-.08-.13-.11-.1-.06-.2-.12-.15-.24Zm.53-1.6c-.05 0-.14.04-.08.18.05.1 0 .2-.06.27-.03.05-.06.1-.06.14 0 .06.1.1.19.14.09.04.18.07.18.13s-.02.09-.04.11a.21.21 0 0 0-.05.15c0 .16.1.15.26.05.16-.1.27-.54.11-.68l-.06-.05c-.12-.1-.17-.14 0-.26.2-.14.2-.3-.05-.32-.21-.01-.32.08-.34.13Zm.68 1.17c-.1.07-.29.26-.23.42.06.15.32.17.52.19l.2.02c.06.03.06.06.05.1 0 .04 0 .09.05.14.11.1.28.14.4.17.06 0 .1-.04.16-.1.1-.1.21-.21.4-.16.3.09.8.34.8.65 0 .17-.07.29-.14.39-.05.09-.1.16-.08.24 0 .04.02.08.03.1.02.1.04.16-.11.26-.08.05-.11.13-.15.2-.05.12-.1.24-.31.23h-.07c-.32-.01-.59-.02-.55-.48 0-.14.02-.26.04-.35.03-.24.05-.34-.15-.4a1.14 1.14 0 0 1-.4-.3.88.88 0 0 0-.24-.2l-.05-.03c-.18-.08-.4-.19-.71.15l-.35.38c-.36.37-.78.81-.87 1.04l-.1.27c-.07.23-.12.41-.3.41h-.1c-.16 0-.23 0-.23.13 0 .09.06.12.12.14.05.03.1.05.08.1-.02.14-.45.58-.68.61l-.15.02c-.22.04-.5.08-.63.08-.16 0-.45.3-.36.4.08.1.13.22.04.22-.05 0-.09-.05-.13-.1-.04-.05-.08-.1-.11-.07-.07.05-.07.19-.07.31 0 .07.02.1.03.15a.3.3 0 0 1 .04.15c0 .06-.05.11-.1.17-.05.06-.1.13-.08.22 0 .07.04.1.08.12.06.05.13.1.14.3v.07c0 .27.01.39.36.59.12.07.2.1.27.12.16.06.2.08.2.38 0 .33.05.45.11.58l.05.1c.06.13.04.18.02.25a.5.5 0 0 0-.02.14c0 .08.03.1.07.15.04.05.1.1.15.24l.06.14c.08.2.13.3.45.29.38-.01.47-.25.5-.43v-.1c0-.11 0-.16.25-.09.3.1.62.08.91-.2a.63.63 0 0 0 .2-.38c.02-.1.03-.17.12-.23.2-.15.83-.1 1 0 .13.08.27.28.33.37.03.07.07.24 0 .36.77-.71 2.52-2.66 3.33-4.72l-.34-.22a.5.5 0 0 0-.37-.27c-.09-.02-.17-.04-.22-.13-.04-.08-.07-.1-.1-.13-.06-.04-.1-.07-.11-.32a1.7 1.7 0 0 0-.14-.79c-.12-.25-.04-.48.57-.38.6.1 1.4-.22 1.44-.44.05-.21.07-.43-.16-.6a.63.63 0 0 1-.22-.34 1.62 1.62 0 0 0-.14-.3c-.13-.21-.26-.15-.35-.11-.03.01-.06.03-.08.01-.05-.05-.58-.34-.77-.3-.07.03-.09.07-.1.11-.04.08-.08.16-.38.1-.49-.1-.87 0-1.13.09-.13.05-.1.16-.05.28.03.1.07.19 0 .24-.1.1-.16.02-.24-.08-.03-.04-.07-.1-.12-.13l-.03-.03c-.14-.12-.2-.18-.36-.1h-.03c-.14.07-.16.07-.26-.05-.1-.1-.31-.07-.4-.03Z" fill="url(#fstjyknol)"/><path d="M32.65 36.37c-4.56.93-7.43 2.3-7.43 3.8 0 2.82 9.86 5.1 22.03 5.1 12.17 0 22.03-2.28 22.03-5.1 0-1.52-2.9-2.89-7.5-3.82l.1.43c4.17.87 6.78 2.1 6.78 3.47C68.66 42.87 59 45 47.08 45c-11.92 0-21.58-2.13-21.58-4.75 0-1.4 2.73-2.66 7.07-3.53l.08-.35Z" fill="#F9A01B"/><path d="M32.59 36.66c-4.42.88-7.2 2.15-7.2 3.56 0 2.64 9.75 4.78 21.78 4.78 12.02 0 21.76-2.14 21.76-4.78 0-1.4-2.72-2.66-7.07-3.53l.11.53c3.91.72 6.34 1.74 6.34 2.85 0 1.24-2.98 2.35-7.65 3.08a79.88 79.88 0 0 1-13.5 1.05 74.43 74.43 0 0 1-15.8-1.52c-2.46-.55-4.17-1.22-4.8-1.95a1.87 1.87 0 0 1-.09-.08c-.2-.21-.22-.35-.22-.43 0-.04 0-.08.02-.14 0-1.11 2.37-2.11 6.2-2.84l.12-.58Z" fill="#F6D30B"/><path d="M43.78 54.6c-3.32 3.45-6.1 5.21-7.4 4.38-2.38-1.52.97-10.98 7.46-21.14C50.33 27.7 57.5 20.68 59.88 22.2c1.3.84.88 4.09-.86 8.54l-.25-.33c1.58-4.1 1.98-7.06.8-7.81-2.22-1.42-9.18 5.52-15.56 15.5-6.37 9.97-9.74 19.2-7.52 20.62 1.2.77 3.8-.91 6.93-4.2l.36.08Z" fill="#F9A01B"/><path d="M43.46 54.53c-3.18 3.34-5.8 5.05-7.02 4.28-2.22-1.43 1.17-10.72 7.58-20.75 6.42-10.04 13.42-17.02 15.65-15.6 1.2.76.77 3.8-.87 7.98l-.37-.43c1.52-3.72 1.98-6.34 1.03-6.95-1.04-.67-3.56 1.2-6.65 4.7a78.32 78.32 0 0 0-8.1 10.73 73.08 73.08 0 0 0-7.22 14.19c-.8 2.21-1.12 3.9-.87 4.83 0 .06.02.11.03.17.08.27.18.38.25.42.03.02.07.04.14.05.95.6 3.1-.9 5.81-3.79l.6.17Z" fill="#F6D30B"/><path d="M52.29 54.1c3.39 3.31 6.18 4.96 7.45 4.1 2.32-1.59-1.36-11.02-8.22-21.07S37.22 20.22 34.9 21.8c-1.26.86-.76 4 1.04 8.3l.27-.3c-1.68-3.98-2.16-6.85-1.03-7.62 2.15-1.47 9.35 5.35 16.1 15.22 6.73 9.87 10.45 19.07 8.3 20.53-1.15.79-3.75-.8-6.95-3.96l-.34.13Z" fill="#F9A01B"/><path d="M52.58 53.99c3.25 3.22 5.9 4.83 7.08 4.03 2.19-1.49-1.54-10.75-8.31-20.68-6.78-9.93-14.05-16.77-16.23-15.28-1.15.79-.66 3.73 1.06 7.8l.37-.4c-1.6-3.62-2.12-6.17-1.2-6.8 1.02-.7 3.58 1.1 6.78 4.5a79.54 79.54 0 0 1 8.55 10.64 74.44 74.44 0 0 1 7.43 13.33l.33.84c.84 2.15 1.2 3.8 1 4.73 0 .07-.01.13-.03.19-.06.28-.16.39-.22.43a.38.38 0 0 1-.15.06c-.92.62-3.11-.8-5.9-3.6l-.56.21Z" fill="#F6D30B"/><path d="M159.1 27.31c-.37 0-.56.1-.56.3v5.1c0 .72.35 1.22 1.03 1.49.7.26 1.72.39 3.06.39 1.33 0 2.34-.13 3.03-.4.7-.26 1.05-.76 1.05-1.47v-5.1c0-.2-.26-.31-.77-.31v-.3h4.1v.3c-.4 0-.6.1-.6.3v5.02c0 .67-.16 1.23-.45 1.67a3 3 0 0 1-1.3 1.04 7.2 7.2 0 0 1-2.19.52c-.85.1-1.85.14-2.98.14s-2.13-.05-3-.14a7.14 7.14 0 0 1-2.16-.52 3.01 3.01 0 0 1-1.3-1.04c-.3-.44-.44-1-.44-1.67v-5.01c0-.2-.24-.31-.72-.31v-.3h4.2v.3Zm-29.27 3.45a4.2 4.2 0 0 0 1.46-.22c.41-.15.62-.44.62-.87s-.2-.73-.62-.87c-.4-.15-.88-.23-1.46-.23h-5.52v2.2h5.52ZM120.4 36v-.31c.64 0 .96-.1.96-.3v-7.77c0-.2-.32-.31-.96-.31V27h9.13c1.66 0 2.97.2 3.92.62.95.4 1.43 1.08 1.43 2.05 0 .97-.48 1.66-1.43 2.07-.95.4-2.26.6-3.92.6h-5.21v3.04c0 .2.27.31.83.31v.3h-4.75Zm-26.74-3.5-2.33-3.17-2.6 3.18h4.93ZM83.2 35.7a.9.9 0 0 0 .56-.22c.14-.13.28-.27.41-.43l5.13-6.65.33-.42c.1-.12.16-.23.16-.32 0-.11-.06-.2-.19-.24a2.3 2.3 0 0 0-.42-.1V27h4.69v.3c-.13.03-.26.06-.4.11-.12.03-.19.11-.19.24 0 .1.03.18.09.27.07.1.17.21.3.36l5.77 6.96c.09.13.2.22.36.28l.55.17v.3h-4.88v-.3c.08 0 .17-.02.28-.05.11-.04.17-.09.17-.16 0-.11-.08-.26-.22-.44l-1.06-1.27H87.9l-1 1.22c-.18.24-.27.4-.27.51 0 .13.17.19.52.19v.3h-3.93v-.3Z" fill="#fff"/><path fill="#EC1C24" d="M109 30h3v3h-3zm35 0h3v3h-3z"/><path d="M172.22 41v.14c-.04 0-.09 0-.12.02-.04.01-.06.04-.06.1 0 .02.03.1.1.21l.25.39a40.17 40.17 0 0 1 .55.83l.85-1.23.1-.14a.18.18 0 0 0 .03-.1c0-.03-.02-.06-.07-.07a.55.55 0 0 0-.13-.01V41H175v.14l-.1.01a.24.24 0 0 0-.12.06.68.68 0 0 0-.12.12 3.4 3.4 0 0 0-.14.21l-1.24 1.83v1.36c0 .09.05.13.17.13V45h-1.16v-.14c.05 0 .08 0 .11-.03a.13.13 0 0 0 .05-.1v-1.36l-1.41-2.05a.4.4 0 0 0-.16-.13.4.4 0 0 0-.18-.05V41h1.52Zm-3.48 3.73c0 .09.05.13.16.13V45h-1.12v-.14c.03 0 .06 0 .08-.03a.13.13 0 0 0 .05-.1v-3.04h-1.2a.26.26 0 0 0-.14.04c-.04.03-.06.07-.06.15h-.13V40.8h.13c0 .07.02.12.06.14.05.03.09.05.13.05h3.24c.05 0 .09-.02.13-.05.04-.02.06-.07.06-.14h.13v1.07h-.13c0-.08-.02-.12-.06-.15a.22.22 0 0 0-.13-.04h-1.2v3.04Zm-4.54.13c.12 0 .19-.04.19-.13v-3.46c0-.09-.07-.13-.2-.13V41h1.22v.14c-.13 0-.2.04-.2.13v3.46c0 .09.07.13.2.13V45h-1.22v-.14Zm-4.64-1.12.08.04c0 .05 0 .09.03.12.03.06.1.12.2.18a2.56 2.56 0 0 0 1.83.2c.13-.04.24-.1.33-.16.1-.07.14-.16.14-.28 0-.11-.04-.2-.13-.25a.88.88 0 0 0-.34-.12c-.13-.03-.3-.04-.47-.05a22.2 22.2 0 0 1-1.09-.11 1.6 1.6 0 0 1-.47-.17 1.1 1.1 0 0 1-.34-.34 1.12 1.12 0 0 1-.12-.56c0-.15.03-.3.1-.46.07-.14.18-.28.33-.4.14-.1.33-.2.55-.27a3.3 3.3 0 0 1 1.95.07l.35.13c.1.04.18.06.24.06.07 0 .12-.01.15-.04l.09.06-.5.93-.08-.03a.43.43 0 0 0-.06-.17.58.58 0 0 0-.2-.17 1.49 1.49 0 0 0-.31-.16 2.26 2.26 0 0 0-.4-.1 2.04 2.04 0 0 0-1.06.06.69.69 0 0 0-.23.14.28.28 0 0 0-.1.2c0 .13.05.22.13.28.1.06.2.1.34.13s.3.05.47.06l.55.04c.19.02.36.04.54.08.18.04.34.1.47.18a.9.9 0 0 1 .34.33 1 1 0 0 1 .13.55c0 .26-.07.47-.2.63-.13.17-.3.3-.5.4-.2.09-.42.15-.65.19a4.98 4.98 0 0 1-1.34 0 3.18 3.18 0 0 1-.76-.25.41.41 0 0 0-.19-.06c-.03 0-.07.02-.1.06l-.1-.06.4-.9Zm-3.36-.96c.18 0 .33-.01.44-.04a.8.8 0 0 0 .28-.12c.07-.05.12-.1.15-.18a.6.6 0 0 0 0-.44.44.44 0 0 0-.15-.19.72.72 0 0 0-.28-.11 1.76 1.76 0 0 0-.44-.05h-1.26v1.13h1.26Zm.2-1.78c.23 0 .44.02.63.07.19.04.35.1.49.2.13.1.24.22.31.37s.11.33.11.55c0 .33-.1.59-.28.76-.2.18-.45.3-.77.36l.97 1.45c.03.05.07.08.12.09l.13.01V45h-1.37v-.14c.05 0 .08 0 .11-.02.04-.01.05-.04.05-.06a.16.16 0 0 0-.03-.08 1.74 1.74 0 0 0-.08-.14l-.8-1.19h-1.05v1.36c0 .04.02.08.05.1.03.02.09.03.17.03V45h-1.26v-.14c.14 0 .21-.04.21-.13v-3.46c0-.09-.07-.13-.21-.13V41h2.5Zm-3.79.82c0-.05-.02-.1-.06-.12-.04-.03-.11-.04-.22-.04H150v.93h1.4c.1 0 .17 0 .23-.03.05-.03.08-.1.08-.22h.13v1.18h-.13c0-.12-.03-.2-.08-.22a.41.41 0 0 0-.23-.05H150v1.04h2.4a.3.3 0 0 0 .18-.05.17.17 0 0 0 .07-.15h.14v1.04h-.13c0-.08-.03-.12-.08-.13h-3.57v-.15l.09-.03a.13.13 0 0 0 .04-.1v-3.44c0-.05-.01-.08-.04-.1a.12.12 0 0 0-.1-.04V41h3.33c.1 0 .18 0 .22-.04a.17.17 0 0 0 .06-.14h.13v1h-.13Zm-4.48-.68c-.1 0-.17.03-.21.11l-.1.18-1.29 2.95a8.16 8.16 0 0 1-.15.38c0 .02 0 .04.02.06l.05.04V45h-1.12v-.14c.04-.02.07-.05.07-.1a8.98 8.98 0 0 0-.19-.45l-1.32-2.98a.25.25 0 0 0-.1-.12.96.96 0 0 0-.19-.07V41h1.3v.14a.2.2 0 0 0-.1.03c-.02.01-.04.05-.04.1s.02.12.06.2l.15.33.94 2.09.9-2.06a13.84 13.84 0 0 1 .25-.57c0-.08-.07-.12-.2-.12V41h1.27v.14Zm-6.59 3.72c.13 0 .19-.04.19-.13v-3.46c0-.09-.06-.13-.2-.13V41h1.22v.14c-.13 0-.19.04-.19.13v3.46c0 .09.06.13.19.13V45h-1.21v-.14Zm-5.7 0c.1 0 .16-.04.16-.13v-3.46c0-.09-.06-.13-.16-.13V41h1.25v.14c-.04 0-.06.02-.06.07 0 .04.05.11.15.22l2.1 2.26v-2.42c0-.09-.07-.13-.2-.13V41h1.1v.14c-.09 0-.13.04-.13.13v3.46c0 .09.04.13.13.13V45H139v-.14c.07 0 .1-.02.1-.07 0-.03-.04-.09-.12-.17l-2.22-2.42v2.53c0 .09.05.13.16.13V45h-1.08v-.14Zm-4.31-3.72c-.11 0-.17.04-.17.13v2.27c0 .32.1.54.3.66.2.11.49.17.86.17.38 0 .67-.06.86-.17.2-.12.3-.34.3-.66v-2.27c0-.09-.07-.13-.22-.13V41h1.17v.14c-.11 0-.17.04-.17.13v2.23c0 .3-.04.55-.13.74-.08.2-.2.35-.37.47-.16.11-.37.19-.62.23a5.23 5.23 0 0 1-1.7 0 1.48 1.48 0 0 1-.61-.23 1.07 1.07 0 0 1-.37-.47c-.09-.2-.13-.44-.13-.74v-2.23c0-.09-.07-.13-.2-.13V41h1.2v.14Zm-4.63 3.3h-.09a.7.7 0 0 0-.21.08 5.04 5.04 0 0 1-.98.4 3.23 3.23 0 0 1-1.55-.04 1.88 1.88 0 0 1-1.26-1 1.92 1.92 0 0 1-.2-.87 1.9 1.9 0 0 1 .7-1.5c.22-.17.47-.3.75-.38a3.43 3.43 0 0 1 1.55-.07 5.84 5.84 0 0 1 1.06.31c.02 0 .04 0 .05-.03l.05-.06.1.09-.56.9-.08-.05v-.05l-.01-.05c0-.05-.06-.1-.14-.16-.1-.06-.2-.12-.33-.16a3.02 3.02 0 0 0-.8-.16c-.21 0-.4.03-.6.1a1.3 1.3 0 0 0-.94 1.26c0 .2.04.4.13.56a1.32 1.32 0 0 0 .81.68c.2.06.39.1.6.1a2.45 2.45 0 0 0 1.3-.4c.1-.07.15-.14.15-.2a.14.14 0 0 0-.03-.1l.1-.05.48.79-.06.06Zm-6.59.42c.13 0 .2-.04.2-.13v-3.46c0-.09-.07-.13-.2-.13V41h1.21v.14c-.12 0-.19.04-.19.13v3.46c0 .09.07.13.2.13V45h-1.22v-.14Zm-.98-3.03c0-.05-.03-.1-.07-.12-.04-.03-.1-.04-.21-.04h-2.36v.94h1.42c.1 0 .18-.01.23-.03a.15.15 0 0 0 .08-.14h.13v1.09h-.13c0-.12-.03-.19-.08-.22a.4.4 0 0 0-.23-.05h-1.42v1.47c0 .04.02.08.05.1.05.02.1.03.16.03V45h-1.24v-.14c.13 0 .2-.04.2-.13v-3.44c0-.1-.07-.14-.2-.14V41h3.39c.1 0 .17 0 .21-.03a.17.17 0 0 0 .07-.14h.13v1h-.13Zm-6.05 3.03c.13 0 .2-.04.2-.13v-3.46c0-.09-.07-.13-.2-.13V41h1.21v.14c-.12 0-.19.04-.19.13v3.46c0 .09.07.13.2.13V45h-1.22v-.14Zm-1.26-.42h-.08a.7.7 0 0 0-.22.08 5.04 5.04 0 0 1-.98.4 3.23 3.23 0 0 1-1.55-.04c-.29-.08-.54-.2-.75-.37a1.87 1.87 0 0 1-.7-1.5 1.9 1.9 0 0 1 .7-1.5c.21-.17.46-.3.75-.38a3.43 3.43 0 0 1 1.55-.07 5.84 5.84 0 0 1 1.05.31c.02 0 .04 0 .06-.03l.04-.06.11.09-.57.9-.07-.05v-.05l-.02-.05c0-.05-.05-.1-.14-.16-.09-.06-.2-.12-.33-.16a3.02 3.02 0 0 0-.8-.16c-.2 0-.4.03-.6.1a1.3 1.3 0 0 0-.94 1.26c0 .2.05.4.13.56a1.32 1.32 0 0 0 .82.68c.19.06.38.1.59.1a2.45 2.45 0 0 0 1.3-.4c.1-.07.15-.14.15-.2a.14.14 0 0 0-.03-.1l.1-.05.48.79-.05.06Zm-6.72-.99-.6-1.42-.7 1.42h1.3Zm-2.74 1.41a.2.2 0 0 0 .14-.1.68.68 0 0 0 .11-.19l1.35-2.95a2.93 2.93 0 0 0 .13-.33c0-.05-.02-.09-.05-.1a.42.42 0 0 0-.11-.05V41h1.23v.14a.45.45 0 0 0-.1.04c-.03.02-.05.05-.05.1s0 .09.02.13l.08.16 1.52 3.1c.02.05.06.1.1.12l.14.07V45h-1.28v-.14c.02 0 .04 0 .07-.02.03-.01.04-.04.04-.07a.49.49 0 0 0-.06-.2l-.27-.57h-1.78l-.27.55a.65.65 0 0 0-.07.23c0 .06.05.08.14.08V45h-1.03v-.14Zm-1.9-2.19a.8.8 0 0 0 .4-.1c.12-.06.18-.2.18-.38 0-.2-.06-.33-.18-.4a.8.8 0 0 0-.4-.09H99.1v.97h1.56ZM98 45v-.14c.18 0 .27-.04.27-.13v-3.46c0-.09-.09-.13-.27-.13V41h2.57c.47 0 .83.1 1.1.27.27.18.4.49.4.92 0 .43-.13.73-.4.92-.27.17-.64.26-1.1.26H99.1v1.36c0 .09.08.13.23.13V45H98Zm-4.87-1.55-.61-1.42-.69 1.42h1.3Zm-2.75 1.41a.2.2 0 0 0 .15-.1.67.67 0 0 0 .1-.19L92 41.62a3.08 3.08 0 0 0 .13-.33c0-.05-.02-.09-.05-.1a.42.42 0 0 0-.11-.05V41h1.23v.14a.45.45 0 0 0-.1.04c-.03.02-.05.05-.05.1s0 .09.02.13l.08.16 1.52 3.1c.02.05.05.1.1.12l.14.07V45H93.6v-.14c.02 0 .05 0 .08-.02.03-.01.04-.04.04-.07a.49.49 0 0 0-.06-.2L93.4 44h-1.78l-.27.55a.66.66 0 0 0-.07.23c0 .06.05.08.14.08V45h-1.04v-.14Zm-2.05 0c.12 0 .19-.04.19-.13v-3.46c0-.09-.07-.13-.2-.13V41h1.22v.14c-.13 0-.2.04-.2.13v3.46c0 .09.07.13.2.13V45h-1.21v-.14Zm-4.63-1.12.07.04c0 .05.01.09.03.12.03.06.1.12.2.18a2.48 2.48 0 0 0 1.13.3c.08 0 .19 0 .32-.02a1.37 1.37 0 0 0 .71-.24c.1-.07.14-.16.14-.28 0-.11-.04-.2-.13-.25a.89.89 0 0 0-.33-.12c-.14-.03-.3-.04-.48-.05a22.09 22.09 0 0 1-1.09-.11c-.17-.03-.33-.1-.47-.17a1.1 1.1 0 0 1-.34-.34 1.12 1.12 0 0 1-.12-.56c0-.15.03-.3.1-.46.08-.14.19-.28.33-.4.15-.1.33-.2.56-.27a3.3 3.3 0 0 1 1.95.07l.34.13c.1.04.18.06.24.06.07 0 .12-.01.15-.04l.09.06-.5.93-.08-.03a.42.42 0 0 0-.06-.17.59.59 0 0 0-.2-.17c-.08-.06-.19-.11-.3-.16a2.29 2.29 0 0 0-.4-.1 2.03 2.03 0 0 0-1.07.06.69.69 0 0 0-.23.14.27.27 0 0 0-.09.2c0 .13.04.22.13.28.08.06.2.1.33.13.14.03.3.05.48.06l.54.04c.19.02.37.04.54.08.18.04.34.1.48.18a.9.9 0 0 1 .33.33 1 1 0 0 1 .13.55c0 .26-.06.47-.2.63-.13.17-.3.3-.5.4-.2.09-.41.15-.65.19a4.97 4.97 0 0 1-1.34 0 3.19 3.19 0 0 1-.76-.25.41.41 0 0 0-.19-.06c-.03 0-.06.02-.1.06l-.1-.06.4-.9Zm-2.95-.29-.61-1.42-.69 1.42h1.3ZM78 44.86a.2.2 0 0 0 .15-.1c.03-.05.07-.11.1-.19l1.35-2.95a3.08 3.08 0 0 0 .14-.33c0-.05-.02-.09-.05-.1a.42.42 0 0 0-.11-.05V41h1.23v.14a.45.45 0 0 0-.1.04c-.04.02-.05.05-.05.1s0 .09.02.13l.08.16 1.52 3.1c.02.05.05.1.09.12l.15.07V45h-1.29v-.14c.02 0 .05 0 .07-.02a.08.08 0 0 0 .05-.07.49.49 0 0 0-.06-.2l-.28-.57h-1.78l-.26.55a.66.66 0 0 0-.07.23c0 .06.04.08.14.08V45H78v-.14Zm93.17 5.04c.08 0 .11-.04.11-.1v-2.6c0-.06-.03-.1-.1-.1V47h.98v.1c-.03 0-.04.02-.04.06 0 .03.03.08.11.16l1.67 1.7V47.2c0-.07-.06-.1-.16-.1V47h.88v.1c-.07 0-.11.04-.11.1v2.6c0 .06.04.1.1.1v.1h-.93v-.1c.05 0 .08-.02.08-.05 0-.03-.03-.07-.1-.14l-1.76-1.8v1.88c0 .07.04.1.13.1V50h-.86v-.1Zm-2.84-2.38a1.5 1.5 0 0 0-.84.26 1 1 0 0 0-.28.3.81.81 0 0 0-.11.43c0 .16.03.3.1.42.08.12.18.23.3.31a1.45 1.45 0 0 0 .83.26 1.5 1.5 0 0 0 .84-.26c.12-.08.21-.19.29-.31a.8.8 0 0 0 .1-.42.8.8 0 0 0-.1-.42 1.28 1.28 0 0 0-.68-.5 1.5 1.5 0 0 0-.45-.07Zm0-.52a2.33 2.33 0 0 1 1.25.37c.18.12.33.28.45.47.12.19.17.41.17.67 0 .26-.05.48-.17.67-.12.19-.27.34-.45.47a1.9 1.9 0 0 1-.6.27 2.62 2.62 0 0 1-1.3 0 1.89 1.89 0 0 1-.6-.27 1.53 1.53 0 0 1-.45-.47 1.3 1.3 0 0 1-.17-.67 1.3 1.3 0 0 1 .62-1.14c.18-.12.38-.21.6-.27.22-.07.44-.1.65-.1Zm-3.76 2.9c.1 0 .15-.04.15-.1v-2.6c0-.06-.05-.1-.15-.1V47h.96v.1c-.1 0-.15.04-.15.1v2.6c0 .06.05.1.15.1v.1h-.96v-.1Zm-1.98-.1c0 .06.04.1.13.1v.1h-.9v-.1c.03 0 .06-.01.08-.03a.1.1 0 0 0 .03-.07v-2.27h-.96a.22.22 0 0 0-.1.03c-.03.02-.05.05-.05.1h-.1v-.79h.1c0 .05.02.09.05.1a.2.2 0 0 0 .1.03h2.58c.03 0 .06 0 .1-.02a.12.12 0 0 0 .05-.1h.1v.79h-.1c0-.06-.02-.1-.06-.11a.18.18 0 0 0-.1-.03h-.95v2.27Zm-3.71-.96-.49-1.06-.54 1.06h1.03Zm-2.19 1.06c.06-.01.1-.03.12-.08a1 1 0 0 0 .09-.14l1.07-2.22a2.12 2.12 0 0 0 .1-.24c0-.04 0-.07-.04-.08a.34.34 0 0 0-.08-.04V47h.98v.1a.37.37 0 0 0-.09.04c-.02 0-.04.03-.04.08l.02.09.06.12 1.21 2.32a.2.2 0 0 0 .08.09l.11.06v.1h-1.02v-.1c.02 0 .04 0 .06-.02a.05.05 0 0 0 .03-.05.35.35 0 0 0-.04-.15l-.22-.42h-1.42l-.2.4a.47.47 0 0 0-.06.17c0 .05.03.07.1.07v.1h-.81v-.1Zm-.31-2.8a.19.19 0 0 0-.17.09.94.94 0 0 0-.07.13l-1.03 2.22a5.86 5.86 0 0 1-.12.28l.01.04.04.04v.1h-.89v-.1a.08.08 0 0 0 .06-.08 8.59 8.59 0 0 0-.15-.34L153 47.25a.19.19 0 0 0-.08-.09.78.78 0 0 0-.15-.06V47h1.04v.1a.11.11 0 0 0-.08.03c-.03 0-.04.03-.04.07 0 .04.02.1.05.16l.12.24.74 1.57.73-1.55a7.64 7.64 0 0 1 .19-.43c0-.06-.06-.09-.16-.09V47h1v.1Zm-6.05.42a1.5 1.5 0 0 0-.84.26 1 1 0 0 0-.28.3.81.81 0 0 0-.11.43c0 .16.03.3.1.42.08.12.18.23.3.31a1.45 1.45 0 0 0 .83.26 1.5 1.5 0 0 0 .84-.26c.12-.08.21-.19.29-.31a.8.8 0 0 0 .1-.42.8.8 0 0 0-.1-.42 1.28 1.28 0 0 0-.68-.5 1.5 1.5 0 0 0-.45-.07Zm0-.52a2.33 2.33 0 0 1 1.25.37c.18.12.33.28.45.47.12.19.17.41.17.67 0 .26-.05.48-.17.67-.12.19-.27.34-.45.47a1.9 1.9 0 0 1-.6.27 2.62 2.62 0 0 1-1.3 0 1.89 1.89 0 0 1-.6-.27 1.53 1.53 0 0 1-.45-.47 1.3 1.3 0 0 1-.17-.67 1.3 1.3 0 0 1 .62-1.14c.18-.12.38-.21.6-.27.22-.07.44-.1.65-.1Zm-6.29 2.9c.07 0 .1-.04.1-.1v-2.6c0-.06-.03-.1-.1-.1V47h.99v.1c-.03 0-.05.02-.05.06 0 .03.04.08.12.16l1.66 1.7V47.2c0-.07-.05-.1-.15-.1V47h.88v.1c-.08 0-.11.04-.11.1v2.6c0 .06.03.1.1.1v.1h-.93v-.1c.05 0 .07-.02.07-.05 0-.03-.03-.07-.09-.14l-1.77-1.8v1.88c0 .07.05.1.14.1V50h-.86v-.1Zm-4.56 0c.07 0 .1-.04.1-.1v-2.6c0-.06-.03-.1-.1-.1V47h.99v.1c-.03 0-.05.02-.05.06 0 .03.04.08.12.16l1.66 1.7V47.2c0-.07-.05-.1-.15-.1V47h.87v.1c-.07 0-.1.04-.1.1v2.6c0 .06.03.1.1.1v.1H142v-.1c.04 0 .07-.02.07-.05 0-.03-.03-.07-.1-.14l-1.76-1.8v1.88c0 .07.05.1.13.1V50h-.85v-.1Zm-2.04 0c.1 0 .15-.04.15-.1v-2.6c0-.06-.05-.1-.15-.1V47h.96v.1c-.1 0-.15.04-.15.1v2.6c0 .06.05.1.15.1v.1h-.96v-.1Zm-4.59-2.48a.61.61 0 0 0-.35.1c-.09.05-.13.15-.13.28 0 .13.04.23.13.3.1.05.22.08.35.08a.6.6 0 0 0 .34-.09c.1-.06.15-.16.15-.29 0-.13-.05-.23-.15-.29a.59.59 0 0 0-.34-.1Zm-.75 1.63c0 .1.02.17.06.24.04.07.1.12.17.16a.6.6 0 0 0 .23.1l.25.02a.71.71 0 0 0 .41-.13c.06-.03.1-.08.14-.12.04-.05.06-.1.07-.15a.92.92 0 0 1-.13-.23 1.23 1.23 0 0 0-.09-.2.42.42 0 0 0-.14-.15.5.5 0 0 0-.26-.06c-.09 0-.17 0-.25.03a.79.79 0 0 0-.23.09.48.48 0 0 0-.17.16.42.42 0 0 0-.06.24Zm2.7.95c-.15 0-.28 0-.38-.02-.1-.03-.2-.06-.28-.1a1.15 1.15 0 0 1-.2-.12l-.16-.14-.26.19a.99.99 0 0 1-.5.18 2.75 2.75 0 0 1-.76-.03 1.29 1.29 0 0 1-.4-.15.96.96 0 0 1-.28-.28.7.7 0 0 1-.12-.4.8.8 0 0 1 .06-.32.7.7 0 0 1 .17-.24.88.88 0 0 1 .25-.17l.3-.11v-.01a.72.72 0 0 1-.3-.2.5.5 0 0 1-.13-.34c0-.13.03-.24.1-.33a.76.76 0 0 1 .24-.23 1 1 0 0 1 .33-.13 1.62 1.62 0 0 1 .74 0 .94.94 0 0 1 .58.36c.06.1.1.2.1.33s-.04.25-.12.35a.53.53 0 0 1-.25.18c.06.03.1.08.13.12a2.06 2.06 0 0 1 .14.27l.07.11a2.14 2.14 0 0 1 .79-.73l.05-.03c.02 0 .02-.02.02-.04h.06v.87h-.06a.4.4 0 0 0-.04-.08c-.01-.03-.04-.05-.08-.05a.2.2 0 0 0-.14.06 1.33 1.33 0 0 0-.27.44c.06.07.12.13.2.19.07.05.15.08.21.08s.09-.01.1-.05a.27.27 0 0 0 .02-.11h.06V50Zm-8.06-3v.1c-.03 0-.06 0-.1.02-.03 0-.04.03-.04.07l.08.16a16.42 16.42 0 0 1 .43.63c.09.1.15.2.2.29l.68-.92a6.44 6.44 0 0 1 .1-.18c0-.03-.02-.05-.05-.06a.47.47 0 0 0-.1 0V47h1.01v.1l-.09.01a.19.19 0 0 0-.08.04.52.52 0 0 0-.1.1l-.11.15-.99 1.38v1.01c0 .07.05.1.14.1V50h-.92v-.1c.04 0 .07-.01.09-.03a.1.1 0 0 0 .03-.08v-1.01l-1.11-1.54a.31.31 0 0 0-.13-.1.33.33 0 0 0-.14-.04V47h1.2Zm-2.23.94-.12-.03.02-.07c0-.06-.04-.1-.11-.15a1.95 1.95 0 0 0-.63-.19 3.13 3.13 0 0 0-.37-.02c-.14 0-.29.02-.43.06-.14.04-.26.1-.38.18-.1.09-.2.2-.26.32-.07.13-.1.3-.1.48s.03.34.1.48c.07.13.16.23.26.32.12.08.24.14.38.18.14.04.29.06.43.06a3.13 3.13 0 0 0 1.04-.17v-.48h-.74c-.05 0-.1 0-.12.03-.03.02-.05.07-.05.15h-.1v-.72h.1c0 .06.02.1.05.12.03.02.07.02.12.02h1.45v.1a.37.37 0 0 0-.14.04c-.02.02-.03.05-.03.1v.63c0 .04 0 .06.03.08l.08.04v.09a2.83 2.83 0 0 1-1.7.41c-.26 0-.5-.03-.73-.1a1.54 1.54 0 0 1-.57-.29 1.39 1.39 0 0 1-.37-.47c-.09-.18-.13-.4-.13-.63a1.37 1.37 0 0 1 .5-1.1c.16-.14.35-.24.57-.3.22-.07.47-.11.74-.11a3.38 3.38 0 0 1 .9.11l.3.08.14.03c.04 0 .07 0 .08-.02a.52.52 0 0 1 .06-.04l.07.04-.34.74Zm-5.58-.42a1.5 1.5 0 0 0-.84.26 1 1 0 0 0-.29.3.81.81 0 0 0-.1.43c0 .16.03.3.1.42.08.12.17.23.29.31a1.45 1.45 0 0 0 .84.26 1.5 1.5 0 0 0 .83-.26.95.95 0 0 0 .29-.31.81.81 0 0 0 .11-.42c0-.16-.04-.3-.11-.42a.98.98 0 0 0-.29-.31 1.5 1.5 0 0 0-.83-.26Zm0-.52a2.34 2.34 0 0 1 1.25.37c.18.12.33.28.44.47.12.19.18.41.18.67 0 .26-.06.48-.18.67-.11.19-.26.34-.44.47-.18.12-.39.21-.6.27a2.62 2.62 0 0 1-1.3 0 1.89 1.89 0 0 1-.6-.27 1.53 1.53 0 0 1-.45-.47 1.22 1.22 0 0 1-.17-.67c0-.26.05-.48.17-.67.11-.19.26-.35.44-.47a2.34 2.34 0 0 1 1.25-.37Zm-2.53 3.1c0-.05-.03-.08-.07-.1a.68.68 0 0 0-.14 0h-2.75v-.1c.11 0 .17-.04.17-.1v-2.6c0-.06-.06-.1-.17-.1V47h1v.1c-.11 0-.17.04-.17.1v2.27h1.92c.06 0 .1-.01.14-.04a.12.12 0 0 0 .06-.1h.1v.78h-.1Zm-5.65-2.58a1.5 1.5 0 0 0-.84.26 1 1 0 0 0-.28.3.81.81 0 0 0-.11.43c0 .16.04.3.11.42s.17.23.28.31a1.45 1.45 0 0 0 .84.26 1.5 1.5 0 0 0 .84-.26.95.95 0 0 0 .29-.31.81.81 0 0 0 .1-.42c0-.16-.03-.3-.1-.42a.97.97 0 0 0-.3-.31 1.5 1.5 0 0 0-.83-.26Zm0-.52a2.33 2.33 0 0 1 1.25.37c.19.12.34.28.45.47.12.19.17.41.17.67 0 .26-.05.48-.17.67-.11.19-.26.34-.45.47-.18.12-.38.21-.6.27a2.62 2.62 0 0 1-1.3 0 1.89 1.89 0 0 1-.6-.27 1.52 1.52 0 0 1-.44-.47 1.22 1.22 0 0 1-.18-.67c0-.26.06-.48.18-.67.11-.19.26-.35.44-.47s.39-.21.6-.27c.23-.07.44-.1.65-.1Zm-6.29 2.9c.07 0 .11-.04.11-.1v-2.6c0-.06-.04-.1-.1-.1V47h.98v.1c-.03 0-.05.02-.05.06 0 .03.04.08.12.16l1.66 1.7V47.2c0-.07-.05-.1-.15-.1V47h.88v.1c-.08 0-.11.04-.11.1v2.6c0 .06.03.1.1.1v.1h-.93v-.1c.05 0 .08-.02.08-.05 0-.03-.04-.07-.1-.14l-1.77-1.8v1.88c0 .07.05.1.14.1V50h-.86v-.1Zm-1.9-2.7c0-.06-.05-.1-.13-.1V47h.9v.1a.12.12 0 0 0-.08.03c-.02.02-.03.04-.03.08v2.58c0 .04 0 .07.03.08a.1.1 0 0 0 .07.03v.1h-.89v-.1c.08 0 .13-.04.13-.1v-1.08h-1.87v1.07c0 .04.01.07.03.08.03.02.05.03.08.03v.1h-.88v-.1c.08 0 .11-.04.11-.1v-2.6c0-.06-.03-.1-.1-.1V47h.87v.1a.12.12 0 0 0-.08.03c-.02.02-.03.04-.03.08v.96h1.87v-.96Zm-3.71 2.38h-.07a.57.57 0 0 0-.17.06 4.05 4.05 0 0 1-.78.3 2.7 2.7 0 0 1-1.23-.03 1.84 1.84 0 0 1-.6-.27 1.37 1.37 0 0 1-.56-1.13 1.35 1.35 0 0 1 .56-1.13c.18-.13.37-.22.6-.28a2.89 2.89 0 0 1 1.66.04 2.36 2.36 0 0 1 .4.14c.03 0 .04 0 .05-.03a.75.75 0 0 0 .04-.04l.08.06-.45.68-.06-.04a.1.1 0 0 0 0-.03v-.04c-.01-.04-.05-.08-.12-.12a1.1 1.1 0 0 0-.26-.12 2.54 2.54 0 0 0-.64-.12c-.16 0-.32.02-.47.07a1.03 1.03 0 0 0-.65.52.9.9 0 0 0-.1.42.93.93 0 0 0 .36.75c.11.08.24.15.39.2a2.04 2.04 0 0 0 1.5-.22c.08-.07.12-.12.12-.17a.1.1 0 0 0-.02-.06l.08-.05.38.6-.04.04Zm-4.28-1.96a.1.1 0 0 0-.06-.1c-.03-.01-.08-.03-.17-.03h-1.87v.7h1.13c.08 0 .14 0 .18-.02.05-.02.07-.08.07-.16h.1v.88h-.1c0-.09-.02-.14-.07-.16a.34.34 0 0 0-.18-.04h-1.13v.78h1.93c.06 0 .1-.02.14-.04a.12.12 0 0 0 .06-.1h.1v.77h-.1c0-.06-.02-.1-.06-.1H91.7v-.11a.1.1 0 0 0 .07-.02.1.1 0 0 0 .04-.08V47.2c0-.03-.01-.06-.04-.07a.1.1 0 0 0-.07-.03V47h2.64c.09 0 .14 0 .17-.03a.12.12 0 0 0 .06-.1h.1v.75h-.1ZM89.7 49.8c0 .06.05.1.13.1v.1h-.89v-.1a.1.1 0 0 0 .07-.03.1.1 0 0 0 .04-.07v-2.27h-.96a.22.22 0 0 0-.1.03c-.03.02-.05.05-.05.1h-.1v-.79h.1c0 .05.02.09.05.1a.2.2 0 0 0 .1.03h2.57c.04 0 .07 0 .1-.02.04-.02.05-.06.05-.1h.1v.79h-.1c0-.06-.01-.1-.05-.11a.18.18 0 0 0-.1-.03h-.95v2.27Zm-4.22-2.18a.1.1 0 0 0-.05-.09c-.03-.02-.09-.03-.17-.03h-1.88v.7h1.14c.07 0 .13 0 .18-.02.04-.02.06-.05.06-.1h.1v.82h-.1c0-.1-.02-.15-.06-.17a.34.34 0 0 0-.18-.04h-1.14v1.1c0 .04.02.07.05.08.03.02.07.03.13.03v.1h-.99v-.1c.1 0 .15-.04.15-.1v-2.6c0-.07-.05-.1-.15-.1V47h2.69c.08 0 .14 0 .17-.03a.12.12 0 0 0 .05-.1h.1v.75h-.1Zm-5.61-.1a1.5 1.5 0 0 0-.84.26 1 1 0 0 0-.28.3.8.8 0 0 0-.11.43c0 .16.03.3.1.42.08.12.18.23.3.31a1.45 1.45 0 0 0 .83.26 1.5 1.5 0 0 0 .84-.26c.12-.08.21-.19.29-.31a.8.8 0 0 0 .1-.42.8.8 0 0 0-.1-.42.98.98 0 0 0-.3-.31 1.5 1.5 0 0 0-.83-.26Zm0-.52a2.33 2.33 0 0 1 1.25.37 1.3 1.3 0 0 1 .62 1.14c0 .26-.06.48-.17.67-.12.19-.27.34-.45.47a1.9 1.9 0 0 1-.6.27 2.62 2.62 0 0 1-1.3 0 1.9 1.9 0 0 1-.6-.27 1.53 1.53 0 0 1-.45-.47 1.3 1.3 0 0 1-.17-.67 1.3 1.3 0 0 1 .62-1.14 2.33 2.33 0 0 1 1.25-.37Z" fill="#fff"/><path d="M78 38h98v.5H78V38Z" fill="#EC1C24"/><defs><linearGradient id="astjyknol" x1="36.65" y1="50.41" x2="58.74" y2="30.23" gradientUnits="userSpaceOnUse"><stop stop-color="#2E2C72"/><stop offset=".45" stop-color="#156BB5"/><stop offset=".63" stop-color="#46A2DA"/><stop offset=".84" stop-color="#156BB5"/><stop offset="1" stop-color="#2E2C72"/></linearGradient><linearGradient id="bstjyknol" x1="50.59" y1="37.55" x2="58.98" y2="48.37" gradientUnits="userSpaceOnUse"><stop stop-color="#2E2C72" stop-opacity="0"/><stop offset="1" stop-color="#2E2C72"/></linearGradient><linearGradient id="cstjyknol" x1="41.98" y1="26.79" x2="50.59" y2="48.15" gradientUnits="userSpaceOnUse"><stop stop-color="#2E2C72"/><stop offset=".71" stop-color="#2E2C72" stop-opacity="0"/></linearGradient><linearGradient id="dstjyknol" x1="38.58" y1="27.73" x2="48.4" y2="41.1" gradientUnits="userSpaceOnUse"><stop stop-color="#015F32"/><stop offset=".31" stop-color="#0D8442"/><stop offset="1" stop-color="#16A64A"/></linearGradient><linearGradient id="estjyknol" x1="38.58" y1="27.73" x2="48.4" y2="41.1" gradientUnits="userSpaceOnUse"><stop offset=".31" stop-color="#0D8442"/><stop offset="1" stop-color="#16A64A"/></linearGradient><linearGradient id="fstjyknol" x1="45.52" y1="37.3" x2="54.83" y2="50.55" gradientUnits="userSpaceOnUse"><stop stop-color="#16A64A"/><stop offset=".58" stop-color="#0D8442"/><stop offset="1" stop-color="#015F32"/></linearGradient></defs></svg>