<svg xmlns="http://www.w3.org/2000/svg" width="620" height="468" fill="none" viewBox="0 0 620 468"><path fill="#000" d="M0 0h620v468H0z"/><path fill="url(#a3q35s3h5)" fill-opacity=".2" d="m10 130.48-9 15.47-1 1.37V468h622l-2-285.96-7 15.88-9-1.86-9 23.51-9-53.2-9 4.95-9-4.95-9 46.4-9 11.13-9 18.57-9-9.28-9 59.4-9-9.9-9 9.9-9-32.18-9-6.19-9 17.33-9-24.75-9 31.55-9-1.24-9 60.02-9-12.38-9-42.07-9-5.57-9-14.85-9 18.57-9-68.06-9 35.88-9-48.87-9-30.32-9 40.83-9-48.25-9-11.14-9-29.7-9 40.83-9-29.07-9 73-9-1.23-9-55.69-9 13-9-74.25-9-24.13-9 14.85-9-16.09-9 1.24-9-8.66-9 23.51-9-6.8-9 4.33-9-15.47-9 17.94-9 30.32-9-1.86-9-40.21-9-3.1-9 45.17-9-25.99-9-4.33-9 7.43-9-7.43-9 21.66-9-4.95-9-12.38-9 20.42h-9l-9 31.55-9-3.1-9 6.81z"/><g filter="url(#b3q35s3h5)"><path stroke="#2962FF" stroke-width="2" d="m10 130.34 9 8.03 9-6.8 9 3.09 9-31.5h9l9-20.37 9 12.35 9 4.94 9-21.61 9 7.4 9-7.4 9 4.32 9 25.93 9-45.07 9 3.08 9 40.14 9 1.85 9-30.25 9-17.91L190 76l9-4.33 9 6.8L217 55l9 8.65 9-1.24 9 16.06 9-14.82 9 24.08 9 74.1 9-12.97 9 55.58 9 1.23 9-72.86 9 29.02 9-40.76 9 29.65 9 11.11 9 48.17 9-40.76 9 30.26 9 48.78 9-35.81 9 67.92 9-18.52 9 14.82 9 5.56 9 41.99 9 12.35 9-59.9 9 1.23 9-31.49 9 24.7 9-17.29 9 6.18 9 32.1 9-9.87 9 9.88 9-59.28 9 9.26 9-18.53 9-11.11 9-46.32 9 4.94 9-4.94 9 53.11 9-23.47 9 1.86 9-20.38"/></g><g filter="url(#c3q35s3h5)"><path stroke="#2962FF" stroke-width="2" d="m10 130.34 9 8.03 9-6.8 9 3.09 9-31.5h9l9-20.37 9 12.35 9 4.94 9-21.61 9 7.4 9-7.4 9 4.32 9 25.93 9-45.07 9 3.08 9 40.14 9 1.85 9-30.25 9-17.91L190 76l9-4.33 9 6.8L217 55l9 8.65 9-1.24 9 16.06 9-14.82 9 24.08 9 74.1 9-12.97 9 55.58 9 1.23 9-72.86 9 29.02 9-40.76 9 29.65 9 11.11 9 48.17 9-40.76 9 30.26 9 48.78 9-35.81 9 67.92 9-18.52 9 14.82 9 5.56 9 41.99 9 12.35 9-59.9 9 1.23 9-31.49 9 24.7 9-17.29 9 6.18 9 32.1 9-9.87 9 9.88 9-59.28 9 9.26 9-18.53 9-11.11 9-46.32 9 4.94 9-4.94 9 53.11 9-23.47 9 1.86 9-20.38"/></g><path fill="url(#d3q35s3h5)" d="M0 0h468v120H0z" transform="matrix(0 -1 -1 0 120 468)"/><path fill="url(#e3q35s3h5)" d="M500 468h468v120H500z" transform="rotate(-90 500 468)"/><defs><linearGradient id="a3q35s3h5" x1="-215" x2="-215" y1="55" y2="590" gradientUnits="userSpaceOnUse"><stop stop-color="#2962FF"/><stop offset="1" stop-color="#2962FF" stop-opacity="0"/></linearGradient><linearGradient id="d3q35s3h5" x1="234" x2="234" y1="0" y2="120" gradientUnits="userSpaceOnUse"><stop stop-opacity="0"/><stop offset="1"/></linearGradient><linearGradient id="e3q35s3h5" x1="734" x2="734" y1="468" y2="588" gradientUnits="userSpaceOnUse"><stop stop-opacity="0"/><stop offset="1"/></linearGradient><filter id="b3q35s3h5" width="669.58" height="341.91" x="-18.67" y="25.23" color-interpolation-filters="sRGB" filterUnits="userSpaceOnUse"><feFlood flood-opacity="0" result="BackgroundImageFix"/><feColorMatrix in="SourceAlpha" result="hardAlpha"/><feGaussianBlur stdDeviation="14"/><feColorMatrix values="0 0 0 0 0.160784 0 0 0 0 0.384314 0 0 0 0 1 0 0 0 1 0"/></filter><filter id="c3q35s3h5" width="717.58" height="389.91" x="-42.67" y="1.23" color-interpolation-filters="sRGB" filterUnits="userSpaceOnUse"><feFlood flood-opacity="0" result="BackgroundImageFix"/><feColorMatrix in="SourceAlpha" result="hardAlpha"/><feGaussianBlur stdDeviation="26"/><feColorMatrix values="0 0 0 0 0.160784 0 0 0 0 0.384314 0 0 0 0 1 0 0 0 1 0"/><feBlend in="SourceGraphic"/></filter></defs></svg>