<svg xmlns="http://www.w3.org/2000/svg" width="620" height="468" viewBox="0 0 620 468"><path d="M0 0h620v468H0z"/><g fill="#F23645" filter="url(#a5dksmdjp)"><path d="M36.5 247.78h3v3h-3v3.4h-3v-23.62H30v-3h3.5V223h3zM112.5 319.53h3v3h-3v9.66h-3v-54.37H106v-3h3.5V274h3zM138.5 343.02h3v3h-3v2.17h-3V310.3H132v-3h3.5V303h3zM164.5 306.24h3v3h-3v16.95h-3v-33.06H158v-3h3.5V259h3zM213.5 236h2v11.67h3v3h-3v14.52h-3v-26.52H209v-3h4.5zM228.5 274.6h3v3h-3v12.59h-3v-39.63H222v-3h3.5V239h3zM253.5 296.15h3v3h-3v34.04h-3v-77.03H247v-3h3.5V253h3zM279.5 292.69h3v3h-3v11.5h-3V260.8H273v-3h3.5V244h3zM292.5 313.22h3v3h-3v30.97h-3V296.7H286v-3h3.5V272h3zM355.5 281.22h3v3h-3v55.97h-3V199.88H349v-3h3.5V177h3zM432.5 151h3v3h-3v47.19h-3v-83.81H426v-3h3.5V80h3zM458.5 141.37h3v3h-3v29.82h-3V132H452v-3h3.5V34h3zM471.5 285.53h3v3h-3v49.66h-3v-193.5H465v-3h3.5V136h3zM381.5 228.2h3v3h-3v66.99h-3v-66.84H375v-3h3.5V223h3zM394.5 236.55h3v3h-3v21.64h-3V231.6H388v-3h3.5V227h3zM406.5 238.87h3v3h-3v10.32h-3V239.7H400v-3h3.5V217h3zM496.5 327.83h3v3h-3v.36h-3v-44.83H490v-3h3.5V275h3zM535.5 287.26h3v3h-3v21.93h-3v-38.11H529v-3h3.5V269h3zM586.5 333.9h3v3h-3v2.29h-3v-6.35H580v-3h3.5V323h3zM547.5 345.22h3v3h-3v25.97h-3v-84.13H541v-3h3.5V283h3zM59.5 245h2v101.68h3v3h-3v41.5h-3V247.94H55v-3h4.5z"/></g><g fill="#0FC5A0" filter="url(#b5dksmdjp)"><path d="M49 244.75h3v3h-3v5.78h-3v-3.06h-3.5v-3H46v-12.44h3zM74 337.99h3v3h-3v31.55h-3V350.6h-3.5v-3H71v-33.56h3zM87 280.8h3v3h-3v90.74h-3v-33.78h-3.5v-3H84v-78.72h3zM100 274.8h3v3h-3v98.74h-3v-92.78h-3.5v-3H97v-19.72h3zM125 306.28h3v3h-3v24.26h-3v-11.01h-3.5v-3h3.5v-29.5h3zM151 291.05h3v3h-3v83.49h-3V346.3h-3.5v-3h3.5v-55.27h3zM177 249.85h3v3h-3v57.69h-3v-1.77h-3.5v-3h3.5v-80.73h3zM190 240.7h3v3h-3v22.84h-3v-14.02h-3.5v-3h3.5v-22.49h3zM202 236.08h3v3h-3v22.46h-3v-17.4h-3.5v-3h3.5v-20.1h3zM241 252.9h3v3h-3v31.64h-3v-9.34h-3.5v-3h3.5v-30.16h3zM266 256.73h3v3h-3v53.8h-3V299.6h-3.5v-3h3.5v-47.55h3zM305 310.88h3v3h-3v23.66h-3v-21.16h-3.5v-3h3.5v-20.34h3zM318 305.84h3v3h-3v10.7h-3v-5.6h-3.5v-3h3.5v-28.9h3zM333 232.04h-3v78.5h-3v-1.73h-3.5v-3h3.5v-75.78h1.5v-1h4.5zM343 196.8h3v3h-3v31.73h-3v-.36h-3.5v-3h3.5v-68.15h3zM368 228.36h3v3h-3v61.18h-3v-7.8h-3.5v-3h3.5v-76.72h3zM419 116.21h3v3h-3v150.33h-3v-27.96h-3.5v-3h3.5V105.02h3zM446 128.36h3v3h-3v95.17h-3v-71.65h-3.5v-3h3.5V86.02h3zM484 282.29h3v3h-3v16.25h-3v-12.48h-3.5v-3h3.5v-19.04h3zM509 296.8h3v3h-3v32.74h-3v-1.24h-3.5v-3h3.5v-64.28h3zM522 270.8h3v3h-3v41.74h-3v-15.92h-3.5v-3h3.5v-41.6h3zM561 331.66h3v3h-3v53.88h-3v-38.81h-3.5v-3h3.5v-35.71h3zM573 328.8h3v3h-3v10.74h-3v-8.14h-3.5v-3h3.5v-7.38h3z"/></g><defs><filter id="a5dksmdjp" width="601.5" height="399.19" x="9" y="13" color-interpolation-filters="sRGB" filterUnits="userSpaceOnUse"><feFlood result="BackgroundImageFix"/><feColorMatrix in="SourceAlpha" result="hardAlpha"/><feGaussianBlur stdDeviation="10.5"/><feColorMatrix values="0 0 0 0 1 0 0 0 0 0.129412 0 0 0 0 0.2 0 0 0 1 0"/><feBlend in="SourceGraphic"/></filter><filter id="b5dksmdjp" width="573.5" height="342.52" x="22.5" y="66.02" color-interpolation-filters="sRGB" filterUnits="userSpaceOnUse"><feFlood flood-opacity="0" result="BackgroundImageFix"/><feColorMatrix in="SourceAlpha" result="hardAlpha"/><feGaussianBlur stdDeviation="10"/><feColorMatrix values="0 0 0 0 0.0588235 0 0 0 0 0.772549 0 0 0 0 0.627451 0 0 0 1 0"/><feBlend in="SourceGraphic"/></filter></defs></svg>