<svg xmlns="http://www.w3.org/2000/svg" width="620" height="468" fill="none" viewBox="0 0 620 468"><path fill="#000" d="M0 0h620v468H0z"/><path stroke="gray" stroke-dasharray="2 2" stroke-width="2" d="M27 253h564"/><g filter="url(#avqv2tg3r)"><path fill="#F23645" d="m227.5 268-.99.16a1 1 0 0 0 .44.67zm3 2-.55.83a1 1 0 0 0 1.54-.69zm90 53.5-1 .03a1 1 0 0 0 1.9.42zm2.5-5 .86-.51a1 1 0 0 0-1.75.06zm3 5 1-.08a1 1 0 0 0-.14-.44zm.5 6.5-1 .08.02.13zm2 9.5 1-.06-.02-.15zm1.5 24-1 .06v.03zm3 32.5-1 .1a1 1 0 0 0 2-.04zm2-34.5-.99-.16v.1zm3-19 .98-.21a1 1 0 0 0-1.97.05zm4.5 21-.98.2a1 1 0 0 0 1.98-.12zm2-26.5-.65-.76a1 1 0 0 0-.35.69zm3.5-3 .65.76a1 1 0 0 0 .35-.65zm2-19 .97-.24a1 1 0 0 0-1.96.13zm2.5 10-.97.24a1 1 0 0 0 1.8.31zm3-4.5.95-.32a1 1 0 0 0-1.78-.24zm2 6 1-.05q0-.13-.05-.27zm1 21-1 .05v.03zM360 367l-1 .08.02.1zm4.5 25.5-.98.17a1 1 0 0 0 .27.54zm3 3-.7.7a1 1 0 0 0 1.7-.68zm2-121-.95-.32q-.05.15-.05.3zm3-9 .95.32a1 1 0 0 0 .05-.28zM76 277h-1v.15l.05.15zm3 9.5.99-.17-.02-.07-.02-.06zm2 11.5-.99.17 1.98-.03zm2.5-17-.27-.96-.63.18-.09.63zm3.5-1 1-.06-.08-1.24-1.2.34zm1.5 24.5-1 .06v.06l.01.05zM91 319l1-.08v-.05l-.01-.04zm2.5 30.5-1 .08 2-.02zm2.5-45-.98-.17-.02.06v.06zm5-28.5.95-.32-1.94.15zm2.5 7.5-.95.32 1.95-.27zm12.16-24-1 .1a1 1 0 0 0 1.99.02zm1.83-6.88a1 1 0 0 0-1.98-.24zM135.01 302l-1 .04.02.13zm2.02 12-.99.17.03.13zm3.02 9.5-.95.3a1 1 0 0 0 1.88.06zm2.52-6.5.7-.7a1 1 0 0 0-1.64.34zm2.51 2.5-.7.71a1 1 0 0 0 .7.29zm2.02 0v1a1 1 0 0 0 .99-.84zm2.52-16 .96-.26a1 1 0 0 0-1.95.1zm5.03 18.5-.97.26a1 1 0 0 0 1.77.34zm3.02-4 1-.1a1 1 0 0 0-1.8-.5zm2.02 19.5-1 .1a1 1 0 0 0 1.7.61zm3.02-3 .7.71a1 1 0 0 0 .29-.57zm1.5-11 .96-.3a1 1 0 0 0-1.94.16zm3.53 11 .98-.19-.03-.12zm1.51 8-.98.19a1 1 0 0 0 .4.62zm2.75 2-.59.8a1 1 0 0 0 1.59-.7zm3.8-40 1 .1v-.02zm1-13-.96-.26-.03.18zm2.52-9.5-.9-.45-.06.2zm3.02-6 1-.03a1 1 0 0 0-1.9-.42zm.5 17-1 .03v.04zm1.52 22-1 .07v.07zm2.01 14-.99.14.03.15zm4.63 15.5-.96.29a1 1 0 0 0 1.96-.23zm2.5-44.5-.98-.18-.02.12zm2.94-16.5-.64-.77a1 1 0 0 0-.34.6zm3.02-2.5.77-.64a1 1 0 0 0-1.4-.13zm2.52 3-.77.64a1 1 0 0 0 1.76-.54zm6.52-5.5-1 .06a1 1 0 0 0 2 .07zm2-15 .8-.6a1 1 0 0 0-1.8.47zm3 4 .99-.17a1 1 0 0 0-.19-.43zm2 12-.99.16a1 1 0 0 0 1.95.1zm5-18 .96.27q.03-.08.03-.17zm256 2-1 .08a1 1 0 0 0 1.9.37zm3.5-7 1-.06a1 1 0 0 0-1.9-.39zm2.5 38.5-1 .06v.03zm1.5 17-1 .09a1 1 0 0 0 1.56.74zm3-2 .56.83a1 1 0 0 0 .4-.56zm5-17.5.87-.49a1 1 0 0 0-1.83.22zm2.5 4.5-.87.49a1 1 0 0 0 1.87-.47zm38.5-35 1-.1-.01-.06zm2.5 26.5-1 .1a1 1 0 0 0 1.97.13zm3-12.5 1-.04a1 1 0 0 0-1.97-.2zm1.5 34-1 .04a1 1 0 0 0 1.96.25zm3.5-11.5 1-.1a1 1 0 0 0-1.96-.2zm2 18.5-1 .1a1 1 0 0 0 1.97.13zm3-12.5.97.23.03-.15zm2-25-.55-.83a1 1 0 0 0-.45.75zm4.5-3 .8-.6a1 1 0 0 0-1.35-.23zm3 4-.8.6a1 1 0 0 0 1.8-.52zm2-25.5.92-.4a1 1 0 0 0-1.92.32zm5 11.5 1-.12q-.02-.15-.08-.28zm2.5 21-1 .12a1 1 0 0 0 .55.77zm2 1-.45.9a1 1 0 0 0 1.24-.29zm3.5-4.5.79.61a1 1 0 0 0 .2-.55zm1.5-24.5-.77-.64a1 1 0 0 0-.23.58zm2.5-3 .77.64a1 1 0 0 0 .23-.64zm-352-3.67-.99.17 2.5 15.16 1-.16.98-.16-2.5-15.17zm2.5 15.17-.55.83 3 2 .55-.83.56-.83-3-2zm3 2 .99.14 2.53-17.26-.99-.15-.99-.14-2.53 17.27zm88-17.04-1 .03 2 70.54 1-.03 1-.03-2-70.54zm2 70.54.9.45 2.5-5-.9-.45-.9-.45-2.5 5zm2.5-5-.86.51 3 5 .86-.51.86-.51-3-5zm3 5-1 .08.5 6.5 1-.08 1-.08-.5-6.5zm.5 6.5-.98.2 2 9.5.98-.2.98-.2-2-9.5zm2 9.5-1 .06 1.5 24 1-.06 1-.06-1.5-24zm1.5 24-1 .1 3 32.5 1-.1 1-.1-3-32.5zm3 32.5 1 .06 2-34.5-1-.06-1-.06-2 34.5zm2-34.5.99.16 3-19-.99-.16-.99-.16-3 19zm3-19-.98.2 4.5 21 .98-.2.98-.21-4.5-21zm4.5 21 1 .07 2-26.5-1-.07-1-.07-2 26.5zm2-26.5.65.76 3.5-3-.65-.76-.65-.76-3.5 3zm3.5-3 1 .1 2-19-1-.1-1-.1-2 19zm2-19-.97.24 2.5 10 .97-.24.97-.24-2.5-10zm2.5 10 .83.56 3-4.5-.83-.56-.83-.56-3 4.5zm3-4.5-.95.32 2 6 .95-.32.95-.32-2-6zm2 6-1 .05 1 21 1-.05 1-.05-1-21zm1 21-1 .08 1.5 19.5 1-.08 1-.08-1.5-19.5zM360 367l-.98.17 4.5 25.5.98-.17.99-.17-4.5-25.5zm4.5 25.5-.7.7 3 3 .7-.7.7-.7-3-3zm3 3 1 .02 2-121-1-.02-1-.02-2 121zm2-121 .95.32 3-9-.95-.32-.95-.32-3 9zm3-9 1 .04.52-12.54-1-.04-1-.04-.52 12.54zM76 252.5h-1V277h2v-24.5zm0 24.5-.95.3 3 9.5.95-.3.95-.3-3-9.5zm3 9.5-.99.17 2 11.5.99-.17.99-.17-2-11.5zm2 11.5.99.14 2.5-17-.99-.14-.99-.14-2.5 17zm2.5-17 .27.96 3.5-1L87 280l-.27-.96-3.5 1zm3.5-1-1 .06 1.5 24.5 1-.06 1-.06-1.5-24.5zm1.5 24.5-.99.17 2.5 14.5.99-.17.99-.17-2.5-14.5zM91 319l-1 .08 2.5 30.5 1-.08 1-.08-2.5-30.5zm2.5 30.5 1 .06 2.5-45-1-.06-1-.06-2.5 45zm2.5-45 .98.17 5-28.5-.98-.17-.98-.17-5 28.5zm5-28.5-.95.32 2.5 7.5.95-.32.95-.32-2.5-7.5zm2.5 7.5 1 .05 1.5-31-1-.05-1-.05-1.5 31zm11.5-31-1 .1.66 7 1-.1 1-.1-.66-7zm.66 7 .99.12.84-7-.99-.12-1-.12-.84 7zM133 253l-1 .04 2.01 49 1-.04 1-.04-2.01-49zm2.01 49-.98.17 2.01 12 .99-.17.98-.17-2.01-12zm2.02 12-.96.3 3.03 9.5.95-.3.95-.3-3.02-9.5zm3.02 9.5.93.36 2.52-6.5-.93-.36-.94-.36-2.51 6.5zm2.52-6.5-.7.71 2.5 2.5.71-.71.7-.7-2.5-2.5zm2.51 2.5v1h2.02v-2h-2.02zm2.02 0 .99.16 2.51-16-.98-.16-1-.15-2.51 16zm2.52-16-.97.26 5.03 18.5.97-.26.97-.26-5.04-18.5zm5.03 18.5.8.6 3.02-4-.8-.6-.8-.6-3.02 4zm3.02-4-1 .1 2.02 19.5 1-.1.99-.1-2.01-19.5zm2.02 19.5.7.71 3.02-3-.7-.71-.7-.7-3.03 3zm3.02-3 .99.14 1.5-11-.98-.14-1-.14-1.5 11zm1.5-11-.95.3 3.53 11 .95-.3.95-.3-3.52-11zm3.53 11-.98.19 1.5 8 1-.19.97-.19-1.5-8zm1.51 8-.59.8 2.75 2 .59-.8.59-.8-2.75-2zm2.75 2 1 .1 3.8-40-1-.1-1-.1-3.8 40zm3.8-40 1 .08 1-13-1-.08-1-.08-1 13zm1-13 .97.26 2.52-9.5-.97-.26-.97-.26-2.51 9.5zm2.52-9.5.9.45 3.02-6-.9-.45-.9-.45-3.01 6zm3.02-6-1 .03.5 17 1-.03 1-.03-.5-17zm.5 17-1 .07 1.52 22 1-.07 1-.07-1.52-22zm1.52 22-1 .14 2.02 14 1-.14.98-.14-2.01-14zm2.01 14-.96.29 4.63 15.5.96-.29.96-.29-4.63-15.5zm4.63 15.5 1 .06 2.5-44.5-1-.06-1-.06-2.5 44.5zm2.5-44.5.98.18 2.95-16.5-.99-.18-.98-.18-2.94 16.5zm2.94-16.5.64.77 3.02-2.5-.64-.77-.64-.77-3.02 2.5zm3.02-2.5-.76.64 2.51 3 .77-.64.77-.64-2.52-3zm2.52 3 1 .1 3.02-31.04-1-.1-.99-.1-3.03 31.04zm5-30.94-.99.06 1.51 25.44 1-.06 1-.06-1.51-25.44zm1.52 25.44 1 .13 2-15-1-.13-1-.13-2 15zm2-15-.8.6 3 4 .8-.6.8-.6-3-4zm3 4-.99.16 2 12 .99-.16.99-.17-2-12zm2 12 .96.27 5-18-.96-.27-.96-.27-5 18zm5-18 1 .1.91-8.75-.99-.1-1-.1-.91 8.74zm255.1-8.64-1 .08.9 10.64 1-.08 1-.08-.9-10.64zm.9 10.64.9.45 3.5-7-.9-.45-.9-.45-3.5 7zm3.5-7-1 .06 2.5 38.5 1-.06 1-.06-2.5-38.5zm2.5 38.5-1 .09 1.5 17 1-.09 1-.09-1.5-17zm1.5 17 .56.83 3-2-.56-.83-.56-.83-3 2zm3-2 .96.27 5-17.5-.96-.27-.96-.27-5 17.5zm5-17.5-.87.49 2.5 4.5.87-.49.87-.49-2.5-4.5zm2.5 4.5 1 .02 1-44-1-.02-1-.02-1 44zm37-44-.99.16 1.5 9 .99-.16.99-.16-1.5-9zm1.5 9-1 .1 2.5 26.5 1-.1 1-.1-2.5-26.5zm2.5 26.5.97.23 3-12.5-.97-.23-.97-.23-3 12.5zm3-12.5-1 .04 1.5 34 1-.04 1-.04-1.5-34zm1.5 34 .96.3 3.5-11.5-.96-.3-.96-.3-3.5 11.5zm3.5-11.5-1 .1 2 18.5 1-.1 1-.1-2-18.5zm2 18.5.97.23 3-12.5-.97-.23-.97-.23-3 12.5zm3-12.5 1 .08 2-25-1-.08-1-.08-2 25zm2-25 .55.83 4.5-3-.55-.83-.55-.83-4.5 3zm4.5-3-.8.6 3 4 .8-.6.8-.6-3-4zm3 4 1 .08 2-25.5-1-.08-1-.08-2 25.5zm2-25.5-.92.4 5 11.5.92-.4.92-.4-5-11.5zm5 11.5-1 .12 2.5 21 1-.12 1-.12-2.5-21zm2.5 21-.45.9 2 1 .45-.9.45-.9-2-1zm2 1 .79.61 3.5-4.5-.79-.61-.79-.61-3.5 4.5zm3.5-4.5 1 .06 1.5-24.5-1-.06-1-.06-1.5 24.5zm1.5-24.5.77.64 2.5-3-.77-.64-.77-.64-2.5 3zm2.5-3h1v-3.1h-2v3.1z"/></g><path fill="url(#bvqv2tg3r)" d="M237.48 203 233 252.79l85.48.21v-8.5l-2.5-12-2-43.5-3-.5-2-26.5-3 .5-2 8-3 2-2-52-3.5 1-1.5-9-2.5 10.5-2.5-36.5h-2.5l-2.5-14.5-2 14.5-1 51.5-1.5 108.5-2-3-3.5.5-.5-5.5-2-11-1.5-49-3 4.5-2.5-3.5-2.5-30-2-13-3 1-2 12-3-2.5-2 31-3-7-2 29-2.5-3-2.5 15z"/><g filter="url(#cvqv2tg3r)"><path stroke="#089981" stroke-linejoin="round" stroke-width="2" d="m27.5 153 5-36.5 3 16.5 1.5 36 3 7.5 2-1.5 5-29 2.5 14.5L52 146l2.5 14.5L57 145l2.5 7 5-7.5 2.5 74 3-24.5 1.5-14.5 3-5 1.5 78m29 0 .5-11.5 2.5 6 2-9.5 1-5 2-4.5 2 24.5m1.5 0 .5-10.5 1-11.5 2.5-12 2.5 6.5 2.5-2.5 3 .5 4 15.5.5 14.5m72 0 1-8 .99 8.1m14.43-.3 1.58-10.3 2 10.38m8.02-.09L237.5 203l2.5 9 2.5-15 2.5 3 2-29 3 7 2-31 3 2.5 2-12 3-1 2 13 2.5 30 2.5 3.5 3-4.5 1.5 49 2 11 .5 5.5 3.5-.5 2 3L281 138l1-51.5 2-14.5 2.5 14.5h2.5l2.5 36.5 2.5-10.5 1.5 9 3.5-1 2 52 3-2 2-8 3-.5 2 26.5 3 .5 2 43.5 2.5 12v8.5m157.1-.1-.6-6.4-3-2-2-46-3 5.5-1.5-48.5-3-1.5-2.5 15.5-2.5-18-2.5 17-2.5 2-1.5 2-2.5 11-3 19-2.5-4-2-6-3.5 4L436 151l-3-6-.5 3.5-1.5 5.5-3-6.5-2 13-2.5 12-2.5-21-2.5 38.5-2.5-2-2.5 3-2.5-8-.5 5-2 8.5-2-26-2-8.5-1 3.5-2 7.5-2.5-34.5-2.5 57-2.5-14-2.5-7-2.5 32-2-30.5-2.5 5-3 2-2 37-3-2-.5 10-2.47 13.43-.51 11.63M495.5 253l1-39 2.5-13.5 2.5 2h3l2-7 3 .5 1.5 27.5 3.5 2L516 209l3-6 2 14 3 4 1.5 12 1.5-5.5 2-7 1 24 1.49 8.51m45.51.49 2.5-46.5 2 19 .5 10.5 2 3 3-1.5 2.5-8.5 3 3.5"/></g><defs><filter id="avqv2tg3r" width="563" height="205.5" x="45" y="221.5" color-interpolation-filters="sRGB" filterUnits="userSpaceOnUse"><feFlood flood-opacity="0" result="BackgroundImageFix"/><feColorMatrix in="SourceAlpha" result="hardAlpha"/><feGaussianBlur stdDeviation="15"/><feColorMatrix values="0 0 0 0 0.854902 0 0 0 0 0.192157 0 0 0 0 0.247059 0 0 0 1 0"/><feBlend in="SourceGraphic"/></filter><filter id="cvqv2tg3r" width="626.75" height="242.55" x="-3.49" y="41" color-interpolation-filters="sRGB" filterUnits="userSpaceOnUse"><feFlood flood-opacity="0" result="BackgroundImageFix"/><feColorMatrix in="SourceAlpha" result="hardAlpha"/><feGaussianBlur stdDeviation="15"/><feColorMatrix values="0 0 0 0 0.03 0 0 0 0 0.6 0 0 0 0 0.505 0 0 0 1 0"/><feBlend in="SourceGraphic"/></filter><linearGradient id="bvqv2tg3r" x1="275.74" x2="275.74" y1="72" y2="253" gradientUnits="userSpaceOnUse"><stop stop-color="#089981" stop-opacity=".4"/><stop offset="1" stop-opacity="0"/></linearGradient></defs></svg>