<svg xmlns="http://www.w3.org/2000/svg" width="124" height="30" fill="none"><g clip-path="url(#a)"><path stroke="url(#b)" stroke-width="4" d="M-17.928 4.502c63.534.687 125.086-7.866 147.921-12.228v26.824C88.023 31.927 13.892 33.918-17.927 33.31z" opacity=".2"/><path stroke="url(#c)" stroke-width="3" d="M-17.928 4.502c63.534.687 125.086-7.866 147.921-12.228v26.824C88.023 31.927 13.892 33.918-17.927 33.31z" opacity=".2"/><path stroke="url(#d)" stroke-width="2" d="M-17.928 4.502c63.534.687 125.086-7.866 147.921-12.228v26.824C88.023 31.927 13.892 33.918-17.927 33.31z" opacity=".2"/><path stroke="url(#e)" d="M-17.928 4.502c63.534.687 125.086-7.866 147.921-12.228v26.824C88.023 31.927 13.892 33.918-17.927 33.31z" opacity=".2"/><path stroke="url(#f)" stroke-width="4" d="M-56.309 22.984c63.534.687 125.087-7.866 147.921-12.228v16.036c-41.97 12.83-116.101 14.82-147.92 14.213z" opacity=".2"/><path stroke="url(#g)" stroke-width="3" d="M-56.309 22.984c63.534.687 125.087-7.866 147.921-12.228v16.036c-41.97 12.83-116.101 14.82-147.92 14.213z" opacity=".2"/><path stroke="url(#h)" stroke-width="2" d="M-56.309 22.984c63.534.687 125.087-7.866 147.921-12.228v16.036c-41.97 12.83-116.101 14.82-147.92 14.213z" opacity=".2"/><path stroke="url(#i)" d="M-56.309 22.984c63.534.687 125.087-7.866 147.921-12.228v16.036c-41.97 12.83-116.101 14.82-147.92 14.213z" opacity=".2"/></g><defs><linearGradient id="b" x1="121.788" x2="2.438" y1="12.84" y2="12.84" gradientUnits="userSpaceOnUse"><stop stop-color="#F2FF57"/><stop offset="1" stop-color="#FF3131" stop-opacity="0"/></linearGradient><linearGradient id="c" x1="121.788" x2="2.438" y1="12.84" y2="12.84" gradientUnits="userSpaceOnUse"><stop stop-color="#F2FF57"/><stop offset="1" stop-color="#FF3131" stop-opacity="0"/></linearGradient><linearGradient id="d" x1="121.788" x2="2.438" y1="12.84" y2="12.84" gradientUnits="userSpaceOnUse"><stop stop-color="#F2FF57"/><stop offset="1" stop-color="#FF3131" stop-opacity="0"/></linearGradient><linearGradient id="e" x1="121.788" x2="2.438" y1="12.84" y2="12.84" gradientUnits="userSpaceOnUse"><stop stop-color="#F2FF57"/><stop offset="1" stop-color="#FF3131" stop-opacity="0"/></linearGradient><linearGradient id="f" x1="82.743" x2="-35.722" y1="25.929" y2="25.929" gradientUnits="userSpaceOnUse"><stop stop-color="#FF3131" stop-opacity="0"/><stop offset="1" stop-color="#F2FF57"/></linearGradient><linearGradient id="g" x1="82.743" x2="-35.722" y1="25.929" y2="25.929" gradientUnits="userSpaceOnUse"><stop stop-color="#FF3131" stop-opacity="0"/><stop offset="1" stop-color="#F2FF57"/></linearGradient><linearGradient id="h" x1="82.743" x2="-35.722" y1="25.929" y2="25.929" gradientUnits="userSpaceOnUse"><stop stop-color="#FF3131" stop-opacity="0"/><stop offset="1" stop-color="#F2FF57"/></linearGradient><linearGradient id="i" x1="82.743" x2="-35.722" y1="25.929" y2="25.929" gradientUnits="userSpaceOnUse"><stop stop-color="#FF3131" stop-opacity="0"/><stop offset="1" stop-color="#F2FF57"/></linearGradient><clipPath id="a"><rect width="124" height="30" fill="#fff" rx="8"/></clipPath></defs></svg>