<svg xmlns="http://www.w3.org/2000/svg" width="318" height="376" viewBox="0 0 318 376" fill="none"><circle opacity=".5" cx="159" cy="188" r="97.3" fill="url(#awunlrniq)"/><circle opacity=".4" cx="159" cy="188" r="90.37" stroke="#D49D55" stroke-width=".29"/><circle opacity=".3" cx="159" cy="188" r="113" stroke="#D49D55" stroke-width=".29"/><circle opacity=".2" cx="159" cy="188" r="135.63" stroke="#D49D55" stroke-width=".29"/><circle opacity=".1" cx="159" cy="188" r="158.25" stroke="#D49D55" stroke-width=".29"/><path d="M9 188.13 159.83.5l-.32 187.63H309L159.5 375.5l-.64-187.37H9Z" fill="url(#bwunlrniq)"/><g filter="url(#cwunlrniq)"><path d="M260.56 140.01 275.08 121l-.03 19.01h14.39L275.04 159l-.05-18.99h-14.43Z" fill="url(#dwunlrniq)"/></g><g filter="url(#ewunlrniq)"><path d="M9 113.02 33.13 83l-.05 30.02H57L33.08 143l-.1-29.98H9Z" fill="url(#fwunlrniq)"/></g><g filter="url(#gwunlrniq)"><path d="m62 254 8.6-11-.02 11h8.53l-8.53 11-.03-11H62Z" fill="url(#hwunlrniq)"/></g><defs><linearGradient id="bwunlrniq" x1="248.19" y1="-64.05" x2=".76" y2="337.85" gradientUnits="userSpaceOnUse"><stop offset=".18" stop-color="#E1A253"/><stop offset=".28" stop-color="#F6DBA6"/><stop offset=".36" stop-color="#FBD17E"/><stop offset=".48" stop-color="#FFECC7"/><stop offset=".56" stop-color="#EEBE7B"/><stop offset=".66" stop-color="#C08540"/><stop offset=".8" stop-color="#452312"/><stop offset=".94" stop-color="#85572C"/></linearGradient><linearGradient id="dwunlrniq" x1="283.58" y1="114.46" x2="257.95" y2="154.01" gradientUnits="userSpaceOnUse"><stop offset=".18" stop-color="#E1A253"/><stop offset=".28" stop-color="#F6DBA6"/><stop offset=".36" stop-color="#FBD17E"/><stop offset=".48" stop-color="#FFECC7"/><stop offset=".56" stop-color="#EEBE7B"/><stop offset=".66" stop-color="#C08540"/><stop offset=".8" stop-color="#452312"/><stop offset=".94" stop-color="#85572C"/></linearGradient><linearGradient id="fwunlrniq" x1="47.27" y1="72.67" x2="7.68" y2="136.98" gradientUnits="userSpaceOnUse"><stop offset=".18" stop-color="#E1A253"/><stop offset=".28" stop-color="#F6DBA6"/><stop offset=".36" stop-color="#FBD17E"/><stop offset=".48" stop-color="#FFECC7"/><stop offset=".56" stop-color="#EEBE7B"/><stop offset=".66" stop-color="#C08540"/><stop offset=".8" stop-color="#452312"/><stop offset=".94" stop-color="#85572C"/></linearGradient><linearGradient id="hwunlrniq" x1="75.64" y1="239.21" x2="60.95" y2="262.42" gradientUnits="userSpaceOnUse"><stop offset=".18" stop-color="#E1A253"/><stop offset=".28" stop-color="#F6DBA6"/><stop offset=".36" stop-color="#FBD17E"/><stop offset=".48" stop-color="#FFECC7"/><stop offset=".56" stop-color="#EEBE7B"/><stop offset=".66" stop-color="#C08540"/><stop offset=".8" stop-color="#452312"/><stop offset=".94" stop-color="#85572C"/></linearGradient><filter id="cwunlrniq" x="257.52" y="117.96" width="34.96" height="44.08" filterUnits="userSpaceOnUse" color-interpolation-filters="sRGB"><feGaussianBlur stdDeviation="1.52"/></filter><filter id="ewunlrniq" x="5" y="79" width="56" height="68" filterUnits="userSpaceOnUse" color-interpolation-filters="sRGB"><feGaussianBlur stdDeviation="2"/></filter><filter id="gwunlrniq" x="57.11" y="238.11" width="26.89" height="31.77" filterUnits="userSpaceOnUse" color-interpolation-filters="sRGB"><feFlood flood-opacity="0"/><feBlend in="SourceGraphic"/><feGaussianBlur stdDeviation="2.44"/></filter><radialGradient id="awunlrniq" cx="0" cy="0" r="1" gradientUnits="userSpaceOnUse" gradientTransform="matrix(0 97.3029 -97.3029 0 159 188)"><stop stop-color="#5C4A30"/><stop offset="1" stop-color="#5C4A30" stop-opacity="0"/></radialGradient></defs></svg>