<svg width="180" height="180" viewBox="0 0 180 180" fill="none" xmlns="http://www.w3.org/2000/svg"><circle opacity=".5" cx="90" cy="90" r="55.29" fill="url(#ap4jn0xqa)"/><circle opacity=".4" cx="90" cy="90" r="51.35" stroke="#D49D55" stroke-width=".17"/><circle opacity=".3" cx="90" cy="90" r="64.2" stroke="#D49D55" stroke-width=".17"/><circle opacity=".2" cx="90" cy="90" r="77.06" stroke="#D49D55" stroke-width=".17"/><circle opacity=".1" cx="90" cy="90" r="89.92" stroke="#D49D55" stroke-width=".17"/><path d="M32 88.04 90.32 30l-.12 58.04H148L90.2 146l-.25-57.96H32Z" fill="url(#bp4jn0xqa)"/><g filter="url(#cp4jn0xqa)"><path d="m130.92 59 8.04-11-.02 11h7.98l-7.97 11-.04-11h-8Z" fill="url(#dp4jn0xqa)"/></g><g filter="url(#ep4jn0xqa)"><path d="m45 134 8.04-10-.01 10H61l-7.97 10-.04-10H45Z" fill="url(#fp4jn0xqa)"/></g><g filter="url(#gp4jn0xqa)"><path d="m24 66 7.04-9-.02 9H38l-6.98 9-.03-9H24Z" fill="url(#hp4jn0xqa)"/></g><defs><linearGradient id="bp4jn0xqa" x1="124.49" y1="10.03" x2="56.53" y2="148.01" gradientUnits="userSpaceOnUse"><stop offset=".18" stop-color="#E1A253"/><stop offset=".28" stop-color="#F6DBA6"/><stop offset=".36" stop-color="#FBD17E"/><stop offset=".48" stop-color="#FFECC7"/><stop offset=".56" stop-color="#EEBE7B"/><stop offset=".66" stop-color="#C08540"/><stop offset=".8" stop-color="#452312"/><stop offset=".94" stop-color="#85572C"/></linearGradient><linearGradient id="dp4jn0xqa" x1="143.68" y1="44.21" x2="128.58" y2="66.5" gradientUnits="userSpaceOnUse"><stop offset=".18" stop-color="#E1A253"/><stop offset=".28" stop-color="#F6DBA6"/><stop offset=".36" stop-color="#FBD17E"/><stop offset=".48" stop-color="#FFECC7"/><stop offset=".56" stop-color="#EEBE7B"/><stop offset=".66" stop-color="#C08540"/><stop offset=".8" stop-color="#452312"/><stop offset=".94" stop-color="#85572C"/></linearGradient><linearGradient id="fp4jn0xqa" x1="57.76" y1="120.56" x2="44.56" y2="141.99" gradientUnits="userSpaceOnUse"><stop offset=".18" stop-color="#E1A253"/><stop offset=".28" stop-color="#F6DBA6"/><stop offset=".36" stop-color="#FBD17E"/><stop offset=".48" stop-color="#FFECC7"/><stop offset=".56" stop-color="#EEBE7B"/><stop offset=".66" stop-color="#C08540"/><stop offset=".8" stop-color="#452312"/><stop offset=".94" stop-color="#85572C"/></linearGradient><linearGradient id="hp4jn0xqa" x1="35.16" y1="53.9" x2="23.14" y2="72.89" gradientUnits="userSpaceOnUse"><stop offset=".18" stop-color="#E1A253"/><stop offset=".28" stop-color="#F6DBA6"/><stop offset=".36" stop-color="#FBD17E"/><stop offset=".48" stop-color="#FFECC7"/><stop offset=".56" stop-color="#EEBE7B"/><stop offset=".66" stop-color="#C08540"/><stop offset=".8" stop-color="#452312"/><stop offset=".94" stop-color="#85572C"/></linearGradient><filter id="cp4jn0xqa" x="129.11" y="46.2" width="19.61" height="25.61" filterUnits="userSpaceOnUse" color-interpolation-filters="sRGB"><feGaussianBlur stdDeviation=".9"/></filter><filter id="ep4jn0xqa" x="41" y="120" width="24" height="28" filterUnits="userSpaceOnUse" color-interpolation-filters="sRGB"><feGaussianBlur stdDeviation="2"/></filter><filter id="gp4jn0xqa" x="21" y="54" width="20" height="24" filterUnits="userSpaceOnUse" color-interpolation-filters="sRGB"><feGaussianBlur stdDeviation="1.5"/></filter><radialGradient id="ap4jn0xqa" cx="0" cy="0" r="1" gradientUnits="userSpaceOnUse" gradientTransform="rotate(90 0 90) scale(55.2857)"><stop stop-color="#5C4A30"/><stop offset="1" stop-color="#5C4A30" stop-opacity="0"/></radialGradient></defs></svg>