<svg width="1721" height="348" viewBox="0 0 1721 348" xmlns="http://www.w3.org/2000/svg"><g opacity=".3" fill="#EBBE7D"><path opacity=".3" d="M931 70c.9 2.3 2.7 4.1 5 5-2.3.9-4.1 2.7-5 5-.9-2.3-2.7-4.1-5-5 2.3-.9 4.1-2.7 5-5ZM1128 50c.9 2.3 2.71 4.1 5 5-2.29.9-4.1 2.7-5 5a8.84 8.84 0 0 0-5-5c2.29-.9 4.1-2.7 5-5ZM1294 39c.9 2.3 2.71 4.1 5 5-2.29.9-4.1 2.7-5 5a8.84 8.84 0 0 0-5-5c2.29-.9 4.1-2.7 5-5Z"/><path opacity=".9" d="M973.5 41a4.42 4.42 0 0 0 2.5 2.5 4.42 4.42 0 0 0-2.5 2.5 4.42 4.42 0 0 0-2.5-2.5 4.42 4.42 0 0 0 2.5-2.5ZM1178.5 32a4.4 4.4 0 0 0 2.5 2.5 4.4 4.4 0 0 0-2.5 2.5 4.4 4.4 0 0 0-2.5-2.5 4.4 4.4 0 0 0 2.5-2.5ZM1343.5 74a4.4 4.4 0 0 0 2.5 2.5 4.4 4.4 0 0 0-2.5 2.5 4.4 4.4 0 0 0-2.5-2.5 4.4 4.4 0 0 0 2.5-2.5Z"/><path opacity=".4" d="M1003 75a3.52 3.52 0 0 0 2 2 3.52 3.52 0 0 0-2 2 3.52 3.52 0 0 0-2-2 3.52 3.52 0 0 0 2-2ZM1209 68a3.52 3.52 0 0 0 2 2 3.52 3.52 0 0 0-2 2 3.52 3.52 0 0 0-2-2 3.52 3.52 0 0 0 2-2ZM1394 46a3.52 3.52 0 0 0 2 2 3.52 3.52 0 0 0-2 2 3.52 3.52 0 0 0-2-2 3.52 3.52 0 0 0 2-2ZM1025 49c.18.46.54.82 1 1-.46.18-.82.54-1 1a1.76 1.76 0 0 0-1-1c.46-.18.82-.54 1-1ZM1238 48c.18.46.54.82 1 1-.46.18-.82.54-1 1a1.76 1.76 0 0 0-1-1c.46-.18.82-.54 1-1Z"/></g><g opacity=".3" fill="#EBBE7D"><path opacity=".3" d="M822 68c-.9 2.3-2.7 4.1-5 5 2.3.9 4.1 2.7 5 5 .9-2.3 2.7-4.1 5-5-2.3-.9-4.1-2.7-5-5ZM631 67c-.9 2.3-2.7 4.1-5 5 2.3.9 4.1 2.7 5 5 .9-2.3 2.7-4.1 5-5-2.3-.9-4.1-2.7-5-5ZM442 28c-.9 2.3-2.7 4.1-5 5 2.3.9 4.1 2.7 5 5 .9-2.3 2.7-4.1 5-5-2.3-.9-4.1-2.7-5-5Z"/><path opacity=".9" d="M780.5 49a4.42 4.42 0 0 1-2.5 2.5 4.42 4.42 0 0 1 2.5 2.5 4.42 4.42 0 0 1 2.5-2.5 4.42 4.42 0 0 1-2.5-2.5ZM595.5 47a4.42 4.42 0 0 1-2.5 2.5 4.42 4.42 0 0 1 2.5 2.5 4.42 4.42 0 0 1 2.5-2.5 4.42 4.42 0 0 1-2.5-2.5ZM393.5 71a4.42 4.42 0 0 1-2.5 2.5 4.42 4.42 0 0 1 2.5 2.5 4.42 4.42 0 0 1 2.5-2.5 4.42 4.42 0 0 1-2.5-2.5Z"/><path opacity=".4" d="M745 73a3.53 3.53 0 0 1-2 2 3.53 3.53 0 0 1 2 2 3.53 3.53 0 0 1 2-2 3.53 3.53 0 0 1-2-2ZM566 76a3.53 3.53 0 0 1-2 2 3.53 3.53 0 0 1 2 2 3.53 3.53 0 0 1 2-2 3.53 3.53 0 0 1-2-2ZM327 52a3.53 3.53 0 0 1-2 2 3.53 3.53 0 0 1 2 2 3.53 3.53 0 0 1 2-2 3.53 3.53 0 0 1-2-2ZM729 51c-.18.46-.54.82-1 1 .46.18.82.54 1 1 .18-.46.54-.82 1-1a1.76 1.76 0 0 1-1-1ZM536 51c-.18.46-.54.82-1 1 .46.18.82.54 1 1 .18-.46.54-.82 1-1a1.76 1.76 0 0 1-1-1Z"/></g><g opacity=".5" filter="url(#aqlt3keqq)"><path d="M1071 60a12.36 12.36 0 0 0 7 7 12.36 12.36 0 0 0-7 7 12.36 12.36 0 0 0-7-7 12.36 12.36 0 0 0 7-7Z" fill="#EBBE7D"/></g><g opacity=".6" filter="url(#bqlt3keqq)"><path d="M492 54c-.9 2.3-2.7 4.1-5 5 2.3.9 4.1 2.7 5 5 .9-2.3 2.7-4.1 5-5-2.3-.9-4.1-2.7-5-5Z" fill="#EBBE7D"/></g><g filter="url(#cqlt3keqq)"><path d="M687 47a12.36 12.36 0 0 1-7 7c3.2 1.26 5.74 3.8 7 7 1.26-3.2 3.8-5.74 7-7a12.36 12.36 0 0 1-7-7Z" fill="#EBBE7D"/></g><defs><filter id="aqlt3keqq" x="1060" y="56" width="22" height="22" filterUnits="userSpaceOnUse" color-interpolation-filters="sRGB"><feFlood flood-opacity="0" result="BackgroundImageFix"/><feColorMatrix in="SourceAlpha" result="hardAlpha"/><feGaussianBlur stdDeviation="2"/><feColorMatrix values="0 0 0 0 0.372549 0 0 0 0 0.313726 0 0 0 0 0.231373 0 0 0 1 0"/><feBlend in="SourceGraphic"/></filter><filter id="bqlt3keqq" x="483" y="50" width="18" height="18" filterUnits="userSpaceOnUse" color-interpolation-filters="sRGB"><feFlood flood-opacity="0" result="BackgroundImageFix"/><feColorMatrix in="SourceAlpha" result="hardAlpha"/><feGaussianBlur stdDeviation="2"/><feColorMatrix values="0 0 0 0 0.372549 0 0 0 0 0.313726 0 0 0 0 0.231373 0 0 0 1 0"/><feBlend in="SourceGraphic"/></filter><filter id="cqlt3keqq" x="676" y="43" width="22" height="22" filterUnits="userSpaceOnUse" color-interpolation-filters="sRGB"><feFlood flood-opacity="0" result="BackgroundImageFix"/><feColorMatrix in="SourceAlpha" result="hardAlpha"/><feGaussianBlur stdDeviation="2"/><feColorMatrix values="0 0 0 0 0.371891 0 0 0 0 0.312557 0 0 0 0 0.232995 0 0 0 1 0"/><feBlend in="SourceGraphic"/></filter></defs></svg>