<svg xmlns="http://www.w3.org/2000/svg" width="200" height="60" viewBox="0 0 200 60"><path fill="#F3BA2F" d="m40.32 27.84 5.28-5.24 5.28 5.24 3.08-3.04-8.36-8.3-8.36 8.3zM38.15 30l-3.08-3.05L32 30l3.07 3.05zm2.17 2.15 5.28 5.24 5.28-5.24 3.08 3.05-8.36 8.3-8.36-8.3zm15.8.9L59.2 30l-3.07-3.05L53.05 30z"/><path fill="#F3BA2F" d="m48.72 30-3.12-3.1-3.1 3.1 3.11 3.1zm15.27-6.96h6.69q2.5 0 3.77 1.28a3.3 3.3 0 0 1 .98 2.42v.05a3.5 3.5 0 0 1-.56 1.93q-.53.73-1.32 1.15 1.14.4 1.96 1.28.73.8.73 2.24v.04a3.3 3.3 0 0 1-1.47 2.94 5 5 0 0 1-1.72.75q-1 .24-2.2.24h-6.86zm6.02 5.8q1.05 0 1.67-.37.63-.36.62-1.15v-.05q0-.7-.54-1.09-.71-.42-1.54-.37h-3.13v3.02zm.85 5.76q1.05 0 1.64-.38.6-.37.6-1.17V33a1.3 1.3 0 0 0-.55-1.14q-.56-.4-1.8-.41H67.1v3.15zm9.36-11.56h3.17v14.32h-3.17zm7.98 0h2.92l6.76 8.82v-8.82h3.14v14.32h-2.7l-6.99-9.1v9.1H88.2zm22.42-.1h2.93l6.19 14.42h-3.32l-1.33-3.21H109l-1.31 3.21h-3.24zm3.34 8.43-1.91-4.64-1.92 4.64zm9.2-8.33h2.93l6.76 8.82v-8.82h3.13v14.32h-2.7l-6.98-9.1v9.1h-3.13zm24.24 14.57a7.5 7.5 0 0 1-5.3-2.14 7.4 7.4 0 0 1-2.1-5.23v-.04a7.4 7.4 0 0 1 2.1-5.22 7 7 0 0 1 2.37-1.6 8 8 0 0 1 3.05-.58q1 0 1.85.16 1.52.26 2.77 1.15.57.4 1.07.9l-2.02 2.3q-.84-.75-1.72-1.18a4.4 4.4 0 0 0-3.65-.08 4.3 4.3 0 0 0-2.2 2.38 5 5 0 0 0-.3 1.73v.04a5 5 0 0 0 1.16 3.17 4 4 0 0 0 3.02 1.33q1.24 0 2.1-.45a8 8 0 0 0 1.69-1.23l2.02 2.03q-.55.6-1.15 1.06a7 7 0 0 1-2.87 1.32q-.84.18-1.9.18m20.5-14.57v2.8h-7.73v2.91h6.8v2.8h-6.8v3.01H168v2.8h-10.96V23.04z"/></svg>