<svg xmlns="http://www.w3.org/2000/svg" width="132" height="60" viewBox="0 0 132 60"><path fill="#F3BA2F" d="m16.85 28.24 4.35-4.27 4.35 4.27 2.53-2.48L21.2 19l-6.88 6.76zM15.06 30l-2.53-2.49L10 30l2.53 2.48zm1.8 1.75 4.34 4.27 4.35-4.27 2.53 2.49L21.2 41l-6.88-6.76zm13 .73L32.4 30l-2.53-2.48L27.34 30l2.53 2.49"/><path fill="#F3BA2F" d="m23.77 30-2.57-2.53L18.64 30l2.56 2.53zm12.58-5.67h5.5q2.05 0 3.1 1.04a2.7 2.7 0 0 1 .82 1.98v.03q0 .85-.46 1.58-.44.58-1.1.94.95.31 1.62 1.03.6.67.6 1.83v.03a2.7 2.7 0 0 1-1.21 2.4q-.6.41-1.41.61-.82.2-1.82.2h-5.64zm4.96 4.72q.86 0 1.37-.3.5-.29.5-.93v-.04q0-.58-.43-.9a2.2 2.2 0 0 0-1.28-.3H38.9v2.47zm.7 4.7q.86 0 1.35-.3.49-.32.5-.97v-.03a1.1 1.1 0 0 0-.47-.93q-.45-.34-1.48-.34H38.9v2.57zm7.7-9.42h2.61V36h-2.6zm6.57 0h2.4l5.57 7.18v-7.18h2.59V36H64.6l-5.75-7.42V36h-2.58zm18.47-.08h2.4L82.26 36h-2.73l-1.09-2.62h-5.02L72.32 36h-2.67zm2.75 6.87-1.58-3.79-1.58 3.79zm7.57-6.79h2.41l5.57 7.18v-7.18h2.58V36H93.4l-5.74-7.42V36h-2.58zm19.96 11.87c-1.63 0-3.2-.62-4.36-1.75a6 6 0 0 1-1.73-4.26v-.03a6 6 0 0 1 3.68-5.55q1.14-.48 2.51-.48.83 0 1.53.14a5.5 5.5 0 0 1 3.16 1.66l-1.66 1.89a6 6 0 0 0-1.42-.97 3.7 3.7 0 0 0-3-.07 3.5 3.5 0 0 0-1.81 1.94q-.26.68-.26 1.4v.04c0 .95.34 1.86.96 2.59a3.3 3.3 0 0 0 2.48 1.08q1.03 0 1.73-.36.7-.37 1.4-1l1.66 1.64q-.45.49-.95.87-1.05.8-2.36 1.07-.69.15-1.56.15m16.9-11.87v2.28h-6.38v2.37h5.6v2.28h-5.6v2.46H122V36h-9.03V24.33z"/></svg>