<svg xmlns="http://www.w3.org/2000/svg" width="200" height="80" viewBox="0 0 200 80"><path fill="#F3BA2F" d="m33.3 37.6 5.9-5.82 5.9 5.82 3.44-3.38L39.2 25l-9.34 9.22zM30.87 40l-3.44-3.4L24 40l3.43 3.39zm2.43 2.39 5.9 5.82 5.9-5.82 3.44 3.4L39.2 55l-9.34-9.22zm17.66 1L54.4 40l-3.43-3.39L47.53 40z"/><path fill="#F3BA2F" d="m42.68 40-3.48-3.44-3.48 3.43V40l3.48 3.44zm17.08-7.73h7.47q2.78 0 4.21 1.42a3.7 3.7 0 0 1 1.1 2.7v.04q0 1.16-.62 2.15-.6.8-1.48 1.28 1.27.44 2.2 1.41.8.9.8 2.5v.04a3.7 3.7 0 0 1-1.64 3.27q-.8.55-1.92.83-1.1.27-2.47.27h-7.65zm6.73 6.43q1.17 0 1.86-.4t.69-1.28v-.05q0-.8-.6-1.21a3 3 0 0 0-1.73-.42h-3.5v3.36zm.94 6.4q1.18 0 1.84-.4.67-.44.67-1.31v-.05a1.5 1.5 0 0 0-.62-1.27q-.63-.45-2-.46h-4.1v3.5zm10.46-12.83h3.54v15.9H77.9zm8.92 0h3.27l7.55 9.8v-9.8h3.5v15.9h-3.01l-7.8-10.1v10.1h-3.5zm25.06-.12h3.27l6.92 16.03h-3.71l-1.48-3.57h-6.82l-1.47 3.57h-3.62zm3.74 9.37-2.14-5.16-2.15 5.16zm10.27-9.25h3.28l7.55 9.8v-9.8h3.5v15.9h-3.02l-7.8-10.1v10.1h-3.5zm27.1 16.18a8.4 8.4 0 0 1-5.92-2.38 8 8 0 0 1-2.35-5.8v-.05a8.2 8.2 0 0 1 2.34-5.8 8 8 0 0 1 2.65-1.77 9 9 0 0 1 3.4-.65q1.14 0 2.08.18c1.11.18 2.18.62 3.1 1.27q.63.45 1.19 1l-2.25 2.57q-.96-.84-1.94-1.32a5 5 0 0 0-4.07-.08 4.8 4.8 0 0 0-2.45 2.64 5 5 0 0 0-.35 1.91v.05c0 1.3.46 2.54 1.3 3.52a4.5 4.5 0 0 0 3.37 1.48q1.38 0 2.35-.5a9 9 0 0 0 1.9-1.36l2.25 2.25a12 12 0 0 1-1.29 1.18 8 8 0 0 1-3.2 1.46q-.93.2-2.12.2m22.92-16.18v3.11h-8.65v3.23h7.6v3.11h-7.6v3.35H176v3.1h-12.25v-15.9z"/></svg>