<svg xmlns="http://www.w3.org/2000/svg" width="200" height="60" viewBox="0 0 200 60"><path fill="#fff" d="M67.56 37.37V24.15h6.29q1.4 0 2.43.46 1.05.45 1.61 1.26a3.2 3.2 0 0 1 .04 3.6q-.53.75-1.36 1.03v.18q1 .28 1.61 1.12.64.82.64 1.95 0 1.1-.58 1.91-.6.82-1.67 1.26-1.08.45-2.5.45zm5.76-7.8q.9 0 1.46-.43.57-.42.57-1.11t-.57-1.12a2.4 2.4 0 0 0-1.46-.42h-2.73v3.08zm.13 5.46q.98 0 1.62-.47.64-.48.64-1.22.01-.72-.64-1.19a2.6 2.6 0 0 0-1.62-.48h-2.86v3.36zm7.91-8.49a1.6 1.6 0 0 1-1.17-.44q-.45-.46-.46-1.17 0-.71.46-1.15.46-.47 1.17-.47A1.57 1.57 0 0 1 83 24.93q0 .7-.46 1.17-.46.45-1.17.44m1.36 10.83H80v-9.5h2.7zm5.42.3q-1.41 0-2.25-.93a3.5 3.5 0 0 1-.84-2.44v-4.43h-1.32v-2h1.4l.52-3.02h2.12l-.01 3.01h2.14v2h-2.14v4.33q0 .62.32.99.35.35.92.35.42 0 .97-.13v1.97a5 5 0 0 1-.9.2q-.51.1-.93.1m7.4 0a5.4 5.4 0 0 1-2.63-.64 4.6 4.6 0 0 1-1.81-1.78 5.3 5.3 0 0 1-.64-2.64q0-1.5.64-2.63a4.5 4.5 0 0 1 1.8-1.78 5.4 5.4 0 0 1 2.64-.64q1.26 0 2.29.47 1.05.45 1.7 1.28t.8 1.95l-2.52.33q-.19-.78-.82-1.26-.63-.5-1.41-.5-1.04 0-1.74.78a3 3 0 0 0-.67 2q0 1.23.67 2.01.68.78 1.72.78.8 0 1.43-.48.62-.5.82-1.27l2.55.32q-.17 1.12-.85 1.95-.65.84-1.7 1.3-1.02.45-2.27.45m10.77 0a6 6 0 0 1-2.73-.62 4.6 4.6 0 0 1-1.83-1.76 5.4 5.4 0 0 1-.64-2.68q0-1.52.64-2.65a4.4 4.4 0 0 1 1.83-1.76 6 6 0 0 1 2.73-.64q1.53 0 2.7.64 1.2.61 1.83 1.76.66 1.13.66 2.65 0 1.53-.66 2.68a4.4 4.4 0 0 1-1.83 1.76q-1.17.62-2.7.62m0-2.34a2.3 2.3 0 0 0 1.77-.77q.7-.75.7-1.95 0-1.18-.7-1.93a2.3 2.3 0 0 0-1.77-.76q-1.1 0-1.8.76-.7.75-.7 1.93 0 1.2.7 1.95.7.77 1.8.77m7.73-8.79a1.6 1.6 0 0 1-1.17-.44q-.45-.46-.46-1.17 0-.71.46-1.15.46-.47 1.17-.47a1.57 1.57 0 0 1 1.63 1.62q0 .7-.46 1.17-.46.45-1.17.44m1.35 10.83h-2.7v-9.5h2.7zm1.62 0v-9.5h2.71v1.33h.18q1.04-1.62 2.73-1.62a3.3 3.3 0 0 1 3.1 1.93q.43.9.43 2.03v5.83h-2.7v-5.44q0-.9-.48-1.43a1.6 1.6 0 0 0-1.28-.56q-.82 0-1.41.6-.57.6-.57 1.48v5.35zm11.7.22q-.7 0-1.15-.43-.44-.45-.44-1.13 0-.69.44-1.11.46-.45 1.15-.45a1.5 1.5 0 0 1 1.57 1.56q0 .7-.44 1.13t-1.13.43m7.13.08a5.4 5.4 0 0 1-2.64-.64 4.6 4.6 0 0 1-1.8-1.78 5.3 5.3 0 0 1-.65-2.64q0-1.5.64-2.63a4.5 4.5 0 0 1 1.8-1.78 5.4 5.4 0 0 1 2.65-.64q1.26 0 2.28.47 1.05.45 1.7 1.28.66.83.81 1.95l-2.52.33q-.19-.78-.83-1.26-.62-.5-1.4-.5-1.05 0-1.74.78a3 3 0 0 0-.68 2q0 1.23.68 2.01.67.78 1.72.78.8 0 1.42-.48.63-.5.83-1.27l2.54.32q-.17 1.12-.84 1.95-.66.84-1.7 1.3-1.03.45-2.27.45m10.76 0a6 6 0 0 1-2.73-.62 4.6 4.6 0 0 1-1.83-1.76 5.4 5.4 0 0 1-.64-2.68q0-1.52.64-2.65a4.4 4.4 0 0 1 1.83-1.76 6 6 0 0 1 2.73-.64q1.54 0 2.7.64 1.19.61 1.84 1.76.66 1.13.66 2.65 0 1.53-.66 2.68a4.4 4.4 0 0 1-1.83 1.76q-1.17.62-2.71.62m0-2.34a2.3 2.3 0 0 0 1.77-.77q.7-.75.7-1.95 0-1.18-.7-1.93a2.3 2.3 0 0 0-1.77-.76q-1.1 0-1.8.76-.69.75-.69 1.93 0 1.2.7 1.95.7.77 1.79.77m6.27 2.04v-9.5h2.69v1.4h.18a3 3 0 0 1 1.12-1.24q.7-.47 1.59-.47.92 0 1.7.5.81.5 1.17 1.3h.19q.44-.83 1.19-1.3.76-.48 1.75-.48a3.4 3.4 0 0 1 3.1 1.88q.45.9.45 2.02v5.89h-2.7v-5.42q0-.88-.5-1.43a1.7 1.7 0 0 0-1.26-.6q-.8 0-1.3.58-.5.55-.5 1.45v5.42h-2.72v-5.42q0-.93-.46-1.47a1.5 1.5 0 0 0-1.23-.56q-.8 0-1.28.56-.47.55-.47 1.47v5.42z"/><path fill="#FF9500" d="M32 22.46A6.4 6.4 0 0 1 38.36 16h15.85c3.51 0 6.36 2.9 6.36 6.46v16.08A6.4 6.4 0 0 1 54.21 45H38.36A6.4 6.4 0 0 1 32 38.54z"/><path fill="#fff" d="M53.67 28.08C54 25.83 52.3 24.62 50 23.8l.75-3.04-1.83-.46-.73 2.96-1.46-.35.73-2.99-1.82-.46-.75 3.05c-.44-.1-3.69-.93-3.69-.93l-.48 1.98 1.32.33c.74.2.95.7.86 1.08l-2.06 8.35c-.05.23-.32.57-.83.44l-1.33-.34-.9 2.12 3.67.94-.75 3.08 1.82.47.75-3.05 1.46.38-.75 3.04 1.83.46.75-3.07c3.12.6 5.46.35 6.45-2.5.8-2.3-.04-3.64-1.68-4.5 1.2-.28 2.09-1.08 2.33-2.72m-4.17 5.94c-.57 2.3-4.39 1.05-5.63.74l1-4.08c1.25.32 5.21.94 4.63 3.34m.56-5.98c-.51 2.1-3.7 1.03-4.72.77l.9-3.7c1.04.26 4.36.75 3.82 2.93"/></svg>