<svg xmlns="http://www.w3.org/2000/svg" width="132" height="60" viewBox="0 0 132 60"><path fill="#fff" d="M39.28 35.68V24.74h5.18q1.15 0 2 .39a3 3 0 0 1 1.33 1.04 2.7 2.7 0 0 1 .03 2.98q-.44.62-1.11.85v.15q.81.23 1.32.92.54.69.53 1.62 0 .9-.48 1.58-.48.67-1.37 1.05-.9.36-2.07.36zm4.75-6.45q.73 0 1.2-.35.47-.36.47-.93 0-.56-.47-.92a2 2 0 0 0-1.2-.35h-2.25v2.55zm.1 4.52q.82 0 1.34-.39.53-.4.53-1.01 0-.6-.53-.98-.53-.4-1.34-.4h-2.35v2.78zm6.52-7.03q-.6 0-.96-.36a1.3 1.3 0 0 1-.38-.97q0-.58.38-.96t.96-.38A1.3 1.3 0 0 1 52 25.4q0 .58-.37.97-.39.36-.97.36m1.12 8.96h-2.23v-7.86h2.23zm4.46.25q-1.16 0-1.85-.77a3 3 0 0 1-.7-2.01v-3.67H52.6v-1.66h1.15l.43-2.5h1.75l-.01 2.5h1.76v1.66h-1.76v3.58q0 .5.27.81.28.3.75.3.35 0 .8-.11v1.62q-.32.12-.74.17-.42.08-.77.08m6.1 0q-1.22 0-2.17-.52a4 4 0 0 1-1.5-1.48 4.4 4.4 0 0 1-.52-2.18q0-1.25.53-2.18.52-.96 1.48-1.48a4.5 4.5 0 0 1 2.18-.52q1.05 0 1.88.38.87.37 1.4 1.06.55.7.67 1.62l-2.08.27q-.15-.64-.68-1.04a1.8 1.8 0 0 0-1.16-.42q-.86 0-1.43.65-.56.64-.56 1.66t.56 1.66 1.41.65q.67 0 1.18-.4.51-.42.68-1.05l2.1.26a3.3 3.3 0 0 1-.7 1.62q-.54.7-1.4 1.07-.84.37-1.87.37m8.86 0q-1.28 0-2.24-.5a4 4 0 0 1-1.5-1.47 4.5 4.5 0 0 1-.54-2.21q0-1.26.53-2.2.55-.95 1.5-1.46.98-.52 2.25-.52t2.23.52q.99.51 1.5 1.46.55.94.55 2.2a4.4 4.4 0 0 1-.54 2.21 3.7 3.7 0 0 1-1.5 1.46q-.98.51-2.24.51m0-1.94q.9 0 1.46-.63.58-.63.58-1.61t-.58-1.6a2 2 0 0 0-1.46-.63q-.9 0-1.47.63-.58.61-.58 1.6t.58 1.61 1.47.63m6.37-7.27q-.58 0-.96-.36a1.3 1.3 0 0 1-.38-.97q0-.58.38-.96t.96-.38a1.3 1.3 0 0 1 1.34 1.34q0 .58-.37.97-.38.36-.97.36m1.12 8.96h-2.23v-7.86h2.23zm1.33 0v-7.86h2.23v1.1h.15q.86-1.33 2.25-1.33a2.7 2.7 0 0 1 2.54 1.6q.36.73.36 1.67v4.82h-2.23v-4.5q0-.73-.39-1.18t-1.05-.46q-.68 0-1.16.49-.47.5-.47 1.23v4.42zm9.63.19q-.57 0-.94-.35a1.3 1.3 0 0 1-.37-.94q0-.57.37-.92.37-.37.94-.37a1.25 1.25 0 0 1 1.3 1.29q0 .57-.36.94-.36.35-.94.35m5.87.06q-1.21 0-2.17-.52a4 4 0 0 1-1.49-1.48 4.4 4.4 0 0 1-.53-2.18q0-1.25.53-2.18a3.7 3.7 0 0 1 1.48-1.48 4.5 4.5 0 0 1 2.18-.52q1.04 0 1.89.38.86.37 1.4 1.06t.66 1.62l-2.08.27q-.15-.64-.68-1.04a1.8 1.8 0 0 0-1.16-.42q-.86 0-1.43.65-.56.64-.56 1.66t.56 1.66 1.42.65q.66 0 1.17-.4.51-.42.68-1.05l2.1.26a3.3 3.3 0 0 1-.7 1.62q-.54.7-1.4 1.07-.84.37-1.87.37m8.87 0q-1.28 0-2.25-.5a4 4 0 0 1-1.5-1.47 4.5 4.5 0 0 1-.53-2.21q0-1.26.53-2.2.54-.95 1.5-1.46.97-.52 2.25-.52 1.26 0 2.23.52.98.51 1.5 1.46.55.94.55 2.2a4.4 4.4 0 0 1-.55 2.21 3.7 3.7 0 0 1-1.5 1.46q-.97.51-2.23.51m0-1.94q.89 0 1.46-.63t.57-1.61-.57-1.6a2 2 0 0 0-1.46-.63q-.9 0-1.48.63-.57.61-.57 1.6t.57 1.61 1.48.63m5.16 1.7v-7.87h2.21v1.16h.16q.33-.64.92-1.03.58-.38 1.3-.38.76 0 1.4.41.67.4.97 1.08h.15q.36-.69.98-1.08.63-.4 1.45-.4a2.8 2.8 0 0 1 2.54 1.56q.38.74.38 1.67v4.87h-2.23V31.2q0-.72-.4-1.19a1.4 1.4 0 0 0-1.05-.49q-.64 0-1.07.48-.4.45-.4 1.2v4.48h-2.25V31.2q0-.77-.37-1.22-.4-.46-1.01-.46-.66 0-1.06.46-.39.46-.39 1.22v4.48z"/><path fill="#FF9500" d="M10 23.34A5.3 5.3 0 0 1 15.24 18h13.05a5.3 5.3 0 0 1 5.24 5.34v13.32A5.3 5.3 0 0 1 28.29 42H15.24A5.3 5.3 0 0 1 10 36.66z"/><path fill="#fff" d="M27.84 28c.28-1.87-1.11-2.87-3.01-3.53l.62-2.52-1.5-.39-.6 2.46-1.21-.3.6-2.46-1.5-.39-.62 2.52-3.03-.76-.4 1.64 1.09.27c.6.16.78.58.7.9l-1.69 6.9c-.05.2-.26.47-.69.36l-1.1-.28-.74 1.76 3.03.78-.62 2.55 1.5.38.62-2.52 1.2.32-.61 2.51 1.5.38.62-2.54c2.57.5 4.5.3 5.3-2.07.66-1.9-.03-3-1.38-3.72.99-.24 1.73-.9 1.92-2.26m-3.43 4.91c-.47 1.9-3.61.88-4.63.62l.82-3.38c1.02.26 4.3.77 3.8 2.76m.46-4.94c-.42 1.73-3.04.85-3.89.63l.75-3.06c.85.22 3.59.62 3.14 2.43"/></svg>