<svg xmlns="http://www.w3.org/2000/svg" width="132" height="60" viewBox="0 0 132 60"><path fill="#fff" d="M106.15 36.75q.03.03.03.08v.07l-.06.07-.08.02h-2.97a.1.1 0 0 1-.1-.05L99 32.65l-4 4.3-.05.04-.05.01h-2.98a.1.1 0 0 1-.1-.05.1.1 0 0 1-.04-.11q0-.04.04-.07l5.46-5.9L92 25.14a.1.1 0 0 1-.03-.1.1.1 0 0 1 .06-.1l.08-.04h2.98a.1.1 0 0 1 .1.05l3.79 4.14 3.8-4.14.05-.03.05-.02h2.98a.13.13 0 0 1 .13.08q.02.05.01.08 0 .05-.04.08l-5.28 5.72zM77.88 37a.2.2 0 0 1-.14-.06.2.2 0 0 1-.05-.14V25.1q.02-.17.19-.19h11.26c.1 0 .19.1.19.2v1.68q0 .08-.05.13a.2.2 0 0 1-.14.06h-8.72v2.7h5.23q.17.01.19.19v1.68a.2.2 0 0 1-.06.13.2.2 0 0 1-.13.06h-5.23v3h8.84c.1 0 .19.08.19.19v1.88a.2.2 0 0 1-.06.14.2.2 0 0 1-.13.06zm-19.95 0a.2.2 0 0 1-.13-.05.2.2 0 0 1-.06-.14V25.1c0-.1.09-.2.2-.2h2.35c.1 0 .19.1.19.2v11.7a.2.2 0 0 1-.06.14.2.2 0 0 1-.13.06zm-13.39 0a.2.2 0 0 1-.13-.06.2.2 0 0 1-.05-.14V25.1q.02-.17.18-.19h11.13c.1 0 .19.1.19.2v1.72a.2.2 0 0 1-.06.13.2.2 0 0 1-.13.06h-8.59v3.19h4.76q.16.02.18.19v1.82a.2.2 0 0 1-.05.13.2.2 0 0 1-.13.06h-4.76v4.4a.2.2 0 0 1-.05.13.2.2 0 0 1-.13.06zm-7.3-9.94v9.74a.2.2 0 0 1-.06.14.2.2 0 0 1-.13.06h-2.36a.2.2 0 0 1-.14-.06.2.2 0 0 1-.05-.14v-9.73h-5.02a.2.2 0 0 1-.13-.06.2.2 0 0 1-.05-.13V25.1c0-.1.08-.2.18-.2h12.8c.1 0 .18.1.18.2v1.77a.2.2 0 0 1-.05.13.2.2 0 0 1-.14.06h-5.04M24.88 37a.2.2 0 0 1-.14-.05.2.2 0 0 1-.05-.15V25.1q.01-.17.19-.19h2.35c.1 0 .2.1.2.2v11.7a.2.2 0 0 1-.06.14.2.2 0 0 1-.14.06z"/><path fill="#fff" fill-rule="evenodd" d="M10 25.1c0-.1.09-.2.2-.2h10.05c.65 0 1.28.27 1.74.74.46.48.71 1.12.71 1.79v.8c0 .67-.25 1.32-.71 1.79s-1.09.74-1.74.74h.1c.64 0 1.27.27 1.73.74s.72 1.12.72 1.79v1.18c0 .67-.26 1.3-.72 1.78s-1.09.74-1.74.74H10.2a.2.2 0 0 1-.14-.05.2.2 0 0 1-.05-.15zm2.69 1.77h6.35c.63 0 1.14.53 1.14 1.17v.55c0 .64-.51 1.17-1.14 1.17H12.7zm0 4.88h6.42c.63 0 1.14.51 1.14 1.16v.73c0 .64-.51 1.17-1.14 1.17H12.7v-3.08z"/><path fill="#fff" d="M62.37 25.09c0-.1.08-.2.18-.2h1.6q.08.01.14.05l9.06 8.26v-8.1q.01-.18.19-.2h2.08q.17.02.19.19V36.8a.2.2 0 0 1-.06.14.2.2 0 0 1-.13.06h-1.6a.2.2 0 0 1-.14-.06l-9.06-8.27v8.13a.2.2 0 0 1-.05.14.2.2 0 0 1-.13.06h-2.09a.2.2 0 0 1-.13-.06.2.2 0 0 1-.05-.13z"/><path fill="#03CA9B" d="M108.42 32.13a8 8 0 0 1 2.35-5.9c3.62-3.73 11.16-3.2 11.21-3.2-.03.03-5.54 8.25-12.07 9.02q-.75.09-1.49.07"/><path fill="#03CA9B" d="M109.18 34.65q.28.47.67.86c2.23 2.3 6.27 1.87 9.02-.95 3.63-3.74 3.1-11.54 3.1-11.54-.02.06-3.97 9.17-10.25 11.15q-1.28.41-2.53.48"/></svg>