<svg xmlns="http://www.w3.org/2000/svg" width="200" height="60" viewBox="0 0 200 60"><path fill="#00E0FF" d="M85.07 30.55a7.4 7.4 0 0 0 2.43-2.18 6 6 0 0 0 1.02-3.33q0-3.47-2.51-5.35-2.5-1.85-6.79-1.85H68.95v26.67h10.7c2.98 0 5.38-.7 7.1-2.1a7 7 0 0 0 2.64-5.82q0-2.27-1.23-3.84a7 7 0 0 0-3.1-2.2m-10.62-8h4.33c1.83 0 3.97.76 3.97 2.92 0 2.2-2.12 2.96-3.97 2.96h-4.33zM79.2 39.8h-4.74v-6.66h4.74c2.06 0 4.45.79 4.45 3.23 0 2.48-2.3 3.43-4.45 3.43m18.06-15.68h-6.29v19.6h6.29zm54.4 2.54a9 9 0 0 0-3.25-2.46q-2.04-.89-4.28-.87-2.87 0-5.13 1.31a9.4 9.4 0 0 0-3.52 3.61c-.87 1.6-1.3 3.4-1.27 5.22 0 1.97.41 3.84 1.23 5.38a9 9 0 0 0 3.51 3.6c1.62.87 3.43 1.31 5.26 1.28q3.66-.01 6.13-1.85c1.57-1.17 2.66-3.13 3.25-5.21h-5.54c-.35 2.1-1.92 2.77-3.96 2.77a4 4 0 0 1-2.37-.68c-1.18-.82-1.72-2.29-1.88-3.66h13.85c.24-1.55.25-3.24-.15-4.77a10 10 0 0 0-1.89-3.67m-11.74 4.83c.26-1.22.77-2.62 1.8-3.37q.94-.7 2.3-.7 1.7 0 2.77 1.12c.66.7 1.04 1.81 1.13 2.95zM97.25 17.84h-6.29v4.7h6.29zm29.09 8.02a6.7 6.7 0 0 0-5.6-2.53 8.3 8.3 0 0 0-7.47 4.51 11 11 0 0 0-1.08 4.9c0 4.91 3.54 9.42 8.74 9.42 2 0 4.15-.8 5.4-2.4v2.1c0 2.52-1.68 3.94-4.2 3.94-2.09 0-3.7-.71-3.9-2.86h-5.4c.1 2.93 1.82 5.04 4.55 6.18q2.09.88 4.78.88c5.14 0 9.67-2.76 9.67-8.22V23.33h-5.5zm-4.4 11.6c-2.74 0-4.16-2.23-4.16-4.71q0-2.21 1.14-3.51c.76-.86 1.77-1.2 3.01-1.2a4 4 0 0 1 3.13 1.21 5 5 0 0 1 1.18 3.53c0 2.5-1.56 4.67-4.3 4.67M168 28.81v-4.7h-4.72v-7.06h-5.5v7.06h-3.14v4.7h3.14v7.5c0 4.32 1.26 7.5 6.65 7.4H168v-4.7h-1.86c-2.4 0-2.86-1.2-2.86-3.77v-6.43zm-57.39 0v-4.7h-3.93v-6.28h-5.5v6.28h-3.14v4.7h3.14v7.77c0 4.27 1.1 7.23 6.29 7.14h3.14v-4.71h-1.49c-2.31 0-2.44-.94-2.44-3.47v-6.73zM53.7 22.58l8.55 8.67c.56.57.56 1.48 0 2.04L51.28 44.54h-8.6L54.82 32.2l-9.46-9.61"/><path fill="#00E0FF" d="m40.97 31.96-8.55-8.87a1.45 1.45 0 0 1 0-2.04L43.39 10h8.6L39.83 22.08l9.47 9.88"/></svg>