<svg xmlns="http://www.w3.org/2000/svg" width="200" height="80" viewBox="0 0 200 80"><path fill="#00E0FF" d="M83.3 41.12a8 8 0 0 0 2.73-2.46 6.5 6.5 0 0 0 1.14-3.75q0-3.9-2.8-6-2.8-2.09-7.59-2.09H65.3v30h11.95c3.33 0 6.01-.8 7.95-2.35q2.93-2.37 2.94-6.56 0-2.56-1.38-4.32a8 8 0 0 0-3.45-2.47m-11.85-9h4.83c2.05 0 4.44.85 4.44 3.29 0 2.46-2.37 3.33-4.44 3.33h-4.83zm5.29 19.4h-5.3v-7.5h5.3c2.3 0 4.98.9 4.98 3.64 0 2.8-2.58 3.87-4.98 3.87m20.19-17.64H89.9v22.06h7.03zm60.8 2.86a10 10 0 0 0-3.63-2.76c-1.51-.67-3.14-1-4.8-.98q-3.2 0-5.72 1.47a10.6 10.6 0 0 0-3.94 4.06 12 12 0 0 0-1.42 5.88c0 2.2.47 4.31 1.38 6.04a10 10 0 0 0 3.93 4.06 12 12 0 0 0 5.87 1.43q4.08 0 6.85-2.07c1.76-1.33 2.98-3.53 3.64-5.87h-6.2c-.4 2.36-2.14 3.12-4.43 3.12a4.6 4.6 0 0 1-2.65-.76c-1.3-.93-1.91-2.58-2.1-4.12h15.5c.25-1.75.26-3.65-.19-5.37a11 11 0 0 0-2.1-4.13m-13.12 5.44c.29-1.37.85-2.95 2-3.8.7-.5 1.56-.8 2.57-.8q1.93.02 3.1 1.28c.75.8 1.17 2.04 1.26 3.32zM96.93 26.82H89.9v5.3h7.03zm32.5 9.02A7.6 7.6 0 0 0 123.2 33a9.2 9.2 0 0 0-8.36 5.07 12 12 0 0 0-1.21 5.52c0 5.52 3.96 10.59 9.77 10.59 2.23 0 4.64-.9 6.05-2.7v2.35c0 2.85-1.89 4.44-4.72 4.44-2.32 0-4.12-.8-4.34-3.21h-6.03c.1 3.3 2.02 5.66 5.08 6.95q2.32.98 5.34.99c5.74 0 10.8-3.1 10.8-9.25V33h-6.13zm-4.92 13.04c-3.05 0-4.63-2.5-4.63-5.3q0-2.47 1.27-3.94c.84-.96 1.98-1.35 3.36-1.35a4.5 4.5 0 0 1 3.5 1.37 5.8 5.8 0 0 1 1.32 3.97c0 2.8-1.75 5.25-4.82 5.25m51.49-9.7v-5.3h-5.27v-7.94h-6.15v7.94h-3.52v5.3h3.52v8.42c0 4.86 1.4 8.45 7.43 8.34H176v-5.3h-2.08c-2.68 0-3.2-1.34-3.2-4.23v-7.23zm-64.14 0v-5.3h-4.39v-7.06h-6.15v7.06h-3.51v5.3h3.51v8.73c0 4.81 1.23 8.14 7.03 8.03h3.51v-5.3h-1.67c-2.58 0-2.72-1.05-2.72-3.9v-7.56zm-63.62-7.03 9.56 9.76c.62.64.62 1.66 0 2.3L45.55 56.86h-9.62l13.59-13.9-10.58-10.8"/><path fill="#00E0FF" d="m34.03 42.7-9.56-9.97a1.64 1.64 0 0 1 0-2.3L36.73 18h9.62l-13.6 13.59L43.33 42.7"/></svg>