<svg xmlns="http://www.w3.org/2000/svg" width="200" height="80" viewBox="0 0 200 80"><path fill="#fff" d="M50.78 23.18a3.1 3.1 0 0 1 3.25.76 3.6 3.6 0 0 1 .47 2.83 2.6 2.6 0 0 1-2.4 1.89 2.9 2.9 0 0 1-2.74-1.44 3.7 3.7 0 0 1-.2-2.19 2.7 2.7 0 0 1 1.6-1.84zM24 24.34h13.5a8 8 0 0 1 4.84 1.54 6 6 0 0 1 2.19 3.2 19 19 0 0 1 0 3.17 6 6 0 0 1-2.93 3.54q1.05.52 1.96 1.23c.88.8 1.52 1.84 1.83 2.98q.17 1.23.08 2.47a5.8 5.8 0 0 1-1.74 3.67 8 8 0 0 1-5.48 2.09H24v-3.18a3.5 3.5 0 0 0 3.22-2.15q.26-.63.24-1.33a3.7 3.7 0 0 0-.78-2.89A4.4 4.4 0 0 0 24 37.39v-2.9a3.5 3.5 0 0 0 3.35-2.38 3.4 3.4 0 0 0-1.26-3.9 3.6 3.6 0 0 0-2.09-.7zm7.02 3.56v6.53h4.16q1.18.08 2.34-.17a3.2 3.2 0 0 0 2.22-4.5q-.43-.91-1.3-1.44a6 6 0 0 0-3.26-.52c-1.38.14-2.78-.18-4.15.09zm0 16.82q1.81.18 3.64.04c1.38 0 2.85.28 4.12-.36a3.54 3.54 0 0 0 1.8-4.45 3.8 3.8 0 0 0-3.59-2.31h-5.94c-.05 2.36 0 4.7-.03 7.08M65.2 25.65v5.1h4.14q.41 0 .8.14v3.37H65.4c-.05 2.83 0 5.65 0 8.56a2.15 2.15 0 0 0 1.38 2.06q.42.16.87.15 1.2-.03 2.38-.27.35 1.7.52 3.43-1.98.62-4.06.57a6 6 0 0 1-4.25-1.51 5.5 5.5 0 0 1-1.69-4.23V34.3h-3.23v-3.52h3.2c.06-1.73.05-3.44.06-5.14zm31.17.08v5.12h4.8v3.42h-4.8v8.02a2.7 2.7 0 0 0 1.15 2.43c1.1.67 2.43.18 3.62.06q.44 1.73.57 3.5-1.9.45-3.86.48a6.2 6.2 0 0 1-4.74-1.8 5 5 0 0 1-1.28-3.19v-9.42H88.5V31a19 19 0 0 1 3.36-.18c-.04-1.75-.04-3.41-.04-5.08zm71.46 4.64a7.7 7.7 0 0 1 5.7 2.35 9.4 9.4 0 0 1 2.34 4.98c.3 2.15.03 4.34-.8 6.34a7.8 7.8 0 0 1-10.1 4.14 8 8 0 0 1-2.35-1.65c-.06 3.46 0 6.91 0 10.36-1.56 0-3.13.17-4.68 0V30.76h3.49l.24.12q.35.98.55 2a7 7 0 0 1 5.64-2.51zm-2.44 3.82a4.1 4.1 0 0 0-2.85 3.68v2.83a4.13 4.13 0 0 0 5.64 4.1 5.1 5.1 0 0 0 2.91-3.77q.1-1.34 0-2.67a5.2 5.2 0 0 0-2.35-3.83 4.8 4.8 0 0 0-3.37-.35h.02m-87.43-3.71c2.8-.32 5.64.04 8.27 1.05a23 23 0 0 1-.95 3.34q-2.11-.75-4.36-.94c-1.03 0-2.24-.17-3.01.65a1.4 1.4 0 0 0-.32 1.71q.15.29.4.48c1.97 1.2 4.48 1.05 6.46 2.26a4.7 4.7 0 0 1 2.27 2.83q.12 1.41 0 2.82a5.3 5.3 0 0 1-2.85 3.3 9 9 0 0 1-4.06.88 20 20 0 0 1-7.07-1.34q.29-1.72.94-3.33c2.2.76 4.5 1.47 6.82 1.1a2.7 2.7 0 0 0 1.28-.75 1.5 1.5 0 0 0-.2-2.29c-1.93-1.31-4.39-1.21-6.39-2.42A4.6 4.6 0 0 1 73 37.06a4.8 4.8 0 0 1 1.15-4.65 6.8 6.8 0 0 1 3.8-1.93zm26.9 1.37a19 19 0 0 1 9.01-1.41 7 7 0 0 1 4.88 2.82 6 6 0 0 1 1.1 3.6v7.08a1.3 1.3 0 0 0 .78 1.3q.67.05 1.35 0c.1 1.1.26 2.2.33 3.32q-1.79.41-3.62.15a4.4 4.4 0 0 1-2.7-2.11 8.5 8.5 0 0 1-5.7 2.2 7 7 0 0 1-4.74-1.6 5.5 5.5 0 0 1-1.25-6.12q.44-1.03 1.25-1.81c2-1.62 4.74-1.89 7.18-1.82q1.3.05 2.6.27.17-1.17-.28-2.26a3.2 3.2 0 0 0-1.98-1.47 17 17 0 0 0-2.99 0q-2.1.37-4.1 1.12l-1.18-3.19zm4.25 9.4a2.36 2.36 0 0 0-.24 3.22 3.4 3.4 0 0 0 3.46 1 3.8 3.8 0 0 0 2.96-2.73q.1-1.16 0-2.33c-.87-.05-1.7-.28-2.6-.27a5.2 5.2 0 0 0-3.5 1.04zm20-8.26a7.4 7.4 0 0 1 5.6-2.62 6.2 6.2 0 0 1 5.44 2.48c.15.18.26.47.54.42q.94-.97 2.05-1.74a8 8 0 0 1 6.65-.83 6.1 6.1 0 0 1 4.22 5.76v11.8h-4.66V37.73a3.4 3.4 0 0 0-.65-2.28c-1.44-1.88-4.74-1.58-6 .4a4 4 0 0 0-.68 2.22V48.4h-4.61V37.77a3.8 3.8 0 0 0-1.15-2.82 3.9 3.9 0 0 0-4.5-.13 4.2 4.2 0 0 0-1.92 3.4v10.02h-4.69V30.92q1.74-.28 3.48-.13l.27.13c.29.67.4 1.39.62 2.06zM49.5 30.9q2.31-.23 4.63-.15c.08 5.84 0 11.68 0 17.52h-4.65q.05-8.71.02-17.38z"/><path fill="#219E4D" d="M156.4 53.5H24V57h132.4zm8.37 0v3.47H176V53.5z"/></svg>