<svg xmlns="http://www.w3.org/2000/svg" width="200" height="60" viewBox="0 0 200 60"><path fill="#fff" d="M55.96 15.16a2.8 2.8 0 0 1 2.9.67 3.2 3.2 0 0 1 .43 2.5q-.22.7-.8 1.16-.6.46-1.35.5a2.6 2.6 0 0 1-2.45-1.27 3.3 3.3 0 0 1-.18-1.93 2.4 2.4 0 0 1 1.44-1.62zM32 16.18h12.08a7 7 0 0 1 4.33 1.36c.95.7 1.64 1.7 1.96 2.82q.12 1.4 0 2.8a5.2 5.2 0 0 1-2.62 3.12q.93.47 1.75 1.1A5.4 5.4 0 0 1 51.13 30q.15 1.09.08 2.18a5 5 0 0 1-1.55 3.23 7.3 7.3 0 0 1-4.9 1.85H32v-2.8a3.2 3.2 0 0 0 2.21-.9 3 3 0 0 0 .89-2.17 3.3 3.3 0 0 0-.7-2.55A4 4 0 0 0 32 27.7v-2.57c.66.01 1.31-.19 1.85-.57q.82-.57 1.15-1.52a3 3 0 0 0-1.13-3.44c-.54-.39-1.2-.6-1.87-.61zm6.28 3.15v5.76H42q1.06.07 2.1-.16.84-.19 1.45-.8.6-.61.75-1.46a2.8 2.8 0 0 0-1.39-2.97 5 5 0 0 0-2.9-.47c-1.24.13-2.5-.15-3.72.08zm0 14.83q1.62.16 3.26.04c1.23 0 2.55.25 3.69-.32a3.05 3.05 0 0 0 1.6-3.93 3.3 3.3 0 0 0-1.28-1.5 3.5 3.5 0 0 0-1.93-.53h-5.31c-.05 2.08 0 4.15-.03 6.24m30.59-16.82v4.5h3.7q.38 0 .72.12v2.97h-4.25c-.04 2.5 0 4.99 0 7.55a2 2 0 0 0 .58 1.4 2 2 0 0 0 1.43.56q1.07-.03 2.14-.24.3 1.5.46 3.03-1.77.54-3.63.5a5.5 5.5 0 0 1-3.8-1.33 4.8 4.8 0 0 1-1.52-3.74v-7.68h-2.9v-3.1h2.88q.06-2.3.05-4.54zm27.89.07v4.51h4.3v3.03h-4.3v7.07a2.3 2.3 0 0 0 1.03 2.14c1 .6 2.17.16 3.24.06q.39 1.5.51 3.09-1.71.39-3.45.42a5.6 5.6 0 0 1-4.25-1.59 4.3 4.3 0 0 1-1.14-2.81v-8.31h-2.98v-2.97q1.5-.22 3-.16-.04-2.3-.03-4.48zm63.94 4.09a7 7 0 0 1 5.1 2.08 8 8 0 0 1 2.09 4.39c.28 1.9.03 3.83-.71 5.6a6.9 6.9 0 0 1-4.53 3.9 7 7 0 0 1-4.51-.25 8 8 0 0 1-2.1-1.46c-.06 3.06 0 6.1 0 9.14-1.4 0-2.8.15-4.2 0V21.85h3.13l.21.1q.32.86.5 1.77a6.3 6.3 0 0 1 5.05-2.22zm-2.19 3.37q-1.08.36-1.79 1.24a3.6 3.6 0 0 0-.75 2.01v2.5a3.6 3.6 0 0 0 .75 2.44c.55.7 1.33 1.18 2.2 1.36.7.12 1.43.05 2.09-.19a4.6 4.6 0 0 0 2.61-3.32q.09-1.17 0-2.35a4.6 4.6 0 0 0-2.1-3.39 4.3 4.3 0 0 0-3.02-.3zM80.3 21.6c2.5-.28 5.04.04 7.4.93q-.31 1.5-.85 2.94a16 16 0 0 0-3.9-.82c-.92 0-2-.16-2.7.57a1.3 1.3 0 0 0-.42.98 1.2 1.2 0 0 0 .5.95c1.76 1.07 4 .93 5.78 2a4.2 4.2 0 0 1 2.02 2.5q.12 1.23 0 2.48a4.7 4.7 0 0 1-2.54 2.92c-1.13.54-2.37.8-3.64.77-2.16-.01-4.3-.41-6.33-1.18q.27-1.52.85-2.94c1.96.67 4.02 1.3 6.1.97q.67-.17 1.14-.66a1.3 1.3 0 0 0 .39-1.05 1.3 1.3 0 0 0-.57-.97c-1.72-1.16-3.92-1.08-5.7-2.14a4.06 4.06 0 0 1-2-4.62q.27-1.1 1.06-1.92a6 6 0 0 1 3.4-1.7zm24.07 1.2a17.4 17.4 0 0 1 8.06-1.24 6.4 6.4 0 0 1 4.37 2.49 5.2 5.2 0 0 1 .98 3.18v6.24a1.1 1.1 0 0 0 .7 1.15q.6.05 1.2 0c.09.97.24 1.95.3 2.94a9 9 0 0 1-3.24.13 4 4 0 0 1-2.41-1.87 7.7 7.7 0 0 1-5.1 1.95 6.2 6.2 0 0 1-4.25-1.41 5 5 0 0 1-1.51-3.5 4.8 4.8 0 0 1 1.51-3.5c1.8-1.43 4.25-1.67 6.43-1.6q1.17.04 2.33.22.15-1.02-.26-1.98a2.8 2.8 0 0 0-1.77-1.3 15 15 0 0 0-2.67 0 20 20 0 0 0-3.67.99l-1.06-2.82zm3.8 8.3a2.1 2.1 0 0 0-.21 2.85 3.1 3.1 0 0 0 3.09.87 3.4 3.4 0 0 0 2.65-2.4q.09-1.04 0-2.06c-.78-.04-1.53-.25-2.32-.23a4.7 4.7 0 0 0-3.15.9zm17.9-7.28a6.6 6.6 0 0 1 5-2.32 5.6 5.6 0 0 1 4.87 2.2c.13.15.24.4.49.36q.83-.86 1.83-1.53a7.3 7.3 0 0 1 5.95-.74 5.5 5.5 0 0 1 2.73 1.95 5.3 5.3 0 0 1 1.04 3.14v10.4h-4.16V28a3 3 0 0 0-.58-2c-1.3-1.66-4.25-1.4-5.37.36-.4.57-.61 1.25-.61 1.94v9.13h-4.13v-9.39a3.3 3.3 0 0 0-1.03-2.49 3.5 3.5 0 0 0-4.03-.1 3.7 3.7 0 0 0-1.71 3v8.83h-4.2V21.99q1.55-.25 3.12-.12l.24.12c.26.6.36 1.23.55 1.82m-71.25-1.86q2.08-.2 4.15-.13c.07 5.15 0 10.3 0 15.45H54.8q.03-7.67.01-15.33z"/><path fill="#219E4D" d="M150.46 41.9H32V45h118.46zm7.49 0v3.08H168V41.9z"/></svg>