<svg xmlns="http://www.w3.org/2000/svg" width="200" height="60" viewBox="0 0 200 60"><path fill="#fff" d="M120.1 24.45a1.3 1.3 0 0 1 1.28-1.36 1.27 1.27 0 0 1 .99 2.08 1.3 1.3 0 0 1-1 .48 1.24 1.24 0 0 1-1.27-1.2m.1 2.3h2.34v8.53h-2.35zm-62.9-2.84h-4.53v11.37h4.85c2.54 0 3.9-1.34 3.9-3.15a2.64 2.64 0 0 0-2.5-2.75v-.12a2.4 2.4 0 0 0 2.06-2.44c0-1.7-1.28-2.91-3.78-2.91m1.35 3.3c0 .9-.76 1.44-1.7 1.44l-1.82.03v-2.85h1.85c1.07 0 1.67.48 1.67 1.38m.35 4.67c0 .85-.55 1.4-1.89 1.4h-1.98v-3h1.98a1.65 1.65 0 0 1 1.9 1.6m3.68 3.4h2.4l-.04-11.37h-2.36zm3.63-4.24c0-2.64 1.6-4.4 4.18-4.4s4.19 1.76 4.19 4.4-1.6 4.4-4.19 4.4c-2.57 0-4.18-1.76-4.18-4.4m5.97 0c0-1.49-.62-2.58-1.78-2.58s-1.8 1.1-1.8 2.58c0 1.5.61 2.58 1.8 2.58 1.2 0 1.78-1.1 1.78-2.58m7.46-4.4c-2.58 0-4.17 1.79-4.17 4.4 0 2.6 1.56 4.4 4.17 4.4 2.24 0 3.67-1.33 3.78-3.29H81.3a1.5 1.5 0 0 1-1.54 1.42c-1.1 0-1.81-.97-1.81-2.56 0-1.58.71-2.52 1.81-2.52a1.5 1.5 0 0 1 1.54 1.42h2.23c-.08-1.97-1.56-3.27-3.78-3.27m5.02-2.73h2.36v6.07h.12l2.73-3.23h2.7l-3.15 3.7 3.31 4.83h-2.76l-2.32-3.44-.63.73v2.7h-2.36zM97 26.64c-2.58 0-4.18 1.79-4.18 4.4 0 2.6 1.57 4.4 4.2 4.4 2.24 0 3.66-1.33 3.77-3.29h-2.22a1.53 1.53 0 0 1-1.55 1.42c-1.1 0-1.8-.97-1.8-2.56-.01-1.58.7-2.52 1.8-2.52a1.5 1.5 0 0 1 1.55 1.42h2.2c-.06-1.97-1.56-3.27-3.77-3.27m7.37 8.64h-2.35V23.9h2.28v4.35h.1a2.5 2.5 0 0 1 2.55-1.62c1.77 0 2.94 1.21 2.94 3.21v5.43h-2.36v-5.01a1.5 1.5 0 0 0-.37-1.2 1.5 1.5 0 0 0-1.14-.46 1.6 1.6 0 0 0-1.65 1.74zm9.86-5.01c-1.68.16-3.2.74-3.2 2.63 0 1.69 1.2 2.54 2.83 2.54a2.6 2.6 0 0 0 2.49-1.35h.06v1.19h2.24v-5.76c0-2.04-1.72-2.9-3.6-2.9-2.05 0-3.38.98-3.7 2.54l2.17.18a1.4 1.4 0 0 1 1.51-.95c.8 0 1.26.4 1.26 1.1 0 .57-.58.63-2.06.78m2.08 1.01v.95a1.63 1.63 0 0 1-1.77 1.53c-.72 0-1.24-.33-1.24-1s.54-.99 1.38-1.1a6 6 0 0 0 1.63-.38m7.76 4h2.4l-.04-4.93a1.56 1.56 0 0 1 1.6-1.74 1.45 1.45 0 0 1 1.52 1.66v5h2.36v-5.42c0-1.99-1.16-3.21-2.94-3.21a2.6 2.6 0 0 0-2.55 1.62h-.1v-1.5h-2.25z"/><path fill="#3D89F5" d="m33.3 27.5-.7.7a1.97 1.97 0 0 0 0 2.84l5.56 5.63q.2.2.45.33v-6.82z"/><path fill="#1656B9" d="m45.82 27.5.69.7a1.97 1.97 0 0 1 0 2.84l-5.56 5.63a2 2 0 0 1-.45.33v-6.82z"/><path fill="#85B5F8" d="m44.48 26.1-3.47-3.5a1.97 1.97 0 0 0-2.84 0l-3.48 3.5 4.88 2.44z"/><path fill="#B3B3B3" d="M157.9 26.75h-2.25l-.01 8.53H158v-5.12a1.4 1.4 0 0 1 .81-1.44q.27-.12.57-.13a1.24 1.24 0 0 1 1.29 1.37v5.32h2.29v-5.21a1.33 1.33 0 0 1 1.36-1.48 1.26 1.26 0 0 1 1.32 1.42v5.27H168v-5.69a2.76 2.76 0 0 0-3.88-2.59q-.87.4-1.32 1.26h-.13a2.25 2.25 0 0 0-2.31-1.62 2.4 2.4 0 0 0-2.36 1.62h-.1zm-16.53-.11c-2.58 0-4.17 1.79-4.17 4.4 0 2.6 1.56 4.4 4.21 4.4 2.25 0 3.68-1.33 3.78-3.29h-2.22a1.53 1.53 0 0 1-1.55 1.42c-1.1 0-1.81-.97-1.81-2.56 0-1.58.72-2.52 1.81-2.52a1.5 1.5 0 0 1 1.55 1.42h2.17c-.06-1.97-1.55-3.27-3.77-3.27m-7.45 6.51a1.33 1.33 0 0 0 .2 2.04 1.32 1.32 0 0 0 2.04-.96 1.33 1.33 0 0 0-1.05-1.44 1.3 1.3 0 0 0-1.2.36m12.13-2.1c0-2.65 1.6-4.41 4.18-4.41s4.18 1.76 4.18 4.4-1.6 4.4-4.18 4.4-4.18-1.76-4.18-4.4m5.97-.01c0-1.49-.62-2.58-1.78-2.58s-1.8 1.1-1.8 2.58c0 1.5.61 2.58 1.8 2.58 1.2 0 1.78-1.1 1.78-2.58"/></svg>