<svg xmlns="http://www.w3.org/2000/svg" width="200" height="80" viewBox="0 0 200 80"><path fill="#fff" d="M122.46 33.78a1.5 1.5 0 0 1 .82-1.4 1.4 1.4 0 0 1 1.73.41 1.5 1.5 0 0 1 .27 1.23 1.5 1.5 0 0 1-.78.98q-.29.15-.61.14a1.4 1.4 0 0 1-1.3-.83 2 2 0 0 1-.13-.53m.1 2.6h2.63v9.67h-2.62zM52.3 33.17h-5.07v12.89h5.43c2.84 0 4.36-1.52 4.36-3.57a3 3 0 0 0-.76-2.14 3 3 0 0 0-2.03-.98v-.13a2.7 2.7 0 0 0 1.66-.95c.42-.5.64-1.15.63-1.82 0-1.92-1.42-3.3-4.22-3.3m1.5 3.74c0 1.02-.85 1.63-1.9 1.63l-2.03.03v-3.22h2.07c1.2 0 1.87.54 1.87 1.56m.4 5.3c0 .96-.61 1.6-2.11 1.6h-2.22v-3.42h2.22a1.8 1.8 0 0 1 1.45.42 2 2 0 0 1 .66 1.4m4.12 3.85H61l-.05-12.89h-2.62zm4.05-4.8c0-3 1.8-5 4.67-5 2.89 0 4.68 2 4.68 5s-1.8 4.98-4.68 4.98-4.67-2-4.67-4.98m6.67 0c0-1.69-.69-2.93-1.98-2.93-1.3 0-2.02 1.24-2.02 2.93 0 1.68.69 2.92 2.02 2.92 1.32 0 1.98-1.24 1.98-2.93m8.34-5c-2.88 0-4.67 2.04-4.67 5 0 2.94 1.75 4.98 4.67 4.98 2.5 0 4.1-1.5 4.22-3.72h-2.5a1.67 1.67 0 0 1-1.72 1.61c-1.23 0-2.02-1.11-2.02-2.9 0-1.8.8-2.87 2.03-2.87.43 0 .86.15 1.18.45s.51.72.54 1.16h2.5c-.1-2.23-1.75-3.7-4.23-3.7m5.6-3.09h2.64v6.89h.14l3.05-3.66h3.02l-3.53 4.18 3.7 5.48h-3.07l-2.6-3.9-.7.83v3.07h-2.65zm13.68 3.1c-2.88 0-4.66 2.03-4.66 4.99 0 2.94 1.75 4.98 4.68 4.98 2.52 0 4.1-1.5 4.23-3.72h-2.48a1.74 1.74 0 0 1-1.74 1.61c-1.23 0-2.02-1.11-2.02-2.9 0-1.8.8-2.87 2.02-2.87q.68 0 1.19.45c.32.3.52.72.55 1.16h2.45c-.07-2.23-1.74-3.7-4.22-3.7m8.25 9.79h-2.63v-12.9h2.55v4.93h.12a2.8 2.8 0 0 1 1.12-1.4 2.8 2.8 0 0 1 1.72-.43c1.97 0 3.28 1.37 3.28 3.64v6.15h-2.64v-5.68a1.7 1.7 0 0 0-.99-1.76q-.33-.14-.7-.12-.58-.02-1.07.31a1.8 1.8 0 0 0-.76 1.67zm11.02-5.68c-1.88.18-3.57.84-3.57 2.98 0 1.91 1.34 2.88 3.16 2.88a2.9 2.9 0 0 0 2.77-1.52h.08v1.34h2.5v-6.53c0-2.3-1.92-3.27-4.03-3.27-2.28 0-3.77 1.1-4.14 2.86l2.44.2q.18-.53.65-.83t1.03-.24c.9 0 1.4.46 1.4 1.26 0 .63-.64.7-2.3.87m2.32 1.15v1.07a2 2 0 0 1-.63 1.3 1.8 1.8 0 0 1-1.34.44c-.82 0-1.4-.38-1.4-1.13s.61-1.12 1.54-1.25q.94-.09 1.83-.43m8.68 4.53h2.68l-.04-5.58a1.8 1.8 0 0 1 1.06-1.85q.35-.15.73-.13a1.6 1.6 0 0 1 1.28.54 1.7 1.7 0 0 1 .4 1.34v5.68h2.65V39.9c0-2.26-1.3-3.64-3.29-3.64a2.9 2.9 0 0 0-2.86 1.84h-.1v-1.71h-2.51z"/><path fill="#3D89F5" d="m25.45 37.24-.78.79a2.2 2.2 0 0 0-.5 2.48q.19.42.5.74l6.21 6.37q.23.23.5.38v-7.73z"/><path fill="#1656B9" d="m39.44 37.24.77.79a2.2 2.2 0 0 1 .5 2.48q-.17.42-.5.74l-6.2 6.37a2 2 0 0 1-.51.38v-7.73z"/><path fill="#85B5F8" d="m37.95 35.64-3.88-3.96a2.2 2.2 0 0 0-2.44-.5 2 2 0 0 0-.73.5L27 35.64l5.46 2.77z"/><path fill="#B3B3B3" d="M164.7 36.39h-2.5l-.02 9.66h2.64v-5.8a1.65 1.65 0 0 1 .91-1.63q.3-.15.63-.15a1.4 1.4 0 0 1 1.38.96q.1.3.07.6v6.02h2.55v-5.9a1.5 1.5 0 0 1 .4-1.2 1.5 1.5 0 0 1 1.13-.48 1.4 1.4 0 0 1 1.1.46 1.4 1.4 0 0 1 .37 1.15v5.97H176V39.6c.02-.71-.2-1.4-.62-1.97a3.1 3.1 0 0 0-3.71-.97c-.64.29-1.16.8-1.48 1.42h-.15a2.6 2.6 0 0 0-.97-1.38 2.5 2.5 0 0 0-1.61-.45 2.6 2.6 0 0 0-1.62.47 2.7 2.7 0 0 0-1.02 1.36h-.12zm-18.47-.13c-2.88 0-4.65 2.03-4.65 4.99 0 2.94 1.74 4.98 4.7 4.98 2.52 0 4.11-1.5 4.23-3.72h-2.48a1.74 1.74 0 0 1-1.73 1.61c-1.23 0-2.03-1.11-2.03-2.9 0-1.8.8-2.87 2.03-2.87.43 0 .86.15 1.18.45s.52.72.55 1.16h2.42c-.07-2.23-1.74-3.7-4.22-3.7m-8.32 7.38a1.5 1.5 0 0 0-.32 1.64 1.5 1.5 0 0 0 1.36.93 1.5 1.5 0 0 0 1.23-.67 1.52 1.52 0 0 0-.94-2.3 1.5 1.5 0 0 0-1.33.4m13.56-2.4c0-2.99 1.8-4.98 4.67-4.98 2.89 0 4.67 2 4.67 4.99s-1.78 4.98-4.67 4.98-4.67-2-4.67-4.98m6.67 0c0-1.68-.69-2.92-1.99-2.92s-2.01 1.24-2.01 2.93c0 1.68.68 2.92 2.01 2.92s1.99-1.24 1.99-2.93"/></svg>