<svg xmlns="http://www.w3.org/2000/svg" width="132" height="60" viewBox="0 0 132 60"><path fill="#fff" d="M82.55 25.96a1 1 0 0 1 .15-.58 1 1 0 0 1 .9-.5 1 1 0 0 1 .83.39 1 1 0 0 1 0 1.27 1 1 0 0 1-.83.38q-.3 0-.57-.15a1 1 0 0 1-.48-.81m.08 1.84h1.93v6.82h-1.93zm-51.79-2.27h-3.73v9.1h4c2.1 0 3.21-1.08 3.21-2.52.03-.56-.17-1.1-.56-1.52a2.2 2.2 0 0 0-1.5-.69v-.09a2 2 0 0 0 1.23-.67c.3-.36.47-.82.47-1.29 0-1.35-1.05-2.32-3.12-2.32m1.12 2.64c0 .72-.63 1.15-1.41 1.15l-1.5.02v-2.27h1.53c.88 0 1.38.38 1.38 1.1m.28 3.73c0 .68-.45 1.13-1.55 1.13h-1.63v-2.4h1.63a1.4 1.4 0 0 1 1.07.3 1.3 1.3 0 0 1 .48.97m3.04 2.72h1.97l-.04-9.1h-1.93zm2.98-3.39c0-2.11 1.33-3.52 3.45-3.52s3.45 1.41 3.45 3.52-1.33 3.52-3.45 3.52-3.45-1.4-3.45-3.52m4.92 0c0-1.19-.5-2.06-1.46-2.06s-1.49.87-1.49 2.06c0 1.2.5 2.07 1.49 2.07.98 0 1.46-.88 1.46-2.07m6.14-3.52c-2.12 0-3.43 1.43-3.43 3.52s1.29 3.52 3.43 3.52c1.85 0 3.02-1.06 3.12-2.63H50.6q-.04.48-.4.82-.37.32-.87.32c-.9 0-1.5-.78-1.5-2.05s.6-2.02 1.5-2.02q.5 0 .87.32.37.33.4.82h1.84c-.07-1.58-1.29-2.62-3.12-2.62m4.13-2.18h1.95v4.86h.1l2.25-2.59h2.22l-2.6 2.96 2.73 3.86h-2.27l-1.91-2.75-.52.58v2.17h-1.95zm10.08 2.18c-2.12 0-3.43 1.43-3.43 3.52s1.29 3.52 3.45 3.52c1.85 0 3.02-1.06 3.11-2.63h-1.83q-.03.48-.4.82-.37.32-.87.32c-.91 0-1.5-.78-1.5-2.05s.6-2.02 1.5-2.02q.5 0 .87.32.36.33.4.82h1.81c-.05-1.58-1.28-2.62-3.1-2.62m6.08 6.91h-1.94v-9.1h1.88v3.49h.09q.25-.63.82-1a2 2 0 0 1 1.27-.3c1.46 0 2.42.97 2.42 2.57v4.34h-1.94v-4a1.1 1.1 0 0 0-.3-.96 1.2 1.2 0 0 0-.95-.37q-.43-.02-.79.22a1.3 1.3 0 0 0-.56 1.17zm8.12-4c-1.39.12-2.63.58-2.63 2.1 0 1.35.99 2.03 2.32 2.03a2.2 2.2 0 0 0 2.05-1.08h.05v.95h1.85v-4.6c0-1.63-1.42-2.32-2.97-2.32-1.68 0-2.78.78-3.05 2.03l1.8.14q.13-.38.48-.6.36-.2.76-.16c.66 0 1.03.33 1.03.89 0 .45-.47.5-1.7.61m1.7.8v.76a1.3 1.3 0 0 1-.45.91 1.4 1.4 0 0 1-1 .32c-.6 0-1.02-.27-1.02-.8s.45-.8 1.13-.88q.7-.06 1.35-.3m6.4 3.2h1.98l-.03-3.94a1.2 1.2 0 0 1 .33-1 1.3 1.3 0 0 1 .99-.4 1.2 1.2 0 0 1 .94.39 1.2 1.2 0 0 1 .3.94v4.01h1.95v-4.34c0-1.6-.96-2.57-2.42-2.57q-.7-.04-1.27.32a2 2 0 0 0-.84.98h-.08v-1.2h-1.85z"/><path fill="#3D89F5" d="m11.06 28.4-.56.56a1.6 1.6 0 0 0-.5 1.14 1.5 1.5 0 0 0 .5 1.13l4.57 4.5q.17.16.37.27v-5.46z"/><path fill="#1656B9" d="m21.38 28.4.57.56a1.6 1.6 0 0 1 .5 1.14 1.5 1.5 0 0 1-.5 1.13l-4.58 4.5q-.16.16-.37.27v-5.46z"/><path fill="#85B5F8" d="m20.28 27.28-2.86-2.8a1.6 1.6 0 0 0-1.17-.48 1.7 1.7 0 0 0-1.16.48l-2.87 2.8 4.02 1.95z"/><path fill="#B3B3B3" d="M113.68 27.8h-1.85l-.01 6.82h1.94v-4.09a1.1 1.1 0 0 1 .67-1.15q.22-.1.47-.1.34-.03.62.16a1 1 0 0 1 .44.93v4.25h1.89v-4.17a1 1 0 0 1 .28-.84 1.1 1.1 0 0 1 .84-.34 1 1 0 0 1 .81.33 1 1 0 0 1 .28.8v4.22H122v-4.54c.01-.5-.15-1-.46-1.4q-.47-.61-1.24-.8a2.3 2.3 0 0 0-1.5.12q-.7.32-1.08 1h-.1a1.8 1.8 0 0 0-.73-.97 2 2 0 0 0-1.18-.32 2 2 0 0 0-1.2.33q-.53.37-.75.97h-.08zm-13.61-.09c-2.13 0-3.43 1.43-3.43 3.52s1.28 3.52 3.47 3.52c1.85 0 3.02-1.06 3.1-2.63h-1.82q-.04.48-.4.82-.38.32-.88.32c-.9 0-1.5-.78-1.5-2.05s.6-2.02 1.5-2.02c.32 0 .64.1.87.32q.37.33.4.82h1.8c-.06-1.58-1.29-2.62-3.11-2.62m-6.14 5.21a1.1 1.1 0 0 0-.24 1.16q.14.3.4.48a1.1 1.1 0 0 0 1.51-.3 1.04 1.04 0 0 0-.2-1.4 1.1 1.1 0 0 0-1.01-.2 1 1 0 0 0-.46.26m10-1.69c0-2.11 1.32-3.52 3.44-3.52s3.44 1.41 3.44 3.52-1.32 3.52-3.44 3.52-3.45-1.4-3.45-3.52m4.9 0c0-1.19-.5-2.06-1.45-2.06-.96 0-1.49.87-1.49 2.06 0 1.2.5 2.07 1.49 2.07.98 0 1.46-.88 1.46-2.07"/></svg>