<svg xmlns="http://www.w3.org/2000/svg" width="132" height="60" viewBox="0 0 132 60"><path fill="#C8D32D" d="M43.33 17.45a5.2 5.2 0 0 1 3.8 1.32 4 4 0 0 1 1.12 2.99v.03l-.01-.03a4 4 0 0 1-2.8 4.04L49 30.46h-3.36l-4.98-6.45c-.11-.15.07-.15.07-.15h2.43c1.4 0 2.2-.77 2.2-1.9 0-1.27-.86-1.92-2.25-1.92h-2.87V30.5h-2.87V17.45zm-14.65-.17a6.6 6.6 0 0 1 6.26 4.01q.51 1.23.5 2.56v.03h-.02a6.5 6.5 0 0 1-4.21 6.16q-1.25.5-2.6.46a6.6 6.6 0 0 1-6.26-4.02 7 7 0 0 1-.5-2.55v-.24a6.5 6.5 0 0 1 4.27-5.98 7 7 0 0 1 2.56-.43m-.04 2.59a3.9 3.9 0 0 0-3.6 2.47q-.27.73-.24 1.51v.03a3.8 3.8 0 0 0 2.36 3.7 4 4 0 0 0 3.02.01 3.8 3.8 0 0 0 2.33-3.66v-.05a3.8 3.8 0 0 0-2.35-3.7q-.73-.3-1.52-.31m25.9-2.57c1.72-.02 3.4.56 4.74 1.63l-1.45 2.12a6 6 0 0 0-3.3-1.22c-1.08 0-1.64.5-1.65 1.11 0 .84.53 1.12 2.74 1.68 2.59.68 4.04 1.61 4.04 3.84v.04c0 2.54-1.95 3.96-4.68 3.96-2 0-3.93-.72-5.42-2.04l1.66-2a6 6 0 0 0 3.81 1.56c1.16 0 1.84-.46 1.84-1.2v-.04c0-.71-.43-1.09-2.56-1.63-2.58-.66-4.24-1.37-4.24-3.9v-.04c0-2.33 1.87-3.86 4.47-3.86m-38.58.23a4.6 4.6 0 0 1 3.33 1.13 3 3 0 0 1 .88 2.18 3 3 0 0 1-1.68 2.76h-.02c1.48.57 2.4 1.43 2.4 3.14v.04c0 2.34-1.92 3.5-4.79 3.5H10V17.54zm-3.23 7.48v2.77h3.35c1.23 0 1.98-.4 1.98-1.35l-.03-.03c0-.87-.61-1.4-2.05-1.4zm0-5.05v2.7h2.6c1.26 0 2.05-.4 2.05-1.35l-.03-.03c0-.85-.65-1.32-1.84-1.32zm58.76-2.47V20h-6.83v2.6h6.02v2.48h-6.02v2.7h6.9v2.51H61.8l.05-12.79zM28.13 14v2.32h-2.66V14zm3.97 0v2.32h-2.66V14zm-5.2 19.98a5.2 5.2 0 0 1 3.77 1.32 4 4 0 0 1 1.11 2.98v.03A4 4 0 0 1 29 42.39L32.54 47h-3.35l-4.97-6.44c-.11-.15.07-.15.07-.15h2.41c1.4 0 2.2-.76 2.2-1.89v-.04c0-1.26-.86-1.91-2.26-1.91H23.8V47h-2.86V33.98zm62.48.01v7.24c0 2.09 1.04 3.16 2.74 3.16 1.69 0 2.73-1.03 2.73-3.07V34h2.81v7.23c0 3.88-2.19 5.78-5.6 5.78l.04-.01c-3.43 0-5.52-1.92-5.52-5.7V34zm-48.04 0 5.46 12.8h-2.95l-1.14-2.78h-5.4l-1.1 2.78h-2.85l5.42-12.8zm-3.02 7.54h3.42l-1.7-4.16zm12.31-7.54 5.96 7.88V34h2.77v12.8h-2.39l-6.14-8.13v8.14h-2.78V33.99zm22.54-.02-5.19 5.43 5.46 7.37h-3.36l-3.96-5.43-1.49 1.54v3.92h-2.8V33.99h2.8v5.6l5.13-5.62zm11.63.02v2.57h-6.92v2.71h6.1v2.57h-6.1v4.96h-2.8V33.99zm37.2 0v2.63h-3.91V46.8h-2.81l.03-.04V36.6h-3.89V34zm-102.29 0v2.57H12.8v2.71h6.08v2.57H12.8v4.95H10v-12.8zm85.91.05a5 5 0 0 1 3.72 1.3 4 4 0 0 1 1.1 2.92l.02.02a3.95 3.95 0 0 1-2.73 3.96l3.42 4.55h-3.27l-4.86-6.32c-.11-.15.06-.15.06-.15h2.37c1.36 0 2.14-.76 2.14-1.86v-.04c0-1.24-.83-1.87-2.2-1.87h-2.8v10.24h-2.8V34.04z"/></svg>