<svg xmlns="http://www.w3.org/2000/svg" width="230" height="100" viewBox="0 0 230 100"><path d="M44.8 43.36c0 1.4-1.1 2-2.9 2H37v-4.1h4.76c2.1 0 3 .78 3 2.05zm-1-7.55c0 1.4-1.15 2-3 2H37v-4h4.06c1.74 0 2.7.7 2.7 1.95zm1.63 3.37a4.4 4.4 0 0 0 2.45-4.07 4.32 4.32 0 0 0-1.28-3.21 6.7 6.7 0 0 0-4.88-1.67H33v18.82h8.9c4.2 0 7-1.72 7-5.17v-.06c0-2.53-1.33-3.8-3.5-4.64zm20.51.47a5.62 5.62 0 0 1-5.6 5.87 5.71 5.71 0 0 1-5.67-5.93v-.05a5.62 5.62 0 0 1 5.61-5.88 5.71 5.71 0 0 1 5.66 5.93zm4.3-.06v-.05a9.61 9.61 0 0 0-9.9-9.7 9.72 9.72 0 0 0-10 9.46v.35a9.61 9.61 0 0 0 9.9 9.7 9.71 9.71 0 0 0 9.96-9.76zm-8.78-11.17h3.9V25h-3.9zm-5.82 0h3.9V25h-3.9zM98.83 49.3c4 0 6.86-2.1 6.86-5.85v-.06c0-3.29-2.13-4.66-5.92-5.66-3.23-.83-4-1.24-4-2.48 0-.92.82-1.65 2.4-1.65a8.74 8.74 0 0 1 4.83 1.81l2.13-3.13a10.75 10.75 0 0 0-6.94-2.4c-3.81 0-6.54 2.27-6.54 5.7v.05c0 3.75 2.43 4.8 6.2 5.77 3.12.8 3.76 1.35 3.76 2.4v.05c0 1.1-1 1.78-2.7 1.78a8.55 8.55 0 0 1-5.58-2.29l-2.43 2.94a11.83 11.83 0 0 0 7.93 3.02zm10-.25h14.27v-3.7H113v-4h8.82V37.7H113v-3.83h10v-3.7h-14.1z" fill="#00529f"/><path d="M33 53.83V72.7h4.11v-7.3H46v-3.78h-8.9v-4h10.12v-3.79zm46.47 11.11h-5L77 58.82zm7.42 7.77l-8-18.88h-3.75L67.2 72.7h4.19L73 68.6h7.9l1.66 4.1h4.29zm1.83 0h4.06v-12l9 12h3.5V53.83h-4.06v11.62L92.5 53.83h-3.79V72.7zm20.18 0h4.1v-5.78l2.17-2.26 5.8 8h4.93l-8-10.86 7.6-8h-5l-7.5 8.27v-8.25h-4.1zm19.39 0h4.11V65.4h8.92v-3.78h-8.92v-4h10.12v-3.79h-14.23zm24.87.3c5 0 8.2-2.8 8.2-8.52V53.83h-4.12v10.81c0 3-1.52 4.53-4 4.53s-4-1.59-4-4.66V53.83h-4.11V64.6c0 5.56 3.07 8.39 8.09 8.39zm34-.3h4.11v-15H197v-3.88h-15.49v3.83h5.7v15zm-7.1-12.58a6 6 0 0 0-1.6-4.31 7.4 7.4 0 0 0-5.44-1.91h-8.54V72.7h4.11V57.6h4.09c2 0 3.22.93 3.22 2.76v.06c0 1.63-1.14 2.74-3.14 2.74h-3.46s-.26 0-.1.22l7.12 9.32h4.8L176.1 66a5.86 5.86 0 0 0 4-5.85z" fill="#c8d32d"/><path d="M88.48 36.46v-.05a6 6 0 0 0-1.6-4.32 7.41 7.41 0 0 0-5.45-1.91h-8.54v18.87H77V33.93h4.1c2 0 3.23.94 3.23 2.77 0 1.64-1.15 2.75-3.15 2.75H77.7s-.26 0-.1.22L84.73 49h4.8l-5.07-6.74a5.85 5.85 0 0 0 4-5.85z" fill="#00529f"/><path d="M65 60.1v-.05a6 6 0 0 0-1.6-4.32 7.41 7.41 0 0 0-5.4-1.91h-8.57v18.87h4.11V57.57h4.09c2 0 3.23.94 3.23 2.77v.06c0 1.63-1.14 2.74-3.15 2.74h-3.46s-.26 0-.1.22l7.13 9.33h4.8L61 66a5.85 5.85 0 0 0 4-5.9z" fill="#c8d32d"/></svg>