<svg xmlns="http://www.w3.org/2000/svg" width="200" height="80" viewBox="0 0 200 80"><path fill="#fff" d="M30 12.98h13.72v5.13h-8.58v47.76h8.58V71H30zm44.15 52.9h9V18.1h-9v-5.13h13.72V71H74.15z"/><path fill="#fff" d="M43.29 41.99V24.08h10.2c11.57 0 13.37.3 16.24 2.72 3.43 2.95 4.55 8.58 2.53 12.71l-.77 1.6 1.29 1.6c4.71 6.02 1.5 15.15-5.92 16.73-1.24.25-6.77.46-12.86.46H43.3zm21.21 9.3c1.33-1.53 1.25-3.36-.2-4.81-.78-.77-1.55-.86-6.44-.98l-5.57-.18v7.35h11.06zm-1.02-13.94c1.37-1.41 1.54-2.48.6-4.3-.86-1.63-2.75-2.14-7.8-2.14h-4v7.68h4.98c4.89 0 4.97 0 6.22-1.24"/><path fill="#00BAF2" d="M120.81 28.82a2.4 2.4 0 0 1 1.73 2.38q0 1.25-.96 1.93-.96.66-2.8.67h-4.77v-9.55h4.5q1.7 0 2.62.66.92.67.92 1.81 0 .72-.33 1.26-.33.55-.9.84zm-5.02-3.18v2.63h2.53q.93 0 1.43-.33.5-.34.5-.98t-.5-1a2.5 2.5 0 0 0-1.43-.32zm2.89 6.77q2.07 0 2.07-1.39 0-1.37-2.07-1.37h-2.89v2.76zm11.77 1.39-1.96-2.8-.37.01h-2.16v2.79h-1.79v-9.55h3.95q1.26 0 2.17.4.93.41 1.43 1.18.48.76.49 1.81 0 1.08-.53 1.86-.57.81-1.51 1.16l2.2 3.14zm-.04-6.16q0-.9-.6-1.4t-1.77-.5h-2.08v3.81h2.08q1.17 0 1.77-.5t.6-1.41m9.75 3.95h-4.8l-.95 2.21h-1.84l4.32-9.55h1.76l4.33 9.55h-1.86zm-.6-1.4-1.8-4.17-1.8 4.18zm7.34 3.74q-1.1 0-2.15-.3a5 5 0 0 1-1.63-.85l.62-1.37a5.5 5.5 0 0 0 3.17 1.06q1.07 0 1.59-.35.53-.34.53-.9 0-.42-.3-.67-.3-.27-.74-.42-.45-.16-1.23-.34a15 15 0 0 1-1.79-.53 3 3 0 0 1-1.16-.8c-.34-.42-.5-.95-.48-1.5q0-.78.42-1.43.45-.67 1.3-1.04a6.7 6.7 0 0 1 3.87-.16q.85.22 1.47.62l-.56 1.38a5.6 5.6 0 0 0-2.65-.75q-1.05 0-1.58.36-.5.35-.5.93 0 .41.28.68.3.25.76.4.45.15 1.23.35 1.07.25 1.76.51t1.16.81q.5.56.5 1.47 0 .78-.44 1.44-.42.63-1.3 1.02a5 5 0 0 1-2.14.38zm5.38-9.68h1.78v9.55h-1.78zm4.11 0h1.78v8.05h5.02v1.49h-6.8v-9.55"/><path fill="#fff" d="M120.47 41.64q.84.23 1.32.85.48.6.48 1.52a2.2 2.2 0 0 1-.95 1.91q-.93.68-2.73.68h-4.58v-9.56h4.3q1.65 0 2.55.65.9.66.9 1.82a2.3 2.3 0 0 1-1.29 2.13m-5.09-.44h2.82q1.05 0 1.61-.38.58-.39.58-1.15 0-.74-.58-1.13a3 3 0 0 0-1.61-.4h-2.82zm3.16 4.3q1.17 0 1.75-.4.6-.37.6-1.19 0-1.6-2.35-1.6h-3.16v3.18zm9.91 1.2q-1.45 0-2.62-.62a4.8 4.8 0 0 1-2.5-4.26 4.7 4.7 0 0 1 2.5-4.25 5.4 5.4 0 0 1 2.62-.64q1.44 0 2.6.64a4.8 4.8 0 0 1 2.49 4.24 4.7 4.7 0 0 1-2.48 4.26c-.8.43-1.7.65-2.6.64zm0-1.2q1.06 0 1.9-.48.85-.48 1.33-1.32.5-.86.49-1.89a3.6 3.6 0 0 0-3.72-3.66q-1.05 0-1.92.48a3.5 3.5 0 0 0-1.82 3.18 3.5 3.5 0 0 0 1.82 3.2q.87.48 1.92.48m6.91-8.46h1.38v8.36h5.2v1.2h-6.58zm10.58 9.67a7 7 0 0 1-2.1-.33 4 4 0 0 1-1.58-.88l.51-1.06c.9.71 2.02 1.1 3.17 1.1q1.2 0 1.78-.4.6-.4.6-1.07 0-.5-.34-.8-.35-.33-.8-.47-.46-.16-1.32-.37-.9-.2-1.76-.52a3 3 0 0 1-1.14-.8 2 2 0 0 1-.47-1.45q0-.75.4-1.38.42-.61 1.24-.98a6.4 6.4 0 0 1 3.72-.15 4 4 0 0 1 1.4.63l-.44 1.1a5 5 0 0 0-2.64-.78 3 3 0 0 0-1.75.42 1.3 1.3 0 0 0-.58 1.1q0 .48.33.79.33.3.8.48.5.15 1.34.35 1.08.26 1.74.52t1.13.8q.47.52.47 1.43a2.5 2.5 0 0 1-1.66 2.36q-.83.36-2.05.36m11.56-2.5h-5.1l-1.06 2.39h-1.4l4.34-9.56h1.36L160 46.6h-1.44zm-.48-1.1-2.07-4.67-2.07 4.67zm-37.3 11.35q1.02.2 1.56.8.55.62.55 1.6 0 1.22-.9 1.88a4.4 4.4 0 0 1-2.64.66h-4.28v-9.56h4c.86-.05 1.72.17 2.44.64q.87.62.87 1.8 0 .82-.44 1.38-.42.56-1.16.8m-5-4.02v3.8h3.27q1.04.06 1.93-.48.69-.48.69-1.43 0-.93-.69-1.4-.67-.5-1.93-.49zm3.57 8.36c.74.04 1.47-.13 2.11-.49q.73-.49.73-1.5t-.73-1.48a4 4 0 0 0-2.1-.48h-3.59v3.94zm11.97-2.1h-5.56l-1.22 2.69h-.76l4.42-9.56h.7l4.41 9.56h-.75zm-.25-.59-2.53-5.51-2.5 5.51zm3.99-6.28h.7v8.93h5.52v.64H134zm11.9 9.63q-1.42 0-2.56-.63a4.7 4.7 0 0 1-2.43-4.22 4.7 4.7 0 0 1 2.43-4.22 5.3 5.3 0 0 1 2.55-.62q1.05 0 1.92.34.89.33 1.5.99l-.44.44a4 4 0 0 0-2.95-1.13q-1.2 0-2.2.55a4.2 4.2 0 0 0-2.11 3.66q0 1.18.57 2.15a4 4 0 0 0 1.55 1.5 4.4 4.4 0 0 0 2.2.55q1.77 0 2.94-1.15l.44.45a4 4 0 0 1-1.51 1q-.91.34-1.9.34m11.44-2.76h-5.57l-1.22 2.69h-.76l4.42-9.56h.7l4.41 9.56h-.75zm-.27-.59-2.52-5.51-2.5 5.51zm-1.6-7.16q-.3 0-.55-.13-.23-.16-.5-.4a3 3 0 0 0-.39-.3.6.6 0 0 0-.84.14q-.19.22-.22.64h-.45q.03-.61.33-.99t.81-.38q.3 0 .53.15.25.14.51.38l.39.32q.16.1.34.1.32-.02.5-.24.19-.24.23-.63h.45q-.03.6-.34.97a1 1 0 0 1-.8.37m9.53 10.5a4.82 4.82 0 0 1-4.37-7.28 4.7 4.7 0 0 1 1.81-1.76 5 5 0 0 1 2.57-.64q1.41 0 2.55.63A4.8 4.8 0 0 1 170 54.6a4.77 4.77 0 0 1-5 4.84m0-.63q1.22 0 2.19-.55a4.1 4.1 0 0 0 2.1-3.66 4.15 4.15 0 0 0-4.28-4.2q-1.2 0-2.2.55a4.2 4.2 0 0 0-2.1 3.66q0 1.18.57 2.15.56.95 1.53 1.5 1 .55 2.2.55zm-68.97-42.1h1.31q1.97.02 1.99 1.4c0 .8-.7 1.33-1.7 1.33-1.1 0-1.74-.57-1.82-1.28h-3.55c.12 2.52 2.27 4.16 5.38 4.16 3.4 0 5.47-1.54 5.47-3.96 0-1.67-1.2-2.73-3.13-2.93v-.07c1.4-.28 2.6-1.3 2.6-2.94 0-2.24-2.15-3.43-4.96-3.43-2.94 0-4.96 1.57-5.05 4.07h3.35c.08-.83.69-1.36 1.7-1.36.9 0 1.54.43 1.54 1.26 0 .82-.67 1.31-1.82 1.31h-1.31z"/></svg>