<svg xmlns="http://www.w3.org/2000/svg" width="132" height="60" viewBox="0 0 132 60"><path fill="#0143D5" d="M22.89 33.02c0 4.22 1.79 5.92 6.02 5.92 4.24 0 6.3-1.64 6.3-5.9v-1.08c0-3.99-1.74-5.96-5.7-5.96-1.25 0-2.33.27-3.26 1v-5.87l-3.36.52zm9.24-.95v.98c0 2.55-.86 3.43-3.15 3.43-2.28 0-3.01-.88-3.01-3.46v-1.31c0-2.35.73-3.14 3.06-3.14 2.27 0 3.1 1.35 3.1 3.5m13.3-5.5h-4.62v-3.71l-3.36.49v10.6c0 3.66 1.6 4.99 5.52 4.99h1.71l.6-2.82H43.2c-1.79 0-2.38-.44-2.38-2.39v-4.91h4.08zm.98 5.31v.62c0 3.87 1.8 5.87 5.79 5.87 1.27 0 2.55-.34 3.46-1.06v.46c0 2.19-.95 2.85-3.18 2.85h-1.33c-.76 0-1.11.2-1.57.96q-.53.82-1.12 1.6h4.18c4.12 0 6.09-1.57 6.09-5.53v-5.98c0-3.96-1.89-5.67-6.04-5.67h-.12c-.97-.03-6.16-.24-6.16 5.88m9.24 1.07c0 2.22-.79 2.9-3.08 2.9-2.58 0-3.08-.88-3.08-3.45V32c0-2.55.44-3.47 3.08-3.47 2.63 0 3.08.9 3.08 3.49zm12.23-5.82c-3.2 0-4.68 1.5-4.68 4.88v9.17h1.12v-4.7c.73.93 2.04 1.33 3.67 1.33 3.18 0 4.73-1.32 4.73-4.74v-1.04c0-3.4-1.62-4.9-4.84-4.9m3.82 5.94c0 2.9-1.12 3.81-3.7 3.81-2.46 0-3.68-1.07-3.68-3.43v-1.43c0-2.82.97-3.97 3.56-3.97 2.6 0 3.82 1.14 3.82 3.98zm49.18-9.88v14.62H122V23.2zm-15.97 13.5c2.2 0 3.1-.64 3.1-3.13v-6.43h1.11v6.43c0 3.03-1.2 4.25-4.21 4.25s-4.19-1.2-4.19-4.25v-6.43h1.12v6.43c0 2.45 1 3.13 3.07 3.13m-5.87-9.56-.23 1.12h-4.25v5.88c0 2.05.59 2.56 2.69 2.56h1.8l-.3 1.12h-1.5c-2.77 0-3.8-1.01-3.8-3.73V24.5l1.11-.2v2.82zm-10.41 1.12c-2.73 0-3.59.9-3.59 3.78v.88c0 2.82.93 3.78 3.6 3.78h2.56l-.22 1.12h-2.34c-3.26 0-4.72-1.51-4.72-4.89v-.9c0-3.38 1.46-4.9 4.72-4.9h2.52l-.23 1.13zm-13.37-1.12-.22 1.12h2.9c2.64 0 3.46.57 3.46 2.68v1.03c-.66-.66-1.75-.9-3.41-.9-2.63 0-3.92 1.02-3.92 3.33v.16q0 3.26 3.79 3.26h.67c2.61 0 4-1.1 4-3.26v-3.6c0-2.7-1.36-3.82-4.6-3.82zm6.14 7.63c0 1.61-.78 2.2-2.86 2.2h-.4c-2.04 0-2.9-.7-2.9-2.34v-.17c0-1.78.82-2.54 2.74-2.54h.15c2.3 0 3.27.73 3.27 2.47z"/><path fill="#0143D5" d="M11.13 30c0-4.77 1.63-9.41 4.63-13.13a20.8 20.8 0 0 1 25.59-5.47 20.8 20.8 0 0 1 9.55 10.1h1.22a22 22 0 0 0-9.67-10.79 21.8 21.8 0 0 0-26.92 4.67 22.05 22.05 0 0 0 10.35 35.77A21.8 21.8 0 0 0 51.1 40.62c-.8 0-1.53.43-1.98 1.1a20.8 20.8 0 0 1-23.3 8.23 20.8 20.8 0 0 1-10.62-7.54A21 21 0 0 1 11.13 30m100.86-2.87-.23 1.12h2.9c2.64 0 3.47.57 3.47 2.68v1.03c-.66-.66-1.76-.9-3.41-.9-2.64 0-3.92 1.02-3.92 3.33v.16q0 3.26 3.78 3.26h.67c2.62 0 4-1.1 4-3.26v-3.6c0-2.7-1.35-3.82-4.6-3.82zm6.14 7.63c0 1.61-.78 2.2-2.87 2.2h-.4c-2.04 0-2.89-.7-2.89-2.34v-.17c0-1.78.81-2.54 2.73-2.54h.16c2.3 0 3.27.73 3.27 2.47z"/></svg>