<svg xmlns="http://www.w3.org/2000/svg" width="200" height="60" viewBox="0 0 200 60"><path fill="#0143D5" d="M47.65 33.7c0 5.18 2.18 7.27 7.32 7.27s7.64-2.01 7.64-7.23v-1.33c0-4.9-2.12-7.31-6.92-7.31a6.2 6.2 0 0 0-3.96 1.21v-7.2l-4.08.64zm11.22-1.16v1.2c0 3.13-1.05 4.21-3.82 4.21s-3.66-1.08-3.66-4.24v-1.62c0-2.88.89-3.85 3.71-3.85 2.77 0 3.77 1.66 3.77 4.3m16.15-6.75h-5.61v-4.56l-4.08.6v13c0 4.5 1.94 6.14 6.71 6.14h2.07l.74-3.45H72.3c-2.17 0-2.9-.55-2.9-2.94v-6.03h4.96zm1.19 6.52v.76c0 4.75 2.18 7.2 7.03 7.2 1.55 0 3.1-.41 4.2-1.3v.57c0 2.68-1.15 3.5-3.86 3.5h-1.61c-.92 0-1.35.25-1.9 1.17q-.66 1.02-1.37 1.96h5.08c5 0 7.39-1.92 7.39-6.78v-7.35c0-4.85-2.29-6.94-7.33-6.94h-.15c-1.17-.05-7.48-.3-7.48 7.2m11.22 1.3c0 2.73-.96 3.56-3.74 3.56-3.13 0-3.74-1.07-3.74-4.23v-.49c0-3.13.54-4.25 3.74-4.25s3.74 1.1 3.74 4.28zm14.85-7.13c-3.87 0-5.67 1.85-5.67 6v11.25h1.36v-5.79c.88 1.16 2.46 1.65 4.45 1.65 3.86 0 5.75-1.62 5.75-5.82v-1.28c0-4.18-1.98-6.01-5.89-6.01m4.65 7.29c0 3.56-1.36 4.68-4.51 4.68-2.98 0-4.45-1.32-4.45-4.21v-1.76c0-3.46 1.17-4.88 4.31-4.88 3.15 0 4.65 1.4 4.65 4.9zm59.71-12.12v17.94H168V21.65zm-19.4 16.56c2.69 0 3.76-.79 3.76-3.85v-7.88h1.36v7.88c0 3.72-1.46 5.23-5.11 5.23s-5.09-1.47-5.09-5.23v-7.88h1.36v7.88c0 3.01 1.2 3.85 3.73 3.85m-7.12-11.73-.28 1.38h-5.16v7.2c0 2.52.72 3.15 3.27 3.15h2.17l-.35 1.38h-1.82c-3.37 0-4.63-1.25-4.63-4.59V23.27l1.36-.23v3.45zm-12.65 1.38c-3.3 0-4.35 1.1-4.35 4.63v1.08c0 3.46 1.13 4.64 4.37 4.64h3.11l-.27 1.38h-2.84c-3.96 0-5.73-1.86-5.73-6v-1.11c0-4.15 1.77-6 5.73-6h3.06l-.27 1.38zm-16.22-1.38-.28 1.38h3.53c3.2 0 4.2.69 4.2 3.28v1.26c-.8-.81-2.12-1.1-4.14-1.1-3.2 0-4.76 1.25-4.76 4.1v.18q0 4 4.6 4h.82c3.16 0 4.84-1.34 4.84-4v-4.43c0-3.3-1.64-4.67-5.56-4.67zm7.45 9.37c0 1.97-.94 2.7-3.48 2.7h-.49c-2.47 0-3.5-.87-3.5-2.88v-.2c0-2.19.99-3.13 3.32-3.13h.18c2.8 0 3.97.9 3.97 3.03z"/><path fill="#0143D5" d="M33.37 30c0-5.86 1.98-11.55 5.62-16.12a25.2 25.2 0 0 1 14.37-8.94 25 25 0 0 1 16.7 2.23 25.5 25.5 0 0 1 11.6 12.4h1.49A27 27 0 0 0 71.4 6.34 26.3 26.3 0 0 0 54.07 3.4a26.5 26.5 0 0 0-15.35 8.66 27.3 27.3 0 0 0-1.78 33.6 26.6 26.6 0 0 0 14.34 10.3 26.2 26.2 0 0 0 17.54-1.03 26.7 26.7 0 0 0 13.09-11.9c-.97 0-1.86.53-2.41 1.35A25.3 25.3 0 0 1 67 54.16a25 25 0 0 1-15.8.33 25.3 25.3 0 0 1-12.89-9.26A26 26 0 0 1 33.37 30m122.47-3.52-.28 1.38h3.53c3.2 0 4.21.69 4.21 3.28v1.26c-.8-.81-2.13-1.1-4.15-1.1-3.2 0-4.75 1.25-4.75 4.1v.18q0 4 4.6 4h.8c3.18 0 4.86-1.34 4.86-4v-4.43c0-3.3-1.64-4.67-5.57-4.67zm7.46 9.37c0 1.97-.95 2.7-3.48 2.7h-.49c-2.47 0-3.5-.87-3.5-2.88v-.2c0-2.19.98-3.13 3.31-3.13h.2c2.78 0 3.96.9 3.96 3.03z"/></svg>