<svg xmlns="http://www.w3.org/2000/svg" width="200" height="80" viewBox="0 0 200 80"><path fill="#0143D5" d="M41.5 42.12c0 5.75 2.42 8.07 8.17 8.07s8.54-2.24 8.54-8.03v-1.48c0-5.44-2.36-8.13-7.73-8.13-1.7 0-3.16.37-4.43 1.35v-8l-4.56.71zm12.53-1.3v1.34c0 3.48-1.17 4.67-4.27 4.67s-4.09-1.2-4.09-4.71v-1.8c0-3.2 1-4.27 4.15-4.27 3.1 0 4.21 1.84 4.21 4.77m18.06-7.5H65.8v-5.06l-4.56.67v14.45c0 5 2.17 6.8 7.5 6.8h2.32l.82-3.83h-2.84c-2.44 0-3.24-.6-3.24-3.26v-6.7h5.54zm1.32 7.24v.85c0 5.28 2.44 8 7.86 8 1.73 0 3.46-.46 4.7-1.44v.63c0 2.98-1.3 3.89-4.32 3.89h-1.8c-1.03 0-1.51.27-2.13 1.3q-.73 1.13-1.53 2.18h5.68c5.59 0 8.26-2.14 8.26-7.54v-8.16c0-5.39-2.56-7.72-8.2-7.72h-.16c-1.3-.05-8.36-.34-8.36 8.01m12.54 1.46c0 3.03-1.07 3.95-4.18 3.95-3.5 0-4.18-1.19-4.18-4.7v-.55c0-3.48.6-4.72 4.18-4.72s4.18 1.23 4.18 4.76zm16.6-7.93c-4.33 0-6.34 2.05-6.34 6.66v12.5h1.52v-6.42c.98 1.28 2.75 1.82 4.97 1.82 4.31 0 6.43-1.8 6.43-6.46v-1.43c0-4.64-2.2-6.67-6.58-6.67m5.2 8.1c0 3.95-1.53 5.2-5.05 5.2-3.32 0-4.97-1.47-4.97-4.68v-1.95c0-3.85 1.31-5.43 4.82-5.43s5.2 1.56 5.2 5.44zm66.73-13.47v19.93H176V28.72zm-21.67 18.4c3 0 4.2-.88 4.2-4.27v-8.76h1.51v8.76c0 4.13-1.63 5.8-5.71 5.8-4.1 0-5.69-1.63-5.69-5.8v-8.76h1.52v8.76c0 3.34 1.35 4.27 4.17 4.27m-7.97-13.03-.32 1.53h-5.76v8.01c0 2.8.8 3.49 3.65 3.49h2.43l-.4 1.53h-2.03c-3.76 0-5.17-1.38-5.17-5.09V30.51l1.52-.26v3.84zm-14.13 1.53c-3.7 0-4.87 1.22-4.87 5.15v1.2c0 3.84 1.26 5.15 4.88 5.15h3.48l-.3 1.53h-3.18c-4.42 0-6.4-2.06-6.4-6.67v-1.22c0-4.61 1.98-6.67 6.4-6.67h3.42l-.3 1.53zm-18.14-1.53-.3 1.53h3.93c3.59 0 4.7.77 4.7 3.65v1.4c-.9-.9-2.37-1.22-4.63-1.22-3.57 0-5.31 1.38-5.31 4.54v.22q0 4.43 5.13 4.44h.92c3.54 0 5.41-1.5 5.41-4.44v-4.93c0-3.66-1.84-5.2-6.22-5.2zm8.34 10.4c0 2.2-1.06 3.01-3.9 3.01h-.54c-2.76 0-3.92-.96-3.92-3.2v-.23c0-2.43 1.1-3.47 3.71-3.47h.2c3.12 0 4.45 1 4.45 3.37z"/><path fill="#0143D5" d="M25.53 38.01c0-6.52 2.22-12.85 6.28-17.92a28.2 28.2 0 0 1 16.06-9.93 28 28 0 0 1 18.67 2.48 28.4 28.4 0 0 1 12.97 13.78h1.66A30 30 0 0 0 68.03 11.7a29.5 29.5 0 0 0-36.52 6.37 30.2 30.2 0 0 0-2 37.34 29.7 29.7 0 0 0 16.04 11.43 29.5 29.5 0 0 0 19.6-1.14 29.8 29.8 0 0 0 14.63-13.2 3.3 3.3 0 0 0-2.7 1.49 28.2 28.2 0 0 1-13.97 10.87 28 28 0 0 1-17.65.36 28.2 28.2 0 0 1-14.4-10.29 28.6 28.6 0 0 1-5.53-16.91m136.88-3.92-.3 1.53h3.93c3.58 0 4.7.77 4.7 3.65v1.4c-.89-.9-2.38-1.22-4.63-1.22-3.57 0-5.3 1.38-5.3 4.54v.22q0 4.43 5.12 4.44h.91c3.55 0 5.43-1.5 5.43-4.44v-4.93c0-3.66-1.84-5.2-6.23-5.2zm8.34 10.4c0 2.2-1.06 3.01-3.9 3.01h-.54c-2.77 0-3.92-.96-3.92-3.2v-.23c0-2.43 1.1-3.47 3.7-3.47h.22c3.12 0 4.44 1 4.44 3.37z"/></svg>