<svg width="200" height="80" viewBox="0 0 200 80" xmlns="http://www.w3.org/2000/svg"><path d="m57.74 17 13.43 15.6L84.5 17H57.74Zm13.43 10.22a4.18 4.18 0 0 1-4.08-4.3 4.2 4.2 0 0 1 4.08-4.3c2.24 0 4.1 1.92 4.1 4.3a4.2 4.2 0 0 1-4.1 4.3Zm17.79-6.99L74.72 36.82 85.2 49.08l.26.26c1.66-2.9 3.56-6.86 3.56-11.9 0-5.3-.06-17.2-.06-17.2Zm-6.03 20.34a4.18 4.18 0 0 1-4.08-4.3 4.2 4.2 0 0 1 4.08-4.3 4.2 4.2 0 0 1 4.08 4.3c0 2.38-1.81 4.3-4.08 4.3ZM53 37.44l.03-17.33 14.52 16.76-10.84 12.65C55.05 46.6 53 42.46 53 37.44Zm2.19-1.17c0 2.38 1.81 4.3 4.08 4.3a4.2 4.2 0 0 0 4.1-4.3c0-2.38-1.87-4.3-4.1-4.3a4.2 4.2 0 0 0-4.08 4.3ZM71.13 41 60 53.9c3.58 4.18 10.37 9.13 11.03 9.1.73-.03 7.58-5.08 11.16-9.3L71.13 41Zm.03 14.12a4.18 4.18 0 0 1-4.08-4.3 4.2 4.2 0 0 1 4.08-4.3 4.2 4.2 0 0 1 4.08 4.3 4.2 4.2 0 0 1-4.08 4.3ZM97 17h4v28h-4V17Zm25 0h-16v28h16v-4h-12v-8h11v-4h-11v-8h12v-4Zm18.37 13.12v.08c4.14.78 6.66 3.53 6.63 7.32 0 3.45-2.54 7.48-9.5 7.48H128V17h8.05c5.98 0 8.54 3.6 8.54 7.14 0 2.9-1.35 4.78-4.22 5.98ZM135.63 21H132v8h2.62c3.93 0 5.76-1.31 5.76-4.32 0-2.1-1.1-3.68-4.75-3.68ZM132 41h4.98c4.3 0 5.92-.97 5.92-4.08 0-2.53-1.94-3.92-6.13-3.92H132v8Zm-46.85-4h-4.53v1h4.53v-1Zm-.33-1.27c0 .29.32.96.32.96l.97-1.82s-.47.05-.58.13c-.08.09-.13.22-.17.3l-.04.1c-.24-.09-.29-.06-.4 0-.1.04-.1.07-.1.33Zm-1.92.93s-.76-.5-.92-.8c-.16-.29-.16-.31-.1-.44.07-.13.13-.18.44-.26v-.1a1.2 1.2 0 0 1 0-.5c.06-.15.58-.54.58-.54s.53.4.58.55c.05.15.02.37 0 .5v.09c.32.08.37.13.45.26.08.13.08.15-.1.44-.17.31-.93.8-.93.8Zm-1.97-.93c0 .29-.32.96-.32.96l-.97-1.82s.47.05.58.13c.08.09.13.22.17.3l.04.1c.24-.09.29-.06.4 0 .1.04.1.07.1.33Zm-7.29-11.7h-5v1h5v-1Zm-.55-1.67c0 .28.31.95.31.95s1-1.79.98-1.81c0 0-.47.05-.58.13a.88.88 0 0 0-.17.3l-.04.09c-.24-.08-.3-.05-.4 0-.1.05-.1.08-.1.34Zm-1.92.95s-.76-.49-.92-.8c-.16-.28-.16-.3-.1-.44.07-.13.12-.18.44-.26v-.09a1.2 1.2 0 0 1 0-.5c.05-.16.58-.54.58-.54s.52.39.58.54c.05.16.02.37 0 .5v.1c.31.07.36.12.44.25.08.13.08.16-.1.44-.19.32-.92.8-.92.8Zm-1.99-.95c0 .28-.32.95-.32.95s-1-1.79-.97-1.81c0 0 .47.05.58.13.08.08.14.22.17.3l.04.09c.24-.08.3-.05.4 0 .1.05.1.08.1.34ZM61.53 37H57v1h4.53v-1Zm-.35-1.3c0 .29.32.96.32.96s1-1.79.97-1.81c0 0-.47.05-.58.13-.08.08-.13.21-.17.3l-.04.08c-.24-.07-.29-.05-.4 0-.1.06-.1.08-.1.34Zm-1.92.96s-.76-.5-.92-.8c-.16-.29-.16-.31-.1-.44.07-.13.13-.18.44-.26v-.1a1.2 1.2 0 0 1 0-.5c.06-.15.58-.54.58-.54s.53.4.58.55c.05.15.02.37 0 .5v.09c.32.08.37.13.45.26.08.13.08.15-.1.44-.2.31-.93.8-.93.8Zm-2-.93c0 .29-.31.96-.31.96l-.97-1.82s.47.05.57.13c.09.09.14.22.17.3l.05.1c.23-.09.29-.06.4 0 .1.04.1.07.1.33ZM73.38 52h-4.53v1h4.53v-1Zm-.3-1.73c0 .29.31.96.31.96s1-1.81.97-1.81c0 0-.47.05-.57.13-.09.08-.14.21-.17.3l-.05.08c-.23-.07-.29-.05-.4 0-.1.06-.1.08-.1.34Zm-1.93.96s-.77-.5-.92-.8c-.16-.29-.16-.31-.11-.44.08-.13.13-.18.45-.26v-.1a1.2 1.2 0 0 1 0-.5c.05-.15.58-.54.58-.54s.52.4.57.54c.06.16.03.38 0 .5v.1c.32.08.37.13.45.26.08.13.08.15-.1.44-.16.29-.92.8-.92.8Zm-1.98-.96c0 .29-.32.96-.32.96l-.97-1.81s.47.05.57.13c.09.08.14.21.17.3l.05.08c.23-.07.29-.05.4 0 .1.06.1.08.1.34ZM147 53.74h-7V51h7v2.74ZM140 61h7v-3h-7v3Zm-36-7h-7v-3h7v3Zm-7 7h7v-3h-7v3Zm9.63-8.89v2.17l1.37-.92V62h2V51h-1.77l-1.6 1.11Zm21.52 3.43c-.16.3-.37.53-.6.72.28.24.55.53.7.88a3 3 0 0 1 .43 1.57v.17c0 .64-.16 1.17-.43 1.65-.26.46-.65.83-1.16 1.1-.47.24-1.08.37-1.7.37-.64 0-1.21-.1-1.72-.38-.5-.24-.86-.61-1.15-1.09a3.15 3.15 0 0 1-.43-1.65v-.17a3.27 3.27 0 0 1 1.19-2.48 2.35 2.35 0 0 1-.6-.72c-.24-.4-.38-.85-.38-1.3v-.25c0-.88.3-1.63.87-2.16.56-.53 1.32-.8 2.24-.8.92 0 1.69.27 2.24.8.58.54.87 1.28.87 2.16v.24c0 .49-.13.94-.37 1.34Zm-3.73 2.22c-.24.24-.38.56-.38.96v.16c0 .4.14.7.38.93.23.24.57.35 1 .35.42 0 .73-.13 1-.37.23-.24.36-.56.36-.96v-.11c0-.4-.13-.72-.36-.96-.24-.27-.58-.38-1-.38-.43 0-.74.14-1 .38Zm1.83-2.62c.22-.22.32-.5.32-.9v-.09c0-.37-.1-.67-.32-.88-.2-.21-.5-.32-.84-.32-.34 0-.63.1-.84.32-.21.21-.32.5-.32.88v.1c0 .38.1.67.32.92.21.21.5.32.84.32.34 0 .63-.14.84-.35Zm8.46-4.14c-2 0-3.03 1.57-3.03 3.44 0 .97.24 1.78.7 2.37.51.62 1.14.94 1.96.94.18 0 .34-.03.5-.05l-2.1 4.3h2.1l2.18-4.6c.24-.49.43-1 .53-1.5.13-.52.18-1 .18-1.46 0-1.75-1.06-3.44-3.02-3.44Zm1.1 3.39c0 .73-.26 1.48-1.1 1.48-.85 0-1.1-.74-1.1-1.48 0-.73.27-1.45 1.1-1.45.83 0 1.1.72 1.1 1.45Zm-22.69.06c0-1.08.27-1.94.8-2.53.74-.95 2.08-.92 2.22-.92h.01c.95 0 1.72.32 2.24.89.53.62.79 1.48.79 2.55 0 .46-.05.94-.19 1.45-.1.52-.28 1.03-.52 1.51l-2.19 4.6h-2.1l2.1-4.3c-.15.03-.31.05-.5.05-.81 0-1.44-.32-1.95-.94-.47-.6-.7-1.4-.7-2.36Zm3.85 1.07c.18-.24.29-.64.29-1.13 0-.48-.1-.86-.3-1.1-.18-.24-.44-.35-.8-.35-.37 0-.64.1-.82.35-.19.24-.3.62-.3 1.1 0 .49.08.86.3 1.13.18.24.45.35.81.35.37 0 .63-.1.82-.35Z" fill="#02579C"/></svg>