<svg xmlns="http://www.w3.org/2000/svg" width="132" height="60" viewBox="0 0 132 60"><path fill="#F7A600" d="M89.17 39.3V11h5.71v28.3z"/><path fill="#fff" d="M22.73 49H10V19.9h12.22c5.93 0 9.38 3.18 9.38 8.17a6.7 6.7 0 0 1-3.75 6.01 6.8 6.8 0 0 1 4.19 6.54c0 5.44-3.89 8.38-9.3 8.38m-.98-24.26h-6.04v7.28h6.04c2.52 0 3.76-1.7 3.76-3.7s-1.24-3.58-3.76-3.58m.38 12.13H15.7v7.28h6.42c2.7 0 4.2-1.85 4.2-3.82 0-1.95-1.5-3.46-4.2-3.46m27.08.2V49h-5.77V37.07l-8.95-17.18h6.31l5.56 11.74 5.48-11.74h6.31zM74.49 49H62.24V19.9H74c5.71 0 9.05 3.18 9.05 8.17a6.7 6.7 0 0 1-3.63 6.01 6.7 6.7 0 0 1 4.04 6.54c0 5.44-3.74 8.38-8.97 8.38m-.94-24.26h-5.6v7.28h5.6c2.42 0 4.2-1.7 4.2-3.7s-1.78-3.58-4.2-3.58m.36 12.13h-5.95v7.28h5.95c2.6 0 3.83-1.85 3.83-3.82 0-1.95-1.23-3.46-3.83-3.46m39.37-11.9V49h-5.78V24.96h-7.72V19.9H121v5.07z"/></svg>