<svg xmlns="http://www.w3.org/2000/svg" width="200" height="80" viewBox="0 0 200 80"><path fill="#F7A600" d="M129 48V13h7v35z"/><path fill="#fff" d="M47.6 60H32V24h14.97c7.27 0 11.5 3.94 11.5 10.11 0 4-2.71 6.58-4.6 7.44A8.4 8.4 0 0 1 59 49.64C59 56.36 54.24 60 47.6 60m-1.2-30H39v9h7.4c3.08 0 4.6-2.1 4.6-4.58S49.48 30 46.4 30m.46 15H39v9h7.86c3.3 0 5.14-2.29 5.14-4.72S50.16 45 46.86 45m33.18.24V60h-7.07V45.24L62 24h7.74l6.81 14.51L83.26 24H91zM111.02 60H96V24h14.41c7 0 11.09 3.94 11.09 10.11 0 4-2.62 6.58-4.44 7.44 2.17 1 4.94 3.28 4.94 8.09 0 6.72-4.58 10.36-10.98 10.36m-1.16-30H103v9h6.86c2.97 0 5.14-2.1 5.14-4.58S112.83 30 109.86 30m.45 15h-7.3v9h7.3c3.18 0 4.69-2.29 4.69-4.72S113.49 45 110.31 45m48.23-14.73V60h-7.08V30.27H142V24h26v6.27z"/></svg>