<svg xmlns="http://www.w3.org/2000/svg" width="200" height="60" viewBox="0 0 200 60"><path fill="#F7A600" d="M125.59 39.53V9h6.17v30.53z"/><path fill="#fff" d="M53.76 50H40V18.6h13.2c6.42 0 10.16 3.43 10.16 8.82 0 3.48-2.4 5.74-4.06 6.49a7.4 7.4 0 0 1 4.52 7.05c0 5.86-4.2 9.04-10.06 9.04m-1.05-26.17h-6.53v7.85h6.53c2.71 0 4.05-1.83 4.05-4s-1.34-3.85-4.05-3.85m.4 13.08h-6.93v7.86h6.93c2.91 0 4.54-2 4.54-4.12 0-2.11-1.63-3.74-4.54-3.74m29.28.21V50h-6.24V37.12L66.47 18.6h6.83l6 12.65 5.93-12.65h6.83zM109.72 50H96.47V18.6h12.72c6.17 0 9.78 3.43 9.78 8.82a7.3 7.3 0 0 1-3.92 6.49c1.92.87 4.36 2.86 4.36 7.05 0 5.86-4.04 9.04-9.69 9.04m-1.02-26.17h-6.05v7.85h6.05c2.62 0 4.53-1.83 4.53-4s-1.9-3.85-4.53-3.85m.4 13.08h-6.44v7.86h6.44c2.8 0 4.14-2 4.14-4.12 0-2.11-1.34-3.74-4.14-3.74m42.55-12.84V50h-6.24V24.07h-8.35V18.6H160v5.47z"/></svg>