<svg xmlns="http://www.w3.org/2000/svg" width="620" height="468" fill="none" viewBox="0 0 620 468"><g clip-path="url(#a0cytzyoe)"><path fill="#000" d="M0 0h620v468H0z"/><g fill="#07EAB9" filter="url(#b0cytzyoe)"><path d="M44 165.73h5.6v17.97H44z"/><path d="M45.68 133.16h1.12v52.41h-1.12zM50.73 184.82h5.6v21.34h-5.6z"/><path d="M52.41 171.34h1.12v44.93h-1.12zM57.46 139.9h5.6v21.34h-5.6z"/><path d="M59.14 136.53h1.12v57.09h-1.12zM70.92 93.85h5.6v7.86h-5.6z"/><path d="M72.6 87.11h1.12v22.46H72.6zM91.1 52.3h5.61v2.24h-5.6z"/><path d="M92.79 35.45h1.12v34.63h-1.12zM77.64 38.82h5.61v46.04h-5.6z"/><path d="M79.33 37.7h1.12v46.79h-1.12zM64.19 103.96h5.6v35.94h-5.6z"/><path d="M65.87 100.59H67v51.47h-1.12zM144.93 151.13h5.61v43.8h-5.6z"/><path d="M146.62 146.64h1.12v59.9h-1.12zM151.66 111.82h5.61v39.3h-5.6z"/><path d="M153.35 109.57h1.12v60.84h-1.12zM171.85 138.77h5.6v24.71h-5.6z"/><path d="M173.53 128.67h1.12v38.37h-1.12zM245.87 117.44h5.6v10.1h-5.6z"/><path d="M247.55 114.07h1.12v35.56h-1.12zM286.24 94.97h5.6v4.5h-5.6z"/><path d="M287.92 89.36h1.12v24.33h-1.12zM266.05 147.76h5.61v11.23h-5.6z"/><path d="M267.74 124.17h1.12v48.67h-1.12zM279.5 115.19h5.62v42.68h-5.61z"/><path d="M281.2 107.33h1.11v54.28h-1.12zM313.15 142.14h5.61v26.96h-5.6z"/><path d="M314.84 141.02h1.12v37.44h-1.12zM360.26 251.09h5.6v46.04h-5.6z"/><path d="M361.94 247.72h1.12v58.02h-1.12zM252.6 100.59h5.6v16.85h-5.6z"/><path d="M254.28 99.46h1.12v35.57h-1.12zM185.3 181.45h5.61v52.79h-5.6z"/><path d="M186.99 165.73h1.12v72.07H187zM232.4 176.96h5.62v64.02h-5.61z"/><path d="M234.1 175.84h1.11v104.82h-1.12zM239.14 115.19h5.6v65.14h-5.6z"/><path d="M240.82 110.7h1.12v77.68h-1.12zM306.43 196.05h5.6v22.46h-5.6z"/><path d="M308.1 187.07h1.13v41.18h-1.12zM353.53 280.29h5.6v141.5h-5.6z"/><path d="M355.21 271.3h1.12v157.24h-1.12zM319.88 145.51h5.61v11.23h-5.6z"/><path d="M321.57 135.4h1.12v44.93h-1.12zM366.99 247.72h5.6v29.2H367z"/><path d="M368.67 243.22h1.12v41.18h-1.12zM380.44 228.62h5.6v30.33h-5.6z"/><path d="M382.13 217.4h1.12v60.83h-1.12zM414.09 278.04h5.6v21.34h-5.6z"/><path d="M415.77 271.3h1.12v55.22h-1.12zM441 385.86h5.6v58.4H441z"/><path d="M442.69 378h1.12v73h-1.12zM447.73 324.09h5.6v37.06h-5.6z"/><path d="M449.41 318.47h1.13v76.75h-1.13zM454.46 309.49h5.6v29.2h-5.6z"/><path d="M456.14 303.87h1.12v46.8h-1.12zM461.19 263.44h5.6v48.3h-5.6z"/><path d="M462.87 256.7H464v65.52h-1.12zM467.92 244.35h5.6v26.95h-5.6z"/><path d="M469.6 230.87h1.12v45.86h-1.12zM474.65 197.18h5.6v46.04h-5.6z"/><path d="M476.33 189.31h1.12v61.78h-1.12zM481.37 178.08h5.61v31.45h-5.6z"/><path d="M483.06 144.39h1.12v69.26h-1.12zM488.1 125.3h5.61v42.68h-5.6z"/><path d="M489.79 124.17h1.12v54.29h-1.12zM494.83 116.31h5.61v12.36h-5.6z"/><path d="M496.52 108.45h1.12v34.63h-1.12zM555.4 151.13h5.6v14.6h-5.6z"/><path d="M557.08 135.4h1.12v48.67h-1.12zM528.48 121.93h5.6v4.49h-5.6z"/><path d="M530.16 114.07h1.12v40.24h-1.12zM535.2 65.77h5.61v53.91h-5.6z"/><path d="M536.89 64.65H538v56.15h-1.12zM501.56 103.96h5.61v48.3h-5.6z"/><path d="M503.25 102.83h1.12v51.48h-1.12zM508.29 57.91h5.6v32.57h-5.6z"/><path d="M509.97 57.91h1.13v37.44h-1.13zM205.5 296.01h5.6v22.46h-5.6z"/><path d="M207.18 287.02h1.12v104.83h-1.12zM212.22 320.72h5.6v12.35h-5.6z"/><path d="M213.9 280.29h1.13v79.55h-1.13zM111.29 7.37h5.6v67.39h-5.6z"/><path d="M112.97 4h1.12v72.07h-1.12z"/></g><g fill="#FF2133" filter="url(#c0cytzyoe)"><path d="M84 42.11h5.61v13.5H84z"/><path d="M85.69 26.37h1.12v39.36h-1.12zM97.48 52.24h5.61v18h-5.61z"/><path d="M99.16 36.5h1.12v34.67h-1.12zM117.69 8.37h5.61V50h-5.61z"/><path d="M119.37 5h1.13v52.49h-1.13zM124.43 49.99h5.61v65.23h-5.61z"/><path d="M126.11 42.11h1.12v76.86h-1.12zM104.21 71.36h5.62v9h-5.62z"/><path d="M105.9 55.61h1.12V82.8h-1.12zM131.17 145.59h5.61v10.12h-5.62z"/><path d="M132.85 109.6h1.12v50.6h-1.12zM137.9 142.21h5.62v11.25h-5.62z"/><path d="M139.59 125.34h1.12v43.12h-1.12zM158.12 98.35h5.61v9h-5.61z"/><path d="M159.8 83.73h1.12v32.8h-1.12zM164.85 102.85h5.62v50.6h-5.62z"/><path d="M166.54 91.6h1.12v66.55h-1.12zM178.33 161.33h5.61v24.74h-5.61z"/><path d="M180.01 147.84h1.13v43.1H180zM259.18 120.84h5.62v22.5h-5.62z"/><path d="M260.87 96.1h1.12v57.17h-1.12zM292.87 125.34h5.62v29.24h-5.62z"/><path d="M294.56 107.35h1.12v54.36h-1.12zM326.56 168.08h5.62v30.37h-5.62z"/><path d="M328.25 155.7h1.12v48.75h-1.12zM340.04 251.3h5.61v10.13h-5.61z"/><path d="M341.72 227.69h1.13v62.8h-1.13zM373.73 254.68h5.61v22.5h-5.61z"/><path d="M375.41 227.69h1.12v65.6h-1.12zM387.2 202.95h5.62v32.61h-5.62z"/><path d="M388.89 197.32H390v45.93h-1.12zM515.22 64.6h5.62v12.38h-5.62z"/><path d="M516.9 49.99h1.13v40.3h-1.12zM521.96 74.73h5.61v44.99h-5.61z"/><path d="M523.64 71.36h1.13v50.6h-1.13zM542.17 79.23h5.62v34.86h-5.62z"/><path d="M543.86 67.98h1.12v54.36h-1.12zM548.9 150.09h5.62v7.87h-5.61z"/><path d="M550.6 132.09h1.12v48.74h-1.13zM562.39 157.96H568v23.62h-5.62z"/><path d="M564.07 157.96h1.12v35.61h-1.12zM393.94 258.06h5.61v19.12h-5.61z"/><path d="M395.63 243.43h1.12v46.87h-1.12zM420.9 316.54h5.6v24.74h-5.6z"/><path d="M422.58 314.29h1.12v60.92h-1.12zM434.37 436.88h5.61v12.37h-5.61z"/><path d="M436.05 399.77h1.13V456h-1.13zM427.63 331.16h5.61v61.86h-5.61z"/><path d="M429.31 328.91h1.13v67.48h-1.13zM407.42 335.66h5.61v20.24h-5.61z"/><path d="M409.1 279.42h1.12v97.48h-1.12zM400.68 273.8h5.61v56.24h-5.61z"/><path d="M402.36 250.18h1.13v82.48h-1.13zM333.3 184.95h5.62v34.87h-5.62z"/><path d="M334.99 174.83h1.12v60.92h-1.12zM346.77 243.43h5.62v76.48h-5.62z"/><path d="M348.46 235.56h1.12v88.1h-1.12zM299.61 150.09h5.62v51.73h-5.62z"/><path d="M301.3 139.96h1.12v69.36h-1.12zM272.66 143.34h5.61v16.87h-5.61z"/><path d="M274.34 127.6h1.13v41.23h-1.13zM191.8 223.19h5.62v35.99h-5.61z"/><path d="M193.49 186.08h1.12v76.85h-1.12zM198.54 259.18h5.62v28.12h-5.62z"/><path d="M200.23 232.19h1.12v57.17h-1.12zM218.76 271.55h5.61v52.86h-5.61z"/><path d="M220.44 259.18h1.13v90.91h-1.13zM225.5 286.17h5.6v44.99h-5.6z"/><path d="M227.18 267.05h1.12v76.86h-1.12z"/></g></g><defs><filter id="b0cytzyoe" width="589" height="519" x="8" y="-32" color-interpolation-filters="sRGB" filterUnits="userSpaceOnUse"><feFlood flood-opacity="0" result="BackgroundImageFix"/><feColorMatrix in="SourceAlpha" result="hardAlpha" values="0 0 0 0 0 0 0 0 0 0 0 0 0 0 0 0 0 0 127 0"/><feOffset/><feGaussianBlur stdDeviation="18"/><feComposite in2="hardAlpha" operator="out"/><feColorMatrix values="0 0 0 0 0.027451 0 0 0 0 0.917647 0 0 0 0 0.72549 0 0 0 0.75 0"/><feBlend in2="BackgroundImageFix" result="effect1_dropShadow_12097_189288"/><feBlend in="SourceGraphic" in2="effect1_dropShadow_12097_189288" result="shape"/></filter><filter id="c0cytzyoe" width="556" height="523" x="48" y="-31" color-interpolation-filters="sRGB" filterUnits="userSpaceOnUse"><feFlood flood-opacity="0" result="BackgroundImageFix"/><feColorMatrix in="SourceAlpha" result="hardAlpha" values="0 0 0 0 0 0 0 0 0 0 0 0 0 0 0 0 0 0 127 0"/><feOffset/><feGaussianBlur stdDeviation="18"/><feComposite in2="hardAlpha" operator="out"/><feColorMatrix values="0 0 0 0 1 0 0 0 0 0.129412 0 0 0 0 0.2 0 0 0 1 0"/><feBlend in2="BackgroundImageFix" result="effect1_dropShadow_12097_189288"/><feBlend in="SourceGraphic" in2="effect1_dropShadow_12097_189288" result="shape"/></filter><clipPath id="a0cytzyoe"><path fill="#fff" d="M0 0h620v468H0z"/></clipPath></defs></svg>