<svg width="560" height="422" viewBox="0 0 560 422" fill="none" xmlns="http://www.w3.org/2000/svg"><path d="M-9 401.27c284.61-38.13 571.9 41.44 679.98 85.98l-33.66-339.01C432.65 5.55 97.06 14.74-45.15 37.17L-9 401.27Z" stroke="url(#azbv0p500)" stroke-width="8"/><path d="M-84.7 304.22c284.7-37.15 570.8 30.35 678.26 68.74L575.7 192.91C372.8 68.3 37.5 80.3-104.8 101.89l20.09 202.33Z" stroke="url(#bzbv0p500)" stroke-width="12"/><g filter="url(#czbv0p500)"><path d="M585.4 291.88c-267.98-85.74-564.1-72.24-678.67-54.77 283-34.61 568.28 25.06 679.02 57.77l-.35-3Z" fill="url(#dzbv0p500)"/></g><defs><linearGradient id="azbv0p500" x1="608.31" y1="231.13" x2="71.84" y2="284.39" gradientUnits="userSpaceOnUse"><stop stop-color="#4DCF4B"/><stop offset="1" stop-color="#FFA031" stop-opacity="0"/></linearGradient><linearGradient id="bzbv0p500" x1="536.8" y1="206.71" x2="4.31" y2="259.58" gradientUnits="userSpaceOnUse"><stop stop-color="#FFA031" stop-opacity="0"/><stop offset="1" stop-color="#4DCF4B"/></linearGradient><linearGradient id="dzbv0p500" x1="642.91" y1="309.04" x2="370.9" y2="318.38" gradientUnits="userSpaceOnUse"><stop stop-color="#4DCF4B"/><stop offset="1" stop-color="#4DCF4B" stop-opacity="0"/></linearGradient><filter id="czbv0p500" x="-95.65" y="221.76" width="683.77" height="75.49" filterUnits="userSpaceOnUse" color-interpolation-filters="sRGB"><feFlood flood-opacity="0"/><feBlend in="SourceGraphic"/><feGaussianBlur stdDeviation="1.19"/></filter></defs></svg>