<svg width="200" height="80" viewBox="0 0 200 80" xmlns="http://www.w3.org/2000/svg"><path d="M84 20a8 8 0 0 1-8-8 8 8 0 0 1-8 8 8 8 0 0 1 8 8 8 8 0 0 1 8-8Z" fill="#D50032"/><path d="M79 48h3v.78h-2.12v1.31h1.62v.78h-1.62v1.35H82V53h-3v-5ZM82.9 51.77c.27.26.62.41.98.42.25 0 .47-.12.47-.34 0-.57-1.74-.5-1.74-1.73 0-.7.6-1.12 1.37-1.12.43-.02.86.13 1.2.44l-.34.7a1.3 1.3 0 0 0-.87-.33c-.23 0-.46.1-.46.35 0 .54 1.74.47 1.74 1.7 0 .63-.52 1.14-1.36 1.14-.52.01-1.01-.2-1.39-.56l.4-.67ZM88.32 49.13c-.24-.1-.5-.14-.75-.13a1.85 1.85 0 0 0-1.79 1.22 2.12 2.12 0 0 0 .43 2.22 1.86 1.86 0 0 0 1.37.56 1.92 1.92 0 0 0 1.47-.62l-.35-.67c-.28.29-.65.46-1.05.48-.14 0-.3-.02-.43-.08a1.08 1.08 0 0 1-.36-.26 1.17 1.17 0 0 1-.32-.86 1.2 1.2 0 0 1 .3-.84 1 1 0 0 1 .78-.34c.35 0 .69.16.94.41l.39-.65c-.18-.2-.4-.34-.63-.44ZM89.68 49h.9v2.32c0 .47.1.8.54.8a1 1 0 0 0 .42-.13c.14-.07.25-.17.35-.3a1.22 1.22 0 0 0 .24-.9V49H93v4h-.84v-.53l.01-.28h-.01c-.12.25-.3.46-.52.6-.22.14-.47.22-.72.21-.77 0-1.24-.42-1.24-1.48V49Z" fill="#fff"/><path fill-rule="evenodd" d="M95.4 49a1.55 1.55 0 0 1 1.17.52 1.68 1.68 0 0 1 .41 1.3l-.02.36H94.5c.02.29.14.55.34.74.2.19.46.29.73.27a1.7 1.7 0 0 0 1.03-.42l.34.68c-.4.36-.9.55-1.43.55a1.72 1.72 0 0 1-1.37-.55A1.97 1.97 0 0 1 93.6 51a2 2 0 0 1 .5-1.43A1.73 1.73 0 0 1 95.4 49Zm.65 1.23c.03.1.04.2.03.3h-1.56a.91.91 0 0 1 .28-.58.8.8 0 0 1 .58-.22.69.69 0 0 1 .52.23c.06.08.11.17.15.27Z" fill="#fff"/><path d="M97.6 48h.88v3.72c0 .4.13.49.36.49H99v.77l-.3.02c-.5 0-1.1-.13-1.1-1.15V48ZM101.38 50.52h.12v-.05c0-.5-.3-.68-.68-.68-.35.03-.7.15-.98.37l-.34-.68c.41-.3.9-.47 1.4-.47a1.25 1.25 0 0 1 1.08.38 1.43 1.43 0 0 1 .4 1.14V53h-.82v-.4c0-.1 0-.19.02-.28h-.02c-.1.22-.25.4-.45.51-.19.12-.41.18-.63.17a1.05 1.05 0 0 1-.85-.32 1.26 1.26 0 0 1-.36-.88c0-1.2 1.53-1.28 2.11-1.28m-.68 1.74a.9.9 0 0 0 .59-.34c.14-.18.22-.42.22-.67v-.08h-.16c-.45 0-1.19.06-1.19.6 0 .06.02.13.05.2a.5.5 0 0 0 .3.27c.06.02.13.03.2.02M105 48h1v5h-1v-5ZM107 49h.85v.54l-.01.27h.01c.13-.25.3-.46.53-.6.23-.15.48-.22.74-.2.8 0 1.24.44 1.24 1.48V53h-.88v-2.31c0-.48-.12-.8-.57-.8a.93.93 0 0 0-.6.22c-.18.14-.3.35-.36.58-.05.16-.07.34-.06.52V53H107v-4ZM111.34 50h-.46v-.72h.48v-1.03h.87v1.03h.81V50h-.81l.02 1.53a.63.63 0 0 0 .7.67l.17-.01v.77c-.1.02-.18.04-.28.04-.23 0-.38 0-.56-.06a1.31 1.31 0 0 1-.92-1.3l-.02-1.64ZM115.31 49a1.54 1.54 0 0 1 1.17.52 1.75 1.75 0 0 1 .4 1.29c.02.12 0 .37 0 .37h-2.47c.02.29.15.55.35.74.2.19.46.29.72.27a1.7 1.7 0 0 0 1.03-.42l.35.68c-.4.36-.92.55-1.44.55a1.72 1.72 0 0 1-1.36-.56 1.97 1.97 0 0 1-.56-1.44 2.02 2.02 0 0 1 .5-1.43c.17-.18.37-.33.6-.43.23-.1.47-.15.71-.14m.69 1.53c0-.1 0-.2-.04-.3a.7.7 0 0 0-.39-.43.65.65 0 0 0-.28-.07.8.8 0 0 0-.57.22.9.9 0 0 0-.28.58H116ZM117.56 49h.86v.74c0 .09 0 .18-.02.27h.02c.06-.28.21-.53.41-.7.2-.2.46-.3.72-.31.06 0 .1 0 .16.02v.96a1.43 1.43 0 0 0-.2-.01.95.95 0 0 0-.62.23c-.18.15-.3.36-.36.6-.06.2-.08.42-.08.64V53h-.89v-4ZM120.24 49h.86v.54c0 .1 0 .18-.02.27h.02c.12-.25.3-.46.52-.6.23-.15.48-.22.74-.2.8 0 1.24.44 1.24 1.48V53h-.88v-2.31c0-.48-.11-.8-.57-.8a.93.93 0 0 0-.6.22c-.17.14-.3.35-.36.58-.04.16-.06.34-.06.52V53h-.89v-4ZM126.28 50.52h.12v-.05c0-.5-.3-.68-.69-.68-.35.03-.7.15-.98.37l-.34-.68c.41-.3.9-.47 1.4-.47.2-.03.4 0 .58.06.2.07.36.18.5.32a1.48 1.48 0 0 1 .4 1.13V53h-.8v-.68c-.11.22-.27.4-.46.51-.2.12-.41.18-.63.17a1.06 1.06 0 0 1-.85-.32 1.28 1.28 0 0 1-.36-.87c0-1.2 1.53-1.3 2.1-1.3m-.67 1.75a.9.9 0 0 0 .59-.34c.14-.18.22-.42.21-.67v-.08h-.15c-.45 0-1.19.06-1.19.6 0 .06.02.13.05.2.03.06.07.12.12.17.05.04.1.08.17.1.06.02.13.03.2.02M129.94 49a1.71 1.71 0 0 1 1.38.57l-.4.65c-.25-.25-.58-.4-.93-.41a1 1 0 0 0-.42.08 1.14 1.14 0 0 0-.6.64c-.04.15-.07.3-.06.46a1.16 1.16 0 0 0 .68 1.12c.14.06.28.09.43.08.4-.02.77-.2 1.05-.48l.34.67a2.02 2.02 0 0 1-2.2.49c-.24-.1-.45-.24-.64-.43A2.03 2.03 0 0 1 128 51a2.13 2.13 0 0 1 .57-1.44 1.86 1.86 0 0 1 1.37-.56M132 48h1v.8h-1V48Zm0 1.4h1V53h-1v-3.6ZM135.38 49c.36.02.71.15 1 .38.3.24.53.55.66.92a2.12 2.12 0 0 1-.46 2.15 1.76 1.76 0 0 1-2.03.4 1.91 1.91 0 0 1-.83-.75 2.1 2.1 0 0 1 .28-2.54 1.77 1.77 0 0 1 1.38-.55Zm0 3.19c.22.01.44-.05.63-.17.2-.13.34-.31.44-.53a1.27 1.27 0 0 0-.21-1.31 1.1 1.1 0 0 0-.57-.34 1.05 1.05 0 0 0-.65.05c-.21.1-.39.25-.51.44-.13.2-.2.43-.2.67a1.22 1.22 0 0 0 .3.84 1.05 1.05 0 0 0 .77.35ZM137.99 49.1h.85v.44c0 .1 0 .18-.02.27h.02c.12-.25.3-.46.53-.6.22-.15.48-.22.74-.2.79 0 1.23.44 1.23 1.48V53h-.88v-2.31c0-.48-.11-.8-.56-.8a.93.93 0 0 0-.6.22c-.18.14-.3.35-.36.58-.05.16-.07.34-.07.52V53h-.89v-3.9ZM144.02 50.52h.12v-.05c0-.5-.3-.68-.68-.68-.36.03-.7.15-.99.37l-.33-.68c.4-.3.9-.47 1.4-.47.2-.03.4 0 .58.06.19.07.36.18.5.32a1.43 1.43 0 0 1 .4 1.14V53h-.82v-.4c0-.1 0-.19.02-.28h-.02c-.1.22-.25.4-.45.51-.19.12-.41.18-.63.17a1.06 1.06 0 0 1-.85-.32 1.2 1.2 0 0 1-.36-.87c0-1.2 1.53-1.3 2.11-1.3Zm-.68 1.74a.9.9 0 0 0 .59-.34c.15-.18.22-.42.22-.67v-.08h-.16c-.45 0-1.19.06-1.19.6 0 .06.02.13.05.2.03.06.07.12.12.17a.47.47 0 0 0 .37.12M145.83 48h.88v3.72c0 .4.13.49.36.49h.14v.77l-.28.02c-.5 0-1.1-.13-1.1-1.15V48ZM80.63 56.3a1.13 1.13 0 0 1 1.03.45h.01V55h.88v5h-.84v-.38c0-.07 0-.15.02-.22h-.02a1.23 1.23 0 0 1-1.12.6c-.96 0-1.58-.76-1.58-1.85a1.63 1.63 0 0 1 .95-1.7c.2-.1.44-.14.67-.15Zm.17 2.96c.46 0 .9-.34.9-1.12 0-.54-.3-1.08-.9-1.08-.48 0-.9.39-.9 1.09 0 .67.37 1.1.9 1.1ZM84.81 56a1.55 1.55 0 0 1 1.17.52 1.68 1.68 0 0 1 .42 1.3l-.03.36h-2.46c.02.29.14.55.34.74.2.19.47.29.73.27a1.7 1.7 0 0 0 1.03-.42l.35.68c-.4.36-.92.55-1.44.55a1.72 1.72 0 0 1-1.36-.55A1.97 1.97 0 0 1 83 58a2 2 0 0 1 .5-1.43c.17-.18.37-.33.6-.43.23-.1.47-.15.72-.14m.68 1.53a.78.78 0 0 0-.19-.57.69.69 0 0 0-.23-.17.65.65 0 0 0-.28-.06.8.8 0 0 0-.58.22.91.91 0 0 0-.28.58h1.56ZM89 55h.89l1.85 2.89c.15.25.29.5.41.77h.02s-.05-.48-.05-.77V55H93v5h-.88l-1.86-2.88c-.15-.25-.28-.51-.4-.78h-.02s.05.48.05.78V60H89v-5Z" fill="#fff"/><path fill-rule="evenodd" d="M95.3 56a1.55 1.55 0 0 1 1.17.52 1.68 1.68 0 0 1 .42 1.3l-.02.36H94.4c.01.29.14.55.34.74.2.19.46.29.73.27a1.7 1.7 0 0 0 1.03-.42l.34.68c-.4.36-.91.55-1.44.55a1.72 1.72 0 0 1-1.36-.55A1.97 1.97 0 0 1 93.5 58a2 2 0 0 1 .49-1.43c.17-.18.37-.33.6-.43.12-.05.43-.14.72-.14Zm.65 1.23c.03.1.05.2.04.3h-1.56a.91.91 0 0 1 .28-.58.8.8 0 0 1 .57-.21.65.65 0 0 1 .52.22c.07.08.12.17.15.27Z" fill="#fff"/><path d="M99.02 60.9c.57 0 1.06-.26 1.06-.97v-.24l.01-.2h-.01c-.23.35-.53.51-1.05.51-.5 0-.94-.2-1.26-.6a1.87 1.87 0 0 1-.43-1.4 1.9 1.9 0 0 1 .41-1.4c.16-.18.35-.34.57-.44.22-.1.45-.15.69-.15.2-.02.42.01.62.1.19.09.36.23.5.4h.02l-.01-.1V56h.88v3.85a1.98 1.98 0 0 1-.6 1.43 1.67 1.67 0 0 1-1.4.47c-.45 0-.91-.12-1.33-.35l.29-.76c.32.16.68.25 1.04.26m1.08-2.9c0-.9-.42-1.15-.93-1.15-.57 0-.88.44-.88 1.11 0 .7.34 1.22.94 1.22.45 0 .87-.27.87-1.18ZM103.41 56c.37.02.72.15 1.02.38a2 2 0 0 1 .65.92c.13.37.15.77.07 1.15-.09.38-.27.73-.54 1a1.76 1.76 0 0 1-2.03.4 1.91 1.91 0 0 1-.82-.75 2.1 2.1 0 0 1 .28-2.54 1.87 1.87 0 0 1 1.37-.56Zm.01 3.2c.22 0 .44-.06.63-.18.2-.13.34-.31.43-.53a1.27 1.27 0 0 0-.2-1.31 1.1 1.1 0 0 0-.57-.34 1.05 1.05 0 0 0-.65.06c-.21.08-.39.24-.51.43-.13.2-.2.43-.2.67a1.21 1.21 0 0 0 .3.84 1 1 0 0 0 .77.35ZM107.7 56c.26-.01.51.03.75.13s.45.25.63.44l-.4.65c-.24-.25-.58-.4-.92-.4a1 1 0 0 0-.79.33 1.14 1.14 0 0 0-.3.84 1.23 1.23 0 0 0 .32.86 1.03 1.03 0 0 0 .8.34c.39-.02.76-.2 1.04-.48l.35.67a2.02 2.02 0 0 1-2.2.49c-.24-.1-.46-.25-.64-.43a2.12 2.12 0 0 1 0-2.88 1.86 1.86 0 0 1 1.37-.56M109.77 55h.88v.8h-.88V55Zm0 1.4h.89V60h-.9v-3.6ZM113.27 56c.36.02.71.15 1.01.38a2 2 0 0 1 .65.92 2.13 2.13 0 0 1-.46 2.15c-.27.27-.6.45-.96.52s-.73.02-1.07-.13a1.9 1.9 0 0 1-.83-.74 2.1 2.1 0 0 1 .28-2.54 1.87 1.87 0 0 1 1.38-.56Zm0 3.2c.22 0 .44-.06.63-.18.2-.13.34-.31.44-.53a1.27 1.27 0 0 0-.21-1.31 1.1 1.1 0 0 0-.57-.34 1.05 1.05 0 0 0-.65.06c-.2.08-.39.24-.51.43-.13.2-.2.43-.2.67a1.2 1.2 0 0 0 .3.84 1 1 0 0 0 .77.35ZM115.98 58.77c.27.26.62.41.98.42.25 0 .47-.12.47-.34 0-.57-1.74-.5-1.74-1.73 0-.7.6-1.12 1.37-1.12.43-.02.86.13 1.2.44l-.34.7a1.3 1.3 0 0 0-.87-.33c-.23 0-.46.1-.46.35 0 .54 1.74.47 1.74 1.7 0 .63-.52 1.14-1.37 1.14-.5.01-1-.2-1.38-.56l.4-.67Z" fill="#fff"/><path d="M90.64 36.06a4.49 4.49 0 1 1 .02-6.1l3.2-3.2a9 9 0 1 0-.03 12.49l-3.19-3.19ZM95.63 24H106v4h-6v3h5v4h-5v3.22h7V42H95.63V24ZM110.25 36.28c.98.89 5.99 3.38 5.99.41 0-2.07-7.84-2-7.84-7.36 0-3.21 2.7-5.33 6.16-5.33 3.75 0 5.6 1.97 5.6 1.97l-1.8 3.49c-.95-.8-5.7-2.75-5.7-.17 0 2.19 7.84 1.8 7.84 7.3 0 2.9-2.21 5.4-6.14 5.4a8.99 8.99 0 0 1-6.35-2.48l2.24-3.23ZM126.35 28H121v-4h15v4h-5.35v14h-4.3V28ZM137 24h10.66v4H141v3h5v4h-5v3h7v4h-11V24Z" fill="#0041B4"/><path fill-rule="evenodd" d="M74 48.52V29.89A7.88 7.88 0 0 0 66.1 22H45v26.52A14.47 14.47 0 0 0 59.5 63 14.5 14.5 0 0 0 74 48.52Zm-23.74 5.55A9.84 9.84 0 0 1 49 49h5v9a10.58 10.58 0 0 1-3.74-3.93ZM62 49v9.93c-1.7.44-3.3.44-5 0V49h5Zm6.67 5.43A9.43 9.43 0 0 1 65 58v-9h5c0 1.82-.42 3.85-1.33 5.43ZM53.1 39.17a6.5 6.5 0 0 1-4.1-6.4 6.64 6.64 0 0 1 1.87-4.87 6.7 6.7 0 0 1 4.91-1.9 6.86 6.86 0 0 1 4.95 1.84l-1.5 2.44a5.47 5.47 0 0 0-3.3-1.28c-.5-.02-1-.01-1.46.17a3.6 3.6 0 0 0-2.27 3.52c0 1.96 1.3 3.96 3.73 3.96a5.41 5.41 0 0 0 3.5-1.62L61 37.4a6.85 6.85 0 0 1-2.33 1.66c-1.72.71-3.82.79-5.57.12ZM67.5 47a2.5 2.5 0 1 0 0-5 2.5 2.5 0 0 0 0 5ZM62 44.5a2.5 2.5 0 1 1-5 0 2.5 2.5 0 0 1 5 0ZM51.5 47a2.5 2.5 0 1 0 0-5 2.5 2.5 0 0 0 0 5Z" fill="#0041B4"/></svg>