<svg xmlns="http://www.w3.org/2000/svg" width="612" height="324" fill="none" viewBox="0 0 612 324"><path fill="#000" d="M0 0h612v324H0z"/><path fill="url(#acxfwj5w4)" d="M0 18.04C0 8.08 7.16 0 16 0h579c8.84 0 16 8.08 16 18.04V345H0z"/><path fill="url(#bcxfwj5w4)" fill-opacity=".2" fill-rule="evenodd" d="M595 2.22H16C8.27 2.22 2 9.2 2 17.78v320h607v-320c0-8.6-6.27-15.56-14-15.56M16 0C7.16 0 0 7.96 0 17.78V340h611V17.78C611 7.96 603.84 0 595 0z"/><path fill="url(#ccxfwj5w4)" fill-opacity=".2" d="M10.32 169.55 2 156.65V372h422V157.6l-10.06-7.18-10.06 17.43-10.06-6.84-10.06 22.9-10.06-7.18-10.07 1.37-10.06 11.27-10.06-1.02-10.06 12.98-10.06-9.3-10.06 2.74-10.06-2.73-10.06 5.53-10.06 6.16-10.06.2-10.07-5.13-10.06 42.85-10.06-5.46-10.06 5.47-10.06-17.77-10.06-3.42-10.06 9.57-10.06-13.67-10.06 17.43-10.06-.69-10.07 13.06-10.06-6.84-10.06-3.14-10.06-3.08-10.06-8.2-10.06 10.25-10.06-37.59-10.06 19.82-10.06-27-10.07-11.71L61.8 196.2l-21.3-26.66-10.05-6.15L20.39 147z"/><path fill="#FF4D4D" d="M20.3 146a1 1 0 0 1 .91.48l9.91 16.17 9.83 6.01a1 1 0 0 1 .25.21l21.32 25.48 9.33-17.2a1 1 0 0 1 1.67-.15l10.03 12.7a1 1 0 0 1 .15.28l9.24 24.8 9-17.74a1 1 0 0 1 1.87.2l9.58 35.82 8.8-8.98a1 1 0 0 1 1.36-.07l9.88 8.06 9.85 3.01 10.04 3.14a1 1 0 0 1 .26.13l9.26 6.3 9.46-12.3a1 1 0 0 1 .86-.38l9.41.64 9.73-16.86a1 1 0 0 1 1.67-.1l9.37 12.74 9.2-8.77a1 1 0 0 1 1.02-.22l10.04 3.41a1 1 0 0 1 .55.45l9.55 16.89 9.17-4.99a1 1 0 0 1 .95 0l8.89 4.83 9.74-41.5a1 1 0 0 1 1.42-.66l9.82 5 9.51-.2 9.8-6 .05-.02 10.03-5.52a1 1 0 0 1 .75-.1l9.77 2.66 9.77-2.65a1 1 0 0 1 .95.23l9.23 8.54 9.37-12.1a1 1 0 0 1 .9-.39l9.52.97 9.7-10.87a1 1 0 0 1 .6-.33l10.04-1.36a1 1 0 0 1 .72.18l9.03 6.44 9.55-21.72a1 1 0 0 1 1.47-.43l9.15 6.22 9.5-16.47a1 1 0 0 1 1.45-.31l10.03 7.18a1 1 0 0 1-1.16 1.62l-9.14-6.53-9.49 16.44a1 1 0 0 1-1.43.33l-9.04-6.15-9.55 21.75a1 1 0 0 1-1.5.42l-9.71-6.94-9.28 1.27-9.79 10.98a1 1 0 0 1-.85.33l-9.48-.97-9.7 12.52a1 1 0 0 1-1.46.13l-9.63-8.9-9.5 2.58a1 1 0 0 1-.53 0l-9.65-2.63-9.66 5.32-10.02 6.13a1 1 0 0 1-.5.15l-10.03.2a1 1 0 0 1-.48-.1l-8.9-4.54-9.74 41.54a1 1 0 0 1-1.45.65l-9.56-5.2-9.56 5.2a1 1 0 0 1-1.35-.4l-9.85-17.4-9.1-3.1-9.6 9.14a1 1 0 0 1-1.5-.13l-9.12-12.41-9.27 16.07a1 1 0 0 1-.94.5l-9.5-.65-9.71 12.61a1 1 0 0 1-1.35.22l-9.92-6.74-9.89-3.1-10.03-3.07a1 1 0 0 1-.34-.18l-9.33-7.6-9.4 9.58a1 1 0 0 1-1.68-.45l-9.36-35-8.85 17.46a1 1 0 0 1-1.83-.1l-9.98-26.8-9-11.4-9.32 17.17a1 1 0 0 1-1.64.17l-22.16-26.49-9.9-6.05a1 1 0 0 1-.33-.33l-9.04-14.76-9.26 20.78a1 1 0 0 1-1.72.2L.2 157.74a1 1 0 0 1 1.6-1.2l8.3 11.02 9.35-20.97a1 1 0 0 1 .84-.59"/><path fill="#2962FF" d="M444.5 140h2v103h-2z"/><path fill="#2962FF" d="M2 191h594v2H2z"/><path fill="#101112" d="M57 184a8 8 0 0 1 8-8h41a8 8 0 0 1 8 8v18a8 8 0 0 1-8 8H65a8 8 0 0 1-8-8z"/><path fill="#2962FF" fill-rule="evenodd" d="M106 178H65a6 6 0 0 0-6 6v18a6 6 0 0 0 6 6h41a6 6 0 0 0 6-6v-18a6 6 0 0 0-6-6m-41-2a8 8 0 0 0-8 8v18a8 8 0 0 0 8 8h41a8 8 0 0 0 8-8v-18a8 8 0 0 0-8-8z"/><path fill="#2962FF" d="m83.57 183.62-5.98 6.7 1.32 1.19 2.89-3.23v13.64h1.77zM87.12 202.47l5.99-6.7-1.33-1.18-2.88 3.23v-13.65h-1.78z"/><path fill="#111112" d="M135 184a8 8 0 0 1 8-8h232a8 8 0 0 1 8 8v18a8 8 0 0 1-8 8H143a8 8 0 0 1-8-8z"/><path fill="#2962FF" fill-rule="evenodd" d="M375 178H143a6 6 0 0 0-6 6v18a6 6 0 0 0 6 6h232a6 6 0 0 0 6-6v-18a6 6 0 0 0-6-6m-232-2a8 8 0 0 0-8 8v18a8 8 0 0 0 8 8h232a8 8 0 0 0 8-8v-18a8 8 0 0 0-8-8z"/><path fill="#2962FF" d="M135 184a8 8 0 0 1 8-8h47v34h-47a8 8 0 0 1-8-8z"/><path fill="#fff" d="M155.72 200.32q-1.53 0-2.66-.52a4.11 4.11 0 0 1-2.56-3.52l-.02-.12h1.78v.1q.1.73.53 1.28.45.55 1.2.88.75.3 1.73.3a4 4 0 0 0 1.7-.34q.75-.33 1.15-.93.41-.6.41-1.38v-.02q0-1.37-.91-2.1-.9-.73-2.46-.73h-1.86v-1.56h1.78q.88 0 1.56-.33.68-.34 1.05-.91.38-.59.38-1.33v-.02q0-.78-.33-1.32a2 2 0 0 0-.96-.83q-.63-.3-1.53-.29-.87 0-1.56.3-.67.3-1.08.83-.41.55-.5 1.3v.1h-1.78l.01-.1q.13-1.22.76-2.12.65-.9 1.7-1.4 1.07-.5 2.45-.5 1.43 0 2.46.49 1.06.47 1.63 1.34.6.85.59 1.98v.02a3.2 3.2 0 0 1-1.51 2.8q-.71.47-1.63.66v.04a4 4 0 0 1 2.61 1.1q1 .96 1 2.53v.03q0 1.23-.66 2.2a4.6 4.6 0 0 1-1.82 1.54q-1.17.55-2.65.55M168.62 200.32q-1.52 0-2.66-.52a4.5 4.5 0 0 1-1.8-1.44 4 4 0 0 1-.77-2.08v-.12h1.77v.1q.1.73.53 1.28.45.55 1.2.88.75.3 1.73.3t1.7-.34q.75-.33 1.15-.93.41-.6.41-1.38v-.02q0-1.37-.91-2.1-.9-.73-2.46-.73h-1.86v-1.56h1.78q.87 0 1.56-.33.67-.34 1.05-.91.38-.59.38-1.33v-.02q0-.78-.33-1.32a2 2 0 0 0-.96-.83q-.63-.3-1.53-.29-.87 0-1.56.3-.67.3-1.08.83-.41.55-.5 1.3v.1h-1.78v-.1q.14-1.22.77-2.12.65-.9 1.7-1.4 1.07-.5 2.45-.5 1.42 0 2.46.49 1.06.47 1.63 1.34.6.85.59 1.98v.02a3.2 3.2 0 0 1-1.51 2.8q-.71.47-1.63.66v.04q1.62.14 2.61 1.1 1 .96 1 2.53v.03a4 4 0 0 1-.66 2.2 4.6 4.6 0 0 1-1.82 1.54q-1.17.55-2.65.55"/><path fill="#089981" d="M207.57 194.93v-1.66h10.68v1.66zm4.51 4.53v-10.72h1.66v10.72zM227.77 200.08V197h-7.3v-1.68a847 847 0 0 1 5.11-8.1q.65-1 1.29-1.95h2.7v10.09h2.09V197h-2.1v3.06zm-5.44-4.71h5.44v-8.43h-.1l-1.06 1.6-1.08 1.67-2.16 3.4q-.54.83-1.04 1.67zM239.09 184.97q1.02 0 2 .39a5 5 0 0 1 1.8 1.25q.8.87 1.3 2.3.49 1.4.49 3.5v.02q0 2.5-.69 4.3a6 6 0 0 1-1.95 2.7q-1.27.95-3.07.95a5.5 5.5 0 0 1-2.26-.45 4.5 4.5 0 0 1-2.6-3.17l-.03-.13h1.87l.04.11q.22.62.64 1.07.42.44 1.01.69t1.35.24q1.35 0 2.2-.79.84-.78 1.24-2.09a11 11 0 0 0 .47-3.1v-.25l-.44-2.45q0-.97-.45-1.75t-1.2-1.25q-.75-.45-1.7-.46a3.3 3.3 0 0 0-2.91 1.67q-.45.77-.45 1.72v.03q0 .96.43 1.73.43.75 1.18 1.19t1.72.43q.96 0 1.72-.42.77-.43 1.21-1.18.45-.75.45-1.7v-.01h.6v2.6h-.29q-.28.63-.84 1.16a4.5 4.5 0 0 1-3.17 1.17q-1.4 0-2.5-.64a5 5 0 0 1-1.73-1.76 5 5 0 0 1-.64-2.53v-.02q0-1.47.67-2.62a5 5 0 0 1 1.85-1.8 5.4 5.4 0 0 1 2.68-.65M247.99 200.2a1.25 1.25 0 0 1-1.27-1.27q0-.54.37-.9.38-.37.9-.37.53 0 .9.36.37.38.37.9a1.25 1.25 0 0 1-1.27 1.28M256.88 200.38q-1.4 0-2.48-.54a4.39 4.39 0 0 1-2.51-3.61l-.02-.11h1.8l.01.08q.1.72.52 1.3a3 3 0 0 0 1.13.92q.7.34 1.57.34.99 0 1.74-.43.75-.45 1.18-1.2.43-.77.43-1.77v-.02q0-.97-.43-1.74a3 3 0 0 0-1.18-1.2 3.4 3.4 0 0 0-1.7-.43 4 4 0 0 0-1.38.23 3.3 3.3 0 0 0-1.8 1.56h-1.62l.78-8.48h8.32v1.65h-6.84l-.5 4.98h.1q.34-.5.84-.84t1.1-.51q.63-.18 1.3-.18 1.41 0 2.5.64 1.09.63 1.7 1.75.63 1.11.63 2.54v.02q0 1.49-.67 2.63a5 5 0 0 1-1.83 1.79q-1.17.63-2.7.63M269.68 200.38q-1.67 0-2.85-.93a6 6 0 0 1-1.82-2.67 12 12 0 0 1-.63-4.1v-.02q0-2.37.63-4.09a6 6 0 0 1 1.82-2.66q1.19-.94 2.85-.94 1.65 0 2.85.94 1.19.94 1.82 2.66t.64 4.1v.01q0 2.37-.64 4.1a6 6 0 0 1-1.82 2.67q-1.2.93-2.85.93m0-1.6q1.08 0 1.85-.75.78-.75 1.2-2.1.4-1.38.4-3.25v-.02q0-1.88-.4-3.23a4.7 4.7 0 0 0-1.2-2.1 2.6 2.6 0 0 0-1.85-.74q-1.1 0-1.86.74-.76.75-1.18 2.1-.4 1.35-.4 3.23v.02q0 1.88.4 3.24.42 1.37 1.18 2.11.76.75 1.86.74M287.29 200.37q-1.5 0-2.59-.56a4.1 4.1 0 0 1-2.27-3.86v-7.85h1.87v7.7q0 .87.35 1.53.36.65 1.02 1.02.68.36 1.62.36.96 0 1.62-.36.66-.37 1.01-1.02.35-.66.35-1.52v-7.71h1.87v7.85q0 1.32-.6 2.31a4 4 0 0 1-1.66 1.55 5.6 5.6 0 0 1-2.59.56M299.54 200.37q-1.35 0-2.36-.43a4 4 0 0 1-1.58-1.2q-.58-.76-.67-1.76v-.1h1.83v.08q.07.54.43.94.37.4 1 .62a4.3 4.3 0 0 0 2.78-.01q.6-.24.92-.67.34-.42.34-.97 0-.7-.52-1.15-.53-.46-1.71-.72l-1.31-.27a5 5 0 0 1-2.65-1.24 3 3 0 0 1-.83-2.18q0-1.05.55-1.84.56-.78 1.54-1.22.97-.45 2.25-.44 1.26 0 2.21.44.96.42 1.5 1.18.57.75.63 1.68v.1h-1.81l-.02-.1a1.7 1.7 0 0 0-.4-.87q-.33-.39-.87-.6a3 3 0 0 0-1.27-.21q-.7 0-1.24.21a2 2 0 0 0-.87.6 1.5 1.5 0 0 0-.32.97q0 .67.5 1.12.52.44 1.68.69l1.3.29q1.26.27 2.04.7.78.44 1.14 1.1.36.63.36 1.52 0 1.15-.56 2-.55.82-1.59 1.28-1.02.45-2.42.46M306.92 200.08V188.1h4.32q1.79 0 3.05.7a4.7 4.7 0 0 1 1.92 2.04q.68 1.32.68 3.2v.03a7 7 0 0 1-.68 3.24 4.7 4.7 0 0 1-1.92 2.06q-1.25.7-3.05.7zm1.86-1.62h2.26q1.25 0 2.13-.51.89-.51 1.34-1.5.47-.98.47-2.36v-.02q0-1.37-.48-2.35a3.3 3.3 0 0 0-1.34-1.5 4 4 0 0 0-2.12-.51h-2.26z"/><path fill="#2962FF" d="m365 186.22-1.22-1.22-6.28 6.28-6.28-6.28-1.22 1.22 6.28 6.28-6.28 6.28 1.22 1.22 6.28-6.28 6.28 6.28 1.22-1.22-6.28-6.28z"/><path fill="#132042" d="M332 178h2v30h-2z"/><circle cx="445.5" cy="192.5" r="9.5" stroke="#2962FF" stroke-width="6" opacity=".2"/><circle cx="445.5" cy="192.5" r="5.5" fill="#2962FF" stroke="#2962FF" stroke-width="2"/><path fill="url(#dcxfwj5w4)" d="M508 176.08h87a4 4 0 0 1 4 4v26a4 4 0 0 1-4 4h-87z"/><path fill="#fff" d="M520.48 200.58v-1.28l5.08-5.42a32 32 0 0 0 1.5-1.7q.54-.68.74-1.22.21-.55.21-1.18v-.02q0-.77-.35-1.38t-.97-.95-1.47-.35q-.9 0-1.59.37a2.7 2.7 0 0 0-1.46 2.51v.03h-1.77l-.02-.03a4.3 4.3 0 0 1 2.4-3.9 5.3 5.3 0 0 1 2.5-.59q1.32 0 2.35.54 1.05.54 1.64 1.47.6.93.6 2.12v.02q0 .84-.29 1.6-.3.78-1.03 1.73-.75.94-2.1 2.32l-3.91 4.03.49-.95v.95l-.48-.38h7.58v1.66zm17.66.3q-1.02 0-2.02-.38a5 5 0 0 1-1.79-1.26 6 6 0 0 1-1.3-2.28q-.47-1.43-.47-3.51v-.02q0-2.51.67-4.29a6 6 0 0 1 1.95-2.72 5 5 0 0 1 3.09-.95q1.25 0 2.24.45a4.6 4.6 0 0 1 2.6 3.17l.04.13h-1.87l-.04-.1a2.84 2.84 0 0 0-1.65-1.75q-.6-.26-1.34-.26-1.36 0-2.2.8a5 5 0 0 0-1.26 2.08 11 11 0 0 0-.46 3.11v.25l.44 2.45q0 .96.44 1.75.45.78 1.21 1.24t1.7.46 1.7-.45q.76-.44 1.2-1.22.45-.78.46-1.72v-.02q0-.97-.43-1.74-.42-.75-1.18-1.18a3.4 3.4 0 0 0-1.72-.43q-.96 0-1.73.43a3.2 3.2 0 0 0-1.65 2.87h-.62v-2.6h.31q.3-.62.84-1.15.57-.52 1.37-.85a5 5 0 0 1 1.8-.32 4.8 4.8 0 0 1 4.24 2.4q.63 1.1.63 2.53v.02q0 1.46-.67 2.61a5 5 0 0 1-1.85 1.8q-1.17.65-2.68.65m12.9 0q-1.39 0-2.48-.54a4.39 4.39 0 0 1-2.51-3.6l-.01-.12h1.8v.08q.1.72.53 1.3.42.6 1.13.92.69.34 1.56.34.99 0 1.75-.43.75-.45 1.18-1.2.42-.77.43-1.77v-.02q0-.97-.43-1.74a3 3 0 0 0-1.18-1.2 3.4 3.4 0 0 0-1.71-.43q-.75 0-1.38.23a3.3 3.3 0 0 0-1.8 1.56h-1.61l.78-8.48h8.31v1.65h-6.84l-.5 4.98h.11q.34-.5.83-.84.5-.34 1.11-.51.62-.18 1.3-.18 1.4 0 2.5.64 1.08.63 1.7 1.75.62 1.11.62 2.54v.02q0 1.49-.66 2.63a5 5 0 0 1-1.84 1.79q-1.17.63-2.69.63m8.63-.18q-.52 0-.9-.37a1.3 1.3 0 0 1-.37-.9q0-.54.37-.9.38-.37.9-.37t.9.36q.37.38.37.9a1.25 1.25 0 0 1-1.27 1.28m8.79.18q-1.66 0-2.86-.93a6 6 0 0 1-1.81-2.67 12 12 0 0 1-.64-4.1v-.02q0-2.37.64-4.09a6 6 0 0 1 1.81-2.66q1.2-.94 2.86-.94 1.65 0 2.84.94 1.2.94 1.83 2.66t.64 4.1v.01q0 2.37-.64 4.1a6 6 0 0 1-1.83 2.67q-1.19.93-2.84.93m0-1.6q1.08 0 1.85-.75.78-.75 1.19-2.1.4-1.38.41-3.25v-.02q0-1.88-.41-3.23a4.7 4.7 0 0 0-1.19-2.1 2.6 2.6 0 0 0-1.85-.74q-1.1 0-1.86.74-.76.75-1.18 2.1-.4 1.35-.41 3.23v.02q0 1.88.4 3.24.42 1.37 1.19 2.12.76.73 1.86.73m13.04 1.6q-1.66 0-2.85-.93a6 6 0 0 1-1.82-2.67 12 12 0 0 1-.63-4.1v-.02q0-2.37.63-4.09a6 6 0 0 1 1.82-2.66q1.19-.94 2.85-.94 1.65 0 2.85.94t1.82 2.66q.64 1.72.64 4.1v.01q0 2.37-.64 4.1a6 6 0 0 1-1.82 2.67q-1.2.93-2.85.93m0-1.6q1.08 0 1.85-.75.78-.75 1.2-2.1.4-1.38.4-3.25v-.02q0-1.88-.4-3.23a4.7 4.7 0 0 0-1.2-2.1 2.6 2.6 0 0 0-1.85-.74q-1.1 0-1.86.74-.76.75-1.18 2.1-.4 1.35-.4 3.23v.02q0 1.88.4 3.24.42 1.37 1.18 2.12.77.73 1.86.73"/><path fill="#FF9800" d="M2.08 243.54h596v2h-596z"/><path fill="#101011" d="M135 235a8 8 0 0 1 8-8h230a8 8 0 0 1 8 8v18a8 8 0 0 1-8 8H143a8 8 0 0 1-8-8z"/><path fill="#FF9800" fill-rule="evenodd" d="M373 229H143a6 6 0 0 0-6 6v18a6 6 0 0 0 6 6h230a6 6 0 0 0 6-6v-18a6 6 0 0 0-6-6m-230-2a8 8 0 0 0-8 8v18a8 8 0 0 0 8 8h230a8 8 0 0 0 8-8v-18a8 8 0 0 0-8-8z"/><path fill="#33261A" d="M190 229h2v30h-2zM335 229h2v30h-2z"/><path fill="#FF9800" d="M155.87 251.79a6.4 6.4 0 0 1-2.7-.53 4.17 4.17 0 0 1-2.6-3.57l-.01-.12h1.8v.1q.09.75.54 1.3.45.56 1.21.88t1.76.31q.98 0 1.73-.34t1.16-.94q.42-.62.42-1.4v-.03q0-1.38-.93-2.12a3.8 3.8 0 0 0-2.5-.75h-1.88V243h1.8q.9 0 1.58-.33a3 3 0 0 0 1.07-.93q.39-.6.39-1.34v-.02q0-.79-.33-1.34a2 2 0 0 0-.98-.84 4 4 0 0 0-1.55-.3q-.89 0-1.58.3t-1.1.85-.5 1.3l-.01.11h-1.8v-.1q.14-1.23.78-2.14a4.4 4.4 0 0 1 1.72-1.43 6 6 0 0 1 2.49-.5q1.44 0 2.5.5 1.06.48 1.65 1.36.6.86.6 2v.02a3.3 3.3 0 0 1-1.54 2.84 5 5 0 0 1-1.65.68v.04q1.65.14 2.65 1.11 1.02.97 1.02 2.57v.02q0 1.25-.68 2.24a4.7 4.7 0 0 1-1.85 1.56q-1.18.56-2.68.56M168.9 251.79a6.4 6.4 0 0 1-2.7-.53 4.17 4.17 0 0 1-2.6-3.57v-.12h1.8v.1q.1.75.53 1.3.47.56 1.22.88.76.31 1.76.31.99 0 1.72-.34.76-.34 1.17-.94.41-.62.41-1.4v-.03q0-1.38-.92-2.12a3.8 3.8 0 0 0-2.5-.75h-1.88V243h1.8q.9 0 1.58-.33a3 3 0 0 0 1.07-.93q.39-.6.39-1.34v-.02q0-.79-.34-1.34a2 2 0 0 0-.97-.84 4 4 0 0 0-1.55-.3q-.9 0-1.58.3-.7.3-1.1.85-.42.55-.5 1.3l-.01.11h-1.8v-.1q.14-1.23.78-2.14a4.4 4.4 0 0 1 1.72-1.43 6 6 0 0 1 2.49-.5q1.44 0 2.5.5 1.06.48 1.65 1.36.6.86.59 2v.02a3.3 3.3 0 0 1-1.53 2.84 5 5 0 0 1-1.65.68v.04q1.65.14 2.65 1.11 1.02.97 1.02 2.57v.02q0 1.25-.68 2.24a4.7 4.7 0 0 1-1.85 1.56q-1.18.56-2.68.56M207.78 246.39v-1.66h10.42v1.66zM226.26 251.85q-1.03 0-2.02-.38a5 5 0 0 1-1.8-1.27 6 6 0 0 1-1.29-2.28q-.48-1.43-.48-3.5v-.03q0-2.5.68-4.29a6 6 0 0 1 1.94-2.72 5 5 0 0 1 3.09-.95q1.25 0 2.25.45a4.6 4.6 0 0 1 2.6 3.17l.03.14h-1.87l-.04-.12a3 3 0 0 0-1.65-1.75q-.6-.24-1.34-.25-1.36 0-2.2.8a5 5 0 0 0-1.26 2.09 11 11 0 0 0-.46 3.1v.25l.44 2.45q0 .96.44 1.75.45.78 1.21 1.24.77.46 1.7.46.95 0 1.7-.45.76-.44 1.2-1.22.46-.78.46-1.72v-.02q0-.98-.43-1.73-.42-.75-1.18-1.2a3.4 3.4 0 0 0-1.71-.42q-.97 0-1.74.43a3.2 3.2 0 0 0-1.65 2.87h-.61v-2.6h.3q.3-.62.85-1.14.56-.54 1.36-.85a5 5 0 0 1 1.8-.33q1.4 0 2.5.64 1.11.64 1.74 1.76t.64 2.53v.02q0 1.47-.68 2.61a5 5 0 0 1-1.85 1.8q-1.17.66-2.67.66M239.19 236.43q1 0 2 .4a5 5 0 0 1 1.8 1.24q.8.88 1.3 2.3.48 1.41.49 3.5v.02q0 2.5-.7 4.3a6 6 0 0 1-1.94 2.71q-1.27.94-3.08.94a5.5 5.5 0 0 1-2.25-.45 4.5 4.5 0 0 1-2.6-3.16l-.03-.14h1.87l.04.12q.22.6.64 1.06.42.44 1.01.69t1.34.24q1.36 0 2.2-.78.85-.8 1.25-2.1a11 11 0 0 0 .47-3.1v-.25l-.44-2.45q0-.97-.45-1.74-.45-.8-1.2-1.25a3 3 0 0 0-1.7-.47 3.3 3.3 0 0 0-2.92 1.68q-.45.75-.45 1.72v.02q0 .98.44 1.73.43.75 1.17 1.19.76.43 1.73.43a3.5 3.5 0 0 0 1.72-.42q.76-.43 1.2-1.18.46-.75.46-1.7v-.01h.6v2.6h-.3q-.27.63-.83 1.16a4.5 4.5 0 0 1-3.17 1.17q-1.4 0-2.5-.63a4.7 4.7 0 0 1-1.74-1.77 5 5 0 0 1-.63-2.53v-.02q0-1.47.66-2.62a5 5 0 0 1 1.86-1.8 5.4 5.4 0 0 1 2.68-.65M248.09 251.66a1.25 1.25 0 0 1-1.27-1.27q0-.54.37-.9.38-.37.9-.37.53 0 .9.37.37.36.37.9a1.25 1.25 0 0 1-1.27 1.27M256.96 251.78q-1.53 0-2.67-.52a4.12 4.12 0 0 1-2.56-3.52l-.01-.12h1.77l.01.1q.09.73.52 1.28.45.55 1.2.88.75.3 1.74.3a4 4 0 0 0 1.7-.34q.74-.33 1.15-.93t.4-1.38v-.02q0-1.36-.9-2.1-.9-.73-2.47-.73H255v-1.56h1.77q.88 0 1.56-.33.67-.33 1.06-.91.38-.6.38-1.32v-.03q0-.78-.33-1.32a2 2 0 0 0-.97-.83q-.62-.29-1.52-.29-.87 0-1.56.3-.68.3-1.09.83-.4.55-.5 1.3v.1H252l.02-.1q.12-1.22.75-2.12.65-.9 1.7-1.4 1.07-.5 2.46-.5 1.41 0 2.46.49 1.06.48 1.63 1.34.58.85.58 1.98v.02a3.2 3.2 0 0 1-1.5 2.8q-.72.47-1.64.66v.05a4 4 0 0 1 2.62 1.1q1 .94 1 2.53v.02q0 1.23-.66 2.2a4.6 4.6 0 0 1-1.83 1.54q-1.15.55-2.64.55M269.88 251.85q-1.67 0-2.85-.94a6 6 0 0 1-1.82-2.66 12 12 0 0 1-.63-4.1v-.03q0-2.37.63-4.09a6 6 0 0 1 1.82-2.65q1.19-.95 2.85-.95 1.65 0 2.85.95 1.19.93 1.82 2.65t.64 4.1v.01q0 2.37-.64 4.1a6 6 0 0 1-1.82 2.67q-1.2.94-2.85.94m0-1.61q1.08 0 1.85-.74.78-.75 1.2-2.12.4-1.35.4-3.24v-.02q0-1.87-.4-3.23a4.7 4.7 0 0 0-1.2-2.1 2.6 2.6 0 0 0-1.85-.74q-1.1 0-1.86.74-.76.75-1.18 2.1-.4 1.35-.4 3.23v.02q0 1.89.4 3.24.42 1.37 1.18 2.12.76.74 1.86.74M287.37 251.83q-1.5 0-2.6-.56a4.1 4.1 0 0 1-2.26-3.86v-7.85h1.87v7.71q0 .87.35 1.52.36.66 1.02 1.02.67.36 1.62.37.94 0 1.62-.37.66-.36 1-1.02.36-.66.36-1.52v-7.71h1.86v7.85q0 1.32-.58 2.32a4 4 0 0 1-1.67 1.54 5.6 5.6 0 0 1-2.6.56M299.62 251.83q-1.35 0-2.36-.43a4 4 0 0 1-1.58-1.2 3.3 3.3 0 0 1-.67-1.76v-.1h1.83v.08q.06.55.43.94.37.4 1 .63a4.3 4.3 0 0 0 2.78-.02q.59-.24.92-.67.33-.42.34-.97 0-.7-.53-1.15a4 4 0 0 0-1.7-.72l-1.32-.27a5 5 0 0 1-2.65-1.23 3 3 0 0 1-.83-2.19q.02-1.04.56-1.83.55-.8 1.54-1.23.97-.44 2.25-.44 1.26 0 2.21.44a4 4 0 0 1 1.5 1.18q.56.75.63 1.68v.11h-1.81l-.02-.1a1.7 1.7 0 0 0-.4-.88q-.33-.37-.88-.6a3 3 0 0 0-1.26-.21q-.7 0-1.24.21a2 2 0 0 0-.88.6 1.5 1.5 0 0 0-.31.97v.01q0 .66.5 1.11.52.45 1.67.7l1.31.28a7 7 0 0 1 2.04.7q.78.44 1.14 1.1.36.63.36 1.52v.01q0 1.15-.56 1.99-.56.83-1.59 1.28-1.04.46-2.42.46M307 251.54v-11.98h4.32q1.78 0 3.05.7a4.7 4.7 0 0 1 1.92 2.04q.67 1.32.67 3.21v.02a7 7 0 0 1-.67 3.24 4.7 4.7 0 0 1-1.92 2.06q-1.26.7-3.05.7zm1.85-1.61h2.26q1.26 0 2.13-.52.9-.51 1.35-1.5.47-.97.47-2.36v-.01q0-1.37-.48-2.36a3.3 3.3 0 0 0-1.34-1.5 4 4 0 0 0-2.13-.51h-2.26zM366 238.22l-1.22-1.22-6.28 6.28-6.28-6.28-1.22 1.22 6.28 6.28-6.28 6.28 1.22 1.22 6.28-6.28 6.28 6.28 1.22-1.22-6.28-6.28z"/><circle cx="445.5" cy="244.5" r="5.5" fill="#000" stroke="#2962FF" stroke-width="2"/><path fill="url(#ecxfwj5w4)" d="M508 227h88a4 4 0 0 1 4 4v26a4 4 0 0 1-4 4h-88z"/><path fill="#fff" d="M520.55 251.54v-1.27l5.09-5.43q.96-1.04 1.5-1.7.53-.68.74-1.22t.21-1.18v-.02q0-.77-.35-1.37t-.97-.96-1.47-.35q-.9 0-1.59.37a2.7 2.7 0 0 0-1.46 2.51v.04h-1.78v-.04a4.3 4.3 0 0 1 2.38-3.9 5.3 5.3 0 0 1 2.51-.59q1.32 0 2.35.55 1.05.53 1.64 1.46.6.94.6 2.13v.02q0 .82-.3 1.6-.28.75-1.03 1.72-.74.94-2.09 2.33l-3.91 4.03.49-.96v.96l-.49-.38h7.58v1.65zm17.67.3q-1.02 0-2.02-.37a5 5 0 0 1-1.8-1.27 6 6 0 0 1-1.28-2.28q-.5-1.43-.49-3.5v-.03q0-2.5.68-4.29a6 6 0 0 1 1.95-2.72 5 5 0 0 1 3.08-.95q1.26 0 2.25.45a4.6 4.6 0 0 1 2.6 3.17l.03.14h-1.86l-.04-.12a2.84 2.84 0 0 0-1.65-1.75q-.6-.24-1.35-.25-1.35 0-2.2.8a5 5 0 0 0-1.25 2.09 11 11 0 0 0-.46 3.1v.25l.44 2.45q0 .96.44 1.75.45.78 1.2 1.24.76.46 1.71.46.93 0 1.7-.45.75-.44 1.2-1.22t.45-1.72v-.02q0-.98-.43-1.73-.42-.75-1.18-1.2a3.4 3.4 0 0 0-1.7-.42q-.98 0-1.74.43a3.2 3.2 0 0 0-1.65 2.87h-.62v-2.6h.31q.3-.62.84-1.14.57-.54 1.37-.85a5 5 0 0 1 1.8-.33 4.8 4.8 0 0 1 4.23 2.4q.64 1.12.64 2.53v.02q0 1.47-.68 2.61a5 5 0 0 1-1.84 1.8q-1.17.66-2.68.66m7.95-.3v-1.27l5.08-5.43a32 32 0 0 0 1.5-1.7q.54-.68.74-1.22.22-.54.22-1.18v-.02q0-.77-.35-1.37a2.5 2.5 0 0 0-.98-.96q-.61-.35-1.46-.35-.9 0-1.6.37-.68.37-1.07 1.03-.39.64-.39 1.48v.04h-1.77l-.01-.04a4.3 4.3 0 0 1 2.38-3.9 5.3 5.3 0 0 1 2.52-.59q1.3 0 2.35.55 1.05.53 1.64 1.46.6.94.6 2.13v.02q0 .82-.3 1.6-.3.75-1.03 1.72-.75.94-2.1 2.33l-3.91 4.03.5-.96v.96l-.5-.38h7.59v1.65zm13.51.12a1.25 1.25 0 0 1-1.27-1.27q0-.54.37-.9.38-.37.9-.37.54 0 .9.37.37.36.37.9a1.25 1.25 0 0 1-1.27 1.27m8.82-15.23q1.02 0 2.01.4a5 5 0 0 1 1.8 1.24q.81.88 1.29 2.3.49 1.4.49 3.5v.02q0 2.5-.69 4.3a6 6 0 0 1-1.95 2.71q-1.27.94-3.07.94a5.5 5.5 0 0 1-2.26-.45 4.5 4.5 0 0 1-2.6-3.16l-.02-.14h1.86l.04.12q.23.6.64 1.06.42.44 1.01.69t1.35.24q1.35 0 2.2-.78.85-.8 1.24-2.1a11 11 0 0 0 .48-3.1v-.25l-.45-2.45q0-.97-.45-1.74-.45-.8-1.2-1.25-.75-.47-1.7-.47a3.3 3.3 0 0 0-2.91 1.68q-.45.75-.45 1.72v.02q0 .98.43 1.73t1.18 1.19q.76.43 1.72.43a3.5 3.5 0 0 0 1.72-.42q.78-.43 1.21-1.18.45-.75.46-1.7v-.01h.6v2.6h-.3q-.27.63-.84 1.16a4.5 4.5 0 0 1-3.17 1.17q-1.4 0-2.5-.63a4.7 4.7 0 0 1-1.73-1.77 5 5 0 0 1-.64-2.53v-.02q0-1.47.67-2.62a5 5 0 0 1 1.86-1.8 5.4 5.4 0 0 1 2.67-.65m13.28 15.41q-1.66 0-2.85-.93a6 6 0 0 1-1.82-2.66 12 12 0 0 1-.63-4.1v-.03q0-2.37.63-4.09a6 6 0 0 1 1.82-2.65q1.2-.95 2.85-.95t2.85.95 1.83 2.65.63 4.1v.01q0 2.37-.63 4.1a6 6 0 0 1-1.83 2.67q-1.2.94-2.85.94m0-1.6q1.08 0 1.86-.74.77-.75 1.19-2.12.4-1.35.4-3.24v-.02q0-1.87-.4-3.23a4.7 4.7 0 0 0-1.2-2.1 2.6 2.6 0 0 0-1.85-.74q-1.09 0-1.86.74-.76.75-1.17 2.1-.42 1.35-.42 3.23v.02q0 1.89.41 3.24.42 1.37 1.18 2.12.77.74 1.86.74"/><path fill="#089981" d="M2 134h597v2H2z"/><path fill="#151517" d="M135 126a8 8 0 0 1 8-8h231a8 8 0 0 1 8 8v18a8 8 0 0 1-8 8H143a8 8 0 0 1-8-8z"/><path fill="#089981" fill-rule="evenodd" d="M143 120a6 6 0 0 0-6 6v18a6 6 0 0 0 6 6h231a6 6 0 0 0 6-6v-18a6 6 0 0 0-6-6zm0-2a8 8 0 0 0-8 8v18a8 8 0 0 0 8 8h231a8 8 0 0 0 8-8v-18a8 8 0 0 0-8-8z"/><path fill="#089981" d="M156.03 142.86q-1.53 0-2.67-.53a4.12 4.12 0 0 1-2.56-3.52l-.02-.12h1.78v.1q.1.74.53 1.29.45.56 1.2.87t1.74.3a4 4 0 0 0 1.7-.33q.73-.34 1.15-.93.4-.6.4-1.39v-.02q0-1.35-.9-2.09-.9-.75-2.47-.74h-1.85v-1.56h1.77q.88 0 1.56-.32.67-.34 1.06-.92.37-.58.37-1.32v-.02q0-.78-.32-1.32a2 2 0 0 0-.97-.83q-.61-.3-1.53-.3-.87 0-1.55.3t-1.1.84-.48 1.29l-.01.1h-1.78l.01-.1q.13-1.2.76-2.11.65-.9 1.7-1.4 1.07-.51 2.45-.51 1.42 0 2.47.5 1.05.47 1.63 1.34.58.84.58 1.97v.02a3.2 3.2 0 0 1-1.5 2.8q-.72.48-1.64.67v.04a4 4 0 0 1 2.62 1.1q1 .95 1 2.53v.02q0 1.24-.66 2.2a4.6 4.6 0 0 1-1.83 1.54q-1.16.56-2.64.56M168.92 142.86q-1.52 0-2.66-.53a4.5 4.5 0 0 1-1.8-1.43 4 4 0 0 1-.77-2.08v-.12h1.77v.1q.1.72.53 1.28.45.56 1.2.87t1.73.3a4 4 0 0 0 1.7-.33q.75-.34 1.16-.93t.4-1.39v-.02q0-1.35-.9-2.09-.9-.75-2.47-.74h-1.85v-1.56h1.77q.88 0 1.56-.32.68-.34 1.05-.92.38-.58.38-1.32v-.02q0-.78-.32-1.32a2 2 0 0 0-.97-.83q-.63-.3-1.53-.3-.87 0-1.56.3-.67.3-1.08.84-.4.54-.5 1.29v.1h-1.78l.01-.1q.13-1.2.76-2.11.65-.9 1.7-1.4 1.07-.51 2.45-.51 1.42 0 2.47.5 1.05.47 1.63 1.34.57.84.58 1.97v.02a3.2 3.2 0 0 1-1.5 2.8q-.72.48-1.64.67v.04q1.62.14 2.62 1.1 1 .95 1 2.53v.02q0 1.24-.66 2.2a4.6 4.6 0 0 1-1.83 1.54q-1.15.56-2.65.56M207.87 136.94v-1.67h10.69v1.66zm4.51 4.53v-10.72h1.66v10.72zM226.15 142.39q-1.39 0-2.48-.54a4.39 4.39 0 0 1-2.51-3.61l-.01-.12h1.8v.09q.1.7.53 1.3a3 3 0 0 0 1.13.92q.69.34 1.56.34.99 0 1.75-.43.75-.45 1.18-1.21.43-.77.43-1.76v-.03q0-.96-.43-1.73a3 3 0 0 0-1.18-1.2 3.4 3.4 0 0 0-1.71-.43 4 4 0 0 0-1.38.23 3.3 3.3 0 0 0-1.8 1.56h-1.61l.78-8.48h8.31v1.65h-6.84l-.5 4.98h.11q.34-.5.83-.84.5-.34 1.11-.51.61-.18 1.3-.18 1.4 0 2.5.64 1.08.63 1.7 1.75.62 1.1.62 2.53v.03q0 1.49-.66 2.63a5 5 0 0 1-1.84 1.78q-1.17.64-2.69.64M239 142.33a7 7 0 0 1-2.79-.55 4.7 4.7 0 0 1-1.9-1.5 3.7 3.7 0 0 1-.7-2.2v-.02a3.7 3.7 0 0 1 1.53-3.01 4 4 0 0 1 1.66-.77v-.04a4 4 0 0 1-1.93-1.25 3 3 0 0 1-.72-2.04v-.02q0-1.12.63-2a4 4 0 0 1 1.72-1.38 6 6 0 0 1 2.5-.51q1.4 0 2.48.51 1.1.5 1.73 1.39.62.87.62 1.99v.02q0 1.17-.72 2.04a4 4 0 0 1-1.92 1.25v.04a4.1 4.1 0 0 1 2.78 2.1q.4.77.4 1.68v.02a3.7 3.7 0 0 1-.7 2.2 4.6 4.6 0 0 1-1.9 1.5q-1.2.55-2.78.55m0-1.61q1.02 0 1.8-.35.78-.36 1.24-.97.45-.63.45-1.43v-.02q0-.81-.45-1.44-.44-.62-1.23-.98a4 4 0 0 0-1.82-.36q-1.03 0-1.81.36-.8.36-1.24.98-.44.63-.44 1.44v.02q0 .79.45 1.43.45.6 1.24.97.79.35 1.8.35m0-7.17q.88 0 1.56-.3.67-.32 1.06-.88.38-.56.38-1.27v-.02q0-.72-.38-1.27-.38-.56-1.06-.86a4 4 0 0 0-1.57-.32q-.9 0-1.57.32-.68.3-1.05.86-.38.56-.38 1.27v.02q0 .72.38 1.27.38.56 1.05.87.68.3 1.57.31M247.78 142.2q-.53 0-.9-.36a1.3 1.3 0 0 1-.37-.9q0-.54.37-.9.38-.38.9-.38.53 0 .9.37.37.38.37.9 0 .53-.37.9-.38.38-.9.38M256.57 142.39q-1.67 0-2.85-.93a6 6 0 0 1-1.82-2.67 12 12 0 0 1-.64-4.1v-.02q0-2.37.64-4.1a6 6 0 0 1 1.82-2.65q1.19-.94 2.85-.94 1.65 0 2.85.94 1.19.92 1.82 2.66.64 1.72.64 4.09v.02q0 2.37-.64 4.1a6 6 0 0 1-1.82 2.67q-1.2.93-2.85.93m0-1.61q1.08 0 1.85-.74.78-.75 1.2-2.11.4-1.36.4-3.24v-.02q0-1.88-.4-3.23a4.7 4.7 0 0 0-1.2-2.1 2.6 2.6 0 0 0-1.85-.74q-1.1 0-1.86.74t-1.18 2.1q-.4 1.35-.4 3.23v.02q0 1.88.4 3.24.42 1.36 1.18 2.11t1.86.74M269.65 142.33a7 7 0 0 1-2.78-.55 4.7 4.7 0 0 1-1.9-1.5 3.7 3.7 0 0 1-.7-2.2v-.02a3.7 3.7 0 0 1 1.53-3.01 4 4 0 0 1 1.66-.77v-.04a4 4 0 0 1-1.93-1.25 3 3 0 0 1-.72-2.04v-.02q0-1.12.63-2a4 4 0 0 1 1.72-1.38 6 6 0 0 1 2.5-.51q1.4 0 2.48.51 1.09.5 1.73 1.39.62.87.62 1.99v.02q0 1.17-.72 2.04a4 4 0 0 1-1.92 1.25v.04a4.1 4.1 0 0 1 2.77 2.1q.4.77.4 1.68v.02a3.7 3.7 0 0 1-.68 2.2 4.6 4.6 0 0 1-1.91 1.5q-1.2.55-2.78.55m0-1.61q1.03 0 1.8-.35.79-.36 1.25-.97.45-.63.45-1.43v-.02q0-.81-.45-1.44-.44-.62-1.23-.98a4 4 0 0 0-1.82-.36q-1.03 0-1.81.36-.8.36-1.24.98-.45.63-.45 1.44v.02q0 .79.46 1.43.45.6 1.24.97.78.35 1.8.35m0-7.17q.9 0 1.57-.3.67-.32 1.06-.88.38-.56.38-1.27v-.02q0-.72-.38-1.27a2.5 2.5 0 0 0-1.06-.86 4 4 0 0 0-1.57-.32q-.9 0-1.57.32-.67.3-1.05.86t-.38 1.27v.02q0 .72.38 1.27.38.56 1.05.87.68.3 1.57.31M287.77 141.92q-1.59 0-2.74-.59a4.3 4.3 0 0 1-1.77-1.64 4.7 4.7 0 0 1-.63-2.45v-8.31h1.98v8.16q0 .92.37 1.61.38.69 1.08 1.08.72.39 1.71.39a3.5 3.5 0 0 0 1.72-.39q.7-.39 1.07-1.08t.37-1.61v-8.16h1.98v8.31q0 1.39-.63 2.45-.61 1.05-1.76 1.64-1.14.6-2.75.59M300.69 141.92q-1.44 0-2.5-.46a4 4 0 0 1-1.68-1.25 3.5 3.5 0 0 1-.7-1.89v-.1h1.94v.09q.07.57.45 1 .4.42 1.06.66a4.7 4.7 0 0 0 2.94-.02q.63-.25.98-.7.36-.45.36-1.03v-.01q0-.75-.56-1.21a4 4 0 0 0-1.8-.76l-1.4-.29a5.5 5.5 0 0 1-2.8-1.32 3.1 3.1 0 0 1-.88-2.3q0-1.1.59-1.93.59-.84 1.63-1.3 1.03-.48 2.38-.48t2.34.47q1.01.45 1.6 1.25.58.78.65 1.78l.01.12h-1.92l-.02-.11q-.08-.53-.43-.92a2 2 0 0 0-.92-.64 3 3 0 0 0-1.34-.23q-.74 0-1.32.23-.58.22-.92.64-.33.42-.33 1.01v.01q0 .72.53 1.19.55.47 1.77.72l1.39.3q1.32.29 2.15.76a3 3 0 0 1 1.2 1.15q.4.68.4 1.62v.01q0 1.2-.6 2.1-.6.87-1.69 1.36-1.07.48-2.56.48M308.44 141.61v-12.68h4.58a6.5 6.5 0 0 1 3.22.75q1.34.75 2.04 2.15t.71 3.4v.02q0 2.01-.71 3.44a5 5 0 0 1-2.04 2.18q-1.32.75-3.22.74zm1.97-1.7h2.4a4.4 4.4 0 0 0 2.25-.55q.93-.54 1.43-1.58.49-1.05.49-2.5v-.02q0-1.45-.5-2.5-.49-1.04-1.44-1.58a4.4 4.4 0 0 0-2.24-.55h-2.39zM366 129.22l-1.22-1.22-6.28 6.28-6.28-6.28-1.22 1.22 6.28 6.28-6.28 6.28 1.22 1.22 6.28-6.28 6.28 6.28 1.22-1.22-6.28-6.28z"/><path fill="#082621" d="M335 120h2v30h-2zM189 120h2v30h-2z"/><circle cx="445.5" cy="134.5" r="5.5" fill="#141516" stroke="#2962FF" stroke-width="2"/><path fill="url(#fcxfwj5w4)" d="M508 119h87a4 4 0 0 1 4 4v25a4 4 0 0 1-4 4h-87z"/><path fill="#fff" d="M521.03 142.97v-1.29l5.17-5.5q.97-1.05 1.51-1.74.55-.68.75-1.23.22-.56.22-1.19V132q0-.78-.35-1.4-.36-.6-.99-.96a3 3 0 0 0-1.49-.35q-.9 0-1.6.38a2.8 2.8 0 0 0-1.5 2.55v.03l-1.8-.01-.01-.03q0-1.32.65-2.35a4.5 4.5 0 0 1 1.78-1.61q1.13-.6 2.55-.6 1.32 0 2.38.56 1.06.54 1.66 1.5.62.94.62 2.13v.03q0 .84-.3 1.62t-1.07 1.75q-.75.95-2.12 2.35l-3.97 4.1.5-.99v1l-.5-.4h7.7v1.67zm17.87.31q-1.02 0-2.03-.4a5 5 0 0 1-1.82-1.26 6.5 6.5 0 0 1-1.32-2.32 11 11 0 0 1-.5-3.56v-.02q0-2.54.7-4.34a6 6 0 0 1 1.98-2.77q1.3-.96 3.12-.96 1.26 0 2.29.46a4.7 4.7 0 0 1 2.64 3.21l.03.14h-1.9l-.04-.11a3 3 0 0 0-1.67-1.78q-.6-.25-1.37-.25-1.37 0-2.24.8-.85.81-1.27 2.13a11 11 0 0 0-.47 3.14v.25l.45 2.49q0 .96.45 1.76t1.23 1.26q.79.47 1.72.47a3.3 3.3 0 0 0 2.96-1.7q.45-.78.45-1.73v-.02a3.5 3.5 0 0 0-.43-1.76 3 3 0 0 0-1.2-1.2q-.75-.45-1.75-.44-.96 0-1.74.43a3.2 3.2 0 0 0-1.69 2.92h-.61v-2.64h.3q.3-.62.85-1.16.58-.54 1.39-.86a5 5 0 0 1 1.83-.34 4.9 4.9 0 0 1 4.3 2.44q.64 1.12.64 2.56v.03q0 1.48-.68 2.65a5 5 0 0 1-1.88 1.82q-1.2.66-2.72.66m13.4 0q-1.04 0-2.04-.4a5 5 0 0 1-1.82-1.26 6.5 6.5 0 0 1-1.32-2.32 11 11 0 0 1-.5-3.56v-.02q0-2.54.7-4.34a6 6 0 0 1 1.98-2.77q1.3-.96 3.12-.96 1.26 0 2.29.46a4.6 4.6 0 0 1 2.64 3.21l.03.14h-1.9l-.03-.11a3.05 3.05 0 0 0-3.05-2.03q-1.37 0-2.24.8-.85.81-1.26 2.13a11 11 0 0 0-.47 3.14v.25l.45 2.49q0 .96.44 1.76.46.8 1.23 1.26.78.47 1.73.47a3.3 3.3 0 0 0 2.95-1.7q.45-.78.45-1.73v-.02a3.5 3.5 0 0 0-.43-1.76 3 3 0 0 0-1.2-1.2q-.75-.45-1.74-.44-.97 0-1.75.43a3.2 3.2 0 0 0-1.68 2.92h-.62v-2.64h.3q.3-.62.86-1.16a4.83 4.83 0 0 1 3.21-1.2 4.9 4.9 0 0 1 4.3 2.44q.65 1.12.65 2.56v.03q0 1.48-.69 2.65a5 5 0 0 1-1.88 1.82q-1.2.66-2.71.66m8.93-.19q-.54 0-.9-.37a1.3 1.3 0 0 1-.38-.91q0-.54.37-.9.38-.38.9-.38.55 0 .92.37.38.38.38.9a1.27 1.27 0 0 1-1.3 1.3m4.32-.12 6.76-13.24v-.09h-8.05v-1.67h9.93v1.73l-6.67 13.27zm16.28.31q-1.04 0-2.04-.4a5 5 0 0 1-1.82-1.26 6.5 6.5 0 0 1-1.32-2.32 11 11 0 0 1-.5-3.56v-.02q0-2.54.7-4.34a6 6 0 0 1 1.98-2.77q1.3-.96 3.12-.96 1.26 0 2.29.46a4.6 4.6 0 0 1 2.64 3.21l.03.14h-1.9l-.03-.11a3.05 3.05 0 0 0-3.05-2.03q-1.37 0-2.24.8-.85.81-1.26 2.13a11 11 0 0 0-.47 3.14v.25l.44 2.49q0 .96.45 1.76.46.8 1.23 1.26.78.47 1.72.47a3.3 3.3 0 0 0 2.96-1.7q.45-.78.46-1.73v-.02a3.5 3.5 0 0 0-.44-1.76 3 3 0 0 0-1.2-1.2q-.76-.45-1.74-.44-.97 0-1.75.43a3.2 3.2 0 0 0-1.69 2.92h-.6v-2.64h.3q.28-.62.85-1.16t1.38-.86a5 5 0 0 1 1.83-.34 4.9 4.9 0 0 1 4.3 2.44q.65 1.12.65 2.56v.03q0 1.48-.69 2.65a5 5 0 0 1-1.88 1.82q-1.2.66-2.71.66"/><path fill="#183C85" d="M4.56 71H1v2h3.56zm14.24 2v-2h-7.12v2zm7.12-2v2h7.12v-2zm14.23 0v2h7.12v-2zm14.24 0v2h7.12v-2zm14.24 0v2h7.12v-2zm14.24 0v2h7.12v-2zm14.24 0v2h7.12v-2zm14.24 0v2h7.11v-2zm21.35 0h-7.12v2h7.12zm441.38 2h-7.12v-2h7.12zm14.24 0h-7.12v-2h7.12zM599 71h-3.56v2H599zm-39.15 0h-7.12v2h7.12zm-14.24 0h-7.12v2h7.12zm-14.24 0h-7.12v2h7.12zm-14.24 0h-7.12v2h7.12zm-14.24 0h-7.12v2h7.12zm-14.24 0h-7.11v2h7.11zm-14.23 0h-7.12v2h7.12zm-14.24 0h-7.12v2h7.12zm-14.24 0h-7.12v2h7.12zm-14.24 0h-7.12v2h7.12zm-14.24 0h-7.11v2h7.11zm-14.23 0h-7.12v2h7.12zm-14.24 0h-7.12v2h7.12zm-14.24 0h-7.12v2h7.12zm-14.24 0h-7.12v2h7.12zm-14.24 0h-7.12v2h7.12zm-14.23 0h-7.12v2h7.12zm-14.24 0h-7.12v2h7.12zm-14.24 0h-7.12v2h7.12zm-14.24 0h-7.12v2h7.12zm-14.24 0h-7.12v2h7.12zm-14.23 0h-7.12v2h7.12zm-14.24 0h-7.12v2h7.12zm-14.24 0h-7.12v2h7.12zm-14.24 0h-7.12v2h7.12zm-14.24 0h-7.12v2h7.12zm-14.23 0h-7.12v2h7.12zm-14.24 0h-7.12v2h7.12zm-14.24 0h-7.12v2h7.12zm-14.24 0h-7.12v2h7.12z"/><rect width="88" height="34" x="74" y="56" fill="#2962FF" rx="8"/><path fill="#fff" d="M103.06 80v-1.63h4.5q1.67 0 2.53-.67.86-.66.86-1.93v-.03q0-.84-.4-1.42a2.4 2.4 0 0 0-1.2-.86 6 6 0 0 0-1.96-.29h-4.33v-1.59h3.8q1.68 0 2.52-.6.86-.61.86-1.8v-.02q0-1.11-.75-1.72t-2.11-.6h-4.32V65.2h4.71q1.35 0 2.3.47a3.4 3.4 0 0 1 2.03 3.21v.03q0 .76-.35 1.45a3.4 3.4 0 0 1-.92 1.16q-.58.45-1.32.58v.13q1.03.12 1.78.6t1.15 1.25.41 1.76v.02a4 4 0 0 1-.6 2.22q-.6.93-1.72 1.43-1.11.5-2.7.49zm-.92 0V65.2h1.84V80zM118.96 80.2q-1.22 0-2.06-.48a3 3 0 0 1-1.27-1.38 5 5 0 0 1-.43-2.17V69.1h1.78v6.68q0 1.41.59 2.13.6.7 1.88.7.7 0 1.23-.21a2.5 2.5 0 0 0 1.48-1.58q.2-.56.2-1.28V69.1h1.78V80h-1.78v-1.6h-.12q-.27.56-.74.96-.44.4-1.1.62-.63.21-1.44.21M128.07 83.76a5 5 0 0 1-.85-.06v-1.46l.31.04h.36q.8 0 1.3-.35.48-.35.8-1.28l.2-.64-4.04-10.91h1.9l3.29 9.85-.59-.85h.73l-.58.85 3.28-9.85h1.88l-4.27 11.58a8 8 0 0 1-.91 1.82q-.5.67-1.16.97-.67.3-1.65.3"/><path fill="#161718" d="M201.2 64.09a8 8 0 0 1 8-8h163a8 8 0 0 1 8 8v18a8 8 0 0 1-8 8h-163a8 8 0 0 1-8-8z"/><path fill="#142E61" fill-rule="evenodd" d="M372.2 58.09h-163a6 6 0 0 0-6 6v18a6 6 0 0 0 6 6h163a6 6 0 0 0 6-6v-18a6 6 0 0 0-6-6m-163-2a8 8 0 0 0-8 8v18a8 8 0 0 0 8 8h163a8 8 0 0 0 8-8v-18a8 8 0 0 0-8-8z"/><g fill="#2962FF" opacity=".7"><path d="M218.68 80.09v-1.27l5.08-5.43a31 31 0 0 0 1.5-1.7q.54-.68.74-1.22.21-.54.22-1.18v-.02q0-.77-.35-1.37t-.98-.96q-.61-.34-1.46-.34-.9 0-1.6.36a2.7 2.7 0 0 0-1.46 2.52v.03h-1.77l-.01-.03a4.3 4.3 0 0 1 2.38-3.91 5.3 5.3 0 0 1 2.52-.58q1.31 0 2.34.54 1.05.53 1.65 1.47t.6 2.12v.02q0 .83-.3 1.6t-1.03 1.72q-.75.94-2.1 2.33l-3.91 4.03.5-.96v.96l-.49-.38h7.58v1.65zM236.1 80.4q-1.66 0-2.85-.94a6 6 0 0 1-1.82-2.66 12 12 0 0 1-.63-4.1v-.02q0-2.37.63-4.1a6 6 0 0 1 1.82-2.65q1.2-.94 2.85-.94t2.85.94q1.2.93 1.83 2.65.63 1.73.63 4.1v.02q0 2.37-.63 4.1a6 6 0 0 1-1.83 2.66q-1.2.94-2.85.94m0-1.61q1.08 0 1.86-.74.77-.75 1.19-2.11.4-1.37.4-3.24v-.02q0-1.88-.4-3.23a4.7 4.7 0 0 0-1.2-2.1 2.6 2.6 0 0 0-1.85-.74q-1.08 0-1.86.73-.76.75-1.18 2.1-.4 1.36-.4 3.24v.02q0 1.88.4 3.24.42 1.36 1.18 2.1.77.75 1.86.75M272.91 80.09v-14.8h1.85v13.14h7.14v1.66zM284.33 80.09v-10.9h1.78v10.9zm.9-12.91q-.49 0-.84-.35a1.2 1.2 0 0 1-.35-.84q0-.5.35-.84.35-.35.84-.35t.83.35.35.84q0 .48-.35.84-.34.35-.83.35M289.12 80.09v-10.9h1.78v1.63h.12a3 3 0 0 1 1.13-1.34q.76-.5 1.83-.5.75 0 1.33.25a3 3 0 0 1 1.7 1.73h.12a3.4 3.4 0 0 1 1.95-1.73 4 4 0 0 1 1.42-.25q1.1 0 1.87.44.8.42 1.2 1.22.42.8.42 1.91v7.54h-1.78v-7.13q0-.78-.26-1.3a1.7 1.7 0 0 0-.76-.82 2.6 2.6 0 0 0-1.25-.28q-.75 0-1.3.34-.57.34-.88.91t-.32 1.3v6.98h-1.78v-7.37q0-.64-.28-1.13a2 2 0 0 0-.79-.76 2.5 2.5 0 0 0-1.19-.27q-.7 0-1.28.37-.56.36-.9.99a3 3 0 0 0-.32 1.38v6.79zM306.93 80.09v-10.9h1.78v10.9zm.9-12.91q-.5 0-.84-.35a1.2 1.2 0 0 1-.35-.84q0-.5.35-.84.34-.35.84-.35t.83.35q.35.34.35.84 0 .48-.35.84-.34.35-.83.35M315.47 80.22q-1.61 0-2.36-.68-.75-.7-.75-2.26v-6.61h-1.68v-1.48h1.68v-2.87h1.85v2.87h2.26v1.48h-2.26v6.32q0 .94.37 1.32.36.36 1.17.36a6 6 0 0 0 .72-.04v1.5l-.48.06q-.25.03-.52.03"/></g><path fill="#2962FF" d="m363.2 66.3-1.22-1.21-6.28 6.28-6.28-6.28-1.22 1.22 6.28 6.28-6.28 6.28 1.22 1.22 6.28-6.28 6.28 6.28 1.22-1.22-6.28-6.28z" opacity=".7"/><path fill="#161719" d="M451 72.5a6.5 6.5 0 1 1-13 0 6.5 6.5 0 0 1 13 0"/><path fill="#143A87" fill-rule="evenodd" d="M444.5 77a4.5 4.5 0 1 0 0-9 4.5 4.5 0 0 0 0 9m0 2a6.5 6.5 0 1 0 0-13 6.5 6.5 0 0 0 0 13"/><path fill="#161718" stroke="#142E61" stroke-width="2" d="M509 58h86a3 3 0 0 1 3 3v24a3 3 0 0 1-3 3h-86z"/><g fill="#2962FF" opacity=".7"><path d="M520.3 80.2v-1.28l5.08-5.42a31 31 0 0 0 1.5-1.7q.53-.68.74-1.22.21-.55.21-1.18v-.02q0-.77-.35-1.38t-.97-.95-1.47-.35q-.9 0-1.59.37a2.7 2.7 0 0 0-1.46 2.51v.03h-1.78v-.03a4.3 4.3 0 0 1 2.38-3.9 5.3 5.3 0 0 1 2.51-.59q1.32 0 2.35.54 1.05.54 1.64 1.47.6.93.6 2.12v.02q0 .84-.29 1.6-.3.78-1.04 1.72-.74.95-2.09 2.33l-3.91 4.03.49-.95v.95l-.48-.38h7.57v1.65zM537.96 80.5q-1.02 0-2.02-.38a5 5 0 0 1-1.8-1.26 6 6 0 0 1-1.28-2.29q-.5-1.42-.49-3.5v-.02q0-2.51.68-4.29a6 6 0 0 1 1.95-2.73 5 5 0 0 1 3.09-.94q1.25 0 2.24.45a4.6 4.6 0 0 1 2.6 3.17l.04.13h-1.87l-.04-.11a2.84 2.84 0 0 0-1.65-1.75q-.6-.25-1.35-.25-1.35 0-2.2.79a5 5 0 0 0-1.25 2.1 11 11 0 0 0-.46 3.1v.24l.44 2.46q0 .96.44 1.75.45.78 1.2 1.24.77.45 1.71.46.93 0 1.7-.45.75-.45 1.2-1.22.45-.78.45-1.72v-.02q0-.97-.43-1.74-.42-.75-1.18-1.19a3.4 3.4 0 0 0-1.7-.43q-.98 0-1.74.43a3.2 3.2 0 0 0-1.65 2.88h-.62v-2.6h.31q.3-.63.84-1.15.57-.53 1.37-.85a5 5 0 0 1 1.8-.33q1.4 0 2.5.65 1.1.63 1.74 1.75t.63 2.54v.02q0 1.46-.68 2.61a5 5 0 0 1-1.84 1.8q-1.17.65-2.68.65M550.98 80.44a7 7 0 0 1-2.77-.54 4.7 4.7 0 0 1-1.91-1.5 3.7 3.7 0 0 1-.69-2.2v-.03a3.7 3.7 0 0 1 1.52-3.01 4 4 0 0 1 1.66-.77v-.04a4 4 0 0 1-1.93-1.25 3 3 0 0 1-.72-2.04v-.02q0-1.12.63-2a4 4 0 0 1 1.72-1.38 6 6 0 0 1 2.5-.5q1.4 0 2.49.5t1.72 1.39.62 1.99v.02q0 1.17-.71 2.04a4 4 0 0 1-1.93 1.25v.04a4.1 4.1 0 0 1 2.78 2.1q.4.77.4 1.68v.02a3.7 3.7 0 0 1-.69 2.2 4.6 4.6 0 0 1-1.9 1.5q-1.21.55-2.79.55m0-1.61q1.04 0 1.8-.35.8-.36 1.25-.97.45-.63.45-1.43v-.02q0-.81-.45-1.43-.44-.63-1.23-.99a4 4 0 0 0-1.82-.36q-1.02 0-1.81.36-.8.36-1.24.99-.45.63-.44 1.43v.02q0 .8.45 1.43.45.6 1.24.97.8.35 1.8.35m0-7.17q.9 0 1.57-.3.67-.32 1.06-.88.38-.55.38-1.27v-.02q0-.72-.38-1.27a2.5 2.5 0 0 0-1.06-.86 4 4 0 0 0-1.57-.32q-.89 0-1.56.32-.68.31-1.06.86-.38.56-.38 1.27v.02q0 .72.38 1.27.37.55 1.06.88.68.3 1.56.3M559.77 80.32q-.52 0-.9-.37a1.3 1.3 0 0 1-.37-.9q0-.54.37-.9.38-.38.9-.38.54 0 .9.37.37.38.37.9a1.25 1.25 0 0 1-1.27 1.28M568.66 80.5q-1.39 0-2.48-.54a4.4 4.4 0 0 1-2.51-3.6l-.01-.12h1.8v.08q.1.72.53 1.3a3 3 0 0 0 1.12.92q.71.34 1.57.34.99 0 1.75-.43.75-.45 1.18-1.2.42-.78.43-1.77v-.02q0-.97-.43-1.74a3 3 0 0 0-1.18-1.2 3.4 3.4 0 0 0-1.72-.43q-.75 0-1.37.23a3.3 3.3 0 0 0-1.8 1.56h-1.62l.78-8.48h8.32v1.65h-6.84l-.5 4.98h.11q.34-.5.83-.84.5-.34 1.1-.51.63-.18 1.31-.18 1.4 0 2.5.64 1.08.63 1.7 1.75.62 1.11.62 2.54v.02q0 1.49-.67 2.63a5 5 0 0 1-1.83 1.79q-1.17.63-2.69.63M581.7 80.5q-1.02 0-2.02-.38a5 5 0 0 1-1.79-1.26 6 6 0 0 1-1.3-2.29q-.47-1.42-.47-3.5v-.02q0-2.51.67-4.29a6 6 0 0 1 1.95-2.73 5 5 0 0 1 3.09-.94q1.25 0 2.24.45a4.6 4.6 0 0 1 2.6 3.17l.04.13h-1.87l-.04-.11a2.84 2.84 0 0 0-1.65-1.75q-.6-.25-1.34-.25-1.36 0-2.2.79a5 5 0 0 0-1.26 2.1 11 11 0 0 0-.46 3.1v.24l.44 2.46q0 .96.44 1.75.45.78 1.21 1.24t1.7.46 1.7-.45q.76-.45 1.2-1.22.45-.78.46-1.72v-.02q0-.97-.43-1.74-.42-.75-1.18-1.19a3.4 3.4 0 0 0-1.71-.43q-.98 0-1.74.43a3.2 3.2 0 0 0-1.65 2.88h-.61v-2.6h.3q.3-.63.85-1.15.56-.53 1.36-.85a5 5 0 0 1 1.8-.33q1.4 0 2.5.65 1.1.63 1.74 1.75t.63 2.54v.02q0 1.46-.67 2.61a5 5 0 0 1-1.85 1.8q-1.17.65-2.67.65"/></g><path fill="#182A5B" d="M255.2 58.09h2v30h-2zM332.2 58.09h2v30h-2z"/><path fill="url(#gcxfwj5w4)" d="M612 268h56v612h-56z" transform="rotate(90 612 268)"/><defs><linearGradient id="acxfwj5w4" x1="305.5" x2="305.5" y1="0" y2="345" gradientUnits="userSpaceOnUse"><stop stop-color="#121314"/><stop offset="1" stop-color="#0B0B0C"/></linearGradient><linearGradient id="bcxfwj5w4" x1="31.24" x2="324.63" y1="-9.27" y2="619.2" gradientUnits="userSpaceOnUse"><stop stop-color="#fff"/><stop offset="1" stop-opacity="0"/></linearGradient><linearGradient id="ccxfwj5w4" x1="220.16" x2="220.16" y1="147" y2="342" gradientUnits="userSpaceOnUse"><stop stop-color="#FF4D4D"/><stop offset="1" stop-color="#FF4D4D" stop-opacity="0"/></linearGradient><linearGradient id="dcxfwj5w4" x1="553.5" x2="553.5" y1="176.07" y2="210.07" gradientUnits="userSpaceOnUse"><stop stop-color="#2962FF"/><stop offset="1" stop-color="#193B99"/></linearGradient><linearGradient id="ecxfwj5w4" x1="554" x2="554" y1="227" y2="261" gradientUnits="userSpaceOnUse"><stop stop-color="#FF9800"/><stop offset="1" stop-color="#995B00"/></linearGradient><linearGradient id="fcxfwj5w4" x1="553.5" x2="553.5" y1="119" y2="152" gradientUnits="userSpaceOnUse"><stop stop-color="#089981"/><stop offset="1" stop-color="#03332B"/></linearGradient><linearGradient id="gcxfwj5w4" x1="668" x2="612" y1="574" y2="574" gradientUnits="userSpaceOnUse"><stop/><stop offset="1" stop-opacity="0"/></linearGradient></defs></svg>