<svg xmlns="http://www.w3.org/2000/svg" width="612" height="392" fill="none" viewBox="0 0 612 392"><path fill="#000" d="M0 0h612v392H0z"/><path stroke="#414141" stroke-width="2" d="M214 187h120M214 187h38.5a7 7 0 0 1 7 7v76a7 7 0 0 0 7 7H392M214 187h6.5a7 7 0 0 0 7-7v-79a7 7 0 0 1 7-7H374"/><path stroke="#414141" stroke-width="2" d="M203 187h17.5a7 7 0 0 1 7 7v100a7 7 0 0 0 7 7H250a7 7 0 0 1 7 7v37M227.5 175l.12-73.99a7 7 0 0 0-7-7.01h-27.5a7 7 0 0 1-7-6.99L186 6"/><g stroke="#414141" clip-path="url(#a1trm4gwj)" opacity=".5"><path d="M118.27 63.35-19.62 201.24M126.27 71.35-11.62 209.24M134.27 79.35-3.62 217.24M142.27 87.35 4.38 225.24M150.27 95.35 12.38 233.24M158.27 103.35 20.38 241.24M166.27 111.35 28.38 249.24M174.27 119.35 36.38 257.24M182.27 127.35 44.38 265.24M190.27 135.35 52.38 273.24M198.27 143.35 60.38 281.24M206.27 151.35 68.38 289.24M214.27 159.35 76.38 297.24M222.27 167.35 84.38 305.24M230.27 175.35 92.38 313.24"/></g><path stroke="#696969" stroke-dasharray="6 6" stroke-width="2" d="M72 98h60a15 15 0 0 1 15 15v150a15 15 0 0 1-15 15H70" opacity=".6"/><path fill="#EBEBEB" d="M1.66 86v-1.53l4.05-4.26q.85-.87 1.3-1.43.47-.55.66-1 .18-.45.18-.92v-.02q0-.6-.25-1.04a1.7 1.7 0 0 0-.7-.72q-.45-.26-1.08-.26t-1.13.28q-.5.27-.76.78-.27.48-.27 1.14l-.01.03H1.54v-.03a3.9 3.9 0 0 1 2.1-3.5 5 5 0 0 1 2.3-.51q1.2 0 2.14.47.95.45 1.47 1.27.55.81.55 1.89v.03q0 .72-.27 1.4t-.9 1.49-1.77 1.9l-3.05 3.07.6-1.02v1.02l-.6-.4h6.17V86zM17.23 86.3q-1.5 0-2.56-.8a5 5 0 0 1-1.65-2.3q-.58-1.5-.58-3.54v-.01q0-2.06.58-3.54.57-1.48 1.65-2.3 1.07-.8 2.56-.8 1.5 0 2.58.8 1.07.82 1.65 2.3.58 1.5.58 3.54v.01q0 2.05-.58 3.55a5 5 0 0 1-1.65 2.29q-1.07.8-2.58.8m0-1.82q.81 0 1.37-.58t.86-1.65.3-2.59v-.01q0-1.5-.3-2.58a4 4 0 0 0-.86-1.64 1.8 1.8 0 0 0-1.37-.58q-.78 0-1.35.58-.56.57-.86 1.64t-.29 2.58v.01q0 1.5.29 2.59.3 1.06.86 1.65t1.35.58M24.35 86v-1.53l4.04-4.26q.85-.87 1.31-1.43.48-.55.65-1 .2-.45.19-.92v-.02q0-.6-.25-1.04a1.7 1.7 0 0 0-.7-.72q-.45-.26-1.08-.26t-1.13.28q-.5.27-.76.78-.27.48-.27 1.14l-.01.03h-2.11v-.03a3.9 3.9 0 0 1 2.1-3.5 5 5 0 0 1 2.3-.51q1.2 0 2.14.47.94.45 1.47 1.27.55.81.55 1.89v.03q0 .72-.27 1.4t-.9 1.49q-.65.8-1.77 1.9l-3.05 3.07.6-1.02v1.02l-.6-.4h6.17V86zM40.04 86.3q-1.3 0-2.27-.47a3.84 3.84 0 0 1-2.21-3.19l-.01-.11h2.09v.07q.1.5.42.94a2.4 2.4 0 0 0 1.99.92q.73 0 1.29-.32.55-.33.87-.9t.32-1.32v-.02q0-.73-.32-1.3t-.87-.88q-.56-.33-1.28-.33-.53 0-.98.16a2.5 2.5 0 0 0-1.37 1.2h-1.94l.6-7.43h7.57v1.85h-5.8l-.34 3.86h.14q.26-.43.67-.73.4-.3.91-.46.52-.16 1.1-.16a4 4 0 0 1 2.1.54q.91.54 1.43 1.48t.52 2.16v.02q0 1.3-.59 2.31-.6 1-1.63 1.56-1.05.56-2.41.56M3.66 202v-1.53l4.05-4.26q.84-.87 1.3-1.43t.66-1 .18-.92v-.02q0-.6-.25-1.04a1.7 1.7 0 0 0-.7-.72q-.45-.26-1.08-.26t-1.13.28q-.5.27-.76.78-.27.48-.27 1.14l-.01.03H3.54v-.03a3.9 3.9 0 0 1 2.1-3.5 5 5 0 0 1 2.3-.51q1.2 0 2.14.47.95.45 1.47 1.27.55.82.55 1.89v.03q0 .72-.27 1.4t-.9 1.49-1.77 1.9l-3.05 3.07.6-1.02v1.02l-.6-.4h6.17V202zM19.23 202.3q-1.5 0-2.56-.8a5 5 0 0 1-1.65-2.3q-.58-1.5-.58-3.54v-.01q0-2.06.58-3.54.57-1.48 1.65-2.3 1.07-.8 2.56-.8 1.5 0 2.58.8 1.07.82 1.65 2.3.58 1.5.58 3.54v.01q0 2.05-.58 3.55a5 5 0 0 1-1.65 2.29q-1.07.8-2.58.8m0-1.82q.81 0 1.37-.58.56-.59.86-1.65.3-1.09.3-2.59v-.01q0-1.5-.3-2.58a4 4 0 0 0-.86-1.64 1.8 1.8 0 0 0-1.37-.58q-.78 0-1.35.58-.56.56-.86 1.64t-.29 2.58v.01q0 1.5.29 2.59.3 1.06.86 1.65t1.35.58M26.35 202v-1.53l4.04-4.26q.85-.87 1.31-1.43t.65-1 .19-.92v-.02q0-.6-.25-1.04a1.7 1.7 0 0 0-.7-.72q-.45-.26-1.08-.26t-1.13.28q-.5.27-.76.78-.27.48-.27 1.14l-.01.03h-2.11v-.03a3.9 3.9 0 0 1 2.1-3.5 5 5 0 0 1 2.3-.51q1.2 0 2.14.47.94.45 1.47 1.27.55.82.55 1.89v.03q0 .72-.27 1.4t-.9 1.49q-.65.8-1.77 1.9l-3.05 3.07.6-1.02v1.02l-.6-.4h6.17V202zM43.03 202v-2.44h-6.07v-1.85a162 162 0 0 1 5.04-8.4h3.2v8.38h1.67v1.88H45.2V202zm-3.98-4.25h4.03v-6.62h-.13l-.78 1.23-1.59 2.62-1.53 2.64zM1.66 318v-1.53l4.05-4.26q.85-.87 1.3-1.43.47-.55.66-1 .18-.44.18-.92v-.02q0-.6-.25-1.04a1.7 1.7 0 0 0-.7-.72q-.45-.26-1.08-.26t-1.13.28q-.5.27-.76.77-.27.5-.27 1.15l-.01.03H1.54v-.03a3.9 3.9 0 0 1 2.1-3.5 5 5 0 0 1 2.3-.51q1.2 0 2.14.47.95.45 1.47 1.27.55.83.55 1.89v.03q0 .72-.27 1.4t-.9 1.49-1.77 1.9l-3.05 3.07.6-1.02v1.02l-.6-.4h6.17V318zM17.23 318.3q-1.5 0-2.56-.8a5 5 0 0 1-1.65-2.3q-.58-1.5-.58-3.54v-.01q0-2.06.58-3.54.57-1.48 1.65-2.3 1.07-.8 2.56-.8 1.5 0 2.58.8 1.07.82 1.65 2.3.58 1.5.58 3.54v.01q0 2.06-.58 3.54a5 5 0 0 1-1.65 2.3q-1.07.8-2.58.8m0-1.82q.81 0 1.37-.58.56-.59.86-1.65.3-1.08.3-2.59v-.01q0-1.5-.3-2.58a4 4 0 0 0-.86-1.64 1.8 1.8 0 0 0-1.37-.58q-.78 0-1.35.58-.56.57-.86 1.64t-.29 2.58v.01q0 1.5.29 2.59.3 1.06.86 1.65t1.35.58M24.35 318v-1.53l4.04-4.26q.85-.87 1.31-1.43.48-.55.65-1 .2-.44.19-.92v-.02q0-.6-.25-1.04a1.7 1.7 0 0 0-.7-.72q-.45-.26-1.08-.26t-1.13.28q-.5.27-.76.77-.27.5-.27 1.15l-.01.03h-2.11v-.03a3.9 3.9 0 0 1 2.1-3.5 5 5 0 0 1 2.3-.51q1.2 0 2.14.47.94.45 1.47 1.27.55.83.55 1.89v.03q0 .72-.27 1.4t-.9 1.49q-.65.8-1.77 1.9l-3.05 3.07.6-1.02v1.02l-.6-.4h6.17V318zM39.96 318.26q-1.36 0-2.38-.47a3.74 3.74 0 0 1-2.29-3.2v-.12h2.16l.01.1q.06.53.37.94.33.42.87.65.55.24 1.25.24.72 0 1.24-.25t.82-.7.3-1.05v-.01q0-1-.68-1.54a3 3 0 0 0-1.84-.54h-1.45v-1.68h1.4q.69 0 1.19-.25t.79-.67q.27-.42.28-.98v-.02q0-.59-.25-1-.24-.4-.7-.63t-1.12-.22q-.63 0-1.13.23a1.9 1.9 0 0 0-1.14 1.62l-.01.09h-2.1v-.1q.1-1.11.67-1.91.56-.82 1.52-1.27a5 5 0 0 1 2.2-.46q1.28 0 2.23.43.95.42 1.46 1.17.53.75.53 1.75v.02a2.8 2.8 0 0 1-1.26 2.38q-.6.4-1.32.55v.05q1.35.13 2.19.93t.83 2.1v.03q0 1.1-.59 1.97a4 4 0 0 1-1.62 1.33q-1.05.49-2.43.49"/><path fill="#8C8C8C" d="M21.76 28.3q-1.4 0-2.43-.45a4 4 0 0 1-1.63-1.25 3.6 3.6 0 0 1-.7-1.83v-.1h1.57l.01.1q.06.65.49 1.1.42.45 1.14.71a5 5 0 0 0 3.16-.01q.67-.29 1.07-.78.38-.48.38-1.13 0-.8-.58-1.34a4 4 0 0 0-1.89-.83l-1.4-.3a5.5 5.5 0 0 1-2.78-1.3 3.1 3.1 0 0 1-.86-2.28q0-1.05.57-1.87.57-.81 1.57-1.26 1.02-.46 2.32-.46 1.28 0 2.24.46.98.45 1.55 1.22.58.76.64 1.71l.01.12h-1.58l-.02-.11q-.08-.56-.45-1-.37-.45-.99-.7-.6-.26-1.44-.24-.8 0-1.42.25-.64.25-1.02.7-.36.47-.36 1.13 0 .77.56 1.28a4 4 0 0 0 1.85.8l1.4.32q1.34.3 2.14.76a3 3 0 0 1 1.18 1.14q.38.66.38 1.58 0 1.2-.58 2.06a4 4 0 0 1-1.63 1.33q-1.05.47-2.47.47M32.26 28.17q-1.35 0-2.32-.6a4 4 0 0 1-1.5-1.69 6 6 0 0 1-.52-2.57v-.01q0-1.47.52-2.58A4 4 0 0 1 29.92 19a4 4 0 0 1 2.24-.62q1.29 0 2.22.6.94.59 1.42 1.65.5 1.07.5 2.48v.6h-7.58V22.5h6.8l-.76 1.12V23q0-1.12-.33-1.84a2.4 2.4 0 0 0-2.28-1.42q-.75 0-1.36.37-.6.36-.95 1.1a4 4 0 0 0-.35 1.79v.6q0 1.02.34 1.73.34.7.97 1.1.63.37 1.5.37.64 0 1.1-.17.48-.18.8-.45.3-.27.42-.56l.04-.08h1.53l-.02.07a3 3 0 0 1-.44.95q-.3.45-.81.82-.49.36-1.16.58-.68.2-1.5.2M38.2 31.16V18.54h1.53v1.51h.13a3 3 0 0 1 1.73-1.47q.56-.2 1.22-.2 1.2 0 2.1.6.88.61 1.38 1.7.5 1.11.5 2.58v.02q0 1.49-.5 2.58-.5 1.1-1.39 1.7t-2.09.6q-.65 0-1.23-.2a4 4 0 0 1-1.02-.58q-.45-.36-.7-.87h-.13v4.65zm4.26-4.35q.87 0 1.48-.42.62-.44.95-1.22.33-.8.33-1.89v-.02q0-1.1-.33-1.9a2.6 2.6 0 0 0-.95-1.2q-.6-.43-1.48-.43-.85 0-1.48.43-.61.44-.96 1.22a5 5 0 0 0-.33 1.88v.02q0 1.08.33 1.88.34.8.96 1.22.63.43 1.48.43M15.59 144l4.68-12.68h1.2v2.04H21L17.25 144zm2.12-3.63.49-1.34h5.73l.5 1.34zm7.13 3.63-3.72-10.64v-2.04h.71L26.51 144zM30.78 144.17q-1.07 0-1.8-.4a2.6 2.6 0 0 1-1.1-1.2 5 5 0 0 1-.36-1.9v-6.13h1.53v5.76q0 1.26.5 1.89t1.63.62a3 3 0 0 0 1.09-.18q.49-.18.8-.53.34-.34.5-.84t.16-1.12v-5.6h1.53V144h-1.53v-1.4h-.13q-.24.48-.64.85-.39.34-.94.53-.54.2-1.24.19M41.52 147.34a6 6 0 0 1-2-.33 3 3 0 0 1-1.35-.9 2.7 2.7 0 0 1-.63-1.35l.01-.01h1.59q.14.55.75.88.6.36 1.63.36 1.27 0 1.98-.58.72-.58.72-1.63v-1.88h-.14a3.2 3.2 0 0 1-2.97 1.63q-1.2 0-2.11-.58-.9-.59-1.37-1.61a5.5 5.5 0 0 1-.48-2.37v-.01q0-1.34.48-2.36.5-1.04 1.39-1.63.9-.6 2.12-.6.67 0 1.24.22.56.21.99.6.44.38.73.92h.1v-1.57h1.53v9.32q0 1.05-.52 1.84-.5.78-1.45 1.2-.96.44-2.24.44m-.08-5.16a2.7 2.7 0 0 0 1.5-.4q.63-.42.96-1.14.35-.72.35-1.67v-.01q0-.94-.35-1.68a2.7 2.7 0 0 0-.95-1.14 2.7 2.7 0 0 0-1.5-.41 2.6 2.6 0 0 0-1.5.41q-.6.42-.92 1.15a4 4 0 0 0-.32 1.67v.01q0 .95.32 1.67t.93 1.14q.6.4 1.48.4M22.32 260.3q-.83 0-1.47-.24a3.1 3.1 0 0 1-1.8-1.68q-.25-.57-.3-1.26l-.01-.13h1.58v.1q.06.46.29.87t.65.64q.42.24 1.05.24 1.05 0 1.6-.6.56-.62.56-1.78v-9.14h1.58v9.16q0 1.2-.45 2.05-.44.85-1.27 1.31t-2.01.46M31.78 260.17q-1.08 0-1.8-.4a2.6 2.6 0 0 1-1.1-1.2 5 5 0 0 1-.36-1.9v-6.13h1.53v5.76q0 1.26.49 1.89.5.63 1.63.62a3 3 0 0 0 1.1-.18q.48-.18.8-.53t.49-.84.16-1.12v-5.6h1.53V260h-1.53v-1.4h-.13q-.24.48-.63.85a3 3 0 0 1-.94.53q-.55.2-1.24.19M38.62 260v-9.46h1.52v1.42h.14q.36-.75 1.03-1.16a3.3 3.3 0 0 1 1.74-.42q1.59 0 2.44.91.86.9.86 2.58V260h-1.53v-5.76q0-1.28-.54-1.9-.54-.6-1.67-.61-.75 0-1.3.33-.55.32-.87.92-.3.59-.3 1.42v5.6zM24.32 376.3q-.83 0-1.47-.24a3.1 3.1 0 0 1-1.8-1.68q-.25-.57-.3-1.26l-.01-.13h1.58v.1q.06.46.29.87t.65.64q.42.24 1.05.24 1.05 0 1.6-.6.56-.62.56-1.78v-9.14h1.58v9.16q0 1.2-.45 2.05-.44.85-1.27 1.31t-2.01.46m9.46-.13q-1.08 0-1.8-.4a2.6 2.6 0 0 1-1.1-1.2 5 5 0 0 1-.36-1.9v-6.13h1.53v5.76q0 1.26.49 1.89.5.63 1.63.62a3 3 0 0 0 1.1-.18q.48-.18.8-.53t.49-.84.16-1.12v-5.6h1.53V376h-1.53v-1.4h-.13q-.24.48-.63.85a3 3 0 0 1-.94.53q-.55.2-1.24.19m6.92-.17v-13.21h1.53V376z"/><path fill="url(#b1trm4gwj)" d="M300 169a16 16 0 0 1 16-16h280a16 16 0 0 1 16 16v33a16 16 0 0 1-16 16H316a16 16 0 0 1-16-16z"/><path fill="url(#c1trm4gwj)" fill-opacity=".2" d="M596 216v2H316v-2zm14-14v-33a14 14 0 0 0-14-14H316a14 14 0 0 0-14 14v33a14 14 0 0 0 14 14v2h-.41A16 16 0 0 1 300 202.4L300 202v-33a16 16 0 0 1 15.59-16H596.4A16 16 0 0 1 612 169v33.41A16 16 0 0 1 596.4 218H596v-2a14 14 0 0 0 14-14"/><path fill="#fff" d="m399.59 182 4.68-12.68h1.2v2.04H405L401.25 182zm2.12-3.63.49-1.34h5.73l.5 1.34zm7.14 3.63-3.73-10.64v-2.04h.71l4.68 12.68zM415.13 182.17q-1.06 0-1.87-.32a3 3 0 0 1-1.3-.9q-.48-.6-.57-1.38h1.57q.19.6.74.96.57.36 1.48.36.64 0 1.12-.18.48-.2.76-.52.28-.33.28-.76v-.01q0-.5-.38-.82a3 3 0 0 0-1.25-.56l-1.47-.35a5 5 0 0 1-1.46-.54q-.57-.34-.84-.84a2.4 2.4 0 0 1-.28-1.17v-.01q0-.8.46-1.42t1.26-.97a4 4 0 0 1 1.8-.36q1 0 1.76.31.77.3 1.24.89.46.57.57 1.34h-1.5q-.14-.56-.68-.92a2.5 2.5 0 0 0-1.4-.35q-.55 0-1 .19-.43.17-.69.49-.25.3-.25.73v.01q0 .32.17.57.16.24.5.43.36.18.91.32l1.46.35q1.33.33 1.99.94t.65 1.62v.02q0 .84-.5 1.49-.5.63-1.36 1a5 5 0 0 1-1.92.36M423.89 182.17q-1.06 0-1.87-.32a3 3 0 0 1-1.3-.9q-.47-.6-.57-1.38h1.57q.2.6.74.96.57.36 1.48.36.64 0 1.12-.18.49-.2.76-.52.28-.33.28-.76v-.01q0-.5-.38-.82a3 3 0 0 0-1.25-.56l-1.47-.35a5 5 0 0 1-1.46-.54q-.57-.34-.84-.84a2.4 2.4 0 0 1-.27-1.17v-.01q0-.8.45-1.42.46-.62 1.26-.97a4 4 0 0 1 1.8-.36q1 0 1.76.31.77.3 1.24.89.46.57.57 1.34H426a1.5 1.5 0 0 0-.68-.92 2.5 2.5 0 0 0-1.4-.35q-.55 0-1 .19-.44.17-.69.49-.25.3-.25.73v.01q0 .32.17.57.16.24.5.43.36.18.91.32l1.46.35q1.34.33 1.99.94t.65 1.62v.02q0 .84-.5 1.49-.5.63-1.36 1a5 5 0 0 1-1.92.36M433.43 182.17q-1.35 0-2.32-.6a4 4 0 0 1-1.5-1.69 6 6 0 0 1-.51-2.57v-.01a6 6 0 0 1 .52-2.58 4 4 0 0 1 1.47-1.72 4 4 0 0 1 2.25-.62q1.3 0 2.2.6.94.58 1.43 1.66.5 1.05.5 2.47v.6h-7.58v-1.22h6.8l-.75 1.11v-.6q0-1.12-.34-1.84a2.4 2.4 0 0 0-2.27-1.42q-.77 0-1.37.37-.6.36-.95 1.1a4 4 0 0 0-.35 1.79v.6q0 1.02.34 1.73.35.7.97 1.1.63.38 1.5.38.64 0 1.11-.18t.79-.45.43-.56l.03-.08h1.53l-.02.07a3 3 0 0 1-.44.95q-.3.45-.8.82t-1.17.58q-.66.2-1.5.2M442.72 182.08q-1.45 0-2.11-.59-.65-.6-.65-1.94v-5.74h-1.49v-1.27h1.49v-2.45h1.58v2.45h2.06v1.27h-2.06v5.37q0 .82.32 1.19.31.35 1.04.36a6 6 0 0 0 .7-.04v1.3a9 9 0 0 1-.88.09M448.48 182.17q-1.05 0-1.86-.32a3 3 0 0 1-1.3-.9q-.48-.6-.57-1.38h1.56q.2.6.75.96.57.36 1.48.36.63 0 1.11-.18.5-.2.77-.52.28-.33.28-.76v-.01q0-.5-.39-.82a3 3 0 0 0-1.25-.56l-1.46-.35a5 5 0 0 1-1.46-.54q-.57-.34-.85-.84a2.4 2.4 0 0 1-.27-1.17v-.01q0-.8.46-1.42a3 3 0 0 1 1.25-.97 4 4 0 0 1 1.8-.36q1 0 1.76.31.78.3 1.24.89.48.57.57 1.34h-1.5q-.14-.56-.68-.92a2.5 2.5 0 0 0-1.4-.35q-.55 0-1 .19-.42.17-.68.49-.25.3-.25.73v.01q0 .32.16.57.17.24.51.43.36.18.9.32l1.47.35q1.33.33 1.98.94t.65 1.62v.02q0 .84-.5 1.49-.5.63-1.35 1a5 5 0 0 1-1.93.36"/><g fill="#fff" opacity=".5"><path d="M403.86 201.22a4 4 0 0 1-2.16-.59 4 4 0 0 1-1.4-1.66 6 6 0 0 1-.49-2.54v-.01q0-1.49.5-2.55.49-1.08 1.39-1.66a4 4 0 0 1 2.15-.59q.97 0 1.75.38.8.38 1.3 1.05.52.67.66 1.54l-.01.02h-1.15v-.02a2.5 2.5 0 0 0-2.55-1.91 2.6 2.6 0 0 0-2.51 1.75 5 5 0 0 0-.35 1.99v.01q0 1.14.35 1.98t.99 1.3 1.53.45q.63 0 1.16-.2t.87-.6q.36-.38.5-.9l.01-.02h1.16v.02a3.2 3.2 0 0 1-1.95 2.41q-.78.35-1.75.35M409.26 201v-6.84h1.1v1.01h.1q.2-.54.67-.83.47-.3 1.16-.3.16 0 .31.02l.24.02v1.07a3 3 0 0 0-.68-.06 2 2 0 0 0-.93.21 1.6 1.6 0 0 0-.64.58q-.23.38-.23.88V201zM414.78 203.4a3 3 0 0 1-.5-.04v-.9l.23.02h.24q.45 0 .76-.24.3-.24.5-.83l.12-.4-2.53-6.85h1.18l2.1 6.32-.43-.7h.52l-.44.7 2.1-6.32h1.16l-2.67 7.26q-.28.77-.6 1.2-.3.43-.72.6a3 3 0 0 1-1.02.18M421.17 203.29v-9.13h1.1v1.09h.1a2.3 2.3 0 0 1 1.26-1.07q.4-.14.88-.14.88 0 1.51.44.65.44 1 1.23.36.8.36 1.86v.02q0 1.06-.35 1.86-.37.8-1 1.23-.65.44-1.52.44-.46 0-.89-.15-.41-.15-.73-.41a2 2 0 0 1-.51-.64h-.1v3.37zm3.09-3.15q.63 0 1.07-.3t.68-.88q.24-.59.24-1.37v-.02q0-.8-.24-1.37a2 2 0 0 0-.68-.87q-.44-.32-1.07-.32t-1.07.31q-.45.31-.7.89-.24.57-.24 1.36v.02q0 .78.24 1.36.25.58.7.88t1.07.31M431.46 201.05q-1.05 0-1.53-.43-.47-.42-.47-1.4v-4.15h-1.08v-.91h1.08v-1.77h1.14v1.77h1.5v.91h-1.5v3.87q0 .6.23.87t.76.26h.25l.26-.02v.94zM436.4 201.12q-.97 0-1.69-.43-.7-.43-1.09-1.22a4 4 0 0 1-.38-1.88v-.02q0-1.1.38-1.89.4-.8 1.1-1.22a3 3 0 0 1 1.68-.42q.98 0 1.68.42.7.43 1.09 1.22.38.8.38 1.9t-.38 1.89a2.8 2.8 0 0 1-2.77 1.65m0-.98q.65 0 1.1-.3.44-.3.68-.88.24-.57.24-1.37v-.02q0-.81-.24-1.38a2 2 0 0 0-.68-.87q-.45-.3-1.1-.3t-1.1.3-.7.87q-.23.57-.23 1.38v.02q0 .8.24 1.37t.69.88 1.1.3M440.78 203.33l.55-3.61h1.27l-1 3.61zM450.77 201.12q-.76 0-1.35-.23-.57-.23-.94-.65-.35-.41-.4-.99h1.12q.15.44.55.69.4.26 1.06.26.46 0 .81-.13.36-.14.56-.38t.2-.55v-.01q0-.35-.28-.6-.28-.24-.91-.4l-1.06-.25q-.64-.15-1.06-.39a1.6 1.6 0 0 1-.6-.6q-.2-.37-.2-.85v-.01q0-.57.33-1.02.34-.45.91-.71.58-.27 1.3-.26.72 0 1.27.22.56.23.9.64t.42.97h-1.09q-.1-.4-.5-.66-.38-.25-1-.25-.4 0-.73.13-.3.13-.5.36a1 1 0 0 0-.18.53v.01q0 .23.12.4a1 1 0 0 0 .37.32q.26.14.66.23l1.05.26q.96.23 1.44.67.47.44.47 1.17v.02q0 .6-.36 1.08-.36.46-.98.72t-1.4.26M457.52 201.05q-1.06 0-1.53-.43-.48-.42-.47-1.4v-4.15h-1.08v-.91h1.08v-1.77h1.14v1.77h1.5v.91h-1.5v3.87q0 .6.23.87.22.27.76.26h.25l.26-.02v.94zM462.45 201.12q-.97 0-1.68-.43-.7-.43-1.1-1.22a4 4 0 0 1-.37-1.88v-.02q0-1.1.38-1.89.39-.8 1.09-1.22a3 3 0 0 1 1.68-.42q.97 0 1.68.42.71.43 1.09 1.22.39.8.39 1.9t-.39 1.89a2.8 2.8 0 0 1-2.77 1.65m0-.98q.65 0 1.1-.3t.69-.88.24-1.37v-.02q0-.81-.24-1.38a2 2 0 0 0-.69-.87q-.45-.3-1.1-.3t-1.1.3-.69.87q-.24.57-.23 1.38v.02q0 .8.23 1.37t.7.88q.44.3 1.1.3M470.04 201.12q-.96 0-1.66-.44-.7-.43-1.1-1.24a4 4 0 0 1-.38-1.88v-.01q0-1.07.38-1.86a2.9 2.9 0 0 1 2.76-1.65q.83 0 1.43.29a2.5 2.5 0 0 1 1.43 1.88v.04h-1.1v-.02a1.6 1.6 0 0 0-.58-.86q-.45-.36-1.18-.36a1.8 1.8 0 0 0-1.77 1.2q-.24.56-.24 1.34v.01q0 .78.25 1.37.25.58.7.9.45.3 1.06.31.68 0 1.13-.3t.62-.87l.02-.03h1.09l-.01.06q-.14.62-.5 1.1t-.94.75a3 3 0 0 1-1.4.27M474.5 201v-9.56h1.1V201zm4.31 0-2.67-3.35.81-.7 3.25 4.05zm-3.34-2.46-.05-1.4h.29l2.96-2.98H480l-3.25 3.13-.27.26zM483.51 201.12q-.75 0-1.34-.23t-.94-.65q-.35-.41-.41-.99h1.13q.13.44.54.69.41.26 1.06.26.46 0 .81-.13.36-.14.56-.38t.2-.55v-.01q0-.35-.27-.6-.29-.24-.92-.4l-1.06-.25q-.63-.15-1.05-.39a1.6 1.6 0 0 1-.61-.6q-.2-.37-.2-.85v-.01q0-.57.33-1.02.34-.45.92-.71.57-.27 1.3-.26.72 0 1.27.22.56.23.9.64t.41.97h-1.08q-.1-.4-.5-.66-.4-.25-1-.25-.42 0-.73.13-.32.13-.5.36a1 1 0 0 0-.19.53v.01q0 .23.12.4a1 1 0 0 0 .38.32q.26.14.65.23l1.06.26q.96.23 1.43.67.48.44.48 1.17v.02q0 .6-.37 1.08-.36.46-.98.72-.61.26-1.4.26M487.61 203.33l.56-3.61h1.26l-1 3.61zM495.7 201v-5.93h-1.13v-.91h1.14v-.76q0-.7.22-1.13.23-.46.67-.67t1.1-.22a4 4 0 0 1 .73.06v.88l-.23-.02h-.28q-.6 0-.85.28-.26.28-.26.85v.73h1.56v.91h-1.56V201zM502.18 201.12q-.78 0-1.3-.3a2 2 0 0 1-.8-.85 3 3 0 0 1-.26-1.38v-4.43h1.1v4.16q0 .92.36 1.37t1.18.45q.45 0 .8-.13.34-.14.58-.38.24-.25.35-.61.12-.36.12-.81v-4.05h1.1V201h-1.1v-1.02h-.1a2 2 0 0 1-.45.62q-.3.25-.69.39-.39.13-.9.13M509.83 201.05q-1.05 0-1.53-.43-.47-.42-.47-1.4v-4.15h-1.08v-.91h1.08v-1.77h1.14v1.77h1.5v.91h-1.5v3.87q0 .6.23.87.22.27.76.26h.25l.26-.02v.94zM514.33 201.12q-.77 0-1.3-.3a2 2 0 0 1-.8-.85 3 3 0 0 1-.25-1.38v-4.43h1.1v4.16q0 .92.36 1.37t1.18.45q.44 0 .8-.13.34-.14.58-.38.23-.25.35-.61t.12-.81v-4.05h1.1V201h-1.1v-1.02h-.1q-.17.36-.46.62-.28.25-.68.39-.39.13-.9.13M519.56 201v-6.84h1.1v1.01h.1q.2-.54.67-.83.47-.3 1.16-.3.15 0 .31.02l.24.02v1.07a3 3 0 0 0-.68-.06 2 2 0 0 0-.93.21 1.6 1.6 0 0 0-.64.58q-.23.38-.23.88V201zM527.03 201.12q-.98 0-1.68-.43-.7-.44-1.08-1.22a4 4 0 0 1-.37-1.87q0-1.06.37-1.86a3 3 0 0 1 1.07-1.25q.69-.45 1.62-.45t1.6.43 1.03 1.2.36 1.8v.43h-5.48V197h4.92l-.55.81v-.44q0-.81-.24-1.32a1.7 1.7 0 0 0-1.64-1.04q-.55 0-1 .27-.42.27-.68.8-.25.52-.25 1.3v.43q0 .73.24 1.25a1.8 1.8 0 0 0 1.79 1.07q.46 0 .8-.13t.57-.32q.23-.2.3-.4l.03-.06h1.1v.05a2 2 0 0 1-.32.68q-.22.32-.58.59-.36.25-.84.42-.49.15-1.09.15M533.94 201.12q-.76 0-1.35-.23-.58-.23-.94-.65-.35-.41-.41-.99h1.13q.14.44.54.69.41.26 1.06.26.46 0 .82-.13.35-.14.56-.38.2-.24.2-.55v-.01q0-.35-.28-.6-.29-.24-.91-.4l-1.07-.25q-.63-.15-1.05-.39a1.6 1.6 0 0 1-.6-.6q-.2-.37-.2-.85v-.01q0-.57.32-1.02.34-.45.92-.71.58-.27 1.3-.26.72 0 1.27.22.55.23.9.64.33.42.41.97h-1.08q-.1-.4-.5-.66-.39-.25-1-.25-.42 0-.73.13-.32.13-.5.36a1 1 0 0 0-.18.53v.01q0 .23.12.4a1 1 0 0 0 .37.32q.26.14.65.23l1.06.26q.96.23 1.43.67.48.44.48 1.17v.02q0 .6-.36 1.08-.36.46-.99.72-.6.26-1.4.26M538.04 203.33l.55-3.61h1.26l-1 3.61zM549.08 201.12a2.36 2.36 0 0 1-1.6-.56q-.33-.27-.54-.65h-.1V201h-1.1v-9.56h1.1v3.8h.1q.2-.37.51-.64.33-.27.74-.41.42-.15.89-.15.87 0 1.5.44.65.43 1.01 1.23t.36 1.86v.02q0 1.06-.36 1.86t-1 1.23q-.64.44-1.51.44m-.26-.98q.63 0 1.07-.3t.68-.88q.24-.59.25-1.37v-.02q0-.8-.25-1.37a2 2 0 0 0-.68-.87q-.44-.32-1.07-.32-.62 0-1.07.31t-.7.89-.23 1.36v.02q0 .78.24 1.36t.69.88 1.07.31M556.4 201.12q-.98 0-1.69-.43-.7-.43-1.1-1.22a4 4 0 0 1-.37-1.88v-.02q0-1.1.38-1.89.38-.8 1.1-1.22a3 3 0 0 1 1.67-.42q.98 0 1.69.42.7.43 1.08 1.22.39.8.39 1.9t-.39 1.89a2.8 2.8 0 0 1-2.77 1.65m0-.98q.65 0 1.1-.3.44-.3.68-.88.24-.57.24-1.37v-.02q0-.81-.24-1.38a2 2 0 0 0-.69-.87q-.44-.3-1.1-.3-.65 0-1.1.3t-.69.87q-.23.57-.23 1.38v.02q0 .8.23 1.37t.7.88q.44.3 1.1.3M561.18 201v-6.84h1.1v1.03h.11q.25-.55.75-.85t1.24-.3q1.15 0 1.77.66.63.65.63 1.87V201h-1.1v-4.16q0-.93-.4-1.37-.39-.46-1.2-.46-.56 0-.95.24-.4.24-.63.67-.21.42-.21 1.03V201zM571.22 201.12a2.6 2.6 0 0 1-2.5-1.67 5 5 0 0 1-.37-1.86v-.02q0-1.06.36-1.86t1-1.24 1.51-.43a2.5 2.5 0 0 1 1.63.56q.33.28.5.64h.1v-3.8h1.11V201h-1.1v-1.1h-.1q-.21.39-.53.66a2.4 2.4 0 0 1-1.6.56m.26-.98q.62 0 1.07-.3.45-.32.7-.89.23-.57.23-1.36v-.02q0-.8-.24-1.36t-.69-.89q-.45-.3-1.07-.3t-1.08.3q-.44.3-.68.88a4 4 0 0 0-.24 1.37v.02q0 .78.24 1.37.24.57.68.88.45.3 1.08.3M578.95 201.12q-.75 0-1.34-.23t-.94-.65q-.35-.41-.41-.99h1.13q.13.44.54.69.41.26 1.06.26.46 0 .81-.13.36-.14.56-.38t.2-.55v-.01q0-.35-.27-.6-.29-.24-.92-.4l-1.06-.25q-.64-.15-1.05-.39a1.6 1.6 0 0 1-.61-.6q-.2-.37-.2-.85v-.01q0-.57.33-1.02.34-.45.92-.71.58-.27 1.3-.26.72 0 1.27.22.55.23.9.64.33.42.41.97h-1.08q-.12-.4-.5-.66-.4-.25-1-.25-.42 0-.73.13-.32.13-.5.36a1 1 0 0 0-.19.53v.01q0 .23.12.4.12.19.38.32.25.14.65.23l1.05.26q.98.23 1.44.67.48.44.48 1.17v.02q0 .6-.37 1.08-.36.46-.98.72t-1.4.26"/></g><rect width="34" height="34" x="315" y="169" fill="#F7931A" rx="17"/><rect width="34" height="34" x="315" y="169" stroke="#191A1C" stroke-width="2" rx="17"/><path fill="#fff" d="M338.25 184.2c.28-1.91-1.17-2.95-3.15-3.63l.64-2.6-1.57-.4-.63 2.53-1.26-.3.63-2.55-1.57-.4-.64 2.6q-.52-.1-1-.23l-2.18-.55-.41 1.69s1.16.27 1.14.29c.63.16.75.58.73.92l-.73 2.96.16.06-.17-.05-1.03 4.16c-.07.2-.27.48-.72.37.02.03-1.14-.28-1.14-.28l-.78 1.81 2.05.51 1.12.3-.65 2.63 1.57.4.64-2.61 1.26.32-.65 2.6 1.58.4.65-2.64c2.68.52 4.7.31 5.55-2.13.68-1.97-.04-3.1-1.45-3.85 1.03-.23 1.8-.91 2-2.32m-3.6 5.08c-.48 1.97-3.77.9-4.84.64l.87-3.49c1.06.27 4.48.8 3.97 2.85m.5-5.1c-.45 1.79-3.19.88-4.08.66l.79-3.17c.88.23 3.74.64 3.28 2.51"/><rect width="34" height="34" x="336" y="169" fill="#FC1E1F" rx="17"/><rect width="34" height="34" x="336" y="169" stroke="#191A1C" stroke-width="2" rx="17"/><path fill="#EB9A2E" d="M345.07 188.8c0-1.7.83-3.7 1.25-4.5-.64-2-1.68-6.2-.72-6.95.96-.74 3.27 1.73 4.31 3.05a7 7 0 0 1 3.04-.67c1.42 0 2.75.45 3.24.67 2.79-3.12 3.95-3.33 4.19-3.05.98 1.25-.04 5.16-.68 6.95a9.4 9.4 0 0 1 1.23 4.5c0 2.52-3.62 6.13-8 6.13s-7.86-4.02-7.86-6.13"/><path fill="#E58014" d="M346.01 178.59c.45-.7 2.25 1.05 3.1 2-.5.4-1.68 1.47-2.54 2.66-.37-1.26-1-3.96-.56-4.66m10.97 2c.84-.95 2.64-2.7 3.1-2 .44.7-.2 3.4-.57 4.66a15 15 0 0 0-2.53-2.65"/><path fill="#FEFFF7" d="M350.12 185c-.5.1-.96.1-1.27.08a.3.3 0 0 1-.31-.29c-.04-.52.16-1.2.74-1.18.7.03 1.02.55 1.12.98.05.2-.08.38-.28.41"/><path fill="#EAEAE8" d="M352.5 194.83c-6.01-.92-7.46-4.41-7.43-6.04 3.1-.23 4.17.97 4.32 1.6.08-.96.89-2.88 3.46-2.88s3.38 1.92 3.47 2.88a4.3 4.3 0 0 1 4.71-1.4c-1.47 4.9-6.3 5.93-8.52 5.84"/><path fill="#000" d="M356.16 179.84c.4-.44 3.68-4 4.6-2.89 1.38 1.76.1 5.33-.58 7.29.44.75 1.2 2.51 1.2 4.51 0 3.78-5.18 6.4-8.38 6.4-3.06 0-8.39-2.71-8.4-6.4 0-1.7.85-3.72 1.3-4.58-.35-1.07-2.64-8.47.6-7.18 1.38.55 2.5 1.8 3.4 2.92.56-.25 1.72-.61 3.05-.61 1.36 0 2.61.3 3.21.54m-8.66-1.71c-.38-.31-1.36-1.17-1.9-.75a1 1 0 0 0-.2.33q-.1.25-.1.63-.05.8.13 1.86c.23 1.4.65 2.95.97 3.95l.03.09-.04.08c-.42.79-1.25 2.78-1.25 4.43 0 .48.2 1.1.59 1.75a8.5 8.5 0 0 0 7.27 4.07c2.17 0 4.1-.74 5.55-1.94 1.45-1.21 2.32-2.7 2.32-3.88a9 9 0 0 0-1.22-4.42l-.06-.09.04-.1c.32-.9.74-2.32.95-3.67q.16-1.04.13-1.88a2.3 2.3 0 0 0-.35-1.24c-.01 0-.05-.03-.18-.01q-.22.02-.72.3c-.65.4-1.64 1.22-3.06 2.79l-.1.11-.14-.06a9 9 0 0 0-3.2-.66c-1.08 0-2.2.23-3.16.73a16 16 0 0 0-2.3-2.42m6.3 10.3c.22 0 .41.2.41.43v.83c-.01.27-.24.79-1.04.86v.88l.08.1h1.05l.32-.22a.1.1 0 0 1 .15.04.1.1 0 0 1-.04.15 3 3 0 0 0-.41.3l-.02.04-.01.01v.53a.1.1 0 0 1-.1.1.1.1 0 0 1-.11-.1v-.63h-2.24v.63a.1.1 0 0 1-.1.1.1.1 0 0 1-.11-.1v-.47l-.03-.05-.05-.08-.1-.12-.26-.18a.1.1 0 0 1-.05-.14.1.1 0 0 1 .15-.04q.12.06.29.2l.05.05v-.01h1a1 1 0 0 1 .12-.17v-.82c-.77-.09-1.02-.6-1.05-.86v-.83c0-.23.2-.42.42-.42zm-.38 3.9-.15-.16-.32.3-.3-.3-.17.16-.22-.28h1.36zm-5.02-6.63c.39.16 2.52 1.2 2.75 1.88.17.5-1.41.02-2.34-.33q-.16-.06-.27-.15c-.26-.2-.41-.51-.41-.84v-.24c-.04-.16-.04-.44.27-.32m9.14 0c.3-.12.3.17.27.32v.24a1.1 1.1 0 0 1-.68.99c-.93.35-2.5.84-2.34.33.23-.67 2.36-1.72 2.75-1.88"/><rect width="34" height="34" x="354" y="169" fill="#F0F3FA" rx="17"/><rect width="34" height="34" x="354" y="169" stroke="#191A1C" stroke-width="2" rx="17"/><path fill="url(#d1trm4gwj)" fill-rule="evenodd" d="M371.28 182.03c-1.64-2.09-3.01-2.89-4.65-2.89-3.35 0-5.92 4.37-5.92 9 0 2.9 1.4 4.72 3.74 4.72 1.68 0 2.9-.8 5.04-4.57l1.51-2.67v-.05zm-6.75 8.6c.97 0 1.58-.62 3.32-3.36 0 0 .8-1.27 2.1-3.28-1.37-1.98-2.28-2.6-3.35-2.6-2 0-3.66 3.43-3.66 6.79 0 1.56.6 2.44 1.6 2.44"/><path fill="url(#e1trm4gwj)" d="m371 185.61.29-3.32-.03-.27.02.02c1.2-1.62 2.51-2.9 4.2-2.9 3.18 0 5.8 4.07 5.8 8.91 0 2.96-1.26 4.8-3.54 4.8-1.98 0-3.08-1.11-5.04-4.41l-1.01-1.7zm2.23-.7 1.2 2.01c1.89 3.05 2.36 3.7 3.36 3.7 1.03 0 1.53-.88 1.53-2.42 0-4.02-1.77-7.29-3.98-7.29-1.07 0-1.97.84-3.05 2.52q.45.67.94 1.47"/><path fill="url(#f1trm4gwj)" d="M373 76a16 16 0 0 1 16-16h131a16 16 0 0 1 16 16v33a16 16 0 0 1-16 16H389a16 16 0 0 1-16-16z"/><path fill="url(#g1trm4gwj)" fill-opacity=".2" d="M520 123v2H389v-2zm14-14V76a14 14 0 0 0-14-14H389a14 14 0 0 0-14 14v33a14 14 0 0 0 14 14v2h-.41A16 16 0 0 1 373 109.4L373 109V76a16 16 0 0 1 15.59-16H520.4A16 16 0 0 1 536 76v33.41A16 16 0 0 1 520.4 125H520v-2a14 14 0 0 0 14-14"/><circle cx="404" cy="92" r="14" fill="#18191B" stroke="#2962FF" stroke-width="2"/><path fill="#2962FF" d="M399 98.53V85h5.07q2.02 0 3.43.79a5.2 5.2 0 0 1 2.18 2.28q.75 1.5.76 3.62v.02q0 2.17-.75 3.7a5.3 5.3 0 0 1-2.18 2.32q-1.41.8-3.44.8zm2.42-2.04h2.33q1.34 0 2.3-.55.93-.55 1.43-1.61t.5-2.58v-.02a6 6 0 0 0-.51-2.53 3.6 3.6 0 0 0-1.45-1.61 4.4 4.4 0 0 0-2.27-.56h-2.33z"/><path fill="#fff" d="M432.6 98V85.32h4.35q1.89 0 3.22.75t2.06 2.17q.7 1.41.7 3.4v.02q0 2-.7 3.42a5 5 0 0 1-2.05 2.17q-1.35.75-3.23.75zm1.58-1.42h2.67q1.41 0 2.41-.58a3.8 3.8 0 0 0 1.53-1.68q.53-1.1.53-2.64v-.02q0-1.55-.54-2.64a3.8 3.8 0 0 0-1.52-1.69 4.7 4.7 0 0 0-2.41-.59h-2.67zM445.04 98v-9.46h1.53V98zm.77-11.28q-.43 0-.74-.3-.3-.32-.3-.74 0-.44.3-.75.3-.3.74-.3t.75.3q.3.3.3.75 0 .42-.3.74-.3.3-.75.3M451.64 98l-3.5-9.46h1.61l2.6 7.79h.13l2.6-7.79h1.6l-3.5 9.46zM458.27 98v-9.46h1.53V98zm.77-11.28a1 1 0 0 1-.74-.3q-.3-.32-.3-.74 0-.44.3-.75a1 1 0 0 1 .74-.3q.44 0 .75.3.3.3.3.75 0 .42-.3.74-.3.3-.75.3M465.69 98.17a3.6 3.6 0 0 1-3.48-2.31q-.48-1.11-.49-2.58v-.02q0-1.48.5-2.58.48-1.1 1.37-1.7t2.1-.6a3.5 3.5 0 0 1 2.25.78q.45.37.7.88h.14v-5.25h1.53V98h-1.53v-1.51h-.14q-.3.52-.73.9-.45.38-1 .57-.57.2-1.23.2m.35-1.36a2.5 2.5 0 0 0 2.43-1.65q.34-.8.34-1.88v-.02q0-1.1-.34-1.88a2.5 2.5 0 0 0-2.43-1.65 2.5 2.5 0 0 0-2.43 1.64 5 5 0 0 0-.32 1.9v.01q0 1.1.32 1.89.33.79.95 1.22t1.48.42M476.6 98.17q-1.35 0-2.31-.6a4 4 0 0 1-1.5-1.69 6 6 0 0 1-.52-2.57v-.01a6 6 0 0 1 .52-2.58 4 4 0 0 1 1.48-1.72 4 4 0 0 1 2.24-.62q1.29 0 2.22.6.94.59 1.42 1.65.5 1.07.5 2.48v.6h-7.58V92.5h6.8l-.76 1.12V93q0-1.12-.33-1.84a2.35 2.35 0 0 0-2.28-1.42q-.75 0-1.36.37-.6.36-.95 1.1a4 4 0 0 0-.35 1.79v.6q0 1.02.34 1.73.34.7.97 1.1.63.37 1.5.37.64 0 1.11-.17t.78-.45.43-.56l.04-.08h1.53l-.02.07a3 3 0 0 1-.44.95q-.3.45-.8.82t-1.17.58q-.66.2-1.5.2M482.55 98v-9.46h1.53v1.42h.13q.36-.75 1.04-1.16a3.3 3.3 0 0 1 1.73-.42q1.59 0 2.44.91.86.9.86 2.58V98h-1.53v-5.76q0-1.28-.54-1.9-.54-.6-1.67-.61-.75 0-1.3.32-.56.33-.86.93-.3.58-.3 1.42V98zM496.05 98.17a3.6 3.6 0 0 1-3.48-2.31q-.49-1.11-.49-2.58v-.02q0-1.48.5-2.58.48-1.1 1.37-1.7t2.1-.6a3.5 3.5 0 0 1 2.25.78q.45.37.7.88h.14v-5.25h1.53V98h-1.53v-1.51H499q-.3.52-.73.9-.45.38-1 .57-.56.2-1.22.2m.35-1.36a2.5 2.5 0 0 0 2.43-1.65q.35-.8.35-1.88v-.02q0-1.1-.35-1.88a2.5 2.5 0 0 0-2.43-1.65 2.5 2.5 0 0 0-2.43 1.64 5 5 0 0 0-.32 1.9v.01q0 1.1.32 1.89.33.79.95 1.22t1.48.42M506.36 98.17q-1.05 0-1.86-.32a3 3 0 0 1-1.3-.9q-.48-.6-.57-1.38h1.56q.2.6.75.96.56.36 1.48.36.63 0 1.11-.18.5-.2.77-.52.27-.33.28-.76v-.01q0-.5-.39-.82a3 3 0 0 0-1.25-.56l-1.46-.35a5 5 0 0 1-1.46-.54q-.57-.34-.85-.84a2.4 2.4 0 0 1-.27-1.17v-.01q0-.8.46-1.42a3 3 0 0 1 1.25-.97 4 4 0 0 1 1.8-.36q1 0 1.76.31.78.3 1.24.89.48.57.57 1.34h-1.5q-.14-.56-.68-.92a2.5 2.5 0 0 0-1.4-.35q-.55 0-1 .18-.42.18-.68.5-.26.3-.26.73v.01q0 .32.17.57.16.24.51.43.36.18.9.32l1.46.35q1.34.33 2 .94.64.6.64 1.62v.02q0 .84-.5 1.48-.5.65-1.35 1a5 5 0 0 1-1.93.37"/><path fill="url(#h1trm4gwj)" d="M157 343a16 16 0 0 1 16-16h172a16 16 0 0 1 16 16v33a16 16 0 0 1-16 16H173a16 16 0 0 1-16-16z"/><path fill="url(#i1trm4gwj)" fill-opacity=".2" d="M345 390v2H173v-2zm14-14v-33a14 14 0 0 0-14-14H173a14 14 0 0 0-14 14v33a14 14 0 0 0 14 14v2h-.41A16 16 0 0 1 157 376.4V343a16 16 0 0 1 15.59-16H345.4A16 16 0 0 1 361 343v33.41A16 16 0 0 1 345.4 392l-.41.01v-2a14 14 0 0 0 14-14"/><g clip-path="url(#j1trm4gwj)"><path fill="#F8F9FD" d="M173 344h32v32h-32z"/><path fill="#EF5350" d="M192.56 351.11H205V344h-12.44zM173 376h32v-7.11h-32zm19.56-12.44H205v-7.12h-12.44z"/><path fill="#1E88E9" d="M173 344h19.56v19.56H173z"/><path fill="#F8F9FD" d="m177.3 346.17.06-.06a.2.2 0 0 1 .17 0l.06.06.48 1.26c.01.07.09.1.14.1l1.35.08c.14 0 .2.18.09.28l-1.07.84-.04.08v.1l.36 1.28v.1l-.06.08-.1.03-.09-.04-1.12-.73-.09-.02-.09.02-1.11.73a.2.2 0 0 1-.1.04l-.1-.03-.05-.08v-.1l.35-1.3v-.1l-.05-.08-1.05-.82-.05-.07v-.1l.05-.08.09-.03 1.35-.07q.1 0 .14-.1l.48-1.25zm0 5.33.06-.06a.2.2 0 0 1 .17 0l.06.06.48 1.26c.01.07.09.11.14.11l1.35.07c.14 0 .2.18.09.29l-1.07.83-.04.08v.1l.36 1.28v.1a.16.16 0 0 1-.25.08l-1.12-.73-.09-.03-.09.03-1.11.73-.1.03a.2.2 0 0 1-.15-.11v-.1l.35-1.3a.2.2 0 0 0-.05-.18l-1.05-.81-.05-.08v-.1l.05-.07.09-.04 1.35-.07q.1 0 .14-.1l.48-1.25zm0 5.33.06-.06a.2.2 0 0 1 .17 0l.06.06.48 1.27c.01.07.09.1.14.1l1.35.07c.14 0 .2.18.09.29l-1.07.83-.04.09v.1l.36 1.27v.1l-.06.08-.1.03-.09-.03-1.12-.73-.09-.03-.09.03-1.11.73a.16.16 0 0 1-.25-.18l.35-1.3v-.1l-.05-.07-1.05-.82-.05-.08v-.1l.05-.07.09-.04 1.35-.07q.1 0 .14-.1l.48-1.25zm5.33-10.66.06-.06a.2.2 0 0 1 .17 0q.05.01.06.06l.48 1.26q.05.1.14.1l1.35.08c.15 0 .2.18.1.28l-1.08.84-.04.08.01.1.36 1.28v.1a.2.2 0 0 1-.16.1l-.1-.03-1.11-.73-.1-.02-.08.02-1.12.73a.16.16 0 0 1-.19 0l-.06-.07v-.1l.36-1.3v-.1l-.06-.08-1.05-.82-.05-.07v-.1l.05-.08.1-.03 1.34-.07q.1 0 .15-.1l.47-1.25zm0 5.33a.2.2 0 0 1 .15-.08q.05 0 .08.02.05.02.06.06l.48 1.26q.05.1.14.11l1.35.07c.15 0 .2.18.1.29l-1.08.83a.2.2 0 0 0-.03.18l.36 1.28v.1l-.06.08-.1.03-.1-.03-1.11-.73-.1-.03q-.04 0-.08.03l-1.12.73-.1.03a.16.16 0 0 1-.15-.21l.36-1.3a.2.2 0 0 0-.06-.18l-1.05-.81a.2.2 0 0 1-.05-.18l.05-.07.1-.04 1.34-.07q.1 0 .15-.1l.47-1.25zm0 5.33.06-.06a.16.16 0 0 1 .23.06l.48 1.27q.05.1.14.1l1.35.07c.15 0 .2.18.1.29l-1.08.83a.2.2 0 0 0-.03.18l.36 1.28v.1a.2.2 0 0 1-.16.11l-.1-.03-1.11-.73-.1-.03q-.04 0-.08.03l-1.12.73a.2.2 0 0 1-.2 0l-.05-.08v-.1l.36-1.3a.2.2 0 0 0-.06-.17l-1.05-.82a.16.16 0 0 1 0-.25l.1-.04 1.34-.07q.1 0 .15-.1l.47-1.25zm5.34-10.66.06-.06a.2.2 0 0 1 .16 0q.05.01.06.06l.48 1.26c.02.07.1.1.15.1l1.35.08c.14 0 .2.18.09.28l-1.07.84-.05.08.01.1.36 1.28v.1a.2.2 0 0 1-.16.1l-.09-.03-1.12-.73-.09-.02-.09.02-1.12.73-.1.04-.09-.03-.06-.08v-.1l.36-1.3v-.1l-.05-.08-1.05-.82-.06-.07v-.1a.2.2 0 0 1 .15-.11l1.35-.07q.1 0 .14-.1l.48-1.25zm0 5.33a.2.2 0 0 1 .14-.08q.05 0 .08.02.05.02.06.06l.48 1.26c.02.07.1.11.15.11l1.35.07c.14 0 .2.18.09.29l-1.07.83a.2.2 0 0 0-.04.18l.36 1.28v.1l-.06.08-.1.03-.09-.03-1.12-.73a.2.2 0 0 0-.18 0l-1.12.73a.2.2 0 0 1-.19 0l-.06-.08v-.1l.36-1.3v-.1l-.05-.08-1.05-.81-.06-.08v-.1a.2.2 0 0 1 .15-.1l1.35-.08q.1 0 .14-.1l.48-1.25zm0 5.33.06-.06a.2.2 0 0 1 .16 0l.06.06.48 1.27c.02.07.1.1.15.1l1.35.07c.14 0 .2.18.09.29l-1.07.83a.2.2 0 0 0-.04.18l.36 1.28v.1a.2.2 0 0 1-.16.11l-.09-.03-1.12-.73a.2.2 0 0 0-.18 0l-1.12.73-.1.03-.09-.03-.06-.08v-.1l.36-1.3v-.1l-.05-.07-1.05-.82-.06-.08a.16.16 0 0 1 .15-.2l1.35-.08q.1 0 .14-.1l.48-1.25z"/></g><path fill="#fff" d="M249.6 365v-12.68h7.86v1.42h-6.28v4.07h5.95v1.4h-5.95v4.37h6.28V365zM263.51 365.17q-1.31 0-2.3-.6a4 4 0 0 1-1.5-1.71 6 6 0 0 1-.54-2.62v-.01q0-1.48.53-2.57a4 4 0 0 1 3.8-2.28q1.15 0 1.99.4a3.5 3.5 0 0 1 1.98 2.61v.05h-1.51l-.01-.02a2.2 2.2 0 0 0-.8-1.2q-.63-.5-1.65-.5a2.5 2.5 0 0 0-2.43 1.65 5 5 0 0 0-.33 1.86v.01q0 1.1.34 1.9t.97 1.23 1.45.44q.96 0 1.57-.41.6-.42.87-1.2l.02-.06 1.5-.01-.01.1a4 4 0 0 1-.69 1.51q-.49.68-1.3 1.05-.8.38-1.95.38M273.12 365.17q-1.35 0-2.32-.6a4 4 0 0 1-1.51-1.69 6 6 0 0 1-.53-2.6v-.02q0-1.52.53-2.6.53-1.1 1.5-1.7 1-.58 2.33-.58 1.35 0 2.33.58.97.6 1.5 1.7.54 1.08.54 2.6v.02q0 1.5-.54 2.61a3.9 3.9 0 0 1-3.83 2.28m0-1.36q.9 0 1.52-.42t.95-1.2a5 5 0 0 0 .33-1.91v-.02q0-1.13-.33-1.91a2.6 2.6 0 0 0-.95-1.2 2.7 2.7 0 0 0-1.52-.42q-.9 0-1.51.41-.63.42-.96 1.2a5 5 0 0 0-.33 1.92v.02q0 1.12.33 1.9.33.8.96 1.21.62.42 1.5.42M279.37 365v-9.46h1.52v1.42h.14q.36-.75 1.03-1.16a3.3 3.3 0 0 1 1.74-.42q1.59 0 2.44.91.86.9.86 2.58V365h-1.53v-5.76q0-1.28-.55-1.9-.52-.6-1.66-.61-.75 0-1.3.32-.56.33-.87.93-.3.59-.3 1.42v5.6zM293.26 365.17q-1.34 0-2.32-.6a4 4 0 0 1-1.51-1.69 6 6 0 0 1-.53-2.6v-.02q0-1.52.53-2.6.53-1.1 1.5-1.7 1-.58 2.33-.58 1.35 0 2.33.58.97.6 1.5 1.7.54 1.08.54 2.6v.02q0 1.5-.54 2.61a3.9 3.9 0 0 1-3.83 2.28m0-1.36q.9 0 1.52-.42.63-.42.95-1.2a5 5 0 0 0 .33-1.91v-.02q0-1.13-.33-1.91a2.6 2.6 0 0 0-.95-1.2 2.7 2.7 0 0 0-1.52-.42q-.9 0-1.51.41-.63.42-.96 1.2a5 5 0 0 0-.33 1.92v.02q0 1.12.33 1.9.33.8.96 1.21.62.42 1.5.42M299.5 365v-9.46h1.54v1.44h.13q.3-.75.96-1.18a3 3 0 0 1 1.6-.42q.63 0 1.15.2.5.22.88.6.37.36.58.86h.14q.26-.51.68-.87.43-.38 1-.58a4 4 0 0 1 1.22-.21q.96 0 1.63.36.68.36 1.03 1.05t.35 1.67V365h-1.53v-6.19q0-.69-.22-1.15a1.4 1.4 0 0 0-.65-.7q-.45-.23-1.1-.23-.67 0-1.16.3t-.75.79-.28 1.1V365h-1.52v-6.42q0-.56-.25-.97a1.6 1.6 0 0 0-.69-.65 2.2 2.2 0 0 0-2.14.1q-.5.3-.78.87a2.6 2.6 0 0 0-.28 1.2V365zM314.7 365v-9.46h1.53V365zm.77-11.28a1 1 0 0 1-.73-.3q-.31-.32-.31-.74 0-.44.3-.75a1 1 0 0 1 .74-.3q.45 0 .75.3t.3.75q0 .41-.3.74-.3.3-.75.3M322.5 365.17q-1.32 0-2.3-.6a4 4 0 0 1-1.51-1.71 6 6 0 0 1-.54-2.62v-.01q0-1.48.53-2.57a4 4 0 0 1 3.8-2.28q1.16 0 2 .4a3.5 3.5 0 0 1 1.97 2.61v.05h-1.51l-.01-.02a2.2 2.2 0 0 0-.8-1.2q-.62-.5-1.64-.5-.85 0-1.47.44-.63.44-.97 1.21a5 5 0 0 0-.33 1.86v.01q0 1.1.34 1.9t.97 1.23 1.46.44q.95 0 1.56-.41.6-.42.87-1.2l.02-.06 1.51-.01-.02.1a4 4 0 0 1-.68 1.51q-.5.68-1.3 1.05-.82.38-1.95.38M331.47 365.17q-1.05 0-1.87-.32a3 3 0 0 1-1.3-.9q-.48-.6-.57-1.38h1.57q.18.6.74.96t1.48.36q.63 0 1.12-.18.49-.2.76-.52.28-.33.28-.76v-.01q0-.5-.38-.82a3 3 0 0 0-1.25-.56l-1.47-.35a5 5 0 0 1-1.46-.54q-.57-.34-.84-.84a2.4 2.4 0 0 1-.28-1.17v-.01q0-.8.46-1.42a3 3 0 0 1 1.26-.97 4 4 0 0 1 1.8-.36q1 0 1.76.31.77.3 1.24.89.46.57.57 1.34h-1.5q-.15-.56-.68-.92a2.5 2.5 0 0 0-1.4-.35q-.55 0-1 .19-.44.17-.69.49-.25.3-.25.73v.01q0 .32.17.57.16.24.5.43.36.18.91.32l1.46.35q1.33.33 1.99.94t.65 1.62v.02q0 .84-.5 1.49-.5.63-1.36 1a5 5 0 0 1-1.92.36"/><g clip-path="url(#k1trm4gwj)"><path fill="#F8F9FD" d="M220 376h-32v-32h32z"/><path fill="#4CAF50" d="M220 376h-32v-10.67h32z"/><path fill="#F7525F" d="M220 354.67h-32V344h32z"/></g><rect width="34" height="34" x="187" y="343" stroke="#161617" stroke-width="2" rx="17"/><g clip-path="url(#l1trm4gwj)"><path fill="#FDD835" d="M204 365.33h32V376h-32z"/><path fill="#2A2E39" d="M204 344h32v10.67h-32z"/><path fill="#F7525F" d="M204 354.67h32v10.66h-32z"/></g><rect width="34" height="34" x="203" y="343" stroke="#141516" stroke-width="2" rx="17"/><path fill="url(#m1trm4gwj)" d="M358 262a16 16 0 0 1 16-16h173a16 16 0 0 1 16 16v33a16 16 0 0 1-16 16H374a16 16 0 0 1-16-16z"/><path fill="url(#n1trm4gwj)" fill-opacity=".2" d="M547 309v2H374v-2zm14-14v-33a14 14 0 0 0-13.64-14H374a14 14 0 0 0-14 14v33a14 14 0 0 0 14 14v2h-.41A16 16 0 0 1 358 295.4L358 295v-33a16 16 0 0 1 15.59-16H547.4A16 16 0 0 1 563 262v33.41A16 16 0 0 1 547.4 311l-.41.01v-2a14 14 0 0 0 14-14"/><path stroke="#17181A" stroke-width="2" d="M387.14 260.77a3.6 3.6 0 0 1 3.37.11l12.16 7.07.2.12a3.6 3.6 0 0 1 1.57 2.95v19.42c0 1.97-1.6 3.56-3.56 3.56h-24.32a3.56 3.56 0 0 1-3.56-3.56v-19.65a3.6 3.6 0 0 1 1.77-2.84l12.16-7.07z"/><path fill="#161718" stroke="#089981" stroke-width="2" d="M387.94 262.61c.42-.24.93-.28 1.38-.09l.18.1 12.16 7.06c.48.28.78.79.78 1.34v19.42c0 .86-.7 1.56-1.56 1.56h-24.32c-.86 0-1.56-.7-1.56-1.56v-19.42l.01-.2c.06-.4.27-.78.6-1.03l.17-.11z"/><path fill="#089981" d="M384.5 285.32v-13.53h8.76v2.04h-6.33v3.66h5.99v1.92h-6v3.88h6.34v2.03z"/><path stroke="#151516" stroke-width="2" d="M413.08 295.16c1.1.57 2.43.53 3.5-.13l12.16-7.44.2-.13a3.6 3.6 0 0 0 1.5-2.9v-19c0-1.97-1.6-3.56-3.56-3.56h-24.32a3.56 3.56 0 0 0-3.56 3.56v19c0 1.23.64 2.38 1.7 3.03l12.16 7.44z"/><path fill="#161718" stroke="#F23645" stroke-width="2" d="M413.9 293.33c.47.29 1.06.3 1.54.05l.1-.05 12.15-7.45c.47-.28.75-.78.75-1.33v-18.99c0-.86-.7-1.56-1.56-1.56h-24.32c-.86 0-1.56.7-1.56 1.56v19c0 .47.22.91.58 1.2l.17.12z"/><path fill="#F23645" d="M410 282.53V269h8.76v2.03h-6.34v3.67h5.99v1.92h-6v3.87h6.35v2.04z"/><rect width="31.44" height="31.44" x="425" y="262" fill="#1F1F1F" stroke="#161617" stroke-width="2" rx="3.56"/><rect width="27.44" height="27.44" x="427" y="264" fill="#161718" stroke="#E040FB" stroke-width="2" rx="1.56"/><path fill="#E040FB" d="M436.5 284.76v-13.53h8.76v2.04h-6.33v3.66h5.99v1.92h-6v3.88h6.34v2.03z"/><path fill="#fff" d="M469.6 284v-12.68h7.86v1.42h-6.28v4.07h5.95v1.4h-5.95v4.37h6.28V284zM482.25 284.17q-.9 0-1.62-.35a2.7 2.7 0 0 1-1.12-.97 2.7 2.7 0 0 1-.42-1.5v-.01q0-.84.4-1.44t1.18-.94a5 5 0 0 1 1.87-.4l3.48-.22v1.22l-3.3.21q-1.07.07-1.57.45-.5.39-.5 1.08v.02q0 .73.54 1.12.55.4 1.37.4.78 0 1.4-.3.6-.32.94-.86.36-.54.35-1.21v-2.94q0-.87-.53-1.33-.54-.47-1.6-.47-.84 0-1.4.3-.54.3-.72.87l-.01.03h-1.52v-.06q.13-.75.61-1.3a3 3 0 0 1 1.3-.88 5 5 0 0 1 1.8-.31q1.16 0 1.96.37.8.39 1.22 1.08t.42 1.7V284h-1.53v-1.4h-.14a3.2 3.2 0 0 1-1.69 1.4q-.53.16-1.17.17M489.1 284v-9.46h1.52v1.4h.13q.28-.74.92-1.15t1.6-.41q.21 0 .43.02l.32.04v1.48a4 4 0 0 0-.93-.09q-.71 0-1.28.3-.56.27-.87.8-.32.52-.32 1.2V284zM495.62 284v-9.46h1.53v1.42h.13q.36-.75 1.04-1.16a3.3 3.3 0 0 1 1.73-.42q1.6 0 2.44.91.87.9.87 2.58V284h-1.53v-5.76q0-1.28-.55-1.9-.54-.6-1.67-.61-.75 0-1.3.32-.56.33-.86.93-.3.59-.3 1.42v5.6zM505.67 284v-9.46h1.52V284zm.77-11.28a1 1 0 0 1-.74-.3q-.3-.32-.3-.74 0-.44.3-.75a1 1 0 0 1 .74-.3q.44 0 .75.3.3.3.3.75 0 .41-.3.74-.31.3-.75.3M509.6 284v-9.46h1.52v1.42h.13q.36-.75 1.04-1.16a3.3 3.3 0 0 1 1.73-.42q1.6 0 2.45.91.86.9.86 2.58V284h-1.53v-5.76q0-1.28-.55-1.9-.53-.6-1.67-.61-.75 0-1.3.32-.55.33-.86.93-.3.59-.3 1.42v5.6zM523.5 287.34a6 6 0 0 1-2-.32 3 3 0 0 1-1.35-.91 2.7 2.7 0 0 1-.63-1.35l.01-.01h1.59q.14.55.75.88.6.36 1.63.36 1.27 0 1.98-.58.72-.58.72-1.63v-1.88h-.14a3.2 3.2 0 0 1-2.97 1.63q-1.2 0-2.1-.58-.9-.59-1.38-1.61a5.5 5.5 0 0 1-.48-2.37v-.02q0-1.32.48-2.35.5-1.04 1.39-1.63.9-.6 2.13-.6.66 0 1.23.22.56.21.99.6.44.38.73.92h.1v-1.57h1.53v9.32q0 1.05-.51 1.84-.52.78-1.46 1.2-.95.45-2.24.44m-.08-5.16a2.7 2.7 0 0 0 1.5-.4q.63-.42.97-1.14t.34-1.67v-.02q0-.94-.35-1.66a2.7 2.7 0 0 0-.95-1.15 2.7 2.7 0 0 0-1.5-.41 2.6 2.6 0 0 0-1.5.41q-.6.42-.92 1.15a4 4 0 0 0-.32 1.66v.02q0 .95.32 1.67.31.72.93 1.14.6.4 1.48.4M533.32 284.17q-1.06 0-1.87-.32a3 3 0 0 1-1.3-.9q-.47-.6-.57-1.38h1.57q.2.6.75.96.56.36 1.47.36.63 0 1.12-.18.5-.2.76-.52.28-.33.28-.76v-.01q0-.5-.38-.82a3 3 0 0 0-1.25-.56l-1.47-.35a5 5 0 0 1-1.46-.54q-.57-.34-.84-.84a2.4 2.4 0 0 1-.27-1.17v-.01q0-.8.45-1.42a3 3 0 0 1 1.26-.97 4 4 0 0 1 1.8-.36q1 0 1.76.31.77.3 1.24.89.46.57.57 1.34h-1.5q-.15-.56-.68-.92a2.5 2.5 0 0 0-1.4-.35q-.55 0-1 .19-.43.17-.69.49-.24.3-.25.73v.01q0 .32.17.57.16.24.5.43.36.18.91.32l1.46.35q1.34.33 1.99.94t.65 1.62v.02q0 .83-.5 1.49-.5.63-1.36 1a5 5 0 0 1-1.92.36"/><path stroke="#696969" stroke-dasharray="6 6" stroke-width="2" d="M69 392V0" opacity=".6"/><path fill="url(#o1trm4gwj)" d="M91 156a24 24 0 0 1 24-24h64a24 24 0 0 1 24 24v64a24 24 0 0 1-24 24h-64a24 24 0 0 1-24-24z"/><path fill="url(#p1trm4gwj)" fill-opacity=".8" d="M179 242v2h-64v-2zm22-22v-64a22 22 0 0 0-22-22h-64a22 22 0 0 0-22 22v64a22 22 0 0 0 22 22v2h-.62a24 24 0 0 1-23.37-23.38L91 220v-64a24 24 0 0 1 23.38-24h65.24A24 24 0 0 1 203 156v64.62a24 24 0 0 1-23.38 23.37l-.62.01v-2a22 22 0 0 0 22-22"/><path fill="url(#q1trm4gwj)" d="m155.77 196.95.02.01 13.73-8.95c.93-.6 1.13-1.9.41-2.75l-22.15-26.6c-.38-.45-.9-.67-1.43-.66-.56 0-1.12.24-1.5.74l-19.94 26.54a1.86 1.86 0 0 0 1.34 2.98q.4.05.82-.1l12.9-4.64 15.79 13.43m.3-4.61-13.69-11.66c-.6-.52-1.34-.81-2.1-.87a4 4 0 0 0-1.56.2l-7.06 2.53 14.76-19.68 19.34 23.17zm13.28 7.17-1.72-2.38q-.1-.15-.24-.26a1.44 1.44 0 0 0-1.7-.13l-9.63 6.05c-.36.23-.79.28-1.18.16a2 2 0 0 1-.4-.2l-14.53-10.65q-.31-.23-.7-.27a1.4 1.4 0 0 0-.66.06l-11.9 3.99q-.43.15-.7.52l-9.7 13.27a1.46 1.46 0 0 0 1.02 2.31l.23.02h58c.58 0 1.04-.32 1.28-.77.25-.46.26-1.06-.1-1.56z"/><path fill="url(#r1trm4gwj)" d="M0 345h70v47H0z" opacity=".7"/><path fill="url(#s1trm4gwj)" d="M70 29h3v29h-3z" opacity=".7" transform="rotate(180 70 29)"/><path fill="url(#t1trm4gwj)" d="M103 16a16 16 0 0 1 16-16h132a16 16 0 0 1 16 16v33a16 16 0 0 1-16 16H119a16 16 0 0 1-16-16z"/><path fill="url(#u1trm4gwj)" fill-opacity=".2" d="M251 63v2H119v-2zm14-14V16a14 14 0 0 0-14-14H119a14 14 0 0 0-14 14v33a14 14 0 0 0 14 14v2h-.41A16 16 0 0 1 103 49.4V16a16 16 0 0 1 15.59-16H251.4A16 16 0 0 1 267 16v33.41A16 16 0 0 1 251.4 65H251v-2a14 14 0 0 0 14-14"/><path fill="#651FFF" d="M148.36 45.27H119V35.23h6.95v-11.6h8.5v6.96h5.41V19h8.5zm-27.36-2h4.5v-6.04H121zm6.95 0h4.5V25.64h-4.5zm6.96 0h4.5V32.6h-4.5zm6.95 0h4.5V21h-4.5z"/><path fill="#fff" d="M164.6 39V26.32h7.7v1.42h-6.12v4.36h5.62v1.4h-5.62V39zm9.66 0v-9.46h1.53V39zm.77-11.28a1 1 0 0 1-.74-.3q-.3-.32-.3-.74 0-.44.3-.75a1 1 0 0 1 .74-.3q.44 0 .75.3.3.3.3.75 0 .42-.3.74-.3.3-.75.3M178.18 39v-9.46h1.53v1.42h.13q.38-.75 1.04-1.16a3.3 3.3 0 0 1 1.73-.42q1.6 0 2.45.91.86.9.86 2.58V39h-1.53v-5.76q0-1.28-.55-1.9-.53-.6-1.67-.61-.75 0-1.3.32-.55.33-.86.93-.3.58-.3 1.42V39zm12.61.17q-.9 0-1.61-.35a3 3 0 0 1-1.13-.97 2.7 2.7 0 0 1-.41-1.5v-.01q0-.84.4-1.44t1.17-.94a5 5 0 0 1 1.88-.4l3.47-.22v1.22l-3.3.21q-1.06.07-1.56.45-.5.39-.5 1.08v.02q0 .72.54 1.12t1.37.4q.78 0 1.39-.3.6-.33.95-.86.35-.54.35-1.21v-2.94q0-.87-.54-1.33-.52-.48-1.59-.47-.84 0-1.4.3-.54.3-.72.87l-.01.02h-1.52v-.05q.12-.75.61-1.3a3 3 0 0 1 1.3-.88 5 5 0 0 1 1.8-.31q1.15 0 1.96.37.8.39 1.22 1.09t.42 1.68V39h-1.53v-1.4h-.14a3.2 3.2 0 0 1-1.69 1.4q-.53.16-1.18.17m6.85-.17v-9.46h1.53v1.42h.13q.36-.75 1.04-1.16a3.3 3.3 0 0 1 1.73-.42q1.59 0 2.44.91.86.9.86 2.58V39h-1.53v-5.76q0-1.28-.54-1.9-.54-.6-1.67-.61-.75 0-1.3.32-.56.33-.86.93-.3.58-.3 1.42V39zm13.96.17q-1.31 0-2.29-.61a4 4 0 0 1-1.51-1.7 6 6 0 0 1-.54-2.61v-.02q0-1.48.53-2.57a4 4 0 0 1 3.8-2.28q1.15 0 2 .4a3.5 3.5 0 0 1 1.97 2.61v.05h-1.51l-.01-.02a2.2 2.2 0 0 0-.8-1.2q-.63-.5-1.65-.49-.84 0-1.46.43-.63.44-.97 1.21a5 5 0 0 0-.33 1.86v.02q0 1.08.34 1.88t.97 1.24q.62.45 1.46.44.95 0 1.56-.41.6-.42.87-1.2l.02-.07h1.5v.1a4 4 0 0 1-.7 1.51q-.48.67-1.3 1.05-.8.38-1.95.38m5.85-.17v-9.46h1.53V39zm.77-11.28a1 1 0 0 1-.74-.3q-.3-.32-.3-.74 0-.44.3-.75a1 1 0 0 1 .74-.3q.44 0 .75.3.3.3.3.75 0 .42-.3.74-.3.3-.75.3m5.75 11.45q-.9 0-1.61-.35a2.67 2.67 0 0 1-1.54-2.47v-.01q0-.84.4-1.44t1.17-.94a5 5 0 0 1 1.88-.4l3.48-.22v1.22l-3.3.21q-1.07.07-1.57.45-.5.39-.5 1.08v.02q0 .72.54 1.12t1.37.4q.79 0 1.39-.3.6-.33.95-.86.35-.54.35-1.21v-2.94q0-.87-.53-1.33-.54-.48-1.6-.47-.84 0-1.4.3-.54.3-.72.87l-.01.02h-1.52v-.05q.12-.75.61-1.3a3 3 0 0 1 1.3-.88 5 5 0 0 1 1.8-.31q1.15 0 1.96.37.8.39 1.22 1.09t.42 1.68V39h-1.53v-1.4h-.14a3.2 3.2 0 0 1-1.69 1.4q-.54.16-1.18.17m6.94-.17V25.79h1.53V39zm7.23.17q-1.05 0-1.86-.32a3 3 0 0 1-1.3-.9q-.5-.6-.58-1.38h1.57q.2.6.75.96.56.36 1.47.36.64 0 1.12-.18.5-.2.76-.52.29-.33.28-.76v-.01q0-.5-.38-.82a3 3 0 0 0-1.25-.56l-1.47-.35a5 5 0 0 1-1.46-.54q-.57-.34-.84-.84a2.4 2.4 0 0 1-.27-1.17v-.01q0-.8.45-1.42a3 3 0 0 1 1.26-.97 4 4 0 0 1 1.8-.36q1 0 1.76.31.78.3 1.24.89.47.57.57 1.34h-1.5q-.14-.57-.68-.92a2.5 2.5 0 0 0-1.4-.35q-.55 0-1 .19-.43.17-.68.49-.26.3-.26.73v.01q0 .32.17.57.16.24.5.43.36.18.91.32l1.46.35q1.35.33 1.99.94.65.6.65 1.62v.02q0 .84-.5 1.48-.5.65-1.36 1a5 5 0 0 1-1.92.37"/><g filter="url(#v1trm4gwj)"><circle cx="186" cy="64" r="7" fill="#696969"/><circle cx="186" cy="64" r="5.5" stroke="#050505" stroke-width="3"/></g><g filter="url(#w1trm4gwj)"><circle cx="257" cy="329" r="7" fill="#696969"/><circle cx="257" cy="329" r="5.5" stroke="#050505" stroke-width="3"/></g><g filter="url(#x1trm4gwj)"><circle cx="374" cy="93" r="7" fill="#696969"/><circle cx="374" cy="93" r="5.5" stroke="#050505" stroke-width="3"/></g><g filter="url(#y1trm4gwj)"><circle cx="301" cy="187" r="7" fill="#696969"/><circle cx="301" cy="187" r="5.5" stroke="#050505" stroke-width="3"/></g><g filter="url(#z1trm4gwj)"><circle cx="359" cy="277" r="7" fill="#696969"/><circle cx="359" cy="277" r="5.5" stroke="#050505" stroke-width="3"/></g><defs><linearGradient id="b1trm4gwj" x1="456" x2="456" y1="153" y2="218" gradientUnits="userSpaceOnUse"><stop stop-color="#191A1C"/><stop offset="1" stop-color="#131415"/></linearGradient><linearGradient id="c1trm4gwj" x1="315.95" x2="340.77" y1="151.23" y2="293.22" gradientUnits="userSpaceOnUse"><stop stop-color="#fff"/><stop offset="1" stop-opacity="0"/></linearGradient><linearGradient id="d1trm4gwj" x1="366.14" x2="369.57" y1="180.29" y2="187.43" gradientUnits="userSpaceOnUse"><stop stop-color="#0064E0"/><stop offset="1" stop-color="#0082FB"/></linearGradient><linearGradient id="e1trm4gwj" x1="379.29" x2="373.29" y1="188.29" y2="186" gradientUnits="userSpaceOnUse"><stop stop-color="#0181FA"/><stop offset="1" stop-color="#0967DF"/></linearGradient><linearGradient id="f1trm4gwj" x1="454.5" x2="454.5" y1="60" y2="125" gradientUnits="userSpaceOnUse"><stop stop-color="#191A1C"/><stop offset="1" stop-color="#131415"/></linearGradient><linearGradient id="g1trm4gwj" x1="381.33" x2="425.36" y1="58.23" y2="189.83" gradientUnits="userSpaceOnUse"><stop stop-color="#fff"/><stop offset="1" stop-opacity="0"/></linearGradient><linearGradient id="h1trm4gwj" x1="259" x2="259" y1="327" y2="392" gradientUnits="userSpaceOnUse"><stop stop-color="#191A1C"/><stop offset="1" stop-color="#131415"/></linearGradient><linearGradient id="i1trm4gwj" x1="167.43" x2="203.94" y1="325.23" y2="461.8" gradientUnits="userSpaceOnUse"><stop stop-color="#fff"/><stop offset="1" stop-opacity="0"/></linearGradient><linearGradient id="m1trm4gwj" x1="460.5" x2="460.5" y1="246" y2="311" gradientUnits="userSpaceOnUse"><stop stop-color="#191A1C"/><stop offset="1" stop-color="#131415"/></linearGradient><linearGradient id="n1trm4gwj" x1="368.48" x2="404.84" y1="244.23" y2="380.89" gradientUnits="userSpaceOnUse"><stop stop-color="#fff"/><stop offset="1" stop-opacity="0"/></linearGradient><linearGradient id="o1trm4gwj" x1="147" x2="147" y1="132" y2="244" gradientUnits="userSpaceOnUse"><stop stop-color="#191A1C"/><stop offset="1" stop-color="#131415"/></linearGradient><linearGradient id="p1trm4gwj" x1="96.73" x2="220.88" y1="128.94" y2="276.94" gradientUnits="userSpaceOnUse"><stop stop-color="#fff"/><stop offset=".44" stop-color="#1DC752"/><stop offset="1" stop-color="#11943E"/></linearGradient><linearGradient id="q1trm4gwj" x1="89.85" x2="174.23" y1="226.56" y2="141" gradientUnits="userSpaceOnUse"><stop offset=".23" stop-color="#D4EFD2"/><stop offset=".38" stop-color="#C7EAC8"/><stop offset=".53" stop-color="#22D755"/><stop offset=".68" stop-color="#088944"/><stop offset="1" stop-color="#1FA634"/></linearGradient><linearGradient id="r1trm4gwj" x1="35" x2="35" y1="345" y2="392" gradientUnits="userSpaceOnUse"><stop stop-opacity="0"/><stop offset="1"/></linearGradient><linearGradient id="s1trm4gwj" x1="71.5" x2="71.5" y1="29" y2="58" gradientUnits="userSpaceOnUse"><stop stop-opacity="0"/><stop offset="1"/></linearGradient><linearGradient id="t1trm4gwj" x1="185" x2="185" y1="0" y2="65" gradientUnits="userSpaceOnUse"><stop stop-color="#191A1C"/><stop offset="1" stop-color="#131415"/></linearGradient><linearGradient id="u1trm4gwj" x1="111.39" x2="155.2" y1="-1.77" y2="129.99" gradientUnits="userSpaceOnUse"><stop stop-color="#fff"/><stop offset="1" stop-opacity="0"/></linearGradient><filter id="v1trm4gwj" width="34" height="34" x="169" y="53" color-interpolation-filters="sRGB" filterUnits="userSpaceOnUse"><feFlood flood-opacity="0" result="BackgroundImageFix"/><feColorMatrix in="SourceAlpha" result="hardAlpha"/><feOffset dy="6"/><feGaussianBlur stdDeviation="5"/><feComposite in2="hardAlpha"/><feBlend in="SourceGraphic"/></filter><filter id="w1trm4gwj" width="34" height="34" x="240" y="306" color-interpolation-filters="sRGB" filterUnits="userSpaceOnUse"><feFlood flood-opacity="0" result="BackgroundImageFix"/><feColorMatrix in="SourceAlpha" result="hardAlpha"/><feOffset dy="-6"/><feGaussianBlur stdDeviation="5"/><feComposite in2="hardAlpha"/><feBlend in="SourceGraphic"/></filter><filter id="x1trm4gwj" width="34" height="34" x="351" y="76" color-interpolation-filters="sRGB" filterUnits="userSpaceOnUse"><feFlood flood-opacity="0" result="BackgroundImageFix"/><feColorMatrix in="SourceAlpha" result="hardAlpha"/><feOffset dx="-6"/><feGaussianBlur stdDeviation="5"/><feComposite in2="hardAlpha"/><feBlend in="SourceGraphic"/></filter><filter id="y1trm4gwj" width="34" height="34" x="278" y="170" color-interpolation-filters="sRGB" filterUnits="userSpaceOnUse"><feFlood flood-opacity="0" result="BackgroundImageFix"/><feColorMatrix in="SourceAlpha" result="hardAlpha"/><feOffset dx="-6"/><feGaussianBlur stdDeviation="5"/><feComposite in2="hardAlpha"/><feBlend in="SourceGraphic"/></filter><filter id="z1trm4gwj" width="34" height="34" x="336" y="260" color-interpolation-filters="sRGB" filterUnits="userSpaceOnUse"><feFlood flood-opacity="0" result="BackgroundImageFix"/><feColorMatrix in="SourceAlpha" result="hardAlpha"/><feOffset dx="-6"/><feGaussianBlur stdDeviation="5"/><feComposite in2="hardAlpha"/><feBlend in="SourceGraphic"/></filter><clipPath id="a1trm4gwj"><path fill="#fff" d="M70 99h60a16 16 0 0 1 16 16v146a16 16 0 0 1-16 16H70z"/></clipPath><clipPath id="j1trm4gwj"><rect width="32" height="32" x="173" y="344" fill="#fff" rx="16"/></clipPath><clipPath id="k1trm4gwj"><rect width="32" height="32" x="188" y="344" fill="#fff" rx="16"/></clipPath><clipPath id="l1trm4gwj"><rect width="32" height="32" x="204" y="344" fill="#fff" rx="16"/></clipPath></defs></svg>