<svg xmlns="http://www.w3.org/2000/svg" width="200" height="80" viewBox="0 0 200 80"><path fill="#fff" d="M49.02 37.94a9 9 0 0 1 2.47-6.36 8.5 8.5 0 0 1 6.2-2.57 8.5 8.5 0 0 1 6.56 2.66l-1.9 2.22c-1.35-1.29-2.76-2.17-4.72-2.17-3.19 0-5.52 2.72-5.52 6.05v.05c0 3.39 2.33 6.11 5.53 6.11 2.06 0 3.36-.84 4.82-2.23l1.9 1.95a8.6 8.6 0 0 1-6.82 3.05c-4.9.05-8.52-3.83-8.52-8.77m17.95-8.66h3.14l5.1 8.15 5.15-8.15h3.14v17.2h-2.98V34.15l-5.31 8.1h-.06l-5.26-8.04v12.25h-2.92zm19.68 0h12.47V32h-9.5v4.44h8.41v2.71h-8.4v4.6h9.6v2.72H86.65zm18.7 8.66a9 9 0 0 1 2.48-6.36 8.5 8.5 0 0 1 6.2-2.57c2.92 0 4.72.82 6.46 2.32l-1.91 2.27a6.6 6.6 0 0 0-4.72-1.82c-3.09 0-5.42 2.78-5.42 6.04v.06c0 3.55 2.28 6.16 5.7 6.16 1.57 0 3.03-.5 4.06-1.28v-3.22h-4.28v-2.6h7.16v7.2a10.6 10.6 0 0 1-7 2.67c-5.25-.06-8.72-3.88-8.72-8.87m18.76-4.44h2.93v2.94c.81-1.94 2.28-3.27 4.5-3.15v3.15h-.16c-2.56 0-4.34 1.71-4.34 5.15v4.93h-2.93zm8.57 6.54a7 7 0 0 1 1.97-4.88 6.6 6.6 0 0 1 4.8-1.94 6.4 6.4 0 0 1 4.77 1.89 6.7 6.7 0 0 1 1.96 4.82v.06a7 7 0 0 1-2 4.83 6.6 6.6 0 0 1-4.77 1.93 6.4 6.4 0 0 1-4.75-1.9 6.7 6.7 0 0 1-1.98-4.8zm10.63 0c0-2.33-1.64-4.21-3.91-4.21-2.33 0-3.8 1.88-3.8 4.1v.06c0 2.27 1.64 4.16 3.86 4.16 2.38.05 3.85-1.84 3.85-4.11m5.2 1.72V33.5h2.92v7.38c0 1.99.99 3.15 2.72 3.15 1.68 0 2.87-1.21 2.87-3.21V33.5h2.93v12.97h-2.93v-1.99a4.7 4.7 0 0 1-3.95 2.27c-2.88 0-4.56-2-4.56-4.99m14.37-8.26h2.92v2.16a5.2 5.2 0 0 1 4.3-2.44c2.98 0 5.9 2.44 5.9 6.7V40c0 4.27-2.87 6.7-5.9 6.7a5 5 0 0 1-4.29-2.27V51h-2.93zm10.14 6.54c0-2.55-1.69-4.21-3.63-4.21-1.96 0-3.7 1.66-3.7 4.16v.05c0 2.5 1.74 4.16 3.7 4.16 2-.05 3.63-1.61 3.63-4.16"/><path fill="#0071BA" d="M38.87 38.25h-4.9v-4.56h4.1c.47 1.37.75 2.92.8 4.57zm-10.39-4.56h-3.57l-.91.9v3.67h3.73q.02-2.5.75-4.57m-.76 5.26H24v3.72l.85.85h3.63a14 14 0 0 1-.76-4.57m6.25 5.26v4.03h.8a10 10 0 0 0 3.03-4.03zM31.4 29h-1.87l-3.94 4h3.15q.89-2.29 2.66-4m7.3 14.52h3.62l.91-.9v-3.73H39.5q-.05 2.37-.8 4.63M41.63 33l-4-4h-1.8a11 11 0 0 1 2.65 4zm-2.77 5.95h-4.9v4.57h4.05q.78-2.1.85-4.57m3.46-5.26h-3.57c.47 1.37.76 2.92.76 4.57h3.72v-3.67zM29.16 43.5h4.11v-4.56h-4.9q.08 2.47.8 4.57zm.28-10.5h3.83v-4h-.85a9.5 9.5 0 0 0-2.98 4m5.38-4h-.85v4h3.83a9.5 9.5 0 0 0-2.98-4m-9.28 15.2 4.06 4.03h1.87a11.5 11.5 0 0 1-2.72-4.03zm6.93 4.03h.8V44.2h-3.83a11 11 0 0 0 3.03 4.03m5.17 0 4.06-4.03h-3.2a11.5 11.5 0 0 1-2.72 4.03zm-9.27-9.98h4.9v-4.57h-4.1a15 15 0 0 0-.8 4.57"/></svg>