<svg xmlns="http://www.w3.org/2000/svg" width="200" height="60" viewBox="0 0 200 60"><path fill="#0071BA" d="M45.96 29.21h-4.6v-4.28h3.85q.67 1.96.75 4.3zm-9.75-4.28h-3.36l-.85.85v3.44h3.5q.01-2.34.7-4.29m-.71 4.94H32v3.5l.8.8h3.4q-.69-1.98-.7-4.3m5.86 4.94v3.79h.74a9.6 9.6 0 0 0 2.86-3.8zm-2.4-14.28H37.2l-3.7 3.75h2.96c.54-1.41 1.4-2.69 2.5-3.74m6.84 13.63h3.4l.86-.85v-3.5h-3.5a15 15 0 0 1-.75 4.35m2.76-9.88-3.75-3.74h-1.7a10.5 10.5 0 0 1 2.5 3.74zm-2.6 5.59h-4.6v4.3h3.8q.74-1.98.8-4.3m3.25-4.94h-3.35q.68 1.96.7 4.3h3.5v-3.45zm-12.36 9.22h3.86v-4.28H36.1q.07 2.32.76 4.3zm.25-9.87h3.6v-3.74h-.8a9 9 0 0 0-2.8 3.74m5.06-3.74h-.8v3.74h3.6a9 9 0 0 0-2.8-3.74M33.45 34.8l3.8 3.79h1.76a11 11 0 0 1-2.55-3.79zm6.5 3.79h.76V34.8h-3.6c.7 1.54 1.64 2.84 2.84 3.79m4.86 0 3.8-3.79h-3a11 11 0 0 1-2.56 3.79zM36.1 29.2h4.6v-4.29h-3.84q-.7 1.96-.76 4.3"/><path fill="#fff" d="M56.44 27.73a7.6 7.6 0 0 1 4.67-7.18 7 7 0 0 1 2.95-.54 7.6 7.6 0 0 1 5.77 2.3l-1.67 1.91c-1.19-1.1-2.43-1.87-4.15-1.87-2.8 0-4.85 2.35-4.85 5.23v.04c0 2.94 2.05 5.29 4.86 5.29 1.81 0 2.95-.73 4.23-1.93l1.67 1.68a7.6 7.6 0 0 1-6 2.64c-4.29.04-7.48-3.31-7.48-7.58m15.77-7.49h2.76l4.48 7.05 4.52-7.05h2.76V35.1h-2.61V24.46l-4.67 7h-.05l-4.62-6.95v10.6H72.2zm17.3 0h10.95v2.36h-8.34v3.83h7.38v2.34h-7.38v3.98h8.43v2.36H89.5zm16.43 7.49a7.6 7.6 0 0 1 4.67-7.17 8 8 0 0 1 2.95-.55c2.56 0 4.15.71 5.67 2l-1.68 1.97a5.8 5.8 0 0 0-4.14-1.58c-2.71 0-4.76 2.4-4.76 5.22v.05c0 3.07 2 5.33 5 5.33 1.38 0 2.67-.43 3.57-1.1v-2.78h-3.75v-2.26h6.28v6.23a9.4 9.4 0 0 1-6.15 2.3c-4.61-.05-7.66-3.35-7.66-7.66m16.47-3.84H125v2.54c.7-1.68 2-2.83 3.95-2.73v2.73h-.14c-2.25 0-3.81 1.48-3.81 4.46v4.26h-2.58zm7.53 5.65a5.9 5.9 0 0 1 3.68-5.49q1.1-.43 2.27-.4a5.7 5.7 0 0 1 5.47 3.54q.45 1.08.44 2.26v.05a5.9 5.9 0 0 1-3.69 5.43 6 6 0 0 1-2.26.41 5.7 5.7 0 0 1-5.46-3.54 6 6 0 0 1-.45-2.25m9.34 0c0-2.01-1.44-3.64-3.44-3.64-2.04 0-3.33 1.63-3.33 3.55v.05c0 1.96 1.44 3.6 3.4 3.6 2.08.04 3.37-1.6 3.37-3.56m4.57 1.5v-7.15h2.57v6.38c0 1.72.86 2.72 2.39 2.72 1.47 0 2.52-1.05 2.52-2.78V23.9h2.57v11.22h-2.57v-1.73a4 4 0 0 1-3.47 1.96c-2.53 0-4-1.72-4-4.3m12.63-7.15h2.56v1.87a4.5 4.5 0 0 1 3.77-2.12c2.63 0 5.19 2.12 5.19 5.8v.06c0 3.69-2.52 5.8-5.19 5.8a4.4 4.4 0 0 1-3.76-1.97V39h-2.57zm8.9 5.65c0-2.2-1.48-3.64-3.19-3.64-1.72 0-3.24 1.44-3.24 3.6v.04c0 2.17 1.52 3.6 3.24 3.6 1.76-.05 3.2-1.4 3.2-3.6"/></svg>