<svg xmlns="http://www.w3.org/2000/svg" width="132" height="60" viewBox="0 0 132 60"><path fill="#0071BA" d="M21.5 29.59h-3.8v-3.53h3.18q.54 1.62.62 3.53m-8.04-3.53H10.7l-.7.7v2.83h2.88q.01-1.91.58-3.53m-.58 4.07H10V33l.66.65h2.8a11 11 0 0 1-.58-3.53m4.82 4.07v3.11h.62a8 8 0 0 0 2.35-3.11zm-1.97-11.76h-1.45l-3.04 3.09h2.43a8.5 8.5 0 0 1 2.06-3.09m5.64 11.22h2.8l.7-.7v-2.88H22a12 12 0 0 1-.62 3.58m2.27-8.13-3.1-3.09h-1.4q1.37 1.32 2.06 3.09zm-2.14 4.6h-3.8v3.53h3.14q.6-1.61.66-3.53m2.67-4.07h-2.76q.57 1.62.59 3.53h2.87v-2.83zM14 33.66h3.18v-3.53h-3.8q.07 1.92.63 3.53m.21-8.13h2.97v-3.09h-.66a7.4 7.4 0 0 0-2.3 3.09m4.16-3.09h-.66v3.09h2.97a7.4 7.4 0 0 0-2.3-3.09M11.2 34.2l3.14 3.12h1.44a9 9 0 0 1-2.1-3.12zm5.36 3.12h.62V34.2H14.2a8 8 0 0 0 2.35 3.12m4 0 3.13-3.12H21.2a9 9 0 0 1-2.1 3.12zm-7.17-7.72h3.79v-3.54H14a12 12 0 0 0-.62 3.54"/><path fill="#fff" d="M30.13 28.36a6.2 6.2 0 0 1 3.84-5.9q1.17-.48 2.43-.46a6.3 6.3 0 0 1 4.75 1.9l-1.37 1.58c-.98-.91-2-1.55-3.42-1.55-2.3 0-4 1.94-4 4.31v.04c0 2.41 1.7 4.35 4 4.35 1.5 0 2.44-.6 3.5-1.59l1.37 1.39a6.2 6.2 0 0 1-4.94 2.17 6.06 6.06 0 0 1-6.16-6.24m12.99-6.16h2.27l3.69 5.8 3.72-5.8h2.28v12.24h-2.16v-8.76l-3.84 5.76h-.04l-3.81-5.72v8.72h-2.11zm14.24 0h9.02v1.94H59.5v3.16h6.08v1.93H59.5v3.27h6.95v1.94h-9.1zm13.53 6.16a6.25 6.25 0 0 1 3.85-5.9Q75.9 22 77.17 22c2.1 0 3.41.6 4.67 1.66l-1.38 1.62a4.8 4.8 0 0 0-3.42-1.3c-2.23 0-3.92 1.98-3.92 4.3v.04c0 2.53 1.65 4.39 4.12 4.39 1.14 0 2.2-.36 2.94-.92v-2.28h-3.1v-1.86h5.18v5.13a7.7 7.7 0 0 1-5.06 1.9 6.1 6.1 0 0 1-6.31-6.32m13.57-3.16h2.12v2.1c.58-1.39 1.64-2.33 3.26-2.25v2.25h-.12c-1.85 0-3.14 1.22-3.14 3.67v3.5h-2.12zm6.2 4.66a4.85 4.85 0 0 1 3.02-4.52q.91-.36 1.88-.34a4.7 4.7 0 0 1 4.5 2.92q.37.9.37 1.86v.04a4.9 4.9 0 0 1-3.04 4.48q-.9.35-1.86.34a4.7 4.7 0 0 1-4.5-2.92 5 5 0 0 1-.37-1.86m7.69 0c0-1.66-1.19-3-2.83-3-1.68 0-2.74 1.34-2.74 2.92v.04c0 1.62 1.18 2.96 2.79 2.96 1.72.04 2.78-1.3 2.78-2.92m3.76 1.23V25.2h2.12v5.25c0 1.42.7 2.25 1.96 2.25 1.22 0 2.08-.86 2.08-2.29v-5.2h2.12v9.23h-2.12v-1.42a3.3 3.3 0 0 1-2.86 1.62c-2.08 0-3.3-1.42-3.3-3.55m10.4-5.89h2.11v1.54a3.7 3.7 0 0 1 3.1-1.74c2.17 0 4.28 1.74 4.28 4.78v.04c0 3.04-2.08 4.77-4.27 4.77a3.6 3.6 0 0 1-3.1-1.61V38h-2.12zm7.34 4.66c0-1.81-1.22-3-2.63-3-1.42 0-2.67 1.19-2.67 2.96v.04c0 1.78 1.25 2.96 2.67 2.96 1.45-.04 2.63-1.14 2.63-2.96"/></svg>