<svg xmlns="http://www.w3.org/2000/svg" width="200" height="80" viewBox="0 0 200 80"><path fill="#0052FF" d="M54.67 34.54a9.7 9.7 0 0 0-9.13 5.98 10 10 0 0 0-.7 3.76c0 5.58 4.2 9.71 9.83 9.71s9.9-4.2 9.9-9.74c0-5.51-4.2-9.71-9.9-9.71m.04 15.43c-3.15 0-5.45-2.43-5.45-5.68 0-3.3 2.26-5.73 5.4-5.73 3.2 0 5.5 2.46 5.5 5.73 0 3.25-2.3 5.68-5.45 5.68m11.08-11.2h2.75v14.87h4.39V34.89h-7.14zm-32-.21a5 5 0 0 1 4.84 3.5h4.64c-.84-4.48-4.57-7.52-9.43-7.52A9.6 9.6 0 0 0 24 44.28c0 5.57 4.2 9.71 9.84 9.71 4.75 0 8.55-3.04 9.4-7.57h-4.61a4.9 4.9 0 0 1-4.8 3.55c-3.18 0-5.4-2.43-5.4-5.68 0-3.3 2.2-5.73 5.37-5.73m115.38 3.91-3.22-.47c-1.53-.22-2.63-.72-2.63-1.92 0-1.3 1.43-1.96 3.36-1.96 2.12 0 3.48.91 3.77 2.4h4.24c-.48-3.77-3.4-5.98-7.9-5.98-4.65 0-7.71 2.35-7.71 5.68 0 3.2 2 5.04 6.06 5.63l3.22.46c1.58.22 2.45.84 2.45 2 0 1.48-1.53 2.1-3.65 2.1-2.6 0-4.06-1.05-4.28-2.65h-4.32c.4 3.66 3.3 6.23 8.56 6.23 4.79 0 7.97-2.17 7.97-5.9 0-3.33-2.3-5.07-5.92-5.63zM70.73 27.18a2.7 2.7 0 0 0-2.62 1.68q-.21.51-.2 1.07a2.7 2.7 0 0 0 2.82 2.75 2.7 2.7 0 0 0 2.8-2.75 2.7 2.7 0 0 0-2.8-2.75m64.39 14.13c0-4.05-2.49-6.77-7.75-6.77-4.98 0-7.76 2.5-8.3 6.34h4.34c.22-1.49 1.4-2.71 3.89-2.71 2.23 0 3.32.97 3.32 2.17 0 1.55-2.01 1.95-4.5 2.2-3.37.37-7.53 1.52-7.53 5.88 0 3.36 2.53 5.54 6.55 5.54 3.14 0 5.11-1.3 6.1-3.37.15 1.85 1.54 3.04 3.48 3.04h2.56v-3.87h-2.16zm-4.3 4.7c0 2.52-2.2 4.36-4.88 4.36-1.65 0-3.04-.69-3.04-2.14 0-1.85 2.24-2.35 4.28-2.57 1.98-.18 3.07-.61 3.63-1.45v1.81M107.5 34.55c-2.45 0-4.49 1-5.95 2.71V27h-4.4v26.63h4.32v-2.45a7.6 7.6 0 0 0 6.04 2.82c5.26 0 9.25-4.13 9.25-9.7 0-5.59-4.06-9.75-9.25-9.75zm-.65 15.43c-3.15 0-5.44-2.43-5.44-5.68 0-3.27 2.34-5.73 5.49-5.73 3.17 0 5.4 2.43 5.4 5.73 0 3.25-2.3 5.68-5.45 5.68M86.67 34.54c-2.85 0-4.72 1.16-5.82 2.79v-2.44H76.5v18.74h4.4V43.45c0-2.85 1.82-4.88 4.52-4.88 2.53 0 4.1 1.77 4.1 4.35v10.72h4.39V42.58c0-4.7-2.45-8.04-7.24-8.04M176 43.66c0-5.35-3.95-9.12-9.26-9.12a9.5 9.5 0 0 0-9.76 9.74c0 5.84 4.43 9.71 9.84 9.71 4.57 0 8.16-2.68 9.07-6.48h-4.57c-.66 1.66-2.27 2.6-4.42 2.6-2.82 0-4.94-1.74-5.42-4.78H176zm-14.26-1.44a4.9 4.9 0 0 1 4.94-3.88c2.48 0 4.39 1.41 4.82 3.88z"/></svg>