<svg xmlns="http://www.w3.org/2000/svg" width="200" height="80" viewBox="0 0 200 80"><path fill="#fff" d="M28.28 25.6c-1.57 1.08-2.41 2.47-2.41 3.89 0 1.43.84 2.81 2.4 3.89 1.88 1.2 4.06 1.8 6.28 1.76 2.5 0 4.71-.7 6.28-1.76l1.06 1.52a13 13 0 0 1-7.34 2.08c-2.81 0-5.41-.77-7.33-2.08q-.75-.51-1.35-1.14v.16c0 1.43.84 2.81 2.4 3.9a11 11 0 0 0 6.28 1.74c2.07 0 3.95-.47 5.43-1.25l.88 1.63c-1.95 1-4.11 1.5-6.3 1.48a13 13 0 0 1-7.34-2.1q-.75-.5-1.35-1.12v.3c0 1.43.84 2.82 2.4 3.88a11 11 0 0 0 6.28 1.69c1.65 0 3.18-.23 4.48-.74l.69 1.7c-1.52.62-3.3.96-5.17.96a13 13 0 0 1-7.33-2.08q-.75-.48-1.35-1.13c.05 1.38.88 2.72 2.4 3.77a11.4 11.4 0 0 0 6.28 1.76c3.86 0 6.95-1.64 8.15-3.7l1.61.92c-1.62 2.81-5.47 4.62-9.76 4.62-2.81 0-5.41-.77-7.33-2.08-1.91-1.31-3.22-3.2-3.22-5.4V29.5c0-2.21 1.3-4.1 3.22-5.4a13 13 0 0 1 7.33-2.1c3.7 0 7.39 1.76 9.29 3.91l-1.75.8c-1.47-1.66-4.24-2.86-7.54-2.86-2.49 0-4.7.69-6.27 1.76"/><path fill="#F1B73C" d="M35.67 25.8h22.46l-2.32 6.85h-6.49l-1.77 4.45 6.9-2.48L39.8 57l2.68-10.67-5.34 2.55 3.47-16.23h-7.73zm1.35 1.53-1.17 3.8h7.07l-3.14 14.41 5.5-2.63-1.1 4.25 5.72-8.91-5.78 2.01 3.98-9.13h6.35l1.14-3.8z"/><path fill="#fff" d="M69.33 37.06h-1.84a2.4 2.4 0 0 0-.8-1.45q-.33-.26-.72-.38a2.7 2.7 0 0 0-2.31.3q-.64.41-1 1.23-.37.95-.36 1.98 0 1.2.36 2 .37.82.99 1.23a2.8 2.8 0 0 0 2.29.29c.51-.16.96-.5 1.25-.96q.23-.38.3-.82l1.84.02a4.16 4.16 0 0 1-4.25 3.57q-1.32 0-2.37-.64a4.4 4.4 0 0 1-1.64-1.82 6 6 0 0 1-.6-2.87q0-1.67.62-2.86a4.4 4.4 0 0 1 1.63-1.83 5 5 0 0 1 3.92-.38 4 4 0 0 1 2.69 3.39m10.64 1.68q0 1.68-.61 2.88a4.4 4.4 0 0 1-1.65 1.82q-1.04.63-2.36.63T73 43.43a4.5 4.5 0 0 1-1.65-1.82 6 6 0 0 1-.6-2.87q0-1.67.6-2.86c.37-.75.94-1.39 1.65-1.83a4.5 4.5 0 0 1 2.36-.64 4.4 4.4 0 0 1 4 2.46q.62 1.2.62 2.87m-1.83 0q0-1.18-.36-1.99a2.5 2.5 0 0 0-2.43-1.65 2.5 2.5 0 0 0-2.43 1.65q-.38.96-.36 1.99 0 1.19.36 2 .36.8.99 1.23.63.41 1.44.41.82 0 1.45-.41.62-.43.98-1.23.4-.96.35-2zm5.52-5.33v10.66h-1.9V33.4zm10.26 0v10.66H92.3l-4.85-7.2h-.07v7.2h-1.83V33.4h1.63l4.84 7.22h.08V33.4zm1.52 1.9v-1.9h7.6v1.9h-2.85v8.76h-1.9v-8.75zm9.47 8.76V33.4h6.49v1.72h-4.76v2.85h4.38v1.52h-4.38v2.85h4.76v1.72zm8.47 0V33.4h1.82v8.94h4.56v1.72zm7.9 0V33.4h6.54v1.72h-4.7v2.85h4.24v1.52h-4.25v2.85h4.75v1.72zm14.87-7.2a2.3 2.3 0 0 0-2.36-1.77c-1.11 0-2 .67-2.43 1.66q-.4.95-.37 1.98 0 1.18.36 1.98a2.6 2.6 0 0 0 2.48 1.66c1.33 0 2.5-.69 2.5-2.12h-2.13v-1.52h3.8v1.16c0 2.5-1.73 4.17-4.18 4.17-2.94 0-4.66-2.52-4.66-5.31q0-1.27.35-2.25a4.5 4.5 0 0 1 5.8-2.84 3.9 3.9 0 0 1 2.69 3.2zm3.75 7.2V33.4h3.76a3.37 3.37 0 0 1 3.46 3.47c0 1.32-.5 2.45-1.55 2.98q-.8.4-1.95.4h-2.69v-1.52h2.44q.68-.02 1.1-.24c.59-.26.88-.9.88-1.62 0-.74-.28-1.46-.85-1.73a3 3 0 0 0-1.12-.21h-1.58v9.13zm5.18-4.84 2.5 4.84h-2.03l-2.44-4.84zm5.03 4.84h-1.94l3.54-10.66h2.24l3.54 10.66h-1.94l-2.69-8.37h-.07zm.06-4.21h5.31v1.54h-5.3zm8.65 4.2V33.42h3.76a3.5 3.5 0 0 1 3.54 3.58c0 2.05-1.52 3.43-3.56 3.43h-2.5v-1.54h2.25c1.13 0 1.96-.7 1.96-1.89 0-.73-.27-1.32-.86-1.62a2.3 2.3 0 0 0-1.1-.24h-1.68v8.94h-1.82m8.82 0V33.42h1.9v4.57h4.56V33.4h1.9v10.66h-1.9V39.5h-4.56v4.57z"/></svg>