<svg xmlns="http://www.w3.org/2000/svg" width="200" height="80" viewBox="0 0 200 80"><path fill="#fff" d="M46.4 43.13c-.46.3-1 .34-1.4.1-.53-.3-.81-1.01-.81-2V38.3c0-1.42-.55-2.43-1.46-2.7-1.54-.47-2.7 1.48-3.14 2.21l-2.72 4.56V36.8q-.04-1.93-1.2-2.28c-.5-.15-1.26-.1-2 1.07L27.58 45.7a11.4 11.4 0 0 1-1.24-5.19c0-6.09 4.73-11.05 10.53-11.05 5.81 0 10.54 4.96 10.54 11.05v.06c.05 1.18-.32 2.12-1.02 2.57m3.35-2.63v-.06C49.7 33.02 43.95 27 36.87 27 29.77 27 24 33.06 24 40.5S29.78 54 36.87 54c3.26 0 6.37-1.28 8.76-3.6.47-.46.5-1.24.06-1.73a1.2 1.2 0 0 0-.82-.4 1.1 1.1 0 0 0-.84.33 10.2 10.2 0 0 1-7.16 2.95 10.3 10.3 0 0 1-7.83-3.68l5.5-9.12v4.2c0 2.02.75 2.68 1.39 2.87s1.6.06 2.63-1.66l3.02-5.06.27-.42v2.56c0 1.88.73 3.4 2 4.14 1.15.67 2.6.6 3.78-.16 1.43-.93 2.2-2.65 2.12-4.72m17.92-4.61c.3.2.57.62.57 1.01 0 .63-.51 1.15-1.09 1.15q-.22 0-.4-.09a4 4 0 0 0-2.46-.86c-2.14 0-3.63 1.81-3.63 4.06s1.49 4.04 3.63 4.04c1.07 0 2.02-.46 2.74-1.15q.28-.21.64-.21c.57 0 1.03.47 1.03 1.08 0 .39-.23.73-.52.93a6 6 0 0 1-3.87 1.5c-3.3 0-5.97-2.8-5.97-6.26s2.67-6.26 5.97-6.26c1.24 0 2.41.39 3.36 1.06m6.02 2.61c2.25 0 4.15 1.97 4.15 4.39s-1.9 4.47-4.14 4.47a4.44 4.44 0 0 1-4.31-4.47 4.37 4.37 0 0 1 4.3-4.39m-.02 6.7c1 0 1.84-.97 1.84-2.3 0-1.3-.85-2.13-1.84-2.13-1.07 0-1.95.8-1.95 2.14 0 1.32.88 2.29 1.95 2.29m5.58.82v-6.18c0-.67.51-1.23 1.15-1.23s1.18.56 1.18 1.23v6.18c0 .67-.54 1.23-1.18 1.23s-1.15-.56-1.15-1.23m-.19-9.74c0-.8.6-1.45 1.34-1.45.76 0 1.38.65 1.38 1.45 0 .77-.62 1.4-1.38 1.4a1.3 1.3 0 0 1-.95-.41 1.4 1.4 0 0 1-.39-1m6.98 6.39v3.35c0 .67-.54 1.23-1.18 1.23s-1.15-.56-1.15-1.23v-6.46c0-.52.41-.95.9-.95s.9.43.9.95a3.4 3.4 0 0 1 2.55-1.06c2.32 0 3.35 1.82 3.35 3.87v3.65c0 .67-.53 1.23-1.17 1.23s-1.15-.56-1.15-1.23v-3.35c0-1.06-.13-1.94-1.6-1.94-1.02 0-1.45.88-1.45 1.94m12.95 1.28a.8.8 0 0 1-.6-.3l-2.72-3.05v5.42c0 .67-.54 1.23-1.18 1.23s-1.15-.56-1.15-1.23V35.28q.06-.13.17-.22l.26-.08c.2 0 .37.17.5.3l4.32 5.04c.13.15.3.23.37.23.09 0 .25-.08.38-.23l4.32-5.04c.13-.13.29-.3.5-.3.2 0 .37.13.43.3v10.74c0 .67-.52 1.23-1.16 1.23s-1.17-.56-1.17-1.23V40.6l-2.72 3.04q-.22.28-.55.3m11.2 1.25c1.04 0 1.93-.97 1.93-2.3 0-1.3-.9-2.17-1.94-2.17-1.03 0-1.85.88-1.85 2.18 0 1.27.82 2.29 1.85 2.29m2.47 1.1-.05-.28c-.45.93-1.9 1.34-2.82 1.34-2.18 0-3.79-2.05-3.79-4.47s1.65-4.39 3.92-4.39c.39 0 1.68.11 2.7 1.34l.03-.28c0-.52.4-.95.9-.95.48 0 .9.43.9.95v6.74c0 .52-.42.95-.91.95s-.89-.43-.89-.95m8.25-5.57h-.25c-1.46.08-1.75.95-1.75 1.94v3.35c0 .67-.54 1.23-1.18 1.23s-1.15-.56-1.15-1.23v-6.46c0-.52.41-.95.9-.95s.9.43.9.95a3.3 3.3 0 0 1 2.28-1.06h.23a1.12 1.12 0 0 1 .02 2.23m8.97 4.73q.16.25.16.58c0 .63-.55 1.21-1.15 1.21-.41 0-.76-.32-1.03-.67l-2.68-3.22v2.66c0 .67-.53 1.23-1.17 1.23s-1.16-.56-1.16-1.23v-9.8c0-.68.52-1.24 1.16-1.24s1.17.56 1.17 1.23v6.12l2.68-3.07c.27-.33.6-.65 1.01-.65.58 0 1.11.56 1.11 1.19q0 .3-.14.56l-2.12 2.4zm4.56-4.69c-.63 0-1.66.35-1.66 1.36h3.35c0-1.04-1.07-1.36-1.69-1.36m3.05 2.9h-4.72c0 1.44 1.34 1.66 1.94 1.66.43 0 1.05-.09 1.53-.3.14-.11.39-.2.6-.2.5 0 .94.45.94 1 0 .36-.23.69-.51.86a4.2 4.2 0 0 1-2.54.67c-2.35 0-4.3-1.32-4.3-4.37 0-2.4 1.2-4.49 3.97-4.49 2.25 0 3.96 1.51 4 4.21 0 .52-.41.95-.9.95m6.48 3.69h-.64c-1.77 0-2.8-.8-2.8-3.67v-2.96h-.6c-.55 0-1.05-.52-1.05-1.1 0-.63.5-1.13 1.06-1.13h.6v-2.29c0-.67.5-1.23 1.15-1.23.63 0 1.17.56 1.17 1.23v2.3h.97c.55 0 1.05.49 1.05 1.12 0 .58-.5 1.1-1.05 1.1h-.97v2.48c0 1.64.08 1.99.78 1.99h.33q.43.01.73.32t.3.76c0 .58-.47 1.08-1.03 1.08m11.28-11.47c.31.2.58.62.58 1.01 0 .63-.52 1.15-1.1 1.15q-.21 0-.4-.09a4 4 0 0 0-2.46-.86c-2.14 0-3.62 1.81-3.62 4.06s1.48 4.04 3.62 4.04c1.07 0 2.02-.46 2.74-1.15q.29-.21.64-.21c.58 0 1.03.47 1.03 1.08 0 .39-.22.73-.51.93a6 6 0 0 1-3.88 1.5c-3.3 0-5.97-2.8-5.97-6.26s2.68-6.26 5.97-6.26a6 6 0 0 1 3.36 1.06m5.9 9.3c1.06 0 1.94-.96 1.94-2.28s-.9-2.18-1.93-2.18-1.86.88-1.86 2.18c0 1.27.83 2.29 1.86 2.29m2.48 1.1-.04-.27c-.46.93-1.9 1.34-2.83 1.34-2.18 0-3.79-2.05-3.79-4.47s1.65-4.39 3.92-4.39c.39 0 1.69.11 2.7 1.34l.04-.28c0-.52.39-.95.88-.95q.38 0 .65.28.25.28.26.67v6.74q-.01.39-.26.67a1 1 0 0 1-.65.28c-.5 0-.88-.43-.88-.95m8.19-1.1c1.03 0 1.85-1 1.85-2.28 0-1.3-.82-2.18-1.85-2.18s-1.94.86-1.94 2.18.89 2.29 1.94 2.29m-1.94 1.46v3.06c0 .67-.53 1.23-1.17 1.23s-1.16-.56-1.16-1.23V39.56c0-.52.41-.95.91-.95s.89.43.89 1.04a3.7 3.7 0 0 1 2.74-1.15c2.26 0 3.91 1.97 3.91 4.39s-1.6 4.47-3.79 4.47a4 4 0 0 1-2.33-.71"/></svg>