<svg xmlns="http://www.w3.org/2000/svg" width="620" height="468" viewBox="0 0 620 468"><path d="M0 0h620v468H0z"/><g filter="url(#athsuo2cf)"><path fill="#FF2133" d="M52 253h7v215h-7zM60 267h7v201h-7zM68 308h7v160h-7zM100 195h7v273h-7zM148 86h7v382h-7zM188 241h7v227h-7zM220 281h7v187h-7zM244 227h7v241h-7zM284 275h7v193h-7zM308 362h7v106h-7zM356 251h7v217h-7zM380 217h7v251h-7zM412 256h7v212h-7zM420 279h7v189h-7zM428 288h7v180h-7zM436 332h7v136h-7zM444 326h7v142h-7zM452 335h7v133h-7zM476 422h7v46h-7zM500 359h7v109h-7zM556 179h7v289h-7z"/><path fill="#00BC9B" d="M76 294h7v174h-7zM84 277h7v191h-7zM92 257h7v211h-7zM108 269h7v199h-7zM116 236h7v232h-7zM124 209h7v259h-7zM132 147h7v321h-7zM140 90h7v378h-7zM156 62h7v406h-7zM164 57h7v411h-7zM172 168h7v300h-7zM180 251h7v217h-7zM196 222h7v246h-7zM204 272h7v196h-7zM212 304h7v164h-7zM228 293h7v175h-7zM236 245h7v223h-7zM252 283h7v185h-7zM260 288h7v180h-7zM268 308h7v160h-7zM276 293h7v175h-7zM292 341h7v127h-7zM300 369h7v99h-7zM316 353h7v115h-7zM324 313h7v155h-7zM332 335h7v133h-7zM340 313h7v155h-7zM348 295h7v173h-7zM364 230h7v238h-7zM372 240h7v228h-7zM388 203h7v265h-7zM396 232h7v236h-7zM404 242h7v226h-7zM460 319h7v149h-7z"/><path fill="#FF2133" d="M468 355h7v113h-7z"/><path fill="#00BC9B" d="M484 400h7v68h-7zM492 367h7v101h-7zM508 308h7v160h-7zM516 253h7v215h-7zM524 265h7v203h-7zM532 227h7v241h-7zM540 188h7v280h-7zM548 168h7v300h-7zM564 110h7v358h-7z"/></g><path fill="url(#bthsuo2cf)" d="M620 364H0v104h620z"/><defs><linearGradient id="bthsuo2cf" x1="310" x2="310" y1="364" y2="468" gradientUnits="userSpaceOnUse"><stop stop-opacity="0"/><stop offset="1"/></linearGradient><filter id="athsuo2cf" width="631" height="523" x="-4" y="1" color-interpolation-filters="sRGB" filterUnits="userSpaceOnUse"><feFlood result="BackgroundImageFix"/><feColorMatrix in="SourceAlpha" result="hardAlpha"/><feGaussianBlur stdDeviation="28"/><feColorMatrix values="0 0 0 0 0.03 0 0 0 0 0.6 0 0 0 0 0.505 0 0 0 0.5 0"/><feBlend in="SourceGraphic"/></filter></defs></svg>