<svg xmlns="http://www.w3.org/2000/svg" width="200" height="60" viewBox="0 0 200 60"><path fill="#146AFF" d="M102.12 39.48v-5.74q-.06-1.17.16-2.33v-.06a2 2 0 0 1 1-1.2 2.7 2.7 0 0 1 2.9 0c.47.26.83.68.98 1.2v.05q.22 1.16.16 2.33v5.74h2.66v-6.52a8 8 0 0 0-.45-3.15 4 4 0 0 0-2.18-2.16 6 6 0 0 0-2.6-.54c-.94 0-1.85.29-2.62.8V21h-2.67v18.48zm59.65-12.4c3.55 0 6.23 2.26 6.23 6.17 0 .29 0 .57-.03 1.04h-9.84c0 1.6 1.61 3.29 3.78 3.29q2.42.01 3.38-1.7h2.6a5 5 0 0 1-2.4 3.1 7.5 7.5 0 0 1-6.21.47 6.25 6.25 0 0 1-3.9-6 6 6 0 0 1 1.79-4.57 6.2 6.2 0 0 1 4.6-1.8m-2.38 2.95a3.4 3.4 0 0 0-1.29 2h7.2c-.24-1.57-1.77-2.68-3.63-2.68a3.5 3.5 0 0 0-2.28.68m-119.23 6.8c.77-.38 1.39-1 1.75-1.76h2.95a6.5 6.5 0 0 1-2.62 3.78 6.6 6.6 0 0 1-8.6-1.02 6.42 6.42 0 0 1 4.1-10.7 6.46 6.46 0 0 1 7.11 4.89h-2.9a3.7 3.7 0 0 0-3.53-2.23 3.8 3.8 0 0 0-3.4 2.42 3.7 3.7 0 0 0 1 4.03 3.75 3.75 0 0 0 4.14.58m15.01-9.2a6 6 0 0 0-2.6-.55 5 5 0 0 0-2.63.79v-.36h-2.67v11.97h2.69v-5.74q-.06-1.17.16-2.33v-.06a2 2 0 0 1 1-1.2 2.7 2.7 0 0 1 2.9 0l1.15-2.54zm10.12 5.62V27.5h2.63v11.97h-2.65v-.4c-.78.51-1.69.79-2.62.8a6 6 0 0 1-2.6-.55 4 4 0 0 1-2.18-2.15q-.55-1.52-.46-3.14V27.5h2.68v5.74q-.06 1.17.16 2.32v.06c.16.51.51.94.99 1.2a2.7 2.7 0 0 0 2.89 0c.47-.26.83-.7.98-1.2v-.06q.22-1.15.18-2.32m8.6 6.23v-5.74q-.06-1.18.18-2.34v-.05c.15-.51.5-.95.98-1.2a2.7 2.7 0 0 1 2.9 0c.47.26.83.69.98 1.2v.05q.22 1.16.15 2.34v5.74h2.66v-6.53a8 8 0 0 0-.44-3.14 4 4 0 0 0-2.17-2.16 6 6 0 0 0-2.6-.54c-.94 0-1.85.28-2.62.8v-.36h-2.69v11.93zm18.43-2.66a3.7 3.7 0 0 0 1.75-1.75h2.94a6.5 6.5 0 0 1-2.62 3.78 6.6 6.6 0 0 1-8.6-1.02 6.42 6.42 0 0 1 4.11-10.7 6.46 6.46 0 0 1 7.11 4.89h-2.9a3.7 3.7 0 0 0-3.52-2.22 3.8 3.8 0 0 0-3.4 2.42 3.7 3.7 0 0 0 1 4.02 3.75 3.75 0 0 0 4.14.58zm26.77-9.74h.47a6.6 6.6 0 0 1 5.33 2.57 6.42 6.42 0 0 1-3.1 10 6.6 6.6 0 0 1-5.88-.85v.67h-2.66V21h2.65v7.18a6.5 6.5 0 0 1 3.19-1.1m4.21 7.02v-.61a3.7 3.7 0 0 0-2.05-3.19 3.8 3.8 0 0 0-3.8.25 3.7 3.7 0 0 0-1.03 4.94q.57.88 1.5 1.35h.08q.45.2.94.28h.12q.25.04.5.04h.49l.35-.06a3.8 3.8 0 0 0 2.62-2.02v-.07q.2-.44.28-.9m29.93-3.01v-.06c0-1.95-1.51-3.93-4.89-3.97s-4.83 1.96-4.88 3.9v.13c.08 1.12.73 2.55 3.25 3.15l2.24.5c.59.12 1.57.45 1.64 1.18 0 1-1.3 1.54-2.25 1.54-1.08 0-2.25-.6-2.25-1.55v-.05h-2.63v.03c0 1.95 1.51 3.93 4.89 3.97s4.89-2.01 4.89-3.96v-.04c-.06-1.15-.68-2.6-3.25-3.19l-2.24-.5c-.49-.1-1.65-.43-1.65-1.16 0-1.14 1.17-1.53 2.26-1.53s2.25.6 2.25 1.55v.06zm-24.06 5.7c-.6-1-.94-2.13-.95-3.3a6.4 6.4 0 0 1 1.93-4.5 6.6 6.6 0 0 1 4.56-1.88h.48c1.14.08 2.24.47 3.19 1.12v-.72h2.64v11.97h-2.66v-.69a6.55 6.55 0 0 1-9.19-2m2.89-5.91a3.7 3.7 0 0 0-1.1 2.61l.14.4v.12q.08.48.28.92V35a3.7 3.7 0 0 0 2.55 2.01l.36.06h.47l.5-.03h.12q.5-.08.94-.3h.08a3.64 3.64 0 0 0 1.4-5.36 3.7 3.7 0 0 0-3.84-1.52q-1.1.23-1.9 1.03"/></svg>