<svg xmlns="http://www.w3.org/2000/svg" width="132" height="60" viewBox="0 0 132 60"><path fill="#146AFF" d="M67.74 37.56v-4.83q-.04-1 .14-1.97v-.04a1.7 1.7 0 0 1 .82-1 2.2 2.2 0 0 1 2.39 0q.6.32.8 1v.04q.2.97.14 1.96v4.84h2.2v-5.5q.07-1.36-.38-2.65a3.4 3.4 0 0 0-1.8-1.82 5 5 0 0 0-2.14-.46c-.77.01-1.52.25-2.16.68V22h-2.2v15.56zm49.13-10.44c2.92 0 5.13 1.9 5.13 5.2 0 .24 0 .48-.03.87h-8.1c0 1.35 1.33 2.77 3.11 2.77q2 .01 2.8-1.42h2.13a4.3 4.3 0 0 1-1.97 2.6 6 6 0 0 1-5.12.4 5 5 0 0 1-2.87-2.96 5 5 0 0 1-.34-2.09 5.2 5.2 0 0 1 1.47-3.85 5 5 0 0 1 3.8-1.52m-1.96 2.48a3 3 0 0 0-1.06 1.68h5.92c-.19-1.32-1.45-2.25-2.98-2.25a2.8 2.8 0 0 0-1.88.57m-98.19 5.73a3 3 0 0 0 1.44-1.49h2.43a5.4 5.4 0 0 1-2.16 3.19 5.3 5.3 0 0 1-7.08-.86 5.48 5.48 0 0 1 3.38-9 5.3 5.3 0 0 1 3.7.93 5.4 5.4 0 0 1 2.16 3.18h-2.4a3.1 3.1 0 0 0-2.9-1.87 3.1 3.1 0 0 0-2.8 2.03 3.2 3.2 0 0 0 .82 3.4 3.1 3.1 0 0 0 3.41.49m12.36-7.75a5 5 0 0 0-2.15-.46c-.76 0-1.51.24-2.15.66v-.3h-2.2v10.08h2.2v-4.83q-.04-1 .14-1.97v-.04a1.7 1.7 0 0 1 .83-1 2.2 2.2 0 0 1 2.39 0zm8.33 4.73v-4.83h2.17v10.08H37.4v-.33c-.64.43-1.4.66-2.16.67a5 5 0 0 1-2.15-.46c-.8-.35-1.45-1-1.79-1.81a7 7 0 0 1-.37-2.65v-5.5h2.2v4.83q-.05 1 .14 1.96v.05c.12.43.41.8.8 1a2.2 2.2 0 0 0 2.39 0c.4-.2.68-.57.8-1v-.05q.2-.96.15-1.96m7.08 5.25v-4.83q-.05-1 .15-1.97v-.05q.21-.66.81-1a2.2 2.2 0 0 1 2.39 0q.6.35.8 1v.05q.2.97.13 1.97v4.83h2.2v-5.5q.08-1.36-.37-2.64a3.4 3.4 0 0 0-1.78-1.82 5 5 0 0 0-2.15-.46c-.77.01-1.52.24-2.16.68v-.3h-2.2v10.04zm15.18-2.23a3 3 0 0 0 1.45-1.49h2.42a5.4 5.4 0 0 1-2.16 3.19 5.3 5.3 0 0 1-7.08-.86 5.48 5.48 0 0 1 3.38-9 5.3 5.3 0 0 1 3.7.93 5.4 5.4 0 0 1 2.16 3.18h-2.38a3.1 3.1 0 0 0-2.91-1.87 3.05 3.05 0 0 0-2.8 2.04 3.2 3.2 0 0 0 .82 3.38 3.1 3.1 0 0 0 3.41.5m22.05-8.21h.4a5.3 5.3 0 0 1 4.38 2.16 5.47 5.47 0 0 1-2.56 8.42 5.3 5.3 0 0 1-4.83-.71v.57h-2.2V22h2.18v6.05a5 5 0 0 1 2.63-.93m3.47 5.91v-.51a3.2 3.2 0 0 0-1.69-2.69 3 3 0 0 0-3.13.22 3.12 3.12 0 0 0 .4 5.29h.05q.37.17.78.24h.1q.2.03.41.03h.4l.3-.05a3 3 0 0 0 2.14-1.7v-.06q.18-.36.24-.77m24.65-2.54v-.04c0-1.65-1.25-3.32-4.03-3.35s-3.98 1.65-4.02 3.28v.11c.06.95.6 2.16 2.68 2.66l1.84.42c.48.1 1.3.38 1.36 1 0 .84-1.08 1.3-1.86 1.3-.89 0-1.85-.51-1.85-1.31v-.05h-2.17v.03c0 1.64 1.24 3.31 4.03 3.34 2.78.03 4.02-1.7 4.02-3.34v-.03c-.05-.96-.56-2.18-2.67-2.68l-1.84-.42c-.4-.1-1.36-.37-1.36-.98 0-.96.96-1.3 1.85-1.3s1.86.51 1.86 1.31v.05zm-19.81 4.8a5.5 5.5 0 0 1-.79-2.77 5.5 5.5 0 0 1 1.59-3.8c1-1 2.35-1.57 3.76-1.57h.39c.94.07 1.85.4 2.62.94v-.6h2.18v10.07H97.6v-.58a5.33 5.33 0 0 1-7.56-1.69m2.37-4.97a3 3 0 0 0-.9 2.2q.04.18.11.34v.1q.07.4.23.77v.05a3.1 3.1 0 0 0 2.1 1.7l.3.05h.38l.42-.03h.1q.4-.07.77-.25h.06q.76-.4 1.24-1.13a3.1 3.1 0 0 0-.08-3.39 3.1 3.1 0 0 0-3.16-1.28q-.91.2-1.56.87"/></svg>