<svg width="200" height="80" viewBox="0 0 200 80" xmlns="http://www.w3.org/2000/svg"><path d="M102.8 51.7v-7.67c-.06-1.05.02-2.1.22-3.12v-.07a2.71 2.71 0 0 1 1.32-1.6 3.56 3.56 0 0 1 3.83 0c.63.34 1.1.9 1.3 1.59v.07c.2 1.03.28 2.08.22 3.12v7.67h3.52v-8.72a10.7 10.7 0 0 0-.6-4.21 5.42 5.42 0 0 0-2.88-2.88 7.72 7.72 0 0 0-3.45-.73 6.4 6.4 0 0 0-3.47 1.07V27h-3.53v24.7h3.52Zm78.96-16.58c4.69 0 8.24 3.03 8.24 8.25 0 .39 0 .77-.04 1.39h-13.03c0 2.14 2.14 4.4 5 4.4 2.14 0 3.64-.74 4.49-2.26h3.44a6.7 6.7 0 0 1-3.17 4.12 9.87 9.87 0 0 1-4.93 1.25 8.27 8.27 0 0 1-8.46-8.62 8.18 8.18 0 0 1 8.46-8.53Zm-3.16 3.95a4.55 4.55 0 0 0-1.7 2.66h9.52c-.31-2.09-2.33-3.57-4.8-3.57a4.55 4.55 0 0 0-3.02.91ZM20.8 48.15a4.94 4.94 0 0 0 2.3-2.35H27a8.63 8.63 0 1 1 0-4.07h-3.83a4.95 4.95 0 1 0-2.37 6.42Zm19.86-12.3a7.72 7.72 0 0 0-3.45-.73 6.41 6.41 0 0 0-3.47 1.06v-.48H30.2v16h3.55v-7.67c-.06-1.05.02-2.1.22-3.12v-.07a2.7 2.7 0 0 1 1.32-1.6 3.56 3.56 0 0 1 3.84 0l1.52-3.4v.01Zm13.39 7.52V35.7h3.48v16h-3.5v-.53a6.41 6.41 0 0 1-3.47 1.06 7.72 7.72 0 0 1-3.45-.73 5.41 5.41 0 0 1-2.88-2.87 10.68 10.68 0 0 1-.6-4.2V35.7h3.54v7.67a12.8 12.8 0 0 0 .22 3.11v.08c.2.68.67 1.25 1.3 1.59a3.56 3.56 0 0 0 3.83 0 2.7 2.7 0 0 0 1.3-1.6v-.07c.2-1.02.28-2.07.23-3.11Zm11.38 8.33v-7.67c-.05-1.05.03-2.1.24-3.13v-.07a2.7 2.7 0 0 1 1.3-1.6 3.56 3.56 0 0 1 3.84 0c.62.35 1.1.92 1.3 1.6v.07c.2 1.03.26 2.08.2 3.13v7.67h3.52v-8.73c.09-1.42-.1-2.85-.58-4.2a5.41 5.41 0 0 0-2.87-2.88 7.72 7.72 0 0 0-3.45-.73 6.41 6.41 0 0 0-3.47 1.07v-.48H61.9V51.7h3.52Zm24.4-3.55a4.95 4.95 0 0 0 2.32-2.35h3.89a8.63 8.63 0 1 1 0-4.07H92.2a4.94 4.94 0 1 0-2.37 6.42h-.01Zm35.43-13.03h.63a8.63 8.63 0 1 1-4.83 15.67v.9h-3.52V27h3.5v9.6a8.5 8.5 0 0 1 4.22-1.48Zm5.58 9.39v-.82a4.96 4.96 0 0 0-7.75-3.92 4.95 4.95 0 0 0-1.36 6.6 5 5 0 0 0 1.99 1.8h.1c.39.18.8.31 1.25.38h.15c.22.03.45.05.67.05h.64l.47-.08a4.98 4.98 0 0 0 3.46-2.7v-.09c.18-.39.3-.8.38-1.22Zm39.6-4.03v-.07c0-2.61-2-5.26-6.46-5.31-4.46-.05-6.4 2.62-6.46 5.2v.18c.1 1.5.96 3.42 4.3 4.21l2.97.67c.77.17 2.07.6 2.17 1.58 0 1.35-1.73 2.06-2.98 2.06-1.43 0-2.98-.8-2.98-2.07v-.07h-3.48v.04c0 2.61 2 5.26 6.47 5.31 4.47.05 6.47-2.69 6.47-5.3v-.05c-.08-1.53-.9-3.47-4.3-4.26l-2.96-.67c-.65-.14-2.18-.58-2.18-1.55 0-1.52 1.54-2.05 2.98-2.05s2.98.8 2.98 2.07v.08h3.47Zm-31.83 7.62a8.62 8.62 0 0 1-1.26-4.4 8.63 8.63 0 0 1 8.59-8.53h.63c1.5.11 2.97.63 4.22 1.49v-.96h3.5v16h-3.52v-.92a8.63 8.63 0 0 1-12.16-2.68Zm3.82-7.9a4.96 4.96 0 0 0-1.45 3.5c.05.18.1.36.18.54v.15c.07.42.2.84.37 1.23v.08a4.96 4.96 0 0 0 3.38 2.69l.47.08h.62c.22 0 .44-.02.67-.05h.15c.43-.07.86-.2 1.25-.39h.1a4.9 4.9 0 0 0 1.85-7.17 4.92 4.92 0 0 0-7.58-.66h-.01Z" fill="#fff"/></svg>