<svg width="200" height="80" viewBox="0 0 200 80" fill="none" xmlns="http://www.w3.org/2000/svg"><path d="M54.51 47.65a6.76 6.76 0 0 1-4.98-2.12 7.4 7.4 0 0 1-2.02-5.22 7.49 7.49 0 0 1 2.03-5.24 6.85 6.85 0 0 1 5-2.17 6.6 6.6 0 0 1 5.4 2.44l-1.92 2.17a4.49 4.49 0 0 0-3.5-1.77 4 4 0 0 0-2.87 1.4 4.36 4.36 0 0 0-1.04 3.12 4.43 4.43 0 0 0 1.09 3.2 4.05 4.05 0 0 0 2.97 1.39 4.69 4.69 0 0 0 3.5-1.77L60.05 45a6.75 6.75 0 0 1-5.54 2.64Zm11.42 0h-3.1V32.92h3.1v3.47a4.82 4.82 0 0 1 4.8-3.47v3.44h-.18c-2.72 0-4.62 1.84-4.62 5.6v5.7ZM86.97 32.9l-6.86 18.72h-3.14l1.5-3.95-5.88-14.77h3.3l4.02 10.9 3.85-10.9h3.21Zm9.92 14.73a5.44 5.44 0 0 1-4.64-2.45v6.48h-3.1V32.9h3.1v2.64a5.37 5.37 0 0 1 4.58-2.64c3.2 0 6.34 2.64 6.34 7.36 0 4.72-3.1 7.37-6.28 7.37Zm-.71-11.9a4 4 0 0 0-2.91 1.39c-.75.86-1.12 2-1.04 3.15-.08 1.16.3 2.3 1.04 3.17a4 4 0 0 0 2.9 1.4 3.91 3.91 0 0 0 2.85-1.43c.72-.86 1.06-2 .95-3.14a4.3 4.3 0 0 0-.98-3.14 3.94 3.94 0 0 0-2.86-1.42l.05.02Zm13.77.2v6.94c-.07.48.08.97.4 1.31.33.35.8.51 1.26.45h1.27v2.9h-2.17c-2.26 0-3.8-1.07-3.8-4.16v-7.45h-1.78V33.2h1.72v-3.89h3.1v3.89h2.88v2.72h-2.88Zm12.7 11.72c-1.9.05-3.73-.7-5.08-2.08a7.5 7.5 0 0 1-2.11-5.26 7.58 7.58 0 0 1 4.33-7.12 7 7 0 0 1 7.95 1.51 7.8 7.8 0 0 1 1.63 8.27 7.23 7.23 0 0 1-6.72 4.68Zm0-11.9a4 4 0 0 0-2.98 1.34 4.37 4.37 0 0 0-1.1 3.18 4.5 4.5 0 0 0 1.13 3.22 4 4 0 0 0 6 .04 4.37 4.37 0 0 0 1.1-3.2 4.49 4.49 0 0 0-1.14-3.22 4.1 4.1 0 0 0-3.01-1.37v.01Zm36.92 11.9c-1.9.05-3.72-.7-5.08-2.08a7.49 7.49 0 0 1-2.1-5.26 7.57 7.57 0 0 1 4.33-7.1 6.99 6.99 0 0 1 7.93 1.52 7.78 7.78 0 0 1 1.63 8.25 7.22 7.22 0 0 1-6.71 4.67Zm0-11.9c-1.13 0-2.21.48-2.98 1.34a4.35 4.35 0 0 0-1.1 3.18 4.48 4.48 0 0 0 1.13 3.22 4 4 0 0 0 6 .04 4.36 4.36 0 0 0 1.1-3.2 4.5 4.5 0 0 0-1.14-3.22 4.11 4.11 0 0 0-3.01-1.37v.01Zm25.68-2.85c2.95 0 4.75 1.95 4.75 5.42v9.33h-3.1V39.3c0-2.25-1-3.45-2.75-3.45s-2.89 1.22-2.89 3.51v8.3h-3.1v-8.39c0-2.2-1.03-3.43-2.74-3.43-1.71 0-2.9 1.33-2.9 3.55v8.26h-3.1V32.9h3.1v2.44a4.82 4.82 0 0 1 4.12-2.44c1.7-.09 3.29.9 4.03 2.5a5.44 5.44 0 0 1 4.58-2.5Zm-49.67 11.8v1.62c0 .07-.03.13-.1.16l-1.35.82a.15.15 0 0 1-.17 0l-1.36-.8a.19.19 0 0 1-.09-.16V44.7c0-.07.04-.13.1-.17l1.35-.82a.2.2 0 0 1 .17 0l1.36.82c.05.04.09.1.09.17Zm9.41 2.94a6.77 6.77 0 0 1-4.94-2.22 7.4 7.4 0 0 1-1.92-5.25c.01-1.97.77-3.85 2.12-5.22a6.85 6.85 0 0 1 5.05-2.07 6.7 6.7 0 0 1 5.37 2.55l-1.88 2.13a4.52 4.52 0 0 0-3.48-1.83 4 4 0 0 0-2.89 1.34 4.38 4.38 0 0 0-1.1 3.1 4.44 4.44 0 0 0 1.04 3.22c.75.88 1.81 1.4 2.94 1.45a4.7 4.7 0 0 0 3.54-1.7l1.84 1.96a6.75 6.75 0 0 1-5.69 2.54Z" fill="#fff"/><path d="M24.98 23 10 31.55v17.09l14.98 8.54 14.98-8.54v-17.1L24.98 23Z" fill="#FEFEFE"/><path d="M24.98 23 10 31.55v17.09l14.98 8.54 14.98-8.54v-17.1L24.98 23Zm-5.91 7.39h11.79l1.42 5.94H17.7l1.37-5.94Zm3.4 10.15-1.3-3.31h7.64l-1.26 3.31.37 3.7-2.94.02h-2.91l.4-3.72Zm3.74 7.64V47l2.64-2.5v-3.94l3.45-2.22 3.94 2.92-5.36 9.23h-2.12l-2.55-2.31Zm-12.5-6.91 3.96-2.9 3.5 2.19v3.94L23.8 47v1.18l-2.54 2.34H19.1l-5.4-9.26Z" fill="#002D72"/><path style="mix-blend-mode:multiply" d="M30.88 50.5h-2.12l-2.55-2.32V47l2.64-2.5v-3.94l3.45-2.22 3.94 2.92-5.36 9.23ZM24.98 23v7.39h5.88l1.42 5.94h-7.3v.9h3.83l-1.26 3.31.37 3.7-2.94.02v12.92l14.98-8.54v-17.1L24.98 23Z" fill="url(#adjoyf5qp)"/><path style="mix-blend-mode:multiply" d="m23.8 48.18-2.54 2.34H19.1l-5.4-9.26 3.96-2.9 3.5 2.2v3.94L23.8 47v1.18Zm-1.73-3.92.4-3.72-1.3-3.31h3.81v-.9H17.7l1.37-5.94h5.91V23L10 31.55v17.09l14.98 8.54V44.26h-2.91Z" fill="url(#bdjoyf5qp)"/><path d="m24.98 23.57 14.48 8.26v16.52L24.98 56.6 10.5 48.35V31.83l14.48-8.26Z" stroke="#fff"/><defs><linearGradient id="adjoyf5qp" x1="38.36" y1="53.5" x2="38.36" y2="26.6" gradientUnits="userSpaceOnUse"><stop stop-color="#002D72"/><stop offset="1" stop-color="#002D72" stop-opacity=".01"/></linearGradient><linearGradient id="bdjoyf5qp" x1="23.38" y1="53.5" x2="23.38" y2="26.6" gradientUnits="userSpaceOnUse"><stop stop-color="#002D72" stop-opacity=".01"/><stop offset="1" stop-color="#002D72"/></linearGradient></defs></svg>