<svg xmlns="http://www.w3.org/2000/svg" width="200" height="80" viewBox="0 0 200 80"><path fill="#fff" d="M61.59 46.23a5.8 5.8 0 0 1-4.21-1.75 6 6 0 0 1-1.7-4.3 6 6 0 0 1 1.7-4.32 6 6 0 0 1 4.23-1.79 5.6 5.6 0 0 1 4.56 2.02l-1.62 1.78a3.8 3.8 0 0 0-2.96-1.45 3.4 3.4 0 0 0-2.42 1.15 3.5 3.5 0 0 0-.87 2.57 3.6 3.6 0 0 0 .91 2.64 3.5 3.5 0 0 0 2.5 1.14 4 4 0 0 0 2.97-1.46l1.58 1.59a5.8 5.8 0 0 1-4.67 2.18m9.64 0h-2.62V34.1h2.62v2.85a4.1 4.1 0 0 1 4.05-2.85v2.83h-.15c-2.3 0-3.9 1.51-3.9 4.6zM89 34.07 83.2 49.5h-2.65l1.26-3.25-4.96-12.17h2.8l3.38 8.99 3.25-8.99zm8.37 12.14a4.6 4.6 0 0 1-3.91-2.02v5.34h-2.62V34.07h2.62v2.18a4.6 4.6 0 0 1 3.87-2.18c2.7 0 5.34 2.18 5.34 6.07s-2.62 6.07-5.3 6.07m-.6-9.8a3.4 3.4 0 0 0-2.45 1.14c-.63.7-.95 1.65-.88 2.6a3.5 3.5 0 0 0 3.33 3.76 3.3 3.3 0 0 0 2.4-1.18c.6-.7.9-1.64.8-2.58a3.5 3.5 0 0 0-.82-2.6 3.4 3.4 0 0 0-2.42-1.16zm11.63.16v5.72c-.06.4.07.8.34 1.08.28.29.67.42 1.06.36h1.07v2.39h-1.83c-1.9 0-3.2-.87-3.2-3.42v-6.13h-1.51v-2.25h1.45v-3.2h2.62v3.2h2.43v2.25zm10.73 9.66a6 6 0 0 1-4.3-1.72 6 6 0 0 1-1.78-4.33 6.2 6.2 0 0 1 3.66-5.87 6 6 0 0 1 6.71 1.25 6.3 6.3 0 0 1 1.38 6.81 6.1 6.1 0 0 1-5.67 3.86m0-9.8a3.5 3.5 0 0 0-3.46 3.72c-.04.98.3 1.93.96 2.65a3.4 3.4 0 0 0 5.07.03c.66-.7 1-1.66.93-2.64.05-.98-.3-1.93-.96-2.65a3.5 3.5 0 0 0-2.54-1.12m31.17 9.8a6 6 0 0 1-4.29-1.72 6 6 0 0 1-1.77-4.33 6.2 6.2 0 0 1 3.66-5.85 6 6 0 0 1 6.7 1.25 6.3 6.3 0 0 1 1.37 6.8 6.1 6.1 0 0 1-5.67 3.85m0-9.8c-.95 0-1.86.39-2.52 1.1-.65.7-.98 1.65-.92 2.62-.05.98.3 1.93.95 2.65a3.4 3.4 0 0 0 5.06.03c.66-.7 1-1.66.94-2.64.04-.98-.3-1.93-.97-2.65a3.5 3.5 0 0 0-2.54-1.12m21.7-2.36c2.48 0 4 1.62 4 4.47v7.69h-2.62v-6.88c0-1.86-.84-2.85-2.32-2.85-1.47 0-2.44 1.02-2.44 2.9v6.83H166v-6.9c0-1.81-.86-2.83-2.3-2.83-1.45 0-2.45 1.1-2.45 2.92v6.8h-2.62V34.08h2.62v2.02a4.1 4.1 0 0 1 3.48-2.02 3.6 3.6 0 0 1 3.4 2.06 4.6 4.6 0 0 1 3.87-2.06m-41.96 9.72v1.34q0 .08-.07.13l-1.15.67a.13.13 0 0 1-.15 0l-1.14-.65a.2.2 0 0 1-.08-.13V43.8q0-.1.08-.14l1.14-.68q.07-.03.15 0l1.15.68q.06.05.07.14m7.95 2.43a5.8 5.8 0 0 1-4.17-1.83 6 6 0 0 1-1.62-4.33 6 6 0 0 1 1.79-4.3 6 6 0 0 1 4.26-1.7 5.7 5.7 0 0 1 4.53 2.1l-1.58 1.76a3.9 3.9 0 0 0-2.94-1.52c-.92.02-1.8.42-2.44 1.11s-.97 1.61-.93 2.55a3.6 3.6 0 0 0 .88 2.66 3.5 3.5 0 0 0 2.48 1.19 4 4 0 0 0 3-1.4l1.54 1.62a5.8 5.8 0 0 1-4.8 2.09"/><path fill="#FEFEFE" d="M36.65 26 24 32.96v14.08L36.65 54l12.65-6.96V32.96z"/><path fill="#002D72" d="M36.65 26 24 32.96v14.08L36.65 54l12.65-6.96V32.96zm-5 6h9.96l1.2 4.9h-12.3zm2.87 8.37-1.08-2.73h6.44l-1.06 2.73.31 3.05-2.48.01h-2.46zm3.17 6.3v-.98l2.23-2.06v-3.25l2.91-1.83 3.33 2.42-4.53 7.6h-1.8zm-10.55-5.7 3.34-2.4 2.95 1.81v3.25l2.23 2.06v.97L33.5 48.6h-1.82z"/><path fill="url(#aekzkf0m4)" d="M41.63 48.57h-1.8l-2.14-1.9v-.98l2.23-2.06v-3.25l2.91-1.83 3.33 2.42zM36.65 26v6h4.96l1.2 4.9h-6.16v.74h3.23l-1.06 2.73.31 3.05-2.48.01V54l12.65-6.96V32.96z" style="mix-blend-mode:multiply"/><path fill="url(#bekzkf0m4)" d="M35.66 46.66 33.5 48.6h-1.82l-4.55-7.62 3.34-2.4 2.95 1.81v3.25l2.23 2.06zm-1.47-3.23.33-3.06-1.08-2.73h3.21v-.74H30.5l1.16-4.9h4.99v-6L24 32.96v14.08L36.65 54V43.43z" style="mix-blend-mode:multiply"/><path fill="#fff" d="m36.86 26.12 12.44 6.84v14.08l-12.44 6.84-.21.12-.2-.12L24 47.04V32.96l12.44-6.84.21-.12zm-12.02 7.32v13.12l11.81 6.57 11.8-6.57V33.44l-11.8-6.57z"/><defs><linearGradient id="aekzkf0m4" x1="159.79" x2="159.79" y1="50.98" y2="28.95" gradientUnits="userSpaceOnUse"><stop stop-color="#002D72"/><stop offset="1" stop-color="#002D72" stop-opacity=".01"/></linearGradient><linearGradient id="bekzkf0m4" x1="159.79" x2="159.79" y1="50.98" y2="28.95" gradientUnits="userSpaceOnUse"><stop stop-color="#002D72" stop-opacity=".01"/><stop offset="1" stop-color="#002D72"/></linearGradient></defs></svg>