<svg xmlns="http://www.w3.org/2000/svg" width="200" height="60" viewBox="0 0 200 60"><path fill="#fff" d="M65.24 35.8a5 5 0 0 1-3.79-1.6 5.6 5.6 0 0 1-1.52-3.97 5.7 5.7 0 0 1 1.53-3.98 5.2 5.2 0 0 1 3.8-1.65 5 5 0 0 1 4.1 1.86L67.9 28.1a3.4 3.4 0 0 0-2.66-1.34c-.84.03-1.62.42-2.18 1.06-.55.65-.84 1.5-.78 2.37-.06.9.24 1.78.82 2.43s1.4 1.04 2.25 1.06c1.03-.03 2-.52 2.66-1.35l1.42 1.47a5.1 5.1 0 0 1-4.2 2m8.66 0h-2.36V24.63h2.36v2.63c.5-1.63 2-2.7 3.64-2.63v2.61h-.14c-2.06 0-3.5 1.4-3.5 4.25zm15.96-11.2-5.2 14.22h-2.39l1.13-3-4.45-11.22h2.5l3.05 8.28 2.92-8.28zm7.51 11.19a4.1 4.1 0 0 1-3.51-1.86v4.92H91.5V24.6h2.35v2c.75-1.24 2.06-2 3.48-2 2.43 0 4.8 2 4.8 5.6 0 3.58-2.36 5.59-4.77 5.59m-.53-9.04c-.85.02-1.64.4-2.2 1.06a3.3 3.3 0 0 0-.8 2.4c-.06.87.23 1.74.8 2.4a3 3 0 0 0 2.2 1.06 3 3 0 0 0 2.15-1.08c.55-.66.81-1.52.73-2.39.08-.87-.2-1.73-.75-2.39a3 3 0 0 0-2.17-1.07zm10.44.15v5.27c-.05.37.06.74.31 1 .25.27.6.39.95.34h.96v2.2h-1.64c-1.72 0-2.88-.8-2.88-3.16V26.9h-1.35v-2.07h1.3v-2.95h2.35v2.95h2.19v2.07zm9.64 8.9a5.2 5.2 0 0 1-3.86-1.58 5.7 5.7 0 0 1-1.6-3.99 5.8 5.8 0 0 1 3.29-5.41 5.3 5.3 0 0 1 6.02 1.15 5.9 5.9 0 0 1 1.25 6.28 5.5 5.5 0 0 1-5.1 3.56m0-9.03c-.86 0-1.68.36-2.27 1.01s-.89 1.53-.84 2.42c-.04.9.27 1.79.87 2.44a3.03 3.03 0 0 0 4.55.03c.59-.65.9-1.53.83-2.43a3.4 3.4 0 0 0-.86-2.44 3 3 0 0 0-2.28-1.04m28 9.04a5.2 5.2 0 0 1-3.85-1.59 5.7 5.7 0 0 1-1.6-3.99 5.8 5.8 0 0 1 3.29-5.4 5.3 5.3 0 0 1 6.01 1.16 5.9 5.9 0 0 1 1.24 6.27 5.5 5.5 0 0 1-5.1 3.55m0-9.04c-.86 0-1.68.36-2.26 1.01a3.3 3.3 0 0 0-.83 2.42c-.05.9.26 1.79.85 2.44a3.03 3.03 0 0 0 4.55.03c.59-.65.9-1.53.84-2.43a3.4 3.4 0 0 0-.87-2.44 3 3 0 0 0-2.28-1.04m19.48-2.17c2.24 0 3.6 1.49 3.6 4.12v7.09h-2.35v-6.35c0-1.7-.76-2.62-2.09-2.62s-2.19.93-2.19 2.67v6.3h-2.36v-6.37c0-1.67-.77-2.6-2.07-2.6s-2.2 1-2.2 2.7v6.27h-2.35V24.6h2.35v1.86a3.7 3.7 0 0 1 3.13-1.86 3.2 3.2 0 0 1 3.05 1.9 4.1 4.1 0 0 1 3.48-1.9m-37.68 8.96v1.23q0 .08-.07.12l-1.02.63a.1.1 0 0 1-.14 0l-1.03-.6a.14.14 0 0 1-.06-.13v-1.25q0-.08.06-.13l1.03-.63q.07-.03.14 0l1.02.63q.07.04.07.13m7.14 2.24a5 5 0 0 1-3.74-1.69 5.6 5.6 0 0 1-1.46-3.99c0-1.49.58-2.92 1.6-3.96a5.2 5.2 0 0 1 3.83-1.57 5 5 0 0 1 4.07 1.94l-1.41 1.61a3.4 3.4 0 0 0-2.65-1.4 3 3 0 0 0-2.19 1.03 3.3 3.3 0 0 0-.83 2.35c-.07.9.21 1.78.78 2.45a3 3 0 0 0 2.23 1.1 3.6 3.6 0 0 0 2.7-1.3l1.39 1.5a5.1 5.1 0 0 1-4.32 1.93"/><path fill="#FEFEFE" d="M43.3 17.1 32 23.56v12.9l11.3 6.44 11.3-6.44v-12.9z"/><path fill="#002D72" d="M43.3 17.1 32 23.56v12.9l11.3 6.44 11.3-6.44v-12.9zm-4.46 5.58h8.89l1.07 4.48h-11zm2.56 7.66-.97-2.5h5.76l-.95 2.5.27 2.8H41.1zm2.83 5.76v-.89l1.99-1.88v-2.98l2.6-1.67 2.97 2.2-4.04 6.97h-1.6zm-9.42-5.22 2.98-2.18 2.63 1.65v2.98l1.99 1.88v.89l-1.92 1.77h-1.62z"/><path fill="url(#auclhtzds)" d="M47.75 37.85h-1.6l-1.92-1.75v-.89l1.99-1.88v-2.98l2.6-1.67 2.97 2.2zM43.3 17.1v5.57h4.43l1.07 4.48h-5.5v.68h2.89l-.95 2.5.27 2.8H43.3v9.75l11.3-6.44v-12.9z" style="mix-blend-mode:multiply"/><path fill="url(#buclhtzds)" d="m42.41 36.1-1.92 1.77h-1.62l-4.06-6.99 2.98-2.18 2.63 1.65v2.98l1.99 1.88zm-1.3-2.96.29-2.8-.97-2.5h2.87v-.68h-5.5l1.04-4.48h4.46v-5.57L32 23.55v12.9l11.3 6.44v-9.75z" style="mix-blend-mode:multiply"/><path fill="#fff" d="m43.49 17.21 11.1 6.34v12.9l-11.3 6.44L32 36.45v-12.9l.19-.1 11.1-6.34zM32.75 24v12.02l10.55 6.01 10.54-6.01V23.99L43.3 17.98z"/><defs><linearGradient id="auclhtzds" x1="153.5" x2="153.5" y1="40.11" y2="19.83" gradientUnits="userSpaceOnUse"><stop stop-color="#002D72"/><stop offset="1" stop-color="#002D72" stop-opacity=".01"/></linearGradient><linearGradient id="buclhtzds" x1="153.5" x2="153.5" y1="40.11" y2="19.83" gradientUnits="userSpaceOnUse"><stop stop-color="#002D72" stop-opacity=".01"/><stop offset="1" stop-color="#002D72"/></linearGradient></defs></svg>