<svg width="56" height="56" viewBox="0 0 56 56" xmlns="http://www.w3.org/2000/svg"><g clip-path="url(#ax5ufjq3p)"><path fill="#9E6EFF" d="M0 0h56v56H0z"/><path d="M43.6 15.27a.5.5 0 0 0-.68-.5l-2.24.87a.5.5 0 1 0 .36.93l.1-.04-2.87 2.87a.5.5 0 0 0-.08.6.5.5 0 0 0 .1.17 11.3 11.3 0 0 1 2.84 4.71.5.5 0 1 0 .95-.29 12.3 12.3 0 0 0-2.77-4.82l2.49-2.48-.03.08a.5.5 0 0 0 .93.36l.87-2.24a.5.5 0 0 0 .03-.22ZM45.6 26.9a.5.5 0 0 1 .66-.26l2.2.97a.5.5 0 0 1 .13.84.5.5 0 0 1-.18.13l-2.2.96a.5.5 0 1 1-.4-.92l.08-.04h-3.37a12.31 12.31 0 0 1-1.46 5.38.5.5 0 0 1-.89-.47 11.3 11.3 0 0 0 1.34-5.34v-.01c0-.04 0-.08.02-.12a.5.5 0 0 1 .5-.45h3.84-.02a.5.5 0 0 1-.26-.67Zm-7.28 9.04a.5.5 0 0 1 .59.1l2.79 2.79-.05-.14a.5.5 0 1 1 .94-.37l.87 2.24a.5.5 0 0 1-.51.69.5.5 0 0 1-.23-.03l-2.24-.87a.5.5 0 0 1 .37-.95l-2.32-2.32a12.3 12.3 0 0 1-4.82 2.78.5.5 0 1 1-.3-.97c1.78-.54 3.4-1.51 4.72-2.83a.5.5 0 0 1 .19-.12ZM24.14 38.15a.5.5 0 0 1 .68-.2 11.4 11.4 0 0 0 5.32 1.33h.02a.5.5 0 0 1 .17.03c.23.05.4.25.4.49v3.75l.02-.04a.5.5 0 0 1 .91.4l-.96 2.2a.5.5 0 0 1-.46.3h-.01a.5.5 0 0 1-.4-.2.5.5 0 0 1-.1-.16l-.97-2.2a.5.5 0 0 1 .91-.4l.06.13v-3.3a12.41 12.41 0 0 1-5.38-1.45.5.5 0 0 1-.21-.68ZM30.7 9.33a.5.5 0 0 0-.85.12l-.96 2.2a.5.5 0 0 0 .92.4l.02-.03v4.25c0 .18.1.34.24.43.08.06.19.1.3.1h.01c1.86 0 3.7.46 5.33 1.32a.5.5 0 1 0 .47-.89 12.35 12.35 0 0 0-5.34-1.44v-3.76l.04.09a.5.5 0 0 0 .92-.4l-.96-2.21a.5.5 0 0 0-.14-.18ZM38 24.91c.46-.13.58-.16.81.55l-3.11.84c-.48.13-.6.16-.84-.56l3.13-.83Zm-22.9 2.96c.46-.12.6-.16.44-.9l-3.12.85c-.47.12-.6.16-.44.88l3.12-.83ZM28.7 29v7.69c0 .2-.05.34-.15.46-.1.12-.23.22-.39.3-.36.13-.74.2-1.13.2-.4 0-.75-.02-1.03-.07a1.77 1.77 0 0 1-.78-.37h.04a.8.8 0 0 1-.31-.63v-.86c.37.02.63.1.81.23.18.13.27.33.27.62 0 .39.26.62.8.68.52-.06.8-.29.8-.68v-1.72l-.37.1c-.4.07-.81.07-1.21 0-.2-.06-.39-.12-.55-.21-.16-.1-.3-.2-.4-.33a.75.75 0 0 1-.15-.46v-4.9c.72.02 1.08.27 1.08.76v4.13c0 .38.26.6.8.65.52-.04.8-.27.8-.65v-4.17c0-.47.35-.73 1.06-.76Zm-17.2-2.46v8.41h-.04a2.13 2.13 0 0 1-.62-.15 3.5 3.5 0 0 1-1.32.2h-.1c-.2-.01-.42-.02-.64-.06-.26-.03-.5-.14-.69-.32l-.15-.13a.92.92 0 0 1-.15-.22.68.68 0 0 1-.07-.31v-3.98c0-.34.18-.6.54-.78.45-.19.93-.28 1.42-.27.52-.03.78-.28.78-.66v-.97c0-.47.33-.72 1.06-.76h-.01Zm23.22 0v2.6l.37-.09c.4-.08.8-.08 1.2 0 .2.05.39.12.55.2.18.1.3.2.4.33.1.14.15.3.15.47v4.9c-.72-.04-1.08-.28-1.08-.76v-4.13c0-.39-.26-.61-.79-.66-.53.05-.8.27-.8.66v4.17c0 .46-.36.71-1.06.75v-7.7c0-.46.34-.7 1.06-.75v.01Zm-16.38 2.24c.31 0 .6.04.84.1.23.08.43.17.57.29.17.11.28.24.36.38.08.15.12.3.12.45v1.27c-.72-.04-1.06-.29-1.06-.75v-.5c0-.39-.28-.61-.82-.66-.53.05-.79.27-.79.67v4.18c0 .47-.35.72-1.08.76V30c0-.2.05-.4.17-.56.1-.16.25-.28.42-.38.17-.1.38-.17.6-.21.22-.05.44-.07.67-.07Zm4.24 0c.23 0 .46.02.68.07.22.04.42.12.6.21.17.1.32.22.42.39.1.16.16.35.16.55v4.97c-.27 0-.53-.07-.77-.2-.4.16-.82.22-1.24.2a2.55 2.55 0 0 1-1.23-.25c-.16-.1-.29-.2-.4-.34a.77.77 0 0 1-.15-.48v-1.33c0-.12.03-.23.09-.35a.94.94 0 0 1 .3-.35c.16-.1.37-.2.62-.26a3.86 3.86 0 0 1 1.7 0v-1.58c0-.4-.26-.62-.79-.67-.54.05-.8.27-.8.67v.48c0 .47-.35.72-1.07.77V30c0-.16.04-.3.12-.45.07-.14.19-.27.34-.38.16-.12.35-.21.58-.3.24-.05.52-.09.84-.09Zm8.6 0c.24 0 .46.02.68.07.22.04.43.12.6.21.17.1.32.22.43.39.1.16.16.35.15.55v4.97c-.27 0-.53-.07-.76-.2a3 3 0 0 1-1.24.2c-.22 0-.44-.02-.66-.06-.2-.04-.4-.1-.56-.19-.17-.1-.3-.2-.41-.34a.77.77 0 0 1-.15-.48v-1.33c0-.12.02-.23.1-.35a.93.93 0 0 1 .3-.35c.15-.1.35-.2.6-.26a3.86 3.86 0 0 1 1.7 0v-1.58c0-.4-.25-.62-.78-.67-.53.05-.8.27-.8.67v.48c0 .47-.36.72-1.07.77V30c0-.16.03-.3.1-.45.09-.14.2-.27.36-.38.15-.12.34-.21.59-.3.24-.05.5-.09.83-.09Zm-17.08.19a2.55 2.55 0 0 1 1.24.25c.16.1.28.2.39.33.1.14.15.3.15.49v1.33c0 .12-.03.23-.08.35a.94.94 0 0 1-.31.34c-.19.13-.4.21-.61.27-.56.12-1.15.12-1.71 0v1.58c0 .41.27.64.8.67.54-.04.81-.27.81-.67v-.2c0-.46.37-.7 1.08-.74v.97a1 1 0 0 1-.07.36.81.81 0 0 1-.3.32c-.15.11-.35.2-.62.26-.71.16-1.45.13-2.14-.07a1.16 1.16 0 0 1-.46-.31.8.8 0 0 1-.18-.55v-3.93c0-.13.03-.25.1-.36.08-.14.2-.26.33-.34.17-.1.37-.19.63-.26.25-.06.58-.1.96-.1h-.01Zm-3.65.3c-.28.05-.51.1-.72.11-.2.02-.37.05-.5.09a.58.58 0 0 0-.32.17c-.07.08-.1.2-.1.38v3.9c0 .4.27.66.8.66.56 0 .84-.25.84-.64v-4.68Zm11.9 2.67c-.27.02-.48.09-.6.2a.6.6 0 0 0-.17.34v1.41c.02.4.28.62.77.66.5-.04.77-.23.81-.56v-1.4c0-.39-.26-.61-.8-.65Zm8.61 0c-.29.02-.48.09-.6.2a.6.6 0 0 0-.17.34V33.89c.01.4.28.62.76.66.5-.04.78-.23.82-.56V32.59c0-.39-.27-.61-.8-.65ZM14 29.4c-.55.04-.82.26-.82.66v1.3c0 .39.27.6.82.66.27-.03.48-.1.6-.22a.6.6 0 0 0 .17-.45v-1.3c-.02-.39-.28-.61-.77-.65Zm16.58-8.7v5.17a1 1 0 0 1-.17.58c-.1.16-.26.3-.44.4-.18.1-.39.17-.62.22-.52.1-1.06.1-1.57-.04a1.87 1.87 0 0 1-.61-.29 1.23 1.23 0 0 1-.37-.41.97.97 0 0 1-.11-.46v-1.33c.74.04 1.1.31 1.1.8v.5c0 .42.29.64.85.7.55-.06.82-.28.82-.7v-4.36c0-.48.37-.75 1.12-.79ZM17.9 24.62a.74.74 0 1 1 0 1.48.74.74 0 0 1 0-1.48Zm1.9 0a.74.74 0 1 1 0 1.48.74.74 0 0 1 0-1.48Zm16.59-3.68c.22 0 .42.05.58.17.16.1.29.26.4.44.1.18.17.39.22.62.04.21.06.41.06.63v.05c0 .22-.02.42-.06.63-.05.23-.12.44-.22.62a1.1 1.1 0 0 1-.98.6h-5.18c.04-.74.3-1.11.79-1.11h4.36c.28 0 .32-.35.31-.74v-.05c0-.4-.03-.74-.3-.74H32c-.49 0-.75-.37-.79-1.12h5.18Zm-11.78-.47c.16 0 .3.06.44.17.15.12.27.26.36.46.3.6.38 1.3.25 1.97-.05.2-.11.38-.2.57-.1.16-.21.3-.35.42a.77.77 0 0 1-.5.17H14.58h.02v-1.07h9.98c.37 0 .64-.23.68-.7v-.12c0-.55-.28-.8-.68-.8-.28 0-.48-.1-.6-.28a1.44 1.44 0 0 1-.23-.8h.87Zm-11.8-.03c.33 0 .6.17.77.52.19.36.25.83.27 1.43.03.52.28.77.66.77h.08-.01v1.06H7.85v-.04c0-.13.05-.33.15-.62a2.51 2.51 0 0 1-.15-.54c-.03-.2-.05-.47-.05-.8v-.08c0-.21.02-.43.05-.65.03-.22.12-.42.26-.62l.06-.07.13-.15a1 1 0 0 1 .23-.15c.1-.05.2-.07.3-.06h3.98Zm13.98-5.24c.75.04 1.12.3 1.12.77v8.2c-.74-.04-1.12-.3-1.12-.78v-8.2Zm-14.03 6.32h-3.9c-.4 0-.65.27-.66.8 0 .56.25.84.64.84h4.68c-.06-.28-.1-.52-.12-.72a3.3 3.3 0 0 0-.09-.51.58.58 0 0 0-.17-.3c-.08-.07-.2-.1-.38-.1ZM9.51 18.6a.74.74 0 1 1 0 1.47.74.74 0 0 1 0-1.47Zm1.9 0a.74.74 0 1 1 0 1.47.74.74 0 0 1 0-1.47Z" fill="#fff"/></g><defs><clipPath id="ax5ufjq3p"><rect width="56" height="56" rx="8"/></clipPath></defs></svg>