<svg xmlns="http://www.w3.org/2000/svg" width="200" height="80" viewBox="0 0 200 80"><path fill="#fff" d="M24 47.67v-1.29h1.84V33H24v-1.3h12.86v3.79h-1.32v-2.32h-6.01v5.12h3.75v-2.01h1.3v5.53h-1.3v-2.03h-3.76v6.47h6.2v-2.3h1.31v3.77H24zm18.44-1.29h1.46v1.3h-6.3v-1.3h1.46v-14.1H37.6V31h4.83zm21.18-3.28a6.3 6.3 0 0 1-2.04 3.66 6 6 0 0 1-3.92 1.2q-3.63.02-5.74-2.22-2.1-2.25-2.1-6.07t2.1-6.06 5.73-2.23q1.27 0 2.65.35 1.4.37 2.9 1.03v3.92H62a5.6 5.6 0 0 0-1.35-3.01 3.5 3.5 0 0 0-2.6-1q-2.09.01-3.1 1.73-1.01 1.71-1.02 5.27.01 3.56 1.01 5.28a3.4 3.4 0 0 0 3.12 1.7q1.45 0 2.32-.89a5 5 0 0 0 1.32-2.69h1.92zm6.45 4.9q-2.7 0-4.21-1.62c-1.03-1.05-1.52-2.55-1.52-4.4q0-2.8 1.52-4.39a5.6 5.6 0 0 1 4.21-1.58q2.7 0 4.22 1.58T75.8 42q-.01 2.8-1.55 4.4a5.5 5.5 0 0 1-4.19 1.6m0-1.21q1.07 0 1.51-1.03.44-1 .44-3.78 0-2.73-.44-3.74-.41-1.02-1.52-1.03-1.07 0-1.5 1.03-.44 1.02-.44 3.74t.44 3.76q.4 1.05 1.51 1.05m5.59.85v-1.25h1.45v-8.8h-1.45V36.3h4.82v1.61q.61-1 1.4-1.46.8-.45 1.98-.44 1.7 0 2.59 1.14.86 1.15.87 3.34v5.95h1.46v1.29H82.7v-1.3h1.21v-6.11q0-1.45-.32-2.02-.34-.57-1.13-.56-1.02.01-1.52.85a5.6 5.6 0 0 0-.46 2.66v5.1h1.22v1.29zM98.1 33.87h-1.05a2 2 0 0 0-.44-1.23 1.3 1.3 0 0 0-1.01-.4q-.78 0-1.1.6a4 4 0 0 0-.36 2v1.46h2.56v1.3h-2.56v8.77h1.95v1.3h-6.8v-1.3h1.44V37.6h-1.5v-1.3h1.51v-1.43q0-1.9 1.07-2.87 1.09-.97 3.18-.97.81 0 1.6.08.78.11 1.51.3zm5.61 12.51h-1.45V36.3h-4.83v1.3h1.46v8.77h-1.46v1.3h6.28zm-4.65-14.77q-.53.6-.53 1.47 0 .85.53 1.43a1.72 1.72 0 0 0 2.59 0q.52-.58.52-1.43a2 2 0 0 0-.52-1.47 1.7 1.7 0 0 0-1.28-.58q-.78-.02-1.3.58m17.3 14.77h-1.42V31h-4.85v1.29h1.44v5.48q-.38-.83-1.16-1.32a3.4 3.4 0 0 0-1.8-.44q-2.18 0-3.4 1.58-1.25 1.58-1.25 4.4.01 2.76 1.25 4.4a4.1 4.1 0 0 0 3.4 1.6 3.5 3.5 0 0 0 1.8-.44q.74-.43 1.16-1.31v1.43h4.84zm-4.85-4.95v1.1q.01 1.99-.46 2.94-.45.89-1.46.89-1.05 0-1.49-.94-.43-.96-.43-3.4 0-2.47.43-3.4.45-.93 1.49-.94 1 0 1.46.88.47.89.46 2.87m8.78 1.08h6.98q-.1-3.2-1.36-4.89a4.7 4.7 0 0 0-3.87-1.67q-2.58 0-4.02 1.59-1.46 1.58-1.45 4.42 0 2.9 1.4 4.45 1.38 1.55 4.04 1.55 2.18 0 3.4-.9 1.2-.9 1.63-2.84h-1.6a3 3 0 0 1-.87 1.9q-.69.65-1.78.64-1.3 0-1.92-.97a7 7 0 0 1-.58-3.19zm2.88-4.43q.39.93.38 3.17h-3.28v-.2q-.01-2.1.37-2.98.39-.9 1.25-.89.9 0 1.28.91m4.22 8.3v1.26h6.05v-1.29h-1.23v-5.1q0-1.81.48-2.66.5-.85 1.5-.85.79-.01 1.14.56.31.57.32 2.02v6.12h-1.22v1.29h6.08v-1.3h-1.46V40.5q0-2.2-.88-3.34-.86-1.14-2.58-1.14-1.19 0-1.98.44-.78.45-1.4 1.46v-1.6h-4.82v1.28h1.46v8.78zm23.52-2.2v-.05zm-1.47 2.85a5 5 0 0 0 1.47-2.85h-1.6q-.06 1.1-.74 1.97-.62.66-1.64.67a2 2 0 0 1-1.88-1.11q-.59-1.1-.59-3.7 0-2.63.61-3.72c.38-.72 1.08-1.08 2-1.08q1.1 0 1.7.7.61.7.76 2.14h1.07V36.9q-1.08-.43-2.21-.68-1.1-.22-2.16-.23-2.58 0-4.06 1.58-1.5 1.6-1.5 4.43 0 2.84 1.5 4.42 1.49 1.58 4.21 1.58 1.92 0 3.06-.96m8.23-.65h-1.46V36.3h-4.83v1.3h1.46v8.77h-1.46v1.3h6.29zm-4.66-14.77q-.52.6-.52 1.47.02.85.52 1.43a1.72 1.72 0 0 0 2.59 0q.53-.58.53-1.43a2 2 0 0 0-.53-1.47 1.7 1.7 0 0 0-1.28-.58q-.78-.02-1.3.58m14.84 14.77V40.7c0-1.63-.4-2.8-1.25-3.6q-1.26-1.14-3.99-1.14-1.09 0-2.07.17-.97.2-1.89.57v2.46h1.08c.18-.71.4-1.21.79-1.53q.56-.48 1.57-.47 1.22-.01 1.8.64.57.69.58 2.06v.67h-1.77q-2.41 0-3.6.97c-.79.65-1.2 1.58-1.2 2.87q0 1.76.84 2.7a3 3 0 0 0 2.39.93 3.9 3.9 0 0 0 3.34-1.75v1.43h4.83v-1.29zm-3.38-4.57v2.28q-.01.96-.49 1.54-.46.57-1.25.58-.77 0-1.14-.54-.39-.5-.38-1.6 0-1.1.53-1.68a2 2 0 0 1 1.45-.58zM176 46.38h-1.46V31h-4.82v1.29h1.45v14.1h-1.45v1.28H176z"/></svg>