<svg xmlns="http://www.w3.org/2000/svg" width="200" height="60" viewBox="0 0 200 60"><path fill="#fff" d="M32 36.71v-1.14h1.65V23.76H32v-1.14h11.5v3.34h-1.17v-2.05h-5.38v4.52h3.35v-1.77h1.17v4.88H40.3v-1.79h-3.36v5.7h5.55v-2.03h1.17v3.33H32zm16.5-1.14h1.3v1.14h-5.63v-1.14h1.3V23.14h-1.3V22h4.32zm18.95-2.9a5.5 5.5 0 0 1-1.83 3.24 5.5 5.5 0 0 1-3.5 1.06q-3.26.01-5.14-1.97-1.86-1.98-1.87-5.35 0-3.37 1.87-5.35t5.13-1.97q1.13 0 2.37.32 1.25.31 2.6.9v3.46h-1.07a5 5 0 0 0-1.22-2.66 3 3 0 0 0-2.32-.88q-1.87 0-2.78 1.53-.9 1.52-.91 4.65 0 3.15.9 4.66a3 3 0 0 0 2.8 1.49q1.29 0 2.07-.77a4.6 4.6 0 0 0 1.18-2.38h1.72zM73.22 37a5 5 0 0 1-3.77-1.42 5.3 5.3 0 0 1-1.36-3.88q-.01-2.48 1.36-3.87 1.35-1.4 3.77-1.4t3.77 1.4a5.3 5.3 0 0 1 1.36 3.87 5.3 5.3 0 0 1-1.38 3.88A5 5 0 0 1 73.22 37m0-1.06q.96 0 1.36-.9.38-.9.38-3.34 0-2.4-.38-3.3t-1.36-.9-1.35.9q-.4.9-.4 3.3 0 2.41.4 3.31.37.93 1.35.93m5 .75v-1.1h1.3v-7.76h-1.3v-1.14h4.31v1.42a3.6 3.6 0 0 1 1.26-1.3 4 4 0 0 1 1.77-.38q1.53 0 2.31 1 .78 1.02.78 2.96v5.24h1.3v1.14h-5.43v-1.14h1.09v-5.4q0-1.27-.3-1.78-.3-.5-1-.5-.91.01-1.36.76-.43.74-.42 2.34v4.5h1.1v1.14zm20.1-12.15h-.95q-.02-.6-.4-1.08-.3-.35-.9-.36-.7 0-.99.54-.31.55-.31 1.75v1.3h2.29v1.14h-2.3v7.75h1.75v1.13h-6.08v-1.13h1.29v-7.75h-1.35v-1.14h1.36V25.4q0-1.66.95-2.53.98-.85 2.85-.85.73 0 1.43.07.68.1 1.35.26zm5 11.04h-1.29v-8.9h-4.32v1.15h1.3v7.75h-1.3v1.13h5.62zm-4.15-13.03q-.47.53-.47 1.3a1.8 1.8 0 0 0 1 1.64 1.55 1.55 0 0 0 1.78-.38q.47-.52.47-1.27c.02-.47-.15-.93-.47-1.29a1.5 1.5 0 0 0-1.14-.51q-.7-.02-1.17.51m15.48 13.03h-1.27V22h-4.35v1.14h1.3v4.83a2.7 2.7 0 0 0-1.04-1.16 3 3 0 0 0-1.61-.39q-1.95 0-3.05 1.4-1.12 1.39-1.11 3.87 0 2.45 1.11 3.88a3.7 3.7 0 0 0 3.05 1.42q.86.02 1.61-.39.66-.38 1.04-1.16v1.27h4.32zm-4.34-4.37v.98q0 1.75-.42 2.59-.4.78-1.3.78-.94 0-1.33-.83a8 8 0 0 1-.39-3q0-2.18.39-3t1.33-.83q.9 0 1.3.78.43.79.42 2.53m7.86.96h6.24c-.05-1.9-.47-3.31-1.22-4.32a4.2 4.2 0 0 0-3.46-1.47q-2.31 0-3.6 1.4-1.31 1.4-1.3 3.9 0 2.56 1.25 3.92 1.25 1.37 3.62 1.38 1.95 0 3.05-.8 1.08-.79 1.45-2.51h-1.43a2.7 2.7 0 0 1-.78 1.68q-.62.58-1.59.57-1.17 0-1.72-.86a6 6 0 0 1-.51-2.81zm2.57-3.91q.34.82.34 2.8h-2.94v-.18q0-1.86.33-2.63.35-.8 1.13-.79.8 0 1.14.8m3.78 7.32v1.11h5.4v-1.14h-1.09v-4.5q0-1.6.42-2.34.45-.76 1.36-.76.7 0 1 .5t.3 1.78v5.4h-1.1v1.14h5.44v-1.14h-1.3v-5.24q0-1.95-.78-2.96-.79-1-2.32-1-1.06 0-1.76.39-.72.4-1.26 1.29v-1.42h-4.31v1.14h1.3v7.75zm21.04-1.94v-.05zm-1.32 2.51a4.5 4.5 0 0 0 1.32-2.5h-1.42a3 3 0 0 1-.68 1.73q-.55.58-1.46.59a1.8 1.8 0 0 1-1.69-.98q-.52-.96-.52-3.26 0-2.34.55-3.29.53-.96 1.8-.95.96 0 1.5.62.56.61.68 1.88h.96V27.2a10 10 0 0 0-3.9-.8 4.8 4.8 0 0 0-3.64 1.39 5.5 5.5 0 0 0-1.34 3.9q0 2.52 1.34 3.9 1.34 1.4 3.77 1.4 1.71 0 2.73-.85m7.37-.57h-1.3v-8.9h-4.33v1.15h1.3v7.75h-1.3v1.13h5.63zm-4.17-13.03q-.47.53-.47 1.3c0 .5.19.93.47 1.26a1.54 1.54 0 0 0 1.8.38q.3-.14.51-.38.48-.52.48-1.27c.01-.47-.16-.93-.47-1.29a1.5 1.5 0 0 0-1.15-.51q-.7-.02-1.17.51m13.27 13.03v-5.02q0-2.15-1.11-3.17-1.13-1-3.57-1.01-.98 0-1.85.15-.87.17-1.7.5v2.17h.98c.15-.63.35-1.07.7-1.35q.5-.43 1.4-.42 1.1 0 1.62.57.5.6.51 1.82v.6h-1.58q-2.16 0-3.23.85t-1.07 2.53q0 1.55.76 2.37a2.7 2.7 0 0 0 2.13.84 3.5 3.5 0 0 0 3-1.55v1.26h4.32v-1.14zm-3.02-4.03v2.01q-.01.85-.43 1.35a1.4 1.4 0 0 1-1.13.52q-.68 0-1.01-.47-.34-.45-.34-1.42t.47-1.48a1.7 1.7 0 0 1 1.3-.5zM168 35.57h-1.3V22h-4.32v1.14h1.3v12.43h-1.3v1.14H168z"/></svg>