<svg xmlns="http://www.w3.org/2000/svg" width="200" height="60" viewBox="0 0 200 60"><path fill="#fff" d="M141.4 36.48V26.8c0-3.9-.53-4.37-1.67-4.8v-.11h4.34V22c-1.14.43-1.59.9-1.59 4.8V42h-1.37l-7.6-15.98V36.8c0 3.9.55 4.37 1.68 4.8v.11h-4.36v-.11c1.14-.43 1.61-.9 1.61-4.8V25.36c0-2.47-.53-2.93-1.67-3.36v-.11h3.82zM102.9 21.7a7 7 0 0 1 2.9.74v3.84h-.21c-.72-2.12-1.62-3.64-3.36-3.64-1.43 0-2.3 1.05-2.3 2.6 0 4.71 6.53 4.57 6.53 11.12 0 3.52-1.89 5.64-4.73 5.64a10 10 0 0 1-3.63-.73v-4.52h.21c.84 3.19 2.07 4.46 3.72 4.46 1.46 0 2.57-1.04 2.57-3.1 0-4.97-6.5-5.03-6.5-11.04 0-3.44 2.13-5.36 4.8-5.36m47.83-.01c3.19 0 5.87 1.98 5.87 9.83 0 7.48-2.39 10.47-6.22 10.47-3.48 0-5.93-2.37-5.93-9.82 0-7.7 2.62-10.47 6.28-10.47m-.18.63c-2.27 0-3.06 2.46-3.06 9.65 0 7.08.76 9.4 3 9.4 2.3 0 3.04-2.48 3.04-9.57 0-7.2-.76-9.48-2.98-9.48m-82.24-1.72c.36 0 .85-.01 1.23.08.53-.16.9-.03 1 .2-1.95.53-1.53 2.86-1.2 3.28.16-3.66 2.69-3.67 3.2-2.62-.46-.23-1.37-.58-1.94.28-.22.33-.59 1.47-.14 2.25.35-1 .66-1.42.86-1.6 1.18-1.07 2.21-.51 2.21-.23-1.1-.6-2.15.82-2.15 2.06.38-.62 1.34-1.35 1.85-1.35-.17.15-.92.73-.92 1.59.61-.46 1.12-.93 1.8-1.13.02-.27-.2-.5-.37-.7q.6 0 1.08.58c3.05-.18 3.32 2.25 2.9 3.32.6.32 1.59 1.16 1.87 1.87-.81-.71-2.9-2.22-5-1.96a1.9 1.9 0 0 0-1.39 1.04c-.75-.8-.3-2.18-1.9-2.47-1.1-.2-1.32.62-2.19.64-.97.03-1.97-1.27-2.94.17.5.12.76.25 1.03.64a3 3 0 0 0-1.51-.01c-.34.12-.43.4-.52.7.54.13.8.02 1.23.03.32.01.64.05.93.2.67.32.74 1.21.6 1.84-.07.32-.25.6-.31.92.38.1.68.02 1.07 0q.59-.02 1.17.03c.15.02 1.08.13 1.11.3.09.52-.29.6-.67.83-.56.33-1.4.87-.94 1.62.21.35.64.52 1.02.65.33.1 1.1.35 1.54-.16-.2-.32-.67-.76-1.25-.92.47-.24 1.3.06 1.65.36.34-.6-.5-1.1-.91-1.14.29-.19.98-.16 1.3.12 2.62-.52 4.83 1.35 6.08 4.36-1.56-1.93-3.48-3.38-5.34-3.18 2.59 1.16 3.78 3.23 3.97 4.72-.5-.68-1.84-2.87-3.88-3.17a18.5 18.5 0 0 1 3.5 7h-.6c-1.28-4.45-3.44-5.86-4.17-6.24 1.25 1.64 2.05 2.86 2.4 6.24h-.33a16 16 0 0 0-2.74-4.81c.35 1 1 2.8 1.23 4.81h-.78a17 17 0 0 0-1.38-2.7q-.04 1.2-.02 2.7h-1.11q-.22-1.42-.46-2.7-.42 1.4-.63 2.7h-.92q.18-1.44.45-3.14a18 18 0 0 0-1.4 3.14h-1.13q.27-1.15.6-2.3a9 9 0 0 0-1.3 2.3h-1.14c.4-1.62 1.03-3.26 1.97-4.78a10.3 10.3 0 0 0-3.1 4.78H61.3c.36-1.55.98-3.11 2.05-4.77a7.3 7.3 0 0 0-3.2 4.77h-1.21c.6-2.5 2-5.14 3.82-7.19a7.15 7.15 0 0 0-4.26 7.2h-2.12c-.74-2.65-.74-5.5.17-8.44a21 21 0 0 1 3.32-6.3c.12-.16.52-.6.62-.68a1.8 1.8 0 0 1-.15-1.71c.5-1.08 1.95-1.3 2.62-1.33a4.6 4.6 0 0 1 1.95-1.52 6.4 6.4 0 0 1 3.4-1.07m-6.4 12.5c-2.6.36-4.76 2.4-4.38 5.61 1.18-3.26 3.13-4.68 4.38-5.62m8.57 1.76c-.51-1.13-2.13-.97-2.74-.04.05.2.19.3.34.37.18-.13.33-.34.6-.4v.6c.28.12.46-.02.62-.16l.32.24c.4-.1.78-.39.86-.6M62.2 31.2c-1.53-.37-4.3.58-4.47 3.08 1.62-1.7 2.8-2.53 4.47-3.08m5.48.1c-.34-.08-1.57-.1-1.88.59.45-.13 1.28-.06 1.46.1-.3.06-1.54.25-1.52.99.47-.15 1.28-.38 1.6-.27q-.8.38-1.08.83c.34.25 1.9.33 2.33-.64.3-.7-.14-1.45-.91-1.6m-5.48-1.9c-1.35-.92-2.71.05-3.1 1.25a8 8 0 0 1 3.1-1.26m2.9-1.11c-.35.33-.43.98-.24 1.43.14.32.48.43.81.45.86.04 1.63-.66 1.25-1.5-.22-.3-.94.45-1.81-.38m.86-.42c-.08.2.05.4.25.44.19.03.43-.07.47-.27.01-.04-.07-.09-.15-.1-.13 0-.08.22-.28.19-.18-.06.01-.25-.3-.26m11.46-2.89c-.51-1.5-3.36-1.77-3.6.55 1.04-2 3.34-1.24 3.11.53-.03.26.12.24.42.36.26-.33.2-1.05.07-1.44m-.93 1.04c.13-.6-.46-1.12-1.01-.92.6.2.52.6.55.73 0 .04.4.16.46.19m-11.92-1.23c-2.39-2.13-4.5.03-3.47 1-.1-.55.34-1.29 1.08-1.37s1.18.24 1.7.7c.21-.13.33-.2.69-.33m-.98.58c-.25-.38-1.4-.86-1.77-.17.78-.27 1.12.2 1.4.52q.22-.19.37-.35m1.29-2.97c-.83.65-.5 1.38.22 1.63a2 2 0 0 1-.22-1.63m2.5-.97c-1.01.49-1.42 1.93-.4 2.6-.13-1.36.2-2.1.4-2.6m-1.25.42c-.8.36-.96 1.68-.18 2.14-.07-.56-.19-1.4.18-2.14m3.08-.81c-1.6.16-1.9 1.85-1.12 2.75.1-1.24.45-2.1 1.12-2.75m8.95 18.33c.5.67.86 1.47 1.11 2.3h-.6q-.17-1.21-.51-2.3m1.57-1.7a11 11 0 0 1 1.69 4h-.93a23 23 0 0 0-.76-4m-.63-4.06a10.3 10.3 0 0 1 3.86 6.18c.1.71.02 1.35-.13 1.88h-.69c-.06-3.16-1.36-5.55-3.03-8.06m-37.39-7.82h-.12L40.53 24c-.7-1.21-1.3-1.5-2.28-1.5h-1.98v8.52h2.1c1.1 0 1.46-.43 2.4-1.85h.13v4.45h-.12c-.86-1.42-1.31-1.82-2.41-1.82h-2.1v9.07h2.2c1.27 0 1.76-.2 2.55-1.48l1.43-2.28h.19l-.4 4.54H32v-.12c1.16-.43 1.5-.9 1.5-3.38V25.2c0-2.48-.34-2.94-1.5-3.37v-.12h9.72zM49 21.83c-1.13.43-1.45.89-1.45 3.37v15.66h1.66c1.25 0 1.72-.2 2.5-1.48l1.39-2.28h.17l-.38 4.54h-9.5v-.12c1.13-.43 1.46-.9 1.46-3.38V25.2c0-2.48-.33-2.94-1.45-3.37v-.12H49zm46.29 3.95h-.13L94.1 24c-.7-1.21-1.31-1.5-2.29-1.5h-1.98v8.52h2.1c1.1 0 1.47-.43 2.41-1.85h.12v4.45h-.12c-.85-1.42-1.3-1.82-2.4-1.82h-2.1v9.07h2.19c1.28 0 1.76-.2 2.56-1.48l1.43-2.28h.18l-.4 4.54H85.57v-.12c1.16-.43 1.5-.9 1.5-3.38V25.2c0-2.48-.34-2.94-1.5-3.37v-.12h9.73zm17.58-4.08c4.05 0 5.74 1.3 5.74 5.18 0 4.6-2.47 5.78-5.96 5.78h-1.1v5.48c0 2.49.4 2.95 1.81 3.38v.12h-6.14v-.12c1.17-.43 1.51-.9 1.51-3.38V25.2c0-2.48-.34-2.94-1.51-3.37v-.12zm-1.33 10.2h.8c2.63 0 3.43-1.81 3.43-4.9 0-2.95-.7-4.51-3.21-4.51h-1.02zM128 33.78c1.3 5.79 1.71 7.1 2.77 7.74v.12h-5.59v-.12c1.57-.44 1.33-1.95.22-7.13h-4.41c-1.18 5.2-1.42 6.55.33 7.13v.12h-4.23v-.12c.97-.61 1.4-1.54 2.87-7.71l3-12.46h2.2zm-6.8-.3h3.98l-1.93-9.08zm42.53-11.65c-1.13.43-1.45.89-1.45 3.37v15.66h1.66c1.24 0 1.72-.2 2.49-1.48l1.4-2.28h.17l-.38 4.54h-9.5v-.12c1.13-.43 1.46-.9 1.46-3.38V25.2c0-2.48-.33-2.94-1.46-3.37v-.12h5.6z"/><path fill="#fff" d="M78.32 30.83c2.73.32 5.83 4.64 4.66 6.61-.6-2.34-2.3-5.47-4.66-6.61m-5.25-.43c1.74-.57 4.03 1.08 4.73 2.37-.76-.6-3.84-2.1-5.07-1.1a1.2 1.2 0 0 1-.11-.7.6.6 0 0 1 .45-.56m5.68-1.7c1.66.34 3.33 1.8 3.03 2.93a10 10 0 0 0-3.03-2.93m-5.51-.89c1.1-.63 2.83-.44 3.62.27a4 4 0 0 0-2.43.23c-.25.13-.5.3-.6.58a4.2 4.2 0 0 1 3.6 1.39c-2.32-.8-3.68-.48-4.08-.41-.16-.1.1-.46.1-.93 0-.72-.2-1.13-.21-1.13m-2.14-.14c.56-.19.96-.07 1.43.11.34.14.47.58.07.67l-.16.02c-.38.09-.5.55-1.36.34-.1.14-.08.57-.33.57-.2 0-.25-.15-.26-.3-.01-1 .32-1.3.6-1.4m.63.43c-.15.02-.04.2-.2.24-.2 0-.04-.24-.32-.14-.06.12.1.27.2.3.17.02.41-.07.46-.2.03-.1.08-.24-.14-.2m69.33-11.06c-.18.63-.78 2.53-2.42 2.53-1.26 0-2.21-1.1-3.14-1.1-.63 0-1.22.55-1.46 1.12l-.24-.05c.18-.64.78-2.53 2.42-2.53 1.2 0 2.18 1 3.16 1 .63 0 1.2-.46 1.44-1.03z"/></svg>