<svg width="230" height="100" viewBox="0 0 230 100" fill="none" xmlns="http://www.w3.org/2000/svg"><path fill-rule="evenodd" clip-rule="evenodd" d="M56.077 37.6557c.37-.3295.57-.5759.2714-.5759-.0634 0-.1594.0057-.2815.0129l-.0009.0001h-.0001l-.0008.0001h-.0003c-1.0814.0644-4.1992.2502-4.8983-2.287-.7201-2.6116 2.7842-10.0929 3.4433-11.4999l.0002-.0005c.0539-.1151.0887-.1894.1006-.2171.1509-.351-.1609-.7967-.6185-.7967-.4168 0-.7305.4154-.8115.5227-.0064.0083-.0113.0148-.0147.0191-.9514 1.1811-1.9871 2.4281-3.0303 3.684l-.0003.0004-.0002.0003h-.0001v.0001c-3.6191 4.3572-7.3286 8.8231-7.9221 11.0289-1.9346 7.1954 5.5454 10.1116 10.2669 10.6445.0836.0092.1251-.0563.1251-.1066v-2.5548c0-3.4478 1.3033-6.0302 3.3721-7.8746Zm118.163 0c-.37-.3295-.57-.5759-.271-.5759.064 0 .16.0057.283.0131 1.082.0644 4.2.2502 4.899-2.287.72-2.6116-2.784-10.0927-3.444-11.4999-.054-.1153-.089-.1899-.1-.2176-.151-.351.16-.7967.618-.7967.417 0 .731.4161.812.5229.006.0083.011.0147.014.0189.951 1.1809 1.987 2.4276 3.03 3.6834 3.62 4.3576 7.33 8.8242 7.923 11.0303 1.935 7.1954-5.545 10.1116-10.267 10.6445-.083.0092-.124-.0563-.124-.1066v-2.5548c0-3.4478-1.304-6.0302-3.373-7.8746Zm-11.191 22.7532c2.453 0 6.222-1.5941 6.222-4.3845v-9.8333c0-2.7888-3.769-4.0984-6.222-4.0984-2.624 0-6.336 1.3096-6.336 4.0984v9.8333c0 2.7904 3.712 4.3845 6.336 4.3845Zm-12.61-14.2178c0-6.7746 6.792-10.1329 12.61-10.1909 5.704.058 12.496 3.4163 12.496 10.1909v10.3051c0 6.8888-6.792 10.1343-12.496 10.1909-5.818-.0566-12.61-3.3021-12.61-10.1909V46.1911Zm-25.008 9.8333c0 2.7904-3.77 4.3845-6.222 4.3845-2.623 0-6.335-1.5941-6.335-4.3845v-9.8333c0-2.7888 3.712-4.0984 6.335-4.0984 2.452 0 6.222 1.3096 6.222 4.0984v9.8333Zm-6.222-20.0242c-5.818.058-12.609 3.4163-12.609 10.1909v10.3051c0 6.8888 6.791 10.1343 12.609 10.1909 5.704-.0566 12.496-3.3021 12.496-10.1909V46.1911c0-6.7746-6.792-10.1329-12.496-10.1909Zm-26.1347.4634c4.9772.0009 8.4117.5256 13.0557 1.78.158.0427.282.2399.138.4182-1.626 1.2258-2.429 3.0567-2.815 5.0201-2.53-.6142-4.673-.9735-7.2423-1.1251V66.49c.0012.0955-.0495.1403-.1525.1323h-5.9703c-.0908 0-.1532-.0525-.1506-.1377v-23.932c-2.672.1494-4.9706.5105-7.5201 1.1293-.3085-1.9745-.9745-3.724-2.5614-5.0332-.1015-.1358-.0583-.3607.1615-.4096 4.6354-1.2506 8.0784-1.7768 13.057-1.7755Zm57.5927-.2518-.032-.0046c-.475-.0666-1.758-.2466-2.891-.2042-5.716.2184-12.179 3.5846-12.179 10.1883V66.5487c-.002.0851.061.1377.152.1377h5.97c.103.008.154-.0368.152-.1326v-.533l.001-19.8295c0-2.1778 2.686-3.5242 4.927-3.9781.652-2.1713 1.932-3.7376 3.892-5.3081.343-.2754.325-.6497.008-.6933ZM73.2053 48.1093c.0442-.0462.0711-.1102.0711-.1799l.0014-1.8113c0-2.83-3.19-4.1577-5.6776-4.1577-2.6613 0-6.0308 1.3277-6.0308 4.1577v2.0744h11.4433c.0757 0 .1444-.0323.1926-.0832Zm-17.9992-1.9912c0-6.872 6.4931-10.2786 12.394-10.3366 5.7853.058 11.9094 3.4646 11.9094 10.3366v5.7496c0 .8724-.7081 1.5791-1.582 1.5791H61.5694v3.1225c0 2.8298 3.3696 4.4471 6.0307 4.4471 1.9628 0 4.7542-1.0036 5.848-2.8221.0511-.0851.1191-.0851.1822-.0496.6702.3765 1.2474.6987 1.7946 1.0042 1.0873.6069 2.056 1.1476 3.3996 1.9166.1164.0678.1841.2298.1076.3526-2.2909 3.7004-7.1042 5.446-11.332 5.4878-5.9009-.0573-12.394-3.3494-12.394-10.3366V46.1181Z" fill="#fff"/></svg>