<svg xmlns="http://www.w3.org/2000/svg" width="132" height="60" viewBox="0 0 132 60"><path fill="#fff" d="M20.78 24.7c.28-.24.43-.43.2-.43l-.21.01c-.83.05-3.22.2-3.75-1.74-.55-2 2.13-7.7 2.63-8.77l.08-.16c.11-.27-.12-.61-.47-.61-.32 0-.56.32-.63.4v.01q-1.11 1.36-2.33 2.81c-2.77 3.32-5.6 6.73-6.06 8.4-1.48 5.49 4.24 7.71 7.86 8.12q.1-.01.1-.08V30.7c0-2.63 1-4.6 2.58-6m90.45 0c-.29-.24-.44-.43-.21-.43l.21.01c.83.05 3.22.2 3.75-1.74.55-2-2.13-7.7-2.63-8.77l-.08-.16c-.11-.27.12-.61.47-.61.32 0 .56.32.63.4v.01q1.11 1.36 2.33 2.81c2.77 3.32 5.6 6.72 6.06 8.4 1.48 5.49-4.24 7.71-7.86 8.12a.1.1 0 0 1-.1-.08V30.7c0-2.63-1-4.6-2.58-6m-8.57 17.35c1.88 0 4.76-1.22 4.76-3.34v-7.5c0-2.12-2.88-3.12-4.76-3.12-2.01 0-4.85 1-4.85 3.12v7.5c0 2.12 2.84 3.34 4.85 3.34M93 31.2c0-5.16 5.2-7.72 9.65-7.76 4.37.04 9.56 2.6 9.56 7.76v7.86c0 5.25-5.2 7.72-9.56 7.76-4.45-.02-9.65-2.5-9.65-7.75zm-19.15 7.5c0 2.12-2.88 3.34-4.76 3.34-2 0-4.85-1.22-4.85-3.34v-7.5c0-2.12 2.84-3.12 4.85-3.12 1.88 0 4.76 1 4.76 3.12zM69.1 23.45c-4.45.04-9.65 2.6-9.65 7.76v7.86c0 5.25 5.2 7.72 9.65 7.76 4.37-.04 9.57-2.51 9.57-7.76V31.2c0-5.16-5.2-7.72-9.57-7.76m-20 .35c3.8 0 6.43.4 9.99 1.36a.2.2 0 0 1 .1.32 6 6 0 0 0-2.15 3.82 30 30 0 0 0-5.54-.86v18.24q0 .12-.12.1h-4.57q-.11 0-.12-.1V28.44c-2.04.11-3.8.39-5.75.86a5.8 5.8 0 0 0-1.96-3.83.2.2 0 0 1 .12-.32 35 35 0 0 1 10-1.35m44.08-.2h-.02a14 14 0 0 0-2.22-.15c-4.37.17-9.32 2.73-9.32 7.76v15.52q0 .1.12.1h4.57q.12 0 .11-.1V31.21c0-1.66 2.06-2.68 3.78-3.03a8 8 0 0 1 2.97-4.04c.27-.21.25-.5.01-.53m-59.3 9.08a.2.2 0 0 0 .06-.14v-1.38c0-2.16-2.44-3.17-4.34-3.17-2.04 0-4.62 1.01-4.62 3.17v1.58h8.76a.2.2 0 0 0 .15-.06m-13.77-1.52c0-5.24 4.97-7.84 9.49-7.88 4.42.04 9.11 2.64 9.11 7.88v4.38c0 .66-.54 1.2-1.2 1.2H24.97v2.38c0 2.16 2.58 3.4 4.62 3.4 1.5 0 3.63-.77 4.47-2.16q.07-.08.14-.04l1.38.77c.83.46 1.57.87 2.6 1.46.09.05.14.17.08.27-1.75 2.82-5.44 4.15-8.67 4.18-4.52-.04-9.5-2.55-9.5-7.88z"/></svg>