<svg xmlns="http://www.w3.org/2000/svg" width="200" height="80" viewBox="0 0 200 80"><path fill="#fff" d="M38.62 32.84c.39-.34.6-.6.29-.6l-.3.02c-1.12.07-4.36.26-5.09-2.36-.75-2.69 2.9-10.4 3.58-11.85q.1-.18.1-.23c.16-.36-.16-.82-.64-.82-.43 0-.76.43-.84.54l-.02.02c-.98 1.22-2.06 2.5-3.14 3.8-3.76 4.49-7.62 9.1-8.24 11.37-2 7.42 5.77 10.43 10.67 10.97q.13 0 .13-.1v-2.64c0-3.55 1.35-6.22 3.5-8.12m122.76 0c-.39-.34-.6-.6-.28-.6l.29.02c1.12.07 4.36.26 5.09-2.36.75-2.69-2.9-10.4-3.58-11.85q-.1-.18-.1-.23c-.16-.36.16-.82.64-.82.43 0 .76.43.84.54l.02.02c.98 1.22 2.06 2.5 3.14 3.8 3.77 4.49 7.62 9.1 8.24 11.37 2 7.42-5.77 10.43-10.67 10.97a.1.1 0 0 1-.13-.1v-2.64c0-3.55-1.35-6.22-3.5-8.12M149.75 56.3c2.55 0 6.46-1.64 6.46-4.52V41.64c0-2.87-3.91-4.22-6.46-4.22-2.72 0-6.58 1.35-6.58 4.22v10.14c0 2.88 3.86 4.52 6.58 4.52m-13.1-14.66c0-6.98 7.06-10.45 13.1-10.5 5.93.05 12.98 3.52 12.98 10.5v10.63c0 7.1-7.05 10.45-12.98 10.5-6.04-.05-13.1-3.4-13.1-10.5zm-25.98 10.14c0 2.88-3.92 4.52-6.46 4.52-2.73 0-6.58-1.64-6.58-4.52V41.64c0-2.87 3.85-4.22 6.58-4.22 2.55 0 6.46 1.35 6.46 4.22zm-6.46-20.65c-6.05.06-13.1 3.53-13.1 10.51v10.63c0 7.1 7.05 10.45 13.1 10.5 5.92-.05 12.98-3.4 12.98-10.5V41.64c0-6.98-7.06-10.45-12.98-10.5m-27.15.48a47 47 0 0 1 13.56 1.84c.16.04.3.24.14.43-1.69 1.26-2.52 3.15-2.92 5.17a41 41 0 0 0-7.52-1.16v24.68q0 .15-.16.14h-6.2q-.16-.01-.16-.14V37.89a42 42 0 0 0-7.81 1.16c-.32-2.03-1.02-3.84-2.66-5.18a.26.26 0 0 1 .16-.43 47 47 0 0 1 13.57-1.83m59.83-.26h-.04c-.49-.07-1.82-.26-3-.21-5.94.22-12.65 3.7-12.65 10.5v21q0 .12.16.13h6.2q.16.02.16-.13v-21c0-2.24 2.79-3.63 5.12-4.1.67-2.24 2-3.85 4.04-5.47.36-.29.34-.67 0-.72M56.42 43.62a.3.3 0 0 0 .07-.19v-1.86c0-2.92-3.31-4.29-5.9-4.29-2.76 0-6.26 1.37-6.26 4.29v2.14h11.89q.12 0 .2-.09m-18.7-2.05c0-7.09 6.74-10.6 12.87-10.66 6.01.06 12.38 3.57 12.38 10.66v5.92c0 .9-.74 1.63-1.65 1.63H44.33v3.22c0 2.92 3.5 4.59 6.26 4.59 2.04 0 4.94-1.04 6.08-2.91q.08-.12.19-.05L58.72 55l3.53 1.98c.13.07.2.24.12.36-2.38 3.82-7.38 5.62-11.78 5.66-6.13-.06-12.87-3.45-12.87-10.66z"/></svg>