<svg xmlns="http://www.w3.org/2000/svg" width="200" height="60" viewBox="0 0 200 60"><path fill="#fff" d="M45.08 23.12c.35-.3.53-.53.26-.53l-.27.01c-1 .06-3.9.23-4.55-2.1-.67-2.4 2.59-9.27 3.2-10.57l.1-.2c.13-.32-.16-.73-.58-.73-.39 0-.68.38-.75.48l-.02.02c-.88 1.08-1.85 2.23-2.82 3.38-3.36 4-6.8 8.11-7.36 10.14-1.8 6.61 5.16 9.3 9.54 9.78a.1.1 0 0 0 .12-.1v-2.34a9.2 9.2 0 0 1 3.13-7.24m109.84 0c-.35-.3-.53-.53-.26-.53l.27.01c1 .06 3.9.23 4.55-2.1.67-2.4-2.59-9.27-3.2-10.57l-.1-.2c-.13-.32.16-.73.58-.73.39 0 .68.38.75.48l.02.02q1.34 1.64 2.81 3.38c3.37 4 6.82 8.11 7.37 10.14 1.8 6.61-5.16 9.3-9.54 9.78a.1.1 0 0 1-.12-.1v-2.34a9.2 9.2 0 0 0-3.13-7.24m-10.4 20.9c2.27 0 5.78-1.46 5.78-4.02v-9.04c0-2.56-3.5-3.76-5.79-3.76-2.44 0-5.89 1.2-5.89 3.76V40c0 2.56 3.45 4.03 5.9 4.03m-11.73-13.06c0-6.22 6.32-9.3 11.72-9.36 5.3.05 11.62 3.14 11.62 9.36v9.47c0 6.33-6.31 9.32-11.62 9.37-5.4-.05-11.72-3.04-11.72-9.37zM109.55 40c0 2.56-3.5 4.03-5.78 4.03-2.44 0-5.9-1.47-5.9-4.03v-9.04c0-2.56 3.46-3.76 5.9-3.76 2.27 0 5.78 1.2 5.78 3.76zm-5.78-18.4c-5.41.05-11.72 3.14-11.72 9.36v9.47c0 6.33 6.3 9.32 11.72 9.37 5.3-.05 11.61-3.04 11.61-9.37v-9.47c0-6.22-6.31-9.3-11.61-9.36m-24.3.42c4.63 0 7.82.49 12.14 1.64.14.04.26.22.13.38-1.52 1.13-2.26 2.81-2.62 4.62-2.35-.57-4.34-.9-6.73-1.04v22q0 .14-.14.12H76.7q-.14 0-.14-.13V27.62a38 38 0 0 0-7 1.04c-.28-1.82-.9-3.42-2.37-4.63a.24.24 0 0 1 .15-.37 42 42 0 0 1 12.13-1.64m53.54-.23h-.03c-.45-.06-1.64-.23-2.7-.19-5.3.2-11.31 3.3-11.31 9.36v18.71q0 .13.14.13h5.55q.14 0 .14-.12V30.96c0-2 2.5-3.24 4.58-3.65.6-2 1.8-3.44 3.62-4.88.32-.25.3-.6 0-.64M61 32.73q.06-.07.06-.17V30.9c0-2.6-2.96-3.82-5.27-3.82-2.48 0-5.61 1.22-5.61 3.82v1.9h10.64q.1 0 .18-.07M44.27 30.9c0-6.32 6.04-9.45 11.52-9.5 5.38.05 11.07 3.18 11.07 9.5v5.28c0 .8-.65 1.45-1.47 1.45H50.2v2.87c0 2.6 3.13 4.09 5.6 4.09 1.83 0 4.42-.92 5.44-2.6q.08-.1.17-.04l1.67.92 3.16 1.76c.1.06.17.21.1.33-2.13 3.4-6.6 5-10.53 5.04-5.49-.05-11.53-3.08-11.53-9.5z"/></svg>