<svg width="1216" height="375" viewBox="0 0 1216 375" fill="none" xmlns="http://www.w3.org/2000/svg"><g clip-path="url(#aivhqabtc)"><g opacity=".6" filter="url(#bivhqabtc)"><ellipse cx="380.41" cy="199.89" rx="380.41" ry="199.89" transform="scale(1 -1) rotate(-63.69 377.44 -106.92)" fill="url(#civhqabtc)" fill-opacity=".3"/></g><g opacity=".6" filter="url(#divhqabtc)"><ellipse cx="380.41" cy="199.89" rx="380.41" ry="199.89" transform="scale(1 -1) rotate(-41.03 -91.75 -347.36)" fill="url(#eivhqabtc)" fill-opacity=".3"/></g><g opacity=".6" filter="url(#fivhqabtc)"><ellipse cx="380.41" cy="199.89" rx="380.41" ry="199.89" transform="scale(1 -1) rotate(-41.03 -127.07 -114.57)" fill="url(#givhqabtc)" fill-opacity=".3"/></g><g opacity=".6" filter="url(#hivhqabtc)"><ellipse cx="380.41" cy="199.89" rx="380.41" ry="199.89" transform="scale(-1 1) rotate(35.73 -955.19 -3274.64)" fill="url(#iivhqabtc)" fill-opacity=".2"/></g><g opacity=".6" filter="url(#jivhqabtc)"><ellipse cx="380.41" cy="199.89" rx="380.41" ry="199.89" transform="scale(1 -1) rotate(-63.69 653 -891.8)" fill="url(#kivhqabtc)" fill-opacity=".2"/></g><g opacity=".6" filter="url(#livhqabtc)"><ellipse cx="380.41" cy="199.89" rx="380.41" ry="199.89" transform="scale(1 -1) rotate(-63.69 517.1 -408.1)" fill="url(#mivhqabtc)" fill-opacity=".3"/></g><circle cx="1095.45" cy="188.45" r="142.13" stroke="url(#nivhqabtc)" stroke-opacity=".5" stroke-width=".51"/><ellipse cx="1095" cy="188.45" rx="198.9" ry="198.44" stroke="url(#oivhqabtc)" stroke-opacity=".5" stroke-width=".51"/><ellipse opacity=".7" cx="1095" cy="188.45" rx="254.29" ry="253.84" stroke="url(#pivhqabtc)" stroke-opacity=".5" stroke-width=".51"/><ellipse opacity=".6" cx="1095" cy="188.45" rx="310.6" ry="310.15" stroke="url(#qivhqabtc)" stroke-opacity=".5" stroke-width=".51"/><circle opacity=".5" cx="1095" cy="188" r="370.54" stroke="url(#rivhqabtc)" stroke-opacity=".5" stroke-width=".51"/><circle opacity=".4" cx="1095" cy="188" r="435.93" stroke="url(#sivhqabtc)" stroke-opacity=".5" stroke-width=".51"/><circle opacity=".3" cx="1095" cy="188" r="499.51" stroke="url(#tivhqabtc)" stroke-opacity=".5" stroke-width=".51"/><circle opacity=".3" cx="1095" cy="188" r="554" stroke="url(#uivhqabtc)" stroke-opacity=".5" stroke-width=".51"/><g opacity=".6" filter="url(#vivhqabtc)"><ellipse cx="380.41" cy="199.89" rx="380.41" ry="199.89" transform="scale(1 -1) rotate(-63.69 395.41 -234.64)" fill="url(#wivhqabtc)"/></g><g filter="url(#xivhqabtc)"><g clip-path="url(#yivhqabtc)"><rect x="1018.75" y="113" width="150" height="150" rx="28.13" fill="#000"/><path d="M1072.24 184.48h19.98a3.4 3.4 0 1 1 0 6.78h-19.98m45.1-.32a3.7 3.7 0 0 0-5.25-.05 3.7 3.7 0 0 0 .05 5.25l8.75 8.74a3.7 3.7 0 0 0 5.25.05 3.7 3.7 0 0 0-.06-5.24l-8.74-8.75Zm-24.65 8.7a3.7 3.7 0 0 0-.05 5.24 3.7 3.7 0 0 0 5.25-.05l8.8-8.7a3.7 3.7 0 0 0 .05-5.24 3.7 3.7 0 0 0-5.25.05l-8.8 8.7Zm33.39-23.33a3.7 3.7 0 0 0 .06-5.24 3.7 3.7 0 0 0-5.25.05l-8.75 8.75a3.7 3.7 0 0 0-.05 5.24 3.7 3.7 0 0 0 5.25-.05l8.74-8.75Zm-24.64 8.75a3.7 3.7 0 0 0 5.25.05 3.7 3.7 0 0 0-.06-5.25l-8.74-8.74a3.7 3.7 0 0 0-5.25-.05 3.7 3.7 0 0 0 .05 5.24l8.75 8.75Zm-32.97-7.95h15.96a3.4 3.4 0 1 0 0-6.78h-19.51a3.87 3.87 0 0 0-3.92 3.86v27.62a3.87 3.87 0 0 0 3.92 3.87h19.72a3.39 3.39 0 1 0 0-6.78h-16.22v-21.8h.05Z" fill="#00CE7D"/><g opacity=".3" filter="url(#zivhqabtc)"><ellipse cx="28.93" cy="65.07" rx="28.93" ry="65.07" transform="scale(-1 1) rotate(52.68 -625.16 -1107.13)" fill="#01CB7D" fill-opacity=".4"/></g></g><rect x="1020.62" y="114.88" width="146.25" height="146.25" rx="26.25" stroke="url(#aaivhqabtc)" stroke-width="3.75"/></g><g filter="url(#abivhqabtc)"><g clip-path="url(#acivhqabtc)"><rect x="819" y="254" width="72" height="72" rx="36" fill="#16131D"/><g clip-path="url(#adivhqabtc)"><path fill-rule="evenodd" clip-rule="evenodd" d="M868 294.99a16.23 16.23 0 0 1-2.2 4.3 14.75 14.75 0 0 1-2.14 2.5 4.2 4.2 0 0 1-2.75 1.18c-.7 0-1.55-.2-2.54-.6-.99-.38-1.9-.58-2.73-.58-.87 0-1.8.2-2.8.59-1.01.4-1.82.6-2.44.62-.94.04-1.87-.36-2.8-1.2-.6-.51-1.35-1.38-2.24-2.6a17.8 17.8 0 0 1-2.37-4.57c-.66-1.88-.99-3.69-.99-5.44 0-2.01.45-3.75 1.34-5.2a7.77 7.77 0 0 1 6.61-3.8c.75 0 1.73.22 2.94.66 1.22.44 2 .66 2.34.66.25 0 1.12-.26 2.58-.78a8.77 8.77 0 0 1 3.52-.6c2.6.2 4.54 1.19 5.84 2.98-2.32 1.37-3.47 3.29-3.45 5.74.02 1.92.74 3.51 2.14 4.78a7.1 7.1 0 0 0 2.14 1.36ZM861.47 273l.03.6c0 1.5-.57 2.9-1.69 4.2-1.35 1.54-3 2.43-4.78 2.29a4.49 4.49 0 0 1-.03-.57 6.89 6.89 0 0 1 3.97-5.83 6.65 6.65 0 0 1 2.5-.69Z" fill="#D1D4DC"/></g></g></g><g filter="url(#aeivhqabtc)"><g clip-path="url(#afivhqabtc)"><rect x="755" y="114" width="72" height="72" rx="36" fill="#16131D"/><g clip-path="url(#agivhqabtc)"><g clip-path="url(#ahivhqabtc)"><path fill-rule="evenodd" clip-rule="evenodd" d="M781.75 134.72a2.14 2.14 0 0 0-3.75 1.32c-.03.57.17 1.13.55 1.56l11.13 12.53-11.12 12.25a2.17 2.17 0 0 0 1.68 3.62 2.15 2.15 0 0 0 1.49-.7l12.42-13.7 1.31-1.43-1.29-1.46-12.42-13.99Zm21.63 3.06a2.17 2.17 0 0 0-.7-3.52 2.13 2.13 0 0 0-2.35.48l-6.48 6.55-1.5 1.53 3.03 3.05 1.52-1.53 6.48-6.56Zm-6.54 18.07-1.56-1.47-2.94 3.15 1.57 1.48 6.48 6.1c.86.82 2.22.77 3.03-.1a2.17 2.17 0 0 0-.1-3.05l-6.48-6.1Z" fill="#D1D4DC"/></g></g></g></g><g filter="url(#aiivhqabtc)"><g clip-path="url(#ajivhqabtc)"><rect x="906" y="29" width="72" height="72" rx="36" fill="#16131D"/><g clip-path="url(#akivhqabtc)"><path d="M952.89 68.11c0 6.85-4.9 12.45-10.89 12.45s-10.89-5.6-10.89-12.45c0-6.84 10.89-21.78 10.89-21.78s10.89 14.94 10.89 21.78Z" fill="#D1D4DC"/></g></g></g></g><defs><linearGradient id="civhqabtc" x1="191.92" y1="235.29" x2="567.63" y2="270.32" gradientUnits="userSpaceOnUse"><stop offset=".36"/></linearGradient><linearGradient id="eivhqabtc" x1="191.92" y1="235.29" x2="567.63" y2="270.32" gradientUnits="userSpaceOnUse"><stop offset=".36"/></linearGradient><linearGradient id="givhqabtc" x1="191.92" y1="235.29" x2="567.63" y2="270.32" gradientUnits="userSpaceOnUse"><stop offset=".36"/></linearGradient><linearGradient id="iivhqabtc" x1="191.92" y1="235.29" x2="567.63" y2="270.32" gradientUnits="userSpaceOnUse"><stop offset=".36" stop-color="#3B0EC6"/></linearGradient><linearGradient id="kivhqabtc" x1="191.92" y1="235.29" x2="567.63" y2="270.32" gradientUnits="userSpaceOnUse"><stop offset=".36" stop-color="#03CD80"/></linearGradient><linearGradient id="mivhqabtc" x1="191.92" y1="235.29" x2="567.63" y2="270.32" gradientUnits="userSpaceOnUse"><stop offset=".36" stop-color="#3B0EC6"/></linearGradient><linearGradient id="nivhqabtc" x1="1095.45" y1="46.32" x2="1095.45" y2="330.59" gradientUnits="userSpaceOnUse"><stop stop-color="#02CD80"/><stop offset="1" stop-color="#171139"/></linearGradient><linearGradient id="oivhqabtc" x1="1095" y1="-9.99" x2="1095" y2="386.89" gradientUnits="userSpaceOnUse"><stop stop-color="#02CD80"/><stop offset="1" stop-color="#171139"/></linearGradient><linearGradient id="pivhqabtc" x1="1095" y1="-65.39" x2="1095" y2="442.3" gradientUnits="userSpaceOnUse"><stop stop-color="#02CD80"/><stop offset="1" stop-color="#171139"/></linearGradient><linearGradient id="qivhqabtc" x1="1095" y1="-121.69" x2="1095" y2="498.6" gradientUnits="userSpaceOnUse"><stop stop-color="#02CD80"/><stop offset="1" stop-color="#171139"/></linearGradient><linearGradient id="rivhqabtc" x1="1095" y1="-182.54" x2="1095" y2="558.54" gradientUnits="userSpaceOnUse"><stop stop-color="#02CD80"/><stop offset="1" stop-color="#171139"/></linearGradient><linearGradient id="sivhqabtc" x1="1095" y1="-247.93" x2="1095" y2="623.93" gradientUnits="userSpaceOnUse"><stop stop-color="#02CD80"/><stop offset="1" stop-color="#171139"/></linearGradient><linearGradient id="tivhqabtc" x1="1095" y1="-311.51" x2="1095" y2="687.51" gradientUnits="userSpaceOnUse"><stop stop-color="#02CD80"/><stop offset="1" stop-color="#171139"/></linearGradient><linearGradient id="uivhqabtc" x1="1095" y1="-366" x2="1095" y2="742" gradientUnits="userSpaceOnUse"><stop stop-color="#02CD80"/><stop offset="1" stop-color="#171139"/></linearGradient><linearGradient id="wivhqabtc" x1="191.92" y1="235.29" x2="567.63" y2="270.32" gradientUnits="userSpaceOnUse"><stop offset=".36"/></linearGradient><linearGradient id="aaivhqabtc" x1="1153.75" y1="114.5" x2="1031.77" y2="257.44" gradientUnits="userSpaceOnUse"><stop offset="0" stop-color="#00CE7D"/><stop offset=".81" stop-color="#201751"/></linearGradient><filter id="bivhqabtc" x="19.75" y="-766.81" width="1268.08" height="1480.82" filterUnits="userSpaceOnUse" color-interpolation-filters="sRGB"><feFlood flood-opacity="0" result="BackgroundImageFix"/><feBlend in="SourceGraphic" in2="BackgroundImageFix" result="shape"/><feGaussianBlur stdDeviation="194" result="effect1_foregroundBlur_3392_352235"/></filter><filter id="divhqabtc" x="-79.93" y="-435.25" width="1407.22" height="1359.54" filterUnits="userSpaceOnUse" color-interpolation-filters="sRGB"><feFlood flood-opacity="0" result="BackgroundImageFix"/><feBlend in="SourceGraphic" in2="BackgroundImageFix" result="shape"/><feGaussianBlur stdDeviation="194" result="effect1_foregroundBlur_3392_352235"/></filter><filter id="fivhqabtc" x="-241.43" y="-469.25" width="1407.22" height="1359.54" filterUnits="userSpaceOnUse" color-interpolation-filters="sRGB"><feFlood flood-opacity="0" result="BackgroundImageFix"/><feBlend in="SourceGraphic" in2="BackgroundImageFix" result="shape"/><feGaussianBlur stdDeviation="194" result="effect1_foregroundBlur_3392_352235"/></filter><filter id="hivhqabtc" x="1181.92" y="-337.31" width="1436.43" height="1326.25" filterUnits="userSpaceOnUse" color-interpolation-filters="sRGB"><feFlood flood-opacity="0" result="BackgroundImageFix"/><feBlend in="SourceGraphic" in2="BackgroundImageFix" result="shape"/><feGaussianBlur stdDeviation="194" result="effect1_foregroundBlur_3392_352235"/></filter><filter id="jivhqabtc" x="876.75" y="-576.81" width="1268.08" height="1480.82" filterUnits="userSpaceOnUse" color-interpolation-filters="sRGB"><feFlood flood-opacity="0" result="BackgroundImageFix"/><feBlend in="SourceGraphic" in2="BackgroundImageFix" result="shape"/><feGaussianBlur stdDeviation="194" result="effect1_foregroundBlur_3392_352235"/></filter><filter id="livhqabtc" x="367.5" y="-724.31" width="1268.08" height="1480.82" filterUnits="userSpaceOnUse" color-interpolation-filters="sRGB"><feFlood flood-opacity="0" result="BackgroundImageFix"/><feBlend in="SourceGraphic" in2="BackgroundImageFix" result="shape"/><feGaussianBlur stdDeviation="194" result="effect1_foregroundBlur_3392_352235"/></filter><filter id="vivhqabtc" x="144.25" y="-711.81" width="1268.08" height="1480.82" filterUnits="userSpaceOnUse" color-interpolation-filters="sRGB"><feFlood flood-opacity="0" result="BackgroundImageFix"/><feBlend in="SourceGraphic" in2="BackgroundImageFix" result="shape"/><feGaussianBlur stdDeviation="194" result="effect1_foregroundBlur_3392_352235"/></filter><filter id="xivhqabtc" x="1015.13" y="109.39" width="157.23" height="157.23" filterUnits="userSpaceOnUse" color-interpolation-filters="sRGB"><feFlood flood-opacity="0" result="BackgroundImageFix"/><feGaussianBlur in="BackgroundImageFix" stdDeviation="1.81"/><feComposite in2="SourceAlpha" operator="in" result="effect1_backgroundBlur_3392_352235"/><feBlend in="SourceGraphic" in2="effect1_backgroundBlur_3392_352235" result="shape"/></filter><filter id="zivhqabtc" x="1086.09" y="58.06" width="149.31" height="131.36" filterUnits="userSpaceOnUse" color-interpolation-filters="sRGB"><feFlood flood-opacity="0" result="BackgroundImageFix"/><feBlend in="SourceGraphic" in2="BackgroundImageFix" result="shape"/><feGaussianBlur stdDeviation="10" result="effect1_foregroundBlur_3392_352235"/></filter><filter id="abivhqabtc" x="799" y="228" width="132" height="132" filterUnits="userSpaceOnUse" color-interpolation-filters="sRGB"><feFlood flood-opacity="0" result="BackgroundImageFix"/><feGaussianBlur in="BackgroundImageFix" stdDeviation="5"/><feComposite in2="SourceAlpha" operator="in" result="effect1_backgroundBlur_3392_352235"/><feColorMatrix in="SourceAlpha" values="0 0 0 0 0 0 0 0 0 0 0 0 0 0 0 0 0 0 127 0" result="hardAlpha"/><feOffset dx="10" dy="4"/><feGaussianBlur stdDeviation="15"/><feComposite in2="hardAlpha" operator="out"/><feColorMatrix values="0 0 0 0 0 0 0 0 0 0 0 0 0 0 0 0 0 0 0.3 0"/><feBlend in2="effect1_backgroundBlur_3392_352235" result="effect2_dropShadow_3392_352235"/><feBlend in="SourceGraphic" in2="effect2_dropShadow_3392_352235" result="shape"/></filter><filter id="aeivhqabtc" x="735" y="88" width="132" height="132" filterUnits="userSpaceOnUse" color-interpolation-filters="sRGB"><feFlood flood-opacity="0" result="BackgroundImageFix"/><feGaussianBlur in="BackgroundImageFix" stdDeviation="5"/><feComposite in2="SourceAlpha" operator="in" result="effect1_backgroundBlur_3392_352235"/><feColorMatrix in="SourceAlpha" values="0 0 0 0 0 0 0 0 0 0 0 0 0 0 0 0 0 0 127 0" result="hardAlpha"/><feOffset dx="10" dy="4"/><feGaussianBlur stdDeviation="15"/><feComposite in2="hardAlpha" operator="out"/><feColorMatrix values="0 0 0 0 0 0 0 0 0 0 0 0 0 0 0 0 0 0 0.3 0"/><feBlend in2="effect1_backgroundBlur_3392_352235" result="effect2_dropShadow_3392_352235"/><feBlend in="SourceGraphic" in2="effect2_dropShadow_3392_352235" result="shape"/></filter><filter id="aiivhqabtc" x="886" y="3" width="132" height="132" filterUnits="userSpaceOnUse" color-interpolation-filters="sRGB"><feFlood flood-opacity="0" result="BackgroundImageFix"/><feGaussianBlur in="BackgroundImageFix" stdDeviation="5"/><feComposite in2="SourceAlpha" operator="in" result="effect1_backgroundBlur_3392_352235"/><feColorMatrix in="SourceAlpha" values="0 0 0 0 0 0 0 0 0 0 0 0 0 0 0 0 0 0 127 0" result="hardAlpha"/><feOffset dx="10" dy="4"/><feGaussianBlur stdDeviation="15"/><feComposite in2="hardAlpha" operator="out"/><feColorMatrix values="0 0 0 0 0 0 0 0 0 0 0 0 0 0 0 0 0 0 0.3 0"/><feBlend in2="effect1_backgroundBlur_3392_352235" result="effect2_dropShadow_3392_352235"/><feBlend in="SourceGraphic" in2="effect2_dropShadow_3392_352235" result="shape"/></filter><clipPath id="aivhqabtc"><path fill="#fff" d="M0 0h1216v375H0z"/></clipPath><clipPath id="yivhqabtc"><rect x="1018.75" y="113" width="150" height="150" rx="28.13" fill="#fff"/></clipPath><clipPath id="acivhqabtc"><rect x="819" y="254" width="72" height="72" rx="36" fill="#fff"/></clipPath><clipPath id="adivhqabtc"><rect x="827" y="262" width="56" height="56" rx="28" fill="#fff"/></clipPath><clipPath id="afivhqabtc"><rect x="755" y="114" width="72" height="72" rx="36" fill="#fff"/></clipPath><clipPath id="agivhqabtc"><rect x="763" y="122" width="56" height="56" rx="28" fill="#fff"/></clipPath><clipPath id="ahivhqabtc"><path fill="#fff" transform="translate(763 122)" d="M0 0h56v56H0z"/></clipPath><clipPath id="ajivhqabtc"><rect x="906" y="29" width="72" height="72" rx="36" fill="#fff"/></clipPath><clipPath id="akivhqabtc"><rect x="914" y="37" width="56" height="56" rx="28" fill="#fff"/></clipPath></defs></svg>