<svg xmlns="http://www.w3.org/2000/svg" width="200" height="60" viewBox="0 0 200 60"><path fill="#fff" d="M137.42 40.24a2.6 2.6 0 0 0 1.58 2.38q.46.2.98.2a3.2 3.2 0 0 0 2.74-1.52l5.92-7.66 5.99 7.8a3 3 0 0 0 2.6 1.38 2.7 2.7 0 0 0 2.77-2.76 3.4 3.4 0 0 0-.84-2.06l-6.87-8.38 6.5-7.9a3.3 3.3 0 0 0 .84-2.14 2.57 2.57 0 0 0-2.55-2.58 3.2 3.2 0 0 0-2.74 1.52l-5.56 7.26-5.59-7.4A3 3 0 0 0 140.6 17a2.7 2.7 0 0 0-2.78 2.75c.05.76.34 1.5.85 2.07l6.5 7.87-6.9 8.4a3.3 3.3 0 0 0-.84 2.15m-19.78 2.35H132a2.5 2.5 0 0 0 2.52-2.46 2.5 2.5 0 0 0-2.52-2.5h-11.58V32.3h9.75a2.5 2.5 0 0 0 2.52-2.47 2.5 2.5 0 0 0-2.52-2.5h-9.75V22.2h11.4a2.48 2.48 0 1 0 0-4.96h-14.17a2.8 2.8 0 0 0-2.82 2.79v19.8a2.77 2.77 0 0 0 2.82 2.78m-21.7-13.05v-7.3h3.88c2.74 0 4.42 1.24 4.42 3.63v.08c0 2.14-1.57 3.58-4.3 3.58zm-5.63 10.47a2.81 2.81 0 0 0 5.63 0v-5.54h3.64l5.76 6.89a3.4 3.4 0 0 0 2.78 1.45 2.6 2.6 0 0 0 2.66-2.58 3.2 3.2 0 0 0-.91-2.14l-4.2-4.71c3.4-1.54 4.48-4.75 4.55-7.73v-.07a8 8 0 0 0-2.47-5.8c-1.68-1.67-4.2-2.58-7.46-2.58h-7.16a2.8 2.8 0 0 0-2.82 2.8zM74.66 43c6.86 0 11.2-3.77 11.2-11.46V19.79a2.81 2.81 0 0 0-5.62 0v11.97c0 4.02-2.08 6.09-5.51 6.09s-5.52-2.14-5.52-6.27V19.79a2.81 2.81 0 0 0-5.62 0v11.93c0 7.47 4.2 11.28 11.07 11.28m-31.85-.4h14.36a2.5 2.5 0 0 0 2.52-2.46 2.5 2.5 0 0 0-2.52-2.5H45.59V32.3h9.75a2.5 2.5 0 0 0 2.52-2.47 2.5 2.5 0 0 0-2.52-2.5H45.6v-5.15H57a2.5 2.5 0 0 0 2.51-2.46 2.5 2.5 0 0 0-2.52-2.5H42.81a2.8 2.8 0 0 0-2.81 2.8v19.8a2.8 2.8 0 0 0 2.81 2.78"/></svg>