<svg xmlns="http://www.w3.org/2000/svg" width="200" height="80" viewBox="0 0 200 80"><path fill="#fff" d="M142.41 51.64a2.9 2.9 0 0 0 2.9 2.91 3.7 3.7 0 0 0 3.1-1.72l6.71-8.67 6.8 8.83a3.4 3.4 0 0 0 2.93 1.56 3.06 3.06 0 0 0 3.15-3.12 4 4 0 0 0-.95-2.34l-7.79-9.5 7.37-8.95c.6-.67.94-1.53.96-2.42a2.9 2.9 0 0 0-2.9-2.92 3.7 3.7 0 0 0-3.1 1.73l-6.3 8.21-6.33-8.38a3.4 3.4 0 0 0-2.95-1.55 3.06 3.06 0 0 0-3.14 3.12c.04.86.38 1.69.95 2.34l7.38 8.92-7.83 9.53c-.6.66-.94 1.52-.95 2.42M120 54.3h16.27a2.8 2.8 0 1 0 0-5.63h-13.13v-6.04h11.06a2.8 2.8 0 0 0 2.85-2.79 2.85 2.85 0 0 0-2.85-2.83h-11.05v-5.84h12.91a2.8 2.8 0 0 0 2.86-2.8 2.85 2.85 0 0 0-2.86-2.82H120a3.16 3.16 0 0 0-3.19 3.16v22.43A3.13 3.13 0 0 0 120 54.3M95.4 39.5v-8.25h4.4c3.1 0 5 1.4 5 4.1v.09c0 2.42-1.77 4.06-4.87 4.06zm-6.37 11.9a3.18 3.18 0 0 0 6.38 0v-6.3h4.12l6.53 7.8a3.8 3.8 0 0 0 3.15 1.65 2.95 2.95 0 0 0 3.02-2.92c-.03-.9-.4-1.77-1.03-2.42l-4.76-5.34c3.84-1.74 5.08-5.38 5.16-8.76v-.08a9.2 9.2 0 0 0-2.8-6.57c-1.91-1.89-4.77-2.92-8.45-2.92h-8.13a3.15 3.15 0 0 0-3.19 3.17zm-17.75 3.37c7.78 0 12.7-4.28 12.7-12.99v-13.3a3.19 3.19 0 0 0-6.37 0v13.55c0 4.56-2.36 6.9-6.25 6.9s-6.25-2.42-6.25-7.1V28.45a3.19 3.19 0 0 0-6.37 0v13.52c0 8.46 4.75 12.78 12.54 12.78m-36.09-.45h16.27a2.8 2.8 0 0 0 2.85-2.8 2.85 2.85 0 0 0-2.85-2.83H38.33v-6.04H49.4a2.8 2.8 0 0 0 2.85-2.8 2.85 2.85 0 0 0-2.85-2.82H38.33v-5.84h12.92a2.8 2.8 0 0 0 2.85-2.8 2.85 2.85 0 0 0-2.85-2.82H35.19A3.15 3.15 0 0 0 32 28.72v22.43a3.15 3.15 0 0 0 3.19 3.16"/></svg>