<svg width="120" height="120" viewBox="0 0 120 120" xmlns="http://www.w3.org/2000/svg"><path fill-rule="evenodd" d="M77.5 28a4.5 4.5 0 1 0 0 9 4.5 4.5 0 0 0 0-9Zm-7.53.55A8.5 8.5 0 1 1 69 32.5v-.07l-9.77-2.66-4.97 11.38c9.69.7 18.38 3.96 24.6 8.9A15.4 15.4 0 0 1 92.44 42c8.59 0 15.55 6.89 15.55 15.38 0 8.5-6.96 15.62-15.55 15.62h-4.62c-1.67 6.36-6.43 11.79-12.88 15.64C68.26 92.63 59.62 95 50.25 95c-10.38 0-19.85-2.9-26.78-7.69C16.54 82.53 12 75.73 12 68c0-2.99.68-5.84 1.91-8.49A11.32 11.32 0 0 1 12 53.2C12 47.05 16.85 42 22.93 42c2.86 0 5.44 1.12 7.38 2.93A50.63 50.63 0 0 1 49.95 41l7-16 13.02 3.55ZM83.64 73H70l7-8.2v-7.42c0-1.16.13-2.29.37-3.38-6.2-5.43-15.98-9.04-27.13-9.04-9.64 0-18.28 2.7-24.46 6.97-6.19 4.27-9.76 9.98-9.76 16.07s3.57 11.8 9.76 16.07c6.18 4.27 14.82 6.97 24.46 6.97 8.72 0 16.62-2.21 22.63-5.8 5.43-3.23 9.2-7.52 10.77-12.24ZM26.3 46.92c-1-.58-2.15-.9-3.37-.9A7.05 7.05 0 0 0 16 53.19c0 .79.12 1.55.35 2.25a30.14 30.14 0 0 1 7.12-6.75c.9-.63 1.84-1.22 2.83-1.77ZM37 67a3 3 0 1 0 0-6 3 3 0 0 0 0 6Zm0 4a7 7 0 1 0 0-14 7 7 0 0 0 0 14Zm29-7a3 3 0 1 1-6 0 3 3 0 0 1 6 0Zm4 0a7 7 0 1 1-14 0 7 7 0 0 1 14 0Zm-5.5 14.2c-9.03 6.86-20.12 5.89-29 .09L37.68 75c7.79 5.1 17 5.7 24.42.08l2.4 3.13ZM81 57.39v8.9L78.67 69h13.78C98.79 69 104 63.7 104 57.38 104 51.14 98.87 46 92.45 46 86.05 46 81 51.1 81 57.38Z" fill="#D1D4DC"/></svg>