<svg xmlns="http://www.w3.org/2000/svg" width="200" height="60" viewBox="0 0 200 60"><path fill="#fff" d="M109.1 24.08c0-3.97.06-7.66.27-11.08l-10.5 1.99v.95l1.03.14q1.11.12 1.5.75c.28.48.49 1.17.62 2.2.14 1.98.28 6.49.21 13.6 0 7.05-.07 11.5-.2 13.2q4.4 1.05 8.92 1.17 6.18.01 9.68-3.56c2.33-2.32 3.57-5.6 3.57-9.65q0-4.82-2.68-8a8.4 8.4 0 0 0-6.72-3.14c-1.8 0-3.64.48-5.7 1.43m.2 21.08c-.14-2.2-.28-8.77-.28-19.5q1.21-.37 2.48-.35 2.47-.02 3.91 2.53a12.7 12.7 0 0 1 1.44 6.37c0 3.2-.54 5.81-1.65 8q-1.63 3.2-4.18 3.21c-.56-.13-1.1-.2-1.72-.27M59.46 13.68H32v1.36l1.44.14q1.63.3 2.34 1.23.71 1.03.82 3.29c.55 7.39.55 14.3 0 20.65a8 8 0 0 1-.82 3.29q-.7 1.02-2.34 1.23l-1.44.2v1.37h17.71v-1.37l-1.85-.13a3.4 3.4 0 0 1-2.34-1.24q-.72-1.02-.82-3.27-.32-4.13-.34-9.38l3.7.08q3.01.07 4.06 4.57h1.37V24.56h-1.37c-.69 2.94-2 4.45-4.06 4.52l-3.7.07q.01-9.23.34-13.2h5.43c3.84 0 6.45 2.46 7.96 7.38l1.64-.47zm-3.22 21.07q.01 5.33 3.01 8.83c2 2.32 4.95 3.42 8.66 3.42s6.73-1.17 8.92-3.57c2.2-2.32 3.23-5.26 3.23-8.83q-.02-5.33-3.02-8.82c-2-2.32-4.95-3.42-8.66-3.42s-6.72 1.16-8.92 3.56c-2.2 2.33-3.22 5.27-3.22 8.83m15.3-7.8c.83 1.98 1.17 4.58 1.17 7.73 0 7.25-1.52 10.81-4.47 10.81q-2.25 0-3.5-3.08c-.82-2.06-1.16-4.66-1.16-7.73 0-7.19 1.52-10.74 4.46-10.74q2.27-.09 3.5 3zm58.02 16.63a11.7 11.7 0 0 0 8.58 3.42q3.16.01 5.63-1.3c1.5-.71 2.82-1.77 3.83-3.09l-.68-.82a8.2 8.2 0 0 1-5.21 1.71q-4.14.02-6.32-2.73c-1.52-1.86-2.2-4.18-2.06-7.18h14.69q.02-4.92-2.54-8.08-2.58-3.08-7.2-3.08c-3.85 0-6.8 1.24-8.93 3.63q-3.18 3.58-3.16 8.83-.02 5.3 3.37 8.68m5.07-17.19c.76-1.63 1.72-2.45 3.02-2.45q3.09-.02 3.09 7.87l-7.27.13c.06-2.05.4-3.9 1.16-5.54m31.85-2.72a17 17 0 0 0-7-1.3q-4.3.02-6.86 2.18a6.8 6.8 0 0 0-2.61 5.34c0 1.84.56 3.28 1.58 4.3 1.03 1.04 2.68 1.92 4.8 2.67 1.93.69 3.3 1.37 3.99 2a3.3 3.3 0 0 1 1.1 2.46 3.3 3.3 0 0 1-1.1 2.53q-1.03 1.1-2.88 1.09c-3.03 0-5.29-2.2-6.87-6.57l-1.17.35.28 6.84q3.71 1.43 8.23 1.43c3.16 0 5.57-.69 7.35-2.12 1.79-1.37 2.68-3.35 2.68-5.81q.02-2.5-1.3-4.04c-.9-1.03-2.34-1.91-4.4-2.74q-3.42-1.23-4.67-2.26a3.1 3.1 0 0 1-1.24-2.53c-.04-.92.28-1.83.9-2.53a3 3 0 0 1 2.33-.95c2.74 0 4.74 1.99 5.98 5.88l1.16-.35zm-66.04-.62q-1.42-.7-3.15-.69c-1.17 0-2.34.48-3.64 1.43a9.3 9.3 0 0 0-3.03 4.04l.08-5.47-10.44 2.05v.96l1.03.08q1.97.21 2.2 3 .61 6.36 0 13.54c-.14 1.86-.9 2.81-2.2 3.02l-1.04.13v1.3h14.57v-1.3L92.96 45c-1.3-.14-2.06-1.16-2.2-3.02q-.63-6.28-.14-12.58.63-1.03 2.69-1.23a8 8 0 0 1 4.6 1.23z"/></svg>