<svg width="230" height="100" viewBox="0 0 230 100" xmlns="http://www.w3.org/2000/svg"><path d="M126.44 42.65c0-4.99.08-9.63.34-13.93l-13.16 2.5v1.2l1.3.17c.94.09 1.54.43 1.89.95.34.6.6 1.46.77 2.75.17 2.5.34 8.17.26 17.11 0 8.86-.09 14.45-.26 16.6a54.34 54.34 0 0 0 11.18 1.46c5.16 0 9.2-1.46 12.13-4.47 2.92-2.92 4.47-7.05 4.47-12.13 0-4.04-1.12-7.4-3.36-10.06a10.54 10.54 0 0 0-8.42-3.95c-2.24 0-4.56.6-7.14 1.8Zm.26 26.5c-.18-2.76-.35-11.02-.35-24.52a9.9 9.9 0 0 1 3.1-.43c2.06 0 3.7 1.03 4.9 3.18 1.2 2.15 1.8 4.73 1.8 8 0 4.04-.68 7.31-2.06 10.06-1.37 2.67-3.1 4.04-5.24 4.04-.7-.17-1.38-.25-2.15-.34ZM64.26 29.57h-34.4v1.72l1.8.17c1.38.26 2.33.78 2.93 1.55.6.86.95 2.24 1.03 4.13.69 9.29.69 17.97 0 25.97-.17 1.9-.51 3.27-1.03 4.13-.6.86-1.55 1.37-2.92 1.55l-1.81.25v1.72h22.19v-1.72l-2.32-.17a4.22 4.22 0 0 1-2.93-1.55c-.6-.86-.94-2.23-1.03-4.12-.26-3.44-.43-7.4-.43-11.79l4.64.1c2.5.08 4.22 1.97 5.08 5.75h1.72V43.25h-1.72c-.86 3.7-2.5 5.6-5.08 5.68l-4.64.09c0-7.74.17-13.25.43-16.6h6.8c4.81 0 8.08 3.1 9.97 9.29l2.06-.6-.34-11.53Zm-4.04 26.49c0 4.47 1.29 8.17 3.78 11.1 2.5 2.92 6.2 4.3 10.84 4.3s8.43-1.47 11.18-4.48c2.75-2.92 4.04-6.62 4.04-11.1 0-4.47-1.29-8.16-3.78-11.09-2.5-2.92-6.2-4.3-10.84-4.3s-8.43 1.46-11.18 4.47c-2.75 2.93-4.04 6.63-4.04 11.1Zm19.18-9.8c1.03 2.49 1.46 5.76 1.46 9.71 0 9.12-1.9 13.6-5.6 13.6-1.88 0-3.35-1.3-4.38-3.88-1.03-2.58-1.46-5.85-1.46-9.72 0-9.03 1.9-13.5 5.59-13.5 1.9-.09 3.35 1.2 4.39 3.78Zm72.67 20.9a14.65 14.65 0 0 0 10.75 4.3c2.66 0 4.98-.52 7.05-1.64a12.95 12.95 0 0 0 4.81-3.87l-.86-1.03a10.3 10.3 0 0 1-6.53 2.15c-3.44 0-6.1-1.12-7.91-3.44-1.9-2.33-2.76-5.25-2.58-9.03h18.4c0-4.13-1.03-7.49-3.18-10.15-2.15-2.58-5.16-3.87-9.03-3.87-4.82 0-8.52 1.55-11.18 4.56-2.67 3-3.96 6.7-3.96 11.1 0 4.46 1.38 8.07 4.22 10.91Zm6.36-21.6c.95-2.06 2.15-3.09 3.78-3.09 2.58 0 3.87 3.27 3.87 9.9l-9.11.16c.08-2.58.51-4.9 1.46-6.96Zm39.9-3.43a21.57 21.57 0 0 0-8.77-1.64c-3.61 0-6.45.95-8.6 2.75a8.47 8.47 0 0 0-3.27 6.71c0 2.32.7 4.13 1.98 5.42 1.3 1.3 3.36 2.4 6.02 3.35 2.41.86 4.13 1.72 4.99 2.5.86.86 1.38 1.8 1.38 3.1 0 1.2-.43 2.32-1.38 3.18-.86.94-2.06 1.37-3.61 1.37-3.79 0-6.62-2.75-8.6-8.25l-1.46.43.34 8.6c3.1 1.2 6.54 1.8 10.32 1.8 3.96 0 6.97-.86 9.2-2.66 2.24-1.72 3.36-4.22 3.36-7.31 0-2.07-.52-3.79-1.64-5.08-1.12-1.29-2.92-2.4-5.5-3.44-2.84-1.03-4.82-1.98-5.85-2.84a3.95 3.95 0 0 1-1.55-3.18 4.5 4.5 0 0 1 1.12-3.18 3.65 3.65 0 0 1 2.92-1.2c3.44 0 5.94 2.5 7.49 7.4l1.46-.44-.35-7.4Zm-82.73-.78c-1.2-.6-2.5-.86-3.95-.86-1.47 0-2.93.6-4.56 1.8a11.62 11.62 0 0 0-3.79 5.08l.09-6.88-13.07 2.58v1.2l1.29.1c1.63.16 2.58 1.45 2.75 3.78.52 5.33.52 11 0 17.02-.17 2.33-1.12 3.53-2.75 3.79l-1.3.17v1.63h18.24v-1.63l-2.32-.17c-1.64-.17-2.58-1.46-2.75-3.79a87.85 87.85 0 0 1-.18-15.82c.52-.86 1.64-1.38 3.36-1.55 1.72-.17 3.7.35 5.76 1.55l3.18-8Z" fill="#fff"/></svg>