<svg xmlns="http://www.w3.org/2000/svg" width="200" height="80" viewBox="0 0 200 80"><path fill="#fff" d="M110.17 33.38c0-4.43.07-8.56.3-12.38l-11.74 2.22v1.07l1.16.15c.84.08 1.37.38 1.69.84.3.54.53 1.3.68 2.45.15 2.22.3 7.26.23 15.21 0 7.88-.08 12.85-.23 14.76q4.91 1.15 9.98 1.3c4.6 0 8.2-1.3 10.82-3.98 2.6-2.6 3.99-6.27 3.99-10.78q0-5.4-3-8.94a9.4 9.4 0 0 0-7.51-3.52c-2 0-4.07.54-6.37 1.6m.23 23.56c-.16-2.45-.31-9.8-.31-21.8q1.36-.4 2.76-.38 2.76-.02 4.37 2.83c1.07 1.91 1.6 4.2 1.6 7.11 0 3.6-.6 6.5-1.83 8.94q-1.82 3.59-4.67 3.6c-.63-.16-1.23-.23-1.92-.3M54.7 21.76H24v1.52l1.6.16c1.24.23 2.08.69 2.62 1.37q.81 1.16.92 3.68.92 12.4 0 23.08-.23 2.54-.92 3.67-.79 1.15-2.6 1.38l-1.62.22v1.53h19.8v-1.53l-2.07-.15a3.8 3.8 0 0 1-2.62-1.37q-.8-1.15-.92-3.67-.36-4.61-.38-10.48l4.14.09c2.23.07 3.77 1.75 4.53 5.11h1.54V33.92h-1.54c-.76 3.29-2.23 4.98-4.53 5.05l-4.14.08q.02-10.3.38-14.76h6.07c4.3 0 7.21 2.76 8.9 8.26l1.83-.54zM51.08 45.3q.02 5.96 3.37 9.86c2.23 2.6 5.53 3.83 9.67 3.83s7.52-1.31 9.97-3.99c2.46-2.6 3.6-5.88 3.6-9.86q-.02-5.96-3.36-9.86c-2.23-2.6-5.53-3.83-9.67-3.83s-7.53 1.3-9.98 3.98c-2.45 2.6-3.6 5.9-3.6 9.87m17.1-8.72c.93 2.22 1.31 5.12 1.31 8.64 0 8.1-1.7 12.09-5 12.09q-2.51 0-3.9-3.45c-.92-2.3-1.3-5.2-1.3-8.64 0-8.03 1.69-12 4.98-12 1.7-.09 2.99 1.06 3.92 3.35zm64.84 18.58a13 13 0 0 0 9.6 3.83q3.54.01 6.28-1.46a11.6 11.6 0 0 0 4.3-3.44l-.77-.92a9.2 9.2 0 0 1-5.83 1.91q-4.62.01-7.06-3.06c-1.7-2.07-2.46-4.66-2.3-8.02h16.42q.02-5.49-2.84-9.03-2.87-3.44-8.06-3.44-6.43.02-9.97 4.06-3.55 3.99-3.53 9.87-.02 5.92 3.76 9.7m5.68-19.2c.84-1.83 1.91-2.75 3.37-2.75q3.45-.02 3.45 8.8l-8.13.15a16 16 0 0 1 1.3-6.19m35.6-3.05a19 19 0 0 0-7.83-1.46c-3.22 0-5.75.85-7.67 2.45a7.5 7.5 0 0 0-2.92 5.96c0 2.07.63 3.67 1.77 4.82 1.16 1.16 3 2.14 5.37 2.98 2.15.76 3.68 1.53 4.45 2.22a3.7 3.7 0 0 1 1.23 2.76 3.7 3.7 0 0 1-1.23 2.83q-1.15 1.23-3.22 1.21c-3.38 0-5.9-2.44-7.67-7.33l-1.3.38.3 7.65a25 25 0 0 0 9.2 1.6c3.54 0 6.22-.77 8.21-2.37 2-1.53 3-3.75 3-6.5 0-1.84-.46-3.37-1.46-4.51-1-1.15-2.6-2.14-4.91-3.06-2.53-.92-4.3-1.76-5.22-2.53a3.5 3.5 0 0 1-1.38-2.82 4 4 0 0 1 1-2.83 3.3 3.3 0 0 1 2.6-1.07c3.07 0 5.3 2.23 6.69 6.58l1.3-.39zm-73.81-.7a8 8 0 0 0-3.53-.76c-1.31 0-2.61.54-4.07 1.6a10.3 10.3 0 0 0-3.38 4.52l.08-6.12-11.66 2.3v1.06l1.15.1c1.46.13 2.3 1.28 2.46 3.35q.69 7.1 0 15.13c-.16 2.08-1 3.14-2.46 3.37l-1.16.15v1.45h16.28v-1.45l-2.07-.15q-2.21-.24-2.46-3.37a78 78 0 0 1-.16-14.06q.7-1.15 3-1.38c1.53-.15 3.3.31 5.14 1.38z"/></svg>