<svg xmlns="http://www.w3.org/2000/svg" width="132" height="60" viewBox="0 0 132 60"><path fill="#fff" d="M10 21.38h12.92v3.95H14.5v2.74h7.63v3.74H14.5v5.78H10zm42.25 0c2.46 0 4.19.66 5.27 1.76a5 5 0 0 1 1.42 3.76v.05a5.2 5.2 0 0 1-3.32 4.99l3.86 5.65H54.3l-3.25-4.91h-1.98v4.9H44.6v-16.2zm-.2 7.78c1.52 0 2.4-.74 2.4-1.93v-.05c0-1.28-.91-1.94-2.43-1.94H49.1v3.9h2.96zm9.18-7.78h13v3.82h-8.57v2.47h7.75v3.53h-7.75v2.58h8.67v3.8h-13.1zm20.12 7.97-5.33-7.97h5.15l2.87 4.56 2.88-4.56h5.02l-5.3 7.92 5.56 8.3h-5.15l-3.1-4.9-3.1 4.89H75.8zm15.23.56a3.4 3.4 0 0 1 3.45-3.42c1.31 0 2.2.6 2.76 1.46l-1.55 1.14c-.3-.43-.66-.68-1.19-.68-.74 0-1.26.63-1.26 1.42v.02c0 .85.53 1.48 1.29 1.48.53 0 .89-.26 1.24-.66l1.52 1.1a3.2 3.2 0 0 1-2.86 1.47 3.3 3.3 0 0 1-3.4-3.33m6.85 0a3.46 3.46 0 0 1 3.57-3.42 3.4 3.4 0 0 1 3.55 3.36v.03c0 1.83-1.5 3.38-3.58 3.38-2.05 0-3.55-1.52-3.55-3.36m4.91 0c0-.82-.58-1.48-1.37-1.48-.81 0-1.34.66-1.34 1.42v.03c0 .79.58 1.45 1.36 1.45.84 0 1.35-.66 1.35-1.42m3.27-3.29h2.25v.9a2.4 2.4 0 0 1 1.93-1.03c.86 0 1.52.39 1.85 1.05a2.7 2.7 0 0 1 2.16-1.05c1.37 0 2.2.87 2.2 2.38v4.25h-2.25v-3.55c0-.7-.36-1.06-.9-1.06-.52 0-.92.38-.92 1.06v3.51h-2.24v-3.5c0-.71-.34-1.07-.88-1.07-.53 0-.91.38-.91 1.06v3.51h-2.26v-6.46z"/><path fill="#0AB45B" d="M24.2 29.55c0-5.19 3.24-8.55 8.26-8.55 5.14 0 8.28 3.26 8.28 8.45 0 5.21-3.27 8.55-8.3 8.55-5.12.02-8.26-3.2-8.26-8.45zm11.78-.05c0-3.43-1.01-6.16-3.6-6.16-2.61.03-3.42 2.75-3.42 6.16 0 3.4 1.01 6.15 3.6 6.15 2.6 0 3.42-2.72 3.42-6.15"/><path fill="#0AB45B" d="M42.75 30.44h-9.53l-.53 1.48h9.52zm.4-2.95h-9.53l-.5 1.47h9.53z"/><path fill="#fff" d="M93.44 31.89c0-.33.12-.58.36-.84q.33-.35.83-.35t.84.35.35.84q-.01.5-.35.84-.35.34-.84.33-.49 0-.83-.33-.38-.3-.36-.84"/></svg>