<svg width="56" height="56" viewBox="0 0 56 56" xmlns="http://www.w3.org/2000/svg"><rect width="56" height="56" rx="8" fill="#14964F"/><path fill-rule="evenodd" d="M11 28.08C11 18.92 17.16 13 26.69 13c8.47 0 14.09 4.32 15.43 11.44H47l-.96 2.6H42.4a20.31 20.31 0 0 1-.06 2.61h3.88l-1.01 2.6h-3.3c-1.68 6.66-7.3 10.73-15.23 10.73-9.72.05-15.69-5.65-15.69-14.9Zm22.13-3.64H28.9l-.96 2.6h5.42a27.36 27.36 0 0 1-.02 2.61h-5.2l-1.02 2.6h5.94c-.67 3.9-2.46 6.6-6.18 6.6-4.9 0-6.83-4.85-6.83-10.86s1.54-10.82 6.5-10.86c3.9 0 5.91 3.03 6.58 7.31Z" fill="#fff"/></svg>