<svg xmlns="http://www.w3.org/2000/svg" width="132" height="60" viewBox="0 0 132 60"><path fill="#fff" d="M110.8 16v27H122v-4.5h-6.59v-7.07h4.61v-4.5h-4.6V20.5H122V16zm-9.88 0v14.72L96.29 16h-4.6v27h4.62V29.77L100.44 43h5.09V16zm-17.8 0v20.74c0 .96-.95 1.75-1.97 1.75-1.01 0-1.97-.79-1.97-1.75V16h-4.62v20.74a6.2 6.2 0 0 0 1.97 4.46 6.5 6.5 0 0 0 4.62 1.8c3.64 0 6.6-2.8 6.6-6.26V16zm-12.5 0H57.43v4.5h4.28V43h4.6V20.5h4.3zM54.8 43h-4.68l-3.35-12.83s3.42-.51 3.42-3.6v-4.23c0-.98-1.33-1.84-2.3-1.84h-1.65V43h-4.62V16h6.28a6.5 6.5 0 0 1 4.41 1.8 6.2 6.2 0 0 1 1.94 4.26v4.42c0 2.67-.95 4.58-2.53 5.81zM23.84 22.17v14.66c0 3.4 2.95 6.17 6.58 6.17 3.64 0 6.6-2.76 6.6-6.17V22.17c0-3.4-2.95-6.17-6.6-6.17-3.63 0-6.58 2.76-6.58 6.17m4.6 14.66V22.17c0-.95.97-1.67 1.98-1.67 1.02 0 1.98.74 1.98 1.67v14.66c0 2.22-3.95 2.22-3.95 0M10 16v27h4.61V30.79h4.61v-3.86h-4.6V20.5h6.58V16z"/></svg>