<svg xmlns="http://www.w3.org/2000/svg" width="124" height="30" fill="none"><g clip-path="url(#aedsonimc)"><path stroke="url(#bedsonimc)" stroke-width="4" d="M3.39 32.23c67.78-3.32 136.2 3.61 161.94 7.5l-8.02-29.54C108.57-2.26 28.65-1.46-5.22.5z" opacity=".2"/><path stroke="url(#cedsonimc)" stroke-width="3" d="M3.39 32.23c67.78-3.32 136.2 3.61 161.94 7.5l-8.02-29.54C108.57-2.26 28.65-1.46-5.22.5z" opacity=".2"/><path stroke="url(#dedsonimc)" stroke-width="2" d="M3.39 32.23c67.78-3.32 136.2 3.61 161.94 7.5l-8.02-29.54C108.57-2.26 28.65-1.46-5.22.5z" opacity=".2"/><path stroke="url(#eedsonimc)" d="M3.39 32.23c67.78-3.32 136.2 3.61 161.94 7.5l-8.02-29.54C108.57-2.26 28.65-1.46-5.22.5z" opacity=".2"/><path stroke="url(#fedsonimc)" stroke-width="4" d="M-12.6 26.82c67.8-3.23 135.94 2.65 161.53 6l-4.26-15.7C96.36 6.27 16.5 7.32-17.39 9.2z" opacity=".2"/><path stroke="url(#gedsonimc)" stroke-width="3" d="M-12.6 26.82c67.8-3.23 135.94 2.65 161.53 6l-4.26-15.7C96.36 6.27 16.5 7.32-17.39 9.2z" opacity=".2"/><path stroke="url(#hedsonimc)" stroke-width="2" d="M-12.6 26.82c67.8-3.23 135.94 2.65 161.53 6l-4.26-15.7C96.36 6.27 16.5 7.32-17.39 9.2z" opacity=".2"/><path stroke="url(#iedsonimc)" d="M-12.6 26.82c67.8-3.23 135.94 2.65 161.53 6l-4.26-15.7C96.36 6.27 16.5 7.32-17.39 9.2z" opacity=".2"/></g><defs><linearGradient id="bedsonimc" x1="150.4" x2="30.23" y1="17.41" y2="50.02" gradientUnits="userSpaceOnUse"><stop stop-color="#FF9457"/><stop offset="1" stop-color="#2400FF" stop-opacity="0"/></linearGradient><linearGradient id="cedsonimc" x1="150.4" x2="30.23" y1="17.41" y2="50.02" gradientUnits="userSpaceOnUse"><stop stop-color="#FF9457"/><stop offset="1" stop-color="#2400FF" stop-opacity="0"/></linearGradient><linearGradient id="dedsonimc" x1="150.4" x2="30.23" y1="17.41" y2="50.02" gradientUnits="userSpaceOnUse"><stop stop-color="#FF9457"/><stop offset="1" stop-color="#2400FF" stop-opacity="0"/></linearGradient><linearGradient id="eedsonimc" x1="150.4" x2="30.23" y1="17.41" y2="50.02" gradientUnits="userSpaceOnUse"><stop stop-color="#FF9457"/><stop offset="1" stop-color="#2400FF" stop-opacity="0"/></linearGradient><linearGradient id="fedsonimc" x1="135.41" x2="16.13" y1="18.33" y2="50.7" gradientUnits="userSpaceOnUse"><stop stop-color="#2400FF" stop-opacity="0"/><stop offset="1" stop-color="#FF9457"/></linearGradient><linearGradient id="gedsonimc" x1="135.41" x2="16.13" y1="18.33" y2="50.7" gradientUnits="userSpaceOnUse"><stop stop-color="#2400FF" stop-opacity="0"/><stop offset="1" stop-color="#FF9457"/></linearGradient><linearGradient id="hedsonimc" x1="135.41" x2="16.13" y1="18.33" y2="50.7" gradientUnits="userSpaceOnUse"><stop stop-color="#2400FF" stop-opacity="0"/><stop offset="1" stop-color="#FF9457"/></linearGradient><linearGradient id="iedsonimc" x1="135.41" x2="16.13" y1="18.33" y2="50.7" gradientUnits="userSpaceOnUse"><stop stop-color="#2400FF" stop-opacity="0"/><stop offset="1" stop-color="#FF9457"/></linearGradient></defs></svg>