<svg width="56" height="56" viewBox="0 0 56 56" xmlns="http://www.w3.org/2000/svg"><rect width="56" height="56" rx="8" fill="#0C51A3"/><path d="M26.62 43.94c-4-.3-7.9-1.98-10.82-4.65-.92-.85-1.85-1.9-1.83-2.06.01-.13 13.24-14.06 13.34-14.06v11.3H44c.09.08-.68 1.45-1.3 2.3-.71.99-1.4 1.75-2.26 2.55a18.33 18.33 0 0 1-13.81 4.62Zm2.54-11.3V21.98H12c-.04-.12 1-1.96 1.52-2.69a17.7 17.7 0 0 1 11.77-7.06c4.74-.72 9.5.36 13.37 3.05 1.21.84 2.92 2.46 3.7 3.52.13.18.24.35.24.38L29.16 32.68v-.03Z" fill="#fff"/></svg>