<svg xmlns="http://www.w3.org/2000/svg" width="200" height="60" viewBox="0 0 200 60"><path fill="#427CD9" d="M47.94 48.93a19 19 0 0 1-11.8-5.53c-1.01-1.01-2.02-2.25-2-2.45.03-.15 14.44-16.68 14.55-16.68v13.42h18.19c.08.08-.76 1.71-1.42 2.72a19 19 0 0 1-17.52 8.52m25.58-10.77-.01-8.3c-.02-9.33-.02-8.6.47-9.7.4-.93 1.1-1.7 2-2.14.5-.24.71-.35 1.64-.39h15.7v4.77l-11.45.05q-.74-.03-1.42.26c-.36.16-.56.34-.74.68a1 1 0 0 0-.1.37v1.65h13.71v5.01l-13.72.05v7.68h-6.1zm66.29 0c-.02-.05-.03-3.57-.02-8l.02-8.07.18-.66c.52-1.92 1.61-3.24 3.1-3.76l.43-.04h20.68l.47.04c1.7.54 3 2.39 3.27 4.7.05.45.07 2.81.05 8.3l-.01 7.5h-5.83c-.01-4.63.03-9.25 0-13.87l-.2-.37a3 3 0 0 0-2.33-1.56c-.28-.03-.9-.02-1.45-.02h-1.2v15.81h-5.94v-15.8h-1.6c-1.24 0-1.4 0-1.78.13-.8.28-1.33.82-1.7 1.49l-.18.32c-.03 4.62.01 9.24 0 13.86zm-45.63 0c2.45-3.68 4.35-6.46 7.02-10.4l-7-10.13h6.18l4.93 6.94 4.9-6.94h5.9l-6.83 10.16 7.02 10.37h-6.07l-4.97-7.25-5.07 7.25zm25.7 0a4.2 4.2 0 0 1-3.24-3.19c-.14-.7-.13-13.42.01-14.13a4.2 4.2 0 0 1 2.77-3.2h15.52a4.2 4.2 0 0 1 2.78 2.23c.34.7.38 1 .41 2.7.03 1.45.02 1.53-.08 1.62h-5.03c0-.2-.34-.82-.64-1.1s-.41-.46-.99-.52h-7.65l-.3.12c-.49.24-.81.56-1.05 1.04l-.21.43v7.68l.17.37q.31.72 1.02 1.09l.37.17h7.8l.31-.15a2.2 2.2 0 0 0 1.2-1.73q.04-.3.14-.4h4.87c.09.1.1.3.07 1.89-.03 1.95-.06 2.12-.47 2.96a4.4 4.4 0 0 1-2.54 2.12zM50.7 35.52v-12.7H32a19.1 19.1 0 0 1 14.48-11.57 18.9 18.9 0 0 1 18.87 8.25L50.7 35.56z"/></svg>