<svg xmlns="http://www.w3.org/2000/svg" width="132" height="60" viewBox="0 0 132 60"><path fill="#427CD9" d="M23.13 44.94a15.8 15.8 0 0 1-9.71-4.5 9 9 0 0 1-1.66-2 838 838 0 0 1 11.98-13.62v10.95h14.98c.07.07-.62 1.4-1.17 2.22a15.8 15.8 0 0 1-14.43 6.95m21.07-8.78-.02-6.77c-.01-7.61-.01-7.02.4-7.91.31-.76.9-1.39 1.65-1.76.4-.2.58-.27 1.34-.3H60.5v3.88l-9.43.04q-.6-.03-1.17.21c-.3.13-.46.28-.6.56a1 1 0 0 0-.1.3v1.34h11.3v4.1l-11.3.04v6.26h-5.02zm54.58 0c-.01-.04-.02-2.92-.01-6.54l.01-6.57.15-.54c.43-1.57 1.33-2.64 2.56-3.06l.35-.04h17.03l.39.04c1.4.43 2.46 1.94 2.7 3.83.04.36.05 2.3.04 6.77l-.02 6.1h-4.8c0-3.77.03-7.53 0-11.3l-.17-.3a2.5 2.5 0 0 0-1.91-1.27c-.23-.03-.73-.02-1.2-.02h-.98v12.9h-4.9v-12.9h-1.3c-1.03 0-1.16 0-1.48.11-.66.23-1.1.68-1.4 1.22l-.15.26c-.02 3.77.01 7.53 0 11.3zm-37.57 0c2.02-3 3.58-5.27 5.78-8.5l-5.77-8.25h5.1l4.06 5.66 4.03-5.66h4.86l-5.62 8.28 5.77 8.47h-5l-4.09-5.92-4.18 5.92zm21.16 0a3.5 3.5 0 0 1-2.66-2.6c-.12-.58-.11-10.95 0-11.53A3.4 3.4 0 0 1 82 19.4h12.78a3.4 3.4 0 0 1 2.3 1.83c.27.56.3.81.33 2.2.02 1.18.02 1.24-.07 1.32H93.2c0-.17-.27-.67-.53-.9-.24-.23-.33-.37-.8-.42h-6.3l-.26.1c-.4.2-.66.46-.86.85l-.18.35V31l.14.3q.27.6.84.89l.31.14h6.43l.25-.12a1.8 1.8 0 0 0 1-1.41q.02-.25.1-.32h4.01c.08.07.08.24.06 1.53-.02 1.6-.05 1.73-.39 2.42a3.6 3.6 0 0 1-2.08 1.73zM25.4 34V23.64H10a15.8 15.8 0 0 1 11.93-9.44 15.7 15.7 0 0 1 15.54 6.74L25.4 34.04z"/></svg>