<svg xmlns="http://www.w3.org/2000/svg" width="200" height="60" viewBox="0 0 200 60"><path fill="#F1881D" d="M162.9 18.03v27.93h-5.12V18.03h-5.14v-4H168v4zm-27.94 27.93V14.04h15.34v3.99h-10.23v9.3h6.4v4h-6.38L140.07 42h10.23v3.96zm-17.86 0V14.04h15.33v3.99h-10.22v9.3h6.4v4h-6.4V42h10.22v3.96zm-8.42-31.92q5.67 0 5.67 5.47v7.86q0 4.18-2.93 5.3l3.45 13.3h-4.7l-3.24-12.89h-2.8v12.88H99V14.04h-.02zm-1.5 15.38c1.49 0 2.07-.75 2.07-2.3v-6.96c0-1.53-.57-2.13-2.05-2.13h-3.1v11.39zm-15.44-11.4v27.94H86.6V18.03h-5.1v-4h15.34v4h-5.12zm-16.87 4 .02-2.19c.01-1.28-.67-1.8-2.14-1.82h-.77q-2.15-.03-2.14 1.89l-.04 5.07c0 .6.07 1.12.38 1.32q.4.3 1.35.81l4.76 2.23c1.03.5 1.8.9 2.23 1.19q.66.41 1.01 1.04.36.6.34 2.3l-.05 6.81q-.06 5.4-6.14 5.33l-3.1-.04q-6.05-.05-5.99-5.94v-2.1l5.06.04.02 2.2c-.02 1.23.7 1.81 2.2 1.84h.9c1.33 0 1.95-.5 1.96-1.75l.05-5.43c0-.6-.09-.98-.37-1.18q-.65-.45-1.36-.82l-4.76-2.35q-1.57-.73-2.27-1.21A2.6 2.6 0 0 1 65 27.98a5 5 0 0 1-.3-2.03l.05-6.54q.03-5.47 6.07-5.4l3.15.02q6.05.05 6.02 5.53l-.01 2.5z"/><path fill="#fff" d="M62.8 45.67h-4.63L55.5 33.62h-.09l-3.23 12.05h-4.41l4.51-16.02L47.75 14h4.66l2.99 11.68h.1L58.48 14h4.4l-4.24 15.65zM43.35 27.2v4.03h-6.3v14.44H32V14h13.12l1.14 3.94h-9.22v9.26z"/></svg>