<svg xmlns="http://www.w3.org/2000/svg" width="132" height="60" viewBox="0 0 132 60"><path fill="#F1881D" d="M116.87 20.27v22.7h-4.14v-22.7h-4.15v-3.24H121v3.24zm-22.6 22.7V17.03h12.41v3.24h-8.27v7.57h5.18v3.25h-5.17v8.65h8.26v3.22h-12.4m-14.44 0V17.03h12.4v3.24h-8.27v7.57h5.17v3.25h-5.17v8.65h8.27v3.22zm-6.8-25.94q4.58 0 4.58 4.45v6.39q0 3.39-2.38 4.3l2.8 10.8h-3.8L71.6 32.5h-2.26v10.46H65.2V17.03h-.02zm-1.22 12.5c1.2 0 1.67-.6 1.67-1.86V22c0-1.24-.46-1.73-1.65-1.73h-2.51v9.26zm-12.5-9.26v22.7h-4.14v-22.7h-4.13v-3.24h12.4v3.24zM45.68 23.5l.02-1.77c.01-1.05-.54-1.47-1.73-1.48h-.62q-1.75-.02-1.74 1.53l-.03 4.13c0 .48.06.9.3 1.06q.34.26 1.1.67l3.85 1.8q1.27.61 1.8.97.55.33.82.85.3.48.28 1.87l-.04 5.53q-.04 4.38-4.97 4.33l-2.5-.03q-4.9-.05-4.85-4.83v-1.71l4.09.04.02 1.78q-.03 1.48 1.78 1.5h.72c1.08 0 1.58-.4 1.59-1.42l.04-4.42c0-.48-.07-.8-.3-.95a9 9 0 0 0-1.1-.67l-3.85-1.9q-1.27-.6-1.84-1a2 2 0 0 1-.81-1.03 4 4 0 0 1-.25-1.65l.04-5.31q.03-4.44 4.92-4.4l2.55.02q4.88.05 4.86 4.5v2.03z"/><path fill="#fff" d="M35.91 42.73h-3.74L30 32.93h-.07l-2.61 9.8h-3.57l3.65-13.01L23.74 17h3.77l2.42 9.49H30L32.4 17h3.57l-3.43 12.72zm-15.73-15V31h-5.1v11.73H11V17h10.62l.91 3.2h-7.45v7.53z"/></svg>