<svg xmlns="http://www.w3.org/2000/svg" width="230" height="100" viewBox="0 0 230 100"><path d="M164.82 40.08v22.56h-4.06V40.08h-4.07v-3.22h12.18v3.22h-4.05zm-22.16 22.56V36.86h12.17v3.22h-8.11v7.52h5.08v3.23h-5.07l-.01 8.6h8.11v3.2h-12.17zm-14.16 0V36.86h12.16v3.22h-8.11v7.52h5.07v3.23h-5.07v8.6h8.11v3.2H128.5zm-14.36-25.78h7.68c3 0 4.5 1.48 4.5 4.42v6.35c0 2.24-.78 3.68-2.33 4.27l2.74 10.74H123l-2.57-10.4h-2.22v10.4h-4.06V36.86h-.02zm4.07 12.42h2.42c1.18 0 1.64-.6 1.64-1.85V41.8c0-1.23-.45-1.72-1.62-1.72h-2.46v9.2h.02zm-9.83-9.2v22.56h-4.07V40.08h-4.05v-3.22h12.17v3.22h-4.06zM95 43.3l.02-1.76c.01-1.04-.53-1.46-1.7-1.47h-.61c-1.14-.02-1.7.49-1.7 1.52l-.03 4.1c0 .48.06.9.3 1.06.21.17.58.39 1.07.66l3.78 1.8c.82.4 1.42.73 1.77.96.34.23.62.5.8.84.19.32.28.94.27 1.86l-.04 5.5c-.03 2.9-1.65 4.33-4.87 4.3l-2.46-.03c-3.2-.03-4.78-1.63-4.75-4.8v-1.7l4.01.04.02 1.77c-.02 1 .56 1.47 1.75 1.49h.7c1.06 0 1.55-.4 1.56-1.41l.04-4.39c0-.48-.07-.79-.29-.95a8.8 8.8 0 0 0-1.08-.66l-3.78-1.9c-.83-.39-1.43-.72-1.8-.98-.38-.27-.65-.6-.8-1.03a4.24 4.24 0 0 1-.24-1.64l.04-5.28c.02-2.94 1.62-4.4 4.82-4.37l2.5.02c3.2.03 4.78 1.52 4.77 4.47l-.01 2.02L95 43.3z" fill="#F1881D"/><path d="M85.43 62.4h-3.67l-2.13-9.73h-.07L77 62.4h-3.5l3.58-12.93-3.59-12.64h3.7l2.37 9.43h.08L82 36.83h3.5l-3.37 12.64 3.3 12.93zM70 47.49v3.25h-5V62.4h-4V36.83h10.41l.9 3.18H65v7.48h4.98z" fill="#fff"/></svg>