<svg width="120" height="120" viewBox="0 0 120 120" xmlns="http://www.w3.org/2000/svg"><path d="M23.44 11.64A7 7 0 0 1 29.58 8h4.31a1 1 0 0 1 .8.4l.73.99.85 1.15 1.37-.44 2.84-.91a1.36 1.36 0 0 1 .99 2.53l-4.31 2-1.16.53V64a14 14 0 0 0 14 14h9a14 14 0 0 1 14 14v22h-5V98H35v16h-5V96.4l-.64-.6-1.98-1.84a22 22 0 0 1-6.74-19.56l8.11-51.09.37-2.31h-9.46a2.82 2.82 0 0 1-1.06-5.44l2.8-1.14.67-.27.34-.63 1.03-1.88zM29.58 4a11 11 0 0 0-9.65 5.73l-.69 1.25-2.15.87c-2.16.88-4.09 2.74-4.09 5.09 0 5.18 2.4 8.06 6.66 8.06h4.77L16.7 73.78a26 26 0 0 0 7.96 23.1L26 98.15V118h13v-16h25v16h13V92a18 18 0 0 0-18-18h-9a10 10 0 0 1-10-10V16.8l3.15-1.45a5.36 5.36 0 0 0-3.9-9.97l-1.47.47A5 5 0 0 0 33.89 4h-4.3zM89 13.1V5h-4v8.1c-3.92.41-7.5 2.02-10.34 4.45l-5.53-5.53-2.83 2.82 5.61 5.61a18.9 18.9 0 0 0-3.8 9.55H60v4h8.1a18.9 18.9 0 0 0 3.78 9.5l-6.41 6.42 2.83 2.83 6.33-6.33A18.92 18.92 0 0 0 85 50.9V59h4v-8.1a18.93 18.93 0 0 0 10.67-4.74l5.56 5.56 2.83-2.83-5.7-5.7A18.9 18.9 0 0 0 105.9 34h8.1v-4h-8.1a18.89 18.89 0 0 0-3.15-8.62l6.02-6.02-2.83-2.83-5.77 5.77A18.94 18.94 0 0 0 89 13.1zM72 32a15 15 0 1 1 30 0 15 15 0 0 1-30 0z" fill="currentColor"/></svg>