<svg xmlns="http://www.w3.org/2000/svg" width="620" height="468" viewBox="0 0 620 468"><path d="M0 0h620v468H0z"/><g fill="#03C7A3" filter="url(#asjmn5txi)"><path d="M29 319h1.2v57H29z"/><path d="M26 344h7v21.4h-7zM39 333h1.2v23H39z"/><path d="M36 345h7v10.4h-7zM49 322h1.2v33H49z"/><path d="M46 337h7v13.4h-7zM58 304h1.2v57H58z"/><path d="M55 331h7v13.4h-7zM67 311h1.2v32H67z"/><path d="M64 328h7v10.4h-7zM77 279h1.2v55H77z"/><path d="M74 304h7v30.4h-7zM142 316h1.2v55H142z"/><path d="M139 341h7v30.4h-7zM152 293h1.2v66H152z"/><path d="M149 321h7v38.4h-7zM180 231h1.2v91H180z"/><path d="M177 276h7v46.4h-7zM190 194h1.2v105H190z"/><path d="M187 239h7v60.4h-7zM200 158h1.2v111H200z"/><path d="M197 221h7v48.4h-7zM209 85h1.2v160H209z"/><path d="M206 146h7v99.4h-7zM219 65h1.2v130H219z"/><path d="M216 114h7v81.4h-7zM228 107h1.2v73H228z"/><path d="M225 143h7v11.4h-7zM246 58h1.2v94H246z"/><path d="M243 114h7v8.4h-7zM237 71h1.2v78H237z"/><path d="M234 96h7v53.4h-7zM285 110h1.2v73H285z"/><path d="M282 144h7v39.4h-7zM294 108h1.2v67H294z"/><path d="M291 148h7v16.4h-7zM350 119h1.2v121H350z"/><path d="M347 168h7v72.4h-7zM360 85h1.2v119H360z"/><path d="M357 125h7v79.4h-7zM369 94h1.2v73H369z"/><path d="M366 136h7v28.4h-7zM444 303h1.2v58H444z"/><path d="M441 336h7v13.4h-7zM482 368h1.2v77H482z"/><path d="M479 398h7v13.4h-7zM492 337h1.2v83H492z"/><path d="M489 367h7v38.4h-7zM501 311h1.2v81H501z"/><path d="M498 340h7v52.4h-7zM511 268h1.2v97H511z"/><path d="M508 302h7v63.4h-7zM520 211h1.2v123H520z"/><path d="M517 257h7v77.4h-7zM529 172h1.2v123H529z"/><path d="M526 213h7v82.4h-7zM539 143h1.2v111H539z"/><path d="M536 172h7v82.4h-7zM548 112h1.2v101H548z"/><path d="M545 140h7v73.4h-7zM161 298h1.2v42H161z"/><path d="M158 317h7v23.4h-7zM171 305h1.2v32H171z"/><path d="M168 317h7v12.4h-7zM86 260h1.2v68H86z"/></g><g fill="#FF2133" filter="url(#bsjmn5txi)"><path d="M97 226h1.2v45H97z"/><path d="M94 228h7v22.4h-7zM107 239h1.2v67H107z"/><path d="M104 239h7v39.4h-7zM117 258h1.2v65H117z"/><path d="M114 258h7v32.4h-7zM127 274h1.2v56H127z"/><path d="M124 274h7v28.4h-7zM258 24h1.2v71H258z"/><path d="M255 38h7v28.4h-7zM305 55h1.2v56H305z"/><path d="M302 76h7v16.4h-7zM324 89h1.2v55H324z"/><path d="M321 113h7v13.4h-7zM333 119h1.2v84H333z"/><path d="M330 119h7v45.4h-7zM343 124h1.2v113H343z"/><path d="M340 124h7v55.4h-7zM381 71h1.2v49H381z"/><path d="M378 71h7v29.4h-7zM400 104h1.2v92H400z"/><path d="M397 104h7v54.4h-7zM418 150h1.2v176H418z"/><path d="M415 151h7v91.4h-7zM428 197h1.2v177H428z"/><path d="M425 197h7v109.4h-7zM437 240h1.2v99H437z"/><path d="M434 251h7v37.4h-7zM456 238h1.2v101H456z"/><path d="M453 263h7v31.4h-7zM560 72h1.2v59H560z"/><path d="M557 97h7v8.4h-7zM569 100h1.2v102H569z"/><path d="M566 100h7v70.4h-7zM579 135h1.2v82H579z"/><path d="M576 135h7v55.4h-7zM589 125h1.2v125H589z"/><path d="M586 162h7v31.4h-7zM474 300h1.2v68H474z"/><path d="M471 325h7v10.4h-7zM465 279h1.2v123H465z"/><path d="M462 279h7v94.4h-7zM390 68h1.2v79H390z"/><path d="M387 85h7v38.4h-7zM409 107h1.2v105H409z"/><path d="M406 131h7v41.4h-7zM315 84h1.2v138H315z"/><path d="M312 84h7v59.4h-7zM267 50h1.2v90H267z"/><path d="M264 52h7v51.4h-7zM277 77h1.2v124H277z"/><path d="M274 77h7v52.4h-7zM136 277h1.2v45H136z"/><path d="M133 288h7v6.4h-7z"/></g><defs><filter id="asjmn5txi" width="566" height="427" x="6" y="38" color-interpolation-filters="sRGB" filterUnits="userSpaceOnUse"><feFlood result="BackgroundImageFix"/><feColorMatrix in="SourceAlpha" result="hardAlpha"/><feGaussianBlur stdDeviation="10"/><feColorMatrix values="0 0 0 0 0.168627 0 0 0 0 0.85098 0 0 0 0 0.737255 0 0 0 0.4 0"/><feBlend in="SourceGraphic"/></filter><filter id="bsjmn5txi" width="539" height="418" x="74" y="4" color-interpolation-filters="sRGB" filterUnits="userSpaceOnUse"><feFlood flood-opacity="0" result="BackgroundImageFix"/><feColorMatrix in="SourceAlpha" result="hardAlpha"/><feGaussianBlur stdDeviation="10"/><feColorMatrix values="0 0 0 0 0.95 0 0 0 0 0.210246 0 0 0 0 0.271892 0 0 0 0.8 0"/><feBlend in="SourceGraphic"/></filter></defs></svg>