<svg xmlns="http://www.w3.org/2000/svg" width="620" height="468" fill="none" viewBox="0 0 620 468"><path fill="#000" d="M0 0h620v468H0z"/><g filter="url(#a12dtcecq)"><path fill="#FF2133" d="M80 226h9v13h-9z"/></g><g filter="url(#b12dtcecq)"><path fill="#FF2133" d="M92 238h9v18h-9z"/></g><g filter="url(#c12dtcecq)"><path fill="#FF2133" d="M116 221h9v19h-9z"/></g><g filter="url(#d12dtcecq)"><path fill="#FF2133" d="M188 264h9v41h-9z"/></g><g filter="url(#e12dtcecq)"><path fill="#FF2133" d="M212 295h9v32h-9z"/></g><g filter="url(#f12dtcecq)"><path fill="#FF2133" d="M236 279h9v14h-9z"/></g><g filter="url(#g12dtcecq)"><path fill="#FF2133" d="M284 229h9v10h-9z"/></g><g filter="url(#h12dtcecq)"><path fill="#FF2133" d="M296 239h9v26h-9z"/></g><g filter="url(#i12dtcecq)"><path fill="#FF2133" d="M320 244h9v40h-9z"/></g><g filter="url(#j12dtcecq)"><path fill="#FF2133" d="M344 249h9v32h-9z"/></g><g filter="url(#k12dtcecq)"><path fill="#FF2133" d="M356 282h9v18h-9z"/></g><g filter="url(#l12dtcecq)"><path fill="#FF2133" d="M416 193h9v78h-9z"/></g><g filter="url(#m12dtcecq)"><path fill="#FF2133" d="M440 222h9v6h-9z"/></g><g filter="url(#n12dtcecq)"><path fill="#FF2133" d="M452 229h9v6h-9z"/></g><g filter="url(#o12dtcecq)"><path fill="#FF2133" d="M476 119h9v33h-9z"/></g><g filter="url(#p12dtcecq)"><path fill="#FF2133" d="M500 131h9v12h-9z"/></g><g filter="url(#q12dtcecq)"><path fill="#FF2133" d="M512 144h9v130h-9z"/></g><g filter="url(#r12dtcecq)"><path fill="#FF2133" d="M536 271h9v43h-9z"/></g><g filter="url(#s12dtcecq)"><path fill="#FF2133" d="M572 262h9v15h-9z"/></g><g filter="url(#t12dtcecq)"><path fill="#FF2133" d="M584 275h9v56h-9z"/></g><path fill="#00B999" d="M36 388h1v41h-1zM48 356h1v65h-1zM60 292h1v97h-1zM72 212h1v113h-1zM108 132h1v201h-1zM132 215h1v33h-1zM156 295h1v57h-1zM168 263h1v73h-1zM180 239h1v49h-1zM204 279h1v41h-1zM228 271h1v65h-1zM252 223h1v105h-1zM264 223h1v33h-1zM276 221h1v41h-1zM312 219h1v73h-1zM336 201h1v105h-1zM372 263h1v57h-1zM384 285h1v25h-1zM396 203h1v113h-1zM408 121h1v113h-1zM432 167h1v121h-1zM468 103h1v145h-1zM492 120h1v41h-1zM528 209h1v81h-1zM552 274h1v49h-1zM565 243h1v65h-1z"/><path fill="#000" stroke="#00B999" d="M32.5 394.5h8v29h-8zM44.5 376.5h8v18h-8zM56.5 302.5h8v73h-8zM68.5 226.5h8v78h-8z"/><path stroke="#FF2133" stroke-width=".5" d="M84.25 212.25h.5v40.5h-.5zM96.25 231.25h.5v45.5h-.5z"/><path fill="#000" stroke="#00B999" d="M104.5 222.5h8v33h-8z"/><path stroke="#FF2133" stroke-width=".5" d="M120.25 212.25h.5v36.5h-.5z"/><path fill="#000" stroke="#00B999" d="M128.5 237.5h8v3h-8z"/><path fill="#FF2133" stroke="#FF2133" d="M140.5 237.5h8v93h-8z"/><path stroke="#FF2133" stroke-width=".5" d="M144.25 234.25h.5v139.5h-.5z"/><path fill="#000" stroke="#00B999" d="M152.5 322.5h8v8h-8zM164.5 270.5h8v51h-8zM176.5 264.5h8v6h-8z"/><path stroke="#FF2133" stroke-width=".5" d="M192.75 234.25h-.5v100.5h.5z"/><path fill="#000" stroke="#00B999" d="M200.5 293.5h8v11h-8z"/><path stroke="#FF2133" stroke-width=".5" d="M216.25 284.25h.5v53.5h-.5z"/><path fill="#000" stroke="#00B999" d="M224.5 279.5h8v47h-8z"/><path stroke="#FF2133" stroke-width=".5" d="M240.25 266.25h.5v39.5h-.5z"/><path fill="#000" stroke="#00B999" d="M248.5 241.5h8v51h-8zM260.5 234.5h8v7h-8zM272.5 229.5h8v5h-8z"/><path stroke="#FF2133" stroke-width=".5" d="M288.25 224.25h.5v19.5h-.5zM300.25 219.25h.5v65.5h-.5z"/><path fill="#000" stroke="#00B999" d="M308.5 244.5h8v21h-8z"/><path stroke="#FF2133" stroke-width=".5" d="M324.25 239.25h.5v82.5h-.5z"/><path fill="#000" stroke="#00B999" d="M332.5 249.5h8v34h-8z"/><path stroke="#FF2133" stroke-width=".5" d="M348.25 235.25h.5v59.5h-.5zM360.25 273.25h.5v35.5h-.5z"/><path fill="#000" stroke="#00B999" d="M368.5 296.5h8v5h-8zM380.5 293.5h8v5h-8zM392.5 222.5h8v73h-8zM404.5 194.5h8v30h-8z"/><path stroke="#FF2133" stroke-width=".5" d="M420.25 193.25h.5v133.5h-.5zM444.25 210.25h.5v29.5h-.5zM456.25 219.25h.5v13.5h-.5z"/><path fill="#000" stroke="#00B999" d="M428.5 222.5h8v48h-8zM464.5 119.5h8v112h-8z"/><path stroke="#FF2133" stroke-width=".5" d="M480.25 84.25h.5v102.5h-.5z"/><path fill="#000" stroke="#00B999" d="M488.5 131.5h8v20h-8z"/><path stroke="#FF2133" stroke-width=".5" d="M504.75 49.25h-.5v118.5h.5zM516.25 131.25h.5v195.5h-.5z"/><path fill="#000" stroke="#00B999" d="M524.5 271.5h8v3h-8z"/><path stroke="#FF2133" stroke-width=".5" d="M540.25 247.25h.5v66.5h-.5z"/><path fill="#000" stroke="#00B999" d="M548.5 285.5h8v28h-8zM560.5 259.5h8v25h-8z"/><path stroke="#FF2133" stroke-width=".5" d="M576.75 247.25h-.5v44.5h.5zM588.75 271.25h-.5v89.5h.5z"/><defs><filter id="a12dtcecq" width="65" height="69" x="52" y="198" color-interpolation-filters="sRGB" filterUnits="userSpaceOnUse"><feFlood result="BackgroundImageFix"/><feColorMatrix in="SourceAlpha" result="hardAlpha"/><feGaussianBlur stdDeviation="14"/><feColorMatrix values="0 0 0 0 1 0 0 0 0 0.129412 0 0 0 0 0.2 0 0 0 1 0"/><feBlend in="SourceGraphic"/></filter><filter id="b12dtcecq" width="65" height="74" x="64" y="210" color-interpolation-filters="sRGB" filterUnits="userSpaceOnUse"><feFlood flood-opacity="0" result="BackgroundImageFix"/><feColorMatrix in="SourceAlpha" result="hardAlpha"/><feGaussianBlur stdDeviation="14"/><feColorMatrix values="0 0 0 0 1 0 0 0 0 0.129412 0 0 0 0 0.2 0 0 0 1 0"/><feBlend in="SourceGraphic"/></filter><filter id="c12dtcecq" width="65" height="75" x="88" y="193" color-interpolation-filters="sRGB" filterUnits="userSpaceOnUse"><feFlood flood-opacity="0" result="BackgroundImageFix"/><feColorMatrix in="SourceAlpha" result="hardAlpha"/><feGaussianBlur stdDeviation="14"/><feColorMatrix values="0 0 0 0 1 0 0 0 0 0.129412 0 0 0 0 0.2 0 0 0 1 0"/><feBlend in="SourceGraphic"/></filter><filter id="d12dtcecq" width="65" height="97" x="160" y="236" color-interpolation-filters="sRGB" filterUnits="userSpaceOnUse"><feFlood result="BackgroundImageFix"/><feColorMatrix in="SourceAlpha" result="hardAlpha"/><feGaussianBlur stdDeviation="14"/><feColorMatrix values="0 0 0 0 1 0 0 0 0 0.129412 0 0 0 0 0.2 0 0 0 1 0"/><feBlend in="SourceGraphic"/></filter><filter id="e12dtcecq" width="65" height="88" x="184" y="267" color-interpolation-filters="sRGB" filterUnits="userSpaceOnUse"><feFlood flood-opacity="0" result="BackgroundImageFix"/><feColorMatrix in="SourceAlpha" result="hardAlpha"/><feGaussianBlur stdDeviation="14"/><feColorMatrix values="0 0 0 0 1 0 0 0 0 0.129412 0 0 0 0 0.2 0 0 0 1 0"/><feBlend in="SourceGraphic"/></filter><filter id="f12dtcecq" width="65" height="70" x="208" y="251" color-interpolation-filters="sRGB" filterUnits="userSpaceOnUse"><feFlood flood-opacity="0" result="BackgroundImageFix"/><feColorMatrix in="SourceAlpha" result="hardAlpha"/><feGaussianBlur stdDeviation="14"/><feColorMatrix values="0 0 0 0 1 0 0 0 0 0.129412 0 0 0 0 0.2 0 0 0 1 0"/><feBlend in="SourceGraphic"/></filter><filter id="g12dtcecq" width="65" height="66" x="256" y="201" color-interpolation-filters="sRGB" filterUnits="userSpaceOnUse"><feFlood flood-opacity="0" result="BackgroundImageFix"/><feColorMatrix in="SourceAlpha" result="hardAlpha"/><feGaussianBlur stdDeviation="14"/><feColorMatrix values="0 0 0 0 1 0 0 0 0 0.129412 0 0 0 0 0.2 0 0 0 1 0"/><feBlend in="SourceGraphic"/></filter><filter id="h12dtcecq" width="65" height="82" x="268" y="211" color-interpolation-filters="sRGB" filterUnits="userSpaceOnUse"><feFlood flood-opacity="0" result="BackgroundImageFix"/><feColorMatrix in="SourceAlpha" result="hardAlpha"/><feGaussianBlur stdDeviation="14"/><feColorMatrix values="0 0 0 0 1 0 0 0 0 0.129412 0 0 0 0 0.2 0 0 0 1 0"/><feBlend in="SourceGraphic"/></filter><filter id="i12dtcecq" width="65" height="96" x="292" y="216" color-interpolation-filters="sRGB" filterUnits="userSpaceOnUse"><feFlood flood-opacity="0" result="BackgroundImageFix"/><feColorMatrix in="SourceAlpha" result="hardAlpha"/><feGaussianBlur stdDeviation="14"/><feColorMatrix values="0 0 0 0 1 0 0 0 0 0.129412 0 0 0 0 0.2 0 0 0 1 0"/><feBlend in="SourceGraphic"/></filter><filter id="j12dtcecq" width="65" height="88" x="316" y="221" color-interpolation-filters="sRGB" filterUnits="userSpaceOnUse"><feFlood flood-opacity="0" result="BackgroundImageFix"/><feColorMatrix in="SourceAlpha" result="hardAlpha"/><feGaussianBlur stdDeviation="14"/><feColorMatrix values="0 0 0 0 1 0 0 0 0 0.129412 0 0 0 0 0.2 0 0 0 1 0"/><feBlend in="SourceGraphic"/></filter><filter id="k12dtcecq" width="65" height="74" x="328" y="254" color-interpolation-filters="sRGB" filterUnits="userSpaceOnUse"><feFlood flood-opacity="0" result="BackgroundImageFix"/><feColorMatrix in="SourceAlpha" result="hardAlpha"/><feGaussianBlur stdDeviation="14"/><feColorMatrix values="0 0 0 0 1 0 0 0 0 0.129412 0 0 0 0 0.2 0 0 0 1 0"/><feBlend in="SourceGraphic"/></filter><filter id="l12dtcecq" width="65" height="134" x="388" y="165" color-interpolation-filters="sRGB" filterUnits="userSpaceOnUse"><feFlood flood-opacity="0" result="BackgroundImageFix"/><feColorMatrix in="SourceAlpha" result="hardAlpha"/><feGaussianBlur stdDeviation="14"/><feColorMatrix values="0 0 0 0 1 0 0 0 0 0.129412 0 0 0 0 0.2 0 0 0 1 0"/><feBlend in="SourceGraphic"/></filter><filter id="m12dtcecq" width="65" height="62" x="412" y="194" color-interpolation-filters="sRGB" filterUnits="userSpaceOnUse"><feFlood flood-opacity="0" result="BackgroundImageFix"/><feColorMatrix in="SourceAlpha"/><feGaussianBlur stdDeviation="14"/><feColorMatrix values="0 0 0 0 1 0 0 0 0 0.129412 0 0 0 0 0.2 0 0 0 1 0"/><feBlend in="SourceGraphic"/></filter><filter id="n12dtcecq" width="65" height="62" x="424" y="201" color-interpolation-filters="sRGB" filterUnits="userSpaceOnUse"><feFlood flood-opacity="0" result="BackgroundImageFix"/><feColorMatrix in="SourceAlpha"/><feGaussianBlur stdDeviation="14"/><feColorMatrix values="0 0 0 0 1 0 0 0 0 0.129412 0 0 0 0 0.2 0 0 0 1 0"/><feBlend in="SourceGraphic"/></filter><filter id="o12dtcecq" width="65" height="89" x="448" y="91" color-interpolation-filters="sRGB" filterUnits="userSpaceOnUse"><feFlood flood-opacity="0" result="BackgroundImageFix"/><feColorMatrix in="SourceAlpha" result="hardAlpha"/><feGaussianBlur stdDeviation="14"/><feColorMatrix values="0 0 0 0 1 0 0 0 0 0.129412 0 0 0 0 0.2 0 0 0 1 0"/><feBlend in2="BackgroundImageFix" result="effect1_dropShadow_12078_193904"/><feBlend in="SourceGraphic" in2="effect1_dropShadow_12078_193904" result="shape"/></filter><filter id="p12dtcecq" width="65" height="68" x="472" y="103" color-interpolation-filters="sRGB" filterUnits="userSpaceOnUse"><feFlood flood-opacity="0" result="BackgroundImageFix"/><feColorMatrix in="SourceAlpha" result="hardAlpha" values="0 0 0 0 0 0 0 0 0 0 0 0 0 0 0 0 0 0 127 0"/><feOffset/><feGaussianBlur stdDeviation="14"/><feComposite in2="hardAlpha" operator="out"/><feColorMatrix values="0 0 0 0 1 0 0 0 0 0.129412 0 0 0 0 0.2 0 0 0 1 0"/><feBlend in2="BackgroundImageFix" result="effect1_dropShadow_12078_193904"/><feBlend in="SourceGraphic" in2="effect1_dropShadow_12078_193904" result="shape"/></filter><filter id="q12dtcecq" width="65" height="186" x="484" y="116" color-interpolation-filters="sRGB" filterUnits="userSpaceOnUse"><feFlood flood-opacity="0" result="BackgroundImageFix"/><feColorMatrix in="SourceAlpha" result="hardAlpha" values="0 0 0 0 0 0 0 0 0 0 0 0 0 0 0 0 0 0 127 0"/><feOffset/><feGaussianBlur stdDeviation="14"/><feComposite in2="hardAlpha" operator="out"/><feColorMatrix values="0 0 0 0 1 0 0 0 0 0.129412 0 0 0 0 0.2 0 0 0 1 0"/><feBlend in2="BackgroundImageFix" result="effect1_dropShadow_12078_193904"/><feBlend in="SourceGraphic" in2="effect1_dropShadow_12078_193904" result="shape"/></filter><filter id="r12dtcecq" width="65" height="99" x="508" y="243" color-interpolation-filters="sRGB" filterUnits="userSpaceOnUse"><feFlood flood-opacity="0" result="BackgroundImageFix"/><feColorMatrix in="SourceAlpha" result="hardAlpha" values="0 0 0 0 0 0 0 0 0 0 0 0 0 0 0 0 0 0 127 0"/><feOffset/><feGaussianBlur stdDeviation="14"/><feComposite in2="hardAlpha" operator="out"/><feColorMatrix values="0 0 0 0 1 0 0 0 0 0.129412 0 0 0 0 0.2 0 0 0 1 0"/><feBlend in2="BackgroundImageFix" result="effect1_dropShadow_12078_193904"/><feBlend in="SourceGraphic" in2="effect1_dropShadow_12078_193904" result="shape"/></filter><filter id="s12dtcecq" width="65" height="71" x="544" y="234" color-interpolation-filters="sRGB" filterUnits="userSpaceOnUse"><feFlood flood-opacity="0" result="BackgroundImageFix"/><feColorMatrix in="SourceAlpha" result="hardAlpha" values="0 0 0 0 0 0 0 0 0 0 0 0 0 0 0 0 0 0 127 0"/><feOffset/><feGaussianBlur stdDeviation="14"/><feComposite in2="hardAlpha" operator="out"/><feColorMatrix values="0 0 0 0 1 0 0 0 0 0.129412 0 0 0 0 0.2 0 0 0 1 0"/><feBlend in2="BackgroundImageFix" result="effect1_dropShadow_12078_193904"/><feBlend in="SourceGraphic" in2="effect1_dropShadow_12078_193904" result="shape"/></filter><filter id="t12dtcecq" width="65" height="112" x="556" y="247" color-interpolation-filters="sRGB" filterUnits="userSpaceOnUse"><feFlood flood-opacity="0" result="BackgroundImageFix"/><feColorMatrix in="SourceAlpha" result="hardAlpha" values="0 0 0 0 0 0 0 0 0 0 0 0 0 0 0 0 0 0 127 0"/><feOffset/><feGaussianBlur stdDeviation="14"/><feComposite in2="hardAlpha" operator="out"/><feColorMatrix values="0 0 0 0 1 0 0 0 0 0.129412 0 0 0 0 0.2 0 0 0 1 0"/><feBlend in2="BackgroundImageFix" result="effect1_dropShadow_12078_193904"/><feBlend in="SourceGraphic" in2="effect1_dropShadow_12078_193904" result="shape"/></filter></defs></svg>