<svg xmlns="http://www.w3.org/2000/svg" width="200" height="80" viewBox="0 0 200 80"><path fill="#fff" d="M54.56 25.96c.16-7.65-4.22-14.33-6.5-15.93 0-.01-.2-.12-.19.18-.25 14.46-7.74 18.36-11.81 23.66-9.05 11.79-1.5 25.23 8.28 27.77.16.05.61.18 1.47.35.45.09.58-.28.25-.84-1.16-2.02-3.25-5.42-3.65-9.8-.94-10.14 11.96-16.49 12.14-25.4z"/><path fill="#008CD6" d="M59.48 30.86c-.07-.06-.18-.06-.19.04-.21 1.84-2.13 5.65-4.66 9.22-8.5 12.02-4.22 17.49-.89 21.26.62.7.92.55 1.24.05.3-.47.76-1.07 2.73-2 .3-.15 7.73-4.06 8.53-12.95.78-8.6-4.8-14.05-6.76-15.62"/><path fill="#fff" d="M103.64 28.66V60.3H96.8V47.52H83.63V60.3h-7.01V28.66h7.01v12.79H96.8V28.66zm31.66 0v6.26h-9.83V60.3h-7.05V34.92h-9.65v-6.26zm24.92 31.67-8.05-11-7.98 10.96h-7.8l11.83-16.15-11.17-15.48h7.8L168 60.34z"/><path fill="#008CD6" d="m154.37 35.74 3.86 5.33 9.15-12.4h-7.77z"/></svg>