<svg xmlns="http://www.w3.org/2000/svg" width="132" height="60" viewBox="0 0 132 60"><path fill="#fff" d="M34.6 23.05c.1-5.3-2.92-9.92-4.5-11.03 0 0-.14-.08-.13.12v.01c-.17 10-5.35 12.7-8.16 16.38a12 12 0 0 0 5.72 19.22q.14.06 1.01.24c.32.06.4-.19.18-.58-.8-1.4-2.25-3.75-2.53-6.78-.64-7.02 8.27-11.42 8.4-17.59"/><path fill="#008CD6" d="M38 26.44c-.05-.04-.13-.04-.14.03-.14 1.27-1.47 3.91-3.22 6.38-5.87 8.32-2.92 12.1-.61 14.72.42.49.63.38.85.04.21-.33.53-.75 1.89-1.4.21-.1 5.34-2.8 5.9-8.95.53-5.96-3.32-9.73-4.67-10.82"/><path fill="#fff" d="M68.52 24.92v21.9h-4.73v-8.84h-9.1v8.84h-4.85v-21.9h4.85v8.85h9.09v-8.85zm21.88 0v4.33h-6.8v17.57h-4.87V29.25h-6.67v-4.33zm17.22 21.92-5.56-7.61-5.52 7.59h-5.4l8.19-11.18-7.72-10.72H97l16 21.93z"/><path fill="#008CD6" d="m103.58 29.82 2.66 3.69 6.33-8.6h-5.37z"/></svg>