<svg width="200" height="80" viewBox="0 0 200 80" xmlns="http://www.w3.org/2000/svg"><path d="M71.78 47h-1.9L65.4 36h2.65l2.88 7.53L73.98 36h2.5l-4.7 11Zm9.38-11.53c3.09 0 5.08 2.24 5.08 5.69v.93h-7.5c.03.44.14.65.33 1.04a3.2 3.2 0 0 0 1.86 1.63c.4.13.83.18 1.25.14a7.64 7.64 0 0 0 3.04-.89c0 .17.4 1.28.65 1.78A7.82 7.82 0 0 1 81.71 47a5.2 5.2 0 0 1-4.15-1.57 5.5 5.5 0 0 1-1.57-4.25c0-3.36 2.12-5.7 5.15-5.7m2.45 4.51c0-.66-.26-1.3-.72-1.77a2.4 2.4 0 0 0-3.44 0c-.46.47-.72 1.1-.72 1.77h4.88Zm11.47-3.9a3.37 3.37 0 0 0-1.85-.56 4.48 4.48 0 0 0-3.08 1.5l-.3-1.03h-2.28v11h2.67v-7.96A3.63 3.63 0 0 1 92.4 38c.54-.01 1.07.13 1.54.41H94v-.08c.17-.79.5-1.53.97-2.17l.1-.07Zm4.68 4.07c-1.1-.44-2.05-.8-2.05-1.58s1.11-1.03 1.76-1.03c1.1 0 2.62.43 3.15.7a14 14 0 0 1 .12-2.14 8.64 8.64 0 0 0-3.27-.58c-2.59 0-4.27 1.22-4.27 3.17 0 2.19 1.73 2.86 3.25 3.44 1.19.43 2.1.8 2.1 1.7 0 .9-.8 1.22-2.08 1.22-1.12 0-2.92-.92-3.08-1.02-.1.3-.64 1.43-.93 1.9A7.86 7.86 0 0 0 98.49 47c2.93 0 4.67-1.36 4.67-3.49 0-2.12-1.91-2.81-3.42-3.35Zm-54.41 1.05a3.5 3.5 0 0 1-.9 2.6 3.7 3.7 0 0 1-1.32.8c-.49.16-1 .18-1.52.18-.53 0-.97-.03-1.43-.2a3.45 3.45 0 0 1-1.22-.78 3.84 3.84 0 0 1-1.02-2.77V31H35v10.18c0 .87.08 1.6.36 2.36.28.75.71 1.43 1.27 2A7.9 7.9 0 0 0 41.54 47a7.8 7.8 0 0 0 5.13-1.65 5.46 5.46 0 0 0 1.53-4.12V31h-2.87v10.2Zm11.25-5.74a6.76 6.76 0 0 0-4.1 1.46L52.2 36h-2.25v11h2.68v-7.98a5.61 5.61 0 0 1 3.06-1.29c1.59 0 1.86 1.4 1.86 2.43V47h2.66v-7.54c0-1.05-.3-2-1-2.79a3.55 3.55 0 0 0-1.2-.87c-.45-.2-.84-.33-1.33-.33M61.85 47h2.68V36H61.8l.04 11Zm42.77 0h2.65V36h-2.65v11ZM157 31h2.83v15.13c-1.34.6-2.89.91-4.36.87-3.82 0-6.28-2.22-6.28-5.65 0-3.42 2.67-5.9 6.35-5.9.53.01.94.05 1.46.13V31Zm0 6.72a4.6 4.6 0 0 0-1.39-.17 3.47 3.47 0 0 0-2.5 1.1 3.67 3.67 0 0 0-1 2.6 3.73 3.73 0 0 0 1.07 2.55 3.54 3.54 0 0 0 2.53 1.04c.46 0 .84-.07 1.29-.2v-6.92Zm13.64 5.65c-.1 1.15 0 3.08.1 3.63h-2.27l-.46-1.19A5.08 5.08 0 0 1 164.6 47c-.47.04-.95 0-1.4-.15a3.46 3.46 0 0 1-2.06-1.9c-.2-.45-.3-.93-.31-1.42 0-2.24 1.73-3.54 4.87-3.65l2.12-.06v-.27c0-1.66-1.24-2.01-2.28-2.01-1.06 0-2.1.3-3 .87h-.06l-.86-1.54a7.64 7.64 0 0 1 4.44-1.22c2.95 0 4.59 1.33 4.59 3.94v3.98m-2.85-1.9-1.85.07c-1.64 0-2.45.56-2.45 1.58s.76 1.63 1.97 1.63a3.5 3.5 0 0 0 2.36-.85l-.03-2.42ZM145.05 47h2.78V31.04h-2.78V47Zm33.48-11.64c-1.43.02-2.4.64-3.53 1.56V31h-2.79v16H175v-7.93a4.7 4.7 0 0 1 2.9-1.34c1.6 0 1.81 1.22 1.81 2.43V47h2.68v-7.57c0-3.64-2.54-4.07-3.62-4.07m-38.2.24c-.8-.02-1.58.26-2.19.8-.6.53-1 1.28-1.1 2.1l-.15.76h-1.18l-.41 1.74h1.49c0 .36-.11.52-.17.87-.46 3.13-.77 5.2-2.8 7.09l1.1 1.04c2.67-2.25 3.17-5.42 3.64-8.66l.08-.34h1.53l.54-1.7v-.07h-1.84l.12-.61c.18-.91.66-1.41 1.37-1.41.43.04.84.22 1.16.52v-.06l.72-1.35a3.73 3.73 0 0 0-1.93-.5m-18.6 8.3c-1.37-3.07-3.4-7.83-3.4-7.88h-5.36v-3.72h-.07l-2.5.74V36h-2.07v2h2.07v6.47c0 1.63.94 2.53 2.73 2.53a6.9 6.9 0 0 0 3.68-1.15l-.7-1.63c-.58.4-1.25.62-1.95.65-.73 0-1.07-.37-1.07-1.21V38h3.62c1.63 3.64 3.8 8.24 3.89 8.56-.26.67-.6 1.3-1.02 1.86a9.17 9.17 0 0 1-3.24 2.9l1.18 1.68a9.56 9.56 0 0 0 4.04-3.76 31.25 31.25 0 0 0 2.9-5.81c.87-2.23 1.96-4.75 2.37-7.19h-2.36a57.32 57.32 0 0 1-2.74 7.88Zm13.31-1.68a4.66 4.66 0 0 1-1.42 3.47 4 4 0 0 1-2.76 1.09 3.25 3.25 0 0 1-2.37-.87 3.47 3.47 0 0 1-.86-2.43 4.7 4.7 0 0 1 1.26-3.28 4.01 4.01 0 0 1 2.94-1.22 3.1 3.1 0 0 1 2.36.9c.55.65.84 1.49.8 2.34m-2.77 2.43a3.33 3.33 0 0 0 .84-2.43 1.8 1.8 0 0 0-.4-1.28 1.4 1.4 0 0 0-1.03-.4 1.78 1.78 0 0 0-1.33.63 3.5 3.5 0 0 0-.73 2.3c-.04.46.11.93.41 1.28.28.26.64.4 1.02.4.44-.02.86-.2 1.18-.52m61.1-7.68a6.3 6.3 0 0 1 1.5 4.06 5.86 5.86 0 0 1-1.67 4.26 5.82 5.82 0 0 1-4.07 1.51 5.9 5.9 0 0 1-3.93-1.35 5.63 5.63 0 0 1-1.77-4.36 5.95 5.95 0 0 1 1.69-4.29 5.7 5.7 0 0 1 4.01-1.53 5.59 5.59 0 0 1 4.12 1.56m-4.1 7.99c1.82 0 2.97-1.43 2.97-3.73s-1.18-3.72-3.01-3.72c-1.84 0-2.95 1.4-2.95 3.72 0 2.32 1.18 3.73 3 3.73Z" fill="#fff"/><path d="M9 23h16v7h-4v20h4v7H9v-7h4V30H9v-7Zm-1-1v9h4v18H8v9h18v-9h-4V31h4v-9H8Zm6 29h-4v5h14v-5h-4V29h4v-5H10v5h4v22Z" fill="#F1B300"/><circle cx="63.5" cy="32.5" r="1.5" fill="#fff"/><circle cx="105.97" cy="32.5" r="1.5" fill="#fff"/></svg>