<svg width="612" height="392" viewBox="0 0 612 392" fill="none" xmlns="http://www.w3.org/2000/svg"><path fill="#000" d="M0 0h612v392H0z"/><path d="M322.05 0H24A24 24 0 0 0 0 24v368h613V24a24 24 0 0 0-24-24H322.05Z" fill="url(#awvh11hzz)"/><path d="M24 1h565a23 23 0 0 1 23 23v367H1V24A23 23 0 0 1 24 1Z" stroke="url(#bwvh11hzz)" stroke-opacity=".2" stroke-width="2"/><circle cx="31.2" cy="31.2" r="9.2" fill="url(#cwvh11hzz)"/><path d="m35.3 32.84-.18.42a4.94 4.94 0 0 1-1.2 1.66c-.26.24-.55.36-.86.36-.22 0-.48-.06-.8-.18a2.4 2.4 0 0 0-.85-.18c-.28 0-.57.06-.89.18-.31.12-.57.19-.76.2-.3 0-.6-.12-.89-.38a5.4 5.4 0 0 1-1.76-3.87c0-.61.14-1.14.43-1.59a2.48 2.48 0 0 1 2.08-1.17c.23 0 .54.07.92.2.38.14.63.21.73.21.09 0 .36-.08.82-.24.43-.15.8-.2 1.1-.18.82.06 1.44.36 1.84.91-.73.42-1.09 1.01-1.08 1.76 0 .6.23 1.08.67 1.47.2.18.43.32.67.42Zm-2.06-6.75v.18c0 .46-.17.9-.52 1.3-.43.47-.95.74-1.5.7l-.02-.18c0-.44.2-.91.57-1.3.18-.2.4-.36.68-.49s.54-.2.79-.21Z" fill="#fff"/><path d="M109.75 37.5a3.66 3.66 0 0 1-3.47-2.1 5.39 5.39 0 0 1-.49-2.39v-.02c0-.9.16-1.67.48-2.33a3.63 3.63 0 0 1 3.47-2.08c.7 0 1.3.12 1.8.36a3.2 3.2 0 0 1 1.8 2.38v.04h-1.37l-.01-.02c-.1-.43-.35-.79-.73-1.09-.38-.3-.87-.44-1.5-.44a2.3 2.3 0 0 0-2.21 1.5c-.2.47-.3 1.03-.3 1.68v.02c0 .66.1 1.24.3 1.73.21.48.5.86.88 1.12.38.27.83.4 1.34.4.58 0 1.05-.12 1.42-.37.37-.25.63-.62.8-1.1v-.05h1.38l-.02.08a3.24 3.24 0 0 1-1.8 2.33c-.5.23-1.08.34-1.77.34Zm-12.76-.16v-8.61h1.39v1.3h.13c.22-.47.53-.82.94-1.07.41-.26.93-.38 1.57-.38.97 0 1.7.27 2.23.83.52.55.78 1.33.78 2.35v5.58h-1.4V32.1c0-.78-.16-1.35-.49-1.73-.32-.37-.83-.56-1.52-.56-.45 0-.85.1-1.19.3-.33.19-.6.47-.78.83-.18.36-.27.8-.27 1.3v5.1h-1.39Zm-3.88 0V25.81h1.44v11.53H93.1Zm-9.96.16a3.6 3.6 0 0 1-3.48-2.08 5.45 5.45 0 0 1-.47-2.35v-.01c0-.9.16-1.67.47-2.34a3.8 3.8 0 0 1 1.35-1.58 3.65 3.65 0 0 1 2.04-.56c.78 0 1.46.18 2.02.54.56.36 1 .87 1.29 1.52.3.64.46 1.4.46 2.25v.54h-6.9v-1.1h6.18l-.68 1v-.54a4 4 0 0 0-.3-1.67 2.14 2.14 0 0 0-2.08-1.3c-.46 0-.87.1-1.24.34-.36.22-.65.55-.87 1-.2.44-.31.98-.31 1.63v.55c0 .61.1 1.13.3 1.57a2.32 2.32 0 0 0 2.25 1.34c.4 0 .73-.05 1.02-.16.28-.1.52-.24.7-.4.2-.17.32-.34.4-.5l.03-.08h1.4l-.02.06c-.08.3-.21.58-.4.86a3.2 3.2 0 0 1-.73.74c-.3.22-.65.4-1.06.53-.4.13-.86.2-1.37.2Zm-7.25-.16V25.31h1.4v12.03h-1.4Zm-9.74 2.88v-11.5h1.39v1.38h.13a2.84 2.84 0 0 1 1.57-1.34c.34-.12.71-.18 1.11-.18.73 0 1.36.18 1.9.55.54.37.97.89 1.26 1.55.3.67.45 1.45.45 2.35v.01c0 .9-.15 1.68-.45 2.35a3.29 3.29 0 0 1-3.16 2.1 3.18 3.18 0 0 1-2.05-.71 2.58 2.58 0 0 1-.63-.8h-.13v4.24h-1.4Zm3.88-3.96c.53 0 .98-.13 1.35-.38.37-.26.66-.63.86-1.11.2-.49.3-1.06.3-1.73v-.01c0-.68-.1-1.25-.3-1.73a2.4 2.4 0 0 0-.86-1.1 2.3 2.3 0 0 0-1.35-.4 2.34 2.34 0 0 0-2.22 1.5 4.4 4.4 0 0 0-.3 1.73v.01c0 .66.1 1.23.3 1.72.2.48.5.85.87 1.11.38.26.83.4 1.35.4ZM56.5 40.22v-11.5h1.38v1.38h.13a2.84 2.84 0 0 1 1.58-1.34c.34-.12.7-.18 1.1-.18.74 0 1.37.18 1.9.55.55.37.97.89 1.27 1.55.3.67.45 1.45.45 2.35v.01c0 .9-.15 1.68-.45 2.35a3.29 3.29 0 0 1-3.16 2.1 3.18 3.18 0 0 1-2.05-.71 2.58 2.58 0 0 1-.64-.8h-.13v4.24H56.5Zm3.88-3.96c.52 0 .97-.13 1.35-.38.37-.26.66-.63.85-1.11.2-.49.3-1.06.3-1.73v-.01c0-.68-.1-1.25-.3-1.73a2.4 2.4 0 0 0-.85-1.1 2.3 2.3 0 0 0-1.35-.4c-.53 0-.98.14-1.35.4-.38.26-.67.63-.87 1.1a4.4 4.4 0 0 0-.3 1.73v.01c0 .66.1 1.23.3 1.72a2.32 2.32 0 0 0 2.22 1.51Zm-15.33 1.08 4.25-11.53h1.1v1.86h-.45l-3.39 9.67h-1.51Zm1.93-3.3.44-1.22h5.21l.45 1.22h-6.1Zm6.48 3.3-3.38-9.67v-1.86h.64l4.25 11.53h-1.5Z" fill="#D1D4DC"/><circle cx="120.17" cy="32.23" r="1.02" fill="#D1D4DC"/><path d="M136.74 37.34V25.81h3.95c1.15 0 2.12.23 2.93.69.81.45 1.44 1.1 1.87 1.96.43.86.65 1.9.65 3.1v.02c0 1.2-.22 2.24-.65 3.1a4.57 4.57 0 0 1-1.86 1.98c-.81.45-1.79.68-2.94.68h-3.95Zm1.44-1.3h2.42c.86 0 1.59-.17 2.2-.52.6-.35 1.07-.86 1.39-1.53.32-.66.48-1.46.48-2.4v-.01c0-.94-.17-1.74-.5-2.4a3.42 3.42 0 0 0-1.38-1.54 4.25 4.25 0 0 0-2.2-.53h-2.41v8.94Zm-7.4 1.3v-9.93h-.12l-2.94 2.12v-1.51l3.07-2.2h1.43v11.52h-1.44Z" fill="#D1D4DC"/><circle cx="152.9" cy="32.23" r="1.02" fill="#D1D4DC"/><path d="M218.1 37.61c-1.1 0-2.04-.24-2.83-.73-.8-.5-1.4-1.2-1.82-2.1a7.52 7.52 0 0 1-.64-3.2v-.02c0-1.23.22-2.3.64-3.2a4.9 4.9 0 0 1 1.83-2.08 5.2 5.2 0 0 1 2.82-.74 4.79 4.79 0 0 1 4.65 2.83c.43.9.64 1.96.64 3.2v.01a7.4 7.4 0 0 1-.64 3.2 4.8 4.8 0 0 1-4.65 2.83Zm0-1.32a3.5 3.5 0 0 0 3.36-2.23c.3-.7.46-1.53.46-2.48v-.02c0-.95-.15-1.79-.46-2.49a3.7 3.7 0 0 0-1.32-1.63 3.56 3.56 0 0 0-2.04-.57c-.78 0-1.46.19-2.03.57-.57.38-1 .93-1.32 1.63-.31.7-.47 1.54-.47 2.5v.01c0 .95.16 1.78.46 2.48a3.46 3.46 0 0 0 3.36 2.23Zm3.14 2.35-3.35-4.6h1.61l3.35 4.6h-1.61Zm-19.04-1.3 4.25-11.53h1.1v1.86h-.45l-3.39 9.67h-1.51Zm1.93-3.3.44-1.22h5.21l.45 1.22h-6.1Zm6.48 3.3-3.38-9.67v-1.86h.64l4.25 11.53h-1.5Zm-18.5 0V25.81h3.96c1.14 0 2.11.23 2.92.69.82.45 1.44 1.1 1.87 1.96.43.86.65 1.9.65 3.1v.02c0 1.2-.22 2.25-.65 3.1a4.57 4.57 0 0 1-1.86 1.98c-.8.45-1.79.68-2.93.68h-3.96Zm1.44-1.3h2.42c.86 0 1.6-.17 2.2-.52.6-.35 1.07-.86 1.39-1.53.32-.66.48-1.46.48-2.4v-.01c0-.94-.16-1.74-.49-2.4a3.42 3.42 0 0 0-1.39-1.54 4.25 4.25 0 0 0-2.19-.53h-2.42v8.94Zm-7.77 1.57c-.84 0-1.57-.13-2.2-.4a3.75 3.75 0 0 1-1.49-1.14 3.23 3.23 0 0 1-.63-1.66v-.09h1.43v.09c.05.38.2.71.45 1 .26.27.6.49 1.04.64a4.44 4.44 0 0 0 2.87-.01c.41-.17.74-.4.97-.7.23-.3.35-.65.35-1.04 0-.48-.17-.88-.53-1.21a3.67 3.67 0 0 0-1.71-.76l-1.28-.28c-.77-.17-1.4-.4-1.89-.7-.48-.3-.84-.65-1.08-1.07a3.06 3.06 0 0 1-.34-1.47v-.01c0-.64.18-1.2.52-1.7.34-.48.82-.87 1.43-1.14a5.07 5.07 0 0 1 2.1-.42c.78 0 1.46.14 2.05.42.59.27 1.06.63 1.4 1.1.35.46.55.98.58 1.56l.01.1h-1.44l-.01-.1c-.05-.34-.2-.64-.42-.9a2.28 2.28 0 0 0-.9-.63 3.32 3.32 0 0 0-1.3-.22c-.48 0-.91.07-1.3.22-.38.15-.69.36-.92.65-.22.27-.33.62-.33 1.02 0 .31.07.59.22.83s.39.45.7.62a5 5 0 0 0 1.28.44l1.28.3c.8.17 1.45.4 1.94.68s.84.63 1.07 1.04c.23.4.34.88.34 1.43v.01c0 .72-.17 1.34-.53 1.86-.35.53-.84.93-1.48 1.22-.64.28-1.39.42-2.25.42Zm-15.4-.27 4.25-11.53h1.1v1.86h-.45l-3.39 9.67h-1.5Zm1.93-3.3.45-1.22h5.2l.45 1.22h-6.1Zm6.49 3.3-3.4-9.67v-1.86h.66l4.25 11.53h-1.51Zm-19.32 0V25.81h1.4l6.6 9.48-.95-.5h.73V25.8h1.43v11.53h-1.4l-6.6-9.44.95.5h-.73v8.94h-1.43Z" fill="#D1D4DC"/><path opacity=".15" d="M240.85 31.2a9.2 9.2 0 0 1 9.2-9.2h11.25v18.4h-11.25a9.2 9.2 0 0 1-9.2-9.2Z" fill="#089981"/><path d="M256.19 31.2a4.09 4.09 0 1 1-8.18 0 4.09 4.09 0 0 1 8.18 0Z" fill="#089981"/><path opacity=".15" d="M261.3 22h11.25a9.2 9.2 0 0 1 0 18.4H261.3V22Z" fill="#EC407A"/><path d="M275.74 27.39c-.5 1.93-1.4 2.9-2.69 2.9-.61 0-1.48-.18-2.61-.54a9.13 9.13 0 0 0-2.35-.54c-.66 0-1.16.36-1.51 1.07h-1.27c.13-.8.43-1.48.9-2.04a2.12 2.12 0 0 1 1.67-.85c.67 0 1.57.18 2.71.55a9.6 9.6 0 0 0 2.4.53c.76 0 1.27-.36 1.52-1.08h1.23Zm0 4.61c-.5 1.93-1.4 2.9-2.69 2.9-.61 0-1.48-.18-2.61-.53a9.13 9.13 0 0 0-2.35-.55c-.66 0-1.16.36-1.51 1.08h-1.27c.13-.8.43-1.48.9-2.04a2.12 2.12 0 0 1 1.67-.86c.67 0 1.57.19 2.71.55a9.6 9.6 0 0 0 2.4.53c.76 0 1.27-.36 1.52-1.08h1.23Z" fill="#D81B60"/><path d="M303.25 36.54c-.9 0-1.67-.2-2.31-.6a3.95 3.95 0 0 1-1.48-1.7 6.1 6.1 0 0 1-.51-2.6v-.02c0-1 .17-1.87.52-2.6s.84-1.3 1.48-1.7c.65-.4 1.41-.59 2.3-.59a3.9 3.9 0 0 1 3.78 2.3c.34.73.51 1.6.51 2.6s-.17 1.87-.52 2.6a3.9 3.9 0 0 1-3.77 2.3Zm0-1.08a2.9 2.9 0 0 0 1.65-.47c.46-.32.82-.76 1.07-1.33.25-.58.38-1.25.38-2.02v-.02a5 5 0 0 0-.38-2.02 3 3 0 0 0-1.07-1.33 2.9 2.9 0 0 0-1.65-.46c-.64 0-1.2.15-1.65.46-.47.32-.83.76-1.08 1.33a5 5 0 0 0-.38 2.02v.02c0 .77.13 1.44.37 2.02a3 3 0 0 0 1.07 1.33c.46.31 1.02.47 1.67.47Z" fill="#B2B5BE"/><path d="M354.46 36.54a3.4 3.4 0 0 1-1.55-.35 2.81 2.81 0 0 1-1.56-2.28l-.01-.07h1.12v.05a1.78 1.78 0 0 0 1.03 1.4c.29.14.62.21.98.21.41 0 .77-.09 1.08-.27.32-.18.56-.44.74-.76.17-.33.26-.7.26-1.12v-.01c0-.42-.09-.79-.26-1.1a1.93 1.93 0 0 0-.74-.77c-.3-.18-.66-.27-1.06-.27-.31 0-.6.05-.86.14a2.03 2.03 0 0 0-1.11.99h-1.02l.5-5.38h5.18v1.04h-4.27l-.3 3.17h.1a1.97 1.97 0 0 1 1.18-.86c.25-.07.52-.11.8-.11a2.93 2.93 0 0 1 2.62 1.52c.26.46.39 1 .39 1.6v.02a3.3 3.3 0 0 1-.42 1.67c-.28.48-.66.85-1.15 1.13-.48.27-1.04.4-1.67.4Zm-10.76-.22 4.35-8.24V28h-5.17v-1.04h6.35v1.08l-4.3 8.29h-1.22Zm-5.43.06a.82.82 0 0 1-.6-.25.83.83 0 0 1-.25-.6c0-.23.08-.43.25-.6a.82.82 0 0 1 .6-.24c.23 0 .43.08.6.25.16.16.24.36.24.6 0 .23-.08.43-.25.6a.81.81 0 0 1-.6.24Zm-6.06.16a3.4 3.4 0 0 1-1.55-.35 2.81 2.81 0 0 1-1.56-2.28l-.01-.07h1.12v.05a1.78 1.78 0 0 0 1.03 1.4c.3.14.62.21.98.21.41 0 .78-.09 1.09-.27.31-.18.56-.44.73-.76.18-.33.27-.7.27-1.12v-.01c0-.42-.1-.79-.27-1.1a1.94 1.94 0 0 0-.73-.77 2.47 2.47 0 0 0-1.92-.13 2.03 2.03 0 0 0-1.12.99h-1.01l.49-5.38h5.18v1.04h-4.26l-.31 3.17h.1c.14-.21.3-.39.5-.53a2.59 2.59 0 0 1 1.49-.44 2.93 2.93 0 0 1 2.61 1.52c.26.46.39 1 .39 1.6v.02a3.3 3.3 0 0 1-.41 1.67 3.12 3.12 0 0 1-2.83 1.53Zm-7.31-.22v-1.95h-4.46v-1.06a295.29 295.29 0 0 1 1.54-2.59 706.58 706.58 0 0 1 1.6-2.56l.77-1.21h1.7v6.38h1.3v1.04h-1.3v1.95h-1.15Zm-3.27-2.98h3.28v-5.3h-.08a151.37 151.37 0 0 0-3.2 5.22v.08Zm-5.75 2.98v-8.07h-.1l-2.39 1.72v-1.23l2.5-1.8h1.16v9.38h-1.17Z" fill="#089981"/><path d="M366.8 36.32v-9.37h1.17V31h5.14v-4.05h1.17v9.37h-1.16v-4.27h-5.15v4.27h-1.16Z" fill="#B2B5BE"/><path d="m418.48 36.32 4.33-8.23v-.1h-5.16v-1.04H424v1.08l-4.3 8.29h-1.22Zm-5.99-9.59a3.24 3.24 0 0 1 2.38 1.05c.34.36.6.85.8 1.46a7 7 0 0 1 .3 2.22v.02c0 1.06-.13 1.97-.41 2.73a3.75 3.75 0 0 1-1.22 1.73c-.53.4-1.18.6-1.93.6a3.13 3.13 0 0 1-2.46-1.09 2.95 2.95 0 0 1-.57-1.22l-.01-.08h1.17l.02.07c.1.26.23.49.4.68a1.88 1.88 0 0 0 1.46.59 1.9 1.9 0 0 0 1.37-.49 3 3 0 0 0 .77-1.32 6.69 6.69 0 0 0 .3-1.98v-.17l-.28-1.56a2.15 2.15 0 0 0-1.03-1.9 1.9 1.9 0 0 0-1.05-.3c-.38 0-.74.09-1.05.28a2.17 2.17 0 0 0-1.03 1.88v.01c0 .42.08.79.26 1.11a2 2 0 0 0 1.8 1.04 2.1 2.1 0 0 0 1.82-1.02c.2-.32.28-.69.28-1.1h.39v1.69h-.23a2.54 2.54 0 0 1-1.34 1.25c-.33.13-.7.2-1.12.2a3 3 0 0 1-2.64-1.53 3.26 3.26 0 0 1-.4-1.61v-.01c0-.63.14-1.18.42-1.67.28-.48.67-.87 1.16-1.14a3.32 3.32 0 0 1 1.67-.42Zm-7.75 9.65a.83.83 0 0 1-.6-.24.83.83 0 0 1-.24-.6.83.83 0 0 1 .84-.84c.23 0 .43.08.6.24.16.17.24.37.24.6 0 .23-.08.43-.24.6a.82.82 0 0 1-.6.24Zm-6.05.16a3.4 3.4 0 0 1-1.56-.35 2.82 2.82 0 0 1-1.56-2.28v-.07h1.12v.06a1.77 1.77 0 0 0 1.03 1.4c.29.14.61.2.98.2.4 0 .77-.08 1.08-.27.32-.18.56-.44.74-.76.17-.33.26-.7.26-1.12v-.01c0-.42-.09-.78-.26-1.1a1.93 1.93 0 0 0-.74-.76c-.3-.19-.66-.28-1.06-.28-.31 0-.6.05-.86.15a2.03 2.03 0 0 0-1.12.98h-1l.48-5.38h5.18V28h-4.26l-.31 3.16h.1c.14-.2.3-.39.5-.53a2.68 2.68 0 0 1 1.48-.44 2.93 2.93 0 0 1 2.63 1.52c.25.47.38 1 .38 1.6v.02a3.3 3.3 0 0 1-.41 1.67c-.28.48-.66.86-1.15 1.13a3.4 3.4 0 0 1-1.68.4Zm-7.31-.22v-1.94h-4.47V33.3a295.29 295.29 0 0 1 1.54-2.59 706.58 706.58 0 0 1 1.6-2.56l.77-1.2h1.7v6.37h1.3v1.05h-1.3v1.94h-1.14Zm-3.28-2.98h3.28v-5.3h-.07a150.47 150.47 0 0 0-3.21 5.22v.08Zm-5.75 2.98v-8.07h-.1l-2.39 1.73v-1.24l2.5-1.79h1.16v9.37h-1.17Z" fill="#089981"/><path d="m3 155 10.98-17.41 11.38 2.79 7.18-11.17h9.58l10.18-6.83 13.18-6.2 4.19-4.04 8.98 4.03 13.77-4.03 4.8 5.27h9.57l16.77 1.87 7.18-7.14 13.18 4.03 13.77-13.96 13.17 3.72 4.8-9.93h17.36l7.78 4.66 8.98-1.56 11.38 4.66 8.34 3.72 13-3.72 12.5 18.93 17.5-3.19 11.53 3.19 6.6 8.07 12.56 2.17 7.79-3.72 9.58 3.72 16.77-19.55 11.97-7.45 11.98-3.72 11.97 5.27 13.18 4.66 7.18 18.62 7.19-6.2 6.58 1.23 14.38-8.38 13.77 5.28 13.17-3.41 13.18 15.2 7.78 5.13 11.38 2.94L498 100.5" stroke="url(#dwvh11hzz)" stroke-width="2"/><path d="M14.98 137.59 2 155l.5 130H499V100.5l-16.96 42.05-11.38-2.95-7.79-5.12-13.17-15.2-13.17 3.41-13.77-5.28-14.38 8.38-6.58-1.24-7.19 6.2-7.18-18.61-13.18-4.66-11.97-5.27-11.98 3.72-11.97 7.45-16.77 19.55-9.58-3.72-7.79 3.72-12.57-2.17-6.59-8.07-12.53-3.41-17.5 3.41-11.5-18.93-13 3.72-8.34-3.72-11.38-4.66-8.98 1.56-7.78-4.66h-17.37l-4.79 9.93-13.17-3.72-13.77 13.96-13.18-4.03-7.18 7.14-16.77-1.87h-9.58l-4.79-5.27-13.77 4.03-8.98-4.03-4.2 4.03-13.17 6.2-10.18 6.84h-9.58l-7.18 11.17-11.38-2.8Z" fill="url(#ewvh11hzz)" fill-opacity=".2"/><path d="M319.83 239H39a16 16 0 0 0-16 16v137h565V255a16 16 0 0 0-16-16H319.83Z" fill="url(#fwvh11hzz)"/><path d="M271.01 289.19c-.97 0-1.82-.23-2.55-.67a4.52 4.52 0 0 1-1.66-1.88 6.59 6.59 0 0 1-.6-2.88v-.02c0-1.1.2-2.04.6-2.84.4-.8.95-1.42 1.66-1.86a4.73 4.73 0 0 1 2.54-.67c.86 0 1.59.16 2.2.46a3.9 3.9 0 0 1 2.17 2.9v.07h-1.67l-.02-.04a2.38 2.38 0 0 0-.87-1.32 2.75 2.75 0 0 0-1.8-.56c-.63 0-1.17.16-1.63.48-.45.31-.8.76-1.06 1.33a5.2 5.2 0 0 0-.37 2.06c0 .81.12 1.51.38 2.1a2.77 2.77 0 0 0 2.68 1.84c.7 0 1.28-.17 1.72-.48.45-.32.77-.77.95-1.35l.02-.06 1.68-.01-.02.1a3.87 3.87 0 0 1-2.2 2.88c-.6.28-1.32.42-2.15.42Zm-15.23-.19v-10.44h1.7v1.55h.14a3 3 0 0 1 1.15-1.27 3.6 3.6 0 0 1 1.92-.46c1.17 0 2.07.33 2.7 1.01.63.67.94 1.62.94 2.84V289h-1.7v-6.38c0-.92-.2-1.6-.59-2.06-.4-.45-1-.68-1.84-.68a2.8 2.8 0 0 0-1.44.36c-.4.24-.72.58-.95 1.03a3.4 3.4 0 0 0-.33 1.56V289h-1.7Zm-4.46 0v-14.1h1.76V289h-1.76Zm-11.47.19a4.34 4.34 0 0 1-4.22-2.52 6.58 6.58 0 0 1-.57-2.86c0-1.08.2-2.02.58-2.84a4.5 4.5 0 0 1 1.63-1.9c.7-.46 1.53-.7 2.48-.7a4.22 4.22 0 0 1 4.01 2.5c.37.79.55 1.7.55 2.74v.65h-8.38v-1.35h7.52l-.84 1.24v-.67c0-.82-.12-1.5-.37-2.02a2.65 2.65 0 0 0-1.02-1.18 2.81 2.81 0 0 0-1.48-.4 2.8 2.8 0 0 0-1.5.42c-.45.27-.8.68-1.06 1.21-.25.53-.38 1.2-.38 1.97v.67c0 .74.12 1.37.37 1.9.25.52.61.92 1.07 1.2.47.28 1.02.42 1.66.42a3.14 3.14 0 0 0 2.08-.7c.22-.2.38-.42.47-.65l.04-.08h1.7l-.03.07c-.08.38-.24.73-.48 1.08a4.02 4.02 0 0 1-2.18 1.56 5.4 5.4 0 0 1-1.65.24Zm-8.54-.19v-14.56h1.7V289h-1.7Zm-11.55 3.5v-13.94h1.7v1.69h.14a3.53 3.53 0 0 1 1.9-1.65 4 4 0 0 1 1.36-.23 4 4 0 0 1 2.31.68 4.35 4.35 0 0 1 1.54 1.88c.36.81.54 1.76.54 2.84v.02c0 1.09-.18 2.04-.54 2.85a4.03 4.03 0 0 1-3.84 2.55 3.87 3.87 0 0 1-2.49-.87 3.1 3.1 0 0 1-.78-.99h-.14v5.17h-1.7Zm4.73-4.82c.63 0 1.17-.16 1.62-.47.45-.31.8-.76 1.04-1.33.24-.6.36-1.29.36-2.1 0-.82-.12-1.51-.36-2.1a2.93 2.93 0 0 0-1.04-1.33 2.76 2.76 0 0 0-1.62-.47 2.8 2.8 0 0 0-1.64.48 3 3 0 0 0-1.05 1.34 5.24 5.24 0 0 0-.37 2.07v.02c0 .8.12 1.49.37 2.07.25.58.61 1.03 1.06 1.35.46.31 1 .47 1.63.47Zm-16.19 4.82v-13.94h1.7v1.69h.14a3.53 3.53 0 0 1 1.9-1.65c.42-.15.88-.23 1.36-.23a4 4 0 0 1 2.32.68 4.35 4.35 0 0 1 1.53 1.88c.37.81.55 1.76.55 2.84v.02a6.8 6.8 0 0 1-.55 2.85 4.03 4.03 0 0 1-3.84 2.55 3.85 3.85 0 0 1-2.49-.87 3.1 3.1 0 0 1-.78-.99h-.13v5.17h-1.7Zm4.73-4.82c.63 0 1.17-.16 1.62-.47a3 3 0 0 0 1.05-1.33c.24-.6.36-1.29.36-2.1 0-.82-.12-1.51-.36-2.1a2.93 2.93 0 0 0-1.05-1.33 2.76 2.76 0 0 0-1.62-.47 2.8 2.8 0 0 0-1.63.48 3 3 0 0 0-1.05 1.34 5.24 5.24 0 0 0-.37 2.07v.02c0 .8.12 1.49.37 2.07.25.58.6 1.03 1.06 1.35.46.31 1 .47 1.62.47ZM194.58 289l5.2-14.1h1.34v2.25h-.54L196.42 289h-1.84Zm2.36-4.03.56-1.5h6.33l.56 1.5h-7.45Zm7.94 4.03-4.17-11.86v-2.23h.81l5.2 14.09h-1.84Z" fill="#D1D4DC"/><rect x="99" y="265" width="67" height="32" rx="8.29" fill="#2A2E39"/><path d="M145.94 286.5v-11.68h2.09v9.92h5.35v1.76h-7.44Zm-9.89-3.86v-1.68h3.1c.75 0 1.34-.2 1.75-.58.42-.39.63-.93.63-1.63v-.02c0-.7-.21-1.25-.63-1.63-.41-.39-1-.58-1.75-.58h-3.1v-1.7h3.61c.8 0 1.49.17 2.08.49.6.32 1.06.78 1.4 1.37.33.58.5 1.26.5 2.04v.02c0 .78-.17 1.46-.5 2.05-.34.58-.8 1.04-1.4 1.36-.59.33-1.28.49-2.08.49h-3.61ZM135 286.5v-11.68h2.1v11.68H135Zm-12.64 0 4.14-11.68h1.73V277h-.62l-3.07 9.51h-2.19Zm2.08-3.02.55-1.6h5.35l.54 1.6h-6.44Zm6.37 3.02-3.07-9.5v-2.18h1.1L133 286.5h-2.19Zm-20.24 0 4.15-11.68h1.73V277h-.62l-3.07 9.51h-2.19Zm2.1-3.02.53-1.6h5.36l.54 1.6h-6.44Zm6.36 3.02-3.07-9.5v-2.18h1.1l4.16 11.68h-2.19Z" fill="#fff"/><rect x="47" y="265" width="32" height="32" rx="16" fill="#000"/><path d="m70.43 283.85-.31.8a9.3 9.3 0 0 1-.95 1.65c-.5.7-.9 1.17-1.22 1.44a2.4 2.4 0 0 1-1.57.67c-.4 0-.89-.11-1.45-.34a4.27 4.27 0 0 0-1.56-.33c-.5 0-1.04.1-1.61.33-.57.23-1.03.35-1.39.36-.53.02-1.07-.21-1.6-.7a10.16 10.16 0 0 1-3.2-7.2c0-1.14.26-2.13.77-2.96a4.44 4.44 0 0 1 3.78-2.18c.42 0 .98.13 1.68.38.69.25 1.13.38 1.33.38.14 0 .64-.15 1.48-.45a5 5 0 0 1 2-.34 4.3 4.3 0 0 1 3.34 1.7c-1.32.79-1.98 1.88-1.97 3.29.02 1.09.42 2 1.23 2.72.36.34.77.6 1.22.78Zm-3.73-12.56.01.34a3.6 3.6 0 0 1-.96 2.4c-.78.88-1.71 1.39-2.73 1.3l-.02-.32a3.94 3.94 0 0 1 2.27-3.33c.5-.24.98-.37 1.43-.4Z" fill="#fff"/><path d="M377.7 289v-14.56h1.7V289h-1.7Zm-4.37 0v-14.56h1.7V289h-1.7Zm-6.51.19a4.34 4.34 0 0 1-4.22-2.52 6.56 6.56 0 0 1-.57-2.86c0-1.08.19-2.02.57-2.84a4.5 4.5 0 0 1 1.63-1.9c.71-.46 1.54-.7 2.48-.7a4.22 4.22 0 0 1 4.01 2.5c.37.79.55 1.7.55 2.74v.65h-8.37v-1.35h7.52l-.85 1.24v-.67c0-.82-.12-1.5-.37-2.02a2.65 2.65 0 0 0-1.01-1.18 2.8 2.8 0 0 0-1.49-.4 2.8 2.8 0 0 0-1.5.42c-.44.27-.8.68-1.05 1.21a4.5 4.5 0 0 0-.38 1.97v.67c0 .74.12 1.37.37 1.9.25.52.6.92 1.07 1.2.47.28 1.02.42 1.65.42a3.2 3.2 0 0 0 2.08-.7c.23-.2.39-.42.48-.65l.04-.08h1.69l-.02.07c-.09.38-.25.73-.48 1.08a4 4 0 0 1-2.19 1.56c-.5.16-1.04.24-1.64.24Zm-11.52.12a6.72 6.72 0 0 1-2.68-.5 3.96 3.96 0 0 1-2.6-3.42v-.11h1.75l.02.12c.06.47.24.87.55 1.22.31.34.73.6 1.26.79a5.33 5.33 0 0 0 3.52-.02c.5-.2.9-.49 1.18-.85.28-.37.42-.79.42-1.26v-.01c0-.6-.22-1.08-.65-1.47-.43-.4-1.13-.7-2.1-.92l-1.56-.34a7.8 7.8 0 0 1-2.3-.85 3.57 3.57 0 0 1-1.31-1.31 3.66 3.66 0 0 1-.43-1.8v-.01c0-.78.22-1.47.64-2.06.43-.6 1-1.07 1.75-1.4.75-.35 1.6-.51 2.57-.51.94 0 1.77.16 2.49.5.72.34 1.3.79 1.72 1.36.43.57.66 1.21.71 1.94l.01.13h-1.76l-.02-.13a2.26 2.26 0 0 0-.5-1.14 2.7 2.7 0 0 0-1.1-.76 4.16 4.16 0 0 0-1.6-.28c-.6 0-1.12.1-1.6.28-.46.18-.83.45-1.1.8a1.9 1.9 0 0 0-.42 1.22v.01c0 .38.1.71.28 1 .19.3.48.55.87.77.4.21.9.39 1.54.53l1.56.35c.98.21 1.78.5 2.38.84a3.25 3.25 0 0 1 1.72 3.04v.01a3.9 3.9 0 0 1-2.45 3.73c-.78.34-1.7.51-2.75.51Z" fill="#F23645"/><path d="M517.77 289v-11.27h3.86c1.12 0 2.07.22 2.86.67.8.44 1.4 1.08 1.83 1.92.42.84.63 1.85.63 3.03v.02c0 1.18-.2 2.2-.63 3.04a4.47 4.47 0 0 1-1.82 1.93c-.8.44-1.75.66-2.87.66h-3.86Zm1.4-1.27h2.37c.84 0 1.55-.17 2.15-.51.6-.35 1.04-.84 1.36-1.5.3-.64.47-1.43.47-2.34v-.01c0-.92-.16-1.7-.48-2.35a3.34 3.34 0 0 0-1.36-1.5c-.6-.35-1.3-.53-2.14-.53h-2.37v8.74Zm-7.6 1.54a5.4 5.4 0 0 1-2.15-.4 3.67 3.67 0 0 1-1.46-1.11 3.15 3.15 0 0 1-.61-1.63l-.01-.08h1.4l.01.08c.04.38.18.7.43.98.26.27.6.48 1.02.63a4.34 4.34 0 0 0 2.81-.01c.4-.17.72-.4.95-.7.23-.28.34-.62.34-1 0-.47-.17-.87-.51-1.19-.35-.32-.9-.57-1.68-.74l-1.25-.27a6.23 6.23 0 0 1-1.85-.68c-.47-.3-.82-.64-1.05-1.06a3 3 0 0 1-.34-1.43v-.01c0-.63.18-1.18.5-1.66.35-.48.81-.85 1.4-1.12.6-.27 1.3-.4 2.07-.4.75 0 1.41.13 2 .4a3.5 3.5 0 0 1 1.37 1.07c.34.46.53.97.57 1.53v.1h-1.4l-.02-.1a1.74 1.74 0 0 0-.4-.88 2.22 2.22 0 0 0-.88-.61 3.15 3.15 0 0 0-1.28-.22c-.47 0-.89.07-1.26.22a2.1 2.1 0 0 0-.9.63c-.22.27-.33.6-.33 1 0 .3.07.57.22.81.14.24.37.44.69.61.31.17.73.32 1.24.43l1.25.28c.78.17 1.42.4 1.9.67.48.28.82.62 1.04 1.02.23.4.34.86.34 1.4v.01c0 .7-.17 1.31-.52 1.82-.34.51-.83.91-1.45 1.2a5.4 5.4 0 0 1-2.2.4Zm-10.7 0a5.1 5.1 0 0 1-2.4-.53 3.73 3.73 0 0 1-1.55-1.45 4.26 4.26 0 0 1-.54-2.17v-7.4h1.41v7.31c0 .58.12 1.09.36 1.53.24.44.6.78 1.05 1.03.46.25 1.02.38 1.67.38.65 0 1.2-.13 1.65-.38.46-.25.81-.59 1.05-1.03.24-.44.36-.95.36-1.53v-7.3h1.4v7.4c0 .81-.17 1.53-.53 2.16-.36.62-.87 1.1-1.53 1.45-.67.35-1.47.53-2.4.53Z" fill="#B2B5BE"/><path d="M484.79 289v-12.16h-.13l-3.62 2.6v-1.84l3.75-2.7h1.74V289h-1.74Zm-12.44.23c-1 0-1.87-.17-2.64-.51a4.39 4.39 0 0 1-1.8-1.43 3.53 3.53 0 0 1-.65-2.1v-.02c0-.58.13-1.12.38-1.6a3.94 3.94 0 0 1 2.63-2v-.04a3.72 3.72 0 0 1-1.83-1.2 2.99 2.99 0 0 1-.67-1.94v-.01c0-.71.2-1.35.58-1.9.4-.56.94-1 1.63-1.32a5.49 5.49 0 0 1 2.37-.49c.88 0 1.66.17 2.35.5.7.31 1.24.75 1.63 1.31.4.55.6 1.19.6 1.9v.01c0 .75-.23 1.4-.69 1.95-.44.55-1.05.95-1.81 1.19v.04a3.93 3.93 0 0 1 2.62 2c.25.49.38 1.02.38 1.6v.02a3.5 3.5 0 0 1-.66 2.1 4.4 4.4 0 0 1-1.8 1.43c-.76.34-1.63.51-2.62.51Zm0-1.53c.64 0 1.2-.11 1.7-.33.5-.23.89-.54 1.17-.93.28-.4.42-.85.42-1.36v-.02c0-.51-.14-.97-.42-1.36-.28-.4-.67-.71-1.16-.94a4.05 4.05 0 0 0-1.71-.34 4.1 4.1 0 0 0-1.72.34c-.5.23-.88.54-1.16.94-.28.4-.42.85-.42 1.36v.02c0 .51.14.96.42 1.36.28.4.67.7 1.17.93.5.22 1.06.33 1.7.33Zm0-6.82c.56 0 1.05-.1 1.47-.3.43-.2.76-.48 1-.83s.36-.75.36-1.2v-.03c0-.45-.12-.86-.36-1.2a2.4 2.4 0 0 0-1-.83c-.42-.2-.91-.3-1.47-.3-.56 0-1.06.1-1.49.3-.42.2-.75.47-1 .82-.23.35-.34.76-.34 1.21v.02c0 .46.11.86.35 1.21s.57.63 1 .83c.42.2.92.3 1.48.3Z" fill="#F23645"/><path d="M463.8 289.1a1.2 1.2 0 0 1-.88-.35 1.19 1.19 0 0 1-.36-.87c0-.35.12-.64.37-.87.24-.24.52-.36.86-.36.35 0 .64.12.87.36.24.23.36.52.36.87 0 .33-.12.63-.36.87-.23.24-.52.36-.87.36Zm-8.5.21a5.2 5.2 0 0 1-2.35-.51 4.24 4.24 0 0 1-2.37-3.44v-.11h1.7v.08c.06.45.23.86.5 1.23s.63.66 1.06.88c.44.21.94.32 1.49.32.62 0 1.17-.14 1.65-.41.48-.28.85-.66 1.12-1.15.27-.5.4-1.05.4-1.68v-.02a3.3 3.3 0 0 0-.4-1.65 2.9 2.9 0 0 0-1.12-1.15 3.17 3.17 0 0 0-1.62-.4c-.47 0-.9.07-1.3.21a3.15 3.15 0 0 0-1.7 1.48h-1.53l.73-8.08h7.88v1.57h-6.48l-.47 4.76h.12c.22-.32.48-.59.78-.8a4.17 4.17 0 0 1 2.27-.66 4.31 4.31 0 0 1 3.97 2.29c.4.69.6 1.5.6 2.4v.02c0 .94-.21 1.78-.63 2.5a4.47 4.47 0 0 1-1.75 1.7c-.74.42-1.58.62-2.54.62Z" fill="#D1D4DC"/><rect x="100" y="320" width="67" height="32" rx="8.29" fill="#2A2E39"/><path d="M152.85 341.8a5.9 5.9 0 0 1-2.28-.43 4.82 4.82 0 0 1-1.73-1.23 5.5 5.5 0 0 1-1.1-1.93 7.97 7.97 0 0 1-.38-2.54v-.02c0-1.25.23-2.32.68-3.24a5.02 5.02 0 0 1 4.78-2.88c.9 0 1.7.16 2.41.49.71.32 1.3.76 1.75 1.34.45.57.74 1.24.86 2l.02.08h-2.07l-.03-.08a2.64 2.64 0 0 0-1.05-1.49 3.24 3.24 0 0 0-1.9-.53 3.01 3.01 0 0 0-2.91 2.01c-.27.64-.4 1.4-.4 2.28v.02c0 .67.07 1.27.23 1.8.15.54.38 1 .67 1.37a2.98 2.98 0 0 0 2.48 1.17c.6 0 1.12-.12 1.56-.35.46-.23.81-.56 1.06-.97.26-.42.4-.9.41-1.45v-.24h-2.8v-1.6h4.84v1.46a5.6 5.6 0 0 1-.36 2.05 4.3 4.3 0 0 1-2.63 2.55c-.63.24-1.33.35-2.1.35Zm-12.91 0a5 5 0 0 1-4.85-2.87 7.38 7.38 0 0 1-.67-3.26v-.02c0-1.26.22-2.34.67-3.25a4.98 4.98 0 0 1 1.92-2.12c.83-.5 1.8-.75 2.93-.75a5.6 5.6 0 0 1 2.94.75c.83.5 1.46 1.2 1.91 2.12.45.91.67 2 .67 3.25v.02c0 1.25-.22 2.33-.67 3.25a4.93 4.93 0 0 1-1.9 2.13c-.83.5-1.8.74-2.95.74Zm0-1.81a3.06 3.06 0 0 0 2.98-2.04c.28-.65.42-1.41.42-2.28v-.02c0-.88-.14-1.64-.42-2.28a3.37 3.37 0 0 0-1.17-1.5 3.01 3.01 0 0 0-1.8-.53c-.7 0-1.3.18-1.81.53-.5.35-.9.85-1.18 1.5-.28.64-.41 1.4-.41 2.28v.02c0 .87.13 1.63.4 2.28.28.65.67 1.15 1.17 1.5a3.1 3.1 0 0 0 1.82.54ZM127 341.8a5 5 0 0 1-4.86-2.87 7.53 7.53 0 0 1-.67-3.26v-.02c0-1.26.23-2.34.67-3.25a4.98 4.98 0 0 1 1.92-2.12c.83-.5 1.81-.75 2.94-.75a5.6 5.6 0 0 1 2.94.75 4.9 4.9 0 0 1 1.9 2.12c.45.91.68 2 .68 3.25v.02c0 1.25-.23 2.33-.68 3.25a4.93 4.93 0 0 1-1.9 2.13c-.82.5-1.8.74-2.94.74Zm0-1.81a3.06 3.06 0 0 0 2.98-2.04c.28-.65.42-1.41.42-2.28v-.02c0-.88-.14-1.64-.42-2.28a3.37 3.37 0 0 0-1.18-1.5c-.5-.36-1.1-.53-1.8-.53s-1.3.18-1.8.53c-.51.35-.9.85-1.19 1.5-.27.64-.41 1.4-.41 2.28v.02c0 .87.14 1.63.4 2.28a3.1 3.1 0 0 0 3 2.04Zm-12.57 1.81a5.9 5.9 0 0 1-2.28-.43 4.82 4.82 0 0 1-1.73-1.23 5.5 5.5 0 0 1-1.1-1.93 7.97 7.97 0 0 1-.37-2.54v-.02c0-1.25.22-2.32.67-3.24a5.02 5.02 0 0 1 4.78-2.88c.9 0 1.7.16 2.41.49.71.32 1.3.76 1.75 1.34.45.57.74 1.24.86 2l.02.08h-2.07l-.03-.08a2.64 2.64 0 0 0-1.05-1.49 3.24 3.24 0 0 0-1.89-.53 3.01 3.01 0 0 0-2.92 2.01c-.27.64-.4 1.4-.4 2.28v.02c0 .67.07 1.27.23 1.8.16.54.38 1 .67 1.37a2.98 2.98 0 0 0 2.48 1.17c.6 0 1.12-.12 1.57-.35.45-.23.8-.56 1.06-.97.25-.42.39-.9.4-1.45v-.24h-2.8v-1.6h4.84v1.46a5.6 5.6 0 0 1-.36 2.05 4.3 4.3 0 0 1-2.63 2.55c-.63.24-1.33.35-2.1.35Zm192.1 2.3c-.34 0-.63-.11-.87-.35a1.18 1.18 0 0 1-.36-.87c0-.35.12-.64.36-.87.24-.24.53-.36.87-.36.34 0 .63.12.87.36.24.23.36.52.36.87 0 .33-.12.63-.36.87s-.53.36-.87.36Zm-7.48.09a4.8 4.8 0 0 1-2.55-.67 4.52 4.52 0 0 1-1.67-1.88 6.59 6.59 0 0 1-.59-2.88v-.02c0-1.1.2-2.04.59-2.84.4-.8.95-1.42 1.67-1.86a4.73 4.73 0 0 1 2.54-.67 5 5 0 0 1 2.2.46 3.9 3.9 0 0 1 2.16 2.9l.01.07h-1.68l-.02-.04a2.38 2.38 0 0 0-.86-1.32 2.74 2.74 0 0 0-1.81-.56c-.63 0-1.17.16-1.62.48a3.1 3.1 0 0 0-1.07 1.33 5.19 5.19 0 0 0-.37 2.06c0 .81.13 1.51.38 2.1.26.58.61 1.03 1.07 1.35.46.32 1 .48 1.6.48.72 0 1.3-.16 1.74-.47.45-.32.76-.77.94-1.35l.02-.06 1.68-.01-.02.1a3.88 3.88 0 0 1-2.2 2.88c-.6.28-1.31.42-2.14.42Zm-15.24-.19v-10.44h1.7v1.55h.14c.27-.54.65-.96 1.15-1.27.51-.3 1.15-.46 1.93-.46 1.16 0 2.06.33 2.7 1.01.62.67.94 1.62.94 2.84V344h-1.7v-6.38c0-.92-.2-1.6-.6-2.06-.4-.45-1-.68-1.83-.68a2.49 2.49 0 0 0-2.4 1.39 3.4 3.4 0 0 0-.33 1.56V344h-1.7Zm-4.46 0v-14.1h1.76V344h-1.76Zm-7.91.1c-1.05 0-1.82-.21-2.3-.65-.48-.44-.71-1.16-.71-2.14v-6.34h-1.62v-1.4h1.62v-2.73h1.75v2.72h2.22v1.4h-2.21v6.01c0 .6.11 1.03.35 1.28.23.25.61.37 1.14.37a5.5 5.5 0 0 0 .72-.04v1.44l-.47.06c-.16.02-.33.03-.5.03Zm-10.06.09a4.33 4.33 0 0 1-4.22-2.52 6.58 6.58 0 0 1-.58-2.86c0-1.08.2-2.02.58-2.84a4.5 4.5 0 0 1 1.63-1.9c.7-.46 1.54-.7 2.48-.7s1.76.23 2.44.67c.69.44 1.2 1.05 1.57 1.83.37.79.55 1.7.55 2.74v.65h-8.38v-1.35h7.52l-.84 1.24v-.67c0-.82-.12-1.5-.37-2.02a2.65 2.65 0 0 0-1.02-1.18 2.81 2.81 0 0 0-1.48-.4 2.8 2.8 0 0 0-1.5.42c-.45.27-.8.68-1.06 1.21-.25.53-.38 1.2-.38 1.97v.67c0 .74.12 1.37.37 1.9.25.52.61.92 1.08 1.2.46.28 1.02.42 1.65.42a3.14 3.14 0 0 0 2.08-.7c.22-.2.38-.42.48-.65l.03-.08h1.7l-.03.07c-.08.38-.24.73-.48 1.08a4.02 4.02 0 0 1-2.18 1.56c-.5.16-1.04.24-1.64.24Zm-10.64 0a3.9 3.9 0 0 1-1.35-.23 3.55 3.55 0 0 1-1.92-1.65h-.13V344h-1.7v-14.56h1.7v5.79h.13c.2-.38.47-.71.8-.99a3.89 3.89 0 0 1 2.49-.87 4 4 0 0 1 2.3.68 4.37 4.37 0 0 1 1.53 1.87c.37.81.55 1.76.55 2.85v.02c0 1.08-.18 2.03-.55 2.85a4.05 4.05 0 0 1-3.85 2.55Zm-.38-1.5a2.8 2.8 0 0 0 1.63-.48c.45-.31.8-.76 1.04-1.33.25-.6.37-1.29.37-2.1v-.01c0-.81-.12-1.5-.37-2.08a2.96 2.96 0 0 0-1.04-1.34 2.8 2.8 0 0 0-1.63-.47 2.78 2.78 0 0 0-2.67 1.82 5.21 5.21 0 0 0-.38 2.07v.02c0 .79.13 1.48.38 2.06.24.6.6 1.04 1.05 1.36.46.31 1 .47 1.62.47Zm-12.24 1.5c-.67 0-1.26-.13-1.79-.38a3.06 3.06 0 0 1-1.24-1.08 2.99 2.99 0 0 1-.45-1.65v-.02c0-.62.15-1.14.44-1.58a3 3 0 0 1 1.3-1.05c.56-.25 1.25-.4 2.06-.45l3.84-.22v1.35l-3.63.22c-.78.05-1.35.21-1.72.5-.37.29-.55.69-.55 1.2v.02c0 .52.2.93.59 1.22.4.3.9.44 1.5.44.57 0 1.08-.11 1.52-.34a2.46 2.46 0 0 0 1.44-2.28v-3.2c0-.65-.2-1.15-.59-1.5-.39-.34-.97-.51-1.74-.51-.63 0-1.16.12-1.56.36-.4.24-.67.56-.8.99l-.01.04h-1.68l.01-.07c.08-.56.3-1.04.66-1.47.35-.42.82-.75 1.41-1a5.28 5.28 0 0 1 2.02-.36 5 5 0 0 1 2.15.43c.6.27 1.05.66 1.36 1.19.31.51.47 1.13.47 1.84V344h-1.7v-1.57h-.13a3.46 3.46 0 0 1-1.88 1.55 4 4 0 0 1-1.3.2Zm-13.9-.19v-14.56h1.7v5.71h.13c.27-.56.66-1 1.17-1.3.5-.32 1.15-.48 1.92-.48s1.43.16 1.98.47c.54.32.96.77 1.26 1.36.29.59.44 1.3.44 2.12V344h-1.7v-6.29c0-.94-.21-1.65-.63-2.12-.4-.47-1.03-.71-1.85-.71a2.5 2.5 0 0 0-2.38 1.39c-.23.44-.34.96-.34 1.57V344h-1.7Zm-11.55 3.5v-13.94h1.7v1.69h.14a3.52 3.52 0 0 1 1.9-1.65 4 4 0 0 1 1.36-.23 4 4 0 0 1 2.31.68 4.34 4.34 0 0 1 1.53 1.88c.37.81.55 1.76.55 2.84v.02c0 1.09-.18 2.04-.54 2.85a4.03 4.03 0 0 1-3.84 2.55 3.87 3.87 0 0 1-2.49-.87 3 3 0 0 1-.78-.99h-.14v5.17h-1.7Zm4.73-4.82c.63 0 1.17-.16 1.62-.47.45-.31.8-.76 1.04-1.33.24-.6.36-1.29.36-2.1 0-.82-.12-1.51-.36-2.1a2.93 2.93 0 0 0-1.04-1.33 2.77 2.77 0 0 0-1.62-.47 2.8 2.8 0 0 0-2.69 1.82 5.26 5.26 0 0 0-.37 2.07v.02c0 .8.12 1.49.37 2.07.25.58.61 1.03 1.06 1.35.46.31 1 .47 1.63.47Zm-9 1.32v-14.56h1.7V344h-1.7Zm-13.82 0 5.2-14.1h1.34v2.25h-.54L196.42 344h-1.84Zm2.36-4.03.56-1.5h6.33l.56 1.5h-7.45Zm7.94 4.03-4.17-11.86v-2.23h.81l5.2 14.09h-1.84Z" fill="#D1D4DC"/><rect x="47" y="320" width="32" height="32" rx="16" fill="#F0F3FA"/><path d="M71.72 334.73H63v3.19h5.02a5.21 5.21 0 0 1-5.02 3.41 5.33 5.33 0 1 1 3.54-9.31l2.51-2.52a8.89 8.89 0 1 0 2.84 6.5c0-.48-.06-.7-.17-1.27Z" fill="#FFC107"/><path d="m55.14 331.86 2.92 2.14a5.33 5.33 0 0 1 8.48-1.98l2.51-2.52a8.85 8.85 0 0 0-13.91 2.36Z" fill="#FF3D00"/><path d="M63 344.89c2.3 0 4.38-.88 5.96-2.3l-2.75-2.34a5.33 5.33 0 0 1-8.22-2.45l-2.9 2.24a8.88 8.88 0 0 0 7.91 4.85Z" fill="#4CAF50"/><path d="M71.72 334.73H63v3.19h5.02c-.35 1-.99 1.7-1.81 2.33l2.75 2.33c-.2.18 2.93-2.13 2.93-6.58 0-.6-.06-.7-.17-1.27Z" fill="#1976D2"/><path d="M374.76 347.62a4.46 4.46 0 0 1-.78-.06v-1.4a5.88 5.88 0 0 0 .66.05c.5 0 .9-.11 1.21-.34.32-.23.57-.65.75-1.25l.21-.61-3.87-10.45h1.82l3.16 9.52-.6-.9h.74l-.6.9 3.16-9.52h1.79l-4.08 11.08a7.73 7.73 0 0 1-.9 1.78c-.3.44-.67.75-1.1.93-.42.18-.94.27-1.57.27Zm-8.35-3.43c-.78 0-1.44-.15-1.98-.45a2.9 2.9 0 0 1-1.21-1.33 4.94 4.94 0 0 1-.4-2.08v-6.77h1.7v6.38c0 .92.18 1.6.55 2.06.37.45.97.68 1.8.68.45 0 .85-.07 1.2-.2a2.4 2.4 0 0 0 1.42-1.51c.11-.37.17-.78.17-1.24v-6.17h1.7V344h-1.7v-1.54h-.12a2.87 2.87 0 0 1-1.75 1.52c-.4.14-.87.2-1.38.2Zm-14.83-.19v-1.55h4.3c1.07 0 1.87-.21 2.42-.64a2.2 2.2 0 0 0 .82-1.84v-.02c0-.54-.13-1-.38-1.36a2.27 2.27 0 0 0-1.15-.82 5.53 5.53 0 0 0-1.87-.27h-4.14v-1.52h3.64c1.06 0 1.86-.19 2.4-.57.54-.39.81-.95.81-1.7v-.02c0-.71-.24-1.26-.72-1.64a3.08 3.08 0 0 0-2.01-.59h-4.12v-1.55h4.49c.85 0 1.59.14 2.2.43a3.24 3.24 0 0 1 1.94 3.07v.02a3.26 3.26 0 0 1-1.21 2.48c-.37.3-.78.48-1.24.56v.14c.65.08 1.21.27 1.68.57.48.31.84.7 1.1 1.2.25.48.38 1.04.38 1.66v.01c0 .82-.19 1.53-.57 2.12a3.67 3.67 0 0 1-1.63 1.36c-.71.31-1.57.47-2.57.47h-4.57Zm-.88 0v-14.1h1.76V344h-1.76Z" fill="#2962FF"/><path d="M529.79 344v-11.27h3.86c1.12 0 2.07.22 2.86.67.8.44 1.4 1.08 1.83 1.92.42.84.63 1.85.63 3.03v.02c0 1.18-.2 2.2-.63 3.04a4.47 4.47 0 0 1-1.82 1.93 5.8 5.8 0 0 1-2.87.66h-3.86Zm1.4-1.27h2.37c.84 0 1.55-.17 2.15-.51.6-.35 1.04-.84 1.36-1.5.31-.64.47-1.43.47-2.34v-.01c0-.92-.16-1.7-.48-2.35a3.34 3.34 0 0 0-1.36-1.5c-.6-.35-1.3-.53-2.14-.53h-2.37v8.74Zm-7.59 1.54a5.4 5.4 0 0 1-2.16-.4 3.67 3.67 0 0 1-1.46-1.11 3.15 3.15 0 0 1-.61-1.63l-.01-.08h1.4l.01.08c.04.38.18.7.43.98.26.27.6.48 1.02.63a4.34 4.34 0 0 0 2.81-.01c.4-.17.72-.4.95-.7.23-.28.34-.62.34-1 0-.47-.17-.87-.51-1.19-.35-.32-.9-.57-1.68-.74l-1.25-.27a6.24 6.24 0 0 1-1.85-.68c-.47-.3-.82-.64-1.05-1.06a3 3 0 0 1-.34-1.43v-.01c0-.63.18-1.18.5-1.66.35-.48.81-.85 1.4-1.12.6-.27 1.3-.4 2.07-.4.75 0 1.41.13 2 .4a3.5 3.5 0 0 1 1.37 1.07c.34.46.53.97.57 1.53v.1h-1.4l-.02-.1a1.75 1.75 0 0 0-.4-.88 2.23 2.23 0 0 0-.88-.61 3.15 3.15 0 0 0-1.28-.22c-.47 0-.89.07-1.26.22a2.1 2.1 0 0 0-.9.63c-.22.27-.33.6-.33 1 0 .3.07.57.22.81.14.24.37.44.69.61.31.17.73.32 1.24.43l1.25.28c.78.17 1.42.4 1.9.67.48.28.82.62 1.04 1.02.23.4.34.86.34 1.4v.01c0 .7-.17 1.31-.52 1.82-.34.51-.83.91-1.45 1.2a5.4 5.4 0 0 1-2.2.4Zm-10.71 0a5.1 5.1 0 0 1-2.4-.53 3.74 3.74 0 0 1-1.55-1.45 4.27 4.27 0 0 1-.54-2.17v-7.4h1.41v7.31c0 .58.12 1.09.36 1.53.25.44.6.78 1.06 1.03.45.25 1 .38 1.66.38.65 0 1.2-.13 1.65-.38.46-.25.81-.59 1.05-1.03.24-.44.36-.95.36-1.53v-7.3h1.4v7.4c0 .81-.17 1.53-.53 2.16-.36.62-.87 1.1-1.53 1.45-.67.35-1.47.53-2.4.53Z" fill="#B2B5BE"/><path d="M496.46 344.23c-.95 0-1.78-.16-2.5-.5a3.9 3.9 0 0 1-2.4-3.35v-.11h1.7v.1c.05.46.2.87.48 1.22.28.35.64.63 1.1.83a4.1 4.1 0 0 0 3.19-.03c.45-.22.8-.51 1.05-.89.26-.38.38-.82.38-1.32v-.02c0-.86-.28-1.53-.84-1.99a3.42 3.42 0 0 0-2.27-.7h-1.72v-1.49h1.64c.55 0 1.03-.1 1.44-.31.41-.22.74-.5.97-.87.24-.37.37-.79.37-1.26v-.02c0-.5-.1-.91-.32-1.26-.2-.34-.5-.6-.89-.79a3.25 3.25 0 0 0-1.4-.27c-.54 0-1.02.1-1.45.28a2.43 2.43 0 0 0-1.46 2.02v.1h-1.7l.02-.1a4.02 4.02 0 0 1 2.3-3.35 5.24 5.24 0 0 1 2.29-.48c.88 0 1.64.16 2.3.47.64.3 1.15.74 1.52 1.28.36.54.54 1.17.54 1.89v.02a3 3 0 0 1-.38 1.54c-.25.45-.59.82-1.02 1.12-.44.3-.94.51-1.5.64v.04c.99.08 1.8.43 2.41 1.04.63.6.94 1.41.94 2.41v.02c0 .78-.2 1.48-.62 2.1-.42.62-.99 1.1-1.71 1.47a5.5 5.5 0 0 1-2.46.52ZM480 344v-1.21l4.69-5.16c.6-.65 1.06-1.2 1.39-1.62.33-.43.56-.81.7-1.16.12-.35.19-.72.19-1.13v-.02c0-.5-.1-.93-.32-1.31-.2-.4-.5-.7-.9-.92a2.63 2.63 0 0 0-1.36-.34c-.55 0-1.03.12-1.46.35a2.72 2.72 0 0 0-1.33 2.4v.03h-1.69v-.03a4.19 4.19 0 0 1 2.22-3.73 4.87 4.87 0 0 1 2.35-.55c.8 0 1.54.17 2.18.51a3.77 3.77 0 0 1 2.09 3.43v.02a4.4 4.4 0 0 1-.27 1.53c-.18.5-.5 1.04-.97 1.64-.46.6-1.1 1.34-1.94 2.22l-3.6 3.81.46-.87v.87l-.45-.34h7V344H480Zm-4.19.1a1.2 1.2 0 0 1-.87-.35 1.18 1.18 0 0 1-.36-.87c0-.35.12-.64.37-.87.24-.24.53-.36.86-.36.35 0 .64.12.87.36a1.21 1.21 0 0 1 0 1.74c-.23.24-.52.36-.87.36Zm-6.97-.1v-2.92h-6.8v-1.6a405.2 405.2 0 0 1 2.36-3.89 286.8 286.8 0 0 1 3.6-5.68h2.56v9.6h1.96v1.57h-1.96V344h-1.72Zm-5.02-4.48h5.03v-8.01h-.1a167.91 167.91 0 0 0-2.98 4.7l-1 1.62-.95 1.59v.1Zm-8.16 4.48v-12.16h-.13l-3.62 2.6v-1.84l3.75-2.7h1.74V344h-1.74Z" fill="#D1D4DC"/><path fill="url(#gwvh11hzz)" d="M0 327h612v65H0z"/><circle cx="498" cy="100" r="4" fill="#45E5CB"/><circle cx="498" cy="100" r="11.5" stroke="#45E5CB"/><path d="M585.2 111.3a3.7 3.7 0 0 1-2.4-.81 5.07 5.07 0 0 1-1.54-2.3c-.36-.99-.54-2.17-.54-3.53v-.01c0-1.36.18-2.54.54-3.53.36-.99.87-1.75 1.54-2.3.67-.53 1.47-.8 2.4-.8.94 0 1.75.27 2.41.8a5.18 5.18 0 0 1 1.55 2.3c.36 1 .55 2.17.55 3.53v.01c0 1.36-.19 2.54-.55 3.54a5.09 5.09 0 0 1-1.55 2.29c-.66.54-1.47.8-2.4.8Zm0-1.38c.62 0 1.13-.22 1.56-.64a4.2 4.2 0 0 0 1-1.82c.24-.79.36-1.72.36-2.8v-.01c0-1.08-.12-2.01-.36-2.8a4.13 4.13 0 0 0-1-1.8 2.12 2.12 0 0 0-1.55-.64c-.6 0-1.13.21-1.56.64a4.06 4.06 0 0 0-1 1.8 10 10 0 0 0-.34 2.8v.01c0 1.08.12 2.01.35 2.8.23.78.56 1.39.99 1.82.43.42.95.64 1.56.64Zm-11.31 1.38c-.94 0-1.74-.27-2.41-.81a5.08 5.08 0 0 1-1.54-2.3c-.36-.99-.54-2.17-.54-3.53v-.01c0-1.36.18-2.54.54-3.53.36-.99.87-1.75 1.54-2.3.67-.53 1.47-.8 2.4-.8.94 0 1.75.27 2.41.8a5.18 5.18 0 0 1 1.55 2.3c.36 1 .55 2.17.55 3.53v.01c0 1.36-.19 2.54-.55 3.54a5.09 5.09 0 0 1-1.55 2.29c-.66.54-1.47.8-2.4.8Zm0-1.38c.6 0 1.12-.22 1.55-.64.43-.43.77-1.04 1-1.82a9.8 9.8 0 0 0 .35-2.8v-.01c0-1.08-.11-2.01-.35-2.8a4.1 4.1 0 0 0-1-1.8 2.12 2.12 0 0 0-1.55-.64c-.6 0-1.13.21-1.56.64a4.04 4.04 0 0 0-1 1.8c-.22.79-.34 1.72-.34 2.8v.01c0 1.08.12 2.01.35 2.8.23.78.56 1.39.99 1.82.43.42.95.64 1.56.64Zm-8.29 1.17c-.31 0-.58-.11-.8-.34a1.09 1.09 0 0 1-.34-.8c0-.31.12-.58.34-.8.22-.22.49-.33.8-.33.31 0 .58.11.8.33.22.22.33.49.33.8 0 .31-.11.58-.33.8-.22.23-.49.34-.8.34Zm-8.3.21c-.95 0-1.75-.27-2.42-.81a5.07 5.07 0 0 1-1.53-2.3c-.36-.99-.54-2.17-.54-3.53v-.01c0-1.36.18-2.54.54-3.53.35-.99.87-1.75 1.53-2.3.67-.53 1.47-.8 2.41-.8.94 0 1.74.27 2.41.8a5.26 5.26 0 0 1 1.55 2.3c.36 1 .54 2.17.54 3.53v.01c0 1.36-.18 2.54-.54 3.54-.37.99-.88 1.75-1.55 2.29s-1.47.8-2.4.8Zm0-1.38c.6 0 1.12-.22 1.55-.64a4.2 4.2 0 0 0 1-1.82c.23-.79.35-1.72.35-2.8v-.01c0-1.08-.12-2.01-.35-2.8a4.13 4.13 0 0 0-1-1.8 2.12 2.12 0 0 0-1.56-.64c-.6 0-1.12.21-1.55.64a4.06 4.06 0 0 0-1 1.8 10 10 0 0 0-.34 2.8v.01c0 1.08.12 2.01.34 2.8.23.78.56 1.39 1 1.82.43.42.95.64 1.55.64Zm-11.32 1.29c-.88 0-1.67-.15-2.36-.46a3.94 3.94 0 0 1-1.61-1.29 3.17 3.17 0 0 1-.6-1.89v-.01a3.2 3.2 0 0 1 1.3-2.59 3.6 3.6 0 0 1 1.4-.66v-.03a3.39 3.39 0 0 1-1.64-1.08c-.4-.5-.6-1.08-.6-1.75v-.01c0-.64.18-1.21.53-1.7.36-.51.85-.9 1.46-1.2a4.9 4.9 0 0 1 2.12-.43c.8 0 1.5.14 2.11.44.62.28 1.1.68 1.46 1.18.36.5.54 1.07.54 1.7v.02c0 .67-.2 1.26-.61 1.75-.4.5-.95.86-1.64 1.08v.03a3.53 3.53 0 0 1 2.35 1.8c.23.44.34.92.34 1.45v.01c0 .71-.2 1.34-.59 1.9-.38.54-.92.97-1.6 1.28a5.8 5.8 0 0 1-2.36.46Zm0-1.38c.57 0 1.08-.1 1.52-.3.45-.2.8-.48 1.05-.83.25-.36.38-.77.38-1.22v-.02c0-.46-.13-.88-.38-1.23-.25-.36-.6-.64-1.04-.85-.44-.2-.95-.3-1.53-.3-.57 0-1.08.1-1.53.3-.44.2-.8.49-1.05.85-.25.35-.37.77-.37 1.23v.02c0 .45.12.86.38 1.22.25.35.6.63 1.04.83.45.2.96.3 1.53.3Zm0-6.14c.5 0 .94-.09 1.32-.27a1.95 1.95 0 0 0 1.21-1.84v-.01c0-.41-.1-.77-.32-1.1a2.1 2.1 0 0 0-.9-.73 3 3 0 0 0-1.31-.27c-.5 0-.94.09-1.32.27a1.94 1.94 0 0 0-1.22 1.83v.02c0 .4.1.77.33 1.09.21.31.51.56.9.74.37.18.81.27 1.31.27ZM535.04 111v-10.92h-.14l-3.23 2.33v-1.67l3.38-2.42h1.57V111h-1.58Zm50.16-56.7a3.7 3.7 0 0 1-2.4-.81 5.07 5.07 0 0 1-1.54-2.3c-.36-.99-.54-2.17-.54-3.53v-.01c0-1.36.18-2.54.54-3.53.36-.99.87-1.75 1.54-2.3.67-.53 1.47-.8 2.4-.8.94 0 1.75.27 2.41.8a5.18 5.18 0 0 1 1.55 2.3c.36 1 .55 2.17.55 3.53v.01c0 1.36-.19 2.54-.55 3.54a5.13 5.13 0 0 1-1.55 2.29c-.66.54-1.47.8-2.4.8Zm0-1.38a2.1 2.1 0 0 0 1.56-.64 4.2 4.2 0 0 0 1-1.82c.24-.79.36-1.72.36-2.8v-.01c0-1.08-.12-2.01-.36-2.8a4.13 4.13 0 0 0-1-1.8 2.12 2.12 0 0 0-1.55-.64c-.6 0-1.13.21-1.56.64a4.06 4.06 0 0 0-1 1.8 10 10 0 0 0-.34 2.8v.01c0 1.08.12 2.01.35 2.8.23.78.56 1.39.99 1.82.43.43.95.64 1.56.64Zm-11.31 1.38c-.94 0-1.74-.27-2.41-.81a5.08 5.08 0 0 1-1.54-2.3c-.36-.99-.54-2.17-.54-3.53v-.01c0-1.36.18-2.54.54-3.53.36-.99.87-1.75 1.54-2.3.67-.53 1.47-.8 2.4-.8.94 0 1.75.27 2.41.8a5.18 5.18 0 0 1 1.55 2.3c.36 1 .55 2.17.55 3.53v.01c0 1.36-.19 2.54-.55 3.54a5.13 5.13 0 0 1-1.55 2.29c-.66.54-1.47.8-2.4.8Zm0-1.38c.6 0 1.12-.21 1.55-.64.43-.43.77-1.04 1-1.82a9.8 9.8 0 0 0 .35-2.8v-.01c0-1.08-.11-2.01-.35-2.8a4.1 4.1 0 0 0-1-1.8 2.12 2.12 0 0 0-1.55-.64c-.6 0-1.13.21-1.56.64a4.04 4.04 0 0 0-1 1.8c-.22.79-.34 1.72-.34 2.8v.01c0 1.08.12 2.01.35 2.8.23.78.56 1.39.99 1.82.43.43.95.64 1.56.64Zm-8.29 1.17a1.1 1.1 0 0 1-.8-.34 1.09 1.09 0 0 1-.34-.8c0-.31.12-.58.34-.8.22-.22.49-.33.8-.33.31 0 .58.11.8.33.22.22.33.49.33.8 0 .31-.11.58-.33.8-.22.23-.49.34-.8.34Zm-8.3.21c-.95 0-1.75-.27-2.42-.81a5.07 5.07 0 0 1-1.53-2.3c-.36-.99-.54-2.17-.54-3.53v-.01c0-1.36.18-2.54.54-3.53.35-.99.87-1.75 1.53-2.3.67-.53 1.47-.8 2.41-.8.94 0 1.74.27 2.41.8a5.26 5.26 0 0 1 1.55 2.3c.36 1 .54 2.17.54 3.53v.01c0 1.36-.18 2.54-.54 3.54a5.13 5.13 0 0 1-1.55 2.29 3.7 3.7 0 0 1-2.4.8Zm0-1.38c.6 0 1.12-.21 1.55-.64a4.2 4.2 0 0 0 1-1.82c.23-.79.35-1.72.35-2.8v-.01c0-1.08-.12-2.01-.35-2.8a4.13 4.13 0 0 0-1-1.8 2.12 2.12 0 0 0-1.56-.64c-.6 0-1.12.21-1.55.64a4.06 4.06 0 0 0-1 1.8 10 10 0 0 0-.34 2.8v.01c0 1.08.12 2.01.34 2.8.23.78.56 1.39 1 1.82.43.43.95.64 1.55.64Zm-11.49-11.9a4.38 4.38 0 0 1 3.23 1.41c.46.5.82 1.16 1.09 1.98.27.82.41 1.82.41 3.02v.01c0 1.44-.19 2.68-.57 3.7a5.07 5.07 0 0 1-1.65 2.35c-.72.54-1.6.8-2.61.8-.7 0-1.33-.12-1.9-.38a3.94 3.94 0 0 1-2.2-2.73l-.02-.12h1.59l.03.1c.13.35.31.66.54.92.23.25.52.45.85.6.33.13.71.2 1.13.2.76 0 1.37-.22 1.84-.66.48-.46.83-1.05 1.06-1.8a9.2 9.2 0 0 0 .4-2.67v-.24l-.38-2.1a2.98 2.98 0 0 0-1.39-2.59c-.43-.27-.9-.4-1.43-.4a2.84 2.84 0 0 0-2.44 1.45c-.25.44-.38.93-.38 1.48v.02c0 .56.12 1.06.36 1.5a2.7 2.7 0 0 0 2.43 1.4c.54 0 1.03-.12 1.46-.37a2.81 2.81 0 0 0 1.39-2.49h.52v2.27h-.3a3.45 3.45 0 0 1-1.82 1.7 4 4 0 0 1-1.52.27 4.05 4.05 0 0 1-4.11-4.25v-.01c0-.85.19-1.6.57-2.25a4.1 4.1 0 0 1 1.56-1.56 4.5 4.5 0 0 1 2.26-.56ZM535.04 54V43.08h-.14l-3.23 2.33v-1.67l3.38-2.42h1.57V54h-1.58Zm50.16 171.3a3.7 3.7 0 0 1-2.4-.81 5.07 5.07 0 0 1-1.54-2.3c-.36-.99-.54-2.17-.54-3.53v-.01c0-1.36.18-2.54.54-3.53.36-.99.87-1.75 1.54-2.3.67-.53 1.47-.8 2.4-.8.94 0 1.75.27 2.41.8a5.18 5.18 0 0 1 1.55 2.3c.36 1 .55 2.17.55 3.53v.01c0 1.36-.19 2.54-.55 3.54a5.09 5.09 0 0 1-1.55 2.29c-.66.54-1.47.8-2.4.8Zm0-1.38a2.1 2.1 0 0 0 1.56-.64 4.2 4.2 0 0 0 1-1.82c.24-.79.36-1.72.36-2.8v-.01c0-1.08-.12-2.01-.36-2.8a4.13 4.13 0 0 0-1-1.8 2.12 2.12 0 0 0-1.55-.64c-.6 0-1.13.21-1.56.64a4.06 4.06 0 0 0-1 1.8 10 10 0 0 0-.34 2.8v.01c0 1.08.12 2.01.35 2.8.23.78.56 1.39.99 1.82.43.43.95.64 1.56.64Zm-11.31 1.38c-.94 0-1.74-.27-2.41-.81a5.08 5.08 0 0 1-1.54-2.3c-.36-.99-.54-2.17-.54-3.53v-.01c0-1.36.18-2.54.54-3.53.36-.99.87-1.75 1.54-2.3.67-.53 1.47-.8 2.4-.8.94 0 1.75.27 2.41.8a5.18 5.18 0 0 1 1.55 2.3c.36 1 .55 2.17.55 3.53v.01c0 1.36-.19 2.54-.55 3.54a5.09 5.09 0 0 1-1.55 2.29c-.66.54-1.47.8-2.4.8Zm0-1.38c.6 0 1.12-.21 1.55-.64.43-.43.77-1.04 1-1.82a9.8 9.8 0 0 0 .35-2.8v-.01c0-1.08-.11-2.01-.35-2.8a4.1 4.1 0 0 0-1-1.8 2.12 2.12 0 0 0-1.55-.64c-.6 0-1.13.21-1.56.64a4.04 4.04 0 0 0-1 1.8c-.22.79-.34 1.72-.34 2.8v.01c0 1.08.12 2.01.35 2.8.23.78.56 1.39.99 1.82.43.43.95.64 1.56.64Zm-8.29 1.17c-.31 0-.58-.11-.8-.34a1.09 1.09 0 0 1-.34-.8c0-.31.12-.58.34-.8.22-.22.49-.33.8-.33.31 0 .58.11.8.33.22.22.33.49.33.8 0 .31-.11.58-.33.8-.22.23-.49.34-.8.34Zm-8.3.21c-.95 0-1.75-.27-2.42-.81a5.07 5.07 0 0 1-1.53-2.3c-.36-.99-.54-2.17-.54-3.53v-.01c0-1.36.18-2.54.54-3.53.35-.99.87-1.75 1.53-2.3.67-.53 1.47-.8 2.41-.8.94 0 1.74.27 2.41.8a5.26 5.26 0 0 1 1.55 2.3c.36 1 .54 2.17.54 3.53v.01c0 1.36-.18 2.54-.54 3.54-.37.99-.88 1.75-1.55 2.29s-1.47.8-2.4.8Zm0-1.38c.6 0 1.12-.21 1.55-.64a4.2 4.2 0 0 0 1-1.82c.23-.79.35-1.72.35-2.8v-.01c0-1.08-.12-2.01-.35-2.8a4.13 4.13 0 0 0-1-1.8 2.12 2.12 0 0 0-1.56-.64c-.6 0-1.12.21-1.55.64a4.06 4.06 0 0 0-1 1.8 10 10 0 0 0-.34 2.8v.01c0 1.08.12 2.01.34 2.8.23.78.56 1.39 1 1.82.43.43.95.64 1.55.64Zm-11.28 1.38c-.79 0-1.49-.16-2.1-.47a3.81 3.81 0 0 1-2.12-3.1l-.01-.09h1.52v.07a2.41 2.41 0 0 0 1.4 1.9c.39.2.83.3 1.32.3.57 0 1.06-.13 1.48-.38.43-.25.76-.6 1-1.03.23-.44.35-.95.35-1.52v-.01c0-.57-.12-1.06-.36-1.5a2.62 2.62 0 0 0-.99-1.03 2.8 2.8 0 0 0-1.45-.37c-.42 0-.8.07-1.16.2a2.73 2.73 0 0 0-1.51 1.33h-1.37l.66-7.28h7.03v1.41h-5.79l-.42 4.3h.13a2.8 2.8 0 0 1 1.62-1.17 3.97 3.97 0 0 1 4.63 1.9c.35.63.53 1.36.53 2.18v.02a4.1 4.1 0 0 1-2.12 3.79c-.65.36-1.41.55-2.27.55Zm-10.98-.3v-10.93h-.14l-3.23 2.34v-1.67l3.38-2.42h1.57V225h-1.58Z" fill="#fff"/><path d="M521 149h77a4 4 0 0 1 4 4v21a4 4 0 0 1-4 4h-77v-29Z" fill="#2962FF"/><path d="M585.22 171.21a5.5 5.5 0 0 1-2.36-.47 3.95 3.95 0 0 1-1.62-1.28 3.18 3.18 0 0 1-.59-1.89v-.01a3.21 3.21 0 0 1 1.29-2.59 3.6 3.6 0 0 1 1.41-.66v-.03a3.39 3.39 0 0 1-1.64-1.08 2.7 2.7 0 0 1-.6-1.74v-.02c0-.64.17-1.21.53-1.7.36-.51.84-.9 1.46-1.2a4.9 4.9 0 0 1 2.12-.43c.79 0 1.49.14 2.1.44.63.28 1.11.68 1.46 1.18.36.5.54 1.07.54 1.7v.03c0 .66-.2 1.25-.6 1.74-.41.5-.96.86-1.64 1.08v.03a3.53 3.53 0 0 1 2.34 1.8c.23.44.35.92.35 1.44v.02c0 .71-.2 1.34-.6 1.9-.38.54-.91.97-1.6 1.28a5.6 5.6 0 0 1-2.36.46Zm0-1.38c.57 0 1.08-.1 1.51-.3.45-.2.8-.48 1.05-.83.25-.36.38-.77.38-1.22v-.02c0-.47-.13-.88-.38-1.23-.25-.36-.6-.64-1.04-.85-.44-.2-.95-.3-1.52-.3-.58 0-1.09.1-1.53.3-.45.2-.8.49-1.05.85s-.38.77-.38 1.23v.02c0 .45.13.86.38 1.22.25.35.6.63 1.05.83.44.2.95.3 1.52.3Zm0-6.14c.5 0 .94-.09 1.31-.27.38-.18.68-.43.9-.74.2-.32.32-.68.32-1.1v-.01c0-.41-.11-.77-.33-1.1a2.1 2.1 0 0 0-.89-.73 3 3 0 0 0-1.31-.27c-.5 0-.94.09-1.32.27a2.2 2.2 0 0 0-.9.74c-.22.32-.33.68-.33 1.09v.02c0 .4.11.77.33 1.09.22.31.52.56.9.74.38.18.82.27 1.32.27Zm-11.49-5.67c.57 0 1.14.11 1.7.33.56.22 1.07.59 1.52 1.08.46.5.82 1.16 1.1 1.98.27.82.4 1.82.4 3.02v.01c0 1.44-.18 2.68-.57 3.7a5.07 5.07 0 0 1-1.65 2.35c-.72.54-1.59.8-2.6.8-.7 0-1.34-.12-1.9-.38a3.94 3.94 0 0 1-2.2-2.73l-.03-.12h1.6l.03.1a2.39 2.39 0 0 0 1.39 1.51c.33.14.7.21 1.12.21a2.6 2.6 0 0 0 1.85-.66c.47-.46.82-1.05 1.05-1.8a9.24 9.24 0 0 0 .4-2.67v-.24l-.37-2.1a3.05 3.05 0 0 0-1.4-2.59 2.6 2.6 0 0 0-1.42-.4 2.84 2.84 0 0 0-2.44 1.45c-.26.44-.39.93-.39 1.48v.02c0 .56.12 1.06.36 1.5a2.7 2.7 0 0 0 2.44 1.4 2.82 2.82 0 0 0 2.47-1.38c.25-.43.38-.93.38-1.48h.51v2.27h-.3c-.15.35-.38.68-.69.98-.3.3-.68.53-1.12.72a4 4 0 0 1-1.52.27 4.05 4.05 0 0 1-3.58-2.07 4.42 4.42 0 0 1-.54-2.18v-.01c0-.85.2-1.6.57-2.25.38-.66.9-1.18 1.57-1.56a4.5 4.5 0 0 1 2.26-.56Zm-8.13 13.07c-.31 0-.58-.11-.8-.34a1.09 1.09 0 0 1-.34-.8c0-.31.12-.58.34-.8.22-.22.49-.33.8-.33.31 0 .58.11.8.33.22.22.33.49.33.8 0 .31-.11.58-.33.8-.22.23-.49.34-.8.34Zm-8.3.21c-.95 0-1.75-.27-2.42-.81a5.07 5.07 0 0 1-1.53-2.3c-.36-.99-.54-2.17-.54-3.53v-.01c0-1.36.18-2.54.54-3.53.35-.99.87-1.75 1.53-2.3.67-.53 1.47-.8 2.41-.8.94 0 1.74.27 2.41.8a5.26 5.26 0 0 1 1.55 2.3c.36 1 .54 2.17.54 3.53v.01c0 1.36-.18 2.54-.54 3.54-.37.99-.88 1.75-1.55 2.29s-1.47.8-2.4.8Zm0-1.38c.6 0 1.12-.21 1.55-.64a4.2 4.2 0 0 0 1-1.82c.23-.79.35-1.72.35-2.8v-.01c0-1.08-.12-2.01-.35-2.8a4.13 4.13 0 0 0-1-1.8 2.12 2.12 0 0 0-1.56-.64c-.6 0-1.12.21-1.55.64a4.06 4.06 0 0 0-1 1.8 10 10 0 0 0-.34 2.8v.01c0 1.08.12 2.01.34 2.8.23.78.56 1.39 1 1.82.43.43.95.64 1.55.64Zm-11.16 1.38a4.4 4.4 0 0 1-1.7-.34 4.16 4.16 0 0 1-1.53-1.08 5.47 5.47 0 0 1-1.1-1.97 9.8 9.8 0 0 1-.4-3.02v-.02c0-1.44.2-2.67.57-3.69.38-1.02.93-1.8 1.65-2.34.73-.55 1.6-.82 2.61-.82.7 0 1.34.13 1.9.4a3.88 3.88 0 0 1 2.2 2.73l.03.1h-1.6l-.03-.1c-.12-.35-.3-.66-.54-.9a2.37 2.37 0 0 0-.85-.6c-.33-.15-.7-.22-1.12-.22-.76 0-1.38.23-1.85.68a4 4 0 0 0-1.05 1.78 9.61 9.61 0 0 0-.4 2.68v.23l.37 2.11a3.05 3.05 0 0 0 1.39 2.6 2.7 2.7 0 0 0 2.85 0 2.91 2.91 0 0 0 1.4-2.54v-.02c0-.56-.12-1.06-.36-1.5a2.73 2.73 0 0 0-2.43-1.4 2.75 2.75 0 0 0-2.85 2.86h-.52v-2.27h.3a3.32 3.32 0 0 1 1.83-1.7c.44-.18.95-.27 1.51-.27a4.02 4.02 0 0 1 3.58 2.06c.35.64.53 1.37.53 2.18v.02a4.2 4.2 0 0 1-2.14 3.8c-.65.38-1.4.57-2.25.57Zm-11.1-.3v-10.93h-.14l-3.23 2.34v-1.67l3.38-2.42h1.57V171h-1.58Z" fill="#fff"/><path fill="#2962FF" d="M482 164h39v1h-39zm-47 0h39v1h-39zm-240 0h24v1h-24zm-102 0h24v1H93zm-91 0h54v1H2z"/><circle cx="477.5" cy="164.5" r="4" fill="#0F1011" stroke="#2962FF"/><rect x="219.5" y="149.5" width="215" height="28" rx="3.5" fill="#111113" stroke="#2962FF"/><path d="M219 153a4 4 0 0 1 4-4h39v29h-39a4 4 0 0 1-4-4v-21Z" fill="#2962FF"/><rect x="156.5" y="149.5" width="38" height="28" rx="3.5" fill="#111113" stroke="#F19D38"/><rect x="117.5" y="149.5" width="38" height="28" rx="3.5" fill="#111113" stroke="#459782"/><rect x="55.5" y="149.5" width="38" height="28" rx="3.5" fill="#111113" stroke="#2962FF"/><path d="M178.04 170v-12.68h1.59v11.26h6.11V170h-7.7Zm-7.28.3c-.93 0-1.74-.15-2.43-.45a4.13 4.13 0 0 1-1.63-1.25 3.55 3.55 0 0 1-.7-1.83v-.1h1.57l.01.1c.04.43.2.8.49 1.1.28.3.67.54 1.14.72a4.88 4.88 0 0 0 3.16-.02c.45-.19.81-.45 1.07-.78.25-.32.38-.7.38-1.13 0-.54-.19-.98-.58-1.34a4.04 4.04 0 0 0-1.89-.83l-1.4-.3a7.04 7.04 0 0 1-2.08-.77 3.28 3.28 0 0 1-1.18-1.19c-.25-.47-.38-1-.38-1.62 0-.7.2-1.33.57-1.87.38-.54.9-.96 1.57-1.26.68-.3 1.45-.46 2.32-.46.85 0 1.6.15 2.25.46.65.3 1.16.7 1.54 1.22.39.5.6 1.08.64 1.71l.01.12h-1.58l-.02-.11c-.06-.38-.2-.7-.45-1a2.5 2.5 0 0 0-.99-.7c-.4-.17-.89-.25-1.44-.24-.53 0-1 .08-1.42.25-.43.17-.76.4-1.01.7-.25.31-.37.69-.37 1.13 0 .34.08.65.24.91.17.27.43.5.78.69.35.2.82.35 1.4.48l1.4.32c.88.2 1.6.44 2.14.76.54.3.93.69 1.17 1.14.25.44.38.97.38 1.58 0 .8-.2 1.48-.58 2.06a3.78 3.78 0 0 1-1.63 1.33c-.7.31-1.53.47-2.47.47Z" fill="#F19D38"/><path d="M243.97 170.3c-.94 0-1.74-.27-2.4-.81a5.08 5.08 0 0 1-1.54-2.3c-.36-.99-.54-2.17-.54-3.53v-.01c0-1.36.18-2.54.53-3.53.36-.99.88-1.75 1.54-2.3.67-.53 1.47-.8 2.41-.8.94 0 1.74.27 2.41.8a5.26 5.26 0 0 1 1.55 2.3c.36 1 .54 2.17.54 3.53v.01c0 1.36-.18 2.54-.54 3.54-.37.99-.88 1.75-1.55 2.29s-1.47.8-2.4.8Zm0-1.38c.61 0 1.13-.21 1.56-.64.43-.43.76-1.04 1-1.82a9.8 9.8 0 0 0 .35-2.8v-.01c0-1.08-.12-2.01-.35-2.8a4.1 4.1 0 0 0-1-1.8 2.12 2.12 0 0 0-1.56-.64c-.6 0-1.12.21-1.55.64a4.04 4.04 0 0 0-1 1.8c-.23.79-.34 1.72-.34 2.8v.01c0 1.08.11 2.01.34 2.8.23.78.56 1.39 1 1.82.43.43.95.64 1.55.64ZM233.04 170v-10.93h-.14l-3.23 2.34v-1.67l3.38-2.42h1.57V170h-1.58Z" fill="#fff"/><path d="M377.48 170v-12.68h4.35c1.26 0 2.33.25 3.22.75.9.5 1.58 1.22 2.06 2.17.47.94.71 2.07.71 3.4v.02c0 1.33-.24 2.47-.71 3.42a5.03 5.03 0 0 1-2.05 2.17c-.89.5-1.96.75-3.23.75h-4.35Zm1.59-1.42h2.66c.94 0 1.75-.2 2.42-.58a3.77 3.77 0 0 0 1.53-1.68c.35-.73.52-1.61.52-2.64v-.02c0-1.03-.18-1.91-.53-2.64a3.76 3.76 0 0 0-1.53-1.69 4.68 4.68 0 0 0-2.41-.59h-2.66v9.84Zm-8.87 1.72a6.1 6.1 0 0 1-2.43-.45 4.12 4.12 0 0 1-1.63-1.25 3.55 3.55 0 0 1-.7-1.83v-.1h1.58v.1c.05.43.2.8.49 1.1.29.3.67.54 1.14.72a4.89 4.89 0 0 0 3.17-.02c.45-.19.8-.45 1.06-.78.26-.32.39-.7.39-1.13 0-.54-.2-.98-.58-1.34a4.05 4.05 0 0 0-1.9-.83l-1.4-.3a7.05 7.05 0 0 1-2.07-.77 3.29 3.29 0 0 1-1.2-1.19 3.49 3.49 0 0 1 .2-3.49c.38-.54.9-.96 1.58-1.26.67-.3 1.44-.46 2.32-.46.84 0 1.59.15 2.24.46.65.3 1.16.7 1.54 1.22.4.5.6 1.08.65 1.71v.12h-1.58l-.01-.11c-.06-.38-.22-.7-.46-1a2.5 2.5 0 0 0-.99-.7 3.64 3.64 0 0 0-1.44-.24c-.53 0-1 .08-1.42.25-.42.17-.76.4-1.01.7-.25.31-.37.69-.37 1.13 0 .34.08.65.24.91.17.27.43.5.78.69.36.2.82.35 1.4.48l1.4.32c.89.2 1.6.44 2.14.76.54.3.93.69 1.18 1.14.25.44.37.97.37 1.58 0 .8-.2 1.48-.58 2.06a3.79 3.79 0 0 1-1.63 1.33c-.7.31-1.53.47-2.47.47Zm-12.37 0a5.8 5.8 0 0 1-2.7-.59 4.2 4.2 0 0 1-1.74-1.64c-.4-.7-.6-1.5-.6-2.43v-8.32h1.58v8.22c0 .65.13 1.22.4 1.72.28.49.67.88 1.19 1.16.52.28 1.14.42 1.87.42a3.8 3.8 0 0 0 1.87-.42c.51-.28.9-.67 1.17-1.16.27-.5.4-1.07.4-1.72v-8.22h1.59v8.32c0 .92-.2 1.73-.6 2.44-.4.7-.98 1.24-1.73 1.63-.75.4-1.65.59-2.7.59Zm-17.46-13.28c.57 0 1.14.11 1.7.33.56.22 1.07.59 1.52 1.08.46.5.82 1.16 1.1 1.98.27.82.4 1.82.4 3.02v.01c0 1.44-.18 2.68-.56 3.7a5.07 5.07 0 0 1-1.66 2.35c-.72.54-1.59.8-2.6.8-.7 0-1.34-.12-1.9-.38a3.95 3.95 0 0 1-1.43-1.1 3.98 3.98 0 0 1-.77-1.63l-.03-.12h1.6l.03.1a2.39 2.39 0 0 0 1.39 1.51c.33.14.7.21 1.12.21a2.6 2.6 0 0 0 1.85-.66c.47-.46.82-1.05 1.05-1.8a9.2 9.2 0 0 0 .4-2.67v-.24l-.37-2.1a3.05 3.05 0 0 0-1.4-2.59 2.6 2.6 0 0 0-1.42-.4 2.84 2.84 0 0 0-2.44 1.45c-.26.44-.39.93-.39 1.48v.02c0 .56.13 1.06.37 1.5a2.7 2.7 0 0 0 2.43 1.4 2.82 2.82 0 0 0 2.47-1.38c.25-.43.38-.93.38-1.48h.52v2.27h-.3a3.43 3.43 0 0 1-1.82 1.7c-.45.18-.96.27-1.52.27a4.05 4.05 0 0 1-3.58-2.07 4.41 4.41 0 0 1-.54-2.18v-.01a4.2 4.2 0 0 1 2.14-3.81 4.5 4.5 0 0 1 2.26-.56Zm-11.07 13.19a5.2 5.2 0 0 1-2.24-.45 3.5 3.5 0 0 1-2.15-3.02v-.1h1.52v.09a2.23 2.23 0 0 0 1.44 1.85c.4.17.88.26 1.42.26.54 0 1.01-.1 1.42-.29.4-.2.72-.46.94-.8.23-.35.34-.74.34-1.19v-.01c0-.78-.25-1.38-.75-1.8a3.07 3.07 0 0 0-2.04-.63h-1.54v-1.34h1.47c.49 0 .92-.09 1.29-.28a2.08 2.08 0 0 0 1.2-1.92v-.01c0-.45-.1-.82-.28-1.13a1.76 1.76 0 0 0-.8-.72 2.94 2.94 0 0 0-1.26-.24c-.48 0-.91.08-1.29.25-.37.17-.67.4-.9.71-.23.31-.36.68-.4 1.11l-.01.09h-1.53l.01-.09a3.62 3.62 0 0 1 2.07-3.01 4.58 4.58 0 0 1 2.05-.43c.79 0 1.48.14 2.06.42.59.27 1.04.66 1.36 1.15.33.49.5 1.05.5 1.7v.01a2.83 2.83 0 0 1-1.26 2.4c-.4.27-.84.46-1.35.57v.04c.9.08 1.62.39 2.18.94.55.54.83 1.27.83 2.17v.02c0 .7-.19 1.33-.56 1.89-.37.56-.88 1-1.53 1.32-.65.31-1.38.47-2.22.47Zm-8.38-.12c-.31 0-.58-.11-.8-.34a1.1 1.1 0 0 1-.34-.8c0-.31.12-.58.34-.8.22-.22.49-.33.8-.33.31 0 .58.11.8.33.22.22.33.49.33.8 0 .31-.11.58-.33.8-.22.23-.49.34-.8.34ZM314 170v-2.63h-6.06v-1.44l1.02-1.74a183.47 183.47 0 0 1 4.3-6.87h2.29v8.64h1.76v1.41h-1.76V170H314Zm-4.45-4.03H314v-7.2h-.1l-.86 1.35a411.3 411.3 0 0 0-1.8 2.86 169.78 169.78 0 0 0-1.7 2.88v.1Zm-7.87 4.03v-10.93h-.14l-3.23 2.34v-1.67l3.38-2.42h1.57V170h-1.58Zm-15.61 0v-1.09l4.17-4.64c.52-.59.93-1.07 1.23-1.45.3-.38.5-.73.62-1.04.12-.31.18-.66.18-1.03v-.01c0-.45-.09-.85-.28-1.2a2.04 2.04 0 0 0-.79-.83c-.34-.2-.76-.31-1.24-.31s-.91.1-1.28.31c-.37.22-.66.5-.86.88-.2.37-.3.8-.3 1.3l-.02.01H286v-.01a3.68 3.68 0 0 1 1.98-3.37c.6-.33 1.3-.5 2.09-.5.73 0 1.38.15 1.95.46a3.47 3.47 0 0 1 1.88 3.09v.02a4 4 0 0 1-.24 1.39c-.17.44-.46.94-.87 1.48-.4.54-.99 1.2-1.74 2l-3.18 3.39.4-.74v.74l-.39-.27h6.22V170h-8.02Zm-12.05-4.4v-1.42h9.28v1.42h-9.28Zm3.93 4.01v-9.44h1.42v9.44h-1.42Z" fill="#089981"/><path d="M138.76 165.47v-1.4h3.58c.9 0 1.61-.24 2.11-.7.5-.48.75-1.13.75-1.97v-.01c0-.84-.25-1.5-.75-1.96-.5-.47-1.2-.7-2.1-.7h-3.59v-1.41h3.99c.8 0 1.5.17 2.1.5.61.35 1.1.82 1.44 1.43.35.61.52 1.32.52 2.12v.02c0 .8-.17 1.5-.52 2.12-.35.62-.83 1.1-1.44 1.45a4.2 4.2 0 0 1-2.1.51h-3.99Zm-.79 4.53v-12.68h1.59V170h-1.59Zm-8.07 0v-11.26h-4.1v-1.42h9.76v1.42h-4.08V170h-1.58Z" fill="#459782"/><path d="M72.45 171v-15L67 160.1m9.55-4.1v15l5.45-2.73" stroke="#2962FF"/><path fill="#2962FF" d="M400 150v27h-1v-27zm24 8.06-11.77 11.77-1.06-1.06L422.94 157z"/><path fill="#2962FF" d="M412.06 157.22 423.83 169l-1.06 1.06L411 158.28z"/><rect x="22" y="52" width="58.6" height="23.59" rx="3.8" fill="#F23645"/><rect x="119.4" y="52" width="58.6" height="23.59" rx="3.8" fill="#2962FF"/><path d="M72.05 69.09v-2.1h-4.84v-1.16a252.55 252.55 0 0 1 2.53-4.22 247.62 247.62 0 0 1 1.71-2.68h1.84v6.92h1.41v1.13h-1.4v2.1h-1.25Zm-3.55-3.23h3.56V60.1h-.08a163.4 163.4 0 0 0-3.48 5.67v.09Zm-6.56 3.4a4.2 4.2 0 0 1-1.79-.36 2.8 2.8 0 0 1-1.72-2.41v-.1h1.22v.08c.04.33.15.63.35.88a2 2 0 0 0 .8.6c.33.14.71.2 1.14.2.43 0 .81-.07 1.14-.22.32-.16.57-.37.75-.64.18-.28.27-.6.27-.95v-.02c0-.62-.2-1.1-.6-1.44a2.5 2.5 0 0 0-1.63-.5h-1.24V63.3h1.18c.4 0 .74-.08 1.03-.23a1.67 1.67 0 0 0 .96-1.53v-.02c0-.35-.07-.66-.22-.9a1.4 1.4 0 0 0-.64-.57 2.2 2.2 0 0 0-1.01-.2c-.39 0-.73.07-1.03.2-.3.13-.54.32-.72.57-.19.25-.3.55-.33.89v.07h-1.22v-.07a2.9 2.9 0 0 1 1.65-2.41 3.71 3.71 0 0 1 1.65-.35c.63 0 1.18.11 1.65.34.47.22.84.53 1.1.92.26.39.39.84.39 1.36v.01a2.27 2.27 0 0 1-1 1.92c-.32.22-.68.37-1.1.46v.03c.73.06 1.3.31 1.75.75.45.44.67 1.02.67 1.74v.02c0 .56-.15 1.06-.45 1.51-.3.45-.7.8-1.22 1.06-.52.25-1.11.38-1.78.38Zm-6.74-.1a.9.9 0 0 1-.66-.27.9.9 0 0 1-.26-.65c0-.25.08-.47.26-.64a.9.9 0 0 1 .65-.27.9.9 0 0 1 .65.27c.18.17.27.39.27.64a.9.9 0 0 1-.27.65.88.88 0 0 1-.65.27Zm-6.7.17c-.75 0-1.4-.22-1.93-.65a4.1 4.1 0 0 1-1.22-1.84 8.39 8.39 0 0 1-.43-2.83V64c0-1.1.14-2.03.43-2.83.28-.79.7-1.4 1.22-1.83a2.98 2.98 0 0 1 1.93-.65c.75 0 1.4.22 1.93.65.54.43.95 1.04 1.23 1.83.3.8.44 1.74.44 2.83 0 1.1-.15 2.03-.44 2.83-.28.8-.7 1.4-1.23 1.84-.53.43-1.18.65-1.93.65Zm0-1.1c.5 0 .9-.18 1.25-.52s.61-.83.8-1.46c.18-.63.28-1.37.28-2.24V64c0-.87-.1-1.61-.29-2.23a3.24 3.24 0 0 0-.8-1.45 1.7 1.7 0 0 0-1.24-.52c-.48 0-.9.17-1.24.52-.35.33-.6.82-.8 1.45A8 8 0 0 0 46.2 64c0 .87.1 1.61.28 2.24.18.63.44 1.12.79 1.46.34.34.76.51 1.24.51Zm-9.07 1.03c-.71 0-1.34-.13-1.89-.38a3.17 3.17 0 0 1-1.3-1.02 2.57 2.57 0 0 1-.46-1.52v-.01a2.56 2.56 0 0 1 1.03-2.07c.32-.26.7-.43 1.13-.53v-.03a2.68 2.68 0 0 1-1.31-.86c-.33-.4-.49-.86-.49-1.4v-.01c0-.51.14-.97.42-1.37.29-.4.68-.72 1.17-.95a4 4 0 0 1 1.7-.35c.63 0 1.2.12 1.69.35.5.23.88.55 1.17.95.28.4.43.86.43 1.37v.01c0 .54-.17 1-.49 1.4-.32.4-.76.69-1.3.86v.03a2.84 2.84 0 0 1 1.87 1.44c.18.35.28.74.28 1.16v.01c0 .57-.16 1.07-.48 1.52-.3.43-.74.78-1.29 1.02a4.5 4.5 0 0 1-1.88.38Zm0-1.1c.46 0 .86-.09 1.22-.25.35-.16.63-.38.83-.67.2-.28.3-.6.3-.98s-.1-.7-.3-1a2 2 0 0 0-.83-.67 2.87 2.87 0 0 0-1.22-.25c-.46 0-.87.08-1.23.25a2 2 0 0 0-.83.68c-.2.28-.3.61-.3.98v.01c0 .37.1.7.3.98.2.29.48.5.83.67a3 3 0 0 0 1.23.24Zm0-4.93c.4 0 .75-.07 1.05-.21.3-.15.55-.35.72-.6.17-.25.26-.54.26-.87v-.02c0-.32-.1-.62-.26-.87a1.79 1.79 0 0 0-.72-.6 2.4 2.4 0 0 0-1.05-.2c-.4 0-.75.06-1.06.2-.3.15-.54.35-.72.6-.16.25-.25.55-.25.87v.02c0 .33.09.62.25.87.18.25.42.45.72.6.3.14.66.21 1.06.21Zm-8.78 5.86v-8.75h-.11l-2.59 1.87v-1.34l2.7-1.94h1.27v10.16h-1.27Zm137.85.24c-.47 0-.92-.1-1.37-.27a3.33 3.33 0 0 1-1.22-.87 4.3 4.3 0 0 1-.88-1.57 7.83 7.83 0 0 1-.32-2.43c0-1.16.15-2.15.45-2.97.3-.82.75-1.44 1.33-1.88a3.39 3.39 0 0 1 2.09-.65c.56 0 1.07.1 1.52.32a3.1 3.1 0 0 1 1.76 2.18l.02.09h-1.28l-.02-.08a2.03 2.03 0 0 0-1.12-1.2 2.27 2.27 0 0 0-.9-.18 2 2 0 0 0-1.47.55 3.2 3.2 0 0 0-.85 1.42 7.6 7.6 0 0 0-.32 2.14v.2l.3 1.68a2.45 2.45 0 0 0 1.11 2.08c.34.21.73.32 1.15.32.42 0 .8-.1 1.14-.31a2.33 2.33 0 0 0 1.12-2.04v-.02c0-.45-.1-.85-.29-1.2a2.18 2.18 0 0 0-1.95-1.13c-.43 0-.82.1-1.17.3a2.2 2.2 0 0 0-1.11 2h-.42v-1.83h.25c.12-.27.3-.53.55-.77a2.97 2.97 0 0 1 2.12-.8 3.22 3.22 0 0 1 2.86 1.66c.29.51.43 1.1.43 1.74v.02a3.36 3.36 0 0 1-3.52 3.5Zm-9.15-.07c-.68 0-1.28-.12-1.79-.36a3 3 0 0 1-1.21-.99 2.8 2.8 0 0 1-.5-1.43l-.01-.08h1.21l.01.07c.03.33.15.63.34.88a2 2 0 0 0 .8.6c.33.14.72.2 1.15.2.43 0 .8-.07 1.13-.22a1.68 1.68 0 0 0 1.03-1.6c0-.63-.2-1.11-.6-1.45-.41-.33-.95-.5-1.64-.5h-1.23V63.3h1.17c.4 0 .74-.08 1.04-.23a1.66 1.66 0 0 0 .96-1.53v-.02c0-.35-.08-.66-.22-.9a1.4 1.4 0 0 0-.64-.57c-.28-.14-.62-.2-1.02-.2-.38 0-.72.07-1.02.2-.3.13-.55.32-.73.57-.18.25-.29.55-.32.89l-.01.07h-1.22v-.07a2.9 2.9 0 0 1 1.66-2.41 3.71 3.71 0 0 1 1.64-.35c.64 0 1.19.11 1.66.34.47.22.83.53 1.09.92.26.39.4.84.4 1.36v.01a2.26 2.26 0 0 1-1.01 1.92c-.32.22-.68.37-1.09.46v.03c.72.06 1.3.31 1.75.75.44.44.67 1.02.67 1.74v.02c0 .56-.15 1.06-.45 1.51-.3.45-.7.8-1.23 1.06-.51.25-1.1.38-1.77.38Zm-6.75-.1a.9.9 0 0 1-.65-.27.9.9 0 0 1-.27-.65c0-.25.09-.47.27-.64a.9.9 0 0 1 .65-.27c.25 0 .47.09.64.27.18.17.27.39.27.64a.9.9 0 0 1-.27.65.88.88 0 0 1-.64.27Zm-6.7.17c-.74 0-1.39-.22-1.92-.65a4.08 4.08 0 0 1-1.23-1.84 8.37 8.37 0 0 1-.43-2.83V64c0-1.1.15-2.03.43-2.83.29-.79.7-1.4 1.23-1.83a2.97 2.97 0 0 1 1.93-.65c.75 0 1.4.22 1.93.65.53.43.94 1.04 1.23 1.83.29.8.44 1.74.44 2.83 0 1.1-.15 2.03-.44 2.83-.29.8-.7 1.4-1.23 1.84a3 3 0 0 1-1.93.65Zm0-1.1c.5 0 .91-.18 1.25-.52.35-.34.62-.83.8-1.46.19-.63.28-1.37.28-2.24V64c0-.87-.1-1.61-.28-2.23a3.25 3.25 0 0 0-.8-1.45 1.7 1.7 0 0 0-1.24-.52c-.49 0-.9.17-1.25.52-.34.33-.6.82-.79 1.45a8 8 0 0 0-.27 2.23c0 .87.09 1.61.27 2.24.19.63.45 1.12.8 1.46.34.34.75.51 1.24.51Zm-9.07 1.03a4.5 4.5 0 0 1-1.88-.38 3.17 3.17 0 0 1-1.3-1.02 2.57 2.57 0 0 1-.46-1.52v-.01a2.57 2.57 0 0 1 1.02-2.07c.33-.26.7-.43 1.13-.53v-.03a2.68 2.68 0 0 1-1.3-.86c-.33-.4-.5-.86-.5-1.4v-.01c0-.51.15-.97.43-1.37.28-.4.67-.72 1.17-.95a4 4 0 0 1 1.7-.35c.63 0 1.19.12 1.68.35.5.23.89.55 1.17.95.29.4.43.86.43 1.37v.01c0 .54-.16 1-.49 1.4-.32.4-.75.69-1.3.86v.03a2.83 2.83 0 0 1 1.88 1.44c.18.35.27.74.27 1.16v.01a2.6 2.6 0 0 1-.47 1.52c-.31.43-.74.78-1.29 1.02a4.5 4.5 0 0 1-1.89.38Zm0-1.1c.46 0 .87-.09 1.22-.25.36-.16.64-.38.84-.67.2-.28.3-.6.3-.98s-.1-.7-.3-1c-.2-.28-.47-.5-.83-.67a2.87 2.87 0 0 0-1.23-.25c-.46 0-.87.08-1.22.25-.36.16-.64.39-.84.68-.2.28-.3.61-.3.98v.01c0 .37.1.7.3.98.2.29.49.5.84.67.35.16.76.24 1.22.24Zm0-4.93c.4 0 .76-.07 1.06-.21.3-.15.54-.35.71-.6.17-.25.26-.54.26-.87v-.02c0-.32-.09-.62-.26-.87s-.4-.45-.71-.6a2.4 2.4 0 0 0-1.06-.2c-.4 0-.75.06-1.05.2-.3.15-.55.35-.72.6-.17.25-.25.55-.25.87v.02c0 .33.08.62.25.87.17.25.41.45.72.6.3.14.65.21 1.05.21Zm-8.78 5.86v-8.75h-.1l-2.6 1.87v-1.34l2.71-1.94h1.26v10.16h-1.27Zm-21.72-1v-.7l2.63-2.94c.34-.37.6-.67.78-.92.2-.24.33-.46.4-.65a1.76 1.76 0 0 0-.06-1.42 1.3 1.3 0 0 0-.5-.53c-.22-.13-.48-.2-.79-.2-.3 0-.58.07-.81.2-.23.13-.41.32-.54.55-.13.24-.2.51-.2.83h-.96a2.33 2.33 0 0 1 1.25-2.13c.39-.22.83-.32 1.33-.32.46 0 .87.1 1.23.3.37.18.66.45.87.79.22.34.32.72.32 1.16a2.68 2.68 0 0 1-.7 1.83c-.26.34-.63.76-1.1 1.27l-2.01 2.14.25-.46v.46l-.24-.17h3.93v.9h-5.08Zm-4.72.19c-.6 0-1.1-.17-1.53-.52a3.24 3.24 0 0 1-.97-1.45 6.64 6.64 0 0 1-.34-2.24v-.01c0-.86.12-1.6.34-2.24.23-.62.55-1.11.97-1.45a2.4 2.4 0 0 1 1.53-.51c.6 0 1.1.17 1.53.5.42.35.75.84.97 1.46.23.63.35 1.38.35 2.24 0 .87-.12 1.62-.35 2.25a3.23 3.23 0 0 1-.97 1.45 2.3 2.3 0 0 1-1.53.52Zm0-.88c.39 0 .72-.13.99-.4.27-.28.48-.66.63-1.16.15-.5.22-1.09.22-1.77v-.01a6.2 6.2 0 0 0-.22-1.77c-.15-.5-.36-.88-.63-1.15-.27-.27-.6-.4-.99-.4-.38 0-.71.13-.98.4a2.6 2.6 0 0 0-.63 1.15c-.14.5-.22 1.08-.22 1.77 0 .7.08 1.28.22 1.78.15.5.35.88.63 1.16.27.27.6.4.98.4Zm-5.28.74a.71.71 0 0 1-.51-.2.71.71 0 0 1-.22-.52c0-.2.07-.37.22-.51a.71.71 0 0 1 .5-.22c.2 0 .38.07.52.22a.7.7 0 0 1 .21.5c0 .2-.07.38-.2.52a.7.7 0 0 1-.52.21Zm-5.3.14c-.6 0-1.1-.17-1.52-.52a3.24 3.24 0 0 1-.97-1.45 6.64 6.64 0 0 1-.34-2.24v-.01c0-.86.11-1.6.34-2.24a3.2 3.2 0 0 1 .97-1.45c.42-.34.93-.51 1.52-.51.6 0 1.1.17 1.53.5.42.35.75.84.98 1.46.23.63.34 1.38.34 2.24 0 .87-.11 1.62-.34 2.25a3.22 3.22 0 0 1-.98 1.45 2.3 2.3 0 0 1-1.53.52Zm0-.88c.39 0 .72-.13.99-.4.27-.28.48-.66.63-1.16.15-.5.22-1.09.22-1.77v-.01c0-.69-.07-1.27-.22-1.77s-.36-.88-.63-1.15c-.27-.27-.6-.4-.99-.4-.38 0-.7.13-.98.4a2.6 2.6 0 0 0-.63 1.15c-.14.5-.21 1.08-.21 1.77 0 .7.07 1.28.21 1.78.15.5.36.88.63 1.16.27.27.6.4.98.4Z" fill="#fff"/><defs><linearGradient id="awvh11hzz" x1="306.5" y1="0" x2="306.5" y2="392" gradientUnits="userSpaceOnUse"><stop stop-color="#121314"/><stop offset="1" stop-color="#0B0B0C"/></linearGradient><linearGradient id="bwvh11hzz" x1="31.35" y1="-10.69" x2="398.98" y2="674.59" gradientUnits="userSpaceOnUse"><stop stop-color="#fff"/><stop offset="1" stop-opacity="0"/></linearGradient><linearGradient id="cwvh11hzz" x1="25.42" y1="25.19" x2="44.4" y2="46.99" gradientUnits="userSpaceOnUse"><stop stop-color="#1A1E21"/><stop offset="1" stop-color="#06060A"/></linearGradient><linearGradient id="dwvh11hzz" x1="40.93" y1="156.35" x2="-95" y2="156.35" gradientUnits="userSpaceOnUse"><stop stop-color="#45E5CB"/><stop offset="1" stop-color="#45E5CB" stop-opacity="0"/></linearGradient><linearGradient id="ewvh11hzz" x1="248.2" y1="96" x2="248.2" y2="271.02" gradientUnits="userSpaceOnUse"><stop stop-color="#45E5CB"/><stop offset="1" stop-color="#3ECDB6" stop-opacity="0"/></linearGradient><linearGradient id="fwvh11hzz" x1="305.5" y1="239" x2="305.5" y2="392" gradientUnits="userSpaceOnUse"><stop stop-color="#232326"/><stop offset="1" stop-color="#141415"/></linearGradient><linearGradient id="gwvh11hzz" x1="306" y1="327" x2="306" y2="392" gradientUnits="userSpaceOnUse"><stop stop-opacity="0"/><stop offset="1"/></linearGradient></defs></svg>