<svg width="200" height="80" viewBox="0 0 200 80" xmlns="http://www.w3.org/2000/svg"><path d="M84.08 51.24c.48-.08 1.12-.24 1.84-.24 1.03 0 1.67.24 2.15.65.4.32.64.72.64 1.37 0 .73-.48 1.37-1.36 1.7a2 2 0 0 1 1.6 1.94c0 .64-.24 1.13-.64 1.53-.56.49-1.44.73-2.71.73-.72 0-1.2-.08-1.6-.08v-7.6h.08ZM85 54.4h.92c1.03 0 1.67-.56 1.67-1.29 0-.89-.72-1.3-1.67-1.3-.48 0-.76 0-.92.09v2.5Zm.92 3.72c1.03 0 1.99-.4 1.99-1.45 0-1.05-.88-1.46-2-1.46H85v2.83c-.13 0 .77.08.92.08ZM91.34 51v4.69c0 1.7.8 2.42 1.84 2.42 1.11 0 1.82-.73 1.82-2.42V51h1.13v4.69c0 2.34-1.28 3.31-2.95 3.31-1.6 0-2.8-.89-2.8-3.31V51h.96Zm6.39 6.7c.48.32 1.11.48 1.83.48 1.04 0 1.68-.49 1.68-1.3 0-.74-.4-1.15-1.44-1.55-1.28-.5-2.07-1.15-2.07-2.2 0-1.23 1.03-2.13 2.55-2.13.8 0 1.36.16 1.76.4l-.24.82c-.24-.16-.8-.4-1.44-.4-1.04 0-1.44.65-1.44 1.14 0 .73.48 1.06 1.52 1.47 1.36.49 2 1.14 2 2.28 0 1.23-.88 2.29-2.72 2.29a4.5 4.5 0 0 1-2-.49v-.82Zm6.85-6.7v8h-1.03v-8h1.03Zm1.76 8v-8h1.12l2.47 4.08c.56.92 1.04 1.75 1.36 2.59-.08-1.09-.08-2-.08-3.25V51h.95v8h-1.03l-2.48-4a21.73 21.73 0 0 1-1.43-2.67c.08 1 .08 1.92.08 3.25V59h-.96Zm11.73-3.75H115V58h3.39v1H114v-8h4.23v.83H115v2.5h3.07v.92Zm1.53 2.45c.47.32 1.11.48 1.83.48 1.04 0 1.67-.49 1.67-1.3 0-.74-.4-1.15-1.43-1.55-1.28-.5-2.08-1.15-2.08-2.2 0-1.23 1.04-2.13 2.56-2.13.8 0 1.35.16 1.75.4l-.24.82c-.23-.16-.8-.4-1.43-.4-1.04 0-1.44.65-1.44 1.14 0 .73.48 1.06 1.52 1.47 1.35.49 2 1.14 2 2.28 0 1.23-.89 2.29-2.72 2.29a4.5 4.5 0 0 1-2-.49v-.82Zm5.74 0c.47.32 1.11.48 1.83.48 1.04 0 1.68-.49 1.68-1.3 0-.74-.4-1.15-1.44-1.55-1.28-.5-2.07-1.15-2.07-2.2 0-1.23 1.03-2.13 2.55-2.13.8 0 1.36.16 1.76.4l-.24.82c-.24-.16-.8-.4-1.44-.4-1.04 0-1.44.65-1.44 1.14 0 .73.48 1.06 1.52 1.47 1.36.49 2 1.14 2 2.28 0 1.23-.88 2.29-2.72 2.29a4.5 4.5 0 0 1-2-.49v-.82Zm8.14 0c.48.32 1.11.48 1.83.48 1.04 0 1.68-.49 1.68-1.3 0-.74-.4-1.15-1.44-1.55-1.28-.5-2.07-1.15-2.07-2.2 0-1.23 1.03-2.13 2.55-2.13.8 0 1.36.16 1.76.4l-.24.82c-.24-.16-.8-.4-1.44-.4-1.04 0-1.44.65-1.44 1.14 0 .73.48 1.06 1.52 1.47 1.36.49 2 1.14 2 2.28 0 1.23-.88 2.29-2.72 2.29a4.5 4.5 0 0 1-2-.49v-.82Zm11.33.9c-.4.16-1.12.4-2.07.4-2.24 0-3.83-1.39-3.83-3.92a3.88 3.88 0 0 1 4.07-4.08c.95 0 1.6.24 1.83.33l-.24.81c-.4-.16-.88-.32-1.6-.32-1.83 0-3.03 1.14-3.03 3.18 0 1.88 1.12 3.1 3.04 3.1.57 0 1.14-.11 1.67-.32l.16.81ZM147 51v3.35h4V51h1v8h-1v-3.84h-4V59h-1v-8h1Zm9.46 8c-2.05 0-3.46-1.55-3.46-3.92 0-2.45 1.5-4.08 3.54-4.08 2.12 0 3.46 1.63 3.46 3.92.08 2.7-1.57 4.08-3.54 4.08Zm.08-.82c1.57 0 2.46-1.47 2.46-3.26 0-1.55-.81-3.19-2.46-3.19S154 53.3 154 55s.97 3.18 2.54 3.18Zm7.92.82c-2.05 0-3.46-1.55-3.46-3.92 0-2.45 1.5-4.08 3.54-4.08 2.12 0 3.46 1.63 3.46 3.92.08 2.7-1.57 4.08-3.54 4.08Zm.08-.82c1.57 0 2.46-1.47 2.46-3.26 0-1.55-.81-3.19-2.46-3.19S162 53.3 162 55s.97 3.18 2.54 3.18ZM169.6 51h1.05v7.16H174V59h-4.4v-8Z" fill="#0259B2"/><path d="M84 43h91v1H84v-1Z" fill="#FABB00"/><path d="M50.4 64.75a24.82 24.82 0 1 0 0-49.65 24.82 24.82 0 0 0 0 49.65Z" fill="#fff"/><path d="M37.27 46h.8v3.5h-.8V46Zm4.09 3.5v-2.57l.24.63c.08.23.24.38.32.54l.72 1.4h.8V46h-.72v1.71c0 .23 0 .47.08.7-.08-.15-.16-.39-.24-.54-.08-.16-.16-.4-.32-.55L41.52 46h-.88v3.5h.72ZM48 47.4h-1.2v-.7H48V46h-2v3.5h2.16v-.7H46.8v-.78H48v-.62Zm2.49 1.87c.08.07.24.07.4.15.16.08.32.08.56.08.48 0 .8-.08 1.04-.31.24-.16.32-.47.32-.7 0-.23-.08-.39-.24-.62-.16-.16-.4-.31-.64-.4-.24-.07-.4-.15-.48-.23-.08-.07-.16-.15-.16-.23 0-.08.08-.15.16-.23.08-.08.24-.08.4-.08.16 0 .32 0 .4.08.08 0 .24.08.24.08l.16-.63c-.08-.07-.24-.07-.4-.15-.16 0-.32-.08-.48-.08-.4 0-.72.08-.96.31-.24.16-.32.39-.32.7 0 .23.08.47.24.62.16.16.4.31.64.4.24.07.32.15.4.23.24 0 .24.15.24.23 0 .08-.08.23-.16.23-.08.08-.24.08-.4.08-.16 0-.32 0-.48-.08-.16-.08-.24-.08-.4-.15l-.08.7Zm6.8-1.87H56v-.7h1.37V46H55.3v3.5h2.08v-.7H56v-.78h1.3v-.62Zm5.45 2.1h.72L63.3 46h-1.04l-.32 1.24c-.08.16-.08.4-.16.63-.08.23-.08.39-.16.62 0-.16-.08-.39-.16-.62-.08-.24-.08-.4-.16-.63L60.98 46H60l-.24 3.5h.73l.08-1.32v-1.4c.08.23.08.46.16.62.08.23.08.47.16.62l.4 1.25h.56l.4-1.25c.08-.23.16-.39.16-.62.08-.23.16-.47.16-.62v1.32l.16 1.4Z" fill="#FABB00"/><path d="M48.38 43.84h-3.84V31.2l2.8.64-.08.32-2.48-.56v11.93h3.36v-1.68h.24v2Zm-4.16-.4h-2.08V30.55l2.16.56-.08 12.33Zm-1.84-.32h1.52V31.35l-1.52-.4v12.17Zm18.66-8.8c-.72-.89-1.85-1.13-3.29-.65l-.08-.32c1.52-.56 2.8-.32 3.6.72l-.23.24Z" fill="#0259B2"/><path d="M64 43.69h-2.9v-9.45l2.89.64v8.8Zm-2.57-.24h2.25v-8.33l-2.25-.56v8.89Zm-3.6.32V42.4h.32v1.04h2.32v.24l-2.64.08Zm-6.49-11.7h.32v9.7h-.32v-9.7Zm2.65.57h.32v9.29h-.32v-9.3Z" fill="#0259B2"/><path d="m48.63 31.2.08 10.64 10.4.56v-8.65L48.64 31.2ZM58.8 34v1.36l-1.76-.24v-1.53l1.76.4Zm-9.85 2.8 7.77.88v2.4l-7.77-.56V36.8Zm0-.32v-2.33l7.77 1.2v2l-7.77-.87Zm8.09 1.2 1.76.16v2.32L57.04 40v-2.32Zm0-.32v-2l1.76.24v1.92l-1.76-.16Zm-.32-3.85v1.52l-7.77-1.2v-2.32l7.77 2Zm-7.69 8.01v-1.76l7.77.56v1.6l-7.77-.4Zm8 .4v-1.6l1.77.16V42l-1.76-.08Z" fill="#0259B2"/><path d="M58.4 33.28h-.32v-.24c-2.48-2.33-5.53-2.97-9.61-1.93h-.24v-.24h.08c2.08-.56 3.84-.64 5.44-.4a8.74 8.74 0 0 1 4.57 2.4l.08.09v.32Zm-10.24-1.93-1.16.32v10.01l1.24-.08-.08-10.25ZM44.23 43.7V31.35l-.96.4V43.7h.96Zm-5.52-10.5L37 34v8.33l1.7.08v-9.2Zm22.1 10.42V34.4l-.72.16.08 9.05h.64ZM41.75 30.79V43.2L39 42.56v-10.8a4.78 4.78 0 0 1 2.75-.97ZM48.72 42l8.89.48v1.2h-8.9V42Zm15.13 2.8-20.26.49-6.6-1.52v-.89l6.6 1.53 20.26-.32v.72ZM29.9 47.93h1.04l-.24-.72-.8.72Zm31.47 9.44c-.24-.08-.4 0-.56.08-.16.08-.28.26-.35.49-.03.23.03.48.19.72s.32.4.56.48c.2.06.4.03.56-.08.16-.11.32-.32.32-.48 0-.24 0-.48-.16-.72-.19-.28-.4-.4-.56-.49ZM47.03 19.66c.16.16.31.2.56.16.28-.05.41-.2.5-.36.07-.16.1-.35.06-.68a1.05 1.05 0 0 0-.32-.64c-.16-.16-.31-.15-.55-.15-.24 0-.4.15-.49.3-.06.14-.12.49-.08.73.08.24.16.48.32.64ZM34.3 54.97l1.04-.48-.56-.56-.48 1.04Zm-1.92-3.28a.28.28 0 0 0-.4 0c-.15.15-.2.29-.14.42l.22.3.24.32.56-.4-.24-.32s-.16-.24-.24-.32Zm12.81 9.2c-.15.16-.12.46.08.57l.64.16.16-.8-.32-.08c-.24-.04-.4 0-.56.16Z" fill="#0259B2"/><path d="M73.37 30.27a25.34 25.34 0 0 0-13.29-13.34A24.82 24.82 0 0 0 50.4 15c-3.36 0-6.64.64-9.69 1.93a25.24 25.24 0 0 0-13.29 13.34A25.08 25.08 0 0 0 25.5 40c0 3.37.64 6.67 1.92 9.72a25.34 25.34 0 0 0 13.3 13.35A24.82 24.82 0 0 0 50.38 65c3.37 0 6.65-.64 9.7-1.93a25.24 25.24 0 0 0 13.28-13.35A25.08 25.08 0 0 0 75.3 40c0-3.38-.64-6.67-1.93-9.73Zm-.72 5.07c.08.24.08.4.08.56 0 .37-.25.65-.56.8-.16.08-.4.16-.64.24-.44.15-1.2-.02-1.44-.48-.08-.08-.08-.24-.16-.48l-.24-1.05 2.72-.56.24.97Zm-2.24-6.27c.16.32.24.72.16 1.04-.08.32-.4.64-.72.8-.4.25-.8.25-1.12.17a1.18 1.18 0 0 1-.8-.73c-.16-.4-.24-.72-.16-1.04.08-.32.32-.65.72-.8.32-.14.46-.21.72-.25.5-.07.87.3 1.2.8Zm-1.36-2.1-.4.33-.88-1.2-.48.4.8 1.12-.32.24-.8-1.13-.56.49.96 1.2-.4.32-1.36-1.68 2.24-1.7 1.2 1.62Zm-2.88-3.37.48.48c.2.3.1.7-.16.97 0 0-.16.15-.23.19-.3.19-.5.2-.81-.03-.08-.08-.24-.16-.48-.4l-.24-.25-.72.8-.4-.4 1.92-2 .64.64Zm-4.49-1.85c.18-.27.53-.64.88-.64.37 0 .63.07.97.24.33.2.48.56.56.88.08.32-.08.73-.32 1.05-.3.4-.56.56-.89.64-.32.08-.72 0-1.04-.24-.32-.24-.56-.56-.56-.88 0-.33.16-.65.4-1.05Zm-2.32-2.73 1.04.48c.24.16.48.24.56.32.08.08.16.24.16.4 0 .16 0 .32-.08.49a.97.97 0 0 1-.4.4c-.16.08-.4.08-.64 0 .09.09.14.2.16.32l.08.56.08.64-.56-.32-.05-.68c-.03-.27-.06-.4-.1-.52l-.08-.2a1.2 1.2 0 0 0-.33-.2l-.48 1.04-.48-.24 1.12-2.5Zm-3.92.96c0-.23.08-.4.16-.72l.4-1.45.56.16-.4 1.45-.12.48c-.07.29.12.47.36.56.3.08.55.03.64-.16.06-.12.08-.24.16-.48l.48-1.45.56.16-.4 1.37-.24.64c-.16.46-.69.58-1.2.4a3.9 3.9 0 0 1-.56-.23c-.24-.13-.4-.47-.4-.73Zm-2.64-2.65 2 .32-.08.48-1.44-.24-.08.64 1.36.17-.08.48-1.36-.16-.08.72 1.52.24-.08.48-2.08-.32.4-2.81ZM68 39.92A17.7 17.7 0 0 1 50.39 57.6a17.7 17.7 0 0 1-17.61-17.68 17.7 17.7 0 0 1 17.61-17.69c9.7 0 17.62 7.88 17.62 17.69Zm-21.86-21.7c.06-.3.28-.56.56-.73.16-.08.32-.14.56-.16.46-.04.72 0 1.04.24.24.24.41.53.48.96.12.73-.3 1.61-1.12 1.61-.74.15-1.36-.3-1.52-1.2a2.13 2.13 0 0 1 0-.73Zm-1.12-.4.16.47-.8.25.64 2.17-.56.16-.64-2.17-.8.24-.16-.49 2.16-.64Zm-4.65 1.68.64 1.37c.09.16.3.5.43.56.08.03.3 0 .46-.08.12-.06.22-.14.32-.24.08-.08.03-.2 0-.32l-.16-.33-.65-1.44.49-.24.64 1.28c.13.29.24.65.24.65.1.36.03.51-.16.72-.25.25-.68.48-1.05.48a.77.77 0 0 1-.64-.32l-.32-.64-.64-1.37.4-.08Zm-1.36.72.24.4-.72.49 1.28 1.93-.48.32-1.2-1.93-.72.48-.24-.48 1.84-1.2ZM36.46 22l1.76 2.17-.4.32-1.84-2.09.48-.4Zm-1.12.89.32.32-.56.64 1.6 1.69-.4.4-1.6-1.69-.56.57-.32-.33 1.52-1.6Zm-3.2 3.7c.08-.17.14-.33.24-.49.2-.25.4-.4.64-.48.24-.08.48 0 .64.16l-.32.48c-.16-.08-.24-.08-.32-.08-.08 0-.16.08-.32.24-.1.13-.16.24-.16.4 0 .12.12.19.24.17.14-.06.24-.08.48-.33.24-.16.4-.32.56-.4.3-.15.44-.12.72.02.12.06.26.2.32.38.04.13.08.4 0 .57-.08.16-.16.32-.32.56-.4.57-.8.64-1.44.32l.32-.48c.16.08.32.08.4.08.16 0 .24-.08.32-.24.08-.16.16-.24.16-.4 0-.14-.19-.33-.32-.33-.08 0-.16 0-.24.08-.11.09-.16.17-.4.33-.36.24-.74.54-1.12.16-.25-.25-.18-.54-.08-.73Zm-1.85 2.8 2.17-.07-1.6-.89.23-.48 2.4 1.37-.23.48-2.16.08 1.6.88-.24.49-2.4-1.37.23-.48Zm-.72 1.53 2.57 1.05-.16.56-2.57-1.04.16-.57Zm-1.84 7.72c0-.32.08-.56.32-.8a.9.9 0 0 1 .64-.24v.56c-.16 0-.24.08-.32.16-.13.13-.13.48 0 .72.07.13.24.13.32 0 .08-.12.14-.24.24-.48l.24-.56c.23-.34.48-.4.8-.4.34 0 .59.28.72.56.08.16.08.4.08.64 0 .3-.12.59-.32.8-.19.17-.4.25-.72.33v-.57c.16 0 .32-.08.4-.16a.62.62 0 0 0 .16-.4c0-.19-.04-.56-.32-.56-.3 0-.36.41-.48.64a1.4 1.4 0 0 1-.32.65c-.3.3-.66.29-.96.08-.24-.25-.48-.62-.48-.97Zm0 2.25.48-.08.16 1.53.64-.08-.16-1.37.48-.08.16 1.37.72-.08-.16-1.53.48-.08.16 2.09-2.72.32-.24-2Zm.64 4.42 2.24-.48-.24-1.37.48-.08.4 1.93-2.72.57-.16-.57Zm.8 2.58 2.17-2.01.24.56-.48.48.4 1.05h.64l.24.56H29.4l-.24-.64Zm1.04 2.33 2.49-1.29.24.48-2.49 1.29-.24-.48Zm2.09 3.37-.64-.96a4.6 4.6 0 0 1-.32-.56c-.08-.25 0-.51.32-.73.42-.28.72-.05 1.04.16v-.4c0-.08.08-.32.16-.48l.24-.56.4.56-.24.56c-.09.26-.16.45-.16.73.06.12.24.32.24.32l.96-.65.32.49-2.32 1.52Zm1.36 1.61 1.28-2.73.4.48-.32.64.72.8.64-.23.4.4-2.72 1.12-.4-.48Zm4.32 1.05c0-.1-.08-.25-.24-.33-.16-.08-.24-.16-.4-.16-.15 0-.32.18-.32.33 0 .26.24.4.32.64.23.34.52.84.16 1.2-.08.08-.24.16-.32.25a.5.5 0 0 1-.48 0c-.43-.22-.93-.67-.96-.89 0-.24 0-.48.16-.64l.48.32c-.08.16-.08.24-.08.32 0 .08.08.16.24.32.1.1.24.16.32.16.13 0 .24-.1.24-.24 0-.08-.08-.24-.32-.48-.2-.31-.4-.58-.4-.96 0-.2.16-.48.33-.58.19-.12.51-.17.71-.07.16.08.32.16.56.32.24.24.4.49.48.73.08.24 0 .48-.16.72l-.48-.32c.13-.2.16-.4.16-.64Zm1.84 3.85-1.76-1.04.24-.4 1.28.8.32-.56-1.2-.72.24-.4 1.2.72.4-.65-1.36-.8.24-.4 1.84 1.12-1.44 2.33Zm3.37 1.45-1.12-.4a1.72 1.72 0 0 1-.57-.32.76.76 0 0 1-.16-.89c.22-.43.5-.48.97-.48a1.4 1.4 0 0 1-.16-.32c-.08-.21-.08-.32-.16-.56l-.16-.65.64.25c.1.47.22 1 .4 1.45l.32.15.4-1.04.56.24-.96 2.57Zm3.2.8-.88-.16-.64-.16c-.38-.08-.5-.52-.4-.88.09-.23.15-.4.23-.48a.69.69 0 0 1 .57-.24c.16 0 .32 0 .56.08l.32.08.24-1.05.56.08-.56 2.74Zm3.92.33-.8-.08-.4-1.93-.64 1.85-.8-.08.16-2.74h.48l-.16 2.17.72-2.17h.56l.4 2.25.16-2.17h.48l-.16 2.9Zm1.2 0-.08-.49 1.53-.16-.08-.64-1.37.16-.08-.48 1.37-.16v-.64l-1.53.16-.08-.49 2.09-.16.24 2.74-2 .16Zm7.77-1.85c-.08.08-.24.24-.48.32a.97.97 0 0 1-.8.08.72.72 0 0 1-.48-.48l.48-.24c.08.16.16.24.24.24.08 0 .24 0 .4-.08.12-.06.23-.14.32-.24.1-.1-.1-.35-.2-.38-.16-.02-.32 0-.47.04l-.05.01c-.39.13-.76.17-1.04-.08a1.01 1.01 0 0 1-.32-.8c0-.17.1-.35.24-.48.16-.16.32-.24.48-.32.32-.16.64-.16.8-.08.24.08.4.24.56.56l-.48.24c-.12-.16-.21-.24-.3-.32-.16-.08-.26-.08-.42 0-.16.08-.24.16-.32.24-.18.18.08.54.32.48l.48-.08c.37-.06.56-.03.72 0 .24.08.4.24.48.4.14.38.13.68-.16.97Zm3.12-1.69c-.2.21-.28.27-.48.4-.72.49-1.54.07-1.92-.56-.24-.4-.32-.72-.24-1.13a1.28 1.28 0 0 1 .64-.8c.32-.24.72-.24 1.04-.16.32.08.64.32.88.72.16.24.18.39.24.65.05.33.06.67-.16.88Zm1.45-.88L62.16 56l.48-.32 1.69 2.25-.48.33Zm2.24-1.85c-.16.16-.32.24-.4.32-.37.12-.7.1-1.04-.08a2.12 2.12 0 0 1-.48-.4c-.16-.16-.24-.33-.32-.49-.18-.36-.09-.63.08-.96.08-.08.16-.24.32-.4l.8-.73 1.92 2.01-.88.73Zm2.64-3.06-1.2-.88c-.14-.1-.32-.2-.4-.24a.44.44 0 0 0-.37-.05.57.57 0 0 0-.35.53c0 .08 0 .16.08.24.47.48 1.07.86 1.6 1.29l-.32.48c-.6-.44-1.2-.87-1.76-1.37a.74.74 0 0 1-.2-.7c.04-.18.15-.34.28-.5.21-.23.32-.33.4-.4a.9.9 0 0 1 .72 0c.16.07.28.18.56.4l1.2.88-.24.32Zm.96-1.36-.4-.25.4-.72-2-1.12.24-.49 2 1.13.4-.72.4.24-1.04 1.93Zm1.92-3.86c-.2.39-.48.88-1.12.64l.16-.56c.2 0 .42-.07.52-.25l.04-.07c.08-.16.08-.33.08-.4 0-.15-.26-.22-.32-.17-.08.08-.16.16-.32.4-.16.25-.32.4-.4.49a.61.61 0 0 1-.4.16c-.16 0-.32 0-.48-.08a1.4 1.4 0 0 1-.4-.32c-.16-.16-.1-.62 0-.8.16-.33.32-.57.48-.65.2-.1.48-.16.8-.08l-.16.56c-.16 0-.32 0-.48.08a1.1 1.1 0 0 0-.24.32c-.16.33 0 .63.36.63.16 0 .38-.45.44-.55.16-.24.32-.4.48-.48.2-.08.44-.08.64 0 .12.06.23.14.32.24.24.24.14.62 0 .89Zm.64-2.1-.48-.07.32-1.45-.64-.16-.32 1.37-.32-.17.32-1.36-.72-.16-.4 1.52-.4-.08.4-2.09 2.72.57-.48 2.09Zm.32-6.1-.08-1.53h-.64l.08 1.37h-.48l-.08-1.37h-.72l.08 1.53h-.48l-.08-2.1 2.8-.07.08 2.09-.48.08Zm-6.96-15.2c.16.04.29 0 .4-.1.11-.12.08-.3 0-.46-.04-.1-.24-.32-.24-.32l-.16-.16-.56.56.24.24c.16.16.23.22.32.24Zm-23.38 35.2c-.08 0-.16 0-.16.08-.08 0-.08.08-.16.16v.25c0 .08.08.16.16.16 0 0 .16.08.4.16l.4.16.24-.64-.4-.17c-.32-.16-.48-.16-.48-.16Zm26-30.31c-.18.42.19.92.58 1.05.24.08.52.04.76-.12.32-.22.42-.38.5-.54.08-.17.04-.53-.1-.75-.26-.37-.74-.41-1.16-.24-.32.13-.46.34-.58.6Zm2.21 6.46c.09.22.31.22.45.22.25 0 .64-.1.96-.24.24-.08.32-.26.32-.48 0-.08 0-.24-.08-.49l-.08-.24-1.76.32.08.4.11.51ZM64.5 54.63l-.24.24c-.15.14-.08.4 0 .56.08.08.16.24.32.4.16.16.24.25.4.33.12.12.44.12.56 0l.48-.49-1.2-1.28-.32.24Zm-1.7-31.11a.8.8 0 0 0 .33-.17c.27-.24.47-.69.47-1.04 0-.44-.52-.64-.89-.64a.8.8 0 0 0-.33.17 1.5 1.5 0 0 0-.47 1.04c0 .43.52.64.88.64Zm-2.47-2.73a.46.46 0 0 0 .22-.25c.08-.14.03-.32-.16-.4 0 0-.16-.08-.4-.16l-.4-.16-.32.64.4.17c.26.11.51.24.66.16Zm26.22 2.2v14H84V23h2.56ZM94 37V23h3l3.68 5.91a37.85 37.85 0 0 1 2.4 4.75H103V23h2.33v14h-2.73l-3.68-6.25a40.22 40.22 0 0 1-2.48-4.9h-.08l.16 6.03V37H94Zm27-6h-5.5v4h5.92v2H113V23h8v1.9h-5.5v3.7h5.5V31Zm7.39 3.22a7 7 0 0 0 3.44.88c1.6 0 2.56-.8 2.56-1.92 0-1.05-.72-1.7-2.48-2.34-2.32-.8-3.84-2.09-3.84-4.1 0-2.33 1.92-4.1 5.04-4.1 1.52 0 2.64.33 3.36.73l-.64 2.09a6.84 6.84 0 0 0-2.8-.64c-1.6 0-2.32.88-2.32 1.68 0 1.13.8 1.61 2.72 2.33 2.48.97 3.6 2.17 3.6 4.18 0 2.34-1.68 4.26-5.36 4.26-1.52 0-3.04-.4-3.84-.88l.56-2.17ZM152 31h-5.37v4h5.93v1.94H144V23h8.33v2h-5.6v3.58h5.36V31H152Zm19.54.24-.16-5.95h-.08l-1.68 5.46-2.09 6.25h-2l-1.92-6.17-1.44-5.54h-.08l-.24 6.03-.32 5.68h-2.4l.96-14h3.36l1.84 5.5 1.28 4.9h.08l1.44-4.98 1.93-5.42h3.36l.8 14h-2.48l-.16-5.76Z" fill="#0259B2"/></svg>