<svg width="56" height="56" viewBox="0 0 56 56" xmlns="http://www.w3.org/2000/svg"><rect width="56" height="56" rx="8" fill="#004CAC"/><path d="M23 28v-8l-5 4.15L23 28ZM17 15v7l6-4.43V15h-6ZM28.32 24.65l-.64-.7L25 21v8.66L28 32l3-2.34v-7.65l-2 1.97-.68.67Z" fill="#fff"/><path d="M25 18.05 28.4 22l2.6-2.72V11h-6v7.05ZM33 28l6-4.37V15l-6 5.54V28ZM39 8h-6v10l2.23-2.23-.92-1.04H39V8ZM39.68 47c-.88 0-1.52-.04-1.9-.12a2.37 2.37 0 0 1-.98-.43 1.87 1.87 0 0 1-.61-.87 4.48 4.48 0 0 1-.19-1.44V42c0-.66.06-1.18.19-1.56.12-.37.33-.67.61-.9.25-.2.58-.33 1-.42a9.94 9.94 0 0 1 1.87-.13h2.66c.84 0 1.46.04 1.88.12.42.09.75.23 1 .42.27.22.47.52.6.9.13.39.19.87.19 1.47v2.18c0 .6-.06 1.08-.2 1.46-.12.38-.32.68-.6.9-.24.2-.57.34-.99.43-.4.08-1.04.12-1.88.12h-2.65Zm.61-1.96h1.44c.79 0 1.32-.1 1.58-.31.27-.21.4-.6.4-1.18v-1.1c0-.57-.13-.96-.4-1.18-.25-.21-.79-.32-1.58-.32h-1.45c-.81 0-1.35.11-1.6.32-.25.22-.38.62-.38 1.22v1.08c0 .56.13.95.4 1.16.27.2.8.31 1.6.31ZM35 40.95h-6.49v1.43h6.11v1.93h-6.1V47H26v-8h9v1.95ZM25 47h-3.64l-4.88-5.82V47H14v-8h3.68l4.84 5.86V39H25v8ZM12 39h-2v2h2v-2ZM12 42h-2v5h2v-5Z" fill="#fff"/></svg>