<svg width="200" height="80" viewBox="0 0 200 80" xmlns="http://www.w3.org/2000/svg"><path fill-rule="evenodd" d="M66.85 50.36a27.22 27.22 0 0 1-3.88 3.5v.15H62.76A27.24 27.24 0 0 1 57.5 57a27.21 27.21 0 0 1-11.19-8.87v-.01A27.22 27.22 0 0 1 41 31.96V23h33v5.16l.04.1-.04.02v3.68c0 6.91-2.6 13.4-7.07 18.31v.09h-.08Zm5.65-21.47-11.45 4.7.11 2.86 9.99 3.75a25.71 25.71 0 0 0 1.35-8.24V28.9Zm0-1.3L61 32.32l-.02-.4a3.67 3.67 0 0 0-1.42-2.76l-.37-.29-1.78-.9-1.74.9-.36.3a3.66 3.66 0 0 0-1.36 2.72l-.02.51H53v1.2h.88l-.1 2.8H53v1.2h.73l-.22 5.9c-2.64-.4-5.3-.6-7.98-.6h-.6a25.7 25.7 0 0 1-2.43-10.94V24.5h30v3.1ZM54.7 43.7c.98.17 1.95.36 2.92.59.89.2 1.78.39 2.68.54L60 37.6h-5.07l-.22 6.09Zm6.81 1.33-.3-7.27 9.53 3.58c-.59 1.5-1.31 2.93-2.16 4.29a52.43 52.43 0 0 1-7.07-.6Zm3.3 5.3c-.9.89-1.88 1.72-2.92 2.47a25.2 25.2 0 0 1-4.67-.63 26.4 26.4 0 0 0-5.76-.67 25.74 25.74 0 0 1-3.25-3.35c2.92.06 5.83.43 8.68 1.09 2.6.6 5.26.96 7.92 1.08Zm-7.31 5.04a25.73 25.73 0 0 1-4.45-2.61c1.31.09 2.62.29 3.9.58 1.1.26 2.2.44 3.32.55-.89.54-1.81 1.04-2.77 1.48Zm8.42-6.21a42.85 42.85 0 0 1-8.76-1.1 44.05 44.05 0 0 0-9.87-1.12c-.64-.9-1.23-1.85-1.75-2.83 3.97 0 7.93.45 11.8 1.35 3.44.79 6.94 1.24 10.46 1.35-.58.82-1.2 1.6-1.88 2.35ZM142 39v13h4.82V39H150v-4h-3.18v-.98c0-1.26.46-2.48 1.9-2.48.57 0 1.18.12 1.7.36l.82-3.34a9.03 9.03 0 0 0-3.14-.56c-1.4 0-2.53.28-3.38.83-1.63 1.01-2.72 3.43-2.72 5.32V35h-2v4h2Zm11.65-4v17H158V35h-4.35Zm.45-2.84c.48.47 1.08.7 1.8.7a2.42 2.42 0 0 0 2.53-2.45c0-.7-.24-1.28-.72-1.72a2.42 2.42 0 0 0-1.8-.69 2.5 2.5 0 0 0-1.8.7 2.23 2.23 0 0 0-.73 1.71c0 .7.24 1.3.72 1.75Zm-27.22 18.82a8.56 8.56 0 0 0 4.16 1.02 10.82 10.82 0 0 0 5.66-1.8l-1.47-2.72c-.6.35-1.18.62-1.77.82-.57.17-1.18.26-1.84.26-.78 0-1.52-.16-2.22-.5a4.12 4.12 0 0 1-1.74-1.56 4.58 4.58 0 0 1-.53-1.5h10c.03-.14.06-.43.09-.72l.04-.34a10.6 10.6 0 0 0-.72-5.14 6.12 6.12 0 0 0-6.06-3.8c-1.29 0-2.51.35-3.67 1.05a8.22 8.22 0 0 0-3.93 7.47c0 1.79.36 3.32 1.08 4.58a7.55 7.55 0 0 0 2.92 2.88Zm6.58-8.98h-6.34c.08-.55.22-1.03.41-1.43.35-.77.8-1.31 1.34-1.64.55-.33 1.12-.5 1.7-.5 1.01 0 1.74.33 2.2.96.46.61.69 1.6.69 2.61Zm-15.7 10c-3.54 0-5.76-2.7-5.76-6.18V38h-2v-3h2v-4l5 .03V35h3v3h-3v7.82c0 .92.08 1.6.45 2.04.4.42.8.6 1.48.6a5.2 5.2 0 0 0 1.6-.33l.72 3.28a22 22 0 0 1-1.53.4c-.6.12-1.25.19-1.97.19ZM93.58 35.4V52h4.49V40.7a9.9 9.9 0 0 1 1.57-1.3 2.9 2.9 0 0 1 1.67-.48c.74 0 1.29.25 1.64.74.35.5.52 1.36.52 2.62V52h4.49V41.67c0-2.08-.4-3.7-1.21-4.9-.79-1.18-2.06-1.77-3.8-1.77a5.6 5.6 0 0 0-2.95.77c-.83.5-1.6 1.09-2.3 1.78h-.12l-.33-2.15H93.6ZM84 52V30h4.49v22H84ZM59.78 31.97l.02.43h-4.67l.01-.47c.03-.71.37-1.38.92-1.83l.27-.21 1.09-.57 1.12.57.28.22c.58.45.93 1.13.96 1.86Zm-4.8 4.43.1-2.8h4.77l.11 2.8h-4.98ZM57 39h1v3h-1v-3Z" fill="#fff"/></svg>