<svg xmlns="http://www.w3.org/2000/svg" width="132" height="60" viewBox="0 0 132 60"><path fill="url(#aebdagcnb)" d="M27.29 49H10V30.53z"/><path fill="#D81222" d="M24.91 40.1c1.37 0 2.69-.54 3.66-1.48a5 5 0 0 0 0-7.14 5.24 5.24 0 0 0-7.32 0 5 5 0 0 0 0 7.14 5.2 5.2 0 0 0 3.66 1.47M27.65 11 10 30.6V49z"/><path fill="#fff" d="M102.58 22.1h-2.37v-2.11h2.37zm-2.37 1.02h2.37v8.77h-2.37zm-60.98 8.77h2.5V20.02h-2.5zm12.82-5.92q0-1.64-.87-2.34a3.6 3.6 0 0 0-2.3-.71c-.77 0-1.36.2-1.85.54q-.36.31-.83.98v-1.3h-2.27v8.75h2.33v-4.76q0-.69.25-1.33.45-.98 1.64-.98.97 0 1.32.68.17.34.18 1.05v5.34h2.4zm1.11-2.75h1.26v-2.45h2.34v2.45h1.46v1.63h-1.46v4.62q-.01.55.14.68.14.15.87.14h.48V32l-1.11.03q-1.69.08-2.27-.58-.4-.4-.38-1.22v-5.36h-1.33zM67 24.6q-.6-.85-1.57-1.29a5 5 0 0 0-2.09-.44q-1.98 0-3.2 1.22-1.26 1.22-1.26 3.5c0 1.6.45 2.8 1.36 3.51.9.7 2.01 1.1 3.17 1.08q2.18 0 3.38-1.29c.46-.43.76-1 .87-1.6h-2.4a2 2 0 0 1-.49.62q-.5.4-1.29.4-.75-.01-1.29-.34-.88-.51-.94-1.83h6.55q.04-1.12-.07-1.74a4.4 4.4 0 0 0-.73-1.8m-5.68 2.04c.04-.51.26-1 .63-1.36q.45-.5 1.39-.5.83 0 1.4.47.56.49.62 1.4zm13.03-3.74v2.38l-.22-.02-.16-.01h-.28q-1.4 0-1.91.89a3.5 3.5 0 0 0-.28 1.56v4.18h-2.38v-8.77h2.24v1.52q.35-.67.93-1.18A2.6 2.6 0 0 1 74 22.9zm5.86 3.44q-.27.1-.95.2l-.76.07q-1.1.1-2.1.58-1.28.71-1.28 2.34a2.4 2.4 0 0 0 .8 1.94c.52.44 1.22.68 2.02.68.67 0 1.22-.17 1.74-.44q.63-.36 1.12-.89l.03.27q0 .15.04.28.05.26.14.5h2.54v-.33a1 1 0 0 1-.35-.27q-.16-.3-.13-.62v-5.03q0-1.57-1.16-2.14a6 6 0 0 0-2.65-.58q-2.25-.01-3.2 1.16a3.3 3.3 0 0 0-.67 1.9h2.27q.1-.5.35-.82.33-.4 1.19-.4.78 0 1.15.2t.38.75q0 .45-.52.65m.14 1.48q.19-.09.34-.2h.04v.9q-.02 1.15-.66 1.59-.66.45-1.43.44-.46 0-.84-.27-.35-.24-.35-.85 0-.67.56-.98c.21-.11.6-.21 1.08-.31l.53-.1.2-.05q.27-.05.42-.12zm10.1-1.55a1.7 1.7 0 0 0-.35-.89 1.5 1.5 0 0 0-1.22-.54q-1.18 0-1.64 1.15c-.13.42-.24.95-.24 1.64q0 .95.24 1.56.16.5.61.82.45.3 1 .27.82 0 1.18-.44.36-.45.43-1.13h2.4q-.11 1.1-.77 1.97-1.09 1.5-3.28 1.5-2.17.01-3.2-1.25a5 5 0 0 1-1.05-3.27q.01-2.26 1.12-3.5a4 4 0 0 1 3.13-1.26q1.7 0 2.75.75 1.07.74 1.3 2.62zm3.17-3.06v1.63h1.33v5.37q-.02.82.38 1.22.58.66 2.26.58l1.12-.03v-1.7h-.49q-.73 0-.87-.14-.14-.13-.14-.68v-4.61h1.46v-1.64h-1.46v-2.44h-2.34v2.44zm19.1-.1h-2.5l-1.9 6.46-1.88-6.46h-2.64l3.2 8.77h2.47zm6.9.2a4 4 0 0 1 1.56 1.3c.39.5.6 1.12.73 1.8q.11.6.08 1.73h-6.56q.05 1.33.94 1.84.6.33 1.3.34a1.9 1.9 0 0 0 1.77-1.03h2.4a3 3 0 0 1-.87 1.6 4.4 4.4 0 0 1-3.38 1.3 5 5 0 0 1-3.17-1.1c-.91-.7-1.36-1.9-1.36-3.5q0-2.28 1.25-3.5a4.3 4.3 0 0 1 3.21-1.22c.73 0 1.46.17 2.09.44m-3.52 1.97q-.57.57-.63 1.37h4.04a2 2 0 0 0-.63-1.4q-.6-.49-1.39-.48-.9 0-1.4.51m-49.5 11.45h-1.43v11.8h1.43V45.3l1.22-1.16 2.79 4.4h1.89l-3.6-5.41 3.38-3.2h-1.88l-3.8 3.67zm-22.06 0h-5.3v11.84h5.16q2.41-.01 3.53-1.4.72-.92.73-2.08.01-1.37-.8-2.13a4 4 0 0 0-1.4-.79c.5-.2.94-.55 1.23-1q.45-.7.41-1.52 0-.97-.53-1.7-.89-1.21-3.03-1.22m1.05 4.73q-.79.3-1.64.27H40.9v-3.67h2.96q1.08.02 1.64.23.99.41.98 1.57c0 .79-.28 1.29-.91 1.6m1.05 4.86q-.64.86-2.17.85H40.9v-4.15h3.27q1.05 0 1.68.24.56.2.89.7.32.48.29 1.07 0 .74-.41 1.3m5.19-6.4h-1.4v8.68h1.5v-4.97q-.02-.91.6-1.62.57-.72 1.7-.72h.24l.1.01.15.02V39.8q-.26-.04-.35-.03h-.14c-.58 0-1.15.22-1.57.61q-.54.43-.83 1.05zm10.48.86a4.4 4.4 0 0 1 1.2 3.27q-.01 2.1-1.06 3.42-1.02 1.37-3.2 1.37a3.7 3.7 0 0 1-2.86-1.2 4.8 4.8 0 0 1-1.08-3.22c0-1.46.38-2.59 1.12-3.47a3.7 3.7 0 0 1 3-1.29 4 4 0 0 1 2.88 1.11zm-.9 5.74a5.5 5.5 0 0 0 .17-4.38q-.62-1.18-2.13-1.19-1.33 0-1.94 1.01c-.44.75-.66 1.6-.63 2.46q0 1.37.63 2.28.61.9 1.94.91 1.38 0 1.96-1.09m17.25-6.35q.83.36 1.32 1.12.43.66.6 1.53.14.59.13 1.9h-6.4q.04 1.32.62 2.11c.38.54 1.01.78 1.8.78a2.34 2.34 0 0 0 2.42-1.76h1.46q-.1.55-.38 1.05a3.5 3.5 0 0 1-2.4 1.84 4.7 4.7 0 0 1-2.75-.16q-.72-.3-1.26-.87a4.5 4.5 0 0 1-1.16-3.26q0-2.1 1.16-3.37a3.8 3.8 0 0 1 3-1.29c.63-.06 1.28.07 1.84.37zm.52 3.36a4 4 0 0 0-.41-1.5q-.63-1.05-2.03-1.05a2.3 2.3 0 0 0-1.7.72c-.47.5-.73 1.16-.74 1.84zm3.28-3.6v8.67h1.5v-4.97c-.02-.6.2-1.17.6-1.62q.59-.72 1.7-.72h.24l.1.01.15.02V39.8q-.26-.04-.35-.03h-.14q-.9 0-1.57.61-.55.43-.84 1.05v-1.5zm6.48 5.92a2 2 0 0 0 .38 1.12q.58.7 1.99.71.83.01 1.5-.34.63-.33.62-1.09 0-.55-.52-.85c-.2-.1-.66-.24-1.3-.4l-1.17-.31a6 6 0 0 1-1.7-.61c-.68-.41-.99-.92-.99-1.64a2.4 2.4 0 0 1 .91-1.97 3.7 3.7 0 0 1 2.47-.74q2.05-.01 2.93 1.15.57.73.56 1.56h-1.4a1.6 1.6 0 0 0-.34-.88q-.51-.57-1.81-.58-.85 0-1.3.3c-.27.21-.45.48-.45.83q0 .56.6.88.32.2.97.34l1 .24q1.64.36 2.2.74.89.56.88 1.74a2.6 2.6 0 0 1-.91 1.97q-.91.84-2.75.85-2 0-2.83-.89a3.4 3.4 0 0 1-.9-2.17h1.36z"/><defs><linearGradient id="aebdagcnb" x1="122.04" x2="10" y1="30.16" y2="30.16" gradientUnits="userSpaceOnUse"><stop stop-color="#D81222"/><stop offset="1" stop-color="#960B1A"/></linearGradient></defs></svg>