<svg xmlns="http://www.w3.org/2000/svg" width="200" height="60" viewBox="0 0 200 60"><path fill="url(#anq0hmwcl)" d="M52.99 53H32V30.65z"/><path fill="#D81222" d="M50.1 42.22c1.67 0 3.27-.64 4.45-1.8a6.03 6.03 0 0 0 0-8.63 6.37 6.37 0 0 0-8.89 0 6.03 6.03 0 0 0 0 8.64 6.4 6.4 0 0 0 4.45 1.79M53.44 7 32 30.72V53z"/><path fill="#fff" d="M144.42 20.43h-2.88v-2.55h2.88zm-2.88 1.24h2.88v10.62h-2.88zM67.49 32.29h3.04V17.92H67.5zm15.57-7.16q.01-1.99-1.06-2.84c-.8-.6-1.78-.9-2.79-.87-.93 0-1.65.25-2.25.66q-.44.37-1 1.2V21.7H73.2v10.58h2.83v-5.77q0-.84.3-1.6c.38-.79 1.02-1.2 2-1.2.8 0 1.3.3 1.6.83q.2.43.21 1.27v6.47h2.92zm1.35-3.34h1.53v-2.96h2.83v2.96h1.78v1.98h-1.78v5.59q0 .66.17.83t1.06.16h.6v2.06l-1.36.04c-1.35.04-2.3-.16-2.75-.7-.34-.33-.47-.82-.47-1.48v-6.5h-1.6zm16.8 1.68a4.6 4.6 0 0 0-1.9-1.56 6 6 0 0 0-2.54-.53c-1.61 0-2.88.5-3.9 1.48q-1.51 1.47-1.52 4.24 0 2.92 1.65 4.24a6 6 0 0 0 3.85 1.31q2.66 0 4.11-1.56c.55-.52.92-1.2 1.06-1.94H99.1q-.27.5-.6.75-.59.5-1.56.5a3 3 0 0 1-1.57-.42q-1.07-.61-1.14-2.22h7.96q.05-1.35-.1-2.1a5 5 0 0 0-.88-2.18m-6.9 2.48c.06-.62.32-1.2.77-1.65q.56-.62 1.7-.62 1 .01 1.68.58.7.6.76 1.69zm15.83-4.53v2.88l-.27-.02-.2-.02h-.33q-1.7.01-2.33 1.07-.38.91-.34 1.9v5.06h-2.88V21.67h2.71v1.85q.45-.82 1.14-1.44c.59-.46 1.33-.7 2.08-.66zm7.11 4.16q-.33.12-1.15.24l-.93.08a8 8 0 0 0-2.53.7q-1.58.87-1.57 2.85a2.9 2.9 0 0 0 .98 2.34 3.7 3.7 0 0 0 2.45.83c.8 0 1.48-.21 2.11-.54q.78-.45 1.36-1.07l.04.33q0 .17.05.33.05.3.16.62h3.1v-.41a1 1 0 0 1-.43-.34 1.4 1.4 0 0 1-.17-.74v-6.1q0-1.9-1.4-2.58-1.52-.71-3.22-.7-2.73-.01-3.88 1.4a4 4 0 0 0-.82 2.3h2.76q.12-.6.42-.99.4-.49 1.44-.48a3 3 0 0 1 1.4.24q.46.24.47.9 0 .55-.64.79m.17 1.79q.23-.1.42-.23h.05v1.08c0 .93-.3 1.56-.81 1.92-.55.38-1.1.54-1.74.54q-.56.02-1-.33-.44-.3-.43-1.03-.02-.81.67-1.19c.26-.13.73-.25 1.32-.37l.63-.13.25-.05q.33-.07.51-.15zm12.27-1.87a2 2 0 0 0-.42-1.08 1.8 1.8 0 0 0-1.48-.65c-.98 0-1.61.45-2 1.4-.16.5-.3 1.14-.3 1.97q0 1.16.3 1.9.21.61.74.98.55.37 1.21.33 1 .02 1.44-.54.44-.55.51-1.36h2.92a4.6 4.6 0 0 1-4.91 4.2q-2.64.01-3.9-1.51a6 6 0 0 1-1.26-3.96c0-1.8.47-3.25 1.35-4.24a4.8 4.8 0 0 1 3.81-1.52c1.35 0 2.5.29 3.34.9q1.3.92 1.57 3.17zm3.85-3.7v1.97h1.61v6.5c0 .66.13 1.15.47 1.48.46.54 1.4.74 2.75.7l1.35-.04v-2.06h-.6q-.88.01-1.05-.16t-.17-.83v-5.58h1.77V21.8h-1.77v-2.96h-2.84v2.96zm23.19-.13h-3.04l-2.3 7.82-2.28-7.82h-3.22l3.9 10.62h3zm8.37.24a4.6 4.6 0 0 1 1.91 1.57c.47.62.72 1.36.89 2.18q.13.75.09 2.1h-7.97q.07 1.6 1.14 2.23.73.4 1.57.4.69.03 1.27-.3.59-.34.89-.93h2.92c-.14.73-.5 1.41-1.06 1.93a5.4 5.4 0 0 1-4.1 1.56 6 6 0 0 1-3.85-1.31q-1.66-1.32-1.66-4.24 0-2.77 1.53-4.24a5.3 5.3 0 0 1 3.9-1.48c.88 0 1.77.2 2.53.53m-4.27 2.39a2.6 2.6 0 0 0-.76 1.65h4.9a2.3 2.3 0 0 0-.75-1.7 2.6 2.6 0 0 0-1.7-.57c-.71 0-1.3.21-1.69.62M100.7 38.15h-1.73v14.28h1.73v-3.9l1.48-1.41 3.4 5.31h2.28l-4.36-6.54 4.1-3.87h-2.29l-4.6 4.45zm-26.78 0h-6.43v14.32h6.26q2.93 0 4.28-1.68a4 4 0 0 0 .89-2.52c0-1.1-.3-1.97-.98-2.59a5 5 0 0 0-1.7-.95 3.2 3.2 0 0 0 1.5-1.21 3 3 0 0 0 .5-1.83q0-1.18-.64-2.06-1.08-1.47-3.68-1.48m1.27 5.72q-.95.37-2 .33h-3.67v-4.45h3.6c.88 0 1.52.13 1.99.3q1.19.47 1.18 1.89c0 .95-.34 1.56-1.1 1.93m1.27 5.89c-.5.7-1.4 1.03-2.62 1.03h-4.32v-5.03h3.98q1.27 0 2.03.29.67.25 1.08.84.4.6.35 1.3 0 .91-.5 1.57m6.3-7.74h-1.7v10.5h1.83V46.5q-.02-1.11.72-1.97c.46-.57 1.18-.86 2.07-.86h.3l.12.01.18.03v-1.86q-.31-.04-.43-.03h-.17c-.7 0-1.39.26-1.9.74q-.67.52-1.01 1.27zm12.74 1.03c.93.9 1.44 2.22 1.44 3.96q0 2.53-1.27 4.14c-.84 1.12-2.11 1.66-3.9 1.66q-2.2-.01-3.47-1.45a5.8 5.8 0 0 1-1.3-3.9c0-1.78.46-3.14 1.35-4.2A4.5 4.5 0 0 1 92 41.68c1.3-.02 2.57.47 3.51 1.35zM94.4 50a6.6 6.6 0 0 0 .21-5.3q-.74-1.43-2.58-1.44c-1.1 0-1.86.4-2.37 1.22-.53.9-.8 1.93-.76 2.97q0 1.65.76 2.76c.51.74 1.27 1.1 2.37 1.1q1.66-.01 2.37-1.3m20.94-7.69q1.02.44 1.61 1.35.53.8.72 1.86c.13.5.17 1.23.17 2.3h-7.78c.04 1.08.3 1.9.76 2.56q.73.96 2.2.94a2.85 2.85 0 0 0 2.92-2.14h1.78q-.12.68-.47 1.28a4.2 4.2 0 0 1-2.92 2.22 6 6 0 0 1-3.32-.19 5 5 0 0 1-1.54-1.05 5.4 5.4 0 0 1-1.4-3.95q0-2.53 1.4-4.07a4.6 4.6 0 0 1 3.63-1.57c.78-.08 1.56.08 2.24.45zm.64 4.07a5 5 0 0 0-.5-1.81q-.76-1.28-2.47-1.27c-.8 0-1.52.28-2.06.86-.57.61-.89 1.4-.9 2.23zm3.98-4.36v10.5h1.83V46.5c-.03-.72.23-1.42.71-1.97a2.6 2.6 0 0 1 2.07-.86h.3l.12.01.18.03v-1.86q-.3-.04-.43-.03h-.16q-1.08 0-1.9.74-.68.52-1.03 1.27v-1.81zm7.87 7.16q.07.87.47 1.36.69.87 2.4.86 1.01.01 1.83-.4c.5-.3.76-.71.76-1.33q0-.66-.64-1.03c-.25-.12-.8-.28-1.56-.5l-1.44-.36a7 7 0 0 1-2.07-.74c-.81-.5-1.19-1.11-1.19-1.98a3 3 0 0 1 1.1-2.38q1.09-.91 3-.9 2.48-.01 3.56 1.4.69.87.68 1.88h-1.7a2 2 0 0 0-.41-1.07q-.64-.69-2.2-.7-1.05 0-1.57.37c-.34.25-.56.58-.56 1q.01.68.73 1.07.4.23 1.18.4l1.23.3c1.31.28 2.2.61 2.66.9q1.07.68 1.06 2.1a3 3 0 0 1-1.1 2.38c-.72.66-1.86 1.03-3.34 1.03q-2.41-.01-3.43-1.07a4 4 0 0 1-1.1-2.63h1.65z"/><defs><linearGradient id="anq0hmwcl" x1="168.05" x2="32" y1="30.19" y2="30.19" gradientUnits="userSpaceOnUse"><stop stop-color="#D81222"/><stop offset="1" stop-color="#960B1A"/></linearGradient></defs></svg>