<svg xmlns="http://www.w3.org/2000/svg" width="200" height="60" viewBox="0 0 200 60"><path fill="#fff" d="m32 19.38 4.78-1.34v18.22H32zm19.54 16.88h-4.36v-6.62c0-1.66.06-3.58-2.06-3.58-1.68 0-2.49 1.23-2.49 2.88v7.33h-4.37V23.53l4.24-1.2v2.42a5 5 0 0 1 4.24-2.34c3.49 0 4.8 1.99 4.8 5.22zm4.19 0-4.45-13.45h4.54l2.48 8.98 2.48-8.98h4.45l-4.47 13.44zm18.21-8.63a2.7 2.7 0 0 0-2.54-2.23c-1.96 0-2.93 1.84-2.87 3.75zm-2.12 6.09a6.1 6.1 0 0 0 4.84-2.36l1.17 3.21a10.2 10.2 0 0 1-6.26 2.1c-4.23 0-7.34-2.52-7.34-7.17a7 7 0 0 1 7.2-7.07c4.16 0 6.74 2.78 6.7 7l-9.24 2.59c.48 1.2 1.66 1.7 2.93 1.7m14.8-5.76c1 .16 2.14.36 2.95.88a3.6 3.6 0 0 1 1.71 3.02c0 3.58-3.33 4.8-6.5 4.8-2.84 0-5.92-.96-6.42-4.06l3.74-1.04c.22 1.44 1.17 2.28 2.6 2.28.98 0 2.21-.42 2.22-1.46 0-1.06-1.35-1.27-2.14-1.45q-.83-.21-1.7-.39c-2.24-.46-4.43-1.14-4.43-3.99 0-3.26 3.49-4.13 6.1-4.13 2.45 0 5.67.8 6.12 3.43l-3.81 1.08c-.2-1.23-1.03-1.67-2.4-1.67-.72 0-1.64.25-1.64 1.03 0 .88 1.58 1.26 2.27 1.4l1.33.26m9.73 3.82c0 .59.2 1.04.73 1.2.7.2 1.85.05 2.41-.08l-.9 3.36c-.59.09-1.4.14-1.93.14-3.72 0-4.68-1.08-4.68-4.74V20.32l4.37-1.22v3.7h3.15l-.79 2.85h-2.36zm3.76-8.21 4.36-1.22v13.92h-4.36zm14.76 6.07c0-1.66.06-3.58-2.07-3.58-1.66 0-2.48 1.23-2.48 2.88v7.33h-4.37V23.53l4.23-1.2v2.42a5 5 0 0 1 4.25-2.34c3.49 0 4.8 1.99 4.8 5.22v8.63h-4.36zm12.23-3.84c-1.91 0-2.54 1.7-2.54 3.37 0 1.6.73 3.16 2.52 3.16 1.85 0 2.63-1.44 2.65-3.13 0-1.7-.67-3.4-2.63-3.4m-.19 15.2c-2.6 0-5.35-.7-6.24-3.58l3.93-1.1a2.5 2.5 0 0 0 2.5 1.83c1.8 0 2.55-1.45 2.55-3.14v-1.36a4.2 4.2 0 0 1-3.6 2.05c-4.04 0-5.86-2.9-5.86-6.69 0-3.58 2.08-6.59 5.86-6.59 1.57 0 2.82.73 3.62 2.08v-.98l4.19-1.17v12.29c0 4.28-3.1 6.36-6.95 6.36m8.93-6.54h1.41v1.81h-1.4zm6.58 1.17c1.27 0 2.25-1.15 2.4-2.52l1 .28c-.34 1.88-1.54 3.14-3.4 3.14-2.55 0-3.98-2.15-3.98-4.67 0-2.51 1.41-4.66 3.98-4.67 1.71 0 3 .93 3.34 2.74l-1.01.29c-.28-1.3-1.08-2.13-2.33-2.13-1.96 0-2.92 1.9-2.92 3.77 0 1.86 1 3.77 2.92 3.77m8.43-7.54c-1.94 0-2.92 1.9-2.92 3.77 0 1.86 1 3.77 2.92 3.77 1.93 0 2.92-1.92 2.92-3.77 0-1.86-.98-3.77-2.92-3.77m0 8.44c-2.54 0-3.98-2.15-3.98-4.67 0-2.51 1.41-4.67 3.98-4.67s3.98 2.15 3.98 4.67-1.43 4.68-3.98 4.67m16.09-.25v-5.95c0-1.42-.54-2.24-2-2.24-1.78 0-2.28 1.65-2.27 3.18v5h-1.06v-5.99c.01-1.19-.48-2.17-1.75-2.19-1.85 0-2.52 1.6-2.53 3.26v4.92h-1.06v-8.7l.97-.28v1.74a3 3 0 0 1 2.83-1.84c1.09-.01 2.1.55 2.42 1.71a2.9 2.9 0 0 1 2.7-1.72c1.92 0 2.81 1.1 2.81 3.1v5.98h-1.06z"/><path fill="orange" d="m100.52 18.04 4.15-1.04v3.13l-4.15 1.04z"/></svg>