<svg width="200" height="80" viewBox="0 0 200 80" xmlns="http://www.w3.org/2000/svg"><g clip-path="url(#aqgww3bv4)"><path d="m22.57 34.88 1.94 1.23-.74 6.99 10.4-6.35a11 11 0 1 0-21.54 4.2l9.94-6.07Z" fill="#323956"/><path d="m22.89 46.62-1.94-1.22.74-6.99-8.14 4.97a11 11 0 0 0 20.64-3.66l-11.3 6.9Z" fill="#323956"/><path d="M23.86 33.88a1.56 1.56 0 1 0 0-3.11 1.56 1.56 0 0 0 0 3.1Z" fill="#F64E00"/><path d="m39.79 48.4 2.73-.04V29.05l-2.73.03V48.4Zm13.06-13.42c-1.22 0-3.3.54-4.22 2.02v-1.75h-2.58V48.4h2.58v-7.12c0-2.59 1.95-3.75 3.9-3.75 1.83 0 3.05 1.38 3.05 3.42v7.45h2.57V40.8c0-1.86-.5-3.4-1.52-4.41a5.15 5.15 0 0 0-3.78-1.42Zm13.06 10.04-3.94-9.76H59.2l5.46 13.14h2.46l5.5-13.14h-2.8l-3.92 9.76Zm48.15-10.04a6.61 6.61 0 0 0-6.87 6.8 6.71 6.71 0 0 0 6.87 6.9 6.72 6.72 0 0 0 6.89-6.9c0-3.94-2.89-6.8-6.9-6.8Zm0 11.26c-2.42 0-4.25-1.92-4.25-4.46 0-2.49 1.83-4.36 4.25-4.36a4.25 4.25 0 0 1 4.3 4.36 4.29 4.29 0 0 1-4.3 4.45Zm15.8-11.26c-1.91 0-3.65.83-4.54 2.14v-1.87h-2.58V54.7h2.58v-8.14c.88 1.33 2.56 2.1 4.56 2.1 3.8 0 6.56-2.87 6.56-6.83s-2.77-6.85-6.59-6.85Zm-.23 11.26a4.3 4.3 0 0 1-4.3-4.37 4.29 4.29 0 0 1 4.3-4.45c2.36 0 4.2 1.95 4.2 4.45s-1.8 4.37-4.2 4.37Zm33.72-9.15c-.89-1.33-2.56-2.1-4.57-2.1-3.8 0-6.55 2.87-6.55 6.83s2.77 6.86 6.58 6.86c1.9 0 3.65-.83 4.53-2.14v1.86h2.58V28.17h-2.57v8.92Zm-4.33 9.14c-2.34 0-4.17-1.95-4.17-4.45 0-2.49 1.78-4.36 4.17-4.36a4.3 4.3 0 0 1 4.34 4.36c-.02 2.16-1.53 4.45-4.34 4.45Zm10.17-10.97h2.58V48.4h-2.58V35.26Zm18.36 0h-2.58v1.52c-.92-1.14-2.5-1.8-4.35-1.8h-.2c-3.8 0-6.56 2.86-6.56 6.83 0 3.96 2.77 6.86 6.58 6.86h.22c1.76 0 3.38-.71 4.32-1.84v1.57h2.77V35.25h-.2Zm-6.81 10.97c-2.29-.07-4.07-2-4.07-4.45 0-2.46 1.75-4.3 4.07-4.36a4.3 4.3 0 0 1 4.23 4.36c0 2.13-1.5 4.39-4.23 4.45Zm-88.25-5.87c-1.35-.34-2.3-.65-2.3-1.5 0-.94.95-1.6 2.32-1.6.99.02 1.95.37 2.73.99l.06.05 1.39-1.92-.07-.05a6.69 6.69 0 0 0-4.28-1.41c-2.32 0-4.82 1.28-4.82 4.09 0 1.95 1.63 2.9 3 3.36.45.15.91.27 1.38.39 1.42.36 2.66.68 2.66 1.8 0 .77-.79 1.6-2.24 1.6a6.28 6.28 0 0 1-3.78-1.4l-.07-.05-1.38 1.98.06.04a8.17 8.17 0 0 0 5.23 1.77c2.35 0 4.85-1.4 4.85-4s-2.4-3.53-4.74-4.14Zm58.06 1.24c0-3.92-2.53-6.65-6.2-6.65-3.7 0-6.4 2.8-6.4 6.66a6.9 6.9 0 0 0 1.96 5.01 6.11 6.11 0 0 0 4.32 1.73h.12c2.27-.04 3.75-.41 5.56-2.36l.05-.05-1.79-1.7-.05.05a4.7 4.7 0 0 1-3.68 1.66c-2 0-3.56-1.46-3.93-3.65l9.95-.02h.07v-.43c.02-.05.02-.11.02-.25Zm-9.65-1.33c.34-1.9 1.58-2.94 3.51-2.94 1.87 0 3.14 1.1 3.42 2.94h-6.93ZM85.66 41.6c0-3.92-2.55-6.65-6.2-6.65-3.7 0-6.39 2.8-6.39 6.66a6.92 6.92 0 0 0 1.96 5.01 6.11 6.11 0 0 0 4.32 1.73h.12c2.27-.04 3.75-.41 5.55-2.36l.06-.05-1.79-1.7-.05.05a4.71 4.71 0 0 1-3.69 1.66c-2 0-3.56-1.46-3.93-3.65l9.95-.02h.08v-.43l.01-.25ZM76 40.27c.35-1.9 1.6-2.94 3.52-2.94 1.87 0 3.14 1.1 3.42 2.94H76Zm29.68 5.4c-.35.1-.72.14-1.09.13a2.14 2.14 0 0 1-1.6-.61c-.27-.33-.33-.84-.33-1.5V37.5h3.67v-2.25h-3.67V31h-2.58v4.25h-1.42v2.25h1.42v6.06c0 1.46.32 2.53.98 3.27a4.42 4.42 0 0 0 3.46 1.45c.65 0 1.3-.08 1.92-.26l.08-.02-.76-2.35-.08.02Zm64.8-16.71a1.65 1.65 0 0 0-1.65 1.68 1.63 1.63 0 0 0 1.65 1.65 1.65 1.65 0 0 0 1.56-2.3 1.66 1.66 0 0 0-1.56-1.03Z" fill="#fff"/></g><defs><clipPath id="aqgww3bv4"><path transform="translate(12 27)" d="M0 0h175.75v27.81H0z"/></clipPath></defs></svg>