<svg xmlns="http://www.w3.org/2000/svg" width="200" height="60" viewBox="0 0 200 60"><path fill="#323956" d="m38.74 33.19 1.5.95L49 28.78a8.54 8.54 0 0 1-12.2 6.53 8.5 8.5 0 0 1-3.8-3.69l6.31-3.85zm.15-14.03A8.5 8.5 0 0 1 49 26.48l-8.07 4.92.57-5.42-1.5-.95-7.7 4.71a8.55 8.55 0 0 1 6.6-10.58"/><path fill="#fff" d="m53.72 35 2.11-.02V19.69l-2.11.04zm10.1-10.61c-.95 0-2.56.43-3.27 1.6V24.6h-2V35h2v-5.63c0-2.05 1.5-2.97 3-2.97 1.42 0 2.37 1.09 2.37 2.7V35h1.99v-6a5 5 0 0 0-1.18-3.5 4 4 0 0 0-2.92-1.12m10.08 7.94-3.05-7.72h-2.13L72.94 35h1.9l4.24-10.4h-2.15zm37.18-7.94a5.17 5.17 0 0 0-5.3 5.39 5.25 5.25 0 0 0 5.3 5.45 5 5 0 0 0 3.8-1.56 5.3 5.3 0 0 0 1.53-3.9 5.17 5.17 0 0 0-5.33-5.38m0 8.9c-1.86 0-3.28-1.5-3.28-3.51 0-1.98 1.42-3.46 3.29-3.46a3.2 3.2 0 0 1 2.38 1 3.4 3.4 0 0 1 .94 2.46c0 2-1.43 3.52-3.33 3.52m12.2-8.9c-1.47 0-2.81.65-3.5 1.7V24.6h-1.99V40h2v-6.44c.67 1.04 1.97 1.66 3.52 1.66 2.93 0 5.06-2.27 5.06-5.4s-2.14-5.43-5.09-5.43m-.17 8.9a3.3 3.3 0 0 1-2.37-1 3.4 3.4 0 0 1-.96-2.45c0-2 1.43-3.52 3.33-3.52 1.82 0 3.25 1.55 3.25 3.52s-1.4 3.46-3.25 3.46m26.04-7.23c-.68-1.05-1.98-1.67-3.52-1.67-2.94 0-5.07 2.28-5.07 5.41s2.14 5.43 5.09 5.43c1.47 0 2.81-.65 3.5-1.7v1.48h2V19h-2zm-3.34 7.24c-1.8 0-3.22-1.55-3.22-3.52 0-1.98 1.37-3.46 3.22-3.46a3.3 3.3 0 0 1 2.38 1 3.4 3.4 0 0 1 .97 2.46c-.01 1.7-1.18 3.52-3.35 3.52m7.85-8.7h2V35h-2zm12.19 0v1.22a4.2 4.2 0 0 0-3.35-1.44h-.17c-2.93 0-5.06 2.28-5.06 5.41s2.14 5.43 5.09 5.43h.16c1.36 0 2.61-.56 3.34-1.45v1.24H168V24.6zm-3.26 8.69c-1.77-.05-3.15-1.57-3.15-3.52 0-1.94 1.35-3.4 3.15-3.45a3.37 3.37 0 0 1 3.26 3.45c0 1.69-1.16 3.47-3.26 3.52m-68.17-4.64c-1.04-.27-1.78-.52-1.78-1.18 0-.75.74-1.27 1.8-1.27.77.01 1.5.29 2.1.78l.06.04 1.07-1.52-.05-.04a5 5 0 0 0-3.3-1.12c-1.8 0-3.74 1.02-3.74 3.24 0 1.55 1.26 2.3 2.32 2.66q.52.17 1.07.3c1.1.3 2.05.55 2.05 1.43 0 .61-.6 1.27-1.73 1.27a4.8 4.8 0 0 1-2.92-1.1l-.05-.05-1.06 1.57.04.03a6.2 6.2 0 0 0 4.04 1.4c1.81 0 3.75-1.1 3.75-3.17 0-2.05-1.85-2.8-3.67-3.27m44.85.98c0-3.1-1.96-5.27-4.8-5.27-2.85 0-4.93 2.22-4.93 5.28a5.6 5.6 0 0 0 1.51 3.96c.9.9 2.1 1.39 3.34 1.37h.1c1.75-.03 2.89-.33 4.28-1.86l.04-.05-1.38-1.35-.04.05a3.7 3.7 0 0 1-2.84 1.31c-1.54 0-2.75-1.15-3.04-2.88l7.69-.02h.06v-.54m-7.46-1.05c.27-1.5 1.23-2.33 2.72-2.33 1.44 0 2.42.87 2.64 2.33zm-42.66 1.05c0-3.1-1.97-5.27-4.78-5.27-2.87 0-4.94 2.22-4.94 5.28a5.6 5.6 0 0 0 1.51 3.96c.9.9 2.1 1.39 3.34 1.37h.09c1.75-.03 2.9-.33 4.29-1.86l.04-.05-1.38-1.35-.04.05a3.7 3.7 0 0 1-2.85 1.31c-1.54 0-2.75-1.15-3.04-2.88l7.69-.02h.06v-.34zm-7.46-1.05c.27-1.5 1.23-2.33 2.72-2.33 1.44 0 2.42.87 2.64 2.33zm22.93 4.27q-.42.1-.84.1a1.6 1.6 0 0 1-1.24-.48c-.22-.26-.26-.66-.26-1.18v-4.9h2.83v-1.8h-2.83v-3.37h-2v3.37h-1.1v1.77h1.1v4.8q0 1.71.77 2.6a3.4 3.4 0 0 0 2.67 1.14q.75 0 1.48-.21l.06-.02-.59-1.86zm50.04-13.22a1.2 1.2 0 0 0-.91.39 1.3 1.3 0 0 0-.37.93 1.3 1.3 0 0 0 .37.93 1.3 1.3 0 0 0 .91.38 1.3 1.3 0 0 0 .92-.37 1.3 1.3 0 0 0 .38-.94 1.4 1.4 0 0 0-.38-.94 1.3 1.3 0 0 0-.92-.38"/><path fill="#F64E00" d="M40.97 25.68a1.43 1.43 0 0 0 0-2.86 1.43 1.43 0 0 0 0 2.86"/></svg>