<svg xmlns="http://www.w3.org/2000/svg" width="132" height="60" viewBox="0 0 132 60"><path fill="#323956" d="m15.55 32.49 1.23.76L24 28.92a7 7 0 0 1-1.9 3.86 7.1 7.1 0 0 1-8.15 1.43 7 7 0 0 1-3.12-3l5.2-3.11zm.13-11.36a7 7 0 0 1 5.46 1.18 7 7 0 0 1 2.85 4.74l-6.64 3.99.47-4.4-1.24-.76-6.34 3.82a6.8 6.8 0 0 1 2.8-7.48q1.21-.81 2.64-1.1"/><path fill="#fff" d="m27.89 33.96 1.73-.03V21.56l-1.73.03zm8.3-8.6c-.77 0-2.1.35-2.68 1.3v-1.12h-1.64v8.42h1.64V29.4c0-1.66 1.24-2.4 2.48-2.4 1.16 0 1.94.88 1.94 2.19v4.77h1.64V29.1c0-1.2-.33-2.17-.97-2.83-.58-.6-1.42-.9-2.4-.9m8.31 6.43L42 25.54h-1.76l3.47 8.42h1.57l3.5-8.42H47zm30.63-6.43a4.2 4.2 0 0 0-4.37 4.36 4.3 4.3 0 0 0 4.37 4.42 4.25 4.25 0 0 0 4.08-2.71q.31-.82.3-1.7a4.2 4.2 0 0 0-4.38-4.37m0 7.21c-1.54 0-2.7-1.22-2.7-2.85a2.7 2.7 0 0 1 2.7-2.8 2.7 2.7 0 0 1 2.55 1.73q.2.51.19 1.07c0 1.63-1.18 2.85-2.74 2.85m10.04-7.2c-1.2 0-2.31.52-2.88 1.36v-1.2h-1.64V38h1.64v-5.22c.56.85 1.63 1.35 2.9 1.35 2.42 0 4.17-1.84 4.17-4.38s-1.76-4.39-4.19-4.39m-.14 7.2a2.7 2.7 0 0 1-2.54-1.72q-.2-.51-.2-1.07c0-1.63 1.18-2.85 2.74-2.85 1.5 0 2.67 1.25 2.67 2.85s-1.14 2.8-2.67 2.8m21.45-5.86c-.56-.84-1.63-1.34-2.9-1.34-2.42 0-4.17 1.84-4.17 4.37s1.76 4.4 4.18 4.4c1.21 0 2.32-.53 2.89-1.37v1.19h1.64V21h-1.64zm-2.75 5.86c-1.5 0-2.66-1.25-2.66-2.85s1.14-2.8 2.66-2.8a2.7 2.7 0 0 1 2.55 1.73q.2.51.2 1.07c0 1.39-.97 2.85-2.75 2.85m6.46-7.03h1.64v8.42h-1.64zm10.04 0v.98a3.5 3.5 0 0 0-2.76-1.16h-.14c-2.41 0-4.17 1.84-4.17 4.38 0 2.53 1.77 4.4 4.2 4.4h.13a3.6 3.6 0 0 0 2.75-1.18v1H122v-8.42zm-2.69 7.03c-1.46-.04-2.59-1.27-2.59-2.85 0-1.57 1.11-2.76 2.59-2.8a2.75 2.75 0 0 1 2.69 2.8c0 1.37-.95 2.81-2.69 2.85M61.41 28.8c-.86-.22-1.47-.42-1.47-.95 0-.61.6-1.03 1.48-1.03.63.01 1.24.23 1.74.63l.04.03.88-1.23-.04-.03a4.2 4.2 0 0 0-2.72-.9c-1.48 0-3.07.82-3.07 2.61 0 1.26 1.03 1.87 1.9 2.16q.45.14.88.25c.9.23 1.7.43 1.7 1.15 0 .5-.5 1.03-1.43 1.03a4 4 0 0 1-2.4-.9l-.05-.03-.87 1.26.03.03a5.2 5.2 0 0 0 3.33 1.14c1.5 0 3.09-.9 3.09-2.57 0-1.66-1.53-2.26-3.02-2.65m36.93.8c0-2.52-1.61-4.27-3.95-4.27-2.35 0-4.07 1.8-4.07 4.27a4.5 4.5 0 0 0 1.25 3.21 4 4 0 0 0 2.75 1.11h.08a4.2 4.2 0 0 0 3.53-1.51l.03-.04-1.13-1.09-.04.04a3 3 0 0 1-2.34 1.06c-1.27 0-2.26-.93-2.5-2.33l6.33-.02h.05v-.43m-6.14-.85c.22-1.22 1-1.89 2.23-1.89 1.2 0 2 .7 2.18 1.89zm-35.13.85c0-2.52-1.63-4.27-3.94-4.27-2.36 0-4.07 1.8-4.07 4.27a4.5 4.5 0 0 0 1.24 3.21 4 4 0 0 0 2.75 1.11h.08c1.44-.02 2.39-.27 3.53-1.51l.04-.04-1.14-1.09-.04.04a3 3 0 0 1-2.34 1.06c-1.27 0-2.27-.93-2.5-2.33l6.33-.02h.05v-.43m-6.15-.85c.22-1.22 1.01-1.89 2.24-1.89 1.19 0 2 .7 2.18 1.89zm18.9 3.45q-.33.1-.7.08a1.4 1.4 0 0 1-1-.39c-.19-.2-.22-.53-.22-.95v-3.97h2.33v-1.44h-2.33V22.8h-1.65v2.73h-.9v1.44h.9v3.88q0 1.39.63 2.1a2.8 2.8 0 0 0 2.2.93q.63 0 1.22-.17l.05-.02-.48-1.5zm41.21-10.7a1 1 0 0 0-.97.66q-.08.2-.08.41a1.1 1.1 0 0 0 .65.98q.2.09.4.08a1 1 0 0 0 1-.65 1 1 0 0 0 0-.82 1.1 1.1 0 0 0-1-.66"/><path fill="#F64E00" d="M17.39 26.4c.64 0 1.17-.51 1.17-1.15a1.17 1.17 0 0 0-2.34 0c0 .64.52 1.16 1.17 1.16"/></svg>