<svg xmlns="http://www.w3.org/2000/svg" width="620" height="468" fill="none" viewBox="0 0 620 468"><path fill="#000" d="M0 0h620v468H0z"/><g filter="url(#acwcef1fe)"><path stroke="#F23645" stroke-width="2" d="M28 78.5h6v57h8V117h8v45h7.5v-24.5H65v50h7.5V159h8v126.5h8v-94H96v91h7.5v-50h8V282h7.5v-49.5"/></g><g filter="url(#bcwcef1fe)"><path stroke="#089981" stroke-width="2" d="M119 232.5V217h8v17.5h8v-23h7.5V229h7.5v-98h8v80h8V93h7.5v117"/></g><g filter="url(#ccwcef1fe)"><path stroke="#F23645" stroke-width="2" d="M173.5 210v94.5h7.5v-49h8V320h7.5v-65"/></g><g filter="url(#dcwcef1fe)"><path stroke="#089981" stroke-width="2" d="M196.5 255V135h8v36h7.5v-33.5h8v33"/></g><g filter="url(#ecwcef1fe)"><path stroke="#F23645" stroke-width="2" d="M220 170.5v11h7.5V144h7.5v114h8v-84h8v88h7.5v-50.5h7.5v31h8v-31"/></g><g filter="url(#fcwcef1fe)"><path stroke="#089981" stroke-width="2" d="M274 211.5V205h8v37"/></g><g filter="url(#gcwcef1fe)"><path stroke="#F23645" stroke-width="2" d="M282 242v115.5h7.5V313h7.5v101.5h8v-43h7.5v58h8V392h8v33h7.5v-32.5"/></g><g filter="url(#hcwcef1fe)"><path stroke="#089981" stroke-width="2" d="M336 392.5v-51h7.5v40h7.5v-144h8.5V258h7.5v-23h7.5v23"/></g><g filter="url(#icwcef1fe)"><path stroke="#F23645" stroke-width="2" d="M374.5 258v5.5h8V235"/></g><g filter="url(#jcwcef1fe)"><path stroke="#089981" stroke-width="2" d="M382.5 235v-46h7.5v54.5h8V89h7.5v57.5h8v-40h7.5V146"/></g><g filter="url(#kcwcef1fe)"><path stroke="#F23645" stroke-width="2" d="M421 146v14.5h7.5V112h8v24.5h8V112"/></g><g filter="url(#lcwcef1fe)"><path stroke="#089981" stroke-width="2" d="M444.5 112V98h7.5v38.5"/></g><g filter="url(#mcwcef1fe)"><path stroke="#F23645" stroke-width="2" d="M452 136.5V185h7.5v-26.5h7.5V199h8.5v-24.5h7.5V217h7.5v-42"/></g><g filter="url(#ncwcef1fe)"><path stroke="#089981" stroke-width="2" d="M490.5 175V92.5h8v52h7.5V112h8v31.5"/></g><g filter="url(#ocwcef1fe)"><path stroke="#F23645" stroke-width="2" d="M514 143.5V175h7.5v-43.5h8v20h7.5v-20"/></g><g filter="url(#pcwcef1fe)"><path stroke="#089981" stroke-width="2" d="M537 131.5V127h7.5v20.5h8v-18h8V147"/></g><g filter="url(#qcwcef1fe)"><path stroke="#F23645" stroke-width="2" d="M560.5 147v1.9h7.5v-19.4"/></g><g filter="url(#rcwcef1fe)"><path stroke="#089981" stroke-width="2" d="M568 129.5v-87h7.5V72h8V39h8v17.5"/></g><defs><filter id="acwcef1fe" width="148" height="265" x="0" y="49.5" color-interpolation-filters="sRGB" filterUnits="userSpaceOnUse"><feFlood result="BackgroundImageFix"/><feColorMatrix in="SourceAlpha" result="hardAlpha"/><feGaussianBlur stdDeviation="14"/><feColorMatrix values="0 0 0 0 0.95 0 0 0 0 0.210246 0 0 0 0 0.271892 0 0 0 1 0"/><feBlend in="SourceGraphic"/></filter><filter id="bcwcef1fe" width="96.5" height="183.5" x="98" y="72" color-interpolation-filters="sRGB" filterUnits="userSpaceOnUse"><feFlood flood-opacity="0" result="BackgroundImageFix"/><feColorMatrix in="SourceAlpha" result="hardAlpha"/><feGaussianBlur stdDeviation="10"/><feColorMatrix values="0 0 0 0 0.03 0 0 0 0 0.6 0 0 0 0 0.505 0 0 0 1 0"/><feBlend in="SourceGraphic"/></filter><filter id="ccwcef1fe" width="81" height="167" x="144.5" y="182" color-interpolation-filters="sRGB" filterUnits="userSpaceOnUse"><feFlood flood-opacity="0" result="BackgroundImageFix"/><feColorMatrix in="SourceAlpha" result="hardAlpha"/><feGaussianBlur stdDeviation="14"/><feColorMatrix values="0 0 0 0 0.95 0 0 0 0 0.210246 0 0 0 0 0.271892 0 0 0 1 0"/><feBlend in="SourceGraphic"/></filter><filter id="dcwcef1fe" width="65.5" height="161" x="175.5" y="114" color-interpolation-filters="sRGB" filterUnits="userSpaceOnUse"><feFlood flood-opacity="0" result="BackgroundImageFix"/><feColorMatrix in="SourceAlpha" result="hardAlpha"/><feGaussianBlur stdDeviation="10"/><feColorMatrix values="0 0 0 0 0.03 0 0 0 0 0.6 0 0 0 0 0.505 0 0 0 1 0"/><feBlend in="SourceGraphic"/></filter><filter id="ecwcef1fe" width="112" height="176" x="191" y="115" color-interpolation-filters="sRGB" filterUnits="userSpaceOnUse"><feFlood flood-opacity="0" result="BackgroundImageFix"/><feColorMatrix in="SourceAlpha" result="hardAlpha"/><feGaussianBlur stdDeviation="14"/><feColorMatrix values="0 0 0 0 0.95 0 0 0 0 0.210246 0 0 0 0 0.271892 0 0 0 1 0"/><feBlend in="SourceGraphic"/></filter><filter id="fcwcef1fe" width="50" height="78" x="253" y="184" color-interpolation-filters="sRGB" filterUnits="userSpaceOnUse"><feFlood flood-opacity="0" result="BackgroundImageFix"/><feColorMatrix in="SourceAlpha" result="hardAlpha"/><feGaussianBlur stdDeviation="10"/><feColorMatrix values="0 0 0 0 0.03 0 0 0 0 0.6 0 0 0 0 0.505 0 0 0 1 0"/><feBlend in="SourceGraphic"/></filter><filter id="gcwcef1fe" width="112" height="244.5" x="253" y="214" color-interpolation-filters="sRGB" filterUnits="userSpaceOnUse"><feFlood flood-opacity="0" result="BackgroundImageFix"/><feColorMatrix in="SourceAlpha" result="hardAlpha"/><feGaussianBlur stdDeviation="14"/><feColorMatrix values="0 0 0 0 0.95 0 0 0 0 0.210246 0 0 0 0 0.271892 0 0 0 1 0"/><feBlend in="SourceGraphic"/></filter><filter id="hcwcef1fe" width="80.5" height="198.5" x="315" y="214" color-interpolation-filters="sRGB" filterUnits="userSpaceOnUse"><feFlood flood-opacity="0" result="BackgroundImageFix"/><feColorMatrix in="SourceAlpha" result="hardAlpha"/><feGaussianBlur stdDeviation="10"/><feColorMatrix values="0 0 0 0 0.03 0 0 0 0 0.6 0 0 0 0 0.505 0 0 0 1 0"/><feBlend in="SourceGraphic"/></filter><filter id="icwcef1fe" width="66" height="85.5" x="345.5" y="207" color-interpolation-filters="sRGB" filterUnits="userSpaceOnUse"><feFlood flood-opacity="0" result="BackgroundImageFix"/><feColorMatrix in="SourceAlpha" result="hardAlpha"/><feGaussianBlur stdDeviation="14"/><feColorMatrix values="0 0 0 0 0.95 0 0 0 0 0.210246 0 0 0 0 0.271892 0 0 0 1 0"/><feBlend in="SourceGraphic"/></filter><filter id="jcwcef1fe" width="80.5" height="196.5" x="361.5" y="68" color-interpolation-filters="sRGB" filterUnits="userSpaceOnUse"><feFlood flood-opacity="0" result="BackgroundImageFix"/><feColorMatrix in="SourceAlpha" result="hardAlpha"/><feGaussianBlur stdDeviation="10"/><feColorMatrix values="0 0 0 0 0.03 0 0 0 0 0.6 0 0 0 0 0.505 0 0 0 1 0"/><feBlend in="SourceGraphic"/></filter><filter id="kcwcef1fe" width="81.5" height="106.5" x="392" y="83" color-interpolation-filters="sRGB" filterUnits="userSpaceOnUse"><feFlood flood-opacity="0" result="BackgroundImageFix"/><feColorMatrix in="SourceAlpha" result="hardAlpha"/><feGaussianBlur stdDeviation="14"/><feColorMatrix values="0 0 0 0 0.95 0 0 0 0 0.210246 0 0 0 0 0.271892 0 0 0 1 0"/><feBlend in="SourceGraphic"/></filter><filter id="lcwcef1fe" width="49.5" height="79.5" x="423.5" y="77" color-interpolation-filters="sRGB" filterUnits="userSpaceOnUse"><feFlood flood-opacity="0" result="BackgroundImageFix"/><feColorMatrix in="SourceAlpha" result="hardAlpha"/><feGaussianBlur stdDeviation="10"/><feColorMatrix values="0 0 0 0 0.03 0 0 0 0 0.6 0 0 0 0 0.505 0 0 0 1 0"/><feBlend in="SourceGraphic"/></filter><filter id="mcwcef1fe" width="96.5" height="137.5" x="423" y="108.5" color-interpolation-filters="sRGB" filterUnits="userSpaceOnUse"><feFlood flood-opacity="0" result="BackgroundImageFix"/><feColorMatrix in="SourceAlpha" result="hardAlpha"/><feGaussianBlur stdDeviation="14"/><feColorMatrix values="0 0 0 0 0.95 0 0 0 0 0.210246 0 0 0 0 0.271892 0 0 0 1 0"/><feBlend in="SourceGraphic"/></filter><filter id="ncwcef1fe" width="65.5" height="123.5" x="469.5" y="71.5" color-interpolation-filters="sRGB" filterUnits="userSpaceOnUse"><feFlood flood-opacity="0" result="BackgroundImageFix"/><feColorMatrix in="SourceAlpha" result="hardAlpha"/><feGaussianBlur stdDeviation="10"/><feColorMatrix values="0 0 0 0 0.03 0 0 0 0 0.6 0 0 0 0 0.505 0 0 0 1 0"/><feBlend in="SourceGraphic"/></filter><filter id="ocwcef1fe" width="81" height="101.5" x="485" y="102.5" color-interpolation-filters="sRGB" filterUnits="userSpaceOnUse"><feFlood flood-opacity="0" result="BackgroundImageFix"/><feColorMatrix in="SourceAlpha" result="hardAlpha"/><feGaussianBlur stdDeviation="14"/><feColorMatrix values="0 0 0 0 0.95 0 0 0 0 0.210246 0 0 0 0 0.271892 0 0 0 1 0"/><feBlend in="SourceGraphic"/></filter><filter id="pcwcef1fe" width="65.5" height="62.5" x="516" y="106" color-interpolation-filters="sRGB" filterUnits="userSpaceOnUse"><feFlood flood-opacity="0" result="BackgroundImageFix"/><feColorMatrix in="SourceAlpha" result="hardAlpha"/><feGaussianBlur stdDeviation="10"/><feColorMatrix values="0 0 0 0 0.03 0 0 0 0 0.6 0 0 0 0 0.505 0 0 0 1 0"/><feBlend in="SourceGraphic"/></filter><filter id="qcwcef1fe" width="65.5" height="76.4" x="531.5" y="101.5" color-interpolation-filters="sRGB" filterUnits="userSpaceOnUse"><feFlood flood-opacity="0" result="BackgroundImageFix"/><feColorMatrix in="SourceAlpha" result="hardAlpha"/><feGaussianBlur stdDeviation="14"/><feComposite in2="hardAlpha"/><feColorMatrix values="0 0 0 0 0.95 0 0 0 0 0.210246 0 0 0 0 0.271892 0 0 0 1 0"/><feBlend in="SourceGraphic"/></filter><filter id="rcwcef1fe" width="65.5" height="131.5" x="547" y="18" color-interpolation-filters="sRGB" filterUnits="userSpaceOnUse"><feFlood flood-opacity="0" result="BackgroundImageFix"/><feColorMatrix in="SourceAlpha" result="hardAlpha"/><feGaussianBlur stdDeviation="10"/><feColorMatrix values="0 0 0 0 0.03 0 0 0 0 0.6 0 0 0 0 0.505 0 0 0 1 0"/><feBlend in="SourceGraphic"/></filter></defs></svg>