<svg xmlns="http://www.w3.org/2000/svg" width="200" height="80" viewBox="0 0 200 80"><path fill="#EEBC4E" d="m54.33 41.27-2.99 6.83-1.9-4.47 2.06-4.72a1.8 1.8 0 0 1 1.67-1.19h12.98c.75 0 1.43.47 1.67 1.18l4.64 10.61A1.78 1.78 0 0 1 70.78 52l-11.11-.02-11.12.02-.22-.02q-.13.03-.25.02h-.96l-1.93-4.12-2.9-6.6H31.65l-3.16 7.2 8.72-.01h5.7L44.46 52H25.85q-.4.02-.8-.15a1.77 1.77 0 0 1-.9-2.32l4.64-10.62a1.8 1.8 0 0 1 1.67-1.19h5.5l4.18-9.53A1.8 1.8 0 0 1 41.81 27H54.8c.75 0 1.43.47 1.67 1.17l3.4 7.74H56l-2.36-5.39H42.98l-3.15 7.2h3.62c.75 0 1.42.47 1.67 1.18l1.81 4.13 2.12 5.41h19.08l-3.15-7.17z"/><path fill="#fff" fill-rule="evenodd" d="M82.7 42q0 .1.04.23.02.13.14.23l9.3 9.54h5.29L87.43 41.23l8.3-9.25H91.3L83 41.46l-.23.26q-.07.07-.07.28m90.1-12.77a3.2 3.2 0 0 1 3.2 3.19 3.2 3.2 0 0 1-3.2 3.18 3.2 3.2 0 0 1-3.2-3.18 3.2 3.2 0 0 1 3.2-3.19m0 .46a2.74 2.74 0 0 0-2.73 2.71 2.7 2.7 0 0 0 2.73 2.72 2.74 2.74 0 0 0 2.73-2.72 2.7 2.7 0 0 0-2.73-2.71m.6 2.88q.34-.06.61-.3.24-.26.24-.63a1 1 0 0 0-.15-.52 1 1 0 0 0-.4-.34q-.33-.1-.69-.09h-1.53v3.44h.52v-1.49h.49l.23.01q.1.03.2.09.11.08.21.2.18.24.31.47l.47.72h.65l-.62-.98a3 3 0 0 0-.37-.46zm-1.39-.4h.91c.15 0 .33 0 .46-.06q.15-.05.25-.17a.5.5 0 0 0 .08-.28.4.4 0 0 0-.16-.36c-.13-.11-.36-.14-.53-.14h-1zm-4.18 5.99q0-1.74-.78-3.05a7 7 0 0 0-2.02-2.18 9 9 0 0 0-2.82-1.3 12 12 0 0 0-3.13-.44h-6.74q-1.65 0-3.21.52a9 9 0 0 0-2.81 1.5 8 8 0 0 0-2 2.37q-.77 1.44-.76 3.08v5.86q0 1.7.76 3.1.76 1.37 2 2.36a9 9 0 0 0 2.8 1.5q1.6.52 3.22.52h6.74q1.57 0 3.13-.44a10 10 0 0 0 2.82-1.3 7 7 0 0 0 2.02-2.18q.77-1.31.78-3.05zm-19.36 3.43q.04-1.75.39-3.11.32-1.41 1.25-2.53c.61-.7 1.4-1.22 2.27-1.53a10 10 0 0 1 3.43-.52q2.1 0 3.53.51a5.3 5.3 0 0 1 3.53 4.05q.34 1.36.38 3.14 0 1.61-.38 3.16-.3 1.41-1.23 2.53a5 5 0 0 1-2.3 1.52q-1.73.54-3.53.5-2.05 0-3.43-.52a5.5 5.5 0 0 1-3.52-4.06q-.35-1.38-.39-3.14m-18.97-3.08c.8-3.75 3.4-4.6 6.84-4.6 2.33 0 3.32.17 5.44 1.26v-3.1c0-.28-14.56-3.72-16.9 5.07a17.6 17.6 0 0 0 0 8.9c2.34 8.78 16.9 5.34 16.9 5.05V48c-2.1 1.1-3.1 1.26-5.44 1.26-3.42 0-6.03-.86-6.84-4.6a15 15 0 0 1 0-6.14M105.74 32v3.33q2.95-.69 6-.73h.31c.39 5.8.28 11.6-.2 17.4h5.05q-.75-8.7-.2-17.4h.32c2.34.03 4.2.33 6 .73V32zm-6.92 0h5.06a114 114 0 0 0 0 20.01h-5.06c.56-6.66.61-13.35 0-20.01m-21.09 0h5.06c-.61 6.66-.55 13.33 0 20.01h-5.06c.57-6.66.62-13.35 0-20.01"/></svg>