<svg xmlns="http://www.w3.org/2000/svg" width="200" height="60" viewBox="0 0 200 60"><path fill="#EEBC4E" d="m59.14 32.13-2.68 6.28-1.7-4.1 1.85-4.36q.16-.48.57-.79.42-.3.92-.3h11.62c.66 0 1.28.44 1.49 1.09l4.15 9.76q.25.62.02 1.24-.24.61-.83.9-.33.15-.7.14l-9.94-.01-9.94.01-.2-.01-.22.01h-.87l-1.72-3.8-2.59-6.07h-9.53L36 38.75h12.9L50.3 42H33.65q-.35.01-.7-.14a1.64 1.64 0 0 1-.82-2.13l4.16-9.78q.16-.48.57-.78.42-.3.92-.3h4.92l3.74-8.78q.17-.5.58-.79.42-.3.92-.3h11.6c.68 0 1.28.43 1.5 1.08l3.04 7.12h-3.45l-2.11-4.96h-9.54l-2.82 6.62h3.24c.67 0 1.28.44 1.5 1.09l1.62 3.8 1.89 4.98h17.08l-2.82-6.6z"/><path fill="#fff" fill-rule="evenodd" d="m84.52 32.8.03.21q.03.12.13.21L93.01 42h4.73l-9-9.91 7.44-8.5h-3.96l-7.43 8.72-.2.24q-.07.06-.07.25m80.62-11.75c.76 0 1.49.31 2.02.86a2.97 2.97 0 0 1 0 4.14 2.83 2.83 0 0 1-4.05 0 2.96 2.96 0 0 1 0-4.14 2.8 2.8 0 0 1 2.03-.86m0 .42c-.65 0-1.27.27-1.73.73a2.53 2.53 0 0 0 0 3.54 2.4 2.4 0 0 0 3.46 0 2.53 2.53 0 0 0 0-3.54 2.4 2.4 0 0 0-1.73-.73m.53 2.66q.31-.06.55-.27a1 1 0 0 0 .21-.6 1 1 0 0 0-.13-.47.7.7 0 0 0-.36-.32q-.3-.1-.61-.08h-1.38v3.17h.47v-1.37h.44l.2.01q.1.02.18.08.1.07.2.2.16.2.27.42l.42.66h.58l-.55-.9q-.14-.24-.33-.43zm-1.24-.37h.82q.21.02.4-.06a.4.4 0 0 0 .3-.42.4.4 0 0 0-.15-.32c-.1-.1-.3-.13-.47-.13h-.9zm-3.74 5.5q0-1.6-.7-2.8a6 6 0 0 0-1.8-2 8 8 0 0 0-2.53-1.2q-1.4-.4-2.8-.4h-6.03a8.8 8.8 0 0 0-5.4 1.86 7 7 0 0 0-1.78 2.18 6 6 0 0 0-.67 2.83v5.4q0 1.56.67 2.83a7 7 0 0 0 1.79 2.18q1.11.9 2.52 1.39t2.88.47h6.02q1.4 0 2.8-.4a8 8 0 0 0 2.52-1.2 6 6 0 0 0 1.81-2q.7-1.21.7-2.81zm-17.32 3.17q.03-1.61.34-2.87.3-1.3 1.13-2.33a5 5 0 0 1 2.03-1.4 9 9 0 0 1 3.06-.48 9 9 0 0 1 3.16.47q1.27.45 2.06 1.4.82 1.02 1.1 2.33.3 1.25.34 2.88 0 1.48-.34 2.9a5.6 5.6 0 0 1-1.1 2.34 4.6 4.6 0 0 1-2.06 1.4q-1.54.5-3.16.46a9 9 0 0 1-3.06-.48 4.9 4.9 0 0 1-3.16-3.73q-.3-1.28-.34-2.9m-16.97-2.84c.7-3.45 3.04-4.23 6.11-4.23 2.1 0 2.98.16 4.87 1.16v-2.85c0-.26-13.02-3.43-15.12 4.66-.68 2.68-.68 5.5 0 8.18 2.1 8.08 15.12 4.92 15.12 4.66V38.3c-1.88 1.02-2.78 1.16-4.87 1.16-3.05 0-5.39-.8-6.11-4.24a14 14 0 0 1 0-5.64m-21.27-6v3.07q2.65-.64 5.37-.68h.28c.35 5.34.26 10.68-.17 16.01h4.51a110 110 0 0 1-.18-16h.3c2.08.02 3.74.3 5.36.67v-3.07zm-6.19 0h4.53a109 109 0 0 0 0 18.41h-4.53c.5-6.13.55-12.28 0-18.41m-18.86 0h4.52a108 108 0 0 0 0 18.41h-4.52c.5-6.13.55-12.28 0-18.41"/></svg>