<svg width="230" height="100" viewBox="0 0 230 100" xmlns="http://www.w3.org/2000/svg"><path d="M71.8 51H65.8l-3.41 7.83-2.18-5.12 2.36-5.42a2.02 2.02 0 0 1 1.91-1.36h14.81c.85 0 1.63.54 1.9 1.35l5.3 12.17a2.05 2.05 0 0 1-1.04 2.66c-.28.12-.58.19-.88.18l-12.68-.02-12.68.02c-.09 0-.18 0-.26-.02-.1.02-.18.02-.28.02h-1.1l-2.2-4.73-3.3-7.57H39.91l-3.6 8.26 9.95-.01 6.5.01 1.78 4.05-8.57-.01H33.3c-.3.02-.6-.03-.9-.16a2.03 2.03 0 0 1-1.04-2.66l5.3-12.18a2.02 2.02 0 0 1 1.9-1.36h6.28L49.61 36a2.02 2.02 0 0 1 1.91-1.36H66.32c.86 0 1.63.54 1.91 1.34l3.87 8.88h-4.4l-2.69-6.18H52.85l-3.6 8.25h4.13c.86 0 1.63.54 1.91 1.35l2.07 4.74 2.41 6.2h21.78L77.95 51H71.8Z" fill="#EEBC4E"/><path fill-rule="evenodd" d="M98.17 51.84c0 .07.01.17.04.26.02.1.08.18.16.26l10.62 10.94h6.03l-11.46-12.35 9.47-10.6h-5.05l-9.47 10.87-.26.3c-.06.05-.08.16-.08.32Zm102.8-14.64a3.65 3.65 0 1 1 0 7.3 3.65 3.65 0 0 1 0-7.3Zm0 .52a3.11 3.11 0 1 0 0 6.23 3.11 3.11 0 0 0 0-6.23Zm.68 3.31c.26-.05.51-.16.7-.34.18-.2.27-.45.27-.73 0-.2-.05-.42-.17-.6a.91.91 0 0 0-.45-.39 2.3 2.3 0 0 0-.79-.1h-1.75v3.94h.6v-1.7h.55l.27.01a.6.6 0 0 1 .22.1c.09.05.18.15.25.24.13.18.25.35.35.53l.53.82h.75l-.71-1.12a3.25 3.25 0 0 0-.42-.53c-.07-.04-.13-.1-.2-.13Zm-1.58-.46h1.04c.17 0 .37-.01.52-.07a.5.5 0 0 0 .28-.2c.07-.1.1-.2.1-.32a.5.5 0 0 0-.19-.41c-.14-.13-.4-.16-.6-.16h-1.15v1.16Zm-4.77 10.8v-3.94c0-1.33-.3-2.49-.89-3.49a7.65 7.65 0 0 0-2.31-2.5 10.57 10.57 0 0 0-3.22-1.5c-1.19-.32-2.37-.5-3.57-.5h-7.68c-1.25 0-2.48.2-3.67.6-1.2.4-2.26.96-3.21 1.73a8.85 8.85 0 0 0-2.28 2.71 7.22 7.22 0 0 0-.86 3.53v6.72c0 1.3.3 2.48.86 3.54a8.85 8.85 0 0 0 2.28 2.71c.95.75 2.01 1.33 3.21 1.73 1.2.4 2.43.59 3.67.59h7.68c1.2 0 2.38-.17 3.57-.5 1.19-.33 2.25-.83 3.22-1.49a7.8 7.8 0 0 0 2.31-2.5c.58-1 .89-2.18.89-3.5v-3.94Zm-22.09 0c.03-1.34.17-2.53.44-3.57a6.99 6.99 0 0 1 1.43-2.9 6.13 6.13 0 0 1 2.59-1.75c1.05-.4 2.36-.6 3.91-.6 1.6 0 2.95.2 4.03.59 1.08.38 1.95.96 2.62 1.74a6.87 6.87 0 0 1 1.41 2.9c.26 1.04.4 2.25.43 3.6a16.03 16.03 0 0 1-.43 3.62 6.87 6.87 0 0 1-1.4 2.9 5.89 5.89 0 0 1-2.63 1.74 12.2 12.2 0 0 1-4.03.58c-1.56 0-2.86-.2-3.91-.6a6.22 6.22 0 0 1-4.02-4.65c-.27-1.07-.41-2.25-.44-3.6Zm-21.64-3.53c.9-4.3 3.88-5.28 7.8-5.28 2.66 0 3.79.2 6.2 1.45v-3.55c0-.33-16.6-4.27-19.28 5.8a20.28 20.28 0 0 0 0 10.2c2.68 10.07 19.28 6.13 19.28 5.8V58.7c-2.4 1.27-3.54 1.45-6.2 1.45-3.9 0-6.88-.99-7.8-5.28-.48-2.3-.48-4.73 0-7.04Zm-17.26-7.48h-9.86v3.82a32.1 32.1 0 0 1 6.85-.84h.36c.44 6.65.32 13.3-.23 19.95h5.76a134.5 134.5 0 0 1-.23-19.95h.37c2.66.04 4.78.38 6.84.84v-3.82h-9.86Zm-17.75 0h5.77c-.7 7.64-.63 15.28 0 22.94h-5.77c.64-7.64.7-15.3 0-22.94Zm-24.06 0h5.77c-.7 7.64-.63 15.28 0 22.94H92.5c.65-7.64.7-15.3 0-22.94Z" fill="#fff"/></svg>