<svg width="200" height="80" viewBox="0 0 200 80" xmlns="http://www.w3.org/2000/svg"><path d="M90.34 65.17c-.07-.03-.07.1-.07.13 0 .08.11.16.17.2.01-.02.03-.05-.02-.08-.07-.04 0-.22-.08-.25ZM110.2 19l1.85-5h1.08l1.87 5h-.89l-.4-1.12h-2.22l-.41 1.12h-.89Zm1.54-1.82h1.7l-.84-2.34-.86 2.34ZM105 19v-5h.84v4.31h2.7V19H105ZM100.62 18.99c-.44 0-.83-.07-1.16-.22a2.37 2.37 0 0 1-1.3-1.44 2.95 2.95 0 0 1 0-1.91 2.38 2.38 0 0 1 1.32-1.44 2.8 2.8 0 0 1 1.17-.23c.34 0 .64.04.89.12a2.06 2.06 0 0 1 1.4 1.61h-.85l-.03-.1a1.06 1.06 0 0 0-.11-.25 1.18 1.18 0 0 0-.66-.55 1.7 1.7 0 0 0-.64-.1c-.3 0-.56.05-.79.16a1.63 1.63 0 0 0-.89 1.03 2.23 2.23 0 0 0 .34 2 1.65 1.65 0 0 0 1.33.6c.46 0 .83-.13 1.1-.38.27-.25.42-.47.45-.89h-1.54v-.76H103v.36c0 .53-.1.97-.31 1.32a2 2 0 0 1-.86.8c-.36.18-.76.27-1.2.27ZM94.07 19.17c-.4 0-.76-.07-1.08-.22a1.74 1.74 0 0 1-.73-.66 2.04 2.04 0 0 1-.26-1.06V14h.84v3.23c0 .33.1.61.3.84.2.23.52.34.93.34.43 0 .74-.11.94-.34.2-.23.3-.5.3-.84V14h.85v3.23a2 2 0 0 1-.27 1.06c-.17.29-.42.5-.74.66a2.5 2.5 0 0 1-1.08.22ZM85 19v-5h1.12l1.44 2.84L89.03 14h1.1v5h-.82v-3.82l-1.35 2.58h-.79l-1.34-2.6V19H85ZM84.63 29.6a9.13 9.13 0 0 1 15.43-6.6 9.13 9.13 0 0 1 15.44 6.6h-1a8.13 8.13 0 0 0-14.07-5.55l-.37.4-.36-.4a8.13 8.13 0 0 0-14.07 5.54h-1Z" fill="#fff"/><path d="M89.25 29.84a4.38 4.38 0 0 1 4.38-4.38h.22a4.38 4.38 0 0 1 4.38 4.38h-1a3.38 3.38 0 0 0-3.38-3.38h-.22a3.38 3.38 0 0 0-3.38 3.38h-1ZM102.03 29.84a4.38 4.38 0 0 1 4.38-4.38h.22a4.38 4.38 0 0 1 4.39 4.38h-1a3.38 3.38 0 0 0-3.39-3.38h-.22a3.38 3.38 0 0 0-3.38 3.38h-1Z" fill="#fff"/><path d="M91 30h-7v-1h7v1ZM103.55 30h-7v-1h7v1ZM116.29 30h-7v-1h7v1ZM84.58 46V30h1v16h-1ZM110.02 46V30h1v16h-1ZM86.16 46V30h1v16h-1ZM111.58 46V30h1v16h-1ZM87.75 46V30h1v16h-1ZM113.19 46V30h1v16h-1ZM89.25 46V30h1v16h-1ZM114.69 46V30h1v16h-1ZM83.73 47.09c0-.33.23-.59.5-.59h6.43c.28 0 .5.26.5.59V48h-7.43v-.91ZM96.34 47.09c0-.33.23-.59.5-.59h6.43c.28 0 .5.26.5.59V48h-7.43v-.91ZM108.94 47.09c0-.33.22-.59.5-.59h6.43c.27 0 .5.26.5.59V48h-7.43v-.91ZM117 50H83v-1h34v1Z" fill="#fff"/><mask id="a4bwwtrkw" style="mask-type:alpha" maskUnits="userSpaceOnUse" x="88" y="39" width="24" height="25"><path d="M111.8 51.34a11.86 11.86 0 1 1-23.71 0 11.86 11.86 0 0 1 23.72 0Z" fill="#D9D9D9"/></mask><g mask="url(#a4bwwtrkw)" fill="#fff"><path d="M112.25 51.64H87.7v-.6h24.56v.6ZM112.25 53.38H87.7v-.6h24.56v.6ZM112.25 55.12H87.7v-.6h24.56v.6ZM112.3 56.69H87.75v-.6h24.57v.6ZM112.25 58.51H87.7v-.6h24.56v.6ZM112.25 60.2H87.7v-.6h24.56v.6ZM112.25 61.77H87.7v-.6h24.56v.6ZM112.3 63.47H87.75v-.6h24.57v.6Z"/></g><path d="m100.07 32.16 3.48 3.48h-2.4l3.14 2.76h-2.43l3.56 2.92h-3.48l4.31 3.05h-12.2l4.31-3.05h-3.49l3.57-2.92h-2.6l3.17-2.76h-2.42l3.48-3.48Zm0 .43-2.75 2.75h2.49l-3.16 2.76h2.63l-3.57 2.92h3.6l-4.32 3.05h10.32L101 41.02h3.58l-3.56-2.92h2.48l-3.15-2.76h2.48l-2.76-2.75ZM99.8 31.85l-.17.17-.83.83v-3.21h1v2.21Zm1.6 1-1-1V29.6h1v3.25Zm1.5 1.57-1-1V29.6h1v4.82Zm-1 10.58h1v1h-1v-1Zm-1.5 0h1v1h-1v-1Zm-1.62 0h1v1h-1v-1Zm-1.55 0h1v1h-1v-1Zm0-10.58V29.6h1v3.82l-1 1ZM99.6 12.58v.04a1.1 1.1 0 0 0 2.05-.04h-.33a.8.8 0 0 1-1.4 0h-.33ZM102.2 65.09a.2.2 0 1 1-.39 0 .2.2 0 0 1 .39 0ZM102.8 64.9c0 .1-.08.19-.18.19a.2.2 0 1 1 .19-.2ZM106.42 63.67a.2.2 0 1 1-.39 0 .2.2 0 0 1 .39 0ZM112.67 57.16a.2.2 0 1 1-.39 0 .2.2 0 0 1 .39 0ZM113.87 50.88a.2.2 0 1 1-.39 0 .2.2 0 0 1 .4 0ZM83.65 50.86c.05-.1.13-.2.22-.26.1-.06.21-.1.35-.1h.03v.34h-.04a.35.35 0 0 0-.19.07.4.4 0 0 0-.11.15.5.5 0 0 0-.05.21c0 .09.02.15.04.21s.06.1.11.14c.05.03.1.05.18.05.09 0 .16-.03.22-.08a.87.87 0 0 0 .18-.3l.09-.2a1 1 0 0 1 .26-.4c.1-.1.23-.13.4-.13.11 0 .23.04.32.1.09.06.16.15.21.26a.8.8 0 0 1 .07.38c0 .14-.03.27-.08.37a.63.63 0 0 1-.22.25c-.1.05-.2.09-.34.09h-.05l.01-.35h.04c.07 0 .13-.02.18-.05a.3.3 0 0 0 .12-.13.48.48 0 0 0 .04-.2.5.5 0 0 0-.03-.2.3.3 0 0 0-.27-.18.3.3 0 0 0-.22.09.8.8 0 0 0-.17.27l-.08.2c-.05.14-.11.25-.18.33a.64.64 0 0 1-.2.18.6.6 0 0 1-.29.05.65.65 0 0 1-.35-.1.57.57 0 0 1-.22-.27.89.89 0 0 1-.07-.41c0-.15.03-.29.09-.4v.02ZM85.91 52.66l.04.34-2.3.24-.04-.35 2.3-.23ZM85.69 54.23l-.12-.56.3-.07.3 1.48-.3.07-.11-.56-1.97.44-.07-.35 1.97-.44ZM86.35 55.5l.12.34-2.16.86-.12-.33 2.16-.86Zm-.97.95.33.12-.97 1.3-.15-.38.78-1.03v-.01Zm.06-.23.01.04 1.3.32.13.37-1.26-.32-.02-.05-.65-.16.49-.2ZM87.1 57.5l.17.3-2.05 1.13-.16-.3 2.05-1.14ZM88 59.17l.21.28-1.84 1.46-.2-.28L88 59.17Zm-.68 1.18.35.02-.58 1.53-.24-.33.47-1.22Zm0-.23.02.03 1.32-.07.23.31-1.3.05-.02-.03-.68.03.42-.34v.02ZM93.48 64.12l.4.17-.17 1.99 1.2-1.56.42.18-.87 2.22-.29-.12.67-1.7-.15-.06.47-.36-1.48 1.9-.27-.11.21-2.44.1.6-.16-.06-.66 1.69-.29-.12.87-2.23ZM96.67 65.19l.35.04-.07.4-.13-.02-.94 1.92-.42-.04 1.2-2.3Zm-.55 1.45 1.04.12.05.3-1.23-.14.14-.28Zm.71-1.03.07-.4.23.03.37 2.47-.42-.04-.25-2.06ZM98.44 65.57h.4l1.16 2.17-.36-.41.16-.01.02-1.75h.37l-.03 2.4h-.39l-1.16-2.17.35.41h-.16l-.02 1.76h-.36l.04-2.4h-.02ZM102.38 67.76a.64.64 0 0 1-.31-.24 1.01 1.01 0 0 1-.17-.42l-.28-1.58.34-.06.27 1.55c.01.11.05.2.1.28.04.07.1.12.17.15a.4.4 0 0 0 .24.02c.1-.02.17-.06.23-.1.06-.06.1-.13.12-.21a.63.63 0 0 0 0-.3l-.27-1.55.34-.06.27 1.57c.03.17.02.32-.02.46a.75.75 0 0 1-.21.33.85.85 0 0 1-.4.18.75.75 0 0 1-.42-.02ZM103.88 65.04l.36-.11 1.8 1.7-.46-.28.14-.05-.58-1.66.33-.1.8 2.27-.36.12-1.81-1.7.46.28-.14.05.58 1.66-.33.1-.8-2.28h.01ZM106.27 64.08l.3-.15 1 2.17-.31.15-1-2.17ZM107.1 63.68l.3-.2 1.5 1.34-.68-1.94.3-.22.78 2.37-.33.24-1.86-1.6v.01ZM109.16 62.16l.95-.82.19.23-.68.6.44.55.65-.57.19.24-.65.56.47.58.68-.6.2.24-.95.82-1.5-1.83h.01ZM110.58 60.84l.48-.56c.1-.12.2-.2.31-.24a.51.51 0 0 1 .33-.02c.12.03.23.1.33.2.12.1.2.22.24.35.05.13.04.26 0 .39l1.01.33-.25.3-.95-.33-.01.02-.01.01-.2.24.67.64-.22.26-1.73-1.6v.01Zm1.3.25a.4.4 0 0 0 .11-.3.45.45 0 0 0-.17-.28c-.1-.1-.2-.14-.3-.14-.09 0-.18.05-.26.15l-.23.27.63.57.23-.27h-.01ZM113.73 60.4c-.1.06-.21.09-.32.09a.63.63 0 0 1-.34-.11l-.03-.02.18-.29.03.02c.06.04.12.05.19.05.06 0 .12-.02.17-.06.06-.04.11-.1.15-.16a.47.47 0 0 0 .08-.2c0-.06 0-.12-.03-.18a.3.3 0 0 0-.12-.14.31.31 0 0 0-.23-.05.78.78 0 0 0-.3.14l-.18.13a.86.86 0 0 1-.43.2.56.56 0 0 1-.4-.11.63.63 0 0 1-.22-.27c-.05-.1-.07-.22-.05-.34a.85.85 0 0 1 .14-.36.8.8 0 0 1 .26-.27c.1-.06.2-.09.32-.08.11 0 .23.04.34.1l.03.03-.18.3-.03-.02a.46.46 0 0 0-.18-.06.3.3 0 0 0-.17.04.5.5 0 0 0-.2.32c-.01.06 0 .12.02.17.02.05.06.1.11.13.07.05.14.06.23.05a.67.67 0 0 0 .28-.14l.17-.13c.12-.08.22-.14.31-.18.1-.03.18-.04.27-.03.1.02.18.05.27.11.1.08.2.18.24.28.05.1.06.22.05.35a1.03 1.03 0 0 1-.43.67v.01ZM112.67 57.47l.16-.31 2.06 1.08-.15.32-2.07-1.08ZM113.54 56.2l-.2.55-.28-.1.5-1.43.29.11-.2.55 1.9.72-.13.33-1.89-.72h.01ZM113.63 54.86l.25-1.25.3.07-.19.9.67.15.17-.86.3.06-.18.86.72.15.18-.9.3.06-.26 1.26-2.27-.5ZM116.26 52.99a.6.6 0 0 1-.24.25.65.65 0 0 1-.34.08h-.03l.02-.34h.03c.07 0 .14-.03.19-.06.05-.03.1-.08.12-.14a.54.54 0 0 0 .05-.21c0-.09 0-.16-.02-.22a.32.32 0 0 0-.11-.14.27.27 0 0 0-.17-.05c-.09 0-.17.02-.23.07a.83.83 0 0 0-.19.29l-.09.2a1 1 0 0 1-.27.38.55.55 0 0 1-.4.11.6.6 0 0 1-.33-.1.66.66 0 0 1-.2-.27.91.91 0 0 1-.06-.4.8.8 0 0 1 .1-.36c.05-.1.13-.19.23-.23.1-.06.21-.08.34-.08h.05l-.02.34h-.04a.38.38 0 0 0-.19.05.35.35 0 0 0-.12.12.4.4 0 0 0-.05.19c0 .07 0 .14.03.2.03.05.06.1.1.13.04.03.1.05.16.05.08 0 .15-.01.22-.07a.76.76 0 0 0 .18-.27l.08-.2c.06-.13.12-.23.2-.31a.55.55 0 0 1 .5-.2c.13 0 .24.05.33.1.1.07.17.17.22.28.04.12.06.25.06.41-.01.15-.05.28-.1.4h-.01ZM114.02 51.02v-.36l2.31.03v.35l-2.31-.03ZM89.17 61.49a.83.83 0 1 0 0 1.65.83.83 0 0 0 0-1.65Zm-1.12.82a1.13 1.13 0 1 1 2.25 0 1.13 1.13 0 0 1-2.25 0ZM90.82 63.8a.8.8 0 0 1 1.12-.2c.17.12.28.3.3.5l.32.18c.01-.35-.14-.7-.44-.93a1.1 1.1 0 0 0-1.54.28c-.36.5-.27 1.19.22 1.55.36.26.83.26 1.2.03l-.24-.21a.78.78 0 0 1-.79-.07.8.8 0 0 1-.15-1.13Z" fill="#fff"/><path d="m90.66 64.99.08.06-.12.14a.3.3 0 0 1 .07.02c.07.03.12.09.14.19a.31.31 0 0 1-.1.28.3.3 0 0 1-.27.06c-.18-.05-.24-.22-.2-.32l.1.04c-.02.04 0 .15.13.18a.2.2 0 0 0 .18-.04c.04-.04.07-.1.06-.19-.01-.06-.04-.1-.08-.11a.3.3 0 0 0-.14-.01h-.12l.27-.3ZM100.22 35.38h-.24v-1.43h-.51v-.19l.2-.01a.54.54 0 0 0 .16-.06.39.39 0 0 0 .2-.3h.19v1.99ZM99.7 37.53c0 .1.04.17.11.22a.4.4 0 0 0 .25.08c.14 0 .25-.06.32-.19.08-.12.12-.32.12-.57v-.01a.52.52 0 0 1-.46.27.71.71 0 0 1-.27-.04.58.58 0 0 1-.2-.14.6.6 0 0 1-.12-.21.88.88 0 0 1-.04-.27c0-.1.02-.18.05-.26a.6.6 0 0 1 .34-.34.77.77 0 0 1 .53 0c.08.03.15.08.21.15.06.07.11.16.15.29.04.12.06.27.06.46 0 .35-.06.61-.17.8-.1.18-.28.27-.52.27a.66.66 0 0 1-.42-.13c-.1-.08-.17-.2-.19-.38h.24Zm.76-.84a.52.52 0 0 0-.1-.32.36.36 0 0 0-.13-.1.4.4 0 0 0-.18-.04.39.39 0 0 0-.18.04.35.35 0 0 0-.12.1.47.47 0 0 0-.07.16.78.78 0 0 0-.02.17.45.45 0 0 0 .11.3c.04.03.08.07.13.09.05.02.1.03.16.03a.4.4 0 0 0 .16-.03.4.4 0 0 0 .21-.23.5.5 0 0 0 .03-.17ZM99.7 40.23c0 .1.04.17.11.22a.4.4 0 0 0 .25.08c.14 0 .25-.06.32-.19.08-.12.12-.32.12-.58a.52.52 0 0 1-.46.27.71.71 0 0 1-.27-.04.58.58 0 0 1-.2-.14.6.6 0 0 1-.12-.21.88.88 0 0 1-.04-.27c0-.1.02-.18.05-.26a.6.6 0 0 1 .34-.34.76.76 0 0 1 .53 0c.08.03.15.07.21.15.06.07.11.16.15.29.04.12.06.27.06.46 0 .35-.06.61-.17.8-.1.18-.28.27-.52.27a.66.66 0 0 1-.42-.13c-.1-.08-.17-.2-.19-.38h.24Zm.76-.84a.52.52 0 0 0-.1-.32.36.36 0 0 0-.3-.14.39.39 0 0 0-.19.04.35.35 0 0 0-.12.1.47.47 0 0 0-.07.16.78.78 0 0 0-.02.17.45.45 0 0 0 .11.3c.04.03.08.07.13.09.05.02.1.03.16.03a.4.4 0 0 0 .16-.03.4.4 0 0 0 .21-.24.5.5 0 0 0 .03-.16ZM99.44 42.16c0-.1 0-.19.03-.28a.58.58 0 0 1 .33-.37.7.7 0 0 1 .28-.05.73.73 0 0 1 .44.15c.05.05.1.1.13.18.03.07.05.15.05.24a.6.6 0 0 1-.05.23.67.67 0 0 1-.1.19l-.16.14-.17.12-.19.11a1.4 1.4 0 0 0-.17.12.81.81 0 0 0-.13.13.37.37 0 0 0-.07.17h1.02v.2h-1.3a.83.83 0 0 1 .36-.68l.2-.13a6.65 6.65 0 0 0 .38-.27l.1-.15a.45.45 0 0 0 .02-.18c0-.05 0-.1-.03-.15a.33.33 0 0 0-.08-.11.34.34 0 0 0-.12-.07.44.44 0 0 0-.15-.03.34.34 0 0 0-.3.16.5.5 0 0 0-.07.16.7.7 0 0 0-.02.17h-.23Z" fill="#fff"/></svg>