<svg width="120" height="120" viewBox="0 0 120 120" xmlns="http://www.w3.org/2000/svg"><path d="M53 25V10h-4v15h4z" fill="currentColor"/><path fill-rule="evenodd" d="M42.18 30.76a23 23 0 0 1 29.64 31.01l5.62 9.3L84 60.11 112 106H7l18-29.5L33 89l9.33-15.7a23 23 0 0 1-.15-42.54zm27.65 18.7c.36 2.69-.06 5.47-.83 8.04l-8.45-14.37-16.12 26.69a19 19 0 1 1 25.4-20.36zM80 75l16 27h9L84 67.9 80 75zM60.55 50.87 91.45 102H14l11-17.5L33 97l27.55-46.13z" fill="currentColor"/><path d="M92 53H78v-4h14v4zM10 53h14v-4H10v4zM23.42 21.08 33.54 31.2l-2.83 2.82-10.12-10.1 2.83-2.84zM71.3 34.02l10.1-10.1-2.82-2.84L68.46 31.2l2.83 2.82z" fill="currentColor"/></svg>