<svg xmlns="http://www.w3.org/2000/svg" width="620" height="468" fill="none" viewBox="0 0 620 468"><path fill="#000" d="M0 0h620v468H0z"/><g filter="url(#ajd4jmvrz)"><path stroke="#2962FF" stroke-linejoin="round" stroke-width="2" d="m46 315.91 1.85-29.24 2.32-1.85 2.32-29.7.93-22.74.93-27.85 1.85-15.78 1.4 15.78 3.7-3.25 1.4 8.35 1.38-11.6 5.56 18.57 1.4-19.96 3.24 4.64 2.78-61.26 2.32-6.03 1.4-10.21 2.77 2.32 2.79-9.28.92 13.46 1.86 17.63 5.1 11.14 2.32 3.25.92 10.67h3.71l.93 18.57 2.32-.47 1.85-3.71 3.25 3.71 1.39 42.23 1.85 13 2.32-.93 2.78-5.1.93-14.4 2.78 5.58 1.4-13 3.24-2.78 1.39 10.2 3.7 45.49 2.33 13 1.39-26.46.92-35.27 2.32 3.25 1.4-13.92 2.78 5.1 1.39-2.78 2.78-2.32.92-9.29 3.71-2.78 1.4 37.6h1.85l2.78 13.91 1.85-4.17 2.32 5.1.93 6.5 5.56-9.28 1.4-38.52 1.85 6.03 2.78 3.25 1.86-3.25 2.78 11.6 3.24 16.71 2.32 2.78 1.86-6.03 6.02 34.34 1.86-1.39 2.32-14.38 5.1 4.17.92-62.19 1.86-5.1h2.78l1.85 2.32 1.86-65.9h2.78l2.32-9.75 2.78-1.85 2.78-15.32 2.32-22.74 2.78 6.96 2.32-44.55 1.39-19.03 2.78 15.32 1.4-13.46 1.85 9.28 2.78-3.25 1.39-9.28 2.32-1.4 1.85 9.75L247.21 24l1.4 25.52 2.31-13.92 1.86 55.7 1.39-11.15 1.39-7.88.93 14.38 1.39 21.35 1.85 21.35.93 67.3 3.24 2.78 1.86-8.36.93 5.57.92 6.5.93-20.42.93-14.39 2.78-13.92 3.71 12.53.46-5.1 1.4-13.46 2.31 7.88 1.86-2.31 3.24-.47v13.46l3.71-14.39 1.4 12.53 2.31 5.1 2.78-25.98 1.86-6.5.92-11.6 2.79-11.14 2.78 18.1 2.32-13 1.85 14.4 1.4-8.36 2.77 3.71 1.86 6.96 1.85-5.1 1.86-8.35 2.78 2.78 1.39 7.43 3.24-1.86 3.25 19.03 2.32-.93 1.39-4.64 5.56 7.42 1.4 12.07 3.7-13.92L346.9 166l2.32-9.75 1.86-9.28 1.39 14.39 1.39 10.21 1.39 7.89 2.78-.93 2.32 3.25 1.86 53.83 1.85-12.06 1.85-3.72 3.25-1.85.93 33.88 2.31-6.96 1.86-10.68h2.32l2.31-12.06 1.4 25.06 1.85-10.21.93-4.18h2.78l.93 47.8 2.78-6.5 1.85 13 2.79 6.5.92 46.4 2.32-9.28 1.86-47.33 2.78 11.6 1.39 20.88 1.85 1.86 1.86-3.25v-4.18l3.24-6.5 2.32 33.88 1.4 16.71 1.85 12.07 2.78 5.57.92-12.07.47-27.85 2.32-12.53 2.31 11.6 2.79 36.2 1.39-72.4 1.85-5.56 1.86-19.96 2.78-4.64.93 29.24 3.24-2.32 5.56 20.42 1.86 8.82 2.78 25.99 1.86 8.35 2.31-2.32 1.86 27.38 1.85 7.43 2.78-3.25 1.4 38.52 3.24-38.52.93-17.18 3.24-3.24 1.4 46.87 2.77 5.57v5.57l1.86 15.78 2.32 6.03.93-62.65 2.31-19.03 2.79-2.32 3.7 21.35 1.86.93h3.24l1.4 5.57 1.85-42.7L498.5 360l1.86-6.96 2.31 4.64 1.4 32.95 2.78-17.17 1.85.93 2.32-4.18 1.39-20.88 3.25-4.18 3.24-19.96.93-17.63.92-26 2.32 12.07v2.79l2.32 3.25h2.78l.47 41.77 3.24 2.78 1.86-36.66 1.85 4.64 1.4 40.84 3.7 4.64.93 9.28v4.64l3.7 16.25 3.25-10.22 1.86 8.36 1.85 3.25 1.86-43.16 4.63-11.14h1.86l1.85-5.1 2.78 6.5 1.86 11.6h1.85l2.78 5.1.93 9.75 2.32 9.74"/></g><defs><filter id="ajd4jmvrz" width="570.97" height="462" x="25" y="3" color-interpolation-filters="sRGB" filterUnits="userSpaceOnUse"><feFlood flood-opacity="0" result="BackgroundImageFix"/><feColorMatrix in="SourceAlpha" result="hardAlpha"/><feGaussianBlur stdDeviation="10"/><feColorMatrix values="0 0 0 0 0.160784 0 0 0 0 0.384314 0 0 0 0 1 0 0 0 1 0"/><feBlend in="SourceGraphic"/></filter></defs></svg>