<svg width="230" height="100" viewBox="0 0 230 100" xmlns="http://www.w3.org/2000/svg"><path class="icon" fill-rule="evenodd" d="M20.04 48.43v7.45h8.24c.35-.03.75-.05 1.02.12.42.28.42.74.42 1.19v2.59c0 .38-.07.77-.42.99-.49.3-1.46.23-2.24.17-.29-.02-.55-.04-.75-.04h-7.8c-.2 0-.45.02-.73.04-.86.07-1.98.16-2.45-.24-.34-.28-.33-.74-.31-1.16V40.58c-.03-.36-.05-.77.1-1.06.22-.4.62-.42 1.02-.42h2.71c.4 0 .79 0 1.04.36.2.28.18.68.16 1.03v7.94Zm12.33-7.81c0-.55 0-1.28.63-1.48.63-.2 1.48-.14 2.26-.09.33.02.65.05.94.05h.05c.4 0 .76 0 1.03.35.21.27.2.65.18 1v19.01c.01.54.03 1.16-.56 1.39-.63.24-1.56.16-2.4.1-.34-.03-.67-.05-.95-.05-.37 0-.74-.02-.97-.36-.23-.34-.22-.78-.21-1.18V40.62Zm17.72 13.6c-1.44-2.03-2.88-4.07-4.49-5.93v10.3l.02.45c.03.5.07 1.07-.16 1.44-.26.42-.66.42-1.1.42H41.5c-.36-.01-.7-.15-.86-.5a2.48 2.48 0 0 1-.12-1.16V40.5c0-.48 0-1.05.5-1.31.35-.19.89-.15 1.36-.12l.45.02.6-.03c.59-.05 1.26-.1 1.7.12.47.23.85.83 1.18 1.35.12.18.23.36.34.5 1.08 1.47 2.16 2.94 3.26 4.4l.38.51c1.45 1.93 2.9 3.86 4.3 5.82V41.32l-.01-.44c-.03-.47-.07-1.01.13-1.36.23-.41.65-.42 1.07-.42h2.58c.47 0 .93 0 1.17.48.14.29.12.7.1 1.05l-.02.35v18.04c0 .1 0 .2.02.33.02.38.04.83-.15 1.13-.22.35-.6.42-.98.42-.28 0-.6.02-.94.04-.83.06-1.74.12-2.4-.1-.38-.13-.63-.5-.86-.84l-.15-.22c-.54-.75-1.1-1.49-1.65-2.23l-.05-.07c-.8-1.06-1.57-2.16-2.35-3.25Zm17.66-1.68v3.34h6.34c.24 0 .5-.02.8-.04.69-.05 1.46-.11 1.99.1.32.12.5.45.54.78.08.58.05 1.2.03 1.81l-.02.83v.19c.01.34.02.71-.18 1-.33.44-1.06.4-1.64.36l-.4-.01H64.76l-.37.01c-.5.03-1.1.07-1.42-.25-.31-.32-.3-.79-.3-1.21V40.57c-.01-.43-.02-.92.3-1.24.42-.41 1.48-.33 2.27-.27.24.02.46.04.63.04h8.22c.17 0 .4-.02.64-.04.89-.06 2.11-.16 2.52.4.2.27.2.64.19.98v.19l.01.83c.02.61.05 1.23-.03 1.82a.91.91 0 0 1-.54.76c-.53.22-1.32.16-2.01.11-.28-.02-.55-.04-.78-.04h-6.34v3.34h6.27c.23 0 .5-.01.78-.04.7-.05 1.48-.1 2 .11.86.35.75 1.89.67 2.95-.02.26-.04.5-.04.68 0 .42 0 .9-.36 1.19-.43.34-1.29.28-1.97.23a8.83 8.83 0 0 0-.6-.03h-6.75Zm18.73 4.53a6.1 6.1 0 0 1-.48-2.02h2.79l.24-.02c.29-.02.65-.05.82.09.15.11.22.37.28.6.04.15.07.28.12.37.33.67.87 1.25 1.53 1.58 2.69 1.37 5.99-1.31 4.37-4.16-.77-1.34-2.3-1.86-3.73-2.34a24.4 24.4 0 0 1-1.06-.38c-2.64-1.03-4.6-3.04-4.6-5.98 0-.8.12-1.57.45-2.3 2.49-5.53 12.57-4.13 12.58 2.3h-3.62c-.22-1.62-1.61-2.61-3.2-2.5-1.62.1-2.98 1.45-2.46 3.12.48 1.56 2.25 2.13 3.79 2.62.44.15.87.29 1.24.44 3.5 1.45 5.59 4.73 4.39 8.5-1.92 6.07-11.28 5.7-13.45.08Zm80.6-14.35h-3.97V39.1h3.97v3.62Zm18.31 0h-3.96V39.1h3.97v3.62Zm-14 3.06v-4.66h3.56v4.66h3.69v3h-3.7v6.48c0 .84 0 1.9.71 2.45.73.56 1.7.39 2.57.23.22-.04.43-.08.63-.1v2.19c.02.21.03.47-.07.62-.25.35-1.26.37-1.76.38h-.12c-1.74.06-3.63-.03-4.69-1.67-.82-1.26-.82-2.8-.81-4.24v-6.34h-1.89v-3h1.89Zm-55.88 11.03c.37.02.74.05 1.07.05-.15.84-.82 1.7-1.4 2.3-1.97 2.06-5 2.66-7.73 1.98-3.86-.96-6.1-4.67-5.84-8.53a8.19 8.19 0 0 1 2.23-5.22c2.67-2.67 7.5-2.82 10.37-.4 2.22 1.88 2.6 4.59 2.58 7.29h-11.63c.35 2.8 2.92 4.97 5.78 4.1a3.63 3.63 0 0 0 1.6-1.05c.16-.19.33-.4.56-.45.7-.18 1.58-.13 2.4-.07Zm15.49-.72h2.5c-1.2 5.23-7.8 6.71-11.9 3.92-2.55-1.73-3.55-4.79-3.27-7.75.4-4.17 3.93-6.97 8-6.96 2.9 0 6.61 1.83 6.9 5.08h-3.7c-.72-2.47-4.25-2.45-5.92-1.11-3.36 2.7-1.42 9.64 3.28 9.03.89-.12 1.62-.5 2.22-1.16.1-.1.18-.25.27-.4.15-.25.3-.52.52-.6.21-.1.53-.08.8-.06l.3.01Zm70.1.72c.38.02.75.05 1.08.05-.23 1.32-1.58 2.64-2.65 3.34-4.03 2.67-9.83.83-11.7-3.55a9.15 9.15 0 0 1-.55-4.74 7.74 7.74 0 0 1 3.13-5.33c2.85-2 7.47-1.72 9.88.88a8.02 8.02 0 0 1 2.12 5.45c.03.45.09 1.11-.14 1.3-.22.17-.77.13-1.19.1a4.87 4.87 0 0 0-.36-.03h-9.96a4.55 4.55 0 0 0 5.57 4.15 4.03 4.03 0 0 0 1.53-.83c.09-.07.17-.16.25-.26.18-.2.36-.4.59-.46.7-.18 1.58-.12 2.4-.07Zm13.61 1.51c-1.8 5-10.91 3.79-10.93-1.74h2.3l.21-.01c.25-.02.56-.04.72.08.12.1.17.3.21.5.03.1.05.2.08.26.19.45.52.82.94 1.06 1.65.94 4.25-.6 3-2.52-.59-.9-1.78-1.3-2.83-1.65l-.73-.26c-2.06-.78-3.48-2.21-3.48-4.5 0-.62.13-1.25.4-1.8 2.16-4.3 9.67-2.7 10.05 2.01h-3.28c-.2-.87-.77-1.7-1.73-1.8-1.1-.13-2.48.76-2.02 2.01.4 1.07 1.8 1.52 2.94 1.89.3.1.57.18.81.28 2.58 1 4.35 3.38 3.34 6.19Zm-79.6-4.95v-7.59h3.55v7.66c0 1.4.03 2.98 1.12 4.02 1.56 1.48 4.19.64 4.98-1.23.47-1.13.46-2.36.45-3.57v-6.88h3.55V60.9h-3.55v-1.88h-.07a3.98 3.98 0 0 1-1.6 1.61c-2.35 1.45-5.85.8-7.36-1.54-1.08-1.68-1.07-3.6-1.07-5.5v-.22Zm16.5 7.53V45.78h3.49v2.44h.07c.7-1.47 2.41-2.29 3.97-2.37l.17-.02c.4-.03 1.1-.09 1.29.14.12.16.1.47.08.72l-.01.2v2.38a7.72 7.72 0 0 0-1.74-.21c-1.8 0-3.17 1.2-3.58 2.92-.22.92-.2 1.87-.19 2.8v6.12h-3.55Zm15.26 0h-3.56V45.85h3.56V60.9Zm18.32 0h-3.56V45.85h3.56V60.9Zm-79.96-9.27h8c-.37-4.74-7.63-4.74-8 0Zm93.6 0h-8c.05-2.62 2.93-4.21 5.3-3.44a4.1 4.1 0 0 1 2.7 3.44Z" fill="#fff"/></svg>