<svg xmlns="http://www.w3.org/2000/svg" width="620" height="468" viewBox="0 0 620 468"><path d="M0 0h620v468H0z"/><g filter="url(#avy52tkkh)"><path fill="#00C7A4" d="M31 374h8v22h-8zM40 369h8v6h-8zM49 364h8v6h-8zM58 334h8v31h-8zM76 316h8v49h-8zM85 299h8v18h-8zM94 294h8v6h-8zM103 288h8v7h-8zM112 268h8v21h-8zM184 385h8v16h-8zM193 381h8v5h-8zM202 371h8v10h-8zM220 337h8v20h-8zM229 333h8v5h-8zM239 331h8v3h-8zM248 304h8v28h-8zM275 296h8v49h-8zM284 257h8v40h-8zM293 234h8v24h-8zM302 230h8v5h-8zM311 226h8v5h-8zM320 222h8v5h-8zM338 193h8v34h-8zM347 192h8v2h-8zM356 141h8v52h-8zM365 107h8v34h-8zM374 68h8v41h-8zM383 61h8v8h-8zM392 46h8v16h-8z"/><path fill="#FF2133" d="M410 108h8v27h-8z"/><path fill="#00C7A4" d="M500 109h8v40h-8zM509 100h8v10h-8zM518 96h8v5h-8z"/></g><g filter="url(#bvy52tkkh)"><path fill="#FF2133" d="M67 364h8v29h-8zM121 288h8v48h-8zM130 335h8v9h-8zM139 343h8v19h-8zM148 361h8v27h-8zM157 388h8v10h-8zM166 397h8v5h-8zM175 401h8v21h-8z"/><path fill="#00C7A4" d="M211 356h8v16h-8z"/><path fill="#FF2133" d="M257 331h8v14h-8zM266 343h8v2h-8zM329 226h8v42h-8zM401 61h8v49h-8zM419 134h8v19h-8zM428 153h8v32h-8zM437 184h8v16h-8zM455 218h8v7h-8zM446 199h8v19h-8zM464 224h8v18h-8zM473 241h8v1h-8zM482 241h8v5h-8zM527 100h8v64h-8zM536 163h8v13h-8zM545 175h8v27h-8zM554 201h8v37h-8zM563 238h8v8h-8zM572 245h8v17h-8zM581 261h8v24h-8z"/></g><path fill="#00C7A4" d="M491 149h8v93h-8z"/><defs><filter id="avy52tkkh" width="599" height="459" x="-21" y="-6" color-interpolation-filters="sRGB" filterUnits="userSpaceOnUse"><feFlood result="BackgroundImageFix"/><feColorMatrix in="SourceAlpha" result="hardAlpha"/><feGaussianBlur stdDeviation="26"/><feColorMatrix values="0 0 0 0 0 0 0 0 0 0.780392 0 0 0 0 0.643137 0 0 0 1 0"/><feBlend in="SourceGraphic"/></filter><filter id="bvy52tkkh" width="610" height="449" x="23" y="17" color-interpolation-filters="sRGB" filterUnits="userSpaceOnUse"><feFlood flood-opacity="0" result="BackgroundImageFix"/><feColorMatrix in="SourceAlpha" result="hardAlpha"/><feGaussianBlur stdDeviation="22"/><feColorMatrix values="0 0 0 0 1 0 0 0 0 0.129412 0 0 0 0 0.2 0 0 0 1 0"/><feBlend in="SourceGraphic"/></filter></defs></svg>