<svg xmlns="http://www.w3.org/2000/svg" width="200" height="80" viewBox="0 0 200 80"><path fill="#06C755" d="M63.41 27h-3.8q-.44 0-.74.31c-.2.2-.31.48-.31.76v23.85q0 .44.3.76.31.3.75.3h3.8a1 1 0 0 0 .99-.65q.08-.2.08-.4V28.06q0-.43-.3-.76-.31-.3-.75-.31m26.16.01h-3.8q-.44 0-.75.31-.3.32-.31.76v14.17L73.9 27.49l-.08-.11-.06-.07-.02-.02-.06-.04-.03-.02-.05-.04-.03-.02-.06-.03h-.03l-.07-.03h-.03l-.06-.02h-4.1q-.42 0-.74.31-.3.31-.3.75v23.78q0 .44.3.76.31.3.75.3h3.8q.44 0 .75-.3.3-.31.3-.76V37.76l10.84 14.79q.12.15.27.26l.07.04h.03l.05.02.05.03h.03l.07.02.28.04h3.8q.42 0 .74-.31.3-.31.31-.76V28.07q0-.44-.3-.76-.31-.3-.76-.31M54.25 47.02H43.92V28.07q-.01-.45-.31-.76-.31-.3-.75-.31h-3.8q-.44 0-.75.31-.3.31-.31.76v23.85q0 .43.3.74.3.3.73.3h15.2q.42 0 .74-.3t.33-.74v-3.84a1.1 1.1 0 0 0-.65-.98 1 1 0 0 0-.4-.09m56.33-14.03a1.05 1.05 0 0 0 1.06-1.07v-3.84q0-.43-.31-.76-.31-.3-.75-.31H95.4q-.42 0-.73.3v.02q-.3.31-.3.74v23.86q0 .43.3.74.31.3.73.3h15.19a1.05 1.05 0 0 0 1.05-1.07v-3.84q0-.45-.3-.76-.31-.3-.75-.3h-10.33v-4.04h10.33a1.05 1.05 0 0 0 1.05-1.07v-3.84a1.05 1.05 0 0 0-1.05-1.07h-10.33v-4.03z"/><path fill="#555" d="M137.65 30.97h-10.37v7.24h10v3.81h-10V53h-4.49V27h14.86zm11.57 2.28c.72 1.1 1.24 2.02 1.81 3.01h.12c.6-1.1 1.13-2.02 1.8-3.08l3.93-6.18h4.74l-8.33 12.43L162 53h-5l-4.06-6.6c-.71-1.14-1.4-2.36-2.06-3.5h-.08l-2.15 3.58L144.7 53h-4.78l8.63-13.42L140.21 27h5.05z"/></svg>