<svg xmlns="http://www.w3.org/2000/svg" width="2566" height="183" viewBox="0 0 2566 183"><path fill="#0F0F0F" d="M53 139.38V43.62h19.58v77.15h41.06v18.61zM263.5 91.5a49.5 49.5 0 0 1-49.56 49.5 49.5 49.5 0 0 1-49.57-49.5A49.5 49.5 0 0 1 213.94 42a49.5 49.5 0 0 1 49.57 49.5m-79.4 0c0 16.72 13.1 30.62 29.84 30.62s29.85-13.9 29.85-30.62-13.1-30.62-29.85-30.62-29.85 13.9-29.85 30.62M419.86 91.5a49.5 49.5 0 0 1-49.57 49.5 49.5 49.5 0 0 1-49.57-49.5A49.5 49.5 0 0 1 370.3 42a49.5 49.5 0 0 1 49.57 49.5m-79.42 0c0 16.72 13.1 30.62 29.85 30.62s29.85-13.9 29.85-30.62-13.1-30.62-29.85-30.62-29.85 13.9-29.85 30.62M482.75 139.38V43.62h19.44v40.46l34.58-40.46h24.18l-39.44 46 47.68 49.76h-25.4l-41.6-43.56v43.56zM664.34 139.38V43.62h58.35v18.61h-38.76v19.83h30.39v18.61h-30.4v38.71zM784.82 139.38V43.62h19.58v95.76zM872.98 139.38V43.62h36.73c17.97 0 29.45 12.4 29.45 28.32 0 12.82-7.03 20.9-19.72 24.96l34.44 42.48h-23.64l-32.82-40.33h-4.86v40.33zm19.58-57.05h14.86c7.3 0 12.29-3.91 12.29-10.39 0-6.6-5-10.38-12.3-10.38h-14.85zM1001.86 123.87l14.99-12.54a25.5 25.5 0 0 0 20.8 11.33c7.7 0 12.83-3.78 12.83-9.31 0-5.4-3.91-9.17-13.37-12.4l-8.1-2.84c-15.4-5.4-23.64-14.3-23.64-27.38 0-18.07 13.78-28.73 32.42-28.73 11.75 0 22.01 4.05 30.25 13.22l-12.97 13.35c-4.59-5.53-10.53-8.23-17.15-8.23s-12.83 2.84-12.83 8.5c0 5.8 4.73 8.36 14.86 12l7.7 2.84c14.04 5.12 22.82 14.02 22.82 28.46-.13 17.13-13.77 28.86-33.63 28.86-15.26 0-28.09-6.6-34.98-17.13M1149.69 139.38V62.23h-25.53V43.62h71.04v18.61h-25.79v77.15zM1289.06 138.57h-23.62l41.62-94.14h23.62zM1426.44 138.84V61.7h-25.52V43.08h71.04v18.61h-25.8v77.15zM1532.78 138.84V43.08h19.59v38.17h41.6V43.08h19.58v95.76h-19.58V99.86h-41.6v38.98zM1682.15 138.84V43.08h59.69v18.61h-40.11v19.7h32.01v18.6h-32.01v20.24h40.11v18.61zM1891.81 138.84h-16.88l-49.17-62.45v62.45h-19.58V43.08h16.88l49.17 62.45V43.08h19.58zM2004.66 138.84V43.08h19.58v77.15h41.06v18.61zM2126.32 138.84V43.08h59.7v18.61h-40.12v19.7h32.01v18.6h-32.01v20.24h40.12v18.61zM2239.82 138.84l41.33-95.76h17.42l41.47 95.76h-20.53l-9.32-21.85h-40.79l-9.32 21.85zm36.74-38.98h26.47l-13.24-31.15zM2429.88 43.08c19.45 0 33.63 14.03 33.63 32.23 0 18.21-14.18 32.24-33.63 32.24h-12.29v31.3H2398V43.07zm-.27 46.13c8.91 0 14.85-6.07 14.85-13.9s-5.94-13.89-14.85-13.89h-12.02v27.79zM2513 126.43c0 7.42-5.94 13.5-13.51 13.5-7.42 0-13.5-6.08-13.5-13.5s6.08-13.48 13.5-13.48c7.57 0 13.51 6.06 13.51 13.48"/></svg>