<svg width="200" height="80" viewBox="0 0 200 80" xmlns="http://www.w3.org/2000/svg"><path d="M185.46 44.2c-.03 1.07-.06 2-.12 2.8a81.65 81.65 0 0 1 3.46-.04 155.15 155.15 0 0 1 3.2.04 6.3 6.3 0 0 0-.02-.57 6.37 6.37 0 0 1 .02-.58 94.13 94.13 0 0 1-4.49.22H187V40.5h.89c1.16 0 1.97.03 2.41.05.45.02.83.06 1.12.11a14.39 14.39 0 0 1-.03-.53 3.64 3.64 0 0 1 .03-.58c-.77.04-1.5.08-2.19.1-.68.03-1.3.05-1.87.05H187V34.92h.5a54.3 54.3 0 0 1 4.43.19 6.3 6.3 0 0 0-.02-.55 6.37 6.37 0 0 1 .02-.56 228.38 228.38 0 0 1-5.74.03c-.3 0-.59-.02-.85-.03.06.8.1 1.72.12 2.75a156.93 156.93 0 0 1 0 7.45Zm-2.9 2c-.88.24-1.74.43-2.58.57-.84.13-1.64.2-2.4.2-2.15 0-3.85-.57-5.1-1.7a5.89 5.89 0 0 1-1.87-4.6c0-2.02.67-3.64 2.01-4.85 1.35-1.21 3.15-1.82 5.4-1.82.9 0 1.74.1 2.51.3.78.2 1.47.48 2.1.87a12.18 12.18 0 0 0-.45 1.61 4.71 4.71 0 0 0-1.85-1.57 6.06 6.06 0 0 0-2.61-.52 4.9 4.9 0 0 0-3.81 1.59 6.07 6.07 0 0 0-1.44 4.24c0 1.74.5 3.13 1.5 4.19a5.26 5.26 0 0 0 3.98 1.57 7.62 7.62 0 0 0 3.03-.62l.02-.8c.02-.42 0-.76 0-1v-.94c-.01-.34-.01-.81-.04-1.4a22.7 22.7 0 0 0 .79.08l.3-.02.47-.06a270.67 270.67 0 0 1-.05 2.88 24.59 24.59 0 0 0 .08 1.8Zm-20.4-2c-.02 1.07-.06 2-.11 2.8a81.65 81.65 0 0 1 3.46-.04 155.15 155.15 0 0 1 3.2.04 6.3 6.3 0 0 0-.02-.57 6.37 6.37 0 0 1 .02-.58 94.4 94.4 0 0 1-4.49.22h-.46l-.02-2v-3.55h.86c1.16 0 1.96 0 2.4.03.46.02.83.06 1.13.11a14.39 14.39 0 0 1-.03-.53 3.64 3.64 0 0 1 .03-.58c-.77.04-1.5.08-2.19.1-.68.03-1.3.05-1.87.05h-.33v-2.67l.02-2.11h.44a54.3 54.3 0 0 1 4.44.19 6.3 6.3 0 0 0-.02-.55 6.37 6.37 0 0 1 .01-.56 228.38 228.38 0 0 1-5.73.03c-.3 0-.59-.02-.85-.03.05.8.1 1.72.12 2.75.01.57 0 1.2-.02 1.89a82.13 82.13 0 0 0 0 3.58c.02.72.03 1.38.02 1.98Zm-9.4 1.25a44.67 44.67 0 0 0 .09-3.87v-.01a123.07 123.07 0 0 1 0-2.23v-.01l-.01-2.18c-.01-.64-.05-1.27-.09-1.9l-.07-1.25a4.83 4.83 0 0 0 1.75 0l-.12 3.57a151.96 151.96 0 0 0 .06 8.54l.45.01h.82c.82 0 1.55-.02 2.18-.06.63-.05 1.18-.12 1.64-.22a6.92 6.92 0 0 1-.02.57 6.92 6.92 0 0 0 .01.59 343 343 0 0 0-5.6-.04c-.4 0-.8.02-1.16.04l.07-1.55Zm-9.37-1.73-.07 3.28a32.6 32.6 0 0 1 2.43-.06 343 343 0 0 1 4.33.06v-.3a6.92 6.92 0 0 1 0-.86c-.46.1-1 .17-1.64.22-.63.04-1.35.06-2.17.06h-.82l-.45-.01a106.8 106.8 0 0 1-.1-5.36 151.96 151.96 0 0 1 .15-6.75 3.87 3.87 0 0 1-.86.07 5.33 5.33 0 0 1-.88-.07 134.9 134.9 0 0 1 .12 6.51c0 1.07-.01 2.14-.04 3.2Zm-9.63 2.58c1.61 0 2.85-.5 3.71-1.5.87-1 1.3-2.44 1.3-4.3 0-1.9-.42-3.33-1.27-4.32-.85-.98-2.1-1.47-3.74-1.47-1.61 0-2.85.5-3.72 1.53-.88 1.02-1.31 2.46-1.31 4.33 0 1.85.43 3.27 1.3 4.26.87.98 2.11 1.47 3.73 1.47Zm0 .7c-2.13 0-3.82-.58-5.06-1.73a6.22 6.22 0 0 1-1.84-4.75c0-1.97.62-3.55 1.88-4.73 1.25-1.18 2.93-1.77 5.02-1.77 2.12 0 3.8.58 5.03 1.75a6.22 6.22 0 0 1 1.85 4.75c0 1.94-.63 3.5-1.89 4.7a6.96 6.96 0 0 1-4.99 1.78Zm-10.41-.28a5 5 0 0 0 1.76-.77l.12-1.2c-.64.5-1.3.88-2 1.14-.69.26-1.39.4-2.09.4-1.49 0-2.67-.52-3.53-1.55-.86-1.03-1.29-2.44-1.29-4.22 0-1.86.43-3.3 1.3-4.31a4.55 4.55 0 0 1 3.66-1.54c.85 0 1.58.16 2.2.47.6.32 1.13.82 1.57 1.5a5.13 5.13 0 0 1 .3-1.76c-.59-.3-1.22-.51-1.9-.66a9.82 9.82 0 0 0-2.11-.22c-2.12 0-3.8.59-5.06 1.77a6.16 6.16 0 0 0-1.89 4.73c0 2.05.57 3.65 1.71 4.78 1.14 1.13 2.75 1.7 4.82 1.7.92 0 1.72-.09 2.42-.26ZM92.36 47c.23-1.03.5-2.52.78-4.47.3-1.96.68-4.8 1.15-8.53h.3c1.12 2.21 2.08 4.12 2.91 5.72.83 1.6 1.62 3.07 2.36 4.42A358 358 0 0 0 105.4 34h.25a736.23 736.23 0 0 0 1.47 13 4.01 4.01 0 0 0-1.67 0c-.16-2.2-.33-4.11-.5-5.77a41.67 41.67 0 0 0-.48-3.55 100.86 100.86 0 0 0-3.01 5.39 34.46 34.46 0 0 0-1.78 3.9h-.26c-.14-.48-.35-1.02-.62-1.61-.27-.6-.65-1.36-1.16-2.28l-2.91-5.39c-.29 2.01-.51 3.82-.67 5.42-.16 1.6-.24 2.9-.26 3.89a2.6 2.6 0 0 0-.68-.1l-.35.03a3.9 3.9 0 0 0-.4.07Zm-8.44-5.8-.58-.01 2-4.64a234.2 234.2 0 0 1 1.61 3.82l.32.82a134.56 134.56 0 0 0-2.51.02l-.84-.01Zm-.9-1.2c-.93 2.11-1.99 4.44-3.16 7l.32-.07a1.7 1.7 0 0 1 .6 0l.32.07a64.33 64.33 0 0 1 1.93-5h4.62l.32.76A66.2 66.2 0 0 1 89.56 47a5.52 5.52 0 0 1 1.87-.01A472.08 472.08 0 0 1 86 34h-.35c-.81 1.9-1.69 3.9-2.63 6Zm-6.71 7c.04-.62.07-1.3.09-2.06.02-.77.02-1.71.02-2.85v-1.58c0-2.02 0-3.46-.02-4.3-.02-.85-.05-1.58-.1-2.21a3.97 3.97 0 0 0 .86.07 5.2 5.2 0 0 0 .9-.07c-.05.43-.05.93-.07 1.5v8.15c0 1-.04 1.73-.03 2.18.02.44.05.83.1 1.17a4.38 4.38 0 0 0-1.33-.06c-.15.01-.29.03-.42.06Zm-9.5-6.9-.26-.03v-3.34c0-.22.02-.44.05-.64l.04-.4.08-.9.31-.01c.58-.04.96-.06 1.16-.06 1.06 0 1.86.22 2.4.65.54.43.81 1.08.81 1.93 0 .94-.35 1.64-1.04 2.1-.69.46-1.73.7-3.13.7h-.41ZM65 44.7c-.02.87.02 1.63-.02 2.3a4.27 4.27 0 0 1 1.74 0l-.07-1.51c0-.22-.03-.42-.05-.63-.02-.25-.04-.49-.04-.73v-3.47h.11c.13-.03.24-.04.31-.04.16 0 .3.04.41.1.12.07.23.17.33.32l2.05 2.66c.32.43.67.9 1.04 1.44.38.52.8 1.14 1.29 1.85a10.94 10.94 0 0 1 1.62-.06l.59.07-.29-.36a248.44 248.44 0 0 1-4.73-6.05 5.35 5.35 0 0 0 2.77-1.25c.65-.62.98-1.37.98-2.26 0-1.04-.35-1.8-1.05-2.31-.7-.51-1.75-.77-3.16-.77-.44 0-.98.01-1.65.04l-1.34.03a15.74 15.74 0 0 1-.87-.03c.04.7.01 1.56.03 2.55v3.94c0 1.93.02 3.32 0 4.18ZM59.65 47c.02-.27.07-.55.12-.84.07-.39.22-.8.23-1.22V36.2c-.01-.5-.17-.95-.24-1.38-.05-.3-.1-.57-.1-.83a3.96 3.96 0 0 0 .84.07 5.2 5.2 0 0 0 .9-.07l-.05.42c-.04.33-.09.68-.1 1.08v8.15c0 .73.02 1.31.04 1.75l.01.43c.02.44.05.83.1 1.17a4.38 4.38 0 0 0-1.33-.06 4.3 4.3 0 0 0-.42.06ZM42.8 42.53c-.3 1.95-.56 3.44-.79 4.47a3.9 3.9 0 0 1 1.08-.07l.35.07c.02-.99.1-2.28.26-3.89.16-1.6.38-3.4.67-5.42l2.91 5.39c.5.92.9 1.68 1.16 2.28.27.6.48 1.13.62 1.62h.26c.34-.96.93-2.27 1.78-3.91.85-1.66 1.86-3.45 3.01-5.4.15.72.3 1.9.48 3.56.18 1.66.34 3.58.5 5.77a4.1 4.1 0 0 1 1.67 0l-.87-7.52-.6-5.48h-.24a578.27 578.27 0 0 1-5.54 10.14c-.74-1.35-1.53-2.82-2.36-4.42-.83-1.6-1.8-3.5-2.9-5.72h-.31c-.47 3.73-.85 6.57-1.14 8.53ZM26 7l2.48 1.76a11.71 11.71 0 0 1 5.1 8.13c.66 4.73-.33 9.55-2.81 13.64l-1.07 1.76-1.13-.67 1.07-1.77a19.46 19.46 0 0 0 2.64-12.78 10.4 10.4 0 0 0-4.53-7.22l-.75-.4V40.1L38.05 27.9l.95.89-11.59 12.98 10.27 11.5-.96.87L27 43.46V62h-1V43.53l-9.64 10.6-1.04-.87 10.33-11.48L14 28.8l1.02-.9L26 40.01V7ZM16.5 69h.86c.02-.12.07-.28.15-.5l1.08-2.9c.12-.33.18-.47.25-.6h-.83c-.02.17-.05.28-.13.53L17.04 68l-.08.25-.04.13-.12-.38-.83-2.48a3.27 3.27 0 0 1-.14-.53H15c.07.14.14.3.25.6l1.08 2.9c.09.23.14.39.16.5Zm5.66 0v-.66a4.9 4.9 0 0 1-.64.04H20V67.2h1.23c.3 0 .44 0 .65.04v-.65c-.22.02-.4.03-.65.03H20v-1.01h1.45c.3 0 .46 0 .65.03V65c-.23.02-.4.03-.65.03h-1.52l-.64-.01c.03.23.04.38.04.64v2.67c0 .29 0 .47-.04.67h2.21c.3 0 .47-.02.65 0Zm3.19 0h.83l-.24-.5c-.5-1.17-.6-1.3-.9-1.4.28-.09.41-.15.55-.3.17-.17.26-.42.26-.74 0-.66-.44-1.05-1.2-1.05h-1.21l-.65-.01c.03.24.04.39.04.65v2.7c0 .3 0 .44-.04.65h.75c-.03-.2-.04-.36-.04-.66v-1.02h.75c.39 0 .57.19.84.88.16.42.25.68.26.8Zm2.16-4h-.76c.03.2.04.34.04.65v2.7c0 .3-.01.46-.04.65h.76c-.03-.2-.04-.35-.04-.65v-2.7c0-.3.01-.46.04-.65Zm2.53 3.35v-2.72h.63c.36 0 .55.01.74.04V65c-.2.02-.38.03-.74.03h-2c-.28 0-.5 0-.68-.03v.67c.17-.03.4-.04.69-.04h.68v2.72c0 .27-.01.44-.04.65h.76a4.1 4.1 0 0 1-.04-.65Zm4.68.65h.83a5.28 5.28 0 0 1-.26-.6l-1.11-2.9c-.12-.3-.15-.38-.18-.5h-.87c-.03.13-.07.26-.16.5l-1.11 2.9-.27.6h.83c.04-.21.06-.29.15-.53l.2-.47h1.61l.2.47c.06.15.11.36.14.53Zm1.16-1.2.73-.07c.02.21.05.31.14.42.15.18.4.29.73.29.5 0 .81-.22.81-.58 0-.2-.1-.36-.25-.45a2.88 2.88 0 0 0-.8-.21l-.08-.02a1.82 1.82 0 0 1-.76-.3.93.93 0 0 1-.39-.78c0-.67.57-1.1 1.43-1.1.58 0 1.01.17 1.26.49.12.16.18.3.24.56l-.72.08a.61.61 0 0 0-.15-.34c-.13-.15-.35-.24-.63-.24-.43 0-.73.22-.73.53 0 .2.1.34.34.44.11.04.15.05.71.17.4.08.64.18.82.3.29.2.42.46.42.82 0 .35-.11.63-.32.82-.26.25-.66.37-1.2.37-.41 0-.82-.1-1.06-.25-.2-.13-.35-.31-.44-.55-.05-.11-.07-.2-.1-.4Zm-11.37-1.05h-1V65.6h1.02c.42 0 .62.18.62.54a.6.6 0 0 1-.16.44.68.68 0 0 1-.48.18Zm9.15-.9.54 1.5h-1.25l.52-1.5.01-.01.02-.07.07-.2.06.2.03.09Z" fill="#fff"/></svg>