<svg width="200" height="80" viewBox="0 0 200 80" xmlns="http://www.w3.org/2000/svg"><path d="M99.59 68c-.5-.25-1.02-.47-1.5-.74-.42-.24-.73-.6-.96-1.02-.46-.82-1.08-1.45-2.04-1.61a3.25 3.25 0 0 0-2.4.61 4.7 4.7 0 0 1-1.79.8 2.95 2.95 0 0 1-2.89-1.26 5.07 5.07 0 0 1-.77-2.04 2.63 2.63 0 0 0-2.39-2.27c-.61-.08-1.2.05-1.78.14-1.71.27-3.29-.5-3.7-2.46-.15-.76 0-1.46.15-2.19.27-1.42-.48-2.57-1.81-3.05-.53-.18-1.1-.26-1.63-.45-1-.35-1.79-.98-2.06-2.06a3.39 3.39 0 0 1 .54-2.88c.49-.68.9-1.38.84-2.26a2.7 2.7 0 0 0-.94-1.84c-.45-.4-.95-.73-1.4-1.12a2.93 2.93 0 0 1-.55-3.91 5 5 0 0 1 1.55-1.45 2.58 2.58 0 0 0 1.3-2.56 4.41 4.41 0 0 0-.83-2.02c-.97-1.42-.88-3.22.64-4.34a5.19 5.19 0 0 1 2.13-.79c1.83-.38 2.36-1.81 2.18-3.4-.06-.46-.15-.92-.16-1.38-.02-1.6.86-2.66 2.4-3.04.7-.17 1.37-.08 2.06.07 1.9.42 3.08-.68 3.47-2.39.2-.83.4-1.64 1.01-2.27.82-.84 1.8-1.01 2.91-.78a4 4 0 0 1 1.6.76c.55.4 1.15.65 1.86.62a2.79 2.79 0 0 0 2-1c.4-.45.74-.97 1.15-1.42a2.9 2.9 0 0 1 1.96-1c.7-.05 1.34.2 1.93.58.54.34.95.8 1.28 1.36.45.75 1.1 1.28 1.99 1.43.83.14 1.55-.16 2.25-.53.49-.26.96-.58 1.48-.76 1.26-.43 2.5.02 3.29 1.1.45.61.69 1.27.8 2.02.08.7.41 1.33 1 1.78.73.56 1.59.66 2.46.52.72-.11 1.42-.27 2.16-.1a2.96 2.96 0 0 1 2.18 2.26c.16.74.1 1.45-.06 2.18-.34 1.62.45 2.74 1.93 3.27.32.11.66.18 1 .26 1.33.3 2.63 1.3 2.6 2.94a4.57 4.57 0 0 1-.4 1.84c-.1.21-.3.38-.43.58-1.05 1.6-.78 3.12.77 4.24.54.39 1.11.74 1.47 1.33.22.38.37.8.56 1.2v.83c-.02 0-.05.01-.05.03a3.7 3.7 0 0 1-1.13 2.04c-.29.27-.65.45-.98.68-.8.56-1.3 1.32-1.26 2.31.02.83.4 1.55.87 2.23.59.86.81 1.81.5 2.82a3.19 3.19 0 0 1-1.33 1.65c-.56.39-1.2.52-1.85.65-1.06.2-1.86.79-2.17 1.87-.2.7-.17 1.43 0 2.13.16.68.09 1.33-.12 1.97-.53 1.63-2.54 2.21-3.85 1.88a3.52 3.52 0 0 0-1.92-.06c-1.22.37-1.74 1.31-2.04 2.45-.1.4-.2.81-.36 1.2-.57 1.47-1.94 2.12-3.45 1.8a4.74 4.74 0 0 1-1.74-.85c-1.12-.78-2.25-.8-3.27 0-.44.34-.77.83-1.15 1.25-.29.32-.54.69-.88.94-.38.28-.85.46-1.28.68h-.95Zm23.97-28.02a23.52 23.52 0 0 0-23.44-23.54 23.56 23.56 0 1 0 23.44 23.54Z" fill="#D10000"/><path d="M99.97 62.77A22.73 22.73 0 0 1 77.2 40.01a22.72 22.72 0 0 1 22.9-22.8 22.75 22.75 0 0 1 22.69 23.07 22.74 22.74 0 0 1-22.8 22.5ZM100 18.3a21.7 21.7 0 0 0-.06 43.4A21.68 21.68 0 0 0 121.7 40 21.68 21.68 0 0 0 100 18.3Z" fill="#D10000"/><path d="M99.99 21.96A18 18 0 0 1 118.05 40 18 18 0 0 1 100 58.04a18 18 0 0 1-18.04-18.06A18 18 0 0 1 100 21.96Zm9.96 13.2.02-.11-1.43-.34.17-.2c-.49-.06-.92-.13-1.38-.2l.16-.27-1.01.3-.03-.39-1.1.74-.05-.37-1.05.31-.06-.06.87-.94-.23-.18 1.36-.5-.17-.28.03-.09 1.23.18-.16-.34.04-.06c.46.25.93.5 1.41.74l-.1-.28.06-.05c.21.17.44.32.62.52.18.19.3.43.46.64l.48.61.1-.06-.71-1.25.18-.04-.78-1.22.17-.1-.76-.61.2-.27c-.37-.15-.72-.3-1.1-.44.23-.17.13-.29 0-.4l-.66-.56.03-.08.98.13-.08-.23.06-.04 1.06.75.01-.3.08-.03.69 1.13.04-.3.08-.02.55 1.62.08-.25c.44.9.13 1.87.35 2.81.52-.69.55-1.6 1.23-2.17l.04.22 1.12-1.07-.05.38 1.02-.5.04.07-.13.3h1.3a17.18 17.18 0 0 0-17.2-9.11c-6.1.69-11.11 4.7-13.23 9.12h1.27l-.14-.32.06-.08 1.02.56-.07-.44 1.15 1.13-.02-.26c.38.26.54.65.7 1.03.17.37.32.75.48 1.12l.09-.04c.22-.88-.1-1.83.32-2.72l.1.17.54-1.54.07.02.07.23.7-1.12.07.03v.32l1.1-.77-.02.28.96-.1c-.19.23-.4.4-.58.58-.1.1-.14.26-.2.4l.07.06-1.06.43.23.25-.8.65.2.08-.77 1.2.17.06-.7 1.25.08.04c.6-.5.78-1.41 1.62-1.73l-.06.29 1.37-.72.04.06-.14.33 1.32-.19-.23.38 1.34.5-.2.18.85.95-.06.05-1.09-.31v.38l-1.14-.76.03.4-1.04-.3.15.28-1.35.2.17.25c-.72.03-1.24.18-1.42.4.67-.23 1.31-.3 2.05.05l-.26.13 1.51.7c-.2.1-.3.14-.45.2.5.24.89.52 1.1.99l-.26.05.75 1.49-.25-.01.14.72.06.69h-.05l-.7-1.14-.14.3-.5-1.51-.2.3-.62-1.09-.04.31-.11.08-.82-.94-.04.05.66.85-.26.02 1.16 1.74-.4-.1.65 1.69-.1.04-.26-.17.13 1.98-.08.02-.17-.2-.15.84-.22.76-.06-.01-.18-1.64-.3.13.14-1.83-.3.13-.18-1.52-.18.33-.64-1.77-.08.02-.06.24-.47-1.19c-.1.53.14 1.05-.13 1.55.27.18.26 1.07 0 1.43.21.26.13 1.16-.14 1.46.2.27 0 1.47-.3 1.76.2.3-.16 1.6-.52 1.8.23.27-.3 1.66-.62 1.8-.03.17-.01.33-.07.45-.3.59-.62 1.17-.93 1.75-.11.21-.24.4-.34.57 1.16-.5 2.32-1.05 3.52-1.49 1.2-.44 2.45-.78 3.66-1.16l-.16-1.44h1.13l-.14 1.3c.1 0 .19.02.28 0 1.9-.34 3.8-.47 5.74-.41.22 0 .44.04.66.04.21 0 .35-.1.34-.31-.16-.09-.38-.13-.42-.23-.13-.41.33-.4.5-.55-.08-.08-.18-.16-.16-.2.07-.22-.19-.48.09-.68.04-.04-.03-.21-.04-.31.05-.1.1-.21.17-.32.03-.05.07-.13.12-.15.6-.16 1.18-.38 1.78-.45.61-.08 1.25-.01 1.87 0 .1 0 .22.04.28.1.12.15-.02.72-.17.85-.09.08-.14.2-.21.3l.07.1 1.44-.2c.38-.05.77-.18 1 .14.25-.07.44-.18.64-.17.33.01.66.1.99.15.16.02.36-.07.48 0 .22.13.42.3.46.62.04.41.18.81.27 1.22.02.12 0 .25 0 .36h-.1l-.4-1.72-.08.02.39 1.9-2.52-.37v-1.81h-.15v1.91c-.9-.2-1.66.38-2.5.19l.24-1.19-.08-.02-.28 1.15c-.22-.33.04-.59 0-.86-.04 0-.09 0-.11.03-.52.47-1.14.56-1.8.5-.15-.02-.3 0-.45 0h-.97c1.2.2 2.35.4 3.5.58.41.06.8.24 1.24.13.36-.09.73-.19 1.08.09.1.08.36.07.45 0 .3-.27.61-.14.93-.11l1.69.11c-.03.03-.08.13-.14.14l-2.94.06c-.17 0-.33-.04-.5-.06l-.02.08c2.02.6 3.96 1.38 5.87 2.46l-.13-.24c-.45-.79-.9-1.57-1.33-2.37-.07-.13-.05-.3-.08-.5-.3-.08-.83-1.46-.65-1.8-.35-.2-.69-1.52-.47-1.8-.33-.25-.54-1.43-.31-1.74-.3-.28-.38-1.25-.13-1.44-.25-.33-.27-1.3-.03-1.45-.25-.5 0-1.02-.04-1.53l-.08-.02c-.16.4-.3.8-.47 1.2l-.13-.3c-.22.63-.43 1.2-.66 1.8l-.17-.32-.18 1.53-.3-.17.14 1.85-.3-.12-.18 1.61-.1.02-.35-1.58-.23.22.12-2.03-.25.13a5.84 5.84 0 0 0-.1-.04l.65-1.65-.31.09-.06-.05 1.14-1.7h-.29l.68-.84-.1-.09-.83.99-.08-.42-.62 1.1-.2-.28-.49 1.42-.1.07-.04-.32-.73 1.2-.08-.02.23-1.46-.26.08.79-1.53-.27-.06c.21-.48.61-.75 1.11-.99l-.48-.2c.56-.24 1.04-.46 1.53-.69l-.18-.16c.66-.33 1.32-.24 1.98-.02v.01ZM88.48 52.79a17.1 17.1 0 0 0 13.15 4.33 16.82 16.82 0 0 0 9.81-4.28 22.48 22.48 0 0 0-22.96-.05Zm24.25-15.53 1.16 1.63-.06.04-.37-.09c.16.3.31.56.43.84.11.27.19.57.3.9l-.34-.17.18 2-.08.01-.15-.17-.34 1.59-.06-.02-.25-1.59-.28.07.1-1.84-.31.2-.22-1.5-.16.28-.7-1.74-.11.26-.64-1.4-.1.05c-.7 4.81.47 9.1 3.62 12.85l.23-.3.19-.34a16.95 16.95 0 0 0 2.32-10.74 16.97 16.97 0 0 0-1.17-4.6c-.25-.6-.26-.6-.9-.52-.02 0-.03.02-.05.03l-.02.27-1.06-.3.06.38h-.9l.12.24c-.39.2-.75.36-1.14.55l.15.14-1.06.71.04.09c.3-.13.6-.26.92-.37.33-.12.64-.08.96.1l-.2.17 1.49.36-.02.09-.33.2c.53.14.93.38 1.26.81-.08 0-.13 0-.18.02l-.12.07.9 1.3-.2.05.38 1.5-.92-1.09-.13.29-.67-1.41-.14.34-.77-.95v.34l-1.16-.77-.1.09.9 1.08-.3-.04Zm-27.09 12.2a15.66 15.66 0 0 0 3.62-12.9l-.1-.03-.64 1.47-.1-.33-.71 1.79-.16-.3-.21 1.5-.33-.2.12 1.83-.3-.05-.23 1.58-.07.01-.33-1.58-.24.23.18-2.08-.26.15c0-.06-.02-.12 0-.16l.57-1.51-.39.07 1.17-1.65-.25-.04c.32-.37.6-.7.88-1.05l-.1-.08-1.17.76-.05-.26-.7.9-.15-.38-.66 1.41-.16-.27-.82 1-.06-.02.37-1.4a.65.65 0 0 1-.2-.06l.9-1.31-.26-.07-.05-.1 1.16-.75-.32-.21 1.55-.4-.2-.16c.68-.4 1.24.05 1.82.23l.04-.1-1-.66.16-.14-1.15-.55.14-.25h-.91l.04-.37-1.08.3.02-.29c-.1-.01-.17 0-.24-.03-.3-.12-.5-.03-.6.29-.18.55-.41 1.08-.6 1.63a17.12 17.12 0 0 0 2.04 14.6h.02Zm2.5 3.05.23-.12c1.12-.53 2.22-1.14 3.38-1.6a23.33 23.33 0 0 1 11.9-1.2c1.47.24 2.92.6 4.3 1.17 1.21.5 2.38 1.12 3.56 1.68.1.05.28.08.32.04.63-.65 1.23-1.3 1.85-1.97a26.84 26.84 0 0 0-17.47-3.55c-3.52.46-6.84 1.6-9.96 3.44l1.9 2.11Zm14.81-7.45v.07h-.77c-.05.01-.11.1-.17.14.06.03.12.1.18.1h2.6c.06 0 .12-.1.18-.16-.07-.06-.13-.14-.2-.18-.05-.03-.13 0-.19.02l-.89.16-.01-.09.65-.04c.07-.43.05-.45-.34-.45l-.31-.02h-1.89l.03.45h1.13Zm-.94 1.14 2.27-.01c.09 0 .17-.11.25-.17l-.15-.19c.03-.06.11-.17.09-.24-.02-.06-.16-.12-.25-.12l-2.44-.03c-.24 0-.3.1-.23.32l.43.05.03.39Zm1.7-2.16-.02.04h-1.46c-.08 0-.15.1-.22.15.05.06.1.18.16.18h2.42c.04-.14.05-.26.1-.37.1-.2.03-.31-.18-.31h-2.39v.3h1.58v.01Z" fill="#D10000"/><path d="m86.03 55.15 1.33-1.43.36.33-1.8 2.06-.56-.83.76-1.45-.04-.05-1.6.86-.64-.69 2.05-1.75.3.36-1.3 1.2.04.08c.11-.05.22-.08.32-.14.4-.2.78-.41 1.16-.64.17-.1.28-.01.38.1.1.1.16.17.06.34-.27.44-.5.9-.74 1.36l-.13.26.05.03Zm32.54-15.72.93-.04c.44-.02.87-.04 1.3-.04.15 0 .41.05.43.12.05.23.08.47-.22.64-.53.3-1.03.65-1.61 1.03l.35.02.95.01c.52.02.54.04.45.6l-2.61-.21c-.08-.38.04-.6.38-.76.45-.23.86-.52 1.36-.83h-1.7v-.54Zm-28.5-15.19c-.27.33-.56.39-.92.19-.18-.1-.4-.13-.6-.2-.26-.11-.43.03-.64.2l.65.9-.39.33-1.73-2.12c.54-.36 1.05-.73 1.58-1.06.28-.17.6-.09.8.14.25.3.28.58.07.9-.05.07-.1.15-.14.24.25.06.48.1.7.19.21.07.41.19.62.29Zm-2.43-.13c.26-.2.52-.35.7-.56.1-.1.11-.35.04-.46-.04-.09-.28-.1-.43-.08-.1.02-.2.12-.29.18-.31.22-.36.48-.13.77l.1.15Zm22.38-1.12.14 1.44c-.45-.14-.66-.37-.6-.8.03-.2 0-.42-.07-.6-.09-.2-.26-.36-.43-.59l-.59 1.08-.45-.25 1.2-2.44c.53.32 1.06.59 1.55.93.37.26.42.6.25.9-.19.33-.5.45-.93.35l-.07-.02Zm-.77-.81c.25.13.5.29.78.4.1.03.29-.01.36-.09s.1-.32.06-.36c-.27-.21-.56-.4-.87-.54-.03-.01-.23.35-.35.53l.01.06Zm-25.53 26.9.23.42-2.26 1.34c-.37-.35-.38-.42-.16-.83l.84-1.57-1.62.76-.23-.5 2.42-1.08c.22.27.28.5.06.8-.3.44-.54.93-.8 1.4l.06.06 1.46-.8Zm-1.68-18.63 1.54.84-.26.41-2.34-1.18c.15-.53.22-.58.84-.61.5-.02 1-.06 1.51-.14l-1.46-.9.28-.49c.76.5 1.5 1 2.25 1.47-.15.37-.4.5-.77.5-.48-.02-.95.03-1.43.05-.04 0-.08.03-.16.05Zm31.77 22.12 1.91 1.72c-.28.45-.34.47-.82.37l-1.7-.32 1.18 1.29-.35.43-1.76-2.02c.22-.37.32-.4.71-.3.53.13 1.06.23 1.68.37l-1.24-1.25.4-.3Zm-12.22-31.1c-.39.1-.58-.01-.75-.33-.24-.5-.56-.95-.84-1.42l-.08.04v1.67h-.51V19.1c0-.11.05-.33.06-.33.2 0 .43-.17.6.11.28.5.6.97.9 1.45l.16.24.13-1.8.54.07-.22 2.62Zm-9.89.81-.62.28-.2-.37 1.12-.54.22.48c.24.58.25.67-.24 1.08-.77.63-1.62.73-2.26-.12-.53-.72-.32-1.55.36-1.93.38-.2.75-.45 1.21-.28.16.06.3.16.5.27-.27.17-.4.42-.77.24-.32-.16-.63.05-.87.3-.22.23-.22.51-.1.79.07.16.18.31.3.45.47.55 1.15.23 1.4-.23.06-.08-.02-.24-.04-.42Zm26.74 19.89 2.66.28c-.08.6-.08 1.22-.36 1.77-.26.53-.75.58-1.28.5-.67-.1-1.18-.53-1.2-1.09-.02-.32.06-.65.1-.97l.09-.49Zm.34.57c0 .42-.3.85.11 1.15.39.28.87.43 1.31.18.37-.22.36-.65.36-1.06l-1.78-.28Zm-1.01-8.2c-.07-.85.78-1.31 1.45-1.35.8-.04 1.31.71 1.34 1.54.02.84-.61 1.29-1.5 1.31-.75.02-1.3-.63-1.3-1.5Zm1.26.9c.63 0 1.08-.33 1.09-.8a.83.83 0 0 0-.82-.86c-.6 0-1.1.41-1.1.9 0 .44.35.76.83.76Zm-1.64 16.43c0 .8-.72 1.54-1.45 1.55-.55 0-1.44-.68-1.4-1.46.02-.71.68-1.45 1.36-1.44.62.02 1.55.57 1.49 1.35Zm-1.56-.8c-.45 0-.8.33-.8.79s.54 1 1.03 1c.42.01.82-.4.83-.82 0-.45-.55-.96-1.06-.97ZM80.42 32.76l.58.22c.2-.45.38-.9.58-1.38l.38.2-.54 1.32.7.27.6-1.43.38.18-.75 1.9-2.55-.86.83-2.1.4.16-.61 1.52Zm26.33-11.79 1.31.54c-.1.44-.09.43-.46.27-.33-.14-.66-.26-1.03-.4l-.23.72 1.42.58-.17.36c-.6-.22-1.19-.43-1.77-.66-.04-.02-.08-.18-.05-.25l.74-2.37 2.15.82-.2.4-1.13-.45c-.4-.17-.4-.18-.52.24l-.06.2ZM80.61 44.18l.73-.17-.26-1.5.42-.08.37 2.02-2.62.62-.4-2.23.43-.04.2 1.19c.08.42.09.41.51.3l.18-.03-.24-1.42c.4-.12.4-.12.47.25l.21 1.09Zm-.06-5.54v-.48c.53-.26.65-.44.55-.87a.5.5 0 0 0-.28-.32c-.07-.03-.25.12-.31.22-.13.23-.21.48-.32.72-.15.37-.46.6-.76.56-.35-.05-.56-.29-.63-.73-.09-.57.14-1.2.53-1.39.11-.05.25-.07.4-.12 0 .31.1.58-.3.7-.22.06-.3.7-.13.89.18.2.3.07.39-.09.1-.22.17-.45.28-.67.09-.18.18-.37.32-.5.33-.3.89-.2 1.14.18.46.67.01 1.75-.78 1.9h-.1Zm6.96-13 .21.26-1.37 1.5a665.3 665.3 0 0 0-1.94-1.8l1.49-1.69.39.37-1.2 1.12.43.45 1.08-1.01.28.32-1.04 1 .53.53 1.14-1.05Zm25.8-1.24-.52-.36c.05-.42-.1-.69-.5-.82-.1-.03-.27-.01-.3.04a.4.4 0 0 0 .01.33c.14.22.32.42.48.62.4.53.26 1.13-.33 1.33-.3.1-.56-.02-.81-.17-.65-.37-.85-.88-.56-1.48.23.1.46.14.39.52-.07.33.37.7.7.66.27-.02.37-.28.21-.5-.19-.27-.4-.52-.57-.8-.18-.26-.2-.52 0-.82.2-.29.5-.27.74-.21.5.13.9.45 1.08.96.07.18 0 .41-.02.7Zm-17.95-2.44c-.47.24-.5.25-.78-.1-.13-.16-.24-.23-.43-.13-.12.06-.25.1-.38.13-.37.05-.48.25-.45.6.04.36-.33.26-.55.44l.1-2.73c.01-.3.27-.3.45-.36a.4.4 0 0 1 .34.11l1.7 2.04Zm-1.98-.43.72-.25-.72-.85v1.1ZM85.66 52c-.88.24-1.75.48-2.63.7-.1.02-.26-.17-.37-.28-.14-.12-.13-.27-.03-.42l1.26-1.9.21-.27c.36.35.37.36.1.73-.12.17-.13.3 0 .46.09.1.16.2.23.31.17.29.35.47.72.27.3-.17.35.18.52.3v.1Zm-1.86-.8-.55.86.07.05.94-.25-.47-.67Zm37.37-12.54c-.6.04-1.2.1-1.78.11-.53.02-.84-.22-.96-.73-.05-.2-.07-.41-.07-.62 0-.4.2-.7.59-.8.63-.16 1.28-.27 1.95-.4l.1.6c-.47.06-.95.12-1.42.2-.2.04-.41.1-.58.2-.25.16-.2.43-.14.67.06.23.24.33.48.32l1.35-.1c.53-.06.54-.05.48.55Zm-4.02 8.51c.08-.36.18-.62.58-.54.2.05.3-.05.36-.23.07-.25.17-.5.23-.75.02-.07-.05-.2-.11-.25-.1-.1-.24-.18-.37-.27l.16-.56c.72.58 1.42 1.16 2.13 1.72.21.18.04.35 0 .51-.04.1-.17.23-.27.24-.89.06-1.78.09-2.7.13h-.01Zm1.59-1.36-.26.78 1.12-.06-.86-.72ZM96.83 18.98l.28 1.74c.05.33.31.52.62.48.34-.05.5-.22.48-.58l-.1-1.76.59-.05.06 2.1-.02.09c-.12.4-.55.61-1.21.62-.48.01-.8-.17-.9-.58-.15-.59-.26-1.2-.36-1.8-.01-.05.08-.16.15-.2.11-.04.25-.04.4-.06ZM79.62 46.29l-.16-.54c.54-.15 1.08-.33 1.63-.45.91-.2 1.61.54 1.4 1.47a.73.73 0 0 1-.32.45c-.61.3-1.25.57-1.9.86l-.22-.58 1.55-.6c.5-.19.59-.7.18-1.03a.44.44 0 0 0-.33-.08c-.6.15-1.2.33-1.83.5Zm4.49-20.42c.44.79.88 1.57 1.3 2.38.04.08-.08.28-.16.41-.04.06-.16.12-.22.1l-2.62-.71c.06-.11.1-.22.17-.32.09-.14.18-.2.37-.13.58.19 1.18.34 1.83.53l-.83-1.39c-.29-.48-.28-.48.16-.87Zm22.01-6.17L105 21.18c-.14.19-.3.36-.4.56-.13.24-.29.21-.5.18-.24-.04-.23-.19-.26-.36l-.4-2.23-.05-.29c.18.03.35 0 .45.08.12.08.2.25.23.39.09.52.15 1.04.22 1.56 0 .04.04.07.06.13l.9-1.3c.3-.44.33-.46.85-.2Zm12.61 12.96-.4.13-.46-1.08-1.04.47-.24-.47 2.42-1.2.85 1.94-.41.14-.6-1.36-.58.29.47 1.14Zm-2.12-5.81c.47.4.47.43.28.95l-.3.77h.88c.49 0 .56.06.72.56-.48-.02-.95-.02-1.42-.07a1.2 1.2 0 0 0-.84.28l-.51.34-.3-.4c.33-.38.9-.47 1.05-1.02.12-.47.29-.92.44-1.41Zm-.04-.15-.36.26-.59-.66-1.67 1.44-.39-.34 1.66-1.54-.6-.68c.1-.1.17-.2.28-.33l1.67 1.85Zm2.1 22.52c-.7-.34-1.35-.66-2.01-1l.23-.46 2.04.91.35-.8.42.16-1.03 2.2-.4-.21.4-.8ZM78.83 42.2c-.03-.14-.04-.23-.07-.32-.05-.23.04-.32.28-.33.6-.02 1.2-.07 1.8-.1.04 0 .08-.02.11-.03v-1.37h.38l.13 1.87-2.63.27Zm37 7.5.28-.45 2.33 1.33-.3.52-2.31-1.4Zm-13.67-28.15c.1-.9.2-1.75.32-2.65l.6.07-.4 2.66-.52-.08Zm10.22 4.65 1.8-2 .45.4-1.85 1.96-.4-.36Zm-2.21 31.86c-.48.2-.73-.22-1.1-.3.1.24.18.46.28.67l-.06.08c-.07-.03-.17-.05-.2-.11-.16-.3-.29-.6-.45-.96.46-.11.7.28 1.04.34.08-.26-.4-.46-.12-.84l.6 1.12h.01ZM93.52 59.1l.32-.82c.06.12.14.2.13.25l-.33 1.03c-.44-.19-.33-.64-.52-.92-.24.11-.09.57-.54.6l.38-1.03c.02-.05.11-.13.14-.12.07.03.15.1.17.16.09.24.15.5.24.85Zm17.81-2.2.31-.07c.14-.03.27-.05.4-.12.04-.02.04-.14.06-.21-.07-.02-.15-.06-.21-.04-.14.02-.26.09-.4.12-.26.07-.44-.1-.39-.36.07-.32.56-.51.92-.3l-.35.1c-.08.03-.17.03-.23.08-.05.04-.07.13-.1.2.07 0 .14.04.21.02.11-.02.22-.1.33-.11.13-.01.33-.01.39.07.07.1.07.3.02.42-.16.36-.6.45-.96.2Zm-.23-.01-.66.4.15.28c.3-.03.45-.38.75-.3l.05.09-.93.54-.58-1.04.93-.55c-.07.4-.43.38-.58.6l.1.19c.25 0 .4-.34.77-.21ZM91.67 58.6l.74.32c-.14.15-.58.03-1.02-.27l.03-.11.44-.97c.3.18.66.19.83.55l-.67-.25c-.06.16-.02.27.12.34l.39.19-.03.11-.67-.19-.15.28Zm11.02 1.08.49-.09c.06-.16-.19-.43.19-.5l.2 1.18-.25.02-.09-.48-.53.06c0 .13.02.26 0 .38-.01.06-.08.11-.12.16-.04-.05-.1-.09-.12-.14l-.12-1.04c.35-.03.23.28.35.45ZM90.11 56.7c.2.05.25.14.14.3-.1.13-.16.27-.24.4-.19.35-.4.4-.75.2s-.4-.41-.2-.75c.08-.14.16-.29.27-.42.04-.05.13-.06.2-.1 0 .08.03.18 0 .25l-.26.43c-.12.18-.07.3.1.42.18.13.3.04.39-.1l.35-.63Zm11.03 2.63.6-.04c.22 0 .36.11.39.33.03.22-.1.34-.3.39-.12.03-.26.03-.41.05v.28c-.02.07-.07.13-.1.2-.06-.06-.17-.12-.17-.18-.02-.32 0-.65 0-1.03Zm.23.61.5-.24c-.03-.06-.06-.16-.1-.16-.13-.03-.26-.01-.4-.01v.41Zm5.63-1.78c.23-.1.44-.21.66-.24.13-.01.33.1.4.22.12.19-.01.36-.19.47-.1.06-.22.1-.32.14-.07.19.23.44-.16.52l-.4-1.12Zm.27-.01.17.53.38-.44-.55-.09Zm-1.01 1.06.12.41c-.15.05-.27.12-.31-.13-.06-.3-.16-.58-.25-.87v-.08c.22-.06.44-.16.68-.18.11 0 .32.12.35.23.03.12-.06.32-.16.42-.1.1-.27.13-.43.2Zm.4-.44-.02-.1c-.08-.03-.19-.1-.25-.08-.1.03-.18.14-.27.21.06.06.14.17.18.16.13-.04.24-.12.35-.19Zm-15.42-.62c-.22.32-.48.28-.7.14-.22-.14-.4-.34-.3-.64.1-.34.34-.54.62-.52.33.02.56.23.6.63l-.24-.2c-.12-.08-.32-.25-.36-.23-.15.12-.3.29-.36.47-.03.08.12.25.22.35.04.04.15 0 .23 0h.29Zm5.81 1.75c-.28.38-.49.44-.8.3-.26-.1-.41-.3-.38-.6.05-.34.24-.54.53-.57.39-.03.56.07.69.47-.14-.07-.24-.09-.3-.15-.15-.17-.32-.2-.5-.06-.15.12-.2.52-.08.64.15.15.32.18.5.02.06-.05.18-.03.34-.05Zm2.01-.62.45.5c.2-.1.19-.52.54-.42l-.59 1.15c.02.01-.1-.04-.1-.06.09-.44-.25-.71-.39-1.06v-.03l.08-.08Zm-.26.22-.37-.03-.06.82c-.02.2-.1.24-.28.14l.09-.93c-.13-.05-.26-.1-.45-.2.44-.12 1.03-.01 1.08.2Zm-11.03-2.94c.44-.6.73-.87.87-.8l-.56.83.58.41c-.13.15-.49-.03-.9-.44Zm16.65 2.31c.07.3.15.53.18.78.03.2.12.24.3.18l.45-.1.04.16-.94.24c-.08-.38-.17-.74-.23-1.1 0-.04.11-.1.2-.16Zm3.8-1.23c.07.03.18.04.2.1.15.27.27.55.4.83.01.04-.03.12-.04.18-.07-.03-.18-.04-.2-.09-.15-.31-.27-.63-.4-.95l.04-.07Zm-2.62 2.19c-.1-.32-.2-.64-.28-.96-.01-.06.04-.14.06-.21.07.05.17.08.2.14.08.27.16.54.21.82.02.07-.06.16-.09.25l-.1-.04Zm-1.93-.76c.25-.11.27.05.3.21.1.59.07.9-.1.93l-.2-1.14Zm-6.45 1.26.17-1.14.1-.04c.03.08.12.16.11.24-.02.68-.13.94-.38.94ZM81.9 35.61c-.05.16-.1.3-.14.47l-.43-.1c.05-.36.24-.48.57-.37Zm5.73 19.83c.13.17.24.28.3.4.01.03-.15.2-.18.18a.91.91 0 0 1-.33-.25c-.02-.03.1-.17.2-.33Zm24.9.76c-.11-.16-.23-.27-.2-.32a.7.7 0 0 1 .27-.27c.02-.02.2.14.2.19-.04.12-.14.22-.27.4ZM100.5 30.04l.24.8-.1.04c-.05-.06-.1-.11-.12-.18-.05-.17-.1-.32-.33-.28a.19.19 0 0 1-.13-.07c-.1-.13-.2-.27-.3-.44-.18.22-.62.1-.5.6l-1.03-.61c.05-.1.1-.3.2-.46.12-.2.08-.3-.09-.36-.1.1-.19.16-.27.23l-.26-.45c-.23.07-.24-.09-.27-.3-.05-.38-.15-.74-.22-1.1-.04-.17-.05-.34-.08-.53h.38l-.09.3.5-.07v-.06c-.12-.28-.49-.54-.04-.87.09-.06.07-.28.08-.43 0-.2-.07-.23-.37-.14.07-.13.1-.25.16-.27.24-.1.25-.28.22-.47-.04-.32.14-.5.38-.65.08-.04.2-.07.27-.05.37.1.73.23 1.13.36l.1-.1-.15-.3c.17 0 .28 0 .37.03.06.03.14.14.13.2-.06.3-.16.58-.2.88-.02.18 0 .37.2.51.3.19.29.45.08.72-.1.13-.14.3-.24.44-.1.12-.22.24-.35.33-.13.08-.28.12-.5.21l.34.18-.48.55.05.05.3-.06c0 .08.04.17 0 .23-.15.28-.15.31.17.43l.17-.38.36.46c-.2.02-.34.02-.47.05-.08.02-.22.06-.23.12-.08.27.26.73.56.78l.17-.46-.06-.02.02-.01c.15.2.24.04.34-.06l.1-.1c.2.27.6.36.6.78 0 .02.07.07.1.06a.18.18 0 0 0 .09-.1v-.22c.27.05.52.07.76.14.08.02.14.14.22.2l-.07.1h-.6v.09c.18.06.14.55.61.2l-.06.42c.27.24.28.36.04.68-.02 0-.05 0-.06-.02-.09-.29-.3-.43-.59-.48-.05-.01-.14-.04-.14-.06 0-.43-.42-.53-.62-.79-.09-.1-.22-.18-.32-.27l-.1.06Zm2.47 6.16.26.33c.06-.22.1-.38.17-.52.01-.02.2.05.33.08l.07-.17c.1-.02.24 0 .27-.05.06-.07.09-.2.08-.3-.03-.18-.1-.34-.15-.56.5-.02.64.54 1.08.57-.12.27.34.58-.13.82.29.13.43.46.36.71-.02.07-.04.2-.01.22.21.16.15.37.17.59.02.28-.02.46-.3.55-.04.01-.06.1-.07.15l-.05.48-.32-.28.13-.17-.34-.66h-.06v.46l-.23.06.27 1.3-.45.26-.23-.4c-.09.03-.27.16-.37.11-.36-.17-.69-.41-1.03-.63.07-.33-.22-.67.08-1 .2-.24.03-.5-.28-.57-.15-.03-.29-.15-.44-.23l-.17.55-.34-.26-.3.38-.15-.54-.1-.04c-.11.16-.25.3-.35.47-.09.15-.14.32-.22.48a.51.51 0 0 1-.14.13c-.07-.06-.18-.17-.17-.19.24-.37.13-.91.57-1.2l.09-.03c.3-.04.62-.05.7-.46 0-.06.22-.08.36-.12-.02-.1-.28-.29 0-.36.18.1.34.18.46.3.13.12.22.29.38.52l.57-.78Zm-8.61 5.19-.5.7.08.07c.1-.09.22-.16.31-.27.07-.09.1-.21.17-.3.17-.25.36-.46.71-.43.23.01.46-.07.72-.06l-.37.3c-.05.03-.13.03-.18.07l-.22.28.07.09c.11-.05.23-.1.32-.17.16-.14.3-.32.47-.43.2-.12.44-.17.7-.21-.48.24-.54.73-.73 1.13-.2.43-.48.6-.93.6-.17 0-.34.14-.51.22-.07.03-.15.08-.22.08h-.82c-.29.03-.35-.14-.37-.36-.06-.44.16-.77.66-1.03.2-.1.38-.21.57-.32l.07.04Zm8.71-9.05-.18.05-.25-.73.04-.05c.27-.04.53-.09.8-.08.33 0 .6.4.6.74.02.35.1.7.16 1.06l-.66.21.1.3c.04.1.1.18.13.28.12.26.08.31-.22.33l-.02.44c-.25-.39-.46-.73-.26-1.17l-.35.05c-.2 0-.48.06-.2-.3.06-.07-.02-.25-.01-.39 0-.11.03-.23.07-.34 0-.02.13 0 .2.02.01 0 .03.1.02.12-.16.11-.05.19.05.2.06 0 .15-.08.19-.15.03-.05 0-.14-.02-.2-.05-.13-.12-.24-.2-.39Zm-6.89 10.88-.38.83c-.03.05-.14.08-.22.08h-2.34a.34.34 0 0 1-.25-.13c-.14-.24-.25-.5-.39-.78h3.58Zm5.49-8.62c.13-.22.28-.43.39-.66.11-.23.2-.48.32-.8 0 .45.01.8-.02 1.15 0 .09-.13.2-.22.24-.14.06-.2.11-.25.28-.1.37-.3.7-.49 1.04-.03.05-.23.07-.28.02-.22-.2-.43-.43-.63-.65-.17-.2-.07-.43.18-.46.3-.03.35-.16.29-.43a.68.68 0 0 1 .35-.8c.11-.06.3.02.45.08.02 0 .01.19-.02.28-.06.2-.14.41-.22.62l.16.09Zm-8.43 9.67h2.28l-.47.86a.22.22 0 0 1-.14.09c-.1.01-.19 0-.28 0-.54.08-.99 0-1.14-.63-.02-.1-.13-.18-.25-.32Zm8.12-11.29c-.12.16-.26.34-.37.52-.08.13-.13.28-.2.42l-.12.33c-.25-.35-.25-.35-.78-.08-.03-.18-.1-.36-.1-.54 0-.1.16-.2.18-.32.03-.26.22-.57-.15-.76-.02-.01 0-.1 0-.12l1.54.55Zm-7.26 3.59.44-.53c.2-.25.48-.42.71-.62.4-.34.65-.84 1.08-1.1.25-.16.32-.4.5-.59-.25-.22 0-.42.07-.7.07.4.15.72.2 1.05.01.05-.04.16-.07.16-.26.03-.37.2-.45.42-.01.02-.05.06-.07.05-.42 0-.48.33-.6.61-.07.14-.2.24-.33.34l-1.29.96-.1.04-.1-.09Zm3.8-6.23c.25.03.48.08.7.1.39.02.7.35.73.75.03.24.03.46-.13.64a.5.5 0 0 1-.27.15c-.05.01-.14-.08-.18-.15-.12-.23-.2-.49-.33-.71-.1-.17-.24-.33-.4-.42-.2-.12-.2-.22-.12-.36Zm4.23 4.92c-.1-.38.2-.55.41-.66.17-.09.43.01.65.03 0 .07.02.18-.02.23-.26.33-.63.39-1.04.4Z" fill="#D10000"/><path d="M101.61 31.63c.26.27.8.33.77.94-.2-.13-.35-.28-.53-.33-.17-.05-.37 0-.52.01l.18-1h.1v.38ZM95.9 42.74l.93-1.05.06.06c-.24.94-.47 1.17-.98.99Zm2.1-10.5-.55.39.03-.33h.07l-.18-.3.06-.08.56.32Zm1.88 6.3c.13.17.25.28.3.4.02.05-.15.16-.23.24-.08-.13-.18-.25-.23-.38-.02-.05.08-.14.15-.26ZM97.7 54.22l.56-.08c.1.24.23.44.53.37.25-.07.41-.43.4-.89-.15.06-.3.16-.45.18-.51.08-.88-.14-1.05-.66-.2-.62-.03-1.16.5-1.45a1.1 1.1 0 0 1 1.4.34c.34.44.37 2.14-.06 2.6-.35.37-.74.43-1.18.37-.4-.06-.58-.37-.66-.78Zm1.45-1.53c-.01-.06-.01-.23-.1-.33-.1-.12-.26-.25-.4-.25-.13 0-.3.15-.38.28-.06.1-.03.26-.03.4 0 .35.2.6.48.58.25 0 .43-.25.43-.68Zm3.04-1.09v1.73c-.02.3.02.5.42.41v.54l-.4.04c-.02.19-.02.39-.03.6h-.57l-.04-.62h-.95c-.14-.01-.39-.04-.4-.09-.02-.19-.02-.4.06-.58.09-.21.26-.4.4-.6l.77-1.15c.16-.23.4-.33.74-.29Zm-.62 1.06-.06-.02-.71 1.1h.77v-1.08Zm1.85 2.28c.08-1 .43-1.88 1.03-2.7h-1.46v-.6h2.15c.14.33-.05.55-.23.8a4.63 4.63 0 0 0-.88 2.5h-.6Zm-6.78-3.34v3.34h-.6v-2.4l-.8.47c-.15-.43-.11-.5.21-.71.2-.13.44-.27.55-.47.16-.3.36-.3.64-.23Zm14.14-.9.1.55c-.26-.04-.3-.2-.36-.4-.04-.2-.14-.37-.22-.55l-.1.01-.25.52-.25-.11.54-1.24.65.3c.2.1.43.22.35.47-.05.16-.26.26-.45.45Zm-.08-.3.26-.2c-.15-.12-.3-.24-.45-.33-.03-.01-.13.12-.19.18l.38.35Zm-2.19-1.62c.03.09.1.18.08.25-.12.37-.26.73-.4 1.09-.3-.01-.3-.25-.36-.45l-.2-.63-.3.82-.22-.08.39-1.3c.54.19.35.74.6 1.1l.3-.77c.04 0 .07-.02.11-.03Zm-16.78 1.35c-.25.22-.42.06-.59-.05-.16-.1-.31-.23-.49-.1-.11.22.34.48-.1.65-.19-.4-.36-.81-.54-1.24l.67-.26c.2-.08.41-.15.57.07.16.21.07.4-.11.55l.6.38Zm-1.21-.32c.15-.07.28-.1.38-.17.07-.04.1-.15.15-.22-.1-.04-.2-.11-.3-.1-.13.02-.25.1-.39.17l.16.31Zm-1.08-.12c.36 0 .67.32.67.74.01.35-.38.7-.79.7-.37 0-.7-.34-.71-.73 0-.36.4-.7.83-.71Zm-.09.24c-.24 0-.45.2-.44.44 0 .29.22.52.48.52.25 0 .44-.18.43-.43-.01-.3-.22-.54-.47-.53Zm15.45-2.13c.44 0 .79.3.8.69 0 .4-.33.74-.7.74-.44 0-.77-.3-.78-.67a.72.72 0 0 1 .68-.76Zm.48.7c0-.28-.14-.46-.4-.48-.25-.01-.44.2-.46.53-.02.26.15.44.42.45.27 0 .43-.18.44-.5Zm-5.93-.58c-.04.52-.13.78-.26.79v-1.32c.5.04.55.55.9.84 0-.25-.02-.46 0-.67 0-.07.09-.13.14-.2.04.07.12.14.12.2.02.38.01.76.01 1.18-.56-.05-.54-.62-.91-.82Zm-5.85.7c-.17 0-.3.03-.4 0-.25-.08-.55.03-.63.27-.07.22.14.6.37.66.24.06.46-.08.52-.36h-.34c-.02-.13.16-.24.53-.33 0 .22.26.41 0 .65-.29.27-.8.38-1.03.15a1.2 1.2 0 0 1-.32-.68c-.02-.27.19-.48.47-.57.29-.09.56-.12.84.21Zm1.86-.82c.25-.05.48-.1.72-.13.27-.02.51.16.58.43.12.43.04.68-.23.83-.61.34-.87.22-.96-.46l-.11-.68Zm.5 1.15c.22-.14.49-.21.53-.35a.74.74 0 0 0-.13-.6c-.09-.1-.35-.06-.59-.1l.2 1.05h-.01Zm4.74-.24v-1.3c.4 0 .8-.12 1.11.2.15.16.16.66.02.87-.3.45-.73.24-1.13.23Zm.33-1.06c-.02.17-.05.33-.05.5 0 .14-.13.36.16.39.23.02.43 0 .49-.3.08-.49-.06-.65-.6-.59Zm-6.38.32c.43 0 .69.26.7.72 0 .38-.33.67-.78.67-.41 0-.68-.28-.7-.74 0-.37.32-.65.78-.65Zm-.04 1.17c.25 0 .45-.2.45-.43 0-.29-.22-.56-.45-.56a.48.48 0 0 0-.45.44c0 .28.21.54.45.55Zm12.36-.82.25.05v.11l-.25.8c-.08.28-.28.34-.54.29-.28-.06-.58-.12-.56-.47.01-.31.1-.62.2-.92 0-.05.14-.06.3-.12l-.2.8c-.04.2-.06.42.2.49.28.07.34-.12.4-.33l.2-.7Zm-8.03.48c-.08-.05-.23-.07-.25-.14-.08-.27-.28-.2-.46-.2-.17 0-.3.05-.34.26 0 .06-.15.1-.24.15l-.05-.06c.13-.41.25-.83.39-1.24.02-.05.12-.1.18-.1.09 0 .21.05.25.11l.58 1.12-.06.1Zm-.72-1.07-.17.53h.42l-.25-.53Zm-3.2 12.29c-.05-.06-.16-.13-.15-.19.02-.25-.17-.26-.3-.32-.15-.07-.27-.08-.37.08-.03.04-.16.02-.25.04l-.02-.07.75-.86c.03-.04.14-.05.18-.03.07.04.16.12.16.19.04.37.06.74.08 1.1l-.08.07Zm-.22-1.11-.31.36.33.15c0-.17 0-.3-.02-.51Zm9.28-10.84c-.15-.06-.27-.08-.35-.15-.18-.16-.36-.22-.55-.04-.16.14-.2.6-.06.74.18.17.36.18.56 0 .05-.05.17-.03.33-.05-.27.4-.5.48-.83.35-.33-.13-.47-.39-.42-.78a.6.6 0 0 1 .52-.55c.42-.05.65.07.8.48Zm-15.83 3.72-.23.13-.65-1.14c.55-.41.84-.53 1.01-.37l-.32.19-.34.19.15.3.56-.3c.05.1-.1.26-.44.5l.26.5Zm23.48-.14-.27-.14c.37-.44.18-.92.13-1.4.44.07.29.45.39.71.27.03.5-.41.81-.07-.4.24-.93.31-1.06.9Zm-2.53-1.21c-.23 0-.27-.1-.2-.28l.17-.37c.12-.31.04-.53-.23-.67.12-.17.5-.07 1.16.29-.07.12-.23.12-.47.02l-.43 1.01Z" fill="#D10000"/></svg>