<svg xmlns="http://www.w3.org/2000/svg" width="124" height="30" fill="none"><g clip-path="url(#ajfwcfvb4)"><path stroke="url(#bjfwcfvb4)" stroke-width="4" d="M3.39 32.23c67.78-3.32 136.2 3.61 161.94 7.5l-8.02-29.54C108.57-2.26 28.65-1.46-5.22.5z" opacity=".2"/><path stroke="url(#cjfwcfvb4)" stroke-width="3" d="M3.39 32.23c67.78-3.32 136.2 3.61 161.94 7.5l-8.02-29.54C108.57-2.26 28.65-1.46-5.22.5z" opacity=".2"/><path stroke="url(#djfwcfvb4)" stroke-width="2" d="M3.39 32.23c67.78-3.32 136.2 3.61 161.94 7.5l-8.02-29.54C108.57-2.26 28.65-1.46-5.22.5z" opacity=".2"/><path stroke="url(#ejfwcfvb4)" d="M3.39 32.23c67.78-3.32 136.2 3.61 161.94 7.5l-8.02-29.54C108.57-2.26 28.65-1.46-5.22.5z" opacity=".2"/><path stroke="url(#fjfwcfvb4)" stroke-width="4" d="M-12.6 26.82c67.8-3.23 135.94 2.65 161.53 6l-4.26-15.7C96.36 6.27 16.5 7.32-17.39 9.2z" opacity=".2"/><path stroke="url(#gjfwcfvb4)" stroke-width="3" d="M-12.6 26.82c67.8-3.23 135.94 2.65 161.53 6l-4.26-15.7C96.36 6.27 16.5 7.32-17.39 9.2z" opacity=".2"/><path stroke="url(#hjfwcfvb4)" stroke-width="2" d="M-12.6 26.82c67.8-3.23 135.94 2.65 161.53 6l-4.26-15.7C96.36 6.27 16.5 7.32-17.39 9.2z" opacity=".2"/><path stroke="url(#ijfwcfvb4)" d="M-12.6 26.82c67.8-3.23 135.94 2.65 161.53 6l-4.26-15.7C96.36 6.27 16.5 7.32-17.39 9.2z" opacity=".2"/></g><defs><linearGradient id="bjfwcfvb4" x1="150.4" x2="30.23" y1="17.41" y2="50.02" gradientUnits="userSpaceOnUse"><stop stop-color="#4DCF4B"/><stop offset="1" stop-color="#FFA031" stop-opacity="0"/></linearGradient><linearGradient id="cjfwcfvb4" x1="150.4" x2="30.23" y1="17.41" y2="50.02" gradientUnits="userSpaceOnUse"><stop stop-color="#4DCF4B"/><stop offset="1" stop-color="#FFA031" stop-opacity="0"/></linearGradient><linearGradient id="djfwcfvb4" x1="150.4" x2="30.23" y1="17.41" y2="50.02" gradientUnits="userSpaceOnUse"><stop stop-color="#4DCF4B"/><stop offset="1" stop-color="#FFA031" stop-opacity="0"/></linearGradient><linearGradient id="ejfwcfvb4" x1="150.4" x2="30.23" y1="17.41" y2="50.02" gradientUnits="userSpaceOnUse"><stop stop-color="#4DCF4B"/><stop offset="1" stop-color="#FFA031" stop-opacity="0"/></linearGradient><linearGradient id="fjfwcfvb4" x1="135.41" x2="16.13" y1="18.33" y2="50.7" gradientUnits="userSpaceOnUse"><stop stop-color="#FFA031" stop-opacity="0"/><stop offset="1" stop-color="#4DCF4B"/></linearGradient><linearGradient id="gjfwcfvb4" x1="135.41" x2="16.13" y1="18.33" y2="50.7" gradientUnits="userSpaceOnUse"><stop stop-color="#FFA031" stop-opacity="0"/><stop offset="1" stop-color="#4DCF4B"/></linearGradient><linearGradient id="hjfwcfvb4" x1="135.41" x2="16.13" y1="18.33" y2="50.7" gradientUnits="userSpaceOnUse"><stop stop-color="#FFA031" stop-opacity="0"/><stop offset="1" stop-color="#4DCF4B"/></linearGradient><linearGradient id="ijfwcfvb4" x1="135.41" x2="16.13" y1="18.33" y2="50.7" gradientUnits="userSpaceOnUse"><stop stop-color="#FFA031" stop-opacity="0"/><stop offset="1" stop-color="#4DCF4B"/></linearGradient></defs></svg>