<svg xmlns="http://www.w3.org/2000/svg" width="612" height="425" fill="none" viewBox="0 0 612 425"><g clip-path="url(#atmvfsuzd)"><path fill="#000" d="M0 0h612v425H0z"/><g clip-path="url(#btmvfsuzd)"><path stroke="#651fff" stroke-width="2" d="m-1367 455.83 9.85-14.87 9.85 6.08c2.39 6.3 9.28 18.65 9.85 17.57s8.18-8.56 9.85-12.17l9.85 22.99 9.85 6.08 9.85-3.38 9.85 14.87 9.85-21.63 9.85-15.55 9.85-14.87 9.85-10.81h9.85l9.85 4.73 9.85-4.73 9.85-11.49h9.85l9.85-2.7 9.85 2.7 9.85 8.79 9.85-13.52h9.85l9.85 6.08 9.85-12.17 9.85-8.78 9.85 2.03 9.85 12.84 9.85-9.47 9.85 3.38 9.85-10.13 9.85 5.4 9.85-5.4 9.85 8.78 9.85-14.87 9.85-4.05h9.85l9.85 4.05 9.85-2.7 9.85-5.4 9.85 4.05 9.85-13.52 9.85 29.06 9.85 33.12 9.85-24.33 9.85-8.79 9.85 7.44 9.85 1.35 9.85-25.68 9.85 18.25 9.85 3.38 9.85-24.34 9.85-2.7 9.85-5.4h9.85l9.85 32.44 9.85-13.52 9.85 5.4 9.85-5.4 9.85-8.11h9.85l9.85 9.46 9.85-21.63 9.85-1.35 9.85-10.82 9.85-18.92 9.85 2.7 9.85 10.82 9.85-5.41 9.85-5.4 9.85 7.43 9.85 6.08 9.85-1.35 9.85 2.7 9.85-9.46 9.85 6.76 9.85-16.9 9.85-1.35 9.85 16.9 9.85-5.41 9.85-18.93 9.85 1.36 9.85 6.08 9.85-18.93 9.85-16.9 9.85 6.76 9.85-9.46 9.85-10.14 9.85 2.03 9.85-10.81h9.85l9.85-16.9 9.85 19.6h9.85l9.85-37.18 9.85-7.43h9.85l9.85-8.11 9.85-6.76h9.85l9.85-6.76 9.85 6.76 9.85-12.17 9.85-2.7 9.85 10.81 9.85 8.11 9.85-16.22 9.85 5.41 9.85-8.11h9.85l9.85 14.87 9.85 10.14 9.85-16.9 9.85-18.93 9.85 13.52 9.85-13.52 9.85-5.4 9.85-22.98 9.85 3.38h9.85l9.85-12.85 9.85-2.03 9.85-16.9h9.85l9.85-13.51 9.85-16.9 9.85 8.79 9.85-7.44 9.85 3.38 9.85-34.47h9.85l9.85-22.3 9.85 13.51 9.85 5.41 9.85-23.66 9.85 8.12 9.85-8.12 9.85 4.74L-7.7 88.8l9.85-49.34L12 42.84l9.85 43.94 9.85 2.02 9.85-33.12 9.85-19.6 9.85 16.9 9.85-4.73 9.85 7.43L90.8 30l9.85 9.46 9.85-1.35 9.85 17.57 9.85-16.22 9.85 26.36 9.85 81.11 9.85-14.2 9.85 60.84 9.85 1.35 9.85-79.75 9.85 31.76 9.85-44.6 9.85 32.44 9.85 12.16 9.85 52.72 9.85-44.6 9.85 33.11 9.85 53.4 9.85-39.2 9.85 74.35 9.85-20.28 9.85 16.22 9.85 6.09 9.85 45.96 9.85 13.52 9.85-65.57 9.85 1.35 9.85-34.47 9.85 27.04 9.85-18.93 9.85 6.76 9.85 35.15 9.85-10.81 9.85 10.81 9.85-64.89 9.85 10.14 9.85-20.28 9.85-12.16 9.85-50.7 9.85 5.41 9.85-5.4 9.85 58.12 9.85-25.68 9.85 2.03 9.85-22.3 9.85-2.71 9.85 14.2 9.85-45.3 9.85 13.52 9.85-34.47 9.85 14.22 9.85 64.26"/><path fill="url(#ctmvfsuzd)" fill-opacity=".2" d="m-1357.15 441.33-9.85 14.88V615H603V186.82l-9.85-63.43-9.85-14.24-9.85 34.5-9.85-13.52-9.85 45.32-9.85-14.2-9.85 2.7-9.85 22.33-9.85-2.03-9.85 25.7-9.85-58.18-9.85 5.42-9.85-5.42-9.85 50.74-9.85 12.18-9.85 20.3-9.85-10.15-9.85 64.95-9.85-10.83L406 289.8l-9.85-35.18-9.85-6.77-9.85 18.94-9.85-27.06-9.85 34.5-9.85-1.35-9.85 65.63-9.85-13.54-9.85-46-9.85-6.09-9.85-16.24-9.85 20.3-9.85-74.42-9.85 39.24-9.85-53.44-9.85-33.15-9.85 44.65-9.85-52.77-9.85-12.18L209 102.4l-9.85 44.65-9.85-31.8-9.85 79.83-9.85-1.35-9.85-60.89-9.85 14.2-9.85-81.17-9.85-26.39-9.85 16.24-9.85-17.6-9.85 1.36L90.8 30l-9.85 25.7-9.85-7.43L61.25 53 51.4 36.1 41.55 55.7 31.7 88.86l-9.85-2.03L12 42.85l-9.85-3.38-9.85 49.39-9.85-28.42-9.85-4.73-9.85 8.12-9.85-8.12-9.85 23.68-9.85-5.42-9.85-13.53-9.85 22.33h-9.85l-9.85 34.5-9.85-3.38-9.85 7.44-9.85-8.8-9.85 16.92-9.85 13.53h-9.85l-9.85 16.91-9.85 2.03-9.85 12.86h-9.85l-9.85-3.39-9.85 23-9.85 5.42-9.85 13.53-9.85-13.53-9.85 18.94-9.85 16.91-9.85-10.15-9.85-14.88h-9.85l-9.85 8.12-9.85-5.41-9.85 16.23-9.85-8.11-9.85-10.83-9.85 2.7-9.85 12.18-9.85-6.76-9.85 6.76h-9.85l-9.85 6.77-9.85 8.12h-9.85l-9.85 7.44-9.85 37.2h-9.85l-9.85-19.61-9.85 16.91h-9.85l-9.85 10.83-9.85-2.03-9.85 10.15-9.85 9.47-9.85-6.77-9.85 16.91-9.85 18.95-9.85-6.1-9.85-1.34-9.85 18.94-9.85 5.41-9.85-16.91-9.85 1.35-9.85 16.91-9.85-6.76-9.85 9.47-9.85-2.7-9.85 1.35-9.85-6.1-9.85-7.43-9.85 5.4-9.85 5.42-9.85-10.82-9.85-2.71-9.85 18.94-9.85 10.83-9.85 1.35-9.85 21.65-9.85-9.47h-9.85l-9.85 8.12-9.85 5.4-9.85-5.4-9.85 13.53-9.85-32.48h-9.85l-9.85 5.42-9.85 2.7-9.85 24.36-9.85-3.39-9.85-18.26-9.85 25.7-9.85-1.35-9.85-7.44-9.85 8.8-9.85 24.35-9.85-33.15-9.85-29.09-9.85 13.53-9.85-4.06-9.85 5.41-9.85 2.71-9.85-4.06h-9.85l-9.85 4.06-9.85 14.88-9.85-8.8-9.85 5.42-9.85-5.41-9.85 10.15-9.85-3.39-9.85 9.47-9.85-12.85-9.85-2.03-9.85 8.8-9.85 12.17-9.85-6.09h-9.85l-9.85 13.54-9.85-8.8-9.85-2.7-9.85 2.7h-9.85l-9.85 11.5-9.85 4.74-9.85-4.74h-9.85l-9.85 10.83-9.85 14.88-9.85 15.56-9.85 21.65-9.85-14.88-9.85 3.38-9.85-6.1-9.85-23c-1.67 3.62-9.28 11.1-9.85 12.19s-7.46-11.28-9.85-17.6z"/><path stroke="#ffa726" stroke-width="2" d="m-1135 457.83 9.85-14.87 9.85 6.08c2.39 6.3 9.28 18.65 9.85 17.57s8.18-8.56 9.85-12.17l9.85 22.99 9.85 6.08 9.85-3.38 9.85 14.87 9.85-21.63 9.85-15.55 9.85-14.87 9.85-10.81h9.85l9.85 4.73 9.85-4.73 9.85-11.49h9.85l9.85-2.7 9.85 2.7 9.85 8.79 9.85-13.52h9.85l9.85 6.08 9.85-12.17 9.85-8.78 9.85 2.03 9.85 12.84 9.85-9.47 9.85 3.38 9.85-10.13 9.85 5.4 9.85-5.4 9.85 8.78 9.85-14.87 9.85-4.05h9.85l9.85 4.05 9.85-2.7 9.85-5.4 9.85 4.05 9.85-13.52 9.85 29.06 9.85 33.12 9.85-24.33 9.85-8.79 9.85 7.44 9.85 1.35 9.85-25.68 9.85 18.25 9.85 3.38 9.85-24.34 9.85-2.7 9.85-5.4h9.85l9.85 32.44 9.85-13.52 9.85 5.4 9.85-5.4 9.85-8.11h9.85l9.85 9.46 9.85-21.63 9.85-1.35 9.85-10.82 9.85-18.92 9.85 2.7 9.85 10.82 9.85-5.41 9.85-5.4 9.85 7.43 9.85 6.08 9.85-1.35 9.85 2.7 9.85-9.46 9.85 6.76 9.85-16.9 9.85-1.35 9.85 16.9 9.85-5.41 9.85-18.93 9.85 1.36 9.85 6.08 9.85-18.93 9.85-16.9 9.85 6.76 9.85-9.46 9.85-10.14 9.85 2.03 9.85-10.81h9.85l9.85-16.9 9.85 19.6h9.85l9.85-37.18 9.85-7.43h9.85l9.85-8.11 9.85-6.76h9.85l9.85-6.76 9.85 6.76 9.85-12.17 9.85-2.7 9.85 10.81 9.85 8.11 9.85-16.22 9.85 5.41 9.85-8.11h9.85l9.85 14.87 9.85 10.14 9.85-16.9 9.85-18.93 9.85 13.52 9.85-13.52 9.85-5.4 9.85-22.98 9.85 3.38h9.85L47 163.8l9.85-2.03 9.85-16.9h9.85l9.85-13.51 9.85-16.9 9.85 8.79 9.85-7.44 9.85 3.38 9.85-34.47h9.85l9.85-22.3 9.85 13.51 9.85 5.41 9.85-23.66 9.85 8.12 9.85-8.12 9.85 4.74 9.85 28.38 9.85-49.34 9.85 3.38 9.85 43.94 9.85 2.02 9.85-33.12 9.85-19.6 9.85 16.9 9.85-4.73 9.85 7.43L322.8 32l9.85 9.46 9.85-1.35 9.85 17.57 9.85-16.22 9.85 26.36 9.85 81.11 9.85-14.2 9.85 60.84 9.85 1.35 9.85-79.75 9.85 31.76 9.85-44.6 9.85 32.44 9.85 12.16 9.85 52.72 9.85-44.6 9.85 33.11 9.85 53.4 9.85-39.2 9.85 74.35 9.85-20.28 9.85 16.22 9.85 6.09 9.85 45.96 9.85 13.52 9.85-65.57 9.85 1.35 9.85-34.47 9.85 27.04 9.85-18.93 9.85 6.76 9.85 35.15 9.85-10.81 9.85 10.81 9.85-64.89 9.85 10.14 9.85-20.28 9.85-12.16 9.85-50.7 9.85 5.41 9.85-5.4 9.85 58.12 9.85-25.68 9.85 2.03 9.85-22.3 9.85-2.71 9.85 14.2 9.85-45.3 9.85 13.52 9.85-34.47 9.85 14.22 9.85 64.26"/><path fill="url(#dtmvfsuzd)" fill-opacity=".2" d="m-1125.15 443.33-9.85 14.88V617H835V188.82l-9.85-63.43-9.85-14.24-9.85 34.5-9.85-13.52-9.85 45.32-9.85-14.2-9.85 2.7-9.85 22.33-9.85-2.03-9.85 25.7-9.85-58.18-9.85 5.42-9.85-5.42-9.85 50.74-9.85 12.18-9.85 20.3-9.85-10.15-9.85 64.95-9.85-10.83L638 291.8l-9.85-35.18-9.85-6.77-9.85 18.94-9.85-27.06-9.85 34.5-9.85-1.35-9.85 65.63-9.85-13.54-9.85-46-9.85-6.09-9.85-16.24-9.85 20.3-9.85-74.42-9.85 39.24-9.85-53.44-9.85-33.15-9.85 44.65-9.85-52.77-9.85-12.18L441 104.4l-9.85 44.65-9.85-31.8-9.85 79.83-9.85-1.35-9.85-60.89-9.85 14.2-9.85-81.17-9.85-26.39-9.85 16.24-9.85-17.6-9.85 1.36L322.8 32l-9.85 25.7-9.85-7.43-9.85 4.73-9.85-16.91-9.85 19.62-9.85 33.15-9.85-2.03L244 44.85l-9.85-3.38-9.85 49.39-9.85-28.42-9.85-4.73-9.85 8.12-9.85-8.12-9.85 23.68-9.85-5.42-9.85-13.53-9.85 22.33h-9.85l-9.85 34.5-9.85-3.38-9.85 7.44-9.85-8.8-9.85 16.92-9.85 13.53H66.7l-9.85 16.91-9.85 2.03-9.85 12.86H27.3l-9.85-3.39-9.85 23-9.85 5.42-9.85 13.53-9.85-13.53-9.85 18.94-9.85 16.91-9.85-10.15-9.85-14.88h-9.85l-9.85 8.12-9.85-5.41-9.85 16.23-9.85-8.11-9.85-10.83-9.85 2.7-9.85 12.18-9.85-6.76-9.85 6.76h-9.85l-9.85 6.77-9.85 8.12h-9.85l-9.85 7.44-9.85 37.2h-9.85l-9.85-19.61-9.85 16.91h-9.85l-9.85 10.83-9.85-2.03-9.85 10.15-9.85 9.47-9.85-6.77-9.85 16.91-9.85 18.95-9.85-6.1-9.85-1.34-9.85 18.94-9.85 5.41-9.85-16.91-9.85 1.35-9.85 16.91-9.85-6.76-9.85 9.47-9.85-2.7-9.85 1.35-9.85-6.1-9.85-7.43-9.85 5.4-9.85 5.42-9.85-10.82-9.85-2.71-9.85 18.94-9.85 10.83-9.85 1.35-9.85 21.65-9.85-9.47h-9.85l-9.85 8.12-9.85 5.4-9.85-5.4-9.85 13.53-9.85-32.48h-9.85l-9.85 5.42-9.85 2.7-9.85 24.36-9.85-3.39-9.85-18.26-9.85 25.7-9.85-1.35-9.85-7.44-9.85 8.8-9.85 24.35-9.85-33.15-9.85-29.09-9.85 13.53-9.85-4.06-9.85 5.41-9.85 2.71-9.85-4.06h-9.85l-9.85 4.06-9.85 14.88-9.85-8.8-9.85 5.42-9.85-5.41-9.85 10.15-9.85-3.39-9.85 9.47-9.85-12.85-9.85-2.03-9.85 8.8-9.85 12.17-9.85-6.09h-9.85L-938 429.8l-9.85-8.8-9.85-2.7-9.85 2.7h-9.85l-9.85 11.5-9.85 4.74-9.85-4.74h-9.85l-9.85 10.83-9.85 14.88-9.85 15.56-9.85 21.65-9.85-14.88-9.85 3.38-9.85-6.1-9.85-23c-1.67 3.62-9.28 11.1-9.85 12.19s-7.46-11.28-9.85-17.6z"/><g filter="url(#etmvfsuzd)"><path fill="url(#ftmvfsuzd)" d="M113 15c0-8.28 7.16-15 16-15h467c8.84 0 16 6.72 16 15v409H113z"/><path stroke="url(#gtmvfsuzd)" stroke-opacity=".2" stroke-width="2" d="M129 1h467c8.35 0 15 6.33 15 14v408H114V15c0-7.67 6.66-14 15-14Z"/></g><path fill="#dbdbdb" d="M145.9 47.32q-2.42 0-4.2-1.07a7 7 0 0 1-2.74-3.04 10.6 10.6 0 0 1-.96-4.67v-.01q0-2.7.96-4.67a7 7 0 0 1 2.74-3.02 8 8 0 0 1 4.2-1.07q1.94 0 3.47.75a6.46 6.46 0 0 1 3.72 5.12l.01.12h-2.96l-.06-.2a4 4 0 0 0-.81-1.67 4 4 0 0 0-1.42-1.1 5 5 0 0 0-1.95-.4 4.4 4.4 0 0 0-4.24 2.88q-.58 1.37-.58 3.26 0 1.9.58 3.28.6 1.39 1.7 2.14 1.08.75 2.55.75 1.08 0 1.92-.37a4 4 0 0 0 1.44-1.1 4.5 4.5 0 0 0 .84-1.75l.03-.1h2.96l-.01.11a6.3 6.3 0 0 1-1.18 3.04 6.6 6.6 0 0 1-2.52 2.05q-1.55.74-3.5.74M155.35 47V34.5h2.9v2.12h.1q.3-1.1 1.06-1.73.75-.63 1.87-.63a4 4 0 0 1 .97.12v2.64q-.2-.09-.53-.12a5 5 0 0 0-.7-.05q-.85 0-1.47.34-.63.34-.96 1-.33.64-.33 1.56V47zM168.98 47.25a6.3 6.3 0 0 1-3.2-.79 5.2 5.2 0 0 1-2.08-2.24 8 8 0 0 1-.72-3.43v-.01q0-1.98.73-3.44a5.4 5.4 0 0 1 5.13-3.09q1.8 0 3.09.79a5 5 0 0 1 1.99 2.2q.7 1.4.7 3.3v.93h-10.2v-1.95h8.8l-1.4 1.82v-1.13q0-1.23-.38-2.03-.38-.82-1.04-1.23a3 3 0 0 0-1.52-.41q-.87 0-1.55.42-.67.43-1.07 1.24a5 5 0 0 0-.38 2.01v1.14q0 1.13.38 1.95.4.8 1.1 1.24a3 3 0 0 0 1.68.43q.74 0 1.3-.22.55-.23.9-.59.37-.37.5-.76l.03-.08h2.73l-.02.13q-.16.7-.57 1.37-.42.68-1.1 1.23t-1.65.88-2.18.32M180.4 47.21q-1.25 0-2.18-.47a3.7 3.7 0 0 1-1.47-1.32 3.7 3.7 0 0 1-.52-1.97v-.02q0-1.12.55-1.91a3.7 3.7 0 0 1 1.62-1.27q1.05-.47 2.56-.56l4.76-.28v1.92l-4.34.28q-1.1.05-1.68.5t-.58 1.2v.02q0 .77.59 1.2.6.45 1.56.45a3 3 0 0 0 1.5-.34q.67-.33 1.06-.92t.39-1.34v-3.8q0-.93-.6-1.46-.59-.54-1.71-.54a3 3 0 0 0-1.65.42q-.63.41-.79 1.1l-.02.09h-2.7v-.13a4 4 0 0 1 .75-1.96 4.4 4.4 0 0 1 1.8-1.35 7 7 0 0 1 2.72-.5q1.58 0 2.72.52 1.14.5 1.76 1.45.64.94.64 2.2V47h-2.92v-1.89h-.08q-.36.64-.93 1.13a4.2 4.2 0 0 1-2.81.97M194.44 47.21q-1.99 0-2.94-.83-.94-.84-.94-2.76v-6.86h-1.8V34.5h1.8v-3.15h2.97v3.15h2.37v2.25h-2.37v6.55q0 .93.4 1.29.39.35 1.21.35a6 6 0 0 0 .76-.05v2.2a9 9 0 0 1-1.46.11M203.38 47.25a6.3 6.3 0 0 1-3.2-.79 5.2 5.2 0 0 1-2.08-2.24 8 8 0 0 1-.72-3.43v-.01q0-1.98.73-3.44a5.4 5.4 0 0 1 5.13-3.09q1.8 0 3.08.79a5 5 0 0 1 2 2.2q.7 1.4.7 3.3v.93h-10.2v-1.95h8.8l-1.4 1.82v-1.13q0-1.23-.38-2.03-.38-.82-1.04-1.23a3 3 0 0 0-1.52-.41q-.87 0-1.55.42-.67.43-1.07 1.24a5 5 0 0 0-.38 2.01v1.14q0 1.13.38 1.95.38.8 1.1 1.24a3 3 0 0 0 1.68.43q.74 0 1.29-.22.57-.23.91-.59.37-.37.5-.76l.03-.08h2.73l-.02.13q-.16.7-.58 1.37-.4.68-1.1 1.23-.68.55-1.64.88a7 7 0 0 1-2.18.32M219.97 47.21q-1.25 0-2.18-.47a3.7 3.7 0 0 1-1.47-1.32 3.7 3.7 0 0 1-.53-1.97v-.02q0-1.12.56-1.91a3.7 3.7 0 0 1 1.61-1.27q1.07-.47 2.57-.56l4.76-.28v1.92l-4.34.28q-1.1.05-1.69.5-.57.45-.57 1.2v.02q0 .77.59 1.2.6.45 1.55.45.85.01 1.52-.34.67-.33 1.05-.92.39-.6.39-1.34v-3.8q0-.93-.6-1.46-.6-.54-1.71-.54a3 3 0 0 0-1.65.42q-.63.41-.79 1.1l-.02.09h-2.7v-.13a4 4 0 0 1 .75-1.96 4.4 4.4 0 0 1 1.8-1.35 7 7 0 0 1 2.71-.5q1.59 0 2.72.52 1.16.5 1.77 1.45.63.94.64 2.2V47h-2.92v-1.89h-.08q-.36.64-.93 1.13a4.2 4.2 0 0 1-2.81.97M229.41 47V29.94h2.92V47zM240.56 47.25a6.3 6.3 0 0 1-3.21-.79 5.2 5.2 0 0 1-2.08-2.24 8 8 0 0 1-.71-3.43v-.01q0-1.98.73-3.44a5.4 5.4 0 0 1 5.13-3.09q1.8 0 3.08.79a5 5 0 0 1 2 2.2q.7 1.4.7 3.3v.93H236v-1.95h8.8l-1.4 1.82v-1.13q0-1.23-.38-2.03-.38-.82-1.04-1.23a3 3 0 0 0-1.53-.41q-.86 0-1.54.42-.69.43-1.07 1.24a5 5 0 0 0-.39 2.01v1.14q0 1.13.4 1.95.38.8 1.08 1.24.72.43 1.69.43.74 0 1.29-.22.56-.23.91-.59.35-.37.5-.76l.03-.08h2.73l-.02.13q-.16.7-.58 1.37-.4.68-1.1 1.23-.68.55-1.64.88t-2.18.32M248.33 47V34.5h2.9v2.12h.1q.3-1.1 1.05-1.73.77-.63 1.88-.63a4 4 0 0 1 .97.12v2.64q-.21-.09-.54-.12a5 5 0 0 0-.69-.05q-.86 0-1.47.34-.63.34-.97 1a3.4 3.4 0 0 0-.32 1.56V47zM262.1 47.21q-1.99 0-2.94-.83-.94-.84-.94-2.76v-6.86h-1.8V34.5h1.8v-3.15h2.97v3.15h2.38v2.25h-2.38v6.55q0 .93.4 1.29.4.35 1.22.35a6 6 0 0 0 .76-.05v2.2a8 8 0 0 1-1.47.11M276.47 47.25q-1.85 0-3.21-.78a5.4 5.4 0 0 1-2.1-2.24 8 8 0 0 1-.74-3.48v-.02q0-2 .75-3.46.75-1.45 2.11-2.23 1.37-.8 3.18-.79 1.83 0 3.19.79 1.35.78 2.1 2.23t.76 3.46v.02a7.5 7.5 0 0 1-.75 3.48 5.3 5.3 0 0 1-2.1 2.24 6.3 6.3 0 0 1-3.19.78m0-2.36q.95 0 1.63-.48.67-.5 1.05-1.42t.38-2.24v-.02q0-1.3-.37-2.21a3 3 0 0 0-1.07-1.41q-.69-.5-1.63-.5t-1.62.5q-.69.48-1.06 1.4t-.38 2.22v.02q0 1.32.38 2.24.37.94 1.06 1.42t1.63.48M284.64 47V34.5h2.9v1.95h.1q.48-1 1.43-1.6t2.36-.6q2.06 0 3.18 1.24a5 5 0 0 1 1.13 3.42V47h-2.92v-7.48q0-1.36-.62-2.08-.62-.73-1.89-.73-.84 0-1.46.39-.63.38-.96 1.05-.34.69-.34 1.6V47zM302.6 47l6.03-16.91h2.55v3.04h-.9L305.76 47zm3.05-4.37.8-2.33h7.75l.8 2.33zM314.9 47l-4.52-13.87v-3.04h1.65L318.07 47zM318.95 47l6.03-16.91h2.54v3.04h-.89L322.11 47zm3.05-4.37.8-2.33h7.75l.8 2.33zm9.25 4.37-4.52-13.87v-3.04h1.65L334.42 47zM337.99 41.41v-2.44h4.3q1.65 0 2.53-.83.9-.84.9-2.37v-.02q0-1.53-.9-2.37-.9-.83-2.53-.83H338V30.1h5.05q1.71 0 3 .7a5 5 0 0 1 2.03 1.98q.73 1.27.73 2.97v.02q0 1.7-.73 2.97a5 5 0 0 1-2.03 1.98q-1.29.7-3 .7zm-1.5 5.59V30.09h3.01V47zM351.27 47V30.09h3.01v14.37h7.69V47z"/><path fill="#132042" d="M247 235a8 8 0 0 1 8-8h141a8 8 0 0 1 8 8v22a8 8 0 0 1-8 8H255a8 8 0 0 1-8-8z"/><path fill="#5b9cf6" d="M267 237v8h8v1h-8v8h-1v-8h-8v-1h8v-8zM284.59 252l4.68-12.68h1.2v2.04h-.49L286.26 252zm2.12-3.63.49-1.34h5.73l.5 1.34zm7.13 3.63-3.72-10.64v-2.04h.7l4.69 12.68zM300.03 252.17a3.6 3.6 0 0 1-3.47-2.31 6 6 0 0 1-.5-2.58v-.02q0-1.49.5-2.58.5-1.1 1.38-1.7.9-.6 2.09-.6a3.5 3.5 0 0 1 2.25.78q.45.36.7.88h.14v-5.25h1.53V252h-1.53v-1.51h-.14q-.29.52-.73.9-.43.37-1 .58-.56.2-1.22.2m.35-1.36a2.5 2.5 0 0 0 2.44-1.65q.33-.8.34-1.88v-.02q0-1.1-.34-1.88a2.51 2.51 0 0 0-2.44-1.65 2.5 2.5 0 0 0-2.43 1.64 5 5 0 0 0-.32 1.9v.01q0 1.1.32 1.89.34.79.95 1.22.62.42 1.48.42M310.58 252.17a3.6 3.6 0 0 1-3.47-2.31 6 6 0 0 1-.49-2.58v-.02q0-1.49.5-2.58.48-1.1 1.37-1.7t2.1-.6a3.5 3.5 0 0 1 2.24.78q.45.36.7.88h.15v-5.25h1.53V252h-1.53v-1.51h-.14q-.3.52-.73.9-.45.37-1 .58-.57.2-1.23.2m.36-1.36a2.5 2.5 0 0 0 2.43-1.65q.34-.8.34-1.88v-.02q0-1.1-.34-1.88a2.51 2.51 0 0 0-2.44-1.65 2.5 2.5 0 0 0-2.42 1.64 5 5 0 0 0-.33 1.9v.01q0 1.1.33 1.89t.95 1.22q.6.42 1.48.42M326.08 252.17q-1.32 0-2.3-.6a4 4 0 0 1-1.51-1.72 6 6 0 0 1-.54-2.6v-.02q0-1.48.53-2.57a4 4 0 0 1 3.8-2.28q1.16 0 2 .4a3.5 3.5 0 0 1 1.97 2.61v.05h-1.51l-.01-.02a2.2 2.2 0 0 0-.8-1.2q-.62-.5-1.64-.5a2.5 2.5 0 0 0-2.44 1.65 5 5 0 0 0-.33 1.86v.02q0 1.08.34 1.88t.97 1.24q.62.45 1.46.44.95 0 1.56-.41.6-.42.87-1.2l.02-.06 1.51-.01-.02.1a4 4 0 0 1-.68 1.51q-.5.68-1.3 1.05-.82.38-1.95.38M335.68 252.17q-1.34 0-2.32-.6a4 4 0 0 1-1.51-1.69 6 6 0 0 1-.53-2.6v-.02q0-1.52.53-2.6.53-1.1 1.5-1.7 1-.58 2.33-.58 1.35 0 2.33.59.97.58 1.5 1.68.54 1.1.54 2.61v.02q0 1.5-.54 2.61a3.9 3.9 0 0 1-3.83 2.28m0-1.36q.9 0 1.52-.42.63-.42.95-1.2a5 5 0 0 0 .33-1.91v-.02q0-1.13-.33-1.91a2.6 2.6 0 0 0-.95-1.2 2.7 2.7 0 0 0-1.52-.42q-.9 0-1.51.41-.63.42-.96 1.2a5 5 0 0 0-.32 1.92v.02q0 1.12.32 1.9.33.8.96 1.21.62.42 1.51.42M341.93 252v-9.46h1.53v1.42h.13q.35-.75 1.04-1.16a3.3 3.3 0 0 1 1.73-.42q1.59 0 2.44.91.86.9.86 2.58V252h-1.53v-5.76q0-1.28-.54-1.9-.54-.6-1.67-.61-.75 0-1.3.33-.56.32-.87.92-.3.59-.3 1.42v5.6zM355.43 252.17a3.6 3.6 0 0 1-3.48-2.31 6 6 0 0 1-.49-2.58v-.02q0-1.49.5-2.58.48-1.1 1.37-1.7t2.1-.6a3.5 3.5 0 0 1 2.25.78q.45.36.7.88h.14v-5.25h1.53V252h-1.53v-1.51h-.14q-.3.52-.73.9-.45.37-1 .58-.56.2-1.22.2m.35-1.36a2.5 2.5 0 0 0 2.43-1.65q.34-.8.34-1.88v-.02q0-1.1-.34-1.88a2.5 2.5 0 0 0-2.43-1.65 2.5 2.5 0 0 0-2.43 1.64 5 5 0 0 0-.32 1.9v.01q0 1.1.32 1.89.33.79.95 1.22t1.48.42M362.53 252v-9.46h1.52V252zm.77-11.28a1 1 0 0 1-.74-.3q-.3-.32-.3-.74 0-.44.3-.75a1 1 0 0 1 .74-.3q.44 0 .75.3.3.3.3.75 0 .42-.3.74-.31.3-.75.3M369.8 252.08q-1.45 0-2.1-.59-.66-.6-.66-1.94v-5.74h-1.49v-1.27h1.5v-2.45h1.57v2.45h2.06v1.27h-2.06v5.37q0 .82.32 1.19.31.35 1.05.36a6 6 0 0 0 .69-.04v1.3a9 9 0 0 1-.88.09M372.52 252v-9.46h1.53V252zm.78-11.28a1 1 0 0 1-.74-.3q-.3-.32-.3-.74 0-.44.3-.75a1 1 0 0 1 .74-.3q.44 0 .74.3t.31.75q0 .42-.3.74-.31.3-.75.3M380.34 252.17q-1.35 0-2.32-.6a4 4 0 0 1-1.52-1.69 6 6 0 0 1-.52-2.6v-.02q0-1.52.52-2.6.54-1.1 1.51-1.7 1-.58 2.32-.58 1.35 0 2.33.59.98.58 1.5 1.68.54 1.1.54 2.61v.02q0 1.5-.53 2.61a3.9 3.9 0 0 1-3.84 2.28m0-1.36q.9 0 1.52-.42t.94-1.2a5 5 0 0 0 .34-1.91v-.02q0-1.13-.33-1.91a2.6 2.6 0 0 0-.95-1.2 2.7 2.7 0 0 0-1.53-.42q-.9 0-1.5.41-.63.42-.96 1.2a5 5 0 0 0-.33 1.92v.02q0 1.12.32 1.9.35.8.96 1.21.63.42 1.51.42M386.58 252v-9.46h1.53v1.42h.13q.36-.75 1.04-1.16a3.3 3.3 0 0 1 1.73-.42q1.6 0 2.44.91.87.9.87 2.58V252h-1.53v-5.76q0-1.28-.55-1.9-.54-.6-1.67-.61-.75 0-1.3.33-.55.32-.86.92-.3.59-.3 1.42v5.6z"/><path fill="#dbdbdb" d="M143.72 106.3a5.4 5.4 0 0 1-3-.81 5.3 5.3 0 0 1-1.94-2.3 8.4 8.4 0 0 1-.67-3.52v-.02q0-2.04.67-3.53a5.3 5.3 0 0 1 1.95-2.3q1.25-.8 2.98-.8 1.34 0 2.42.53 1.1.52 1.81 1.45.72.91.9 2.13l-.01.02h-1.6v-.03a3.5 3.5 0 0 0-3.52-2.64q-1.22 0-2.11.63a4 4 0 0 0-1.38 1.8q-.48 1.15-.49 2.74v.02q0 1.59.49 2.74.48 1.17 1.38 1.8t2.12.63q.88 0 1.6-.28.72-.3 1.22-.83.48-.54.68-1.26l.02-.03h1.6v.03a4.4 4.4 0 0 1-.91 2.02 5 5 0 0 1-1.79 1.33q-1.07.48-2.42.48M154.7 106.17q-1.33 0-2.31-.6a4 4 0 0 1-1.51-1.69 6 6 0 0 1-.53-2.6v-.02q0-1.52.53-2.6.53-1.1 1.5-1.7 1-.58 2.33-.58 1.35 0 2.33.58.97.6 1.5 1.7.54 1.08.54 2.6v.02q0 1.5-.54 2.61a3.9 3.9 0 0 1-3.83 2.28m0-1.36q.9 0 1.53-.42.62-.42.95-1.2a5 5 0 0 0 .33-1.91v-.02q0-1.13-.33-1.91a2.6 2.6 0 0 0-.95-1.2 2.7 2.7 0 0 0-1.52-.42q-.9 0-1.51.41-.63.42-.96 1.2a5 5 0 0 0-.33 1.92v.02q0 1.12.33 1.9.33.8.96 1.21.62.42 1.5.42M160.96 106v-9.46h1.53v1.42h.13q.36-.75 1.03-1.16a3.3 3.3 0 0 1 1.73-.42q1.6 0 2.45.91.86.9.86 2.58V106h-1.53v-5.76q0-1.28-.54-1.9-.54-.6-1.67-.61-.75 0-1.3.32-.55.33-.87.93-.3.58-.3 1.42v5.6zM174.45 106.17a3.6 3.6 0 0 1-3.47-2.31 6 6 0 0 1-.49-2.58v-.02q0-1.48.5-2.58.48-1.1 1.37-1.7t2.1-.6a3.5 3.5 0 0 1 2.24.78q.45.37.7.88h.15v-5.25h1.53V106h-1.53v-1.51h-.14q-.3.53-.73.9-.45.37-1 .58-.57.2-1.23.2m.36-1.36a2.5 2.5 0 0 0 2.43-1.65q.34-.8.34-1.88v-.02q0-1.1-.34-1.88a2.51 2.51 0 0 0-2.44-1.65 2.5 2.5 0 0 0-2.42 1.64 5 5 0 0 0-.33 1.9v.01q0 1.1.33 1.89t.95 1.22q.6.42 1.47.42M181.55 106v-9.46h1.53V106zm.78-11.28a1 1 0 0 1-.74-.3q-.3-.32-.3-.74 0-.44.3-.75a1 1 0 0 1 .74-.3q.44 0 .74.3t.31.75q0 .42-.3.74-.32.3-.75.3M188.83 106.08q-1.45 0-2.11-.59-.65-.6-.65-1.94V97.8h-1.49v-1.27h1.49V94.1h1.58v2.45h2.06v1.27h-2.06v5.37q0 .82.32 1.18.31.37 1.04.37a6 6 0 0 0 .7-.04v1.3a9 9 0 0 1-.88.09M191.55 106v-9.46h1.53V106zm.77-11.28a1 1 0 0 1-.73-.3q-.3-.32-.31-.74 0-.44.3-.75a1 1 0 0 1 .74-.3q.45 0 .75.3t.31.75q0 .42-.3.74-.31.3-.76.3M199.36 106.17q-1.33 0-2.32-.6a4 4 0 0 1-1.5-1.69 6 6 0 0 1-.54-2.6v-.02q0-1.52.53-2.6.54-1.1 1.51-1.7.99-.58 2.32-.58 1.35 0 2.33.58.97.6 1.5 1.7.54 1.08.54 2.6v.02q0 1.5-.53 2.61a3.9 3.9 0 0 1-3.84 2.28m0-1.36q.9 0 1.52-.42.63-.42.95-1.2a5 5 0 0 0 .34-1.91v-.02q0-1.13-.34-1.91a2.6 2.6 0 0 0-.95-1.2 2.7 2.7 0 0 0-1.52-.42q-.9 0-1.5.41-.63.42-.97 1.2a5 5 0 0 0-.32 1.92v.02q0 1.12.32 1.9.34.8.96 1.21.63.42 1.51.42M205.61 106v-9.46h1.53v1.42h.13q.36-.75 1.04-1.16a3.3 3.3 0 0 1 1.73-.42q1.6 0 2.44.91.87.9.87 2.58V106h-1.53v-5.76q0-1.28-.55-1.9-.53-.6-1.67-.61-.75 0-1.3.32-.56.33-.86.93-.3.58-.3 1.42v5.6z"/><path fill="#707070" d="m247.47 149 3.64-9.86h.94v1.59h-.39l-2.9 8.27zm1.65-2.82.38-1.05h4.46l.38 1.05zm5.55 2.82-2.9-8.27v-1.6h.55l3.64 9.87zM257.54 149v-9.86h1.2l5.65 8.1-.82-.43h.63v-7.67h1.21V149h-1.2l-5.65-8.08.82.43h-.63V149zM267.77 149v-9.86h3.39a5 5 0 0 1 2.5.58q1.05.59 1.6 1.69t.55 2.65v.01q0 1.55-.55 2.66-.55 1.1-1.6 1.69-1.03.58-2.5.58zm1.23-1.1h2.08a4 4 0 0 0 1.88-.46q.78-.45 1.19-1.3a5 5 0 0 0 .4-2.05v-.02q0-1.2-.41-2.06a3 3 0 0 0-1.2-1.3 3.6 3.6 0 0 0-1.86-.47H269z"/><path fill="#1f1f1f" d="M247 84a8 8 0 0 1 8-8h349a8 8 0 0 1 8 8v31a8 8 0 0 1-8 8H255a8 8 0 0 1-8-8zM247 173a8 8 0 0 1 8-8h349a8 8 0 0 1 8 8v31a8 8 0 0 1-8 8H255a8 8 0 0 1-8-8z"/><path fill="#d1d4dc" d="M264.4 101.47v-1.4h3.57q1.35 0 2.1-.7.75-.72.75-1.97v-.01q0-1.27-.74-1.96-.75-.7-2.11-.7h-3.58v-1.41h3.98q1.2 0 2.11.5.92.52 1.43 1.43.53.92.53 2.12v.02q0 1.2-.53 2.12-.51.93-1.43 1.44a4 4 0 0 1-2.1.52zm-.8 4.53V93.32h1.58V106zM274.35 106v-9.46h1.53v1.4h.13q.27-.74.91-1.15.66-.41 1.6-.41.23 0 .43.02l.33.04v1.48a4 4 0 0 0-.93-.09q-.73 0-1.29.3-.56.27-.87.8-.3.51-.31 1.2V106zM280.74 106v-9.46h1.52V106zm.77-11.28a1 1 0 0 1-.74-.3q-.3-.32-.3-.74 0-.44.3-.75a1 1 0 0 1 .74-.3q.44 0 .75.3.3.3.3.75 0 .42-.3.74-.31.3-.75.3M288.53 106.17q-1.31 0-2.3-.6a4 4 0 0 1-1.5-1.71 6 6 0 0 1-.54-2.61v-.02q0-1.48.52-2.57a4 4 0 0 1 3.81-2.28q1.15 0 1.99.4a3.5 3.5 0 0 1 1.97 2.61l.01.05h-1.52v-.02a2.2 2.2 0 0 0-.8-1.2q-.63-.5-1.65-.49a2.5 2.5 0 0 0-2.43 1.64 5 5 0 0 0-.34 1.86v.02q0 1.08.34 1.89t.97 1.23q.63.45 1.46.44.96 0 1.56-.41.6-.42.88-1.2l.01-.06 1.51-.01-.01.1a4 4 0 0 1-.69 1.51q-.5.67-1.3 1.05-.81.38-1.95.38M298.1 106.17q-1.35 0-2.31-.6a4 4 0 0 1-1.5-1.69 6 6 0 0 1-.52-2.57v-.01a6 6 0 0 1 .52-2.58 4 4 0 0 1 1.48-1.72 4 4 0 0 1 2.24-.62q1.29 0 2.22.6.94.59 1.42 1.65.5 1.07.5 2.48v.6h-7.58v-1.22h6.8l-.76 1.12V101q0-1.12-.33-1.84a2.4 2.4 0 0 0-2.28-1.42q-.75 0-1.36.37-.6.36-.95 1.1a4 4 0 0 0-.35 1.79v.6q0 1.02.34 1.73.34.7.97 1.1.63.38 1.5.38.64 0 1.1-.18.48-.18.8-.45.3-.27.42-.56l.04-.08h1.53l-.02.07a3 3 0 0 1-.44.95q-.3.45-.81.82-.49.36-1.16.58-.67.2-1.5.2"/><path fill="#ff9800" d="M313.92 106.3a5.4 5.4 0 0 1-3-.81 5.3 5.3 0 0 1-1.94-2.3 8.4 8.4 0 0 1-.67-3.52v-.02q0-2.04.68-3.53a5.3 5.3 0 0 1 1.94-2.3q1.25-.8 2.98-.8 1.34 0 2.42.53 1.1.52 1.81 1.45.72.91.9 2.13l-.01.02h-1.59v-.03a3.5 3.5 0 0 0-3.53-2.64q-1.22 0-2.11.63a4 4 0 0 0-1.38 1.8q-.48 1.15-.49 2.74v.02q0 1.59.49 2.74.48 1.17 1.38 1.8t2.12.63q.88 0 1.6-.28.72-.3 1.22-.83.48-.54.68-1.26l.02-.03h1.6v.03a4.4 4.4 0 0 1-.92 2.02 5 5 0 0 1-1.78 1.33q-1.07.48-2.42.48M321.02 106v-9.46h1.53v1.4h.13q.29-.74.92-1.15.65-.41 1.6-.41.22 0 .43.02l.32.04v1.48a4 4 0 0 0-.93-.09q-.72 0-1.28.3-.56.27-.87.8-.32.51-.32 1.2V106zM331 106.17q-1.35 0-2.32-.6a4 4 0 0 1-1.51-1.69 6 6 0 0 1-.53-2.6v-.02q0-1.52.53-2.6.53-1.1 1.5-1.7 1-.58 2.33-.58 1.35 0 2.33.58.97.6 1.5 1.7.54 1.08.54 2.6v.02q0 1.5-.54 2.61a3.9 3.9 0 0 1-3.83 2.28m0-1.36q.9 0 1.52-.42t.95-1.2a5 5 0 0 0 .33-1.91v-.02q0-1.13-.33-1.91a2.6 2.6 0 0 0-.95-1.2 2.7 2.7 0 0 0-1.52-.42q-.9 0-1.51.41-.63.42-.96 1.2a5 5 0 0 0-.33 1.92v.02q0 1.12.33 1.9.33.8.96 1.21.62.42 1.5.42M340.5 106.17q-1.06 0-1.87-.32a3 3 0 0 1-1.3-.9q-.48-.6-.57-1.38h1.57q.19.6.74.96.57.36 1.48.36.64 0 1.12-.18.49-.2.76-.52.28-.33.28-.76v-.01q0-.5-.38-.82a3 3 0 0 0-1.25-.55l-1.47-.36a5 5 0 0 1-1.46-.54q-.57-.34-.84-.84a2.4 2.4 0 0 1-.28-1.17v-.01q0-.8.46-1.42a3 3 0 0 1 1.26-.97 4 4 0 0 1 1.8-.36q1 0 1.76.31.77.3 1.24.89.47.57.57 1.34h-1.5q-.14-.56-.68-.92a2.5 2.5 0 0 0-1.4-.35q-.55 0-1 .18t-.69.5q-.25.3-.25.73v.01q0 .32.16.57.18.24.51.43.36.18.91.32l1.46.35q1.33.33 1.99.94t.65 1.62v.02q0 .83-.5 1.49-.5.64-1.36 1a5 5 0 0 1-1.92.36M349.26 106.17q-1.05 0-1.87-.32a3 3 0 0 1-1.3-.9q-.47-.6-.57-1.38h1.57q.2.6.74.96.57.36 1.48.36.64 0 1.12-.18.48-.2.76-.52.28-.33.28-.76v-.01q0-.5-.38-.82a3 3 0 0 0-1.25-.55l-1.47-.36a5 5 0 0 1-1.46-.54q-.57-.34-.84-.84a2.4 2.4 0 0 1-.27-1.17v-.01q0-.8.45-1.42a3 3 0 0 1 1.26-.97 4 4 0 0 1 1.8-.36q1 0 1.76.31.77.3 1.24.89.47.57.57 1.34h-1.5q-.14-.56-.68-.92a2.5 2.5 0 0 0-1.4-.35q-.55 0-1 .18t-.69.5q-.25.3-.25.73v.01q0 .32.17.57.16.24.5.43.36.18.91.32l1.46.35q1.34.33 1.99.94t.65 1.62v.02q0 .83-.5 1.49-.5.64-1.36 1a5 5 0 0 1-1.92.36M354.98 106v-9.46h1.53V106zm.77-11.28a1 1 0 0 1-.74-.3q-.3-.32-.3-.74 0-.44.3-.75a1 1 0 0 1 .74-.3q.44 0 .75.3.3.3.3.75 0 .42-.3.74-.3.3-.75.3M358.9 106v-9.46h1.53v1.42h.14q.36-.75 1.03-1.16a3.3 3.3 0 0 1 1.73-.42q1.6 0 2.45.91.86.9.86 2.58V106h-1.53v-5.76q0-1.28-.55-1.9-.52-.6-1.67-.61-.75 0-1.3.32-.54.33-.86.93-.3.58-.3 1.42v5.6zM372.82 109.34a6 6 0 0 1-2-.33 3 3 0 0 1-1.36-.9 2.7 2.7 0 0 1-.62-1.35v-.01h1.59q.14.54.75.89.62.35 1.64.35 1.26 0 1.97-.58.72-.58.72-1.63v-1.88h-.14a3.3 3.3 0 0 1-2.97 1.63q-1.2 0-2.1-.58-.9-.59-1.38-1.61a5.5 5.5 0 0 1-.48-2.37v-.02q0-1.32.48-2.35.5-1.04 1.4-1.63.89-.6 2.12-.6.66 0 1.23.22.55.21 1 .6.43.38.72.92h.1v-1.57h1.54v9.32a3.2 3.2 0 0 1-1.98 3.05q-.95.43-2.23.43m-.08-5.16a2.7 2.7 0 0 0 1.5-.4q.63-.42.96-1.14.34-.72.34-1.67v-.02q0-.94-.34-1.66a2.7 2.7 0 0 0-.96-1.15 2.7 2.7 0 0 0-1.5-.41 2.6 2.6 0 0 0-1.49.41q-.6.42-.93 1.15a4 4 0 0 0-.32 1.66v.02q0 .96.32 1.67.33.72.93 1.14.61.4 1.49.4"/><path fill="#d1d4dc" d="M384.28 106v-1.09l4.17-4.64q.8-.88 1.23-1.45.44-.57.62-1.04.2-.47.19-1.03v-.01q0-.67-.28-1.2a2 2 0 0 0-.8-.83q-.51-.3-1.23-.31-.74 0-1.29.31-.55.32-.86.88-.3.55-.3 1.3l-.02.01h-1.5l-.02-.01q.02-1.13.54-2 .53-.88 1.44-1.37.93-.5 2.1-.5 1.1 0 1.95.46.87.46 1.38 1.26t.5 1.83v.02q0 .72-.24 1.39-.25.67-.86 1.48-.62.8-1.74 2l-3.19 3.39.4-.74v.74l-.39-.27h6.23V106zM400.44 106v-2.63h-6.06v-1.44l1.03-1.74a179 179 0 0 1 4.29-6.87h2.29v8.64h1.76v1.41h-1.76V106zm-4.45-4.03h4.46v-7.2h-.1l-2.65 4.2-1.71 2.89zM409.97 106.3q-1.19 0-2.1-.47a3.82 3.82 0 0 1-2.12-3.1v-.09h1.51l.01.07a2.4 2.4 0 0 0 1.39 1.9q.59.3 1.33.3.84 0 1.47-.38.64-.38 1-1.03.36-.66.36-1.52v-.01q0-.85-.36-1.5a2.6 2.6 0 0 0-1-1.03 3 3 0 0 0-1.45-.37q-.62 0-1.16.2a2.7 2.7 0 0 0-1.5 1.33h-1.38l.66-7.28h7.03v1.41h-5.78l-.43 4.3h.14a2.8 2.8 0 0 1 1.61-1.17q.5-.16 1.1-.16a4 4 0 0 1 3.54 2.06q.52.95.52 2.18v.02q0 1.27-.56 2.26t-1.55 1.53-2.28.55M417.78 106.09q-.47 0-.8-.34a1 1 0 0 1-.33-.8q0-.47.33-.8t.8-.33.8.33.34.8-.34.8-.8.34M425.7 106.21q-1.26 0-2.23-.45-.95-.44-1.5-1.23a3.5 3.5 0 0 1-.64-1.78v-.1h1.51l.01.08q.07.63.43 1.1.37.47 1 .75.62.26 1.43.26t1.41-.29.94-.8q.34-.52.34-1.19v-.01q0-1.17-.75-1.8a3 3 0 0 0-2.04-.63h-1.54v-1.34h1.47q.74 0 1.3-.28t.87-.78.32-1.13v-.02q0-.67-.27-1.13a1.8 1.8 0 0 0-.8-.72 3 3 0 0 0-1.27-.24q-.72 0-1.28.25t-.9.71q-.35.47-.41 1.11l-.01.09h-1.52v-.09q.12-1.04.65-1.8.53-.78 1.42-1.21.9-.43 2.05-.43 1.19 0 2.06.42.9.41 1.37 1.15.49.73.49 1.7v.01a2.8 2.8 0 0 1-1.26 2.4q-.58.4-1.35.57v.04q1.34.12 2.18.94.83.82.83 2.17v.02q0 1.05-.56 1.89t-1.53 1.32-2.21.47M436.58 106.21q-1.28 0-2.23-.45-.96-.44-1.52-1.23a3.5 3.5 0 0 1-.63-1.78v-.1h1.51l.01.08q.06.63.43 1.1t1 .75q.62.26 1.43.26t1.41-.29.94-.8q.34-.52.34-1.19v-.01q0-1.17-.75-1.8a3 3 0 0 0-2.04-.63h-1.54v-1.34h1.47q.74 0 1.3-.28.55-.29.87-.78t.32-1.13v-.02q0-.67-.27-1.13a1.8 1.8 0 0 0-.8-.72 3 3 0 0 0-1.27-.24q-.71 0-1.28.25t-.9.71q-.36.47-.41 1.11l-.01.09h-1.52v-.09q.12-1.04.65-1.8.54-.78 1.42-1.21.9-.43 2.05-.43 1.2 0 2.06.42.9.41 1.37 1.15.48.73.49 1.7v.01a2.8 2.8 0 0 1-1.26 2.4q-.58.4-1.35.57v.04q1.35.12 2.18.94t.83 2.17v.02q0 1.05-.56 1.89t-1.53 1.32-2.21.47M264.4 195v-1.4h3.9q1.44 0 2.17-.57.75-.57.74-1.66v-.02q0-.73-.34-1.22a2 2 0 0 0-1.03-.74 5 5 0 0 0-1.69-.24h-3.76v-1.37h3.31q1.45 0 2.17-.5.73-.51.73-1.52v-.01q0-.98-.66-1.5a2.8 2.8 0 0 0-1.82-.53h-3.73v-1.4h4.06q1.16 0 2 .38a2.9 2.9 0 0 1 1.75 2.77v.02q0 .66-.3 1.24t-.79.98-1.1.5v.14q.87.12 1.5.52.63.42.98 1.08.35.65.35 1.48v.02q0 1.1-.52 1.9a3.3 3.3 0 0 1-1.47 1.23q-.95.42-2.31.42zm-.8 0v-12.68h1.58V195zM277.35 195.17a4 4 0 0 1-1.61-.35 2.67 2.67 0 0 1-1.54-2.47v-.01q0-.84.4-1.44t1.17-.94a5 5 0 0 1 1.87-.4l3.48-.22v1.22l-3.3.21q-1.06.07-1.57.45-.49.39-.49 1.08v.02q0 .73.54 1.12t1.37.4q.78 0 1.39-.3.6-.33.95-.86.35-.54.35-1.21v-2.94q0-.88-.54-1.34-.52-.46-1.59-.46-.85 0-1.4.3t-.72.87l-.01.03h-1.53l.01-.06q.12-.75.61-1.3a3 3 0 0 1 1.3-.88 5 5 0 0 1 1.8-.31q1.16 0 1.95.37.8.39 1.23 1.09t.42 1.68V195h-1.53v-1.4h-.14a3.2 3.2 0 0 1-2.87 1.57M284.29 195v-13.21h1.52V195zM290.87 195.17a4 4 0 0 1-1.62-.35 2.7 2.7 0 0 1-1.12-.97 2.7 2.7 0 0 1-.42-1.5v-.01q0-.84.4-1.44t1.18-.94a5 5 0 0 1 1.87-.4l3.48-.22v1.22l-3.3.21q-1.07.07-1.57.45-.5.39-.5 1.08v.02q0 .73.54 1.12.55.4 1.37.4.78 0 1.4-.3.6-.33.94-.86.36-.54.35-1.21v-2.94q0-.88-.53-1.34-.52-.46-1.6-.46-.84 0-1.4.3-.53.3-.72.87l-.01.03h-1.52v-.06q.12-.75.62-1.3a3 3 0 0 1 1.29-.88 5 5 0 0 1 1.8-.31q1.16 0 1.96.37.8.39 1.22 1.09t.42 1.68V195h-1.53v-1.4h-.14a3.2 3.2 0 0 1-1.69 1.4q-.53.16-1.17.17M297.71 195v-9.46h1.53v1.42h.13q.36-.75 1.04-1.16a3.3 3.3 0 0 1 1.73-.42q1.6 0 2.44.91.87.9.87 2.58V195h-1.53v-5.76q0-1.28-.55-1.9-.54-.6-1.67-.61-.75 0-1.3.33-.55.32-.86.92-.3.59-.3 1.42v5.6zM311.59 195.17q-1.32 0-2.3-.6a4 4 0 0 1-1.5-1.72 6 6 0 0 1-.54-2.6v-.02q0-1.48.52-2.57a4 4 0 0 1 3.8-2.28q1.17 0 2 .4a3.5 3.5 0 0 1 1.97 2.61l.01.05h-1.52v-.02a2.2 2.2 0 0 0-.8-1.2q-.63-.5-1.65-.5a2.5 2.5 0 0 0-2.44 1.65 5 5 0 0 0-.33 1.86v.02q0 1.08.34 1.88t.97 1.24q.63.45 1.46.44.96 0 1.56-.41.6-.42.87-1.2l.02-.06 1.51-.01-.02.1a4 4 0 0 1-.68 1.51q-.5.68-1.3 1.05-.81.38-1.95.38M321.17 195.17q-1.35 0-2.32-.6a4 4 0 0 1-1.5-1.69 6 6 0 0 1-.52-2.57v-.01a6 6 0 0 1 .52-2.58 4 4 0 0 1 1.48-1.72 4 4 0 0 1 2.24-.62q1.3 0 2.21.6.94.58 1.43 1.66.5 1.05.5 2.47v.6h-7.59v-1.22h6.8l-.75 1.11v-.6q0-1.12-.33-1.84a2.4 2.4 0 0 0-2.28-1.42q-.75 0-1.36.37-.6.36-.95 1.1a4 4 0 0 0-.35 1.79v.6q0 1.02.34 1.73.34.7.97 1.1.63.38 1.5.38.64 0 1.1-.18.48-.18.79-.45.3-.27.43-.56l.04-.08h1.53l-.02.07a3 3 0 0 1-.44.95q-.3.45-.81.82-.5.36-1.16.58-.68.2-1.5.2M335.55 195.17q-1.33 0-2.32-.6a4 4 0 0 1-1.51-1.69 6 6 0 0 1-.53-2.6v-.02q0-1.52.53-2.6.54-1.1 1.51-1.7.99-.58 2.32-.58 1.35 0 2.33.59.97.58 1.5 1.68.54 1.1.54 2.61v.02q0 1.5-.54 2.61a3.9 3.9 0 0 1-3.83 2.28m0-1.36q.9 0 1.52-.42.63-.42.95-1.2a5 5 0 0 0 .33-1.91v-.02q0-1.13-.33-1.91a2.6 2.6 0 0 0-.95-1.2 2.7 2.7 0 0 0-1.52-.42q-.9 0-1.51.41a2.6 2.6 0 0 0-.96 1.2 5 5 0 0 0-.32 1.92v.02q0 1.12.32 1.9.33.8.96 1.21.62.42 1.51.42M342.42 195v-8.2h-1.55v-1.26h1.55v-1.06q0-.94.3-1.56.33-.62.93-.92.62-.3 1.51-.3a5 5 0 0 1 1.01.08V183q-.14-.02-.32-.03l-.38-.01q-.81 0-1.17.4t-.35 1.16v1.02h2.15v1.27h-2.15V195zM353.36 190.47v-1.4h3.58q1.35 0 2.1-.7.75-.72.75-1.97v-.01q0-1.26-.74-1.96-.75-.7-2.11-.7h-3.58v-1.41h3.98q1.2 0 2.11.5.92.52 1.43 1.43.53.92.53 2.12v.02q0 1.2-.53 2.12-.51.93-1.43 1.45a4 4 0 0 1-2.1.51zm-.79 4.53v-12.68h1.58V195zM366.94 195.17q-1.35 0-2.32-.6a4 4 0 0 1-1.51-1.69 6 6 0 0 1-.53-2.6v-.02q0-1.52.53-2.6.53-1.1 1.5-1.7 1-.58 2.33-.58 1.35 0 2.33.59.97.58 1.5 1.68.54 1.1.54 2.61v.02q0 1.5-.54 2.61a3.9 3.9 0 0 1-3.83 2.28m0-1.36q.9 0 1.52-.42t.95-1.2q.33-.8.33-1.91v-.02q0-1.13-.33-1.91a2.6 2.6 0 0 0-.95-1.2 2.7 2.7 0 0 0-1.52-.42q-.9 0-1.51.41-.63.42-.96 1.2a5 5 0 0 0-.33 1.92v.02q0 1.12.33 1.9.33.8.96 1.21.62.42 1.5.42M374.68 195l-2.66-9.46h1.53l1.87 7.57h.13l2.12-7.57h1.45l2.12 7.57h.14l1.85-7.57h1.52l-2.64 9.46h-1.54l-2.12-7.32h-.13L376.2 195zM389.83 195.17q-1.36 0-2.32-.6a4 4 0 0 1-1.5-1.69 6 6 0 0 1-.51-2.57v-.01q0-1.47.51-2.58a4 4 0 0 1 1.48-1.72 4 4 0 0 1 2.24-.62q1.3 0 2.22.6.94.58 1.42 1.66.5 1.05.5 2.47v.6h-7.58v-1.22h6.8l-.75 1.11v-.6a4.4 4.4 0 0 0-.34-1.84 2.4 2.4 0 0 0-2.28-1.42q-.75 0-1.36.37-.6.36-.95 1.1a4 4 0 0 0-.35 1.79v.6q0 1.02.34 1.73.35.7.97 1.1.63.38 1.5.38.64 0 1.11-.18t.78-.45.43-.56l.04-.08h1.53l-.02.07q-.12.49-.44.95-.3.45-.8.82t-1.17.58q-.66.2-1.5.2M395.77 195v-9.46h1.53v1.4h.13q.27-.74.92-1.15.64-.42 1.6-.41.2 0 .43.02l.32.04v1.48a4 4 0 0 0-.93-.08q-.72 0-1.28.28-.56.3-.87.8-.33.53-.32 1.22V195z"/><path fill="#ff9800" d="M412 195.3a5.4 5.4 0 0 1-3-.81 5.3 5.3 0 0 1-1.94-2.3 8.4 8.4 0 0 1-.68-3.52v-.02q0-2.04.68-3.53a5.3 5.3 0 0 1 1.94-2.3q1.26-.8 2.98-.8 1.34 0 2.43.53 1.1.5 1.8 1.45.72.92.9 2.13v.02h-1.6v-.03a3.5 3.5 0 0 0-1.94-2.32q-.7-.32-1.59-.32-1.2 0-2.1.63a4 4 0 0 0-1.39 1.8q-.48 1.15-.48 2.74v.02q0 1.59.48 2.74.48 1.17 1.38 1.8t2.12.63q.9 0 1.6-.28.74-.3 1.22-.83.5-.53.69-1.26l.01-.03h1.6v.03a4.4 4.4 0 0 1-2.7 3.35q-1.06.48-2.42.48M419.1 195v-9.46h1.53v1.4h.13q.27-.74.91-1.15.66-.42 1.6-.41.23 0 .44.02l.32.04v1.48a4 4 0 0 0-.93-.08q-.72 0-1.29.28-.54.3-.87.8-.3.53-.31 1.22V195zM429.07 195.17q-1.33 0-2.32-.6a4 4 0 0 1-1.5-1.69 6 6 0 0 1-.54-2.6v-.02q0-1.52.53-2.6.54-1.1 1.51-1.7.99-.58 2.32-.58 1.35 0 2.33.59.97.58 1.5 1.68.54 1.1.54 2.61v.02q0 1.5-.54 2.61a3.9 3.9 0 0 1-3.83 2.28m0-1.36q.9 0 1.52-.42.63-.42.95-1.2.34-.8.34-1.91v-.02q0-1.13-.34-1.91a2.6 2.6 0 0 0-.95-1.2 2.7 2.7 0 0 0-1.52-.42q-.9 0-1.5.41-.63.42-.97 1.2a5 5 0 0 0-.32 1.92v.02q0 1.12.32 1.9.34.8.96 1.21.63.42 1.51.42M438.57 195.17q-1.05 0-1.86-.32a3 3 0 0 1-1.3-.9q-.48-.6-.57-1.38h1.56q.2.6.75.96.56.36 1.48.36.63 0 1.11-.18.49-.2.77-.52.27-.33.28-.76v-.01q0-.5-.39-.82a3 3 0 0 0-1.25-.56l-1.46-.35a5 5 0 0 1-1.46-.54q-.58-.34-.85-.84a2.4 2.4 0 0 1-.27-1.17v-.01q0-.8.46-1.42t1.25-.97a4 4 0 0 1 1.8-.36q1 0 1.76.31.78.3 1.24.89.47.57.57 1.34h-1.5q-.14-.56-.68-.92a2.5 2.5 0 0 0-1.4-.35q-.55 0-1 .19-.42.17-.68.49-.26.3-.26.73v.01q0 .32.17.57.16.24.51.43.35.18.9.32l1.46.35q1.34.33 2 .94.64.6.64 1.62v.02q0 .84-.5 1.49-.5.63-1.35 1a5 5 0 0 1-1.93.36M447.33 195.17q-1.05 0-1.86-.32a3 3 0 0 1-1.3-.9q-.48-.6-.57-1.38h1.56q.2.6.75.96.56.36 1.48.36.63 0 1.11-.18.49-.2.77-.52.27-.33.28-.76v-.01q0-.5-.39-.82a3 3 0 0 0-1.25-.56l-1.46-.35a5 5 0 0 1-1.46-.54q-.57-.34-.85-.84a2.4 2.4 0 0 1-.27-1.17v-.01q0-.8.46-1.42t1.25-.97a4 4 0 0 1 1.8-.36q1 0 1.76.31.78.3 1.24.89.48.57.57 1.34h-1.5q-.15-.56-.68-.92a2.5 2.5 0 0 0-1.4-.35q-.55 0-1 .19-.42.17-.68.49-.25.3-.25.73v.01q0 .32.16.57t.51.43q.36.18.9.32l1.47.35q1.33.33 1.98.94t.65 1.62v.02q0 .84-.5 1.49-.5.63-1.35 1a5 5 0 0 1-1.93.36M453.05 195v-9.46h1.53V195zm.78-11.28a1 1 0 0 1-.74-.3q-.3-.32-.3-.74 0-.44.3-.75a1 1 0 0 1 .74-.3q.44 0 .74.3t.31.75q0 .42-.3.74-.31.3-.75.3M456.98 195v-9.46h1.53v1.42h.13q.36-.75 1.04-1.16a3.3 3.3 0 0 1 1.73-.42q1.6 0 2.44.91.87.9.86 2.58V195h-1.52v-5.76q0-1.28-.55-1.9-.54-.6-1.67-.61-.75 0-1.3.33-.56.32-.86.92-.3.59-.3 1.42v5.6zM470.9 198.34a6 6 0 0 1-2-.33 3 3 0 0 1-1.37-.9 2.7 2.7 0 0 1-.62-1.35v-.01h1.6q.13.55.75.88.6.36 1.63.36 1.27 0 1.98-.58.72-.58.72-1.63v-1.88h-.14a3.2 3.2 0 0 1-1.76 1.45q-.56.18-1.21.18-1.21 0-2.11-.58-.9-.59-1.37-1.61a5.5 5.5 0 0 1-.49-2.37v-.01q0-1.34.49-2.36.5-1.04 1.39-1.63.9-.6 2.12-.6.68 0 1.23.22.57.21 1 .6.43.38.73.92h.1v-1.57h1.53v9.32a3.2 3.2 0 0 1-1.98 3.05q-.94.43-2.23.43m-.09-5.16a2.7 2.7 0 0 0 1.5-.4q.63-.42.96-1.14.35-.72.35-1.67v-.01q0-.94-.35-1.68a2.7 2.7 0 0 0-.95-1.14 2.7 2.7 0 0 0-1.5-.41 2.6 2.6 0 0 0-1.5.41q-.6.42-.93 1.15a4 4 0 0 0-.31 1.67v.01q0 .95.31 1.67.33.72.94 1.14.6.4 1.48.4"/><path fill="#d1d4dc" d="M486.26 195.3q-1.41 0-2.4-.81a5 5 0 0 1-1.55-2.3q-.53-1.49-.53-3.53v-.01q0-2.04.53-3.53.54-1.48 1.54-2.3 1-.8 2.41-.8t2.4.8q1.02.82 1.55 2.3.55 1.5.55 3.53v.01q0 2.04-.55 3.54-.54 1.48-1.54 2.29-1 .8-2.41.8m0-1.38q.9 0 1.56-.64a4 4 0 0 0 1-1.82q.35-1.18.35-2.8v-.01q0-1.62-.35-2.8a4 4 0 0 0-1-1.8 2.1 2.1 0 0 0-1.56-.64q-.9 0-1.56.64a4 4 0 0 0-.99 1.8 10 10 0 0 0-.34 2.8v.01q0 1.62.34 2.8t1 1.82 1.55.64M494.12 195.09q-.47 0-.8-.34a1 1 0 0 1-.34-.8q0-.47.34-.8.33-.33.8-.33t.8.33.33.8-.33.8-.8.34M498.05 195v-1.09l4.17-4.64q.78-.88 1.23-1.45t.62-1.04q.2-.47.19-1.03v-.01q0-.68-.28-1.2a2 2 0 0 0-.8-.83q-.5-.3-1.24-.31-.71 0-1.28.31-.56.32-.86.88-.3.55-.3 1.3l-.02.01h-1.5l-.02-.01q0-1.13.54-2 .53-.87 1.44-1.37.93-.5 2.1-.5 1.1 0 1.95.46.87.46 1.37 1.26t.51 1.83v.02a4 4 0 0 1-.24 1.39q-.25.67-.86 1.48-.62.8-1.74 2l-3.19 3.39.4-.74v.74l-.39-.27h6.23V195zM512.82 195.3q-1.4 0-2.4-.81a5 5 0 0 1-1.54-2.3q-.54-1.49-.54-3.53v-.01q0-2.04.54-3.53t1.54-2.3 2.4-.8 2.41.8q1 .82 1.55 2.3.54 1.5.54 3.53v.01q0 2.04-.54 3.54-.54 1.48-1.55 2.29-1 .8-2.4.8m0-1.38q.92 0 1.56-.64a4 4 0 0 0 1-1.82q.36-1.18.35-2.8v-.01q0-1.62-.35-2.8a4 4 0 0 0-1-1.8 2.1 2.1 0 0 0-1.56-.64q-.9 0-1.55.64a4 4 0 0 0-1 1.8 10 10 0 0 0-.34 2.8v.01q0 1.62.34 2.8t1 1.82 1.55.64M519.05 198.19l.77-4.97h1.74l-1.38 4.97zM533.43 195v-10.93h-.15l-3.4 2.34v-1.67l3.56-2.42H535V195zM539.76 195v-13.21h1.52v5.18h.14q.36-.76 1.03-1.17a3.3 3.3 0 0 1 1.73-.42q1.05 0 1.8.4.74.42 1.12 1.2.39.79.39 1.91V195h-1.53v-5.75q0-1.28-.54-1.9t-1.67-.62q-.76 0-1.31.33-.55.32-.86.92t-.3 1.42v5.6z"/><path fill="url(#htmvfsuzd)" d="M500 0h112v424H500z"/><path fill="url(#itmvfsuzd)" d="M112 424h112v424H112z" transform="rotate(-180 112 424)"/><path fill="url(#jtmvfsuzd)" d="M612 234h190v612H612z" transform="rotate(90 612 234)"/><g filter="url(#ktmvfsuzd)"><path fill="url(#ltmvfsuzd)" d="M0 315a12 12 0 0 1 12-12h498a12 12 0 0 1 12 12v78a12 12 0 0 1-12 12H12a12 12 0 0 1-12-12z"/><path stroke="url(#mtmvfsuzd)" stroke-opacity=".2" stroke-width="2" d="M12 304h498a11 11 0 0 1 11 11v78a11 11 0 0 1-11 11H12a11 11 0 0 1-11-11v-78a11 11 0 0 1 11-11Z"/></g><path fill="#dbdbdb" d="m24.58 341 5.2-14.1h1.34v2.25h-.54L26.42 341zm2.36-4.03.56-1.5h6.33l.56 1.5zm7.94 4.03-4.17-11.86v-2.23h.8L36.73 341zM37.42 341l5.2-14.1h1.34v2.25h-.54L39.26 341zm2.36-4.03.56-1.5h6.33l.56 1.5zm7.94 4.03-4.17-11.86v-2.23h.81l5.2 14.09zM52.26 335.97v-1.56h3.92q1.5 0 2.34-.78.83-.8.83-2.18v-.02q0-1.4-.83-2.18a3.3 3.3 0 0 0-2.34-.78h-3.92v-1.56h4.36q1.33 0 2.35.56 1.01.57 1.59 1.59.6 1.01.59 2.35v.02q0 1.34-.59 2.36a4 4 0 0 1-1.6 1.6q-1 .58-2.34.58zm-.88 5.03v-14.1h1.76V341zM63.36 341v-14.1h1.76v12.52h6.8V341zM84.6 341.31a6 6 0 0 1-3.35-.9 6 6 0 0 1-2.17-2.55q-.76-1.65-.76-3.9v-.01q0-2.27.76-3.9a6 6 0 0 1 2.17-2.56q1.41-.9 3.33-.9 1.48 0 2.7.58 1.2.58 2 1.6.8 1.04 1.01 2.37v.04h-1.77l-.02-.07a3.9 3.9 0 0 0-3.92-2.9q-1.36 0-2.36.71a4.5 4.5 0 0 0-1.56 2 8 8 0 0 0-.53 3.03v.02q0 1.74.53 3.03a4.5 4.5 0 0 0 1.56 1.99q1 .7 2.37.7.99 0 1.78-.32.8-.32 1.35-.92.54-.6.78-1.43l.02-.04h1.77v.04q-.24 1.3-1.03 2.26a5 5 0 0 1-1.98 1.5q-1.2.53-2.69.53M92.35 341v-10.44h1.7v1.6h.14q.28-.84.99-1.3a3 3 0 0 1 1.71-.49q.24 0 .46.03l.35.04v1.65q-.21-.05-.47-.06l-.54-.03q-.77 0-1.37.3-.59.32-.94.9a2.6 2.6 0 0 0-.33 1.34V341zM103.15 341.19q-1.47 0-2.56-.66a4.4 4.4 0 0 1-1.68-1.86q-.58-1.21-.58-2.88v-.02q0-1.68.58-2.88.6-1.22 1.68-1.86a5 5 0 0 1 2.55-.65q1.5 0 2.56.65a4.3 4.3 0 0 1 1.67 1.86q.6 1.2.6 2.88v.02q0 1.66-.6 2.88-.59 1.2-1.67 1.86a5 5 0 0 1-2.55.66m0-1.5q.98 0 1.65-.47.7-.47 1.06-1.34.37-.86.37-2.1v-.01q0-1.23-.37-2.1a3 3 0 0 0-1.06-1.33q-.67-.45-1.66-.46-.97 0-1.66.46-.67.45-1.05 1.33a6 6 0 0 0-.36 2.1v.02q0 1.21.36 2.1a3 3 0 0 0 1.05 1.33q.7.45 1.67.46M113.54 341.19q-1.17 0-2.07-.37a3.5 3.5 0 0 1-1.42-1.01 3 3 0 0 1-.63-1.54v-.01h1.73v.01q.2.7.81 1.1t1.63.4q.72 0 1.24-.2a2 2 0 0 0 .83-.56q.3-.36.3-.83v-.02q0-.54-.4-.9a3 3 0 0 0-1.36-.6l-1.63-.4a6 6 0 0 1-1.61-.6 2.5 2.5 0 0 1-.94-.93q-.3-.55-.3-1.3 0-.9.5-1.57.5-.69 1.38-1.09.89-.4 1.98-.4 1.12 0 1.95.37a3.3 3.3 0 0 1 1.36 1q.52.63.62 1.5v.03h-1.65v-.02q-.15-.64-.75-1.05-.59-.4-1.53-.4-.62 0-1.1.19a2 2 0 0 0-.75.54q-.28.35-.28.81v.02q0 .34.18.63.18.27.56.48t.98.35l1.62.39q1.5.36 2.21 1.03.7.67.7 1.8v.01q0 .93-.54 1.64-.55.7-1.49 1.1a6 6 0 0 1-2.13.4M123.12 341.19q-1.17 0-2.07-.37a3.5 3.5 0 0 1-1.42-1.01 3 3 0 0 1-.63-1.54v-.01h1.73v.01q.2.7.81 1.1t1.63.4q.72 0 1.24-.2a2 2 0 0 0 .83-.56q.3-.36.3-.83v-.02q0-.54-.4-.9a3 3 0 0 0-1.36-.6l-1.64-.4a6 6 0 0 1-1.6-.6 2.5 2.5 0 0 1-.94-.93q-.3-.55-.3-1.3 0-.9.5-1.57.5-.69 1.38-1.09t1.98-.4q1.12 0 1.95.37a3.3 3.3 0 0 1 1.36 1q.52.63.62 1.5v.03h-1.65v-.02q-.16-.64-.75-1.05-.58-.4-1.53-.4-.62 0-1.1.19a2 2 0 0 0-.75.54q-.28.35-.28.81v.02q0 .34.18.63.18.27.56.48t.98.35l1.62.39q1.5.36 2.2 1.03.72.67.71 1.8v.01q0 .93-.55 1.64-.54.7-1.48 1.1a6 6 0 0 1-2.13.4M129.3 341v-10.44h1.7V341zm.86-12.4q-.47 0-.8-.33a1.1 1.1 0 0 1-.35-.81q0-.49.34-.81.34-.34.81-.34.49 0 .81.33.33.35.33.81 0 .48-.33.82t-.8.34M133.53 341v-10.44h1.7v1.55h.14q.4-.8 1.15-1.27.76-.45 1.92-.46 1.75 0 2.7 1.01.95 1 .95 2.84V341h-1.7v-6.38q0-1.38-.6-2.06t-1.84-.68a2.5 2.5 0 0 0-2.4 1.39q-.32.65-.32 1.56V341zM148.8 344.7q-1.26 0-2.2-.37a4 4 0 0 1-1.5-1 3 3 0 0 1-.72-1.47l.02-.03h1.74l.02.03q.16.58.84.96.69.37 1.8.37a3.3 3.3 0 0 0 2.18-.66q.78-.65.78-1.81v-1.94h-.13a3.5 3.5 0 0 1-1.93 1.62q-.62.2-1.35.2-1.34.01-2.33-.64a4.3 4.3 0 0 1-1.52-1.8 6 6 0 0 1-.54-2.66q0-1.52.54-2.66.55-1.15 1.54-1.81a4 4 0 0 1 2.35-.65q.74 0 1.35.23a3.5 3.5 0 0 1 1.9 1.69h.11v-1.74h1.7v10.26q0 1.18-.57 2.05a3.7 3.7 0 0 1-1.6 1.34 6 6 0 0 1-2.48.48m-.08-5.6a2.9 2.9 0 0 0 2.7-1.72q.37-.81.37-1.88t-.37-1.88q-.37-.83-1.06-1.28t-1.64-.46q-.96 0-1.64.46t-1.03 1.27a5 5 0 0 0-.35 1.88v.01q0 1.08.35 1.89.36.8 1.03 1.27.68.44 1.64.44M161.15 341v-1.21l4.7-5.16q.88-.98 1.38-1.62t.7-1.16.19-1.13v-.02q0-.75-.32-1.31-.3-.6-.9-.92a2.6 2.6 0 0 0-1.36-.34q-.82 0-1.46.35-.62.35-.97.98-.36.6-.36 1.42v.03h-1.68l-.01-.03a4.2 4.2 0 0 1 2.22-3.73 5 5 0 0 1 2.35-.55q1.22 0 2.18.51.97.53 1.53 1.41.56.9.56 2.02v.02q0 .8-.27 1.53-.27.75-.97 1.64-.69.9-1.94 2.22l-3.6 3.81.47-.87v.87l-.46-.34h7V341zM179.12 341v-2.92h-6.8v-1.6l2.36-3.89a252 252 0 0 1 3.6-5.68h2.56v9.6h1.96v1.57h-1.96V341zm-5.02-4.48h5.03v-8.01h-.1a168 168 0 0 0-1.98 3.09l-1 1.6-1 1.63-.95 1.59zM189.63 341.31q-1.32 0-2.35-.51a4.23 4.23 0 0 1-2.37-3.44l-.02-.11h1.7l.01.08q.1.67.5 1.23t1.06.88q.65.32 1.49.32.93 0 1.65-.41.72-.42 1.12-1.15.4-.74.4-1.68v-.02q0-.93-.4-1.65a3 3 0 0 0-1.12-1.15q-.7-.4-1.62-.4-.7 0-1.3.21a3.2 3.2 0 0 0-1.7 1.48h-1.53l.73-8.08h7.88v1.57h-6.47l-.48 4.76h.12q.33-.48.78-.8a4.17 4.17 0 0 1 2.27-.66q1.34 0 2.36.6 1.03.62 1.61 1.68.6 1.05.6 2.4v.03a5 5 0 0 1-.64 2.5q-.63 1.1-1.74 1.7-1.1.63-2.54.62M198.11 341.1q-.5 0-.87-.35a1.2 1.2 0 0 1-.36-.87q0-.53.36-.87.37-.36.87-.36.52 0 .87.36.36.34.36.87 0 .5-.36.87-.34.36-.87.36M206.74 341.23q-1.43 0-2.5-.5a3.89 3.89 0 0 1-2.4-3.35v-.11h1.7v.1q.07.7.48 1.22.4.53 1.1.83t1.62.3 1.57-.33q.68-.33 1.05-.89.38-.57.38-1.32v-.02q0-1.3-.85-1.99a3.4 3.4 0 0 0-2.26-.7h-1.72v-1.49h1.64q.82 0 1.44-.31.62-.32.97-.87.36-.56.36-1.26v-.02q0-.74-.3-1.26-.3-.5-.9-.79a3 3 0 0 0-1.4-.27q-.81 0-1.45.28-.63.27-1 .8-.38.51-.45 1.22l-.01.1h-1.7l.02-.1q.11-1.15.7-2.01.6-.86 1.6-1.34a5 5 0 0 1 2.29-.48q1.31 0 2.3.47.97.46 1.51 1.28.55.81.55 1.89v.02q0 .87-.38 1.54-.37.67-1.02 1.12-.66.45-1.5.64v.04q1.49.12 2.41 1.04.94.9.94 2.41v.02q0 1.17-.62 2.1-.64.92-1.71 1.47-1.08.52-2.46.52M218.76 341.23q-1.42 0-2.5-.5a3.9 3.9 0 0 1-2.4-3.35v-.11h1.7v.1q.07.7.48 1.22.41.53 1.1.83t1.62.3q.9 0 1.57-.33t1.05-.89.38-1.32v-.02q0-1.3-.85-1.99a3.4 3.4 0 0 0-2.26-.7h-1.72v-1.49h1.64q.83 0 1.44-.31.62-.32.97-.87.36-.56.36-1.26v-.02q0-.74-.3-1.26-.3-.5-.9-.79a3 3 0 0 0-1.4-.27q-.81 0-1.45.28-.62.27-1 .8-.38.51-.45 1.22l-.01.1h-1.7l.02-.1a4.02 4.02 0 0 1 2.3-3.35 5 5 0 0 1 2.29-.48q1.31 0 2.3.47.96.46 1.52 1.28.54.81.54 1.89v.02q0 .87-.38 1.54-.37.67-1.02 1.12-.66.45-1.5.64v.04q1.49.12 2.41 1.04.94.9.94 2.41v.02q0 1.17-.62 2.1-.63.92-1.71 1.47a5.5 5.5 0 0 1-2.46.52M229.86 341l5.2-14.1h1.34v2.25h-.54L231.7 341zm2.36-4.03.56-1.5h6.34l.55 1.5zm7.94 4.03-4.17-11.86v-2.23h.81L242 341zM243.82 341v-14.1h1.71l8.35 12-1.43-.99h.88v-11h1.74V341h-1.7L245 329.05l1.43.97h-.87V341zM258.01 341v-14.1h4.8q2.1 0 3.58.85a5.5 5.5 0 0 1 2.28 2.4q.8 1.57.8 3.79v.02q0 2.21-.8 3.8a5.6 5.6 0 0 1-2.27 2.41q-1.5.83-3.58.83zm1.76-1.58h2.93a5.3 5.3 0 0 0 2.7-.65 4 4 0 0 0 1.68-1.85q.6-1.23.59-2.94v-.02q0-1.73-.59-2.95a4 4 0 0 0-1.7-1.87 5.3 5.3 0 0 0-2.68-.65h-2.93zM275.56 341l5.2-14.1h1.34v2.25h-.54L277.4 341zm2.36-4.03.56-1.5h6.33l.56 1.5zm7.94 4.03-4.17-11.86v-2.23h.81l5.2 14.09zM288.4 341l5.2-14.1h1.34v2.25h-.54L290.24 341zm2.36-4.03.56-1.5h6.33l.56 1.5zm7.94 4.03-4.17-11.86v-2.23h.81l5.2 14.09zM303.24 335.97v-1.56h3.92q1.5 0 2.34-.78.83-.8.83-2.18v-.02q0-1.4-.83-2.18a3.3 3.3 0 0 0-2.34-.78h-3.92v-1.56h4.37q1.32 0 2.34.56t1.6 1.59.58 2.35v.02q0 1.34-.59 2.36a4 4 0 0 1-1.6 1.6q-1 .58-2.33.58zm-.88 5.03v-14.1h1.76V341zM314.34 341v-14.1h1.76v12.52h6.8V341zM330.73 341v-1.55h4.3q1.6 0 2.42-.64.81-.63.82-1.84v-.02q0-.81-.38-1.36a2.3 2.3 0 0 0-1.15-.82 6 6 0 0 0-1.87-.27h-4.14v-1.52h3.64q1.59 0 2.4-.57.81-.58.81-1.7v-.02q0-1.07-.72-1.64a3 3 0 0 0-2.01-.59h-4.12v-1.55h4.49q1.28 0 2.2.43a3.2 3.2 0 0 1 1.94 3.07v.02q0 .74-.33 1.39t-.88 1.1q-.54.43-1.24.55v.14q.98.12 1.68.57.7.46 1.1 1.2.38.73.38 1.66v.01q0 1.23-.57 2.12a3.7 3.7 0 0 1-1.63 1.36q-1.07.47-2.57.47zm-.88 0v-14.1h1.76V341zM344.96 341.19q-1 0-1.8-.38a3 3 0 0 1-1.23-1.08 3 3 0 0 1-.45-1.65v-.02q0-.93.44-1.58a3 3 0 0 1 1.3-1.05q.84-.37 2.06-.45l3.84-.22v1.35l-3.64.22q-1.16.07-1.72.5-.54.44-.54 1.2v.02q0 .78.58 1.22.6.44 1.52.44.84 0 1.51-.34t1.06-.94.38-1.34v-3.2q0-.97-.6-1.5-.57-.51-1.73-.51-.96 0-1.56.36-.6.35-.8.99l-.01.04h-1.68v-.07q.13-.83.66-1.47.54-.63 1.42-1a5 5 0 0 1 2.02-.36 5 5 0 0 1 2.15.43q.9.4 1.36 1.19.46.77.46 1.84V341h-1.7v-1.57h-.12q-.32.56-.8.95t-1.08.6-1.3.2M352.48 341v-14.56h1.7V341zM359.66 341.19q-1 0-1.79-.38a3 3 0 0 1-1.24-1.08 3 3 0 0 1-.45-1.65v-.02q0-.93.44-1.58a3 3 0 0 1 1.3-1.05q.85-.37 2.06-.45l3.84-.22v1.35l-3.63.22q-1.17.07-1.72.5-.55.44-.55 1.2v.02q0 .78.59 1.22.6.44 1.51.44.85 0 1.52-.34t1.05-.94q.38-.6.38-1.34v-3.2q0-.97-.59-1.5-.59-.51-1.73-.51-.96 0-1.57.36-.6.35-.8.99v.04h-1.69l.01-.07q.12-.83.66-1.47.54-.63 1.41-1a5 5 0 0 1 2.02-.36 5 5 0 0 1 2.15.43q.9.4 1.36 1.19.47.77.47 1.84V341h-1.7v-1.57h-.13q-.32.56-.8.95t-1.07.6-1.31.2M367.09 341v-10.44h1.7v1.55h.14q.4-.8 1.15-1.27.76-.45 1.92-.46 1.76 0 2.7 1.01.94 1 .94 2.84V341h-1.7v-6.38q0-1.38-.59-2.06t-1.84-.68a2.49 2.49 0 0 0-2.4 1.39 3.4 3.4 0 0 0-.32 1.56V341zM382.32 341.19q-1.45 0-2.55-.67a4.5 4.5 0 0 1-1.66-1.88 7 7 0 0 1-.6-2.88v-.02q0-1.64.6-2.84t1.66-1.86a4.7 4.7 0 0 1 2.54-.67q1.29 0 2.2.46a3.9 3.9 0 0 1 2.17 2.9v.07h-1.67l-.02-.04a2.4 2.4 0 0 0-.87-1.32 2.8 2.8 0 0 0-1.8-.56q-.94 0-1.63.48-.67.47-1.06 1.33a5 5 0 0 0-.37 2.06q0 1.21.38 2.1.37.87 1.06 1.35t1.61.48q1.07 0 1.73-.47.68-.48.95-1.35l.02-.06 1.68-.01-.02.1q-.2.95-.75 1.7-.56.75-1.46 1.18a5 5 0 0 1-2.14.42M392.77 341.19q-1.5 0-2.57-.66a4.3 4.3 0 0 1-1.65-1.86 6.6 6.6 0 0 1-.57-2.86q0-1.61.57-2.84a4.5 4.5 0 0 1 1.63-1.9q1.06-.7 2.49-.7 1.4 0 2.44.67 1.02.66 1.57 1.83.54 1.18.55 2.74v.65h-8.38v-1.35h7.52l-.84 1.24v-.67q0-1.23-.37-2.02a2.7 2.7 0 0 0-1.02-1.18 3 3 0 0 0-1.49-.4 3 3 0 0 0-1.5.42q-.67.41-1.05 1.21-.39.8-.39 1.97v.67q0 1.1.38 1.9.37.78 1.07 1.2t1.65.42q.7 0 1.21-.2.52-.18.87-.5.34-.3.48-.65l.04-.08h1.69l-.02.07q-.13.56-.48 1.08a4 4 0 0 1-2.19 1.56q-.75.24-1.64.24M408.3 341.19q-1.47 0-2.55-.66a4.4 4.4 0 0 1-1.68-1.86q-.6-1.21-.59-2.88v-.02q0-1.68.59-2.88.6-1.22 1.68-1.86a5 5 0 0 1 2.55-.65q1.48 0 2.56.65a4.3 4.3 0 0 1 1.67 1.86q.6 1.2.6 2.88v.02q0 1.66-.6 2.88-.6 1.2-1.67 1.86a5 5 0 0 1-2.55.66m0-1.5q.97 0 1.66-.47t1.05-1.34q.37-.86.37-2.1v-.01q0-1.23-.37-2.1a3 3 0 0 0-1.05-1.33q-.69-.45-1.66-.46-.97 0-1.66.46-.69.45-1.06 1.33a6 6 0 0 0-.36 2.1v.02q0 1.21.36 2.1a3 3 0 0 0 1.06 1.33q.7.45 1.67.46M415.76 341v-9.03h-1.67v-1.4h1.67v-1.2q0-1.04.33-1.71.34-.7 1-1 .67-.34 1.66-.34a9 9 0 0 1 1.1.09v1.36a5 5 0 0 0-.77-.04q-.87 0-1.25.42t-.38 1.26v1.15h2.32v1.4h-2.31V341zM427.52 335.97v-1.56h3.92q1.5 0 2.34-.78.83-.8.83-2.18v-.02q0-1.4-.83-2.18a3.3 3.3 0 0 0-2.34-.78h-3.92v-1.56h4.37q1.33 0 2.34.56t1.6 1.59.58 2.35v.02q0 1.34-.59 2.36a4 4 0 0 1-1.59 1.6q-1.02.58-2.34.58zm-.88 5.03v-14.1h1.76V341zM442.37 341.19q-1.48 0-2.56-.66a4.4 4.4 0 0 1-1.68-1.86 6.6 6.6 0 0 1-.59-2.88v-.02q0-1.68.59-2.88.6-1.22 1.68-1.86a5 5 0 0 1 2.55-.65q1.49 0 2.55.65a4.3 4.3 0 0 1 1.67 1.86q.6 1.2.6 2.88v.02q0 1.66-.6 2.88a4.3 4.3 0 0 1-1.67 1.86 5 5 0 0 1-2.54.66m0-1.5q.96 0 1.65-.47t1.05-1.34q.37-.86.37-2.1v-.01q0-1.23-.37-2.1a3 3 0 0 0-1.05-1.33q-.69-.45-1.66-.46-.97 0-1.66.46-.69.45-1.06 1.33a6 6 0 0 0-.36 2.1v.02q0 1.21.36 2.1a3 3 0 0 0 1.06 1.33q.68.45 1.67.46M450.88 341l-2.92-10.44h1.69l2.06 8.38h.14l2.33-8.38h1.62l2.35 8.38h.12l2.06-8.38h1.7L459.08 341h-1.7l-2.35-8.08h-.13L452.6 341zM467.59 341.19q-1.5 0-2.57-.66a4.4 4.4 0 0 1-1.65-1.86 6.6 6.6 0 0 1-.58-2.86q0-1.61.58-2.84a4.5 4.5 0 0 1 1.63-1.9q1.07-.7 2.48-.7t2.44.67 1.57 1.83.55 2.74v.65h-8.38v-1.35h7.52l-.84 1.24v-.67q0-1.23-.37-2.02a2.7 2.7 0 0 0-1.02-1.18 3 3 0 0 0-1.48-.4 3 3 0 0 0-1.5.42q-.67.41-1.06 1.21-.38.8-.38 1.97v.67q0 1.1.37 1.9.39.78 1.08 1.2t1.65.42q.69 0 1.2-.2.54-.18.88-.5.35-.3.48-.65l.04-.08h1.68l-.02.07q-.12.56-.47 1.08a4 4 0 0 1-2.2 1.56q-.73.24-1.63.24M474 341v-10.44h1.7v1.6h.14q.29-.84.99-1.3a3 3 0 0 1 1.71-.49q.24 0 .46.03l.36.04v1.65l-.48-.06-.54-.03q-.77 0-1.37.3-.59.32-.94.9a2.6 2.6 0 0 0-.33 1.34V341zM480.95 341.1q-.51 0-.87-.35a1.2 1.2 0 0 1-.37-.87q0-.53.37-.87.36-.36.87-.36t.87.36q.36.34.36.87 0 .5-.37.87-.35.36-.87.36M486.03 341.1q-.51 0-.87-.35a1.2 1.2 0 0 1-.36-.87q0-.53.36-.87.36-.36.87-.36.52 0 .87.36.36.34.36.87 0 .5-.36.87-.35.36-.87.36M491.12 341.1q-.51 0-.87-.35a1.2 1.2 0 0 1-.36-.87q0-.53.36-.87.36-.36.87-.36t.87.36q.36.34.36.87 0 .5-.36.87-.36.36-.87.36M67.58 377l5.2-14.1h1.34v2.25h-.54L69.42 377zm2.36-4.03.56-1.5h6.33l.56 1.5zm7.94 4.03-4.17-11.86v-2.23h.8L79.73 377zM80.42 377l5.2-14.1h1.34v2.25h-.54L82.26 377zm2.36-4.03.56-1.5h6.33l.56 1.5zm7.94 4.03-4.17-11.86v-2.23h.81l5.2 14.09zM95.26 371.97v-1.56h3.92q1.5 0 2.34-.78.83-.8.83-2.18v-.02q0-1.4-.83-2.18a3.3 3.3 0 0 0-2.34-.78h-3.92v-1.56h4.36q1.33 0 2.35.56 1.01.57 1.59 1.59.6 1.01.59 2.35v.02q0 1.34-.59 2.36a4 4 0 0 1-1.6 1.6q-1 .58-2.34.58zm-.88 5.03v-14.1h1.76V377zM106.36 377v-14.1h1.76v12.52h6.8V377z"/><path fill="#089981" d="m134.58 377 5.2-14.1h1.34v2.25h-.54L136.42 377zm2.36-4.03.56-1.5h6.33l.56 1.5zm7.94 4.03-4.17-11.86v-2.23h.81l5.2 14.09zM152.1 377.19q-1.46 0-2.54-.67a4.5 4.5 0 0 1-1.67-1.88 7 7 0 0 1-.59-2.88v-.02q0-1.64.59-2.84a4.5 4.5 0 0 1 4.2-2.52q1.29 0 2.2.45a3.9 3.9 0 0 1 2.17 2.9l.01.07h-1.68l-.02-.04a2.4 2.4 0 0 0-.87-1.32 2.7 2.7 0 0 0-1.8-.56q-.94 0-1.63.48-.67.47-1.06 1.33a5 5 0 0 0-.37 2.06q0 1.21.38 2.1.37.87 1.06 1.35t1.62.48q1.05 0 1.72-.47.68-.48.95-1.35l.02-.06 1.68-.01-.02.1q-.2.95-.75 1.7-.56.75-1.46 1.18t-2.14.42M162.07 377.1q-1.56 0-2.3-.65-.7-.66-.7-2.14v-6.34h-1.62v-1.4h1.62v-2.73h1.75v2.72h2.22v1.4h-2.22v6.01q0 .9.36 1.28.35.37 1.14.37a6 6 0 0 0 .72-.04v1.44l-.47.06q-.24.03-.5.03M165 377v-10.44h1.7V377zm.86-12.4q-.47 0-.8-.33a1.1 1.1 0 0 1-.35-.81q0-.49.34-.81.34-.34.81-.34.49 0 .81.33.33.35.34.81 0 .48-.34.82-.33.33-.8.34M172.19 377l-3.87-10.44h1.8l2.86 8.6h.13l2.87-8.6h1.78L173.92 377zM183.22 377.19q-1.5 0-2.56-.66a4.3 4.3 0 0 1-1.66-1.86 6.6 6.6 0 0 1-.57-2.86q0-1.61.57-2.84a4.5 4.5 0 0 1 1.64-1.9q1.05-.7 2.48-.7 1.4 0 2.44.67 1.02.66 1.57 1.83.55 1.18.55 2.74v.65h-8.38v-1.35h7.52l-.84 1.24v-.67q0-1.23-.37-2.02a2.7 2.7 0 0 0-1.02-1.18 3 3 0 0 0-1.48-.4 3 3 0 0 0-1.5.42q-.67.41-1.06 1.21-.38.8-.38 1.97v.67q0 1.1.37 1.9.38.78 1.07 1.2t1.65.42q.7 0 1.21-.2.53-.18.87-.5.34-.3.48-.65l.04-.08h1.69l-.02.07q-.13.56-.48 1.08a4 4 0 0 1-2.19 1.56q-.75.24-1.64.24"/><path fill="url(#ntmvfsuzd)" d="M59 372a18 18 0 1 1-36 0 18 18 0 0 1 36 0"/><path fill="#fff" fill-rule="evenodd" d="M49.25 374.74q-.16.46-.34.87-.45.99-1.04 1.81a9 9 0 0 1-1.33 1.57q-.8.72-1.72.74-.66 0-1.59-.37a5 5 0 0 0-1.7-.37q-.83 0-1.76.37-.94.38-1.52.39-.88.03-1.75-.76a10 10 0 0 1-1.4-1.62 11 11 0 0 1-2.1-6.25q0-1.89.84-3.25a4.9 4.9 0 0 1 4.13-2.38q.7 0 1.84.41 1.13.42 1.46.42.24 0 1.61-.49 1.3-.45 2.2-.38a4.7 4.7 0 0 1 3.65 1.87q-2.18 1.28-2.15 3.59.02 1.8 1.33 2.98.6.55 1.34.85M45.17 361l.02.38q0 1.4-1.06 2.62c-.85.96-1.87 1.52-2.98 1.43l-.03-.35a4.33 4.33 0 0 1 2.48-3.65q.84-.39 1.57-.43" clip-rule="evenodd"/><circle cx="125" cy="371" r="1" fill="#d9d9d9"/><path fill="#fff" d="M399.5 280.5v-24l17.4 17.4h-10.2l-.6.15z"/><path fill="#fff" d="m413.15 281.55-5.4 2.25-7.05-16.65 5.55-2.25z"/><path fill="#131722" d="m406.51 269.43-2.76 1.16 4.64 11.06 2.77-1.16z"/><path fill="#131722" d="M401 260.1v16.8l4.5-4.35.6-.15h7.2z"/></g></g><defs><linearGradient id="ctmvfsuzd" x1="-382" x2="-382" y1="30" y2="615" gradientUnits="userSpaceOnUse"><stop stop-color="#9013fe"/><stop offset="1" stop-color="#9013fe" stop-opacity="0"/></linearGradient><linearGradient id="dtmvfsuzd" x1="-150" x2="-150" y1="32" y2="617" gradientUnits="userSpaceOnUse"><stop stop-color="#ff9100"/><stop offset="1" stop-color="#ff9100" stop-opacity="0"/></linearGradient><linearGradient id="ftmvfsuzd" x1="362.5" x2="362.5" y1="0" y2="424" gradientUnits="userSpaceOnUse"><stop stop-color="#121314"/><stop offset="1" stop-color="#0b0b0c"/></linearGradient><linearGradient id="gtmvfsuzd" x1="138.52" x2="589.69" y1="-11.56" y2="621.37" gradientUnits="userSpaceOnUse"><stop stop-color="#fff"/><stop offset="1" stop-opacity="0"/></linearGradient><linearGradient id="htmvfsuzd" x1="612" x2="500" y1="212" y2="212" gradientUnits="userSpaceOnUse"><stop/><stop offset="1" stop-opacity="0"/></linearGradient><linearGradient id="itmvfsuzd" x1="224" x2="112" y1="636" y2="636" gradientUnits="userSpaceOnUse"><stop/><stop offset="1" stop-opacity="0"/></linearGradient><linearGradient id="jtmvfsuzd" x1="802" x2="612" y1="540" y2="540" gradientUnits="userSpaceOnUse"><stop/><stop offset="1" stop-opacity="0"/></linearGradient><linearGradient id="ltmvfsuzd" x1="261" x2="261" y1="303" y2="405" gradientUnits="userSpaceOnUse"><stop stop-color="#121314"/><stop offset="1" stop-color="#0b0b0c"/></linearGradient><linearGradient id="mtmvfsuzd" x1="26.69" x2="63.35" y1="300.22" y2="523.84" gradientUnits="userSpaceOnUse"><stop stop-color="#fff"/><stop offset="1" stop-opacity="0"/></linearGradient><linearGradient id="ntmvfsuzd" x1="29.7" x2="66.81" y1="360.24" y2="402.87" gradientUnits="userSpaceOnUse"><stop stop-color="#1a1e21"/><stop offset="1" stop-color="#06060a"/></linearGradient><clipPath id="atmvfsuzd"><path fill="#fff" d="M0 0h612v425H0z"/></clipPath><clipPath id="btmvfsuzd"><path fill="#fff" d="M0 0h612v452H0z"/></clipPath><filter id="etmvfsuzd" width="742" height="667" x="-8.5" y="-121.5" color-interpolation-filters="sRGB" filterUnits="userSpaceOnUse"><feFlood flood-opacity="0" result="BackgroundImageFix"/><feColorMatrix in="SourceAlpha" result="hardAlpha" values="0 0 0 0 0 0 0 0 0 0 0 0 0 0 0 0 0 0 127 0"/><feOffset/><feGaussianBlur stdDeviation="60.75"/><feComposite in2="hardAlpha" operator="out"/><feColorMatrix values="0 0 0 0 0 0 0 0 0 0 0 0 0 0 0 0 0 0 1 0"/><feBlend in2="BackgroundImageFix" result="effect1_dropShadow_13852_199664"/><feBlend in="SourceGraphic" in2="effect1_dropShadow_13852_199664" result="shape"/></filter><filter id="ktmvfsuzd" width="765" height="345" x="-121.5" y="181.5" color-interpolation-filters="sRGB" filterUnits="userSpaceOnUse"><feFlood flood-opacity="0" result="BackgroundImageFix"/><feColorMatrix in="SourceAlpha" result="hardAlpha" values="0 0 0 0 0 0 0 0 0 0 0 0 0 0 0 0 0 0 127 0"/><feOffset/><feGaussianBlur stdDeviation="60.75"/><feComposite in2="hardAlpha" operator="out"/><feColorMatrix values="0 0 0 0 0 0 0 0 0 0 0 0 0 0 0 0 0 0 1 0"/><feBlend in2="BackgroundImageFix" result="effect1_dropShadow_13852_199664"/><feBlend in="SourceGraphic" in2="effect1_dropShadow_13852_199664" result="shape"/></filter></defs></svg>