<svg xmlns="http://www.w3.org/2000/svg" width="200" height="80" viewBox="0 0 200 80"><path fill="#fff" d="M70.2 59.91h1.35c.01.48.48.89 1.1.89.64 0 1.01-.34 1.01-.82q.01-.55-.85-.81l-.82-.24c-1.47-.39-1.73-1.28-1.73-1.9 0-1.2 1.03-2.04 2.32-2.04s2.24.78 2.24 2.06h-1.36c0-.47-.34-.85-.91-.85-.53 0-.92.35-.92.8 0 .17.05.51.75.72l.74.21c1.02.3 1.91.83 1.91 1.97 0 1.35-1.15 2.08-2.41 2.08-1.43.01-2.41-.88-2.42-2.07m15.06 1.97h-1.38l-.5-4.2-1.63 3.43h-1.07l-1.66-3.42-.48 4.19h-1.4l.84-6.76h1.14l2.08 4.43 2.06-4.43h1.16zm6.72 0-.54-1.62h-2.52l-.53 1.62h-1.44l2.5-6.76h1.46l2.5 6.76zm-2.66-2.82h1.71l-.86-2.56zm9.53 2.82-1.6-2.43h-.45v2.43h-1.36v-6.76h2.68c1.54 0 2.2 1.1 2.2 2.21 0 .96-.67 1.9-1.62 2.07l1.73 2.48zm-2.05-5.56v2.03h1.08c.76 0 1.08-.46 1.08-1s-.34-1.03-.97-1.03zm10.41-1.2v1.2h-1.85v5.56H104v-5.56h-1.86v-1.2zm3.63 5.54h2.95v1.2h-4.3v-6.74h4.22v1.2h-2.87v1.61h2.5v1.22h-2.5zm8.93 1.22-1.6-2.43h-.46v2.43h-1.36v-6.76h2.68c1.54 0 2.2 1.1 2.2 2.21 0 .96-.67 1.9-1.62 2.07l1.73 2.48zm-2.06-5.56v2.03h1.09c.76 0 1.08-.46 1.08-1s-.34-1.03-.97-1.03zm13.81-1.2v1.2h-1.85v5.56h-1.36v-5.56h-1.85v-1.2zm5.7 6.76-1.6-2.43h-.46v2.43h-1.36v-6.76h2.68c1.54 0 2.2 1.1 2.2 2.21 0 .96-.67 1.9-1.62 2.07l1.73 2.48zm-2.06-5.56v2.03h1.09c.75 0 1.08-.46 1.08-1s-.34-1.03-.97-1.03zm10.27 5.56-.55-1.62h-2.5l-.54 1.62h-1.44l2.5-6.76h1.46l2.5 6.76zm-2.66-2.82h1.71l-.86-2.56zm8.75-3.94c1.94 0 3.05 1.47 3.05 3.4 0 1.92-1.12 3.36-3.05 3.36h-2.63v-6.76zm0 5.54c1.13 0 1.7-1 1.7-2.16s-.58-2.19-1.7-2.19h-1.27v4.34zm5.58 1.22v-6.76h1.36v6.76zm7.92-6.76h1.36v6.76h-1.21l-2.45-4.24v4.24h-1.35v-6.76h1.25l2.4 4.19zm3.85 3.38c0-1.91 1.5-3.5 3.44-3.5 1.01 0 1.9.42 2.48 1.09l-.98.85c-.39-.4-.91-.66-1.5-.66-1.17 0-2.08 1.03-2.08 2.23s.9 2.27 2.12 2.27c.88 0 1.74-.53 1.74-1.32h-1.9v-1.11h3.38c0 2.5-1.38 3.65-3.2 3.65a3.45 3.45 0 0 1-3.5-3.5M79.25 27.58A10.36 10.36 0 0 0 68.99 38c0 5.75 4.6 10.46 10.26 10.46S89.47 43.77 89.47 38s-4.58-10.43-10.22-10.43m-.03 16.33c-3.13 0-5.4-2.49-5.4-5.91 0-3.43 2.27-5.89 5.4-5.89s5.43 2.53 5.43 5.89-2.33 5.91-5.43 5.91m47.61-15.99v9.93l-7.27-9.93h-4.58v20.21h5.11V38.04l7.45 10.08h4.41v-20.2zm17.85 0h-8.4v20.21h8.4c5.5 0 9.19-4.04 9.19-10.06s-3.7-10.15-9.19-10.15m-3.28 4.6h3.28c2.78 0 4.04 2.88 4.04 5.55s-1.27 5.47-4.04 5.47h-3.28zm-34.94 15.61h5.5l-8.2-20.2h-5.09l-8.2 20.2h5.5l1.64-4.58h7.21zm-7.23-9.08 1.98-5.52 1.99 5.52zm71.27 9.08h5.5l-8.19-20.2h-5.08l-8.2 20.2h5.5l1.64-4.58h7.22zm-7.23-9.08 1.99-5.52 1.99 5.52zm-130.6 5.94h-5.73L24 33.73h5.74z"/><path fill="#00D37E" d="M57.09 35.33h-5.74L55.96 18h5.74zm-11.52-8.67-7.69 28.87h5.74l7.68-28.87z"/><path fill="#fff" d="M38.86 38h-5.73l4.62 17.52h5.8z"/></svg>