<svg width="645" height="362" viewBox="0 0 645 362" fill="none" xmlns="http://www.w3.org/2000/svg"><g clip-path="url(#ar32dklzd)"><path fill="#000" d="M0 0h645v362H0z"/><g opacity=".7"><g opacity=".5"><g opacity=".8"><g opacity=".5" filter="url(#br32dklzd)"><ellipse cx="278.98" cy="183.8" rx="275.64" ry="341" transform="rotate(-48.32 278.98 183.8)" fill="url(#cr32dklzd)"/></g></g><g opacity=".8"><g opacity=".5" filter="url(#dr32dklzd)"><ellipse cx="275.64" cy="341" rx="275.64" ry="341" transform="scale(-1 1) rotate(-48.32 -280.39 1702.34)" fill="url(#er32dklzd)"/></g><ellipse opacity=".6" cx="382.77" cy="265.25" rx="382.77" ry="265.25" transform="scale(-1 1) rotate(36.44 597.27 817.13)" fill="url(#fr32dklzd)" fill-opacity=".4"/><g opacity=".6" filter="url(#gr32dklzd)"><ellipse cx="380.41" cy="199.89" rx="380.41" ry="199.89" transform="scale(-1 1) rotate(-30 826.4 186.85)" fill="url(#hr32dklzd)"/></g></g><g filter="url(#ir32dklzd)"><path d="M1871.08 271.62h-168.63c-56.21 0-112.42 0-168.63 13.47-56.21 13.47-112.42 40.42-168.63 20.56-56.21-20.56-112.42-88.63-168.63-136.14-56.21-48.22-112.42-75.16-168.63-34.04-56.2 40.42-112.42 149.62-168.63 163.1-56.2 13.46-112.42-68.08-168.63-95.03-56.2-27.65-112.42 0-168.63-20.56-56.2-20.56-112.42-88.63-168.63-75.16-56.2 13.47-112.42 109.2-168.63 149.62-56.2 41.12-112.42 27.65-168.63 7.09-56.2-20.57-112.42-47.51-168.63-60.98-56.2-14.19-112.42-14.19-168.63 6.38-56.2 20.56-112.42 61.69-168.63 75.16-56.21 13.47-112.42 0-168.63 0-56.21 0-112.42 13.47-140.52 20.56l-28.11 6.38" stroke="url(#jr32dklzd)" stroke-opacity=".2" stroke-width="1.53"/></g><g filter="url(#kr32dklzd)"><path d="M1443.51 138.95H1340.83c-34.23 0-68.46 0-102.68 9.68-34.23 9.68-68.46 29.04-102.69 14.77-34.23-14.77-68.45-63.68-102.68-97.82-34.23-34.64-68.46-54-102.68-24.45-34.23 29.04-70.5 82.2-104.73 91.88-34.23 9.69-66.41-23.61-100.64-42.97-34.23-19.87-68.46 0-102.68-14.78-34.23-14.77-68.46-63.68-102.69-54-34.23 9.68-68.45 78.46-102.68 107.5-34.23 29.55-68.46 19.87-102.68 5.1-34.23-14.78-68.46-34.14-102.69-43.82-34.22-10.2-68.45-10.2-102.68 4.58-34.23 14.78-68.46 44.33-102.68 54-34.23 9.69-68.46 0-102.69 0-34.23 0-68.45 9.69-85.57 14.78l-17.11 4.59" stroke="url(#lr32dklzd)" stroke-opacity=".3" stroke-width="1.53"/></g><path transform="rotate(-90 -102 365)" fill="url(#mr32dklzd)" d="M-102 365H46v1196h-148z"/><path transform="matrix(0 1 1 0 -102 -20)" fill="url(#nr32dklzd)" d="M0 0h125v1196H0z"/></g><g filter="url(#or32dklzd)"><path d="M1871.08 271.62h-168.63c-56.21 0-112.42 0-168.63 13.47-56.21 13.47-112.42 40.42-168.63 20.56-56.21-20.56-112.42-88.63-168.63-136.14-56.21-48.22-112.42-75.16-168.63-34.04-56.2 40.42-112.42 149.62-168.63 163.1-56.2 13.46-112.42-68.08-168.63-95.03-56.2-27.65-112.42 0-168.63-20.56-56.2-20.56-112.42-88.63-168.63-75.16-56.2 13.47-112.42 109.2-168.63 149.62-56.2 41.12-112.42 27.65-168.63 7.09-56.2-20.57-112.42-47.51-168.63-60.98-56.2-14.19-112.42-14.19-168.63 6.38-56.2 20.56-112.42 61.69-168.63 75.16-56.21 13.47-112.42 0-168.63 0-56.21 0-112.42 13.47-140.52 20.56l-28.11 6.38" stroke="url(#pr32dklzd)" stroke-opacity=".5" stroke-width=".51"/></g><path d="M1443.51 138.95H1340.83c-34.23 0-68.46 0-102.68 9.68-34.23 9.68-68.46 29.04-102.69 14.77-34.23-14.77-68.45-63.68-102.68-97.82-34.23-34.64-68.46-54-102.68-24.45-34.23 29.04-66.67 79.4-100.9 89.08-34.23 9.68-70.24-20.81-104.47-40.17-34.23-19.87-68.46 0-102.68-14.78-34.23-14.77-68.46-63.68-102.69-54-34.23 9.68-68.45 78.46-102.68 107.5-34.23 29.55-68.46 19.87-102.68 5.1-34.23-14.78-68.46-34.14-102.69-43.82-34.22-10.2-68.45-10.2-102.68 4.58-34.23 14.78-68.46 44.33-102.68 54-34.23 9.69-68.46 0-102.69 0-34.23 0-68.45 9.69-85.57 14.78l-17.11 4.59" stroke="url(#qr32dklzd)" stroke-opacity=".5" stroke-width=".51"/></g><g clip-path="url(#rr32dklzd)"><rect x="73" y="134" width="94" height="94" rx="16" fill="#000"/><path d="M93.12 187.27a4.95 4.95 0 0 1-2.65-.69 4.56 4.56 0 0 1-1.72-1.96c-.4-.85-.6-1.85-.6-3.02v-.01a7 7 0 0 1 .6-3.03c.4-.84.98-1.5 1.72-1.96a4.91 4.91 0 0 1 2.64-.69c.82 0 1.56.16 2.22.49.66.32 1.2.76 1.61 1.33.42.57.67 1.22.75 1.95v.06h-1.9v-.04a2.64 2.64 0 0 0-2.68-2.12c-.6 0-1.14.16-1.59.49-.45.32-.8.79-1.04 1.39-.24.6-.36 1.3-.36 2.12v.01c0 .82.12 1.53.36 2.13.25.6.6 1.06 1.04 1.39a3.05 3.05 0 0 0 2.83.25 2.4 2.4 0 0 0 1.43-1.71l.03-.05h1.88v.06a3.91 3.91 0 0 1-2.34 3.16c-.65.3-1.4.45-2.23.45Zm11.44 0a4.63 4.63 0 0 1-4.5-2.66 6.8 6.8 0 0 1-.62-3.02v-.01c0-1.17.2-2.17.62-3.02a4.62 4.62 0 0 1 1.77-1.96 5.2 5.2 0 0 1 2.73-.69c1.05 0 1.95.23 2.72.69a4.58 4.58 0 0 1 1.77 1.96c.41.85.62 1.86.62 3.02v.01a6.8 6.8 0 0 1-.62 3.02c-.41.85-1 1.5-1.76 1.97a5.2 5.2 0 0 1-2.73.69Zm0-1.67c.64 0 1.2-.17 1.67-.5.47-.33.83-.8 1.09-1.4.26-.6.39-1.3.39-2.1v-.02c0-.82-.13-1.52-.4-2.12a3.11 3.11 0 0 0-1.08-1.38 2.83 2.83 0 0 0-1.67-.5c-.64 0-1.2.17-1.67.5-.47.32-.84.78-1.1 1.38-.26.6-.38 1.3-.38 2.12v.01c0 .81.12 1.52.37 2.12.26.6.62 1.06 1.09 1.4.47.32 1.04.49 1.69.49Zm7.37 1.4v-10.82h2.22l3.25 8.33h.13l3.25-8.33H123V187h-1.74v-7.7h-.95l1.92-2.82-4.1 10.52h-1.33l-4.1-10.52 1.92 2.83h-.95V187h-1.74Zm13.77 0v-10.82h7v1.63h-5.06v2.93h4.79v1.54h-4.8v3.1h5.08V187h-7Zm8.77 0 3.98-6.14-.45 1.54v-.87l-3.5-5.35h2.29l2.5 4.07h.9l-1.26.73 2.96-4.8h2.16l-3.61 5.4v.88l-.46-1.55L144 187h-2.22l-2.56-3.98h-.89l1.28-.71-3.02 4.69h-2.11Z" fill="#fff"/><g filter="url(#sr32dklzd)" fill="#fff"><path d="M94.12 188.38a4.7 4.7 0 0 1-4.53-3.05 8.85 8.85 0 0 1-.62-3.48v-.01c0-1.35.2-2.5.62-3.48a4.72 4.72 0 0 1 4.52-3.04 4.56 4.56 0 0 1 3.9 2.1c.43.67.69 1.42.79 2.28v.09h-1.93l-.03-.16a3.3 3.3 0 0 0-.53-1.25 2.5 2.5 0 0 0-2.2-1.1c-.64 0-1.2.18-1.66.55-.47.37-.84.9-1.1 1.58a6.95 6.95 0 0 0-.38 2.43 7 7 0 0 0 .39 2.43c.25.7.62 1.22 1.1 1.6a2.6 2.6 0 0 0 1.66.56 2.57 2.57 0 0 0 2.19-1.1c.25-.36.43-.8.55-1.3l.02-.1h1.93l-.01.1c-.1.85-.35 1.61-.77 2.27a4.49 4.49 0 0 1-3.91 2.08ZM105.25 188.38c-1.07 0-2-.27-2.78-.8a5.09 5.09 0 0 1-1.8-2.25 8.74 8.74 0 0 1-.64-3.48v-.01c0-1.34.21-2.5.63-3.47a5.13 5.13 0 0 1 1.82-2.25c.78-.53 1.7-.8 2.77-.8a4.8 4.8 0 0 1 2.77.8 5.08 5.08 0 0 1 1.8 2.25c.43.97.65 2.13.65 3.47v.01c0 1.34-.22 2.5-.64 3.47a5.15 5.15 0 0 1-1.8 2.26c-.78.53-1.7.8-2.78.8Zm0-1.95a2.7 2.7 0 0 0 1.71-.56c.48-.38.86-.9 1.11-1.6.26-.68.4-1.49.4-2.42v-.01c0-.93-.14-1.74-.4-2.42a3.53 3.53 0 0 0-1.12-1.59 2.7 2.7 0 0 0-1.7-.56c-.65 0-1.22.19-1.7.56-.49.37-.86.9-1.13 1.58a6.7 6.7 0 0 0-.4 2.43v.01c0 .94.14 1.75.4 2.43a3.6 3.6 0 0 0 1.12 1.6c.48.36 1.05.55 1.71.55ZM112.13 188.15v-12.6h2.27l3.36 9.64h.06l3.37-9.64h2.26v12.6h-1.76v-8.97h-.91l2-3.28-4.31 12.25h-1.35l-4.31-12.25 2 3.28h-.91v8.97h-1.77ZM125.51 188.15v-12.6h7.12v1.9h-5.15v3.4h4.87v1.8h-4.87v3.6h5.15v1.9h-7.12ZM133.81 188.15l4.05-7.15-.46 1.8v-1.02l-3.56-6.23h2.32l2.56 4.74h.9l-1.27.85 3-5.59h2.2l-3.67 6.29v1.02l-.46-1.8 4.07 7.09h-2.26l-2.6-4.64h-.9l1.3-.82-3.07 5.46h-2.15Z"/></g></g><rect x="73.5" y="134.5" width="93" height="93" rx="15.5" stroke="url(#tr32dklzd)"/><g clip-path="url(#ur32dklzd)"><rect x="477" y="134" width="94" height="94" rx="20.74" fill="#000"/><path d="M497.43 186v-11.1h1.72l5.95 8.35-1.37-.7h1v-7.65h1.9V186h-1.71l-5.95-8.35 1.37.7h-1V186h-1.91Zm15.06 0v-4.38l-3.9-6.72h2.17l2.65 4.76h.13l2.65-4.76h2.16l-3.89 6.72V186h-1.97Zm7.81 0v-11.1h2.28l3.33 8.55h.14l3.33-8.55h2.27V186h-1.78v-7.89h-.97l1.97-2.9-4.22 10.79h-1.35l-4.2-10.79 1.96 2.9h-.97V186h-1.79Zm14.13 0v-11.1h7.18v1.67h-5.2v3h4.92v1.59h-4.92v3.17h5.2V186h-7.18Zm8.99 0 4.08-6.3-.46 1.59v-.9l-3.59-5.49h2.35l2.57 4.18h.92l-1.3.74 3.04-4.92h2.22l-3.7 5.54v.9l-.48-1.58 4.12 6.24h-2.29l-2.62-4.08h-.9l1.3-.73-3.1 4.81h-2.16Z" fill="#fff"/><g filter="url(#vr32dklzd)" fill="#fff"><path d="M497.74 187.51v-11.64h1.79l6.42 9.45-1.74-1.33h.9v-8.12h1.99v11.64h-1.79l-6.41-9.47 1.72 1.33h-.9v8.14h-1.98ZM512.54 187.51v-4.59l-3.95-7.05h2.2l2.72 5.04h.08l2.71-5.04h2.2l-3.95 7.05v4.6h-2ZM520 187.51v-11.64h2.32l3.44 8.92h.08l3.43-8.92h2.32v11.64h-1.81v-8.28h-.95l2.04-3.04-4.39 11.32h-1.37l-4.38-11.32 2.03 3.04h-.94v8.28H520ZM533.9 187.51v-11.64h7.28v1.75h-5.28v3.15h5v1.67h-5v3.32h5.28v1.75h-7.29ZM542.56 187.51l4.15-6.6-.47 1.66v-.95l-3.65-5.75h2.39l2.61 4.38h.93l-1.3.78 3.08-5.16h2.26l-3.78 5.8v.95l-.47-1.66 4.19 6.55h-2.33l-2.67-4.28h-.92l1.33-.77-3.14 5.05h-2.2Z"/></g></g><rect x="477.5" y="134.5" width="93" height="93" rx="20.24" stroke="url(#wr32dklzd)" stroke-opacity=".7"/><g opacity=".6" filter="url(#xr32dklzd)"><ellipse cx="555.75" cy="154.48" rx="16.95" ry="30.98" transform="rotate(124.32 555.75 154.48)" fill="#00D9E7" fill-opacity=".3"/></g><g clip-path="url(#yr32dklzd)"><rect x="151" y="125" width="112" height="112" rx="16" fill="#000"/><path d="M182.03 190.31c-1.6 0-2.98-.35-4.16-1.05a7.07 7.07 0 0 1-2.72-3.01c-.63-1.3-.95-2.85-.95-4.63v-.02c0-1.78.32-3.32.95-4.62a7 7 0 0 1 2.72-3 7.9 7.9 0 0 1 4.16-1.05c1.28 0 2.43.25 3.45.74a6.64 6.64 0 0 1 2.5 2.06 6.3 6.3 0 0 1 1.17 3.02v.1h-2.93l-.04-.17a4.1 4.1 0 0 0-.8-1.68 3.7 3.7 0 0 0-1.41-1.09 4.55 4.55 0 0 0-1.94-.4 4.35 4.35 0 0 0-4.18 2.85c-.39.91-.58 1.99-.58 3.24v.02c0 1.24.2 2.32.58 3.23a4.34 4.34 0 0 0 4.18 2.87c.71 0 1.35-.12 1.91-.37a3.7 3.7 0 0 0 1.42-1.08c.39-.48.67-1.06.85-1.73l.02-.1h2.94l-.01.11a6.32 6.32 0 0 1-3.68 5.04 7.97 7.97 0 0 1-3.45.72Zm11.2-.31v-2.32h4.86c1.1 0 1.94-.22 2.5-.67.59-.44.88-1.09.88-1.93v-.03c0-.56-.13-1.04-.4-1.41a2.37 2.37 0 0 0-1.18-.88 5.71 5.71 0 0 0-1.95-.28h-4.72v-2.15h4.24a4 4 0 0 0 2.45-.64c.57-.43.85-1.03.85-1.81v-.03c0-.72-.25-1.29-.74-1.68-.49-.4-1.18-.6-2.08-.6h-4.72v-2.33h5.46a6.3 6.3 0 0 1 2.67.52c.76.35 1.35.83 1.76 1.46.4.62.61 1.36.61 2.22v.02a3.63 3.63 0 0 1-1.52 2.98c-.47.35-1 .57-1.6.65v.1c.78.06 1.47.28 2.06.65a3.88 3.88 0 0 1 1.88 3.4v.01c0 .98-.24 1.83-.7 2.54a4.54 4.54 0 0 1-1.99 1.64c-.85.38-1.87.57-3.07.57h-5.56Zm-1.5 0v-16.76h2.98V190h-2.98Zm22.6.31a8.18 8.18 0 0 1-4.24-1.05 7.1 7.1 0 0 1-2.75-3.01c-.65-1.3-.97-2.84-.97-4.62v-.03c0-1.78.33-3.31.98-4.6a7.1 7.1 0 0 1 2.75-3.01c1.2-.7 2.6-1.06 4.23-1.06a8.1 8.1 0 0 1 4.21 1.06 7 7 0 0 1 2.75 3c.66 1.3.98 2.83.98 4.61v.03c0 1.78-.32 3.32-.98 4.62a7.12 7.12 0 0 1-2.74 3 8.12 8.12 0 0 1-4.22 1.06Zm0-2.59c1 0 1.87-.24 2.6-.74s1.3-1.21 1.7-2.13c.39-.9.59-1.98.59-3.22v-.03c0-1.24-.2-2.32-.6-3.22a4.49 4.49 0 0 0-4.29-2.86 4.52 4.52 0 0 0-4.3 2.84c-.4.91-.6 1.99-.6 3.24v.03c0 1.24.2 2.31.59 3.22.4.92.97 1.63 1.7 2.13s1.6.74 2.6.74Zm13.82 2.28v-14.24h-5.04v-2.52h13.06v2.52h-5.04V190h-2.98Z" fill="#fff"/><g filter="url(#zr32dklzd)" fill="#fff"><path d="M181.08 191a8.19 8.19 0 0 1-4.29-1.1 7.33 7.33 0 0 1-2.8-3.1 10.87 10.87 0 0 1-.99-4.8v-.02c0-1.85.33-3.44.98-4.78a7.26 7.26 0 0 1 2.81-3.1 8.15 8.15 0 0 1 4.3-1.1c1.32 0 2.5.26 3.56.77a6.53 6.53 0 0 1 3.79 5.25v.11h-3.03l-.04-.18a4.26 4.26 0 0 0-.83-1.73 3.81 3.81 0 0 0-1.45-1.13 4.69 4.69 0 0 0-2-.4 4.49 4.49 0 0 0-4.32 2.94c-.4.94-.6 2.05-.6 3.35v.01c0 1.3.2 2.41.6 3.36a4.47 4.47 0 0 0 4.32 2.97c.73 0 1.39-.13 1.97-.39a3.8 3.8 0 0 0 1.47-1.11c.4-.5.69-1.1.87-1.8l.03-.1h3.03l-.01.12a6.55 6.55 0 0 1-3.8 5.22 8.2 8.2 0 0 1-3.57.74ZM192.65 190.68v-2.4h5.02c1.14 0 2-.24 2.6-.7.6-.46.9-1.13.9-2v-.03c0-.58-.14-1.07-.42-1.46-.27-.4-.68-.7-1.22-.9-.54-.2-1.22-.3-2.01-.3h-4.87v-2.23h4.37a4.1 4.1 0 0 0 2.53-.66c.59-.44.88-1.07.88-1.88v-.02a2.1 2.1 0 0 0-.77-1.75 3.28 3.28 0 0 0-2.14-.62h-4.87v-2.4h5.63a6.5 6.5 0 0 1 2.76.54 4.1 4.1 0 0 1 1.81 1.5c.43.65.64 1.41.64 2.3v.02a3.76 3.76 0 0 1-1.57 3.09 3.6 3.6 0 0 1-1.66.67v.1c.81.07 1.52.3 2.13.67a4.02 4.02 0 0 1 1.94 3.51v.03c0 1.02-.24 1.9-.72 2.63a4.7 4.7 0 0 1-2.05 1.7c-.88.39-1.94.59-3.18.59h-5.73Zm-1.55 0v-17.36h3.08v17.36h-3.08ZM214.44 191a8.43 8.43 0 0 1-4.38-1.1 7.36 7.36 0 0 1-2.84-3.1c-.66-1.36-1-2.95-1-4.8v-.02c0-1.84.34-3.43 1.01-4.77a7.36 7.36 0 0 1 2.84-3.12 8.41 8.41 0 0 1 4.37-1.09c1.68 0 3.13.37 4.35 1.1a7.25 7.25 0 0 1 2.84 3.1c.68 1.35 1.01 2.94 1.01 4.78v.03c0 1.84-.33 3.44-1 4.78a7.37 7.37 0 0 1-2.83 3.12 8.37 8.37 0 0 1-4.37 1.09Zm0-2.68c1.04 0 1.93-.26 2.69-.77a4.98 4.98 0 0 0 1.75-2.2c.4-.95.6-2.06.6-3.34v-.03c0-1.29-.2-2.4-.61-3.34a4.63 4.63 0 0 0-4.43-2.96 4.66 4.66 0 0 0-4.44 2.95 8.23 8.23 0 0 0-.62 3.35v.03c0 1.28.2 2.4.61 3.34.42.94 1 1.68 1.75 2.2a4.7 4.7 0 0 0 2.7.77ZM228.71 190.68v-14.75h-5.2v-2.6H237v2.6h-5.2v14.75h-3.09Z"/></g></g><rect x="151.5" y="125.5" width="111" height="111" rx="15.5" stroke="url(#aar32dklzd)" stroke-opacity=".7"/><g clip-path="url(#abr32dklzd)"><rect x="381" y="125" width="112" height="112" rx="16" fill="#000"/><path d="M418.62 188.31c-1.6 0-2.98-.35-4.16-1.05a7.09 7.09 0 0 1-2.72-3.02c-.64-1.3-.96-2.84-.96-4.64 0-1.8.32-3.34.96-4.63a7.02 7.02 0 0 1 2.72-3 7.92 7.92 0 0 1 4.16-1.06c1.29 0 2.44.25 3.45.74a6.63 6.63 0 0 1 2.5 2.06 6.31 6.31 0 0 1 1.18 3.02l.01.1h-2.94l-.05-.17a4.12 4.12 0 0 0-.8-1.67 3.81 3.81 0 0 0-1.42-1.1c-.56-.26-1.2-.39-1.93-.39a4.36 4.36 0 0 0-4.2 2.85c-.38.9-.58 1.99-.58 3.24v.01c0 1.25.2 2.33.58 3.25.4.91.95 1.62 1.67 2.13.72.5 1.56.74 2.53.74.71 0 1.35-.12 1.92-.37a3.8 3.8 0 0 0 1.42-1.1c.39-.47.67-1.04.85-1.72l.02-.1h2.94l-.01.12a6.32 6.32 0 0 1-3.69 5.04 7.97 7.97 0 0 1-3.45.72Zm9.71-.31v-16.78h3.46l5.12 12.85h.1l5.12-12.85h3.46V188h-2.7v-11.94h-1.4l3.04-4.37-6.55 16.31h-2.04l-6.55-16.31 3.04 4.37h-1.4V188h-2.7Zm20.53 0v-16.78h10.84v2.52h-7.85v4.54h7.42v2.4h-7.42v4.8h7.85V188h-10.84Z" fill="#fff"/><g filter="url(#acr32dklzd)" fill="#fff"><path d="M416.65 187c-1.76 0-3.3-.3-4.6-.91a6.97 6.97 0 0 1-3-2.6 7.4 7.4 0 0 1-1.05-4c0-1.55.35-2.88 1.05-4a6.9 6.9 0 0 1 3-2.58c1.3-.6 2.83-.91 4.6-.91 1.42 0 2.7.21 3.81.64a7.23 7.23 0 0 1 2.76 1.78 4.82 4.82 0 0 1 1.3 2.6l.01.09h-3.25l-.05-.15a3.29 3.29 0 0 0-.88-1.44c-.41-.41-.93-.72-1.56-.95a6.25 6.25 0 0 0-2.14-.34c-1.07 0-2 .22-2.8.65a4.47 4.47 0 0 0-1.82 1.8 5.74 5.74 0 0 0-.64 2.8v.02c0 1.07.21 2 .64 2.8.43.78 1.04 1.39 1.84 1.82.8.43 1.72.65 2.78.65.79 0 1.5-.11 2.12-.33a4.12 4.12 0 0 0 1.56-.93c.43-.41.75-.9.94-1.49l.03-.09h3.24v.1c-.17.98-.6 1.85-1.32 2.6a7.2 7.2 0 0 1-2.76 1.75c-1.12.41-2.39.62-3.8.62ZM427.37 186.73v-14.46h3.81l5.66 11.07h.12l5.65-11.07h3.8v14.46h-2.97v-10.3h-1.54l3.35-3.76-7.23 14.06h-2.26l-7.22-14.06 3.35 3.77h-1.54v10.29h-2.98ZM450.02 186.73v-14.46H462v2.17h-8.68v3.91h8.2v2.08h-8.2v4.13H462v2.17h-11.98Z"/></g></g><rect x="381.5" y="125.5" width="111" height="111" rx="15.5" stroke="url(#adr32dklzd)"/><g filter="url(#aer32dklzd)"><rect x="247" y="106" width="150" height="150" rx="28.13" fill="#000"/><rect x="248.88" y="107.88" width="146.25" height="146.25" rx="26.25" stroke="url(#afr32dklzd)" stroke-width="3.75"/><rect x="248.88" y="107.88" width="146.25" height="146.25" rx="26.25" stroke="#000" stroke-opacity=".3" stroke-width="3.75"/></g><mask id="agr32dklzd" style="mask-type:luminance" maskUnits="userSpaceOnUse" x="285" y="144" width="75" height="77"><path d="M359.34 144.61h-73.72v75.64h73.72v-75.64Z" fill="#fff"/></mask><g mask="url(#agr32dklzd)"><path fill-rule="evenodd" clip-rule="evenodd" d="M306.76 144.61h7.18c-4.3 4.11-7.75 9.45-10.16 15.67h-12.1l15.08-15.67Zm14.38 15.67H306.5c2.65-6.45 6.5-11.83 11.32-15.67h3.33v15.67Zm6-15.67h-3.33v15.67h14.63c-2.65-6.45-6.5-11.83-11.3-15.67Zm10.77 0 15.3 15.67h-12.06A42.8 42.8 0 0 0 331 144.6h6.9Zm-35.1 18.4h-13.77l-3.43 3.56v14.37h14.26a61.83 61.83 0 0 1 2.94-17.93Zm18.33 17.93H302.4c.13-6.45 1.19-12.5 3.05-17.93h15.7v17.93Zm2.67 0h18.69a59.01 59.01 0 0 0-3.03-17.93H323.8v17.93Zm18.3-17.93h13.76l3.47 3.56v14.37h-14.32a61.87 61.87 0 0 0-2.9-17.93Zm-56.5 20.67h14.26a61.83 61.83 0 0 0 2.95 18.06h-13.88l-3.32-3.4v-14.66Zm19.86 18.06h15.67v-18.06H302.4c.12 6.49 1.18 12.6 3.07 18.06Zm37.02-18.06H323.8v18.06h15.57a58.93 58.93 0 0 0 3.1-18.06Zm-.47 18.06h13.9l3.42-3.5v-14.56h-14.33a61.83 61.83 0 0 1-2.99 18.06Zm-35.01 18.51-15.4-15.78h12.2c2.44 6.25 5.94 11.64 10.32 15.78h-7.12Zm11.01 0h3.12v-15.78h-14.63c2.69 6.5 6.61 11.91 11.51 15.78Zm5.8-15.78v15.78h2.98c4.9-3.87 8.83-9.28 11.54-15.78H323.8Zm14.03 15.78h-7.16a43.26 43.26 0 0 0 10.35-15.78h12.21l-15.4 15.78Z" fill="#25A9E0"/></g><g opacity=".6" filter="url(#ahr32dklzd)"><ellipse cx="84.65" cy="214.14" rx="16.11" ry="23.41" transform="rotate(124.32 84.65 214.14)" fill="#8DED97" fill-opacity=".3"/></g><g opacity=".5" filter="url(#air32dklzd)"><ellipse cx="342.04" cy="115.75" rx="15.65" ry="54.3" transform="rotate(-92.62 342.04 115.75)" fill="#00B5FF" fill-opacity=".5"/></g><g opacity=".3" filter="url(#ajr32dklzd)"><ellipse cx="60.94" cy="64.39" rx="60.94" ry="64.39" transform="matrix(-1 0 0 1 382.27 116.71)" fill="#25A9E0" fill-opacity=".3"/></g></g><defs><linearGradient id="cr32dklzd" x1="142.4" y1="244.19" x2="416.57" y2="255.04" gradientUnits="userSpaceOnUse"><stop offset="0" stop-color="#0298F6"/></linearGradient><linearGradient id="er32dklzd" x1="139.07" y1="401.38" x2="413.24" y2="412.24" gradientUnits="userSpaceOnUse"><stop offset="0" stop-color="#0298F6"/></linearGradient><linearGradient id="fr32dklzd" x1="193.12" y1="312.22" x2="572.55" y2="339.05" gradientUnits="userSpaceOnUse"><stop offset="1" stop-color="#0384FC"/></linearGradient><linearGradient id="hr32dklzd" x1="191.92" y1="235.29" x2="567.63" y2="270.32" gradientUnits="userSpaceOnUse"><stop offset=".36" stop-color="#029CFD"/></linearGradient><linearGradient id="jr32dklzd" x1="522.04" y1="106.07" x2="522.04" y2="312.71" gradientUnits="userSpaceOnUse"><stop stop-color="#0DEE8A"/><stop offset=".49" stop-color="#08BDC1"/><stop offset="1" stop-color="#00A3FF"/></linearGradient><linearGradient id="lr32dklzd" x1="622.05" y1="20" x2="622.05" y2="168.48" gradientUnits="userSpaceOnUse"><stop stop-color="#0DEE8A"/><stop offset=".49" stop-color="#08BDC1"/><stop offset="1" stop-color="#00A3FF"/></linearGradient><linearGradient id="mr32dklzd" x1="-87.27" y1="906.44" x2="28.35" y2="906.44" gradientUnits="userSpaceOnUse"><stop/><stop offset="1" stop-opacity="0"/></linearGradient><linearGradient id="nr32dklzd" x1="12.44" y1="541.44" x2="110.09" y2="541.44" gradientUnits="userSpaceOnUse"><stop/><stop offset="1" stop-opacity="0"/></linearGradient><linearGradient id="pr32dklzd" x1="522.04" y1="106.07" x2="522.04" y2="312.71" gradientUnits="userSpaceOnUse"><stop stop-color="#0DEE8A"/><stop offset=".49" stop-color="#08BDC1"/><stop offset="1" stop-color="#00A3FF"/></linearGradient><linearGradient id="qr32dklzd" x1="622.05" y1="20" x2="622.05" y2="168.48" gradientUnits="userSpaceOnUse"><stop stop-color="#0DEE8A"/><stop offset=".49" stop-color="#08BDC1"/><stop offset="1" stop-color="#00A3FF"/></linearGradient><linearGradient id="tr32dklzd" x1="67.23" y1="252.28" x2="332.8" y2="210.07" gradientUnits="userSpaceOnUse"><stop/><stop offset=".18" stop-color="#1182C1"/><stop offset=".44" stop-color="#252525"/><stop offset=".62" stop-color="#25A9E0"/><stop offset=".84" stop-color="#135ED1"/><stop offset="1"/></linearGradient><linearGradient id="wr32dklzd" x1="428.14" y1="181.46" x2="571" y2="181.29" gradientUnits="userSpaceOnUse"><stop stop-opacity=".49"/><stop offset=".24" stop-color="#7D9AAA" stop-opacity=".49"/><stop offset=".97" stop-color="#00D9E7" stop-opacity=".59"/></linearGradient><linearGradient id="aar32dklzd" x1="151" y1="181" x2="263" y2="181" gradientUnits="userSpaceOnUse"><stop stop-color="#8DED97" stop-opacity=".49"/><stop offset=".24" stop-color="#0096EA" stop-opacity=".49"/><stop offset=".97" stop-color="#00D9E7" stop-opacity=".59"/></linearGradient><linearGradient id="adr32dklzd" x1="283.5" y1="22.5" x2="400.93" y2="292.08" gradientUnits="userSpaceOnUse"><stop/><stop offset=".18" stop-color="#1182C1" stop-opacity=".49"/><stop offset=".38"/><stop offset=".62" stop-color="#25A9E0" stop-opacity=".51"/><stop offset=".84" stop-color="#135ED1" stop-opacity=".47"/><stop offset="1"/></linearGradient><linearGradient id="afr32dklzd" x1="304.19" y1="256" x2="396.45" y2="105.66" gradientUnits="userSpaceOnUse"><stop stop-color="#1B8AC7"/><stop offset=".81" stop-color="#6CCDFF"/></linearGradient><filter id="br32dklzd" x="-422.83" y="-510.47" width="1403.61" height="1388.54" filterUnits="userSpaceOnUse" color-interpolation-filters="sRGB"><feFlood flood-opacity="0" result="BackgroundImageFix"/><feBlend in="SourceGraphic" in2="BackgroundImageFix" result="shape"/><feGaussianBlur stdDeviation="194" result="effect1_foregroundBlur_2937_455829"/></filter><filter id="dr32dklzd" x="225.56" y="-312.47" width="1403.61" height="1388.54" filterUnits="userSpaceOnUse" color-interpolation-filters="sRGB"><feFlood flood-opacity="0" result="BackgroundImageFix"/><feBlend in="SourceGraphic" in2="BackgroundImageFix" result="shape"/><feGaussianBlur stdDeviation="194" result="effect1_foregroundBlur_2937_455829"/></filter><filter id="gr32dklzd" x="-1179.04" y="-224.04" width="1464.72" height="1290.38" filterUnits="userSpaceOnUse" color-interpolation-filters="sRGB"><feFlood flood-opacity="0" result="BackgroundImageFix"/><feBlend in="SourceGraphic" in2="BackgroundImageFix" result="shape"/><feGaussianBlur stdDeviation="194" result="effect1_foregroundBlur_2937_455829"/></filter><filter id="ir32dklzd" x="-829.21" y="103.26" width="2702.33" height="212.25" filterUnits="userSpaceOnUse" color-interpolation-filters="sRGB"><feFlood flood-opacity="0" result="BackgroundImageFix"/><feBlend in="SourceGraphic" in2="BackgroundImageFix" result="shape"/><feGaussianBlur stdDeviation="1.02" result="effect1_foregroundBlur_2937_455829"/></filter><filter id="kr32dklzd" x="-201.66" y="17.19" width="1647.21" height="154.09" filterUnits="userSpaceOnUse" color-interpolation-filters="sRGB"><feFlood flood-opacity="0" result="BackgroundImageFix"/><feBlend in="SourceGraphic" in2="BackgroundImageFix" result="shape"/><feGaussianBlur stdDeviation="1.02" result="effect1_foregroundBlur_2937_455829"/></filter><filter id="or32dklzd" x="-828.08" y="104.79" width="2700.18" height="209.19" filterUnits="userSpaceOnUse" color-interpolation-filters="sRGB"><feFlood flood-opacity="0" result="BackgroundImageFix"/><feBlend in="SourceGraphic" in2="BackgroundImageFix" result="shape"/><feGaussianBlur stdDeviation=".51" result="effect1_foregroundBlur_2937_455829"/></filter><filter id="sr32dklzd" x="48.97" y="135.32" width="134.59" height="93.05" filterUnits="userSpaceOnUse" color-interpolation-filters="sRGB"><feFlood flood-opacity="0" result="BackgroundImageFix"/><feBlend in="SourceGraphic" in2="BackgroundImageFix" result="shape"/><feGaussianBlur stdDeviation="20" result="effect1_foregroundBlur_2937_455829"/></filter><filter id="vr32dklzd" x="470.33" y="148.46" width="109.64" height="66.47" filterUnits="userSpaceOnUse" color-interpolation-filters="sRGB"><feFlood flood-opacity="0" result="BackgroundImageFix"/><feBlend in="SourceGraphic" in2="BackgroundImageFix" result="shape"/><feGaussianBlur stdDeviation="13.7" result="effect1_foregroundBlur_2937_455829"/></filter><filter id="xr32dklzd" x="490.7" y="94.37" width="130.1" height="120.23" filterUnits="userSpaceOnUse" color-interpolation-filters="sRGB"><feFlood flood-opacity="0" result="BackgroundImageFix"/><feBlend in="SourceGraphic" in2="BackgroundImageFix" result="shape"/><feGaussianBlur stdDeviation="18.86" result="effect1_foregroundBlur_2937_455829"/></filter><filter id="zr32dklzd" x="133" y="133" width="144" height="98" filterUnits="userSpaceOnUse" color-interpolation-filters="sRGB"><feFlood flood-opacity="0" result="BackgroundImageFix"/><feBlend in="SourceGraphic" in2="BackgroundImageFix" result="shape"/><feGaussianBlur stdDeviation="20" result="effect1_foregroundBlur_2937_455829"/></filter><filter id="acr32dklzd" x="377.1" y="141.1" width="115.79" height="76.79" filterUnits="userSpaceOnUse" color-interpolation-filters="sRGB"><feFlood flood-opacity="0" result="BackgroundImageFix"/><feBlend in="SourceGraphic" in2="BackgroundImageFix" result="shape"/><feGaussianBlur stdDeviation="15.45" result="effect1_foregroundBlur_2937_455829"/></filter><filter id="aer32dklzd" x="243.39" y="102.39" width="157.23" height="157.23" filterUnits="userSpaceOnUse" color-interpolation-filters="sRGB"><feFlood flood-opacity="0" result="BackgroundImageFix"/><feGaussianBlur in="BackgroundImageFix" stdDeviation="1.81"/><feComposite in2="SourceAlpha" operator="in" result="effect1_backgroundBlur_2937_455829"/><feBlend in="SourceGraphic" in2="effect1_backgroundBlur_2937_455829" result="shape"/></filter><filter id="ahr32dklzd" x="25.55" y="157.66" width="118.19" height="112.94" filterUnits="userSpaceOnUse" color-interpolation-filters="sRGB"><feFlood flood-opacity="0" result="BackgroundImageFix"/><feBlend in="SourceGraphic" in2="BackgroundImageFix" result="shape"/><feGaussianBlur stdDeviation="18.86" result="effect1_foregroundBlur_2937_455829"/></filter><filter id="air32dklzd" x="237.8" y="49.91" width="208.49" height="131.67" filterUnits="userSpaceOnUse" color-interpolation-filters="sRGB"><feFlood flood-opacity="0" result="BackgroundImageFix"/><feBlend in="SourceGraphic" in2="BackgroundImageFix" result="shape"/><feGaussianBlur stdDeviation="25" result="effect1_foregroundBlur_2937_455829"/></filter><filter id="ajr32dklzd" x="230.39" y="86.71" width="181.88" height="188.77" filterUnits="userSpaceOnUse" color-interpolation-filters="sRGB"><feFlood flood-opacity="0" result="BackgroundImageFix"/><feBlend in="SourceGraphic" in2="BackgroundImageFix" result="shape"/><feGaussianBlur stdDeviation="15" result="effect1_foregroundBlur_2937_455829"/></filter><clipPath id="ar32dklzd"><path fill="#fff" d="M0 0h645v362H0z"/></clipPath><clipPath id="rr32dklzd"><rect x="73" y="134" width="94" height="94" rx="16" fill="#fff"/></clipPath><clipPath id="ur32dklzd"><rect x="477" y="134" width="94" height="94" rx="20.74" fill="#fff"/></clipPath><clipPath id="yr32dklzd"><rect x="151" y="125" width="112" height="112" rx="16" fill="#fff"/></clipPath><clipPath id="abr32dklzd"><rect x="381" y="125" width="112" height="112" rx="16" fill="#fff"/></clipPath></defs></svg>