<svg xmlns="http://www.w3.org/2000/svg" width="200" height="60" viewBox="0 0 200 60"><path fill="#fff" fill-rule="evenodd" d="M46.77 14a.76.76 0 0 0-.77.76v30.48c0 .42.34.76.77.76H77.6c.42 0 .76-.34.76-.76V14.76a.76.76 0 0 0-.76-.76zM57.5 24.63c-.4 0-.75.33-.75.75v9.24c0 .42.34.76.76.76h9.35c.43 0 .77-.34.77-.76v-9.24a.76.76 0 0 0-.77-.76h-9.35m64.13-9.88c0-.42.34-.75.76-.75h9.35c.42 0 .77.34.77.76V24c0 .42-.34.75-.77.75h-9.36a.76.76 0 0 1-.76-.75v-9.25m0 21.25c0-.42.34-.75.76-.75h9.35c.42 0 .77.33.77.75v9.24c0 .42-.34.75-.77.75h-9.36a.76.76 0 0 1-.76-.76zm11.5-11.37q-.31 0-.54.22a.8.8 0 0 0-.22.53v9.24c0 .42.34.76.77.76h9.35c.42 0 .76-.34.76-.76v-9.24a.76.76 0 0 0-.77-.76zm10 11.37c0-.42.33-.75.76-.75h9.34c.43 0 .77.33.77.75v9.24c0 .42-.34.75-.77.75h-9.34q-.31 0-.54-.22a.8.8 0 0 1-.22-.54zm.76-22a.76.76 0 0 0-.77.76V24c0 .42.34.75.77.75h9.34c.43 0 .77-.33.77-.75v-9.24a.75.75 0 0 0-.77-.75zm-59.45 0a.76.76 0 0 0-.76.76v30.48c0 .42.34.76.77.76h9.35c.43 0 .76-.34.76-.76v-9.86h10.12c.42 0 .76-.34.76-.75v-9.25a.76.76 0 0 0-.77-.76h-10.1v-9.86a.75.75 0 0 0-.77-.75h-9.33zm21.76 0a.76.76 0 0 0-.77.76V24c0 .42.34.75.77.75h9.35c.43 0 .77-.33.77-.75v-9.24a.75.75 0 0 0-.77-.75zm0 21.25a.76.76 0 0 0-.77.75v9.24c0 .42.34.75.77.75h9.35c.43 0 .77-.34.77-.76v-9.22a.76.76 0 0 0-.77-.76z"/></svg>