<svg xmlns="http://www.w3.org/2000/svg" width="132" height="60" viewBox="0 0 132 60"><path fill="#fff" fill-rule="evenodd" d="M19.66 16c-.37 0-.66.3-.66.66v26.68c0 .37.3.66.66.66h26.56c.36 0 .66-.3.66-.66V16.66c0-.37-.3-.66-.66-.66zm9.24 9.3c-.35 0-.64.3-.64.65v8.1c0 .36.3.66.65.66h8.06c.36 0 .66-.3.66-.66v-8.1c0-.36-.3-.66-.66-.66H28.9m55.22-8.64c0-.37.3-.66.66-.66h8.05c.37 0 .66.3.66.66v8.1c0 .35-.3.65-.66.65h-8.05a.66.66 0 0 1-.66-.66zm0 18.59c0-.36.3-.66.66-.66h8.05c.37 0 .66.3.66.66v8.09c0 .37-.3.65-.66.65h-8.05a.66.66 0 0 1-.66-.66zm9.9-9.95a.66.66 0 0 0-.65.65v8.1c0 .36.3.66.66.66h8.06c.36 0 .65-.3.65-.66v-8.1c0-.36-.3-.66-.66-.66zm8.61 9.95c0-.36.3-.66.66-.66h8.05c.37 0 .66.3.66.66v8.09c0 .37-.3.65-.66.65h-8.05a.66.66 0 0 1-.65-.66v-8.08M103.3 16c-.37 0-.66.3-.66.66v8.1c0 .35.3.65.66.65h8.05c.37 0 .66-.3.66-.66v-8.09c0-.37-.3-.65-.66-.65zm-51.2 0c-.36 0-.65.3-.65.66v26.68c0 .37.3.66.66.66h8.05c.37 0 .66-.3.66-.66V34.7h8.71c.36 0 .65-.3.65-.66v-8.1a.66.66 0 0 0-.66-.66h-8.7v-8.63c0-.37-.3-.65-.66-.65h-8.04zm18.74 0c-.37 0-.66.3-.66.66v8.1c0 .35.29.65.66.65h8.05c.37 0 .66-.3.66-.66v-8.09c0-.37-.3-.65-.66-.65zm0 18.59c-.37 0-.66.3-.66.66v8.09c0 .37.29.65.66.65h8.05c.37 0 .66-.3.66-.66v-8.07c0-.37-.3-.66-.66-.66z"/></svg>