<svg xmlns="http://www.w3.org/2000/svg" width="612" height="324" fill="none" viewBox="0 0 612 324"><path fill="#000" d="M0 0h612v324H0z"/><path fill="url(#a53vyguo3)" d="M0 15.6A15.6 15.6 0 0 1 15.6 0h448.8A15.6 15.6 0 0 1 480 15.6v73.8a15.6 15.6 0 0 1-15.6 15.6H15.6A15.6 15.6 0 0 1 0 89.4z"/><path stroke="url(#b53vyguo3)" stroke-opacity=".2" stroke-width="2" d="M15.6 1h448.8A14.6 14.6 0 0 1 479 15.6v73.8a14.6 14.6 0 0 1-14.6 14.6H15.6A14.6 14.6 0 0 1 1 89.4V15.6A14.6 14.6 0 0 1 15.6 1Z"/><path fill="#42bda8" d="M4 16A12 12 0 0 1 16 4h48v97H16A12 12 0 0 1 4 89z" opacity=".15"/><path fill="#42bda8" d="M48 52a14 14 0 1 1-28 0 14 14 0 0 1 28 0m-6.37-3.23L39.9 46.9l-7.2 6.75-4.66-4.04-1.67 1.92 6.39 5.55z"/><path fill="#fff" d="M81.06 37.6V22.8h2.67l4.73 11.8h.13l4.73-11.8H96v14.8h-2.1V26.73h-1.1l2.39-3.52-5.8 14.39h-1.7l-5.8-14.39 2.39 3.52h-1.1V37.6zm20.57.2a4 4 0 0 1-1.89-.41 3 3 0 0 1-1.29-1.15 3 3 0 0 1-.47-1.75v-.02q0-.97.47-1.67.49-.7 1.4-1.1a7 7 0 0 1 2.23-.49l4.1-.24v1.56l-3.8.25q-1.1.06-1.63.48-.55.42-.55 1.14v.01q0 .76.57 1.18t1.47.42q.81 0 1.44-.33a2.5 2.5 0 0 0 1-.89q.38-.57.38-1.27v-3.4q0-.9-.57-1.4t-1.65-.5q-.94 0-1.53.37a1.6 1.6 0 0 0-.76.96l-.02.06h-2.12l.01-.09q.11-.92.69-1.63t1.55-1.1 2.26-.4q1.38 0 2.35.44a3.3 3.3 0 0 1 2.01 3.22v7.55h-2.22v-1.62h-.13a3.5 3.5 0 0 1-1.94 1.6q-.62.21-1.36.22m7.99-.2v-11h2.22v1.74h.14q.27-.9 1-1.42a3 3 0 0 1 1.74-.53 4 4 0 0 1 .9.1v2.06a5 5 0 0 0-1.12-.13q-.8 0-1.4.32t-.93.9a3 3 0 0 0-.33 1.4v6.56zm7.53 0V22.36h2.22V37.6zm6.93 0-3.93-5.14 1.57-1.46 5.02 6.6zm-4.99-3.7-.06-2.65h.46l4.38-4.65h2.62l-5.04 5.17-.66.44zm13.01 3.92q-1.62 0-2.78-.7a4.6 4.6 0 0 1-1.79-1.97 7 7 0 0 1-.61-3.02q0-1.73.62-3.02t1.77-2.01a5 5 0 0 1 2.67-.72q1.54 0 2.65.7 1.11.69 1.71 1.93t.6 2.9v.77h-8.9v-1.6h7.8l-1.07 1.49v-.89q0-1.17-.36-1.93A2.5 2.5 0 0 0 132 28.2q-.81 0-1.46.4t-1 1.18a4.4 4.4 0 0 0-.38 1.9v.88q0 1.07.36 1.84a2.7 2.7 0 0 0 2.64 1.58q.68 0 1.2-.2t.84-.5q.33-.33.47-.66l.03-.09h2.14l-.03.1q-.13.6-.5 1.16-.36.56-.95 1.02-.6.45-1.4.73a6 6 0 0 1-1.85.27m10.75-.09q-1.74 0-2.55-.7-.8-.72-.8-2.32v-6.34h-1.66V26.6h1.66v-2.81h2.29v2.8h2.24v1.77h-2.24v5.96q0 .85.36 1.23.36.36 1.13.36a6 6 0 0 0 .75-.04v1.75a8 8 0 0 1-1.18.1m12.49.1a5.4 5.4 0 0 1-2.76-.7 4.7 4.7 0 0 1-1.81-1.97 7 7 0 0 1-.64-3.05v-.02q0-1.76.64-3.04a4.7 4.7 0 0 1 1.81-1.97q1.17-.69 2.76-.69 1.61 0 2.77.69a4.6 4.6 0 0 1 1.8 1.97q.65 1.27.65 3.04v.02q0 1.78-.64 3.06a4.7 4.7 0 0 1-1.8 1.97q-1.16.69-2.78.69m.01-1.87q.93 0 1.57-.45.66-.46 1-1.32.37-.87.37-2.08v-.02q0-1.21-.36-2.07a3 3 0 0 0-1-1.31q-.66-.45-1.59-.45-.9 0-1.57.45-.65.45-1.01 1.31a6 6 0 0 0-.35 2.07v.02q0 1.23.35 2.09.36.84 1.01 1.3.66.45 1.58.46m7.07 1.65v-11h2.22v1.74h.14q.27-.9 1-1.42a3 3 0 0 1 1.75-.53 4 4 0 0 1 .89.1v2.06a5 5 0 0 0-1.12-.13q-.8 0-1.4.32t-.93.9a3 3 0 0 0-.33 1.4v6.56zm11.11.2q-1.38 0-2.41-.7a4.5 4.5 0 0 1-1.6-1.97 7.5 7.5 0 0 1-.56-3.03v-.02q0-1.74.56-3.01.57-1.29 1.6-1.98 1.02-.7 2.4-.7a4 4 0 0 1 2.6.94q.52.43.82 1.05h.12v-6.02h2.24V37.6h-2.24v-1.78h-.12a3.6 3.6 0 0 1-1.98 1.74q-.64.24-1.43.24m.62-1.91q.9 0 1.55-.46.66-.47 1.02-1.32a5 5 0 0 0 .37-2v-.02q0-1.17-.37-2-.36-.86-1.02-1.32t-1.55-.46-1.56.46-1.01 1.3a5 5 0 0 0-.35 2.01v.02q0 1.18.35 2.02t1.01 1.32q.66.45 1.56.45m12.28 1.93q-1.6 0-2.78-.7a4.6 4.6 0 0 1-1.78-1.97 7 7 0 0 1-.61-3.02q0-1.73.62-3.02t1.77-2.01a5 5 0 0 1 2.67-.72q1.53 0 2.65.7 1.11.69 1.7 1.93.61 1.24.61 2.9v.77h-8.9v-1.6h7.8l-1.07 1.49v-.89q0-1.17-.36-1.93a2.5 2.5 0 0 0-2.42-1.54q-.82 0-1.47.4-.63.4-1 1.18a4 4 0 0 0-.37 1.9v.88q0 1.07.36 1.84.38.76 1.04 1.17.67.4 1.6.41.67 0 1.2-.2.51-.2.84-.5.33-.33.47-.66l.03-.09h2.14l-.03.1q-.14.6-.5 1.16t-.96 1.02q-.57.45-1.4.73a6 6 0 0 1-1.85.27m6.72-.22v-11h2.23v1.74h.13q.28-.9 1-1.42a3 3 0 0 1 1.75-.53 4 4 0 0 1 .89.1v2.06a5 5 0 0 0-1.12-.13q-.8 0-1.4.32-.58.32-.93.9a3 3 0 0 0-.32 1.4v6.56zm16.82.22q-1.6 0-2.78-.7a4.6 4.6 0 0 1-1.78-1.97 7 7 0 0 1-.62-3.02q0-1.73.63-3.02.62-1.29 1.76-2.01a5 5 0 0 1 2.68-.72q1.53 0 2.64.7 1.13.69 1.71 1.93.6 1.24.6 2.9v.77h-8.9v-1.6h7.81l-1.07 1.49v-.89q0-1.17-.36-1.93a2.5 2.5 0 0 0-2.42-1.54q-.83 0-1.47.4-.63.4-1 1.18a4 4 0 0 0-.37 1.9v.88q0 1.07.35 1.84.38.76 1.04 1.17.67.4 1.6.41.69 0 1.2-.2t.84-.5q.34-.33.47-.66l.03-.09h2.15l-.03.1q-.14.6-.5 1.16-.37.56-.96 1.02-.6.45-1.4.73a6 6 0 0 1-1.85.27m5.55-.22 3.65-5.49-3.65-5.51h2.55l2.38 3.95h.12l2.36-3.95h2.45l-3.62 5.43 3.63 5.57h-2.5l-2.41-4h-.12l-2.42 4zm15.65.22q-1.6 0-2.78-.7a4.6 4.6 0 0 1-1.78-1.97 7 7 0 0 1-.61-3.02q0-1.73.62-3.02t1.77-2.01a5 5 0 0 1 2.67-.72q1.53 0 2.65.7 1.11.69 1.7 1.93.61 1.24.61 2.9v.77h-8.9v-1.6h7.8l-1.07 1.49v-.89q0-1.17-.36-1.93a2.5 2.5 0 0 0-2.42-1.54q-.82 0-1.47.4-.63.4-1 1.18a4.4 4.4 0 0 0-.37 1.9v.88q0 1.07.36 1.84a2.7 2.7 0 0 0 2.64 1.58q.68 0 1.2-.2t.84-.5q.33-.33.47-.66l.03-.09h2.14l-.03.1q-.14.6-.5 1.16t-.95 1.02q-.6.45-1.41.73a6 6 0 0 1-1.85.27m11.39 0a5.3 5.3 0 0 1-2.77-.7 4.7 4.7 0 0 1-1.8-1.98 7 7 0 0 1-.62-3.06v-.02q0-1.75.62-3.02a4.6 4.6 0 0 1 1.8-1.96q1.17-.7 2.76-.7 1.4 0 2.4.52 1 .5 1.6 1.35t.72 1.9l.01.07h-2.13l-.02-.05q-.18-.81-.83-1.37a2.6 2.6 0 0 0-1.74-.55q-.9 0-1.55.46-.66.46-1.02 1.32a5 5 0 0 0-.36 2.04v.01q0 1.21.36 2.09.36.86 1.02 1.32.66.45 1.56.46 1.03 0 1.67-.5.65-.48.89-1.38l.02-.06h2.13v.08a4.5 4.5 0 0 1-.79 1.92q-.6.84-1.59 1.32a5 5 0 0 1-2.34.49m10.16 0q-1.24 0-2.08-.49t-1.28-1.4a5 5 0 0 1-.43-2.2V26.6h2.23v6.63q0 1.32.55 2 .56.67 1.76.67.63 0 1.13-.2a2.3 2.3 0 0 0 1.35-1.47q.18-.54.18-1.2V26.6h2.23v11h-2.23v-1.66h-.12a3.2 3.2 0 0 1-1.85 1.65q-.63.23-1.44.23m12.09-.1q-1.74 0-2.56-.7-.8-.72-.8-2.32v-6.34h-1.66V26.6h1.66v-2.81h2.3v2.8H266v1.77h-2.25v5.96q0 .85.36 1.23.36.36 1.14.36a6 6 0 0 0 .75-.04v1.75a8 8 0 0 1-1.18.1m7.55.1q-1.62 0-2.78-.7a4.6 4.6 0 0 1-1.79-1.97 7 7 0 0 1-.61-3.02q0-1.73.62-3.02t1.77-2.01a5 5 0 0 1 2.67-.72q1.54 0 2.65.7 1.11.69 1.71 1.93t.6 2.9v.77h-8.9v-1.6h7.8l-1.07 1.49v-.89q0-1.17-.36-1.93a2.5 2.5 0 0 0-2.42-1.54q-.81 0-1.46.4t-1 1.18a4.4 4.4 0 0 0-.38 1.9v.88q0 1.07.36 1.84.38.76 1.04 1.17.67.4 1.6.41.68 0 1.2-.2t.84-.5q.33-.33.47-.66l.03-.09h2.14l-.03.1q-.13.6-.5 1.16a4 4 0 0 1-.95 1.02q-.6.45-1.4.73a6 6 0 0 1-1.86.27m10.77-.02q-1.38 0-2.42-.7a4.5 4.5 0 0 1-1.59-1.97 7.5 7.5 0 0 1-.56-3.03v-.02q0-1.74.56-3.01.56-1.29 1.6-1.98 1.02-.7 2.4-.7a4 4 0 0 1 2.6.94q.52.43.82 1.05h.12v-6.02h2.23V37.6h-2.23v-1.78h-.12a3.6 3.6 0 0 1-1.98 1.74q-.64.24-1.43.24m.62-1.91q.89 0 1.55-.46t1.02-1.32a5 5 0 0 0 .37-2v-.02q0-1.17-.37-2-.36-.86-1.02-1.32t-1.55-.46-1.56.46-1.02 1.3a5 5 0 0 0-.35 2.01v.02q0 1.18.35 2.02.36.85 1.02 1.32.66.45 1.56.45m17.06 1.93a5.4 5.4 0 0 1-2.77-.7 4.7 4.7 0 0 1-1.8-1.97 7 7 0 0 1-.64-3.05v-.02q0-1.76.64-3.04a4.6 4.6 0 0 1 1.81-1.97q1.17-.69 2.76-.69 1.6 0 2.77.69a4.6 4.6 0 0 1 1.8 1.97q.65 1.27.65 3.04v.02q0 1.78-.65 3.06a4.7 4.7 0 0 1-1.8 1.97q-1.16.69-2.77.69m.01-1.87q.93 0 1.57-.45.66-.46 1-1.32.36-.87.36-2.08v-.02q0-1.21-.36-2.07a3 3 0 0 0-1-1.31q-.65-.45-1.58-.45-.9 0-1.57.45-.65.45-1.01 1.31a6 6 0 0 0-.35 2.07v.02q0 1.23.35 2.09.36.84 1.01 1.3.66.45 1.58.46m7.07 1.65v-11h2.22v1.66h.13q.42-.87 1.22-1.36a3.7 3.7 0 0 1 2.04-.52q1.83 0 2.81 1.08 1 1.08 1 3.01v7.13h-2.23v-6.63q0-1.33-.58-2-.57-.68-1.77-.68-.8 0-1.39.36-.59.34-.91 1-.32.63-.32 1.51v6.44zm148.81-7.4-5.4-5.4 1.1-1.1 5.4 5.4 5.4-5.4 1.1 1.1-5.4 5.4 5.4 5.4-1.1 1.1-5.4-5.4-5.4 5.4-1.1-1.1zM157.25 76.82q-.9 0-1.63-.35a2.7 2.7 0 0 1-1.55-2.5v-.01q0-.85.4-1.45.4-.61 1.18-.96a5 5 0 0 1 1.9-.41l3.5-.21v1.23l-3.32.22q-1.08.06-1.59.45-.5.4-.5 1.1v.02q0 .72.55 1.13.54.4 1.38.4a3 3 0 0 0 1.4-.31q.6-.32.96-.87.35-.54.35-1.22V70.1q0-.9-.54-1.35-.54-.47-1.6-.47-.85 0-1.41.3-.55.32-.74.88v.04h-1.56l.01-.07q.14-.75.63-1.31.5-.57 1.3-.9a5 5 0 0 1 1.82-.31q1.17 0 1.98.38.81.39 1.23 1.1.43.7.43 1.7v6.55h-1.55v-1.42h-.13q-.3.51-.74.87-.42.36-.97.54a4 4 0 0 1-1.19.18m10.54-.08q-1.47 0-2.13-.6t-.65-1.96v-5.8h-1.51v-1.28h1.5V64.6h1.6v2.48h2.08v1.28h-2.08v5.43q0 .84.33 1.2.3.36 1.05.36a6 6 0 0 0 .7-.03v1.31a10 10 0 0 1-.9.09m11.97-13.19q.87 0 1.71.34a4 4 0 0 1 1.55 1.09q.7.75 1.1 2 .42 1.23.42 3.04v.02q0 2.19-.58 3.74a5 5 0 0 1-1.67 2.37q-1.09.81-2.64.81a5 5 0 0 1-1.92-.39 3.9 3.9 0 0 1-2.22-2.75l-.03-.12h1.61l.04.1q.19.54.54.92.36.4.86.6.51.22 1.14.22 1.16 0 1.87-.68a4 4 0 0 0 1.06-1.82 9 9 0 0 0 .41-2.7v-.23l-.38-2.13q0-.84-.38-1.53-.39-.69-1.03-1.08-.65-.4-1.44-.4-.8 0-1.44.39-.66.39-1.03 1.06-.39.67-.39 1.5v.02q0 .86.37 1.52a2.7 2.7 0 0 0 2.46 1.42 3 3 0 0 0 1.47-.38q.65-.37 1.03-1.02.38-.66.38-1.5h.52v2.3h-.3q-.23.53-.7.99t-1.15.73q-.66.27-1.53.27a4.1 4.1 0 0 1-4.16-4.3q0-1.29.58-2.28a4 4 0 0 1 1.58-1.57 4.6 4.6 0 0 1 2.29-.57m8.09 13.12 5.94-11.28v-.11h-7.08v-1.43h8.7v1.48l-5.88 11.34zm9.86 3.22.77-5.02h1.76l-1.38 5.02zm10.22-3.22V65.6h-.15l-3.44 2.37v-1.7l3.6-2.44h1.58v12.82zm11.25 0V65.6h-.15l-3.44 2.37v-1.7l3.59-2.44h1.59v12.82zm10.85.29a3.8 3.8 0 0 1-2.44-.8 5 5 0 0 1-1.55-2.32q-.54-1.51-.54-3.58v-.02q0-2.06.54-3.56a5 5 0 0 1 1.55-2.3 3.8 3.8 0 0 1 2.44-.83q1.42 0 2.44.82 1.01.81 1.56 2.31t.55 3.56v.02q0 2.07-.55 3.58a5 5 0 0 1-1.56 2.31q-1.02.81-2.44.81m0-1.4q.92 0 1.58-.63.66-.65 1.01-1.84.35-1.2.35-2.83v-.02q0-1.63-.35-2.81-.36-1.2-1.01-1.83a2.2 2.2 0 0 0-1.58-.64q-.92 0-1.58.64a4 4 0 0 0-1 1.83q-.33 1.18-.34 2.81v.02q0 1.64.35 2.83t1 1.84q.65.63 1.57.64m8.19 1.19q-.46 0-.8-.34a1 1 0 0 1-.34-.8q0-.5.33-.82.34-.33.81-.33t.82.33.34.81-.34.81q-.33.34-.82.34m4.88-.09 5.93-11.28v-.11h-7.07v-1.43h8.7v1.48l-5.88 11.34zm14.57.21q-1.35 0-2.4-.47a4 4 0 0 1-1.63-1.3q-.59-.83-.59-1.9v-.02a3.2 3.2 0 0 1 1.3-2.62q.61-.48 1.42-.66v-.04a3.4 3.4 0 0 1-1.65-1.08q-.6-.76-.61-1.77v-.02q0-.97.53-1.72.54-.77 1.48-1.2.93-.45 2.15-.45 1.2 0 2.13.45.94.44 1.47 1.2.55.75.55 1.72V67q0 1-.62 1.77-.6.75-1.65 1.08v.04a3.6 3.6 0 0 1 2.37 1.81q.35.67.35 1.47v.01q0 1.08-.6 1.91-.58.84-1.62 1.3-1.03.47-2.38.47m0-1.4q.87 0 1.53-.3.67-.3 1.06-.84.38-.54.38-1.23v-.02q0-.7-.38-1.25-.37-.54-1.05-.85-.66-.3-1.54-.31-.88 0-1.56.31-.67.31-1.06.85-.37.55-.37 1.25v.02q0 .69.38 1.23t1.05.85 1.56.3m0-6.2q.76 0 1.33-.27.57-.28.9-.76t.33-1.1v-.02q0-.62-.33-1.1a2 2 0 0 0-.9-.74 3 3 0 0 0-1.33-.28q-.76 0-1.35.28-.57.26-.9.74-.32.48-.32 1.1v.02q0 .63.32 1.1.33.48.9.76.58.27 1.35.27"/><rect width="67.4" height="27.9" x="79.4" y="56.7" fill="#1e53e5" opacity=".15" rx="8"/><path fill="#5b9cf6" d="M94 75v-1.56h3.35a2.7 2.7 0 0 0 1.7-.46q.57-.45.57-1.32v-.01q0-.57-.26-.96a1.6 1.6 0 0 0-.8-.59q-.52-.2-1.3-.2H94v-1.42h2.95q1.08 0 1.63-.41.56-.4.56-1.17v-.02q0-.75-.5-1.17a2.2 2.2 0 0 0-1.43-.42H94v-1.56h3.7q1.07 0 1.84.34.76.34 1.18.97.4.62.41 1.5 0 .6-.27 1.12a2.5 2.5 0 0 1-.72.86q-.45.34-1.02.43v.14q.75.08 1.33.44t.9.95.33 1.3v.02q0 1-.47 1.7-.45.73-1.33 1.12a5 5 0 0 1-2.07.38zm-1 0V63.73h2V75zm13.41.17q-.95 0-1.6-.37a2.4 2.4 0 0 1-.98-1.08 4 4 0 0 1-.33-1.74v-5.52h1.95v5.08q0 .99.4 1.5.38.49 1.26.5.48 0 .83-.15.37-.15.61-.42t.37-.66.12-.87v-4.98H111V75h-1.95v-1.3h-.13q-.2.45-.55.8-.34.32-.84.5t-1.1.17m7.75 2.83-.74-.03v-1.5q.12.02.27.02l.3.01q.6 0 .97-.27.36-.26.52-.83l.1-.4-3.05-8.54h2.12l2.25 7.56-.53-.89h.67l-.51.9 2.25-7.57h2.05l-3.07 8.73q-.36 1.06-.84 1.68-.48.6-1.15.87-.66.26-1.6.26m16.46-3v-9.29h-.14l-2.96 1.98v-1.9l3.1-2.06h2.01V75z"/><g filter="url(#c53vyguo3)"><path fill="url(#d53vyguo3)" d="M66 118.6A15.6 15.6 0 0 1 81.6 103h448.8a15.6 15.6 0 0 1 15.6 15.6v73.8a15.6 15.6 0 0 1-15.6 15.6H81.6A15.6 15.6 0 0 1 66 192.4z"/></g><path fill="#448aff" fill-opacity=".3" d="M70.2 119.2a12 12 0 0 1 12-12H130v95.7H82.2a12 12 0 0 1-12-12z"/><path fill="#2979ff" d="m101.02 149.5-.62-.5-.6.5-8.64 6.96a3.12 3.12 0 1 0 3.91 4.85l5.33-4.3 5.33 4.3a3.12 3.12 0 1 0 3.92-4.85z"/><path fill="#fff" d="M147.06 140.6v-14.8h2.3v12.81h6.93v1.99zm11.16 0v-11h2.22v11zm1.12-12.87q-.57 0-.97-.39a1.3 1.3 0 0 1-.4-.95q0-.57.4-.95.4-.4.97-.4t.95.4q.4.38.4.95t-.4.95a1.3 1.3 0 0 1-.95.4m3.54 12.86v-11h2.23v1.69h.13a3 3 0 0 1 1.14-1.4 3.4 3.4 0 0 1 1.87-.5q.75 0 1.35.25t1.03.7q.45.45.67 1.1h.13a3.3 3.3 0 0 1 1.94-1.8q.68-.26 1.44-.26 1.1 0 1.9.44.8.45 1.23 1.25.43.82.43 1.95v7.58h-2.24v-7.04q0-.75-.23-1.25t-.71-.75-1.17-.27-1.21.32q-.5.3-.8.85-.3.53-.29 1.2v6.94h-2.21v-7.24q0-.63-.26-1.1-.24-.47-.72-.71a2.3 2.3 0 0 0-1.11-.26q-.67 0-1.2.34-.5.33-.81.91-.3.57-.3 1.3v6.76zm17.86 0v-11h2.22v11zm1.11-12.87q-.56 0-.96-.39a1.3 1.3 0 0 1-.4-.95q0-.57.4-.95.4-.4.96-.4.57 0 .96.4.4.38.4.95t-.4.95a1.3 1.3 0 0 1-.96.4m7.6 12.98q-1.74 0-2.55-.7-.8-.72-.8-2.32v-6.34h-1.66v-1.76h1.66v-2.81h2.29v2.8h2.24v1.77h-2.24v5.96q0 .85.36 1.23.35.36 1.13.36a6 6 0 0 0 .75-.04v1.75a8 8 0 0 1-1.18.1m12.49.1a5.4 5.4 0 0 1-2.77-.7 4.7 4.7 0 0 1-1.8-1.97 7 7 0 0 1-.64-3.05v-.02q0-1.76.64-3.04a4.7 4.7 0 0 1 1.81-1.97q1.17-.69 2.76-.69 1.61 0 2.77.69a4.6 4.6 0 0 1 1.8 1.97q.66 1.27.65 3.04v.02q0 1.78-.65 3.06a4.7 4.7 0 0 1-1.8 1.97q-1.16.69-2.77.69m.01-1.87q.93 0 1.57-.45.66-.46 1-1.32.36-.87.36-2.08v-.02q0-1.22-.35-2.07a3 3 0 0 0-1-1.31q-.67-.45-1.59-.45-.9 0-1.57.45-.65.45-1.01 1.31a6 6 0 0 0-.35 2.07v.02q0 1.22.35 2.09.36.84 1.01 1.3.66.46 1.58.46m7.07 1.65v-11h2.22v1.74h.14q.27-.9 1-1.42a3 3 0 0 1 1.74-.53 4 4 0 0 1 .9.1v2.06a5 5 0 0 0-1.12-.13q-.8 0-1.4.32t-.93.9a3 3 0 0 0-.33 1.4v6.56zm11.11.2q-1.38 0-2.42-.7a4.5 4.5 0 0 1-1.59-1.97 7.5 7.5 0 0 1-.56-3.03v-.02q0-1.74.56-3.01.57-1.28 1.6-1.98 1.02-.7 2.4-.7a4 4 0 0 1 2.6.94q.52.43.82 1.05h.12v-6.02h2.24v15.24h-2.24v-1.78h-.12q-.32.6-.82 1.06-.5.45-1.16.68-.64.23-1.43.23m.62-1.91q.89 0 1.55-.46t1.02-1.32q.37-.84.37-2v-.02q0-1.16-.37-2-.36-.85-1.02-1.32-.66-.46-1.55-.46-.9 0-1.56.46t-1.01 1.3a5 5 0 0 0-.35 2.01v.02q0 1.17.34 2.02.36.85 1.02 1.32.66.45 1.56.45m12.28 1.94q-1.6 0-2.78-.7a4.6 4.6 0 0 1-1.78-1.97 7 7 0 0 1-.62-3.02q0-1.73.63-3.02.62-1.29 1.76-2.01a5 5 0 0 1 2.68-.72q1.53 0 2.65.7 1.11.69 1.7 1.93.61 1.25.61 2.9v.77h-8.9v-1.6h7.8l-1.07 1.49v-.89a5 5 0 0 0-.36-1.93 2.5 2.5 0 0 0-2.42-1.54q-.82 0-1.47.4-.63.4-1 1.18a4 4 0 0 0-.37 1.9v.88q0 1.07.36 1.84.38.76 1.04 1.17.67.4 1.6.41.68 0 1.2-.2t.84-.5q.33-.33.47-.66l.03-.09h2.14l-.03.1q-.14.6-.5 1.16t-.96 1.02q-.58.46-1.4.73t-1.85.27m6.72-.22v-11h2.22v1.74h.14q.27-.9 1-1.42a3 3 0 0 1 1.75-.53 4 4 0 0 1 .89.1v2.06a5 5 0 0 0-1.12-.13q-.8 0-1.4.32-.58.32-.93.9a3 3 0 0 0-.33 1.4v6.56zm12.16 3.66V129.6h2.23v1.8h.13a3.5 3.5 0 0 1 1.97-1.76q.65-.25 1.44-.25a4.2 4.2 0 0 1 4 2.69q.57 1.27.57 3.01v.01q0 1.76-.57 3.04-.56 1.27-1.58 1.97a4.2 4.2 0 0 1-2.42.68q-.76 0-1.43-.23-.66-.25-1.17-.69t-.81-1.05h-.13v5.44zm5.15-5.37q.9 0 1.56-.45.66-.47 1-1.32.36-.84.35-2.02 0-1.2-.35-2.04t-1-1.3q-.66-.45-1.56-.45a2.7 2.7 0 0 0-2.59 1.77 5 5 0 0 0-.35 2.01v.01q0 1.17.35 2.01.38.85 1.03 1.32.66.46 1.56.46m7.16 1.71v-15.24h2.23v15.24zm7.81.2q-1.05 0-1.89-.42a3 3 0 0 1-1.29-1.14 3 3 0 0 1-.47-1.75v-.02q0-.97.47-1.67.49-.7 1.4-1.1a7 7 0 0 1 2.23-.49l4.1-.24v1.56l-3.8.25q-1.09.06-1.63.48t-.54 1.14v.01q0 .75.56 1.18t1.47.42q.81 0 1.44-.33.65-.32 1-.89.38-.56.38-1.27v-3.4q0-.9-.57-1.4t-1.65-.5a3 3 0 0 0-1.53.37 1.6 1.6 0 0 0-.76.96l-.02.06h-2.12l.01-.09q.11-.93.69-1.63t1.55-1.1 2.26-.4q1.38 0 2.35.44a3.3 3.3 0 0 1 2.01 3.22v7.55h-2.22v-1.62h-.13a3.5 3.5 0 0 1-1.94 1.6q-.62.21-1.36.21m12.66.03a5.3 5.3 0 0 1-2.77-.7 4.7 4.7 0 0 1-1.8-1.98 7 7 0 0 1-.62-3.06v-.02q0-1.75.62-3.02a4.6 4.6 0 0 1 1.8-1.96q1.17-.7 2.75-.7 1.4 0 2.4.52 1.02.5 1.61 1.35t.72 1.9l.01.07h-2.13l-.02-.05q-.18-.81-.83-1.37a2.6 2.6 0 0 0-1.75-.55 2.6 2.6 0 0 0-2.56 1.78 5 5 0 0 0-.36 2.04v.01q0 1.21.36 2.08t1.02 1.33 1.56.46q1.03 0 1.67-.5.64-.48.89-1.38l.02-.06h2.13v.08a4.5 4.5 0 0 1-.79 1.92q-.6.84-1.59 1.32a5 5 0 0 1-2.34.49m11.11 0q-1.6 0-2.78-.7a4.6 4.6 0 0 1-1.78-1.97 7 7 0 0 1-.62-3.02q0-1.73.63-3.02t1.76-2.01a5 5 0 0 1 2.68-.72q1.53 0 2.64.7 1.12.69 1.72 1.93.6 1.25.6 2.9v.77h-8.91v-1.6h7.81l-1.07 1.49v-.89a5 5 0 0 0-.36-1.93 2.5 2.5 0 0 0-2.42-1.54q-.82 0-1.47.4-.63.4-1 1.18a4 4 0 0 0-.37 1.9v.88q0 1.07.36 1.84.37.76 1.03 1.17.68.4 1.6.41.69 0 1.2-.2t.84-.5q.34-.33.47-.66l.03-.09h2.15l-.03.1q-.15.6-.5 1.16-.37.56-.96 1.02t-1.4.73-1.85.27m10.77-.02q-1.39 0-2.42-.7a4.5 4.5 0 0 1-1.6-1.97 7.5 7.5 0 0 1-.56-3.03v-.02q0-1.74.57-3.01.55-1.28 1.59-1.98 1.02-.7 2.4-.7a4 4 0 0 1 2.61.94q.51.43.81 1.05h.13v-6.02h2.23v15.24h-2.23v-1.78h-.13q-.31.6-.82 1.06-.5.45-1.16.68-.64.23-1.42.23m.61-1.91q.9 0 1.55-.46.67-.47 1.03-1.32.37-.84.37-2v-.02q0-1.16-.37-2-.36-.85-1.03-1.32-.65-.46-1.55-.46t-1.56.46-1.01 1.3a5 5 0 0 0-.35 2.01v.02q0 1.17.35 2.02.36.85 1.01 1.32.66.45 1.56.45m17.07 1.94a5.4 5.4 0 0 1-2.77-.7 4.7 4.7 0 0 1-1.8-1.97 7 7 0 0 1-.64-3.05v-.02q0-1.76.63-3.04a4.6 4.6 0 0 1 1.82-1.97q1.17-.69 2.76-.69 1.6 0 2.76.69a4.6 4.6 0 0 1 1.8 1.97q.65 1.27.65 3.04v.02q0 1.78-.64 3.06a4.7 4.7 0 0 1-1.8 1.97q-1.17.69-2.77.69m0-1.87q.93 0 1.57-.45.66-.46 1.01-1.32.36-.87.36-2.08v-.02q0-1.22-.36-2.07a3 3 0 0 0-1-1.31q-.66-.45-1.58-.45t-1.57.45-1.02 1.31a6 6 0 0 0-.35 2.07v.02q0 1.22.35 2.09.36.84 1.02 1.3.65.46 1.58.46m7.06 1.65v-11h2.23v1.66h.13q.4-.86 1.22-1.36a3.7 3.7 0 0 1 2.03-.52q1.83 0 2.82 1.08 1 1.08 1 3.01v7.13h-2.23v-6.63q0-1.33-.58-2-.58-.69-1.78-.68-.8 0-1.38.36-.6.34-.92 1-.3.63-.31 1.51v6.44zm191.38-7.4-5.4-5.4 1.1-1.1 5.4 5.4 5.4-5.4 1.1 1.1-5.4 5.4 5.4 5.4-1.1 1.1-5.4-5.4-5.4 5.4-1.1-1.1z"/><rect width="67.4" height="27.9" x="145.4" y="159.7" fill="#1e53e5" opacity=".15" rx="8"/><path fill="#5b9cf6" d="M160 178v-1.56h3.35q1.12 0 1.7-.46.57-.45.57-1.32v-.01q0-.57-.26-.96a1.6 1.6 0 0 0-.8-.59q-.52-.2-1.3-.2H160v-1.42h2.95q1.08 0 1.63-.41.56-.4.56-1.17v-.02q0-.75-.5-1.17a2.2 2.2 0 0 0-1.43-.42H160v-1.56h3.7q1.07 0 1.84.34.75.34 1.18.97.4.62.41 1.5 0 .6-.27 1.12a2.5 2.5 0 0 1-.72.86q-.45.34-1.02.43v.14q.75.08 1.33.44t.9.95.33 1.3v.03q0 .98-.47 1.7t-1.33 1.1a5 5 0 0 1-2.07.39zm-1 0v-11.27h2V178zm13.41.17q-.95 0-1.6-.36a2.4 2.4 0 0 1-.98-1.1 4 4 0 0 1-.33-1.73v-5.52h1.95v5.08q0 .99.4 1.5.38.5 1.26.5.48 0 .83-.15.37-.15.61-.42t.37-.66.12-.87v-4.98H177V178h-1.95v-1.3h-.13q-.2.45-.55.8-.34.32-.84.5t-1.1.17m7.75 2.83-.74-.03v-1.5q.12.03.27.02l.3.01q.6 0 .97-.27.36-.26.52-.83l.1-.4-3.05-8.54h2.12l2.25 7.56-.53-.89h.68l-.52.9 2.25-7.57h2.05l-3.07 8.73q-.36 1.06-.84 1.68-.48.6-1.15.87-.67.26-1.6.26m16.46-3v-9.29h-.14l-2.96 1.98v-1.9l3.1-2.06h2.01V178z"/><path fill="#fff" d="M222.25 180.17q-.9 0-1.63-.35a2.7 2.7 0 0 1-1.55-2.5v-.01q0-.85.4-1.45.4-.62 1.18-.96a5 5 0 0 1 1.9-.41l3.5-.21v1.23l-3.32.22q-1.08.06-1.59.45-.5.4-.5 1.1v.02q0 .71.55 1.13.55.4 1.38.4.8 0 1.4-.31.6-.32.96-.87.35-.54.35-1.22v-2.97q0-.9-.54-1.35-.54-.47-1.6-.47-.85 0-1.41.3-.55.32-.74.88v.03h-1.56l.01-.06q.14-.75.63-1.31.5-.57 1.3-.9a5 5 0 0 1 1.82-.31q1.17 0 1.98.38t1.23 1.1q.43.7.43 1.7V180h-1.55v-1.42h-.13q-.3.51-.74.87-.42.36-.97.54-.53.18-1.19.18m10.54-.09q-1.47 0-2.13-.6t-.65-1.96v-5.8h-1.51v-1.28h1.5v-2.48h1.6v2.48h2.08v1.28h-2.07v5.43q0 .84.32 1.2.3.36 1.05.36l.7-.03v1.31a8 8 0 0 1-.9.09m12.52-.08v-11.05h-.15l-3.44 2.37v-1.7l3.59-2.44h1.59V180zm10.94.21q-1.28 0-2.25-.45a3.5 3.5 0 0 1-2.18-3.05l-.01-.1h1.54v.08q.08.64.44 1.12.4.47 1.01.75.64.27 1.45.27.82 0 1.43-.3.62-.3.95-.8.36-.53.35-1.2v-.02q0-1.19-.76-1.81a3 3 0 0 0-2.06-.64h-1.56v-1.36h1.48q.75 0 1.31-.28.57-.3.89-.8t.32-1.14v-.01q0-.69-.28-1.15a2 2 0 0 0-.8-.72 3 3 0 0 0-1.28-.25q-.73 0-1.3.26-.57.24-.93.72a2 2 0 0 0-.4 1.12l-.01.09h-1.54v-.1q.12-1.05.66-1.82.55-.79 1.44-1.22.9-.44 2.08-.44 1.2 0 2.08.43.9.42 1.38 1.16a3 3 0 0 1 .5 1.72v.02a2.9 2.9 0 0 1-1.27 2.42q-.6.42-1.37.58v.04q1.35.1 2.2.95.85.82.85 2.2v.01q0 1.07-.57 1.91t-1.55 1.33q-.98.48-2.24.48m7.22-.21v-1.1l4.2-4.7q.8-.88 1.25-1.46t.63-1.05q.2-.48.19-1.04v-.02q0-.67-.29-1.2a2 2 0 0 0-.8-.84q-.51-.3-1.25-.31-.73 0-1.3.32-.56.3-.87.88-.3.55-.3 1.3l-.02.02h-1.52l-.01-.02q0-1.13.54-2.01.53-.89 1.45-1.38.94-.5 2.13-.5 1.1 0 1.97.46.88.47 1.39 1.28.51.8.51 1.84v.01q0 .74-.25 1.4-.24.69-.87 1.5-.63.83-1.75 2.03l-3.23 3.43.4-.75v.75l-.4-.28h6.3V180zm12.13.09q-.46 0-.81-.34a1 1 0 0 1-.34-.8q0-.5.34-.82.35-.33.8-.33.49 0 .83.33.33.34.33.81t-.33.81-.82.34m8.23.21q-1.2 0-2.12-.48a3.8 3.8 0 0 1-2.15-3.12l-.01-.1h1.54l.01.08q.08.6.45 1.12.38.5.96.8.6.3 1.34.29a3 3 0 0 0 1.5-.37q.64-.38 1-1.05.36-.68.36-1.53v-.02q0-.85-.36-1.51-.37-.67-1-1.04-.65-.37-1.47-.37-.64 0-1.18.2a2.8 2.8 0 0 0-1.52 1.34h-1.4l.67-7.36h7.12v1.43h-5.85l-.43 4.33h.13q.3-.43.7-.72.43-.3.94-.45.5-.16 1.1-.16a4.04 4.04 0 0 1 4.12 4.28v.02q0 1.29-.57 2.29-.56.98-1.58 1.54-1 .55-2.3.55m11.21-.08q-1.35 0-2.39-.47a4 4 0 0 1-1.63-1.3q-.6-.83-.59-1.9v-.02a3.2 3.2 0 0 1 1.3-2.62q.6-.48 1.42-.66v-.04a3.4 3.4 0 0 1-1.65-1.08q-.62-.76-.62-1.77v-.02q0-.97.54-1.72.54-.76 1.47-1.2.95-.45 2.15-.45t2.14.45 1.47 1.2.54 1.72v.02q0 1-.61 1.77-.6.75-1.65 1.08v.04a3.6 3.6 0 0 1 2.37 1.81q.35.68.35 1.47v.01q0 1.08-.6 1.91-.58.84-1.63 1.3-1.02.47-2.38.47m0-1.4q.88 0 1.54-.3.67-.3 1.06-.84.38-.54.38-1.23v-.02q0-.7-.38-1.25-.37-.54-1.05-.85-.66-.3-1.55-.31-.87 0-1.55.31-.67.31-1.06.85-.37.55-.37 1.25v.02q0 .69.38 1.23t1.05.85 1.55.3m0-6.2q.77 0 1.34-.27.57-.28.9-.76.32-.48.32-1.1v-.01q0-.63-.33-1.1a2 2 0 0 0-.9-.75 3 3 0 0 0-1.33-.28q-.75 0-1.34.28-.58.26-.9.74t-.33 1.1v.02q0 .63.32 1.1.33.49.91.76t1.34.27"/><g filter="url(#e53vyguo3)"><path fill="url(#f53vyguo3)" d="M132 220.6a15.6 15.6 0 0 1 15.6-15.6h448.8a15.6 15.6 0 0 1 15.6 15.6v73.8a15.6 15.6 0 0 1-15.6 15.6H147.6a15.6 15.6 0 0 1-15.6-15.6z"/><path stroke="url(#g53vyguo3)" stroke-opacity=".2" stroke-width="2" d="M147.6 206h448.8a14.6 14.6 0 0 1 14.6 14.6v73.8a14.6 14.6 0 0 1-14.6 14.6H147.6a14.6 14.6 0 0 1-14.6-14.6v-73.8a14.6 14.6 0 0 1 14.6-14.6Z"/></g><path fill="#f77c80" d="M136.2 221.2a12 12 0 0 1 12-12H196v95.7h-47.8a12 12 0 0 1-12-12z" opacity=".17"/><path fill="#f7525f" d="m167.02 263.5-.62.5-.6-.5-8.64-6.95a3.12 3.12 0 0 1 3.91-4.85l5.33 4.3 5.33-4.3a3.12 3.12 0 1 1 3.92 4.85z"/><path fill="#fff" d="M218.24 242.92q-1.65 0-2.9-.51a4.6 4.6 0 0 1-1.93-1.45 4 4 0 0 1-.81-2.19l-.01-.13h2.23l.02.11q.08.67.53 1.16.44.48 1.22.76a5.3 5.3 0 0 0 3.4-.02q.73-.29 1.13-.8.4-.52.4-1.2 0-.87-.64-1.4a5 5 0 0 0-2.09-.87l-1.6-.33a6.5 6.5 0 0 1-3.23-1.5 3.6 3.6 0 0 1-1.03-2.66q0-1.26.7-2.22a4.5 4.5 0 0 1 1.87-1.5q1.2-.54 2.74-.54 1.56 0 2.71.53 1.18.52 1.84 1.45.69.9.76 2.1l.01.13h-2.22l-.01-.13a2 2 0 0 0-.5-1.1 2.6 2.6 0 0 0-1.07-.74 4 4 0 0 0-1.55-.26q-.87 0-1.54.26-.67.27-1.06.76-.37.47-.37 1.14v.01q0 .82.63 1.36.63.53 2.04.84l1.6.34q1.52.32 2.47.87.95.53 1.4 1.33.46.78.46 1.9a4.1 4.1 0 0 1-2.63 3.95q-1.25.54-2.97.54m11.6-.19q-1.74 0-2.54-.7t-.79-2.3v-6.28h-1.66v-1.75h1.66v-2.78h2.25v2.78h2.25v1.75h-2.25v5.89q0 .85.36 1.23.36.36 1.14.35a6 6 0 0 0 .75-.04v1.74a8 8 0 0 1-1.17.11m7.54.09a5.4 5.4 0 0 1-2.75-.68 4.6 4.6 0 0 1-1.8-1.96 7 7 0 0 1-.62-3.02v-.02q0-1.75.63-3.01a4.6 4.6 0 0 1 1.8-1.95 5.3 5.3 0 0 1 2.74-.7q1.58 0 2.74.69t1.79 1.95.64 3.02v.02q0 1.76-.64 3.02a4.6 4.6 0 0 1-1.79 1.96q-1.15.69-2.74.68m0-1.84q.9 0 1.56-.45t1-1.31q.35-.85.35-2.05v-.02q0-1.22-.35-2.07a3 3 0 0 0-1-1.3q-.64-.44-1.56-.44-.91 0-1.57.45-.65.45-1 1.3a5 5 0 0 0-.35 2.06v.02q0 1.2.35 2.05t1 1.3 1.57.46m7.05 5.27v-14.55h2.2v1.77h.12q.33-.6.81-1.05.5-.45 1.15-.68t1.41-.23q1.4 0 2.41.69t1.57 1.96.56 2.99v.02q0 1.72-.56 3-.56 1.25-1.57 1.94a4 4 0 0 1-2.39.7q-.75 0-1.42-.24a4 4 0 0 1-1.16-.68q-.5-.44-.8-1.05h-.13v5.4zm5.08-5.34q.9 0 1.56-.44.64-.45 1-1.3.35-.84.35-2v-.02q0-1.17-.36-2a2.6 2.6 0 0 0-2.55-1.75 2.65 2.65 0 0 0-2.55 1.75 5 5 0 0 0-.36 2v.02q0 1.15.36 1.99a2.65 2.65 0 0 0 2.56 1.76m16.43 1.9a5.4 5.4 0 0 1-2.75-.68 4.6 4.6 0 0 1-1.8-1.96 7 7 0 0 1-.62-3.02v-.02q0-1.75.63-3.01a4.6 4.6 0 0 1 1.8-1.95 5.3 5.3 0 0 1 2.74-.7q1.58 0 2.74.69t1.79 1.95q.64 1.27.64 3.02v.02q0 1.76-.64 3.02a4.6 4.6 0 0 1-1.79 1.96q-1.15.69-2.74.68m0-1.84q.9 0 1.56-.45t1-1.31q.36-.85.35-2.05v-.02q0-1.22-.35-2.07a3 3 0 0 0-1-1.3q-.65-.44-1.56-.44t-1.57.45q-.64.45-1 1.3a5 5 0 0 0-.35 2.06v.02q0 1.2.35 2.05.36.85 1 1.3.66.46 1.57.46m7.05 1.63v-10.9h2.2v1.72h.12a2.6 2.6 0 0 1 1-1.41q.7-.51 1.75-.51a4 4 0 0 1 .89.1v2.02a5 5 0 0 0-1.12-.12q-.8 0-1.39.31-.6.32-.92.9-.33.57-.33 1.38v6.51zm11.07.2a4.2 4.2 0 0 1-2.4-.7 4.5 4.5 0 0 1-1.58-1.96 7 7 0 0 1-.56-2.98v-.02q0-1.74.56-3 .56-1.27 1.57-1.95 1.02-.7 2.4-.7a4 4 0 0 1 2.58.92q.5.44.8 1.05h.12v-5.97h2.22v15.11h-2.22v-1.77h-.12a3.5 3.5 0 0 1-1.96 1.73q-.64.23-1.41.23m.6-1.9q.89 0 1.54-.45.66-.45 1.02-1.3.36-.84.36-2v-.01q0-1.16-.36-2a3 3 0 0 0-1.02-1.3 2.6 2.6 0 0 0-1.53-.45q-.9 0-1.56.46-.64.44-1 1.28a5 5 0 0 0-.34 2v.03q0 1.16.35 2t1 1.3q.64.44 1.55.44m12.21 1.92a5 5 0 0 1-2.76-.69 4.6 4.6 0 0 1-1.76-1.95 7 7 0 0 1-.62-3q0-1.71.62-2.99t1.74-1.99a5 5 0 0 1 2.65-.71q1.54 0 2.63.69 1.1.68 1.7 1.92t.6 2.86v.77h-8.83v-1.57h7.74l-1.06 1.45v-.86q0-1.17-.36-1.93a2.5 2.5 0 0 0-2.4-1.52q-.8 0-1.45.4-.63.4-1 1.16a4.4 4.4 0 0 0-.37 1.89v.87q0 1.06.36 1.83.36.75 1.03 1.16t1.58.4q.69 0 1.2-.19.5-.2.83-.5.33-.32.45-.65l.04-.08h2.13l-.03.1q-.14.57-.5 1.13t-.94 1.02q-.6.45-1.4.72t-1.82.26m6.69-.21v-10.9h2.2v1.72h.12a2.6 2.6 0 0 1 1-1.41q.71-.51 1.75-.51a4 4 0 0 1 .89.1v2.02a5 5 0 0 0-1.12-.12q-.8 0-1.39.31-.6.32-.92.9-.33.57-.33 1.38v6.51zm12.15 3.64v-14.55h2.2v1.77h.12q.33-.6.81-1.05.5-.45 1.15-.68t1.41-.23q1.4 0 2.41.69t1.57 1.96.56 2.99v.02q0 1.72-.56 3-.56 1.25-1.57 1.94a4 4 0 0 1-2.39.7q-.75 0-1.42-.24a4 4 0 0 1-1.15-.68q-.51-.44-.82-1.05h-.12v5.4zm5.08-5.34q.9 0 1.56-.44.64-.45 1-1.3.35-.84.35-2v-.02q0-1.17-.36-2a2.6 2.6 0 0 0-2.55-1.75 2.65 2.65 0 0 0-2.56 1.75 5 5 0 0 0-.35 2v.02q0 1.15.36 1.99a2.65 2.65 0 0 0 2.56 1.76m7.14 1.69v-15.11h2.2v15.11zm7.77.2q-1.05 0-1.87-.41a3 3 0 0 1-1.28-1.14 3 3 0 0 1-.47-1.73v-.02q0-.97.47-1.65.47-.7 1.39-1.1.9-.4 2.2-.48l4.06-.24v1.55l-3.76.24a3 3 0 0 0-1.62.47q-.54.42-.54 1.13v.02q0 .74.56 1.17t1.45.42q.82 0 1.45-.33t1-.88q.36-.56.36-1.27v-3.36q0-.9-.57-1.4-.56-.48-1.64-.48a3 3 0 0 0-1.51.35 1.6 1.6 0 0 0-.75.96l-.02.05h-2.1v-.1q.11-.9.69-1.6.57-.7 1.54-1.1.96-.4 2.24-.4 1.36 0 2.32.46a3.3 3.3 0 0 1 2 3.19v7.48h-2.2V241H339a3.4 3.4 0 0 1-1.92 1.58q-.63.21-1.35.21m12.56.02a5.3 5.3 0 0 1-2.75-.69 4.6 4.6 0 0 1-1.78-1.96 7 7 0 0 1-.62-3.03v-.03q0-1.72.62-2.98a4.6 4.6 0 0 1 1.78-1.95 5.3 5.3 0 0 1 2.74-.7q1.38.01 2.38.5 1 .5 1.58 1.36.6.84.72 1.89l.01.06h-2.12l-.01-.05a2.4 2.4 0 0 0-.82-1.35q-.64-.55-1.73-.55a2.6 2.6 0 0 0-2.55 1.76 5 5 0 0 0-.35 2.03v.02q0 1.18.36 2.05.36.85 1 1.32.66.46 1.54.46 1.03 0 1.66-.48.65-.49.89-1.37l.02-.06 2.11-.02-.01.09a4.1 4.1 0 0 1-2.35 3.21q-.98.47-2.32.47m11.05 0a5 5 0 0 1-2.75-.69 4.6 4.6 0 0 1-1.77-1.95 7 7 0 0 1-.62-3q0-1.71.62-2.99t1.75-1.99a5 5 0 0 1 2.65-.71q1.53 0 2.63.69t1.7 1.92.6 2.86v.77h-8.83v-1.57h7.74l-1.07 1.45v-.86q0-1.17-.36-1.93a2.5 2.5 0 0 0-2.4-1.52q-.81 0-1.44.4-.64.4-1.01 1.16a4.4 4.4 0 0 0-.37 1.89v.87q0 1.06.36 1.83a2.7 2.7 0 0 0 2.61 1.56q.69 0 1.2-.19.5-.2.83-.5.33-.32.46-.65l.04-.08h2.12l-.03.1q-.13.57-.5 1.13-.35.56-.94 1.02-.58.45-1.4.72-.8.26-1.82.26m10.7-.01a4.2 4.2 0 0 1-2.4-.7 4.5 4.5 0 0 1-1.58-1.96 7 7 0 0 1-.56-2.98v-.02q0-1.74.56-3 .56-1.27 1.58-1.95 1-.7 2.4-.7a4 4 0 0 1 2.57.92q.51.44.8 1.05h.13v-5.97h2.21v15.11h-2.21v-1.77h-.12a3.5 3.5 0 0 1-1.96 1.73q-.64.23-1.42.23m.61-1.9q.89 0 1.54-.45.66-.45 1.01-1.3a5 5 0 0 0 .37-2v-.01q0-1.16-.37-2a3 3 0 0 0-1.01-1.3 2.6 2.6 0 0 0-1.54-.45q-.9 0-1.55.46-.65.44-1 1.28a5 5 0 0 0-.34 2v.03q0 1.16.34 2t1 1.3q.65.44 1.55.44m16.99 1.92a5.4 5.4 0 0 1-2.76-.68 4.6 4.6 0 0 1-1.78-1.96 7 7 0 0 1-.63-3.02v-.02q0-1.75.63-3.01a4.6 4.6 0 0 1 1.8-1.95 5.3 5.3 0 0 1 2.74-.7q1.58 0 2.74.69t1.79 1.95.63 3.02v.02q0 1.76-.63 3.02a4.6 4.6 0 0 1-1.8 1.96q-1.14.69-2.74.68m0-1.84a2.7 2.7 0 0 0 1.56-.45q.64-.45 1-1.31.35-.85.35-2.05v-.02q0-1.22-.36-2.07a3 3 0 0 0-.99-1.3 2.7 2.7 0 0 0-1.56-.44q-.91 0-1.57.45-.65.45-1 1.3a5 5 0 0 0-.35 2.06v.02q0 1.2.35 2.05t1 1.3 1.56.46m7.06 1.63v-10.9h2.2v1.64h.13q.41-.86 1.22-1.35.8-.51 2.01-.51 1.81 0 2.8 1.06.98 1.08.98 3v7.06h-2.2v-6.58q0-1.3-.58-1.98-.57-.67-1.76-.67-.8 0-1.38.35a2.3 2.3 0 0 0-.9.99q-.3.63-.31 1.5v6.39zm194.02-7.4-5.4-5.4 1.1-1.1 5.4 5.4 5.4-5.4 1.1 1.1-5.4 5.4 5.4 5.4-1.1 1.1-5.4-5.4-5.4 5.4-1.1-1.1z"/><rect width="67.4" height="27.9" x="211.4" y="261.7" fill="#f7525f" opacity=".1" rx="8"/><path fill="#f77c80" d="M266 281.28q-1.34 0-2.3-.72a4.6 4.6 0 0 1-1.46-2.04 9 9 0 0 1-.5-3.15v-.02q0-1.82.5-3.14.52-1.33 1.46-2.05a3.7 3.7 0 0 1 2.3-.72q1.32 0 2.27.72a4.5 4.5 0 0 1 1.47 2.05q.51 1.32.51 3.14v.02q0 1.81-.51 3.15a4.5 4.5 0 0 1-1.47 2.04q-.95.72-2.28.72m0-1.63q.7 0 1.2-.52.5-.51.76-1.47.27-.95.27-2.3t-.27-2.3a3.3 3.3 0 0 0-.76-1.47 1.6 1.6 0 0 0-1.2-.51q-.72 0-1.21.51a3.3 3.3 0 0 0-.77 1.47q-.25.95-.25 2.3t.25 2.3q.27.96.77 1.47.5.52 1.2.52M255.6 281v-9.29h-.14l-2.96 1.98v-1.9l3.1-2.06h2.01V281zm-12.54 0v-11.84h1.95V281zm-4.37 0v-11.84h1.94V281zm-5.76.17q-1.27 0-2.2-.54a3.6 3.6 0 0 1-1.39-1.53 5 5 0 0 1-.5-2.35q0-1.35.5-2.35.48-1 1.38-1.55t2.11-.55 2.1.54q.88.53 1.35 1.49a5 5 0 0 1 .48 2.25v.64h-6.94v-1.3h5.99l-.92 1.21v-.77a3.4 3.4 0 0 0-.26-1.42 1.85 1.85 0 0 0-1.77-1.12q-.6 0-1.08.3a2 2 0 0 0-.73.86q-.27.55-.27 1.38v.78q0 .8.27 1.35.27.56.75.86.5.3 1.16.3.52 0 .9-.15.38-.16.62-.37t.33-.41l.02-.06h1.85l-.02.07q-.11.42-.37.85a3 3 0 0 1-.73.79q-.45.36-1.11.58t-1.52.22m-10.03.11q-1.3 0-2.28-.4a3.6 3.6 0 0 1-1.51-1.14 3 3 0 0 1-.63-1.7v-.1h1.95v.08q.05.47.38.82t.9.56a3.8 3.8 0 0 0 2.46-.02 2 2 0 0 0 .82-.57q.3-.38.3-.87 0-.6-.48-1a4 4 0 0 0-1.57-.62l-1.21-.25a5 5 0 0 1-2.52-1.17 3 3 0 0 1-.78-2.07v-.01a3 3 0 0 1 .53-1.76q.54-.76 1.47-1.19a5 5 0 0 1 2.17-.43q1.25 0 2.16.43.91.4 1.44 1.13t.58 1.63l.01.1h-1.92l-.01-.1q-.07-.44-.37-.77-.3-.34-.78-.53-.48-.2-1.13-.2-.62 0-1.1.2-.48.18-.77.53-.27.34-.27.83 0 .6.46.99t1.53.6l1.2.27q1.2.24 1.94.66t1.08 1.03.35 1.47q0 1.1-.54 1.9-.53.8-1.52 1.23-.98.44-2.34.44"/><path fill="#fff" d="M377.2 281.94a3.8 3.8 0 0 1-2.44-.8 5 5 0 0 1-1.55-2.32q-.54-1.51-.54-3.58v-.01q0-2.07.54-3.57a5 5 0 0 1 1.55-2.3 3.8 3.8 0 0 1 2.44-.83q1.42 0 2.44.82 1.01.81 1.56 2.31t.55 3.56v.02q0 2.07-.55 3.57-.56 1.5-1.56 2.32-1.03.81-2.44.81m0-1.4q.93 0 1.57-.63.66-.65 1.02-1.84.35-1.2.35-2.83v-.01q0-1.64-.35-2.82-.36-1.2-1.02-1.83a2.2 2.2 0 0 0-1.57-.64q-.93 0-1.58.64a4 4 0 0 0-1 1.83q-.34 1.18-.34 2.81v.02q0 1.64.34 2.83.36 1.19 1 1.84.65.63 1.58.64m-11.24 1.39a3.8 3.8 0 0 1-2.45-.8 5 5 0 0 1-1.55-2.32q-.54-1.51-.54-3.58v-.01q0-2.07.54-3.57a5 5 0 0 1 1.55-2.3 3.8 3.8 0 0 1 2.45-.83q1.41 0 2.43.82t1.56 2.31q.56 1.5.56 3.56v.02q0 2.07-.56 3.57a5 5 0 0 1-1.56 2.32q-1.02.81-2.43.81m0-1.4q.92 0 1.57-.63.66-.65 1.01-1.84.36-1.2.36-2.83v-.01q0-1.64-.36-2.82-.35-1.2-1.01-1.83a2.2 2.2 0 0 0-1.57-.64q-.93 0-1.59.64a4 4 0 0 0-1 1.83q-.33 1.18-.34 2.81v.02q0 1.64.35 2.83t1 1.84q.65.63 1.58.64m-8.19 1.19q-.46 0-.81-.34a1 1 0 0 1-.34-.8q0-.5.34-.82.35-.33.8-.33.5 0 .82.33.34.34.34.81t-.34.81-.81.34m-8.19.2a3.8 3.8 0 0 1-2.45-.8 5 5 0 0 1-1.54-2.32q-.54-1.51-.54-3.58v-.01q0-2.07.54-3.57a5 5 0 0 1 1.54-2.3 3.8 3.8 0 0 1 2.45-.83q1.42 0 2.43.82t1.57 2.31.55 3.56v.02q0 2.07-.55 3.57a5 5 0 0 1-1.57 2.32q-1 .81-2.43.81m0-1.4q.92 0 1.57-.63.66-.65 1.01-1.84.36-1.2.36-2.83v-.01q0-1.64-.36-2.82-.35-1.2-1-1.83a2.2 2.2 0 0 0-1.58-.64q-.93 0-1.58.64a4 4 0 0 0-1 1.83q-.35 1.18-.35 2.81v.02q0 1.64.35 2.83t1 1.84q.65.63 1.58.64m-11.08 1.39q-.87 0-1.72-.33a4 4 0 0 1-1.54-1.09 5.5 5.5 0 0 1-1.11-1.99 10 10 0 0 1-.41-3.06v-.01q0-2.19.58-3.74a5 5 0 0 1 1.67-2.37 4.3 4.3 0 0 1 2.64-.82q1.06 0 1.92.4.86.38 1.43 1.1.57.7.79 1.65l.02.12h-1.6l-.04-.1a2.54 2.54 0 0 0-2.54-1.75 2.6 2.6 0 0 0-1.87.69 4 4 0 0 0-1.06 1.81 10 10 0 0 0-.41 2.7v.24l.38 2.13a3.1 3.1 0 0 0 1.4 2.61q.66.4 1.45.4a2.7 2.7 0 0 0 1.44-.4q.66-.37 1.03-1.06a3 3 0 0 0 .39-1.5v-.02q0-.85-.37-1.5a2.8 2.8 0 0 0-2.46-1.42q-.82 0-1.48.36a2.8 2.8 0 0 0-1.4 2.52h-.52v-2.3h.3q.23-.53.7-.98.47-.46 1.15-.73a4 4 0 0 1 1.53-.27 4.1 4.1 0 0 1 3.61 2.08q.54.97.54 2.2v.03q0 1.27-.57 2.27a4 4 0 0 1-1.58 1.56q-1 .57-2.29.57m-11.41 0a3.8 3.8 0 0 1-2.45-.8 5 5 0 0 1-1.54-2.32q-.55-1.51-.55-3.58v-.01q0-2.07.55-3.57a5 5 0 0 1 1.54-2.3 3.8 3.8 0 0 1 2.45-.83q1.42 0 2.43.82t1.56 2.31.56 3.56v.02q0 2.07-.56 3.57a5 5 0 0 1-1.56 2.32q-1.01.81-2.43.81m0-1.4q.92 0 1.57-.63.65-.65 1.01-1.84.36-1.2.36-2.83v-.01q0-1.64-.36-2.82-.36-1.2-1.01-1.83a2.2 2.2 0 0 0-1.57-.64 2.2 2.2 0 0 0-1.59.64 4 4 0 0 0-1 1.83q-.34 1.18-.34 2.81v.02q0 1.64.35 2.83t1 1.84q.65.63 1.58.64m-9.84 4.32.78-5.01h1.76l-1.39 5zm-6.37-2.93q-.87 0-1.73-.33a4 4 0 0 1-1.53-1.09 5.5 5.5 0 0 1-1.12-1.99 10 10 0 0 1-.4-3.06v-.01q0-2.19.57-3.74a5 5 0 0 1 1.68-2.37 4.3 4.3 0 0 1 2.63-.82q1.06 0 1.92.4.87.38 1.43 1.1.58.7.8 1.65l.02.12h-1.6l-.04-.1a2.6 2.6 0 0 0-1.4-1.53 3 3 0 0 0-1.14-.22 2.6 2.6 0 0 0-1.87.69 4 4 0 0 0-1.07 1.81 10 10 0 0 0-.4 2.7v.24l.38 2.13a3.1 3.1 0 0 0 1.4 2.61q.65.4 1.45.4a2.7 2.7 0 0 0 1.44-.4q.64-.37 1.03-1.06a3 3 0 0 0 .38-1.5v-.02q0-.85-.36-1.5a2.8 2.8 0 0 0-2.46-1.42q-.82 0-1.48.36a2.8 2.8 0 0 0-1.4 2.52h-.53v-2.3h.3q.25-.53.7-.98.48-.46 1.15-.73.68-.27 1.53-.27a4.1 4.1 0 0 1 3.62 2.08q.54.97.54 2.2v.03q0 1.27-.58 2.27a4 4 0 0 1-1.58 1.56q-.99.57-2.28.57m-12.29-.21q-1.47 0-2.13-.6t-.65-1.96v-5.8h-1.51v-1.28h1.5v-2.48h1.6v2.48h2.08v1.28h-2.08v5.43q0 .84.33 1.2.3.36 1.05.36l.7-.03v1.31a8 8 0 0 1-.9.09m-10.53.09q-.9 0-1.63-.35a2.7 2.7 0 0 1-1.55-2.5v-.01q0-.85.4-1.45.4-.62 1.18-.96a5 5 0 0 1 1.9-.41l3.5-.21v1.23l-3.32.22q-1.08.06-1.59.45-.5.4-.5 1.1v.02q0 .72.55 1.13.54.4 1.38.4.8 0 1.4-.31.6-.32.96-.87.35-.54.35-1.22v-2.97q0-.9-.54-1.35-.54-.47-1.6-.47-.86 0-1.41.3-.55.32-.74.88v.03h-1.56l.01-.06q.13-.75.63-1.31t1.3-.9a5 5 0 0 1 1.82-.31q1.17 0 1.98.38t1.23 1.1q.43.7.43 1.7v6.55h-1.55v-1.42h-.13q-.3.51-.74.87-.42.36-.97.54-.54.18-1.19.18"/><rect width="95" height="32" x="414" y="220" fill="#2c2c2c" rx="16"/><path fill="#fff" d="m496.48 238.78-.15-8.47h1.75l-.14 8.47zm.73 4.38q-.53 0-.87-.34a1.2 1.2 0 0 1-.34-.87 1.17 1.17 0 0 1 1.21-1.23q.53 0 .87.35.34.33.34.88a1.2 1.2 0 0 1-1.2 1.2m-7.89-.15v-10.93h-.15l-3.4 2.34v-1.67l3.56-2.42h1.57V243zm-11.55.3q-1.38 0-2.42-.45a4 4 0 0 1-1.64-1.25 3.6 3.6 0 0 1-.7-1.83v-.1h1.58v.1q.07.65.5 1.1.42.45 1.13.72a5 5 0 0 0 3.17-.02q.67-.28 1.06-.78.39-.48.39-1.13 0-.8-.58-1.34a4 4 0 0 0-1.9-.83l-1.4-.3a5.5 5.5 0 0 1-2.77-1.3 3 3 0 0 1-.87-2.28q.01-1.06.58-1.87t1.57-1.26 2.32-.46q1.26 0 2.24.46.98.44 1.55 1.22.58.76.64 1.71v.12h-1.57l-.02-.11q-.09-.55-.46-1t-.98-.7-1.44-.24q-.79 0-1.43.25t-1 .7q-.38.47-.38 1.13 0 .77.56 1.28.57.53 1.86.8l1.4.32q1.33.29 2.14.76.8.46 1.18 1.14.38.66.38 1.58 0 1.2-.58 2.06a4 4 0 0 1-1.64 1.33q-1.05.47-2.47.47m-14.66-.3v-12.68h7.85v1.42h-6.27v4.07h5.95v1.4h-5.95v4.37h6.27V243zm-15.52 0v-12.68h1.84l4.34 10.59h.14l4.34-10.6h1.84V243h-1.48v-9.7h-.77l1.77-2.63-5.1 12.33h-1.34l-5.1-12.33 1.77 2.64h-.77V243z"/><rect width="24" height="24" x="418" y="224" fill="#f8f9fd" rx="12"/><path fill="#f7525f" d="M439.98 229.33h-7.31v-5.03a12 12 0 0 1 7.3 5.03m1.73 4h-9.03v5.33h9.03a12 12 0 0 0 0-5.33m-1.72 9.34h-19.96a12 12 0 0 0 9.88 5.33h.2a12 12 0 0 0 9.88-5.34"/><path fill="#1e53e5" d="M430 224a12 12 0 0 0-11.7 14.67h14.37V224.3q-1.29-.3-2.67-.3"/><path fill="#f8f9fd" d="M420.41 228.78zl.85-.56q.06-.05.13 0l.84.56c.1.06.21-.03.18-.14l-.26-.97q-.02-.08.04-.13l.79-.63a.12.12 0 0 0-.07-.21l-.48-.02q-1.14.92-2.03 2.1m1.03.85a.12.12 0 0 0-.22 0l-.36.95a.1.1 0 0 1-.1.07l-1.01.05a.12.12 0 0 0-.07.21l.79.63q.05.05.04.13l-.27.97c-.03.11.09.2.18.14l.85-.56q.06-.05.13 0l.84.56c.1.06.21-.03.18-.14l-.26-.97q-.02-.08.04-.13l.79-.63a.12.12 0 0 0-.07-.21l-1.01-.05a.1.1 0 0 1-.11-.07zm-.22 4c.04-.1.18-.1.22 0l.36.94q.03.08.1.08l1.02.05c.1 0 .15.14.06.21l-.78.63a.1.1 0 0 0-.04.13l.26.97c.03.11-.09.2-.18.14l-.84-.56a.1.1 0 0 0-.13 0l-.85.56a.12.12 0 0 1-.18-.14l.27-.97q.02-.08-.04-.13l-.8-.63a.12.12 0 0 1 .08-.21l1-.05q.1 0 .11-.08zm4.22-8a.12.12 0 0 0-.22 0l-.36.95a.1.1 0 0 1-.1.07l-1.01.05a.12.12 0 0 0-.07.21l.79.63q.05.05.04.13l-.27.97c-.03.11.09.2.18.14l.85-.56q.06-.05.13 0l.84.56c.1.06.21-.03.18-.14l-.27-.97q-.01-.08.05-.13l.79-.63c.08-.06.04-.2-.07-.21l-1.01-.05a.1.1 0 0 1-.11-.07zm-.22 4c.04-.1.18-.1.22 0l.36.95q.03.06.1.07l1.02.05c.1 0 .15.14.06.21l-.78.63a.1.1 0 0 0-.05.13l.27.97c.03.11-.09.2-.18.14l-.84-.56a.1.1 0 0 0-.13 0l-.85.56a.12.12 0 0 1-.18-.14l.27-.97q.02-.08-.04-.13l-.8-.63a.12.12 0 0 1 .08-.21l1-.05q.1 0 .11-.07zm.22 4a.12.12 0 0 0-.22 0l-.36.94a.1.1 0 0 1-.1.08l-1.01.05a.12.12 0 0 0-.07.21l.79.63q.05.05.04.13l-.27.97c-.03.11.09.2.18.14l.85-.56q.06-.05.13 0l.84.56c.1.06.21-.03.18-.14l-.27-.97q-.01-.08.05-.13l.79-.63a.12.12 0 0 0-.07-.21l-1.01-.05a.1.1 0 0 1-.11-.08zm3.78-8c.04-.1.18-.1.22 0l.36.95q.03.06.1.07l1.02.05c.1 0 .15.15.06.21l-.78.63a.1.1 0 0 0-.05.13l.27.97c.03.11-.09.2-.18.14l-.84-.56a.1.1 0 0 0-.13 0l-.85.56a.12.12 0 0 1-.18-.14l.27-.97q.02-.08-.04-.13l-.8-.63a.12.12 0 0 1 .08-.21l1-.05q.09 0 .11-.07zm.22 4a.12.12 0 0 0-.22 0l-.36.95a.1.1 0 0 1-.1.07l-1.01.05a.12.12 0 0 0-.07.21l.79.63q.05.05.04.13l-.27.97c-.03.11.09.2.18.14l.85-.56q.06-.05.13 0l.84.56c.1.06.21-.03.18-.14l-.27-.97q-.01-.08.05-.13l.79-.63a.12.12 0 0 0-.07-.21l-1.01-.05a.1.1 0 0 1-.11-.07zm-.22 4c.04-.1.18-.1.22 0l.36.94q.03.08.1.08l1.02.05c.1 0 .15.14.06.21l-.78.63a.1.1 0 0 0-.05.13l.27.97c.03.11-.09.2-.18.14l-.84-.56a.1.1 0 0 0-.13 0l-.85.56a.12.12 0 0 1-.18-.14l.27-.97q.02-.08-.04-.13l-.8-.63a.12.12 0 0 1 .08-.21l1-.05q.09 0 .11-.08z"/><rect width="90" height="32" x="350" y="119" fill="#2c2c2c" rx="16"/><path fill="#fff" d="m419.91 142 4.68-12.68h1.21v2.04h-.5L421.58 142zm2.12-3.63.5-1.34h5.72l.5 1.34zm7.14 3.63-3.73-10.64v-2.04h.71l4.68 12.68zm-20.51 0v-12.68H413q1.87 0 3.22.75t2.05 2.17q.72 1.4.71 3.4v.02q0 2-.7 3.42a5 5 0 0 1-2.06 2.17q-1.33.75-3.22.75zm1.58-1.42h2.66q1.42 0 2.42-.58a4 4 0 0 0 1.53-1.68q.53-1.1.53-2.64v-.02q0-1.55-.54-2.64a4 4 0 0 0-1.53-1.69 4.7 4.7 0 0 0-2.4-.59h-2.67zM400.4 142l-4.67-12.68h1.66l3.73 10.64h.14l3.73-10.64h1.66L401.97 142zm-16.8 0v-12.68h1.54l7.31 10.5-1.09-.62h.8v-9.88h1.56V142h-1.53l-7.32-10.46 1.1.62h-.8V142z"/><circle cx="366" cy="135" r="12" fill="url(#h53vyguo3)"/><path fill="#76b900" d="M359.64 134.26s1.47-2.26 4.36-2.48V131c-3.2.26-6 3.1-6 3.1s1.6 4.48 6 4.9v-.83c-3.23-.4-4.37-3.91-4.37-3.91m4.36 2.34v.76c-2.44-.43-3.15-3-3.15-3s1.2-1.3 3.15-1.51v.83c-1.02-.12-1.85.84-1.85.84s.47 1.62 1.85 2.08m0-6.93V131l.25-.02c3.64-.12 6 3.11 6 3.11s-2.71 3.34-5.55 3.34a4 4 0 0 1-.7-.07v.81q.28.04.58.04c2.64 0 4.55-1.27 6.4-2.88.3.25 1.56.85 1.81 1.11-1.75 1.48-5.85 2.6-8.17 2.6q-.31 0-.62-.04v1.33h10v-10.66zm0 3.18v-1.07l.25-.01c2.62-.09 4.33 2.37 4.33 2.37s-1.85 2.59-3.84 2.59q-.4 0-.74-.12v-2.93c1.02.13 1.2.58 1.8 1.6l1.37-1.15s-1-1.31-2.67-1.31q-.26 0-.5.03"/><rect width="113" height="32" x="326" y="16" fill="#2c2c2c" rx="16"/><path fill="#fff" d="M418.87 39V26.32h4.35q1.88 0 3.22.75t2.05 2.17.72 3.4v.02q0 2-.72 3.42a5 5 0 0 1-2.04 2.17q-1.35.75-3.23.75zm1.58-1.42h2.67q1.4 0 2.41-.58a4 4 0 0 0 1.53-1.68q.53-1.1.53-2.64v-.02q0-1.55-.54-2.64a4 4 0 0 0-1.53-1.69 4.7 4.7 0 0 0-2.4-.59h-2.67zm-8.69 1.72q-1.38 0-2.42-.45a4 4 0 0 1-1.64-1.25 3.5 3.5 0 0 1-.7-1.83v-.1h1.58l.01.1q.06.65.48 1.1.44.46 1.15.72a5 5 0 0 0 3.16-.02q.67-.28 1.06-.78.4-.48.4-1.13 0-.8-.59-1.34a4 4 0 0 0-1.89-.83l-1.4-.3a5.5 5.5 0 0 1-2.78-1.3 3 3 0 0 1-.86-2.28q0-1.05.57-1.87.57-.81 1.57-1.26 1.02-.46 2.32-.46 1.28 0 2.24.46.98.45 1.55 1.22.58.76.64 1.71v.12h-1.57l-.02-.11q-.09-.56-.46-1a2.5 2.5 0 0 0-.98-.7 4 4 0 0 0-1.44-.24q-.79 0-1.43.25t-1 .7q-.38.47-.38 1.13 0 .77.57 1.28a4 4 0 0 0 1.85.8l1.4.32q1.34.3 2.14.76a3 3 0 0 1 1.18 1.14q.38.66.38 1.58 0 1.2-.58 2.06a4 4 0 0 1-1.64 1.33q-1.05.47-2.47.47m-12.18 0a6 6 0 0 1-2.71-.59 4 4 0 0 1-1.73-1.63q-.6-1.06-.6-2.44v-8.32h1.57v8.22q0 .97.4 1.72.42.74 1.2 1.16.77.42 1.87.42a4 4 0 0 0 1.86-.42q.77-.42 1.18-1.16.4-.75.4-1.72v-8.22h1.58v8.32q0 1.38-.6 2.44-.6 1.05-1.73 1.63-1.12.6-2.7.59m-12.59 0a5.4 5.4 0 0 1-2.99-.81 5.3 5.3 0 0 1-1.94-2.3 8.5 8.5 0 0 1-.68-3.52v-.02q0-2.04.68-3.53a5.3 5.3 0 0 1 1.94-2.3q1.26-.8 2.98-.8 1.34 0 2.42.53 1.1.5 1.81 1.45.72.91.9 2.13v.02h-1.6v-.03a3.5 3.5 0 0 0-3.53-2.64q-1.21 0-2.11.63a4 4 0 0 0-1.38 1.8q-.48 1.15-.48 2.74v.02q0 1.59.48 2.74.48 1.17 1.38 1.8t2.12.63q.89 0 1.6-.28.74-.3 1.22-.83.5-.53.69-1.26l.01-.03h1.6v.03a4.4 4.4 0 0 1-2.7 3.35q-1.07.48-2.42.48m-12.47-.3V27.74h-4.09v-1.42h9.75v1.42h-4.08V39zm-14.11 0v-1.4h3.9a3.5 3.5 0 0 0 2.17-.57q.75-.57.74-1.66v-.02q0-.73-.34-1.22a2 2 0 0 0-1.03-.74 5 5 0 0 0-1.69-.24h-3.76v-1.37h3.31q1.45 0 2.17-.5.73-.52.73-1.52v-.01q0-.97-.66-1.5a2.8 2.8 0 0 0-1.82-.54h-3.73v-1.4h4.06q1.16 0 2 .4a2.9 2.9 0 0 1 1.75 2.76v.02q0 .66-.3 1.24t-.79.98-1.1.5v.15q.87.1 1.5.51t.98 1.08q.35.64.35 1.48v.02q0 1.1-.52 1.9a3.3 3.3 0 0 1-1.47 1.23q-.95.42-2.31.42zm-.8 0V26.32h1.58V39z"/><path fill="#f7931a" d="M330 32a12 12 0 1 1 24 0 12 12 0 0 1-24 0"/><path fill="#fff" d="M347.12 30.59c.22-1.5-.92-2.3-2.48-2.84l.5-2.02-1.23-.3-.49 1.96-.98-.23.5-1.98-1.24-.31-.5 2.02-.79-.18-1.7-.44-.33 1.32.9.22c.5.13.58.46.57.72l-.57 2.3.13.05-.14-.03-.8 3.23c-.06.15-.22.38-.57.29.02.02-.89-.22-.89-.22l-.61 1.4 1.6.4.88.23-.51 2.05 1.23.3.5-2.02.99.26-.5 2.02 1.23.3.5-2.04c2.1.4 3.69.24 4.35-1.66.54-1.54-.03-2.41-1.13-3 .8-.18 1.41-.71 1.57-1.8m-2.82 3.95c-.38 1.53-2.96.7-3.8.5l.68-2.72c.84.21 3.52.62 3.12 2.21m.38-3.97c-.35 1.39-2.5.68-3.2.5l.62-2.45c.7.17 2.94.5 2.58 1.95"/><defs><linearGradient id="a53vyguo3" x1="240" x2="240" y1="0" y2="105" gradientUnits="userSpaceOnUse"><stop stop-color="#191a1c"/><stop offset="1" stop-color="#0b0b0c"/></linearGradient><linearGradient id="b53vyguo3" x1="24.55" x2="66.51" y1="-2.86" y2="225.82" gradientUnits="userSpaceOnUse"><stop stop-color="#fff"/><stop offset="1" stop-opacity="0"/></linearGradient><linearGradient id="d53vyguo3" x1="306" x2="306" y1="103" y2="208" gradientUnits="userSpaceOnUse"><stop stop-color="#191a1c"/><stop offset="1" stop-color="#0b0b0c"/></linearGradient><linearGradient id="f53vyguo3" x1="372" x2="372" y1="205" y2="310" gradientUnits="userSpaceOnUse"><stop stop-color="#191a1c"/><stop offset="1" stop-color="#0b0b0c"/></linearGradient><linearGradient id="g53vyguo3" x1="156.54" x2="198.51" y1="202.14" y2="430.82" gradientUnits="userSpaceOnUse"><stop stop-color="#fff"/><stop offset="1" stop-opacity="0"/></linearGradient><linearGradient id="h53vyguo3" x1="358.46" x2="383.21" y1="127.16" y2="155.58" gradientUnits="userSpaceOnUse"><stop stop-color="#1a1e21"/><stop offset="1" stop-color="#06060a"/></linearGradient><filter id="c53vyguo3" width="540" height="165" x="36" y="43" color-interpolation-filters="sRGB" filterUnits="userSpaceOnUse"><feOffset dy="-30"/><feGaussianBlur stdDeviation="15"/><feColorMatrix values="0 0 0 0 0 0 0 0 0 0 0 0 0 0 0 0 0 0 0.4 0"/><feBlend in="SourceGraphic"/></filter><filter id="e53vyguo3" width="540" height="165" x="102" y="145" color-interpolation-filters="sRGB" filterUnits="userSpaceOnUse"><feColorMatrix/><feOffset dy="-30"/><feGaussianBlur stdDeviation="15"/><feColorMatrix values="0 0 0 0 0 0 0 0 0 0 0 0 0 0 0 0 0 0 0.4 0"/><feBlend in="SourceGraphic"/></filter></defs></svg>