<svg width="201" height="81" viewBox="0 0 201 81" xmlns="http://www.w3.org/2000/svg"><path d="M.8.2h200v80H.8z"/><path d="M13.26 22.21c7.02.2 20.26 3.15 26.62 6.9 6.36 3.76 5.84 8.32 2.45 13.95-3.4 5.63-9.67 12.33-15.6 14.42s-11.53-.44-15.14-6.26c-3.62-5.83-5.26-14.94-5.7-20.79-.42-5.84.36-8.4 7.37-8.21Zm9.54 24h4.63c4.42 0 8.37-4.26 8.37-8.8 0-4.53-3.95-8.2-8.37-8.2H14.4l-1.61 5h14.63c1.87.03 3.37 1.26 3.37 3.18 0 1.93-1.5 3.78-3.37 3.82H22.8v-4.94h-5v16.94h5v-7ZM186.04 45.26a7 7 0 0 1-3.24-6.08 7.28 7.28 0 0 1 .86-3.59 6.45 6.45 0 0 1 5.7-3.38c2.38 0 4.58 1.1 5.68 3.27a7.1 7.1 0 0 1 .59 4.73h-9.53a3.5 3.5 0 0 0 2.74 3.11c1.5.35 3.08-.36 3.85-1.68l2.57 1.28c-.97 2.2-3.38 3.29-5.69 3.29a7.27 7.27 0 0 1-3.55-.94l.02-.01Zm.14-7.62h6.21a2.96 2.96 0 0 0-3.03-2.78c-1.55-.03-2.93 1.25-3.18 2.78ZM172.78 32.2h-2.97l-.01 14h3v-8.03c0-.9.4-1.6.9-2.14s1.21-.84 1.93-.8c.36-.02.71.04 1.05.18 1.11.46 1.62 1.6 1.62 2.76v8.04h3.17v-8.82a5.07 5.07 0 0 0-2.38-4.53 5.04 5.04 0 0 0-2.58-.65c-1.49-.03-3 .64-3.73 1.98v-1.98ZM157.7 33.12a7.27 7.27 0 0 1 7.05 0 6.98 6.98 0 0 1 3.44 6.1 7.4 7.4 0 0 1-.94 3.6 6.95 6.95 0 0 1-6.02 3.39 7.24 7.24 0 0 1-3.5-.92h-.01a7.07 7.07 0 0 1-.01-12.17Zm5.42 9.53c.54-.34.99-.84 1.28-1.42.32-.64.48-1.35.47-2.06a4.38 4.38 0 0 0-.47-2.05 3.71 3.71 0 0 0-1.28-1.43 3.36 3.36 0 0 0-1.88-.52 3.5 3.5 0 0 0-3.2 1.95 4.35 4.35 0 0 0-.48 2.05 4.4 4.4 0 0 0 .47 2.06 3.52 3.52 0 0 0 3.21 1.94c.66 0 1.3-.18 1.87-.53v.01Z" fill="#fff"/><path d="M147.56 41.62c0 1.44.4 2.57 1.22 3.39V45c.8.81 1.96 1.21 3.45 1.2.27 0 .53-.01.8-.04l.77-.1v-2.67c-.28.05-.56.07-.84.07-.78 0-1.34-.17-1.7-.52-.35-.35-.46-.85-.46-1.5V35.7h2.95V33.1h-2.95V29.2h-3.24v1.92c0 .64-.18 1.12-.53 1.46-.36.33-.86.5-1.5.5h-.25v2.62h2.28v5.9ZM133.8 42.4a5.25 5.25 0 0 0 2.18 2.76 6.7 6.7 0 0 0 3.72 1.04c2.4.06 5.12-1.41 5.07-4.09.04-2.05-1.62-3.38-3.45-3.89l-2.14-.64c-.52-.13-1.2-.39-1.47-.9a1.19 1.19 0 0 1 .01-1.04c.29-.58 1.03-.83 1.63-.8a3.11 3.11 0 0 1 2.99 2l2.46-1.15a5.08 5.08 0 0 0-2.07-2.56 6.58 6.58 0 0 0-5.93-.4 3.73 3.73 0 0 0-2.37 3.58c-.03 2.05 1.63 3.36 3.45 3.89 1.08.3 2.37.47 3.3 1.13.29.2.46.55.45.9.04 1-1.06 1.47-1.92 1.43-1.58.01-2.86-1.07-3.5-2.45l-2.41 1.2ZM128.8 32.2h-3v14h3V38.5c0-1.3.77-2.63 2-3.13.37-.15.77-.17 1.17-.15h.83v-3c-1.68 0-3.35.37-4 2.1v-2.1ZM112.65 42.72a7.44 7.44 0 0 1-.85-3.54c-.07-3.68 2.8-7.02 6.56-6.97a6.2 6.2 0 0 1 5.68 3.27 7.1 7.1 0 0 1 .59 4.73h-9.53a3.6 3.6 0 0 0 2.74 3.11c1.5.35 3.08-.36 3.85-1.68l2.57 1.28c-.97 2.2-3.38 3.29-5.69 3.29a7.26 7.26 0 0 1-3.55-.94l-.1-.1c-.4-.31-1.73-1.42-2.27-2.45Zm2.53-5.07h6.21a2.96 2.96 0 0 0-3.04-2.79c-1.54-.03-2.92 1.26-3.17 2.79ZM96.8 32.2h3v1.5a4.64 4.64 0 0 1 1.77-1.36c.77-.33 1.6-.5 2.45-.48a6.39 6.39 0 0 1 5.76 3.38 7.49 7.49 0 0 1 0 7.02 6.45 6.45 0 0 1-5.78 3.39 6.2 6.2 0 0 1-2.26-.41 5.52 5.52 0 0 1-1.94-1.16v6.12h-3v-18Zm8.58 10.03a3.6 3.6 0 0 0 1.31-1.43c.33-.63.5-1.33.49-2.05.01-.7-.16-1.4-.49-2.03a3.72 3.72 0 0 0-2.7-1.93 3.6 3.6 0 0 0-3.72 1.9 4.73 4.73 0 0 0 0 4.13 3.51 3.51 0 0 0 3.18 1.91c.68.01 1.34-.16 1.92-.51ZM81.8 32.2h3v1.5a5.28 5.28 0 0 1 4.21-1.84 6.51 6.51 0 0 1 5.76 3.38 7.49 7.49 0 0 1 0 7.02 6.52 6.52 0 0 1-5.78 3.38 5.9 5.9 0 0 1-4.19-1.56v6.12h-3v-18Zm9.9 8.6c.32-.63.49-1.33.48-2.05a4.22 4.22 0 0 0-.49-2.03 3.72 3.72 0 0 0-2.7-1.93 3.6 3.6 0 0 0-3.72 1.9 4.75 4.75 0 0 0 0 4.13 3.52 3.52 0 0 0 3.18 1.91c1.38.03 2.6-.7 3.24-1.93ZM68.65 42.73a7.46 7.46 0 0 1-.85-3.55 6.94 6.94 0 0 1 3.22-6.06 6.3 6.3 0 0 1 3.34-.91c1.38 0 2.55.3 3.5.9a6.48 6.48 0 0 1 2.94 5.64c0 .25-.01.5-.04.73-.02.21-.06.52-.13.73h-9.52a3.5 3.5 0 0 0 2.74 3.1c1.5.36 3.08-.35 3.84-1.67l2.58 1.28c-.97 2.2-3.38 3.29-5.7 3.29a6.71 6.71 0 0 1-5.92-3.48Zm2.53-5.09h6.21a2.96 2.96 0 0 0-3.04-2.78c-1.66-.03-2.9 1.16-3.17 2.78ZM52.8 32.2h3v1.5a5.28 5.28 0 0 1 4.21-1.84 6.51 6.51 0 0 1 5.76 3.38 7.49 7.49 0 0 1 0 7.02 6.52 6.52 0 0 1-5.78 3.38 5.9 5.9 0 0 1-4.19-1.56v6.12h-3v-18Zm8.58 10.03a3.6 3.6 0 0 0 1.32-1.42c.32-.64.5-1.34.48-2.05.01-.71-.15-1.41-.48-2.04a3.73 3.73 0 0 0-2.7-1.93 3.6 3.6 0 0 0-3.73 1.9 4.75 4.75 0 0 0 0 4.13 3.52 3.52 0 0 0 3.18 1.92c.68 0 1.35-.17 1.93-.52Z" fill="#fff"/></svg>