<svg xmlns="http://www.w3.org/2000/svg" width="200" height="80" viewBox="0 0 200 80"><path fill="#4F78A8" d="M41.02 57a17.01 17.01 0 1 0 .02-34.02A17.01 17.01 0 0 0 41.02 57"/><path fill="#fff" d="m175.63 50.25.37-7.06-1.42-.13c-1.11 4.24-3.2 5.77-7.78 5.77-1.68 0-2.16-.08-2.16-1.37V34.3c0-1.04.23-1.37 1.45-1.37h1.8v-1.35H156.6v1.35h1.48c1.25 0 1.43.33 1.43 1.37v13.23c0 1.04-.23 1.35-1.46 1.35h-1.45v1.37zm-19.82-18.67h-11.19v1.35h1.57c1.25 0 1.45.33 1.45 1.37v13.23c0 1.04-.23 1.35-1.45 1.35h-1.57v1.37h11.19v-1.37h-1.62c-1.23 0-1.43-.31-1.43-1.35V34.3c0-1.04.2-1.37 1.43-1.37h1.62zm-12.79 0h-18.59v1.35h1.45c1.26 0 1.46.33 1.46 1.37v13.23c0 1.04-.23 1.35-1.46 1.35h-1.45v1.37h11.42v-1.37h-2.05c-1.22 0-1.42-.31-1.42-1.35V41.3h.4c2.5 0 3.55.99 4.04 3.57h1.42v-8.56h-1.42c-.49 2.59-1.51 3.6-4.04 3.6h-.4v-5.54c0-1.29.42-1.4 2.07-1.4 4.36 0 6.33 1.38 7.4 5.33h1.4zm-33.34 9.7q.62-.04 1.14-.03c3.27 0 3.87.86 4.07 3.7.08 1.42-.14 2.76.6 4q1.04 1.76 4.13 1.76c2.98 0 4.75-1.65 4.75-4.55v-.2h-1.45c-.03 1.68-.37 2.53-1.2 2.53-1.28 0-1-1.91-1.82-4.19a4.54 4.54 0 0 0-4.39-3.23v-.18c4.05-.13 6.35-1.86 6.35-4.58 0-3.07-2.59-4.73-7.66-4.73h-12.55v1.35h1.54c1.1 0 1.45.28 1.45 1.37v13.23c0 1.09-.34 1.35-1.45 1.35h-1.54v1.37h10.99v-1.37h-1.54c-1.08 0-1.42-.24-1.42-1.35zm0-6.93c0-1.27.31-1.42 2.2-1.42 3.38 0 4.78.77 4.78 3.46 0 2.77-1.71 3.57-5.78 3.57-.4 0-.77 0-1.2-.05zm-29.05 15.9h19.2l.36-7-1.42-.11c-1.11 4.3-3.27 5.79-8.06 5.79-1.73 0-2.16-.13-2.16-1.4V41.3h.4c2.5 0 3.56.99 4.04 3.57h1.42v-8.56H93c-.48 2.59-1.5 3.6-4.04 3.6h-.4V34.3c0-1.3.43-1.4 2.08-1.4 4.38 0 6.38 1.4 7.4 5.4h1.4l-.23-6.72H80.64v1.35h1.42c1.25 0 1.45.33 1.45 1.37v13.23c0 1.04-.23 1.35-1.45 1.35h-1.42zm-13.21-2.72v-5.3q1.52.04 2.85.03c6.35 0 9.45-1.68 9.45-5.38 0-3.46-2.68-5.3-7.83-5.3H59.33v1.35h1.54c1.25 0 1.45.33 1.45 1.37v13.23c0 1.04-.22 1.35-1.45 1.35h-1.54v1.37h11.28v-1.37h-1.8c-1.16 0-1.39-.26-1.39-1.35m0-12.97c0-1.45.34-1.63 2.22-1.63 3.33 0 4.64.95 4.64 3.95 0 3.13-1.56 3.96-5.44 3.96a10 10 0 0 1-1.42-.08zm-28.33 5.8c-.03 0-.07-.06-.07-.06q-.13-.25.15-1.56a3.5 3.5 0 0 1 1.9-2.22 22 22 0 0 1 2.78-.98c1.14-.3 3.6-.88 3.6-.88s1.26-.3 2.24-.47c.93-.15 1.85-.25 2.22-.36.62-.2 1.27-.38 1.8-.82-.42.33.1-.07.02-.03.05-.06.08-.06.1-.1 0 0 .53-.53.43-.94-.1-.42-.82-.35-.82-.35s-1.5 0-1.96.06-.53.2-.84.5c-.3.28-.55.46-1.05.48s-2.86-.34-3.85-.33c-.98.01-2.8 0-5.27.55-.64.14-1.6.4-2.89.97 0 0-1.05.4-1.83 1.32 0 0-.42.52-.45 1.87-.01.4.24 1.13-.02 1.4-.36.35-1.33.26-1.66.2a5 5 0 0 1-1.5-.5c-.26-.18-.75-.55-.82-1.04-.15-1.18-.46-1.68-1.29-1.76 0 0-.5-.03-1.71.32 0 0-.67.19-1.17.25s-1.11.03-1.11.16c0 .14.36.18 1.38.15 1.01-.03 1.68.07 2.15.39 0 0 .5.24.77 1.16.26.92.17 1.16.6 1.4 0 0 1.05.54 2.16.92 1.11.37 1.13 1.28 1.15 1.48l.1 1.98c.01.43.28 1.56 1.09 2.58 0 0 .53.92 2.5 1.97 1.88.91 1.9.83 2.32 1.02.41.18 1 .44 1.15.65.12.15.41.5.64.52.22.03 6.99.05 6.99.05s.45.02.22-.5a2 2 0 0 0-.9-.9c-.42-.2-.72-.4-1.73-.57-1-.18-2.12-.42-3.35-.9a14 14 0 0 1-3.3-2.07c-.56-.49-1.43-1.17-1.65-2.18 0 0-.1-.45.23-1.02 0 0 .14-.18.45-.21l1.04.06c.48.03 1.56.17 2.19.23.63.07 2.9.42 3.66.57.76.16 3.54.94 3.92 1.05.37.1 2.3.86 2.5.61 0 0 .03-.03.13-.27.14-.34.85-4.44.85-4.44s.1-.54-.6-.56c-.43-.02-.69-.13-1.32-.09s-1.57.14-3.11.41-3.18.66-3.18.66-.65.2-2.11.42c-1.26.2-3.31.03-3.68-.1 0 0-.12-.07-.2-.15"/></svg>