<svg width="230" height="100" viewBox="0 0 230 100" xmlns="http://www.w3.org/2000/svg"><path d="M45.1555 70.311c11.1316 0 20.1555-9.0239 20.1555-20.1555S56.2871 30 45.1555 30 25 39.0239 25 50.1555 34.0239 70.311 45.1555 70.311Z" fill="#4F78A8"/><path d="m204.562 62.3067.438-8.3668-1.686-.1533c-1.314 5.0254-3.776 6.8344-9.204 6.8344-1.989 0-2.563-.0913-2.563-1.6238V43.395c0-1.226.268-1.6238 1.72-1.6238h2.124v-1.5944H182.04v1.5944h1.753c1.483 0 1.686.3978 1.686 1.6238v15.6935c0 1.226-.27 1.5944-1.721 1.5944h-1.719v1.6238h22.523Zm-23.471-22.1299h-13.25v1.5944h1.854c1.483 0 1.72.3978 1.72 1.6238v15.6935c0 1.226-.269 1.5944-1.72 1.5944h-1.854v1.6238h13.25v-1.6238h-1.922c-1.45 0-1.686-.3684-1.686-1.5944V43.395c0-1.226.236-1.6238 1.686-1.6238h1.922v-1.5944Zm-15.143 0h-22.016v1.5944h1.72c1.485 0 1.721.3978 1.721 1.6238v15.6935c0 1.226-.269 1.5944-1.721 1.5944h-1.72v1.6238h13.52v-1.6238h-2.427c-1.448 0-1.685-.3684-1.685-1.5944v-7.3879h.472c2.968 0 4.215 1.1641 4.789 4.2291h1.686V45.7845h-1.686c-.574 3.065-1.788 4.2604-4.789 4.2604h-.472v-6.5591c0-1.5326.505-1.6552 2.461-1.6552 5.159 0 7.486 1.6245 8.767 6.314h1.652l-.272-7.9678Zm-39.486 11.4944c.472-.0313.944-.0313 1.349-.0313 3.877 0 4.585 1.0115 4.821 4.383.101 1.6857-.168 3.2795.707 4.7507.809 1.3793 2.463 2.0818 4.889 2.0818 3.54 0 5.631-1.961 5.631-5.3938v-.2452h-1.719c-.034 1.9922-.438 3.0037-1.417 3.0037-1.517 0-1.18-2.2687-2.158-4.9653-.877-2.452-2.731-3.77-5.193-3.8313v-.2145c4.788-.1533 7.519-2.2075 7.519-5.4257 0-3.6474-3.067-5.609-9.069-5.609h-14.87v1.5944h1.822c1.316 0 1.72.3372 1.72 1.6239V59.086c0 1.2873-.404 1.5938-1.72 1.5938h-1.822v1.6245h13.014v-1.6245h-1.821c-1.282 0-1.686-.2758-1.686-1.5938v-7.4161h.002v.0013h.001Zm0-8.2149c0-1.5018.371-1.6857 2.597-1.6857 4.012 0 5.664.9195 5.664 4.1071 0 3.2795-2.024 4.2291-6.845 4.2291-.473 0-.91 0-1.417-.0613l.001-6.5892ZM92.0675 62.3067h22.7235l.438-8.3074-1.686-.1213c-1.314 5.0873-3.876 6.8644-9.54 6.8644-2.056 0-2.563-.1533-2.563-1.6539v-7.3879h.473c2.967 0 4.214 1.1641 4.788 4.2291h1.685V45.7845h-1.685c-.574 3.065-1.787 4.2604-4.788 4.2604h-.473v-6.6511c0-1.5325.505-1.6551 2.462-1.6551 5.192 0 7.552 1.6551 8.766 6.4059h1.652l-.27-7.9691H92.0688V41.77h1.6857c1.4841 0 1.7201.3978 1.7201 1.6238v15.6935c0 1.226-.2697 1.5938-1.7201 1.5938h-1.6857l-.0013 1.6256Zm-15.6493-3.2182v-6.2833c1.2132.0301 2.3264.0301 3.3715.0301 7.5191 0 11.1941-1.9923 11.1941-6.3753 0-4.1065-3.1693-6.2832-9.2717-6.2832H66.8438v1.5944h1.8206c1.4834 0 1.72.3978 1.72 1.6238v15.6935c0 1.226-.2697 1.5944-1.72 1.5944h-1.8206v1.6238h13.3511v-1.6238h-2.124c-1.3823-.0012-1.6527-.3077-1.6527-1.5944Zm0-15.387c0-1.7164.4046-1.9303 2.6304-1.9303 3.9447 0 5.4956 1.134 5.4956 4.6888 0 3.7093-1.8544 4.6895-6.4402 4.6895-.7411 0-1.2812-.03-1.6858-.0913v-7.3567ZM42.8661 50.5852c-.0343-.0049-.0748-.0748-.0748-.0748-.0981-.1882-.0533-.8331.1735-1.8445.2697-1.2058 1.3045-2.2025 2.254-2.6329.6829-.3089 2.1774-.8655 3.2906-1.1653 1.3523-.3641 4.2616-1.0494 4.2616-1.0494s1.4871-.3446 2.6561-.5462c1.093-.1882 2.1817-.2992 2.6182-.4353.7448-.2317 1.5141-.4499 2.1265-.9703-.4825.3953.1311-.0846.0306-.0368.0687-.0662.0962-.0662.133-.1165 0 0 .6143-.6246.5027-1.1193-.1122-.4947-.9741-.4114-.9741-.4114s-1.7795.0111-2.3239.0767c-.5455.0662-.6222.2415-.9881.5823-.3672.3409-.6535.5523-1.2426.5744-.5909.0215-3.3954-.3984-4.5625-.388-1.1672.011-3.3237-.0111-6.2478.6485-.7509.1692-1.8935.4794-3.4125 1.1543 0 0-1.2493.4622-2.1701 1.5656 0 0-.4971.6136-.5351 2.216-.0123.4775.282 1.3431-.0215 1.649-.4248.4273-1.5821.3145-1.9702.2568-.8649-.1281-1.6097-.5008-1.7771-.6105-.3071-.2011-.8894-.651-.9636-1.2211-.1839-1.4044-.5511-1.9923-1.5313-2.0879 0 0-.5995-.038-2.0308.3807 0 0-.7835.2188-1.3787.2856-.5958.0662-1.3186.0387-1.3186.1999 0 .1618.4328.2096 1.6331.1716 1.2002-.038 1.988.0846 2.5446.4641 0 0 .5952.2844.9121 1.3768.3169 1.0923.2017 1.3768.7105 1.652 0 0 1.2487.6455 2.5648 1.0924 1.3155.4462 1.3345 1.5178 1.3633 1.7562.0288.2373.0889 1.8519.1073 2.3564.019.5027.3353 1.8415 1.2958 3.0564 0 0 .6314 1.0936 2.9553 2.3288 2.235 1.0856 2.2559.9863 2.7524 1.2107.491.2201 1.1776.5241 1.3695.7712.1397.1771.4818.5915.7503.6203.2685.0301 8.2761.0625 8.2761.0625s.5358.0203.263-.5872c-.1698-.3801-.5284-.8331-1.0538-1.0807-.5032-.236-.8655-.4684-2.056-.6743-1.1904-.2066-2.5139-.4972-3.9716-1.071-1.4596-.5743-3.2287-1.8776-3.8981-2.452-.6694-.5743-1.706-1.3896-1.9591-2.5807 0 0-.1147-.5376.266-1.2076 0 0 .1741-.2195.5309-.2544 0 0 .6681.0417 1.2352.0754.567.0325 1.8512.1998 2.5954.2765.7454.0766 3.4279.4879 4.3284.6749.9005.1876 4.1985 1.1144 4.6429 1.2364.445.1208 2.7217 1.0237 2.9675.7282 0 0 .0337-.0386.1478-.3193.1642-.4071 1.0133-5.2645 1.0133-5.2645s.1078-.6357-.7124-.6651c-.5118-.0184-.8183-.1514-1.5637-.1073-.7448.0442-1.8654.168-3.6885.4868-1.8236.3193-3.757.7852-3.757.7852s-.7706.2342-2.5072.499c-1.4859.2274-3.9196.0337-4.3536-.1232-.003-.0031-.1416-.0785-.228-.1741Z" fill="#fff"/></svg>