<svg xmlns="http://www.w3.org/2000/svg" width="56" height="56" viewBox="0 0 56 56"><g clip-path="url(#ahqlljpi3)"><path fill="#002d74" d="M56 0H0v56h56z"/><path fill="#fff" d="M6.82 18.97h4.67a2.34 2.34 0 0 1 2.34 2.34v15.73h-2.34V21.31H9.15v15.73H6.81V18.98zM33.09 18.97h2.34l.85 7.11c.22 1.93.51 3.82.6 5.78h.06c.09-1.96.38-3.85.6-5.78l.85-7.11h2.33l-2.75 18.06h-2.15l-2.75-18.06zM49.18 37.03h-4.67a2.33 2.33 0 0 1-2.34-2.33v-8.62a2.34 2.34 0 0 1 2.34-2.34h2.34v-2.43h-4.17v-2.34h4.17a2.34 2.34 0 0 1 2.34 2.34v15.72zM44.5 34.7h2.34v-8.62H44.5z"/><path fill="#eb7623" d="M24 19.08h-.02c-.66 0-1.2.54-1.2 1.2v8.32c0 .66.54 1.2 1.2 1.2H24c.66 0 1.2-.54 1.2-1.2v-8.32c0-.66-.54-1.2-1.2-1.2"/><path fill="#eb7623" d="M28.95 21.01A1.2 1.2 0 1 0 27.61 23a6.31 6.31 0 1 1-7.16 0l.02-.01.04-.03a1.2 1.2 0 0 0-1.4-1.95 8.7 8.7 0 0 0 4.93 15.91 8.71 8.71 0 0 0 4.93-15.91z"/></g><defs><clipPath id="ahqlljpi3"><rect width="56" height="56" rx="8"/></clipPath></defs></svg>