<svg width="120" height="120" viewBox="0 0 120 120" xmlns="http://www.w3.org/2000/svg"><path fill-rule="evenodd" d="m103.78 66.37-6.43-50.6-3.97.51 6.43 50.6 3.97-.51ZM83.3 18.69 96 68.44l-3.88.99-12.7-49.75 3.88-.99ZM82.1 79.2l-52.4-5.7-.44 3.98 52.4 5.7.44-3.98ZM21.95 97V79h-4v22h73V79h-4v18h-65Zm6-10h54v4h-54v-4Zm55.9-15.68L68.7 25.35 33.9 59.4l49.94 11.92ZM41.86 57.2l35.93 8.58-3.6-10.92-7.94 2.48-6.94-7.23-12.75 2.5-4.7 4.59Zm9.9-9.69 15.14-14.8 6.04 18.35-5.52 1.73-6.74-7.02-8.92 1.74Z" fill="#D1D4DC"/></svg>