<svg width="120" height="120" viewBox="0 0 120 120" xmlns="http://www.w3.org/2000/svg"><path d="M61.05 16 112 99H9l52.05-83ZM16.2 95h88.66L61 23.56 16.21 95Z" fill="#D1D4DC"/><path d="M108.54 60.84 81.9 76.82l-2.04-3.44 26.65-15.98 2.03 3.44Zm-61.6 4.75L12.37 81.42l-1.65-3.64L45.3 61.94l1.65 3.65Zm22.95 9.99-13.95-9.02 2.15-3.37 13.95 9.02-2.15 3.37Z" fill="#D1D4DC"/><path fill-rule="evenodd" d="M51.5 66.07c1.93 0 3.5-1.58 3.5-3.52a3.51 3.51 0 0 0-3.5-3.52 3.51 3.51 0 0 0-3.5 3.52 3.51 3.51 0 0 0 3.5 3.52Zm0 4.03c4.14 0 7.5-3.38 7.5-7.55A7.52 7.52 0 0 0 51.5 55a7.52 7.52 0 0 0-7.5 7.55 7.52 7.52 0 0 0 7.5 7.55ZM75.5 80a3.5 3.5 0 1 0 0-7 3.5 3.5 0 0 0 0 7Zm0 4a7.5 7.5 0 1 0 0-15 7.5 7.5 0 0 0 0 15Z" fill="#D1D4DC"/></svg>