<svg xmlns="http://www.w3.org/2000/svg" width="620" height="468" fill="none" viewBox="0 0 620 468"><path fill="#000" d="M0 0h620v468H0z"/><g filter="url(#art2dzs5h)"><path stroke="#089981" stroke-linecap="round" d="m67 306.5 7.43 6.75m0 0 7.42 6.75-7.42 6.75m0-13.5 7.42-6.75m-7.42 6.75L67 320l7.43 6.75m0 13.5L67 333.5l7.43-6.75m0 13.5 7.42 6.75-7.42 6.75m0-13.5 7.42-6.75-7.42-6.75m0 13.5L67 347l7.43 6.75m0 0 7.42 6.75-7.42 6.75m0-13.5L67 360.5l7.43 6.75m0 0 7.42 6.75-7.42 6.75m0-13.5L67 374l7.43 6.75m0 0 7.42 6.75-7.42 6.75m0-13.5L67 387.5l7.43 6.75m0 0 7.42 6.75m-7.42-6.75L67 401m98.43-73.35L158 320.9l7.43-6.75m0 13.5 7.42 6.75-7.42 6.75m0-13.5 7.42-6.75-7.42-6.75m0 13.5L158 334.4l7.43 6.75m0 0 7.42 6.75-7.42 6.75m0-13.5L158 347.9l7.43 6.75m0 0 7.42 6.75-7.42 6.75m0-13.5L158 361.4l7.43 6.75m0 0 7.42 6.75-7.42 6.75m0-13.5L158 374.9l7.43 6.75m0 0 7.42 6.75-7.42 6.75m0-13.5L158 388.4l7.43 6.75m0 0 7.42 6.75-7.42 6.75m0-13.5L158 401.9l7.43 6.75m0 0 7.42 6.75-7.42 6.75m0-13.5L158 415.4l7.43 6.75m0 0 7.42 6.75-7.42 6.75m0-13.5L158 428.9l7.43 6.75m0 0 7.42 6.75m-7.42-6.75L158 442.4m0-135 7.43 6.75m0 0 7.42-6.75m23.58 114.75L189 415.4l7.43-6.75m0 13.5 7.42 6.75m-7.42-6.75 7.42-6.75-7.42-6.75m0 13.5L189 428.9m7.43-33.75L189 388.4l7.43-6.75m0 13.5 7.42 6.75-7.42 6.75m0-13.5 7.42-6.75-7.42-6.75m0 13.5L189 401.9l7.43 6.75m0-27L189 374.9l7.43-6.75m0 13.5 7.42-6.75-7.42-6.75m0 0L189 361.4l7.43-6.75m0 13.5 7.42-6.75-7.42-6.75m0 0L189 347.9l7.43-6.75m0 13.5 7.42-6.75-7.42-6.75M189 334.4l7.43 6.75m0 0 7.42-6.75m53.58-74.65L250 253l7.43-6.75m0 13.5 7.42 6.75m-7.43-6.75 7.43-6.75-7.43-6.75m0 13.5L250 266.5m0-40.5 7.43 6.75m0 0 7.42 6.75-7.43 6.75m0-13.5 7.43-6.75m-7.43 6.75L250 239.5l7.43 6.75m61-21.5L311 218l7.43-6.75m0 13.5 7.42 6.75m-7.43-6.75 7.43-6.75-7.43-6.75m0 13.5L311 231.5m0-40.5 7.43 6.75m0 0 7.42 6.75-7.43 6.75m0-13.5 7.43-6.75m-7.43 6.75L311 204.5l7.43 6.75m182-60.5L493 144l7.43-6.75m0 13.5 7.42 6.75m-7.43-6.75 7.43-6.75-7.43-6.75m0 13.5L493 157.5m0-40.5 7.43 6.75m0 0 7.42 6.75-7.43 6.75m0-13.5 7.43-6.75m-7.43 6.75L493 130.5l7.43 6.75M97 212l7.42 6.75m0 0 7.43 6.75-7.42 6.75m0-13.5 7.42-6.75m-7.42 6.75L97 225.5l7.42 6.75m0 13.5L97 239l7.42-6.75m0 13.5 7.43 6.75-7.42 6.75m0-13.5 7.42-6.75-7.42-6.75m0 13.5L97 252.5l7.42 6.75m0 0 7.43 6.75-7.42 6.75m0-13.5L97 266l7.42 6.75m0 0 7.43 6.75-7.42 6.75m0-13.5L97 279.5l7.42 6.75m0 0 7.43 6.75-7.42 6.75m0-13.5L97 293l7.42 6.75m0 0 7.43 6.75-7.42 6.75m0-13.5L97 306.5l7.42 6.75m0 0 7.43 6.75-7.42 6.75m0-13.5L97 320l7.42 6.75m0 0 7.43 6.75-7.42 6.75m0-13.5L97 333.5l7.42 6.75m0 0 7.43 6.75-7.42 6.75m0-13.5L97 347l7.42 6.75m0 0 7.43 6.75-7.42 6.75m0-13.5L97 360.5l7.42 6.75m0 0 7.43 6.75-7.42 6.75m0-13.5L97 374l7.42 6.75m0 0 7.43 6.75-7.42 6.75m0-13.5L97 387.5l7.42 6.75m0 0 7.43 6.75-7.42 6.75m0-13.5L97 401l7.42 6.75m0 0 7.43 6.75-7.42 6.75m0-13.5L97 414.5l7.42 6.75m0 0 7.43 6.75m-7.42-6.75L97 428m122-241 7.43 6.75m0 0 7.42 6.75-7.42 6.75m0-13.5 7.42-6.75m-7.42 6.75L219 200.5l7.43 6.75m0 13.5L219 214l7.43-6.75m0 13.5 7.42 6.75-7.42 6.75m0-13.5 7.42-6.75-7.42-6.75m0 13.5L219 227.5l7.43 6.75m0 0 7.42 6.75-7.42 6.75m0-13.5L219 241l7.43 6.75m0 0 7.42 6.75-7.42 6.75m0-13.5L219 254.5l7.43 6.75m0 0 7.42 6.75-7.42 6.75m0-13.5L219 268l7.43 6.75m0 0 7.42 6.75-7.42 6.75m0-13.5L219 281.5l7.43 6.75m0 0 7.42 6.75-7.42 6.75m0-13.5L219 295l7.43 6.75m0 0 7.42 6.75-7.42 6.75m0-13.5L219 308.5l7.43 6.75m0 0 7.42 6.75-7.42 6.75m0-13.5L219 322l7.43 6.75m0 0 7.42 6.75-7.42 6.75m0-13.5L219 335.5l7.43 6.75m0 0 7.42 6.75-7.42 6.75m0-13.5L219 349l7.43 6.75m0 0 7.42 6.75-7.42 6.75m0-13.5L219 362.5l7.43 6.75m0 0 7.42 6.75-7.42 6.75m0-13.5L219 376l7.43 6.75m0 0 7.42 6.75m-7.42-6.75L219 389.5m220.43-276.75L432 106l7.43-6.75m0 13.5 7.42 6.75-7.43 6.75m0-13.5 7.43-6.75-7.43-6.75m0 13.5L432 119.5l7.43 6.75m0 13.5L432 133l7.43-6.75m0 13.5 7.42 6.75-7.43 6.75m0-13.5 7.43-6.75-7.43-6.75m0 13.5L432 146.5l7.43 6.75m0 0 7.42 6.75-7.43 6.75m0-13.5L432 160l7.43 6.75m0 0 7.42 6.75-7.43 6.75m0-13.5L432 173.5l7.43 6.75m0 0 7.42 6.75-7.43 6.75m0-13.5L432 187l7.43 6.75m0 0 7.42 6.75-7.43 6.75m0-13.5L432 200.5l7.43 6.75m0 0 7.42 6.75-7.43 6.75m0-13.5L432 214l7.43 6.75m0 0 7.42 6.75-7.43 6.75m0-13.5L432 227.5l7.43 6.75m0 0 7.42 6.75-7.43 6.75m0-13.5L432 241l7.43 6.75m0 0 7.42 6.75-7.43 6.75m0-13.5L432 254.5l7.43 6.75m0 0 7.42 6.75-7.43 6.75m0-13.5L432 268l7.43 6.75m0 0 7.42 6.75-7.43 6.75m0-13.5L432 281.5l7.43 6.75m0 0 7.42 6.75-7.43 6.75m0-13.5L432 295l7.43 6.75m0 0 7.42 6.75m-7.43-6.75L432 308.5m7.43-209.25L432 92.5l7.43-6.75m0 13.5 7.42-6.75-7.43-6.75m0 0 7.43-6.75m-7.43 6.75L432 79m99.42-23.25L524 49l7.42-6.75m0 13.5 7.43 6.75-7.43 6.75m0-13.5 7.43-6.75-7.43-6.75m0 13.5L524 62.5l7.42 6.75m0 0 7.43 6.75-7.43 6.75m0-13.5L524 76l7.42 6.75m0 0 7.43 6.75-7.43 6.75m0-13.5L524 89.5l7.42 6.75m0 0 7.43 6.75-7.43 6.75m0-13.5L524 103l7.42 6.75m0 0 7.43 6.75-7.43 6.75m0-13.5L524 116.5l7.42 6.75m0 0 7.43 6.75-7.43 6.75m0-13.5L524 130l7.42 6.75m0 0 7.43 6.75-7.43 6.75m0-13.5L524 143.5l7.42 6.75m0 0 7.43 6.75-7.43 6.75m0-13.5L524 157l7.42 6.75m0 0 7.43 6.75-7.43 6.75m0-13.5L524 170.5l7.42 6.75m0 0 7.43 6.75-7.43 6.75m0-13.5L524 184l7.42 6.75m0 0 7.43 6.75-7.43 6.75m0-13.5L524 197.5l7.42 6.75m0 0 7.43 6.75-7.43 6.75m0-13.5L524 211l7.42 6.75m0 0 7.43 6.75m-7.43-6.75L524 224.5m0-189 7.42 6.75m0 0 7.43-6.75M401 213l7.43 6.75m0 0 7.42 6.75-7.43 6.75m0-13.5 7.43-6.75m-7.43 6.75L401 226.5l7.43 6.75m0 0 7.42 6.75-7.43 6.75m0-13.5L401 240l7.43 6.75m0 0 7.42 6.75-7.43 6.75m0-13.5L401 253.5l7.43 6.75m0 0 7.42 6.75-7.43 6.75m0-13.5L401 267l7.43 6.75m0 0 7.42 6.75-7.43 6.75m0-13.5L401 280.5l7.43 6.75m0 0 7.42 6.75-7.43 6.75m0-13.5L401 294l7.43 6.75m0 0 7.42 6.75-7.43 6.75m0-13.5L401 307.5l7.43 6.75m0 0 7.42 6.75-7.43 6.75m0-13.5L401 321l7.43 6.75m0 0 7.42 6.75m-7.43-6.75L401 334.5M280 134l7.43 6.75m0 0 7.42 6.75-7.43 6.75m0-13.5 7.43-6.75m-7.43 6.75L280 147.5l7.43 6.75m0 0 7.42 6.75-7.43 6.75m0-13.5L280 161l7.43 6.75m0 0 7.42 6.75-7.43 6.75m0-13.5L280 174.5l7.43 6.75m0 0 7.42 6.75-7.43 6.75m0-13.5L280 188l7.43 6.75m0 0 7.42 6.75-7.43 6.75m0-13.5L280 201.5l7.43 6.75m0 0 7.42 6.75-7.43 6.75m0-13.5L280 215l7.43 6.75m0 0 7.42 6.75-7.43 6.75m0-13.5L280 228.5l7.43 6.75m0 0 7.42 6.75-7.43 6.75m0-13.5L280 242l7.43 6.75m0 0 7.42 6.75-7.43 6.75m0-13.5L280 255.5l7.43 6.75m0 0 7.42 6.75m-7.43-6.75L280 269m91 24.5 7.43 6.75m0 0 7.42 6.75-7.43 6.75m0-13.5 7.43-6.75m-7.43 6.75L371 307l7.43 6.75m0 0 7.42 6.75-7.43 6.75m0-13.5L371 320.5l7.43 6.75m0 0 7.42 6.75-7.43 6.75m0-13.5L371 334l7.43 6.75m0 0 7.42 6.75-7.43 6.75m0-13.5L371 347.5l7.43 6.75m0 0 7.42 6.75m-7.43-6.75L371 361m-30-94 7.43 6.75m0 0 7.42 6.75-7.43 6.75m0-13.5 7.43-6.75m-7.43 6.75L341 280.5l7.43 6.75m0 0 7.42 6.75-7.43 6.75m0-13.5L341 294l7.43 6.75m0 0 7.42 6.75-7.43 6.75m0-13.5L341 307.5l7.43 6.75m0 0 7.42 6.75m-7.43-6.75L341 321m-205.57 60.65L128 374.9l7.43-6.75m0 13.5 7.42 6.75-7.42 6.75m0-13.5 7.42-6.75-7.42-6.75m0 13.5L128 388.4l7.43 6.75M128 361.4l7.43 6.75m0 0 7.42-6.75m-7.42 33.75 7.42 6.75m-7.42-6.75L128 401.9M462 14l7.43 6.75m0 0 7.42 6.75-7.43 6.75m0-13.5 7.43-6.75m-7.43 6.75L462 27.5l7.43 6.75m0 0 7.42 6.75-7.43 6.75m0-13.5L462 41l7.43 6.75m0 0 7.42 6.75-7.43 6.75m0-13.5L462 54.5l7.43 6.75m0 0 7.42 6.75-7.43 6.75m0-13.5L462 68l7.43 6.75m0 0 7.42 6.75-7.43 6.75m0-13.5L462 81.5l7.43 6.75m0 0 7.42 6.75-7.43 6.75m0-13.5L462 95l7.43 6.75m0 0 7.42 6.75-7.43 6.75m0-13.5L462 108.5l7.43 6.75m0 0 7.42 6.75-7.43 6.75m0-13.5L462 122l7.43 6.75m0 0 7.42 6.75m-7.43-6.75L462 135.5" shape-rendering="crispEdges"/></g><g filter="url(#brt2dzs5h)"><mask id="crt2dzs5h" fill="#fff"><path d="M97.4 353.75c0 3.73-3.22 6.75-7.2 6.75s-7.2-3.02-7.2-6.75 3.22-6.75 7.2-6.75 7.2 3.02 7.2 6.75M97.4 326.75c0 3.73-3.22 6.75-7.2 6.75s-7.2-3.02-7.2-6.75 3.22-6.75 7.2-6.75 7.2 3.02 7.2 6.75M97.4 340.25c0 3.73-3.22 6.75-7.2 6.75s-7.2-3.02-7.2-6.75 3.22-6.75 7.2-6.75 7.2 3.02 7.2 6.75M157.4 434.75c0 3.73-3.22 6.75-7.2 6.75s-7.2-3.02-7.2-6.75 3.22-6.75 7.2-6.75 7.2 3.02 7.2 6.75M157.4 421.25c0 3.73-3.22 6.75-7.2 6.75s-7.2-3.02-7.2-6.75 3.22-6.75 7.2-6.75 7.2 3.02 7.2 6.75M157.4 407.75c0 3.73-3.22 6.75-7.2 6.75s-7.2-3.02-7.2-6.75 3.22-6.75 7.2-6.75 7.2 3.02 7.2 6.75M157.4 394.25c0 3.73-3.22 6.75-7.2 6.75s-7.2-3.02-7.2-6.75 3.22-6.75 7.2-6.75 7.2 3.02 7.2 6.75M157.4 380.75c0 3.73-3.22 6.75-7.2 6.75s-7.2-3.02-7.2-6.75 3.22-6.75 7.2-6.75 7.2 3.02 7.2 6.75M157.4 448.25c0 3.73-3.22 6.75-7.2 6.75s-7.2-3.02-7.2-6.75 3.22-6.75 7.2-6.75 7.2 3.02 7.2 6.75M188.4 327.65c0 3.73-3.22 6.75-7.2 6.75s-7.2-3.02-7.2-6.75 3.22-6.75 7.2-6.75 7.2 3.02 7.2 6.75M188.4 354.65c0 3.73-3.22 6.75-7.2 6.75s-7.2-3.02-7.2-6.75 3.22-6.75 7.2-6.75 7.2 3.02 7.2 6.75M188.4 368.15c0 3.73-3.22 6.75-7.2 6.75s-7.2-3.02-7.2-6.75 3.22-6.75 7.2-6.75 7.2 3.02 7.2 6.75M188.4 381.65c0 3.73-3.22 6.75-7.2 6.75s-7.2-3.02-7.2-6.75 3.22-6.75 7.2-6.75 7.2 3.02 7.2 6.75M188.4 395.15c0 3.73-3.22 6.75-7.2 6.75s-7.2-3.02-7.2-6.75 3.22-6.75 7.2-6.75 7.2 3.02 7.2 6.75M188.4 408.65c0 3.73-3.22 6.75-7.2 6.75s-7.2-3.02-7.2-6.75 3.22-6.75 7.2-6.75 7.2 3.02 7.2 6.75M188.4 422.15c0 3.73-3.22 6.75-7.2 6.75s-7.2-3.02-7.2-6.75 3.22-6.75 7.2-6.75 7.2 3.02 7.2 6.75M188.4 435.65c0 3.73-3.22 6.75-7.2 6.75s-7.2-3.02-7.2-6.75 3.22-6.75 7.2-6.75 7.2 3.02 7.2 6.75M188.4 341.15c0 3.73-3.22 6.75-7.2 6.75s-7.2-3.02-7.2-6.75 3.22-6.75 7.2-6.75 7.2 3.02 7.2 6.75M127.4 232.25c0 3.73-3.22 6.75-7.2 6.75s-7.2-3.02-7.2-6.75 3.22-6.75 7.2-6.75 7.2 3.02 7.2 6.75M127.4 245.75c0 3.73-3.22 6.75-7.2 6.75s-7.2-3.02-7.2-6.75 3.22-6.75 7.2-6.75 7.2 3.02 7.2 6.75M127.4 272.75c0 3.73-3.22 6.75-7.2 6.75s-7.2-3.02-7.2-6.75 3.22-6.75 7.2-6.75 7.2 3.02 7.2 6.75M127.4 286.25c0 3.73-3.22 6.75-7.2 6.75s-7.2-3.02-7.2-6.75 3.22-6.75 7.2-6.75 7.2 3.02 7.2 6.75M127.4 299.75c0 3.73-3.22 6.75-7.2 6.75s-7.2-3.02-7.2-6.75 3.22-6.75 7.2-6.75 7.2 3.02 7.2 6.75M127.4 313.25c0 3.73-3.22 6.75-7.2 6.75s-7.2-3.02-7.2-6.75 3.22-6.75 7.2-6.75 7.2 3.02 7.2 6.75M127.4 326.75c0 3.73-3.22 6.75-7.2 6.75s-7.2-3.02-7.2-6.75 3.22-6.75 7.2-6.75 7.2 3.02 7.2 6.75M127.4 340.25c0 3.73-3.22 6.75-7.2 6.75s-7.2-3.02-7.2-6.75 3.22-6.75 7.2-6.75 7.2 3.02 7.2 6.75M127.4 353.75c0 3.73-3.22 6.75-7.2 6.75s-7.2-3.02-7.2-6.75 3.22-6.75 7.2-6.75 7.2 3.02 7.2 6.75M127.4 367.25c0 3.73-3.22 6.75-7.2 6.75s-7.2-3.02-7.2-6.75 3.22-6.75 7.2-6.75 7.2 3.02 7.2 6.75M127.4 380.75c0 3.73-3.22 6.75-7.2 6.75s-7.2-3.02-7.2-6.75 3.22-6.75 7.2-6.75 7.2 3.02 7.2 6.75M127.4 394.25c0 3.73-3.22 6.75-7.2 6.75s-7.2-3.02-7.2-6.75 3.22-6.75 7.2-6.75 7.2 3.02 7.2 6.75M127.4 407.75c0 3.73-3.22 6.75-7.2 6.75s-7.2-3.02-7.2-6.75 3.22-6.75 7.2-6.75 7.2 3.02 7.2 6.75M127.4 259.25c0 3.73-3.22 6.75-7.2 6.75s-7.2-3.02-7.2-6.75 3.22-6.75 7.2-6.75 7.2 3.02 7.2 6.75M249.4 221.55c0 3.73-3.22 6.75-7.2 6.75s-7.2-3.02-7.2-6.75 3.22-6.75 7.2-6.75 7.2 3.02 7.2 6.75M249.4 235.05c0 3.73-3.22 6.75-7.2 6.75s-7.2-3.02-7.2-6.75 3.22-6.75 7.2-6.75 7.2 3.02 7.2 6.75M249.4 248.55c0 3.73-3.22 6.75-7.2 6.75s-7.2-3.02-7.2-6.75 3.22-6.75 7.2-6.75 7.2 3.02 7.2 6.75M249.4 262.05c0 3.73-3.22 6.75-7.2 6.75s-7.2-3.02-7.2-6.75 3.22-6.75 7.2-6.75 7.2 3.02 7.2 6.75M249.4 275.55c0 3.73-3.22 6.75-7.2 6.75s-7.2-3.02-7.2-6.75 3.22-6.75 7.2-6.75 7.2 3.02 7.2 6.75M249.4 289.05c0 3.73-3.22 6.75-7.2 6.75s-7.2-3.02-7.2-6.75 3.22-6.75 7.2-6.75 7.2 3.02 7.2 6.75M280 221.55c0 3.73-3.22 6.75-7.2 6.75s-7.2-3.02-7.2-6.75 3.22-6.75 7.2-6.75 7.2 3.02 7.2 6.75M280 235.05c0 3.73-3.22 6.75-7.2 6.75s-7.2-3.02-7.2-6.75 3.22-6.75 7.2-6.75 7.2 3.02 7.2 6.75M280 248.55c0 3.73-3.22 6.75-7.2 6.75s-7.2-3.02-7.2-6.75 3.22-6.75 7.2-6.75 7.2 3.02 7.2 6.75M309.7 181.05c0 3.73-3.22 6.75-7.2 6.75s-7.2-3.02-7.2-6.75 3.22-6.75 7.2-6.75 7.2 3.02 7.2 6.75M309.7 194.55c0 3.73-3.22 6.75-7.2 6.75s-7.2-3.02-7.2-6.75 3.22-6.75 7.2-6.75 7.2 3.02 7.2 6.75M309.7 208.05c0 3.73-3.22 6.75-7.2 6.75s-7.2-3.02-7.2-6.75 3.22-6.75 7.2-6.75 7.2 3.02 7.2 6.75M309.7 221.55c0 3.73-3.22 6.75-7.2 6.75s-7.2-3.02-7.2-6.75 3.22-6.75 7.2-6.75 7.2 3.02 7.2 6.75M309.7 235.05c0 3.73-3.22 6.75-7.2 6.75s-7.2-3.02-7.2-6.75 3.22-6.75 7.2-6.75 7.2 3.02 7.2 6.75M309.7 248.55c0 3.73-3.22 6.75-7.2 6.75s-7.2-3.02-7.2-6.75 3.22-6.75 7.2-6.75 7.2 3.02 7.2 6.75M309.7 262.05c0 3.73-3.22 6.75-7.2 6.75s-7.2-3.02-7.2-6.75 3.22-6.75 7.2-6.75 7.2 3.02 7.2 6.75M340.3 235.05c0 3.73-3.22 6.75-7.2 6.75s-7.2-3.02-7.2-6.75 3.22-6.75 7.2-6.75 7.2 3.02 7.2 6.75M340.3 248.55c0 3.73-3.22 6.75-7.2 6.75s-7.2-3.02-7.2-6.75 3.22-6.75 7.2-6.75 7.2 3.02 7.2 6.75M340.3 262.05c0 3.73-3.22 6.75-7.2 6.75s-7.2-3.02-7.2-6.75 3.22-6.75 7.2-6.75 7.2 3.02 7.2 6.75M340.3 275.55c0 3.73-3.22 6.75-7.2 6.75s-7.2-3.02-7.2-6.75 3.22-6.75 7.2-6.75 7.2 3.02 7.2 6.75M340.3 289.05c0 3.73-3.22 6.75-7.2 6.75s-7.2-3.02-7.2-6.75 3.22-6.75 7.2-6.75 7.2 3.02 7.2 6.75M340.3 302.55c0 3.73-3.22 6.75-7.2 6.75s-7.2-3.02-7.2-6.75 3.22-6.75 7.2-6.75 7.2 3.02 7.2 6.75M340.3 316.05c0 3.73-3.22 6.75-7.2 6.75s-7.2-3.02-7.2-6.75 3.22-6.75 7.2-6.75 7.2 3.02 7.2 6.75M340.3 329.55c0 3.73-3.22 6.75-7.2 6.75s-7.2-3.02-7.2-6.75 3.22-6.75 7.2-6.75 7.2 3.02 7.2 6.75M340.3 343.05c0 3.73-3.22 6.75-7.2 6.75s-7.2-3.02-7.2-6.75 3.22-6.75 7.2-6.75 7.2 3.02 7.2 6.75M340.3 356.55c0 3.73-3.22 6.75-7.2 6.75s-7.2-3.02-7.2-6.75 3.22-6.75 7.2-6.75 7.2 3.02 7.2 6.75M370.9 315.15c0 3.73-3.22 6.75-7.2 6.75s-7.2-3.02-7.2-6.75 3.22-6.75 7.2-6.75 7.2 3.02 7.2 6.75M370.9 328.65c0 3.73-3.22 6.75-7.2 6.75s-7.2-3.02-7.2-6.75 3.22-6.75 7.2-6.75 7.2 3.02 7.2 6.75M370.9 342.15c0 3.73-3.22 6.75-7.2 6.75s-7.2-3.02-7.2-6.75 3.22-6.75 7.2-6.75 7.2 3.02 7.2 6.75M370.9 355.65c0 3.73-3.22 6.75-7.2 6.75s-7.2-3.02-7.2-6.75 3.22-6.75 7.2-6.75 7.2 3.02 7.2 6.75M370.9 369.15c0 3.73-3.22 6.75-7.2 6.75s-7.2-3.02-7.2-6.75 3.22-6.75 7.2-6.75 7.2 3.02 7.2 6.75M370.9 382.65c0 3.73-3.22 6.75-7.2 6.75s-7.2-3.02-7.2-6.75 3.22-6.75 7.2-6.75 7.2 3.02 7.2 6.75M370.9 396.15c0 3.73-3.22 6.75-7.2 6.75s-7.2-3.02-7.2-6.75 3.22-6.75 7.2-6.75 7.2 3.02 7.2 6.75M401.5 288.15c0 3.73-3.22 6.75-7.2 6.75s-7.2-3.02-7.2-6.75 3.22-6.75 7.2-6.75 7.2 3.02 7.2 6.75M401.5 301.65c0 3.73-3.22 6.75-7.2 6.75s-7.2-3.02-7.2-6.75 3.22-6.75 7.2-6.75 7.2 3.02 7.2 6.75M401.5 315.15c0 3.73-3.22 6.75-7.2 6.75s-7.2-3.02-7.2-6.75 3.22-6.75 7.2-6.75 7.2 3.02 7.2 6.75M432.1 262.05c0 3.73-3.22 6.75-7.2 6.75s-7.2-3.02-7.2-6.75 3.22-6.75 7.2-6.75 7.2 3.02 7.2 6.75M432.1 275.55c0 3.73-3.22 6.75-7.2 6.75s-7.2-3.02-7.2-6.75 3.22-6.75 7.2-6.75 7.2 3.02 7.2 6.75M432.1 289.05c0 3.73-3.22 6.75-7.2 6.75s-7.2-3.02-7.2-6.75 3.22-6.75 7.2-6.75 7.2 3.02 7.2 6.75M432.1 302.55c0 3.73-3.22 6.75-7.2 6.75s-7.2-3.02-7.2-6.75 3.22-6.75 7.2-6.75 7.2 3.02 7.2 6.75M432.1 316.05c0 3.73-3.22 6.75-7.2 6.75s-7.2-3.02-7.2-6.75 3.22-6.75 7.2-6.75 7.2 3.02 7.2 6.75M432.1 329.55c0 3.73-3.22 6.75-7.2 6.75s-7.2-3.02-7.2-6.75 3.22-6.75 7.2-6.75 7.2 3.02 7.2 6.75M432.1 343.05c0 3.73-3.22 6.75-7.2 6.75s-7.2-3.02-7.2-6.75 3.22-6.75 7.2-6.75 7.2 3.02 7.2 6.75M461.8 88.35c0 3.73-3.22 6.75-7.2 6.75s-7.2-3.02-7.2-6.75 3.22-6.75 7.2-6.75 7.2 3.02 7.2 6.75M461.8 101.85c0 3.73-3.22 6.75-7.2 6.75s-7.2-3.02-7.2-6.75 3.22-6.75 7.2-6.75 7.2 3.02 7.2 6.75M461.8 115.35c0 3.73-3.22 6.75-7.2 6.75s-7.2-3.02-7.2-6.75 3.22-6.75 7.2-6.75 7.2 3.02 7.2 6.75M461.8 128.85c0 3.73-3.22 6.75-7.2 6.75s-7.2-3.02-7.2-6.75 3.22-6.75 7.2-6.75 7.2 3.02 7.2 6.75M492.4 62.25c0 3.73-3.22 6.75-7.2 6.75s-7.2-3.02-7.2-6.75 3.22-6.75 7.2-6.75 7.2 3.02 7.2 6.75M492.4 75.75c0 3.73-3.22 6.75-7.2 6.75s-7.2-3.02-7.2-6.75 3.22-6.75 7.2-6.75 7.2 3.02 7.2 6.75M492.4 89.25c0 3.73-3.22 6.75-7.2 6.75s-7.2-3.02-7.2-6.75 3.22-6.75 7.2-6.75 7.2 3.02 7.2 6.75M492.4 102.75c0 3.73-3.22 6.75-7.2 6.75s-7.2-3.02-7.2-6.75 3.22-6.75 7.2-6.75 7.2 3.02 7.2 6.75M492.4 116.25c0 3.73-3.22 6.75-7.2 6.75s-7.2-3.02-7.2-6.75 3.22-6.75 7.2-6.75 7.2 3.02 7.2 6.75M492.4 129.75c0 3.73-3.22 6.75-7.2 6.75s-7.2-3.02-7.2-6.75 3.22-6.75 7.2-6.75 7.2 3.02 7.2 6.75M492.4 143.25c0 3.73-3.22 6.75-7.2 6.75s-7.2-3.02-7.2-6.75 3.22-6.75 7.2-6.75 7.2 3.02 7.2 6.75M492.4 156.75c0 3.73-3.22 6.75-7.2 6.75s-7.2-3.02-7.2-6.75 3.22-6.75 7.2-6.75 7.2 3.02 7.2 6.75M492.4 170.25c0 3.73-3.22 6.75-7.2 6.75s-7.2-3.02-7.2-6.75 3.22-6.75 7.2-6.75 7.2 3.02 7.2 6.75M523 115.35c0 3.73-3.22 6.75-7.2 6.75s-7.2-3.02-7.2-6.75 3.22-6.75 7.2-6.75 7.2 3.02 7.2 6.75M523 128.85c0 3.73-3.22 6.75-7.2 6.75s-7.2-3.02-7.2-6.75 3.22-6.75 7.2-6.75 7.2 3.02 7.2 6.75M523 142.35c0 3.73-3.22 6.75-7.2 6.75s-7.2-3.02-7.2-6.75 3.22-6.75 7.2-6.75 7.2 3.02 7.2 6.75M523 155.85c0 3.73-3.22 6.75-7.2 6.75s-7.2-3.02-7.2-6.75 3.22-6.75 7.2-6.75 7.2 3.02 7.2 6.75M523 169.35c0 3.73-3.22 6.75-7.2 6.75s-7.2-3.02-7.2-6.75 3.22-6.75 7.2-6.75 7.2 3.02 7.2 6.75M553.6 57.75c0 3.73-3.22 6.75-7.2 6.75s-7.2-3.02-7.2-6.75 3.22-6.75 7.2-6.75 7.2 3.02 7.2 6.75M553.6 71.25c0 3.73-3.22 6.75-7.2 6.75s-7.2-3.02-7.2-6.75 3.22-6.75 7.2-6.75 7.2 3.02 7.2 6.75M553.6 84.75c0 3.73-3.22 6.75-7.2 6.75s-7.2-3.02-7.2-6.75 3.22-6.75 7.2-6.75 7.2 3.02 7.2 6.75M553.6 98.25c0 3.73-3.22 6.75-7.2 6.75s-7.2-3.02-7.2-6.75 3.22-6.75 7.2-6.75 7.2 3.02 7.2 6.75M553.6 111.75c0 3.73-3.22 6.75-7.2 6.75s-7.2-3.02-7.2-6.75 3.22-6.75 7.2-6.75 7.2 3.02 7.2 6.75M218.4 353.75c0 3.73-3.22 6.75-7.2 6.75s-7.2-3.02-7.2-6.75 3.22-6.75 7.2-6.75 7.2 3.02 7.2 6.75M218.4 380.75c0 3.73-3.22 6.75-7.2 6.75s-7.2-3.02-7.2-6.75 3.22-6.75 7.2-6.75 7.2 3.02 7.2 6.75M218.4 394.25c0 3.73-3.22 6.75-7.2 6.75s-7.2-3.02-7.2-6.75 3.22-6.75 7.2-6.75 7.2 3.02 7.2 6.75M218.4 367.25c0 3.73-3.22 6.75-7.2 6.75s-7.2-3.02-7.2-6.75 3.22-6.75 7.2-6.75 7.2 3.02 7.2 6.75"/></mask><path fill="#F23645" d="M97.4 353.75h-1c0 3.12-2.71 5.75-6.2 5.75v2c4.47 0 8.2-3.41 8.2-7.75zm-7.2 6.75v-1c-3.49 0-6.2-2.63-6.2-5.75h-2c0 4.34 3.73 7.75 8.2 7.75zm-7.2-6.75h1c0-3.12 2.71-5.75 6.2-5.75v-2c-4.47 0-8.2 3.41-8.2 7.75zm7.2-6.75v1c3.49 0 6.2 2.63 6.2 5.75h2c0-4.34-3.73-7.75-8.2-7.75zm7.2-20.25h-1c0 3.12-2.71 5.75-6.2 5.75v2c4.47 0 8.2-3.41 8.2-7.75zm-7.2 6.75v-1c-3.49 0-6.2-2.63-6.2-5.75h-2c0 4.34 3.73 7.75 8.2 7.75zm-7.2-6.75h1c0-3.12 2.71-5.75 6.2-5.75v-2c-4.47 0-8.2 3.41-8.2 7.75zm7.2-6.75v1c3.49 0 6.2 2.63 6.2 5.75h2c0-4.34-3.73-7.75-8.2-7.75zm7.2 20.25h-1c0 3.12-2.71 5.75-6.2 5.75v2c4.47 0 8.2-3.41 8.2-7.75zM90.2 347v-1c-3.49 0-6.2-2.63-6.2-5.75h-2c0 4.34 3.73 7.75 8.2 7.75zm-7.2-6.75h1c0-3.12 2.71-5.75 6.2-5.75v-2c-4.47 0-8.2 3.41-8.2 7.75zm7.2-6.75v1c3.49 0 6.2 2.63 6.2 5.75h2c0-4.34-3.73-7.75-8.2-7.75zm67.2 101.25h-1c0 3.12-2.71 5.75-6.2 5.75v2c4.47 0 8.2-3.41 8.2-7.75zm-7.2 6.75v-1c-3.49 0-6.2-2.63-6.2-5.75h-2c0 4.34 3.73 7.75 8.2 7.75zm-7.2-6.75h1c0-3.12 2.71-5.75 6.2-5.75v-2c-4.47 0-8.2 3.41-8.2 7.75zm7.2-6.75v1c3.49 0 6.2 2.63 6.2 5.75h2c0-4.34-3.73-7.75-8.2-7.75zm7.2-6.75h-1c0 3.12-2.71 5.75-6.2 5.75v2c4.47 0 8.2-3.41 8.2-7.75zm-7.2 6.75v-1c-3.49 0-6.2-2.63-6.2-5.75h-2c0 4.34 3.73 7.75 8.2 7.75zm-7.2-6.75h1c0-3.12 2.71-5.75 6.2-5.75v-2c-4.47 0-8.2 3.41-8.2 7.75zm7.2-6.75v1c3.49 0 6.2 2.63 6.2 5.75h2c0-4.34-3.73-7.75-8.2-7.75zm7.2-6.75h-1c0 3.12-2.71 5.75-6.2 5.75v2c4.47 0 8.2-3.41 8.2-7.75zm-7.2 6.75v-1c-3.49 0-6.2-2.63-6.2-5.75h-2c0 4.34 3.73 7.75 8.2 7.75zm-7.2-6.75h1c0-3.12 2.71-5.75 6.2-5.75v-2c-4.47 0-8.2 3.41-8.2 7.75zm7.2-6.75v1c3.49 0 6.2 2.63 6.2 5.75h2c0-4.34-3.73-7.75-8.2-7.75zm7.2-6.75h-1c0 3.12-2.71 5.75-6.2 5.75v2c4.47 0 8.2-3.41 8.2-7.75zm-7.2 6.75v-1c-3.49 0-6.2-2.63-6.2-5.75h-2c0 4.34 3.73 7.75 8.2 7.75zm-7.2-6.75h1c0-3.12 2.71-5.75 6.2-5.75v-2c-4.47 0-8.2 3.41-8.2 7.75zm7.2-6.75v1c3.49 0 6.2 2.63 6.2 5.75h2c0-4.34-3.73-7.75-8.2-7.75zm7.2-6.75h-1c0 3.12-2.71 5.75-6.2 5.75v2c4.47 0 8.2-3.41 8.2-7.75zm-7.2 6.75v-1c-3.49 0-6.2-2.63-6.2-5.75h-2c0 4.34 3.73 7.75 8.2 7.75zm-7.2-6.75h1c0-3.12 2.71-5.75 6.2-5.75v-2c-4.47 0-8.2 3.41-8.2 7.75zm7.2-6.75v1c3.49 0 6.2 2.63 6.2 5.75h2c0-4.34-3.73-7.75-8.2-7.75zm7.2 74.25h-1c0 3.12-2.71 5.75-6.2 5.75v2c4.47 0 8.2-3.41 8.2-7.75zm-7.2 6.75v-1c-3.49 0-6.2-2.63-6.2-5.75h-2c0 4.34 3.73 7.75 8.2 7.75zm-7.2-6.75h1c0-3.12 2.71-5.75 6.2-5.75v-2c-4.47 0-8.2 3.41-8.2 7.75zm7.2-6.75v1c3.49 0 6.2 2.63 6.2 5.75h2c0-4.34-3.73-7.75-8.2-7.75zm38.2-113.85h-1c0 3.12-2.71 5.75-6.2 5.75v2c4.47 0 8.2-3.41 8.2-7.75zm-7.2 6.75v-1c-3.49 0-6.2-2.63-6.2-5.75h-2c0 4.34 3.73 7.75 8.2 7.75zm-7.2-6.75h1c0-3.12 2.71-5.75 6.2-5.75v-2c-4.47 0-8.2 3.41-8.2 7.75zm7.2-6.75v1c3.49 0 6.2 2.63 6.2 5.75h2c0-4.34-3.73-7.75-8.2-7.75zm7.2 33.75h-1c0 3.12-2.71 5.75-6.2 5.75v2c4.47 0 8.2-3.41 8.2-7.75zm-7.2 6.75v-1c-3.49 0-6.2-2.63-6.2-5.75h-2c0 4.34 3.73 7.75 8.2 7.75zm-7.2-6.75h1c0-3.12 2.71-5.75 6.2-5.75v-2c-4.47 0-8.2 3.41-8.2 7.75zm7.2-6.75v1c3.49 0 6.2 2.63 6.2 5.75h2c0-4.34-3.73-7.75-8.2-7.75zm7.2 20.25h-1c0 3.12-2.71 5.75-6.2 5.75v2c4.47 0 8.2-3.41 8.2-7.75zm-7.2 6.75v-1c-3.49 0-6.2-2.63-6.2-5.75h-2c0 4.34 3.73 7.75 8.2 7.75zm-7.2-6.75h1c0-3.12 2.71-5.75 6.2-5.75v-2c-4.47 0-8.2 3.41-8.2 7.75zm7.2-6.75v1c3.49 0 6.2 2.63 6.2 5.75h2c0-4.34-3.73-7.75-8.2-7.75zm7.2 20.25h-1c0 3.12-2.71 5.75-6.2 5.75v2c4.47 0 8.2-3.41 8.2-7.75zm-7.2 6.75v-1c-3.49 0-6.2-2.63-6.2-5.75h-2c0 4.34 3.73 7.75 8.2 7.75zm-7.2-6.75h1c0-3.12 2.71-5.75 6.2-5.75v-2c-4.47 0-8.2 3.41-8.2 7.75zm7.2-6.75v1c3.49 0 6.2 2.63 6.2 5.75h2c0-4.34-3.73-7.75-8.2-7.75zm7.2 20.25h-1c0 3.12-2.71 5.75-6.2 5.75v2c4.47 0 8.2-3.41 8.2-7.75zm-7.2 6.75v-1c-3.49 0-6.2-2.63-6.2-5.75h-2c0 4.34 3.73 7.75 8.2 7.75zm-7.2-6.75h1c0-3.12 2.71-5.75 6.2-5.75v-2c-4.47 0-8.2 3.41-8.2 7.75zm7.2-6.75v1c3.49 0 6.2 2.63 6.2 5.75h2c0-4.34-3.73-7.75-8.2-7.75zm7.2 20.25h-1c0 3.12-2.71 5.75-6.2 5.75v2c4.47 0 8.2-3.41 8.2-7.75zm-7.2 6.75v-1c-3.49 0-6.2-2.63-6.2-5.75h-2c0 4.34 3.73 7.75 8.2 7.75zm-7.2-6.75h1c0-3.12 2.71-5.75 6.2-5.75v-2c-4.47 0-8.2 3.41-8.2 7.75zm7.2-6.75v1c3.49 0 6.2 2.63 6.2 5.75h2c0-4.34-3.73-7.75-8.2-7.75zm7.2 20.25h-1c0 3.12-2.71 5.75-6.2 5.75v2c4.47 0 8.2-3.41 8.2-7.75zm-7.2 6.75v-1c-3.49 0-6.2-2.63-6.2-5.75h-2c0 4.34 3.73 7.75 8.2 7.75zm-7.2-6.75h1c0-3.12 2.71-5.75 6.2-5.75v-2c-4.47 0-8.2 3.41-8.2 7.75zm7.2-6.75v1c3.49 0 6.2 2.63 6.2 5.75h2c0-4.34-3.73-7.75-8.2-7.75zm7.2 20.25h-1c0 3.12-2.71 5.75-6.2 5.75v2c4.47 0 8.2-3.41 8.2-7.75zm-7.2 6.75v-1c-3.49 0-6.2-2.63-6.2-5.75h-2c0 4.34 3.73 7.75 8.2 7.75zm-7.2-6.75h1c0-3.12 2.71-5.75 6.2-5.75v-2c-4.47 0-8.2 3.41-8.2 7.75zm7.2-6.75v1c3.49 0 6.2 2.63 6.2 5.75h2c0-4.34-3.73-7.75-8.2-7.75zm7.2-87.75h-1c0 3.12-2.71 5.75-6.2 5.75v2c4.47 0 8.2-3.41 8.2-7.75zm-7.2 6.75v-1c-3.49 0-6.2-2.63-6.2-5.75h-2c0 4.34 3.73 7.75 8.2 7.75zm-7.2-6.75h1c0-3.12 2.71-5.75 6.2-5.75v-2c-4.47 0-8.2 3.41-8.2 7.75zm7.2-6.75v1c3.49 0 6.2 2.63 6.2 5.75h2c0-4.34-3.73-7.75-8.2-7.75zm-53.8-102.15h-1c0 3.12-2.71 5.75-6.2 5.75v2c4.47 0 8.2-3.41 8.2-7.75zm-7.2 6.75v-1c-3.49 0-6.2-2.63-6.2-5.75h-2c0 4.34 3.73 7.75 8.2 7.75zm-7.2-6.75h1c0-3.12 2.71-5.75 6.2-5.75v-2c-4.47 0-8.2 3.41-8.2 7.75zm7.2-6.75v1c3.49 0 6.2 2.63 6.2 5.75h2c0-4.34-3.73-7.75-8.2-7.75zm7.2 20.25h-1c0 3.12-2.71 5.75-6.2 5.75v2c4.47 0 8.2-3.41 8.2-7.75zm-7.2 6.75v-1c-3.49 0-6.2-2.63-6.2-5.75h-2c0 4.34 3.73 7.75 8.2 7.75zm-7.2-6.75h1c0-3.12 2.71-5.75 6.2-5.75v-2c-4.47 0-8.2 3.41-8.2 7.75zm7.2-6.75v1c3.49 0 6.2 2.63 6.2 5.75h2c0-4.34-3.73-7.75-8.2-7.75zm7.2 33.75h-1c0 3.12-2.71 5.75-6.2 5.75v2c4.47 0 8.2-3.41 8.2-7.75zm-7.2 6.75v-1c-3.49 0-6.2-2.63-6.2-5.75h-2c0 4.34 3.73 7.75 8.2 7.75zm-7.2-6.75h1c0-3.12 2.71-5.75 6.2-5.75v-2c-4.47 0-8.2 3.41-8.2 7.75zm7.2-6.75v1c3.49 0 6.2 2.63 6.2 5.75h2c0-4.34-3.73-7.75-8.2-7.75zm7.2 20.25h-1c0 3.12-2.71 5.75-6.2 5.75v2c4.47 0 8.2-3.41 8.2-7.75zm-7.2 6.75v-1c-3.49 0-6.2-2.63-6.2-5.75h-2c0 4.34 3.73 7.75 8.2 7.75zm-7.2-6.75h1c0-3.12 2.71-5.75 6.2-5.75v-2c-4.47 0-8.2 3.41-8.2 7.75zm7.2-6.75v1c3.49 0 6.2 2.63 6.2 5.75h2c0-4.34-3.73-7.75-8.2-7.75zm7.2 20.25h-1c0 3.12-2.71 5.75-6.2 5.75v2c4.47 0 8.2-3.41 8.2-7.75zm-7.2 6.75v-1c-3.49 0-6.2-2.63-6.2-5.75h-2c0 4.34 3.73 7.75 8.2 7.75zm-7.2-6.75h1c0-3.12 2.71-5.75 6.2-5.75v-2c-4.47 0-8.2 3.41-8.2 7.75zm7.2-6.75v1c3.49 0 6.2 2.63 6.2 5.75h2c0-4.34-3.73-7.75-8.2-7.75zm7.2 20.25h-1c0 3.12-2.71 5.75-6.2 5.75v2c4.47 0 8.2-3.41 8.2-7.75zm-7.2 6.75v-1c-3.49 0-6.2-2.63-6.2-5.75h-2c0 4.34 3.73 7.75 8.2 7.75zm-7.2-6.75h1c0-3.12 2.71-5.75 6.2-5.75v-2c-4.47 0-8.2 3.41-8.2 7.75zm7.2-6.75v1c3.49 0 6.2 2.63 6.2 5.75h2c0-4.34-3.73-7.75-8.2-7.75zm7.2 20.25h-1c0 3.12-2.71 5.75-6.2 5.75v2c4.47 0 8.2-3.41 8.2-7.75zm-7.2 6.75v-1c-3.49 0-6.2-2.63-6.2-5.75h-2c0 4.34 3.73 7.75 8.2 7.75zm-7.2-6.75h1c0-3.12 2.71-5.75 6.2-5.75v-2c-4.47 0-8.2 3.41-8.2 7.75zm7.2-6.75v1c3.49 0 6.2 2.63 6.2 5.75h2c0-4.34-3.73-7.75-8.2-7.75zm7.2 20.25h-1c0 3.12-2.71 5.75-6.2 5.75v2c4.47 0 8.2-3.41 8.2-7.75zm-7.2 6.75v-1c-3.49 0-6.2-2.63-6.2-5.75h-2c0 4.34 3.73 7.75 8.2 7.75zm-7.2-6.75h1c0-3.12 2.71-5.75 6.2-5.75v-2c-4.47 0-8.2 3.41-8.2 7.75zm7.2-6.75v1c3.49 0 6.2 2.63 6.2 5.75h2c0-4.34-3.73-7.75-8.2-7.75zm7.2 20.25h-1c0 3.12-2.71 5.75-6.2 5.75v2c4.47 0 8.2-3.41 8.2-7.75zm-7.2 6.75v-1c-3.49 0-6.2-2.63-6.2-5.75h-2c0 4.34 3.73 7.75 8.2 7.75zm-7.2-6.75h1c0-3.12 2.71-5.75 6.2-5.75v-2c-4.47 0-8.2 3.41-8.2 7.75zm7.2-6.75v1c3.49 0 6.2 2.63 6.2 5.75h2c0-4.34-3.73-7.75-8.2-7.75zm7.2 20.25h-1c0 3.12-2.71 5.75-6.2 5.75v2c4.47 0 8.2-3.41 8.2-7.75zm-7.2 6.75v-1c-3.49 0-6.2-2.63-6.2-5.75h-2c0 4.34 3.73 7.75 8.2 7.75zm-7.2-6.75h1c0-3.12 2.71-5.75 6.2-5.75v-2c-4.47 0-8.2 3.41-8.2 7.75zm7.2-6.75v1c3.49 0 6.2 2.63 6.2 5.75h2c0-4.34-3.73-7.75-8.2-7.75zm7.2 20.25h-1c0 3.12-2.71 5.75-6.2 5.75v2c4.47 0 8.2-3.41 8.2-7.75zm-7.2 6.75v-1c-3.49 0-6.2-2.63-6.2-5.75h-2c0 4.34 3.73 7.75 8.2 7.75zm-7.2-6.75h1c0-3.12 2.71-5.75 6.2-5.75v-2c-4.47 0-8.2 3.41-8.2 7.75zm7.2-6.75v1c3.49 0 6.2 2.63 6.2 5.75h2c0-4.34-3.73-7.75-8.2-7.75zm7.2 20.25h-1c0 3.12-2.71 5.75-6.2 5.75v2c4.47 0 8.2-3.41 8.2-7.75zm-7.2 6.75v-1c-3.49 0-6.2-2.63-6.2-5.75h-2c0 4.34 3.73 7.75 8.2 7.75zm-7.2-6.75h1c0-3.12 2.71-5.75 6.2-5.75v-2c-4.47 0-8.2 3.41-8.2 7.75zm7.2-6.75v1c3.49 0 6.2 2.63 6.2 5.75h2c0-4.34-3.73-7.75-8.2-7.75zm7.2 20.25h-1c0 3.12-2.71 5.75-6.2 5.75v2c4.47 0 8.2-3.41 8.2-7.75zm-7.2 6.75v-1c-3.49 0-6.2-2.63-6.2-5.75h-2c0 4.34 3.73 7.75 8.2 7.75zm-7.2-6.75h1c0-3.12 2.71-5.75 6.2-5.75v-2c-4.47 0-8.2 3.41-8.2 7.75zm7.2-6.75v1c3.49 0 6.2 2.63 6.2 5.75h2c0-4.34-3.73-7.75-8.2-7.75zm7.2-141.75h-1c0 3.12-2.71 5.75-6.2 5.75v2c4.47 0 8.2-3.41 8.2-7.75zm-7.2 6.75v-1c-3.49 0-6.2-2.63-6.2-5.75h-2c0 4.34 3.73 7.75 8.2 7.75zm-7.2-6.75h1c0-3.12 2.71-5.75 6.2-5.75v-2c-4.47 0-8.2 3.41-8.2 7.75zm7.2-6.75v1c3.49 0 6.2 2.63 6.2 5.75h2c0-4.34-3.73-7.75-8.2-7.75zm129.2-30.95h-1c0 3.12-2.71 5.75-6.2 5.75v2c4.47 0 8.2-3.41 8.2-7.75zm-7.2 6.75v-1c-3.49 0-6.2-2.63-6.2-5.75h-2c0 4.34 3.73 7.75 8.2 7.75zm-7.2-6.75h1c0-3.12 2.71-5.75 6.2-5.75v-2c-4.47 0-8.2 3.41-8.2 7.75zm7.2-6.75v1c3.49 0 6.2 2.63 6.2 5.75h2c0-4.34-3.73-7.75-8.2-7.75zm7.2 20.25h-1c0 3.12-2.71 5.75-6.2 5.75v2c4.47 0 8.2-3.41 8.2-7.75zm-7.2 6.75v-1c-3.49 0-6.2-2.63-6.2-5.75h-2c0 4.34 3.73 7.75 8.2 7.75zm-7.2-6.75h1c0-3.12 2.71-5.75 6.2-5.75v-2c-4.47 0-8.2 3.41-8.2 7.75zm7.2-6.75v1c3.49 0 6.2 2.63 6.2 5.75h2c0-4.34-3.73-7.75-8.2-7.75zm7.2 20.25h-1c0 3.12-2.71 5.75-6.2 5.75v2c4.47 0 8.2-3.41 8.2-7.75zm-7.2 6.75v-1c-3.49 0-6.2-2.63-6.2-5.75h-2c0 4.34 3.73 7.75 8.2 7.75zm-7.2-6.75h1c0-3.12 2.71-5.75 6.2-5.75v-2c-4.47 0-8.2 3.41-8.2 7.75zm7.2-6.75v1c3.49 0 6.2 2.63 6.2 5.75h2c0-4.34-3.73-7.75-8.2-7.75zm7.2 20.25h-1c0 3.12-2.71 5.75-6.2 5.75v2c4.47 0 8.2-3.41 8.2-7.75zm-7.2 6.75v-1c-3.49 0-6.2-2.63-6.2-5.75h-2c0 4.34 3.73 7.75 8.2 7.75zm-7.2-6.75h1c0-3.12 2.71-5.75 6.2-5.75v-2c-4.47 0-8.2 3.41-8.2 7.75zm7.2-6.75v1c3.49 0 6.2 2.63 6.2 5.75h2c0-4.34-3.73-7.75-8.2-7.75zm7.2 20.25h-1c0 3.12-2.71 5.75-6.2 5.75v2c4.47 0 8.2-3.41 8.2-7.75zm-7.2 6.75v-1c-3.49 0-6.2-2.63-6.2-5.75h-2c0 4.34 3.73 7.75 8.2 7.75zm-7.2-6.75h1c0-3.12 2.71-5.75 6.2-5.75v-2c-4.47 0-8.2 3.41-8.2 7.75zm7.2-6.75v1c3.49 0 6.2 2.63 6.2 5.75h2c0-4.34-3.73-7.75-8.2-7.75zm7.2 20.25h-1c0 3.12-2.71 5.75-6.2 5.75v2c4.47 0 8.2-3.41 8.2-7.75zm-7.2 6.75v-1c-3.49 0-6.2-2.63-6.2-5.75h-2c0 4.34 3.73 7.75 8.2 7.75zm-7.2-6.75h1c0-3.12 2.71-5.75 6.2-5.75v-2c-4.47 0-8.2 3.41-8.2 7.75zm7.2-6.75v1c3.49 0 6.2 2.63 6.2 5.75h2c0-4.34-3.73-7.75-8.2-7.75zm37.8-60.75h-1c0 3.12-2.71 5.75-6.2 5.75v2c4.47 0 8.2-3.41 8.2-7.75zm-7.2 6.75v-1c-3.49 0-6.2-2.63-6.2-5.75h-2c0 4.34 3.73 7.75 8.2 7.75zm-7.2-6.75h1c0-3.12 2.71-5.75 6.2-5.75v-2c-4.47 0-8.2 3.41-8.2 7.75zm7.2-6.75v1c3.49 0 6.2 2.63 6.2 5.75h2c0-4.34-3.73-7.75-8.2-7.75zm7.2 20.25h-1c0 3.12-2.71 5.75-6.2 5.75v2c4.47 0 8.2-3.41 8.2-7.75zm-7.2 6.75v-1c-3.49 0-6.2-2.63-6.2-5.75h-2c0 4.34 3.73 7.75 8.2 7.75zm-7.2-6.75h1c0-3.12 2.71-5.75 6.2-5.75v-2c-4.47 0-8.2 3.41-8.2 7.75zm7.2-6.75v1c3.49 0 6.2 2.63 6.2 5.75h2c0-4.34-3.73-7.75-8.2-7.75zm7.2 20.25h-1c0 3.12-2.71 5.75-6.2 5.75v2c4.47 0 8.2-3.41 8.2-7.75zm-7.2 6.75v-1c-3.49 0-6.2-2.63-6.2-5.75h-2c0 4.34 3.73 7.75 8.2 7.75zm-7.2-6.75h1c0-3.12 2.71-5.75 6.2-5.75v-2c-4.47 0-8.2 3.41-8.2 7.75zm7.2-6.75v1c3.49 0 6.2 2.63 6.2 5.75h2c0-4.34-3.73-7.75-8.2-7.75zm36.9-60.75h-1c0 3.12-2.71 5.75-6.2 5.75v2c4.47 0 8.2-3.41 8.2-7.75zm-7.2 6.75v-1c-3.49 0-6.2-2.63-6.2-5.75h-2c0 4.34 3.73 7.75 8.2 7.75zm-7.2-6.75h1c0-3.12 2.71-5.75 6.2-5.75v-2c-4.47 0-8.2 3.41-8.2 7.75zm7.2-6.75v1c3.49 0 6.2 2.63 6.2 5.75h2c0-4.34-3.73-7.75-8.2-7.75zm7.2 20.25h-1c0 3.12-2.71 5.75-6.2 5.75v2c4.47 0 8.2-3.41 8.2-7.75zm-7.2 6.75v-1c-3.49 0-6.2-2.63-6.2-5.75h-2c0 4.34 3.73 7.75 8.2 7.75zm-7.2-6.75h1c0-3.12 2.71-5.75 6.2-5.75v-2c-4.47 0-8.2 3.41-8.2 7.75zm7.2-6.75v1c3.49 0 6.2 2.63 6.2 5.75h2c0-4.34-3.73-7.75-8.2-7.75zm7.2 20.25h-1c0 3.12-2.71 5.75-6.2 5.75v2c4.47 0 8.2-3.41 8.2-7.75zm-7.2 6.75v-1c-3.49 0-6.2-2.63-6.2-5.75h-2c0 4.34 3.73 7.75 8.2 7.75zm-7.2-6.75h1c0-3.12 2.71-5.75 6.2-5.75v-2c-4.47 0-8.2 3.41-8.2 7.75zm7.2-6.75v1c3.49 0 6.2 2.63 6.2 5.75h2c0-4.34-3.73-7.75-8.2-7.75zm7.2 20.25h-1c0 3.12-2.71 5.75-6.2 5.75v2c4.47 0 8.2-3.41 8.2-7.75zm-7.2 6.75v-1c-3.49 0-6.2-2.63-6.2-5.75h-2c0 4.34 3.73 7.75 8.2 7.75zm-7.2-6.75h1c0-3.12 2.71-5.75 6.2-5.75v-2c-4.47 0-8.2 3.41-8.2 7.75zm7.2-6.75v1c3.49 0 6.2 2.63 6.2 5.75h2c0-4.34-3.73-7.75-8.2-7.75zm7.2 20.25h-1c0 3.12-2.71 5.75-6.2 5.75v2c4.47 0 8.2-3.41 8.2-7.75zm-7.2 6.75v-1c-3.49 0-6.2-2.63-6.2-5.75h-2c0 4.34 3.73 7.75 8.2 7.75zm-7.2-6.75h1c0-3.12 2.71-5.75 6.2-5.75v-2c-4.47 0-8.2 3.41-8.2 7.75zm7.2-6.75v1c3.49 0 6.2 2.63 6.2 5.75h2c0-4.34-3.73-7.75-8.2-7.75zm7.2 20.25h-1c0 3.12-2.71 5.75-6.2 5.75v2c4.47 0 8.2-3.41 8.2-7.75zm-7.2 6.75v-1c-3.49 0-6.2-2.63-6.2-5.75h-2c0 4.34 3.73 7.75 8.2 7.75zm-7.2-6.75h1c0-3.12 2.71-5.75 6.2-5.75v-2c-4.47 0-8.2 3.41-8.2 7.75zm7.2-6.75v1c3.49 0 6.2 2.63 6.2 5.75h2c0-4.34-3.73-7.75-8.2-7.75zm7.2 20.25h-1c0 3.12-2.71 5.75-6.2 5.75v2c4.47 0 8.2-3.41 8.2-7.75zm-7.2 6.75v-1c-3.49 0-6.2-2.63-6.2-5.75h-2c0 4.34 3.73 7.75 8.2 7.75zm-7.2-6.75h1c0-3.12 2.71-5.75 6.2-5.75v-2c-4.47 0-8.2 3.41-8.2 7.75zm7.2-6.75v1c3.49 0 6.2 2.63 6.2 5.75h2c0-4.34-3.73-7.75-8.2-7.75zm37.8-20.25h-1c0 3.12-2.71 5.75-6.2 5.75v2c4.47 0 8.2-3.41 8.2-7.75zm-7.2 6.75v-1c-3.49 0-6.2-2.63-6.2-5.75h-2c0 4.34 3.73 7.75 8.2 7.75zm-7.2-6.75h1c0-3.12 2.71-5.75 6.2-5.75v-2c-4.47 0-8.2 3.41-8.2 7.75zm7.2-6.75v1c3.49 0 6.2 2.63 6.2 5.75h2c0-4.34-3.73-7.75-8.2-7.75zm7.2 20.25h-1c0 3.12-2.71 5.75-6.2 5.75v2c4.47 0 8.2-3.41 8.2-7.75zm-7.2 6.75v-1c-3.49 0-6.2-2.63-6.2-5.75h-2c0 4.34 3.73 7.75 8.2 7.75zm-7.2-6.75h1c0-3.12 2.71-5.75 6.2-5.75v-2c-4.47 0-8.2 3.41-8.2 7.75zm7.2-6.75v1c3.49 0 6.2 2.63 6.2 5.75h2c0-4.34-3.73-7.75-8.2-7.75zm7.2 20.25h-1c0 3.12-2.71 5.75-6.2 5.75v2c4.47 0 8.2-3.41 8.2-7.75zm-7.2 6.75v-1c-3.49 0-6.2-2.63-6.2-5.75h-2c0 4.34 3.73 7.75 8.2 7.75zm-7.2-6.75h1c0-3.12 2.71-5.75 6.2-5.75v-2c-4.47 0-8.2 3.41-8.2 7.75zm7.2-6.75v1c3.49 0 6.2 2.63 6.2 5.75h2c0-4.34-3.73-7.75-8.2-7.75zm7.2 20.25h-1c0 3.12-2.71 5.75-6.2 5.75v2c4.47 0 8.2-3.41 8.2-7.75zm-7.2 6.75v-1c-3.49 0-6.2-2.63-6.2-5.75h-2c0 4.34 3.73 7.75 8.2 7.75zm-7.2-6.75h1c0-3.12 2.71-5.75 6.2-5.75v-2c-4.47 0-8.2 3.41-8.2 7.75zm7.2-6.75v1c3.49 0 6.2 2.63 6.2 5.75h2c0-4.34-3.73-7.75-8.2-7.75zm7.2 20.25h-1c0 3.12-2.71 5.75-6.2 5.75v2c4.47 0 8.2-3.41 8.2-7.75zm-7.2 6.75v-1c-3.49 0-6.2-2.63-6.2-5.75h-2c0 4.34 3.73 7.75 8.2 7.75zm-7.2-6.75h1c0-3.12 2.71-5.75 6.2-5.75v-2c-4.47 0-8.2 3.41-8.2 7.75zm7.2-6.75v1c3.49 0 6.2 2.63 6.2 5.75h2c0-4.34-3.73-7.75-8.2-7.75zm7.2 20.25h-1c0 3.12-2.71 5.75-6.2 5.75v2c4.47 0 8.2-3.41 8.2-7.75zm-7.2 6.75v-1c-3.49 0-6.2-2.63-6.2-5.75h-2c0 4.34 3.73 7.75 8.2 7.75zm-7.2-6.75h1c0-3.12 2.71-5.75 6.2-5.75v-2c-4.47 0-8.2 3.41-8.2 7.75zm7.2-6.75v1c3.49 0 6.2 2.63 6.2 5.75h2c0-4.34-3.73-7.75-8.2-7.75zm7.2 20.25h-1c0 3.12-2.71 5.75-6.2 5.75v2c4.47 0 8.2-3.41 8.2-7.75zm-7.2 6.75v-1c-3.49 0-6.2-2.63-6.2-5.75h-2c0 4.34 3.73 7.75 8.2 7.75zm-7.2-6.75h1c0-3.12 2.71-5.75 6.2-5.75v-2c-4.47 0-8.2 3.41-8.2 7.75zm7.2-6.75v1c3.49 0 6.2 2.63 6.2 5.75h2c0-4.34-3.73-7.75-8.2-7.75zm7.2 20.25h-1c0 3.12-2.71 5.75-6.2 5.75v2c4.47 0 8.2-3.41 8.2-7.75zm-7.2 6.75v-1c-3.49 0-6.2-2.63-6.2-5.75h-2c0 4.34 3.73 7.75 8.2 7.75zm-7.2-6.75h1c0-3.12 2.71-5.75 6.2-5.75v-2c-4.47 0-8.2 3.41-8.2 7.75zm7.2-6.75v1c3.49 0 6.2 2.63 6.2 5.75h2c0-4.34-3.73-7.75-8.2-7.75zm7.2 20.25h-1c0 3.12-2.71 5.75-6.2 5.75v2c4.47 0 8.2-3.41 8.2-7.75zm-7.2 6.75v-1c-3.49 0-6.2-2.63-6.2-5.75h-2c0 4.34 3.73 7.75 8.2 7.75zm-7.2-6.75h1c0-3.12 2.71-5.75 6.2-5.75v-2c-4.47 0-8.2 3.41-8.2 7.75zm7.2-6.75v1c3.49 0 6.2 2.63 6.2 5.75h2c0-4.34-3.73-7.75-8.2-7.75zm7.2 20.25h-1c0 3.12-2.71 5.75-6.2 5.75v2c4.47 0 8.2-3.41 8.2-7.75zm-7.2 6.75v-1c-3.49 0-6.2-2.63-6.2-5.75h-2c0 4.34 3.73 7.75 8.2 7.75zm-7.2-6.75h1c0-3.12 2.71-5.75 6.2-5.75v-2c-4.47 0-8.2 3.41-8.2 7.75zm7.2-6.75v1c3.49 0 6.2 2.63 6.2 5.75h2c0-4.34-3.73-7.75-8.2-7.75zm37.8-34.65h-1c0 3.12-2.71 5.75-6.2 5.75v2c4.47 0 8.2-3.41 8.2-7.75zm-7.2 6.75v-1c-3.49 0-6.2-2.63-6.2-5.75h-2c0 4.34 3.73 7.75 8.2 7.75zm-7.2-6.75h1c0-3.12 2.71-5.75 6.2-5.75v-2c-4.47 0-8.2 3.41-8.2 7.75zm7.2-6.75v1c3.49 0 6.2 2.63 6.2 5.75h2c0-4.34-3.73-7.75-8.2-7.75zm7.2 20.25h-1c0 3.12-2.71 5.75-6.2 5.75v2c4.47 0 8.2-3.41 8.2-7.75zm-7.2 6.75v-1c-3.49 0-6.2-2.63-6.2-5.75h-2c0 4.34 3.73 7.75 8.2 7.75zm-7.2-6.75h1c0-3.12 2.71-5.75 6.2-5.75v-2c-4.47 0-8.2 3.41-8.2 7.75zm7.2-6.75v1c3.49 0 6.2 2.63 6.2 5.75h2c0-4.34-3.73-7.75-8.2-7.75zm7.2 20.25h-1c0 3.12-2.71 5.75-6.2 5.75v2c4.47 0 8.2-3.41 8.2-7.75zm-7.2 6.75v-1c-3.49 0-6.2-2.63-6.2-5.75h-2c0 4.34 3.73 7.75 8.2 7.75zm-7.2-6.75h1c0-3.12 2.71-5.75 6.2-5.75v-2c-4.47 0-8.2 3.41-8.2 7.75zm7.2-6.75v1c3.49 0 6.2 2.63 6.2 5.75h2c0-4.34-3.73-7.75-8.2-7.75zm7.2 20.25h-1c0 3.12-2.71 5.75-6.2 5.75v2c4.47 0 8.2-3.41 8.2-7.75zm-7.2 6.75v-1c-3.49 0-6.2-2.63-6.2-5.75h-2c0 4.34 3.73 7.75 8.2 7.75zm-7.2-6.75h1c0-3.12 2.71-5.75 6.2-5.75v-2c-4.47 0-8.2 3.41-8.2 7.75zm7.2-6.75v1c3.49 0 6.2 2.63 6.2 5.75h2c0-4.34-3.73-7.75-8.2-7.75zm7.2 20.25h-1c0 3.12-2.71 5.75-6.2 5.75v2c4.47 0 8.2-3.41 8.2-7.75zm-7.2 6.75v-1c-3.49 0-6.2-2.63-6.2-5.75h-2c0 4.34 3.73 7.75 8.2 7.75zm-7.2-6.75h1c0-3.12 2.71-5.75 6.2-5.75v-2c-4.47 0-8.2 3.41-8.2 7.75zm7.2-6.75v1c3.49 0 6.2 2.63 6.2 5.75h2c0-4.34-3.73-7.75-8.2-7.75zm7.2 20.25h-1c0 3.12-2.71 5.75-6.2 5.75v2c4.47 0 8.2-3.41 8.2-7.75zm-7.2 6.75v-1c-3.49 0-6.2-2.63-6.2-5.75h-2c0 4.34 3.73 7.75 8.2 7.75zm-7.2-6.75h1c0-3.12 2.71-5.75 6.2-5.75v-2c-4.47 0-8.2 3.41-8.2 7.75zm7.2-6.75v1c3.49 0 6.2 2.63 6.2 5.75h2c0-4.34-3.73-7.75-8.2-7.75zm7.2 20.25h-1c0 3.12-2.71 5.75-6.2 5.75v2c4.47 0 8.2-3.41 8.2-7.75zm-7.2 6.75v-1c-3.49 0-6.2-2.63-6.2-5.75h-2c0 4.34 3.73 7.75 8.2 7.75zm-7.2-6.75h1c0-3.12 2.71-5.75 6.2-5.75v-2c-4.47 0-8.2 3.41-8.2 7.75zm7.2-6.75v1c3.49 0 6.2 2.63 6.2 5.75h2c0-4.34-3.73-7.75-8.2-7.75zm37.8-101.25h-1c0 3.12-2.71 5.75-6.2 5.75v2c4.47 0 8.2-3.41 8.2-7.75zm-7.2 6.75v-1c-3.49 0-6.2-2.63-6.2-5.75h-2c0 4.34 3.73 7.75 8.2 7.75zm-7.2-6.75h1c0-3.12 2.71-5.75 6.2-5.75v-2c-4.47 0-8.2 3.41-8.2 7.75zm7.2-6.75v1c3.49 0 6.2 2.63 6.2 5.75h2c0-4.34-3.73-7.75-8.2-7.75zm7.2 20.25h-1c0 3.12-2.71 5.75-6.2 5.75v2c4.47 0 8.2-3.41 8.2-7.75zm-7.2 6.75v-1c-3.49 0-6.2-2.63-6.2-5.75h-2c0 4.34 3.73 7.75 8.2 7.75zm-7.2-6.75h1c0-3.12 2.71-5.75 6.2-5.75v-2c-4.47 0-8.2 3.41-8.2 7.75zm7.2-6.75v1c3.49 0 6.2 2.63 6.2 5.75h2c0-4.34-3.73-7.75-8.2-7.75zm7.2 20.25h-1c0 3.12-2.71 5.75-6.2 5.75v2c4.47 0 8.2-3.41 8.2-7.75zm-7.2 6.75v-1c-3.49 0-6.2-2.63-6.2-5.75h-2c0 4.34 3.73 7.75 8.2 7.75zm-7.2-6.75h1c0-3.12 2.71-5.75 6.2-5.75v-2c-4.47 0-8.2 3.41-8.2 7.75zm7.2-6.75v1c3.49 0 6.2 2.63 6.2 5.75h2c0-4.34-3.73-7.75-8.2-7.75zm37.8-46.35h-1c0 3.12-2.72 5.75-6.2 5.75v2c4.47 0 8.2-3.41 8.2-7.75zm-7.2 6.75v-1c-3.49 0-6.2-2.63-6.2-5.75h-2c0 4.34 3.73 7.75 8.2 7.75zm-7.2-6.75h1c0-3.12 2.71-5.75 6.2-5.75v-2c-4.47 0-8.2 3.41-8.2 7.75zm7.2-6.75v1c3.49 0 6.2 2.63 6.2 5.75h2c0-4.34-3.73-7.75-8.2-7.75zm7.2 20.25h-1c0 3.12-2.72 5.75-6.2 5.75v2c4.47 0 8.2-3.41 8.2-7.75zm-7.2 6.75v-1c-3.49 0-6.2-2.63-6.2-5.75h-2c0 4.34 3.73 7.75 8.2 7.75zm-7.2-6.75h1c0-3.12 2.71-5.75 6.2-5.75v-2c-4.47 0-8.2 3.41-8.2 7.75zm7.2-6.75v1c3.49 0 6.2 2.63 6.2 5.75h2c0-4.34-3.73-7.75-8.2-7.75zm7.2 20.25h-1c0 3.12-2.72 5.75-6.2 5.75v2c4.47 0 8.2-3.41 8.2-7.75zm-7.2 6.75v-1c-3.49 0-6.2-2.63-6.2-5.75h-2c0 4.34 3.73 7.75 8.2 7.75zm-7.2-6.75h1c0-3.12 2.71-5.75 6.2-5.75v-2c-4.47 0-8.2 3.41-8.2 7.75zm7.2-6.75v1c3.49 0 6.2 2.63 6.2 5.75h2c0-4.34-3.73-7.75-8.2-7.75zm7.2 20.25h-1c0 3.12-2.72 5.75-6.2 5.75v2c4.47 0 8.2-3.41 8.2-7.75zm-7.2 6.75v-1c-3.49 0-6.2-2.63-6.2-5.75h-2c0 4.34 3.73 7.75 8.2 7.75zm-7.2-6.75h1c0-3.12 2.71-5.75 6.2-5.75v-2c-4.47 0-8.2 3.41-8.2 7.75zm7.2-6.75v1c3.49 0 6.2 2.63 6.2 5.75h2c0-4.34-3.73-7.75-8.2-7.75zm7.2 20.25h-1c0 3.12-2.72 5.75-6.2 5.75v2c4.47 0 8.2-3.41 8.2-7.75zm-7.2 6.75v-1c-3.49 0-6.2-2.63-6.2-5.75h-2c0 4.34 3.73 7.75 8.2 7.75zm-7.2-6.75h1c0-3.12 2.71-5.75 6.2-5.75v-2c-4.47 0-8.2 3.41-8.2 7.75zm7.2-6.75v1c3.49 0 6.2 2.63 6.2 5.75h2c0-4.34-3.73-7.75-8.2-7.75zm7.2 20.25h-1c0 3.12-2.72 5.75-6.2 5.75v2c4.47 0 8.2-3.41 8.2-7.75zm-7.2 6.75v-1c-3.49 0-6.2-2.63-6.2-5.75h-2c0 4.34 3.73 7.75 8.2 7.75zm-7.2-6.75h1c0-3.12 2.71-5.75 6.2-5.75v-2c-4.47 0-8.2 3.41-8.2 7.75zm7.2-6.75v1c3.49 0 6.2 2.63 6.2 5.75h2c0-4.34-3.73-7.75-8.2-7.75zm7.2 20.25h-1c0 3.12-2.72 5.75-6.2 5.75v2c4.47 0 8.2-3.41 8.2-7.75zm-7.2 6.75v-1c-3.49 0-6.2-2.63-6.2-5.75h-2c0 4.34 3.73 7.75 8.2 7.75zm-7.2-6.75h1c0-3.12 2.71-5.75 6.2-5.75v-2c-4.47 0-8.2 3.41-8.2 7.75zm7.2-6.75v1c3.49 0 6.2 2.63 6.2 5.75h2c0-4.34-3.73-7.75-8.2-7.75zm36.9-247.95h-1c0 3.12-2.71 5.75-6.2 5.75v2c4.47 0 8.2-3.41 8.2-7.75zm-7.2 6.75v-1c-3.49 0-6.2-2.63-6.2-5.75h-2c0 4.34 3.73 7.75 8.2 7.75zm-7.2-6.75h1c0-3.12 2.71-5.75 6.2-5.75v-2c-4.47 0-8.2 3.41-8.2 7.75zm7.2-6.75v1c3.49 0 6.2 2.63 6.2 5.75h2c0-4.34-3.73-7.75-8.2-7.75zm7.2 20.25h-1c0 3.12-2.71 5.75-6.2 5.75v2c4.47 0 8.2-3.41 8.2-7.75zm-7.2 6.75v-1c-3.49 0-6.2-2.63-6.2-5.75h-2c0 4.34 3.73 7.75 8.2 7.75zm-7.2-6.75h1c0-3.12 2.71-5.75 6.2-5.75v-2c-4.47 0-8.2 3.41-8.2 7.75zm7.2-6.75v1c3.49 0 6.2 2.63 6.2 5.75h2c0-4.34-3.73-7.75-8.2-7.75zm7.2 20.25h-1c0 3.12-2.71 5.75-6.2 5.75v2c4.47 0 8.2-3.41 8.2-7.75zm-7.2 6.75v-1c-3.49 0-6.2-2.63-6.2-5.75h-2c0 4.34 3.73 7.75 8.2 7.75zm-7.2-6.75h1c0-3.12 2.71-5.75 6.2-5.75v-2c-4.47 0-8.2 3.41-8.2 7.75zm7.2-6.75v1c3.49 0 6.2 2.63 6.2 5.75h2c0-4.34-3.73-7.75-8.2-7.75zm7.2 20.25h-1c0 3.12-2.71 5.75-6.2 5.75v2c4.47 0 8.2-3.41 8.2-7.75zm-7.2 6.75v-1c-3.49 0-6.2-2.63-6.2-5.75h-2c0 4.34 3.73 7.75 8.2 7.75zm-7.2-6.75h1c0-3.12 2.71-5.75 6.2-5.75v-2c-4.47 0-8.2 3.41-8.2 7.75zm7.2-6.75v1c3.49 0 6.2 2.63 6.2 5.75h2c0-4.34-3.73-7.75-8.2-7.75zm37.8-59.85h-1c0 3.12-2.71 5.75-6.2 5.75v2c4.47 0 8.2-3.41 8.2-7.75zM485.2 69v-1c-3.49 0-6.2-2.63-6.2-5.75h-2c0 4.34 3.73 7.75 8.2 7.75zm-7.2-6.75h1c0-3.12 2.71-5.75 6.2-5.75v-2c-4.47 0-8.2 3.41-8.2 7.75zm7.2-6.75v1c3.49 0 6.2 2.63 6.2 5.75h2c0-4.34-3.73-7.75-8.2-7.75zm7.2 20.25h-1c0 3.12-2.71 5.75-6.2 5.75v2c4.47 0 8.2-3.41 8.2-7.75zm-7.2 6.75v-1c-3.49 0-6.2-2.63-6.2-5.75h-2c0 4.34 3.73 7.75 8.2 7.75zm-7.2-6.75h1c0-3.12 2.71-5.75 6.2-5.75v-2c-4.47 0-8.2 3.41-8.2 7.75zm7.2-6.75v1c3.49 0 6.2 2.63 6.2 5.75h2c0-4.34-3.73-7.75-8.2-7.75zm7.2 20.25h-1c0 3.12-2.71 5.75-6.2 5.75v2c4.47 0 8.2-3.41 8.2-7.75zM485.2 96v-1c-3.49 0-6.2-2.63-6.2-5.75h-2c0 4.34 3.73 7.75 8.2 7.75zm-7.2-6.75h1c0-3.12 2.71-5.75 6.2-5.75v-2c-4.47 0-8.2 3.41-8.2 7.75zm7.2-6.75v1c3.49 0 6.2 2.63 6.2 5.75h2c0-4.34-3.73-7.75-8.2-7.75zm7.2 20.25h-1c0 3.12-2.71 5.75-6.2 5.75v2c4.47 0 8.2-3.41 8.2-7.75zm-7.2 6.75v-1c-3.49 0-6.2-2.63-6.2-5.75h-2c0 4.34 3.73 7.75 8.2 7.75zm-7.2-6.75h1c0-3.12 2.71-5.75 6.2-5.75v-2c-4.47 0-8.2 3.41-8.2 7.75zm7.2-6.75v1c3.49 0 6.2 2.63 6.2 5.75h2c0-4.34-3.73-7.75-8.2-7.75zm7.2 20.25h-1c0 3.12-2.71 5.75-6.2 5.75v2c4.47 0 8.2-3.41 8.2-7.75zm-7.2 6.75v-1c-3.49 0-6.2-2.63-6.2-5.75h-2c0 4.34 3.73 7.75 8.2 7.75zm-7.2-6.75h1c0-3.12 2.71-5.75 6.2-5.75v-2c-4.47 0-8.2 3.41-8.2 7.75zm7.2-6.75v1c3.49 0 6.2 2.63 6.2 5.75h2c0-4.34-3.73-7.75-8.2-7.75zm7.2 20.25h-1c0 3.12-2.71 5.75-6.2 5.75v2c4.47 0 8.2-3.41 8.2-7.75zm-7.2 6.75v-1c-3.49 0-6.2-2.63-6.2-5.75h-2c0 4.34 3.73 7.75 8.2 7.75zm-7.2-6.75h1c0-3.12 2.71-5.75 6.2-5.75v-2c-4.47 0-8.2 3.41-8.2 7.75zm7.2-6.75v1c3.49 0 6.2 2.63 6.2 5.75h2c0-4.34-3.73-7.75-8.2-7.75zm7.2 20.25h-1c0 3.12-2.71 5.75-6.2 5.75v2c4.47 0 8.2-3.41 8.2-7.75zm-7.2 6.75v-1c-3.49 0-6.2-2.63-6.2-5.75h-2c0 4.34 3.73 7.75 8.2 7.75zm-7.2-6.75h1c0-3.12 2.71-5.75 6.2-5.75v-2c-4.47 0-8.2 3.41-8.2 7.75zm7.2-6.75v1c3.49 0 6.2 2.63 6.2 5.75h2c0-4.34-3.73-7.75-8.2-7.75zm7.2 20.25h-1c0 3.12-2.71 5.75-6.2 5.75v2c4.47 0 8.2-3.41 8.2-7.75zm-7.2 6.75v-1c-3.49 0-6.2-2.63-6.2-5.75h-2c0 4.34 3.73 7.75 8.2 7.75zm-7.2-6.75h1c0-3.12 2.71-5.75 6.2-5.75v-2c-4.47 0-8.2 3.41-8.2 7.75zm7.2-6.75v1c3.49 0 6.2 2.63 6.2 5.75h2c0-4.34-3.73-7.75-8.2-7.75zm7.2 20.25h-1c0 3.12-2.71 5.75-6.2 5.75v2c4.47 0 8.2-3.41 8.2-7.75zm-7.2 6.75v-1c-3.49 0-6.2-2.63-6.2-5.75h-2c0 4.34 3.73 7.75 8.2 7.75zm-7.2-6.75h1c0-3.12 2.71-5.75 6.2-5.75v-2c-4.47 0-8.2 3.41-8.2 7.75zm7.2-6.75v1c3.49 0 6.2 2.63 6.2 5.75h2c0-4.34-3.73-7.75-8.2-7.75zm37.8-48.15h-1c0 3.12-2.71 5.75-6.2 5.75v2c4.47 0 8.2-3.41 8.2-7.75zm-7.2 6.75v-1c-3.49 0-6.2-2.63-6.2-5.75h-2c0 4.34 3.73 7.75 8.2 7.75zm-7.2-6.75h1c0-3.12 2.71-5.75 6.2-5.75v-2c-4.47 0-8.2 3.41-8.2 7.75zm7.2-6.75v1c3.49 0 6.2 2.63 6.2 5.75h2c0-4.34-3.73-7.75-8.2-7.75zm7.2 20.25h-1c0 3.12-2.71 5.75-6.2 5.75v2c4.47 0 8.2-3.41 8.2-7.75zm-7.2 6.75v-1c-3.49 0-6.2-2.63-6.2-5.75h-2c0 4.34 3.73 7.75 8.2 7.75zm-7.2-6.75h1c0-3.12 2.71-5.75 6.2-5.75v-2c-4.47 0-8.2 3.41-8.2 7.75zm7.2-6.75v1c3.49 0 6.2 2.63 6.2 5.75h2c0-4.34-3.73-7.75-8.2-7.75zm7.2 20.25h-1c0 3.12-2.71 5.75-6.2 5.75v2c4.47 0 8.2-3.41 8.2-7.75zm-7.2 6.75v-1c-3.49 0-6.2-2.63-6.2-5.75h-2c0 4.34 3.73 7.75 8.2 7.75zm-7.2-6.75h1c0-3.12 2.71-5.75 6.2-5.75v-2c-4.47 0-8.2 3.41-8.2 7.75zm7.2-6.75v1c3.49 0 6.2 2.63 6.2 5.75h2c0-4.34-3.73-7.75-8.2-7.75zm7.2 20.25h-1c0 3.12-2.71 5.75-6.2 5.75v2c4.47 0 8.2-3.41 8.2-7.75zm-7.2 6.75v-1c-3.49 0-6.2-2.63-6.2-5.75h-2c0 4.34 3.73 7.75 8.2 7.75zm-7.2-6.75h1c0-3.12 2.71-5.75 6.2-5.75v-2c-4.47 0-8.2 3.41-8.2 7.75zm7.2-6.75v1c3.49 0 6.2 2.63 6.2 5.75h2c0-4.34-3.73-7.75-8.2-7.75zm7.2 20.25h-1c0 3.12-2.71 5.75-6.2 5.75v2c4.47 0 8.2-3.41 8.2-7.75zm-7.2 6.75v-1c-3.49 0-6.2-2.63-6.2-5.75h-2c0 4.34 3.73 7.75 8.2 7.75zm-7.2-6.75h1c0-3.12 2.71-5.75 6.2-5.75v-2c-4.47 0-8.2 3.41-8.2 7.75zm7.2-6.75v1c3.49 0 6.2 2.63 6.2 5.75h2c0-4.34-3.73-7.75-8.2-7.75zm37.8-104.85h-1c0 3.12-2.72 5.75-6.2 5.75v2c4.47 0 8.2-3.41 8.2-7.75zm-7.2 6.75v-1c-3.49 0-6.2-2.63-6.2-5.75h-2c0 4.34 3.73 7.75 8.2 7.75zm-7.2-6.75h1c0-3.12 2.71-5.75 6.2-5.75v-2c-4.47 0-8.2 3.41-8.2 7.75zm7.2-6.75v1c3.49 0 6.2 2.63 6.2 5.75h2c0-4.34-3.73-7.75-8.2-7.75zm7.2 20.25h-1c0 3.12-2.72 5.75-6.2 5.75v2c4.47 0 8.2-3.41 8.2-7.75zM546.4 78v-1c-3.49 0-6.2-2.63-6.2-5.75h-2c0 4.34 3.73 7.75 8.2 7.75zm-7.2-6.75h1c0-3.12 2.71-5.75 6.2-5.75v-2c-4.47 0-8.2 3.41-8.2 7.75zm7.2-6.75v1c3.49 0 6.2 2.63 6.2 5.75h2c0-4.34-3.73-7.75-8.2-7.75zm7.2 20.25h-1c0 3.12-2.72 5.75-6.2 5.75v2c4.47 0 8.2-3.41 8.2-7.75zm-7.2 6.75v-1c-3.49 0-6.2-2.63-6.2-5.75h-2c0 4.34 3.73 7.75 8.2 7.75zm-7.2-6.75h1c0-3.12 2.71-5.75 6.2-5.75v-2c-4.47 0-8.2 3.41-8.2 7.75zm7.2-6.75v1c3.49 0 6.2 2.63 6.2 5.75h2c0-4.34-3.73-7.75-8.2-7.75zm7.2 20.25h-1c0 3.12-2.72 5.75-6.2 5.75v2c4.47 0 8.2-3.41 8.2-7.75zm-7.2 6.75v-1c-3.49 0-6.2-2.63-6.2-5.75h-2c0 4.34 3.73 7.75 8.2 7.75zm-7.2-6.75h1c0-3.12 2.71-5.75 6.2-5.75v-2c-4.47 0-8.2 3.41-8.2 7.75zm7.2-6.75v1c3.49 0 6.2 2.63 6.2 5.75h2c0-4.34-3.73-7.75-8.2-7.75zm7.2 20.25h-1c0 3.12-2.72 5.75-6.2 5.75v2c4.47 0 8.2-3.41 8.2-7.75zm-7.2 6.75v-1c-3.49 0-6.2-2.63-6.2-5.75h-2c0 4.34 3.73 7.75 8.2 7.75zm-7.2-6.75h1c0-3.12 2.71-5.75 6.2-5.75v-2c-4.47 0-8.2 3.41-8.2 7.75zm7.2-6.75v1c3.49 0 6.2 2.63 6.2 5.75h2c0-4.34-3.73-7.75-8.2-7.75zm-328 248.75h-1c0 3.12-2.71 5.75-6.2 5.75v2c4.47 0 8.2-3.41 8.2-7.75zm-7.2 6.75v-1c-3.49 0-6.2-2.63-6.2-5.75h-2c0 4.34 3.73 7.75 8.2 7.75zm-7.2-6.75h1c0-3.12 2.71-5.75 6.2-5.75v-2c-4.47 0-8.2 3.41-8.2 7.75zm7.2-6.75v1c3.49 0 6.2 2.63 6.2 5.75h2c0-4.34-3.73-7.75-8.2-7.75zm7.2 33.75h-1c0 3.12-2.71 5.75-6.2 5.75v2c4.47 0 8.2-3.41 8.2-7.75zm-7.2 6.75v-1c-3.49 0-6.2-2.63-6.2-5.75h-2c0 4.34 3.73 7.75 8.2 7.75zm-7.2-6.75h1c0-3.12 2.71-5.75 6.2-5.75v-2c-4.47 0-8.2 3.41-8.2 7.75zm7.2-6.75v1c3.49 0 6.2 2.63 6.2 5.75h2c0-4.34-3.73-7.75-8.2-7.75zm7.2 20.25h-1c0 3.12-2.71 5.75-6.2 5.75v2c4.47 0 8.2-3.41 8.2-7.75zm-7.2 6.75v-1c-3.49 0-6.2-2.63-6.2-5.75h-2c0 4.34 3.73 7.75 8.2 7.75zm-7.2-6.75h1c0-3.12 2.71-5.75 6.2-5.75v-2c-4.47 0-8.2 3.41-8.2 7.75zm7.2-6.75v1c3.49 0 6.2 2.63 6.2 5.75h2c0-4.34-3.73-7.75-8.2-7.75zm7.2-20.25h-1c0 3.12-2.71 5.75-6.2 5.75v2c4.47 0 8.2-3.41 8.2-7.75zm-7.2 6.75v-1c-3.49 0-6.2-2.63-6.2-5.75h-2c0 4.34 3.73 7.75 8.2 7.75zm-7.2-6.75h1c0-3.12 2.71-5.75 6.2-5.75v-2c-4.47 0-8.2 3.41-8.2 7.75zm7.2-6.75v1c3.49 0 6.2 2.63 6.2 5.75h2c0-4.34-3.73-7.75-8.2-7.75z" mask="url(#crt2dzs5h)"/></g><g filter="url(#drt2dzs5h)"><mask id="ert2dzs5h" fill="#fff"><path d="M97.4 353.75c0 3.73-3.22 6.75-7.2 6.75s-7.2-3.02-7.2-6.75 3.22-6.75 7.2-6.75 7.2 3.02 7.2 6.75M97.4 326.75c0 3.73-3.22 6.75-7.2 6.75s-7.2-3.02-7.2-6.75 3.22-6.75 7.2-6.75 7.2 3.02 7.2 6.75M97.4 340.25c0 3.73-3.22 6.75-7.2 6.75s-7.2-3.02-7.2-6.75 3.22-6.75 7.2-6.75 7.2 3.02 7.2 6.75M157.4 434.75c0 3.73-3.22 6.75-7.2 6.75s-7.2-3.02-7.2-6.75 3.22-6.75 7.2-6.75 7.2 3.02 7.2 6.75M157.4 421.25c0 3.73-3.22 6.75-7.2 6.75s-7.2-3.02-7.2-6.75 3.22-6.75 7.2-6.75 7.2 3.02 7.2 6.75M157.4 407.75c0 3.73-3.22 6.75-7.2 6.75s-7.2-3.02-7.2-6.75 3.22-6.75 7.2-6.75 7.2 3.02 7.2 6.75M157.4 394.25c0 3.73-3.22 6.75-7.2 6.75s-7.2-3.02-7.2-6.75 3.22-6.75 7.2-6.75 7.2 3.02 7.2 6.75M157.4 380.75c0 3.73-3.22 6.75-7.2 6.75s-7.2-3.02-7.2-6.75 3.22-6.75 7.2-6.75 7.2 3.02 7.2 6.75M157.4 448.25c0 3.73-3.22 6.75-7.2 6.75s-7.2-3.02-7.2-6.75 3.22-6.75 7.2-6.75 7.2 3.02 7.2 6.75M188.4 327.65c0 3.73-3.22 6.75-7.2 6.75s-7.2-3.02-7.2-6.75 3.22-6.75 7.2-6.75 7.2 3.02 7.2 6.75M188.4 354.65c0 3.73-3.22 6.75-7.2 6.75s-7.2-3.02-7.2-6.75 3.22-6.75 7.2-6.75 7.2 3.02 7.2 6.75M188.4 368.15c0 3.73-3.22 6.75-7.2 6.75s-7.2-3.02-7.2-6.75 3.22-6.75 7.2-6.75 7.2 3.02 7.2 6.75M188.4 381.65c0 3.73-3.22 6.75-7.2 6.75s-7.2-3.02-7.2-6.75 3.22-6.75 7.2-6.75 7.2 3.02 7.2 6.75M188.4 395.15c0 3.73-3.22 6.75-7.2 6.75s-7.2-3.02-7.2-6.75 3.22-6.75 7.2-6.75 7.2 3.02 7.2 6.75M188.4 408.65c0 3.73-3.22 6.75-7.2 6.75s-7.2-3.02-7.2-6.75 3.22-6.75 7.2-6.75 7.2 3.02 7.2 6.75M188.4 422.15c0 3.73-3.22 6.75-7.2 6.75s-7.2-3.02-7.2-6.75 3.22-6.75 7.2-6.75 7.2 3.02 7.2 6.75M188.4 435.65c0 3.73-3.22 6.75-7.2 6.75s-7.2-3.02-7.2-6.75 3.22-6.75 7.2-6.75 7.2 3.02 7.2 6.75M188.4 341.15c0 3.73-3.22 6.75-7.2 6.75s-7.2-3.02-7.2-6.75 3.22-6.75 7.2-6.75 7.2 3.02 7.2 6.75M127.4 232.25c0 3.73-3.22 6.75-7.2 6.75s-7.2-3.02-7.2-6.75 3.22-6.75 7.2-6.75 7.2 3.02 7.2 6.75M127.4 245.75c0 3.73-3.22 6.75-7.2 6.75s-7.2-3.02-7.2-6.75 3.22-6.75 7.2-6.75 7.2 3.02 7.2 6.75M127.4 272.75c0 3.73-3.22 6.75-7.2 6.75s-7.2-3.02-7.2-6.75 3.22-6.75 7.2-6.75 7.2 3.02 7.2 6.75M127.4 286.25c0 3.73-3.22 6.75-7.2 6.75s-7.2-3.02-7.2-6.75 3.22-6.75 7.2-6.75 7.2 3.02 7.2 6.75M127.4 299.75c0 3.73-3.22 6.75-7.2 6.75s-7.2-3.02-7.2-6.75 3.22-6.75 7.2-6.75 7.2 3.02 7.2 6.75M127.4 313.25c0 3.73-3.22 6.75-7.2 6.75s-7.2-3.02-7.2-6.75 3.22-6.75 7.2-6.75 7.2 3.02 7.2 6.75M127.4 326.75c0 3.73-3.22 6.75-7.2 6.75s-7.2-3.02-7.2-6.75 3.22-6.75 7.2-6.75 7.2 3.02 7.2 6.75M127.4 340.25c0 3.73-3.22 6.75-7.2 6.75s-7.2-3.02-7.2-6.75 3.22-6.75 7.2-6.75 7.2 3.02 7.2 6.75M127.4 353.75c0 3.73-3.22 6.75-7.2 6.75s-7.2-3.02-7.2-6.75 3.22-6.75 7.2-6.75 7.2 3.02 7.2 6.75M127.4 367.25c0 3.73-3.22 6.75-7.2 6.75s-7.2-3.02-7.2-6.75 3.22-6.75 7.2-6.75 7.2 3.02 7.2 6.75M127.4 380.75c0 3.73-3.22 6.75-7.2 6.75s-7.2-3.02-7.2-6.75 3.22-6.75 7.2-6.75 7.2 3.02 7.2 6.75M127.4 394.25c0 3.73-3.22 6.75-7.2 6.75s-7.2-3.02-7.2-6.75 3.22-6.75 7.2-6.75 7.2 3.02 7.2 6.75M127.4 407.75c0 3.73-3.22 6.75-7.2 6.75s-7.2-3.02-7.2-6.75 3.22-6.75 7.2-6.75 7.2 3.02 7.2 6.75M127.4 259.25c0 3.73-3.22 6.75-7.2 6.75s-7.2-3.02-7.2-6.75 3.22-6.75 7.2-6.75 7.2 3.02 7.2 6.75M249.4 221.55c0 3.73-3.22 6.75-7.2 6.75s-7.2-3.02-7.2-6.75 3.22-6.75 7.2-6.75 7.2 3.02 7.2 6.75M249.4 235.05c0 3.73-3.22 6.75-7.2 6.75s-7.2-3.02-7.2-6.75 3.22-6.75 7.2-6.75 7.2 3.02 7.2 6.75M249.4 248.55c0 3.73-3.22 6.75-7.2 6.75s-7.2-3.02-7.2-6.75 3.22-6.75 7.2-6.75 7.2 3.02 7.2 6.75M249.4 262.05c0 3.73-3.22 6.75-7.2 6.75s-7.2-3.02-7.2-6.75 3.22-6.75 7.2-6.75 7.2 3.02 7.2 6.75M249.4 275.55c0 3.73-3.22 6.75-7.2 6.75s-7.2-3.02-7.2-6.75 3.22-6.75 7.2-6.75 7.2 3.02 7.2 6.75M249.4 289.05c0 3.73-3.22 6.75-7.2 6.75s-7.2-3.02-7.2-6.75 3.22-6.75 7.2-6.75 7.2 3.02 7.2 6.75M280 221.55c0 3.73-3.22 6.75-7.2 6.75s-7.2-3.02-7.2-6.75 3.22-6.75 7.2-6.75 7.2 3.02 7.2 6.75M280 235.05c0 3.73-3.22 6.75-7.2 6.75s-7.2-3.02-7.2-6.75 3.22-6.75 7.2-6.75 7.2 3.02 7.2 6.75M280 248.55c0 3.73-3.22 6.75-7.2 6.75s-7.2-3.02-7.2-6.75 3.22-6.75 7.2-6.75 7.2 3.02 7.2 6.75M309.7 181.05c0 3.73-3.22 6.75-7.2 6.75s-7.2-3.02-7.2-6.75 3.22-6.75 7.2-6.75 7.2 3.02 7.2 6.75M309.7 194.55c0 3.73-3.22 6.75-7.2 6.75s-7.2-3.02-7.2-6.75 3.22-6.75 7.2-6.75 7.2 3.02 7.2 6.75M309.7 208.05c0 3.73-3.22 6.75-7.2 6.75s-7.2-3.02-7.2-6.75 3.22-6.75 7.2-6.75 7.2 3.02 7.2 6.75M309.7 221.55c0 3.73-3.22 6.75-7.2 6.75s-7.2-3.02-7.2-6.75 3.22-6.75 7.2-6.75 7.2 3.02 7.2 6.75M309.7 235.05c0 3.73-3.22 6.75-7.2 6.75s-7.2-3.02-7.2-6.75 3.22-6.75 7.2-6.75 7.2 3.02 7.2 6.75M309.7 248.55c0 3.73-3.22 6.75-7.2 6.75s-7.2-3.02-7.2-6.75 3.22-6.75 7.2-6.75 7.2 3.02 7.2 6.75M309.7 262.05c0 3.73-3.22 6.75-7.2 6.75s-7.2-3.02-7.2-6.75 3.22-6.75 7.2-6.75 7.2 3.02 7.2 6.75M340.3 235.05c0 3.73-3.22 6.75-7.2 6.75s-7.2-3.02-7.2-6.75 3.22-6.75 7.2-6.75 7.2 3.02 7.2 6.75M340.3 248.55c0 3.73-3.22 6.75-7.2 6.75s-7.2-3.02-7.2-6.75 3.22-6.75 7.2-6.75 7.2 3.02 7.2 6.75M340.3 262.05c0 3.73-3.22 6.75-7.2 6.75s-7.2-3.02-7.2-6.75 3.22-6.75 7.2-6.75 7.2 3.02 7.2 6.75M340.3 275.55c0 3.73-3.22 6.75-7.2 6.75s-7.2-3.02-7.2-6.75 3.22-6.75 7.2-6.75 7.2 3.02 7.2 6.75M340.3 289.05c0 3.73-3.22 6.75-7.2 6.75s-7.2-3.02-7.2-6.75 3.22-6.75 7.2-6.75 7.2 3.02 7.2 6.75M340.3 302.55c0 3.73-3.22 6.75-7.2 6.75s-7.2-3.02-7.2-6.75 3.22-6.75 7.2-6.75 7.2 3.02 7.2 6.75M340.3 316.05c0 3.73-3.22 6.75-7.2 6.75s-7.2-3.02-7.2-6.75 3.22-6.75 7.2-6.75 7.2 3.02 7.2 6.75M340.3 329.55c0 3.73-3.22 6.75-7.2 6.75s-7.2-3.02-7.2-6.75 3.22-6.75 7.2-6.75 7.2 3.02 7.2 6.75M340.3 343.05c0 3.73-3.22 6.75-7.2 6.75s-7.2-3.02-7.2-6.75 3.22-6.75 7.2-6.75 7.2 3.02 7.2 6.75M340.3 356.55c0 3.73-3.22 6.75-7.2 6.75s-7.2-3.02-7.2-6.75 3.22-6.75 7.2-6.75 7.2 3.02 7.2 6.75M370.9 315.15c0 3.73-3.22 6.75-7.2 6.75s-7.2-3.02-7.2-6.75 3.22-6.75 7.2-6.75 7.2 3.02 7.2 6.75M370.9 328.65c0 3.73-3.22 6.75-7.2 6.75s-7.2-3.02-7.2-6.75 3.22-6.75 7.2-6.75 7.2 3.02 7.2 6.75M370.9 342.15c0 3.73-3.22 6.75-7.2 6.75s-7.2-3.02-7.2-6.75 3.22-6.75 7.2-6.75 7.2 3.02 7.2 6.75M370.9 355.65c0 3.73-3.22 6.75-7.2 6.75s-7.2-3.02-7.2-6.75 3.22-6.75 7.2-6.75 7.2 3.02 7.2 6.75M370.9 369.15c0 3.73-3.22 6.75-7.2 6.75s-7.2-3.02-7.2-6.75 3.22-6.75 7.2-6.75 7.2 3.02 7.2 6.75M370.9 382.65c0 3.73-3.22 6.75-7.2 6.75s-7.2-3.02-7.2-6.75 3.22-6.75 7.2-6.75 7.2 3.02 7.2 6.75M370.9 396.15c0 3.73-3.22 6.75-7.2 6.75s-7.2-3.02-7.2-6.75 3.22-6.75 7.2-6.75 7.2 3.02 7.2 6.75M401.5 288.15c0 3.73-3.22 6.75-7.2 6.75s-7.2-3.02-7.2-6.75 3.22-6.75 7.2-6.75 7.2 3.02 7.2 6.75M401.5 301.65c0 3.73-3.22 6.75-7.2 6.75s-7.2-3.02-7.2-6.75 3.22-6.75 7.2-6.75 7.2 3.02 7.2 6.75M401.5 315.15c0 3.73-3.22 6.75-7.2 6.75s-7.2-3.02-7.2-6.75 3.22-6.75 7.2-6.75 7.2 3.02 7.2 6.75M432.1 262.05c0 3.73-3.22 6.75-7.2 6.75s-7.2-3.02-7.2-6.75 3.22-6.75 7.2-6.75 7.2 3.02 7.2 6.75M432.1 275.55c0 3.73-3.22 6.75-7.2 6.75s-7.2-3.02-7.2-6.75 3.22-6.75 7.2-6.75 7.2 3.02 7.2 6.75M432.1 289.05c0 3.73-3.22 6.75-7.2 6.75s-7.2-3.02-7.2-6.75 3.22-6.75 7.2-6.75 7.2 3.02 7.2 6.75M432.1 302.55c0 3.73-3.22 6.75-7.2 6.75s-7.2-3.02-7.2-6.75 3.22-6.75 7.2-6.75 7.2 3.02 7.2 6.75M432.1 316.05c0 3.73-3.22 6.75-7.2 6.75s-7.2-3.02-7.2-6.75 3.22-6.75 7.2-6.75 7.2 3.02 7.2 6.75M432.1 329.55c0 3.73-3.22 6.75-7.2 6.75s-7.2-3.02-7.2-6.75 3.22-6.75 7.2-6.75 7.2 3.02 7.2 6.75M432.1 343.05c0 3.73-3.22 6.75-7.2 6.75s-7.2-3.02-7.2-6.75 3.22-6.75 7.2-6.75 7.2 3.02 7.2 6.75M461.8 88.35c0 3.73-3.22 6.75-7.2 6.75s-7.2-3.02-7.2-6.75 3.22-6.75 7.2-6.75 7.2 3.02 7.2 6.75M461.8 101.85c0 3.73-3.22 6.75-7.2 6.75s-7.2-3.02-7.2-6.75 3.22-6.75 7.2-6.75 7.2 3.02 7.2 6.75M461.8 115.35c0 3.73-3.22 6.75-7.2 6.75s-7.2-3.02-7.2-6.75 3.22-6.75 7.2-6.75 7.2 3.02 7.2 6.75M461.8 128.85c0 3.73-3.22 6.75-7.2 6.75s-7.2-3.02-7.2-6.75 3.22-6.75 7.2-6.75 7.2 3.02 7.2 6.75M492.4 62.25c0 3.73-3.22 6.75-7.2 6.75s-7.2-3.02-7.2-6.75 3.22-6.75 7.2-6.75 7.2 3.02 7.2 6.75M492.4 75.75c0 3.73-3.22 6.75-7.2 6.75s-7.2-3.02-7.2-6.75 3.22-6.75 7.2-6.75 7.2 3.02 7.2 6.75M492.4 89.25c0 3.73-3.22 6.75-7.2 6.75s-7.2-3.02-7.2-6.75 3.22-6.75 7.2-6.75 7.2 3.02 7.2 6.75M492.4 102.75c0 3.73-3.22 6.75-7.2 6.75s-7.2-3.02-7.2-6.75 3.22-6.75 7.2-6.75 7.2 3.02 7.2 6.75M492.4 116.25c0 3.73-3.22 6.75-7.2 6.75s-7.2-3.02-7.2-6.75 3.22-6.75 7.2-6.75 7.2 3.02 7.2 6.75M492.4 129.75c0 3.73-3.22 6.75-7.2 6.75s-7.2-3.02-7.2-6.75 3.22-6.75 7.2-6.75 7.2 3.02 7.2 6.75M492.4 143.25c0 3.73-3.22 6.75-7.2 6.75s-7.2-3.02-7.2-6.75 3.22-6.75 7.2-6.75 7.2 3.02 7.2 6.75M492.4 156.75c0 3.73-3.22 6.75-7.2 6.75s-7.2-3.02-7.2-6.75 3.22-6.75 7.2-6.75 7.2 3.02 7.2 6.75M492.4 170.25c0 3.73-3.22 6.75-7.2 6.75s-7.2-3.02-7.2-6.75 3.22-6.75 7.2-6.75 7.2 3.02 7.2 6.75M523 115.35c0 3.73-3.22 6.75-7.2 6.75s-7.2-3.02-7.2-6.75 3.22-6.75 7.2-6.75 7.2 3.02 7.2 6.75M523 128.85c0 3.73-3.22 6.75-7.2 6.75s-7.2-3.02-7.2-6.75 3.22-6.75 7.2-6.75 7.2 3.02 7.2 6.75M523 142.35c0 3.73-3.22 6.75-7.2 6.75s-7.2-3.02-7.2-6.75 3.22-6.75 7.2-6.75 7.2 3.02 7.2 6.75M523 155.85c0 3.73-3.22 6.75-7.2 6.75s-7.2-3.02-7.2-6.75 3.22-6.75 7.2-6.75 7.2 3.02 7.2 6.75M523 169.35c0 3.73-3.22 6.75-7.2 6.75s-7.2-3.02-7.2-6.75 3.22-6.75 7.2-6.75 7.2 3.02 7.2 6.75M553.6 57.75c0 3.73-3.22 6.75-7.2 6.75s-7.2-3.02-7.2-6.75 3.22-6.75 7.2-6.75 7.2 3.02 7.2 6.75M553.6 71.25c0 3.73-3.22 6.75-7.2 6.75s-7.2-3.02-7.2-6.75 3.22-6.75 7.2-6.75 7.2 3.02 7.2 6.75M553.6 84.75c0 3.73-3.22 6.75-7.2 6.75s-7.2-3.02-7.2-6.75 3.22-6.75 7.2-6.75 7.2 3.02 7.2 6.75M553.6 98.25c0 3.73-3.22 6.75-7.2 6.75s-7.2-3.02-7.2-6.75 3.22-6.75 7.2-6.75 7.2 3.02 7.2 6.75M553.6 111.75c0 3.73-3.22 6.75-7.2 6.75s-7.2-3.02-7.2-6.75 3.22-6.75 7.2-6.75 7.2 3.02 7.2 6.75M218.4 353.75c0 3.73-3.22 6.75-7.2 6.75s-7.2-3.02-7.2-6.75 3.22-6.75 7.2-6.75 7.2 3.02 7.2 6.75M218.4 380.75c0 3.73-3.22 6.75-7.2 6.75s-7.2-3.02-7.2-6.75 3.22-6.75 7.2-6.75 7.2 3.02 7.2 6.75M218.4 394.25c0 3.73-3.22 6.75-7.2 6.75s-7.2-3.02-7.2-6.75 3.22-6.75 7.2-6.75 7.2 3.02 7.2 6.75M218.4 367.25c0 3.73-3.22 6.75-7.2 6.75s-7.2-3.02-7.2-6.75 3.22-6.75 7.2-6.75 7.2 3.02 7.2 6.75"/></mask><path fill="#F23645" d="M97.4 353.75h-1c0 3.12-2.71 5.75-6.2 5.75v2c4.47 0 8.2-3.41 8.2-7.75zm-7.2 6.75v-1c-3.49 0-6.2-2.63-6.2-5.75h-2c0 4.34 3.73 7.75 8.2 7.75zm-7.2-6.75h1c0-3.12 2.71-5.75 6.2-5.75v-2c-4.47 0-8.2 3.41-8.2 7.75zm7.2-6.75v1c3.49 0 6.2 2.63 6.2 5.75h2c0-4.34-3.73-7.75-8.2-7.75zm7.2-20.25h-1c0 3.12-2.71 5.75-6.2 5.75v2c4.47 0 8.2-3.41 8.2-7.75zm-7.2 6.75v-1c-3.49 0-6.2-2.63-6.2-5.75h-2c0 4.34 3.73 7.75 8.2 7.75zm-7.2-6.75h1c0-3.12 2.71-5.75 6.2-5.75v-2c-4.47 0-8.2 3.41-8.2 7.75zm7.2-6.75v1c3.49 0 6.2 2.63 6.2 5.75h2c0-4.34-3.73-7.75-8.2-7.75zm7.2 20.25h-1c0 3.12-2.71 5.75-6.2 5.75v2c4.47 0 8.2-3.41 8.2-7.75zM90.2 347v-1c-3.49 0-6.2-2.63-6.2-5.75h-2c0 4.34 3.73 7.75 8.2 7.75zm-7.2-6.75h1c0-3.12 2.71-5.75 6.2-5.75v-2c-4.47 0-8.2 3.41-8.2 7.75zm7.2-6.75v1c3.49 0 6.2 2.63 6.2 5.75h2c0-4.34-3.73-7.75-8.2-7.75zm67.2 101.25h-1c0 3.12-2.71 5.75-6.2 5.75v2c4.47 0 8.2-3.41 8.2-7.75zm-7.2 6.75v-1c-3.49 0-6.2-2.63-6.2-5.75h-2c0 4.34 3.73 7.75 8.2 7.75zm-7.2-6.75h1c0-3.12 2.71-5.75 6.2-5.75v-2c-4.47 0-8.2 3.41-8.2 7.75zm7.2-6.75v1c3.49 0 6.2 2.63 6.2 5.75h2c0-4.34-3.73-7.75-8.2-7.75zm7.2-6.75h-1c0 3.12-2.71 5.75-6.2 5.75v2c4.47 0 8.2-3.41 8.2-7.75zm-7.2 6.75v-1c-3.49 0-6.2-2.63-6.2-5.75h-2c0 4.34 3.73 7.75 8.2 7.75zm-7.2-6.75h1c0-3.12 2.71-5.75 6.2-5.75v-2c-4.47 0-8.2 3.41-8.2 7.75zm7.2-6.75v1c3.49 0 6.2 2.63 6.2 5.75h2c0-4.34-3.73-7.75-8.2-7.75zm7.2-6.75h-1c0 3.12-2.71 5.75-6.2 5.75v2c4.47 0 8.2-3.41 8.2-7.75zm-7.2 6.75v-1c-3.49 0-6.2-2.63-6.2-5.75h-2c0 4.34 3.73 7.75 8.2 7.75zm-7.2-6.75h1c0-3.12 2.71-5.75 6.2-5.75v-2c-4.47 0-8.2 3.41-8.2 7.75zm7.2-6.75v1c3.49 0 6.2 2.63 6.2 5.75h2c0-4.34-3.73-7.75-8.2-7.75zm7.2-6.75h-1c0 3.12-2.71 5.75-6.2 5.75v2c4.47 0 8.2-3.41 8.2-7.75zm-7.2 6.75v-1c-3.49 0-6.2-2.63-6.2-5.75h-2c0 4.34 3.73 7.75 8.2 7.75zm-7.2-6.75h1c0-3.12 2.71-5.75 6.2-5.75v-2c-4.47 0-8.2 3.41-8.2 7.75zm7.2-6.75v1c3.49 0 6.2 2.63 6.2 5.75h2c0-4.34-3.73-7.75-8.2-7.75zm7.2-6.75h-1c0 3.12-2.71 5.75-6.2 5.75v2c4.47 0 8.2-3.41 8.2-7.75zm-7.2 6.75v-1c-3.49 0-6.2-2.63-6.2-5.75h-2c0 4.34 3.73 7.75 8.2 7.75zm-7.2-6.75h1c0-3.12 2.71-5.75 6.2-5.75v-2c-4.47 0-8.2 3.41-8.2 7.75zm7.2-6.75v1c3.49 0 6.2 2.63 6.2 5.75h2c0-4.34-3.73-7.75-8.2-7.75zm7.2 74.25h-1c0 3.12-2.71 5.75-6.2 5.75v2c4.47 0 8.2-3.41 8.2-7.75zm-7.2 6.75v-1c-3.49 0-6.2-2.63-6.2-5.75h-2c0 4.34 3.73 7.75 8.2 7.75zm-7.2-6.75h1c0-3.12 2.71-5.75 6.2-5.75v-2c-4.47 0-8.2 3.41-8.2 7.75zm7.2-6.75v1c3.49 0 6.2 2.63 6.2 5.75h2c0-4.34-3.73-7.75-8.2-7.75zm38.2-113.85h-1c0 3.12-2.71 5.75-6.2 5.75v2c4.47 0 8.2-3.41 8.2-7.75zm-7.2 6.75v-1c-3.49 0-6.2-2.63-6.2-5.75h-2c0 4.34 3.73 7.75 8.2 7.75zm-7.2-6.75h1c0-3.12 2.71-5.75 6.2-5.75v-2c-4.47 0-8.2 3.41-8.2 7.75zm7.2-6.75v1c3.49 0 6.2 2.63 6.2 5.75h2c0-4.34-3.73-7.75-8.2-7.75zm7.2 33.75h-1c0 3.12-2.71 5.75-6.2 5.75v2c4.47 0 8.2-3.41 8.2-7.75zm-7.2 6.75v-1c-3.49 0-6.2-2.63-6.2-5.75h-2c0 4.34 3.73 7.75 8.2 7.75zm-7.2-6.75h1c0-3.12 2.71-5.75 6.2-5.75v-2c-4.47 0-8.2 3.41-8.2 7.75zm7.2-6.75v1c3.49 0 6.2 2.63 6.2 5.75h2c0-4.34-3.73-7.75-8.2-7.75zm7.2 20.25h-1c0 3.12-2.71 5.75-6.2 5.75v2c4.47 0 8.2-3.41 8.2-7.75zm-7.2 6.75v-1c-3.49 0-6.2-2.63-6.2-5.75h-2c0 4.34 3.73 7.75 8.2 7.75zm-7.2-6.75h1c0-3.12 2.71-5.75 6.2-5.75v-2c-4.47 0-8.2 3.41-8.2 7.75zm7.2-6.75v1c3.49 0 6.2 2.63 6.2 5.75h2c0-4.34-3.73-7.75-8.2-7.75zm7.2 20.25h-1c0 3.12-2.71 5.75-6.2 5.75v2c4.47 0 8.2-3.41 8.2-7.75zm-7.2 6.75v-1c-3.49 0-6.2-2.63-6.2-5.75h-2c0 4.34 3.73 7.75 8.2 7.75zm-7.2-6.75h1c0-3.12 2.71-5.75 6.2-5.75v-2c-4.47 0-8.2 3.41-8.2 7.75zm7.2-6.75v1c3.49 0 6.2 2.63 6.2 5.75h2c0-4.34-3.73-7.75-8.2-7.75zm7.2 20.25h-1c0 3.12-2.71 5.75-6.2 5.75v2c4.47 0 8.2-3.41 8.2-7.75zm-7.2 6.75v-1c-3.49 0-6.2-2.63-6.2-5.75h-2c0 4.34 3.73 7.75 8.2 7.75zm-7.2-6.75h1c0-3.12 2.71-5.75 6.2-5.75v-2c-4.47 0-8.2 3.41-8.2 7.75zm7.2-6.75v1c3.49 0 6.2 2.63 6.2 5.75h2c0-4.34-3.73-7.75-8.2-7.75zm7.2 20.25h-1c0 3.12-2.71 5.75-6.2 5.75v2c4.47 0 8.2-3.41 8.2-7.75zm-7.2 6.75v-1c-3.49 0-6.2-2.63-6.2-5.75h-2c0 4.34 3.73 7.75 8.2 7.75zm-7.2-6.75h1c0-3.12 2.71-5.75 6.2-5.75v-2c-4.47 0-8.2 3.41-8.2 7.75zm7.2-6.75v1c3.49 0 6.2 2.63 6.2 5.75h2c0-4.34-3.73-7.75-8.2-7.75zm7.2 20.25h-1c0 3.12-2.71 5.75-6.2 5.75v2c4.47 0 8.2-3.41 8.2-7.75zm-7.2 6.75v-1c-3.49 0-6.2-2.63-6.2-5.75h-2c0 4.34 3.73 7.75 8.2 7.75zm-7.2-6.75h1c0-3.12 2.71-5.75 6.2-5.75v-2c-4.47 0-8.2 3.41-8.2 7.75zm7.2-6.75v1c3.49 0 6.2 2.63 6.2 5.75h2c0-4.34-3.73-7.75-8.2-7.75zm7.2 20.25h-1c0 3.12-2.71 5.75-6.2 5.75v2c4.47 0 8.2-3.41 8.2-7.75zm-7.2 6.75v-1c-3.49 0-6.2-2.63-6.2-5.75h-2c0 4.34 3.73 7.75 8.2 7.75zm-7.2-6.75h1c0-3.12 2.71-5.75 6.2-5.75v-2c-4.47 0-8.2 3.41-8.2 7.75zm7.2-6.75v1c3.49 0 6.2 2.63 6.2 5.75h2c0-4.34-3.73-7.75-8.2-7.75zm7.2-87.75h-1c0 3.12-2.71 5.75-6.2 5.75v2c4.47 0 8.2-3.41 8.2-7.75zm-7.2 6.75v-1c-3.49 0-6.2-2.63-6.2-5.75h-2c0 4.34 3.73 7.75 8.2 7.75zm-7.2-6.75h1c0-3.12 2.71-5.75 6.2-5.75v-2c-4.47 0-8.2 3.41-8.2 7.75zm7.2-6.75v1c3.49 0 6.2 2.63 6.2 5.75h2c0-4.34-3.73-7.75-8.2-7.75zm-53.8-102.15h-1c0 3.12-2.71 5.75-6.2 5.75v2c4.47 0 8.2-3.41 8.2-7.75zm-7.2 6.75v-1c-3.49 0-6.2-2.63-6.2-5.75h-2c0 4.34 3.73 7.75 8.2 7.75zm-7.2-6.75h1c0-3.12 2.71-5.75 6.2-5.75v-2c-4.47 0-8.2 3.41-8.2 7.75zm7.2-6.75v1c3.49 0 6.2 2.63 6.2 5.75h2c0-4.34-3.73-7.75-8.2-7.75zm7.2 20.25h-1c0 3.12-2.71 5.75-6.2 5.75v2c4.47 0 8.2-3.41 8.2-7.75zm-7.2 6.75v-1c-3.49 0-6.2-2.63-6.2-5.75h-2c0 4.34 3.73 7.75 8.2 7.75zm-7.2-6.75h1c0-3.12 2.71-5.75 6.2-5.75v-2c-4.47 0-8.2 3.41-8.2 7.75zm7.2-6.75v1c3.49 0 6.2 2.63 6.2 5.75h2c0-4.34-3.73-7.75-8.2-7.75zm7.2 33.75h-1c0 3.12-2.71 5.75-6.2 5.75v2c4.47 0 8.2-3.41 8.2-7.75zm-7.2 6.75v-1c-3.49 0-6.2-2.63-6.2-5.75h-2c0 4.34 3.73 7.75 8.2 7.75zm-7.2-6.75h1c0-3.12 2.71-5.75 6.2-5.75v-2c-4.47 0-8.2 3.41-8.2 7.75zm7.2-6.75v1c3.49 0 6.2 2.63 6.2 5.75h2c0-4.34-3.73-7.75-8.2-7.75zm7.2 20.25h-1c0 3.12-2.71 5.75-6.2 5.75v2c4.47 0 8.2-3.41 8.2-7.75zm-7.2 6.75v-1c-3.49 0-6.2-2.63-6.2-5.75h-2c0 4.34 3.73 7.75 8.2 7.75zm-7.2-6.75h1c0-3.12 2.71-5.75 6.2-5.75v-2c-4.47 0-8.2 3.41-8.2 7.75zm7.2-6.75v1c3.49 0 6.2 2.63 6.2 5.75h2c0-4.34-3.73-7.75-8.2-7.75zm7.2 20.25h-1c0 3.12-2.71 5.75-6.2 5.75v2c4.47 0 8.2-3.41 8.2-7.75zm-7.2 6.75v-1c-3.49 0-6.2-2.63-6.2-5.75h-2c0 4.34 3.73 7.75 8.2 7.75zm-7.2-6.75h1c0-3.12 2.71-5.75 6.2-5.75v-2c-4.47 0-8.2 3.41-8.2 7.75zm7.2-6.75v1c3.49 0 6.2 2.63 6.2 5.75h2c0-4.34-3.73-7.75-8.2-7.75zm7.2 20.25h-1c0 3.12-2.71 5.75-6.2 5.75v2c4.47 0 8.2-3.41 8.2-7.75zm-7.2 6.75v-1c-3.49 0-6.2-2.63-6.2-5.75h-2c0 4.34 3.73 7.75 8.2 7.75zm-7.2-6.75h1c0-3.12 2.71-5.75 6.2-5.75v-2c-4.47 0-8.2 3.41-8.2 7.75zm7.2-6.75v1c3.49 0 6.2 2.63 6.2 5.75h2c0-4.34-3.73-7.75-8.2-7.75zm7.2 20.25h-1c0 3.12-2.71 5.75-6.2 5.75v2c4.47 0 8.2-3.41 8.2-7.75zm-7.2 6.75v-1c-3.49 0-6.2-2.63-6.2-5.75h-2c0 4.34 3.73 7.75 8.2 7.75zm-7.2-6.75h1c0-3.12 2.71-5.75 6.2-5.75v-2c-4.47 0-8.2 3.41-8.2 7.75zm7.2-6.75v1c3.49 0 6.2 2.63 6.2 5.75h2c0-4.34-3.73-7.75-8.2-7.75zm7.2 20.25h-1c0 3.12-2.71 5.75-6.2 5.75v2c4.47 0 8.2-3.41 8.2-7.75zm-7.2 6.75v-1c-3.49 0-6.2-2.63-6.2-5.75h-2c0 4.34 3.73 7.75 8.2 7.75zm-7.2-6.75h1c0-3.12 2.71-5.75 6.2-5.75v-2c-4.47 0-8.2 3.41-8.2 7.75zm7.2-6.75v1c3.49 0 6.2 2.63 6.2 5.75h2c0-4.34-3.73-7.75-8.2-7.75zm7.2 20.25h-1c0 3.12-2.71 5.75-6.2 5.75v2c4.47 0 8.2-3.41 8.2-7.75zm-7.2 6.75v-1c-3.49 0-6.2-2.63-6.2-5.75h-2c0 4.34 3.73 7.75 8.2 7.75zm-7.2-6.75h1c0-3.12 2.71-5.75 6.2-5.75v-2c-4.47 0-8.2 3.41-8.2 7.75zm7.2-6.75v1c3.49 0 6.2 2.63 6.2 5.75h2c0-4.34-3.73-7.75-8.2-7.75zm7.2 20.25h-1c0 3.12-2.71 5.75-6.2 5.75v2c4.47 0 8.2-3.41 8.2-7.75zm-7.2 6.75v-1c-3.49 0-6.2-2.63-6.2-5.75h-2c0 4.34 3.73 7.75 8.2 7.75zm-7.2-6.75h1c0-3.12 2.71-5.75 6.2-5.75v-2c-4.47 0-8.2 3.41-8.2 7.75zm7.2-6.75v1c3.49 0 6.2 2.63 6.2 5.75h2c0-4.34-3.73-7.75-8.2-7.75zm7.2 20.25h-1c0 3.12-2.71 5.75-6.2 5.75v2c4.47 0 8.2-3.41 8.2-7.75zm-7.2 6.75v-1c-3.49 0-6.2-2.63-6.2-5.75h-2c0 4.34 3.73 7.75 8.2 7.75zm-7.2-6.75h1c0-3.12 2.71-5.75 6.2-5.75v-2c-4.47 0-8.2 3.41-8.2 7.75zm7.2-6.75v1c3.49 0 6.2 2.63 6.2 5.75h2c0-4.34-3.73-7.75-8.2-7.75zm7.2 20.25h-1c0 3.12-2.71 5.75-6.2 5.75v2c4.47 0 8.2-3.41 8.2-7.75zm-7.2 6.75v-1c-3.49 0-6.2-2.63-6.2-5.75h-2c0 4.34 3.73 7.75 8.2 7.75zm-7.2-6.75h1c0-3.12 2.71-5.75 6.2-5.75v-2c-4.47 0-8.2 3.41-8.2 7.75zm7.2-6.75v1c3.49 0 6.2 2.63 6.2 5.75h2c0-4.34-3.73-7.75-8.2-7.75zm7.2 20.25h-1c0 3.12-2.71 5.75-6.2 5.75v2c4.47 0 8.2-3.41 8.2-7.75zm-7.2 6.75v-1c-3.49 0-6.2-2.63-6.2-5.75h-2c0 4.34 3.73 7.75 8.2 7.75zm-7.2-6.75h1c0-3.12 2.71-5.75 6.2-5.75v-2c-4.47 0-8.2 3.41-8.2 7.75zm7.2-6.75v1c3.49 0 6.2 2.63 6.2 5.75h2c0-4.34-3.73-7.75-8.2-7.75zm7.2-141.75h-1c0 3.12-2.71 5.75-6.2 5.75v2c4.47 0 8.2-3.41 8.2-7.75zm-7.2 6.75v-1c-3.49 0-6.2-2.63-6.2-5.75h-2c0 4.34 3.73 7.75 8.2 7.75zm-7.2-6.75h1c0-3.12 2.71-5.75 6.2-5.75v-2c-4.47 0-8.2 3.41-8.2 7.75zm7.2-6.75v1c3.49 0 6.2 2.63 6.2 5.75h2c0-4.34-3.73-7.75-8.2-7.75zm129.2-30.95h-1c0 3.12-2.71 5.75-6.2 5.75v2c4.47 0 8.2-3.41 8.2-7.75zm-7.2 6.75v-1c-3.49 0-6.2-2.63-6.2-5.75h-2c0 4.34 3.73 7.75 8.2 7.75zm-7.2-6.75h1c0-3.12 2.71-5.75 6.2-5.75v-2c-4.47 0-8.2 3.41-8.2 7.75zm7.2-6.75v1c3.49 0 6.2 2.63 6.2 5.75h2c0-4.34-3.73-7.75-8.2-7.75zm7.2 20.25h-1c0 3.12-2.71 5.75-6.2 5.75v2c4.47 0 8.2-3.41 8.2-7.75zm-7.2 6.75v-1c-3.49 0-6.2-2.63-6.2-5.75h-2c0 4.34 3.73 7.75 8.2 7.75zm-7.2-6.75h1c0-3.12 2.71-5.75 6.2-5.75v-2c-4.47 0-8.2 3.41-8.2 7.75zm7.2-6.75v1c3.49 0 6.2 2.63 6.2 5.75h2c0-4.34-3.73-7.75-8.2-7.75zm7.2 20.25h-1c0 3.12-2.71 5.75-6.2 5.75v2c4.47 0 8.2-3.41 8.2-7.75zm-7.2 6.75v-1c-3.49 0-6.2-2.63-6.2-5.75h-2c0 4.34 3.73 7.75 8.2 7.75zm-7.2-6.75h1c0-3.12 2.71-5.75 6.2-5.75v-2c-4.47 0-8.2 3.41-8.2 7.75zm7.2-6.75v1c3.49 0 6.2 2.63 6.2 5.75h2c0-4.34-3.73-7.75-8.2-7.75zm7.2 20.25h-1c0 3.12-2.71 5.75-6.2 5.75v2c4.47 0 8.2-3.41 8.2-7.75zm-7.2 6.75v-1c-3.49 0-6.2-2.63-6.2-5.75h-2c0 4.34 3.73 7.75 8.2 7.75zm-7.2-6.75h1c0-3.12 2.71-5.75 6.2-5.75v-2c-4.47 0-8.2 3.41-8.2 7.75zm7.2-6.75v1c3.49 0 6.2 2.63 6.2 5.75h2c0-4.34-3.73-7.75-8.2-7.75zm7.2 20.25h-1c0 3.12-2.71 5.75-6.2 5.75v2c4.47 0 8.2-3.41 8.2-7.75zm-7.2 6.75v-1c-3.49 0-6.2-2.63-6.2-5.75h-2c0 4.34 3.73 7.75 8.2 7.75zm-7.2-6.75h1c0-3.12 2.71-5.75 6.2-5.75v-2c-4.47 0-8.2 3.41-8.2 7.75zm7.2-6.75v1c3.49 0 6.2 2.63 6.2 5.75h2c0-4.34-3.73-7.75-8.2-7.75zm7.2 20.25h-1c0 3.12-2.71 5.75-6.2 5.75v2c4.47 0 8.2-3.41 8.2-7.75zm-7.2 6.75v-1c-3.49 0-6.2-2.63-6.2-5.75h-2c0 4.34 3.73 7.75 8.2 7.75zm-7.2-6.75h1c0-3.12 2.71-5.75 6.2-5.75v-2c-4.47 0-8.2 3.41-8.2 7.75zm7.2-6.75v1c3.49 0 6.2 2.63 6.2 5.75h2c0-4.34-3.73-7.75-8.2-7.75zm37.8-60.75h-1c0 3.12-2.71 5.75-6.2 5.75v2c4.47 0 8.2-3.41 8.2-7.75zm-7.2 6.75v-1c-3.49 0-6.2-2.63-6.2-5.75h-2c0 4.34 3.73 7.75 8.2 7.75zm-7.2-6.75h1c0-3.12 2.71-5.75 6.2-5.75v-2c-4.47 0-8.2 3.41-8.2 7.75zm7.2-6.75v1c3.49 0 6.2 2.63 6.2 5.75h2c0-4.34-3.73-7.75-8.2-7.75zm7.2 20.25h-1c0 3.12-2.71 5.75-6.2 5.75v2c4.47 0 8.2-3.41 8.2-7.75zm-7.2 6.75v-1c-3.49 0-6.2-2.63-6.2-5.75h-2c0 4.34 3.73 7.75 8.2 7.75zm-7.2-6.75h1c0-3.12 2.71-5.75 6.2-5.75v-2c-4.47 0-8.2 3.41-8.2 7.75zm7.2-6.75v1c3.49 0 6.2 2.63 6.2 5.75h2c0-4.34-3.73-7.75-8.2-7.75zm7.2 20.25h-1c0 3.12-2.71 5.75-6.2 5.75v2c4.47 0 8.2-3.41 8.2-7.75zm-7.2 6.75v-1c-3.49 0-6.2-2.63-6.2-5.75h-2c0 4.34 3.73 7.75 8.2 7.75zm-7.2-6.75h1c0-3.12 2.71-5.75 6.2-5.75v-2c-4.47 0-8.2 3.41-8.2 7.75zm7.2-6.75v1c3.49 0 6.2 2.63 6.2 5.75h2c0-4.34-3.73-7.75-8.2-7.75zm36.9-60.75h-1c0 3.12-2.71 5.75-6.2 5.75v2c4.47 0 8.2-3.41 8.2-7.75zm-7.2 6.75v-1c-3.49 0-6.2-2.63-6.2-5.75h-2c0 4.34 3.73 7.75 8.2 7.75zm-7.2-6.75h1c0-3.12 2.71-5.75 6.2-5.75v-2c-4.47 0-8.2 3.41-8.2 7.75zm7.2-6.75v1c3.49 0 6.2 2.63 6.2 5.75h2c0-4.34-3.73-7.75-8.2-7.75zm7.2 20.25h-1c0 3.12-2.71 5.75-6.2 5.75v2c4.47 0 8.2-3.41 8.2-7.75zm-7.2 6.75v-1c-3.49 0-6.2-2.63-6.2-5.75h-2c0 4.34 3.73 7.75 8.2 7.75zm-7.2-6.75h1c0-3.12 2.71-5.75 6.2-5.75v-2c-4.47 0-8.2 3.41-8.2 7.75zm7.2-6.75v1c3.49 0 6.2 2.63 6.2 5.75h2c0-4.34-3.73-7.75-8.2-7.75zm7.2 20.25h-1c0 3.12-2.71 5.75-6.2 5.75v2c4.47 0 8.2-3.41 8.2-7.75zm-7.2 6.75v-1c-3.49 0-6.2-2.63-6.2-5.75h-2c0 4.34 3.73 7.75 8.2 7.75zm-7.2-6.75h1c0-3.12 2.71-5.75 6.2-5.75v-2c-4.47 0-8.2 3.41-8.2 7.75zm7.2-6.75v1c3.49 0 6.2 2.63 6.2 5.75h2c0-4.34-3.73-7.75-8.2-7.75zm7.2 20.25h-1c0 3.12-2.71 5.75-6.2 5.75v2c4.47 0 8.2-3.41 8.2-7.75zm-7.2 6.75v-1c-3.49 0-6.2-2.63-6.2-5.75h-2c0 4.34 3.73 7.75 8.2 7.75zm-7.2-6.75h1c0-3.12 2.71-5.75 6.2-5.75v-2c-4.47 0-8.2 3.41-8.2 7.75zm7.2-6.75v1c3.49 0 6.2 2.63 6.2 5.75h2c0-4.34-3.73-7.75-8.2-7.75zm7.2 20.25h-1c0 3.12-2.71 5.75-6.2 5.75v2c4.47 0 8.2-3.41 8.2-7.75zm-7.2 6.75v-1c-3.49 0-6.2-2.63-6.2-5.75h-2c0 4.34 3.73 7.75 8.2 7.75zm-7.2-6.75h1c0-3.12 2.71-5.75 6.2-5.75v-2c-4.47 0-8.2 3.41-8.2 7.75zm7.2-6.75v1c3.49 0 6.2 2.63 6.2 5.75h2c0-4.34-3.73-7.75-8.2-7.75zm7.2 20.25h-1c0 3.12-2.71 5.75-6.2 5.75v2c4.47 0 8.2-3.41 8.2-7.75zm-7.2 6.75v-1c-3.49 0-6.2-2.63-6.2-5.75h-2c0 4.34 3.73 7.75 8.2 7.75zm-7.2-6.75h1c0-3.12 2.71-5.75 6.2-5.75v-2c-4.47 0-8.2 3.41-8.2 7.75zm7.2-6.75v1c3.49 0 6.2 2.63 6.2 5.75h2c0-4.34-3.73-7.75-8.2-7.75zm7.2 20.25h-1c0 3.12-2.71 5.75-6.2 5.75v2c4.47 0 8.2-3.41 8.2-7.75zm-7.2 6.75v-1c-3.49 0-6.2-2.63-6.2-5.75h-2c0 4.34 3.73 7.75 8.2 7.75zm-7.2-6.75h1c0-3.12 2.71-5.75 6.2-5.75v-2c-4.47 0-8.2 3.41-8.2 7.75zm7.2-6.75v1c3.49 0 6.2 2.63 6.2 5.75h2c0-4.34-3.73-7.75-8.2-7.75zm37.8-20.25h-1c0 3.12-2.71 5.75-6.2 5.75v2c4.47 0 8.2-3.41 8.2-7.75zm-7.2 6.75v-1c-3.49 0-6.2-2.63-6.2-5.75h-2c0 4.34 3.73 7.75 8.2 7.75zm-7.2-6.75h1c0-3.12 2.71-5.75 6.2-5.75v-2c-4.47 0-8.2 3.41-8.2 7.75zm7.2-6.75v1c3.49 0 6.2 2.63 6.2 5.75h2c0-4.34-3.73-7.75-8.2-7.75zm7.2 20.25h-1c0 3.12-2.71 5.75-6.2 5.75v2c4.47 0 8.2-3.41 8.2-7.75zm-7.2 6.75v-1c-3.49 0-6.2-2.63-6.2-5.75h-2c0 4.34 3.73 7.75 8.2 7.75zm-7.2-6.75h1c0-3.12 2.71-5.75 6.2-5.75v-2c-4.47 0-8.2 3.41-8.2 7.75zm7.2-6.75v1c3.49 0 6.2 2.63 6.2 5.75h2c0-4.34-3.73-7.75-8.2-7.75zm7.2 20.25h-1c0 3.12-2.71 5.75-6.2 5.75v2c4.47 0 8.2-3.41 8.2-7.75zm-7.2 6.75v-1c-3.49 0-6.2-2.63-6.2-5.75h-2c0 4.34 3.73 7.75 8.2 7.75zm-7.2-6.75h1c0-3.12 2.71-5.75 6.2-5.75v-2c-4.47 0-8.2 3.41-8.2 7.75zm7.2-6.75v1c3.49 0 6.2 2.63 6.2 5.75h2c0-4.34-3.73-7.75-8.2-7.75zm7.2 20.25h-1c0 3.12-2.71 5.75-6.2 5.75v2c4.47 0 8.2-3.41 8.2-7.75zm-7.2 6.75v-1c-3.49 0-6.2-2.63-6.2-5.75h-2c0 4.34 3.73 7.75 8.2 7.75zm-7.2-6.75h1c0-3.12 2.71-5.75 6.2-5.75v-2c-4.47 0-8.2 3.41-8.2 7.75zm7.2-6.75v1c3.49 0 6.2 2.63 6.2 5.75h2c0-4.34-3.73-7.75-8.2-7.75zm7.2 20.25h-1c0 3.12-2.71 5.75-6.2 5.75v2c4.47 0 8.2-3.41 8.2-7.75zm-7.2 6.75v-1c-3.49 0-6.2-2.63-6.2-5.75h-2c0 4.34 3.73 7.75 8.2 7.75zm-7.2-6.75h1c0-3.12 2.71-5.75 6.2-5.75v-2c-4.47 0-8.2 3.41-8.2 7.75zm7.2-6.75v1c3.49 0 6.2 2.63 6.2 5.75h2c0-4.34-3.73-7.75-8.2-7.75zm7.2 20.25h-1c0 3.12-2.71 5.75-6.2 5.75v2c4.47 0 8.2-3.41 8.2-7.75zm-7.2 6.75v-1c-3.49 0-6.2-2.63-6.2-5.75h-2c0 4.34 3.73 7.75 8.2 7.75zm-7.2-6.75h1c0-3.12 2.71-5.75 6.2-5.75v-2c-4.47 0-8.2 3.41-8.2 7.75zm7.2-6.75v1c3.49 0 6.2 2.63 6.2 5.75h2c0-4.34-3.73-7.75-8.2-7.75zm7.2 20.25h-1c0 3.12-2.71 5.75-6.2 5.75v2c4.47 0 8.2-3.41 8.2-7.75zm-7.2 6.75v-1c-3.49 0-6.2-2.63-6.2-5.75h-2c0 4.34 3.73 7.75 8.2 7.75zm-7.2-6.75h1c0-3.12 2.71-5.75 6.2-5.75v-2c-4.47 0-8.2 3.41-8.2 7.75zm7.2-6.75v1c3.49 0 6.2 2.63 6.2 5.75h2c0-4.34-3.73-7.75-8.2-7.75zm7.2 20.25h-1c0 3.12-2.71 5.75-6.2 5.75v2c4.47 0 8.2-3.41 8.2-7.75zm-7.2 6.75v-1c-3.49 0-6.2-2.63-6.2-5.75h-2c0 4.34 3.73 7.75 8.2 7.75zm-7.2-6.75h1c0-3.12 2.71-5.75 6.2-5.75v-2c-4.47 0-8.2 3.41-8.2 7.75zm7.2-6.75v1c3.49 0 6.2 2.63 6.2 5.75h2c0-4.34-3.73-7.75-8.2-7.75zm7.2 20.25h-1c0 3.12-2.71 5.75-6.2 5.75v2c4.47 0 8.2-3.41 8.2-7.75zm-7.2 6.75v-1c-3.49 0-6.2-2.63-6.2-5.75h-2c0 4.34 3.73 7.75 8.2 7.75zm-7.2-6.75h1c0-3.12 2.71-5.75 6.2-5.75v-2c-4.47 0-8.2 3.41-8.2 7.75zm7.2-6.75v1c3.49 0 6.2 2.63 6.2 5.75h2c0-4.34-3.73-7.75-8.2-7.75zm7.2 20.25h-1c0 3.12-2.71 5.75-6.2 5.75v2c4.47 0 8.2-3.41 8.2-7.75zm-7.2 6.75v-1c-3.49 0-6.2-2.63-6.2-5.75h-2c0 4.34 3.73 7.75 8.2 7.75zm-7.2-6.75h1c0-3.12 2.71-5.75 6.2-5.75v-2c-4.47 0-8.2 3.41-8.2 7.75zm7.2-6.75v1c3.49 0 6.2 2.63 6.2 5.75h2c0-4.34-3.73-7.75-8.2-7.75zm37.8-34.65h-1c0 3.12-2.71 5.75-6.2 5.75v2c4.47 0 8.2-3.41 8.2-7.75zm-7.2 6.75v-1c-3.49 0-6.2-2.63-6.2-5.75h-2c0 4.34 3.73 7.75 8.2 7.75zm-7.2-6.75h1c0-3.12 2.71-5.75 6.2-5.75v-2c-4.47 0-8.2 3.41-8.2 7.75zm7.2-6.75v1c3.49 0 6.2 2.63 6.2 5.75h2c0-4.34-3.73-7.75-8.2-7.75zm7.2 20.25h-1c0 3.12-2.71 5.75-6.2 5.75v2c4.47 0 8.2-3.41 8.2-7.75zm-7.2 6.75v-1c-3.49 0-6.2-2.63-6.2-5.75h-2c0 4.34 3.73 7.75 8.2 7.75zm-7.2-6.75h1c0-3.12 2.71-5.75 6.2-5.75v-2c-4.47 0-8.2 3.41-8.2 7.75zm7.2-6.75v1c3.49 0 6.2 2.63 6.2 5.75h2c0-4.34-3.73-7.75-8.2-7.75zm7.2 20.25h-1c0 3.12-2.71 5.75-6.2 5.75v2c4.47 0 8.2-3.41 8.2-7.75zm-7.2 6.75v-1c-3.49 0-6.2-2.63-6.2-5.75h-2c0 4.34 3.73 7.75 8.2 7.75zm-7.2-6.75h1c0-3.12 2.71-5.75 6.2-5.75v-2c-4.47 0-8.2 3.41-8.2 7.75zm7.2-6.75v1c3.49 0 6.2 2.63 6.2 5.75h2c0-4.34-3.73-7.75-8.2-7.75zm7.2 20.25h-1c0 3.12-2.71 5.75-6.2 5.75v2c4.47 0 8.2-3.41 8.2-7.75zm-7.2 6.75v-1c-3.49 0-6.2-2.63-6.2-5.75h-2c0 4.34 3.73 7.75 8.2 7.75zm-7.2-6.75h1c0-3.12 2.71-5.75 6.2-5.75v-2c-4.47 0-8.2 3.41-8.2 7.75zm7.2-6.75v1c3.49 0 6.2 2.63 6.2 5.75h2c0-4.34-3.73-7.75-8.2-7.75zm7.2 20.25h-1c0 3.12-2.71 5.75-6.2 5.75v2c4.47 0 8.2-3.41 8.2-7.75zm-7.2 6.75v-1c-3.49 0-6.2-2.63-6.2-5.75h-2c0 4.34 3.73 7.75 8.2 7.75zm-7.2-6.75h1c0-3.12 2.71-5.75 6.2-5.75v-2c-4.47 0-8.2 3.41-8.2 7.75zm7.2-6.75v1c3.49 0 6.2 2.63 6.2 5.75h2c0-4.34-3.73-7.75-8.2-7.75zm7.2 20.25h-1c0 3.12-2.71 5.75-6.2 5.75v2c4.47 0 8.2-3.41 8.2-7.75zm-7.2 6.75v-1c-3.49 0-6.2-2.63-6.2-5.75h-2c0 4.34 3.73 7.75 8.2 7.75zm-7.2-6.75h1c0-3.12 2.71-5.75 6.2-5.75v-2c-4.47 0-8.2 3.41-8.2 7.75zm7.2-6.75v1c3.49 0 6.2 2.63 6.2 5.75h2c0-4.34-3.73-7.75-8.2-7.75zm7.2 20.25h-1c0 3.12-2.71 5.75-6.2 5.75v2c4.47 0 8.2-3.41 8.2-7.75zm-7.2 6.75v-1c-3.49 0-6.2-2.63-6.2-5.75h-2c0 4.34 3.73 7.75 8.2 7.75zm-7.2-6.75h1c0-3.12 2.71-5.75 6.2-5.75v-2c-4.47 0-8.2 3.41-8.2 7.75zm7.2-6.75v1c3.49 0 6.2 2.63 6.2 5.75h2c0-4.34-3.73-7.75-8.2-7.75zm37.8-101.25h-1c0 3.12-2.71 5.75-6.2 5.75v2c4.47 0 8.2-3.41 8.2-7.75zm-7.2 6.75v-1c-3.49 0-6.2-2.63-6.2-5.75h-2c0 4.34 3.73 7.75 8.2 7.75zm-7.2-6.75h1c0-3.12 2.71-5.75 6.2-5.75v-2c-4.47 0-8.2 3.41-8.2 7.75zm7.2-6.75v1c3.49 0 6.2 2.63 6.2 5.75h2c0-4.34-3.73-7.75-8.2-7.75zm7.2 20.25h-1c0 3.12-2.71 5.75-6.2 5.75v2c4.47 0 8.2-3.41 8.2-7.75zm-7.2 6.75v-1c-3.49 0-6.2-2.63-6.2-5.75h-2c0 4.34 3.73 7.75 8.2 7.75zm-7.2-6.75h1c0-3.12 2.71-5.75 6.2-5.75v-2c-4.47 0-8.2 3.41-8.2 7.75zm7.2-6.75v1c3.49 0 6.2 2.63 6.2 5.75h2c0-4.34-3.73-7.75-8.2-7.75zm7.2 20.25h-1c0 3.12-2.71 5.75-6.2 5.75v2c4.47 0 8.2-3.41 8.2-7.75zm-7.2 6.75v-1c-3.49 0-6.2-2.63-6.2-5.75h-2c0 4.34 3.73 7.75 8.2 7.75zm-7.2-6.75h1c0-3.12 2.71-5.75 6.2-5.75v-2c-4.47 0-8.2 3.41-8.2 7.75zm7.2-6.75v1c3.49 0 6.2 2.63 6.2 5.75h2c0-4.34-3.73-7.75-8.2-7.75zm37.8-46.35h-1c0 3.12-2.72 5.75-6.2 5.75v2c4.47 0 8.2-3.41 8.2-7.75zm-7.2 6.75v-1c-3.49 0-6.2-2.63-6.2-5.75h-2c0 4.34 3.73 7.75 8.2 7.75zm-7.2-6.75h1c0-3.12 2.71-5.75 6.2-5.75v-2c-4.47 0-8.2 3.41-8.2 7.75zm7.2-6.75v1c3.49 0 6.2 2.63 6.2 5.75h2c0-4.34-3.73-7.75-8.2-7.75zm7.2 20.25h-1c0 3.12-2.72 5.75-6.2 5.75v2c4.47 0 8.2-3.41 8.2-7.75zm-7.2 6.75v-1c-3.49 0-6.2-2.63-6.2-5.75h-2c0 4.34 3.73 7.75 8.2 7.75zm-7.2-6.75h1c0-3.12 2.71-5.75 6.2-5.75v-2c-4.47 0-8.2 3.41-8.2 7.75zm7.2-6.75v1c3.49 0 6.2 2.63 6.2 5.75h2c0-4.34-3.73-7.75-8.2-7.75zm7.2 20.25h-1c0 3.12-2.72 5.75-6.2 5.75v2c4.47 0 8.2-3.41 8.2-7.75zm-7.2 6.75v-1c-3.49 0-6.2-2.63-6.2-5.75h-2c0 4.34 3.73 7.75 8.2 7.75zm-7.2-6.75h1c0-3.12 2.71-5.75 6.2-5.75v-2c-4.47 0-8.2 3.41-8.2 7.75zm7.2-6.75v1c3.49 0 6.2 2.63 6.2 5.75h2c0-4.34-3.73-7.75-8.2-7.75zm7.2 20.25h-1c0 3.12-2.72 5.75-6.2 5.75v2c4.47 0 8.2-3.41 8.2-7.75zm-7.2 6.75v-1c-3.49 0-6.2-2.63-6.2-5.75h-2c0 4.34 3.73 7.75 8.2 7.75zm-7.2-6.75h1c0-3.12 2.71-5.75 6.2-5.75v-2c-4.47 0-8.2 3.41-8.2 7.75zm7.2-6.75v1c3.49 0 6.2 2.63 6.2 5.75h2c0-4.34-3.73-7.75-8.2-7.75zm7.2 20.25h-1c0 3.12-2.72 5.75-6.2 5.75v2c4.47 0 8.2-3.41 8.2-7.75zm-7.2 6.75v-1c-3.49 0-6.2-2.63-6.2-5.75h-2c0 4.34 3.73 7.75 8.2 7.75zm-7.2-6.75h1c0-3.12 2.71-5.75 6.2-5.75v-2c-4.47 0-8.2 3.41-8.2 7.75zm7.2-6.75v1c3.49 0 6.2 2.63 6.2 5.75h2c0-4.34-3.73-7.75-8.2-7.75zm7.2 20.25h-1c0 3.12-2.72 5.75-6.2 5.75v2c4.47 0 8.2-3.41 8.2-7.75zm-7.2 6.75v-1c-3.49 0-6.2-2.63-6.2-5.75h-2c0 4.34 3.73 7.75 8.2 7.75zm-7.2-6.75h1c0-3.12 2.71-5.75 6.2-5.75v-2c-4.47 0-8.2 3.41-8.2 7.75zm7.2-6.75v1c3.49 0 6.2 2.63 6.2 5.75h2c0-4.34-3.73-7.75-8.2-7.75zm7.2 20.25h-1c0 3.12-2.72 5.75-6.2 5.75v2c4.47 0 8.2-3.41 8.2-7.75zm-7.2 6.75v-1c-3.49 0-6.2-2.63-6.2-5.75h-2c0 4.34 3.73 7.75 8.2 7.75zm-7.2-6.75h1c0-3.12 2.71-5.75 6.2-5.75v-2c-4.47 0-8.2 3.41-8.2 7.75zm7.2-6.75v1c3.49 0 6.2 2.63 6.2 5.75h2c0-4.34-3.73-7.75-8.2-7.75zm36.9-247.95h-1c0 3.12-2.71 5.75-6.2 5.75v2c4.47 0 8.2-3.41 8.2-7.75zm-7.2 6.75v-1c-3.49 0-6.2-2.63-6.2-5.75h-2c0 4.34 3.73 7.75 8.2 7.75zm-7.2-6.75h1c0-3.12 2.71-5.75 6.2-5.75v-2c-4.47 0-8.2 3.41-8.2 7.75zm7.2-6.75v1c3.49 0 6.2 2.63 6.2 5.75h2c0-4.34-3.73-7.75-8.2-7.75zm7.2 20.25h-1c0 3.12-2.71 5.75-6.2 5.75v2c4.47 0 8.2-3.41 8.2-7.75zm-7.2 6.75v-1c-3.49 0-6.2-2.63-6.2-5.75h-2c0 4.34 3.73 7.75 8.2 7.75zm-7.2-6.75h1c0-3.12 2.71-5.75 6.2-5.75v-2c-4.47 0-8.2 3.41-8.2 7.75zm7.2-6.75v1c3.49 0 6.2 2.63 6.2 5.75h2c0-4.34-3.73-7.75-8.2-7.75zm7.2 20.25h-1c0 3.12-2.71 5.75-6.2 5.75v2c4.47 0 8.2-3.41 8.2-7.75zm-7.2 6.75v-1c-3.49 0-6.2-2.63-6.2-5.75h-2c0 4.34 3.73 7.75 8.2 7.75zm-7.2-6.75h1c0-3.12 2.71-5.75 6.2-5.75v-2c-4.47 0-8.2 3.41-8.2 7.75zm7.2-6.75v1c3.49 0 6.2 2.63 6.2 5.75h2c0-4.34-3.73-7.75-8.2-7.75zm7.2 20.25h-1c0 3.12-2.71 5.75-6.2 5.75v2c4.47 0 8.2-3.41 8.2-7.75zm-7.2 6.75v-1c-3.49 0-6.2-2.63-6.2-5.75h-2c0 4.34 3.73 7.75 8.2 7.75zm-7.2-6.75h1c0-3.12 2.71-5.75 6.2-5.75v-2c-4.47 0-8.2 3.41-8.2 7.75zm7.2-6.75v1c3.49 0 6.2 2.63 6.2 5.75h2c0-4.34-3.73-7.75-8.2-7.75zm37.8-59.85h-1c0 3.12-2.71 5.75-6.2 5.75v2c4.47 0 8.2-3.41 8.2-7.75zM485.2 69v-1c-3.49 0-6.2-2.63-6.2-5.75h-2c0 4.34 3.73 7.75 8.2 7.75zm-7.2-6.75h1c0-3.12 2.71-5.75 6.2-5.75v-2c-4.47 0-8.2 3.41-8.2 7.75zm7.2-6.75v1c3.49 0 6.2 2.63 6.2 5.75h2c0-4.34-3.73-7.75-8.2-7.75zm7.2 20.25h-1c0 3.12-2.71 5.75-6.2 5.75v2c4.47 0 8.2-3.41 8.2-7.75zm-7.2 6.75v-1c-3.49 0-6.2-2.63-6.2-5.75h-2c0 4.34 3.73 7.75 8.2 7.75zm-7.2-6.75h1c0-3.12 2.71-5.75 6.2-5.75v-2c-4.47 0-8.2 3.41-8.2 7.75zm7.2-6.75v1c3.49 0 6.2 2.63 6.2 5.75h2c0-4.34-3.73-7.75-8.2-7.75zm7.2 20.25h-1c0 3.12-2.71 5.75-6.2 5.75v2c4.47 0 8.2-3.41 8.2-7.75zM485.2 96v-1c-3.49 0-6.2-2.63-6.2-5.75h-2c0 4.34 3.73 7.75 8.2 7.75zm-7.2-6.75h1c0-3.12 2.71-5.75 6.2-5.75v-2c-4.47 0-8.2 3.41-8.2 7.75zm7.2-6.75v1c3.49 0 6.2 2.63 6.2 5.75h2c0-4.34-3.73-7.75-8.2-7.75zm7.2 20.25h-1c0 3.12-2.71 5.75-6.2 5.75v2c4.47 0 8.2-3.41 8.2-7.75zm-7.2 6.75v-1c-3.49 0-6.2-2.63-6.2-5.75h-2c0 4.34 3.73 7.75 8.2 7.75zm-7.2-6.75h1c0-3.12 2.71-5.75 6.2-5.75v-2c-4.47 0-8.2 3.41-8.2 7.75zm7.2-6.75v1c3.49 0 6.2 2.63 6.2 5.75h2c0-4.34-3.73-7.75-8.2-7.75zm7.2 20.25h-1c0 3.12-2.71 5.75-6.2 5.75v2c4.47 0 8.2-3.41 8.2-7.75zm-7.2 6.75v-1c-3.49 0-6.2-2.63-6.2-5.75h-2c0 4.34 3.73 7.75 8.2 7.75zm-7.2-6.75h1c0-3.12 2.71-5.75 6.2-5.75v-2c-4.47 0-8.2 3.41-8.2 7.75zm7.2-6.75v1c3.49 0 6.2 2.63 6.2 5.75h2c0-4.34-3.73-7.75-8.2-7.75zm7.2 20.25h-1c0 3.12-2.71 5.75-6.2 5.75v2c4.47 0 8.2-3.41 8.2-7.75zm-7.2 6.75v-1c-3.49 0-6.2-2.63-6.2-5.75h-2c0 4.34 3.73 7.75 8.2 7.75zm-7.2-6.75h1c0-3.12 2.71-5.75 6.2-5.75v-2c-4.47 0-8.2 3.41-8.2 7.75zm7.2-6.75v1c3.49 0 6.2 2.63 6.2 5.75h2c0-4.34-3.73-7.75-8.2-7.75zm7.2 20.25h-1c0 3.12-2.71 5.75-6.2 5.75v2c4.47 0 8.2-3.41 8.2-7.75zm-7.2 6.75v-1c-3.49 0-6.2-2.63-6.2-5.75h-2c0 4.34 3.73 7.75 8.2 7.75zm-7.2-6.75h1c0-3.12 2.71-5.75 6.2-5.75v-2c-4.47 0-8.2 3.41-8.2 7.75zm7.2-6.75v1c3.49 0 6.2 2.63 6.2 5.75h2c0-4.34-3.73-7.75-8.2-7.75zm7.2 20.25h-1c0 3.12-2.71 5.75-6.2 5.75v2c4.47 0 8.2-3.41 8.2-7.75zm-7.2 6.75v-1c-3.49 0-6.2-2.63-6.2-5.75h-2c0 4.34 3.73 7.75 8.2 7.75zm-7.2-6.75h1c0-3.12 2.71-5.75 6.2-5.75v-2c-4.47 0-8.2 3.41-8.2 7.75zm7.2-6.75v1c3.49 0 6.2 2.63 6.2 5.75h2c0-4.34-3.73-7.75-8.2-7.75zm7.2 20.25h-1c0 3.12-2.71 5.75-6.2 5.75v2c4.47 0 8.2-3.41 8.2-7.75zm-7.2 6.75v-1c-3.49 0-6.2-2.63-6.2-5.75h-2c0 4.34 3.73 7.75 8.2 7.75zm-7.2-6.75h1c0-3.12 2.71-5.75 6.2-5.75v-2c-4.47 0-8.2 3.41-8.2 7.75zm7.2-6.75v1c3.49 0 6.2 2.63 6.2 5.75h2c0-4.34-3.73-7.75-8.2-7.75zm37.8-48.15h-1c0 3.12-2.71 5.75-6.2 5.75v2c4.47 0 8.2-3.41 8.2-7.75zm-7.2 6.75v-1c-3.49 0-6.2-2.63-6.2-5.75h-2c0 4.34 3.73 7.75 8.2 7.75zm-7.2-6.75h1c0-3.12 2.71-5.75 6.2-5.75v-2c-4.47 0-8.2 3.41-8.2 7.75zm7.2-6.75v1c3.49 0 6.2 2.63 6.2 5.75h2c0-4.34-3.73-7.75-8.2-7.75zm7.2 20.25h-1c0 3.12-2.71 5.75-6.2 5.75v2c4.47 0 8.2-3.41 8.2-7.75zm-7.2 6.75v-1c-3.49 0-6.2-2.63-6.2-5.75h-2c0 4.34 3.73 7.75 8.2 7.75zm-7.2-6.75h1c0-3.12 2.71-5.75 6.2-5.75v-2c-4.47 0-8.2 3.41-8.2 7.75zm7.2-6.75v1c3.49 0 6.2 2.63 6.2 5.75h2c0-4.34-3.73-7.75-8.2-7.75zm7.2 20.25h-1c0 3.12-2.71 5.75-6.2 5.75v2c4.47 0 8.2-3.41 8.2-7.75zm-7.2 6.75v-1c-3.49 0-6.2-2.63-6.2-5.75h-2c0 4.34 3.73 7.75 8.2 7.75zm-7.2-6.75h1c0-3.12 2.71-5.75 6.2-5.75v-2c-4.47 0-8.2 3.41-8.2 7.75zm7.2-6.75v1c3.49 0 6.2 2.63 6.2 5.75h2c0-4.34-3.73-7.75-8.2-7.75zm7.2 20.25h-1c0 3.12-2.71 5.75-6.2 5.75v2c4.47 0 8.2-3.41 8.2-7.75zm-7.2 6.75v-1c-3.49 0-6.2-2.63-6.2-5.75h-2c0 4.34 3.73 7.75 8.2 7.75zm-7.2-6.75h1c0-3.12 2.71-5.75 6.2-5.75v-2c-4.47 0-8.2 3.41-8.2 7.75zm7.2-6.75v1c3.49 0 6.2 2.63 6.2 5.75h2c0-4.34-3.73-7.75-8.2-7.75zm7.2 20.25h-1c0 3.12-2.71 5.75-6.2 5.75v2c4.47 0 8.2-3.41 8.2-7.75zm-7.2 6.75v-1c-3.49 0-6.2-2.63-6.2-5.75h-2c0 4.34 3.73 7.75 8.2 7.75zm-7.2-6.75h1c0-3.12 2.71-5.75 6.2-5.75v-2c-4.47 0-8.2 3.41-8.2 7.75zm7.2-6.75v1c3.49 0 6.2 2.63 6.2 5.75h2c0-4.34-3.73-7.75-8.2-7.75zm37.8-104.85h-1c0 3.12-2.72 5.75-6.2 5.75v2c4.47 0 8.2-3.41 8.2-7.75zm-7.2 6.75v-1c-3.49 0-6.2-2.63-6.2-5.75h-2c0 4.34 3.73 7.75 8.2 7.75zm-7.2-6.75h1c0-3.12 2.71-5.75 6.2-5.75v-2c-4.47 0-8.2 3.41-8.2 7.75zm7.2-6.75v1c3.49 0 6.2 2.63 6.2 5.75h2c0-4.34-3.73-7.75-8.2-7.75zm7.2 20.25h-1c0 3.12-2.72 5.75-6.2 5.75v2c4.47 0 8.2-3.41 8.2-7.75zM546.4 78v-1c-3.49 0-6.2-2.63-6.2-5.75h-2c0 4.34 3.73 7.75 8.2 7.75zm-7.2-6.75h1c0-3.12 2.71-5.75 6.2-5.75v-2c-4.47 0-8.2 3.41-8.2 7.75zm7.2-6.75v1c3.49 0 6.2 2.63 6.2 5.75h2c0-4.34-3.73-7.75-8.2-7.75zm7.2 20.25h-1c0 3.12-2.72 5.75-6.2 5.75v2c4.47 0 8.2-3.41 8.2-7.75zm-7.2 6.75v-1c-3.49 0-6.2-2.63-6.2-5.75h-2c0 4.34 3.73 7.75 8.2 7.75zm-7.2-6.75h1c0-3.12 2.71-5.75 6.2-5.75v-2c-4.47 0-8.2 3.41-8.2 7.75zm7.2-6.75v1c3.49 0 6.2 2.63 6.2 5.75h2c0-4.34-3.73-7.75-8.2-7.75zm7.2 20.25h-1c0 3.12-2.72 5.75-6.2 5.75v2c4.47 0 8.2-3.41 8.2-7.75zm-7.2 6.75v-1c-3.49 0-6.2-2.63-6.2-5.75h-2c0 4.34 3.73 7.75 8.2 7.75zm-7.2-6.75h1c0-3.12 2.71-5.75 6.2-5.75v-2c-4.47 0-8.2 3.41-8.2 7.75zm7.2-6.75v1c3.49 0 6.2 2.63 6.2 5.75h2c0-4.34-3.73-7.75-8.2-7.75zm7.2 20.25h-1c0 3.12-2.72 5.75-6.2 5.75v2c4.47 0 8.2-3.41 8.2-7.75zm-7.2 6.75v-1c-3.49 0-6.2-2.63-6.2-5.75h-2c0 4.34 3.73 7.75 8.2 7.75zm-7.2-6.75h1c0-3.12 2.71-5.75 6.2-5.75v-2c-4.47 0-8.2 3.41-8.2 7.75zm7.2-6.75v1c3.49 0 6.2 2.63 6.2 5.75h2c0-4.34-3.73-7.75-8.2-7.75zm-328 248.75h-1c0 3.12-2.71 5.75-6.2 5.75v2c4.47 0 8.2-3.41 8.2-7.75zm-7.2 6.75v-1c-3.49 0-6.2-2.63-6.2-5.75h-2c0 4.34 3.73 7.75 8.2 7.75zm-7.2-6.75h1c0-3.12 2.71-5.75 6.2-5.75v-2c-4.47 0-8.2 3.41-8.2 7.75zm7.2-6.75v1c3.49 0 6.2 2.63 6.2 5.75h2c0-4.34-3.73-7.75-8.2-7.75zm7.2 33.75h-1c0 3.12-2.71 5.75-6.2 5.75v2c4.47 0 8.2-3.41 8.2-7.75zm-7.2 6.75v-1c-3.49 0-6.2-2.63-6.2-5.75h-2c0 4.34 3.73 7.75 8.2 7.75zm-7.2-6.75h1c0-3.12 2.71-5.75 6.2-5.75v-2c-4.47 0-8.2 3.41-8.2 7.75zm7.2-6.75v1c3.49 0 6.2 2.63 6.2 5.75h2c0-4.34-3.73-7.75-8.2-7.75zm7.2 20.25h-1c0 3.12-2.71 5.75-6.2 5.75v2c4.47 0 8.2-3.41 8.2-7.75zm-7.2 6.75v-1c-3.49 0-6.2-2.63-6.2-5.75h-2c0 4.34 3.73 7.75 8.2 7.75zm-7.2-6.75h1c0-3.12 2.71-5.75 6.2-5.75v-2c-4.47 0-8.2 3.41-8.2 7.75zm7.2-6.75v1c3.49 0 6.2 2.63 6.2 5.75h2c0-4.34-3.73-7.75-8.2-7.75zm7.2-20.25h-1c0 3.12-2.71 5.75-6.2 5.75v2c4.47 0 8.2-3.41 8.2-7.75zm-7.2 6.75v-1c-3.49 0-6.2-2.63-6.2-5.75h-2c0 4.34 3.73 7.75 8.2 7.75zm-7.2-6.75h1c0-3.12 2.71-5.75 6.2-5.75v-2c-4.47 0-8.2 3.41-8.2 7.75zm7.2-6.75v1c3.49 0 6.2 2.63 6.2 5.75h2c0-4.34-3.73-7.75-8.2-7.75z" mask="url(#ert2dzs5h)"/></g><defs><filter id="art2dzs5h" width="489.34" height="445.4" x="58.26" y="5.5" color-interpolation-filters="sRGB" filterUnits="userSpaceOnUse"><feFlood flood-opacity="0" result="BackgroundImageFix"/><feColorMatrix in="SourceAlpha" result="hardAlpha" values="0 0 0 0 0 0 0 0 0 0 0 0 0 0 0 0 0 0 127 0"/><feOffset/><feGaussianBlur stdDeviation="4"/><feComposite in2="hardAlpha" operator="out"/><feColorMatrix values="0 0 0 0 0.03 0 0 0 0 0.6 0 0 0 0 0.505 0 0 0 1 0"/><feBlend in2="BackgroundImageFix" result="effect1_dropShadow_12095_181814"/><feBlend in="SourceGraphic" in2="effect1_dropShadow_12095_181814" result="shape"/></filter><filter id="brt2dzs5h" width="494.6" height="428" x="71" y="39" color-interpolation-filters="sRGB" filterUnits="userSpaceOnUse"><feFlood flood-opacity="0" result="BackgroundImageFix"/><feColorMatrix in="SourceAlpha" result="hardAlpha" values="0 0 0 0 0 0 0 0 0 0 0 0 0 0 0 0 0 0 127 0"/><feOffset/><feGaussianBlur stdDeviation="6"/><feComposite in2="hardAlpha" operator="out"/><feColorMatrix values="0 0 0 0 0.95 0 0 0 0 0.210246 0 0 0 0 0.271892 0 0 0 1 0"/><feBlend in2="BackgroundImageFix" result="effect1_dropShadow_12095_181814"/><feBlend in="SourceGraphic" in2="effect1_dropShadow_12095_181814" result="shape"/></filter><filter id="drt2dzs5h" width="478.6" height="412" x="79" y="47" color-interpolation-filters="sRGB" filterUnits="userSpaceOnUse"><feFlood flood-opacity="0" result="BackgroundImageFix"/><feColorMatrix in="SourceAlpha" result="hardAlpha" values="0 0 0 0 0 0 0 0 0 0 0 0 0 0 0 0 0 0 127 0"/><feOffset/><feGaussianBlur stdDeviation="2"/><feComposite in2="hardAlpha" operator="out"/><feColorMatrix values="0 0 0 0 0.95 0 0 0 0 0.210246 0 0 0 0 0.271892 0 0 0 1 0"/><feBlend in2="BackgroundImageFix" result="effect1_dropShadow_12095_181814"/><feBlend in="SourceGraphic" in2="effect1_dropShadow_12095_181814" result="shape"/></filter></defs></svg>