<svg xmlns="http://www.w3.org/2000/svg" width="200" height="60" viewBox="0 0 200 60"><path fill="#FAFAFA" d="M73.22 36.68V23.31h5.83c2.78 0 4.33 1.93 4.33 4.2 0 2.26-1.57 4.18-4.33 4.18h-3.5v5zm5.51-11.3h-3.18v4.25h3.18c1.31 0 2.27-.84 2.27-2.13 0-1.28-.96-2.12-2.27-2.12m12.77-2.29c3.97 0 6.78 2.93 6.78 6.92s-2.8 6.92-6.78 6.92S84.72 34 84.72 30s2.8-6.92 6.78-6.92m0 2.09c-2.69 0-4.4 2.06-4.4 4.83 0 2.75 1.71 4.83 4.4 4.83 2.66 0 4.4-2.08 4.4-4.83-.01-2.77-1.74-4.83-4.4-4.83m9.02 11.5V23.31h2.33v11.31h5.84v2.06zM116.4 23.1c3.97 0 6.78 2.93 6.78 6.92s-2.8 6.92-6.78 6.92-6.8-2.94-6.8-6.94 2.8-6.92 6.78-6.92m0 2.09c-2.69 0-4.4 2.06-4.4 4.83 0 2.75 1.71 4.83 4.4 4.83 2.66 0 4.4-2.08 4.4-4.83 0-2.77-1.74-4.83-4.4-4.83m18.27 11.5-6.92-9.74v9.74h-2.32V23.31h2.38l6.78 9.49v-9.5h2.33v13.37zm5.07 0V23.31h2.33v13.37zm5.15 0V23.31h9.09v2.07h-6.76v3.47h6.62v2.06h-6.62v3.71h6.75v2.06zm20.34 0-3.72-5.23-3.72 5.23H155l4.97-6.85-4.67-6.52h2.78l3.42 4.91 3.4-4.9h2.8l-4.65 6.49 4.95 6.88z"/><path fill="#265B34" d="M45.74 38 32 30l13.74-8z"/><path fill="#5EAE70" d="m32 14 13.74 8L32 30z"/><path fill="#26382C" d="m32 30 13.74 8L32 46z"/><path fill="#5EAE70" d="M45.74 22v16l13.74 8V30z"/><path fill="#26382C" d="M59.48 30V14l-13.74 8z"/></svg>