<svg xmlns="http://www.w3.org/2000/svg" width="132" height="60" viewBox="0 0 132 60"><path fill="#FAFAFA" d="M43.95 35.43V24.57h4.8c2.29 0 3.57 1.56 3.57 3.4s-1.3 3.4-3.57 3.4h-2.89v4.06zm4.53-9.19h-2.62v3.46h2.62c1.09 0 1.87-.69 1.87-1.73s-.78-1.73-1.87-1.73M59 24.4a5.4 5.4 0 0 1 5.58 5.6A5.4 5.4 0 0 1 59 35.63 5.4 5.4 0 0 1 53.4 30a5.4 5.4 0 0 1 5.6-5.61m0 1.7c-2.21 0-3.62 1.67-3.62 3.92 0 2.23 1.4 3.92 3.62 3.92 2.2 0 3.62-1.7 3.62-3.92 0-2.25-1.43-3.93-3.62-3.93m7.43 9.34V24.57h1.92v9.18h4.81v1.68zM79.5 24.4a5.4 5.4 0 0 1 5.58 5.6 5.4 5.4 0 0 1-5.58 5.62A5.4 5.4 0 0 1 73.9 30a5.4 5.4 0 0 1 5.59-5.62m0 1.7c-2.21 0-3.62 1.67-3.62 3.92 0 2.23 1.4 3.92 3.62 3.92 2.19 0 3.61-1.7 3.61-3.92 0-2.25-1.42-3.93-3.61-3.93m15.04 9.34-5.7-7.91v7.91h-1.9V24.57h1.96l5.58 7.7v-7.7h1.91v10.86zm4.18 0V24.57h1.92v10.86zm4.24 0V24.57h7.48v1.67h-5.56v2.82h5.45v1.68h-5.45v3.01h5.56v1.68zm16.75 0-3.06-4.25-3.07 4.25h-2.29l4.1-5.57-3.85-5.3h2.29l2.82 4 2.8-4h2.3l-3.83 5.28 4.08 5.6z"/><path fill="#265B34" d="M21.32 36.5 10 30l11.32-6.5z"/><path fill="#5EAE70" d="m10 17 11.32 6.5L10 30z"/><path fill="#26382C" d="m10 30 11.32 6.5L10 43z"/><path fill="#5EAE70" d="M21.32 23.5v13L32.63 43V30z"/><path fill="#26382C" d="M32.63 30V17l-11.31 6.5z"/></svg>