<svg xmlns="http://www.w3.org/2000/svg" width="200" height="80" viewBox="0 0 200 80"><path fill="#FAFAFA" d="M70.07 47.52V32.48h6.51c3.11 0 4.85 2.16 4.85 4.71s-1.76 4.71-4.85 4.71h-3.9v5.62zm6.16-12.72h-3.56v4.78h3.56c1.46 0 2.53-.95 2.53-2.39s-1.07-2.39-2.53-2.39m14.27-2.57c4.44 0 7.57 3.3 7.57 7.78s-3.13 7.78-7.57 7.78-7.58-3.29-7.58-7.78 3.13-7.78 7.58-7.78m0 2.34c-3 0-4.92 2.33-4.92 5.44 0 3.09 1.92 5.44 4.92 5.44 2.97 0 4.9-2.35 4.9-5.44 0-3.11-1.93-5.44-4.9-5.44m10.08 12.95V32.48h2.6V45.2h6.53v2.32zm17.74-15.3c4.44 0 7.57 3.3 7.57 7.79s-3.13 7.78-7.58 7.78-7.57-3.29-7.57-7.78 3.13-7.78 7.58-7.78m0 2.35c-3 0-4.92 2.33-4.92 5.44 0 3.09 1.91 5.44 4.91 5.44 2.98 0 4.92-2.35 4.92-5.44 0-3.11-1.94-5.44-4.92-5.44m20.42 12.95L131 36.56v10.96h-2.6V32.48h2.67l7.58 10.66V32.48h2.6v15.04zm5.66 0V32.48h2.6v15.04zm5.76 0V32.48h10.15v2.32h-7.55v3.9h7.4v2.32h-7.4v4.18h7.55v2.32zm22.73 0-4.16-5.89-4.15 5.89h-3.11l5.55-7.71-5.22-7.33h3.11l3.82 5.52 3.8-5.52h3.13l-5.2 7.3 5.54 7.74z"/><path fill="#265B34" d="M39.36 49 24 40l15.36-9z"/><path fill="#5EAE70" d="m24 22 15.36 9L24 40z"/><path fill="#26382C" d="m24 40 15.36 9L24 58z"/><path fill="#5EAE70" d="M39.36 31v18l15.35 9V40z"/><path fill="#26382C" d="M54.71 40V22l-15.35 9z"/></svg>