<svg xmlns="http://www.w3.org/2000/svg" width="200" height="60" viewBox="0 0 200 60"><path fill="url(#al5tl1bs4)" d="m53.6 27.96-.38.18a8.4 8.4 0 0 0-4.74 7.1l-3.46-5.19a8.6 8.6 0 0 1 3.55-7.47l1.36-.97a11 11 0 0 0 2.91-3.1l.3-.49 6.07 4.44-.23.41a12.3 12.3 0 0 1-5.37 5.09"/><path fill="url(#bl5tl1bs4)" d="M63.83 31.2v-1.66l-3.07-5.48a8 8 0 0 1-4.19 6.1l-1.75.92a9.4 9.4 0 0 0-4.23 4.58l-.4.94 6.28 4 .08-.27a5.7 5.7 0 0 1 2.96-3.4l.22-.1a7.3 7.3 0 0 0 4.1-5.64"/><path fill="url(#cl5tl1bs4)" d="M48.3 17.75V8l12.34 8.37a7.3 7.3 0 0 1 3.19 5.97v8.14a11 11 0 0 0-4.94-6.47z"/><path fill="url(#dl5tl1bs4)" d="M60.8 44.4V51a32 32 0 0 0-6.73-5.05l-5.22-2.94a8.6 8.6 0 0 1-3.2-3.16 4.5 4.5 0 0 1-.62-2.27v-7.74a14 14 0 0 0 4.67 4.6l5.92 3.55q2.14 1.29 3.86 3.1c.84.9 1.31 2.08 1.31 3.3"/><path fill="#fff" d="M132.53 9.82H155v7.55h-14.05v8.4h10.72v7.54h-10.72v9.23H155v7.55h-22.47zm-29.14 27.69h8.28c0 2.8 2.57 4.19 5.07 4.19 2.42 0 4.96-1.12 4.96-3.88 0-1.45-1.07-2.61-2.19-3.4-1.59-1.28-3.52-2.2-5.3-3.17-3.2-1.88-6.48-3.65-8.35-7.08a9.8 9.8 0 0 1 .07-8.42c2.03-4.23 6.6-6.64 11.11-6.64q2.55 0 4.71.9c4.08 1.52 7.43 5.24 7.43 9.89h-8.4c0-2.12-1.8-3.36-3.74-3.36-1.97 0-3.8 1.22-3.8 3.38q0 1 .48 1.73c.92 1.24 2.33 2.06 3.62 2.8 3.25 1.77 6.83 3.52 9.55 6.13q1.39 1.28 2.23 3.02c.63 1.24.95 2.61.9 4a11.3 11.3 0 0 1-3.92 8.31 14 14 0 0 1-9.36 3.47q-2.67 0-5.2-.9c-4.4-1.73-8.15-5.9-8.15-10.97M76.75 9.82h12.49q2.75 0 5.16 1.2 2.46 1.1 4.25 3.1a15.6 15.6 0 0 1 2.83 16.08c-.64 1.7-1.6 3.27-2.83 4.61a13 13 0 0 1-9.41 4.37h-4.16v10.9h-8.33zm8.33 8.4V30.8h3.5c3.07 0 5.65-3.5 5.65-6.34 0-2.97-2.5-6.25-5.66-6.25z"/><defs><linearGradient id="al5tl1bs4" x1="57.94" x2="45.53" y1="24.06" y2="25.04" gradientUnits="userSpaceOnUse"><stop stop-color="#007FC6"/><stop offset="1" stop-color="#052668"/></linearGradient><linearGradient id="bl5tl1bs4" x1="63.83" x2="50.19" y1="31.65" y2="32.27" gradientUnits="userSpaceOnUse"><stop stop-color="#BF7002"/><stop offset="1" stop-color="#E9D18E"/></linearGradient><linearGradient id="cl5tl1bs4" x1="48.41" x2="63.83" y1="20.03" y2="20.69" gradientUnits="userSpaceOnUse"><stop stop-color="#CE8D24"/><stop offset=".53" stop-color="#F7D45E"/><stop offset="1" stop-color="#CF8E1C"/></linearGradient><linearGradient id="dl5tl1bs4" x1="45.03" x2="60.57" y1="41.11" y2="41.52" gradientUnits="userSpaceOnUse"><stop stop-color="#006DC6"/><stop offset=".48" stop-color="#56BEE5"/><stop offset="1" stop-color="#2F8ECE"/></linearGradient></defs></svg>