<svg xmlns="http://www.w3.org/2000/svg" width="200" height="80" viewBox="0 0 200 80"><path fill="#fff" d="M115.77 35.27c1.15-1.85 3.19-3 5.96-3 5.1 0 9.02 4.4 9.02 9.72 0 5.63-3.7 9.74-9.02 9.74-2.77 0-4.8-1.04-5.96-2.78v2.33h-4.06V23.17h4.06zm-.5 6.72c0 3.48 2.47 5.97 6.13 5.97 3.29 0 5.65-2.49 5.66-5.97 0-3.58-2.36-5.95-5.66-5.95-3.66 0-6.14 2.55-6.14 5.95m22.96-18.81h-4v28.1h4zm6.77 6.1a2.9 2.9 0 1 0 .04-5.81 2.9 2.9 0 0 0-.04 5.8m14.72 22.45A9.7 9.7 0 0 0 168 46.8l-2.84-1.85a5.9 5.9 0 0 1-5.45 3.19c-2.89 0-5.51-2.15-5.51-6.15 0-4.2 2.62-6.13 5.5-6.13 2.15 0 3.9.88 5.46 2.73l2.5-2.25a9.57 9.57 0 0 0-14.61-1.24 9.4 9.4 0 0 0-2.7 6.9c0 6.15 4.63 9.73 9.37 9.73M143.1 32.86h3.67v18.42h-3.67zM98.4 51.54q2.95.01 4.8-2.6v2.34h3.8V32.87h-3.9v10.64c0 2.7-1.64 4.45-4.3 4.45-2.26 0-3.48-1.97-3.48-4.45V32.86h-4v11.28c0 4.3 2.67 7.4 7.07 7.4M72.78 35.27c1.67-1.85 3.7-3 6.37-3 5.29 0 9.1 4.07 9.1 9.73 0 5.34-3.81 9.74-9.1 9.74a8.4 8.4 0 0 1-6.37-2.78v8.9h-3.89v-25h3.89zM72.61 42c0 3.48 2.25 5.97 6.03 5.97 3.58 0 5.8-2.49 5.8-5.97 0-3.4-2.22-5.95-5.8-5.95-3.78 0-6.03 2.55-6.03 5.95"/><path fill="#0038DF" d="M56.62 32.29A12.28 12.28 0 0 1 39.6 43.66a12.3 12.3 0 0 1-4-20.06 12.32 12.32 0 0 1 21.02 8.69m-14.1 26.88A6.2 6.2 0 0 1 38.17 61a6.2 6.2 0 0 1-6.15-6.2 6.17 6.17 0 0 1 6.15-6.1 6.2 6.2 0 0 1 6.15 6.1 6.2 6.2 0 0 1-1.8 4.37"/></svg>