<svg xmlns="http://www.w3.org/2000/svg" width="132" height="60" viewBox="0 0 132 60"><path fill="#fff" d="M78.99 25.66c.94-1.53 2.62-2.49 4.9-2.49 4.21 0 7.43 3.65 7.43 8.07 0 4.66-3.04 8.07-7.42 8.07-2.29 0-3.96-.86-4.91-2.3v1.93h-3.35V15.63H79zm-.42 5.58c0 2.89 2.04 4.94 5.05 4.94 2.71 0 4.66-2.05 4.66-4.94 0-2.97-1.94-4.94-4.66-4.94a4.8 4.8 0 0 0-5.05 4.94m18.91-15.6h-3.29v23.3h3.29zm5.58 5.05a2.4 2.4 0 0 0 2.22-1.47 2.42 2.42 0 0 0-1.74-3.3 2.4 2.4 0 0 0-2.46 1.04 2.42 2.42 0 0 0 1.06 3.55q.44.19.92.18m12.12 18.62a8 8 0 0 0 6.82-4.08l-2.34-1.54a4.9 4.9 0 0 1-4.49 2.64c-2.37 0-4.53-1.77-4.53-5.1 0-3.48 2.16-5.08 4.53-5.08 1.77 0 3.2.73 4.49 2.27l2.06-1.87a7.9 7.9 0 0 0-9.45-2.78 7.8 7.8 0 0 0-4.8 7.48c0 5.09 3.8 8.06 7.7 8.06M101.5 23.66h3.02v15.28h-3.02zm-36.83 15.5q2.44 0 3.96-2.16v1.94h3.13V23.67h-3.21v8.83c0 2.24-1.35 3.68-3.54 3.68-1.86 0-2.86-1.62-2.86-3.68v-8.84h-3.3v9.36c0 3.56 2.2 6.14 5.82 6.14m-21.09-13.5a6.8 6.8 0 0 1 5.25-2.49c4.35 0 7.49 3.38 7.49 8.08 0 4.42-3.14 8.07-7.5 8.07a7 7 0 0 1-5.24-2.3v7.38h-3.2V23.66h3.2zm-.14 5.58c0 2.89 1.86 4.94 4.97 4.94 2.95 0 4.78-2.05 4.78-4.94 0-2.82-1.83-4.94-4.78-4.94-3.11 0-4.97 2.12-4.97 4.94"/><path fill="#0038DF" d="M30.27 23.2a10.3 10.3 0 0 1-6.25 9.41 10.1 10.1 0 0 1-13.25-5.5 10.3 10.3 0 0 1 2.2-11.12 10.1 10.1 0 0 1 14.33 0 10.2 10.2 0 0 1 2.97 7.2M18.66 45.47A5 5 0 0 1 15.08 47a5.1 5.1 0 0 1-5.06-5.13 5.13 5.13 0 0 1 5.06-5.07 5.07 5.07 0 0 1 3.58 8.68"/></svg>