<svg width="230" height="100" viewBox="0 0 230 100" xmlns="http://www.w3.org/2000/svg"><path fill-rule="evenodd" clip-rule="evenodd" d="m101.764 33.6701 7.628-9.1726h-6.23l-5.3328 6.8169V18h-4.5733v26.0766h4.5733v-8.0422l6.5488 8.0422h6.23l-8.844-10.4065Zm-41.39 10.4058v-7.5848h3.2876l5.6951 7.5848h5.8159l-6.8773-9.1553c2.14-1.5359 3.5465-4.0383 3.5465-6.8771 0-4.651-3.7881-8.4305-8.4391-8.4305h-7.6796v24.4629h4.6509Zm0-19.8119h3.0287c2.0882 0 3.7968 1.6999 3.7968 3.7881s-1.7086 3.7967-3.7968 3.7967H60.374V24.264Zm102.9 8.3092v11.5023h-4.445V24.4966h4.445v.7248s1.596-1.208 3.779-1.208c4.72 0 7.947 3.8399 7.947 8.5598v11.5023h-4.444V32.5732c0-2.1572-1.484-3.9779-3.641-3.9779s-3.641 1.8207-3.641 3.9779Zm-76.9999-7.2048v-.8628h4.4439v19.5789h-4.4439v-.8715c-1.3375.8543-2.5369 1.3461-4.185 1.3461-5.0565 0-8.8964-4.6078-8.8964-10.2683 0-5.6606 3.8399-10.2685 8.8964-10.2685 1.6395 0 2.8475.4919 4.185 1.3461Zm-8.4994 8.9137c0 3.1064 1.8206 5.557 4.3144 5.557 2.4938 0 4.2541-2.4592 4.2541-5.557 0-3.0978-1.769-5.557-4.2541-5.557s-4.3144 2.4506-4.3144 5.557Zm1.812 13.4607H151.75l-66.4164 5.7469-5.7469-5.7469Zm42.2663-23.2453v11.5023c0 2.1572-1.484 3.9779-3.641 3.9779s-3.641-1.8207-3.641-3.9779V24.4975h-4.445v11.5023c0 4.72 3.227 8.5599 7.947 8.5599 2.183 0 3.78-1.2081 3.78-1.2081v.7249h4.444v-19.579h-4.444Zm14.952 15.428c.577 0 1.087-.2157 1.484-.4832h.008l2.925 3.9002c-1.398.8284-3.115 1.234-4.349 1.234-3.313 0-6.609-2.606-6.609-6.9808V29.148h-2.348v-4.6509h2.348v-4.8754h4.444v4.8754h3.796v4.6509h-3.796v8.3787c0 1.8466 1.372 2.3988 2.097 2.3988Zm2.916-5.6425c0-5.7641 3.694-10.2856 8.837-10.2856l-.009-.0086c5.057 0 9.604 4.6251 8.508 11.6575H144.26c.587 4.4698 5.643 6.7479 8.681 2.2695l3.926 2.2693c-2.519 3.5811-5.523 4.3836-7.869 4.3836-4.643 0-9.277-4.2196-9.277-10.2857Zm12.719-2.5283h-8.007c.932-4.5819 7.136-4.8494 8.007 0ZM60.9712 82.3804 55 59.1428h5.3154L64.138 77.065l3.7881-17.8101h5.3931l3.788 17.8791 3.8226-17.9912h5.0652l-6.0057 23.2376h-5.7555L70.4803 65.951l-3.7104 16.4294h-5.7987Zm28.8699-.82c1.2512.8111 2.6577 1.2167 4.2109 1.2167v-.0087c1.3116 0 2.4851-.3192 3.5292-.9491 1.0441-.6299 1.8207-1.4669 2.3298-2.511l.362 3.0632h3.901v-18.716h-3.901l-.3965 3.1323c-.4832-1.0959-1.2512-1.9588-2.2953-2.606-1.0441-.6471-2.2176-.9664-3.5292-.9664-1.5618 0-2.9684.4142-4.2281 1.2426-1.2599.8283-2.2609 1.976-2.9857 3.4429-.7334 1.4669-1.0959 3.1755-1.0959 5.1169 0 1.9415.3711 3.6501 1.1132 5.117.742 1.4755 1.7344 2.6145 2.9856 3.4256Zm8.5425-4.5129c-.8715 1.0268-1.9759 1.5446-3.3134 1.5446-1.3547 0-2.4679-.5091-3.3308-1.5446-.8628-1.0268-1.2942-2.3729-1.2942-4.0211 0-1.6481.4314-2.9942 1.2942-4.0383.8629-1.0354 1.9933-1.5618 3.3308-1.5618s2.4419.5177 3.3134 1.5618c.8716 1.0441 1.3117 2.3902 1.3117 4.0383 0 1.6482-.4401 2.9856-1.3117 4.0211Zm8.7144 5.333V56.5197h4.557v25.8608h-4.557Zm7.497-25.8608v25.8608h4.557V56.5197h-4.557Zm15.948 26.3352c-1.942 0-3.616-.397-5.022-1.1995-1.407-.8024-2.494-1.9414-3.262-3.4256-.768-1.4842-1.147-3.2186-1.147-5.2118 0-1.9933.379-3.6156 1.147-5.0997.768-1.4842 1.812-2.6491 3.149-3.4947 1.338-.8456 2.856-1.2771 4.556-1.2771 1.701 0 3.193.4142 4.479 1.2425 1.286.8284 2.296 1.9761 3.02 3.443.725 1.4669 1.096 3.1754 1.096 5.117v1.3115h-12.823c.362 3.1582 2.097 4.7373 5.212 4.7373 2.062 0 3.883-.9233 5.462-2.7699l1.967 3.3911c-.992 1.0442-2.174 1.8466-3.529 2.4075-1.363.5609-2.795.837-4.296.837l-.009-.0086Zm-.622-16.0239c-1.113 0-2.036.3797-2.753 1.1304-.716.7507-1.181 1.8208-1.397 3.2014h8.266c-.172-1.3806-.612-2.4507-1.329-3.2014-.716-.7507-1.648-1.1304-2.787-1.1304Zm12.585 8.9902c0 4.6337 2.02 6.9549 6.049 6.9549 1.89 0 3.495-.4228 4.806-1.2771l-.871-4.185c-1.07.8284-2.123 1.2425-3.167 1.2425-1.51 0-2.261-.9837-2.261-2.9511v-8.0161h6.006v-3.9349h-6.006v-4.6596h-4.556v4.6596h-2.985v3.9349h2.985v8.2319Z" fill="#fff"/></svg>