<svg xmlns="http://www.w3.org/2000/svg" width="200" height="60" viewBox="0 0 200 60"><path fill="#fff" fill-rule="evenodd" d="m90.3 17.6 5.59-6.8h-4.57l-3.91 5.05V6h-3.36v19.3h3.36v-5.95l4.8 5.95h4.57zm-30.36 7.7v-5.62h2.41l4.18 5.62h4.26l-5.04-6.78a6.3 6.3 0 0 0 2.6-5.09 6.2 6.2 0 0 0-6.19-6.24h-5.63v18.1zm0-14.66h2.22a2.8 2.8 0 0 1 0 5.61h-2.22zm75.46 6.14v8.52h-3.26V10.8h3.26v.54s1.17-.89 2.77-.89c3.46 0 5.83 2.84 5.83 6.33v8.52h-3.26v-8.52c0-1.6-1.09-2.94-2.67-2.94s-2.67 1.35-2.67 2.94m-56.47-5.33v-.64h3.26v14.5h-3.26v-.65a5.3 5.3 0 0 1-3.06 1c-3.71 0-6.53-3.42-6.53-7.6 0-4.2 2.82-7.6 6.53-7.6 1.2 0 2.08.36 3.06 1m-6.23 6.6c0 2.3 1.34 4.11 3.17 4.11s3.11-1.82 3.11-4.11-1.3-4.11-3.11-4.11c-1.83 0-3.17 1.81-3.17 4.1M74.03 28h52.92l-48.7 4.25zm31-17.2v8.51c0 1.6-1.1 2.94-2.67 2.94-1.59 0-2.67-1.34-2.67-2.94V10.8h-3.26v8.51c0 3.5 2.36 6.33 5.82 6.33 1.6 0 2.78-.89 2.78-.89v.54h3.25V10.8zm10.96 11.42c.42 0 .8-.16 1.09-.36l2.15 2.88a7 7 0 0 1-3.19.92 4.93 4.93 0 0 1-4.85-5.17v-6.25h-1.72V10.8h1.72V7.2h3.26v3.6h2.79v3.45h-2.79v6.2c0 1.37 1 1.78 1.54 1.78m2.14-4.18c0-4.27 2.7-7.61 6.48-7.61 3.7 0 7.04 3.41 6.23 8.62h-9.38c.43 3.3 4.14 5 6.36 1.68l2.88 1.68c-1.84 2.65-4.05 3.24-5.77 3.24-3.4 0-6.8-3.12-6.8-7.61m9.33-1.87h-5.88c.69-3.4 5.24-3.59 5.88 0M60.38 53.64 56 36.44h3.9l2.8 13.27 2.78-13.18h3.95l2.78 13.23 2.8-13.31h3.72l-4.4 17.2H70.1l-2.75-12.17-2.72 12.16zm21.17-.6q1.38.9 3.09.9v-.01q1.44 0 2.59-.7a4.4 4.4 0 0 0 1.7-1.86l.27 2.27h2.86V39.79H89.2l-.3 2.31a4.2 4.2 0 0 0-1.67-1.92 5 5 0 0 0-2.6-.72q-1.7 0-3.1.92a6.3 6.3 0 0 0-2.18 2.55 8.4 8.4 0 0 0-.8 3.78q0 2.16.81 3.8a6.3 6.3 0 0 0 2.19 2.53m6.26-3.34a3 3 0 0 1-2.43 1.14q-1.48 0-2.44-1.14a4.5 4.5 0 0 1-.95-2.98q0-1.83.95-2.99a3 3 0 0 1 2.44-1.15q1.48 0 2.43 1.15.96 1.16.97 2.99 0 1.83-.97 2.98m6.4 3.94V34.51h3.34v19.13zm5.5-19.13v19.13h3.34V34.51zm11.69 19.48q-2.14 0-3.69-.88a6 6 0 0 1-2.39-2.54 8 8 0 0 1-.84-3.86 8 8 0 0 1 .84-3.77 6.5 6.5 0 0 1 2.31-2.59q1.47-.93 3.34-.94a5.9 5.9 0 0 1 5.5 3.47q.8 1.63.8 3.78v.97h-9.4q.4 3.5 3.82 3.5 2.28 0 4.01-2.04l1.44 2.5a7.5 7.5 0 0 1-2.58 1.8q-1.5.6-3.16.61m-.46-11.85q-1.23 0-2.02.83a4.3 4.3 0 0 0-1.02 2.37h6.06a4 4 0 0 0-.97-2.37 2.7 2.7 0 0 0-2.05-.83m9.23 6.65q0 5.15 4.44 5.15 2.07 0 3.52-.95l-.64-3.1q-1.17.92-2.32.92-1.65 0-1.66-2.18V42.7h4.4v-2.92h-4.4v-3.44h-3.34v3.44h-2.19v2.92h2.2z"/></svg>