<svg xmlns="http://www.w3.org/2000/svg" width="620" height="468" viewBox="0 0 620 468"><path d="M0 0h620v468H0z"/><g fill="#F23645" filter="url(#azzuhtaal)"><path d="M63.55 264.27h2.49v3h-4.88v-.17h-.61v-40.45H57.6v-3h2.94v-17.68h3zM102.58 246.55h2.49v3h-4.88v-.19h-.61v-47.82h-2.94v-3h2.94v-9.42h3zM128.3 274.05h2.49v3h-4.88v-.2h-.61v-55.8h-2.94v-3h2.94v-1.43h3zM141.6 333.46h2.5v3h-4.88v-.17h-.62v-55.75h-2.93v-3h2.94v-2.38h3zM168.22 292.64h2.49v3h-4.88v-.17h-.61v-17.59h-2.94v-3h2.94v-40.52h3zM180.64 318.36h2.49v3h-4.88v-.17h-.62v-22.9h-2.93v-3h2.94v-35.2h3zM246.27 213.7h2.5v3h-4.88v-.18h-.62v-53.95h-2.93v-3h2.93v-4.16h3zM270.05 200.65H272v58.28h2.49v3h-4.88v-.17H269v-58.28h-2.94v-3h4zM348.11 270.73h1.95V329h2.49v3h-4.88v-.17h-.61v-58.28h-2.94v-3h4zM298.61 289.98h2.5v3h-4.89v-.17h-.61v-35.22h-2.93v-3h2.93v-22.9h3zM324.33 318.36h2.5v3h-4.88v-.17h-.62v-40.54h-2.93v-3h2.93v-17.57h3zM362.48 405.3h2.49v3h-4.88v-.18h-.61v-35.21h-2.94v-3h2.94V347h3zM389.98 375.13h2.49v3h-4.88v-.17h-.61V346.3h-2.94v-3h2.94v-26.45h3zM441.42 321.02h2.5v3h-4.88v-.17h-.62V278h-2.93v-3h2.93v-12.25h3zM520.37 170.23h2.49v3h-4.88v-.17h-.61v-36.1h-2.94v-3h2.94v-22.01h3zM532.79 192.4h2.49v3h-4.88v-.17h-.61v-9.49h-2.94v-3h2.94v-48.62h3z"/></g><g fill="#089981" filter="url(#bzzuhtaal)"><path d="M79.34 222.11h-2.49v57.93h-3v-10.47h-2.93v-3h2.93v-47.29h1.5v-.17h4zM118.37 223.89h-2.49v57.93h-3v-26.44h-2.94v-3h2.94v-31.32h1.5v-.18h4zM158.29 281.52h-2.5v57.07h-1.94v.17h-3.99v-3h2.94V278.7h1.5v-.19h3.99zM197.32 299.28h-2.5v57.07h-3v-27.33h-2.93v-3h2.94v-29.55h1.5v-.19h3.99zM209.74 257.61h-2.5v57.93h-3v-19.77h-2.93v-3h2.94v-37.99h1.5v-.17h3.99zM223.04 219.45h-2.49v57.93h-3v-22.43h-2.93v-3h2.93v-35.33h1.5v-.17h4zM262.07 205.28h-2.5v58.8h-3v-40.53h-2.92v-3h2.93v-18.12h1.5v-.15h3.99zM288.68 260.27h-2.49v58.8h-3V267.9h-2.93v-3h2.93v-7.48h1.5v-.15h4zM313.52 283.37h-2.5v58.76h-3v-46.7h-2.93v-3h2.94v-11.91h1.5v-.15h4zM340.13 275.35h-2.5v58.77h-3v-10.34h-2.93v-3h2.94V272.5h1.5v-.15h3.99zM380.05 351.64h-2.5v58.77h-1.94v.16h-3.99v-3h2.94V348.8h1.5v-.15h3.99zM405.77 324.14h-2.5v58.77h-1.94v.17h-3.99v-3h2.94v-58.8h1.5v-.14h3.99zM549.47 168.02h-2.5v58.77h-1.94v.17h-3.99v-3h2.94v-58.79h1.5v-.15h3.99zM561.89 106.82h-2.5v58.77h-1.94v.16h-3.99v-3h2.94v-58.78h1.5v-.15h3.99zM419.08 301.08h-2.5v58.77h-3V319.2h-2.93v-3h2.94v-17.98h1.5v-.15h3.99zM431.5 288.66H429v58.77h-3V298.8h-2.93v-3H426v-10h1.5v-.15h4zM458.1 300.22h-2.49v58.74h-3v-12.23h-2.93v-3h2.93v-46.36h1.5v-.15h4zM470.52 242.53h-2.49v58.74h-3v-6.01h-2.93v-3h2.93v-52.58h1.5v-.15h4zM483.83 216.8h-2.5v58.75h-3v-41.5h-2.93v-3h2.94v-17.1h1.5v-.14h3.99zM496.25 156.49h-2.5v58.74h-3v-4.24h-2.93v-3h2.94v-54.35h1.5v-.15h3.99zM510.44 141.44h-2.49v58.71h-3V155.1h-2.93v-3h2.93V138.6h1.5v-.15h4zM236.35 165.34h-2.5v57.93h-3v-6.46h-2.93v-3h2.94v-51.3h1.5v-.17h3.99zM91.76 204.38h-2.49v57.04h-3V218.3h-2.93v-3h2.93v-13.73h1.5v-.19h4z"/></g><defs><filter id="azzuhtaal" width="505.67" height="324.34" x="43.61" y="97.95" color-interpolation-filters="sRGB" filterUnits="userSpaceOnUse"><feFlood result="BackgroundImageFix"/><feColorMatrix in="SourceAlpha" result="hardAlpha"/><feGaussianBlur stdDeviation="7"/><feColorMatrix values="0 0 0 0 1 0 0 0 0 0.129412 0 0 0 0 0.2 0 0 0 1 0"/><feBlend in="SourceGraphic"/></filter><filter id="bzzuhtaal" width="530.97" height="346.76" x="50.92" y="83.82" color-interpolation-filters="sRGB" filterUnits="userSpaceOnUse"><feFlood flood-opacity="0" result="BackgroundImageFix"/><feColorMatrix in="SourceAlpha" result="hardAlpha"/><feGaussianBlur stdDeviation="10"/><feColorMatrix values="0 0 0 0 0 0 0 0 0 0.72549 0 0 0 0 0.6 0 0 0 1 0"/><feBlend in="SourceGraphic"/></filter></defs></svg>