<svg width="200" height="80" viewBox="0 0 200 80" xmlns="http://www.w3.org/2000/svg"><path d="M188.5 58H183l-20-19.98h23v4L172.5 42l16 16ZM186 22h-36v36h4V26h32v-4Z" fill="#001EFF"/><path d="M20.38 49H24l-4.01-8.07.13-.04c2.06-.59 3.22-2.23 3.2-4.51-.03-3.32-2.08-5.22-5.63-5.22L11 31v18h3v-8h3l3.38 8ZM14 39.02V34h3c1.98 0 3.13.63 3.13 2.37 0 1.88-1.05 2.65-3.62 2.65H14ZM37 41v-3h-6v-4h8v-3H28v18h11v-3h-8v-5h6Zm16-3h-6v-4h8v-3H44v18h3v-8.01h6V38Zm6-7v18h3V31h-3Zm28 0v18h3V31h-3Zm20 0H94v3h5v15h3V34h5v-3Zm3 0v18h4V31h-4Zm-32 0v13h-.05L71 31h-3.5v18h3l.13-13.23h.05l3.95 6.92L78 49h3V31h-3Zm50.5 0-3.97 14.5h-.03l-4-14.5H117l5.5 18h4l5.5-18h-3.5Z" fill="#fff"/></svg>