<svg xmlns="http://www.w3.org/2000/svg" width="200" height="80" viewBox="0 0 200 80"><path fill="#001EFF" d="M175.63 40.93v5.54a14 14 0 0 0 .28 3.07v.15a25 25 0 0 1-6.93 1.13c-8.06 0-13.28-4.75-13.28-12.05 0-7.44 4.94-12.16 12.57-12.16 2.32 0 4.67.43 6.15 1.12v4.82h-.15a8.8 8.8 0 0 0-6.06-2.22c-4.82 0-7.63 3-7.63 8.29 0 5.46 3.05 8.5 8.37 8.5q1.07.02 2.12-.21v-5.78q-2.21-.04-4.36.38h-.16v-4.46h.16q2.28.43 4.6.38H176v.16c-.24.62-.37 1.9-.37 3.34M144.22 47h-2.63v-6.79h2.63c2.47 0 3.8.16 5.03.44h.16v-4.57h-.15c-1.24.28-2.56.44-5.04.44h-2.62v-6.1h2.68c2.85 0 4.98.31 6.3 1h.13v-4.44h-14.77v.16c.55.97.92 2.94.92 4.97v13.2c0 2.04-.37 4-.92 4.99v.15h15.57v-4.74h-.15q-2.67 1.31-7.14 1.3M124.7 36.8c-3-1.18-4.67-1.78-4.67-3.78 0-1.82 1.3-2.79 3.59-2.79 1.91 0 3.55.7 5.28 2.14h.16V27.6a14 14 0 0 0-5.29-1c-5.25 0-8.47 2.72-8.47 7.16 0 4.26 3 5.6 6.28 6.89 3 1.19 4.66 1.78 4.66 3.78 0 1.82-1.32 2.76-3.74 2.76-2.47 0-4.35-.85-6.58-2.88h-.15v5.13c2.06.92 4.3 1.39 6.55 1.38 5.35 0 8.65-2.72 8.65-7.12 0-4.27-3-5.61-6.27-6.9m-21.09 10.21h-2.11v-14.9c0-2.03.37-4 .92-4.97v-.16h-6.57v.16c.56.97.93 2.94.93 4.97v13.2c0 2.04-.37 4-.93 4.99v.15h15.05v-4.8h-.15q-2.7 1.36-7.14 1.35zm-72.76 7.66v.03h.74c.69.02 1.16-.38 1.16-1.06a1 1 0 0 0-.6-.95 1 1 0 0 0-.39-.06q-.45-.02-.91 0v.03q.1.18.1.4v1.19q0 .22-.1.42m.5-1.72.4.01a.6.6 0 0 1 .56.44q.05.12.03.25a.7.7 0 0 1-.19.52.7.7 0 0 1-.51.2h-.29zm2.7 0v-.03l-.6-.1v.03q.1.2.1.42v1.19q.01.2-.1.39v.05l.6.1v-.02a1 1 0 0 1-.1-.43v-1.2a1 1 0 0 1 .1-.4m1.84.7q.3.1.49.34h.02v-.42a1 1 0 0 0-.43-.24c-.68-.2-1.22.21-1.22.91a1.15 1.15 0 0 0 .89 1.19q.39.12.76-.04V55h-.02a.8.8 0 0 1-.67.1.8.8 0 0 1-.55-.8c0-.51.3-.77.73-.65m2.16.62q.26.06.47.24h.02v-.43l-1.71-.48v.43l.03.02a1 1 0 0 1 .47.03l.15.04v1.3a.6.6 0 0 1-.1.39v.03l.6.16v-.03a1 1 0 0 1-.1-.44v-1.3zm1.64.12v-.03l-.58-.15v.04q.1.2.09.43v.97q-.02.32.18.58t.52.32c.6.13 1-.17 1-.72v-.78a1 1 0 0 1 .1-.39v-.03l-.56-.11v.03q.1.2.1.43v.82q0 .51-.55.39a.5.5 0 0 1-.3-.18.5.5 0 0 1-.1-.35v-.89q0-.2.1-.38m2.05 2.41v.03l.56.07v-.03a1 1 0 0 1-.1-.42v-1l.58.84q.28-.37.55-.77v1q.01.2-.1.4v.03h.6v-.03a1 1 0 0 1-.1-.4v-1.2q0-.22.1-.42v-.03h-.48l-.54.78-.54-.84q-.27-.02-.52-.06v.04q.1.2.1.42v1.19q0 .22-.1.4m21.67-.6c.5-.01.8-.3.8-.72q-.02-.65-.8-.62h-.85v.03q.1.2.1.41v1.2q0 .22-.1.4v.04l.59.01v-.03a1 1 0 0 1-.1-.41v-.3zm-.35-1h.34q.39 0 .4.34 0 .32-.37.33h-.37zm2.78 1.45.67-.14v-.03q-.18-.16-.29-.39l-.76-1.47-.11.02-.7 1.72q-.1.27-.27.49v.03l.6-.07v-.03a.5.5 0 0 1 0-.42l.84-.14a.5.5 0 0 1 .03.41zm-.72-.65.26-.66.28.56zm2.58-1.56a.8.8 0 0 1 .67.1h.02v-.4q-.36-.15-.76-.03-.4.1-.66.44-.24.35-.23.77c0 .7.53 1.09 1.22.88a1 1 0 0 0 .43-.24v-.42h-.03a1 1 0 0 1-.48.34c-.43.13-.73-.15-.73-.66a.76.76 0 0 1 .55-.78m2.35-.6a1 1 0 0 1 .46-.03l.03-.01v-.43q-.85.22-1.71.48v.43h.02q.21-.18.47-.24l.16-.05v1.3q0 .23-.1.44v.03l.6-.16v-.03a1 1 0 0 1-.1-.38v-1.3zm2.12 1.28q.32-.05.54-.31.2-.26.2-.6v-.93q-.01-.23.08-.42v-.04l-.55.1v.04q.1.18.09.39v.91a.4.4 0 0 1-.22.44l-.16.05q-.55.12-.56-.39v-.8q0-.23.1-.44v-.03l-.6.14v.03q.12.18.1.39v.82c0 .52.4.78.98.65m1.56-.36v.04l.55-.06v-.04a1 1 0 0 1-.09-.4v-.99l.55.75h.03l.55-.8v1q0 .21-.1.4v.04h.59v-.03a1 1 0 0 1-.1-.41v-1.2q0-.21.1-.4v-.04h-.47l-.54.8-.55-.75-.51.05v.03q.1.19.09.4v1.19q0 .23-.1.42m-24.11 2.4-.54-.9-.56-.11v.03q.1.2.1.43v1.2q0 .2-.1.38v.04l.56.12v-.03a1 1 0 0 1-.1-.43v-1l.56.9h.02l.55-.69v1a1 1 0 0 1-.1.39v.03l.6.08v-.03a1 1 0 0 1-.1-.42v-1.2q0-.2.1-.4v-.03l-.45-.06zm2.54 1.26-.3-.02v-.57l.27.02q.21 0 .42.07h.03v-.42h-.03a1 1 0 0 1-.42.02l-.27-.02V57l.3.01q.27 0 .5.11h.04v-.4q-.67-.03-1.33-.09v.03q.1.2.1.42v1.19q0 .21-.1.4v.03q.7.07 1.4.09v-.44h-.03q-.28.12-.58.07m1.33-.36c0 .48.33.78.86.75a.8.8 0 0 0 .8-.53q.07-.16.07-.34v-.88q0-.22.1-.42v-.03l-.57.04v.04q.1.18.1.4v.9q0 .43-.48.45-.46.02-.46-.42v-.88q-.02-.22.09-.4v-.04h-.6v.03q.11.2.1.41zm3.13.43a1 1 0 0 1-.09-.4v-.98l.55.69h.03l.54-.89v.99a1 1 0 0 1-.09.43v.03l.58-.13v-.03a1 1 0 0 1-.09-.39v-1.2q0-.23.1-.43v-.03l-.5.11-.55.9-.54-.7-.5.07v.04q.1.18.1.4v1.2q0 .21-.1.41v.04l.56-.09zm19.3-6.67q.63.02 1.25.15v3.75c-5.27-1-10.55 2.9-15.82 1.9v-3.76c3.24.61 6.46-.62 9.7-1.43v-.38c-3 .75-5.99 1.86-8.98 1.53v-.35c0-.4-.49-.71-1.73-.36-.92.26-1.77.75-1.77 1.48v.48c-3.44.88-7.04.88-10.48 0v-.48c0-.73-.85-1.22-1.77-1.48-1.24-.35-1.73-.04-1.73.36v.35c-3 .32-6.01-.78-9-1.52v.38c3.24.81 6.48 2.04 9.72 1.42v3.75c-5.27 1-10.55-2.9-15.82-1.9v-3.75q.62-.13 1.25-.16a2 2 0 0 1-.23-.37q-.72.04-1.4.23v4.5c5.52-1.29 11.04 3.04 16.57 1.75v-.56q.56.03 1.05.32v1.27c4.28 1.4 8.89 1.4 13.17 0v-1.27q.49-.3 1.05-.33v.56c5.53 1.3 11.05-3.03 16.58-1.74v-4.5a8 8 0 0 0-1.39-.23q-.09.21-.21.39m-16.37 6.87a21 21 0 0 1-12.44 0v-3.75a21 21 0 0 0 12.44 0zm15.44-36.13a7 7 0 0 0-.69-.66l-.48.51-.5-.38.36-.6a14 14 0 0 0-1.2-.72l-.36.6-.56-.25.21-.68q-.6-.24-1.21-.38l-.24 2.05c.89.07 2.4.87 2.6.98a4 4 0 0 0 2.07-.47M63.66 40.7a.5.5 0 0 0-.58-.13c-.58.4.41 1.25 1.15.95q-.41-.32-.57-.82m-1.15 3.83c.13.14.41-.2.47-.41.05-.18-.14-.27-.14-.27q-.3-.2-.67-.22a1.2 1.2 0 0 0-.85.4 1.4 1.4 0 0 1 1.19.5m.08 1.85q.09.02.09-.03c.01-.2-.04-.63-.24-.64-.49-.03-.91.37-1.1.8q.61-.24 1.25-.13m1.73-3.4c.1-.12-.04-.27-.04-.27a1 1 0 0 0-.8-.41q-.36 0-.67.24a1.5 1.5 0 0 1 .92.7q.05.05.12.03a1 1 0 0 0 .47-.28m7 9.34c.26-.34.8-.92 1.1-1.01s.38-1.19-.05-1.05c-1.11.35-1.04 2.06-1.04 2.06m1.1-.1q.35-.21.75-.26c.77-.21.69-1.1-.1-.87-.4.13-.61.7-.64 1.14m-.65-1.86c.22-.1.18-1-.15-.84-.86.41-.69 1.84-.69 1.84q.3-.6.84-1m-5.23-11.47c.54.46.3.99.45.58.01-.04.26-1.04-.1-1.31-.43-.34-.71.34-.35.73m-2.51 1.7a1.1 1.1 0 0 0 1.36.21q-.53-.16-.86-.62c-.14-.22-.34-.24-.46-.17-.2.12-.11.52-.04.59m4.17-15.85c-1.27.3-1.4-.56-1.4-.56s-.46 1.06.52 1.28c.65.14 1.29-.53 2.46-.06 0 0-.31-.95-1.58-.66m-4.38 15.88v-.04c-.26-.75.51-1.08.87-.47q.19-.2.2-.48a1 1 0 0 0-.16-.3c0-.45-.2-.48-.03-.7l.3-.1c.1-.04.54-.13.8.09.2.17.33.25.46.15-.2-.48.12-1 .55-.86.02-.1-.02-.29-.4-.36l-.76-.08 1.73-1.52s-.2 1.05.43 1.66c0 0 .68-.85.85-1.3.18-.47.12-.55.12-.55.12.12 1.45.5 1.82-1 .21.4-.11 1.62-1.57 1.52q-.13.37-.34.71c.97.67 2.2 1.81 2.3 2.14 0 0-.1 1.09-2 1.42-.4.08-1.23.3-1.7.8-.7.77-.78 2.53-1.43 2.8.02 0 .44.12 1.02-.34l.3 1.07q-1.22-.03-2.32.56a1.3 1.3 0 0 1-.01-.89c.18-.43.35-1.6-.31-1.6-.05.25-.57.6-.83.51-.04.05-.15.26.15.7 0 0-.38-.3-.7-.16.04.3-.35.83-.66.74h-.03s-.26.34.1.82q.15.08.2.24.13.31.06.64c0 .07.2.28.6.15a.5.5 0 0 1-.4.34s.4 1.17 1.66.44a1 1 0 0 1-.49.62 1.46 1.46 0 0 0 1.91-.13q-.14.38-.43.66s1.66.09 2-.9a.7.7 0 0 1 0 .5q.39-.2.53-.61c.17-.48.43-.68.77-.71s.59-.6.53-.92a35 35 0 0 1-.22-2.74c0-.42 1.3-.34 2.5-.67q.34-.59.47-1.26c.1-.61-.36-1.29-.36-1.29 1.05.83.68 1.72.26 2.75-.16.4-.37.95-.22 1.25.49.87.64 1.9.43 2.88a1 1 0 0 0 .91-.3q.4.85.94 1.6c.09.86-.44 1.85-.72 1.72-.36-.18-1.05-.76-1.53-.35q.18.34.1.71a1 1 0 0 1 .37-.12c.4 0 .46.56.35.97q.25-.17.54-.17c.56 0 .82.67.24 1.1q.21.21.52.29c.43.06 1-.85 1.07-1.19q.05.5.03.99s1.16-.39.83-2.26c0 0 .47.08.46 1.09.27-.34.42-.77.42-1.2.02-.65-.14-.78-.05-1.14q.32.54.3 1.17a1.4 1.4 0 0 0 .26-1.03 1.6 1.6 0 0 0-.56-.95 1.5 1.5 0 0 1-.22-1.58 1 1 0 0 1-.62-.1c-.25-.14-.75-.93-.71-1.3.03-.38.34-.99.28-1.43.65 1.47 1.48 2.37 2.74 2.37 1.3 0 2.04-1.39 2.04-2.55 0-1.7-1.11-3.26-1.11-4.4 0-.51.37-1.3.84-1.3s-.16 1.06-.1 1.67q.06.5.38.92.06-.35.32-.6c-.03.97.59 1.52.5 2.59.56-.53.94-.95.76-1.97a1 1 0 0 0 .54.06c-.28-.33-.24-1.47-.44-1.95a.7.7 0 0 0 .62-.44c-.96-.2-.83-1.17-2.15-1.17-1.46 0-2.2.95-2.2 2.35s1.05 2.54 1.05 4.04c0 1.19-.46 1.66-1 1.66-.73 0-1.41-.73-1.98-2.72-.25-.95-.57-2.2-1.12-3.07a2 2 0 0 1-1.26-.54q-.14.51-.55.84s-1.51-.44-1.19-2c0 0 .08 1.23 1.16 1.58q.3-.48.43-1.04.58.77 1.51.95.32-.51.3-1.11c.46.27 1 .36 1.52.26 0 0 .32-.56.06-1.66.73.22 1.64-.08 1.97-.48a6 6 0 0 0-1.21-1.18s2.44.78 3.22-1.06a6 6 0 0 1-2.18-.72s2.33-.2 3.3-2.85q-1.21.3-2.45.11s2.6-.53 2.52-2.9c0 0-.4.52-1.74.66 0 0 2.21-2.45 1.14-4.42 0 0-.09 1.15-1.42 2.22 0 0 1.4-3.2-.28-5.3.04 1.27-.7 2.57-1.3 3.47 0 0 .2-2.22-.88-2.8 0 0 .13 2.68-2.07 6.22-.97 1.56-1.53 2.38-.78 3.84.39.75-.52 2.3-1.98 2.32-2.48.03.37-4.5.37-4.5q.15.4.47.67c.26-.51.35-1.1.26-1.66q-.05-.46-.21-.87.28.05.54-.1s-.14-1.04-.45-1.55q-.15-.3-.42-.47c.24.07 1.39.35 1.9-.29q.15-.22.16-.5s-.22.18-.83.17c0 0 1.65-.37 1.25-2.26q-.46.65-1.17.96c-.87.4-1.12.44-2.13.46a8 8 0 0 0-2.68-1c-.06 0-.63 0-.78.48 0 0-1-.28-1.47.5a1.4 1.4 0 0 0-.08 1.16c.06-.4.85-.73 1.24-.24.61.9.94.57 1.48 1q.29.21.47.54c-.55-.2-1.6.34-2.05.18a1 1 0 0 1-.48-.29 1.1 1.1 0 0 0 .55 1.12c.33.12.7.12 1.03 0l.36-.11c.68.3 1.4.4 1.81-.19a1 1 0 0 0 .1-.84s.32.34.12 1c-.12.4-.67.75-1.44.57a5 5 0 0 1-.6-.2c-.62.85-1.74.7-2.79.89q-.45-.43-1-.7c-1.5-.63-1.8-1.85-3.2-2.18-.52-.12-.53-.14-.7-.26-.31-.24-.65-.45-1-.23l-.18.16a.6.6 0 0 1 .45.27.6.6 0 0 1 .07.53l-.03.14a.6.6 0 0 1 .6.4.6.6 0 0 1-.22.69q.13.15.32.21c.34.1.61-.4 1.04-.3a.3.3 0 0 1 .19.14c.02.06.23.6-.03.95l-.1.18q-.04.1-.03.2c.59-.15.88.1.92.5.11-.03.17-.23.18-.35l.03-.72L66 28.76q-.19.26-.3.56.29-.14.6-.2l.1.12c-2.22 1.43-1.81 3.5-1.81 3.5a1.3 1.3 0 0 1 .9-.92 2.9 2.9 0 0 0-.29 2.65s.5-.7 1.64-.6q-.81.83-1.36 1.86c-.47.95-1.3 1.55-1.44 1.71-.15.16-.78.76-.9 1.16-.27.8-.2.78-.48 1.09a.8.8 0 0 0-.2.96 1 1 0 0 0 .28.3.6.6 0 0 1 .2-.47.5.5 0 0 1 .52-.08q.21.05.36.2m7.59-16.93c-.7.97-1.38-.1-1.38-.1v-.01c.3.07.32-.03.56-.11a.24.24 0 0 0 .22.37.2.2 0 0 0 .2-.15.2.2 0 0 0-.05-.25q.25.07.45.25M61 26.18q.29-.45.77-.64c.09-.07.1-.13.13-.26a.4.4 0 0 0-.17-.43l-.16-.05c-.38 0-.86.75-.57 1.37m3.14 1.96c-.35.03-.56.32-.82.6 1.43.2 1.29-.63.82-.6m-1.88-1.75a.3.3 0 0 0 .19-.31c0-.36-.41-.32-.41-.32-.5 0-.92.98-.43 1.68 0-.48.2-.9.65-1.05m-28.52-3.36a9 9 0 0 1 2.6-.98L36.11 20q-.62.14-1.21.38l.21.68q-.28.1-.55.26l-.37-.6c-.34.18-.87.5-1.2.72l.35.6-.49.38-.49-.52q-.36.3-.68.65c.86.43 1.18.46 2.07.48m8.68 18.47c.74.3 1.72-.54 1.14-.95a.5.5 0 0 0-.57.13q-.16.5-.57.82m2.92 2.53a1.2 1.2 0 0 0-.86-.4q-.37 0-.67.21s-.18.1-.14.27c.06.2.34.55.47.41a1.4 1.4 0 0 1 1.2-.5m0 2.46c-.2-.42-.61-.82-1.1-.79-.22.01-.27.43-.24.64q0 .05.09.03.64-.12 1.25.12m-2.53-3.22q.08.02.11-.02a1.5 1.5 0 0 1 .92-.71q-.3-.23-.66-.24a1 1 0 0 0-.8.4s-.14.16-.05.29q.2.22.48.28m-8.52 6.98c-.43-.13-.33.96-.05 1.05.28.08.84.67 1.09 1 0 0 .07-1.7-1.04-2.05m-.7.83c-.78-.23-.87.66-.1.87q.4.05.74.27c-.03-.43-.24-1.01-.65-1.14m2.13.26s.17-1.42-.7-1.84c-.32-.15-.36.75-.15.85q.54.4.85 1m4.03-13.2c-.35.27-.1 1.28-.09 1.32.15.4-.09-.13.44-.59.38-.38.11-1.06-.34-.72M42.58 40c-.12-.08-.31-.05-.45.16q-.34.46-.87.63a1.1 1.1 0 0 0 1.37-.2c.08-.07.15-.47-.04-.59zM36.9 25.4c1.17-.48 1.81.2 2.46.05.97-.22.5-1.28.5-1.28s-.11.85-1.38.56-1.58.66-1.58.66m6.3 14.97a.53.53 0 0 1 .7.28q.05.13.04.27a1 1 0 0 0 .28-.3.84.84 0 0 0-.2-.97c-.28-.31-.22-.29-.47-1.09-.13-.4-.76-1-.91-1.16s-.98-.76-1.44-1.7a8 8 0 0 0-1.36-1.87c1.13-.09 1.64.6 1.64.6a2.9 2.9 0 0 0-.3-2.65 1.2 1.2 0 0 1 .88.92s.4-2.07-1.82-3.5l.11-.12q.32.06.6.2-.1-.3-.3-.56c.44-.52.94-1.12 1.06-1.29l.03.73c0 .12.06.31.18.35.04-.4.33-.66.91-.51.02-.06.02-.18-.12-.37-.28-.37-.05-.9-.03-.95a.3.3 0 0 1 .18-.14c.44-.1.7.4 1.05.3a.6.6 0 0 0 .31-.22.6.6 0 0 1-.22-.7.6.6 0 0 1 .6-.4l-.02-.13a.6.6 0 0 1 .27-.72l.26-.08-.18-.16c-.35-.23-.7 0-1 .23-.18.12-.2.14-.7.26-1.41.33-1.7 1.55-3.2 2.19q-.55.25-1.02.69c-1.04-.18-2.16-.04-2.77-.9q-.3.14-.61.2c-.77.2-1.32-.15-1.44-.56-.2-.66.12-1 .12-1a1 1 0 0 0 .1.84c.4.6 1.12.49 1.8.19l.37.11c.33.12.7.12 1.03 0a1.1 1.1 0 0 0 .55-1.12q-.2.21-.47.3c-.44.15-1.5-.39-2.05-.2q.18-.31.47-.54c.53-.42.87-.1 1.48-.99.39-.49 1.17-.15 1.24.24a1.4 1.4 0 0 0-.08-1.17c-.47-.77-1.47-.49-1.47-.49-.15-.47-.7-.47-.78-.47-.86.03-2.25.76-2.68 1a4 4 0 0 1-2.13-.47 2.7 2.7 0 0 1-1.17-.96c-.39 1.9 1.24 2.26 1.25 2.26-.61 0-.83-.17-.83-.17q0 .28.16.5c.51.64 1.64.36 1.9.28-.07.04-.21.14-.42.48-.3.51-.45 1.54-.45 1.54q.26.16.54.1-.18.44-.23.9c-.08.56 0 1.14.26 1.65q.33-.27.47-.67s2.85 4.54.37 4.5c-1.46 0-2.37-1.56-1.98-2.31.75-1.46.2-2.28-.78-3.84-2.2-3.55-2.06-6.23-2.06-6.23-1.09.58-.89 2.8-.89 2.8-.6-.88-1.33-2.18-1.29-3.46-1.69 2.11-.27 5.32-.27 5.32-1.33-1.09-1.43-2.24-1.43-2.24-1.07 1.98 1.14 4.43 1.14 4.43-1.34-.15-1.75-.65-1.75-.65-.08 2.37 2.52 2.89 2.52 2.89q-1.22.19-2.44-.1c.97 2.64 3.3 2.84 3.3 2.84q-1.02.58-2.19.71c.8 1.86 3.24 1.08 3.24 1.08q-.7.5-1.22 1.19c.34.4 1.24.7 1.98.47-.27 1.1.05 1.66.05 1.66.53.1 1.07.01 1.53-.26q-.03.6.3 1.11a2.4 2.4 0 0 0 1.51-.9q.13.57.43 1.05c1.09-.35 1.16-1.58 1.16-1.58.33 1.56-1.19 2-1.19 2q-.41-.33-.55-.85c-.34.32-.79.52-1.25.55a11 11 0 0 0-1.12 3.07c-.57 1.99-1.26 2.72-1.98 2.72-.54 0-1.01-.5-1.01-1.66 0-1.5 1.06-2.65 1.06-4.04s-.75-2.35-2.21-2.35c-1.31 0-1.19.97-2.15 1.17a.8.8 0 0 0 .63.42c-.2.47-.17 1.62-.44 1.95a1 1 0 0 0 .54-.07c-.17 1.02.2 1.44.76 1.97-.08-1.06.52-1.62.5-2.59q.26.25.31.6.32-.4.39-.92c.05-.6-.56-1.66-.1-1.66s.84.78.84 1.3c0 1.13-1.11 2.7-1.11 4.4 0 1.16.73 2.55 2.04 2.55 1.26 0 2.08-.92 2.73-2.37-.06.43.25 1.06.29 1.42s-.47 1.17-.72 1.3a1 1 0 0 1-.62.1 1.5 1.5 0 0 1-.22 1.59q-.45.37-.56.95a1.4 1.4 0 0 0 .26 1.03q-.02-.64.3-1.17c.1.35-.07.47-.04 1.13q0 .67.42 1.2c-.02-1 .45-1.09.45-1.09-.32 1.86.84 2.25.84 2.25q-.02-.5.02-.99c.07.33.64 1.25 1.08 1.19q.3-.08.52-.3c-.59-.42-.33-1.1.23-1.1q.3 0 .54.17c-.1-.4-.05-.96.35-.96a1 1 0 0 1 .37.12q-.07-.38.1-.71c-.47-.41-1.17.17-1.53.35-.28.13-.8-.86-.72-1.71q.54-.77.93-1.62a1 1 0 0 0 .92.3 4.2 4.2 0 0 1 .43-2.9c.14-.29-.06-.85-.22-1.23-.42-1.04-.8-1.93.25-2.76 0 0-.46.68-.36 1.3q.12.66.47 1.26c1.21.32 2.5.24 2.5.67 0 .42-.14 2.34-.22 2.74-.06.31.15.86.53.9s.6.26.77.72q.15.41.53.62a.7.7 0 0 1 0-.51c.34.99 2 .9 2 .9q-.3-.27-.42-.66a1.46 1.46 0 0 0 1.9.13 1 1 0 0 1-.48-.62c1.26.73 1.66-.44 1.66-.44a.5.5 0 0 1-.4-.33c.39.13.59-.07.6-.15q-.08-.32.04-.64.05-.16.2-.24c.37-.47.12-.81.11-.82h-.03c-.3.1-.7-.44-.66-.73-.31-.14-.7.15-.7.15.3-.44.19-.65.16-.7-.26.1-.78-.25-.83-.5-.67 0-.5 1.16-.31 1.6q.15.44-.02.88a5 5 0 0 0-2.32-.56l.3-1.07c.59.47 1 .34 1.02.34-.65-.27-.73-2.03-1.43-2.8a3.3 3.3 0 0 0-1.7-.8c-1.9-.34-2-1.42-2-1.42.1-.31 1.33-1.46 2.3-2.14a4 4 0 0 1-.34-.71c-1.45.1-1.78-1.11-1.57-1.51.37 1.5 1.7 1.11 1.82 1 0 0-.05.07.12.54.17.46.86 1.3.86 1.3.63-.62.42-1.66.42-1.66.23.24 1.74 1.53 1.74 1.53l-.76.07c-.38.08-.42.26-.4.36.42-.14.75.38.54.86.13.1.26.02.47-.15.26-.21.69-.13.8-.1l.3.11c.16.24-.04.26-.03.7a1 1 0 0 0-.17.3q.01.28.2.48c.36-.6 1.13-.27.87.47v.04a.7.7 0 0 1 .37-.25m-7.5-16.94a.24.24 0 0 0 .16.4.2.2 0 0 0 .22-.12.2.2 0 0 0 0-.25c.23.08.24.18.55.1v.02s-.67 1.07-1.37.1q.2-.18.45-.25m9.37 1.36a.4.4 0 0 0-.27.16.4.4 0 0 0-.05.32c.03.13.04.19.13.26q.49.2.77.64c.3-.62-.18-1.38-.57-1.38m-1.73 3.95c-.27-.29-.47-.57-.82-.6-.47-.03-.62.8.82.6m1.7-1.3c.5-.71.08-1.69-.42-1.69 0 0-.42-.03-.41.32a.3.3 0 0 0 .2.32c.44.16.63.57.63 1.05m6.64 10.5a.5.5 0 0 1 .2-.39.5.5 0 0 1 .44-.05c-.15.57-.42.24-.64.44m-3.37-.6a.5.5 0 0 1 .42.15.5.5 0 0 1 .11.44c-.16-.2-.5.1-.53-.6m2.31.67c-.06-.15 0-.19 0-.19s.17.1.28.07a1 1 0 0 1 .53 0l-.02.07a.4.4 0 0 0-.34.14c-.08.18-.1.14-.17.15q-.08-.02-.07.15c0 .12-.04.23-.12.23q0-.3-.09-.63m3.24-2.34H52.8v-.8a.5.5 0 0 1 .3-.54.52.52 0 0 1 .72.32q.04.12.03.23zm-2.12-4.7.18.76q.33-.06.66-.08v-.77q.76-.05 1.53 0v.75q.33.02.67.08l.17-.75q.68.09 1.34.33l-.52 1.64-.5.56a5.7 5.7 0 0 0-3.85 0l-.5-.56-.52-1.64q.65-.23 1.33-.32zm.81 8.08c.32-.05.4-.24.55-.5l-.34-.2c-.14-.08-.1-.1-.22-.2q.3-.4.3-.89a1 1 0 0 0-.5-.24c.04-.1-.04.06.3-.56-.35-.06-.62-.15-.95-.04.03-.06.02-.05.24-.3q-.3-.3-.7-.3l.29-2.01a5.7 5.7 0 0 1 3.62 0l.62 4.09q-.55-.16-1.12-.2c-.92 0-1.5.48-1.5 1.27 0 .8.64 1.26 1.58 1.26q.7 0 1.37-.16l.06.4c-.81-.09-1.9 0-2.35-.04a7 7 0 0 1-.96-.24l.22-.18c-.2-.24-.35-.32-.52-.98zm-4.3-1.95a1 1 0 0 1 .66.27.4.4 0 0 0 .08-.24c.03-.24-.35-.42-.35-.42a.6.6 0 0 1 .8.08c.12-.28-.34-.62-.45-.62a.7.7 0 0 1 .79-.02q.14.11.23.27a.66.66 0 0 1 .44-.75.7.7 0 0 0 .11.56q.1.16.24.28s.08-.42.34-.43q.2-.03.37.07a.8.8 0 0 0-.06.82.64.64 0 0 1 .74-.33q-.2.3-.26.66a.8.8 0 0 1 .6.07q-.03.27-.17.52c-.25.28-.55.13-.6.34q0 .2-.1.4c-.08.15-.51.04-.51.04a.2.2 0 0 0 .03.17q.21.06.29.18v.1c0 .2-.3.37-.42.37-.3 0-.54-.12-.55-.3 0-.18.4-.08.35-.28-.02-.1-.13-.1-.13-.1-.09.22-.74.17-.73.03q0-.54.12-1.07l-.2.1c-.09.05-.65-.11-.73.04 0 0 .42.06.47.32 0 .05.13.03.15.05s.12.14.02.56c-.08.35.33.14.33.34s-.4.3-.54.3c-.33.01-.65-.5-.12-.64a.2.2 0 0 0 .03-.17s-.43.1-.52-.04l-.11-.37c-.04-.08-.32-.11-.44-.24a.76.76 0 0 1-.2-.92m2.1 3.17c.23 0 .54-.44.5-.68a.4.4 0 0 0 .21.05c-.38 1.04-1.04 1.05-1.43 0a.4.4 0 0 0 .2-.05c-.03.25.28.68.52.68m0-.72c.54 0 .2.48 0 .48s-.53-.46 0-.46zm-2.18-1.24a.5.5 0 0 1 .45.08c.1.09.07.35.3.48a1 1 0 0 0 .32.7c.33.34.56 1.09 1.1 1.09.55 0 .79-.67 1.06-1.06.42-.17.36-.73.36-.73a.7.7 0 0 0 .23-.47s.21-.1.27-.11q.09-.02.13.06.15.15.32.26c-.09.14-.3.15-.51.1.04.32.23 1 .47 1.23a.6.6 0 0 1-.47-.02c.4.26.33 1.29-.05 1.76 0-.34-.07-.87-.46-1.04.5.7-.05 1.8-.78 1.94a1.3 1.3 0 0 0-.08-1.5c.7 1.26-.93 1.4-.51 2.38q-.2-.06-.37-.17c-.33-1 .2-2.04.2-2.04s-.78.87-.44 1.86c-.54-.49-.45-1.3-.1-1.75-.4.13-.54.64-.53 1.12-.87-1.07-.17-1.78.14-2.07-.32.03-.65.47-.82.82-.38-.67-.23-1.24.2-1.56a.7.7 0 0 1-.61 0c.5-.6.5-.9.52-1.04a.4.4 0 0 1-.42-.29q.02.01.08-.02zm-.47.32c0 .13-.07.3-.21.3-.06 0-.05 0-.06-.05-.04-.13-.36-.27-.47-.29a.6.6 0 0 1 .73.05zm-.42.47a.3.3 0 0 1-.28.08.5.5 0 0 0-.6-.18c.35-.48 1.08-.1.87.12zm-1.07.48c.08-.38.47-.4.73-.24a.2.2 0 0 1 0 .23.3.3 0 0 1-.29 0 .3.3 0 0 0-.45.01m1.22 1.93a.3.3 0 0 0 .26 0c-.32-.21-.47-.93-.54-1.23s-.27-.18-.44-.5c.32.04.47-.18.43-.4a.4.4 0 0 0 .34-.27q.16 0 .27-.11a.4.4 0 0 0 .12-.27c.07.13.16.35.14.4l-.41.59a.5.5 0 0 0 .38.23 1.6 1.6 0 0 0 .37 1.72 1.6 1.6 0 0 0 .7 1.14q.1.03.06.12c-.21.38-.5-.19-.88-.4a1 1 0 0 1-.47-.4.4.4 0 0 0 .33-.03c-.22-.02-.54-.31-.67-.58zm.73 3.86v.24a.7.7 0 0 0 0 .5.6.6 0 0 1-.34-.67c.12-.34.36-.12.34-.07m.53.35a1 1 0 0 0 0 .5c-.38-.1-.53-1-.15-1.02a.3.3 0 0 1 .2.14 1 1 0 0 0-.04.38m.37.36c-.27-.18-.28-.8 0-.8a.2.2 0 0 1 .23.1.2.2 0 0 1 0 .25c-.23.25-.23.42-.22.45m3.05-.63q-.14-.22-.15-.48c.03-.15.32-.41.4-.16a.53.53 0 0 0-.24.64m.4.1-.03.17-.1-.1c-.34-.52.08-.7.17-.7a.2.2 0 0 1 .1.1.6.6 0 0 0-.14.53m-.08-.94c.06-.23.37-.05.6.26.07.18.03 0-.23.07a.3.3 0 0 0-.3-.2zm.7.84c0-.02-.26.28-.23.46-.05-.03-.39-.4-.17-.72a.24.24 0 0 1 .25-.08l.08.04a.3.3 0 0 1 .08.3m2.74-.9q-.57.33-1.1.71c-.17.13-.33.5-.67.48a3 3 0 0 0-.92.02l.1-.23a.44.44 0 0 0-.11-.5c.57.04.87-.22 1.4-.62q.3-.24.32-.35c.04-.24-.24-.27-.45-1.2q.61-.13 1.24-.03.17.12.32.29l.04.2c.07.32.37.5.4.67.04.48-.23.36-.31.4q-.14.07-.26.16m.47.25q.08-.09.19.02c.13.15.06.04-.08.17a.7.7 0 0 0-.21.37c-.02-.02-.18-.22.1-.56m.09 1.13s-.17-.54.13-.82c.12-.1.26.04.3.2q-.2.12-.26.33c-.07.09-.05.07-.17.29m.45.17-.03.09s-.25-.42.04-.7a.2.2 0 0 1 .2-.08.2.2 0 0 1 .17.16c.03.31-.29.34-.38.53m2.58-1.54c-.07-.16-.25-.37-.41-.35.38.47.2 1.18-.1 1.38q0-.28-.1-.55c.07.36-.18.98-.72.98-1.12 0-.95 0-.89-.04a.5.5 0 0 0 .18-.42.4.4 0 0 0-.35-.32c-.08 0-.03.03-.08-.08l-.18-.21-.14-.24c-.02-.2.35-.12.77.31.1.1.44.05.6.05s.16-.19.22-.52c.04-.24.01-.38-.12-.84s-1.25-.05-1.7-.52q-.3-.33-.66-.61c-.83-.12-1.17 0-1.87.13-1.14.3-1.99.5-2 .5a.8.8 0 0 1-.24.57.4.4 0 0 0-.16-.35c.05.64-.25 1.19-.57 1.38a.4.4 0 0 0 .07-.4c0 .1-1.06 1.08-1.26 1.18a.3.3 0 0 1-.14.24.3.3 0 0 1-.27.04l.11-.12a.4.4 0 0 0-.07-.52.4.4 0 0 0-.53-.03.4.4 0 0 0-.3-.16.4.4 0 0 0-.3.16.3.3 0 0 0-.28-.12.3.3 0 0 0-.24.2c0-.3.1-.48.5-.44a1 1 0 0 1 .93-.1c.3-.19.66-.92.82-1.1q.32.13.67.13c-.16-.47-.17-.69 0-.9.49.1 1-.27 1.2-.56a1.7 1.7 0 0 0 .84-1.87c.22-.02.54.2 1.14.26s2.24-.13 2.92.19c.68.3 2.01.31 2.01-.73a.8.8 0 0 0-.25-.52.7.7 0 0 0-.54-.18c-.15 0-1.06.08-1.02.58a.4.4 0 0 1-.3-.41 7 7 0 0 1-1.92.3c-.7 0-1.3-.33-1.3-.97 0-.65.48-.99 1.22-.99.59 0 1.01.24 1.43.24.77 0 .42-.81.24-.89.63-.33 1 .5.85.73.97-.71 2.07.36 2 .89a1.4 1.4 0 0 0-.83-.32c-.45 0-.66.53-1.72 0 .06.27.44.4.44.4-1.1.25-1.03-.46-2.3-.44-.47 0-.59.14-.59.38 0 .4.76.55 1.6.2.47.21 1.29.29 1.82-.07a.7.7 0 0 0 .56-.2c1.9.17 1.49 2.68-.27 2.67q-.52 0-1-.14c.57.22.64 1.2 1.54 1.2s.97.56 1.02.9a.8.8 0 0 0-.56-.23 1.3 1.3 0 0 1 .6 1.27zm-4-5.6q-.33.13-.68.1c-.18 0-.34-.05-.34-.12 0-.13.69-.1 1.01.03m6.75 7.67c-.61-.1-1.36.35-1.36.35.31-1.37 1.15-1.5 1.3-1.57q-.07-.21-.06-.44.03-.18.1-.34a1.6 1.6 0 0 0-1.45-.33s.68-.97 1.35-.97q.59-.03 1.04.35c.04.02.1-.02.14-.03l.1-.4a1.7 1.7 0 0 0-1.08-.6s.59-.66 1.19-.67h.14l.03-.14a1.4 1.4 0 0 1-.9-.55l-.18-.11a1.1 1.1 0 0 1-.5-.86q-.02-.23.07-.44.1-.24.29-.45a1 1 0 0 0 .27-.5l.15-.48c.12-.35.5-.78.9-1.18l.08-.09.12-.11v-8h-.2a6 6 0 0 1-.92-.14l.38-.52q.15-.18.33-.34a.8.8 0 0 1 .18-.63.7.7 0 0 0 0-.6h-.04a1 1 0 0 0-.3.12q-.24.17-.53.2l-.18-.03a1 1 0 0 1-.47-.32l-.02-.03q-.08.07-.14.17c-.27.4-.13 1.11-.13 1.11-.17-.08-.86-.7-.8-1.44l-.13.2s-.43-.7-.36-1.16H46.05c.07.46-.36 1.15-.36 1.15l-.12-.2c.04.75-.64 1.37-.81 1.46 0 0 .14-.7-.14-1.11l-.14-.17-.02.02a1 1 0 0 1-.47.33l-.17.02q-.29-.02-.53-.2a1 1 0 0 0-.3-.12h-.04a.7.7 0 0 0 0 .6.7.7 0 0 1 .18.63q.19.16.34.35l.38.52q-.44.1-.92.14h-.2v8l.12.12.09.08c.4.41.78.83.9 1.2l.14.47q.04.3.27.51.18.2.29.45a1 1 0 0 1-.04.86q-.15.28-.4.43l-.18.11q-.34.44-.9.53l.02.14h.15c.6.01 1.18.67 1.18.67q-.65.1-1.07.6l.1.4c.04 0 .1.05.13.03q.46-.37 1.05-.34c.66 0 1.35.96 1.35.96a1.6 1.6 0 0 0-1.44.33l.1.34q0 .22-.07.45c.14.05.99.2 1.3 1.56 0 0-.75-.45-1.37-.34a12.4 12.4 0 0 0 8.88 7.06 12.4 12.4 0 0 0 8.88-7.07"/></svg>