<svg xmlns="http://www.w3.org/2000/svg" width="124" height="30" fill="none"><g clip-path="url(#aeo2m4kxl)"><path stroke="url(#beo2m4kxl)" stroke-width="4" d="M205.17 3.04c-90.6 6.78-189.3 1.37-249.03-8.62l-24.03 22.26c57.64 13.3 194.2 10.38 246.59 6.46z" opacity=".25"/><path stroke="url(#ceo2m4kxl)" stroke-width="3" d="M205.17 3.04c-90.6 6.78-189.3 1.37-249.03-8.62l-24.03 22.26c57.64 13.3 194.2 10.38 246.59 6.46z" opacity=".25"/><path stroke="url(#deo2m4kxl)" stroke-width="2" d="M205.17 3.04c-90.6 6.78-189.3 1.37-249.03-8.62l-24.03 22.26c57.64 13.3 194.2 10.38 246.59 6.46z" opacity=".25"/><path stroke="url(#eeo2m4kxl)" d="M205.17 3.04c-90.6 6.78-189.3 1.37-249.03-8.62l-24.03 22.26c57.64 13.3 194.2 10.38 246.59 6.46z" opacity=".25"/><path stroke="url(#feo2m4kxl)" stroke-width="4" d="M145.02-1.58C53.7.67-33.82-12.81-67.27-20.01L-105.7 2.56c66.75 11 179.24 14.22 225.03 13.44z" opacity=".25"/><path stroke="url(#geo2m4kxl)" stroke-width="3" d="M145.02-1.58C53.7.67-33.82-12.81-67.27-20.01L-105.7 2.56c66.75 11 179.24 14.22 225.03 13.44z" opacity=".25"/><path stroke="url(#heo2m4kxl)" stroke-width="2" d="M145.02-1.58C53.7.67-33.82-12.81-67.27-20.01L-105.7 2.56c66.75 11 179.24 14.22 225.03 13.44z" opacity=".25"/><path stroke="url(#ieo2m4kxl)" d="M145.02-1.58C53.7.67-33.82-12.81-67.27-20.01L-105.7 2.56c66.75 11 179.24 14.22 225.03 13.44z" opacity=".25"/></g><defs><linearGradient id="beo2m4kxl" x1="172.91" x2="107.96" y1="17.87" y2="-80.61" gradientUnits="userSpaceOnUse"><stop stop-color="#F2FF57"/><stop offset="1" stop-color="#1510FF" stop-opacity="0"/></linearGradient><linearGradient id="ceo2m4kxl" x1="172.91" x2="107.96" y1="17.87" y2="-80.61" gradientUnits="userSpaceOnUse"><stop stop-color="#F2FF57"/><stop offset="1" stop-color="#1510FF" stop-opacity="0"/></linearGradient><linearGradient id="deo2m4kxl" x1="172.91" x2="107.96" y1="17.87" y2="-80.61" gradientUnits="userSpaceOnUse"><stop stop-color="#F2FF57"/><stop offset="1" stop-color="#1510FF" stop-opacity="0"/></linearGradient><linearGradient id="eeo2m4kxl" x1="172.91" x2="107.96" y1="17.87" y2="-80.61" gradientUnits="userSpaceOnUse"><stop stop-color="#F2FF57"/><stop offset="1" stop-color="#1510FF" stop-opacity="0"/></linearGradient><linearGradient id="feo2m4kxl" x1="111.77" x2="59.44" y1="9.73" y2="-76.63" gradientUnits="userSpaceOnUse"><stop stop-color="#57FFC3" stop-opacity="0"/><stop offset="1" stop-color="#001AFF"/></linearGradient><linearGradient id="geo2m4kxl" x1="111.77" x2="59.44" y1="9.73" y2="-76.63" gradientUnits="userSpaceOnUse"><stop stop-color="#57FFC3" stop-opacity="0"/><stop offset="1" stop-color="#001AFF"/></linearGradient><linearGradient id="heo2m4kxl" x1="111.77" x2="59.44" y1="9.73" y2="-76.63" gradientUnits="userSpaceOnUse"><stop stop-color="#57FFC3" stop-opacity="0"/><stop offset="1" stop-color="#001AFF"/></linearGradient><linearGradient id="ieo2m4kxl" x1="111.77" x2="59.44" y1="9.73" y2="-76.63" gradientUnits="userSpaceOnUse"><stop stop-color="#57FFC3" stop-opacity="0"/><stop offset="1" stop-color="#001AFF"/></linearGradient></defs></svg>