<svg xmlns="http://www.w3.org/2000/svg" width="124" height="31" fill="none"><g clip-path="url(#aob3ut0hd)"><path stroke="url(#bob3ut0hd)" stroke-width="4" d="M205.17 3.04c-90.6 6.78-189.3 1.37-249.03-8.62l-24.03 22.26c57.64 13.3 194.2 10.38 246.59 6.46z" opacity=".25"/><path stroke="url(#cob3ut0hd)" stroke-width="3" d="M205.17 3.04c-90.6 6.78-189.3 1.37-249.03-8.62l-24.03 22.26c57.64 13.3 194.2 10.38 246.59 6.46z" opacity=".25"/><path stroke="url(#dob3ut0hd)" stroke-width="2" d="M205.17 3.04c-90.6 6.78-189.3 1.37-249.03-8.62l-24.03 22.26c57.64 13.3 194.2 10.38 246.59 6.46z" opacity=".25"/><path stroke="url(#eob3ut0hd)" d="M205.17 3.04c-90.6 6.78-189.3 1.37-249.03-8.62l-24.03 22.26c57.64 13.3 194.2 10.38 246.59 6.46z" opacity=".25"/><path stroke="url(#fob3ut0hd)" stroke-width="4" d="M145.02-1.58C53.7.67-33.82-12.81-67.27-20.01L-105.7 2.56c66.75 11 179.24 14.22 225.03 13.44z" opacity=".25"/><path stroke="url(#gob3ut0hd)" stroke-width="3" d="M145.02-1.58C53.7.67-33.82-12.81-67.27-20.01L-105.7 2.56c66.75 11 179.24 14.22 225.03 13.44z" opacity=".25"/><path stroke="url(#hob3ut0hd)" stroke-width="2" d="M145.02-1.58C53.7.67-33.82-12.81-67.27-20.01L-105.7 2.56c66.75 11 179.24 14.22 225.03 13.44z" opacity=".25"/><path stroke="url(#iob3ut0hd)" d="M145.02-1.58C53.7.67-33.82-12.81-67.27-20.01L-105.7 2.56c66.75 11 179.24 14.22 225.03 13.44z" opacity=".25"/></g><defs><linearGradient id="bob3ut0hd" x1="172.91" x2="107.96" y1="17.87" y2="-80.61" gradientUnits="userSpaceOnUse"><stop stop-color="#0019FF"/><stop offset="1" stop-color="#57FFC3" stop-opacity="0"/></linearGradient><linearGradient id="cob3ut0hd" x1="172.91" x2="107.96" y1="17.87" y2="-80.61" gradientUnits="userSpaceOnUse"><stop stop-color="#0019FF"/><stop offset="1" stop-color="#57FFC3" stop-opacity="0"/></linearGradient><linearGradient id="dob3ut0hd" x1="172.91" x2="107.96" y1="17.87" y2="-80.61" gradientUnits="userSpaceOnUse"><stop stop-color="#0019FF"/><stop offset="1" stop-color="#57FFC3" stop-opacity="0"/></linearGradient><linearGradient id="eob3ut0hd" x1="172.91" x2="107.96" y1="17.87" y2="-80.61" gradientUnits="userSpaceOnUse"><stop stop-color="#0019FF"/><stop offset="1" stop-color="#57FFC3" stop-opacity="0"/></linearGradient><linearGradient id="fob3ut0hd" x1="111.77" x2="59.44" y1="9.73" y2="-76.63" gradientUnits="userSpaceOnUse"><stop stop-color="#1510FF" stop-opacity="0"/><stop offset="1" stop-color="#F2FF57"/></linearGradient><linearGradient id="gob3ut0hd" x1="111.77" x2="59.44" y1="9.73" y2="-76.63" gradientUnits="userSpaceOnUse"><stop stop-color="#1510FF" stop-opacity="0"/><stop offset="1" stop-color="#F2FF57"/></linearGradient><linearGradient id="hob3ut0hd" x1="111.77" x2="59.44" y1="9.73" y2="-76.63" gradientUnits="userSpaceOnUse"><stop stop-color="#1510FF" stop-opacity="0"/><stop offset="1" stop-color="#F2FF57"/></linearGradient><linearGradient id="iob3ut0hd" x1="111.77" x2="59.44" y1="9.73" y2="-76.63" gradientUnits="userSpaceOnUse"><stop stop-color="#1510FF" stop-opacity="0"/><stop offset="1" stop-color="#F2FF57"/></linearGradient></defs></svg>