<svg xmlns="http://www.w3.org/2000/svg" width="620" height="468" viewBox="0 0 620 468"><path d="M0 0h620v468H0z"/><g filter="url(#asuvweoc4)"><path fill="#089981" d="M76 197h9v28h-9zM85 170h9v28h-9zM94 144h9v27h-9zM103 117h9v28h-9zM112 91h9v27h-9z"/><path fill="#F23645" d="M130 144h9v27h-9z"/><path fill="#089981" d="M197 277h1.2v69H197z"/><path fill="#089981" d="M193 277h9v27h-9zM233 331h1.2v67H233z"/><path fill="#089981" d="M229 331h9v27h-9zM238 304h9v28h-9zM247 277h9v28h-9zM256 250h9v28h-9zM265 224h9v27h-9zM274 197h9v27h-9zM283 171h9v27h-9zM292 144h9v28h-9zM301 117h9v28h-9zM376 277h1.2v64H376z"/><path fill="#089981" d="M372 277h9v27h-9zM381 250h9v28h-9zM417 302h9v28h-9zM426 276h9v28h-9zM475 357h1.2v73H475z"/><path fill="#089981" d="M471 357h9v26h-9zM480 330h9v28h-9zM489 304h9v27h-9zM498 277h9v28h-9zM507 250h9v28h-9zM520 224h1.2v71H520z"/><path fill="#089981" d="M516 224h9v27h-9zM525 198h9v27h-9zM534 171h9v28h-9zM552 117h9v28h-9zM543 144h9v28h-9zM561 91h9v27h-9zM570 64h9v28h-9zM579 38h9v27h-9z"/></g><g fill="#FF2133" filter="url(#bsuvweoc4)"><path d="M31 117h9v28h-9zM40 144h9v26h-9zM49 169h9v29h-9zM58 197h9v27h-9zM67 223h9v28h-9zM125 75h1.2v70H125z"/><path d="M121 117h9v28h-9zM139 170h9v28h-9zM152 157h1.2v67H152z"/><path d="M148 197h9v27h-9zM166 250h9v27h-9zM157 223h9v28h-9zM175 276h9v28h-9zM188 269h1.2v61H188z"/><path d="M184 303h9v27h-9zM206 256h1.2v74H206z"/><path d="M202 290h9v40h-9zM211 330h9v27h-9zM220 357h9v27h-9zM314 101h1.2v70H314z"/><path d="M310 144h9v27h-9z"/><path d="M318 170h9v28h-9zM327 197h9v28h-9zM340 174h1.2v77H340z"/><path d="M336 217h9v34h-9zM349 216h1.2v61H349z"/><path d="M345 250h9v27h-9zM354 276h9v28h-9zM363 303h9v28h-9zM394 226h1.2v78H394z"/><path d="M390 260h9v44h-9zM399 303h9v28h-9zM408 329h9v28h-9zM439 255h1.2v75H439z"/><path d="M435 304h9v26h-9zM444 329h9v28h-9zM453 356h9v28h-9zM462 383h9v27h-9z"/></g><defs><filter id="asuvweoc4" width="552" height="432" x="56" y="18" color-interpolation-filters="sRGB" filterUnits="userSpaceOnUse"><feFlood result="BackgroundImageFix"/><feColorMatrix in="SourceAlpha" result="hardAlpha"/><feGaussianBlur stdDeviation="10"/><feColorMatrix values="0 0 0 0 0.03 0 0 0 0 0.6 0 0 0 0 0.505 0 0 0 0.6 0"/><feBlend in="SourceGraphic"/></filter><filter id="bsuvweoc4" width="464" height="359" x="19" y="63" color-interpolation-filters="sRGB" filterUnits="userSpaceOnUse"><feFlood flood-opacity="0" result="BackgroundImageFix"/><feColorMatrix in="SourceAlpha" result="hardAlpha"/><feGaussianBlur stdDeviation="6"/><feColorMatrix values="0 0 0 0 0.95 0 0 0 0 0.210246 0 0 0 0 0.271892 0 0 0 0.8 0"/><feBlend in="SourceGraphic"/></filter></defs></svg>