<svg xmlns="http://www.w3.org/2000/svg" width="200" height="60" viewBox="0 0 200 60"><path fill="#fff" d="M118.93 19h4.09v21.82h-4.09zM152 28.2v-3.4h-4.22v-4.4h-4.09v16.08q.01 2.22 1.16 3.35 1.16 1.12 3.55 1.12h3.6v-3.38h-2.64q-.86 0-1.22-.36c-.22-.22-.36-.77-.36-1.4v-7.62zm-60.8 8.37 4.22-11.76h4.29l-6.1 16h-4.83l-6.1-16h4.3zm45.84-3.74c0 1-.16 1.9-.48 2.62a3.6 3.6 0 0 1-1.33 1.64 4 4 0 0 1-2.1.56q-1.75 0-2.61-1.1-.87-1.1-.87-3.3v-8.44h-4.09v8.88q0 2.08.54 3.49.54 1.4 1.46 2.25t2.11 1.21 2.53.36q1.92 0 3.14-.66 1.1-.6 1.83-1.4l.37 1.88h3.58V24.8h-4.08zm-24.35-7.18a9.6 9.6 0 0 0-4.54-1.03q-2.57 0-4.52 1.03a7.5 7.5 0 0 0-3.04 2.87 8.4 8.4 0 0 0-1.07 4.3q0 2.44 1.07 4.28a7.5 7.5 0 0 0 3.04 2.87 9.6 9.6 0 0 0 4.52 1.03 9.6 9.6 0 0 0 4.54-1.03 7.5 7.5 0 0 0 3.02-2.87 8.4 8.4 0 0 0 1.08-4.27q0-2.46-1.08-4.3a7.5 7.5 0 0 0-3.02-2.88m-2.16 11.44q-.98.61-2.38.62-1.36 0-2.37-.62-1.01-.63-1.56-1.72a6 6 0 0 1-.55-2.54q0-1.47.55-2.56.56-1.08 1.56-1.72a4.4 4.4 0 0 1 2.37-.64q1.4 0 2.38.64 1 .64 1.55 1.72.56 1.1.56 2.56 0 1.43-.56 2.54a4 4 0 0 1-1.55 1.72m-58.29-12.7H48v16.43h4.24zm13.31.93c0-3.48-2.96-6.32-6.6-6.32H48v3.5h10.42c1.65 0 3.02 1.25 3.05 2.78.01.76-.29 1.48-.85 2.02-.55.55-1.3.85-2.1.85h-4.06a.26.26 0 0 0-.26.25v3.12q0 .08.05.15l6.89 9.15h5.04l-6.9-9.18c3.47-.17 6.27-2.96 6.27-6.32m13.05.24a9.5 9.5 0 0 0-4.32-.94q-2.46 0-4.36 1.03a7.4 7.4 0 0 0-2.94 2.87 8.7 8.7 0 0 0-1.04 4.34q0 2.42 1.06 4.27a7.3 7.3 0 0 0 3.02 2.86A10 10 0 0 0 74.64 41q2.1 0 3.75-.75A7 7 0 0 0 81 38.23q.95-1.2 1.26-2.68l.02-.1h-4.06l-.02.06a3 3 0 0 1-1.29 1.72q-1.01.66-2.47.66-1.23 0-2.2-.5a3.6 3.6 0 0 1-1.48-1.4 5 5 0 0 1-.58-2.15v-.12h12.26l.01-.08q.07-.33.09-.69l.01-.68a8 8 0 0 0-1.07-4.06 7 7 0 0 0-2.9-2.65m-1.49 3.01q1.05.84 1.3 2.38h-8.08a3.6 3.6 0 0 1 2.1-2.85q.88-.4 1.89-.4 1.7 0 2.8.87"/></svg>