<svg width="224" height="80" viewBox="0 0 224 80" xmlns="http://www.w3.org/2000/svg"><path d="M82.54 29.37c0-4.21-2.44-6.76-6.76-6.76-.88 0-1.77.22-2.66.33v12.4h3.1c3.88 0 6.32-2.1 6.32-5.97Zm17.28 29.02h.55v.77h-.89c-6.86.22-13.07-7.3-16.6-13.4a105.9 105.9 0 0 1-4.1-7.86c-.34-.67-.67-1.11-1.11-1.33-.67-.34-1.56-.34-2.33-.34H73v5.43c0 1-.1 3.44.23 4.43.22.78.66.89 1.43 1l1.33.1v.67H66.6v-.66l1.33-.11c.77-.11 1.33-.22 1.55-1 .33-1 .22-3.43.22-4.43V27.6c0-1 .11-3.55-.22-4.43-.22-.78-.67-.89-1.55-1l-1.33-.11v-.56h6.42c5.65 0 13.3-.77 13.3 7.1 0 3.2-2.22 5.2-4.88 6.53v.33c.33 2.1 3.32 7.42 4.43 9.41 2.66 4.43 9.08 13.85 13.96 13.52Zm103.66-23.04-1.77-1c-1.77-1-3.21-2.1-3.21-3.99 0-2.21 1.66-3.54 3.65-3.54 3.77 0 4.32 2.88 4.66 4.43h.77c-.11-1-.11-3.32-.33-4.54-.89-.55-2.55-1-4.54-1-3.55 0-6.87 1.66-6.87 5.65 0 2.44 1.77 4.43 3.66 5.54l2.1 1.1c2.55 1.11 4.65 2.78 4.65 5.21 0 2.55-1.66 3.99-3.99 3.99-4.54 0-5.75-3.88-6.09-6.2l-1.1.22c.33 2.21.77 4.54 1.1 5.76 1 .66 2.66 1.33 5.2 1.33 3.55 0 7.65-1.66 7.65-6.1-.22-3.98-3-5.31-5.54-6.86Zm-15.84-3.1c0-3.88-2.54-4.99-5.09-4.99-.67 0-1.44.11-2.1.23v9.96h1.88c2.88 0 5.31-1.44 5.31-5.2Zm5.1 14.5c.33.23.88.34 1.66.34v.66h-2.55c-2.21 0-3.76-1.44-4.76-3.2l-1.33-2.56c-.88-1.66-1.66-2.88-2.1-3.2-.56-.45-1.33-.45-2.1-.45h-1.23v4.32c0 3.99 0 4.2 1.22 4.32l1.22.1v.67h-7.97v-.66l1.21-.11c1.33-.11 1.33-.33 1.33-4.32v-11.4c0-4 0-4.22-1.33-4.33l-1.21-.1v-.67h8.64c3.1 0 7.64.44 7.64 5.42 0 3.1-2.77 4.88-4.54 5.76.44.89 1.55 3 2.43 4.54 1.44 2.55 3 4.43 3.77 4.88Zm-27.58.12c-1.22 0-2.44-.22-3.65-.45v-9.41h2.99c2.54 0 3.2 0 3.32 1.33l.22 1.1h.89V33.7h-.89l-.22 1.1c-.22 1.33-.78 1.33-3.32 1.33h-3v-8.97h2.78c4.65 0 4.76.45 5.42 3.99l.78-.11c0-.33-.11-4.1-.33-4.76h-14.3v.66l1.23.11c1.32.11 1.32.33 1.32 4.32v11.4c0 4 0 4.22-1.32 4.33l-1.22.1v.67h15.17c.44-1.77.78-3.43 1.1-5.42l-.77-.11c-.55 2.65-.88 4.54-6.2 4.54Zm-19.6-6.98 1.22.11c2.32.11 2.32.33 2.32 4.32v2.44c-1.1.33-2.66.44-3.88.44-6.53 0-9.4-5.2-9.4-10.74 0-6.1 3.43-9.64 8.85-9.64 5.65 0 6.1 3.99 6.43 5.32l.88-.22a59.24 59.24 0 0 0-.55-4.88c-.89-.55-3.44-1.33-6.76-1.33-5.2 0-12.4 2.66-12.4 11.41 0 8.3 5.98 11.19 12.62 11.19 3.55 0 6.1-1 7.31-1.33 0 0-.1-2.55-.1-3.55 0-3.2 0-3.32.66-3.43l1.22-.11v-.66h-8.42v.66ZM113 26.16c-.11.77-.34 5.1-.34 5.2h.78c.77-3.76.77-4.32 5.43-4.32h1.77v15.62c0 3.99 0 4.2-1.77 4.32l-1.22.1v.67h9.19v-.66l-1.22-.11c-1.88-.11-1.88-.33-1.88-4.32v-15.5h1.77c4.65 0 4.76.44 5.43 4.31h.77c0-.1-.1-4.54-.33-5.2H113v-.11Zm-8.86 0h8.08v.66l-1.22.22c-1.33.11-1.33.33-1.33 4.32v16.5l-.88.23-.78-1c-.44-.44-.77-.89-1.22-.89-.44 0-3.2 2.1-7.64 2.1-6.87 0-7.42-3.87-7.42-8.3v-8.64c0-3.99 0-4.2-1.33-4.32l-1.22-.1v-.67h8.09v.66l-1.22.11c-1.33.11-1.33.22-1.33 4.21v8.09c0 4.65.78 7.75 5.98 7.75 3.44 0 5.54-2 5.98-2.66V31.14c0-3.99 0-4.2-1.33-4.32l-1.21-.11v-.55Z" fill="#C03"/><path d="M14.98 13.75v31.01c.1 5.2 1.77 9.64 5.1 13.3 5.75 6.42 14.5 8.08 15.5 8.19h.55c.45-.11 9.64-1.44 15.62-8.2a22.42 22.42 0 0 0 3.32-5.1c1.1-2.43 1.66-5.2 1.77-8.19v-31H14.98Z" fill="#fff"/><path d="M48.2 39c-.22 0-.33-.1-.55-.1-.33 0-.66 0-1 .21v.45c.34-.11.67-.23 1-.23a1 1 0 0 1 .55.12c.12 0 .34.1.56.1.33 0 .66 0 1-.1V39c-.34.11-.67.11-.9.11-.32-.1-.54-.1-.66-.1Zm-.1-1.77c.1 0 .33.11.55.11.33 0 .66 0 1-.1v-.45c-.34.1-.67.1-.9.1-.21 0-.32 0-.55-.1-.22 0-.33-.11-.55-.11-.33 0-.66.1-1 .22v.44c.34-.1.67-.22 1-.22.22.11.33.11.44.11Zm1.54.67c-.33.1-.66.1-.88.1-.22 0-.33 0-.56-.1-.22 0-.33-.12-.55-.12-.33 0-.66 0-1 .23v.44c.34-.11.67-.22 1-.22.22 0 .33 0 .55.1.12 0 .34.12.56.12.33 0 .66 0 1-.11v-.44h-.12Zm-1.44 4.2c-.22 0-.33-.1-.55-.1-.33 0-.66.1-1 .21v.45c.34-.11.67-.22 1-.22a1 1 0 0 1 .55.1c.12 0 .34.12.56.12.33 0 .66 0 1-.11v-.45c-.34.11-.67.11-.9.11-.32 0-.54 0-.66-.1Zm.34 2.66c.77.11 1.88 0 3.1-.44v-7.75c-.11 0-.22.1-.33.1v7.53h-.12c-1.1.34-1.99.45-2.65.34-1-.22-1.78-.11-2.44.33v.33c.66-.55 1.44-.66 2.44-.44ZM39 44.54c1.44.55 2.66.78 3.55.55.88-.22 1.77-.1 2.32.34h.44v-9.09c-.22-.1-.33-.22-.55-.33-.33-.1-.77-.33-1.44-.33-.33 0-.55 0-.88.11H42c-.44 0-.88 0-1.44-.11h-.22v.44c-.11 0-.33-.1-.44-.1l-.22-.12v.44c-.11 0-.34-.1-.45-.1l-.22-.12v8.42Zm6.54 2.33-.34.66-.77.11.55.56-.1.77.66-.33.66.33-.11-.77.55-.56-.77-.1-.33-.67Zm.1-1.44h.45a4 4 0 0 1 2.33-.34c.88.11 1.99 0 3.43-.55h.11v-8.53l-.22.11c-.11.11-.33.11-.44.11v-.33h-.23c-.1 0-.33.11-.44.11v-.44h-.22c-.55.11-1.1.22-1.44.11h-.44c-.34-.11-.67-.11-.89-.11-.66 0-1.1.11-1.44.33-.22.11-.44.22-.55.33v9.2Zm3.77 1.77.56-.56-.78-.1-.33-.67-.33.66-.78.11.56.56-.12.77.67-.33.66.33-.1-.77Zm-6.64 0 .55-.56-.77-.1-.34-.67-.33.66-.77.11.55.56-.11.77.66-.33.67.33-.11-.77ZM36.46 28.8h17.95v15.95a17.89 17.89 0 0 1-4.54 11.85c-4.55 5.1-11.3 6.87-13.52 7.31v-35.1h.11ZM48.1 40.44c.11 0 .34.11.56.11.33 0 .66 0 1-.1V40c-.34.11-.67.11-.9.11-.21 0-.32 0-.55-.11-.22 0-.33-.11-.55-.11-.33 0-.66.1-1 .22v.44c.34-.1.67-.22 1-.22.22 0 .33 0 .44.11Zm.45 3.66c.66.1 1.44 0 2.43-.22V36.46c-.1 0-.22.1-.33.1v7.32h-.11c-.77.22-1.44.22-2 .1-.21 0-.44-.1-.66-.1h-.33c-.78 0-1.33.33-1.44.44h-.11v.33c.77-.66 1.55-.77 2.55-.55Zm1.1-3c-.33.12-.66.12-.88.12-.22 0-.33 0-.56-.11-.22 0-.33-.11-.55-.11-.33 0-.66.1-1 .22v.44c.34-.11.67-.22 1-.22.22 0 .33 0 .55.11.12 0 .34.11.56.11.33 0 .66 0 1-.11v-.44h-.12Zm-7.2 3.66c1-.22 1.89-.1 2.55.33v-.33c-.66-.33-1.44-.44-2.43-.33-.78.11-1.67 0-2.66-.33h-.11v-7.53c-.11 0-.22-.11-.34-.11v7.75c1.11.55 2.1.66 3 .55Zm0-.66c1-.22 1.89-.11 2.55.33v-.33h-.1a4.35 4.35 0 0 0-1.45-.45h-.33c-.22 0-.44 0-.66.12-.56.1-1.22.1-2-.12h-.1v-7.31c-.12 0-.23 0-.34-.1v7.41a4.1 4.1 0 0 0 2.44.45Zm-.1-6.76c.22 0 .44 0 .55-.1.22 0 .33-.12.55-.12.33 0 .67.11 1 .22v-.33c-.33-.11-.67-.22-1-.22-.22 0-.44 0-.55.1-.11 0-.33.12-.56.12-.33 0-.66 0-.88-.11v.44h.88Zm1.99 1.77a3.23 3.23 0 0 0-1-.22c-.22 0-.44 0-.55.11-.11 0-.33.11-.56.11-.33 0-.66 0-.88-.1v.44c.33.1.66.1 1 .1.22 0 .44 0 .55-.1.22 0 .33-.12.55-.12.33 0 .67.12 1 .23v-.45h-.11Zm-2-.77c.23 0 .45 0 .56-.11.22 0 .33-.11.55-.11.33 0 .67.1 1 .22v-.44a3.23 3.23 0 0 0-1-.23c-.22 0-.44 0-.55.11-.11 0-.33.12-.56.12-.33 0-.66 0-.88-.12v.45c.22.1.55.22.88.1Zm.45 1.66c-.11 0-.33.11-.56.11-.33 0-.66 0-.88-.11v.44c.33.11.66.11 1 .11.22 0 .44 0 .55-.1.22 0 .33-.12.55-.12.33 0 .67.11 1 .22v-.44c-.33-.11-.67-.22-1-.22-.33.1-.55.1-.66.1Zm-.45 1.55c.23 0 .45 0 .56-.11.22 0 .33-.11.55-.11.33 0 .67.1 1 .22v-.44c-.33-.11-.67-.22-1-.22-.22 0-.44 0-.55.1-.11 0-.33.12-.56.12-.33 0-.66 0-.88-.11v.44c.22.11.55.11.88.11Zm0 1.1c.23 0 .45 0 .56-.1.22 0 .33-.11.55-.11.33 0 .67.1 1 .22v-.45a3.23 3.23 0 0 0-1-.22c-.22 0-.44 0-.55.11-.11 0-.33.11-.56.11-.33 0-.66 0-.88-.1v.44c.22.1.55.1.88.1Zm-15.61-.21h1.1v-1.11h-1.1v1.1Zm3.21-1.89c.11-.55.44-1 .78-1.33.1-.1.66-.77.66-1.21 0-.78-.55-1.33-1.33-1.33-.22 0-.33 0-.55.1 0 0-.11 0-.11.12l-.11.1c-.45.23-1 .34-1.44.34H27.6c-.22 0-.44-.1-.66-.1h-.11v3.65l3.1-.34Zm-7.2 1.89h1.1v-1.11h-1.1v1.1ZM20.18 38c0 .55.34 1.21.89 1.77.33.33.55.77.66 1.33v.33c0 .33-.1.66-.22 1v.55h9.42v-.44a2.05 2.05 0 0 1-.22-.78v-.55c.1-.45.33-.89.66-1.33.55-.55.89-1.22.89-1.77 0-1.33-1-2.33-2.33-2.33-.33 0-.66.11-.89.22-.1 0-.22.11-.22.11-.33.11-.66.22-1.1.22h-.12c-.44 0-.88-.33-1.1-.66h-.45c-.22.22-.66.55-1.1.55h-.11c-.45 0-.78-.1-1.11-.22 0 0-.11 0-.11-.1a3.23 3.23 0 0 0-1-.23c-1.33 0-2.44 1.1-2.44 2.33Zm5.2-3.66c0 .44.34.78.78.78.45 0 .78-.34.78-.78a.76.76 0 0 0-.78-.77c-.33-.11-.77.33-.77.77Zm6.21 13.4c0-.44-.33-.88-.77-.88-.34 0-.45.1-.56.22v.1h.11c.45 0 .67.45.67.9 0 .33-.11.66-.45.66-.44 0-.66-.55-.66-1.22 0-1.1.55-1.77 1.22-1.77h.33v-.11c-.11 0-.22-.11-.44-.11-.89 0-1.77.55-1.77 2 0 .99.55 1.43 1.1 1.43.67 0 1.22-.44 1.22-1.22Zm-2.88 0c0-.44-.33-.88-.77-.88-.34 0-.45.1-.56.22v.1h.11c.45 0 .67.45.67.9 0 .33-.11.66-.45.66-.44 0-.66-.55-.66-1.22 0-1.1.55-1.77 1.22-1.77h.33v-.11c-.11 0-.22-.11-.44-.11-.89 0-1.77.55-1.77 2 0 .99.55 1.43 1.1 1.43.67 0 1.22-.44 1.22-1.22Zm-2.77-2-2.1-.1c-.11.22-.22.55-.22.88h.1c.12-.44.12-.44.67-.44h1c0 .22-.11.33-.33.78-.45.66-1.11 1.44-1.11 1.77.11.22.33.22.55.33h.11c.23-.77.23-.77.56-1.44.44-1 .66-1.33.77-1.77Zm-4.32-1.98h9.42v-.34h-9.42v.34Zm0 .66h9.42v-.33h-9.42v.33Zm1.33 4.32h-.33c-.22 0-.22-.11-.22-.67v-2.43l-.11-.11c-.11 0-1 .33-1.22.44v.11l.33-.11h.22c.11 0 .11 0 .11.66v1.44c0 .56 0 .56-.22.67h-.33v.11h1.77v-.11ZM17.3 28.8h17.95v35c-2.22-.44-8.97-2.21-13.52-7.3a17.89 17.89 0 0 1-4.54-11.86V28.81h.11Zm11.41 13.63h1.1v-1.11h-1.1v1.1Zm-6.09-1.89 3.21.11v-3.65h-.1c-.23.11-.45.11-.67.11h-.22c-.56 0-1.11-.11-1.56-.33 0 0-.1 0-.1-.11-.12-.11-.34-.11-.56-.11-.78 0-1.33.55-1.33 1.33 0 .44.11.55.67 1.21.22.45.55.89.66 1.44Zm2.1.78v1.1h1.11v-1.1h-1.1ZM17.3 24.05v3.54h3.88l-3.88-3.54Zm13.52 1.77-2.44-9.85h-3.99l6.1 9.96c.1 0 .22-.1.33-.1Zm-2.44 1.22-5.1-11.07h-5.53l10.4 11.18c.12 0 .12 0 .23-.1Zm-2.88.55-8.2-11.18v6.2l6.98 4.98h1.22Zm7.86-2.54-.33-9.08h-3.32l3.43 9.19s.11 0 .22-.11Zm1-9.08 1.44 8.86h.33l1.44-8.86h-3.21Zm16.28 11.62h3.88v-3.54l-3.88 3.54Zm-9.41-1.66 6.09-9.96h-3.99l-2.44 9.85c.23 0 .23.11.34.11Zm2.43 1.33 10.41-11.3h-5.53l-5.1 11.08c0 .11.11.11.22.22Zm3.88.33 6.98-4.98v-6.2l-8.2 11.18h1.22Zm-8.86-2.43c-.11 0-.22 0-.33-.11l.44-9.08h3.32l-3.43 9.19Z" fill="#C03"/><path d="M55.63 44.65a22.01 22.01 0 0 1-1.67 7.76 16.8 16.8 0 0 1-3.1 4.76c-5.76 6.53-14.62 7.86-15.06 7.86h-.11c-.89-.11-9.3-1.66-14.84-7.86-3.1-3.33-4.65-7.53-4.76-12.52V14.86h39.65v29.8h-.11Zm-40.65-30.9v31.01c.1 5.2 1.77 9.64 5.1 13.3 5.75 6.42 14.5 8.08 15.5 8.19h.55c.45-.11 9.64-1.44 15.62-8.2a22.42 22.42 0 0 0 3.32-5.1c1.1-2.43 1.66-5.2 1.77-8.19v-31H14.98Z" fill="#C03"/></svg>