<svg xmlns="http://www.w3.org/2000/svg" width="200" height="80" viewBox="0 0 200 80"><path fill="#ED1B2F" d="M47.5 47.91c0 1.47-.52 2.86-1.61 3.92-1.51 1.46-3.69 1.95-5.78 2-2.17.06-4.44-.47-6.1-1.94A6 6 0 0 1 32 47.54h3.6c0 .86.38 1.69 1.02 2.3.87.84 2.16 1.02 3.33 1.02 1.13 0 2.45-.18 3.27-1.01.88-.93 1.15-2.53.02-3.39-1.2-.88-2.92-.8-4.35-.94-1.5-.13-3.02-.37-4.26-1.23a5 5 0 0 1-2.09-3.5 5.1 5.1 0 0 1 1.66-4.37c1.4-1.35 3.49-1.92 5.42-1.98 2-.03 4.14.47 5.63 1.84a5.6 5.6 0 0 1 1.95 3.99h-3.58a3 3 0 0 0-.83-1.85c-.73-.75-2-1.01-3.02-1.01-1.08 0-2.27.24-3.06 1.03-.92 1-.9 2.68.41 3.34.66.33 1.48.35 2.2.44l2.43.24c1.5.2 3.03.62 4.18 1.67a5.2 5.2 0 0 1 1.57 3.78m15.23 5.6-1.36-1.46a8.3 8.3 0 0 1-8.52 1.31 5.7 5.7 0 0 1-2.91-2.88 5.4 5.4 0 0 1-.13-4.04c.54-1.43 1.81-2.5 3.1-3.3-1.31-1.33-2.26-2.78-2.04-4.7.11-.82.45-1.6.97-2.24a4.7 4.7 0 0 1 2.03-1.44 6.6 6.6 0 0 1 5.44.42A4.6 4.6 0 0 1 61 37c.38.75.53 1.59.45 2.42C61.3 41.6 59.62 43 57.83 44l3.36 3.54c.37-.7.43-1.54.5-2.3.06-.78.04-1.55.04-2.31h4.99v2.61h-2.25a8 8 0 0 1-1.17 4.2l3.55 3.76zm-7.82-8.3c-.9.55-1.88 1.1-2.18 2.18a2.8 2.8 0 0 0 .7 2.77c1.46 1.42 4.56 1.27 5.92-.2zm3.38-6.08c0-.8-.37-1.5-1.14-1.83a2.6 2.6 0 0 0-2.47.24c-.68.49-.86 1.4-.61 2.16.3.92 1.04 1.58 1.72 2.24 1.18-.66 2.5-1.34 2.5-2.82zm25.51 1.62c0 1.7-.57 3.4-1.93 4.53-1.33 1.12-3.15 1.5-4.9 1.5H72.9v6.7h-3.5V34.75h7.58c1.72 0 3.53.37 4.9 1.46a5.7 5.7 0 0 1 1.92 4.53m-3.54.02c0-.85-.3-1.76-.98-2.33-.65-.57-1.58-.7-2.44-.7H72.9v6.04h3.94a3.8 3.8 0 0 0 2.45-.68c.7-.58.97-1.46.97-2.33m24.16 12.73-.4-2.07c-.96 1.74-3.27 2.44-5.18 2.4-2.04-.05-4-.62-5.41-2.1-2.04-2.04-2.5-4.85-2.52-7.6 0-2.74.4-5.49 2.52-7.51 2.94-2.86 8.52-2.98 11.47-.07a5.8 5.8 0 0 1 1.76 3.78h-3.6q-.16-.98-.84-1.71c-1.5-1.69-4.76-1.43-6.23.13-1.38 1.4-1.5 3.6-1.5 5.45 0 1.8.18 4.02 1.52 5.4 1.45 1.54 4.53 1.65 6.03.12 1-1.01 1.25-2.29 1.25-3.65h-4.6v-2.84h8v10.24h-2.27zm10.78-.05c-1.27.27-2.64.3-3.8-.35-1.18-.66-1.56-1.89-1.56-3.16V34.39h3.44v15c0 .41.09.96.5 1.16.42.22.95.11 1.43.11zm14.46-6.83a7.8 7.8 0 0 1-1.66 5.07c-2.4 2.86-7.5 2.86-9.92 0a8.36 8.36 0 0 1 0-10.13c2.4-2.85 7.5-2.85 9.93 0a8 8 0 0 1 1.65 5.06m-3.47 0c0-1.21-.13-2.53-1-3.47a3 3 0 0 0-2.15-.88 3 3 0 0 0-2.15.88c-.88.92-1.02 2.27-1.02 3.47s.14 2.52 1.02 3.44a3 3 0 0 0 2.15.87 3 3 0 0 0 2.16-.87c.88-.92 1-2.23 1-3.44zm19.17.02c0 2.24-.68 4.54-2.54 6-2.03 1.65-5.87 1.67-7.4-.66l-.23 1.52h-2.94V34.43h3.4v6.34c.78-.94 2.17-1.3 3.4-1.34a5.5 5.5 0 0 1 3.77 1.1q2.54 2.02 2.54 6.1m-3.44-.04c0-1.17-.15-2.4-.9-3.32a3 3 0 0 0-2.88-1.06c-1.07.16-1.84.9-2.25 1.85a7.5 7.5 0 0 0-.36 3.38c.11 1.06.34 2.16 1.18 2.9 1.24 1.12 3.24.8 4.28-.4.77-.94.93-2.19.93-3.35m18.56 6.72c-1.55.66-3.88.46-4.08-1.56-1.27 2.18-4.64 2.53-6.8 1.6a4.3 4.3 0 0 1-2.5-2.8 4 4 0 0 1 .78-3.61c.95-1.15 2.45-1.63 3.9-1.74l4.16-.28v-.86c0-.62-.13-1.34-.65-1.74-.43-.35-1.06-.41-1.58-.41-1.34-.03-2.66.48-2.75 1.95h-3.28a4.4 4.4 0 0 1 1.6-3.22 6.6 6.6 0 0 1 3.5-1.22c2.38-.17 5.13.4 6.09 2.77.36.88.4 1.85.4 2.77v5.1c0 .61.41 1.07 1.1.83.07 0 .08 0 .13-.02v2.44zm-4.54-5.93-3.6.26c-.95.07-1.94.62-2.03 1.6-.1 1.03.7 1.78 1.72 1.9a4 4 0 0 0 2.8-.74c.8-.56 1.11-1.46 1.11-2.4zm12.04 6.06c-1.29.27-2.7.3-3.86-.37-1.15-.68-1.5-1.9-1.5-3.15V34.39h3.45v15c0 .42.1.97.5 1.17.43.22.95.1 1.43.1v2.8z"/><path fill="#fff" d="M168 25H32v3.74h136z"/></svg>