<svg xmlns="http://www.w3.org/2000/svg" width="132" height="80" viewBox="0 0 132 80"><path fill="#ED1B2F" d="M22.76 46.96c0 1.22-.43 2.37-1.32 3.24-1.25 1.21-3.04 1.62-4.76 1.66a7 7 0 0 1-5.02-1.6 5 5 0 0 1-1.66-3.6h2.97c0 .7.3 1.39.84 1.9.7.7 1.77.84 2.74.84.93 0 2.02-.15 2.69-.84.72-.76.95-2.09.01-2.8-.98-.72-2.4-.66-3.58-.78a7 7 0 0 1-3.5-1.02 4.2 4.2 0 0 1-1.72-2.89 4.3 4.3 0 0 1 1.36-3.62 6.7 6.7 0 0 1 4.46-1.63 6.7 6.7 0 0 1 4.64 1.51 4.7 4.7 0 0 1 1.6 3.3h-2.94a2.5 2.5 0 0 0-.68-1.52c-.6-.62-1.65-.84-2.5-.84-.88 0-1.86.2-2.5.86-.77.81-.75 2.21.33 2.76.54.27 1.21.3 1.8.36l2 .2c1.25.17 2.5.51 3.45 1.39a4.3 4.3 0 0 1 1.3 3.12m12.55 4.64-1.12-1.22a6.8 6.8 0 0 1-7.02 1.1 4.7 4.7 0 0 1-2.4-2.4 4.5 4.5 0 0 1-.1-3.34 6 6 0 0 1 2.55-2.72c-1.08-1.11-1.86-2.3-1.68-3.9q.15-1.02.8-1.85a4 4 0 0 1 1.67-1.2 5.4 5.4 0 0 1 4.48.35q.91.57 1.4 1.52.47.95.37 2c-.13 1.79-1.51 2.95-2.99 3.79l2.77 2.92c.3-.58.35-1.27.4-1.9.06-.64.04-1.28.04-1.91h4.11V45h-1.85a7 7 0 0 1-.97 3.47l2.93 3.11h-3.4zm-6.44-6.87c-.75.45-1.55.9-1.8 1.8a2.4 2.4 0 0 0 .58 2.29c1.2 1.18 3.75 1.05 4.87-.17zm2.78-5.03c0-.67-.3-1.25-.94-1.52a2.1 2.1 0 0 0-2.03.2c-.56.4-.71 1.15-.5 1.78.24.77.85 1.31 1.41 1.86.97-.55 2.06-1.11 2.06-2.33m21.01 1.33c0 1.4-.47 2.82-1.59 3.75a6.2 6.2 0 0 1-4.03 1.24h-3.36v5.54h-2.87V36.08h6.23c1.42 0 2.91.3 4.03 1.2a4.7 4.7 0 0 1 1.59 3.75m-2.91.02c0-.7-.25-1.45-.81-1.92-.54-.48-1.3-.59-2.01-.59h-3.25v5h3.25a3 3 0 0 0 2.01-.56c.58-.48.8-1.21.8-1.93m19.89 10.53-.34-1.7c-.78 1.43-2.68 2.01-4.25 1.98a6.2 6.2 0 0 1-4.46-1.73c-1.68-1.7-2.06-4.02-2.08-6.3 0-2.27.34-4.54 2.08-6.21 2.42-2.37 7.02-2.47 9.44-.06a4.8 4.8 0 0 1 1.46 3.13h-2.97a2.7 2.7 0 0 0-.7-1.42c-1.22-1.4-3.91-1.18-5.12.11-1.14 1.16-1.24 2.98-1.24 4.51 0 1.5.15 3.33 1.25 4.47 1.2 1.28 3.74 1.37 4.97.1.82-.84 1.03-1.9 1.03-3.02h-3.8v-2.35h6.6v8.47h-1.87zm8.88-.03a4.4 4.4 0 0 1-3.13-.3c-.97-.54-1.29-1.56-1.29-2.61V35.77h2.83v12.41c0 .35.08.8.41.97.36.18.79.09 1.19.09zm11.9-5.66c0 1.53-.36 2.96-1.36 4.2-1.97 2.37-6.17 2.37-8.17 0a6.95 6.95 0 0 1 0-8.38c1.98-2.37 6.18-2.37 8.18 0a6.5 6.5 0 0 1 1.36 4.18m-2.85 0c0-1-.11-2.1-.82-2.87a2.5 2.5 0 0 0-1.77-.73 2.6 2.6 0 0 0-1.78.73c-.72.76-.84 1.88-.84 2.87s.12 2.1.84 2.85a2.5 2.5 0 0 0 1.78.72 2.6 2.6 0 0 0 1.77-.72c.73-.76.82-1.85.82-2.85m15.79.02c0 1.85-.56 3.76-2.1 4.96-1.67 1.37-4.83 1.39-6.09-.54l-.19 1.25h-2.42V35.8h2.8v5.25c.64-.78 1.78-1.07 2.8-1.1 1.12-.06 2.24.2 3.1.9q2.1 1.67 2.1 5.06m-2.84-.04c0-.96-.12-1.98-.75-2.74a2.5 2.5 0 0 0-2.36-.88c-.88.13-1.52.75-1.85 1.53a6 6 0 0 0-.3 2.8c.09.87.28 1.78.97 2.4 1.02.93 2.67.67 3.53-.33.63-.78.76-1.81.76-2.78m15.28 5.57c-1.27.54-3.19.38-3.36-1.3-1.04 1.8-3.82 2.1-5.6 1.33a3.5 3.5 0 0 1-2.05-2.31 3.4 3.4 0 0 1 .64-3 4.5 4.5 0 0 1 3.21-1.43l3.43-.24v-.7c0-.52-.1-1.12-.54-1.45-.35-.29-.87-.34-1.3-.34-1.1-.02-2.19.4-2.26 1.62h-2.7a3.6 3.6 0 0 1 1.32-2.67c.8-.64 1.86-.9 2.87-1 1.96-.15 4.23.32 5.02 2.29a6 6 0 0 1 .33 2.29v4.22c0 .5.34.89.9.69.06 0 .07 0 .11-.02v2.02zm-3.73-4.91-2.96.22c-.79.05-1.6.5-1.68 1.32-.08.85.58 1.48 1.42 1.57.78.09 1.68-.13 2.31-.61.65-.47.9-1.21.9-2zm9.91 5.02c-1.06.21-2.22.25-3.17-.31s-1.23-1.57-1.23-2.61V35.77h2.83V48.2c0 .34.08.8.41.96.36.18.79.1 1.18.1v2.3z"/><path fill="#fff" d="M122 28H10v3.1h112z"/></svg>