<svg width="200" height="80" viewBox="0 0 200 80" xmlns="http://www.w3.org/2000/svg"><path fill="#3E3E3D" d="M46 18h108v44H46z"/><path d="M117.65 44a7.35 7.35 0 0 1-3.66-.84 5.55 5.55 0 0 1-2.24-2.65c-.5-1.18-.75-2.69-.75-4.51 0-1.84.25-3.35.75-4.5a5.35 5.35 0 0 1 2.27-2.63c1-.58 2.25-.87 3.74-.87a6.5 6.5 0 0 1 3.44.84 5 5 0 0 1 2.08 2.48c.48 1.08.72 2.45.72 4.1v1.22h-10.48c.04 1.22.2 2.23.5 3.03.31.77.78 1.34 1.39 1.71.6.35 1.37.53 2.3.53.63 0 1.17-.08 1.63-.24a3.24 3.24 0 0 0 1.94-1.83c.17-.43.26-.9.28-1.4h2.38a6.52 6.52 0 0 1-.44 2.27 4.74 4.74 0 0 1-1.22 1.75c-.53.48-1.19.86-1.97 1.13-.77.27-1.66.41-2.66.41Zm-4.07-9.28h7.9c0-.85-.1-1.57-.28-2.15a3.6 3.6 0 0 0-.8-1.43 2.77 2.77 0 0 0-1.2-.78 4.14 4.14 0 0 0-1.52-.27c-.85 0-1.57.17-2.16.5-.6.33-1.05.83-1.36 1.51-.31.68-.5 1.55-.58 2.62ZM106 44V23h2.5v21H106ZM100 44V23h2.5v21H100ZM88.86 44a6.8 6.8 0 0 1-1.64-.2 4.92 4.92 0 0 1-1.53-.67 3.35 3.35 0 0 1-1.13-1.28 4.63 4.63 0 0 1-.43-2.1c0-1.04.25-1.9.74-2.59.49-.68 1.17-1.2 2.04-1.57.88-.39 1.93-.65 3.14-.78 1.2-.16 2.52-.24 3.93-.24v-1.74c0-.56-.1-1.05-.28-1.46a1.9 1.9 0 0 0-1.02-.93 4.73 4.73 0 0 0-2.04-.35c-.85 0-1.53.12-2.04.35-.49.22-.83.5-1.04.85a2.4 2.4 0 0 0-.29 1.16V33h-2.4a2.9 2.9 0 0 1-.03-.4v-.35c0-.93.25-1.7.74-2.33a4.5 4.5 0 0 1 2.12-1.43c.9-.33 1.94-.49 3.11-.49 1.25 0 2.29.18 3.12.55a4 4 0 0 1 1.9 1.57c.43.68.64 1.5.64 2.45v8.29c0 .37.09.63.26.78.17.14.38.2.62.2h1.1v1.7a5.21 5.21 0 0 1-1.98.43c-.49 0-.9-.1-1.21-.32a1.9 1.9 0 0 1-.74-.81 4.15 4.15 0 0 1-.34-1.23h-.2a5.2 5.2 0 0 1-1.3 1.28 6.2 6.2 0 0 1-1.73.82c-.64.2-1.34.29-2.1.29Zm.62-2.15a4.9 4.9 0 0 0 3.14-1.1c.42-.38.75-.81 1-1.32.24-.5.36-1.05.36-1.66V36.5c-1.53 0-2.83.1-3.9.27-1.08.17-1.9.48-2.5.93a2.27 2.27 0 0 0-.84 1.89c0 .52.11.95.34 1.28.22.33.54.58.96.75.41.16.9.24 1.44.24ZM71.2 43.69c.98.2 2 .31 3.06.31 1.56 0 2.94-.2 4.13-.6a5.85 5.85 0 0 0 2.8-1.85 5.26 5.26 0 0 0 1.02-3.35c0-.89-.18-1.63-.54-2.23a4.37 4.37 0 0 0-1.47-1.52c-.6-.41-1.29-.75-2.06-1.01-.76-.29-1.54-.53-2.35-.74l-2.35-.64c-.78-.21-1.46-.44-2.07-.68-.6-.26-1.1-.6-1.47-.99a2.1 2.1 0 0 1-.54-1.46c0-.5.18-.96.54-1.35.38-.42.94-.73 1.7-.93.75-.23 1.7-.34 2.83-.34.87 0 1.64.12 2.32.37.7.24 1.24.59 1.64 1.04a3 3 0 0 1 .61 1.85V30h2.67v-.34c0-.96-.21-2-.59-2.67a4.62 4.62 0 0 0-1.58-1.67 6.82 6.82 0 0 0-2.33-.98 13.53 13.53 0 0 0-6.14.03c-.96.22-1.77.56-2.43 1.01-.64.43-1.13.97-1.47 1.6a4.76 4.76 0 0 0-.48 2.17c0 .87.17 1.6.53 2.2.38.6.87 1.11 1.47 1.52.6.4 1.29.74 2.04 1.02.78.26 1.57.5 2.38.7.81.2 1.6.42 2.35.65.77.2 1.46.45 2.07.73.6.26 1.08.61 1.44 1.04.38.42.56.94.56 1.58 0 .5-.1.94-.33 1.3-.21.34-.5.63-.88.87-.36.23-.78.41-1.25.56-.45.14-.93.23-1.44.29-.5.05-.96.08-1.42.08a9.52 9.52 0 0 1-2.74-.37 4.1 4.1 0 0 1-1.87-1.18 2.83 2.83 0 0 1-.68-1.91V38h-2.72v.19c0 1.07.22 1.97.66 2.7a5.53 5.53 0 0 0 1.8 1.8c.76.45 1.62.78 2.58.99ZM55.52 44a6.8 6.8 0 0 1-1.64-.2 4.92 4.92 0 0 1-1.53-.67 3.35 3.35 0 0 1-1.13-1.28 4.63 4.63 0 0 1-.42-2.1c0-1.04.24-1.9.73-2.59.5-.68 1.17-1.2 2.04-1.57.89-.39 1.93-.65 3.14-.78 1.21-.16 2.52-.24 3.94-.24v-1.74c0-.56-.1-1.05-.29-1.46a1.9 1.9 0 0 0-1.02-.93 4.73 4.73 0 0 0-2.03-.35c-.85 0-1.53.12-2.04.35-.5.22-.84.5-1.05.85a2.4 2.4 0 0 0-.28 1.16v.44h-2.4c-.03-.1-.04-.2-.04-.3v-.34c0-.93.25-1.7.74-2.33a4.5 4.5 0 0 1 2.12-1.43c.9-.33 1.95-.49 3.12-.49 1.24 0 2.28.18 3.11.55a4 4 0 0 1 1.9 1.57c.43.68.65 1.5.65 2.45v8.29c0 .37.08.63.25.78.17.14.38.2.62.2h1.1v1.7a5.22 5.22 0 0 1-1.97.43c-.5 0-.9-.1-1.22-.32a1.9 1.9 0 0 1-.74-.81 4.15 4.15 0 0 1-.34-1.23h-.2a5.2 5.2 0 0 1-1.3 1.28c-.5.35-1.08.63-1.72.82-.64.2-1.34.29-2.1.29Zm.63-2.15a4.89 4.89 0 0 0 3.14-1.1c.41-.38.74-.81.99-1.32.24-.5.37-1.05.37-1.66V36.5c-1.53 0-2.83.1-3.9.27-1.08.17-1.92.48-2.5.93a2.27 2.27 0 0 0-.85 1.89c0 .52.11.95.34 1.28.23.33.55.58.96.75.42.16.9.24 1.45.24ZM46 44V23h2.5v21H46ZM46 49h108v10H46z" fill="#fff"/><path d="M144.43 56.25v-4.62h.75v3.96h2.3v.66h-3.05ZM140.78 56.25v-4.62h.76v3.96h2.3v.66h-3.06ZM137.85 56.33c-.4 0-.74-.06-1.03-.2a1.4 1.4 0 0 1-.66-.59 2.05 2.05 0 0 1-.22-1.02v-2.89h.75v2.9c0 .39.1.68.3.87.2.2.49.29.86.29s.66-.1.86-.29c.22-.2.32-.48.32-.86v-2.9h.75v2.88a2 2 0 0 1-.23 1.02 1.4 1.4 0 0 1-.67.6c-.28.13-.63.19-1.03.19ZM132.55 56.25v-4.62h.75v3.96h2.3v.66h-3.05ZM128.9 56.25v-4.62h.76v3.96h2.3v.66h-3.06ZM122.38 56.25v-4.62h.73l2.1 2.9a3.24 3.24 0 0 1 .26.38h.03v-3.28h.73v4.62h-.7l-2.13-2.93a20.42 20.42 0 0 0-.26-.4h-.03v3.33h-.73ZM118.93 56.33c-.48 0-.9-.09-1.24-.26a1.82 1.82 0 0 1-.8-.8c-.19-.35-.28-.8-.28-1.33 0-.54.1-.98.28-1.33.19-.36.45-.62.8-.8.35-.17.76-.26 1.24-.26s.9.09 1.24.27c.34.17.61.43.8.79.18.35.28.8.28 1.33s-.1.98-.29 1.33a1.8 1.8 0 0 1-.79.8c-.34.17-.76.26-1.24.26Zm0-.64c.24 0 .46-.03.65-.1.2-.07.35-.17.48-.31.14-.14.24-.31.3-.53.08-.2.11-.45.11-.73v-.15c0-.28-.03-.53-.1-.74a1.3 1.3 0 0 0-.3-.53c-.14-.14-.3-.24-.5-.3-.18-.07-.4-.1-.64-.1-.25 0-.46.03-.66.1-.19.06-.35.16-.48.3-.13.14-.23.32-.3.53-.06.2-.1.46-.1.74v.15c0 .28.04.52.1.73.07.22.17.39.3.53.13.14.3.24.48.3.2.08.41.1.66.1ZM110.88 56.25v-4.62h1.17l.9 2.8a4.41 4.41 0 0 1 .15.57l.06.25h.06c0-.07.02-.15.04-.24a15.45 15.45 0 0 0 .15-.59l.9-2.79h1.16v4.62h-.75v-2.53l.01-.53.01-.5.01-.27h-.05l-.07.26-.1.37-.1.35-.94 2.85h-.66l-.94-2.84a8.3 8.3 0 0 1-.09-.3l-.09-.36-.08-.33h-.05v.4l.02.47v2.96h-.72ZM105.43 56.25l1.8-4.62h.97l1.81 4.62h-.8l-.41-1.07h-2.19l-.41 1.07h-.77Zm1.42-1.71h1.7l-.52-1.35a6.9 6.9 0 0 0-.15-.4 5.15 5.15 0 0 0-.16-.5h-.04a10 10 0 0 1-.32.9l-.5 1.35ZM100.8 56.25v-4.62h2.44c.32 0 .6.06.8.18.22.11.38.28.5.49.1.2.15.45.15.73 0 .3-.06.57-.2.8-.14.23-.34.4-.6.5l.97 1.92h-.83l-.87-1.79h-1.6v1.79h-.75Zm.76-2.42h1.61c.25 0 .43-.07.56-.21.14-.15.2-.35.2-.6a.83.83 0 0 0-.08-.4.59.59 0 0 0-.26-.25.9.9 0 0 0-.42-.1h-1.61v1.56ZM94.64 56.25v-4.62h1.78c.48 0 .89.09 1.22.25.34.16.6.41.78.75.18.34.27.78.27 1.31s-.1.96-.27 1.3c-.18.35-.44.6-.78.76a2.8 2.8 0 0 1-1.22.25h-1.78Zm.76-.65h1.02c.24 0 .45-.03.63-.1a1.14 1.14 0 0 0 .76-.77c.07-.2.1-.44.1-.72v-.14c0-.28-.03-.51-.1-.71a1.15 1.15 0 0 0-.76-.79c-.18-.06-.4-.1-.63-.1H95.4v3.33ZM89.53 56.25l1.8-4.62h.97l1.82 4.62h-.81l-.41-1.07H90.7l-.4 1.07h-.78Zm1.42-1.71h1.7l-.52-1.35a5.27 5.27 0 0 0-.15-.4 5.71 5.71 0 0 0-.16-.5h-.04a11.6 11.6 0 0 1-.31.9l-.52 1.35ZM85.27 56.25v-4.62h1.78c.48 0 .89.09 1.22.25.34.16.6.41.78.75.18.34.27.78.27 1.31s-.1.96-.27 1.3c-.18.35-.44.6-.78.76a2.8 2.8 0 0 1-1.22.25h-1.78Zm.76-.65h1.02c.24 0 .45-.03.63-.1a1.14 1.14 0 0 0 .76-.77c.07-.2.1-.44.1-.72v-.14c0-.28-.03-.51-.1-.71a1.15 1.15 0 0 0-.76-.79c-.18-.06-.4-.1-.63-.1h-1.02v3.33ZM83.5 56.25v-4.62h.75v4.62h-.76ZM80.76 56.33c-.25 0-.49-.03-.72-.08a1.9 1.9 0 0 1-.62-.24 1.31 1.31 0 0 1-.43-.44c-.1-.18-.15-.4-.15-.64v-.14h.76a.4.4 0 0 1 0 .06v.07c0 .16.04.3.14.42s.24.2.41.26c.18.06.38.09.61.09.13 0 .25 0 .37-.02l.31-.07c.1-.04.19-.08.26-.13a.6.6 0 0 0 .17-.2.5.5 0 0 0 .06-.24.51.51 0 0 0-.13-.36.92.92 0 0 0-.34-.23c-.14-.06-.3-.12-.47-.17l-.55-.15c-.19-.05-.37-.1-.55-.17a2.5 2.5 0 0 1-.48-.24c-.14-.1-.25-.22-.34-.37a1.11 1.11 0 0 1-.12-.54 1.06 1.06 0 0 1 .5-.93c.16-.1.36-.18.58-.24a3.27 3.27 0 0 1 1.45 0c.21.05.4.13.56.24a1.14 1.14 0 0 1 .52 1v.08h-.75v-.09a.54.54 0 0 0-.13-.36.82.82 0 0 0-.35-.23 2.08 2.08 0 0 0-1.13 0 .83.83 0 0 0-.37.2.4.4 0 0 0-.12.29c0 .13.04.23.12.32.09.08.2.15.34.2.14.07.3.12.48.17a14.34 14.34 0 0 1 1.09.32c.18.07.34.15.48.25a1.02 1.02 0 0 1 .47.9c0 .33-.09.6-.25.82-.17.2-.4.35-.69.45-.29.1-.61.14-.99.14ZM74.27 56.25v-4.62h2.43c.32 0 .6.06.81.18.21.11.38.28.48.49.11.2.17.45.17.73 0 .3-.07.57-.21.8-.14.23-.34.4-.6.5l.97 1.92h-.82l-.88-1.79h-1.6v1.79h-.75Zm.75-2.42h1.62c.24 0 .42-.07.55-.21.14-.15.2-.35.2-.6a.83.83 0 0 0-.08-.4.59.59 0 0 0-.26-.25.9.9 0 0 0-.41-.1h-1.62v1.56ZM69.8 56.25v-4.62h3.58v.65h-2.82v1.28h2.52v.65h-2.52v1.4h2.86v.64H69.8ZM66.66 56.25l-1.7-4.62h.81l1.15 3.22.06.2a10.6 10.6 0 0 0 .13.37h.03a24.33 24.33 0 0 0 .2-.56l1.13-3.23h.79l-1.71 4.62h-.89ZM63.66 56.25v-4.62h.75v4.62h-.75ZM58.79 56.25v-4.62h.72l2.1 2.9.1.1a2.94 2.94 0 0 1 .16.28h.04v-3.28h.72v4.62h-.7l-2.13-2.93-.13-.2-.12-.2h-.04v3.33h-.72ZM55.85 56.33c-.4 0-.74-.06-1.02-.2a1.4 1.4 0 0 1-.66-.59 2.05 2.05 0 0 1-.23-1.02v-2.89h.75v2.9c0 .39.1.68.3.87.2.2.5.29.86.29.37 0 .66-.1.87-.29.2-.2.31-.48.31-.86v-2.9h.76v2.88a2 2 0 0 1-.24 1.02 1.4 1.4 0 0 1-.67.6c-.28.13-.63.19-1.03.19Z" fill="#3E3E3D"/></svg>