<svg width="200" height="80" viewBox="0 0 200 80" xmlns="http://www.w3.org/2000/svg"><path d="M125 43h-3.32V19h12.91l-.03.38c-.06.8-.13 1.7-.28 2.5l-.03.12H125v7h8.62l-.03.39c-.07.7-.17 1.74-.33 2.51l-.02.1H125v11ZM140.72 43h-3.23V19.51l.1-.03a11.6 11.6 0 0 1 3-.48h.13v24Z" fill="#898A8D"/><path d="M59.05 41.74a10.59 10.59 0 0 1 .64-3.35c.9.43 1.9.75 3.02.97 1.12.22 2.16.33 3.12.33 1.57 0 2.77-.25 3.61-.75a2.4 2.4 0 0 0 1.26-2.2 2.9 2.9 0 0 0-.43-1.63c-.3-.44-.76-.85-1.38-1.24-.63-.39-1.5-.82-2.62-1.31l-1.71-.73a13.44 13.44 0 0 1-2.87-1.6 6.22 6.22 0 0 1-1.8-2.11 6.26 6.26 0 0 1-.64-2.92c0-1.28.3-2.39.9-3.32.61-.93 1.51-1.64 2.71-2.14 1.2-.5 2.69-.74 4.48-.74 2.24 0 4.29.32 6.15.96a12.9 12.9 0 0 1-.68 3.32 16.86 16.86 0 0 0-5.5-.96c-1.43 0-2.5.25-3.2.76-.71.5-1.06 1.21-1.06 2.12 0 .81.3 1.5.89 2.07.59.56 1.51 1.1 2.77 1.64l1.81.76c1.46.62 2.62 1.25 3.5 1.9a6.27 6.27 0 0 1 1.92 2.16c.42.81.63 1.76.63 2.84 0 1.28-.33 2.4-.98 3.38a6.2 6.2 0 0 1-2.92 2.25c-1.3.53-2.87.8-4.73.8-2.76 0-5.05-.42-6.89-1.26M98.18 33.7l-.18-.13a3.66 3.66 0 0 0-3.72-.45l-1.2.53-.54-1.6 3.12-1.4c.38-.16.77-.26 1.17-.3l-.18-.14a3.66 3.66 0 0 0-3.71-.44l-1.02.45L88.12 19a24.2 24.2 0 0 0-4.87.52l-8 23.48h3.97l1.61-4.92 1.1-3.45 3.84-11.74 2.84 8.8-4.22 1.9c-.38.16-.78.26-1.17.3l.18.14c1.07.81 2.5.97 3.71.42l2.09-.93.36 1.11.16.51-3.99 1.8c-.38.16-.77.27-1.17.3l.18.14c1.08.81 2.5.97 3.72.42l1.85-.83.35 1.1L92.28 43h3.96l-2.55-7.53L97 34.01c.38-.17.77-.27 1.17-.3M115.17 19.17c.69-.11 1.3-.17 1.83-.17v24h-3.05l-9.15-13.89c-.83-1.25-1.7-2.48-2.4-3.66.04 1.92 0 4.85 0 8.8V43H99V19.38a16.19 16.19 0 0 1 3.32-.38l9.35 14.2c.58.86 1.23 1.94 1.94 3.22-.1-3.5-.16-6.98-.16-10.46v-6.41c.47-.14 1.04-.26 1.72-.38ZM59 51.76c.01-.16.02-.28.07-.42.3.17.68.24 1 .24.55 0 .88-.23.88-.63 0-.43-.38-.6-.75-.74l-.3-.11c-.52-.2-.9-.51-.9-1.1 0-.62.45-1 1.34-1 .36 0 .7.06 1 .18a1.5 1.5 0 0 1-.07.4c-.31-.11-.64-.16-.91-.16-.56 0-.82.23-.82.58 0 .4.34.58.67.7l.3.12c.5.18.98.46.98 1.1 0 .65-.48 1.08-1.43 1.08-.4 0-.78-.08-1.06-.24M64.03 50.6l-.68-2.11-.68 2.1h1.35Zm.14.4h-1.65l-.31 1h-.5l1.32-3.93c.15-.04.43-.07.64-.07L65 52h-.53l-.3-1ZM68.34 48v4h-.42l-1.68-2.61c-.1-.16-.2-.38-.24-.51V52h-.55v-3.92c.14-.05.35-.08.48-.08l1.59 2.52c.1.18.23.39.34.62l-.02-1.67v-1.39c.12-.04.35-.08.5-.08M71.66 48.46h-1.14V52H70v-3.54h-1.16c0-.14.02-.33.05-.46h2.82c0 .13-.03.32-.05.46ZM73.67 50.6 73 48.49l-.7 2.1h1.36Zm.14.4h-1.65l-.3 1h-.5l1.3-3.93c.16-.04.44-.07.65-.07l1.33 4h-.52l-.3-1h-.01ZM78 48v4h-.45l-1.74-2.61-.3-.51V52H75v-3.92c.14-.05.36-.08.5-.08l1.64 2.52c.12.18.24.39.36.62a49 49 0 0 1-.03-1.67v-1.39c.13-.04.36-.08.53-.08M81.38 50c0-.97-.4-1.57-1.42-1.57l-.54.03v3.1H80c.94 0 1.38-.54 1.38-1.56Zm.53 0c0 1.22-.61 2-1.93 2h-1.07v-3.9c.3-.07.62-.1 1.05-.1 1.44 0 1.96.88 1.96 2.01M83.09 51.54h1.81c0 .14-.02.33-.05.46h-2.28v-4h2.34c-.01.13-.03.32-.06.46H83.1v1.29h1.64c0 .14-.02.31-.05.45h-1.6v1.34ZM86.54 50c.53 0 .92-.2.92-.78 0-.52-.34-.8-.96-.8-.14 0-.35.01-.5.03V50h.54Zm.16.44H86V52h-.45v-3.9c.27-.06.6-.1.96-.1 1.06 0 1.48.57 1.48 1.2s-.35.98-.81 1.15L88.2 52h-.59l-.9-1.56Z" fill="#E1251B"/><path d="M90.34 48.46v1.29h1.52c-.01.12-.03.31-.06.45h-1.46V52h-.52v-4h2.21c-.01.14-.02.31-.05.46h-1.64ZM92.6 48.08c.13-.04.35-.08.51-.08v4h-.52v-3.92ZM97 48v4h-.45l-1.73-2.61-.32-.51c.02.44.02.95.02 1.38V52H94v-3.92c.14-.05.36-.08.5-.08l1.64 2.52c.12.18.24.39.36.62-.02-.51-.03-1.1-.03-1.67v-1.39c.13-.04.36-.08.53-.08ZM99.68 50.6l-.67-2.11-.69 2.1h1.36Zm.14.4h-1.64l-.31 1h-.5l1.31-3.93c.16-.04.44-.07.65-.07l1.33 4h-.53l-.3-1ZM104 48v4h-.44l-1.75-2.61-.3-.51V52H101v-3.92c.14-.05.36-.08.5-.08l1.64 2.52c.12.18.24.39.36.62-.02-.51-.03-1.1-.03-1.67v-1.39c.13-.04.36-.08.53-.08ZM104.67 50c0-1.2.66-2 1.79-2 .4 0 .7.06.93.18-.01.19-.03.3-.08.42-.2-.1-.47-.17-.83-.17-.76 0-1.26.55-1.26 1.58 0 1.02.5 1.55 1.31 1.55a2 2 0 0 0 .87-.17c-.02.14-.04.3-.09.47-.26.1-.52.14-.81.14-1.2 0-1.83-.83-1.83-2M108 48.08c.14-.04.35-.08.52-.08v4H108v-3.92ZM111.35 50.6l-.67-2.11-.7 2.1h1.37Zm.14.4h-1.65l-.31 1h-.5l1.32-3.93c.15-.04.44-.07.64-.07l1.33 4h-.52l-.3-1h-.01ZM112.77 48.08c.14-.04.36-.08.52-.08v3.55h1.57c0 .13-.03.3-.05.45h-2.04v-3.92ZM116.5 48.08c.14-.04.33-.08.5-.08v4h-.5v-3.92ZM120.82 48v4h-.43l-1.67-2.61-.3-.51V52h-.49v-3.92c.13-.05.35-.08.48-.08l1.58 2.52c.12.18.23.39.35.62-.02-.51-.02-1.1-.02-1.67v-1.39c.12-.04.34-.08.5-.08M121.52 51.76c0-.16.02-.28.06-.42.31.17.69.24 1 .24.55 0 .89-.23.89-.63 0-.43-.39-.6-.75-.74l-.3-.11c-.52-.2-.9-.51-.9-1.1 0-.62.44-1 1.34-1 .35 0 .69.06 1 .18a1.5 1.5 0 0 1-.08.4c-.3-.11-.64-.16-.9-.16-.57 0-.83.23-.83.58 0 .4.34.58.67.7l.31.12c.5.18.97.46.97 1.1 0 .65-.47 1.08-1.43 1.08-.4 0-.77-.08-1.05-.24M127 48.46h-1.14V52h-.51v-3.54h-1.18c0-.14.03-.33.05-.46h2.83c0 .13-.03.32-.05.46M127.54 48.08c.13-.04.35-.08.52-.08v4h-.52v-3.92ZM131.37 48.46h-1.15V52h-.5v-3.54h-1.18c0-.14.02-.33.05-.46h2.83l-.05.46M131.81 50.66v-2.58c.13-.04.35-.08.51-.08v2.63c0 .62.37.93.96.93.58 0 .96-.31.96-.93v-2.55c.13-.04.35-.08.51-.08v2.66c0 .8-.56 1.34-1.47 1.34-.92 0-1.47-.54-1.47-1.34ZM137.98 48.46h-1.14V52h-.5v-3.54h-1.18a3 3 0 0 1 .05-.46h2.83l-.05.46M139 51.54h1.85c0 .14-.02.33-.05.46h-2.28v-4h2.33c0 .13-.03.32-.05.46H139v1.29h1.67c0 .14-.02.31-.04.45H139v1.34Z" fill="#898A8D"/><path d="M108.87 58.25c-.1-1.1-.76-1.75-1.93-1.75-1.08 0-1.92.86-1.92 2.25 0 1.38.77 2.25 2.04 2.25 1.02 0 1.73-.66 1.84-1.76h-1.21c-.05.4-.24.72-.65.72-.64 0-.76-.56-.76-1.16 0-.83.27-1.25.72-1.25.39 0 .64.25.68.7h1.2Zm-8.15-1.63h1.26v2.55c0 .43.08.79.6.79.45 0 .58-.32.58-.79v-2.55h1.27v2.41c0 1.37-.58 1.97-1.85 1.97-1.2 0-1.86-.5-1.86-1.98v-2.4Z" fill="#035C67"/><path d="M109.87 56.65V61h3.21V60h-1.95v-.69h1.59V58.3h-1.6v-.62H113v-1.02h-3.13Zm3.96 4.35h1.26v-4.35h-1.26V61Zm2.18-4.35V61h1.26v-1.53h1.38v-1.01h-1.38v-.8H119v-1h-3Z" fill="#E1251B"/><path d="M98 59h-.28v2h.29v-1.35c0-.14.01-.26.13-.36a.41.41 0 0 1 .28-.11c.23 0 .3.14.3.35V61H99v-1.55c0-.36-.2-.51-.5-.51-.22 0-.36.1-.5.27v-.22Zm-1.22.92c0 .87-.27 1.08-.71 1.08-.44 0-.72-.21-.72-1.08 0-.6.23-.98.72-.98s.71.38.71.98Zm-.3.1c0-.61-.11-.84-.41-.84s-.42.23-.42.83c0 .47.09.75.42.75.33 0 .42-.28.42-.75Zm-.33-1.78h.4l-.48.51h-.24l.32-.5Zm-2.01.75h.28v2h-.28v-2Zm0-.7h.28v.36h-.28v-.36Zm-1.5.89c.26 0 .32.22.32.44h.27v-.01c0-.37-.2-.67-.6-.67-.6 0-.68.59-.68 1.08 0 .52.1.98.7.98.45 0 .6-.37.6-.75h-.27c-.01.24-.04.5-.35.5-.36 0-.39-.4-.39-.67v-.09c0-.3.02-.8.4-.8m-1.9.73c-.14.08-.3.14-.45.21-.14.06-.19.16-.19.3 0 .2.05.33.28.33.1 0 .35-.03.35-.36v-.48Zm.46 1.06-.07.02h-.07c-.19 0-.26-.03-.28-.27h-.01c-.07.17-.26.27-.45.27-.4 0-.5-.2-.5-.57 0-.08 0-.33.28-.45.16-.07.57-.22.6-.25.05-.04.05-.1.05-.18v-.05c0-.23-.08-.32-.31-.32-.25 0-.3.11-.3.33v.03h-.25v-.04c0-.39.2-.56.6-.56.5 0 .52.37.52.5v1.23c0 .04.02.1.06.12h.13v.2Zm-2.55-1.02c0-.27 0-.77-.38-.77-.24 0-.4.18-.4.8 0 .43.02.77.4.77.3 0 .38-.32.38-.55v-.25Zm0-1.66h.29V61h-.28v-.27c-.1.18-.25.27-.5.27-.54 0-.58-.63-.58-.91v-.18c0-.55.2-.97.6-.97.2 0 .33.1.46.26h.01v-.9Zm-2.99.7h-.28v2h.29v-1.34c0-.15.01-.26.13-.36a.41.41 0 0 1 .28-.11c.23 0 .3.14.3.34V61h.28v-1.55c0-.35-.2-.5-.5-.5-.2 0-.36.1-.5.27V59Zm-1.6 2h.3v-2h-.3v1.28c0 .12-.01.26-.07.36-.08.11-.2.11-.33.11-.2 0-.26-.09-.26-.25L83.4 59h-.28v1.49c0 .35.2.5.49.5.2 0 .36-.05.46-.25V61Zm-3.05 0v-2.7h1.26v.27h-.96v.89h.9v.27h-.9V61H81Z" fill="#898A8D"/></svg>