<svg xmlns="http://www.w3.org/2000/svg" width="735" height="440" fill="none" viewBox="0 0 735 440"><g clip-path="url(#al3lwjta1)"><path fill="#000" d="M0 0h735v440H0z"/><path fill="#1f1f1f" d="M368 143a16 16 0 0 1 16-16h351v313H368z"/><path stroke="#fff" stroke-opacity=".1" d="M384 127.5h350.5v312h-366V143a15.5 15.5 0 0 1 15.5-15.5Z"/><path fill="#d1d4dc" d="M465.43 171.32v-2.39h5.64q2.3 0 3.58-1.2a4.4 4.4 0 0 0 1.27-3.32v-.03q0-2.13-1.27-3.32a5 5 0 0 0-3.58-1.2h-5.64v-2.38h6.32q2.04 0 3.58.86a6 6 0 0 1 2.43 2.42q.9 1.54.9 3.6v.02q0 2.05-.9 3.61a6.3 6.3 0 0 1-2.43 2.45 7 7 0 0 1-3.58.88zm-1.34 7.68v-21.52h2.68V179zM486.94 179.3a5.7 5.7 0 0 1-2.9-.7 4.7 4.7 0 0 1-1.84-1.99 7 7 0 0 1-.63-3.05v-10.07h2.6v9.6q0 1.9.88 2.91.9 1 2.68 1 .93 0 1.66-.31a3.7 3.7 0 0 0 2.1-2.27 6 6 0 0 0 .29-1.8v-9.13h2.6V179h-2.6v-2.2h-.06a5 5 0 0 1-2.67 2.17q-.93.33-2.1.33M505.77 179.3a5.7 5.7 0 0 1-3.71-1.36 6 6 0 0 1-1.2-1.56h-.07V179h-2.6v-21.52h2.6v8.6h.06q.5-.9 1.22-1.53.75-.66 1.7-1a6 6 0 0 1 2.05-.36q1.95 0 3.41 1a6.5 6.5 0 0 1 2.3 2.79q.84 1.8.83 4.25v.01q0 2.45-.82 4.27a6.5 6.5 0 0 1-2.3 2.8q-1.49.99-3.47.99m-.5-2.3q1.37 0 2.37-.69a4.4 4.4 0 0 0 1.53-2q.54-1.29.54-3.07v-.01a8 8 0 0 0-.54-3.06 4.03 4.03 0 0 0-3.9-2.69q-1.31 0-2.33.72a5 5 0 0 0-1.58 2.02 7 7 0 0 0-.58 3v.02q0 1.74.56 3.03.59 1.3 1.6 2.01 1.02.72 2.32.72M515.41 179v-21.52h2.6V179zM521.98 179v-15.51h2.6V179zm1.3-18.14q-.67 0-1.15-.47-.48-.48-.48-1.15 0-.69.48-1.15.48-.48 1.15-.48.69 0 1.15.48.48.46.48 1.15 0 .67-.48 1.15-.46.48-1.15.47M533.92 179.3a8 8 0 0 1-3.14-.58 5 5 0 0 1-2.1-1.63q-.77-1.04-.93-2.43l-.02-.13h2.6l.03.14a3 3 0 0 0 1.12 1.82q.87.64 2.46.64 1.05 0 1.8-.26.75-.3 1.15-.8.4-.51.4-1.22v-.01q0-.83-.5-1.34a4 4 0 0 0-1.84-.84l-2.46-.6a9 9 0 0 1-2.43-.92 4 4 0 0 1-1.43-1.42 4 4 0 0 1-.48-1.95v-.02q0-1.34.72-2.37a5 5 0 0 1 2-1.6 7 7 0 0 1 2.98-.59q1.7 0 2.95.61 1.27.6 1.98 1.64.74 1.03.82 2.33l.02.2h-2.48l-.01-.11a2.7 2.7 0 0 0-1-1.82 3.5 3.5 0 0 0-2.28-.69q-.94 0-1.63.29t-1.06.8q-.36.51-.36 1.2v.01q0 .53.24.95.26.42.8.74.52.3 1.38.52l2.46.6q1.57.37 2.5.93t1.35 1.38a4 4 0 0 1 .42 1.89v.01q0 1.36-.8 2.4a5 5 0 0 1-2.14 1.65q-1.35.57-3.09.58M543.09 179v-21.52h2.6v8.49h.05a4.6 4.6 0 0 1 1.87-2.05 6 6 0 0 1 2.96-.73 5.2 5.2 0 0 1 4.85 3.01q.7 1.42.7 3.3v9.5h-2.6v-9.05q0-2.1-1-3.28a3.5 3.5 0 0 0-2.84-1.18q-1.2 0-2.1.56t-1.4 1.57a5 5 0 0 0-.5 2.33V179zM566.46 179v-15.51h2.6V179zm1.3-18.14q-.68 0-1.15-.47-.48-.48-.48-1.15 0-.69.48-1.15.47-.48 1.14-.48.69 0 1.15.48.48.46.48 1.15 0 .67-.48 1.15-.45.48-1.15.47M578.72 179.3a6 6 0 0 1-3.47-.99 6.6 6.6 0 0 1-2.3-2.8 10 10 0 0 1-.82-4.27v-.01q0-2.45.82-4.25a6.6 6.6 0 0 1 2.31-2.79q1.49-1 3.42-1a5.7 5.7 0 0 1 3.74 1.36q.75.64 1.22 1.53h.06v-8.6h2.6V179h-2.6v-2.62h-.06q-.47.9-1.2 1.56a5.5 5.5 0 0 1-3.72 1.36m.51-2.3q1.31 0 2.33-.72a4.7 4.7 0 0 0 1.58-2q.58-1.3.58-3.04v-.01q0-1.73-.58-3.01a5 5 0 0 0-1.6-2.02 4 4 0 0 0-2.31-.71 4 4 0 0 0-3.9 2.68 8 8 0 0 0-.55 3.06v.01q0 1.78.54 3.08t1.54 2q1 .68 2.37.68M596.5 179.3a6.5 6.5 0 0 1-6.3-3.76 10 10 0 0 1-.85-4.24v-.01q0-2.4.86-4.22a6.7 6.7 0 0 1 2.43-2.85 6.6 6.6 0 0 1 3.69-1.03q2.11 0 3.64.99a6.3 6.3 0 0 1 2.35 2.72q.82 1.76.82 4.1v.94h-12.5v-2.02h11.22l-1.31 1.88v-1q0-1.8-.55-2.99a3.8 3.8 0 0 0-1.5-1.74 4 4 0 0 0-2.19-.58q-1.23 0-2.22.6-.98.6-1.55 1.8a7 7 0 0 0-.57 2.9v1q0 1.64.55 2.81.57 1.16 1.6 1.79 1.03.6 2.43.61 1 0 1.76-.3.78-.3 1.3-.82.52-.51.75-1.2l.04-.12h2.55l-.03.14a5.75 5.75 0 0 1-2.13 3.27 7 7 0 0 1-4.3 1.33M610.6 179.3q-1.53 0-2.7-.58a4.4 4.4 0 0 1-1.81-1.64 4.7 4.7 0 0 1-.64-2.47v-.03a4 4 0 0 1 .65-2.3 4.6 4.6 0 0 1 1.93-1.53 9 9 0 0 1 3.04-.67l5.74-.33v2.02l-5.44.32q-1.55.09-2.42.75a2.1 2.1 0 0 0-.85 1.75v.03q0 1.11.84 1.77t2.25.66q1.22 0 2.2-.51a4 4 0 0 0 1.54-1.42q.6-.9.59-2.01v-4.58q0-1.42-.9-2.22-.88-.82-2.5-.82-1.5 0-2.42.65t-1.13 1.69l-.04.13h-2.5l.01-.16q.12-1.28.87-2.33t2.09-1.65a7 7 0 0 1 3.14-.63q1.84 0 3.17.63 1.34.62 2.07 1.77.73 1.14.73 2.69V179h-2.6v-2.52h-.05q-.45.85-1.2 1.5-.75.61-1.68.98-.93.34-1.97.34"/><path stroke="#2962ff" stroke-width="1.7" d="M468 200.85h266.15v45.3H468a5.15 5.15 0 0 1-5.15-5.15v-35c0-2.84 2.3-5.15 5.15-5.15Z"/><g fill="#d1d4dc" opacity=".4"><path d="m482.5 228.94 3.97-10.76h1.03v1.73h-.43l-3.16 9.03zm1.8-3.08.41-1.15h4.87l.41 1.15zm6.05 3.08-3.16-9.03v-1.73h.6l3.97 10.76zM500.3 229.08q-1.12 0-1.95-.52a3.4 3.4 0 0 1-1.28-1.45 5 5 0 0 1-.46-2.22v-.01q0-1.25.45-2.18a3.4 3.4 0 0 1 3.24-1.94q.97 0 1.68.34a3 3 0 0 1 1.68 2.21v.05h-1.28l-.01-.02q-.15-.6-.68-1.02a2.2 2.2 0 0 0-1.4-.42 2.2 2.2 0 0 0-2.07 1.4q-.28.67-.28 1.58v.01q0 .93.3 1.62.28.68.81 1.05t1.25.37q.81 0 1.32-.35.53-.36.74-1.02l.02-.05h1.28l-.02.08q-.16.71-.58 1.29-.4.55-1.1.88-.68.32-1.66.32M505.25 228.94V217.7h1.3v11.23zM511.94 229.08a3.36 3.36 0 0 1-3.24-1.94 5 5 0 0 1-.44-2.2q0-1.25.44-2.19a3.5 3.5 0 0 1 1.26-1.47 3.4 3.4 0 0 1 1.9-.52q1.1 0 1.88.5.8.5 1.2 1.42.44.9.43 2.1v.51h-6.44v-1.04h5.78l-.64.95v-.51q0-.96-.29-1.56a2 2 0 0 0-1.93-1.22q-.65 0-1.16.32t-.8.93-.3 1.53v.51q0 .86.29 1.47a2.2 2.2 0 0 0 2.1 1.25q.54 0 .94-.15t.66-.38q.27-.22.37-.47l.03-.06h1.3l-.02.05q-.11.42-.37.8a3 3 0 0 1-1.67 1.19q-.56.18-1.28.18M519.21 229.08q-.75 0-1.37-.3-.6-.28-.96-.82a2.3 2.3 0 0 1-.35-1.27v-.01q0-.72.34-1.23.34-.5 1-.8t1.59-.34l2.95-.18v1.03l-2.8.18q-.91.06-1.34.38-.42.33-.42.93v.01q0 .6.47.96.46.33 1.16.33.67 0 1.18-.26.5-.27.8-.72.3-.46.3-1.03v-2.5q0-.75-.45-1.14-.45-.4-1.35-.4-.73.01-1.19.26t-.62.73v.02h-1.3v-.04q.1-.65.53-1.1.41-.49 1.1-.75.66-.27 1.52-.26.99 0 1.66.32.68.32 1.04.92t.36 1.43v5.5h-1.3v-1.18h-.12a2.7 2.7 0 0 1-1.43 1.18q-.45.15-1 .15M525.05 228.94v-8.04h1.3v1.2h.12q.23-.64.78-1a2.92 2.92 0 0 1 1.73-.33l.28.04v1.26a4 4 0 0 0-.8-.08q-.6 0-1.1.25-.46.25-.75.69-.26.43-.26 1.03v4.98zM537.25 229q-1.23 0-1.8-.5-.54-.51-.55-1.65v-4.88h-1.26v-1.07h1.26v-2.08h1.35v2.08H538v1.07h-1.76v4.55q0 .7.26 1.02.27.3.9.3h.29l.3-.02v1.1zM539.6 228.94v-8.04h1.29v8.04zm.65-9.6a1 1 0 0 1-.63-.25 1 1 0 0 1-.27-.64q.01-.38.26-.63a1 1 0 0 1 .64-.26q.38 0 .63.26.26.25.26.63 0 .37-.26.64a.9.9 0 0 1-.63.26M545.81 229q-1.23 0-1.8-.5-.55-.51-.55-1.65v-4.88h-1.27v-1.07h1.27v-2.08h1.34v2.08h1.76v1.07h-1.76v4.55q0 .7.27 1.02.27.3.9.3h.29l.3-.02v1.1zM548.2 228.94V217.7h1.3v11.23zM554.88 229.08a3.36 3.36 0 0 1-3.24-1.94 5 5 0 0 1-.44-2.2q0-1.25.44-2.19a3.5 3.5 0 0 1 1.26-1.47 3.4 3.4 0 0 1 1.9-.52q1.1 0 1.88.5.8.5 1.2 1.42.44.9.43 2.1v.51h-6.44v-1.04h5.78l-.64.95v-.51q0-.96-.28-1.56a2 2 0 0 0-1.94-1.22q-.65 0-1.16.32t-.8.93-.3 1.53v.51q0 .86.29 1.47a2.2 2.2 0 0 0 2.1 1.25q.54 0 .94-.15t.66-.38q.27-.22.37-.47l.03-.06h1.3l-.02.05q-.11.42-.37.8a3 3 0 0 1-1.67 1.19q-.57.18-1.28.18M566.71 229q-1.23 0-1.8-.5-.54-.51-.54-1.65v-4.88h-1.27v-1.07h1.26v-2.08h1.35v2.08h1.76v1.07h-1.76v4.55q0 .7.27 1.02.25.3.9.3h.28l.3-.02v1.1zM569.1 228.94V217.7h1.3v4.4h.12q.3-.64.88-1 .57-.36 1.46-.35.9 0 1.53.35.62.34.95 1t.33 1.62v5.2h-1.3v-4.89q0-1.09-.46-1.6-.45-.54-1.42-.54-.65 0-1.1.28-.48.27-.74.78a3 3 0 0 0-.25 1.22v4.76zM579.84 229.08q-.75 0-1.37-.3-.6-.28-.96-.82a2.3 2.3 0 0 1-.35-1.27v-.01q0-.72.34-1.23.34-.5 1-.8t1.59-.34l2.95-.18v1.03l-2.8.18q-.9.06-1.34.38-.4.33-.41.93v.01q0 .6.46.96.46.33 1.16.33.67 0 1.18-.26.51-.27.8-.72.3-.46.3-1.03v-2.5q0-.75-.45-1.14-.45-.4-1.35-.4-.72.01-1.19.26-.45.25-.62.73v.02h-1.3v-.04q.12-.65.53-1.1a3 3 0 0 1 1.1-.75q.66-.27 1.52-.26.98 0 1.67.32t1.03.92.36 1.43v5.5h-1.3v-1.18h-.12a2.7 2.7 0 0 1-1.43 1.18q-.45.15-1 .15M588.54 229q-1.25 0-1.8-.5-.55-.51-.55-1.65v-4.88h-1.27v-1.07h1.27v-2.08h1.34v2.08h1.76v1.07h-1.76v4.55q0 .7.27 1.02.27.3.9.3h.28l.31-.02v1.1zM597.73 229.08a3.1 3.1 0 0 1-2.96-1.96 5 5 0 0 1-.41-2.2v-.01q0-1.26.41-2.2.42-.92 1.18-1.44a3 3 0 0 1 1.78-.51 3 3 0 0 1 1.9.66q.39.3.6.75h.12v-4.46h1.3v11.23h-1.3v-1.29h-.12q-.24.45-.62.77-.37.31-.85.49-.47.17-1.03.17m.3-1.15q.72 0 1.26-.37.53-.36.8-1.03.3-.69.3-1.6v-.02q0-.94-.3-1.6-.27-.68-.8-1.04a2 2 0 0 0-1.26-.37q-.74 0-1.26.37-.53.36-.8 1.03-.3.67-.29 1.6v.02q0 .94.28 1.62.29.66.8 1.03.54.36 1.27.36M607.04 229.08q-1.14 0-1.98-.5a3.4 3.4 0 0 1-1.26-1.44 5 5 0 0 1-.44-2.2q0-1.25.44-2.19.45-.93 1.26-1.47a3.4 3.4 0 0 1 1.9-.52q1.1 0 1.88.5.79.5 1.2 1.42.43.9.43 2.1v.51h-6.44v-1.04h5.78l-.64.95v-.51q0-.96-.29-1.56a2 2 0 0 0-1.93-1.22q-.65 0-1.16.32t-.8.93-.3 1.53v.51q0 .86.28 1.47a2.15 2.15 0 0 0 2.1 1.25q.54 0 .95-.15t.66-.38q.27-.22.37-.47l.03-.06h1.3l-.02.05q-.11.42-.37.8t-.68.7q-.42.3-1 .49-.56.18-1.27.18M614.86 229.08q-.9 0-1.58-.27a3 3 0 0 1-1.1-.77 2 2 0 0 1-.49-1.16h1.33q.15.5.64.81.48.3 1.25.3.54 0 .95-.15.42-.16.66-.44t.24-.65v-.01q0-.41-.33-.7-.33-.3-1.08-.47l-1.24-.3q-.75-.18-1.24-.46-.48-.3-.72-.7a2 2 0 0 1-.23-1v-.01q0-.68.4-1.2.38-.54 1.06-.84t1.53-.3q.85 0 1.5.26.64.27 1.05.75.4.48.49 1.14h-1.28a1.3 1.3 0 0 0-.58-.78q-.46-.3-1.18-.3-.48 0-.85.16-.37.15-.6.42a1 1 0 0 0-.2.63v.01q0 .27.13.48.14.2.44.37t.77.27l1.24.3q.75.18 1.25.47.5.3.75.7.24.43.24 1v.01q0 .72-.42 1.27a3 3 0 0 1-1.16.85q-.72.3-1.64.3M623 229.08q-1.12 0-1.95-.52a3.4 3.4 0 0 1-1.28-1.45 5 5 0 0 1-.46-2.22v-.01q0-1.25.45-2.18a3.4 3.4 0 0 1 3.24-1.94q.97 0 1.68.34a3 3 0 0 1 1.68 2.21v.05h-1.28l-.01-.02q-.15-.6-.68-1.02a2.2 2.2 0 0 0-1.4-.42 2.15 2.15 0 0 0-2.07 1.4q-.28.67-.28 1.58v.01q0 .93.29 1.62.3.68.82 1.05.53.37 1.25.37.81 0 1.32-.35.53-.36.74-1.02l.02-.05h1.28l-.02.08q-.15.71-.58 1.29-.41.55-1.1.88t-1.66.32M627.88 228.94v-8.04h1.3v1.2h.12q.23-.64.78-1a2.92 2.92 0 0 1 1.73-.33l.28.04v1.26a4 4 0 0 0-.8-.08q-.6 0-1.1.25-.47.25-.75.69-.26.43-.26 1.03v4.98zM633.34 228.94v-8.04h1.3v8.04zm.66-9.6a1 1 0 0 1-.63-.25 1 1 0 0 1-.27-.64q.01-.38.26-.63a1 1 0 0 1 .64-.26q.38 0 .63.26.26.25.26.63 0 .37-.26.64a.9.9 0 0 1-.63.26M640.7 229.08q-.56 0-1.04-.17-.47-.18-.84-.49a3 3 0 0 1-.62-.77h-.12v1.29h-1.3V217.7h1.3v4.45h.12q.21-.42.6-.74.37-.3.86-.48t1.04-.18q1.02 0 1.78.51.76.52 1.17 1.45.42.93.42 2.19v.01q0 1.26-.42 2.2-.41.93-1.17 1.44-.76.52-1.78.52m-.3-1.15q.75 0 1.26-.36.53-.37.8-1.03.28-.69.28-1.62v-.01q0-.94-.28-1.61-.27-.68-.8-1.03a2 2 0 0 0-1.26-.37q-.72 0-1.26.37-.53.36-.81 1.04a4 4 0 0 0-.28 1.6v.01q0 .94.28 1.6.29.68.81 1.04.54.37 1.26.37M648.99 229.08a3.36 3.36 0 0 1-3.24-1.94 5 5 0 0 1-.45-2.2q0-1.25.44-2.19a3.5 3.5 0 0 1 1.26-1.47 3.4 3.4 0 0 1 1.9-.52q1.1 0 1.88.5.8.5 1.21 1.42.42.9.42 2.1v.51h-6.44v-1.04h5.78l-.64.95v-.51q0-.96-.28-1.56a2 2 0 0 0-1.94-1.22q-.64 0-1.16.32-.5.32-.8.93t-.3 1.53v.51q0 .86.29 1.47a2.2 2.2 0 0 0 2.1 1.25q.54 0 .94-.15.41-.15.66-.38.27-.22.37-.47l.03-.06h1.3l-.02.05q-.11.42-.37.8a3 3 0 0 1-1.67 1.19q-.57.18-1.27.18M656.8 229.08q-.9 0-1.57-.27a3 3 0 0 1-1.1-.77 2 2 0 0 1-.5-1.16h1.33q.17.5.64.81.48.3 1.25.3.54 0 .95-.15.42-.16.66-.44t.24-.65v-.01q0-.41-.33-.7-.33-.3-1.07-.47l-1.25-.3q-.75-.18-1.23-.46-.5-.3-.72-.7a2 2 0 0 1-.23-1v-.01q0-.68.38-1.2a3 3 0 0 1 1.08-.84q.68-.3 1.53-.3.84 0 1.49.26.66.27 1.05.75.4.48.5 1.14h-1.28a1.3 1.3 0 0 0-.58-.78q-.45-.3-1.19-.3-.48 0-.85.16-.38.15-.59.42a1 1 0 0 0-.21.63v.01q0 .27.14.48t.44.37.76.27l1.24.3q.77.18 1.25.47.51.3.75.7.25.43.25 1v.01q0 .72-.43 1.27a3 3 0 0 1-1.15.85q-.73.3-1.64.3M666.26 231.76a3 3 0 0 1-.58-.05v-1.07l.27.03.27.01q.55 0 .9-.28.36-.3.58-.98l.15-.48-2.98-8.04h1.39l2.47 7.42-.51-.8h.61l-.51.8 2.46-7.42h1.37l-3.14 8.53q-.34.9-.7 1.4-.36.52-.85.72-.48.2-1.2.2M676.49 229.08q-1.14 0-1.98-.5a3.4 3.4 0 0 1-1.28-1.44 5 5 0 0 1-.45-2.22v-.01q0-1.29.45-2.22t1.28-1.44 1.98-.5 1.97.5q.84.51 1.28 1.44t.45 2.22v.01a5 5 0 0 1-.45 2.22 3.3 3.3 0 0 1-3.25 1.94m0-1.15q.75 0 1.29-.36.53-.36.8-1.03.3-.66.29-1.62v-.01q0-.96-.29-1.63a2 2 0 0 0-.8-1.02 2.3 2.3 0 0 0-1.3-.36q-.75 0-1.28.36-.54.36-.82 1.02-.27.68-.27 1.63v.01q0 .96.27 1.62.3.68.82 1.03.52.36 1.29.36M684.52 229.08q-.9 0-1.53-.34a2.2 2.2 0 0 1-.93-1.02q-.3-.67-.3-1.62v-5.2h1.29v4.89q0 1.08.42 1.61t1.38.53q.54 0 .93-.16.41-.15.7-.45.26-.3.4-.71a3 3 0 0 0 .14-.96v-4.75h1.3v8.04h-1.3v-1.2h-.12q-.18.42-.53.73-.33.3-.8.45-.46.15-1.05.16M690.36 228.94v-8.04h1.3v1.2h.12q.22-.64.78-1a2.92 2.92 0 0 1 1.73-.33l.29.04v1.26a4 4 0 0 0-.8-.08q-.62 0-1.1.25t-.75.69-.27 1.03v4.98zM699.74 228.94v-8.04h1.3v8.04zm.66-9.6a1 1 0 0 1-.64-.25 1 1 0 0 1-.26-.64q0-.38.26-.63a1 1 0 0 1 .64-.26q.38 0 .63.26.26.25.26.63 0 .37-.26.64a.9.9 0 0 1-.63.26M706.07 229.08a3.1 3.1 0 0 1-2.95-1.96 5 5 0 0 1-.42-2.2v-.01q0-1.26.42-2.2.41-.92 1.17-1.44a3 3 0 0 1 1.78-.51 3 3 0 0 1 1.9.66q.39.3.6.75h.13v-4.46h1.3v11.23h-1.3v-1.29h-.12q-.25.45-.62.77-.38.31-.85.49-.48.17-1.04.17m.3-1.15q.73 0 1.26-.37.53-.36.81-1.03.28-.69.28-1.6v-.02q0-.94-.28-1.6-.29-.68-.81-1.04a2 2 0 0 0-1.26-.37q-.73 0-1.26.37-.53.36-.8 1.03-.29.67-.28 1.6v.02q0 .94.27 1.62.3.66.8 1.03.54.36 1.27.36M715.38 229.08q-1.14 0-1.97-.5a3.4 3.4 0 0 1-1.27-1.44 5 5 0 0 1-.44-2.2q0-1.25.44-2.19a3.5 3.5 0 0 1 1.26-1.47 3.4 3.4 0 0 1 1.9-.52q1.1 0 1.88.5.8.5 1.2 1.42.44.9.43 2.1v.51h-6.44v-1.04h5.78l-.64.95v-.51q0-.96-.29-1.56a2 2 0 0 0-1.93-1.22q-.65 0-1.16.32t-.8.93-.3 1.53v.51q0 .86.29 1.47a2.2 2.2 0 0 0 2.1 1.25q.54 0 .94-.15t.66-.38q.27-.22.37-.47l.03-.06h1.3l-.02.05q-.11.42-.37.8t-.68.7q-.42.3-1 .49-.56.18-1.27.18M722.65 229.08q-.75 0-1.37-.3-.6-.28-.96-.82a2.3 2.3 0 0 1-.35-1.27v-.01q0-.72.34-1.23.34-.5 1-.8t1.59-.34l2.95-.18v1.03l-2.8.18q-.9.06-1.34.38-.42.33-.42.93v.01q0 .6.47.96.46.33 1.16.33.66 0 1.18-.26.51-.27.8-.72.3-.46.3-1.03v-2.5q0-.75-.45-1.14-.45-.4-1.35-.4-.73.01-1.19.26t-.62.73v.02h-1.3v-.04q.12-.65.53-1.1a3 3 0 0 1 1.1-.75 4 4 0 0 1 1.52-.26q.99 0 1.66.32.69.32 1.04.92t.36 1.43v5.5h-1.3v-1.18h-.12a2.8 2.8 0 0 1-1.43 1.18q-.45.15-1 .15"/></g><path fill="url(#bl3lwjta1)" d="M462 306h273v134H462z"/><path fill="#1b1b1b" d="M462 274.79a6.8 6.8 0 0 1 6.79-6.79H728.2a6.8 6.8 0 0 1 6.79 6.79V306H462z"/><path fill="#dbdbdb" fill-rule="evenodd" d="M475.85 279.55H475v15.27h9.33a4.24 4.24 0 0 0 2.07-7.95 4.23 4.23 0 0 0-2.92-7.32zm7.63 6.78a2.55 2.55 0 1 0 0-5.09h-6.78v5.1zm-6.78 1.7v5.09h7.63a2.55 2.55 0 0 0 0-5.1h-7.63M517.38 280.4h-4.99v-.85h11.03v.84h-5.17l-3.39 13.58h5.17v.85H509v-.85h4.99zM550.54 279.97c-2.16 0-3.77 1.42-3.77 3.02 0 1.43 1.3 2.73 3.15 2.97h7.66v.85H544v-.85h3.6c-1.01-.7-1.68-1.75-1.68-2.97 0-2.21 2.15-3.87 4.62-3.87 2.27 0 4.25 1.4 4.57 3.33l-.84.14c-.23-1.42-1.76-2.62-3.73-2.62m4.49 11.4c0 .8-.43 1.54-1.17 2.1-.75.56-1.8.92-2.98.92-2.2 0-3.86-1.22-4.12-2.62l-.83.15c.35 1.95 2.52 3.32 4.95 3.32 1.34 0 2.58-.4 3.49-1.1a3.5 3.5 0 0 0 1.5-2.76c0-2.05-1.97-3.58-4.3-3.83l-.09.84c2.1.23 3.55 1.56 3.55 2.99M590.33 280.4l-5.09 13.26.8.3 5.08-13.25zm-12.2 6.9 4.63-4.36.59.62-4.3 4.04 4.3 4.05-.59.62-4.63-4.36a.42.42 0 0 1 0-.62m20.1 0-4.74-4.35-.58.63 4.4 4.02-4.4 4.03.58.63 4.74-4.34a.43.43 0 0 0 0-.63M621.54 279.55h-1l-1.5 1.06.5.69 1.15-.84v4.18h-.84v.84h2.54v-.84h-.85zm3.4 1.7h13.57v-.86h-13.57zm0 6.78h13.57v-.85h-13.57zm13.57 6.79h-13.57v-.85h13.57zM619.86 291a.74.74 0 0 1 1.47 0c0 .17-.11.35-.35.64l-1.98 2.32v.85h3.4v-.85h-2.28l1.5-1.78c.22-.25.56-.65.56-1.18a1.59 1.59 0 1 0-3.17 0zM659.85 281.23a.85.85 0 1 0 0-1.7.85.85 0 0 0 0 1.7m2.55-.34h13.57v-.85H662.4zm-2.55 7.18a.85.85 0 1 0 0-1.7.85.85 0 0 0 0 1.7m2.55-.4h13.57v-.84H662.4zm-1.7 6.3a.85.85 0 1 1-1.7 0 .85.85 0 0 1 1.7 0m15.27.5H662.4v-.85h13.57zM697 279.97v14.42h.85v-14.42zm2.54.85h10.19v-.85h-10.19zm0 6.79h13.58v-.85h-13.58zm10.19 6.78h-10.19v-.84h10.19z" clip-rule="evenodd" opacity=".5"/><path fill="url(#cl3lwjta1)" d="M735 360h80v735h-80z" transform="rotate(90 735 360)"/><g filter="url(#dl3lwjta1)"><rect width="440" height="415" fill="#1f1f1f" rx="16"/><rect width="439" height="414" x=".5" y=".5" stroke="#fff" stroke-opacity=".1" rx="15.5"/></g><path fill="#b8b8b8" d="M398.28 382.9q.68 0 1.32.26.65.27 1.19.84.53.59.85 1.54t.32 2.35v.01q0 1.68-.45 2.88-.44 1.2-1.28 1.82a3.3 3.3 0 0 1-2.03.63q-.82 0-1.48-.3t-1.1-.85a3 3 0 0 1-.6-1.27l-.03-.1h1.24l.03.08q.15.4.41.71.27.3.67.47.39.16.87.16a2 2 0 0 0 1.44-.52q.55-.52.82-1.4a7 7 0 0 0 .31-2.07v-.19l-.3-1.64q0-.65-.29-1.17-.3-.53-.79-.83a2 2 0 0 0-1.1-.32q-.62 0-1.11.3t-.8.83-.3 1.15v.02q0 .65.29 1.17a2.1 2.1 0 0 0 1.9 1.08q.62 0 1.12-.28.5-.3.8-.79.29-.5.29-1.15h.4v1.77h-.24q-.18.4-.54.75t-.87.56q-.52.22-1.18.22a3.2 3.2 0 0 1-2.78-1.61 3.4 3.4 0 0 1-.42-1.7q0-1 .45-1.76.45-.77 1.21-1.2a3.5 3.5 0 0 1 1.76-.45M407.37 393v-8.5h-.12l-2.64 1.82v-1.3l2.76-1.88h1.23V393zM412.7 393v-.85l3.23-3.6q.6-.7.96-1.13.35-.45.48-.81.15-.37.14-.8v-.01q0-.52-.21-.94a1.6 1.6 0 0 0-.62-.64 2 2 0 0 0-.96-.24q-.57 0-1 .24-.42.24-.66.68a2 2 0 0 0-.24 1.01v.01h-1.18q0-.89.4-1.56.41-.68 1.13-1.07a3.4 3.4 0 0 1 1.63-.39q.84 0 1.52.37.67.35 1.06.97.4.63.4 1.43 0 .57-.2 1.09a5 5 0 0 1-.67 1.15q-.48.63-1.35 1.56l-2.46 2.63.3-.57v.57l-.3-.2h4.83v1.1zM330.44 393.23q-.92 0-1.64-.36a2.96 2.96 0 0 1-1.65-2.4v-.07h1.18v.05a1.9 1.9 0 0 0 1.09 1.47q.45.23 1.03.23.65 0 1.14-.3.5-.29.77-.8.29-.51.28-1.17v-.02q0-.65-.28-1.16-.27-.5-.77-.8-.49-.3-1.12-.29-.5 0-.9.15a2 2 0 0 0-1.18 1.04h-1.06l.5-5.66h5.47v1.1h-4.49l-.33 3.33h.11q.22-.32.53-.56.33-.22.72-.34.4-.12.84-.12a3.1 3.1 0 0 1 2.76 1.6q.4.73.4 1.7 0 1-.43 1.76-.45.75-1.21 1.2-.77.42-1.76.42M339.14 393.16q-1 0-1.73-.35-.75-.35-1.18-.95t-.5-1.39v-.08h1.18l.01.07q.04.48.33.85t.78.58q.49.2 1.11.2t1.1-.22.73-.62q.27-.4.27-.92v-.02q0-.9-.59-1.4a2.4 2.4 0 0 0-1.58-.48h-1.2v-1.04h1.14q.58 0 1-.22.45-.23.69-.6.25-.4.25-.9 0-.53-.21-.89a1.4 1.4 0 0 0-.63-.55 2 2 0 0 0-.98-.2q-.55 0-1 .2t-.7.56a2 2 0 0 0-.32.86v.07h-1.19v-.07q.1-.8.5-1.4.42-.6 1.12-.94.69-.34 1.59-.34.92 0 1.6.33.69.31 1.06.9.39.56.39 1.31v.02a2.2 2.2 0 0 1-.98 1.87q-.46.3-1.05.44v.03q1.05.09 1.7.73.63.63.64 1.69v.01q0 .83-.44 1.47a3 3 0 0 1-1.19 1.03q-.75.36-1.72.36M10.55 255v-12.68h4.74q1.9 0 3.22.74 1.34.73 2.04 2.14.7 1.4.71 3.4v.01a8 8 0 0 1-.7 3.46 5 5 0 0 1-2.04 2.18q-1.33.75-3.23.75zm2.26-1.9h2.18q1.27 0 2.15-.53.88-.51 1.35-1.5.47-1 .47-2.42v-.02q0-1.4-.48-2.38a3.4 3.4 0 0 0-1.35-1.5q-.89-.53-2.14-.53h-2.18zM23.17 255v-9.59h2.18V255zm1.1-11.19q-.54 0-.93-.38a1.2 1.2 0 0 1-.38-.9q0-.53.38-.92.4-.37.92-.37.54 0 .92.37.38.38.38.92 0 .53-.38.9-.38.39-.92.38M31.18 255.2q-1.2 0-2.1-.36a3.4 3.4 0 0 1-1.39-.97q-.51-.62-.6-1.43v-.02h2.17v.01q.17.51.65.83.5.32 1.3.32.56 0 .96-.15.42-.16.65-.43.24-.28.24-.64a.9.9 0 0 0-.34-.7q-.34-.3-1.13-.48l-1.56-.35q-.9-.2-1.5-.56-.6-.35-.9-.89-.3-.53-.3-1.23 0-.89.5-1.53.48-.66 1.36-1.03a5 5 0 0 1 1.99-.37q1.17 0 2.01.36.85.34 1.32.96.48.63.55 1.4v.03h-2.07v-.03a1.3 1.3 0 0 0-.58-.78 2 2 0 0 0-1.24-.32q-.48 0-.86.14-.37.15-.6.42a1 1 0 0 0-.2.62v.01q0 .28.13.5.15.2.47.36t.83.28l1.55.35q1.41.3 2.1.94.66.62.67 1.67v.01q0 .92-.53 1.61-.52.69-1.45 1.06-.9.38-2.1.38M41.1 255.2q-1.44 0-2.47-.6a4 4 0 0 1-1.57-1.72 6 6 0 0 1-.55-2.7v-.01q0-1.55.55-2.66.55-1.1 1.57-1.7 1.03-.6 2.47-.6 1.23 0 2.12.44.9.43 1.41 1.19.54.75.65 1.73v.05h-2.06v-.03a2 2 0 0 0-.7-1.15Q42 247 41.12 247q-.75 0-1.28.38-.52.37-.81 1.08a5 5 0 0 0-.28 1.73v.01q0 1.02.28 1.74t.82 1.11q.52.38 1.27.38.86 0 1.37-.39.53-.39.72-1.14l.02-.04h2.06l-.01.06q-.15.99-.68 1.72-.52.75-1.4 1.15-.87.41-2.09.41M46.92 255v-9.59h2.18V255zm1.1-11.19q-.54 0-.93-.38a1.2 1.2 0 0 1-.37-.9q0-.53.37-.92.39-.37.93-.37.53 0 .91.37.38.38.38.92 0 .53-.38.9-.38.39-.91.38M51.31 258.19v-12.78h2.18v1.51h.15a3 3 0 0 1 1.68-1.46q.56-.2 1.24-.2a3.6 3.6 0 0 1 3.45 2.31q.48 1.12.49 2.62v.02q0 1.53-.49 2.64a4 4 0 0 1-1.36 1.71q-.88.6-2.1.6-.65 0-1.22-.2a3 3 0 0 1-1-.6 3 3 0 0 1-.69-.89h-.15v4.72zm4.56-4.88q.75 0 1.29-.37.53-.37.82-1.07.3-.7.3-1.66v-.02q0-.96-.3-1.66t-.82-1.06a2 2 0 0 0-1.29-.38q-.74 0-1.28.38-.54.37-.84 1.07-.29.68-.29 1.65v.02q0 .96.3 1.66t.83 1.07 1.28.37M62.3 255v-13.3h2.18V255zM66.78 255v-9.59h2.18V255zm1.1-11.19q-.53 0-.92-.38a1.2 1.2 0 0 1-.38-.9q0-.53.38-.92.4-.37.92-.37.54 0 .92.37.38.38.38.92 0 .53-.38.9-.38.39-.92.38M71.18 255v-9.59h2.18v1.47h.15q.33-.78 1.03-1.21.7-.45 1.74-.45 1.62 0 2.46.93t.85 2.64V255H77.4v-5.7q0-1.12-.47-1.67-.48-.57-1.45-.57-.66 0-1.14.3-.46.28-.73.81-.25.52-.25 1.24V255zM85.8 255.2q-1.43 0-2.45-.61-1.02-.6-1.57-1.72a6 6 0 0 1-.56-2.64v-.01q0-1.5.55-2.63a4.2 4.2 0 0 1 3.93-2.37q1.37 0 2.35.6.99.6 1.53 1.68t.54 2.53v.72h-7.8v-1.46h6.72l-1.03 1.37v-.87q0-.96-.3-1.6a2.1 2.1 0 0 0-1.98-1.26q-.67 0-1.2.34-.52.31-.83.96-.3.63-.3 1.56v.88q0 .88.3 1.5.3.64.84.98.55.33 1.31.33.6 0 1.01-.17.43-.18.69-.41.27-.24.37-.47l.03-.07h2.07l-.02.1q-.11.46-.42.94-.3.48-.82.89-.5.4-1.25.66-.74.24-1.7.24M96.15 255v-9.59h2.18V255zm1.1-11.19q-.54 0-.92-.38a1.2 1.2 0 0 1-.38-.9q0-.53.38-.92.38-.37.92-.37t.91.37q.39.38.38.92 0 .53-.38.9-.37.39-.91.38M100.54 255v-9.59h2.18v1.47h.15a2.7 2.7 0 0 1 1.04-1.21q.69-.45 1.74-.45 1.6 0 2.45.93t.85 2.64V255h-2.18v-5.7q0-1.12-.48-1.67-.46-.57-1.45-.57-.66 0-1.13.3-.47.28-.73.81-.26.52-.26 1.24V255zM118.74 255v-10.78h-3.9v-1.9h10.06v1.9H121V255zM125.44 255v-9.59h2.18v1.48h.15q.24-.78.88-1.2.63-.45 1.58-.44a4 4 0 0 1 .88.1v1.96l-.54-.09-.54-.03q-.74 0-1.28.27-.53.27-.83.77-.3.51-.3 1.2V255zM134.91 255.16q-.9 0-1.63-.35a3 3 0 0 1-1.12-1q-.4-.65-.4-1.52v-.01q0-.87.42-1.48t1.23-.97q.81-.34 1.98-.42l3.56-.21v1.44l-3.25.21q-.9.06-1.35.39-.44.33-.44.92v.02q0 .6.46.96.47.34 1.2.34.66 0 1.18-.26.52-.27.81-.72t.3-1.02v-3.03q0-.72-.45-1.1-.46-.4-1.35-.4-.75 0-1.23.27-.48.26-.64.74v.03h-2.07v-.06q.13-.83.64-1.43.52-.6 1.4-.94a6 6 0 0 1 2-.34q1.25 0 2.1.38a2.9 2.9 0 0 1 1.77 2.84V255h-2.17v-1.33h-.15q-.26.47-.68.8t-.95.51a4 4 0 0 1-1.17.18M145.63 255.16q-1.2 0-2.08-.6a4 4 0 0 1-1.37-1.71 7 7 0 0 1-.49-2.64v-.02q0-1.52.48-2.63.49-1.11 1.36-1.7.9-.6 2.1-.6a3.5 3.5 0 0 1 2.23.78q.44.38.69.9h.15v-5.24h2.18V255h-2.18v-1.5h-.15a3 3 0 0 1-1.68 1.47q-.56.19-1.24.19m.69-1.85q.73 0 1.27-.37t.84-1.07q.3-.69.3-1.65v-.02q0-.97-.3-1.66-.3-.7-.84-1.07a2 2 0 0 0-1.27-.38 2.2 2.2 0 0 0-2.11 1.45q-.3.68-.3 1.65v.02q0 .96.3 1.67.3.7.82 1.06.54.37 1.29.37M153.19 255v-9.59h2.18V255zm1.1-11.19q-.54 0-.93-.38a1.2 1.2 0 0 1-.37-.9q0-.53.37-.92.39-.37.93-.37.53 0 .91.37.38.38.38.92 0 .53-.38.9-.38.39-.91.38M157.58 255v-9.59h2.18v1.47h.15q.34-.78 1.04-1.21.69-.45 1.74-.45 1.6 0 2.45.93t.85 2.64V255h-2.19v-5.7q0-1.12-.47-1.67-.47-.57-1.45-.57-.66 0-1.13.3-.47.28-.74.81a3 3 0 0 0-.25 1.24V255zM172.23 258.38q-1.26 0-2.19-.35a3.4 3.4 0 0 1-1.44-.95q-.52-.6-.64-1.4v-.03h2.19v.03q.13.45.66.74a3 3 0 0 0 1.46.3q1.11 0 1.73-.5t.62-1.42v-1.83h-.14a3 3 0 0 1-1.7 1.42q-.57.18-1.23.18-1.2 0-2.1-.58-.89-.6-1.37-1.63-.47-1.04-.47-2.4v-.01q0-1.39.48-2.45t1.37-1.65q.9-.6 2.13-.6.66 0 1.23.21a3 3 0 0 1 1.68 1.52h.11v-1.57h2.2v9.35q0 1.1-.57 1.91t-1.58 1.26a6 6 0 0 1-2.43.44m0-5.55q.75 0 1.3-.36.53-.36.83-1 .3-.66.3-1.5v-.02q0-.85-.3-1.5a2.22 2.22 0 0 0-2.13-1.38q-.75 0-1.3.36-.51.36-.8 1.01-.28.66-.28 1.5v.02q0 .85.28 1.5t.8 1q.55.37 1.3.37M180.59 255.17q-.6 0-1-.4t-.4-.98.4-.98q.4-.4 1-.4t1 .4.4.98a1.35 1.35 0 0 1-1.4 1.38m0-6.52q-.6 0-1-.4t-.4-.98q0-.6.4-.98.4-.4 1-.4t1 .4.4.98a1.36 1.36 0 0 1-1.4 1.38M192.07 255v-10.78h-3.9v-1.9h10.06v1.9h-3.9V255zM199.99 255v-13.3h2.19v5.18h.15q.33-.78 1.03-1.21.7-.45 1.74-.45 1.06 0 1.8.42.75.42 1.12 1.22.39.8.39 1.94v6.2h-2.18v-5.7q0-1.11-.48-1.67-.47-.57-1.46-.57-.66 0-1.13.3-.46.28-.73.81a3 3 0 0 0-.25 1.24V255zM214.62 255.2q-1.43 0-2.45-.61-1.02-.6-1.57-1.72a6 6 0 0 1-.56-2.64v-.01q0-1.5.55-2.63a4.2 4.2 0 0 1 3.93-2.37q1.37 0 2.35.6.99.6 1.53 1.68t.54 2.53v.72h-7.8v-1.46h6.72l-1.03 1.37v-.87q0-.96-.3-1.6a2 2 0 0 0-.8-.94 2 2 0 0 0-1.18-.32q-.68 0-1.2.34-.52.31-.83.96-.3.63-.3 1.56v.88q0 .88.3 1.5.3.64.84.98.55.33 1.31.33.6 0 1.01-.17t.69-.41.37-.47l.02-.07h2.08l-.02.1q-.11.46-.42.94-.3.48-.82.89-.5.4-1.25.66-.74.24-1.71.24M225.17 255v-12.68h2.26V255zM229.86 255v-9.59h2.17v1.47h.15q.35-.78 1.04-1.21.69-.45 1.74-.45 1.62 0 2.45.93.86.93.86 2.64V255h-2.2v-5.7q0-1.12-.47-1.67-.46-.57-1.45-.57-.66 0-1.13.3-.47.28-.73.81-.25.52-.25 1.24V255zM243.84 255.16q-1.2 0-2.09-.6a4 4 0 0 1-1.37-1.71 7 7 0 0 1-.48-2.64v-.02q0-1.52.47-2.63.49-1.11 1.37-1.7.88-.6 2.1-.6a3.5 3.5 0 0 1 2.23.78q.44.38.69.9h.14v-5.24h2.18V255h-2.18v-1.5h-.15a3 3 0 0 1-1.67 1.47q-.58.19-1.24.19m.68-1.85q.75 0 1.28-.37.54-.37.83-1.07.3-.69.3-1.65v-.02q0-.97-.3-1.66-.3-.7-.83-1.07a2 2 0 0 0-1.28-.38 2.2 2.2 0 0 0-2.1 1.45q-.3.68-.3 1.65v.02q0 .96.3 1.67.28.7.82 1.06t1.28.37M251.4 255v-9.59h2.17V255zm1.1-11.19q-.55 0-.93-.38a1.2 1.2 0 0 1-.38-.9q0-.53.38-.92.39-.37.92-.37t.92.37q.37.38.37.92 0 .53-.37.9-.38.39-.92.38M259.9 255.2q-1.44 0-2.47-.6-1.02-.6-1.57-1.72a6 6 0 0 1-.55-2.7v-.01q0-1.55.55-2.66.54-1.1 1.57-1.7 1.02-.6 2.47-.6 1.23 0 2.12.44.9.43 1.41 1.19.53.75.65 1.73v.05h-2.06l-.01-.03a2 2 0 0 0-.69-1.15q-.52-.45-1.41-.45-.75 0-1.29.38-.53.37-.8 1.08a5 5 0 0 0-.28 1.73v.01q0 1.02.28 1.74t.81 1.11 1.28.38q.85 0 1.37-.39t.72-1.14l.02-.04h2.05v.06q-.15.99-.68 1.72-.52.75-1.4 1.15-.87.41-2.09.41M268.32 255.16q-.91 0-1.63-.35a3 3 0 0 1-1.12-1q-.4-.65-.4-1.52v-.01q0-.87.41-1.48.43-.61 1.24-.97.81-.34 1.98-.42l3.55-.21v1.44l-3.24.21q-.91.06-1.36.39-.43.33-.43.92v.02q0 .6.46.96.46.34 1.2.34.66 0 1.17-.26.52-.27.82-.72t.3-1.02v-3.03q0-.72-.46-1.1-.45-.4-1.34-.4-.76 0-1.23.27-.48.26-.64.74l-.01.03h-2.07l.01-.06q.12-.83.63-1.43.54-.6 1.4-.94a6 6 0 0 1 2.01-.34q1.23 0 2.1.38.87.39 1.31 1.11t.45 1.73V255h-2.16v-1.33h-.15q-.26.47-.68.8t-.95.51q-.54.18-1.17.18M279.34 255.05q-1.65 0-2.38-.6-.72-.6-.72-2v-5.35h-1.49v-1.69h1.49v-2.36h2.22v2.36h2.01v1.69h-2.01v4.85q0 .71.3 1.04.3.32.98.32a7 7 0 0 0 .73-.04v1.69a9 9 0 0 1-1.13.1M286.23 255.2q-1.44 0-2.47-.6a4 4 0 0 1-1.6-1.73 6 6 0 0 1-.55-2.66v-.02q0-1.53.56-2.65t1.6-1.72 2.46-.6q1.42 0 2.46.6 1.03.6 1.6 1.7.56 1.13.56 2.67v.02q0 1.55-.56 2.66-.55 1.12-1.6 1.73-1.02.6-2.46.6m0-1.78q.76 0 1.29-.38t.8-1.1q.3-.72.29-1.73v-.02q0-1.01-.28-1.72a2.3 2.3 0 0 0-.82-1.1 2 2 0 0 0-1.28-.38q-.76 0-1.29.38-.52.38-.81 1.1a5 5 0 0 0-.28 1.72v.02q0 1.02.28 1.74.27.72.8 1.09.55.38 1.3.38M292.57 255v-9.59h2.18v1.48h.15q.25-.78.88-1.2.64-.45 1.58-.44a4 4 0 0 1 .88.1v1.96l-.54-.09-.54-.03q-.73 0-1.28.27a2 2 0 0 0-.83.77q-.3.51-.3 1.2V255zM307.22 255v-10.78h-3.9v-1.9h10.06v1.9h-3.9V255zM315.14 255v-13.3h2.18v5.18h.15q.35-.78 1.04-1.21.69-.45 1.74-.45 1.06 0 1.8.42.75.42 1.12 1.22t.38 1.94v6.2h-2.17v-5.7q0-1.11-.48-1.67-.46-.57-1.47-.57-.64 0-1.12.3-.47.28-.73.81-.26.52-.26 1.24V255zM328.3 255.16q-.93 0-1.63-.35a3 3 0 0 1-1.13-1q-.4-.65-.4-1.52v-.01q0-.87.42-1.48t1.23-.97q.81-.34 1.98-.42l3.56-.21v1.44l-3.25.21q-.9.06-1.35.39-.44.33-.44.92v.02q0 .6.46.96.47.34 1.2.34.66 0 1.18-.26.52-.27.81-.72t.3-1.02v-3.03q0-.72-.45-1.1-.46-.4-1.35-.4-.75 0-1.23.27-.47.26-.64.74v.03h-2.07v-.06q.13-.83.64-1.43.52-.6 1.4-.94a6 6 0 0 1 2-.34q1.24 0 2.1.38.87.39 1.32 1.11t.45 1.73V255h-2.17v-1.33h-.14q-.27.47-.7.8-.4.34-.94.51-.54.18-1.17.18M339.31 255.05q-1.65 0-2.37-.6t-.73-2v-5.35h-1.49v-1.69h1.49v-2.36h2.22v2.36h2.01v1.69h-2v4.85q0 .71.29 1.04.3.32.98.32a7 7 0 0 0 .73-.04v1.69a9 9 0 0 1-1.13.1M349.28 255l-3.4-12.68h2.36l2.18 9.53h.12l2.5-9.53h2.02l2.53 9.53h.12l2.17-9.53h2.34l-3.4 12.68h-2.12l-2.58-9.08h-.13l-2.57 9.08zM367 255.2q-1.43 0-2.46-.6a4 4 0 0 1-1.6-1.73 6 6 0 0 1-.55-2.66v-.02q0-1.53.57-2.65.55-1.12 1.59-1.72 1.03-.6 2.46-.6 1.42 0 2.46.6t1.6 1.7q.56 1.13.56 2.67v.02q0 1.55-.56 2.66-.55 1.12-1.6 1.73-1.02.6-2.46.6m0-1.78q.78 0 1.3-.38.53-.38.8-1.1.3-.72.29-1.73v-.02q0-1.01-.28-1.72a2.3 2.3 0 0 0-.82-1.1 2 2 0 0 0-1.28-.38q-.75 0-1.28.38-.54.38-.82 1.1a5 5 0 0 0-.28 1.72v.02q0 1.02.28 1.74t.8 1.09q.54.38 1.3.38M373.35 255v-9.59h2.18v1.48h.15q.25-.78.88-1.2.64-.45 1.58-.44a4 4 0 0 1 .88.1v1.96l-.53-.09-.55-.03q-.73 0-1.27.27a2 2 0 0 0-.84.77q-.3.51-.3 1.2V255zM380.4 255v-13.3h2.19V255zm6.04 0-3.23-4.35 1.61-1.34 4.25 5.69zm-4.04-3.17-.08-2.48h.42l3.54-3.94h2.53l-4.18 4.4-.98.74zM393.51 255.2q-1.2 0-2.1-.36a3.4 3.4 0 0 1-1.39-.97q-.51-.62-.6-1.43v-.02h2.17v.01q.17.51.66.83.48.32 1.3.32.56 0 .95-.15.42-.16.65-.43.24-.28.24-.64a.9.9 0 0 0-.34-.7q-.34-.3-1.13-.48l-1.56-.35q-.9-.2-1.5-.56-.6-.35-.9-.89-.3-.53-.29-1.23 0-.89.48-1.53.5-.66 1.37-1.03a5 5 0 0 1 2-.37q1.16 0 2 .36.85.34 1.32.96.48.63.55 1.4v.03h-2.07v-.03a1.3 1.3 0 0 0-.58-.78 2 2 0 0 0-1.24-.32q-.48 0-.86.14-.37.15-.6.42a1 1 0 0 0-.2.62v.01q0 .28.13.5.15.2.47.36t.83.28l1.55.35q1.41.3 2.1.94.67.62.67 1.67v.01q0 .92-.53 1.61-.52.69-1.45 1.06-.9.38-2.1.38M14.9 279v-10.45h-.14l-3.33 2.22v-2.12l3.48-2.33h2.25V279zM26.23 279.3q-1.5 0-2.56-.8a5 5 0 0 1-1.66-2.3q-.57-1.5-.57-3.54v-.01q0-2.06.57-3.54.59-1.48 1.66-2.3 1.07-.8 2.56-.8 1.5 0 2.58.8 1.07.82 1.65 2.3.58 1.5.58 3.54v.01q0 2.06-.58 3.54a5 5 0 0 1-1.65 2.3q-1.07.8-2.58.8m0-1.82q.81 0 1.37-.58.56-.59.86-1.65.3-1.08.3-2.59v-.01q0-1.5-.3-2.58a4 4 0 0 0-.86-1.64 1.8 1.8 0 0 0-1.37-.58q-.78 0-1.35.58-.56.57-.86 1.64t-.3 2.58v.01q0 1.5.3 2.59.3 1.06.86 1.65t1.35.58M37.58 279.3q-1.5 0-2.57-.8a5 5 0 0 1-1.65-2.3q-.57-1.5-.57-3.54v-.01q0-2.06.57-3.54.59-1.48 1.65-2.3 1.07-.8 2.57-.8t2.57.8 1.66 2.3q.58 1.5.58 3.54v.01q0 2.06-.58 3.54a5 5 0 0 1-1.66 2.3q-1.07.8-2.57.8m0-1.82q.81 0 1.36-.58.56-.59.86-1.65.3-1.08.3-2.59v-.01q0-1.5-.3-2.58a4 4 0 0 0-.86-1.64 1.8 1.8 0 0 0-1.36-.58q-.8 0-1.35.58-.57.57-.87 1.64-.29 1.07-.29 2.58v.01q0 1.5.3 2.59.3 1.06.86 1.65.55.58 1.35.58M47 273.15a2.7 2.7 0 0 1-1.51-.42q-.64-.44-.98-1.22a5 5 0 0 1-.34-1.86v-.01q0-1.08.34-1.86.34-.79.98-1.22a2.7 2.7 0 0 1 1.52-.42q.89 0 1.53.42.63.43.98 1.22.34.78.34 1.86t-.34 1.87-.98 1.22q-.64.42-1.53.42m0-1.28q.61 0 .94-.58.33-.6.33-1.64v-.01q0-1.06-.33-1.64-.33-.59-.93-.58-.6 0-.93.58a3.4 3.4 0 0 0-.33 1.64q0 1.06.33 1.65t.93.58m1.57 7.13h-1.8l8.54-12.68h1.8zm8.29.18q-.9 0-1.53-.43-.64-.43-.97-1.2a5 5 0 0 1-.35-1.88v-.01q0-1.08.35-1.86.34-.8.97-1.2.64-.43 1.53-.43.9 0 1.52.42.65.43.98 1.2.35.8.35 1.87 0 1.09-.35 1.88-.33.79-.98 1.21-.63.43-1.52.43m0-1.28q.6 0 .92-.58.34-.6.34-1.65v-.01q0-1.05-.34-1.64-.32-.57-.92-.57t-.93.57-.33 1.64q0 1.08.33 1.66t.93.58M70.15 279.2q-1.44 0-2.47-.6a4 4 0 0 1-1.6-1.73 6 6 0 0 1-.55-2.66v-.02q0-1.53.56-2.65t1.6-1.72q1.03-.6 2.46-.6 1.42 0 2.46.6 1.03.6 1.6 1.7.56 1.13.56 2.67v.02q0 1.55-.56 2.66-.55 1.12-1.6 1.73-1.02.6-2.46.6m0-1.78q.76 0 1.29-.38t.8-1.1q.3-.72.29-1.73v-.02q0-1.01-.28-1.72a2.3 2.3 0 0 0-.82-1.1 2 2 0 0 0-1.28-.38q-.76 0-1.29.38-.52.38-.82 1.1a5 5 0 0 0-.28 1.72v.02q0 1.02.28 1.74.3.72.81 1.09.54.38 1.3.38M77.18 279v-7.9h-1.55v-1.69h1.55v-.96q0-.96.33-1.58t1.02-.95a4 4 0 0 1 1.76-.31 7 7 0 0 1 1.2.1v1.52l-.32-.03-.42-.01q-.76 0-1.09.36-.32.35-.32 1.03v.83h2.07v1.69h-2.04v7.9zM91.1 279.05q-1.66 0-2.38-.6-.73-.6-.73-2v-5.35h-1.48v-1.69h1.48v-2.36h2.22v2.36h2.02v1.69H90.2v4.85q0 .71.3 1.04.3.32.99.32a7 7 0 0 0 .73-.04v1.69a9 9 0 0 1-1.14.1M94.01 279v-13.3h2.19v5.18h.15q.34-.78 1.03-1.21.7-.45 1.74-.45 1.06 0 1.8.42.75.42 1.12 1.22.39.8.39 1.94v6.2h-2.18v-5.7q0-1.11-.47-1.67-.48-.57-1.47-.57-.65 0-1.13.3-.46.29-.73.81-.25.52-.25 1.24V279zM108.64 279.2q-1.43 0-2.45-.61-1.02-.6-1.57-1.72a6 6 0 0 1-.56-2.64v-.01q0-1.51.55-2.63a4.2 4.2 0 0 1 3.94-2.37q1.36 0 2.34.6.99.6 1.53 1.68.54 1.09.54 2.53v.73h-7.8v-1.47h6.73l-1.04 1.37v-.87q0-.96-.3-1.6a2.1 2.1 0 0 0-1.98-1.26q-.67 0-1.2.34-.52.32-.83.96t-.3 1.56v.88q0 .88.3 1.5a2.2 2.2 0 0 0 2.15 1.3q.6 0 1.02-.16.42-.17.68-.41t.37-.47l.03-.07h2.07l-.02.1q-.1.46-.42.94-.3.48-.82.89-.5.4-1.24.66-.75.24-1.72.24M122.35 279v-10.77h-3.9v-1.91h10.06v1.9h-3.9V279zM130.02 279v-9.59h2.18V279zm1.1-11.19q-.54 0-.92-.38a1.2 1.2 0 0 1-.38-.9q0-.53.38-.92.38-.37.92-.37t.91.37.38.92-.38.9q-.37.38-.91.38M134.41 279v-9.59h2.18v1.49h.15q.3-.8 1-1.24a3 3 0 0 1 1.64-.44q.65 0 1.17.2a2.5 2.5 0 0 1 1.48 1.55h.15q.23-.53.66-.93.43-.39 1-.6.58-.22 1.25-.22.97 0 1.65.38.7.38 1.07 1.1.36.7.37 1.7v6.6H146v-6.06q0-.63-.2-1.04a1.3 1.3 0 0 0-.58-.63 2 2 0 0 0-.96-.2q-.57 0-1 .25-.42.25-.66.7-.22.43-.22 1V279h-2.18v-6.22q0-.54-.21-.92a1.4 1.4 0 0 0-.6-.59 2 2 0 0 0-.92-.2 1.8 1.8 0 0 0-1.64 1.02q-.24.48-.24 1.06V279zM154.38 279.2q-1.43 0-2.45-.61-1.01-.6-1.58-1.72a6 6 0 0 1-.55-2.64v-.01q0-1.51.55-2.63a4.2 4.2 0 0 1 3.93-2.37q1.37 0 2.35.6.99.6 1.53 1.68.54 1.09.53 2.53v.73h-7.8v-1.47h6.73l-1.03 1.37v-.87q0-.96-.3-1.6a2.1 2.1 0 0 0-1.98-1.26q-.68 0-1.2.34-.53.32-.83.96t-.3 1.56v.88q0 .88.3 1.5.3.64.84.98.55.33 1.31.33.6 0 1.01-.17t.69-.41.37-.47l.02-.07h2.08l-.02.1q-.12.46-.42.94t-.82.89q-.5.4-1.25.66-.74.24-1.71.24M10.44 313v-11.27h6.98v1.26h-5.58v3.62h5.3v1.25h-5.3v3.87h5.58V313zM21.86 313l-3.11-8.42h1.43l2.3 6.94h.13l2.3-6.94h1.45L23.24 313zM30.96 313.15q-1.2 0-2.07-.53a3.5 3.5 0 0 1-1.33-1.5 5 5 0 0 1-.46-2.3q0-1.31.46-2.3t1.32-1.54a3.6 3.6 0 0 1 2-.55q1.14 0 1.96.53.83.54 1.27 1.49.45.94.44 2.2v.53H27.8v-1.09h6.06l-.67 1v-.54q0-1-.3-1.64a2.1 2.1 0 0 0-2.02-1.27q-.68 0-1.22.34-.54.32-.85.97-.3.66-.3 1.6v.54q0 .89.3 1.54a2.3 2.3 0 0 0 2.2 1.3q.56 0 .98-.15.42-.16.7-.4.26-.24.38-.49l.03-.07h1.36l-.01.06q-.11.44-.4.84-.27.39-.7.72-.44.34-1.04.52-.6.2-1.34.19M36.35 313v-8.42h1.36v1.25h.12a2 2 0 0 1 .82-1.03q.58-.37 1.43-.37.2 0 .38.02l.3.03v1.32a4 4 0 0 0-.84-.07q-.64 0-1.14.25-.5.27-.8.72-.27.47-.27 1.08V313zM42.92 315.95a3 3 0 0 1-.6-.04v-1.12l.27.03h.3q.58 0 .94-.29.38-.3.6-1.02l.15-.5-3.11-8.43h1.45l2.6 7.78-.55-.85h.65l-.54.85 2.58-7.78h1.43l-3.29 8.94a6 6 0 0 1-.72 1.47q-.39.54-.9.74-.51.22-1.26.22M57.75 313.06q-1.3 0-1.89-.52-.57-.53-.57-1.73v-5.1h-1.33v-1.13h1.33v-2.18h1.4v2.18h1.85v1.12h-1.85v4.77q0 .75.28 1.07t.94.32h.3l.33-.03v1.15zM60.25 313v-8.42h1.36v1.25h.13a2 2 0 0 1 .82-1.03q.57-.37 1.43-.37.19 0 .38.02l.3.03v1.32a4 4 0 0 0-.84-.07q-.65 0-1.15.25-.5.27-.79.72-.28.47-.28 1.08V313zM68.34 313.15a3 3 0 0 1-1.44-.3q-.63-.3-1-.87a2.4 2.4 0 0 1-.37-1.33v-.02q0-.75.36-1.28.36-.54 1.04-.84.7-.3 1.67-.36l3.1-.19v1.09l-2.94.18q-.95.06-1.4.4t-.44.97v.02q0 .64.48 1 .49.35 1.22.35.7 0 1.24-.28t.84-.75.31-1.08v-2.63q0-.78-.47-1.18-.48-.42-1.42-.42-.76 0-1.24.28-.48.26-.65.75v.03h-1.37l.01-.05q.11-.66.55-1.16t1.15-.77q.7-.28 1.6-.28 1.03 0 1.74.34.72.33 1.09.96t.37 1.5V313h-1.36v-1.24h-.12a3 3 0 0 1-1.5 1.23q-.48.16-1.05.16M77.65 313.15a3.2 3.2 0 0 1-3.1-2.06 6 6 0 0 1-.43-2.3q0-1.34.44-2.3.44-.99 1.22-1.52a3.3 3.3 0 0 1 1.87-.54 3 3 0 0 1 2 .7q.4.31.62.78h.13v-4.68h1.36V313H80.4v-1.34h-.13q-.25.46-.64.8a3 3 0 0 1-.9.5q-.5.2-1.08.19m.31-1.2q.77 0 1.32-.39.56-.38.85-1.08.3-.72.3-1.68v-.02q0-.97-.3-1.68-.3-.7-.85-1.08a2.3 2.3 0 0 0-1.32-.39q-.76 0-1.32.39-.54.37-.84 1.07t-.3 1.7q0 .99.3 1.7.3.69.84 1.08.55.38 1.32.38M87.49 313.15q-1.2 0-2.07-.53a3.5 3.5 0 0 1-1.33-1.5 5 5 0 0 1-.46-2.3q0-1.31.46-2.3t1.32-1.54a3.6 3.6 0 0 1 2-.55q1.14 0 1.96.53.82.54 1.27 1.49.44.94.44 2.2v.53h-6.75v-1.09h6.06l-.68 1v-.54q0-1-.3-1.64a2.1 2.1 0 0 0-2.02-1.27q-.67 0-1.21.34-.54.32-.85.97-.3.66-.31 1.6v.54q0 .89.3 1.54a2.3 2.3 0 0 0 2.2 1.3q.57 0 1-.15.4-.16.69-.4.27-.24.38-.49l.03-.07h1.36l-.02.06q-.1.44-.39.84-.28.39-.7.72-.44.34-1.05.52-.6.2-1.33.19M92.87 313v-8.42h1.36v1.25h.13a2 2 0 0 1 .82-1.03q.57-.37 1.43-.37.2 0 .38.02l.3.03v1.32a4 4 0 0 0-.84-.07q-.64 0-1.15.25-.5.27-.78.72-.3.47-.29 1.08V313zM102.91 313v-11.77h1.36v4.61h.13q.32-.67.92-1.03.6-.38 1.53-.38t1.6.37q.66.36 1 1.05.35.7.35 1.7V313h-1.36v-5.12q0-1.14-.49-1.7-.48-.54-1.48-.55-.68 0-1.17.3-.5.28-.76.81-.27.54-.27 1.28V313zM114.25 313.15a3 3 0 0 1-1.44-.3q-.63-.3-1-.87a2.4 2.4 0 0 1-.37-1.33v-.02q0-.75.36-1.28.36-.54 1.05-.84.67-.3 1.66-.36l3.1-.19v1.09l-2.94.18q-.95.06-1.4.4t-.44.97v.02q0 .64.48 1 .49.35 1.22.35.7 0 1.24-.28t.84-.75.31-1.08v-2.63q0-.78-.47-1.18-.47-.42-1.42-.42-.76 0-1.24.28-.48.26-.65.75v.03h-1.36v-.05q.12-.66.55-1.16.45-.5 1.15-.77.7-.28 1.6-.28 1.03 0 1.74.34.72.33 1.09.96t.37 1.5V313h-1.36v-1.24h-.12a3 3 0 0 1-1.5 1.23q-.48.16-1.05.16M123.34 313.15q-.93 0-1.65-.28a3 3 0 0 1-1.16-.8 2.3 2.3 0 0 1-.5-1.22h1.38q.18.52.67.84.5.33 1.3.33.58 0 1-.17.45-.17.7-.46t.25-.68v-.01a1 1 0 0 0-.35-.73q-.34-.3-1.12-.5l-1.3-.3a5 5 0 0 1-1.3-.49 2 2 0 0 1-.75-.74q-.25-.45-.25-1.05 0-.72.41-1.26.42-.56 1.13-.88.7-.32 1.6-.32.87 0 1.56.28.69.27 1.1.78t.52 1.2h-1.34q-.14-.5-.6-.81-.49-.32-1.25-.32-.5 0-.9.17-.38.15-.6.43-.24.3-.24.66v.02q0 .27.15.5.16.21.46.38.32.15.8.29l1.3.31q1.2.3 1.77.83.6.54.59 1.44v.02q0 .75-.45 1.33-.45.57-1.2.89-.77.32-1.73.32M135.69 313.06q-1.3 0-1.89-.52-.58-.53-.58-1.73v-5.1h-1.32v-1.13h1.32v-2.18h1.41v2.18h1.84v1.12h-1.84v4.77q0 .75.28 1.07t.94.32h.3l.32-.03v1.15zM138.27 313v-11.77h1.36v4.61h.12q.32-.67.92-1.03.6-.38 1.53-.38.95 0 1.6.37.66.36 1 1.05.35.7.35 1.7V313h-1.36v-5.12q0-1.14-.48-1.7-.48-.54-1.49-.55-.67 0-1.16.3-.5.28-.77.81-.26.54-.26 1.28V313zM149.6 313.15q-.79 0-1.43-.3t-1.01-.87a2.4 2.4 0 0 1-.37-1.33v-.02q0-.75.36-1.28.37-.54 1.05-.84t1.66-.36l3.1-.19v1.09l-2.93.18q-.96.06-1.4.4-.45.35-.45.97v.02q0 .64.49 1 .48.35 1.22.35.69 0 1.23-.28t.84-.75q.32-.48.32-1.08v-2.63q0-.78-.48-1.18-.46-.42-1.41-.42-.75 0-1.24.28-.49.26-.65.75l-.01.03h-1.36v-.05q.12-.66.55-1.16.45-.5 1.15-.77.7-.28 1.6-.28 1.04 0 1.75.34.71.33 1.08.96t.38 1.5V313h-1.36v-1.24h-.13a3 3 0 0 1-1.5 1.23q-.47.16-1.04.16M158.8 313.06q-1.3 0-1.89-.52-.57-.53-.57-1.73v-5.1H155v-1.13h1.33v-2.18h1.4v2.18h1.85v1.12h-1.85v4.77q0 .75.28 1.07t.94.32h.3l.33-.03v1.15zM168.94 313.15q-1.2 0-2.07-.52a3.5 3.5 0 0 1-1.34-1.51 5 5 0 0 1-.47-2.32v-.02q0-1.35.47-2.33a3.5 3.5 0 0 1 1.34-1.5 4 4 0 0 1 2.07-.52q1.2 0 2.07.52.87.53 1.34 1.5.48.98.48 2.33v.02q0 1.35-.48 2.32a3.5 3.5 0 0 1-3.4 2.03m0-1.2q.8 0 1.36-.38.56-.37.84-1.08.3-.7.3-1.7 0-1.01-.3-1.71t-.84-1.07a2.4 2.4 0 0 0-1.36-.38q-.8 0-1.35.38-.55.36-.85 1.07a5 5 0 0 0-.29 1.7v.02q0 .99.3 1.7.28.7.84 1.07t1.35.38M174.62 313v-8.42h1.36v1.26h.12q.33-.67.93-1.03.6-.38 1.53-.38 1.41 0 2.18.81.76.8.76 2.3V313h-1.36v-5.12q0-1.14-.48-1.7-.48-.54-1.48-.55-.68 0-1.17.3-.5.28-.76.81-.27.54-.27 1.28V313zM187.08 313.15q-1.2 0-2.07-.53a3.5 3.5 0 0 1-1.32-1.5 5 5 0 0 1-.47-2.3q0-1.31.47-2.3t1.32-1.54a3.6 3.6 0 0 1 1.99-.55q1.14 0 1.97.53.83.54 1.26 1.49.45.94.45 2.2v.53h-6.75v-1.09h6.05l-.67 1v-.54q0-1-.3-1.64a2.1 2.1 0 0 0-2.02-1.27q-.68 0-1.22.34-.53.32-.84.97-.31.66-.31 1.6v.54q0 .89.3 1.54a2.3 2.3 0 0 0 2.2 1.3q.56 0 .99-.15.42-.16.7-.4t.38-.49l.03-.07h1.36l-.02.06q-.1.44-.39.84-.27.39-.71.72-.44.34-1.04.52-.6.2-1.34.19M197.22 313v-7.3h-1.4v-1.12h1.4v-.94q0-.84.27-1.39.28-.55.83-.82t1.34-.27a4 4 0 0 1 .9.07v1.09l-.28-.03h-.34q-.74-.01-1.05.34t-.31 1.05v.9h1.91v1.12h-1.91v7.3zM205.25 313.15q-1.2 0-2.07-.52a3.5 3.5 0 0 1-1.34-1.51 5 5 0 0 1-.47-2.32v-.02q0-1.35.47-2.33a3.5 3.5 0 0 1 1.34-1.5 4 4 0 0 1 2.07-.52q1.2 0 2.07.52.87.53 1.34 1.5.47.98.47 2.33v.02q0 1.35-.47 2.32a3.5 3.5 0 0 1-3.4 2.03m0-1.2q.8 0 1.35-.38.55-.37.85-1.08.3-.7.3-1.7 0-1.01-.3-1.71t-.85-1.07a2.4 2.4 0 0 0-1.35-.38q-.8 0-1.35.38-.55.36-.85 1.07-.3.7-.3 1.7v.02q0 .99.3 1.7.3.7.85 1.07.56.38 1.35.38M211 313v-11.77h1.36V313zM217.77 313.15a3.2 3.2 0 0 1-3.1-2.06 6 6 0 0 1-.43-2.3q0-1.34.43-2.3.44-.99 1.23-1.52a3.3 3.3 0 0 1 1.87-.54 3 3 0 0 1 2 .7q.4.31.62.78h.13v-4.68h1.35V313h-1.35v-1.34h-.13a3 3 0 0 1-1.54 1.3q-.5.2-1.08.19m.3-1.2q.78 0 1.33-.39.55-.38.85-1.08.3-.72.3-1.68v-.02q0-.97-.3-1.68-.3-.7-.85-1.08a2.3 2.3 0 0 0-1.32-.39q-.76 0-1.32.39-.55.37-.85 1.07-.28.7-.28 1.7 0 .99.28 1.7.3.69.85 1.08.55.38 1.32.38M227.6 313.15q-1.2 0-2.06-.53a3.5 3.5 0 0 1-1.33-1.5 5 5 0 0 1-.46-2.3q0-1.31.46-2.3t1.32-1.54a3.6 3.6 0 0 1 1.99-.55q1.14 0 1.97.53.83.54 1.26 1.49.45.94.45 2.2v.53h-6.75v-1.09h6.05l-.67 1v-.54q0-1-.3-1.64a2.1 2.1 0 0 0-2.02-1.27q-.68 0-1.22.34-.52.32-.84.97-.3.66-.31 1.6v.54q0 .89.3 1.54a2.3 2.3 0 0 0 2.2 1.3q.56 0 .99-.15.42-.16.7-.4t.38-.49l.03-.07h1.36l-.02.06q-.1.44-.39.84-.27.39-.71.72-.45.34-1.04.52-.6.2-1.34.19M233 313v-8.42h1.35v1.25h.13a2 2 0 0 1 .82-1.03q.57-.37 1.43-.37.19 0 .38.02l.3.03v1.32a4 4 0 0 0-.84-.07q-.64 0-1.15.25a2 2 0 0 0-.79.72q-.28.47-.28 1.08V313zM242.32 309.1v-1.27h12.72v1.26zM263.03 301.73l-.68 4.44h-1.56l1.23-4.44zm2.6 0-.69 4.44h-1.55l1.23-4.44zM270.34 313l-3.07-11.27h1.47l2.24 9.16h.1l2.52-9.16h1.42l2.52 9.16h.1l2.24-9.16h1.47L278.27 313h-1.32l-2.6-8.9h-.1l-2.58 8.9zM283.03 313v-8.42h1.36V313zm.69-10.05a1 1 0 0 1-.67-.27 1 1 0 0 1-.27-.66q0-.4.27-.67.28-.27.67-.27t.66.27.27.67q0 .37-.27.66a1 1 0 0 1-.66.27M286.63 313v-8.42H288v1.26h.13q.32-.67.92-1.03.6-.38 1.53-.38 1.43 0 2.18.81.77.8.77 2.3V313h-1.36v-5.12q0-1.14-.49-1.7-.47-.54-1.48-.55-.67 0-1.17.3-.48.28-.76.81-.27.54-.27 1.28V313zM295.66 313v-8.42h1.36v1.26h.13q.31-.67.92-1.03.6-.38 1.53-.38 1.42 0 2.18.81.75.8.76 2.3V313h-1.36v-5.12q0-1.14-.48-1.7-.47-.54-1.49-.55-.66 0-1.16.3-.5.28-.76.81-.27.54-.27 1.28V313zM304.72 313v-8.42h1.36V313zm.69-10.05a1 1 0 0 1-.67-.27 1 1 0 0 1-.27-.66q0-.4.27-.67.28-.27.67-.27t.66.27.27.67q0 .37-.27.66a1 1 0 0 1-.66.27M308.32 313v-8.42h1.36v1.26h.13q.32-.67.92-1.03.6-.38 1.53-.38 1.43 0 2.18.81.77.8.77 2.3V313h-1.36v-5.12q0-1.14-.49-1.7-.47-.54-1.48-.55-.68 0-1.17.3-.48.28-.76.81-.27.54-.27 1.28V313zM320.82 315.97q-1.02 0-1.77-.29a3 3 0 0 1-1.22-.8q-.45-.52-.55-1.2l.02-.02h1.4l.01.01q.11.48.66.78.54.32 1.45.32 1.13 0 1.76-.52.65-.51.65-1.44v-1.7h-.13a3 3 0 0 1-1.56 1.29q-.51.16-1.08.16-1.08 0-1.88-.51a3.4 3.4 0 0 1-1.22-1.44q-.43-.9-.43-2.1v-.01q0-1.18.43-2.1.44-.9 1.23-1.44a3.3 3.3 0 0 1 1.9-.53q.6 0 1.1.19.5.18.88.53.38.34.65.82h.09v-1.4h1.36v8.31q0 .94-.46 1.64-.45.7-1.3 1.07a5 5 0 0 1-2 .38m-.06-4.61q.78 0 1.33-.36.56-.37.86-1 .3-.66.3-1.48v-.02q0-.84-.3-1.48-.3-.65-.86-1.02a2.4 2.4 0 0 0-1.33-.37q-.79 0-1.33.37t-.83 1.02-.28 1.48v.02q0 .83.28 1.47.3.64.83 1.01.54.36 1.33.36M331.14 313v-11.27h1.4V313zM334.93 313v-8.42h1.36v1.26h.13q.31-.67.92-1.03.6-.38 1.53-.38 1.42 0 2.18.81.75.8.76 2.3V313h-1.36v-5.12q0-1.14-.48-1.7-.48-.54-1.48-.55-.67 0-1.17.3-.5.28-.76.81-.27.54-.27 1.28V313zM347.07 313.15a3.2 3.2 0 0 1-3.1-2.06 6 6 0 0 1-.43-2.3q0-1.34.43-2.3.44-.99 1.23-1.52a3.3 3.3 0 0 1 1.87-.54 3 3 0 0 1 2 .7q.4.31.62.78h.13v-4.68h1.36V313h-1.36v-1.34h-.13a3 3 0 0 1-1.54 1.3q-.5.2-1.08.19m.31-1.2q.76 0 1.32-.39.55-.38.85-1.08.3-.72.3-1.68v-.02q0-.97-.3-1.68-.3-.7-.85-1.08a2.3 2.3 0 0 0-1.32-.39q-.76 0-1.32.39-.56.37-.84 1.07-.3.7-.3 1.7 0 .99.3 1.7.3.69.84 1.08.56.38 1.32.38M353.5 313v-8.42h1.36V313zm.69-10.05a1 1 0 0 1-.67-.27 1 1 0 0 1-.27-.66q0-.4.27-.67.29-.27.67-.27t.66.27.28.67q0 .37-.28.66a1 1 0 0 1-.66.27M360.55 313.15q-1.18 0-2.05-.54a3.6 3.6 0 0 1-1.34-1.52 5 5 0 0 1-.48-2.32v-.02q0-1.3.47-2.28a3.55 3.55 0 0 1 3.4-2.04 4 4 0 0 1 1.76.36 3.1 3.1 0 0 1 1.76 2.32v.05h-1.35v-.03q-.16-.62-.72-1.06a2.3 2.3 0 0 0-1.46-.44 2.25 2.25 0 0 0-2.17 1.47q-.3.69-.3 1.65v.02q0 .96.31 1.68.3.72.86 1.1.55.4 1.3.4.85 0 1.4-.37.53-.37.77-1.07l.01-.05h1.35l-.02.08q-.17.75-.6 1.35a3 3 0 0 1-1.16.92q-.72.34-1.74.34M368.06 313.15q-.8 0-1.44-.3t-1.01-.87a2.4 2.4 0 0 1-.37-1.33v-.02q0-.75.36-1.28.36-.54 1.05-.84t1.66-.36l3.1-.19v1.09l-2.93.18q-.96.06-1.4.4-.45.35-.45.97v.02q0 .64.49 1 .48.35 1.22.35.69 0 1.23-.28t.84-.75q.32-.48.32-1.08v-2.63q0-.78-.48-1.18-.46-.42-1.41-.42-.75 0-1.25.28-.48.26-.64.75l-.01.03h-1.36v-.05q.12-.66.55-1.16.45-.5 1.15-.77.7-.28 1.6-.28 1.04 0 1.75.34.71.33 1.08.96t.38 1.5V313h-1.36v-1.24h-.13a3 3 0 0 1-1.5 1.23q-.48.16-1.05.16M377.25 313.06q-1.3 0-1.89-.52-.57-.53-.57-1.73v-5.1h-1.33v-1.13h1.33v-2.18h1.4v2.18h1.85v1.12h-1.85v4.77q0 .75.28 1.07t.94.32h.3l.33-.03v1.15zM383.1 313.15q-1.2 0-2.07-.52a3.5 3.5 0 0 1-1.34-1.51 5 5 0 0 1-.47-2.32v-.02q0-1.35.47-2.33a3.5 3.5 0 0 1 1.34-1.5 4 4 0 0 1 2.07-.52q1.2 0 2.07.52.86.53 1.34 1.5.47.98.47 2.33v.02q0 1.35-.47 2.32a3.5 3.5 0 0 1-3.4 2.03m0-1.2q.8 0 1.35-.38.55-.37.85-1.08.3-.7.3-1.7 0-1.01-.3-1.71t-.85-1.07a2.4 2.4 0 0 0-1.35-.38q-.8 0-1.35.38-.55.36-.85 1.07-.3.7-.3 1.7v.02q0 .99.3 1.7.3.7.85 1.07t1.35.38M388.78 313v-8.42h1.36v1.25h.12a2 2 0 0 1 .82-1.03q.58-.37 1.43-.37.2 0 .38.02l.3.03v1.32a4 4 0 0 0-.83-.07q-.66 0-1.15.25a2 2 0 0 0-.8.72q-.27.47-.27 1.08V313zM397.29 313.15q-.94 0-1.66-.28a3 3 0 0 1-1.15-.8 2.3 2.3 0 0 1-.51-1.22h1.39q.17.52.67.84.5.33 1.3.33.57 0 1-.17.45-.17.7-.46t.24-.68v-.01a1 1 0 0 0-.34-.73q-.34-.3-1.13-.5l-1.3-.3a5 5 0 0 1-1.3-.49 2 2 0 0 1-.75-.74q-.24-.45-.24-1.05 0-.72.4-1.26.42-.56 1.13-.88.7-.32 1.6-.32t1.56.28q.7.27 1.1.78.43.51.52 1.2h-1.33q-.15-.5-.61-.81-.48-.32-1.25-.32-.5 0-.89.17-.39.15-.61.43-.23.3-.23.66v.02q0 .27.15.5.15.21.46.38.31.15.8.29l1.3.31q1.2.3 1.77.83.58.54.58 1.44v.02q0 .75-.44 1.33-.45.57-1.21.89-.75.32-1.72.32M402.11 315.87l.68-4.45h1.56l-1.23 4.45zM404.77 306.17l.68-4.44h1.56l-1.23 4.44zm2.6 0 .68-4.44h1.55l-1.23 4.44zM12.5 325.73l-.69 4.44h-1.55l1.22-4.44zm2.59 0-.68 4.44h-1.56l1.23-4.44zM21.16 337.27a5 5 0 0 1-2.16-.4q-.9-.4-1.45-1.11a3 3 0 0 1-.62-1.63v-.08h1.4v.08q.07.56.44.98.39.4 1.01.63a4.3 4.3 0 0 0 2.82-.01q.6-.25.94-.7.35-.42.35-1 0-.7-.52-1.19-.51-.48-1.68-.74l-1.25-.27a5 5 0 0 1-2.47-1.16 2.8 2.8 0 0 1-.76-2.01v-.01q0-.94.5-1.66t1.4-1.12 2.07-.4q1.11 0 1.99.4a3.5 3.5 0 0 1 1.37 1.07q.52.69.57 1.53l.01.1h-1.4l-.02-.1a2 2 0 0 0-.4-.88 2 2 0 0 0-.88-.61q-.56-.23-1.28-.22-.71 0-1.27.22a2 2 0 0 0-.9.63q-.33.4-.33 1 0 .68.5 1.14.51.45 1.65.71l1.25.28q1.18.26 1.9.67t1.05 1.02.33 1.4v.01q0 1.05-.51 1.82-.52.76-1.45 1.2a5 5 0 0 1-2.2.4M30.62 337.15q-1.2 0-2.07-.53a3.5 3.5 0 0 1-1.33-1.5 5 5 0 0 1-.46-2.3q0-1.31.46-2.3t1.32-1.54a3.6 3.6 0 0 1 2-.55q1.14 0 1.96.53.83.54 1.26 1.49.45.94.45 2.2v.53h-6.75v-1.09h6.05l-.67 1v-.54q0-1-.3-1.64a2.1 2.1 0 0 0-2.02-1.27q-.68 0-1.22.34-.53.32-.84.97-.3.66-.31 1.6v.54q0 .89.3 1.54a2.3 2.3 0 0 0 2.2 1.3q.56 0 .99-.15.42-.16.7-.4t.38-.49l.03-.07h1.36l-.02.06q-.1.44-.39.84-.27.39-.7.72-.45.34-1.05.52-.6.2-1.33.19M39.45 337.15a3.58 3.58 0 0 1-3.4-2.06 5 5 0 0 1-.47-2.32v-.02q0-1.3.47-2.28a3.55 3.55 0 0 1 3.39-2.04 4 4 0 0 1 1.77.36 3.1 3.1 0 0 1 1.75 2.32l.01.05h-1.35v-.03q-.17-.62-.72-1.06a2.3 2.3 0 0 0-1.46-.44 2.25 2.25 0 0 0-2.17 1.47q-.3.69-.3 1.65v.02q0 .96.3 1.68t.87 1.1q.55.4 1.3.4.85 0 1.4-.37.52-.37.76-1.07l.02-.05h1.34l-.01.08q-.18.75-.61 1.35-.45.6-1.16.92-.71.34-1.73.34M44.64 337v-8.42H46v1.25h.12a2 2 0 0 1 .82-1.03q.59-.37 1.43-.37.2 0 .39.02l.3.03v1.32a4 4 0 0 0-.84-.07q-.66 0-1.15.25-.5.27-.79.72-.28.47-.28 1.08V337zM53.62 337.15q-1.2 0-2.07-.53a3.5 3.5 0 0 1-1.33-1.5 5 5 0 0 1-.46-2.3q0-1.31.46-2.3t1.32-1.54a3.6 3.6 0 0 1 2-.55q1.14 0 1.96.53.83.54 1.27 1.49.44.94.44 2.2v.53h-6.75v-1.09h6.06l-.67 1v-.54q0-1-.3-1.64a2.1 2.1 0 0 0-2.02-1.27q-.69 0-1.22.34-.54.32-.85.97-.3.66-.31 1.6v.54q0 .89.3 1.54a2.3 2.3 0 0 0 2.2 1.3q.57 0 1-.15.4-.16.69-.4.26-.24.38-.49l.03-.07h1.36l-.01.06q-.11.44-.4.84-.27.39-.7.72-.45.34-1.04.52-.6.2-1.34.19M62 337.06q-1.3 0-1.89-.52-.57-.53-.57-1.73v-5.1H58.2v-1.13h1.33v-2.18h1.4v2.18h1.85v1.12h-1.85v4.77q0 .75.28 1.07t.94.32h.3l.33-.03v1.15zM72.55 337.27a5 5 0 0 1-2.15-.4q-.92-.4-1.46-1.11a3 3 0 0 1-.61-1.63l-.01-.08h1.4l.01.08q.06.56.43.98.39.4 1.02.63a4.3 4.3 0 0 0 2.8-.01q.62-.25.95-.7.35-.42.35-1 0-.7-.52-1.19-.51-.48-1.68-.74l-1.25-.27a5 5 0 0 1-2.47-1.16 2.8 2.8 0 0 1-.76-2.01v-.01q0-.94.5-1.66.51-.72 1.4-1.12.9-.4 2.07-.4 1.12 0 1.99.4a3.5 3.5 0 0 1 1.37 1.07q.53.69.57 1.53l.01.1h-1.4l-.02-.1a2 2 0 0 0-.4-.88 2 2 0 0 0-.88-.61q-.56-.23-1.28-.22-.71 0-1.27.22a2 2 0 0 0-.9.63q-.32.4-.32 1 0 .68.5 1.14t1.64.71l1.25.28q1.19.26 1.9.67.72.42 1.05 1.02t.34 1.4v.01q0 1.05-.52 1.82-.52.76-1.45 1.2a5 5 0 0 1-2.2.4M82.02 337.15a3.58 3.58 0 0 1-3.4-2.06 5 5 0 0 1-.47-2.32v-.02q0-1.3.47-2.28a3.55 3.55 0 0 1 3.39-2.04 4 4 0 0 1 1.76.36 3.1 3.1 0 0 1 1.76 2.32v.05H84.2l-.01-.03q-.15-.62-.71-1.06a2.3 2.3 0 0 0-1.46-.44 2.25 2.25 0 0 0-2.17 1.47q-.3.69-.3 1.65v.02q0 .96.3 1.68.31.72.86 1.1.55.4 1.3.4.86 0 1.4-.37t.77-1.07l.02-.05h1.34l-.01.08q-.18.75-.61 1.35-.45.6-1.16.92-.72.34-1.73.34M87.2 337v-8.42h1.37v1.25h.12a2 2 0 0 1 .82-1.03q.58-.37 1.43-.37.2 0 .38.02l.3.03v1.32a4 4 0 0 0-.83-.07q-.66 0-1.15.25-.5.27-.8.72-.27.47-.27 1.08V337zM93.02 337v-8.42h1.35V337zm.68-10.05a1 1 0 0 1-.66-.27 1 1 0 0 1-.27-.66q0-.4.27-.67.28-.27.66-.27.39 0 .67.27.27.27.27.67 0 .37-.27.66a1 1 0 0 1-.67.27M96.62 339.81v-11.23h1.36v1.34h.12a2.8 2.8 0 0 1 1.54-1.31q.5-.18 1.09-.18 1.06 0 1.86.55.8.54 1.23 1.51.45.98.44 2.3 0 1.33-.44 2.3a3.5 3.5 0 0 1-1.23 1.52q-.8.54-1.86.54a3.1 3.1 0 0 1-2-.7 3 3 0 0 1-.63-.78h-.12v4.14zm3.8-3.87q.77 0 1.32-.37.54-.38.83-1.09.3-.7.3-1.68v-.02q0-.98-.3-1.69-.29-.7-.83-1.07-.55-.39-1.32-.39t-1.32.39-.85 1.08a4 4 0 0 0-.3 1.68v.02q0 .96.3 1.68.3.7.85 1.08t1.32.38M109.06 337.06q-1.3 0-1.88-.52-.58-.53-.58-1.73v-5.1h-1.33v-1.13h1.33v-2.18h1.4v2.18h1.85v1.12h-1.84v4.77q0 .75.28 1.07t.93.32h.31l.32-.03v1.15zM114.3 337.15q-.94 0-1.66-.28a3 3 0 0 1-1.15-.8 2.2 2.2 0 0 1-.51-1.22h1.39q.17.52.67.84.5.33 1.3.33.58 0 1-.17.45-.17.7-.46t.24-.68v-.01a1 1 0 0 0-.34-.73q-.34-.3-1.12-.5l-1.31-.3a5 5 0 0 1-1.3-.49q-.5-.3-.75-.74-.24-.45-.24-1.05 0-.72.4-1.26.42-.56 1.13-.88.72-.32 1.6-.32t1.57.28q.68.27 1.1.78t.51 1.2h-1.33q-.15-.5-.61-.81-.48-.32-1.24-.32-.5 0-.9.17-.39.15-.61.43-.23.3-.23.66v.02q0 .27.15.5.15.21.46.38.31.15.8.29l1.3.31q1.2.3 1.77.83.58.54.58 1.44v.02q0 .75-.44 1.33-.45.57-1.21.89-.75.32-1.72.32M119.12 339.87l.68-4.45h1.56l-1.23 4.45zM121.78 330.17l.68-4.44h1.56l-1.23 4.44zm2.6 0 .68-4.44h1.55l-1.23 4.44zM136.46 337.15q-1.2 0-2.07-.52a3.5 3.5 0 0 1-1.34-1.51 5 5 0 0 1-.47-2.32v-.02q0-1.35.47-2.33.47-.97 1.34-1.5a4 4 0 0 1 2.07-.52q1.2 0 2.07.52.87.53 1.34 1.5.48.98.47 2.33v.02q0 1.35-.47 2.32a3.5 3.5 0 0 1-3.4 2.03m0-1.2q.8 0 1.35-.38.55-.37.85-1.08.3-.7.3-1.7 0-1.01-.3-1.71t-.85-1.07a2.4 2.4 0 0 0-1.35-.38q-.8 0-1.35.38-.55.36-.85 1.07-.3.7-.3 1.7v.02q0 .99.3 1.7.3.7.85 1.07.56.38 1.35.38M142.14 337v-8.42h1.36v1.25h.12a2 2 0 0 1 .82-1.03q.58-.37 1.43-.37.2 0 .38.02l.3.03v1.32a4 4 0 0 0-.84-.07q-.65 0-1.14.25-.5.27-.8.72-.27.47-.27 1.08V337zM155.09 337.06q-1.3 0-1.88-.52-.58-.53-.58-1.73v-5.1h-1.33v-1.13h1.33v-2.18h1.4v2.18h1.85v1.12h-1.84v4.77q0 .75.28 1.07t.93.32h.3l.33-.03v1.15zM157.67 337v-11.77h1.36v4.61h.13q.31-.67.92-1.03.6-.38 1.53-.38t1.6.37 1 1.05.34 1.7V337h-1.36v-5.12q0-1.14-.48-1.7-.48-.54-1.48-.55-.68 0-1.17.3-.5.28-.76.81-.27.54-.27 1.28V337zM170.14 337.15q-1.2 0-2.07-.53a3.5 3.5 0 0 1-1.33-1.5 5 5 0 0 1-.46-2.3q0-1.31.46-2.3t1.32-1.54a3.6 3.6 0 0 1 1.99-.55q1.14 0 1.97.53.82.54 1.26 1.49.45.94.45 2.2v.53h-6.75v-1.09h6.05l-.67 1v-.54q0-1-.3-1.64a2.1 2.1 0 0 0-2.02-1.27q-.68 0-1.22.34-.53.32-.84.97-.3.66-.31 1.6v.54q0 .89.3 1.54.3.63.87.97.56.34 1.33.34.56 0 .99-.16t.7-.4.38-.49l.03-.07h1.36l-.02.06q-.1.44-.39.84-.27.39-.71.72-.45.34-1.04.52-.6.2-1.34.19M179.74 337v-8.42h1.36V337zm.68-10.05a1 1 0 0 1-.66-.27 1 1 0 0 1-.27-.66q0-.4.27-.67.28-.27.66-.27.4 0 .67.27t.27.67q0 .37-.27.66a1 1 0 0 1-.67.27M186.79 337.15a3.59 3.59 0 0 1-3.4-2.06 5 5 0 0 1-.47-2.32v-.02q0-1.3.47-2.28a3.55 3.55 0 0 1 3.39-2.04 4 4 0 0 1 1.76.36 3.1 3.1 0 0 1 1.76 2.32l.01.05h-1.35v-.03q-.17-.62-.72-1.06a2.3 2.3 0 0 0-1.46-.44 2.25 2.25 0 0 0-2.17 1.47q-.3.69-.3 1.65v.02q0 .96.3 1.68.31.72.86 1.1.55.4 1.3.4.87 0 1.4-.37.54-.37.77-1.07l.02-.05h1.34l-.01.08q-.18.75-.61 1.35-.45.6-1.16.92-.72.34-1.73.34M195.44 337.15q-1.2 0-2.07-.52a3.5 3.5 0 0 1-1.34-1.51 5 5 0 0 1-.47-2.32v-.02q0-1.35.47-2.33.47-.97 1.34-1.5a4 4 0 0 1 2.07-.52q1.2 0 2.07.52.87.53 1.34 1.5.47.98.47 2.33v.02q0 1.35-.47 2.32a3.5 3.5 0 0 1-3.41 2.03m0-1.2q.8 0 1.35-.38.56-.37.84-1.08.3-.7.3-1.7 0-1.01-.3-1.71-.28-.7-.84-1.07a2.4 2.4 0 0 0-1.35-.38q-.8 0-1.35.38-.56.36-.85 1.07a5 5 0 0 0-.3 1.7v.02q0 .99.3 1.7.3.7.85 1.07.56.38 1.35.38M201.11 337v-8.42h1.36v1.26h.13q.32-.67.92-1.03.6-.38 1.53-.38 1.43 0 2.18.81.77.8.77 2.3V337h-1.36v-5.12q0-1.14-.49-1.7-.46-.54-1.48-.55-.68 0-1.16.3-.5.28-.77.81-.27.54-.27 1.28V337zM210.17 337v-8.42h1.36V337zm.69-10.05a1 1 0 0 1-.66-.27 1 1 0 0 1-.28-.66q0-.4.28-.67.27-.27.66-.27t.66.27q.28.27.28.67 0 .37-.28.66a1 1 0 0 1-.66.27M217.22 337.15a3.59 3.59 0 0 1-3.4-2.06 5 5 0 0 1-.47-2.32v-.02q0-1.3.47-2.28a3.55 3.55 0 0 1 3.4-2.04 4 4 0 0 1 1.76.36 3.1 3.1 0 0 1 1.76 2.32v.05h-1.35v-.03q-.15-.62-.71-1.06a2.3 2.3 0 0 0-1.47-.44 2.25 2.25 0 0 0-2.17 1.47q-.3.69-.3 1.65v.02q0 .96.31 1.68.3.72.86 1.1.55.4 1.3.4.86 0 1.4-.37t.77-1.07l.01-.05h1.35l-.02.08q-.17.75-.6 1.35-.44.6-1.16.92-.72.34-1.74.34M228.82 325.73l-.68 4.44h-1.55l1.23-4.44zm2.6 0-.68 4.44h-1.56l1.23-4.44zM233.8 337v-11.27h6.84v1.26h-5.44v3.88h5v1.25h-5V337zM242.5 337v-8.42h1.35V337zm.68-10.05a1 1 0 0 1-.66-.27 1 1 0 0 1-.28-.66q0-.4.28-.67t.66-.27.67.27q.27.27.27.67 0 .37-.27.66a1 1 0 0 1-.67.27M246.1 337v-8.42h1.36v1.26h.12q.32-.67.93-1.03.6-.38 1.53-.38 1.42 0 2.18.81.76.8.76 2.3V337h-1.36v-5.12q0-1.14-.48-1.7-.47-.54-1.49-.55-.66 0-1.16.3-.49.28-.77.81a3 3 0 0 0-.26 1.28V337zM257.44 337.15q-.8 0-1.44-.3t-1-.87a2.4 2.4 0 0 1-.37-1.33v-.02q0-.75.36-1.28.35-.54 1.04-.84t1.67-.36l3.1-.19v1.09l-2.94.18q-.96.06-1.4.4t-.44.97v.02q0 .64.48 1 .48.35 1.22.35.7 0 1.23-.28.54-.28.85-.75.3-.48.31-1.08v-2.63q0-.78-.48-1.18-.46-.42-1.41-.42-.75 0-1.24.28-.49.26-.65.75v.03h-1.37l.01-.05q.1-.66.55-1.16t1.15-.77 1.6-.28q1.03 0 1.74.34.72.33 1.09.96t.37 1.5V337h-1.36v-1.24H260a3 3 0 0 1-1.5 1.23q-.48.16-1.05.16M263.72 337v-11.77h1.35V337zM275.42 337.27a5 5 0 0 1-2.16-.4q-.91-.4-1.45-1.11a3 3 0 0 1-.62-1.63v-.08h1.4v.08q.06.56.44.98.38.4 1.01.63a4.3 4.3 0 0 0 2.82-.01q.6-.25.94-.7.34-.42.34-1 0-.7-.51-1.19-.51-.48-1.68-.74l-1.25-.27a5 5 0 0 1-2.47-1.16 2.8 2.8 0 0 1-.77-2.01v-.01q.02-.94.51-1.66.5-.72 1.4-1.12t2.06-.4q1.13 0 2 .4a3.5 3.5 0 0 1 1.37 1.07q.51.69.57 1.53v.1h-1.4l-.01-.1a2 2 0 0 0-.4-.88 2 2 0 0 0-.88-.61q-.56-.23-1.29-.22-.7 0-1.26.22a2 2 0 0 0-.9.63q-.33.4-.33 1 0 .68.5 1.14.51.45 1.65.71l1.25.28q1.18.26 1.9.67t1.05 1.02.33 1.4v.01q0 1.05-.51 1.82-.52.76-1.46 1.2a5 5 0 0 1-2.2.4M284.43 337.06q-1.3 0-1.88-.52-.58-.53-.58-1.73v-5.1h-1.33v-1.13h1.33v-2.18h1.4v2.18h1.85v1.12h-1.85v4.77q0 .75.29 1.07t.93.32h.3l.33-.03v1.15zM286.93 337v-8.42h1.36v1.25h.13a2 2 0 0 1 .82-1.03q.57-.37 1.43-.37.19 0 .38.02l.3.03v1.32a4 4 0 0 0-.84-.07q-.64 0-1.15.25-.5.27-.79.72-.28.47-.28 1.08V337zM295.02 337.15a3 3 0 0 1-1.44-.3q-.63-.3-1-.87a2.4 2.4 0 0 1-.37-1.33v-.02q0-.75.36-1.28.36-.54 1.05-.84.67-.3 1.66-.36l3.1-.19v1.09l-2.94.18q-.96.06-1.4.4t-.44.97v.02q0 .64.48 1 .49.35 1.22.35.7 0 1.24-.28t.84-.75.31-1.08v-2.63q0-.78-.47-1.18-.48-.42-1.42-.42-.75 0-1.24.28-.48.26-.65.75v.03h-1.36v-.05q.12-.66.55-1.16.45-.5 1.15-.77.7-.28 1.6-.28 1.03 0 1.74.34.72.33 1.09.96t.37 1.5V337h-1.36v-1.24h-.12a3 3 0 0 1-1.5 1.23q-.48.16-1.05.16M304.21 337.06q-1.3 0-1.88-.52-.57-.53-.58-1.73v-5.1h-1.33v-1.13h1.33v-2.18h1.4v2.18H305v1.12h-1.84v4.77q0 .75.28 1.07t.94.32h.3l.32-.03v1.15zM310.05 337.15q-1.2 0-2.07-.53a3.5 3.5 0 0 1-1.33-1.5 5 5 0 0 1-.46-2.3q0-1.31.46-2.3t1.32-1.54a3.6 3.6 0 0 1 1.99-.55q1.15 0 1.97.53.83.54 1.26 1.49.45.94.45 2.2v.53h-6.75v-1.09h6.05l-.67 1v-.54q0-1-.3-1.64a2.1 2.1 0 0 0-2.02-1.27q-.68 0-1.22.34-.53.32-.84.97-.3.66-.31 1.6v.54q0 .89.3 1.54a2.3 2.3 0 0 0 2.2 1.3q.56 0 .99-.15.42-.16.7-.4.26-.24.38-.49l.03-.07h1.36l-.02.06q-.1.44-.39.84-.27.39-.71.72-.44.34-1.04.52-.6.2-1.33.19M318.9 339.97q-1.02 0-1.77-.29a3 3 0 0 1-1.21-.8q-.45-.52-.56-1.2l.02-.02h1.4l.01.01q.11.48.66.78.55.32 1.45.32 1.13 0 1.77-.52.63-.51.64-1.44v-1.7h-.13a2.8 2.8 0 0 1-1.56 1.29q-.5.16-1.08.16-1.08 0-1.88-.51a3.4 3.4 0 0 1-1.22-1.44q-.43-.9-.43-2.1v-.01q0-1.18.43-2.1.44-.9 1.23-1.44a3.3 3.3 0 0 1 1.9-.53q.6 0 1.1.19.5.18.88.53.38.34.65.82h.1v-1.4h1.35v8.31q0 .94-.46 1.64-.45.7-1.3 1.07-.84.38-1.99.38m-.06-4.61q.78 0 1.33-.36.56-.37.86-1 .3-.66.3-1.48v-.02q0-.84-.3-1.48-.3-.65-.86-1.02a2.4 2.4 0 0 0-1.33-.37q-.78 0-1.33.37-.54.37-.83 1.02a4 4 0 0 0-.28 1.48v.02q0 .83.28 1.47.3.64.83 1.01.54.36 1.33.36M325.58 339.95a3 3 0 0 1-.6-.04v-1.12l.27.03h.3q.58 0 .94-.29.38-.3.6-1.02l.16-.5-3.12-8.43h1.45l2.6 7.78-.54-.85h.64l-.54.85 2.59-7.78h1.43l-3.3 8.94a6 6 0 0 1-.72 1.47q-.39.54-.9.74-.51.22-1.26.22M333.17 337.08a1 1 0 0 1-.72-.3 1 1 0 0 1-.3-.72q0-.42.3-.72a1 1 0 0 1 .72-.3q.42 0 .72.3t.3.72a1 1 0 0 1-.3.72q-.3.3-.72.3M337.6 337.08a1 1 0 0 1-.71-.3 1 1 0 0 1-.3-.72q0-.42.3-.72a1 1 0 0 1 .72-.3q.42 0 .71.3.3.3.3.72a1 1 0 0 1-.3.72q-.3.3-.71.3M342.04 337.08a1 1 0 0 1-.72-.3 1 1 0 0 1-.3-.72q0-.42.3-.72a1 1 0 0 1 .72-.3q.42 0 .72.3t.3.72a1 1 0 0 1-.3.72q-.3.3-.72.3M14.45 377.15q-.59 0-1.08-.18a3 3 0 0 1-.9-.5q-.38-.35-.64-.81h-.13V377h-1.36v-11.77h1.36v4.68h.13q.23-.45.62-.79.4-.32.9-.5.53-.2 1.1-.19 1.08 0 1.86.54.8.54 1.24 1.51.43.98.43 2.3v.02q0 1.3-.43 2.3a3.5 3.5 0 0 1-1.24 1.5q-.78.55-1.86.55m-.3-1.2q.76 0 1.31-.38t.84-1.09q.3-.7.3-1.68v-.02q0-.98-.3-1.69-.3-.7-.84-1.07-.54-.39-1.32-.39-.77 0-1.32.39-.55.38-.85 1.08a4 4 0 0 0-.3 1.68v.02q0 .96.3 1.68.3.7.85 1.08t1.32.38M20.18 379.95a3 3 0 0 1-.6-.04v-1.12l.28.03h.28q.58 0 .95-.29.38-.3.6-1.02l.16-.5-3.12-8.43h1.45l2.6 7.78-.54-.85h.64l-.54.85 2.59-7.78h1.43l-3.3 8.94a6 6 0 0 1-.72 1.47q-.39.54-.9.74-.51.22-1.26.22M35.12 377v-10h-3.63v-1.27h8.67v1.26h-3.63V377zM40.67 377v-8.42h1.36v1.25h.12a2 2 0 0 1 .83-1.03q.57-.37 1.42-.37.2 0 .39.02l.3.03v1.32a4 4 0 0 0-.84-.07q-.65 0-1.15.25-.5.27-.79.72-.28.47-.28 1.08V377zM48.76 377.15a3 3 0 0 1-1.44-.3q-.63-.3-1-.87a2.4 2.4 0 0 1-.37-1.33v-.02q0-.75.36-1.28.36-.54 1.04-.84.7-.3 1.67-.36l3.1-.19v1.09l-2.94.18q-.96.06-1.4.4t-.44.97v.02q0 .64.48 1 .49.35 1.22.35.7 0 1.24-.28.53-.28.84-.75.3-.48.31-1.08v-2.63q0-.78-.47-1.18-.48-.42-1.42-.42-.75 0-1.24.28-.48.26-.65.75v.03h-1.37l.01-.05q.11-.66.55-1.16t1.15-.77q.7-.28 1.6-.28 1.04 0 1.74.34.72.33 1.09.96t.37 1.5V377h-1.36v-1.24h-.12a3 3 0 0 1-1.5 1.23q-.48.16-1.05.16M58.07 377.15a3.2 3.2 0 0 1-3.1-2.06 6 6 0 0 1-.43-2.3q0-1.34.43-2.3.44-.99 1.23-1.52a3.3 3.3 0 0 1 1.87-.54 3 3 0 0 1 2 .7q.4.31.62.78h.13v-4.68h1.36V377h-1.36v-1.34h-.13q-.26.46-.65.8a3 3 0 0 1-.89.5q-.5.2-1.08.19m.31-1.2q.77 0 1.32-.39.55-.38.85-1.08.3-.72.3-1.68v-.02q0-.97-.3-1.68-.3-.7-.85-1.08a2.3 2.3 0 0 0-1.32-.39q-.77 0-1.32.39-.55.37-.84 1.07-.3.7-.3 1.7 0 .99.3 1.7.3.69.84 1.08.55.38 1.32.38M64.5 377v-8.42h1.36V377zm.69-10.05a1 1 0 0 1-.67-.27 1 1 0 0 1-.27-.66q0-.4.27-.67.29-.27.67-.27t.66.27q.28.27.28.67 0 .37-.28.66a1 1 0 0 1-.66.27M68.1 377v-8.42h1.37v1.26h.12q.32-.67.92-1.03.6-.38 1.53-.38 1.43 0 2.18.81.77.8.77 2.3V377h-1.36v-5.12q0-1.14-.48-1.7-.48-.54-1.49-.55-.67 0-1.16.3-.5.28-.77.81-.27.54-.26 1.28V377zM80.6 379.97q-1.02 0-1.77-.29a3 3 0 0 1-1.21-.8q-.45-.53-.56-1.2l.02-.02h1.4l.01.01q.12.48.66.78.54.32 1.45.32 1.14 0 1.77-.52.64-.51.64-1.44v-1.7h-.13a2.8 2.8 0 0 1-1.56 1.29q-.5.16-1.08.16-1.08 0-1.88-.51a3.4 3.4 0 0 1-1.22-1.44q-.43-.9-.43-2.1v-.01q0-1.18.43-2.1.44-.9 1.24-1.44a3.3 3.3 0 0 1 1.9-.53q.58 0 1.09.19.5.18.88.53.4.34.65.82h.1v-1.4h1.35v8.31q0 .94-.46 1.64-.45.7-1.3 1.07-.84.38-1.99.38m-.06-4.61q.78 0 1.34-.36.56-.37.85-1 .3-.66.3-1.48v-.02q0-.84-.3-1.48-.3-.65-.85-1.02a2.4 2.4 0 0 0-1.34-.37q-.78 0-1.33.37-.53.37-.83 1.02a4 4 0 0 0-.28 1.48v.02q0 .83.28 1.47.3.64.83 1.01.55.36 1.33.36M90 377l-4.16-11.27h1.48l3.3 9.45h.13l3.32-9.45h1.47L91.4 377zM97.06 377v-8.42h1.36V377zm.69-10.05a1 1 0 0 1-.66-.27 1 1 0 0 1-.28-.66q0-.4.28-.67.27-.27.66-.27t.66.27q.28.27.28.67 0 .37-.28.66a1 1 0 0 1-.66.27M104.1 377.15q-1.2 0-2.07-.53a3.5 3.5 0 0 1-1.32-1.5 5 5 0 0 1-.46-2.3q0-1.31.46-2.3t1.32-1.54a3.6 3.6 0 0 1 1.99-.55q1.14 0 1.97.53.82.54 1.26 1.49.45.94.45 2.2v.53h-6.75v-1.09H107l-.67 1v-.54q0-1-.3-1.64a2.1 2.1 0 0 0-2.02-1.27q-.68 0-1.22.34-.53.32-.84.97-.31.66-.31 1.6v.54q0 .89.3 1.54a2.3 2.3 0 0 0 2.2 1.3q.56 0 .99-.15.42-.16.7-.4t.38-.49l.03-.07h1.36l-.02.06q-.1.44-.39.84a3.2 3.2 0 0 1-1.75 1.24q-.6.2-1.33.19M111.12 377l-2.36-8.42h1.36l1.65 6.73h.13l1.88-6.73h1.29l1.88 6.73h.13l1.65-6.73h1.35l-2.36 8.42h-1.36l-1.89-6.52h-.12l-1.87 6.52z"/><g fill="#b8b8b8" opacity=".4"><path d="m9.54 401 4.16-11.27h1.07v1.82h-.44L11.02 401zm1.88-3.23.44-1.2h5.1l.43 1.2zm6.35 3.23-3.32-9.45v-1.82h.64L19.24 401zM20.73 403.81v-11.23h1.36v1.34h.12a2.8 2.8 0 0 1 1.54-1.31q.5-.18 1.09-.18 1.07 0 1.86.55.8.54 1.23 1.51.45.98.44 2.3 0 1.33-.44 2.3a3.5 3.5 0 0 1-1.23 1.52q-.8.54-1.86.54a3.1 3.1 0 0 1-2-.7 3 3 0 0 1-.63-.78h-.12v4.14zm3.8-3.87q.77 0 1.32-.37.54-.38.83-1.09.3-.7.3-1.68v-.02q0-.98-.3-1.69-.29-.7-.83-1.07-.55-.39-1.32-.39-.76 0-1.32.39-.56.38-.85 1.08a4 4 0 0 0-.3 1.68v.02q0 .96.3 1.68.3.7.85 1.08t1.32.38M30.18 401v-8.42h1.36v1.25h.12a2 2 0 0 1 .82-1.03q.59-.37 1.43-.37.2 0 .39.02l.3.03v1.32a4 4 0 0 0-.84-.07q-.66 0-1.15.25-.5.27-.79.72-.28.47-.28 1.08V401zM40.44 401v-.97l3.7-4.12q.69-.78 1.09-1.3.4-.5.55-.92t.16-.9v-.02q0-.6-.25-1.07-.24-.46-.7-.74t-1.1-.27q-.65 0-1.14.28-.48.27-.76.77a2.4 2.4 0 0 0-.27 1.16v.01h-1.35v-.01q0-1 .46-1.77.47-.79 1.29-1.22.81-.45 1.86-.45.97 0 1.74.42.76.4 1.2 1.11.46.72.46 1.63v.01q0 .64-.22 1.24-.21.6-.76 1.32t-1.54 1.77l-2.82 3 .35-.64v.65l-.34-.24h5.51V401zM53.75 401.19q-1.13 0-1.98-.4a3.11 3.11 0 0 1-1.9-2.68l-.02-.1h1.36v.08q.06.56.39.98.31.42.88.66.56.24 1.27.24.72 0 1.26-.26a2 2 0 0 0 .84-.71q.3-.46.3-1.06v-.01q0-1.04-.67-1.6a2.7 2.7 0 0 0-1.81-.56H52.3v-1.18h1.3q.66 0 1.15-.25a1.85 1.85 0 0 0 1.06-1.7v-.02q0-.6-.24-1.01-.25-.42-.7-.63a3 3 0 0 0-1.13-.22q-.64 0-1.14.22t-.8.64-.37.98v.08h-1.36l.01-.08q.09-.92.57-1.6.48-.7 1.27-1.08a4 4 0 0 1 1.82-.38q1.05 0 1.83.37.79.37 1.21 1.03.45.65.44 1.5v.02a2.5 2.5 0 0 1-1.12 2.13q-.53.36-1.2.51v.03q1.2.1 1.94.84.75.72.74 1.93v.01q0 .94-.5 1.68-.5.75-1.36 1.18t-1.97.42M59.32 403.87l.68-4.45h1.55l-1.22 4.45zM68.58 401v-.97l3.69-4.12q.7-.78 1.1-1.3.39-.5.55-.92t.16-.9v-.02q0-.6-.25-1.07-.24-.46-.7-.74t-1.1-.27q-.65 0-1.14.28-.5.27-.76.77a2.4 2.4 0 0 0-.27 1.16v.01H68.5v-.01q0-1 .46-1.77.47-.79 1.28-1.22.82-.45 1.87-.45.98 0 1.74.42.76.4 1.2 1.11.45.72.46 1.63v.01q0 .64-.22 1.24t-.76 1.32-1.54 1.77l-2.82 3 .35-.64v.65l-.35-.24h5.52V401zM81.8 401.27a3.3 3.3 0 0 1-2.14-.72 4.5 4.5 0 0 1-1.35-2.04 9 9 0 0 1-.48-3.14v-.02q0-1.8.48-3.13.47-1.32 1.35-2.04a3.3 3.3 0 0 1 2.15-.72q1.24 0 2.14.72.89.72 1.36 2.04.5 1.32.49 3.13v.02q0 1.8-.49 3.14a4.5 4.5 0 0 1-1.36 2.04q-.9.72-2.14.72m0-1.23q.82 0 1.39-.57t.88-1.62q.3-1.04.31-2.48v-.02q0-1.44-.3-2.48a3.6 3.6 0 0 0-.9-1.6 2 2 0 0 0-1.37-.57q-.8 0-1.39.57-.57.55-.87 1.6-.3 1.04-.3 2.48v.02q0 1.44.3 2.48.3 1.05.87 1.62t1.39.57M88.1 401v-.97l3.7-4.12q.7-.78 1.09-1.3.4-.5.55-.92.17-.42.17-.9v-.02q0-.6-.25-1.07-.25-.46-.7-.74-.47-.27-1.1-.27-.66 0-1.15.28-.48.27-.76.77a2.4 2.4 0 0 0-.26 1.16l-.01.01h-1.34l-.01-.01q0-1 .47-1.77.46-.79 1.28-1.22.82-.45 1.86-.45.98 0 1.74.42.76.4 1.21 1.11t.45 1.63v.01q0 .64-.22 1.24t-.76 1.32-1.54 1.77l-2.82 3 .35-.64v.65l-.34-.24h5.51V401zM101.37 401.27q-1.05 0-1.87-.42a3.39 3.39 0 0 1-1.88-2.74l-.01-.09h1.35v.07a2.1 2.1 0 0 0 1.24 1.68q.52.25 1.18.25.75 0 1.3-.32.58-.34.89-.93.32-.58.32-1.34v-.02q0-.75-.32-1.32-.31-.6-.88-.92-.56-.33-1.28-.33-.57 0-1.03.18a2.4 2.4 0 0 0-1.35 1.18h-1.22l.59-6.47h6.24v1.25h-5.13l-.38 3.82h.13a2.4 2.4 0 0 1 1.43-1.03q.45-.14.96-.14a3.5 3.5 0 0 1 3.15 1.82q.46.85.47 1.94v.02q0 1.13-.5 2t-1.39 1.36q-.87.5-2.01.5"/></g><rect width="69" height="29" x="358.5" y="373.5" stroke="#3d3d3d" rx="7.5"/><path fill="#dbdbdb" d="M380.2 386.8a2.1 2.1 0 1 0 2.98-2.98 2.1 2.1 0 0 0-2.98 2.98"/><path fill="#dbdbdb" fill-rule="evenodd" d="m387.95 379.05.04.56c.05.91-.05 2.56-.5 4.31a11 11 0 0 1-2.48 4.93v3.58l-4.57 4.57-.93-4.02q-.56.27-.9.38l-.37.13-4.73-4.73.13-.37q.1-.35.38-.9l-4.02-.93 4.57-4.57h3.58a11 11 0 0 1 4.93-2.49c1.75-.44 3.4-.54 4.31-.49zm-7.29 13.3q1.37-.8 3.08-2.3v1.86l-2.59 2.58zm-3.71-9.1a22 22 0 0 0-2.3 3.09l-2.14-.5 2.58-2.58zm6.44-2.52a10 10 0 0 0-4.53 2.34 19 19 0 0 0-3.89 5.36l3.6 3.6c1-.44 3.1-1.63 5.36-3.89a10 10 0 0 0 2.34-4.53c.33-1.29.45-2.5.46-3.34-.83.01-2.05.13-3.34.46" clip-rule="evenodd"/><path fill="#dbdbdb" d="m373.64 390.68-.9-.9-1.34 1.34.9.9zM375.43 392.47l-.9-.9-2.53 2.54.9.89zM376.32 393.36l.9.9-1.34 1.34-.9-.9z"/><path fill="#dbdbdb" fill-rule="evenodd" d="M307.14 393.57h9.43c1.9 0 3.43-1.53 3.43-3.43v-7.71c0-1.9-1.54-3.43-3.43-3.43h-11.14a3.43 3.43 0 0 0-3.43 3.43V397l1.29-.86zm-3.85 1.03 3.14-2.1.32-.21h9.82c1.19 0 2.14-.96 2.14-2.15v-7.71c0-1.19-.95-2.14-2.14-2.14h-11.14c-1.19 0-2.14.95-2.14 2.14zm3.85-10.46h7.72v1.29h-7.72zm7.72 3h-7.72v1.29h7.72z" clip-rule="evenodd"/><rect width="425" height="216" x="7" y="8" fill="#000" rx="8"/><path fill="#f8f9fd" d="M401.79 33.15q-.6 0-1.05-.23t-.74-.64a2 2 0 0 1-.33-.9v-.05h.76v.03a1.2 1.2 0 0 0 .7.95q.3.14.67.14.42 0 .74-.18.32-.2.5-.52.18-.33.18-.76t-.18-.75q-.18-.33-.5-.52a1.4 1.4 0 0 0-.73-.18q-.3 0-.58.1a1.4 1.4 0 0 0-.76.66h-.69l.34-3.64h3.52v.7h-2.9l-.22 2.15h.08q.13-.21.34-.36t.46-.22q.27-.08.55-.08.6 0 1.06.28.46.27.72.75.27.48.27 1.09 0 .64-.29 1.14a2 2 0 0 1-.78.76 2.3 2.3 0 0 1-1.14.28M407.44 33.1q-.68 0-1.2-.23a2 2 0 0 1-.81-.64q-.3-.41-.3-.94v-.01q0-.39.18-.73.16-.32.48-.56.3-.24.7-.33v-.02a1.7 1.7 0 0 1-.82-.54q-.3-.37-.3-.87v-.01q0-.48.26-.85.27-.38.74-.6a2.5 2.5 0 0 1 1.07-.22q.6 0 1.06.22t.74.6.27.85q0 .5-.3.88t-.83.54v.02a1.8 1.8 0 0 1 1.19.9q.17.33.17.72 0 .54-.3.95t-.81.64-1.2.24m0-.68q.44 0 .77-.15.34-.16.53-.42.2-.27.2-.61v-.01q0-.35-.2-.62-.18-.26-.53-.42-.33-.15-.77-.15-.45 0-.78.15-.34.16-.53.42-.2.27-.2.62 0 .36.2.62.19.26.53.42t.78.15m0-3.08q.38 0 .67-.13t.45-.37.17-.55-.17-.55-.45-.37q-.3-.14-.67-.14t-.68.14q-.28.13-.45.37a1 1 0 0 0-.16.55q0 .31.16.55t.45.37q.3.13.68.13M411.34 33.04a.6.6 0 0 1-.4-.16.6.6 0 0 1-.17-.4q0-.25.17-.41a.6.6 0 0 1 .4-.17q.25 0 .4.17.18.16.17.4t-.17.4a.6.6 0 0 1-.4.17M415.15 33.15q-.7 0-1.2-.4a2.6 2.6 0 0 1-.76-1.15 5 5 0 0 1-.27-1.77q0-1.03.26-1.77.27-.75.77-1.15t1.2-.4 1.2.4q.51.41.78 1.15t.27 1.76v.01q0 1.02-.27 1.77t-.77 1.15q-.51.4-1.2.4m0-.69q.46 0 .78-.32.33-.32.5-.91.18-.6.17-1.4 0-.82-.17-1.4-.18-.6-.5-.9a1 1 0 0 0-.78-.33q-.45 0-.77.32-.33.33-.5.91a5 5 0 0 0-.17 1.4q0 .8.17 1.4t.5.9q.32.33.77.33M420.82 33.15q-.7 0-1.2-.4a2.6 2.6 0 0 1-.77-1.15 5 5 0 0 1-.26-1.77q0-1.03.26-1.77.27-.75.77-1.15t1.2-.4 1.2.4q.51.41.78 1.15t.27 1.76v.01q0 1.02-.27 1.77t-.77 1.15q-.51.4-1.2.4m0-.69q.46 0 .78-.32.33-.32.5-.91t.17-1.4q0-.82-.17-1.4-.17-.6-.5-.9a1 1 0 0 0-.78-.33q-.45 0-.77.32-.33.33-.5.91t-.17 1.4a5 5 0 0 0 .17 1.4q.17.6.5.9.32.33.77.33M401.79 66.15q-.6 0-1.05-.23t-.74-.64a2 2 0 0 1-.33-.9v-.05h.76v.03a1.2 1.2 0 0 0 .7.95q.3.14.67.14.42 0 .74-.18.32-.2.5-.52.18-.33.18-.76t-.18-.75q-.18-.33-.5-.52a1.4 1.4 0 0 0-.73-.18q-.3 0-.58.1a1.4 1.4 0 0 0-.76.66h-.69l.34-3.64h3.52v.7h-2.9l-.22 2.15h.08q.13-.21.34-.36t.46-.22q.27-.08.55-.08.6 0 1.06.28.46.27.72.75.27.48.27 1.09 0 .65-.29 1.14a2 2 0 0 1-.78.76 2.3 2.3 0 0 1-1.14.28M407.51 66.15q-.43 0-.86-.17-.42-.16-.77-.54a3 3 0 0 1-.55-.98q-.2-.62-.2-1.51v-.01q0-1.08.29-1.85.29-.76.83-1.17t1.31-.41q.54 0 .96.2a2 2 0 0 1 1.11 1.36l.02.06h-.8l-.02-.05a1.3 1.3 0 0 0-1.27-.86q-.58 0-.94.34-.36.33-.54.89a5 5 0 0 0-.2 1.33v.12l.19 1.06q0 .42.19.75.2.34.52.54.33.2.72.2a1.4 1.4 0 0 0 1.24-.72q.2-.34.2-.75 0-.43-.19-.75a1.3 1.3 0 0 0-.5-.52 1.4 1.4 0 0 0-.73-.19q-.42 0-.74.19a1.4 1.4 0 0 0-.71 1.24h-.26v-1.14h.15q.12-.26.36-.48.22-.23.57-.36.34-.14.76-.14.6 0 1.07.28t.74.76.27 1.09q0 .64-.29 1.13-.28.5-.79.78a2.3 2.3 0 0 1-1.14.28M411.32 66.04a.6.6 0 0 1-.4-.16.6.6 0 0 1-.17-.4q0-.25.17-.41a.6.6 0 0 1 .4-.17q.25 0 .4.17.18.16.17.4t-.16.4a.6.6 0 0 1-.4.17M415.14 66.15q-.7 0-1.2-.4a2.6 2.6 0 0 1-.77-1.15 5 5 0 0 1-.27-1.77q0-1.03.27-1.77.27-.75.76-1.15.51-.4 1.2-.4.72 0 1.21.4.5.41.77 1.15t.27 1.76v.01q0 1.02-.27 1.77t-.77 1.15-1.2.4m0-.69q.45 0 .77-.32.33-.32.5-.91.18-.6.18-1.4 0-.82-.18-1.4-.17-.6-.5-.9a1 1 0 0 0-.77-.33q-.45 0-.78.32-.32.33-.5.91a5 5 0 0 0-.17 1.4q0 .8.18 1.4.16.6.49.9.32.33.78.33M420.8 66.15q-.7 0-1.2-.4a2.6 2.6 0 0 1-.76-1.15 5 5 0 0 1-.27-1.77q0-1.03.27-1.77.27-.75.76-1.15.5-.4 1.2-.4.71 0 1.2.4.51.41.78 1.15t.27 1.76v.01q0 1.02-.27 1.77t-.77 1.15-1.2.4m0-.69q.46 0 .78-.32t.5-.91q.18-.6.18-1.4 0-.82-.18-1.4-.17-.6-.5-.9a1 1 0 0 0-.77-.33q-.46 0-.78.32-.33.33-.5.91a5 5 0 0 0-.17 1.4q0 .8.18 1.4.15.6.49.9.31.33.78.33M401.79 99.15q-.6 0-1.05-.23t-.74-.64a2 2 0 0 1-.33-.9v-.05h.76v.03a1.2 1.2 0 0 0 .7.95q.3.14.67.14.42 0 .74-.18.32-.2.5-.52.18-.33.18-.76 0-.44-.18-.75-.18-.34-.5-.52a1.4 1.4 0 0 0-.73-.18q-.3 0-.58.1a1.4 1.4 0 0 0-.76.66h-.69l.34-3.64h3.52v.7h-2.9l-.22 2.15h.08q.13-.21.34-.36t.46-.22q.27-.08.55-.08.6 0 1.06.28.46.27.72.75.27.48.27 1.09 0 .65-.29 1.14a2 2 0 0 1-.78.76 2.3 2.3 0 0 1-1.14.28M408.17 99v-1.31h-3.1v-.72l1.63-2.64 1.1-1.67h1.14v4.32h.9v.7h-.9V99zm-2.28-2.02h2.28V93.4h-.05l-.9 1.37-1.33 2.17zM411.38 99.04a.6.6 0 0 1-.4-.16.6.6 0 0 1-.17-.4q0-.25.17-.41a.6.6 0 0 1 .4-.17q.25 0 .4.17.18.16.18.4t-.17.4a.6.6 0 0 1-.4.17M415.2 99.15q-.7 0-1.2-.4a2.6 2.6 0 0 1-.77-1.15 5 5 0 0 1-.27-1.77q0-1.03.27-1.77.27-.75.76-1.15.51-.4 1.2-.4.72 0 1.21.4.51.41.77 1.15.27.74.27 1.76v.01q0 1.02-.27 1.77t-.77 1.15-1.2.4m0-.69q.45 0 .78-.32.32-.32.5-.91.16-.6.17-1.4 0-.82-.18-1.4-.17-.6-.5-.9a1 1 0 0 0-.77-.33q-.45 0-.78.32-.32.33-.5.91-.16.58-.16 1.4a5 5 0 0 0 .17 1.4q.17.6.49.9.33.33.78.33M420.87 99.15q-.7 0-1.2-.4a2.6 2.6 0 0 1-.77-1.15 5 5 0 0 1-.27-1.77q0-1.03.27-1.77.27-.75.76-1.15.51-.4 1.2-.4.71 0 1.21.4t.77 1.15.27 1.76v.01q0 1.02-.27 1.77t-.77 1.15-1.2.4m0-.69q.45 0 .77-.32.33-.32.5-.91.18-.6.18-1.4 0-.82-.18-1.4-.17-.6-.5-.9a1 1 0 0 0-.77-.33q-.45 0-.78.32-.32.33-.5.91-.15.58-.16 1.4a5 5 0 0 0 .17 1.4q.16.6.49.9.33.33.78.33M401.79 132.15q-.6 0-1.05-.23t-.74-.64a2 2 0 0 1-.33-.9v-.05h.76v.03a1.2 1.2 0 0 0 .7.95q.3.14.67.14.42 0 .74-.18.32-.2.5-.52.18-.33.18-.76t-.18-.75a1.3 1.3 0 0 0-1.23-.7q-.3 0-.58.1a1.4 1.4 0 0 0-.76.66h-.69l.34-3.64h3.52v.7h-2.9l-.22 2.15h.08q.13-.21.34-.36t.46-.22q.27-.08.55-.08a2 2 0 0 1 1.78 1.03q.27.48.27 1.09 0 .65-.29 1.14a2 2 0 0 1-.78.76 2.3 2.3 0 0 1-1.14.28M405.27 132v-.54l2.15-2.33q.4-.44.63-.72.23-.3.32-.52.1-.24.1-.51v-.01q0-.33-.15-.6t-.42-.42-.64-.15-.66.16q-.3.16-.45.43-.15.28-.15.65v.01h-.77a1.9 1.9 0 0 1 1-1.69q.48-.25 1.08-.25.55 0 1 .23t.7.63.26.91v.01q0 .36-.13.7-.12.33-.44.74-.3.4-.89 1l-1.64 1.69.2-.36v.36l-.2-.13h3.2v.71zM411.2 132.04a.6.6 0 0 1-.4-.16.6.6 0 0 1-.17-.4q0-.24.16-.41a.6.6 0 0 1 .4-.17q.25 0 .41.17.17.17.17.4 0 .25-.17.4a.6.6 0 0 1-.4.17M415.01 132.15q-.7 0-1.2-.4a2.6 2.6 0 0 1-.77-1.15 5 5 0 0 1-.26-1.77q0-1.03.26-1.77.27-.75.77-1.15t1.2-.4 1.2.4q.51.41.78 1.15.27.75.27 1.76v.01q0 1.02-.27 1.77t-.77 1.15q-.51.4-1.2.4m0-.69q.46 0 .78-.32.33-.32.5-.91t.17-1.4-.17-1.4q-.18-.6-.5-.9a1 1 0 0 0-.78-.33q-.45 0-.77.33-.32.3-.5.9a5 5 0 0 0-.17 1.4q0 .8.17 1.4t.5.9q.32.33.77.33M420.68 132.15q-.7 0-1.2-.4a2.6 2.6 0 0 1-.77-1.15 5 5 0 0 1-.26-1.77q0-1.03.26-1.77.27-.75.77-1.15t1.2-.4 1.2.4q.51.41.77 1.15.28.75.28 1.76v.01q0 1.02-.28 1.77-.26.75-.76 1.15-.51.4-1.2.4m0-.69q.46 0 .78-.32t.5-.91q.17-.6.17-1.4 0-.82-.17-1.4-.18-.6-.5-.9a1 1 0 0 0-.78-.33q-.45 0-.78.33-.31.3-.49.9a5 5 0 0 0-.17 1.4q0 .8.17 1.4t.5.9q.32.33.77.33M401.79 165.15q-.6 0-1.05-.23t-.74-.64a2 2 0 0 1-.33-.9v-.05h.76v.03a1.2 1.2 0 0 0 .7.95q.3.14.67.14.42 0 .74-.18.32-.2.5-.52.18-.33.18-.76t-.18-.75a1.3 1.3 0 0 0-1.23-.7q-.3 0-.58.1a1.4 1.4 0 0 0-.76.66h-.69l.34-3.64h3.52v.7h-2.9l-.22 2.15h.08q.13-.21.34-.36t.46-.22q.27-.08.55-.08a2 2 0 0 1 1.78 1.03q.27.48.27 1.09 0 .65-.29 1.14a2 2 0 0 1-.78.76 2.3 2.3 0 0 1-1.14.28M407.4 165.15q-.72 0-1.21-.4a2.6 2.6 0 0 1-.77-1.15 5 5 0 0 1-.26-1.77q0-1.03.26-1.77.27-.75.77-1.15t1.2-.4 1.2.4q.51.41.78 1.15.27.75.27 1.76v.01q0 1.02-.27 1.77t-.77 1.15q-.51.4-1.2.4m0-.69q.45 0 .77-.32t.5-.91q.18-.6.17-1.4 0-.82-.17-1.4-.17-.6-.5-.9a1 1 0 0 0-.78-.33q-.45 0-.77.33-.33.3-.5.9a5 5 0 0 0-.17 1.4q0 .8.17 1.4t.5.9q.32.33.77.33M411.22 165.04a.6.6 0 0 1-.4-.16.6.6 0 0 1-.18-.4q0-.24.17-.41a.6.6 0 0 1 .4-.17q.25 0 .41.17.17.17.17.4 0 .25-.17.4a.6.6 0 0 1-.4.17M415.03 165.15q-.7 0-1.2-.4a2.6 2.6 0 0 1-.77-1.15 5 5 0 0 1-.27-1.77q0-1.03.27-1.77.27-.75.77-1.15t1.2-.4 1.2.4q.51.41.77 1.15.28.75.28 1.76v.01q0 1.02-.28 1.77-.27.75-.76 1.15-.51.4-1.2.4m0-.69q.46 0 .78-.32t.5-.91q.17-.6.17-1.4 0-.82-.18-1.4-.16-.6-.5-.9a1 1 0 0 0-.77-.33q-.45 0-.78.33-.31.3-.49.9-.17.58-.17 1.4a5 5 0 0 0 .17 1.4q.18.6.5.9.32.33.77.33M420.7 165.15q-.7 0-1.2-.4a2.6 2.6 0 0 1-.77-1.15 5 5 0 0 1-.27-1.77q0-1.03.27-1.77.27-.75.77-1.15t1.2-.4 1.2.4q.51.41.77 1.15.27.75.27 1.76v.01q0 1.02-.27 1.77-.26.75-.77 1.15-.5.4-1.2.4m0-.69q.45 0 .78-.32.32-.32.5-.91t.17-1.4-.18-1.4q-.17-.6-.5-.9a1 1 0 0 0-.77-.33q-.45 0-.78.33-.32.3-.49.9-.18.58-.17 1.4a5 5 0 0 0 .17 1.4q.17.6.5.9.31.33.77.33M402.6 198v-1.31h-3.09v-.72a171 171 0 0 1 2.18-3.5l.54-.81h1.15v4.32h.9v.7h-.9V198zm-2.28-2.02h2.29v-3.59h-.06l-.44.67-.45.7-.46.73-.88 1.44zM407.67 198.1q-.68 0-1.2-.23a2 2 0 0 1-.81-.64q-.3-.41-.3-.94v-.01a1.6 1.6 0 0 1 .65-1.3q.3-.23.72-.32v-.02a1.7 1.7 0 0 1-.83-.54q-.3-.37-.3-.87v-.01q0-.48.26-.85.27-.37.74-.6a2.5 2.5 0 0 1 1.07-.22q.6 0 1.06.22.48.22.74.6.27.37.27.85 0 .5-.3.88-.32.38-.83.54v.02a1.8 1.8 0 0 1 1.19.9q.17.33.17.72 0 .54-.3.95t-.81.64-1.2.24m0-.68q.44 0 .77-.15.34-.16.53-.42.2-.27.2-.61v-.01q0-.35-.2-.62-.18-.26-.53-.42-.33-.15-.77-.15-.45 0-.78.15-.34.16-.53.42-.2.27-.2.62t.2.62.53.42q.34.15.78.15m0-3.08q.37 0 .67-.13t.45-.37.16-.55q0-.32-.16-.55t-.45-.37q-.3-.13-.67-.13t-.68.13q-.28.13-.45.37a1 1 0 0 0-.16.54v.01q0 .31.16.55t.45.37q.3.13.68.13M411.57 198.04a.6.6 0 0 1-.4-.16.6.6 0 0 1-.17-.4q0-.24.16-.41a.6.6 0 0 1 .4-.17q.25 0 .41.17.17.17.17.4 0 .25-.17.4a.6.6 0 0 1-.4.17M415.38 198.15q-.7 0-1.2-.4a2.6 2.6 0 0 1-.77-1.15 5 5 0 0 1-.26-1.77q0-1.03.26-1.77.27-.75.77-1.15t1.2-.4 1.2.4q.51.41.78 1.15t.27 1.76v.01q0 1.02-.27 1.77t-.77 1.15q-.51.4-1.2.4m0-.69q.46 0 .78-.32t.5-.91q.17-.6.17-1.4 0-.82-.17-1.4-.17-.6-.5-.9a1 1 0 0 0-.78-.33q-.45 0-.78.33-.3.3-.49.9a5 5 0 0 0-.17 1.4q0 .8.17 1.4t.5.9q.32.33.77.33M421.05 198.15q-.7 0-1.2-.4a2.6 2.6 0 0 1-.77-1.15 5 5 0 0 1-.27-1.77q0-1.03.27-1.77.27-.75.77-1.15t1.2-.4q.7 0 1.2.4.51.41.77 1.15.28.74.28 1.76v.01q0 1.02-.28 1.77-.26.75-.76 1.15-.51.4-1.2.4m0-.69q.45 0 .78-.32t.5-.91q.17-.6.17-1.4 0-.82-.17-1.4-.18-.6-.5-.9a1 1 0 0 0-.78-.33q-.45 0-.78.33-.31.3-.49.9a5 5 0 0 0-.17 1.4q0 .8.17 1.4t.5.9q.32.33.77.33"/><path fill="url(#el3lwjta1)" fill-opacity=".3" d="M10.2 118.23H7V224h381V68.79l-8.34-8.48-10.9.94L362.34 33l-7.7 9.89c-1.92 1.57-6.02 4.99-7.05 6.12-1.02 1.13-5.56 13.65-7.7 19.77-1.06 3.46-3.33 10.36-3.84 10.36-.52 0-6.2 4.08-8.98 6.13l-3.85-9.9-5.78-3.76-8.33 8.48c-3 1.25-9.24 3.86-10.27 4.23s-5.13-1.1-7.05-1.88l-3.85 16.48-7.06 4.24c-1.5 2.67-4.49 8.1-4.49 8.47s-3.42-3.3-5.13-5.18l-7.7-3.3-5.77-10.35h-3.85l-7.05 4.24h-7.06l-10.9-3.3-7.7 12.71-17.32 13.19-3.2 16-7.7-5.17-6.41.94-3.85 5.65-7.7 1.88-5.13 5.18-12.19-8.47-6.41 2.35-12.19-16.48-4.49 16.48-5.77 11.3-6.42-25.9-5.77-22.6L104.5 80.1l-5.77 11.3-5.13-.95-6.41 4.24-6.42-4.24-6.41-16-12.83 1.88-10.9 14.12-5.14-19.77-6.4 25.9-7.7 6.59-9.63 3.3-5.77-3.3z"/><path stroke="#00e5ff" d="m362.28 32 6.5 28.38 10.78-.92 8.44 8.5-.4.51-8.24-8.32-11.04.95-6.34-27.71-7.35 9.37-.03.03c-.96.77-2.47 2.01-3.86 3.2a47 47 0 0 0-3.17 2.84q-.13.14-.48.84-.34.68-.8 1.75c-.6 1.41-1.32 3.26-2.08 5.26-1.53 4-3.2 8.62-4.27 11.66-.53 1.71-1.37 4.29-2.13 6.43a48 48 0 0 1-1.06 2.76q-.23.53-.42.86-.09.16-.19.27l-.12.11a.4.4 0 0 1-.2.07l-.06.02-.24.12-.8.48c-.64.4-1.48.98-2.4 1.6a278 278 0 0 0-5.33 3.8l-.3.21L322.76 75l-5.51-3.56-8.23 8.3-.05.01a650 650 0 0 1-10.28 4.21q-.28.1-.62.08-.35 0-.78-.09c-.58-.1-1.26-.27-1.96-.48a47 47 0 0 1-3.59-1.26l-3.8 16.15-7.1 4.24a361 361 0 0 0-3.96 7.22l-.44.94-.01.03q0 .16-.17.28a.3.3 0 0 1-.23.04l-.2-.1-.44-.38c-.36-.32-.85-.8-1.38-1.36a167 167 0 0 1-3.17-3.37l-7.74-3.28-5.74-10.23h-3.62l-7.06 4.21h-7.17l-10.75-3.22-7.61 12.48-17.28 13.05-3.28 16.2-7.96-5.31-6.2.9-3.84 5.6-7.73 1.88-5.24 5.24-12.27-8.46-6.47 2.36-11.98-16.06-4.34 15.8L128.4 149l-6.6-26.47-5.77-22.38-11.9-20.08-5.64 10.95-5.23-.95-6.48 4.25-6.65-4.36-6.36-15.77-12.51 1.83-11.2 14.38-5-19.1L38.9 96l-7.82 6.65-9.8 3.32-5.6-3.17-5.73 14.83H7v-.67h2.57l5.82-15.08 5.95 3.37 9.47-3.22 7.57-6.44 6.67-26.71 5.28 20.16 10.63-13.66 13.16-1.92 6.47 16.02 6.2 4.06 6.35-4.17 5.04.91 5.91-11.48 12.49 21.06 5.79 22.49 6.23 24.94 5.4-10.5 4.65-16.9 12.41 16.65 6.36-2.32 12.13 8.37 5.02-5.04 7.68-1.86 3.86-5.62 6.64-.97 7.44 4.97 3.14-15.58 17.38-13.12 7.8-12.76 11.07 3.32h6.94l7.07-4.21h4.08l5.81 10.34 7.67 3.26.04.05c.86.93 2.14 2.3 3.2 3.4a37 37 0 0 0 1.57 1.53l.03-.06q.13-.3.37-.75a357.57 357.57 0 0 1 4-7.33l.05-.08 7.01-4.18 3.9-16.57.3.13c.96.38 2.46.94 3.85 1.35q1.06.32 1.9.48.4.06.7.08.3 0 .43-.05c1.01-.37 7.18-2.92 10.2-4.18l8.46-8.53 6.05 3.91 3.75 9.56c1.38-1 3.34-2.4 5.06-3.59a81 81 0 0 1 3.25-2.11l.46-.2.1-.17q.16-.26.38-.78c.3-.69.66-1.64 1.05-2.71.76-2.14 1.6-4.7 2.13-6.41v-.01c1.07-3.05 2.74-7.68 4.27-11.69.77-2 1.5-3.86 2.1-5.28q.46-1.08.81-1.8c.22-.44.43-.8.6-.99.52-.57 1.82-1.72 3.21-2.9a238 238 0 0 1 3.85-3.18z" clip-rule="evenodd"/><path fill="#512da8" d="M141.2 179.9 56.9 107l94.8 45.9 90.6-24-42.9 33.3-47.7-9.3z" opacity=".4"/><path stroke="#651fff" stroke-width=".6" d="m56.9 107 84.3 72.9 10.5-27 47.7 9.3 42.9-33.3"/><path stroke="#651fff" stroke-dasharray="1.2 1.2" stroke-width=".6" d="m141.2 179.9 58.2-17.7"/><path fill="#ff9800" d="m290.9 145.4-30-12.6 45-13.5 56.7-28.5-20.7 31.2-36-2.7z" opacity=".5"/><path stroke="#fb8c00" stroke-width=".6" d="m260.9 132.8 30 12.6 15-26.1 36 2.7 20.7-31.2"/><path stroke="#fb8c00" stroke-dasharray="1.2 1.2" stroke-width=".6" d="m290.9 145.4 51-23.4"/><g filter="url(#fl3lwjta1)"><rect width="13.8" height="15.6" x="50" y="92.6" fill="#6200ea" rx="1.8"/></g><g filter="url(#gl3lwjta1)"><rect width="13.8" height="15.6" x="255.2" y="124.4" fill="#ff9800" rx="1.8"/></g><g filter="url(#hl3lwjta1)"><rect width="13.8" height="15.6" x="134" y="175.4" fill="#6200ea" rx="1.8"/></g><g filter="url(#il3lwjta1)"><rect width="13.8" height="15.6" x="282.8" y="141.2" fill="#ff9800" rx="1.8"/></g><g filter="url(#jl3lwjta1)"><rect width="13.8" height="15.6" x="145.4" y="144.8" fill="#6200ea" rx="1.8"/></g><g filter="url(#kl3lwjta1)"><rect width="13.8" height="15.6" x="300.2" y="110" fill="#ff9800" rx="1.8"/></g><g filter="url(#ll3lwjta1)"><rect width="13.8" height="15.6" x="192.8" y="158.6" fill="#6200ea" rx="1.8"/></g><g filter="url(#ml3lwjta1)"><rect width="13.8" height="15.6" x="336.8" y="115.4" fill="#ff9800" rx="1.8"/></g><g filter="url(#nl3lwjta1)"><rect width="13.8" height="15.6" x="236.6" y="121.4" fill="#6200ea" rx="1.8"/></g><g filter="url(#ol3lwjta1)"><rect width="13.8" height="15.6" x="356.6" y="83" fill="#ff9800" rx="1.8"/></g><path fill="#fff" d="M199.39 170.32q-.93 0-1.6-.43-.66-.44-1.03-1.22a4.5 4.5 0 0 1-.36-1.88v-.01q0-1.1.36-1.88.37-.8 1.03-1.23.67-.43 1.6-.43.7 0 1.29.28.58.28.96.77.38.5.48 1.14v.01h-.85a1.85 1.85 0 0 0-1.89-1.42q-.64 0-1.12.34-.48.33-.73.95-.26.62-.26 1.47 0 .86.25 1.47.27.61.74.96.47.33 1.13.33.47 0 .85-.14.4-.15.65-.44.27-.3.37-.68h.86a2.3 2.3 0 0 1-1.44 1.79q-.57.25-1.3.25M241.02 132.96v-6.76h2.32q1 0 1.71.4.72.4 1.1 1.16a4 4 0 0 1 .38 1.81v.02q0 1.05-.38 1.82-.38.75-1.1 1.16-.7.4-1.71.4zm.84-.75h1.42q.75 0 1.29-.31.54-.3.81-.9.3-.59.29-1.4v-.01q0-.84-.29-1.42a2 2 0 0 0-.82-.9 2.5 2.5 0 0 0-1.28-.31h-1.42zM54.02 104l2.5-3.7-.2.66v-.38l-2.27-3.34h1.01l1.81 2.72h.39l-.56.3 2.03-3.02h.96l-2.34 3.39v.37l-.2-.65 2.49 3.65h-1.01l-1.8-2.7h-.39l.56-.3-2.03 3zM259.22 135.8l2.5-3.7-.2.66v-.38l-2.27-3.34h1.01l1.81 2.72h.39l-.56.3 2.03-3.02h.96l-2.34 3.39v.37l-.2-.65 2.49 3.65h-1.01l-1.8-2.7h-.39l.56-.3-2.03 3zM137.92 186.2l2.5-6.76h.64v1.09h-.26l-1.99 5.67zm1.13-1.94.27-.71h3.05l.26.71zm3.81 1.94-1.99-5.67v-1.1h.38l2.5 6.77zM286.72 152l2.5-6.76h.64v1.09h-.26L287.6 152zm1.13-1.94.27-.71h3.05l.26.71zm3.81 1.94-1.99-5.67v-1.1h.38l2.5 6.77zM150.62 156.36v-.74h2.1q.76 0 1.15-.3.4-.3.4-.9 0-.4-.19-.65-.18-.26-.55-.4a3 3 0 0 0-.9-.13h-2v-.73h1.76a2 2 0 0 0 1.16-.27.9.9 0 0 0 .39-.8v-.01a1 1 0 0 0-.35-.8 1.5 1.5 0 0 0-.98-.28h-1.99v-.75h2.17q.62 0 1.07.2a1.6 1.6 0 0 1 .93 1.48v.01q0 .36-.16.66-.15.3-.42.52-.26.2-.59.28v.07q.47.06.8.28.34.21.52.57.2.35.2.8 0 .6-.28 1.02t-.79.65q-.51.22-1.23.22zm-.42 0v-6.76h.84v6.76zM305.42 121.56v-.74h2.1q.75 0 1.15-.3t.4-.9q0-.4-.19-.65a1 1 0 0 0-.55-.4 3 3 0 0 0-.9-.13h-2v-.72h1.76a2 2 0 0 0 1.16-.28.9.9 0 0 0 .39-.8v-.01q0-.52-.36-.8-.34-.28-.97-.28h-1.99v-.75h2.17q.62 0 1.07.2a1.6 1.6 0 0 1 .93 1.48v.01q0 .36-.16.66-.15.3-.42.52-.26.21-.59.27v.08q.47.06.8.28.34.21.52.57.2.35.2.8 0 .6-.29 1.02-.27.42-.78.65-.51.22-1.23.22zm-.42 0v-6.76h.84v6.76zM343.43 126.96q-.9 0-1.59-.43-.67-.44-1.03-1.22a4.5 4.5 0 0 1-.36-1.89q0-1.1.36-1.89.37-.79 1.03-1.22.68-.43 1.59-.43.7 0 1.3.28.57.27.96.77.38.49.48 1.14v.01h-.86a1.85 1.85 0 0 0-1.88-1.42q-.64 0-1.13.33-.47.34-.73.96t-.26 1.47q0 .85.26 1.47t.73.95 1.13.34q.48 0 .86-.15.39-.15.65-.43.26-.3.36-.68h.87a2.3 2.3 0 0 1-1.44 1.79q-.57.25-1.3.25M361.06 94.4v-6.76h2.32q1 0 1.72.4.71.4 1.1 1.15.38.75.38 1.82v.01q0 1.07-.38 1.82-.38.76-1.1 1.16-.71.4-1.72.4zm.85-.76h1.42q.75 0 1.29-.3a2 2 0 0 0 .81-.9q.28-.6.28-1.41v-.01q0-.82-.28-1.41-.29-.6-.82-.9-.54-.31-1.28-.31h-1.42z"/><g opacity=".4"><path fill="#089981" d="M11 202h5v18a5 5 0 0 1-5-5z"/><path fill="#f23645" d="M17 196h5v24h-5zM23 205h5v15h-5zM29 191h5v29h-5z"/><path fill="#089981" d="M35 205h5v15h-5z"/><path fill="#f23645" d="M41 200h5v20h-5zM47 207h5v13h-5z"/><path fill="#089981" d="M53 192h5v28h-5zM59 210h5v10h-5z"/><path fill="#f23645" d="M65 211h5v9h-5z"/><path fill="#089981" d="M71 206h5v14h-5z"/><path fill="#f23645" d="M77 212h5v8h-5z"/><path fill="#089981" d="M83 202h5v18h-5z"/><path fill="#f23645" d="M89 192h5v28h-5z"/><path fill="#089981" d="M95 206h5v14h-5z"/><path fill="#f23645" d="M101 212h5v8h-5zM107 193h5v27h-5z"/><path fill="#089981" d="M113 210h5v10h-5zM119 202h5v18h-5z"/><path fill="#f23645" d="M125 192h5v28h-5z"/><path fill="#089981" d="M131 209h5v11h-5z"/><path fill="#f23645" d="M137 206h5v14h-5zM143 202h5v18h-5z"/><path fill="#089981" d="M149 201h5v19h-5z"/><path fill="#f23645" d="M155 196h5v24h-5zM161 210h5v10h-5z"/><path fill="#089981" d="M167 193h5v27h-5z"/><path fill="#f23645" d="M173 207h5v13h-5z"/><path fill="#089981" d="M179 193h5v27h-5zM185 209h5v11h-5z"/><path fill="#f23645" d="M191 195h5v25h-5zM197 211h5v9h-5z"/><path fill="#089981" d="M203 201h5v19h-5z"/><path fill="#f23645" d="M209 209h5v11h-5zM215 193h5v27h-5z"/><path fill="#089981" d="M221 214h5v6h-5z"/><path fill="#f23645" d="M227 205h5v15h-5z"/><path fill="#089981" d="M233 193h5v27h-5z"/><path fill="#f23645" d="M239 210h5v10h-5zM245 212h5v8h-5z"/><path fill="#089981" d="M251 198h5v22h-5z"/><path fill="#f23645" d="M257 197h5v23h-5zM263 206h5v14h-5zM269 214h5v6h-5z"/><path fill="#089981" d="M275 217h5v3h-5z"/><path fill="#f23645" d="M281 217h5v3h-5z"/><path fill="#089981" d="M287 202h5v18h-5z"/><path fill="#f23645" d="M293 192h5v28h-5z"/><path fill="#089981" d="M299 210h5v10h-5z"/><path fill="#f23645" d="M305 211h5v9h-5z"/><path fill="#089981" d="M311 206h5v14h-5z"/><path fill="#f23645" d="M317 202h5v18h-5zM323 192h5v28h-5z"/><path fill="#089981" d="M329 206h5v14h-5z"/><path fill="#f23645" d="M335 212h5v8h-5zM341 193h5v27h-5z"/><path fill="#089981" d="M347 210h5v10h-5zM353 202h5v18h-5z"/><path fill="#f23645" d="M359 192h5v28h-5z"/><path fill="#089981" d="M365 209h5v11h-5z"/><path fill="#f23645" d="M371 206h5v14h-5zM377 202h5v18h-5z"/><path fill="#089981" d="M383 201h5v19h-5z"/></g><path fill="url(#pl3lwjta1)" d="M655 0h80v440h-80z"/><mask id="ql3lwjta1" width="16" height="16" x="25" y="190" maskUnits="userSpaceOnUse" style="mask-type:alpha"><path fill="#c4c4c4" d="M41 206h-5.33c0-5.9-4.78-10.67-10.67-10.67V190h16z"/></mask><g clip-path="url(#rl3lwjta1)" mask="url(#ql3lwjta1)"><path fill="#f8f9fd" d="M25 190h16v16H25z"/><path fill="#f7525f" d="M34.78 193.56H41V190h-6.22zM25 206h16v-3.56H25zM34.78 199.78H41v-3.56h-6.22z"/><path fill="#1e53e5" d="M25 190h9.78v9.78H25z"/><path fill="#f8f9fd" fill-rule="evenodd" d="M27.15 191.09a.08.08 0 0 1 .15 0l.23.63q.03.05.08.05l.67.03c.07 0 .1.1.04.14l-.52.42a.1.1 0 0 0-.03.09l.18.65a.08.08 0 0 1-.12.08l-.56-.37a.1.1 0 0 0-.1 0l-.55.37a.08.08 0 0 1-.13-.08l.18-.65q.01-.05-.02-.09l-.53-.42a.08.08 0 0 1 .05-.14l.67-.03q.05 0 .07-.05zm0 2.66a.08.08 0 0 1 .15 0l.23.63q.03.05.08.06l.67.03c.07 0 .1.1.04.14l-.52.42a.1.1 0 0 0-.03.08l.18.65a.08.08 0 0 1-.12.1l-.56-.38a.1.1 0 0 0-.1 0l-.55.37a.08.08 0 0 1-.13-.09l.18-.65q.01-.05-.02-.08l-.53-.42a.08.08 0 0 1 .05-.14l.67-.03q.05 0 .07-.06zm.15 2.67a.08.08 0 0 0-.15 0l-.24.63a.1.1 0 0 1-.07.05l-.67.03c-.08 0-.1.1-.05.15l.53.42q.03.03.02.08l-.18.65c-.01.07.06.13.13.09l.56-.37a.1.1 0 0 1 .09 0l.56.37c.06.04.14-.02.12-.09l-.18-.65q0-.05.03-.08l.52-.42a.08.08 0 0 0-.04-.15l-.67-.03a.1.1 0 0 1-.08-.05zm2.51-5.33a.08.08 0 0 1 .15 0l.24.63q.02.05.07.05l.67.03c.08 0 .1.1.05.14l-.52.42a.1.1 0 0 0-.03.09l.18.65a.08.08 0 0 1-.12.08l-.57-.37a.1.1 0 0 0-.09 0l-.56.37a.08.08 0 0 1-.12-.08l.18-.65q0-.05-.03-.09l-.52-.42a.08.08 0 0 1 .04-.14l.68-.03q.05 0 .07-.05zm.15 2.66a.08.08 0 0 0-.15 0l-.23.63a.1.1 0 0 1-.07.06l-.68.03c-.07 0-.1.1-.04.14l.52.42q.04.03.03.08l-.18.65c-.02.07.06.13.12.1l.56-.38a.1.1 0 0 1 .1 0l.56.37c.06.04.14-.02.12-.09l-.18-.65q-.02-.05.03-.08l.52-.42a.08.08 0 0 0-.05-.14l-.67-.03a.1.1 0 0 1-.07-.06zm-.15 2.67a.08.08 0 0 1 .15 0l.24.63q.02.05.07.05l.67.03c.08 0 .1.1.05.15l-.52.42a.1.1 0 0 0-.03.08l.18.65a.08.08 0 0 1-.12.09l-.57-.37a.1.1 0 0 0-.09 0l-.56.37a.08.08 0 0 1-.12-.09l.18-.65q0-.05-.03-.08l-.52-.42a.08.08 0 0 1 .04-.15l.68-.03q.05 0 .07-.05zm2.82-5.33a.08.08 0 0 0-.15 0l-.24.63a.1.1 0 0 1-.07.05l-.67.03c-.07 0-.1.1-.05.14l.53.42q.03.04.03.09l-.18.65c-.02.07.06.13.12.08l.56-.37a.1.1 0 0 1 .09 0l.56.37c.06.04.14-.01.12-.08l-.18-.65q0-.05.03-.09l.53-.42a.08.08 0 0 0-.05-.14l-.67-.03a.1.1 0 0 1-.07-.05zm-.15 2.66a.08.08 0 0 1 .15 0l.24.63q.01.05.07.06l.67.03c.08 0 .1.1.05.14l-.53.42a.1.1 0 0 0-.03.08l.18.65a.08.08 0 0 1-.12.1l-.56-.38a.1.1 0 0 0-.09 0l-.56.37a.08.08 0 0 1-.12-.09l.18-.65q0-.05-.03-.08l-.53-.42a.08.08 0 0 1 .05-.14l.67-.03q.05 0 .07-.06zm.15 2.67a.08.08 0 0 0-.15 0l-.24.63a.1.1 0 0 1-.07.05l-.67.03c-.07 0-.1.1-.05.15l.53.42q.03.03.03.08l-.18.65c-.02.07.06.13.12.09l.56-.37a.1.1 0 0 1 .09 0l.56.37c.06.04.14-.02.12-.09l-.18-.65q0-.05.03-.08l.53-.42a.08.08 0 0 0-.05-.15l-.67-.03a.1.1 0 0 1-.07-.05z" clip-rule="evenodd"/></g><path fill="#9013fe" d="M17 206a8 8 0 1 1 16 0 8 8 0 0 1-16 0"/><path fill="#9013fe" d="M17 206a8 8 0 1 1 16 0 8 8 0 0 1-16 0"/><path fill="#143eb2" d="M17 206a8 8 0 1 1 16 0 8 8 0 0 1-16 0"/><path fill="#fdd835" d="m24.96 199.79.33 1h1.06l-.86.63.33 1.01-.86-.62-.86.62.33-1.01-.86-.62h1.06zM20.6 201.6l.94.47.75-.75-.17 1.05.95.49-1.05.16-.16 1.05-.49-.94-1.05.16.76-.75zM18.78 205.96l1.02-.33v-1.06l.62.86 1.01-.33-.62.86.62.86-1.01-.33-.62.86v-1.06zM20.6 210.32l.48-.94-.76-.75 1.05.16.49-.95.16 1.05 1.05.17-.95.48.17 1.05-.75-.75zM24.96 212.13l-.33-1.01h-1.06l.86-.62-.33-1.01.86.62.86-.62-.33 1 .86.63h-1.06zM29.32 210.32l-.94-.48-.76.75.17-1.05-.95-.48 1.05-.17.17-1.05.48.95 1.05-.16-.75.75zM31.13 205.96l-1.01.33v1.06l-.62-.86-1.01.33.62-.86-.62-.86 1 .33.63-.86v1.06zM29.32 201.6l-.48.94.75.75-1.05-.16-.48.94-.17-1.05-1.05-.16.95-.49-.17-1.05.76.75z"/><path fill="#2962ff" d="M49 202a12 12 0 1 1 24 0 12 12 0 0 1-24 0"/><path fill="#fff" fill-rule="evenodd" d="M60.7 195.56q.36-.15.68.04l6.75 4c.23.14.37.39.37.65v3.2H67v-1.88l-1.5.89v2.15c0 .85-.51 1.82-1.26 2.55A4.6 4.6 0 0 1 61 208.5c-1.35 0-2.47-.6-3.24-1.34a3.8 3.8 0 0 1-1.26-2.55v-2.16l-2.63-1.55a.75.75 0 0 1 0-1.3l6.75-4zm.68 9.34a.8.8 0 0 1-.76 0L58 203.34v1.27c0 .32.24.92.8 1.47.55.53 1.3.92 2.2.92s1.65-.39 2.2-.92c.56-.55.8-1.15.8-1.47v-1.27zm-5.66-4.65 5.28 3.13 5.28-3.13-5.28-3.13z" clip-rule="evenodd"/></g><defs><filter id="dl3lwjta1" width="544" height="519" x="-52" y="-48" color-interpolation-filters="sRGB" filterUnits="userSpaceOnUse"><feFlood flood-opacity="0" result="BackgroundImageFix"/><feColorMatrix in="SourceAlpha" result="hardAlpha" values="0 0 0 0 0 0 0 0 0 0 0 0 0 0 0 0 0 0 127 0"/><feOffset dy="4"/><feGaussianBlur stdDeviation="26"/><feComposite in2="hardAlpha" operator="out"/><feColorMatrix values="0 0 0 0 0 0 0 0 0 0 0 0 0 0 0 0 0 0 0.9 0"/><feBlend in2="BackgroundImageFix" result="effect1_dropShadow_15650_111210"/><feBlend in="SourceGraphic" in2="effect1_dropShadow_15650_111210" result="shape"/></filter><filter id="fl3lwjta1" width="47.4" height="49.2" x="33.2" y="75.8" color-interpolation-filters="sRGB" filterUnits="userSpaceOnUse"><feFlood flood-opacity="0" result="BackgroundImageFix"/><feColorMatrix in="SourceAlpha" result="hardAlpha" values="0 0 0 0 0 0 0 0 0 0 0 0 0 0 0 0 0 0 127 0"/><feOffset/><feGaussianBlur stdDeviation="8.4"/><feComposite in2="hardAlpha" operator="out"/><feColorMatrix values="0 0 0 0 0.384314 0 0 0 0 0 0 0 0 0 0.917647 0 0 0 1 0"/><feBlend in2="BackgroundImageFix" result="effect1_dropShadow_15650_111210"/><feBlend in="SourceGraphic" in2="effect1_dropShadow_15650_111210" result="shape"/></filter><filter id="gl3lwjta1" width="47.4" height="49.2" x="238.4" y="107.6" color-interpolation-filters="sRGB" filterUnits="userSpaceOnUse"><feFlood flood-opacity="0" result="BackgroundImageFix"/><feColorMatrix in="SourceAlpha" result="hardAlpha" values="0 0 0 0 0 0 0 0 0 0 0 0 0 0 0 0 0 0 127 0"/><feOffset/><feGaussianBlur stdDeviation="8.4"/><feComposite in2="hardAlpha" operator="out"/><feColorMatrix values="0 0 0 0 1 0 0 0 0 0.596078 0 0 0 0 0 0 0 0 1 0"/><feBlend in2="BackgroundImageFix" result="effect1_dropShadow_15650_111210"/><feBlend in="SourceGraphic" in2="effect1_dropShadow_15650_111210" result="shape"/></filter><filter id="hl3lwjta1" width="47.4" height="49.2" x="117.2" y="158.6" color-interpolation-filters="sRGB" filterUnits="userSpaceOnUse"><feFlood flood-opacity="0" result="BackgroundImageFix"/><feColorMatrix in="SourceAlpha" result="hardAlpha" values="0 0 0 0 0 0 0 0 0 0 0 0 0 0 0 0 0 0 127 0"/><feOffset/><feGaussianBlur stdDeviation="8.4"/><feComposite in2="hardAlpha" operator="out"/><feColorMatrix values="0 0 0 0 0.384314 0 0 0 0 0 0 0 0 0 0.917647 0 0 0 1 0"/><feBlend in2="BackgroundImageFix" result="effect1_dropShadow_15650_111210"/><feBlend in="SourceGraphic" in2="effect1_dropShadow_15650_111210" result="shape"/></filter><filter id="il3lwjta1" width="47.4" height="49.2" x="266" y="124.4" color-interpolation-filters="sRGB" filterUnits="userSpaceOnUse"><feFlood flood-opacity="0" result="BackgroundImageFix"/><feColorMatrix in="SourceAlpha" result="hardAlpha" values="0 0 0 0 0 0 0 0 0 0 0 0 0 0 0 0 0 0 127 0"/><feOffset/><feGaussianBlur stdDeviation="8.4"/><feComposite in2="hardAlpha" operator="out"/><feColorMatrix values="0 0 0 0 1 0 0 0 0 0.596078 0 0 0 0 0 0 0 0 1 0"/><feBlend in2="BackgroundImageFix" result="effect1_dropShadow_15650_111210"/><feBlend in="SourceGraphic" in2="effect1_dropShadow_15650_111210" result="shape"/></filter><filter id="jl3lwjta1" width="47.4" height="49.2" x="128.6" y="128" color-interpolation-filters="sRGB" filterUnits="userSpaceOnUse"><feFlood flood-opacity="0" result="BackgroundImageFix"/><feColorMatrix in="SourceAlpha" result="hardAlpha" values="0 0 0 0 0 0 0 0 0 0 0 0 0 0 0 0 0 0 127 0"/><feOffset/><feGaussianBlur stdDeviation="8.4"/><feComposite in2="hardAlpha" operator="out"/><feColorMatrix values="0 0 0 0 0.384314 0 0 0 0 0 0 0 0 0 0.917647 0 0 0 1 0"/><feBlend in2="BackgroundImageFix" result="effect1_dropShadow_15650_111210"/><feBlend in="SourceGraphic" in2="effect1_dropShadow_15650_111210" result="shape"/></filter><filter id="kl3lwjta1" width="47.4" height="49.2" x="283.4" y="93.2" color-interpolation-filters="sRGB" filterUnits="userSpaceOnUse"><feFlood flood-opacity="0" result="BackgroundImageFix"/><feColorMatrix in="SourceAlpha" result="hardAlpha" values="0 0 0 0 0 0 0 0 0 0 0 0 0 0 0 0 0 0 127 0"/><feOffset/><feGaussianBlur stdDeviation="8.4"/><feComposite in2="hardAlpha" operator="out"/><feColorMatrix values="0 0 0 0 1 0 0 0 0 0.596078 0 0 0 0 0 0 0 0 1 0"/><feBlend in2="BackgroundImageFix" result="effect1_dropShadow_15650_111210"/><feBlend in="SourceGraphic" in2="effect1_dropShadow_15650_111210" result="shape"/></filter><filter id="ll3lwjta1" width="47.4" height="49.2" x="176" y="141.8" color-interpolation-filters="sRGB" filterUnits="userSpaceOnUse"><feFlood flood-opacity="0" result="BackgroundImageFix"/><feColorMatrix in="SourceAlpha" result="hardAlpha" values="0 0 0 0 0 0 0 0 0 0 0 0 0 0 0 0 0 0 127 0"/><feOffset/><feGaussianBlur stdDeviation="8.4"/><feComposite in2="hardAlpha" operator="out"/><feColorMatrix values="0 0 0 0 0.384314 0 0 0 0 0 0 0 0 0 0.917647 0 0 0 1 0"/><feBlend in2="BackgroundImageFix" result="effect1_dropShadow_15650_111210"/><feBlend in="SourceGraphic" in2="effect1_dropShadow_15650_111210" result="shape"/></filter><filter id="ml3lwjta1" width="47.4" height="49.2" x="320" y="98.6" color-interpolation-filters="sRGB" filterUnits="userSpaceOnUse"><feFlood flood-opacity="0" result="BackgroundImageFix"/><feColorMatrix in="SourceAlpha" result="hardAlpha" values="0 0 0 0 0 0 0 0 0 0 0 0 0 0 0 0 0 0 127 0"/><feOffset/><feGaussianBlur stdDeviation="8.4"/><feComposite in2="hardAlpha" operator="out"/><feColorMatrix values="0 0 0 0 1 0 0 0 0 0.596078 0 0 0 0 0 0 0 0 1 0"/><feBlend in2="BackgroundImageFix" result="effect1_dropShadow_15650_111210"/><feBlend in="SourceGraphic" in2="effect1_dropShadow_15650_111210" result="shape"/></filter><filter id="nl3lwjta1" width="47.4" height="49.2" x="219.8" y="104.6" color-interpolation-filters="sRGB" filterUnits="userSpaceOnUse"><feFlood flood-opacity="0" result="BackgroundImageFix"/><feColorMatrix in="SourceAlpha" result="hardAlpha" values="0 0 0 0 0 0 0 0 0 0 0 0 0 0 0 0 0 0 127 0"/><feOffset/><feGaussianBlur stdDeviation="8.4"/><feComposite in2="hardAlpha" operator="out"/><feColorMatrix values="0 0 0 0 0.384314 0 0 0 0 0 0 0 0 0 0.917647 0 0 0 1 0"/><feBlend in2="BackgroundImageFix" result="effect1_dropShadow_15650_111210"/><feBlend in="SourceGraphic" in2="effect1_dropShadow_15650_111210" result="shape"/></filter><filter id="ol3lwjta1" width="47.4" height="49.2" x="339.8" y="66.2" color-interpolation-filters="sRGB" filterUnits="userSpaceOnUse"><feFlood flood-opacity="0" result="BackgroundImageFix"/><feColorMatrix in="SourceAlpha" result="hardAlpha" values="0 0 0 0 0 0 0 0 0 0 0 0 0 0 0 0 0 0 127 0"/><feOffset/><feGaussianBlur stdDeviation="8.4"/><feComposite in2="hardAlpha" operator="out"/><feColorMatrix values="0 0 0 0 1 0 0 0 0 0.596078 0 0 0 0 0 0 0 0 1 0"/><feBlend in2="BackgroundImageFix" result="effect1_dropShadow_15650_111210"/><feBlend in="SourceGraphic" in2="effect1_dropShadow_15650_111210" result="shape"/></filter><linearGradient id="bl3lwjta1" x1="598.5" x2="598.5" y1="394.38" y2="440" gradientUnits="userSpaceOnUse"><stop stop-color="#151515"/><stop offset="1" stop-color="#141516" stop-opacity="0"/></linearGradient><linearGradient id="cl3lwjta1" x1="735" x2="815" y1="727.5" y2="727.5" gradientUnits="userSpaceOnUse"><stop stop-opacity="0"/><stop offset="1"/></linearGradient><linearGradient id="el3lwjta1" x1="309.43" x2="309.43" y1="-13.01" y2="211.91" gradientUnits="userSpaceOnUse"><stop stop-color="#00e5ff"/><stop offset="1" stop-color="#00e5ff" stop-opacity="0"/></linearGradient><linearGradient id="pl3lwjta1" x1="655" x2="735" y1="220" y2="220" gradientUnits="userSpaceOnUse"><stop stop-opacity="0"/><stop offset="1"/></linearGradient><clipPath id="al3lwjta1"><path fill="#fff" d="M0 0h735v440H0z"/></clipPath><clipPath id="rl3lwjta1"><rect width="16" height="16" x="25" y="190" fill="#fff" rx="8"/></clipPath></defs></svg>