<svg xmlns="http://www.w3.org/2000/svg" width="1516" height="300" fill="none" viewBox="0 0 1516 300"><path stroke="url(#axdfhhubm)" stroke-width="1.58" d="M-67.1 826.58c0-99.01 21.33-197.05 62.8-288.53 41.45-91.47 102.22-174.58 178.83-244.6 76.61-70 167.56-125.54 267.65-163.43 100.1-37.89 207.37-57.39 315.71-57.39 108.35 0 215.63 19.5 315.72 57.4 100.09 37.88 191.04 93.42 267.65 163.43 76.61 70 137.38 153.12 178.84 244.6s62.79 189.5 62.79 288.52" opacity=".4"/><path fill="url(#bxdfhhubm)" d="M-6.71 236.84h1515.79V300H-6.71z"/><g clip-path="url(#cxdfhhubm)"><path fill="#000" d="m342.63 98.17 119.44-41.12 41.12 119.44-119.43 41.12z"/><path fill="#fff" d="M456.74 82.87c4.05-1.77 8.43-2.72 10.67-2.83l1.92-.09-.96 1.67c-6.25 10.84-8.1 18.72-8.58 28.54 3.07 5.61 8.71 17.72 9.52 28l.05.56-.44.34-8.22 6.6c-2.73 2.8-8.3 8.2-12.27 11.16q-1.3.98-2.38 1.57c-3.68 2-9.25 3.52-11.8 4.1a14 14 0 0 1-4.01 2.37h-.01l-.03.01c-.84.27-1.63-.1-2.2-.5q-.44-.3-.87-.75l-.69.63-1.38 1.2-.2.13-.2.08-6.15 2.13-13.2 13.33-.17.18-18.85 6.49-2.87-8.34a6 6 0 0 1-2.62-.91 16 16 0 0 1-4.33-4.1c-2.87-3.69-5.77-9.31-8.23-16.43-2.45-7.13-3.82-13.91-4.03-19.14-.1-2.6.07-4.89.59-6.65.3-1.05.76-2.01 1.42-2.72l-3.23-9.4 16.86-5.8.21.02 23.84 1.72 3.19-1.1.04-.02.13-.05.18-.04.08-.02.14-.01a18 18 0 0 1 1.48-.09c.4-.02.84-.03 1.21-.02h.06q.1-.65.31-1.16c.22-.56.62-1.13 1.28-1.39 1-.46 2.97-1.15 6.04-1.2a55 55 0 0 1 10.63-3q1.36-.23 2.73-.36c5.45-.51 14.41.37 18.26.88 1.1-.02 2.48.14 3.94.3l1.66.18a25 25 0 0 1-5.88-7.21c-1.67-3.13-2.69-6.87-1.72-10.56a10 10 0 0 1 3.42-4.95 24 24 0 0 1 5.66-3.35M387.6 185.11l16.4-5.65 10.02-10.13-28.48 9.81zm36.67-29.7a39 39 0 0 0 3.5 5.74 8 8 0 0 0 1.44 1.5c.23.16.35.2.4.2.72-.22 2-.92 3.52-2.16 1.12-.9 2.84-2.12 4.63-3.72a23 23 0 0 0 3.37-3.6q-.68.07-1.43.17c-2.36.3-5.1.72-7.07 1.08-1 .28-2.27.47-3.45.25a4 4 0 0 1-2.3-1.24zm19.5-2.28a22 22 0 0 1-4.6 5.42l-.72.61c2.25-.7 4.71-1.6 6.6-2.62q.58-.32 1.35-.85c-.28-.45-.62-.94-.96-1.39a8 8 0 0 0-.81-.9c-.28-.26-.39-.28-.35-.27h-.51m-72.7 6.5c2.2 5.87 4.68 10.46 7.06 13.52a14 14 0 0 0 3.75 3.58c1.12.66 2 .76 2.66.53l37.25-12.83q-.57-.64-1.17-1.5a54 54 0 0 1-3.8-6.81l-1.21.42a2.1 2.1 0 0 1-2.68-1.3l-1.7-4.98a2.1 2.1 0 0 1 1.3-2.68l.54-.19-.74-1.97zm47.95-3.81a49 49 0 0 0 3.34 5.91 9 9 0 0 0 1.4 1.7l.24.16.07-.06c.26-.21.6-.52.97-.84l.74-.69a44 44 0 0 1-3.45-5.76q-.38.04-.77-.02zm11.55-46.03q.26.48.47 1.04c.31.86.42 1.8.37 2.6-.03.52-.3.96-.54 1.26q-.4.53-.98 1.05c-.77.7-1.81 1.48-2.96 2.27a75 75 0 0 1-7.47 4.45c-.2.12-.5.35-.74.62-.26.3-.28.46-.28.5l.04.17.12.53.47 1.76c.4 1.45.97 3.39 1.64 5.59 1.23 4.03 2.83 8.88 4.43 13.1l.47-.22a4.16 4.16 0 0 1 4.03 7.24l-.99.67a2 2 0 0 0 .91.38c.67.12 1.47.05 2.23-.14l.32-.08.05-.02h.06a160 160 0 0 1 10.42-1.47l1.17-.07c.3 0 .63 0 .88.04.55.11 1.02.47 1.36.78q.56.53 1.05 1.17c.36.46.7.96.99 1.41a138 138 0 0 0 11.15-10.28l.05-.04.04-.04 7.83-6.28c-.92-9.68-6.2-21.08-9.19-26.54a62 62 0 0 1-4.6-.38c-1.57-.17-2.8-.32-3.75-.3h-.16c-3.8-.51-12.63-1.38-17.87-.89zm16.61 27.19a8.6 8.6 0 0 1 4.23-1.1c1.28.04 2.62.51 3.27 1.72s.3 2.59-.37 3.68a8.6 8.6 0 0 1-3.26 2.91 8.6 8.6 0 0 1-4.23 1.1c-1.28-.04-2.62-.5-3.27-1.72-.65-1.2-.3-2.58.38-3.67a8.6 8.6 0 0 1 3.25-2.92m-32.25 17.57 3-1.04.26.05 3.7.58q.4.06.75-.17l5.82-3.96a2.05 2.05 0 0 0-2-3.58l-5.44 2.43q-.78.34-1.64.25l-3.63-.41-2.54.87zm36.42-16.56a6.5 6.5 0 0 0-3.17.85c-1.15.61-2 1.42-2.47 2.17-.48.78-.45 1.3-.3 1.57.14.26.56.58 1.47.6.89.03 2.03-.23 3.18-.84 1.14-.62 2-1.42 2.46-2.17.48-.78.45-1.3.3-1.57-.14-.27-.56-.59-1.47-.61m-33.09-24.95c-2.9.02-4.66.67-5.39 1.02l-.05.02-.02.01a1 1 0 0 0-.13.23q-.18.42-.26 1.42c-.09 1.34.05 3.25.42 5.63.75 4.75 2.4 11.16 4.81 18.15q1.32 3.87 2.74 7.32l2.83-1.26a220 220 0 0 1-6.65-20.8 9 9 0 0 1-.21-1.03c-.08-.89.4-1.62.79-2.06.42-.48.92-.85 1.27-1.05l.02-.02h.02a73 73 0 0 0 7.29-4.34c1.04-.72 1.94-1.4 2.6-1.98a51 51 0 0 0-10.08-1.26m-10.29 3.94q-.14.39-.19 1.35c-.04 1.28.14 3.13.53 5.42.8 4.57 2.44 10.74 4.75 17.45q.98 2.86 2 5.5l.45-.15.24.03 2.36.27q-1.26-3.16-2.46-6.64c-2.43-7.07-4.12-13.6-4.9-18.51-.29-1.87-.46-3.53-.47-4.9a26 26 0 0 0-2.09.07l-.18.01q0 .04-.04.1m-38.91 36.66q.54 1.82 1.17 3.68l.12.33 41.26-14.2a147 147 0 0 1-1.36-4zm-.62-23.16c-.58.2-1.19.84-1.62 2.33a19 19 0 0 0-.5 5.97c.14 3.6.87 8.02 2.16 12.83l41.13-14.16a110 110 0 0 1-3.37-13.34c-.4-2.35-.61-4.35-.56-5.85q0-.31.04-.62zm68.6-12.88a8.5 8.5 0 0 1 3.9-1.97 8.5 8.5 0 0 1 4.39.08c1.23.39 2.39 1.2 2.7 2.55.3 1.35-.38 2.6-1.32 3.48a8.5 8.5 0 0 1-3.92 1.97 8.5 8.5 0 0 1-4.38-.08c-1.23-.39-2.39-1.21-2.7-2.56-.3-1.34.38-2.58 1.33-3.47m4.38.08c-1.27.29-2.3.84-2.94 1.45-.67.63-.79 1.16-.71 1.48.07.32.4.74 1.28 1.02.84.26 2 .32 3.27.03a6.4 6.4 0 0 0 2.94-1.45c.67-.63.79-1.16.71-1.48-.07-.32-.4-.74-1.28-1.02a6.4 6.4 0 0 0-3.27-.03m24.1-35.29a37 37 0 0 0-7.94 2.4 22 22 0 0 0-5.15 3.05c-1.42 1.19-2.38 2.48-2.74 3.86-.78 2.99.01 6.17 1.55 9.04a22 22 0 0 0 6.55 7.5c.61-8.77 2.48-16.27 7.73-25.85m-42.07 28.92c1.82.24 3.81.58 5.81 1.03q-.06-.4-.2-.8c-.18-.51-.46-1-.71-1.4-1.73.32-3.41.74-4.9 1.17m-55.39 17.07 30.78-10.6-18.71-1.35-14.47 4.98z"/></g><g clip-path="url(#dxdfhhubm)"><path fill="#fff" d="M589.89 183.32c5.1 1.46 7.84 6.65 5.39 11.74a18 18 0 0 1-2.43 3.74l4.6 9.03.06.11.02.13 1.5 10.15.7 3.01a3.26 3.26 0 0 1-6.3 1.69 2.1 2.1 0 0 1-2.6-2.75l.94-2.4-.9-6.33-2.56-2.94-.22.22q-.25.31-.53.81c-.9 1.56-1.86 3.1-2.17 3.75l-.04.12q-.05.13-.1.34l-.29 1.07a175 175 0 0 0-1.36 5.82l-.21.92v.03l.07.12a94 94 0 0 1 4.97 8.73c.61 1.31 1.11 2.6 1.23 3.56a6 6 0 0 1-.93 3.84 15 15 0 0 1-2.71 3.25c-1.06 1-2.23 1.92-3.3 2.75q-1.41 1.08-2.45 1.9l.31 1.84a3.97 3.97 0 1 1-7.83 1.24l-.66-4.64c-.1-.68.1-1.38.57-1.9a473 473 0 0 1 7.3-7.81l-.15-.35a11 11 0 0 0-1.2-1.74 22 22 0 0 0-3.09-3.09 45 45 0 0 1-.63 3.28c-.4 1.7-.96 3.5-1.76 4.6-1.48 2.03-3.94 3.35-6.25 4.29-1.17.47-2.34.85-3.36 1.18q-1.18.37-2.02.65l-.02 2.17a3.85 3.85 0 0 1-7.7.06l-.13-4.92a3.6 3.6 0 0 1 1.77-3.27c1.76-1.02 4.04-2.08 5.83-2.97.91-.45 1.69-.85 2.23-1.18a5 5 0 0 0 .59-.4 519.95 519.95 0 0 0 .21-8.02c.04-2.63.63-5.23 1.78-7.6l.35-.74 3.3-8.72.21-3.6.8.05.78.04-.21 3.72-.01.12-.04.12-3.37 8.86v.04l-.4.8a17 17 0 0 0-1.61 6.93l-.1 4.29c.18.34.33.37.37.38.1.01.3-.02.6-.27a3.1 3.1 0 0 0 1.01-2.53c-.3-2.73.74-5.56 1.53-8.1a198 198 0 0 1 4.15-10.51c.46-1.12.4-2.38-.18-3.43l-.19-.35-3.55-.19c-3.32-.17-6.6.86-9.22 2.9l-1.26.98a1.5 1.5 0 0 0-.59 1.17l-.07 3.54a1.81 1.81 0 0 1-2.8 1.48 1 1 0 0 1-.24-.23l-.22-.3-.03.05a3.9 3.9 0 0 1-4.12 1.97 3.3 3.3 0 0 1-2.39-4.69l2.09-4.32a9 9 0 0 1 2.04-2.68l5.38-4.72a17 17 0 0 1 5.65-3.25l9.72-3.26.1-.04h.11l6.44-.35q.04-1.58.38-3.25c1.05-5.23 5.4-6.71 9.06-5.83zm-26.37 51.64q-.71.4-1.57.8c-1.84.92-4.04 1.95-5.74 2.93-.63.36-1 1.07-.98 1.86l.13 4.92a2.27 2.27 0 0 0 4.54-.04l.02-2.72v-.54l.51-.19c.68-.26 1.62-.54 2.61-.86a45 45 0 0 0 4.06-1.48 7 7 0 0 1-3.59-4.68m21.1 5.26a6.47 6.47 0 0 1-4.96-3.16 420 420 0 0 0-5.82 6.26.8.8 0 0 0-.19.63l.67 4.64a2.39 2.39 0 1 0 4.7-.75l-.39-2.28-.08-.45.35-.29c.77-.66 1.8-1.43 2.86-2.24a46 46 0 0 0 2.87-2.36m7.09-40.18c-.96.95-1.98 1.73-2.97 2.27l-.2.43q-.38.7-.83 1.45a31 31 0 0 1-1.43 2.24l-.36.48-.56-.23c-.89-.36-2.55-.98-4.05-1.53l-1.97-.72c-.5-.19-.92-.34-1.04-.4l-.64-.31.23-.66c.4-1.12.38-3.01.1-4.92-.13-.93-.32-1.83-.53-2.58a8 8 0 0 0-.56-1.5l-3.06.17-2.77.93.23.39c.39.68.8 1.6.82 2.4l.02.76-.75.05c-1.4.1-4 .8-5.15 1.16l-.7.22-.26-.69c-.12-.3-.32-.77-.56-1.22q-.28-.52-.48-.78h-.02a15 15 0 0 0-5.1 2.95l-5.39 4.72a7 7 0 0 0-1.66 2.18l-2.09 4.32a1.72 1.72 0 0 0 1.25 2.44c.99.17 1.98-.3 2.46-1.17l.64-1.16.62-1.1.72 1.03.83 1.18c.14.02.27-.07.28-.22l.07-3.54a3.1 3.1 0 0 1 1.2-2.38l1.26-.99a15.4 15.4 0 0 1 10.27-3.22l4 .2.43.03.22.38.4.74c.8 1.48.9 3.24.25 4.8-1.52 3.62-3.58 8.69-4.1 10.37-.85 2.7-1.73 5.14-1.47 7.45a4.7 4.7 0 0 1-1.55 3.92c-.5.4-1.16.73-1.87.62l-.18-.04-.08 2.1c-.02.26-.13.46-.22.57a2 2 0 0 1-.47.46 5.5 5.5 0 0 0 4.03 4.6 9 9 0 0 0 2.89-2.46c.59-.81 1.1-2.33 1.5-4.03.39-1.66.65-3.36.8-4.44.27-2.03.3-2.41.17-3.4l.78-.1.78-.11c.15 1.12.11 1.68-.1 3.34a23 23 0 0 1 4.04 3.88c.58.72 1.07 1.42 1.38 2q.24.45.33.89c.05.25.1.73-.27 1.1q-.11.13-.43.46.1.31.37.73c.3.45.74.9 1.29 1.27a4.4 4.4 0 0 0 3.84.65q.6-.72 1.03-1.44.87-1.45.72-2.85c-.09-.69-.48-1.77-1.09-3.08-.6-1.29-1.37-2.7-2.13-4.04a109 109 0 0 0-2.74-4.51l-.18-.29-.05-.07-.01-.02v-.01l-.19-.28.07-.32v-.03l.02-.06.06-.26.2-.93a394 394 0 0 1 1.38-5.86l.3-1.12c.07-.27.16-.55.24-.71.35-.72 1.38-2.4 2.22-3.85q.3-.55.7-1.06l.02-.02q.19-.22.42-.4c1.5-1.57 1.83-2.77 2.06-3.52l1.5.46c-.2.7-.51 1.77-1.53 3.1l2.85 3.28.15.17.04.24.96 6.77.03.2-.07.2-1.01 2.58c-.16.4.23.82.64.68l.1-.04.26-.3 1-1.18.37 1.5.25.99a1.68 1.68 0 0 0 3.27-.8l-.72-3.04v-.03l-.01-.03-1.48-10.06zm-25.92-3.11a8 8 0 0 1 .68 1.28c1.06-.3 2.63-.71 3.9-.91a6 6 0 0 0-.86-1.62zm12.8-2.96q.21.54.39 1.16c.23.82.44 1.79.58 2.79.24 1.64.32 3.48.02 4.91l.3.12 1.98.72c1.2.44 2.55.94 3.5 1.31.26-.4.63-.97 1-1.59l.16-.3q-1.02.15-1.84-.24l-.31-.17c-2.36-1.35-4.01-4.7-4.26-8.79zm15.55-.27c1.47-3.9-.67-7.71-4.69-8.86a6.3 6.3 0 0 0-4.55.33 5.5 5.5 0 0 0-2.8 3.79l-.09.41-.1.55c-.46 2.72-.25 5.27.4 7.3a9 9 0 0 0 1.71 3.16c-.49-2.78-.24-5.32.4-8.24l.2-.98.9.44a23 23 0 0 0 6 1.92q1.32.22 2.13.2.3 0 .5-.02m-.77 1.6q-.92-.03-2.1-.22c-1.6-.28-3.56-.8-5.51-1.64-.54 2.82-.61 5.22.09 7.93l-.39.1c.29.1.71.13 1.34-.04q.35-.1.72-.27l.01-.04h.05a9 9 0 0 0 1.63-.99 16 16 0 0 0 4.16-4.83"/></g><path stroke="#fff" stroke-width="1.58" d="M566.05 225c-30 8.69-51.08-38.84-58.02-60s-34.21-35-41.45-34.34"/><defs><linearGradient id="axdfhhubm" x1="1582.89" x2="-81.98" y1="72.63" y2="72.63" gradientUnits="userSpaceOnUse"><stop stop-color="#151515"/><stop offset=".27" stop-color="#565656"/><stop offset=".49" stop-color="#F1F1F1"/><stop offset=".73" stop-color="#A1A1A1"/><stop offset="1"/></linearGradient><linearGradient id="bxdfhhubm" x1="789.89" x2="789.89" y1="300" y2="236.84" gradientUnits="userSpaceOnUse"><stop/><stop offset="1" stop-opacity="0"/></linearGradient><clipPath id="cxdfhhubm"><path d="m342.63 98.17 119.44-41.12 41.12 119.44-119.43 41.12z"/></clipPath><clipPath id="dxdfhhubm"><path d="m575.23 163.42 53.59 53.6-53.6 53.59-53.59-53.6z"/></clipPath></defs></svg>