<svg xmlns="http://www.w3.org/2000/svg" width="568" height="220" fill="none" viewBox="0 0 568 220"><path stroke="url(#ak0ki5ngg)" stroke-width="1.58" d="M-323.1 827c0-99.02 15.7-197.06 46.2-288.54s75.22-174.6 131.58-244.62C-88.95 223.83-22.04 168.3 51.61 130.4 125.25 92.5 204.18 73 283.89 73s158.65 19.5 232.3 57.4c73.64 37.89 140.55 93.43 196.92 163.44 56.36 70.02 101.07 153.14 131.58 244.62 30.5 91.48 46.2 189.52 46.2 288.54" opacity=".4"/><g clip-path="url(#bk0ki5ngg)"><path fill="#000" d="M60.1 59.4 170.56 12.5l46.88 110.46-110.46 46.89z"/><path fill="#fff" d="M167.22 37.33c3.72-1.94 7.81-3.14 9.92-3.38l1.82-.22-.8 1.65c-5.2 10.68-6.43 18.28-6.24 27.62 3.28 5.11 9.43 16.21 10.88 25.9l.08.52-.4.36-7.35 6.8c-2.4 2.83-7.32 8.31-10.89 11.39q-1.16 1-2.15 1.64c-3.35 2.13-8.53 3.95-10.9 4.66a13 13 0 0 1-3.65 2.52l-.04.02c-.77.3-1.55.01-2.12-.34q-.42-.27-.87-.65-.3.31-.6.65l-1.24 1.22-.18.14-.18.09-5.7 2.42L125 133.85l-.15.18-17.44 7.4-3.27-7.7a6 6 0 0 1-2.54-.7 16 16 0 0 1-4.38-3.6c-2.97-3.3-6.1-8.44-8.89-15.03s-4.54-12.92-5.09-17.86c-.27-2.47-.25-4.64.12-6.34.22-1.02.59-1.96 1.17-2.68l-3.69-8.68 15.6-6.62h.2l22.7.05 2.95-1.25.04-.02.12-.06.16-.05.08-.02.5-.08a36 36 0 0 1 2.18-.23h.05q.06-.61.22-1.12c.18-.54.5-1.11 1.13-1.4.9-.5 2.73-1.3 5.64-1.54a52 52 0 0 1 9.87-3.55q1.27-.3 2.56-.52c5.14-.85 13.69-.6 17.36-.38 1.05-.08 2.37-.02 3.76.03l1.58.06c-1.99-1.4-4.32-3.7-6.05-6.45-1.79-2.85-3-6.33-2.33-9.89a9.4 9.4 0 0 1 2.92-4.91 23 23 0 0 1 5.14-3.56m-58.75 101.48 15.17-6.44 8.82-10.26-26.34 11.18zm32.79-30.58a37 37 0 0 0 3.7 5.21 7 7 0 0 0 1.46 1.32q.33.19.38.17a12 12 0 0 0 3.2-2.28c1-.93 2.56-2.2 4.15-3.83a22 22 0 0 0 2.95-3.64q-.64.11-1.34.26c-2.22.44-4.78 1.02-6.63 1.48-.94.34-2.13.6-3.26.47-.81-.09-1.63-.4-2.26-1.02zm18.33-3.45c-.94 2.03-2.5 3.9-4.01 5.44l-.64.63a37 37 0 0 0 6.08-2.92 14 14 0 0 0 1.22-.9c-.3-.4-.64-.85-1-1.25q-.46-.5-.82-.8c-.28-.23-.39-.24-.35-.24l-.39.03zm-68.47 10.98c2.48 5.42 5.13 9.6 7.59 12.34a14 14 0 0 0 3.78 3.14c1.12.56 1.95.59 2.57.33l34.45-14.63q-.6-.56-1.21-1.34a51 51 0 0 1-4.05-6.2l-1.13.47a2 2 0 0 1-2.62-1.05l-1.95-4.6a2 2 0 0 1 1.06-2.63l.5-.22-.83-1.81zm45.19-6.8a46 46 0 0 0 3.55 5.39 9 9 0 0 0 1.45 1.5q.15.11.23.15l.07-.06.85-.86.66-.7a42 42 0 0 1-3.64-5.23q-.38.05-.74.03zm7.9-44.38q.28.44.51.95c.35.8.52 1.68.52 2.45 0 .48-.23.92-.43 1.23q-.34.52-.86 1.05a27 27 0 0 1-2.65 2.35 72 72 0 0 1-6.79 4.72c-.17.12-.45.36-.65.63-.23.3-.24.46-.24.48l.05.17.15.49.56 1.64c.48 1.35 1.14 3.15 1.93 5.19 1.43 3.73 3.26 8.23 5.06 12.12l.44-.24a3.95 3.95 0 0 1 4.3 6.6l-.9.7q.36.24.89.3c.64.07 1.4-.05 2.1-.28l.3-.1.05-.02.05-.02a153 153 0 0 1 9.78-2.07l1.1-.14c.28-.03.6-.05.84-.02.53.07 1 .38 1.34.64q.56.47 1.08 1.05.56.62 1.02 1.27c3.38-3.07 7.7-7.9 9.9-10.48l.03-.05.05-.04 7-6.47c-1.52-9.1-7.28-19.57-10.47-24.55-1.6.06-3.09 0-4.4-.05-1.49-.06-2.67-.11-3.56-.03h-.16c-3.63-.22-12.06-.46-16.98.35zm17.54 24.67a8 8 0 0 1 3.94-1.33c1.21-.04 2.51.31 3.2 1.42s.46 2.43-.1 3.5a8 8 0 0 1-2.9 2.99 8 8 0 0 1-3.93 1.32c-1.22.04-2.52-.31-3.22-1.41-.7-1.11-.45-2.43.12-3.51a8 8 0 0 1 2.89-2.98m-29.4 18.78 2.77-1.18.25.03 3.54.3a1 1 0 0 0 .7-.2l5.26-4.15a1.95 1.95 0 0 0-2.12-3.25l-5 2.66a3 3 0 0 1-1.54.35l-3.48-.15-2.34 1zm33.41-18.1c-.84.03-1.9.35-2.95 1.01a6 6 0 0 0-2.19 2.22c-.4.77-.34 1.26-.18 1.5.15.25.57.52 1.44.49.84-.03 1.9-.36 2.95-1.02a6 6 0 0 0 2.18-2.22c.41-.77.35-1.26.2-1.5-.16-.25-.58-.52-1.45-.49m-33-21.46c-2.76.21-4.38.95-5.05 1.33l-.05.02-.02.01a1 1 0 0 0-.1.23q-.14.41-.15 1.36c0 1.27.26 3.08.77 5.31a107 107 0 0 0 5.76 16.88 139 139 0 0 0 3.08 6.76l2.6-1.38a209 209 0 0 1-7.68-19.27c-.13-.4-.24-.76-.27-.96-.13-.84.27-1.57.61-2.02.37-.47.82-.85 1.14-1.07l.02-.02.02-.01c2.06-1.26 4.6-3 6.61-4.6.95-.74 1.75-1.45 2.34-2.04-3.78-.54-7.4-.7-9.63-.53m-9.5 4.42q-.1.38-.08 1.3c.04 1.21.33 2.95.86 5.1a114 114 0 0 0 5.65 16.22q1.12 2.64 2.27 5.08l.4-.17h.23l2.26.1q-1.4-2.9-2.77-6.13a109 109 0 0 1-5.87-17.21q-.61-2.64-.77-4.62a24 24 0 0 0-1.98.21l-.16.03zm-34.45 37.33q.64 1.68 1.36 3.4l.14.3 38.16-16.19a176 176 0 0 1-1.56-3.69zM86.7 88.3c-.53.23-1.07.88-1.38 2.32-.3 1.4-.34 3.34-.08 5.7.37 3.39 1.36 7.54 2.9 12.01l38.04-16.15c-1.83-4.69-3.23-8.99-4.08-12.42-.54-2.2-.86-4.08-.91-5.5v-.6zm64.16-16.75a8 8 0 0 1 3.58-2.13 8 8 0 0 1 4.15-.21c1.2.29 2.35.99 2.73 2.24s-.19 2.48-1.02 3.38a8 8 0 0 1-3.58 2.13 8 8 0 0 1-4.16.22c-1.2-.3-2.34-1-2.72-2.25s.18-2.48 1.02-3.38m4.16-.21a6 6 0 0 0-2.7 1.57c-.58.64-.66 1.14-.57 1.44s.44.68 1.28.88c.82.2 1.93.17 3.11-.18a6 6 0 0 0 2.69-1.57c.59-.64.66-1.15.57-1.45s-.43-.68-1.28-.88a6 6 0 0 0-3.1.19m20.5-35.04c-2 .5-4.77 1.45-7.37 2.8-1.76.93-3.4 2.02-4.67 3.23a7.4 7.4 0 0 0-2.34 3.84c-.54 2.88.42 5.84 2.06 8.46a21 21 0 0 0 6.7 6.68c0-8.35 1.28-15.58 5.62-25.01m-37.96 30.2c1.75.1 3.66.3 5.58.59q-.08-.39-.24-.74c-.21-.48-.5-.92-.77-1.3-1.62.43-3.18.94-4.57 1.45M86.2 86.34l28.46-12.08-17.82-.04-13.38 5.68z"/></g><g clip-path="url(#ck0ki5ngg)"><path fill="#fff" d="M301.89 133.32c5.1 1.46 7.84 6.65 5.39 11.74a18 18 0 0 1-2.43 3.74l4.6 9.03.06.11.02.13 1.5 10.15.7 3.01a3.26 3.26 0 0 1-6.3 1.69 2.1 2.1 0 0 1-2.6-2.75l.94-2.4-.9-6.33-2.56-2.94-.23.22q-.24.31-.52.81c-.9 1.56-1.86 3.1-2.17 3.75l-.04.12-.1.34-.29 1.07a175 175 0 0 0-1.36 5.82l-.21.92v.03l.07.12a94 94 0 0 1 4.97 8.73c.61 1.31 1.11 2.6 1.23 3.56a6 6 0 0 1-.93 3.84 15 15 0 0 1-2.71 3.25c-1.06 1-2.23 1.92-3.3 2.75q-1.41 1.08-2.45 1.9l.31 1.84a3.97 3.97 0 1 1-7.83 1.24l-.66-4.64c-.1-.68.1-1.38.57-1.9a473 473 0 0 1 7.3-7.81l-.15-.35a11 11 0 0 0-1.2-1.74 22 22 0 0 0-3.09-3.09 45 45 0 0 1-.63 3.28c-.4 1.7-.96 3.5-1.76 4.6-1.48 2.03-3.94 3.35-6.25 4.29-1.18.47-2.34.85-3.36 1.18q-1.18.37-2.02.65l-.02 2.17a3.85 3.85 0 0 1-7.7.06l-.13-4.92a3.6 3.6 0 0 1 1.77-3.27c1.76-1.02 4.04-2.08 5.83-2.97.91-.45 1.69-.85 2.23-1.18a5 5 0 0 0 .59-.4 519.95 519.95 0 0 0 .21-8.02c.04-2.63.63-5.23 1.78-7.6l.35-.74 3.3-8.72.21-3.6.8.05.78.04-.21 3.72-.01.12-.04.12-3.37 8.86v.04l-.4.8a17 17 0 0 0-1.61 6.93l-.1 4.29c.18.34.33.37.37.38.1.01.3-.02.6-.27a3.1 3.1 0 0 0 1.01-2.53c-.3-2.73.74-5.56 1.53-8.1a198 198 0 0 1 4.15-10.51c.46-1.12.4-2.38-.18-3.43l-.19-.35-3.55-.19c-3.32-.17-6.6.86-9.22 2.9l-1.26.98a1.5 1.5 0 0 0-.59 1.17l-.07 3.54a1.81 1.81 0 0 1-2.8 1.48 1 1 0 0 1-.24-.23l-.21-.3-.04.05a3.9 3.9 0 0 1-4.12 1.97 3.3 3.3 0 0 1-2.39-4.69l2.09-4.32a9 9 0 0 1 2.04-2.68l5.38-4.72a17 17 0 0 1 5.65-3.25l9.72-3.26.1-.04h.11l6.44-.35q.04-1.58.38-3.25c1.05-5.23 5.4-6.71 9.06-5.83zm-26.37 51.64q-.71.4-1.57.8c-1.84.92-4.04 1.95-5.74 2.93-.63.36-1 1.07-.98 1.86l.13 4.92a2.27 2.27 0 0 0 4.54-.04l.02-2.72v-.54l.51-.19c.68-.26 1.62-.54 2.61-.86a45 45 0 0 0 4.06-1.48 7 7 0 0 1-3.59-4.68m21.1 5.26a6.47 6.47 0 0 1-4.96-3.16 420 420 0 0 0-5.82 6.26.8.8 0 0 0-.19.63l.67 4.64a2.39 2.39 0 1 0 4.7-.75l-.39-2.28-.08-.45.35-.29c.77-.66 1.8-1.43 2.86-2.24a46 46 0 0 0 2.87-2.36m7.09-40.18q-1.46 1.44-2.97 2.27l-.2.43-.83 1.45a31 31 0 0 1-1.43 2.24l-.36.48-.56-.23c-.89-.36-2.55-.98-4.05-1.53l-1.97-.72c-.5-.19-.92-.34-1.04-.4l-.64-.31.23-.66c.4-1.12.38-3.01.1-4.92-.13-.93-.32-1.83-.53-2.58a8 8 0 0 0-.56-1.5l-3.06.17-2.77.93.23.39c.39.68.8 1.6.82 2.4l.02.76-.75.05c-1.4.1-4 .8-5.15 1.16l-.7.22-.27-.69c-.1-.3-.31-.77-.55-1.22q-.28-.52-.48-.78h-.02a15 15 0 0 0-5.1 2.95l-5.39 4.72a7 7 0 0 0-1.66 2.18l-2.09 4.32a1.72 1.72 0 0 0 1.25 2.44c.99.17 1.98-.3 2.46-1.17l.64-1.16.62-1.1.72 1.03.83 1.18c.14.02.27-.07.28-.22l.07-3.54a3.1 3.1 0 0 1 1.2-2.38l1.26-.99a15.4 15.4 0 0 1 10.27-3.22l4 .2.44.03.2.38.4.74c.82 1.48.9 3.24.25 4.8-1.5 3.62-3.57 8.69-4.1 10.37-.84 2.7-1.72 5.14-1.46 7.45a4.7 4.7 0 0 1-1.56 3.92c-.49.4-1.15.73-1.86.62l-.18-.04-.08 2.1c-.02.26-.13.46-.22.57a2 2 0 0 1-.47.46 5.5 5.5 0 0 0 4.04 4.6 9 9 0 0 0 2.88-2.46c.59-.81 1.1-2.33 1.5-4.03.39-1.66.65-3.36.8-4.44.27-2.03.3-2.41.17-3.4l.78-.1.78-.11c.15 1.12.11 1.68-.1 3.34a23 23 0 0 1 4.04 3.88c.58.72 1.07 1.42 1.38 2q.24.45.33.89c.05.25.1.73-.27 1.1q-.11.13-.43.46.1.31.37.73c.3.45.74.9 1.29 1.27a4.4 4.4 0 0 0 3.84.65q.6-.72 1.03-1.44.87-1.45.72-2.85c-.09-.69-.48-1.77-1.09-3.08-.6-1.29-1.37-2.7-2.13-4.04a109 109 0 0 0-2.74-4.51l-.18-.29-.05-.07-.01-.02v-.01l-.19-.28.07-.32v-.03l.02-.06.06-.26.2-.93a394 394 0 0 1 1.38-5.86l.3-1.12c.07-.27.16-.55.24-.71.34-.72 1.38-2.4 2.22-3.85q.3-.55.7-1.06l.02-.02q.19-.22.42-.4c1.5-1.57 1.83-2.77 2.06-3.52l1.5.46c-.2.7-.51 1.77-1.53 3.1l2.85 3.28.15.17.04.24.96 6.77.03.2-.07.2-1.01 2.58c-.16.4.23.82.64.68l.1-.04.26-.3 1-1.18.37 1.5.25.99a1.68 1.68 0 0 0 3.27-.8l-.72-3.04v-.03l-.01-.03-1.48-10.06zm-25.92-3.11a8 8 0 0 1 .67 1.28c1.07-.3 2.65-.71 3.92-.91a6 6 0 0 0-.87-1.62zm12.8-2.96q.21.54.39 1.16c.23.82.44 1.79.58 2.79.24 1.64.32 3.48.02 4.91l.3.12 1.98.72c1.2.44 2.55.94 3.5 1.31.26-.4.63-.97 1-1.59l.16-.3q-1.02.15-1.84-.24l-.31-.17c-2.36-1.35-4.01-4.7-4.26-8.79zm15.55-.27c1.47-3.9-.67-7.71-4.69-8.86a6.3 6.3 0 0 0-4.55.33 5.5 5.5 0 0 0-2.8 3.79l-.09.41-.1.55c-.47 2.72-.26 5.27.4 7.3a9 9 0 0 0 1.71 3.16c-.49-2.78-.24-5.32.4-8.24l.2-.98.9.44a23 23 0 0 0 6 1.92q1.32.22 2.13.2.3 0 .5-.02m-.77 1.6q-.92-.03-2.1-.22c-1.6-.28-3.56-.8-5.51-1.64-.54 2.82-.61 5.22.09 7.93l-.39.1c.29.1.71.13 1.34-.04q.35-.1.72-.27l.01-.04h.05a9 9 0 0 0 1.63-.99 16 16 0 0 0 4.16-4.83"/></g><path stroke="#fff" stroke-width="1.58" d="M278.05 175c-30 8.69-51.08-38.84-58.02-60s-34.22-35-41.45-34.34"/><defs><clipPath id="bk0ki5ngg"><path d="M60.1 59.4 170.56 12.5l46.88 110.46-110.46 46.89z"/></clipPath><clipPath id="ck0ki5ngg"><path d="m287.23 113.42 53.59 53.6-53.6 53.59-53.59-53.6z"/></clipPath><linearGradient id="ak0ki5ngg" x1="890.89" x2="-334.05" y1="73" y2="73" gradientUnits="userSpaceOnUse"><stop stop-color="#151515"/><stop offset=".27" stop-color="#565656"/><stop offset=".49" stop-color="#F1F1F1"/><stop offset=".73" stop-color="#A1A1A1"/></linearGradient></defs></svg>