<svg xmlns="http://www.w3.org/2000/svg" width="620" height="468" fill="none" viewBox="0 0 620 468"><path fill="#000" d="M0 0h620v468H0z"/><g filter="url(#aigplfgxl)"><path stroke="#2962FF" stroke-linejoin="round" stroke-width="2" d="M35 264.89h9.51v-14.26h6.66v32.32h6.18v-24.71h6.18v-57.5h5.7v15.2h6.67v-16.63h6.18v-74.14h6.66v28.52h6.18v18.53h6.18v15.68h6.66v52.28h5.7v-25.66h7.14v69.85h5.7v-68.43h6.18v-18.06h6.66v48.48h6.18v3.32h6.19v-33.26h6.18v31.36h6.65v27.57h6.19v-10.46h6.18v-66.53h6.66v-76.51h5.7V87.63h6.66V26.8h6.18V23h7.13v17.58h5.71V119h6.18v80.8h6.66v-34.22h5.7v-13.78h6.66v16.63h6.19v-54.65h6.65v10.45h5.7v-2.85h6.67v14.73h6.65v9.5H278v3.81h5.7v-3.8h7.13v34.21h6.19v37.07h6.18v18.06h6.18v-2.85h6.18v60.83h6.66v2.85h5.7v8.08h6.66v68.43h6.66v-4.75h5.7V264.89h6.67v42.3h6.18v48h6.65v30.4h6.19v-20.43h6.18V445h6.66v-74.61h5.7v17.58h6.66v-31.36h6.18v14.73h6.66v-46.57h5.7v-24.71h6.66v12.83h6.19v66.53h6.18v8.55h6.65v-53.7h6.19v13.3h6.65v38.5h5.71v-7.6h6.66v-9.98h6.18v-2.85h6.66v23.28h5.7v-35.16h6.66v-13.31h6.18v-45.62h6.18v-4.75h6.66v-26.62h6.18V224.5h6.66v-41.35h5.7v27.56h6.66v-49.9h6.19v37.55h6.65v-38.5h5.71v4.76h6.66v-9.98h6.65v26.61h5.71v-6.18h6.66v24.71H584"/></g><defs><filter id="aigplfgxl" width="573" height="448" x="23" y="10" color-interpolation-filters="sRGB" filterUnits="userSpaceOnUse"><feFlood result="BackgroundImageFix"/><feColorMatrix in="SourceAlpha" result="hardAlpha"/><feGaussianBlur stdDeviation="6"/><feColorMatrix values="0 0 0 0 0.160784 0 0 0 0 0.384314 0 0 0 0 1 0 0 0 1 0"/><feBlend in="SourceGraphic"/></filter></defs></svg>