<svg width="201" height="81" viewBox="0 0 201 81" xmlns="http://www.w3.org/2000/svg"><path d="M.4.2h200v80H.4z"/><path d="M48.16 52.2c-2.35.07-4.7-.34-6.88-1.2l-.88-5.45h.7l.69 1.28c1.57 3.08 3.55 4.38 6.7 4.38 3.6 0 5.68-1.76 5.68-4.65 0-2.61-1.53-3.9-5.82-5.41-4.85-1.65-7.3-3.53-7.3-7.7s3.83-7.24 8.6-7.24c2.95 0 4.7.4 6.32 1.05l.93 5.64h-.74l-.65-1.33c-1.48-3.07-3.33-4.36-6.15-4.36-2.95 0-4.7 1.7-4.7 4.22 0 2.52 1.42 3.8 5.54 5.18 5.36 1.79 7.62 3.8 7.62 7.93 0 4.59-4.39 7.66-9.66 7.66ZM70.4 50.09c-1.52 1.26-3.05 2.12-4.98 2.12-2.87 0-4.02-1.27-4.02-4.28V36.2h-3v-.52l3.06-1.04 2.81-5.44h1.13v5.58h4.59v1.42H65.4v11.67c0 1.71.62 2.57 2 2.57.91.02 1.8-.28 2.5-.86l.5.5ZM80.83 52.2c-5.22 0-9.06-3.17-9.06-9.1 0-5.05 3.75-8.9 9.06-8.9 5.31 0 9.06 3.18 9.06 9.12a8.78 8.78 0 0 1-9.06 8.89Zm-.5-17c-2.55 0-3.93 1.77-3.93 6.87 0 5.58 1.8 9.14 4.9 9.14 2.58 0 4.1-1.82 4.1-6.91.05-5.54-1.94-9.1-5.08-9.1ZM111.69 52.2c-.84 0-2.96-.04-4.58-.04s-3.83.05-4.71.05v-.56l.78-.09c1.62-.27 1.9-.78 1.9-4.04V40.5c0-2.71-1.2-4.04-3.28-4.04-1.38 0-2.6.5-3.64 1.37v9.7c0 3.25.13 3.71 1.79 4.03l.45.1v.55c-.88 0-2.8-.05-4.43-.05-1.61 0-3.74.05-4.57.05v-.56l.74-.09c1.52-.23 1.8-.78 1.8-4.36v-7.71c0-1.93-.32-2.48-1.66-3.08L91.4 36v-.42l6.24-1.37.52.32V37c1.99-1.66 3.78-2.8 6.13-2.8 3.33 0 5.11 1.79 5.11 5.5v7.49c0 3.63.3 4.04 1.87 4.36l.65.1v.55h-.23ZM117.2 41.6v.22c.09 5 2.86 7.98 6.56 7.98 2.03 0 3.46-.71 4.99-2.18l.5.35c-1.94 2.59-4.43 4.24-7.67 4.24-4.7 0-8.27-3.17-8.27-8.51 0-5.8 4.53-9.5 8.88-9.5 4.8 0 7.11 2.59 7.25 7.36l-12.25.04Zm7.85-.93c-.1-3.61-1.48-5.48-3.6-5.48-2.45 0-3.98 2-4.26 5.48h7.86ZM155.4 52.16c-.65 0-3.87-.1-5.12-.1-1.34 0-5.23.1-5.88.1v-.52l1.04-.18c1.1-.19 1.56-.47 1.56-1.17 0-.56-.36-1.3-1.15-2.52l-4.01-6.21-4.01 5.6c-.93 1.31-1.34 2.29-1.34 3 0 .7.41 1.16 1.52 1.34l1.39.2v.5c-.65 0-3.7-.09-4.99-.09s-3.32.1-4.01.1v-.52l.6-.1c1.61-.27 3.14-1.67 4.34-3.21l5.85-7.75-5.76-8.55c-1.34-2-2.26-2.9-3.7-3.17l-.73-.14v-.52c.65 0 3.88.1 5.12.1 1.34 0 5.26-.1 5.95-.1v.52l-1.15.18c-.97.14-1.53.47-1.53 1.17 0 .56.37 1.3 1.16 2.52l3.46 5.37 3.36-4.76c.88-1.3 1.34-2.29 1.34-2.99 0-.7-.46-1.17-1.52-1.35l-1.2-.2v-.5c.65 0 3.5.09 4.8.09 1.29 0 3.32-.1 4.01-.1v.52l-.6.1c-1.61.27-3.09 1.53-4.33 3.21l-5.22 6.87 6.32 9.34c1.34 2 2.26 2.9 3.7 3.17l.73.14v.6ZM159.66 28.4c.23.14.41.32.54.55.27.47.27 1.04 0 1.51-.13.23-.31.41-.54.55-.47.26-1.05.26-1.52 0a1.42 1.42 0 0 1-.54-.55 1.56 1.56 0 0 1 0-1.52c.13-.22.31-.41.54-.54a1.56 1.56 0 0 1 1.52 0Zm-.1 2.45c.2-.12.36-.28.47-.48a1.38 1.38 0 0 0 0-1.33c-.1-.2-.27-.36-.46-.47a1.35 1.35 0 0 0-1.33 0c-.2.11-.36.27-.47.47-.12.2-.18.43-.17.67 0 .23.06.46.17.66.11.2.27.36.47.48.41.23.92.23 1.33 0Zm-.15-.8.33.54h-.34l-.34-.57a.26.26 0 0 0-.1-.1.33.33 0 0 0-.15-.04h-.23v.7h-.3v-1.76h.74c.16-.01.32.04.45.14.2.2.21.5.04.72-.09.1-.2.16-.33.17.1.03.18.1.23.2Zm-.17-.48a.26.26 0 0 0 .08-.2.26.26 0 0 0-.08-.23.42.42 0 0 0-.26-.07h-.4v.57h.4c.1.01.18-.02.26-.07Z" fill="#fff"/></svg>