<svg xmlns="http://www.w3.org/2000/svg" width="230" height="100" viewBox="0 0 230 100"><path d="M39.62 34c8.14 0 14.61 6.48 14.61 14.62 0 8.14-6.47 14.61-14.61 14.61A14.53 14.53 0 0 1 25 48.62C25 40.48 31.48 34 39.62 34zm7.29 10.94v-2.42H32.32v2.42h14.59zm-2.42 9.77h2.42V47.4H32.32v7.32h2.42v-2.76c0-.79.2-1.23.48-1.54.31-.38.78-.6 1.35-.6.56 0 1.03.22 1.35.6.28.31.47.75.47 1.54v2.76h2.45v-2.76c0-.79.2-1.23.48-1.54.31-.38.78-.6 1.35-.6.56 0 1.03.22 1.35.6.28.31.47.75.47 1.54v2.76z" fill="#FA5B35"/><path d="M63.14 43.12c0 2.64 3.77 3.17 6.6 4.8a5.9 5.9 0 0 1 3.2 5.41c0 3.96-3.23 6.45-6.81 6.45-3.59 0-6.17-1.73-7.17-2.83l1.41-2.99h.13a7.69 7.69 0 0 0 5.37 2.26c1.54 0 3.21-.9 3.21-2.7 0-2.67-3.77-3.2-6.6-4.84a5.89 5.89 0 0 1-3.2-5.4c0-3.97 3.26-6.45 6.9-6.45a9.93 9.93 0 0 1 6.77 2.67l-1.42 2.99h-.13a7.13 7.13 0 0 0-4.9-2.1c-1.7 0-3.36.9-3.36 2.73zM80.49 59.3h-2.51L73.5 46.73h3.71l2.2 6.38h.13l3.11-8.9h2.51l3.27 9h.13l3.14-9h3.52l-5.37 15.1H87.4l-3.46-9.5h-.12l-3.34 9.5zm20.02-17.76h-3.74v-3.61h3.74v3.61zm-.06 17.76h-3.61V44.22h3.61V59.3zm8.42.48a8.27 8.27 0 0 1-5.65-2.2l1-2.7h.13a6.46 6.46 0 0 0 4.24 1.78c1.26 0 2.08-.53 2.08-1.47 0-.98-1.04-1.36-2.33-1.77-2.08-.65-4.81-1.66-4.81-4.8 0-2.9 2.26-4.88 5.5-4.88a8.2 8.2 0 0 1 5.03 1.8l-1 2.73h-.13a6.24 6.24 0 0 0-3.62-1.42c-1.41 0-2.23.54-2.23 1.48 0 .98 1.04 1.35 2.33 1.76 2.07.66 4.8 1.67 4.8 4.81 0 2.9-2.25 4.88-5.34 4.88zm12.92 0a8.27 8.27 0 0 1-5.65-2.2l1-2.7h.13a6.46 6.46 0 0 0 4.24 1.78c1.26 0 2.08-.53 2.08-1.47 0-.98-1.04-1.36-2.33-1.77-2.08-.65-4.81-1.66-4.81-4.8 0-2.9 2.26-4.88 5.5-4.88a8.2 8.2 0 0 1 5.03 1.8l-1 2.73h-.13a6.24 6.24 0 0 0-3.62-1.42c-1.41 0-2.23.54-2.23 1.48 0 .98 1.04 1.35 2.33 1.76 2.07.66 4.8 1.67 4.8 4.81 0 2.9-2.25 4.88-5.34 4.88zm18.68-14.65v-.91h3.3V65.9h-3.62v-7.7a6.01 6.01 0 0 1-3.99 1.57c-4.27 0-7-3.3-7-7.86 0-4.28 2.91-8.18 7.38-8.18a6.2 6.2 0 0 1 3.8 1.39h.13zm-.32 3.01a4.7 4.7 0 0 0-3.05-1.1c-2.57 0-4.24 2.02-4.24 4.85 0 2.54 1.45 4.59 4.02 4.59a4.4 4.4 0 0 0 3.27-1.42v-6.92zm6.67-3.92h3.61v9.02c0 1.32.22 1.88.6 2.35a2.7 2.7 0 0 0 2.07.95c.85 0 1.6-.38 2.08-.95.38-.47.6-1.03.6-2.35v-9.02h3.61v8.64c0 2.45-.66 4-1.8 5.1a6.44 6.44 0 0 1-4.64 1.82c-1.76 0-3.3-.66-4.4-1.76-1.1-1.1-1.73-2.68-1.73-5.16v-8.64zm15.05 7.7c0-4.81 3.27-8.18 7.86-8.18a7.61 7.61 0 0 1 7.86 7.86c0 4.81-3.27 8.18-7.86 8.18a7.61 7.61 0 0 1-7.86-7.86zm7.86-4.88c-2.42 0-4.15 2.05-4.15 4.72s1.73 4.72 4.15 4.72c2.42 0 4.15-2.05 4.15-4.72s-1.73-4.71-4.15-4.71zm20.12 9.3v2.8c-.97.42-2.04.64-3.24.64a4.9 4.9 0 0 1-3.61-1.3c-.88-.87-1.32-2.16-1.32-4.46v-6.66h-3.46v-3.14h3.46v-5.03h3.61v5.03h4.56v3.14h-4.56v7.13c0 .79.16 1.23.41 1.51.44.5 1.16.63 1.95.63.82 0 1.79-.19 2.07-.28h.13zm13.42-1.44l1.35 2.52a7.97 7.97 0 0 1-5.9 2.36c-4.4 0-7.7-3.12-7.7-7.86 0-4.34 2.63-8.18 7.32-8.18 3.99 0 6.66 3.18 6.66 7.55v1.2h-10.22c.1 2.35 1.73 4.11 4.12 4.11 1.54 0 2.96-.63 4.25-1.7h.12zm-1.89-5.25a2.9 2.9 0 0 0-2.98-2.82c-1.82 0-3.05 1.22-3.43 2.82h6.41z" fill="#fff"/></svg>