<svg xmlns="http://www.w3.org/2000/svg" width="200" height="60" viewBox="0 0 200 60"><path fill="#FA5B35" d="M43.05 18c6.15 0 11.04 5.08 11.04 11.46S49.19 40.9 43.05 40.9a10.6 10.6 0 0 1-7.83-3.33A11.8 11.8 0 0 1 32 29.46C32 23.08 36.9 18 43.05 18m5.5 8.57v-1.9H37.53v1.9zm-1.82 7.66h1.82V28.5H37.53v5.74h1.83v-2.16c0-.62.15-.97.36-1.21q.38-.46 1.02-.47.65.01 1.02.47c.21.24.36.59.36 1.2v2.17h1.85v-2.16c0-.62.15-.97.36-1.21q.37-.46 1.02-.47.65.01 1.02.47c.21.24.36.59.36 1.2z"/><path fill="#fff" d="M60.82 25.15c0 2.07 2.85 2.48 4.98 3.76q1.14.61 1.8 1.76.65 1.14.62 2.48c0 3.1-2.44 5.05-5.14 5.05a7.5 7.5 0 0 1-5.42-2.2l1.06-2.35h.1a5.7 5.7 0 0 0 4.06 1.77c1.16 0 2.42-.7 2.42-2.11 0-2.1-2.84-2.51-4.98-3.8q-1.14-.61-1.8-1.75a5 5 0 0 1-.62-2.48c0-3.1 2.46-5.05 5.21-5.05 1.9 0 3.73.75 5.12 2.09l-1.07 2.34h-.1a5.3 5.3 0 0 0-3.7-1.64c-1.29 0-2.54.7-2.54 2.14m13.1 12.68h-1.9l-3.38-9.85h2.8l1.67 5h.1L75.56 26h1.9l2.46 7.05h.1L82.4 26h2.66L81 37.84h-1.85l-2.62-7.45h-.09zM89.06 23.9h-2.82v-2.83h2.82zm-.04 13.92h-2.73V26H89zm6.36.37a6 6 0 0 1-4.27-1.72l.76-2.12h.1c.86.86 2 1.36 3.2 1.4.95 0 1.57-.42 1.57-1.15 0-.77-.79-1.07-1.76-1.4-1.57-.5-3.64-1.3-3.64-3.75 0-2.28 1.71-3.83 4.16-3.83 1.38.02 2.72.52 3.8 1.41l-.76 2.14h-.1a4.6 4.6 0 0 0-2.73-1.1c-1.06 0-1.68.41-1.68 1.15 0 .77.78 1.06 1.76 1.38 1.56.52 3.62 1.3 3.62 3.77 0 2.27-1.7 3.82-4.03 3.82m9.76 0a6 6 0 0 1-4.27-1.72l.76-2.12h.1c.86.86 2 1.36 3.2 1.4.95 0 1.57-.42 1.57-1.15 0-.77-.79-1.07-1.76-1.4-1.57-.5-3.63-1.3-3.63-3.75 0-2.28 1.7-3.83 4.15-3.83 1.38.02 2.72.52 3.8 1.41l-.75 2.14h-.1a4.6 4.6 0 0 0-2.74-1.1c-1.06 0-1.68.41-1.68 1.15 0 .77.78 1.06 1.76 1.38 1.56.52 3.63 1.3 3.63 3.77 0 2.27-1.7 3.82-4.04 3.82m14.11-11.48V26h2.5v17H119v-6.03a4.5 4.5 0 0 1-3 1.23c-3.23 0-5.3-2.59-5.3-6.16 0-3.36 2.2-6.41 5.59-6.41 1.04.02 2.05.4 2.87 1.08zm-.24 2.36a3.5 3.5 0 0 0-2.3-.86c-1.94 0-3.2 1.58-3.2 3.8 0 2 1.09 3.6 3.03 3.6A3.2 3.2 0 0 0 119 34.5zm5.04-3.07h2.73v7.07c0 1.03.17 1.47.45 1.84a2 2 0 0 0 1.57.74c.64 0 1.2-.3 1.57-.74.28-.37.45-.8.45-1.84V26h2.73v6.77c0 1.92-.5 3.14-1.36 4a4.85 4.85 0 0 1-6.83.04c-.83-.86-1.3-2.1-1.3-4.04zm11.37 6.03c0-3.77 2.47-6.4 5.94-6.4a5.6 5.6 0 0 1 4.26 1.74 6 6 0 0 1 1.68 4.41c0 3.77-2.47 6.41-5.94 6.41a5.6 5.6 0 0 1-4.26-1.74 6 6 0 0 1-1.68-4.42m5.94-3.82c-1.83 0-3.13 1.6-3.13 3.7s1.3 3.7 3.13 3.7 3.14-1.6 3.14-3.7-1.31-3.7-3.14-3.7m15.2 7.29v2.2a6 6 0 0 1-3.9.27q-.72-.26-1.27-.8c-.67-.68-1-1.69-1-3.49v-5.22h-2.61V26h2.61v-3.94h2.73V26h3.44v2.46h-3.44v5.59c0 .62.12.96.3 1.18.34.4.88.5 1.48.5.62 0 1.35-.15 1.57-.22zm10.14-1.13 1.02 1.97a6 6 0 0 1-4.46 1.85c-3.32 0-5.81-2.44-5.81-6.16 0-3.4 1.98-6.4 5.53-6.4 3.01 0 5.03 2.49 5.03 5.91v.94h-7.72c.07 1.84 1.3 3.22 3.11 3.22a5 5 0 0 0 3.21-1.33zm-1.43-4.12a2.3 2.3 0 0 0-.68-1.58 2.2 2.2 0 0 0-1.57-.63c-1.37 0-2.3.96-2.59 2.21z"/></svg>