<svg width="728" height="323" viewBox="0 0 728 323" fill="none" xmlns="http://www.w3.org/2000/svg"><g clip-path="url(#al3i40pjc)"><path fill="#000" d="M0 0h728v323H0z"/><g opacity=".7" filter="url(#bl3i40pjc)"><rect x="47" y="40" width="360" height="507" rx="29" fill="url(#cl3i40pjc)"/></g><rect opacity=".7" x="48" y="41" width="358" height="619" rx="25" fill="url(#dl3i40pjc)" fill-opacity=".2" stroke="url(#el3i40pjc)" stroke-width="2"/><g filter="url(#fl3i40pjc)"><g clip-path="url(#gl3i40pjc)"><rect x="49" y="42" width="350" height="779" rx="24" fill="#000"/><circle cx="73.33" cy="145.33" r="8.76" fill="#F60"/><g clip-path="url(#hl3i40pjc)"><path d="M68.68 147.66a.67.67 0 0 1-.22-.12c-.62-.6.17-1.3 1.09-1.72v-1.17c.22.13.32.15.34.17l.7-.7-.24-.6c2.05-.73 2.88-1 4.54-1.3l-.3-.27.5-.29c1.11.38 2.16.48 1.98 1.43.05-.64-.74-.88-1.95-1.23l-.23.14.45.38c-2 .35-3.22.74-4.68 1.25l.2.53-.73.73c.13.04 1.4.48 2.73-.47 0 0 .02-.01.02-.03-.04-.07-.13-.13-.24-.23.38.02.64.37.59.73h-.18a.54.54 0 0 0-.05-.32 3.41 3.41 0 0 1-3.23.51v.9c-.5.18-1.38.74-1.37 1.27a.5.5 0 0 0 .28.41Z" fill="#010101"/><path d="M72.84 147.43a8.15 8.15 0 0 1-3.79 1.1c-2.1-.05-2.43-1.48-1.43-2.98a9.07 9.07 0 0 1 4.84-3.74 8.66 8.66 0 0 1 2.68-.54c1.42-.01 2.79.43 2.7 1.8-.05 1.07-1.55 2.56-2.33 3.63-.34.47-.4.77.18.75 2.08-.14 3.33-.6 5.07-1.36-1.17.81-6.67 3.64-6.7 1.52 0-.27.14-.55.33-.85.2-.3.47-.62.75-.94.42-.5 1.46-1.66 1.8-2.36.6-1.33-.73-1.4-1.86-1.8l-.49.28.3.28a23.5 23.5 0 0 0-4.53 1.29l.23.6-.7.7c0-.02-.12-.03-.34-.16v1.16c-.91.41-1.7 1.13-1.08 1.73.06.06.16.1.22.12h-.01c1.12.66 4.17-.23 4.16-.23Z" fill="#fff"/></g><circle cx="84.04" cy="145.33" r="9.26" fill="#ED1556" stroke="#101010"/><path d="M87.95 144.66c-.55-.55-1.6-1.08-2.6-.57l-.11.06.04-.13c.5-1-.02-2.05-.58-2.6-1.12-1.12-2.94-1.41-4.34-.02-2.5 2.5.44 5.57-1 8.4l-.19.4.39-.21c2.83-1.44 5.9 1.5 8.4-1 1.4-1.4 1.11-3.2-.01-4.33Zm-2.35 3.25c-1.37 1.37-3.05-.24-4.6.55l-.2.11.1-.22c.79-1.54-.82-3.22.54-4.58.77-.76 1.76-.6 2.37.01.3.3.3 1.1.03 1.65l-.03.07.06-.04c.56-.27 1.41-.21 1.71.09.62.61.78 1.6.02 2.36Z" fill="#fff"/><circle cx="94.75" cy="145.33" r="9.26" fill="url(#il3i40pjc)" stroke="#101010"/><path d="M91.3 139.39h2.2v11.89h-2.2v-11.9ZM96 139.39h2.19v11.89h-2.2v-11.9Z" fill="#DB0916"/><path d="M95.9 151.28h2.29l-4.59-11.9h-2.3l4.6 11.9Z" fill="#FF3540"/><path d="M72.25 171.81c0-.25-.04-.48-.12-.68-.08-.2-.21-.38-.4-.55-.2-.16-.47-.32-.83-.48-.34-.16-.79-.32-1.33-.49-.6-.18-1.14-.38-1.64-.6-.5-.23-.93-.5-1.3-.79-.37-.3-.66-.65-.87-1.03-.2-.4-.3-.85-.3-1.37a3.02 3.02 0 0 1 1.23-2.46c.4-.3.87-.54 1.4-.7a5.95 5.95 0 0 1 1.8-.27c.93 0 1.72.18 2.4.52.66.34 1.18.8 1.54 1.38.36.57.55 1.2.55 1.9h-2.13c0-.4-.1-.77-.27-1.08a1.8 1.8 0 0 0-.79-.76 2.85 2.85 0 0 0-1.32-.27c-.5 0-.93.08-1.27.23a1.7 1.7 0 0 0-.75.63c-.17.26-.25.55-.25.88 0 .24.06.45.16.65.11.18.28.36.5.53.22.16.5.3.84.45.34.14.73.28 1.19.41.69.2 1.29.43 1.8.68.52.25.94.53 1.29.84a3.1 3.1 0 0 1 1.02 2.42c0 .52-.1 1-.31 1.42-.22.41-.52.77-.91 1.06-.39.3-.86.52-1.4.68a6.63 6.63 0 0 1-5.16-.74 3.48 3.48 0 0 1-1.55-2.97h2.15c0 .41.07.76.2 1.04.14.29.34.52.6.7.24.18.53.31.86.4a4.39 4.39 0 0 0 2.34-.09c.34-.14.6-.34.77-.6.17-.25.26-.55.26-.89ZM78.71 168.25l2.15-1.45c.36-.24.62-.47.77-.7.15-.24.23-.53.23-.87 0-.3-.11-.57-.34-.83a1.24 1.24 0 0 0-.97-.37c-.29 0-.53.07-.73.2-.2.14-.35.31-.46.53a1.76 1.76 0 0 0 .05 1.53c.14.27.32.55.54.84.23.3.49.6.77.94l5.89 6.95h-2.39l-4.8-5.65c-.42-.5-.79-.97-1.1-1.38a6.4 6.4 0 0 1-.75-1.22 3.32 3.32 0 0 1 .14-2.9 2.7 2.7 0 0 1 1.13-1.1 3.65 3.65 0 0 1 1.72-.38c.63 0 1.18.13 1.63.39a2.69 2.69 0 0 1 1.23 3.45c-.14.32-.34.62-.6.89-.24.26-.53.52-.86.76l-2.61 1.9c-.3.24-.53.48-.68.7a2.07 2.07 0 0 0-.12 2.11c.16.3.4.53.7.71.3.17.68.26 1.11.26.48 0 .94-.1 1.38-.32.45-.22.85-.52 1.2-.91a5.03 5.03 0 0 0 1.15-3.23h1.78c0 .6-.06 1.17-.18 1.71-.11.54-.3 1.05-.55 1.5-.25.47-.58.88-1 1.25l-.13.15-.14.15a4.9 4.9 0 0 1-1.65 1 5.68 5.68 0 0 1-4.08-.12 3.4 3.4 0 0 1-1.4-1.25 3.42 3.42 0 0 1-.5-1.82c0-.51.11-.95.33-1.34.2-.39.5-.74.86-1.08.37-.33.8-.67 1.28-1ZM93.25 170.38H90v-1.7h3.25c.56 0 1.02-.1 1.37-.28.34-.18.6-.43.76-.75.16-.33.24-.7.24-1.12 0-.39-.08-.76-.24-1.1a1.89 1.89 0 0 0-.76-.84c-.35-.2-.8-.31-1.37-.31h-2.59v10.74h-2.14v-12.46h4.73c.96 0 1.78.18 2.45.52.68.33 1.2.8 1.55 1.4.35.6.53 1.27.53 2.04 0 .8-.18 1.5-.53 2.07a3.41 3.41 0 0 1-1.55 1.32c-.67.31-1.49.47-2.45.47ZM106.88 169.23l-1.64-.4.67-6.27h6.72v1.75h-5l-.35 3.05a4.02 4.02 0 0 1 1.98-.5c.59 0 1.11.1 1.57.3.47.18.87.46 1.2.82.32.36.56.8.74 1.32a5.48 5.48 0 0 1 0 3.35c-.17.5-.42.94-.76 1.33-.33.38-.76.68-1.27.9-.5.2-1.11.31-1.8.31-.52 0-1.02-.07-1.5-.22a4.1 4.1 0 0 1-1.28-.68 3.46 3.46 0 0 1-1.3-2.64h2.02c.05.4.16.75.34 1.03.17.28.4.5.7.65.29.14.62.22 1 .22.35 0 .65-.06.9-.18.26-.13.46-.3.63-.53.17-.23.3-.5.38-.82a3.99 3.99 0 0 0-.02-2.05c-.1-.3-.23-.56-.42-.78-.18-.23-.42-.4-.7-.52-.27-.12-.6-.18-.96-.18-.5 0-.87.07-1.13.2-.26.15-.5.33-.72.54ZM123.28 167.75v2.03c0 .98-.1 1.81-.3 2.5a4.34 4.34 0 0 1-.81 1.67c-.36.43-.8.74-1.3.94a4.8 4.8 0 0 1-3.04.11 3.34 3.34 0 0 1-1.98-1.62 5.78 5.78 0 0 1-.55-1.53 10 10 0 0 1-.19-2.06v-2.04c0-.98.1-1.8.29-2.48.2-.68.47-1.23.83-1.65.36-.43.79-.74 1.28-.94.5-.19 1.06-.29 1.68-.29.5 0 .95.07 1.37.2a3.2 3.2 0 0 1 1.98 1.6c.24.4.43.91.55 1.5.13.6.19 1.28.19 2.06Zm-2.06 2.33v-2.64c0-.5-.03-.93-.09-1.3-.05-.39-.14-.71-.25-.97-.11-.27-.25-.49-.41-.65-.17-.18-.36-.3-.57-.37a1.99 1.99 0 0 0-.71-.12c-.32 0-.6.06-.86.19-.25.12-.46.31-.63.58-.17.27-.3.62-.4 1.06-.08.43-.12.96-.12 1.58v2.64c0 .5.03.94.08 1.32.06.38.15.71.26.99.12.26.25.49.41.66.17.17.36.3.57.38.21.08.45.12.7.12.33 0 .62-.06.87-.19.25-.12.46-.32.63-.6.17-.28.3-.64.39-1.08.08-.45.13-.98.13-1.6ZM133.72 167.75v2.03c0 .98-.1 1.81-.29 2.5a4.35 4.35 0 0 1-.82 1.67c-.36.43-.79.74-1.29.94a4.8 4.8 0 0 1-3.04.11 3.34 3.34 0 0 1-1.99-1.62 5.77 5.77 0 0 1-.55-1.53c-.12-.6-.19-1.28-.19-2.06v-2.04c0-.98.1-1.8.3-2.48.19-.68.47-1.23.83-1.65.35-.43.78-.74 1.28-.94.5-.19 1.06-.29 1.67-.29.5 0 .96.07 1.37.2a3.2 3.2 0 0 1 1.99 1.6c.24.4.42.91.54 1.5.13.6.2 1.28.2 2.06Zm-2.06 2.33v-2.64c0-.5-.03-.93-.08-1.3-.06-.39-.15-.71-.26-.97-.1-.27-.25-.49-.41-.65-.17-.18-.35-.3-.56-.37a2 2 0 0 0-.72-.12c-.31 0-.6.06-.85.19-.25.12-.46.31-.63.58-.18.27-.3.62-.4 1.06-.08.43-.13.96-.13 1.58v2.64c0 .5.03.94.09 1.32.06.38.14.71.26.99.11.26.25.49.4.66.17.17.36.3.57.38.22.08.46.12.71.12.33 0 .61-.06.87-.19.25-.12.46-.32.63-.6.17-.28.3-.64.38-1.08.09-.45.13-.98.13-1.6ZM145.26 165.76v1.51h-5.22v-1.5h5.22Zm-3.71-2.26h2.06v8.96c0 .29.04.5.12.66.09.15.2.25.35.3.15.05.32.08.52.08a3.02 3.02 0 0 0 .73-.08V175a5.14 5.14 0 0 1-1.36.2c-.47 0-.9-.1-1.26-.26a1.86 1.86 0 0 1-.85-.83c-.2-.38-.31-.89-.31-1.52v-9.1ZM146.74 170.5v-.2c0-.67.1-1.29.3-1.86.19-.57.47-1.07.83-1.5.37-.42.82-.75 1.35-.99a4.4 4.4 0 0 1 1.81-.36c.68 0 1.29.12 1.82.36s.99.57 1.36 1c.37.42.65.92.85 1.5.19.56.29 1.18.29 1.85v.2c0 .66-.1 1.28-.3 1.85a3.91 3.91 0 0 1-2.2 2.49c-.52.23-1.12.35-1.8.35-.68 0-1.28-.12-1.82-.35a3.91 3.91 0 0 1-1.35-1 4.44 4.44 0 0 1-.85-1.49c-.2-.57-.29-1.19-.29-1.85Zm2.06-.2v.2c0 .41.04.8.13 1.18.09.37.22.7.4.97.19.28.42.5.7.66.29.16.63.24 1.02.24a1.96 1.96 0 0 0 1.7-.9c.18-.28.31-.6.4-.97.09-.38.13-.77.13-1.19v-.2c0-.4-.04-.79-.13-1.16a3 3 0 0 0-.41-.98 1.96 1.96 0 0 0-1.7-.91c-.4 0-.73.08-1.01.24a2 2 0 0 0-.7.67c-.18.29-.31.61-.4.98-.09.37-.13.76-.13 1.17ZM168.34 165.76h1.87v9c0 .84-.17 1.54-.53 2.13a3.42 3.42 0 0 1-1.48 1.32 4.97 4.97 0 0 1-3.38.31c-.42-.1-.84-.27-1.25-.5a3.1 3.1 0 0 1-1-.88l.97-1.21a3 3 0 0 0 3.56.87c.34-.17.6-.42.78-.76.18-.34.27-.75.27-1.23v-6.95l.19-2.1Zm-6.29 4.74v-.18c0-.7.09-1.34.26-1.92.17-.58.41-1.08.73-1.5.32-.42.71-.74 1.17-.96.45-.23.97-.35 1.55-.35.6 0 1.1.11 1.53.33.43.22.78.53 1.07.93.28.4.5.88.66 1.44.17.55.3 1.17.37 1.85v.57c-.07.66-.2 1.26-.37 1.81a5 5 0 0 1-.7 1.42 3 3 0 0 1-2.58 1.25 3.3 3.3 0 0 1-2.7-1.33 4.66 4.66 0 0 1-.73-1.5 6.56 6.56 0 0 1-.26-1.87Zm2.06-.18v.18c0 .42.04.81.12 1.18.09.36.22.68.39.96.17.28.4.5.67.65.27.16.6.23.96.23.49 0 .88-.1 1.2-.3.3-.2.55-.49.71-.83.17-.36.3-.75.36-1.18v-1.55c-.03-.34-.1-.65-.22-.94-.1-.3-.24-.55-.41-.76-.18-.23-.4-.4-.67-.52a2.23 2.23 0 0 0-.95-.19 1.88 1.88 0 0 0-1.64.9c-.17.28-.3.6-.39.98-.08.37-.13.76-.13 1.19ZM176.92 175.2c-.68 0-1.3-.12-1.86-.34a4.1 4.1 0 0 1-2.28-2.38c-.2-.55-.3-1.14-.3-1.77v-.34c0-.73.1-1.38.3-1.97.22-.59.51-1.09.89-1.5a3.8 3.8 0 0 1 1.33-.97 4.15 4.15 0 0 1 1.67-.34c.66 0 1.24.12 1.74.34.5.22.9.53 1.23.94.33.4.58.87.74 1.43.16.55.24 1.16.24 1.83v.88h-7.15v-1.48h5.12v-.16a2.88 2.88 0 0 0-.22-1.05 1.76 1.76 0 0 0-.61-.78c-.28-.2-.64-.3-1.1-.3a1.8 1.8 0 0 0-1.57.85c-.18.27-.31.6-.41.98-.1.39-.14.82-.14 1.3v.34c0 .4.06.78.16 1.13.12.34.28.64.5.9.22.25.48.46.79.6a2.86 2.86 0 0 0 3.39-.93l1.08 1.05a3.9 3.9 0 0 1-1.95 1.48c-.46.17-.99.25-1.6.25ZM186.96 165.76v1.51h-5.22v-1.5h5.22Zm-3.71-2.26h2.06v8.96c0 .29.04.5.12.66.09.15.2.25.35.3.15.05.32.08.52.08a3.02 3.02 0 0 0 .73-.08V175a5.12 5.12 0 0 1-1.36.2c-.47 0-.9-.1-1.26-.26a1.85 1.85 0 0 1-.85-.83c-.2-.38-.31-.89-.31-1.52v-9.1ZM198.13 165.76v1.51h-5.22v-1.5h5.22Zm-3.71-2.26h2.06v8.96c0 .29.04.5.12.66.09.15.2.25.35.3.15.05.32.08.52.08a3.02 3.02 0 0 0 .73-.08V175a5.14 5.14 0 0 1-1.36.2c-.47 0-.9-.1-1.26-.26a1.85 1.85 0 0 1-.85-.83c-.2-.38-.31-.89-.31-1.52v-9.1ZM204.29 175.2c-.68 0-1.3-.12-1.86-.34a4.1 4.1 0 0 1-2.28-2.38 5 5 0 0 1-.3-1.77v-.34c0-.73.1-1.38.3-1.97.22-.59.51-1.09.89-1.5a3.8 3.8 0 0 1 1.33-.97 4.15 4.15 0 0 1 1.67-.34c.66 0 1.24.12 1.74.34.5.22.9.53 1.23.94.33.4.58.87.74 1.43.16.55.24 1.16.24 1.83v.88h-7.15v-1.48h5.12v-.16a2.88 2.88 0 0 0-.22-1.05 1.77 1.77 0 0 0-.61-.78c-.28-.2-.64-.3-1.1-.3a1.8 1.8 0 0 0-1.57.85c-.18.27-.31.6-.41.98-.1.39-.14.82-.14 1.3v.34c0 .4.06.78.16 1.13.12.34.28.64.5.9.22.25.48.46.79.6a2.86 2.86 0 0 0 3.39-.93l1.08 1.05a3.9 3.9 0 0 1-1.95 1.48c-.46.17-.99.25-1.59.25ZM215.28 172.51c0-.2-.05-.39-.15-.55-.1-.17-.3-.33-.6-.46a5.7 5.7 0 0 0-1.26-.38c-.49-.1-.94-.24-1.35-.38-.4-.16-.75-.34-1.04-.56a2.13 2.13 0 0 1-.91-1.8c0-.37.07-.73.24-1.07.16-.33.4-.63.7-.89.32-.25.7-.46 1.13-.6a4.7 4.7 0 0 1 1.49-.23c.77 0 1.44.13 2 .4a3 3 0 0 1 1.28 1.05c.3.44.44.94.44 1.49h-2.06c0-.25-.06-.48-.19-.69-.12-.21-.3-.39-.55-.52-.24-.13-.55-.2-.92-.2a2 2 0 0 0-.88.17c-.23.1-.4.25-.52.43a1.1 1.1 0 0 0-.07 1c.06.12.16.23.3.33.15.1.34.19.59.27.25.09.56.17.94.25.7.15 1.31.34 1.82.58.51.22.9.52 1.18.88.27.36.41.82.41 1.37a2.42 2.42 0 0 1-1.02 2.01c-.33.25-.72.44-1.19.58-.45.13-.97.2-1.54.2-.83 0-1.54-.15-2.13-.44a3.39 3.39 0 0 1-1.32-1.16c-.3-.47-.45-.96-.45-1.47h2c.02.38.13.69.31.92.2.22.44.38.72.48.3.1.6.15.9.15.37 0 .68-.05.93-.15.25-.1.44-.24.58-.4.13-.18.2-.38.2-.6ZM223.84 165.76v1.51h-5.22v-1.5h5.22Zm-3.72-2.26h2.06v8.96c0 .29.04.5.13.66.08.15.2.25.34.3.15.05.33.08.53.08a3.02 3.02 0 0 0 .72-.08l.01 1.58a5.14 5.14 0 0 1-1.37.2c-.47 0-.89-.1-1.25-.26a1.85 1.85 0 0 1-.86-.83c-.2-.38-.3-.89-.3-1.52v-9.1ZM230 175.2c-.69 0-1.3-.12-1.86-.34a4.1 4.1 0 0 1-2.29-2.38 5 5 0 0 1-.3-1.77v-.34c0-.73.1-1.38.31-1.97.21-.59.5-1.09.88-1.5a3.8 3.8 0 0 1 1.34-.97 4.15 4.15 0 0 1 1.67-.34c.66 0 1.24.12 1.73.34.5.22.91.53 1.24.94.32.4.57.87.73 1.43.17.55.25 1.16.25 1.83v.88h-7.15v-1.48h5.11v-.16a2.88 2.88 0 0 0-.22-1.05 1.77 1.77 0 0 0-.6-.78c-.28-.2-.65-.3-1.1-.3a1.8 1.8 0 0 0-1.57.85c-.18.27-.32.6-.42.98-.09.39-.13.82-.13 1.3v.34c0 .4.05.78.16 1.13.11.34.28.64.5.9.21.25.47.46.78.6a2.86 2.86 0 0 0 3.39-.93l1.09 1.05a3.9 3.9 0 0 1-1.95 1.48c-.46.17-1 .25-1.6.25ZM241.44 173.1v-11.22h2.07v13.14h-1.87l-.2-1.92Zm-6.02-2.6v-.18c0-.7.08-1.34.25-1.92.16-.58.4-1.08.71-1.5a3.33 3.33 0 0 1 2.67-1.3c.56 0 1.05.1 1.47.32.43.22.78.53 1.08.93.3.4.53.88.71 1.44.18.55.3 1.17.38 1.85v.57c-.08.66-.2 1.26-.38 1.81a4.87 4.87 0 0 1-.7 1.42 3.08 3.08 0 0 1-2.57 1.25 3.24 3.24 0 0 1-2.66-1.33 4.62 4.62 0 0 1-.72-1.5 6.78 6.78 0 0 1-.24-1.87Zm2.06-.18v.18c0 .42.04.81.11 1.18.08.36.2.68.37.96.16.28.38.5.64.65.27.16.59.23.96.23.47 0 .85-.1 1.15-.3.3-.2.54-.49.71-.83.18-.36.3-.75.36-1.18v-1.55c-.03-.34-.1-.65-.21-.94-.1-.3-.25-.55-.42-.76-.18-.23-.4-.4-.66-.52a2.07 2.07 0 0 0-.92-.19c-.37 0-.7.08-.95.24-.27.16-.48.38-.65.66-.17.28-.3.6-.37.98a5.7 5.7 0 0 0-.12 1.19ZM256.22 173.16v-4.41c0-.33-.06-.62-.18-.85-.12-.25-.3-.43-.55-.56-.24-.13-.54-.2-.9-.2-.34 0-.63.06-.88.17a1.4 1.4 0 0 0-.57.47c-.14.19-.2.4-.2.65h-2.06c0-.36.09-.72.27-1.06.17-.34.43-.64.77-.91.33-.27.74-.48 1.2-.64.47-.15 1-.23 1.58-.23.7 0 1.3.12 1.85.35.54.24.96.6 1.27 1.06.31.47.47 1.06.47 1.77v4.11c0 .42.03.8.09 1.14.06.33.15.62.26.86v.14h-2.11c-.1-.22-.18-.5-.23-.85a6.96 6.96 0 0 1-.08-1Zm.3-3.77.02 1.28h-1.48c-.38 0-.72.03-1.01.1-.3.08-.54.18-.73.32a1.34 1.34 0 0 0-.58 1.15c0 .25.05.47.17.68.11.2.28.35.5.47a2.27 2.27 0 0 0 2.66-.73c.18-.26.28-.5.29-.73l.66.92a3.7 3.7 0 0 1-1 1.52 3.24 3.24 0 0 1-2.21.82c-.6 0-1.15-.12-1.62-.36a2.88 2.88 0 0 1-1.11-.98 2.95 2.95 0 0 1-.13-2.71c.19-.38.46-.7.82-.96.37-.26.81-.45 1.34-.58.52-.14 1.12-.2 1.8-.2h1.61ZM266.13 172.51c0-.2-.06-.39-.16-.55-.1-.17-.3-.33-.59-.46a5.7 5.7 0 0 0-1.26-.38c-.5-.1-.95-.24-1.36-.38a4.3 4.3 0 0 1-1.04-.56 2.13 2.13 0 0 1-.92-1.8c0-.37.09-.73.25-1.07.17-.33.4-.63.71-.89.31-.25.68-.46 1.12-.6a4.7 4.7 0 0 1 1.5-.23c.77 0 1.43.13 1.99.4a3 3 0 0 1 1.28 1.05c.3.44.44.94.44 1.49h-2.06c0-.25-.06-.48-.19-.69-.12-.21-.3-.39-.54-.52-.25-.13-.56-.2-.93-.2a2 2 0 0 0-.88.17c-.23.1-.4.25-.51.43a1.1 1.1 0 0 0-.08 1 1 1 0 0 0 .3.33c.15.1.35.19.59.27.25.09.56.17.94.25.7.15 1.32.34 1.82.58.52.22.91.52 1.18.88.28.36.41.82.41 1.37a2.42 2.42 0 0 1-1.01 2.01c-.33.25-.73.44-1.2.58-.45.13-.96.2-1.53.2-.84 0-1.55-.15-2.13-.44a3.4 3.4 0 0 1-1.33-1.16c-.3-.47-.44-.96-.44-1.47h1.99c.02.38.13.69.32.92.19.22.43.38.71.48.3.1.6.15.9.15.37 0 .69-.05.94-.15.25-.1.44-.24.57-.4.13-.18.2-.38.2-.6ZM66.57 185.56h1.91l3.6 9.61 3.6-9.6h1.91l-4.75 12.45H71.3l-4.74-12.46Zm-.88 0h1.83l.31 8.32v4.14H65.7v-12.46Zm10.95 0h1.83v12.46h-2.14v-4.14l.31-8.31ZM83.51 188.76v9.26h-2.07v-9.26h2.07Zm-2.2-2.42c0-.32.1-.58.3-.78.21-.21.5-.32.88-.32.36 0 .65.1.86.32.21.2.32.46.32.78 0 .3-.1.56-.32.76-.21.21-.5.31-.86.31-.37 0-.67-.1-.88-.3-.2-.21-.3-.47-.3-.78ZM90.04 196.55c.34 0 .64-.07.9-.2.28-.13.5-.32.66-.56.18-.24.27-.52.29-.83h1.94c-.01.6-.19 1.14-.53 1.63-.34.5-.8.88-1.36 1.17a4.1 4.1 0 0 1-1.88.43c-.7 0-1.32-.12-1.84-.36a3.66 3.66 0 0 1-1.31-1 4.44 4.44 0 0 1-.79-1.49 6.1 6.1 0 0 1-.26-1.8v-.3c0-.63.09-1.23.26-1.79.18-.56.44-1.06.79-1.49.35-.43.78-.76 1.3-1a4.3 4.3 0 0 1 1.85-.37c.74 0 1.39.15 1.95.45.56.29 1 .7 1.31 1.22.33.52.5 1.13.5 1.81H91.9c-.02-.34-.1-.64-.26-.92a1.7 1.7 0 0 0-.63-.67 1.8 1.8 0 0 0-.97-.24c-.42 0-.76.08-1.03.25-.28.17-.5.4-.65.69-.15.28-.26.6-.33.96-.06.36-.1.73-.1 1.1v.3c0 .39.04.76.1 1.12.06.36.17.68.32.97.16.28.38.5.66.67.27.17.62.25 1.04.25ZM97.97 190.53v7.5H95.9v-9.27h1.96l.1 1.77Zm2.83-1.82-.02 1.91a3.86 3.86 0 0 0-.84-.07c-.35 0-.66.05-.93.16a1.76 1.76 0 0 0-1.08 1.1c-.1.25-.16.55-.18.87l-.47.04c0-.59.06-1.12.17-1.62.12-.5.29-.93.52-1.3a2.34 2.34 0 0 1 2.5-1.16c.14.01.25.04.33.07ZM101.96 193.5v-.2c0-.67.1-1.29.3-1.86.19-.57.47-1.07.83-1.5.37-.42.82-.75 1.35-.99a4.39 4.39 0 0 1 1.82-.36c.67 0 1.28.12 1.81.36.54.24.99.57 1.36 1 .37.42.65.92.85 1.5.2.56.29 1.18.29 1.85v.2c0 .66-.1 1.28-.3 1.85a3.91 3.91 0 0 1-2.2 2.49c-.52.23-1.12.35-1.8.35-.67 0-1.28-.12-1.82-.35a3.91 3.91 0 0 1-1.35-1 4.44 4.44 0 0 1-.85-1.49c-.2-.57-.29-1.19-.29-1.85Zm2.06-.2v.2c0 .41.05.8.13 1.18.09.37.22.7.4.97.19.28.42.5.7.66.3.16.63.24 1.02.24a1.96 1.96 0 0 0 1.7-.9c.18-.28.31-.6.4-.97.1-.38.14-.77.14-1.19v-.2c0-.4-.05-.79-.14-1.16a3 3 0 0 0-.41-.98 1.97 1.97 0 0 0-1.7-.91c-.4 0-.73.08-1.01.24a2 2 0 0 0-.7.67c-.18.29-.31.61-.4.98-.08.37-.13.76-.13 1.17ZM117.97 195.51c0-.2-.05-.39-.15-.55-.1-.17-.3-.33-.59-.46a5.7 5.7 0 0 0-1.27-.38c-.48-.1-.94-.24-1.35-.38-.4-.16-.75-.34-1.04-.56a2.13 2.13 0 0 1-.92-1.8c0-.37.09-.73.25-1.07.17-.33.4-.63.71-.89.31-.25.68-.46 1.12-.6a4.7 4.7 0 0 1 1.5-.23c.77 0 1.43.13 1.98.4a3 3 0 0 1 1.29 1.05c.3.44.44.94.44 1.49h-2.06c0-.25-.06-.48-.19-.69-.12-.21-.3-.39-.54-.52-.25-.13-.56-.2-.93-.2a2 2 0 0 0-.88.17c-.23.1-.4.25-.51.43a1.1 1.1 0 0 0-.08 1 1 1 0 0 0 .3.33c.15.1.34.19.59.27.25.09.56.17.94.25.7.15 1.32.34 1.82.58.52.22.91.52 1.18.88.28.36.41.82.41 1.37a2.42 2.42 0 0 1-1.01 2.01c-.33.25-.73.44-1.2.58-.45.13-.96.2-1.53.2-.84 0-1.55-.15-2.13-.44a3.4 3.4 0 0 1-1.33-1.16c-.3-.47-.44-.96-.44-1.47h1.99c.02.38.13.69.32.92.19.22.43.38.72.48.29.1.59.15.9.15.36 0 .67-.05.92-.15.26-.1.45-.24.58-.4.13-.18.2-.38.2-.6ZM121.9 193.5v-.2c0-.67.09-1.29.28-1.86.2-.57.48-1.07.84-1.5.37-.42.82-.75 1.35-.99a4.4 4.4 0 0 1 1.82-.36c.68 0 1.28.12 1.81.36.54.24.99.57 1.36 1 .37.42.65.92.85 1.5.2.56.29 1.18.29 1.85v.2c0 .66-.1 1.28-.3 1.85a3.92 3.92 0 0 1-4 2.84 3.92 3.92 0 0 1-3.17-1.34 4.46 4.46 0 0 1-.85-1.5 5.73 5.73 0 0 1-.29-1.85Zm2.05-.2v.2c0 .41.05.8.13 1.18.09.37.22.7.4.97.19.28.42.5.7.66.3.16.63.24 1.02.24a1.96 1.96 0 0 0 1.7-.9c.18-.28.31-.6.4-.97.1-.38.14-.77.14-1.19v-.2c0-.4-.05-.79-.14-1.16a3 3 0 0 0-.41-.98 1.96 1.96 0 0 0-1.7-.91c-.4 0-.73.08-1.01.24-.28.16-.51.39-.7.67a3.1 3.1 0 0 0-.4.98c-.08.37-.13.76-.13 1.17ZM135.5 198.02h-2.06v-10.15c0-.69.13-1.26.38-1.73.27-.47.64-.83 1.13-1.07a4.22 4.22 0 0 1 2.9-.21l-.05 1.59a1.73 1.73 0 0 0-1.62.1c-.22.11-.39.28-.5.5-.12.23-.18.5-.18.82v10.15Zm1.91-9.26v1.51h-5.39v-1.5h5.39ZM143.64 188.76v1.51h-5.22v-1.5h5.22Zm-3.72-2.26H142v8.96c0 .29.03.5.11.66.1.15.2.25.36.3.14.05.32.08.52.08a3.04 3.04 0 0 0 .73-.08V198a5.14 5.14 0 0 1-1.37.2c-.47 0-.89-.1-1.25-.26a1.85 1.85 0 0 1-.86-.83c-.2-.38-.3-.89-.3-1.52v-9.1ZM147.65 196.04l-.01 1.47a4.2 4.2 0 0 1-.44 1.8c-.29.61-.67 1.12-1.15 1.52l-1.1-.65c.15-.25.3-.51.43-.77a3.77 3.77 0 0 0 .44-1.82v-1.55h1.83ZM156.05 185.56h1.91l3.6 9.61 3.6-9.6h1.91l-4.75 12.45h-1.53l-4.74-12.46Zm-.88 0H157l.31 8.32v4.14h-2.14v-12.46Zm10.95 0h1.84v12.46h-2.15v-4.14l.31-8.31ZM174.87 198.2c-.69 0-1.3-.12-1.86-.34a4.08 4.08 0 0 1-2.28-2.38c-.21-.55-.31-1.14-.31-1.77v-.34c0-.73.1-1.38.31-1.97.22-.59.5-1.09.89-1.5a3.8 3.8 0 0 1 1.33-.97 4.15 4.15 0 0 1 1.67-.34c.66 0 1.24.12 1.73.34.5.22.91.53 1.24.94.33.4.57.87.73 1.43.17.55.25 1.16.25 1.83v.88h-7.15v-1.48h5.11v-.16a2.88 2.88 0 0 0-.22-1.05 1.76 1.76 0 0 0-.6-.78c-.28-.2-.64-.3-1.1-.3a1.8 1.8 0 0 0-1.57.85c-.18.27-.32.6-.41.98-.1.39-.14.82-.14 1.3v.34c0 .4.05.78.16 1.13.11.34.28.64.5.9.21.25.48.46.78.6a2.86 2.86 0 0 0 3.39-.93l1.09 1.05a3.9 3.9 0 0 1-1.95 1.48c-.46.17-.99.25-1.6.25ZM184.9 188.76v1.51h-5.21v-1.5h5.22Zm-3.7-2.26h2.06v8.96c0 .29.04.5.12.66.08.15.2.25.35.3.15.05.32.08.52.08a3.02 3.02 0 0 0 .73-.08V198a5.1 5.1 0 0 1-1.36.2c-.48 0-.9-.1-1.26-.26a1.86 1.86 0 0 1-.86-.83c-.2-.38-.3-.89-.3-1.52v-9.1ZM192.2 196.16v-4.41c0-.33-.05-.62-.17-.85-.13-.25-.3-.43-.55-.56-.24-.13-.54-.2-.91-.2-.34 0-.63.06-.87.17-.25.12-.44.27-.57.47-.14.19-.21.4-.21.65h-2.05c0-.36.09-.72.26-1.06.18-.34.44-.64.77-.91.34-.27.74-.48 1.2-.64.47-.15 1-.23 1.58-.23.7 0 1.31.12 1.85.35.54.24.97.6 1.27 1.06.32.47.47 1.06.47 1.77v4.11c0 .42.03.8.09 1.14.06.33.15.62.26.86v.14h-2.1c-.1-.22-.18-.5-.24-.85a6.96 6.96 0 0 1-.08-1Zm.3-3.77.02 1.28h-1.48c-.38 0-.72.03-1 .1-.3.08-.54.18-.74.32a1.34 1.34 0 0 0-.58 1.15c0 .25.06.47.17.68.12.2.28.35.5.47a2.27 2.27 0 0 0 2.66-.73c.18-.26.28-.5.3-.73l.66.92a3.69 3.69 0 0 1-1 1.52 3.25 3.25 0 0 1-2.22.82c-.6 0-1.14-.12-1.61-.36a2.89 2.89 0 0 1-1.12-.98 2.94 2.94 0 0 1-.13-2.71c.2-.38.47-.7.83-.96s.8-.45 1.33-.58c.53-.14 1.12-.2 1.8-.2h1.61ZM198.85 196.04v1.47a4.2 4.2 0 0 1-.44 1.8c-.3.61-.68 1.12-1.16 1.52l-1.1-.65c.16-.25.3-.51.43-.77a3.77 3.77 0 0 0 .44-1.82v-1.55h1.83ZM211.23 187.22l-3.72 10.8h-2.25l4.68-12.46h1.44l-.15 1.66Zm3.11 10.8-3.73-10.8-.16-1.66h1.44l4.71 12.46h-2.26Zm-.18-4.62v1.7h-6.77v-1.7h6.77ZM220.18 190.65v7.37h-2.06v-9.26h1.94l.12 1.89Zm-.33 2.4h-.7c0-.65.08-1.24.24-1.78.16-.54.4-1.01.7-1.41.3-.4.69-.72 1.15-.93.46-.22.99-.34 1.6-.34.42 0 .8.07 1.15.2.35.11.66.3.91.56.27.27.47.6.6 1.01.15.41.22.91.22 1.5v6.16h-2.06v-5.99c0-.45-.07-.8-.2-1.06a1.14 1.14 0 0 0-.58-.55 2.08 2.08 0 0 0-.88-.17 1.86 1.86 0 0 0-1.65.83c-.18.26-.3.56-.38.9-.08.33-.12.69-.12 1.07Zm5.74-.55-.97.22c0-.56.08-1.09.23-1.59.16-.5.4-.94.7-1.31.3-.38.68-.69 1.13-.9.45-.22.97-.33 1.55-.33.48 0 .9.07 1.27.2.38.13.7.33.96.6.26.27.46.63.6 1.07.13.43.2.96.2 1.57v6h-2.07v-6c0-.47-.07-.84-.2-1.1a1.07 1.07 0 0 0-.57-.52 2.29 2.29 0 0 0-1.73.02c-.24.12-.44.28-.6.49-.17.2-.3.44-.38.71-.08.27-.12.56-.12.87ZM239.09 196.16v-4.41c0-.33-.06-.62-.18-.85-.12-.25-.3-.43-.55-.56-.24-.13-.54-.2-.9-.2-.34 0-.63.06-.88.17-.24.12-.44.27-.57.47-.14.19-.2.4-.2.65h-2.06c0-.36.09-.72.26-1.06.18-.34.44-.64.78-.91.33-.27.73-.48 1.2-.64.47-.15 1-.23 1.57-.23.7 0 1.32.12 1.85.35.55.24.97.6 1.28 1.06.31.47.47 1.06.47 1.77v4.11c0 .42.03.8.08 1.14.07.33.16.62.27.86v.14h-2.11c-.1-.22-.18-.5-.24-.85a6.96 6.96 0 0 1-.07-1Zm.3-3.77.01 1.28h-1.48c-.38 0-.71.03-1 .1-.3.08-.54.18-.73.32a1.34 1.34 0 0 0-.58 1.15c0 .25.05.47.17.68.11.2.28.35.5.47a2.27 2.27 0 0 0 2.66-.73c.18-.26.27-.5.28-.73l.67.92a3.66 3.66 0 0 1-1 1.52 3.24 3.24 0 0 1-2.21.82c-.6 0-1.15-.12-1.62-.36a2.88 2.88 0 0 1-1.11-.98 2.95 2.95 0 0 1-.13-2.71c.19-.38.46-.7.82-.96.36-.26.8-.45 1.33-.58.53-.14 1.13-.2 1.8-.2h1.62ZM250.96 196.38v1.64h-6.9v-1.64h6.9Zm-.19-6.33-6 7.97h-1.34v-1.33l5.97-7.93h1.37v1.29Zm-.8-1.29v1.65h-6.44v-1.65h6.45ZM252.57 193.5v-.2c0-.67.1-1.29.29-1.86.2-.57.47-1.07.84-1.5.37-.42.82-.75 1.35-.99a4.4 4.4 0 0 1 1.81-.36c.68 0 1.29.12 1.82.36s.99.57 1.36 1c.37.42.65.92.84 1.5.2.56.3 1.18.3 1.85v.2c0 .66-.1 1.28-.3 1.85a3.91 3.91 0 0 1-2.2 2.49c-.53.23-1.13.35-1.8.35-.68 0-1.29-.12-1.82-.35a3.92 3.92 0 0 1-1.35-1 4.44 4.44 0 0 1-.85-1.49c-.2-.57-.3-1.19-.3-1.85Zm2.06-.2v.2c0 .41.04.8.13 1.18.08.37.22.7.4.97a2 2 0 0 0 .7.66c.29.16.63.24 1.02.24a1.96 1.96 0 0 0 1.7-.9c.18-.28.31-.6.4-.97.09-.38.13-.77.13-1.19v-.2c0-.4-.04-.79-.13-1.16-.09-.37-.23-.7-.42-.98a1.96 1.96 0 0 0-1.7-.91c-.38 0-.72.08-1 .24a2 2 0 0 0-.7.67c-.18.29-.32.61-.4.98-.09.37-.13.76-.13 1.17ZM265.43 190.74v7.28h-2.06v-9.26h1.94l.12 1.98Zm-.36 2.31h-.67c0-.66.1-1.27.27-1.81.19-.55.44-1.02.75-1.42a3.33 3.33 0 0 1 2.67-1.23c.45 0 .85.07 1.21.2.37.11.68.3.93.58.26.28.46.63.6 1.07.14.44.2.97.2 1.6v5.98h-2.06v-5.99c0-.44-.07-.8-.2-1.05a1.1 1.1 0 0 0-.56-.56 2.09 2.09 0 0 0-.9-.17 1.99 1.99 0 0 0-1.65.83c-.2.26-.34.56-.44.9-.1.33-.15.69-.15 1.07ZM275.56 196.04v1.47a4.2 4.2 0 0 1-.44 1.8 4.37 4.37 0 0 1-1.16 1.52l-1.1-.65c.16-.25.3-.51.43-.77a3.77 3.77 0 0 0 .44-1.82v-1.55h1.83ZM70.54 210.22l-3.72 10.8h-2.25l4.7-12.46h1.43l-.16 1.66Zm3.12 10.8-3.73-10.8-.16-1.66h1.44l4.7 12.46h-2.25Zm-.18-4.62v1.7H66.7v-1.7h6.78ZM79.5 213.54v11.04h-2.05v-12.82h1.9l.16 1.78Zm6.04 2.77v.18c0 .67-.08 1.3-.24 1.87a4.57 4.57 0 0 1-.7 1.5c-.3.42-.67.75-1.11.98-.45.23-.96.35-1.54.35-.58 0-1.08-.1-1.52-.31a3.09 3.09 0 0 1-1.08-.92c-.3-.4-.54-.86-.72-1.39a8.9 8.9 0 0 1-.38-1.76v-.7c.08-.67.2-1.29.38-1.84a5 5 0 0 1 .72-1.43 3.05 3.05 0 0 1 2.58-1.25c.58 0 1.1.12 1.55.35.45.22.83.54 1.14.95.3.42.53.91.69 1.5.15.57.23 1.21.23 1.92Zm-2.06.18v-.18c0-.43-.04-.83-.12-1.2a3.1 3.1 0 0 0-.38-.97 1.84 1.84 0 0 0-1.6-.89c-.37 0-.69.07-.95.2a1.8 1.8 0 0 0-.66.5c-.17.21-.31.47-.4.76-.1.28-.17.6-.21.93v1.66c.07.41.18.79.35 1.13.16.34.4.61.7.82.3.2.7.3 1.18.3.37 0 .69-.08.95-.24.26-.16.48-.38.64-.66.17-.28.3-.61.38-.98.08-.37.12-.77.12-1.18ZM89.85 213.54v11.04h-2.06v-12.82h1.9l.16 1.78Zm6.03 2.77v.18c0 .67-.08 1.3-.24 1.87a4.56 4.56 0 0 1-.7 1.5c-.3.42-.67.75-1.11.98-.45.23-.96.35-1.54.35-.58 0-1.08-.1-1.52-.31a3.09 3.09 0 0 1-1.08-.92c-.3-.4-.54-.86-.72-1.39a8.89 8.89 0 0 1-.38-1.76v-.7c.08-.67.2-1.29.38-1.84a5 5 0 0 1 .72-1.43 3.05 3.05 0 0 1 2.58-1.25c.58 0 1.1.12 1.55.35.45.22.83.54 1.14.95.3.42.54.91.7 1.5.14.57.22 1.21.22 1.92Zm-2.06.18v-.18c0-.43-.04-.83-.12-1.2a3.1 3.1 0 0 0-.38-.97 1.84 1.84 0 0 0-1.6-.89c-.37 0-.68.07-.95.2a1.8 1.8 0 0 0-.65.5c-.18.21-.32.47-.42.76-.1.28-.16.6-.2.93v1.66c.07.41.19.79.35 1.13.17.34.4.61.7.82.31.2.7.3 1.18.3.37 0 .69-.08.95-.24.26-.16.48-.38.64-.66.17-.28.3-.61.38-.98.08-.37.12-.77.12-1.18ZM100.33 207.88v13.14h-2.07v-13.14h2.07ZM107.16 221.2c-.69 0-1.3-.12-1.86-.34a4.1 4.1 0 0 1-2.29-2.38 5 5 0 0 1-.3-1.77v-.34c0-.73.1-1.38.31-1.97.21-.59.5-1.09.88-1.5a3.8 3.8 0 0 1 1.34-.97 4.16 4.16 0 0 1 1.67-.34c.66 0 1.24.12 1.73.34.5.22.91.53 1.23.94.34.4.58.87.74 1.43.17.55.25 1.16.25 1.83v.88h-7.15v-1.48h5.11v-.16a2.9 2.9 0 0 0-.22-1.05 1.76 1.76 0 0 0-.6-.78c-.28-.2-.65-.3-1.1-.3a1.8 1.8 0 0 0-1.57.85c-.18.27-.32.6-.42.98-.09.39-.13.82-.13 1.3v.34c0 .4.05.78.16 1.13.11.34.28.64.5.9.21.25.47.46.78.6a2.86 2.86 0 0 0 3.39-.93l1.09 1.05a3.9 3.9 0 0 1-1.95 1.48c-.46.17-1 .25-1.6.25ZM118 208.56h4.41c.95 0 1.76.15 2.42.43.67.29 1.18.71 1.54 1.27.36.55.54 1.24.54 2.05 0 .62-.12 1.17-.35 1.65-.23.47-.55.87-.96 1.2-.42.31-.92.56-1.5.74l-.64.31h-3.96l-.02-1.7h2.97c.51 0 .94-.1 1.28-.27.34-.19.6-.43.77-.75.18-.32.27-.68.27-1.08 0-.43-.09-.8-.26-1.12a1.65 1.65 0 0 0-.77-.75 2.93 2.93 0 0 0-1.33-.26h-2.25v10.74H118v-12.46Zm7.12 12.46-2.93-5.6h2.25l2.97 5.49v.11h-2.3ZM133.4 221.2c-.68 0-1.3-.12-1.85-.34a4.1 4.1 0 0 1-2.28-2.38c-.21-.55-.31-1.14-.31-1.77v-.34c0-.73.1-1.38.31-1.97.22-.59.5-1.09.88-1.5a3.8 3.8 0 0 1 1.34-.97 4.15 4.15 0 0 1 1.67-.34c.66 0 1.24.12 1.74.34.5.22.9.53 1.23.94.33.4.57.87.73 1.43.17.55.25 1.16.25 1.83v.88h-7.15v-1.48h5.11v-.16a2.88 2.88 0 0 0-.22-1.05 1.77 1.77 0 0 0-.6-.78c-.28-.2-.64-.3-1.1-.3a1.8 1.8 0 0 0-1.58.85c-.17.27-.3.6-.4.98-.1.39-.14.82-.14 1.3v.34c0 .4.05.78.16 1.13.12.34.28.64.5.9.21.25.48.46.78.6a2.86 2.86 0 0 0 3.39-.93l1.09 1.05a3.9 3.9 0 0 1-1.95 1.48c-.46.17-.99.25-1.6.25ZM141.28 213.54v11.04h-2.07v-12.82h1.9l.17 1.78Zm6.03 2.77v.18c0 .67-.08 1.3-.24 1.87a4.56 4.56 0 0 1-.7 1.5c-.3.42-.67.75-1.12.98-.44.23-.96.35-1.54.35-.57 0-1.08-.1-1.51-.31a3.1 3.1 0 0 1-1.09-.92c-.3-.4-.53-.86-.72-1.39a8.94 8.94 0 0 1-.37-1.76v-.7c.07-.67.2-1.29.37-1.84a5 5 0 0 1 .72-1.43 3.06 3.06 0 0 1 2.59-1.25c.58 0 1.1.12 1.55.35.44.22.82.54 1.13.95.31.42.54.91.7 1.5.15.57.23 1.21.23 1.92Zm-2.06.18v-.18c0-.43-.04-.83-.13-1.2a3.1 3.1 0 0 0-.37-.97 1.84 1.84 0 0 0-1.61-.89c-.36 0-.68.07-.94.2a1.8 1.8 0 0 0-.66.5c-.18.21-.31.47-.41.76-.1.28-.16.6-.2.93v1.66c.06.41.18.79.35 1.13.16.34.4.61.7.82.3.2.7.3 1.18.3.37 0 .69-.08.95-.24.26-.16.47-.38.64-.66.17-.28.3-.61.38-.98.08-.37.12-.77.12-1.18ZM149.15 216.5v-.2c0-.67.1-1.29.3-1.86.19-.57.47-1.07.83-1.5.37-.42.82-.75 1.35-.99a4.4 4.4 0 0 1 1.82-.36c.68 0 1.28.12 1.81.36.54.24 1 .57 1.36 1 .37.42.66.92.85 1.5.2.56.29 1.18.29 1.85v.2c0 .66-.1 1.28-.3 1.85a3.92 3.92 0 0 1-4 2.84c-.67 0-1.28-.12-1.82-.35a3.92 3.92 0 0 1-1.35-1 4.46 4.46 0 0 1-.85-1.49c-.19-.57-.29-1.19-.29-1.85Zm2.06-.2v.2c0 .41.05.8.13 1.18a3 3 0 0 0 .4.97c.19.28.42.5.7.66.3.16.63.24 1.03.24a1.96 1.96 0 0 0 1.69-.9c.18-.28.31-.6.4-.97.1-.38.14-.77.14-1.19v-.2c0-.4-.05-.79-.14-1.16-.09-.37-.22-.7-.41-.98a1.96 1.96 0 0 0-1.7-.91c-.39 0-.73.08-1.01.24-.28.16-.51.39-.7.67-.18.29-.31.61-.4.98-.08.37-.13.76-.13 1.17ZM162.04 213.53v7.5h-2.06v-9.27h1.97l.1 1.77Zm2.84-1.82-.02 1.91a3.88 3.88 0 0 0-.84-.07c-.35 0-.66.05-.93.16a1.76 1.76 0 0 0-1.09 1.1c-.1.25-.15.55-.17.87l-.47.04c0-.59.06-1.12.17-1.62.12-.5.29-.93.51-1.3a2.34 2.34 0 0 1 2.5-1.16c.15.01.26.04.34.07ZM171.32 211.76v1.51h-5.21v-1.5h5.21Zm-3.7-2.26h2.05v8.96c0 .29.04.5.12.66.09.15.2.25.36.3.14.05.32.08.52.08a3.02 3.02 0 0 0 .72-.08l.01 1.58a5.1 5.1 0 0 1-1.37.2c-.47 0-.89-.1-1.25-.26a1.85 1.85 0 0 1-.86-.83c-.2-.38-.3-.89-.3-1.52v-9.1ZM186.61 219.32v1.7H180v-1.7h6.61Zm-6-10.75v12.45h-2.15v-12.46h2.14Zm5.14 5.2v1.67H180v-1.67h5.75Zm.82-5.2v1.7H180v-1.7h6.57ZM193.86 219.16v-4.41c0-.33-.06-.62-.18-.85-.12-.25-.3-.43-.54-.56-.24-.13-.54-.2-.91-.2-.34 0-.63.06-.87.17a1.4 1.4 0 0 0-.58.47c-.13.19-.2.4-.2.65h-2.05c0-.36.08-.72.26-1.06.18-.34.44-.64.77-.91.34-.27.74-.48 1.2-.64.48-.15 1-.23 1.58-.23.7 0 1.31.12 1.85.35.54.24.97.6 1.27 1.06.32.47.47 1.06.47 1.77v4.11c0 .42.03.8.09 1.14.06.33.15.62.26.86v.14h-2.1c-.1-.22-.18-.5-.24-.85a6.96 6.96 0 0 1-.08-1Zm.3-3.77.02 1.28h-1.48c-.38 0-.72.03-1 .1-.3.08-.54.18-.74.32a1.34 1.34 0 0 0-.58 1.15c0 .25.06.47.17.68.12.2.28.35.5.47a2.27 2.27 0 0 0 2.66-.73c.18-.26.28-.5.3-.73l.66.92a3.66 3.66 0 0 1-1 1.52 3.24 3.24 0 0 1-2.22.82c-.6 0-1.14-.12-1.61-.36a2.88 2.88 0 0 1-1.12-.98 2.95 2.95 0 0 1-.13-2.71c.2-.38.47-.7.83-.96s.8-.45 1.33-.58c.53-.14 1.12-.2 1.8-.2h1.61ZM200.65 213.53v7.5h-2.06v-9.27h1.96l.1 1.77Zm2.83-1.82-.02 1.91a3.86 3.86 0 0 0-.84-.07c-.35 0-.66.05-.93.16a1.76 1.76 0 0 0-1.09 1.1c-.1.25-.15.55-.17.87l-.47.04c0-.59.06-1.12.17-1.62.12-.5.29-.93.52-1.3a2.34 2.34 0 0 1 2.5-1.16c.14.01.25.04.33.07ZM207.3 213.74v7.28h-2.06v-9.26h1.94l.12 1.98Zm-.37 2.31h-.66c0-.66.1-1.27.27-1.81.18-.55.43-1.02.75-1.42a3.33 3.33 0 0 1 2.67-1.23c.45 0 .85.07 1.2.2.37.11.68.3.94.58.26.28.46.63.6 1.07.14.44.2.97.2 1.6v5.98h-2.06v-5.99c0-.44-.07-.8-.2-1.05a1.1 1.1 0 0 0-.56-.56 2.09 2.09 0 0 0-.9-.17 1.99 1.99 0 0 0-1.66.83 3.66 3.66 0 0 0-.59 1.97ZM217.7 211.76v9.26h-2.07v-9.26h2.07Zm-2.2-2.42c0-.32.1-.58.3-.78.21-.21.5-.32.88-.32.36 0 .65.1.86.32.21.2.32.46.32.78 0 .3-.1.56-.32.76-.21.21-.5.31-.86.31-.37 0-.67-.1-.88-.3-.2-.21-.3-.47-.3-.78ZM222.5 213.74v7.28h-2.07v-9.26h1.94l.12 1.98Zm-.38 2.31h-.66c0-.66.1-1.27.27-1.81.18-.55.44-1.02.75-1.42a3.32 3.32 0 0 1 2.67-1.23c.45 0 .85.07 1.2.2.38.11.69.3.94.58.26.28.46.63.6 1.07.14.44.2.97.2 1.6v5.98h-2.06v-5.99c0-.44-.07-.8-.2-1.05a1.1 1.1 0 0 0-.56-.56 2.08 2.08 0 0 0-.9-.17 1.99 1.99 0 0 0-1.66.83 3.66 3.66 0 0 0-.59 1.97ZM236.62 211.76h1.87v9c0 .84-.18 1.54-.53 2.13a3.42 3.42 0 0 1-1.48 1.32 4.97 4.97 0 0 1-3.38.31c-.43-.1-.84-.27-1.25-.5a3.1 3.1 0 0 1-1-.88l.97-1.21a3 3 0 0 0 3.56.87c.33-.17.6-.42.77-.76.19-.34.28-.75.28-1.23v-6.95l.19-2.1Zm-6.3 4.74v-.18c0-.7.1-1.34.27-1.92.17-.58.41-1.08.73-1.5.32-.42.7-.74 1.16-.96.46-.23.98-.35 1.55-.35.6 0 1.11.11 1.53.33.43.22.79.53 1.07.93.29.4.51.88.67 1.44.16.55.29 1.17.37 1.85v.57c-.08.66-.2 1.26-.38 1.81a4.98 4.98 0 0 1-.7 1.42 3 3 0 0 1-2.58 1.25 3.3 3.3 0 0 1-2.69-1.33 4.66 4.66 0 0 1-.73-1.5 6.53 6.53 0 0 1-.26-1.87Zm2.07-.18v.18c0 .42.04.81.12 1.18.09.36.21.68.38.96.18.28.4.5.67.65.28.16.6.23.97.23.48 0 .88-.1 1.19-.3.31-.2.55-.49.72-.83.17-.36.29-.75.35-1.18v-1.55c-.03-.34-.1-.65-.2-.94-.11-.3-.25-.55-.43-.76-.17-.23-.4-.4-.66-.52a2.23 2.23 0 0 0-.96-.19 1.88 1.88 0 0 0-1.64.9c-.17.28-.3.6-.38.98-.09.37-.13.76-.13 1.19ZM246.3 218.51c0-.2-.04-.39-.15-.55-.1-.17-.3-.33-.59-.46a5.7 5.7 0 0 0-1.26-.38c-.5-.1-.94-.24-1.36-.38-.4-.16-.75-.34-1.04-.56a2.13 2.13 0 0 1-.92-1.8c0-.37.09-.73.25-1.07.17-.33.4-.63.71-.89.31-.25.69-.46 1.13-.6a4.7 4.7 0 0 1 1.48-.23c.78 0 1.44.13 2 .4a3 3 0 0 1 1.28 1.05c.3.44.44.94.44 1.49h-2.06c0-.25-.06-.48-.19-.69-.12-.21-.3-.39-.54-.52-.25-.13-.56-.2-.93-.2a2 2 0 0 0-.88.17c-.23.1-.4.25-.51.43a1.1 1.1 0 0 0-.08 1c.06.12.17.23.31.33.14.1.34.19.58.27.25.09.57.17.94.25.71.15 1.32.34 1.83.58.5.22.9.52 1.17.88.28.36.42.82.42 1.37a2.42 2.42 0 0 1-1.02 2.01c-.33.25-.73.44-1.2.58-.45.13-.96.2-1.53.2-.84 0-1.55-.15-2.13-.44a3.39 3.39 0 0 1-1.33-1.16c-.3-.47-.44-.96-.44-1.47h2c.01.38.12.69.3.92.2.22.44.38.73.48.29.1.59.15.9.15.36 0 .68-.05.93-.15.25-.1.44-.24.57-.4.13-.18.2-.38.2-.6Z" fill="#D1D4DC"/><path d="M68.73 245.08v8.35h-1.05v-7.03l-2.13.77v-.95l3.02-1.14h.16ZM77.66 252.56v.87h-5.43v-.76l2.72-3.03c.33-.37.6-.69.77-.95.2-.26.32-.5.4-.7.07-.2.1-.42.1-.64 0-.27-.05-.52-.16-.74-.12-.22-.28-.4-.5-.54-.21-.13-.47-.2-.78-.2-.37 0-.68.08-.93.22-.24.14-.42.34-.54.6-.13.25-.19.54-.19.87h-1.05c0-.46.1-.9.3-1.28.21-.39.52-.7.92-.92.4-.24.9-.35 1.49-.35.52 0 .97.1 1.34.28.38.18.66.44.86.77a2.33 2.33 0 0 1 .18 1.9 5.73 5.73 0 0 1-.83 1.47l-.6.72-2.23 2.41h4.16ZM79.25 252.87c0-.18.06-.33.17-.45.11-.13.27-.2.49-.2.2 0 .37.07.48.2.12.12.17.27.17.45 0 .17-.05.32-.17.44-.1.12-.27.19-.48.19-.22 0-.38-.07-.5-.19a.64.64 0 0 1-.16-.44Zm0-5.04c0-.18.06-.33.17-.45.12-.12.28-.19.5-.19.2 0 .37.07.48.2.11.11.17.26.17.44s-.06.32-.17.45c-.11.12-.28.18-.49.18-.21 0-.37-.06-.49-.18a.64.64 0 0 1-.16-.45ZM88.01 250.63v.87h-6v-.62l3.72-5.76h.86l-.92 1.67-2.46 3.84h4.8Zm-1.16-5.5v8.3H85.8v-8.3h1.05ZM90.9 248.76h.75a2 2 0 0 0 .91-.19c.25-.12.43-.3.55-.5a1.81 1.81 0 0 0 .02-1.53c-.1-.22-.27-.39-.48-.5a1.76 1.76 0 0 0-.81-.16c-.3 0-.56.06-.79.17a1.3 1.3 0 0 0-.72 1.25h-1.05c0-.43.1-.81.32-1.16.21-.34.51-.62.9-.82.38-.2.83-.31 1.34-.31.5 0 .94.09 1.32.27.37.17.67.43.88.78.2.35.31.78.31 1.3a1.99 1.99 0 0 1-.6 1.33c-.2.2-.46.38-.79.51-.32.13-.7.2-1.16.2h-.9v-.64Zm0 .86V249h.9c.53 0 .97.06 1.31.19.35.12.62.3.82.5.2.2.34.44.42.69a2.52 2.52 0 0 1-.07 1.77c-.13.3-.32.56-.56.77-.23.2-.51.37-.83.47a3.34 3.34 0 0 1-2.06 0c-.32-.1-.6-.24-.84-.44a2.09 2.09 0 0 1-.78-1.7h1.06c0 .28.06.53.18.75.13.22.32.38.55.5.24.13.52.18.85.18.32 0 .6-.05.83-.16.23-.12.41-.29.54-.51.13-.23.2-.52.2-.87 0-.34-.08-.63-.22-.85a1.28 1.28 0 0 0-.62-.5 2.4 2.4 0 0 0-.93-.16h-.75ZM99.76 249.27c0-.18.05-.33.16-.45.11-.13.28-.19.49-.19.21 0 .37.06.48.19.12.12.17.27.17.45 0 .17-.05.32-.17.44-.1.12-.27.18-.48.18-.21 0-.38-.06-.49-.18a.64.64 0 0 1-.16-.44ZM106.96 245.12h1.07l2.72 6.77 2.71-6.77h1.07l-3.37 8.3h-.83l-3.37-8.3Zm-.35 0h.94l.16 5.07v3.24h-1.1v-8.3Zm7.33 0h.94v8.3h-1.1v-3.23l.16-5.07ZM120.68 252.37v-3.18c0-.24-.05-.45-.15-.63a.97.97 0 0 0-.43-.42c-.2-.1-.44-.15-.72-.15-.27 0-.5.05-.7.14-.2.09-.36.2-.47.36a.79.79 0 0 0-.17.48H117c0-.22.05-.44.17-.66.11-.22.28-.41.49-.59.22-.18.47-.32.77-.42.3-.1.65-.16 1.02-.16.45 0 .84.08 1.19.23.34.15.61.38.8.69.2.3.3.69.3 1.15v2.87c0 .2.02.42.05.66.04.23.1.43.17.6v.09h-1.1c-.05-.13-.1-.29-.13-.49s-.04-.4-.04-.57Zm.18-2.69.01.75h-1.06c-.3 0-.57.02-.8.07-.25.05-.44.12-.6.21-.16.1-.28.22-.37.36a1.1 1.1 0 0 0 0 1.03c.1.16.23.28.4.38.18.1.4.14.66.14a1.73 1.73 0 0 0 1.44-.71c.15-.2.23-.39.24-.58l.45.51c-.03.16-.1.34-.22.53a2.54 2.54 0 0 1-1.17 1c-.26.11-.56.17-.9.17-.41 0-.78-.08-1.1-.25a1.74 1.74 0 0 1-.99-1.58c0-.33.07-.62.2-.87.13-.26.32-.47.56-.64.24-.17.53-.3.88-.38.34-.1.72-.13 1.14-.13h1.23ZM124.84 248.22v5.2h-1.06v-6.16h1.03l.03.97Zm1.92-1v.98a2.87 2.87 0 0 0-.51-.05c-.25 0-.46.05-.65.12-.19.08-.34.18-.47.32-.13.14-.23.3-.31.5-.07.18-.12.38-.14.6l-.3.18c0-.38.04-.72.1-1.05.08-.33.2-.62.36-.87.15-.25.35-.45.59-.6a1.67 1.67 0 0 1 1.33-.13ZM136.51 248.61v1.27c0 .68-.06 1.25-.18 1.72a3 3 0 0 1-.52 1.13c-.23.29-.5.5-.83.62a3.1 3.1 0 0 1-1.97.07 2.1 2.1 0 0 1-.73-.38c-.21-.18-.4-.41-.55-.7a3.7 3.7 0 0 1-.34-1.03c-.08-.41-.12-.89-.12-1.43v-1.27c0-.68.06-1.25.18-1.7.13-.47.3-.84.53-1.11.23-.29.5-.49.82-.6a3.12 3.12 0 0 1 1.97-.06 2 2 0 0 1 1.28 1.03c.15.28.26.62.34 1.02.08.4.12.88.12 1.42Zm-1.06 1.44v-1.61c0-.38-.02-.7-.07-.98-.04-.29-.1-.53-.18-.74-.09-.2-.2-.36-.32-.48a1.14 1.14 0 0 0-.44-.28c-.17-.06-.35-.09-.56-.09-.25 0-.47.05-.66.14-.2.1-.36.24-.5.44-.12.2-.22.47-.29.8-.07.32-.1.72-.1 1.19v1.61c0 .37.02.7.06.99.05.28.11.53.2.74.09.2.2.37.32.5.13.14.27.24.43.3.17.06.35.1.56.1.25 0 .48-.06.67-.15.2-.1.36-.26.49-.47.13-.2.23-.48.3-.81.06-.34.1-.74.1-1.2ZM143.7 252.56v.87h-5.43v-.76l2.72-3.03c.33-.37.59-.69.77-.95.19-.26.32-.5.39-.7.08-.2.11-.42.11-.64 0-.27-.05-.52-.17-.74-.1-.22-.27-.4-.49-.54-.21-.13-.48-.2-.78-.2-.37 0-.68.08-.93.22-.24.14-.42.34-.55.6a2 2 0 0 0-.18.87h-1.05c0-.46.1-.9.3-1.28.21-.39.51-.7.92-.92.4-.24.9-.35 1.48-.35.53 0 .98.1 1.35.28.37.18.66.44.86.77a2.35 2.35 0 0 1 .18 1.9 5.77 5.77 0 0 1-.83 1.47l-.6.72-2.23 2.41h4.16ZM148.66 249.27c0-.18.06-.33.17-.45.1-.13.27-.19.48-.19.21 0 .38.06.48.19.12.12.18.27.18.45 0 .17-.06.32-.18.44-.1.12-.27.18-.48.18-.21 0-.37-.06-.48-.18a.64.64 0 0 1-.17-.44ZM155.51 245.12h2.75c.63 0 1.15.1 1.58.29.44.19.76.47.99.84.23.37.34.82.34 1.37a2.21 2.21 0 0 1-.9 1.84 2.9 2.9 0 0 1-1.02.48l-.31.12h-2.58l-.02-.9h1.96c.4 0 .72-.06.98-.2s.46-.33.6-.56a1.79 1.79 0 0 0 .01-1.62 1.25 1.25 0 0 0-.6-.56c-.26-.13-.6-.2-1.03-.2h-1.65v7.4h-1.1v-8.3Zm4.86 8.3-2.02-3.76h1.14l2.05 3.7v.07h-1.17ZM165.5 253.54c-.43 0-.82-.07-1.17-.22a2.65 2.65 0 0 1-1.46-1.56c-.14-.37-.2-.77-.2-1.2v-.24c0-.5.07-.95.22-1.34.15-.4.35-.73.6-1a2.6 2.6 0 0 1 3.01-.61c.33.15.6.37.8.64.2.27.35.59.45.96.1.36.15.76.15 1.2v.47h-4.6v-.86h3.55v-.08a2.63 2.63 0 0 0-.17-.8c-.1-.26-.25-.47-.46-.64-.21-.17-.5-.25-.86-.25a1.43 1.43 0 0 0-1.18.6c-.14.2-.25.44-.33.72a3.7 3.7 0 0 0-.12.99v.24c0 .3.04.57.12.82.08.26.2.48.36.68a1.7 1.7 0 0 0 1.35.62c.37 0 .69-.08.94-.23.26-.15.49-.35.68-.6l.64.5a2.42 2.42 0 0 1-1.27 1.02c-.3.11-.64.17-1.05.17ZM173.3 252v-4.74h1.06v6.17h-1.01l-.05-1.43Zm.2-1.3.44-.01c0 .41-.05.79-.13 1.14-.09.35-.22.65-.41.9-.2.26-.44.46-.75.6-.31.14-.69.21-1.13.21-.3 0-.57-.04-.82-.13a1.66 1.66 0 0 1-1.06-1.12c-.1-.3-.14-.64-.14-1.05v-3.98h1.06v3.99c0 .28.03.5.09.69.06.18.15.32.25.43.11.1.23.17.37.21.13.04.27.06.42.06.45 0 .8-.08 1.07-.25.26-.18.45-.41.56-.7.12-.3.18-.63.18-.99ZM178.94 247.26v.8h-3.34v-.8h3.34Zm-2.2-1.5h1.05v6.14c0 .2.03.36.1.47.06.1.14.18.25.21.1.04.2.05.33.05a1.75 1.75 0 0 0 .5-.06v.86a2.62 2.62 0 0 1-.82.11c-.26 0-.5-.05-.71-.15-.22-.1-.39-.28-.52-.52a2.16 2.16 0 0 1-.19-.98v-6.13ZM183.13 253.54c-.43 0-.82-.07-1.17-.22a2.65 2.65 0 0 1-1.47-1.56c-.13-.37-.2-.77-.2-1.2v-.24c0-.5.08-.95.23-1.34a3 3 0 0 1 .6-1 2.6 2.6 0 0 1 3.01-.61c.33.15.59.37.8.64.2.27.35.59.45.96.1.36.15.76.15 1.2v.47h-4.6v-.86h3.54v-.08a2.66 2.66 0 0 0-.17-.8c-.1-.26-.25-.47-.45-.64-.21-.17-.5-.25-.86-.25a1.43 1.43 0 0 0-1.18.6c-.14.2-.26.44-.34.72-.08.29-.12.62-.12.99v.24c0 .3.04.57.12.82.09.26.2.48.36.68.16.2.35.34.58.45.23.11.49.17.78.17.37 0 .68-.08.94-.23.26-.15.49-.35.68-.6l.64.5a2.43 2.43 0 0 1-1.27 1.02c-.3.11-.65.17-1.05.17ZM188.2 248.22v5.2h-1.05v-6.16h1.03l.03.97Zm1.93-1v.98a2.89 2.89 0 0 0-.51-.05c-.25 0-.47.05-.65.12-.19.08-.34.18-.47.32-.13.14-.24.3-.31.5-.07.18-.12.38-.15.6l-.3.18c0-.38.04-.72.12-1.05.07-.33.19-.62.34-.87.16-.25.36-.45.6-.6a1.66 1.66 0 0 1 1.33-.13ZM195.09 251.79c0-.15-.03-.3-.1-.42a.86.86 0 0 0-.4-.36c-.2-.11-.51-.2-.92-.29a7.2 7.2 0 0 1-.93-.25c-.27-.1-.5-.22-.7-.36a1.38 1.38 0 0 1-.6-1.16c0-.25.06-.48.16-.7.12-.21.27-.4.47-.57.2-.17.44-.3.72-.4.28-.1.6-.14.94-.14.5 0 .92.09 1.27.26.35.18.62.41.8.7.19.3.28.62.28.97h-1.05a.9.9 0 0 0-.16-.5c-.1-.16-.24-.3-.44-.4-.19-.1-.42-.16-.7-.16-.29 0-.53.04-.71.14a.91.91 0 0 0-.4.33.85.85 0 0 0-.06.74c.04.1.12.17.22.25.1.07.25.14.43.2.19.07.43.13.72.2.5.11.92.25 1.25.4.32.17.57.36.73.6.16.23.24.5.24.84a1.61 1.61 0 0 1-.66 1.32c-.21.16-.46.29-.75.38-.3.09-.62.13-.98.13-.54 0-1-.1-1.38-.29-.38-.2-.66-.44-.85-.75-.2-.31-.3-.64-.3-.98h1.07c.01.3.1.52.25.7.15.16.33.28.55.35a2.2 2.2 0 0 0 1.39-.01c.2-.08.34-.18.45-.31.1-.14.15-.29.15-.46Z" fill="#868993"/><rect x="64.09" y="289.09" width="18.49" height="18.49" rx="9.25" fill="#F60"/><rect x="64.09" y="289.09" width="18.49" height="18.49" rx="9.25" stroke="#0C0C0C" stroke-width=".97"/><circle cx="73.33" cy="298.33" r="8.76" fill="#F60"/><g clip-path="url(#jl3i40pjc)"><path d="M68.68 300.67a.67.67 0 0 1-.22-.13c-.62-.6.17-1.3 1.09-1.72v-1.17c.22.14.32.15.34.17l.7-.7-.24-.6c2.05-.73 2.88-1 4.54-1.3l-.3-.27.5-.29c1.11.38 2.16.48 1.98 1.43.05-.64-.74-.88-1.95-1.23l-.23.14.45.38c-2 .35-3.22.74-4.68 1.25l.2.53-.73.73c.13.04 1.4.48 2.73-.47 0 0 .02-.01.02-.03-.04-.07-.13-.13-.24-.23.38.02.64.37.59.73h-.18a.54.54 0 0 0-.05-.32 3.41 3.41 0 0 1-3.23.51v.9c-.5.18-1.38.74-1.37 1.27a.5.5 0 0 0 .28.42Z" fill="#010101"/><path d="M72.84 300.43a8.15 8.15 0 0 1-3.79 1.1c-2.1-.05-2.43-1.48-1.43-2.98a9.07 9.07 0 0 1 4.84-3.74 8.66 8.66 0 0 1 2.68-.54c1.42-.01 2.79.43 2.7 1.8-.05 1.07-1.55 2.56-2.33 3.63-.34.47-.4.77.18.75 2.08-.14 3.33-.6 5.07-1.36-1.17.81-6.67 3.64-6.7 1.52 0-.26.14-.55.33-.85.2-.3.47-.62.75-.94.42-.5 1.46-1.66 1.8-2.37.6-1.32-.73-1.38-1.86-1.8l-.49.3.3.27a23.5 23.5 0 0 0-4.53 1.29l.23.6-.7.7c0-.02-.12-.03-.34-.17v1.18c-.91.4-1.7 1.12-1.08 1.72.06.06.16.1.22.12h-.01c1.12.65 4.17-.23 4.16-.23Z" fill="#fff"/></g><circle cx="84.04" cy="298.33" r="9.26" fill="#ED1556" stroke="#0A0A0A"/><path d="M87.95 297.66c-.55-.55-1.6-1.08-2.6-.57l-.11.06.04-.13c.5-1-.02-2.04-.58-2.6-1.12-1.12-2.94-1.41-4.34-.02-2.5 2.5.44 5.57-1 8.4l-.19.4.39-.21c2.83-1.44 5.9 1.5 8.4-1 1.4-1.4 1.11-3.2-.01-4.33Zm-2.35 3.25c-1.37 1.37-3.05-.24-4.6.55l-.2.11.1-.22c.79-1.54-.82-3.22.54-4.58.77-.76 1.76-.6 2.37.01.3.3.3 1.1.03 1.65l-.03.07.06-.04c.56-.27 1.41-.21 1.71.09.62.61.78 1.6.02 2.37Z" fill="#fff"/><path fill="#000" d="M54 58h270v65H54z"/><rect x="64.57" y="72.79" width="46.36" height="35.04" rx="7.79" fill="#2A2E39"/><path d="m82.37 85.51-3.72 10.8H76.4l4.69-12.46h1.43l-.15 1.66Zm3.11 10.8-3.73-10.8-.16-1.66h1.45l4.7 12.46h-2.26Zm-.18-4.62v1.7h-6.77v-1.7h6.77ZM91.63 83.17V96.3h-2.07V83.17h2.07ZM96.58 83.17V96.3H94.5V83.17h2.07Z" fill="#D1D4DC"/><path d="M136.79 83.85v12.46h-2.13V83.85h2.13Zm3.91 0v1.71h-9.91v-1.71h9.91ZM141.03 91.78v-.2c0-.66.1-1.28.3-1.85.19-.58.47-1.08.83-1.5a3.8 3.8 0 0 1 1.35-1 4.4 4.4 0 0 1 1.82-.35c.67 0 1.28.12 1.81.36.54.23.99.56 1.36 1 .37.41.65.91.85 1.49.2.57.29 1.19.29 1.85v.2c0 .67-.1 1.29-.3 1.86a3.92 3.92 0 0 1-4 2.84 3.92 3.92 0 0 1-3.17-1.34 4.44 4.44 0 0 1-.85-1.5c-.2-.57-.29-1.2-.29-1.86Zm2.06-.2v.2c0 .42.05.81.13 1.18.09.37.22.7.4.98a2 2 0 0 0 .7.66c.3.15.63.23 1.02.23a1.97 1.97 0 0 0 1.7-.9c.18-.27.31-.6.4-.97.1-.37.14-.76.14-1.18v-.2c0-.4-.05-.8-.14-1.16a3 3 0 0 0-.41-.98 1.96 1.96 0 0 0-1.7-.92c-.4 0-.73.08-1.01.25a2 2 0 0 0-.7.67c-.18.28-.31.61-.4.98-.08.37-.13.75-.13 1.16ZM153.92 88.83v11.03h-2.06V87.05h1.9l.16 1.78Zm6.03 2.76v.18c0 .68-.08 1.3-.23 1.88a4.58 4.58 0 0 1-.7 1.5c-.3.41-.67.74-1.12.98-.44.23-.96.35-1.54.35-.58 0-1.08-.1-1.51-.32a3.1 3.1 0 0 1-1.09-.91c-.3-.4-.53-.86-.72-1.4a8.87 8.87 0 0 1-.37-1.75v-.7c.07-.67.2-1.29.37-1.84a5 5 0 0 1 .72-1.43 3.06 3.06 0 0 1 2.58-1.25c.59 0 1.1.11 1.55.34.45.22.83.54 1.14.96.3.41.54.9.7 1.49.15.57.22 1.22.22 1.92Zm-2.06.18v-.18c0-.43-.04-.82-.12-1.19-.08-.37-.2-.7-.37-.97a1.84 1.84 0 0 0-1.61-.9c-.37 0-.68.07-.94.2a1.8 1.8 0 0 0-.66.5 2.4 2.4 0 0 0-.41.76c-.1.29-.17.6-.2.94v1.65c.06.42.18.8.34 1.13.17.35.4.62.7.83.31.2.7.3 1.19.3.37 0 .68-.09.94-.24.27-.16.48-.38.65-.66.17-.29.3-.62.37-.99.08-.37.12-.76.12-1.18ZM172.24 93.8c0-.2-.05-.4-.16-.56-.1-.17-.3-.32-.59-.46-.28-.14-.7-.26-1.26-.37-.5-.11-.94-.24-1.35-.39-.41-.15-.76-.34-1.05-.56a2.14 2.14 0 0 1-.91-1.8c0-.37.08-.73.24-1.06.17-.34.4-.63.71-.9.31-.25.69-.45 1.13-.6.44-.15.94-.22 1.48-.22.78 0 1.44.13 2 .4a3 3 0 0 1 1.28 1.04c.3.44.44.94.44 1.5h-2.06c0-.25-.06-.48-.18-.7-.13-.2-.3-.38-.55-.51-.25-.14-.56-.2-.93-.2a2 2 0 0 0-.88.16c-.23.11-.4.25-.51.43a1.09 1.09 0 0 0-.08 1c.06.12.17.23.31.33.14.1.34.2.58.28.25.08.57.17.94.25.71.14 1.32.34 1.82.57.52.23.91.52 1.19.89.27.36.4.82.4 1.37a2.43 2.43 0 0 1-1.01 2c-.33.25-.73.45-1.2.58-.45.14-.96.2-1.53.2-.84 0-1.55-.14-2.13-.44a3.4 3.4 0 0 1-1.33-1.15c-.3-.48-.44-.97-.44-1.47h2c.01.38.12.68.3.91.2.22.44.39.73.49.29.1.59.14.9.14.37 0 .68-.04.93-.14s.44-.24.57-.41c.13-.18.2-.38.2-.6ZM180.8 87.05v1.5h-5.23v-1.5h5.22Zm-3.72-2.27h2.06v8.97c0 .28.04.5.12.66.09.15.2.25.35.3.15.05.32.07.52.07a3.2 3.2 0 0 0 .73-.07v1.57a5.25 5.25 0 0 1-1.36.2c-.47 0-.9-.09-1.26-.25a1.85 1.85 0 0 1-.85-.83c-.2-.38-.31-.89-.31-1.52v-9.1ZM182.27 91.78v-.2c0-.66.1-1.28.29-1.85.2-.58.47-1.08.84-1.5.37-.43.82-.76 1.35-1a4.4 4.4 0 0 1 1.81-.35c.68 0 1.29.12 1.82.36.53.23.99.56 1.36 1 .37.41.65.91.84 1.49.2.57.3 1.19.3 1.85v.2c0 .67-.1 1.29-.3 1.86a3.92 3.92 0 0 1-4 2.84 3.93 3.93 0 0 1-3.17-1.34 4.46 4.46 0 0 1-.85-1.5 5.76 5.76 0 0 1-.29-1.86Zm2.06-.2v.2c0 .42.04.81.13 1.18.08.37.22.7.4.98.18.28.42.5.7.66.29.15.63.23 1.02.23a1.97 1.97 0 0 0 1.7-.9c.18-.27.31-.6.4-.97.09-.37.13-.76.13-1.18v-.2c0-.4-.04-.8-.13-1.16-.09-.37-.22-.7-.41-.98a1.96 1.96 0 0 0-1.7-.92c-.4 0-.73.08-1.01.25-.28.16-.52.38-.7.67-.18.28-.32.61-.4.98-.09.37-.13.75-.13 1.16ZM195.16 88.81v7.5h-2.06v-9.26h1.97l.1 1.76ZM198 87l-.02 1.92a4 4 0 0 0-1.77.08 1.76 1.76 0 0 0-1.08 1.1c-.1.26-.16.55-.17.88l-.47.03c0-.58.05-1.12.17-1.61.11-.5.28-.94.51-1.31a2.34 2.34 0 0 1 2.5-1.16c.15.02.26.04.33.07ZM201.98 87.05v9.26h-2.07v-9.26h2.07Zm-2.2-2.43c0-.31.1-.57.3-.78.21-.2.5-.31.87-.31s.65.1.87.31c.2.2.31.47.31.78 0 .3-.1.56-.31.77-.22.2-.5.3-.87.3s-.66-.1-.87-.3c-.2-.2-.3-.46-.3-.77ZM208.8 96.48c-.68 0-1.3-.11-1.85-.34a4.1 4.1 0 0 1-2.29-2.37c-.2-.55-.3-1.14-.3-1.78v-.34c0-.72.1-1.38.31-1.97.21-.58.5-1.08.88-1.5.38-.42.82-.75 1.34-.97a4.15 4.15 0 0 1 1.67-.33c.66 0 1.24.11 1.73.33.5.22.9.54 1.23.94.33.4.58.88.74 1.43.17.56.25 1.17.25 1.83v.88h-7.15v-1.48h5.11v-.16a2.9 2.9 0 0 0-.22-1.04 1.77 1.77 0 0 0-.6-.79c-.28-.2-.65-.3-1.1-.3-.34 0-.65.08-.92.22-.26.15-.48.35-.66.63-.17.27-.31.6-.4 1-.1.37-.14.8-.14 1.28V92c0 .41.05.79.16 1.13.11.35.28.65.5.9.21.26.47.46.78.6a2.86 2.86 0 0 0 3.39-.93l1.09 1.06a3.9 3.9 0 0 1-1.95 1.48c-.46.16-1 .25-1.6.25ZM219.8 93.8c0-.2-.06-.4-.16-.56-.1-.17-.3-.32-.59-.46a5.7 5.7 0 0 0-1.27-.37c-.49-.11-.94-.24-1.35-.39-.4-.15-.75-.34-1.04-.56a2.13 2.13 0 0 1-.92-1.8c0-.37.09-.73.25-1.06.17-.34.4-.63.71-.9.31-.25.68-.45 1.12-.6.45-.15.94-.22 1.5-.22.77 0 1.43.13 1.98.4a3 3 0 0 1 1.29 1.04c.3.44.44.94.44 1.5h-2.06c0-.25-.06-.48-.19-.7a1.3 1.3 0 0 0-.54-.51c-.25-.14-.56-.2-.93-.2a2 2 0 0 0-.88.16c-.23.11-.4.25-.51.43a1.1 1.1 0 0 0-.08 1 1 1 0 0 0 .3.33c.15.1.34.2.59.28.25.08.56.17.94.25.7.14 1.31.34 1.82.57.52.23.91.52 1.18.89.28.36.41.82.41 1.37a2.42 2.42 0 0 1-1.01 2c-.34.25-.73.45-1.2.58-.45.14-.96.2-1.53.2-.84 0-1.55-.14-2.13-.44a3.4 3.4 0 0 1-1.33-1.15c-.3-.48-.44-.97-.44-1.47h1.99c.02.38.13.68.32.91.19.22.43.39.72.49.29.1.59.14.9.14.36 0 .67-.04.93-.14.25-.1.44-.24.57-.41.13-.18.2-.38.2-.6Z" fill="#787B86"/><path d="M254.55 90.3a8.76 8.76 0 1 1 17.52 0 8.76 8.76 0 0 1-17.52 0Z" fill="#F7525F"/><mask id="kl3i40pjc" style="mask-type:alpha" maskUnits="userSpaceOnUse" x="254" y="81" width="19" height="19"><path d="M254.55 90.3a8.76 8.76 0 1 1 17.52 0 8.76 8.76 0 0 1-17.52 0Z" fill="#F7525F"/></mask><g mask="url(#kl3i40pjc)"><path d="M254.55 86.41h17.52v7.8h-17.52v-7.8Z" fill="#FDD835"/></g><path fill-rule="evenodd" clip-rule="evenodd" d="M258.44 92.25c1.07 0 1.95-.87 1.95-1.94v-1.95h-3.9v1.95c0 1.07.88 1.94 1.95 1.94Z" fill="#F7525F"/><path d="M283.14 93.58c0-.25-.04-.48-.12-.68-.08-.2-.21-.38-.4-.55-.2-.16-.47-.32-.83-.48-.34-.16-.79-.32-1.33-.49a14.8 14.8 0 0 1-1.64-.6c-.5-.23-.93-.5-1.3-.8a2.9 2.9 0 0 1-1.17-2.4 3.02 3.02 0 0 1 1.23-2.45c.4-.3.87-.54 1.4-.71a5.95 5.95 0 0 1 1.8-.26c.93 0 1.72.17 2.4.52.67.34 1.18.8 1.54 1.37.36.58.55 1.22.55 1.91h-2.13c0-.4-.1-.77-.27-1.08a1.8 1.8 0 0 0-.79-.76 2.84 2.84 0 0 0-1.32-.27c-.5 0-.93.08-1.27.23a1.7 1.7 0 0 0-.75.62c-.17.27-.25.56-.25.9 0 .23.06.44.16.64.11.18.28.36.5.53.22.16.5.3.84.45.34.14.73.28 1.19.41.69.2 1.29.43 1.8.68.52.25.94.53 1.29.84a3.1 3.1 0 0 1 1.02 2.42c0 .52-.1 1-.31 1.42-.21.41-.52.77-.91 1.06-.39.3-.86.52-1.4.68a6.63 6.63 0 0 1-5.16-.74 3.48 3.48 0 0 1-1.55-2.97h2.15c0 .41.07.76.2 1.04.14.29.34.52.6.7.24.18.53.31.86.4a4.36 4.36 0 0 0 2.34-.09c.34-.14.6-.34.77-.6.17-.25.26-.55.26-.89ZM291.72 87.53v1.51h-5.22v-1.5h5.22ZM288 85.27h2.07v8.96c0 .29.04.5.12.66.08.15.2.25.35.3.14.05.32.08.52.08a3.19 3.19 0 0 0 .73-.08v1.57a5.25 5.25 0 0 1-1.37.2c-.47 0-.89-.08-1.25-.25a1.85 1.85 0 0 1-.86-.83c-.2-.38-.3-.89-.3-1.52v-9.1ZM293.2 92.27v-.2c0-.67.1-1.29.29-1.86.2-.57.47-1.07.83-1.5.38-.42.83-.75 1.36-.99a4.4 4.4 0 0 1 1.81-.36c.68 0 1.28.12 1.81.36.54.24 1 .57 1.36 1 .38.42.66.92.85 1.5.2.56.3 1.18.3 1.85v.2c0 .66-.1 1.28-.3 1.85-.2.57-.47 1.07-.85 1.5a3.92 3.92 0 0 1-3.15 1.34 3.92 3.92 0 0 1-3.17-1.34 4.44 4.44 0 0 1-.85-1.5c-.2-.57-.3-1.19-.3-1.86Zm2.06-.2v.2c0 .41.04.8.13 1.18.08.37.22.7.4.97.18.28.41.5.7.66.28.16.62.24 1.02.24a1.97 1.97 0 0 0 1.7-.9c.17-.28.3-.6.4-.97.08-.38.13-.77.13-1.19v-.2c0-.4-.05-.79-.14-1.16-.08-.37-.22-.7-.4-.98a1.97 1.97 0 0 0-1.71-.91c-.39 0-.72.08-1 .24-.29.16-.52.39-.7.67-.19.29-.32.61-.4.98-.09.37-.13.76-.13 1.17ZM307.8 95.32c.33 0 .64-.07.9-.2.28-.13.5-.32.66-.56.17-.24.27-.52.28-.83h1.95c-.01.6-.2 1.14-.53 1.63-.35.5-.8.88-1.36 1.17a4.1 4.1 0 0 1-1.88.43 4.4 4.4 0 0 1-1.84-.36 3.65 3.65 0 0 1-1.31-1 4.43 4.43 0 0 1-.79-1.49 6.11 6.11 0 0 1-.26-1.8v-.3c0-.63.09-1.23.26-1.79.18-.56.44-1.06.79-1.49.34-.43.78-.76 1.3-1a4.3 4.3 0 0 1 1.84-.37c.75 0 1.4.15 1.95.45.56.29 1 .7 1.32 1.22.33.52.5 1.12.5 1.81h-1.94c-.01-.34-.1-.65-.25-.92a1.7 1.7 0 0 0-.63-.67 1.8 1.8 0 0 0-.97-.24c-.42 0-.76.08-1.04.25-.27.17-.48.4-.64.69-.15.28-.26.6-.33.96-.06.36-.1.72-.1 1.1v.3c0 .39.04.76.1 1.12.06.36.17.68.32.97.16.27.38.5.65.67a2 2 0 0 0 1.05.25ZM315.74 83.65v13.14h-2.07V83.65h2.06Zm5.74 3.88L317.45 92l-2.2 2.26-.54-1.75 1.67-2.06 2.62-2.92h2.48Zm-2.04 9.26-3-4.35 1.3-1.44 4.09 5.79h-2.39ZM328.47 94.28c0-.2-.05-.39-.15-.55-.1-.17-.3-.33-.6-.46a5.7 5.7 0 0 0-1.26-.38c-.49-.1-.94-.24-1.35-.39a4.3 4.3 0 0 1-1.04-.55 2.13 2.13 0 0 1-.92-1.8c0-.37.08-.73.25-1.07.17-.33.4-.63.71-.89.3-.25.68-.46 1.12-.6a4.7 4.7 0 0 1 1.49-.23c.77 0 1.44.13 2 .4a3 3 0 0 1 1.27 1.05c.3.44.45.93.45 1.49h-2.06c0-.25-.06-.48-.19-.69-.12-.21-.3-.39-.55-.52-.24-.14-.55-.2-.92-.2a2 2 0 0 0-.88.17c-.23.1-.4.25-.52.42a1.1 1.1 0 0 0-.07 1 1 1 0 0 0 .3.34c.15.1.34.19.59.27.25.09.56.17.94.25.7.15 1.31.34 1.82.57.51.23.9.53 1.18.9.27.35.41.8.41 1.36a2.42 2.42 0 0 1-1.02 2.01c-.33.25-.72.44-1.19.58-.45.13-.96.2-1.54.2-.83 0-1.54-.15-2.13-.44a3.4 3.4 0 0 1-1.32-1.16c-.3-.47-.45-.96-.45-1.47h2c.02.38.13.69.31.92.2.22.44.38.72.48.3.1.6.15.9.15.37 0 .68-.05.93-.15.25-.1.44-.24.58-.4.13-.18.2-.38.2-.6Z" fill="#787B86"/><path fill="url(#ll3i40pjc)" d="M-6 11h542v1025H-6z" style="mix-blend-mode:plus-lighter" opacity=".7"/></g></g><g filter="url(#ml3i40pjc)"><path fill="#000" d="M256 0h471v323H256z"/></g><g filter="url(#nl3i40pjc)"><path fill="url(#ol3i40pjc)" d="M307 0h354v323H307z"/></g><rect x="308" y="-30" width="352" height="432" rx="10.6" fill="url(#pl3i40pjc)" fill-opacity=".2" stroke="url(#ql3i40pjc)" stroke-width="2"/><g filter="url(#rl3i40pjc)"><rect x="309" y="-211" width="350" height="779" rx="24" fill="#000"/><circle cx="333.33" cy="31.33" r="8.76" fill="url(#sl3i40pjc)"/><path d="M329.9 25.39h2.18v11.89h-2.19v-11.9ZM334.58 25.39h2.2v11.89h-2.2v-11.9Z" fill="#DB0916"/><path d="M334.48 37.28h2.3l-4.6-11.9h-2.29l4.59 11.9Z" fill="#FF3540"/><path d="M330.51 60.25h-3.17l-.02-1.56h2.77c.47 0 .87-.07 1.19-.21.33-.14.58-.34.75-.6.17-.28.26-.6.26-.97 0-.42-.08-.76-.24-1.02-.16-.26-.4-.45-.74-.57a3.66 3.66 0 0 0-1.25-.18H328v10.74h-2.15V53.42h4.23c.68 0 1.29.07 1.83.2s1 .34 1.37.62c.38.27.67.62.87 1.04.2.42.3.92.3 1.5 0 .52-.13.99-.37 1.42-.25.42-.6.77-1.09 1.03-.48.27-1.07.43-1.79.48l-.68.54Zm-.1 5.63h-3.75l.97-1.7h2.79c.48 0 .89-.08 1.21-.24.33-.17.57-.4.73-.68.16-.29.25-.63.25-1.02 0-.4-.07-.75-.22-1.05-.14-.3-.37-.53-.67-.7-.31-.16-.71-.24-1.21-.24h-2.41l.01-1.56h3.14l.5.59a3.3 3.3 0 0 1 1.68.45c.44.28.77.64.99 1.09.22.44.32.92.32 1.43 0 .8-.17 1.46-.52 2-.34.53-.83.94-1.48 1.22-.64.27-1.42.41-2.32.41ZM339.4 56.62v9.26h-2.07v-9.26h2.07Zm-2.21-2.43c0-.3.1-.57.3-.77.22-.22.51-.32.88-.32s.65.1.87.32c.2.2.31.46.31.77s-.1.57-.31.77c-.22.21-.5.31-.87.31s-.66-.1-.87-.3c-.2-.21-.31-.47-.31-.78ZM346.39 56.62v1.51h-5.22v-1.5h5.22Zm-3.72-2.26h2.06v8.96c0 .29.04.5.12.66.09.15.2.25.35.3.15.05.33.08.53.08a3.2 3.2 0 0 0 .72-.08l.01 1.57a5.32 5.32 0 0 1-1.37.2c-.47 0-.89-.08-1.25-.25a1.85 1.85 0 0 1-.86-.83c-.2-.38-.3-.89-.3-1.52v-9.1ZM352.25 64.4c.33 0 .63-.06.9-.19.28-.13.5-.32.66-.56.17-.24.26-.52.28-.83h1.94c0 .6-.18 1.14-.53 1.63-.34.5-.8.88-1.36 1.17a4.1 4.1 0 0 1-1.87.43c-.7 0-1.32-.12-1.85-.36a3.65 3.65 0 0 1-1.3-1 4.43 4.43 0 0 1-.8-1.49 6.08 6.08 0 0 1-.25-1.8v-.3c0-.63.08-1.23.26-1.79.17-.56.44-1.06.78-1.49.35-.43.79-.76 1.31-1a4.3 4.3 0 0 1 1.84-.37c.74 0 1.4.15 1.95.45.56.29 1 .7 1.32 1.22.33.52.5 1.12.5 1.81h-1.94c-.01-.34-.1-.65-.25-.92a1.7 1.7 0 0 0-.64-.67 1.8 1.8 0 0 0-.96-.24c-.42 0-.76.08-1.04.25-.27.17-.49.4-.64.69-.16.28-.27.6-.33.96-.07.36-.1.72-.1 1.1v.3c0 .39.03.76.1 1.12.06.36.17.68.32.96.16.28.38.51.65.68a2 2 0 0 0 1.05.25ZM357.71 61.35v-.2c0-.66.1-1.28.3-1.85.19-.57.46-1.07.83-1.5a3.8 3.8 0 0 1 1.35-.99 4.4 4.4 0 0 1 1.81-.36c.68 0 1.29.12 1.82.36s.99.57 1.36 1c.37.42.65.92.84 1.5.2.56.3 1.18.3 1.85v.2c0 .66-.1 1.28-.3 1.85a3.92 3.92 0 0 1-4 2.84 3.92 3.92 0 0 1-3.17-1.34 4.44 4.44 0 0 1-.85-1.5c-.2-.57-.29-1.19-.29-1.86Zm2.06-.2v.2c0 .42.05.81.13 1.19.09.37.22.7.4.97a2 2 0 0 0 .7.66c.29.16.63.24 1.02.24a1.96 1.96 0 0 0 1.7-.9 3 3 0 0 0 .4-.97c.09-.38.13-.77.13-1.19v-.2c0-.4-.04-.79-.13-1.16a3 3 0 0 0-.41-.98 1.96 1.96 0 0 0-1.7-.91c-.4 0-.73.08-1.01.24a2 2 0 0 0-.7.67c-.18.29-.31.61-.4.98-.08.37-.13.76-.13 1.17ZM370.74 56.62v9.26h-2.07v-9.26h2.07Zm-2.2-2.43c0-.3.1-.57.3-.77.21-.22.5-.32.87-.32s.65.1.87.32c.2.2.31.46.31.77s-.1.57-.31.77c-.22.21-.5.31-.87.31s-.66-.1-.87-.3c-.2-.21-.3-.47-.3-.78ZM375.53 58.6v7.28h-2.06v-9.26h1.94l.12 1.98Zm-.37 2.31h-.67a6 6 0 0 1 .28-1.81c.18-.55.43-1.02.75-1.42a3.32 3.32 0 0 1 2.67-1.23c.44 0 .85.07 1.2.2.37.11.68.3.94.58.26.28.46.63.6 1.07.13.43.2.97.2 1.6v5.98h-2.07v-5.99c0-.44-.06-.8-.2-1.05a1.1 1.1 0 0 0-.55-.56 2.09 2.09 0 0 0-.9-.17 2 2 0 0 0-1.66.83c-.19.26-.33.56-.44.9-.1.33-.15.69-.15 1.07ZM394.22 63.96V52.74h2.07v13.14h-1.88l-.2-1.92Zm-6.03-2.6v-.18c0-.7.09-1.35.25-1.92.17-.58.4-1.08.72-1.5a3.16 3.16 0 0 1 2.67-1.3c.56 0 1.05.1 1.47.32.42.21.78.53 1.08.93.3.4.53.88.71 1.44.18.55.3 1.17.38 1.85v.57c-.08.66-.2 1.26-.38 1.81a4.86 4.86 0 0 1-.71 1.42 3.06 3.06 0 0 1-2.57 1.25 3.24 3.24 0 0 1-2.65-1.33 4.64 4.64 0 0 1-.72-1.5 6.78 6.78 0 0 1-.25-1.87Zm2.07-.18v.17c0 .43.03.82.1 1.19.09.36.21.68.38.96.16.28.38.5.64.65.27.16.58.23.96.23.46 0 .85-.1 1.15-.3.3-.21.54-.49.71-.83.18-.36.3-.75.36-1.19v-1.54c-.03-.34-.1-.65-.21-.94-.1-.3-.25-.55-.42-.77-.18-.22-.4-.39-.66-.5a2.06 2.06 0 0 0-.92-.2c-.37 0-.7.08-.96.24-.26.16-.47.38-.64.66-.17.28-.3.6-.37.98-.08.37-.12.76-.12 1.19ZM398.54 61.35v-.2c0-.66.1-1.28.29-1.85.2-.57.47-1.07.84-1.5.37-.42.82-.75 1.35-.99a4.4 4.4 0 0 1 1.81-.36c.68 0 1.29.12 1.81.36.54.24 1 .57 1.37 1 .37.42.65.92.84 1.5.2.56.3 1.18.3 1.85v.2c0 .66-.1 1.28-.3 1.85-.2.57-.47 1.07-.85 1.5a3.92 3.92 0 0 1-3.15 1.34 3.92 3.92 0 0 1-3.17-1.34 4.44 4.44 0 0 1-.85-1.5c-.2-.57-.3-1.19-.3-1.86Zm2.06-.2v.2c0 .42.04.81.13 1.19.08.37.22.7.4.97.18.28.42.5.7.66.29.16.63.24 1.02.24a1.97 1.97 0 0 0 1.7-.9c.18-.28.3-.6.4-.97.09-.38.13-.77.13-1.19v-.2c0-.4-.04-.79-.14-1.16-.08-.37-.22-.7-.4-.98a1.97 1.97 0 0 0-1.7-.91c-.4 0-.73.08-1.02.24-.28.16-.5.39-.7.67-.17.29-.3.61-.4.98-.08.37-.12.76-.12 1.17ZM411.42 58.5v7.38h-2.06v-9.26h1.94l.12 1.89Zm-.33 2.41h-.7c0-.65.07-1.24.23-1.78s.4-1.01.7-1.41c.31-.4.7-.72 1.15-.93.46-.23 1-.34 1.6-.34.42 0 .8.07 1.16.2.35.11.65.3.91.56.26.27.46.6.6 1.01.14.41.21.91.21 1.5v6.16h-2.06v-5.99c0-.45-.07-.8-.2-1.06a1.14 1.14 0 0 0-.58-.55 2.07 2.07 0 0 0-.88-.17 1.86 1.86 0 0 0-1.65.83c-.17.26-.3.56-.38.9-.07.33-.11.69-.11 1.07Zm5.74-.55-.97.22c0-.56.08-1.09.23-1.59.16-.5.4-.94.7-1.31a3.25 3.25 0 0 1 2.68-1.23c.47 0 .9.07 1.26.2.38.13.7.32.96.6.27.27.46.63.6 1.07.14.43.2.96.2 1.57v5.99h-2.06v-6c0-.46-.07-.83-.2-1.08a1.06 1.06 0 0 0-.57-.53c-.25-.1-.54-.16-.88-.16-.32 0-.6.06-.85.18-.24.12-.44.28-.6.49-.17.2-.3.44-.38.71-.08.27-.12.56-.12.87ZM427.31 56.62v9.26h-2.07v-9.26h2.07Zm-2.2-2.43c0-.3.1-.57.3-.77.21-.22.5-.32.88-.32.36 0 .65.1.86.32.21.2.32.46.32.77s-.1.57-.32.77c-.21.21-.5.31-.86.31-.37 0-.67-.1-.88-.3-.2-.21-.3-.47-.3-.78ZM432.1 58.6v7.28h-2.06v-9.26h1.94l.12 1.98Zm-.37 2.31h-.66a6 6 0 0 1 .27-1.81c.18-.55.44-1.02.75-1.42a3.32 3.32 0 0 1 2.67-1.23c.45 0 .85.07 1.2.2.37.11.69.3.94.58.26.28.46.63.6 1.07.14.43.2.97.2 1.6v5.98h-2.06v-5.99c0-.44-.07-.8-.2-1.05a1.1 1.1 0 0 0-.56-.56 2.09 2.09 0 0 0-.9-.17 2 2 0 0 0-1.66.83 3.66 3.66 0 0 0-.59 1.97ZM445.51 64.02v-4.41c0-.33-.05-.62-.17-.86-.12-.24-.3-.42-.55-.55-.24-.13-.54-.2-.9-.2-.34 0-.64.06-.88.17-.25.12-.44.27-.57.46-.14.2-.21.42-.21.66h-2.05c0-.36.09-.72.26-1.06.18-.34.44-.64.77-.91.34-.27.74-.48 1.2-.64.48-.15 1-.23 1.58-.23.7 0 1.31.12 1.85.35.54.24.97.6 1.28 1.06.3.47.47 1.06.47 1.77v4.11c0 .42.02.8.08 1.14.06.33.15.62.27.86v.14h-2.12c-.1-.22-.17-.5-.23-.85a6.96 6.96 0 0 1-.07-1Zm.3-3.77.02 1.28h-1.48c-.38 0-.72.03-1 .1-.3.08-.54.18-.74.32a1.34 1.34 0 0 0-.58 1.15c0 .25.06.47.18.68.1.2.27.35.5.47a2.27 2.27 0 0 0 2.66-.73c.17-.26.27-.5.28-.73l.67.92a3.67 3.67 0 0 1-1 1.52 3.24 3.24 0 0 1-2.22.82c-.6 0-1.14-.12-1.61-.36a2.88 2.88 0 0 1-1.12-.98 2.94 2.94 0 0 1-.13-2.71c.2-.39.47-.7.83-.96s.8-.45 1.33-.58c.53-.14 1.13-.2 1.8-.2h1.62ZM452.27 58.6v7.28h-2.06v-9.26h1.94l.12 1.98Zm-.37 2.31h-.66c0-.66.1-1.27.27-1.81.18-.55.44-1.02.75-1.42a3.32 3.32 0 0 1 2.67-1.23c.45 0 .85.07 1.2.2.37.11.69.3.94.58.26.28.46.63.6 1.07.14.43.2.97.2 1.6v5.98h-2.06v-5.99c0-.44-.07-.8-.2-1.05a1.1 1.1 0 0 0-.56-.56 2.09 2.09 0 0 0-.9-.17 2 2 0 0 0-1.65.83c-.2.26-.34.56-.44.9-.1.33-.16.69-.16 1.07ZM464.25 64.4c.33 0 .64-.06.9-.19.28-.13.5-.32.66-.56.18-.24.27-.52.29-.83h1.94c-.01.6-.19 1.14-.53 1.63-.34.5-.8.88-1.36 1.17a4.1 4.1 0 0 1-1.88.43c-.7 0-1.32-.12-1.84-.36a3.65 3.65 0 0 1-1.31-1 4.45 4.45 0 0 1-.79-1.49 6.11 6.11 0 0 1-.26-1.8v-.3c0-.63.09-1.23.26-1.79.18-.56.44-1.06.79-1.49.34-.43.78-.76 1.3-1a4.3 4.3 0 0 1 1.84-.37c.75 0 1.4.15 1.96.45.55.29 1 .7 1.31 1.22.33.52.5 1.12.5 1.81h-1.93c-.02-.34-.1-.65-.26-.92a1.7 1.7 0 0 0-.63-.67 1.8 1.8 0 0 0-.97-.24c-.42 0-.76.08-1.04.25-.27.17-.48.4-.64.69-.15.28-.26.6-.33.96-.06.36-.1.72-.1 1.1v.3c0 .39.04.76.1 1.12.06.36.17.68.32.96.16.28.38.51.65.68.28.17.63.25 1.05.25ZM474.19 66.05c-.69 0-1.3-.11-1.86-.33a4.09 4.09 0 0 1-2.28-2.38c-.2-.55-.31-1.14-.31-1.77v-.34c0-.73.1-1.38.32-1.97.2-.59.5-1.09.88-1.5.37-.43.82-.75 1.33-.97a4.15 4.15 0 0 1 1.67-.34c.66 0 1.24.11 1.74.34.5.22.9.53 1.23.94.33.4.57.87.73 1.43.17.55.25 1.16.25 1.83v.88h-7.15v-1.48h5.12v-.16a2.9 2.9 0 0 0-.23-1.05 1.78 1.78 0 0 0-.6-.79c-.28-.2-.64-.3-1.1-.3a1.82 1.82 0 0 0-1.57.85c-.18.28-.32.6-.41 1-.1.38-.14.8-.14 1.29v.34c0 .4.05.78.16 1.13.12.34.28.64.5.9.21.25.48.46.78.6a2.86 2.86 0 0 0 3.39-.93l1.09 1.05a3.89 3.89 0 0 1-1.95 1.48c-.46.17-.99.25-1.6.25ZM480.01 64.85c0-.32.11-.58.33-.8.21-.22.5-.33.88-.33s.67.1.88.33c.22.22.32.48.32.8 0 .32-.1.6-.32.8-.21.22-.5.33-.88.33-.37 0-.67-.1-.88-.32a1.1 1.1 0 0 1-.33-.8Zm.01-7.28c0-.32.11-.6.33-.8.21-.23.5-.34.88-.34.37 0 .67.1.88.33.21.22.32.49.32.8 0 .32-.1.6-.32.8-.21.23-.5.33-.88.33-.37 0-.67-.1-.88-.32a1.1 1.1 0 0 1-.33-.8ZM500.08 59.31v.68a8.1 8.1 0 0 1-.37 2.54c-.24.74-.6 1.38-1.05 1.9-.45.53-1 .93-1.63 1.21-.63.27-1.33.41-2.1.41a4.71 4.71 0 0 1-3.73-1.62 5.6 5.6 0 0 1-1.08-1.9 7.93 7.93 0 0 1-.37-2.54v-.68c0-.94.12-1.78.37-2.52.25-.75.6-1.39 1.06-1.91.46-.53 1.01-.93 1.64-1.2a5.13 5.13 0 0 1 2.1-.43c.76 0 1.46.14 2.1.42.63.28 1.18.68 1.63 1.2.46.53.8 1.17 1.05 1.92.25.74.38 1.58.38 2.52Zm-2.15.68v-.7c0-.7-.07-1.3-.2-1.84a3.78 3.78 0 0 0-.6-1.34 2.46 2.46 0 0 0-.94-.82c-.38-.19-.8-.28-1.28-.28a2.56 2.56 0 0 0-2.22 1.1 4 4 0 0 0-.58 1.34 7.4 7.4 0 0 0-.2 1.84v.7c0 .7.06 1.32.2 1.85.13.54.33 1 .6 1.36.26.37.58.64.95.83.38.18.8.28 1.27.28a2.57 2.57 0 0 0 2.22-1.1c.25-.38.45-.83.58-1.37.13-.53.2-1.15.2-1.85ZM504.58 58.39v7.49h-2.06v-9.26h1.97l.09 1.77Zm2.83-1.83-.02 1.92a4.01 4.01 0 0 0-1.77.09 1.75 1.75 0 0 0-1.08 1.1c-.1.25-.16.55-.18.87l-.47.04c0-.59.06-1.12.18-1.62.11-.5.28-.93.5-1.3a2.34 2.34 0 0 1 2.5-1.16c.16.01.27.04.34.06ZM514.66 63.96V52.74h2.07v13.14h-1.87l-.2-1.92Zm-6.02-2.6v-.18c0-.7.08-1.35.25-1.92.17-.58.4-1.08.72-1.5a3.16 3.16 0 0 1 2.67-1.3c.56 0 1.05.1 1.47.32.42.21.78.53 1.08.93.3.4.53.88.7 1.44.18.55.3 1.17.38 1.85v.57c-.07.66-.2 1.26-.37 1.81a4.84 4.84 0 0 1-.71 1.42 3.06 3.06 0 0 1-2.57 1.25 3.24 3.24 0 0 1-2.65-1.33 4.64 4.64 0 0 1-.72-1.5 6.78 6.78 0 0 1-.25-1.87Zm2.06-.18v.17c0 .43.04.82.11 1.19.08.36.2.68.37.96.17.28.38.5.64.65.27.16.6.23.96.23.47 0 .86-.1 1.16-.3.3-.21.54-.49.7-.83.18-.36.3-.75.37-1.19v-1.54c-.04-.34-.1-.65-.22-.94a2.5 2.5 0 0 0-.42-.77c-.17-.22-.4-.39-.66-.5a2.06 2.06 0 0 0-.91-.2c-.38 0-.7.08-.96.24-.26.16-.48.38-.65.66-.17.28-.29.6-.37.98-.08.37-.12.76-.12 1.19ZM521.58 56.62v9.26h-2.07v-9.26h2.07Zm-2.2-2.43c0-.3.1-.57.3-.77.22-.22.5-.32.88-.32.36 0 .65.1.86.32.21.2.32.46.32.77s-.1.57-.32.77c-.21.21-.5.31-.86.31-.37 0-.66-.1-.88-.3-.2-.21-.3-.47-.3-.78ZM526.37 58.6v7.28h-2.06v-9.26h1.94l.12 1.98Zm-.36 2.31h-.67c0-.66.1-1.27.27-1.81.18-.55.43-1.02.75-1.42a3.33 3.33 0 0 1 2.67-1.23c.45 0 .85.07 1.21.2.37.11.68.3.93.58.26.28.47.63.6 1.07.14.43.2.97.2 1.6v5.98h-2.06v-5.99c0-.44-.07-.8-.2-1.05a1.1 1.1 0 0 0-.56-.56 2.09 2.09 0 0 0-.9-.17 2 2 0 0 0-1.65.83c-.2.26-.34.56-.44.9-.1.33-.15.69-.15 1.07ZM539.79 64.02v-4.41c0-.33-.06-.62-.18-.86s-.3-.42-.55-.55c-.24-.13-.54-.2-.9-.2-.34 0-.63.06-.88.17a1.4 1.4 0 0 0-.57.46c-.14.2-.2.42-.2.66h-2.06c0-.36.09-.72.26-1.06.18-.34.44-.64.77-.91.34-.27.74-.48 1.2-.64.48-.15 1-.23 1.58-.23.7 0 1.32.12 1.85.35.54.24.97.6 1.28 1.06.31.47.47 1.06.47 1.77v4.11c0 .42.02.8.08 1.14.06.33.15.62.27.86v.14h-2.12c-.1-.22-.17-.5-.23-.85a6.96 6.96 0 0 1-.07-1Zm.3-3.77.01 1.28h-1.48c-.38 0-.72.03-1 .1-.3.08-.54.18-.73.32a1.34 1.34 0 0 0-.59 1.15c0 .25.06.47.18.68.11.2.27.35.5.47a2.27 2.27 0 0 0 2.66-.73c.18-.26.27-.5.28-.73l.67.92a3.67 3.67 0 0 1-1 1.52 3.22 3.22 0 0 1-2.22.82c-.6 0-1.14-.12-1.61-.36a2.88 2.88 0 0 1-1.12-.98 2.95 2.95 0 0 1-.13-2.71c.2-.39.47-.7.83-.96s.8-.45 1.33-.58c.53-.14 1.13-.2 1.8-.2h1.62ZM546.7 52.74v13.14h-2.06V52.74h2.07ZM554.64 63.37c0-.2-.05-.39-.15-.55-.1-.17-.3-.33-.59-.46-.29-.14-.7-.27-1.27-.38-.49-.1-.94-.24-1.35-.39-.4-.15-.75-.34-1.04-.55a2.14 2.14 0 0 1-.92-1.8c0-.37.09-.73.25-1.07.17-.33.4-.63.71-.89.3-.25.68-.46 1.12-.6.45-.15.94-.23 1.49-.23.78 0 1.44.13 2 .4a3 3 0 0 1 1.28 1.05c.3.44.44.93.44 1.49h-2.06c0-.25-.06-.48-.19-.69a1.3 1.3 0 0 0-.55-.52c-.24-.14-.55-.2-.92-.2a2 2 0 0 0-.88.17c-.23.1-.4.25-.51.42a1.09 1.09 0 0 0-.08 1c.06.13.16.24.3.34.15.1.34.19.59.27.25.09.56.17.94.25.7.15 1.31.34 1.82.57.51.23.9.53 1.18.9.28.35.41.8.41 1.36a2.42 2.42 0 0 1-1.01 2.01c-.34.25-.73.44-1.2.58-.45.13-.96.2-1.53.2-.84 0-1.55-.15-2.13-.44a3.4 3.4 0 0 1-1.33-1.16c-.3-.47-.45-.96-.45-1.47h2c.02.38.13.69.32.92.19.22.43.38.71.48.3.1.6.15.9.15.37 0 .68-.05.93-.15.25-.1.45-.24.58-.4.13-.18.2-.38.2-.6ZM569.02 64.02v-4.41c0-.33-.06-.62-.18-.86s-.3-.42-.55-.55c-.23-.13-.54-.2-.9-.2-.34 0-.63.06-.87.17a1.4 1.4 0 0 0-.58.46c-.13.2-.2.42-.2.66h-2.06c0-.36.1-.72.27-1.06.18-.34.43-.64.77-.91s.74-.48 1.2-.64c.47-.15 1-.23 1.58-.23.7 0 1.31.12 1.85.35.54.24.96.6 1.27 1.06.32.47.47 1.06.47 1.77v4.11c0 .42.03.8.09 1.14.06.33.15.62.26.86v.14h-2.11c-.1-.22-.17-.5-.23-.85a6.96 6.96 0 0 1-.08-1Zm.3-3.77.02 1.28h-1.48c-.38 0-.72.03-1.01.1-.3.08-.53.18-.73.32a1.34 1.34 0 0 0-.58 1.15c0 .25.06.47.17.68.12.2.28.35.5.47a2.27 2.27 0 0 0 2.66-.73c.18-.26.28-.5.29-.73l.67.92a3.67 3.67 0 0 1-1 1.52 3.24 3.24 0 0 1-2.22.82c-.6 0-1.14-.12-1.62-.36a2.88 2.88 0 0 1-1.1-.98 2.94 2.94 0 0 1-.13-2.71c.18-.39.46-.7.81-.96.37-.26.81-.45 1.34-.58.52-.14 1.12-.2 1.8-.2h1.61ZM575.8 58.39v7.49h-2.06v-9.26h1.97l.1 1.77Zm2.84-1.83-.02 1.92a4.07 4.07 0 0 0-1.77.09 1.76 1.76 0 0 0-1.09 1.1c-.1.25-.15.55-.17.87l-.47.04c0-.59.06-1.12.17-1.62.12-.5.29-.93.51-1.3a2.34 2.34 0 0 1 2.5-1.16c.15.01.26.04.34.06ZM584.33 66.05c-.69 0-1.3-.11-1.86-.33a4.1 4.1 0 0 1-2.29-2.38c-.2-.55-.3-1.14-.3-1.77v-.34c0-.73.1-1.38.31-1.97.21-.59.5-1.09.88-1.5.38-.43.82-.75 1.34-.97a4.16 4.16 0 0 1 1.67-.34c.66 0 1.24.11 1.73.34.5.22.91.53 1.24.94.33.4.57.87.73 1.43.17.55.25 1.16.25 1.83v.88h-7.15v-1.48h5.11v-.16a2.9 2.9 0 0 0-.22-1.05 1.77 1.77 0 0 0-.6-.79c-.28-.2-.65-.3-1.1-.3a1.8 1.8 0 0 0-1.57.85c-.18.28-.32.6-.42 1-.09.38-.13.8-.13 1.29v.34c0 .4.05.78.16 1.13.11.34.28.64.5.9.21.25.47.46.78.6a2.85 2.85 0 0 0 3.39-.93l1.09 1.05a3.89 3.89 0 0 1-1.95 1.48c-.46.17-1 .25-1.6.25ZM330.96 76.42v12.46h-2.13V76.42h2.13Zm3.91 0v1.72h-9.91v-1.72h9.91ZM340.87 87.02v-4.41c0-.33-.06-.62-.18-.86s-.3-.42-.55-.55c-.24-.13-.54-.2-.9-.2-.34 0-.63.06-.88.17-.24.12-.43.27-.57.46-.14.2-.2.42-.2.66h-2.06c0-.36.09-.72.27-1.06.17-.34.43-.65.77-.91.33-.27.73-.48 1.2-.64.47-.15 1-.23 1.58-.23.7 0 1.3.12 1.84.35.55.24.97.6 1.28 1.06.31.47.47 1.06.47 1.77v4.11c0 .42.03.8.08 1.14.07.33.16.62.27.86v.14h-2.11c-.1-.22-.18-.5-.23-.85a6.82 6.82 0 0 1-.08-1Zm.3-3.77.01 1.28h-1.48c-.38 0-.71.03-1 .1-.3.08-.54.18-.73.32a1.34 1.34 0 0 0-.58 1.15c0 .25.05.47.17.68.11.2.28.35.5.47a2.27 2.27 0 0 0 2.66-.73c.18-.26.27-.5.29-.73l.66.92a3.64 3.64 0 0 1-1 1.52 3.23 3.23 0 0 1-2.21.82c-.6 0-1.15-.12-1.62-.36a2.87 2.87 0 0 1-1.11-.98 2.95 2.95 0 0 1-.13-2.71c.19-.39.46-.7.82-.96.37-.26.81-.45 1.33-.58.53-.14 1.13-.2 1.8-.2h1.62ZM347.66 75.74v13.14h-2.07V75.74h2.07Zm5.75 3.88-4.03 4.47-2.2 2.26-.55-1.75 1.67-2.06 2.62-2.92h2.49Zm-2.05 9.26-3-4.35 1.3-1.44 4.1 5.79h-2.4ZM357.41 79.62v9.26h-2.07v-9.26h2.07Zm-2.2-2.43c0-.3.1-.57.3-.77.21-.22.5-.32.88-.32.36 0 .65.1.86.32.21.2.32.46.32.77s-.11.57-.32.77c-.21.21-.5.31-.87.31s-.66-.1-.87-.3c-.2-.21-.3-.47-.3-.78ZM362.2 81.6v7.28h-2.06v-9.26h1.94l.12 1.98Zm-.37 2.31h-.66c0-.66.1-1.27.27-1.81.18-.55.43-1.02.75-1.42a3.33 3.33 0 0 1 2.67-1.23c.45 0 .85.07 1.2.2.37.11.68.3.94.58.26.28.46.63.6 1.07.14.43.2.97.2 1.6v5.98h-2.07v-5.99c0-.44-.06-.8-.2-1.05a1.1 1.1 0 0 0-.55-.56 2.09 2.09 0 0 0-.9-.17 2 2 0 0 0-1.66.83c-.18.26-.33.56-.43.9-.1.33-.16.69-.16 1.07ZM376.32 79.62h1.88v9a4 4 0 0 1-.53 2.13 3.4 3.4 0 0 1-1.48 1.32 4.97 4.97 0 0 1-3.38.3c-.43-.1-.85-.26-1.25-.49a3.1 3.1 0 0 1-1-.88l.96-1.21a2.99 2.99 0 0 0 3.56.87c.34-.17.6-.43.78-.76.19-.34.28-.75.28-1.23v-6.95l.18-2.1Zm-6.28 4.73v-.17c0-.7.08-1.35.25-1.92.17-.58.42-1.08.74-1.5.32-.42.7-.74 1.16-.96.46-.23.98-.35 1.55-.35.6 0 1.11.11 1.53.33.43.21.79.53 1.07.93.29.4.5.88.67 1.44.16.55.29 1.17.37 1.85v.57c-.08.66-.2 1.26-.38 1.81a5 5 0 0 1-.7 1.42 2.99 2.99 0 0 1-2.58 1.25 3.3 3.3 0 0 1-2.7-1.33 4.65 4.65 0 0 1-.73-1.5 6.56 6.56 0 0 1-.25-1.87Zm2.06-.17v.17c0 .43.04.82.12 1.19.08.36.21.68.38.96.18.28.4.5.67.65.27.16.6.23.97.23.48 0 .88-.1 1.19-.3a2 2 0 0 0 .71-.83c.18-.36.3-.75.36-1.19v-1.54c-.03-.34-.1-.65-.21-.94-.1-.3-.24-.55-.42-.77-.18-.22-.4-.39-.67-.5a2.22 2.22 0 0 0-.95-.2 1.89 1.89 0 0 0-1.64.9c-.17.28-.3.6-.38.98-.09.37-.13.76-.13 1.19ZM389.92 79.62v1.51h-5.22v-1.5h5.22Zm-3.72-2.26h2.06v8.96c0 .29.05.5.12.66.09.15.2.25.36.3.14.05.32.08.52.08a3.19 3.19 0 0 0 .72-.08l.01 1.57a5.27 5.27 0 0 1-1.37.2c-.47 0-.89-.08-1.25-.25a1.85 1.85 0 0 1-.86-.83c-.2-.38-.3-.89-.3-1.52v-9.1ZM394.03 75.74v13.14h-2.05V75.74h2.05Zm-.36 8.17H393c0-.65.1-1.24.27-1.78.18-.54.42-1.01.73-1.41a3.27 3.27 0 0 1 2.63-1.27c.46 0 .87.07 1.23.2.37.12.7.32.96.6.27.27.47.63.6 1.08.15.44.22.97.22 1.6v5.95h-2.07v-5.96c0-.45-.06-.8-.2-1.06a1.14 1.14 0 0 0-.55-.57 2.03 2.03 0 0 0-.9-.18c-.37 0-.7.08-.98.22-.28.15-.52.36-.7.61a2.8 2.8 0 0 0-.43.9c-.1.33-.14.69-.14 1.07ZM406.3 89.05c-.69 0-1.3-.11-1.86-.33a4.09 4.09 0 0 1-2.28-2.38c-.21-.55-.31-1.14-.31-1.77v-.34c0-.73.1-1.38.31-1.97.21-.59.5-1.09.88-1.5.38-.43.83-.75 1.34-.97a4.15 4.15 0 0 1 1.67-.34c.66 0 1.24.11 1.73.34.5.22.91.53 1.24.94.33.4.57.87.73 1.43.17.55.25 1.16.25 1.83v.88h-7.15v-1.48h5.11v-.16a2.88 2.88 0 0 0-.22-1.05 1.77 1.77 0 0 0-.6-.79c-.28-.2-.64-.3-1.1-.3a1.82 1.82 0 0 0-1.57.85c-.18.28-.32.6-.42 1-.09.38-.13.8-.13 1.29v.34c0 .4.05.78.16 1.13.11.34.28.64.5.9.21.25.48.46.78.6a2.86 2.86 0 0 0 3.39-.93l1.09 1.05a3.89 3.89 0 0 1-1.95 1.48c-.46.17-.99.25-1.6.25ZM427.03 76.42v12.46h-2.15l-5.58-8.92v8.92h-2.15V76.42h2.15l5.6 8.94v-8.94h2.13ZM432.22 76.42v12.46h-2.15V76.42h2.15Zm5.08 5.45v1.7h-5.63v-1.7h5.63Zm.71-5.45v1.72h-6.33v-1.72H438ZM445.5 76.42v12.46h-2.12V76.42h2.13Zm3.92 0v1.72h-9.92v-1.72h9.92ZM462.54 85.67c0-.25-.04-.48-.12-.68-.08-.2-.21-.38-.4-.55-.2-.16-.47-.32-.83-.48-.34-.16-.79-.32-1.33-.49-.6-.18-1.14-.38-1.64-.6-.5-.23-.93-.5-1.3-.8a2.9 2.9 0 0 1-1.17-2.4 3.02 3.02 0 0 1 1.23-2.45c.4-.3.87-.54 1.4-.71a5.95 5.95 0 0 1 1.8-.26c.93 0 1.72.17 2.4.52.67.34 1.18.8 1.54 1.37.37.58.55 1.22.55 1.91h-2.13c0-.4-.1-.77-.27-1.08a1.8 1.8 0 0 0-.78-.76 2.84 2.84 0 0 0-1.33-.27c-.5 0-.93.08-1.27.23a1.7 1.7 0 0 0-.75.62c-.16.27-.25.56-.25.9 0 .23.06.44.17.64.1.18.27.36.5.53.21.16.5.3.83.45.34.14.73.28 1.19.41.69.2 1.29.43 1.8.68.52.25.94.53 1.29.84a3.1 3.1 0 0 1 1.02 2.42c0 .52-.1 1-.31 1.42-.21.41-.52.77-.91 1.06-.39.3-.86.52-1.4.68a6.63 6.63 0 0 1-5.16-.74 3.48 3.48 0 0 1-1.55-2.97h2.15c0 .41.07.76.2 1.04.15.29.34.52.6.7.24.18.54.31.87.4a4.37 4.37 0 0 0 2.33-.09c.34-.14.6-.34.77-.6.17-.25.26-.55.26-.89ZM468.94 81.4v11.04h-2.06V79.62h1.9l.16 1.78Zm6.04 2.77v.18c0 .67-.09 1.3-.25 1.87a4.58 4.58 0 0 1-.69 1.5c-.3.42-.67.75-1.12.98-.44.23-.96.35-1.54.35-.57 0-1.08-.1-1.51-.32a3.1 3.1 0 0 1-1.09-.91c-.3-.4-.53-.86-.72-1.39a8.87 8.87 0 0 1-.37-1.76v-.7c.07-.67.2-1.29.37-1.84a5 5 0 0 1 .72-1.43 3.07 3.07 0 0 1 2.59-1.25c.58 0 1.1.12 1.54.35.45.22.83.54 1.14.95.3.41.54.91.7 1.5.15.57.23 1.2.23 1.92Zm-2.07.18v-.18c0-.43-.04-.83-.12-1.2-.08-.36-.2-.69-.37-.97a1.84 1.84 0 0 0-1.61-.89c-.37 0-.68.07-.94.2a1.8 1.8 0 0 0-.66.5c-.18.21-.31.47-.41.76-.1.28-.17.6-.2.93v1.66c.06.41.18.79.34 1.13.17.34.4.61.7.82.31.2.7.3 1.19.3.37 0 .68-.08.94-.24.27-.16.48-.38.65-.66.17-.28.3-.61.37-.98.08-.37.12-.77.12-1.18ZM482.43 87.02v-4.41c0-.33-.06-.62-.18-.86s-.3-.42-.54-.55c-.24-.13-.54-.2-.91-.2-.34 0-.63.06-.87.17-.25.12-.44.27-.58.46-.13.2-.2.42-.2.66h-2.05c0-.36.08-.72.26-1.06.18-.34.43-.65.77-.91.34-.27.74-.48 1.2-.64.48-.15 1-.23 1.58-.23.7 0 1.31.12 1.85.35.54.24.97.6 1.27 1.06.32.47.47 1.06.47 1.77v4.11c0 .42.03.8.09 1.14.06.33.15.62.27.86v.14h-2.12c-.1-.22-.17-.5-.23-.85a6.82 6.82 0 0 1-.08-1Zm.3-3.77.02 1.28h-1.48c-.38 0-.72.03-1 .1-.3.08-.54.18-.74.32a1.34 1.34 0 0 0-.58 1.15c0 .25.06.47.17.68.12.2.28.35.5.47a2.27 2.27 0 0 0 2.66-.73c.18-.26.28-.5.3-.73l.66.92a3.64 3.64 0 0 1-1 1.52 3.23 3.23 0 0 1-2.22.82c-.6 0-1.14-.12-1.62-.36a2.88 2.88 0 0 1-1.1-.98 2.94 2.94 0 0 1-.13-2.71c.18-.39.46-.7.82-.96.36-.26.8-.45 1.33-.58.52-.14 1.12-.2 1.8-.2h1.61ZM490.93 87.4c.33 0 .64-.06.9-.19.28-.13.5-.32.66-.56.17-.24.27-.52.28-.83h1.95c-.01.6-.2 1.14-.53 1.63-.34.5-.8.88-1.36 1.17a4.1 4.1 0 0 1-1.88.43c-.7 0-1.32-.12-1.84-.36a3.66 3.66 0 0 1-1.31-1 4.46 4.46 0 0 1-.8-1.49 6.11 6.11 0 0 1-.25-1.8v-.3c0-.63.09-1.23.26-1.79.18-.56.44-1.06.79-1.49.34-.43.78-.76 1.3-1a4.3 4.3 0 0 1 1.84-.37c.75 0 1.4.15 1.95.45.56.29 1 .7 1.32 1.22.33.52.5 1.12.5 1.81h-1.94c-.01-.34-.1-.65-.25-.92a1.7 1.7 0 0 0-.63-.67 1.8 1.8 0 0 0-.97-.24c-.42 0-.76.08-1.04.25-.27.17-.48.4-.64.69-.15.28-.26.6-.33.96-.06.36-.1.72-.1 1.1v.3c0 .39.04.76.1 1.12.06.36.17.68.32.96.16.28.38.51.65.68a2 2 0 0 0 1.05.25ZM500.87 89.05c-.69 0-1.3-.11-1.86-.33a4.1 4.1 0 0 1-2.28-2.38c-.2-.55-.31-1.14-.31-1.77v-.34c0-.73.1-1.38.31-1.97.22-.59.51-1.09.89-1.5a3.8 3.8 0 0 1 1.33-.97 4.15 4.15 0 0 1 1.67-.34c.66 0 1.24.11 1.74.34.5.22.9.53 1.23.94.33.4.57.87.73 1.43.17.55.25 1.16.25 1.83v.88h-7.15v-1.48h5.12v-.16a2.88 2.88 0 0 0-.23-1.05 1.77 1.77 0 0 0-.6-.79c-.28-.2-.64-.3-1.1-.3a1.82 1.82 0 0 0-1.57.85c-.18.28-.32.6-.41 1-.1.38-.14.8-.14 1.29v.34c0 .4.05.78.16 1.13.12.34.28.64.5.9.21.25.48.46.79.6a2.86 2.86 0 0 0 3.39-.93l1.08 1.05a3.89 3.89 0 0 1-1.95 1.48c-.46.17-.99.25-1.6.25ZM516.73 87.02v-4.41c0-.33-.06-.62-.18-.86s-.3-.42-.54-.55c-.24-.13-.54-.2-.91-.2-.34 0-.63.06-.87.17a1.4 1.4 0 0 0-.58.46c-.13.2-.2.42-.2.66h-2.05c0-.36.08-.72.26-1.06.18-.34.44-.65.77-.91.34-.27.74-.48 1.2-.64.48-.15 1-.23 1.58-.23.7 0 1.31.12 1.85.35.54.24.97.6 1.27 1.06.32.47.47 1.06.47 1.77v4.11c0 .42.03.8.09 1.14.06.33.15.62.26.86v.14h-2.1c-.1-.22-.18-.5-.24-.85a6.96 6.96 0 0 1-.08-1Zm.3-3.77.02 1.28h-1.48c-.38 0-.72.03-1 .1-.3.08-.54.18-.74.32a1.34 1.34 0 0 0-.58 1.15c0 .25.06.47.17.68.12.2.28.35.5.47a2.27 2.27 0 0 0 2.66-.73c.18-.26.28-.5.3-.73l.66.92a3.67 3.67 0 0 1-1 1.52 3.22 3.22 0 0 1-2.22.82c-.6 0-1.14-.12-1.62-.36a2.88 2.88 0 0 1-1.1-.98 2.95 2.95 0 0 1-.13-2.71c.18-.39.46-.7.82-.96.36-.26.8-.45 1.33-.58.52-.14 1.12-.2 1.8-.2h1.61ZM523.5 81.6v7.28h-2.07v-9.26h1.94l.12 1.98Zm-.38 2.31h-.66c0-.66.1-1.27.27-1.81.18-.55.43-1.02.75-1.42a3.33 3.33 0 0 1 2.67-1.23c.45 0 .85.07 1.2.2.37.11.68.3.94.58.26.28.46.63.6 1.07.14.43.2.97.2 1.6v5.98h-2.07v-5.99c0-.44-.06-.8-.2-1.05a1.1 1.1 0 0 0-.55-.56 2.09 2.09 0 0 0-.9-.17 2 2 0 0 0-1.66.83 3.66 3.66 0 0 0-.59 1.97ZM537.33 86.96V75.74h2.07v13.14h-1.87l-.2-1.92Zm-6.02-2.6v-.18c0-.7.08-1.35.25-1.92.16-.58.4-1.08.72-1.5a3.16 3.16 0 0 1 2.67-1.3c.55 0 1.04.1 1.47.32.42.21.78.53 1.07.93.3.4.54.88.72 1.44.17.55.3 1.17.37 1.85v.57a9.3 9.3 0 0 1-.38 1.81 4.87 4.87 0 0 1-.7 1.42 3.06 3.06 0 0 1-2.57 1.25 3.24 3.24 0 0 1-2.65-1.33 4.62 4.62 0 0 1-.72-1.5 6.74 6.74 0 0 1-.25-1.87Zm2.06-.18v.17c0 .43.04.82.11 1.19.08.36.2.68.37.96.17.28.38.5.64.65.27.16.59.23.96.23.47 0 .85-.1 1.15-.3.3-.21.54-.49.72-.83.17-.36.3-.75.35-1.19v-1.54c-.03-.34-.1-.65-.21-.94a2.5 2.5 0 0 0-.42-.77c-.18-.22-.4-.39-.66-.5a2.06 2.06 0 0 0-.91-.2c-.38 0-.7.08-.96.24-.26.16-.48.38-.65.66-.17.28-.29.6-.37.98-.08.37-.12.76-.12 1.19ZM551.14 79.62v1.51h-5.22v-1.5h5.22Zm-3.72-2.26h2.07v8.96c0 .29.04.5.12.66.08.15.2.25.35.3.14.05.32.08.52.08a3.17 3.17 0 0 0 .73-.08v1.57a5.22 5.22 0 0 1-1.36.2c-.48 0-.9-.08-1.26-.25a1.85 1.85 0 0 1-.86-.83c-.2-.38-.3-.89-.3-1.52v-9.1ZM555.25 75.74v13.14h-2.05V75.74h2.05Zm-.36 8.17h-.66c0-.65.09-1.24.26-1.78.18-.54.42-1.01.74-1.41a3.28 3.28 0 0 1 2.62-1.27c.46 0 .87.07 1.23.2.37.12.7.32.96.6.27.27.47.63.6 1.08.15.44.22.97.22 1.6v5.95h-2.07v-5.96c0-.45-.06-.8-.2-1.06a1.14 1.14 0 0 0-.55-.57 2.03 2.03 0 0 0-.9-.18c-.37 0-.7.08-.98.22-.28.15-.51.36-.7.61a2.8 2.8 0 0 0-.43.9c-.1.33-.14.69-.14 1.07ZM567.52 89.05c-.69 0-1.3-.11-1.86-.33a4.1 4.1 0 0 1-2.28-2.38c-.2-.55-.31-1.14-.31-1.77v-.34c0-.73.1-1.38.32-1.97.2-.59.5-1.09.88-1.5.37-.43.82-.75 1.33-.97a4.16 4.16 0 0 1 1.67-.34c.66 0 1.24.11 1.74.34.5.22.9.53 1.23.94.33.4.57.87.73 1.43.17.55.25 1.16.25 1.83v.88h-7.15v-1.48h5.12v-.16a2.9 2.9 0 0 0-.23-1.05 1.77 1.77 0 0 0-.6-.79c-.28-.2-.64-.3-1.1-.3a1.8 1.8 0 0 0-1.57.85c-.18.28-.32.6-.41 1-.1.38-.14.8-.14 1.29v.34c0 .4.05.78.16 1.13.12.34.28.64.5.9.22.25.48.46.79.6a2.85 2.85 0 0 0 3.39-.93l1.08 1.05a3.9 3.9 0 0 1-1.95 1.48c-.46.17-.99.25-1.6.25ZM585.73 84.83h2.14c-.07.81-.3 1.54-.69 2.18a4.08 4.08 0 0 1-1.63 1.5c-.7.36-1.55.54-2.56.54a4.55 4.55 0 0 1-3.66-1.6 5.35 5.35 0 0 1-1.01-1.85 8.07 8.07 0 0 1-.34-2.43v-1.03c0-.9.12-1.7.35-2.43.24-.72.58-1.34 1.02-1.86.45-.52.98-.91 1.6-1.19a5.23 5.23 0 0 1 2.12-.4c.99 0 1.83.18 2.51.54.69.37 1.22.87 1.6 1.52.38.64.61 1.38.7 2.21h-2.14c-.06-.54-.19-1-.38-1.38a1.94 1.94 0 0 0-.84-.87c-.37-.2-.85-.3-1.45-.3-.5 0-.92.08-1.29.27-.36.18-.66.45-.91.8-.25.35-.43.8-.56 1.31-.12.51-.18 1.1-.18 1.76v1.05c0 .63.06 1.2.17 1.72.11.5.28.94.51 1.3.23.37.53.65.89.85.36.2.79.3 1.3.3.6 0 1.1-.1 1.47-.3.38-.18.67-.47.87-.84.2-.37.33-.83.39-1.37ZM592.17 81.39v7.49h-2.06v-9.26h1.97l.09 1.77Zm2.83-1.83-.02 1.92a4.03 4.03 0 0 0-1.77.09 1.76 1.76 0 0 0-1.08 1.1c-.1.25-.16.55-.17.87l-.48.04c0-.59.06-1.12.18-1.62.11-.5.28-.93.5-1.3a2.34 2.34 0 0 1 2.5-1.16c.16.01.27.04.34.06ZM599.62 87.87l2.51-8.25h2.21l-3.71 10.67c-.09.23-.2.48-.34.75-.13.26-.31.52-.53.76-.22.24-.5.44-.82.59-.32.15-.72.23-1.18.23a8.62 8.62 0 0 1-1-.15V90.9a7.68 7.68 0 0 0 .4.02c.35 0 .63-.04.86-.12.23-.08.41-.21.56-.4.14-.18.27-.42.37-.73l.67-1.8Zm-1.42-8.25 2.2 6.93.37 2.18-1.43.36-3.37-9.47h2.23ZM608.08 81.4v11.04h-2.06V79.62h1.9l.16 1.78Zm6.03 2.77v.18c0 .67-.08 1.3-.24 1.87a4.58 4.58 0 0 1-.7 1.5c-.3.42-.67.75-1.11.98-.45.23-.96.35-1.54.35-.58 0-1.08-.1-1.52-.32a3.1 3.1 0 0 1-1.08-.91c-.3-.4-.54-.86-.72-1.39a8.87 8.87 0 0 1-.38-1.76v-.7c.08-.67.2-1.29.38-1.84a5 5 0 0 1 .72-1.43 3.06 3.06 0 0 1 2.58-1.25c.58 0 1.1.12 1.55.35.45.22.83.54 1.14.95.3.41.53.91.69 1.5.15.57.23 1.2.23 1.92Zm-2.06.18v-.18c0-.43-.04-.83-.12-1.2-.08-.36-.2-.69-.38-.97a1.84 1.84 0 0 0-1.6-.89c-.37 0-.69.07-.95.2a1.8 1.8 0 0 0-.66.5 2.4 2.4 0 0 0-.4.76c-.1.28-.17.6-.21.93v1.66c.07.41.18.79.35 1.13.16.34.4.61.7.82.3.2.7.3 1.18.3.37 0 .69-.08.95-.24.26-.16.48-.38.64-.66.17-.28.3-.61.38-.98.08-.37.12-.77.12-1.18ZM620.6 79.62v1.51h-5.23v-1.5h5.22Zm-3.72-2.26h2.06v8.96c0 .29.04.5.12.66.09.15.2.25.35.3.15.05.33.08.52.08a3.17 3.17 0 0 0 .73-.08l.01 1.57a5.27 5.27 0 0 1-1.37.2c-.47 0-.9-.08-1.26-.25a1.85 1.85 0 0 1-.85-.83c-.2-.38-.3-.89-.3-1.52v-9.1ZM622.07 84.35v-.2c0-.66.1-1.28.3-1.85.19-.57.47-1.07.83-1.5.37-.42.82-.75 1.35-.99a4.4 4.4 0 0 1 1.82-.36c.68 0 1.28.12 1.81.36.54.24.99.57 1.36 1 .37.42.65.92.85 1.5.2.56.29 1.18.29 1.85v.2c0 .66-.1 1.28-.3 1.85a3.92 3.92 0 0 1-4 2.84 3.92 3.92 0 0 1-3.17-1.34 4.44 4.44 0 0 1-.85-1.5c-.19-.57-.29-1.19-.29-1.86Zm2.06-.2v.2c0 .42.05.81.13 1.19.09.37.22.7.4.97.19.28.42.5.7.66.3.16.63.24 1.02.24a1.97 1.97 0 0 0 1.7-.9c.18-.28.31-.6.4-.97.1-.38.14-.77.14-1.19v-.2c0-.4-.05-.79-.14-1.16-.09-.37-.22-.7-.41-.98a1.97 1.97 0 0 0-1.7-.91c-.4 0-.73.08-1.01.24-.28.16-.51.39-.7.67-.18.29-.31.61-.4.98-.08.37-.13.76-.13 1.17ZM328.96 109.08l2.48-9.66h1.3l-.14 2.5-2.66 9.96h-1.35l.37-2.8Zm-1.85-9.66 2 9.59.19 2.87h-1.44l-2.88-12.46h2.13Zm8.45 9.56 1.98-9.56h2.14l-2.88 12.46h-1.44l.2-2.9Zm-2.31-9.56 2.45 9.69.36 2.77h-1.35l-2.6-9.97-.15-2.49h1.29ZM340.89 107.36v-.2c0-.67.1-1.29.29-1.86.2-.57.47-1.07.83-1.5.38-.42.83-.75 1.36-.99a4.4 4.4 0 0 1 1.81-.36c.68 0 1.28.12 1.81.36.54.24 1 .57 1.36 1 .38.42.66.92.85 1.5.2.56.3 1.18.3 1.85v.2c0 .66-.1 1.28-.3 1.85-.2.57-.47 1.07-.85 1.5a3.93 3.93 0 0 1-3.15 1.34 3.93 3.93 0 0 1-3.17-1.34 4.43 4.43 0 0 1-.85-1.5c-.2-.57-.3-1.19-.3-1.85Zm2.06-.2v.2c0 .41.04.8.13 1.17.08.38.22.7.4.98.18.28.41.5.7.66.28.16.62.24 1.02.24a1.97 1.97 0 0 0 1.7-.9c.17-.28.3-.6.4-.98.08-.36.13-.76.13-1.17v-.2c0-.41-.05-.8-.14-1.16-.08-.38-.22-.7-.4-.99a1.96 1.96 0 0 0-1.71-.92c-.39 0-.72.09-1 .25-.29.16-.52.39-.7.67-.19.29-.32.61-.4.98-.09.37-.13.76-.13 1.17ZM353.78 104.39v7.49h-2.06v-9.26h1.96l.1 1.77Zm2.83-1.83-.02 1.92a4.45 4.45 0 0 0-.84-.07c-.35 0-.66.05-.93.16a1.75 1.75 0 0 0-1.09 1.1c-.1.25-.15.55-.17.87l-.47.04c0-.58.06-1.12.17-1.62.12-.5.29-.93.52-1.3.23-.39.52-.68.87-.9a2.34 2.34 0 0 1 1.63-.27l.33.07ZM360.6 98.74v13.14h-2.08V98.74h2.07ZM368.99 109.96V98.74h2.06v13.14h-1.87l-.2-1.92Zm-6.03-2.6v-.19c0-.7.09-1.34.25-1.91.17-.58.4-1.08.72-1.5a3.16 3.16 0 0 1 2.67-1.3c.56 0 1.05.1 1.47.32.42.22.78.53 1.08.93.3.4.53.88.7 1.44.19.55.31 1.17.38 1.85v.57c-.07.66-.2 1.27-.37 1.81a4.88 4.88 0 0 1-.71 1.42 3.06 3.06 0 0 1-2.57 1.25 3.25 3.25 0 0 1-2.65-1.33 4.63 4.63 0 0 1-.72-1.5 6.74 6.74 0 0 1-.25-1.86Zm2.06-.19v.19c0 .42.04.81.12 1.17.07.37.2.7.36.97.17.28.38.5.64.65.27.16.6.23.96.23a2 2 0 0 0 1.16-.3c.3-.21.54-.49.7-.83.19-.36.3-.75.37-1.19v-1.54a3.8 3.8 0 0 0-.22-.94c-.1-.3-.24-.55-.42-.77-.17-.22-.4-.39-.65-.5a2.06 2.06 0 0 0-.92-.2c-.38 0-.7.08-.96.24-.26.16-.48.38-.65.66-.16.28-.29.6-.37.98-.08.37-.12.76-.12 1.19Z" fill="#D1D4DC"/><path d="M328.73 131.08v8.34h-1.05v-7.03l-2.13.78v-.95l3.01-1.14h.17ZM337.66 138.56v.87h-5.43v-.76l2.72-3.03a11 11 0 0 0 .77-.95c.19-.26.32-.5.4-.7.07-.2.1-.42.1-.64 0-.27-.05-.52-.17-.74-.1-.22-.27-.4-.49-.54-.21-.13-.48-.2-.78-.2-.37 0-.68.08-.93.22-.24.14-.42.34-.54.6-.13.25-.19.54-.19.87h-1.05c0-.47.1-.9.3-1.28.21-.39.52-.7.92-.93.4-.23.9-.34 1.49-.34.52 0 .97.1 1.34.28.38.18.66.44.86.77a2.36 2.36 0 0 1 .18 1.9 5.74 5.74 0 0 1-.83 1.47l-.6.72-2.23 2.4h4.16ZM339.25 138.87c0-.18.06-.33.17-.45.11-.13.27-.2.49-.2.2 0 .37.07.48.2.12.12.17.27.17.45 0 .17-.06.32-.17.44-.1.12-.27.18-.48.18-.22 0-.38-.06-.5-.18a.63.63 0 0 1-.16-.44Zm0-5.04c0-.18.06-.33.17-.45.12-.13.28-.19.5-.19.2 0 .37.06.48.19.11.12.17.27.17.45s-.06.32-.17.44c-.11.13-.27.19-.49.19-.21 0-.38-.06-.49-.19a.64.64 0 0 1-.16-.44ZM348.01 136.63v.87h-6v-.62l3.72-5.76h.86l-.92 1.67-2.46 3.84h4.8Zm-1.16-5.5v8.3h-1.05v-8.3h1.05ZM350.9 134.75h.75a2 2 0 0 0 .91-.18c.25-.12.43-.3.55-.5a1.82 1.82 0 0 0 .02-1.53c-.1-.23-.27-.39-.48-.5a1.76 1.76 0 0 0-.81-.17c-.3 0-.56.06-.79.18-.22.11-.4.28-.53.5-.12.2-.19.46-.19.74h-1.05c0-.42.1-.8.32-1.15.21-.34.51-.62.9-.82.38-.21.83-.31 1.34-.31.5 0 .94.09 1.32.27.37.17.67.43.88.78.2.35.3.78.3 1.3 0 .2-.04.43-.14.67a2 2 0 0 1-.45.66c-.2.2-.46.38-.79.5-.32.14-.7.2-1.16.2h-.9v-.63Zm0 .87V135h.9c.53 0 .97.06 1.31.19.35.12.62.29.82.5.2.2.34.44.42.69a2.52 2.52 0 0 1-.07 1.77c-.13.3-.32.56-.56.77-.23.2-.51.36-.83.47a3.3 3.3 0 0 1-2.06 0c-.32-.1-.6-.25-.84-.44a2.08 2.08 0 0 1-.78-1.71h1.06c0 .29.06.54.18.76.13.22.32.38.55.5.24.12.52.18.85.18.32 0 .6-.05.83-.16.23-.12.42-.29.54-.52.13-.22.2-.51.2-.86 0-.34-.08-.63-.22-.85a1.26 1.26 0 0 0-.62-.5 2.39 2.39 0 0 0-.93-.16h-.75ZM359.76 135.27c0-.18.05-.33.16-.45.12-.13.28-.2.49-.2.21 0 .37.07.48.2.12.12.18.27.18.45 0 .17-.06.32-.18.44-.1.12-.27.18-.48.18-.21 0-.38-.06-.49-.18a.64.64 0 0 1-.16-.44ZM366.96 131.12h1.07l2.72 6.77 2.71-6.77h1.07l-3.37 8.3h-.84l-3.36-8.3Zm-.35 0h.94l.16 5.07v3.24h-1.1v-8.3Zm7.32 0h.94v8.3h-1.09v-3.23l.15-5.07ZM380.68 138.37v-3.18c0-.24-.05-.45-.15-.63a.96.96 0 0 0-.43-.42c-.2-.1-.44-.15-.72-.15-.27 0-.5.05-.7.14-.2.09-.36.2-.47.36a.79.79 0 0 0-.17.48H377c0-.22.05-.44.17-.66.11-.22.28-.41.49-.59.22-.18.47-.32.77-.42.3-.1.65-.16 1.02-.16.45 0 .84.08 1.19.23.34.15.61.38.8.69.2.3.3.69.3 1.15v2.87c0 .2.02.42.05.66.04.23.1.43.17.6v.09h-1.1c-.06-.13-.1-.29-.13-.49s-.04-.4-.04-.57Zm.18-2.69.01.75h-1.07c-.3 0-.56.02-.8.07-.24.04-.43.12-.6.21a.95.95 0 0 0-.49.85c0 .2.05.38.14.54.08.16.22.28.4.38a1.74 1.74 0 0 0 2.1-.57c.14-.2.22-.4.23-.58l.45.51c-.03.16-.1.34-.22.53a2.49 2.49 0 0 1-2.07 1.17c-.42 0-.78-.08-1.1-.25a1.73 1.73 0 0 1-.99-1.59c0-.32.07-.61.2-.86.13-.26.31-.47.56-.64.24-.17.53-.3.88-.38.34-.1.72-.14 1.14-.14h1.23ZM384.84 134.22v5.2h-1.06v-6.16h1.03l.03.96Zm1.92-1v.98a2.87 2.87 0 0 0-.51-.04c-.25 0-.46.03-.65.11s-.34.18-.47.32c-.13.14-.24.3-.31.49s-.12.4-.14.62l-.3.17c0-.38.04-.73.1-1.05.08-.33.2-.62.36-.87.15-.25.35-.45.59-.6a1.67 1.67 0 0 1 1.33-.13ZM396.51 134.61v1.27c0 .68-.06 1.25-.18 1.72s-.3.84-.52 1.13a2 2 0 0 1-.83.62c-.32.13-.68.19-1.08.19a3.1 3.1 0 0 1-.89-.12 2.1 2.1 0 0 1-.73-.38c-.21-.18-.4-.41-.55-.7a3.74 3.74 0 0 1-.34-1.04c-.08-.4-.12-.88-.12-1.42v-1.27c0-.68.06-1.25.18-1.7.13-.47.3-.84.53-1.12.23-.28.5-.48.82-.6.32-.12.69-.18 1.08-.18.33 0 .62.04.9.12a2.01 2.01 0 0 1 1.27 1.04c.15.28.26.62.34 1.02.08.4.12.88.12 1.42Zm-1.06 1.44v-1.62c0-.37-.02-.7-.07-.98-.04-.28-.1-.52-.18-.73-.09-.2-.2-.36-.32-.49a1.12 1.12 0 0 0-.44-.27c-.17-.06-.35-.1-.56-.1-.25 0-.47.06-.66.15-.2.1-.36.24-.5.44-.12.2-.22.47-.29.8-.07.32-.1.72-.1 1.19v1.6c0 .38.02.71.06 1 .05.28.11.53.2.74.09.2.2.37.32.5.13.14.27.24.43.3.17.06.35.1.56.1.25 0 .48-.06.67-.16.2-.1.36-.25.49-.46.13-.21.23-.48.3-.81.06-.34.1-.74.1-1.2ZM403.7 138.56v.87h-5.43v-.76l2.72-3.03c.33-.37.59-.69.77-.95a3 3 0 0 0 .39-.7c.08-.2.11-.42.11-.64 0-.27-.05-.52-.17-.74-.1-.22-.27-.4-.49-.54-.22-.13-.48-.2-.79-.2-.36 0-.67.08-.92.22-.24.14-.43.34-.55.6-.12.25-.18.54-.18.87h-1.05c0-.47.1-.9.3-1.28.2-.39.51-.7.92-.93.4-.23.9-.34 1.49-.34.52 0 .97.1 1.34.28.37.18.66.44.86.77a2.33 2.33 0 0 1 .18 1.9 5.85 5.85 0 0 1-.83 1.47l-.6.72-2.23 2.4h4.16ZM408.66 135.27c0-.18.05-.33.16-.45.12-.13.28-.2.49-.2.21 0 .38.07.49.2.1.12.17.27.17.45 0 .17-.06.32-.18.44-.1.12-.27.18-.48.18-.21 0-.37-.06-.49-.18a.64.64 0 0 1-.16-.44ZM415.51 131.12h2.75c.63 0 1.15.1 1.58.29.44.19.76.47.99.84.23.37.34.82.34 1.36a2.23 2.23 0 0 1-.9 1.84c-.28.22-.62.38-1.02.5l-.31.11h-2.58l-.01-.9h1.95c.4 0 .72-.06.98-.2.27-.14.46-.33.6-.56a1.79 1.79 0 0 0 .01-1.62 1.26 1.26 0 0 0-.6-.56c-.26-.13-.6-.2-1.03-.2h-1.65v7.4h-1.1v-8.3Zm4.86 8.3-2.02-3.76h1.14l2.05 3.7v.06h-1.17ZM425.5 139.54a2.66 2.66 0 0 1-2.63-1.78c-.14-.37-.2-.77-.2-1.2v-.24c0-.5.07-.95.22-1.34a3 3 0 0 1 .6-1 2.57 2.57 0 0 1 1.87-.84c.44 0 .82.08 1.14.23.33.15.6.36.8.64.2.27.35.59.45.96.1.36.15.76.15 1.2v.47h-4.6v-.86h3.55v-.08a2.63 2.63 0 0 0-.18-.8c-.09-.26-.24-.47-.45-.64-.21-.17-.5-.25-.86-.25a1.44 1.44 0 0 0-1.18.6c-.14.2-.25.43-.33.72-.08.29-.12.61-.12.99v.24c0 .29.04.56.12.82.08.26.2.48.35.68a1.72 1.72 0 0 0 1.36.62c.37 0 .69-.08.94-.23.26-.15.49-.35.68-.61l.64.5a2.43 2.43 0 0 1-1.27 1.02c-.3.12-.64.18-1.05.18ZM433.3 138v-4.75h1.06v6.18h-1.01l-.05-1.43Zm.2-1.3.44-.01c0 .4-.05.79-.13 1.14-.09.34-.23.64-.42.9-.19.25-.43.45-.74.6-.31.14-.69.2-1.13.2-.3 0-.57-.03-.82-.12a1.65 1.65 0 0 1-1.06-1.12c-.1-.3-.14-.64-.14-1.05v-3.99h1.06v4c0 .27.02.5.09.69.06.18.15.32.25.43.11.1.23.17.37.21.13.04.28.06.42.06.45 0 .8-.08 1.07-.25.26-.18.45-.41.56-.7.12-.3.18-.63.18-1ZM438.94 133.25v.81h-3.34v-.8h3.34Zm-2.2-1.5h1.05v6.15c0 .2.03.36.1.47.06.1.14.18.25.21.1.04.2.05.33.05a1.76 1.76 0 0 0 .5-.07v.87l-.33.07c-.14.03-.3.04-.49.04-.26 0-.5-.05-.71-.16-.22-.1-.39-.27-.52-.5a2.15 2.15 0 0 1-.19-.99v-6.13ZM443.13 139.54a2.66 2.66 0 0 1-2.63-1.78c-.14-.37-.2-.77-.2-1.2v-.24c0-.5.07-.95.21-1.34.15-.4.36-.73.61-1a2.58 2.58 0 0 1 1.87-.84c.44 0 .82.08 1.14.23.32.15.59.36.8.64.2.27.35.59.45.96.1.36.15.76.15 1.2v.47h-4.61v-.86h3.55v-.08a2.63 2.63 0 0 0-.17-.8c-.1-.26-.25-.47-.45-.64-.21-.17-.5-.25-.86-.25a1.44 1.44 0 0 0-1.18.6c-.14.2-.26.43-.34.72a3.7 3.7 0 0 0-.12.99v.24c0 .29.04.56.12.82.09.26.2.48.36.68a1.7 1.7 0 0 0 1.35.62c.38 0 .7-.08.95-.23.26-.15.49-.35.68-.61l.64.5a2.42 2.42 0 0 1-1.27 1.02c-.3.12-.65.18-1.05.18ZM448.2 134.22v5.2h-1.05v-6.16h1.03l.02.96Zm1.93-1v.98a2.9 2.9 0 0 0-.51-.04c-.25 0-.47.03-.65.11a1.34 1.34 0 0 0-.78.81c-.07.19-.12.4-.14.62l-.3.17c0-.38.04-.73.1-1.05.08-.33.2-.62.35-.87.16-.25.36-.45.6-.6a1.67 1.67 0 0 1 1.33-.13ZM455.09 137.79c0-.15-.03-.3-.1-.42-.07-.14-.2-.26-.4-.36-.2-.11-.51-.2-.92-.29a7.2 7.2 0 0 1-.93-.25c-.27-.1-.5-.22-.7-.36a1.38 1.38 0 0 1-.6-1.16c0-.25.06-.48.17-.7.1-.21.26-.4.46-.57.2-.17.44-.3.72-.4.28-.1.6-.14.94-.14.5 0 .92.09 1.27.26.35.18.62.41.8.7.19.3.28.62.28.97h-1.05a.9.9 0 0 0-.16-.5c-.1-.16-.24-.3-.44-.4-.19-.1-.42-.16-.7-.16-.29 0-.53.04-.71.13a.92.92 0 0 0-.4.34.84.84 0 0 0-.06.74c.05.09.12.17.22.25.1.07.25.14.43.2.19.07.43.13.72.2.5.11.92.25 1.25.4.32.17.57.36.72.6.17.23.25.5.25.84a1.61 1.61 0 0 1-.66 1.32c-.21.16-.46.29-.75.38-.3.09-.62.13-.98.13-.54 0-1-.1-1.38-.3-.38-.19-.66-.44-.86-.74a1.8 1.8 0 0 1-.28-.98h1.06c.01.29.1.52.25.7.15.16.33.28.56.35a2.22 2.22 0 0 0 1.38-.01c.2-.08.34-.18.45-.31.1-.14.15-.29.15-.46Z" fill="#868993"/><rect opacity=".2" x="465.36" y="126.67" width="17.52" height="17.52" rx="3" fill="#F23645"/><path d="M475.16 135.28a3.86 3.86 0 0 0-2.01-4.72c-.02 1.35-.09 2.02-.78 2.7-.67.63-2.45 1.34-2.1 3.36.24 1.38 1.51 2.37 2.8 2.7 0-.6.4-1.26 1.39-2.02.01 1.16-.1 1.62.7 2.02 1.19-.37 2.52-1.39 2.8-2.7.34-1.7-.86-2.56-1.56-3.25.23.92-.19 1.9-1.24 1.9Z" fill="#F7525F"/><rect opacity=".2" x="484.83" y="126.67" width="17.52" height="17.52" rx="3" fill="#7C4DFF"/><path fill-rule="evenodd" clip-rule="evenodd" d="m493.59 130.56 1.48 2.86 3.38.47-2.44 2.26.57 3.17-3-1.5-2.98 1.5.57-3.17-2.45-2.26 3.38-.47 1.49-2.86Z" fill="#B388FF"/><rect opacity=".2" x="504.29" y="126.67" width="17.52" height="17.52" rx="3" fill="#FB8C00"/><path d="m514.12 135.29 1.85-3.76h-4.24l-1.6 4.38h2.13l-1.6 4.38 5.31-5h-1.86Z" fill="#FB8C00"/><path d="M309 160h350v164H309V160Z" fill="#0C0E15"/><path d="m447.54 174.16-2.75 7.57h-1.12l3.16-8.3h.73l-.02.73Zm2.3 7.57-2.75-7.56-.02-.74h.73l3.17 8.3h-1.13Zm-.14-3.07v.9h-4.67v-.9h4.67ZM456.2 180.53v-7.56h1.06v8.76h-.97l-.09-1.2Zm-4.15-1.81v-.12c0-.48.06-.9.17-1.29.12-.38.28-.72.5-1a2.19 2.19 0 0 1 1.77-.87c.39 0 .73.08 1.02.21.29.14.54.33.74.6.2.25.37.55.48.91.12.37.2.77.25 1.23v.53c-.04.45-.13.86-.25 1.22a2.9 2.9 0 0 1-.48.92c-.2.25-.45.45-.74.59a2.46 2.46 0 0 1-2.02-.04c-.3-.15-.56-.37-.77-.65a3.2 3.2 0 0 1-.5-1c-.11-.38-.17-.8-.17-1.24Zm1.06-.12v.12c0 .3.03.6.1.86.06.27.16.51.29.71.13.21.3.37.5.49.21.11.46.17.74.17.35 0 .64-.07.86-.22.23-.15.41-.34.55-.59.14-.24.25-.5.32-.8v-1.37a3.1 3.1 0 0 0-.2-.6c-.08-.2-.2-.37-.33-.53-.13-.15-.3-.27-.5-.37-.19-.09-.42-.13-.69-.13-.29 0-.53.06-.74.18-.2.12-.38.28-.51.49-.13.2-.23.45-.3.72-.06.27-.09.56-.09.87ZM461.17 180.78l1.69-5.22h1.08l-2.22 6.17h-.7l.15-.95Zm-1.4-5.22 1.73 5.25.12.92h-.7l-2.24-6.17h1.08ZM467.82 181.85c-.43 0-.82-.08-1.17-.22a2.64 2.64 0 0 1-1.46-1.57c-.13-.36-.2-.76-.2-1.2v-.24c0-.5.07-.94.22-1.34.15-.4.35-.73.6-1a2.6 2.6 0 0 1 3.02-.6c.32.15.58.36.79.63.2.28.36.6.46.96.1.37.14.77.14 1.2v.47h-4.6v-.86h3.55V178a2.63 2.63 0 0 0-.17-.8c-.1-.25-.25-.47-.46-.63-.2-.17-.5-.25-.85-.25a1.43 1.43 0 0 0-1.19.6c-.14.2-.25.43-.33.72-.08.28-.12.61-.12.98v.24c0 .3.04.57.12.83.08.26.2.48.36.67.16.2.35.35.57.46.23.11.5.17.78.17.37 0 .69-.08.95-.23.25-.16.48-.36.68-.61l.63.5a2.43 2.43 0 0 1-1.27 1.02c-.29.12-.64.18-1.05.18ZM472.9 176.53v5.2h-1.05v-6.17h1.02l.03.97Zm1.93-1v.98a2.87 2.87 0 0 0-.51-.05c-.25 0-.47.04-.66.12-.18.07-.34.18-.47.32-.13.13-.23.3-.3.49-.08.18-.13.39-.15.61l-.3.17c0-.37.04-.72.11-1.04.08-.33.2-.62.35-.87.16-.26.35-.45.6-.6a1.67 1.67 0 0 1 1.33-.13ZM479.06 175.56v.81h-3.33v-.8h3.33Zm-2.2-1.5h1.05v6.14c0 .21.03.37.1.48.06.1.14.17.25.2.1.04.21.06.33.06a1.75 1.75 0 0 0 .5-.07v.86a2.62 2.62 0 0 1-.82.12c-.25 0-.5-.06-.7-.16-.23-.1-.4-.27-.53-.51a2.16 2.16 0 0 1-.19-.98v-6.14ZM481.83 175.56v6.17h-1.06v-6.17h1.06Zm-1.14-1.63c0-.18.06-.32.16-.44s.26-.18.46-.18.36.06.47.18c.1.12.16.26.16.44a.6.6 0 0 1-.16.42c-.1.11-.26.17-.46.17-.21 0-.37-.06-.47-.17a.62.62 0 0 1-.16-.42ZM487.51 180.1a.9.9 0 0 0-.1-.43.87.87 0 0 0-.4-.35c-.2-.12-.51-.21-.92-.3a7.14 7.14 0 0 1-.93-.25c-.27-.1-.5-.22-.7-.36a1.38 1.38 0 0 1-.6-1.16c0-.24.06-.47.17-.69.1-.22.26-.4.46-.58.2-.16.44-.3.72-.39.28-.1.6-.14.94-.14.5 0 .92.09 1.27.26s.62.4.8.7c.19.3.28.61.28.97h-1.05a.91.91 0 0 0-.16-.5c-.1-.16-.24-.3-.44-.4-.19-.11-.42-.16-.7-.16-.29 0-.53.04-.71.13a.9.9 0 0 0-.4.34.84.84 0 0 0-.06.74c.05.09.12.17.22.25.1.07.25.13.43.2.19.06.43.13.72.2.5.1.92.25 1.25.4.32.16.57.36.73.6.16.22.24.5.24.84a1.61 1.61 0 0 1-.66 1.32c-.2.16-.46.28-.75.38-.3.08-.62.13-.98.13-.54 0-1-.1-1.38-.3-.38-.19-.66-.44-.85-.75-.2-.3-.3-.63-.3-.97h1.07c.01.29.1.52.25.69.15.16.33.28.56.36a2.18 2.18 0 0 0 1.38-.01 1 1 0 0 0 .45-.32c.1-.13.15-.28.15-.45ZM492.9 181.85c-.43 0-.82-.08-1.17-.22a2.63 2.63 0 0 1-1.46-1.57c-.14-.36-.2-.76-.2-1.2v-.24c0-.5.07-.94.22-1.34.15-.4.35-.73.6-1a2.6 2.6 0 0 1 3.01-.6c.33.15.6.36.8.63.2.28.36.6.45.96.1.37.15.77.15 1.2v.47h-4.6v-.86h3.55V178a2.63 2.63 0 0 0-.17-.8c-.1-.25-.25-.47-.46-.63-.2-.17-.5-.25-.86-.25a1.43 1.43 0 0 0-1.18.6c-.14.2-.25.43-.33.72a3.7 3.7 0 0 0-.12.98v.24c0 .3.04.57.12.83.08.26.2.48.36.67a1.7 1.7 0 0 0 1.35.63c.37 0 .69-.08.94-.23.26-.16.49-.36.68-.61l.64.5a2.42 2.42 0 0 1-1.27 1.02c-.29.12-.64.18-1.05.18ZM497.97 176.79v4.94h-1.06v-6.17h1l.06 1.23Zm-.21 1.62-.5-.01c.01-.43.06-.81.17-1.17.1-.36.26-.68.47-.94.21-.27.47-.47.79-.62a2.5 2.5 0 0 1 1.08-.22c.29 0 .56.04.8.12a1.61 1.61 0 0 1 1.05 1.06c.1.27.15.6.15 1v4.1h-1.06v-4.06c0-.32-.06-.58-.16-.77a.95.95 0 0 0-.46-.43c-.2-.09-.43-.13-.7-.13-.3 0-.57.05-.78.16-.2.11-.38.26-.5.46-.13.2-.22.41-.27.67-.06.24-.08.5-.08.78Zm4-.58-.71.22c0-.34.06-.67.16-.98.11-.3.27-.59.48-.83.2-.24.46-.44.77-.58.3-.14.65-.21 1.04-.21.33 0 .62.04.88.13s.47.22.65.4c.18.18.31.41.4.7.1.28.14.61.14 1v4.05h-1.06v-4.06c0-.35-.06-.62-.17-.8a.86.86 0 0 0-.45-.41c-.2-.08-.43-.12-.7-.12-.23 0-.44.04-.62.12a1.45 1.45 0 0 0-.73.8c-.05.18-.09.37-.09.57ZM510.12 181.85c-.43 0-.82-.08-1.17-.22a2.63 2.63 0 0 1-1.47-1.57c-.13-.36-.2-.76-.2-1.2v-.24c0-.5.08-.94.22-1.34.15-.4.35-.73.6-1a2.6 2.6 0 0 1 3.02-.6c.32.15.59.36.8.63.2.28.35.6.45.96.1.37.15.77.15 1.2v.47h-4.61v-.86h3.55V178a2.63 2.63 0 0 0-.17-.8c-.1-.25-.25-.47-.46-.63-.2-.17-.49-.25-.85-.25a1.43 1.43 0 0 0-1.18.6c-.15.2-.26.43-.34.72-.08.28-.12.61-.12.98v.24c0 .3.04.57.12.83.09.26.2.48.36.67.16.2.35.35.58.46.23.11.49.17.77.17.38 0 .7-.08.95-.23.26-.16.49-.36.68-.61l.64.5a3 3 0 0 1-.51.58c-.2.18-.46.33-.76.45-.3.11-.65.17-1.05.17ZM515.2 176.88v4.85h-1.06v-6.17h1l.05 1.32Zm-.26 1.53-.44-.01c0-.43.07-.81.2-1.17.11-.36.28-.68.5-.94a2.3 2.3 0 0 1 1.81-.84c.3 0 .58.04.82.12.25.08.45.21.63.4.17.17.3.4.4.69.09.28.13.62.13 1.03v4.04h-1.06v-4.05c0-.33-.05-.58-.14-.78a.88.88 0 0 0-.42-.43 1.5 1.5 0 0 0-.67-.13 1.56 1.56 0 0 0-1.27.62 2.29 2.29 0 0 0-.49 1.45ZM523.57 175.56v.81h-3.34v-.8h3.34Zm-2.21-1.5h1.05v6.14c0 .21.04.37.1.48.07.1.15.17.25.2.1.04.22.06.33.06a1.76 1.76 0 0 0 .5-.07v.86a2.62 2.62 0 0 1-.81.12c-.26 0-.5-.06-.71-.16-.22-.1-.4-.27-.52-.51a2.14 2.14 0 0 1-.19-.98v-6.14Z" fill="#787B86"/><path transform="translate(328 195)" fill="url(#tl3i40pjc)" d="M0 0h311v97H0z"/><path d="m449.23 261 14.3-33.17h6.02L483.9 261h-7.1l-3.23-7.57h-14.1l-3.23 7.57h-7Zm12.7-13.5h9.17l-4.58-10.8-4.58 10.8Zm26.13 13.5v-33.17H499c9.53 0 17.05 7.33 17.05 16.58 0 9.25-7.52 16.59-17.05 16.59h-10.94Zm6.78-6.21H499c6.12 0 10.23-4.63 10.23-10.38 0-5.74-4.11-10.37-10.23-10.37h-4.16v20.75Z" fill="#fff"/><path fill="url(#ul3i40pjc)" d="M309-1h350v325H309z" style="mix-blend-mode:plus-lighter"/></g><path transform="rotate(-90 -1 323)" fill="url(#vl3i40pjc)" d="M-1 323h31v729H-1z"/><path transform="matrix(0 1 1 0 0 0)" fill="url(#wl3i40pjc)" d="M0 0h31v728H0z"/></g><defs><linearGradient id="cl3i40pjc" x1="47" y1="293.5" x2="407" y2="293.5" gradientUnits="userSpaceOnUse"><stop stop-color="#00BCE6"/><stop offset=".5" stop-color="#2962FF"/><stop offset="1" stop-color="#D500F9"/></linearGradient><linearGradient id="dl3i40pjc" x1="49" y1="350.5" x2="405" y2="350.5" gradientUnits="userSpaceOnUse"><stop stop-color="#00BCE6"/><stop offset=".5" stop-color="#2962FF"/><stop offset="1" stop-color="#D500F9"/></linearGradient><linearGradient id="el3i40pjc" x1="49" y1="350.5" x2="405" y2="350.5" gradientUnits="userSpaceOnUse"><stop stop-color="#00BCE6"/><stop offset=".5" stop-color="#2962FF"/><stop offset="1" stop-color="#D500F9"/></linearGradient><linearGradient id="il3i40pjc" x1="89.25" y1="139.61" x2="107.31" y2="160.36" gradientUnits="userSpaceOnUse"><stop stop-color="#1A1E21"/><stop offset="1" stop-color="#06060A"/></linearGradient><linearGradient id="ll3i40pjc" x1="265" y1="11" x2="265" y2="1036" gradientUnits="userSpaceOnUse"><stop stop-color="#191919"/><stop offset="1" stop-color="#191919" stop-opacity="0"/></linearGradient><linearGradient id="ol3i40pjc" x1="307" y1="161.5" x2="661" y2="161.5" gradientUnits="userSpaceOnUse"><stop stop-color="#00BCE6"/><stop offset=".5" stop-color="#2962FF"/><stop offset="1" stop-color="#D500F9"/></linearGradient><linearGradient id="pl3i40pjc" x1="309" y1="186" x2="659" y2="186" gradientUnits="userSpaceOnUse"><stop stop-color="#00BCE6"/><stop offset=".5" stop-color="#2962FF"/><stop offset="1" stop-color="#D500F9"/></linearGradient><linearGradient id="ql3i40pjc" x1="309" y1="186" x2="659" y2="186" gradientUnits="userSpaceOnUse"><stop stop-color="#00BCE6"/><stop offset=".5" stop-color="#2962FF"/><stop offset="1" stop-color="#D500F9"/></linearGradient><linearGradient id="sl3i40pjc" x1="327.83" y1="25.61" x2="345.89" y2="46.36" gradientUnits="userSpaceOnUse"><stop stop-color="#1A1E21"/><stop offset="1" stop-color="#06060A"/></linearGradient><linearGradient id="tl3i40pjc" x1="184.99" y1="-50.08" x2="185.04" y2="120.37" gradientUnits="userSpaceOnUse"><stop/><stop offset=".53" stop-color="#4959EB"/><stop offset="1" stop-color="#B946FF"/></linearGradient><linearGradient id="ul3i40pjc" x1="484" y1="-1" x2="484" y2="324" gradientUnits="userSpaceOnUse"><stop stop-color="#191919"/><stop offset="1" stop-color="#191919" stop-opacity="0"/></linearGradient><linearGradient id="vl3i40pjc" x1="-1" y1="683.04" x2="32.21" y2="683.04" gradientUnits="userSpaceOnUse"><stop/><stop offset="1" stop-opacity="0"/></linearGradient><linearGradient id="wl3i40pjc" x1="0" y1="359.54" x2="33.21" y2="359.54" gradientUnits="userSpaceOnUse"><stop/><stop offset="1" stop-opacity="0"/></linearGradient><filter id="bl3i40pjc" x="27" y="20" width="400" height="547" filterUnits="userSpaceOnUse" color-interpolation-filters="sRGB"><feFlood flood-opacity="0" result="BackgroundImageFix"/><feBlend in="SourceGraphic" in2="BackgroundImageFix" result="shape"/><feGaussianBlur stdDeviation="10" result="effect1_foregroundBlur_10658_74535"/></filter><filter id="fl3i40pjc" x="-53.12" y="-60.12" width="513.44" height="942.44" filterUnits="userSpaceOnUse" color-interpolation-filters="sRGB"><feFlood flood-opacity="0" result="BackgroundImageFix"/><feColorMatrix in="SourceAlpha" values="0 0 0 0 0 0 0 0 0 0 0 0 0 0 0 0 0 0 127 0" result="hardAlpha"/><feOffset dx="-20.4" dy="-20.4"/><feGaussianBlur stdDeviation="40.86"/><feComposite in2="hardAlpha" operator="out"/><feColorMatrix values="0 0 0 0 0 0 0 0 0 0 0 0 0 0 0 0 0 0 0.64 0"/><feBlend in2="BackgroundImageFix" result="effect1_dropShadow_10658_74535"/><feBlend in="SourceGraphic" in2="effect1_dropShadow_10658_74535" result="shape"/></filter><filter id="ml3i40pjc" x="176" y="-80" width="631" height="483" filterUnits="userSpaceOnUse" color-interpolation-filters="sRGB"><feFlood flood-opacity="0" result="BackgroundImageFix"/><feBlend in="SourceGraphic" in2="BackgroundImageFix" result="shape"/><feGaussianBlur stdDeviation="40" result="effect1_foregroundBlur_10658_74535"/></filter><filter id="nl3i40pjc" x="287" y="-20" width="394" height="363" filterUnits="userSpaceOnUse" color-interpolation-filters="sRGB"><feFlood flood-opacity="0" result="BackgroundImageFix"/><feBlend in="SourceGraphic" in2="BackgroundImageFix" result="shape"/><feGaussianBlur stdDeviation="10" result="effect1_foregroundBlur_10658_74535"/></filter><filter id="rl3i40pjc" x="206.88" y="-313.12" width="513.44" height="942.44" filterUnits="userSpaceOnUse" color-interpolation-filters="sRGB"><feFlood flood-opacity="0" result="BackgroundImageFix"/><feColorMatrix in="SourceAlpha" values="0 0 0 0 0 0 0 0 0 0 0 0 0 0 0 0 0 0 127 0" result="hardAlpha"/><feOffset dx="-20.4" dy="-20.4"/><feGaussianBlur stdDeviation="40.86"/><feComposite in2="hardAlpha" operator="out"/><feColorMatrix values="0 0 0 0 0 0 0 0 0 0 0 0 0 0 0 0 0 0 0.64 0"/><feBlend in2="BackgroundImageFix" result="effect1_dropShadow_10658_74535"/><feBlend in="SourceGraphic" in2="effect1_dropShadow_10658_74535" result="shape"/></filter><clipPath id="al3i40pjc"><path fill="#fff" d="M0 0h728v323H0z"/></clipPath><clipPath id="gl3i40pjc"><rect x="49" y="42" width="350" height="779" rx="24" fill="#fff"/></clipPath><clipPath id="hl3i40pjc"><path fill="#fff" transform="translate(67.08 141.27)" d="M0 0h13.77v7.51H0z"/></clipPath><clipPath id="jl3i40pjc"><path fill="#fff" transform="translate(67.08 294.27)" d="M0 0h13.77v7.51H0z"/></clipPath></defs></svg>