<svg width="225" height="80" viewBox="0 0 225 80" xmlns="http://www.w3.org/2000/svg"><g clip-path="url(#adbgfrzyt)"><path d="M60.62 41.93v2.03h-3.44v9.47h-2.42v-9.47H51.3v-2.03h9.32ZM67.32 53.75c-1.65 0-2.9-.45-3.77-1.34-1.17-1.1-1.75-2.68-1.75-4.75 0-2.1.58-3.69 1.75-4.74.87-.9 2.12-1.35 3.77-1.35 1.64 0 2.9.45 3.77 1.35 1.16 1.05 1.74 2.63 1.74 4.74 0 2.07-.58 3.65-1.74 4.75-.87.9-2.13 1.34-3.77 1.34Zm2.27-3.1c.56-.7.83-1.7.83-2.99 0-1.29-.28-2.28-.84-2.99a2.73 2.73 0 0 0-2.26-1.06c-.95 0-1.71.35-2.28 1.05-.57.7-.85 1.7-.85 3s.28 2.3.85 3c.57.7 1.33 1.05 2.28 1.05.95 0 1.7-.35 2.27-1.05ZM80.04 48.92h-2.49v4.51H75.2v-11.5h5.65c.8.01 1.42.11 1.85.3.44.17.81.44 1.11.8a3.15 3.15 0 0 1 .81 2.18c0 .54-.13 1.08-.4 1.6-.28.53-.74.9-1.37 1.13.53.2.9.51 1.12.9.22.4.33 1 .33 1.8v.78c0 .52.03.88.07 1.07.06.3.2.51.43.65v.29h-2.64a5.66 5.66 0 0 1-.26-1.6l-.01-1.08c-.02-.73-.15-1.22-.41-1.46-.26-.25-.74-.37-1.44-.37Zm1.45-2.1c.48-.21.72-.64.72-1.29 0-.7-.23-1.16-.7-1.4-.25-.14-.64-.2-1.16-.2h-2.8V47h2.73c.54 0 .94-.06 1.22-.18ZM95.3 52.57a4.69 4.69 0 0 1-3.3 1.18 4.96 4.96 0 0 1-3.9-1.6c-.95-1.06-1.42-2.52-1.42-4.38 0-2 .54-3.56 1.62-4.64a4.81 4.81 0 0 1 3.57-1.42c1.94 0 3.35.63 4.25 1.9.5.71.76 1.43.8 2.15H94.5a3.25 3.25 0 0 0-.6-1.25c-.44-.5-1.09-.75-1.95-.75a2.4 2.4 0 0 0-2.06 1.06c-.5.7-.76 1.7-.76 2.99 0 1.3.26 2.26.8 2.9.53.64 1.21.96 2.03.96.85 0 1.49-.27 1.93-.82.24-.3.45-.75.6-1.34h2.39a5.17 5.17 0 0 1-1.6 3.06ZM106.02 49v-7.07h2.44V49c0 1.22-.19 2.17-.57 2.85-.7 1.25-2.06 1.88-4.05 1.88-2 0-3.35-.63-4.06-1.88a5.92 5.92 0 0 1-.57-2.85v-7.07h2.44V49a4 4 0 0 0 .28 1.73c.3.64.93.97 1.9.97.98 0 1.61-.33 1.9-.97a4 4 0 0 0 .29-1.73ZM117.98 51.06h-4.24l-.8 2.37h-2.51l4.1-11.5h2.72l4.08 11.5h-2.61l-.74-2.37Zm-.67-1.98-1.44-4.52-1.48 4.52h2.92ZM130.44 41.93v2.03H127v9.47h-2.42v-9.47h-3.45v-2.03h9.31ZM137.15 53.75c-1.65 0-2.9-.45-3.77-1.34-1.17-1.1-1.75-2.68-1.75-4.75 0-2.1.58-3.69 1.75-4.74.87-.9 2.12-1.35 3.77-1.35 1.64 0 2.9.45 3.76 1.35 1.16 1.05 1.75 2.63 1.75 4.74 0 2.07-.59 3.65-1.75 4.75-.86.9-2.12 1.34-3.76 1.34Zm2.27-3.1c.55-.7.83-1.7.83-2.99 0-1.29-.28-2.28-.84-2.99a2.73 2.73 0 0 0-2.26-1.06c-.96 0-1.72.35-2.28 1.05-.57.7-.85 1.7-.85 3s.28 2.3.85 3c.56.7 1.32 1.05 2.28 1.05.95 0 1.7-.35 2.27-1.05ZM154.86 53.43h-4.96v-11.5h4.96c.71 0 1.3.09 1.78.25.8.26 1.46.75 1.96 1.45.4.58.67 1.2.82 1.86.15.67.22 1.3.22 1.9 0 1.54-.3 2.83-.92 3.9a4.16 4.16 0 0 1-3.86 2.14Zm1.79-8.57c-.37-.62-1.1-.94-2.2-.94h-2.21v7.51h2.22c1.13 0 1.92-.56 2.37-1.68a5.9 5.9 0 0 0 .36-2.19c0-1.17-.18-2.07-.54-2.7ZM161.75 41.93h2.39v11.5h-2.4v-11.5ZM180.15 41.93v2.03h-3.44v9.47h-2.42v-9.47h-3.46v-2.03h9.32ZM190.05 48.4h-5.59v2.96h6.37v2.07h-8.72v-11.5h8.44v2.03h-6.09v2.45h5.6v2ZM193.19 41.93h2.4v9.43h5.7v2.07h-8.1v-11.5ZM203.44 41.93h2.4v9.43h5.7v2.07h-8.1v-11.5ZM220.42 51.06h-4.23l-.8 2.37h-2.51l4.1-11.5h2.72l4.07 11.5h-2.6l-.75-2.37Zm-.67-1.98-1.43-4.52-1.49 4.52h2.92ZM52.84 25.43v7.09c0 .83.15 1.52.47 2.07.46.84 1.24 1.25 2.34 1.25 1.31 0 2.2-.45 2.68-1.35a4.3 4.3 0 0 0 .39-1.97v-7.09h1.57v6.44c0 1.4-.19 2.5-.57 3.25-.7 1.39-2.01 2.08-3.95 2.08-1.93 0-3.25-.7-3.94-2.08a7.45 7.45 0 0 1-.57-3.25v-6.44h1.58ZM62.54 25.43h1.84l5.79 9.29v-9.29h1.47V36.9H69.9l-5.87-9.28v9.28h-1.49V25.43ZM74.29 25.43h1.57V36.9h-1.57V25.43ZM79.13 25.43l3.3 9.76 3.25-9.76h1.74L83.23 36.9H81.6L77.4 25.43h1.72ZM88.87 25.43h8.36v1.4H90.4v3.49h6.33v1.32h-6.33v3.89h6.96v1.37h-8.48V25.43ZM104.56 30.68c.73 0 1.3-.14 1.72-.43.43-.3.64-.82.64-1.58 0-.82-.3-1.37-.89-1.67a2.9 2.9 0 0 0-1.27-.23h-3.8v3.91h3.6Zm-5.15-5.25h5.31c.88 0 1.6.13 2.16.38 1.08.5 1.62 1.4 1.62 2.71 0 .69-.14 1.25-.43 1.69-.28.43-.68.79-1.19 1.05.45.18.79.42 1.01.72.23.3.36.78.38 1.44l.06 1.54c.01.44.05.76.1.98.1.36.27.6.5.7v.26h-1.9c-.05-.1-.1-.23-.12-.39a7.43 7.43 0 0 1-.08-.9l-.1-1.91c-.03-.75-.3-1.26-.83-1.51-.3-.14-.76-.21-1.4-.21h-3.53v4.92H99.4V25.43ZM111.63 33.2c.04.65.2 1.17.46 1.58.52.76 1.43 1.14 2.73 1.14.58 0 1.11-.08 1.59-.25.93-.32 1.39-.9 1.39-1.73 0-.63-.2-1.07-.59-1.34a5.92 5.92 0 0 0-1.85-.68l-1.56-.35a7.03 7.03 0 0 1-2.15-.75 2.4 2.4 0 0 1-1.1-2.15 3.3 3.3 0 0 1 1.08-2.54c.7-.66 1.72-.99 3.02-.99 1.2 0 2.23.3 3.06.88.85.57 1.27 1.5 1.27 2.77h-1.46a2.87 2.87 0 0 0-.5-1.4c-.47-.6-1.28-.9-2.41-.9-.92 0-1.58.19-1.98.57-.4.39-.6.83-.6 1.34 0 .57.24.98.7 1.24.31.16 1 .37 2.09.62l1.6.37c.78.18 1.38.42 1.8.72.73.54 1.1 1.32 1.1 2.34 0 1.27-.47 2.18-1.4 2.72-.92.55-1.99.82-3.21.82a4.82 4.82 0 0 1-3.35-1.1c-.8-.71-1.2-1.7-1.19-2.93h1.46ZM121.47 25.43h1.57V36.9h-1.57V25.43ZM129.81 35.57c.53 0 .96-.06 1.3-.16.6-.2 1.1-.6 1.48-1.18.3-.46.53-1.05.66-1.78.08-.43.12-.83.12-1.2 0-1.42-.28-2.52-.85-3.3-.56-.8-1.47-1.18-2.72-1.18h-2.76v8.8h2.77Zm-4.33-10.14h4.64c1.58 0 2.8.56 3.67 1.68.78 1 1.17 2.3 1.17 3.88 0 1.21-.23 2.32-.7 3.3a4.24 4.24 0 0 1-4.15 2.6h-4.63V25.44ZM142.69 32.2l-1.75-5.07-1.84 5.07h3.59Zm-2.56-6.77h1.76l4.16 11.47h-1.7l-1.16-3.44h-4.54l-1.24 3.44h-1.6l4.32-11.47ZM151.7 35.57c.53 0 .96-.06 1.3-.16.6-.2 1.1-.6 1.48-1.18.31-.46.53-1.05.67-1.78.07-.43.11-.83.11-1.2 0-1.42-.28-2.52-.85-3.3-.56-.8-1.47-1.18-2.72-1.18h-2.76v8.8h2.77Zm-4.33-10.14h4.65c1.57 0 2.8.56 3.66 1.68.78 1 1.17 2.3 1.17 3.88 0 1.21-.23 2.32-.69 3.3a4.24 4.24 0 0 1-4.16 2.6h-4.63V25.44Z" fill="#fff"/><path fill="#818286" stroke="#000" stroke-width="1.84" d="M1.12 24.92h43.11v29.84H1.12z"/><path d="M15.54 24.92h-.6l-.24.53-12.98 28-.61 1.31H11.34l.24-.54 12.8-28 .6-1.3h-9.44Z" fill="#FDBF10" stroke="#000" stroke-width="1.84"/><path d="M24.76 24.92h-.6l-.24.54-12.81 28-.6 1.3H20.73l.24-.54 12.63-28 .59-1.3h-9.43Z" fill="#FDBF10" stroke="#000" stroke-width="1.84"/><path d="M33.98 24.92h-.6l-.24.54-12.65 28-.59 1.3H30.12l.24-.54 12.46-28 .58-1.3h-9.42Z" fill="#FDBF10" stroke="#000" stroke-width="1.84"/></g><defs><clipPath id="adbgfrzyt"><path transform="translate(.2)" d="M0 0h224v80H0z"/></clipPath></defs></svg>