<svg xmlns="http://www.w3.org/2000/svg" width="200" height="80" viewBox="0 0 200 80"><path fill="url(#aevxvrfwr)" d="M46.89 18.6c-15.55 5.9-25.62 17.87-22.24 26.64 2.4 6.2 11.08 9.41 21.26 8.55L55.34 16q-4.32 1-8.46 2.6"/><path fill="url(#bevxvrfwr)" d="M52.9 62.06c15.53-5.9 24.9-17.85 21.51-26.62-2.43-6.3-10.57-9.16-20.98-8.14L43.58 65c2.97-.54 6.2-1.77 9.29-2.93z"/><path fill="url(#cevxvrfwr)" d="M54.42 16c.42-.04 1.27.5.77 2.25-.2.73-1.69 6.29-3.6 13.63-.06.54.03 1.05.41 1.28.74.44 4.34 4.85 2.8 10.93-1.51 6.1-6.07 17.05-9.23 19.63-1.2.99-2.3 1.3-2.76 1.27h-.06a.5.5 0 0 1-.52-.4v-.24z"/><path fill="#fff" fill-rule="evenodd" d="M92.5 28.95v-2.28c.02-1.8.04-3.85 0-5.12l-6.4 1.54-.09 5.86h-5.13v5.55h5.13l.06 3.99q.03 3.33.12 6.65c.02.74.04 1.5.17 2.22a8 8 0 0 0 3.47 5 10 10 0 0 0 3.47 1.31q1.48.35 2.99.2c1.32-.1 2.78-.3 4-.85l.4-.19c.5-.21 1.03-.44 1.4-.8-.38-.89-.93-2-1.44-3.05l-.8-1.67a6.4 6.4 0 0 1-4.38.95 3.5 3.5 0 0 1-2.73-2.24c-.13-.67-.15-1.37-.16-2.06l-.02-.6c-.04-1.47-.04-3.87-.05-5.99V34.5h7.96v-5.55zm73.63.09c3.01.17 6.25 1.24 8.07 3.7.37.5 1.47 2.46 1.47 2.46-1.41.44-3.15.9-4.73 1.33l-1.36.37c-.54-1.35-1.03-2.18-2.96-2.84-1.38-.28-3.02-.46-4.3.22-.66.37-1.28.96-1.34 1.73-.05 1.04.7 1.56 1.62 1.87.95.31 2.04.56 3.02.8l.32.07.28.05c1.4.33 2.86.65 4.24 1.02a8.4 8.4 0 0 1 4.47 2.93c1.87 2.6 1.18 6.5-1.2 8.58-2.61 2.28-6.05 2.66-9.43 2.58-2.85 0-5.83-.74-8.05-2.57a8 8 0 0 1-2.19-3.1l6.38-1.72c.4 1.09 1.42 1.74 2.44 2.13.63.23 1.33.27 2 .3l.36.02c1.4.02 3.1-.1 4.01-1.29l.05-.06c.51-.82.72-1.15.02-2-.82-.72-1.95-1-3.02-1.26l-.62-.15-1.73-.37c-2.82-.55-5.75-1.14-7.78-3.22a5.6 5.6 0 0 1-1.4-2.45c-.07-.44-.07-.94-.07-1.4v-.37c0-.54 0-1.13.14-1.65 1.6-4.53 5.87-5.82 10.38-5.76zm-22.83 0c3.95.4 7.1 2.5 8.58 6.12-1.54.5-3.3.98-4.85 1.4l-.12.04q-.5.14-.97.3c0-.16-.16-.6-.26-.76a4.9 4.9 0 0 0-3.5-2.27 6 6 0 0 0-3.56.44c-.38.26-.82.63-1.06 1.04-.25.51-.28 1.25.1 1.73.4.5 1.08.7 1.7.9l.28.09q1.53.41 3.12.75c1.3.3 2.6.6 3.87 1 2.78.8 5.61 2.64 5.62 5.77-.03 4.26-2.4 6.75-6.45 7.86-1.44.4-2.99.42-4.48.44h-.6c-2.8.06-5.68-.68-7.9-2.35a7.6 7.6 0 0 1-2.51-3.68c1.21-.3 5.13-1.39 6.36-1.74l.2.39c.18.37.35.71.65 1.04 1 .95 2.33 1.47 3.7 1.45 1.75 0 4.2-.1 4.82-2.04.17-1.1-.72-1.76-1.63-2.15l-1.29-.35-.19-.04q-1.13-.27-2.33-.52a47 47 0 0 1-4.34-1.1 8.3 8.3 0 0 1-4.41-3.04c-.96-1.32-.88-3.05-.73-4.58.59-3.14 3.5-5.07 6.48-5.84 1.4-.37 2.93-.4 4.37-.4zm-14.86 12.4c0 6.89-5.84 12.47-13.05 12.47s-13.06-5.58-13.06-12.48 5.85-12.48 13.06-12.48c7.2 0 13.05 5.58 13.05 12.48m-5.6 0c0 3.82-3.33 6.93-7.45 6.93s-7.46-3.11-7.46-6.94 3.33-6.93 7.46-6.93 7.46 3.1 7.46 6.93"/><defs><radialGradient id="aevxvrfwr" cx="0" cy="0" r="1" gradientTransform="matrix(.467 12.50288 -14.84815 .5546 45.04 40.95)" gradientUnits="userSpaceOnUse"><stop stop-color="#2C67F6"/><stop offset=".12" stop-color="#1853E3"/><stop offset=".5" stop-color="#2B9AFA"/><stop offset="1" stop-color="#4DA9F8"/></radialGradient><radialGradient id="bevxvrfwr" cx="0" cy="0" r="1" gradientTransform="matrix(4.71257 -3.49723 4.20579 5.66736 52.4 32.66)" gradientUnits="userSpaceOnUse"><stop offset=".2" stop-color="#2C67F6"/><stop offset="1" stop-color="#4DA9F8"/></radialGradient><linearGradient id="cevxvrfwr" x1="43.26" x2="44.62" y1="63.66" y2="64.12" gradientUnits="userSpaceOnUse"><stop offset=".06" stop-color="#1A55E5"/><stop offset="1" stop-color="#1A55E5" stop-opacity="0"/></linearGradient></defs></svg>