<svg width="201" height="81" viewBox="0 0 201 81" xmlns="http://www.w3.org/2000/svg"><path d="M.8.2h200v80H.8z"/><path d="m21.25 34.2-6.94 19c5.82 0 10.56-4.77 10.56-10.7 0-3.33-1.25-6.3-3.62-8.3ZM24.04 26.2l-2.24 7h5.12c3.48 0 6.33-3.11 6.33-7h-9.2ZM12.16 26.2c-3.51 0-6.36 3.35-6.36 7h7.24c-.57 1.36-1.24 2.46-1.24 4 0 3.16 1.62 6 3.68 8l6.5-19h-9.82ZM83.62 46.2c-2.22 0-4.1-.9-5.06-2.88a8.14 8.14 0 0 1-.76-3.6c0-1.29.25-2.45.76-3.51.98-2.06 2.9-3 5.22-3 1.3 0 2.75.35 3.41 1.25v-7.25h4.61v18.97h-4.36l-.06-1.48c-.53.9-2.27 1.5-3.76 1.5Zm1.23-3.68c.76 0 1.4-.26 1.87-.8.47-.56.72-1.23.72-2.07 0-.83-.25-1.54-.72-2.06-.48-.54-1.11-.8-1.87-.8s-1.39.26-1.86.8a3.02 3.02 0 0 0-.73 2.06c0 .84.25 1.55.73 2.06.47.55 1.1.8 1.86.8ZM159.9 31.2a2.52 2.52 0 0 1-2.52-2.5 2.53 2.53 0 0 1 5.06 0c0 1.38-1.18 2.5-2.53 2.5Zm-2.1 2h4.32v13h-4.32v-13ZM170.52 46.2a7.6 7.6 0 0 1-3.52-.81 6.31 6.31 0 0 1-2.6-8.95 6.3 6.3 0 0 1 2.47-2.36 7.6 7.6 0 0 1 3.65-.87 7.6 7.6 0 0 1 3.51.81 6.2 6.2 0 0 1 3.48 5.68 6.5 6.5 0 0 1-.84 3.27 6.3 6.3 0 0 1-2.48 2.36c-1.1.57-2.3.88-3.67.88Zm0-3.8a2.4 2.4 0 0 0 1.85-.76c.47-.51.72-1.15.72-1.93a2.7 2.7 0 0 0-.72-1.94 2.4 2.4 0 0 0-1.85-.76 2.4 2.4 0 0 0-1.86.76 2.75 2.75 0 0 0-.72 1.94c0 .78.25 1.45.72 1.93.47.51 1.1.76 1.86.76ZM178.8 33.2h4.45l.06 1.96c.32-.62.8-1.08 1.46-1.43.63-.34 1.4-.52 2.24-.52 1.49 0 2.6.46 3.36 1.36.75.9 1.13 2.24 1.13 3.98v7.66h-4.7v-6.85c0-1.49-.47-2.15-1.6-2.15-.6 0-1 .13-1.35.54-.35.4-.5 1.02-.5 1.8v6.66h-4.55v-13ZM120.02 36.4c-.97-.97-2.53-1.77-4.74-2.45a8.51 8.51 0 0 1-2.25-.9 1.28 1.28 0 0 1-.56-1.09c0-1.12.84-1.75 2.56-1.75a9.6 9.6 0 0 1 4.33 1l1.25-3.5a9.82 9.82 0 0 0-2.65-1.09 13.23 13.23 0 0 0-3.15-.41c-2.18 0-3.93.5-5.17 1.57a5.2 5.2 0 0 0-1.9 4.28c0 1.57.43 2.86 1.34 3.82.9.97 2.33 1.74 4.33 2.35.8.23 1.43.45 1.9.64.44.2.78.42.97.65.21.22.3.51.3.87 0 1.45-1.7 1.82-2.86 1.82-1.75 0-3.52-.24-5.08-1l-1.25 3.39a7.5 7.5 0 0 0 1.75.83c.71.26 1.5.45 2.33.58.85.13 1.66.2 2.47.2 2.34 0 4.17-.52 5.48-1.58a5.4 5.4 0 0 0 1.97-4.44 4.88 4.88 0 0 0-1.38-3.8ZM105.56 42.07a10.2 10.2 0 0 1-4.08.82c-1.1 0-1.99-.18-2.62-.52a2.62 2.62 0 0 1-1.3-1.56H106c.1-.43.16-.9.16-1.48a5.9 5.9 0 0 0-1.7-4.47 6.37 6.37 0 0 0-4.6-1.65c-1.32 0-2.52.27-3.53.84a6.03 6.03 0 0 0-2.34 2.32 6.74 6.74 0 0 0-.82 3.32c0 1.36.31 2.53.94 3.5 1.47 2.23 4.23 3.02 6.77 3.02 1.59 0 3.44-.2 4.92-.79l-.24-3.35Zm-5.82-5.85c.6 0 1.1.18 1.52.54.38.37.6.81.7 1.45h-4.5c.26-1.4 1.02-1.99 2.28-1.99ZM74.6 34.69c-1.1-1-2.68-1.48-4.8-1.48a11.39 11.39 0 0 0-4.5.96v3.46a7.2 7.2 0 0 1 3.83-1.12c.95 0 1.65.18 2.15.57.48.4.76.97.8 1.76a9.04 9.04 0 0 0-2.98-.57c-1.48 0-2.69.36-3.6 1.12a3.65 3.65 0 0 0-1.4 2.97c0 1.18.39 2.12 1.18 2.81.76.7 1.8 1.04 3.13 1.04 1.64 0 2.9-.52 3.76-1.58l.03 1.58h4.05v-7.22c0-1.88-.54-3.33-1.65-4.3Zm-3.25 8.12c-.41.4-.92.6-1.55.6-.48 0-.86-.11-1.17-.36a1.18 1.18 0 0 1-.44-.94c0-.39.15-.72.5-.94.35-.24.8-.36 1.4-.36.69 0 1.35.12 1.95.36a2.61 2.61 0 0 1-.7 1.64ZM143.75 34.69c-1.1-1-2.68-1.48-4.8-1.48a11.4 11.4 0 0 0-4.5.96v3.46a7.19 7.19 0 0 1 3.84-1.12c.94 0 1.64.18 2.14.57.48.4.76.97.8 1.76a8.03 8.03 0 0 0-2.98-.63 5.5 5.5 0 0 0-3.6 1.18 3.65 3.65 0 0 0-1.4 2.97c0 1.18.39 2.12 1.18 2.81.75.7 1.8 1.04 3.13 1.04 1.64 0 2.9-.52 3.76-1.58l.06 1.58h4.05v-7.22c-.03-1.88-.57-3.33-1.68-4.3Zm-3.25 8.12c-.41.4-.92.6-1.55.6-.48 0-.85-.11-1.17-.36a1.18 1.18 0 0 1-.44-.94c0-.39.15-.72.5-.94.35-.24.8-.36 1.4-.36.69 0 1.35.12 1.95.36a2.61 2.61 0 0 1-.7 1.64ZM131.77 41.61c-.57.33-1.26.6-2.08.6-1.21 0-1.89-1.1-1.89-2.26v-3.74h.81a3.49 3.49 0 0 0 3.54-3.54h-4.35v-3.46h-4.25v3.46h-1.3v3.54h1.3v4.82c0 1.76.41 3.06 1.2 3.9.8.85 2.03 1.28 3.64 1.28.76 0 1.49-.07 2.15-.2a5.77 5.77 0 0 0 1.64-.55l-.4-3.85ZM155.7 41.61c-.56.33-1.26.5-2.08.5-1.24 0-1.82-.99-1.82-2.16v-3.74h.74c1.97 0 3.55-1.6 3.55-3.62h-4.29v-3.38h-4.31v3.38h-1.3v3.62h1.3v4.82c0 1.76.4 3.06 1.2 3.9.79.85 2.02 1.28 3.63 1.28.76 0 1.49-.07 2.16-.2a5.77 5.77 0 0 0 1.64-.55l-.41-3.85ZM44.19 26.24c-2.25 0-4.39 1.7-4.39 3.97h6v16h5v-16h2.3c2.25 0 4.7-1.75 4.7-4h-5.87l-7.74.03Z" fill="#fff"/><path d="M62.56 33.2c-.73 0-1.36.2-1.9.57a3.9 3.9 0 0 0-1.3 1.6l-.06-2.16h-4.5v13h4.63v-5.5c0-1.13.22-1.95.66-2.54.44-.57 1.08-.85 1.96-.85.57 0 1.24.1 1.75.31v-4.3c-.24-.12-.87-.12-1.24-.12ZM193.3 31.2c-.46 0-.87-.1-1.25-.3a2.52 2.52 0 0 1-1.25-2.2c0-.45.11-.87.3-1.24a2.52 2.52 0 0 1 4.7 1.29c0 .45-.11.86-.34 1.24a2.6 2.6 0 0 1-.91.91c-.34.2-.76.3-1.25.3Zm0-.41a2.07 2.07 0 0 0 1.78-1.02 2.04 2.04 0 0 0 .04-2.09 2.03 2.03 0 0 0-1.78-1.06 2.08 2.08 0 0 0-1.78 1.02c-.2.3-.3.69-.3 1.07 0 .37.07.71.26 1.02.19.3.42.57.72.76.34.18.68.3 1.06.3Zm-.83-3.33h.8c.3 0 .52.07.67.18.15.16.27.3.27.57 0 .34-.15.57-.42.68l.6.95h-.48l-.53-.87h-.46v.87h-.42v-2.38h-.03Zm.41 1.13h.34c.2 0 .34-.04.42-.07.08-.08.11-.16.11-.3 0-.27-.19-.39-.53-.39h-.34v.76Z" fill="#fff"/></svg>