<svg width="224" height="80" viewBox="0 0 224 80" xmlns="http://www.w3.org/2000/svg"><g clip-path="url(#avo5nv3nm)"><path d="M146.55 5.85h-69.1v68.3h69.1V5.85Z" fill="#940028"/><path d="M104.45 65.06c-.47 2.05-2 3.56-4.73 3.56-3.51 0-5.2-2.56-5.2-5.79 0-3.1 1.72-5.9 5.3-5.9 2.88 0 4.33 1.69 4.62 3.6h-2.11c-.3-1-.97-1.9-2.59-1.9-2.18 0-3.03 1.98-3.03 4.13 0 2.02.77 4.16 3.1 4.16 1.64 0 2.23-1.05 2.51-1.86h2.13Zm-19.07-7.97v6.8c0 2.36 1.23 3.03 2.52 3.03 1.5 0 2.49-.77 2.49-3.03v-6.8h2.12v6.7c0 3.82-2.18 4.83-4.64 4.83-2.48 0-4.62-1.07-4.62-4.77V57.1h2.13Zm23.19 6.33h5.47v-1.77h-5.47v-2.79h5.72V57.1h-7.78v11.38h7.83l.25-1.77h-6.02v-3.28Zm17.72.58c0-2 .03-4.16.08-5.42h-.07c-.47 1.97-1.66 5.62-2.73 8.95l-.21.63-.1.3h-1.83l-.67-2.32c-.8-2.76-1.73-5.93-2.11-7.59h-.07c.1 1.33.14 3.73.14 5.68v4.24h-1.95V57.09h3.15c1.02 3.16 2.2 7.18 2.56 8.8h.02c.28-1.37 1.72-5.7 2.8-8.8h3.04v11.38h-2.05V64Zm5.94 4.47 1-2.9h4.25l1.04 2.9h2.23l-4.06-11.38h-2.65l-3.9 11.38h2.1Zm4.68-4.93.1.26h-3.31l.1-.32a109.4 109.4 0 0 0 1.5-4.8c.26.93.77 2.41 1.61 4.86Z" fill="#fff"/><path d="M101.17 49.3c0-.36-.31-.47-.69-.6-.45-.16-.77-.4-.77-.83 0-.47.37-.75.97-.75.37 0 .57.05.7.1.09.04.1.06.08.16l-.02.19-.04.01h-.03c-.13-.2-.37-.31-.7-.31-.38 0-.58.18-.58.49 0 .33.25.47.6.59.5.17.86.37.86.83 0 .56-.47.84-1.07.84-.35 0-.6-.06-.74-.13-.08-.04-.08-.05-.08-.14l.02-.24a.07.07 0 0 1 .07 0c.13.2.39.35.74.35.45 0 .68-.22.68-.55Zm-15.99-2.12c-.02 0-.02.01-.01.03.04.07.1.25.1.57v1.26c0 .5-.3.75-.82.75-.54 0-.75-.29-.75-.7v-1.31c0-.3.02-.5.07-.57.02-.02.02-.03-.02-.03h-.51c-.04 0-.04.01-.02.03.05.07.08.27.08.57v1.29c0 .42.17.95 1.11.95.76 0 1.05-.44 1.05-.97v-1.27c0-.31.05-.5.1-.57v-.03h-.38Zm1.25.17.07.08v1.92c0 .31-.05.5-.1.57-.02.02 0 .03 0 .03h.38c.02 0 .02-.01.01-.03-.05-.07-.1-.25-.1-.57v-1.7l1.87 2.3c.05.02.1.02.15 0v-2.17c0-.31.04-.5.1-.57v-.02l-.02-.01h-.37c-.02 0-.02.02 0 .03.04.07.09.25.09.57v1.49l-1.65-2.05c-.03-.04-.05-.04-.1-.04h-.46a.02.02 0 0 0-.01 0v.02l.14.15Zm3.71 2c0 .3.03.5.08.57.01.02.01.04-.02.04h-.52c-.03 0-.03-.02-.02-.04.05-.07.08-.27.08-.57v-1.57c0-.3-.03-.5-.08-.57-.01-.02-.01-.03.02-.03h.52c.03 0 .03.01.02.03-.05.07-.08.27-.08.57v1.57Zm1.98.62h.2l.9-2.1c.16-.39.28-.57.36-.66.02-.01.02-.03 0-.03h-.41c-.03 0-.04.01-.03.03.02.06-.02.33-.16.66l-.65 1.6-.7-1.6c-.14-.35-.2-.55-.19-.66 0-.02 0-.03-.03-.03h-.53c-.02 0-.03.02-.01.03.08.1.18.32.28.57l.03.05.02.06.92 2.08Zm3.73-2.8c.08 0 .09.01.09.08v.27a.05.05 0 0 1-.05 0 .88.88 0 0 0-.56-.2h-.6v1.15h.58c.14 0 .28-.04.36-.06l.07-.02h.03v.3l-.01.01h-.02a1.5 1.5 0 0 0-.43-.08h-.59v1.05c0 .13 0 .14.13.14h.46c.26-.01.5-.11.7-.28.03-.02.07-.01.07 0l-.1.35a.08.08 0 0 1-.08.07h-1.64c-.03 0-.03-.01-.01-.03.05-.07.07-.27.07-.57v-1.57c0-.3-.02-.5-.07-.57-.02-.02-.02-.03.01-.03h1.6Zm2.75 2.7a.85.85 0 0 0 .56.1c.02-.02.02-.03-.01-.05-.17-.1-.37-.27-.69-.69a7.57 7.57 0 0 1-.4-.58c.2-.08.59-.28.59-.74 0-.65-.66-.73-1-.73h-.9c-.04 0-.04.01-.03.03.05.07.08.27.08.57v1.57c0 .3-.03.5-.08.57-.01.02-.01.04.02.04h.52c.03 0 .03-.02.02-.04-.05-.07-.08-.27-.08-.57v-.6c.16.01.31.02.47 0l.01.03c.11.18.22.36.36.55.14.18.34.42.56.54Zm-.94-1.25-.46-.01v-1.3h.42c.27 0 .59.1.59.62 0 .51-.24.68-.55.69Zm5.16 1.3c-.05-.07-.08-.27-.08-.57v-1.57c0-.3.02-.5.07-.57.02-.02.02-.03-.02-.03h-.52c-.03 0-.03.01-.02.03.06.07.08.27.08.57v1.57c0 .3-.02.5-.08.57 0 .02 0 .04.02.04h.53c.03 0 .03-.02.02-.04Zm.88 0c.05-.07.08-.27.08-.57v-1.57c0-.3-.03-.5-.08-.57-.02-.02-.02-.03.02-.03h1.05c1.01 0 1.44.61 1.44 1.32 0 .8-.44 1.45-1.44 1.45h-1.05c-.04 0-.04-.01-.02-.03Zm.58-.11h.47c.74 0 1-.6 1-1.3 0-.6-.25-1.2-1-1.2h-.57v2.37c0 .1 0 .13.1.13Zm2.25.14h.4c.05 0 .05-.01.05-.03-.03-.07 0-.33.15-.65l.13-.31h1.04l.11.28c.12.3.21.56.2.67 0 .03 0 .04.04.04h.52c.03 0 .03-.02.02-.04-.1-.12-.23-.38-.34-.67l-.84-2.08h-.17l-.95 2.1c-.16.38-.28.58-.37.66-.02.02-.02.03.01.03Zm1.72-1.13h-.93l.48-1.12.45 1.12Zm1.6 1.1c.06-.07.08-.27.08-.57v-1.57c0-.3-.02-.5-.08-.57 0-.02 0-.03.02-.03h1.06c1.01 0 1.44.61 1.44 1.32 0 .8-.44 1.45-1.44 1.45h-1.06c-.03 0-.03-.01-.02-.03Zm.6-.11h.46c.74 0 1-.6 1-1.3 0-.6-.25-1.2-1-1.2h-.58v2.37c0 .1.01.13.11.13Zm-27.12 3.74c0 .3-.02.5-.08.57 0 .01 0 .03.02.03h1.06c1 0 1.44-.66 1.44-1.46 0-.7-.43-1.32-1.44-1.32h-1.06c-.03 0-.03.01-.02.03.06.07.08.28.08.57v1.58Zm.98.45h-.47c-.1 0-.1-.03-.1-.12V51.5h.56c.76 0 1 .6 1 1.19 0 .7-.25 1.3-1 1.3Zm3.8-2.63c.08 0 .1 0 .1.08v.26a.05.05 0 0 1-.05 0 .89.89 0 0 0-.56-.2H87v1.16h.58c.14 0 .28-.04.36-.07l.07-.02h.02v.31l-.01.01a1.52 1.52 0 0 0-.44-.08H87v1.04c0 .13 0 .14.13.14h.46c.26 0 .5-.1.7-.28.03-.02.07 0 .07.01l-.09.35a.09.09 0 0 1-.09.07h-1.64c-.03 0-.03-.02-.02-.03.05-.07.08-.28.08-.57v-1.58c0-.3-.03-.5-.08-.57-.01-.02-.01-.03.02-.03h1.59Zm.88 2.75c-.01.01-.01.03.02.03h1.58a.09.09 0 0 0 .1-.08l.09-.34c0-.02-.04-.03-.07 0-.2.16-.45.26-.7.27h-.41c-.13 0-.13-.01-.13-.14v-1.89c0-.3.02-.5.07-.57.02-.02.02-.03-.01-.03H89c-.03 0-.03.01-.02.03.05.07.08.28.08.57v1.58c0 .3-.03.5-.08.57Zm6.57-.19c-.17.15-.43.28-.9.28-.75 0-1.37-.46-1.37-1.42s.61-1.48 1.4-1.48c.4 0 .67.07.82.14.08.04.1.05.07.15l-.04.2c-.01.02-.03.02-.04.02h-.03c-.11-.15-.34-.35-.78-.35-.62 0-.94.5-.94 1.32 0 .81.37 1.21 1 1.21.39 0 .64-.11.81-.24.03-.02.03.15 0 .17Zm2.35-2.48c0-.07-.02-.08-.1-.08h-1.58c-.03 0-.03.01-.02.03.05.07.08.28.08.57v1.58c0 .3-.03.5-.08.57-.01.01-.01.03.02.03h1.64c.02 0 .04 0 .06-.02a.09.09 0 0 0 .03-.05l.09-.35c0-.02-.04-.03-.07 0-.2.16-.44.26-.7.27h-.46c-.12 0-.13 0-.13-.14v-1.04h.6a1.51 1.51 0 0 1 .43.08h.01v-.31h-.01l-.08.01c-.08.03-.22.07-.36.07h-.59V51.5h.6c.23 0 .47.1.57.2h.05v-.26Zm.87 2.1.06-1.9a.93.93 0 0 0-.15-.25c-.02 0-.01-.03.01-.03h.43c.07 0 .08 0 .1.07l1.02 2.17.91-2.05c.1-.18.1-.19.2-.19h.32c.03 0 .03.02.02.04-.07.09-.09.33-.08.63l.05 1.5c.01.34.03.5.1.58 0 .01 0 .03-.02.03h-.54c-.03 0-.03-.02-.02-.03.06-.07.1-.23.08-.57l-.04-1.7-1.03 2.29a.18.18 0 0 1-.13 0l-1.05-2.26-.05 1.66c0 .31.04.5.07.57v.04h-.35c-.02 0-.01-.02 0-.04.03-.06.08-.26.09-.57Zm3.67.6h.41c.04 0 .04-.02.04-.03-.03-.07 0-.33.15-.66l.13-.3h1.04l.12.28c.11.3.2.55.2.67 0 .03 0 .04.04.04h.51c.03 0 .03-.03.02-.04-.1-.12-.23-.39-.34-.67l-.84-2.08h-.17l-.95 2.1c-.16.37-.28.57-.37.66-.02.01-.01.03.01.03Zm1.72-1.14h-.93l.48-1.12.45 1.12ZM140.75 11.51h-18.66v1.53l.01 15.7c0 .58.16 1.12.56 1.54a11.54 11.54 0 0 0 10.48 3.86c2.77-.38 5.1-1.63 6.99-3.65.3-.32.51-.7.55-1.13.06-.57.07-1.15.07-1.72V11.51Zm-18 1.69h17.28c.35 0 .35 0 .35.35v15.17c0 .7-.22 1.26-.72 1.75a11.24 11.24 0 0 1-9.15 3.4 11.12 11.12 0 0 1-7.48-3.68 2.03 2.03 0 0 1-.58-1.42V13.44c0-.24.12-.24.3-.24Zm16.58 10.03c-2.1.3-3.94.04-5.51-.74 1.56.36 3.14.34 4.76-.08a1.52 1.52 0 0 0 1.13-1.55 10.4 10.4 0 0 0-.08-.67.08.08 0 0 0-.03-.03h-.04a6.77 6.77 0 0 1-5.12 1.7 7.1 7.1 0 0 0 4.32-2.1 1.53 1.53 0 0 0 .33-1.71 12.39 12.39 0 0 0-.44-.85.08.08 0 0 0-.04 0l-.04.01a.07.07 0 0 0-.03.04c-.36 1.39-1.37 2.6-3.04 3.64 1.57-1.2 2.38-2.62 2.43-4.26a1.5 1.5 0 0 0-.46-1.13 10.25 10.25 0 0 0-1.8-1.36l-.05.02a.07.07 0 0 0-.02.05l.01.04c1.65 2.6.09 5.7-1.84 6.37 0 0-.37.12-.6.12a6.1 6.1 0 0 0-.38-.29l-.03-.02-.04-.02c-.33-.2-.68-.44-.73-.77-.12-.8 1.19-.82 1.52-.82h.08c-.62-.95-1.38-.96-2.2-.97a3.4 3.4 0 0 1-1.95-.45c.1.58.81 1.06 1.25 1.15a3.88 3.88 0 0 0-.81 2.24c-.15-.01-.3-.04-.44-.07-2.08-.37-3.98-3.7-2.22-6.47a.06.06 0 0 0 .01-.05c0-.01 0-.03-.02-.04a.06.06 0 0 0-.04-.02 10.3 10.3 0 0 0-1.8 1.35 1.54 1.54 0 0 0-.46 1.13c.04 1.65.85 3.07 2.43 4.27-1.68-1.04-2.7-2.26-3.05-3.64a.08.08 0 0 0-.11-.05 12.97 12.97 0 0 0-.43.85 1.52 1.52 0 0 0 .32 1.71 7.1 7.1 0 0 0 4.33 2.1 6.77 6.77 0 0 1-5.13-1.7.08.08 0 0 0-.09.06l-.06.63c-.03.35.08.7.28.98.21.29.51.5.86.58 1.61.41 3.2.44 4.76.08a9.27 9.27 0 0 1-5.55.74.08.08 0 0 0-.03.03h-.01l-.01.03v.04l.02.08a1.51 1.51 0 0 0 1.64 1.09c1.55-.16 3.04-.65 4.38-1.45-.87.95-2.55 1.76-5.05 2.44-.07.03-.06.05-.04.11v.01a1.52 1.52 0 0 0 1.93.58c1.51-.69 2.7-1.55 3.57-2.58-.44 1-1.36 1.98-2.76 2.9 0 0-.02 0-.02.02v.02l.02.02h.03a5.06 5.06 0 0 0 3.14-1.9l.16.35c.03.05.03.1.03.16s-.03.11-.06.16l-2.17 3.12v.01l-.01.01v.02l.01.02v.01h.02a.78.78 0 0 0 .97-.3l1.25-2.04-1.18 2.66v.04l.01.02h.01l.01.01.21.06c.2.05.4.02.57-.08.18-.1.3-.26.36-.45l.66-2.27-.32 3.02c0 .44.61.92.61.92s.61-.5.61-.92l-.22-2.07-.1-.95.66 2.26c.05.18.17.34.34.44.17.1.38.13.57.09l.22-.05.02-.01.02-.02v-.04l-.35-.78-.84-1.89 1.11 1.82.15.23a.76.76 0 0 0 .96.3h.03v-.01l.01-.02a.05.05 0 0 0 0-.04l-2.19-3.12a.33.33 0 0 1-.02-.32l.15-.35.13.15.04.04.13.14h.01l.13.14.02.02.14.13h.01l.14.14h.01l.12.1.03.03a4.39 4.39 0 0 0 2.27 1.01l.01-.02v-.02l-.01-.02a9.35 9.35 0 0 1-1.96-1.65l-.13-.15-.12-.16a4.32 4.32 0 0 1-.16-.23l-.05-.07-.01-.02-.1-.14v-.01a3.77 3.77 0 0 1-.07-.14l-.02-.02-.07-.14a.43.43 0 0 1-.01-.03l-.01-.02-.02-.03-.02-.06-.01-.03.15.17.02.03.15.15.04.05.13.14.06.05.11.11.1.09.02.01.02.03c.76.67 1.67 1.25 2.75 1.75a1.54 1.54 0 0 0 1.94-.58c.03-.07.03-.1-.04-.12-2.16-.59-3.71-1.27-4.65-2.06l-.04-.03-.06-.05v-.01l-.1-.08v-.02l-.06-.04-.02-.03-.02-.02a2.96 2.96 0 0 1-.08-.08l-.01-.01.2.12.19.1c1.23.66 2.57 1.07 3.96 1.21a1.56 1.56 0 0 0 1.67-1.1v-.03l.01-.02v-.05a.08.08 0 0 0-.01-.03.08.08 0 0 0-.07-.03Zm-11.57 9.32.02-.47a.27.27 0 0 0-.04-.06V32h.15l.02.01.24.52.22-.48c.02-.05.02-.05.05-.05h.11c.01 0 .01 0 0 0a.33.33 0 0 0-.01.17l.01.37c0 .09.01.12.02.14v.01h-.17v-.01c.02-.04.02-.1.02-.14l-.02-.4-.24.55h-.06l-.25-.55-.01.4c0 .05 0 .1.02.14v.01h-.1v-.01l.03-.14Zm1.37.16c.09.01.18-.01.25-.07v-.06a.34.34 0 0 1-.2.07c-.16 0-.24-.1-.24-.3 0-.2.07-.31.22-.31a.24.24 0 0 1 .19.09h.02l.01-.07c0-.02 0-.03-.02-.04a.53.53 0 0 0-.21-.03.35.35 0 0 0-.27.1.34.34 0 0 0-.1.27c0 .24.15.35.35.35Zm.47-.16.01-.47a.33.33 0 0 0-.04-.06V32h.15l.02.01.24.52.22-.48c.02-.05.02-.05.05-.05h.11c.01 0 .01 0 0 0a.31.31 0 0 0-.01.17l.01.37c0 .09.01.12.02.14v.01h-.17v-.01c.02-.04.02-.1.02-.14l-.01-.4-.25.55h-.06l-.25-.55v.4c-.01.05 0 .1 0 .14v.01h-.09v-.01l.03-.14Zm1.04.14h.44l.01-.01.03-.11h-.02a.28.28 0 0 1-.18.08h-.1c-.02 0-.02 0-.02-.03v-.47c0-.04 0-.1.02-.14h-.17c-.01 0-.01 0 0 0 0 .05.02.1.01.14v.4c0 .05 0 .1-.02.14Zm1-.41.1-.15c.05-.07.06-.1.06-.12h.13a.56.56 0 0 0-.12.12l-.14.2.16.23.11.13h-.19a.29.29 0 0 0-.07-.13l-.1-.15-.12.16c-.05.06-.06.1-.05.12h-.14a.64.64 0 0 0 .11-.12l.16-.2-.15-.23a.73.73 0 0 0-.1-.13h.19c.01.05.03.1.06.13l.1.14Zm.94-.15-.1.15-.1-.14a.28.28 0 0 1-.06-.12V32h-.19a.8.8 0 0 1 .1.13l.15.22-.16.21a.6.6 0 0 1-.1.12c-.02 0-.02 0 0 0h.12a.2.2 0 0 1 .05-.12l.12-.16.1.15a.3.3 0 0 1 .07.13h.2a.88.88 0 0 1-.1-.13l-.17-.24.14-.19a.58.58 0 0 1 .11-.12h-.12c0 .02-.01.05-.06.12Zm.75.57h-.09l-.22-.52a.95.95 0 0 0-.08-.17H133.12c0 .06.02.12.05.17l.16.38.15-.39c.03-.05.04-.1.04-.16h.12a.51.51 0 0 0-.1.16l-.21.53Zm.69-.01a.28.28 0 0 1-.02-.14v-.4c-.01-.04 0-.1.02-.14h-.18c.02.05.02.1.02.14v.4c0 .05 0 .1-.02.14h.17Zm.41-.14c0 .05 0 .1.02.14h-.17c-.01 0-.01 0 0 0a.3.3 0 0 0 .01-.14v-.4c0-.04 0-.1-.02-.14h.18a.27.27 0 0 0-.02.14v.4Zm.46.14a.27.27 0 0 1-.02-.14v-.4c0-.04 0-.1.02-.14h-.18c.02.05.02.1.02.14v.4c0 .05 0 .1-.02.14h.17Zm.07-2.65-.13-.4s-1.72-.41-3.41 1.2c-1.7-1.61-3.41-1.2-3.41-1.2l-.13.4c1.88-.5 3.54.8 3.54.8s1.66-1.3 3.54-.8Zm.45.5s-2.03-.8-4 .58c-1.96-1.37-3.98-.58-3.98-.58l-.71 1.43a6 6 0 0 1 4.03-.88l.67.19.66-.19a6 6 0 0 1 4.03.88l-.7-1.43Zm-4 .58.1-.04-.1.04Z" fill="#CCC"/></g><defs><clipPath id="avo5nv3nm"><path transform="translate(77.45 5.85)" d="M0 0h69.11v68.29H0z"/></clipPath></defs></svg>