<svg xmlns="http://www.w3.org/2000/svg" width="132" height="60" viewBox="0 0 132 60"><path fill="#1C4BD0" d="M31.98 26.07 40.39 17h-9.07l-6.88 21.9h-5.78c-.58 0-1-.82-.82-1.37L24.42 17h-7.76L10.2 37.32a4.5 4.5 0 0 0 .62 3.9A4.3 4.3 0 0 0 14.27 43h16.47l5.82-18.2zm44.3-1.54h8.74c2.92 0 4.98 3.14 4.1 5.93L87.02 37a9 9 0 0 1-3.16 4.35A8.5 8.5 0 0 1 78.82 43H62.66l8.4-26h7.76zm3.4 11.16 1.72-5.23a.87.87 0 0 0-.8-1.14h-5.7l-3.07 9.57h3.77c1.89 0 3.53-1.43 4.1-3.2m16.98-13.22L98.32 17H106l-1.66 5.47zM90 43h8l6-18.47h-8zm30.6-13.68h-5.27l-2.71 8.2c-.19.56.24 1.37.82 1.37h5.63L117.66 43H109a4.34 4.34 0 0 1-4.12-5.68l6.6-20.32h7.85l-2.6 7.53H122zM42.66 17H60.4a4.1 4.1 0 0 1 3.44 1.77 4.4 4.4 0 0 1 .6 3.9l-1.78 5.67a8.4 8.4 0 0 1-8.14 5.77H46.2L43.43 43h-7.69l5.83-18.2 3.76 1.27zM55.4 27.02l1.44-4.55c.18-.58-.21-1.4-.81-1.36h-5.67L47.6 30h3.74c.9 0 1.78-.28 2.5-.81a4.4 4.4 0 0 0 1.57-2.17"/></svg>