<svg xmlns="http://www.w3.org/2000/svg" width="200" height="60" viewBox="0 0 200 60"><path fill="#1C4BD0" d="M58.69 24.82 68.9 14h-11l-8.37 26.1h-7.02c-.7 0-1.21-.97-1-1.63l8-24.47h-9.43l-7.83 24.23a5.2 5.2 0 0 0 2.59 6.22q1.11.56 2.34.55h20l7.07-21.7zm53.8-1.85h10.6c3.55 0 6.06 3.76 4.99 7.08l-2.55 7.8a10.4 10.4 0 0 1-9.97 7.15H95.95l10.2-31h9.41zm4.13 13.32 2.08-6.24a1.03 1.03 0 0 0-.97-1.37h-6.94l-3.72 11.43h4.57c2.3 0 4.3-1.72 5-3.82zm20.62-15.76 2-6.53h9.33l-2 6.53zM129.14 45h9.71l7.3-22.03h-9.72zm37.16-16.32h-6.4l-3.3 9.8c-.22.65.3 1.63 1 1.63h6.84L162.73 45h-10.5a5.2 5.2 0 0 1-5.02-6.77L155.22 14h9.54l-3.15 8.97H168zM71.66 14h21.56a5.1 5.1 0 0 1 5.1 4.36q.18 1.22-.21 2.41l-2.15 6.75c-1.4 4.26-5.38 6.87-9.9 6.87h-10.1L72.6 45h-9.34l7.07-21.7 4.57 1.52zm15.48 11.95 1.75-5.43c.22-.7-.26-1.66-.98-1.63h-6.89L77.65 29.5h4.54a5.15 5.15 0 0 0 4.94-3.55"/></svg>