<svg xmlns="http://www.w3.org/2000/svg" width="620" height="468" fill="none" viewBox="0 0 620 468"><g clip-path="url(#aum342uj5)"><path fill="#000" d="M0 0h620v468H0z"/><g filter="url(#bum342uj5)"><path fill="#0CA" d="M189 109h17v91h-17v113h-2V200h-17v-91h17V18h2z"/></g><path fill="#3A1F20" d="M100 0h66v35h-66z"/><path fill="#082B24" d="M210 0h66v35h-66z"/><path fill="#CD1420" d="M100 37h66v35h-66z"/><path fill="#00614C" d="M210 37h66v35h-66z"/><path fill="#F41B2B" d="M100 74h66v35h-66z"/><path fill="#00A987" d="M210 74h66v35h-66z"/><path fill="#E6E8EF" d="M100 111h66v35h-66zM210 111h66v35h-66z"/><path fill="#F41B2B" d="M100 148h66v35h-66z"/><path fill="#02AF8C" d="M210 148h66v35h-66z"/><path fill="#CE1520" d="M100 185h66v35h-66z"/><path fill="#036853" d="M210 185h66v35h-66z"/><path fill="#CE1520" d="M100 222h66v35h-66z"/><path fill="#036853" d="M210 222h66v35h-66z"/><path fill="#CE1520" d="M100 259h66v35h-66z"/><path fill="#036853" d="M210 259h66v35h-66z"/><path fill="#3C1D1E" d="M100 296h66v35h-66z"/><path fill="#0C2D26" d="M210 296h66v35h-66z"/><path fill="#131119" d="M100 333h66v35h-66z"/><path fill="#0E1119" d="M210 333h66v35h-66z"/><path fill="#fff" d="M119.95 25V13.37h-.14l-3.74 2.48V13.5l3.88-2.6h2.5V25zM132.5 25.32q-1.68 0-2.88-.9-1.19-.9-1.84-2.55-.64-1.65-.64-3.91v-.02q0-2.27.64-3.92a5.6 5.6 0 0 1 1.84-2.54q1.2-.9 2.88-.9 1.67 0 2.87.9t1.85 2.54.64 3.92v.02q0 2.25-.64 3.91a5.7 5.7 0 0 1-1.85 2.55q-1.2.9-2.87.9m0-2.04q.9 0 1.52-.63.64-.65.97-1.84.34-1.2.34-2.85v-.02q0-1.65-.34-2.84-.33-1.2-.97-1.83a2 2 0 0 0-1.52-.63q-.9 0-1.53.63a4 4 0 0 0-.97 1.83q-.33 1.18-.33 2.84v.02q0 1.66.33 2.85.34 1.19.97 1.84.63.63 1.53.63M146.33 25v-2.7h-6.81V20.2l2.23-3.78 1.14-1.88 2.28-3.64h3.56v9.31h1.86v2.07h-1.86V25zm-4.5-4.73h4.54V12.9h-.12a100 100 0 0 0-1.79 2.83l-1.78 2.96-.85 1.47zM229.95 25V13.37h-.14l-3.74 2.48V13.5l3.88-2.6h2.5V25zM242.5 25.27q-1.5 0-2.64-.51a4.4 4.4 0 0 1-1.8-1.44 4 4 0 0 1-.75-2.12v-.12h2.4v.1q.08.6.43 1.06.36.45.96.72.61.25 1.4.25.8 0 1.39-.28.6-.29.91-.78.33-.5.33-1.14v-.02q0-1.12-.76-1.71a3.2 3.2 0 0 0-2.05-.6h-1.62v-1.87h1.58q.75 0 1.31-.28.57-.27.88-.74.31-.48.31-1.1v-.01q0-.65-.27-1.1-.26-.47-.78-.7a3 3 0 0 0-1.24-.25q-.72 0-1.28.25-.55.25-.88.7-.33.46-.39 1.1v.09h-2.34v-.11q.12-1.22.74-2.12a4 4 0 0 1 1.69-1.4q1.06-.5 2.46-.5 1.43 0 2.48.46 1.07.48 1.64 1.31.6.84.59 1.94v.02a3.1 3.1 0 0 1-1.42 2.64q-.65.44-1.47.62v.05q1.52.15 2.45 1.03.93.89.93 2.34v.02q0 1.23-.66 2.2a4.4 4.4 0 0 1-1.82 1.48q-1.15.52-2.7.52M251.1 25l6.37-11.9v-.13h-7.56V10.9H260V13L253.73 25zM120.12 62.32q-1.12 0-2.14-.4a5 5 0 0 1-1.78-1.3 6 6 0 0 1-1.22-2.22q-.45-1.36-.44-3.27v-.01q0-2.37.67-4.06a5.6 5.6 0 0 1 1.94-2.58 5 5 0 0 1 3.02-.9q1.29 0 2.31.47 1.05.48 1.7 1.3.69.85.9 1.9l.03.12h-2.48l-.03-.1a2.5 2.5 0 0 0-1.34-1.42q-.47-.2-1.1-.2-1.09 0-1.78.66a4 4 0 0 0-1.05 1.76 9 9 0 0 0-.4 2.72v.28l.43 2.35q0 .8.36 1.45.37.65 1 1.03.6.37 1.38.37.75 0 1.38-.37t.98-1q.37-.64.37-1.42v-.02q0-.81-.35-1.44a2.67 2.67 0 0 0-2.36-1.35q-.78 0-1.4.36a2.6 2.6 0 0 0-1 .96q-.36.62-.36 1.42v.01h-.58v-2.55h.31q.26-.58.75-1.06.5-.5 1.23-.78a5 5 0 0 1 1.68-.3q1.35 0 2.36.6 1.03.6 1.6 1.66.59 1.05.58 2.38v.02q0 1.43-.66 2.55a5 5 0 0 1-1.84 1.75 5.5 5.5 0 0 1-2.67.63M132.5 62.32q-1.68 0-2.88-.9-1.19-.9-1.84-2.55-.64-1.65-.64-3.91v-.02q0-2.27.64-3.92a5.6 5.6 0 0 1 1.84-2.54q1.2-.9 2.88-.9 1.67 0 2.87.9t1.85 2.54.64 3.92v.02q0 2.26-.64 3.91a5.7 5.7 0 0 1-1.85 2.55q-1.2.9-2.87.9m0-2.04q.9 0 1.52-.63.64-.65.97-1.84.34-1.2.34-2.85v-.02q0-1.65-.34-2.84-.33-1.2-.97-1.83a2 2 0 0 0-1.52-.63q-.9 0-1.53.63a4 4 0 0 0-.97 1.83q-.33 1.18-.33 2.84v.02q0 1.66.33 2.85.34 1.19.97 1.84.63.63 1.53.63M140.33 62v-1.7l4.59-4.76q.93-.95 1.44-1.57t.7-1.1q.22-.49.21-1.02v-.03q0-.64-.28-1.14-.27-.5-.78-.79t-1.2-.3q-.73 0-1.3.32-.54.31-.85.86-.3.54-.31 1.26l-.01.05h-2.35v-.04q0-1.3.63-2.32.63-1 1.74-1.57a5.5 5.5 0 0 1 2.54-.56q1.36 0 2.4.51 1.05.52 1.65 1.43t.6 2.09v.03q0 .8-.29 1.55-.3.75-1 1.64t-1.96 2.11L143 60.44l.72-1.24v1.24l-.72-.52h6.97V62zM230.08 62.32q-1.45 0-2.54-.53a4.5 4.5 0 0 1-1.74-1.46 4 4 0 0 1-.74-2.08l-.01-.13h2.33l.01.07q.1.58.46 1.06a2.7 2.7 0 0 0 2.24 1.02q.82 0 1.44-.36.63-.36.98-1 .36-.62.35-1.46v-.02a3 3 0 0 0-.35-1.45 2.5 2.5 0 0 0-.98-.97 3 3 0 0 0-1.42-.36q-.6 0-1.1.17a2.7 2.7 0 0 0-1.25.9q-.15.18-.3.43h-2.17l.69-8.24h8.46v2.06h-6.49l-.4 4.28h.15q.3-.49.75-.81.46-.34 1.03-.51.6-.2 1.25-.19a4.5 4.5 0 0 1 3.95 2.25q.58 1.05.58 2.4v.02q0 1.46-.66 2.57a4.6 4.6 0 0 1-1.84 1.73q-1.15.6-2.68.61m12.56 0q-1.45 0-2.54-.53a4.5 4.5 0 0 1-1.74-1.46 4 4 0 0 1-.74-2.08l-.01-.13h2.33l.01.07q.1.58.46 1.06a2.7 2.7 0 0 0 2.24 1.02q.82 0 1.44-.36.63-.36.98-1 .35-.62.35-1.46v-.02a3 3 0 0 0-.35-1.45 2.5 2.5 0 0 0-.98-.97 3 3 0 0 0-1.42-.36q-.6 0-1.1.17a2.7 2.7 0 0 0-1.25.9q-.15.18-.3.43h-2.17l.69-8.24H247v2.06h-6.5l-.38 4.28h.13q.3-.49.76-.81.46-.34 1.03-.51.59-.2 1.25-.19a4.5 4.5 0 0 1 3.95 2.25q.58 1.05.58 2.4v.02q0 1.46-.66 2.57a4.7 4.7 0 0 1-1.84 1.73q-1.16.6-2.68.61m8.46-.32 6.37-11.9v-.13h-7.56V47.9H260V50L253.73 62z"/><path fill="#fff" d="M230.08 62.32q-1.45 0-2.54-.53a4.5 4.5 0 0 1-1.74-1.46 4 4 0 0 1-.74-2.08l-.01-.13h2.33l.01.07q.1.58.46 1.06a2.7 2.7 0 0 0 2.24 1.02q.82 0 1.44-.36.63-.36.98-1 .35-.62.35-1.46v-.02a3 3 0 0 0-.35-1.45 2.5 2.5 0 0 0-.98-.97 3 3 0 0 0-1.42-.36q-.6 0-1.1.17a2.7 2.7 0 0 0-1.25.9q-.15.18-.3.43h-2.17l.69-8.24h8.46v2.06h-6.5l-.38 4.28h.13q.3-.49.76-.81.46-.34 1.03-.51.6-.2 1.25-.19a4.5 4.5 0 0 1 3.95 2.25q.58 1.05.58 2.4v.02q0 1.46-.66 2.57a4.7 4.7 0 0 1-1.84 1.73q-1.16.6-2.68.61M242.64 62.32q-1.45 0-2.54-.53a4.5 4.5 0 0 1-1.74-1.46 4 4 0 0 1-.74-2.08l-.01-.13h2.33l.01.07q.1.58.46 1.06a2.7 2.7 0 0 0 2.24 1.02q.81 0 1.44-.36t.98-1q.35-.62.35-1.46v-.02a3 3 0 0 0-.35-1.45 2.5 2.5 0 0 0-.98-.97 3 3 0 0 0-1.43-.36q-.6 0-1.1.17a2.7 2.7 0 0 0-1.24.9q-.16.18-.3.43h-2.17l.68-8.24H247v2.06h-6.5l-.38 4.28h.13q.3-.49.75-.81.47-.34 1.04-.51.59-.2 1.25-.19a4.5 4.5 0 0 1 3.95 2.25q.58 1.05.58 2.4v.02q0 1.46-.66 2.57a4.6 4.6 0 0 1-1.84 1.73q-1.16.6-2.68.61M251.1 62l6.37-11.9v-.13h-7.56V47.9H260V50L253.73 62zM121.21 99v-2.7h-6.8V94.2l2.22-3.78 1.14-1.88 1.15-1.84 1.14-1.8h3.55v9.31h1.87v2.07h-1.87V99zm-4.5-4.73h4.54V86.9h-.12a110 110 0 0 0-2.68 4.3l-.88 1.5q-.45.72-.85 1.46zM127.77 99v-1.7l4.6-4.76q.92-.95 1.43-1.57t.71-1.1.2-1.02v-.03q0-.64-.28-1.14-.27-.5-.78-.79t-1.2-.3q-.73 0-1.29.32-.54.31-.86.86-.3.54-.31 1.26l-.01.05h-2.34v-.04q0-1.3.62-2.32.63-1 1.74-1.57a5.5 5.5 0 0 1 2.54-.56q1.36 0 2.41.51 1.05.52 1.64 1.43.6.9.6 2.09v.03q0 .8-.29 1.55-.3.75-1 1.64t-1.96 2.11l-3.51 3.49.72-1.24v1.24l-.72-.52h6.97V99zM145.07 99V87.37h-.15l-3.73 2.48V87.5l3.88-2.6h2.5V99zM229.77 84.59q1.11 0 2.13.42 1 .4 1.77 1.28.78.86 1.22 2.23.45 1.35.45 3.25v.02q0 2.37-.67 4.06a5.06 5.06 0 0 1-4.96 3.48q-1.29 0-2.32-.48a5 5 0 0 1-1.7-1.3 4.3 4.3 0 0 1-.9-1.9l-.01-.1h2.47l.03.08q.2.49.52.86.34.37.82.58.5.2 1.1.2a2.5 2.5 0 0 0 1.78-.66q.7-.67 1.04-1.77a9 9 0 0 0 .4-2.73v-.27l-.42-2.35a2.8 2.8 0 0 0-1.36-2.47 2.6 2.6 0 0 0-1.37-.38A2.7 2.7 0 0 0 227.4 88q-.37.64-.37 1.42v.02q0 .81.35 1.44a2.6 2.6 0 0 0 2.37 1.34q.78 0 1.4-.35.63-.35.99-.97.37-.6.37-1.41v-.01h.58v2.55h-.3q-.27.57-.77 1.06t-1.23.78q-.72.3-1.67.3-1.34 0-2.36-.6a4.3 4.3 0 0 1-1.6-1.66q-.58-1.05-.58-2.38v-.02q0-1.43.66-2.55a4.7 4.7 0 0 1 1.84-1.75 5.5 5.5 0 0 1 2.68-.63M242.5 99.27q-1.5 0-2.64-.51a4.4 4.4 0 0 1-1.8-1.44 4 4 0 0 1-.75-2.12v-.12h2.4v.1q.08.6.43 1.06.36.45.96.72.61.25 1.4.25.8 0 1.39-.28.6-.28.91-.78.33-.5.33-1.14v-.02q0-1.12-.76-1.71a3.2 3.2 0 0 0-2.05-.6h-1.62v-1.87h1.58q.75 0 1.31-.28.57-.27.88-.74t.31-1.1v-.01q0-.65-.27-1.1-.26-.47-.78-.7a3 3 0 0 0-1.24-.25q-.72 0-1.28.25-.55.25-.88.7-.33.46-.39 1.1v.09h-2.34v-.11q.12-1.22.74-2.12a4 4 0 0 1 1.69-1.4q1.06-.5 2.46-.5 1.43 0 2.48.46 1.07.47 1.64 1.31.6.83.59 1.94v.02a3.1 3.1 0 0 1-1.42 2.64q-.65.44-1.47.62v.05q1.52.15 2.45 1.03.93.89.93 2.34v.02q0 1.23-.66 2.2a4.4 4.4 0 0 1-1.82 1.48q-1.15.52-2.7.52M250.33 99v-1.7l4.59-4.76q.93-.95 1.44-1.57t.7-1.1.21-1.02v-.03q0-.64-.28-1.14-.27-.5-.78-.79t-1.2-.3q-.73 0-1.3.32-.54.31-.85.86-.3.54-.31 1.26l-.01.05h-2.35v-.04q0-1.3.63-2.32.63-1 1.74-1.57a5.5 5.5 0 0 1 2.54-.56q1.36 0 2.4.51 1.05.52 1.65 1.43t.6 2.09v.03q0 .8-.29 1.55-.3.75-1 1.64t-1.96 2.11L253 97.44l.72-1.24v1.24l-.72-.52h6.97V99z"/><path fill="#000" d="M119.94 136.27q-1.6 0-2.81-.51a4.6 4.6 0 0 1-1.91-1.44 3.5 3.5 0 0 1-.7-2.14v-.02a3.4 3.4 0 0 1 1.5-2.88 4 4 0 0 1 1.65-.7v-.05q-1.2-.33-1.92-1.15a3 3 0 0 1-.72-1.98v-.02q0-1.08.62-1.92.64-.84 1.74-1.34a6 6 0 0 1 2.55-.48q1.44 0 2.54.48a4 4 0 0 1 1.74 1.34q.63.84.63 1.93v.01a3 3 0 0 1-.73 1.98q-.72.82-1.9 1.15v.06q.9.18 1.62.7.7.49 1.11 1.23.4.75.4 1.64v.02q0 1.2-.7 2.14a4.5 4.5 0 0 1-1.9 1.44q-1.2.51-2.8.51m0-1.92q.82 0 1.46-.3.63-.3 1-.82.35-.53.35-1.21V132q0-.69-.36-1.22a2.4 2.4 0 0 0-.98-.82q-.64-.3-1.47-.3t-1.46.3-1 .82q-.35.54-.35 1.22v.02q0 .67.35 1.2.36.53 1 .84t1.46.29m0-6.62q.72 0 1.26-.27.55-.25.85-.73t.31-1.1v-.01q0-.61-.3-1.09-.32-.46-.86-.73a3 3 0 0 0-1.26-.26q-.71 0-1.26.26-.54.27-.86.73-.3.48-.31 1.09v.02a2 2 0 0 0 1.17 1.83q.56.26 1.26.26M132.5 136.32q-1.68 0-2.88-.9a5.7 5.7 0 0 1-1.84-2.54q-.64-1.65-.64-3.92v-.02q0-2.27.64-3.92a5.6 5.6 0 0 1 1.84-2.54q1.2-.9 2.88-.9 1.67 0 2.87.9a5.6 5.6 0 0 1 1.85 2.54q.64 1.65.64 3.92v.02q0 2.25-.64 3.91a5.7 5.7 0 0 1-1.85 2.55q-1.2.9-2.87.9m0-2.04q.9 0 1.52-.63.64-.65.97-1.84.34-1.2.34-2.85v-.02q0-1.65-.34-2.84-.33-1.2-.97-1.83a2 2 0 0 0-1.52-.63q-.9 0-1.53.63a4 4 0 0 0-.97 1.83q-.33 1.18-.33 2.84v.02q0 1.66.33 2.85.34 1.19.97 1.84.63.63 1.53.63M145.07 136v-11.63h-.15l-3.73 2.48v-2.35l3.88-2.6h2.5V136zM223.67 136v-11.63h-.14l-3.73 2.48v-2.35l3.87-2.6h2.5V136zM236.23 136.27q-1.5 0-2.64-.51a4.5 4.5 0 0 1-1.8-1.44 4 4 0 0 1-.75-2.12l-.01-.12h2.4v.1q.08.6.43 1.06.36.45.96.72.6.25 1.41.25t1.38-.28q.6-.28.92-.78t.32-1.14v-.02q0-1.12-.75-1.71a3.2 3.2 0 0 0-2.05-.6h-1.62v-1.87H236q.75 0 1.32-.28.56-.27.88-.74.3-.47.3-1.1v-.01q0-.65-.27-1.1-.26-.47-.78-.7a3 3 0 0 0-1.24-.25q-.72 0-1.28.25-.55.25-.88.7-.33.46-.39 1.1v.09h-2.34v-.11a4.3 4.3 0 0 1 .74-2.12q.64-.91 1.7-1.4 1.05-.5 2.45-.5 1.43 0 2.48.46 1.07.48 1.64 1.31.6.84.59 1.94v.02a3.1 3.1 0 0 1-1.42 2.64q-.64.44-1.47.62v.05q1.52.15 2.45 1.03t.93 2.34v.02q0 1.24-.66 2.2a4.4 4.4 0 0 1-1.81 1.48q-1.17.52-2.7.52M244.05 136v-1.7l4.6-4.76a29 29 0 0 0 1.43-1.57q.51-.62.71-1.1.2-.5.2-1.02v-.03q0-.63-.28-1.14-.27-.5-.78-.79t-1.2-.3q-.74 0-1.29.32-.54.31-.86.86-.3.54-.31 1.26l-.01.05h-2.34v-.04q0-1.31.62-2.32.64-1 1.74-1.57a5.5 5.5 0 0 1 2.54-.56q1.36 0 2.41.51 1.04.52 1.64 1.43t.6 2.09v.03q0 .8-.29 1.55-.3.75-1 1.64a25 25 0 0 1-1.96 2.11l-3.51 3.49.72-1.24v1.24l-.72-.52h6.97V136zM261.35 136v-11.63h-.15l-3.73 2.48v-2.35l3.88-2.6h2.5V136z"/><path fill="#fff" d="M121.21 173v-2.7h-6.8v-2.09a309 309 0 0 1 3.36-5.66l1.15-1.84 1.14-1.8h3.55v9.31h1.87v2.07h-1.87V173zm-4.5-4.73h4.54v-7.37h-.12a119 119 0 0 0-2.68 4.3l-.88 1.5q-.45.72-.85 1.46zM132.5 173v-11.63h-.14l-3.73 2.48v-2.35l3.88-2.6h2.5V173zM140.33 173v-1.7l4.59-4.76a28 28 0 0 0 1.44-1.57q.51-.62.7-1.1.22-.49.21-1.02v-.03q0-.63-.28-1.14-.27-.5-.78-.79t-1.2-.3q-.73 0-1.3.32-.54.31-.85.86-.3.54-.31 1.26l-.01.05h-2.35v-.04q0-1.3.63-2.31t1.74-1.58a5.5 5.5 0 0 1 2.54-.56q1.36 0 2.4.51 1.05.52 1.65 1.43t.6 2.09v.03q0 .8-.29 1.55-.3.75-1 1.64t-1.96 2.11l-3.51 3.49.72-1.24v1.24l-.72-.52h6.97V173zM231.21 173v-2.7h-6.8v-2.09a309 309 0 0 1 3.36-5.66l1.15-1.84 1.14-1.8h3.55v9.31h1.87v2.07h-1.87V173zm-4.5-4.73h4.54v-7.37h-.12a119 119 0 0 0-3.56 5.8q-.45.72-.85 1.46zM242.5 173.32q-1.68 0-2.88-.9a5.7 5.7 0 0 1-1.84-2.54q-.64-1.65-.64-3.92v-.02q0-2.27.64-3.92a5.6 5.6 0 0 1 1.84-2.54q1.2-.9 2.88-.9 1.67 0 2.87.9a5.6 5.6 0 0 1 1.85 2.54q.64 1.65.64 3.92v.02q0 2.25-.64 3.91a5.7 5.7 0 0 1-1.85 2.55q-1.2.9-2.87.9m0-2.04q.9 0 1.52-.63.64-.65.97-1.84.34-1.2.34-2.85v-.02q0-1.66-.34-2.84-.33-1.2-.97-1.83a2 2 0 0 0-1.52-.63q-.9 0-1.53.63a4 4 0 0 0-.97 1.83q-.33 1.17-.33 2.84v.02q0 1.66.33 2.85.34 1.19.97 1.84.63.63 1.53.63M255.07 173.27q-1.52 0-2.65-.51a4.5 4.5 0 0 1-1.8-1.44 4 4 0 0 1-.75-2.12v-.12h2.4v.1q.08.6.42 1.06.37.45.97.72.6.25 1.4.25t1.38-.28q.6-.28.92-.78t.32-1.14v-.02q0-1.12-.75-1.71a3.2 3.2 0 0 0-2.05-.6h-1.62v-1.87h1.57q.76 0 1.32-.28.57-.27.88-.74.3-.48.31-1.1v-.01q0-.65-.27-1.1-.27-.47-.78-.7a3 3 0 0 0-1.24-.25q-.73 0-1.28.25t-.88.7q-.33.46-.4 1.1v.09h-2.34l.01-.11a4.3 4.3 0 0 1 .74-2.12q.63-.9 1.69-1.4t2.46-.5q1.42 0 2.48.46 1.05.47 1.64 1.31t.58 1.94v.02a3.1 3.1 0 0 1-1.41 2.64q-.64.44-1.48.62v.05q1.53.15 2.45 1.03t.93 2.34v.02q0 1.24-.65 2.2a4.4 4.4 0 0 1-1.82 1.48q-1.15.52-2.7.52M119.95 210.27q-1.5 0-2.64-.51a4.4 4.4 0 0 1-1.8-1.44 4 4 0 0 1-.75-2.12l-.01-.12h2.4v.1q.08.6.43 1.06.36.45.97.72.6.25 1.4.25t1.38-.28q.6-.28.92-.78t.32-1.14v-.02q0-1.12-.75-1.71-.75-.6-2.05-.6h-1.62v-1.87h1.57q.75 0 1.31-.28.58-.27.88-.74.32-.48.32-1.1v-.01q0-.65-.28-1.1-.26-.47-.78-.7a3 3 0 0 0-1.24-.25q-.72 0-1.28.25-.55.25-.88.7-.33.46-.39 1.1v.09h-2.34v-.11a4.3 4.3 0 0 1 .74-2.12q.63-.9 1.7-1.4 1.05-.5 2.45-.5 1.43 0 2.48.46 1.07.47 1.64 1.31.6.84.59 1.94v.02a3.1 3.1 0 0 1-1.42 2.64q-.65.45-1.47.62v.05q1.52.15 2.45 1.03t.93 2.34v.02q0 1.24-.66 2.2a4.4 4.4 0 0 1-1.81 1.48q-1.17.52-2.7.52M132.68 210.32q-1.13 0-2.14-.4a5 5 0 0 1-1.78-1.3 6 6 0 0 1-1.22-2.22q-.45-1.36-.44-3.27v-.01q0-2.37.67-4.06a5.6 5.6 0 0 1 1.94-2.58q1.27-.9 3.01-.9 1.29 0 2.32.47a4.6 4.6 0 0 1 1.7 1.3q.69.84.9 1.9l.03.12h-2.48l-.03-.1a2.5 2.5 0 0 0-1.34-1.42q-.48-.2-1.1-.2-1.08 0-1.78.66a4 4 0 0 0-1.05 1.76 9 9 0 0 0-.4 2.72v.28l.43 2.35q0 .8.36 1.46.38.65.99 1.02.6.37 1.38.37t1.38-.37q.63-.37.99-1 .37-.64.37-1.42v-.02q0-.81-.35-1.44a2.67 2.67 0 0 0-2.36-1.35q-.78 0-1.41.36a2.6 2.6 0 0 0-1.35 2.38v.01h-.58v-2.55h.3q.27-.57.76-1.06a4 4 0 0 1 1.23-.78 5 5 0 0 1 1.68-.3q1.34 0 2.36.6 1.03.6 1.6 1.66.58 1.05.58 2.38v.02q0 1.43-.66 2.55a5 5 0 0 1-1.84 1.75 5.5 5.5 0 0 1-2.67.63M140.33 210v-1.7l4.59-4.76a28 28 0 0 0 1.44-1.57q.51-.62.7-1.1.22-.49.21-1.02v-.03q0-.63-.28-1.14-.27-.5-.78-.79t-1.2-.3q-.73 0-1.3.32-.54.31-.85.86-.3.54-.31 1.26l-.01.05h-2.35v-.04q0-1.3.63-2.31t1.74-1.58a5.5 5.5 0 0 1 2.54-.56q1.36 0 2.4.51 1.05.52 1.65 1.43t.6 2.09v.03q0 .8-.29 1.55-.3.75-1 1.64t-1.96 2.11l-3.51 3.49.72-1.24v1.24l-.72-.52h6.97V210zM225.22 210v-1.7l4.59-4.76q.93-.95 1.43-1.57.51-.62.71-1.1t.2-1.02v-.03q0-.63-.28-1.14-.27-.5-.78-.79t-1.2-.3q-.73 0-1.29.32-.54.31-.86.86-.3.54-.3 1.26l-.02.05h-2.34v-.04q0-1.3.62-2.31.64-1.01 1.74-1.58a5.5 5.5 0 0 1 2.54-.56q1.37 0 2.41.51 1.05.52 1.64 1.43.6.9.6 2.09v.03q0 .8-.28 1.55a7 7 0 0 1-1.01 1.64 25 25 0 0 1-1.95 2.11l-3.52 3.49.72-1.24v1.24l-.72-.52h6.97V210zM242.32 195.59q1.13 0 2.13.42 1.01.4 1.78 1.28.78.87 1.22 2.23.45 1.36.45 3.25v.02q0 2.37-.67 4.06a5.06 5.06 0 0 1-4.96 3.48q-1.29 0-2.32-.48a5 5 0 0 1-1.7-1.3 4.3 4.3 0 0 1-.9-1.9l-.02-.1h2.47l.04.08q.2.49.52.86.34.37.82.58.5.2 1.1.2a2.5 2.5 0 0 0 1.78-.66q.69-.67 1.04-1.77a9 9 0 0 0 .4-2.74v-.26l-.42-2.35a2.8 2.8 0 0 0-1.36-2.47 2.6 2.6 0 0 0-1.38-.38 2.7 2.7 0 0 0-2.37 1.37q-.37.64-.37 1.42v.02q0 .8.35 1.45a2.6 2.6 0 0 0 2.36 1.33q.8 0 1.41-.35.63-.35.99-.97.36-.6.37-1.41v-.01h.57v2.55h-.3q-.25.57-.76 1.06a4 4 0 0 1-1.23.78q-.72.3-1.67.3-1.34 0-2.37-.6a4.3 4.3 0 0 1-1.6-1.66q-.57-1.05-.57-2.38v-.02q0-1.43.66-2.55a4.7 4.7 0 0 1 1.84-1.75 5.5 5.5 0 0 1 2.67-.63M256.33 210v-2.7h-6.81v-2.09l2.23-3.78 1.14-1.88 2.28-3.64h3.56v9.31h1.86v2.07h-1.86V210zm-4.5-4.73h4.54v-7.37h-.12a107 107 0 0 0-2.69 4.3l-1.73 2.96zM120.08 247.32a6 6 0 0 1-2.54-.53 4.5 4.5 0 0 1-1.74-1.46 4 4 0 0 1-.74-2.08l-.01-.13h2.33l.01.07q.1.58.46 1.06a2.7 2.7 0 0 0 2.24 1.02q.83 0 1.44-.36.63-.36.98-1 .35-.62.35-1.46v-.02a3 3 0 0 0-.35-1.45 2.5 2.5 0 0 0-.98-.97 3 3 0 0 0-1.42-.36q-.6 0-1.1.17a2.7 2.7 0 0 0-1.25.9q-.15.19-.3.43h-2.17l.69-8.24h8.46v2.06h-6.5l-.38 4.28h.13q.3-.49.76-.81.46-.35 1.03-.51.6-.2 1.25-.19a4.5 4.5 0 0 1 3.95 2.25q.58 1.05.58 2.4v.02q0 1.46-.66 2.57a4.7 4.7 0 0 1-1.84 1.73q-1.16.6-2.68.61M132.68 247.32q-1.13 0-2.14-.4a5 5 0 0 1-1.78-1.3 6 6 0 0 1-1.22-2.22q-.45-1.36-.44-3.27v-.01q0-2.37.67-4.06a5.6 5.6 0 0 1 1.94-2.58q1.27-.9 3.01-.9 1.29 0 2.32.47a4.6 4.6 0 0 1 1.7 1.3q.69.84.9 1.9l.03.12h-2.48l-.03-.1a2.5 2.5 0 0 0-1.34-1.42q-.48-.2-1.1-.2-1.08 0-1.78.66a4 4 0 0 0-1.05 1.76 9 9 0 0 0-.4 2.72v.28l.43 2.35q0 .8.36 1.46.38.65.99 1.02.6.37 1.38.37t1.38-.37q.63-.37.99-1 .37-.64.37-1.42v-.02q0-.81-.35-1.44a2.67 2.67 0 0 0-2.36-1.35q-.78 0-1.41.36a2.6 2.6 0 0 0-1.35 2.38v.01h-.58v-2.55h.3q.27-.57.76-1.06a4 4 0 0 1 1.23-.78 5 5 0 0 1 1.68-.3q1.34 0 2.36.6 1.03.6 1.6 1.66.58 1.05.58 2.38v.02q0 1.43-.66 2.55a5 5 0 0 1-1.84 1.75 5.5 5.5 0 0 1-2.67.63M145.07 247.27q-1.52 0-2.65-.51a4.5 4.5 0 0 1-1.8-1.44 4 4 0 0 1-.75-2.12v-.12h2.4v.1q.07.6.42 1.06.37.45.97.72.6.25 1.4.25t1.38-.28q.6-.28.92-.78t.32-1.14v-.02q0-1.12-.75-1.71a3.2 3.2 0 0 0-2.05-.6h-1.62v-1.87h1.57q.76 0 1.32-.28.57-.27.88-.74.3-.48.31-1.1v-.01q0-.65-.27-1.1-.27-.47-.78-.7a3 3 0 0 0-1.24-.25q-.73 0-1.28.25t-.88.7q-.33.46-.4 1.1v.09h-2.34l.01-.11a4.3 4.3 0 0 1 .74-2.12q.63-.9 1.69-1.4t2.46-.5q1.42 0 2.48.46 1.05.47 1.64 1.31t.58 1.94v.02a3.1 3.1 0 0 1-1.41 2.64q-.64.45-1.48.62v.05q1.53.15 2.45 1.03t.93 2.34v.02q0 1.24-.65 2.2a4.4 4.4 0 0 1-1.82 1.48q-1.16.52-2.7.52M231.21 247v-2.7h-6.8v-2.09a309 309 0 0 1 3.36-5.66l1.15-1.84 1.14-1.8h3.55v9.31h1.87v2.07h-1.87V247zm-4.5-4.73h4.54v-7.37h-.12a119 119 0 0 0-3.56 5.8q-.45.72-.85 1.46zM242.68 247.32q-1.13 0-2.14-.4a5 5 0 0 1-1.78-1.3 6 6 0 0 1-1.22-2.22q-.44-1.36-.44-3.27v-.01q0-2.37.67-4.06a5.6 5.6 0 0 1 1.94-2.58q1.26-.9 3.01-.9 1.29 0 2.32.47a4.6 4.6 0 0 1 1.7 1.3q.69.84.9 1.9l.03.12h-2.48l-.03-.1a2.5 2.5 0 0 0-1.34-1.42q-.48-.2-1.1-.2-1.08 0-1.78.66a4 4 0 0 0-1.05 1.76 9 9 0 0 0-.4 2.72v.28l.43 2.35q0 .8.36 1.46.37.65.99 1.02.6.37 1.38.37t1.38-.37q.63-.37.99-1 .37-.64.37-1.42v-.02q0-.81-.35-1.44a2.67 2.67 0 0 0-2.36-1.35q-.78 0-1.41.36a2.6 2.6 0 0 0-1.35 2.38v.01h-.58v-2.55h.3q.27-.57.76-1.06a4 4 0 0 1 1.23-.78 5 5 0 0 1 1.68-.3q1.34 0 2.36.6 1.03.6 1.6 1.66.58 1.05.58 2.38v.02q0 1.43-.66 2.55a5 5 0 0 1-1.84 1.75 5.5 5.5 0 0 1-2.67.63M255.06 247.27q-1.6 0-2.81-.51a4.6 4.6 0 0 1-1.92-1.44 3.5 3.5 0 0 1-.7-2.14v-.02a3.4 3.4 0 0 1 1.51-2.88 4 4 0 0 1 1.64-.7v-.05q-1.2-.33-1.91-1.15a3 3 0 0 1-.72-1.98v-.02q0-1.08.62-1.92.63-.84 1.74-1.34a6 6 0 0 1 2.55-.49q1.43 0 2.54.5 1.11.49 1.73 1.33.64.84.64 1.92v.02a3 3 0 0 1-.73 1.98q-.73.82-1.9 1.15v.06q.91.18 1.61.7.72.49 1.12 1.23.4.75.4 1.64v.02q0 1.2-.7 2.14a4.5 4.5 0 0 1-1.9 1.44q-1.21.51-2.81.51m0-1.92q.81 0 1.45-.3t1-.82.36-1.21V243q0-.69-.36-1.22a2.4 2.4 0 0 0-.99-.82q-.63-.3-1.46-.3-.84 0-1.47.3t-1 .82q-.34.54-.34 1.22v.02q0 .67.35 1.2.36.53 1 .84.63.3 1.46.29m0-6.62q.72 0 1.26-.26.54-.27.85-.74t.3-1.1v-.01q0-.61-.3-1.09-.3-.46-.85-.73a3 3 0 0 0-1.26-.26q-.72 0-1.26.26-.55.27-.86.73-.31.48-.31 1.09v.02a2 2 0 0 0 1.17 1.83q.54.26 1.26.26M120.08 284.32a6 6 0 0 1-2.54-.52 4.5 4.5 0 0 1-1.74-1.47 4 4 0 0 1-.74-2.08l-.01-.13h2.33l.01.07q.1.58.46 1.06a2.7 2.7 0 0 0 2.24 1.02q.83 0 1.44-.36.63-.36.98-1 .35-.62.35-1.46v-.02a3 3 0 0 0-.35-1.45 2.5 2.5 0 0 0-.98-.97 3 3 0 0 0-1.42-.36q-.6 0-1.1.17a2.7 2.7 0 0 0-1.25.9q-.15.18-.3.43h-2.17l.69-8.24h8.46v2.06h-6.5l-.38 4.28h.13q.3-.49.76-.81.46-.34 1.03-.51.6-.2 1.25-.19a4.5 4.5 0 0 1 3.95 2.25q.58 1.05.58 2.4v.02q0 1.46-.66 2.57a4.7 4.7 0 0 1-1.84 1.73q-1.16.6-2.68.61M132.68 284.32q-1.13 0-2.14-.4a5 5 0 0 1-1.78-1.3 6 6 0 0 1-1.22-2.22q-.45-1.37-.44-3.26v-.02q0-2.37.67-4.06a5.6 5.6 0 0 1 1.94-2.58q1.27-.9 3.01-.9 1.29 0 2.32.48a4.6 4.6 0 0 1 1.7 1.3q.69.82.9 1.9l.03.1h-2.48l-.03-.08a2.5 2.5 0 0 0-1.34-1.43q-.48-.2-1.1-.2-1.08 0-1.78.66a4 4 0 0 0-1.05 1.76 9 9 0 0 0-.4 2.72v.28l.43 2.35q0 .8.36 1.45.38.66.99 1.03.6.37 1.38.37t1.38-.37q.63-.37.99-1 .37-.64.37-1.42v-.02q0-.81-.35-1.44a2.67 2.67 0 0 0-2.36-1.35q-.78 0-1.41.36a2.6 2.6 0 0 0-1.35 2.38v.01h-.58v-2.55h.3q.27-.58.76-1.06a4 4 0 0 1 1.23-.79 5 5 0 0 1 1.68-.29q1.34 0 2.36.6 1.03.6 1.6 1.66.58 1.05.58 2.38v.02q0 1.43-.66 2.55a5 5 0 0 1-1.84 1.75 5.5 5.5 0 0 1-2.67.63M145.06 284.27q-1.6 0-2.81-.51a4.6 4.6 0 0 1-1.92-1.44 3.5 3.5 0 0 1-.7-2.14v-.02a3.4 3.4 0 0 1 1.51-2.88 4 4 0 0 1 1.64-.7v-.05q-1.2-.33-1.91-1.15a3 3 0 0 1-.72-1.98v-.01q0-1.1.62-1.93.63-.84 1.74-1.34a6 6 0 0 1 2.55-.49q1.43 0 2.54.5 1.11.48 1.73 1.33.64.84.64 1.93v.01a3 3 0 0 1-.73 1.98q-.73.82-1.9 1.15v.06q.91.18 1.61.7.72.49 1.12 1.23.4.75.4 1.64v.02q0 1.2-.7 2.14a4.5 4.5 0 0 1-1.9 1.44q-1.21.51-2.81.51m0-1.92q.81 0 1.45-.3t1-.82.36-1.21V280q0-.69-.36-1.21a2.4 2.4 0 0 0-.99-.84q-.63-.3-1.46-.3-.84 0-1.47.3t-1 .84q-.34.53-.34 1.2v.03q0 .68.35 1.2.36.53 1 .84.63.3 1.46.29m0-6.62q.72 0 1.26-.27.55-.25.85-.73.3-.47.3-1.1v-.01q0-.62-.3-1.08t-.85-.74a3 3 0 0 0-1.26-.26q-.72 0-1.26.26-.55.27-.86.74t-.31 1.08v.02a2 2 0 0 0 1.17 1.82q.54.27 1.26.27M229.95 284.27q-1.5 0-2.64-.51a4.4 4.4 0 0 1-1.8-1.44 4 4 0 0 1-.75-2.12l-.01-.12h2.4v.1q.08.6.43 1.06.36.45.96.72.6.25 1.41.25t1.38-.28q.6-.29.92-.78t.32-1.14v-.02q0-1.12-.75-1.71-.75-.6-2.05-.6h-1.62v-1.87h1.57q.75 0 1.31-.28.58-.27.88-.74.32-.47.32-1.1v-.01q0-.65-.28-1.1-.25-.47-.78-.7a3 3 0 0 0-1.24-.25q-.72 0-1.28.25-.54.25-.88.7-.33.47-.39 1.1v.09h-2.34v-.11a4.3 4.3 0 0 1 .74-2.12q.63-.91 1.7-1.4 1.05-.5 2.45-.5 1.43 0 2.48.46 1.07.47 1.64 1.31.6.83.59 1.94v.01a3.1 3.1 0 0 1-1.42 2.65q-.64.44-1.47.62v.05q1.52.15 2.45 1.03t.93 2.35v.01q0 1.23-.66 2.2a4.4 4.4 0 0 1-1.81 1.48q-1.17.52-2.7.52M242.32 269.59q1.13 0 2.13.42 1.01.4 1.78 1.28.78.86 1.22 2.23.45 1.36.45 3.25v.02q0 2.37-.67 4.06a5.06 5.06 0 0 1-4.96 3.48q-1.29 0-2.32-.48a5 5 0 0 1-1.7-1.3 4.3 4.3 0 0 1-.9-1.9l-.02-.1h2.47l.04.08q.2.49.52.86.34.37.82.58.5.2 1.1.2a2.5 2.5 0 0 0 1.78-.66q.69-.66 1.04-1.77a9 9 0 0 0 .4-2.73v-.27l-.42-2.35a2.8 2.8 0 0 0-1.36-2.47 2.6 2.6 0 0 0-1.38-.38 2.7 2.7 0 0 0-2.37 1.37q-.37.64-.37 1.42v.02q0 .81.35 1.44a2.6 2.6 0 0 0 2.36 1.34q.8 0 1.41-.35.63-.35.99-.97.36-.6.37-1.41v-.01h.57v2.55h-.3q-.25.57-.76 1.06a4 4 0 0 1-1.23.78q-.72.3-1.67.3-1.34 0-2.37-.6a4.3 4.3 0 0 1-1.6-1.66q-.57-1.06-.57-2.38v-.02q0-1.43.66-2.55a4.7 4.7 0 0 1 1.84-1.75 5.5 5.5 0 0 1 2.67-.63M254.88 269.59q1.12 0 2.13.42 1 .4 1.78 1.28.77.86 1.22 2.23.45 1.36.45 3.25v.02q0 2.37-.68 4.06a5.06 5.06 0 0 1-4.96 3.48q-1.27 0-2.31-.48a5 5 0 0 1-1.71-1.3 4.3 4.3 0 0 1-.89-1.9l-.02-.1h2.47l.04.08q.19.49.52.86.34.37.82.58t1.1.2a2.5 2.5 0 0 0 1.78-.66q.69-.66 1.03-1.77a9 9 0 0 0 .42-2.73v-.27l-.44-2.35a2.9 2.9 0 0 0-1.35-2.47 2.6 2.6 0 0 0-1.38-.38 2.7 2.7 0 0 0-2.37 1.37q-.37.64-.37 1.42v.02q0 .81.35 1.44a2.6 2.6 0 0 0 2.36 1.34q.79 0 1.4-.35.63-.35 1-.97.37-.6.37-1.41v-.01h.57v2.55h-.3q-.26.57-.76 1.06t-1.23.78q-.72.3-1.67.3-1.34 0-2.37-.6a4.3 4.3 0 0 1-1.6-1.66q-.57-1.06-.57-2.38v-.02q0-1.43.66-2.55a4.7 4.7 0 0 1 1.84-1.75 5.5 5.5 0 0 1 2.67-.63M121.77 321l6.36-11.9v-.13h-7.56v-2.06h10.1v2.1L124.38 321zM138.28 321.27q-1.6 0-2.81-.51a4.6 4.6 0 0 1-1.92-1.44 3.5 3.5 0 0 1-.7-2.14v-.02a3.4 3.4 0 0 1 1.51-2.88 4 4 0 0 1 1.64-.7v-.05q-1.2-.33-1.91-1.15a3 3 0 0 1-.72-1.98v-.01q0-1.1.62-1.93.63-.84 1.74-1.34a6 6 0 0 1 2.55-.49q1.44 0 2.54.5a4 4 0 0 1 1.74 1.33q.63.84.63 1.93v.01a3 3 0 0 1-.73 1.98q-.72.82-1.9 1.15v.06q.9.18 1.62.7.7.49 1.1 1.23.41.75.4 1.64v.02q0 1.2-.69 2.14a4.5 4.5 0 0 1-1.9 1.44 7 7 0 0 1-2.81.51m0-1.92q.81 0 1.45-.3t1-.82.36-1.21V317q0-.69-.36-1.21a2.4 2.4 0 0 0-.99-.84q-.62-.3-1.46-.3-.83 0-1.47.3-.63.3-1 .84-.34.53-.34 1.2v.03q0 .68.35 1.2.36.53 1 .84.63.3 1.46.29m0-6.62q.72 0 1.26-.27.55-.25.85-.73.3-.47.31-1.1v-.01q0-.62-.31-1.08-.3-.47-.85-.74a3 3 0 0 0-1.26-.26q-.72 0-1.26.26-.55.27-.86.74t-.31 1.08v.02a2 2 0 0 0 1.17 1.82q.54.27 1.26.27M235.86 321.32a6 6 0 0 1-2.54-.52 4.5 4.5 0 0 1-1.74-1.47 4 4 0 0 1-.74-2.08l-.01-.13h2.33l.01.07q.1.58.46 1.06a2.7 2.7 0 0 0 2.24 1.02q.82 0 1.44-.36.63-.36.98-1 .35-.62.35-1.46v-.02a3 3 0 0 0-.35-1.45 2.5 2.5 0 0 0-.98-.97 3 3 0 0 0-1.42-.36q-.6 0-1.1.17a2.7 2.7 0 0 0-1.25.9q-.15.18-.3.43h-2.17l.69-8.24h8.46v2.06h-6.5l-.38 4.28h.13q.3-.49.76-.81.46-.34 1.03-.51.59-.2 1.25-.19a4.5 4.5 0 0 1 3.95 2.25q.58 1.05.58 2.4v.02q0 1.46-.66 2.57a4.7 4.7 0 0 1-1.84 1.73q-1.16.6-2.68.61M249.55 321v-2.7h-6.8v-2.09a309 309 0 0 1 3.36-5.66l2.29-3.64h3.55v9.31h1.87v2.07h-1.87V321zm-4.5-4.73h4.54v-7.37h-.12a119 119 0 0 0-3.56 5.8q-.45.72-.85 1.46z"/><path fill="#F23645" d="M113.67 358.27q-1.5 0-2.64-.51a4.5 4.5 0 0 1-1.8-1.44 4 4 0 0 1-.75-2.12l-.01-.12h2.4l.01.1q.07.6.42 1.06.36.45.97.72.6.25 1.4.25t1.38-.28q.6-.29.92-.78t.32-1.14v-.02q0-1.12-.75-1.71a3.2 3.2 0 0 0-2.05-.6h-1.62v-1.87h1.57q.76 0 1.32-.28.57-.27.88-.74.3-.47.3-1.1v-.01q0-.65-.26-1.1-.27-.47-.79-.7a3 3 0 0 0-1.24-.25q-.72 0-1.28.25-.54.25-.87.7-.33.47-.4 1.1v.09h-2.34l.01-.11a4.3 4.3 0 0 1 .73-2.12q.64-.91 1.7-1.4 1.05-.5 2.45-.5 1.43 0 2.48.46 1.06.47 1.65 1.31.58.83.58 1.94v.01a3.1 3.1 0 0 1-1.42 2.65q-.64.45-1.47.62v.05q1.53.15 2.45 1.03t.93 2.35v.01q0 1.23-.66 2.2a4.4 4.4 0 0 1-1.81 1.48q-1.17.52-2.7.52M126.05 343.59q1.12 0 2.13.42 1 .4 1.77 1.28.78.86 1.22 2.23.45 1.36.45 3.25v.02q0 2.37-.67 4.06a5.06 5.06 0 0 1-4.96 3.48q-1.28 0-2.32-.48a5 5 0 0 1-1.7-1.3 4.3 4.3 0 0 1-.9-1.9l-.01-.1h2.47l.04.08q.19.49.51.86.34.37.82.58.5.2 1.1.2a2.5 2.5 0 0 0 1.78-.66q.7-.66 1.04-1.77a9 9 0 0 0 .41-2.73v-.27l-.43-2.35a2.9 2.9 0 0 0-1.36-2.47 2.6 2.6 0 0 0-1.37-.38 2.7 2.7 0 0 0-2.38 1.37q-.37.64-.37 1.42v.02q0 .81.35 1.44a2.6 2.6 0 0 0 2.37 1.34q.78 0 1.4-.35.63-.35.99-.97.37-.6.37-1.41v-.01h.58v2.55h-.3q-.27.57-.77 1.06t-1.23.78q-.72.3-1.67.3-1.34 0-2.36-.6a4.3 4.3 0 0 1-1.6-1.66q-.58-1.06-.58-2.38v-.02q0-1.43.66-2.55a4.7 4.7 0 0 1 1.84-1.75 5.5 5.5 0 0 1 2.68-.63M134.05 358v-1.7l4.6-4.75a29 29 0 0 0 1.43-1.58q.51-.62.71-1.1.2-.5.2-1.02v-.03q0-.64-.28-1.14-.27-.5-.78-.79t-1.2-.3q-.74 0-1.29.32-.54.31-.86.86-.3.54-.31 1.26l-.01.05h-2.34v-.04q0-1.31.62-2.31.64-1.01 1.74-1.58a5.5 5.5 0 0 1 2.54-.56q1.36 0 2.41.51 1.05.52 1.64 1.43.6.9.6 2.09v.03q0 .8-.29 1.55-.3.75-1 1.64a25 25 0 0 1-1.96 2.11l-3.51 3.49.72-1.24v1.24l-.72-.52h6.97V358zM151.16 343.59q1.13 0 2.13.42 1 .4 1.78 1.28.78.86 1.22 2.23.45 1.36.45 3.25v.02q0 2.37-.68 4.06a5.06 5.06 0 0 1-4.96 3.48q-1.28 0-2.31-.48a5 5 0 0 1-1.71-1.3 4.3 4.3 0 0 1-.89-1.9l-.02-.1h2.47l.04.08q.2.49.52.86.34.37.82.58t1.1.2a2.5 2.5 0 0 0 1.78-.66q.69-.66 1.03-1.77a9 9 0 0 0 .41-2.73v-.27l-.42-2.35a2.9 2.9 0 0 0-1.36-2.47 2.6 2.6 0 0 0-1.38-.38 2.7 2.7 0 0 0-2.37 1.37q-.37.64-.37 1.42v.02q0 .81.35 1.44a2.6 2.6 0 0 0 2.36 1.34q.79 0 1.4-.35.63-.35 1-.97.37-.6.37-1.41v-.01h.57v2.55h-.3q-.25.57-.76 1.06a4 4 0 0 1-1.23.78q-.72.3-1.67.3-1.34 0-2.37-.6a4.3 4.3 0 0 1-1.6-1.66q-.57-1.06-.57-2.38v-.02q0-1.43.66-2.55a4.7 4.7 0 0 1 1.84-1.75 5.5 5.5 0 0 1 2.67-.63"/><path fill="#00BC9A" d="M224.93 358v-2.7h-6.8v-2.09a309 309 0 0 1 3.37-5.66l2.28-3.64h3.56v9.31h1.86v2.07h-1.86V358zm-4.49-4.73h4.53v-7.37h-.12a107 107 0 0 0-2.68 4.3l-1.73 2.96zM236.36 358.32q-1.45 0-2.54-.52a4.5 4.5 0 0 1-1.74-1.47 4 4 0 0 1-.74-2.08l-.01-.13h2.33l.01.07q.1.58.46 1.06a2.7 2.7 0 0 0 2.24 1.02q.82 0 1.44-.36.63-.36.98-1 .36-.62.35-1.46v-.02a3 3 0 0 0-.35-1.45 2.5 2.5 0 0 0-.98-.97 3 3 0 0 0-1.42-.36q-.6 0-1.1.17a2.7 2.7 0 0 0-1.25.9q-.15.18-.3.43h-2.17l.69-8.24h8.46v2.06h-6.49l-.4 4.28h.15q.3-.49.75-.81.45-.34 1.03-.51.6-.2 1.25-.19a4.5 4.5 0 0 1 3.95 2.25q.58 1.05.58 2.4v.02q0 1.46-.66 2.57a4.7 4.7 0 0 1-1.84 1.73q-1.16.6-2.68.61M248.96 358.32q-1.13 0-2.14-.4a5 5 0 0 1-1.78-1.3 6 6 0 0 1-1.22-2.22q-.45-1.37-.44-3.26v-.02q0-2.37.67-4.06a5.6 5.6 0 0 1 1.94-2.58q1.27-.9 3.01-.9 1.29 0 2.32.48a4.6 4.6 0 0 1 1.7 1.3q.69.82.9 1.9l.03.1h-2.48l-.03-.08q-.19-.5-.53-.86-.34-.37-.81-.57t-1.1-.2q-1.09 0-1.78.66a4 4 0 0 0-1.05 1.76 9 9 0 0 0-.4 2.72v.28l.43 2.35q0 .8.36 1.45.38.66.99 1.03.6.37 1.39.37.75 0 1.37-.37t.99-1q.37-.64.37-1.42v-.02q0-.81-.35-1.44a2.67 2.67 0 0 0-2.36-1.35q-.78 0-1.41.36a2.6 2.6 0 0 0-1.35 2.38v.01h-.58v-2.55h.3q.27-.57.76-1.06.5-.5 1.23-.79a5 5 0 0 1 1.68-.29q1.34 0 2.36.6 1.03.6 1.6 1.66.58 1.05.58 2.38v.02q0 1.43-.66 2.55a5 5 0 0 1-1.84 1.75q-1.16.63-2.67.63M261.47 358.32a6 6 0 0 1-2.54-.52 4.5 4.5 0 0 1-1.73-1.47 4 4 0 0 1-.75-2.08v-.13h2.33v.07q.1.58.47 1.06a2.7 2.7 0 0 0 2.23 1.02q.82 0 1.45-.36t.98-1q.35-.62.35-1.46v-.02a3 3 0 0 0-.35-1.45 2.5 2.5 0 0 0-.98-.97 3 3 0 0 0-1.43-.36q-.6 0-1.1.17a2.7 2.7 0 0 0-1.24.9q-.17.18-.3.43h-2.17l.68-8.24h8.47v2.06h-6.5l-.38 4.28h.13q.3-.49.75-.81.45-.34 1.04-.51.58-.2 1.25-.19a4.5 4.5 0 0 1 3.94 2.25q.6 1.05.59 2.4v.02q0 1.46-.66 2.57a4.7 4.7 0 0 1-1.84 1.73q-1.17.6-2.69.61"/><path fill="#D1D4DC" stroke="#000" stroke-width="2" d="m44.33 67.47.22.7 2.48 7.94 2.48-7.94.22-.7h4.8l-.45 1.33-4.7 13.53-.22.67H44.9l-.23-.67-4.7-13.53-.45-1.33zm16.99 0 .23.67 4.82 13.52.27.76V67.47h4.41v5.63h4.6v-5.63h4.4V83h-4.4v-5.87h-4.6V83h-8.89l-.22-.7-.9-2.8h-3.56l-.9 2.8-.23.7h-4.68l.47-1.33 4.81-13.53.24-.67zm-2.59 8.17h1.05L59.26 74zM46.1 252.47l.21.7 2.48 7.94 2.49-7.94.22-.7h4.8l-.46 1.33-4.69 13.53-.23.67h-4.25l-.23-.67-4.69-13.53-.46-1.33zm16.98 0 .24.67 4.82 13.52.27.76v-14.95h4.4v11.5h6.2V268H63.93l-.23-.7-.9-2.8h-3.55l-.91 2.8-.22.7h-4.69l.48-1.33 4.8-13.53.24-.67zm-2.58 8.17h1.05l-.53-1.63zM86.33 67.63a.92.92 0 0 1 1.38-.65l.12.09 8.04 6.7c.41.35.44.97.08 1.34l-.08.08-8.04 6.7c-.6.5-1.51.08-1.51-.7V67.63ZM86.33 252.63a.92.92 0 0 1 1.38-.65l.12.09 8.04 6.7c.41.35.44.97.08 1.34l-.08.08-8.04 6.7c-.6.5-1.51.08-1.51-.7v-13.56Z"/><path stroke="#D1D4DC" stroke-dasharray="3.84 3.84" stroke-width="2" d="M100 73h176M100 258h176"/><g filter="url(#cum342uj5)"><path fill="#FF3143" d="M486 172h17v296h-36V172h17V81h2z"/></g><path fill="#4D1D1E" d="M397 63h66v35h-66z"/><path fill="#082B24" d="M507 63h66v35h-66z"/><path fill="#F1101C" d="M397 100h66v35h-66zM389 100h6v35h-6z"/><path fill="#63A884" d="M575 322h6v35h-6z"/><path fill="#00614C" d="M507 100h66v35h-66z"/><path fill="#FF4F62" d="M397 137h66v35h-66z"/><path fill="#17DDC1" d="M507 137h66v35h-66z"/><path fill="#FE101B" d="M397 174h66v35h-66z"/><path fill="#2C6550" d="M507 174h66v35h-66z"/><path fill="#F41B2B" d="M397 211h66v35h-66z"/><path fill="#2C6550" d="M507 211h66v35h-66z"/><path fill="#F41B2B" d="M397 248h66v35h-66z"/><path fill="#17DDC1" d="M507 248h66v35h-66z"/><path fill="#FF4B5E" d="M397 285h66v35h-66z"/><path fill="#17DDC1" d="M507 285h66v35h-66z"/><path fill="#FF2433" d="M397 322h66v35h-66z"/><path fill="#63A884" d="M507 322h66v35h-66z"/><path fill="#FF2433" d="M397 359h66v35h-66z"/><path fill="#2C6550" d="M507 359h66v35h-66z"/><path fill="#E6E8EF" d="M397 396h66v35h-66z"/><path fill="#FF4759" d="M397 433h66v35h-66z"/><path fill="#E6E8EF" d="M507 396h66v35h-66z"/><path fill="#17DDC1" d="M507 433h66v35h-66z"/><path fill="#fff" d="M416.95 88V76.37h-.14l-3.74 2.48V76.5l3.88-2.6h2.5V88zM429.5 88.32q-1.68 0-2.88-.9-1.19-.9-1.84-2.55-.64-1.65-.64-3.91v-.02q0-2.27.64-3.92a5.6 5.6 0 0 1 1.84-2.54q1.2-.9 2.88-.9 1.67 0 2.87.9t1.85 2.54.64 3.92v.02q0 2.25-.64 3.92a5.7 5.7 0 0 1-1.85 2.54q-1.2.9-2.87.9m0-2.04q.9 0 1.52-.63.64-.65.97-1.84.34-1.2.34-2.85v-.02q0-1.65-.34-2.84-.33-1.2-.97-1.83a2 2 0 0 0-1.52-.63q-.9 0-1.53.63a4 4 0 0 0-.97 1.83q-.33 1.18-.33 2.84v.02q0 1.66.33 2.85.34 1.19.97 1.84.63.63 1.53.63M443.33 88v-2.7h-6.81V83.2l2.23-3.78 1.14-1.88 2.28-3.64h3.56v9.31h1.86v2.07h-1.86V88zm-4.5-4.73h4.54V75.9h-.12a100 100 0 0 0-1.79 2.83l-.9 1.48-.88 1.48-.85 1.47zM526.95 88V76.37h-.15l-3.73 2.48V76.5l3.88-2.6h2.5V88zM539.5 88.27q-1.5 0-2.64-.51a4.4 4.4 0 0 1-1.8-1.44 4 4 0 0 1-.75-2.12v-.12h2.4v.1q.08.6.43 1.06.36.45.96.72.61.25 1.4.25.8 0 1.39-.28.6-.28.91-.78.33-.5.33-1.14v-.02q0-1.12-.76-1.71a3.2 3.2 0 0 0-2.05-.6h-1.62v-1.87h1.57q.76 0 1.32-.28.57-.27.88-.74t.31-1.1v-.01q0-.65-.27-1.1-.25-.47-.78-.7a3 3 0 0 0-1.24-.25q-.71 0-1.28.25-.54.25-.88.7-.33.46-.39 1.1v.09h-2.34v-.11q.12-1.22.74-2.12a4 4 0 0 1 1.69-1.4q1.06-.5 2.46-.5 1.43 0 2.48.46 1.07.47 1.64 1.31.6.83.59 1.94v.02a3.1 3.1 0 0 1-1.42 2.64q-.64.44-1.47.62v.05q1.52.15 2.45 1.03.92.89.92 2.34v.02q0 1.23-.65 2.2a4.4 4.4 0 0 1-1.82 1.48q-1.15.52-2.7.52M548.1 88l6.37-11.9v-.13h-7.56V73.9H557V76L550.73 88zM416.95 125v-11.63h-.14l-3.74 2.48v-2.35l3.88-2.6h2.5V125zM429.68 125.32q-1.13 0-2.14-.4a5 5 0 0 1-1.78-1.3 6 6 0 0 1-1.22-2.22q-.44-1.37-.44-3.27v-.02q0-2.36.67-4.05a5.6 5.6 0 0 1 1.94-2.58q1.26-.9 3.01-.9 1.29 0 2.32.48a4.6 4.6 0 0 1 1.7 1.3q.69.82.9 1.9l.03.1h-2.49l-.03-.08a2.5 2.5 0 0 0-1.33-1.43q-.48-.2-1.1-.2-1.1 0-1.78.66a4 4 0 0 0-1.05 1.76 9 9 0 0 0-.4 2.72v.28l.43 2.35q0 .8.36 1.45.38.66.99 1.03.6.37 1.38.37.76 0 1.38-.37.63-.37.99-1 .37-.64.37-1.42v-.02q0-.81-.35-1.44a2.67 2.67 0 0 0-2.36-1.35q-.78 0-1.41.36a2.6 2.6 0 0 0-1.35 2.38v.01h-.59v-2.55h.32q.26-.57.75-1.06a4 4 0 0 1 1.23-.78 5 5 0 0 1 1.68-.3q1.34 0 2.36.6 1.03.6 1.6 1.66.58 1.05.58 2.38v.02q0 1.43-.66 2.55a5 5 0 0 1-1.84 1.75 5.5 5.5 0 0 1-2.68.63M438.1 125l6.37-11.9v-.13h-7.56v-2.06H447v2.1L440.73 125zM522.22 125v-1.7l4.58-4.75q.93-.96 1.44-1.58.52-.62.71-1.1.2-.5.2-1.02v-.03q0-.63-.27-1.14-.28-.5-.79-.79t-1.2-.3q-.73 0-1.29.32-.54.31-.86.86-.3.54-.3 1.26l-.02.05h-2.34v-.04q0-1.31.62-2.32.64-1 1.74-1.57a5.5 5.5 0 0 1 2.54-.56q1.37 0 2.41.51 1.05.52 1.64 1.43.6.9.6 2.09v.03q0 .8-.28 1.55a7 7 0 0 1-1.01 1.64 25 25 0 0 1-1.95 2.11l-3.52 3.49.72-1.24v1.24l-.72-.52h6.97V125zM539.64 125.32q-1.45 0-2.54-.52a4.5 4.5 0 0 1-1.74-1.47 4 4 0 0 1-.74-2.08l-.01-.13h2.33l.01.07q.1.58.46 1.06a2.7 2.7 0 0 0 2.24 1.02q.81 0 1.44-.36t.98-1 .35-1.46v-.02a3 3 0 0 0-.35-1.45 2.5 2.5 0 0 0-.98-.97 3 3 0 0 0-1.43-.36q-.6 0-1.1.17a2.7 2.7 0 0 0-1.24.9 3 3 0 0 0-.3.43h-2.17l.68-8.24H544v2.06h-6.5l-.38 4.28h.13q.3-.49.75-.81.47-.34 1.04-.51.59-.2 1.25-.19a4.5 4.5 0 0 1 3.95 2.25q.58 1.05.58 2.4v.02q0 1.46-.66 2.57a4.7 4.7 0 0 1-1.84 1.73q-1.16.6-2.68.61M551.88 110.59q1.13 0 2.13.42 1 .41 1.78 1.27t1.22 2.24.45 3.25v.02q0 2.37-.68 4.06a5.06 5.06 0 0 1-4.96 3.48q-1.27 0-2.31-.48a5 5 0 0 1-1.71-1.3 4.3 4.3 0 0 1-.89-1.9l-.02-.1h2.47l.04.08q.18.49.52.86t.82.58 1.1.2a2.5 2.5 0 0 0 1.78-.66q.69-.66 1.03-1.77a9 9 0 0 0 .42-2.73v-.27l-.44-2.35a2.9 2.9 0 0 0-1.35-2.47 2.6 2.6 0 0 0-1.38-.38 2.7 2.7 0 0 0-2.37 1.37q-.37.64-.37 1.42v.02q0 .81.35 1.44a2.6 2.6 0 0 0 2.36 1.34q.79 0 1.4-.35.63-.35 1-.97.37-.6.37-1.41v-.01h.57v2.55h-.3q-.25.57-.76 1.06-.5.5-1.23.78-.73.3-1.67.3-1.34 0-2.37-.6a4.3 4.3 0 0 1-1.6-1.66q-.57-1.06-.57-2.38v-.02q0-1.43.66-2.55a4.7 4.7 0 0 1 1.84-1.75 5.5 5.5 0 0 1 2.67-.63M418.21 162v-2.7h-6.8v-2.09a309 309 0 0 1 3.36-5.66l1.15-1.84 1.14-1.8h3.55v9.31h1.87v2.07h-1.87V162zm-4.5-4.73h4.54v-7.37h-.12a119 119 0 0 0-2.68 4.3l-.88 1.5q-.45.72-.85 1.46zM429.64 162.32q-1.45 0-2.54-.53a4.5 4.5 0 0 1-1.74-1.46 4 4 0 0 1-.74-2.08l-.01-.13h2.33l.01.07q.1.58.46 1.06a2.7 2.7 0 0 0 2.24 1.02q.81 0 1.44-.36t.98-1q.35-.62.35-1.46v-.02a3 3 0 0 0-.35-1.45 2.5 2.5 0 0 0-.98-.97 3 3 0 0 0-1.42-.36q-.6 0-1.1.17a2.7 2.7 0 0 0-1.25.9 3 3 0 0 0-.3.43h-2.17l.68-8.24H434v2.06h-6.5l-.38 4.28h.13q.3-.49.75-.81.47-.34 1.04-.51.59-.2 1.25-.19a4.5 4.5 0 0 1 3.95 2.25q.58 1.05.58 2.4v.02q0 1.46-.66 2.57a4.7 4.7 0 0 1-1.84 1.73q-1.16.6-2.68.61M442.23 162.32q-1.12 0-2.14-.4a5 5 0 0 1-1.77-1.3 6 6 0 0 1-1.22-2.22q-.44-1.36-.44-3.27v-.01q0-2.37.67-4.06a5.6 5.6 0 0 1 1.93-2.58q1.28-.9 3.02-.9 1.29 0 2.32.47a4.6 4.6 0 0 1 1.7 1.3q.69.84.9 1.9l.02.12h-2.48l-.03-.1a2.5 2.5 0 0 0-1.33-1.42q-.48-.2-1.1-.2-1.1 0-1.78.66a4 4 0 0 0-1.05 1.76 9 9 0 0 0-.4 2.72v.28l.43 2.35q0 .8.36 1.46.38.65.99 1.02.6.37 1.38.37t1.38-.37q.63-.37.99-1 .37-.64.37-1.42v-.02q0-.81-.35-1.44a2.67 2.67 0 0 0-2.36-1.35q-.78 0-1.41.36a2.6 2.6 0 0 0-1.35 2.38v.01h-.59v-2.55h.31q.27-.57.76-1.06a4 4 0 0 1 1.23-.78 5 5 0 0 1 1.68-.3q1.34 0 2.36.6t1.6 1.66.58 2.38v.02q0 1.43-.67 2.55a5 5 0 0 1-1.83 1.75 5.5 5.5 0 0 1-2.68.63M527.12 162.32q-1.12 0-2.14-.4a5 5 0 0 1-1.78-1.3 6 6 0 0 1-1.22-2.22q-.44-1.36-.44-3.27v-.01q0-2.37.68-4.06a5.6 5.6 0 0 1 1.93-2.58 5 5 0 0 1 3.02-.9q1.29 0 2.31.47 1.05.48 1.7 1.3.7.84.9 1.9l.03.12h-2.48l-.03-.1a2.5 2.5 0 0 0-1.34-1.42q-.47-.2-1.1-.2-1.09 0-1.78.66a4 4 0 0 0-1.05 1.76 9 9 0 0 0-.4 2.72v.28l.43 2.35q0 .8.37 1.46.36.65.98 1.02.61.37 1.39.37.75 0 1.38-.37t.98-1q.37-.64.37-1.42v-.02q0-.81-.35-1.44a2.67 2.67 0 0 0-2.36-1.35q-.78 0-1.4.36a2.6 2.6 0 0 0-1.36 2.38v.01h-.58v-2.55h.31q.25-.57.75-1.06a4 4 0 0 1 1.23-.78 5 5 0 0 1 1.68-.3q1.34 0 2.37.6 1.02.6 1.6 1.66.57 1.05.57 2.38v.02q0 1.43-.66 2.55a5 5 0 0 1-1.84 1.75 5.5 5.5 0 0 1-2.67.63M539.5 162.27q-1.6 0-2.81-.51a4.6 4.6 0 0 1-1.92-1.44 3.5 3.5 0 0 1-.7-2.14v-.02a3.4 3.4 0 0 1 1.51-2.88 4 4 0 0 1 1.64-.7v-.05q-1.19-.33-1.91-1.15a3 3 0 0 1-.72-1.98v-.02q0-1.08.62-1.92.63-.84 1.74-1.34a6 6 0 0 1 2.55-.49q1.43 0 2.54.5a4 4 0 0 1 1.74 1.33q.63.84.63 1.92v.02a3 3 0 0 1-.73 1.98q-.73.82-1.9 1.15v.06q.9.18 1.62.7.7.49 1.1 1.23.41.75.4 1.64v.02q0 1.2-.68 2.14a4.5 4.5 0 0 1-1.9 1.44q-1.22.51-2.82.51m0-1.92q.82 0 1.45-.3.64-.3 1-.82.36-.53.36-1.21V158q0-.69-.36-1.22a2.4 2.4 0 0 0-.99-.82q-.62-.3-1.46-.3-.82 0-1.47.3-.63.3-1 .82-.34.54-.34 1.22v.02q0 .67.35 1.2.36.53 1 .84.63.3 1.46.29m0-6.62q.72 0 1.26-.26.54-.27.85-.74t.31-1.1v-.01q0-.61-.31-1.09-.3-.46-.85-.73a3 3 0 0 0-1.26-.26q-.72 0-1.26.26-.55.27-.86.73-.3.48-.31 1.09v.02a2 2 0 0 0 1.17 1.83q.54.26 1.26.26M551.88 147.59q1.13 0 2.13.42 1 .4 1.78 1.28.78.87 1.22 2.23.45 1.36.45 3.25v.02q0 2.37-.68 4.06a5.06 5.06 0 0 1-4.96 3.48q-1.27 0-2.31-.48a5 5 0 0 1-1.71-1.3 4.3 4.3 0 0 1-.89-1.9l-.02-.1h2.47l.04.08q.18.49.52.86t.82.58 1.1.2a2.5 2.5 0 0 0 1.78-.66q.69-.67 1.03-1.77a9 9 0 0 0 .42-2.74v-.26l-.44-2.35a2.9 2.9 0 0 0-1.35-2.47 2.6 2.6 0 0 0-1.38-.38 2.7 2.7 0 0 0-2.37 1.37q-.37.64-.37 1.42v.02q0 .8.35 1.45a2.6 2.6 0 0 0 2.36 1.33q.79 0 1.4-.35.63-.35 1-.97.37-.6.37-1.41v-.01h.57v2.55h-.3q-.25.57-.76 1.06-.5.5-1.23.78-.73.3-1.67.3-1.34 0-2.37-.6a4.3 4.3 0 0 1-1.6-1.66q-.57-1.05-.57-2.38v-.02q0-1.43.66-2.55a4.7 4.7 0 0 1 1.84-1.75 5.5 5.5 0 0 1 2.67-.63M410.67 199v-11.63h-.14l-3.73 2.48v-2.35l3.87-2.6h2.5V199zM418.5 199v-1.7l4.58-4.76a28 28 0 0 0 1.44-1.57q.52-.62.71-1.1.2-.49.2-1.02v-.03q0-.63-.28-1.14-.27-.5-.78-.79-.5-.3-1.2-.3-.74 0-1.29.32-.54.31-.86.86-.3.54-.3 1.26l-.02.05h-2.34v-.04q0-1.3.62-2.31.64-1.01 1.74-1.58a5.5 5.5 0 0 1 2.54-.56q1.37 0 2.41.51 1.05.52 1.64 1.43.6.9.6 2.09v.03q0 .8-.28 1.55-.3.75-1.01 1.64-.7.89-1.95 2.11l-3.52 3.49.72-1.24v1.24l-.72-.52h6.97V199zM435.78 199.32q-1.68 0-2.88-.9a5.7 5.7 0 0 1-1.84-2.54q-.64-1.65-.64-3.92v-.02q0-2.27.64-3.92a5.6 5.6 0 0 1 1.84-2.54q1.2-.9 2.88-.9 1.67 0 2.87.9t1.85 2.54.64 3.92v.02q0 2.25-.64 3.91a5.7 5.7 0 0 1-1.85 2.55q-1.2.9-2.87.9m0-2.04q.9 0 1.52-.63.64-.65.97-1.84.34-1.2.34-2.85v-.02q0-1.66-.34-2.84-.33-1.2-.97-1.83a2 2 0 0 0-1.52-.63q-.9 0-1.53.63a4 4 0 0 0-.97 1.83q-.33 1.17-.33 2.84v.02q0 1.66.33 2.85.34 1.19.97 1.84.63.63 1.53.63M448.47 199.32a6 6 0 0 1-2.54-.53 4.5 4.5 0 0 1-1.73-1.46 4 4 0 0 1-.75-2.08v-.13h2.33v.07q.1.58.47 1.06a2.7 2.7 0 0 0 2.23 1.02q.82 0 1.45-.36t.98-1q.35-.62.35-1.46v-.02a3 3 0 0 0-.35-1.45 2.5 2.5 0 0 0-.98-.97 3 3 0 0 0-1.43-.36q-.6 0-1.1.17a2.7 2.7 0 0 0-1.24.9q-.17.19-.3.43h-2.17l.68-8.24h8.47v2.06h-6.5l-.38 4.28h.13q.3-.49.75-.81.45-.35 1.04-.51.58-.2 1.25-.19a4.5 4.5 0 0 1 3.94 2.25q.6 1.05.59 2.4v.02q0 1.46-.66 2.57a4.7 4.7 0 0 1-1.84 1.73q-1.17.6-2.69.61M527.08 199.32a6 6 0 0 1-2.54-.53 4.5 4.5 0 0 1-1.74-1.46 4 4 0 0 1-.74-2.08l-.01-.13h2.33l.01.07q.1.58.46 1.06a2.7 2.7 0 0 0 2.24 1.02q.82 0 1.44-.36.63-.36.98-1 .35-.62.35-1.46v-.02a3 3 0 0 0-.35-1.45 2.5 2.5 0 0 0-.98-.97 3 3 0 0 0-1.42-.36q-.6 0-1.1.17a2.7 2.7 0 0 0-1.25.9q-.15.19-.3.43h-2.17l.69-8.24h8.46v2.06h-6.5l-.38 4.28h.14q.3-.49.75-.81.45-.35 1.03-.51.6-.2 1.25-.19a4.5 4.5 0 0 1 3.95 2.25q.58 1.05.58 2.4v.02q0 1.46-.66 2.57a4.7 4.7 0 0 1-1.84 1.73q-1.16.6-2.68.61M540.77 199v-2.7h-6.8v-2.09a309 309 0 0 1 3.36-5.66l2.29-3.64h3.55v9.31h1.87v2.07h-1.87V199zm-4.5-4.73h4.54v-7.37h-.12a107 107 0 0 0-2.69 4.3l-.87 1.5q-.45.72-.85 1.46zM552.07 199v-11.63h-.15l-3.73 2.48v-2.35l3.88-2.6h2.5V199zM410.67 236v-11.63h-.14l-3.73 2.48v-2.35l3.87-2.6h2.5V236zm12.55.32q-1.68 0-2.88-.9a5.7 5.7 0 0 1-1.84-2.54q-.64-1.65-.64-3.92v-.02q0-2.27.64-3.92a5.6 5.6 0 0 1 1.84-2.54q1.2-.9 2.88-.9 1.67 0 2.87.9a5.6 5.6 0 0 1 1.85 2.54q.64 1.64.64 3.92v.02q0 2.25-.64 3.91a5.7 5.7 0 0 1-1.85 2.55q-1.2.9-2.87.9m0-2.04q.9 0 1.52-.63.64-.65.97-1.84.34-1.2.34-2.85v-.02q0-1.66-.34-2.84-.33-1.2-.96-1.83a2 2 0 0 0-1.53-.63q-.9 0-1.53.63a4 4 0 0 0-.97 1.83q-.33 1.17-.33 2.84v.02q0 1.66.33 2.85.34 1.19.97 1.84.63.63 1.53.63m12.56 2q-1.6 0-2.81-.52a4.6 4.6 0 0 1-1.92-1.44 3.5 3.5 0 0 1-.7-2.14v-.02a3.4 3.4 0 0 1 1.51-2.88 4 4 0 0 1 1.64-.7v-.05q-1.2-.33-1.91-1.15a3 3 0 0 1-.72-1.98v-.02q0-1.08.62-1.92.64-.84 1.74-1.34a6 6 0 0 1 2.55-.49q1.44 0 2.54.5 1.11.49 1.74 1.33t.63 1.92v.02a3 3 0 0 1-.73 1.98q-.73.82-1.9 1.15v.06q.9.18 1.62.7.7.49 1.1 1.23.41.75.4 1.64v.02q0 1.2-.68 2.14a4.5 4.5 0 0 1-1.9 1.44 7 7 0 0 1-2.82.51m0-1.93q.82 0 1.45-.3.64-.3 1-.82.36-.53.36-1.21V232q0-.69-.36-1.22a2.4 2.4 0 0 0-.99-.82q-.62-.3-1.46-.3-.83 0-1.47.3-.63.3-1 .82-.34.54-.34 1.22v.02q0 .67.35 1.2.36.53 1 .84.63.3 1.46.29m0-6.62q.72 0 1.26-.26.55-.27.85-.74t.31-1.1v-.01q0-.61-.31-1.09-.3-.46-.85-.73a3 3 0 0 0-1.26-.26q-.72 0-1.26.26-.55.27-.86.73-.3.48-.31 1.09v.02a2 2 0 0 0 1.17 1.83q.54.26 1.26.26m12.73 8.6q-1.12 0-2.14-.42a5 5 0 0 1-1.77-1.29 6 6 0 0 1-1.22-2.22q-.44-1.36-.44-3.27v-.01q0-2.37.67-4.06a5.6 5.6 0 0 1 1.93-2.58q1.28-.9 3.02-.9 1.29 0 2.32.47a4.6 4.6 0 0 1 1.7 1.3q.69.84.9 1.9l.02.12h-2.48l-.03-.1q-.19-.5-.52-.85-.34-.37-.82-.57t-1.09-.2q-1.09 0-1.79.66a4 4 0 0 0-1.04 1.76 9 9 0 0 0-.4 2.72v.28l.43 2.35q0 .8.36 1.46.38.65.99 1.02.6.37 1.38.37t1.38-.37q.63-.37.99-1 .37-.64.37-1.42v-.02q0-.81-.35-1.44a2.67 2.67 0 0 0-2.36-1.35q-.79 0-1.41.36a2.6 2.6 0 0 0-1.35 2.38v.01h-.59v-2.55h.31q.25-.57.76-1.06.5-.5 1.23-.78a5 5 0 0 1 1.68-.3q1.34 0 2.36.6 1.03.6 1.6 1.66.58 1.05.58 2.38v.02q0 1.43-.67 2.55a5 5 0 0 1-1.83 1.75q-1.17.63-2.68.63"/><path fill="#fff" d="M410.67 236v-11.63h-.14l-3.73 2.48v-2.35l3.87-2.6h2.5V236zM423.22 236.32q-1.68 0-2.88-.9a5.7 5.7 0 0 1-1.83-2.54q-.65-1.65-.65-3.92v-.02q0-2.27.64-3.92a5.6 5.6 0 0 1 1.84-2.54q1.2-.9 2.88-.9 1.67 0 2.87.9a5.6 5.6 0 0 1 1.85 2.54q.64 1.64.64 3.92v.02q0 2.25-.64 3.91a5.7 5.7 0 0 1-1.85 2.55q-1.2.9-2.87.9m0-2.04q.9 0 1.52-.63.64-.65.97-1.84.34-1.2.34-2.85v-.02q0-1.66-.34-2.84-.33-1.2-.96-1.83a2 2 0 0 0-1.53-.63q-.9 0-1.53.63a4 4 0 0 0-.97 1.83q-.33 1.17-.33 2.84v.02q0 1.66.33 2.85.34 1.19.97 1.84.63.63 1.53.63M435.78 236.27q-1.6 0-2.81-.51a4.6 4.6 0 0 1-1.92-1.44 3.5 3.5 0 0 1-.69-2.14v-.02a3.4 3.4 0 0 1 1.5-2.88 4 4 0 0 1 1.64-.7v-.05q-1.19-.33-1.91-1.15a3 3 0 0 1-.72-1.98v-.02q0-1.08.62-1.92.64-.84 1.74-1.34a6 6 0 0 1 2.55-.49q1.44 0 2.54.5a4 4 0 0 1 1.74 1.33q.63.84.63 1.92v.02a3 3 0 0 1-.73 1.98q-.73.82-1.9 1.15v.06q.9.18 1.62.7.7.49 1.1 1.23.41.75.41 1.64v.02q0 1.2-.7 2.14a4.5 4.5 0 0 1-1.9 1.44 7 7 0 0 1-2.81.51m0-1.92q.82 0 1.46-.3.63-.3 1-.82.35-.53.35-1.21V232q0-.69-.36-1.22a2.4 2.4 0 0 0-.99-.82q-.62-.3-1.46-.3-.83 0-1.46.3-.64.3-1 .82-.36.54-.35 1.22v.02q0 .67.35 1.2.36.53 1 .84t1.46.29m0-6.62q.72 0 1.26-.26.55-.27.85-.74t.31-1.1v-.01q0-.61-.31-1.09-.3-.46-.85-.73a3 3 0 0 0-1.26-.26q-.72 0-1.26.26a2 2 0 0 0-.86.73q-.3.48-.31 1.09v.02a2 2 0 0 0 1.17 1.83q.55.26 1.26.26M448.51 236.32q-1.12 0-2.13-.4a5 5 0 0 1-1.78-1.3 6 6 0 0 1-1.22-2.22q-.44-1.36-.44-3.27v-.01q0-2.37.67-4.06a5.6 5.6 0 0 1 1.94-2.58q1.26-.9 3.01-.9 1.29 0 2.32.47a4.6 4.6 0 0 1 1.7 1.3q.69.84.9 1.9l.02.12h-2.48l-.03-.1a2.5 2.5 0 0 0-1.33-1.42q-.48-.2-1.1-.2-1.09 0-1.79.66a4 4 0 0 0-1.04 1.76 9 9 0 0 0-.4 2.72v.28l.43 2.35q0 .8.36 1.46.37.65.99 1.02.6.37 1.38.37t1.38-.37q.63-.37.99-1 .37-.64.37-1.42v-.02q0-.81-.35-1.44a2.67 2.67 0 0 0-2.36-1.35q-.78 0-1.41.36a2.6 2.6 0 0 0-1.35 2.38v.01h-.59v-2.55h.32q.25-.57.75-1.06a4 4 0 0 1 1.23-.78 5 5 0 0 1 1.68-.3q1.34 0 2.36.6 1.03.6 1.6 1.66.58 1.05.58 2.38v.02q0 1.43-.67 2.55a5 5 0 0 1-1.83 1.75 5.5 5.5 0 0 1-2.68.63M528.21 236v-2.7h-6.8v-2.09a309 309 0 0 1 3.36-5.66l1.15-1.84 1.14-1.8h3.55v9.31h1.87v2.07h-1.87V236zm-4.5-4.73h4.54v-7.37h-.12a119 119 0 0 0-2.68 4.3l-.88 1.5q-.45.72-.85 1.46zM539.5 236.32q-1.68 0-2.88-.9a5.7 5.7 0 0 1-1.84-2.54q-.64-1.65-.64-3.92v-.02q0-2.27.64-3.92a5.6 5.6 0 0 1 1.84-2.54q1.2-.9 2.88-.9 1.67 0 2.87.9a5.6 5.6 0 0 1 1.85 2.54q.64 1.64.64 3.92v.02q0 2.25-.64 3.91a5.7 5.7 0 0 1-1.85 2.55q-1.2.9-2.87.9m0-2.04q.9 0 1.52-.63.64-.65.97-1.84.34-1.2.34-2.85v-.02q0-1.66-.34-2.84-.33-1.2-.97-1.83a2 2 0 0 0-1.52-.63q-.9 0-1.53.63a4 4 0 0 0-.97 1.83q-.33 1.17-.33 2.84v.02q0 1.66.33 2.85.34 1.19.97 1.84.63.63 1.53.63M552.07 236.27q-1.52 0-2.65-.51a4.5 4.5 0 0 1-1.8-1.44 4 4 0 0 1-.75-2.12v-.12h2.4v.1q.08.6.42 1.06.37.45.97.72.6.25 1.4.25t1.38-.28q.6-.28.92-.78t.32-1.14v-.02q0-1.12-.75-1.71a3.2 3.2 0 0 0-2.05-.6h-1.62v-1.87h1.57q.76 0 1.32-.28.57-.27.88-.74.3-.48.31-1.1v-.01q0-.65-.27-1.1-.27-.47-.78-.7a3 3 0 0 0-1.24-.25q-.72 0-1.28.25-.55.25-.88.7-.33.46-.4 1.1v.09h-2.34l.01-.11a4.3 4.3 0 0 1 .74-2.12q.63-.9 1.69-1.4t2.46-.5q1.43 0 2.48.46t1.64 1.31.58 1.94v.02a3.1 3.1 0 0 1-1.41 2.64q-.64.45-1.48.62v.05q1.53.15 2.46 1.03t.92 2.34v.02q0 1.24-.65 2.2a4.4 4.4 0 0 1-1.82 1.48q-1.15.52-2.7.52M416.94 273.27q-1.6 0-2.81-.51a4.6 4.6 0 0 1-1.92-1.44 3.5 3.5 0 0 1-.69-2.14v-.02a3.4 3.4 0 0 1 1.5-2.88 4 4 0 0 1 1.65-.7v-.05q-1.2-.33-1.92-1.15a3 3 0 0 1-.72-1.98v-.01q0-1.1.62-1.93.64-.84 1.74-1.34a6 6 0 0 1 2.55-.49q1.44 0 2.54.5a4 4 0 0 1 1.74 1.33q.63.84.63 1.93v.01a3 3 0 0 1-.73 1.98q-.73.82-1.9 1.15v.06q.9.18 1.62.7.7.49 1.11 1.23.4.75.4 1.64v.02q0 1.2-.7 2.14a4.5 4.5 0 0 1-1.9 1.44q-1.2.51-2.8.51m0-1.92q.82 0 1.46-.3.63-.3 1-.82.35-.54.35-1.21V269q0-.69-.36-1.21a2.4 2.4 0 0 0-.98-.84q-.64-.3-1.47-.3t-1.46.3-1 .84-.35 1.2v.03q0 .68.35 1.2.36.53 1 .84t1.46.29m0-6.62q.72 0 1.26-.27.55-.25.85-.73.3-.47.31-1.1v-.01q0-.62-.3-1.08-.32-.47-.86-.74a3 3 0 0 0-1.26-.26q-.71 0-1.26.26-.54.27-.86.74-.3.46-.31 1.08v.02a2 2 0 0 0 1.17 1.82q.56.27 1.26.27M430.77 273v-2.7h-6.8v-2.09a309 309 0 0 1 3.36-5.66l2.29-3.64h3.55v9.31h1.87v2.07h-1.87V273zm-4.5-4.73h4.54v-7.37h-.12a107 107 0 0 0-2.69 4.3l-.87 1.5q-.45.72-.85 1.46zM442.07 273.27q-1.52 0-2.65-.51a4.5 4.5 0 0 1-1.8-1.44 4 4 0 0 1-.75-2.12v-.12h2.4v.1q.08.6.42 1.06.37.45.97.72.6.25 1.4.25t1.38-.28q.6-.29.92-.78t.32-1.14v-.02q0-1.12-.75-1.71a3.2 3.2 0 0 0-2.05-.6h-1.62v-1.87h1.57q.76 0 1.32-.28.57-.27.88-.74.3-.47.31-1.1v-.01q0-.65-.27-1.1-.27-.47-.78-.7a3 3 0 0 0-1.24-.25q-.73 0-1.28.25t-.88.7q-.33.47-.4 1.1v.09h-2.34l.01-.11a4.3 4.3 0 0 1 .74-2.12q.63-.91 1.69-1.4 1.06-.5 2.46-.5 1.42 0 2.48.46 1.05.47 1.64 1.31.58.83.58 1.94v.01a3.1 3.1 0 0 1-1.41 2.65q-.64.44-1.48.62v.05q1.53.15 2.45 1.03t.93 2.35v.01q0 1.23-.65 2.2a4.4 4.4 0 0 1-1.82 1.48q-1.15.52-2.7.52M527.12 273.32q-1.12 0-2.14-.4a5 5 0 0 1-1.78-1.3 6 6 0 0 1-1.22-2.22q-.44-1.37-.44-3.26v-.02q0-2.37.68-4.06a5.6 5.6 0 0 1 1.93-2.58 5 5 0 0 1 3.02-.9q1.29 0 2.31.48 1.05.45 1.7 1.3.7.82.9 1.9l.03.1h-2.48l-.03-.08a2.5 2.5 0 0 0-1.34-1.43q-.47-.2-1.1-.2-1.09 0-1.78.66a4 4 0 0 0-1.05 1.76 9 9 0 0 0-.4 2.72v.28l.43 2.35q0 .8.37 1.45.36.66.98 1.03.61.37 1.39.37.75 0 1.38-.37t.98-1q.37-.64.37-1.42v-.02q0-.81-.35-1.44a2.67 2.67 0 0 0-2.36-1.35q-.78 0-1.4.36a2.6 2.6 0 0 0-1.36 2.38v.01h-.58v-2.55h.31q.25-.58.75-1.06a4 4 0 0 1 1.23-.79 5 5 0 0 1 1.68-.29q1.34 0 2.37.6 1.02.6 1.6 1.66.57 1.05.57 2.38v.02q0 1.43-.66 2.55a5 5 0 0 1-1.84 1.75 5.5 5.5 0 0 1-2.67.63M540.77 273v-2.7h-6.8v-2.09a309 309 0 0 1 3.36-5.66l2.29-3.64h3.55v9.31h1.87v2.07h-1.87V273zm-4.5-4.73h4.54v-7.37h-.12a107 107 0 0 0-2.69 4.3l-.87 1.5q-.45.72-.85 1.46zM552.06 273.27q-1.6 0-2.81-.51a4.6 4.6 0 0 1-1.92-1.44 3.5 3.5 0 0 1-.7-2.14v-.02a3.4 3.4 0 0 1 1.51-2.88 4 4 0 0 1 1.64-.7v-.05q-1.2-.33-1.91-1.15a3 3 0 0 1-.73-1.98v-.01q0-1.1.63-1.93.63-.84 1.74-1.34a6 6 0 0 1 2.55-.49q1.43 0 2.54.5 1.11.48 1.73 1.33.64.84.64 1.93v.01a3 3 0 0 1-.73 1.98q-.73.82-1.9 1.15v.06q.9.18 1.61.7.72.49 1.12 1.23.4.75.4 1.64v.02q0 1.2-.7 2.14a4.5 4.5 0 0 1-1.9 1.44q-1.21.51-2.81.51m0-1.92q.81 0 1.45-.3t1-.82.36-1.21V269q0-.69-.36-1.21a2.4 2.4 0 0 0-.99-.84q-.63-.3-1.46-.3t-1.47.3-1 .84q-.35.53-.35 1.2v.03q0 .68.36 1.2.36.53 1 .84.63.3 1.46.29m0-6.62q.72 0 1.26-.27.54-.25.85-.73.3-.47.3-1.1v-.01q0-.62-.3-1.08t-.85-.74a3 3 0 0 0-1.26-.26q-.72 0-1.26.26-.55.27-.86.74-.32.46-.32 1.08v.02a2 2 0 0 0 1.18 1.82q.54.27 1.26.27M417.08 310.32a6 6 0 0 1-2.54-.52 4.5 4.5 0 0 1-1.74-1.47 4 4 0 0 1-.74-2.08l-.01-.13h2.33l.01.07q.1.58.46 1.06a2.7 2.7 0 0 0 2.24 1.02q.83 0 1.44-.36.63-.36.98-1 .35-.62.35-1.46v-.02a3 3 0 0 0-.35-1.45 2.5 2.5 0 0 0-.98-.97 3 3 0 0 0-1.42-.36q-.6 0-1.1.17a2.7 2.7 0 0 0-1.25.9q-.15.18-.3.43h-2.17l.69-8.24h8.46v2.06h-6.5l-.38 4.28h.13q.3-.49.76-.81.45-.34 1.03-.51.6-.2 1.25-.19a4.5 4.5 0 0 1 3.95 2.25q.58 1.05.58 2.4v.02q0 1.46-.66 2.57a4.7 4.7 0 0 1-1.84 1.73q-1.16.6-2.68.61M429.68 310.32q-1.13 0-2.14-.4a5 5 0 0 1-1.78-1.3 6 6 0 0 1-1.22-2.22q-.44-1.37-.44-3.26v-.02q0-2.37.67-4.06a5.6 5.6 0 0 1 1.94-2.58q1.26-.9 3.01-.9 1.29 0 2.32.48a4.6 4.6 0 0 1 1.7 1.3q.69.82.9 1.9l.03.1h-2.49l-.03-.08a2.5 2.5 0 0 0-1.33-1.43q-.48-.2-1.1-.2-1.1 0-1.78.66a4 4 0 0 0-1.05 1.76 9 9 0 0 0-.4 2.72v.28l.43 2.35q0 .8.36 1.45.38.66.99 1.03.6.37 1.38.37.76 0 1.38-.37.63-.37.99-1 .37-.64.37-1.42v-.02q0-.81-.35-1.44a2.67 2.67 0 0 0-2.36-1.35q-.78 0-1.41.36a2.6 2.6 0 0 0-1.35 2.38v.01h-.59v-2.55h.32q.26-.58.75-1.06a4 4 0 0 1 1.23-.79 5 5 0 0 1 1.68-.29q1.34 0 2.36.6 1.03.6 1.6 1.66.58 1.05.58 2.38v.02q0 1.43-.66 2.55a5 5 0 0 1-1.84 1.75 5.5 5.5 0 0 1-2.68.63M442.07 310.27q-1.52 0-2.65-.51a4.5 4.5 0 0 1-1.8-1.44 4 4 0 0 1-.75-2.12v-.12h2.4v.1q.08.6.42 1.06.37.45.97.72.6.25 1.4.25t1.38-.28q.6-.29.92-.78t.32-1.14v-.02q0-1.12-.75-1.71a3.2 3.2 0 0 0-2.05-.6h-1.62v-1.87h1.57q.76 0 1.32-.28.57-.27.88-.74.3-.47.31-1.1v-.01q0-.65-.27-1.1-.27-.47-.78-.7a3 3 0 0 0-1.24-.25q-.73 0-1.28.25t-.88.7q-.33.47-.4 1.1v.09h-2.34l.01-.11a4.3 4.3 0 0 1 .74-2.12q.63-.91 1.69-1.4 1.06-.5 2.46-.5 1.42 0 2.48.46 1.05.47 1.64 1.31.58.83.58 1.94v.01a3.1 3.1 0 0 1-1.41 2.65q-.64.44-1.48.62v.05q1.53.15 2.45 1.03t.93 2.35v.01q0 1.23-.65 2.2a4.4 4.4 0 0 1-1.82 1.48q-1.15.52-2.7.52M528.21 310v-2.7h-6.8v-2.09a309 309 0 0 1 3.36-5.66l1.15-1.84 1.14-1.8h3.55v9.31h1.87v2.07h-1.87V310zm-4.5-4.73h4.54v-7.37h-.12a119 119 0 0 0-2.68 4.3l-.88 1.5q-.45.72-.85 1.46zM539.67 310.32q-1.12 0-2.13-.4a5 5 0 0 1-1.78-1.3 6 6 0 0 1-1.22-2.22q-.44-1.37-.44-3.26v-.02q0-2.37.67-4.06a5.6 5.6 0 0 1 1.94-2.58q1.27-.9 3.01-.9 1.29 0 2.32.48a4.6 4.6 0 0 1 1.7 1.3q.69.82.9 1.9l.02.1h-2.48l-.02-.08a2.5 2.5 0 0 0-1.34-1.43q-.48-.2-1.1-.2-1.1 0-1.78.66a4 4 0 0 0-1.05 1.76 9 9 0 0 0-.4 2.72v.28l.43 2.35q0 .8.36 1.45.38.66.99 1.03.6.37 1.38.37t1.38-.37q.63-.37.99-1 .37-.64.37-1.42v-.02q0-.81-.35-1.44a2.67 2.67 0 0 0-2.36-1.35q-.78 0-1.41.36a2.6 2.6 0 0 0-1.35 2.38v.01h-.58v-2.55h.3q.27-.58.76-1.06a4 4 0 0 1 1.23-.79 5 5 0 0 1 1.68-.29q1.34 0 2.36.6 1.03.6 1.6 1.66.58 1.05.58 2.38v.02q0 1.43-.66 2.55a5 5 0 0 1-1.84 1.75 5.5 5.5 0 0 1-2.68.63M552.06 310.27q-1.6 0-2.81-.51a4.6 4.6 0 0 1-1.92-1.44 3.5 3.5 0 0 1-.7-2.14v-.02a3.4 3.4 0 0 1 1.51-2.88 4 4 0 0 1 1.64-.7v-.05q-1.2-.33-1.91-1.15a3 3 0 0 1-.73-1.98v-.01q0-1.1.63-1.93.63-.84 1.74-1.34a6 6 0 0 1 2.55-.49q1.43 0 2.54.5 1.11.48 1.73 1.33.64.84.64 1.93v.01a3 3 0 0 1-.73 1.98q-.73.82-1.9 1.15v.06q.9.18 1.61.7.72.49 1.12 1.23.4.75.4 1.64v.02q0 1.2-.7 2.14a4.5 4.5 0 0 1-1.9 1.44q-1.21.51-2.81.51m0-1.92q.81 0 1.45-.3t1-.82.36-1.21V306q0-.69-.36-1.21a2.4 2.4 0 0 0-.99-.84q-.63-.3-1.46-.3t-1.47.3-1 .84q-.35.53-.35 1.2v.03q0 .68.36 1.2.36.53 1 .84.63.3 1.46.29m0-6.62q.72 0 1.26-.27.54-.25.85-.73.3-.47.3-1.1v-.01q0-.62-.3-1.08t-.85-.74a3 3 0 0 0-1.26-.26q-.72 0-1.26.26-.55.27-.86.74-.32.46-.32 1.08v.02a2 2 0 0 0 1.18 1.82q.54.27 1.26.27M416.77 332.59q1.11 0 2.13.42 1 .4 1.77 1.28.78.86 1.22 2.23.45 1.36.45 3.25v.02q0 2.37-.67 4.06a5.06 5.06 0 0 1-4.96 3.48q-1.29 0-2.32-.48a5 5 0 0 1-1.7-1.3 4.3 4.3 0 0 1-.9-1.9l-.02-.1h2.48l.04.08q.19.49.51.86.34.37.82.58.5.2 1.1.2a2.5 2.5 0 0 0 1.78-.66q.7-.66 1.04-1.77a9 9 0 0 0 .4-2.73v-.27l-.42-2.35a2.8 2.8 0 0 0-1.36-2.47 2.6 2.6 0 0 0-1.37-.38 2.7 2.7 0 0 0-2.38 1.37q-.37.64-.37 1.42v.02q0 .81.35 1.44a2.6 2.6 0 0 0 2.37 1.34q.78 0 1.4-.35.63-.35.99-.97.37-.6.37-1.41v-.01h.58v2.55h-.3q-.27.57-.77 1.06a4 4 0 0 1-1.23.78q-.72.3-1.67.3-1.35 0-2.36-.6a4.3 4.3 0 0 1-1.6-1.66q-.58-1.06-.58-2.38v-.02q0-1.43.66-2.55a4.7 4.7 0 0 1 1.84-1.75 5.5 5.5 0 0 1 2.68-.63M429.64 347.32q-1.45 0-2.54-.52a4.5 4.5 0 0 1-1.74-1.47 4 4 0 0 1-.74-2.08l-.01-.13h2.33l.01.07q.1.58.46 1.06a2.7 2.7 0 0 0 2.24 1.02q.81 0 1.44-.36t.98-1q.35-.62.35-1.46v-.02a3 3 0 0 0-.35-1.45 2.5 2.5 0 0 0-.98-.97 3 3 0 0 0-1.42-.36q-.6 0-1.1.17a2.7 2.7 0 0 0-1.25.9 3 3 0 0 0-.3.43h-2.17l.68-8.24H434v2.06h-6.5l-.38 4.28h.13q.3-.49.75-.81.47-.34 1.04-.51.59-.2 1.25-.19a4.5 4.5 0 0 1 3.95 2.25q.58 1.05.58 2.4v.02q0 1.46-.66 2.57a4.7 4.7 0 0 1-1.84 1.73q-1.16.6-2.68.61M442.07 347v-11.63h-.15l-3.73 2.48v-2.35l3.88-2.6h2.5V347zM526.95 347.27q-1.5 0-2.65-.51a4.4 4.4 0 0 1-1.8-1.44 4 4 0 0 1-.74-2.12l-.01-.12h2.4v.1q.08.6.43 1.06.36.45.96.72.6.25 1.41.25t1.38-.28q.6-.29.92-.78t.32-1.14v-.02q0-1.12-.75-1.71-.75-.6-2.05-.6h-1.62v-1.87h1.57q.75 0 1.31-.28.57-.27.88-.74t.32-1.1v-.01q0-.65-.28-1.1-.25-.47-.78-.7a3 3 0 0 0-1.24-.25q-.72 0-1.28.25-.54.25-.88.7-.33.47-.39 1.1v.09h-2.34v-.11a4.3 4.3 0 0 1 .74-2.12q.63-.91 1.7-1.4 1.05-.5 2.45-.5 1.43 0 2.48.46 1.07.47 1.64 1.31.6.83.59 1.94v.01a3.1 3.1 0 0 1-1.42 2.65q-.64.44-1.47.62v.05q1.52.15 2.45 1.03t.93 2.35v.01q0 1.23-.66 2.2a4.4 4.4 0 0 1-1.81 1.48q-1.17.52-2.7.52M539.32 332.59q1.13 0 2.13.42 1 .4 1.78 1.28.78.86 1.22 2.23.45 1.36.45 3.25v.02q0 2.37-.67 4.06a5.06 5.06 0 0 1-4.96 3.48q-1.29 0-2.32-.48a5 5 0 0 1-1.7-1.3 4.3 4.3 0 0 1-.9-1.9l-.02-.1h2.47l.04.08q.2.49.52.86.34.37.82.58.5.2 1.1.2a2.5 2.5 0 0 0 1.78-.66q.69-.66 1.04-1.77a9 9 0 0 0 .4-2.73v-.27l-.42-2.35a2.8 2.8 0 0 0-1.36-2.47 2.6 2.6 0 0 0-1.38-.38 2.7 2.7 0 0 0-2.37 1.37q-.37.64-.37 1.42v.02q0 .81.35 1.44a2.6 2.6 0 0 0 2.36 1.34q.8 0 1.41-.35.63-.35.99-.97.37-.6.37-1.41v-.01h.57v2.55h-.3q-.25.57-.76 1.06a4 4 0 0 1-1.23.78q-.72.3-1.67.3-1.34 0-2.37-.6a4.3 4.3 0 0 1-1.6-1.66q-.57-1.06-.57-2.38v-.02q0-1.43.66-2.55a4.7 4.7 0 0 1 1.84-1.75 5.5 5.5 0 0 1 2.67-.63M551.88 332.59q1.13 0 2.13.42 1 .4 1.78 1.28.78.86 1.22 2.23.45 1.36.45 3.25v.02q0 2.37-.68 4.06a5.06 5.06 0 0 1-4.96 3.48q-1.27 0-2.31-.48a5 5 0 0 1-1.71-1.3 4.3 4.3 0 0 1-.89-1.9l-.02-.1h2.47l.04.08q.18.49.52.86t.82.58 1.1.2a2.5 2.5 0 0 0 1.78-.66q.69-.66 1.03-1.77a9 9 0 0 0 .42-2.73v-.27l-.44-2.35a2.9 2.9 0 0 0-1.35-2.47 2.6 2.6 0 0 0-1.38-.38 2.7 2.7 0 0 0-2.37 1.37q-.37.64-.37 1.42v.02q0 .81.35 1.44a2.6 2.6 0 0 0 2.36 1.34q.79 0 1.4-.35.63-.35 1-.97.37-.6.37-1.41v-.01h.57v2.55h-.3q-.25.57-.76 1.06-.5.5-1.23.78-.73.3-1.67.3-1.34 0-2.37-.6a4.3 4.3 0 0 1-1.6-1.66q-.57-1.06-.57-2.38v-.02q0-1.43.66-2.55a4.7 4.7 0 0 1 1.84-1.75 5.5 5.5 0 0 1 2.67-.63M417.12 384.32q-1.12 0-2.14-.4a5 5 0 0 1-1.78-1.3 6 6 0 0 1-1.22-2.22q-.44-1.37-.44-3.26v-.02q0-2.37.67-4.06a5.6 5.6 0 0 1 1.94-2.58 5 5 0 0 1 3.02-.9q1.28 0 2.31.48 1.04.45 1.7 1.3.69.82.9 1.9l.03.1h-2.48l-.03-.08a2.5 2.5 0 0 0-1.34-1.43q-.48-.2-1.1-.2-1.08 0-1.78.66a4 4 0 0 0-1.05 1.76 9 9 0 0 0-.4 2.72v.28l.43 2.35q0 .8.37 1.45.36.66.98 1.03.61.37 1.39.37.75 0 1.38-.37t.98-1q.37-.64.37-1.42v-.02q0-.81-.35-1.44a2.67 2.67 0 0 0-2.36-1.35q-.78 0-1.4.36a2.6 2.6 0 0 0-1.36 2.38v.01h-.58v-2.55h.31q.26-.57.75-1.06a4 4 0 0 1 1.23-.79 5 5 0 0 1 1.68-.29q1.34 0 2.37.6 1.02.6 1.6 1.66.57 1.05.57 2.38v.02q0 1.43-.66 2.55a5 5 0 0 1-1.84 1.75 5.5 5.5 0 0 1-2.67.63M429.5 384.27q-1.5 0-2.64-.51a4.4 4.4 0 0 1-1.8-1.44 4 4 0 0 1-.75-2.12v-.12h2.4v.1q.08.6.43 1.06.36.45.96.72.61.25 1.4.25.8 0 1.39-.28.6-.29.91-.78.33-.5.33-1.14v-.02q0-1.12-.76-1.71a3.2 3.2 0 0 0-2.05-.6h-1.62v-1.87h1.57q.76 0 1.32-.28.57-.27.88-.74t.31-1.1v-.01q0-.65-.27-1.1-.27-.47-.78-.7a3 3 0 0 0-1.24-.25q-.72 0-1.28.25-.55.25-.88.7-.33.47-.39 1.1v.09h-2.34v-.11q.12-1.22.74-2.12a4 4 0 0 1 1.69-1.4q1.06-.5 2.46-.5 1.43 0 2.48.46 1.07.47 1.64 1.31.6.83.59 1.94v.01a3.1 3.1 0 0 1-1.42 2.65q-.64.45-1.47.62v.05q1.52.15 2.45 1.03t.93 2.35v.01q0 1.23-.66 2.2a4.4 4.4 0 0 1-1.82 1.48q-1.15.52-2.7.52M442.07 384v-11.63h-.15l-3.73 2.48v-2.35l3.88-2.6h2.5V384zM520.67 384v-11.63h-.14l-3.73 2.48v-2.35l3.87-2.6h2.5V384zM528.5 384v-1.7l4.59-4.75a28 28 0 0 0 1.43-1.58q.52-.62.71-1.1.2-.5.2-1.02v-.03q0-.64-.27-1.14-.28-.5-.79-.79-.5-.3-1.2-.3-.73 0-1.29.32-.54.31-.86.86-.3.54-.3 1.26l-.02.05h-2.34v-.04q0-1.31.62-2.31.64-1.01 1.74-1.58a5.5 5.5 0 0 1 2.54-.56q1.37 0 2.41.51 1.05.52 1.64 1.43.6.9.6 2.09v.03q0 .8-.28 1.55-.3.75-1.01 1.64-.7.89-1.95 2.11l-3.52 3.49.72-1.24v1.24l-.72-.52h6.97V384zM541.05 384v-1.7l4.6-4.75a29 29 0 0 0 1.43-1.58q.51-.62.71-1.1.2-.5.2-1.02v-.03q0-.64-.28-1.14-.27-.5-.78-.79t-1.2-.3q-.74 0-1.29.32-.54.31-.86.86-.3.54-.31 1.26l-.01.05h-2.34v-.04q0-1.31.62-2.31.64-1.01 1.74-1.58a5.5 5.5 0 0 1 2.54-.56q1.36 0 2.41.51 1.05.52 1.64 1.43.6.9.6 2.09v.03q0 .8-.29 1.55-.3.75-1 1.64a25 25 0 0 1-1.95 2.11l-3.52 3.49.72-1.24v1.24l-.72-.52h6.97V384zM559.6 384v-2.7h-6.8v-2.09a309 309 0 0 1 3.37-5.66l2.29-3.64H562v9.31h1.87v2.07H562V384zm-4.49-4.73h4.54v-7.37h-.12a119 119 0 0 0-2.69 4.3l-.88 1.5-.85 1.46z"/><path fill="#000" d="M416.94 421.27q-1.6 0-2.81-.51a4.6 4.6 0 0 1-1.92-1.44 3.5 3.5 0 0 1-.69-2.14v-.02a3.4 3.4 0 0 1 1.5-2.88 4 4 0 0 1 1.65-.7v-.05q-1.2-.33-1.92-1.15a3 3 0 0 1-.72-1.98v-.01q0-1.1.62-1.93.64-.84 1.74-1.34a6 6 0 0 1 2.55-.49q1.44 0 2.54.5a4 4 0 0 1 1.74 1.33q.63.84.63 1.93v.01a3 3 0 0 1-.73 1.98q-.73.82-1.9 1.15v.06q.9.18 1.62.7.7.49 1.11 1.23.4.75.4 1.64v.02q0 1.2-.7 2.14a4.5 4.5 0 0 1-1.9 1.44q-1.2.51-2.8.51m0-1.92q.82 0 1.46-.3.63-.3 1-.82.35-.54.35-1.21V417q0-.69-.36-1.21a2.4 2.4 0 0 0-.98-.84q-.64-.3-1.47-.3t-1.46.3-1 .84-.35 1.2v.03q0 .68.35 1.2.36.53 1 .84t1.46.29m0-6.62q.72 0 1.26-.27.55-.25.85-.73t.31-1.1v-.01q0-.62-.3-1.08-.32-.48-.86-.74a3 3 0 0 0-1.26-.26q-.71 0-1.26.26-.54.27-.86.74-.3.46-.31 1.08v.02a2 2 0 0 0 1.17 1.82q.56.27 1.26.27M429.68 421.32q-1.13 0-2.14-.4a5 5 0 0 1-1.78-1.3 6 6 0 0 1-1.22-2.22q-.44-1.37-.44-3.26v-.02q0-2.37.67-4.06a5.6 5.6 0 0 1 1.94-2.58q1.26-.9 3.01-.9 1.29 0 2.32.48a4.6 4.6 0 0 1 1.7 1.3q.69.82.9 1.9l.03.1h-2.49l-.03-.08a2.5 2.5 0 0 0-1.33-1.43q-.48-.2-1.1-.2-1.1 0-1.78.66a4 4 0 0 0-1.05 1.76 9 9 0 0 0-.4 2.72v.28l.43 2.35q0 .8.36 1.45.38.66.99 1.03.6.37 1.38.37.76 0 1.38-.37.63-.37.99-1 .37-.64.37-1.42v-.02q0-.81-.35-1.44a2.67 2.67 0 0 0-2.36-1.35q-.78 0-1.41.36a2.6 2.6 0 0 0-1.35 2.38v.01h-.59v-2.55h.32q.26-.57.75-1.06a4 4 0 0 1 1.23-.79 5 5 0 0 1 1.68-.29q1.34 0 2.36.6 1.03.6 1.6 1.66.58 1.05.58 2.38v.02q0 1.43-.66 2.55a5 5 0 0 1-1.84 1.75 5.5 5.5 0 0 1-2.68.63M442.07 421.27q-1.52 0-2.65-.51a4.5 4.5 0 0 1-1.8-1.44 4 4 0 0 1-.75-2.12v-.12h2.4v.1q.08.6.42 1.06.37.45.97.72.6.25 1.4.25t1.38-.28q.6-.29.92-.78t.32-1.14v-.02q0-1.12-.75-1.71a3.2 3.2 0 0 0-2.05-.6h-1.62v-1.87h1.57q.76 0 1.32-.28.57-.27.88-.74.3-.47.31-1.1v-.01q0-.65-.27-1.1-.27-.47-.78-.7a3 3 0 0 0-1.24-.25q-.73 0-1.28.25t-.88.7q-.33.47-.4 1.1v.09h-2.34l.01-.11a4.3 4.3 0 0 1 .74-2.12q.63-.91 1.69-1.4 1.06-.5 2.46-.5 1.42 0 2.48.46 1.05.47 1.64 1.31.58.83.58 1.94v.01a3.1 3.1 0 0 1-1.41 2.65q-.64.45-1.48.62v.05q1.53.15 2.45 1.03t.93 2.35v.01q0 1.23-.65 2.2a4.4 4.4 0 0 1-1.82 1.48q-1.15.52-2.7.52"/><path fill="#fff" d="M416.77 443.59q1.11 0 2.13.42 1 .4 1.77 1.28.78.86 1.22 2.23.45 1.36.45 3.25v.02q0 2.37-.67 4.06a5.06 5.06 0 0 1-4.96 3.48q-1.29 0-2.32-.48a5 5 0 0 1-1.7-1.3 4.3 4.3 0 0 1-.9-1.9l-.02-.1h2.48l.04.08q.19.49.51.86.34.37.82.58.5.2 1.1.2a2.5 2.5 0 0 0 1.78-.66q.7-.66 1.04-1.77a9 9 0 0 0 .4-2.73v-.27l-.42-2.35a2.8 2.8 0 0 0-1.36-2.47 2.6 2.6 0 0 0-1.37-.38 2.7 2.7 0 0 0-2.38 1.37q-.37.64-.37 1.42v.02q0 .81.35 1.44a2.6 2.6 0 0 0 2.37 1.34q.78 0 1.4-.35.63-.35.99-.97.37-.6.37-1.41v-.01h.58v2.55h-.3q-.27.57-.77 1.06a4 4 0 0 1-1.23.78q-.72.3-1.67.3-1.35 0-2.36-.6a4.3 4.3 0 0 1-1.6-1.66q-.58-1.06-.58-2.38v-.02q0-1.43.66-2.55a4.7 4.7 0 0 1 1.84-1.75 5.5 5.5 0 0 1 2.68-.63M429.64 458.32q-1.45 0-2.54-.52a4.5 4.5 0 0 1-1.74-1.47 4 4 0 0 1-.74-2.08l-.01-.13h2.33l.01.07q.1.58.46 1.06a2.7 2.7 0 0 0 2.24 1.02q.81 0 1.44-.36t.98-1q.35-.62.35-1.46v-.02a3 3 0 0 0-.35-1.45 2.5 2.5 0 0 0-.98-.97 3 3 0 0 0-1.42-.36q-.6 0-1.1.17a2.7 2.7 0 0 0-1.25.9 3 3 0 0 0-.3.43h-2.17l.68-8.24H434v2.06h-6.5l-.38 4.28h.13q.3-.49.75-.81.47-.34 1.04-.51.59-.2 1.25-.19a4.5 4.5 0 0 1 3.95 2.25q.58 1.05.58 2.4v.02q0 1.46-.66 2.57a4.7 4.7 0 0 1-1.84 1.73q-1.16.6-2.68.61M442.23 458.32q-1.12 0-2.14-.4a5 5 0 0 1-1.77-1.3 6 6 0 0 1-1.22-2.22q-.44-1.37-.44-3.26v-.02q0-2.37.67-4.06a5.6 5.6 0 0 1 1.93-2.58q1.28-.9 3.02-.9 1.29 0 2.32.48a4.6 4.6 0 0 1 1.7 1.3q.69.82.9 1.9l.02.1h-2.48l-.03-.08a2.5 2.5 0 0 0-1.33-1.43q-.48-.2-1.1-.2-1.1 0-1.78.66a4 4 0 0 0-1.05 1.76 9 9 0 0 0-.4 2.72v.28l.43 2.35q0 .8.36 1.45.38.66.99 1.03.6.37 1.38.37t1.38-.37q.63-.37.99-1 .37-.64.37-1.42v-.02q0-.81-.35-1.44a2.67 2.67 0 0 0-2.36-1.35q-.78 0-1.41.36a2.6 2.6 0 0 0-1.35 2.38v.01h-.59v-2.55h.31q.27-.57.76-1.06a4 4 0 0 1 1.23-.79 5 5 0 0 1 1.68-.29q1.34 0 2.36.6t1.6 1.66.58 2.38v.02q0 1.43-.67 2.55a5 5 0 0 1-1.83 1.75 5.5 5.5 0 0 1-2.68.63"/><path fill="#000" d="M520.67 421v-11.63h-.14l-3.73 2.48v-2.35l3.87-2.6h2.5V421zM533.23 421v-11.63h-.14l-3.74 2.48v-2.35l3.88-2.6h2.5V421zM545.96 421.32q-1.13 0-2.14-.4a5 5 0 0 1-1.78-1.3 6 6 0 0 1-1.22-2.22q-.44-1.37-.44-3.26v-.02q0-2.37.67-4.06a5.6 5.6 0 0 1 1.94-2.58q1.27-.9 3.01-.9 1.29 0 2.32.48a4.6 4.6 0 0 1 1.7 1.3q.69.82.9 1.9l.03.1h-2.49l-.02-.08q-.19-.5-.53-.86-.34-.37-.81-.57t-1.1-.2q-1.1 0-1.78.66a4 4 0 0 0-1.05 1.76 9 9 0 0 0-.4 2.72v.28l.43 2.35q0 .8.36 1.45.38.66.99 1.03.6.37 1.39.37.75 0 1.37-.37t.99-1q.37-.64.37-1.42v-.02q0-.81-.35-1.44a2.67 2.67 0 0 0-2.36-1.35q-.78 0-1.41.36a2.6 2.6 0 0 0-1.35 2.38v.01h-.58v-2.55h.3q.27-.57.76-1.06.5-.5 1.23-.79a5 5 0 0 1 1.68-.29q1.34 0 2.36.6 1.03.6 1.6 1.66.58 1.05.58 2.38v.02q0 1.43-.66 2.55a5 5 0 0 1-1.84 1.75q-1.15.63-2.67.63M558.47 421.32a6 6 0 0 1-2.54-.52 4.5 4.5 0 0 1-1.73-1.47 4 4 0 0 1-.75-2.08v-.13h2.33v.07q.1.58.47 1.06a2.7 2.7 0 0 0 2.23 1.02q.82 0 1.45-.36t.98-1q.35-.62.35-1.46v-.02a3 3 0 0 0-.35-1.45 2.5 2.5 0 0 0-.98-.97 3 3 0 0 0-1.43-.36q-.6 0-1.1.17a2.7 2.7 0 0 0-1.24.9q-.17.18-.3.43h-2.17l.68-8.24h8.47v2.06h-6.5l-.38 4.28h.13q.3-.49.75-.81.45-.34 1.04-.51.58-.2 1.25-.19a4.5 4.5 0 0 1 3.94 2.25q.6 1.05.59 2.4v.02q0 1.46-.66 2.57a4.7 4.7 0 0 1-1.84 1.73q-1.16.6-2.69.61"/><path fill="#fff" d="M520.67 458v-11.63h-.14l-3.73 2.48v-2.35l3.87-2.6h2.5V458zM533.22 458.32q-1.68 0-2.88-.9a5.7 5.7 0 0 1-1.84-2.55q-.63-1.65-.64-3.91v-.02q0-2.27.64-3.92a5.6 5.6 0 0 1 1.84-2.54q1.2-.9 2.88-.9 1.67 0 2.87.9a5.6 5.6 0 0 1 1.85 2.54q.64 1.64.64 3.92v.02q0 2.25-.64 3.92a5.7 5.7 0 0 1-1.85 2.54q-1.2.9-2.87.9m0-2.04q.9 0 1.52-.63.64-.64.97-1.84.34-1.2.34-2.85v-.02q0-1.66-.34-2.84-.33-1.2-.97-1.83a2 2 0 0 0-1.52-.63q-.9 0-1.53.63a4 4 0 0 0-.97 1.83q-.33 1.17-.33 2.84v.02q0 1.66.33 2.85.34 1.19.97 1.84.63.63 1.53.63M545.96 458.32q-1.13 0-2.14-.4a5 5 0 0 1-1.78-1.3 6 6 0 0 1-1.22-2.22q-.44-1.37-.44-3.26v-.02q0-2.37.67-4.06a5.6 5.6 0 0 1 1.94-2.58q1.27-.9 3.01-.9 1.29 0 2.32.48a4.6 4.6 0 0 1 1.7 1.3q.69.82.9 1.9l.03.1h-2.49l-.02-.08q-.19-.5-.53-.86-.34-.37-.81-.57t-1.1-.2q-1.1 0-1.78.66a4 4 0 0 0-1.05 1.76 9 9 0 0 0-.4 2.72v.28l.43 2.35q0 .8.36 1.45.38.66.99 1.03.6.37 1.39.37.75 0 1.37-.37t.99-1q.37-.64.37-1.42v-.02q0-.81-.35-1.44a2.67 2.67 0 0 0-2.36-1.35q-.78 0-1.41.36a2.6 2.6 0 0 0-1.35 2.38v.01h-.58v-2.55h.3q.27-.57.76-1.06.5-.5 1.23-.79a5 5 0 0 1 1.68-.29q1.34 0 2.36.6 1.03.6 1.6 1.66.58 1.05.58 2.38v.02q0 1.43-.66 2.55a5 5 0 0 1-1.84 1.75q-1.15.63-2.67.63M558.35 458v-11.63h-.15l-3.73 2.48v-2.35l3.88-2.6h2.5V458z"/><path fill="#D1D4DC" stroke="#000" stroke-width="2" d="m341.33 315.47.22.7 2.48 7.94 2.48-7.94.22-.7h4.8l-.45 1.33-4.7 13.53-.23.67h-4.24l-.23-.67-4.7-13.53-.45-1.33zm16.99 0 .23.67 4.82 13.52.27.76v-14.95h4.41v5.63h4.6v-5.63h4.4V331h-4.4v-5.87h-4.6V331h-8.89l-.22-.7-.9-2.8h-3.56l-.9 2.8-.23.7h-4.68l.47-1.33 4.81-13.53.24-.67zm-2.59 8.17h1.05l-.52-1.63zM383.33 315.63a.92.92 0 0 1 1.38-.65l.12.09 8.04 6.7c.41.35.44.97.08 1.34l-.08.08-8.04 6.7c-.6.5-1.51.08-1.51-.7v-13.56Z"/><path stroke="#D1D4DC" stroke-dasharray="3.84 3.84" stroke-width="2" d="M397 321h176"/><path fill="#0F0F0F" d="M100 391.68a7.7 7.7 0 0 1 7.68-7.68h160.64a7.7 7.7 0 0 1 7.68 7.68v68.64a7.7 7.7 0 0 1-7.68 7.68H107.68a7.7 7.7 0 0 1-7.68-7.68z"/><path fill="#D1D4DC" d="M118.73 420v-16.23h5.5q2.4 0 4.11.96a6.4 6.4 0 0 1 2.63 2.77q.91 1.8.91 4.36v.02q0 2.55-.9 4.37a6.4 6.4 0 0 1-2.63 2.8 8.3 8.3 0 0 1-4.13.95zm2.03-1.82h3.33a6 6 0 0 0 3.11-.73q1.28-.75 1.95-2.14t.66-3.41v-.02q0-2-.67-3.41a4.7 4.7 0 0 0-1.95-2.15 6 6 0 0 0-3.1-.73h-3.33zM139.3 420.23q-1.68 0-2.92-.76a5 5 0 0 1-1.86-2.11q-.66-1.38-.66-3.23v-.01q0-1.84.66-3.22a4.99 4.99 0 0 1 4.67-2.96q1.6 0 2.76.75 1.17.76 1.8 2.08.62 1.35.62 3.12v.73h-9.52v-1.54h8.54l-.98 1.42v-.75q0-1.4-.41-2.29a2.95 2.95 0 0 0-2.83-1.79q-.95 0-1.7.47t-1.19 1.38q-.44.9-.44 2.23v.75q0 1.26.43 2.15.44.88 1.22 1.36.78.47 1.86.47.76 0 1.35-.22.6-.23 1-.6.38-.39.56-.84l.03-.1h1.94l-.03.1q-.14.7-.56 1.31-.4.6-1.05 1.08-.62.47-1.46.75-.83.27-1.82.27M146.79 420v-16.46h1.96V420zM155.71 420.18q-1.69 0-2.5-.75-.8-.76-.8-2.47v-7.17h-1.78v-1.62h1.77V405h2.03v3.17h2.36v1.62h-2.36v7q0 .99.4 1.36t1.24.38a6 6 0 0 0 .72-.05v1.61a7 7 0 0 1-1.08.09M162.38 420.23q-1.16 0-2.04-.44a3.4 3.4 0 0 1-1.4-1.24 3.5 3.5 0 0 1-.5-1.88v-.02a3.1 3.1 0 0 1 1.97-2.95 7 7 0 0 1 2.33-.5l4.37-.26v1.52l-4.14.26q-1.24.08-1.88.57a1.6 1.6 0 0 0-.64 1.33v.03q0 .87.65 1.38t1.71.5q.95 0 1.7-.4t1.18-1.07.44-1.53v-3.56q0-1.09-.68-1.69-.66-.6-1.93-.6-1.12 0-1.81.45-.7.44-.88 1.22l-.02.08h-1.91v-.1q.12-.97.7-1.74.6-.75 1.6-1.2a6 6 0 0 1 2.35-.45q1.42 0 2.43.48t1.56 1.35.55 2.07V420h-1.96v-1.87h-.1q-.34.64-.9 1.12a4 4 0 0 1-2.75.98M122.87 454v-14.41h-5.15v-1.82h12.34v1.82h-5.16V454zM134.35 454.23q-1.65 0-2.9-.75a5 5 0 0 1-1.9-2.13 7.4 7.4 0 0 1-.68-3.27v-.02q0-1.9.67-3.26a5 5 0 0 1 4.8-2.86q1.65 0 2.88.74 1.23.75 1.91 2.12.69 1.37.69 3.26v.02a7 7 0 0 1-.69 3.28 5 5 0 0 1-4.78 2.87m0-1.74q1.07 0 1.84-.51.78-.54 1.2-1.51a6 6 0 0 0 .42-2.39v-.02q0-1.4-.42-2.37a3.3 3.3 0 0 0-1.2-1.5 3.3 3.3 0 0 0-1.85-.52q-1.05 0-1.85.52-.78.52-1.2 1.5a6 6 0 0 0-.42 2.37v.02q0 1.4.42 2.39.42.97 1.2 1.5a3.3 3.3 0 0 0 1.86.52M146.1 454.18q-1.68 0-2.5-.75-.8-.76-.8-2.47v-7.17h-1.78v-1.62h1.78V439h2.02v3.17h2.37v1.62h-2.37v7q0 .99.4 1.36t1.25.38a6 6 0 0 0 .72-.05v1.61a7 7 0 0 1-1.09.09M152.78 454.23q-1.17 0-2.05-.44a3.4 3.4 0 0 1-1.4-1.24 3.5 3.5 0 0 1-.5-1.88v-.02a3.1 3.1 0 0 1 1.98-2.95 7 7 0 0 1 2.33-.5l4.36-.26v1.52l-4.14.26q-1.23.08-1.88.57a1.6 1.6 0 0 0-.64 1.33v.03q0 .87.65 1.38t1.71.5q.95 0 1.7-.4t1.18-1.07.44-1.53v-3.56q0-1.09-.67-1.69-.66-.6-1.94-.6-1.11 0-1.8.45-.7.44-.89 1.22l-.02.08h-1.91l.01-.1q.1-.97.7-1.74.6-.75 1.6-1.2t2.35-.45q1.41 0 2.43.48 1 .48 1.55 1.35t.55 2.07V454h-1.96v-1.87h-.09q-.34.64-.9 1.12a4 4 0 0 1-2.75.98M161.44 454v-16.46h1.96V454z"/><path fill="#089981" d="M204.54 420.32a7 7 0 0 1-2.5-.48 6 6 0 0 1-2.06-1.48 7 7 0 0 1-1.4-2.56q-.5-1.56-.5-3.7v-.03q0-2.7.78-4.64a6.5 6.5 0 0 1 2.25-2.95 6 6 0 0 1 3.5-1.03q1.48 0 2.67.54a5.2 5.2 0 0 1 3 3.67l.03.11h-2.87l-.03-.1q-.22-.56-.61-.98-.38-.42-.95-.64a3 3 0 0 0-1.26-.24 3 3 0 0 0-2.08.77q-.8.76-1.2 2.02a11 11 0 0 0-.46 3.1v.31l.5 2.7q0 .9.4 1.65.44.72 1.15 1.16t1.6.43a3.1 3.1 0 0 0 2.75-1.56q.43-.73.43-1.62v-.02q0-.94-.4-1.65a3 3 0 0 0-1.12-1.12 3 3 0 0 0-1.62-.4q-.91 0-1.63.4a3 3 0 0 0-1.57 2.71v.02h-.67v-2.83h.28a4 4 0 0 1 2.37-2.2 5 5 0 0 1 1.96-.35q1.55 0 2.72.7 1.18.68 1.85 1.88t.67 2.75v.02q0 1.63-.77 2.91a5.5 5.5 0 0 1-2.13 2q-1.35.73-3.08.73M219.07 420.3a7 7 0 0 1-3.08-.6 5 5 0 0 1-2.07-1.65q-.76-1.05-.88-2.4v-.15h2.76l.01.12q.08.67.5 1.2.41.51 1.12.8t1.63.3 1.61-.32q.7-.32 1.07-.89t.38-1.31v-.02q0-1.29-.88-1.97a3.8 3.8 0 0 0-2.38-.69h-1.9v-2.16h1.83q.89 0 1.54-.31.66-.32 1.03-.86.37-.56.37-1.26v-.02q0-.75-.32-1.26a2 2 0 0 0-.92-.8q-.6-.28-1.45-.28-.84 0-1.49.3-.64.27-1.02.79-.37.51-.46 1.23l-.01.1h-2.7l.02-.13a4.8 4.8 0 0 1 2.81-4.01 7 7 0 0 1 2.85-.58q1.65 0 2.88.54t1.9 1.49q.68.96.68 2.23v.02a3.5 3.5 0 0 1-1.65 3.05q-.75.5-1.7.7v.06a4.6 4.6 0 0 1 2.84 1.2 3.5 3.5 0 0 1 1.08 2.7v.02q0 1.41-.77 2.5-.75 1.1-2.1 1.7-1.35.61-3.13.61M234.01 420.32a7 7 0 0 1-2.5-.48 6 6 0 0 1-2.05-1.48 7 7 0 0 1-1.4-2.56q-.5-1.56-.5-3.7v-.03q0-2.7.77-4.64a6.5 6.5 0 0 1 2.25-2.95 6 6 0 0 1 3.5-1.03q1.48 0 2.68.54a5.2 5.2 0 0 1 3 3.67l.02.11h-2.87l-.03-.1q-.21-.56-.6-.98-.4-.42-.95-.64a3 3 0 0 0-1.26-.24 3 3 0 0 0-2.08.77q-.8.76-1.2 2.02a11 11 0 0 0-.47 3.1v.31l.5 2.7q0 .9.41 1.65.43.72 1.14 1.16.72.43 1.6.43a3.1 3.1 0 0 0 2.75-1.56q.43-.73.43-1.62v-.02q0-.94-.4-1.65a3 3 0 0 0-1.12-1.12 3 3 0 0 0-1.62-.4q-.9 0-1.63.4a3 3 0 0 0-1.56 2.71v.02h-.68v-2.83h.28a4 4 0 0 1 2.38-2.2 5 5 0 0 1 1.95-.35q1.55 0 2.73.7 1.18.68 1.84 1.88.68 1.2.68 2.75v.02q0 1.63-.78 2.91a5.5 5.5 0 0 1-2.12 2q-1.35.73-3.09.73"/><path fill="#D1D4DC" d="M206.37 454.3q-1.86 0-3.28-.6a5.4 5.4 0 0 1-2.21-1.66 4 4 0 0 1-.8-2.45v-.02q0-1.04.46-1.88.48-.86 1.3-1.43a5 5 0 0 1 1.88-.8v-.07a4.4 4.4 0 0 1-2.22-1.32 3.3 3.3 0 0 1-.84-2.26v-.03q0-1.23.74-2.2a5 5 0 0 1 2.01-1.54 7 7 0 0 1 2.96-.57q1.66 0 2.95.57a5 5 0 0 1 2.01 1.54q.73.96.73 2.2v.03a3.3 3.3 0 0 1-.84 2.26 4.3 4.3 0 0 1-2.2 1.32v.07q1.05.21 1.87.8a4.1 4.1 0 0 1 1.76 3.3v.03q0 1.38-.81 2.45a5 5 0 0 1-2.22 1.66q-1.4.6-3.25.6m-.01-2.22a4 4 0 0 0 1.7-.34q.75-.35 1.17-.96.42-.6.42-1.38v-.02q0-.78-.41-1.39-.42-.6-1.16-.95a4 4 0 0 0-1.72-.35q-.98 0-1.71.35-.75.35-1.16.95-.42.6-.42 1.39v.02q0 .78.42 1.38t1.17.96q.75.33 1.7.34m0-7.6q.84 0 1.47-.31.64-.3 1-.85.36-.54.36-1.25v-.02q0-.7-.36-1.24a2.4 2.4 0 0 0-1-.84q-.63-.3-1.47-.3t-1.48.3-.99.84-.36 1.24v.02q0 .72.36 1.25.36.54 1 .85.63.3 1.47.3M222.68 454v-3.12h-8v-2.44a801 801 0 0 1 6.64-10.67h4.13v10.73h2.17v2.38h-2.17V454zm-5.37-5.43h5.42V440h-.1l-3.21 5.05-1.06 1.7-1.05 1.7zM235.66 437.45q1.33 0 2.49.49 1.17.47 2.06 1.47a7 7 0 0 1 1.4 2.56q.52 1.56.52 3.7v.03q0 2.7-.78 4.64a6.4 6.4 0 0 1-2.24 2.95 6 6 0 0 1-3.5 1.02q-1.5 0-2.68-.54a5 5 0 0 1-3.02-3.67v-.1h2.85l.05.1q.21.54.6.97.38.42.94.66.56.22 1.27.22a3 3 0 0 0 2.07-.75q.81-.77 1.2-2.04a11 11 0 0 0 .48-3.1v-.3l-.5-2.7a3.2 3.2 0 0 0-4.77-2.82 3.1 3.1 0 0 0-1.57 2.76v.02q0 .93.4 1.64a3 3 0 0 0 2.75 1.53q.9 0 1.61-.4.75-.4 1.15-1.1.43-.71.43-1.61v-.03h.67v2.84h-.29q-.3.7-.9 1.28t-1.47.92-1.95.34a5.4 5.4 0 0 1-2.73-.69 5 5 0 0 1-1.86-1.88 5.6 5.6 0 0 1-.66-2.75v-.02a5.5 5.5 0 0 1 2.9-4.9q1.36-.75 3.08-.74M252.16 454v-3.12h-8v-2.44a801 801 0 0 1 6.63-10.67h4.13v10.73h2.18v2.38h-2.18V454zm-5.37-5.43h5.41V440h-.1l-3.2 5.05-1.06 1.7-1.05 1.7z"/><path fill="url(#dum342uj5)" d="M620 348H0v120h620z"/></g><defs><filter id="bum342uj5" width="348" height="607" x="14" y="-138" color-interpolation-filters="sRGB" filterUnits="userSpaceOnUse"><feFlood flood-opacity="0" result="BackgroundImageFix"/><feColorMatrix in="SourceAlpha" result="hardAlpha" values="0 0 0 0 0 0 0 0 0 0 0 0 0 0 0 0 0 0 127 0"/><feOffset/><feGaussianBlur stdDeviation="22"/><feComposite in2="hardAlpha" operator="out"/><feColorMatrix values="0 0 0 0 0 0 0 0 0 0.8 0 0 0 0 0.666667 0 0 0 1 0"/><feBlend in2="BackgroundImageFix" result="effect1_dropShadow_12029_187342"/><feColorMatrix in="SourceAlpha" result="hardAlpha" values="0 0 0 0 0 0 0 0 0 0 0 0 0 0 0 0 0 0 127 0"/><feOffset/><feGaussianBlur stdDeviation="78"/><feComposite in2="hardAlpha" operator="out"/><feColorMatrix values="0 0 0 0 0 0 0 0 0 0.8 0 0 0 0 0.666667 0 0 0 1 0"/><feBlend in2="effect1_dropShadow_12029_187342" result="effect2_dropShadow_12029_187342"/><feBlend in="SourceGraphic" in2="effect2_dropShadow_12029_187342" result="shape"/></filter><filter id="cum342uj5" width="188" height="539" x="391" y="5" color-interpolation-filters="sRGB" filterUnits="userSpaceOnUse"><feFlood flood-opacity="0" result="BackgroundImageFix"/><feColorMatrix in="SourceAlpha" result="hardAlpha" values="0 0 0 0 0 0 0 0 0 0 0 0 0 0 0 0 0 0 127 0"/><feOffset/><feGaussianBlur stdDeviation="38"/><feComposite in2="hardAlpha" operator="out"/><feColorMatrix values="0 0 0 0 1 0 0 0 0 0.192157 0 0 0 0 0.262745 0 0 0 1 0"/><feBlend in2="BackgroundImageFix" result="effect1_dropShadow_12029_187342"/><feColorMatrix in="SourceAlpha" result="hardAlpha" values="0 0 0 0 0 0 0 0 0 0 0 0 0 0 0 0 0 0 127 0"/><feOffset/><feGaussianBlur stdDeviation="30"/><feComposite in2="hardAlpha" operator="out"/><feColorMatrix values="0 0 0 0 1 0 0 0 0 0.192157 0 0 0 0 0.262745 0 0 0 1 0"/><feBlend in2="effect1_dropShadow_12029_187342" result="effect2_dropShadow_12029_187342"/><feBlend in="SourceGraphic" in2="effect2_dropShadow_12029_187342" result="shape"/></filter><linearGradient id="dum342uj5" x1="310" x2="310" y1="348" y2="468" gradientUnits="userSpaceOnUse"><stop stop-opacity="0"/><stop offset="1"/></linearGradient><clipPath id="aum342uj5"><path fill="#fff" d="M0 0h620v468H0z"/></clipPath></defs></svg>