<svg xmlns="http://www.w3.org/2000/svg" width="200" height="80" viewBox="0 0 200 80"><path fill="#fff" d="M70.7 25q.28.02.43.24a16 16 0 0 1 2.9 9.16c0 10.82-11.2 19.6-25.01 19.6S24 45.22 24 34.4c0-3.3 1.05-6.42 2.89-9.16a.5.5 0 0 1 .45-.24.5.5 0 0 1 .48.37l.01.22v.02q-.08.53-.08 1.05c0 7.25 8.78 12.37 21.27 12.37s21.26-5.12 21.26-12.37q0-.59-.08-1.16c0-.28.23-.5.5-.5m37.39 4.17q.93 0 1.79-.26l-2.78 19.47c-.27 1.91-1.14 2.57-2.7 2.57h-1.62c-1.34 0-2.07-.78-2.48-2.54l-2.39-9.79c-.05-.26-.05-.33-.17-.33s-.16.07-.22.33l-2.35 9.8c-.42 1.75-1.14 2.53-2.49 2.53h-1.62c-1.56 0-2.43-.66-2.7-2.57l-2.8-19.56q1.05.37 2.23.35 1.04 0 1.98-.32l2.13 17.87c.03.27.03.46.15.46s.12-.19.18-.46l2.56-10.43c.19-.72.6-1.37 1.9-1.37h2.06c1.3 0 1.71.65 1.89 1.37l2.59 10.43c.06.27.06.46.18.46s.12-.19.15-.46l2.16-17.9c.72.3 1.53.35 2.37.35m11.2 4.22c4.56 0 7.05 3.19 7.05 7.7v1.5c0 .48-.17.73-.6.73h-9.78v.12c0 1.75.83 4.05 3.68 4.05 2.16 0 4.32-.23 5.57-.36h.09c.3 0 .54.2.54.5v2c0 .49-.08.7-.62.8-1.93.35-3.21.52-5.88.52-2.96 0-7.18-1.64-7.18-7.61v-2.25c0-4.73 2.58-7.7 7.12-7.7m0 3.46c-1.85 0-3.33 1.34-3.33 3.73v.12h6.44v-.12c0-2.37-1.28-3.73-3.12-3.73m14.15-8.8v5.34c1.09-.15 2.17-.27 2.88-.27 4.71 0 7 2.93 7 7.73v2.37c0 4.8-2.28 7.73-7 7.73-1.88 0-4.07-.3-5.89-.8-.67-.19-.79-.37-.79-.84V28.17q.85.26 1.78.27c.73 0 1.37-.14 2.02-.39m2.88 8.4c-.7 0-2.06.09-2.88.21v10.75c.56.12 1.82.21 2.88.21 2.52 0 3.2-1.88 3.2-4.4v-2.37c0-2.52-.68-4.4-3.2-4.4m12.2-1.88c.61 0 1.08-.1 1.64-.27v9.18c0 3.2 1.23 3.95 2.95 3.95h.18c1.72 0 2.95-.74 2.95-3.95v-9.25c0 .22.75.34 1.85.34.69 0 1.33-.2 1.95-.41v9.32c0 6.73-5 7.47-6.75 7.47H153c-1.83-.03-6.66-.87-6.66-7.47v-9.32q1.02.4 2.17.41m19.12-6.52V50.3c0 .34-.23.66-.55.66h-2.67c-.32 0-.58-.3-.58-.66V28.06c1.23.45 2.57.44 3.8 0m6.6.38q.91 0 1.76-.28V50.3c0 .34-.23.66-.55.66h-2.67c-.32 0-.58-.3-.58-.66V28.05q.96.38 2.04.38"/></svg>