<svg width="120" height="120" viewBox="0 0 120 120" xmlns="http://www.w3.org/2000/svg"><path fill-rule="evenodd" d="M40.73 81h-5.28l17.02-18.74L34.87 40h14.4l10.98 13.69L72.67 40h5.28L62.72 56.77 82.17 81H67.28L54.92 65.37 40.72 81Zm28.49-4L43.13 44h4.22l26.48 33h-4.61Z" fill="#D1D4DC"/><path fill-rule="evenodd" d="M110 21.5a12.5 12.5 0 0 1-9 12V104H15V18h70.5a12.5 12.5 0 0 1 24.5 3.5ZM97.5 30a8.5 8.5 0 1 0 0-17 8.5 8.5 0 0 0 0 17ZM19 22h66.01A12.5 12.5 0 0 0 97 33.99V100H19V22Z" fill="#D1D4DC"/></svg>