<svg xmlns="http://www.w3.org/2000/svg" width="230" height="100" viewBox="0 0 230 100"><path d="M54.55 66a826.85 826.85 0 0 1-19.52-.15c.03-.07 3.4-5.94 7.5-13.03l7.44-12.92h9.29l7.48 12.96a535 535 0 0 1 7.42 13.08c-.03.06-8.85.1-19.61.06z" fill="#005C15"/><path d="M183.19 66.33a25.6 25.6 0 0 1-3.33-.68l-1.08-.32.07-.53c.05-.3.16-1.21.25-2.03.1-.82.18-1.52.21-1.53.03-.03.61.14 1.28.41 4.67 1.8 8.97.8 9.33-2.2.1-.9-.15-1.98-.58-2.61-.45-.63-2.03-1.6-3.87-2.4-4.2-1.77-5.77-3.05-6.54-5.24-.26-.73-.3-1.17-.26-2.61.05-1.64.08-1.77.6-2.83.97-1.95 2.75-3.28 5.33-3.97 1.85-.49 5.55-.3 7.86.4l.2.05c.24.07.4.12.5.22.2.2.14.62 0 1.84l-.06.55c-.17 1.32-.23 1.52-.44 1.43-2.78-1.16-5.8-1.34-7.6-.45-1.2.63-1.65 1.33-1.65 2.62 0 1.8.85 2.58 4.66 4.24 4.41 1.9 6.11 3.63 6.55 6.63.6 4.06-1.87 7.55-6.17 8.74-.78.21-4.35.4-5.26.27zm-41.46-.2c-4.04-.53-7.22-2.18-9.22-4.82a16.04 16.04 0 0 1-2.22-4.57 20.92 20.92 0 0 1-.18-6.49 12.6 12.6 0 0 1 8.1-9.6c2.15-.78 3.34-.95 6.3-.86 2.05.06 2.87.14 3.8.4.66.18 1.26.4 1.35.47.12.12-.12 3.96-.27 4.1-.03.03-.46-.12-.98-.33a10.9 10.9 0 0 0-4.93-.78 8.5 8.5 0 0 0-2.95.45 8.08 8.08 0 0 0-5.18 5.19 12.91 12.91 0 0 0-.3 5.93 8.91 8.91 0 0 0 3.72 5.57c2.4 1.55 6.33 1.88 9.73.79a6.4 6.4 0 0 1 1.19-.31c.03.03.1.95.15 2.07l.09 2.02-.8.23c-1.88.53-5.39.79-7.4.53zM81.63 62v3.97h18.34V62.1l-6.65-.03-6.63-.04 1.43-1.91c.78-1.05 3.7-5.13 6.48-9.08l5.07-7.16V39.9H81.94v4.02l6.24.03 6.26.05-.9 1.19c-1.58 2.1-5.5 7.61-8.76 12.28L81.64 62zm21.02 3.87c.01-.07 2.38-5.92 5.27-13l5.26-12.9 2.43-.04c1.34-.02 2.49.01 2.56.09.06.06 2.5 5.84 5.41 12.84l3.07 7.35v.01l2.33 5.58c.06.13-.5.17-2.5.17h-2.6l-1.25-3.13-1.24-3.12-5.73.03-5.74.04-1.22 3.05-1.22 3.06-2.42.04c-1.32.02-2.41-.01-2.41-.07zm16.14-13.04a124.54 124.54 0 0 1-2.87-8l-.25-.95-.7 2c-.37 1.1-1.38 3.85-2.23 6.13l-1.55 4.13h8.85l-1.25-3.3zm35.56-12.93v26.07h4.62V53.43l1.15 1.47c1.46 1.88 2.07 2.6 6.12 7.24l3.37 3.83h6.4l-.44-.47-5.72-6.23a926.62 926.62 0 0 0-5.91-6.42l-.68-.7 5.71-5.93c3.13-3.28 5.75-5.96 5.83-6a.25.25 0 0 0 .12-.19c0-.07-1.25-.13-2.94-.13h-2.95l-2.77 3.1c-1.52 1.7-3.78 4.24-5.02 5.66l-2.27 2.56V39.9h-4.62z" fill="#0AA02C"/><path d="M35.03 65.85c.03-.07 3.4-5.93 7.5-13.03l7.44-12.92h9.29l1.55 2.72 2.43 4.2c3.08 5.31 10.84 18.81 10.9 18.96.06.16-3.7.2-19.55.2a801.2 801.2 0 0 1-19.56-.13zm6.03-.14a5.62 5.62 0 0 0 1.48-.23c.06-.06-.02-.2-.18-.33-.2-.16-.22-.22-.06-.19.12.02.39-.06.58-.16.31-.18.34-.17.27.04-.06.17-.04.22.06.15.09-.04.13-.28.1-.52-.04-.27.02-.45.15-.5.17-.07.18-.13.03-.3-.13-.17-.09-.2.33-.15.3.04.42.01.3-.06-.18-.1-.17-.2.03-.56.12-.23.22-.34.24-.23 0 .09.07.17.16.17s.14-.1.09-.22c-.06-.12-.03-.25.05-.3.08-.06.14 0 .16.1 0 .11.06.07.12-.1a.74.74 0 0 0-.02-.56c-.09-.18-.07-.24.05-.23.09.03.22-.13.3-.35.06-.24.04-.42-.03-.42-.06 0-.1-.1-.05-.23.06-.11.15-.17.22-.13.08.05.14-.03.14-.16 0-.14.07-.2.15-.15.07.04.15-.02.15-.15 0-.2-.1-.18-.63.13-2.67 1.54-5.9 3.36-7.67 4.32a25.64 25.64 0 0 0-2.22 1.3c-.1.15 3.59.16 5.7.02zm11.84-.3c.68-.45 1.2-1.1 3.74-4.73a108.7 108.7 0 0 0 6.48-10.56l.65-1.33a.51.51 0 0 0 0-.5c-.1-.21-.16-.17-.38.25l-.54 1.01c-.16.27-.24.57-.2.66.06.09.05.12-.04.07-.09-.06-.45.38-.8.97-.6 1-2.22 3.28-4.3 6.08-1.62 2.2-6.72 8.2-6.95 8.2-.17 0 .04-.26 1.28-1.64.73-.82 1.44-1.67 1.6-1.91.14-.22.48-.64.78-.94a12 12 0 0 0 .75-.85c.12-.16.56-.68.97-1.15.78-.92 1.41-1.78.74-1.04-1.36 1.5-1.71 1.9-2.6 2.83-.51.58-1.8 1.9-2.8 2.94l-1.86 1.9.57.05c1.7.16 2.22.12 2.9-.31zm11.72-.24c.34-.37.63-.78.63-.9 0-.1.12-.3.27-.4.23-.2.23-.2.03.1-.21.26-.21.28.03.1.13-.12.22-.29.17-.38-.03-.1.21-.58.53-1.05.32-.5.55-.96.52-1.02-.05-.07-.18-.01-.3.14-.16.2-.2.2-.18.04.03-.13-.06-.2-.2-.2-.16 0-.28-.04-.28-.11 0-.08-.07-.14-.16-.14-.07 0-.1.08-.06.15.05.1.02.15-.07.15-.1 0-.12.1-.06.2.09.15.06.15-.1 0-.25-.24-.5-.26-.35-.03.06.1 0 .13-.2.07a.93.93 0 0 0-.66.09c-.2.1-.4.16-.47.15a2.6 2.6 0 0 0-.73.36c-.34.22-.82.4-1.07.41-.3.02-.63.18-.97.54-.28.28-.53.5-.56.45a7.5 7.5 0 0 0-1.76 1.3c-.18.19-.5.35-.69.35-1.06.08 1.18.24 3.46.27l2.62.03.61-.67zm9.27.55c0-.06-.37-.73-.83-1.5l-.85-1.39-.44.52c-.3.36-.5.5-.68.43-.14-.04-.21-.03-.14.03.1.14-.44.82-.65.82-.22 0-.84.72-.75.87.05.09.4.18.76.22 1.26.1 3.58.1 3.58 0zm-26.52-.12c0-.04-.03-.07-.08-.07a.07.07 0 0 0-.07.07c0 .05.03.08.07.08.05 0 .08-.03.08-.08zm.25-.25c-.04-.12-.09-.08-.09.09-.01.16.03.25.08.2.04-.05.06-.19.01-.3zm21.76.24c-.05-.05-.18-.06-.29-.02-.12.05-.07.1.1.1.16 0 .25-.04.19-.08zm.79-1.18c0-.05-.03-.08-.08-.08-.04 0-.07.03-.07.08 0 .04.03.07.07.07.05 0 .08-.03.08-.07zM57.7 62.53a114.4 114.4 0 0 0 10.35-6.8c.03 0-.34-.72-.8-1.56-1.64-2.9-3.06-5.15-2.85-4.56.05.15 0 .46-.09.73-.12.36-.22.45-.47.38-.3-.08-.3-.06-.05.13.27.2.26.2-.03.3-.18.04-.31.2-.31.34 0 .13-.07.36-.16.48-.14.2-.15.18-.08-.03.05-.18.02-.23-.15-.17-.27.1-.27.26.02.5.12.1.22.26.2.35 0 .12-.02.12-.07-.01-.04-.1-.2-.03-.45.2-.28.29-.32.42-.2.65.1.2.09.28-.08.34-.13.06-.18.01-.12-.13.06-.15 0-.18-.16-.12-.15.06-.21.19-.17.35.05.17-.01.3-.14.36-.17.06-.21.03-.15-.1.04-.1-.02-.03-.15.15l-.61.74c-.3.34-.32.43-.14.54.2.1.33.55.17.55-.03 0-.2.04-.35.09-.25.09-.25.09.02-.12.18-.13.22-.25.13-.31s-.27.06-.4.26c-.31.48-.3.57.04.48.26-.06.27-.03.12.21-.1.16-.19.22-.22.13-.03-.07-.16-.14-.3-.14-.22 0-.22.03-.03.14.17.1.17.15.03.15-.1 0-.15.08-.09.18.06.1.05.12-.04.08-.1-.06-.28.04-.43.22-.17.18-.2.27-.1.2.1-.05.19-.02.19.07 0 .09.09.12.19.06s.13-.05.06.03c-.08.07-.2.15-.27.15l-.22.04c-.06 0-.02.12.09.24.15.18.15.27 0 .45-.1.12-.12.3-.06.38.06.12.04.14-.06.08-.1-.06-.35.01-.55.15-.3.2-.35.28-.21.44.12.15.12.21.01.21-.09 0-.13.14-.1.3.04.22-.03.3-.24.3-.22 0-.27.07-.22.39.06.28.01.35-.14.3-.12-.05-.2 0-.18.08.02.1-.06.2-.15.21-.1.02-.23.03-.28.05-.06 0-.01.12.1.25.17.21.15.22-.1.18-.2-.03-.28.04-.28.3 0 .37-.61.82-.88.67-.08-.06-.09-.02-.03.07.15.26.13.26 1.64-.58zm-1.03.05c-.04-.05-.16 0-.27.1-.13.15-.12.16.1.08.14-.05.21-.14.17-.18zm5.89-.1c0-.05-.03-.08-.08-.08a.07.07 0 0 0-.07.07c0 .05.03.08.07.08.05 0 .08-.03.08-.08zm2.83-1.05c0-.05-.03-.08-.08-.08-.04 0-.07.03-.07.08 0 .04.03.07.07.07.05 0 .08-.03.08-.07zm1.64 0c0-.05-.03-.08-.08-.08-.04 0-.07.03-.07.08 0 .04.03.07.07.07.05 0 .08-.03.08-.07zm-21.31-.15c0-.04-.03-.07-.08-.07a.07.07 0 0 0-.07.07c0 .04.03.07.07.07.05 0 .08-.03.08-.07zm20.52-.18c-.06-.04-.1 0-.1.1 0 .11.04.15.1.11a.18.18 0 0 0 0-.2zm-20.37-.12c0-.04-.03-.07-.08-.07a.07.07 0 0 0-.07.07c0 .05.03.08.07.08.05 0 .08-.03.08-.08zm.07-.52c.05-.07.06-.15.02-.15-.05 0-.12.08-.17.15-.04.09-.06.15-.01.15.04 0 .12-.06.16-.15zm12.22-.15c.04-.07.06-.15.02-.15-.05 0-.12.08-.17.15-.04.1-.06.15-.01.15.04 0 .12-.06.16-.15zm-11.55-.97a.07.07 0 0 0-.07-.07c-.05 0-.08.03-.08.07 0 .05.03.08.08.08.04 0 .07-.03.07-.08zm12.6-.62c-.1-.1-.38.1-.38.28 0 .09.09.09.22-.03.14-.1.2-.22.17-.25zm-.13-.3a.18.18 0 0 0-.2 0c-.05.06 0 .1.1.1s.15-.04.1-.1zm-19.02-.57c0-.04-.03-.07-.08-.07a.07.07 0 0 0-.07.07c0 .05.03.08.07.08.05 0 .08-.03.08-.08zm2.23-.6a.07.07 0 0 0-.07-.07c-.05 0-.08.03-.08.08 0 .04.03.07.08.07.04 0 .07-.03.07-.07zm-1.79-.14c0-.05-.03-.08-.07-.08-.05 0-.08.03-.08.08 0 .04.03.07.08.07.04 0 .07-.03.07-.07zm.15-.3a.07.07 0 0 0-.07-.07c-.05 0-.08.03-.08.07 0 .04.03.07.08.07.04 0 .07-.03.07-.07zm.34-.39c.06-.24.05-.27-.13-.12-.1.1-.16.23-.12.3.12.2.17.17.25-.18zm23.06-6.02c0-.04-.03-.07-.08-.07a.07.07 0 0 0-.07.07c0 .05.03.08.07.08.05 0 .08-.03.08-.08zM58.74 43c-.03-.06.03-.12.12-.12.07 0 .1-.06.06-.15-.05-.08 0-.15.1-.15.2 0 .57-.36.71-.67.05-.08.14-.13.2-.1.06.01 0-.18-.12-.44l-.24-.44-.58 1.16c-.31.64-.73 1.4-.9 1.68-.32.5-.32.5.17-.07.28-.33.5-.64.48-.7z" fill="#0FA622"/><path d="M42 65.3c0-.04.03-.07.08-.07.04 0 .07.03.07.07 0 .05-.03.08-.07.08-.05 0-.08-.03-.08-.08zm.94-.92a.18.18 0 0 1 .21 0c.05.06 0 .1-.1.1s-.15-.04-.1-.1zm19.4-13.75c.05-.08.12-.15.17-.15.04 0 .03.07-.02.15-.04.09-.12.15-.16.15-.05 0-.03-.06.01-.15zm3.36 11.4c0-.05.02-.08.07-.08.04 0 .07.03.07.08 0 .04-.03.07-.07.07-.05 0-.08-.03-.08-.07zm-8.65.27c0-.11.08-.17.15-.13.1.06.12.17.08.24-.14.21-.23.17-.23-.1zm.65-.45a.18.18 0 0 1 .2 0c.05.06 0 .1-.1.1s-.15-.04-.1-.1zm-.35-.12c0-.05.03-.08.07-.08.05 0 .08.03.08.08 0 .04-.03.07-.08.07a.07.07 0 0 1-.07-.07zm.89-.83c0-.08.08-.11.15-.07.1.05.15.12.15.17 0 .03-.06.06-.15.06-.07 0-.15-.08-.15-.17zm1.54-2.63a.18.18 0 0 1 .2 0c.05.06 0 .1-.1.1s-.15-.04-.1-.1zm.85-2.35c0-.05.03-.08.07-.08.05 0 .08.03.08.08 0 .04-.03.07-.08.07a.07.07 0 0 1-.07-.07zm.39-.36c-.05-.08.01-.17.13-.23.13-.04.22 0 .22.14 0 .24-.23.3-.35.09zm.65-.09c0-.05.03-.08.08-.08.04 0 .07.03.07.08 0 .04-.03.07-.07.07-.05 0-.08-.03-.08-.07zm-.1-.33c-.23-.07-.26-.34-.06-.34.07 0 .16.1.22.22.05.12.06.23.05.21a.88.88 0 0 1-.21-.09zm.85-.42c0-.04.03-.07.07-.07.05 0 .08.03.08.07 0 .05-.03.08-.08.08-.04 0-.07-.03-.07-.08zm.44-1.19c0-.04.03-.07.08-.07.04 0 .07.03.07.07 0 .05-.03.08-.07.08-.05 0-.08-.03-.08-.08zm-.15-.3c0-.04.03-.07.08-.07.04 0 .07.03.07.07 0 .05-.03.08-.07.08-.05 0-.08-.03-.08-.08zm.3-.15c0-.04.03-.07.08-.07.04 0 .07.03.07.07 0 .05-.03.08-.07.08-.05 0-.08-.03-.08-.08zm.59-1.41c0-.1.05-.15.11-.1.05.05.05.14 0 .2-.06.05-.1 0-.1-.1zM180.73 65.9c0-.05.03-.08.07-.08.05 0 .08.03.08.08 0 .04-.03.07-.08.07a.07.07 0 0 1-.07-.07zm-31.74-.3c0-.04.03-.07.07-.07.05 0 .08.03.08.07 0 .05-.03.08-.08.08-.04 0-.07-.03-.07-.08zm19.97-.3c0-.04.03-.07.07-.07.04 0 .07.03.07.07 0 .05-.03.08-.07.08-.04 0-.07-.03-.07-.08zm-31.3-.15c0-.04.03-.07.08-.07.04 0 .07.03.07.07 0 .05-.03.08-.07.08-.05 0-.08-.03-.08-.08zm37.26-.29c0-.05.03-.08.07-.08.05 0 .07.03.07.08 0 .04-.02.07-.07.07a.07.07 0 0 1-.07-.07zm-66.76-.9c0-.04.03-.07.08-.07.04 0 .07.03.07.07 0 .05-.03.08-.07.08-.05 0-.08-.03-.08-.08zm-4.76-.15c0-.04.02-.07.07-.07.04 0 .07.03.07.07 0 .05-.03.08-.07.08-.05 0-.08-.03-.08-.08zm30.54-.89c0-.05.03-.08.07-.08.05 0 .08.03.08.08 0 .04-.03.07-.08.07a.07.07 0 0 1-.07-.07zm59.3 0c0-.05.03-.08.08-.08.04 0 .07.03.07.08 0 .04-.03.07-.07.07-.05 0-.08-.03-.08-.07zm.3-.45c0-.04.03-.07.08-.07.04 0 .07.03.07.07 0 .05-.03.08-.07.08-.05 0-.08-.03-.08-.08zm-46.79-.44c0-.05.03-.08.08-.08.04 0 .07.03.07.08 0 .04-.03.07-.07.07-.05 0-.08-.03-.08-.07zm33.53-.45c0-.05.03-.08.07-.08.05 0 .08.03.08.08 0 .04-.03.07-.08.07a.07.07 0 0 1-.07-.07zm-97.9-.75c0-.04.03-.07.08-.07.04 0 .07.03.07.07 0 .05-.03.08-.07.08-.05 0-.08-.03-.08-.08zm44.11-.74c0-.05.03-.08.07-.08.05 0 .08.03.08.08 0 .04-.03.07-.08.07a.07.07 0 0 1-.07-.07zm-5.07-.15c0-.05.03-.08.08-.08.04 0 .07.03.07.08 0 .04-.03.07-.07.07-.05 0-.08-.03-.08-.07zm-16.39-.15c0-.04.03-.07.08-.07.04 0 .07.03.07.07 0 .04-.03.07-.07.07-.05 0-.08-.03-.08-.07zm64.67-.59c0-.05.03-.08.08-.08.04 0 .07.03.07.07 0 .05-.03.08-.07.08-.05 0-.08-.03-.08-.08zm-43.96-.9c0-.04.03-.07.08-.07.04 0 .07.03.07.07 0 .04-.03.07-.07.07-.05 0-.08-.03-.08-.07zm68.7-1.64c0-.04.03-.07.07-.07.05 0 .08.03.08.07 0 .05-.03.08-.08.08-.04 0-.07-.03-.07-.08zm-88.07-.15c0-.04.03-.07.08-.07.04 0 .07.03.07.07 0 .05-.03.08-.07.08-.05 0-.08-.03-.08-.08zm54.83-.15c0-.04.04-.07.08-.07.05 0 .08.03.08.07 0 .05-.03.08-.08.08-.04 0-.07-.03-.07-.08zm-75.1-.89c0-.05.04-.08.08-.08.05 0 .08.03.08.08 0 .04-.03.07-.08.07a.07.07 0 0 1-.07-.07zm101.18-.15c0-.05.03-.07.08-.07.04 0 .07.02.07.07 0 .04-.03.07-.07.07-.05 0-.08-.03-.08-.07zm6.71 0c0-.05.03-.07.07-.07.05 0 .08.02.08.07 0 .04-.03.07-.08.07a.07.07 0 0 1-.07-.07zM87.15 53.98c0-.05.03-.08.08-.08.04 0 .07.03.07.08 0 .04-.03.07-.07.07-.05 0-.08-.03-.08-.07zm36.81 0c0-.05.03-.08.07-.08.05 0 .08.03.08.08 0 .04-.03.07-.08.07a.07.07 0 0 1-.07-.07zm-4.92-.3c0-.04.03-.07.07-.07.05 0 .08.03.08.07 0 .05-.03.08-.08.08-.04 0-.07-.03-.07-.08zm45.45-.15c0-.04.03-.07.07-.07.04 0 .07.03.07.07 0 .05-.03.08-.07.08-.04 0-.07-.03-.07-.08zm-71.08-.89c0-.05.03-.08.07-.08.05 0 .08.03.08.08 0 .04-.03.07-.08.07a.07.07 0 0 1-.07-.07zm-5.21-.15c0-.05.02-.08.07-.08.04 0 .07.03.07.08 0 .04-.03.07-.07.07-.05 0-.08-.03-.08-.07zm19.81 0c0-.05.03-.08.08-.08.04 0 .07.03.07.08 0 .04-.03.07-.07.07-.05 0-.08-.03-.08-.07zm10.59 0c0-.05.02-.08.07-.08.04 0 .07.03.07.08 0 .04-.03.07-.07.07-.05 0-.08-.03-.08-.07zm4.61-.29c0-.05.03-.08.08-.08.04 0 .07.03.07.07 0 .05-.03.08-.07.08-.05 0-.08-.03-.08-.08zm40.09-.16c0-.04.02-.07.07-.07.04 0 .07.03.07.07 0 .05-.03.08-.07.08-.05 0-.08-.03-.08-.08zm17.43-.14c0-.05.03-.08.07-.08.05 0 .08.03.08.07 0 .05-.03.08-.08.08-.04 0-.07-.03-.07-.08zm9.53-.16c0-.04.03-.07.08-.07.04 0 .07.03.07.07 0 .05-.03.08-.07.08-.05 0-.08-.03-.08-.08zm-1.19-.59c0-.05.03-.08.08-.08.04 0 .07.03.07.08 0 .04-.03.07-.07.07-.05 0-.08-.03-.08-.07zM134.83 51c0-.05.03-.08.08-.08.04 0 .07.03.07.08 0 .04-.03.07-.07.07-.05 0-.08-.03-.08-.07zm-21.75-.15c0-.05.03-.08.07-.08.05 0 .08.03.08.08 0 .04-.03.07-.08.07a.07.07 0 0 1-.07-.07zm9.39-.45c0-.04.03-.07.07-.07.05 0 .07.03.07.07 0 .05-.02.08-.07.08-.04 0-.07-.03-.07-.08zm64.81 0c0-.04.03-.07.08-.07.04 0 .07.03.07.07 0 .05-.03.08-.07.08-.05 0-.08-.03-.08-.08zm-8.19-.6c0-.04.03-.07.07-.07.05 0 .08.03.08.08 0 .04-.03.07-.08.07a.07.07 0 0 1-.07-.07zm5.66-.74c0-.04.03-.07.07-.07.05 0 .08.03.08.07 0 .05-.03.08-.08.08-.04 0-.07-.03-.07-.08zm-88.51-.45c0-.04.03-.07.08-.07.04 0 .07.03.07.07 0 .05-.03.08-.07.08-.05 0-.08-.03-.08-.08zm70.63-.29c0-.05.03-.08.07-.08.05 0 .08.03.08.08 0 .04-.03.07-.08.07a.07.07 0 0 1-.07-.07zm-35.91-1.05c0-.04.03-.07.07-.07.05 0 .08.03.08.07 0 .05-.03.08-.08.08-.04 0-.07-.03-.07-.08zm-14.46-.44c0-.05.04-.08.08-.08.05 0 .08.03.08.08 0 .04-.03.07-.08.07a.07.07 0 0 1-.07-.07zm66.76-.38c0-.1.05-.15.1-.1.05.06.05.15 0 .2-.05.05-.1 0-.1-.1zm-19.96-.22c0-.04.02-.07.07-.07.04 0 .07.03.07.07 0 .05-.03.07-.07.07-.05 0-.08-.02-.08-.07zM111 45.19c0-.05.02-.08.07-.08.04 0 .07.03.07.08 0 .04-.03.07-.07.07-.05 0-.08-.03-.08-.07zm21.15 0c0-.05.03-.08.08-.08.04 0 .07.03.07.08 0 .04-.03.07-.07.07-.05 0-.08-.03-.08-.07zm6.55-.3c0-.05.04-.08.08-.08.05 0 .08.03.08.08 0 .04-.03.07-.08.07a.07.07 0 0 1-.07-.07zm25.79 0c0-.05.03-.08.07-.08.04 0 .07.03.07.08 0 .04-.03.07-.07.07a.07.07 0 0 1-.07-.07zm-31.89-.29c0-.05.03-.08.07-.08.05 0 .08.03.08.07 0 .05-.03.08-.08.08-.04 0-.07-.03-.07-.08zm37.85 0c0-.05.03-.08.07-.08.05 0 .07.03.07.07 0 .05-.02.08-.07.08-.04 0-.07-.03-.07-.08zm21.45-.6c0-.05.03-.08.08-.08.04 0 .07.03.07.08 0 .04-.03.07-.07.07-.05 0-.08-.03-.08-.07zm-26.07-.6c0-.05.03-.08.07-.08.05 0 .08.03.08.08 0 .04-.03.07-.08.07a.07.07 0 0 1-.07-.07zm20.27 0c0-.05.02-.08.07-.08.04 0 .07.03.07.08 0 .04-.03.07-.07.07-.05 0-.08-.03-.08-.07zm-6.56-.3c0-.04.03-.07.07-.07.04 0 .07.03.07.07 0 .05-.03.08-.07.08-.04 0-.07-.03-.07-.08zm-45-.45c0-.04.03-.07.07-.07.04 0 .07.03.07.07 0 .05-.03.08-.07.08-.04 0-.07-.03-.07-.08zm.59-.45c0-.04.03-.07.08-.07.04 0 .07.03.07.08 0 .04-.03.07-.07.07-.05 0-.08-.03-.08-.07zm.45-.3c0-.04.03-.07.07-.07.05 0 .08.03.08.08 0 .04-.03.07-.08.07a.07.07 0 0 1-.07-.07zm-22.95-.74c0-.04.03-.07.08-.07.04 0 .07.03.07.07 0 .05-.03.08-.07.08-.05 0-.08-.03-.08-.08zm24.59-.14c0-.05.03-.08.07-.08.05 0 .08.03.08.08 0 .04-.03.07-.08.07a.07.07 0 0 1-.07-.07zm36.73-.08c.04-.07.12-.15.16-.15.05 0 .03.08-.01.15-.05.09-.12.15-.17.15-.04 0-.03-.06.02-.15zm19.15-.52c0-.05.03-.08.07-.08.05 0 .07.03.07.08 0 .04-.03.07-.07.07a.07.07 0 0 1-.07-.07zm-45.15-.3c0-.04.03-.07.07-.07.05 0 .07.03.07.07 0 .05-.02.08-.07.08-.04 0-.07-.03-.07-.08zm-7.45-.15c0-.04.03-.07.07-.07.05 0 .08.03.08.07 0 .05-.03.08-.08.08-.04 0-.07-.03-.07-.08zm18.32 0c0-.04.03-.07.08-.07.04 0 .07.03.07.07 0 .05-.03.08-.07.08-.05 0-.08-.03-.08-.08zm26.38-.3c0-.04.03-.07.07-.07.05 0 .08.03.08.07 0 .05-.03.08-.08.08-.04 0-.07-.03-.07-.08zm1.34-.14c0-.05.03-.08.07-.08.05 0 .08.03.08.08 0 .04-.03.07-.08.07a.07.07 0 0 1-.07-.07zm1.83-.03a.18.18 0 0 1 .21 0c.05.05 0 .1-.1.1s-.15-.05-.1-.1zM50.8 38.6c0-.04.84-1.56 1.87-3.35 1.52-2.64 1.92-3.23 2.07-3.07.1.1.85 1.37 1.67 2.8l1.83 3.17.33.56h-3.89c-2.14 0-3.89-.05-3.89-.1z" fill="#0FA622"/><path d="M35 65.84c0-.09.06-.2.15-.24.09-.04.1.02.06.14-.1.26-.21.3-.21.1zm5.48-.02l5.28-.07.31-.39c.18-.22.45-.53.6-.73.16-.18.34-.52.43-.76.07-.24.2-.43.3-.43.07 0 .09-.06.04-.15-.04-.07.08-.31.27-.5.2-.2.33-.47.31-.6-.01-.14.03-.21.1-.15.08.04.25-.02.37-.15.16-.16.17-.24.03-.28-.12-.05-.1-.15.1-.35.28-.28.3-.28.07 0-.19.27-.19.27.12.1.18-.12.3-.27.26-.33-.05-.06-.02-.23.06-.36.12-.21.16-.21.4.04.25.26.27.27.01.32-.15.03-.22.15-.18.25.05.12 0 .22-.08.25-.1.03-.18.2-.2.36 0 .16-.2.61-.4 1-.42.73-.43.82-.09.52 1.13-1.03.92-.76-.43.58-.91.91-1.63 1.7-1.58 1.75.06.04 1.49.08 3.19.08h3.08l.37-.44c.21-.24.45-.45.54-.45.09 0 .16-.07.16-.16 0-.08.08-.1.15-.06.1.04.15.01.15-.08s.06-.12.15-.07c.08.04.15.03.15-.03 0-.08.18-.21.42-.3.22-.1.5-.25.62-.33.24-.16 3.6-2.08 4.15-2.38.67-.36.28-.03-.6.5-.52.32-1.04.69-1.16.8a8.1 8.1 0 0 1-.75.65c-.28.2-.65.5-.82.67-.16.15-.65.55-1.08.9-.75.58-.78.64-.45.71.2.04 4.62.06 9.83.04 5.23-.03 9.5 0 9.5.08 0 .06-8.75.09-19.47.07-10.72-.01-17.12-.07-14.23-.12zm7.29-2.93c-.06-.05-.1 0-.1.1s.04.15.1.1a.18.18 0 0 0 0-.2zm.34-.12a.07.07 0 0 0-.07-.07c-.05 0-.08.03-.08.07 0 .04.03.07.08.07.04 0 .07-.03.07-.07zm1.34-1.94a.07.07 0 0 0-.07-.07c-.05 0-.07.03-.07.07 0 .05.02.08.07.08.04 0 .07-.03.07-.08z" fill="#1DCD3E"/><path d="M45.73 65.45c0-.04.03-.07.07-.07.05 0 .08.03.08.07 0 .05-.03.08-.08.08-.04 0-.07-.03-.07-.08zm28.17 0c0-.04.02-.07.07-.07.04 0 .07.03.07.07 0 .05-.03.08-.07.08-.05 0-.08-.03-.08-.08zm-.46-.75c0-.04.03-.07.08-.07.04 0 .07.03.07.08 0 .04-.03.07-.07.07-.05 0-.08-.03-.08-.07zm-37.69-.14c0-.05.02-.08.07-.08.04 0 .07.03.07.08 0 .04-.03.07-.07.07-.05 0-.07-.03-.07-.07zm37.55-.16c0-.04.02-.07.07-.07.04 0 .07.03.07.08 0 .04-.03.07-.07.07-.05 0-.08-.03-.08-.07zm-37.26-.44c0-.04.03-.07.08-.07.04 0 .07.03.07.07 0 .05-.03.08-.07.08-.05 0-.08-.03-.08-.08zm36.96 0c0-.04.03-.07.07-.07.05 0 .08.03.08.07 0 .05-.03.08-.08.08-.04 0-.07-.03-.07-.08zm-26.23-.15c0-.04.03-.07.08-.07.04 0 .07.03.07.07 0 .05-.03.08-.07.08-.05 0-.08-.03-.08-.08zm26.08-.15c0-.04.03-.07.07-.07.05 0 .08.03.08.07 0 .05-.03.08-.08.08-.04 0-.07-.03-.07-.08zm-36.51-.15c0-.04.03-.07.08-.07.04 0 .07.03.07.07 0 .05-.03.08-.07.08-.05 0-.08-.03-.08-.08zm36.36-.14c0-.05.03-.08.07-.08.05 0 .08.03.08.08 0 .04-.03.07-.08.07a.07.07 0 0 1-.07-.07zm-36.21-.15c0-.05.03-.08.07-.08.05 0 .08.03.08.08 0 .04-.03.07-.08.07a.07.07 0 0 1-.07-.07zm35.91-.3c0-.05.03-.08.08-.08.04 0 .07.03.07.08 0 .04-.03.07-.07.07-.05 0-.08-.03-.08-.07zm-.15-.3c0-.04.03-.07.08-.07.04 0 .07.03.07.07 0 .05-.03.08-.07.08-.05 0-.08-.03-.08-.08zm-35.31-.15c0-.04.03-.07.07-.07.05 0 .08.03.08.07 0 .05-.03.08-.08.08-.04 0-.07-.03-.07-.08zm.15-.3c0-.04.03-.07.07-.07.05 0 .08.03.08.07 0 .05-.03.08-.08.08-.04 0-.07-.03-.07-.08zm.29-.44c0-.05.03-.08.08-.08.04 0 .07.03.07.08 0 .04-.03.07-.07.07-.05 0-.08-.03-.08-.07zm34.28-.15c0-.05.03-.08.07-.08.04 0 .07.03.07.08 0 .04-.03.07-.07.07a.07.07 0 0 1-.07-.07zm-34.13-.15c0-.05.03-.08.08-.08.04 0 .07.03.07.08 0 .04-.03.07-.07.07-.05 0-.08-.03-.08-.07zm12.92-.18c-.03-.06.1-.27.28-.46.44-.4.47-.3.08.2-.16.22-.31.32-.36.26zm-6.95-.42c0-.04.02-.07.07-.07.04 0 .07.03.07.07 0 .05-.03.08-.07.08-.05 0-.08-.03-.08-.08zm27.7 0c0-.04.04-.07.08-.07.05 0 .08.03.08.07 0 .05-.03.08-.08.08-.04 0-.07-.03-.07-.08zm-33.22-.15c0-.04.03-.07.07-.07.05 0 .08.03.08.07 0 .05-.03.08-.08.08-.04 0-.07-.03-.07-.08zm6.11-.18a5.25 5.25 0 0 0 1.34-1.25c0-.12.52-.76 1.16-1.41.1-.12.15-.29.1-.37-.07-.12-.05-.14.05-.08.12.06.24-.04.33-.28.07-.21.2-.34.3-.3.07.04.15.01.15-.06 0-.3.04-.39.28-.57.33-.25.46-.23.46.05 0 .12-.06.18-.15.13-.07-.04-.15.02-.15.15 0 .15.08.21.2.14.09-.05 0 .07-.23.3-.23.22-.41.52-.41.66 0 .17-.1.32-.23.38-.12.04-.2.13-.2.2.05.23-.2.63-.35.54-.07-.04-.18.05-.22.21-.03.16-.39.46-.76.69-.39.2-1 .55-1.37.76-.38.2-.51.26-.3.12zm26.9.1c.04-.07.11-.14.16-.14.04 0 .03.07-.02.15-.04.09-.11.15-.16.15-.04 0-.03-.06.02-.15zm-32.86-.21c0-.05.03-.08.07-.08.05 0 .08.03.08.08 0 .04-.03.07-.08.07a.07.07 0 0 1-.07-.07zm11.55-.08c.04-.07.12-.15.16-.15.03 0 .06.08.06.15 0 .1-.07.15-.16.15-.08 0-.1-.06-.06-.15zm1.56-.22c0-.12.1-.23.23-.23.2 0 .6-.67.55-.92-.02-.07.06-.12.16-.12.09 0 .33-.24.52-.52.18-.28.27-.52.2-.52-.08 0-.17.09-.21.2-.03.08-.12.13-.18.07s.13-.26.43-.45c.3-.2.54-.43.54-.52 0-.1.07-.2.15-.2.07 0 .13-.07.1-.17-.01-.1.05-.18.13-.2.21 0 .66-.46.66-.67 0-.09.06-.13.15-.07.07.04.24-.12.37-.36.26-.5.3-.82.08-.69-.1.06-.12.17-.08.24.06.08.03.14-.04.14-.27 0-.32-.2-.1-.4.13-.13.17-.29.13-.38-.06-.09-.05-.13.03-.09.07.05.23-.01.35-.15.2-.2.18-.22-.07-.13-.2.07-.1-.06.2-.34.28-.24.56-.45.62-.45.06 0 .15-.09.2-.2.04-.1-.95.48-2.2 1.32a100.1 100.1 0 0 1-5.75 3.63c-.28.15-.27.1.12-.2.25-.23.48-.5.48-.62s.06-.2.13-.2c.08 0 .2-.14.24-.3.06-.17.16-.27.24-.21.07.04.13.03.12-.05a.9.9 0 0 1 0-.28 4.82 4.82 0 0 1 1.53-1.62c.17-.06.26-.2.21-.3a.24.24 0 0 1 .15-.29c.12-.04.2-.17.2-.28 0-.27.9-1.2.92-.95 0 .09.07.03.16-.15.09-.2.22-.34.3-.34.06 0 .12-.1.12-.23 0-.12.06-.22.15-.22.07 0 .49-.33.9-.75.42-.4.83-.74.9-.74.07 0 .13-.1.13-.22s.08-.23.17-.23c.07 0 .1-.06.06-.15-.06-.09.01-.1.16-.04.17.06.23.04.17-.06s.09-.34.34-.54c.24-.2.45-.45.45-.52 0-.09.16-.2.37-.24.2-.06.37-.2.37-.31 0-.12.06-.22.13-.22.06 0 .38-.24.67-.53.32-.28.63-.47.72-.43.1.06.12.03.06-.06-.06-.1.15-.33.54-.56.77-.48 1.8-1.66 1.7-1.94-.05-.12-.02-.21.05-.21.1 0 .15.1.15.22 0 .14.1.27.21.32.12.04.26.24.3.44.06.2.16.36.25.36.1 0 .12.06.08.12-.05.08.04.27.2.43.16.18.24.36.2.4-.06.05-.01.1.07.1.1 0 .2.2.26.44.06.27.16.42.27.36.28-.13-.8.83-1.82 1.65-.5.42-1.37 1.33-1.92 2.03A138.99 138.99 0 0 1 56 55.24c-.06.05-.63.7-1.27 1.42a69 69 0 0 1-1.72 1.94c-.33.33-.59.64-.59.7 0 .07-.1.12-.22.12s-.22.09-.22.2c0 .11-.17.32-.38.45-.32.21-.37.23-.37.02zm4.77-6.41a.07.07 0 0 0-.07-.07c-.05 0-.08.03-.08.07 0 .05.03.08.08.08.04 0 .07-.03.07-.08zm3.5-7.23c.05-.07.06-.15.02-.15-.05 0-.12.08-.17.15-.04.1-.06.15-.01.15.04 0 .12-.06.16-.15zm11.18 13.71c-.05-.07-.02-.15.06-.15.09 0 .16.08.16.15 0 .1-.03.15-.06.15-.04 0-.12-.06-.16-.15zm-32.07-.4c0-.1.07-.2.15-.2.09 0 .12-.04.06-.08-.05-.05.04-.23.2-.4s.25-.36.2-.44c-.04-.06 0-.12.09-.12s.13-.06.09-.12c-.04-.07 0-.13.1-.13.33 0 3-1.58 3.46-2.06a52.8 52.8 0 0 0 2.73-3.11c.18-.24.33-.37.33-.31 0 .04.14-.08.34-.3.18-.23.45-.52.58-.67.13-.15.2-.32.16-.34-.03-.05.08-.12.24-.18.18-.05.31-.2.31-.3 0-.12.14-.28.3-.37.17-.1.3-.32.3-.5 0-.26.03-.28.15-.1.12.18.15.16.15-.1 0-.2.07-.35.15-.35.09 0 .15-.1.15-.24 0-.14.09-.2.2-.16.14.06.26-.01.32-.18.04-.15.27-.43.49-.64.82-.74 1.22-1.28 1.22-1.6 0-.08.14-.16.29-.16.16 0 .34-.13.38-.31.06-.2.18-.27.32-.22.11.04.17.03.13-.06-.05-.08.07-.21.25-.32.2-.1.5-.34.7-.52.2-.2.48-.36.64-.36.17 0 .26-.06.2-.13-.05-.07.06-.18.2-.24a.6.6 0 0 0 .4-.36c.04-.16.2-.26.41-.25.18 0 .31-.06.3-.16-.03-.1.09-.23.25-.27.17-.06.3-.15.3-.22 0-.06.2-.2.46-.29.26-.09.5-.3.54-.46.04-.16.15-.25.24-.2.09.07.12-.02.07-.22-.06-.22 0-.34.2-.4.14-.06.28-.16.28-.25 0-.08-.1-.1-.24-.06-.12.04-.18.03-.13-.06.04-.1.19-.15.3-.15.13 0 .17-.09.13-.22-.1-.24.16-.32.3-.1.09.14-.26 1.08-.94 2.61a3.63 3.63 0 0 0-.39 1.1c.04.05.07 0 .07-.1 0-.12.1-.16.23-.1.13.04.39-.1.6-.33l.4-.4-.42.67c-2.24 3.65-6.33 7.31-12.1 10.82-1.2.73-2.47 1.55-2.85 1.8-.37.27-1.11.79-1.65 1.15-.54.35-1.28.95-1.65 1.3-.38.38-.69.59-.69.47zm12.77-12.78c0-.05-.03-.08-.07-.08-.05 0-.08.03-.08.08 0 .04.03.07.08.07.04 0 .07-.03.07-.07zm1.34-1.05a.07.07 0 0 0-.07-.07c-.05 0-.08.03-.08.07 0 .05.03.08.08.08.04 0 .07-.03.07-.08zm3.73-1.19c0-.04-.03-.07-.08-.07a.07.07 0 0 0-.07.07c0 .04.03.07.07.07.05 0 .08-.03.08-.07zm1.04-2.98c0-.04-.03-.07-.08-.07a.07.07 0 0 0-.07.07c0 .04.03.07.07.07.05 0 .08-.03.08-.07zm-7.7 18a.18.18 0 0 1 .2 0c.05.06 0 .1-.1.1s-.15-.04-.1-.1z" fill="#1DCD3E"/><path d="M51.44 59.61a.18.18 0 0 1 .2 0c.05.06 0 .1-.1.1s-.15-.04-.1-.1zm18.92-.15a.18.18 0 0 1 .2 0c.05.06 0 .1-.1.1s-.14-.04-.1-.1zm-18.82-.12c0-.04.03-.07.07-.07.05 0 .08.03.08.07 0 .05-.03.08-.08.08-.04 0-.07-.03-.07-.08zm-1.34-.14c0-.05.03-.08.07-.08.05 0 .08.03.08.07 0 .05-.03.08-.08.08-.04 0-.07-.03-.07-.08zm19.97-.08c0-.1.04-.15.1-.1.04.05.04.14 0 .2-.06.05-.1 0-.1-.1zm-14.76-.08c0-.04.03-.07.08-.07.04 0 .07.03.07.07 0 .05-.03.08-.07.08-.05 0-.08-.03-.08-.08zm14.35-.62a.18.18 0 0 1 .21 0c.05.06 0 .1-.1.1s-.15-.04-.1-.1zm-22.09-.12c0-.04.03-.07.07-.07.04 0 .07.03.07.07 0 .04-.03.07-.07.07a.07.07 0 0 1-.07-.07zm8.73-.4c.15-.21.31-.36.34-.33.05.04-.09.22-.27.4l-.35.33.28-.4zm-16.78-.05c0-.04.03-.07.07-.07.05 0 .08.03.08.07 0 .05-.03.08-.08.08-.04 0-.07-.03-.07-.08zm29.8-.15c0-.04.03-.07.07-.07.05 0 .08.03.08.07 0 .05-.03.08-.08.08-.04 0-.07-.03-.07-.08zm-29.65-.15c0-.04.03-.07.07-.07.05 0 .08.03.08.07 0 .05-.03.08-.08.08-.04 0-.07-.03-.07-.08zm29.2-.59c0-.05.03-.08.08-.08.04 0 .07.03.07.08 0 .04-.03.07-.07.07-.05 0-.08-.03-.08-.07zm-12.07-.15c0-.05.03-.07.08-.07.04 0 .07.02.07.07 0 .04-.03.07-.07.07-.05 0-.08-.03-.08-.07zm1.2-.89c0-.05.03-.08.07-.08.05 0 .07.03.07.08 0 .04-.02.07-.07.07a.07.07 0 0 1-.07-.07zm10.28 0c0-.05.03-.08.07-.08.05 0 .08.03.08.08 0 .04-.03.07-.08.07a.07.07 0 0 1-.07-.07zm-20.21-.26c-.06-.1-.04-.12.06-.06.18.1.24.24.12.24-.04 0-.12-.07-.18-.18zm20.06-.04c0-.05.03-.08.07-.08.05 0 .08.03.08.08 0 .04-.03.07-.08.07a.07.07 0 0 1-.07-.07zm-27.27-.15c0-.05.03-.08.07-.08.05 0 .08.03.08.08 0 .04-.03.07-.08.07a.07.07 0 0 1-.07-.07zm26.82-.6c0-.04.03-.07.08-.07.04 0 .07.03.07.07 0 .05-.03.08-.07.08-.05 0-.08-.03-.08-.08zm-26.38-.15c0-.04.04-.07.08-.07.05 0 .08.03.08.07 0 .05-.03.08-.08.08-.04 0-.07-.03-.07-.08zm9.54-.44c0-.05.03-.08.08-.08.04 0 .07.03.07.08 0 .04-.03.07-.07.07-.05 0-.08-.03-.08-.07zm16.39-.15c0-.05.03-.08.08-.08.04 0 .07.03.07.08 0 .04-.03.07-.07.07-.05 0-.08-.03-.08-.07zm-.14-.3c0-.05.03-.07.07-.07.04 0 .07.02.07.07 0 .04-.03.07-.07.07a.07.07 0 0 1-.07-.07zM42 53.68c0-.04.03-.07.08-.07.04 0 .07.03.07.07 0 .05-.03.08-.07.08-.05 0-.08-.03-.08-.08zm.15-.3c0-.04.03-.07.08-.07.04 0 .07.03.07.07 0 .05-.03.08-.07.08-.05 0-.08-.03-.08-.08zm24.59-.3c0-.04.03-.07.07-.07.05 0 .08.03.08.07 0 .05-.03.08-.08.08-.04 0-.07-.03-.07-.08zm-24.29-.14c0-.05.03-.08.07-.08.05 0 .08.03.08.08 0 .04-.03.07-.08.07a.07.07 0 0 1-.07-.07zm24.14-.15c0-.05.03-.08.07-.08.05 0 .08.03.08.08 0 .04-.03.07-.08.07a.07.07 0 0 1-.07-.07zm-23.99-.15c0-.05.03-.08.07-.08.05 0 .08.03.08.08 0 .04-.03.07-.08.07a.07.07 0 0 1-.07-.07zm9.54 0c0-.05.03-.08.07-.08.05 0 .07.03.07.08 0 .04-.02.07-.07.07a.07.07 0 0 1-.07-.07zm14.16-.3c0-.05.02-.08.07-.08.04 0 .07.03.07.08 0 .04-.03.07-.07.07-.05 0-.08-.03-.08-.07zm-.16-.3c0-.04.03-.07.08-.07.04 0 .07.03.07.07 0 .05-.03.08-.07.08-.05 0-.08-.03-.08-.08zm-23.09-.14c0-.05.03-.08.07-.08.05 0 .08.03.08.07 0 .05-.03.08-.08.08-.04 0-.07-.03-.07-.08zm.15-.3c0-.05.03-.08.07-.08.04 0 .07.03.07.07 0 .05-.03.08-.07.08-.04 0-.07-.03-.07-.08zm22.5-.3c0-.05.03-.08.07-.08.04 0 .07.03.07.08 0 .04-.03.07-.07.07a.07.07 0 0 1-.07-.07zm-22.06-.45c0-.05.03-.08.08-.08.04 0 .07.03.07.08 0 .04-.03.07-.07.07-.05 0-.08-.03-.08-.07zm21.76-.15c0-.04.03-.07.07-.07.05 0 .08.03.08.07 0 .05-.03.07-.08.07-.04 0-.07-.02-.07-.07zm-21.6-.15c0-.04.02-.07.07-.07.04 0 .07.03.07.07 0 .05-.03.08-.07.08-.05 0-.08-.03-.08-.08zm4.16-.15c0-.04.03-.07.08-.07.04 0 .07.03.07.07 0 .05-.03.08-.07.08-.05 0-.08-.03-.08-.08zm-3.87-.3c0-.04.03-.07.07-.07.05 0 .08.03.08.07 0 .05-.03.08-.08.08-.04 0-.07-.03-.07-.08zm.3-.6c0-.04.03-.07.07-.07.05 0 .08.03.08.08 0 .04-.03.07-.08.07a.07.07 0 0 1-.07-.07zm20.11-.29c0-.04.03-.07.08-.07.04 0 .07.03.07.07 0 .04-.03.07-.07.07-.05 0-.08-.03-.08-.07zm-19.81-.15c0-.04.03-.07.07-.07.04 0 .07.03.07.07 0 .05-.03.08-.07.08-.04 0-.07-.03-.07-.08zm19.66-.15c0-.04.03-.07.08-.07.04 0 .07.03.07.07 0 .05-.03.08-.07.08-.05 0-.08-.03-.08-.08zm-.29-.37c0-.1.04-.15.1-.1.05.06.05.14 0 .2-.06.05-.1 0-.1-.1zm-.16-.37c0-.05.04-.08.08-.08.05 0 .08.03.08.08 0 .04-.03.07-.08.07a.07.07 0 0 1-.07-.07zm-18.62-.15c0-.05.03-.08.08-.08.04 0 .07.03.07.08 0 .04-.03.07-.07.07-.05 0-.08-.03-.08-.07zm18.37-.18a.18.18 0 0 1 .21 0c.05.06 0 .1-.1.1s-.15-.04-.1-.1zm-18.22-.12c0-.04.03-.07.07-.07.05 0 .08.03.08.07 0 .05-.03.07-.08.07-.04 0-.07-.02-.07-.07zm.6-1.04c0-.05.03-.08.07-.08.05 0 .08.03.08.08 0 .04-.03.07-.08.07a.07.07 0 0 1-.07-.07zm.44-.75c0-.04.03-.07.08-.07.04 0 .07.03.07.07 0 .05-.03.08-.07.08-.05 0-.08-.03-.08-.08zm.15-.3c0-.04.03-.07.08-.07.04 0 .07.03.07.07 0 .05-.03.08-.07.08-.05 0-.08-.03-.08-.08zm.45-.74c0-.05.03-.08.07-.08.05 0 .08.03.08.08 0 .04-.03.07-.08.07a.07.07 0 0 1-.07-.07zm14.6-.59c0-.05.03-.08.08-.08.04 0 .07.03.07.07 0 .05-.03.08-.07.08-.05 0-.08-.03-.08-.08zm-14.15-.16c0-.04.03-.07.07-.07.05 0 .08.03.08.07 0 .05-.03.08-.08.08-.04 0-.07-.03-.07-.08zm9.61-.22c.04-.07.12-.15.16-.15.03 0 .06.08.06.15 0 .09-.07.15-.16.15-.08 0-.1-.06-.06-.15zm-9.46-.07c0-.05.03-.08.07-.08.04 0 .07.03.07.08 0 .04-.03.07-.07.07a.07.07 0 0 1-.07-.07zm6.7 0c0-.05.03-.08.08-.08.04 0 .07.03.07.08 0 .04-.03.07-.07.07-.05 0-.08-.03-.08-.07zm6.86-.3c0-.05.02-.08.07-.08.04 0 .07.03.07.08 0 .04-.03.07-.07.07-.05 0-.07-.03-.07-.07zm-3.13-.37c.09-.17.19-.3.24-.3.02 0 0 .13-.1.3-.08.16-.19.3-.23.3-.03 0 0-.14.09-.3zm-9.99-.08c0-.04.03-.07.08-.07.04 0 .07.03.07.07 0 .05-.03.08-.07.08-.05 0-.08-.03-.08-.08zm8.42-.67c.05-.07.12-.15.17-.15.02 0 .05.08.05.15 0 .09-.07.15-.16.15-.07 0-.1-.06-.06-.15zm-7.97-.07c0-.05.03-.08.07-.08.05 0 .08.03.08.08 0 .04-.03.07-.08.07a.07.07 0 0 1-.07-.07zm11.92-.16c0-.04.03-.07.07-.07.05 0 .08.03.08.08 0 .04-.03.07-.08.07a.07.07 0 0 1-.07-.07zm-11.78-.14c0-.05.04-.08.08-.08.05 0 .08.03.08.08 0 .04-.03.07-.08.07a.07.07 0 0 1-.07-.07zm8.05-.16c0-.04.03-.07.08-.07.04 0 .07.03.07.08 0 .04-.03.07-.07.07-.05 0-.08-.03-.08-.07zm-7.59-.59c0-.04.03-.07.07-.07.04 0 .07.03.07.07 0 .05-.03.08-.07.08-.04 0-.07-.03-.07-.08zm10.72-.15c0-.04.03-.07.08-.07.04 0 .07.03.07.07 0 .05-.03.08-.07.08-.05 0-.08-.03-.08-.08zm-1.72-.68c.09-.33-1.08-.42-5.04-.43a38.4 38.4 0 0 1-3.06-.08c-.03-.04 2.03-.07 4.58-.07 4.2 0 5.14.07 4.66.36-.07.05-.18.02-.24-.06-.16-.27-.62-.17-.8.19-.09.18-.15.22-.1.09zm1.13-.36c0-.04-.03-.07-.08-.07a.07.07 0 0 0-.07.07c0 .05.03.08.07.08.05 0 .08-.03.08-.08zm-.89-1.49c0-.04.02-.07.07-.07.04 0 .07.03.07.07 0 .05-.03.08-.07.08-.05 0-.08-.03-.08-.08zm-7.46-.15c0-.04.03-.07.08-.07.04 0 .07.03.07.07 0 .05-.03.08-.07.08-.05 0-.08-.03-.08-.08zm2.88-.03a.18.18 0 0 1 .2 0c.05.06 0 .1-.1.1s-.14-.04-.1-.1zm.45 0a.18.18 0 0 1 .2 0c.05.06 0 .1-.1.1s-.15-.04-.1-.1zm1.37-.05c.58-.05.86-.1.64-.11-.24-.02-.42-.1-.42-.15 0-.21.66-.12.79.09.1.15.18.15.34.01.17-.13.26-.13.44.02.11.1.22.12.22.04 0-.09.16-.12.37-.07.21.03.33.12.28.2-.04.07-.89.11-1.89.1-1.62-.02-1.71-.03-.77-.12zm-4.7-.22c0-.04.03-.07.08-.07.04 0 .07.03.07.07 0 .05-.03.08-.07.08-.05 0-.08-.03-.08-.08zm7.01-.15c0-.04.03-.07.07-.07.05 0 .08.03.08.07 0 .05-.03.08-.08.08-.04 0-.07-.03-.07-.08zm-.15-.44c0-.05.03-.08.07-.08.05 0 .08.03.08.08 0 .04-.03.07-.08.07a.07.07 0 0 1-.07-.07zm-.5-.52c-.19-.32-.2-.47-.08-.54.12-.06.13-.04.07.06s-.03.18.05.18c.09 0 .16.09.16.2 0 .13.08.25.18.28.12.04.12.1.03.16-.09.04-.27-.1-.4-.34zm-5.72.04a.18.18 0 0 1 .21 0c.05.06 0 .1-.1.1s-.15-.04-.1-.1zm.41-.71c0-.05.03-.08.07-.08.05 0 .08.03.08.08 0 .04-.03.07-.08.07a.07.07 0 0 1-.07-.07zm4.84-.08c-.05-.07-.02-.15.06-.15.09 0 .16.08.16.15 0 .1-.03.15-.06.15-.04 0-.12-.06-.16-.15zm-4.69-.22c0-.05.03-.08.07-.08.05 0 .07.03.07.08 0 .04-.02.07-.07.07a.07.07 0 0 1-.07-.07zm4.54-.23c.05-.07.12-.14.16-.14.05 0 .03.07-.01.14-.05.1-.12.15-.16.15-.05 0-.03-.06.01-.15zm-.22-.29c0-.08.07-.15.16-.15.08 0 .1.07.06.15-.04.09-.12.15-.16.15-.03 0-.06-.06-.06-.15zm-3.88-.23c0-.04.03-.07.08-.07.04 0 .07.03.07.07 0 .05-.03.08-.07.08-.05 0-.08-.03-.08-.08zm.45-.75c0-.04.03-.07.07-.07.05 0 .08.03.08.08 0 .04-.03.07-.08.07a.07.07 0 0 1-.07-.07zm2.98-.14c0-.05.03-.08.07-.08.05 0 .08.03.08.08 0 .04-.03.07-.08.07a.07.07 0 0 1-.07-.07zm-2.68-.45c0-.04.03-.07.07-.07.05 0 .08.03.08.07 0 .05-.03.08-.08.08-.04 0-.07-.03-.07-.08zm2.23-.3c0-.04.03-.07.08-.07.04 0 .07.03.07.07 0 .05-.03.08-.07.08-.05 0-.08-.03-.08-.08zm-1.93-.15c0-.04.03-.07.07-.07.04 0 .07.03.07.07 0 .05-.03.08-.07.08-.04 0-.07-.03-.07-.08zm1.78-.14c0-.05.03-.08.08-.08.04 0 .07.03.07.08 0 .04-.03.07-.07.07-.05 0-.08-.03-.08-.07zm-.44-.75c0-.04.03-.07.07-.07.05 0 .08.03.08.07 0 .05-.03.08-.08.08-.04 0-.07-.03-.07-.08zm-.75-.15c0-.04.03-.07.08-.07.04 0 .07.03.07.07 0 .05-.03.08-.07.08-.05 0-.08-.03-.08-.08zm.23-.37c.04-.08.11-.15.16-.15.04 0 .03.07-.02.15-.04.09-.11.15-.16.15-.04 0-.03-.06.02-.15z" fill="#1DCD3E"/><path d="M54.74 53.6c.05-.07.12-.14.17-.14.04 0 .03.07-.02.15-.04.09-.12.15-.16.15-.05 0-.03-.06.01-.15zm.78-.58c.27-.25.55-.46.64-.46.09 0 .13-.06.09-.13-.05-.08.09-.18.31-.24.31-.07.36-.12.18-.24-.18-.1-.18-.13.02-.15h.34c.06.02.15-.1.2-.24a5.88 5.88 0 0 1 1.48-1.47c.17-.09.28-.22.27-.3 0-.2.3-.49.43-.4.06.03.1-.05.1-.16 0-.14.14-.24.3-.24.2 0 .27-.08.21-.23-.06-.15 0-.22.15-.22s.33-.2.4-.45c.1-.24.24-.44.33-.44.1-.02.32-.18.48-.4.71-.87 1.1-1.23 1.2-1.06.07.1.04.2-.05.23a.26.26 0 0 0-.18.24c0 .1-.2.48-.45.8a5.4 5.4 0 0 0-.45.72c0 .5-2.81 2.9-5.51 4.67-.85.56-.9.58-.5.17zm6.75-7.24c0-.04.03-.07.07-.07.05 0 .08.03.08.07 0 .05-.03.08-.08.08-.04 0-.07-.03-.07-.08z" fill="#5EDD86"/></svg>