<svg xmlns="http://www.w3.org/2000/svg" width="200" height="60" viewBox="0 0 200 60"><path fill="#005C15" d="M48.65 44.67q-8.31.04-16.62-.13c.02-.06 2.9-5.18 6.38-11.37l6.34-11.28h7.9l6.38 11.32a470 470 0 0 1 6.32 11.41c-.03.05-7.54.09-16.7.05"/><path fill="#0AA02C" d="M158.2 44.96q-1.45-.2-2.84-.6l-.92-.27.06-.46c.04-.26.13-1.06.2-1.77.1-.72.16-1.33.19-1.34.02-.03.52.12 1.09.36 3.97 1.57 7.64.7 7.94-1.92a4 4 0 0 0-.5-2.28c-.37-.55-1.72-1.4-3.29-2.1-3.57-1.54-4.91-2.66-5.57-4.57-.22-.64-.25-1.02-.22-2.28.04-1.43.07-1.54.51-2.47q1.24-2.55 4.54-3.46c1.58-.43 4.73-.26 6.7.35l.16.04q.3.07.43.2c.17.17.12.53 0 1.6l-.05.48c-.14 1.15-.2 1.33-.37 1.25-2.37-1.01-4.94-1.17-6.48-.4-1.02.55-1.4 1.17-1.4 2.3 0 1.56.72 2.24 3.97 3.7 3.75 1.65 5.2 3.16 5.57 5.78.52 3.54-1.59 6.59-5.25 7.63-.66.18-3.7.35-4.48.23m-35.31-.17c-3.45-.46-6.15-1.9-7.86-4.2a14 14 0 0 1-1.89-4 19 19 0 0 1-.15-5.66c.34-1.9 1.15-3.66 2.36-5.13a11 11 0 0 1 4.54-3.25c1.83-.68 2.84-.83 5.36-.75 1.75.05 2.45.12 3.24.35a6 6 0 0 1 1.15.4c.1.11-.1 3.46-.23 3.59-.03.02-.4-.1-.84-.3a9 9 0 0 0-4.2-.67 7.1 7.1 0 0 0-6.92 4.92 11.6 11.6 0 0 0-.25 5.18 7.8 7.8 0 0 0 3.16 4.86c2.05 1.35 5.4 1.64 8.3.69q.48-.2 1-.27c.03.02.09.83.13 1.8l.08 1.77-.68.2c-1.6.46-4.6.69-6.3.46m-51.18-3.6v3.46h15.62v-3.38l-5.67-.03-5.64-.03 1.21-1.67c.67-.91 3.16-4.47 5.52-7.92l4.32-6.25v-3.48h-15.1v3.51l5.32.03 5.33.04-.77 1.04a518 518 0 0 0-7.46 10.72zm17.9 3.37c0-.06 2.02-5.17 4.48-11.34l4.48-11.26 2.07-.04a11 11 0 0 1 2.18.08c.05.05 2.13 5.1 4.61 11.2l2.61 6.42v.01l1.99 4.87c.05.11-.43.15-2.13.15h-2.21l-1.07-2.73-1.06-2.73-4.87.03-4.9.03-1.03 2.67-1.04 2.67-2.06.03c-1.12.02-2.05 0-2.05-.06m13.74-11.38q-1.34-3.45-2.44-6.98l-.22-.83-.6 1.74c-.3.96-1.17 3.36-1.9 5.35l-1.31 3.6h7.54zm30.28-11.28v22.75h3.94V33.7l.98 1.29c1.24 1.64 1.76 2.27 5.2 6.32l2.88 3.34h5.45l-.38-.41-4.87-5.44-5.03-5.6-.58-.61 4.86-5.18a241 241 0 0 1 5.04-5.3l.03-.1c0-.06-1.07-.12-2.5-.12h-2.52l-2.36 2.71c-1.29 1.48-3.22 3.7-4.27 4.94l-1.93 2.23V21.9z"/><path fill="#0FA622" d="M32.03 44.54c.02-.06 2.9-5.17 6.38-11.37l6.34-11.28h7.9l1.33 2.38 2.07 3.66c2.62 4.64 9.23 16.42 9.28 16.55.05.14-3.15.18-16.65.18q-8.32.05-16.65-.12m5.13-.12q.64 0 1.26-.2.06-.1-.15-.29-.26-.2-.05-.16c.1.01.33-.06.49-.14.26-.16.29-.15.23.03q-.07.23.05.13c.08-.03.11-.24.09-.45q-.05-.37.12-.44c.15-.06.16-.11.03-.26-.11-.15-.08-.17.28-.13q.4.04.26-.05c-.16-.09-.15-.18.02-.5q.17-.32.2-.2.02.15.14.16c.08 0 .12-.1.08-.2q-.07-.17.04-.26.1-.06.14.09.01.14.1-.09a.7.7 0 0 0-.02-.49q-.11-.21.05-.2c.07.03.18-.11.25-.3.05-.21.04-.37-.02-.37q-.1-.02-.05-.2.09-.16.19-.11.11.04.12-.14.01-.2.13-.13.11.04.13-.13c0-.18-.09-.16-.54.1a340 340 0 0 1-6.53 3.78q-.97.52-1.9 1.13c-.08.14 3.06.14 4.86.02m10.08-.26c.58-.4 1.02-.96 3.19-4.13q3-4.44 5.52-9.22l.55-1.16a.5.5 0 0 0 0-.43c-.09-.19-.14-.15-.32.22l-.46.88c-.14.23-.2.5-.17.57q.08.12-.04.06c-.08-.05-.38.34-.68.85a90 90 0 0 1-3.66 5.3c-1.38 1.93-5.72 7.16-5.92 7.16-.14 0 .03-.22 1.09-1.43.62-.71 1.23-1.45 1.36-1.66.12-.2.41-.56.67-.82q.33-.36.64-.75c.1-.14.47-.59.82-1 .67-.8 1.2-1.55.63-.9-1.16 1.3-1.45 1.65-2.21 2.46-.44.5-1.53 1.66-2.39 2.57l-1.58 1.66.48.04c1.45.14 1.9.1 2.47-.27zm9.98-.21c.3-.32.54-.68.54-.79 0-.08.1-.26.23-.34q.3-.29.02.08-.26.34.03.09c.11-.1.19-.25.15-.33-.03-.09.17-.5.45-.92.27-.43.46-.84.44-.89q-.08-.08-.26.12-.19.26-.15.04.03-.17-.17-.18-.23 0-.24-.1t-.13-.11q-.1.02-.06.13.06.13-.05.13c-.09 0-.1.09-.06.17q.12.2-.08 0c-.21-.2-.43-.22-.3-.02q.08.13-.17.06a.8.8 0 0 0-.56.08 1 1 0 0 1-.4.13 2 2 0 0 0-.62.31c-.3.2-.7.35-.91.36q-.4.02-.83.47c-.24.24-.45.44-.48.4a6 6 0 0 0-1.5 1.13 1 1 0 0 1-.58.3c-.9.07 1 .21 2.94.24l2.23.03zm7.9.48c0-.05-.32-.64-.71-1.3l-.72-1.22-.38.45q-.36.47-.58.38-.2-.06-.12.02c.09.13-.37.72-.55.72s-.72.63-.64.76c.04.08.34.16.65.19 1.07.09 3.05.09 3.05 0m-22.59-.1q0-.07-.06-.07l-.05.02-.01.05q0 .06.06.07.06 0 .06-.07m.22-.22q-.07-.15-.08.08t.07.17c.03-.04.05-.17 0-.26m18.53.2q-.1-.06-.25-.01-.14.08.08.09.23-.01.17-.07m.67-1.02q0-.07-.07-.07-.05 0-.06.07 0 .05.06.06.07 0 .07-.06m-10.62-1.64a97 97 0 0 0 8.81-5.94c.03 0-.29-.63-.68-1.36-1.4-2.53-2.6-4.5-2.42-3.98.04.13 0 .4-.08.64-.1.31-.19.39-.4.33q-.38-.12-.04.11c.23.18.22.18-.03.26-.15.04-.26.18-.26.3s-.06.31-.14.42q-.17.26-.07-.03.08-.23-.13-.15-.35.14.02.44c.1.09.19.23.17.3q0 .16-.06 0-.05-.13-.38.17c-.24.26-.27.37-.17.57.08.17.08.24-.07.3q-.17.07-.1-.12t-.14-.1-.14.3q.05.24-.12.32-.21.08-.13-.09.04-.12-.13.13l-.52.65c-.25.3-.27.37-.12.47.17.09.29.48.15.48-.03 0-.17.03-.3.08-.21.08-.21.08.02-.1q.23-.2.1-.28c-.07-.05-.22.05-.33.23-.27.42-.26.5.03.42.22-.05.23-.03.1.18q-.14.23-.18.11-.06-.1-.26-.12-.28 0-.02.12.2.15.02.14-.14.02-.08.15.09.13-.03.07c-.08-.05-.24.04-.37.2q-.21.24-.08.17.14-.06.16.06t.16.05.05.03c-.06.06-.17.13-.23.13l-.18.03c-.05 0-.02.1.07.21.13.16.13.24 0 .4-.08.1-.1.26-.05.33q.08.15-.05.07c-.08-.05-.3 0-.47.13-.25.17-.3.24-.18.38q.15.2.01.19c-.07 0-.1.12-.08.26q.05.28-.2.26c-.2 0-.24.06-.2.34.06.25.01.3-.11.26q-.16-.05-.16.07c.02.09-.05.18-.12.19-.09.01-.2.02-.24.04q-.06.02.08.22c.15.18.13.19-.08.15-.17-.02-.24.04-.24.27 0 .32-.52.71-.75.58q-.1-.07-.03.06c.13.23.11.23 1.4-.5m-.88.04q-.06-.05-.23.09c-.1.13-.1.14.09.07.12-.05.18-.13.14-.16m5.02-.09q0-.06-.07-.07-.03 0-.04.02l-.02.04q0 .07.06.07t.07-.07zm2.4-.91q0-.07-.06-.07t-.06.07q0 .05.06.06.07 0 .07-.06m1.4 0q0-.07-.06-.07t-.06.07q0 .05.06.06.07 0 .07-.06m-18.14-.13q0-.06-.07-.07l-.04.02-.02.05q0 .05.06.06.07 0 .07-.06m17.47-.16q-.08-.05-.08.09t.08.1a.2.2 0 0 0 0-.18zm-17.34-.1q0-.06-.07-.07-.03 0-.04.02l-.02.04q0 .07.06.07.07 0 .07-.07m.06-.46q.06-.11.01-.13-.07.02-.14.13-.06.13-.01.13.06 0 .14-.13m10.4-.13q.06-.11.02-.13-.07.02-.15.13-.06.13 0 .13.07 0 .13-.13m-9.83-.85-.02-.04-.04-.02q-.07 0-.07.06 0 .07.07.07.05 0 .06-.07m10.73-.54c-.09-.09-.33.09-.33.25q.01.11.19-.03c.12-.09.17-.2.14-.22m-.11-.26a.2.2 0 0 0-.17 0q-.06.08.08.09t.09-.1m-16.2-.5q0-.05-.07-.06l-.04.02-.02.04q0 .07.06.07t.07-.07m1.9-.52q0-.03-.02-.05l-.04-.01q-.06 0-.07.07 0 .05.07.06.05 0 .06-.06zm-1.53-.12q0-.07-.06-.07t-.06.07q0 .05.06.06t.06-.06m.13-.27-.02-.04-.04-.02q-.06 0-.07.06 0 .06.07.06.06 0 .06-.06m.3-.34c.04-.2.03-.23-.12-.1-.08.09-.14.2-.1.26.1.18.14.15.21-.16m19.63-5.25q0-.06-.07-.06-.03 0-.04.02l-.02.04q0 .07.06.07.07 0 .07-.07m-4.52-6.46q-.03-.09.1-.1.1-.01.05-.14-.05-.11.08-.13c.17 0 .49-.31.6-.58q.09-.11.18-.09c.05.01 0-.16-.1-.38l-.2-.39-.5 1.02a22 22 0 0 1-.77 1.46c-.27.44-.27.44.15-.06.24-.29.42-.56.4-.6"/><path fill="#1DCD3E" d="M32 44.54c0-.08.05-.18.13-.21q.1-.05.05.12c-.09.22-.18.26-.18.09m4.67-.02 4.5-.06.26-.34c.15-.2.38-.47.5-.64.14-.16.3-.45.37-.66.06-.21.17-.38.26-.38q.1 0 .03-.13c-.03-.06.07-.27.23-.44.17-.17.28-.4.27-.52q-.01-.2.08-.13c.07.03.22-.02.32-.13q.2-.2.02-.25-.16-.05.09-.3.35-.38.06 0c-.16.23-.16.23.1.09.15-.11.26-.24.22-.3s-.02-.2.05-.3c.1-.19.14-.19.34.03.22.22.23.23.01.28-.13.02-.19.13-.15.22q.05.16-.07.21c-.09.03-.15.18-.17.32 0 .14-.17.53-.34.87-.36.64-.37.72-.08.45.96-.9.79-.66-.36.51a10 10 0 0 0-1.35 1.53c.05.03 1.27.07 2.72.07h2.62l.32-.39c.17-.2.38-.39.45-.39q.13-.01.14-.14.02-.1.13-.05.13.04.13-.07t.12-.06.13-.03c0-.07.16-.18.36-.26s.43-.22.53-.29c.2-.14 3.06-1.81 3.53-2.08.57-.3.24-.02-.5.44a10 10 0 0 0-1.64 1.27 8 8 0 0 0-.7.58c-.13.13-.55.48-.91.79-.64.5-.67.56-.39.62.17.03 3.94.05 8.37.03 4.46-.02 8.1 0 8.1.07 0 .05-7.46.08-16.59.06-9.12 0-14.57-.06-12.11-.1m6.2-2.56q-.08-.05-.08.09t.08.09a.2.2 0 0 0 0-.18m.3-.1-.02-.05-.05-.02q-.06 0-.06.07 0 .05.06.06t.06-.06m1.13-1.7-.01-.04-.04-.02q-.07 0-.06.06 0 .07.06.07t.05-.07"/><path fill="#1DCD3E" d="M41.14 44.2q0-.06.06-.07.06 0 .06.06 0 .07-.06.07t-.06-.07m23.99 0q0-.06.05-.07.06 0 .06.06 0 .07-.06.07t-.06-.07m-.4-.66q0-.05.07-.06.06 0 .06.07 0 .05-.06.06-.07 0-.07-.06zm-32.1-.12q0-.07.07-.07.05 0 .06.07 0 .05-.06.06t-.06-.06m31.98-.14q0-.06.06-.06t.06.07q0 .05-.06.06t-.06-.06zm-31.72-.39q0-.05.06-.06t.06.06-.06.07-.06-.07m31.47 0q0-.05.06-.06t.07.06-.07.07q-.06 0-.06-.07m-22.34-.13q0-.05.07-.06.05 0 .06.06 0 .07-.06.07-.07 0-.07-.07m22.21-.13q0-.05.06-.06t.07.06-.07.07q-.05 0-.06-.07m-31.09-.13q0-.05.07-.06.05 0 .06.06 0 .07-.06.07t-.07-.07m30.96-.12q0-.06.06-.07.07 0 .07.07 0 .05-.07.06h-.02l-.03-.04zm-30.83-.13q0-.07.06-.07t.07.07q0 .05-.07.06-.03 0-.04-.02zm30.58-.26q0-.07.07-.07.05 0 .06.07 0 .05-.06.06-.07 0-.07-.06m-.13-.27q0-.05.07-.06.05 0 .06.06 0 .07-.06.07t-.07-.07m-30.07-.13q0-.05.06-.06t.07.06-.07.07q-.05 0-.06-.07m.13-.26q0-.05.06-.06t.07.06-.07.07q-.05 0-.06-.07m.25-.38q0-.07.06-.07t.06.07q0 .05-.06.06t-.06-.06m29.19-.13q0-.07.06-.07t.06.07q0 .05-.06.06-.03 0-.04-.02zm-29.07-.13q0-.07.07-.07.06 0 .06.07 0 .05-.06.06-.07 0-.07-.06m11-.16c-.02-.05.1-.24.24-.4.38-.35.4-.26.07.17-.13.2-.26.28-.3.23m-5.91-.37q0-.05.06-.06t.06.06-.06.07-.07-.07m23.59 0q0-.05.06-.06.07 0 .07.06 0 .07-.07.07-.05 0-.06-.07m-28.3-.13q0-.05.07-.06.06 0 .07.06 0 .07-.07.07-.06 0-.06-.07m5.21-.16q.67-.44 1.14-1.09c0-.1.44-.66.99-1.23.08-.1.13-.25.08-.32q-.08-.15.05-.07.16.08.28-.24.11-.3.25-.27.11.05.13-.05c0-.26.04-.34.24-.5q.41-.32.4.05-.01.16-.14.11-.1-.04-.12.13 0 .21.17.12.1-.05-.2.27c-.2.19-.35.45-.35.57q-.01.24-.2.33-.15.07-.16.18c.04.2-.18.55-.3.47-.06-.04-.16.04-.19.18s-.33.4-.65.6l-1.16.67q-.51.27-.26.1m22.9.1q.07-.12.14-.13.05.01-.01.13-.07.13-.14.13-.05 0 .02-.13m-27.97-.2q0-.06.05-.06.07 0 .07.07 0 .05-.06.06-.03 0-.05-.02zm9.83-.06c.03-.06.1-.13.14-.13q.04.02.05.13-.01.13-.14.13-.1 0-.05-.13m1.33-.2c0-.1.08-.2.2-.2.17 0 .5-.58.46-.8q0-.1.14-.1c.08 0 .28-.21.44-.46.16-.24.23-.45.17-.45q-.11.02-.18.18c-.02.06-.1.1-.15.06-.05-.06.11-.23.37-.4.25-.17.46-.37.46-.45q.01-.15.12-.17c.06 0 .12-.07.09-.15q0-.15.11-.18c.18 0 .56-.4.56-.58q0-.13.13-.06c.06.03.2-.1.31-.32.23-.43.26-.71.07-.6-.08.05-.1.15-.07.2q.08.13-.03.13c-.23 0-.27-.17-.08-.35.1-.11.14-.25.1-.33q-.07-.12.03-.08c.06.05.2 0 .3-.13q.26-.25-.06-.11c-.17.06-.08-.05.17-.3.24-.2.48-.4.53-.4q.1-.01.17-.17c.03-.08-.81.42-1.87 1.16a85 85 0 0 1-4.9 3.16q-.38.22.1-.17c.21-.2.41-.44.41-.54q.01-.16.11-.18c.07 0 .17-.12.2-.26q.1-.24.21-.18t.1-.05V36q.5-.86 1.3-1.41c.15-.06.23-.18.18-.27q-.01-.07.02-.15a.2.2 0 0 1 .11-.1c.1-.03.17-.15.17-.24 0-.24.77-1.05.79-.83q0 .1.13-.13.14-.28.26-.3.09-.02.1-.2c0-.1.05-.2.13-.2.06 0 .41-.28.76-.65.36-.35.71-.64.77-.64q.1-.02.11-.2c0-.1.07-.2.14-.2q.1 0 .06-.13-.08-.1.13-.03.23.07.15-.05c-.05-.1.07-.3.29-.48.2-.17.38-.39.38-.45 0-.08.14-.17.31-.2.18-.06.32-.18.32-.28s.05-.2.11-.2.32-.2.57-.45c.27-.25.54-.41.61-.38q.13.07.06-.05c-.06-.09.12-.29.46-.49.65-.42 1.53-1.45 1.44-1.7q-.05-.16.05-.18c.08 0 .12.1.12.2 0 .12.09.23.18.27.1.04.22.21.26.39.05.17.13.31.21.31q.13.02.07.1c-.04.08.03.24.17.38.13.16.2.32.17.35q-.06.08.06.09c.08 0 .17.17.22.38q.08.38.23.32c.24-.12-.68.72-1.55 1.44-.43.36-1.17 1.16-1.63 1.77q-1.5 1.98-3.09 3.88l-1.08 1.24a60 60 0 0 1-1.46 1.7c-.28.28-.5.55-.5.6 0 .07-.1.11-.2.11q-.17.02-.18.18c0 .1-.15.28-.32.39-.28.18-.32.2-.32.02m4.06-5.59-.02-.04-.04-.02q-.07 0-.07.06 0 .07.07.07.06 0 .06-.07m2.98-6.3q.06-.12.02-.14-.07.02-.15.13-.06.13 0 .13.07 0 .13-.13m9.52 11.96c-.04-.06-.02-.13.05-.13q.13.02.14.13-.01.13-.05.13-.07 0-.14-.13m-27.3-.35c0-.09.05-.18.12-.18q.12 0 .05-.07c-.04-.04.04-.2.17-.34.14-.15.21-.32.17-.39q-.04-.09.08-.1c.08 0 .1-.06.08-.1q-.05-.11.08-.12c.28 0 2.56-1.38 2.95-1.8q1.2-1.31 2.32-2.71c.15-.21.28-.33.28-.27q.02.04.3-.27c.15-.2.38-.45.49-.58s.17-.28.13-.3q-.01-.06.2-.16c.16-.04.27-.17.27-.26 0-.1.12-.24.26-.32a.6.6 0 0 0 .25-.44q-.01-.32.13-.08t.13-.1c0-.17.06-.3.12-.3q.13-.01.13-.2.02-.2.17-.15.18.08.28-.15c.03-.13.23-.38.41-.56q1.05-.98 1.04-1.4c0-.07.12-.14.25-.14s.29-.11.32-.27q.09-.25.27-.19.16.07.12-.05c-.05-.07.05-.19.2-.28.18-.09.43-.3.6-.46s.41-.31.55-.31q.23-.01.17-.11c-.04-.06.05-.16.17-.21a.5.5 0 0 0 .34-.32q.06-.22.35-.21c.15 0 .26-.06.25-.14-.02-.1.08-.2.22-.24.14-.05.25-.13.25-.2 0-.04.17-.17.4-.25.22-.07.42-.26.45-.4q.08-.22.2-.17.13.08.07-.2-.08-.28.17-.34c.12-.05.24-.14.24-.22q-.02-.1-.2-.05-.17.05-.12-.06c.04-.08.16-.13.26-.13q.16 0 .1-.19c-.08-.2.14-.28.26-.09.08.13-.22.95-.8 2.28q-.24.46-.33.96.06.06.06-.08.02-.16.2-.1c.1.04.33-.08.5-.28l.35-.35-.36.59c-1.9 3.18-5.39 6.38-10.3 9.44-1.02.64-2.1 1.35-2.43 1.57-.31.24-.94.69-1.4 1-.46.3-1.1.83-1.41 1.14-.32.33-.59.51-.59.4m10.87-11.16q0-.07-.06-.07-.07 0-.07.07 0 .06.07.07.05 0 .06-.07m1.14-.91-.02-.05-.04-.01q-.06 0-.07.06 0 .06.07.07.05 0 .06-.07m3.17-1.04q0-.06-.06-.06-.03 0-.05.02l-.01.04q0 .05.06.06t.06-.06m.89-2.6q0-.06-.07-.06l-.04.02-.02.04q0 .05.06.06.07 0 .07-.06m-6.56 15.7a.2.2 0 0 1 .17 0q.06.1-.08.1t-.09-.1"/><path fill="#1DCD3E" d="M46 39.1a.2.2 0 0 1 .17 0q.05.08-.09.09-.13 0-.08-.1m16.11-.13a.2.2 0 0 1 .17 0q.05.08-.08.08t-.09-.08m-16.03-.1q0-.06.06-.07.07 0 .07.06 0 .07-.07.07-.05 0-.06-.07m-1.14-.13q0-.06.06-.07.07 0 .07.06 0 .07-.07.07-.05 0-.06-.07zm17-.07q0-.14.1-.09.05.08 0 .18-.1.05-.1-.09m-12.56-.07q0-.05.07-.06.05 0 .06.06 0 .07-.06.07t-.07-.07m12.22-.54a.2.2 0 0 1 .18 0q.05.08-.09.09-.13 0-.08-.1zm-18.81-.1q0-.06.06-.07.05 0 .06.06t-.06.07h-.05zm7.43-.35c.13-.19.27-.32.3-.3.04.04-.08.2-.24.36l-.3.28zm-14.29-.05q0-.05.06-.06.07 0 .07.06 0 .07-.07.07-.05 0-.06-.07m25.38-.13q0-.05.06-.06.07 0 .07.06 0 .07-.07.07-.05 0-.06-.07m-25.25-.13q0-.06.06-.06.07 0 .07.06t-.07.07q-.05 0-.06-.07m24.87-.52q0-.06.07-.06.05 0 .05.06t-.05.07-.07-.07m-10.28-.13q0-.06.07-.06.05 0 .06.06t-.06.07-.07-.07m1.02-.77q0-.07.06-.07t.06.07q0 .05-.06.06-.03 0-.04-.02zm8.75 0q0-.07.06-.07.07 0 .07.07 0 .05-.07.06l-.04-.02zm-17.2-.23q-.09-.13.05-.05c.15.09.2.2.1.2q-.07 0-.16-.15m17.08-.03q0-.07.06-.07t.06.07q0 .05-.06.06l-.05-.02zm-23.22-.14q0-.06.05-.07.07 0 .07.07 0 .06-.07.07l-.04-.02zm22.83-.52q0-.05.07-.06.06 0 .06.06 0 .07-.06.07t-.07-.07m-22.46-.13q0-.06.07-.06t.07.06-.07.07-.06-.07zm8.12-.38q0-.07.07-.07.06 0 .06.07 0 .05-.06.06t-.07-.06m13.96-.14q0-.06.07-.07.05 0 .06.07 0 .06-.06.07-.07 0-.07-.07m-.12-.26q0-.06.06-.06t.06.06-.06.06l-.04-.01zm-21.45-.13q0-.05.07-.06.05 0 .06.06 0 .07-.06.07t-.07-.07m.13-.26q0-.05.07-.06.05 0 .06.06 0 .07-.06.07-.07 0-.07-.07m20.94-.26q0-.06.06-.06t.07.06-.07.07q-.06 0-.06-.07m-20.69-.12q0-.07.06-.07.07 0 .07.07 0 .05-.07.06l-.04-.02zm20.56-.13q0-.07.06-.07t.07.07q0 .05-.07.06l-.04-.02zM38.47 33q0-.06.06-.07.06 0 .07.07 0 .06-.07.07l-.04-.02zm8.13 0q0-.06.06-.07.05 0 .05.07 0 .06-.05.07l-.05-.02zm12.05-.26q0-.07.06-.07t.06.07-.06.06-.07-.06zm-19.8-.38q0-.07.06-.07.07 0 .07.06t-.07.07q-.05 0-.05-.07m.13-.26q0-.07.06-.07t.06.06-.06.07-.06-.07m.38-.66q0-.07.07-.07.05 0 .06.07 0 .06-.06.06-.07 0-.07-.06m.13-.26q0-.05.06-.06t.06.06-.06.07-.06-.07m3.55-.13q0-.06.06-.06t.06.06-.06.07-.06-.07m-3.3-.26q0-.06.06-.06t.07.06-.07.07q-.05 0-.06-.07m.26-.53q0-.05.06-.06t.06.07q0 .06-.06.06l-.05-.01-.01-.05m.25-.38q0-.06.06-.06t.06.06-.06.07-.06-.07M57 29.76q0-.06.07-.06.06 0 .06.06t-.06.07q-.07 0-.07-.07m-.24-.32q0-.16.08-.1.06.1 0 .18-.08.06-.08-.08m-.14-.33q0-.07.07-.07t.07.07-.07.06l-.04-.01zm-15.86-.13q0-.06.07-.07.06 0 .06.07 0 .06-.06.06-.07 0-.07-.06m15.65-.16a.2.2 0 0 1 .18 0q.05.1-.09.1t-.08-.1zm-15.52-.1q0-.05.06-.06t.07.06-.07.06q-.05 0-.06-.06m.51-.9q0-.08.06-.08t.07.07-.07.06l-.04-.01zm.38-.66q0-.06.07-.06.05 0 .05.06t-.05.07-.07-.07m.13-.26q0-.06.06-.06t.06.06-.06.07-.06-.07m.38-.65q0-.06.06-.07.06 0 .07.07 0 .06-.07.06-.03 0-.04-.02zm12.43-.51q0-.07.07-.07.05 0 .06.06 0 .07-.06.07t-.07-.07m-12.05-.14q0-.06.06-.07.06 0 .07.07 0 .06-.07.07-.05 0-.06-.07m8.18-.2q.07-.11.14-.13.05.02.05.13-.01.12-.13.13-.1 0-.06-.13m-8.05-.06q0-.07.06-.07t.06.07-.06.06l-.04-.01zm5.7 0q0-.07.07-.07.06 0 .06.07 0 .06-.06.06-.07 0-.07-.06m5.85-.26q0-.06.06-.07.05 0 .06.07 0 .06-.06.06-.07 0-.06-.06m-2.67-.32q.13-.24.2-.26.03.01-.08.26c-.07.14-.16.26-.2.26-.02 0 0-.12.08-.26m-8.5-.07q0-.06.06-.06t.06.06-.06.07-.07-.07m7.16-.59c.05-.06.1-.13.15-.13.02 0 .04.07.04.13q-.01.13-.14.13-.08 0-.05-.13m-6.78-.06q0-.06.06-.07.06 0 .06.07 0 .06-.06.06l-.05-.01zm10.15-.14q0-.05.06-.06t.07.07q0 .06-.07.06-.03 0-.05-.02l-.01-.04m-10.03-.12q0-.07.06-.07.07 0 .07.07 0 .06-.07.06l-.04-.02zm6.85-.14q0-.05.07-.06.05 0 .06.07 0 .05-.06.06-.07 0-.07-.06m-6.46-.51q0-.07.06-.07t.06.07-.06.07-.06-.07m9.13-.14q0-.05.06-.06t.06.06-.06.07-.06-.07m-1.47-.59c.08-.29-.92-.37-4.29-.37q-1.3 0-2.6-.07a52 52 0 0 1 3.9-.07c3.57 0 4.37.07 3.96.32q-.1.06-.2-.05c-.14-.24-.53-.15-.68.16q-.13.25-.09.08m.96-.31q0-.06-.06-.06l-.05.01-.01.05q0 .07.06.07t.06-.07m-.75-1.3q0-.06.06-.06t.06.06-.06.07q-.07 0-.07-.07m-6.36-.13q0-.07.07-.07.06 0 .06.07 0 .06-.06.07-.06 0-.07-.07m2.46-.03a.2.2 0 0 1 .17 0q.05.08-.09.09-.13 0-.08-.09m.38 0a.2.2 0 0 1 .17 0q.05.08-.09.09-.13 0-.08-.09m1.17-.04c.49-.05.73-.1.54-.1-.2-.02-.36-.09-.36-.13 0-.18.57-.1.68.08q.1.2.29 0c.14-.1.22-.1.37.02q.17.14.19.04.02-.12.31-.06t.24.17c-.03.06-.76.1-1.6.09-1.39-.02-1.46-.03-.66-.1zm-4-.2q0-.05.06-.06t.06.06-.06.07-.07-.07m5.96-.13q0-.05.06-.06.07 0 .07.06 0 .07-.07.07-.05 0-.06-.07m-.12-.38q0-.06.05-.07.07 0 .07.07 0 .05-.07.06l-.04-.02zm-.43-.45q-.23-.4-.07-.48.14-.07.06.06-.06.13.04.15.13.01.14.18c0 .11.07.22.15.24q.14.06.03.14c-.08.04-.23-.09-.34-.3zm-4.87.03a.2.2 0 0 1 .18 0q.05.08-.09.09t-.08-.09zm.35-.62q0-.06.06-.07.07 0 .07.07 0 .06-.07.06-.03 0-.04-.02zm4.12-.07q-.06-.11.05-.13.13.02.14.13-.01.13-.05.13-.07 0-.14-.13m-4-.2q0-.06.07-.06.05 0 .05.07 0 .05-.05.06-.03 0-.05-.02zm3.87-.2q.07-.1.14-.11.05.02-.01.12-.07.13-.14.13-.05 0 .01-.13m-.19-.25q.01-.12.14-.13.1.01.05.13-.07.13-.13.14-.05-.01-.06-.14m-3.3-.2q0-.05.07-.06.05 0 .06.06 0 .07-.06.07t-.07-.07m.38-.65q0-.06.06-.06.07 0 .07.07 0 .05-.07.06l-.04-.02zm2.54-.12q0-.07.06-.07t.07.07q0 .05-.07.06-.03 0-.04-.02zm-2.28-.4q0-.05.06-.06.07 0 .07.06 0 .07-.07.07-.06 0-.06-.07m1.9-.26q0-.05.07-.06.05 0 .06.06 0 .07-.06.07-.07 0-.07-.07m-1.65-.13q0-.05.06-.06t.06.06-.06.07-.06-.07m1.52-.12q0-.06.07-.07.05 0 .06.07 0 .05-.06.06t-.07-.06m-.37-.66q0-.05.05-.06.07 0 .07.06 0 .07-.07.07-.05 0-.05-.07m-.64-.13q0-.05.06-.06t.06.06-.06.07-.06-.07m.2-.32q.06-.12.13-.13.04.01-.02.13-.07.13-.13.13t.01-.13"/><path fill="#5EDD86" d="M48.81 33.85q.07-.1.14-.12.05.01-.01.13-.07.13-.14.13-.05 0 .01-.13m.66-.5c.23-.22.47-.4.55-.4q.12-.02.08-.12c-.05-.07.07-.16.26-.2.26-.07.3-.11.15-.22q-.23-.12.02-.13h.29c.05.02.13-.09.17-.2q.52-.75 1.26-1.3.23-.12.23-.25c0-.18.26-.43.37-.35q.08.01.08-.14c0-.12.12-.21.26-.21q.26 0 .18-.2-.07-.2.12-.2c.13 0 .28-.17.34-.39.09-.2.2-.38.28-.38a1 1 0 0 0 .41-.35q.9-1.14 1.03-.93.07.16-.05.2a.2.2 0 0 0-.1.09 2 2 0 0 1-.43.83q-.23.3-.39.62c0 .44-2.39 2.53-4.69 4.08-.72.49-.77.5-.42.15m5.75-6.32q0-.06.06-.06t.07.06-.07.07q-.05 0-.06-.07"/><path fill="#0FA622" d="M45.24 20.86c0-.04.75-1.42 1.68-3.05 1.36-2.4 1.71-2.93 1.85-2.79.09.1.76 1.25 1.5 2.55l1.63 2.88.3.5h-3.5a35 35 0 0 1-3.48-.08z"/></svg>