<svg width="200" height="80" viewBox="0 0 200 80" xmlns="http://www.w3.org/2000/svg"><path d="m36 36.89-.02.11v-.11a3.11 3.11 0 0 0-.76-1.57c-.39-.35-.88-.28-1.4-.32H16v-5h17.65A2.36 2.36 0 0 1 36 32a2.36 2.36 0 0 1 2.34-2H56v5H38.16c-.52.04-1.01-.03-1.4.32a3.14 3.14 0 0 0-.77 1.57Zm-.01 8-.01.1-.01-.1a2.4 2.4 0 0 0-.75-1.33 2.35 2.35 0 0 0-1.4-.56H23v-5h10.43l.22.01A2.36 2.36 0 0 1 35.99 40a2.36 2.36 0 0 1 2.35-2c.07 0 .14-.02.21-.01H49v5H38.16a2.34 2.34 0 0 0-2.17 1.9Zm.02 7.98-.03.13-.03-.13c-.1-.5-.33-1.17-.72-1.52-.39-.34-.88-.31-1.4-.35H16v-5h17.66A2.42 2.42 0 0 1 36 48.02 2.45 2.45 0 0 1 38.32 46H44v5h-5.83c-.52.04-1.01 0-1.4.35a2.9 2.9 0 0 0-.76 1.52Z" fill="#8511B7"/><path d="M183 36.66v-.11c-.2 0-.4-.02-.6-.05-.29-.05-.4-.32-.41-.6-.02-.17 0-.4 0-.7V31l-2.28.3v.11l.58.1c.13.03.25.1.34.21.1.15.16.31.17.48.04.3.06.61.05.91v2.75a4.27 4.27 0 0 1-1.72.33c-.2 0-.39-.03-.57-.09a.98.98 0 0 1-.44-.3 1.39 1.39 0 0 1-.27-.56 3.7 3.7 0 0 1-.09-.88v-1.5l.02-.67V31l-2.03.3v.11c.18.02.37.06.55.1.11.04.21.11.28.22a1 1 0 0 1 .1.43c.02.18.02.43.02.75v.8l-.01.62v.51c0 .28.03.55.09.81.18.83.97 1.38 1.78 1.35.7 0 1.39-.37 1.96-.75l.36-.24a10.13 10.13 0 0 1-.02.98l2.14-.33Zm-8.26-1.51c.22-.46.32-.96.3-1.47.02-.4-.06-.8-.2-1.19a2.42 2.42 0 0 0-1.4-1.37 2.76 2.76 0 0 0-.98-.18c-.2 0-.42.04-.62.1a3.69 3.69 0 0 0-1.08.54l-.42.3-.03-2.68.02-.82V27l-2.3.33v.1c.24.02.46.07.68.14.15.04.28.14.36.27.08.15.13.32.14.49.02.2.03.47.03.8l.02 4.9a70.05 70.05 0 0 1-.03 2.53c.12.07.25.12.38.16a6.42 6.42 0 0 0 1.89.28c.44 0 .87-.07 1.29-.2.42-.13.8-.34 1.14-.62.34-.28.62-.63.8-1.03Zm-.9-1.04c0 .32-.03.63-.1.93-.07.3-.19.6-.36.85a1.9 1.9 0 0 1-.63.62c-.3.16-.63.25-.97.24-.2 0-.38-.02-.57-.06a1.77 1.77 0 0 1-.4-.15 1.15 1.15 0 0 1-.46-.4l-.01-4.12a4.73 4.73 0 0 1 1.6-.26 1.64 1.64 0 0 1 1.47.72c.15.22.26.48.33.75.07.29.1.59.1.88Zm-10.16-.38h4.17v-.18c0-.29-.03-.57-.1-.85-.06-.3-.19-.6-.36-.85a2.13 2.13 0 0 0-1.88-.85c-1.23 0-2.32.71-2.78 1.84a3.7 3.7 0 0 0-.25 1.43c-.01.4.07.81.23 1.18.15.33.37.63.64.86.27.23.58.4.91.52a3.16 3.16 0 0 0 2.03.03 4.62 4.62 0 0 0 1.51-.8l-.04-.09a5.29 5.29 0 0 1-1.61.35c-.37.01-.74-.06-1.08-.2a2.22 2.22 0 0 1-1.23-1.4c-.1-.32-.16-.65-.16-1Zm0-.24c.02-.6.2-1.2.53-1.71a1.2 1.2 0 0 1 1.07-.54c.5-.03.94.24 1.13.7.1.24.17.49.2.74l.05.81h-2.98Zm-1.64-1.3a.9.9 0 0 0 .1-.42.62.62 0 0 0-.17-.45.78.78 0 0 0-.59-.19 1 1 0 0 0-.47.13c-.17.1-.32.2-.46.34a4.1 4.1 0 0 0-.8 1.01c0-.37.03-.92.04-1.29l.02-.32-2.28.34v.12c.23.02.46.06.67.13.15.05.28.14.36.27.09.15.12.5.13.68.02.2.03.47.03.8v2.44l-.03.46a.67.67 0 0 1-.13.33c-.09.1-.2.18-.34.22-.21.06-.43.1-.65.1V37h3.72v-.11a8.7 8.7 0 0 1-.75-.07 1.1 1.1 0 0 1-.46-.15.55.55 0 0 1-.23-.32 2.14 2.14 0 0 1-.06-.57v-3.05a1.56 1.56 0 0 1 1.22-.6 1.09 1.09 0 0 1 .84.39c.13-.09.22-.2.29-.34Zm-6.85-.97 1.69.27v-.63l-1.74.29a2.87 2.87 0 0 0-1.62-.48c-.33 0-.66.04-.97.14a2.15 2.15 0 0 0-1.33 1.2 2.62 2.62 0 0 0-.1 1.79 1.92 1.92 0 0 0 .73.95c.15.1.32.18.5.22-.26.17-.5.36-.73.57a.84.84 0 0 0-.1 1.18c.16.17.37.28.6.32l-.58.32c-.17.1-.34.23-.5.36-.14.12-.25.26-.35.42a.93.93 0 0 0-.13.48c0 .2.05.39.14.56.43.77 1.54.83 2.33.82 1.2 0 2.6-.26 3.26-1.34a2 2 0 0 0 .28-1.07 1.09 1.09 0 0 0-.41-.91c-.36-.25-.8-.38-1.23-.39l-1.71-.12c-.28 0-.55-.06-.79-.19a.43.43 0 0 1-.21-.32c0-.09.01-.17.04-.25.05-.15.12-.28.2-.41l.16.02.62.05c.67.04 1.32-.16 1.86-.56a2.45 2.45 0 0 0 .52-2.62 3.41 3.41 0 0 0-.43-.67Zm-2.95 5.85.36.02 1.49.1.57.06c.18.02.34.05.5.11.15.05.27.14.37.25.1.13.14.29.13.45 0 .25-.06.5-.19.71-.45.77-1.37 1.03-2.23 1.02-.91.06-1.78-.5-1.7-1.46 0-.25.06-.5.2-.72.13-.2.3-.4.5-.54Zm2.5-4.13c.03.5-.07 1-.3 1.44a1.08 1.08 0 0 1-1 .46 1.17 1.17 0 0 1-.97-.46 1.95 1.95 0 0 1-.3-.6 4 4 0 0 1-.02-1.8c.04-.23.13-.44.26-.63.1-.15.25-.26.41-.34.17-.07.35-.1.53-.1.18 0 .37.03.53.1.18.08.33.2.45.34.14.19.24.4.3.63.07.31.1.63.1.95Zm-4.38 3.67v-.07c-.24 0-.47 0-.7-.03a.57.57 0 0 1-.38-.15.67.67 0 0 1-.14-.41 9.24 9.24 0 0 1-.02-.76l.01-.68.02-.53v-.53l.01-.69c.02-.23-.01-.47-.1-.69-.27-.74-1.06-1.13-1.83-1.07-.6 0-1.16.23-1.64.58-.23.15-.43.34-.6.54l.12.13a3.43 3.43 0 0 1 1.73-.54c.36-.02.73.13.96.4.15.25.2.65.2 1.02v.73l-1.01.1a4.4 4.4 0 0 0-1.1.26c-.33.12-.62.3-.86.55-.23.27-.35.6-.34.96a1.29 1.29 0 0 0 .41.9c.31.27.73.38 1.14.37a2.3 2.3 0 0 0 1.51-.53c.12-.1.16-.19.26-.3 0 .1.09.2.11.28.03.1.08.2.15.28.16.21.43.28.7.27.48-.01.97-.16 1.39-.39ZM148 34.03v2.05c-.17.11-.3.19-.51.22-.24.04-.47.06-.71.06a.91.91 0 0 1-.73-.4.89.89 0 0 1-.15-.5 1.1 1.1 0 0 1 .2-.7c.14-.18.32-.32.52-.42.23-.1.47-.18.71-.22a6 6 0 0 1 .67-.09Zm-4.08 1.86c.04-.37.08-.74.14-1.12h-.12a2.4 2.4 0 0 1-.3.89c-.17.27-.42.48-.72.6-.44.17-.9.29-1.37.33-.73.08-1.47.12-2.2.1h-1.08l5.44-8.38V28h-5.6l-.37-.02c-.12-.01-.24-.04-.34-.06.02.2.02.4.02.59v1.12c0 .2 0 .38-.02.57h.12c.03-.32.11-.63.24-.92.14-.26.35-.47.62-.6.37-.18.76-.3 1.17-.33.64-.08 1.28-.11 1.92-.1h.9L137 36.6v.4l5.42-.08h.3l.38.02.39.02.33.03.1-1.11ZM131.6 37l2.13-.33v-.12c-.2 0-.4-.01-.6-.05a.53.53 0 0 1-.31-.19.78.78 0 0 1-.14-.4 8.23 8.23 0 0 1-.02-.71v-2.04l.01-.82v-.71l.01-.63-2.24.3v.11l.58.1c.14.03.26.1.34.21.1.15.16.32.18.49.03.3.05.6.05.9v2.76a4.27 4.27 0 0 1-1.72.32c-.2 0-.4-.02-.58-.08a.98.98 0 0 1-.43-.3 1.4 1.4 0 0 1-.27-.57c-.07-.29-.1-.58-.1-.88v-1.49c.02-.23.02-.45.02-.68v-.62l.01-.57-2.04.3v.12c.19.02.37.05.55.1.12.03.22.11.28.21a1 1 0 0 1 .1.43c.02.19.03.44.03.76v.26a38.05 38.05 0 0 1-.02 1.16v.5c0 .28.03.55.1.81.18.83.96 1.38 1.78 1.35.69 0 1.38-.37 1.95-.75l.36-.24a10.12 10.12 0 0 1-.01 1Zm-11.87-3.29h4.18v-.17c0-.3-.04-.58-.1-.86-.07-.3-.2-.59-.37-.84a2.12 2.12 0 0 0-1.88-.84c-1.23 0-2.32.7-2.77 1.83a3.7 3.7 0 0 0-.26 1.42c0 .41.07.82.24 1.19.15.33.36.62.64.86a3.16 3.16 0 0 0 2.94.55c.27-.1.54-.2.8-.33.25-.13.49-.29.71-.47l-.05-.1a4.41 4.41 0 0 1-1.05.3 2.97 2.97 0 0 1-1.64-.15 2.21 2.21 0 0 1-1.22-1.39 3.4 3.4 0 0 1-.16-1Zm0-.23c.03-.6.2-1.2.53-1.72.23-.35.65-.52 1.08-.52.5-.02.93.23 1.13.69.1.23.16.48.19.74l.06.8h-2.99Zm-2 3.21c.2-.08.39-.19.57-.31l-.04-.12-.32.07-.34.05-.41.02c-.32.02-.64-.09-.89-.3a1.26 1.26 0 0 1-.28-.45c-.06-.17-.03-.35-.02-.53v-3.57h2.21v-.23h-2.2V29.8h-.17c-.05.24-.14.46-.27.66a2.2 2.2 0 0 1-1.03.81c-.22.09-.43.15-.66.2v.08h1.02l-.03 4.3c0 .19.04.37.12.54a.9.9 0 0 0 .31.36c.15.1.31.16.49.2a2.93 2.93 0 0 0 1.33-.05c.2-.05.4-.12.6-.2Zm-6.81-6.66 2.18-2-.08-.07-2.11 1.17-2.09-1.17-.08.08 2.18 2Zm-3.64 6.94c.2 0 .43.03.66.03v-.13a2.67 2.67 0 0 1-.63-.1.72.72 0 0 1-.35-.22.65.65 0 0 1-.14-.34 3.8 3.8 0 0 1-.02-.45l-.02-2.56v-1.54l.02-.66-2.3.33v.13c.23.02.45.06.67.13a.7.7 0 0 1 .36.27c.08.15.13.32.14.5.02.2.03.47.03.8l.03 2.6-.03.45a.68.68 0 0 1-.13.34c-.09.1-.2.18-.34.21-.21.06-.43.1-.65.1V37c.23 0 .45-.02.66-.03h.56l.46-.01h.46l.56.01Zm-.52-7.39a.79.79 0 0 0 0-1.08.84.84 0 0 0-1 0 .79.79 0 0 0 0 1.08.84.84 0 0 0 1 0ZM103.35 37l.67.01v-.12c-.22 0-.43-.04-.64-.1a.71.71 0 0 1-.35-.21.65.65 0 0 1-.13-.34 3.8 3.8 0 0 1-.03-.45V30.6l.01-.82v-.72c0-.26 0-.47.02-.65l-2.3.32v.13c.22.02.45.07.67.14a.7.7 0 0 1 .36.27c.08.15.13.32.14.5.02.2.03.47.03.8v5.21c0 .15 0 .3-.02.45a.68.68 0 0 1-.14.34.6.6 0 0 1-.34.21c-.2.06-.43.1-.65.1V37a17.73 17.73 0 0 0 1.22-.02h.92l.56.01Zm-3.91 0 .67.01v-.12c-.22 0-.44-.04-.64-.1a.72.72 0 0 1-.35-.21c-.16-.2-.1-.55-.1-.79V31l-2.3.34v.13c.23.02.45.06.67.13.15.05.28.14.36.27.08.15.13.32.14.5.02.2.03.47.03.8l-.03 2.6c0 .16-.01.31-.03.46a.68.68 0 0 1-.13.34c-.09.1-.2.18-.34.21-.21.06-.43.1-.65.1V37a17.74 17.74 0 0 0 1.22-.02h.92l.56.01Zm-.52-7.39a.79.79 0 0 0 0-1.08.84.84 0 0 0-1 0 .79.79 0 0 0 0 1.08.84.84 0 0 0 1 0Zm-3.34 2.57a.75.75 0 0 0 .27-.51c-.33-.58-1.32-.65-1.9-.66a3.4 3.4 0 0 0-2.22.7c-.33.29-.6.64-.78 1.03a3.49 3.49 0 0 0-.06 2.7 2.53 2.53 0 0 0 1.5 1.37 2.88 2.88 0 0 0 1.94.02 3.58 3.58 0 0 0 1.38-.85l-.06-.12a3.76 3.76 0 0 1-1.78.4c-.3 0-.59-.07-.85-.2a1.93 1.93 0 0 1-.63-.56c-.18-.24-.31-.5-.4-.79a4.2 4.2 0 0 1 .04-2.22c.2-.68.74-1.25 1.52-1.2.41.03.78.27 1.07.56a2.89 2.89 0 0 1 .43.54.8.8 0 0 0 .53-.2Zm-1.92-2.14 2.18-2-.08-.07-2.11 1.17-2.09-1.17-.08.07 2.18 2ZM88 36.97l2.14-.33v-.12c-.2 0-.4-.01-.6-.05a.53.53 0 0 1-.32-.19c-.08-.12-.2-.26-.2-.4-.02-.18 0-.41 0-.71V31l-2.17.31v.12c.2.02.39.05.58.1.13.03.25.1.34.2a1 1 0 0 1 .17.5c.04.3.07.87.06 1.18v2.7c-.2.09-.43-.11-.65-.06a4.8 4.8 0 0 1-1.07.12c-.2 0-.4-.03-.58-.1a.98.98 0 0 1-.44-.3 1.4 1.4 0 0 1-.27-.56c-.06-.28-.1-.58-.09-.88V32.9l.02-.69V31l-2.03.31v.12c.18.02.37.06.55.1.11.04.21.11.28.22.06.13.1.28.1.43.02.18.02.43.02.75v.79l-.01.59v.5c0 .28.03.55.09.82.18.82.97 1.4 1.78 1.37.7 0 1.39-.4 1.96-.77.15-.1.26.08.34.02v.5c0 .16.02.09 0 .25v-.03Zm-10.03-3.25h4.17v-.18c0-.29-.04-.58-.1-.86-.07-.3-.2-.59-.36-.84-.43-.62-1.13-.86-1.86-.84-.78 0-1.58.24-2.12.79-.3.3-.53.65-.68 1.04a3.7 3.7 0 0 0-.02 2.61A2.8 2.8 0 0 0 79.59 37c.9.01 1.8-.4 2.5-.95l-.05-.09a4.43 4.43 0 0 1-1.05.3 2.8 2.8 0 0 1-1.64-.16 2.22 2.22 0 0 1-1.22-1.39 3.4 3.4 0 0 1-.16-1Zm0-.24c.03-.93.49-2.23 1.62-2.23.5-.03.91.22 1.1.68.1.23.17.48.2.74l.06.8-2.98.01Zm-1.62-2.24c.13-.06.27-.1.41-.1V31l-.38.03-.37.01h-1.1l-.37-.04v.14c.22-.01.44.05.61.18a.53.53 0 0 1 .17.4c0 .13-.03.27-.07.4-.05.14-.1.29-.17.44l-1.48 3.47c-.39-.92-.7-1.66-.92-2.22-.23-.56-.4-1.2-.52-1.52a8.38 8.38 0 0 1-.28-.88.2.2 0 0 1 .05-.13.2.2 0 0 1 .11-.07c.17-.04.35-.07.52-.07V31l-.51.03-.45.01h-.78l-.4-.01-.45-.03v.13l.33.04c.1.02.19.06.26.13.1.09.17.2.23.31.1.2.2.4.27.6l1.84 4.8h.49l1.94-4.47c.1-.22.21-.44.34-.66.1-.15.2-.29.33-.41.1-.1.22-.18.35-.23Zm-7.02 4.37c.17-.3.26-.65.25-1 0-.26-.04-.51-.13-.75-.1-.23-.25-.43-.43-.6a4.6 4.6 0 0 0-.75-.57l-1.1-.66a11.1 11.1 0 0 1-.9-.58 3.5 3.5 0 0 1-.54-.47 1.1 1.1 0 0 1-.3-.84 1.6 1.6 0 0 1 .33-1.07c.25-.32.65-.5 1.06-.5A1.92 1.92 0 0 1 68.8 30a6 6 0 0 1 .23.83h.12a18.05 18.05 0 0 1-.02-1.22v-.5l.02-.49h-.13c-.17 0-.34-.02-.5-.06l-.45-.09a5.14 5.14 0 0 0-1.1-.12 3.24 3.24 0 0 0-1.93.6 2.1 2.1 0 0 0-.59.68 1.8 1.8 0 0 0-.21.87c0 .28.04.55.15.8.1.23.25.44.44.63.21.2.45.4.71.56.29.18.61.38.98.59.34.2.63.37.87.53.21.13.41.28.59.46a1.33 1.33 0 0 1 .42 1c0 .2-.03.42-.09.63-.2.75-.97 1.1-1.7 1.07a2.2 2.2 0 0 1-1.69-.7c-.2-.21-.36-.46-.48-.72a6.29 6.29 0 0 1-.32-.8H64c.06.37.1.74.11 1.1l.06 1.12c.2 0 .42.01.62.04.55.1 1.1.2 1.65.2.4 0 .81-.06 1.2-.17a2.8 2.8 0 0 0 1.7-1.23Zm39.54-.55h-.12l.06.86.05.85c.3 0 .59.05.88.12a3.77 3.77 0 0 0 1.77 0c.26-.07.51-.18.74-.32.21-.14.4-.31.53-.52.13-.21.2-.46.2-.7a1.29 1.29 0 0 0-.38-.93 7.81 7.81 0 0 0-1.34-.88l-.44-.22a2.86 2.86 0 0 1-.46-.29c-.14-.1-.26-.24-.36-.38-.5-.75.18-1.47 1-1.42.43 0 .83.18 1.1.51.12.16.23.33.3.52.08.2.15.38.2.56h.13a11.6 11.6 0 0 1 0-1.67c-.55-.03-1.08-.16-1.63-.15-.53 0-1.06.08-1.5.35-.21.13-.4.31-.53.52-.14.23-.2.5-.2.76 0 .22.06.43.19.6.12.19.27.35.44.48.18.14.36.27.56.37l.5.28c.3.16.54.3.73.42.17.1.31.2.45.34.1.08.17.2.22.31.04.12.06.25.06.37a.82.82 0 0 1-.35.7c-.31.2-.68.29-1.05.27a1.3 1.3 0 0 1-.67-.17 1.7 1.7 0 0 1-.48-.42 3.03 3.03 0 0 1-.35-.55c-.1-.2-.18-.39-.25-.57ZM69.16 42H64v9h5.19v-1.43h-3.44v-2.53H69v-1.42h-3.25V43.4h3.4V42Zm103.32 3.3h1.24v3.54c-.03.58.16 1.15.52 1.59a2 2 0 0 0 1.52.56c.42.01.84-.04 1.24-.15v-1.37c-.24.14-.55.2-.81.18-.53 0-.8-.36-.8-1.1V45.3h1.6V44h-1.6v-2l-1.67.58V44h-1.24v1.3Zm-11.84-.03H162v3.57c-.03.58.16 1.15.53 1.6a2 2 0 0 0 1.51.56c.42 0 .84-.04 1.25-.15l-.05-1.37c-.24.13-.5.2-.77.18-.52 0-.78-.37-.78-1.1v-3.29h1.36V44h-1.37v-2l-1.68.57v1.44l-1.36-.01v1.27ZM159.56 41h-1.68v10h1.68V41Zm-5.11 10H156v-7h-1.64v3.45c.01.5-.1 1-.32 1.46a1.25 1.25 0 0 1-1.16.75.99.99 0 0 1-.72-.28c-.19-.18-.3-.44-.32-.7a5.93 5.93 0 0 1-.05-.94V44H150v4.39c-.05.93.51 2.04 1.39 2.44.29.13.6.19.93.17a2.64 2.64 0 0 0 2.14-1.06V51Zm-9.51-10h-1.68v10h1.68l.03-3.39 2.15 3.39h2.13l-2.7-3.84 2.4-3.16h-1.98l-2.03 2.85V41Zm-14.18 4.27H132V51h1.68v-5.73h1.47V44h-1.47v-.63c0-.68.25-1.02.74-1.02.26 0 .5.09.72.23l.14-1.43a4.9 4.9 0 0 0-1.23-.15 1.88 1.88 0 0 0-1.51.62 2.41 2.41 0 0 0-.54 1.64V44h-1.24v1.27ZM126.13 41h-1.67v1.98h1.67V41Zm0 3h-1.67v7h1.67v-7Zm-6.96-3h-1.68v10h1.68l.02-3.39 2.16 3.39h2.13l-2.7-3.84 2.4-3.16h-1.98l-2.03 2.85V41Zm-5.15 4.3c.52 0 1.03.1 1.5.28l.12-1.3a8.57 8.57 0 0 0-1.83-.25 2.95 2.95 0 0 0-1.74.48 1.84 1.84 0 0 0-.79 1.59 1.67 1.67 0 0 0 .76 1.51c.22.13.45.23.7.31l.7.22c.5.17.76.43.76.78a.71.71 0 0 1-.37.63c-.22.13-.48.19-.73.18a3.6 3.6 0 0 1-1.66-.44l-.1 1.42c.62.18 1.26.28 1.9.29.66.03 1.3-.15 1.86-.5a1.91 1.91 0 0 0 .85-1.68 1.76 1.76 0 0 0-.75-1.56 2.5 2.5 0 0 0-.67-.33l-.73-.24c-.51-.17-.77-.39-.77-.65 0-.13.03-.26.1-.37a1.02 1.02 0 0 1 .9-.37ZM101.98 44h-1.57v7h1.68v-3.39c0-.21.01-.45.04-.7.1-1.02.5-1.53 1.21-1.53.22-.02.44.05.62.19a.9.9 0 0 1 .31.57c.03.24.05.5.04.74V51H106v-3.39c0-.23 0-.47.03-.7.1-1.02.5-1.53 1.21-1.53.22-.02.44.05.61.19.18.14.29.34.32.57.03.24.04.49.04.73V51h1.68v-4.36c0-1.74-.69-2.64-2.05-2.64a2.17 2.17 0 0 0-2.02 1.2 1.96 1.96 0 0 0-.77-.9 1.9 1.9 0 0 0-1.13-.3c-.39 0-.77.13-1.1.31-.35.2-.64.47-.84.8V44Zm-15.31 0H85v7h1.75v-3.4c-.01-.51.1-1.01.32-1.46a1.22 1.22 0 0 1 1.17-.75.96.96 0 0 1 .71.26 1.01 1.01 0 0 1 .32.72c.04.3.06.62.05.93V51H91v-4.35c0-1.74-.73-2.6-2.2-2.6a2.44 2.44 0 0 0-2.13 1.05V44Zm-14.13-3h-1.68v10h1.68l.02-3.39L74.72 51h2.13l-2.71-3.84 2.4-3.16h-1.97l-2.03 2.85V41Zm99.28 9.46c-.68.37-1.43.55-2.2.53a3.25 3.25 0 0 1-2.46-.9 3.5 3.5 0 0 1-.86-2.56c0-1.62.55-2.7 1.66-3.26.4-.19.85-.28 1.3-.27 2.02 0 3.03 1.31 3.03 4h-4.4a1.79 1.79 0 0 0 .54 1.3c.36.3.81.45 1.27.42a4.3 4.3 0 0 0 2.12-.67v1.41Zm-1.12-3.61c0-.41-.13-.8-.37-1.12a1.2 1.2 0 0 0-.44-.35 1.13 1.13 0 0 0-.54-.1c-.88 0-1.37.52-1.47 1.57h2.82ZM137 44.52c.7-.34 1.55-.51 2.33-.5a2.9 2.9 0 0 1 2.11.65 2.91 2.91 0 0 1 .66 2.16v.85c0 1.07.04 2.28.1 3.32h-1.47l-.08-1.16a2.14 2.14 0 0 1-2.02 1.15c-.55.02-1.1-.15-1.55-.5a1.76 1.76 0 0 1-.7-1.47c0-1.53 1.1-2.3 3.27-2.3h.92a1.5 1.5 0 0 0-.33-1.11 1.58 1.58 0 0 0-1.12-.33 3.5 3.5 0 0 0-2.12.73v-1.5Zm.99 4.4c0 .53.35.8 1.06.8a1.3 1.3 0 0 0 1.17-.6c.25-.41.38-.89.35-1.37h-.72c-1.24 0-1.86.39-1.87 1.16Zm-45.44-1.37a3.65 3.65 0 0 1 .92-2.57 3.25 3.25 0 0 1 2.45-.98 3.2 3.2 0 0 1 3.18 2.16c.15.44.22.92.2 1.39a3.47 3.47 0 0 1-.94 2.52 3.66 3.66 0 0 1-4.88-.02 3.38 3.38 0 0 1-.93-2.5Zm1.75-.21c0 1.54.54 2.3 1.62 2.3s1.62-.76 1.62-2.3c.02-.5-.12-.98-.4-1.38a1.48 1.48 0 0 0-1.22-.61 1.39 1.39 0 0 0-1.22.61c-.27.4-.42.89-.4 1.38Zm-16.6.21a3.65 3.65 0 0 1 .92-2.57 3.25 3.25 0 0 1 2.45-.98 3.2 3.2 0 0 1 3.18 2.16c.16.44.22.92.2 1.39a3.46 3.46 0 0 1-.94 2.52 3.66 3.66 0 0 1-4.88-.02 3.38 3.38 0 0 1-.92-2.5Zm1.76-.21c0 1.54.53 2.3 1.61 2.3s1.63-.76 1.63-2.3a2.3 2.3 0 0 0-.4-1.38 1.4 1.4 0 0 0-.54-.46 1.5 1.5 0 0 0-.69-.15 1.39 1.39 0 0 0-1.21.61c-.28.4-.42.89-.4 1.38Z" fill="#fff"/></svg>