<!-- by TradingView --><svg width="18" height="18" viewBox="0 0 18 18" xmlns="http://www.w3.org/2000/svg"><path fill="url(#a)" d="M0 0h18v18H0z"/><path d="M5.64 5.32a4.75 4.75 0 0 1 3.94-1.28c1.01.1 1.91.5 2.71 1.18.37.32.72.77 1.06 1.35a4.87 4.87 0 0 1 .61 2.96h-.03v-.02a5.4 5.4 0 0 0-.4-2.24 4.33 4.33 0 0 0-2.26-2.26 4.43 4.43 0 0 0-3.36-.23 4.4 4.4 0 0 0-2.64 2.07 4.75 4.75 0 0 0 .29 5.13 4.51 4.51 0 0 0 2.4 1.67 4.92 4.92 0 0 0 2.94-.09l.01.02a.03.03 0 0 1-.02.04 4.96 4.96 0 0 1-5.73-1.42c-.53-.67-.9-1.4-1.07-2.22a5.03 5.03 0 0 1 1.55-4.65Zm3.4 1.04a3.4 3.4 0 0 1 2.13.67l.36.27a3.77 3.77 0 0 0 1.31.71l-.01.01h-.12l-.33.04c-.3.08-.6.2-.87.38-.76.48-1.41.74-1.95.78a4.13 4.13 0 0 1-1.65-.18l-.02.01v.04c.04.06.15.22.35.47.12.15.28.38.48.68l.29.44c.35.5.7.88 1.07 1.13.56.4 1.13.54 1.72.42.33-.07.62-.23.87-.48.25-.24.4-.54.48-.87.08-.41-.01-.75-.3-1-.28-.25-.62-.26-1-.03a.6.6 0 0 0-.19.23.21.21 0 0 0-.02.06c-.06.35.07.62.38.81v.03H12a.69.69 0 0 1-.42-.32.88.88 0 0 1-.07-.78.8.8 0 0 1 .57-.53c.5-.14.92-.03 1.24.35.3.34.42.77.36 1.28a2.22 2.22 0 0 1-2.17 1.96c-.31.01-.63-.05-.96-.17a3.67 3.67 0 0 1-1.87-1.62l-.9-1.69a2.03 2.03 0 0 0-.6-.77.04.04 0 0 0-.04.01v3.59l-.01.01H7.07v-.01a2.66 2.66 0 0 0-.43-1.43 1.85 1.85 0 0 0-1.4-.92v-.01c.67-.06 1.09-.24 1.28-.54.1-.17.15-.36.12-.57a.75.75 0 0 0-.28-.5 1.46 1.46 0 0 0-.9-.32l-.01-.01v-.02h.02c.4-.07.89-.35 1.48-.83.63-.5 1.33-.76 2.1-.78Zm-.86.63c-.42.14-.83.33-1.24.55a3.56 3.56 0 0 1-.96.4v.03c.01.02.04.03.09.04l.65.1.59.2.58.21c.74.28 1.54.3 2.38.06.16-.05.42-.14.8-.29.25-.1.58-.18 1-.25l.2-.04.07-.02v-.03a.03.03 0 0 0-.02-.03c-.32-.06-.7-.22-1.15-.48A3.8 3.8 0 0 0 10.08 7l-.01.01-.01.02v.02c.18.4.13.76-.14 1.05-.17.18-.37.29-.62.32a.99.99 0 0 1-.68-.13.94.94 0 0 1-.46-.77c-.01-.1 0-.23.03-.39A7.66 7.66 0 0 0 8.21 7h-.03Zm.96-1.43a3.4 3.4 0 0 1 2.34.87 3.59 3.59 0 0 0 1.35.75v.01h-.01c-.43 0-.98-.2-1.64-.56l-.33-.17c-.53-.27-1.1-.4-1.7-.4a3.66 3.66 0 0 0-2.04.58 3.95 3.95 0 0 1-1.66.55v-.01l.01-.01c.35-.07.8-.31 1.35-.73l.24-.2a3.4 3.4 0 0 1 2.09-.68Z" fill="#FCFCFC"/><defs><linearGradient id="a" x1="3.35" y1="3.12" x2="21.9" y2="24.43" gradientUnits="userSpaceOnUse"><stop stop-color="#1A1E21"/><stop offset="1" stop-color="#06060A"/></linearGradient></defs></svg>