<!-- by TradingView --><svg width="18" height="18" viewBox="0 0 18 18" xmlns="http://www.w3.org/2000/svg"><path fill="#F0F3FA" d="M0 0h18v18H0z"/><path d="m9.88 9.7.39-.33.4.34-.38.33.46.4a2 2 0 1 1-.36.38l-.5-.43-.42.35-.4-.35.4-.35L6.15 7.2l-1 .86-.04-.9-1.06-.03 1.02-.87L4 5.35 4.4 5l5.48 4.7Zm2.12.63a.76.76 0 0 0-.74.93.76.76 0 1 0-.17 1.5c.06 0 .12-.01.17-.03a.75.75 0 0 0 .74.94.76.76 0 0 0 .74-.94c.05.02.1.03.17.03a.76.76 0 1 0-.17-1.5.76.76 0 0 0-.74-.93Z" fill="#DB3304"/><path d="m8.12 9.7-.39-.34-.4.35.38.33-.46.4a2 2 0 1 0 .36.38l.5-.43.42.35.4-.35-.4-.35 3.33-2.85 1 .86.04-.9 1.06-.03-1.02-.87 1.06-.9-.4-.35-5.48 4.7ZM6 10.32a.76.76 0 0 1 .74.93.76.76 0 1 1 0 1.47l.02.18a.76.76 0 0 1-1.52 0l.02-.18a.76.76 0 1 1-.17-1.5l.17.03a.76.76 0 0 1 .73-.93Z" fill="#DB3304"/><path d="M11 4.55v1.9L9.15 8h-.3L7 6.45v-1.9L7.65 4 9 5.1 10.35 4l.65.55ZM7.8 6.2l.8.8V5.47l-.8-.8V6.2Zm1.6-.73V7l.8-.8V4.67l-.8.8Z" fill="#DB3304"/></svg>