<!-- by TradingView --><svg width="18" height="18" viewBox="0 0 18 18" xmlns="http://www.w3.org/2000/svg"><path fill="#F0F3FA" d="M0 0h18v18H0z"/><path d="M11.95 7.58a.96.96 0 0 1-.66.25C10.52 7.8 10 7.14 10.2 6.4c.06-.1.1-.23.17-.32.34-.45 1-.6 1.48-.3a1.53 1.53 0 0 1 .37.39c.26.55.16 1.02-.28 1.42Z" fill="#DED8CC"/><path d="M11.4 5c.53 0 1.05.36 1.34.79.29.42.29.81.23 1.37l-.15 1.3-.29 2.29-.18 1.53c-.04.36-.16.7-.36 1a1.7 1.7 0 0 1-2.78 0 2.71 2.71 0 0 1-.3-.62c-.24-.63-.43-1.1-.73-1.63-.3-.52-.68-.9-1.17-1.2-.6-.37-1.25-.6-1.87-.85-.63-.27-1-.7-1.1-1.33a1.6 1.6 0 0 1 .42-1.42c.3-.32.63-.5 1.02-.55l1.26-.16 2.15-.26.73-.1c.46-.04.78-.09 1.17-.14.2-.02.4-.02.6-.02Zm-.57 6.16a1.1 1.1 0 0 0-.94.23 1.15 1.15 0 0 0-.18 1.54 1 1 0 0 0 .62.4c.49.12.89-.03 1.2-.45.16-.25.22-.5.18-.78a1.1 1.1 0 0 0-.88-.94ZM6.04 6.3c-.4-.05-.8 0-1.08.33-.33.26-.37.8-.23 1.15.27.7 1.08.93 1.7.5.4-.35.53-.77.38-1.24a.98.98 0 0 0-.25-.43 1.32 1.32 0 0 0-.43-.29.4.4 0 0 0-.09-.02Zm5.82-.53a1.13 1.13 0 0 0-1.48.3c-.07.09-.11.21-.17.32-.2.75.31 1.41 1.08 1.44.23.01.45-.07.66-.25.44-.4.54-.87.28-1.42a1.53 1.53 0 0 0-.38-.38Z" fill="url(#a)"/><path d="M6.44 8.28c-.63.43-1.44.2-1.71-.5-.14-.35-.1-.89.23-1.15.29-.33.67-.38 1.08-.33a.4.4 0 0 1 .1.02c.14.06.28.15.42.29.11.1.2.25.25.43.15.47.03.89-.37 1.24ZM11.52 12.88c-.3.42-.7.57-1.2.45a1 1 0 0 1-.6-.4c-.16-.2-.23-.44-.22-.7 0-.32.14-.6.4-.84.29-.22.6-.3.93-.23.47.1.81.46.88.94.04.27-.02.53-.19.78Z" fill="#CDC2B0"/><defs><linearGradient id="a" x1="12.37" y1="5.36" x2="6.38" y2="11.96" gradientUnits="userSpaceOnUse"><stop stop-color="#D3CBBB"/><stop offset=".46" stop-color="#B9AB93"/><stop offset="1" stop-color="#A89578"/></linearGradient></defs></svg>