<!-- by TradingView --><svg width="18" height="18" viewBox="0 0 18 18" xmlns="http://www.w3.org/2000/svg"><path fill="url(#a)" d="M0 0h18v18H0z"/><path d="M11.29 12.28c.03 0 .05.01.07.03l.52.47c.02.01.03.02.03.04a.12.12 0 0 1-.03.13A4.18 4.18 0 0 1 8.98 14a4.19 4.19 0 0 1-2.93-1.06.12.12 0 0 1 0-.1l.03-.04.51-.47a.12.12 0 0 1 .15 0 3.7 3.7 0 0 0 4.47-.02.12.12 0 0 1 .08-.03ZM8.41 3.01c.23-.04.43.04.6.23.64.77 1.03 1.5 1.15 2.18.04.24.05.58.04 1.02l-.01.56c0 .16.02.31.07.45a.07.07 0 0 0 .05.04h.03l.03-.01c.36-.27.66-.59.92-.95.08-.12.2-.19.37-.2a.6.6 0 0 1 .41.11c.03.03.15.16.34.4.6.75.96 1.56 1.06 2.44.11.94-.1 1.8-.61 2.55a.27.27 0 0 1-.15.1.29.29 0 0 1-.18 0c-.1-.04-.2-.11-.3-.21a275.59 275.59 0 0 1-1.87-1.7.14.14 0 0 0-.1 0 .13.13 0 0 0-.03.02l-1 .98c-.17.17-.35.16-.53-.01a108.8 108.8 0 0 1-1.01-1 .13.13 0 0 0-.1 0 .13.13 0 0 0-.04.03L5.51 11.9a.27.27 0 0 1-.3.03.65.65 0 0 1-.22-.25c-.48-.88-.6-1.8-.38-2.78.2-.9.68-1.73 1.42-2.48.43-.43.74-.75.92-.97.5-.6.84-1.27 1.01-2.03A.5.5 0 0 1 8.41 3Zm.33 1.44c-.02 0-.04 0-.06.02a22.71 22.71 0 0 0-2 2.66c-1.03 1.1-1.4 2.24-1.12 3.46v.01h.05l1.7-1.59c.24-.2.44-.23.62-.06a25.66 25.66 0 0 1 1.01.98.12.12 0 0 0 .09 0l.04-.03.96-.95c.19-.17.38-.17.58.02a364.52 364.52 0 0 0 1.8 1.63l.01-.01.01-.02c.27-.92.05-1.92-.66-3l-.01-.02h-.08l-.14.15c-.44.45-.82.69-1.13.7-.86.05-1.24-.6-1.16-1.96a3.68 3.68 0 0 0-.45-1.98.12.12 0 0 0-.06-.01Z" fill="#FB5A1F"/><defs><linearGradient id="a" x1="4.3" y1="9" x2="16.81" y2="3.73" gradientUnits="userSpaceOnUse"><stop stop-color="#321A10"/><stop offset="1" stop-color="#733214"/></linearGradient></defs></svg>