<!-- by TradingView --><svg width="18" height="18" viewBox="0 0 18 18" xmlns="http://www.w3.org/2000/svg"><path d="M0 0h18v18H0V0z" fill="#EF5350"/><path d="M10 5v4h6V5h-6z" fill="#F8F9FD"/><path d="M10 9c0 2.1 3 3 3 3s3-.9 3-3h-6z" fill="#2E7D32"/><path d="M13 6c-1 0-1 .93-1 .93V9h2V6.93S14 6 13 6z" fill="#EF5350"/><path fill="#0D47A1" d="M0 0h9v9H0z"/><path d="M9 4V0H0v9h4V6l3 3h2V7L6 4h3z" fill="#F8F9FD"/><path d="M3 1V0H1v1H0v2h1v6h2V3h6V1H3z" fill="#EF5350"/><path d="M9 8L5 4H4l5 5V8z" fill="#EF5350"/></svg>