<!-- by TradingView --><svg width="18" height="18" viewBox="0 0 18 18" xmlns="http://www.w3.org/2000/svg"><path d="M0 12h18v6H0v-6z" fill="#1565C0" shape-rendering="crispEdges"/><path d="M0 6h18v6H0V6z" fill="#F8F9FD" shape-rendering="crispEdges"/><path d="M0 0h18v6H0V0z" fill="#EF5350" shape-rendering="crispEdges"/><path d="M8 6V5l-.92-1L6 5v1h2zM12 6V5l-1-1-1 1v1h2zM10 6H8V5l1-1 1 1v1z" fill="#0D47A1" shape-rendering="crispEdges"/><path d="M6 6v4.63c0 1.1.47 2.09 1.2 2.7 0 0 .9.67 1.8.67s1.8-.67 1.8-.67c.73-.62 1.2-1.6 1.2-2.7V6H6z" fill="#F8F9FD"/><mask id="bovhar3if" maskUnits="userSpaceOnUse" x="6" y="6" width="6" height="8"><path d="M6 6v4.63c0 1.1.47 2.09 1.2 2.7 0 0 .9.67 1.8.67s1.8-.67 1.8-.67c.73-.62 1.2-1.6 1.2-2.7V6H6z" fill="#fff"/></mask><g mask="url(#bovhar3if)" fill="#EF5350"><path d="M6 6h2v2H6zM10 6h2v2h-2zM8 8h2v2H8zM6 10h2v2H6zM10 10h2v2h-2zM8 12h2v2H8z"/></g></svg>