<!-- by TradingView --><svg width="18" height="18" viewBox="0 0 18 18" xmlns="http://www.w3.org/2000/svg"><path fill="#005430" d="M0 0h18v18H0z"/><path d="M15 8.36c0-.29-.11-1.04-.14-1.3l-.05-.54c.01-.05.09.08.13.09.02 0 .01-.09-.03-.15l-.17-.32-.04-.08a.6.6 0 0 0-.1.22c.02.04.04.06.04.14l.1 1c.03.3.11.94.11 1.34 0 .13-.01.26-.03.3-.04.1-.11.17-.37.32-.3.17-.69.31-.85.4-.1.07-.07.07.02.05.09-.03.56-.11.78-.2.22-.1.36-.25.46-.47.13-.27.14-.5.14-.8ZM14.1 6.22c.02 0 .2-.02.25 0-.03.04-.25.14-.26.16.01.02.16-.02.2-.04.04-.02.06-.05.08-.07.05-.06.12-.18.1-.2-.02-.02-.28 0-.31 0-.03 0-.08.1-.1.14 0 .02.01.02.03.01Z" fill="#fff"/><path d="M14.48 7.89a.79.79 0 0 0 0-.47.6.6 0 0 0-.3-.33l-.01.17s.13.07.23.24c.06.1.08.26.03.43 0 .04.03.02.05-.04ZM13.02 8.73a.71.71 0 0 0 0-.42.54.54 0 0 0-.26-.3l-.02.15s.13.06.21.22c.06.1.08.23.04.39-.01.04.02.01.03-.04ZM7.98 6.45c.06.1.08.24.04.4 0 .05.02.03.04-.04a.75.75 0 0 0 0-.43.57.57 0 0 0-.28-.32l-.02.16s.13.06.22.23ZM4.58 6.5a.5.5 0 0 1-.03.42c-.01.04.03.02.06-.04.06-.12.1-.27.06-.44a.57.57 0 0 0-.26-.36l-.04.16s.14.08.21.26Z" fill="#fff"/><path d="M5.52 8.99a1 1 0 0 0 .11-.32c.03-.12.03-.26.02-.4.18-.07.4-.19.47-.2-.05.17.07.36.3.33l.05.46c.02.2.01.47.01.51 0 .05.04.04.07-.06a2.58 2.58 0 0 0 .02-.95c.16-.07.18-.2.24-.27.05.19.34.21.43.17.1-.05.14-.13.17-.34.03-.2-.05-.28-.08-.3l-.08.26s.07.07.08.1c-.06.06-.18.06-.27.03-.1-.03-.13-.1-.13-.13 0-.04.05-.08.05-.12 0-.05-.03-.04-.06 0a.93.93 0 0 0-.12.18.37.37 0 0 1-.25.19l-.06-.6-.1-.83-.01-.18c0-.03.02-.02.05.01.02.03.07.09.08.08.03-.01 0-.1-.04-.18-.03-.08-.16-.39-.19-.4-.01 0-.1.19-.1.22.01.03.05.06.05.17l.04.57.06.47.07.67c-.14-.03-.18-.12-.17-.17 0-.06.03-.12.01-.14-.02-.02-.18.07-.4.17l-.2.08-.06-.44V7.6c.14 0 .26-.08.31-.15a.8.8 0 0 0 .12-.4c0-.14-.1-.4-.13-.48a.87.87 0 0 1-.04-.16c0-.03.06.03.1.04.02 0 .01-.05-.02-.09-.03-.04-.2-.3-.22-.29l-.08.24c.03.02.06.07.06.12a2 2 0 0 0 .08.38c.05.11.14.34.14.4a.66.66 0 0 1-.36.12l-.07-.61v-.18c0-.03.02-.02.04 0l.09.08c.02 0 0-.07-.04-.15l-.22-.42a.71.71 0 0 0-.09.22c.01.02.05.05.05.16l.08.85c-.14-.07-.2-.18-.21-.36-.01-.12-.01-.36-.06-.55a.59.59 0 0 0-.14-.28l-.08.26c.02.06.09.28.08.47 0 .19-.01.37-.22.5-.21.12-.53.07-.6-.13-.08-.2.1-.69.09-.8 0-.12-.02-.14-.07-.12-.05.02-.15.13-.24.32-.08.18-.12.4-.17.56-.05.16-.13.31-.25.3-.12 0-.18-.12-.22-.28a1.26 1.26 0 0 1 0-.42c.02-.13-.04-.1-.07.1-.02.14-.05.34.03.56.08.22.21.3.33.27.11-.02.21-.3.25-.42.04-.12.2-.66.29-.69.01.06-.07.26-.1.5-.03.22.04.53.33.58.29.06.49-.13.56-.26.07-.14.1-.27.11-.34.01.17.13.45.37.53h.02l.06.54c-.05 0-.1.02-.14.03a.45.45 0 0 0-.02-.05c-.07-.16-.19-.3-.35-.29-.17.01-.35.24-.34.4 0 .1.06.2.28.22.1.01.21 0 .32-.02.02.04.03.09.03.13-.07.08-.65.51-1.08.56-.43.04-.56-.19-.57-.42 0-.17.1-.34.18-.46.1-.08.19-.17.24-.24l.04.02c.05.03.08.08.08.08 0-.02.05-.1.03-.14a.68.68 0 0 0-.1-.06c.06-.12.06-.24 0-.27-.08-.03-.17.05-.21.1a.14.14 0 0 0-.03.09c0 .03.01.06.05.08.04.03.08.05.1.08a2.92 2.92 0 0 1-.5.36l-.03.02-.42.25a4.11 4.11 0 0 1 .14-.05l.24-.12-.07.15c-.1.24-.27.74.09 1.04.34.3.93.18 1.42-.12.49-.3.6-.4.67-.51Zm-1.6-1.2v-.04A.15.15 0 0 1 4 7.72c.05-.01.07.05.05.15a1.67 1.67 0 0 1-.11-.08Zm1.13.41c-.25 0-.26-.04-.26-.07 0-.03.08-.1.18-.06.04.03.1.07.13.13h-.05Zm-.76 1.31c-.47.13-.93-.07-.96-.46-.02-.3.09-.53.16-.66.07-.03.13-.06.18-.1-.12.2-.2.47-.14.7.05.25.27.4.65.36.37-.05.87-.4 1.01-.54a.6.6 0 0 0 .11-.18c.02-.04.04-.08.05-.14l.01-.11.13-.04.03.45c-.23.28-.76.6-1.23.72ZM12.51 8.48c-.02-.26-.05-.74-.08-.98-.01-.22-.05-.51-.08-.77v-.17c0-.03.02-.01.05.01l.08.07c.03-.02 0-.09-.04-.17-.04-.08-.2-.4-.22-.4a.76.76 0 0 0-.1.22c.02.02.05.05.06.16 0 .1.06.59.1.98l.08 1.05.03.35v.51c0 .05.03.04.07-.06.03-.1.06-.33.06-.54v-.26ZM11.17 7.56c-.04.01-.12-.04-.11-.15 0-.1.04-.18.06-.24.02-.08.02-.16 0-.11-.04.1-.12.28-.13.4-.02.13.02.21.08.24.07.04.12-.02.15-.1s.03-.17 0-.15c-.01.02-.02.1-.05.1ZM10.48 7.95c.03-.07.03-.14.01-.1-.04.08-.12.24-.15.35-.02.1 0 .18.05.21.06.03.11-.01.15-.08.03-.07.03-.15.01-.13-.02.02-.03.08-.05.09-.04 0-.1-.04-.1-.13.02-.09.06-.17.08-.21ZM8.46 9.38c.05-.07.07-.14.04-.1-.07.07-.2.23-.24.35-.05.11-.04.2 0 .24.06.05.13 0 .18-.06.05-.07.07-.15.04-.14-.02.02-.05.09-.07.09-.05 0-.1-.07-.07-.17.03-.09.1-.16.12-.21ZM12 7.35c-.05.02-.12-.04-.1-.14 0-.1.05-.19.07-.24.03-.08.03-.16.01-.12-.05.1-.14.28-.16.4-.02.13.01.21.07.24.06.04.12-.01.15-.09.04-.08.04-.17.02-.15-.02.02-.03.1-.06.1ZM11.99 8.66c.06.04.12-.01.16-.1.03-.07.03-.16 0-.14-.01.02-.02.1-.05.1-.05.01-.12-.04-.1-.15 0-.1.05-.18.07-.24.03-.07.03-.15.01-.1-.05.09-.13.27-.16.4-.02.12.01.2.07.23ZM12.84 7c.04-.1.04-.2.02-.14-.06.11-.17.33-.2.48-.03.15.02.25.08.3.08.04.15-.03.2-.12.04-.1.04-.2.01-.18-.02.03-.04.12-.07.12-.06.02-.14-.05-.13-.18.01-.11.07-.22.1-.29Z" fill="#fff"/><path d="M6 8.62c.05-.12.07-.23.03-.17-.09.13-.25.4-.3.59-.06.18-.02.31.05.37.1.07.19 0 .26-.12.07-.11.08-.25.04-.22-.03.03-.06.14-.1.14-.07.01-.18-.08-.14-.24.03-.14.12-.27.15-.35ZM13.39 9.75l.46-.26s.06-.1.04-.12c-.02-.01-.14.1-.22.1-.08.01-.2-.05-.2-.1.01-.03.1-.09.14-.09.04 0 .03.08.04.09.02 0 .06-.06.07-.08 0-.03 0-.14-.06-.13-.1.03-.26.22-.27.28-.02.05.07.1.14.13l-.09.06s-.03.04-.05.12ZM12.19 9.98l.46-.26s.06-.1.04-.12c-.02 0-.14.1-.22.11-.08 0-.2-.05-.2-.1.01-.04.1-.1.14-.1.04 0 .03.08.04.1.02 0 .06-.06.07-.09 0-.03 0-.14-.06-.12-.1.02-.26.21-.27.27-.02.06.07.11.14.14 0 0-.06.02-.09.06 0 0-.03.04-.05.11ZM9.49 6.59c.03.03.23.3.4.46a16.47 16.47 0 0 0 .76.73l.14 1.1.03.51c0 .05.03.04.06-.06.04-.14.05-.49.03-.72l-.08-.66.31.33c.14.16.26.28.33.45.05.13.05.23.07.25.02.01.04-.14.01-.28-.03-.23-.08-.33-.38-.66a6.81 6.81 0 0 0-.38-.38l-.01-.1-.12-.83-.02-.18c0-.03.02-.02.05.01l.09.08c.02-.02 0-.1-.05-.18-.04-.08-.17-.39-.2-.4-.01 0-.1.19-.1.23.02.02.05.05.06.16 0 .03.02.3.06.57l.06.47-.32-.3a5.01 5.01 0 0 1-.56-.56c0-.02.03-.01.08 0 .05 0 .1.02.1 0l-.08-.08-.28-.17c-.1-.05-.15-.1-.17-.09v.23c.03 0 .08.03.1.07Z" fill="#fff"/><path d="m9.75 6.23.3.01-.26.14c-.04.03-.05.04-.03.04.06-.02.18-.04.24-.07.06-.02.15-.15.2-.2.03-.05.03-.07.02-.09a1.02 1.02 0 0 0-.4 0 .62.62 0 0 0-.11.16c-.01.02 0 .02.04.01ZM10.8 6.22h.25l-.21.12-.03.03c.05-.02.15-.03.2-.06.04-.02.12-.12.15-.16.03-.04.03-.06.02-.07a.82.82 0 0 0-.32-.01.5.5 0 0 0-.09.13c0 .02 0 .02.04.02ZM11.66 6.2l.24.01-.2.12c-.04.02-.05.03-.03.03.04-.02.15-.03.2-.06.05-.02.1-.12.13-.16.03-.04.03-.06.02-.07a.74.74 0 0 0-.3-.01.5.5 0 0 0-.1.13c0 .02.01.02.04.02ZM11.13 6.62c-.05.08.01.15.03.21-.03.03-.08 0-.1-.02-.03-.05-.01-.16-.05-.17a.52.52 0 0 0-.02.06s.03.07.02.11c0 .03-.03.07-.06.07-.1 0-.05-.13-.08-.2l-.02.05v.06l.01.1c.01.03.03.05.06.06.07 0 .1-.05.11-.1.01.05.1.1.14.04.06-.07.01-.13-.01-.2-.03-.05-.02-.08-.03-.07ZM8.63 6.41c0 .03.02.06.05.06.06 0 .08-.04.1-.08 0 .04.08.09.12.04.05-.06.01-.11 0-.17-.03-.05-.02-.08-.03-.06-.05.06 0 .12.02.18-.03.02-.07 0-.08-.03-.03-.04-.01-.13-.05-.15a.45.45 0 0 0-.01.05s.02.07.01.1c0 .03-.03.06-.06.06-.07 0-.03-.11-.06-.18 0 .02 0 .03-.02.05l.01.05v.08ZM10.44 9.5l.03-.07c0-.03-.04-.14-.1-.16-.06-.03-.1.03-.13.1h-.03l-.01.06c0 .05-.02.08-.1.15-.06.06-.27.2-.4.26l-.28.14a4.88 4.88 0 0 0 .3-.09c.07-.02.16-.07.27-.14.12-.08.19-.15.2-.22l.03-.07s.04.03.12.05h.1Zm-.1-.15c.04.01.06.05.06.07a.42.42 0 0 1-.14-.03c.02-.03.05-.05.08-.04Z" fill="#fff"/><path d="M9.65 9.58c-.1-.02-.37-.06-.43-.2.05-.09.3-.19.61-.28.31-.1.64-.21.72-.27h.06c.02-.05.1-.21.1-.24l-.86.05c-.24.02-.7.01-.85.01a2.7 2.7 0 0 1 .75-.35l.05.14c.02-.03.03-.1.03-.16l.32-.1a.7.7 0 0 0 .08-.26.72.72 0 0 0-.2-.17c-.1-.08-.21-.14-.33-.11-.15.04-.18.32-.15.39l.07.09-.34.15c-.23.13-.5.26-.57.4H8.7l-.06.24.66-.01.57-.02c-.13.03-.47.16-.57.23-.1.08-.15.19-.15.38a.9.9 0 0 1-.4-.3c-.17-.22-.13-.45-.2-.74-.09-.42-.29-.78-.41-.89-.04.15-.05.27-.05.27s.16.34.24.56c.07.21.14.43.14.48-.07.14-.45.43-.77.6-.3.17-.56.19-.66.07A.2.2 0 0 1 7 9.46l.13-.06c.27-.12.75-.38.86-.52.12-.16.12-.4.05-.53-.07-.13-.18-.28-.19-.34 0-.02.07.01.12.02.02 0 .01-.04-.04-.09l-.24-.2c-.02-.02-.03-.01-.03 0l-.04.2v.03c.02.01.04.02.05.05 0 .04.05.15.13.29.07.13.18.29.2.36-.1.11-.54.35-.97.55a1.73 1.73 0 0 1 .17-.34c.04-.08.05-.18.02-.16-.02.02-.04.1-.06.1-.06.02-.13-.04-.11-.16.02-.1.07-.19.1-.25.02-.08.03-.16 0-.11-.05.1-.15.28-.18.41-.03.13 0 .22.06.26l.06.01c-.04.07-.09.16-.12.27l-.48.2-1.11.36h-.01v-.1c-.03.03-.05.1-.07.11-.05.01-.13-.05-.11-.16.02-.1.07-.2.1-.25.03-.08.04-.16.01-.12-.05.1-.16.29-.19.42s0 .22.06.25c.07.05.13 0 .17-.09l.02-.03.08-.01c.11-.03.4-.07.8-.12.29-.04.49-.12.68-.21a.8.8 0 0 0 0 .07c.01.26.19.34.43.29a2.4 2.4 0 0 0 1.1-.73.86.86 0 0 0 .06-.3c.02.16.04.39.19.58.14.18.43.43.98.44l-.02-.27ZM9.6 7.92c.08-.09.25-.03.38.08-.07.02-.16.04-.25.08-.06-.07-.13-.14-.13-.16Z" fill="#fff"/><path d="M9.15 7.77c.06-.04.22-.15.31-.23.06-.05.14-.13.19-.2l.09.06c.05.03.07.07.07.07 0-.01.05-.09.03-.13l-.13-.09c.03-.07.07-.2 0-.24-.05-.04-.14.02-.18.1-.04.07-.04.13.03.17l.05.04c-.07.08-.2.19-.28.26l-.24.21c-.03-.06-.02-.1-.04-.08-.08.12.02.22.05.32-.04.05-.12 0-.14-.03-.06-.08-.04-.24-.1-.27a.8.8 0 0 0-.03.1s.05.1.04.18c0 .04-.05.1-.1.1-.14 0-.07-.2-.12-.32l-.03.08.01.1.01.14c.01.06.05.1.1.1.1.01.14-.07.16-.14.02.07.15.15.22.06.09-.11.02-.2-.03-.31V7.8s.03 0 .06-.03Zm.4-.63c.04-.07.11-.07.13-.04.02.03.02.08 0 .13-.07-.04-.13-.08-.13-.1Z" fill="#fff"/><path d="M6.93 7.37c-.13-.01-.19-.12-.23-.28a1.26 1.26 0 0 1 0-.42c0-.06-.05-.03-.07.1-.02.13-.04.34.03.56.08.22.21.3.33.27.11-.03.22-.3.25-.42.04-.12.2-.62.29-.65.01.06-.07.22-.1.45-.02.23.02.53.31.58.3.06.5-.13.57-.26.07-.14.1-.27.1-.34.02.17.14.45.37.53.23.07.4 0 .48-.1a.81.81 0 0 0 .13-.4c0-.14-.12-.4-.15-.47a.87.87 0 0 1-.04-.16c0-.03.06.03.1.04.03 0 .02-.05-.01-.1-.04-.03-.21-.3-.22-.28l-.09.24c.03.01.06.07.07.11 0 .05.04.26.09.38l.13.4a.5.5 0 0 1-.45.06c-.18-.07-.24-.18-.25-.38-.02-.12-.02-.36-.06-.55A.59.59 0 0 0 8.36 6l-.08.26c.02.06.1.28.1.47-.01.18-.03.37-.24.5-.2.12-.5.07-.58-.13-.08-.2.1-.64.09-.75 0-.12-.02-.14-.07-.12-.05.02-.15.13-.24.32-.08.18-.12.36-.17.52-.05.15-.12.3-.24.3ZM3.43 6.69a.55.55 0 0 0 .3-.16c.04-.03.05-.07.03-.05-.17.15-.4.15-.41.13 0-.03.06-.07.15-.13.06-.03.1-.07.14-.12.07.02.15.05.17.03.04-.04.04-.1 0-.17a.51.51 0 0 0-.18-.14c-.07-.04-.08.02-.1.04 0 .02 0 .04.02.04a.26.26 0 0 0-.05.1l.01.05.04.03.03.01a.9.9 0 0 1-.14.1.34.34 0 0 0-.15.16c-.02.06 0 .09.14.08Zm.26-.44V6.2c.05.03.13.1.12.14l-.14-.04.02-.05Zm-.14.01c-.03-.03 0-.06.03-.07.04-.03.06 0 .08.05l-.02.05a.41.41 0 0 1-.09-.03ZM3.87 8.36c-.04.04-.06.16-.05.16L4 8.6v-.04c.07.06.14.34.15.34.02 0 .04-.03.06-.1l.04-.27c.01-.07.03-.12.08-.13.05 0 .08.05.1.1 0 0 .03-.08.03-.13 0-.03-.08-.13-.14-.1-.06.04-.1.17-.1.26l-.04.2a.76.76 0 0 0-.13-.27c-.06-.08-.14-.11-.17-.1ZM3.3 8.21c.06-.01.19-.03.25-.06.05-.03.15-.16.19-.2.03-.05.03-.08.02-.09a1.02 1.02 0 0 0-.4-.01.62.62 0 0 0-.1.16c-.02.03 0 .03.04.02h.3c-.03.03-.23.13-.27.15-.03.02-.04.04-.02.03ZM14.78 8.9c0-.14-.08-.36-.34-.7l-.37-.43v-.14c-.02-.22-.09-.66-.11-.92v-.17c0-.03.01-.02.04 0l.08.08c.02-.01 0-.08-.03-.15-.04-.08-.19-.4-.22-.4a.7.7 0 0 0-.08.2c.01.03.05.07.05.17l.1 1.12v.02l-.47-.52-.05-.05a12.55 12.55 0 0 1-.04-.46c0-.03.02-.03.05 0 .03.03.07.08.08.07.02 0 0-.07-.03-.15-.04-.07-.2-.4-.22-.4-.02-.02-.09.18-.1.22.02.03.06.06.06.17l.03.35a2.76 2.76 0 0 1-.28-.37c0-.02.02 0 .08 0 .05.01.1.03.1 0-.01-.01-.03-.04-.08-.07l-.28-.17c-.1-.06-.15-.11-.17-.1v.23c.03 0 .08.02.1.06l.37.48.18.22.05.47c.03.32.13 1.16.14 1.44a.67.67 0 0 1-.41.18c-.17 0-.26-.04-.33-.17l-.06-.11a.22.22 0 0 0-.24-.1h-.04a.6.6 0 0 0-.2.2c-.12.15-.2.32-.28.46-.09.16-.16.26-.31.24-.11-.02-.2-.12-.25-.23.15-.1.25-.23.33-.41.1-.24.13-.5.13-.8-.01-.28-.14-.95-.18-1.2-.03-.25-.08-.46-.07-.51 0-.06.09.07.13.08.02 0 0-.09-.03-.15l-.18-.35-.04-.08a.6.6 0 0 0-.1.22c.03.04.05.06.05.14l.13 1c.05.3.14.85.16 1.25 0 .13-.02.22-.04.28-.04.08-.1.17-.34.33-.04-.24 0-.43-.03-.45-.04 0-.05.12-.05.26v.24c-.29.2-.67.38-.85.47-.11.06-.07.07.02.04.09-.03.58-.16.85-.3l.03-.01.05.13c.09.19.21.3.35.29.12-.01.2-.14.27-.28.08-.15.2-.44.33-.54l.14-.1s.08-.02.16.03c.03.01.05.04.06.07.03.07.07.15.14.22.13.13.34.1.5.03a.47.47 0 0 0 .27-.32c.06-.23.05-.47.04-.68l-.08-.74-.03-.33a11.58 11.58 0 0 0 .5.56c.04.4.06.89.08 1.1v.5c0 .05.03.04.06-.06.05-.13.08-.48.07-.72l-.04-.63.3.38c.14.17.26.38.3.5l.05.19c.01.02.05-.07.04-.22ZM12.99 12.8c-.02-.04-.06-.07-.1-.07-.05 0-.1.03-.1.06h-.46a.3.3 0 0 1 .01-.12h.93c.05.02.08.08.12.12H13Zm.6-.47h-1.1c.1-.06.12-.13.11-.22 0-.06-.06-.1-.13-.11h-.04c-.08 0-.14.07-.14.14v.02l.01.04a.3.3 0 0 1 0 .13H4c.12.18.35.34.59.34h7.54c-.1.06-.1.13-.1.22.01.07.09.12.17.1.09 0 .15-.06.14-.13v-.03h.44c.01.05.05.08.1.08.06 0 .1-.03.11-.08h.45c.1.07.22.11.34.11.12 0 .22-.08.22-.19v-.05c0-.2-.19-.37-.4-.37Z" fill="#fff"/></svg>