<!-- by TradingView --><svg width="18" height="18" viewBox="0 0 18 18" xmlns="http://www.w3.org/2000/svg"><path d="M0 0h18v18H0V0z" fill="#0D47A1"/><path d="M12.5 9L10 11.49a2.82 2.82 0 0 0 5 0L12.5 9z" fill="#FDD835"/><path d="M10 5v4.28c0 2.08 2.5 2.72 2.5 2.72s2.5-.64 2.5-2.72V5h-5z" fill="#4CAF50"/><path d="M13 6h-1v4h1V6z" fill="#F8F9FD"/><path d="M12 5h-1v1h1V5zM12 7h-1v1h1V7zM12 9h-1v1h1V9zM14 5h-1v1h1V5zM14 7h-1v1h1V7zM14 9h-1v1h1V9z" fill="#FDD835"/><path d="M9 4V0H0v9h4V6l3 3h2V7L6 4h3z" fill="#F8F9FD"/><path d="M3 1V0H1v1H0v2h1v6h2V3h6V1H3z" fill="#EF5350"/><path d="M9 8L5 4H4l5 5V8z" fill="#EF5350"/></svg>