<!-- by TradingView --><svg width="18" height="18" viewBox="0 0 18 18" xmlns="http://www.w3.org/2000/svg"><path fill="#2979FF" d="M0 0h18v18H0z"/><path d="m14.5 15 .5-2 1-2v-1l1-.5 1 .5V3h-2.59a1 1 0 0 0-.7.3L14 4h-1v1h3v1l-1 .5-1-.5h-2l-1 2v1.3c0 .38.32.7.7.7h.3l1 1v4h1.5ZM3.34 2H6.6a1 1 0 0 1 .7.3L8 3a1 1 0 0 1 1 1v1H7.41a1 1 0 0 0-.7.3L5.2 6.8a.7.7 0 0 1-.5.2.7.7 0 0 0-.71.7V9h1.76a1 1 0 0 1 .45.1l1.24.62a1 1 0 0 1 .55.9v1.14a1 1 0 0 1-.1.45L6 16H5v-2.59a1 1 0 0 0-.3-.7l-.4-.42a1 1 0 0 1-.3-.7V10L3 9H2a1 1 0 0 1-1-1V5H0V3h2l1.34-1Z" fill="#70DA4B"/></svg>