<!-- by TradingView --><svg width="18" height="18" viewBox="0 0 18 18" xmlns="http://www.w3.org/2000/svg"><path fill="#F0F3FA" d="M0 0h18v18H0z"/><path d="M4.92 8.02v-.04h.01v-.03a2.02 2.02 0 0 0 .02-.04V7.9l.01-.01v-.02h.01v-.01l.01-.02.01-.01V7.8H5l.01-.02.01-.01.01-.01v-.01l.01-.01.01-.01.01-.01.01-.02.01-.01.01-.02h.01v-.01h.01v-.02h.02v-.01l.02-.02V7.6h.01V7.6h.01l.01-.01v-.01l.02-.01.01-.01v-.01l.02-.01.01-.02h.01l.01-.01.02-.02.01-.01.01-.01v-.01h.02v-.02h.02v-.01l.01-.01.01-.01h.01l.01-.02h.01l.01-.01v-.01l.02-.01.02-.02.02-.01v-.01h.02V7.3h.02v-.01l.02-.01v-.01h.02v-.02h.02v-.01h.02v-.02h.02V7.2l.02-.01.01-.01h.01l.01-.02h.01l.02-.01v-.01h.02l.01-.02h.01l.02-.01V7.1l.02-.01h.01l.01-.02h.02v-.01l.02-.01.01-.01h.02v-.02h.02l.01-.01L5.9 7 5.9 7h.01l.02-.02.02-.01.01-.01H6v-.02h.02l.02-.01.01-.01.01-.01h.02l.01-.02h.02l.01-.01.01-.01.02-.01h.01l.01-.02h.02l.01-.01.02-.01.01-.01h.02l.01-.02h.02l.01-.01.01-.01h.02l.01-.02h.02l.01-.01.02-.01.01-.01h.02l.01-.02h.02l.01-.01.02-.01.01-.01h.02l.02-.02h.01l.02-.01.01-.01.02-.01h.01l.02-.02h.01l.02-.01.02-.01h.01v-.01h.02l.02-.02h.01l.02-.01.02-.01.01-.01h.02l.02-.02h.01l.02-.01.02-.01h.02l.01-.02h.02l.02-.01.02-.01.01-.01h.02l.02-.02H7l.01-.01.02-.01.02-.01h.01l.02-.02h.02l.02-.01.02-.01h.02l.01-.01.02-.01.02-.01h.02l.02-.01.02-.01.01-.01h.02l.02-.01.02-.01h.02l.02-.02h.02l.02-.01h.01l.02-.02h.02a15.24 15.24 0 0 0 .08-.03l.02-.01h.02l.02-.02h.02l.02-.01h.02l.01-.02a.5.5 0 0 1 .04-.01h.03l.02-.02h.02l.02-.01h.02l.02-.02h.02l.02-.01h.02l.02-.01.02-.01.02-.01H8L8.02 6 8.04 6l.02-.01h.02l.02-.01.02-.01h.02l.02-.02h.03l.02-.01h.02l.02-.02h.02l.02-.01h.02l.02-.02h.02l.02-.01h.03l.02-.02h.02l.02-.01h.02l.03-.02h.02l.02-.01h.02l.02-.02h.03l.02-.01h.02l.02-.02h.02l.03-.01h.02l.02-.01.02-.01.03-.01h.02l.02-.01.03-.01.02-.01h.02l.02-.01.03-.01H9l.02-.02h.03l.02-.01h.02l.02-.02h.03l.02-.01h.02l.03-.02h.02l.02-.01h.03l.02-.01.03-.01h.02l.02-.01.03-.01h.02l.03-.01.02-.01h.02l.03-.01.02-.01h.02l.03-.01h.02l.01-.01h.03l.02-.02h.05l.03-.02h.05l.02-.02h.05l.03-.02h.05l.02-.02h.05l.03-.02h.05l.02-.01.03-.01h.02l.03-.01.03-.01h.02l.03-.01.02-.01h.03l.02-.01.03-.01h.03l.02-.01.03-.01h.02l.03-.01.02-.01h.03l.03-.01.02-.01h.03l.03-.01.02-.01h.03l.03-.01.02-.01h.03l.03-.01h.02l.03-.01.03-.01h.02l.03-.01h.03l.02-.01h.03l.03-.01.02-.01h.03l.03-.01h.02l.03-.01h.03l.03-.02h.05l.03-.01h.03l.02-.01.03-.01h.03l.03-.01h.02l.03-.01h.03l.03-.01.02-.01h.03l.03-.01h.03l.03-.01a.45.45 0 0 0 .05-.01l.03-.01h.03l.03-.01h.03l.03-.01.02-.01h.03l.03-.01h.03l.03-.01h.03a.3.3 0 0 0 .02-.01l.03-.01h.03a1.6 1.6 0 0 0 .09-.02h.03l.02-.01h.03l.03-.01h.03l.03-.01h.03l.03-.01h.03l.03-.01h.03l.03-.01c.22-.03.38-.2.38-.4 0-.23-.2-.42-.46-.42l-.1.01a1.98 1.98 0 0 0-.12.02h-.03l-.03.01h-.03l-.03.01h-.03l-.03.01h-.03l-.03.01h-.03l-.02.01H12l-.03.01-.03.01h-.03l-.03.01h-.03l-.03.01h-.02l-.03.01-.03.01h-.03l-.03.01h-.03l-.03.01-.02.01h-.03l-.03.01h-.03l-.03.01h-.03l-.02.01a.44.44 0 0 0-.06.02h-.06l-.03.01h-.02l-.03.01-.03.01h-.03l-.02.01h-.03l-.03.01h-.03l-.02.02h-.06l-.03.01h-.02l-.03.01-.03.01h-.03l-.02.01h-.03l-.03.01h-.02l-.03.01-.03.01h-.02l-.03.01-.03.01h-.02l-.03.01-.03.01h-.02l-.03.01-.03.01h-.02l-.03.01-.03.01h-.02l-.03.01-.03.01h-.02l-.03.01h-.03l-.02.02h-.05l-.03.02h-.05l-.03.02h-.05l-.02.02H9.9l-.03.02h-.05l-.03.02h-.05l-.02.01-.03.01h-.02l-.03.01-.02.01h-.03l-.02.01-.03.01h-.02l-.03.01-.02.01h-.03l-.02.01-.03.01a.57.57 0 0 0-.08.02l-.03.01h-.02l-.03.01-.02.01h-.03l-.02.01-.03.01h-.02l-.02.01-.03.01h-.02L9 4.8H9l-.02.01h-.03l-.02.02H8.9l-.03.01h-.02l-.03.02H8.8l-.02.01h-.03l-.02.02H8.7l-.02.01h-.02l-.02.02H8.6l-.02.01h-.02l-.03.02h-.02l-.02.01h-.02l-.03.02h-.02L8.41 5h-.03L8.36 5l-.02.01-.02.01h-.03l-.02.01-.02.01h-.02l-.03.02h-.02l-.02.01h-.02l-.02.02h-.03l-.02.01h-.02l-.02.02H8l-.03.01h-.02l-.02.02h-.02l-.02.01h-.02a.53.53 0 0 0-.05.02l-.02.01H7.8l-.02.02h-.02l-.02.01H7.7l-.02.02h-.02l-.03.01h-.02l-.02.02h-.02l-.02.01h-.02a.5.5 0 0 0-.04.02l-.02.01h-.02l-.02.01-.02.01H7.4l-.02.02h-.02l-.02.01h-.02l-.02.02a.48.48 0 0 1-.04.01h-.02l-.02.02H7.2l-.02.01h-.02l-.02.02h-.02l-.02.01h-.02a39.38 39.38 0 0 0-.04.02l-.01.01L7 5.5l-.02.01h-.02l-.02.02h-.02l-.02.01-.02.01h-.02l-.01.02h-.02l-.02.01-.02.01-.02.01h-.02l-.01.02h-.02l-.02.01-.02.01-.02.01h-.02l-.01.02h-.02l-.02.01-.02.01-.01.01h-.02l-.02.02h-.02l-.01.01-.02.01h-.02c0 .01 0 .02-.02.02h-.01l-.02.01-.02.01-.02.01h-.01l-.02.02h-.02l-.01.01-.02.01-.01.01h-.02a.51.51 0 0 0-.08.05h-.02l-.01.01-.02.01-.01.01H6.1l-.02.02h-.01l-.02.01-.02.01h-.01L6 5.98H6l-.02.01-.01.01-.02.01h-.02l-.01.02h-.02l-.01.01-.02.01-.01.01h-.02l-.01.02H5.8l-.01.01-.02.01-.01.01h-.02l-.01.02H5.7l-.01.01-.02.01h-.01l-.02.02h-.01l-.02.01-.01.01-.01.01h-.02l-.01.02h-.02v.01l-.02.01-.02.01H5.5l-.01.02h-.02l-.01.01-.02.01v.01h-.02l-.02.02-.02.01-.01.01h-.02l-.01.02h-.01l-.02.01v.01l-.02.01h-.01l-.02.02h-.01l-.01.01-.01.01-.02.01-.02.02h-.01l-.01.01-.02.01v.01h-.02l-.01.02H5.1l-.02.01v.01h-.02l-.01.02h-.01l-.01.01-.01.01-.01.01a.5.5 0 0 0-.07.05h-.01l-.01.02H4.9v.01l-.02.01v.01h-.02v.02h-.02v.01l-.02.01v.01H4.8l-.01.02h-.01l-.01.01-.01.01-.01.01h-.01l-.01.02-.02.01v.01H4.7v.02h-.02v.01l-.01.01-.01.01h-.01l-.01.02h-.01v.01l-.02.01v.01H4.6l-.01.02h-.01v.01l-.02.01v.01h-.01l-.01.02h-.01V7L4.5 7l-.01.02-.02.01a.45.45 0 0 0-.05.07l-.02.01v.01H4.4v.02h-.02v.01l-.01.01-.01.02h-.01v.01l-.01.01v.01h-.02v.02l-.01.01-.01.01v.01h-.01v.02h-.01l-.01.01v.01l-.01.01-.01.02-.01.01v.01l-.01.01-.01.02a.38.38 0 0 0-.05.08v.01h-.01v.02h-.01v.01l-.01.01v.01h-.01v.02l-.01.01v.02H4.1v.02l-.01.01v.01l-.01.01v.02l-.01.01v.01a.34.34 0 0 0-.03.09v.01h-.01v.03h-.01v.05h-.01v.04L4 7.9 4 8V8.12l.01.09v.04h.01v.03l.01.01v.01l.03.08v.01l.01.01v.02h.01v.02h.01v.02h.01v.02h.01v.01l.01.01v.01l.01.01.04.07.01.01.01.01v.02h.01l.01.02h.01v.02h.01l.01.02h.01v.02h.02v.02h.01l.01.02h.01l.05.06.01.01.01.01.01.01.01.01v.01h.02v.02h.01l.01.01v.01h.02v.01l.01.01.01.01.01.01h.01v.01l.01.01h.01v.01l.02.01.01.01.01.01.02.01.01.02h.02c.02.03.04.04.06.05l.02.01v.01h.01l.01.01.02.01.02.02h.01l.01.01h.01l.01.01.01.01h.01l.01.01.02.01.02.01v.01h.02v.01h.02v.01h.02v.01l.02.01.02.01.02.01v.01H5L5 9.3h.01l.01.01h.01l.01.01.02.01.02.01.02.01h.01l.01.01.01.01h.01l.02.01.02.01.01.01.06.03h.01l.02.01.02.01h.01l.01.01.02.01.02.01h.01l.01.01h.02v.01l.02.01h.01l.02.01h.01l.01.01h.02v.01l.02.01h.01l.02.01.02.01.02.01.02.01h.02v.01h.02l.02.01.01.01h.01l.02.01h.01l.02.01.02.01h.02l.01.01h.01l.02.01h.01l.02.01h.01l.02.01h.01l.02.01h.01l.02.01h.01l.01.01h.02l.01.01H6l.01.01h.02l.01.01h.02l.01.01a.32.32 0 0 0 .03.01h.02l.02.01h.03l.01.01h.02l.01.01h.02a.29.29 0 0 1 .03.02h.03l.02.01h.01l.02.01h.02l.01.01h.02l.02.01h.01l.02.01h.02l.01.01h.02l.01.01h.02l.02.01h.01l.02.01a2.58 2.58 0 0 1 .07.02h.02l.02.01h.01l.02.01a.43.43 0 0 0 .04.01h.01l.02.01h.02l.02.01h.01l.02.01h.02l.02.01h.01l.02.01h.04l.01.01H7l.02.01h.02l.02.01h.03l.02.01h.02l.02.01h.03l.02.01h.02l.02.01h.04l.01.01h.02l.02.01h.02l.02.01h.04l.02.01h.02l.02.01h.03l.02.01h.02l.02.01h.02l.02.01h.04l.02.01h.02l.02.01h.04l.02.01h.02l.02.01h.04l.02.01h.02l.02.01h.02l.02.01h.04l.02.01H8l.02.01h.04l.02.01h.02l.02.01h.04l.02.01h.05l.02.01h.04l.02.01h.04l.02.01h.05l.02.01h.04l.02.01h.04l.03.01h.04l.02.01h.05l.02.01h.04l.02.01h.05l.02.01h.04l.03.01h.04l.02.01h.05l.02.01h.04l.03.01h.04l.03.01h.04l.02.01h.05l.02.01h.05l.02.01h.07l.02.01H9.56l.03.01h.07l.02.01h.08l.02.01h.07l.02.01h.08l.02.01h.07l.03.01h.07l.02.01h.07l.03.01h.05l.04.01H10.44l.03.01h.07l.02.01h.08l.02.01h.07l.03.01h.07l.03.01H10.98l.03.01H11.13l.03.01h.13l.02.01h.13l.03.01h.13l.02.01h.13l.03.01h.13l.02.01h.14l.02.01h.14l.02.01h.11c.08 0 .14-.05.14-.12 0-.07-.06-.12-.14-.12h-.08l-.03-.01h-.08l-.02-.01h-.08l-.03-.01h-.08l-.02-.01h-.08l-.03-.01h-.07l-.03-.01h-.07l-.03-.01h-.07l-.03-.01h-.08l-.02-.01h-.08l-.03-.01h-.07l-.03-.01h-.07l-.03-.01h-.07l-.03-.01h-.07l-.02-.01h-.05l-.03-.01h-.05l-.02-.01h-.05l-.03-.01h-.05l-.02-.01h-.05l-.03-.01h-.04l-.03-.01h-.04l-.03-.01h-.05l-.02-.01h-.05l-.02-.01h-.05l-.02-.01h-.05l-.02-.01h-.05l-.03-.01h-.04l-.03-.01h-.04l-.03-.01h-.04l-.03-.01H9.8l-.02-.01h-.03l-.02-.01h-.05l-.02-.01h-.02l-.02-.01h-.03l-.02-.01h-.05l-.02-.01h-.02l-.03-.01h-.04l-.02-.01h-.03l-.02-.01h-.02l-.02-.01h-.05l-.02-.01h-.02l-.02-.01h-.05l-.02-.01H9.1l-.02-.01h-.05L9.01 10H9L8.97 10h-.02l-.03-.01h-.04l-.02-.01h-.02l-.02-.01h-.04l-.03-.01h-.02l-.02-.01h-.04l-.02-.01h-.02l-.02-.01h-.02l-.03-.01h-.02l-.02-.01H8.5l-.02-.01a.74.74 0 0 0-.04-.01h-.02l-.02-.01h-.02l-.02-.01h-.02l-.02-.01H8.3l-.02-.01h-.02l-.02-.01a.67.67 0 0 0-.04-.01h-.02a.67.67 0 0 0-.04-.02H8.1l-.02-.01h-.03l-.02-.01h-.01L8 9.77h-.02l-.02-.01h-.02l-.02-.01H7.9l-.02-.01h-.02l-.02-.01h-.02l-.02-.01h-.02l-.01-.01h-.02l-.02-.01H7.7l-.02-.01h-.02l-.02-.01h-.02l-.02-.01h-.02l-.02-.01h-.02l-.02-.01h-.02l-.01-.01h-.02l-.02-.01h-.02l-.02-.01H7.4l-.01-.01h-.02l-.02-.01h-.02l-.01-.01H7.3l-.02-.01-.02-.01h-.01l-.02-.01h-.02l-.02-.01h-.01l-.02-.02h-.03l-.02-.01h-.02l-.02-.01-.01-.01h-.02l-.02-.01h-.01l-.02-.01h-.02l-.01-.01-.02-.01h-.02l-.01-.01h-.02l-.02-.01h-.01l-.02-.02h-.03l-.02-.01h-.01l-.02-.01-.02-.01h-.01l-.02-.01H6.7l-.02-.01h-.01l-.02-.01-.02-.01h-.01l-.02-.01H6.6l-.02-.01h-.01l-.02-.01-.01-.01H6.5L6.5 9.3h-.02l-.01-.01-.02-.01h-.01l-.02-.01h-.01l-.02-.01h-.01l-.02-.01-.01-.01h-.02l-.01-.01H6.3l-.01-.01h-.01l-.02-.01-.01-.01h-.02l-.01-.01h-.01l-.02-.01-.01-.01h-.02v-.01h-.02l-.02-.01-.01-.01H6.1l-.02-.01-.01-.01h-.02v-.01l-.02-.01h-.01L6 9.1 6 9.09h-.01l-.01-.01h-.01l-.02-.01v-.01h-.02l-.01-.01-.02-.01-.02-.01-.01-.01h-.01L5.84 9 5.82 9l-.02-.01h-.01l-.01-.02h-.02l-.02-.02h-.02l-.01-.02h-.03V8.9h-.02l-.02-.02h-.02l-.01-.02h-.02l-.02-.02h-.02v-.01l-.02-.01-.02-.01V8.8h-.02V8.8l-.02-.01-.02-.01v-.01h-.02v-.01l-.02-.01-.02-.01v-.01h-.01l-.01-.01-.01-.01h-.01V8.7h-.02v-.02H5.3v-.02h-.02l-.01-.01-.01-.01h-.01v-.01l-.02-.01-.01-.01V8.6H5.2v-.01l-.01-.01-.02-.01v-.01h-.01v-.01l-.01-.01h-.01l-.01-.01v-.01h-.01l-.01-.01V8.5H5.1v-.01l-.02-.01v-.01l-.01-.01-.01-.01v-.01h-.01v-.01l-.01-.01h-.01V8.4h-.01v-.02h-.01L5 8.36 5 8.34h-.01v-.01l-.01-.02h-.01V8.3h-.01v-.02h-.01v-.02l-.01-.01v-.03h-.01v-.03l-.01-.01V8.01Z" fill="#0C0D1D"/><path d="M4.92 8.85V8.8l.01-.01v-.03l.01-.01v-.01a1.5 1.5 0 0 1 .02-.03V8.7h.01v-.02h.01v-.02H5v-.01L5 8.63v-.01h.01V8.6h.01V8.6h.01v-.02h.01v-.01h.01l.01-.02a.9.9 0 0 0 .02-.03l.01-.01h.01v-.02h.01v-.01h.02v-.02l.02-.01v-.01l.01-.01.01-.01h.01V8.4h.02v-.01h.01v-.02h.02v-.01l.01-.01h.01l.01-.02.02-.01.01-.02h.01v-.01l.02-.01v-.01h.02v-.02h.01l.01-.01.01-.01.01-.01h.01l.01-.02.02-.01v-.01l.02-.01.02-.02.02-.01v-.01l.02-.01.02-.02.02-.01v-.01h.02v-.02h.02v-.01h.02v-.02h.02l.01-.01.01-.01.01-.01h.01l.02-.02.02-.01.01-.01.01-.01h.02v-.02h.02l.01-.01.01-.01h.02v-.02h.02l.01-.01.02-.01v-.01h.02l.01-.02h.02l.01-.01.01-.01.02-.01.02-.02h.01L6 7.78v-.01l.02-.01h.02l.01-.02h.01l.02-.01.01-.01h.02l.01-.02h.01l.02-.01.01-.01.01-.01h.02l.01-.02h.02l.01-.01.02-.01.01-.01h.02l.01-.02h.01l.02-.01.01-.01.02-.01h.01l.02-.02h.01l.02-.01.01-.01h.02l.01-.02h.02l.01-.01.02-.01.02-.01h.01l.02-.02h.01l.02-.01.01-.01.02-.01h.01l.02-.02h.02l.01-.01.02-.01.02-.01h.01l.02-.02h.02l.01-.01.02-.01.02-.01h.01l.02-.02h.02l.02-.01.01-.01.02-.01h.02l.02-.02h.01l.02-.01.02-.01H7l.01-.02h.02l.02-.01.01-.01.02-.01h.02l.02-.02h.02l.02-.01h.01l.02-.02h.02l.02-.01h.02l.02-.02h.01l.02-.01h.02l.02-.02h.02l.02-.01a9.83 9.83 0 0 0 .04-.02h.01l.02-.01h.02l.02-.02a9.83 9.83 0 0 1 .04-.01h.02L7.58 7l.02-.01.02-.01h.02l.02-.01.02-.01h.01a.48.48 0 0 1 .04-.02l.03-.01h.02l.02-.02h.02l.02-.01h.02l.02-.02h.02l.02-.01h.02l.02-.02h.02L8 6.84h.02l.02-.02h.02l.02-.01h.02l.02-.02h.02l.02-.01h.03l.02-.02h.02l.02-.01h.02l.02-.02h.02l.02-.01h.02l.02-.01.03-.01.02-.01h.02l.02-.01.02-.01h.03l.02-.02h.02l.02-.01h.02l.03-.02h.02l.02-.01h.02l.02-.02h.03l.02-.01h.02l.02-.02h.03l.02-.01h.02l.03-.02h.02l.02-.01h.02l.03-.02H9l.02-.01h.03l.02-.02h.02l.02-.01h.03l.02-.02h.02l.03-.01h.02l.02-.01.03-.01h.02l.03-.01.02-.01h.02l.03-.01.02-.01h.03l.02-.01.02-.01h.03l.02-.01.02-.01h.03l.02-.01h.01l.03-.01.02-.01h.03l.02-.01.03-.01h.02l.03-.01h.02l.03-.02h.05l.02-.02h.05L10 6.2h.05l.02-.02h.05l.03-.02h.05l.03-.02h.05l.02-.01.03-.01h.02l.03-.01.03-.01h.02l.03-.01.02-.01h.03l.02-.01.03-.01h.03l.02-.01.03-.01h.03l.02-.01.03-.01h.03l.02-.01.03-.01h.03l.02-.01h.03l.03-.01h.02l.03-.02H11l.03-.01h.03l.02-.01.03-.01h.03l.02-.01h.03l.03-.01h.03l.02-.01.03-.01h.03l.03-.01h.02l.03-.01h.03l.03-.02h.05l.03-.01h.03l.02-.01.03-.01h.03l.03-.01h.03a.45.45 0 0 0 .05-.02h.03l.03-.01h.03l.03-.01h.03l.02-.01h.03l.03-.01.03-.01h.03l.03-.01h.02l.03-.01.03-.01a1.61 1.61 0 0 0 .06-.01h.03l.03-.01h.05l.03-.01h.03l.03-.01h.03l.03-.01h.03l.03-.01h.03l.03-.01c.22-.04.38-.2.38-.41 0-.23-.2-.41-.46-.41h-.1a1.98 1.98 0 0 0-.1.02h-.02l-.03.01h-.03l-.03.01h-.03l-.03.01h-.03l-.03.01h-.03l-.03.01h-.02l-.03.01-.03.01h-.03l-.03.01h-.03l-.03.01h-.03l-.02.02h-.06l-.03.01h-.03l-.03.01-.03.01h-.02l-.03.01h-.03l-.03.01h-.03l-.03.01-.02.01h-.03l-.03.01h-.03l-.03.01h-.03l-.02.02h-.06l-.03.01h-.02l-.03.01-.03.01h-.03l-.02.01H11l-.03.01h-.03l-.02.01-.03.01h-.03l-.03.01h-.02l-.03.01h-.03l-.02.02h-.06l-.02.01-.03.01h-.03l-.02.01-.03.01h-.03l-.02.01h-.03l-.03.02h-.05l-.03.02h-.05l-.03.02h-.05l-.03.02h-.05l-.02.02h-.05l-.03.02H10l-.03.02h-.05l-.02.01-.03.01h-.03l-.02.01-.03.01h-.02l-.03.01-.02.01h-.03l-.02.01-.03.01h-.02l-.03.01-.02.01h-.03l-.02.01-.03.01h-.02l-.03.01-.02.01h-.03a.57.57 0 0 0-.08.03h-.03l-.02.01-.03.01h-.02l-.03.01-.02.01h-.03l-.02.01-.02.01h-.03l-.02.02H9L9 5.63h-.02l-.03.02h-.02l-.02.01h-.03l-.02.01-.03.01-.02.01h-.02l-.03.01-.02.01-.03.01h-.02l-.02.01-.02.01H8.6l-.02.02h-.02l-.03.01h-.02l-.02.02h-.02l-.03.01h-.02l-.02.02h-.03l-.02.01h-.02l-.02.02h-.03l-.02.01h-.02l-.02.02H8.2l-.02.01h-.02l-.02.02h-.02l-.03.01h-.02a18.7 18.7 0 0 1-.04.02L8 5.95h-.03l-.02.01-.02.01-.02.01H7.9L7.88 6a.53.53 0 0 0-.05.02h-.02l-.02.01-.02.01h-.02l-.02.02H7.7l-.02.01h-.02l-.03.02h-.02l-.02.01h-.02l-.02.02a.49.49 0 0 0-.04.01.48.48 0 0 0-.04.02.5.5 0 0 0-.04.01h-.02l-.02.02h-.02l-.02.01h-.02l-.02.02H7.3l-.02.01h-.02l-.02.02h-.02l-.02.01h-.02l-.02.01-.02.01-.02.01a39.38 39.38 0 0 1-.15.06l-.02.01-.02.01H6.9l-.02.02h-.02l-.01.01-.02.01-.02.01H6.8l-.02.02h-.02l-.01.01-.02.01-.02.01h-.02l-.02.02h-.02l-.01.01-.02.01H6.6l-.02.02h-.01l-.02.01-.02.01-.02.01H6.5l-.02.02h-.02l-.02.01-.01.01-.02.01h-.02l-.02.02h-.01l-.02.01-.02.01-.01.01h-.02l-.01.02h-.02a.51.51 0 0 0-.08.04l-.02.01h-.01l-.02.02h-.01l-.02.01-.02.01-.01.01h-.02l-.02.02h-.01L6 6.8 6 6.8l-.02.01h-.01l-.02.02h-.02l-.01.01-.02.01-.01.01h-.02l-.01.02h-.02l-.01.01-.02.01H5.8l-.02.02h-.01l-.02.01-.01.01-.02.01H5.7l-.02.02h-.01l-.02.01-.01.01-.02.01a.34.34 0 0 0-.04.02l-.01.01-.02.01v.01h-.02l-.02.02H5.5l-.01.01-.02.01h-.01l-.02.02-.02.01-.02.01v.01h-.02l-.01.02h-.02l-.01.01-.01.01-.02.01-.02.02h-.01l-.02.01-.01.01-.01.01h-.01l-.02.02-.02.01-.01.01h-.01l-.02.02-.02.01-.01.01-.01.01h-.02v.02h-.02l-.01.01-.01.01-.01.01h-.01l-.01.02a.49.49 0 0 0-.07.05h-.01l-.01.01-.02.01v.01h-.02v.02h-.02v.01l-.02.01v.01h-.02v.02H4.8l-.01.01-.01.01h-.01l-.01.02h-.01l-.01.01-.01.01v.01h-.02v.02H4.7v.01a2.28 2.28 0 0 0-.02.02h-.01a2.28 2.28 0 0 1-.02.02l-.01.01-.01.01v.01H4.6v.02H4.6l-.01.01-.01.01-.02.02-.01.01-.01.01-.01.01-.02.02-.01.01v.01l-.02.01a.45.45 0 0 0-.05.06v.01H4.4v.02H4.4v.01l-.02.01-.01.02-.01.01-.01.01v.01h-.01v.02h-.02v.02l-.01.01a.16.16 0 0 1-.02.02v.01l-.01.01-.01.01-.01.02-.01.01v.01h-.01v.02h-.01v.01l-.01.01v.01a.37.37 0 0 0-.05.07v.02h-.01v.01l-.01.01v.01h-.01v.02h-.01v.02l-.01.01v.02H4.1v.02H4.1v.02h-.01v.03h-.01v.02a.34.34 0 0 0-.03.08v.02h-.01v.02l-.01.02v.03l-.01.01v.04L4 8.72l-.01.1V8.95a.38.38 0 0 0 .01.1v.03h.01v.03l.01.02v.01l.03.08v.01h.01v.02l.01.01v.01l.01.01v.01l.01.01v.01l.01.01.01.02.01.02.04.06.01.02h.01v.02h.01v.02h.01l.01.02h.01v.02h.01l.01.02h.01l.01.01v.01h.01v.01l.01.01.01.01.05.06h.01v.01l.01.01h.01v.01l.01.01.02.01v.01l.01.01.01.01.02.01v.01h.01v.01l.01.01h.01l.01.01v.01h.01l.01.01.02.02h.01l.01.02h.02v.02h.02l.01.02.06.04.02.01.01.01h.01v.01l.02.01.02.01.01.01h.01l.01.01.01.01h.01l.01.01h.01v.01h.02v.01l.02.01.02.01.02.01v.01h.02v.01h.02v.01h.02v.01l.02.01.02.01H5l.01.01h.01l.01.01.01.01h.02v.01h.02v.01h.02l.01.02h.02l.01.01h.02v.01l.02.01h.01l.06.04h.03v.01h.02l.01.01.01.01h.02v.01h.02l.01.01h.01l.02.01v.01h.02l.01.01h.02l.01.01.01.01h.02v.01h.02l.01.01h.02v.01l.02.01h.02v.01h.02l.02.01.02.01.02.01h.01l.01.01h.02l.01.01h.02v.01h.02l.02.01h.01l.01.01h.02l.01.01h.02l.01.01h.02l.01.01h.02l.01.01h.02l.01.01h.01l.02.01h.01l.02.01H6l.02.01h.01l.02.01h.01l.02.01h.01l.02.01h.02l.01.01h.02l.01.01h.02l.01.01h.02l.02.01h.01l.02.01h.01l.02.01h.01l.02.01h.02l.01.01h.02l.02.01h.01l.02.01h.02l.01.01h.02l.01.01h.02l.02.01h.01l.02.01h.02l.05.02h.02l.02.01h.01l.02.01h.02l.02.01a.43.43 0 0 0 .03.01h.02l.02.01h.01l.02.01h.04l.01.01h.02l.02.01h.03l.02.01h.02l.02.01h.02l.01.01h.04l.02.01h.02l.02.01h.03l.02.01h.02l.02.01h.02l.01.01h.04l.02.01h.02l.02.01h.04l.02.01h.02l.01.01h.04l.02.01h.02l.02.01h.02l.02.01h.04l.02.01h.02l.02.01h.04l.02.01h.02l.02.01h.02l.02.01h.04l.02.01h.02l.02.01h.04l.02.01h.02l.02.01h.04l.02.01h.02l.02.01h.04l.03.01h.04l.02.01h.04l.02.01h.04l.03.01h.04l.02.01h.04l.02.01h.05l.02.01h.04l.02.01h.05l.02.01h.04l.03.01h.04l.02.01h.05l.02.01h.04l.02.01h.07l.02.01h.05l.02.01h.05l.02.01h.05l.02.01h.05l.02.01h.04l.03.01h.07l.02.01h.07l.02.01h.07l.03.01h.07l.02.01h.07l.03.01h.07l.02.01h.08l.02.01h.07l.03.01h.07l.02.01H10.37l.02.01h.08l.02.01h.07l.03.01h.07l.02.01h.08l.02.01h.1l.03.01H11.03l.03.01h.13l.02.01h.13l.02.01h.13l.03.01h.13l.02.01h.14l.02.01h.13l.03.01h.13l.03.01h.13l.03.01h.05c.08 0 .14-.05.14-.12 0-.07-.06-.13-.14-.13h-.13l-.03-.01h-.08l-.03-.01h-.08l-.02-.01h-.08l-.03-.01h-.07l-.03-.01h-.07l-.03-.01h-.1l-.02-.01h-.08l-.03-.01h-.07l-.03-.01h-.08l-.02-.01h-.08l-.02-.01h-.08l-.02-.01H11l-.03-.01h-.04l-.03-.01h-.05l-.02-.01h-.08l-.02-.01h-.05l-.03-.01h-.05l-.02-.01h-.05l-.02-.01h-.05l-.02-.01h-.05l-.03-.01h-.04l-.03-.01h-.04l-.03-.01h-.05l-.02-.01h-.05l-.02-.01h-.05l-.02-.01h-.05L9.94 11h-.05l-.02-.01h-.05l-.02-.01h-.02l-.03-.01h-.04l-.03-.01h-.02l-.02-.01h-.02l-.03-.01h-.04l-.03-.01H9.5l-.02-.01h-.05l-.02-.01h-.02l-.03-.01h-.04l-.02-.01h-.02l-.03-.01h-.02l-.02-.01h-.04l-.03-.01h-.02l-.02-.01h-.04l-.03-.01h-.02L9 10.82h-.02l-.02-.01H8.9l-.02-.01h-.02l-.02-.01H8.8l-.02-.01h-.03l-.02-.01H8.7l-.02-.01h-.02l-.02-.01H8.6l-.02-.01h-.03l-.02-.01h-.02l-.02-.01h-.02l-.02-.01h-.02l-.02-.01H8.4l-.02-.01h-.02l-.02-.01h-.02l-.02-.01h-.02l-.02-.01h-.02l-.02-.01H8.2l-.02-.01h-.02l-.02-.01h-.02l-.02-.01h-.02l-.03-.01h-.02l-.01-.01H8l-.02-.01h-.02l-.02-.01h-.02l-.02-.01h-.02l-.02-.01h-.02l-.02-.01H7.8l-.02-.01h-.01l-.02-.01H7.7l-.02-.01h-.02l-.02-.01h-.02v-.01H7.6l-.02-.01h-.02l-.02-.01h-.02l-.02-.01H7.5l-.02-.01h-.02l-.02-.01h-.02l-.02-.01H7.4l-.02-.01h-.02l-.02-.01h-.01l-.02-.01h-.02l-.02-.01-.01-.01h-.02l-.02-.01H7.2l-.01-.01h-.02l-.02-.01-.01-.01H7.1l-.02-.01h-.02l-.01-.01h-.02l-.02-.02H7l-.02-.01h-.01l-.02-.01-.02-.01h-.01l-.02-.01h-.02l-.01-.01h-.02l-.02-.01-.01-.01h-.02l-.01-.01h-.02l-.02-.01h-.01l-.02-.02h-.03l-.01-.01h-.02l-.02-.01-.01-.01H6.6l-.01-.01h-.02l-.01-.01h-.02l-.01-.01-.02-.01H6.5l-.02-.01h-.01l-.02-.01h-.01l-.02-.01-.01-.01h-.02l-.01-.01h-.02l-.01-.01-.02-.01h-.01l-.02-.01H6.3l-.01-.01h-.02l-.01-.01-.02-.01h-.01l-.01-.01h-.02L6.18 10h-.02V10l-.02-.01h-.02l-.01-.01-.01-.01h-.02l-.01-.01-.02-.01-.02-.01-.01-.01H6L6 9.91l-.01-.01h-.01l-.01-.01h-.02v-.01l-.02-.01H5.9l-.02-.01v-.01h-.02l-.01-.01-.01-.01h-.01l-.02-.01v-.01H5.8l-.01-.01-.01-.01h-.02v-.01l-.02-.01h-.01l-.01-.01H5.7l-.01-.02h-.02l-.02-.02h-.02l-.01-.02H5.6l-.01-.02h-.03v-.02h-.02l-.02-.02H5.5v-.02h-.02l-.02-.01V9.6h-.02V9.6l-.02-.01-.02-.01v-.01h-.02v-.01l-.01-.01h-.01l-.01-.01h-.01v-.02h-.02l-.01-.02H5.3l-.02-.02h-.01l-.01-.02h-.01l-.02-.02h-.01v-.01l-.02-.01-.01-.01V9.4h-.02v-.01l-.01-.01-.01-.01-.01-.01h-.01v-.01l-.01-.01h-.01v-.01l-.01-.01-.02-.01V9.3l-.01-.01v-.01h-.01v-.01l-.01-.01-.01-.01-.01-.01-.01-.01v-.01h-.01V9.2L5 9.2v-.01H5v-.02h-.01v-.01h-.01v-.02h-.01v-.02h-.01V9.1h-.01v-.02h-.01v-.03l-.01-.01v-.02L4.91 9V8.85Z" fill="#0433FF"/><path d="M4.92 9.68v-.04l.01-.02v-.03h.01v-.02h.01v-.02l.01-.01v-.01l.01-.01V9.5h.01v-.01H5v-.02L5 9.46l.01-.01v-.01h.01v-.02h.01V9.4h.01v-.02h.01l.01-.01a1.8 1.8 0 0 1 .01-.02 1.6 1.6 0 0 0 .02-.02l.01-.01v-.01h.01V9.3h.02v-.01l.02-.01v-.02h.01l.01-.02h.01v-.01h.02V9.2h.01V9.2h.02v-.02h.01l.01-.01.01-.01.02-.02.01-.01.01-.01.02-.02.02-.01v-.01l.01-.01h.01l.01-.02h.01l.01-.01.01-.01v-.01h.02V9h.02v-.01l.02-.01v-.01h.02v-.02h.02v-.01l.02-.01.02-.02.02-.01v-.01h.02v-.02h.02v-.01l.02-.01h.01l.01-.02h.01l.01-.01.02-.01V8.8h.02l.01-.02h.01l.02-.01v-.01l.02-.01h.01l.01-.02h.02v-.01l.02-.01h.01l.02-.02.02-.01.01-.01.02-.01h.01l.01-.02h.02v-.01l.02-.01.01-.01H6v-.02h.02l.02-.01.01-.01.01-.01h.02l.01-.02h.02l.01-.01.01-.01h.02l.01-.02h.01l.02-.01.01-.01.02-.01h.01l.02-.02h.01l.02-.01.01-.01.01-.01h.02l.01-.02h.02l.01-.01.02-.01.01-.01h.02l.01-.02h.02l.01-.01.02-.01h.01l.02-.02h.02l.01-.01.02-.01.01-.01h.02l.01-.02h.02l.01-.01.02-.01.02-.01h.01l.02-.02h.02l.01-.01.02-.01.02-.01h.01l.02-.02h.02l.01-.01.02-.01.02-.01h.02l.01-.02h.02l.02-.01.02-.01.01-.01h.02l.02-.02H7l.01-.01.02-.01h.02l.01-.02h.02L7.11 8 7.13 8h.02l.02-.02h.01l.02-.01h.02l.02-.02h.02l.02-.01h.01l.02-.02h.02a.39.39 0 0 0 .04-.02h.02l.02-.01.02-.01h.01l.02-.02h.02l.02-.01h.02l.02-.02a4.22 4.22 0 0 0 .1-.03l.02-.01h.02l.01-.01.02-.01h.02l.03-.02h.02l.02-.01h.02l.02-.02h.02l.02-.01h.02l.02-.02h.02l.02-.01h.02L8 7.65h.02l.02-.01h.02l.02-.02h.02l.02-.01h.02l.02-.02h.03l.02-.01a.47.47 0 0 0 .04-.02.47.47 0 0 0 .04-.01.53.53 0 0 0 .04-.01.58.58 0 0 0 .04-.02h.03l.02-.01.02-.01a5.7 5.7 0 0 1 .04-.02h.03l.02-.01h.02l.02-.02h.02l.03-.01h.02l.02-.02h.02l.02-.01h.03l.02-.02h.02l.02-.01h.03l.02-.02h.02l.03-.01h.02l.02-.02h.02l.03-.01H9l.02-.02h.03l.02-.01h.02l.02-.02h.03l.02-.01h.02l.03-.01.02-.01h.02l.03-.02h.05l.02-.02h.05l.02-.02h.05l.02-.02h.05l.02-.01.03-.01h.02l.01-.01h.03l.02-.01.03-.01h.02l.03-.01.02-.01h.03l.02-.01.03-.01h.02l.03-.01.02-.01h.03l.02-.01.03-.01h.02l.03-.01.02-.01h.03l.02-.01.03-.01h.02l.03-.01.03-.01h.02l.03-.01.02-.01h.03l.02-.01.03-.01h.03l.02-.01.03-.01h.02l.03-.01h.02l.03-.02h.05l.03-.02h.05l.03-.02h.05l.03-.02h.05l.03-.01h.03l.02-.01.03-.01h.03l.02-.01h.03l.03-.01h.02l.03-.01.03-.01h.02l.03-.01h.03l.03-.01.02-.01h.03l.03-.01h.03l.02-.01h.03l.03-.01.03-.01h.02l.03-.01h.03l.03-.01h.02l.03-.01.03-.01h.03l.03-.01a.44.44 0 0 0 .05-.01l.03-.01h.03l.03-.01h.03l.03-.01h.02l.03-.01a.3.3 0 0 0 .03-.01h.03l.03-.01h.03l.02-.01h.03l.03-.01a1.52 1.52 0 0 0 .09-.02h.03l.02-.01h.06l.03-.01h.03l.03-.01h.03l.03-.01h.03l.03-.01h.03c.22-.04.38-.21.38-.42 0-.22-.2-.4-.46-.4h-.13a1.96 1.96 0 0 0-.06.02h-.06l-.03.01h-.03l-.03.01h-.03l-.03.01h-.03l-.03.01h-.03l-.02.01-.03.01h-.03l-.03.01h-.03a.3.3 0 0 0-.03.01h-.03l-.03.01-.02.01a.3.3 0 0 0-.03 0l-.03.01h-.03l-.03.01h-.03l-.03.01-.02.01h-.03l-.03.01h-.03l-.03.01-.03.01h-.02a.45.45 0 0 0-.06.02h-.06l-.03.01-.02.01h-.03l-.03.01h-.03l-.02.01h-.03l-.03.01-.03.01h-.02l-.03.01h-.03l-.03.01-.02.01h-.03l-.03.01h-.03l-.02.01h-.03l-.03.01-.02.01h-.03l-.03.01h-.02l-.03.01-.03.01h-.02l-.03.01-.03.01h-.02l-.03.01-.03.01h-.02l-.03.01-.03.01h-.02l-.03.01-.03.01h-.02l-.03.01-.03.01h-.02l-.03.01-.02.01h-.03l-.02.01-.03.01h-.03l-.02.01-.03.01h-.02l-.03.01-.02.01h-.03l-.03.01-.02.01h-.03l-.02.01-.03.01h-.02l-.03.01h-.02l-.03.02H9.6l-.02.02h-.05l-.03.02h-.05l-.02.02h-.03a.57.57 0 0 0-.08.03h-.05l-.03.02h-.05l-.02.02H9.1l-.02.02h-.03l-.02.01H9L9 6.47h-.02l-.03.01h-.02l-.02.01-.03.01-.02.01h-.03l-.02.01-.02.01-.03.01h-.02l-.03.01-.02.01h-.02l-.02.02H8.6l-.02.01h-.02l-.03.02h-.02l-.02.01h-.02l-.03.02h-.02l-.02.01h-.03l-.02.02h-.02l-.02.01h-.03l-.02.02h-.02l-.02.01H8.2l-.02.02h-.02l-.02.01h-.02l-.03.02h-.02l-.02.01h-.02L8 6.78l-.03.01-.02.01h-.02a18.98 18.98 0 0 1-.13.05H7.8l-.02.02h-.02l-.02.01H7.7l-.02.02h-.02l-.03.01h-.02l-.02.02h-.02l-.02.01h-.02l-.02.02a.5.5 0 0 0-.04.01.48.48 0 0 0-.04.02h-.02L7.4 7h-.02l-.02.02h-.02l-.02.01H7.3a.47.47 0 0 1-.04.02l-.02.01h-.02a39.38 39.38 0 0 1-.04.02l-.02.01h-.02l-.02.01-.02.01-.02.01h-.02l-.02.02h-.01L7 7.14l-.02.01h-.02l-.02.02h-.02l-.02.01-.02.01-.02.01h-.01l-.02.02h-.02l-.02.01-.02.01-.02.01h-.01l-.02.02H6.7l-.02.01-.02.01-.02.01h-.01l-.02.02H6.6l-.02.01-.01.01h-.02l-.02.02h-.02l-.01.01-.02.01-.02.01h-.02l-.01.02H6.4l-.02.01-.02.01-.01.01h-.02l-.02.02h-.01l-.02.01-.01.01-.02.01a.51.51 0 0 0-.08.04h-.02l-.01.01-.02.01-.01.01H6.1l-.02.02h-.01l-.02.01-.02.01-.01.01H6L6 7.64h-.02l-.01.01-.02.01-.02.01h-.01l-.02.02h-.01l-.02.01-.01.01h-.02l-.01.02H5.8l-.01.01-.02.01-.01.01h-.02l-.01.02H5.7l-.01.01-.02.01-.01.01h-.02l-.01.02h-.02a.34.34 0 0 0-.04.03h-.01l-.02.02-.02.01-.02.01H5.5l-.01.02h-.02l-.01.01-.02.01v.01h-.02l-.02.02-.02.01-.01.01-.02.01h-.01l-.01.02H5.3v.01l-.02.01-.01.01h-.02l-.01.02h-.01l-.01.01-.02.01-.02.02h-.01l-.01.01-.02.01v.01h-.02l-.01.02H5.1l-.02.01v.01l-.02.01h-.01l-.01.02h-.01l-.01.01-.01.01a.5.5 0 0 0-.07.05l-.01.01h-.01l-.02.02-.02.01v.01l-.02.01-.02.02-.02.01v.01H4.8l-.01.02h-.01l-.01.01-.01.01-.01.01h-.01l-.01.02-.02.01v.01l-.02.01-.02.02a1.7 1.7 0 0 0-.01.01l-.01.01a2.28 2.28 0 0 1-.02.02h-.01v.01l-.02.01v.01H4.6l-.01.02h-.01v.01l-.02.01v.01h-.01l-.01.02h-.01v.01l-.02.01v.01H4.5v.02h-.02a.45.45 0 0 0-.05.07l-.02.01v.01H4.4v.02h-.02v.01l-.01.01v.01h-.01l-.01.02-.01.01v.01l-.02.01v.02H4.3l-.01.01v.01l-.01.01-.01.02h-.01v.01l-.01.01-.01.02-.01.01V9l-.01.01-.01.02a.37.37 0 0 0-.05.08v.01l-.01.01-.01.02-.01.01v.01l-.01.01v.02h-.01v.02l-.01.01v.02H4.1v.01l-.01.01v.02l-.01.01v.01a.34.34 0 0 0-.03.09v.01l-.01.01v.02l-.01.01v.03l-.01.01v.04L4 9.56 4 9.64V9.78l.01.09v.04h.01v.03l.01.01v.02l.03.07v.02h.01v.02h.01v.02h.01v.02h.01v.02h.01v.01l.01.01v.01l.01.01.04.07.01.01.01.01v.01l.01.01v.01h.01v.01l.01.01.01.01v.01h.01v.01l.01.01.01.01.01.01.01.01v.01h.01v.01h.01l.05.07h.01l.01.02h.01l.01.02h.02v.02h.01l.01.02h.02v.01l.01.01.01.01.01.01h.01v.01l.01.01h.01v.01l.02.01.01.01.01.01.02.01v.01h.01l.01.01.01.01.06.04v.01h.02v.01h.01l.01.01.02.01v.01h.02v.01h.01l.01.01h.01l.01.02h.02l.01.01.02.01v.01h.02v.01h.02v.01h.02v.01l.02.01.02.01.02.01.02.02H5l.01.01h.01l.01.01.01.01h.01l.02.01.02.01.02.01.01.01h.01l.01.01h.01l.02.01.02.01.01.01.06.03h.01l.02.01.02.01h.01l.01.02h.02l.02.01h.01l.01.01.02.01.02.01h.01l.02.01h.01l.01.01.02.01.02.01h.01l.02.01.02.02h.02l.02.01h.02v.01l.02.01h.02l.01.01h.01l.02.01h.01l.02.01.02.01h.02l.01.01h.01l.02.01h.01l.02.01h.01l.02.01h.01l.02.01h.01l.02.01h.01l.01.01h.02l.01.01H6l.01.01h.02l.01.01h.02l.01.01h.02l.01.01h.02a.33.33 0 0 0 .03.02h.03l.02.01h.01l.02.01h.02l.01.01h.02l.01.01h.02l.01.01h.02l.02.01h.01l.02.01h.02l.01.01h.02l.02.01h.01l.02.01h.01l.02.01h.02l.01.01h.02l.02.01.05.02h.04l.01.01a.43.43 0 0 0 .04.01h.02l.01.01h.02l.02.01h.02a.44.44 0 0 0 .03.01l.02.01h.03l.02.01h.02l.02.01h.03l.02.01h.02l.02.01h.03l.02.01h.02l.02.01h.02l.01.01h.04l.02.01h.02l.02.01h.03l.02.01h.02l.02.01h.04l.02.01h.02l.02.01h.01l.02.01h.04l.02.01h.02l.02.01h.04l.02.01h.02l.02.01h.02l.02.01h.04l.02.01h.02l.02.01h.04l.02.01h.02l.02.01h.04l.02.01H8l.02.01h.02l.02.01h.04l.02.01h.04l.02.01h.05l.02.01h.04l.02.01h.04l.02.01h.05l.02.01h.04l.02.01h.04l.03.01h.04l.02.01h.05l.02.01h.04l.02.01h.05l.02.01h.04l.03.01h.04l.02.01h.05l.02.01h.04l.03.01h.04l.03.01h.04l.02.01h.05l.02.01h.05l.02.01h.07l.02.01h.07l.02.01h.08l.02.01h.07l.03.01h.07l.02.01h.07l.03.01h.07l.02.01h.07l.03.01h.07l.02.01h.08l.04.01h.07l.02.01h.07l.03.01h.07l.03.01h.07l.02.01h.08l.02.01h.13l.02.01h.13l.02.01h.13l.03.01H11.41l.03.01h.13l.02.01h.14l.02.01h.13l.03.01h.13l.03.01h.16l.02.01h.11c.08 0 .14-.05.14-.12 0-.07-.06-.12-.14-.12h-.08l-.03-.01h-.08l-.02-.01h-.08l-.03-.01h-.08l-.02-.01h-.08l-.03-.01h-.07l-.03-.01h-.1l-.02-.01h-.08l-.03-.01h-.07L11.4 12h-.08L11.3 12h-.08l-.02-.01h-.08l-.02-.01h-.08l-.02-.01h-.05l-.02-.01h-.05l-.03-.01h-.05l-.02-.01h-.05l-.03-.01h-.05l-.02-.01h-.05l-.03-.01h-.04l-.03-.01h-.04l-.03-.01h-.05l-.02-.01h-.05l-.02-.01h-.05l-.02-.01h-.05l-.02-.01h-.05l-.03-.01h-.04l-.03-.01h-.04l-.03-.01h-.04l-.03-.01H9.8l-.02-.01h-.03l-.02-.01h-.05l-.02-.01h-.02l-.02-.01h-.05l-.02-.01h-.03l-.02-.01h-.05l-.02-.01h-.02l-.02-.01h-.03l-.02-.01H9.3l-.02-.01h-.03l-.02-.01H9.2l-.02-.01h-.03l-.02-.01H9.1l-.02-.01h-.05l-.02-.01H9l-.02-.01h-.05l-.02-.01h-.02l-.02-.01h-.04l-.02-.01h-.02l-.03-.01h-.02l-.02-.01h-.04l-.02-.01h-.02l-.02-.01h-.02l-.03-.01h-.02l-.02-.01H8.5l-.02-.01h-.02l-.02-.01h-.02l-.02-.01h-.02l-.02-.01h-.02l-.02-.01H8.3l-.02-.01h-.02l-.02-.01a.46.46 0 0 0-.04-.01h-.02l-.02-.01h-.02l-.02-.01H8.1l-.02-.01h-.03l-.02-.01h-.01L8 11.42h-.02l-.02-.01h-.02l-.02-.01H7.9l-.02-.01h-.02l-.02-.01h-.02l-.02-.01h-.02l-.01-.01h-.02l-.02-.01h-.04l-.02-.01h-.02l-.02-.01-.02-.01h-.02l-.02-.01h-.02l-.02-.01h-.02l-.01-.01h-.02l-.02-.01h-.02l-.02-.01H7.4l-.01-.01h-.02l-.02-.01h-.02l-.01-.01H7.3l-.02-.01h-.02l-.01-.02H7.2l-.02-.01h-.01l-.02-.01-.02-.01h-.01l-.02-.01h-.02l-.02-.01h-.01l-.02-.01-.02-.01h-.01l-.02-.01h-.02l-.01-.01h-.02l-.02-.01-.01-.01h-.02l-.02-.01h-.01l-.02-.01-.02-.01h-.01l-.02-.01h-.01l-.02-.01h-.02l-.01-.01-.02-.01H6.7l-.02-.01h-.01l-.02-.01h-.02L6.62 11 6.6 11H6.6l-.02-.01h-.01l-.02-.01-.01-.01H6.5l-.01-.01h-.02l-.01-.01h-.02l-.01-.01-.02-.01h-.01l-.02-.01h-.01l-.02-.01h-.01l-.02-.01-.01-.01H6.3l-.01-.01h-.01l-.02-.01h-.01l-.02-.02h-.02l-.02-.01h-.01l-.02-.01v-.01h-.02l-.02-.01-.01-.01H6.1l-.02-.01-.01-.01h-.02v-.01h-.02l-.01-.02h-.03l-.01-.02h-.02l-.02-.01-.02-.02h-.03v-.02h-.03l-.01-.02h-.03v-.02h-.03l-.01-.01-.02-.01-.02-.01-.01-.01h-.01l-.01-.01-.01-.01h-.02v-.01l-.02-.01-.02-.01-.01-.01h-.01l-.01-.01-.01-.01h-.01l-.02-.01v-.01h-.02v-.01l-.02-.01-.02-.01v-.01h-.02v-.01l-.02-.01-.02-.01v-.01h-.02v-.01l-.02-.01-.02-.01-.01-.02h-.02l-.01-.01v-.01h-.02v-.01l-.01-.01H5.3v-.01l-.02-.01-.01-.01-.01-.01h-.01v-.01l-.02-.01-.01-.01v-.01H5.2v-.01l-.01-.01-.02-.01v-.01h-.01v-.01h-.01l-.01-.02h-.01l-.01-.02h-.01l-.01-.02h-.02v-.02h-.01v-.02h-.01l-.01-.02h-.01l-.01-.02h-.01v-.01l-.01-.01-.01-.01v-.01L5 10V10h-.01v-.01l-.01-.01v-.01h-.01v-.02h-.01v-.02h-.01V9.9l-.01-.01v-.02l-.01-.02v-.02h-.01v-.16Z" fill="#9CADFF"/><path d="M4.92 10.5v-.04h.01v-.04h.01v-.02h.01v-.02l.01-.01v-.02h.01v-.01l.01-.02.01-.01v-.02H5l.01-.02.01-.01a.48.48 0 0 0 .01-.02l.01-.01.01-.02h.01v-.01h.01v-.01l.01-.01v-.01h.01l.01-.01v-.01l.01-.01.02-.01v-.01l.02-.02v-.01h.01v-.01h.01l.01-.02.02-.01.01-.02a.5.5 0 0 0 .02-.02h.01l.01-.01.01-.01v-.01h.02v-.02h.01l.01-.01v-.01h.02v-.02h.02V9.9l.01-.01.01-.01h.01l.01-.02h.01l.01-.01v-.01l.02-.01.02-.02.02-.01V9.8l.02-.01.02-.02.02-.01v-.01l.02-.01.02-.02h.02V9.7h.02v-.01l.02-.01.01-.01h.01l.01-.02h.01l.02-.01v-.01l.02-.01h.01l.01-.02h.02v-.01l.02-.01.01-.01h.01l.02-.02.02-.01.01-.01h.02V9.5h.02l.01-.01.02-.01.01-.01h.01l.02-.02.02-.01.01-.01.02-.01.02-.02h.02l.01-.01.01-.01.02-.01h.01l.02-.02h.01l.01-.01.02-.01h.01l.01-.02h.02l.01-.01.02-.01.01-.01h.02l.01-.02h.02l.01-.01.01-.01.02-.01h.01l.02-.02h.01l.02-.01.01-.01.02-.01h.01l.02-.02h.01l.02-.01.01-.01h.02l.02-.02h.01l.02-.01.01-.01.02-.01h.01l.02-.02h.01l.02-.01.02-.01h.01v-.01h.02l.02-.02h.01l.02-.01.02-.01.01-.01h.02l.02-.02h.01l.02-.01.02-.01.02-.01h.01l.02-.02h.02l.02-.01.01-.01.02-.01h.02L7 8.87h.01l.02-.01.02-.01h.01l.02-.02h.02l.02-.01.02-.01h.02l.01-.02h.02l.02-.01h.02l.02-.02h.02l.01-.01h.02l.02-.02h.02l.02-.01h.02l.02-.01.02-.01.01-.01h.02l.02-.01.02-.01h.02l.02-.02a4.5 4.5 0 0 1 .04-.01h.02a3.8 3.8 0 0 0 .04-.02l.02-.01h.02l.01-.02h.02l.02-.01h.03l.02-.02h.02l.02-.01h.02l.02-.02h.02l.02-.01h.02a.46.46 0 0 0 .04-.02.46.46 0 0 0 .04-.02h.02l.02-.01.02-.01h.02l.02-.02h.02l.02-.01h.02l.03-.01.02-.01.02-.01h.02l.02-.01.02-.01h.02a.52.52 0 0 0 .04-.02l.02-.01h.03l.02-.02h.02l.02-.01h.02l.03-.02h.02l.02-.01h.02l.02-.02h.03l.02-.01h.02l.02-.02h.02l.03-.01h.02l.02-.02h.02l.03-.01h.02l.02-.02h.03l.02-.01h.02l.02-.02h.03L9 8.15h.02l.03-.01.02-.01.02-.01h.02l.03-.01.02-.01h.02l.03-.02h.02l.02-.01h.03l.02-.01.03-.01h.02l.02-.01.03-.01h.02l.03-.01.02-.01h.02L9.52 8l.02-.01h.02l.03-.01.02-.01h.01l.03-.01h.02l.03-.01.02-.01h.03l.02-.01.03-.01h.02l.03-.01.02-.01h.03l.02-.01h.03l.02-.02h.05l.03-.02h.05l.02-.02h.05l.03-.02h.05l.03-.02h.05l.02-.02h.06l.02-.01.03-.01h.02l.03-.01.02-.01h.03l.03-.01.02-.01h.03l.03-.01.02-.01h.03l.03-.01.02-.01h.03l.03-.01h.02l.03-.01.03-.01h.02l.03-.01h.03l.02-.01h.03l.03-.02h.05l.03-.01h.02l.03-.01.03-.01h.03l.02-.01h.03l.03-.01h.03l.02-.01.03-.01h.03l.03-.01h.02l.03-.01h.03l.03-.02h.05l.03-.01h.03l.03-.01.03-.01h.02l.03-.01h.03l.03-.01h.03l.03-.01.02-.01h.03l.03-.01h.03l.03-.01h.03l.02-.02h.06l.03-.01h.03l.03-.01h.03l.02-.01h.03l.03-.01h.03l.03-.01h.03l.03-.01h.03l.03-.01h.03l.03-.01c.22-.03.38-.2.38-.4 0-.24-.2-.42-.46-.42l-.1.01a1.86 1.86 0 0 0-.06.01h-.03l-.03.01h-.03l-.03.01h-.03l-.03.01h-.03l-.03.01h-.03l-.03.01h-.03l-.02.01H12l-.03.01h-.03l-.03.02a.3.3 0 0 0-.03 0h-.03l-.03.01h-.02l-.03.01-.03.01h-.03l-.03.01h-.03l-.03.01h-.02l-.03.01-.03.01h-.03l-.03.01h-.03l-.02.01h-.03l-.03.02h-.06l-.03.01h-.02l-.03.01-.03.01h-.03l-.02.01h-.03l-.03.01h-.03l-.02.01-.03.01h-.03l-.03.01h-.02l-.03.01h-.03l-.03.01-.02.01h-.03l-.03.01h-.02l-.03.01-.03.01h-.02l-.03.01h-.03l-.02.02h-.06l-.02.02h-.06l-.02.02h-.06l-.02.02h-.06l-.02.02h-.06l-.02.02h-.05L10.1 7h-.05l-.03.01-.02.01h-.03l-.02.01-.03.01H9.9l-.03.01-.03.01h-.02l-.03.01-.02.01h-.03l-.02.01-.03.01h-.02l-.03.01-.02.01h-.03l-.02.01-.03.01h-.02l-.03.01-.02.01h-.03l-.02.01-.03.01a.56.56 0 0 0-.08.02l-.03.01h-.02l-.03.01-.02.01h-.03l-.02.01-.03.01h-.02l-.02.01-.03.01h-.02L9 7.29H9l-.02.01h-.03l-.02.02H8.9l-.03.01h-.02l-.03.02H8.8l-.02.01h-.03l-.02.02H8.7l-.02.01h-.02l-.02.01-.03.01-.02.01h-.02l-.03.01-.02.01H8.5l-.02.02h-.03l-.02.01h-.02l-.03.02h-.02l-.02.01h-.02l-.03.02h-.02l-.02.01h-.02l-.03.02h-.02l-.02.01h-.02l-.02.02a3.55 3.55 0 0 1-.05.01h-.02l-.02.02H8l-.03.01h-.02l-.02.02h-.02a.48.48 0 0 0-.04.02.53.53 0 0 0-.05.01.53.53 0 0 0-.04.02h-.02l-.02.01-.02.01H7.7l-.02.01-.02.01h-.03l-.02.02H7.6l-.02.01h-.02l-.02.02h-.02l-.02.01h-.02l-.02.02h-.02l-.02.01H7.4l-.02.02h-.02l-.02.01h-.02l-.02.02h-.02l-.02.01h-.02l-.02.02H7.2l-.02.01h-.02l-.02.02h-.02l-.02.01h-.02l-.02.02h-.02l-.01.01-.02.01h-.02L6.97 8h-.02L6.93 8l-.02.01-.02.01h-.02l-.01.02h-.02l-.02.01-.02.01-.02.01h-.02l-.01.02h-.02l-.02.01-.02.01h-.02l-.02.02h-.01l-.02.01-.02.01-.02.01h-.01l-.02.02h-.02l-.02.01-.01.01-.02.01h-.02l-.02.02h-.01l-.02.01-.02.01-.02.01h-.01l-.02.02h-.02l-.01.01-.02.01h-.01l-.02.02a.51.51 0 0 0-.08.04h-.02l-.01.01-.02.01h-.01l-.02.02h-.02l-.01.01-.02.01-.02.01h-.01L6 8.46H6l-.02.01-.01.01-.02.01h-.02l-.01.02h-.02l-.01.01-.02.01h-.01l-.02.02h-.01l-.02.01-.01.01-.02.01h-.01l-.02.02h-.01l-.02.01-.01.01-.02.01h-.01l-.02.02h-.01l-.02.01-.01.01-.01.01h-.02l-.01.02h-.02v.01l-.02.01H5.5l-.01.02h-.01l-.02.01-.01.01-.02.01-.02.02H5.4v.01l-.02.01-.01.01h-.02l-.01.02h-.01l-.02.01v.01l-.02.01h-.01l-.02.02h-.01l-.01.01-.01.01H5.2v.02h-.02l-.01.01-.01.01-.02.01-.02.02h-.01l-.01.01-.02.01V9h-.02l-.01.02h-.01l-.01.01-.01.01-.01.01a.5.5 0 0 0-.07.05h-.01l-.01.02H4.9v.01l-.02.01v.01h-.02v.02h-.02v.01l-.02.01-.02.02H4.8l-.01.01-.01.01-.01.01h-.01l-.01.02h-.01v.01l-.02.01v.01H4.7a2.28 2.28 0 0 1-.02.02v.01a2.28 2.28 0 0 0-.02.02h-.01l-.01.02h-.01v.01l-.02.01-.01.02h-.01l-.01.01v.01l-.02.01-.01.02h-.01l-.01.01v.01l-.02.01-.01.02-.02.01a.45.45 0 0 0-.05.06v.01l-.02.01-.01.02-.02.01v.01l-.01.01-.01.02h-.01v.01l-.01.01v.01h-.02v.02l-.01.01-.01.01v.01h-.01v.02h-.01l-.01.01v.01h-.01v.02h-.01v.01l-.01.01v.01h-.01v.02h-.01v.01a.37.37 0 0 0-.05.08v.01h-.01v.02h-.01v.01l-.01.01V10h-.01v.02l-.01.01v.02H4.1v.02l-.01.01v.01h-.01v.03l-.01.01a.47.47 0 0 1 0 .02.34.34 0 0 0-.03.07v.02h-.01v.03h-.01v.05h-.01v.04l-.01.02-.01.09V10.6a.38.38 0 0 0 .02.12v.04h.01v.02l.03.08v.01l.01.01v.02h.01v.01l.01.02.01.02.01.02h.01V11h.01l.04.08h.01v.02h.01v.02h.01l.01.02h.01v.01l.01.01.01.01v.01h.01v.01l.01.01h.01v.01l.01.01.01.01v.01h.01l.05.06.01.01.01.01.01.01.01.01v.01h.02v.02h.01l.01.01v.01h.02v.01h.01v.02h.02l.01.02h.01l.01.02h.02v.02h.02v.02h.02l.01.02h.02c.02.03.04.04.06.05l.02.01v.01h.01l.01.01.02.01.02.01v.01h.01l.01.01h.01l.01.01h.01l.01.01.01.01.02.01.02.01v.01h.02v.01h.02v.01h.02v.01l.02.01.02.01.02.01.02.01.01.01h.01l.01.01h.01l.01.01h.02v.02h.02l.02.01h.01l.01.01.01.01h.01l.02.01.02.01h.01l.06.04h.01l.02.01.02.01h.01l.01.01h.02v.01l.02.01h.01l.01.01h.02v.01h.02l.01.02h.03l.01.01h.02v.01l.02.01h.01l.02.01.02.01h.02v.01l.02.01h.02v.01h.02l.02.01h.01l.01.02h.03l.02.01.02.01h.02l.01.01h.01l.02.01h.01l.02.01h.01l.02.01h.03l.01.01.02.01h.02l.02.01h.01l.02.01H6l.02.01h.01l.02.01h.01l.02.01h.01l.02.01h.02l.01.01h.02l.01.01h.02l.01.01h.02l.02.01h.01l.02.01h.01l.02.01h.01l.02.01h.02l.01.01h.02l.02.01h.01l.02.01h.02l.01.01h.02l.01.01h.02l.02.01h.01l.02.01h.02a.3.3 0 0 0 .05.02h.02l.02.01h.01l.02.01h.02l.02.01h.01a.43.43 0 0 0 .04.02h.03l.02.01h.02l.02.01h.01l.02.01h.04l.01.01H7l.02.01h.04l.01.01h.02l.02.01h.02l.02.01h.03l.02.01h.02l.02.01h.04l.01.01h.02l.02.01h.04l.02.01h.02l.02.01h.02l.02.01h.03l.02.01h.02l.02.01h.04l.02.01h.02l.02.01h.02l.02.01h.04l.02.01h.02l.02.01h.04l.02.01h.02l.02.01h.04l.02.01h.02l.02.01H8l.02.01h.04l.02.01h.02l.02.01h.04l.02.01h.05l.02.01h.04l.02.01h.04l.02.01h.05l.02.01h.04l.02.01h.04l.03.01h.04l.02.01h.05l.02.01h.04l.02.01h.05l.02.01h.07l.02.01h.04l.02.01h.05l.02.01h.05l.02.01h.05l.02.01h.04l.03.01h.04l.03.01h.04l.02.01h.07l.03.01h.06l.03.01h.07l.02.01h.08l.02.01h.07l.02.01h.08l.02.01h.07l.03.01h.07l.02.01h.07l.03.01h.09l.02.01h.07l.03.01h.07l.02.01h.08l.02.01h.07l.03.01h.07l.03.01H10.98l.03.01H11.13l.03.01h.13l.02.01h.13l.03.01h.13l.02.01h.16l.02.01h.14l.02.01h.14l.02.01h.14l.02.01h.08c.08 0 .14-.05.14-.12 0-.07-.06-.12-.14-.12h-.05l-.03-.01h-.08l-.03-.01h-.08l-.02-.01h-.08l-.03-.01h-.08l-.02-.01h-.1l-.03-.01h-.07l-.03-.01h-.07l-.03-.01h-.08l-.02-.01h-.08l-.03-.01h-.07l-.03-.01h-.07l-.03-.01h-.07l-.03-.01h-.05l-.02-.01h-.05l-.02-.01h-.05l-.03-.01h-.05l-.02-.01h-.05l-.03-.01h-.07l-.03-.01h-.02l-.02-.01h-.07l-.03-.01h-.05l-.02-.01h-.05l-.02-.01h-.05l-.02-.01h-.05l-.02-.01h-.05l-.03-.01h-.04l-.03-.01h-.04l-.03-.01h-.04l-.03-.01H9.8l-.02-.01h-.03l-.02-.01h-.02l-.03-.01h-.04l-.02-.01h-.03l-.02-.01h-.05l-.02-.01h-.02l-.03-.01h-.02l-.02-.01h-.05l-.02-.01h-.02l-.02-.01h-.05l-.02-.01h-.02l-.02-.01h-.05l-.02-.01H9.1l-.02-.01h-.02l-.03-.01H9l-.02-.01h-.02l-.03-.01h-.04l-.02-.01h-.02l-.02-.01h-.04l-.03-.01h-.02l-.02-.01H8.7l-.02-.01h-.04l-.02-.01h-.02l-.03-.01h-.02l-.02-.01H8.5l-.02-.01a1.34 1.34 0 0 0-.04-.01h-.02l-.02-.01h-.02l-.02-.01h-.02l-.02-.01H8.3l-.02-.01h-.02l-.02-.01h-.02l-.02-.01h-.02a.46.46 0 0 0-.04-.02H8.1l-.02-.01h-.03l-.02-.01h-.01L8 12.25h-.02l-.02-.01h-.02l-.02-.01H7.9l-.02-.01h-.02l-.02-.01h-.02l-.02-.01h-.02l-.01-.01h-.02l-.02-.01H7.7l-.02-.01h-.02l-.02-.01h-.02l-.02-.01h-.02l-.02-.01h-.02l-.02-.01h-.02l-.01-.01h-.02l-.02-.01h-.02l-.02-.01H7.4l-.01-.01h-.02l-.02-.01h-.02l-.01-.01-.02-.01h-.02l-.02-.01h-.01l-.02-.01h-.02l-.02-.01-.01-.01h-.02l-.02-.01h-.01L7.1 12h-.02L7.07 12l-.01-.01h-.02l-.02-.01h-.01l-.02-.01-.02-.01h-.01l-.02-.01h-.02l-.01-.01h-.02l-.02-.01-.01-.01h-.02l-.02-.01h-.01l-.02-.01h-.01l-.02-.01-.02-.01h-.01l-.02-.01H6.7l-.02-.01h-.01l-.02-.02h-.03l-.02-.01H6.6l-.02-.01-.01-.01h-.02l-.01-.01H6.5l-.01-.01h-.02l-.01-.01-.02-.01h-.01l-.02-.01h-.01l-.02-.01h-.01l-.02-.02h-.03l-.01-.01H6.3l-.01-.01-.01-.01h-.02l-.01-.01h-.02l-.01-.01h-.01l-.02-.01-.01-.01h-.02v-.01h-.02l-.02-.02H6.1l-.02-.01-.01-.01h-.02v-.01l-.02-.01h-.01L6 11.57 6 11.57h-.01l-.01-.01h-.01l-.02-.01v-.01h-.02l-.01-.01-.02-.01-.02-.01-.01-.01h-.01l-.01-.01-.02-.01-.02-.01-.01-.01h-.01l-.02-.01v-.01h-.02l-.01-.01-.01-.01H5.7l-.01-.01-.02-.01-.02-.01v-.01h-.02l-.01-.01h-.01l-.01-.02h-.02l-.02-.02h-.02v-.02h-.02l-.02-.02h-.02v-.02h-.02l-.02-.02h-.02v-.01l-.02-.01-.02-.01v-.01h-.01l-.01-.01-.01-.01h-.01v-.01h-.02v-.02H5.3v-.02h-.02l-.01-.02h-.02v-.02h-.02l-.01-.02H5.2v-.02H5.2l-.02-.01v-.01h-.01v-.01l-.01-.01h-.01L5.14 11V11h-.01l-.01-.01v-.01H5.1v-.01l-.02-.01v-.01l-.01-.01-.01-.01v-.01h-.01v-.01l-.01-.01h-.01v-.01l-.01-.01-.01-.01v-.01H5v-.02H5v-.01l-.01-.01v-.01h-.01v-.01h-.01v-.02h-.01v-.02h-.01v-.02l-.01-.02v-.02h-.01v-.03l-.01-.01V10.5Z" fill="#F0F3FA"/><path d="M4.92 11.33v-.05h.01v-.03l.01-.01v-.02h.01v-.01l.01-.02v-.01h.01v-.02l.01-.01.01-.02v-.01H5v-.01l.01-.01.01-.02.01-.01.01-.02.01-.01h.01v-.02h.01V11h.01V11l.01-.01.01-.01.01-.01v-.01l.02-.01v-.01l.02-.01v-.02h.01l.01-.01.01-.01.02-.02.01-.01.02-.02.01-.01h.01l.01-.02.02-.01v-.01l.01-.01h.01v-.02h.02a2.1 2.1 0 0 1 .02-.02l.01-.02h.01l.01-.01.01-.01.01-.01h.01v-.02h.02v-.01l.02-.01v-.01h.02v-.02h.02v-.01l.02-.01v-.01h.02v-.02h.02v-.01l.02-.01.02-.01v-.01l.02-.01.02-.02h.01l.01-.01.01-.01.01-.01h.02v-.02h.02l.01-.01.01-.01.02-.01.02-.02h.01l.01-.01.02-.01v-.01h.02l.01-.02h.02v-.01l.02-.01h.01l.02-.02h.01l.01-.01.02-.01v-.01h.02l.01-.02H6v-.01l.02-.01.02-.01h.01l.01-.02h.02l.01-.01.02-.01h.01l.01-.02h.02l.01-.01.01-.01.02-.01h.01l.02-.02h.01l.02-.01.01-.01.02-.01h.01l.01-.02h.02l.01-.01.02-.01.01-.01h.02l.01-.02h.02L6.4 10l.02-.01.01-.01h.02l.01-.02h.02l.02-.01.01-.01h.02l.01-.02h.02l.01-.01.02-.01.01-.01h.02l.02-.02h.01l.02-.01.02-.01.01-.01h.02l.02-.02h.01l.02-.01.02-.01.01-.01h.02l.02-.02h.02l.01-.01.02-.01.02-.01h.02l.01-.02h.02l.02-.01L7 9.7l.01-.01h.02l.02-.02h.01l.02-.01.02-.01h.02l.02-.02h.02l.01-.01h.02l.02-.02h.02l.02-.01h.02l.01-.02h.02l.02-.01h.02l.02-.01a3.47 3.47 0 0 0 .06-.03h.01l.02-.01.02-.01h.02l.02-.01.02-.01a4.5 4.5 0 0 1 .08-.03h.02l.02-.02h.02l.01-.01h.02l.02-.02h.03l.02-.01h.02l.02-.02h.02l.02-.01h.02l.02-.02h.02a.55.55 0 0 0 .06-.03.46.46 0 0 0 .04-.01h.02l.02-.02h.02l.02-.01h.02l.02-.01.02-.01.03-.01h.02l.02-.01.02-.01.02-.01h.02l.02-.01a.49.49 0 0 0 .04-.02h.02l.03-.01.02-.01h.02l.02-.02h.02l.03-.01h.02l.02-.02h.02l.02-.01h.03l.02-.02h.02l.02-.01h.02l.03-.02h.02l.02-.01h.02l.03-.02h.02l.02-.01h.03L8.9 9h.02l.02-.01h.03L9 8.97l.02-.01.03-.01h.02l.02-.01.02-.01.03-.01h.02l.02-.01.03-.01h.02l.02-.02h.05l.03-.02h.04l.03-.02h.05l.02-.02h.05l.02-.02h.05l.02-.02h.04l.02-.01h.03l.02-.01.03-.01h.02l.03-.01.02-.01h.03l.02-.01.03-.01h.02l.03-.01.02-.01H10l.02-.01.03-.01h.02l.03-.01.02-.01h.03l.02-.01.03-.01h.03l.02-.01.03-.01h.02l.03-.01.02-.01h.03l.03-.01.02-.01h.03l.02-.01.03-.01h.02l.03-.01.03-.01h.02l.03-.01h.03l.02-.02h.06l.02-.02h.06l.02-.01.03-.01h.03l.02-.01h.03l.03-.01H11l.03-.01.03-.01h.02l.03-.01h.03l.02-.01h.03l.03-.01.03-.01h.02l.03-.01h.03l.03-.01.02-.01h.03l.03-.01h.03l.02-.01h.03l.03-.01.03-.01h.02l.03-.01h.03l.03-.01h.03l.03-.01.02-.01h.03l.03-.01h.03l.03-.01.03-.01h.02l.03-.01h.03l.03-.01h.03l.03-.01.02-.01h.03l.03-.01h.03a1.6 1.6 0 0 0 .06-.02h.05l.03-.01h.03l.03-.01h.03l.03-.01h.03l.03-.01h.03l.03-.01h.03c.22-.04.38-.2.38-.41 0-.23-.2-.42-.46-.42-.04 0-.07 0-.1.02h-.03a1.96 1.96 0 0 0-.06.01h-.03l-.03.01h-.03l-.03.01h-.03l-.03.01h-.03l-.03.01h-.03l-.03.01h-.02L12 7.4h-.03l-.03.01-.03.01h-.03l-.03.01h-.03l-.02.01h-.03l-.03.01-.03.01h-.03l-.03.01a.3.3 0 0 0-.03 0l-.02.01-.03.01h-.03l-.03.01h-.03l-.03.01h-.02l-.03.01-.03.01h-.03l-.03.01h-.03l-.02.01h-.03l-.03.01-.03.01h-.02l-.03.01h-.03l-.03.01-.02.01H11l-.03.01h-.03l-.02.01h-.03l-.03.01-.03.01h-.02l-.03.01h-.03l-.02.01h-.03l-.03.01-.02.01h-.03l-.03.01-.02.01h-.03l-.03.01-.02.01h-.03l-.03.01-.02.01h-.03l-.03.01-.02.01h-.03l-.03.01-.02.01h-.03l-.03.01-.02.01h-.03l-.02.01-.03.01h-.02l-.03.01-.03.01H10l-.03.01-.02.01h-.03l-.02.01-.03.01h-.03l-.02.01h-.03l-.02.02h-.05l-.03.02h-.05l-.02.02h-.05l-.03.02H9.5l-.02.02h-.05L9.39 8a.57.57 0 0 0-.08.02h-.03l-.02.01h-.03l-.02.02h-.05l-.03.02H9.1l-.03.02h-.02L9 8.1H9l-.02.02h-.03l-.02.01H8.9l-.03.02h-.02l-.03.01H8.8l-.02.02h-.03l-.02.01H8.7l-.02.02h-.02l-.02.01H8.6l-.02.01-.02.01-.03.01h-.02l-.02.01-.02.01h-.03l-.02.02h-.02l-.03.01h-.02l-.02.02h-.02l-.03.01h-.02l-.02.02h-.02l-.03.01h-.02l-.02.02a8.17 8.17 0 0 1-.09.03h-.02l-.02.01H8l-.03.02h-.02l-.02.01h-.02a.52.52 0 0 0-.04.02.53.53 0 0 0-.05.02h-.02l-.02.01-.02.01h-.02l-.02.01-.02.01-.02.01h-.02l-.03.01-.02.01H7.6l-.02.02h-.02l-.02.01h-.02a.54.54 0 0 0-.04.02l-.02.01h-.02l-.02.02H7.4l-.02.01h-.02l-.02.02h-.02l-.02.01h-.02l-.02.02h-.02l-.02.01H7.2l-.02.02h-.02l-.02.01h-.02l-.02.02h-.02l-.02.01h-.02l-.01.02H7l-.02.01-.02.01-.02.01h-.02l-.02.02H6.9l-.02.01-.01.01-.02.01h-.02l-.02.02h-.02l-.02.01-.01.01-.02.01H6.7l-.02.02h-.02l-.02.01-.01.01h-.02l-.02.02h-.02L6.57 9 6.55 9l-.02.01h-.02l-.01.02h-.02l-.02.01-.02.01-.01.01H6.4l-.02.02h-.02l-.01.01-.02.01-.02.01h-.01l-.02.02h-.01l-.02.01a.5.5 0 0 0-.08.04h-.02l-.01.02h-.02l-.01.01-.02.01-.02.01h-.01l-.02.02h-.02l-.01.01-.02.01-.01.01h-.02l-.01.02h-.02l-.02.01-.01.01-.02.01h-.01l-.02.02h-.01l-.02.01-.01.01H5.8l-.01.02h-.02l-.01.01-.02.01-.01.01H5.7l-.01.02h-.02l-.01.01-.02.01-.01.01h-.02l-.01.02H5.6l-.02.01-.01.01-.02.01-.02.02H5.5l-.01.01-.01.01h-.02l-.01.02h-.02v.01l-.02.01-.02.01-.02.02h-.01l-.02.01-.01.01-.01.01H5.3v.02h-.02l-.01.01-.02.01-.01.01h-.01l-.01.02H5.2v.01l-.02.01h-.01l-.01.02h-.02v.01l-.02.01-.01.01H5.1l-.02.02-.02.01-.01.01-.01.01h-.01l-.01.02h-.01a.5.5 0 0 0-.07.06h-.01l-.01.01-.02.01-.02.02-.02.01V10l-.02.01-.02.02-.02.01-.01.01h-.01l-.01.02h-.01l-.01.01-.01.01-.01.01-.02.02-.02.01v.01l-.02.01-.01.02h-.01l-.01.01-.01.01-.01.01-.02.02-.01.01-.01.01h-.01v.02h-.02v.01l-.01.01-.01.01h-.01v.02H4.5v.01l-.01.01v.01h-.02a.45.45 0 0 0-.05.07l-.02.02-.01.01v.01h-.02v.02h-.01v.01l-.01.01-.01.01-.01.02-.02.01v.02H4.3l-.01.02-.01.01v.01h-.01l-.01.02-.01.01v.01l-.01.01-.01.02-.01.01v.01l-.01.01a.38.38 0 0 0-.05.09l-.01.01v.01l-.01.01-.01.02-.01.01v.02h-.01v.02l-.01.01v.01l-.01.02-.01.01v.02l-.01.02v.01a.34.34 0 0 0-.03.08v.02h-.01v.03h-.01v.04h-.01v.05L4 11.2l-.01.1V11.42a.38.38 0 0 0 .02.11v.06h.01v.01l.03.09.01.01v.02l.01.01v.01l.01.01v.01l.01.01v.01l.01.01.01.01v.01l.01.01.04.07.01.01v.01h.01v.02h.01v.01l.01.01.01.01v.01h.01v.01l.01.01.01.01v.01h.01l.01.01v.01h.01v.01h.01v.02h.01l.05.06h.01v.01h.01l.01.02h.01v.02h.02v.01l.01.01h.01v.01l.02.01.01.01v.01h.01l.01.01.01.01.01.01.01.01.02.01v.01h.01l.01.01v.01h.02v.01l.01.01h.01l.01.01.06.05h.02v.01l.01.01h.01v.01h.02v.01h.02v.02h.02l.01.01h.01l.01.01.01.01h.01v.01h.02v.01h.02v.01l.02.01.02.01.02.01.02.02h.02v.01h.02v.01l.02.01H5l.01.01h.01l.01.01h.01l.02.01v.01h.02v.01h.02l.01.01h.01l.01.01.01.01h.02v.01h.02l.01.01.06.03h.01l.02.02h.02l.01.01h.01l.02.01v.01h.02l.01.01h.01l.02.01.02.01.01.01h.02l.01.01h.01l.02.01.02.02h.03v.01h.02l.02.01v.01h.02l.02.01.02.01h.02l.01.01.01.01h.02l.01.01h.02v.01h.02l.02.01h.01l.01.01h.02l.01.01h.02l.01.01h.02l.01.01h.02l.01.01h.03l.01.01h.02l.01.01H6l.01.01h.02l.01.01h.02l.01.01h.02l.01.01h.02l.02.01h.01l.02.01h.01l.02.01h.01l.02.01h.02l.01.01h.02l.01.01h.02l.01.01h.02l.02.01h.01l.02.01h.02l.01.01h.02l.02.01h.01l.02.01h.01l.02.01h.02l.01.01h.02l.02.01.05.02h.04l.01.01h.02a.43.43 0 0 0 .04.02h.03l.02.01h.02l.01.01h.02l.02.01h.02l.01.01h.04l.02.01h.01l.02.01h.02l.02.01h.03l.02.01h.02l.02.01h.04l.01.01h.02l.02.01h.02l.02.01h.03l.02.01h.02l.02.01h.04l.02.01h.02l.02.01h.03l.02.01h.02l.02.01h.02l.02.01h.04l.02.01h.02l.02.01h.04l.02.01h.02l.02.01h.04l.02.01h.02l.02.01h.02l.02.01h.04l.02.01h.02l.02.01h.04l.02.01h.02l.02.01h.04l.02.01h.05l.02.01h.04l.02.01h.04l.02.01h.05l.02.01h.04l.02.01h.04l.02.01h.05l.02.01h.04l.03.01h.04l.02.01h.05l.02.01h.04l.02.01h.05l.02.01h.04l.03.01h.04l.02.01h.05l.02.01h.05l.02.01h.05l.02.01h.05l.02.01h.07l.02.01h.07l.02.01h.07l.03.01h.07l.02.01h.07l.03.01h.07l.02.01H10l.03.01h.07l.02.01h.08l.02.01h.07l.03.01a.2.2 0 0 0 .04 0h.04l.03.01h.07l.02.01h.08l.02.01h.07l.03.01h.07l.03.01h.1l.02.01h.13l.02.01h.13l.03.01H11.36l.03.01h.13l.02.01h.13l.03.01h.16l.02.01h.14l.02.01h.14l.02.01h.14l.02.01c.08 0 .14-.06.14-.12 0-.07-.06-.13-.14-.13h-.11l-.02-.01h-.08l-.03-.01h-.08l-.03-.01h-.07l-.03-.01h-.08l-.02-.01h-.1l-.03-.01h-.07l-.03-.01h-.08l-.02-.01h-.08l-.02-.01h-.08l-.03-.01h-.07l-.03-.01h-.07l-.03-.01H11l-.03-.01h-.04l-.03-.01h-.05l-.02-.01h-.05l-.03-.01h-.05l-.02-.01h-.05l-.03-.01h-.05l-.02-.01h-.05l-.02-.01h-.05l-.02-.01h-.05l-.02-.01h-.05l-.02-.01h-.05l-.03-.01h-.04l-.03-.01h-.05l-.02-.01h-.05l-.02-.01h-.05l-.02-.01h-.05l-.02-.01h-.04l-.03-.01h-.02l-.02-.01h-.05l-.02-.01h-.02l-.03-.01h-.02l-.02-.01H9.5l-.02-.01h-.03l-.02-.01H9.4l-.03-.01h-.02l-.02-.01h-.04l-.03-.01h-.02l-.02-.01H9.2l-.02-.01h-.05l-.02-.01h-.02l-.02-.01H9L9 13.3h-.02l-.02-.01h-.03l-.02-.01h-.04l-.02-.01h-.02l-.02-.01h-.05l-.02-.01h-.02l-.02-.01h-.04l-.02-.01H8.6l-.02-.01h-.03l-.02-.01h-.02l-.02-.01h-.02l-.02-.01h-.02l-.02-.01H8.4l-.02-.01h-.02l-.02-.01h-.02l-.02-.01h-.02l-.02-.01a.46.46 0 0 0-.04-.01H8.2l-.02-.01h-.02l-.02-.01h-.02l-.02-.01h-.02l-.03-.01h-.02l-.01-.01H8l-.02-.01h-.02l-.02-.01h-.02l-.02-.01h-.02l-.02-.01h-.02l-.02-.01H7.8l-.02-.01h-.01l-.02-.01h-.02L7.7 13h-.02L7.67 13h-.02l-.02-.01H7.6l-.02-.01h-.02l-.02-.01h-.02l-.02-.01H7.5l-.02-.01h-.02l-.02-.01h-.02l-.02-.01H7.4l-.02-.01h-.02l-.02-.01h-.01l-.02-.01-.02-.01h-.02l-.01-.01h-.02l-.02-.01H7.2l-.01-.01-.02-.01h-.02l-.01-.01H7.1l-.02-.01-.02-.01h-.01l-.02-.01h-.02l-.01-.01h-.02l-.02-.01-.01-.01h-.02l-.02-.01h-.01l-.02-.01h-.02l-.01-.01-.02-.01h-.02l-.01-.01h-.02l-.01-.01-.02-.01h-.02l-.01-.01H6.7l-.01-.01h-.02l-.01-.01-.02-.01h-.02l-.01-.01H6.6l-.01-.01h-.02l-.01-.01-.02-.01h-.01l-.02-.01H6.5l-.02-.01h-.01l-.02-.02h-.03l-.01-.01h-.02l-.01-.01-.02-.01h-.01l-.02-.01h-.01l-.02-.01H6.3l-.01-.01-.02-.01h-.01l-.02-.01h-.01l-.01-.01h-.02l-.01-.02h-.02l-.02-.01-.02-.01h-.01l-.01-.01-.02-.01h-.01l-.02-.01v-.01h-.02l-.01-.01H6L6 12.38h-.02l-.01-.01h-.02v-.02H5.9l-.02-.02h-.02l-.01-.02h-.02l-.02-.02H5.8l-.01-.02h-.03v-.01l-.02-.01h-.01l-.01-.01-.01-.01H5.7l-.02-.01v-.01h-.02v-.01l-.02-.01h-.01l-.01-.01-.01-.01H5.6l-.01-.01-.02-.01-.02-.01v-.01h-.02v-.01l-.02-.01-.02-.01v-.01h-.02v-.01l-.02-.01-.02-.01v-.01H5.4v-.01l-.02-.01-.01-.01h-.01L5.36 12h-.01L5.32 12v-.01h-.01l-.01-.01v-.01h-.02v-.01l-.01-.01h-.01l-.01-.01v-.01h-.02v-.01l-.01-.01-.02-.01v-.01H5.2v-.01l-.02-.01-.01-.01v-.01h-.01l-.01-.01h-.01v-.02h-.02v-.02H5.1l-.02-.02-.01-.02h-.01v-.02h-.01l-.01-.02h-.01l-.01-.02h-.01v-.01L5 11.68v-.01L5 11.66l-.01-.01v-.01l-.01-.01-.01-.01v-.01l-.01-.01v-.01l-.01-.01v-.02l-.01-.01v-.03h-.01v-.02l-.01-.02V11.32Z" fill="#F10"/></svg>