<!-- by TradingView --><svg width="18" height="18" viewBox="0 0 18 18" xmlns="http://www.w3.org/2000/svg"><path fill="url(#a)" d="M0 0h18v18H0z"/><path d="M13.99 10.84a.07.07 0 0 1 0 .08l-1.31 2.07a.02.02 0 0 1-.03 0L10.38 9.4l-.54-.84 2.64-.1 1.5 2.38Z" fill="url(#b)"/><path d="m9.46 8.76-1.2 1.9a.18.18 0 0 1-.07.07.2.2 0 0 1-.19 0 11.45 11.45 0 0 1-.38-.54c-.1-.17-.24-.28-.4-.11l-.02.02-1.82 2.88-.02.01h-.04l-1.3-2.08a.07.07 0 0 1 0-.07l.48-.8.84-1.32 4.12.04Z" fill="url(#c)"/><path d="m10.46 5.24.28.44 1.75 2.78-2.64.1c-.17-.06-.3 0-.4.2l-4.11-.04.93-1.48.97-1.53.34-.53 2.88.06Z" fill="url(#d)"/><path d="M8.12 4.35c.57-.54 1.5-.44 1.9.2l.44.7-2.88-.07c.22-.41.4-.69.54-.83Z" fill="url(#e)"/><defs><linearGradient id="a" x1="3.35" y1="3.12" x2="21.9" y2="24.43" gradientUnits="userSpaceOnUse"><stop stop-color="#1A1E21"/><stop offset="1" stop-color="#06060A"/></linearGradient><linearGradient id="b" x1="9" y1="4" x2="9" y2="13" gradientUnits="userSpaceOnUse"><stop offset=".03" stop-color="#0CC8ED"/><stop offset=".72" stop-color="#7047F9"/><stop offset="1" stop-color="#6F46F8"/></linearGradient><linearGradient id="c" x1="9" y1="4" x2="9" y2="13" gradientUnits="userSpaceOnUse"><stop offset=".03" stop-color="#0CC8ED"/><stop offset=".72" stop-color="#7047F9"/></linearGradient><linearGradient id="d" x1="9" y1="4" x2="9" y2="13" gradientUnits="userSpaceOnUse"><stop offset=".03" stop-color="#0CC8ED"/><stop offset=".72" stop-color="#7047F9"/></linearGradient><linearGradient id="e" x1="9" y1="4" x2="9" y2="13" gradientUnits="userSpaceOnUse"><stop offset=".03" stop-color="#0CC8ED"/><stop offset=".72" stop-color="#7047F9"/></linearGradient></defs></svg>