<!-- by TradingView --><svg width="18" height="18" viewBox="0 0 18 18" xmlns="http://www.w3.org/2000/svg"><path fill="#F0F3FA" d="M0 0h18v18H0z"/><path d="M12.87 5.88c-.34.07-.67.17-.95.23a1.7 1.7 0 0 0-1.33 1.48c-.1.78.15 1.12.04 2.02-.2 1.58-1.72 2.13-2.43 2.46-.4.19-1.4.62-2.17.95a5 5 0 0 0 6.88-7.14h-.04Z" fill="url(#ahaqp0uff)"/><path d="M8.44 8.27c.38-.84.24-.84.54-1.62.36-1 1.51-.71 1.83-.67.52.07.66-.11 1.76-.29l.16-.02a5 5 0 0 0-8.24 1.17c1.65.41 3.43 1.3 3.95 1.43Zm-1.1-3.4c.15.02.86.9.99 3.15 0 0-.9-.22-1.1-.68-.17-.39.04-.9.11-2.47Zm5.56 1 .01.02h-.04l.03-.01ZM4 9c0-.4.05-.79.14-1.16l.58.51c1.3 1.21 3.42 2.16 4.19 1.28a1.7 1.7 0 0 1-1.7.6l-1.63 2.42A4.99 4.99 0 0 1 4 9Z" fill="url(#bhaqp0uff)"/><defs><linearGradient id="ahaqp0uff" x1="12" y1="7.19" x2="10.82" y2="13.69" gradientUnits="userSpaceOnUse"><stop stop-color="#FF496A"/><stop offset="1" stop-color="#E42648"/></linearGradient><linearGradient id="bhaqp0uff" x1="6.41" y1="11.37" x2="9.02" y2="4" gradientUnits="userSpaceOnUse"><stop offset="0" stop-color="#1158F1"/><stop offset="1" stop-color="#119BED"/></linearGradient></defs></svg>