<!-- by TradingView --><svg width="18" height="18" viewBox="0 0 18 18" xmlns="http://www.w3.org/2000/svg"><path fill="url(#aiuzup2df)" d="M0 0h18v18H0z"/><path d="M9.85 4H6v1h1v.4H5V6h5.28c2.03.13 1.85 2.28 1.52 2.15-.27-.1-.74-.14-.94-.15H6v1.47h4.86c.57-.01 1.6.36 1.65 1.3.05.94-.8 1.19-1.28 1.23H5v1h1v1h4.28c2.62-.26 3.62-1.7 3.71-3.06.08-1.09-.76-2.02-1.18-2.35.35-.4.47-1.24.48-1.6C13 4.52 10.88 3.96 9.85 4Zm.62 2.76H6v.7h4.47v-.7ZM10.42 10H5v.99H4v.47h6.42V10Z" fill="#fff" fill-opacity=".85"/><defs><linearGradient id="aiuzup2df" x1="3.35" y1="3.12" x2="21.9" y2="24.43" gradientUnits="userSpaceOnUse"><stop stop-color="#1A1E21"/><stop offset="1" stop-color="#06060A"/></linearGradient></defs></svg>