<!-- by TradingView --><svg width="18" height="18" viewBox="0 0 18 18" xmlns="http://www.w3.org/2000/svg"><path fill="url(#a)" d="M0 0h18v18H0z"/><path d="M9.05 6.25a2.74 2.74 0 0 1 2.73 2.5c.01.2 0 .5-.07.89-.06.38-.15.88-.29 1.5-.07.33-.15.58-.23.74a2.06 2.06 0 0 1-1.63 1.09l-.68.02a104.63 104.63 0 0 1-2.23 0c-.79-.01-1.52 0-2.18.01-.18 0-.3-.02-.38-.07-.08-.07-.11-.2-.08-.37.24-1.21.5-2.53.76-3.94.08-.42.15-.71.22-.87a2.43 2.43 0 0 1 2.37-1.5h1.7ZM13.64 5c.14 0 .24.03.3.1.06.05.08.16.05.3a729.68 729.68 0 0 1-.8 4.2c-.08.37-.15.62-.22.76a2.27 2.27 0 0 1-.77.92c0-.07.1-.64.3-1.7a3.45 3.45 0 0 0-.48-2.45A3.44 3.44 0 0 0 8.9 5.5a253.63 253.63 0 0 1-1.4-.01c.36-.31.79-.47 1.28-.48h4.85Z" fill="#B9F641"/><defs><linearGradient id="a" x1="3.35" y1="3.12" x2="21.9" y2="24.43" gradientUnits="userSpaceOnUse"><stop stop-color="#1A1E21"/><stop offset="1" stop-color="#06060A"/></linearGradient></defs></svg>