<!-- by TradingView --><svg width="18" height="18" viewBox="0 0 18 18" xmlns="http://www.w3.org/2000/svg"><path fill="url(#aacf1aid1)" d="M0 0h18v18H0z"/><path d="m11.53 8.87-1.43.81c.63.35.9 1.21.9 1.8 0 .63-.17 1.97-1.5 2.1H8v-2.82l-2 1.12V15h3.5c1.53 0 2.79-.28 3.27-1.58.24-.65.23-1.32.23-2.16 0-1-.32-1.95-1.47-2.4ZM8 8V4.45c.31.02 1.56-.22 2.15.34.56.53.42 1.38.44 1.76 0 .18-.02.4-.05.53l2.2-1.26c0-1.2-.22-2.83-3.9-2.83H6v6.7l2-1.06v-.65Z" fill="#fff"/><path d="M6 9.58V12l5.25-2.93a2.88 2.88 0 0 0 1.5-2.5v-.75L6 9.58Z" fill="#FF7D20"/><defs><linearGradient id="aacf1aid1" x1="3.35" y1="3.12" x2="21.9" y2="24.43" gradientUnits="userSpaceOnUse"><stop stop-color="#1A1E21"/><stop offset="1" stop-color="#06060A"/></linearGradient></defs></svg>