<!-- by TradingView --><svg width="18" height="18" viewBox="0 0 18 18" xmlns="http://www.w3.org/2000/svg"><path fill="url(#ae0iej3e1)" d="M0 0h18v18H0z"/><path d="M4 9c0-1.34 1.07-2 2.38-2 .36 0 .77 0 1.12.05l.29-.87A5.8 5.8 0 0 0 6.39 6C4.78 6 3 7.05 3 8.99c0 1.63 1.61 2.86 3.13 3.01l.25-.93C5.01 10.97 4 10.23 4 9Zm9.17-3h-.06l-2.07 4.32-1.15-2.3-.37 1.17L10.94 12h.22l1.81-3.6L14.1 12h.9l-1.83-6Z" fill="#fff"/><path d="M7.07 12h.9l1.5-4.95L8.97 6H8.9l-1.83 6Z" fill="#BAC0DD"/><defs><linearGradient id="ae0iej3e1" x1="3.35" y1="3.12" x2="21.9" y2="24.43" gradientUnits="userSpaceOnUse"><stop stop-color="#1A1E21"/><stop offset="1" stop-color="#06060A"/></linearGradient></defs></svg>