<!-- by TradingView --><svg width="18" height="18" viewBox="0 0 18 18" xmlns="http://www.w3.org/2000/svg"><path fill="url(#a)" d="M0 0h18v18H0z"/><path d="m12.06 4-.27 1.03-.43 1.6 1.6-.42L14 5.93v.01l-1.04 3.92-1.05 3.93h-.02l-.74-.75-1.18-1.17a136.08 136.08 0 0 0-.72 2.63l-2.87-2.87a3360.69 3360.69 0 0 1-2.86-2.89l1.02-.27 1.6-.43-1.17-1.18-.75-.75A3100.9 3100.9 0 0 1 12.06 4ZM5.19 9.2v.01l3.6 3.6h.02l.44-1.65v-.01l-2.4-2.4-1.66.45Zm5.92-1.59v.01l-.88 3.27 1.2 1.21h.02l1.32-4.92s0-.01 0 0l-1.66.43Zm-3.27.88v.02l1.66 1.66h.02l.6-2.28v-.01l-2.28.61ZM5.9 6.55v.01l1.2 1.21h.02l3.27-.87.44-1.66s0-.01 0 0L5.9 6.54Z" fill="#fff"/><defs><linearGradient id="a" x1="17.08" y1="5.07" x2=".87" y2="14.66" gradientUnits="userSpaceOnUse"><stop stop-color="#6EB053"/><stop offset="1" stop-color="#469B4C"/></linearGradient></defs></svg>