<!-- by TradingView --><svg width="18" height="18" viewBox="0 0 18 18" xmlns="http://www.w3.org/2000/svg"><path fill="#114226" d="M0 0h18v18H0z"/><path d="M8.92 9.19c-.4.21-1.74.8-1.74 1.66 0 1.07.95 1.56 1.82 1.56.87 0 1.82-.5 1.82-1.56 0-.85-1.36-1.45-1.75-1.66-.05-.03-.1-.03-.15 0ZM9 4c2.47 0 3.92 1.5 3.92 3.03 0 .74-.44 1.43-1.14 1.9.69.54 1.21 1.11 1.21 2.03C13 12.52 11.52 14 9 14c-2.5 0-3.99-1.35-4-3.04-.01-.92.54-1.49 1.22-2.03-.7-.47-1.13-1.16-1.13-1.9C5.09 5.5 6.52 4 9 4Zm-.08 4.8c.06.02.1.02.16 0 .38-.22 1.74-.81 1.74-1.66 0-1.07-.95-1.56-1.82-1.56-.87 0-1.82.49-1.82 1.56 0 .84 1.34 1.44 1.74 1.65Z" fill="#00FF6A"/></svg>