<!-- by TradingView --><svg width="18" height="18" xmlns="http://www.w3.org/2000/svg"><path fill="#0AB45B" d="M0 0h18v18H0z"/><path d="M4 9.03c0-3.056 1.952-5.033 4.972-5.033 3.096 0 4.987 1.917 4.987 4.973 0 3.07-1.967 5.033-4.987 5.033C5.892 14.018 4 12.116 4 9.03zM11.092 9c0-2.022-.61-3.625-2.166-3.625C7.356 5.39 6.867 6.993 6.867 9c0 2.007.61 3.625 2.166 3.625 1.57 0 2.059-1.603 2.059-3.625z" fill="#fff"/><path d="M15.164 10H9.43l-.32 1h5.734l.32-1zm.244-1.996H9.674l-.305 1h5.734l.305-1z" fill="#fff"/></svg>