<!-- by TradingView --><svg width="18" height="18" viewBox="0 0 18 18" xmlns="http://www.w3.org/2000/svg"><path fill="#F0F3FA" d="M0 0h18v18H0z"/><path d="M13.54 12.04c1.83-1.03.97-3.18-1.9-4.8C8.8 5.67 4.99 5.2 3.19 6.2c-.07.04-.14.06-.18.1 1.8-.86 5.3-.36 7.94 1.12 1.59.88 2.51 1.93 2.69 2.86-.27-.78-1.08-1.64-2.38-2.35-2.46-1.4-5.76-1.8-7.35-.92l-.15.09c1.56-.73 4.57-.33 6.86.96 2.38 1.33 3.08 3.12 1.57 3.98-.6.34-1.48.47-2.45.43h.16c1.45.15 2.75 0 3.6-.48"/><path d="M10.55 3.58c-1.48-1.44-3.4-.09-4.25 3-.86 3.12-.33 6.83 1.14 8.27l.16.15c-1.32-1.48-1.74-4.9-.95-7.77.46-1.72 1.28-2.88 2.14-3.29-.7.45-1.32 1.44-1.72 2.84-.75 2.68-.29 5.9.99 7.15l.13.13c-1.12-1.3-1.5-4.26-.81-6.75.7-2.57 2.29-3.71 3.52-2.51a4.6 4.6 0 0 1 1.08 2.19c0-.1-.05-.21-.07-.32a5.97 5.97 0 0 0-1.36-3.11" fill="#979797"/><path d="M3.81 11.65c0 2.04 2.33 2.4 5.2.8 2.86-1.62 5.19-4.6 5.19-6.64v-.22c-.16 1.96-2.33 4.66-4.97 6.17-1.57.88-2.98 1.16-3.9.83.81.18 1.98-.1 3.28-.81 2.46-1.4 4.49-3.98 4.49-5.74v-.17c-.13 1.7-2 4.04-4.3 5.33-2.37 1.33-4.3 1.03-4.3-.67 0-.4 0-.84.15-1.2.15-.37.24-.5.66-1.07-.49.49-.73 1-1 1.56a4.35 4.35 0 0 0-.45 1.72c-.03.6 0 .09 0 .13" fill="#F60"/></svg>