<!-- by TradingView --><svg xmlns="http://www.w3.org/2000/svg" width="18" height="18"><path fill="url(#apkocbvyu)" d="M0 0h18v18H0z"/><path fill-rule="evenodd" d="M12.37 10.61c0 1.59-1 3-2.6 3.3-1.08.2-2.12.11-3.1-.43-.48-.27-.85-.67-1.12-1.16-.05-.08-.07-.12.06-.14l1.14-.24.1-.02c.06-.02.1-.02.14.03.3.4.7.58 1.17.67.59.1 1.17.1 1.73-.11.94-.37 1.13-1.25 1.11-2.14v-.12l-.28.3c-1.06.98-2.74 1.01-3.9.31a3.72 3.72 0 01-.8-5.75 3.5 3.5 0 014.4-.57c.23.16.37.34.58.58v-.54c0-.06.07-.1.14-.11l1.15-.27c.06 0 .08 0 .08.06v6.35zM11 7.62A2.23 2.23 0 018.76 10a2.29 2.29 0 01-2.35-2.3A2.28 2.28 0 018.7 5.35 2.23 2.23 0 0111 7.62z" fill="#fff"/><defs><linearGradient id="apkocbvyu" x1="3.35" y1="3.12" x2="21.9" y2="24.43" gradientUnits="userSpaceOnUse"><stop stop-color="#1A1E21"/><stop offset="1" stop-color="#06060A"/></linearGradient></defs></svg>