<!-- by TradingView --><svg width="18" height="18" xmlns="http://www.w3.org/2000/svg"><path fill="#F0F3FA" d="M0 0h18v18H0z"/><path d="M6.884 14H11c-3.974-1.277-5.61-3.367-7-7v4.14L6.884 14z" fill="#0A5237"/><path d="M11.116 14H7c3.974-1.277 5.61-3.367 7-7v4.14L11.116 14z" fill="#15763B"/><path d="M11.116 4H7c3.974 1.277 5.61 3.367 7 7V6.86L11.116 4z" fill="#1D945C"/><path d="M6.884 4H11c-3.974 1.277-5.61 3.367-7 7V6.86L6.884 4z" fill="#27B361"/><path d="M4 7v4c.278-.726.565-1.391.88-2A19.703 19.703 0 014 7z" fill="#118749"/><path d="M14 7a19.703 19.703 0 01-.88 2c.315.609.602 1.274.88 2V7z" fill="#0D9C4B"/></svg>