<!-- by TradingView --><svg width="18" height="18" viewBox="0 0 18 18" xmlns="http://www.w3.org/2000/svg"><path fill="url(#a)" d="M0 0h18v18H0z"/><path d="M14.38 9.59v.03c-.1.68-.42 1.05-.92 1.05-.7 0-1.11-.6-1.11-1.66 0-1.07.4-1.68 1.11-1.68.48 0 .8.36.91.99v.03H16v-.04c-.12-.72-.41-1.3-.84-1.7-.43-.4-1-.61-1.65-.61-.8 0-1.49.3-2 .86A3.2 3.2 0 0 0 10.76 9c0 1.76 1.13 2.99 2.75 2.99.66 0 1.23-.22 1.66-.62.43-.41.72-1.02.83-1.75l.01-.04h-1.62ZM10 6.08v5.84c0 .04-.04.08-.08.08H8.08a.08.08 0 0 1-.08-.08v-4.8l1.88-1.1c.05-.04.12 0 .12.06Z" fill="#fff"/><path d="M8 7.13V6.1c0-.04-.03-.1-.07-.1h-1.2c-.04 0-.06.06-.06.1v1.37c0 .37-.23.71-.5.9l-1.04.7C5.08 9.13 5 9.08 5 9V7.08C5 7.03 4.97 7 4.94 7h-1.2c-.04 0-.07.03-.07.08v2.56c0 .3-.19.57-.4.71l-1.2.82a.16.16 0 0 0-.07.14v.61c0 .04.03.08.07.08H3.6c.04 0 .07-.04.07-.08V10.6c0-.3.08-.57.3-.72l.9-.6c.05-.05.13 0 .13.08v2.56c0 .04.03.08.06.08h1.5c.03 0 .1-.04.1-.08V8.68c0-.37.12-.71.4-.9L8 7.13Z" fill="url(#b)"/><defs><linearGradient id="a" x1="3.35" y1="3.12" x2="21.9" y2="24.43" gradientUnits="userSpaceOnUse"><stop stop-color="#1A1E21"/><stop offset="1" stop-color="#06060A"/></linearGradient><linearGradient id="b" x1="4.7" y1="8.32" x2="5.64" y2="9.75" gradientUnits="userSpaceOnUse"><stop stop-color="#0FC800"/><stop offset=".5" stop-color="#008D00"/><stop offset="1" stop-color="#0FC800"/></linearGradient></defs></svg>