<!-- by TradingView --><svg width="18" height="18" viewBox="0 0 18 18" xmlns="http://www.w3.org/2000/svg"><path fill="#F0F3FA" d="M0 0h18v18H0z"/><path d="M11.16 5.5v1H9.72V8H8.6V4h3.1v1H9.71v.5h1.44Z" fill="#9DC713"/><path d="M12.97 6.94 12.27 8h-1.32l1.36-2.07L11.05 4h1.33l.6.91.6-.91h1.32l-1.26 1.93L15 8h-1.33l-.7-1.06Z" fill="#9DC713"/><path d="M11 10c0 2.4-1.78 4-3.81 4C4.69 14 3 12.2 3 10c0-2.35 1.87-4 4.19-4 .38 0 .73.1.81.12v4.04c0 .6-.17.96-.66.96-.63 0-.96-.4-.96-1.05v-.43H4.45v.59a2.26 2.26 0 0 0 .44 1.46c.52.64 1.41.89 2.34.89 2.65 0 2.77-2.28 2.77-2.81V7.39c.52.65 1 1.47 1 2.61Z" fill="#1C1B1B"/></svg>