<!-- by TradingView --><svg width="18" height="18" viewBox="0 0 18 18" xmlns="http://www.w3.org/2000/svg"><path fill="url(#a)" d="M0 0h18v18H0z"/><path d="M5 9.24v2.78c0 .34.15.6.44.8.2.14.44.2.7.18.25-.02.48-.12.66-.28l1.17-1.05c.19-.17.32-.28.4-.33.2-.1.4-.16.63-.16a1.29 1.29 0 0 1 .93.38 41.3 41.3 0 0 1 1.12 1c.18.17.32.27.41.32.22.1.46.14.72.09a1 1 0 0 0 .61-.36.9.9 0 0 0 .21-.54.97.97 0 0 0-.33-.76 33.1 33.1 0 0 0-2.33-2.1 1.97 1.97 0 0 0-1.2-.45 2.1 2.1 0 0 0-1.62.65l-.14.13C7.24 9.66 7 9.5 7 9.38V6.2c0-.57-.14-1.11-.84-1.18-.16-.02-.32 0-.47.05-.52.17-.69.6-.69 1.06v3.12Zm5.96-3.9a516.68 516.68 0 0 0-.87.9c-.17.19-.28.32-.32.4-.1.2-.13.42-.07.64.05.22.18.4.37.55a1.3 1.3 0 0 0 1.64-.1 305.85 305.85 0 0 0 .87-.9c.17-.18.28-.31.32-.4.1-.2.13-.41.07-.63a.97.97 0 0 0-.38-.55 1.3 1.3 0 0 0-1.64.1Z" fill="url(#b)"/><defs><linearGradient id="a" x1="3.35" y1="3.12" x2="21.9" y2="24.43" gradientUnits="userSpaceOnUse"><stop stop-color="#1A1E21"/><stop offset="1" stop-color="#06060A"/></linearGradient><linearGradient id="b" x1="9" y1="5" x2="9" y2="13" gradientUnits="userSpaceOnUse"><stop stop-color="#E2C8A4"/><stop offset=".46" stop-color="#C6965E"/><stop offset="1" stop-color="#A87E50"/></linearGradient></defs></svg>