<!-- by TradingView --><svg width="18" height="18" viewBox="0 0 18 18" xmlns="http://www.w3.org/2000/svg"><path fill="url(#a)" d="M0 0h18v18H0z"/><path d="M10.48 4.85a2.5 2.5 0 0 1 2.03.92 2.23 2.23 0 0 1 .3 2.3l-.24.46c-.1.18-.14.34-.14.47 0 .18.08.4.24.67a2.23 2.23 0 0 1-.17 2.56c-.47.6-1.15.9-2.03.92h-3.8c-.87 0-1.42-.44-1.65-1.3v-.05a197.34 197.34 0 0 1 0-5.66c.24-.86.79-1.29 1.65-1.29h3.8Zm-1.5.8c-.5 0-.88.2-1.12.6-.24.38-.26.8-.06 1.24l.08.13.1.1c.24.29.4.5.48.63a1.4 1.4 0 0 1 .01 1.4 4.89 4.89 0 0 1-.57.75 1.27 1.27 0 0 0-.01 1.38c.24.39.62.58 1.12.58.51 0 .89-.2 1.13-.6a1.27 1.27 0 0 0-.02-1.37 21.22 21.22 0 0 1-.59-.74 1.39 1.39 0 0 1 0-1.4c.08-.14.24-.35.48-.64l.1-.1a1.27 1.27 0 0 0-1.12-1.96Z" fill="#FFDB00"/><defs><linearGradient id="a" x1="3.35" y1="3.12" x2="21.9" y2="24.43" gradientUnits="userSpaceOnUse"><stop stop-color="#1A1E21"/><stop offset="1" stop-color="#06060A"/></linearGradient></defs></svg>