<!-- by TradingView --><svg width="18" height="18" viewBox="0 0 18 18" xmlns="http://www.w3.org/2000/svg"><path fill="#8071FE" d="M0 0h18v18H0z"/><path d="m9.25 4.08.01.05v.06c-.02.02-.03.03-.05 0a.21.21 0 0 0-.06-.04c-.02-.02-.03-.01-.03.01l-.04.34a.45.45 0 0 1-.18.08l-.18.05a2 2 0 0 0-.28.14c-.16.08-.3.18-.43.3a.94.94 0 0 1-.35.18c-.02.02-.04.02-.05 0a.06.06 0 0 1-.02-.03c.2-.12.36-.24.46-.36.25-.3.5-.57.77-.81.08-.07.06-.11-.04-.11-.22 0-.45.01-.7.05a7.6 7.6 0 0 1-.76.08.3.3 0 0 1 .22-.17c.32-.1.65-.15.98-.17a1.05 1.05 0 0 1 .42.1c.06.01.12.05.17.1l.14.15Z" fill="#DBD0C8"/><path d="M11.7 4.8a.92.92 0 0 1-.3.37c.01-.08.07-.19.18-.33.18-.25.18-.5.01-.75-.03-.13-.1-.19-.19-.19-.12 0-.27.06-.45.15a.44.44 0 0 0-.16.07l-.13.1c-.2.1-.38.23-.56.36-.13.06-.21.1-.25.14-.27.22-.53.46-.79.7a.61.61 0 0 1-.28.12h-.03v-.05c.2-.08.36-.2.5-.36l.25-.27.5-.4.32-.21.33-.23c.28-.15.53-.23.77-.23.1 0 .18.05.25.16a.8.8 0 0 1 .02.85Z" fill="#E31F28"/><path d="M11.6 4.09c-.04 0-.08.03-.14.05-.2.09-.34.16-.42.22a.8.8 0 0 0-.29.38l-.2.66c-.01.02-.01.05 0 .07.02.02.04.04.07.04l.23.02c-.25.06-.49.06-.7 0-.03-.02-.05 0-.06.04h-.03l-.01-.04c-.05-.04-.06-.1-.03-.17l.2-.22a.27.27 0 0 0-.01-.28v-.2l.15-.13c.1-.1.19-.15.24-.18a5.2 5.2 0 0 0 .35-.21c.05-.06.05-.1 0-.09.18-.1.33-.14.45-.15.1 0 .16.06.2.19Z" fill="#98090B"/><path d="m7.6 5.22-.13-.4a3.24 3.24 0 0 1-.18-.38.36.36 0 0 1 .03-.37A213.77 213.77 0 0 0 8.1 4c.24-.04.47-.06.69-.05.1 0 .12.04.04.1a8.1 8.1 0 0 0-.77.82c-.1.12-.25.24-.45.36Z" fill="#F1E4F2"/><path d="M10.65 4.02c-.1.08-.22.16-.33.22a3.4 3.4 0 0 0-.32.23l-.5.4-.3-.02c-.03 0-.03-.01-.02-.02l.11-.11v-.04h-.04a2.7 2.7 0 0 1-.67.06.21.21 0 0 1 .12-.08c.3-.07.57-.16.85-.27l.32-.1c.1-.02.2-.05.32-.1.14-.08.3-.14.46-.17Z" fill="#FB9391"/><path d="M7.2 4.04c0 .08-.02.15-.03.23 0 .07.01.15.05.22.05.11.1.2.16.28.02.04.05.05.09.04l.12.4.02.04c.01.02.03.02.05 0-.05.06-.1.1-.18.14-.31-.07-.48-.25-.52-.53 0-.05-.03-.07-.08-.06l-.5.08a.06.06 0 0 0-.06.04l-.2.39c.03-.15.04-.24.01-.3.18-.25.41-.51.72-.77.1-.1.23-.16.36-.2Z" fill="#97403C"/><path d="M10.95 4.05c.05 0 .05.03 0 .09a5.15 5.15 0 0 1-.35.21l-.24.18-.16.13-.1-.08a4.84 4.84 0 0 1 .85-.53ZM10.19 4.2l-.32.1-.32.09c-.28.1-.56.2-.85.27a.21.21 0 0 0-.12.08l-.14.03a2 2 0 0 1 .28-.15l.18-.04a.45.45 0 0 0 .18-.08l.26-.08.06-.01c.04 0 .06 0 .08-.03.02-.02.02-.04 0-.05a.39.39 0 0 1-.21-.2c-.02 0-.02-.03-.02-.05.32 0 .63.04.94.12Z" fill="#111"/><path d="M11.39 5.17c-.12.15-.3.27-.55.36l-.22-.02a.08.08 0 0 1-.07-.04.08.08 0 0 1 0-.07 62 62 0 0 1 .2-.66.8.8 0 0 1 .29-.39 2.24 2.24 0 0 1 .55-.27c.17.26.17.51-.02.76-.1.14-.16.25-.18.33Z" fill="#B30303"/><path d="M9.27 4.13c.05.1.12.17.2.2.03.01.03.03.01.05-.02.02-.04.03-.08.03h-.06l-.26.1.04-.35c0-.02.01-.03.04-.01l.05.04c.02.03.03.02.05 0v-.06Z" fill="#B39E9B"/><path d="m6.99 4.3.08-.1c-.01-.02-.07 0-.12.05-.06.04-.1.1-.09.1.01.02.07 0 .13-.05Z" fill="#CD7C61"/><path d="m10.1 4.58.1.09v.2c-.04-.08-.07-.05-.1.09 0 .02-.02.03-.04 0l-.04-.02c-.01-.02-.03-.02-.04 0v.05c.05.01.06.04.06.07l-.03.06c-.07.08-.06.16.01.24-.03.07-.02.13.03.17a.95.95 0 0 1-.35-.2c-.02-.02-.03-.02-.04 0-.05.26.01.42.2.48.09.02.17.05.25.1.03.01.06.04.08.07l.07.1c.03.09 0 .2-.06.31v-.01a.28.28 0 0 0-.12-.08c-.03 0-.04 0-.04.03 0 .04-.03.05-.08.05-.01 0-.02 0-.03.02 0 .01 0 .02.02.03.04.03.07.06.08.1.01.03 0 .04-.03.05l-.24.04a.05.05 0 0 0-.05.03v.05l.38.73c.04.07.09.08.16.05l.19-.1h.02a.1.1 0 0 1 .05.01l-.1.06-.27.21a.46.46 0 0 1-.12.08.3.3 0 0 0-.11.1.08.08 0 0 1-.06.03l-.36.05a.56.56 0 0 1-.43-.23 4.8 4.8 0 0 1-.28-.36.04.04 0 0 1 0-.06l.01-.02c.01-.02.02-.02.04 0 .1.18.23.35.37.49.05.05.15.08.3.1h.04a.3.3 0 0 0 .22-.06c.06-.04.12-.1.16-.17.06-.07.07-.13.04-.18A2.44 2.44 0 0 1 9.6 6.4l.04-.27c.03-.1.08-.17.16-.22.02 0 .02-.02 0-.03a.31.31 0 0 1-.17-.16l-.05-.03a.95.95 0 0 1-.1-.05c-.06-.03-.14-.03-.23 0a.1.1 0 0 0-.05.05c-.11.2-.3.27-.55.21-.02 0-.03-.01-.01-.03l.02-.02a.2.2 0 0 1 .12 0c.23 0 .37-.13.4-.37l-.02-.02h-.02l-.1.2a.13.13 0 0 1-.12.06l-.47.02h-.07a2.68 2.68 0 0 0-.65-.07.9.9 0 0 1-.32-.08l1.31.02c.02 0 .02-.01.03-.02v-.03a.07.07 0 0 0-.05-.04c.02 0 .04 0 .06-.02v.04h.03a.61.61 0 0 0 .28-.11c.26-.24.52-.48.79-.7.04-.03.12-.08.25-.14Z" fill="#97403C"/><path d="m9.5 4.86-.24.27a1.42 1.42 0 0 1-.57.38H8.6l.44-.27.01-.03c0-.01 0-.02-.02-.03a.37.37 0 0 1-.18-.14.06.06 0 0 0-.05-.02l-.8.06c.14-.13.28-.23.44-.3l.14-.04c.2.01.43-.01.67-.07l.04.01v.04l-.1.1c-.02.02-.02.03 0 .03l.31.01Z" fill="#EC525B"/><path d="M7.48 5.4a.23.23 0 0 1-.06.07c-.06.04-.05.05.02.05l.37-.05c.06-.01.16 0 .3.02a2.53 2.53 0 0 0 .49.02h.09c.02 0 .04.02.05.04v.03l-.03.01-1.3-.01a2.28 2.28 0 0 1-.82 0c-.04-.02-.06-.02-.09 0a.1.1 0 0 1-.06.01h-.3l-.02-.28.2-.39a.06.06 0 0 1 .05-.04l.5-.08c.06 0 .08.01.09.06.04.28.21.46.52.53Z" fill="#712018"/><path d="M11.7 4.8a5 5 0 0 1 2.29 3.3 4.9 4.9 0 0 1-.51 3.32A9.02 9.02 0 0 1 12 9.97L10.7 8.32c-.03-.04-.04-.09 0-.13a.6.6 0 0 0 .09-.44c-.03-.18-.1-.3-.23-.38-.04.01-.05-.03-.02-.12a.58.58 0 0 0-.21-.61.42.42 0 0 1-.12-.15l-.01-.1c.07-.12.09-.22.06-.31a.54.54 0 0 0-.16-.5c0-.05.02-.07.04-.06.22.06.46.07.7.01.25-.1.43-.21.55-.36.14-.1.24-.23.3-.37Z" fill="#111"/><path d="M8.6 5.51h-.04c-.2 0-.35 0-.45-.02a.93.93 0 0 0-.3-.02l-.37.05c-.07 0-.08-.01-.02-.05l.06-.08a.46.46 0 0 0 .18-.14c.13-.03.25-.1.35-.17l.8-.06c.01 0 .03 0 .05.02.04.07.1.12.17.14.01 0 .02.01.02.03l-.01.03-.44.27Z" fill="#E31F28"/><path d="M6.13 5.02c.03.05.02.14-.02.29l.02.27-.02.03v.04l-.01.05-.13.13a.39.39 0 0 0-.04.3 4.43 4.43 0 0 1 .03.3.81.81 0 0 0-.04.53c.03.18.1.34.22.5v.06l-.22.5c-.2.41-.4.74-.6 1-.17.18-.33.37-.48.56a.65.65 0 0 1-.13.1.2.2 0 0 0-.12.07c0 .02 0 .04.02.04l.47.07-.1.13-.63.66-.15-.59a4.9 4.9 0 0 1 1.93-5.04Z" fill="#111"/><path d="m10.05 5.53.01.04-.3.03c-.04 0-.05.02-.02.05l.12.15c-.19-.06-.25-.21-.2-.47.01-.02.02-.03.04-.01.1.1.21.17.35.21ZM8.77 5.84l.02-.04c0-.02 0-.04-.03-.04l-.32-.03.47-.02c.05 0 .1-.03.12-.07l.1-.18h.04c-.03.25-.17.37-.4.38Z" fill="#B39E9B"/><path d="M7.4 5.58a.9.9 0 0 0 .32.08c.22 0 .43.02.65.07l-.46-.04c-.08 0-.13.03-.15.1l-.07.2c-.04.11-.02.13.07.04.1-.11.23-.17.4-.2a2.24 2.24 0 0 1 .5.01.07.07 0 0 0-.03.02c-.02.01-.01.03.01.03.26.06.44-.01.55-.21a.1.1 0 0 1 .05-.05c.09-.03.17-.03.23 0l.1.05c.02 0 .04.02.05.03.04.08.1.13.16.16.03 0 .03.02 0 .03a.35.35 0 0 0-.15.22 1.4 1.4 0 0 0-.03.27c0 .04 0 .1.02.17l.03.16-.18-.62a.1.1 0 0 0-.08-.07l-.21-.05c-.05-.02-.06 0-.04.04.22.41.24.84.07 1.3 0 .02-.01.02-.01 0a.76.76 0 0 0-.18-.41c-.02-.04-.06-.05-.1-.04-.18.07-.26.2-.22.4a1.3 1.3 0 0 0-.49-.26c-.4-.05-.7.1-.85.47l-.12-.24a.06.06 0 0 1 0-.06c.04-.04.06-.1.07-.16 0-.03.01-.04.04-.04l.31-.06a2.75 2.75 0 0 1 .6-.09.06.06 0 0 0 .02-.03c0-.02 0-.04-.02-.05l-.7-.44v-.02l-.01-.02-.02-.01-.48.12c.04-.05.1-.1.17-.13.02-.01.03-.03.02-.05a.51.51 0 0 1 .02-.47v-.02a.03.03 0 0 0-.03-.02l-.6-.02h-.05c-.04-.03-.1-.04-.17-.02a.1.1 0 0 1-.06-.01.35.35 0 0 0-.23-.03l.02-.03.3.01a.1.1 0 0 0 .06-.01c.03-.02.05-.02.09 0 0 .02.04.02.09.03.25.03.49.02.73-.03Z" fill="#CD7C61"/><path d="M10.06 5.57h.03c.14.13.2.3.17.5a5.41 5.41 0 0 0-.07-.09.23.23 0 0 0-.08-.08 1.18 1.18 0 0 0-.25-.1l-.12-.15c-.03-.03-.02-.05.02-.05l.3-.03Z" fill="#DBD0C8"/><path d="M6.12 5.61c.08-.01.16 0 .23.03a.1.1 0 0 0 .06 0c.07 0 .13 0 .17.03h.04l.61.02c.02 0 .03 0 .03.02v.02c-.08.15-.09.3-.02.47.01.02 0 .04-.02.05a.66.66 0 0 0-.17.13.67.67 0 0 0-.23.56c0 .02 0 .04.02.05a.5.5 0 0 1 .17.45c.04.09.12.18.22.28.01.02.03.02.05 0 .03-.02.03-.06.02-.12a.19.19 0 0 0 .06-.12c.16-.36.44-.52.85-.47.1.01.27.1.5.26.11.23.27.45.46.66.08.1.17.18.28.22a1.9 1.9 0 0 0 .47.09c.08.01.16.05.23.1.23.18.43.4.6.65.06.1.15.28.26.55.08.2.17.38.27.56l.28.69.38 1.22.17.97.1.87c.01.03 0 .04-.03.04l-.27-.02c-.28-.09-.57-.17-.85-.24a3.02 3.02 0 0 1-.85-.4v-.02h.03a7.55 7.55 0 0 0 1.37.48c.01 0 .03-.01.03-.03a6.46 6.46 0 0 0-.6-3.09 2.79 2.79 0 0 0-1.32-1.32 7.23 7.23 0 0 0-2-.68c-.3-.05-.54-.02-.72.08-.19.1-.34.3-.45.57-.34.87-.7 1.64-1.06 2.32-.15.26-.22.56-.22.89.39-.1.69-.2.9-.3.24-.11.45-.29.62-.53a5.16 5.16 0 0 0 .5-.89c-.12.44-.31.84-.58 1.2a.77.77 0 0 1-.28.22c-.62.32-1.27.46-1.96.41-.02 0-.02 0-.01-.02l.39-.57.12-.14.72-.96.27-.46c.2-.32.28-.65.23-1l.23-.47a.69.69 0 0 0 .08-.23 4.66 4.66 0 0 1 .05-.33 5.18 5.18 0 0 1-.06-.08c-.02-.03-.03-.03-.05 0l-.83 1.38c-.01.02-.02.02-.03 0v-.02l.49-.8a3.58 3.58 0 0 0 .44-1.69l.1-.3a.66.66 0 0 0 .1-.29l.03-.06c.07-.09.11-.19.13-.3 0-.03 0-.03-.02-.03a5.42 5.42 0 0 0-.33.02.56.56 0 0 0-.42.01c-.05.02-.07 0-.06-.05a.15.15 0 0 0-.01-.1.5.5 0 0 1-.05-.22l.12-.13a.05.05 0 0 0 .01-.05V5.6Z" fill="#F1E4F2"/><path d="M5.97 5.83c0 .08.03.15.06.21.01.03.02.06 0 .1 0 .07.01.08.07.06a.56.56 0 0 1 .42 0c-.14-.02-.2 0-.19.04a.36.36 0 0 0-.3.12l-.01.02v.03h.06a.72.72 0 0 0-.07.42c.03.3.13.56.31.76-.05.15-.18.3-.4.43l.22-.5v-.06a1.4 1.4 0 0 1-.22-.5.81.81 0 0 1 .04-.53 4.42 4.42 0 0 0-.03-.3c-.02-.11 0-.21.04-.3ZM9.65 6.72c.07.26.17.5.31.71.03.05.02.11-.04.18a.76.76 0 0 1-.16.17.3.3 0 0 1-.22.06H9.5c-.15-.02-.25-.05-.3-.1-.14-.14-.27-.3-.37-.5h-.04l-.01.03a.04.04 0 0 0 0 .05c.06.1.15.21.28.37.12.15.27.23.43.23l.23.08H9.7h.01a.74.74 0 0 1-.2.04 19.2 19.2 0 0 1 .24.01l-.25.02c-.03 0-.03 0 0 .02a.6.6 0 0 0 .25.01l-.01.01-.21.02a1.1 1.1 0 0 1-.36-.2c-.2-.21-.35-.43-.47-.66-.04-.2.03-.33.21-.4.05-.01.08 0 .11.04.11.14.17.28.18.4v.01c.18-.46.16-.89-.06-1.3-.02-.04 0-.06.04-.04l.21.05a.1.1 0 0 1 .08.07l.18.62Z" fill="#DC9576"/><path d="M8.77 6.35a.26.26 0 0 0-.22-.07l.03-.04c.01-.02 0-.04-.02-.04-.04-.02-.08 0-.1.03-.02.01-.02.04-.02.08-.04-.05-.1-.07-.18-.05a.21.21 0 0 0-.18.14c0-.04-.02-.05-.06-.04a.2.2 0 0 1-.02-.1c0-.03 0-.05.03-.06l.17-.14a.08.08 0 0 1 .05-.02c.15 0 .33.03.52.1.02 0 .03.02.04.04.05.12.1.2.16.27.02.02.01.03 0 .05l-.1.05c-.02.02-.03.03-.02.06.01.08-.04.14-.15.17-.02 0-.04 0-.05-.02v-.05l.1-.06a.06.06 0 0 0 .04-.04c0-.05.02-.1.04-.13a.07.07 0 0 0 0-.06c0-.03-.03-.05-.06-.07Z" fill="#97403C"/><path d="M6.62 6.84v-.33c0-.2 0-.2-.03 0v.04c0 .03-.03.04-.06.02a2.36 2.36 0 0 1-.14-.1c-.05-.02-.08-.04-.1-.03-.04 0-.08.02-.11.03-.04.02-.06.06-.07.13-.06.3.02.55.23.76h.04c.02 0 .02-.01.02-.03 0-.27.04-.33.11-.18v.02l-.14.33-.04.09A1.3 1.3 0 0 1 6 6.83a.72.72 0 0 1 .07-.42c.08-.06.18-.1.3-.13.02 0 .02-.02 0-.03h-.05c0-.06.05-.07.19-.06.04.02.07.02.1 0l.08-.01.15-.01c.02 0 .03 0 .02.03a.71.71 0 0 1-.13.3.12.12 0 0 0-.02.06c-.02.1-.05.2-.1.28Z" fill="#CD7C61"/><path d="M8.55 6.28c-.04.06-.03.12.03.17.03.04.03.08 0 .12-.11.1-.25.1-.41-.03a.06.06 0 0 1-.03-.05v-.04c0-.05.02-.09.05-.12.01-.01.03-.02.05-.01l.17.07c.02 0 .03 0 .03-.03V6.3l.01-.08c.03-.04.07-.05.11-.03.03 0 .03.02.02.04l-.03.04Z" fill="#712018"/><path d="M6.33 6.25h.05c.02.01.02.02 0 .03a.88.88 0 0 0-.3.13.1.1 0 0 0-.03 0h-.03v-.05a.36.36 0 0 1 .31-.11Z" fill="#DBD0C8"/><path d="M7.36 7.48c0 .05-.02.09-.06.12a.41.41 0 0 0-.14-.21c-.04-.03-.09-.01-.15.05a.5.5 0 0 0-.17-.45.08.08 0 0 1-.02-.05c-.02-.21.05-.4.23-.56l.48-.12h.02v.03l.02.02.69.44c.02 0 .02.03.02.05 0 .01 0 .02-.02.03l-.05.02c-.12 0-.3.02-.55.07l-.31.06c-.03 0-.04.01-.04.04-.01.06-.03.12-.06.16a.06.06 0 0 0 0 .06l.11.24Z" fill="#FB9391"/><path d="M8.77 6.35c.01.15-.04.24-.15.27-.03.01-.04 0-.04-.05.03-.04.03-.08 0-.12-.06-.06-.06-.11-.03-.17.08-.01.15.01.22.07Z" fill="#F1E4F2"/><path d="M10.2 6.37c-.07-.02-.1 0-.1.06l.03.06c.02.01.05.02.08 0 .03.06.07.11.12.15-.05 0-.07.03-.07.07 0 .02 0 .04.03.04.08.04.13.08.14.14.02.08.03.18.02.32 0 .02.01.03.03.04h.06c-.03.1-.02.13.02.12l-.05.02a.1.1 0 0 0-.04-.02h-.03l-.2.1c-.06.04-.11.03-.15-.04l-.37-.73v-.05c0-.02.02-.03.04-.03l.24-.04c.03 0 .04-.02.03-.05 0-.04-.04-.07-.08-.1l-.02-.03c0-.02.02-.02.04-.02.04 0 .06-.02.07-.05 0-.03.01-.04.04-.03.04.01.08.04.12.07Z" fill="#CD7C61"/><path d="M9.8 6.32a.12.12 0 0 1 .09-.01l.01.02v.02l-.01.02-.08-.01-.01-.02v-.02Z" fill="#B39E9B"/><path d="M10.2 6.37v.02l.01.1c-.03.02-.06.01-.08 0-.02-.02-.03-.04-.03-.07 0-.06.03-.07.1-.05Z" fill="#DBD0C8"/><path d="m6.62 6.84-.1.31c-.08-.15-.11-.09-.12.18 0 .02 0 .03-.02.04l-.04-.01a.79.79 0 0 1-.23-.76c.01-.07.03-.11.07-.13l.1-.03c.03 0 .06 0 .1.04l.15.09c.03.01.05 0 .06-.02v-.04c.03-.2.04-.2.03 0v.33Z" fill="#97403C"/><path d="M10.33 6.64c.2.16.26.36.2.6v.02h-.06a.05.05 0 0 1-.02-.05c0-.14 0-.24-.02-.32-.01-.06-.06-.1-.15-.14-.02 0-.03-.02-.02-.04 0-.04.02-.06.07-.07Z" fill="#FB9391"/><path d="M6.4 6.9c-.04.04-.06.08-.04.1.02.01.06 0 .1-.04.03-.03.05-.08.03-.1-.02-.01-.06 0-.1.04Z" fill="#DC9576"/><path d="M6.2 9.39c-.26.54-.63.95-1.11 1.21-.06.03-.15.07-.28.11-.08.02-.17.07-.27.13-.1.07-.2.1-.3.13l-.18-.02c-.07-.01-.08-.04-.02-.08l.31-.23L5 10c.16-.1.27-.17.33-.25.37-.5.66-.98.85-1.41.1-.21.16-.5.2-.83l.14-.33c-.04.7-.19 1.25-.45 1.67a138.5 138.5 0 0 0-.48.8v.02c0 .02.02.02.03 0l.83-1.39c.02-.02.03-.02.05 0l.06.1v.08l-.05.24a.69.69 0 0 1-.08.23l-.23.47Z" fill="#F5F5F7"/><path d="M7.3 7.6c.01.06 0 .1-.02.12-.02.02-.04.02-.05 0-.1-.1-.18-.19-.22-.28.06-.06.11-.08.15-.05.06.04.11.11.14.2Z" fill="#B39E9B"/><path d="M10.56 7.38c.13.07.2.2.23.38a.6.6 0 0 1-.1.43c-.03.04-.02.09 0 .13l1.32 1.65a9.02 9.02 0 0 0 1.9 1.77c.01.02-.01.04-.06.06l-.13-.01a2.85 2.85 0 0 1-.82-.2l-.6-.36c-.4-.25-.7-.63-.93-1.15a.05.05 0 0 0-.04-.03l-.05.01v.05l-.27-.57c-.11-.27-.2-.45-.26-.55a2.87 2.87 0 0 0-.6-.65.49.49 0 0 0-.24-.1l-.09-.01a1.9 1.9 0 0 1-.37-.08.67.67 0 0 1-.28-.22c.1.09.23.15.36.2.3.01.54 0 .73-.05.14-.04.24-.11.32-.22.1-.12.1-.24 0-.36a.06.06 0 0 0-.05-.02c-.05 0-.08 0-.11-.03l.09-.06.05-.01Z" fill="#DBD0C8"/><path d="M10.42 7.45c.03.02.06.03.1.03.03 0 .05 0 .06.02.1.12.1.24 0 .36a.56.56 0 0 1-.32.21c-.19.05-.43.07-.73.06l.21-.02h.01V8.1a.6.6 0 0 1-.26-.01c-.02-.01-.02-.02 0-.02l.26-.02a19.2 19.2 0 0 0-.24 0v-.01A.74.74 0 0 0 9.7 8c.02 0 .02 0 0 0l-.22-.08.36-.05c.02 0 .04-.02.06-.04a.3.3 0 0 1 .11-.09.46.46 0 0 0 .12-.08c.09-.08.18-.15.28-.2Z" fill="#B39E9B"/><path d="M6.37 7.5c-.04.34-.1.62-.2.83-.2.44-.48.9-.85 1.41-.06.08-.17.16-.33.25l.09-.12c.2-.25.34-.53.43-.84.03-.1.01-.11-.05-.03l-.12.13a1.8 1.8 0 0 0-.1.14.82.82 0 0 1-.21.2.15.15 0 0 0-.05.05.44.44 0 0 1-.24.2c-.01 0-.02 0-.03-.02v-.02l.13-.1L5.3 9c.22-.24.42-.57.6-.98.23-.14.36-.29.42-.44l.04-.1Z" fill="#DBD0C8"/><path d="m8.1 7.8-.12.06c-.04.02-.05.01-.01-.02.1-.1.2-.16.32-.16.05 0 .06.01.02.04a.1.1 0 0 0-.04.05v.06c.08.16.16.27.24.34.22.18.47.3.76.34l.02.02c0 .01-.01.02-.02.01-.18-.03-.37-.08-.6-.14a.48.48 0 0 1-.18-.11 1.48 1.48 0 0 1-.32-.46c-.02-.03-.04-.04-.06-.03Z" fill="#712018"/><path d="m10.44 13.28-.2-.11c-.05-.06 0-.1.14-.12a.33.33 0 0 0 .16-.07c.05-.04.08-.1.1-.17.09-.37.1-.75.06-1.15a1.1 1.1 0 0 0-.4-.76c-.12-.11-.24-.14-.33-.1a.7.7 0 0 0-.23.2l-.11.13c-.15.15-.32.15-.51 0-.17-.12-.35-.29-.52-.5a10.21 10.21 0 0 1-.65-.9.32.32 0 0 0-.14-.12.08.08 0 0 0-.07.01.08.08 0 0 0-.04.06c-.04.22-.04.46 0 .7a1.67 1.67 0 0 0-.23-.55 6.27 6.27 0 0 0-.2-.57c-.06-.14-.15-.18-.27-.13-.06.02-.13.1-.23.26-.24.39-.45.78-.64 1.17-.2.42-.4.82-.63 1.21-.12.21-.2.43-.23.66 0-.33.07-.63.21-.89.37-.68.73-1.45 1.07-2.32.11-.28.26-.47.45-.57.18-.1.42-.13.71-.08a6.58 6.58 0 0 1 2 .68 2.79 2.79 0 0 1 1.31 1.32 6.46 6.46 0 0 1 .6 3.08c.01.03 0 .04-.02.03-.4-.1-.78-.24-1.16-.4Z" fill="#F5F5F7"/><path d="m7.47 9.82-.02.25-.05.24-.12.4-.08.17c-.17.34-.3.58-.4.72-.18.24-.39.42-.63.52-.21.1-.51.2-.9.3.03-.22.1-.44.23-.65.23-.4.44-.8.63-1.2.19-.4.4-.8.64-1.18.1-.15.17-.24.23-.26.12-.05.21 0 .27.13.08.19.15.38.2.56Z" fill="#fff"/><path d="M5.08 9.86 4.6 9.8c-.02 0-.03-.02-.01-.04a.2.2 0 0 1 .1-.07l.01.02c0 .02.02.02.03.02.1-.04.18-.1.24-.2a.15.15 0 0 1 .05-.05.82.82 0 0 0 .2-.2A1.8 1.8 0 0 1 5.47 9c.06-.08.08-.07.05.02-.09.32-.23.6-.43.84Z" fill="#696868"/><path d="M10.24 13.17a9.52 9.52 0 0 1-1.03-.67c-.2-.16-.41-.35-.62-.58a3.4 3.4 0 0 1-.5-.69 7.2 7.2 0 0 1-.38-.85 2.23 2.23 0 0 1-.01-.7c0-.03.02-.05.04-.06a.08.08 0 0 1 .07 0c.05.01.1.05.14.1l.22.32.43.6c.18.2.35.37.52.5.2.14.36.14.5-.01l.12-.13a.7.7 0 0 1 .23-.21c.1-.04.2 0 .34.1.23.2.36.45.4.77.04.4.02.78-.07 1.15a.32.32 0 0 1-.1.17.33.33 0 0 1-.16.07c-.14.02-.19.06-.14.12Z" fill="#fff"/><path d="m5.96 10.4.16-.63h-.04c-.06.21-.13.35-.2.41-.16.12-.27.22-.34.29-.11.1-.23.2-.36.26-.17.1-.34.18-.51.25H4.5l-.28-.01c.1-.02.21-.06.31-.13.1-.06.2-.1.27-.13l.28-.1c.48-.27.85-.68 1.1-1.22.05.35-.03.68-.23 1ZM7.7 10.38c.12.3.25.58.4.85.13.25.3.48.49.69.2.23.41.42.62.58.26.2.6.42 1.03.67l.2.1a.4.4 0 0 1-.2-.07h-.02l-.01.02c.35.23.63.36.85.41.28.07.57.15.84.24l-.53-.03a18.87 18.87 0 0 0-1.73-.51l-1.09-.5a1.3 1.3 0 0 1-.35-.22l-.3-.32a1.96 1.96 0 0 1-.22-.43 3.4 3.4 0 0 0-.26-.48c-.01 0-.02 0-.03.02-.05.1-.12.24-.18.43l-.14.33c-.06.1-.14.2-.24.25-.25.15-.52.26-.83.35a.32.32 0 0 0-.18.02l-1.5-.14a.05.05 0 0 1-.05-.03l.01-.06.57-.6-.4.57a3.74 3.74 0 0 0 1.98-.38c.12-.07.21-.14.28-.23.27-.36.46-.76.57-1.2l.12-.4.05-.24.02-.25c.1.15.18.34.23.56Z" fill="#DBD0C8"/><path d="m5.96 10.4-.27.45c-.36.1-.7.15-1.02.12.17-.06.34-.14.51-.24.13-.07.25-.16.36-.26.07-.08.18-.17.33-.3.08-.05.15-.19.2-.4h.05l-.16.62ZM13.72 11.78a2.94 2.94 0 0 1-1.26-.07 24.4 24.4 0 0 1-.62-.45 7.79 7.79 0 0 0-.25-.53l-.02.01-.01.05-.28-.69v-.04a.05.05 0 0 1 .05-.02c.02 0 .03.02.04.03.23.52.54.9.92 1.16.1.07.3.19.61.36.13.07.4.13.82.2Z" fill="#B39E9B"/><path d="m13.72 11.79.12.01-.78.24c-.39.05-.75.01-1.08-.13-.02-.01-.04.02-.04.1l-.38-1.22v-.04c0-.02.02-.02.03-.02l.02.01a7.79 7.79 0 0 1 .27.57c.27.2.46.33.58.4l.11.05c.38.08.76.09 1.15.03Z" fill="#696868"/><path d="m5.7 10.85-.73.96a2.33 2.33 0 0 1-.46-.83h.16c.31.02.66-.02 1.02-.13Z" fill="#111"/><path d="m11.37 13.84-.7-.1-.81-.2c-.3-.18-.61-.32-.95-.4a.85.85 0 0 1-.21-.08 1.61 1.61 0 0 0-.21-.1c-.1-.03-.2-.1-.3-.18a7.25 7.25 0 0 0-.57-.4l-.63.25c-.15.06-.48.1-1 .13.32-.09.6-.2.84-.35.1-.06.18-.14.24-.25l.14-.33c.06-.19.13-.33.18-.43l.03-.02a3.4 3.4 0 0 1 .26.47c.1.23.17.37.22.44l.3.32c.09.08.2.16.35.23l1.09.48a18.92 18.92 0 0 1 1.74.51Z" fill="#B39E9B"/><path d="M13.06 12.04c-.29.37-.6.68-.95.94l-.17-.97c0-.08.02-.11.04-.1.33.14.7.18 1.08.13ZM7.62 12.38a3.54 3.54 0 0 0 2.24 1.16l.8.2a4.96 4.96 0 0 1-4.85-.95.32.32 0 0 1 .19-.03c.51-.03.84-.07 1-.13l.62-.25Z" fill="#111"/><path d="M9.86 13.54a3.54 3.54 0 0 1-2.24-1.16l.57.4c.1.08.2.15.3.18l.2.1.22.08c.34.08.65.22.95.4Z" fill="#696868"/></svg>