<!-- by TradingView --><svg width="18" height="18" viewBox="0 0 18 18" xmlns="http://www.w3.org/2000/svg"><path fill="#fff" d="M0 0h18v18H0z"/><path d="M13.5 11.2a.08.08 0 0 1-.08-.07v-.04A4.53 4.53 0 0 0 9 5.5a4.53 4.53 0 0 0-4.42 5.64.09.09 0 0 1-.05.06l-.04.01a.08.08 0 0 1-.07-.05 5.2 5.2 0 0 1 .4-4.84A5.02 5.02 0 0 1 9 4a5.02 5.02 0 0 1 4.98 4.68 5.19 5.19 0 0 1-.43 2.5.08.08 0 0 1-.04.02ZM9 13c.7 0 1.38-.28 1.87-.8a2.73 2.73 0 0 0 0-3.8 2.62 2.62 0 0 0-3.74 0 2.73 2.73 0 0 0 0 3.8c.5.52 1.17.8 1.87.8Z" fill="#8267E3"/></svg>