<!-- by TradingView --><svg width="18" height="18" viewBox="0 0 18 18" xmlns="http://www.w3.org/2000/svg"><path fill="#009682" d="M0 0h18v18H0z"/><path d="M6.95 7.8H7v4.95c0 .03-.09.05-.12.06L5.04 13A.03.03 0 0 1 5 13v-.02H5V5.02l.02-.02h.01L5.06 5H7.9l.01.03L9 9.2l.01.01a.03.03 0 0 0 .03 0l1.08-4.15c0-.02.01-.03.03-.04a.1.1 0 0 1 .05-.02h2.77l.03.01.01.03v7.24c0 .01 0 .03-.02.04a.07.07 0 0 1-.04.01l-1.8.08a.04.04 0 0 1-.03 0v-.01l-.11-.02V7.74l.1-.01h-.02l-1.26 4.78-.01.01h-.02l-1.53.17h-.04l-.01-.03L6.95 7.8Z" fill="#fff"/></svg>