<!-- by TradingView --><svg width="18" height="18" viewBox="0 0 18 18" xmlns="http://www.w3.org/2000/svg"><path fill="url(#a)" d="M0 0h18v18H0z"/><path d="M12.08 7.06c.16-.15.4-.14.5.02.11.17.2.36.25.55.03.12 0 .25-.1.34l-3.07 2.98c-.18.18-.41.3-.66.35l-.25.06c-.25.05-.48.17-.66.35L5.73 14c-.1-.38-.14-.63.17-.93l6.18-6Zm.67 1.29c.1-.1.26-.05.25.08-.07.8-.46 1.65-1.16 2.34-.54.57-2.05 1.44-3.13 2.02-.22.12-.4-.13-.22-.31l4.26-4.13Zm-1.42-2.5c.1-.09.24-.1.34-.04.2.13.4.33.5.57.03.09 0 .2-.08.28l-3.3 3.2c-.19.19-.42.31-.66.36l-.26.06c-.24.05-.47.17-.66.35l-2.04 1.98c-.1-.38-.05-.72.27-1.02l5.9-5.73Zm-1.4-.56a.66.66 0 0 1 .67-.17c.14.05.27.1.39.18.16.1.17.33.02.48L7.99 8.7a.84.84 0 0 1-.64.25.89.89 0 0 0-.67.25l-1.65 1.6c-.1-.37.03-.79.34-1.1l.54-.52 4.02-3.9ZM9.45 5c.15 0 .2.17.1.27l-2.89 2.8-.33.32-.5.5h-.01c-.1.1-.27 0-.2-.12l.49-1.1.1-.2c.28-.6.74-1.22 1.17-1.64A2.7 2.7 0 0 1 9.45 5Z" fill="url(#b)"/><defs><linearGradient id="a" x1="3.35" y1="3.12" x2="21.9" y2="24.43" gradientUnits="userSpaceOnUse"><stop stop-color="#1A1E21"/><stop offset="1" stop-color="#06060A"/></linearGradient><linearGradient id="b" x1="14.49" y1="5.01" x2="6.77" y2="14.2" gradientUnits="userSpaceOnUse"><stop stop-color="#F5BD00"/><stop offset=".36" stop-color="#F54B00"/><stop offset="1" stop-color="#6E45FF"/></linearGradient></defs></svg>