<!-- by TradingView --><svg width="18" height="18" viewBox="0 0 18 18" xmlns="http://www.w3.org/2000/svg"><path fill="#F0F3FA" d="M0 0h18v18H0z"/><path d="M14.8 9.95 12.2 5.67c-.57-.9-1.98-.9-2.53.04L6.9 10.16c-.5.82.12 1.84 1.15 1.84h5.52c1.04 0 1.81-1.05 1.23-2.05Z" fill="#003087"/><path d="m11 10.28-.15-.26-.48-.78L8.2 5.6c-.56-.8-1.9-.87-2.46.15l-2.54 4.2c-.53.88.1 2.03 1.24 2.04H13.48c-1.39 0-1.83-.7-2.47-1.72Z" fill="#1877F2"/><path d="m11 10.26-.15-.26-.49-.78-1.42-2.36-2.1 3.3C6.35 10.98 6.98 12 8 12h5.49c-1.43 0-1.84-.7-2.48-1.74Z" fill="url(#aawr2sfcb)"/><defs><linearGradient id="aawr2sfcb" x1="6.12" y1="8.67" x2="12.38" y2="11.12" gradientUnits="userSpaceOnUse"><stop stop-color="#003087" stop-opacity="0"/><stop offset="1" stop-color="#003087"/></linearGradient></defs></svg>