<!-- by TradingView --><svg width="18" height="18" viewBox="0 0 18 18" xmlns="http://www.w3.org/2000/svg"><path fill="url(#a)" d="M0 0h18v18H0z"/><path d="M9.02 6c.9.03 1.6.4 2.13 1.13h.04v.04a2.81 2.81 0 0 1-.02 3.17c-.28.39-.64.68-1.06.88-.8.35-1.65.32-2.42-.08.03-.1.02-.19.02-.26a119.14 119.14 0 0 0 .02-1.83l.12.26c.23.53.89.82 1.44.7.96-.2 1.34-1.42.65-2.15-.27-.28-.6-.42-1.01-.4a5.4 5.4 0 0 1-1.65-.8 3.12 3.12 0 0 1-.6-.65V6h2.34ZM5.57 6.17c.53.2.95.54 1.26 1-.32.51-.37 1-.38 1.52v2.1c-.32.26-.77.49-1.15.59l-.43.07A5.07 5.07 0 0 1 5.5 9.7c.69-.7.48-1.85-.45-2.17-.98-.33-1.87.59-1.6 1.59.03.15.1.28.2.4.33.44.77.6 1.31.48.1-.03.2-.08.3-.1l-.01.04-.4.4a1.66 1.66 0 0 1-2.47-.2 2.8 2.8 0 0 1 .6-3.52 2.62 2.62 0 0 1 2.6-.46Z" fill="#2DA9E1"/><path d="M16 8.53a5.92 5.92 0 0 1-1.62-.6 16.1 16.1 0 0 0-.55-.38c-.4-.16-.86-.11-1.2.15-.45.34-.63.99-.43 1.52.38 1 1.74 1.12 2.26.18.2-.38.23-.83.03-1.23a2.05 2.05 0 0 1-.07-.13l.32.32.3.34a1.78 1.78 0 0 1 0 2l-.12.2-.34.25c-1.2.63-2.6.28-3.4-.81l.01-.03c.64-.95.64-2.19 0-3.14v-.04a2.6 2.6 0 0 1 3.08-.95 2.7 2.7 0 0 1 1.72 2.35ZM8.93 7.45c-.45.06-.84.28-1.04.65-.12.2-.17.42-.16.67v2.86c0 .64-.42 1.35-1.25 1.37a.03.03 0 0 1-.02-.02V8.67c0-.52.05-1.03.37-1.51.13-.18.28-.34.45-.5a5.4 5.4 0 0 0 1.65.78Z" fill="#fff"/><path d="M16 8.53c.03.6-.1 1.17-.42 1.69-.17.29-.4.52-.66.68a6.07 6.07 0 0 1 .25-.42 1.78 1.78 0 0 0-.43-2.12l-.32-.32c-.02-.02-.04-.06-.04-.1.52.27 1.05.47 1.61.59Z" fill="#2DA9E1"/><path d="m5.5 9.7-.04.08a5.07 5.07 0 0 0-.59 1.67 2.6 2.6 0 0 1-2.47-1.29c.32.39.72.6 1.2.63.47.03.89-.12 1.25-.44a7.72 7.72 0 0 0 .4-.44l.24-.2Z" fill="#fff"/><defs><linearGradient id="a" x1="14.75" y1="2.15" x2="3.02" y2="16.11" gradientUnits="userSpaceOnUse"><stop stop-color="#0E70B7"/><stop offset="1" stop-color="#223369"/></linearGradient></defs></svg>