<!-- by TradingView --><svg width="18" height="18" viewBox="0 0 18 18" xmlns="http://www.w3.org/2000/svg"><path fill="url(#ac0ugh03m)" d="M0 0h18v18H0z"/><path fill-rule="evenodd" d="M9 13.3a4.3 4.3 0 1 0 0-8.6 4.3 4.3 0 0 0 0 8.6Zm0 .7A5 5 0 1 0 9 4a5 5 0 0 0 0 10Z" fill="#FDC903"/><path d="M11.86 5.25a4.7 4.7 0 0 1 1.81 3.15l-2.01 1.54-1.98-1.52 2.5-1.9-.4-1.27h.08ZM4.33 8.39a4.7 4.7 0 0 1 1.81-3.14h.08l-.4 1.27 2.5 1.9-1.98 1.52-2.01-1.55Zm4.98 5.3a4.68 4.68 0 0 0 1.98-.57l.37-.29-.44-1.4-1.9 1.45v.82Zm-.62 0v-.8l-1.9-1.46h-.01l-.44 1.4.37.28c.6.33 1.26.54 1.98.59Zm.62-6.9 2-1.54.35 1.1L9.3 8.13V6.78Zm2.34 3.72L9.32 8.72v3.6l2.34-1.8-.01-.01ZM6.68 5.25l2 1.53v1.35L6.35 6.34l.34-1.09Zm-.33 5.26v.01l2.34 1.8v-3.6L6.35 10.5Z" fill="#FDC903"/><defs><linearGradient id="ac0ugh03m" x1="3.35" y1="3.12" x2="21.9" y2="24.43" gradientUnits="userSpaceOnUse"><stop stop-color="#1A1E21"/><stop offset="1" stop-color="#06060A"/></linearGradient></defs></svg>