<!-- by TradingView --><svg width="18" height="18" viewBox="0 0 18 18" xmlns="http://www.w3.org/2000/svg"><path fill="#fff" d="M0 0h18v18H0z"/><path d="M10.22 4h-.12a1584.25 1584.25 0 0 1-3.52.3.4.4 0 0 0-.17.1L5.06 5.68c-.05.04-.07.08-.08.12v.04c.03.03.06.05.1.06l1.98.56a.17.17 0 0 0 .15-.03l1.04-.76 2-1.46c.04-.03.06-.07.06-.12a.09.09 0 0 0-.09-.09Zm1.77 9.38 1.86-4.82.14-.38a.12.12 0 0 0 0-.1 594.47 594.47 0 0 1-2.35-3.95c-.04-.06-.08-.08-.14-.05a2077.49 2077.49 0 0 1-2.94 2.14l-1 .74a.12.12 0 0 0-.05.1 1140.18 1140.18 0 0 0 .02 1.7.07.07 0 0 0 .07.06c.06 0 .12-.02.18-.04l2.85-.8a.22.22 0 0 1 .12 0l.03.01a672.7 672.7 0 0 0 .02 2.59 210.62 210.62 0 0 0 1 2.78c.02.04.06.07.12.07a.07.07 0 0 0 .07-.05ZM7.9 11.95l-1.09.73-.02.02c-.07.04-.12.08-.2 0A1080.53 1080.53 0 0 1 4 10.38v-.05l.31-2.42.2-1.42c0-.1.06-.13.15-.1l2.13.58c.05.02.08.06.08.12a1746.46 1746.46 0 0 0 .02 2.48l.03.03c.04.01.08.02.11 0 .05 0 1.02-.29 2.91-.83.06-.02.1-.02.14 0a.1.1 0 0 1 .06.08v1.54a.13.13 0 0 1-.06.1l-2.17 1.46Zm-.2 1.2a699.23 699.23 0 0 1 3.46.84c.13.04.17-.06.13-.16a2172.88 2172.88 0 0 1-.99-2.6.05.05 0 0 0-.04 0 .26.26 0 0 0-.1.03 429.25 429.25 0 0 1-2.51 1.68.2.2 0 0 0-.06.07c-.01.02-.01.05 0 .07.03.04.06.06.1.07Z" fill="url(#a)"/><defs><linearGradient id="a" x1="14" y1="4" x2="9" y2="16.29" gradientUnits="userSpaceOnUse"><stop stop-color="#3194FE"/><stop offset="1" stop-color="#0662C5"/></linearGradient></defs></svg>