<!-- by TradingView --><svg width="18" height="18" viewBox="0 0 18 18" xmlns="http://www.w3.org/2000/svg"><path fill="#74A539" d="M0 0h18v18H0z"/><path d="M6.11 3.74a6 6 0 1 1 5.78 10.52A6 6 0 0 1 6.1 3.74Zm3.38-.37a5.65 5.65 0 1 0-.98 11.26 5.65 5.65 0 0 0 .98-11.26Z" fill="#fff"/><path d="M8.65 5.2c0 .07.03.15.09.2.05.06.13.1.2.1v-.52c-.29-.07-.42-.15-.42-.38 0-.1.04-.21.12-.29.08-.08.2-.12.3-.12v-.13h.13v.13c.22.03.36.16.41.39H9.3a.26.26 0 0 0-.07-.15.3.3 0 0 0-.16-.08v.49l.12.03c.1.01.18.06.24.13.06.06.1.15.1.23 0 .26-.2.41-.46.43v.16h-.12v-.16a.52.52 0 0 1-.34-.14.45.45 0 0 1-.14-.32h.18Zm.3-.85a.26.26 0 0 0-.18.07.21.21 0 0 0-.07.17c0 .13.1.18.25.22v-.46Zm.12 1.15c.15 0 .27-.08.27-.25 0-.15-.12-.2-.27-.24v.5ZM5.47 11.8h.12a.5.5 0 0 1-.1-.3c0-.24.23-.38.49-.38.31 0 .5.16.5.48H6.3c0-.21-.1-.34-.31-.34a.33.33 0 0 0-.21.07.26.26 0 0 0-.07.08.23.23 0 0 0-.02.1c0 .1.04.2.1.28h.35v.09h-.3c.03.04.05.1.05.14 0 .17-.12.26-.25.36a.6.6 0 0 1 .23-.06c.07 0 .13.02.2.03l.18.04c.07 0 .13-.03.19-.07l.09.12c-.09.06-.2.1-.31.09a.78.78 0 0 1-.21-.04.84.84 0 0 0-.23-.04.4.4 0 0 0-.2.07l-.1-.13a.46.46 0 0 0 .15-.14.4.4 0 0 0 .08-.2.43.43 0 0 0-.06-.17h-.18v-.09ZM12.09 11.4a.4.4 0 0 0-.28-.14.3.3 0 0 0-.24.13.6.6 0 0 0-.11.25H12l-.05.12h-.51v.1h.48l-.05.11h-.42c.04.28.16.41.36.41.06 0 .12 0 .17-.03l.13-.1v.2a.55.55 0 0 1-.3.08c-.31 0-.5-.19-.55-.56h-.15l.05-.11h.09v-.04a.6.6 0 0 1 0-.06h-.14l.05-.12h.1a.73.73 0 0 1 .18-.37.49.49 0 0 1 .37-.15c.13 0 .25.04.36.12l-.1.16ZM5.2 8.3h-.26v-.12h.27V8.1l-.04-.06h-.23v-.12h.17l-.34-.69h.2l.33.7.33-.7h.2l-.34.69h.17v.12h-.24l-.03.06v.08h.27v.12H5.4v.35H5.2V8.3ZM12.85 7.74h-.13c-.03 0-.06 0-.09.03a.11.11 0 0 0-.04.07l-.08.32h.22l-.03.13h-.21l-.12.6c-.06.36-.17.46-.4.46h-.15l.03-.15c.23 0 .27-.02.3-.2l.15-.7h-.2l.03-.14h.2l.06-.31a.3.3 0 0 1 .1-.2.34.34 0 0 1 .23-.06h.16l-.03.15ZM9 6a2.2 2.2 0 0 0-1.5.6 2.04 2.04 0 0 0-.62 1.45c0 .71.93 1.66.93 2.12v.42c0 .1.04.21.12.29.08.08.2.12.3.12h1.54c.1 0 .22-.04.3-.12a.4.4 0 0 0 .12-.29v-.42c0-.46.93-1.4.93-2.12a1.97 1.97 0 0 0-.62-1.45A2.13 2.13 0 0 0 9 6ZM9 13c.08 0 .16-.02.23-.06.08-.04.15-.1.2-.16h-.88c.06.07.13.12.2.16.08.04.16.06.24.06Zm.74-1.7h-1.5c-.13 0-.24.11-.24.27 0 .16.11.3.24.3h1.5c.14 0 .26-.13.26-.3 0-.17-.12-.27-.26-.27Zm0 .72h-1.5a.23.23 0 0 0-.17.1.34.34 0 0 0-.07.2c0 .16.11.25.24.25h1.5c.14 0 .26-.08.26-.25 0-.04 0-.08-.02-.12a.3.3 0 0 0-.06-.1.25.25 0 0 0-.08-.06.21.21 0 0 0-.1-.02Z" fill="#fff"/></svg>