<!-- by TradingView --><svg width="18" height="18" viewBox="0 0 18 18" xmlns="http://www.w3.org/2000/svg"><path fill="#0048FF" d="M0 0h18v18H0z"/><path fill-rule="evenodd" d="M9.75 4.92a2.77 2.77 0 0 0-1.56-.01l-.02-.02-.32-.6a.75.75 0 0 0-.14-.2.37.37 0 0 0-.54.07.38.38 0 0 0-.01.4 31.05 31.05 0 0 0 .35.69l-.02.02a2.63 2.63 0 0 0-.85.84h-.02a2.42 2.42 0 0 0-2.08.92c-.6.77-.72 1.87-.26 2.74.29.56.73.95 1.3 1.18.33.12.72.13 1.07.12l.02.01L8.98 14A.02.02 0 0 0 9 14h.01l2.33-2.9a.07.07 0 0 1 .06-.03A2.51 2.51 0 0 0 14 8.47a2.59 2.59 0 0 0-.82-1.71 2.49 2.49 0 0 0-1.88-.65s-.02 0-.02-.02a6.26 6.26 0 0 1-.14-.18 2.58 2.58 0 0 0-.68-.66v-.03l.3-.58c.07-.1.1-.18.1-.23a.4.4 0 0 0-.08-.27.36.36 0 0 0-.6.05 26.76 26.76 0 0 0-.4.73h-.03Zm-.81 2.73.04.06a.02.02 0 0 0 .03 0c.1-.16.22-.33.36-.51a2.76 2.76 0 0 1 1-.87v-.01l-.01-.02c-.26-.3-.65-.58-1.04-.64a1.69 1.69 0 0 0-1.22.2 2.5 2.5 0 0 0-.5.46v.01c.6.26.97.8 1.34 1.32Zm2.03 2.42c.98.4 2.06-.35 2.08-1.44C13.06 7.55 12 6.76 11 7.15a3.45 3.45 0 0 0-1.5 1.44l.02.03c.33.58.84 1.2 1.44 1.45ZM8.2 9.1h-.02l-.22.24c-.45.5-1.04.96-1.73.85-.46-.07-.81-.3-1.07-.7a1.6 1.6 0 0 1 .02-1.72c.22-.34.54-.56.94-.66.46-.1.97.04 1.34.34.4.34.73.74 1 1.2l.25.43a4.45 4.45 0 0 0 1.61 1.69L9.01 12.4a.01.01 0 0 1-.02 0l-1.3-1.64a.03.03 0 0 1-.01-.03.03.03 0 0 1 .01-.02 5.32 5.32 0 0 0 1.03-.88v-.01L8.2 9.1Z" fill="#fff"/></svg>