<!-- by TradingView --><svg width="18" height="18" viewBox="0 0 18 18" xmlns="http://www.w3.org/2000/svg"><path fill="#FF0A6F" d="M0 0h18v18H0z"/><path fill-rule="evenodd" d="m6.46 6.66.2.18.02.03.02.02c.09.13.06.24-.1.33a.91.91 0 0 1-.34.1c-.1 0-.14-.04-.14-.04l-.02-.02A261.29 261.29 0 0 0 4.98 5.5l.72 1.34c.1.22.05.33.03.39v.03c0 .08-.03.13-.13.24-.16.19-.24.4-.3.83-.05.5-.22.84-.68 1.43-.27.34-.32.4-.39.55a1.57 1.57 0 0 0-.04 1.1c.07.2.13.33.3.59.13.22.22.39.22.45 0 .05 0 .05.22 0 .53-.12.95-.33 1.2-.6.14-.15.18-.24.18-.46 0-.15 0-.18-.05-.26-.06-.14-.17-.25-.42-.42-.33-.23-.47-.41-.5-.67-.04-.2 0-.35.18-.74.19-.4.23-.57.27-.98.02-.26.04-.36.12-.44.07-.09.14-.12.33-.15.31-.04.5-.12.67-.27a.6.6 0 0 0 .2-.45l.02-.15-.08-.1A78.87 78.87 0 0 0 4 4l.2.27a19.85 19.85 0 0 0 2.26 2.39Zm-1.6 4.4a.26.26 0 0 0-.07-.33c-.1-.07-.26-.04-.26.05a.07.07 0 0 0 0 .03l.02.02.02.01c.06.04.07.07.02.14-.04.07-.04.13.01.17.09.07.2.03.27-.08Z" fill="#fff"/><path d="m6.7 4.71.03-.01c.11-.02.38 0 .57.05.43.1.83.37 1.25.85l.11.13.16-.02a3.32 3.32 0 0 1 1.94.24c.16.08.4.23.44.27l.04.17a1.1 1.1 0 0 1-.1.74v.02c-.01.03 0 .06.01.11.03.06.1.1.17.1.14 0 .3-.23.37-.56l.03-.13.05.07c.31.35.55.84.6 1.18v.1l-.05-.09a1 1 0 0 0-.29-.31c-.2-.14-.43-.19-1-.22a4 4 0 0 1-1.11-.17c-.5-.17-.75-.39-1.34-1.18a5.76 5.76 0 0 0-.59-.7 2.08 2.08 0 0 0-1.3-.64Z" fill="#fff"/><path d="M11.32 5.52a1.46 1.46 0 0 1 .15-.64l-.02.1c-.05.13-.05.32-.02.54.04.28.06.32.35.62.14.14.3.32.35.4l.1.13-.1-.1a4.44 4.44 0 0 0-.53-.4c-.01 0-.02 0-.03.02-.02.02-.03.06-.03.23 0 .28-.04.46-.13.64-.05.1-.06.07-.02-.04.04-.08.04-.11.04-.38 0-.54-.06-.67-.43-.89a3.73 3.73 0 0 0-.5-.26l.5.15c.22.09.26.1.28.09.02-.01.03-.06.04-.21ZM6.66 5.1c-.03.42.13.97.39 1.33.2.29.5.5.73.52.15.02.2-.03.13-.13-.1-.14-.2-.36-.24-.45a5.03 5.03 0 0 1-.1-.38c-.1-.5-.2-.7-.45-.86A1.45 1.45 0 0 0 6.73 5l-.06-.02v.13ZM11 9.13c-1.2-.5-1.62-.93-1.62-1.65v-.2l.1.08c.25.2.53.29 1.28.4.45.07.7.12.93.2.73.25 1.19.75 1.3 1.44.03.2 0 .58-.04.77a1.5 1.5 0 0 1-.2.45l-.01-.02-.01-.06a1 1 0 0 0-.35-.7A4.83 4.83 0 0 0 11 9.13ZM10.1 9.07l.06.26c.1.59-.2 1.06-.8 1.25a1.82 1.82 0 0 1-.29.06l-.1.02-.14.03c-.48.08-.7.13-.91.24-.15.07-.34.19-.33.2h.02a3.5 3.5 0 0 1 1.29-.2l.09-.01h.08l.04-.01h.05c.4-.06.69-.19.9-.41.13-.13.2-.25.26-.42.04-.1.05-.14.05-.33 0-.2 0-.23-.05-.34a1.06 1.06 0 0 0-.2-.36l-.05-.07.03.1Z" fill="#fff"/><path d="M10.71 10.33c-.16-.35-.2-.69-.1-1l.02-.06.04.01.05.03.61.36c.5.27.77.48.96.73.17.2.27.45.32.74.03.17.02.57-.03.74a1.82 1.82 0 0 1-1 1.25v-.03l.05-.1c.15-.32.17-.62.05-.96a4.1 4.1 0 0 0-.48-.9c-.33-.5-.41-.63-.49-.8ZM7.7 11.49c-.5.08-1.06.35-1.5.74l-.14.11.12.02c.6.1.77.19 1.2.63.24.26.32.31.52.37.3.07.59-.07.69-.34a.63.63 0 0 0-.01-.42c-.13-.24-.48-.32-.65-.14-.15.14-.1.36.07.4.04.01.04 0 0-.01-.09-.04-.12-.09-.12-.17 0-.19.2-.3.4-.2.14.06.2.15.2.3 0 .23-.2.4-.42.38a.6.6 0 0 1-.34-.19.47.47 0 0 1 .15-.72c.21-.11.5-.08.71.06.25.17.36.32.57.82.07.16.16.35.2.4.2.32.45.47.74.47.16 0 .28-.03.44-.1a.95.95 0 0 0 .26-.19l-.1.03c-.33.13-.65.12-.84-.02a.84.84 0 0 1-.26-.49l-.07-.37a1.83 1.83 0 0 0-.27-.84 1.34 1.34 0 0 0-.77-.5 2.3 2.3 0 0 0-.78-.03Z" fill="#fff"/><path fill-rule="evenodd" d="M7 8.18a.55.55 0 0 1 .32-.37c.1-.03.28-.01.37.04.18.09.3.3.28.44-.04.18-.32.33-.66.33-.16 0-.23-.02-.3-.11-.03-.05-.05-.23-.02-.33Zm.65-.27c.09.06.1.14.06.2-.04.06-.15.1-.23.1-.12 0-.25-.08-.25-.16 0-.16.25-.24.42-.14Z" fill="#fff"/></svg>