<!-- by TradingView --><svg width="18" height="18" xmlns="http://www.w3.org/2000/svg"><path fill="#2462DF" d="M0 0h18v18H0z"/><path d="M14.93 6h-4.667l.54 1.714-.756-.235L8.469 12h2.049l.666-2h2.347c.339-.023.669-.054.967-.219.298-.165.557-.393.76-.67.14-.179.253-.378.335-.591v-.064l.297-.857C16.22 6.716 15.78 6 14.93 6zm-1.077 1.599l-.306.887c-.118.324-.427.485-.768.514h-1.247l.713-2h1.247c.31-.009.471.286.361.59v.009zm-5.97.115L9.58 6H7.26l-1.728 5H4.51c-.298.003-.471-.323-.352-.581L5.68 6H3.61l-1.499 4.35s-.034.094-.038.116a1.51 1.51 0 00-.042.775c.013.053.03.105.05.155.037.098.09.19.158.27.114.128.26.223.424.274.084.03.17.05.259.06h4.32l1.552-4.543-.912.257z" fill="#fff"/></svg>