<!-- by TradingView --><svg width="18" height="18" viewBox="0 0 18 18" xmlns="http://www.w3.org/2000/svg"><path fill="#2C3852" d="M0 0h18v18H0z"/><path d="M10 7.53H8L6.5 9 9 11.5 11.5 9 10 7.53Z" fill="#fff"/><path fill-rule="evenodd" d="M11.89 8.41c.33.34.33.89 0 1.23l-2.24 2.24a.86.86 0 0 1-1.2.01L6.12 9.66a.87.87 0 0 1 .01-1.26l1.39-1.3c.16-.15.37-.1.58-.1H10c.23 0 .45-.04.6.12l1.3 1.3ZM8.1 6H10c.46 0 .9.18 1.22.5l1.29 1.3c.67.68.67 1.77 0 2.45l-2.24 2.24c-.66.67-1.73.68-2.4.03l-2.33-2.24c-.71-.69-.7-1.83.01-2.5l1.39-1.31c.32-.3.74-.47 1.17-.47Z" fill="#fff"/><path fill-rule="evenodd" d="M7.93 5h2.2c.78 0 1.53.33 2.06.91l1.08 1.2c1 1.1.97 2.8-.08 3.86l-2.2 2.21a2.77 2.77 0 0 1-3.9.03L4.84 11a2.81 2.81 0 0 1-.07-3.94l1.15-1.2A2.77 2.77 0 0 1 7.93 5Zm0 .84h2.2c.55 0 1.07.23 1.44.64l1.09 1.2c.7.77.67 1.96-.06 2.7l-2.2 2.2c-.75.76-1.97.77-2.73.03l-2.25-2.2a1.97 1.97 0 0 1-.05-2.76l1.15-1.2c.37-.4.88-.61 1.41-.61Z" fill="#fff"/></svg>