<!-- by TradingView --><svg width="18" height="18" viewBox="0 0 18 18" xmlns="http://www.w3.org/2000/svg"><path fill="url(#a)" d="M0 0h18v18H0z"/><path d="M11.03 5.16a.55.55 0 0 1 .78 0l1.03 1.03c.21.22.21.56 0 .78L10.8 9l2.03 2.02c.21.22.21.56 0 .78l-1.04 1.03a.55.55 0 0 1-.77 0L9 10.81l-2.03 2.03a.55.55 0 0 1-.78 0L5.16 11.8a.55.55 0 0 1 0-.78l5.87-5.87Zm-4.83 0a.55.55 0 0 1 .78 0L8 6.2c.22.21.22.56 0 .77L6.98 8.01a.55.55 0 0 1-.78 0L5.17 6.97a.55.55 0 0 1 0-.77L6.2 5.16Z" fill="#B8FF0D"/><defs><linearGradient id="a" x1="3.35" y1="3.12" x2="21.9" y2="24.43" gradientUnits="userSpaceOnUse"><stop stop-color="#1A1E21"/><stop offset="1" stop-color="#06060A"/></linearGradient></defs></svg>