<!-- by TradingView --><svg width="18" height="18" viewBox="0 0 18 18" xmlns="http://www.w3.org/2000/svg"><path fill="url(#ad3ikg5ur)" d="M0 0h18v18H0z"/><path d="M8.4 9.65a174.39 174.39 0 0 1-.56-1.31A1.2 1.2 0 0 0 7 7.72c-.46-.07-.84.08-1.13.46-.2.25-.3.6-.27.94.1 1.1 1.3 1.57 2.05.8a.52.52 0 0 1 .06-.05h.01l.01.01a3.96 3.96 0 0 0 .7 1.56c-1.28.96-3 .66-3.91-.7a3.15 3.15 0 0 1 .4-3.95A2.62 2.62 0 0 1 6.81 6c.95 0 1.83.53 2.33 1.36.1.15.2.37.31.65l.62 1.49c.16.36.43.63.79.74.85.26 1.64-.5 1.53-1.43-.04-.3-.16-.55-.36-.75-.32-.32-.7-.43-1.14-.33a1.1 1.1 0 0 0-.6.39.02.02 0 0 1-.02 0v-.01a3.97 3.97 0 0 0-.71-1.54.04.04 0 0 1 .01-.03c.7-.51 1.55-.68 2.36-.44A3 3 0 0 1 14 9.17c-.04.63-.24 1.2-.6 1.7a2.7 2.7 0 0 1-4.61-.34c-.15-.27-.26-.59-.39-.88Z" fill="#0CD3C6"/><defs><linearGradient id="ad3ikg5ur" x1="3.35" y1="3.12" x2="21.9" y2="24.43" gradientUnits="userSpaceOnUse"><stop stop-color="#1A1E21"/><stop offset="1" stop-color="#06060A"/></linearGradient></defs></svg>