<svg width="298" height="272" viewBox="0 0 298 272" fill="none" xmlns="http://www.w3.org/2000/svg">
<path opacity="0.4" fill-rule="evenodd" clip-rule="evenodd" d="M90.0348 2.64066C66.1034 -1.57908 43.2825 14.4003 39.0627 38.3317L16.1411 168.326C11.9214 192.258 27.9008 215.079 51.8322 219.298L66.756 221.93C67.4892 222.242 68.2349 222.537 68.9928 222.813L193.032 267.959C215.867 276.271 241.116 264.497 249.428 241.662L294.574 117.622C302.885 94.7873 291.112 69.5382 268.277 61.2269L254.536 56.2257C249.894 40.8273 236.949 28.5457 220.029 25.5622L90.0348 2.64066Z" fill="#F2F2F2"/>
<path fill-rule="evenodd" clip-rule="evenodd" d="M67.3291 220L67.5401 220.09C68.2403 220.388 68.9527 220.67 69.6768 220.933L193.716 266.08C215.513 274.013 239.615 262.775 247.548 240.978L292.695 116.938C300.628 95.1412 289.39 71.0398 267.593 63.1063L252.91 57.7623L252.621 56.8029C248.189 42.0992 235.83 30.3792 219.682 27.5318L89.6875 4.61028C66.8439 0.582338 45.0603 15.8354 41.0323 38.679L18.1108 168.674C14.0828 191.517 29.3359 213.301 52.1795 217.329L67.3291 220ZM39.0627 38.3317C43.2824 14.4003 66.1034 -1.57908 90.0348 2.64066L220.029 25.5622C236.949 28.5457 249.894 40.8273 254.536 56.2257L268.277 61.2269C291.112 69.5382 302.885 94.7873 294.574 117.622L249.428 241.662C241.116 264.497 215.867 276.271 193.032 267.959L68.9928 222.813C68.2349 222.537 67.4892 222.242 66.756 221.93L51.8322 219.298C27.9008 215.079 11.9214 192.258 16.1411 168.326L39.0627 38.3317Z" fill="url(#paint0_linear_8960_14686)"/>
<path opacity="0.5" d="M39.0627 38.3317C43.2825 14.4003 66.1034 -1.57908 90.0348 2.64066L220.029 25.5622C243.961 29.782 259.94 52.6029 255.72 76.5343L232.799 206.529C228.579 230.46 205.758 246.44 181.827 242.22L51.8322 219.298C27.9008 215.079 11.9214 192.258 16.1411 168.326L39.0627 38.3317Z" fill="#F2F2F2"/>
<path fill-rule="evenodd" clip-rule="evenodd" d="M219.682 27.5318L89.6875 4.61028C66.8439 0.582339 45.0603 15.8354 41.0323 38.679L18.1108 168.674C14.0828 191.517 29.3359 213.301 52.1795 217.329L182.174 240.25C205.018 244.278 226.801 229.025 230.829 206.182L253.751 76.187C257.779 53.3434 242.526 31.5598 219.682 27.5318ZM90.0348 2.64066C66.1034 -1.57908 43.2824 14.4003 39.0627 38.3317L16.1411 168.326C11.9214 192.258 27.9008 215.079 51.8322 219.298L181.827 242.22C205.758 246.44 228.579 230.46 232.799 206.529L255.72 76.5343C259.94 52.6029 243.961 29.782 220.029 25.5622L90.0348 2.64066Z" fill="url(#paint1_linear_8960_14686)"/>
<g clip-path="url(#clip0_8960_14686)">
<rect width="220" height="220" fill="#F2F2F2"/>
<path d="M60.2364 85.1178C73.9781 85.1178 85.118 73.978 85.118 60.2366C85.118 46.4949 73.9781 35.355 60.2364 35.355C46.495 35.355 35.3552 46.4949 35.3552 60.2366C35.3552 73.978 46.495 85.1178 60.2364 85.1178Z" fill="#62E07E"/>
<path d="M110.001 85.1178C123.743 85.1178 134.883 73.978 134.883 60.2366C134.883 46.4949 123.743 35.355 110.001 35.355C96.2598 35.355 85.1204 46.4949 85.1204 60.2366C85.1204 73.978 96.2598 85.1178 110.001 85.1178Z" fill="#8AF0A1"/>
<path d="M159.761 85.1178C173.503 85.1178 184.642 73.978 184.642 60.2366C184.642 46.4949 173.503 35.355 159.761 35.355C146.019 35.355 134.88 46.4949 134.88 60.2366C134.88 73.978 146.019 85.1178 159.761 85.1178Z" fill="#8AF0A1"/>
<path d="M60.2364 134.88C73.9781 134.88 85.118 123.74 85.118 109.998C85.118 96.2566 73.9781 85.1167 60.2364 85.1167C46.495 85.1167 35.3552 96.2566 35.3552 109.998C35.3552 123.74 46.495 134.88 60.2364 134.88Z" fill="#5BC172"/>
<path d="M110.001 134.88C123.743 134.88 134.883 123.74 134.883 109.998C134.883 96.2566 123.743 85.1167 110.001 85.1167C96.2598 85.1167 85.1204 96.2566 85.1204 109.998C85.1204 123.74 96.2598 134.88 110.001 134.88Z" fill="#62E07E"/>
<path d="M159.761 134.88C173.503 134.88 184.642 123.74 184.642 109.998C184.642 96.2566 173.503 85.1167 159.761 85.1167C146.019 85.1167 134.88 96.2566 134.88 109.998C134.88 123.74 146.019 134.88 159.761 134.88Z" fill="#8AF0A1"/>
<path d="M60.2364 184.644C73.9781 184.644 85.118 173.504 85.118 159.763C85.118 146.021 73.9781 134.881 60.2364 134.881C46.495 134.881 35.3552 146.021 35.3552 159.763C35.3552 173.504 46.495 184.644 60.2364 184.644Z" fill="#448956"/>
<path d="M110.001 184.644C123.743 184.644 134.883 173.504 134.883 159.763C134.883 146.021 123.743 134.881 110.001 134.881C96.2598 134.881 85.1204 146.021 85.1204 159.763C85.1204 173.504 96.2598 184.644 110.001 184.644Z" fill="#5BC172"/>
</g>
<rect x="1" y="1" width="218" height="218" rx="43" stroke="url(#paint2_linear_8960_14686)" stroke-width="2"/>
<defs>
<linearGradient id="paint0_linear_8960_14686" x1="15.4653" y1="-4.75166" x2="272.304" y2="276.753" gradientUnits="userSpaceOnUse">
<stop stop-color="white" stop-opacity="0.6"/>
<stop offset="0.5" stop-color="white" stop-opacity="0"/>
<stop offset="1" stop-color="white" stop-opacity="0.6"/>
</linearGradient>
<linearGradient id="paint1_linear_8960_14686" x1="47.6582" y1="-10.4164" x2="217.163" y2="243.373" gradientUnits="userSpaceOnUse">
<stop stop-color="white" stop-opacity="0.6"/>
<stop offset="0.5" stop-color="white" stop-opacity="0"/>
<stop offset="1" stop-color="white" stop-opacity="0.6"/>
</linearGradient>
<linearGradient id="paint2_linear_8960_14686" x1="1.07139e-06" y1="-5.5" x2="211" y2="215" gradientUnits="userSpaceOnUse">
<stop stop-color="white" stop-opacity="0.6"/>
<stop offset="0.5" stop-color="white" stop-opacity="0"/>
<stop offset="1" stop-color="white" stop-opacity="0.6"/>
</linearGradient>
<clipPath id="clip0_8960_14686">
<rect width="220" height="220" rx="44" fill="white"/>
</clipPath>
</defs>
</svg>
