<svg fill="none" height="272" viewBox="0 0 298 272" width="298" xmlns="http://www.w3.org/2000/svg" xmlns:xlink="http://www.w3.org/1999/xlink"><linearGradient id="a"><stop offset="0" stop-color="#fff" stop-opacity=".6"/><stop offset=".5" stop-color="#fff" stop-opacity="0"/><stop offset="1" stop-color="#fff" stop-opacity=".6"/></linearGradient><linearGradient id="b" gradientUnits="userSpaceOnUse" x1="15.4653" x2="272.304" xlink:href="#a" y1="-4.75166" y2="276.753"/><linearGradient id="c" gradientUnits="userSpaceOnUse" x1="47.6582" x2="217.163" xlink:href="#a" y1="-10.4164" y2="243.373"/><linearGradient id="d" gradientUnits="userSpaceOnUse" x1=".000001" x2="211" xlink:href="#a" y1="-5.5" y2="215"/><clipPath id="e"><rect height="220" rx="44" width="220"/></clipPath><path clip-rule="evenodd" d="m90.0348 2.64066c-23.9314-4.21974-46.7523 11.75964-50.9721 35.69104l-22.9216 129.9943c-4.2197 23.932 11.7597 46.753 35.6911 50.972l14.9238 2.632c.7332.312 1.4789.607 2.2368.883l124.0392 45.146c22.835 8.312 48.084-3.462 56.396-26.297l45.146-124.04c8.311-22.8347-3.462-48.0838-26.297-56.3951l-13.741-5.0012c-4.642-15.3984-17.587-27.68-34.507-30.6635z" fill="#122948" fill-rule="evenodd" opacity=".4"/><path clip-rule="evenodd" d="m67.3291 220 .211.09c.7002.298 1.4126.58 2.1367.843l124.0392 45.147c21.797 7.933 45.899-3.305 53.832-25.102l45.147-124.04c7.933-21.7968-3.305-45.8982-25.102-53.8317l-14.683-5.344-.289-.9594c-4.432-14.7037-16.791-26.4237-32.939-29.2711l-129.9945-22.92152c-22.8436-4.027942-44.6272 11.22512-48.6552 34.06872l-22.9215 129.995c-4.028 22.843 11.2251 44.627 34.0687 48.655zm-28.2664-181.6683c4.2197-23.9314 27.0407-39.91078 50.9721-35.69104l129.9942 22.92154c16.92 2.9835 29.865 15.2651 34.507 30.6635l13.741 5.0012c22.835 8.3113 34.608 33.5604 26.297 56.3951l-45.146 124.04c-8.312 22.835-33.561 34.609-56.396 26.297l-124.0392-45.146c-.7579-.276-1.5036-.571-2.2368-.883l-14.9238-2.632c-23.9314-4.219-39.9108-27.04-35.6911-50.972z" fill="url(#b)" fill-rule="evenodd"/><path d="m39.0627 38.3317c4.2198-23.9314 27.0407-39.91078 50.9721-35.69104l129.9942 22.92154c23.932 4.2198 39.911 27.0407 35.691 50.9721l-22.921 129.9947c-4.22 23.931-27.041 39.911-50.972 35.691l-129.9948-22.922c-23.9314-4.219-39.9108-27.04-35.6911-50.972z" fill="#122948" opacity=".5"/><path clip-rule="evenodd" d="m219.682 27.5318-129.9945-22.92152c-22.8436-4.027941-44.6272 11.22512-48.6552 34.06872l-22.9215 129.995c-4.028 22.843 11.2251 44.627 34.0687 48.655l129.9945 22.921c22.844 4.028 44.627-11.225 48.655-34.068l22.922-129.995c4.028-22.8436-11.225-44.6272-34.069-48.6552zm-129.6472-24.89114c-23.9314-4.21974-46.7524 11.75964-50.9721 35.69104l-22.9216 129.9943c-4.2197 23.932 11.7597 46.753 35.6911 50.972l129.9948 22.922c23.931 4.22 46.752-11.76 50.972-35.691l22.921-129.9947c4.22-23.9314-11.759-46.7523-35.691-50.9721z" fill="url(#c)" fill-rule="evenodd"/><g clip-path="url(#e)"><path d="m0 0h220v220h-220z" fill="#122948"/><path d="m95.6365 174.26c-2.8288-.404-5.6576-1.213-7.6782-2.021-4.0411-1.616-6.8699-4.445-8.4864-7.274l-32.3291-59.001h35.1579l30.3083 48.09 61.021-114.7684h14.549l-67.083 125.2754c-1.617 3.233-4.446 5.658-8.083 7.274-2.424.808-4.849 1.616-7.678 2.425z" fill="#fff"/></g><rect height="218" rx="43" stroke="url(#d)" stroke-width="2" width="218" x="1" y="1"/></svg>